<?xml version="1.0" encoding="UTF-8" standalone="no"?>
<svg xmlns="http://www.w3.org/2000/svg" height="40px" width="39px" version="1.1" xmlns:xlink="http://www.w3.org/1999/xlink" viewBox="0 0 39 40"><!-- Generator: Sketch 42 (36781) - http://www.bohemiancoding.com/sketch -->
 <title>svg4874</title>
 <desc>Created with Sketch.</desc>
 <g id="3.Conjure-up" fill-rule="evenodd" fill="none">
  <g id="Conjure-up-3" transform="translate(-50 -1277)">
   <g id="help" transform="translate(43 1196)">
    <g id="user-manual" transform="translate(0 73)">
     <g id="svg4874">
      <g id="layer1" transform="translate(.47143 .27128)">
       <g id="g4845" transform="translate(27.485 27.681) scale(-1 1) rotate(-90) translate(-27.5 -26.5)">
        <g id="g4778" transform="translate(27.998 26.5) scale(-1 1) translate(-27 -26.5)">
         <g id="g4780" transform="translate(26.829 26.5) scale(-1 1) translate(-26.5 -26.5)">
          <rect id="rect4782" transform="translate(26.4 26.308) rotate(180) translate(-26.4 -26.308)" height="52.615" width="52.8" y="5.6133e-13" x="9.9476e-14"/>
          <path id="path4344" fill-rule="nonzero" fill="#808080" d="m14.337 13.112l-0.076-0.059c0.014 0.011 0.031 0.016 0.045 0.027 0.012 0.009 0.019 0.023 0.031 0.032z"/>
          <path id="rect4200" fill-rule="nonzero" fill="#666" d="m18.117 8.2212v14.913h1.762v-13.162l22.908 0.0003v29.77h-13.216v1.751h14.979v-33.272l-26.433 0.0002zm4.406 4.3778v1.751h17.622v-1.751h-17.622zm0 4.378v1.751h17.622v-1.751h-17.622zm0 4.378v1.751h17.622v-1.751h-17.622zm7.048 4.378v1.751h10.574v-1.751h-10.574zm-10.578 0.008c-5.34 0-9.6878 4.321-9.6878 9.627 0 2.181 0.7358 4.194 1.9718 5.81l-4.677 4.648 1.8698 1.857 4.6752-4.647c1.627 1.229 3.653 1.959 5.848 1.959 5.34 0 9.688-4.32 9.688-9.627 0-5.306-4.348-9.627-9.688-9.627zm0 1.751c4.387 0 7.926 3.516 7.926 7.876 0 4.361-3.539 7.876-7.926 7.876s-7.926-3.515-7.926-7.876c0-4.36 3.539-7.876 7.926-7.876z" transform="translate(25.575 27.952) scale(-1 1) rotate(-90) translate(-25.575 -27.952)"/>
          <path id="path4157" fill-rule="nonzero" fill="#808080" d="m12.145 39.877c-0.012 0.009-0.02 0.023-0.031 0.031-0.014 0.011-0.032 0.017-0.046 0.028l0.077-0.059z"/>
         </g>
        </g>
       </g>
      </g>
     </g>
    </g>
   </g>
  </g>
 </g>
</svg>
