<?xml version="1.0" encoding="UTF-8" standalone="no"?>
<!DOCTYPE svg PUBLIC "-//W3C//DTD SVG 1.1//EN"
 "http://www.w3.org/Graphics/SVG/1.1/DTD/svg11.dtd">
<!-- Generated by graphviz version 2.43.0 (0)
 -->
<!-- Title: miral::WindowManagementPolicy Pages: 1 -->
<svg width="606pt" height="116pt"
 viewBox="0.00 0.00 606.00 115.50" xmlns="http://www.w3.org/2000/svg" xmlns:xlink="http://www.w3.org/1999/xlink">
<g id="graph0" class="graph" transform="scale(1 1) rotate(0) translate(4 111.5)">
<title>miral::WindowManagementPolicy</title>
<polygon fill="white" stroke="transparent" points="-4,4 -4,-111.5 602,-111.5 602,4 -4,4"/>
<!-- Node1 -->
<g id="node1" class="node">
<title>Node1</title>
<g id="a_node1"><a xlink:title="The interface through which the window management policy is determined.">
<polygon fill="#bfbfbf" stroke="black" points="0,-38.5 0,-57.5 181,-57.5 181,-38.5 0,-38.5"/>
<text text-anchor="middle" x="90.5" y="-45.5" font-family="Arial" font-size="10.00">miral::WindowManagementPolicy</text>
</a>
</g>
</g>
<!-- Node2 -->
<g id="node2" class="node">
<title>Node2</title>
<g id="a_node2"><a xlink:href="classmiral_1_1_canonical_window_manager_policy.html" target="_top" xlink:title="Widely accepted defaults for window management.">
<polygon fill="white" stroke="black" points="217,-77 217,-107 395,-107 395,-77 217,-77"/>
<text text-anchor="start" x="225" y="-95" font-family="Arial" font-size="10.00">miral::CanonicalWindowManager</text>
<text text-anchor="middle" x="306" y="-84" font-family="Arial" font-size="10.00">Policy</text>
</a>
</g>
</g>
<!-- Node1&#45;&gt;Node2 -->
<g id="edge1" class="edge">
<title>Node1&#45;&gt;Node2</title>
<path fill="none" stroke="midnightblue" d="M147.79,-59.6C173.54,-64.91 204.38,-71.26 231.9,-76.93"/>
<polygon fill="midnightblue" stroke="midnightblue" points="148.33,-56.14 137.83,-57.55 146.91,-62.99 148.33,-56.14"/>
</g>
<!-- Node4 -->
<g id="node4" class="node">
<title>Node4</title>
<g id="a_node4"><a xlink:href="classmiral_1_1_minimal_window_manager.html" target="_top" xlink:title="Minimal implementation of a floating window management policy.">
<polygon fill="white" stroke="black" points="221,-38.5 221,-57.5 391,-57.5 391,-38.5 221,-38.5"/>
<text text-anchor="middle" x="306" y="-45.5" font-family="Arial" font-size="10.00">miral::MinimalWindowManager</text>
</a>
</g>
</g>
<!-- Node1&#45;&gt;Node4 -->
<g id="edge3" class="edge">
<title>Node1&#45;&gt;Node4</title>
<path fill="none" stroke="midnightblue" d="M191.32,-48C201.16,-48 211.07,-48 220.73,-48"/>
<polygon fill="midnightblue" stroke="midnightblue" points="191.12,-44.5 181.12,-48 191.12,-51.5 191.12,-44.5"/>
</g>
<!-- Node6 -->
<g id="node6" class="node">
<title>Node6</title>
<g id="a_node6"><a xlink:href="class_tiling_window_manager_policy.html" target="_top" xlink:title=" ">
<polygon fill="white" stroke="black" points="228.5,-0.5 228.5,-19.5 383.5,-19.5 383.5,-0.5 228.5,-0.5"/>
<text text-anchor="middle" x="306" y="-7.5" font-family="Arial" font-size="10.00">TilingWindowManagerPolicy</text>
</a>
</g>
</g>
<!-- Node1&#45;&gt;Node6 -->
<g id="edge5" class="edge">
<title>Node1&#45;&gt;Node6</title>
<path fill="none" stroke="midnightblue" d="M155.25,-36.65C185.88,-31.2 222.19,-24.74 251.38,-19.54"/>
<polygon fill="midnightblue" stroke="midnightblue" points="154.33,-33.26 145.1,-38.46 155.56,-40.15 154.33,-33.26"/>
</g>
<!-- Node3 -->
<g id="node3" class="node">
<title>Node3</title>
<g id="a_node3"><a xlink:href="class_kiosk_window_manager_policy.html" target="_top" xlink:title=" ">
<polygon fill="white" stroke="black" points="437,-82.5 437,-101.5 592,-101.5 592,-82.5 437,-82.5"/>
<text text-anchor="middle" x="514.5" y="-89.5" font-family="Arial" font-size="10.00">KioskWindowManagerPolicy</text>
</a>
</g>
</g>
<!-- Node2&#45;&gt;Node3 -->
<g id="edge2" class="edge">
<title>Node2&#45;&gt;Node3</title>
<path fill="none" stroke="midnightblue" d="M405.26,-92C415.82,-92 426.44,-92 436.7,-92"/>
<polygon fill="midnightblue" stroke="midnightblue" points="405.17,-88.5 395.17,-92 405.17,-95.5 405.17,-88.5"/>
</g>
<!-- Node5 -->
<g id="node5" class="node">
<title>Node5</title>
<g id="a_node5"><a xlink:href="class_floating_window_manager_policy.html" target="_top" xlink:title=" ">
<polygon fill="white" stroke="black" points="431,-38.5 431,-57.5 598,-57.5 598,-38.5 431,-38.5"/>
<text text-anchor="middle" x="514.5" y="-45.5" font-family="Arial" font-size="10.00">FloatingWindowManagerPolicy</text>
</a>
</g>
</g>
<!-- Node4&#45;&gt;Node5 -->
<g id="edge4" class="edge">
<title>Node4&#45;&gt;Node5</title>
<path fill="none" stroke="midnightblue" d="M401.45,-48C411.25,-48 421.16,-48 430.82,-48"/>
<polygon fill="midnightblue" stroke="midnightblue" points="401.29,-44.5 391.29,-48 401.29,-51.5 401.29,-44.5"/>
</g>
</g>
</svg>
