<?xml version="1.0" encoding="UTF-8" standalone="no"?>
<!DOCTYPE svg PUBLIC "-//W3C//DTD SVG 1.1//EN"
 "http://www.w3.org/Graphics/SVG/1.1/DTD/svg11.dtd">
<!-- Generated by graphviz version 2.43.0 (0)
 -->
<!-- Title: include/core/mir/geometry/dimensions.h Pages: 1 -->
<svg width="1804pt" height="720pt"
 viewBox="0.00 0.00 1804.00 720.00" xmlns="http://www.w3.org/2000/svg" xmlns:xlink="http://www.w3.org/1999/xlink">
<g id="graph0" class="graph" transform="scale(1 1) rotate(0) translate(4 716)">
<title>include/core/mir/geometry/dimensions.h</title>
<polygon fill="white" stroke="transparent" points="-4,4 -4,-716 1800,-716 1800,4 -4,4"/>
<!-- Node1 -->
<g id="node1" class="node">
<title>Node1</title>
<g id="a_node1"><a xlink:title=" ">
<polygon fill="#bfbfbf" stroke="black" points="550,-681.5 550,-711.5 696,-711.5 696,-681.5 550,-681.5"/>
<text text-anchor="start" x="558" y="-699.5" font-family="Arial" font-size="10.00">include/core/mir/geometry</text>
<text text-anchor="middle" x="623" y="-688.5" font-family="Arial" font-size="10.00">/dimensions.h</text>
</a>
</g>
</g>
<!-- Node2 -->
<g id="node2" class="node">
<title>Node2</title>
<g id="a_node2"><a xlink:href="displacement_8h.html" target="_top" xlink:title=" ">
<polygon fill="white" stroke="black" points="382,-547.5 382,-577.5 528,-577.5 528,-547.5 382,-547.5"/>
<text text-anchor="start" x="390" y="-565.5" font-family="Arial" font-size="10.00">include/core/mir/geometry</text>
<text text-anchor="middle" x="455" y="-554.5" font-family="Arial" font-size="10.00">/displacement.h</text>
</a>
</g>
</g>
<!-- Node1&#45;&gt;Node2 -->
<g id="edge1" class="edge">
<title>Node1&#45;&gt;Node2</title>
<path fill="none" stroke="midnightblue" d="M588.03,-676.13C573.08,-667.3 555.71,-656.31 541,-645 513.27,-623.69 484.45,-594.74 468.21,-577.7"/>
<polygon fill="midnightblue" stroke="midnightblue" points="586.58,-679.33 596.98,-681.33 590.09,-673.28 586.58,-679.33"/>
</g>
<!-- Node25 -->
<g id="node25" class="node">
<title>Node25</title>
<g id="a_node25"><a xlink:href="point_8h.html" target="_top" xlink:title=" ">
<polygon fill="white" stroke="black" points="550,-614.5 550,-644.5 696,-644.5 696,-614.5 550,-614.5"/>
<text text-anchor="start" x="558" y="-632.5" font-family="Arial" font-size="10.00">include/core/mir/geometry</text>
<text text-anchor="middle" x="623" y="-621.5" font-family="Arial" font-size="10.00">/point.h</text>
</a>
</g>
</g>
<!-- Node1&#45;&gt;Node25 -->
<g id="edge42" class="edge">
<title>Node1&#45;&gt;Node25</title>
<path fill="none" stroke="midnightblue" d="M623,-671.11C623,-662.15 623,-652.32 623,-644.58"/>
<polygon fill="midnightblue" stroke="midnightblue" points="619.5,-671.4 623,-681.4 626.5,-671.4 619.5,-671.4"/>
</g>
<!-- Node27 -->
<g id="node27" class="node">
<title>Node27</title>
<g id="a_node27"><a xlink:href="size_8h.html" target="_top" xlink:title=" ">
<polygon fill="white" stroke="black" points="822,-614.5 822,-644.5 968,-644.5 968,-614.5 822,-614.5"/>
<text text-anchor="start" x="830" y="-632.5" font-family="Arial" font-size="10.00">include/core/mir/geometry</text>
<text text-anchor="middle" x="895" y="-621.5" font-family="Arial" font-size="10.00">/size.h</text>
</a>
</g>
</g>
<!-- Node1&#45;&gt;Node27 -->
<g id="edge48" class="edge">
<title>Node1&#45;&gt;Node27</title>
<path fill="none" stroke="midnightblue" d="M691.55,-679.12C736.06,-668.48 793.47,-654.76 835.95,-644.61"/>
<polygon fill="midnightblue" stroke="midnightblue" points="690.6,-675.75 681.69,-681.48 692.22,-682.56 690.6,-675.75"/>
</g>
<!-- Node3 -->
<g id="node3" class="node">
<title>Node3</title>
<g id="a_node3"><a xlink:href="tiling__window__manager_8h.html" target="_top" xlink:title=" ">
<polygon fill="white" stroke="black" points="0,-134.5 0,-164.5 160,-164.5 160,-134.5 0,-134.5"/>
<text text-anchor="start" x="8" y="-152.5" font-family="Arial" font-size="10.00">examples/example&#45;server</text>
<text text-anchor="middle" x="80" y="-141.5" font-family="Arial" font-size="10.00">&#45;lib/tiling_window_manager.h</text>
</a>
</g>
</g>
<!-- Node2&#45;&gt;Node3 -->
<g id="edge2" class="edge">
<title>Node2&#45;&gt;Node3</title>
<path fill="none" stroke="midnightblue" d="M419.22,-542.28C404.75,-533.67 388.35,-522.8 375,-511 243.23,-394.49 122.42,-215.73 89.07,-164.6"/>
<polygon fill="midnightblue" stroke="midnightblue" points="417.53,-545.34 427.93,-547.33 421.04,-539.29 417.53,-545.34"/>
</g>
<!-- Node6 -->
<g id="node6" class="node">
<title>Node6</title>
<g id="a_node6"><a xlink:href="rectangle_8h.html" target="_top" xlink:title=" ">
<polygon fill="white" stroke="black" points="639,-480.5 639,-510.5 785,-510.5 785,-480.5 639,-480.5"/>
<text text-anchor="start" x="647" y="-498.5" font-family="Arial" font-size="10.00">include/core/mir/geometry</text>
<text text-anchor="middle" x="712" y="-487.5" font-family="Arial" font-size="10.00">/rectangle.h</text>
</a>
</g>
</g>
<!-- Node2&#45;&gt;Node6 -->
<g id="edge5" class="edge">
<title>Node2&#45;&gt;Node6</title>
<path fill="none" stroke="midnightblue" d="M520.3,-544.98C562.28,-534.37 616.24,-520.72 656.21,-510.61"/>
<polygon fill="midnightblue" stroke="midnightblue" points="519.29,-541.63 510.45,-547.48 521,-548.42 519.29,-541.63"/>
</g>
<!-- Node11 -->
<g id="node11" class="node">
<title>Node11</title>
<g id="a_node11"><a xlink:href="window__manager__tools_8h.html" target="_top" xlink:title=" ">
<polygon fill="white" stroke="black" points="478,-201.5 478,-231.5 622,-231.5 622,-201.5 478,-201.5"/>
<text text-anchor="start" x="486" y="-219.5" font-family="Arial" font-size="10.00">include/miral/miral</text>
<text text-anchor="middle" x="550" y="-208.5" font-family="Arial" font-size="10.00">/window_manager_tools.h</text>
</a>
</g>
</g>
<!-- Node2&#45;&gt;Node11 -->
<g id="edge40" class="edge">
<title>Node2&#45;&gt;Node11</title>
<path fill="none" stroke="midnightblue" d="M428.88,-540.45C401.37,-515.75 362,-472 362,-424 362,-424 362,-424 362,-349.5 362,-284.69 437.75,-248.97 493.08,-231.53"/>
<polygon fill="midnightblue" stroke="midnightblue" points="426.79,-543.27 436.63,-547.2 431.38,-537.99 426.79,-543.27"/>
</g>
<!-- Node19 -->
<g id="node19" class="node">
<title>Node19</title>
<g id="a_node19"><a xlink:href="window__management__policy_8h.html" target="_top" xlink:title=" ">
<polygon fill="white" stroke="black" points="276,-201.5 276,-231.5 446,-231.5 446,-201.5 276,-201.5"/>
<text text-anchor="start" x="284" y="-219.5" font-family="Arial" font-size="10.00">include/miral/miral</text>
<text text-anchor="middle" x="361" y="-208.5" font-family="Arial" font-size="10.00">/window_management_policy.h</text>
</a>
</g>
</g>
<!-- Node2&#45;&gt;Node19 -->
<g id="edge39" class="edge">
<title>Node2&#45;&gt;Node19</title>
<path fill="none" stroke="midnightblue" d="M402.13,-543.77C352.55,-523.41 286,-484.76 286,-424 286,-424 286,-424 286,-349.5 286,-301.27 324.33,-254.54 346.18,-231.81"/>
<polygon fill="midnightblue" stroke="midnightblue" points="400.89,-547.05 411.48,-547.48 403.47,-540.54 400.89,-547.05"/>
</g>
<!-- Node20 -->
<g id="node20" class="node">
<title>Node20</title>
<g id="a_node20"><a xlink:href="window__specification_8h.html" target="_top" xlink:title=" ">
<polygon fill="white" stroke="black" points="390.5,-335.5 390.5,-365.5 523.5,-365.5 523.5,-335.5 390.5,-335.5"/>
<text text-anchor="start" x="398.5" y="-353.5" font-family="Arial" font-size="10.00">include/miral/miral</text>
<text text-anchor="middle" x="457" y="-342.5" font-family="Arial" font-size="10.00">/window_specification.h</text>
</a>
</g>
</g>
<!-- Node2&#45;&gt;Node20 -->
<g id="edge41" class="edge">
<title>Node2&#45;&gt;Node20</title>
<path fill="none" stroke="midnightblue" d="M441.96,-538.29C426.07,-506.88 403.18,-449.34 419,-402 423.59,-388.26 433.55,-375.27 442.12,-365.9"/>
<polygon fill="midnightblue" stroke="midnightblue" points="438.87,-539.93 446.62,-547.16 445.07,-536.68 438.87,-539.93"/>
</g>
<!-- Node4 -->
<g id="node4" class="node">
<title>Node4</title>
<g id="a_node4"><a xlink:href="shell__main_8cpp.html" target="_top" xlink:title=" ">
<polygon fill="white" stroke="black" points="20,-0.5 20,-30.5 140,-30.5 140,-0.5 20,-0.5"/>
<text text-anchor="start" x="28" y="-18.5" font-family="Arial" font-size="10.00">examples/miral&#45;shell</text>
<text text-anchor="middle" x="80" y="-7.5" font-family="Arial" font-size="10.00">/shell_main.cpp</text>
</a>
</g>
</g>
<!-- Node3&#45;&gt;Node4 -->
<g id="edge3" class="edge">
<title>Node3&#45;&gt;Node4</title>
<path fill="none" stroke="midnightblue" d="M80,-124.02C80,-96.51 80,-52.79 80,-30.52"/>
<polygon fill="midnightblue" stroke="midnightblue" points="76.5,-124.37 80,-134.37 83.5,-124.37 76.5,-124.37"/>
</g>
<!-- Node5 -->
<g id="node5" class="node">
<title>Node5</title>
<g id="a_node5"><a xlink:href="tiling__window__manager_8cpp.html" target="_top" xlink:title=" ">
<polygon fill="white" stroke="black" points="529.5,-67.5 529.5,-97.5 700.5,-97.5 700.5,-67.5 529.5,-67.5"/>
<text text-anchor="start" x="537.5" y="-85.5" font-family="Arial" font-size="10.00">examples/example&#45;server</text>
<text text-anchor="middle" x="615" y="-74.5" font-family="Arial" font-size="10.00">&#45;lib/tiling_window_manager.cpp</text>
</a>
</g>
</g>
<!-- Node3&#45;&gt;Node5 -->
<g id="edge4" class="edge">
<title>Node3&#45;&gt;Node5</title>
<path fill="none" stroke="midnightblue" d="M170.05,-133.95C229.08,-126.38 417.02,-105.42 529.1,-93"/>
<polygon fill="midnightblue" stroke="midnightblue" points="169.48,-130.49 160.03,-135.27 170.4,-137.43 169.48,-130.49"/>
</g>
<!-- Node7 -->
<g id="node7" class="node">
<title>Node7</title>
<g id="a_node7"><a xlink:href="rectangles_8h.html" target="_top" xlink:title=" ">
<polygon fill="white" stroke="black" points="428,-408 428,-438 574,-438 574,-408 428,-408"/>
<text text-anchor="start" x="436" y="-426" font-family="Arial" font-size="10.00">include/core/mir/geometry</text>
<text text-anchor="middle" x="501" y="-415" font-family="Arial" font-size="10.00">/rectangles.h</text>
</a>
</g>
</g>
<!-- Node6&#45;&gt;Node7 -->
<g id="edge6" class="edge">
<title>Node6&#45;&gt;Node7</title>
<path fill="none" stroke="midnightblue" d="M660.24,-477.2C624.26,-465.18 576.91,-449.36 543.22,-438.11"/>
<polygon fill="midnightblue" stroke="midnightblue" points="659.47,-480.64 670.06,-480.49 661.69,-474 659.47,-480.64"/>
</g>
<!-- Node21 -->
<g id="node21" class="node">
<title>Node21</title>
<g id="a_node21"><a xlink:href="output_8h.html" target="_top" xlink:title=" ">
<polygon fill="white" stroke="black" points="734.5,-408 734.5,-438 843.5,-438 843.5,-408 734.5,-408"/>
<text text-anchor="start" x="742.5" y="-426" font-family="Arial" font-size="10.00">include/miral/miral</text>
<text text-anchor="middle" x="789" y="-415" font-family="Arial" font-size="10.00">/output.h</text>
</a>
</g>
</g>
<!-- Node6&#45;&gt;Node21 -->
<g id="edge33" class="edge">
<title>Node6&#45;&gt;Node21</title>
<path fill="none" stroke="midnightblue" d="M734.98,-473.46C747.49,-462 762.64,-448.14 773.7,-438"/>
<polygon fill="midnightblue" stroke="midnightblue" points="732.59,-470.9 727.58,-480.23 737.32,-476.06 732.59,-470.9"/>
</g>
<!-- Node22 -->
<g id="node22" class="node">
<title>Node22</title>
<g id="a_node22"><a xlink:href="zone_8h.html" target="_top" xlink:title=" ">
<polygon fill="white" stroke="black" points="833.5,-134.5 833.5,-164.5 942.5,-164.5 942.5,-134.5 833.5,-134.5"/>
<text text-anchor="start" x="841.5" y="-152.5" font-family="Arial" font-size="10.00">include/miral/miral</text>
<text text-anchor="middle" x="888" y="-141.5" font-family="Arial" font-size="10.00">/zone.h</text>
</a>
</g>
</g>
<!-- Node6&#45;&gt;Node22 -->
<g id="edge34" class="edge">
<title>Node6&#45;&gt;Node22</title>
<path fill="none" stroke="midnightblue" d="M794.78,-481.35C816.79,-473.91 838.46,-462.25 853,-444 921.43,-358.11 899.91,-210.72 891.01,-164.67"/>
<polygon fill="midnightblue" stroke="midnightblue" points="793.52,-478.08 785.01,-484.39 795.6,-484.77 793.52,-478.08"/>
</g>
<!-- Node23 -->
<g id="node23" class="node">
<title>Node23</title>
<g id="a_node23"><a xlink:href="display__configuration__storage_8h.html" target="_top" xlink:title=" ">
<polygon fill="white" stroke="black" points="592,-402.5 592,-443.5 716,-443.5 716,-402.5 592,-402.5"/>
<text text-anchor="start" x="600" y="-431.5" font-family="Arial" font-size="10.00">include/miroil/miroil</text>
<text text-anchor="start" x="600" y="-420.5" font-family="Arial" font-size="10.00">/display_configuration</text>
<text text-anchor="middle" x="654" y="-409.5" font-family="Arial" font-size="10.00">_storage.h</text>
</a>
</g>
</g>
<!-- Node6&#45;&gt;Node23 -->
<g id="edge37" class="edge">
<title>Node6&#45;&gt;Node23</title>
<path fill="none" stroke="midnightblue" d="M693.7,-472.26C686.14,-463.06 677.44,-452.49 670.12,-443.59"/>
<polygon fill="midnightblue" stroke="midnightblue" points="691.21,-474.73 700.26,-480.23 696.61,-470.29 691.21,-474.73"/>
</g>
<!-- Node24 -->
<g id="node24" class="node">
<title>Node24</title>
<g id="a_node24"><a xlink:href="surface__observer_8h.html" target="_top" xlink:title=" ">
<polygon fill="white" stroke="black" points="900.5,-408 900.5,-438 1015.5,-438 1015.5,-408 900.5,-408"/>
<text text-anchor="start" x="908.5" y="-426" font-family="Arial" font-size="10.00">include/miroil/miroil</text>
<text text-anchor="middle" x="958" y="-415" font-family="Arial" font-size="10.00">/surface_observer.h</text>
</a>
</g>
</g>
<!-- Node6&#45;&gt;Node24 -->
<g id="edge38" class="edge">
<title>Node6&#45;&gt;Node24</title>
<path fill="none" stroke="midnightblue" d="M770.74,-477.66C812.87,-465.59 868.99,-449.51 908.78,-438.11"/>
<polygon fill="midnightblue" stroke="midnightblue" points="769.54,-474.37 760.9,-480.49 771.47,-481.1 769.54,-474.37"/>
</g>
<!-- Node8 -->
<g id="node8" class="node">
<title>Node8</title>
<g id="a_node8"><a xlink:href="window__info_8h.html" target="_top" xlink:title=" ">
<polygon fill="white" stroke="black" points="674.5,-268.5 674.5,-298.5 783.5,-298.5 783.5,-268.5 674.5,-268.5"/>
<text text-anchor="start" x="682.5" y="-286.5" font-family="Arial" font-size="10.00">include/miral/miral</text>
<text text-anchor="middle" x="729" y="-275.5" font-family="Arial" font-size="10.00">/window_info.h</text>
</a>
</g>
</g>
<!-- Node7&#45;&gt;Node8 -->
<g id="edge7" class="edge">
<title>Node7&#45;&gt;Node8</title>
<path fill="none" stroke="midnightblue" d="M533.31,-402.51C579.84,-374.45 664.61,-323.33 705.59,-298.62"/>
<polygon fill="midnightblue" stroke="midnightblue" points="531.3,-399.64 524.54,-407.8 534.91,-405.64 531.3,-399.64"/>
</g>
<!-- Node7&#45;&gt;Node19 -->
<g id="edge27" class="edge">
<title>Node7&#45;&gt;Node19</title>
<path fill="none" stroke="midnightblue" d="M519.27,-399.79C531.72,-381.78 544.11,-356.04 533,-335 505.23,-282.39 442.13,-248.88 400.57,-231.64"/>
<polygon fill="midnightblue" stroke="midnightblue" points="516.36,-397.83 513.25,-407.95 522,-401.98 516.36,-397.83"/>
</g>
<!-- Node7&#45;&gt;Node20 -->
<g id="edge31" class="edge">
<title>Node7&#45;&gt;Node20</title>
<path fill="none" stroke="midnightblue" d="M486.68,-399.06C479.83,-388.09 471.85,-375.3 465.89,-365.75"/>
<polygon fill="midnightblue" stroke="midnightblue" points="483.83,-401.1 492.1,-407.73 489.77,-397.4 483.83,-401.1"/>
</g>
<!-- Node8&#45;&gt;Node5 -->
<g id="edge10" class="edge">
<title>Node8&#45;&gt;Node5</title>
<path fill="none" stroke="midnightblue" d="M715.72,-259.33C691.9,-217.74 642.56,-131.61 623.12,-97.68"/>
<polygon fill="midnightblue" stroke="midnightblue" points="712.79,-261.25 720.8,-268.19 718.87,-257.77 712.79,-261.25"/>
</g>
<!-- Node9 -->
<g id="node9" class="node">
<title>Node9</title>
<g id="a_node9"><a xlink:href="kiosk__window__manager_8cpp.html" target="_top" xlink:title=" ">
<polygon fill="white" stroke="black" points="422.5,-0.5 422.5,-30.5 579.5,-30.5 579.5,-0.5 422.5,-0.5"/>
<text text-anchor="start" x="430.5" y="-18.5" font-family="Arial" font-size="10.00">examples/miral&#45;kiosk</text>
<text text-anchor="middle" x="501" y="-7.5" font-family="Arial" font-size="10.00">/kiosk_window_manager.cpp</text>
</a>
</g>
</g>
<!-- Node8&#45;&gt;Node9 -->
<g id="edge8" class="edge">
<title>Node8&#45;&gt;Node9</title>
<path fill="none" stroke="midnightblue" d="M734.97,-258.55C744.31,-214.79 756.86,-121.43 710,-67 692.86,-47.09 631.39,-33.81 579.52,-25.89"/>
<polygon fill="midnightblue" stroke="midnightblue" points="731.55,-257.79 732.75,-268.31 738.38,-259.33 731.55,-257.79"/>
</g>
<!-- Node10 -->
<g id="node10" class="node">
<title>Node10</title>
<g id="a_node10"><a xlink:href="floating__window__manager_8cpp.html" target="_top" xlink:title=" ">
<polygon fill="white" stroke="black" points="713.5,-0.5 713.5,-30.5 896.5,-30.5 896.5,-0.5 713.5,-0.5"/>
<text text-anchor="start" x="721.5" y="-18.5" font-family="Arial" font-size="10.00">examples/example&#45;server</text>
<text text-anchor="middle" x="805" y="-7.5" font-family="Arial" font-size="10.00">&#45;lib/floating_window_manager.cpp</text>
</a>
</g>
</g>
<!-- Node8&#45;&gt;Node10 -->
<g id="edge9" class="edge">
<title>Node8&#45;&gt;Node10</title>
<path fill="none" stroke="midnightblue" d="M757.29,-261.63C766.36,-253.43 775.48,-243.28 781,-232 814.86,-162.87 809.94,-66.67 806.59,-30.76"/>
<polygon fill="midnightblue" stroke="midnightblue" points="754.78,-259.17 749.42,-268.31 759.31,-264.51 754.78,-259.17"/>
</g>
<!-- Node8&#45;&gt;Node11 -->
<g id="edge11" class="edge">
<title>Node8&#45;&gt;Node11</title>
<path fill="none" stroke="midnightblue" d="M680.68,-264.96C651.85,-254.48 615.72,-241.37 588.76,-231.58"/>
<polygon fill="midnightblue" stroke="midnightblue" points="679.57,-268.27 690.16,-268.4 681.95,-261.69 679.57,-268.27"/>
</g>
<!-- Node11&#45;&gt;Node3 -->
<g id="edge17" class="edge">
<title>Node11&#45;&gt;Node3</title>
<path fill="none" stroke="midnightblue" d="M467.79,-202.82C463.47,-202.19 459.18,-201.58 455,-201 328.11,-183.33 295.8,-183.3 169,-165 166.06,-164.58 163.06,-164.13 160.03,-163.68"/>
<polygon fill="midnightblue" stroke="midnightblue" points="467.53,-206.31 477.93,-204.3 468.54,-199.39 467.53,-206.31"/>
</g>
<!-- Node11&#45;&gt;Node5 -->
<g id="edge18" class="edge">
<title>Node11&#45;&gt;Node5</title>
<path fill="none" stroke="midnightblue" d="M561.52,-192.12C575.02,-164.68 596.98,-120.09 608.09,-97.52"/>
<polygon fill="midnightblue" stroke="midnightblue" points="558.23,-190.86 556.96,-201.37 564.51,-193.95 558.23,-190.86"/>
</g>
<!-- Node11&#45;&gt;Node9 -->
<g id="edge12" class="edge">
<title>Node11&#45;&gt;Node9</title>
<path fill="none" stroke="midnightblue" d="M544.69,-191.54C541.02,-175.27 535.92,-153.28 531,-134 526.89,-117.91 525.2,-114.07 521,-98 514.84,-74.46 508.21,-46.95 504.34,-30.67"/>
<polygon fill="midnightblue" stroke="midnightblue" points="541.28,-192.33 546.88,-201.32 548.11,-190.8 541.28,-192.33"/>
</g>
<!-- Node11&#45;&gt;Node10 -->
<g id="edge16" class="edge">
<title>Node11&#45;&gt;Node10</title>
<path fill="none" stroke="midnightblue" d="M578.87,-195.3C611.29,-172.38 665.23,-133.56 710,-98 738.59,-75.29 770.57,-47.29 789.17,-30.72"/>
<polygon fill="midnightblue" stroke="midnightblue" points="576.48,-192.7 570.32,-201.32 580.51,-198.42 576.48,-192.7"/>
</g>
<!-- Node12 -->
<g id="node12" class="node">
<title>Node12</title>
<g id="a_node12"><a xlink:href="decoration__provider_8h.html" target="_top" xlink:title=" ">
<polygon fill="white" stroke="black" points="960.5,-134.5 960.5,-164.5 1105.5,-164.5 1105.5,-134.5 960.5,-134.5"/>
<text text-anchor="start" x="968.5" y="-152.5" font-family="Arial" font-size="10.00">examples/example&#45;server</text>
<text text-anchor="middle" x="1033" y="-141.5" font-family="Arial" font-size="10.00">&#45;lib/decoration_provider.h</text>
</a>
</g>
</g>
<!-- Node11&#45;&gt;Node12 -->
<g id="edge13" class="edge">
<title>Node11&#45;&gt;Node12</title>
<path fill="none" stroke="midnightblue" d="M632.23,-206.44C713.6,-197.18 841.63,-181.8 952,-165 954.68,-164.59 957.41,-164.16 960.17,-163.72"/>
<polygon fill="midnightblue" stroke="midnightblue" points="631.59,-202.99 622.05,-207.6 632.38,-209.95 631.59,-202.99"/>
</g>
<!-- Node14 -->
<g id="node14" class="node">
<title>Node14</title>
<g id="a_node14"><a xlink:href="canonical__window__manager_8h.html" target="_top" xlink:title=" ">
<polygon fill="white" stroke="black" points="178,-134.5 178,-164.5 344,-164.5 344,-134.5 178,-134.5"/>
<text text-anchor="start" x="186" y="-152.5" font-family="Arial" font-size="10.00">include/miral/miral</text>
<text text-anchor="middle" x="261" y="-141.5" font-family="Arial" font-size="10.00">/canonical_window_manager.h</text>
</a>
</g>
</g>
<!-- Node11&#45;&gt;Node14 -->
<g id="edge19" class="edge">
<title>Node11&#45;&gt;Node14</title>
<path fill="none" stroke="midnightblue" d="M477.76,-199.25C430.39,-188.6 369.07,-174.81 323.74,-164.61"/>
<polygon fill="midnightblue" stroke="midnightblue" points="477.12,-202.7 487.65,-201.48 478.66,-195.87 477.12,-202.7"/>
</g>
<!-- Node17 -->
<g id="node17" class="node">
<title>Node17</title>
<g id="a_node17"><a xlink:href="minimal__window__manager_8h.html" target="_top" xlink:title=" ">
<polygon fill="white" stroke="black" points="362,-134.5 362,-164.5 522,-164.5 522,-134.5 362,-134.5"/>
<text text-anchor="start" x="370" y="-152.5" font-family="Arial" font-size="10.00">include/miral/miral</text>
<text text-anchor="middle" x="442" y="-141.5" font-family="Arial" font-size="10.00">/minimal_window_manager.h</text>
</a>
</g>
</g>
<!-- Node11&#45;&gt;Node17 -->
<g id="edge23" class="edge">
<title>Node11&#45;&gt;Node17</title>
<path fill="none" stroke="midnightblue" d="M517.63,-196.02C500.82,-185.9 480.66,-173.77 465.39,-164.58"/>
<polygon fill="midnightblue" stroke="midnightblue" points="516.19,-199.24 526.57,-201.4 519.8,-193.24 516.19,-199.24"/>
</g>
<!-- Node12&#45;&gt;Node10 -->
<g id="edge15" class="edge">
<title>Node12&#45;&gt;Node10</title>
<path fill="none" stroke="midnightblue" d="M999.83,-129.3C953.44,-102.44 870.25,-54.27 829.22,-30.52"/>
<polygon fill="midnightblue" stroke="midnightblue" points="998.19,-132.39 1008.6,-134.37 1001.7,-126.33 998.19,-132.39"/>
</g>
<!-- Node13 -->
<g id="node13" class="node">
<title>Node13</title>
<g id="a_node13"><a xlink:href="decoration__provider_8cpp.html" target="_top" xlink:title=" ">
<polygon fill="white" stroke="black" points="1063,-67.5 1063,-97.5 1215,-97.5 1215,-67.5 1063,-67.5"/>
<text text-anchor="start" x="1071" y="-85.5" font-family="Arial" font-size="10.00">examples/example&#45;server</text>
<text text-anchor="middle" x="1139" y="-74.5" font-family="Arial" font-size="10.00">&#45;lib/decoration_provider.cpp</text>
</a>
</g>
</g>
<!-- Node12&#45;&gt;Node13 -->
<g id="edge14" class="edge">
<title>Node12&#45;&gt;Node13</title>
<path fill="none" stroke="midnightblue" d="M1064.78,-129.02C1081.27,-118.9 1101.05,-106.77 1116.04,-97.58"/>
<polygon fill="midnightblue" stroke="midnightblue" points="1062.7,-126.18 1056,-134.4 1066.35,-132.15 1062.7,-126.18"/>
</g>
<!-- Node15 -->
<g id="node15" class="node">
<title>Node15</title>
<g id="a_node15"><a xlink:href="kiosk__window__manager_8h.html" target="_top" xlink:title=" ">
<polygon fill="white" stroke="black" points="137,-67.5 137,-97.5 283,-97.5 283,-67.5 137,-67.5"/>
<text text-anchor="start" x="145" y="-85.5" font-family="Arial" font-size="10.00">examples/miral&#45;kiosk</text>
<text text-anchor="middle" x="210" y="-74.5" font-family="Arial" font-size="10.00">/kiosk_window_manager.h</text>
</a>
</g>
</g>
<!-- Node14&#45;&gt;Node15 -->
<g id="edge20" class="edge">
<title>Node14&#45;&gt;Node15</title>
<path fill="none" stroke="midnightblue" d="M243.7,-126.45C236.21,-116.9 227.66,-106 221.04,-97.58"/>
<polygon fill="midnightblue" stroke="midnightblue" points="241.01,-128.69 249.93,-134.4 246.51,-124.37 241.01,-128.69"/>
</g>
<!-- Node15&#45;&gt;Node9 -->
<g id="edge22" class="edge">
<title>Node15&#45;&gt;Node9</title>
<path fill="none" stroke="midnightblue" d="M282.76,-65.25C330.54,-54.58 392.42,-40.75 438.08,-30.55"/>
<polygon fill="midnightblue" stroke="midnightblue" points="281.78,-61.88 272.78,-67.48 283.31,-68.71 281.78,-61.88"/>
</g>
<!-- Node16 -->
<g id="node16" class="node">
<title>Node16</title>
<g id="a_node16"><a xlink:href="kiosk__main_8cpp.html" target="_top" xlink:title=" ">
<polygon fill="white" stroke="black" points="158.5,-0.5 158.5,-30.5 281.5,-30.5 281.5,-0.5 158.5,-0.5"/>
<text text-anchor="start" x="166.5" y="-18.5" font-family="Arial" font-size="10.00">examples/miral&#45;kiosk</text>
<text text-anchor="middle" x="220" y="-7.5" font-family="Arial" font-size="10.00">/kiosk_main.cpp</text>
</a>
</g>
</g>
<!-- Node15&#45;&gt;Node16 -->
<g id="edge21" class="edge">
<title>Node15&#45;&gt;Node16</title>
<path fill="none" stroke="midnightblue" d="M213.71,-57.4C215.1,-48.37 216.63,-38.41 217.83,-30.58"/>
<polygon fill="midnightblue" stroke="midnightblue" points="210.23,-56.98 212.17,-67.4 217.15,-58.04 210.23,-56.98"/>
</g>
<!-- Node18 -->
<g id="node18" class="node">
<title>Node18</title>
<g id="a_node18"><a xlink:href="floating__window__manager_8h.html" target="_top" xlink:title=" ">
<polygon fill="white" stroke="black" points="301,-67.5 301,-97.5 473,-97.5 473,-67.5 301,-67.5"/>
<text text-anchor="start" x="309" y="-85.5" font-family="Arial" font-size="10.00">examples/example&#45;server</text>
<text text-anchor="middle" x="387" y="-74.5" font-family="Arial" font-size="10.00">&#45;lib/floating_window_manager.h</text>
</a>
</g>
</g>
<!-- Node17&#45;&gt;Node18 -->
<g id="edge24" class="edge">
<title>Node17&#45;&gt;Node18</title>
<path fill="none" stroke="midnightblue" d="M423.58,-126.74C415.45,-117.12 406.11,-106.09 398.91,-97.58"/>
<polygon fill="midnightblue" stroke="midnightblue" points="420.93,-129.02 430.07,-134.4 426.28,-124.5 420.93,-129.02"/>
</g>
<!-- Node18&#45;&gt;Node4 -->
<g id="edge25" class="edge">
<title>Node18&#45;&gt;Node4</title>
<path fill="none" stroke="midnightblue" d="M310.79,-65.36C258.09,-54.21 188.95,-39.57 140.13,-29.23"/>
<polygon fill="midnightblue" stroke="midnightblue" points="310.26,-68.83 320.76,-67.48 311.71,-61.98 310.26,-68.83"/>
</g>
<!-- Node18&#45;&gt;Node10 -->
<g id="edge26" class="edge">
<title>Node18&#45;&gt;Node10</title>
<path fill="none" stroke="midnightblue" d="M483.2,-66.54C552.87,-55.71 646.4,-41.16 714.67,-30.55"/>
<polygon fill="midnightblue" stroke="midnightblue" points="482.45,-63.12 473.1,-68.11 483.52,-70.03 482.45,-63.12"/>
</g>
<!-- Node19&#45;&gt;Node3 -->
<g id="edge28" class="edge">
<title>Node19&#45;&gt;Node3</title>
<path fill="none" stroke="midnightblue" d="M290.47,-199.19C244.45,-188.54 184.98,-174.78 141,-164.61"/>
<polygon fill="midnightblue" stroke="midnightblue" points="289.84,-202.63 300.37,-201.48 291.42,-195.81 289.84,-202.63"/>
</g>
<!-- Node19&#45;&gt;Node14 -->
<g id="edge29" class="edge">
<title>Node19&#45;&gt;Node14</title>
<path fill="none" stroke="midnightblue" d="M330.59,-195.73C315.12,-185.68 296.67,-173.68 282.66,-164.58"/>
<polygon fill="midnightblue" stroke="midnightblue" points="329.01,-198.88 339.3,-201.4 332.82,-193.01 329.01,-198.88"/>
</g>
<!-- Node19&#45;&gt;Node17 -->
<g id="edge30" class="edge">
<title>Node19&#45;&gt;Node17</title>
<path fill="none" stroke="midnightblue" d="M386.69,-194.88C399,-185.01 413.43,-173.43 424.46,-164.58"/>
<polygon fill="midnightblue" stroke="midnightblue" points="384.18,-192.41 378.58,-201.4 388.57,-197.87 384.18,-192.41"/>
</g>
<!-- Node20&#45;&gt;Node8 -->
<g id="edge32" class="edge">
<title>Node20&#45;&gt;Node8</title>
<path fill="none" stroke="midnightblue" d="M525.57,-333.11C571.55,-322.13 631.3,-307.85 674.13,-297.61"/>
<polygon fill="midnightblue" stroke="midnightblue" points="524.6,-329.75 515.69,-335.48 526.22,-336.56 524.6,-329.75"/>
</g>
<!-- Node22&#45;&gt;Node5 -->
<g id="edge36" class="edge">
<title>Node22&#45;&gt;Node5</title>
<path fill="none" stroke="midnightblue" d="M823.42,-133.12C778.19,-122.35 718.22,-108.08 674.23,-97.6"/>
<polygon fill="midnightblue" stroke="midnightblue" points="822.87,-136.59 833.41,-135.5 824.49,-129.78 822.87,-136.59"/>
</g>
<!-- Node22&#45;&gt;Node10 -->
<g id="edge35" class="edge">
<title>Node22&#45;&gt;Node10</title>
<path fill="none" stroke="midnightblue" d="M873.75,-125.83C856.54,-98.47 828.13,-53.28 813.82,-30.52"/>
<polygon fill="midnightblue" stroke="midnightblue" points="870.83,-127.77 879.12,-134.37 876.76,-124.05 870.83,-127.77"/>
</g>
<!-- Node25&#45;&gt;Node2 -->
<g id="edge43" class="edge">
<title>Node25&#45;&gt;Node2</title>
<path fill="none" stroke="midnightblue" d="M576.95,-610.68C550,-600.26 516.46,-587.28 491.38,-577.58"/>
<polygon fill="midnightblue" stroke="midnightblue" points="575.96,-614.05 586.55,-614.4 578.48,-607.52 575.96,-614.05"/>
</g>
<!-- Node25&#45;&gt;Node6 -->
<g id="edge44" class="edge">
<title>Node25&#45;&gt;Node6</title>
<path fill="none" stroke="midnightblue" d="M638.28,-605.83C656.74,-578.47 687.2,-533.28 702.54,-510.52"/>
<polygon fill="midnightblue" stroke="midnightblue" points="635.21,-604.13 632.52,-614.37 641.02,-608.04 635.21,-604.13"/>
</g>
<!-- Node25&#45;&gt;Node7 -->
<g id="edge45" class="edge">
<title>Node25&#45;&gt;Node7</title>
<path fill="none" stroke="midnightblue" d="M609.37,-605.66C584,-563.13 530.23,-472.99 509.44,-438.15"/>
<polygon fill="midnightblue" stroke="midnightblue" points="606.49,-607.65 614.61,-614.44 612.5,-604.06 606.49,-607.65"/>
</g>
<!-- Node26 -->
<g id="node26" class="node">
<title>Node26</title>
<g id="a_node26"><a xlink:href="window_8h.html" target="_top" xlink:title=" ">
<polygon fill="white" stroke="black" points="799.5,-547.5 799.5,-577.5 908.5,-577.5 908.5,-547.5 799.5,-547.5"/>
<text text-anchor="start" x="807.5" y="-565.5" font-family="Arial" font-size="10.00">include/miral/miral</text>
<text text-anchor="middle" x="854" y="-554.5" font-family="Arial" font-size="10.00">/window.h</text>
</a>
</g>
</g>
<!-- Node25&#45;&gt;Node26 -->
<g id="edge46" class="edge">
<title>Node25&#45;&gt;Node26</title>
<path fill="none" stroke="midnightblue" d="M682.65,-611.71C720.24,-601.14 768.23,-587.63 803.85,-577.61"/>
<polygon fill="midnightblue" stroke="midnightblue" points="681.52,-608.4 672.84,-614.48 683.41,-615.14 681.52,-608.4"/>
</g>
<!-- Node26&#45;&gt;Node8 -->
<g id="edge47" class="edge">
<title>Node26&#45;&gt;Node8</title>
<path fill="none" stroke="midnightblue" d="M877.86,-540.56C898.15,-523.27 928.47,-498.62 957,-480 985.64,-461.31 1007.36,-473.3 1025,-444 1034.63,-428.01 1035.49,-417.44 1025,-402 970.88,-322.29 853.3,-296.66 783.72,-288.41"/>
<polygon fill="midnightblue" stroke="midnightblue" points="875.37,-538.09 870.07,-547.26 879.94,-543.39 875.37,-538.09"/>
</g>
<!-- Node27&#45;&gt;Node2 -->
<g id="edge61" class="edge">
<title>Node27&#45;&gt;Node2</title>
<path fill="none" stroke="midnightblue" d="M811.84,-616.22C730.09,-604.14 606.51,-585.88 528.33,-574.33"/>
<polygon fill="midnightblue" stroke="midnightblue" points="811.44,-619.69 821.85,-617.69 812.47,-612.77 811.44,-619.69"/>
</g>
<!-- Node27&#45;&gt;Node6 -->
<g id="edge62" class="edge">
<title>Node27&#45;&gt;Node6</title>
<path fill="none" stroke="midnightblue" d="M848.85,-610.28C830.07,-601.81 808.67,-590.79 791,-578 763.54,-558.13 737.32,-528.17 723.07,-510.65"/>
<polygon fill="midnightblue" stroke="midnightblue" points="847.56,-613.53 858.12,-614.34 850.37,-607.12 847.56,-613.53"/>
</g>
<!-- Node27&#45;&gt;Node24 -->
<g id="edge65" class="edge">
<title>Node27&#45;&gt;Node24</title>
<path fill="none" stroke="midnightblue" d="M906.72,-605.01C910.64,-596.61 914.81,-587.01 918,-578 935.82,-527.75 949.5,-465.74 955.16,-438.26"/>
<polygon fill="midnightblue" stroke="midnightblue" points="903.49,-603.66 902.32,-614.19 909.8,-606.68 903.49,-603.66"/>
</g>
<!-- Node27&#45;&gt;Node26 -->
<g id="edge63" class="edge">
<title>Node27&#45;&gt;Node26</title>
<path fill="none" stroke="midnightblue" d="M880.72,-605.87C874.79,-596.46 868.09,-585.83 862.88,-577.58"/>
<polygon fill="midnightblue" stroke="midnightblue" points="877.81,-607.81 886.1,-614.4 883.73,-604.07 877.81,-607.81"/>
</g>
<!-- Node28 -->
<g id="node28" class="node">
<title>Node28</title>
<g id="a_node28"><a xlink:href="wayland__surface_8h.html" target="_top" xlink:title=" ">
<polygon fill="white" stroke="black" points="1268.5,-547.5 1268.5,-577.5 1413.5,-577.5 1413.5,-547.5 1268.5,-547.5"/>
<text text-anchor="start" x="1276.5" y="-565.5" font-family="Arial" font-size="10.00">examples/example&#45;server</text>
<text text-anchor="middle" x="1341" y="-554.5" font-family="Arial" font-size="10.00">&#45;lib/wayland_surface.h</text>
</a>
</g>
</g>
<!-- Node27&#45;&gt;Node28 -->
<g id="edge49" class="edge">
<title>Node27&#45;&gt;Node28</title>
<path fill="none" stroke="midnightblue" d="M978.1,-617.33C1050.71,-607.44 1158.93,-592.38 1253,-578 1257.9,-577.25 1262.95,-576.46 1268.03,-575.66"/>
<polygon fill="midnightblue" stroke="midnightblue" points="977.53,-613.88 968.09,-618.69 978.47,-620.81 977.53,-613.88"/>
</g>
<!-- Node35 -->
<g id="node35" class="node">
<title>Node35</title>
<g id="a_node35"><a xlink:href="wayland__shm_8h.html" target="_top" xlink:title=" ">
<polygon fill="white" stroke="black" points="965.5,-547.5 965.5,-577.5 1110.5,-577.5 1110.5,-547.5 965.5,-547.5"/>
<text text-anchor="start" x="973.5" y="-565.5" font-family="Arial" font-size="10.00">examples/example&#45;server</text>
<text text-anchor="middle" x="1038" y="-554.5" font-family="Arial" font-size="10.00">&#45;lib/wayland_shm.h</text>
</a>
</g>
</g>
<!-- Node27&#45;&gt;Node35 -->
<g id="edge57" class="edge">
<title>Node27&#45;&gt;Node35</title>
<path fill="none" stroke="midnightblue" d="M935.41,-610.13C958.13,-599.8 986.06,-587.11 1007.03,-577.58"/>
<polygon fill="midnightblue" stroke="midnightblue" points="933.68,-607.07 926.03,-614.4 936.58,-613.44 933.68,-607.07"/>
</g>
<!-- Node37 -->
<g id="node37" class="node">
<title>Node37</title>
<g id="a_node37"><a xlink:href="mirbuffer_8h.html" target="_top" xlink:title=" ">
<polygon fill="white" stroke="black" points="1128.5,-547.5 1128.5,-577.5 1243.5,-577.5 1243.5,-547.5 1128.5,-547.5"/>
<text text-anchor="start" x="1136.5" y="-565.5" font-family="Arial" font-size="10.00">include/miroil/miroil</text>
<text text-anchor="middle" x="1186" y="-554.5" font-family="Arial" font-size="10.00">/mirbuffer.h</text>
</a>
</g>
</g>
<!-- Node27&#45;&gt;Node37 -->
<g id="edge64" class="edge">
<title>Node27&#45;&gt;Node37</title>
<path fill="none" stroke="midnightblue" d="M967.81,-612.24C1017.43,-601.15 1082.22,-586.68 1128.27,-576.39"/>
<polygon fill="midnightblue" stroke="midnightblue" points="966.78,-608.88 957.78,-614.48 968.31,-615.71 966.78,-608.88"/>
</g>
<!-- Node28&#45;&gt;Node13 -->
<g id="edge54" class="edge">
<title>Node28&#45;&gt;Node13</title>
<path fill="none" stroke="midnightblue" d="M1341,-537.22C1341,-509.74 1341,-463.65 1341,-424 1341,-424 1341,-424 1341,-215.5 1341,-149.2 1263.81,-114.43 1204.86,-97.54"/>
<polygon fill="midnightblue" stroke="midnightblue" points="1337.5,-537.45 1341,-547.45 1344.5,-537.45 1337.5,-537.45"/>
</g>
<!-- Node29 -->
<g id="node29" class="node">
<title>Node29</title>
<g id="a_node29"><a xlink:href="miregl_8h.html" target="_top" xlink:title=" ">
<polygon fill="white" stroke="black" points="1533,-480.5 1533,-510.5 1653,-510.5 1653,-480.5 1533,-480.5"/>
<text text-anchor="start" x="1541" y="-498.5" font-family="Arial" font-size="10.00">examples/miral&#45;shell</text>
<text text-anchor="middle" x="1593" y="-487.5" font-family="Arial" font-size="10.00">/spinner/miregl.h</text>
</a>
</g>
</g>
<!-- Node28&#45;&gt;Node29 -->
<g id="edge50" class="edge">
<title>Node28&#45;&gt;Node29</title>
<path fill="none" stroke="midnightblue" d="M1405.29,-544.92C1446.41,-534.31 1499.18,-520.7 1538.29,-510.61"/>
<polygon fill="midnightblue" stroke="midnightblue" points="1404.18,-541.59 1395.37,-547.48 1405.93,-548.37 1404.18,-541.59"/>
</g>
<!-- Node33 -->
<g id="node33" class="node">
<title>Node33</title>
<g id="a_node33"><a xlink:href="sw__splash_8cpp.html" target="_top" xlink:title=" ">
<polygon fill="white" stroke="black" points="1167.5,-480.5 1167.5,-510.5 1312.5,-510.5 1312.5,-480.5 1167.5,-480.5"/>
<text text-anchor="start" x="1175.5" y="-498.5" font-family="Arial" font-size="10.00">examples/example&#45;server</text>
<text text-anchor="middle" x="1240" y="-487.5" font-family="Arial" font-size="10.00">&#45;lib/sw_splash.cpp</text>
</a>
</g>
</g>
<!-- Node28&#45;&gt;Node33 -->
<g id="edge55" class="edge">
<title>Node28&#45;&gt;Node33</title>
<path fill="none" stroke="midnightblue" d="M1310.29,-541.73C1294.66,-531.68 1276.03,-519.68 1261.87,-510.58"/>
<polygon fill="midnightblue" stroke="midnightblue" points="1308.78,-544.93 1319.08,-547.4 1312.57,-539.04 1308.78,-544.93"/>
</g>
<!-- Node34 -->
<g id="node34" class="node">
<title>Node34</title>
<g id="a_node34"><a xlink:href="wayland__surface_8cpp.html" target="_top" xlink:title=" ">
<polygon fill="white" stroke="black" points="1369.5,-480.5 1369.5,-510.5 1514.5,-510.5 1514.5,-480.5 1369.5,-480.5"/>
<text text-anchor="start" x="1377.5" y="-498.5" font-family="Arial" font-size="10.00">examples/example&#45;server</text>
<text text-anchor="middle" x="1442" y="-487.5" font-family="Arial" font-size="10.00">&#45;lib/wayland_surface.cpp</text>
</a>
</g>
</g>
<!-- Node28&#45;&gt;Node34 -->
<g id="edge56" class="edge">
<title>Node28&#45;&gt;Node34</title>
<path fill="none" stroke="midnightblue" d="M1371.71,-541.73C1387.34,-531.68 1405.97,-519.68 1420.13,-510.58"/>
<polygon fill="midnightblue" stroke="midnightblue" points="1369.43,-539.04 1362.92,-547.4 1373.22,-544.93 1369.43,-539.04"/>
</g>
<!-- Node30 -->
<g id="node30" class="node">
<title>Node30</title>
<g id="a_node30"><a xlink:href="eglapp_8cpp.html" target="_top" xlink:title=" ">
<polygon fill="white" stroke="black" points="1390,-408 1390,-438 1510,-438 1510,-408 1390,-408"/>
<text text-anchor="start" x="1398" y="-426" font-family="Arial" font-size="10.00">examples/miral&#45;shell</text>
<text text-anchor="middle" x="1450" y="-415" font-family="Arial" font-size="10.00">/spinner/eglapp.cpp</text>
</a>
</g>
</g>
<!-- Node29&#45;&gt;Node30 -->
<g id="edge51" class="edge">
<title>Node29&#45;&gt;Node30</title>
<path fill="none" stroke="midnightblue" d="M1555.22,-475.87C1531.18,-464.02 1500.55,-448.92 1478.54,-438.07"/>
<polygon fill="midnightblue" stroke="midnightblue" points="1553.89,-479.12 1564.41,-480.4 1556.98,-472.84 1553.89,-479.12"/>
</g>
<!-- Node31 -->
<g id="node31" class="node">
<title>Node31</title>
<g id="a_node31"><a xlink:href="eglspinner_8cpp.html" target="_top" xlink:title=" ">
<polygon fill="white" stroke="black" points="1528.5,-408 1528.5,-438 1657.5,-438 1657.5,-408 1528.5,-408"/>
<text text-anchor="start" x="1536.5" y="-426" font-family="Arial" font-size="10.00">examples/miral&#45;shell</text>
<text text-anchor="middle" x="1593" y="-415" font-family="Arial" font-size="10.00">/spinner/eglspinner.cpp</text>
</a>
</g>
</g>
<!-- Node29&#45;&gt;Node31 -->
<g id="edge52" class="edge">
<title>Node29&#45;&gt;Node31</title>
<path fill="none" stroke="midnightblue" d="M1593,-470.23C1593,-459.57 1593,-447.41 1593,-438.25"/>
<polygon fill="midnightblue" stroke="midnightblue" points="1589.5,-470.23 1593,-480.23 1596.5,-470.23 1589.5,-470.23"/>
</g>
<!-- Node32 -->
<g id="node32" class="node">
<title>Node32</title>
<g id="a_node32"><a xlink:href="miregl_8cpp.html" target="_top" xlink:title=" ">
<polygon fill="white" stroke="black" points="1676,-408 1676,-438 1796,-438 1796,-408 1676,-408"/>
<text text-anchor="start" x="1684" y="-426" font-family="Arial" font-size="10.00">examples/miral&#45;shell</text>
<text text-anchor="middle" x="1736" y="-415" font-family="Arial" font-size="10.00">/spinner/miregl.cpp</text>
</a>
</g>
</g>
<!-- Node29&#45;&gt;Node32 -->
<g id="edge53" class="edge">
<title>Node29&#45;&gt;Node32</title>
<path fill="none" stroke="midnightblue" d="M1630.78,-475.87C1654.82,-464.02 1685.45,-448.92 1707.46,-438.07"/>
<polygon fill="midnightblue" stroke="midnightblue" points="1629.02,-472.84 1621.59,-480.4 1632.11,-479.12 1629.02,-472.84"/>
</g>
<!-- Node35&#45;&gt;Node13 -->
<g id="edge58" class="edge">
<title>Node35&#45;&gt;Node13</title>
<path fill="none" stroke="midnightblue" d="M1082.83,-542.52C1096.63,-534.64 1110.64,-524.2 1120,-511 1142.9,-478.72 1139,-463.58 1139,-424 1139,-424 1139,-424 1139,-215.5 1139,-172.65 1139,-121.97 1139,-97.76"/>
<polygon fill="midnightblue" stroke="midnightblue" points="1081.01,-539.52 1073.85,-547.33 1084.31,-545.69 1081.01,-539.52"/>
</g>
<!-- Node35&#45;&gt;Node33 -->
<g id="edge59" class="edge">
<title>Node35&#45;&gt;Node33</title>
<path fill="none" stroke="midnightblue" d="M1091.68,-544.23C1124.35,-533.71 1165.57,-520.45 1196.25,-510.58"/>
<polygon fill="midnightblue" stroke="midnightblue" points="1090.28,-541 1081.83,-547.4 1092.42,-547.66 1090.28,-541"/>
</g>
<!-- Node36 -->
<g id="node36" class="node">
<title>Node36</title>
<g id="a_node36"><a xlink:href="wayland__shm_8cpp.html" target="_top" xlink:title=" ">
<polygon fill="white" stroke="black" points="965.5,-480.5 965.5,-510.5 1110.5,-510.5 1110.5,-480.5 965.5,-480.5"/>
<text text-anchor="start" x="973.5" y="-498.5" font-family="Arial" font-size="10.00">examples/example&#45;server</text>
<text text-anchor="middle" x="1038" y="-487.5" font-family="Arial" font-size="10.00">&#45;lib/wayland_shm.cpp</text>
</a>
</g>
</g>
<!-- Node35&#45;&gt;Node36 -->
<g id="edge60" class="edge">
<title>Node35&#45;&gt;Node36</title>
<path fill="none" stroke="midnightblue" d="M1038,-537.11C1038,-528.15 1038,-518.32 1038,-510.58"/>
<polygon fill="midnightblue" stroke="midnightblue" points="1034.5,-537.4 1038,-547.4 1041.5,-537.4 1034.5,-537.4"/>
</g>
</g>
</svg>
