<?xml version="1.0" encoding="UTF-8" standalone="no"?>
<!DOCTYPE svg PUBLIC "-//W3C//DTD SVG 1.1//EN"
 "http://www.w3.org/Graphics/SVG/1.1/DTD/svg11.dtd">
<!-- Generated by graphviz version 2.43.0 (0)
 -->
<!-- Title: examples Pages: 1 -->
<svg width="283pt" height="204pt"
 viewBox="0.00 0.00 283.00 204.00" xmlns="http://www.w3.org/2000/svg" xmlns:xlink="http://www.w3.org/1999/xlink">
<g id="graph0" class="graph" transform="scale(1 1) rotate(0) translate(4 200)">
<title>examples</title>
<polygon fill="white" stroke="transparent" points="-4,4 -4,-200 279,-200 279,4 -4,4"/>
<g id="clust1" class="cluster">
<title>clusterdir_d28a4824dc47e487b107a5db32ef43c4</title>
<g id="a_clust1"><a xlink:href="dir_d28a4824dc47e487b107a5db32ef43c4.html" target="_top">
<polygon fill="#eeeeff" stroke="black" points="8,-64 8,-188 267,-188 267,-64 8,-64"/>
</a>
</g>
</g>
<!-- dir_d28a4824dc47e487b107a5db32ef43c4 -->
<g id="node1" class="node">
<title>dir_d28a4824dc47e487b107a5db32ef43c4</title>
<text text-anchor="middle" x="226" y="-159.5" font-family="Arial" font-size="10.00">examples</text>
</g>
<!-- dir_603a3fb0fb569e6a215a7f888c21b720 -->
<g id="node2" class="node">
<title>dir_603a3fb0fb569e6a215a7f888c21b720</title>
<g id="a_node2"><a xlink:href="dir_603a3fb0fb569e6a215a7f888c21b720.html" target="_top" xlink:title="example&#45;server&#45;lib">
<polygon fill="white" stroke="black" points="126,-108 16,-108 16,-72 126,-72 126,-108"/>
<text text-anchor="middle" x="71" y="-87.5" font-family="Arial" font-size="10.00">example&#45;server&#45;lib</text>
</a>
</g>
</g>
<!-- dir_d44c64559bbebec7f509842c48db8b23 -->
<g id="node5" class="node">
<title>dir_d44c64559bbebec7f509842c48db8b23</title>
<g id="a_node5"><a xlink:href="dir_d44c64559bbebec7f509842c48db8b23.html" target="_top" xlink:title="include">
<polygon fill="white" stroke="red" points="181,-36 127,-36 127,0 181,0 181,-36"/>
<text text-anchor="middle" x="154" y="-15.5" font-family="Arial" font-size="10.00">include</text>
</a>
</g>
</g>
<!-- dir_603a3fb0fb569e6a215a7f888c21b720&#45;&gt;dir_d44c64559bbebec7f509842c48db8b23 -->
<g id="edge5" class="edge">
<title>dir_603a3fb0fb569e6a215a7f888c21b720&#45;&gt;dir_d44c64559bbebec7f509842c48db8b23</title>
<path fill="none" stroke="black" d="M91.52,-71.7C101.87,-62.97 114.59,-52.24 125.84,-42.75"/>
<polygon fill="black" stroke="black" points="128.33,-45.23 133.72,-36.1 123.82,-39.88 128.33,-45.23"/>
<g id="a_edge5&#45;headlabel"><a xlink:href="dir_000002_000006.html" target="_top" xlink:title="25">
<text text-anchor="middle" x="127.41" y="-47.21" font-family="Arial" font-size="10.00">25</text>
</a>
</g>
</g>
<!-- dir_bbaec19dfc87f6b1b9f85f9dadd53d19 -->
<g id="node3" class="node">
<title>dir_bbaec19dfc87f6b1b9f85f9dadd53d19</title>
<g id="a_node3"><a xlink:href="dir_bbaec19dfc87f6b1b9f85f9dadd53d19.html" target="_top" xlink:title="miral&#45;kiosk">
<polygon fill="white" stroke="black" points="88,-180 16,-180 16,-144 88,-144 88,-180"/>
<text text-anchor="middle" x="52" y="-159.5" font-family="Arial" font-size="10.00">miral&#45;kiosk</text>
</a>
</g>
</g>
<!-- dir_bbaec19dfc87f6b1b9f85f9dadd53d19&#45;&gt;dir_603a3fb0fb569e6a215a7f888c21b720 -->
<g id="edge2" class="edge">
<title>dir_bbaec19dfc87f6b1b9f85f9dadd53d19&#45;&gt;dir_603a3fb0fb569e6a215a7f888c21b720</title>
<path fill="none" stroke="black" d="M56.7,-143.7C58.81,-135.9 61.36,-126.51 63.72,-117.83"/>
<polygon fill="black" stroke="black" points="67.12,-118.67 66.36,-108.1 60.36,-116.84 67.12,-118.67"/>
<g id="a_edge2&#45;headlabel"><a xlink:href="dir_000003_000002.html" target="_top" xlink:title="1">
<text text-anchor="middle" x="68.91" y="-120.38" font-family="Arial" font-size="10.00">1</text>
</a>
</g>
</g>
<!-- dir_bbaec19dfc87f6b1b9f85f9dadd53d19&#45;&gt;dir_d44c64559bbebec7f509842c48db8b23 -->
<g id="edge1" class="edge">
<title>dir_bbaec19dfc87f6b1b9f85f9dadd53d19&#45;&gt;dir_d44c64559bbebec7f509842c48db8b23</title>
<path fill="none" stroke="black" d="M88.33,-145.85C104.97,-137.13 123.5,-124.58 135,-108 147.55,-89.9 152.07,-65.12 153.58,-46.3"/>
<polygon fill="black" stroke="black" points="157.08,-46.46 154.15,-36.27 150.09,-46.06 157.08,-46.46"/>
<g id="a_edge1&#45;headlabel"><a xlink:href="dir_000003_000006.html" target="_top" xlink:title="15">
<text text-anchor="middle" x="159.71" y="-47.71" font-family="Arial" font-size="10.00">15</text>
</a>
</g>
</g>
<!-- dir_f12490db20c962b051f50ee48227d2d9 -->
<g id="node4" class="node">
<title>dir_f12490db20c962b051f50ee48227d2d9</title>
<g id="a_node4"><a xlink:href="dir_f12490db20c962b051f50ee48227d2d9.html" target="_top" xlink:title="miral&#45;shell">
<polygon fill="white" stroke="red" points="175.5,-180 106.5,-180 106.5,-144 175.5,-144 175.5,-180"/>
<text text-anchor="middle" x="141" y="-159.5" font-family="Arial" font-size="10.00">miral&#45;shell</text>
</a>
</g>
</g>
<!-- dir_f12490db20c962b051f50ee48227d2d9&#45;&gt;dir_603a3fb0fb569e6a215a7f888c21b720 -->
<g id="edge4" class="edge">
<title>dir_f12490db20c962b051f50ee48227d2d9&#45;&gt;dir_603a3fb0fb569e6a215a7f888c21b720</title>
<path fill="none" stroke="black" d="M123.7,-143.7C115.14,-135.14 104.66,-124.66 95.3,-115.3"/>
<polygon fill="black" stroke="black" points="97.65,-112.7 88.1,-108.1 92.7,-117.65 97.65,-112.7"/>
<g id="a_edge4&#45;headlabel"><a xlink:href="dir_000004_000002.html" target="_top" xlink:title="6">
<text text-anchor="middle" x="102.2" y="-110.73" font-family="Arial" font-size="10.00">6</text>
</a>
</g>
</g>
<!-- dir_f12490db20c962b051f50ee48227d2d9&#45;&gt;dir_d44c64559bbebec7f509842c48db8b23 -->
<g id="edge3" class="edge">
<title>dir_f12490db20c962b051f50ee48227d2d9&#45;&gt;dir_d44c64559bbebec7f509842c48db8b23</title>
<path fill="none" stroke="black" d="M152.47,-143.67C158.37,-133.69 164.96,-120.65 168,-108 172.56,-88.98 170.94,-83.33 168,-64 167.11,-58.14 165.6,-51.98 163.89,-46.18"/>
<polygon fill="black" stroke="black" points="167.09,-44.69 160.7,-36.24 160.43,-46.83 167.09,-44.69"/>
<g id="a_edge3&#45;headlabel"><a xlink:href="dir_000004_000006.html" target="_top" xlink:title="12">
<text text-anchor="middle" x="170.89" y="-44.74" font-family="Arial" font-size="10.00">12</text>
</a>
</g>
</g>
</g>
</svg>
