<?xml version="1.0" encoding="UTF-8" standalone="no"?>
<!DOCTYPE svg PUBLIC "-//W3C//DTD SVG 1.1//EN"
 "http://www.w3.org/Graphics/SVG/1.1/DTD/svg11.dtd">
<!-- Generated by graphviz version 2.43.0 (0)
 -->
<!-- Title: examples/miral&#45;kiosk Pages: 1 -->
<svg width="156pt" height="223pt"
 viewBox="0.00 0.00 156.00 223.00" xmlns="http://www.w3.org/2000/svg" xmlns:xlink="http://www.w3.org/1999/xlink">
<g id="graph0" class="graph" transform="scale(1 1) rotate(0) translate(4 219)">
<title>examples/miral&#45;kiosk</title>
<polygon fill="white" stroke="transparent" points="-4,4 -4,-219 152,-219 152,4 -4,4"/>
<g id="clust1" class="cluster">
<title>clusterdir_d28a4824dc47e487b107a5db32ef43c4</title>
<g id="a_clust1"><a xlink:href="dir_d28a4824dc47e487b107a5db32ef43c4.html" target="_top" xlink:title="examples">
<polygon fill="#ddddee" stroke="black" points="8,-136 8,-207 96,-207 96,-136 8,-136"/>
<text text-anchor="middle" x="52" y="-195" font-family="Arial" font-size="10.00">examples</text>
</a>
</g>
</g>
<!-- dir_bbaec19dfc87f6b1b9f85f9dadd53d19 -->
<g id="node1" class="node">
<title>dir_bbaec19dfc87f6b1b9f85f9dadd53d19</title>
<g id="a_node1"><a xlink:href="dir_bbaec19dfc87f6b1b9f85f9dadd53d19.html" target="_top" xlink:title="miral&#45;kiosk">
<polygon fill="#eeeeff" stroke="black" points="88,-180 16,-180 16,-144 88,-144 88,-180"/>
<text text-anchor="middle" x="52" y="-159.5" font-family="Arial" font-size="10.00">miral&#45;kiosk</text>
</a>
</g>
</g>
<!-- dir_d44c64559bbebec7f509842c48db8b23 -->
<g id="node2" class="node">
<title>dir_d44c64559bbebec7f509842c48db8b23</title>
<g id="a_node2"><a xlink:href="dir_d44c64559bbebec7f509842c48db8b23.html" target="_top" xlink:title="include">
<polygon fill="white" stroke="red" points="78,-36 24,-36 24,0 78,0 78,-36"/>
<text text-anchor="middle" x="51" y="-15.5" font-family="Arial" font-size="10.00">include</text>
</a>
</g>
</g>
<!-- dir_bbaec19dfc87f6b1b9f85f9dadd53d19&#45;&gt;dir_d44c64559bbebec7f509842c48db8b23 -->
<g id="edge1" class="edge">
<title>dir_bbaec19dfc87f6b1b9f85f9dadd53d19&#45;&gt;dir_d44c64559bbebec7f509842c48db8b23</title>
<path fill="none" stroke="black" d="M42.46,-143.93C37.36,-133.82 31.61,-120.57 29,-108 25.75,-92.33 25.87,-87.69 29,-72 30.79,-63.01 34.14,-53.64 37.69,-45.32"/>
<polygon fill="black" stroke="black" points="40.92,-46.67 41.87,-36.12 34.54,-43.77 40.92,-46.67"/>
<g id="a_edge1&#45;headlabel"><a xlink:href="dir_000003_000006.html" target="_top" xlink:title="15">
<text text-anchor="middle" x="42.01" y="-48.62" font-family="Arial" font-size="10.00">15</text>
</a>
</g>
</g>
<!-- dir_603a3fb0fb569e6a215a7f888c21b720 -->
<g id="node3" class="node">
<title>dir_603a3fb0fb569e6a215a7f888c21b720</title>
<g id="a_node3"><a xlink:href="dir_603a3fb0fb569e6a215a7f888c21b720.html" target="_top" xlink:title="example&#45;server&#45;lib">
<polygon fill="none" stroke="black" points="148,-108 38,-108 38,-72 148,-72 148,-108"/>
<text text-anchor="middle" x="93" y="-87.5" font-family="Arial" font-size="10.00">example&#45;server&#45;lib</text>
</a>
</g>
</g>
<!-- dir_bbaec19dfc87f6b1b9f85f9dadd53d19&#45;&gt;dir_603a3fb0fb569e6a215a7f888c21b720 -->
<g id="edge2" class="edge">
<title>dir_bbaec19dfc87f6b1b9f85f9dadd53d19&#45;&gt;dir_603a3fb0fb569e6a215a7f888c21b720</title>
<path fill="none" stroke="black" d="M62.13,-143.7C66.85,-135.64 72.56,-125.89 77.78,-116.98"/>
<polygon fill="black" stroke="black" points="80.95,-118.5 82.98,-108.1 74.91,-114.96 80.95,-118.5"/>
<g id="a_edge2&#45;headlabel"><a xlink:href="dir_000003_000002.html" target="_top" xlink:title="1">
<text text-anchor="middle" x="81.58" y="-120.54" font-family="Arial" font-size="10.00">1</text>
</a>
</g>
</g>
<!-- dir_603a3fb0fb569e6a215a7f888c21b720&#45;&gt;dir_d44c64559bbebec7f509842c48db8b23 -->
<g id="edge3" class="edge">
<title>dir_603a3fb0fb569e6a215a7f888c21b720&#45;&gt;dir_d44c64559bbebec7f509842c48db8b23</title>
<path fill="none" stroke="black" d="M82.62,-71.7C77.74,-63.56 71.81,-53.69 66.42,-44.7"/>
<polygon fill="black" stroke="black" points="69.41,-42.88 61.26,-36.1 63.41,-46.48 69.41,-42.88"/>
<g id="a_edge3&#45;headlabel"><a xlink:href="dir_000002_000006.html" target="_top" xlink:title="25">
<text text-anchor="middle" x="73.69" y="-42" font-family="Arial" font-size="10.00">25</text>
</a>
</g>
</g>
</g>
</svg>
