<?xml version="1.0" encoding="UTF-8" standalone="no"?>
<!DOCTYPE svg PUBLIC "-//W3C//DTD SVG 1.1//EN"
 "http://www.w3.org/Graphics/SVG/1.1/DTD/svg11.dtd">
<!-- Generated by graphviz version 2.43.0 (0)
 -->
<!-- Title: include/miral/miral/minimal_window_manager.h Pages: 1 -->
<svg width="1115pt" height="621pt"
 viewBox="0.00 0.00 1115.07 621.00" xmlns="http://www.w3.org/2000/svg" xmlns:xlink="http://www.w3.org/1999/xlink">
<g id="graph0" class="graph" transform="scale(1 1) rotate(0) translate(4 617)">
<title>include/miral/miral/minimal_window_manager.h</title>
<polygon fill="white" stroke="transparent" points="-4,4 -4,-617 1111.07,-617 1111.07,4 -4,4"/>
<!-- Node1 -->
<g id="node1" class="node">
<title>Node1</title>
<g id="a_node1"><a xlink:title=" ">
<polygon fill="#bfbfbf" stroke="black" points="498.57,-582.5 498.57,-612.5 658.57,-612.5 658.57,-582.5 498.57,-582.5"/>
<text text-anchor="start" x="506.57" y="-600.5" font-family="Arial" font-size="10.00">include/miral/miral</text>
<text text-anchor="middle" x="578.57" y="-589.5" font-family="Arial" font-size="10.00">/minimal_window_manager.h</text>
</a>
</g>
</g>
<!-- Node2 -->
<g id="node2" class="node">
<title>Node2</title>
<g id="a_node2"><a xlink:href="window__management__policy_8h.html" target="_top" xlink:title=" ">
<polygon fill="white" stroke="black" points="363.07,-392.5 363.07,-422.5 516.07,-422.5 516.07,-392.5 363.07,-392.5"/>
<text text-anchor="start" x="371.07" y="-410.5" font-family="Arial" font-size="10.00">miral/window_management</text>
<text text-anchor="middle" x="439.57" y="-399.5" font-family="Arial" font-size="10.00">_policy.h</text>
</a>
</g>
</g>
<!-- Node1&#45;&gt;Node2 -->
<g id="edge1" class="edge">
<title>Node1&#45;&gt;Node2</title>
<path fill="none" stroke="midnightblue" d="M557.99,-582.43C545.32,-573.1 529.32,-560.01 517.57,-546 487.45,-510.06 462.79,-460.85 449.72,-432.09"/>
<polygon fill="midnightblue" stroke="midnightblue" points="452.86,-430.53 445.59,-422.82 446.46,-433.38 452.86,-430.53"/>
</g>
<!-- Node22 -->
<g id="node22" class="node">
<title>Node22</title>
<g id="a_node22"><a xlink:href="window__manager__tools_8h.html" target="_top" xlink:title=" ">
<polygon fill="white" stroke="black" points="526.07,-515.5 526.07,-545.5 657.07,-545.5 657.07,-515.5 526.07,-515.5"/>
<text text-anchor="start" x="534.07" y="-533.5" font-family="Arial" font-size="10.00">miral/window_manager</text>
<text text-anchor="middle" x="591.57" y="-522.5" font-family="Arial" font-size="10.00">_tools.h</text>
</a>
</g>
</g>
<!-- Node1&#45;&gt;Node22 -->
<g id="edge36" class="edge">
<title>Node1&#45;&gt;Node22</title>
<path fill="none" stroke="midnightblue" d="M581.39,-582.4C582.96,-574.56 584.95,-564.6 586.76,-555.57"/>
<polygon fill="midnightblue" stroke="midnightblue" points="590.23,-556.07 588.76,-545.58 583.36,-554.7 590.23,-556.07"/>
</g>
<!-- Node3 -->
<g id="node3" class="node">
<title>Node3</title>
<g id="a_node3"><a xlink:href="displacement_8h.html" target="_top" xlink:title=" ">
<polygon fill="white" stroke="black" points="478.07,-224.5 478.07,-243.5 639.07,-243.5 639.07,-224.5 478.07,-224.5"/>
<text text-anchor="middle" x="558.57" y="-231.5" font-family="Arial" font-size="10.00">mir/geometry/displacement.h</text>
</a>
</g>
</g>
<!-- Node2&#45;&gt;Node3 -->
<g id="edge2" class="edge">
<title>Node2&#45;&gt;Node3</title>
<path fill="none" stroke="midnightblue" d="M453.81,-392.37C472.87,-372.89 506.92,-336.08 529.57,-300 538.9,-285.14 546.81,-266.76 551.99,-253.34"/>
<polygon fill="midnightblue" stroke="midnightblue" points="555.34,-254.4 555.55,-243.8 548.78,-251.95 555.34,-254.4"/>
</g>
<!-- Node15 -->
<g id="node15" class="node">
<title>Node15</title>
<g id="a_node15"><a xlink:href="rectangles_8h.html" target="_top" xlink:title=" ">
<polygon fill="white" stroke="black" points="568.57,-336.5 568.57,-355.5 714.57,-355.5 714.57,-336.5 568.57,-336.5"/>
<text text-anchor="middle" x="641.57" y="-343.5" font-family="Arial" font-size="10.00">mir/geometry/rectangles.h</text>
</a>
</g>
</g>
<!-- Node2&#45;&gt;Node15 -->
<g id="edge21" class="edge">
<title>Node2&#45;&gt;Node15</title>
<path fill="none" stroke="midnightblue" d="M487.19,-392.47C522.49,-382.08 570.01,-368.08 602.96,-358.37"/>
<polygon fill="midnightblue" stroke="midnightblue" points="604.09,-361.69 612.69,-355.51 602.11,-354.97 604.09,-361.69"/>
</g>
<!-- Node20 -->
<g id="node20" class="node">
<title>Node20</title>
<g id="a_node20"><a xlink:href="common_8h.html" target="_top" xlink:title=" ">
<polygon fill="white" stroke="black" points="159.07,-280.5 159.07,-299.5 284.07,-299.5 284.07,-280.5 159.07,-280.5"/>
<text text-anchor="middle" x="221.57" y="-287.5" font-family="Arial" font-size="10.00">mir_toolkit/common.h</text>
</a>
</g>
</g>
<!-- Node2&#45;&gt;Node20 -->
<g id="edge34" class="edge">
<title>Node2&#45;&gt;Node20</title>
<path fill="none" stroke="midnightblue" d="M412.84,-392.34C370.33,-369.82 287.91,-326.15 246.54,-304.23"/>
<polygon fill="midnightblue" stroke="midnightblue" points="248.13,-301.11 237.66,-299.52 244.85,-307.3 248.13,-301.11"/>
</g>
<!-- Node21 -->
<g id="node21" class="node">
<title>Node21</title>
<g id="a_node21"><a xlink:title=" ">
<polygon fill="white" stroke="#bfbfbf" points="82.57,-280.5 82.57,-299.5 140.57,-299.5 140.57,-280.5 82.57,-280.5"/>
<text text-anchor="middle" x="111.57" y="-287.5" font-family="Arial" font-size="10.00">memory</text>
</a>
</g>
</g>
<!-- Node2&#45;&gt;Node21 -->
<g id="edge35" class="edge">
<title>Node2&#45;&gt;Node21</title>
<path fill="none" stroke="midnightblue" d="M399.68,-392.45C334.5,-369.5 206.35,-324.38 145.37,-302.9"/>
<polygon fill="midnightblue" stroke="midnightblue" points="146.42,-299.56 135.83,-299.54 144.1,-306.17 146.42,-299.56"/>
</g>
<!-- Node4 -->
<g id="node4" class="node">
<title>Node4</title>
<g id="a_node4"><a xlink:href="displacement__generic_8h.html" target="_top" xlink:title=" ">
<polygon fill="white" stroke="black" points="406.07,-112.5 406.07,-131.5 539.07,-131.5 539.07,-112.5 406.07,-112.5"/>
<text text-anchor="middle" x="472.57" y="-119.5" font-family="Arial" font-size="10.00">displacement_generic.h</text>
</a>
</g>
</g>
<!-- Node3&#45;&gt;Node4 -->
<g id="edge3" class="edge">
<title>Node3&#45;&gt;Node4</title>
<path fill="none" stroke="midnightblue" d="M551.82,-224.37C537.57,-206.14 504.18,-163.43 485.61,-139.68"/>
<polygon fill="midnightblue" stroke="midnightblue" points="488.2,-137.31 479.29,-131.59 482.69,-141.63 488.2,-137.31"/>
</g>
<!-- Node9 -->
<g id="node9" class="node">
<title>Node9</title>
<g id="a_node9"><a xlink:href="dimensions_8h.html" target="_top" xlink:title=" ">
<polygon fill="white" stroke="black" points="557.57,-112.5 557.57,-131.5 639.57,-131.5 639.57,-112.5 557.57,-112.5"/>
<text text-anchor="middle" x="598.57" y="-119.5" font-family="Arial" font-size="10.00">dimensions.h</text>
</a>
</g>
</g>
<!-- Node3&#45;&gt;Node9 -->
<g id="edge8" class="edge">
<title>Node3&#45;&gt;Node9</title>
<path fill="none" stroke="midnightblue" d="M561.71,-224.37C568.19,-206.54 583.19,-165.3 591.93,-141.27"/>
<polygon fill="midnightblue" stroke="midnightblue" points="595.32,-142.19 595.45,-131.59 588.74,-139.79 595.32,-142.19"/>
</g>
<!-- Node11 -->
<g id="node11" class="node">
<title>Node11</title>
<g id="a_node11"><a xlink:href="point_8h.html" target="_top" xlink:title=" ">
<polygon fill="white" stroke="black" points="334.57,-168.5 334.57,-187.5 384.57,-187.5 384.57,-168.5 334.57,-168.5"/>
<text text-anchor="middle" x="359.57" y="-175.5" font-family="Arial" font-size="10.00">point.h</text>
</a>
</g>
</g>
<!-- Node3&#45;&gt;Node11 -->
<g id="edge11" class="edge">
<title>Node3&#45;&gt;Node11</title>
<path fill="none" stroke="midnightblue" d="M527.04,-224.44C490.97,-214.66 432.09,-198.68 394.62,-188.51"/>
<polygon fill="midnightblue" stroke="midnightblue" points="395.22,-185.05 384.65,-185.81 393.39,-191.8 395.22,-185.05"/>
</g>
<!-- Node13 -->
<g id="node13" class="node">
<title>Node13</title>
<g id="a_node13"><a xlink:href="size_8h.html" target="_top" xlink:title=" ">
<polygon fill="white" stroke="black" points="427.07,-168.5 427.07,-187.5 472.07,-187.5 472.07,-168.5 427.07,-168.5"/>
<text text-anchor="middle" x="449.57" y="-175.5" font-family="Arial" font-size="10.00">size.h</text>
</a>
</g>
</g>
<!-- Node3&#45;&gt;Node13 -->
<g id="edge16" class="edge">
<title>Node3&#45;&gt;Node13</title>
<path fill="none" stroke="midnightblue" d="M541.06,-224.32C523.5,-215.62 496.24,-202.12 476.04,-192.11"/>
<polygon fill="midnightblue" stroke="midnightblue" points="477.55,-188.96 467.04,-187.65 474.45,-195.23 477.55,-188.96"/>
</g>
<!-- Node5 -->
<g id="node5" class="node">
<title>Node5</title>
<g id="a_node5"><a xlink:href="dimensions__generic_8h.html" target="_top" xlink:title=" ">
<polygon fill="white" stroke="black" points="411.07,-56.5 411.07,-75.5 534.07,-75.5 534.07,-56.5 411.07,-56.5"/>
<text text-anchor="middle" x="472.57" y="-63.5" font-family="Arial" font-size="10.00">dimensions_generic.h</text>
</a>
</g>
</g>
<!-- Node4&#45;&gt;Node5 -->
<g id="edge4" class="edge">
<title>Node4&#45;&gt;Node5</title>
<path fill="none" stroke="midnightblue" d="M472.57,-112.08C472.57,-105.01 472.57,-94.86 472.57,-85.99"/>
<polygon fill="midnightblue" stroke="midnightblue" points="476.07,-85.75 472.57,-75.75 469.07,-85.75 476.07,-85.75"/>
</g>
<!-- Node8 -->
<g id="node8" class="node">
<title>Node8</title>
<g id="a_node8"><a xlink:title=" ">
<polygon fill="white" stroke="#bfbfbf" points="263.07,-56.5 263.07,-75.5 320.07,-75.5 320.07,-56.5 263.07,-56.5"/>
<text text-anchor="middle" x="291.57" y="-63.5" font-family="Arial" font-size="10.00">ostream</text>
</a>
</g>
</g>
<!-- Node4&#45;&gt;Node8 -->
<g id="edge7" class="edge">
<title>Node4&#45;&gt;Node8</title>
<path fill="none" stroke="midnightblue" d="M443.89,-112.44C413.04,-103.24 363.84,-88.56 329.74,-78.39"/>
<polygon fill="midnightblue" stroke="midnightblue" points="330.7,-75.02 320.12,-75.52 328.7,-81.73 330.7,-75.02"/>
</g>
<!-- Node6 -->
<g id="node6" class="node">
<title>Node6</title>
<g id="a_node6"><a xlink:title=" ">
<polygon fill="white" stroke="#bfbfbf" points="768.57,-0.5 768.57,-19.5 816.57,-19.5 816.57,-0.5 768.57,-0.5"/>
<text text-anchor="middle" x="792.57" y="-7.5" font-family="Arial" font-size="10.00">iosfwd</text>
</a>
</g>
</g>
<!-- Node5&#45;&gt;Node6 -->
<g id="edge5" class="edge">
<title>Node5&#45;&gt;Node6</title>
<path fill="none" stroke="midnightblue" d="M523.28,-56.44C589,-45.35 701.87,-26.31 758.32,-16.78"/>
<polygon fill="midnightblue" stroke="midnightblue" points="759.23,-20.18 768.51,-15.06 758.06,-13.27 759.23,-20.18"/>
</g>
<!-- Node7 -->
<g id="node7" class="node">
<title>Node7</title>
<g id="a_node7"><a xlink:title=" ">
<polygon fill="white" stroke="#bfbfbf" points="438.07,-0.5 438.07,-19.5 507.07,-19.5 507.07,-0.5 438.07,-0.5"/>
<text text-anchor="middle" x="472.57" y="-7.5" font-family="Arial" font-size="10.00">type_traits</text>
</a>
</g>
</g>
<!-- Node5&#45;&gt;Node7 -->
<g id="edge6" class="edge">
<title>Node5&#45;&gt;Node7</title>
<path fill="none" stroke="midnightblue" d="M472.57,-56.08C472.57,-49.01 472.57,-38.86 472.57,-29.99"/>
<polygon fill="midnightblue" stroke="midnightblue" points="476.07,-29.75 472.57,-19.75 469.07,-29.75 476.07,-29.75"/>
</g>
<!-- Node9&#45;&gt;Node5 -->
<g id="edge9" class="edge">
<title>Node9&#45;&gt;Node5</title>
<path fill="none" stroke="midnightblue" d="M578.61,-112.44C557.96,-103.6 525.51,-89.69 501.94,-79.59"/>
<polygon fill="midnightblue" stroke="midnightblue" points="503.01,-76.24 492.44,-75.52 500.25,-82.67 503.01,-76.24"/>
</g>
<!-- Node10 -->
<g id="node10" class="node">
<title>Node10</title>
<g id="a_node10"><a xlink:title=" ">
<polygon fill="white" stroke="#bfbfbf" points="573.57,-56.5 573.57,-75.5 623.57,-75.5 623.57,-56.5 573.57,-56.5"/>
<text text-anchor="middle" x="598.57" y="-63.5" font-family="Arial" font-size="10.00">cstdint</text>
</a>
</g>
</g>
<!-- Node9&#45;&gt;Node10 -->
<g id="edge10" class="edge">
<title>Node9&#45;&gt;Node10</title>
<path fill="none" stroke="midnightblue" d="M598.57,-112.08C598.57,-105.01 598.57,-94.86 598.57,-85.99"/>
<polygon fill="midnightblue" stroke="midnightblue" points="602.07,-85.75 598.57,-75.75 595.07,-85.75 602.07,-85.75"/>
</g>
<!-- Node11&#45;&gt;Node9 -->
<g id="edge15" class="edge">
<title>Node11&#45;&gt;Node9</title>
<path fill="none" stroke="midnightblue" d="M384.7,-171.32C424.05,-162.43 500.9,-145.07 550.96,-133.76"/>
<polygon fill="midnightblue" stroke="midnightblue" points="551.92,-137.13 560.91,-131.51 550.38,-130.3 551.92,-137.13"/>
</g>
<!-- Node12 -->
<g id="node12" class="node">
<title>Node12</title>
<g id="a_node12"><a xlink:href="point__generic_8h.html" target="_top" xlink:title=" ">
<polygon fill="white" stroke="black" points="191.57,-112.5 191.57,-131.5 283.57,-131.5 283.57,-112.5 191.57,-112.5"/>
<text text-anchor="middle" x="237.57" y="-119.5" font-family="Arial" font-size="10.00">point_generic.h</text>
</a>
</g>
</g>
<!-- Node11&#45;&gt;Node12 -->
<g id="edge12" class="edge">
<title>Node11&#45;&gt;Node12</title>
<path fill="none" stroke="midnightblue" d="M340.24,-168.44C320.25,-159.6 288.83,-145.69 266.01,-135.59"/>
<polygon fill="midnightblue" stroke="midnightblue" points="267.37,-132.36 256.81,-131.52 264.54,-138.76 267.37,-132.36"/>
</g>
<!-- Node12&#45;&gt;Node5 -->
<g id="edge13" class="edge">
<title>Node12&#45;&gt;Node5</title>
<path fill="none" stroke="midnightblue" d="M274.81,-112.44C315.63,-103.06 381.21,-87.99 425.55,-77.8"/>
<polygon fill="midnightblue" stroke="midnightblue" points="426.55,-81.17 435.51,-75.52 424.98,-74.34 426.55,-81.17"/>
</g>
<!-- Node12&#45;&gt;Node8 -->
<g id="edge14" class="edge">
<title>Node12&#45;&gt;Node8</title>
<path fill="none" stroke="midnightblue" d="M246.49,-112.08C254.35,-104.22 266,-92.57 275.49,-83.08"/>
<polygon fill="midnightblue" stroke="midnightblue" points="278.22,-85.3 282.82,-75.75 273.27,-80.35 278.22,-85.3"/>
</g>
<!-- Node13&#45;&gt;Node9 -->
<g id="edge20" class="edge">
<title>Node13&#45;&gt;Node9</title>
<path fill="none" stroke="midnightblue" d="M472.2,-168.8C496.96,-159.83 536.9,-145.35 565.24,-135.08"/>
<polygon fill="midnightblue" stroke="midnightblue" points="566.53,-138.33 574.74,-131.64 564.15,-131.75 566.53,-138.33"/>
</g>
<!-- Node14 -->
<g id="node14" class="node">
<title>Node14</title>
<g id="a_node14"><a xlink:href="size__generic_8h.html" target="_top" xlink:title=" ">
<polygon fill="white" stroke="black" points="301.57,-112.5 301.57,-131.5 387.57,-131.5 387.57,-112.5 301.57,-112.5"/>
<text text-anchor="middle" x="344.57" y="-119.5" font-family="Arial" font-size="10.00">size_generic.h</text>
</a>
</g>
</g>
<!-- Node13&#45;&gt;Node14 -->
<g id="edge17" class="edge">
<title>Node13&#45;&gt;Node14</title>
<path fill="none" stroke="midnightblue" d="M432.7,-168.32C415.86,-159.66 389.76,-146.24 370.33,-136.25"/>
<polygon fill="midnightblue" stroke="midnightblue" points="371.89,-133.12 361.4,-131.65 368.69,-139.34 371.89,-133.12"/>
</g>
<!-- Node14&#45;&gt;Node5 -->
<g id="edge18" class="edge">
<title>Node14&#45;&gt;Node5</title>
<path fill="none" stroke="midnightblue" d="M364.85,-112.44C385.92,-103.56 419.09,-89.56 443.06,-79.45"/>
<polygon fill="midnightblue" stroke="midnightblue" points="444.53,-82.63 452.38,-75.52 441.81,-76.18 444.53,-82.63"/>
</g>
<!-- Node14&#45;&gt;Node8 -->
<g id="edge19" class="edge">
<title>Node14&#45;&gt;Node8</title>
<path fill="none" stroke="midnightblue" d="M335.82,-112.08C328.1,-104.22 316.67,-92.57 307.35,-83.08"/>
<polygon fill="midnightblue" stroke="midnightblue" points="309.66,-80.44 300.16,-75.75 304.67,-85.34 309.66,-80.44"/>
</g>
<!-- Node15&#45;&gt;Node11 -->
<g id="edge22" class="edge">
<title>Node15&#45;&gt;Node11</title>
<path fill="none" stroke="midnightblue" d="M568.43,-342.65C497.46,-338.71 396.74,-328.18 370.57,-300 344.82,-272.28 349.76,-224 355.02,-197.58"/>
<polygon fill="midnightblue" stroke="midnightblue" points="358.46,-198.24 357.2,-187.72 351.62,-196.73 358.46,-198.24"/>
</g>
<!-- Node16 -->
<g id="node16" class="node">
<title>Node16</title>
<g id="a_node16"><a xlink:href="rectangle_8h.html" target="_top" xlink:title=" ">
<polygon fill="white" stroke="black" points="379.07,-280.5 379.07,-299.5 520.07,-299.5 520.07,-280.5 379.07,-280.5"/>
<text text-anchor="middle" x="449.57" y="-287.5" font-family="Arial" font-size="10.00">mir/geometry/rectangle.h</text>
</a>
</g>
</g>
<!-- Node15&#45;&gt;Node16 -->
<g id="edge23" class="edge">
<title>Node15&#45;&gt;Node16</title>
<path fill="none" stroke="midnightblue" d="M611.15,-336.44C578.29,-327.2 525.79,-312.44 489.6,-302.26"/>
<polygon fill="midnightblue" stroke="midnightblue" points="490.43,-298.85 479.85,-299.52 488.53,-305.59 490.43,-298.85"/>
</g>
<!-- Node18 -->
<g id="node18" class="node">
<title>Node18</title>
<g id="a_node18"><a xlink:title=" ">
<polygon fill="white" stroke="#bfbfbf" points="577.07,-280.5 577.07,-299.5 624.07,-299.5 624.07,-280.5 577.07,-280.5"/>
<text text-anchor="middle" x="600.57" y="-287.5" font-family="Arial" font-size="10.00">vector</text>
</a>
</g>
</g>
<!-- Node15&#45;&gt;Node18 -->
<g id="edge32" class="edge">
<title>Node15&#45;&gt;Node18</title>
<path fill="none" stroke="midnightblue" d="M634.8,-336.08C629.01,-328.46 620.51,-317.26 613.43,-307.94"/>
<polygon fill="midnightblue" stroke="midnightblue" points="616.05,-305.6 607.21,-299.75 610.47,-309.83 616.05,-305.6"/>
</g>
<!-- Node19 -->
<g id="node19" class="node">
<title>Node19</title>
<g id="a_node19"><a xlink:title=" ">
<polygon fill="white" stroke="#bfbfbf" points="642.07,-280.5 642.07,-299.5 725.07,-299.5 725.07,-280.5 642.07,-280.5"/>
<text text-anchor="middle" x="683.57" y="-287.5" font-family="Arial" font-size="10.00">initializer_list</text>
</a>
</g>
</g>
<!-- Node15&#45;&gt;Node19 -->
<g id="edge33" class="edge">
<title>Node15&#45;&gt;Node19</title>
<path fill="none" stroke="midnightblue" d="M648.51,-336.08C654.5,-328.38 663.32,-317.03 670.62,-307.65"/>
<polygon fill="midnightblue" stroke="midnightblue" points="673.39,-309.79 676.76,-299.75 667.86,-305.5 673.39,-309.79"/>
</g>
<!-- Node16&#45;&gt;Node3 -->
<g id="edge31" class="edge">
<title>Node16&#45;&gt;Node3</title>
<path fill="none" stroke="midnightblue" d="M467.08,-280.32C484.64,-271.62 511.9,-258.12 532.1,-248.11"/>
<polygon fill="midnightblue" stroke="midnightblue" points="533.69,-251.23 541.1,-243.65 530.59,-244.96 533.69,-251.23"/>
</g>
<!-- Node16&#45;&gt;Node11 -->
<g id="edge29" class="edge">
<title>Node16&#45;&gt;Node11</title>
<path fill="none" stroke="midnightblue" d="M442.51,-280.37C427.52,-262.05 392.34,-219.05 372.96,-195.36"/>
<polygon fill="midnightblue" stroke="midnightblue" points="375.64,-193.11 366.6,-187.59 370.22,-197.55 375.64,-193.11"/>
</g>
<!-- Node16&#45;&gt;Node13 -->
<g id="edge30" class="edge">
<title>Node16&#45;&gt;Node13</title>
<path fill="none" stroke="midnightblue" d="M449.57,-280.37C449.57,-262.62 449.57,-221.67 449.57,-197.6"/>
<polygon fill="midnightblue" stroke="midnightblue" points="453.07,-197.59 449.57,-187.59 446.07,-197.59 453.07,-197.59"/>
</g>
<!-- Node17 -->
<g id="node17" class="node">
<title>Node17</title>
<g id="a_node17"><a xlink:href="rectangle__generic_8h.html" target="_top" xlink:title=" ">
<polygon fill="white" stroke="black" points="181.07,-168.5 181.07,-187.5 294.07,-187.5 294.07,-168.5 181.07,-168.5"/>
<text text-anchor="middle" x="237.57" y="-175.5" font-family="Arial" font-size="10.00">rectangle_generic.h</text>
</a>
</g>
</g>
<!-- Node16&#45;&gt;Node17 -->
<g id="edge24" class="edge">
<title>Node16&#45;&gt;Node17</title>
<path fill="none" stroke="midnightblue" d="M432.94,-280.37C396.01,-261.21 307.02,-215.04 263.04,-192.22"/>
<polygon fill="midnightblue" stroke="midnightblue" points="264.62,-189.09 254.13,-187.59 261.39,-195.3 264.62,-189.09"/>
</g>
<!-- Node17&#45;&gt;Node4 -->
<g id="edge27" class="edge">
<title>Node17&#45;&gt;Node4</title>
<path fill="none" stroke="midnightblue" d="M274.81,-168.44C315.63,-159.06 381.21,-143.99 425.55,-133.8"/>
<polygon fill="midnightblue" stroke="midnightblue" points="426.55,-137.17 435.51,-131.52 424.98,-130.34 426.55,-137.17"/>
</g>
<!-- Node17&#45;&gt;Node8 -->
<g id="edge28" class="edge">
<title>Node17&#45;&gt;Node8</title>
<path fill="none" stroke="midnightblue" d="M220.93,-168.46C199.88,-156.49 168.02,-133.75 182.57,-112 198.18,-88.67 228.34,-77.42 252.98,-72.01"/>
<polygon fill="midnightblue" stroke="midnightblue" points="253.66,-75.44 262.8,-70.08 252.31,-68.57 253.66,-75.44"/>
</g>
<!-- Node17&#45;&gt;Node12 -->
<g id="edge25" class="edge">
<title>Node17&#45;&gt;Node12</title>
<path fill="none" stroke="midnightblue" d="M237.57,-168.08C237.57,-161.01 237.57,-150.86 237.57,-141.99"/>
<polygon fill="midnightblue" stroke="midnightblue" points="241.07,-141.75 237.57,-131.75 234.07,-141.75 241.07,-141.75"/>
</g>
<!-- Node17&#45;&gt;Node14 -->
<g id="edge26" class="edge">
<title>Node17&#45;&gt;Node14</title>
<path fill="none" stroke="midnightblue" d="M254.76,-168.32C271.92,-159.66 298.52,-146.24 318.32,-136.25"/>
<polygon fill="midnightblue" stroke="midnightblue" points="320.07,-139.28 327.42,-131.65 316.92,-133.04 320.07,-139.28"/>
</g>
<!-- Node22&#45;&gt;Node3 -->
<g id="edge61" class="edge">
<title>Node22&#45;&gt;Node3</title>
<path fill="none" stroke="midnightblue" d="M642.39,-515.42C757.1,-481.29 1018.85,-388.91 922.57,-280 904.71,-259.8 751.17,-246.63 649.29,-240.03"/>
<polygon fill="midnightblue" stroke="midnightblue" points="649.49,-236.54 639.29,-239.4 649.05,-243.52 649.49,-236.54"/>
</g>
<!-- Node22&#45;&gt;Node21 -->
<g id="edge63" class="edge">
<title>Node22&#45;&gt;Node21</title>
<path fill="none" stroke="midnightblue" d="M525.82,-527.59C443.45,-521.82 302.37,-500.38 213.57,-423 181.76,-395.28 202.26,-368.68 175.57,-336 165.2,-323.3 150.38,-312.57 137.61,-304.78"/>
<polygon fill="midnightblue" stroke="midnightblue" points="139.18,-301.64 128.77,-299.64 135.66,-307.69 139.18,-301.64"/>
</g>
<!-- Node23 -->
<g id="node23" class="node">
<title>Node23</title>
<g id="a_node23"><a xlink:href="application_8h.html" target="_top" xlink:title=" ">
<polygon fill="white" stroke="black" points="58.57,-336.5 58.57,-355.5 166.57,-355.5 166.57,-336.5 58.57,-336.5"/>
<text text-anchor="middle" x="112.57" y="-343.5" font-family="Arial" font-size="10.00">miral/application.h</text>
</a>
</g>
</g>
<!-- Node22&#45;&gt;Node23 -->
<g id="edge37" class="edge">
<title>Node22&#45;&gt;Node23</title>
<path fill="none" stroke="midnightblue" d="M526.03,-528.76C424.44,-526.41 234.98,-516.92 180.57,-479 141.38,-451.68 123.29,-394.74 116.3,-365.38"/>
<polygon fill="midnightblue" stroke="midnightblue" points="119.71,-364.61 114.14,-355.6 112.87,-366.12 119.71,-364.61"/>
</g>
<!-- Node25 -->
<g id="node25" class="node">
<title>Node25</title>
<g id="a_node25"><a xlink:href="window__info_8h.html" target="_top" xlink:title=" ">
<polygon fill="white" stroke="black" points="571.07,-459.5 571.07,-478.5 658.07,-478.5 658.07,-459.5 571.07,-459.5"/>
<text text-anchor="middle" x="614.57" y="-466.5" font-family="Arial" font-size="10.00">window_info.h</text>
</a>
</g>
</g>
<!-- Node22&#45;&gt;Node25 -->
<g id="edge41" class="edge">
<title>Node22&#45;&gt;Node25</title>
<path fill="none" stroke="midnightblue" d="M597.02,-515.4C600.19,-507.2 604.22,-496.78 607.62,-487.99"/>
<polygon fill="midnightblue" stroke="midnightblue" points="610.88,-489.25 611.22,-478.66 604.35,-486.72 610.88,-489.25"/>
</g>
<!-- Node32 -->
<g id="node32" class="node">
<title>Node32</title>
<g id="a_node32"><a xlink:title=" ">
<polygon fill="white" stroke="#bfbfbf" points="1042.07,-280.5 1042.07,-299.5 1107.07,-299.5 1107.07,-280.5 1042.07,-280.5"/>
<text text-anchor="middle" x="1074.57" y="-287.5" font-family="Arial" font-size="10.00">functional</text>
</a>
</g>
</g>
<!-- Node22&#45;&gt;Node32 -->
<g id="edge62" class="edge">
<title>Node22&#45;&gt;Node32</title>
<path fill="none" stroke="midnightblue" d="M657.26,-525.14C745.97,-518.41 898.69,-503.64 948.57,-479 1018.45,-444.47 1042.9,-427.65 1073.57,-356 1079.82,-341.41 1079.5,-323.23 1077.95,-309.82"/>
<polygon fill="midnightblue" stroke="midnightblue" points="1081.4,-309.23 1076.47,-299.85 1074.48,-310.25 1081.4,-309.23"/>
</g>
<!-- Node23&#45;&gt;Node20 -->
<g id="edge38" class="edge">
<title>Node23&#45;&gt;Node20</title>
<path fill="none" stroke="midnightblue" d="M130.08,-336.32C147.64,-327.62 174.9,-314.12 195.1,-304.11"/>
<polygon fill="midnightblue" stroke="midnightblue" points="196.69,-307.23 204.1,-299.65 193.59,-300.96 196.69,-307.23"/>
</g>
<!-- Node23&#45;&gt;Node21 -->
<g id="edge39" class="edge">
<title>Node23&#45;&gt;Node21</title>
<path fill="none" stroke="midnightblue" d="M112.41,-336.08C112.27,-329.01 112.09,-318.86 111.92,-309.99"/>
<polygon fill="midnightblue" stroke="midnightblue" points="115.42,-309.68 111.73,-299.75 108.42,-309.81 115.42,-309.68"/>
</g>
<!-- Node24 -->
<g id="node24" class="node">
<title>Node24</title>
<g id="a_node24"><a xlink:title=" ">
<polygon fill="white" stroke="#bfbfbf" points="20.57,-280.5 20.57,-299.5 64.57,-299.5 64.57,-280.5 20.57,-280.5"/>
<text text-anchor="middle" x="42.57" y="-287.5" font-family="Arial" font-size="10.00">string</text>
</a>
</g>
</g>
<!-- Node23&#45;&gt;Node24 -->
<g id="edge40" class="edge">
<title>Node23&#45;&gt;Node24</title>
<path fill="none" stroke="midnightblue" d="M101.32,-336.32C90.77,-328.18 74.77,-315.84 62.13,-306.09"/>
<polygon fill="midnightblue" stroke="midnightblue" points="64.08,-303.17 54.02,-299.83 59.8,-308.71 64.08,-303.17"/>
</g>
<!-- Node25&#45;&gt;Node15 -->
<g id="edge58" class="edge">
<title>Node25&#45;&gt;Node15</title>
<path fill="none" stroke="midnightblue" d="M616.51,-459.3C620.87,-439.76 631.51,-392.06 637.43,-365.55"/>
<polygon fill="midnightblue" stroke="midnightblue" points="640.88,-366.15 639.65,-355.62 634.05,-364.62 640.88,-366.15"/>
</g>
<!-- Node26 -->
<g id="node26" class="node">
<title>Node26</title>
<g id="a_node26"><a xlink:href="window_8h.html" target="_top" xlink:title=" ">
<polygon fill="white" stroke="black" points="223.07,-398 223.07,-417 314.07,-417 314.07,-398 223.07,-398"/>
<text text-anchor="middle" x="268.57" y="-405" font-family="Arial" font-size="10.00">miral/window.h</text>
</a>
</g>
</g>
<!-- Node25&#45;&gt;Node26 -->
<g id="edge42" class="edge">
<title>Node25&#45;&gt;Node26</title>
<path fill="none" stroke="midnightblue" d="M570.75,-460.46C508.14,-449.7 393.07,-429.91 324.42,-418.1"/>
<polygon fill="midnightblue" stroke="midnightblue" points="324.68,-414.6 314.23,-416.35 323.49,-421.5 324.68,-414.6"/>
</g>
<!-- Node27 -->
<g id="node27" class="node">
<title>Node27</title>
<g id="a_node27"><a xlink:href="window__specification_8h.html" target="_top" xlink:title=" ">
<polygon fill="white" stroke="black" points="654.57,-398 654.57,-417 812.57,-417 812.57,-398 654.57,-398"/>
<text text-anchor="middle" x="733.57" y="-405" font-family="Arial" font-size="10.00">miral/window_specification.h</text>
</a>
</g>
</g>
<!-- Node25&#45;&gt;Node27 -->
<g id="edge47" class="edge">
<title>Node25&#45;&gt;Node27</title>
<path fill="none" stroke="midnightblue" d="M631.62,-459.48C651.41,-449.58 684.29,-433.14 707.34,-421.62"/>
<polygon fill="midnightblue" stroke="midnightblue" points="709.17,-424.61 716.55,-417.01 706.04,-418.35 709.17,-424.61"/>
</g>
<!-- Node28 -->
<g id="node28" class="node">
<title>Node28</title>
<g id="a_node28"><a xlink:href="optional__value_8h.html" target="_top" xlink:title=" ">
<polygon fill="white" stroke="black" points="782.07,-336.5 782.07,-355.5 899.07,-355.5 899.07,-336.5 782.07,-336.5"/>
<text text-anchor="middle" x="840.57" y="-343.5" font-family="Arial" font-size="10.00">mir/optional_value.h</text>
</a>
</g>
</g>
<!-- Node25&#45;&gt;Node28 -->
<g id="edge59" class="edge">
<title>Node25&#45;&gt;Node28</title>
<path fill="none" stroke="midnightblue" d="M658.07,-463.91C711.73,-457.98 798.67,-445.21 821.57,-423 836.87,-408.17 840.56,-383.02 841.12,-365.74"/>
<polygon fill="midnightblue" stroke="midnightblue" points="844.62,-365.72 841.12,-355.71 837.62,-365.71 844.62,-365.72"/>
</g>
<!-- Node33 -->
<g id="node33" class="node">
<title>Node33</title>
<g id="a_node33"><a xlink:title=" ">
<polygon fill="white" stroke="#bfbfbf" points="534.57,-398 534.57,-417 598.57,-417 598.57,-398 534.57,-398"/>
<text text-anchor="middle" x="566.57" y="-405" font-family="Arial" font-size="10.00">algorithm</text>
</a>
</g>
</g>
<!-- Node25&#45;&gt;Node33 -->
<g id="edge60" class="edge">
<title>Node25&#45;&gt;Node33</title>
<path fill="none" stroke="midnightblue" d="M607.69,-459.48C600.42,-450.46 588.78,-436.02 579.73,-424.81"/>
<polygon fill="midnightblue" stroke="midnightblue" points="582.44,-422.59 573.44,-417.01 576.99,-426.99 582.44,-422.59"/>
</g>
<!-- Node26&#45;&gt;Node11 -->
<g id="edge44" class="edge">
<title>Node26&#45;&gt;Node11</title>
<path fill="none" stroke="midnightblue" d="M222.85,-401.71C134.32,-390.6 -46.89,-357.84 11.57,-280 30.81,-254.38 239.87,-205.56 324.4,-186.7"/>
<polygon fill="midnightblue" stroke="midnightblue" points="325.31,-190.09 334.31,-184.5 323.79,-183.25 325.31,-190.09"/>
</g>
<!-- Node26&#45;&gt;Node13 -->
<g id="edge45" class="edge">
<title>Node26&#45;&gt;Node13</title>
<path fill="none" stroke="midnightblue" d="M275.44,-397.86C302.32,-364.08 400.59,-240.57 436.4,-195.56"/>
<polygon fill="midnightblue" stroke="midnightblue" points="439.2,-197.65 442.69,-187.65 433.72,-193.3 439.2,-197.65"/>
</g>
<!-- Node26&#45;&gt;Node21 -->
<g id="edge46" class="edge">
<title>Node26&#45;&gt;Node21</title>
<path fill="none" stroke="midnightblue" d="M262.9,-397.63C253.26,-383.11 232.37,-354.09 208.57,-336 189.99,-321.87 166.25,-310.76 146.92,-303.12"/>
<polygon fill="midnightblue" stroke="midnightblue" points="148.13,-299.84 137.54,-299.54 145.63,-306.38 148.13,-299.84"/>
</g>
<!-- Node26&#45;&gt;Node23 -->
<g id="edge43" class="edge">
<title>Node26&#45;&gt;Node23</title>
<path fill="none" stroke="midnightblue" d="M246.22,-397.98C219.58,-387.81 174.86,-370.76 144.56,-359.2"/>
<polygon fill="midnightblue" stroke="midnightblue" points="145.47,-355.8 134.88,-355.51 142.98,-362.34 145.47,-355.8"/>
</g>
<!-- Node27&#45;&gt;Node3 -->
<g id="edge49" class="edge">
<title>Node27&#45;&gt;Node3</title>
<path fill="none" stroke="midnightblue" d="M736.85,-398C744.76,-375.87 762.32,-315.73 734.57,-280 721.99,-263.8 676.76,-252.44 635.3,-245.19"/>
<polygon fill="midnightblue" stroke="midnightblue" points="635.87,-241.74 625.42,-243.53 634.7,-248.64 635.87,-241.74"/>
</g>
<!-- Node27&#45;&gt;Node15 -->
<g id="edge50" class="edge">
<title>Node27&#45;&gt;Node15</title>
<path fill="none" stroke="midnightblue" d="M720.39,-397.98C705.5,-388.34 681.03,-372.52 663.3,-361.05"/>
<polygon fill="midnightblue" stroke="midnightblue" points="665.03,-358 654.73,-355.51 661.22,-363.88 665.03,-358"/>
</g>
<!-- Node27&#45;&gt;Node20 -->
<g id="edge48" class="edge">
<title>Node27&#45;&gt;Node20</title>
<path fill="none" stroke="midnightblue" d="M695.51,-397.91C603.75,-377.22 370.52,-324.6 269.47,-301.81"/>
<polygon fill="midnightblue" stroke="midnightblue" points="270.06,-298.35 259.54,-299.56 268.52,-305.18 270.06,-298.35"/>
</g>
<!-- Node27&#45;&gt;Node21 -->
<g id="edge57" class="edge">
<title>Node27&#45;&gt;Node21</title>
<path fill="none" stroke="midnightblue" d="M681.83,-398C581.38,-381.29 352.78,-342.27 150.5,-300.11"/>
<polygon fill="midnightblue" stroke="midnightblue" points="151.09,-296.66 140.58,-298.04 149.65,-303.51 151.09,-296.66"/>
</g>
<!-- Node27&#45;&gt;Node28 -->
<g id="edge51" class="edge">
<title>Node27&#45;&gt;Node28</title>
<path fill="none" stroke="midnightblue" d="M748.9,-397.98C766.54,-388.17 795.73,-371.93 816.43,-360.42"/>
<polygon fill="midnightblue" stroke="midnightblue" points="818.23,-363.43 825.27,-355.51 814.83,-357.31 818.23,-363.43"/>
</g>
<!-- Node31 -->
<g id="node31" class="node">
<title>Node31</title>
<g id="a_node31"><a xlink:href="int__wrapper_8h.html" target="_top" xlink:title=" ">
<polygon fill="white" stroke="black" points="962.57,-336.5 962.57,-355.5 1064.57,-355.5 1064.57,-336.5 962.57,-336.5"/>
<text text-anchor="middle" x="1013.57" y="-343.5" font-family="Arial" font-size="10.00">mir/int_wrapper.h</text>
</a>
</g>
</g>
<!-- Node27&#45;&gt;Node31 -->
<g id="edge54" class="edge">
<title>Node27&#45;&gt;Node31</title>
<path fill="none" stroke="midnightblue" d="M773.69,-397.98C823.69,-387.35 909.17,-369.18 963.44,-357.65"/>
<polygon fill="midnightblue" stroke="midnightblue" points="964.47,-361.01 973.53,-355.51 963.02,-354.16 964.47,-361.01"/>
</g>
<!-- Node29 -->
<g id="node29" class="node">
<title>Node29</title>
<g id="a_node29"><a xlink:href="fatal_8h.html" target="_top" xlink:title=" ">
<polygon fill="white" stroke="black" points="845.57,-280.5 845.57,-299.5 913.57,-299.5 913.57,-280.5 845.57,-280.5"/>
<text text-anchor="middle" x="879.57" y="-287.5" font-family="Arial" font-size="10.00">mir/fatal.h</text>
</a>
</g>
</g>
<!-- Node28&#45;&gt;Node29 -->
<g id="edge52" class="edge">
<title>Node28&#45;&gt;Node29</title>
<path fill="none" stroke="midnightblue" d="M847.01,-336.08C852.52,-328.46 860.6,-317.26 867.34,-307.94"/>
<polygon fill="midnightblue" stroke="midnightblue" points="870.23,-309.91 873.25,-299.75 864.56,-305.81 870.23,-309.91"/>
</g>
<!-- Node30 -->
<g id="node30" class="node">
<title>Node30</title>
<g id="a_node30"><a xlink:title=" ">
<polygon fill="white" stroke="#bfbfbf" points="782.07,-280.5 782.07,-299.5 827.07,-299.5 827.07,-280.5 782.07,-280.5"/>
<text text-anchor="middle" x="804.57" y="-287.5" font-family="Arial" font-size="10.00">utility</text>
</a>
</g>
</g>
<!-- Node28&#45;&gt;Node30 -->
<g id="edge53" class="edge">
<title>Node28&#45;&gt;Node30</title>
<path fill="none" stroke="midnightblue" d="M834.63,-336.08C829.59,-328.53 822.23,-317.49 816.06,-308.23"/>
<polygon fill="midnightblue" stroke="midnightblue" points="818.86,-306.13 810.4,-299.75 813.04,-310.01 818.86,-306.13"/>
</g>
<!-- Node31&#45;&gt;Node6 -->
<g id="edge55" class="edge">
<title>Node31&#45;&gt;Node6</title>
<path fill="none" stroke="midnightblue" d="M1011.28,-336.23C1006.64,-317.69 996.57,-273.07 996.57,-235 996.57,-235 996.57,-235 996.57,-121 996.57,-44.86 885.12,-21.18 826.97,-14.01"/>
<polygon fill="midnightblue" stroke="midnightblue" points="827.1,-10.5 816.77,-12.85 826.32,-17.46 827.1,-10.5"/>
</g>
<!-- Node31&#45;&gt;Node32 -->
<g id="edge56" class="edge">
<title>Node31&#45;&gt;Node32</title>
<path fill="none" stroke="midnightblue" d="M1023.37,-336.32C1032.39,-328.34 1045.98,-316.31 1056.89,-306.65"/>
<polygon fill="midnightblue" stroke="midnightblue" points="1059.42,-309.08 1064.59,-299.83 1054.78,-303.84 1059.42,-309.08"/>
</g>
</g>
</svg>
