<?xml version="1.0" encoding="UTF-8" standalone="no"?>
<!DOCTYPE svg PUBLIC "-//W3C//DTD SVG 1.1//EN"
 "http://www.w3.org/Graphics/SVG/1.1/DTD/svg11.dtd">
<!-- Generated by graphviz version 2.43.0 (0)
 -->
<!-- Title: examples/miral&#45;shell/spinner/miregl.cpp Pages: 1 -->
<svg width="654pt" height="375pt"
 viewBox="0.00 0.00 654.00 375.00" xmlns="http://www.w3.org/2000/svg" xmlns:xlink="http://www.w3.org/1999/xlink">
<g id="graph0" class="graph" transform="scale(1 1) rotate(0) translate(4 371)">
<title>examples/miral&#45;shell/spinner/miregl.cpp</title>
<polygon fill="white" stroke="transparent" points="-4,4 -4,-371 650,-371 650,4 -4,4"/>
<!-- Node1 -->
<g id="node1" class="node">
<title>Node1</title>
<g id="a_node1"><a xlink:title=" ">
<polygon fill="#bfbfbf" stroke="black" points="327,-336.5 327,-366.5 447,-366.5 447,-336.5 327,-336.5"/>
<text text-anchor="start" x="335" y="-354.5" font-family="Arial" font-size="10.00">examples/miral&#45;shell</text>
<text text-anchor="middle" x="387" y="-343.5" font-family="Arial" font-size="10.00">/spinner/miregl.cpp</text>
</a>
</g>
</g>
<!-- Node2 -->
<g id="node2" class="node">
<title>Node2</title>
<g id="a_node2"><a xlink:href="miregl_8h.html" target="_top" xlink:title=" ">
<polygon fill="white" stroke="black" points="200.5,-280.5 200.5,-299.5 257.5,-299.5 257.5,-280.5 200.5,-280.5"/>
<text text-anchor="middle" x="229" y="-287.5" font-family="Arial" font-size="10.00">miregl.h</text>
</a>
</g>
</g>
<!-- Node1&#45;&gt;Node2 -->
<g id="edge1" class="edge">
<title>Node1&#45;&gt;Node2</title>
<path fill="none" stroke="midnightblue" d="M349.56,-336.4C322.81,-326.33 287.18,-312.91 261.6,-303.28"/>
<polygon fill="midnightblue" stroke="midnightblue" points="262.58,-299.91 251.99,-299.66 260.12,-306.46 262.58,-299.91"/>
</g>
<!-- Node4 -->
<g id="node4" class="node">
<title>Node4</title>
<g id="a_node4"><a xlink:href="wayland__app_8h.html" target="_top" xlink:title=" ">
<polygon fill="white" stroke="black" points="175,-168.5 175,-187.5 265,-187.5 265,-168.5 175,-168.5"/>
<text text-anchor="middle" x="220" y="-175.5" font-family="Arial" font-size="10.00">wayland_app.h</text>
</a>
</g>
</g>
<!-- Node1&#45;&gt;Node4 -->
<g id="edge22" class="edge">
<title>Node1&#45;&gt;Node4</title>
<path fill="none" stroke="midnightblue" d="M326.79,-348.44C284.46,-344.05 228.85,-331.98 191,-300 163.84,-277.05 150.92,-256.2 166,-224 172.04,-211.09 183.81,-200.6 194.82,-193"/>
<polygon fill="midnightblue" stroke="midnightblue" points="196.83,-195.87 203.37,-187.54 193.06,-189.97 196.83,-195.87"/>
</g>
<!-- Node19 -->
<g id="node19" class="node">
<title>Node19</title>
<g id="a_node19"><a xlink:title=" ">
<polygon fill="white" stroke="#bfbfbf" points="276,-280.5 276,-299.5 326,-299.5 326,-280.5 276,-280.5"/>
<text text-anchor="middle" x="301" y="-287.5" font-family="Arial" font-size="10.00">cstring</text>
</a>
</g>
</g>
<!-- Node1&#45;&gt;Node19 -->
<g id="edge23" class="edge">
<title>Node1&#45;&gt;Node19</title>
<path fill="none" stroke="midnightblue" d="M366.62,-336.4C353.09,-327.04 335.39,-314.79 321.78,-305.38"/>
<polygon fill="midnightblue" stroke="midnightblue" points="323.73,-302.47 313.51,-299.66 319.75,-308.23 323.73,-302.47"/>
</g>
<!-- Node20 -->
<g id="node20" class="node">
<title>Node20</title>
<g id="a_node20"><a xlink:title=" ">
<polygon fill="white" stroke="#bfbfbf" points="344,-280.5 344,-299.5 430,-299.5 430,-280.5 344,-280.5"/>
<text text-anchor="middle" x="387" y="-287.5" font-family="Arial" font-size="10.00">wayland&#45;egl.h</text>
</a>
</g>
</g>
<!-- Node1&#45;&gt;Node20 -->
<g id="edge24" class="edge">
<title>Node1&#45;&gt;Node20</title>
<path fill="none" stroke="midnightblue" d="M387,-336.4C387,-328.47 387,-318.46 387,-309.86"/>
<polygon fill="midnightblue" stroke="midnightblue" points="390.5,-309.66 387,-299.66 383.5,-309.66 390.5,-309.66"/>
</g>
<!-- Node21 -->
<g id="node21" class="node">
<title>Node21</title>
<g id="a_node21"><a xlink:title=" ">
<polygon fill="white" stroke="#bfbfbf" points="448,-280.5 448,-299.5 512,-299.5 512,-280.5 448,-280.5"/>
<text text-anchor="middle" x="480" y="-287.5" font-family="Arial" font-size="10.00">algorithm</text>
</a>
</g>
</g>
<!-- Node1&#45;&gt;Node21 -->
<g id="edge25" class="edge">
<title>Node1&#45;&gt;Node21</title>
<path fill="none" stroke="midnightblue" d="M409.04,-336.4C423.81,-326.95 443.18,-314.56 457.95,-305.11"/>
<polygon fill="midnightblue" stroke="midnightblue" points="459.93,-308 466.47,-299.66 456.16,-302.1 459.93,-308"/>
</g>
<!-- Node22 -->
<g id="node22" class="node">
<title>Node22</title>
<g id="a_node22"><a xlink:title=" ">
<polygon fill="white" stroke="#bfbfbf" points="530.5,-280.5 530.5,-299.5 595.5,-299.5 595.5,-280.5 530.5,-280.5"/>
<text text-anchor="middle" x="563" y="-287.5" font-family="Arial" font-size="10.00">stdexcept</text>
</a>
</g>
</g>
<!-- Node1&#45;&gt;Node22 -->
<g id="edge26" class="edge">
<title>Node1&#45;&gt;Node22</title>
<path fill="none" stroke="midnightblue" d="M428.71,-336.4C458.99,-326.16 499.49,-312.47 528.07,-302.81"/>
<polygon fill="midnightblue" stroke="midnightblue" points="529.3,-306.09 537.65,-299.57 527.05,-299.46 529.3,-306.09"/>
</g>
<!-- Node23 -->
<g id="node23" class="node">
<title>Node23</title>
<g id="a_node23"><a xlink:title=" ">
<polygon fill="white" stroke="#bfbfbf" points="614,-280.5 614,-299.5 646,-299.5 646,-280.5 614,-280.5"/>
<text text-anchor="middle" x="630" y="-287.5" font-family="Arial" font-size="10.00">set</text>
</a>
</g>
</g>
<!-- Node1&#45;&gt;Node23 -->
<g id="edge27" class="edge">
<title>Node1&#45;&gt;Node23</title>
<path fill="none" stroke="midnightblue" d="M447.17,-338.56C488.91,-329.82 545.88,-316.98 604.2,-299.97"/>
<polygon fill="midnightblue" stroke="midnightblue" points="605.36,-303.28 613.95,-297.09 603.37,-296.57 605.36,-303.28"/>
</g>
<!-- Node3 -->
<g id="node3" class="node">
<title>Node3</title>
<g id="a_node3"><a xlink:href="wayland__surface_8h.html" target="_top" xlink:title=" ">
<polygon fill="white" stroke="black" points="175,-224.5 175,-243.5 283,-243.5 283,-224.5 175,-224.5"/>
<text text-anchor="middle" x="229" y="-231.5" font-family="Arial" font-size="10.00">wayland_surface.h</text>
</a>
</g>
</g>
<!-- Node2&#45;&gt;Node3 -->
<g id="edge2" class="edge">
<title>Node2&#45;&gt;Node3</title>
<path fill="none" stroke="midnightblue" d="M229,-280.08C229,-273.01 229,-262.86 229,-253.99"/>
<polygon fill="midnightblue" stroke="midnightblue" points="232.5,-253.75 229,-243.75 225.5,-253.75 232.5,-253.75"/>
</g>
<!-- Node6 -->
<g id="node6" class="node">
<title>Node6</title>
<g id="a_node6"><a xlink:title=" ">
<polygon fill="white" stroke="#bfbfbf" points="0,-112.5 0,-131.5 58,-131.5 58,-112.5 0,-112.5"/>
<text text-anchor="middle" x="29" y="-119.5" font-family="Arial" font-size="10.00">memory</text>
</a>
</g>
</g>
<!-- Node2&#45;&gt;Node6 -->
<g id="edge20" class="edge">
<title>Node2&#45;&gt;Node6</title>
<path fill="none" stroke="midnightblue" d="M216.17,-280.41C203.23,-271.62 182.83,-257.39 166,-244 120.93,-208.15 70.91,-162.32 45.61,-138.68"/>
<polygon fill="midnightblue" stroke="midnightblue" points="47.71,-135.84 38.02,-131.55 42.92,-140.95 47.71,-135.84"/>
</g>
<!-- Node17 -->
<g id="node17" class="node">
<title>Node17</title>
<g id="a_node17"><a xlink:title=" ">
<polygon fill="white" stroke="#bfbfbf" points="301,-224.5 301,-243.5 363,-243.5 363,-224.5 301,-224.5"/>
<text text-anchor="middle" x="332" y="-231.5" font-family="Arial" font-size="10.00">EGL/egl.h</text>
</a>
</g>
</g>
<!-- Node2&#45;&gt;Node17 -->
<g id="edge19" class="edge">
<title>Node2&#45;&gt;Node17</title>
<path fill="none" stroke="midnightblue" d="M245.55,-280.32C261.99,-271.7 287.43,-258.36 306.47,-248.39"/>
<polygon fill="midnightblue" stroke="midnightblue" points="308.26,-251.4 315.49,-243.65 305.01,-245.2 308.26,-251.4"/>
</g>
<!-- Node18 -->
<g id="node18" class="node">
<title>Node18</title>
<g id="a_node18"><a xlink:title=" ">
<polygon fill="white" stroke="#bfbfbf" points="381.5,-224.5 381.5,-243.5 428.5,-243.5 428.5,-224.5 381.5,-224.5"/>
<text text-anchor="middle" x="405" y="-231.5" font-family="Arial" font-size="10.00">vector</text>
</a>
</g>
</g>
<!-- Node2&#45;&gt;Node18 -->
<g id="edge21" class="edge">
<title>Node2&#45;&gt;Node18</title>
<path fill="none" stroke="midnightblue" d="M256.89,-280.44C288.07,-270.88 338.55,-255.39 371.76,-245.2"/>
<polygon fill="midnightblue" stroke="midnightblue" points="372.93,-248.5 381.47,-242.22 370.88,-241.81 372.93,-248.5"/>
</g>
<!-- Node3&#45;&gt;Node4 -->
<g id="edge3" class="edge">
<title>Node3&#45;&gt;Node4</title>
<path fill="none" stroke="midnightblue" d="M227.51,-224.08C226.32,-216.93 224.61,-206.64 223.12,-197.69"/>
<polygon fill="midnightblue" stroke="midnightblue" points="226.55,-197.04 221.46,-187.75 219.65,-198.19 226.55,-197.04"/>
</g>
<!-- Node8 -->
<g id="node8" class="node">
<title>Node8</title>
<g id="a_node8"><a xlink:title=" ">
<polygon fill="white" stroke="#bfbfbf" points="286.5,-112.5 286.5,-131.5 351.5,-131.5 351.5,-112.5 286.5,-112.5"/>
<text text-anchor="middle" x="319" y="-119.5" font-family="Arial" font-size="10.00">functional</text>
</a>
</g>
</g>
<!-- Node3&#45;&gt;Node8 -->
<g id="edge18" class="edge">
<title>Node3&#45;&gt;Node8</title>
<path fill="none" stroke="midnightblue" d="M238.46,-224.49C247.93,-215.76 262.67,-201.57 274,-188 286.74,-172.74 299.47,-153.94 308.12,-140.49"/>
<polygon fill="midnightblue" stroke="midnightblue" points="311.25,-142.09 313.64,-131.77 305.33,-138.35 311.25,-142.09"/>
</g>
<!-- Node10 -->
<g id="node10" class="node">
<title>Node10</title>
<g id="a_node10"><a xlink:href="size_8h.html" target="_top" xlink:title=" ">
<polygon fill="white" stroke="black" points="353.5,-168.5 353.5,-187.5 468.5,-187.5 468.5,-168.5 353.5,-168.5"/>
<text text-anchor="middle" x="411" y="-175.5" font-family="Arial" font-size="10.00">mir/geometry/size.h</text>
</a>
</g>
</g>
<!-- Node3&#45;&gt;Node10 -->
<g id="edge9" class="edge">
<title>Node3&#45;&gt;Node10</title>
<path fill="none" stroke="midnightblue" d="M257.84,-224.44C288.86,-215.24 338.33,-200.56 372.62,-190.39"/>
<polygon fill="midnightblue" stroke="midnightblue" points="373.71,-193.72 382.3,-187.52 371.71,-187.01 373.71,-193.72"/>
</g>
<!-- Node5 -->
<g id="node5" class="node">
<title>Node5</title>
<g id="a_node5"><a xlink:title=" ">
<polygon fill="white" stroke="#bfbfbf" points="76,-112.5 76,-131.5 174,-131.5 174,-112.5 76,-112.5"/>
<text text-anchor="middle" x="125" y="-119.5" font-family="Arial" font-size="10.00">wayland&#45;client.h</text>
</a>
</g>
</g>
<!-- Node4&#45;&gt;Node5 -->
<g id="edge4" class="edge">
<title>Node4&#45;&gt;Node5</title>
<path fill="none" stroke="midnightblue" d="M204.74,-168.32C189.78,-159.82 166.75,-146.73 149.27,-136.8"/>
<polygon fill="midnightblue" stroke="midnightblue" points="150.65,-133.55 140.23,-131.65 147.19,-139.64 150.65,-133.55"/>
</g>
<!-- Node4&#45;&gt;Node6 -->
<g id="edge5" class="edge">
<title>Node4&#45;&gt;Node6</title>
<path fill="none" stroke="midnightblue" d="M189.74,-168.44C156.76,-159.12 103.9,-144.17 67.87,-133.99"/>
<polygon fill="midnightblue" stroke="midnightblue" points="68.76,-130.6 58.18,-131.25 66.85,-137.34 68.76,-130.6"/>
</g>
<!-- Node7 -->
<g id="node7" class="node">
<title>Node7</title>
<g id="a_node7"><a xlink:title=" ">
<polygon fill="white" stroke="#bfbfbf" points="192,-112.5 192,-131.5 230,-131.5 230,-112.5 192,-112.5"/>
<text text-anchor="middle" x="211" y="-119.5" font-family="Arial" font-size="10.00">map</text>
</a>
</g>
</g>
<!-- Node4&#45;&gt;Node7 -->
<g id="edge6" class="edge">
<title>Node4&#45;&gt;Node7</title>
<path fill="none" stroke="midnightblue" d="M218.51,-168.08C217.32,-160.93 215.61,-150.64 214.12,-141.69"/>
<polygon fill="midnightblue" stroke="midnightblue" points="217.55,-141.04 212.46,-131.75 210.65,-142.19 217.55,-141.04"/>
</g>
<!-- Node4&#45;&gt;Node8 -->
<g id="edge7" class="edge">
<title>Node4&#45;&gt;Node8</title>
<path fill="none" stroke="midnightblue" d="M235.91,-168.32C251.64,-159.74 275.94,-146.49 294.21,-136.52"/>
<polygon fill="midnightblue" stroke="midnightblue" points="296.03,-139.52 303.13,-131.65 292.68,-133.37 296.03,-139.52"/>
</g>
<!-- Node9 -->
<g id="node9" class="node">
<title>Node9</title>
<g id="a_node9"><a xlink:title=" ">
<polygon fill="white" stroke="#bfbfbf" points="257,-56.5 257,-75.5 307,-75.5 307,-56.5 257,-56.5"/>
<text text-anchor="middle" x="282" y="-63.5" font-family="Arial" font-size="10.00">cstdint</text>
</a>
</g>
</g>
<!-- Node4&#45;&gt;Node9 -->
<g id="edge8" class="edge">
<title>Node4&#45;&gt;Node9</title>
<path fill="none" stroke="midnightblue" d="M224.87,-168.37C235.05,-150.3 258.79,-108.18 272.24,-84.31"/>
<polygon fill="midnightblue" stroke="midnightblue" points="275.3,-86.02 277.16,-75.59 269.2,-82.58 275.3,-86.02"/>
</g>
<!-- Node11 -->
<g id="node11" class="node">
<title>Node11</title>
<g id="a_node11"><a xlink:href="size__generic_8h.html" target="_top" xlink:title=" ">
<polygon fill="white" stroke="black" points="470,-112.5 470,-131.5 556,-131.5 556,-112.5 470,-112.5"/>
<text text-anchor="middle" x="513" y="-119.5" font-family="Arial" font-size="10.00">size_generic.h</text>
</a>
</g>
</g>
<!-- Node10&#45;&gt;Node11 -->
<g id="edge10" class="edge">
<title>Node10&#45;&gt;Node11</title>
<path fill="none" stroke="midnightblue" d="M427.39,-168.32C443.67,-159.7 468.87,-146.36 487.72,-136.39"/>
<polygon fill="midnightblue" stroke="midnightblue" points="489.45,-139.43 496.65,-131.65 486.18,-133.24 489.45,-139.43"/>
</g>
<!-- Node16 -->
<g id="node16" class="node">
<title>Node16</title>
<g id="a_node16"><a xlink:href="dimensions_8h.html" target="_top" xlink:title=" ">
<polygon fill="white" stroke="black" points="370,-112.5 370,-131.5 452,-131.5 452,-112.5 370,-112.5"/>
<text text-anchor="middle" x="411" y="-119.5" font-family="Arial" font-size="10.00">dimensions.h</text>
</a>
</g>
</g>
<!-- Node10&#45;&gt;Node16 -->
<g id="edge15" class="edge">
<title>Node10&#45;&gt;Node16</title>
<path fill="none" stroke="midnightblue" d="M411,-168.08C411,-161.01 411,-150.86 411,-141.99"/>
<polygon fill="midnightblue" stroke="midnightblue" points="414.5,-141.75 411,-131.75 407.5,-141.75 414.5,-141.75"/>
</g>
<!-- Node12 -->
<g id="node12" class="node">
<title>Node12</title>
<g id="a_node12"><a xlink:href="dimensions__generic_8h.html" target="_top" xlink:title=" ">
<polygon fill="white" stroke="black" points="349.5,-56.5 349.5,-75.5 472.5,-75.5 472.5,-56.5 349.5,-56.5"/>
<text text-anchor="middle" x="411" y="-63.5" font-family="Arial" font-size="10.00">dimensions_generic.h</text>
</a>
</g>
</g>
<!-- Node11&#45;&gt;Node12 -->
<g id="edge11" class="edge">
<title>Node11&#45;&gt;Node12</title>
<path fill="none" stroke="midnightblue" d="M496.61,-112.32C480.33,-103.7 455.13,-90.36 436.28,-80.39"/>
<polygon fill="midnightblue" stroke="midnightblue" points="437.82,-77.24 427.35,-75.65 434.55,-83.43 437.82,-77.24"/>
</g>
<!-- Node15 -->
<g id="node15" class="node">
<title>Node15</title>
<g id="a_node15"><a xlink:title=" ">
<polygon fill="white" stroke="#bfbfbf" points="490.5,-56.5 490.5,-75.5 547.5,-75.5 547.5,-56.5 490.5,-56.5"/>
<text text-anchor="middle" x="519" y="-63.5" font-family="Arial" font-size="10.00">ostream</text>
</a>
</g>
</g>
<!-- Node11&#45;&gt;Node15 -->
<g id="edge14" class="edge">
<title>Node11&#45;&gt;Node15</title>
<path fill="none" stroke="midnightblue" d="M513.99,-112.08C514.79,-104.93 515.93,-94.64 516.92,-85.69"/>
<polygon fill="midnightblue" stroke="midnightblue" points="520.4,-86.08 518.03,-75.75 513.44,-85.3 520.4,-86.08"/>
</g>
<!-- Node13 -->
<g id="node13" class="node">
<title>Node13</title>
<g id="a_node13"><a xlink:title=" ">
<polygon fill="white" stroke="#bfbfbf" points="348,-0.5 348,-19.5 396,-19.5 396,-0.5 348,-0.5"/>
<text text-anchor="middle" x="372" y="-7.5" font-family="Arial" font-size="10.00">iosfwd</text>
</a>
</g>
</g>
<!-- Node12&#45;&gt;Node13 -->
<g id="edge12" class="edge">
<title>Node12&#45;&gt;Node13</title>
<path fill="none" stroke="midnightblue" d="M404.56,-56.08C399.05,-48.46 390.97,-37.26 384.24,-27.94"/>
<polygon fill="midnightblue" stroke="midnightblue" points="387.01,-25.81 378.32,-19.75 381.34,-29.91 387.01,-25.81"/>
</g>
<!-- Node14 -->
<g id="node14" class="node">
<title>Node14</title>
<g id="a_node14"><a xlink:title=" ">
<polygon fill="white" stroke="#bfbfbf" points="414.5,-0.5 414.5,-19.5 483.5,-19.5 483.5,-0.5 414.5,-0.5"/>
<text text-anchor="middle" x="449" y="-7.5" font-family="Arial" font-size="10.00">type_traits</text>
</a>
</g>
</g>
<!-- Node12&#45;&gt;Node14 -->
<g id="edge13" class="edge">
<title>Node12&#45;&gt;Node14</title>
<path fill="none" stroke="midnightblue" d="M417.27,-56.08C422.64,-48.46 430.52,-37.26 437.08,-27.94"/>
<polygon fill="midnightblue" stroke="midnightblue" points="439.95,-29.94 442.84,-19.75 434.22,-25.91 439.95,-29.94"/>
</g>
<!-- Node16&#45;&gt;Node9 -->
<g id="edge17" class="edge">
<title>Node16&#45;&gt;Node9</title>
<path fill="none" stroke="midnightblue" d="M390.56,-112.44C369.33,-103.56 335.9,-89.56 311.75,-79.45"/>
<polygon fill="midnightblue" stroke="midnightblue" points="312.92,-76.15 302.34,-75.52 310.22,-82.61 312.92,-76.15"/>
</g>
<!-- Node16&#45;&gt;Node12 -->
<g id="edge16" class="edge">
<title>Node16&#45;&gt;Node12</title>
<path fill="none" stroke="midnightblue" d="M411,-112.08C411,-105.01 411,-94.86 411,-85.99"/>
<polygon fill="midnightblue" stroke="midnightblue" points="414.5,-85.75 411,-75.75 407.5,-85.75 414.5,-85.75"/>
</g>
</g>
</svg>
