<?xml version="1.0" encoding="UTF-8" standalone="no"?>
<!DOCTYPE svg PUBLIC "-//W3C//DTD SVG 1.1//EN"
 "http://www.w3.org/Graphics/SVG/1.1/DTD/svg11.dtd">
<!-- Generated by graphviz version 2.43.0 (0)
 -->
<!-- Title: include/core/mir/optional_value.h Pages: 1 -->
<svg width="1282pt" height="452pt"
 viewBox="0.00 0.00 1282.00 452.00" xmlns="http://www.w3.org/2000/svg" xmlns:xlink="http://www.w3.org/1999/xlink">
<g id="graph0" class="graph" transform="scale(1 1) rotate(0) translate(4 448)">
<title>include/core/mir/optional_value.h</title>
<polygon fill="white" stroke="transparent" points="-4,4 -4,-448 1278,-448 1278,4 -4,4"/>
<!-- Node1 -->
<g id="node1" class="node">
<title>Node1</title>
<g id="a_node1"><a xlink:title=" ">
<polygon fill="#bfbfbf" stroke="black" points="349.5,-413.5 349.5,-443.5 487.5,-443.5 487.5,-413.5 349.5,-413.5"/>
<text text-anchor="start" x="357.5" y="-431.5" font-family="Arial" font-size="10.00">include/core/mir/optional</text>
<text text-anchor="middle" x="418.5" y="-420.5" font-family="Arial" font-size="10.00">_value.h</text>
</a>
</g>
</g>
<!-- Node2 -->
<g id="node2" class="node">
<title>Node2</title>
<g id="a_node2"><a xlink:href="command__line__option_8h.html" target="_top" xlink:title=" ">
<polygon fill="white" stroke="black" points="0,-67.5 0,-97.5 137,-97.5 137,-67.5 0,-67.5"/>
<text text-anchor="start" x="8" y="-85.5" font-family="Arial" font-size="10.00">include/miral/miral</text>
<text text-anchor="middle" x="68.5" y="-74.5" font-family="Arial" font-size="10.00">/command_line_option.h</text>
</a>
</g>
</g>
<!-- Node1&#45;&gt;Node2 -->
<g id="edge1" class="edge">
<title>Node1&#45;&gt;Node2</title>
<path fill="none" stroke="midnightblue" d="M339.38,-422.86C251.09,-412.91 120.5,-381.75 120.5,-284.5 120.5,-284.5 120.5,-284.5 120.5,-215.5 120.5,-169.93 93.34,-121.29 78.28,-97.81"/>
<polygon fill="midnightblue" stroke="midnightblue" points="339.07,-426.35 349.38,-423.92 339.81,-419.39 339.07,-426.35"/>
</g>
<!-- Node5 -->
<g id="node5" class="node">
<title>Node5</title>
<g id="a_node5"><a xlink:href="runner_8h.html" target="_top" xlink:title=" ">
<polygon fill="white" stroke="black" points="155,-67.5 155,-97.5 264,-97.5 264,-67.5 155,-67.5"/>
<text text-anchor="start" x="163" y="-85.5" font-family="Arial" font-size="10.00">include/miral/miral</text>
<text text-anchor="middle" x="209.5" y="-74.5" font-family="Arial" font-size="10.00">/runner.h</text>
</a>
</g>
</g>
<!-- Node1&#45;&gt;Node5 -->
<g id="edge4" class="edge">
<title>Node1&#45;&gt;Node5</title>
<path fill="none" stroke="midnightblue" d="M362.22,-409.89C308.77,-389.23 236.5,-349.32 236.5,-284.5 236.5,-284.5 236.5,-284.5 236.5,-215.5 236.5,-171.76 222.09,-121.49 214.33,-97.57"/>
<polygon fill="midnightblue" stroke="midnightblue" points="361.04,-413.18 371.63,-413.4 363.49,-406.62 361.04,-413.18"/>
</g>
<!-- Node6 -->
<g id="node6" class="node">
<title>Node6</title>
<g id="a_node6"><a xlink:href="window__info_8h.html" target="_top" xlink:title=" ">
<polygon fill="white" stroke="black" points="561,-268.5 561,-298.5 670,-298.5 670,-268.5 561,-268.5"/>
<text text-anchor="start" x="569" y="-286.5" font-family="Arial" font-size="10.00">include/miral/miral</text>
<text text-anchor="middle" x="615.5" y="-275.5" font-family="Arial" font-size="10.00">/window_info.h</text>
</a>
</g>
</g>
<!-- Node1&#45;&gt;Node6 -->
<g id="edge7" class="edge">
<title>Node1&#45;&gt;Node6</title>
<path fill="none" stroke="midnightblue" d="M451.61,-408.04C465.43,-399.28 481.3,-388.36 494.5,-377 513.58,-360.57 513.1,-351.04 532.5,-335 549.66,-320.81 571.19,-307.83 588.02,-298.58"/>
<polygon fill="midnightblue" stroke="midnightblue" points="449.52,-405.21 442.87,-413.46 453.21,-411.16 449.52,-405.21"/>
</g>
<!-- Node18 -->
<g id="node18" class="node">
<title>Node18</title>
<g id="a_node18"><a xlink:href="window__specification_8h.html" target="_top" xlink:title=" ">
<polygon fill="white" stroke="black" points="352,-341 352,-371 485,-371 485,-341 352,-341"/>
<text text-anchor="start" x="360" y="-359" font-family="Arial" font-size="10.00">include/miral/miral</text>
<text text-anchor="middle" x="418.5" y="-348" font-family="Arial" font-size="10.00">/window_specification.h</text>
</a>
</g>
</g>
<!-- Node1&#45;&gt;Node18 -->
<g id="edge29" class="edge">
<title>Node1&#45;&gt;Node18</title>
<path fill="none" stroke="midnightblue" d="M418.5,-403.23C418.5,-392.57 418.5,-380.41 418.5,-371.25"/>
<polygon fill="midnightblue" stroke="midnightblue" points="415,-403.23 418.5,-413.23 422,-403.23 415,-403.23"/>
</g>
<!-- Node19 -->
<g id="node19" class="node">
<title>Node19</title>
<g id="a_node19"><a xlink:href="display__configuration__storage_8h.html" target="_top" xlink:title=" ">
<polygon fill="white" stroke="black" points="541.5,-335.5 541.5,-376.5 665.5,-376.5 665.5,-335.5 541.5,-335.5"/>
<text text-anchor="start" x="549.5" y="-364.5" font-family="Arial" font-size="10.00">include/miroil/miroil</text>
<text text-anchor="start" x="549.5" y="-353.5" font-family="Arial" font-size="10.00">/display_configuration</text>
<text text-anchor="middle" x="603.5" y="-342.5" font-family="Arial" font-size="10.00">_storage.h</text>
</a>
</g>
</g>
<!-- Node1&#45;&gt;Node19 -->
<g id="edge31" class="edge">
<title>Node1&#45;&gt;Node19</title>
<path fill="none" stroke="midnightblue" d="M464.95,-409.8C491.51,-399.68 524.88,-386.96 552.21,-376.55"/>
<polygon fill="midnightblue" stroke="midnightblue" points="463.59,-406.57 455.49,-413.4 466.08,-413.11 463.59,-406.57"/>
</g>
<!-- Node3 -->
<g id="node3" class="node">
<title>Node3</title>
<g id="a_node3"><a xlink:href="kiosk__main_8cpp.html" target="_top" xlink:title=" ">
<polygon fill="white" stroke="black" points="148,-0.5 148,-30.5 271,-30.5 271,-0.5 148,-0.5"/>
<text text-anchor="start" x="156" y="-18.5" font-family="Arial" font-size="10.00">examples/miral&#45;kiosk</text>
<text text-anchor="middle" x="209.5" y="-7.5" font-family="Arial" font-size="10.00">/kiosk_main.cpp</text>
</a>
</g>
</g>
<!-- Node2&#45;&gt;Node3 -->
<g id="edge2" class="edge">
<title>Node2&#45;&gt;Node3</title>
<path fill="none" stroke="midnightblue" d="M108.35,-63.13C130.75,-52.8 158.28,-40.11 178.96,-30.58"/>
<polygon fill="midnightblue" stroke="midnightblue" points="106.71,-60.03 99.09,-67.4 109.64,-66.39 106.71,-60.03"/>
</g>
<!-- Node4 -->
<g id="node4" class="node">
<title>Node4</title>
<g id="a_node4"><a xlink:href="shell__main_8cpp.html" target="_top" xlink:title=" ">
<polygon fill="white" stroke="black" points="355.5,-0.5 355.5,-30.5 475.5,-30.5 475.5,-0.5 355.5,-0.5"/>
<text text-anchor="start" x="363.5" y="-18.5" font-family="Arial" font-size="10.00">examples/miral&#45;shell</text>
<text text-anchor="middle" x="415.5" y="-7.5" font-family="Arial" font-size="10.00">/shell_main.cpp</text>
</a>
</g>
</g>
<!-- Node2&#45;&gt;Node4 -->
<g id="edge3" class="edge">
<title>Node2&#45;&gt;Node4</title>
<path fill="none" stroke="midnightblue" d="M147.24,-66.67C224.44,-52.19 302.97,-37.51 355.44,-27.71"/>
<polygon fill="midnightblue" stroke="midnightblue" points="146.53,-63.25 137.35,-68.53 147.82,-70.13 146.53,-63.25"/>
</g>
<!-- Node5&#45;&gt;Node3 -->
<g id="edge5" class="edge">
<title>Node5&#45;&gt;Node3</title>
<path fill="none" stroke="midnightblue" d="M209.5,-57.11C209.5,-48.15 209.5,-38.32 209.5,-30.58"/>
<polygon fill="midnightblue" stroke="midnightblue" points="206,-57.4 209.5,-67.4 213,-57.4 206,-57.4"/>
</g>
<!-- Node5&#45;&gt;Node4 -->
<g id="edge6" class="edge">
<title>Node5&#45;&gt;Node4</title>
<path fill="none" stroke="midnightblue" d="M263.55,-64.44C296.95,-53.91 339.28,-40.55 370.78,-30.61"/>
<polygon fill="midnightblue" stroke="midnightblue" points="262.43,-61.13 253.95,-67.48 264.54,-67.8 262.43,-61.13"/>
</g>
<!-- Node7 -->
<g id="node7" class="node">
<title>Node7</title>
<g id="a_node7"><a xlink:href="kiosk__window__manager_8cpp.html" target="_top" xlink:title=" ">
<polygon fill="white" stroke="black" points="1117,-0.5 1117,-30.5 1274,-30.5 1274,-0.5 1117,-0.5"/>
<text text-anchor="start" x="1125" y="-18.5" font-family="Arial" font-size="10.00">examples/miral&#45;kiosk</text>
<text text-anchor="middle" x="1195.5" y="-7.5" font-family="Arial" font-size="10.00">/kiosk_window_manager.cpp</text>
</a>
</g>
</g>
<!-- Node6&#45;&gt;Node7 -->
<g id="edge8" class="edge">
<title>Node6&#45;&gt;Node7</title>
<path fill="none" stroke="midnightblue" d="M680.32,-281.29C757.14,-278.17 888.16,-267.55 994.5,-232 1088.75,-200.49 1126.12,-185.36 1173.5,-98 1185.31,-76.23 1191.11,-47.68 1193.7,-30.8"/>
<polygon fill="midnightblue" stroke="midnightblue" points="680.16,-277.79 670.3,-281.66 680.43,-284.78 680.16,-277.79"/>
</g>
<!-- Node8 -->
<g id="node8" class="node">
<title>Node8</title>
<g id="a_node8"><a xlink:href="floating__window__manager_8cpp.html" target="_top" xlink:title=" ">
<polygon fill="white" stroke="black" points="916,-0.5 916,-30.5 1099,-30.5 1099,-0.5 916,-0.5"/>
<text text-anchor="start" x="924" y="-18.5" font-family="Arial" font-size="10.00">examples/example&#45;server</text>
<text text-anchor="middle" x="1007.5" y="-7.5" font-family="Arial" font-size="10.00">&#45;lib/floating_window_manager.cpp</text>
</a>
</g>
</g>
<!-- Node6&#45;&gt;Node8 -->
<g id="edge9" class="edge">
<title>Node6&#45;&gt;Node8</title>
<path fill="none" stroke="midnightblue" d="M680.48,-275.83C796.67,-262.41 1032.47,-227.93 1081.5,-165 1093.62,-149.45 1082.61,-86.17 1071.5,-67 1062.63,-51.69 1047.16,-39.3 1033.65,-30.61"/>
<polygon fill="midnightblue" stroke="midnightblue" points="679.84,-272.38 670.3,-276.98 680.63,-279.33 679.84,-272.38"/>
</g>
<!-- Node9 -->
<g id="node9" class="node">
<title>Node9</title>
<g id="a_node9"><a xlink:href="tiling__window__manager_8cpp.html" target="_top" xlink:title=" ">
<polygon fill="white" stroke="black" points="282,-67.5 282,-97.5 453,-97.5 453,-67.5 282,-67.5"/>
<text text-anchor="start" x="290" y="-85.5" font-family="Arial" font-size="10.00">examples/example&#45;server</text>
<text text-anchor="middle" x="367.5" y="-74.5" font-family="Arial" font-size="10.00">&#45;lib/tiling_window_manager.cpp</text>
</a>
</g>
</g>
<!-- Node6&#45;&gt;Node9 -->
<g id="edge10" class="edge">
<title>Node6&#45;&gt;Node9</title>
<path fill="none" stroke="midnightblue" d="M550.91,-274.54C486.49,-262.78 390.79,-234.1 345.5,-165 331.76,-144.04 346.19,-114.72 357.29,-97.56"/>
<polygon fill="midnightblue" stroke="midnightblue" points="550.52,-278.02 560.97,-276.28 551.72,-271.13 550.52,-278.02"/>
</g>
<!-- Node10 -->
<g id="node10" class="node">
<title>Node10</title>
<g id="a_node10"><a xlink:href="window__manager__tools_8h.html" target="_top" xlink:title=" ">
<polygon fill="white" stroke="black" points="646.5,-201.5 646.5,-231.5 790.5,-231.5 790.5,-201.5 646.5,-201.5"/>
<text text-anchor="start" x="654.5" y="-219.5" font-family="Arial" font-size="10.00">include/miral/miral</text>
<text text-anchor="middle" x="718.5" y="-208.5" font-family="Arial" font-size="10.00">/window_manager_tools.h</text>
</a>
</g>
</g>
<!-- Node6&#45;&gt;Node10 -->
<g id="edge11" class="edge">
<title>Node6&#45;&gt;Node10</title>
<path fill="none" stroke="midnightblue" d="M646.38,-263.02C662.4,-252.9 681.63,-240.77 696.19,-231.58"/>
<polygon fill="midnightblue" stroke="midnightblue" points="644.44,-260.1 637.85,-268.4 648.17,-266.02 644.44,-260.1"/>
</g>
<!-- Node10&#45;&gt;Node7 -->
<g id="edge12" class="edge">
<title>Node10&#45;&gt;Node7</title>
<path fill="none" stroke="midnightblue" d="M801,-211.25C893.08,-205.27 1035.26,-191.92 1081.5,-165 1137.12,-132.63 1174.9,-61.5 1189.16,-30.93"/>
<polygon fill="midnightblue" stroke="midnightblue" points="800.62,-207.77 790.86,-211.9 801.06,-214.76 800.62,-207.77"/>
</g>
<!-- Node10&#45;&gt;Node8 -->
<g id="edge16" class="edge">
<title>Node10&#45;&gt;Node8</title>
<path fill="none" stroke="midnightblue" d="M800.82,-215.3C891.64,-213.12 1029.36,-203.36 1062.5,-165 1097.55,-124.43 1047.29,-59.5 1021.35,-30.87"/>
<polygon fill="midnightblue" stroke="midnightblue" points="800.74,-211.8 790.82,-215.51 800.89,-218.8 800.74,-211.8"/>
</g>
<!-- Node10&#45;&gt;Node9 -->
<g id="edge20" class="edge">
<title>Node10&#45;&gt;Node9</title>
<path fill="none" stroke="midnightblue" d="M636.33,-215.94C541.41,-214.5 393.76,-205.55 358.5,-165 342.34,-146.42 352.13,-115.73 360.18,-97.79"/>
<polygon fill="midnightblue" stroke="midnightblue" points="636.44,-219.45 646.48,-216.07 636.53,-212.45 636.44,-219.45"/>
</g>
<!-- Node11 -->
<g id="node11" class="node">
<title>Node11</title>
<g id="a_node11"><a xlink:href="decoration__provider_8h.html" target="_top" xlink:title=" ">
<polygon fill="white" stroke="black" points="908,-134.5 908,-164.5 1053,-164.5 1053,-134.5 908,-134.5"/>
<text text-anchor="start" x="916" y="-152.5" font-family="Arial" font-size="10.00">examples/example&#45;server</text>
<text text-anchor="middle" x="980.5" y="-141.5" font-family="Arial" font-size="10.00">&#45;lib/decoration_provider.h</text>
</a>
</g>
</g>
<!-- Node10&#45;&gt;Node11 -->
<g id="edge13" class="edge">
<title>Node10&#45;&gt;Node11</title>
<path fill="none" stroke="midnightblue" d="M784.8,-199.05C827.63,-188.43 882.79,-174.74 923.62,-164.61"/>
<polygon fill="midnightblue" stroke="midnightblue" points="783.89,-195.67 775.03,-201.48 785.58,-202.47 783.89,-195.67"/>
</g>
<!-- Node13 -->
<g id="node13" class="node">
<title>Node13</title>
<g id="a_node13"><a xlink:href="tiling__window__manager_8h.html" target="_top" xlink:title=" ">
<polygon fill="white" stroke="black" points="367.5,-134.5 367.5,-164.5 527.5,-164.5 527.5,-134.5 367.5,-134.5"/>
<text text-anchor="start" x="375.5" y="-152.5" font-family="Arial" font-size="10.00">examples/example&#45;server</text>
<text text-anchor="middle" x="447.5" y="-141.5" font-family="Arial" font-size="10.00">&#45;lib/tiling_window_manager.h</text>
</a>
</g>
</g>
<!-- Node10&#45;&gt;Node13 -->
<g id="edge17" class="edge">
<title>Node10&#45;&gt;Node13</title>
<path fill="none" stroke="midnightblue" d="M650.2,-199.12C605.86,-188.48 548.66,-174.76 506.33,-164.61"/>
<polygon fill="midnightblue" stroke="midnightblue" points="649.49,-202.55 660.03,-201.48 651.12,-195.74 649.49,-202.55"/>
</g>
<!-- Node14 -->
<g id="node14" class="node">
<title>Node14</title>
<g id="a_node14"><a xlink:href="canonical__window__manager_8h.html" target="_top" xlink:title=" ">
<polygon fill="white" stroke="black" points="545.5,-134.5 545.5,-164.5 711.5,-164.5 711.5,-134.5 545.5,-134.5"/>
<text text-anchor="start" x="553.5" y="-152.5" font-family="Arial" font-size="10.00">include/miral/miral</text>
<text text-anchor="middle" x="628.5" y="-141.5" font-family="Arial" font-size="10.00">/canonical_window_manager.h</text>
</a>
</g>
</g>
<!-- Node10&#45;&gt;Node14 -->
<g id="edge21" class="edge">
<title>Node10&#45;&gt;Node14</title>
<path fill="none" stroke="midnightblue" d="M690.74,-195.45C676.89,-185.45 660.48,-173.6 647.99,-164.58"/>
<polygon fill="midnightblue" stroke="midnightblue" points="688.82,-198.38 698.97,-201.4 692.91,-192.7 688.82,-198.38"/>
</g>
<!-- Node16 -->
<g id="node16" class="node">
<title>Node16</title>
<g id="a_node16"><a xlink:href="minimal__window__manager_8h.html" target="_top" xlink:title=" ">
<polygon fill="white" stroke="black" points="729.5,-134.5 729.5,-164.5 889.5,-164.5 889.5,-134.5 729.5,-134.5"/>
<text text-anchor="start" x="737.5" y="-152.5" font-family="Arial" font-size="10.00">include/miral/miral</text>
<text text-anchor="middle" x="809.5" y="-141.5" font-family="Arial" font-size="10.00">/minimal_window_manager.h</text>
</a>
</g>
</g>
<!-- Node10&#45;&gt;Node16 -->
<g id="edge25" class="edge">
<title>Node10&#45;&gt;Node16</title>
<path fill="none" stroke="midnightblue" d="M746.57,-195.45C760.57,-185.45 777.16,-173.6 789.79,-164.58"/>
<polygon fill="midnightblue" stroke="midnightblue" points="744.35,-192.74 738.25,-201.4 748.42,-198.43 744.35,-192.74"/>
</g>
<!-- Node11&#45;&gt;Node8 -->
<g id="edge15" class="edge">
<title>Node11&#45;&gt;Node8</title>
<path fill="none" stroke="midnightblue" d="M1005.41,-126.86C1013.04,-118.68 1020.48,-108.73 1024.5,-98 1033.02,-75.26 1023.03,-47.27 1015.16,-30.71"/>
<polygon fill="midnightblue" stroke="midnightblue" points="1002.73,-124.59 998.13,-134.13 1007.68,-129.54 1002.73,-124.59"/>
</g>
<!-- Node12 -->
<g id="node12" class="node">
<title>Node12</title>
<g id="a_node12"><a xlink:href="decoration__provider_8cpp.html" target="_top" xlink:title=" ">
<polygon fill="white" stroke="black" points="863.5,-67.5 863.5,-97.5 1015.5,-97.5 1015.5,-67.5 863.5,-67.5"/>
<text text-anchor="start" x="871.5" y="-85.5" font-family="Arial" font-size="10.00">examples/example&#45;server</text>
<text text-anchor="middle" x="939.5" y="-74.5" font-family="Arial" font-size="10.00">&#45;lib/decoration_provider.cpp</text>
</a>
</g>
</g>
<!-- Node11&#45;&gt;Node12 -->
<g id="edge14" class="edge">
<title>Node11&#45;&gt;Node12</title>
<path fill="none" stroke="midnightblue" d="M966.22,-125.87C960.29,-116.46 953.59,-105.83 948.38,-97.58"/>
<polygon fill="midnightblue" stroke="midnightblue" points="963.31,-127.81 971.6,-134.4 969.23,-124.07 963.31,-127.81"/>
</g>
<!-- Node13&#45;&gt;Node4 -->
<g id="edge18" class="edge">
<title>Node13&#45;&gt;Node4</title>
<path fill="none" stroke="midnightblue" d="M458.5,-124.99C464.7,-108.35 469.87,-85.74 462.5,-67 456.8,-52.51 444.77,-39.71 434.31,-30.63"/>
<polygon fill="midnightblue" stroke="midnightblue" points="455.15,-123.92 454.6,-134.5 461.63,-126.57 455.15,-123.92"/>
</g>
<!-- Node13&#45;&gt;Node9 -->
<g id="edge19" class="edge">
<title>Node13&#45;&gt;Node9</title>
<path fill="none" stroke="midnightblue" d="M422.13,-127.88C409.97,-118.01 395.72,-106.43 384.82,-97.58"/>
<polygon fill="midnightblue" stroke="midnightblue" points="420.17,-130.81 430.14,-134.4 424.59,-125.37 420.17,-130.81"/>
</g>
<!-- Node15 -->
<g id="node15" class="node">
<title>Node15</title>
<g id="a_node15"><a xlink:href="kiosk__window__manager_8h.html" target="_top" xlink:title=" ">
<polygon fill="white" stroke="black" points="509.5,-67.5 509.5,-97.5 655.5,-97.5 655.5,-67.5 509.5,-67.5"/>
<text text-anchor="start" x="517.5" y="-85.5" font-family="Arial" font-size="10.00">examples/miral&#45;kiosk</text>
<text text-anchor="middle" x="582.5" y="-74.5" font-family="Arial" font-size="10.00">/kiosk_window_manager.h</text>
</a>
</g>
</g>
<!-- Node14&#45;&gt;Node15 -->
<g id="edge22" class="edge">
<title>Node14&#45;&gt;Node15</title>
<path fill="none" stroke="midnightblue" d="M612.69,-126.16C605.98,-116.68 598.37,-105.92 592.46,-97.58"/>
<polygon fill="midnightblue" stroke="midnightblue" points="609.88,-128.26 618.52,-134.4 615.6,-124.21 609.88,-128.26"/>
</g>
<!-- Node15&#45;&gt;Node3 -->
<g id="edge23" class="edge">
<title>Node15&#45;&gt;Node3</title>
<path fill="none" stroke="midnightblue" d="M499.27,-67C430.17,-54.96 333.47,-38.1 271.15,-27.24"/>
<polygon fill="midnightblue" stroke="midnightblue" points="498.8,-70.47 509.25,-68.74 500,-63.57 498.8,-70.47"/>
</g>
<!-- Node15&#45;&gt;Node7 -->
<g id="edge24" class="edge">
<title>Node15&#45;&gt;Node7</title>
<path fill="none" stroke="midnightblue" d="M665.85,-66.91C862.6,-42.17 915.28,-54.89 1108.5,-31 1111.24,-30.66 1114.02,-30.3 1116.82,-29.92"/>
<polygon fill="midnightblue" stroke="midnightblue" points="665.24,-63.46 655.77,-68.19 666.13,-70.4 665.24,-63.46"/>
</g>
<!-- Node17 -->
<g id="node17" class="node">
<title>Node17</title>
<g id="a_node17"><a xlink:href="floating__window__manager_8h.html" target="_top" xlink:title=" ">
<polygon fill="white" stroke="black" points="673.5,-67.5 673.5,-97.5 845.5,-97.5 845.5,-67.5 673.5,-67.5"/>
<text text-anchor="start" x="681.5" y="-85.5" font-family="Arial" font-size="10.00">examples/example&#45;server</text>
<text text-anchor="middle" x="759.5" y="-74.5" font-family="Arial" font-size="10.00">&#45;lib/floating_window_manager.h</text>
</a>
</g>
</g>
<!-- Node16&#45;&gt;Node17 -->
<g id="edge26" class="edge">
<title>Node16&#45;&gt;Node17</title>
<path fill="none" stroke="midnightblue" d="M792.54,-126.45C785.19,-116.9 776.81,-106 770.33,-97.58"/>
<polygon fill="midnightblue" stroke="midnightblue" points="789.78,-128.6 798.65,-134.4 795.33,-124.34 789.78,-128.6"/>
</g>
<!-- Node17&#45;&gt;Node4 -->
<g id="edge27" class="edge">
<title>Node17&#45;&gt;Node4</title>
<path fill="none" stroke="midnightblue" d="M675.15,-65.56C613.3,-53.88 530.82,-38.29 475.57,-27.85"/>
<polygon fill="midnightblue" stroke="midnightblue" points="674.8,-69.06 685.28,-67.48 676.1,-62.18 674.8,-69.06"/>
</g>
<!-- Node17&#45;&gt;Node8 -->
<g id="edge28" class="edge">
<title>Node17&#45;&gt;Node8</title>
<path fill="none" stroke="midnightblue" d="M822.77,-64.92C863.24,-54.31 915.17,-40.7 953.66,-30.61"/>
<polygon fill="midnightblue" stroke="midnightblue" points="821.79,-61.55 813.01,-67.48 823.57,-68.33 821.79,-61.55"/>
</g>
<!-- Node18&#45;&gt;Node6 -->
<g id="edge30" class="edge">
<title>Node18&#45;&gt;Node6</title>
<path fill="none" stroke="midnightblue" d="M467.5,-337.46C501.04,-325.46 544.92,-309.76 576.18,-298.57"/>
<polygon fill="midnightblue" stroke="midnightblue" points="466.13,-334.24 457.89,-340.9 468.49,-340.83 466.13,-334.24"/>
</g>
</g>
</svg>
