<?xml version="1.0" encoding="UTF-8" standalone="no"?>
<!DOCTYPE svg PUBLIC "-//W3C//DTD SVG 1.1//EN"
 "http://www.w3.org/Graphics/SVG/1.1/DTD/svg11.dtd">
<!-- Generated by graphviz version 2.43.0 (0)
 -->
<!-- Title: include/core/mir/geometry/rectangle.h Pages: 1 -->
<svg width="470pt" height="319pt"
 viewBox="0.00 0.00 470.20 319.00" xmlns="http://www.w3.org/2000/svg" xmlns:xlink="http://www.w3.org/1999/xlink">
<g id="graph0" class="graph" transform="scale(1 1) rotate(0) translate(4 315)">
<title>include/core/mir/geometry/rectangle.h</title>
<polygon fill="white" stroke="transparent" points="-4,4 -4,-315 466.2,-315 466.2,4 -4,4"/>
<!-- Node1 -->
<g id="node1" class="node">
<title>Node1</title>
<g id="a_node1"><a xlink:title=" ">
<polygon fill="#bfbfbf" stroke="black" points="159.2,-280.5 159.2,-310.5 305.2,-310.5 305.2,-280.5 159.2,-280.5"/>
<text text-anchor="start" x="167.2" y="-298.5" font-family="Arial" font-size="10.00">include/core/mir/geometry</text>
<text text-anchor="middle" x="232.2" y="-287.5" font-family="Arial" font-size="10.00">/rectangle.h</text>
</a>
</g>
</g>
<!-- Node2 -->
<g id="node2" class="node">
<title>Node2</title>
<g id="a_node2"><a xlink:href="rectangle__generic_8h.html" target="_top" xlink:title=" ">
<polygon fill="white" stroke="black" points="59.7,-168.5 59.7,-187.5 172.7,-187.5 172.7,-168.5 59.7,-168.5"/>
<text text-anchor="middle" x="116.2" y="-175.5" font-family="Arial" font-size="10.00">rectangle_generic.h</text>
</a>
</g>
</g>
<!-- Node1&#45;&gt;Node2 -->
<g id="edge1" class="edge">
<title>Node1&#45;&gt;Node2</title>
<path fill="none" stroke="midnightblue" d="M217.97,-280.34C196.22,-258.68 154.82,-217.45 132.1,-194.83"/>
<polygon fill="midnightblue" stroke="midnightblue" points="134.46,-192.25 124.9,-187.67 129.52,-197.21 134.46,-192.25"/>
</g>
<!-- Node10 -->
<g id="node10" class="node">
<title>Node10</title>
<g id="a_node10"><a xlink:href="point_8h.html" target="_top" xlink:title=" ">
<polygon fill="white" stroke="black" points="191.2,-168.5 191.2,-187.5 241.2,-187.5 241.2,-168.5 191.2,-168.5"/>
<text text-anchor="middle" x="216.2" y="-175.5" font-family="Arial" font-size="10.00">point.h</text>
</a>
</g>
</g>
<!-- Node1&#45;&gt;Node10 -->
<g id="edge14" class="edge">
<title>Node1&#45;&gt;Node10</title>
<path fill="none" stroke="midnightblue" d="M225.64,-280.27C221.44,-270.34 216.38,-256.66 214.2,-244 211.55,-228.68 212.33,-211.04 213.61,-198.01"/>
<polygon fill="midnightblue" stroke="midnightblue" points="217.11,-198.25 214.8,-187.91 210.15,-197.43 217.11,-198.25"/>
</g>
<!-- Node13 -->
<g id="node13" class="node">
<title>Node13</title>
<g id="a_node13"><a xlink:href="size_8h.html" target="_top" xlink:title=" ">
<polygon fill="white" stroke="black" points="309.7,-168.5 309.7,-187.5 354.7,-187.5 354.7,-168.5 309.7,-168.5"/>
<text text-anchor="middle" x="332.2" y="-175.5" font-family="Arial" font-size="10.00">size.h</text>
</a>
</g>
</g>
<!-- Node1&#45;&gt;Node13 -->
<g id="edge19" class="edge">
<title>Node1&#45;&gt;Node13</title>
<path fill="none" stroke="midnightblue" d="M276.39,-280.36C294.05,-272.46 312.85,-260.74 324.2,-244 333.27,-230.62 334.73,-212.05 334.24,-198.18"/>
<polygon fill="midnightblue" stroke="midnightblue" points="337.7,-197.58 333.49,-187.86 330.72,-198.09 337.7,-197.58"/>
</g>
<!-- Node14 -->
<g id="node14" class="node">
<title>Node14</title>
<g id="a_node14"><a xlink:href="displacement_8h.html" target="_top" xlink:title=" ">
<polygon fill="white" stroke="black" points="223.2,-224.5 223.2,-243.5 315.2,-243.5 315.2,-224.5 223.2,-224.5"/>
<text text-anchor="middle" x="269.2" y="-231.5" font-family="Arial" font-size="10.00">displacement.h</text>
</a>
</g>
</g>
<!-- Node1&#45;&gt;Node14 -->
<g id="edge22" class="edge">
<title>Node1&#45;&gt;Node14</title>
<path fill="none" stroke="midnightblue" d="M240.96,-280.4C246.17,-272.02 252.82,-261.33 258.36,-252.42"/>
<polygon fill="midnightblue" stroke="midnightblue" points="261.5,-254 263.81,-243.66 255.56,-250.3 261.5,-254"/>
</g>
<!-- Node3 -->
<g id="node3" class="node">
<title>Node3</title>
<g id="a_node3"><a xlink:href="point__generic_8h.html" target="_top" xlink:title=" ">
<polygon fill="white" stroke="black" points="14.2,-112.5 14.2,-131.5 106.2,-131.5 106.2,-112.5 14.2,-112.5"/>
<text text-anchor="middle" x="60.2" y="-119.5" font-family="Arial" font-size="10.00">point_generic.h</text>
</a>
</g>
</g>
<!-- Node2&#45;&gt;Node3 -->
<g id="edge2" class="edge">
<title>Node2&#45;&gt;Node3</title>
<path fill="none" stroke="midnightblue" d="M107.2,-168.32C99,-160.42 86.69,-148.55 76.72,-138.94"/>
<polygon fill="midnightblue" stroke="midnightblue" points="78.98,-136.26 69.36,-131.83 74.13,-141.29 78.98,-136.26"/>
</g>
<!-- Node7 -->
<g id="node7" class="node">
<title>Node7</title>
<g id="a_node7"><a xlink:title=" ">
<polygon fill="white" stroke="#bfbfbf" points="102.7,-56.5 102.7,-75.5 159.7,-75.5 159.7,-56.5 102.7,-56.5"/>
<text text-anchor="middle" x="131.2" y="-63.5" font-family="Arial" font-size="10.00">ostream</text>
</a>
</g>
</g>
<!-- Node2&#45;&gt;Node7 -->
<g id="edge13" class="edge">
<title>Node2&#45;&gt;Node7</title>
<path fill="none" stroke="midnightblue" d="M71.28,-168.49C32.21,-158.96 -15.19,-140.93 5.2,-112 24.83,-84.15 63.34,-73.44 92.64,-69.37"/>
<polygon fill="midnightblue" stroke="midnightblue" points="93.06,-72.85 102.58,-68.19 92.23,-65.9 93.06,-72.85"/>
</g>
<!-- Node8 -->
<g id="node8" class="node">
<title>Node8</title>
<g id="a_node8"><a xlink:href="size__generic_8h.html" target="_top" xlink:title=" ">
<polygon fill="white" stroke="black" points="276.2,-112.5 276.2,-131.5 362.2,-131.5 362.2,-112.5 276.2,-112.5"/>
<text text-anchor="middle" x="319.2" y="-119.5" font-family="Arial" font-size="10.00">size_generic.h</text>
</a>
</g>
</g>
<!-- Node2&#45;&gt;Node8 -->
<g id="edge7" class="edge">
<title>Node2&#45;&gt;Node8</title>
<path fill="none" stroke="midnightblue" d="M148.36,-168.44C183.25,-159.16 239.09,-144.31 277.37,-134.13"/>
<polygon fill="midnightblue" stroke="midnightblue" points="278.42,-137.47 287.18,-131.52 276.62,-130.7 278.42,-137.47"/>
</g>
<!-- Node9 -->
<g id="node9" class="node">
<title>Node9</title>
<g id="a_node9"><a xlink:href="displacement__generic_8h.html" target="_top" xlink:title=" ">
<polygon fill="white" stroke="black" points="124.7,-112.5 124.7,-131.5 257.7,-131.5 257.7,-112.5 124.7,-112.5"/>
<text text-anchor="middle" x="191.2" y="-119.5" font-family="Arial" font-size="10.00">displacement_generic.h</text>
</a>
</g>
</g>
<!-- Node2&#45;&gt;Node9 -->
<g id="edge10" class="edge">
<title>Node2&#45;&gt;Node9</title>
<path fill="none" stroke="midnightblue" d="M128.25,-168.32C139.66,-160.11 157.03,-147.6 170.63,-137.81"/>
<polygon fill="midnightblue" stroke="midnightblue" points="172.86,-140.52 178.93,-131.83 168.77,-134.84 172.86,-140.52"/>
</g>
<!-- Node4 -->
<g id="node4" class="node">
<title>Node4</title>
<g id="a_node4"><a xlink:href="dimensions__generic_8h.html" target="_top" xlink:title=" ">
<polygon fill="white" stroke="black" points="188.7,-56.5 188.7,-75.5 311.7,-75.5 311.7,-56.5 188.7,-56.5"/>
<text text-anchor="middle" x="250.2" y="-63.5" font-family="Arial" font-size="10.00">dimensions_generic.h</text>
</a>
</g>
</g>
<!-- Node3&#45;&gt;Node4 -->
<g id="edge3" class="edge">
<title>Node3&#45;&gt;Node4</title>
<path fill="none" stroke="midnightblue" d="M90.3,-112.44C122.82,-103.2 174.77,-88.44 210.59,-78.26"/>
<polygon fill="midnightblue" stroke="midnightblue" points="211.57,-81.62 220.23,-75.52 209.65,-74.88 211.57,-81.62"/>
</g>
<!-- Node3&#45;&gt;Node7 -->
<g id="edge6" class="edge">
<title>Node3&#45;&gt;Node7</title>
<path fill="none" stroke="midnightblue" d="M71.6,-112.32C82.3,-104.18 98.54,-91.84 111.36,-82.09"/>
<polygon fill="midnightblue" stroke="midnightblue" points="113.74,-84.67 119.58,-75.83 109.5,-79.1 113.74,-84.67"/>
</g>
<!-- Node5 -->
<g id="node5" class="node">
<title>Node5</title>
<g id="a_node5"><a xlink:title=" ">
<polygon fill="white" stroke="#bfbfbf" points="187.2,-0.5 187.2,-19.5 235.2,-19.5 235.2,-0.5 187.2,-0.5"/>
<text text-anchor="middle" x="211.2" y="-7.5" font-family="Arial" font-size="10.00">iosfwd</text>
</a>
</g>
</g>
<!-- Node4&#45;&gt;Node5 -->
<g id="edge4" class="edge">
<title>Node4&#45;&gt;Node5</title>
<path fill="none" stroke="midnightblue" d="M243.76,-56.08C238.25,-48.46 230.16,-37.26 223.43,-27.94"/>
<polygon fill="midnightblue" stroke="midnightblue" points="226.21,-25.81 217.52,-19.75 220.53,-29.91 226.21,-25.81"/>
</g>
<!-- Node6 -->
<g id="node6" class="node">
<title>Node6</title>
<g id="a_node6"><a xlink:title=" ">
<polygon fill="white" stroke="#bfbfbf" points="253.7,-0.5 253.7,-19.5 322.7,-19.5 322.7,-0.5 253.7,-0.5"/>
<text text-anchor="middle" x="288.2" y="-7.5" font-family="Arial" font-size="10.00">type_traits</text>
</a>
</g>
</g>
<!-- Node4&#45;&gt;Node6 -->
<g id="edge5" class="edge">
<title>Node4&#45;&gt;Node6</title>
<path fill="none" stroke="midnightblue" d="M256.47,-56.08C261.84,-48.46 269.71,-37.26 276.27,-27.94"/>
<polygon fill="midnightblue" stroke="midnightblue" points="279.14,-29.94 282.04,-19.75 273.42,-25.91 279.14,-29.94"/>
</g>
<!-- Node8&#45;&gt;Node4 -->
<g id="edge8" class="edge">
<title>Node8&#45;&gt;Node4</title>
<path fill="none" stroke="midnightblue" d="M308.11,-112.32C297.71,-104.18 281.93,-91.84 269.47,-82.09"/>
<polygon fill="midnightblue" stroke="midnightblue" points="271.52,-79.24 261.48,-75.83 267.2,-84.75 271.52,-79.24"/>
</g>
<!-- Node8&#45;&gt;Node7 -->
<g id="edge9" class="edge">
<title>Node8&#45;&gt;Node7</title>
<path fill="none" stroke="midnightblue" d="M289.41,-112.44C257.08,-103.16 205.36,-88.3 169.91,-78.12"/>
<polygon fill="midnightblue" stroke="midnightblue" points="170.5,-74.65 159.92,-75.25 168.57,-81.38 170.5,-74.65"/>
</g>
<!-- Node9&#45;&gt;Node4 -->
<g id="edge11" class="edge">
<title>Node9&#45;&gt;Node4</title>
<path fill="none" stroke="midnightblue" d="M200.67,-112.32C209.4,-104.34 222.54,-92.31 233.09,-82.65"/>
<polygon fill="midnightblue" stroke="midnightblue" points="235.53,-85.17 240.54,-75.83 230.8,-80 235.53,-85.17"/>
</g>
<!-- Node9&#45;&gt;Node7 -->
<g id="edge12" class="edge">
<title>Node9&#45;&gt;Node7</title>
<path fill="none" stroke="midnightblue" d="M181.56,-112.32C172.69,-104.34 159.32,-92.31 148.59,-82.65"/>
<polygon fill="midnightblue" stroke="midnightblue" points="150.79,-79.92 141.01,-75.83 146.1,-85.13 150.79,-79.92"/>
</g>
<!-- Node10&#45;&gt;Node3 -->
<g id="edge15" class="edge">
<title>Node10&#45;&gt;Node3</title>
<path fill="none" stroke="midnightblue" d="M191.48,-168.44C165.35,-159.4 123.94,-145.06 94.62,-134.92"/>
<polygon fill="midnightblue" stroke="midnightblue" points="95.39,-131.48 84.8,-131.52 93.1,-138.1 95.39,-131.48"/>
</g>
<!-- Node11 -->
<g id="node11" class="node">
<title>Node11</title>
<g id="a_node11"><a xlink:href="dimensions_8h.html" target="_top" xlink:title=" ">
<polygon fill="white" stroke="black" points="380.2,-112.5 380.2,-131.5 462.2,-131.5 462.2,-112.5 380.2,-112.5"/>
<text text-anchor="middle" x="421.2" y="-119.5" font-family="Arial" font-size="10.00">dimensions.h</text>
</a>
</g>
</g>
<!-- Node10&#45;&gt;Node11 -->
<g id="edge16" class="edge">
<title>Node10&#45;&gt;Node11</title>
<path fill="none" stroke="midnightblue" d="M241.33,-170.38C275.61,-161.35 337.47,-145.05 378.94,-134.13"/>
<polygon fill="midnightblue" stroke="midnightblue" points="379.98,-137.48 388.76,-131.55 378.19,-130.71 379.98,-137.48"/>
</g>
<!-- Node11&#45;&gt;Node4 -->
<g id="edge17" class="edge">
<title>Node11&#45;&gt;Node4</title>
<path fill="none" stroke="midnightblue" d="M394.1,-112.44C365.21,-103.32 319.27,-88.81 287.09,-78.65"/>
<polygon fill="midnightblue" stroke="midnightblue" points="287.75,-75.19 277.16,-75.52 285.65,-81.87 287.75,-75.19"/>
</g>
<!-- Node12 -->
<g id="node12" class="node">
<title>Node12</title>
<g id="a_node12"><a xlink:title=" ">
<polygon fill="white" stroke="#bfbfbf" points="396.2,-56.5 396.2,-75.5 446.2,-75.5 446.2,-56.5 396.2,-56.5"/>
<text text-anchor="middle" x="421.2" y="-63.5" font-family="Arial" font-size="10.00">cstdint</text>
</a>
</g>
</g>
<!-- Node11&#45;&gt;Node12 -->
<g id="edge18" class="edge">
<title>Node11&#45;&gt;Node12</title>
<path fill="none" stroke="midnightblue" d="M421.2,-112.08C421.2,-105.01 421.2,-94.86 421.2,-85.99"/>
<polygon fill="midnightblue" stroke="midnightblue" points="424.7,-85.75 421.2,-75.75 417.7,-85.75 424.7,-85.75"/>
</g>
<!-- Node13&#45;&gt;Node8 -->
<g id="edge20" class="edge">
<title>Node13&#45;&gt;Node8</title>
<path fill="none" stroke="midnightblue" d="M330.05,-168.08C328.33,-160.93 325.85,-150.64 323.7,-141.69"/>
<polygon fill="midnightblue" stroke="midnightblue" points="327.05,-140.65 321.3,-131.75 320.24,-142.29 327.05,-140.65"/>
</g>
<!-- Node13&#45;&gt;Node11 -->
<g id="edge21" class="edge">
<title>Node13&#45;&gt;Node11</title>
<path fill="none" stroke="midnightblue" d="M346.49,-168.32C360.38,-159.9 381.69,-146.97 398,-137.07"/>
<polygon fill="midnightblue" stroke="midnightblue" points="400.2,-139.83 406.93,-131.65 396.57,-133.85 400.2,-139.83"/>
</g>
<!-- Node14&#45;&gt;Node9 -->
<g id="edge23" class="edge">
<title>Node14&#45;&gt;Node9</title>
<path fill="none" stroke="midnightblue" d="M268.39,-224.27C266.8,-211.05 262.31,-185.64 250.2,-168 241.48,-155.31 228.04,-144.66 216.19,-136.91"/>
<polygon fill="midnightblue" stroke="midnightblue" points="217.88,-133.84 207.54,-131.56 214.2,-139.8 217.88,-133.84"/>
</g>
<!-- Node14&#45;&gt;Node10 -->
<g id="edge25" class="edge">
<title>Node14&#45;&gt;Node10</title>
<path fill="none" stroke="midnightblue" d="M260.44,-224.08C252.73,-216.22 241.29,-204.57 231.98,-195.08"/>
<polygon fill="midnightblue" stroke="midnightblue" points="234.29,-192.44 224.78,-187.75 229.29,-197.34 234.29,-192.44"/>
</g>
<!-- Node14&#45;&gt;Node11 -->
<g id="edge24" class="edge">
<title>Node14&#45;&gt;Node11</title>
<path fill="none" stroke="midnightblue" d="M293.44,-224.47C313.34,-216.78 341.64,-204.19 363.2,-188 381.45,-174.29 398.34,-154.15 409.13,-139.93"/>
<polygon fill="midnightblue" stroke="midnightblue" points="412.18,-141.69 415.29,-131.57 406.54,-137.54 412.18,-141.69"/>
</g>
<!-- Node14&#45;&gt;Node13 -->
<g id="edge26" class="edge">
<title>Node14&#45;&gt;Node13</title>
<path fill="none" stroke="midnightblue" d="M279.32,-224.32C288.72,-216.26 302.94,-204.08 314.26,-194.37"/>
<polygon fill="midnightblue" stroke="midnightblue" points="316.57,-197 321.89,-187.83 312.02,-191.68 316.57,-197"/>
</g>
</g>
</svg>
