<?xml version="1.0" encoding="UTF-8" standalone="no"?>
<!DOCTYPE svg PUBLIC "-//W3C//DTD SVG 1.1//EN"
 "http://www.w3.org/Graphics/SVG/1.1/DTD/svg11.dtd">
<!-- Generated by graphviz version 2.43.0 (0)
 -->
<!-- Title: include/core/mir/geometry/rectangles.h Pages: 1 -->
<svg width="470pt" height="375pt"
 viewBox="0.00 0.00 469.77 375.00" xmlns="http://www.w3.org/2000/svg" xmlns:xlink="http://www.w3.org/1999/xlink">
<g id="graph0" class="graph" transform="scale(1 1) rotate(0) translate(4 371)">
<title>include/core/mir/geometry/rectangles.h</title>
<polygon fill="white" stroke="transparent" points="-4,4 -4,-371 465.77,-371 465.77,4 -4,4"/>
<!-- Node1 -->
<g id="node1" class="node">
<title>Node1</title>
<g id="a_node1"><a xlink:title=" ">
<polygon fill="#bfbfbf" stroke="black" points="177,-336.5 177,-366.5 323,-366.5 323,-336.5 177,-336.5"/>
<text text-anchor="start" x="185" y="-354.5" font-family="Arial" font-size="10.00">include/core/mir/geometry</text>
<text text-anchor="middle" x="250" y="-343.5" font-family="Arial" font-size="10.00">/rectangles.h</text>
</a>
</g>
</g>
<!-- Node2 -->
<g id="node2" class="node">
<title>Node2</title>
<g id="a_node2"><a xlink:href="point_8h.html" target="_top" xlink:title=" ">
<polygon fill="white" stroke="black" points="26,-168.5 26,-187.5 146,-187.5 146,-168.5 26,-168.5"/>
<text text-anchor="middle" x="86" y="-175.5" font-family="Arial" font-size="10.00">mir/geometry/point.h</text>
</a>
</g>
</g>
<!-- Node1&#45;&gt;Node2 -->
<g id="edge1" class="edge">
<title>Node1&#45;&gt;Node2</title>
<path fill="none" stroke="midnightblue" d="M176.8,-337.6C153.81,-330.16 130.22,-318.44 114,-300 88.57,-271.09 84.99,-223.63 85.16,-197.58"/>
<polygon fill="midnightblue" stroke="midnightblue" points="88.66,-197.63 85.42,-187.54 81.66,-197.45 88.66,-197.63"/>
</g>
<!-- Node10 -->
<g id="node10" class="node">
<title>Node10</title>
<g id="a_node10"><a xlink:href="rectangle_8h.html" target="_top" xlink:title=" ">
<polygon fill="white" stroke="black" points="123.5,-280.5 123.5,-299.5 264.5,-299.5 264.5,-280.5 123.5,-280.5"/>
<text text-anchor="middle" x="194" y="-287.5" font-family="Arial" font-size="10.00">mir/geometry/rectangle.h</text>
</a>
</g>
</g>
<!-- Node1&#45;&gt;Node10 -->
<g id="edge10" class="edge">
<title>Node1&#45;&gt;Node10</title>
<path fill="none" stroke="midnightblue" d="M236.73,-336.4C228.42,-327.58 217.7,-316.18 209.08,-307.02"/>
<polygon fill="midnightblue" stroke="midnightblue" points="211.55,-304.54 202.15,-299.66 206.45,-309.34 211.55,-304.54"/>
</g>
<!-- Node16 -->
<g id="node16" class="node">
<title>Node16</title>
<g id="a_node16"><a xlink:title=" ">
<polygon fill="white" stroke="#bfbfbf" points="282.5,-280.5 282.5,-299.5 329.5,-299.5 329.5,-280.5 282.5,-280.5"/>
<text text-anchor="middle" x="306" y="-287.5" font-family="Arial" font-size="10.00">vector</text>
</a>
</g>
</g>
<!-- Node1&#45;&gt;Node16 -->
<g id="edge29" class="edge">
<title>Node1&#45;&gt;Node16</title>
<path fill="none" stroke="midnightblue" d="M263.27,-336.4C271.58,-327.58 282.3,-316.18 290.92,-307.02"/>
<polygon fill="midnightblue" stroke="midnightblue" points="293.55,-309.34 297.85,-299.66 288.45,-304.54 293.55,-309.34"/>
</g>
<!-- Node17 -->
<g id="node17" class="node">
<title>Node17</title>
<g id="a_node17"><a xlink:title=" ">
<polygon fill="white" stroke="#bfbfbf" points="347.5,-280.5 347.5,-299.5 430.5,-299.5 430.5,-280.5 347.5,-280.5"/>
<text text-anchor="middle" x="389" y="-287.5" font-family="Arial" font-size="10.00">initializer_list</text>
</a>
</g>
</g>
<!-- Node1&#45;&gt;Node17 -->
<g id="edge30" class="edge">
<title>Node1&#45;&gt;Node17</title>
<path fill="none" stroke="midnightblue" d="M282.94,-336.4C306.16,-326.46 336.99,-313.26 359.42,-303.66"/>
<polygon fill="midnightblue" stroke="midnightblue" points="360.96,-306.81 368.77,-299.66 358.2,-300.38 360.96,-306.81"/>
</g>
<!-- Node3 -->
<g id="node3" class="node">
<title>Node3</title>
<g id="a_node3"><a xlink:href="point__generic_8h.html" target="_top" xlink:title=" ">
<polygon fill="white" stroke="black" points="100,-112.5 100,-131.5 192,-131.5 192,-112.5 100,-112.5"/>
<text text-anchor="middle" x="146" y="-119.5" font-family="Arial" font-size="10.00">point_generic.h</text>
</a>
</g>
</g>
<!-- Node2&#45;&gt;Node3 -->
<g id="edge2" class="edge">
<title>Node2&#45;&gt;Node3</title>
<path fill="none" stroke="midnightblue" d="M95.64,-168.32C104.51,-160.34 117.87,-148.31 128.61,-138.65"/>
<polygon fill="midnightblue" stroke="midnightblue" points="131.09,-141.13 136.18,-131.83 126.41,-135.92 131.09,-141.13"/>
</g>
<!-- Node8 -->
<g id="node8" class="node">
<title>Node8</title>
<g id="a_node8"><a xlink:href="dimensions_8h.html" target="_top" xlink:title=" ">
<polygon fill="white" stroke="black" points="0,-112.5 0,-131.5 82,-131.5 82,-112.5 0,-112.5"/>
<text text-anchor="middle" x="41" y="-119.5" font-family="Arial" font-size="10.00">dimensions.h</text>
</a>
</g>
</g>
<!-- Node2&#45;&gt;Node8 -->
<g id="edge7" class="edge">
<title>Node2&#45;&gt;Node8</title>
<path fill="none" stroke="midnightblue" d="M78.57,-168.08C72.15,-160.38 62.69,-149.03 54.88,-139.65"/>
<polygon fill="midnightblue" stroke="midnightblue" points="57.38,-137.19 48.29,-131.75 52.01,-141.67 57.38,-137.19"/>
</g>
<!-- Node4 -->
<g id="node4" class="node">
<title>Node4</title>
<g id="a_node4"><a xlink:href="dimensions__generic_8h.html" target="_top" xlink:title=" ">
<polygon fill="white" stroke="black" points="155.5,-56.5 155.5,-75.5 278.5,-75.5 278.5,-56.5 155.5,-56.5"/>
<text text-anchor="middle" x="217" y="-63.5" font-family="Arial" font-size="10.00">dimensions_generic.h</text>
</a>
</g>
</g>
<!-- Node3&#45;&gt;Node4 -->
<g id="edge3" class="edge">
<title>Node3&#45;&gt;Node4</title>
<path fill="none" stroke="midnightblue" d="M157.41,-112.32C168.11,-104.18 184.34,-91.84 197.16,-82.09"/>
<polygon fill="midnightblue" stroke="midnightblue" points="199.54,-84.67 205.39,-75.83 195.31,-79.1 199.54,-84.67"/>
</g>
<!-- Node7 -->
<g id="node7" class="node">
<title>Node7</title>
<g id="a_node7"><a xlink:title=" ">
<polygon fill="white" stroke="#bfbfbf" points="307.5,-56.5 307.5,-75.5 364.5,-75.5 364.5,-56.5 307.5,-56.5"/>
<text text-anchor="middle" x="336" y="-63.5" font-family="Arial" font-size="10.00">ostream</text>
</a>
</g>
</g>
<!-- Node3&#45;&gt;Node7 -->
<g id="edge6" class="edge">
<title>Node3&#45;&gt;Node7</title>
<path fill="none" stroke="midnightblue" d="M176.11,-112.44C209.01,-103.09 261.8,-88.09 297.65,-77.9"/>
<polygon fill="midnightblue" stroke="midnightblue" points="298.62,-81.26 307.28,-75.16 296.7,-74.53 298.62,-81.26"/>
</g>
<!-- Node5 -->
<g id="node5" class="node">
<title>Node5</title>
<g id="a_node5"><a xlink:title=" ">
<polygon fill="white" stroke="#bfbfbf" points="154,-0.5 154,-19.5 202,-19.5 202,-0.5 154,-0.5"/>
<text text-anchor="middle" x="178" y="-7.5" font-family="Arial" font-size="10.00">iosfwd</text>
</a>
</g>
</g>
<!-- Node4&#45;&gt;Node5 -->
<g id="edge4" class="edge">
<title>Node4&#45;&gt;Node5</title>
<path fill="none" stroke="midnightblue" d="M210.56,-56.08C205.05,-48.46 196.97,-37.26 190.24,-27.94"/>
<polygon fill="midnightblue" stroke="midnightblue" points="193.01,-25.81 184.32,-19.75 187.34,-29.91 193.01,-25.81"/>
</g>
<!-- Node6 -->
<g id="node6" class="node">
<title>Node6</title>
<g id="a_node6"><a xlink:title=" ">
<polygon fill="white" stroke="#bfbfbf" points="220.5,-0.5 220.5,-19.5 289.5,-19.5 289.5,-0.5 220.5,-0.5"/>
<text text-anchor="middle" x="255" y="-7.5" font-family="Arial" font-size="10.00">type_traits</text>
</a>
</g>
</g>
<!-- Node4&#45;&gt;Node6 -->
<g id="edge5" class="edge">
<title>Node4&#45;&gt;Node6</title>
<path fill="none" stroke="midnightblue" d="M223.27,-56.08C228.64,-48.46 236.52,-37.26 243.08,-27.94"/>
<polygon fill="midnightblue" stroke="midnightblue" points="245.95,-29.94 248.84,-19.75 240.22,-25.91 245.95,-29.94"/>
</g>
<!-- Node8&#45;&gt;Node4 -->
<g id="edge8" class="edge">
<title>Node8&#45;&gt;Node4</title>
<path fill="none" stroke="midnightblue" d="M68.89,-112.44C98.75,-103.28 146.31,-88.69 179.46,-78.52"/>
<polygon fill="midnightblue" stroke="midnightblue" points="180.71,-81.8 189.24,-75.52 178.66,-75.1 180.71,-81.8"/>
</g>
<!-- Node9 -->
<g id="node9" class="node">
<title>Node9</title>
<g id="a_node9"><a xlink:title=" ">
<polygon fill="white" stroke="#bfbfbf" points="16,-56.5 16,-75.5 66,-75.5 66,-56.5 16,-56.5"/>
<text text-anchor="middle" x="41" y="-63.5" font-family="Arial" font-size="10.00">cstdint</text>
</a>
</g>
</g>
<!-- Node8&#45;&gt;Node9 -->
<g id="edge9" class="edge">
<title>Node8&#45;&gt;Node9</title>
<path fill="none" stroke="midnightblue" d="M41,-112.08C41,-105.01 41,-94.86 41,-85.99"/>
<polygon fill="midnightblue" stroke="midnightblue" points="44.5,-85.75 41,-75.75 37.5,-85.75 44.5,-85.75"/>
</g>
<!-- Node10&#45;&gt;Node2 -->
<g id="edge20" class="edge">
<title>Node10&#45;&gt;Node2</title>
<path fill="none" stroke="midnightblue" d="M182.05,-280.33C170.49,-271.7 152.77,-257.8 139,-244 123.95,-228.93 108.8,-209.86 98.58,-196.29"/>
<polygon fill="midnightblue" stroke="midnightblue" points="101.11,-193.83 92.34,-187.88 95.49,-198 101.11,-193.83"/>
</g>
<!-- Node11 -->
<g id="node11" class="node">
<title>Node11</title>
<g id="a_node11"><a xlink:href="rectangle__generic_8h.html" target="_top" xlink:title=" ">
<polygon fill="white" stroke="black" points="303.5,-168.5 303.5,-187.5 416.5,-187.5 416.5,-168.5 303.5,-168.5"/>
<text text-anchor="middle" x="360" y="-175.5" font-family="Arial" font-size="10.00">rectangle_generic.h</text>
</a>
</g>
</g>
<!-- Node10&#45;&gt;Node11 -->
<g id="edge11" class="edge">
<title>Node10&#45;&gt;Node11</title>
<path fill="none" stroke="midnightblue" d="M208.65,-280.5C223.71,-271.66 247.76,-257.28 268,-244 293.29,-227.4 321.61,-207.13 340.06,-193.68"/>
<polygon fill="midnightblue" stroke="midnightblue" points="342.27,-196.41 348.27,-187.68 338.13,-190.76 342.27,-196.41"/>
</g>
<!-- Node14 -->
<g id="node14" class="node">
<title>Node14</title>
<g id="a_node14"><a xlink:href="size_8h.html" target="_top" xlink:title=" ">
<polygon fill="white" stroke="black" points="240.5,-168.5 240.5,-187.5 285.5,-187.5 285.5,-168.5 240.5,-168.5"/>
<text text-anchor="middle" x="263" y="-175.5" font-family="Arial" font-size="10.00">size.h</text>
</a>
</g>
</g>
<!-- Node10&#45;&gt;Node14 -->
<g id="edge21" class="edge">
<title>Node10&#45;&gt;Node14</title>
<path fill="none" stroke="midnightblue" d="M209.52,-280.37C222.13,-272.53 239.35,-259.79 249,-244 257.56,-230 260.93,-211.5 262.23,-197.81"/>
<polygon fill="midnightblue" stroke="midnightblue" points="265.74,-197.87 262.91,-187.66 258.75,-197.4 265.74,-197.87"/>
</g>
<!-- Node15 -->
<g id="node15" class="node">
<title>Node15</title>
<g id="a_node15"><a xlink:href="displacement_8h.html" target="_top" xlink:title=" ">
<polygon fill="white" stroke="black" points="148,-224.5 148,-243.5 240,-243.5 240,-224.5 148,-224.5"/>
<text text-anchor="middle" x="194" y="-231.5" font-family="Arial" font-size="10.00">displacement.h</text>
</a>
</g>
</g>
<!-- Node10&#45;&gt;Node15 -->
<g id="edge24" class="edge">
<title>Node10&#45;&gt;Node15</title>
<path fill="none" stroke="midnightblue" d="M194,-280.08C194,-273.01 194,-262.86 194,-253.99"/>
<polygon fill="midnightblue" stroke="midnightblue" points="197.5,-253.75 194,-243.75 190.5,-253.75 197.5,-253.75"/>
</g>
<!-- Node11&#45;&gt;Node3 -->
<g id="edge12" class="edge">
<title>Node11&#45;&gt;Node3</title>
<path fill="none" stroke="midnightblue" d="M326.09,-168.44C289.15,-159.12 229.95,-144.18 189.58,-134"/>
<polygon fill="midnightblue" stroke="midnightblue" points="190.3,-130.57 179.75,-131.52 188.59,-137.36 190.3,-130.57"/>
</g>
<!-- Node11&#45;&gt;Node7 -->
<g id="edge19" class="edge">
<title>Node11&#45;&gt;Node7</title>
<path fill="none" stroke="midnightblue" d="M395.93,-168.43C430.83,-158.3 475.97,-139.3 457,-112 438.63,-85.56 402.77,-74.63 374.84,-70.12"/>
<polygon fill="midnightblue" stroke="midnightblue" points="374.97,-66.6 364.58,-68.69 374,-73.53 374.97,-66.6"/>
</g>
<!-- Node12 -->
<g id="node12" class="node">
<title>Node12</title>
<g id="a_node12"><a xlink:href="size__generic_8h.html" target="_top" xlink:title=" ">
<polygon fill="white" stroke="black" points="362,-112.5 362,-131.5 448,-131.5 448,-112.5 362,-112.5"/>
<text text-anchor="middle" x="405" y="-119.5" font-family="Arial" font-size="10.00">size_generic.h</text>
</a>
</g>
</g>
<!-- Node11&#45;&gt;Node12 -->
<g id="edge13" class="edge">
<title>Node11&#45;&gt;Node12</title>
<path fill="none" stroke="midnightblue" d="M367.43,-168.08C373.85,-160.38 383.31,-149.03 391.12,-139.65"/>
<polygon fill="midnightblue" stroke="midnightblue" points="393.99,-141.67 397.71,-131.75 388.62,-137.19 393.99,-141.67"/>
</g>
<!-- Node13 -->
<g id="node13" class="node">
<title>Node13</title>
<g id="a_node13"><a xlink:href="displacement__generic_8h.html" target="_top" xlink:title=" ">
<polygon fill="white" stroke="black" points="210.5,-112.5 210.5,-131.5 343.5,-131.5 343.5,-112.5 210.5,-112.5"/>
<text text-anchor="middle" x="277" y="-119.5" font-family="Arial" font-size="10.00">displacement_generic.h</text>
</a>
</g>
</g>
<!-- Node11&#45;&gt;Node13 -->
<g id="edge16" class="edge">
<title>Node11&#45;&gt;Node13</title>
<path fill="none" stroke="midnightblue" d="M346.66,-168.32C333.84,-159.98 314.22,-147.21 299.06,-137.35"/>
<polygon fill="midnightblue" stroke="midnightblue" points="300.59,-134.17 290.3,-131.65 296.78,-140.04 300.59,-134.17"/>
</g>
<!-- Node12&#45;&gt;Node4 -->
<g id="edge14" class="edge">
<title>Node12&#45;&gt;Node4</title>
<path fill="none" stroke="midnightblue" d="M375.21,-112.44C343.17,-103.24 292.07,-88.56 256.65,-78.39"/>
<polygon fill="midnightblue" stroke="midnightblue" points="257.23,-74.91 246.65,-75.52 255.29,-81.64 257.23,-74.91"/>
</g>
<!-- Node12&#45;&gt;Node7 -->
<g id="edge15" class="edge">
<title>Node12&#45;&gt;Node7</title>
<path fill="none" stroke="midnightblue" d="M393.91,-112.32C383.51,-104.18 367.74,-91.84 355.28,-82.09"/>
<polygon fill="midnightblue" stroke="midnightblue" points="357.32,-79.24 347.29,-75.83 353.01,-84.75 357.32,-79.24"/>
</g>
<!-- Node13&#45;&gt;Node4 -->
<g id="edge17" class="edge">
<title>Node13&#45;&gt;Node4</title>
<path fill="none" stroke="midnightblue" d="M267.36,-112.32C258.49,-104.34 245.13,-92.31 234.39,-82.65"/>
<polygon fill="midnightblue" stroke="midnightblue" points="236.59,-79.92 226.82,-75.83 231.91,-85.13 236.59,-79.92"/>
</g>
<!-- Node13&#45;&gt;Node7 -->
<g id="edge18" class="edge">
<title>Node13&#45;&gt;Node7</title>
<path fill="none" stroke="midnightblue" d="M286.48,-112.32C295.2,-104.34 308.34,-92.31 318.9,-82.65"/>
<polygon fill="midnightblue" stroke="midnightblue" points="321.33,-85.17 326.35,-75.83 316.61,-80 321.33,-85.17"/>
</g>
<!-- Node14&#45;&gt;Node8 -->
<g id="edge23" class="edge">
<title>Node14&#45;&gt;Node8</title>
<path fill="none" stroke="midnightblue" d="M240.49,-171.53C204.45,-162.76 133.07,-145.39 86.19,-133.99"/>
<polygon fill="midnightblue" stroke="midnightblue" points="86.84,-130.55 76.29,-131.59 85.18,-137.35 86.84,-130.55"/>
</g>
<!-- Node14&#45;&gt;Node12 -->
<g id="edge22" class="edge">
<title>Node14&#45;&gt;Node12</title>
<path fill="none" stroke="midnightblue" d="M285.5,-168.44C309.08,-159.48 346.32,-145.31 372.96,-135.18"/>
<polygon fill="midnightblue" stroke="midnightblue" points="374.5,-138.34 382.6,-131.52 372.01,-131.8 374.5,-138.34"/>
</g>
<!-- Node15&#45;&gt;Node2 -->
<g id="edge27" class="edge">
<title>Node15&#45;&gt;Node2</title>
<path fill="none" stroke="midnightblue" d="M176.65,-224.32C159.33,-215.66 132.48,-202.24 112.5,-192.25"/>
<polygon fill="midnightblue" stroke="midnightblue" points="113.82,-189 103.31,-187.65 110.69,-195.26 113.82,-189"/>
</g>
<!-- Node15&#45;&gt;Node8 -->
<g id="edge26" class="edge">
<title>Node15&#45;&gt;Node8</title>
<path fill="none" stroke="midnightblue" d="M190.86,-224.18C185.54,-210.39 173.47,-183.66 155,-168 136.28,-152.13 111.29,-141.43 89.48,-134.45"/>
<polygon fill="midnightblue" stroke="midnightblue" points="90.3,-131.05 79.71,-131.51 88.27,-137.75 90.3,-131.05"/>
</g>
<!-- Node15&#45;&gt;Node13 -->
<g id="edge25" class="edge">
<title>Node15&#45;&gt;Node13</title>
<path fill="none" stroke="midnightblue" d="M198.07,-224.11C204.23,-211.12 216.73,-186.51 231,-168 239.25,-157.3 249.98,-146.66 259,-138.42"/>
<polygon fill="midnightblue" stroke="midnightblue" points="261.53,-140.85 266.68,-131.59 256.88,-135.62 261.53,-140.85"/>
</g>
<!-- Node15&#45;&gt;Node14 -->
<g id="edge28" class="edge">
<title>Node15&#45;&gt;Node14</title>
<path fill="none" stroke="midnightblue" d="M205.09,-224.32C215.49,-216.18 231.26,-203.84 243.72,-194.09"/>
<polygon fill="midnightblue" stroke="midnightblue" points="245.99,-196.75 251.71,-187.83 241.68,-191.24 245.99,-196.75"/>
</g>
</g>
</svg>
