<?xml version="1.0" encoding="UTF-8" standalone="no"?>
<!DOCTYPE svg PUBLIC "-//W3C//DTD SVG 1.1//EN"
 "http://www.w3.org/Graphics/SVG/1.1/DTD/svg11.dtd">
<!-- Generated by graphviz version 2.43.0 (0)
 -->
<!-- Title: include/core/mir/geometry/rectangles.h Pages: 1 -->
<svg width="1034pt" height="441pt"
 viewBox="0.00 0.00 1034.00 441.00" xmlns="http://www.w3.org/2000/svg" xmlns:xlink="http://www.w3.org/1999/xlink">
<g id="graph0" class="graph" transform="scale(1 1) rotate(0) translate(4 437)">
<title>include/core/mir/geometry/rectangles.h</title>
<polygon fill="white" stroke="transparent" points="-4,4 -4,-437 1030,-437 1030,4 -4,4"/>
<!-- Node1 -->
<g id="node1" class="node">
<title>Node1</title>
<g id="a_node1"><a xlink:title=" ">
<polygon fill="#bfbfbf" stroke="black" points="486.5,-402.5 486.5,-432.5 632.5,-432.5 632.5,-402.5 486.5,-402.5"/>
<text text-anchor="start" x="494.5" y="-420.5" font-family="Arial" font-size="10.00">include/core/mir/geometry</text>
<text text-anchor="middle" x="559.5" y="-409.5" font-family="Arial" font-size="10.00">/rectangles.h</text>
</a>
</g>
</g>
<!-- Node2 -->
<g id="node2" class="node">
<title>Node2</title>
<g id="a_node2"><a xlink:href="window__info_8h.html" target="_top" xlink:title=" ">
<polygon fill="white" stroke="black" points="417,-268.5 417,-298.5 526,-298.5 526,-268.5 417,-268.5"/>
<text text-anchor="start" x="425" y="-286.5" font-family="Arial" font-size="10.00">include/miral/miral</text>
<text text-anchor="middle" x="471.5" y="-275.5" font-family="Arial" font-size="10.00">/window_info.h</text>
</a>
</g>
</g>
<!-- Node1&#45;&gt;Node2 -->
<g id="edge1" class="edge">
<title>Node1&#45;&gt;Node2</title>
<path fill="none" stroke="midnightblue" d="M517.69,-397.4C504.77,-389.48 491.77,-379.04 483.5,-366 470.4,-345.35 469.45,-315.92 470.26,-298.66"/>
<polygon fill="midnightblue" stroke="midnightblue" points="516.15,-400.55 526.56,-402.48 519.62,-394.47 516.15,-400.55"/>
</g>
<!-- Node16 -->
<g id="node16" class="node">
<title>Node16</title>
<g id="a_node16"><a xlink:href="window__management__policy_8h.html" target="_top" xlink:title=" ">
<polygon fill="white" stroke="black" points="569.5,-201.5 569.5,-231.5 739.5,-231.5 739.5,-201.5 569.5,-201.5"/>
<text text-anchor="start" x="577.5" y="-219.5" font-family="Arial" font-size="10.00">include/miral/miral</text>
<text text-anchor="middle" x="654.5" y="-208.5" font-family="Arial" font-size="10.00">/window_management_policy.h</text>
</a>
</g>
</g>
<!-- Node1&#45;&gt;Node16 -->
<g id="edge23" class="edge">
<title>Node1&#45;&gt;Node16</title>
<path fill="none" stroke="midnightblue" d="M601.78,-397.29C614.6,-389.4 627.42,-379.01 635.5,-366 662.1,-323.17 659.3,-259.97 656.38,-231.87"/>
<polygon fill="midnightblue" stroke="midnightblue" points="599.89,-394.34 592.96,-402.35 603.37,-400.41 599.89,-394.34"/>
</g>
<!-- Node17 -->
<g id="node17" class="node">
<title>Node17</title>
<g id="a_node17"><a xlink:href="window__specification_8h.html" target="_top" xlink:title=" ">
<polygon fill="white" stroke="black" points="493,-335.5 493,-365.5 626,-365.5 626,-335.5 493,-335.5"/>
<text text-anchor="start" x="501" y="-353.5" font-family="Arial" font-size="10.00">include/miral/miral</text>
<text text-anchor="middle" x="559.5" y="-342.5" font-family="Arial" font-size="10.00">/window_specification.h</text>
</a>
</g>
</g>
<!-- Node1&#45;&gt;Node17 -->
<g id="edge27" class="edge">
<title>Node1&#45;&gt;Node17</title>
<path fill="none" stroke="midnightblue" d="M559.5,-392.11C559.5,-383.15 559.5,-373.32 559.5,-365.58"/>
<polygon fill="midnightblue" stroke="midnightblue" points="556,-392.4 559.5,-402.4 563,-392.4 556,-392.4"/>
</g>
<!-- Node3 -->
<g id="node3" class="node">
<title>Node3</title>
<g id="a_node3"><a xlink:href="kiosk__window__manager_8cpp.html" target="_top" xlink:title=" ">
<polygon fill="white" stroke="black" points="0,-0.5 0,-30.5 157,-30.5 157,-0.5 0,-0.5"/>
<text text-anchor="start" x="8" y="-18.5" font-family="Arial" font-size="10.00">examples/miral&#45;kiosk</text>
<text text-anchor="middle" x="78.5" y="-7.5" font-family="Arial" font-size="10.00">/kiosk_window_manager.cpp</text>
</a>
</g>
</g>
<!-- Node2&#45;&gt;Node3 -->
<g id="edge2" class="edge">
<title>Node2&#45;&gt;Node3</title>
<path fill="none" stroke="midnightblue" d="M406.65,-279.88C351.79,-275.4 272.44,-263.48 210.5,-232 140.54,-196.44 125.2,-170.64 95.5,-98 86.26,-75.39 81.81,-47.11 79.85,-30.51"/>
<polygon fill="midnightblue" stroke="midnightblue" points="406.71,-283.39 416.95,-280.66 407.24,-276.41 406.71,-283.39"/>
</g>
<!-- Node4 -->
<g id="node4" class="node">
<title>Node4</title>
<g id="a_node4"><a xlink:href="floating__window__manager_8cpp.html" target="_top" xlink:title=" ">
<polygon fill="white" stroke="black" points="319,-0.5 319,-30.5 502,-30.5 502,-0.5 319,-0.5"/>
<text text-anchor="start" x="327" y="-18.5" font-family="Arial" font-size="10.00">examples/example&#45;server</text>
<text text-anchor="middle" x="410.5" y="-7.5" font-family="Arial" font-size="10.00">&#45;lib/floating_window_manager.cpp</text>
</a>
</g>
</g>
<!-- Node2&#45;&gt;Node4 -->
<g id="edge3" class="edge">
<title>Node2&#45;&gt;Node4</title>
<path fill="none" stroke="midnightblue" d="M406.94,-276.94C337.47,-267.13 230.16,-239.99 179.5,-165 171.79,-153.58 171.43,-145.17 179.5,-134 209.39,-92.65 242.65,-120.37 288.5,-98 328.1,-78.68 369.9,-48.25 392.83,-30.55"/>
<polygon fill="midnightblue" stroke="midnightblue" points="406.53,-280.42 416.9,-278.27 407.45,-273.48 406.53,-280.42"/>
</g>
<!-- Node5 -->
<g id="node5" class="node">
<title>Node5</title>
<g id="a_node5"><a xlink:href="tiling__window__manager_8cpp.html" target="_top" xlink:title=" ">
<polygon fill="white" stroke="black" points="855,-67.5 855,-97.5 1026,-97.5 1026,-67.5 855,-67.5"/>
<text text-anchor="start" x="863" y="-85.5" font-family="Arial" font-size="10.00">examples/example&#45;server</text>
<text text-anchor="middle" x="940.5" y="-74.5" font-family="Arial" font-size="10.00">&#45;lib/tiling_window_manager.cpp</text>
</a>
</g>
</g>
<!-- Node2&#45;&gt;Node5 -->
<g id="edge4" class="edge">
<title>Node2&#45;&gt;Node5</title>
<path fill="none" stroke="midnightblue" d="M536.14,-276.54C654.07,-264.14 896.37,-231.03 943.5,-165 957.65,-145.18 951.43,-115.2 945.83,-97.66"/>
<polygon fill="midnightblue" stroke="midnightblue" points="535.74,-273.06 526.16,-277.57 536.46,-280.03 535.74,-273.06"/>
</g>
<!-- Node6 -->
<g id="node6" class="node">
<title>Node6</title>
<g id="a_node6"><a xlink:href="window__manager__tools_8h.html" target="_top" xlink:title=" ">
<polygon fill="white" stroke="black" points="403.5,-201.5 403.5,-231.5 547.5,-231.5 547.5,-201.5 403.5,-201.5"/>
<text text-anchor="start" x="411.5" y="-219.5" font-family="Arial" font-size="10.00">include/miral/miral</text>
<text text-anchor="middle" x="475.5" y="-208.5" font-family="Arial" font-size="10.00">/window_manager_tools.h</text>
</a>
</g>
</g>
<!-- Node2&#45;&gt;Node6 -->
<g id="edge5" class="edge">
<title>Node2&#45;&gt;Node6</title>
<path fill="none" stroke="midnightblue" d="M472.98,-258.4C473.54,-249.37 474.15,-239.41 474.63,-231.58"/>
<polygon fill="midnightblue" stroke="midnightblue" points="469.49,-258.2 472.37,-268.4 476.48,-258.63 469.49,-258.2"/>
</g>
<!-- Node6&#45;&gt;Node3 -->
<g id="edge6" class="edge">
<title>Node6&#45;&gt;Node3</title>
<path fill="none" stroke="midnightblue" d="M392.97,-207.92C318.34,-199.91 214.91,-185.57 179.5,-165 125.85,-133.84 94.58,-61.39 83.31,-30.67"/>
<polygon fill="midnightblue" stroke="midnightblue" points="392.99,-211.44 403.3,-209.01 393.72,-204.48 392.99,-211.44"/>
</g>
<!-- Node6&#45;&gt;Node4 -->
<g id="edge10" class="edge">
<title>Node6&#45;&gt;Node4</title>
<path fill="none" stroke="midnightblue" d="M432.68,-196.19C420.36,-188.38 408.4,-178.06 401.5,-165 378.1,-120.69 395.33,-58.26 405.05,-30.62"/>
<polygon fill="midnightblue" stroke="midnightblue" points="431.25,-199.41 441.65,-201.44 434.79,-193.37 431.25,-199.41"/>
</g>
<!-- Node6&#45;&gt;Node5 -->
<g id="edge14" class="edge">
<title>Node6&#45;&gt;Node5</title>
<path fill="none" stroke="midnightblue" d="M557.76,-201.38C558.68,-201.25 559.59,-201.12 560.5,-201 640.4,-190.21 860.92,-218.19 921.5,-165 940.61,-148.22 942.47,-116.3 941.74,-97.78"/>
<polygon fill="midnightblue" stroke="midnightblue" points="557.18,-197.92 547.79,-202.82 558.18,-204.85 557.18,-197.92"/>
</g>
<!-- Node7 -->
<g id="node7" class="node">
<title>Node7</title>
<g id="a_node7"><a xlink:href="decoration__provider_8h.html" target="_top" xlink:title=" ">
<polygon fill="white" stroke="black" points="411,-134.5 411,-164.5 556,-164.5 556,-134.5 411,-134.5"/>
<text text-anchor="start" x="419" y="-152.5" font-family="Arial" font-size="10.00">examples/example&#45;server</text>
<text text-anchor="middle" x="483.5" y="-141.5" font-family="Arial" font-size="10.00">&#45;lib/decoration_provider.h</text>
</a>
</g>
</g>
<!-- Node6&#45;&gt;Node7 -->
<g id="edge7" class="edge">
<title>Node6&#45;&gt;Node7</title>
<path fill="none" stroke="midnightblue" d="M478.47,-191.4C479.58,-182.37 480.8,-172.41 481.77,-164.58"/>
<polygon fill="midnightblue" stroke="midnightblue" points="474.98,-191.04 477.24,-201.4 481.93,-191.9 474.98,-191.04"/>
</g>
<!-- Node9 -->
<g id="node9" class="node">
<title>Node9</title>
<g id="a_node9"><a xlink:href="tiling__window__manager_8h.html" target="_top" xlink:title=" ">
<polygon fill="white" stroke="black" points="752.5,-134.5 752.5,-164.5 912.5,-164.5 912.5,-134.5 752.5,-134.5"/>
<text text-anchor="start" x="760.5" y="-152.5" font-family="Arial" font-size="10.00">examples/example&#45;server</text>
<text text-anchor="middle" x="832.5" y="-141.5" font-family="Arial" font-size="10.00">&#45;lib/tiling_window_manager.h</text>
</a>
</g>
</g>
<!-- Node6&#45;&gt;Node9 -->
<g id="edge11" class="edge">
<title>Node6&#45;&gt;Node9</title>
<path fill="none" stroke="midnightblue" d="M557.86,-200.5C617.36,-189.67 697.17,-175.14 755.42,-164.53"/>
<polygon fill="midnightblue" stroke="midnightblue" points="556.96,-197.11 547.74,-202.35 558.21,-204 556.96,-197.11"/>
</g>
<!-- Node11 -->
<g id="node11" class="node">
<title>Node11</title>
<g id="a_node11"><a xlink:href="canonical__window__manager_8h.html" target="_top" xlink:title=" ">
<polygon fill="white" stroke="black" points="188.5,-134.5 188.5,-164.5 354.5,-164.5 354.5,-134.5 188.5,-134.5"/>
<text text-anchor="start" x="196.5" y="-152.5" font-family="Arial" font-size="10.00">include/miral/miral</text>
<text text-anchor="middle" x="271.5" y="-141.5" font-family="Arial" font-size="10.00">/canonical_window_manager.h</text>
</a>
</g>
</g>
<!-- Node6&#45;&gt;Node11 -->
<g id="edge15" class="edge">
<title>Node6&#45;&gt;Node11</title>
<path fill="none" stroke="midnightblue" d="M421.54,-198.31C388.54,-187.79 346.84,-174.51 315.79,-164.61"/>
<polygon fill="midnightblue" stroke="midnightblue" points="420.9,-201.77 431.49,-201.48 423.02,-195.11 420.9,-201.77"/>
</g>
<!-- Node14 -->
<g id="node14" class="node">
<title>Node14</title>
<g id="a_node14"><a xlink:href="minimal__window__manager_8h.html" target="_top" xlink:title=" ">
<polygon fill="white" stroke="black" points="574.5,-134.5 574.5,-164.5 734.5,-164.5 734.5,-134.5 574.5,-134.5"/>
<text text-anchor="start" x="582.5" y="-152.5" font-family="Arial" font-size="10.00">include/miral/miral</text>
<text text-anchor="middle" x="654.5" y="-141.5" font-family="Arial" font-size="10.00">/minimal_window_manager.h</text>
</a>
</g>
</g>
<!-- Node6&#45;&gt;Node14 -->
<g id="edge19" class="edge">
<title>Node6&#45;&gt;Node14</title>
<path fill="none" stroke="midnightblue" d="M523.82,-197.96C552.65,-187.48 588.78,-174.37 615.74,-164.58"/>
<polygon fill="midnightblue" stroke="midnightblue" points="522.55,-194.69 514.34,-201.4 524.93,-201.27 522.55,-194.69"/>
</g>
<!-- Node7&#45;&gt;Node4 -->
<g id="edge9" class="edge">
<title>Node7&#45;&gt;Node4</title>
<path fill="none" stroke="midnightblue" d="M461.53,-126.92C453.79,-118.45 445.52,-108.3 439.5,-98 426.68,-76.09 418.15,-47.59 413.83,-30.75"/>
<polygon fill="midnightblue" stroke="midnightblue" points="458.99,-129.34 468.41,-134.19 464.07,-124.52 458.99,-129.34"/>
</g>
<!-- Node8 -->
<g id="node8" class="node">
<title>Node8</title>
<g id="a_node8"><a xlink:href="decoration__provider_8cpp.html" target="_top" xlink:title=" ">
<polygon fill="white" stroke="black" points="448.5,-67.5 448.5,-97.5 600.5,-97.5 600.5,-67.5 448.5,-67.5"/>
<text text-anchor="start" x="456.5" y="-85.5" font-family="Arial" font-size="10.00">examples/example&#45;server</text>
<text text-anchor="middle" x="524.5" y="-74.5" font-family="Arial" font-size="10.00">&#45;lib/decoration_provider.cpp</text>
</a>
</g>
</g>
<!-- Node7&#45;&gt;Node8 -->
<g id="edge8" class="edge">
<title>Node7&#45;&gt;Node8</title>
<path fill="none" stroke="midnightblue" d="M497.78,-125.87C503.71,-116.46 510.41,-105.83 515.62,-97.58"/>
<polygon fill="midnightblue" stroke="midnightblue" points="494.77,-124.07 492.4,-134.4 500.69,-127.81 494.77,-124.07"/>
</g>
<!-- Node9&#45;&gt;Node5 -->
<g id="edge13" class="edge">
<title>Node9&#45;&gt;Node5</title>
<path fill="none" stroke="midnightblue" d="M864.87,-129.02C881.68,-118.9 901.84,-106.77 917.11,-97.58"/>
<polygon fill="midnightblue" stroke="midnightblue" points="862.7,-126.24 855.93,-134.4 866.31,-132.24 862.7,-126.24"/>
</g>
<!-- Node10 -->
<g id="node10" class="node">
<title>Node10</title>
<g id="a_node10"><a xlink:href="shell__main_8cpp.html" target="_top" xlink:title=" ">
<polygon fill="white" stroke="black" points="703.5,-0.5 703.5,-30.5 823.5,-30.5 823.5,-0.5 703.5,-0.5"/>
<text text-anchor="start" x="711.5" y="-18.5" font-family="Arial" font-size="10.00">examples/miral&#45;shell</text>
<text text-anchor="middle" x="763.5" y="-7.5" font-family="Arial" font-size="10.00">/shell_main.cpp</text>
</a>
</g>
</g>
<!-- Node9&#45;&gt;Node10 -->
<g id="edge12" class="edge">
<title>Node9&#45;&gt;Node10</title>
<path fill="none" stroke="midnightblue" d="M824.64,-124.99C818.68,-108.34 809.78,-85.73 799.5,-67 792.45,-54.16 782.73,-40.71 775.17,-30.92"/>
<polygon fill="midnightblue" stroke="midnightblue" points="821.36,-126.21 827.96,-134.5 827.97,-123.9 821.36,-126.21"/>
</g>
<!-- Node12 -->
<g id="node12" class="node">
<title>Node12</title>
<g id="a_node12"><a xlink:href="kiosk__window__manager_8h.html" target="_top" xlink:title=" ">
<polygon fill="white" stroke="black" points="133.5,-67.5 133.5,-97.5 279.5,-97.5 279.5,-67.5 133.5,-67.5"/>
<text text-anchor="start" x="141.5" y="-85.5" font-family="Arial" font-size="10.00">examples/miral&#45;kiosk</text>
<text text-anchor="middle" x="206.5" y="-74.5" font-family="Arial" font-size="10.00">/kiosk_window_manager.h</text>
</a>
</g>
</g>
<!-- Node11&#45;&gt;Node12 -->
<g id="edge16" class="edge">
<title>Node11&#45;&gt;Node12</title>
<path fill="none" stroke="midnightblue" d="M250.31,-127.31C240.56,-117.56 229.26,-106.26 220.58,-97.58"/>
<polygon fill="midnightblue" stroke="midnightblue" points="247.85,-129.8 257.4,-134.4 252.8,-124.85 247.85,-129.8"/>
</g>
<!-- Node12&#45;&gt;Node3 -->
<g id="edge18" class="edge">
<title>Node12&#45;&gt;Node3</title>
<path fill="none" stroke="midnightblue" d="M169.78,-62.85C149.54,-52.58 124.83,-40.03 106.22,-30.58"/>
<polygon fill="midnightblue" stroke="midnightblue" points="168.22,-65.99 178.73,-67.4 171.39,-59.75 168.22,-65.99"/>
</g>
<!-- Node13 -->
<g id="node13" class="node">
<title>Node13</title>
<g id="a_node13"><a xlink:href="kiosk__main_8cpp.html" target="_top" xlink:title=" ">
<polygon fill="white" stroke="black" points="175,-0.5 175,-30.5 298,-30.5 298,-0.5 175,-0.5"/>
<text text-anchor="start" x="183" y="-18.5" font-family="Arial" font-size="10.00">examples/miral&#45;kiosk</text>
<text text-anchor="middle" x="236.5" y="-7.5" font-family="Arial" font-size="10.00">/kiosk_main.cpp</text>
</a>
</g>
</g>
<!-- Node12&#45;&gt;Node13 -->
<g id="edge17" class="edge">
<title>Node12&#45;&gt;Node13</title>
<path fill="none" stroke="midnightblue" d="M217.22,-58.28C221.49,-49.02 226.27,-38.66 230,-30.58"/>
<polygon fill="midnightblue" stroke="midnightblue" points="214.02,-56.85 213.01,-67.4 220.38,-59.78 214.02,-56.85"/>
</g>
<!-- Node15 -->
<g id="node15" class="node">
<title>Node15</title>
<g id="a_node15"><a xlink:href="floating__window__manager_8h.html" target="_top" xlink:title=" ">
<polygon fill="white" stroke="black" points="618.5,-67.5 618.5,-97.5 790.5,-97.5 790.5,-67.5 618.5,-67.5"/>
<text text-anchor="start" x="626.5" y="-85.5" font-family="Arial" font-size="10.00">examples/example&#45;server</text>
<text text-anchor="middle" x="704.5" y="-74.5" font-family="Arial" font-size="10.00">&#45;lib/floating_window_manager.h</text>
</a>
</g>
</g>
<!-- Node14&#45;&gt;Node15 -->
<g id="edge20" class="edge">
<title>Node14&#45;&gt;Node15</title>
<path fill="none" stroke="midnightblue" d="M671.46,-126.45C678.81,-116.9 687.19,-106 693.67,-97.58"/>
<polygon fill="midnightblue" stroke="midnightblue" points="668.67,-124.34 665.35,-134.4 674.22,-128.6 668.67,-124.34"/>
</g>
<!-- Node15&#45;&gt;Node4 -->
<g id="edge22" class="edge">
<title>Node15&#45;&gt;Node4</title>
<path fill="none" stroke="midnightblue" d="M631.3,-65.32C582.98,-54.63 520.3,-40.77 474.07,-30.55"/>
<polygon fill="midnightblue" stroke="midnightblue" points="630.55,-68.73 641.07,-67.48 632.06,-61.9 630.55,-68.73"/>
</g>
<!-- Node15&#45;&gt;Node10 -->
<g id="edge21" class="edge">
<title>Node15&#45;&gt;Node10</title>
<path fill="none" stroke="midnightblue" d="M724.25,-59.74C732.98,-50.12 743,-39.09 750.72,-30.58"/>
<polygon fill="midnightblue" stroke="midnightblue" points="721.43,-57.64 717.3,-67.4 726.61,-62.34 721.43,-57.64"/>
</g>
<!-- Node16&#45;&gt;Node9 -->
<g id="edge24" class="edge">
<title>Node16&#45;&gt;Node9</title>
<path fill="none" stroke="midnightblue" d="M702.55,-197.96C731.22,-187.48 767.14,-174.37 793.95,-164.58"/>
<polygon fill="midnightblue" stroke="midnightblue" points="701.32,-194.68 693.12,-201.4 703.72,-201.25 701.32,-194.68"/>
</g>
<!-- Node16&#45;&gt;Node11 -->
<g id="edge25" class="edge">
<title>Node16&#45;&gt;Node11</title>
<path fill="none" stroke="midnightblue" d="M561.88,-199.78C498.58,-189.04 415.42,-174.92 354.32,-164.55"/>
<polygon fill="midnightblue" stroke="midnightblue" points="561.42,-203.25 571.87,-201.48 562.59,-196.35 561.42,-203.25"/>
</g>
<!-- Node16&#45;&gt;Node14 -->
<g id="edge26" class="edge">
<title>Node16&#45;&gt;Node14</title>
<path fill="none" stroke="midnightblue" d="M654.5,-191.11C654.5,-182.15 654.5,-172.32 654.5,-164.58"/>
<polygon fill="midnightblue" stroke="midnightblue" points="651,-191.4 654.5,-201.4 658,-191.4 651,-191.4"/>
</g>
<!-- Node17&#45;&gt;Node2 -->
<g id="edge28" class="edge">
<title>Node17&#45;&gt;Node2</title>
<path fill="none" stroke="midnightblue" d="M532.36,-329.45C518.82,-319.45 502.77,-307.6 490.56,-298.58"/>
<polygon fill="midnightblue" stroke="midnightblue" points="530.28,-332.27 540.41,-335.4 534.44,-326.64 530.28,-332.27"/>
</g>
</g>
</svg>
