<?xml version="1.0" encoding="UTF-8" standalone="no"?>
<!DOCTYPE svg PUBLIC "-//W3C//DTD SVG 1.1//EN"
 "http://www.w3.org/Graphics/SVG/1.1/DTD/svg11.dtd">
<!-- Generated by graphviz version 2.43.0 (0)
 -->
<!-- Title: include/core/mir/geometry/size_generic.h Pages: 1 -->
<svg width="1740pt" height="720pt"
 viewBox="0.00 0.00 1739.50 720.00" xmlns="http://www.w3.org/2000/svg" xmlns:xlink="http://www.w3.org/1999/xlink">
<g id="graph0" class="graph" transform="scale(1 1) rotate(0) translate(4 716)">
<title>include/core/mir/geometry/size_generic.h</title>
<polygon fill="white" stroke="transparent" points="-4,4 -4,-716 1735.5,-716 1735.5,4 -4,4"/>
<!-- Node1 -->
<g id="node1" class="node">
<title>Node1</title>
<g id="a_node1"><a xlink:title=" ">
<polygon fill="#bfbfbf" stroke="black" points="1109,-681.5 1109,-711.5 1255,-711.5 1255,-681.5 1109,-681.5"/>
<text text-anchor="start" x="1117" y="-699.5" font-family="Arial" font-size="10.00">include/core/mir/geometry</text>
<text text-anchor="middle" x="1182" y="-688.5" font-family="Arial" font-size="10.00">/size_generic.h</text>
</a>
</g>
</g>
<!-- Node2 -->
<g id="node2" class="node">
<title>Node2</title>
<g id="a_node2"><a xlink:href="size_8h.html" target="_top" xlink:title=" ">
<polygon fill="white" stroke="black" points="909,-614.5 909,-644.5 1055,-644.5 1055,-614.5 909,-614.5"/>
<text text-anchor="start" x="917" y="-632.5" font-family="Arial" font-size="10.00">include/core/mir/geometry</text>
<text text-anchor="middle" x="982" y="-621.5" font-family="Arial" font-size="10.00">/size.h</text>
</a>
</g>
</g>
<!-- Node1&#45;&gt;Node2 -->
<g id="edge1" class="edge">
<title>Node1&#45;&gt;Node2</title>
<path fill="none" stroke="midnightblue" d="M1128.85,-678.23C1096.5,-667.71 1055.69,-654.45 1025.31,-644.58"/>
<polygon fill="midnightblue" stroke="midnightblue" points="1128.01,-681.63 1138.6,-681.4 1130.17,-674.98 1128.01,-681.63"/>
</g>
<!-- Node37 -->
<g id="node37" class="node">
<title>Node37</title>
<g id="a_node37"><a xlink:href="rectangle__generic_8h.html" target="_top" xlink:title=" ">
<polygon fill="white" stroke="black" points="1109,-614.5 1109,-644.5 1255,-644.5 1255,-614.5 1109,-614.5"/>
<text text-anchor="start" x="1117" y="-632.5" font-family="Arial" font-size="10.00">include/core/mir/geometry</text>
<text text-anchor="middle" x="1182" y="-621.5" font-family="Arial" font-size="10.00">/rectangle_generic.h</text>
</a>
</g>
</g>
<!-- Node1&#45;&gt;Node37 -->
<g id="edge60" class="edge">
<title>Node1&#45;&gt;Node37</title>
<path fill="none" stroke="midnightblue" d="M1182,-671.11C1182,-662.15 1182,-652.32 1182,-644.58"/>
<polygon fill="midnightblue" stroke="midnightblue" points="1178.5,-671.4 1182,-681.4 1185.5,-671.4 1178.5,-671.4"/>
</g>
<!-- Node39 -->
<g id="node39" class="node">
<title>Node39</title>
<g id="a_node39"><a xlink:href="size__f_8h.html" target="_top" xlink:title=" ">
<polygon fill="white" stroke="black" points="1405,-614.5 1405,-644.5 1551,-644.5 1551,-614.5 1405,-614.5"/>
<text text-anchor="start" x="1413" y="-632.5" font-family="Arial" font-size="10.00">include/core/mir/geometry</text>
<text text-anchor="middle" x="1478" y="-621.5" font-family="Arial" font-size="10.00">/size_f.h</text>
</a>
</g>
</g>
<!-- Node1&#45;&gt;Node39 -->
<g id="edge63" class="edge">
<title>Node1&#45;&gt;Node39</title>
<path fill="none" stroke="midnightblue" d="M1255.7,-679.32C1304.35,-668.63 1367.46,-654.77 1414,-644.55"/>
<polygon fill="midnightblue" stroke="midnightblue" points="1254.88,-675.91 1245.86,-681.48 1256.38,-682.75 1254.88,-675.91"/>
</g>
<!-- Node3 -->
<g id="node3" class="node">
<title>Node3</title>
<g id="a_node3"><a xlink:href="wayland__surface_8h.html" target="_top" xlink:title=" ">
<polygon fill="white" stroke="black" points="1195.5,-547.5 1195.5,-577.5 1340.5,-577.5 1340.5,-547.5 1195.5,-547.5"/>
<text text-anchor="start" x="1203.5" y="-565.5" font-family="Arial" font-size="10.00">examples/example&#45;server</text>
<text text-anchor="middle" x="1268" y="-554.5" font-family="Arial" font-size="10.00">&#45;lib/wayland_surface.h</text>
</a>
</g>
</g>
<!-- Node2&#45;&gt;Node3 -->
<g id="edge2" class="edge">
<title>Node2&#45;&gt;Node3</title>
<path fill="none" stroke="midnightblue" d="M1053.49,-612.25C1100.37,-601.6 1161.06,-587.81 1205.91,-577.61"/>
<polygon fill="midnightblue" stroke="midnightblue" points="1052.68,-608.85 1043.71,-614.48 1054.23,-615.67 1052.68,-608.85"/>
</g>
<!-- Node11 -->
<g id="node11" class="node">
<title>Node11</title>
<g id="a_node11"><a xlink:href="wayland__shm_8h.html" target="_top" xlink:title=" ">
<polygon fill="white" stroke="black" points="1371.5,-547.5 1371.5,-577.5 1516.5,-577.5 1516.5,-547.5 1371.5,-547.5"/>
<text text-anchor="start" x="1379.5" y="-565.5" font-family="Arial" font-size="10.00">examples/example&#45;server</text>
<text text-anchor="middle" x="1444" y="-554.5" font-family="Arial" font-size="10.00">&#45;lib/wayland_shm.h</text>
</a>
</g>
</g>
<!-- Node2&#45;&gt;Node11 -->
<g id="edge10" class="edge">
<title>Node2&#45;&gt;Node11</title>
<path fill="none" stroke="midnightblue" d="M1065.29,-617.47C1139.91,-607.5 1252.33,-592.23 1350,-578 1356.94,-576.99 1364.17,-575.91 1371.4,-574.82"/>
<polygon fill="midnightblue" stroke="midnightblue" points="1064.46,-614.05 1055.02,-618.85 1065.39,-620.99 1064.46,-614.05"/>
</g>
<!-- Node13 -->
<g id="node13" class="node">
<title>Node13</title>
<g id="a_node13"><a xlink:href="displacement_8h.html" target="_top" xlink:title=" ">
<polygon fill="white" stroke="black" points="242,-547.5 242,-577.5 388,-577.5 388,-547.5 242,-547.5"/>
<text text-anchor="start" x="250" y="-565.5" font-family="Arial" font-size="10.00">include/core/mir/geometry</text>
<text text-anchor="middle" x="315" y="-554.5" font-family="Arial" font-size="10.00">/displacement.h</text>
</a>
</g>
</g>
<!-- Node2&#45;&gt;Node13 -->
<g id="edge14" class="edge">
<title>Node2&#45;&gt;Node13</title>
<path fill="none" stroke="midnightblue" d="M898.68,-620.38C767.05,-607.55 513.15,-582.81 388.16,-570.63"/>
<polygon fill="midnightblue" stroke="midnightblue" points="898.42,-623.87 908.71,-621.36 899.1,-616.9 898.42,-623.87"/>
</g>
<!-- Node17 -->
<g id="node17" class="node">
<title>Node17</title>
<g id="a_node17"><a xlink:href="rectangle_8h.html" target="_top" xlink:title=" ">
<polygon fill="white" stroke="black" points="651,-480.5 651,-510.5 797,-510.5 797,-480.5 651,-480.5"/>
<text text-anchor="start" x="659" y="-498.5" font-family="Arial" font-size="10.00">include/core/mir/geometry</text>
<text text-anchor="middle" x="724" y="-487.5" font-family="Arial" font-size="10.00">/rectangle.h</text>
</a>
</g>
</g>
<!-- Node2&#45;&gt;Node17 -->
<g id="edge55" class="edge">
<title>Node2&#45;&gt;Node17</title>
<path fill="none" stroke="midnightblue" d="M915.09,-611.55C887.84,-603.32 856.58,-592.11 830,-578 794.53,-559.17 758.59,-528.57 739.02,-510.71"/>
<polygon fill="midnightblue" stroke="midnightblue" points="914.35,-614.98 924.93,-614.45 916.32,-608.27 914.35,-614.98"/>
</g>
<!-- Node34 -->
<g id="node34" class="node">
<title>Node34</title>
<g id="a_node34"><a xlink:href="surface__observer_8h.html" target="_top" xlink:title=" ">
<polygon fill="white" stroke="black" points="872.5,-408 872.5,-438 987.5,-438 987.5,-408 872.5,-408"/>
<text text-anchor="start" x="880.5" y="-426" font-family="Arial" font-size="10.00">include/miroil/miroil</text>
<text text-anchor="middle" x="930" y="-415" font-family="Arial" font-size="10.00">/surface_observer.h</text>
</a>
</g>
</g>
<!-- Node2&#45;&gt;Node34 -->
<g id="edge59" class="edge">
<title>Node2&#45;&gt;Node34</title>
<path fill="none" stroke="midnightblue" d="M991.37,-604.4C996.45,-588.07 1000.79,-566.07 996,-547 985.25,-504.22 956.43,-460.1 940.66,-438.17"/>
<polygon fill="midnightblue" stroke="midnightblue" points="987.94,-603.63 988.02,-614.23 994.56,-605.9 987.94,-603.63"/>
</g>
<!-- Node35 -->
<g id="node35" class="node">
<title>Node35</title>
<g id="a_node35"><a xlink:href="window_8h.html" target="_top" xlink:title=" ">
<polygon fill="white" stroke="black" points="834.5,-335.5 834.5,-365.5 943.5,-365.5 943.5,-335.5 834.5,-335.5"/>
<text text-anchor="start" x="842.5" y="-353.5" font-family="Arial" font-size="10.00">include/miral/miral</text>
<text text-anchor="middle" x="889" y="-342.5" font-family="Arial" font-size="10.00">/window.h</text>
</a>
</g>
</g>
<!-- Node2&#45;&gt;Node35 -->
<g id="edge56" class="edge">
<title>Node2&#45;&gt;Node35</title>
<path fill="none" stroke="midnightblue" d="M903.52,-610.42C887.55,-603.03 872.68,-592.63 863,-578 819.82,-512.77 844.58,-478.02 863,-402 866.16,-388.97 873.3,-375.53 879.3,-365.79"/>
<polygon fill="midnightblue" stroke="midnightblue" points="902.45,-613.77 913.03,-614.44 905.18,-607.32 902.45,-613.77"/>
</g>
<!-- Node36 -->
<g id="node36" class="node">
<title>Node36</title>
<g id="a_node36"><a xlink:href="mirbuffer_8h.html" target="_top" xlink:title=" ">
<polygon fill="white" stroke="black" points="872.5,-547.5 872.5,-577.5 987.5,-577.5 987.5,-547.5 872.5,-547.5"/>
<text text-anchor="start" x="880.5" y="-565.5" font-family="Arial" font-size="10.00">include/miroil/miroil</text>
<text text-anchor="middle" x="930" y="-554.5" font-family="Arial" font-size="10.00">/mirbuffer.h</text>
</a>
</g>
</g>
<!-- Node2&#45;&gt;Node36 -->
<g id="edge58" class="edge">
<title>Node2&#45;&gt;Node36</title>
<path fill="none" stroke="midnightblue" d="M964.36,-606.45C956.72,-596.9 948,-586 941.26,-577.58"/>
<polygon fill="midnightblue" stroke="midnightblue" points="961.74,-608.77 970.72,-614.4 967.2,-604.4 961.74,-608.77"/>
</g>
<!-- Node4 -->
<g id="node4" class="node">
<title>Node4</title>
<g id="a_node4"><a xlink:href="miregl_8h.html" target="_top" xlink:title=" ">
<polygon fill="white" stroke="black" points="1208,-480.5 1208,-510.5 1328,-510.5 1328,-480.5 1208,-480.5"/>
<text text-anchor="start" x="1216" y="-498.5" font-family="Arial" font-size="10.00">examples/miral&#45;shell</text>
<text text-anchor="middle" x="1268" y="-487.5" font-family="Arial" font-size="10.00">/spinner/miregl.h</text>
</a>
</g>
</g>
<!-- Node3&#45;&gt;Node4 -->
<g id="edge3" class="edge">
<title>Node3&#45;&gt;Node4</title>
<path fill="none" stroke="midnightblue" d="M1268,-537.11C1268,-528.15 1268,-518.32 1268,-510.58"/>
<polygon fill="midnightblue" stroke="midnightblue" points="1264.5,-537.4 1268,-547.4 1271.5,-537.4 1264.5,-537.4"/>
</g>
<!-- Node8 -->
<g id="node8" class="node">
<title>Node8</title>
<g id="a_node8"><a xlink:href="decoration__provider_8cpp.html" target="_top" xlink:title=" ">
<polygon fill="white" stroke="black" points="1364,-67.5 1364,-97.5 1516,-97.5 1516,-67.5 1364,-67.5"/>
<text text-anchor="start" x="1372" y="-85.5" font-family="Arial" font-size="10.00">examples/example&#45;server</text>
<text text-anchor="middle" x="1440" y="-74.5" font-family="Arial" font-size="10.00">&#45;lib/decoration_provider.cpp</text>
</a>
</g>
</g>
<!-- Node3&#45;&gt;Node8 -->
<g id="edge7" class="edge">
<title>Node3&#45;&gt;Node8</title>
<path fill="none" stroke="midnightblue" d="M1296.08,-541.35C1308.68,-532.21 1323.68,-521.18 1337,-511 1337.59,-510.55 1420.61,-444.64 1421,-444 1442.94,-408.22 1440,-393.47 1440,-351.5 1440,-351.5 1440,-351.5 1440,-215.5 1440,-172.65 1440,-121.97 1440,-97.76"/>
<polygon fill="midnightblue" stroke="midnightblue" points="1293.84,-538.65 1287.79,-547.35 1297.94,-544.32 1293.84,-538.65"/>
</g>
<!-- Node9 -->
<g id="node9" class="node">
<title>Node9</title>
<g id="a_node9"><a xlink:href="sw__splash_8cpp.html" target="_top" xlink:title=" ">
<polygon fill="white" stroke="black" points="1384.5,-480.5 1384.5,-510.5 1529.5,-510.5 1529.5,-480.5 1384.5,-480.5"/>
<text text-anchor="start" x="1392.5" y="-498.5" font-family="Arial" font-size="10.00">examples/example&#45;server</text>
<text text-anchor="middle" x="1457" y="-487.5" font-family="Arial" font-size="10.00">&#45;lib/sw_splash.cpp</text>
</a>
</g>
</g>
<!-- Node3&#45;&gt;Node9 -->
<g id="edge8" class="edge">
<title>Node3&#45;&gt;Node9</title>
<path fill="none" stroke="midnightblue" d="M1318.62,-544.09C1349.13,-533.6 1387.48,-520.41 1416.07,-510.58"/>
<polygon fill="midnightblue" stroke="midnightblue" points="1317.33,-540.83 1309.01,-547.4 1319.6,-547.45 1317.33,-540.83"/>
</g>
<!-- Node10 -->
<g id="node10" class="node">
<title>Node10</title>
<g id="a_node10"><a xlink:href="wayland__surface_8cpp.html" target="_top" xlink:title=" ">
<polygon fill="white" stroke="black" points="1044.5,-480.5 1044.5,-510.5 1189.5,-510.5 1189.5,-480.5 1044.5,-480.5"/>
<text text-anchor="start" x="1052.5" y="-498.5" font-family="Arial" font-size="10.00">examples/example&#45;server</text>
<text text-anchor="middle" x="1117" y="-487.5" font-family="Arial" font-size="10.00">&#45;lib/wayland_surface.cpp</text>
</a>
</g>
</g>
<!-- Node3&#45;&gt;Node10 -->
<g id="edge9" class="edge">
<title>Node3&#45;&gt;Node10</title>
<path fill="none" stroke="midnightblue" d="M1225.97,-543.41C1201.86,-533.03 1172.05,-520.2 1149.7,-510.58"/>
<polygon fill="midnightblue" stroke="midnightblue" points="1224.67,-546.66 1235.24,-547.4 1227.43,-540.23 1224.67,-546.66"/>
</g>
<!-- Node5 -->
<g id="node5" class="node">
<title>Node5</title>
<g id="a_node5"><a xlink:href="eglapp_8cpp.html" target="_top" xlink:title=" ">
<polygon fill="white" stroke="black" points="1006,-408 1006,-438 1126,-438 1126,-408 1006,-408"/>
<text text-anchor="start" x="1014" y="-426" font-family="Arial" font-size="10.00">examples/miral&#45;shell</text>
<text text-anchor="middle" x="1066" y="-415" font-family="Arial" font-size="10.00">/spinner/eglapp.cpp</text>
</a>
</g>
</g>
<!-- Node4&#45;&gt;Node5 -->
<g id="edge4" class="edge">
<title>Node4&#45;&gt;Node5</title>
<path fill="none" stroke="midnightblue" d="M1217.76,-476.96C1183.37,-464.96 1138.37,-449.26 1106.32,-438.07"/>
<polygon fill="midnightblue" stroke="midnightblue" points="1217.01,-480.41 1227.61,-480.4 1219.32,-473.8 1217.01,-480.41"/>
</g>
<!-- Node6 -->
<g id="node6" class="node">
<title>Node6</title>
<g id="a_node6"><a xlink:href="eglspinner_8cpp.html" target="_top" xlink:title=" ">
<polygon fill="white" stroke="black" points="1144.5,-408 1144.5,-438 1273.5,-438 1273.5,-408 1144.5,-408"/>
<text text-anchor="start" x="1152.5" y="-426" font-family="Arial" font-size="10.00">examples/miral&#45;shell</text>
<text text-anchor="middle" x="1209" y="-415" font-family="Arial" font-size="10.00">/spinner/eglspinner.cpp</text>
</a>
</g>
</g>
<!-- Node4&#45;&gt;Node6 -->
<g id="edge5" class="edge">
<title>Node4&#45;&gt;Node6</title>
<path fill="none" stroke="midnightblue" d="M1249.62,-472.54C1240.26,-461.36 1229.15,-448.08 1220.92,-438.25"/>
<polygon fill="midnightblue" stroke="midnightblue" points="1246.96,-474.81 1256.06,-480.23 1252.33,-470.32 1246.96,-474.81"/>
</g>
<!-- Node7 -->
<g id="node7" class="node">
<title>Node7</title>
<g id="a_node7"><a xlink:href="miregl_8cpp.html" target="_top" xlink:title=" ">
<polygon fill="white" stroke="black" points="1292,-408 1292,-438 1412,-438 1412,-408 1292,-408"/>
<text text-anchor="start" x="1300" y="-426" font-family="Arial" font-size="10.00">examples/miral&#45;shell</text>
<text text-anchor="middle" x="1352" y="-415" font-family="Arial" font-size="10.00">/spinner/miregl.cpp</text>
</a>
</g>
</g>
<!-- Node4&#45;&gt;Node7 -->
<g id="edge6" class="edge">
<title>Node4&#45;&gt;Node7</title>
<path fill="none" stroke="midnightblue" d="M1292.68,-473.79C1306.41,-462.27 1323.13,-448.23 1335.31,-438"/>
<polygon fill="midnightblue" stroke="midnightblue" points="1290.41,-471.12 1285,-480.23 1294.91,-476.49 1290.41,-471.12"/>
</g>
<!-- Node11&#45;&gt;Node8 -->
<g id="edge11" class="edge">
<title>Node11&#45;&gt;Node8</title>
<path fill="none" stroke="midnightblue" d="M1497.86,-542.93C1513.18,-535.24 1528.53,-524.81 1539,-511 1562.91,-479.46 1558,-463.58 1558,-424 1558,-424 1558,-424 1558,-215.5 1558,-160.79 1500.95,-118.34 1466.19,-97.56"/>
<polygon fill="midnightblue" stroke="midnightblue" points="1495.94,-539.96 1488.36,-547.37 1498.91,-546.3 1495.94,-539.96"/>
</g>
<!-- Node11&#45;&gt;Node9 -->
<g id="edge12" class="edge">
<title>Node11&#45;&gt;Node9</title>
<path fill="none" stroke="midnightblue" d="M1448.82,-537.4C1450.63,-528.37 1452.62,-518.41 1454.18,-510.58"/>
<polygon fill="midnightblue" stroke="midnightblue" points="1445.35,-536.9 1446.82,-547.4 1452.21,-538.28 1445.35,-536.9"/>
</g>
<!-- Node12 -->
<g id="node12" class="node">
<title>Node12</title>
<g id="a_node12"><a xlink:href="wayland__shm_8cpp.html" target="_top" xlink:title=" ">
<polygon fill="white" stroke="black" points="1586.5,-480.5 1586.5,-510.5 1731.5,-510.5 1731.5,-480.5 1586.5,-480.5"/>
<text text-anchor="start" x="1594.5" y="-498.5" font-family="Arial" font-size="10.00">examples/example&#45;server</text>
<text text-anchor="middle" x="1659" y="-487.5" font-family="Arial" font-size="10.00">&#45;lib/wayland_shm.cpp</text>
</a>
</g>
</g>
<!-- Node11&#45;&gt;Node12 -->
<g id="edge13" class="edge">
<title>Node11&#45;&gt;Node12</title>
<path fill="none" stroke="midnightblue" d="M1499.97,-544.58C1534.89,-534.02 1579.31,-520.59 1612.33,-510.61"/>
<polygon fill="midnightblue" stroke="midnightblue" points="1498.95,-541.23 1490.39,-547.48 1500.97,-547.93 1498.95,-541.23"/>
</g>
<!-- Node14 -->
<g id="node14" class="node">
<title>Node14</title>
<g id="a_node14"><a xlink:href="tiling__window__manager_8h.html" target="_top" xlink:title=" ">
<polygon fill="white" stroke="black" points="0,-134.5 0,-164.5 160,-164.5 160,-134.5 0,-134.5"/>
<text text-anchor="start" x="8" y="-152.5" font-family="Arial" font-size="10.00">examples/example&#45;server</text>
<text text-anchor="middle" x="80" y="-141.5" font-family="Arial" font-size="10.00">&#45;lib/tiling_window_manager.h</text>
</a>
</g>
</g>
<!-- Node13&#45;&gt;Node14 -->
<g id="edge15" class="edge">
<title>Node13&#45;&gt;Node14</title>
<path fill="none" stroke="midnightblue" d="M301.92,-538.62C258.91,-463.41 122.66,-225.11 88.06,-164.59"/>
<polygon fill="midnightblue" stroke="midnightblue" points="298.91,-540.41 306.91,-547.35 304.99,-536.93 298.91,-540.41"/>
</g>
<!-- Node13&#45;&gt;Node17 -->
<g id="edge18" class="edge">
<title>Node13&#45;&gt;Node17</title>
<path fill="none" stroke="midnightblue" d="M398.36,-548.25C472.52,-536.47 579.92,-519.4 650.82,-508.13"/>
<polygon fill="midnightblue" stroke="midnightblue" points="397.45,-544.85 388.12,-549.88 398.55,-551.77 397.45,-544.85"/>
</g>
<!-- Node22 -->
<g id="node22" class="node">
<title>Node22</title>
<g id="a_node22"><a xlink:href="window__manager__tools_8h.html" target="_top" xlink:title=" ">
<polygon fill="white" stroke="black" points="478,-201.5 478,-231.5 622,-231.5 622,-201.5 478,-201.5"/>
<text text-anchor="start" x="486" y="-219.5" font-family="Arial" font-size="10.00">include/miral/miral</text>
<text text-anchor="middle" x="550" y="-208.5" font-family="Arial" font-size="10.00">/window_manager_tools.h</text>
</a>
</g>
</g>
<!-- Node13&#45;&gt;Node22 -->
<g id="edge53" class="edge">
<title>Node13&#45;&gt;Node22</title>
<path fill="none" stroke="midnightblue" d="M309.6,-537.28C303.99,-509.92 296,-464 296,-424 296,-424 296,-424 296,-349.5 296,-267 402.8,-235.99 477.89,-224.38"/>
<polygon fill="midnightblue" stroke="midnightblue" points="306.19,-538.08 311.69,-547.14 313.04,-536.63 306.19,-538.08"/>
</g>
<!-- Node29 -->
<g id="node29" class="node">
<title>Node29</title>
<g id="a_node29"><a xlink:href="window__management__policy_8h.html" target="_top" xlink:title=" ">
<polygon fill="white" stroke="black" points="173,-201.5 173,-231.5 343,-231.5 343,-201.5 173,-201.5"/>
<text text-anchor="start" x="181" y="-219.5" font-family="Arial" font-size="10.00">include/miral/miral</text>
<text text-anchor="middle" x="258" y="-208.5" font-family="Arial" font-size="10.00">/window_management_policy.h</text>
</a>
</g>
</g>
<!-- Node13&#45;&gt;Node29 -->
<g id="edge52" class="edge">
<title>Node13&#45;&gt;Node29</title>
<path fill="none" stroke="midnightblue" d="M245.57,-543.4C229.97,-535.96 215.29,-525.55 206,-511 146.66,-418.11 222.06,-276.61 249.07,-231.7"/>
<polygon fill="midnightblue" stroke="midnightblue" points="244.27,-546.65 254.84,-547.45 247.07,-540.24 244.27,-546.65"/>
</g>
<!-- Node30 -->
<g id="node30" class="node">
<title>Node30</title>
<g id="a_node30"><a xlink:href="window__specification_8h.html" target="_top" xlink:title=" ">
<polygon fill="white" stroke="black" points="543.5,-335.5 543.5,-365.5 676.5,-365.5 676.5,-335.5 543.5,-335.5"/>
<text text-anchor="start" x="551.5" y="-353.5" font-family="Arial" font-size="10.00">include/miral/miral</text>
<text text-anchor="middle" x="610" y="-342.5" font-family="Arial" font-size="10.00">/window_specification.h</text>
</a>
</g>
</g>
<!-- Node13&#45;&gt;Node30 -->
<g id="edge54" class="edge">
<title>Node13&#45;&gt;Node30</title>
<path fill="none" stroke="midnightblue" d="M313.28,-536.81C312.3,-501.62 316.14,-437.42 353,-402 379.72,-376.32 476.61,-362.87 543.47,-356.49"/>
<polygon fill="midnightblue" stroke="midnightblue" points="309.8,-537.3 313.74,-547.14 316.79,-536.99 309.8,-537.3"/>
</g>
<!-- Node15 -->
<g id="node15" class="node">
<title>Node15</title>
<g id="a_node15"><a xlink:href="shell__main_8cpp.html" target="_top" xlink:title=" ">
<polygon fill="white" stroke="black" points="103,-0.5 103,-30.5 223,-30.5 223,-0.5 103,-0.5"/>
<text text-anchor="start" x="111" y="-18.5" font-family="Arial" font-size="10.00">examples/miral&#45;shell</text>
<text text-anchor="middle" x="163" y="-7.5" font-family="Arial" font-size="10.00">/shell_main.cpp</text>
</a>
</g>
</g>
<!-- Node14&#45;&gt;Node15 -->
<g id="edge16" class="edge">
<title>Node14&#45;&gt;Node15</title>
<path fill="none" stroke="midnightblue" d="M94.25,-125.83C111.46,-98.47 139.87,-53.28 154.18,-30.52"/>
<polygon fill="midnightblue" stroke="midnightblue" points="91.24,-124.05 88.88,-134.37 97.17,-127.77 91.24,-124.05"/>
</g>
<!-- Node16 -->
<g id="node16" class="node">
<title>Node16</title>
<g id="a_node16"><a xlink:href="tiling__window__manager_8cpp.html" target="_top" xlink:title=" ">
<polygon fill="white" stroke="black" points="552.5,-67.5 552.5,-97.5 723.5,-97.5 723.5,-67.5 552.5,-67.5"/>
<text text-anchor="start" x="560.5" y="-85.5" font-family="Arial" font-size="10.00">examples/example&#45;server</text>
<text text-anchor="middle" x="638" y="-74.5" font-family="Arial" font-size="10.00">&#45;lib/tiling_window_manager.cpp</text>
</a>
</g>
</g>
<!-- Node14&#45;&gt;Node16 -->
<g id="edge17" class="edge">
<title>Node14&#45;&gt;Node16</title>
<path fill="none" stroke="midnightblue" d="M170.03,-133.9C319.52,-113.92 358.89,-113.79 505,-98 520.24,-96.35 536.46,-94.59 552.15,-92.88"/>
<polygon fill="midnightblue" stroke="midnightblue" points="169.47,-130.45 160.02,-135.25 170.4,-137.39 169.47,-130.45"/>
</g>
<!-- Node18 -->
<g id="node18" class="node">
<title>Node18</title>
<g id="a_node18"><a xlink:href="rectangles_8h.html" target="_top" xlink:title=" ">
<polygon fill="white" stroke="black" points="632,-408 632,-438 778,-438 778,-408 632,-408"/>
<text text-anchor="start" x="640" y="-426" font-family="Arial" font-size="10.00">include/core/mir/geometry</text>
<text text-anchor="middle" x="705" y="-415" font-family="Arial" font-size="10.00">/rectangles.h</text>
</a>
</g>
</g>
<!-- Node17&#45;&gt;Node18 -->
<g id="edge19" class="edge">
<title>Node17&#45;&gt;Node18</title>
<path fill="none" stroke="midnightblue" d="M717.55,-470.56C714.65,-459.82 711.34,-447.51 708.84,-438.25"/>
<polygon fill="midnightblue" stroke="midnightblue" points="714.17,-471.49 720.16,-480.23 720.93,-469.67 714.17,-471.49"/>
</g>
<!-- Node31 -->
<g id="node31" class="node">
<title>Node31</title>
<g id="a_node31"><a xlink:href="output_8h.html" target="_top" xlink:title=" ">
<polygon fill="white" stroke="black" points="362.5,-408 362.5,-438 471.5,-438 471.5,-408 362.5,-408"/>
<text text-anchor="start" x="370.5" y="-426" font-family="Arial" font-size="10.00">include/miral/miral</text>
<text text-anchor="middle" x="417" y="-415" font-family="Arial" font-size="10.00">/output.h</text>
</a>
</g>
</g>
<!-- Node17&#45;&gt;Node31 -->
<g id="edge46" class="edge">
<title>Node17&#45;&gt;Node31</title>
<path fill="none" stroke="midnightblue" d="M641.13,-479.37C593.94,-470.23 533.86,-457.72 481,-444 474.13,-442.22 466.9,-440.15 459.87,-438.03"/>
<polygon fill="midnightblue" stroke="midnightblue" points="640.52,-482.81 651,-481.27 641.84,-475.94 640.52,-482.81"/>
</g>
<!-- Node32 -->
<g id="node32" class="node">
<title>Node32</title>
<g id="a_node32"><a xlink:href="zone_8h.html" target="_top" xlink:title=" ">
<polygon fill="white" stroke="black" points="728.5,-134.5 728.5,-164.5 837.5,-164.5 837.5,-134.5 728.5,-134.5"/>
<text text-anchor="start" x="736.5" y="-152.5" font-family="Arial" font-size="10.00">include/miral/miral</text>
<text text-anchor="middle" x="783" y="-141.5" font-family="Arial" font-size="10.00">/zone.h</text>
</a>
</g>
</g>
<!-- Node17&#45;&gt;Node32 -->
<g id="edge47" class="edge">
<title>Node17&#45;&gt;Node32</title>
<path fill="none" stroke="midnightblue" d="M757.39,-474.52C768.38,-466.36 779.66,-456.01 787,-444 808.9,-408.19 806,-393.47 806,-351.5 806,-351.5 806,-351.5 806,-282.5 806,-239 793.73,-188.62 787.11,-164.62"/>
<polygon fill="midnightblue" stroke="midnightblue" points="755.29,-471.71 749.11,-480.32 759.31,-477.45 755.29,-471.71"/>
</g>
<!-- Node33 -->
<g id="node33" class="node">
<title>Node33</title>
<g id="a_node33"><a xlink:href="display__configuration__storage_8h.html" target="_top" xlink:title=" ">
<polygon fill="white" stroke="black" points="490,-402.5 490,-443.5 614,-443.5 614,-402.5 490,-402.5"/>
<text text-anchor="start" x="498" y="-431.5" font-family="Arial" font-size="10.00">include/miroil/miroil</text>
<text text-anchor="start" x="498" y="-420.5" font-family="Arial" font-size="10.00">/display_configuration</text>
<text text-anchor="middle" x="552" y="-409.5" font-family="Arial" font-size="10.00">_storage.h</text>
</a>
</g>
</g>
<!-- Node17&#45;&gt;Node33 -->
<g id="edge50" class="edge">
<title>Node17&#45;&gt;Node33</title>
<path fill="none" stroke="midnightblue" d="M680.16,-476.53C655.58,-466.45 624.88,-453.87 599.69,-443.55"/>
<polygon fill="midnightblue" stroke="midnightblue" points="679.03,-479.85 689.61,-480.4 681.68,-473.37 679.03,-479.85"/>
</g>
<!-- Node17&#45;&gt;Node34 -->
<g id="edge51" class="edge">
<title>Node17&#45;&gt;Node34</title>
<path fill="none" stroke="midnightblue" d="M774.79,-477.12C809.91,-465.1 856.06,-449.31 888.88,-438.07"/>
<polygon fill="midnightblue" stroke="midnightblue" points="773.52,-473.85 765.19,-480.4 775.79,-480.48 773.52,-473.85"/>
</g>
<!-- Node19 -->
<g id="node19" class="node">
<title>Node19</title>
<g id="a_node19"><a xlink:href="window__info_8h.html" target="_top" xlink:title=" ">
<polygon fill="white" stroke="black" points="645.5,-268.5 645.5,-298.5 754.5,-298.5 754.5,-268.5 645.5,-268.5"/>
<text text-anchor="start" x="653.5" y="-286.5" font-family="Arial" font-size="10.00">include/miral/miral</text>
<text text-anchor="middle" x="700" y="-275.5" font-family="Arial" font-size="10.00">/window_info.h</text>
</a>
</g>
</g>
<!-- Node18&#45;&gt;Node19 -->
<g id="edge20" class="edge">
<title>Node18&#45;&gt;Node19</title>
<path fill="none" stroke="midnightblue" d="M704.12,-397.79C703.08,-369.11 701.37,-322.28 700.52,-298.83"/>
<polygon fill="midnightblue" stroke="midnightblue" points="700.62,-397.94 704.48,-407.8 707.62,-397.68 700.62,-397.94"/>
</g>
<!-- Node18&#45;&gt;Node29 -->
<g id="edge40" class="edge">
<title>Node18&#45;&gt;Node29</title>
<path fill="none" stroke="midnightblue" d="M644.38,-405.01C611.24,-395.01 569.78,-381.34 534,-366 436.48,-324.19 327.39,-259.91 280.93,-231.65"/>
<polygon fill="midnightblue" stroke="midnightblue" points="643.79,-408.49 654.38,-407.99 645.79,-401.78 643.79,-408.49"/>
</g>
<!-- Node18&#45;&gt;Node30 -->
<g id="edge44" class="edge">
<title>Node18&#45;&gt;Node30</title>
<path fill="none" stroke="midnightblue" d="M677.52,-401.61C661.92,-390.03 642.78,-375.83 628.87,-365.5"/>
<polygon fill="midnightblue" stroke="midnightblue" points="675.66,-404.58 685.78,-407.73 679.83,-398.96 675.66,-404.58"/>
</g>
<!-- Node19&#45;&gt;Node16 -->
<g id="edge23" class="edge">
<title>Node19&#45;&gt;Node16</title>
<path fill="none" stroke="midnightblue" d="M692.53,-258.53C679.48,-216.65 652.92,-131.4 642.42,-97.68"/>
<polygon fill="midnightblue" stroke="midnightblue" points="689.22,-259.68 695.54,-268.19 695.91,-257.6 689.22,-259.68"/>
</g>
<!-- Node20 -->
<g id="node20" class="node">
<title>Node20</title>
<g id="a_node20"><a xlink:href="kiosk__window__manager_8cpp.html" target="_top" xlink:title=" ">
<polygon fill="white" stroke="black" points="824.5,-0.5 824.5,-30.5 981.5,-30.5 981.5,-0.5 824.5,-0.5"/>
<text text-anchor="start" x="832.5" y="-18.5" font-family="Arial" font-size="10.00">examples/miral&#45;kiosk</text>
<text text-anchor="middle" x="903" y="-7.5" font-family="Arial" font-size="10.00">/kiosk_window_manager.cpp</text>
</a>
</g>
</g>
<!-- Node19&#45;&gt;Node20 -->
<g id="edge21" class="edge">
<title>Node19&#45;&gt;Node20</title>
<path fill="none" stroke="midnightblue" d="M764.76,-281.85C846.48,-277.11 984.16,-255.25 1049,-165 1088.66,-109.8 991.33,-55.59 936.83,-30.68"/>
<polygon fill="midnightblue" stroke="midnightblue" points="764.4,-278.36 754.6,-282.37 764.76,-285.35 764.4,-278.36"/>
</g>
<!-- Node21 -->
<g id="node21" class="node">
<title>Node21</title>
<g id="a_node21"><a xlink:href="floating__window__manager_8cpp.html" target="_top" xlink:title=" ">
<polygon fill="white" stroke="black" points="623.5,-0.5 623.5,-30.5 806.5,-30.5 806.5,-0.5 623.5,-0.5"/>
<text text-anchor="start" x="631.5" y="-18.5" font-family="Arial" font-size="10.00">examples/example&#45;server</text>
<text text-anchor="middle" x="715" y="-7.5" font-family="Arial" font-size="10.00">&#45;lib/floating_window_manager.cpp</text>
</a>
</g>
</g>
<!-- Node19&#45;&gt;Node21 -->
<g id="edge22" class="edge">
<title>Node19&#45;&gt;Node21</title>
<path fill="none" stroke="midnightblue" d="M701.47,-258.16C703.64,-228.49 708.61,-177.01 719,-134 722.99,-117.46 729.07,-114.76 732,-98 734.38,-84.43 734.23,-80.6 732,-67 729.94,-54.4 725.16,-40.71 721.19,-30.77"/>
<polygon fill="midnightblue" stroke="midnightblue" points="697.96,-258.18 700.77,-268.39 704.95,-258.65 697.96,-258.18"/>
</g>
<!-- Node19&#45;&gt;Node22 -->
<g id="edge24" class="edge">
<title>Node19&#45;&gt;Node22</title>
<path fill="none" stroke="midnightblue" d="M658.25,-264.41C634.3,-254.03 604.68,-241.2 582.48,-231.58"/>
<polygon fill="midnightblue" stroke="midnightblue" points="656.89,-267.63 667.45,-268.4 659.67,-261.21 656.89,-267.63"/>
</g>
<!-- Node22&#45;&gt;Node14 -->
<g id="edge30" class="edge">
<title>Node22&#45;&gt;Node14</title>
<path fill="none" stroke="midnightblue" d="M467.79,-205.32C390.56,-195.59 271.81,-180.19 169,-165 166.06,-164.57 163.06,-164.12 160.04,-163.65"/>
<polygon fill="midnightblue" stroke="midnightblue" points="467.57,-208.82 477.93,-206.6 468.45,-201.88 467.57,-208.82"/>
</g>
<!-- Node22&#45;&gt;Node16 -->
<g id="edge31" class="edge">
<title>Node22&#45;&gt;Node16</title>
<path fill="none" stroke="midnightblue" d="M565.11,-192.83C583.36,-165.47 613.48,-120.28 628.65,-97.52"/>
<polygon fill="midnightblue" stroke="midnightblue" points="562.05,-191.11 559.42,-201.37 567.88,-194.99 562.05,-191.11"/>
</g>
<!-- Node22&#45;&gt;Node20 -->
<g id="edge25" class="edge">
<title>Node22&#45;&gt;Node20</title>
<path fill="none" stroke="midnightblue" d="M632.36,-210.49C708.34,-204.29 814.07,-191.17 846,-165 888.29,-130.34 899.26,-60.46 902.06,-30.58"/>
<polygon fill="midnightblue" stroke="midnightblue" points="632.01,-207.01 622.31,-211.28 632.56,-213.98 632.01,-207.01"/>
</g>
<!-- Node22&#45;&gt;Node21 -->
<g id="edge29" class="edge">
<title>Node22&#45;&gt;Node21</title>
<path fill="none" stroke="midnightblue" d="M545.26,-191.29C538.6,-154.3 528.78,-85.99 543,-67 554.61,-51.49 595.61,-39.12 634.66,-30.51"/>
<polygon fill="midnightblue" stroke="midnightblue" points="541.84,-192.06 547.11,-201.25 548.72,-190.78 541.84,-192.06"/>
</g>
<!-- Node23 -->
<g id="node23" class="node">
<title>Node23</title>
<g id="a_node23"><a xlink:href="decoration__provider_8h.html" target="_top" xlink:title=" ">
<polygon fill="white" stroke="black" points="894.5,-134.5 894.5,-164.5 1039.5,-164.5 1039.5,-134.5 894.5,-134.5"/>
<text text-anchor="start" x="902.5" y="-152.5" font-family="Arial" font-size="10.00">examples/example&#45;server</text>
<text text-anchor="middle" x="967" y="-141.5" font-family="Arial" font-size="10.00">&#45;lib/decoration_provider.h</text>
</a>
</g>
</g>
<!-- Node22&#45;&gt;Node23 -->
<g id="edge26" class="edge">
<title>Node22&#45;&gt;Node23</title>
<path fill="none" stroke="midnightblue" d="M632.19,-203.23C698.98,-193.19 795.62,-178.49 880,-165 884.69,-164.25 889.52,-163.47 894.38,-162.68"/>
<polygon fill="midnightblue" stroke="midnightblue" points="631.51,-199.8 622.14,-204.74 632.55,-206.72 631.51,-199.8"/>
</g>
<!-- Node24 -->
<g id="node24" class="node">
<title>Node24</title>
<g id="a_node24"><a xlink:href="canonical__window__manager_8h.html" target="_top" xlink:title=" ">
<polygon fill="white" stroke="black" points="356,-134.5 356,-164.5 522,-164.5 522,-134.5 356,-134.5"/>
<text text-anchor="start" x="364" y="-152.5" font-family="Arial" font-size="10.00">include/miral/miral</text>
<text text-anchor="middle" x="439" y="-141.5" font-family="Arial" font-size="10.00">/canonical_window_manager.h</text>
</a>
</g>
</g>
<!-- Node22&#45;&gt;Node24 -->
<g id="edge32" class="edge">
<title>Node22&#45;&gt;Node24</title>
<path fill="none" stroke="midnightblue" d="M517.2,-196.3C499.84,-186.12 478.88,-173.85 463.04,-164.58"/>
<polygon fill="midnightblue" stroke="midnightblue" points="515.52,-199.36 525.91,-201.4 519.05,-193.32 515.52,-199.36"/>
</g>
<!-- Node27 -->
<g id="node27" class="node">
<title>Node27</title>
<g id="a_node27"><a xlink:href="minimal__window__manager_8h.html" target="_top" xlink:title=" ">
<polygon fill="white" stroke="black" points="178,-134.5 178,-164.5 338,-164.5 338,-134.5 178,-134.5"/>
<text text-anchor="start" x="186" y="-152.5" font-family="Arial" font-size="10.00">include/miral/miral</text>
<text text-anchor="middle" x="258" y="-141.5" font-family="Arial" font-size="10.00">/minimal_window_manager.h</text>
</a>
</g>
</g>
<!-- Node22&#45;&gt;Node27 -->
<g id="edge36" class="edge">
<title>Node22&#45;&gt;Node27</title>
<path fill="none" stroke="midnightblue" d="M476.99,-199.25C429.05,-188.58 366.95,-174.75 321.14,-164.55"/>
<polygon fill="midnightblue" stroke="midnightblue" points="476.48,-202.72 487,-201.48 478,-195.89 476.48,-202.72"/>
</g>
<!-- Node23&#45;&gt;Node8 -->
<g id="edge27" class="edge">
<title>Node23&#45;&gt;Node8</title>
<path fill="none" stroke="midnightblue" d="M1049.62,-137.15C1138.24,-124.97 1277.78,-105.79 1363.82,-93.97"/>
<polygon fill="midnightblue" stroke="midnightblue" points="1049.04,-133.69 1039.61,-138.52 1049.99,-140.63 1049.04,-133.69"/>
</g>
<!-- Node23&#45;&gt;Node21 -->
<g id="edge28" class="edge">
<title>Node23&#45;&gt;Node21</title>
<path fill="none" stroke="midnightblue" d="M930.98,-129.63C879.83,-102.84 787.3,-54.37 741.77,-30.52"/>
<polygon fill="midnightblue" stroke="midnightblue" points="929.55,-132.83 940.03,-134.37 932.8,-126.63 929.55,-132.83"/>
</g>
<!-- Node25 -->
<g id="node25" class="node">
<title>Node25</title>
<g id="a_node25"><a xlink:href="kiosk__window__manager_8h.html" target="_top" xlink:title=" ">
<polygon fill="white" stroke="black" points="350,-67.5 350,-97.5 496,-97.5 496,-67.5 350,-67.5"/>
<text text-anchor="start" x="358" y="-85.5" font-family="Arial" font-size="10.00">examples/miral&#45;kiosk</text>
<text text-anchor="middle" x="423" y="-74.5" font-family="Arial" font-size="10.00">/kiosk_window_manager.h</text>
</a>
</g>
</g>
<!-- Node24&#45;&gt;Node25 -->
<g id="edge33" class="edge">
<title>Node24&#45;&gt;Node25</title>
<path fill="none" stroke="midnightblue" d="M433.07,-124.4C430.84,-115.37 428.39,-105.41 426.46,-97.58"/>
<polygon fill="midnightblue" stroke="midnightblue" points="429.74,-125.52 435.53,-134.4 436.54,-123.85 429.74,-125.52"/>
</g>
<!-- Node25&#45;&gt;Node20 -->
<g id="edge35" class="edge">
<title>Node25&#45;&gt;Node20</title>
<path fill="none" stroke="midnightblue" d="M506.07,-71.15C602.96,-59.01 757.22,-39.48 815,-31 818.06,-30.55 821.19,-30.08 824.34,-29.6"/>
<polygon fill="midnightblue" stroke="midnightblue" points="505.49,-67.69 496.01,-72.41 506.36,-74.64 505.49,-67.69"/>
</g>
<!-- Node26 -->
<g id="node26" class="node">
<title>Node26</title>
<g id="a_node26"><a xlink:href="kiosk__main_8cpp.html" target="_top" xlink:title=" ">
<polygon fill="white" stroke="black" points="361.5,-0.5 361.5,-30.5 484.5,-30.5 484.5,-0.5 361.5,-0.5"/>
<text text-anchor="start" x="369.5" y="-18.5" font-family="Arial" font-size="10.00">examples/miral&#45;kiosk</text>
<text text-anchor="middle" x="423" y="-7.5" font-family="Arial" font-size="10.00">/kiosk_main.cpp</text>
</a>
</g>
</g>
<!-- Node25&#45;&gt;Node26 -->
<g id="edge34" class="edge">
<title>Node25&#45;&gt;Node26</title>
<path fill="none" stroke="midnightblue" d="M423,-57.11C423,-48.15 423,-38.32 423,-30.58"/>
<polygon fill="midnightblue" stroke="midnightblue" points="419.5,-57.4 423,-67.4 426.5,-57.4 419.5,-57.4"/>
</g>
<!-- Node28 -->
<g id="node28" class="node">
<title>Node28</title>
<g id="a_node28"><a xlink:href="floating__window__manager_8h.html" target="_top" xlink:title=" ">
<polygon fill="white" stroke="black" points="160,-67.5 160,-97.5 332,-97.5 332,-67.5 160,-67.5"/>
<text text-anchor="start" x="168" y="-85.5" font-family="Arial" font-size="10.00">examples/example&#45;server</text>
<text text-anchor="middle" x="246" y="-74.5" font-family="Arial" font-size="10.00">&#45;lib/floating_window_manager.h</text>
</a>
</g>
</g>
<!-- Node27&#45;&gt;Node28 -->
<g id="edge37" class="edge">
<title>Node27&#45;&gt;Node28</title>
<path fill="none" stroke="midnightblue" d="M253.55,-124.4C251.88,-115.37 250.04,-105.41 248.6,-97.58"/>
<polygon fill="midnightblue" stroke="midnightblue" points="250.14,-125.2 255.4,-134.4 257.02,-123.93 250.14,-125.2"/>
</g>
<!-- Node28&#45;&gt;Node15 -->
<g id="edge38" class="edge">
<title>Node28&#45;&gt;Node15</title>
<path fill="none" stroke="midnightblue" d="M220.04,-61.17C207.35,-51.23 192.39,-39.51 180.97,-30.58"/>
<polygon fill="midnightblue" stroke="midnightblue" points="217.96,-63.99 227.99,-67.4 222.28,-58.47 217.96,-63.99"/>
</g>
<!-- Node28&#45;&gt;Node21 -->
<g id="edge39" class="edge">
<title>Node28&#45;&gt;Node21</title>
<path fill="none" stroke="midnightblue" d="M342.38,-66.82C444.39,-52.2 550.17,-38.05 623.49,-28.41"/>
<polygon fill="midnightblue" stroke="midnightblue" points="341.6,-63.39 332.2,-68.28 342.6,-70.32 341.6,-63.39"/>
</g>
<!-- Node29&#45;&gt;Node14 -->
<g id="edge41" class="edge">
<title>Node29&#45;&gt;Node14</title>
<path fill="none" stroke="midnightblue" d="M209.95,-197.96C181.28,-187.48 145.36,-174.37 118.55,-164.58"/>
<polygon fill="midnightblue" stroke="midnightblue" points="208.78,-201.25 219.38,-201.4 211.18,-194.68 208.78,-201.25"/>
</g>
<!-- Node29&#45;&gt;Node24 -->
<g id="edge42" class="edge">
<title>Node29&#45;&gt;Node24</title>
<path fill="none" stroke="midnightblue" d="M306.86,-197.96C336.01,-187.48 372.54,-174.37 399.8,-164.58"/>
<polygon fill="midnightblue" stroke="midnightblue" points="305.5,-194.72 297.27,-201.4 307.87,-201.31 305.5,-194.72"/>
</g>
<!-- Node29&#45;&gt;Node27 -->
<g id="edge43" class="edge">
<title>Node29&#45;&gt;Node27</title>
<path fill="none" stroke="midnightblue" d="M258,-191.11C258,-182.15 258,-172.32 258,-164.58"/>
<polygon fill="midnightblue" stroke="midnightblue" points="254.5,-191.4 258,-201.4 261.5,-191.4 254.5,-191.4"/>
</g>
<!-- Node30&#45;&gt;Node19 -->
<g id="edge45" class="edge">
<title>Node30&#45;&gt;Node19</title>
<path fill="none" stroke="midnightblue" d="M637.76,-329.45C651.61,-319.45 668.02,-307.6 680.51,-298.58"/>
<polygon fill="midnightblue" stroke="midnightblue" points="635.59,-326.7 629.53,-335.4 639.68,-332.38 635.59,-326.7"/>
</g>
<!-- Node32&#45;&gt;Node16 -->
<g id="edge49" class="edge">
<title>Node32&#45;&gt;Node16</title>
<path fill="none" stroke="midnightblue" d="M742.33,-130.27C719.24,-119.92 690.76,-107.15 669.4,-97.58"/>
<polygon fill="midnightblue" stroke="midnightblue" points="740.98,-133.5 751.54,-134.4 743.84,-127.11 740.98,-133.5"/>
</g>
<!-- Node32&#45;&gt;Node21 -->
<g id="edge48" class="edge">
<title>Node32&#45;&gt;Node21</title>
<path fill="none" stroke="midnightblue" d="M781.62,-124.22C779.81,-107.31 775.63,-84.71 766,-67 758.2,-52.66 745.03,-39.77 734.03,-30.61"/>
<polygon fill="midnightblue" stroke="midnightblue" points="778.16,-124.74 782.51,-134.4 785.13,-124.13 778.16,-124.74"/>
</g>
<!-- Node35&#45;&gt;Node19 -->
<g id="edge57" class="edge">
<title>Node35&#45;&gt;Node19</title>
<path fill="none" stroke="midnightblue" d="M838.38,-332.09C807.87,-321.6 769.52,-308.41 740.93,-298.58"/>
<polygon fill="midnightblue" stroke="midnightblue" points="837.4,-335.45 847.99,-335.4 839.67,-328.83 837.4,-335.45"/>
</g>
<!-- Node37&#45;&gt;Node17 -->
<g id="edge61" class="edge">
<title>Node37&#45;&gt;Node17</title>
<path fill="none" stroke="midnightblue" d="M1146.02,-609.77C1109.23,-591.33 1049.98,-563.6 996,-547 930.12,-526.75 852.63,-513.33 797.25,-505.45"/>
<polygon fill="midnightblue" stroke="midnightblue" points="1144.82,-613.09 1155.33,-614.48 1147.98,-606.84 1144.82,-613.09"/>
</g>
<!-- Node38 -->
<g id="node38" class="node">
<title>Node38</title>
<g id="a_node38"><a xlink:href="rectangle__f_8h.html" target="_top" xlink:title=" ">
<polygon fill="white" stroke="black" points="1535,-547.5 1535,-577.5 1681,-577.5 1681,-547.5 1535,-547.5"/>
<text text-anchor="start" x="1543" y="-565.5" font-family="Arial" font-size="10.00">include/core/mir/geometry</text>
<text text-anchor="middle" x="1608" y="-554.5" font-family="Arial" font-size="10.00">/rectangle_f.h</text>
</a>
</g>
</g>
<!-- Node37&#45;&gt;Node38 -->
<g id="edge62" class="edge">
<title>Node37&#45;&gt;Node38</title>
<path fill="none" stroke="midnightblue" d="M1265.29,-616.97C1335.02,-607.15 1437.12,-592.38 1526,-578 1528.85,-577.54 1531.76,-577.06 1534.7,-576.57"/>
<polygon fill="midnightblue" stroke="midnightblue" points="1264.66,-613.52 1255.24,-618.38 1265.63,-620.45 1264.66,-613.52"/>
</g>
<!-- Node39&#45;&gt;Node38 -->
<g id="edge64" class="edge">
<title>Node39&#45;&gt;Node38</title>
<path fill="none" stroke="midnightblue" d="M1515.29,-609.85C1535.85,-599.58 1560.95,-587.03 1579.85,-577.58"/>
<polygon fill="midnightblue" stroke="midnightblue" points="1513.59,-606.79 1506.21,-614.4 1516.72,-613.05 1513.59,-606.79"/>
</g>
</g>
</svg>
