<?xml version="1.0" encoding="UTF-8" standalone="no"?>
<!DOCTYPE svg PUBLIC "-//W3C//DTD SVG 1.1//EN"
 "http://www.w3.org/Graphics/SVG/1.1/DTD/svg11.dtd">
<!-- Generated by graphviz version 2.43.0 (0)
 -->
<!-- Title: include/core/mir/geometry/size.h Pages: 1 -->
<svg width="1947pt" height="653pt"
 viewBox="0.00 0.00 1947.45 653.00" xmlns="http://www.w3.org/2000/svg" xmlns:xlink="http://www.w3.org/1999/xlink">
<g id="graph0" class="graph" transform="scale(1 1) rotate(0) translate(4 649)">
<title>include/core/mir/geometry/size.h</title>
<polygon fill="white" stroke="transparent" points="-4,4 -4,-649 1943.45,-649 1943.45,4 -4,4"/>
<!-- Node1 -->
<g id="node1" class="node">
<title>Node1</title>
<g id="a_node1"><a xlink:title=" ">
<polygon fill="#bfbfbf" stroke="black" points="1361.95,-614.5 1361.95,-644.5 1507.95,-644.5 1507.95,-614.5 1361.95,-614.5"/>
<text text-anchor="start" x="1369.95" y="-632.5" font-family="Arial" font-size="10.00">include/core/mir/geometry</text>
<text text-anchor="middle" x="1434.95" y="-621.5" font-family="Arial" font-size="10.00">/size.h</text>
</a>
</g>
</g>
<!-- Node2 -->
<g id="node2" class="node">
<title>Node2</title>
<g id="a_node2"><a xlink:href="wayland__surface_8h.html" target="_top" xlink:title=" ">
<polygon fill="white" stroke="black" points="507.45,-547.5 507.45,-577.5 652.45,-577.5 652.45,-547.5 507.45,-547.5"/>
<text text-anchor="start" x="515.45" y="-565.5" font-family="Arial" font-size="10.00">examples/example&#45;server</text>
<text text-anchor="middle" x="579.95" y="-554.5" font-family="Arial" font-size="10.00">&#45;lib/wayland_surface.h</text>
</a>
</g>
</g>
<!-- Node1&#45;&gt;Node2 -->
<g id="edge1" class="edge">
<title>Node1&#45;&gt;Node2</title>
<path fill="none" stroke="midnightblue" d="M1351.7,-622.17C1184.53,-609.46 810.54,-581.03 652.58,-569.02"/>
<polygon fill="midnightblue" stroke="midnightblue" points="1351.44,-625.66 1361.68,-622.93 1351.98,-618.68 1351.44,-625.66"/>
</g>
<!-- Node10 -->
<g id="node10" class="node">
<title>Node10</title>
<g id="a_node10"><a xlink:href="wayland__shm_8h.html" target="_top" xlink:title=" ">
<polygon fill="white" stroke="black" points="112.45,-547.5 112.45,-577.5 257.45,-577.5 257.45,-547.5 112.45,-547.5"/>
<text text-anchor="start" x="120.45" y="-565.5" font-family="Arial" font-size="10.00">examples/example&#45;server</text>
<text text-anchor="middle" x="184.95" y="-554.5" font-family="Arial" font-size="10.00">&#45;lib/wayland_shm.h</text>
</a>
</g>
</g>
<!-- Node1&#45;&gt;Node10 -->
<g id="edge9" class="edge">
<title>Node1&#45;&gt;Node10</title>
<path fill="none" stroke="midnightblue" d="M1351.87,-624.18C1121.18,-612.18 475.4,-578.6 257.68,-567.28"/>
<polygon fill="midnightblue" stroke="midnightblue" points="1351.71,-627.68 1361.88,-624.7 1352.08,-620.69 1351.71,-627.68"/>
</g>
<!-- Node12 -->
<g id="node12" class="node">
<title>Node12</title>
<g id="a_node12"><a xlink:href="displacement_8h.html" target="_top" xlink:title=" ">
<polygon fill="white" stroke="black" points="1059.95,-547.5 1059.95,-577.5 1205.95,-577.5 1205.95,-547.5 1059.95,-547.5"/>
<text text-anchor="start" x="1067.95" y="-565.5" font-family="Arial" font-size="10.00">include/core/mir/geometry</text>
<text text-anchor="middle" x="1132.95" y="-554.5" font-family="Arial" font-size="10.00">/displacement.h</text>
</a>
</g>
</g>
<!-- Node1&#45;&gt;Node12 -->
<g id="edge13" class="edge">
<title>Node1&#45;&gt;Node12</title>
<path fill="none" stroke="midnightblue" d="M1359.75,-612.32C1310.12,-601.63 1245.73,-587.77 1198.25,-577.55"/>
<polygon fill="midnightblue" stroke="midnightblue" points="1359.28,-615.79 1369.79,-614.48 1360.75,-608.95 1359.28,-615.79"/>
</g>
<!-- Node16 -->
<g id="node16" class="node">
<title>Node16</title>
<g id="a_node16"><a xlink:href="rectangle_8h.html" target="_top" xlink:title=" ">
<polygon fill="white" stroke="black" points="1361.95,-480.5 1361.95,-510.5 1507.95,-510.5 1507.95,-480.5 1361.95,-480.5"/>
<text text-anchor="start" x="1369.95" y="-498.5" font-family="Arial" font-size="10.00">include/core/mir/geometry</text>
<text text-anchor="middle" x="1434.95" y="-487.5" font-family="Arial" font-size="10.00">/rectangle.h</text>
</a>
</g>
</g>
<!-- Node1&#45;&gt;Node16 -->
<g id="edge54" class="edge">
<title>Node1&#45;&gt;Node16</title>
<path fill="none" stroke="midnightblue" d="M1434.95,-604.02C1434.95,-576.51 1434.95,-532.79 1434.95,-510.52"/>
<polygon fill="midnightblue" stroke="midnightblue" points="1431.45,-604.37 1434.95,-614.37 1438.45,-604.37 1431.45,-604.37"/>
</g>
<!-- Node33 -->
<g id="node33" class="node">
<title>Node33</title>
<g id="a_node33"><a xlink:href="surface__observer_8h.html" target="_top" xlink:title=" ">
<polygon fill="white" stroke="black" points="1652.45,-408 1652.45,-438 1767.45,-438 1767.45,-408 1652.45,-408"/>
<text text-anchor="start" x="1660.45" y="-426" font-family="Arial" font-size="10.00">include/miroil/miroil</text>
<text text-anchor="middle" x="1709.95" y="-415" font-family="Arial" font-size="10.00">/surface_observer.h</text>
</a>
</g>
</g>
<!-- Node1&#45;&gt;Node33 -->
<g id="edge58" class="edge">
<title>Node1&#45;&gt;Node33</title>
<path fill="none" stroke="midnightblue" d="M1462.15,-608.27C1517.72,-566.95 1643.08,-473.72 1690.91,-438.15"/>
<polygon fill="midnightblue" stroke="midnightblue" points="1459.79,-605.67 1453.85,-614.44 1463.96,-611.29 1459.79,-605.67"/>
</g>
<!-- Node34 -->
<g id="node34" class="node">
<title>Node34</title>
<g id="a_node34"><a xlink:href="window_8h.html" target="_top" xlink:title=" ">
<polygon fill="white" stroke="black" points="1551.45,-335.5 1551.45,-365.5 1660.45,-365.5 1660.45,-335.5 1551.45,-335.5"/>
<text text-anchor="start" x="1559.45" y="-353.5" font-family="Arial" font-size="10.00">include/miral/miral</text>
<text text-anchor="middle" x="1605.95" y="-342.5" font-family="Arial" font-size="10.00">/window.h</text>
</a>
</g>
</g>
<!-- Node1&#45;&gt;Node34 -->
<g id="edge55" class="edge">
<title>Node1&#45;&gt;Node34</title>
<path fill="none" stroke="midnightblue" d="M1511.2,-611.79C1593.28,-589.26 1719.64,-540.32 1775.95,-444 1785.37,-427.88 1787.11,-416.96 1775.95,-402 1762,-383.31 1705.02,-369.05 1660.83,-360.53"/>
<polygon fill="midnightblue" stroke="midnightblue" points="1510.17,-608.45 1501.41,-614.41 1511.98,-615.21 1510.17,-608.45"/>
</g>
<!-- Node35 -->
<g id="node35" class="node">
<title>Node35</title>
<g id="a_node35"><a xlink:href="mirbuffer_8h.html" target="_top" xlink:title=" ">
<polygon fill="white" stroke="black" points="1824.45,-547.5 1824.45,-577.5 1939.45,-577.5 1939.45,-547.5 1824.45,-547.5"/>
<text text-anchor="start" x="1832.45" y="-565.5" font-family="Arial" font-size="10.00">include/miroil/miroil</text>
<text text-anchor="middle" x="1881.95" y="-554.5" font-family="Arial" font-size="10.00">/mirbuffer.h</text>
</a>
</g>
</g>
<!-- Node1&#45;&gt;Node35 -->
<g id="edge57" class="edge">
<title>Node1&#45;&gt;Node35</title>
<path fill="none" stroke="midnightblue" d="M1518.11,-618.87C1594.26,-609.68 1709.97,-594.78 1809.95,-578 1814.6,-577.22 1819.41,-576.36 1824.24,-575.46"/>
<polygon fill="midnightblue" stroke="midnightblue" points="1517.61,-615.41 1508.1,-620.07 1518.45,-622.36 1517.61,-615.41"/>
</g>
<!-- Node3 -->
<g id="node3" class="node">
<title>Node3</title>
<g id="a_node3"><a xlink:href="miregl_8h.html" target="_top" xlink:title=" ">
<polygon fill="white" stroke="black" points="519.95,-480.5 519.95,-510.5 639.95,-510.5 639.95,-480.5 519.95,-480.5"/>
<text text-anchor="start" x="527.95" y="-498.5" font-family="Arial" font-size="10.00">examples/miral&#45;shell</text>
<text text-anchor="middle" x="579.95" y="-487.5" font-family="Arial" font-size="10.00">/spinner/miregl.h</text>
</a>
</g>
</g>
<!-- Node2&#45;&gt;Node3 -->
<g id="edge2" class="edge">
<title>Node2&#45;&gt;Node3</title>
<path fill="none" stroke="midnightblue" d="M579.95,-537.11C579.95,-528.15 579.95,-518.32 579.95,-510.58"/>
<polygon fill="midnightblue" stroke="midnightblue" points="576.45,-537.4 579.95,-547.4 583.45,-537.4 576.45,-537.4"/>
</g>
<!-- Node7 -->
<g id="node7" class="node">
<title>Node7</title>
<g id="a_node7"><a xlink:href="decoration__provider_8cpp.html" target="_top" xlink:title=" ">
<polygon fill="white" stroke="black" points="591.95,-67.5 591.95,-97.5 743.95,-97.5 743.95,-67.5 591.95,-67.5"/>
<text text-anchor="start" x="599.95" y="-85.5" font-family="Arial" font-size="10.00">examples/example&#45;server</text>
<text text-anchor="middle" x="667.95" y="-74.5" font-family="Arial" font-size="10.00">&#45;lib/decoration_provider.cpp</text>
</a>
</g>
</g>
<!-- Node2&#45;&gt;Node7 -->
<g id="edge6" class="edge">
<title>Node2&#45;&gt;Node7</title>
<path fill="none" stroke="midnightblue" d="M616.64,-541.9C628.6,-533.82 640.87,-523.41 648.95,-511 670.54,-477.83 667.95,-463.58 667.95,-424 667.95,-424 667.95,-424 667.95,-215.5 667.95,-172.65 667.95,-121.97 667.95,-97.76"/>
<polygon fill="midnightblue" stroke="midnightblue" points="614.61,-539.05 608.06,-547.37 618.37,-544.95 614.61,-539.05"/>
</g>
<!-- Node8 -->
<g id="node8" class="node">
<title>Node8</title>
<g id="a_node8"><a xlink:href="sw__splash_8cpp.html" target="_top" xlink:title=" ">
<polygon fill="white" stroke="black" points="193.45,-480.5 193.45,-510.5 338.45,-510.5 338.45,-480.5 193.45,-480.5"/>
<text text-anchor="start" x="201.45" y="-498.5" font-family="Arial" font-size="10.00">examples/example&#45;server</text>
<text text-anchor="middle" x="265.95" y="-487.5" font-family="Arial" font-size="10.00">&#45;lib/sw_splash.cpp</text>
</a>
</g>
</g>
<!-- Node2&#45;&gt;Node8 -->
<g id="edge7" class="edge">
<title>Node2&#45;&gt;Node8</title>
<path fill="none" stroke="midnightblue" d="M502.09,-545.38C450.44,-534.69 383.32,-520.8 333.84,-510.55"/>
<polygon fill="midnightblue" stroke="midnightblue" points="501.7,-548.88 512.2,-547.48 503.12,-542.02 501.7,-548.88"/>
</g>
<!-- Node9 -->
<g id="node9" class="node">
<title>Node9</title>
<g id="a_node9"><a xlink:href="wayland__surface_8cpp.html" target="_top" xlink:title=" ">
<polygon fill="white" stroke="black" points="356.45,-480.5 356.45,-510.5 501.45,-510.5 501.45,-480.5 356.45,-480.5"/>
<text text-anchor="start" x="364.45" y="-498.5" font-family="Arial" font-size="10.00">examples/example&#45;server</text>
<text text-anchor="middle" x="428.95" y="-487.5" font-family="Arial" font-size="10.00">&#45;lib/wayland_surface.cpp</text>
</a>
</g>
</g>
<!-- Node2&#45;&gt;Node9 -->
<g id="edge8" class="edge">
<title>Node2&#45;&gt;Node9</title>
<path fill="none" stroke="midnightblue" d="M537.92,-543.41C513.81,-533.03 483.99,-520.2 461.65,-510.58"/>
<polygon fill="midnightblue" stroke="midnightblue" points="536.61,-546.66 547.18,-547.4 539.38,-540.23 536.61,-546.66"/>
</g>
<!-- Node4 -->
<g id="node4" class="node">
<title>Node4</title>
<g id="a_node4"><a xlink:href="eglapp_8cpp.html" target="_top" xlink:title=" ">
<polygon fill="white" stroke="black" points="233.95,-408 233.95,-438 353.95,-438 353.95,-408 233.95,-408"/>
<text text-anchor="start" x="241.95" y="-426" font-family="Arial" font-size="10.00">examples/miral&#45;shell</text>
<text text-anchor="middle" x="293.95" y="-415" font-family="Arial" font-size="10.00">/spinner/eglapp.cpp</text>
</a>
</g>
</g>
<!-- Node3&#45;&gt;Node4 -->
<g id="edge3" class="edge">
<title>Node3&#45;&gt;Node4</title>
<path fill="none" stroke="midnightblue" d="M509.87,-479.19C467.25,-469.63 411.8,-456.76 362.95,-444 355.83,-442.14 348.32,-440.08 340.99,-438"/>
<polygon fill="midnightblue" stroke="midnightblue" points="509.34,-482.66 519.87,-481.42 510.87,-475.83 509.34,-482.66"/>
</g>
<!-- Node5 -->
<g id="node5" class="node">
<title>Node5</title>
<g id="a_node5"><a xlink:href="eglspinner_8cpp.html" target="_top" xlink:title=" ">
<polygon fill="white" stroke="black" points="372.45,-408 372.45,-438 501.45,-438 501.45,-408 372.45,-408"/>
<text text-anchor="start" x="380.45" y="-426" font-family="Arial" font-size="10.00">examples/miral&#45;shell</text>
<text text-anchor="middle" x="436.95" y="-415" font-family="Arial" font-size="10.00">/spinner/eglspinner.cpp</text>
</a>
</g>
</g>
<!-- Node3&#45;&gt;Node5 -->
<g id="edge4" class="edge">
<title>Node3&#45;&gt;Node5</title>
<path fill="none" stroke="midnightblue" d="M542.17,-475.87C518.13,-464.02 487.5,-448.92 465.49,-438.07"/>
<polygon fill="midnightblue" stroke="midnightblue" points="540.84,-479.12 551.35,-480.4 543.93,-472.84 540.84,-479.12"/>
</g>
<!-- Node6 -->
<g id="node6" class="node">
<title>Node6</title>
<g id="a_node6"><a xlink:href="miregl_8cpp.html" target="_top" xlink:title=" ">
<polygon fill="white" stroke="black" points="519.95,-408 519.95,-438 639.95,-438 639.95,-408 519.95,-408"/>
<text text-anchor="start" x="527.95" y="-426" font-family="Arial" font-size="10.00">examples/miral&#45;shell</text>
<text text-anchor="middle" x="579.95" y="-415" font-family="Arial" font-size="10.00">/spinner/miregl.cpp</text>
</a>
</g>
</g>
<!-- Node3&#45;&gt;Node6 -->
<g id="edge5" class="edge">
<title>Node3&#45;&gt;Node6</title>
<path fill="none" stroke="midnightblue" d="M579.95,-470.23C579.95,-459.57 579.95,-447.41 579.95,-438.25"/>
<polygon fill="midnightblue" stroke="midnightblue" points="576.45,-470.23 579.95,-480.23 583.45,-470.23 576.45,-470.23"/>
</g>
<!-- Node10&#45;&gt;Node7 -->
<g id="edge10" class="edge">
<title>Node10&#45;&gt;Node7</title>
<path fill="none" stroke="midnightblue" d="M102.52,-553.4C73.05,-546.47 41.96,-533.85 20.95,-511 -5.84,-481.87 1.95,-463.58 1.95,-424 1.95,-424 1.95,-424 1.95,-215.5 1.95,-96.37 417.13,-83.07 591.87,-82.75"/>
<polygon fill="midnightblue" stroke="midnightblue" points="101.93,-556.85 112.44,-555.53 103.4,-550 101.93,-556.85"/>
</g>
<!-- Node10&#45;&gt;Node8 -->
<g id="edge11" class="edge">
<title>Node10&#45;&gt;Node8</title>
<path fill="none" stroke="midnightblue" d="M210.64,-540.88C222.95,-531.01 237.37,-519.43 248.41,-510.58"/>
<polygon fill="midnightblue" stroke="midnightblue" points="208.13,-538.41 202.52,-547.4 212.51,-543.87 208.13,-538.41"/>
</g>
<!-- Node11 -->
<g id="node11" class="node">
<title>Node11</title>
<g id="a_node11"><a xlink:href="wayland__shm_8cpp.html" target="_top" xlink:title=" ">
<polygon fill="white" stroke="black" points="30.45,-480.5 30.45,-510.5 175.45,-510.5 175.45,-480.5 30.45,-480.5"/>
<text text-anchor="start" x="38.45" y="-498.5" font-family="Arial" font-size="10.00">examples/example&#45;server</text>
<text text-anchor="middle" x="102.95" y="-487.5" font-family="Arial" font-size="10.00">&#45;lib/wayland_shm.cpp</text>
</a>
</g>
</g>
<!-- Node10&#45;&gt;Node11 -->
<g id="edge12" class="edge">
<title>Node10&#45;&gt;Node11</title>
<path fill="none" stroke="midnightblue" d="M159.3,-541.17C146.76,-531.23 131.98,-519.51 120.71,-510.58"/>
<polygon fill="midnightblue" stroke="midnightblue" points="157.14,-543.93 167.15,-547.4 161.49,-538.44 157.14,-543.93"/>
</g>
<!-- Node13 -->
<g id="node13" class="node">
<title>Node13</title>
<g id="a_node13"><a xlink:href="tiling__window__manager_8h.html" target="_top" xlink:title=" ">
<polygon fill="white" stroke="black" points="695.95,-134.5 695.95,-164.5 855.95,-164.5 855.95,-134.5 695.95,-134.5"/>
<text text-anchor="start" x="703.95" y="-152.5" font-family="Arial" font-size="10.00">examples/example&#45;server</text>
<text text-anchor="middle" x="775.95" y="-141.5" font-family="Arial" font-size="10.00">&#45;lib/tiling_window_manager.h</text>
</a>
</g>
</g>
<!-- Node12&#45;&gt;Node13 -->
<g id="edge14" class="edge">
<title>Node12&#45;&gt;Node13</title>
<path fill="none" stroke="midnightblue" d="M1049.48,-552.73C972.46,-539.47 869.95,-506.35 869.95,-424 869.95,-424 869.95,-424 869.95,-282.5 869.95,-231.58 822.96,-186.68 795.42,-164.74"/>
<polygon fill="midnightblue" stroke="midnightblue" points="1049.25,-556.24 1059.69,-554.4 1050.38,-549.33 1049.25,-556.24"/>
</g>
<!-- Node12&#45;&gt;Node16 -->
<g id="edge17" class="edge">
<title>Node12&#45;&gt;Node16</title>
<path fill="none" stroke="midnightblue" d="M1208.14,-545.32C1257.78,-534.63 1322.16,-520.77 1369.65,-510.55"/>
<polygon fill="midnightblue" stroke="midnightblue" points="1207.14,-541.95 1198.11,-547.48 1208.62,-548.79 1207.14,-541.95"/>
</g>
<!-- Node21 -->
<g id="node21" class="node">
<title>Node21</title>
<g id="a_node21"><a xlink:href="window__manager__tools_8h.html" target="_top" xlink:title=" ">
<polygon fill="white" stroke="black" points="1236.95,-201.5 1236.95,-231.5 1380.95,-231.5 1380.95,-201.5 1236.95,-201.5"/>
<text text-anchor="start" x="1244.95" y="-219.5" font-family="Arial" font-size="10.00">include/miral/miral</text>
<text text-anchor="middle" x="1308.95" y="-208.5" font-family="Arial" font-size="10.00">/window_manager_tools.h</text>
</a>
</g>
</g>
<!-- Node12&#45;&gt;Node21 -->
<g id="edge52" class="edge">
<title>Node12&#45;&gt;Node21</title>
<path fill="none" stroke="midnightblue" d="M1127.55,-537.28C1121.93,-509.92 1113.95,-464 1113.95,-424 1113.95,-424 1113.95,-424 1113.95,-349.5 1113.95,-283.89 1190.6,-248.66 1247.78,-231.51"/>
<polygon fill="midnightblue" stroke="midnightblue" points="1124.14,-538.08 1129.64,-547.14 1130.99,-536.63 1124.14,-538.08"/>
</g>
<!-- Node28 -->
<g id="node28" class="node">
<title>Node28</title>
<g id="a_node28"><a xlink:href="window__management__policy_8h.html" target="_top" xlink:title=" ">
<polygon fill="white" stroke="black" points="990.95,-201.5 990.95,-231.5 1160.95,-231.5 1160.95,-201.5 990.95,-201.5"/>
<text text-anchor="start" x="998.95" y="-219.5" font-family="Arial" font-size="10.00">include/miral/miral</text>
<text text-anchor="middle" x="1075.95" y="-208.5" font-family="Arial" font-size="10.00">/window_management_policy.h</text>
</a>
</g>
</g>
<!-- Node12&#45;&gt;Node28 -->
<g id="edge51" class="edge">
<title>Node12&#45;&gt;Node28</title>
<path fill="none" stroke="midnightblue" d="M1116.08,-538.97C1110.35,-530.52 1104.3,-520.64 1099.95,-511 1083.45,-474.44 1075.95,-464.11 1075.95,-424 1075.95,-424 1075.95,-424 1075.95,-349.5 1075.95,-306.65 1075.95,-255.97 1075.95,-231.76"/>
<polygon fill="midnightblue" stroke="midnightblue" points="1113.24,-541.01 1121.86,-547.17 1118.96,-536.98 1113.24,-541.01"/>
</g>
<!-- Node29 -->
<g id="node29" class="node">
<title>Node29</title>
<g id="a_node29"><a xlink:href="window__specification_8h.html" target="_top" xlink:title=" ">
<polygon fill="white" stroke="black" points="1309.45,-335.5 1309.45,-365.5 1442.45,-365.5 1442.45,-335.5 1309.45,-335.5"/>
<text text-anchor="start" x="1317.45" y="-353.5" font-family="Arial" font-size="10.00">include/miral/miral</text>
<text text-anchor="middle" x="1375.95" y="-342.5" font-family="Arial" font-size="10.00">/window_specification.h</text>
</a>
</g>
</g>
<!-- Node12&#45;&gt;Node29 -->
<g id="edge53" class="edge">
<title>Node12&#45;&gt;Node29</title>
<path fill="none" stroke="midnightblue" d="M1131.46,-537.04C1130.75,-502.14 1134.94,-438.28 1170.95,-402 1190.28,-382.52 1257.14,-368.55 1309.31,-360.31"/>
<polygon fill="midnightblue" stroke="midnightblue" points="1127.97,-537.41 1131.83,-547.28 1134.96,-537.16 1127.97,-537.41"/>
</g>
<!-- Node14 -->
<g id="node14" class="node">
<title>Node14</title>
<g id="a_node14"><a xlink:href="shell__main_8cpp.html" target="_top" xlink:title=" ">
<polygon fill="white" stroke="black" points="748.95,-0.5 748.95,-30.5 868.95,-30.5 868.95,-0.5 748.95,-0.5"/>
<text text-anchor="start" x="756.95" y="-18.5" font-family="Arial" font-size="10.00">examples/miral&#45;shell</text>
<text text-anchor="middle" x="808.95" y="-7.5" font-family="Arial" font-size="10.00">/shell_main.cpp</text>
</a>
</g>
</g>
<!-- Node13&#45;&gt;Node14 -->
<g id="edge15" class="edge">
<title>Node13&#45;&gt;Node14</title>
<path fill="none" stroke="midnightblue" d="M781.98,-124.39C788.85,-96.9 799.85,-52.89 805.44,-30.52"/>
<polygon fill="midnightblue" stroke="midnightblue" points="778.51,-123.82 779.48,-134.37 785.3,-125.52 778.51,-123.82"/>
</g>
<!-- Node15 -->
<g id="node15" class="node">
<title>Node15</title>
<g id="a_node15"><a xlink:href="tiling__window__manager_8cpp.html" target="_top" xlink:title=" ">
<polygon fill="white" stroke="black" points="1413.45,-67.5 1413.45,-97.5 1584.45,-97.5 1584.45,-67.5 1413.45,-67.5"/>
<text text-anchor="start" x="1421.45" y="-85.5" font-family="Arial" font-size="10.00">examples/example&#45;server</text>
<text text-anchor="middle" x="1498.95" y="-74.5" font-family="Arial" font-size="10.00">&#45;lib/tiling_window_manager.cpp</text>
</a>
</g>
</g>
<!-- Node13&#45;&gt;Node15 -->
<g id="edge16" class="edge">
<title>Node13&#45;&gt;Node15</title>
<path fill="none" stroke="midnightblue" d="M866.16,-133.92C1068.11,-109.82 1293.36,-95.01 1413.35,-88.08"/>
<polygon fill="midnightblue" stroke="midnightblue" points="865.47,-130.48 855.96,-135.15 866.3,-137.43 865.47,-130.48"/>
</g>
<!-- Node17 -->
<g id="node17" class="node">
<title>Node17</title>
<g id="a_node17"><a xlink:href="rectangles_8h.html" target="_top" xlink:title=" ">
<polygon fill="white" stroke="black" points="1449.95,-408 1449.95,-438 1595.95,-438 1595.95,-408 1449.95,-408"/>
<text text-anchor="start" x="1457.95" y="-426" font-family="Arial" font-size="10.00">include/core/mir/geometry</text>
<text text-anchor="middle" x="1522.95" y="-415" font-family="Arial" font-size="10.00">/rectangles.h</text>
</a>
</g>
</g>
<!-- Node16&#45;&gt;Node17 -->
<g id="edge18" class="edge">
<title>Node16&#45;&gt;Node17</title>
<path fill="none" stroke="midnightblue" d="M1460.8,-473.79C1475.18,-462.27 1492.7,-448.23 1505.47,-438"/>
<polygon fill="midnightblue" stroke="midnightblue" points="1458.37,-471.25 1452.76,-480.23 1462.75,-476.71 1458.37,-471.25"/>
</g>
<!-- Node30 -->
<g id="node30" class="node">
<title>Node30</title>
<g id="a_node30"><a xlink:href="output_8h.html" target="_top" xlink:title=" ">
<polygon fill="white" stroke="black" points="1322.45,-408 1322.45,-438 1431.45,-438 1431.45,-408 1322.45,-408"/>
<text text-anchor="start" x="1330.45" y="-426" font-family="Arial" font-size="10.00">include/miral/miral</text>
<text text-anchor="middle" x="1376.95" y="-415" font-family="Arial" font-size="10.00">/output.h</text>
</a>
</g>
</g>
<!-- Node16&#45;&gt;Node30 -->
<g id="edge45" class="edge">
<title>Node16&#45;&gt;Node30</title>
<path fill="none" stroke="midnightblue" d="M1416.61,-472.21C1407.47,-461.1 1396.68,-447.99 1388.67,-438.25"/>
<polygon fill="midnightblue" stroke="midnightblue" points="1414.15,-474.73 1423.21,-480.23 1419.56,-470.29 1414.15,-474.73"/>
</g>
<!-- Node31 -->
<g id="node31" class="node">
<title>Node31</title>
<g id="a_node31"><a xlink:href="zone_8h.html" target="_top" xlink:title=" ">
<polygon fill="white" stroke="black" points="1679.45,-134.5 1679.45,-164.5 1788.45,-164.5 1788.45,-134.5 1679.45,-134.5"/>
<text text-anchor="start" x="1687.45" y="-152.5" font-family="Arial" font-size="10.00">include/miral/miral</text>
<text text-anchor="middle" x="1733.95" y="-141.5" font-family="Arial" font-size="10.00">/zone.h</text>
</a>
</g>
</g>
<!-- Node16&#45;&gt;Node31 -->
<g id="edge46" class="edge">
<title>Node16&#45;&gt;Node31</title>
<path fill="none" stroke="midnightblue" d="M1517.89,-480.32C1547.07,-472.71 1579.02,-461.22 1604.95,-444 1614.29,-437.8 1663.67,-375.89 1668.95,-366 1706.56,-295.49 1725.56,-200.11 1731.68,-164.59"/>
<polygon fill="midnightblue" stroke="midnightblue" points="1516.97,-476.94 1508.11,-482.75 1518.66,-483.73 1516.97,-476.94"/>
</g>
<!-- Node32 -->
<g id="node32" class="node">
<title>Node32</title>
<g id="a_node32"><a xlink:href="display__configuration__storage_8h.html" target="_top" xlink:title=" ">
<polygon fill="white" stroke="black" points="1179.95,-402.5 1179.95,-443.5 1303.95,-443.5 1303.95,-402.5 1179.95,-402.5"/>
<text text-anchor="start" x="1187.95" y="-431.5" font-family="Arial" font-size="10.00">include/miroil/miroil</text>
<text text-anchor="start" x="1187.95" y="-420.5" font-family="Arial" font-size="10.00">/display_configuration</text>
<text text-anchor="middle" x="1241.95" y="-409.5" font-family="Arial" font-size="10.00">_storage.h</text>
</a>
</g>
</g>
<!-- Node16&#45;&gt;Node32 -->
<g id="edge49" class="edge">
<title>Node16&#45;&gt;Node32</title>
<path fill="none" stroke="midnightblue" d="M1386.86,-476.93C1359.09,-466.79 1324.1,-454.01 1295.46,-443.55"/>
<polygon fill="midnightblue" stroke="midnightblue" points="1385.76,-480.26 1396.36,-480.4 1388.16,-473.68 1385.76,-480.26"/>
</g>
<!-- Node16&#45;&gt;Node33 -->
<g id="edge50" class="edge">
<title>Node16&#45;&gt;Node33</title>
<path fill="none" stroke="midnightblue" d="M1503.03,-478.05C1542.5,-468.39 1593.11,-455.8 1637.95,-444 1645.1,-442.12 1652.63,-440.08 1660.03,-438.05"/>
<polygon fill="midnightblue" stroke="midnightblue" points="1502.13,-474.67 1493.24,-480.44 1503.79,-481.47 1502.13,-474.67"/>
</g>
<!-- Node18 -->
<g id="node18" class="node">
<title>Node18</title>
<g id="a_node18"><a xlink:href="window__info_8h.html" target="_top" xlink:title=" ">
<polygon fill="white" stroke="black" points="1499.45,-268.5 1499.45,-298.5 1608.45,-298.5 1608.45,-268.5 1499.45,-268.5"/>
<text text-anchor="start" x="1507.45" y="-286.5" font-family="Arial" font-size="10.00">include/miral/miral</text>
<text text-anchor="middle" x="1553.95" y="-275.5" font-family="Arial" font-size="10.00">/window_info.h</text>
</a>
</g>
</g>
<!-- Node17&#45;&gt;Node18 -->
<g id="edge19" class="edge">
<title>Node17&#45;&gt;Node18</title>
<path fill="none" stroke="midnightblue" d="M1528.09,-397.89C1531.85,-380.41 1537.11,-356.22 1541.95,-335 1544.75,-322.7 1548.08,-308.75 1550.52,-298.63"/>
<polygon fill="midnightblue" stroke="midnightblue" points="1524.64,-397.31 1525.96,-407.82 1531.48,-398.77 1524.64,-397.31"/>
</g>
<!-- Node17&#45;&gt;Node28 -->
<g id="edge39" class="edge">
<title>Node17&#45;&gt;Node28</title>
<path fill="none" stroke="midnightblue" d="M1509.4,-399.13C1496.65,-379.46 1475.81,-351.71 1450.95,-335 1362.18,-275.36 1241.52,-244.71 1161.31,-229.9"/>
<polygon fill="midnightblue" stroke="midnightblue" points="1506.56,-401.18 1514.84,-407.79 1512.49,-397.46 1506.56,-401.18"/>
</g>
<!-- Node17&#45;&gt;Node29 -->
<g id="edge43" class="edge">
<title>Node17&#45;&gt;Node29</title>
<path fill="none" stroke="midnightblue" d="M1484.44,-403.53C1459.68,-391.66 1428.01,-376.47 1405.29,-365.57"/>
<polygon fill="midnightblue" stroke="midnightblue" points="1483.02,-406.73 1493.55,-407.9 1486.05,-400.42 1483.02,-406.73"/>
</g>
<!-- Node18&#45;&gt;Node15 -->
<g id="edge22" class="edge">
<title>Node18&#45;&gt;Node15</title>
<path fill="none" stroke="midnightblue" d="M1547.32,-258.53C1535.75,-216.65 1512.19,-131.4 1502.87,-97.68"/>
<polygon fill="midnightblue" stroke="midnightblue" points="1543.95,-259.48 1549.99,-268.19 1550.7,-257.62 1543.95,-259.48"/>
</g>
<!-- Node19 -->
<g id="node19" class="node">
<title>Node19</title>
<g id="a_node19"><a xlink:href="kiosk__window__manager_8cpp.html" target="_top" xlink:title=" ">
<polygon fill="white" stroke="black" points="1193.45,-0.5 1193.45,-30.5 1350.45,-30.5 1350.45,-0.5 1193.45,-0.5"/>
<text text-anchor="start" x="1201.45" y="-18.5" font-family="Arial" font-size="10.00">examples/miral&#45;kiosk</text>
<text text-anchor="middle" x="1271.95" y="-7.5" font-family="Arial" font-size="10.00">/kiosk_window_manager.cpp</text>
</a>
</g>
</g>
<!-- Node18&#45;&gt;Node19 -->
<g id="edge20" class="edge">
<title>Node18&#45;&gt;Node19</title>
<path fill="none" stroke="midnightblue" d="M1568.61,-259.79C1594.37,-216.75 1640.69,-122.65 1592.95,-67 1558.69,-27.07 1410.9,-39.32 1358.95,-31 1356.23,-30.56 1353.46,-30.12 1350.66,-29.66"/>
<polygon fill="midnightblue" stroke="midnightblue" points="1565.57,-258.05 1563.32,-268.4 1571.54,-261.71 1565.57,-258.05"/>
</g>
<!-- Node20 -->
<g id="node20" class="node">
<title>Node20</title>
<g id="a_node20"><a xlink:href="floating__window__manager_8cpp.html" target="_top" xlink:title=" ">
<polygon fill="white" stroke="black" points="1368.45,-0.5 1368.45,-30.5 1551.45,-30.5 1551.45,-0.5 1368.45,-0.5"/>
<text text-anchor="start" x="1376.45" y="-18.5" font-family="Arial" font-size="10.00">examples/example&#45;server</text>
<text text-anchor="middle" x="1459.95" y="-7.5" font-family="Arial" font-size="10.00">&#45;lib/floating_window_manager.cpp</text>
</a>
</g>
</g>
<!-- Node18&#45;&gt;Node20 -->
<g id="edge21" class="edge">
<title>Node18&#45;&gt;Node20</title>
<path fill="none" stroke="midnightblue" d="M1596.2,-263.08C1608.36,-255.25 1620.15,-244.96 1626.95,-232 1660.99,-167.05 1670.66,-125.88 1626.95,-67 1609.16,-43.04 1580.34,-30.05 1551.61,-23.12"/>
<polygon fill="midnightblue" stroke="midnightblue" points="1594.16,-260.22 1587.36,-268.34 1597.74,-266.23 1594.16,-260.22"/>
</g>
<!-- Node18&#45;&gt;Node21 -->
<g id="edge23" class="edge">
<title>Node18&#45;&gt;Node21</title>
<path fill="none" stroke="midnightblue" d="M1491.19,-265.85C1451.24,-255.25 1400.08,-241.68 1362.13,-231.61"/>
<polygon fill="midnightblue" stroke="midnightblue" points="1490.52,-269.29 1501.09,-268.48 1492.32,-262.53 1490.52,-269.29"/>
</g>
<!-- Node21&#45;&gt;Node13 -->
<g id="edge29" class="edge">
<title>Node21&#45;&gt;Node13</title>
<path fill="none" stroke="midnightblue" d="M1226.36,-206.59C1117.73,-194.78 932.7,-174.37 864.95,-165 862,-164.59 859,-164.17 855.97,-163.72"/>
<polygon fill="midnightblue" stroke="midnightblue" points="1226.31,-210.1 1236.63,-207.7 1227.06,-203.15 1226.31,-210.1"/>
</g>
<!-- Node21&#45;&gt;Node15 -->
<g id="edge30" class="edge">
<title>Node21&#45;&gt;Node15</title>
<path fill="none" stroke="midnightblue" d="M1390.99,-201.75C1416.06,-194.26 1442.2,-182.74 1461.95,-165 1482.06,-146.93 1491.93,-115.78 1496.18,-97.67"/>
<polygon fill="midnightblue" stroke="midnightblue" points="1389.77,-198.45 1381.08,-204.52 1391.66,-205.19 1389.77,-198.45"/>
</g>
<!-- Node21&#45;&gt;Node19 -->
<g id="edge24" class="edge">
<title>Node21&#45;&gt;Node19</title>
<path fill="none" stroke="midnightblue" d="M1356.71,-196.45C1369.84,-188.74 1382.5,-178.42 1389.95,-165 1396.63,-152.95 1395.23,-146.72 1389.95,-134 1370.65,-87.55 1323.07,-49.96 1294.57,-30.64"/>
<polygon fill="midnightblue" stroke="midnightblue" points="1354.74,-193.54 1347.6,-201.37 1358.07,-199.69 1354.74,-193.54"/>
</g>
<!-- Node21&#45;&gt;Node20 -->
<g id="edge28" class="edge">
<title>Node21&#45;&gt;Node20</title>
<path fill="none" stroke="midnightblue" d="M1369.38,-197.11C1384.2,-189.59 1398.28,-179.21 1406.95,-165 1429.63,-127.79 1386.24,-106.82 1403.95,-67 1410.65,-51.93 1424.32,-39.46 1436.48,-30.68"/>
<polygon fill="midnightblue" stroke="midnightblue" points="1367.68,-194.04 1360.09,-201.43 1370.64,-200.38 1367.68,-194.04"/>
</g>
<!-- Node22 -->
<g id="node22" class="node">
<title>Node22</title>
<g id="a_node22"><a xlink:href="decoration__provider_8h.html" target="_top" xlink:title=" ">
<polygon fill="white" stroke="black" points="1236.45,-134.5 1236.45,-164.5 1381.45,-164.5 1381.45,-134.5 1236.45,-134.5"/>
<text text-anchor="start" x="1244.45" y="-152.5" font-family="Arial" font-size="10.00">examples/example&#45;server</text>
<text text-anchor="middle" x="1308.95" y="-141.5" font-family="Arial" font-size="10.00">&#45;lib/decoration_provider.h</text>
</a>
</g>
</g>
<!-- Node21&#45;&gt;Node22 -->
<g id="edge25" class="edge">
<title>Node21&#45;&gt;Node22</title>
<path fill="none" stroke="midnightblue" d="M1308.95,-191.11C1308.95,-182.15 1308.95,-172.32 1308.95,-164.58"/>
<polygon fill="midnightblue" stroke="midnightblue" points="1305.45,-191.4 1308.95,-201.4 1312.45,-191.4 1305.45,-191.4"/>
</g>
<!-- Node23 -->
<g id="node23" class="node">
<title>Node23</title>
<g id="a_node23"><a xlink:href="canonical__window__manager_8h.html" target="_top" xlink:title=" ">
<polygon fill="white" stroke="black" points="873.95,-134.5 873.95,-164.5 1039.95,-164.5 1039.95,-134.5 873.95,-134.5"/>
<text text-anchor="start" x="881.95" y="-152.5" font-family="Arial" font-size="10.00">include/miral/miral</text>
<text text-anchor="middle" x="956.95" y="-141.5" font-family="Arial" font-size="10.00">/canonical_window_manager.h</text>
</a>
</g>
</g>
<!-- Node21&#45;&gt;Node23 -->
<g id="edge31" class="edge">
<title>Node21&#45;&gt;Node23</title>
<path fill="none" stroke="midnightblue" d="M1226.9,-200.35C1168.31,-189.53 1090.05,-175.08 1032.89,-164.52"/>
<polygon fill="midnightblue" stroke="midnightblue" points="1226.4,-203.82 1236.87,-202.19 1227.67,-196.93 1226.4,-203.82"/>
</g>
<!-- Node26 -->
<g id="node26" class="node">
<title>Node26</title>
<g id="a_node26"><a xlink:href="minimal__window__manager_8h.html" target="_top" xlink:title=" ">
<polygon fill="white" stroke="black" points="1057.95,-134.5 1057.95,-164.5 1217.95,-164.5 1217.95,-134.5 1057.95,-134.5"/>
<text text-anchor="start" x="1065.95" y="-152.5" font-family="Arial" font-size="10.00">include/miral/miral</text>
<text text-anchor="middle" x="1137.95" y="-141.5" font-family="Arial" font-size="10.00">/minimal_window_manager.h</text>
</a>
</g>
</g>
<!-- Node21&#45;&gt;Node26 -->
<g id="edge35" class="edge">
<title>Node21&#45;&gt;Node26</title>
<path fill="none" stroke="midnightblue" d="M1262.43,-197.82C1234.95,-187.37 1200.62,-174.32 1174.98,-164.58"/>
<polygon fill="midnightblue" stroke="midnightblue" points="1261.25,-201.11 1271.84,-201.4 1263.74,-194.57 1261.25,-201.11"/>
</g>
<!-- Node22&#45;&gt;Node7 -->
<g id="edge26" class="edge">
<title>Node22&#45;&gt;Node7</title>
<path fill="none" stroke="midnightblue" d="M1226.02,-133.95C1047.52,-110.5 849.92,-95.48 744.13,-88.32"/>
<polygon fill="midnightblue" stroke="midnightblue" points="1225.75,-137.45 1236.12,-135.29 1226.67,-130.51 1225.75,-137.45"/>
</g>
<!-- Node22&#45;&gt;Node20 -->
<g id="edge27" class="edge">
<title>Node22&#45;&gt;Node20</title>
<path fill="none" stroke="midnightblue" d="M1322.52,-125.92C1333.87,-108.34 1351.34,-84.14 1370.95,-67 1388.07,-52.04 1410.32,-39.41 1428.29,-30.53"/>
<polygon fill="midnightblue" stroke="midnightblue" points="1319.52,-124.11 1317.16,-134.43 1325.45,-127.84 1319.52,-124.11"/>
</g>
<!-- Node24 -->
<g id="node24" class="node">
<title>Node24</title>
<g id="a_node24"><a xlink:href="kiosk__window__manager_8h.html" target="_top" xlink:title=" ">
<polygon fill="white" stroke="black" points="885.95,-67.5 885.95,-97.5 1031.95,-97.5 1031.95,-67.5 885.95,-67.5"/>
<text text-anchor="start" x="893.95" y="-85.5" font-family="Arial" font-size="10.00">examples/miral&#45;kiosk</text>
<text text-anchor="middle" x="958.95" y="-74.5" font-family="Arial" font-size="10.00">/kiosk_window_manager.h</text>
</a>
</g>
</g>
<!-- Node23&#45;&gt;Node24 -->
<g id="edge32" class="edge">
<title>Node23&#45;&gt;Node24</title>
<path fill="none" stroke="midnightblue" d="M957.7,-124.11C957.97,-115.15 958.28,-105.32 958.51,-97.58"/>
<polygon fill="midnightblue" stroke="midnightblue" points="954.19,-124.29 957.38,-134.4 961.19,-124.51 954.19,-124.29"/>
</g>
<!-- Node24&#45;&gt;Node19 -->
<g id="edge34" class="edge">
<title>Node24&#45;&gt;Node19</title>
<path fill="none" stroke="midnightblue" d="M1036.56,-65.38C1088.04,-54.69 1154.95,-40.8 1204.27,-30.55"/>
<polygon fill="midnightblue" stroke="midnightblue" points="1035.56,-62.02 1026.48,-67.48 1036.98,-68.87 1035.56,-62.02"/>
</g>
<!-- Node25 -->
<g id="node25" class="node">
<title>Node25</title>
<g id="a_node25"><a xlink:href="kiosk__main_8cpp.html" target="_top" xlink:title=" ">
<polygon fill="white" stroke="black" points="897.45,-0.5 897.45,-30.5 1020.45,-30.5 1020.45,-0.5 897.45,-0.5"/>
<text text-anchor="start" x="905.45" y="-18.5" font-family="Arial" font-size="10.00">examples/miral&#45;kiosk</text>
<text text-anchor="middle" x="958.95" y="-7.5" font-family="Arial" font-size="10.00">/kiosk_main.cpp</text>
</a>
</g>
</g>
<!-- Node24&#45;&gt;Node25 -->
<g id="edge33" class="edge">
<title>Node24&#45;&gt;Node25</title>
<path fill="none" stroke="midnightblue" d="M958.95,-57.11C958.95,-48.15 958.95,-38.32 958.95,-30.58"/>
<polygon fill="midnightblue" stroke="midnightblue" points="955.45,-57.4 958.95,-67.4 962.45,-57.4 955.45,-57.4"/>
</g>
<!-- Node27 -->
<g id="node27" class="node">
<title>Node27</title>
<g id="a_node27"><a xlink:href="floating__window__manager_8h.html" target="_top" xlink:title=" ">
<polygon fill="white" stroke="black" points="1051.95,-67.5 1051.95,-97.5 1223.95,-97.5 1223.95,-67.5 1051.95,-67.5"/>
<text text-anchor="start" x="1059.95" y="-85.5" font-family="Arial" font-size="10.00">examples/example&#45;server</text>
<text text-anchor="middle" x="1137.95" y="-74.5" font-family="Arial" font-size="10.00">&#45;lib/floating_window_manager.h</text>
</a>
</g>
</g>
<!-- Node26&#45;&gt;Node27 -->
<g id="edge36" class="edge">
<title>Node26&#45;&gt;Node27</title>
<path fill="none" stroke="midnightblue" d="M1137.95,-124.11C1137.95,-115.15 1137.95,-105.32 1137.95,-97.58"/>
<polygon fill="midnightblue" stroke="midnightblue" points="1134.45,-124.4 1137.95,-134.4 1141.45,-124.4 1134.45,-124.4"/>
</g>
<!-- Node27&#45;&gt;Node14 -->
<g id="edge37" class="edge">
<title>Node27&#45;&gt;Node14</title>
<path fill="none" stroke="midnightblue" d="M1057.07,-65.52C998.93,-54.03 921.79,-38.79 869.05,-28.37"/>
<polygon fill="midnightblue" stroke="midnightblue" points="1056.48,-68.97 1066.96,-67.48 1057.83,-62.1 1056.48,-68.97"/>
</g>
<!-- Node27&#45;&gt;Node20 -->
<g id="edge38" class="edge">
<title>Node27&#45;&gt;Node20</title>
<path fill="none" stroke="midnightblue" d="M1217.46,-65.45C1270.47,-54.75 1339.48,-40.82 1390.32,-30.55"/>
<polygon fill="midnightblue" stroke="midnightblue" points="1216.53,-62.07 1207.42,-67.48 1217.92,-68.93 1216.53,-62.07"/>
</g>
<!-- Node28&#45;&gt;Node13 -->
<g id="edge40" class="edge">
<title>Node28&#45;&gt;Node13</title>
<path fill="none" stroke="midnightblue" d="M1001.25,-199.32C951.95,-188.63 887.99,-174.77 840.82,-164.55"/>
<polygon fill="midnightblue" stroke="midnightblue" points="1000.71,-202.78 1011.22,-201.48 1002.19,-195.94 1000.71,-202.78"/>
</g>
<!-- Node28&#45;&gt;Node23 -->
<g id="edge41" class="edge">
<title>Node28&#45;&gt;Node23</title>
<path fill="none" stroke="midnightblue" d="M1041.3,-196.57C1022.58,-186.35 999.86,-173.94 982.72,-164.58"/>
<polygon fill="midnightblue" stroke="midnightblue" points="1039.67,-199.67 1050.13,-201.4 1043.03,-193.53 1039.67,-199.67"/>
</g>
<!-- Node28&#45;&gt;Node26 -->
<g id="edge42" class="edge">
<title>Node28&#45;&gt;Node26</title>
<path fill="none" stroke="midnightblue" d="M1096.43,-194.02C1105.67,-184.34 1116.32,-173.17 1124.52,-164.58"/>
<polygon fill="midnightblue" stroke="midnightblue" points="1093.77,-191.74 1089.4,-201.4 1098.84,-196.58 1093.77,-191.74"/>
</g>
<!-- Node29&#45;&gt;Node18 -->
<g id="edge44" class="edge">
<title>Node29&#45;&gt;Node18</title>
<path fill="none" stroke="midnightblue" d="M1423.99,-331.96C1452.67,-321.48 1488.59,-308.37 1515.4,-298.58"/>
<polygon fill="midnightblue" stroke="midnightblue" points="1422.76,-328.68 1414.57,-335.4 1425.16,-335.25 1422.76,-328.68"/>
</g>
<!-- Node31&#45;&gt;Node15 -->
<g id="edge48" class="edge">
<title>Node31&#45;&gt;Node15</title>
<path fill="none" stroke="midnightblue" d="M1673.26,-131.71C1635.02,-121.14 1586.2,-107.63 1549.96,-97.61"/>
<polygon fill="midnightblue" stroke="midnightblue" points="1672.67,-135.18 1683.25,-134.48 1674.54,-128.44 1672.67,-135.18"/>
</g>
<!-- Node31&#45;&gt;Node20 -->
<g id="edge47" class="edge">
<title>Node31&#45;&gt;Node20</title>
<path fill="none" stroke="midnightblue" d="M1720.51,-125.83C1708.31,-107.25 1688.65,-81.69 1664.95,-67 1630.99,-45.95 1588.78,-33.67 1551.51,-26.51"/>
<polygon fill="midnightblue" stroke="midnightblue" points="1717.57,-127.74 1725.88,-134.32 1723.49,-124 1717.57,-127.74"/>
</g>
<!-- Node34&#45;&gt;Node18 -->
<g id="edge56" class="edge">
<title>Node34&#45;&gt;Node18</title>
<path fill="none" stroke="midnightblue" d="M1588.31,-327.45C1580.67,-317.9 1571.95,-307 1565.21,-298.58"/>
<polygon fill="midnightblue" stroke="midnightblue" points="1585.68,-329.77 1594.66,-335.4 1591.15,-325.4 1585.68,-329.77"/>
</g>
</g>
</svg>
