<?xml version="1.0" encoding="UTF-8" standalone="no"?>
<!DOCTYPE svg PUBLIC "-//W3C//DTD SVG 1.1//EN"
 "http://www.w3.org/Graphics/SVG/1.1/DTD/svg11.dtd">
<!-- Generated by graphviz version 2.40.1 (20161225.0304)
 -->
<!-- Title: include/client/mir_toolkit/extensions/android_egl.h Pages: 1 -->
<svg width="2169pt" height="519pt"
 viewBox="0.00 0.00 2168.55 519.00" xmlns="http://www.w3.org/2000/svg" xmlns:xlink="http://www.w3.org/1999/xlink">
<g id="graph0" class="graph" transform="scale(1 1) rotate(0) translate(4 515)">
<title>include/client/mir_toolkit/extensions/android_egl.h</title>
<polygon fill="#ffffff" stroke="transparent" points="-4,4 -4,-515 2164.5462,-515 2164.5462,4 -4,4"/>
<!-- Node0 -->
<g id="node1" class="node">
<title>Node0</title>
<polygon fill="#bfbfbf" stroke="#000000" points="588.0462,-469.5 588.0462,-510.5 698.0462,-510.5 698.0462,-469.5 588.0462,-469.5"/>
<text text-anchor="start" x="596.0462" y="-498.5" font-family="Arial" font-size="10.00" fill="#000000">include/client/mir</text>
<text text-anchor="start" x="596.0462" y="-487.5" font-family="Arial" font-size="10.00" fill="#000000">_toolkit/extensions</text>
<text text-anchor="middle" x="643.0462" y="-476.5" font-family="Arial" font-size="10.00" fill="#000000">/android_egl.h</text>
</g>
<!-- Node1 -->
<g id="node2" class="node">
<title>Node1</title>
<g id="a_node2"><a xlink:href="mir__connection_8h.html" target="_top" xlink:title="mir_toolkit/mir_connection.h">
<polygon fill="#ffffff" stroke="#000000" points="564.5462,-341 564.5462,-360 721.5462,-360 721.5462,-341 564.5462,-341"/>
<text text-anchor="middle" x="643.0462" y="-348" font-family="Arial" font-size="10.00" fill="#000000">mir_toolkit/mir_connection.h</text>
</a>
</g>
</g>
<!-- Node0&#45;&gt;Node1 -->
<g id="edge1" class="edge">
<title>Node0&#45;&gt;Node1</title>
<path fill="none" stroke="#191970" d="M628.5898,-469.3972C622.165,-458.999 615.3227,-445.8822 612.0462,-433 608.6501,-419.6473 608.359,-415.2752 612.0462,-402 615.4325,-389.8081 622.5653,-377.6123 629.136,-368.1512"/>
<polygon fill="#191970" stroke="#191970" points="632.0195,-370.1379 635.1228,-360.0077 626.3796,-365.9916 632.0195,-370.1379"/>
</g>
<!-- Node25 -->
<g id="node26" class="node">
<title>Node25</title>
<g id="a_node26"><a xlink:href="mir__render__surface_8h.html" target="_top" xlink:title="mir_toolkit/rs/mir\l_render_surface.h">
<polygon fill="#ffffff" stroke="#000000" points="442.0462,-335.5 442.0462,-365.5 546.0462,-365.5 546.0462,-335.5 442.0462,-335.5"/>
<text text-anchor="start" x="450.0462" y="-353.5" font-family="Arial" font-size="10.00" fill="#000000">mir_toolkit/rs/mir</text>
<text text-anchor="middle" x="494.0462" y="-342.5" font-family="Arial" font-size="10.00" fill="#000000">_render_surface.h</text>
</a>
</g>
</g>
<!-- Node0&#45;&gt;Node25 -->
<g id="edge50" class="edge">
<title>Node0&#45;&gt;Node25</title>
<path fill="none" stroke="#191970" d="M621.0608,-469.4163C593.3869,-443.5069 546.0434,-399.1819 517.6342,-372.5841"/>
<polygon fill="#191970" stroke="#191970" points="519.8476,-369.8618 510.1556,-365.5822 515.0635,-374.9718 519.8476,-369.8618"/>
</g>
<!-- Node26 -->
<g id="node27" class="node">
<title>Node26</title>
<g id="a_node27"><a xlink:href="mir__buffer_8h.html" target="_top" xlink:title="mir_toolkit/mir_buffer.h">
<polygon fill="#ffffff" stroke="#000000" points="1548.5462,-341 1548.5462,-360 1679.5462,-360 1679.5462,-341 1548.5462,-341"/>
<text text-anchor="middle" x="1614.0462" y="-348" font-family="Arial" font-size="10.00" fill="#000000">mir_toolkit/mir_buffer.h</text>
</a>
</g>
</g>
<!-- Node0&#45;&gt;Node26 -->
<g id="edge53" class="edge">
<title>Node0&#45;&gt;Node26</title>
<path fill="none" stroke="#191970" d="M698.3857,-482.0496C863.0261,-458.3963 1349.9681,-388.4391 1538.3964,-361.3683"/>
<polygon fill="#191970" stroke="#191970" points="1539.0893,-364.8048 1548.4899,-359.9182 1538.0938,-357.876 1539.0893,-364.8048"/>
</g>
<!-- Node28 -->
<g id="node29" class="node">
<title>Node28</title>
<g id="a_node29"><a xlink:href="mir__extension__core_8h.html" target="_top" xlink:title="mir_toolkit/mir_extension\l_core.h">
<polygon fill="#ffffff" stroke="#000000" points="621.5462,-402.5 621.5462,-432.5 764.5462,-432.5 764.5462,-402.5 621.5462,-402.5"/>
<text text-anchor="start" x="629.5462" y="-420.5" font-family="Arial" font-size="10.00" fill="#000000">mir_toolkit/mir_extension</text>
<text text-anchor="middle" x="693.0462" y="-409.5" font-family="Arial" font-size="10.00" fill="#000000">_core.h</text>
</a>
</g>
</g>
<!-- Node0&#45;&gt;Node28 -->
<g id="edge57" class="edge">
<title>Node0&#45;&gt;Node28</title>
<path fill="none" stroke="#191970" d="M657.2405,-469.4183C663.3666,-460.5354 670.5648,-450.0981 676.8942,-440.9205"/>
<polygon fill="#191970" stroke="#191970" points="679.8369,-442.8183 682.633,-432.5991 674.0744,-438.8442 679.8369,-442.8183"/>
</g>
<!-- Node2 -->
<g id="node3" class="node">
<title>Node2</title>
<g id="a_node3"><a xlink:href="client__types_8h.html" target="_top" xlink:title="mir_toolkit/client\l_types.h">
<polygon fill="#ffffff" stroke="#000000" points="593.0462,-268.5 593.0462,-298.5 693.0462,-298.5 693.0462,-268.5 593.0462,-268.5"/>
<text text-anchor="start" x="601.0462" y="-286.5" font-family="Arial" font-size="10.00" fill="#000000">mir_toolkit/client</text>
<text text-anchor="middle" x="643.0462" y="-275.5" font-family="Arial" font-size="10.00" fill="#000000">_types.h</text>
</a>
</g>
</g>
<!-- Node1&#45;&gt;Node2 -->
<g id="edge2" class="edge">
<title>Node1&#45;&gt;Node2</title>
<path fill="none" stroke="#191970" d="M643.0462,-340.9005C643.0462,-332.5099 643.0462,-319.9451 643.0462,-308.7085"/>
<polygon fill="#191970" stroke="#191970" points="646.5463,-308.5217 643.0462,-298.5218 639.5463,-308.5218 646.5463,-308.5217"/>
</g>
<!-- Node6 -->
<g id="node7" class="node">
<title>Node6</title>
<g id="a_node7"><a xlink:href="common_8h.html" target="_top" xlink:title="mir_toolkit/common.h">
<polygon fill="#ffffff" stroke="#000000" points="80.5462,-134.5 80.5462,-153.5 205.5462,-153.5 205.5462,-134.5 80.5462,-134.5"/>
<text text-anchor="middle" x="143.0462" y="-141.5" font-family="Arial" font-size="10.00" fill="#000000">mir_toolkit/common.h</text>
</a>
</g>
</g>
<!-- Node1&#45;&gt;Node6 -->
<g id="edge47" class="edge">
<title>Node1&#45;&gt;Node6</title>
<path fill="none" stroke="#191970" d="M596.2394,-340.9868C485.0553,-318.0439 211.9732,-259.5351 180.0462,-232 159.6086,-214.3738 150.2006,-183.5641 146.0599,-163.4754"/>
<polygon fill="#191970" stroke="#191970" points="149.492,-162.7854 144.2648,-153.5698 142.6041,-164.0337 149.492,-162.7854"/>
</g>
<!-- Node7 -->
<g id="node8" class="node">
<title>Node7</title>
<g id="a_node8"><a xlink:href="deprecations_8h.html" target="_top" xlink:title="mir_toolkit/deprecations.h">
<polygon fill="#ffffff" stroke="#000000" points="202.5462,-62 202.5462,-81 347.5462,-81 347.5462,-62 202.5462,-62"/>
<text text-anchor="middle" x="275.0462" y="-69" font-family="Arial" font-size="10.00" fill="#000000">mir_toolkit/deprecations.h</text>
</a>
</g>
</g>
<!-- Node1&#45;&gt;Node7 -->
<g id="edge48" class="edge">
<title>Node1&#45;&gt;Node7</title>
<path fill="none" stroke="#191970" d="M590.9939,-340.9313C579.1909,-338.8731 566.7005,-336.7828 555.0462,-335 329.6735,-300.5246 169.9601,-370.4202 71.0462,-165 62.9478,-148.1816 59.5755,-137.7264 71.0462,-123 86.271,-103.454 142.6425,-90.162 192.2784,-81.9844"/>
<polygon fill="#191970" stroke="#191970" points="193.1013,-85.3974 202.4256,-80.3667 191.9992,-78.4847 193.1013,-85.3974"/>
</g>
<!-- Node10 -->
<g id="node11" class="node">
<title>Node10</title>
<polygon fill="#ffffff" stroke="#bfbfbf" points="1893.0462,-.5 1893.0462,-19.5 1955.0462,-19.5 1955.0462,-.5 1893.0462,-.5"/>
<text text-anchor="middle" x="1924.0462" y="-7.5" font-family="Arial" font-size="10.00" fill="#000000">stdbool.h</text>
</g>
<!-- Node1&#45;&gt;Node10 -->
<g id="edge49" class="edge">
<title>Node1&#45;&gt;Node10</title>
<path fill="none" stroke="#191970" d="M722.0225,-346.6867C1007.4858,-332.3896 1969.0462,-279.5513 1969.0462,-216.5 1969.0462,-216.5 1969.0462,-216.5 1969.0462,-144 1969.0462,-103.9877 1964.2743,-93.3972 1950.0462,-56 1946.4356,-46.5097 1941.0866,-36.6266 1936.1775,-28.4645"/>
<polygon fill="#191970" stroke="#191970" points="1939.0236,-26.4148 1930.7473,-19.8001 1933.0922,-30.1322 1939.0236,-26.4148"/>
</g>
<!-- Node3 -->
<g id="node4" class="node">
<title>Node3</title>
<g id="a_node4"><a xlink:href="toolkit_2events_2event_8h.html" target="_top" xlink:title="mir_toolkit/events\l/event.h">
<polygon fill="#ffffff" stroke="#000000" points="999.0462,-201.5 999.0462,-231.5 1105.0462,-231.5 1105.0462,-201.5 999.0462,-201.5"/>
<text text-anchor="start" x="1007.0462" y="-219.5" font-family="Arial" font-size="10.00" fill="#000000">mir_toolkit/events</text>
<text text-anchor="middle" x="1052.0462" y="-208.5" font-family="Arial" font-size="10.00" fill="#000000">/event.h</text>
</a>
</g>
</g>
<!-- Node2&#45;&gt;Node3 -->
<g id="edge3" class="edge">
<title>Node2&#45;&gt;Node3</title>
<path fill="none" stroke="#191970" d="M693.1976,-275.2845C767.6579,-263.0868 907.3878,-240.1971 988.7779,-226.8642"/>
<polygon fill="#191970" stroke="#191970" points="989.5886,-230.2782 998.8912,-225.2075 988.4569,-223.3703 989.5886,-230.2782"/>
</g>
<!-- Node4 -->
<g id="node5" class="node">
<title>Node4</title>
<polygon fill="#ffffff" stroke="#bfbfbf" points="1825.0462,-134.5 1825.0462,-153.5 1881.0462,-153.5 1881.0462,-134.5 1825.0462,-134.5"/>
<text text-anchor="middle" x="1853.0462" y="-141.5" font-family="Arial" font-size="10.00" fill="#000000">stddef.h</text>
</g>
<!-- Node2&#45;&gt;Node4 -->
<g id="edge46" class="edge">
<title>Node2&#45;&gt;Node4</title>
<path fill="none" stroke="#191970" d="M693.0512,-281.2001C888.6116,-271.7832 1601.4001,-233.3918 1816.0462,-165 1820.8933,-163.4556 1825.8105,-161.2221 1830.4091,-158.7822"/>
<polygon fill="#191970" stroke="#191970" points="1832.3828,-161.6836 1839.2767,-153.6385 1828.8705,-155.6285 1832.3828,-161.6836"/>
</g>
<!-- Node2&#45;&gt;Node6 -->
<g id="edge44" class="edge">
<title>Node2&#45;&gt;Node6</title>
<path fill="none" stroke="#191970" d="M592.9257,-281.8511C495.3192,-277.9228 283.7238,-265.684 220.0462,-232 189.9931,-216.1026 166.307,-183.3429 153.5195,-162.5875"/>
<polygon fill="#191970" stroke="#191970" points="156.3894,-160.5649 148.282,-153.7443 150.3665,-164.1321 156.3894,-160.5649"/>
</g>
<!-- Node2&#45;&gt;Node7 -->
<g id="edge45" class="edge">
<title>Node2&#45;&gt;Node7</title>
<path fill="none" stroke="#191970" d="M592.6933,-275.7181C496.8153,-259.7621 293.9235,-220.143 253.0462,-165 236.5002,-142.6796 250.8104,-109.8079 262.821,-89.5736"/>
<polygon fill="#191970" stroke="#191970" points="265.8516,-91.3292 268.2226,-81.0031 259.9297,-87.5969 265.8516,-91.3292"/>
</g>
<!-- Node3&#45;&gt;Node4 -->
<g id="edge4" class="edge">
<title>Node3&#45;&gt;Node4</title>
<path fill="none" stroke="#191970" d="M1105.1543,-214.2919C1267.2073,-207.3629 1748.4465,-185.3029 1816.0462,-165 1821.0024,-163.5115 1826.0171,-161.2648 1830.6871,-158.7864"/>
<polygon fill="#191970" stroke="#191970" points="1832.792,-161.6101 1839.6595,-153.5424 1829.2598,-155.5666 1832.792,-161.6101"/>
</g>
<!-- Node5 -->
<g id="node6" class="node">
<title>Node5</title>
<polygon fill="#ffffff" stroke="#bfbfbf" points="1452.5462,-.5 1452.5462,-19.5 1505.5462,-19.5 1505.5462,-.5 1452.5462,-.5"/>
<text text-anchor="middle" x="1479.0462" y="-7.5" font-family="Arial" font-size="10.00" fill="#000000">stdint.h</text>
</g>
<!-- Node3&#45;&gt;Node5 -->
<g id="edge5" class="edge">
<title>Node3&#45;&gt;Node5</title>
<path fill="none" stroke="#191970" d="M1105.2893,-209.6867C1161.2242,-201.5296 1244.3235,-186.2565 1268.0462,-165 1306.3655,-130.6643 1269.1986,-90.855 1307.0462,-56 1326.6227,-37.9715 1397.6834,-23.384 1442.1106,-15.7652"/>
<polygon fill="#191970" stroke="#191970" points="1442.9571,-19.1723 1452.2419,-14.069 1441.8012,-12.2684 1442.9571,-19.1723"/>
</g>
<!-- Node3&#45;&gt;Node6 -->
<g id="edge6" class="edge">
<title>Node3&#45;&gt;Node6</title>
<path fill="none" stroke="#191970" d="M999.0061,-215.3576C870.5286,-212.0958 532.623,-200.5571 253.0462,-165 234.4187,-162.6309 214.1896,-159.0604 196.2188,-155.5321"/>
<polygon fill="#191970" stroke="#191970" points="196.7037,-152.0598 186.2109,-153.5269 195.3284,-158.9234 196.7037,-152.0598"/>
</g>
<!-- Node3&#45;&gt;Node7 -->
<g id="edge8" class="edge">
<title>Node3&#45;&gt;Node7</title>
<path fill="none" stroke="#191970" d="M1032.4469,-201.3998C1019.9349,-191.4774 1003.5822,-177.9753 990.0462,-165 971.8739,-147.5803 974.651,-134.0771 952.0462,-123 899.8897,-97.4417 526.7394,-80.7112 357.789,-74.3654"/>
<polygon fill="#191970" stroke="#191970" points="357.8182,-70.8641 347.6949,-73.9895 357.5577,-77.8593 357.8182,-70.8641"/>
</g>
<!-- Node8 -->
<g id="node9" class="node">
<title>Node8</title>
<g id="a_node9"><a xlink:href="input__event_8h.html" target="_top" xlink:title="mir_toolkit/events\l/input/input_event.h">
<polygon fill="#ffffff" stroke="#000000" points="1693.0462,-129 1693.0462,-159 1807.0462,-159 1807.0462,-129 1693.0462,-129"/>
<text text-anchor="start" x="1701.0462" y="-147" font-family="Arial" font-size="10.00" fill="#000000">mir_toolkit/events</text>
<text text-anchor="middle" x="1750.0462" y="-136" font-family="Arial" font-size="10.00" fill="#000000">/input/input_event.h</text>
</a>
</g>
</g>
<!-- Node3&#45;&gt;Node8 -->
<g id="edge9" class="edge">
<title>Node3&#45;&gt;Node8</title>
<path fill="none" stroke="#191970" d="M1105.405,-213.4635C1235.5298,-206.1392 1565.9598,-186.5094 1675.0462,-165 1679.4794,-164.1259 1684.0332,-163.0559 1688.6052,-161.8664"/>
<polygon fill="#191970" stroke="#191970" points="1689.8982,-165.1402 1698.6032,-159.101 1688.032,-158.3935 1689.8982,-165.1402"/>
</g>
<!-- Node15 -->
<g id="node16" class="node">
<title>Node15</title>
<g id="a_node16"><a xlink:href="resize__event_8h.html" target="_top" xlink:title="mir_toolkit/events\l/resize_event.h">
<polygon fill="#ffffff" stroke="#000000" points="1445.0462,-129 1445.0462,-159 1551.0462,-159 1551.0462,-129 1445.0462,-129"/>
<text text-anchor="start" x="1453.0462" y="-147" font-family="Arial" font-size="10.00" fill="#000000">mir_toolkit/events</text>
<text text-anchor="middle" x="1498.0462" y="-136" font-family="Arial" font-size="10.00" fill="#000000">/resize_event.h</text>
</a>
</g>
</g>
<!-- Node3&#45;&gt;Node15 -->
<g id="edge20" class="edge">
<title>Node3&#45;&gt;Node15</title>
<path fill="none" stroke="#191970" d="M1105.3324,-212.106C1178.6028,-205.6766 1313.907,-191.4849 1427.0462,-165 1430.8586,-164.1076 1434.7678,-163.075 1438.7006,-161.9561"/>
<polygon fill="#191970" stroke="#191970" points="1439.9072,-165.2485 1448.4836,-159.028 1437.8999,-158.5424 1439.9072,-165.2485"/>
</g>
<!-- Node16 -->
<g id="node17" class="node">
<title>Node16</title>
<g id="a_node17"><a xlink:href="surface__event_8h.html" target="_top" xlink:title="mir_toolkit/events\l/surface_event.h">
<polygon fill="#ffffff" stroke="#000000" points="262.0462,-129 262.0462,-159 368.0462,-159 368.0462,-129 262.0462,-129"/>
<text text-anchor="start" x="270.0462" y="-147" font-family="Arial" font-size="10.00" fill="#000000">mir_toolkit/events</text>
<text text-anchor="middle" x="315.0462" y="-136" font-family="Arial" font-size="10.00" fill="#000000">/surface_event.h</text>
</a>
</g>
</g>
<!-- Node3&#45;&gt;Node16 -->
<g id="edge22" class="edge">
<title>Node3&#45;&gt;Node16</title>
<path fill="none" stroke="#191970" d="M998.9651,-214.3589C859.8992,-208.233 488.0216,-189.4908 368.0462,-165 363.9124,-164.1562 359.6736,-163.1154 355.4747,-161.9526"/>
<polygon fill="#191970" stroke="#191970" points="356.402,-158.5767 345.8179,-159.0532 354.389,-165.2811 356.402,-158.5767"/>
</g>
<!-- Node17 -->
<g id="node18" class="node">
<title>Node17</title>
<g id="a_node18"><a xlink:href="window__event_8h.html" target="_top" xlink:title="mir_toolkit/events\l/window_event.h">
<polygon fill="#ffffff" stroke="#000000" points="1569.0462,-129 1569.0462,-159 1675.0462,-159 1675.0462,-129 1569.0462,-129"/>
<text text-anchor="start" x="1577.0462" y="-147" font-family="Arial" font-size="10.00" fill="#000000">mir_toolkit/events</text>
<text text-anchor="middle" x="1622.0462" y="-136" font-family="Arial" font-size="10.00" fill="#000000">/window_event.h</text>
</a>
</g>
</g>
<!-- Node3&#45;&gt;Node17 -->
<g id="edge25" class="edge">
<title>Node3&#45;&gt;Node17</title>
<path fill="none" stroke="#191970" d="M1105.3848,-214.8281C1197.3812,-211.1655 1391.0009,-199.75 1551.0462,-165 1555.1068,-164.1183 1559.2721,-163.0602 1563.4558,-161.8939"/>
<polygon fill="#191970" stroke="#191970" points="1564.6136,-165.2014 1573.21,-159.0085 1562.6279,-158.4889 1564.6136,-165.2014"/>
</g>
<!-- Node18 -->
<g id="node19" class="node">
<title>Node18</title>
<g id="a_node19"><a xlink:href="orientation__event_8h.html" target="_top" xlink:title="mir_toolkit/events\l/orientation_event.h">
<polygon fill="#ffffff" stroke="#000000" points="670.5462,-129 670.5462,-159 785.5462,-159 785.5462,-129 670.5462,-129"/>
<text text-anchor="start" x="678.5462" y="-147" font-family="Arial" font-size="10.00" fill="#000000">mir_toolkit/events</text>
<text text-anchor="middle" x="728.0462" y="-136" font-family="Arial" font-size="10.00" fill="#000000">/orientation_event.h</text>
</a>
</g>
</g>
<!-- Node3&#45;&gt;Node18 -->
<g id="edge27" class="edge">
<title>Node3&#45;&gt;Node18</title>
<path fill="none" stroke="#191970" d="M998.693,-208.6665C944.5195,-199.6394 858.7814,-183.6306 786.0462,-165 782.4077,-164.068 778.6744,-163.0561 774.9376,-161.9971"/>
<polygon fill="#191970" stroke="#191970" points="775.6815,-158.5678 765.1004,-159.1063 773.7078,-165.2838 775.6815,-158.5678"/>
</g>
<!-- Node19 -->
<g id="node20" class="node">
<title>Node19</title>
<g id="a_node20"><a xlink:href="prompt__session__event_8h.html" target="_top" xlink:title="mir_toolkit/events\l/prompt_session_event.h">
<polygon fill="#ffffff" stroke="#000000" points="803.5462,-129 803.5462,-159 942.5462,-159 942.5462,-129 803.5462,-129"/>
<text text-anchor="start" x="811.5462" y="-147" font-family="Arial" font-size="10.00" fill="#000000">mir_toolkit/events</text>
<text text-anchor="middle" x="873.0462" y="-136" font-family="Arial" font-size="10.00" fill="#000000">/prompt_session_event.h</text>
</a>
</g>
</g>
<!-- Node3&#45;&gt;Node19 -->
<g id="edge29" class="edge">
<title>Node3&#45;&gt;Node19</title>
<path fill="none" stroke="#191970" d="M1009.3646,-201.478C980.3768,-190.2989 942.3681,-174.9611 913.7978,-162.9411"/>
<polygon fill="#191970" stroke="#191970" points="915.0705,-159.6792 904.4973,-159.0028 912.3409,-166.1251 915.0705,-159.6792"/>
</g>
<!-- Node20 -->
<g id="node21" class="node">
<title>Node20</title>
<g id="a_node21"><a xlink:href="keymap__event_8h.html" target="_top" xlink:title="mir_toolkit/events\l/keymap_event.h">
<polygon fill="#ffffff" stroke="#000000" points="999.0462,-129 999.0462,-159 1105.0462,-159 1105.0462,-129 999.0462,-129"/>
<text text-anchor="start" x="1007.0462" y="-147" font-family="Arial" font-size="10.00" fill="#000000">mir_toolkit/events</text>
<text text-anchor="middle" x="1052.0462" y="-136" font-family="Arial" font-size="10.00" fill="#000000">/keymap_event.h</text>
</a>
</g>
</g>
<!-- Node3&#45;&gt;Node20 -->
<g id="edge31" class="edge">
<title>Node3&#45;&gt;Node20</title>
<path fill="none" stroke="#191970" d="M1046.4535,-201.478C1045.2956,-192.1459 1045.0066,-179.9157 1045.5864,-169.1368"/>
<polygon fill="#191970" stroke="#191970" points="1049.0882,-169.2654 1046.4559,-159.0028 1042.1138,-168.667 1049.0882,-169.2654"/>
</g>
<!-- Node21 -->
<g id="node22" class="node">
<title>Node21</title>
<g id="a_node22"><a xlink:href="input__configuration__event_8h.html" target="_top" xlink:title="mir_toolkit/events\l/input_configuration\l_event.h">
<polygon fill="#ffffff" stroke="#000000" points="386.5462,-123.5 386.5462,-164.5 499.5462,-164.5 499.5462,-123.5 386.5462,-123.5"/>
<text text-anchor="start" x="394.5462" y="-152.5" font-family="Arial" font-size="10.00" fill="#000000">mir_toolkit/events</text>
<text text-anchor="start" x="394.5462" y="-141.5" font-family="Arial" font-size="10.00" fill="#000000">/input_configuration</text>
<text text-anchor="middle" x="443.0462" y="-130.5" font-family="Arial" font-size="10.00" fill="#000000">_event.h</text>
</a>
</g>
</g>
<!-- Node3&#45;&gt;Node21 -->
<g id="edge34" class="edge">
<title>Node3&#45;&gt;Node21</title>
<path fill="none" stroke="#191970" d="M998.8983,-215.3761C901.4239,-212.4487 688.1613,-202.1604 507.8358,-166.5449"/>
<polygon fill="#191970" stroke="#191970" points="508.4102,-163.0904 497.9168,-164.5532 507.0321,-169.9535 508.4102,-163.0904"/>
</g>
<!-- Node22 -->
<g id="node23" class="node">
<title>Node22</title>
<g id="a_node23"><a xlink:href="surface__output__event_8h.html" target="_top" xlink:title="mir_toolkit/events\l/surface_output_event.h">
<polygon fill="#ffffff" stroke="#000000" points="518.0462,-129 518.0462,-159 652.0462,-159 652.0462,-129 518.0462,-129"/>
<text text-anchor="start" x="526.0462" y="-147" font-family="Arial" font-size="10.00" fill="#000000">mir_toolkit/events</text>
<text text-anchor="middle" x="585.0462" y="-136" font-family="Arial" font-size="10.00" fill="#000000">/surface_output_event.h</text>
</a>
</g>
</g>
<!-- Node3&#45;&gt;Node22 -->
<g id="edge37" class="edge">
<title>Node3&#45;&gt;Node22</title>
<path fill="none" stroke="#191970" d="M998.8546,-212.3171C921.8115,-205.3487 775.3998,-189.6459 653.0462,-165 647.997,-163.9829 642.7906,-162.8185 637.6068,-161.5708"/>
<polygon fill="#191970" stroke="#191970" points="638.2643,-158.1273 627.7129,-159.086 636.5591,-164.9165 638.2643,-158.1273"/>
</g>
<!-- Node23 -->
<g id="node24" class="node">
<title>Node23</title>
<g id="a_node24"><a xlink:href="window__output__event_8h.html" target="_top" xlink:title="mir_toolkit/events\l/window_output_event.h">
<polygon fill="#ffffff" stroke="#000000" points="1123.0462,-129 1123.0462,-159 1259.0462,-159 1259.0462,-129 1123.0462,-129"/>
<text text-anchor="start" x="1131.0462" y="-147" font-family="Arial" font-size="10.00" fill="#000000">mir_toolkit/events</text>
<text text-anchor="middle" x="1191.0462" y="-136" font-family="Arial" font-size="10.00" fill="#000000">/window_output_event.h</text>
</a>
</g>
</g>
<!-- Node3&#45;&gt;Node23 -->
<g id="edge40" class="edge">
<title>Node3&#45;&gt;Node23</title>
<path fill="none" stroke="#191970" d="M1075.2544,-201.478C1094.9517,-190.4933 1123.5512,-175.4933 1147.4534,-163.5712"/>
<polygon fill="#191970" stroke="#191970" points="1149.2794,-166.5729 1156.6919,-159.0028 1146.1765,-160.2981 1149.2794,-166.5729"/>
</g>
<!-- Node24 -->
<g id="node25" class="node">
<title>Node24</title>
<g id="a_node25"><a xlink:href="input__device__state__event_8h.html" target="_top" xlink:title="mir_toolkit/events\l/input_device_state\l_event.h">
<polygon fill="#ffffff" stroke="#000000" points="1315.0462,-123.5 1315.0462,-164.5 1427.0462,-164.5 1427.0462,-123.5 1315.0462,-123.5"/>
<text text-anchor="start" x="1323.0462" y="-152.5" font-family="Arial" font-size="10.00" fill="#000000">mir_toolkit/events</text>
<text text-anchor="start" x="1323.0462" y="-141.5" font-family="Arial" font-size="10.00" fill="#000000">/input_device_state</text>
<text text-anchor="middle" x="1371.0462" y="-130.5" font-family="Arial" font-size="10.00" fill="#000000">_event.h</text>
</a>
</g>
</g>
<!-- Node3&#45;&gt;Node24 -->
<g id="edge42" class="edge">
<title>Node3&#45;&gt;Node24</title>
<path fill="none" stroke="#191970" d="M1105.537,-205.4819C1154.3896,-195.927 1228.2791,-181.1266 1292.0462,-165 1296.313,-163.9209 1300.7087,-162.7488 1305.1424,-161.5285"/>
<polygon fill="#191970" stroke="#191970" points="1306.1915,-164.8694 1314.874,-158.7978 1304.3002,-158.1297 1306.1915,-164.8694"/>
</g>
<!-- Node6&#45;&gt;Node7 -->
<g id="edge7" class="edge">
<title>Node6&#45;&gt;Node7</title>
<path fill="none" stroke="#191970" d="M160.5748,-134.3726C183.0602,-122.0226 222.2742,-100.4846 248.4475,-86.1091"/>
<polygon fill="#191970" stroke="#191970" points="250.3651,-89.0491 257.4451,-81.1673 246.9952,-82.9137 250.3651,-89.0491"/>
</g>
<!-- Node8&#45;&gt;Node3 -->
<g id="edge10" class="edge">
<title>Node8&#45;&gt;Node3</title>
<path fill="none" stroke="#191970" d="M1716.3086,-159.101C1708.7435,-161.39 1700.7144,-163.488 1693.0462,-165 1584.1205,-186.4777 1254.503,-206.0813 1115.1773,-213.431"/>
<polygon fill="#191970" stroke="#191970" points="1114.8846,-209.9414 1105.0813,-213.9596 1115.2507,-216.9319 1114.8846,-209.9414"/>
</g>
<!-- Node8&#45;&gt;Node5 -->
<g id="edge13" class="edge">
<title>Node8&#45;&gt;Node5</title>
<path fill="none" stroke="#191970" d="M1705.1585,-128.9518C1698.1308,-126.8181 1690.9198,-124.756 1684.0462,-123 1602.8883,-102.2664 1560.0821,-144.3682 1499.0462,-87 1483.5257,-72.4121 1479.4467,-47.4564 1478.6566,-29.9184"/>
<polygon fill="#191970" stroke="#191970" points="1482.1529,-29.6025 1478.5251,-19.6482 1475.1535,-29.6922 1482.1529,-29.6025"/>
</g>
<!-- Node9 -->
<g id="node10" class="node">
<title>Node9</title>
<g id="a_node10"><a xlink:href="mir__input__device__types_8h.html" target="_top" xlink:title="mir_toolkit/mir_input\l_device_types.h">
<polygon fill="#ffffff" stroke="#000000" points="1507.5462,-56.5 1507.5462,-86.5 1626.5462,-86.5 1626.5462,-56.5 1507.5462,-56.5"/>
<text text-anchor="start" x="1515.5462" y="-74.5" font-family="Arial" font-size="10.00" fill="#000000">mir_toolkit/mir_input</text>
<text text-anchor="middle" x="1567.0462" y="-63.5" font-family="Arial" font-size="10.00" fill="#000000">_device_types.h</text>
</a>
</g>
</g>
<!-- Node8&#45;&gt;Node9 -->
<g id="edge11" class="edge">
<title>Node8&#45;&gt;Node9</title>
<path fill="none" stroke="#191970" d="M1712.1285,-128.978C1683.7883,-117.7503 1644.8594,-102.3276 1614.461,-90.2845"/>
<polygon fill="#191970" stroke="#191970" points="1615.5015,-86.9321 1604.9154,-86.5028 1612.9232,-93.44 1615.5015,-86.9321"/>
</g>
<!-- Node8&#45;&gt;Node10 -->
<g id="edge14" class="edge">
<title>Node8&#45;&gt;Node10</title>
<path fill="none" stroke="#191970" d="M1756.4836,-128.8809C1765.428,-109.523 1783.3459,-76.0885 1808.0462,-56 1829.8121,-38.298 1859.2407,-26.7343 1883.0098,-19.6285"/>
<polygon fill="#191970" stroke="#191970" points="1884.1442,-22.945 1892.8112,-16.8512 1882.2357,-16.2101 1884.1442,-22.945"/>
</g>
<!-- Node11 -->
<g id="node12" class="node">
<title>Node11</title>
<g id="a_node12"><a xlink:href="touch__event_8h.html" target="_top" xlink:title="mir_toolkit/events\l/input/touch_event.h">
<polygon fill="#ffffff" stroke="#000000" points="1645.0462,-56.5 1645.0462,-86.5 1761.0462,-86.5 1761.0462,-56.5 1645.0462,-56.5"/>
<text text-anchor="start" x="1653.0462" y="-74.5" font-family="Arial" font-size="10.00" fill="#000000">mir_toolkit/events</text>
<text text-anchor="middle" x="1703.0462" y="-63.5" font-family="Arial" font-size="10.00" fill="#000000">/input/touch_event.h</text>
</a>
</g>
</g>
<!-- Node8&#45;&gt;Node11 -->
<g id="edge15" class="edge">
<title>Node8&#45;&gt;Node11</title>
<path fill="none" stroke="#191970" d="M1740.3078,-128.978C1733.9429,-119.1598 1725.4985,-106.1339 1718.2581,-94.9651"/>
<polygon fill="#191970" stroke="#191970" points="1721.1488,-92.9899 1712.7722,-86.5028 1715.2751,-96.7978 1721.1488,-92.9899"/>
</g>
<!-- Node12 -->
<g id="node13" class="node">
<title>Node12</title>
<g id="a_node13"><a xlink:href="keyboard__event_8h.html" target="_top" xlink:title="mir_toolkit/events\l/input/keyboard_event.h">
<polygon fill="#ffffff" stroke="#000000" points="1315.5462,-56.5 1315.5462,-86.5 1450.5462,-86.5 1450.5462,-56.5 1315.5462,-56.5"/>
<text text-anchor="start" x="1323.5462" y="-74.5" font-family="Arial" font-size="10.00" fill="#000000">mir_toolkit/events</text>
<text text-anchor="middle" x="1383.0462" y="-63.5" font-family="Arial" font-size="10.00" fill="#000000">/input/keyboard_event.h</text>
</a>
</g>
</g>
<!-- Node8&#45;&gt;Node12 -->
<g id="edge16" class="edge">
<title>Node8&#45;&gt;Node12</title>
<path fill="none" stroke="#191970" d="M1705.9174,-128.9877C1698.6594,-126.7995 1691.1786,-124.7114 1684.0462,-123 1588.129,-99.9855 1562.1815,-104.1617 1465.0462,-87 1463.5749,-86.7401 1462.0891,-86.4759 1460.5923,-86.2083"/>
<polygon fill="#191970" stroke="#191970" points="1461.0552,-82.7353 1450.592,-84.4001 1459.8097,-89.6236 1461.0552,-82.7353"/>
</g>
<!-- Node14 -->
<g id="node15" class="node">
<title>Node14</title>
<g id="a_node15"><a xlink:href="pointer__event_8h.html" target="_top" xlink:title="mir_toolkit/events\l/input/pointer_event.h">
<polygon fill="#ffffff" stroke="#000000" points="1817.0462,-56.5 1817.0462,-86.5 1941.0462,-86.5 1941.0462,-56.5 1817.0462,-56.5"/>
<text text-anchor="start" x="1825.0462" y="-74.5" font-family="Arial" font-size="10.00" fill="#000000">mir_toolkit/events</text>
<text text-anchor="middle" x="1879.0462" y="-63.5" font-family="Arial" font-size="10.00" fill="#000000">/input/pointer_event.h</text>
</a>
</g>
</g>
<!-- Node8&#45;&gt;Node14 -->
<g id="edge18" class="edge">
<title>Node8&#45;&gt;Node14</title>
<path fill="none" stroke="#191970" d="M1776.7751,-128.978C1796.0608,-118.1391 1822.3025,-103.3908 1843.3753,-91.5476"/>
<polygon fill="#191970" stroke="#191970" points="1845.3488,-94.4534 1852.3516,-86.5028 1841.9192,-88.3511 1845.3488,-94.4534"/>
</g>
<!-- Node9&#45;&gt;Node5 -->
<g id="edge12" class="edge">
<title>Node9&#45;&gt;Node5</title>
<path fill="none" stroke="#191970" d="M1545.2934,-56.2977C1531.8494,-46.9022 1514.6451,-34.8787 1501.1385,-25.4395"/>
<polygon fill="#191970" stroke="#191970" points="1503.075,-22.5228 1492.8733,-19.6633 1499.0651,-28.2605 1503.075,-22.5228"/>
</g>
<!-- Node13 -->
<g id="node14" class="node">
<title>Node13</title>
<polygon fill="#ffffff" stroke="#bfbfbf" points="1131.0462,-.5 1131.0462,-19.5 1281.0462,-19.5 1281.0462,-.5 1131.0462,-.5"/>
<text text-anchor="middle" x="1206.0462" y="-7.5" font-family="Arial" font-size="10.00" fill="#000000">xkbcommon/xkbcommon.h</text>
</g>
<!-- Node12&#45;&gt;Node13 -->
<g id="edge17" class="edge">
<title>Node12&#45;&gt;Node13</title>
<path fill="none" stroke="#191970" d="M1339.7471,-56.4554C1310.0847,-46.149 1271.1618,-32.6249 1242.9674,-22.8286"/>
<polygon fill="#191970" stroke="#191970" points="1244.0697,-19.5064 1233.4749,-19.5303 1241.7722,-26.1186 1244.0697,-19.5064"/>
</g>
<!-- Node14&#45;&gt;Node10 -->
<g id="edge19" class="edge">
<title>Node14&#45;&gt;Node10</title>
<path fill="none" stroke="#191970" d="M1890.1698,-56.2977C1896.4163,-47.7609 1904.2502,-37.0545 1910.8109,-28.0883"/>
<polygon fill="#191970" stroke="#191970" points="1913.7606,-29.984 1916.8412,-19.8469 1908.1114,-25.8505 1913.7606,-29.984"/>
</g>
<!-- Node15&#45;&gt;Node3 -->
<g id="edge21" class="edge">
<title>Node15&#45;&gt;Node3</title>
<path fill="none" stroke="#191970" d="M1466.2153,-159.028C1459.3124,-161.2676 1452.0174,-163.3681 1445.0462,-165 1330.814,-191.7407 1193.9864,-205.9497 1115.5333,-212.2901"/>
<polygon fill="#191970" stroke="#191970" points="1115.0196,-208.8197 1105.3265,-213.097 1115.5713,-215.798 1115.0196,-208.8197"/>
</g>
<!-- Node16&#45;&gt;Node3 -->
<g id="edge23" class="edge">
<title>Node16&#45;&gt;Node3</title>
<path fill="none" stroke="#191970" d="M363.5094,-159.0532C371.0165,-161.3774 378.6972,-163.4998 386.0462,-165 500.6351,-188.3912 845.0144,-206.5385 988.4126,-213.4581"/>
<polygon fill="#191970" stroke="#191970" points="988.6375,-216.9728 998.7939,-213.9564 988.9732,-209.9809 988.6375,-216.9728"/>
</g>
<!-- Node16&#45;&gt;Node7 -->
<g id="edge24" class="edge">
<title>Node16&#45;&gt;Node7</title>
<path fill="none" stroke="#191970" d="M306.7582,-128.978C300.5468,-117.7198 292.0084,-102.2439 285.3561,-90.1866"/>
<polygon fill="#191970" stroke="#191970" points="288.4012,-88.4607 280.5059,-81.3957 282.2722,-91.8422 288.4012,-88.4607"/>
</g>
<!-- Node17&#45;&gt;Node3 -->
<g id="edge26" class="edge">
<title>Node17&#45;&gt;Node3</title>
<path fill="none" stroke="#191970" d="M1590.9154,-159.0085C1583.815,-161.3073 1576.265,-163.4326 1569.0462,-165 1408.1962,-199.9247 1213.4332,-211.2798 1115.1366,-214.8828"/>
<polygon fill="#191970" stroke="#191970" points="1114.9397,-211.3875 1105.0689,-215.2369 1115.1858,-218.3831 1114.9397,-211.3875"/>
</g>
<!-- Node18&#45;&gt;Node3 -->
<g id="edge28" class="edge">
<title>Node18&#45;&gt;Node3</title>
<path fill="none" stroke="#191970" d="M782.8911,-159.1063C790.0125,-161.2083 797.1972,-163.2457 804.0462,-165 866.4228,-180.9773 938.3624,-195.0264 988.716,-204.3975"/>
<polygon fill="#191970" stroke="#191970" points="988.3352,-207.8864 998.8055,-206.2668 989.6105,-201.0035 988.3352,-207.8864"/>
</g>
<!-- Node19&#45;&gt;Node3 -->
<g id="edge30" class="edge">
<title>Node19&#45;&gt;Node3</title>
<path fill="none" stroke="#191970" d="M915.678,-159.0028C944.6554,-170.1771 982.6643,-185.5144 1011.2454,-197.5382"/>
<polygon fill="#191970" stroke="#191970" points="1009.9768,-200.8018 1020.55,-201.478 1012.7062,-194.3558 1009.9768,-200.8018"/>
</g>
<!-- Node20&#45;&gt;Node3 -->
<g id="edge32" class="edge">
<title>Node20&#45;&gt;Node3</title>
<path fill="none" stroke="#191970" d="M1057.6366,-159.0028C1058.7956,-168.3309 1059.0858,-180.5601 1058.5072,-191.3409"/>
<polygon fill="#191970" stroke="#191970" points="1055.0052,-191.2157 1057.6389,-201.478 1061.9797,-191.8132 1055.0052,-191.2157"/>
</g>
<!-- Node20&#45;&gt;Node13 -->
<g id="edge33" class="edge">
<title>Node20&#45;&gt;Node13</title>
<path fill="none" stroke="#191970" d="M1069.4126,-128.889C1098.6048,-103.488 1157.2616,-52.4489 1187.3331,-26.2828"/>
<polygon fill="#191970" stroke="#191970" points="1189.7621,-28.8088 1195.0086,-19.6042 1185.1671,-23.528 1189.7621,-28.8088"/>
</g>
<!-- Node21&#45;&gt;Node3 -->
<g id="edge35" class="edge">
<title>Node21&#45;&gt;Node3</title>
<path fill="none" stroke="#191970" d="M499.6014,-160.4729C505.8037,-162.2027 512.0376,-163.7738 518.0462,-165 686.0114,-199.2768 887.9605,-210.8291 988.6518,-214.6556"/>
<polygon fill="#191970" stroke="#191970" points="988.5406,-218.1538 998.6623,-215.0232 988.7974,-211.1585 988.5406,-218.1538"/>
</g>
<!-- Node21&#45;&gt;Node7 -->
<g id="edge36" class="edge">
<title>Node21&#45;&gt;Node7</title>
<path fill="none" stroke="#191970" d="M395.3535,-123.4183C366.9211,-111.1484 331.6164,-95.9127 306.6248,-85.1277"/>
<polygon fill="#191970" stroke="#191970" points="307.8261,-81.8341 297.2578,-81.0853 305.0525,-88.2612 307.8261,-81.8341"/>
</g>
<!-- Node22&#45;&gt;Node3 -->
<g id="edge38" class="edge">
<title>Node22&#45;&gt;Node3</title>
<path fill="none" stroke="#191970" d="M645.4694,-159.086C654.0512,-161.265 662.7603,-163.331 671.0462,-165 781.9887,-187.3473 912.7109,-202.3419 988.6826,-210.1393"/>
<polygon fill="#191970" stroke="#191970" points="988.7286,-213.662 999.0314,-211.1918 989.4369,-206.6979 988.7286,-213.662"/>
</g>
<!-- Node22&#45;&gt;Node7 -->
<g id="edge39" class="edge">
<title>Node22&#45;&gt;Node7</title>
<path fill="none" stroke="#191970" d="M531.2824,-128.9784C523.5021,-126.9091 515.5798,-124.8587 508.0462,-123 447.9035,-108.1614 378.527,-93.087 331.2223,-83.1147"/>
<polygon fill="#191970" stroke="#191970" points="331.6842,-79.6354 321.1781,-81.0041 330.2446,-86.4858 331.6842,-79.6354"/>
</g>
<!-- Node23&#45;&gt;Node3 -->
<g id="edge41" class="edge">
<title>Node23&#45;&gt;Node3</title>
<path fill="none" stroke="#191970" d="M1167.8726,-159.0028C1148.1856,-169.9828 1119.5886,-184.9822 1095.6809,-196.9079"/>
<polygon fill="#191970" stroke="#191970" points="1093.8521,-193.9076 1086.4398,-201.478 1096.9552,-200.1823 1093.8521,-193.9076"/>
</g>
<!-- Node24&#45;&gt;Node3 -->
<g id="edge43" class="edge">
<title>Node24&#45;&gt;Node3</title>
<path fill="none" stroke="#191970" d="M1314.8906,-163.7499C1313.2625,-164.1781 1311.6453,-164.5956 1310.0462,-165 1244.3102,-181.6245 1167.817,-196.8397 1115.1964,-206.3518"/>
<polygon fill="#191970" stroke="#191970" points="1114.5556,-202.9108 1105.3292,-208.1188 1115.7895,-209.8012 1114.5556,-202.9108"/>
</g>
<!-- Node25&#45;&gt;Node2 -->
<g id="edge51" class="edge">
<title>Node25&#45;&gt;Node2</title>
<path fill="none" stroke="#191970" d="M527.4847,-335.4639C548.9769,-325.7996 577.0994,-313.154 600.2204,-302.7572"/>
<polygon fill="#191970" stroke="#191970" points="601.7769,-305.895 609.4619,-298.6017 598.9061,-299.5107 601.7769,-305.895"/>
</g>
<!-- Node25&#45;&gt;Node7 -->
<g id="edge52" class="edge">
<title>Node25&#45;&gt;Node7</title>
<path fill="none" stroke="#191970" d="M441.9416,-348.4495C327.9778,-343.4295 64.5862,-328.7061 38.0462,-299 -14.0692,-240.6674 -11.0427,-183.9015 38.0462,-123 57.3823,-99.011 132.0684,-85.6188 192.4988,-78.5476"/>
<polygon fill="#191970" stroke="#191970" points="192.9025,-82.0243 202.4468,-77.4246 192.1173,-75.0685 192.9025,-82.0243"/>
</g>
<!-- Node26&#45;&gt;Node2 -->
<g id="edge55" class="edge">
<title>Node26&#45;&gt;Node2</title>
<path fill="none" stroke="#191970" d="M1548.4491,-345.9737C1369.653,-333.6366 875.6492,-299.5498 703.3061,-287.658"/>
<polygon fill="#191970" stroke="#191970" points="703.3694,-284.1541 693.1521,-286.9574 702.8875,-291.1375 703.3694,-284.1541"/>
</g>
<!-- Node26&#45;&gt;Node10 -->
<g id="edge54" class="edge">
<title>Node26&#45;&gt;Node10</title>
<path fill="none" stroke="#191970" d="M1679.8531,-345.1898C1779.7625,-336.555 1960.5435,-318.4667 1983.0462,-299 2011.9261,-274.0165 2007.0462,-254.6867 2007.0462,-216.5 2007.0462,-216.5 2007.0462,-216.5 2007.0462,-144 2007.0462,-103.4604 2005.5138,-89.7441 1983.0462,-56 1974.7288,-43.508 1961.9,-32.9215 1950.3268,-25.0652"/>
<polygon fill="#191970" stroke="#191970" points="1952.1232,-22.0593 1941.8169,-19.6033 1948.3421,-27.9503 1952.1232,-22.0593"/>
</g>
<!-- Node27 -->
<g id="node28" class="node">
<title>Node27</title>
<g id="a_node28"><a xlink:href="mir__native__buffer_8h.html" target="_top" xlink:title="mir_toolkit/mir_native\l_buffer.h">
<polygon fill="#ffffff" stroke="#000000" points="2035.5462,-268.5 2035.5462,-298.5 2160.5462,-298.5 2160.5462,-268.5 2035.5462,-268.5"/>
<text text-anchor="start" x="2043.5462" y="-286.5" font-family="Arial" font-size="10.00" fill="#000000">mir_toolkit/mir_native</text>
<text text-anchor="middle" x="2098.0462" y="-275.5" font-family="Arial" font-size="10.00" fill="#000000">_buffer.h</text>
</a>
</g>
</g>
<!-- Node26&#45;&gt;Node27 -->
<g id="edge56" class="edge">
<title>Node26&#45;&gt;Node27</title>
<path fill="none" stroke="#191970" d="M1679.8152,-343.6681C1760.4608,-334.9479 1901.2057,-318.6172 2021.0462,-299 2022.5181,-298.7591 2024.0047,-298.5104 2025.5022,-298.2552"/>
<polygon fill="#191970" stroke="#191970" points="2026.2636,-301.6749 2035.5009,-296.4863 2025.0441,-294.7819 2026.2636,-301.6749"/>
</g>
<!-- Node28&#45;&gt;Node1 -->
<g id="edge58" class="edge">
<title>Node28&#45;&gt;Node1</title>
<path fill="none" stroke="#191970" d="M681.7004,-402.2967C674.1371,-392.1618 664.1686,-378.804 656.2493,-368.1921"/>
<polygon fill="#191970" stroke="#191970" points="658.9627,-365.976 650.1768,-360.055 653.3527,-370.1626 658.9627,-365.976"/>
</g>
</g>
</svg>
