<?xml version="1.0" encoding="UTF-8" standalone="no"?>
<!DOCTYPE svg PUBLIC "-//W3C//DTD SVG 1.1//EN"
 "http://www.w3.org/Graphics/SVG/1.1/DTD/svg11.dtd">
<!-- Generated by graphviz version 2.40.1 (20161225.0304)
 -->
<!-- Title: include/client/mir_toolkit/extensions/android_egl.h Pages: 1 -->
<svg width="1994pt" height="519pt"
 viewBox="0.00 0.00 1993.70 519.00" xmlns="http://www.w3.org/2000/svg" xmlns:xlink="http://www.w3.org/1999/xlink">
<g id="graph0" class="graph" transform="scale(1 1) rotate(0) translate(4 515)">
<title>include/client/mir_toolkit/extensions/android_egl.h</title>
<polygon fill="#ffffff" stroke="transparent" points="-4,4 -4,-515 1989.6977,-515 1989.6977,4 -4,4"/>
<!-- Node0 -->
<g id="node1" class="node">
<title>Node0</title>
<polygon fill="#bfbfbf" stroke="#000000" points="529.6977,-469.5 529.6977,-510.5 627.6977,-510.5 627.6977,-469.5 529.6977,-469.5"/>
<text text-anchor="start" x="537.6977" y="-498.5" font-family="Arial" font-size="10.00" fill="#000000">include/client/mir</text>
<text text-anchor="start" x="537.6977" y="-487.5" font-family="Arial" font-size="10.00" fill="#000000">_toolkit/extensions</text>
<text text-anchor="middle" x="578.6977" y="-476.5" font-family="Arial" font-size="10.00" fill="#000000">/android_egl.h</text>
</g>
<!-- Node1 -->
<g id="node2" class="node">
<title>Node1</title>
<g id="a_node2"><a xlink:href="mir__connection_8h.html" target="_top" xlink:title="mir_toolkit/mir_connection.h">
<polygon fill="#ffffff" stroke="#000000" points="510.1977,-341 510.1977,-360 649.1977,-360 649.1977,-341 510.1977,-341"/>
<text text-anchor="middle" x="579.6977" y="-348" font-family="Arial" font-size="10.00" fill="#000000">mir_toolkit/mir_connection.h</text>
</a>
</g>
</g>
<!-- Node0&#45;&gt;Node1 -->
<g id="edge1" class="edge">
<title>Node0&#45;&gt;Node1</title>
<path fill="none" stroke="#191970" d="M567.1485,-469.3121C561.9238,-458.7867 556.3363,-445.5853 553.6977,-433 550.8705,-419.5154 550.5062,-415.403 553.6977,-402 556.4817,-390.3079 562.3686,-378.2613 567.8377,-368.7615"/>
<polygon fill="#191970" stroke="#191970" points="570.8281,-370.5801 573.0372,-360.2181 564.8484,-366.9409 570.8281,-370.5801"/>
</g>
<!-- Node25 -->
<g id="node26" class="node">
<title>Node25</title>
<g id="a_node26"><a xlink:href="mir__render__surface_8h.html" target="_top" xlink:title="mir_toolkit/rs/mir\l_render_surface.h">
<polygon fill="#ffffff" stroke="#000000" points="397.1977,-335.5 397.1977,-365.5 492.1977,-365.5 492.1977,-335.5 397.1977,-335.5"/>
<text text-anchor="start" x="405.1977" y="-353.5" font-family="Arial" font-size="10.00" fill="#000000">mir_toolkit/rs/mir</text>
<text text-anchor="middle" x="444.6977" y="-342.5" font-family="Arial" font-size="10.00" fill="#000000">_render_surface.h</text>
</a>
</g>
</g>
<!-- Node0&#45;&gt;Node25 -->
<g id="edge50" class="edge">
<title>Node0&#45;&gt;Node25</title>
<path fill="none" stroke="#191970" d="M558.9255,-469.4163C534.144,-443.6176 491.8238,-399.5604 466.2395,-372.926"/>
<polygon fill="#191970" stroke="#191970" points="468.6369,-370.3694 459.1853,-365.5822 463.5886,-375.2187 468.6369,-370.3694"/>
</g>
<!-- Node26 -->
<g id="node27" class="node">
<title>Node26</title>
<g id="a_node27"><a xlink:href="mir__buffer_8h.html" target="_top" xlink:title="mir_toolkit/mir_buffer.h">
<polygon fill="#ffffff" stroke="#000000" points="1608.6977,-341 1608.6977,-360 1724.6977,-360 1724.6977,-341 1608.6977,-341"/>
<text text-anchor="middle" x="1666.6977" y="-348" font-family="Arial" font-size="10.00" fill="#000000">mir_toolkit/mir_buffer.h</text>
</a>
</g>
</g>
<!-- Node0&#45;&gt;Node26 -->
<g id="edge53" class="edge">
<title>Node0&#45;&gt;Node26</title>
<path fill="none" stroke="#191970" d="M627.9166,-483.6893C803.0468,-461.2346 1396.2476,-385.1763 1598.4921,-359.2451"/>
<polygon fill="#191970" stroke="#191970" points="1599.2089,-362.6819 1608.6825,-357.9385 1598.3186,-355.7388 1599.2089,-362.6819"/>
</g>
<!-- Node28 -->
<g id="node29" class="node">
<title>Node28</title>
<g id="a_node29"><a xlink:href="mir__extension__core_8h.html" target="_top" xlink:title="mir_toolkit/mir_extension\l_core.h">
<polygon fill="#ffffff" stroke="#000000" points="562.1977,-402.5 562.1977,-432.5 687.1977,-432.5 687.1977,-402.5 562.1977,-402.5"/>
<text text-anchor="start" x="570.1977" y="-420.5" font-family="Arial" font-size="10.00" fill="#000000">mir_toolkit/mir_extension</text>
<text text-anchor="middle" x="624.6977" y="-409.5" font-family="Arial" font-size="10.00" fill="#000000">_core.h</text>
</a>
</g>
</g>
<!-- Node0&#45;&gt;Node28 -->
<g id="edge57" class="edge">
<title>Node0&#45;&gt;Node28</title>
<path fill="none" stroke="#191970" d="M591.7564,-469.4183C597.3344,-460.627 603.8783,-450.3132 609.6575,-441.2047"/>
<polygon fill="#191970" stroke="#191970" points="612.7154,-442.918 615.1176,-432.5991 606.8047,-439.1678 612.7154,-442.918"/>
</g>
<!-- Node2 -->
<g id="node3" class="node">
<title>Node2</title>
<g id="a_node3"><a xlink:href="client__types_8h.html" target="_top" xlink:title="mir_toolkit/client\l_types.h">
<polygon fill="#ffffff" stroke="#000000" points="535.6977,-268.5 535.6977,-298.5 623.6977,-298.5 623.6977,-268.5 535.6977,-268.5"/>
<text text-anchor="start" x="543.6977" y="-286.5" font-family="Arial" font-size="10.00" fill="#000000">mir_toolkit/client</text>
<text text-anchor="middle" x="579.6977" y="-275.5" font-family="Arial" font-size="10.00" fill="#000000">_types.h</text>
</a>
</g>
</g>
<!-- Node1&#45;&gt;Node2 -->
<g id="edge2" class="edge">
<title>Node1&#45;&gt;Node2</title>
<path fill="none" stroke="#191970" d="M579.6977,-340.9005C579.6977,-332.5099 579.6977,-319.9451 579.6977,-308.7085"/>
<polygon fill="#191970" stroke="#191970" points="583.1978,-308.5217 579.6977,-298.5218 576.1978,-308.5218 583.1978,-308.5217"/>
</g>
<!-- Node6 -->
<g id="node7" class="node">
<title>Node6</title>
<g id="a_node7"><a xlink:href="common_8h.html" target="_top" xlink:title="mir_toolkit/common.h">
<polygon fill="#ffffff" stroke="#000000" points="79.6977,-134.5 79.6977,-153.5 189.6977,-153.5 189.6977,-134.5 79.6977,-134.5"/>
<text text-anchor="middle" x="134.6977" y="-141.5" font-family="Arial" font-size="10.00" fill="#000000">mir_toolkit/common.h</text>
</a>
</g>
</g>
<!-- Node1&#45;&gt;Node6 -->
<g id="edge47" class="edge">
<title>Node1&#45;&gt;Node6</title>
<path fill="none" stroke="#191970" d="M538.5792,-340.9451C439.6554,-317.645 194.4806,-257.92 166.6977,-232 147.5304,-214.1179 139.8133,-183.8489 136.7265,-163.8923"/>
<polygon fill="#191970" stroke="#191970" points="140.1698,-163.2274 135.4185,-153.7577 133.2274,-164.1235 140.1698,-163.2274"/>
</g>
<!-- Node7 -->
<g id="node8" class="node">
<title>Node7</title>
<g id="a_node8"><a xlink:href="deprecations_8h.html" target="_top" xlink:title="mir_toolkit/deprecations.h">
<polygon fill="#ffffff" stroke="#000000" points="191.6977,-62 191.6977,-81 319.6977,-81 319.6977,-62 191.6977,-62"/>
<text text-anchor="middle" x="255.6977" y="-69" font-family="Arial" font-size="10.00" fill="#000000">mir_toolkit/deprecations.h</text>
</a>
</g>
</g>
<!-- Node1&#45;&gt;Node7 -->
<g id="edge48" class="edge">
<title>Node1&#45;&gt;Node7</title>
<path fill="none" stroke="#191970" d="M532.9755,-340.973C522.3793,-338.9126 511.1645,-336.8109 500.6977,-335 298.2015,-299.9658 153.3885,-353.1338 70.6977,-165 63.1866,-147.9112 59.4061,-137.8642 70.6977,-123 84.4603,-104.8829 136.1332,-91.4453 181.381,-82.8472"/>
<polygon fill="#191970" stroke="#191970" points="182.0205,-86.2884 191.2199,-81.0328 180.7509,-79.4045 182.0205,-86.2884"/>
</g>
<!-- Node10 -->
<g id="node11" class="node">
<title>Node10</title>
<polygon fill="#ffffff" stroke="#bfbfbf" points="1739.6977,-.5 1739.6977,-19.5 1795.6977,-19.5 1795.6977,-.5 1739.6977,-.5"/>
<text text-anchor="middle" x="1767.6977" y="-7.5" font-family="Arial" font-size="10.00" fill="#000000">stdbool.h</text>
</g>
<!-- Node1&#45;&gt;Node10 -->
<g id="edge49" class="edge">
<title>Node1&#45;&gt;Node10</title>
<path fill="none" stroke="#191970" d="M649.352,-346.5967C909.5508,-331.5625 1809.6977,-275.3029 1809.6977,-216.5 1809.6977,-216.5 1809.6977,-216.5 1809.6977,-144 1809.6977,-103.9877 1803.9713,-93.7465 1790.6977,-56 1787.4126,-46.6582 1782.6572,-36.7771 1778.3219,-28.5773"/>
<polygon fill="#191970" stroke="#191970" points="1781.2506,-26.6391 1773.3692,-19.5585 1775.1148,-30.0085 1781.2506,-26.6391"/>
</g>
<!-- Node3 -->
<g id="node4" class="node">
<title>Node3</title>
<g id="a_node4"><a xlink:href="toolkit_2events_2event_8h.html" target="_top" xlink:title="mir_toolkit/events\l/event.h">
<polygon fill="#ffffff" stroke="#000000" points="919.6977,-201.5 919.6977,-231.5 1013.6977,-231.5 1013.6977,-201.5 919.6977,-201.5"/>
<text text-anchor="start" x="927.6977" y="-219.5" font-family="Arial" font-size="10.00" fill="#000000">mir_toolkit/events</text>
<text text-anchor="middle" x="966.6977" y="-208.5" font-family="Arial" font-size="10.00" fill="#000000">/event.h</text>
</a>
</g>
</g>
<!-- Node2&#45;&gt;Node3 -->
<g id="edge3" class="edge">
<title>Node2&#45;&gt;Node3</title>
<path fill="none" stroke="#191970" d="M623.7147,-275.8795C693.9606,-263.718 831.4087,-239.9221 909.288,-226.4391"/>
<polygon fill="#191970" stroke="#191970" points="910.1498,-229.8421 919.4061,-224.6874 908.9556,-222.9447 910.1498,-229.8421"/>
</g>
<!-- Node4 -->
<g id="node5" class="node">
<title>Node4</title>
<polygon fill="#ffffff" stroke="#bfbfbf" points="1673.6977,-134.5 1673.6977,-153.5 1725.6977,-153.5 1725.6977,-134.5 1673.6977,-134.5"/>
<text text-anchor="middle" x="1699.6977" y="-141.5" font-family="Arial" font-size="10.00" fill="#000000">stddef.h</text>
</g>
<!-- Node2&#45;&gt;Node4 -->
<g id="edge46" class="edge">
<title>Node2&#45;&gt;Node4</title>
<path fill="none" stroke="#191970" d="M623.8664,-281.2054C801.8329,-271.5727 1466.2478,-231.7794 1664.6977,-165 1669.2017,-163.4844 1673.7478,-161.3217 1678.0049,-158.955"/>
<polygon fill="#191970" stroke="#191970" points="1680.0266,-161.8214 1686.734,-153.6201 1676.3761,-155.8486 1680.0266,-161.8214"/>
</g>
<!-- Node2&#45;&gt;Node6 -->
<g id="edge44" class="edge">
<title>Node2&#45;&gt;Node6</title>
<path fill="none" stroke="#191970" d="M535.6504,-281.5846C448.8964,-277.1524 259.4867,-264.015 203.6977,-232 175.6246,-215.89 154.8522,-183.4405 143.7777,-162.7662"/>
<polygon fill="#191970" stroke="#191970" points="146.8022,-160.9934 139.1307,-153.686 140.5709,-164.1826 146.8022,-160.9934"/>
</g>
<!-- Node2&#45;&gt;Node7 -->
<g id="edge45" class="edge">
<title>Node2&#45;&gt;Node7</title>
<path fill="none" stroke="#191970" d="M535.6531,-274.8407C451.3135,-257.2691 272.2058,-214.8348 236.6977,-165 220.8378,-142.741 233.3153,-110.3334 244.19,-90.1063"/>
<polygon fill="#191970" stroke="#191970" points="247.3288,-91.6686 249.2686,-81.2529 241.2568,-88.1855 247.3288,-91.6686"/>
</g>
<!-- Node3&#45;&gt;Node4 -->
<g id="edge4" class="edge">
<title>Node3&#45;&gt;Node4</title>
<path fill="none" stroke="#191970" d="M1013.9407,-214.2843C1160.7691,-207.2217 1603.0196,-184.5557 1664.6977,-165 1669.3058,-163.539 1673.9433,-161.3654 1678.2674,-158.9627"/>
<polygon fill="#191970" stroke="#191970" points="1680.4192,-161.7481 1687.0997,-153.5248 1676.7492,-155.7873 1680.4192,-161.7481"/>
</g>
<!-- Node5 -->
<g id="node6" class="node">
<title>Node5</title>
<polygon fill="#ffffff" stroke="#bfbfbf" points="1335.1977,-.5 1335.1977,-19.5 1384.1977,-19.5 1384.1977,-.5 1335.1977,-.5"/>
<text text-anchor="middle" x="1359.6977" y="-7.5" font-family="Arial" font-size="10.00" fill="#000000">stdint.h</text>
</g>
<!-- Node3&#45;&gt;Node5 -->
<g id="edge5" class="edge">
<title>Node3&#45;&gt;Node5</title>
<path fill="none" stroke="#191970" d="M1013.9001,-209.2755C1064.693,-200.6255 1141.1091,-184.7944 1162.6977,-165 1200.6215,-130.228 1164.2355,-91.2688 1201.6977,-56 1219.5317,-39.2102 1284.3591,-24.2749 1325.2266,-16.2423"/>
<polygon fill="#191970" stroke="#191970" points="1325.8982,-19.6774 1335.0573,-14.3519 1324.5763,-12.8033 1325.8982,-19.6774"/>
</g>
<!-- Node3&#45;&gt;Node6 -->
<g id="edge6" class="edge">
<title>Node3&#45;&gt;Node6</title>
<path fill="none" stroke="#191970" d="M919.5022,-215.3373C803.0409,-211.9982 492.8334,-200.2435 236.6977,-165 219.6403,-162.653 201.158,-159.1459 184.6716,-155.6668"/>
<polygon fill="#191970" stroke="#191970" points="185.2082,-152.2021 174.695,-153.5148 183.7322,-159.0447 185.2082,-152.2021"/>
</g>
<!-- Node3&#45;&gt;Node7 -->
<g id="edge8" class="edge">
<title>Node3&#45;&gt;Node7</title>
<path fill="none" stroke="#191970" d="M949.4084,-201.3449C938.1415,-191.2892 923.2551,-177.6598 910.6977,-165 892.9701,-147.1279 895.2616,-134.1601 872.6977,-123 825.1045,-99.4605 483.4302,-81.5788 329.9795,-74.6438"/>
<polygon fill="#191970" stroke="#191970" points="329.8528,-71.1347 319.706,-74.1831 329.5391,-78.1276 329.8528,-71.1347"/>
</g>
<!-- Node8 -->
<g id="node9" class="node">
<title>Node8</title>
<g id="a_node9"><a xlink:href="input__event_8h.html" target="_top" xlink:title="mir_toolkit/events\l/input/input_event.h">
<polygon fill="#ffffff" stroke="#000000" points="1553.6977,-129 1553.6977,-159 1655.6977,-159 1655.6977,-129 1553.6977,-129"/>
<text text-anchor="start" x="1561.6977" y="-147" font-family="Arial" font-size="10.00" fill="#000000">mir_toolkit/events</text>
<text text-anchor="middle" x="1604.6977" y="-136" font-family="Arial" font-size="10.00" fill="#000000">/input/input_event.h</text>
</a>
</g>
</g>
<!-- Node3&#45;&gt;Node8 -->
<g id="edge9" class="edge">
<title>Node3&#45;&gt;Node8</title>
<path fill="none" stroke="#191970" d="M1013.8325,-213.5416C1131.6167,-206.2755 1435.8708,-186.5666 1535.6977,-165 1539.5323,-164.1716 1543.4588,-163.1683 1547.4019,-162.0548"/>
<polygon fill="#191970" stroke="#191970" points="1548.6341,-165.3388 1557.1945,-159.0963 1546.6096,-158.6379 1548.6341,-165.3388"/>
</g>
<!-- Node15 -->
<g id="node16" class="node">
<title>Node15</title>
<g id="a_node16"><a xlink:href="resize__event_8h.html" target="_top" xlink:title="mir_toolkit/events\l/resize_event.h">
<polygon fill="#ffffff" stroke="#000000" points="1329.6977,-129 1329.6977,-159 1423.6977,-159 1423.6977,-129 1329.6977,-129"/>
<text text-anchor="start" x="1337.6977" y="-147" font-family="Arial" font-size="10.00" fill="#000000">mir_toolkit/events</text>
<text text-anchor="middle" x="1376.6977" y="-136" font-family="Arial" font-size="10.00" fill="#000000">/resize_event.h</text>
</a>
</g>
</g>
<!-- Node3&#45;&gt;Node15 -->
<g id="edge20" class="edge">
<title>Node3&#45;&gt;Node15</title>
<path fill="none" stroke="#191970" d="M1013.7138,-212.3416C1080.7486,-206.0681 1206.8869,-191.9434 1311.6977,-165 1314.8654,-164.1857 1318.1015,-163.2538 1321.3579,-162.2456"/>
<polygon fill="#191970" stroke="#191970" points="1322.7309,-165.4787 1331.1399,-159.0335 1320.547,-158.8281 1322.7309,-165.4787"/>
</g>
<!-- Node16 -->
<g id="node17" class="node">
<title>Node16</title>
<g id="a_node17"><a xlink:href="surface__event_8h.html" target="_top" xlink:title="mir_toolkit/events\l/surface_event.h">
<polygon fill="#ffffff" stroke="#000000" points="245.6977,-129 245.6977,-159 339.6977,-159 339.6977,-129 245.6977,-129"/>
<text text-anchor="start" x="253.6977" y="-147" font-family="Arial" font-size="10.00" fill="#000000">mir_toolkit/events</text>
<text text-anchor="middle" x="292.6977" y="-136" font-family="Arial" font-size="10.00" fill="#000000">/surface_event.h</text>
</a>
</g>
</g>
<!-- Node3&#45;&gt;Node16 -->
<g id="edge22" class="edge">
<title>Node3&#45;&gt;Node16</title>
<path fill="none" stroke="#191970" d="M919.3065,-214.4447C792.7334,-208.4245 449.6022,-189.6871 339.6977,-165 336.25,-164.2256 332.7294,-163.2859 329.2372,-162.2387"/>
<polygon fill="#191970" stroke="#191970" points="330.1482,-158.8539 319.5552,-159.0503 327.9587,-165.5026 330.1482,-158.8539"/>
</g>
<!-- Node17 -->
<g id="node18" class="node">
<title>Node17</title>
<g id="a_node18"><a xlink:href="window__event_8h.html" target="_top" xlink:title="mir_toolkit/events\l/window_event.h">
<polygon fill="#ffffff" stroke="#000000" points="1441.6977,-129 1441.6977,-159 1535.6977,-159 1535.6977,-129 1441.6977,-129"/>
<text text-anchor="start" x="1449.6977" y="-147" font-family="Arial" font-size="10.00" fill="#000000">mir_toolkit/events</text>
<text text-anchor="middle" x="1488.6977" y="-136" font-family="Arial" font-size="10.00" fill="#000000">/window_event.h</text>
</a>
</g>
</g>
<!-- Node3&#45;&gt;Node17 -->
<g id="edge25" class="edge">
<title>Node3&#45;&gt;Node17</title>
<path fill="none" stroke="#191970" d="M1013.9289,-214.9277C1097.6515,-211.3875 1276.6411,-200.1186 1423.6977,-165 1427.0826,-164.1917 1430.541,-163.235 1434.0159,-162.1828"/>
<polygon fill="#191970" stroke="#191970" points="1435.3725,-165.4224 1443.805,-159.008 1433.213,-158.7638 1435.3725,-165.4224"/>
</g>
<!-- Node18 -->
<g id="node19" class="node">
<title>Node18</title>
<g id="a_node19"><a xlink:href="orientation__event_8h.html" target="_top" xlink:title="mir_toolkit/events\l/orientation_event.h">
<polygon fill="#ffffff" stroke="#000000" points="617.6977,-129 617.6977,-159 719.6977,-159 719.6977,-129 617.6977,-129"/>
<text text-anchor="start" x="625.6977" y="-147" font-family="Arial" font-size="10.00" fill="#000000">mir_toolkit/events</text>
<text text-anchor="middle" x="668.6977" y="-136" font-family="Arial" font-size="10.00" fill="#000000">/orientation_event.h</text>
</a>
</g>
</g>
<!-- Node3&#45;&gt;Node18 -->
<g id="edge27" class="edge">
<title>Node3&#45;&gt;Node18</title>
<path fill="none" stroke="#191970" d="M919.4387,-209.2615C869.191,-200.4332 788.0544,-184.2785 719.6977,-165 716.5642,-164.1163 713.3562,-163.1574 710.1462,-162.1523"/>
<polygon fill="#191970" stroke="#191970" points="711.1751,-158.8065 700.5826,-159.0279 709.0012,-165.4604 711.1751,-158.8065"/>
</g>
<!-- Node19 -->
<g id="node20" class="node">
<title>Node19</title>
<g id="a_node20"><a xlink:href="prompt__session__event_8h.html" target="_top" xlink:title="mir_toolkit/events\l/prompt_session_event.h">
<polygon fill="#ffffff" stroke="#000000" points="737.6977,-129 737.6977,-159 863.6977,-159 863.6977,-129 737.6977,-129"/>
<text text-anchor="start" x="745.6977" y="-147" font-family="Arial" font-size="10.00" fill="#000000">mir_toolkit/events</text>
<text text-anchor="middle" x="800.6977" y="-136" font-family="Arial" font-size="10.00" fill="#000000">/prompt_session_event.h</text>
</a>
</g>
</g>
<!-- Node3&#45;&gt;Node19 -->
<g id="edge29" class="edge">
<title>Node3&#45;&gt;Node19</title>
<path fill="none" stroke="#191970" d="M926.7097,-201.478C899.961,-190.3961 865.0805,-175.2275 838.744,-163.2555"/>
<polygon fill="#191970" stroke="#191970" points="840.0078,-159.9847 829.4586,-159.0028 837.093,-166.349 840.0078,-159.9847"/>
</g>
<!-- Node20 -->
<g id="node21" class="node">
<title>Node20</title>
<g id="a_node21"><a xlink:href="keymap__event_8h.html" target="_top" xlink:title="mir_toolkit/events\l/keymap_event.h">
<polygon fill="#ffffff" stroke="#000000" points="919.6977,-129 919.6977,-159 1013.6977,-159 1013.6977,-129 919.6977,-129"/>
<text text-anchor="start" x="927.6977" y="-147" font-family="Arial" font-size="10.00" fill="#000000">mir_toolkit/events</text>
<text text-anchor="middle" x="966.6977" y="-136" font-family="Arial" font-size="10.00" fill="#000000">/keymap_event.h</text>
</a>
</g>
</g>
<!-- Node3&#45;&gt;Node20 -->
<g id="edge31" class="edge">
<title>Node3&#45;&gt;Node20</title>
<path fill="none" stroke="#191970" d="M961.105,-201.478C959.9471,-192.1459 959.6581,-179.9157 960.2379,-169.1368"/>
<polygon fill="#191970" stroke="#191970" points="963.7396,-169.2654 961.1074,-159.0028 956.7653,-168.667 963.7396,-169.2654"/>
</g>
<!-- Node21 -->
<g id="node22" class="node">
<title>Node21</title>
<g id="a_node22"><a xlink:href="input__configuration__event_8h.html" target="_top" xlink:title="mir_toolkit/events\l/input_configuration\l_event.h">
<polygon fill="#ffffff" stroke="#000000" points="358.1977,-123.5 358.1977,-164.5 459.1977,-164.5 459.1977,-123.5 358.1977,-123.5"/>
<text text-anchor="start" x="366.1977" y="-152.5" font-family="Arial" font-size="10.00" fill="#000000">mir_toolkit/events</text>
<text text-anchor="start" x="366.1977" y="-141.5" font-family="Arial" font-size="10.00" fill="#000000">/input_configuration</text>
<text text-anchor="middle" x="408.6977" y="-130.5" font-family="Arial" font-size="10.00" fill="#000000">_event.h</text>
</a>
</g>
</g>
<!-- Node3&#45;&gt;Node21 -->
<g id="edge34" class="edge">
<title>Node3&#45;&gt;Node21</title>
<path fill="none" stroke="#191970" d="M919.5448,-215.4511C830.7995,-212.6342 633.6445,-202.5137 467.6343,-166.7224"/>
<polygon fill="#191970" stroke="#191970" points="468.2695,-163.2785 457.7516,-164.5528 466.7684,-170.1157 468.2695,-163.2785"/>
</g>
<!-- Node22 -->
<g id="node23" class="node">
<title>Node22</title>
<g id="a_node23"><a xlink:href="surface__output__event_8h.html" target="_top" xlink:title="mir_toolkit/events\l/surface_output_event.h">
<polygon fill="#ffffff" stroke="#000000" points="477.6977,-129 477.6977,-159 599.6977,-159 599.6977,-129 477.6977,-129"/>
<text text-anchor="start" x="485.6977" y="-147" font-family="Arial" font-size="10.00" fill="#000000">mir_toolkit/events</text>
<text text-anchor="middle" x="538.6977" y="-136" font-family="Arial" font-size="10.00" fill="#000000">/surface_output_event.h</text>
</a>
</g>
</g>
<!-- Node3&#45;&gt;Node22 -->
<g id="edge37" class="edge">
<title>Node3&#45;&gt;Node22</title>
<path fill="none" stroke="#191970" d="M919.6483,-212.5614C849.2106,-205.7359 712.9822,-189.9957 599.6977,-165 595.3283,-164.0359 590.8344,-162.9389 586.3567,-161.764"/>
<polygon fill="#191970" stroke="#191970" points="587.2049,-158.3674 576.6347,-159.0885 585.3476,-165.1165 587.2049,-158.3674"/>
</g>
<!-- Node23 -->
<g id="node24" class="node">
<title>Node23</title>
<g id="a_node24"><a xlink:href="window__output__event_8h.html" target="_top" xlink:title="mir_toolkit/events\l/window_output_event.h">
<polygon fill="#ffffff" stroke="#000000" points="1032.1977,-129 1032.1977,-159 1153.1977,-159 1153.1977,-129 1032.1977,-129"/>
<text text-anchor="start" x="1040.1977" y="-147" font-family="Arial" font-size="10.00" fill="#000000">mir_toolkit/events</text>
<text text-anchor="middle" x="1092.6977" y="-136" font-family="Arial" font-size="10.00" fill="#000000">/window_output_event.h</text>
</a>
</g>
</g>
<!-- Node3&#45;&gt;Node23 -->
<g id="edge40" class="edge">
<title>Node3&#45;&gt;Node23</title>
<path fill="none" stroke="#191970" d="M987.2122,-201.478C1004.783,-190.5905 1030.3918,-175.7585 1052.0354,-163.8885"/>
<polygon fill="#191970" stroke="#191970" points="1053.9155,-166.8504 1061.0335,-159.0028 1050.5753,-160.6987 1053.9155,-166.8504"/>
</g>
<!-- Node24 -->
<g id="node25" class="node">
<title>Node24</title>
<g id="a_node25"><a xlink:href="input__device__state__event_8h.html" target="_top" xlink:title="mir_toolkit/events\l/input_device_state\l_event.h">
<polygon fill="#ffffff" stroke="#000000" points="1210.1977,-123.5 1210.1977,-164.5 1311.1977,-164.5 1311.1977,-123.5 1210.1977,-123.5"/>
<text text-anchor="start" x="1218.1977" y="-152.5" font-family="Arial" font-size="10.00" fill="#000000">mir_toolkit/events</text>
<text text-anchor="start" x="1218.1977" y="-141.5" font-family="Arial" font-size="10.00" fill="#000000">/input_device_state</text>
<text text-anchor="middle" x="1260.6977" y="-130.5" font-family="Arial" font-size="10.00" fill="#000000">_event.h</text>
</a>
</g>
</g>
<!-- Node3&#45;&gt;Node24 -->
<g id="edge42" class="edge">
<title>Node3&#45;&gt;Node24</title>
<path fill="none" stroke="#191970" d="M1014.0057,-205.7093C1058.7927,-196.1285 1127.5397,-181.1721 1186.6977,-165 1191.1805,-163.7745 1195.8139,-162.4322 1200.4792,-161.0374"/>
<polygon fill="#191970" stroke="#191970" points="1201.5138,-164.3811 1210.0618,-158.1216 1199.476,-157.6843 1201.5138,-164.3811"/>
</g>
<!-- Node6&#45;&gt;Node7 -->
<g id="edge7" class="edge">
<title>Node6&#45;&gt;Node7</title>
<path fill="none" stroke="#191970" d="M151.0163,-134.2223C171.5176,-121.9385 206.9015,-100.7374 230.7927,-86.4224"/>
<polygon fill="#191970" stroke="#191970" points="232.8585,-89.2649 239.6376,-81.1228 229.2606,-83.2602 232.8585,-89.2649"/>
</g>
<!-- Node8&#45;&gt;Node3 -->
<g id="edge10" class="edge">
<title>Node8&#45;&gt;Node3</title>
<path fill="none" stroke="#191970" d="M1574.8999,-159.0963C1568.0287,-161.3858 1560.7095,-163.4852 1553.6977,-165 1454.2059,-186.4942 1151.6572,-206.1432 1024.1728,-213.468"/>
<polygon fill="#191970" stroke="#191970" points="1023.6293,-209.9932 1013.8445,-214.0563 1024.0274,-216.9819 1023.6293,-209.9932"/>
</g>
<!-- Node8&#45;&gt;Node5 -->
<g id="edge13" class="edge">
<title>Node8&#45;&gt;Node5</title>
<path fill="none" stroke="#191970" d="M1563.9223,-128.9746C1557.5292,-126.8379 1550.9642,-124.7689 1544.6977,-123 1472.0439,-102.4916 1432.8307,-139.6192 1378.6977,-87 1363.4713,-72.1994 1359.695,-47.2873 1359.099,-29.8176"/>
<polygon fill="#191970" stroke="#191970" points="1362.5987,-29.5861 1359.0783,-19.5933 1355.5987,-29.6004 1362.5987,-29.5861"/>
</g>
<!-- Node9 -->
<g id="node10" class="node">
<title>Node9</title>
<g id="a_node10"><a xlink:href="mir__input__device__types_8h.html" target="_top" xlink:title="mir_toolkit/mir_input\l_device_types.h">
<polygon fill="#ffffff" stroke="#000000" points="1387.6977,-56.5 1387.6977,-86.5 1491.6977,-86.5 1491.6977,-56.5 1387.6977,-56.5"/>
<text text-anchor="start" x="1395.6977" y="-74.5" font-family="Arial" font-size="10.00" fill="#000000">mir_toolkit/mir_input</text>
<text text-anchor="middle" x="1439.6977" y="-63.5" font-family="Arial" font-size="10.00" fill="#000000">_device_types.h</text>
</a>
</g>
</g>
<!-- Node8&#45;&gt;Node9 -->
<g id="edge11" class="edge">
<title>Node8&#45;&gt;Node9</title>
<path fill="none" stroke="#191970" d="M1570.5096,-128.978C1545.1782,-117.8475 1510.4642,-102.5944 1483.1624,-90.5981"/>
<polygon fill="#191970" stroke="#191970" points="1484.4052,-87.3213 1473.842,-86.5028 1481.5892,-93.7299 1484.4052,-87.3213"/>
</g>
<!-- Node8&#45;&gt;Node10 -->
<g id="edge14" class="edge">
<title>Node8&#45;&gt;Node10</title>
<path fill="none" stroke="#191970" d="M1611.4029,-128.6818C1620.5173,-109.4188 1638.4965,-76.4044 1662.6977,-56 1682.1379,-39.6097 1708.3274,-28.1217 1729.6871,-20.7254"/>
<polygon fill="#191970" stroke="#191970" points="1731.0239,-23.9701 1739.4259,-17.5159 1728.8329,-17.3218 1731.0239,-23.9701"/>
</g>
<!-- Node11 -->
<g id="node12" class="node">
<title>Node11</title>
<g id="a_node12"><a xlink:href="touch__event_8h.html" target="_top" xlink:title="mir_toolkit/events\l/input/touch_event.h">
<polygon fill="#ffffff" stroke="#000000" points="1510.1977,-56.5 1510.1977,-86.5 1615.1977,-86.5 1615.1977,-56.5 1510.1977,-56.5"/>
<text text-anchor="start" x="1518.1977" y="-74.5" font-family="Arial" font-size="10.00" fill="#000000">mir_toolkit/events</text>
<text text-anchor="middle" x="1562.6977" y="-63.5" font-family="Arial" font-size="10.00" fill="#000000">/input/touch_event.h</text>
</a>
</g>
</g>
<!-- Node8&#45;&gt;Node11 -->
<g id="edge15" class="edge">
<title>Node8&#45;&gt;Node11</title>
<path fill="none" stroke="#191970" d="M1595.9953,-128.978C1590.3638,-119.257 1582.9107,-106.3915 1576.4837,-95.2974"/>
<polygon fill="#191970" stroke="#191970" points="1579.4303,-93.4012 1571.389,-86.5028 1573.3732,-96.9102 1579.4303,-93.4012"/>
</g>
<!-- Node12 -->
<g id="node13" class="node">
<title>Node12</title>
<g id="a_node13"><a xlink:href="keyboard__event_8h.html" target="_top" xlink:title="mir_toolkit/events\l/input/keyboard_event.h">
<polygon fill="#ffffff" stroke="#000000" points="1210.1977,-56.5 1210.1977,-86.5 1331.1977,-86.5 1331.1977,-56.5 1210.1977,-56.5"/>
<text text-anchor="start" x="1218.1977" y="-74.5" font-family="Arial" font-size="10.00" fill="#000000">mir_toolkit/events</text>
<text text-anchor="middle" x="1270.6977" y="-63.5" font-family="Arial" font-size="10.00" fill="#000000">/input/keyboard_event.h</text>
</a>
</g>
</g>
<!-- Node8&#45;&gt;Node12 -->
<g id="edge16" class="edge">
<title>Node8&#45;&gt;Node12</title>
<path fill="none" stroke="#191970" d="M1564.6252,-128.9966C1558.0213,-126.8074 1551.2073,-124.7165 1544.6977,-123 1457.7884,-100.0828 1433.9367,-104.0967 1345.6977,-87 1344.2292,-86.7155 1342.7449,-86.426 1341.2491,-86.1326"/>
<polygon fill="#191970" stroke="#191970" points="1341.744,-82.6627 1331.254,-84.1494 1340.3816,-89.5288 1341.744,-82.6627"/>
</g>
<!-- Node14 -->
<g id="node15" class="node">
<title>Node14</title>
<g id="a_node15"><a xlink:href="pointer__event_8h.html" target="_top" xlink:title="mir_toolkit/events\l/input/pointer_event.h">
<polygon fill="#ffffff" stroke="#000000" points="1671.6977,-56.5 1671.6977,-86.5 1781.6977,-86.5 1781.6977,-56.5 1671.6977,-56.5"/>
<text text-anchor="start" x="1679.6977" y="-74.5" font-family="Arial" font-size="10.00" fill="#000000">mir_toolkit/events</text>
<text text-anchor="middle" x="1726.6977" y="-63.5" font-family="Arial" font-size="10.00" fill="#000000">/input/pointer_event.h</text>
</a>
</g>
</g>
<!-- Node8&#45;&gt;Node14 -->
<g id="edge18" class="edge">
<title>Node8&#45;&gt;Node14</title>
<path fill="none" stroke="#191970" d="M1629.9762,-128.978C1648.1335,-118.1877 1672.8106,-103.523 1692.694,-91.7071"/>
<polygon fill="#191970" stroke="#191970" points="1694.643,-94.6203 1701.4516,-86.5028 1691.0669,-88.6027 1694.643,-94.6203"/>
</g>
<!-- Node9&#45;&gt;Node5 -->
<g id="edge12" class="edge">
<title>Node9&#45;&gt;Node5</title>
<path fill="none" stroke="#191970" d="M1419.9224,-56.2977C1408.0079,-47.1384 1392.8445,-35.4816 1380.7139,-26.1562"/>
<polygon fill="#191970" stroke="#191970" points="1382.568,-23.1668 1372.5067,-19.8469 1378.3016,-28.7165 1382.568,-23.1668"/>
</g>
<!-- Node13 -->
<g id="node14" class="node">
<title>Node13</title>
<polygon fill="#ffffff" stroke="#bfbfbf" points="1041.6977,-.5 1041.6977,-19.5 1175.6977,-19.5 1175.6977,-.5 1041.6977,-.5"/>
<text text-anchor="middle" x="1108.6977" y="-7.5" font-family="Arial" font-size="10.00" fill="#000000">xkbcommon/xkbcommon.h</text>
</g>
<!-- Node12&#45;&gt;Node13 -->
<g id="edge17" class="edge">
<title>Node12&#45;&gt;Node13</title>
<path fill="none" stroke="#191970" d="M1231.068,-56.4554C1204.1565,-46.239 1168.9166,-32.8609 1143.1683,-23.0861"/>
<polygon fill="#191970" stroke="#191970" points="1144.3932,-19.8074 1133.8019,-19.5303 1141.9087,-26.3517 1144.3932,-19.8074"/>
</g>
<!-- Node14&#45;&gt;Node10 -->
<g id="edge19" class="edge">
<title>Node14&#45;&gt;Node10</title>
<path fill="none" stroke="#191970" d="M1736.8325,-56.2977C1742.4645,-47.8498 1749.5128,-37.2773 1755.4517,-28.369"/>
<polygon fill="#191970" stroke="#191970" points="1758.4982,-30.1089 1761.1331,-19.8469 1752.6738,-26.226 1758.4982,-30.1089"/>
</g>
<!-- Node15&#45;&gt;Node3 -->
<g id="edge21" class="edge">
<title>Node15&#45;&gt;Node3</title>
<path fill="none" stroke="#191970" d="M1348.8716,-159.0335C1342.6419,-161.2725 1336.0332,-163.3713 1329.6977,-165 1223.9236,-192.191 1096.428,-206.3267 1024.0461,-212.5126"/>
<polygon fill="#191970" stroke="#191970" points="1023.4508,-209.05 1013.7759,-213.3682 1024.032,-216.0258 1023.4508,-209.05"/>
</g>
<!-- Node16&#45;&gt;Node3 -->
<g id="edge23" class="edge">
<title>Node16&#45;&gt;Node3</title>
<path fill="none" stroke="#191970" d="M337.2468,-159.0503C344.0504,-161.3748 351.0113,-163.4981 357.6977,-165 462.4031,-188.5193 778.7913,-206.6384 909.4376,-213.5057"/>
<polygon fill="#191970" stroke="#191970" points="909.4662,-217.0119 919.6353,-214.0387 909.8316,-210.0214 909.4662,-217.0119"/>
</g>
<!-- Node16&#45;&gt;Node7 -->
<g id="edge24" class="edge">
<title>Node16&#45;&gt;Node7</title>
<path fill="none" stroke="#191970" d="M285.0313,-128.978C279.3426,-117.8313 271.5439,-102.55 265.4176,-90.5457"/>
<polygon fill="#191970" stroke="#191970" points="268.4111,-88.7118 260.7479,-81.3957 262.1762,-91.8938 268.4111,-88.7118"/>
</g>
<!-- Node17&#45;&gt;Node3 -->
<g id="edge26" class="edge">
<title>Node17&#45;&gt;Node3</title>
<path fill="none" stroke="#191970" d="M1461.5104,-159.008C1455.1035,-161.3069 1448.2623,-163.4323 1441.6977,-165 1293.9997,-200.2718 1114.0898,-211.4854 1023.8726,-214.9736"/>
<polygon fill="#191970" stroke="#191970" points="1023.7126,-211.477 1013.8485,-215.3434 1023.9707,-218.4722 1023.7126,-211.477"/>
</g>
<!-- Node18&#45;&gt;Node3 -->
<g id="edge28" class="edge">
<title>Node18&#45;&gt;Node3</title>
<path fill="none" stroke="#191970" d="M718.3622,-159.0279C724.8655,-161.1644 731.4308,-163.2326 737.6977,-165 795.6955,-181.357 862.8933,-195.4652 909.5115,-204.7578"/>
<polygon fill="#191970" stroke="#191970" points="908.9394,-208.2124 919.4292,-206.7245 910.3011,-201.3461 908.9394,-208.2124"/>
</g>
<!-- Node19&#45;&gt;Node3 -->
<g id="edge30" class="edge">
<title>Node19&#45;&gt;Node3</title>
<path fill="none" stroke="#191970" d="M840.6393,-159.0028C867.3785,-170.0799 902.2592,-185.248 928.6056,-197.2237"/>
<polygon fill="#191970" stroke="#191970" points="927.3458,-200.4964 937.8951,-201.478 930.2605,-194.132 927.3458,-200.4964"/>
</g>
<!-- Node20&#45;&gt;Node3 -->
<g id="edge32" class="edge">
<title>Node20&#45;&gt;Node3</title>
<path fill="none" stroke="#191970" d="M972.288,-159.0028C973.4471,-168.3309 973.7373,-180.5601 973.1587,-191.3409"/>
<polygon fill="#191970" stroke="#191970" points="969.6567,-191.2157 972.2904,-201.478 976.6311,-191.8132 969.6567,-191.2157"/>
</g>
<!-- Node20&#45;&gt;Node13 -->
<g id="edge33" class="edge">
<title>Node20&#45;&gt;Node13</title>
<path fill="none" stroke="#191970" d="M982.7109,-128.889C1009.5133,-103.5965 1063.2527,-52.8847 1091.0858,-26.6196"/>
<polygon fill="#191970" stroke="#191970" points="1093.6493,-29.013 1098.5201,-19.6042 1088.845,-23.9219 1093.6493,-29.013"/>
</g>
<!-- Node21&#45;&gt;Node3 -->
<g id="edge35" class="edge">
<title>Node21&#45;&gt;Node3</title>
<path fill="none" stroke="#191970" d="M459.2022,-159.9569C465.4023,-161.889 471.6662,-163.6521 477.6977,-165 631.4588,-199.3615 817.1487,-210.8825 909.2687,-214.6808"/>
<polygon fill="#191970" stroke="#191970" points="909.3645,-218.1872 919.4954,-215.0864 909.642,-211.1927 909.3645,-218.1872"/>
</g>
<!-- Node21&#45;&gt;Node7 -->
<g id="edge36" class="edge">
<title>Node21&#45;&gt;Node7</title>
<path fill="none" stroke="#191970" d="M365.2633,-123.4183C339.5986,-111.257 307.7856,-96.1822 285.0632,-85.415"/>
<polygon fill="#191970" stroke="#191970" points="286.4616,-82.2047 275.9261,-81.0853 283.4641,-88.5304 286.4616,-82.2047"/>
</g>
<!-- Node22&#45;&gt;Node3 -->
<g id="edge38" class="edge">
<title>Node22&#45;&gt;Node3</title>
<path fill="none" stroke="#191970" d="M594.3912,-159.0885C602.2094,-161.2672 610.1399,-163.3324 617.6977,-165 719.4725,-187.4561 839.7659,-202.442 909.3288,-210.2046"/>
<polygon fill="#191970" stroke="#191970" points="909.3075,-213.7234 919.6314,-211.3429 910.0763,-206.7658 909.3075,-213.7234"/>
</g>
<!-- Node22&#45;&gt;Node7 -->
<g id="edge39" class="edge">
<title>Node22&#45;&gt;Node7</title>
<path fill="none" stroke="#191970" d="M488.7468,-128.8899C481.6952,-126.8549 474.5245,-124.8376 467.6977,-123 413.3529,-108.3718 350.6734,-93.3748 307.6426,-83.3653"/>
<polygon fill="#191970" stroke="#191970" points="308.2189,-79.9061 297.6867,-81.0569 306.6377,-86.7252 308.2189,-79.9061"/>
</g>
<!-- Node23&#45;&gt;Node3 -->
<g id="edge41" class="edge">
<title>Node23&#45;&gt;Node3</title>
<path fill="none" stroke="#191970" d="M1072.2142,-159.0028C1054.6529,-169.8856 1029.0465,-184.717 1007.3982,-196.5905"/>
<polygon fill="#191970" stroke="#191970" points="1005.5155,-193.6301 998.3977,-201.478 1008.8559,-199.7817 1005.5155,-193.6301"/>
</g>
<!-- Node24&#45;&gt;Node3 -->
<g id="edge43" class="edge">
<title>Node24&#45;&gt;Node3</title>
<path fill="none" stroke="#191970" d="M1209.9013,-163.545C1208.1516,-164.0447 1206.4136,-164.5309 1204.6977,-165 1143.7801,-181.6531 1072.6945,-197.0172 1024.0802,-206.5499"/>
<polygon fill="#191970" stroke="#191970" points="1023.2097,-203.1534 1014.0593,-208.4939 1024.5429,-210.0253 1023.2097,-203.1534"/>
</g>
<!-- Node25&#45;&gt;Node2 -->
<g id="edge51" class="edge">
<title>Node25&#45;&gt;Node2</title>
<path fill="none" stroke="#191970" d="M474.9943,-335.4639C494.14,-325.9619 519.093,-313.5779 539.8365,-303.283"/>
<polygon fill="#191970" stroke="#191970" points="541.6335,-306.2985 549.0351,-298.7177 538.5216,-300.0282 541.6335,-306.2985"/>
</g>
<!-- Node25&#45;&gt;Node7 -->
<g id="edge52" class="edge">
<title>Node25&#45;&gt;Node7</title>
<path fill="none" stroke="#191970" d="M397.0215,-347.9533C294.6521,-341.9977 61.157,-325.6148 37.6977,-299 -14.0256,-240.3194 -10.8408,-184.3411 37.6977,-123 55.5309,-100.4631 125.438,-86.7829 181.3453,-79.2449"/>
<polygon fill="#191970" stroke="#191970" points="182.1418,-82.6708 191.6058,-77.9081 181.2374,-75.7295 182.1418,-82.6708"/>
</g>
<!-- Node26&#45;&gt;Node2 -->
<g id="edge55" class="edge">
<title>Node26&#45;&gt;Node2</title>
<path fill="none" stroke="#191970" d="M1608.6401,-346.9215C1418.7632,-335.2179 817.8691,-298.1803 633.812,-286.8355"/>
<polygon fill="#191970" stroke="#191970" points="634.0219,-283.3419 623.8255,-286.2199 633.5912,-290.3286 634.0219,-283.3419"/>
</g>
<!-- Node26&#45;&gt;Node10 -->
<g id="edge54" class="edge">
<title>Node26&#45;&gt;Node10</title>
<path fill="none" stroke="#191970" d="M1710.4108,-340.9838C1751.1221,-331.292 1807.8473,-315.3966 1823.6977,-299 1850.2386,-271.5446 1847.6977,-254.6867 1847.6977,-216.5 1847.6977,-216.5 1847.6977,-216.5 1847.6977,-144 1847.6977,-103.4604 1845.7339,-90.0274 1823.6977,-56 1815.8189,-43.8338 1803.6905,-33.302 1792.7329,-25.3974"/>
<polygon fill="#191970" stroke="#191970" points="1794.5321,-22.3878 1784.2997,-19.6402 1790.5853,-28.1691 1794.5321,-22.3878"/>
</g>
<!-- Node27 -->
<g id="node28" class="node">
<title>Node27</title>
<g id="a_node28"><a xlink:href="mir__native__buffer_8h.html" target="_top" xlink:title="mir_toolkit/mir_native\l_buffer.h">
<polygon fill="#ffffff" stroke="#000000" points="1875.6977,-268.5 1875.6977,-298.5 1985.6977,-298.5 1985.6977,-268.5 1875.6977,-268.5"/>
<text text-anchor="start" x="1883.6977" y="-286.5" font-family="Arial" font-size="10.00" fill="#000000">mir_toolkit/mir_native</text>
<text text-anchor="middle" x="1930.6977" y="-275.5" font-family="Arial" font-size="10.00" fill="#000000">_buffer.h</text>
</a>
</g>
</g>
<!-- Node26&#45;&gt;Node27 -->
<g id="edge56" class="edge">
<title>Node26&#45;&gt;Node27</title>
<path fill="none" stroke="#191970" d="M1704.2421,-340.9717C1746.1478,-330.3365 1814.7252,-312.9324 1865.4517,-300.0586"/>
<polygon fill="#191970" stroke="#191970" points="1866.5141,-303.4001 1875.3458,-297.5476 1864.7921,-296.6151 1866.5141,-303.4001"/>
</g>
<!-- Node28&#45;&gt;Node1 -->
<g id="edge58" class="edge">
<title>Node28&#45;&gt;Node1</title>
<path fill="none" stroke="#191970" d="M614.4865,-402.2967C607.7476,-392.2631 598.8871,-379.0709 591.7948,-368.5113"/>
<polygon fill="#191970" stroke="#191970" points="594.5963,-366.4049 586.1152,-360.055 588.7853,-370.3078 594.5963,-366.4049"/>
</g>
</g>
</svg>
