<?xml version="1.0" encoding="UTF-8" standalone="no"?>
<!DOCTYPE svg PUBLIC "-//W3C//DTD SVG 1.1//EN"
 "http://www.w3.org/Graphics/SVG/1.1/DTD/svg11.dtd">
<!-- Generated by graphviz version 2.38.0 (20140413.2041)
 -->
<!-- Title: include/miral/miral/application.h Pages: 1 -->
<svg width="1057pt" height="474pt"
 viewBox="0.00 0.00 1057.00 474.00" xmlns="http://www.w3.org/2000/svg" xmlns:xlink="http://www.w3.org/1999/xlink">
<g id="graph0" class="graph" transform="scale(1 1) rotate(0) translate(4 470)">
<title>include/miral/miral/application.h</title>
<polygon fill="white" stroke="none" points="-4,4 -4,-470 1053,-470 1053,4 -4,4"/>
<!-- Node5 -->
<g id="node1" class="node"><title>Node5</title>
<polygon fill="#bfbfbf" stroke="black" points="260,-435.5 260,-465.5 355,-465.5 355,-435.5 260,-435.5"/>
<text text-anchor="start" x="268" y="-453.5" font-family="Arial" font-size="10.00">include/miral/miral</text>
<text text-anchor="middle" x="307.5" y="-442.5" font-family="Arial" font-size="10.00">/application.h</text>
</g>
<!-- Node6 -->
<g id="node2" class="node"><title>Node6</title>
<g id="a_node2"><a xlink:href="tiling__window__manager_8h.html" target="_top" xlink:title="examples/miral&#45;shell\l/tiling_window_manager.h">
<polygon fill="white" stroke="black" points="515.5,-167.5 515.5,-197.5 643.5,-197.5 643.5,-167.5 515.5,-167.5"/>
<text text-anchor="start" x="523.5" y="-185.5" font-family="Arial" font-size="10.00">examples/miral&#45;shell</text>
<text text-anchor="middle" x="579.5" y="-174.5" font-family="Arial" font-size="10.00">/tiling_window_manager.h</text>
</a>
</g>
</g>
<!-- Node5&#45;&gt;Node6 -->
<g id="edge1" class="edge"><title>Node5&#45;&gt;Node6</title>
<path fill="none" stroke="midnightblue" d="M329.428,-428.056C383.18,-375.49 520.367,-241.328 565.134,-197.549"/>
<polygon fill="midnightblue" stroke="midnightblue" points="326.826,-425.705 322.124,-435.199 331.721,-430.709 326.826,-425.705"/>
</g>
<!-- Node9 -->
<g id="node5" class="node"><title>Node9</title>
<g id="a_node5"><a xlink:href="application__info_8h.html" target="_top" xlink:title="include/miral/miral\l/application_info.h">
<polygon fill="white" stroke="black" points="80,-167.5 80,-197.5 175,-197.5 175,-167.5 80,-167.5"/>
<text text-anchor="start" x="88" y="-185.5" font-family="Arial" font-size="10.00">include/miral/miral</text>
<text text-anchor="middle" x="127.5" y="-174.5" font-family="Arial" font-size="10.00">/application_info.h</text>
</a>
</g>
</g>
<!-- Node5&#45;&gt;Node9 -->
<g id="edge4" class="edge"><title>Node5&#45;&gt;Node9</title>
<path fill="none" stroke="midnightblue" d="M254.923,-431.067C238.632,-423.257 221.76,-412.72 209.5,-399 154.419,-337.363 134.844,-234.945 129.334,-197.642"/>
<polygon fill="midnightblue" stroke="midnightblue" points="253.855,-434.424 264.409,-435.353 256.737,-428.046 253.855,-434.424"/>
</g>
<!-- Node12 -->
<g id="node8" class="node"><title>Node12</title>
<g id="a_node8"><a xlink:href="miral_2miral_2window_8h.html" target="_top" xlink:title="include/miral/miral\l/window.h">
<polygon fill="white" stroke="black" points="219,-368.5 219,-398.5 314,-398.5 314,-368.5 219,-368.5"/>
<text text-anchor="start" x="227" y="-386.5" font-family="Arial" font-size="10.00">include/miral/miral</text>
<text text-anchor="middle" x="266.5" y="-375.5" font-family="Arial" font-size="10.00">/window.h</text>
</a>
</g>
</g>
<!-- Node5&#45;&gt;Node12 -->
<g id="edge8" class="edge"><title>Node5&#45;&gt;Node12</title>
<path fill="none" stroke="midnightblue" d="M293.224,-426.867C287.29,-417.459 280.587,-406.833 275.379,-398.577"/>
<polygon fill="midnightblue" stroke="midnightblue" points="290.308,-428.805 298.604,-435.396 296.229,-425.071 290.308,-428.805"/>
</g>
<!-- Node14 -->
<g id="node10" class="node"><title>Node14</title>
<g id="a_node10"><a xlink:href="window__manager__tools_8h.html" target="_top" xlink:title="include/miral/miral\l/window_manager_tools.h">
<polygon fill="white" stroke="black" points="292.5,-234.5 292.5,-264.5 420.5,-264.5 420.5,-234.5 292.5,-234.5"/>
<text text-anchor="start" x="300.5" y="-252.5" font-family="Arial" font-size="10.00">include/miral/miral</text>
<text text-anchor="middle" x="356.5" y="-241.5" font-family="Arial" font-size="10.00">/window_manager_tools.h</text>
</a>
</g>
</g>
<!-- Node5&#45;&gt;Node14 -->
<g id="edge30" class="edge"><title>Node5&#45;&gt;Node14</title>
<path fill="none" stroke="midnightblue" d="M314.869,-425.832C317.405,-417.396 320.187,-407.804 322.5,-399 335.336,-350.142 347.944,-291.526 353.52,-264.91"/>
<polygon fill="midnightblue" stroke="midnightblue" points="311.514,-424.832 311.944,-435.419 318.21,-426.875 311.514,-424.832"/>
</g>
<!-- Node7 -->
<g id="node3" class="node"><title>Node7</title>
<g id="a_node3"><a xlink:href="shell__main_8cpp.html" target="_top" xlink:title="examples/miral&#45;shell\l/shell_main.cpp">
<polygon fill="white" stroke="black" points="737.5,-11.5 737.5,-41.5 843.5,-41.5 843.5,-11.5 737.5,-11.5"/>
<text text-anchor="start" x="745.5" y="-29.5" font-family="Arial" font-size="10.00">examples/miral&#45;shell</text>
<text text-anchor="middle" x="790.5" y="-18.5" font-family="Arial" font-size="10.00">/shell_main.cpp</text>
</a>
</g>
</g>
<!-- Node6&#45;&gt;Node7 -->
<g id="edge2" class="edge"><title>Node6&#45;&gt;Node7</title>
<path fill="none" stroke="midnightblue" d="M641.243,-164.1C663.119,-156.149 687.096,-145.259 706.5,-131 715.544,-124.354 759.12,-68.3427 779.697,-41.6023"/>
<polygon fill="midnightblue" stroke="midnightblue" points="639.977,-160.835 631.692,-167.438 642.286,-167.443 639.977,-160.835"/>
</g>
<!-- Node8 -->
<g id="node4" class="node"><title>Node8</title>
<g id="a_node4"><a xlink:href="tiling__window__manager_8cpp.html" target="_top" xlink:title="examples/miral&#45;shell\l/tiling_window_manager.cpp">
<polygon fill="white" stroke="black" points="193.5,-95 193.5,-125 331.5,-125 331.5,-95 193.5,-95"/>
<text text-anchor="start" x="201.5" y="-113" font-family="Arial" font-size="10.00">examples/miral&#45;shell</text>
<text text-anchor="middle" x="262.5" y="-102" font-family="Arial" font-size="10.00">/tiling_window_manager.cpp</text>
</a>
</g>
</g>
<!-- Node6&#45;&gt;Node8 -->
<g id="edge3" class="edge"><title>Node6&#45;&gt;Node8</title>
<path fill="none" stroke="midnightblue" d="M506.519,-165.269C451.848,-153.111 377.801,-136.643 325.66,-125.047"/>
<polygon fill="midnightblue" stroke="midnightblue" points="505.971,-168.733 516.492,-167.487 507.49,-161.9 505.971,-168.733"/>
</g>
<!-- Node9&#45;&gt;Node8 -->
<g id="edge7" class="edge"><title>Node9&#45;&gt;Node8</title>
<path fill="none" stroke="midnightblue" d="M163.47,-162.715C186.117,-150.889 214.87,-135.874 235.552,-125.073"/>
<polygon fill="midnightblue" stroke="midnightblue" points="161.739,-159.671 154.495,-167.403 164.979,-165.876 161.739,-159.671"/>
</g>
<!-- Node10 -->
<g id="node6" class="node"><title>Node10</title>
<g id="a_node6"><a xlink:href="kiosk__window__manager_8cpp.html" target="_top" xlink:title="examples/miral&#45;kiosk\l/kiosk_window_manager.cpp">
<polygon fill="white" stroke="black" points="0,-11.5 0,-41.5 141,-41.5 141,-11.5 0,-11.5"/>
<text text-anchor="start" x="8" y="-29.5" font-family="Arial" font-size="10.00">examples/miral&#45;kiosk</text>
<text text-anchor="middle" x="70.5" y="-18.5" font-family="Arial" font-size="10.00">/kiosk_window_manager.cpp</text>
</a>
</g>
</g>
<!-- Node9&#45;&gt;Node10 -->
<g id="edge5" class="edge"><title>Node9&#45;&gt;Node10</title>
<path fill="none" stroke="midnightblue" d="M118.686,-157.687C106.673,-125.231 85.536,-68.1237 75.7475,-41.6776"/>
<polygon fill="midnightblue" stroke="midnightblue" points="115.486,-159.125 122.24,-167.288 122.051,-156.695 115.486,-159.125"/>
</g>
<!-- Node11 -->
<g id="node7" class="node"><title>Node11</title>
<g id="a_node7"><a xlink:href="floating__window__manager_8cpp.html" target="_top" xlink:title="examples/miral&#45;shell\l/floating_window_manager.cpp">
<polygon fill="white" stroke="black" points="285,-11.5 285,-41.5 434,-41.5 434,-11.5 285,-11.5"/>
<text text-anchor="start" x="293" y="-29.5" font-family="Arial" font-size="10.00">examples/miral&#45;shell</text>
<text text-anchor="middle" x="359.5" y="-18.5" font-family="Arial" font-size="10.00">/floating_window_manager.cpp</text>
</a>
</g>
</g>
<!-- Node9&#45;&gt;Node11 -->
<g id="edge6" class="edge"><title>Node9&#45;&gt;Node11</title>
<path fill="none" stroke="midnightblue" d="M127.492,-156.971C128.815,-136.236 134.002,-107.097 151.5,-89 186.118,-53.1986 240.479,-37.9744 284.945,-31.6215"/>
<polygon fill="midnightblue" stroke="midnightblue" points="123.985,-157.098 127.105,-167.223 130.98,-157.363 123.985,-157.098"/>
</g>
<!-- Node13 -->
<g id="node9" class="node"><title>Node13</title>
<g id="a_node9"><a xlink:href="window__info_8h.html" target="_top" xlink:title="include/miral/miral\l/window_info.h">
<polygon fill="white" stroke="black" points="215,-301.5 215,-331.5 310,-331.5 310,-301.5 215,-301.5"/>
<text text-anchor="start" x="223" y="-319.5" font-family="Arial" font-size="10.00">include/miral/miral</text>
<text text-anchor="middle" x="262.5" y="-308.5" font-family="Arial" font-size="10.00">/window_info.h</text>
</a>
</g>
</g>
<!-- Node12&#45;&gt;Node13 -->
<g id="edge9" class="edge"><title>Node12&#45;&gt;Node13</title>
<path fill="none" stroke="midnightblue" d="M265.017,-358.403C264.461,-349.37 263.848,-339.408 263.366,-331.577"/>
<polygon fill="midnightblue" stroke="midnightblue" points="261.524,-358.63 265.632,-368.396 268.511,-358.2 261.524,-358.63"/>
</g>
<!-- Node13&#45;&gt;Node8 -->
<g id="edge12" class="edge"><title>Node13&#45;&gt;Node8</title>
<path fill="none" stroke="midnightblue" d="M262.5,-291.302C262.5,-248.246 262.5,-159.625 262.5,-125.154"/>
<polygon fill="midnightblue" stroke="midnightblue" points="259,-291.444 262.5,-301.444 266,-291.444 259,-291.444"/>
</g>
<!-- Node13&#45;&gt;Node10 -->
<g id="edge10" class="edge"><title>Node13&#45;&gt;Node10</title>
<path fill="none" stroke="midnightblue" d="M205.21,-300.465C155.265,-284.098 85.4979,-252.65 50.5,-198 18.5151,-148.054 48.342,-72.7317 63.21,-41.6657"/>
<polygon fill="midnightblue" stroke="midnightblue" points="204.328,-303.857 214.918,-303.539 206.442,-297.183 204.328,-303.857"/>
</g>
<!-- Node13&#45;&gt;Node11 -->
<g id="edge11" class="edge"><title>Node13&#45;&gt;Node11</title>
<path fill="none" stroke="midnightblue" d="M249.331,-292.32C221.365,-241.655 160.5,-122.873 184.5,-89 207.306,-56.8114 248.357,-41.3462 284.97,-33.97"/>
<polygon fill="midnightblue" stroke="midnightblue" points="246.369,-294.196 254.296,-301.226 252.483,-290.788 246.369,-294.196"/>
</g>
<!-- Node13&#45;&gt;Node14 -->
<g id="edge13" class="edge"><title>Node13&#45;&gt;Node14</title>
<path fill="none" stroke="midnightblue" d="M291.494,-295.451C305.955,-285.452 323.095,-273.6 336.143,-264.577"/>
<polygon fill="midnightblue" stroke="midnightblue" points="289.131,-292.83 282.897,-301.396 293.112,-298.587 289.131,-292.83"/>
</g>
<!-- Node14&#45;&gt;Node6 -->
<g id="edge19" class="edge"><title>Node14&#45;&gt;Node6</title>
<path fill="none" stroke="midnightblue" d="M414.549,-231.58C450.769,-221.022 496.845,-207.592 531.089,-197.611"/>
<polygon fill="midnightblue" stroke="midnightblue" points="413.234,-228.317 404.613,-234.476 415.193,-235.038 413.234,-228.317"/>
</g>
<!-- Node14&#45;&gt;Node8 -->
<g id="edge20" class="edge"><title>Node14&#45;&gt;Node8</title>
<path fill="none" stroke="midnightblue" d="M340.972,-225.786C321.474,-197.265 288.607,-149.188 272.294,-125.326"/>
<polygon fill="midnightblue" stroke="midnightblue" points="338.261,-228.023 346.794,-234.303 344.04,-224.072 338.261,-228.023"/>
</g>
<!-- Node14&#45;&gt;Node10 -->
<g id="edge14" class="edge"><title>Node14&#45;&gt;Node10</title>
<path fill="none" stroke="midnightblue" d="M281.92,-245.858C206.38,-241.428 97.0006,-229.59 70.5,-198 32.4515,-152.645 53.8538,-74.0921 65.038,-41.8957"/>
<polygon fill="midnightblue" stroke="midnightblue" points="282.164,-249.377 292.342,-246.436 282.551,-242.388 282.164,-249.377"/>
</g>
<!-- Node14&#45;&gt;Node11 -->
<g id="edge18" class="edge"><title>Node14&#45;&gt;Node11</title>
<path fill="none" stroke="midnightblue" d="M356.828,-224.302C357.457,-178.037 358.81,-78.3635 359.309,-41.5428"/>
<polygon fill="midnightblue" stroke="midnightblue" points="353.328,-224.293 356.692,-234.339 360.328,-224.388 353.328,-224.293"/>
</g>
<!-- Node15 -->
<g id="node11" class="node"><title>Node15</title>
<g id="a_node11"><a xlink:href="decoration__provider_8h.html" target="_top" xlink:title="examples/miral&#45;shell\l/decoration_provider.h">
<polygon fill="white" stroke="black" points="386,-167.5 386,-197.5 497,-197.5 497,-167.5 386,-167.5"/>
<text text-anchor="start" x="394" y="-185.5" font-family="Arial" font-size="10.00">examples/miral&#45;shell</text>
<text text-anchor="middle" x="441.5" y="-174.5" font-family="Arial" font-size="10.00">/decoration_provider.h</text>
</a>
</g>
</g>
<!-- Node14&#45;&gt;Node15 -->
<g id="edge15" class="edge"><title>Node14&#45;&gt;Node15</title>
<path fill="none" stroke="midnightblue" d="M383.088,-228.168C396.086,-218.228 411.404,-206.514 423.092,-197.577"/>
<polygon fill="midnightblue" stroke="midnightblue" points="380.761,-225.541 374.944,-234.396 385.013,-231.102 380.761,-225.541"/>
</g>
<!-- Node17 -->
<g id="node13" class="node"><title>Node17</title>
<g id="a_node13"><a xlink:href="canonical__window__manager_8h.html" target="_top" xlink:title="include/miral/miral\l/canonical_window_manager.h">
<polygon fill="white" stroke="black" points="705,-167.5 705,-197.5 854,-197.5 854,-167.5 705,-167.5"/>
<text text-anchor="start" x="713" y="-185.5" font-family="Arial" font-size="10.00">include/miral/miral</text>
<text text-anchor="middle" x="779.5" y="-174.5" font-family="Arial" font-size="10.00">/canonical_window_manager.h</text>
</a>
</g>
</g>
<!-- Node14&#45;&gt;Node17 -->
<g id="edge21" class="edge"><title>Node14&#45;&gt;Node17</title>
<path fill="none" stroke="midnightblue" d="M430.849,-237.075C507.841,-225.244 627.467,-206.862 704.645,-195.003"/>
<polygon fill="midnightblue" stroke="midnightblue" points="430.097,-233.65 420.745,-238.628 431.16,-240.568 430.097,-233.65"/>
</g>
<!-- Node15&#45;&gt;Node11 -->
<g id="edge17" class="edge"><title>Node15&#45;&gt;Node11</title>
<path fill="none" stroke="midnightblue" d="M429.044,-158.107C411.802,-125.726 381.192,-68.2381 367.049,-41.6776"/>
<polygon fill="midnightblue" stroke="midnightblue" points="426.143,-160.106 433.933,-167.288 432.322,-156.816 426.143,-160.106"/>
</g>
<!-- Node16 -->
<g id="node12" class="node"><title>Node16</title>
<g id="a_node12"><a xlink:href="decoration__provider_8cpp.html" target="_top" xlink:title="examples/miral&#45;shell\l/decoration_provider.cpp">
<polygon fill="white" stroke="black" points="425.5,-95 425.5,-125 547.5,-125 547.5,-95 425.5,-95"/>
<text text-anchor="start" x="433.5" y="-113" font-family="Arial" font-size="10.00">examples/miral&#45;shell</text>
<text text-anchor="middle" x="486.5" y="-102" font-family="Arial" font-size="10.00">/decoration_provider.cpp</text>
</a>
</g>
</g>
<!-- Node15&#45;&gt;Node16 -->
<g id="edge16" class="edge"><title>Node15&#45;&gt;Node16</title>
<path fill="none" stroke="midnightblue" d="M456.145,-158.557C463.147,-147.586 471.311,-134.797 477.407,-125.246"/>
<polygon fill="midnightblue" stroke="midnightblue" points="453.037,-156.921 450.606,-167.233 458.937,-160.687 453.037,-156.921"/>
</g>
<!-- Node18 -->
<g id="node14" class="node"><title>Node18</title>
<g id="a_node14"><a xlink:href="kiosk__window__manager_8h.html" target="_top" xlink:title="examples/miral&#45;kiosk\l/kiosk_window_manager.h">
<polygon fill="white" stroke="black" points="566,-95 566,-125 697,-125 697,-95 566,-95"/>
<text text-anchor="start" x="574" y="-113" font-family="Arial" font-size="10.00">examples/miral&#45;kiosk</text>
<text text-anchor="middle" x="631.5" y="-102" font-family="Arial" font-size="10.00">/kiosk_window_manager.h</text>
</a>
</g>
</g>
<!-- Node17&#45;&gt;Node18 -->
<g id="edge22" class="edge"><title>Node17&#45;&gt;Node18</title>
<path fill="none" stroke="midnightblue" d="M740.726,-163.03C715.8,-151.156 683.918,-135.97 661.043,-125.073"/>
<polygon fill="midnightblue" stroke="midnightblue" points="739.372,-166.262 749.906,-167.403 742.383,-159.942 739.372,-166.262"/>
</g>
<!-- Node20 -->
<g id="node16" class="node"><title>Node20</title>
<g id="a_node16"><a xlink:href="floating__window__manager_8h.html" target="_top" xlink:title="examples/miral&#45;shell\l/floating_window_manager.h">
<polygon fill="white" stroke="black" points="753.5,-95 753.5,-125 891.5,-125 891.5,-95 753.5,-95"/>
<text text-anchor="start" x="761.5" y="-113" font-family="Arial" font-size="10.00">examples/miral&#45;shell</text>
<text text-anchor="middle" x="822.5" y="-102" font-family="Arial" font-size="10.00">/floating_window_manager.h</text>
</a>
</g>
</g>
<!-- Node17&#45;&gt;Node20 -->
<g id="edge25" class="edge"><title>Node17&#45;&gt;Node20</title>
<path fill="none" stroke="midnightblue" d="M793.494,-158.557C800.185,-147.586 807.986,-134.797 813.811,-125.246"/>
<polygon fill="midnightblue" stroke="midnightblue" points="790.421,-156.873 788.202,-167.233 796.397,-160.518 790.421,-156.873"/>
</g>
<!-- Node21 -->
<g id="node17" class="node"><title>Node21</title>
<g id="a_node17"><a xlink:href="canonical__window__manager__policy_8h.html" target="_top" xlink:title="include/test/mir_test\l_framework/canonical\l_window_manager_policy.h">
<polygon fill="white" stroke="black" points="910,-89.5 910,-130.5 1045,-130.5 1045,-89.5 910,-89.5"/>
<text text-anchor="start" x="918" y="-118.5" font-family="Arial" font-size="10.00">include/test/mir_test</text>
<text text-anchor="start" x="918" y="-107.5" font-family="Arial" font-size="10.00">_framework/canonical</text>
<text text-anchor="middle" x="977.5" y="-96.5" font-family="Arial" font-size="10.00">_window_manager_policy.h</text>
</a>
</g>
</g>
<!-- Node17&#45;&gt;Node21 -->
<g id="edge28" class="edge"><title>Node17&#45;&gt;Node21</title>
<path fill="none" stroke="midnightblue" d="M828.838,-163.933C857.328,-153.789 893.223,-141.008 922.604,-130.546"/>
<polygon fill="midnightblue" stroke="midnightblue" points="827.339,-160.751 819.092,-167.403 829.687,-167.346 827.339,-160.751"/>
</g>
<!-- Node18&#45;&gt;Node10 -->
<g id="edge24" class="edge"><title>Node18&#45;&gt;Node10</title>
<path fill="none" stroke="midnightblue" d="M572.719,-92.5231C567.258,-91.2351 561.79,-90.0351 556.5,-89 546.399,-87.0235 273.556,-52.8551 141.198,-36.3219"/>
<polygon fill="midnightblue" stroke="midnightblue" points="571.956,-95.9396 582.502,-94.9199 573.622,-89.1407 571.956,-95.9396"/>
</g>
<!-- Node19 -->
<g id="node15" class="node"><title>Node19</title>
<g id="a_node15"><a xlink:href="kiosk__main_8cpp.html" target="_top" xlink:title="examples/miral&#45;kiosk\l/kiosk_main.cpp">
<polygon fill="white" stroke="black" points="577,-11.5 577,-41.5 686,-41.5 686,-11.5 577,-11.5"/>
<text text-anchor="start" x="585" y="-29.5" font-family="Arial" font-size="10.00">examples/miral&#45;kiosk</text>
<text text-anchor="middle" x="631.5" y="-18.5" font-family="Arial" font-size="10.00">/kiosk_main.cpp</text>
</a>
</g>
</g>
<!-- Node18&#45;&gt;Node19 -->
<g id="edge23" class="edge"><title>Node18&#45;&gt;Node19</title>
<path fill="none" stroke="midnightblue" d="M631.5,-84.7839C631.5,-70.6843 631.5,-53.4047 631.5,-41.5335"/>
<polygon fill="midnightblue" stroke="midnightblue" points="628,-84.8037 631.5,-94.8038 635,-84.8038 628,-84.8037"/>
</g>
<!-- Node20&#45;&gt;Node7 -->
<g id="edge27" class="edge"><title>Node20&#45;&gt;Node7</title>
<path fill="none" stroke="midnightblue" d="M813.154,-85.1977C807.589,-71.0237 800.717,-53.5211 796.01,-41.5335"/>
<polygon fill="midnightblue" stroke="midnightblue" points="810.013,-86.7748 816.926,-94.8038 816.529,-84.2164 810.013,-86.7748"/>
</g>
<!-- Node20&#45;&gt;Node11 -->
<g id="edge26" class="edge"><title>Node20&#45;&gt;Node11</title>
<path fill="none" stroke="midnightblue" d="M743.146,-95.0316C656.565,-79.7911 519.023,-55.5801 434.286,-40.6642"/>
<polygon fill="midnightblue" stroke="midnightblue" points="742.729,-98.5119 753.184,-96.7986 743.942,-91.6179 742.729,-98.5119"/>
</g>
<!-- Node22 -->
<g id="node18" class="node"><title>Node22</title>
<g id="a_node18"><a xlink:href="declarative__placement__window__manage__policy_8h.html" target="_top" xlink:title="include/test/mir_test\l_framework/declarative\l_placement_window_manage\l_policy.h">
<polygon fill="white" stroke="black" points="906,-0.5 906,-52.5 1049,-52.5 1049,-0.5 906,-0.5"/>
<text text-anchor="start" x="914" y="-40.5" font-family="Arial" font-size="10.00">include/test/mir_test</text>
<text text-anchor="start" x="914" y="-29.5" font-family="Arial" font-size="10.00">_framework/declarative</text>
<text text-anchor="start" x="914" y="-18.5" font-family="Arial" font-size="10.00">_placement_window_manage</text>
<text text-anchor="middle" x="977.5" y="-7.5" font-family="Arial" font-size="10.00">_policy.h</text>
</a>
</g>
</g>
<!-- Node21&#45;&gt;Node22 -->
<g id="edge29" class="edge"><title>Node21&#45;&gt;Node22</title>
<path fill="none" stroke="midnightblue" d="M977.5,-79.1211C977.5,-70.4126 977.5,-60.9894 977.5,-52.6073"/>
<polygon fill="midnightblue" stroke="midnightblue" points="974,-79.2711 977.5,-89.2711 981,-79.2712 974,-79.2711"/>
</g>
</g>
</svg>
