<?xml version="1.0" encoding="UTF-8" standalone="no"?>
<!DOCTYPE svg PUBLIC "-//W3C//DTD SVG 1.1//EN"
 "http://www.w3.org/Graphics/SVG/1.1/DTD/svg11.dtd">
<!-- Generated by graphviz version 2.38.0 (20140413.2041)
 -->
<!-- Title: include/miral/miral/application.h Pages: 1 -->
<svg width="257pt" height="151pt"
 viewBox="0.00 0.00 256.50 151.00" xmlns="http://www.w3.org/2000/svg" xmlns:xlink="http://www.w3.org/1999/xlink">
<g id="graph0" class="graph" transform="scale(1 1) rotate(0) translate(4 147)">
<title>include/miral/miral/application.h</title>
<polygon fill="white" stroke="none" points="-4,4 -4,-147 252.5,-147 252.5,4 -4,4"/>
<!-- Node0 -->
<g id="node1" class="node"><title>Node0</title>
<polygon fill="#bfbfbf" stroke="black" points="115.5,-112.5 115.5,-142.5 210.5,-142.5 210.5,-112.5 115.5,-112.5"/>
<text text-anchor="start" x="123.5" y="-130.5" font-family="Arial" font-size="10.00">include/miral/miral</text>
<text text-anchor="middle" x="163" y="-119.5" font-family="Arial" font-size="10.00">/application.h</text>
</g>
<!-- Node1 -->
<g id="node2" class="node"><title>Node1</title>
<g id="a_node2"><a xlink:href="common_8h.html" target="_top" xlink:title="mir_toolkit/common.h">
<polygon fill="white" stroke="black" points="9,-56.5 9,-75.5 119,-75.5 119,-56.5 9,-56.5"/>
<text text-anchor="middle" x="64" y="-63.5" font-family="Arial" font-size="10.00">mir_toolkit/common.h</text>
</a>
</g>
</g>
<!-- Node0&#45;&gt;Node1 -->
<g id="edge1" class="edge"><title>Node0&#45;&gt;Node1</title>
<path fill="none" stroke="midnightblue" d="M139.538,-112.399C123.669,-102.862 102.809,-90.3248 87.0316,-80.8422"/>
<polygon fill="midnightblue" stroke="midnightblue" points="88.7795,-77.8093 78.4054,-75.6578 85.1735,-83.809 88.7795,-77.8093"/>
</g>
<!-- Node3 -->
<g id="node4" class="node"><title>Node3</title>
<polygon fill="white" stroke="#bfbfbf" points="137,-56.5 137,-75.5 189,-75.5 189,-56.5 137,-56.5"/>
<text text-anchor="middle" x="163" y="-63.5" font-family="Arial" font-size="10.00">memory</text>
</g>
<!-- Node0&#45;&gt;Node3 -->
<g id="edge3" class="edge"><title>Node0&#45;&gt;Node3</title>
<path fill="none" stroke="midnightblue" d="M163,-112.399C163,-104.466 163,-94.458 163,-85.8583"/>
<polygon fill="midnightblue" stroke="midnightblue" points="166.5,-85.6577 163,-75.6578 159.5,-85.6578 166.5,-85.6577"/>
</g>
<!-- Node4 -->
<g id="node5" class="node"><title>Node4</title>
<polygon fill="white" stroke="#bfbfbf" points="207.5,-56.5 207.5,-75.5 248.5,-75.5 248.5,-56.5 207.5,-56.5"/>
<text text-anchor="middle" x="228" y="-63.5" font-family="Arial" font-size="10.00">string</text>
</g>
<!-- Node0&#45;&gt;Node4 -->
<g id="edge4" class="edge"><title>Node0&#45;&gt;Node4</title>
<path fill="none" stroke="midnightblue" d="M178.404,-112.399C188.239,-103.397 200.993,-91.7214 211.105,-82.4652"/>
<polygon fill="midnightblue" stroke="midnightblue" points="213.529,-84.9916 218.542,-75.6578 208.802,-79.8282 213.529,-84.9916"/>
</g>
<!-- Node2 -->
<g id="node3" class="node"><title>Node2</title>
<g id="a_node3"><a xlink:href="deprecations_8h.html" target="_top" xlink:title="mir_toolkit/deprecations.h">
<polygon fill="white" stroke="black" points="0,-0.5 0,-19.5 128,-19.5 128,-0.5 0,-0.5"/>
<text text-anchor="middle" x="64" y="-7.5" font-family="Arial" font-size="10.00">mir_toolkit/deprecations.h</text>
</a>
</g>
</g>
<!-- Node1&#45;&gt;Node2 -->
<g id="edge2" class="edge"><title>Node1&#45;&gt;Node2</title>
<path fill="none" stroke="midnightblue" d="M64,-56.083C64,-49.0059 64,-38.8611 64,-29.9865"/>
<polygon fill="midnightblue" stroke="midnightblue" points="67.5001,-29.751 64,-19.7511 60.5001,-29.7511 67.5001,-29.751"/>
</g>
</g>
</svg>
