<?xml version="1.0" encoding="UTF-8" standalone="no"?>
<!DOCTYPE svg PUBLIC "-//W3C//DTD SVG 1.1//EN"
 "http://www.w3.org/Graphics/SVG/1.1/DTD/svg11.dtd">
<!-- Generated by graphviz version 2.38.0 (20140413.2041)
 -->
<!-- Title: include/miral/miral/application.h Pages: 1 -->
<svg width="983pt" height="441pt"
 viewBox="0.00 0.00 982.85 441.00" xmlns="http://www.w3.org/2000/svg" xmlns:xlink="http://www.w3.org/1999/xlink">
<g id="graph0" class="graph" transform="scale(1 1) rotate(0) translate(4 437)">
<title>include/miral/miral/application.h</title>
<polygon fill="white" stroke="none" points="-4,4 -4,-437 978.848,-437 978.848,4 -4,4"/>
<!-- Node5 -->
<g id="node1" class="node"><title>Node5</title>
<polygon fill="#bfbfbf" stroke="black" points="206.848,-402.5 206.848,-432.5 301.848,-432.5 301.848,-402.5 206.848,-402.5"/>
<text text-anchor="start" x="214.848" y="-420.5" font-family="Arial" font-size="10.00">include/miral/miral</text>
<text text-anchor="middle" x="254.348" y="-409.5" font-family="Arial" font-size="10.00">/application.h</text>
</g>
<!-- Node6 -->
<g id="node2" class="node"><title>Node6</title>
<g id="a_node2"><a xlink:href="tiling__window__manager_8h.html" target="_top" xlink:title="examples/miral&#45;shell\l/tiling_window_manager.h">
<polygon fill="white" stroke="black" points="680.848,-134.5 680.848,-164.5 807.848,-164.5 807.848,-134.5 680.848,-134.5"/>
<text text-anchor="start" x="688.848" y="-152.5" font-family="Arial" font-size="10.00">examples/miral&#45;shell</text>
<text text-anchor="middle" x="744.348" y="-141.5" font-family="Arial" font-size="10.00">/tiling_window_manager.h</text>
</a>
</g>
</g>
<!-- Node5&#45;&gt;Node6 -->
<g id="edge1" class="edge"><title>Node5&#45;&gt;Node6</title>
<path fill="none" stroke="midnightblue" d="M289.394,-397.475C382.846,-346.744 636.438,-209.079 718.412,-164.58"/>
<polygon fill="midnightblue" stroke="midnightblue" points="287.465,-394.54 280.346,-402.386 290.805,-400.692 287.465,-394.54"/>
</g>
<!-- Node10 -->
<g id="node6" class="node"><title>Node10</title>
<g id="a_node6"><a xlink:href="application__info_8h.html" target="_top" xlink:title="include/miral/miral\l/application_info.h">
<polygon fill="white" stroke="black" points="16.8476,-134.5 16.8476,-164.5 111.848,-164.5 111.848,-134.5 16.8476,-134.5"/>
<text text-anchor="start" x="24.8476" y="-152.5" font-family="Arial" font-size="10.00">include/miral/miral</text>
<text text-anchor="middle" x="64.3476" y="-141.5" font-family="Arial" font-size="10.00">/application_info.h</text>
</a>
</g>
</g>
<!-- Node5&#45;&gt;Node10 -->
<g id="edge5" class="edge"><title>Node5&#45;&gt;Node10</title>
<path fill="none" stroke="midnightblue" d="M197.532,-399.167C179.588,-391.399 160.922,-380.608 147.348,-366 90.9911,-305.352 71.5479,-202.327 66.1359,-164.753"/>
<polygon fill="midnightblue" stroke="midnightblue" points="196.238,-402.419 206.819,-402.958 198.883,-395.938 196.238,-402.419"/>
</g>
<!-- Node13 -->
<g id="node9" class="node"><title>Node13</title>
<g id="a_node9"><a xlink:href="miral_2miral_2window_8h.html" target="_top" xlink:title="include/miral/miral\l/window.h">
<polygon fill="white" stroke="black" points="156.848,-335.5 156.848,-365.5 251.848,-365.5 251.848,-335.5 156.848,-335.5"/>
<text text-anchor="start" x="164.848" y="-353.5" font-family="Arial" font-size="10.00">include/miral/miral</text>
<text text-anchor="middle" x="204.348" y="-342.5" font-family="Arial" font-size="10.00">/window.h</text>
</a>
</g>
</g>
<!-- Node5&#45;&gt;Node13 -->
<g id="edge9" class="edge"><title>Node5&#45;&gt;Node13</title>
<path fill="none" stroke="midnightblue" d="M237.384,-394.447C230.039,-384.899 221.658,-374.004 215.176,-365.577"/>
<polygon fill="midnightblue" stroke="midnightblue" points="234.627,-396.604 243.498,-402.396 240.175,-392.336 234.627,-396.604"/>
</g>
<!-- Node15 -->
<g id="node11" class="node"><title>Node15</title>
<g id="a_node11"><a xlink:href="window__manager__tools_8h.html" target="_top" xlink:title="include/miral/miral\l/window_manager_tools.h">
<polygon fill="white" stroke="black" points="251.348,-201.5 251.348,-231.5 379.348,-231.5 379.348,-201.5 251.348,-201.5"/>
<text text-anchor="start" x="259.348" y="-219.5" font-family="Arial" font-size="10.00">include/miral/miral</text>
<text text-anchor="middle" x="315.348" y="-208.5" font-family="Arial" font-size="10.00">/window_manager_tools.h</text>
</a>
</g>
</g>
<!-- Node5&#45;&gt;Node15 -->
<g id="edge30" class="edge"><title>Node5&#45;&gt;Node15</title>
<path fill="none" stroke="midnightblue" d="M261.694,-392.533C274.532,-350.652 300.665,-265.399 311,-231.682"/>
<polygon fill="midnightblue" stroke="midnightblue" points="258.319,-391.602 258.735,-402.188 265.012,-393.653 258.319,-391.602"/>
</g>
<!-- Node7 -->
<g id="node3" class="node"><title>Node7</title>
<g id="a_node3"><a xlink:href="shell__main_8cpp.html" target="_top" xlink:title="examples/miral&#45;shell\l/shell_main.cpp">
<polygon fill="white" stroke="black" points="701.348,-0.5 701.348,-30.5 807.348,-30.5 807.348,-0.5 701.348,-0.5"/>
<text text-anchor="start" x="709.348" y="-18.5" font-family="Arial" font-size="10.00">examples/miral&#45;shell</text>
<text text-anchor="middle" x="754.348" y="-7.5" font-family="Arial" font-size="10.00">/shell_main.cpp</text>
</a>
</g>
</g>
<!-- Node6&#45;&gt;Node7 -->
<g id="edge2" class="edge"><title>Node6&#45;&gt;Node7</title>
<path fill="none" stroke="midnightblue" d="M799.387,-129.864C813.579,-122.28 827.151,-111.922 835.348,-98 842.337,-86.127 842.033,-79.0469 835.348,-67 826.18,-50.4816 809.115,-38.6606 793.004,-30.629"/>
<polygon fill="midnightblue" stroke="midnightblue" points="797.458,-126.912 790.021,-134.457 800.54,-133.197 797.458,-126.912"/>
</g>
<!-- Node8 -->
<g id="node4" class="node"><title>Node8</title>
<g id="a_node4"><a xlink:href="tiling__window__manager_8cpp.html" target="_top" xlink:title="examples/miral&#45;shell\l/tiling_window_manager.cpp">
<polygon fill="white" stroke="black" points="130.848,-67.5 130.848,-97.5 267.848,-97.5 267.848,-67.5 130.848,-67.5"/>
<text text-anchor="start" x="138.848" y="-85.5" font-family="Arial" font-size="10.00">examples/miral&#45;shell</text>
<text text-anchor="middle" x="199.348" y="-74.5" font-family="Arial" font-size="10.00">/tiling_window_manager.cpp</text>
</a>
</g>
</g>
<!-- Node6&#45;&gt;Node8 -->
<g id="edge3" class="edge"><title>Node6&#45;&gt;Node8</title>
<path fill="none" stroke="midnightblue" d="M670.679,-134.019C579.505,-120.833 375.451,-100.506 268.025,-90.0835"/>
<polygon fill="midnightblue" stroke="midnightblue" points="670.299,-137.501 680.705,-135.51 671.329,-130.577 670.299,-137.501"/>
</g>
<!-- Node9 -->
<g id="node5" class="node"><title>Node9</title>
<g id="a_node5"><a xlink:href="server__example_8cpp.html" target="_top" xlink:title="examples/server_example.cpp">
<polygon fill="white" stroke="black" points="825.848,-6 825.848,-25 974.848,-25 974.848,-6 825.848,-6"/>
<text text-anchor="middle" x="900.348" y="-13" font-family="Arial" font-size="10.00">examples/server_example.cpp</text>
</a>
</g>
</g>
<!-- Node6&#45;&gt;Node9 -->
<g id="edge4" class="edge"><title>Node6&#45;&gt;Node9</title>
<path fill="none" stroke="midnightblue" d="M797.884,-130.561C816.262,-122.602 836.039,-111.845 851.348,-98 874.858,-76.7381 890.665,-41.5253 897.1,-25.2478"/>
<polygon fill="midnightblue" stroke="midnightblue" points="796.335,-127.414 788.432,-134.47 799.011,-133.883 796.335,-127.414"/>
</g>
<!-- Node10&#45;&gt;Node8 -->
<g id="edge8" class="edge"><title>Node10&#45;&gt;Node8</title>
<path fill="none" stroke="midnightblue" d="M102.787,-129.992C124.185,-119.689 150.399,-107.068 170.112,-97.5765"/>
<polygon fill="midnightblue" stroke="midnightblue" points="101.132,-126.904 93.6406,-134.396 104.169,-133.211 101.132,-126.904"/>
</g>
<!-- Node11 -->
<g id="node7" class="node"><title>Node11</title>
<g id="a_node7"><a xlink:href="kiosk__window__manager_8cpp.html" target="_top" xlink:title="examples/miral&#45;kiosk\l/kiosk_window_manager.cpp">
<polygon fill="white" stroke="black" points="28.3476,-0.5 28.3476,-30.5 168.348,-30.5 168.348,-0.5 28.3476,-0.5"/>
<text text-anchor="start" x="36.3476" y="-18.5" font-family="Arial" font-size="10.00">examples/miral&#45;kiosk</text>
<text text-anchor="middle" x="98.3476" y="-7.5" font-family="Arial" font-size="10.00">/kiosk_window_manager.cpp</text>
</a>
</g>
</g>
<!-- Node10&#45;&gt;Node11 -->
<g id="edge6" class="edge"><title>Node10&#45;&gt;Node11</title>
<path fill="none" stroke="midnightblue" d="M53.7308,-124.944C47.7749,-108.275 42.8947,-85.659 50.3476,-67 56.1804,-52.3971 68.4671,-39.6027 79.149,-30.5457"/>
<polygon fill="midnightblue" stroke="midnightblue" points="50.559,-126.442 57.4776,-134.466 57.0729,-123.879 50.559,-126.442"/>
</g>
<!-- Node12 -->
<g id="node8" class="node"><title>Node12</title>
<g id="a_node8"><a xlink:href="floating__window__manager_8cpp.html" target="_top" xlink:title="examples/miral&#45;shell\l/floating_window_manager.cpp">
<polygon fill="white" stroke="black" points="259.848,-0.5 259.848,-30.5 408.848,-30.5 408.848,-0.5 259.848,-0.5"/>
<text text-anchor="start" x="267.848" y="-18.5" font-family="Arial" font-size="10.00">examples/miral&#45;shell</text>
<text text-anchor="middle" x="334.348" y="-7.5" font-family="Arial" font-size="10.00">/floating_window_manager.cpp</text>
</a>
</g>
</g>
<!-- Node10&#45;&gt;Node12 -->
<g id="edge7" class="edge"><title>Node10&#45;&gt;Node12</title>
<path fill="none" stroke="midnightblue" d="M65.0674,-124.214C66.9481,-105.902 72.5375,-81.5361 88.3476,-67 113.021,-44.315 196.79,-30.6631 259.771,-23.3765"/>
<polygon fill="midnightblue" stroke="midnightblue" points="61.5589,-124.206 64.3283,-134.433 68.5406,-124.711 61.5589,-124.206"/>
</g>
<!-- Node14 -->
<g id="node10" class="node"><title>Node14</title>
<g id="a_node10"><a xlink:href="window__info_8h.html" target="_top" xlink:title="include/miral/miral\l/window_info.h">
<polygon fill="white" stroke="black" points="151.848,-268.5 151.848,-298.5 246.848,-298.5 246.848,-268.5 151.848,-268.5"/>
<text text-anchor="start" x="159.848" y="-286.5" font-family="Arial" font-size="10.00">include/miral/miral</text>
<text text-anchor="middle" x="199.348" y="-275.5" font-family="Arial" font-size="10.00">/window_info.h</text>
</a>
</g>
</g>
<!-- Node13&#45;&gt;Node14 -->
<g id="edge10" class="edge"><title>Node13&#45;&gt;Node14</title>
<path fill="none" stroke="midnightblue" d="M202.494,-325.403C201.799,-316.37 201.033,-306.408 200.43,-298.577"/>
<polygon fill="midnightblue" stroke="midnightblue" points="199.006,-325.694 203.263,-335.396 205.985,-325.157 199.006,-325.694"/>
</g>
<!-- Node14&#45;&gt;Node8 -->
<g id="edge13" class="edge"><title>Node14&#45;&gt;Node8</title>
<path fill="none" stroke="midnightblue" d="M199.348,-257.998C199.348,-215.93 199.348,-131.256 199.348,-97.6819"/>
<polygon fill="midnightblue" stroke="midnightblue" points="195.848,-258.188 199.348,-268.188 202.848,-258.188 195.848,-258.188"/>
</g>
<!-- Node14&#45;&gt;Node11 -->
<g id="edge11" class="edge"><title>Node14&#45;&gt;Node11</title>
<path fill="none" stroke="midnightblue" d="M142.45,-264.994C96.8695,-247.622 35.9756,-216.083 7.34758,-165 -20.8865,-114.62 43.6656,-56.7528 78.2662,-30.6153"/>
<polygon fill="midnightblue" stroke="midnightblue" points="141.333,-268.313 151.926,-268.488 143.755,-261.745 141.333,-268.313"/>
</g>
<!-- Node14&#45;&gt;Node12 -->
<g id="edge12" class="edge"><title>Node14&#45;&gt;Node12</title>
<path fill="none" stroke="midnightblue" d="M185.509,-259.295C157.108,-210.233 96.8827,-97.9435 121.348,-67 138.554,-45.2372 205.414,-31.8721 259.695,-24.4046"/>
<polygon fill="midnightblue" stroke="midnightblue" points="182.661,-261.356 190.731,-268.221 188.703,-257.822 182.661,-261.356"/>
</g>
<!-- Node14&#45;&gt;Node15 -->
<g id="edge14" class="edge"><title>Node14&#45;&gt;Node15</title>
<path fill="none" stroke="midnightblue" d="M233.62,-263.296C251.771,-253.125 273.668,-240.855 290.226,-231.577"/>
<polygon fill="midnightblue" stroke="midnightblue" points="231.531,-260.454 224.518,-268.396 234.953,-266.561 231.531,-260.454"/>
</g>
<!-- Node15&#45;&gt;Node6 -->
<g id="edge20" class="edge"><title>Node15&#45;&gt;Node6</title>
<path fill="none" stroke="midnightblue" d="M389.848,-206.148C462.004,-196.804 574.419,-181.488 671.348,-165 674.405,-164.48 677.53,-163.93 680.685,-163.36"/>
<polygon fill="midnightblue" stroke="midnightblue" points="388.971,-202.732 379.501,-207.483 389.867,-209.675 388.971,-202.732"/>
</g>
<!-- Node15&#45;&gt;Node8 -->
<g id="edge21" class="edge"><title>Node15&#45;&gt;Node8</title>
<path fill="none" stroke="midnightblue" d="M296.052,-193.543C272.07,-166.253 231.847,-120.482 211.672,-97.5247"/>
<polygon fill="midnightblue" stroke="midnightblue" points="293.703,-196.172 302.934,-201.374 298.961,-191.552 293.703,-196.172"/>
</g>
<!-- Node15&#45;&gt;Node11 -->
<g id="edge15" class="edge"><title>Node15&#45;&gt;Node11</title>
<path fill="none" stroke="midnightblue" d="M315.935,-191.423C315.378,-158.775 309.379,-100.686 276.348,-67 248.235,-38.3304 205.138,-25.6183 168.392,-20.1156"/>
<polygon fill="midnightblue" stroke="midnightblue" points="312.435,-191.451 315.946,-201.447 319.435,-191.443 312.435,-191.451"/>
</g>
<!-- Node15&#45;&gt;Node12 -->
<g id="edge19" class="edge"><title>Node15&#45;&gt;Node12</title>
<path fill="none" stroke="midnightblue" d="M317.687,-190.998C321.704,-148.93 329.788,-64.2558 332.994,-30.6819"/>
<polygon fill="midnightblue" stroke="midnightblue" points="314.18,-190.901 316.714,-201.188 321.149,-191.566 314.18,-190.901"/>
</g>
<!-- Node16 -->
<g id="node12" class="node"><title>Node16</title>
<g id="a_node12"><a xlink:href="decoration__provider_8h.html" target="_top" xlink:title="examples/miral&#45;shell\l/decoration_provider.h">
<polygon fill="white" stroke="black" points="367.348,-134.5 367.348,-164.5 479.348,-164.5 479.348,-134.5 367.348,-134.5"/>
<text text-anchor="start" x="375.348" y="-152.5" font-family="Arial" font-size="10.00">examples/miral&#45;shell</text>
<text text-anchor="middle" x="423.348" y="-141.5" font-family="Arial" font-size="10.00">/decoration_provider.h</text>
</a>
</g>
</g>
<!-- Node15&#45;&gt;Node16 -->
<g id="edge16" class="edge"><title>Node15&#45;&gt;Node16</title>
<path fill="none" stroke="midnightblue" d="M347.722,-196.015C364.529,-185.9 384.684,-173.77 399.959,-164.577"/>
<polygon fill="midnightblue" stroke="midnightblue" points="345.545,-193.241 338.782,-201.396 349.155,-199.238 345.545,-193.241"/>
</g>
<!-- Node18 -->
<g id="node14" class="node"><title>Node18</title>
<g id="a_node14"><a xlink:href="canonical__window__manager_8h.html" target="_top" xlink:title="include/miral/miral\l/canonical_window_manager.h">
<polygon fill="white" stroke="black" points="514.348,-134.5 514.348,-164.5 662.348,-164.5 662.348,-134.5 514.348,-134.5"/>
<text text-anchor="start" x="522.348" y="-152.5" font-family="Arial" font-size="10.00">include/miral/miral</text>
<text text-anchor="middle" x="588.348" y="-141.5" font-family="Arial" font-size="10.00">/canonical_window_manager.h</text>
</a>
</g>
</g>
<!-- Node15&#45;&gt;Node18 -->
<g id="edge22" class="edge"><title>Node15&#45;&gt;Node18</title>
<path fill="none" stroke="midnightblue" d="M384.149,-199.119C428.82,-188.483 486.444,-174.763 529.082,-164.611"/>
<polygon fill="midnightblue" stroke="midnightblue" points="383.166,-195.755 374.248,-201.476 384.787,-202.565 383.166,-195.755"/>
</g>
<!-- Node16&#45;&gt;Node12 -->
<g id="edge18" class="edge"><title>Node16&#45;&gt;Node12</title>
<path fill="none" stroke="midnightblue" d="M463.313,-129.125C475.178,-121.231 486.757,-110.882 493.348,-98 499.623,-85.7344 501.483,-78.1196 493.348,-67 473.937,-40.4693 440.484,-27.5372 409.256,-21.3607"/>
<polygon fill="midnightblue" stroke="midnightblue" points="461.366,-126.213 454.69,-134.44 465.039,-132.172 461.366,-126.213"/>
</g>
<!-- Node17 -->
<g id="node13" class="node"><title>Node17</title>
<g id="a_node13"><a xlink:href="decoration__provider_8cpp.html" target="_top" xlink:title="examples/miral&#45;shell\l/decoration_provider.cpp">
<polygon fill="white" stroke="black" points="362.348,-67.5 362.348,-97.5 484.348,-97.5 484.348,-67.5 362.348,-67.5"/>
<text text-anchor="start" x="370.348" y="-85.5" font-family="Arial" font-size="10.00">examples/miral&#45;shell</text>
<text text-anchor="middle" x="423.348" y="-74.5" font-family="Arial" font-size="10.00">/decoration_provider.cpp</text>
</a>
</g>
</g>
<!-- Node16&#45;&gt;Node17 -->
<g id="edge17" class="edge"><title>Node16&#45;&gt;Node17</title>
<path fill="none" stroke="midnightblue" d="M423.348,-124.108C423.348,-115.154 423.348,-105.323 423.348,-97.5765"/>
<polygon fill="midnightblue" stroke="midnightblue" points="419.848,-124.396 423.348,-134.396 426.848,-124.396 419.848,-124.396"/>
</g>
<!-- Node19 -->
<g id="node15" class="node"><title>Node19</title>
<g id="a_node15"><a xlink:href="kiosk__window__manager_8h.html" target="_top" xlink:title="examples/miral&#45;kiosk\l/kiosk_window_manager.h">
<polygon fill="white" stroke="black" points="540.348,-67.5 540.348,-97.5 670.348,-97.5 670.348,-67.5 540.348,-67.5"/>
<text text-anchor="start" x="548.348" y="-85.5" font-family="Arial" font-size="10.00">examples/miral&#45;kiosk</text>
<text text-anchor="middle" x="605.348" y="-74.5" font-family="Arial" font-size="10.00">/kiosk_window_manager.h</text>
</a>
</g>
</g>
<!-- Node18&#45;&gt;Node19 -->
<g id="edge23" class="edge"><title>Node18&#45;&gt;Node19</title>
<path fill="none" stroke="midnightblue" d="M594.573,-124.697C596.956,-115.587 599.596,-105.493 601.666,-97.5765"/>
<polygon fill="midnightblue" stroke="midnightblue" points="591.181,-123.836 592.036,-134.396 597.953,-125.607 591.181,-123.836"/>
</g>
<!-- Node21 -->
<g id="node17" class="node"><title>Node21</title>
<g id="a_node17"><a xlink:href="floating__window__manager_8h.html" target="_top" xlink:title="examples/miral&#45;shell\l/floating_window_manager.h">
<polygon fill="white" stroke="black" points="688.348,-67.5 688.348,-97.5 826.348,-97.5 826.348,-67.5 688.348,-67.5"/>
<text text-anchor="start" x="696.348" y="-85.5" font-family="Arial" font-size="10.00">examples/miral&#45;shell</text>
<text text-anchor="middle" x="757.348" y="-74.5" font-family="Arial" font-size="10.00">/floating_window_manager.h</text>
</a>
</g>
</g>
<!-- Node18&#45;&gt;Node21 -->
<g id="edge26" class="edge"><title>Node18&#45;&gt;Node21</title>
<path fill="none" stroke="midnightblue" d="M634.676,-130.682C661.78,-120.257 695.518,-107.281 720.749,-97.5765"/>
<polygon fill="midnightblue" stroke="midnightblue" points="633.095,-127.539 625.018,-134.396 635.608,-134.073 633.095,-127.539"/>
</g>
<!-- Node19&#45;&gt;Node11 -->
<g id="edge25" class="edge"><title>Node19&#45;&gt;Node11</title>
<path fill="none" stroke="midnightblue" d="M530.005,-71.7291C517.752,-70.145 505.198,-68.5246 493.348,-67 379.694,-52.3777 247.627,-35.5203 168.634,-25.4518"/>
<polygon fill="midnightblue" stroke="midnightblue" points="529.837,-75.2365 540.204,-73.0484 530.735,-68.2944 529.837,-75.2365"/>
</g>
<!-- Node20 -->
<g id="node16" class="node"><title>Node20</title>
<g id="a_node16"><a xlink:href="kiosk__main_8cpp.html" target="_top" xlink:title="examples/miral&#45;kiosk\l/kiosk_main.cpp">
<polygon fill="white" stroke="black" points="550.848,-0.5 550.848,-30.5 659.848,-30.5 659.848,-0.5 550.848,-0.5"/>
<text text-anchor="start" x="558.848" y="-18.5" font-family="Arial" font-size="10.00">examples/miral&#45;kiosk</text>
<text text-anchor="middle" x="605.348" y="-7.5" font-family="Arial" font-size="10.00">/kiosk_main.cpp</text>
</a>
</g>
</g>
<!-- Node19&#45;&gt;Node20 -->
<g id="edge24" class="edge"><title>Node19&#45;&gt;Node20</title>
<path fill="none" stroke="midnightblue" d="M605.348,-57.1081C605.348,-48.1539 605.348,-38.3227 605.348,-30.5765"/>
<polygon fill="midnightblue" stroke="midnightblue" points="601.848,-57.3959 605.348,-67.396 608.848,-57.396 601.848,-57.3959"/>
</g>
<!-- Node21&#45;&gt;Node7 -->
<g id="edge28" class="edge"><title>Node21&#45;&gt;Node7</title>
<path fill="none" stroke="midnightblue" d="M756.235,-57.4029C755.819,-48.3703 755.359,-38.4078 754.997,-30.5765"/>
<polygon fill="midnightblue" stroke="midnightblue" points="752.739,-57.568 756.697,-67.396 759.732,-57.2452 752.739,-57.568"/>
</g>
<!-- Node21&#45;&gt;Node9 -->
<g id="edge29" class="edge"><title>Node21&#45;&gt;Node9</title>
<path fill="none" stroke="midnightblue" d="M797.758,-63.1315C825.283,-50.6205 860.44,-34.6399 881.632,-25.007"/>
<polygon fill="midnightblue" stroke="midnightblue" points="796.032,-60.0716 788.376,-67.396 798.928,-66.4442 796.032,-60.0716"/>
</g>
<!-- Node21&#45;&gt;Node12 -->
<g id="edge27" class="edge"><title>Node21&#45;&gt;Node12</title>
<path fill="none" stroke="midnightblue" d="M677.916,-66.797C579.402,-50.5675 476.824,-35.9388 409.179,-26.6079"/>
<polygon fill="midnightblue" stroke="midnightblue" points="677.612,-70.2943 688.049,-68.4747 678.755,-63.3883 677.612,-70.2943"/>
</g>
</g>
</svg>
