<?xml version="1.0" encoding="UTF-8" standalone="no"?>
<!DOCTYPE svg PUBLIC "-//W3C//DTD SVG 1.1//EN"
 "http://www.w3.org/Graphics/SVG/1.1/DTD/svg11.dtd">
<!-- Generated by graphviz version 2.43.0 (0)
 -->
<!-- Title: include/miral/miral/application_info.h Pages: 1 -->
<svg width="334pt" height="151pt"
 viewBox="0.00 0.00 334.00 151.00" xmlns="http://www.w3.org/2000/svg" xmlns:xlink="http://www.w3.org/1999/xlink">
<g id="graph0" class="graph" transform="scale(1 1) rotate(0) translate(4 147)">
<title>include/miral/miral/application_info.h</title>
<polygon fill="white" stroke="transparent" points="-4,4 -4,-147 330,-147 330,4 -4,4"/>
<!-- Node1 -->
<g id="node1" class="node">
<title>Node1</title>
<g id="a_node1"><a xlink:title=" ">
<polygon fill="#bfbfbf" stroke="black" points="196,-112.5 196,-142.5 305,-142.5 305,-112.5 196,-112.5"/>
<text text-anchor="start" x="204" y="-130.5" font-family="Arial" font-size="10.00">include/miral/miral</text>
<text text-anchor="middle" x="250.5" y="-119.5" font-family="Arial" font-size="10.00">/application_info.h</text>
</a>
</g>
</g>
<!-- Node2 -->
<g id="node2" class="node">
<title>Node2</title>
<g id="a_node2"><a xlink:href="application_8h.html" target="_top" xlink:title=" ">
<polygon fill="white" stroke="black" points="114.5,-56.5 114.5,-75.5 222.5,-75.5 222.5,-56.5 114.5,-56.5"/>
<text text-anchor="middle" x="168.5" y="-63.5" font-family="Arial" font-size="10.00">miral/application.h</text>
</a>
</g>
</g>
<!-- Node1&#45;&gt;Node2 -->
<g id="edge1" class="edge">
<title>Node1&#45;&gt;Node2</title>
<path fill="none" stroke="midnightblue" d="M231.07,-112.4C218.29,-103.13 201.61,-91.03 188.69,-81.65"/>
<polygon fill="midnightblue" stroke="midnightblue" points="190.58,-78.7 180.43,-75.66 186.47,-84.36 190.58,-78.7"/>
</g>
<!-- Node5 -->
<g id="node5" class="node">
<title>Node5</title>
<g id="a_node5"><a xlink:title=" ">
<polygon fill="white" stroke="#bfbfbf" points="225.5,-0.5 225.5,-19.5 269.5,-19.5 269.5,-0.5 225.5,-0.5"/>
<text text-anchor="middle" x="247.5" y="-7.5" font-family="Arial" font-size="10.00">string</text>
</a>
</g>
</g>
<!-- Node1&#45;&gt;Node5 -->
<g id="edge5" class="edge">
<title>Node1&#45;&gt;Node5</title>
<path fill="none" stroke="midnightblue" d="M250.13,-112.34C249.59,-91.62 248.59,-53.02 247.99,-29.9"/>
<polygon fill="midnightblue" stroke="midnightblue" points="251.48,-29.58 247.73,-19.67 244.49,-29.76 251.48,-29.58"/>
</g>
<!-- Node6 -->
<g id="node6" class="node">
<title>Node6</title>
<g id="a_node6"><a xlink:title=" ">
<polygon fill="white" stroke="#bfbfbf" points="279,-56.5 279,-75.5 326,-75.5 326,-56.5 279,-56.5"/>
<text text-anchor="middle" x="302.5" y="-63.5" font-family="Arial" font-size="10.00">vector</text>
</a>
</g>
</g>
<!-- Node1&#45;&gt;Node6 -->
<g id="edge6" class="edge">
<title>Node1&#45;&gt;Node6</title>
<path fill="none" stroke="midnightblue" d="M262.82,-112.4C270.46,-103.66 280.29,-92.41 288.26,-83.3"/>
<polygon fill="midnightblue" stroke="midnightblue" points="290.99,-85.49 294.93,-75.66 285.72,-80.88 290.99,-85.49"/>
</g>
<!-- Node3 -->
<g id="node3" class="node">
<title>Node3</title>
<g id="a_node3"><a xlink:href="common_8h.html" target="_top" xlink:title=" ">
<polygon fill="white" stroke="black" points="0,-0.5 0,-19.5 125,-19.5 125,-0.5 0,-0.5"/>
<text text-anchor="middle" x="62.5" y="-7.5" font-family="Arial" font-size="10.00">mir_toolkit/common.h</text>
</a>
</g>
</g>
<!-- Node2&#45;&gt;Node3 -->
<g id="edge2" class="edge">
<title>Node2&#45;&gt;Node3</title>
<path fill="none" stroke="midnightblue" d="M151.47,-56.32C134.47,-47.66 108.12,-34.24 88.51,-24.25"/>
<polygon fill="midnightblue" stroke="midnightblue" points="89.99,-21.08 79.49,-19.65 86.81,-27.31 89.99,-21.08"/>
</g>
<!-- Node4 -->
<g id="node4" class="node">
<title>Node4</title>
<g id="a_node4"><a xlink:title=" ">
<polygon fill="white" stroke="#bfbfbf" points="143.5,-0.5 143.5,-19.5 201.5,-19.5 201.5,-0.5 143.5,-0.5"/>
<text text-anchor="middle" x="172.5" y="-7.5" font-family="Arial" font-size="10.00">memory</text>
</a>
</g>
</g>
<!-- Node2&#45;&gt;Node4 -->
<g id="edge3" class="edge">
<title>Node2&#45;&gt;Node4</title>
<path fill="none" stroke="midnightblue" d="M169.16,-56.08C169.68,-49.01 170.44,-38.86 171.09,-29.99"/>
<polygon fill="midnightblue" stroke="midnightblue" points="174.6,-29.98 171.85,-19.75 167.62,-29.47 174.6,-29.98"/>
</g>
<!-- Node2&#45;&gt;Node5 -->
<g id="edge4" class="edge">
<title>Node2&#45;&gt;Node5</title>
<path fill="none" stroke="midnightblue" d="M181.19,-56.32C193.4,-47.98 212.08,-35.21 226.5,-25.35"/>
<polygon fill="midnightblue" stroke="midnightblue" points="228.56,-28.19 234.84,-19.65 224.61,-22.41 228.56,-28.19"/>
</g>
</g>
</svg>
