<?xml version="1.0" encoding="UTF-8" standalone="no"?>
<!DOCTYPE svg PUBLIC "-//W3C//DTD SVG 1.1//EN"
 "http://www.w3.org/Graphics/SVG/1.1/DTD/svg11.dtd">
<!-- Generated by graphviz version 2.43.0 (0)
 -->
<!-- Title: include/miral/miral/application_info.h Pages: 1 -->
<svg width="307pt" height="151pt"
 viewBox="0.00 0.00 307.00 151.00" xmlns="http://www.w3.org/2000/svg" xmlns:xlink="http://www.w3.org/1999/xlink">
<g id="graph0" class="graph" transform="scale(1 1) rotate(0) translate(4 147)">
<title>include/miral/miral/application_info.h</title>
<polygon fill="white" stroke="transparent" points="-4,4 -4,-147 303,-147 303,4 -4,4"/>
<!-- Node1 -->
<g id="node1" class="node">
<title>Node1</title>
<g id="a_node1"><a xlink:title=" ">
<polygon fill="#bfbfbf" stroke="black" points="179.5,-112.5 179.5,-142.5 274.5,-142.5 274.5,-112.5 179.5,-112.5"/>
<text text-anchor="start" x="187.5" y="-130.5" font-family="Arial" font-size="10.00">include/miral/miral</text>
<text text-anchor="middle" x="227" y="-119.5" font-family="Arial" font-size="10.00">/application_info.h</text>
</a>
</g>
</g>
<!-- Node2 -->
<g id="node2" class="node">
<title>Node2</title>
<g id="a_node2"><a xlink:href="application_8h.html" target="_top" xlink:title=" ">
<polygon fill="white" stroke="black" points="103.5,-56.5 103.5,-75.5 198.5,-75.5 198.5,-56.5 103.5,-56.5"/>
<text text-anchor="middle" x="151" y="-63.5" font-family="Arial" font-size="10.00">miral/application.h</text>
</a>
</g>
</g>
<!-- Node1&#45;&gt;Node2 -->
<g id="edge1" class="edge">
<title>Node1&#45;&gt;Node2</title>
<path fill="none" stroke="midnightblue" d="M208.99,-112.4C197.26,-103.22 181.98,-91.26 170.06,-81.92"/>
<polygon fill="midnightblue" stroke="midnightblue" points="172.09,-79.07 162.06,-75.66 167.78,-84.58 172.09,-79.07"/>
</g>
<!-- Node5 -->
<g id="node5" class="node">
<title>Node5</title>
<g id="a_node5"><a xlink:title=" ">
<polygon fill="white" stroke="#bfbfbf" points="203.5,-0.5 203.5,-19.5 244.5,-19.5 244.5,-0.5 203.5,-0.5"/>
<text text-anchor="middle" x="224" y="-7.5" font-family="Arial" font-size="10.00">string</text>
</a>
</g>
</g>
<!-- Node1&#45;&gt;Node5 -->
<g id="edge5" class="edge">
<title>Node1&#45;&gt;Node5</title>
<path fill="none" stroke="midnightblue" d="M226.63,-112.34C226.09,-91.62 225.09,-53.02 224.49,-29.9"/>
<polygon fill="midnightblue" stroke="midnightblue" points="227.98,-29.58 224.23,-19.67 220.99,-29.76 227.98,-29.58"/>
</g>
<!-- Node6 -->
<g id="node6" class="node">
<title>Node6</title>
<g id="a_node6"><a xlink:title=" ">
<polygon fill="white" stroke="#bfbfbf" points="255,-56.5 255,-75.5 299,-75.5 299,-56.5 255,-56.5"/>
<text text-anchor="middle" x="277" y="-63.5" font-family="Arial" font-size="10.00">vector</text>
</a>
</g>
</g>
<!-- Node1&#45;&gt;Node6 -->
<g id="edge6" class="edge">
<title>Node1&#45;&gt;Node6</title>
<path fill="none" stroke="midnightblue" d="M238.85,-112.4C246.11,-103.75 255.45,-92.64 263.07,-83.58"/>
<polygon fill="midnightblue" stroke="midnightblue" points="265.97,-85.57 269.72,-75.66 260.61,-81.06 265.97,-85.57"/>
</g>
<!-- Node3 -->
<g id="node3" class="node">
<title>Node3</title>
<g id="a_node3"><a xlink:href="common_8h.html" target="_top" xlink:title=" ">
<polygon fill="white" stroke="black" points="0,-0.5 0,-19.5 110,-19.5 110,-0.5 0,-0.5"/>
<text text-anchor="middle" x="55" y="-7.5" font-family="Arial" font-size="10.00">mir_toolkit/common.h</text>
</a>
</g>
</g>
<!-- Node2&#45;&gt;Node3 -->
<g id="edge2" class="edge">
<title>Node2&#45;&gt;Node3</title>
<path fill="none" stroke="midnightblue" d="M135.58,-56.32C120.46,-47.82 97.18,-34.73 79.53,-24.8"/>
<polygon fill="midnightblue" stroke="midnightblue" points="80.82,-21.51 70.39,-19.65 77.39,-27.61 80.82,-21.51"/>
</g>
<!-- Node4 -->
<g id="node4" class="node">
<title>Node4</title>
<g id="a_node4"><a xlink:title=" ">
<polygon fill="white" stroke="#bfbfbf" points="128,-0.5 128,-19.5 180,-19.5 180,-0.5 128,-0.5"/>
<text text-anchor="middle" x="154" y="-7.5" font-family="Arial" font-size="10.00">memory</text>
</a>
</g>
</g>
<!-- Node2&#45;&gt;Node4 -->
<g id="edge3" class="edge">
<title>Node2&#45;&gt;Node4</title>
<path fill="none" stroke="midnightblue" d="M151.5,-56.08C151.89,-49.01 152.45,-38.86 152.95,-29.99"/>
<polygon fill="midnightblue" stroke="midnightblue" points="156.45,-29.93 153.51,-19.75 149.46,-29.54 156.45,-29.93"/>
</g>
<!-- Node2&#45;&gt;Node5 -->
<g id="edge4" class="edge">
<title>Node2&#45;&gt;Node5</title>
<path fill="none" stroke="midnightblue" d="M162.73,-56.32C173.84,-48.11 190.74,-35.6 203.98,-25.81"/>
<polygon fill="midnightblue" stroke="midnightblue" points="206.1,-28.59 212.06,-19.83 201.94,-22.97 206.1,-28.59"/>
</g>
</g>
</svg>
