<?xml version="1.0" encoding="UTF-8" standalone="no"?>
<!DOCTYPE svg PUBLIC "-//W3C//DTD SVG 1.1//EN"
 "http://www.w3.org/Graphics/SVG/1.1/DTD/svg11.dtd">
<!-- Generated by graphviz version 2.38.0 (20140413.2041)
 -->
<!-- Title: include/miral/miral/application_authorizer.h Pages: 1 -->
<svg width="337pt" height="162pt"
 viewBox="0.00 0.00 336.50 162.00" xmlns="http://www.w3.org/2000/svg" xmlns:xlink="http://www.w3.org/1999/xlink">
<g id="graph0" class="graph" transform="scale(1 1) rotate(0) translate(4 158)">
<title>include/miral/miral/application_authorizer.h</title>
<polygon fill="white" stroke="none" points="-4,4 -4,-158 332.5,-158 332.5,4 -4,4"/>
<!-- Node0 -->
<g id="node1" class="node"><title>Node0</title>
<polygon fill="#bfbfbf" stroke="black" points="127.5,-123.5 127.5,-153.5 249.5,-153.5 249.5,-123.5 127.5,-123.5"/>
<text text-anchor="start" x="135.5" y="-141.5" font-family="Arial" font-size="10.00">include/miral/miral</text>
<text text-anchor="middle" x="188.5" y="-130.5" font-family="Arial" font-size="10.00">/application_authorizer.h</text>
</g>
<!-- Node1 -->
<g id="node2" class="node"><title>Node1</title>
<g id="a_node2"><a xlink:href="miral_2miral_2version_8h.html" target="_top" xlink:title="miral/version.h">
<polygon fill="white" stroke="black" points="17,-67.5 17,-86.5 96,-86.5 96,-67.5 17,-67.5"/>
<text text-anchor="middle" x="56.5" y="-74.5" font-family="Arial" font-size="10.00">miral/version.h</text>
</a>
</g>
</g>
<!-- Node0&#45;&gt;Node1 -->
<g id="edge1" class="edge"><title>Node0&#45;&gt;Node1</title>
<path fill="none" stroke="midnightblue" d="M157.218,-123.399C135.268,-113.505 106.157,-100.383 84.8786,-90.7919"/>
<polygon fill="midnightblue" stroke="midnightblue" points="86.2621,-87.5764 75.7072,-86.6578 83.3855,-93.958 86.2621,-87.5764"/>
</g>
<!-- Node3 -->
<g id="node4" class="node"><title>Node3</title>
<polygon fill="white" stroke="#bfbfbf" points="114.5,-67.5 114.5,-86.5 182.5,-86.5 182.5,-67.5 114.5,-67.5"/>
<text text-anchor="middle" x="148.5" y="-74.5" font-family="Arial" font-size="10.00">sys/types.h</text>
</g>
<!-- Node0&#45;&gt;Node3 -->
<g id="edge3" class="edge"><title>Node0&#45;&gt;Node3</title>
<path fill="none" stroke="midnightblue" d="M179.021,-123.399C173.328,-114.932 166.046,-104.099 160.022,-95.1393"/>
<polygon fill="midnightblue" stroke="midnightblue" points="162.804,-93.0041 154.32,-86.6578 156.995,-96.9095 162.804,-93.0041"/>
</g>
<!-- Node4 -->
<g id="node5" class="node"><title>Node4</title>
<polygon fill="white" stroke="#bfbfbf" points="200.5,-67.5 200.5,-86.5 258.5,-86.5 258.5,-67.5 200.5,-67.5"/>
<text text-anchor="middle" x="229.5" y="-74.5" font-family="Arial" font-size="10.00">functional</text>
</g>
<!-- Node0&#45;&gt;Node4 -->
<g id="edge4" class="edge"><title>Node0&#45;&gt;Node4</title>
<path fill="none" stroke="midnightblue" d="M198.216,-123.399C204.051,-114.932 211.516,-104.099 217.69,-95.1393"/>
<polygon fill="midnightblue" stroke="midnightblue" points="220.742,-96.8781 223.534,-86.6578 214.978,-92.9062 220.742,-96.8781"/>
</g>
<!-- Node5 -->
<g id="node6" class="node"><title>Node5</title>
<polygon fill="white" stroke="#bfbfbf" points="276.5,-67.5 276.5,-86.5 328.5,-86.5 328.5,-67.5 276.5,-67.5"/>
<text text-anchor="middle" x="302.5" y="-74.5" font-family="Arial" font-size="10.00">memory</text>
</g>
<!-- Node0&#45;&gt;Node5 -->
<g id="edge5" class="edge"><title>Node0&#45;&gt;Node5</title>
<path fill="none" stroke="midnightblue" d="M215.516,-123.399C234.131,-113.684 258.71,-100.855 276.991,-91.3137"/>
<polygon fill="midnightblue" stroke="midnightblue" points="278.666,-94.3876 285.912,-86.6578 275.427,-88.182 278.666,-94.3876"/>
</g>
<!-- Node2 -->
<g id="node3" class="node"><title>Node2</title>
<g id="a_node3"><a xlink:href="mir__version__number_8h.html" target="_top" xlink:title="mir_toolkit/mir_version\l_number.h">
<polygon fill="white" stroke="black" points="0,-0.5 0,-30.5 113,-30.5 113,-0.5 0,-0.5"/>
<text text-anchor="start" x="8" y="-18.5" font-family="Arial" font-size="10.00">mir_toolkit/mir_version</text>
<text text-anchor="middle" x="56.5" y="-7.5" font-family="Arial" font-size="10.00">_number.h</text>
</a>
</g>
</g>
<!-- Node1&#45;&gt;Node2 -->
<g id="edge2" class="edge"><title>Node1&#45;&gt;Node2</title>
<path fill="none" stroke="midnightblue" d="M56.5,-67.4751C56.5,-60.471 56.5,-50.1919 56.5,-40.6956"/>
<polygon fill="midnightblue" stroke="midnightblue" points="60.0001,-40.5229 56.5,-30.523 53.0001,-40.523 60.0001,-40.5229"/>
</g>
</g>
</svg>
