<?xml version="1.0" encoding="UTF-8" standalone="no"?>
<!DOCTYPE svg PUBLIC "-//W3C//DTD SVG 1.1//EN"
 "http://www.w3.org/Graphics/SVG/1.1/DTD/svg11.dtd">
<!-- Generated by graphviz version 2.38.0 (20140413.2041)
 -->
<!-- Title: include/miral/miral/application.h Pages: 1 -->
<svg width="1054pt" height="474pt"
 viewBox="0.00 0.00 1053.50 474.00" xmlns="http://www.w3.org/2000/svg" xmlns:xlink="http://www.w3.org/1999/xlink">
<g id="graph0" class="graph" transform="scale(1 1) rotate(0) translate(4 470)">
<title>include/miral/miral/application.h</title>
<polygon fill="white" stroke="none" points="-4,4 -4,-470 1049.5,-470 1049.5,4 -4,4"/>
<!-- Node5 -->
<g id="node1" class="node"><title>Node5</title>
<polygon fill="#bfbfbf" stroke="black" points="259.5,-435.5 259.5,-465.5 354.5,-465.5 354.5,-435.5 259.5,-435.5"/>
<text text-anchor="start" x="267.5" y="-453.5" font-family="Arial" font-size="10.00">include/miral/miral</text>
<text text-anchor="middle" x="307" y="-442.5" font-family="Arial" font-size="10.00">/application.h</text>
</g>
<!-- Node6 -->
<g id="node2" class="node"><title>Node6</title>
<g id="a_node2"><a xlink:href="tiling__window__manager_8h.html" target="_top" xlink:title="examples/miral&#45;shell\l/tiling_window_manager.h">
<polygon fill="white" stroke="black" points="515.5,-167.5 515.5,-197.5 642.5,-197.5 642.5,-167.5 515.5,-167.5"/>
<text text-anchor="start" x="523.5" y="-185.5" font-family="Arial" font-size="10.00">examples/miral&#45;shell</text>
<text text-anchor="middle" x="579" y="-174.5" font-family="Arial" font-size="10.00">/tiling_window_manager.h</text>
</a>
</g>
</g>
<!-- Node5&#45;&gt;Node6 -->
<g id="edge1" class="edge"><title>Node5&#45;&gt;Node6</title>
<path fill="none" stroke="midnightblue" d="M328.928,-428.056C382.68,-375.49 519.867,-241.328 564.634,-197.549"/>
<polygon fill="midnightblue" stroke="midnightblue" points="326.326,-425.705 321.624,-435.199 331.221,-430.709 326.326,-425.705"/>
</g>
<!-- Node9 -->
<g id="node5" class="node"><title>Node9</title>
<g id="a_node5"><a xlink:href="application__info_8h.html" target="_top" xlink:title="include/miral/miral\l/application_info.h">
<polygon fill="white" stroke="black" points="79.5,-167.5 79.5,-197.5 174.5,-197.5 174.5,-167.5 79.5,-167.5"/>
<text text-anchor="start" x="87.5" y="-185.5" font-family="Arial" font-size="10.00">include/miral/miral</text>
<text text-anchor="middle" x="127" y="-174.5" font-family="Arial" font-size="10.00">/application_info.h</text>
</a>
</g>
</g>
<!-- Node5&#45;&gt;Node9 -->
<g id="edge4" class="edge"><title>Node5&#45;&gt;Node9</title>
<path fill="none" stroke="midnightblue" d="M254.423,-431.067C238.132,-423.257 221.26,-412.72 209,-399 153.919,-337.363 134.344,-234.945 128.834,-197.642"/>
<polygon fill="midnightblue" stroke="midnightblue" points="253.355,-434.424 263.909,-435.353 256.237,-428.046 253.355,-434.424"/>
</g>
<!-- Node12 -->
<g id="node8" class="node"><title>Node12</title>
<g id="a_node8"><a xlink:href="miral_2miral_2window_8h.html" target="_top" xlink:title="include/miral/miral\l/window.h">
<polygon fill="white" stroke="black" points="218.5,-368.5 218.5,-398.5 313.5,-398.5 313.5,-368.5 218.5,-368.5"/>
<text text-anchor="start" x="226.5" y="-386.5" font-family="Arial" font-size="10.00">include/miral/miral</text>
<text text-anchor="middle" x="266" y="-375.5" font-family="Arial" font-size="10.00">/window.h</text>
</a>
</g>
</g>
<!-- Node5&#45;&gt;Node12 -->
<g id="edge8" class="edge"><title>Node5&#45;&gt;Node12</title>
<path fill="none" stroke="midnightblue" d="M292.724,-426.867C286.79,-417.459 280.087,-406.833 274.879,-398.577"/>
<polygon fill="midnightblue" stroke="midnightblue" points="289.808,-428.805 298.104,-435.396 295.729,-425.071 289.808,-428.805"/>
</g>
<!-- Node14 -->
<g id="node10" class="node"><title>Node14</title>
<g id="a_node10"><a xlink:href="window__manager__tools_8h.html" target="_top" xlink:title="include/miral/miral\l/window_manager_tools.h">
<polygon fill="white" stroke="black" points="292,-234.5 292,-264.5 420,-264.5 420,-234.5 292,-234.5"/>
<text text-anchor="start" x="300" y="-252.5" font-family="Arial" font-size="10.00">include/miral/miral</text>
<text text-anchor="middle" x="356" y="-241.5" font-family="Arial" font-size="10.00">/window_manager_tools.h</text>
</a>
</g>
</g>
<!-- Node5&#45;&gt;Node14 -->
<g id="edge30" class="edge"><title>Node5&#45;&gt;Node14</title>
<path fill="none" stroke="midnightblue" d="M314.369,-425.832C316.905,-417.396 319.687,-407.804 322,-399 334.836,-350.142 347.444,-291.526 353.02,-264.91"/>
<polygon fill="midnightblue" stroke="midnightblue" points="311.014,-424.832 311.444,-435.419 317.71,-426.875 311.014,-424.832"/>
</g>
<!-- Node7 -->
<g id="node3" class="node"><title>Node7</title>
<g id="a_node3"><a xlink:href="shell__main_8cpp.html" target="_top" xlink:title="examples/miral&#45;shell\l/shell_main.cpp">
<polygon fill="white" stroke="black" points="735,-11.5 735,-41.5 841,-41.5 841,-11.5 735,-11.5"/>
<text text-anchor="start" x="743" y="-29.5" font-family="Arial" font-size="10.00">examples/miral&#45;shell</text>
<text text-anchor="middle" x="788" y="-18.5" font-family="Arial" font-size="10.00">/shell_main.cpp</text>
</a>
</g>
</g>
<!-- Node6&#45;&gt;Node7 -->
<g id="edge2" class="edge"><title>Node6&#45;&gt;Node7</title>
<path fill="none" stroke="midnightblue" d="M639.49,-164.048C661.095,-156.072 684.817,-145.178 704,-131 713.026,-124.329 756.612,-68.3307 777.194,-41.5979"/>
<polygon fill="midnightblue" stroke="midnightblue" points="638.311,-160.753 630.059,-167.399 640.654,-167.349 638.311,-160.753"/>
</g>
<!-- Node8 -->
<g id="node4" class="node"><title>Node8</title>
<g id="a_node4"><a xlink:href="tiling__window__manager_8cpp.html" target="_top" xlink:title="examples/miral&#45;shell\l/tiling_window_manager.cpp">
<polygon fill="white" stroke="black" points="193.5,-95 193.5,-125 330.5,-125 330.5,-95 193.5,-95"/>
<text text-anchor="start" x="201.5" y="-113" font-family="Arial" font-size="10.00">examples/miral&#45;shell</text>
<text text-anchor="middle" x="262" y="-102" font-family="Arial" font-size="10.00">/tiling_window_manager.cpp</text>
</a>
</g>
</g>
<!-- Node6&#45;&gt;Node8 -->
<g id="edge3" class="edge"><title>Node6&#45;&gt;Node8</title>
<path fill="none" stroke="midnightblue" d="M506.019,-165.269C451.348,-153.111 377.301,-136.643 325.16,-125.047"/>
<polygon fill="midnightblue" stroke="midnightblue" points="505.471,-168.733 515.992,-167.487 506.99,-161.9 505.471,-168.733"/>
</g>
<!-- Node9&#45;&gt;Node8 -->
<g id="edge7" class="edge"><title>Node9&#45;&gt;Node8</title>
<path fill="none" stroke="midnightblue" d="M162.97,-162.715C185.617,-150.889 214.37,-135.874 235.052,-125.073"/>
<polygon fill="midnightblue" stroke="midnightblue" points="161.239,-159.671 153.995,-167.403 164.479,-165.876 161.239,-159.671"/>
</g>
<!-- Node10 -->
<g id="node6" class="node"><title>Node10</title>
<g id="a_node6"><a xlink:href="kiosk__window__manager_8cpp.html" target="_top" xlink:title="examples/miral&#45;kiosk\l/kiosk_window_manager.cpp">
<polygon fill="white" stroke="black" points="0,-11.5 0,-41.5 140,-41.5 140,-11.5 0,-11.5"/>
<text text-anchor="start" x="8" y="-29.5" font-family="Arial" font-size="10.00">examples/miral&#45;kiosk</text>
<text text-anchor="middle" x="70" y="-18.5" font-family="Arial" font-size="10.00">/kiosk_window_manager.cpp</text>
</a>
</g>
</g>
<!-- Node9&#45;&gt;Node10 -->
<g id="edge5" class="edge"><title>Node9&#45;&gt;Node10</title>
<path fill="none" stroke="midnightblue" d="M118.186,-157.687C106.173,-125.231 85.036,-68.1237 75.2475,-41.6776"/>
<polygon fill="midnightblue" stroke="midnightblue" points="114.986,-159.125 121.74,-167.288 121.551,-156.695 114.986,-159.125"/>
</g>
<!-- Node11 -->
<g id="node7" class="node"><title>Node11</title>
<g id="a_node7"><a xlink:href="floating__window__manager_8cpp.html" target="_top" xlink:title="examples/miral&#45;shell\l/floating_window_manager.cpp">
<polygon fill="white" stroke="black" points="284.5,-11.5 284.5,-41.5 433.5,-41.5 433.5,-11.5 284.5,-11.5"/>
<text text-anchor="start" x="292.5" y="-29.5" font-family="Arial" font-size="10.00">examples/miral&#45;shell</text>
<text text-anchor="middle" x="359" y="-18.5" font-family="Arial" font-size="10.00">/floating_window_manager.cpp</text>
</a>
</g>
</g>
<!-- Node9&#45;&gt;Node11 -->
<g id="edge6" class="edge"><title>Node9&#45;&gt;Node11</title>
<path fill="none" stroke="midnightblue" d="M126.992,-156.971C128.315,-136.236 133.502,-107.097 151,-89 185.618,-53.1986 239.979,-37.9744 284.445,-31.6215"/>
<polygon fill="midnightblue" stroke="midnightblue" points="123.485,-157.098 126.605,-167.223 130.48,-157.363 123.485,-157.098"/>
</g>
<!-- Node13 -->
<g id="node9" class="node"><title>Node13</title>
<g id="a_node9"><a xlink:href="window__info_8h.html" target="_top" xlink:title="include/miral/miral\l/window_info.h">
<polygon fill="white" stroke="black" points="214.5,-301.5 214.5,-331.5 309.5,-331.5 309.5,-301.5 214.5,-301.5"/>
<text text-anchor="start" x="222.5" y="-319.5" font-family="Arial" font-size="10.00">include/miral/miral</text>
<text text-anchor="middle" x="262" y="-308.5" font-family="Arial" font-size="10.00">/window_info.h</text>
</a>
</g>
</g>
<!-- Node12&#45;&gt;Node13 -->
<g id="edge9" class="edge"><title>Node12&#45;&gt;Node13</title>
<path fill="none" stroke="midnightblue" d="M264.517,-358.403C263.961,-349.37 263.348,-339.408 262.866,-331.577"/>
<polygon fill="midnightblue" stroke="midnightblue" points="261.024,-358.63 265.132,-368.396 268.011,-358.2 261.024,-358.63"/>
</g>
<!-- Node13&#45;&gt;Node8 -->
<g id="edge12" class="edge"><title>Node13&#45;&gt;Node8</title>
<path fill="none" stroke="midnightblue" d="M262,-291.302C262,-248.246 262,-159.625 262,-125.154"/>
<polygon fill="midnightblue" stroke="midnightblue" points="258.5,-291.444 262,-301.444 265.5,-291.444 258.5,-291.444"/>
</g>
<!-- Node13&#45;&gt;Node10 -->
<g id="edge10" class="edge"><title>Node13&#45;&gt;Node10</title>
<path fill="none" stroke="midnightblue" d="M204.71,-300.465C154.765,-284.098 84.9979,-252.65 50,-198 18.0151,-148.054 47.842,-72.7317 62.71,-41.6657"/>
<polygon fill="midnightblue" stroke="midnightblue" points="203.828,-303.857 214.418,-303.539 205.942,-297.183 203.828,-303.857"/>
</g>
<!-- Node13&#45;&gt;Node11 -->
<g id="edge11" class="edge"><title>Node13&#45;&gt;Node11</title>
<path fill="none" stroke="midnightblue" d="M248.831,-292.32C220.865,-241.655 160,-122.873 184,-89 206.806,-56.8114 247.857,-41.3462 284.47,-33.97"/>
<polygon fill="midnightblue" stroke="midnightblue" points="245.869,-294.196 253.796,-301.226 251.983,-290.788 245.869,-294.196"/>
</g>
<!-- Node13&#45;&gt;Node14 -->
<g id="edge13" class="edge"><title>Node13&#45;&gt;Node14</title>
<path fill="none" stroke="midnightblue" d="M290.994,-295.451C305.455,-285.452 322.595,-273.6 335.643,-264.577"/>
<polygon fill="midnightblue" stroke="midnightblue" points="288.631,-292.83 282.397,-301.396 292.612,-298.587 288.631,-292.83"/>
</g>
<!-- Node14&#45;&gt;Node6 -->
<g id="edge19" class="edge"><title>Node14&#45;&gt;Node6</title>
<path fill="none" stroke="midnightblue" d="M414.049,-231.58C450.269,-221.022 496.345,-207.592 530.589,-197.611"/>
<polygon fill="midnightblue" stroke="midnightblue" points="412.734,-228.317 404.113,-234.476 414.693,-235.038 412.734,-228.317"/>
</g>
<!-- Node14&#45;&gt;Node8 -->
<g id="edge20" class="edge"><title>Node14&#45;&gt;Node8</title>
<path fill="none" stroke="midnightblue" d="M340.472,-225.786C320.974,-197.265 288.107,-149.188 271.794,-125.326"/>
<polygon fill="midnightblue" stroke="midnightblue" points="337.761,-228.023 346.294,-234.303 343.54,-224.072 337.761,-228.023"/>
</g>
<!-- Node14&#45;&gt;Node10 -->
<g id="edge14" class="edge"><title>Node14&#45;&gt;Node10</title>
<path fill="none" stroke="midnightblue" d="M281.42,-245.858C205.88,-241.428 96.5006,-229.59 70,-198 31.9515,-152.645 53.3538,-74.0921 64.538,-41.8957"/>
<polygon fill="midnightblue" stroke="midnightblue" points="281.664,-249.377 291.842,-246.436 282.051,-242.388 281.664,-249.377"/>
</g>
<!-- Node14&#45;&gt;Node11 -->
<g id="edge18" class="edge"><title>Node14&#45;&gt;Node11</title>
<path fill="none" stroke="midnightblue" d="M356.328,-224.302C356.957,-178.037 358.31,-78.3635 358.809,-41.5428"/>
<polygon fill="midnightblue" stroke="midnightblue" points="352.828,-224.293 356.192,-234.339 359.828,-224.388 352.828,-224.293"/>
</g>
<!-- Node15 -->
<g id="node11" class="node"><title>Node15</title>
<g id="a_node11"><a xlink:href="decoration__provider_8h.html" target="_top" xlink:title="examples/miral&#45;shell\l/decoration_provider.h">
<polygon fill="white" stroke="black" points="385,-167.5 385,-197.5 497,-197.5 497,-167.5 385,-167.5"/>
<text text-anchor="start" x="393" y="-185.5" font-family="Arial" font-size="10.00">examples/miral&#45;shell</text>
<text text-anchor="middle" x="441" y="-174.5" font-family="Arial" font-size="10.00">/decoration_provider.h</text>
</a>
</g>
</g>
<!-- Node14&#45;&gt;Node15 -->
<g id="edge15" class="edge"><title>Node14&#45;&gt;Node15</title>
<path fill="none" stroke="midnightblue" d="M382.588,-228.168C395.586,-218.228 410.904,-206.514 422.592,-197.577"/>
<polygon fill="midnightblue" stroke="midnightblue" points="380.261,-225.541 374.444,-234.396 384.513,-231.102 380.261,-225.541"/>
</g>
<!-- Node17 -->
<g id="node13" class="node"><title>Node17</title>
<g id="a_node13"><a xlink:href="canonical__window__manager_8h.html" target="_top" xlink:title="include/miral/miral\l/canonical_window_manager.h">
<polygon fill="white" stroke="black" points="703,-167.5 703,-197.5 851,-197.5 851,-167.5 703,-167.5"/>
<text text-anchor="start" x="711" y="-185.5" font-family="Arial" font-size="10.00">include/miral/miral</text>
<text text-anchor="middle" x="777" y="-174.5" font-family="Arial" font-size="10.00">/canonical_window_manager.h</text>
</a>
</g>
</g>
<!-- Node14&#45;&gt;Node17 -->
<g id="edge21" class="edge"><title>Node14&#45;&gt;Node17</title>
<path fill="none" stroke="midnightblue" d="M430.468,-237.003C507.169,-225.16 626.02,-206.81 702.671,-194.976"/>
<polygon fill="midnightblue" stroke="midnightblue" points="429.748,-233.572 420.399,-238.557 430.816,-240.49 429.748,-233.572"/>
</g>
<!-- Node15&#45;&gt;Node11 -->
<g id="edge17" class="edge"><title>Node15&#45;&gt;Node11</title>
<path fill="none" stroke="midnightblue" d="M428.544,-158.107C411.302,-125.726 380.692,-68.2381 366.549,-41.6776"/>
<polygon fill="midnightblue" stroke="midnightblue" points="425.643,-160.106 433.433,-167.288 431.822,-156.816 425.643,-160.106"/>
</g>
<!-- Node16 -->
<g id="node12" class="node"><title>Node16</title>
<g id="a_node12"><a xlink:href="decoration__provider_8cpp.html" target="_top" xlink:title="examples/miral&#45;shell\l/decoration_provider.cpp">
<polygon fill="white" stroke="black" points="425,-95 425,-125 547,-125 547,-95 425,-95"/>
<text text-anchor="start" x="433" y="-113" font-family="Arial" font-size="10.00">examples/miral&#45;shell</text>
<text text-anchor="middle" x="486" y="-102" font-family="Arial" font-size="10.00">/decoration_provider.cpp</text>
</a>
</g>
</g>
<!-- Node15&#45;&gt;Node16 -->
<g id="edge16" class="edge"><title>Node15&#45;&gt;Node16</title>
<path fill="none" stroke="midnightblue" d="M455.645,-158.557C462.647,-147.586 470.811,-134.797 476.907,-125.246"/>
<polygon fill="midnightblue" stroke="midnightblue" points="452.537,-156.921 450.106,-167.233 458.437,-160.687 452.537,-156.921"/>
</g>
<!-- Node18 -->
<g id="node14" class="node"><title>Node18</title>
<g id="a_node14"><a xlink:href="kiosk__window__manager_8h.html" target="_top" xlink:title="examples/miral&#45;kiosk\l/kiosk_window_manager.h">
<polygon fill="white" stroke="black" points="565,-95 565,-125 695,-125 695,-95 565,-95"/>
<text text-anchor="start" x="573" y="-113" font-family="Arial" font-size="10.00">examples/miral&#45;kiosk</text>
<text text-anchor="middle" x="630" y="-102" font-family="Arial" font-size="10.00">/kiosk_window_manager.h</text>
</a>
</g>
</g>
<!-- Node17&#45;&gt;Node18 -->
<g id="edge22" class="edge"><title>Node17&#45;&gt;Node18</title>
<path fill="none" stroke="midnightblue" d="M738.488,-163.03C713.73,-151.156 682.064,-135.97 659.343,-125.073"/>
<polygon fill="midnightblue" stroke="midnightblue" points="737.075,-166.234 747.606,-167.403 740.103,-159.923 737.075,-166.234"/>
</g>
<!-- Node20 -->
<g id="node16" class="node"><title>Node20</title>
<g id="a_node16"><a xlink:href="floating__window__manager_8h.html" target="_top" xlink:title="examples/miral&#45;shell\l/floating_window_manager.h">
<polygon fill="white" stroke="black" points="751,-95 751,-125 889,-125 889,-95 751,-95"/>
<text text-anchor="start" x="759" y="-113" font-family="Arial" font-size="10.00">examples/miral&#45;shell</text>
<text text-anchor="middle" x="820" y="-102" font-family="Arial" font-size="10.00">/floating_window_manager.h</text>
</a>
</g>
</g>
<!-- Node17&#45;&gt;Node20 -->
<g id="edge25" class="edge"><title>Node17&#45;&gt;Node20</title>
<path fill="none" stroke="midnightblue" d="M790.994,-158.557C797.685,-147.586 805.486,-134.797 811.311,-125.246"/>
<polygon fill="midnightblue" stroke="midnightblue" points="787.921,-156.873 785.702,-167.233 793.897,-160.518 787.921,-156.873"/>
</g>
<!-- Node21 -->
<g id="node17" class="node"><title>Node21</title>
<g id="a_node17"><a xlink:href="canonical__window__manager__policy_8h.html" target="_top" xlink:title="include/test/mir_test\l_framework/canonical\l_window_manager_policy.h">
<polygon fill="white" stroke="black" points="907,-89.5 907,-130.5 1041,-130.5 1041,-89.5 907,-89.5"/>
<text text-anchor="start" x="915" y="-118.5" font-family="Arial" font-size="10.00">include/test/mir_test</text>
<text text-anchor="start" x="915" y="-107.5" font-family="Arial" font-size="10.00">_framework/canonical</text>
<text text-anchor="middle" x="974" y="-96.5" font-family="Arial" font-size="10.00">_window_manager_policy.h</text>
</a>
</g>
</g>
<!-- Node17&#45;&gt;Node21 -->
<g id="edge28" class="edge"><title>Node17&#45;&gt;Node21</title>
<path fill="none" stroke="midnightblue" d="M826.089,-163.933C854.435,-153.789 890.149,-141.008 919.381,-130.546"/>
<polygon fill="midnightblue" stroke="midnightblue" points="824.628,-160.738 816.392,-167.403 826.987,-167.329 824.628,-160.738"/>
</g>
<!-- Node18&#45;&gt;Node10 -->
<g id="edge24" class="edge"><title>Node18&#45;&gt;Node10</title>
<path fill="none" stroke="midnightblue" d="M571.605,-92.418C566.35,-91.1684 561.092,-90.0053 556,-89 545.89,-87.004 272.353,-52.7585 140.186,-36.255"/>
<polygon fill="midnightblue" stroke="midnightblue" points="571.115,-95.9023 581.663,-94.9088 572.798,-89.1076 571.115,-95.9023"/>
</g>
<!-- Node19 -->
<g id="node15" class="node"><title>Node19</title>
<g id="a_node15"><a xlink:href="kiosk__main_8cpp.html" target="_top" xlink:title="examples/miral&#45;kiosk\l/kiosk_main.cpp">
<polygon fill="white" stroke="black" points="575.5,-11.5 575.5,-41.5 684.5,-41.5 684.5,-11.5 575.5,-11.5"/>
<text text-anchor="start" x="583.5" y="-29.5" font-family="Arial" font-size="10.00">examples/miral&#45;kiosk</text>
<text text-anchor="middle" x="630" y="-18.5" font-family="Arial" font-size="10.00">/kiosk_main.cpp</text>
</a>
</g>
</g>
<!-- Node18&#45;&gt;Node19 -->
<g id="edge23" class="edge"><title>Node18&#45;&gt;Node19</title>
<path fill="none" stroke="midnightblue" d="M630,-84.7839C630,-70.6843 630,-53.4047 630,-41.5335"/>
<polygon fill="midnightblue" stroke="midnightblue" points="626.5,-84.8037 630,-94.8038 633.5,-84.8038 626.5,-84.8037"/>
</g>
<!-- Node20&#45;&gt;Node7 -->
<g id="edge27" class="edge"><title>Node20&#45;&gt;Node7</title>
<path fill="none" stroke="midnightblue" d="M810.654,-85.1977C805.089,-71.0237 798.217,-53.5211 793.51,-41.5335"/>
<polygon fill="midnightblue" stroke="midnightblue" points="807.513,-86.7748 814.426,-94.8038 814.029,-84.2164 807.513,-86.7748"/>
</g>
<!-- Node20&#45;&gt;Node11 -->
<g id="edge26" class="edge"><title>Node20&#45;&gt;Node11</title>
<path fill="none" stroke="midnightblue" d="M741.004,-95.0343C654.929,-79.8172 518.258,-55.6551 433.851,-40.7328"/>
<polygon fill="midnightblue" stroke="midnightblue" points="740.527,-98.5042 750.984,-96.7986 741.746,-91.6111 740.527,-98.5042"/>
</g>
<!-- Node22 -->
<g id="node18" class="node"><title>Node22</title>
<g id="a_node18"><a xlink:href="declarative__placement__window__manage__policy_8h.html" target="_top" xlink:title="include/test/mir_test\l_framework/declarative\l_placement_window_manage\l_policy.h">
<polygon fill="white" stroke="black" points="902.5,-0.5 902.5,-52.5 1045.5,-52.5 1045.5,-0.5 902.5,-0.5"/>
<text text-anchor="start" x="910.5" y="-40.5" font-family="Arial" font-size="10.00">include/test/mir_test</text>
<text text-anchor="start" x="910.5" y="-29.5" font-family="Arial" font-size="10.00">_framework/declarative</text>
<text text-anchor="start" x="910.5" y="-18.5" font-family="Arial" font-size="10.00">_placement_window_manage</text>
<text text-anchor="middle" x="974" y="-7.5" font-family="Arial" font-size="10.00">_policy.h</text>
</a>
</g>
</g>
<!-- Node21&#45;&gt;Node22 -->
<g id="edge29" class="edge"><title>Node21&#45;&gt;Node22</title>
<path fill="none" stroke="midnightblue" d="M974,-79.1211C974,-70.4126 974,-60.9894 974,-52.6073"/>
<polygon fill="midnightblue" stroke="midnightblue" points="970.5,-79.2711 974,-89.2711 977.5,-79.2712 970.5,-79.2711"/>
</g>
</g>
</svg>
