<?xml version="1.0" encoding="UTF-8" standalone="no"?>
<!DOCTYPE svg PUBLIC "-//W3C//DTD SVG 1.1//EN"
 "http://www.w3.org/Graphics/SVG/1.1/DTD/svg11.dtd">
<!-- Generated by graphviz version 2.38.0 (20140413.2041)
 -->
<!-- Title: include/test/mir_test_framework/async_server_runner.h Pages: 1 -->
<svg width="771pt" height="184pt"
 viewBox="0.00 0.00 771.00 184.00" xmlns="http://www.w3.org/2000/svg" xmlns:xlink="http://www.w3.org/1999/xlink">
<g id="graph0" class="graph" transform="scale(1 1) rotate(0) translate(4 180)">
<title>include/test/mir_test_framework/async_server_runner.h</title>
<polygon fill="white" stroke="none" points="-4,4 -4,-180 767,-180 767,4 -4,4"/>
<!-- Node0 -->
<g id="node1" class="node"><title>Node0</title>
<polygon fill="#bfbfbf" stroke="black" points="339,-134.5 339,-175.5 465,-175.5 465,-134.5 339,-134.5"/>
<text text-anchor="start" x="347" y="-163.5" font-family="Arial" font-size="10.00">include/test/mir_test</text>
<text text-anchor="start" x="347" y="-152.5" font-family="Arial" font-size="10.00">_framework/async_server</text>
<text text-anchor="middle" x="402" y="-141.5" font-family="Arial" font-size="10.00">_runner.h</text>
</g>
<!-- Node1 -->
<g id="node2" class="node"><title>Node1</title>
<g id="a_node2"><a xlink:href="temporary__environment__value_8h.html" target="_top" xlink:title="mir_test_framework\l/temporary_environment\l_value.h">
<polygon fill="white" stroke="black" points="0,-56.5 0,-97.5 120,-97.5 120,-56.5 0,-56.5"/>
<text text-anchor="start" x="8" y="-85.5" font-family="Arial" font-size="10.00">mir_test_framework</text>
<text text-anchor="start" x="8" y="-74.5" font-family="Arial" font-size="10.00">/temporary_environment</text>
<text text-anchor="middle" x="60" y="-63.5" font-family="Arial" font-size="10.00">_value.h</text>
</a>
</g>
</g>
<!-- Node0&#45;&gt;Node1 -->
<g id="edge1" class="edge"><title>Node0&#45;&gt;Node1</title>
<path fill="none" stroke="midnightblue" d="M338.956,-141.899C284.501,-131.191 203.802,-114.711 134,-98 132.726,-97.695 131.441,-97.3839 130.146,-97.0676"/>
<polygon fill="midnightblue" stroke="midnightblue" points="130.651,-93.5861 120.101,-94.5561 128.953,-100.377 130.651,-93.5861"/>
</g>
<!-- Node3 -->
<g id="node4" class="node"><title>Node3</title>
<g id="a_node4"><a xlink:href="auto__unblock__thread_8h.html" target="_top" xlink:title="mir/test/auto_unblock\l_thread.h">
<polygon fill="white" stroke="black" points="176,-62 176,-92 286,-92 286,-62 176,-62"/>
<text text-anchor="start" x="184" y="-80" font-family="Arial" font-size="10.00">mir/test/auto_unblock</text>
<text text-anchor="middle" x="231" y="-69" font-family="Arial" font-size="10.00">_thread.h</text>
</a>
</g>
</g>
<!-- Node0&#45;&gt;Node3 -->
<g id="edge3" class="edge"><title>Node0&#45;&gt;Node3</title>
<path fill="none" stroke="midnightblue" d="M357.963,-134.428C331.435,-122.638 297.88,-107.724 271.929,-96.1908"/>
<polygon fill="midnightblue" stroke="midnightblue" points="273.299,-92.9696 262.74,-92.1065 270.456,-99.3663 273.299,-92.9696"/>
</g>
<!-- Node4 -->
<g id="node5" class="node"><title>Node4</title>
<polygon fill="white" stroke="#bfbfbf" points="133,-0.5 133,-19.5 177,-19.5 177,-0.5 133,-0.5"/>
<text text-anchor="middle" x="155" y="-7.5" font-family="Arial" font-size="10.00">thread</text>
</g>
<!-- Node0&#45;&gt;Node4 -->
<g id="edge13" class="edge"><title>Node0&#45;&gt;Node4</title>
<path fill="none" stroke="midnightblue" d="M338.879,-146.993C277.33,-138.803 189.76,-123.079 167,-98 150.297,-79.5952 150,-49.3548 151.988,-29.8136"/>
<polygon fill="midnightblue" stroke="midnightblue" points="155.482,-30.0857 153.316,-19.7148 148.542,-29.1731 155.482,-30.0857"/>
</g>
<!-- Node6 -->
<g id="node7" class="node"><title>Node6</title>
<polygon fill="white" stroke="#bfbfbf" points="304.5,-67.5 304.5,-86.5 371.5,-86.5 371.5,-67.5 304.5,-67.5"/>
<text text-anchor="middle" x="338" y="-74.5" font-family="Arial" font-size="10.00">mir/server.h</text>
</g>
<!-- Node0&#45;&gt;Node6 -->
<g id="edge6" class="edge"><title>Node0&#45;&gt;Node6</title>
<path fill="none" stroke="midnightblue" d="M385.518,-134.428C375.028,-121.97 361.601,-106.026 351.698,-94.2662"/>
<polygon fill="midnightblue" stroke="midnightblue" points="354.32,-91.9467 345.202,-86.552 348.966,-96.4557 354.32,-91.9467"/>
</g>
<!-- Node7 -->
<g id="node8" class="node"><title>Node7</title>
<g id="a_node8"><a xlink:href="set__window__management__policy_8h.html" target="_top" xlink:title="miral/set_window_management\l_policy.h">
<polygon fill="white" stroke="black" points="390,-62 390,-92 542,-92 542,-62 390,-62"/>
<text text-anchor="start" x="398" y="-80" font-family="Arial" font-size="10.00">miral/set_window_management</text>
<text text-anchor="middle" x="466" y="-69" font-family="Arial" font-size="10.00">_policy.h</text>
</a>
</g>
</g>
<!-- Node0&#45;&gt;Node7 -->
<g id="edge7" class="edge"><title>Node0&#45;&gt;Node7</title>
<path fill="none" stroke="midnightblue" d="M418.482,-134.428C427.336,-123.914 438.281,-110.916 447.435,-100.046"/>
<polygon fill="midnightblue" stroke="midnightblue" points="450.257,-102.129 454.021,-92.2254 444.902,-97.62 450.257,-102.129"/>
</g>
<!-- Node9 -->
<g id="node10" class="node"><title>Node9</title>
<polygon fill="white" stroke="#bfbfbf" points="560.5,-67.5 560.5,-86.5 653.5,-86.5 653.5,-67.5 560.5,-67.5"/>
<text text-anchor="middle" x="607" y="-74.5" font-family="Arial" font-size="10.00">condition_variable</text>
</g>
<!-- Node0&#45;&gt;Node9 -->
<g id="edge10" class="edge"><title>Node0&#45;&gt;Node9</title>
<path fill="none" stroke="midnightblue" d="M454.793,-134.428C492.636,-120.398 542.408,-101.946 574.554,-90.0287"/>
<polygon fill="midnightblue" stroke="midnightblue" points="575.772,-93.31 583.932,-86.552 573.339,-86.7465 575.772,-93.31"/>
</g>
<!-- Node10 -->
<g id="node11" class="node"><title>Node10</title>
<polygon fill="white" stroke="#bfbfbf" points="671.5,-67.5 671.5,-86.5 700.5,-86.5 700.5,-67.5 671.5,-67.5"/>
<text text-anchor="middle" x="686" y="-74.5" font-family="Arial" font-size="10.00">list</text>
</g>
<!-- Node0&#45;&gt;Node10 -->
<g id="edge11" class="edge"><title>Node0&#45;&gt;Node10</title>
<path fill="none" stroke="midnightblue" d="M465.03,-149.377C519.793,-143.333 599.991,-129.497 663,-98 665.485,-96.7578 667.918,-95.184 670.216,-93.4668"/>
<polygon fill="midnightblue" stroke="midnightblue" points="672.959,-95.7217 678.232,-86.5324 668.379,-90.4276 672.959,-95.7217"/>
</g>
<!-- Node11 -->
<g id="node12" class="node"><title>Node11</title>
<polygon fill="white" stroke="#bfbfbf" points="719,-67.5 719,-86.5 763,-86.5 763,-67.5 719,-67.5"/>
<text text-anchor="middle" x="741" y="-74.5" font-family="Arial" font-size="10.00">mutex</text>
</g>
<!-- Node0&#45;&gt;Node11 -->
<g id="edge12" class="edge"><title>Node0&#45;&gt;Node11</title>
<path fill="none" stroke="midnightblue" d="M465.038,-149.794C528.722,-143.892 629.003,-130.014 710,-98 713.909,-96.455 717.851,-94.3878 721.552,-92.1677"/>
<polygon fill="midnightblue" stroke="midnightblue" points="723.67,-94.9641 730.101,-86.5443 719.823,-89.116 723.67,-94.9641"/>
</g>
<!-- Node2 -->
<g id="node3" class="node"><title>Node2</title>
<polygon fill="white" stroke="#bfbfbf" points="39.5,-0.5 39.5,-19.5 80.5,-19.5 80.5,-0.5 39.5,-0.5"/>
<text text-anchor="middle" x="60" y="-7.5" font-family="Arial" font-size="10.00">string</text>
</g>
<!-- Node1&#45;&gt;Node2 -->
<g id="edge2" class="edge"><title>Node1&#45;&gt;Node2</title>
<path fill="none" stroke="midnightblue" d="M60,-56.4979C60,-48.0653 60,-38.2351 60,-29.874"/>
<polygon fill="midnightblue" stroke="midnightblue" points="63.5001,-29.6525 60,-19.6525 56.5001,-29.6525 63.5001,-29.6525"/>
</g>
<!-- Node3&#45;&gt;Node4 -->
<g id="edge4" class="edge"><title>Node3&#45;&gt;Node4</title>
<path fill="none" stroke="midnightblue" d="M214.509,-61.896C202.307,-51.46 185.693,-37.2507 173.121,-26.4978"/>
<polygon fill="midnightblue" stroke="midnightblue" points="175.04,-23.5344 165.166,-19.6945 170.491,-28.8541 175.04,-23.5344"/>
</g>
<!-- Node5 -->
<g id="node6" class="node"><title>Node5</title>
<polygon fill="white" stroke="#bfbfbf" points="283,-0.5 283,-19.5 341,-19.5 341,-0.5 283,-0.5"/>
<text text-anchor="middle" x="312" y="-7.5" font-family="Arial" font-size="10.00">functional</text>
</g>
<!-- Node3&#45;&gt;Node5 -->
<g id="edge5" class="edge"><title>Node3&#45;&gt;Node5</title>
<path fill="none" stroke="midnightblue" d="M248.576,-61.896C261.706,-51.3597 279.628,-36.9771 293.073,-26.1886"/>
<polygon fill="midnightblue" stroke="midnightblue" points="295.557,-28.683 301.165,-19.6945 291.175,-23.2235 295.557,-28.683"/>
</g>
<!-- Node7&#45;&gt;Node5 -->
<g id="edge8" class="edge"><title>Node7&#45;&gt;Node5</title>
<path fill="none" stroke="midnightblue" d="M432.584,-61.896C405.444,-50.4405 367.531,-34.4385 341.502,-23.4521"/>
<polygon fill="midnightblue" stroke="midnightblue" points="342.729,-20.1711 332.155,-19.507 340.007,-26.6202 342.729,-20.1711"/>
</g>
<!-- Node8 -->
<g id="node9" class="node"><title>Node8</title>
<polygon fill="white" stroke="#bfbfbf" points="440,-0.5 440,-19.5 492,-19.5 492,-0.5 440,-0.5"/>
<text text-anchor="middle" x="466" y="-7.5" font-family="Arial" font-size="10.00">memory</text>
</g>
<!-- Node7&#45;&gt;Node8 -->
<g id="edge9" class="edge"><title>Node7&#45;&gt;Node8</title>
<path fill="none" stroke="midnightblue" d="M466,-61.896C466,-52.5638 466,-40.2143 466,-30.0173"/>
<polygon fill="midnightblue" stroke="midnightblue" points="469.5,-29.6945 466,-19.6945 462.5,-29.6946 469.5,-29.6945"/>
</g>
</g>
</svg>
