<?xml version="1.0" encoding="UTF-8" standalone="no"?>
<!DOCTYPE svg PUBLIC "-//W3C//DTD SVG 1.1//EN"
 "http://www.w3.org/Graphics/SVG/1.1/DTD/svg11.dtd">
<!-- Generated by graphviz version 2.38.0 (20140413.2041)
 -->
<!-- Title: include/test/mir_test_framework/async_server_runner.h Pages: 1 -->
<svg width="775pt" height="184pt"
 viewBox="0.00 0.00 775.00 184.00" xmlns="http://www.w3.org/2000/svg" xmlns:xlink="http://www.w3.org/1999/xlink">
<g id="graph0" class="graph" transform="scale(1 1) rotate(0) translate(4 180)">
<title>include/test/mir_test_framework/async_server_runner.h</title>
<polygon fill="white" stroke="none" points="-4,4 -4,-180 771,-180 771,4 -4,4"/>
<!-- Node0 -->
<g id="node1" class="node"><title>Node0</title>
<polygon fill="#bfbfbf" stroke="black" points="340,-134.5 340,-175.5 468,-175.5 468,-134.5 340,-134.5"/>
<text text-anchor="start" x="348" y="-163.5" font-family="Arial" font-size="10.00">include/test/mir_test</text>
<text text-anchor="start" x="348" y="-152.5" font-family="Arial" font-size="10.00">_framework/async_server</text>
<text text-anchor="middle" x="404" y="-141.5" font-family="Arial" font-size="10.00">_runner.h</text>
</g>
<!-- Node1 -->
<g id="node2" class="node"><title>Node1</title>
<g id="a_node2"><a xlink:href="temporary__environment__value_8h.html" target="_top" xlink:title="mir_test_framework\l/temporary_environment\l_value.h">
<polygon fill="white" stroke="black" points="0,-56.5 0,-97.5 122,-97.5 122,-56.5 0,-56.5"/>
<text text-anchor="start" x="8" y="-85.5" font-family="Arial" font-size="10.00">mir_test_framework</text>
<text text-anchor="start" x="8" y="-74.5" font-family="Arial" font-size="10.00">/temporary_environment</text>
<text text-anchor="middle" x="61" y="-63.5" font-family="Arial" font-size="10.00">_value.h</text>
</a>
</g>
</g>
<!-- Node0&#45;&gt;Node1 -->
<g id="edge1" class="edge"><title>Node0&#45;&gt;Node1</title>
<path fill="none" stroke="midnightblue" d="M339.885,-141.626C285.455,-130.876 205.367,-114.483 136,-98 134.746,-97.7021 133.482,-97.3985 132.208,-97.0901"/>
<polygon fill="midnightblue" stroke="midnightblue" points="132.874,-93.6493 122.326,-94.6457 131.193,-100.445 132.874,-93.6493"/>
</g>
<!-- Node3 -->
<g id="node4" class="node"><title>Node3</title>
<g id="a_node4"><a xlink:href="auto__unblock__thread_8h.html" target="_top" xlink:title="mir/test/auto_unblock\l_thread.h">
<polygon fill="white" stroke="black" points="178,-62 178,-92 288,-92 288,-62 178,-62"/>
<text text-anchor="start" x="186" y="-80" font-family="Arial" font-size="10.00">mir/test/auto_unblock</text>
<text text-anchor="middle" x="233" y="-69" font-family="Arial" font-size="10.00">_thread.h</text>
</a>
</g>
</g>
<!-- Node0&#45;&gt;Node3 -->
<g id="edge3" class="edge"><title>Node0&#45;&gt;Node3</title>
<path fill="none" stroke="midnightblue" d="M359.963,-134.428C333.435,-122.638 299.88,-107.724 273.929,-96.1908"/>
<polygon fill="midnightblue" stroke="midnightblue" points="275.299,-92.9696 264.74,-92.1065 272.456,-99.3663 275.299,-92.9696"/>
</g>
<!-- Node4 -->
<g id="node5" class="node"><title>Node4</title>
<polygon fill="white" stroke="#bfbfbf" points="134,-0.5 134,-19.5 178,-19.5 178,-0.5 134,-0.5"/>
<text text-anchor="middle" x="156" y="-7.5" font-family="Arial" font-size="10.00">thread</text>
</g>
<!-- Node0&#45;&gt;Node4 -->
<g id="edge13" class="edge"><title>Node0&#45;&gt;Node4</title>
<path fill="none" stroke="midnightblue" d="M339.791,-146.787C278.352,-138.512 191.759,-122.796 169,-98 152.166,-79.6599 151.5,-49.4018 153.236,-29.8392"/>
<polygon fill="midnightblue" stroke="midnightblue" points="156.733,-30.0699 154.433,-19.7279 149.782,-29.2474 156.733,-30.0699"/>
</g>
<!-- Node6 -->
<g id="node7" class="node"><title>Node6</title>
<polygon fill="white" stroke="#bfbfbf" points="306,-67.5 306,-86.5 374,-86.5 374,-67.5 306,-67.5"/>
<text text-anchor="middle" x="340" y="-74.5" font-family="Arial" font-size="10.00">mir/server.h</text>
</g>
<!-- Node0&#45;&gt;Node6 -->
<g id="edge6" class="edge"><title>Node0&#45;&gt;Node6</title>
<path fill="none" stroke="midnightblue" d="M387.518,-134.428C377.028,-121.97 363.601,-106.026 353.698,-94.2662"/>
<polygon fill="midnightblue" stroke="midnightblue" points="356.32,-91.9467 347.202,-86.552 350.966,-96.4557 356.32,-91.9467"/>
</g>
<!-- Node7 -->
<g id="node8" class="node"><title>Node7</title>
<g id="a_node8"><a xlink:href="set__window__management__policy_8h.html" target="_top" xlink:title="miral/set_window_management\l_policy.h">
<polygon fill="white" stroke="black" points="392,-62 392,-92 544,-92 544,-62 392,-62"/>
<text text-anchor="start" x="400" y="-80" font-family="Arial" font-size="10.00">miral/set_window_management</text>
<text text-anchor="middle" x="468" y="-69" font-family="Arial" font-size="10.00">_policy.h</text>
</a>
</g>
</g>
<!-- Node0&#45;&gt;Node7 -->
<g id="edge7" class="edge"><title>Node0&#45;&gt;Node7</title>
<path fill="none" stroke="midnightblue" d="M420.482,-134.428C429.336,-123.914 440.281,-110.916 449.435,-100.046"/>
<polygon fill="midnightblue" stroke="midnightblue" points="452.257,-102.129 456.021,-92.2254 446.902,-97.62 452.257,-102.129"/>
</g>
<!-- Node9 -->
<g id="node10" class="node"><title>Node9</title>
<polygon fill="white" stroke="#bfbfbf" points="562.5,-67.5 562.5,-86.5 657.5,-86.5 657.5,-67.5 562.5,-67.5"/>
<text text-anchor="middle" x="610" y="-74.5" font-family="Arial" font-size="10.00">condition_variable</text>
</g>
<!-- Node0&#45;&gt;Node9 -->
<g id="edge10" class="edge"><title>Node0&#45;&gt;Node9</title>
<path fill="none" stroke="midnightblue" d="M457.05,-134.428C495.079,-120.398 545.093,-101.946 577.396,-90.0287"/>
<polygon fill="midnightblue" stroke="midnightblue" points="578.649,-93.297 586.819,-86.552 576.226,-86.7297 578.649,-93.297"/>
</g>
<!-- Node10 -->
<g id="node11" class="node"><title>Node10</title>
<polygon fill="white" stroke="#bfbfbf" points="675.5,-67.5 675.5,-86.5 704.5,-86.5 704.5,-67.5 675.5,-67.5"/>
<text text-anchor="middle" x="690" y="-74.5" font-family="Arial" font-size="10.00">list</text>
</g>
<!-- Node0&#45;&gt;Node10 -->
<g id="edge11" class="edge"><title>Node0&#45;&gt;Node10</title>
<path fill="none" stroke="midnightblue" d="M468.057,-149.408C523.224,-143.389 603.714,-129.574 667,-98 669.486,-96.7598 671.919,-95.1871 674.218,-93.4705"/>
<polygon fill="midnightblue" stroke="midnightblue" points="676.961,-95.7254 682.234,-86.5361 672.381,-90.4313 676.961,-95.7254"/>
</g>
<!-- Node11 -->
<g id="node12" class="node"><title>Node11</title>
<polygon fill="white" stroke="#bfbfbf" points="723,-67.5 723,-86.5 767,-86.5 767,-67.5 723,-67.5"/>
<text text-anchor="middle" x="745" y="-74.5" font-family="Arial" font-size="10.00">mutex</text>
</g>
<!-- Node0&#45;&gt;Node11 -->
<g id="edge12" class="edge"><title>Node0&#45;&gt;Node11</title>
<path fill="none" stroke="midnightblue" d="M468.047,-149.804C532.173,-143.921 632.73,-130.069 714,-98 717.91,-96.4572 721.852,-94.3911 725.554,-92.1714"/>
<polygon fill="midnightblue" stroke="midnightblue" points="727.671,-94.9677 734.102,-86.5477 723.824,-89.1197 727.671,-94.9677"/>
</g>
<!-- Node2 -->
<g id="node3" class="node"><title>Node2</title>
<polygon fill="white" stroke="#bfbfbf" points="40.5,-0.5 40.5,-19.5 81.5,-19.5 81.5,-0.5 40.5,-0.5"/>
<text text-anchor="middle" x="61" y="-7.5" font-family="Arial" font-size="10.00">string</text>
</g>
<!-- Node1&#45;&gt;Node2 -->
<g id="edge2" class="edge"><title>Node1&#45;&gt;Node2</title>
<path fill="none" stroke="midnightblue" d="M61,-56.4979C61,-48.0653 61,-38.2351 61,-29.874"/>
<polygon fill="midnightblue" stroke="midnightblue" points="64.5001,-29.6525 61,-19.6525 57.5001,-29.6525 64.5001,-29.6525"/>
</g>
<!-- Node3&#45;&gt;Node4 -->
<g id="edge4" class="edge"><title>Node3&#45;&gt;Node4</title>
<path fill="none" stroke="midnightblue" d="M216.292,-61.896C203.811,-51.3597 186.773,-36.9771 173.993,-26.1886"/>
<polygon fill="midnightblue" stroke="midnightblue" points="176.199,-23.4706 166.3,-19.6945 171.683,-28.8196 176.199,-23.4706"/>
</g>
<!-- Node5 -->
<g id="node6" class="node"><title>Node5</title>
<polygon fill="white" stroke="#bfbfbf" points="283.5,-0.5 283.5,-19.5 342.5,-19.5 342.5,-0.5 283.5,-0.5"/>
<text text-anchor="middle" x="313" y="-7.5" font-family="Arial" font-size="10.00">functional</text>
</g>
<!-- Node3&#45;&gt;Node5 -->
<g id="edge5" class="edge"><title>Node3&#45;&gt;Node5</title>
<path fill="none" stroke="midnightblue" d="M250.359,-61.896C263.327,-51.3597 281.028,-36.9771 294.306,-26.1886"/>
<polygon fill="midnightblue" stroke="midnightblue" points="296.745,-28.7169 302.299,-19.6945 292.331,-23.2841 296.745,-28.7169"/>
</g>
<!-- Node7&#45;&gt;Node5 -->
<g id="edge8" class="edge"><title>Node7&#45;&gt;Node5</title>
<path fill="none" stroke="midnightblue" d="M434.367,-61.896C407.05,-50.4405 368.892,-34.4385 342.694,-23.4521"/>
<polygon fill="midnightblue" stroke="midnightblue" points="343.861,-20.1466 333.286,-19.507 341.154,-26.602 343.861,-20.1466"/>
</g>
<!-- Node8 -->
<g id="node9" class="node"><title>Node8</title>
<polygon fill="white" stroke="#bfbfbf" points="442,-0.5 442,-19.5 494,-19.5 494,-0.5 442,-0.5"/>
<text text-anchor="middle" x="468" y="-7.5" font-family="Arial" font-size="10.00">memory</text>
</g>
<!-- Node7&#45;&gt;Node8 -->
<g id="edge9" class="edge"><title>Node7&#45;&gt;Node8</title>
<path fill="none" stroke="midnightblue" d="M468,-61.896C468,-52.5638 468,-40.2143 468,-30.0173"/>
<polygon fill="midnightblue" stroke="midnightblue" points="471.5,-29.6945 468,-19.6945 464.5,-29.6946 471.5,-29.6945"/>
</g>
</g>
</svg>
