<?xml version="1.0" encoding="UTF-8" standalone="no"?>
<!DOCTYPE svg PUBLIC "-//W3C//DTD SVG 1.1//EN"
 "http://www.w3.org/Graphics/SVG/1.1/DTD/svg11.dtd">
<!-- Generated by graphviz version 2.38.0 (20140413.2041)
 -->
<!-- Title: include/cookie/mir/cookie/authority.h Pages: 1 -->
<svg width="296pt" height="151pt"
 viewBox="0.00 0.00 295.50 151.00" xmlns="http://www.w3.org/2000/svg" xmlns:xlink="http://www.w3.org/1999/xlink">
<g id="graph0" class="graph" transform="scale(1 1) rotate(0) translate(4 147)">
<title>include/cookie/mir/cookie/authority.h</title>
<polygon fill="white" stroke="none" points="-4,4 -4,-147 291.5,-147 291.5,4 -4,4"/>
<!-- Node0 -->
<g id="node1" class="node"><title>Node0</title>
<polygon fill="#bfbfbf" stroke="black" points="80.5,-112.5 80.5,-142.5 177.5,-142.5 177.5,-112.5 80.5,-112.5"/>
<text text-anchor="start" x="88.5" y="-130.5" font-family="Arial" font-size="10.00">include/cookie/mir</text>
<text text-anchor="middle" x="129" y="-119.5" font-family="Arial" font-size="10.00">/cookie/authority.h</text>
</g>
<!-- Node1 -->
<g id="node2" class="node"><title>Node1</title>
<polygon fill="white" stroke="#bfbfbf" points="0,-56.5 0,-75.5 52,-75.5 52,-56.5 0,-56.5"/>
<text text-anchor="middle" x="26" y="-63.5" font-family="Arial" font-size="10.00">memory</text>
</g>
<!-- Node0&#45;&gt;Node1 -->
<g id="edge1" class="edge"><title>Node0&#45;&gt;Node1</title>
<path fill="none" stroke="midnightblue" d="M104.59,-112.399C88.0803,-102.862 66.3773,-90.3248 49.9622,-80.8422"/>
<polygon fill="midnightblue" stroke="midnightblue" points="51.3972,-77.6292 40.9874,-75.6578 47.8957,-83.6906 51.3972,-77.6292"/>
</g>
<!-- Node2 -->
<g id="node3" class="node"><title>Node2</title>
<polygon fill="white" stroke="#bfbfbf" points="70.5,-56.5 70.5,-75.5 129.5,-75.5 129.5,-56.5 70.5,-56.5"/>
<text text-anchor="middle" x="100" y="-63.5" font-family="Arial" font-size="10.00">stdexcept</text>
</g>
<!-- Node0&#45;&gt;Node2 -->
<g id="edge2" class="edge"><title>Node0&#45;&gt;Node2</title>
<path fill="none" stroke="midnightblue" d="M122.127,-112.399C118.087,-104.11 112.942,-93.5542 108.631,-84.7077"/>
<polygon fill="midnightblue" stroke="midnightblue" points="111.747,-83.1135 104.22,-75.6578 105.455,-86.1804 111.747,-83.1135"/>
</g>
<!-- Node3 -->
<g id="node4" class="node"><title>Node3</title>
<polygon fill="white" stroke="#bfbfbf" points="143,-0.5 143,-19.5 187,-19.5 187,-0.5 143,-0.5"/>
<text text-anchor="middle" x="165" y="-7.5" font-family="Arial" font-size="10.00">vector</text>
</g>
<!-- Node0&#45;&gt;Node3 -->
<g id="edge3" class="edge"><title>Node0&#45;&gt;Node3</title>
<path fill="none" stroke="midnightblue" d="M133.414,-112.337C139.93,-91.4325 152.124,-52.3096 159.306,-29.2696"/>
<polygon fill="midnightblue" stroke="midnightblue" points="162.664,-30.258 162.298,-19.6695 155.981,-28.1749 162.664,-30.258"/>
</g>
<!-- Node4 -->
<g id="node5" class="node"><title>Node4</title>
<g id="a_node5"><a xlink:href="cookie_2mir_2cookie_2cookie_8h.html" target="_top" xlink:title="mir/cookie/cookie.h">
<polygon fill="white" stroke="black" points="186.5,-56.5 186.5,-75.5 287.5,-75.5 287.5,-56.5 186.5,-56.5"/>
<text text-anchor="middle" x="237" y="-63.5" font-family="Arial" font-size="10.00">mir/cookie/cookie.h</text>
</a>
</g>
</g>
<!-- Node0&#45;&gt;Node4 -->
<g id="edge4" class="edge"><title>Node0&#45;&gt;Node4</title>
<path fill="none" stroke="midnightblue" d="M154.594,-112.399C172.068,-102.773 195.088,-90.0902 212.356,-80.5772"/>
<polygon fill="midnightblue" stroke="midnightblue" points="214.215,-83.5488 221.285,-75.6578 210.837,-77.4177 214.215,-83.5488"/>
</g>
<!-- Node4&#45;&gt;Node3 -->
<g id="edge6" class="edge"><title>Node4&#45;&gt;Node3</title>
<path fill="none" stroke="midnightblue" d="M225.432,-56.324C214.58,-48.1849 198.119,-35.8395 185.117,-26.0874"/>
<polygon fill="midnightblue" stroke="midnightblue" points="186.879,-23.0339 176.779,-19.8339 182.679,-28.6339 186.879,-23.0339"/>
</g>
<!-- Node5 -->
<g id="node6" class="node"><title>Node5</title>
<polygon fill="white" stroke="#bfbfbf" points="212.5,-0.5 212.5,-19.5 261.5,-19.5 261.5,-0.5 212.5,-0.5"/>
<text text-anchor="middle" x="237" y="-7.5" font-family="Arial" font-size="10.00">stdint.h</text>
</g>
<!-- Node4&#45;&gt;Node5 -->
<g id="edge5" class="edge"><title>Node4&#45;&gt;Node5</title>
<path fill="none" stroke="midnightblue" d="M237,-56.083C237,-49.0059 237,-38.8611 237,-29.9865"/>
<polygon fill="midnightblue" stroke="midnightblue" points="240.5,-29.751 237,-19.7511 233.5,-29.7511 240.5,-29.751"/>
</g>
</g>
</svg>
