<?xml version="1.0" encoding="UTF-8" standalone="no"?>
<!DOCTYPE svg PUBLIC "-//W3C//DTD SVG 1.1//EN"
 "http://www.w3.org/Graphics/SVG/1.1/DTD/svg11.dtd">
<!-- Generated by graphviz version 2.38.0 (20140413.2041)
 -->
<!-- Title: include/test/mir/test/auto_unblock_thread.h Pages: 1 -->
<svg width="370pt" height="429pt"
 viewBox="0.00 0.00 370.00 429.00" xmlns="http://www.w3.org/2000/svg" xmlns:xlink="http://www.w3.org/1999/xlink">
<g id="graph0" class="graph" transform="scale(1 1) rotate(0) translate(4 425)">
<title>include/test/mir/test/auto_unblock_thread.h</title>
<polygon fill="white" stroke="none" points="-4,4 -4,-425 366,-425 366,4 -4,4"/>
<!-- Node3 -->
<g id="node1" class="node"><title>Node3</title>
<polygon fill="#bfbfbf" stroke="black" points="91.5,-390.5 91.5,-420.5 209.5,-420.5 209.5,-390.5 91.5,-390.5"/>
<text text-anchor="start" x="99.5" y="-408.5" font-family="Arial" font-size="10.00">include/test/mir/test</text>
<text text-anchor="middle" x="150.5" y="-397.5" font-family="Arial" font-size="10.00">/auto_unblock_thread.h</text>
</g>
<!-- Node4 -->
<g id="node2" class="node"><title>Node4</title>
<g id="a_node2"><a xlink:href="async__server__runner_8h.html" target="_top" xlink:title="include/test/mir_test\l_framework/async_server\l_runner.h">
<polygon fill="white" stroke="black" points="86.5,-312.5 86.5,-353.5 214.5,-353.5 214.5,-312.5 86.5,-312.5"/>
<text text-anchor="start" x="94.5" y="-341.5" font-family="Arial" font-size="10.00">include/test/mir_test</text>
<text text-anchor="start" x="94.5" y="-330.5" font-family="Arial" font-size="10.00">_framework/async_server</text>
<text text-anchor="middle" x="150.5" y="-319.5" font-family="Arial" font-size="10.00">_runner.h</text>
</a>
</g>
</g>
<!-- Node3&#45;&gt;Node4 -->
<g id="edge1" class="edge"><title>Node3&#45;&gt;Node4</title>
<path fill="none" stroke="midnightblue" d="M150.5,-379.982C150.5,-371.347 150.5,-361.762 150.5,-353.588"/>
<polygon fill="midnightblue" stroke="midnightblue" points="147,-380.233 150.5,-390.233 154,-380.233 147,-380.233"/>
</g>
<!-- Node5 -->
<g id="node3" class="node"><title>Node5</title>
<g id="a_node3"><a xlink:href="headless__nested__server__runner_8h.html" target="_top" xlink:title="include/test/mir_test\l_framework/headless_nested\l_server_runner.h">
<polygon fill="white" stroke="black" points="0,-234.5 0,-275.5 143,-275.5 143,-234.5 0,-234.5"/>
<text text-anchor="start" x="8" y="-263.5" font-family="Arial" font-size="10.00">include/test/mir_test</text>
<text text-anchor="start" x="8" y="-252.5" font-family="Arial" font-size="10.00">_framework/headless_nested</text>
<text text-anchor="middle" x="71.5" y="-241.5" font-family="Arial" font-size="10.00">_server_runner.h</text>
</a>
</g>
</g>
<!-- Node4&#45;&gt;Node5 -->
<g id="edge2" class="edge"><title>Node4&#45;&gt;Node5</title>
<path fill="none" stroke="midnightblue" d="M122.945,-305.492C112.694,-295.629 101.257,-284.627 91.7755,-275.506"/>
<polygon fill="midnightblue" stroke="midnightblue" points="120.522,-308.017 130.156,-312.428 125.375,-302.973 120.522,-308.017"/>
</g>
<!-- Node6 -->
<g id="node4" class="node"><title>Node6</title>
<g id="a_node4"><a xlink:href="headless__test_8h.html" target="_top" xlink:title="include/test/mir_test\l_framework/headless_test.h">
<polygon fill="white" stroke="black" points="161,-240 161,-270 300,-270 300,-240 161,-240"/>
<text text-anchor="start" x="169" y="-258" font-family="Arial" font-size="10.00">include/test/mir_test</text>
<text text-anchor="middle" x="230.5" y="-247" font-family="Arial" font-size="10.00">_framework/headless_test.h</text>
</a>
</g>
</g>
<!-- Node4&#45;&gt;Node6 -->
<g id="edge3" class="edge"><title>Node4&#45;&gt;Node6</title>
<path fill="none" stroke="midnightblue" d="M178.58,-305.324C191.018,-293.508 205.15,-280.083 215.526,-270.225"/>
<polygon fill="midnightblue" stroke="midnightblue" points="175.941,-303.003 171.102,-312.428 180.763,-308.078 175.941,-303.003"/>
</g>
<!-- Node7 -->
<g id="node5" class="node"><title>Node7</title>
<g id="a_node5"><a xlink:href="headless__in__process__server_8h.html" target="_top" xlink:title="include/test/mir_test\l_framework/headless_in\l_process_server.h">
<polygon fill="white" stroke="black" points="98.5,-156.5 98.5,-197.5 220.5,-197.5 220.5,-156.5 98.5,-156.5"/>
<text text-anchor="start" x="106.5" y="-185.5" font-family="Arial" font-size="10.00">include/test/mir_test</text>
<text text-anchor="start" x="106.5" y="-174.5" font-family="Arial" font-size="10.00">_framework/headless_in</text>
<text text-anchor="middle" x="159.5" y="-163.5" font-family="Arial" font-size="10.00">_process_server.h</text>
</a>
</g>
</g>
<!-- Node6&#45;&gt;Node7 -->
<g id="edge4" class="edge"><title>Node6&#45;&gt;Node7</title>
<path fill="none" stroke="midnightblue" d="M210.163,-232.23C199.991,-221.342 187.774,-208.265 177.885,-197.68"/>
<polygon fill="midnightblue" stroke="midnightblue" points="207.761,-234.787 217.145,-239.705 212.876,-230.008 207.761,-234.787"/>
</g>
<!-- Node10 -->
<g id="node8" class="node"><title>Node10</title>
<g id="a_node8"><a xlink:href="interprocess__client__server__test_8h.html" target="_top" xlink:title="include/test/mir_test\l_framework/interprocess\l_client_server_test.h">
<polygon fill="white" stroke="black" points="239,-156.5 239,-197.5 362,-197.5 362,-156.5 239,-156.5"/>
<text text-anchor="start" x="247" y="-185.5" font-family="Arial" font-size="10.00">include/test/mir_test</text>
<text text-anchor="start" x="247" y="-174.5" font-family="Arial" font-size="10.00">_framework/interprocess</text>
<text text-anchor="middle" x="300.5" y="-163.5" font-family="Arial" font-size="10.00">_client_server_test.h</text>
</a>
</g>
</g>
<!-- Node6&#45;&gt;Node10 -->
<g id="edge7" class="edge"><title>Node6&#45;&gt;Node10</title>
<path fill="none" stroke="midnightblue" d="M250.551,-232.23C260.58,-221.342 272.625,-208.265 282.374,-197.68"/>
<polygon fill="midnightblue" stroke="midnightblue" points="247.867,-229.978 243.666,-239.705 253.016,-234.721 247.867,-229.978"/>
</g>
<!-- Node8 -->
<g id="node6" class="node"><title>Node8</title>
<g id="a_node6"><a xlink:href="connected__client__headless__server_8h.html" target="_top" xlink:title="include/test/mir_test\l_framework/connected\l_client_headless_server.h">
<polygon fill="white" stroke="black" points="95,-78.5 95,-119.5 224,-119.5 224,-78.5 95,-78.5"/>
<text text-anchor="start" x="103" y="-107.5" font-family="Arial" font-size="10.00">include/test/mir_test</text>
<text text-anchor="start" x="103" y="-96.5" font-family="Arial" font-size="10.00">_framework/connected</text>
<text text-anchor="middle" x="159.5" y="-85.5" font-family="Arial" font-size="10.00">_client_headless_server.h</text>
</a>
</g>
</g>
<!-- Node7&#45;&gt;Node8 -->
<g id="edge5" class="edge"><title>Node7&#45;&gt;Node8</title>
<path fill="none" stroke="midnightblue" d="M159.5,-146.297C159.5,-137.301 159.5,-127.653 159.5,-119.506"/>
<polygon fill="midnightblue" stroke="midnightblue" points="156,-146.428 159.5,-156.428 163,-146.428 156,-146.428"/>
</g>
<!-- Node9 -->
<g id="node7" class="node"><title>Node9</title>
<g id="a_node7"><a xlink:href="connected__client__with__a__window_8h.html" target="_top" xlink:title="include/test/mir_test\l_framework/connected\l_client_with_a_window.h">
<polygon fill="white" stroke="black" points="98.5,-0.5 98.5,-41.5 220.5,-41.5 220.5,-0.5 98.5,-0.5"/>
<text text-anchor="start" x="106.5" y="-29.5" font-family="Arial" font-size="10.00">include/test/mir_test</text>
<text text-anchor="start" x="106.5" y="-18.5" font-family="Arial" font-size="10.00">_framework/connected</text>
<text text-anchor="middle" x="159.5" y="-7.5" font-family="Arial" font-size="10.00">_client_with_a_window.h</text>
</a>
</g>
</g>
<!-- Node8&#45;&gt;Node9 -->
<g id="edge6" class="edge"><title>Node8&#45;&gt;Node9</title>
<path fill="none" stroke="midnightblue" d="M159.5,-68.2965C159.5,-59.3009 159.5,-49.6532 159.5,-41.5056"/>
<polygon fill="midnightblue" stroke="midnightblue" points="156,-68.4281 159.5,-78.4281 163,-68.4281 156,-68.4281"/>
</g>
</g>
</svg>
