<?xml version="1.0" encoding="UTF-8" standalone="no"?>
<!DOCTYPE svg PUBLIC "-//W3C//DTD SVG 1.1//EN"
 "http://www.w3.org/Graphics/SVG/1.1/DTD/svg11.dtd">
<!-- Generated by graphviz version 2.38.0 (20140413.2041)
 -->
<!-- Title: include/client/mir/client/blob.h Pages: 1 -->
<svg width="1873pt" height="430pt"
 viewBox="0.00 0.00 1873.00 430.00" xmlns="http://www.w3.org/2000/svg" xmlns:xlink="http://www.w3.org/1999/xlink">
<g id="graph0" class="graph" transform="scale(1 1) rotate(0) translate(4 426)">
<title>include/client/mir/client/blob.h</title>
<polygon fill="white" stroke="none" points="-4,4 -4,-426 1869,-426 1869,4 -4,4"/>
<!-- Node0 -->
<g id="node1" class="node"><title>Node0</title>
<polygon fill="#bfbfbf" stroke="black" points="59,-391.5 59,-421.5 149,-421.5 149,-391.5 59,-391.5"/>
<text text-anchor="start" x="67" y="-409.5" font-family="Arial" font-size="10.00">include/client/mir</text>
<text text-anchor="middle" x="104" y="-398.5" font-family="Arial" font-size="10.00">/client/blob.h</text>
</g>
<!-- Node1 -->
<g id="node2" class="node"><title>Node1</title>
<g id="a_node2"><a xlink:href="mir__blob_8h.html" target="_top" xlink:title="mir_toolkit/mir_blob.h">
<polygon fill="white" stroke="black" points="0,-335.5 0,-354.5 110,-354.5 110,-335.5 0,-335.5"/>
<text text-anchor="middle" x="55" y="-342.5" font-family="Arial" font-size="10.00">mir_toolkit/mir_blob.h</text>
</a>
</g>
</g>
<!-- Node0&#45;&gt;Node1 -->
<g id="edge1" class="edge"><title>Node0&#45;&gt;Node1</title>
<path fill="none" stroke="midnightblue" d="M92.3877,-391.399C85.2674,-382.753 76.1169,-371.642 68.6508,-362.576"/>
<polygon fill="midnightblue" stroke="midnightblue" points="71.1888,-360.152 62.1299,-354.658 65.7853,-364.602 71.1888,-360.152"/>
</g>
<!-- Node25 -->
<g id="node26" class="node"><title>Node25</title>
<polygon fill="white" stroke="#bfbfbf" points="128,-335.5 128,-354.5 180,-354.5 180,-335.5 128,-335.5"/>
<text text-anchor="middle" x="154" y="-342.5" font-family="Arial" font-size="10.00">memory</text>
</g>
<!-- Node0&#45;&gt;Node25 -->
<g id="edge48" class="edge"><title>Node0&#45;&gt;Node25</title>
<path fill="none" stroke="midnightblue" d="M115.849,-391.399C123.115,-382.753 132.452,-371.642 140.071,-362.576"/>
<polygon fill="midnightblue" stroke="midnightblue" points="142.971,-364.565 146.725,-354.658 137.612,-360.062 142.971,-364.565"/>
</g>
<!-- Node2 -->
<g id="node3" class="node"><title>Node2</title>
<g id="a_node3"><a xlink:href="client__types_8h.html" target="_top" xlink:title="mir_toolkit/client\l_types.h">
<polygon fill="white" stroke="black" points="72,-268.5 72,-298.5 160,-298.5 160,-268.5 72,-268.5"/>
<text text-anchor="start" x="80" y="-286.5" font-family="Arial" font-size="10.00">mir_toolkit/client</text>
<text text-anchor="middle" x="116" y="-275.5" font-family="Arial" font-size="10.00">_types.h</text>
</a>
</g>
</g>
<!-- Node1&#45;&gt;Node2 -->
<g id="edge2" class="edge"><title>Node1&#45;&gt;Node2</title>
<path fill="none" stroke="midnightblue" d="M63.7398,-335.475C71.6926,-327.718 83.7638,-315.943 94.3019,-305.665"/>
<polygon fill="midnightblue" stroke="midnightblue" points="96.9088,-308.011 101.624,-298.523 92.0211,-303 96.9088,-308.011"/>
</g>
<!-- Node7 -->
<g id="node8" class="node"><title>Node7</title>
<g id="a_node8"><a xlink:href="deprecations_8h.html" target="_top" xlink:title="mir_toolkit/deprecations.h">
<polygon fill="white" stroke="black" points="135,-62 135,-81 263,-81 263,-62 135,-62"/>
<text text-anchor="middle" x="199" y="-69" font-family="Arial" font-size="10.00">mir_toolkit/deprecations.h</text>
</a>
</g>
</g>
<!-- Node1&#45;&gt;Node7 -->
<g id="edge47" class="edge"><title>Node1&#45;&gt;Node7</title>
<path fill="none" stroke="midnightblue" d="M50.7052,-335.307C35.5864,-303.333 -11.6549,-190.615 38,-123 57.9489,-95.8356 92.4843,-82.8876 124.467,-76.8645"/>
<polygon fill="midnightblue" stroke="midnightblue" points="125.455,-80.2477 134.739,-75.143 124.298,-73.344 125.455,-80.2477"/>
</g>
<!-- Node3 -->
<g id="node4" class="node"><title>Node3</title>
<g id="a_node4"><a xlink:href="toolkit_2events_2event_8h.html" target="_top" xlink:title="mir_toolkit/events\l/event.h">
<polygon fill="white" stroke="black" points="819,-201.5 819,-231.5 911,-231.5 911,-201.5 819,-201.5"/>
<text text-anchor="start" x="827" y="-219.5" font-family="Arial" font-size="10.00">mir_toolkit/events</text>
<text text-anchor="middle" x="865" y="-208.5" font-family="Arial" font-size="10.00">/event.h</text>
</a>
</g>
</g>
<!-- Node2&#45;&gt;Node3 -->
<g id="edge3" class="edge"><title>Node2&#45;&gt;Node3</title>
<path fill="none" stroke="midnightblue" d="M160.057,-278.677C288.851,-267.5 664.648,-234.887 808.281,-222.422"/>
<polygon fill="midnightblue" stroke="midnightblue" points="808.961,-225.876 818.621,-221.525 808.355,-218.903 808.961,-225.876"/>
</g>
<!-- Node4 -->
<g id="node5" class="node"><title>Node4</title>
<polygon fill="white" stroke="#bfbfbf" points="1600.5,-134.5 1600.5,-153.5 1651.5,-153.5 1651.5,-134.5 1600.5,-134.5"/>
<text text-anchor="middle" x="1626" y="-141.5" font-family="Arial" font-size="10.00">stddef.h</text>
</g>
<!-- Node2&#45;&gt;Node4 -->
<g id="edge46" class="edge"><title>Node2&#45;&gt;Node4</title>
<path fill="none" stroke="midnightblue" d="M160.271,-281.685C375.604,-277.312 1314.34,-253.418 1591,-165 1595.83,-163.457 1600.73,-161.185 1605.27,-158.722"/>
<polygon fill="midnightblue" stroke="midnightblue" points="1607.14,-161.68 1613.96,-153.566 1603.57,-155.661 1607.14,-161.68"/>
</g>
<!-- Node6 -->
<g id="node7" class="node"><title>Node6</title>
<g id="a_node7"><a xlink:href="common_8h.html" target="_top" xlink:title="mir_toolkit/common.h">
<polygon fill="white" stroke="black" points="61,-134.5 61,-153.5 171,-153.5 171,-134.5 61,-134.5"/>
<text text-anchor="middle" x="116" y="-141.5" font-family="Arial" font-size="10.00">mir_toolkit/common.h</text>
</a>
</g>
</g>
<!-- Node2&#45;&gt;Node6 -->
<g id="edge44" class="edge"><title>Node2&#45;&gt;Node6</title>
<path fill="none" stroke="midnightblue" d="M116,-268.303C116,-243.336 116,-191.58 116,-163.722"/>
<polygon fill="midnightblue" stroke="midnightblue" points="119.5,-163.701 116,-153.701 112.5,-163.701 119.5,-163.701"/>
</g>
<!-- Node2&#45;&gt;Node7 -->
<g id="edge45" class="edge"><title>Node2&#45;&gt;Node7</title>
<path fill="none" stroke="midnightblue" d="M101.502,-268.166C73.5891,-238.807 18.0234,-170.598 52,-123 68.8256,-99.429 97.3785,-86.7457 124.869,-79.964"/>
<polygon fill="midnightblue" stroke="midnightblue" points="125.926,-83.3144 134.925,-77.7232 124.404,-76.4819 125.926,-83.3144"/>
</g>
<!-- Node3&#45;&gt;Node4 -->
<g id="edge4" class="edge"><title>Node3&#45;&gt;Node4</title>
<path fill="none" stroke="midnightblue" d="M911.2,-213.487C1060.82,-206.8 1526.2,-184.641 1591,-165 1595.85,-163.529 1600.76,-161.29 1605.3,-158.834"/>
<polygon fill="midnightblue" stroke="midnightblue" points="1607.18,-161.789 1613.99,-153.667 1603.6,-155.773 1607.18,-161.789"/>
</g>
<!-- Node5 -->
<g id="node6" class="node"><title>Node5</title>
<polygon fill="white" stroke="#bfbfbf" points="1274.5,-0.5 1274.5,-19.5 1323.5,-19.5 1323.5,-0.5 1274.5,-0.5"/>
<text text-anchor="middle" x="1299" y="-7.5" font-family="Arial" font-size="10.00">stdint.h</text>
</g>
<!-- Node3&#45;&gt;Node5 -->
<g id="edge5" class="edge"><title>Node3&#45;&gt;Node5</title>
<path fill="none" stroke="midnightblue" d="M911.051,-213.841C1021.78,-209.379 1295.81,-195.351 1323,-165 1384.51,-96.3333 1242.67,-94.0502 1238,-87 1230.39,-75.514 1231.79,-68.2987 1238,-56 1244.81,-42.5199 1257.77,-32.083 1270,-24.6696"/>
<polygon fill="midnightblue" stroke="midnightblue" points="1272.07,-27.5214 1279.09,-19.5896 1268.66,-21.4099 1272.07,-27.5214"/>
</g>
<!-- Node3&#45;&gt;Node6 -->
<g id="edge6" class="edge"><title>Node3&#45;&gt;Node6</title>
<path fill="none" stroke="midnightblue" d="M818.821,-215.367C708.379,-214.334 420.637,-207.423 185,-165 173.628,-162.953 161.451,-159.768 150.541,-156.537"/>
<polygon fill="midnightblue" stroke="midnightblue" points="151.523,-153.178 140.936,-153.589 149.468,-159.87 151.523,-153.178"/>
</g>
<!-- Node3&#45;&gt;Node7 -->
<g id="edge8" class="edge"><title>Node3&#45;&gt;Node7</title>
<path fill="none" stroke="midnightblue" d="M818.697,-215.045C678.075,-213.235 262.826,-204.558 218,-165 197.265,-146.702 195.606,-112.356 196.887,-91.0561"/>
<polygon fill="midnightblue" stroke="midnightblue" points="200.381,-91.2722 197.768,-81.0046 193.408,-90.6605 200.381,-91.2722"/>
</g>
<!-- Node8 -->
<g id="node9" class="node"><title>Node8</title>
<g id="a_node9"><a xlink:href="input__event_8h.html" target="_top" xlink:title="mir_toolkit/events\l/input/input_event.h">
<polygon fill="white" stroke="black" points="1370.5,-129 1370.5,-159 1471.5,-159 1471.5,-129 1370.5,-129"/>
<text text-anchor="start" x="1378.5" y="-147" font-family="Arial" font-size="10.00">mir_toolkit/events</text>
<text text-anchor="middle" x="1421" y="-136" font-family="Arial" font-size="10.00">/input/input_event.h</text>
</a>
</g>
</g>
<!-- Node3&#45;&gt;Node8 -->
<g id="edge9" class="edge"><title>Node3&#45;&gt;Node8</title>
<path fill="none" stroke="midnightblue" d="M911.328,-213.512C997.822,-209.312 1188.91,-197.127 1347,-165 1351.6,-164.065 1356.34,-162.937 1361.11,-161.699"/>
<polygon fill="midnightblue" stroke="midnightblue" points="1362.14,-165.045 1370.86,-159.031 1360.29,-158.293 1362.14,-165.045"/>
</g>
<!-- Node15 -->
<g id="node16" class="node"><title>Node15</title>
<g id="a_node16"><a xlink:href="resize__event_8h.html" target="_top" xlink:title="mir_toolkit/events\l/resize_event.h">
<polygon fill="white" stroke="black" points="594,-129 594,-159 686,-159 686,-129 594,-129"/>
<text text-anchor="start" x="602" y="-147" font-family="Arial" font-size="10.00">mir_toolkit/events</text>
<text text-anchor="middle" x="640" y="-136" font-family="Arial" font-size="10.00">/resize_event.h</text>
</a>
</g>
</g>
<!-- Node3&#45;&gt;Node15 -->
<g id="edge20" class="edge"><title>Node3&#45;&gt;Node15</title>
<path fill="none" stroke="midnightblue" d="M818.873,-204.627C782.38,-194.819 730.587,-179.715 686,-165 683.552,-164.192 681.048,-163.348 678.534,-162.482"/>
<polygon fill="midnightblue" stroke="midnightblue" points="679.466,-159.1 668.871,-159.071 677.136,-165.7 679.466,-159.1"/>
</g>
<!-- Node16 -->
<g id="node17" class="node"><title>Node16</title>
<g id="a_node17"><a xlink:href="surface__event_8h.html" target="_top" xlink:title="mir_toolkit/events\l/surface_event.h">
<polygon fill="white" stroke="black" points="227,-129 227,-159 319,-159 319,-129 227,-129"/>
<text text-anchor="start" x="235" y="-147" font-family="Arial" font-size="10.00">mir_toolkit/events</text>
<text text-anchor="middle" x="273" y="-136" font-family="Arial" font-size="10.00">/surface_event.h</text>
</a>
</g>
</g>
<!-- Node3&#45;&gt;Node16 -->
<g id="edge22" class="edge"><title>Node3&#45;&gt;Node16</title>
<path fill="none" stroke="midnightblue" d="M818.897,-215.181C723.886,-213.707 500.573,-205.845 319,-165 315.524,-164.218 311.969,-163.275 308.444,-162.23"/>
<polygon fill="midnightblue" stroke="midnightblue" points="309.275,-158.82 298.683,-159.063 307.114,-165.478 309.275,-158.82"/>
</g>
<!-- Node17 -->
<g id="node18" class="node"><title>Node17</title>
<g id="a_node18"><a xlink:href="window__event_8h.html" target="_top" xlink:title="mir_toolkit/events\l/window_event.h">
<polygon fill="white" stroke="black" points="704,-129 704,-159 796,-159 796,-129 704,-129"/>
<text text-anchor="start" x="712" y="-147" font-family="Arial" font-size="10.00">mir_toolkit/events</text>
<text text-anchor="middle" x="750" y="-136" font-family="Arial" font-size="10.00">/window_event.h</text>
</a>
</g>
</g>
<!-- Node3&#45;&gt;Node17 -->
<g id="edge25" class="edge"><title>Node3&#45;&gt;Node17</title>
<path fill="none" stroke="midnightblue" d="M836.478,-201.403C818.008,-190.932 794.276,-176.51 776.269,-164.87"/>
<polygon fill="midnightblue" stroke="midnightblue" points="777.714,-161.632 767.433,-159.073 773.874,-167.485 777.714,-161.632"/>
</g>
<!-- Node18 -->
<g id="node19" class="node"><title>Node18</title>
<g id="a_node19"><a xlink:href="orientation__event_8h.html" target="_top" xlink:title="mir_toolkit/events\l/orientation_event.h">
<polygon fill="white" stroke="black" points="814.5,-129 814.5,-159 915.5,-159 915.5,-129 814.5,-129"/>
<text text-anchor="start" x="822.5" y="-147" font-family="Arial" font-size="10.00">mir_toolkit/events</text>
<text text-anchor="middle" x="865" y="-136" font-family="Arial" font-size="10.00">/orientation_event.h</text>
</a>
</g>
</g>
<!-- Node3&#45;&gt;Node18 -->
<g id="edge27" class="edge"><title>Node3&#45;&gt;Node18</title>
<path fill="none" stroke="midnightblue" d="M859.451,-201.233C858.249,-192.06 857.949,-179.905 858.551,-169.244"/>
<polygon fill="midnightblue" stroke="midnightblue" points="862.041,-169.52 859.454,-159.246 855.069,-168.89 862.041,-169.52"/>
</g>
<!-- Node19 -->
<g id="node20" class="node"><title>Node19</title>
<g id="a_node20"><a xlink:href="prompt__session__event_8h.html" target="_top" xlink:title="mir_toolkit/events\l/prompt_session_event.h">
<polygon fill="white" stroke="black" points="933.5,-129 933.5,-159 1058.5,-159 1058.5,-129 933.5,-129"/>
<text text-anchor="start" x="941.5" y="-147" font-family="Arial" font-size="10.00">mir_toolkit/events</text>
<text text-anchor="middle" x="996" y="-136" font-family="Arial" font-size="10.00">/prompt_session_event.h</text>
</a>
</g>
</g>
<!-- Node3&#45;&gt;Node19 -->
<g id="edge29" class="edge"><title>Node3&#45;&gt;Node19</title>
<path fill="none" stroke="midnightblue" d="M885.669,-201.403C904.398,-190.548 932.291,-175.446 955.407,-163.6"/>
<polygon fill="midnightblue" stroke="midnightblue" points="956.994,-166.72 964.327,-159.073 953.826,-160.478 956.994,-166.72"/>
</g>
<!-- Node20 -->
<g id="node21" class="node"><title>Node20</title>
<g id="a_node21"><a xlink:href="keymap__event_8h.html" target="_top" xlink:title="mir_toolkit/events\l/keymap_event.h">
<polygon fill="white" stroke="black" points="1490,-129 1490,-159 1582,-159 1582,-129 1490,-129"/>
<text text-anchor="start" x="1498" y="-147" font-family="Arial" font-size="10.00">mir_toolkit/events</text>
<text text-anchor="middle" x="1536" y="-136" font-family="Arial" font-size="10.00">/keymap_event.h</text>
</a>
</g>
</g>
<!-- Node3&#45;&gt;Node20 -->
<g id="edge31" class="edge"><title>Node3&#45;&gt;Node20</title>
<path fill="none" stroke="midnightblue" d="M911.049,-215.884C1013.32,-215.691 1266.02,-210.043 1472,-165 1475.75,-164.181 1479.58,-163.169 1483.43,-162.038"/>
<polygon fill="midnightblue" stroke="midnightblue" points="1484.49,-165.374 1492.97,-159.027 1482.38,-158.699 1484.49,-165.374"/>
</g>
<!-- Node21 -->
<g id="node22" class="node"><title>Node21</title>
<g id="a_node22"><a xlink:href="input__configuration__event_8h.html" target="_top" xlink:title="mir_toolkit/events\l/input_configuration\l_event.h">
<polygon fill="white" stroke="black" points="337.5,-123.5 337.5,-164.5 438.5,-164.5 438.5,-123.5 337.5,-123.5"/>
<text text-anchor="start" x="345.5" y="-152.5" font-family="Arial" font-size="10.00">mir_toolkit/events</text>
<text text-anchor="start" x="345.5" y="-141.5" font-family="Arial" font-size="10.00">/input_configuration</text>
<text text-anchor="middle" x="388" y="-130.5" font-family="Arial" font-size="10.00">_event.h</text>
</a>
</g>
</g>
<!-- Node3&#45;&gt;Node21 -->
<g id="edge34" class="edge"><title>Node3&#45;&gt;Node21</title>
<path fill="none" stroke="midnightblue" d="M818.91,-213.372C741.748,-208.938 582.18,-196.573 446.253,-166.822"/>
<polygon fill="midnightblue" stroke="midnightblue" points="446.616,-163.317 436.094,-164.556 445.092,-170.149 446.616,-163.317"/>
</g>
<!-- Node22 -->
<g id="node23" class="node"><title>Node22</title>
<g id="a_node23"><a xlink:href="surface__output__event_8h.html" target="_top" xlink:title="mir_toolkit/events\l/surface_output_event.h">
<polygon fill="white" stroke="black" points="456.5,-129 456.5,-159 575.5,-159 575.5,-129 456.5,-129"/>
<text text-anchor="start" x="464.5" y="-147" font-family="Arial" font-size="10.00">mir_toolkit/events</text>
<text text-anchor="middle" x="516" y="-136" font-family="Arial" font-size="10.00">/surface_output_event.h</text>
</a>
</g>
</g>
<!-- Node3&#45;&gt;Node22 -->
<g id="edge37" class="edge"><title>Node3&#45;&gt;Node22</title>
<path fill="none" stroke="midnightblue" d="M818.78,-209.601C761.244,-201.271 660.641,-184.843 576,-165 571.647,-163.98 567.161,-162.853 562.688,-161.67"/>
<polygon fill="midnightblue" stroke="midnightblue" points="563.545,-158.275 552.976,-159.008 561.695,-165.027 563.545,-158.275"/>
</g>
<!-- Node23 -->
<g id="node24" class="node"><title>Node23</title>
<g id="a_node24"><a xlink:href="window__output__event_8h.html" target="_top" xlink:title="mir_toolkit/events\l/window_output_event.h">
<polygon fill="white" stroke="black" points="1076.5,-129 1076.5,-159 1195.5,-159 1195.5,-129 1076.5,-129"/>
<text text-anchor="start" x="1084.5" y="-147" font-family="Arial" font-size="10.00">mir_toolkit/events</text>
<text text-anchor="middle" x="1136" y="-136" font-family="Arial" font-size="10.00">/window_output_event.h</text>
</a>
</g>
</g>
<!-- Node3&#45;&gt;Node23 -->
<g id="edge40" class="edge"><title>Node3&#45;&gt;Node23</title>
<path fill="none" stroke="midnightblue" d="M911.188,-202.823C950.606,-192.961 1008.53,-178.694 1059,-165 1062.77,-163.978 1066.64,-162.902 1070.56,-161.802"/>
<polygon fill="midnightblue" stroke="midnightblue" points="1071.69,-165.122 1080.36,-159.031 1069.78,-158.386 1071.69,-165.122"/>
</g>
<!-- Node24 -->
<g id="node25" class="node"><title>Node24</title>
<g id="a_node25"><a xlink:href="input__device__state__event_8h.html" target="_top" xlink:title="mir_toolkit/events\l/input_device_state\l_event.h">
<polygon fill="white" stroke="black" points="1214,-123.5 1214,-164.5 1314,-164.5 1314,-123.5 1214,-123.5"/>
<text text-anchor="start" x="1222" y="-152.5" font-family="Arial" font-size="10.00">mir_toolkit/events</text>
<text text-anchor="start" x="1222" y="-141.5" font-family="Arial" font-size="10.00">/input_device_state</text>
<text text-anchor="middle" x="1264" y="-130.5" font-family="Arial" font-size="10.00">_event.h</text>
</a>
</g>
</g>
<!-- Node3&#45;&gt;Node24 -->
<g id="edge42" class="edge"><title>Node3&#45;&gt;Node24</title>
<path fill="none" stroke="midnightblue" d="M911.177,-210.665C975.659,-203.789 1095.65,-189.253 1196,-165 1198.62,-164.367 1201.29,-163.667 1203.98,-162.92"/>
<polygon fill="midnightblue" stroke="midnightblue" points="1205.17,-166.218 1213.78,-160.043 1203.2,-159.502 1205.17,-166.218"/>
</g>
<!-- Node6&#45;&gt;Node7 -->
<g id="edge7" class="edge"><title>Node6&#45;&gt;Node7</title>
<path fill="none" stroke="midnightblue" d="M126.177,-134.355C139.743,-122.833 163.983,-102.243 180.749,-88.0022"/>
<polygon fill="midnightblue" stroke="midnightblue" points="183.383,-90.3568 188.739,-81.2154 178.852,-85.0217 183.383,-90.3568"/>
</g>
<!-- Node8&#45;&gt;Node3 -->
<g id="edge10" class="edge"><title>Node8&#45;&gt;Node3</title>
<path fill="none" stroke="midnightblue" d="M1388.54,-159.031C1380.9,-161.304 1372.75,-163.425 1365,-165 1206.35,-197.241 1014.47,-209.398 921.177,-213.556"/>
<polygon fill="midnightblue" stroke="midnightblue" points="920.948,-210.063 911.108,-213.991 921.25,-217.056 920.948,-210.063"/>
</g>
<!-- Node8&#45;&gt;Node5 -->
<g id="edge13" class="edge"><title>Node8&#45;&gt;Node5</title>
<path fill="none" stroke="midnightblue" d="M1443.15,-128.806C1467.71,-111.304 1501.46,-80.8258 1482,-56 1463.94,-32.9591 1381.7,-20.141 1333.83,-14.5129"/>
<polygon fill="midnightblue" stroke="midnightblue" points="1333.94,-11.0024 1323.61,-13.3581 1333.15,-17.9582 1333.94,-11.0024"/>
</g>
<!-- Node9 -->
<g id="node10" class="node"><title>Node9</title>
<g id="a_node10"><a xlink:href="mir__input__device__types_8h.html" target="_top" xlink:title="mir_toolkit/mir_input\l_device_types.h">
<polygon fill="white" stroke="black" points="1247,-56.5 1247,-86.5 1351,-86.5 1351,-56.5 1247,-56.5"/>
<text text-anchor="start" x="1255" y="-74.5" font-family="Arial" font-size="10.00">mir_toolkit/mir_input</text>
<text text-anchor="middle" x="1299" y="-63.5" font-family="Arial" font-size="10.00">_device_types.h</text>
</a>
</g>
</g>
<!-- Node8&#45;&gt;Node9 -->
<g id="edge11" class="edge"><title>Node8&#45;&gt;Node9</title>
<path fill="none" stroke="midnightblue" d="M1396.6,-128.903C1378.15,-118.24 1352.61,-103.479 1332.28,-91.7323"/>
<polygon fill="midnightblue" stroke="midnightblue" points="1333.76,-88.5459 1323.35,-86.5729 1330.26,-94.6067 1333.76,-88.5459"/>
</g>
<!-- Node10 -->
<g id="node11" class="node"><title>Node10</title>
<polygon fill="white" stroke="#bfbfbf" points="1552,-0.5 1552,-19.5 1608,-19.5 1608,-0.5 1552,-0.5"/>
<text text-anchor="middle" x="1580" y="-7.5" font-family="Arial" font-size="10.00">stdbool.h</text>
</g>
<!-- Node8&#45;&gt;Node10 -->
<g id="edge14" class="edge"><title>Node8&#45;&gt;Node10</title>
<path fill="none" stroke="midnightblue" d="M1441.76,-128.903C1457.55,-117.946 1479.61,-102.117 1498,-87 1521.75,-67.4749 1547.5,-43.0174 1563.68,-27.2053"/>
<polygon fill="midnightblue" stroke="midnightblue" points="1566.54,-29.3048 1571.22,-19.7966 1561.63,-24.3149 1566.54,-29.3048"/>
</g>
<!-- Node11 -->
<g id="node12" class="node"><title>Node11</title>
<g id="a_node12"><a xlink:href="touch__event_8h.html" target="_top" xlink:title="mir_toolkit/events\l/input/touch_event.h">
<polygon fill="white" stroke="black" points="1369,-56.5 1369,-86.5 1473,-86.5 1473,-56.5 1369,-56.5"/>
<text text-anchor="start" x="1377" y="-74.5" font-family="Arial" font-size="10.00">mir_toolkit/events</text>
<text text-anchor="middle" x="1421" y="-63.5" font-family="Arial" font-size="10.00">/input/touch_event.h</text>
</a>
</g>
</g>
<!-- Node8&#45;&gt;Node11 -->
<g id="edge15" class="edge"><title>Node8&#45;&gt;Node11</title>
<path fill="none" stroke="midnightblue" d="M1421,-128.733C1421,-119.655 1421,-107.658 1421,-97.0773"/>
<polygon fill="midnightblue" stroke="midnightblue" points="1424.5,-96.7455 1421,-86.7455 1417.5,-96.7455 1424.5,-96.7455"/>
</g>
<!-- Node12 -->
<g id="node13" class="node"><title>Node12</title>
<g id="a_node13"><a xlink:href="keyboard__event_8h.html" target="_top" xlink:title="mir_toolkit/events\l/input/keyboard_event.h">
<polygon fill="white" stroke="black" points="1694.5,-56.5 1694.5,-86.5 1813.5,-86.5 1813.5,-56.5 1694.5,-56.5"/>
<text text-anchor="start" x="1702.5" y="-74.5" font-family="Arial" font-size="10.00">mir_toolkit/events</text>
<text text-anchor="middle" x="1754" y="-63.5" font-family="Arial" font-size="10.00">/input/keyboard_event.h</text>
</a>
</g>
</g>
<!-- Node8&#45;&gt;Node12 -->
<g id="edge16" class="edge"><title>Node8&#45;&gt;Node12</title>
<path fill="none" stroke="midnightblue" d="M1460.45,-128.931C1467.25,-126.769 1474.29,-124.697 1481,-123 1567.61,-101.087 1593.44,-104.384 1684.41,-87.2513"/>
<polygon fill="midnightblue" stroke="midnightblue" points="1685.16,-90.6722 1694.32,-85.3536 1683.84,-83.7972 1685.16,-90.6722"/>
</g>
<!-- Node14 -->
<g id="node15" class="node"><title>Node14</title>
<g id="a_node15"><a xlink:href="pointer__event_8h.html" target="_top" xlink:title="mir_toolkit/events\l/input/pointer_event.h">
<polygon fill="white" stroke="black" points="1567.5,-56.5 1567.5,-86.5 1676.5,-86.5 1676.5,-56.5 1567.5,-56.5"/>
<text text-anchor="start" x="1575.5" y="-74.5" font-family="Arial" font-size="10.00">mir_toolkit/events</text>
<text text-anchor="middle" x="1622" y="-63.5" font-family="Arial" font-size="10.00">/input/pointer_event.h</text>
</a>
</g>
</g>
<!-- Node8&#45;&gt;Node14 -->
<g id="edge18" class="edge"><title>Node8&#45;&gt;Node14</title>
<path fill="none" stroke="midnightblue" d="M1461.19,-128.903C1493.1,-117.711 1537.88,-102.006 1572.08,-90.0093"/>
<polygon fill="midnightblue" stroke="midnightblue" points="1573.6,-93.1854 1581.88,-86.5729 1571.28,-86.58 1573.6,-93.1854"/>
</g>
<!-- Node9&#45;&gt;Node5 -->
<g id="edge12" class="edge"><title>Node9&#45;&gt;Node5</title>
<path fill="none" stroke="midnightblue" d="M1299,-56.3993C1299,-48.4664 1299,-38.458 1299,-29.8583"/>
<polygon fill="midnightblue" stroke="midnightblue" points="1302.5,-29.6577 1299,-19.6578 1295.5,-29.6578 1302.5,-29.6577"/>
</g>
<!-- Node13 -->
<g id="node14" class="node"><title>Node13</title>
<polygon fill="white" stroke="#bfbfbf" points="1731,-0.5 1731,-19.5 1865,-19.5 1865,-0.5 1731,-0.5"/>
<text text-anchor="middle" x="1798" y="-7.5" font-family="Arial" font-size="10.00">xkbcommon/xkbcommon.h</text>
</g>
<!-- Node12&#45;&gt;Node13 -->
<g id="edge17" class="edge"><title>Node12&#45;&gt;Node13</title>
<path fill="none" stroke="midnightblue" d="M1764.43,-56.3993C1770.76,-47.8424 1778.87,-36.8708 1785.53,-27.857"/>
<polygon fill="midnightblue" stroke="midnightblue" points="1788.47,-29.7792 1791.6,-19.6578 1782.84,-25.6171 1788.47,-29.7792"/>
</g>
<!-- Node14&#45;&gt;Node10 -->
<g id="edge19" class="edge"><title>Node14&#45;&gt;Node10</title>
<path fill="none" stroke="midnightblue" d="M1612.05,-56.3993C1606.01,-47.8424 1598.26,-36.8708 1591.9,-27.857"/>
<polygon fill="midnightblue" stroke="midnightblue" points="1594.74,-25.8091 1586.11,-19.6578 1589.02,-29.8459 1594.74,-25.8091"/>
</g>
<!-- Node15&#45;&gt;Node3 -->
<g id="edge21" class="edge"><title>Node15&#45;&gt;Node3</title>
<path fill="none" stroke="midnightblue" d="M686.056,-158.859C692.114,-160.976 698.211,-163.089 704,-165 740.144,-176.928 781.022,-189.112 812.621,-198.523"/>
<polygon fill="midnightblue" stroke="midnightblue" points="811.953,-201.976 822.536,-201.478 813.952,-195.268 811.953,-201.976"/>
</g>
<!-- Node16&#45;&gt;Node3 -->
<g id="edge23" class="edge"><title>Node16&#45;&gt;Node3</title>
<path fill="none" stroke="midnightblue" d="M316.345,-159.063C323.219,-161.362 330.259,-163.484 337,-165 506.019,-203.021 711.207,-212.462 808.613,-214.775"/>
<polygon fill="midnightblue" stroke="midnightblue" points="808.749,-218.279 818.824,-215 808.904,-211.28 808.749,-218.279"/>
</g>
<!-- Node16&#45;&gt;Node7 -->
<g id="edge24" class="edge"><title>Node16&#45;&gt;Node7</title>
<path fill="none" stroke="midnightblue" d="M258.025,-128.733C245.83,-117.115 228.617,-100.716 215.925,-88.6241"/>
<polygon fill="midnightblue" stroke="midnightblue" points="217.989,-85.7569 208.335,-81.3932 213.161,-90.825 217.989,-85.7569"/>
</g>
<!-- Node17&#45;&gt;Node3 -->
<g id="edge26" class="edge"><title>Node17&#45;&gt;Node3</title>
<path fill="none" stroke="midnightblue" d="M778.479,-159.073C796.941,-169.538 820.673,-183.959 838.689,-195.603"/>
<polygon fill="midnightblue" stroke="midnightblue" points="837.249,-198.844 847.531,-201.403 841.089,-192.991 837.249,-198.844"/>
</g>
<!-- Node18&#45;&gt;Node3 -->
<g id="edge28" class="edge"><title>Node18&#45;&gt;Node3</title>
<path fill="none" stroke="midnightblue" d="M870.546,-159.246C871.749,-168.414 872.051,-180.568 871.45,-191.232"/>
<polygon fill="midnightblue" stroke="midnightblue" points="867.96,-190.959 870.549,-201.233 874.932,-191.588 867.96,-190.959"/>
</g>
<!-- Node19&#45;&gt;Node3 -->
<g id="edge30" class="edge"><title>Node19&#45;&gt;Node3</title>
<path fill="none" stroke="midnightblue" d="M975.373,-159.073C956.658,-169.922 928.768,-185.023 905.645,-196.873"/>
<polygon fill="midnightblue" stroke="midnightblue" points="904.054,-193.755 896.721,-201.403 907.222,-199.997 904.054,-193.755"/>
</g>
<!-- Node20&#45;&gt;Node3 -->
<g id="edge32" class="edge"><title>Node20&#45;&gt;Node3</title>
<path fill="none" stroke="midnightblue" d="M1510.62,-159.027C1504,-161.359 1496.85,-163.502 1490,-165 1284.36,-209.968 1032.16,-215.672 921.463,-215.883"/>
<polygon fill="midnightblue" stroke="midnightblue" points="921.197,-212.383 911.198,-215.887 921.2,-219.383 921.197,-212.383"/>
</g>
<!-- Node20&#45;&gt;Node13 -->
<g id="edge33" class="edge"><title>Node20&#45;&gt;Node13</title>
<path fill="none" stroke="midnightblue" d="M1572.14,-128.973C1578.68,-126.755 1585.5,-124.652 1592,-123 1642.35,-110.206 1789.21,-126.463 1823,-87 1837.48,-70.0857 1824.02,-44.552 1811.94,-27.8272"/>
<polygon fill="midnightblue" stroke="midnightblue" points="1814.43,-25.3304 1805.55,-19.5525 1808.89,-29.6074 1814.43,-25.3304"/>
</g>
<!-- Node21&#45;&gt;Node3 -->
<g id="edge35" class="edge"><title>Node21&#45;&gt;Node3</title>
<path fill="none" stroke="midnightblue" d="M438.51,-160.288C444.387,-162.067 450.305,-163.705 456,-165 580.153,-193.223 728.866,-206.419 808.409,-211.971"/>
<polygon fill="midnightblue" stroke="midnightblue" points="808.481,-215.484 818.696,-212.673 808.958,-208.5 808.481,-215.484"/>
</g>
<!-- Node21&#45;&gt;Node7 -->
<g id="edge36" class="edge"><title>Node21&#45;&gt;Node7</title>
<path fill="none" stroke="midnightblue" d="M337.351,-124.107C303.802,-111.593 260.778,-95.5442 231.683,-84.6913"/>
<polygon fill="midnightblue" stroke="midnightblue" points="232.604,-81.2993 222.011,-81.0835 230.157,-87.8578 232.604,-81.2993"/>
</g>
<!-- Node22&#45;&gt;Node3 -->
<g id="edge38" class="edge"><title>Node22&#45;&gt;Node3</title>
<path fill="none" stroke="midnightblue" d="M570.72,-159.008C578.542,-161.152 586.471,-163.235 594,-165 667.796,-182.301 753.726,-197.005 808.791,-206.01"/>
<polygon fill="midnightblue" stroke="midnightblue" points="808.271,-209.471 818.703,-207.624 809.396,-202.562 808.271,-209.471"/>
</g>
<!-- Node22&#45;&gt;Node7 -->
<g id="edge39" class="edge"><title>Node22&#45;&gt;Node7</title>
<path fill="none" stroke="midnightblue" d="M469.372,-128.928C461.917,-126.839 454.266,-124.79 447,-123 382.339,-107.073 307.317,-92.3047 256.866,-82.9051"/>
<polygon fill="midnightblue" stroke="midnightblue" points="257.27,-79.4205 246.8,-81.0402 255.995,-86.3034 257.27,-79.4205"/>
</g>
<!-- Node23&#45;&gt;Node3 -->
<g id="edge41" class="edge"><title>Node23&#45;&gt;Node3</title>
<path fill="none" stroke="midnightblue" d="M1098.15,-159.031C1091.15,-161.082 1083.89,-163.131 1077,-165 1024.6,-179.218 964.16,-194.054 921.157,-203.936"/>
<polygon fill="midnightblue" stroke="midnightblue" points="920.135,-200.579 911.163,-206.215 921.691,-207.404 920.135,-200.579"/>
</g>
<!-- Node24&#45;&gt;Node3 -->
<g id="edge43" class="edge"><title>Node24&#45;&gt;Node3</title>
<path fill="none" stroke="midnightblue" d="M1215.9,-164.531C1215.26,-164.691 1214.63,-164.848 1214,-165 1112.62,-189.502 991.19,-204.087 921.479,-210.875"/>
<polygon fill="midnightblue" stroke="midnightblue" points="920.784,-207.425 911.161,-211.859 921.449,-214.393 920.784,-207.425"/>
</g>
</g>
</svg>
