<?xml version="1.0" encoding="UTF-8" standalone="no"?>
<!DOCTYPE svg PUBLIC "-//W3C//DTD SVG 1.1//EN"
 "http://www.w3.org/Graphics/SVG/1.1/DTD/svg11.dtd">
<!-- Generated by graphviz version 2.38.0 (20140413.2041)
 -->
<!-- Title: examples/buffer_render_target.h Pages: 1 -->
<svg width="250pt" height="95pt"
 viewBox="0.00 0.00 250.00 95.00" xmlns="http://www.w3.org/2000/svg" xmlns:xlink="http://www.w3.org/1999/xlink">
<g id="graph0" class="graph" transform="scale(1 1) rotate(0) translate(4 91)">
<title>examples/buffer_render_target.h</title>
<polygon fill="white" stroke="none" points="-4,4 -4,-91 246,-91 246,4 -4,4"/>
<!-- Node0 -->
<g id="node1" class="node"><title>Node0</title>
<polygon fill="#bfbfbf" stroke="black" points="55.5,-56.5 55.5,-86.5 174.5,-86.5 174.5,-56.5 55.5,-56.5"/>
<text text-anchor="start" x="63.5" y="-74.5" font-family="Arial" font-size="10.00">examples/buffer_render</text>
<text text-anchor="middle" x="115" y="-63.5" font-family="Arial" font-size="10.00">_target.h</text>
</g>
<!-- Node1 -->
<g id="node2" class="node"><title>Node1</title>
<polygon fill="white" stroke="#bfbfbf" points="0,-0.5 0,-19.5 60,-19.5 60,-0.5 0,-0.5"/>
<text text-anchor="middle" x="30" y="-7.5" font-family="Arial" font-size="10.00">EGL/egl.h</text>
</g>
<!-- Node0&#45;&gt;Node1 -->
<g id="edge1" class="edge"><title>Node0&#45;&gt;Node1</title>
<path fill="none" stroke="midnightblue" d="M94.8562,-56.3993C81.6133,-47.1293 64.3221,-35.0254 50.9241,-25.6469"/>
<polygon fill="midnightblue" stroke="midnightblue" points="52.5677,-22.5251 42.3683,-19.6578 48.5535,-28.2598 52.5677,-22.5251"/>
</g>
<!-- Node2 -->
<g id="node3" class="node"><title>Node2</title>
<polygon fill="white" stroke="#bfbfbf" points="78,-0.5 78,-19.5 152,-19.5 152,-0.5 78,-0.5"/>
<text text-anchor="middle" x="115" y="-7.5" font-family="Arial" font-size="10.00">EGL/eglext.h</text>
</g>
<!-- Node0&#45;&gt;Node2 -->
<g id="edge2" class="edge"><title>Node0&#45;&gt;Node2</title>
<path fill="none" stroke="midnightblue" d="M115,-56.3993C115,-48.4664 115,-38.458 115,-29.8583"/>
<polygon fill="midnightblue" stroke="midnightblue" points="118.5,-29.6577 115,-19.6578 111.5,-29.6578 118.5,-29.6577"/>
</g>
<!-- Node3 -->
<g id="node4" class="node"><title>Node3</title>
<polygon fill="white" stroke="#bfbfbf" points="170,-0.5 170,-19.5 242,-19.5 242,-0.5 170,-0.5"/>
<text text-anchor="middle" x="206" y="-7.5" font-family="Arial" font-size="10.00">GLES2/gl2.h</text>
</g>
<!-- Node0&#45;&gt;Node3 -->
<g id="edge3" class="edge"><title>Node0&#45;&gt;Node3</title>
<path fill="none" stroke="midnightblue" d="M136.566,-56.3993C150.88,-47.0402 169.612,-34.7924 184.011,-25.3771"/>
<polygon fill="midnightblue" stroke="midnightblue" points="186.304,-28.0597 192.759,-19.6578 182.474,-22.2009 186.304,-28.0597"/>
</g>
</g>
</svg>
