<?xml version="1.0" encoding="UTF-8" standalone="no"?>
<!DOCTYPE svg PUBLIC "-//W3C//DTD SVG 1.1//EN"
 "http://www.w3.org/Graphics/SVG/1.1/DTD/svg11.dtd">
<!-- Generated by graphviz version 2.38.0 (20140413.2041)
 -->
<!-- Title: include/platform/mir/graphics/buffer_ipc_message.h Pages: 1 -->
<svg width="337pt" height="218pt"
 viewBox="0.00 0.00 337.00 218.00" xmlns="http://www.w3.org/2000/svg" xmlns:xlink="http://www.w3.org/1999/xlink">
<g id="graph0" class="graph" transform="scale(1 1) rotate(0) translate(4 214)">
<title>include/platform/mir/graphics/buffer_ipc_message.h</title>
<polygon fill="white" stroke="none" points="-4,4 -4,-214 333,-214 333,4 -4,4"/>
<!-- Node0 -->
<g id="node1" class="node"><title>Node0</title>
<polygon fill="#bfbfbf" stroke="black" points="143,-168.5 143,-209.5 245,-209.5 245,-168.5 143,-168.5"/>
<text text-anchor="start" x="151" y="-197.5" font-family="Arial" font-size="10.00">include/platform/mir</text>
<text text-anchor="start" x="151" y="-186.5" font-family="Arial" font-size="10.00">/graphics/buffer_ipc</text>
<text text-anchor="middle" x="194" y="-175.5" font-family="Arial" font-size="10.00">_message.h</text>
</g>
<!-- Node1 -->
<g id="node2" class="node"><title>Node1</title>
<g id="a_node2"><a xlink:href="dimensions_8h.html" target="_top" xlink:title="mir/geometry/dimensions.h">
<polygon fill="white" stroke="black" points="0,-56.5 0,-75.5 134,-75.5 134,-56.5 0,-56.5"/>
<text text-anchor="middle" x="67" y="-63.5" font-family="Arial" font-size="10.00">mir/geometry/dimensions.h</text>
</a>
</g>
</g>
<!-- Node0&#45;&gt;Node1 -->
<g id="edge1" class="edge"><title>Node0&#45;&gt;Node1</title>
<path fill="none" stroke="midnightblue" d="M142.81,-171.519C122.576,-162.687 100.693,-149.86 86,-132 75.1554,-118.818 70.5003,-99.681 68.5022,-85.5836"/>
<polygon fill="midnightblue" stroke="midnightblue" points="71.9732,-85.1262 67.402,-75.5682 65.015,-85.8907 71.9732,-85.1262"/>
</g>
<!-- Node4 -->
<g id="node5" class="node"><title>Node4</title>
<g id="a_node5"><a xlink:href="size_8h.html" target="_top" xlink:title="mir/geometry/size.h">
<polygon fill="white" stroke="black" points="95.5,-112.5 95.5,-131.5 198.5,-131.5 198.5,-112.5 95.5,-112.5"/>
<text text-anchor="middle" x="147" y="-119.5" font-family="Arial" font-size="10.00">mir/geometry/size.h</text>
</a>
</g>
</g>
<!-- Node0&#45;&gt;Node4 -->
<g id="edge4" class="edge"><title>Node0&#45;&gt;Node4</title>
<path fill="none" stroke="midnightblue" d="M179.898,-168.498C173.316,-159.395 165.556,-148.662 159.226,-139.908"/>
<polygon fill="midnightblue" stroke="midnightblue" points="161.952,-137.705 153.256,-131.652 156.28,-141.807 161.952,-137.705"/>
</g>
<!-- Node5 -->
<g id="node6" class="node"><title>Node5</title>
<g id="a_node6"><a xlink:href="fd_8h.html" target="_top" xlink:title="mir/fd.h">
<polygon fill="white" stroke="black" points="217,-112.5 217,-131.5 267,-131.5 267,-112.5 217,-112.5"/>
<text text-anchor="middle" x="242" y="-119.5" font-family="Arial" font-size="10.00">mir/fd.h</text>
</a>
</g>
</g>
<!-- Node0&#45;&gt;Node5 -->
<g id="edge7" class="edge"><title>Node0&#45;&gt;Node5</title>
<path fill="none" stroke="midnightblue" d="M208.402,-168.498C215.124,-159.395 223.049,-148.662 229.514,-139.908"/>
<polygon fill="midnightblue" stroke="midnightblue" points="232.486,-141.776 235.61,-131.652 226.854,-137.618 232.486,-141.776"/>
</g>
<!-- Node7 -->
<g id="node8" class="node"><title>Node7</title>
<polygon fill="white" stroke="#bfbfbf" points="285,-112.5 285,-131.5 329,-131.5 329,-112.5 285,-112.5"/>
<text text-anchor="middle" x="307" y="-119.5" font-family="Arial" font-size="10.00">vector</text>
</g>
<!-- Node0&#45;&gt;Node7 -->
<g id="edge9" class="edge"><title>Node0&#45;&gt;Node7</title>
<path fill="none" stroke="midnightblue" d="M227.904,-168.498C245.729,-158.245 267.146,-145.925 283.196,-136.693"/>
<polygon fill="midnightblue" stroke="midnightblue" points="285.035,-139.673 291.958,-131.652 281.545,-133.605 285.035,-139.673"/>
</g>
<!-- Node2 -->
<g id="node3" class="node"><title>Node2</title>
<polygon fill="white" stroke="#bfbfbf" points="44,-0.5 44,-19.5 90,-19.5 90,-0.5 44,-0.5"/>
<text text-anchor="middle" x="67" y="-7.5" font-family="Arial" font-size="10.00">cstdint</text>
</g>
<!-- Node1&#45;&gt;Node2 -->
<g id="edge2" class="edge"><title>Node1&#45;&gt;Node2</title>
<path fill="none" stroke="midnightblue" d="M67,-56.083C67,-49.0059 67,-38.8611 67,-29.9865"/>
<polygon fill="midnightblue" stroke="midnightblue" points="70.5001,-29.751 67,-19.7511 63.5001,-29.7511 70.5001,-29.751"/>
</g>
<!-- Node3 -->
<g id="node4" class="node"><title>Node3</title>
<polygon fill="white" stroke="#bfbfbf" points="124,-0.5 124,-19.5 168,-19.5 168,-0.5 124,-0.5"/>
<text text-anchor="middle" x="146" y="-7.5" font-family="Arial" font-size="10.00">iosfwd</text>
</g>
<!-- Node1&#45;&gt;Node3 -->
<g id="edge3" class="edge"><title>Node1&#45;&gt;Node3</title>
<path fill="none" stroke="midnightblue" d="M79.6927,-56.324C91.9011,-47.979 110.578,-35.2122 125.003,-25.3524"/>
<polygon fill="midnightblue" stroke="midnightblue" points="127.058,-28.1871 133.339,-19.6545 123.108,-22.4082 127.058,-28.1871"/>
</g>
<!-- Node4&#45;&gt;Node1 -->
<g id="edge5" class="edge"><title>Node4&#45;&gt;Node1</title>
<path fill="none" stroke="midnightblue" d="M134.147,-112.324C121.784,-103.979 102.87,-91.2122 88.2628,-81.3524"/>
<polygon fill="midnightblue" stroke="midnightblue" points="90.0682,-78.3483 79.8215,-75.6545 86.1518,-84.1503 90.0682,-78.3483"/>
</g>
<!-- Node4&#45;&gt;Node3 -->
<g id="edge6" class="edge"><title>Node4&#45;&gt;Node3</title>
<path fill="none" stroke="midnightblue" d="M146.922,-112.368C146.76,-94.617 146.388,-53.6664 146.169,-29.5974"/>
<polygon fill="midnightblue" stroke="midnightblue" points="149.669,-29.5592 146.078,-19.5914 142.669,-29.6229 149.669,-29.5592"/>
</g>
<!-- Node6 -->
<g id="node7" class="node"><title>Node6</title>
<polygon fill="white" stroke="#bfbfbf" points="216,-56.5 216,-75.5 268,-75.5 268,-56.5 216,-56.5"/>
<text text-anchor="middle" x="242" y="-63.5" font-family="Arial" font-size="10.00">memory</text>
</g>
<!-- Node5&#45;&gt;Node6 -->
<g id="edge8" class="edge"><title>Node5&#45;&gt;Node6</title>
<path fill="none" stroke="midnightblue" d="M242,-112.083C242,-105.006 242,-94.8611 242,-85.9865"/>
<polygon fill="midnightblue" stroke="midnightblue" points="245.5,-85.751 242,-75.7511 238.5,-85.7511 245.5,-85.751"/>
</g>
</g>
</svg>
