<?xml version="1.0" encoding="UTF-8" standalone="no"?>
<!DOCTYPE svg PUBLIC "-//W3C//DTD SVG 1.1//EN"
 "http://www.w3.org/Graphics/SVG/1.1/DTD/svg11.dtd">
<!-- Generated by graphviz version 2.38.0 (20140413.2041)
 -->
<!-- Title: include/common/mir/frontend/buffer_stream_id.h Pages: 1 -->
<svg width="147pt" height="151pt"
 viewBox="0.00 0.00 147.00 151.00" xmlns="http://www.w3.org/2000/svg" xmlns:xlink="http://www.w3.org/1999/xlink">
<g id="graph0" class="graph" transform="scale(1 1) rotate(0) translate(4 147)">
<title>include/common/mir/frontend/buffer_stream_id.h</title>
<polygon fill="white" stroke="none" points="-4,4 -4,-147 143,-147 143,4 -4,4"/>
<!-- Node0 -->
<g id="node1" class="node"><title>Node0</title>
<polygon fill="#bfbfbf" stroke="black" points="0,-112.5 0,-142.5 139,-142.5 139,-112.5 0,-112.5"/>
<text text-anchor="start" x="8" y="-130.5" font-family="Arial" font-size="10.00">include/common/mir</text>
<text text-anchor="middle" x="69.5" y="-119.5" font-family="Arial" font-size="10.00">/frontend/buffer_stream_id.h</text>
</g>
<!-- Node1 -->
<g id="node2" class="node"><title>Node1</title>
<g id="a_node2"><a xlink:href="int__wrapper_8h.html" target="_top" xlink:title="mir/int_wrapper.h">
<polygon fill="white" stroke="black" points="24.5,-56.5 24.5,-75.5 114.5,-75.5 114.5,-56.5 24.5,-56.5"/>
<text text-anchor="middle" x="69.5" y="-63.5" font-family="Arial" font-size="10.00">mir/int_wrapper.h</text>
</a>
</g>
</g>
<!-- Node0&#45;&gt;Node1 -->
<g id="edge1" class="edge"><title>Node0&#45;&gt;Node1</title>
<path fill="none" stroke="midnightblue" d="M69.5,-112.399C69.5,-104.466 69.5,-94.458 69.5,-85.8583"/>
<polygon fill="midnightblue" stroke="midnightblue" points="73.0001,-85.6577 69.5,-75.6578 66.0001,-85.6578 73.0001,-85.6577"/>
</g>
<!-- Node2 -->
<g id="node3" class="node"><title>Node2</title>
<polygon fill="white" stroke="#bfbfbf" points="12.5,-0.5 12.5,-19.5 56.5,-19.5 56.5,-0.5 12.5,-0.5"/>
<text text-anchor="middle" x="34.5" y="-7.5" font-family="Arial" font-size="10.00">iosfwd</text>
</g>
<!-- Node1&#45;&gt;Node2 -->
<g id="edge2" class="edge"><title>Node1&#45;&gt;Node2</title>
<path fill="none" stroke="midnightblue" d="M63.7205,-56.083C58.8276,-48.5341 51.6726,-37.4948 45.6674,-28.2298"/>
<polygon fill="midnightblue" stroke="midnightblue" points="48.548,-26.239 40.172,-19.7511 42.674,-30.0463 48.548,-26.239"/>
</g>
<!-- Node3 -->
<g id="node4" class="node"><title>Node3</title>
<polygon fill="white" stroke="#bfbfbf" points="75,-0.5 75,-19.5 134,-19.5 134,-0.5 75,-0.5"/>
<text text-anchor="middle" x="104.5" y="-7.5" font-family="Arial" font-size="10.00">functional</text>
</g>
<!-- Node1&#45;&gt;Node3 -->
<g id="edge3" class="edge"><title>Node1&#45;&gt;Node3</title>
<path fill="none" stroke="midnightblue" d="M75.2795,-56.083C80.1724,-48.5341 87.3274,-37.4948 93.3326,-28.2298"/>
<polygon fill="midnightblue" stroke="midnightblue" points="96.326,-30.0463 98.828,-19.7511 90.452,-26.239 96.326,-30.0463"/>
</g>
</g>
</svg>
