<?xml version="1.0" encoding="UTF-8" standalone="no"?>
<!DOCTYPE svg PUBLIC "-//W3C//DTD SVG 1.1//EN"
 "http://www.w3.org/Graphics/SVG/1.1/DTD/svg11.dtd">
<!-- Generated by graphviz version 2.38.0 (20140413.2041)
 -->
<!-- Title: include/common/mir/frontend/buffer_stream_id.h Pages: 1 -->
<svg width="246pt" height="173pt"
 viewBox="0.00 0.00 246.00 173.00" xmlns="http://www.w3.org/2000/svg" xmlns:xlink="http://www.w3.org/1999/xlink">
<g id="graph0" class="graph" transform="scale(1 1) rotate(0) translate(4 169)">
<title>include/common/mir/frontend/buffer_stream_id.h</title>
<polygon fill="white" stroke="none" points="-4,4 -4,-169 242,-169 242,4 -4,4"/>
<!-- Node4 -->
<g id="node1" class="node"><title>Node4</title>
<polygon fill="#bfbfbf" stroke="black" points="47,-134.5 47,-164.5 186,-164.5 186,-134.5 47,-134.5"/>
<text text-anchor="start" x="55" y="-152.5" font-family="Arial" font-size="10.00">include/common/mir</text>
<text text-anchor="middle" x="116.5" y="-141.5" font-family="Arial" font-size="10.00">/frontend/buffer_stream_id.h</text>
</g>
<!-- Node5 -->
<g id="node2" class="node"><title>Node5</title>
<g id="a_node2"><a xlink:href="platform_2mir_2mir__buffer__stream_8h.html" target="_top" xlink:title="include/platform/mir\l/mir_buffer_stream.h">
<polygon fill="white" stroke="black" points="-7.10543e-15,-67.5 -7.10543e-15,-97.5 107,-97.5 107,-67.5 -7.10543e-15,-67.5"/>
<text text-anchor="start" x="8" y="-85.5" font-family="Arial" font-size="10.00">include/platform/mir</text>
<text text-anchor="middle" x="53.5" y="-74.5" font-family="Arial" font-size="10.00">/mir_buffer_stream.h</text>
</a>
</g>
</g>
<!-- Node4&#45;&gt;Node5 -->
<g id="edge1" class="edge"><title>Node4&#45;&gt;Node5</title>
<path fill="none" stroke="midnightblue" d="M95.685,-127.024C86.2986,-117.34 75.4763,-106.174 67.1434,-97.5765"/>
<polygon fill="midnightblue" stroke="midnightblue" points="93.3569,-129.651 102.83,-134.396 98.3834,-124.779 93.3569,-129.651"/>
</g>
<!-- Node6 -->
<g id="node3" class="node"><title>Node6</title>
<g id="a_node3"><a xlink:href="platform_2mir_2mir__render__surface_8h.html" target="_top" xlink:title="include/platform/mir\l/mir_render_surface.h">
<polygon fill="white" stroke="black" points="125,-67.5 125,-97.5 236,-97.5 236,-67.5 125,-67.5"/>
<text text-anchor="start" x="133" y="-85.5" font-family="Arial" font-size="10.00">include/platform/mir</text>
<text text-anchor="middle" x="180.5" y="-74.5" font-family="Arial" font-size="10.00">/mir_render_surface.h</text>
</a>
</g>
</g>
<!-- Node4&#45;&gt;Node6 -->
<g id="edge2" class="edge"><title>Node4&#45;&gt;Node6</title>
<path fill="none" stroke="midnightblue" d="M137.645,-127.024C147.181,-117.34 158.175,-106.174 166.64,-97.5765"/>
<polygon fill="midnightblue" stroke="midnightblue" points="134.909,-124.815 130.387,-134.396 139.897,-129.726 134.909,-124.815"/>
</g>
<!-- Node7 -->
<g id="node4" class="node"><title>Node7</title>
<g id="a_node4"><a xlink:href="client__context_8h.html" target="_top" xlink:title="include/platform/mir\l/client/client_context.h">
<polygon fill="white" stroke="black" points="123,-0.5 123,-30.5 238,-30.5 238,-0.5 123,-0.5"/>
<text text-anchor="start" x="131" y="-18.5" font-family="Arial" font-size="10.00">include/platform/mir</text>
<text text-anchor="middle" x="180.5" y="-7.5" font-family="Arial" font-size="10.00">/client/client_context.h</text>
</a>
</g>
</g>
<!-- Node6&#45;&gt;Node7 -->
<g id="edge3" class="edge"><title>Node6&#45;&gt;Node7</title>
<path fill="none" stroke="midnightblue" d="M180.5,-57.1081C180.5,-48.1539 180.5,-38.3227 180.5,-30.5765"/>
<polygon fill="midnightblue" stroke="midnightblue" points="177,-57.3959 180.5,-67.396 184,-57.396 177,-57.3959"/>
</g>
</g>
</svg>
