<?xml version="1.0" encoding="UTF-8" standalone="no"?>
<!DOCTYPE svg PUBLIC "-//W3C//DTD SVG 1.1//EN"
 "http://www.w3.org/Graphics/SVG/1.1/DTD/svg11.dtd">
<!-- Generated by graphviz version 2.38.0 (20140413.2041)
 -->
<!-- Title: examples/buffer_render_target.cpp Pages: 1 -->
<svg width="909pt" height="285pt"
 viewBox="0.00 0.00 908.50 285.00" xmlns="http://www.w3.org/2000/svg" xmlns:xlink="http://www.w3.org/1999/xlink">
<g id="graph0" class="graph" transform="scale(1 1) rotate(0) translate(4 281)">
<title>examples/buffer_render_target.cpp</title>
<polygon fill="white" stroke="none" points="-4,4 -4,-281 904.5,-281 904.5,4 -4,4"/>
<!-- Node0 -->
<g id="node1" class="node"><title>Node0</title>
<polygon fill="#bfbfbf" stroke="black" points="603.5,-246.5 603.5,-276.5 722.5,-276.5 722.5,-246.5 603.5,-246.5"/>
<text text-anchor="start" x="611.5" y="-264.5" font-family="Arial" font-size="10.00">examples/buffer_render</text>
<text text-anchor="middle" x="663" y="-253.5" font-family="Arial" font-size="10.00">_target.cpp</text>
</g>
<!-- Node1 -->
<g id="node2" class="node"><title>Node1</title>
<g id="a_node2"><a xlink:href="buffer__render__target_8h.html" target="_top" xlink:title="buffer_render_target.h">
<polygon fill="white" stroke="black" points="105,-185 105,-204 217,-204 217,-185 105,-185"/>
<text text-anchor="middle" x="161" y="-192" font-family="Arial" font-size="10.00">buffer_render_target.h</text>
</a>
</g>
</g>
<!-- Node0&#45;&gt;Node1 -->
<g id="edge1" class="edge"><title>Node0&#45;&gt;Node1</title>
<path fill="none" stroke="midnightblue" d="M603.443,-252.788C509.002,-240.56 325.536,-216.804 227.136,-204.063"/>
<polygon fill="midnightblue" stroke="midnightblue" points="227.383,-200.566 217.017,-202.753 226.484,-207.508 227.383,-200.566"/>
</g>
<!-- Node5 -->
<g id="node6" class="node"><title>Node5</title>
<g id="a_node6"><a xlink:href="buffer_8h.html" target="_top" xlink:title="mir/graphics/buffer.h">
<polygon fill="white" stroke="black" points="483.5,-185 483.5,-204 588.5,-204 588.5,-185 483.5,-185"/>
<text text-anchor="middle" x="536" y="-192" font-family="Arial" font-size="10.00">mir/graphics/buffer.h</text>
</a>
</g>
</g>
<!-- Node0&#45;&gt;Node5 -->
<g id="edge5" class="edge"><title>Node0&#45;&gt;Node5</title>
<path fill="none" stroke="midnightblue" d="M635.443,-246.396C613.554,-235.193 583.168,-219.641 561.762,-208.685"/>
<polygon fill="midnightblue" stroke="midnightblue" points="563.118,-205.447 552.621,-204.007 559.929,-211.679 563.118,-205.447"/>
</g>
<!-- Node17 -->
<g id="node18" class="node"><title>Node17</title>
<g id="a_node18"><a xlink:href="texture__source_8h.html" target="_top" xlink:title="mir/renderer/gl/texture\l_source.h">
<polygon fill="white" stroke="black" points="607,-179.5 607,-209.5 719,-209.5 719,-179.5 607,-179.5"/>
<text text-anchor="start" x="615" y="-197.5" font-family="Arial" font-size="10.00">mir/renderer/gl/texture</text>
<text text-anchor="middle" x="663" y="-186.5" font-family="Arial" font-size="10.00">_source.h</text>
</a>
</g>
</g>
<!-- Node0&#45;&gt;Node17 -->
<g id="edge20" class="edge"><title>Node0&#45;&gt;Node17</title>
<path fill="none" stroke="midnightblue" d="M663,-246.396C663,-238.645 663,-228.812 663,-219.86"/>
<polygon fill="midnightblue" stroke="midnightblue" points="666.5,-219.576 663,-209.577 659.5,-219.577 666.5,-219.576"/>
</g>
<!-- Node18 -->
<g id="node19" class="node"><title>Node18</title>
<polygon fill="white" stroke="#bfbfbf" points="737,-185 737,-204 823,-204 823,-185 737,-185"/>
<text text-anchor="middle" x="780" y="-192" font-family="Arial" font-size="10.00">GLES2/gl2ext.h</text>
</g>
<!-- Node0&#45;&gt;Node18 -->
<g id="edge21" class="edge"><title>Node0&#45;&gt;Node18</title>
<path fill="none" stroke="midnightblue" d="M688.387,-246.396C708.371,-235.294 736.042,-219.921 755.731,-208.983"/>
<polygon fill="midnightblue" stroke="midnightblue" points="757.646,-211.923 764.687,-204.007 754.246,-205.804 757.646,-211.923"/>
</g>
<!-- Node19 -->
<g id="node20" class="node"><title>Node19</title>
<polygon fill="white" stroke="#bfbfbf" points="841.5,-185 841.5,-204 900.5,-204 900.5,-185 841.5,-185"/>
<text text-anchor="middle" x="871" y="-192" font-family="Arial" font-size="10.00">stdexcept</text>
</g>
<!-- Node0&#45;&gt;Node19 -->
<g id="edge22" class="edge"><title>Node0&#45;&gt;Node19</title>
<path fill="none" stroke="midnightblue" d="M713.186,-246.439C746.949,-236.75 792.364,-223.274 832,-210 834.397,-209.197 836.868,-208.343 839.348,-207.466"/>
<polygon fill="midnightblue" stroke="midnightblue" points="840.606,-210.733 848.816,-204.035 838.221,-204.151 840.606,-210.733"/>
</g>
<!-- Node2 -->
<g id="node3" class="node"><title>Node2</title>
<polygon fill="white" stroke="#bfbfbf" points="0,-118 0,-137 60,-137 60,-118 0,-118"/>
<text text-anchor="middle" x="30" y="-125" font-family="Arial" font-size="10.00">EGL/egl.h</text>
</g>
<!-- Node1&#45;&gt;Node2 -->
<g id="edge2" class="edge"><title>Node1&#45;&gt;Node2</title>
<path fill="none" stroke="midnightblue" d="M143.604,-184.869C121.387,-173.845 82.7133,-154.655 56.7397,-141.768"/>
<polygon fill="midnightblue" stroke="midnightblue" points="57.9813,-138.477 47.4677,-137.167 54.87,-144.747 57.9813,-138.477"/>
</g>
<!-- Node3 -->
<g id="node4" class="node"><title>Node3</title>
<polygon fill="white" stroke="#bfbfbf" points="78,-118 78,-137 152,-137 152,-118 78,-118"/>
<text text-anchor="middle" x="115" y="-125" font-family="Arial" font-size="10.00">EGL/eglext.h</text>
</g>
<!-- Node1&#45;&gt;Node3 -->
<g id="edge3" class="edge"><title>Node1&#45;&gt;Node3</title>
<path fill="none" stroke="midnightblue" d="M154.796,-184.734C147.692,-174.695 135.887,-158.014 126.975,-145.421"/>
<polygon fill="midnightblue" stroke="midnightblue" points="129.739,-143.268 121.105,-137.127 124.025,-147.312 129.739,-143.268"/>
</g>
<!-- Node4 -->
<g id="node5" class="node"><title>Node4</title>
<polygon fill="white" stroke="#bfbfbf" points="170,-118 170,-137 242,-137 242,-118 170,-118"/>
<text text-anchor="middle" x="206" y="-125" font-family="Arial" font-size="10.00">GLES2/gl2.h</text>
</g>
<!-- Node1&#45;&gt;Node4 -->
<g id="edge4" class="edge"><title>Node1&#45;&gt;Node4</title>
<path fill="none" stroke="midnightblue" d="M167.069,-184.734C174.019,-174.695 185.567,-158.014 194.285,-145.421"/>
<polygon fill="midnightblue" stroke="midnightblue" points="197.213,-147.341 200.027,-137.127 191.457,-143.357 197.213,-147.341"/>
</g>
<!-- Node6 -->
<g id="node7" class="node"><title>Node6</title>
<g id="a_node7"><a xlink:href="native__buffer_8h.html" target="_top" xlink:title="mir/graphics/native\l_buffer.h">
<polygon fill="white" stroke="black" points="580.5,-112.5 580.5,-142.5 679.5,-142.5 679.5,-112.5 580.5,-112.5"/>
<text text-anchor="start" x="588.5" y="-130.5" font-family="Arial" font-size="10.00">mir/graphics/native</text>
<text text-anchor="middle" x="630" y="-119.5" font-family="Arial" font-size="10.00">_buffer.h</text>
</a>
</g>
</g>
<!-- Node5&#45;&gt;Node6 -->
<g id="edge6" class="edge"><title>Node5&#45;&gt;Node6</title>
<path fill="none" stroke="midnightblue" d="M548.677,-184.734C562.114,-175.443 583.78,-160.461 601.371,-148.297"/>
<polygon fill="midnightblue" stroke="midnightblue" points="603.391,-151.155 609.625,-142.589 599.409,-145.398 603.391,-151.155"/>
</g>
<!-- Node7 -->
<g id="node8" class="node"><title>Node7</title>
<g id="a_node8"><a xlink:href="buffer__id_8h.html" target="_top" xlink:title="mir/graphics/buffer_id.h">
<polygon fill="white" stroke="black" points="697.5,-118 697.5,-137 816.5,-137 816.5,-118 697.5,-118"/>
<text text-anchor="middle" x="757" y="-125" font-family="Arial" font-size="10.00">mir/graphics/buffer_id.h</text>
</a>
</g>
</g>
<!-- Node5&#45;&gt;Node7 -->
<g id="edge7" class="edge"><title>Node5&#45;&gt;Node7</title>
<path fill="none" stroke="midnightblue" d="M565.347,-184.869C604.671,-173.303 674.554,-152.749 718.191,-139.914"/>
<polygon fill="midnightblue" stroke="midnightblue" points="719.277,-143.243 727.884,-137.064 717.302,-136.528 719.277,-143.243"/>
</g>
<!-- Node10 -->
<g id="node11" class="node"><title>Node10</title>
<polygon fill="white" stroke="#bfbfbf" points="771.5,-0.5 771.5,-19.5 830.5,-19.5 830.5,-0.5 771.5,-0.5"/>
<text text-anchor="middle" x="801" y="-7.5" font-family="Arial" font-size="10.00">functional</text>
</g>
<!-- Node5&#45;&gt;Node10 -->
<g id="edge19" class="edge"><title>Node5&#45;&gt;Node10</title>
<path fill="none" stroke="midnightblue" d="M570.338,-184.997C579.313,-182.905 588.996,-180.761 598,-179 648.34,-169.153 792.678,-181.997 826,-143 854.057,-110.166 828.446,-55.7705 812.126,-28.1831"/>
<polygon fill="midnightblue" stroke="midnightblue" points="815.074,-26.2951 806.844,-19.6224 809.117,-29.9707 815.074,-26.2951"/>
</g>
<!-- Node11 -->
<g id="node12" class="node"><title>Node11</title>
<g id="a_node12"><a xlink:href="size_8h.html" target="_top" xlink:title="mir/geometry/size.h">
<polygon fill="white" stroke="black" points="260.5,-118 260.5,-137 363.5,-137 363.5,-118 260.5,-118"/>
<text text-anchor="middle" x="312" y="-125" font-family="Arial" font-size="10.00">mir/geometry/size.h</text>
</a>
</g>
</g>
<!-- Node5&#45;&gt;Node11 -->
<g id="edge11" class="edge"><title>Node5&#45;&gt;Node11</title>
<path fill="none" stroke="midnightblue" d="M506.255,-184.869C466.397,-173.303 395.566,-152.749 351.336,-139.914"/>
<polygon fill="midnightblue" stroke="midnightblue" points="352.091,-136.489 341.512,-137.064 350.14,-143.212 352.091,-136.489"/>
</g>
<!-- Node14 -->
<g id="node15" class="node"><title>Node14</title>
<g id="a_node15"><a xlink:href="common_8h.html" target="_top" xlink:title="mir_toolkit/common.h">
<polygon fill="white" stroke="black" points="382,-118 382,-137 492,-137 492,-118 382,-118"/>
<text text-anchor="middle" x="437" y="-125" font-family="Arial" font-size="10.00">mir_toolkit/common.h</text>
</a>
</g>
</g>
<!-- Node5&#45;&gt;Node14 -->
<g id="edge16" class="edge"><title>Node5&#45;&gt;Node14</title>
<path fill="none" stroke="midnightblue" d="M522.648,-184.734C506.246,-173.964 478.199,-155.55 458.688,-142.739"/>
<polygon fill="midnightblue" stroke="midnightblue" points="460.42,-139.69 450.14,-137.127 456.578,-145.542 460.42,-139.69"/>
</g>
<!-- Node16 -->
<g id="node17" class="node"><title>Node16</title>
<polygon fill="white" stroke="#bfbfbf" points="510,-118 510,-137 562,-137 562,-118 510,-118"/>
<text text-anchor="middle" x="536" y="-125" font-family="Arial" font-size="10.00">memory</text>
</g>
<!-- Node5&#45;&gt;Node16 -->
<g id="edge18" class="edge"><title>Node5&#45;&gt;Node16</title>
<path fill="none" stroke="midnightblue" d="M536,-184.734C536,-175.183 536,-159.618 536,-147.283"/>
<polygon fill="midnightblue" stroke="midnightblue" points="539.5,-147.127 536,-137.127 532.5,-147.127 539.5,-147.127"/>
</g>
<!-- Node8 -->
<g id="node9" class="node"><title>Node8</title>
<g id="a_node9"><a xlink:href="int__wrapper_8h.html" target="_top" xlink:title="mir/int_wrapper.h">
<polygon fill="white" stroke="black" points="712,-56.5 712,-75.5 802,-75.5 802,-56.5 712,-56.5"/>
<text text-anchor="middle" x="757" y="-63.5" font-family="Arial" font-size="10.00">mir/int_wrapper.h</text>
</a>
</g>
</g>
<!-- Node7&#45;&gt;Node8 -->
<g id="edge8" class="edge"><title>Node7&#45;&gt;Node8</title>
<path fill="none" stroke="midnightblue" d="M757,-117.975C757,-109.58 757,-96.4806 757,-85.6631"/>
<polygon fill="midnightblue" stroke="midnightblue" points="760.5,-85.5091 757,-75.5091 753.5,-85.5091 760.5,-85.5091"/>
</g>
<!-- Node9 -->
<g id="node10" class="node"><title>Node9</title>
<polygon fill="white" stroke="#bfbfbf" points="354,-0.5 354,-19.5 398,-19.5 398,-0.5 354,-0.5"/>
<text text-anchor="middle" x="376" y="-7.5" font-family="Arial" font-size="10.00">iosfwd</text>
</g>
<!-- Node8&#45;&gt;Node9 -->
<g id="edge9" class="edge"><title>Node8&#45;&gt;Node9</title>
<path fill="none" stroke="midnightblue" d="M711.798,-58.5934C633.962,-47.5616 476.45,-25.237 408.458,-15.6004"/>
<polygon fill="midnightblue" stroke="midnightblue" points="408.733,-12.1044 398.341,-14.1664 407.751,-19.0352 408.733,-12.1044"/>
</g>
<!-- Node8&#45;&gt;Node10 -->
<g id="edge10" class="edge"><title>Node8&#45;&gt;Node10</title>
<path fill="none" stroke="midnightblue" d="M764.266,-56.083C770.545,-48.3768 779.788,-37.0333 787.431,-27.6531"/>
<polygon fill="midnightblue" stroke="midnightblue" points="790.266,-29.7143 793.869,-19.7511 784.839,-25.2926 790.266,-29.7143"/>
</g>
<!-- Node11&#45;&gt;Node9 -->
<g id="edge15" class="edge"><title>Node11&#45;&gt;Node9</title>
<path fill="none" stroke="midnightblue" d="M322.016,-117.804C332.207,-108.442 347.777,-92.6389 357,-76 365.015,-61.5396 369.958,-43.3522 372.785,-29.8958"/>
<polygon fill="midnightblue" stroke="midnightblue" points="376.258,-30.3681 374.683,-19.8909 369.38,-29.0632 376.258,-30.3681"/>
</g>
<!-- Node12 -->
<g id="node13" class="node"><title>Node12</title>
<g id="a_node13"><a xlink:href="dimensions_8h.html" target="_top" xlink:title="mir/geometry/dimensions.h">
<polygon fill="white" stroke="black" points="214,-56.5 214,-75.5 348,-75.5 348,-56.5 214,-56.5"/>
<text text-anchor="middle" x="281" y="-63.5" font-family="Arial" font-size="10.00">mir/geometry/dimensions.h</text>
</a>
</g>
</g>
<!-- Node11&#45;&gt;Node12 -->
<g id="edge12" class="edge"><title>Node11&#45;&gt;Node12</title>
<path fill="none" stroke="midnightblue" d="M307.558,-117.975C303.047,-109.315 295.926,-95.6486 290.193,-84.6453"/>
<polygon fill="midnightblue" stroke="midnightblue" points="293.158,-82.7604 285.433,-75.5091 286.95,-85.9948 293.158,-82.7604"/>
</g>
<!-- Node12&#45;&gt;Node9 -->
<g id="edge14" class="edge"><title>Node12&#45;&gt;Node9</title>
<path fill="none" stroke="midnightblue" d="M296.263,-56.324C311.221,-47.8215 334.255,-34.7288 351.727,-24.7975"/>
<polygon fill="midnightblue" stroke="midnightblue" points="353.81,-27.639 360.774,-19.6545 350.351,-21.5534 353.81,-27.639"/>
</g>
<!-- Node13 -->
<g id="node14" class="node"><title>Node13</title>
<polygon fill="white" stroke="#bfbfbf" points="258,-0.5 258,-19.5 304,-19.5 304,-0.5 258,-0.5"/>
<text text-anchor="middle" x="281" y="-7.5" font-family="Arial" font-size="10.00">cstdint</text>
</g>
<!-- Node12&#45;&gt;Node13 -->
<g id="edge13" class="edge"><title>Node12&#45;&gt;Node13</title>
<path fill="none" stroke="midnightblue" d="M281,-56.083C281,-49.0059 281,-38.8611 281,-29.9865"/>
<polygon fill="midnightblue" stroke="midnightblue" points="284.5,-29.751 281,-19.7511 277.5,-29.7511 284.5,-29.751"/>
</g>
<!-- Node15 -->
<g id="node16" class="node"><title>Node15</title>
<g id="a_node16"><a xlink:href="deprecations_8h.html" target="_top" xlink:title="mir_toolkit/deprecations.h">
<polygon fill="white" stroke="black" points="404,-56.5 404,-75.5 532,-75.5 532,-56.5 404,-56.5"/>
<text text-anchor="middle" x="468" y="-63.5" font-family="Arial" font-size="10.00">mir_toolkit/deprecations.h</text>
</a>
</g>
</g>
<!-- Node14&#45;&gt;Node15 -->
<g id="edge17" class="edge"><title>Node14&#45;&gt;Node15</title>
<path fill="none" stroke="midnightblue" d="M441.442,-117.975C445.953,-109.315 453.074,-95.6486 458.807,-84.6453"/>
<polygon fill="midnightblue" stroke="midnightblue" points="462.05,-85.9948 463.567,-75.5091 455.842,-82.7604 462.05,-85.9948"/>
</g>
</g>
</svg>
