<?xml version="1.0" encoding="UTF-8" standalone="no"?>
<!DOCTYPE svg PUBLIC "-//W3C//DTD SVG 1.1//EN"
 "http://www.w3.org/Graphics/SVG/1.1/DTD/svg11.dtd">
<!-- Generated by graphviz version 2.38.0 (20140413.2041)
 -->
<!-- Title: include/common/mir/cached_ptr.h Pages: 1 -->
<svg width="138pt" height="95pt"
 viewBox="0.00 0.00 137.50 95.00" xmlns="http://www.w3.org/2000/svg" xmlns:xlink="http://www.w3.org/1999/xlink">
<g id="graph0" class="graph" transform="scale(1 1) rotate(0) translate(4 91)">
<title>include/common/mir/cached_ptr.h</title>
<polygon fill="white" stroke="none" points="-4,4 -4,-91 133.5,-91 133.5,4 -4,4"/>
<!-- Node0 -->
<g id="node1" class="node"><title>Node0</title>
<polygon fill="#bfbfbf" stroke="black" points="14.5,-56.5 14.5,-86.5 118.5,-86.5 118.5,-56.5 14.5,-56.5"/>
<text text-anchor="start" x="22.5" y="-74.5" font-family="Arial" font-size="10.00">include/common/mir</text>
<text text-anchor="middle" x="66.5" y="-63.5" font-family="Arial" font-size="10.00">/cached_ptr.h</text>
</g>
<!-- Node1 -->
<g id="node2" class="node"><title>Node1</title>
<polygon fill="white" stroke="#bfbfbf" points="0,-0.5 0,-19.5 59,-19.5 59,-0.5 0,-0.5"/>
<text text-anchor="middle" x="29.5" y="-7.5" font-family="Arial" font-size="10.00">functional</text>
</g>
<!-- Node0&#45;&gt;Node1 -->
<g id="edge1" class="edge"><title>Node0&#45;&gt;Node1</title>
<path fill="none" stroke="midnightblue" d="M57.7315,-56.3993C52.5213,-48.0207 45.8714,-37.3269 40.3344,-28.4229"/>
<polygon fill="midnightblue" stroke="midnightblue" points="43.1368,-26.3015 34.8838,-19.6578 37.1924,-29.9981 43.1368,-26.3015"/>
</g>
<!-- Node2 -->
<g id="node3" class="node"><title>Node2</title>
<polygon fill="white" stroke="#bfbfbf" points="77.5,-0.5 77.5,-19.5 129.5,-19.5 129.5,-0.5 77.5,-0.5"/>
<text text-anchor="middle" x="103.5" y="-7.5" font-family="Arial" font-size="10.00">memory</text>
</g>
<!-- Node0&#45;&gt;Node2 -->
<g id="edge2" class="edge"><title>Node0&#45;&gt;Node2</title>
<path fill="none" stroke="midnightblue" d="M75.2685,-56.3993C80.4787,-48.0207 87.1286,-37.3269 92.6656,-28.4229"/>
<polygon fill="midnightblue" stroke="midnightblue" points="95.8076,-29.9981 98.1162,-19.6578 89.8632,-26.3015 95.8076,-29.9981"/>
</g>
</g>
</svg>
