<?xml version="1.0" encoding="UTF-8" standalone="no"?>
<!DOCTYPE svg PUBLIC "-//W3C//DTD SVG 1.1//EN"
 "http://www.w3.org/Graphics/SVG/1.1/DTD/svg11.dtd">
<!-- Generated by graphviz version 2.40.1 (20161225.0304)
 -->
<!-- Title: include/miral/miral/canonical_window_manager.h Pages: 1 -->
<svg width="590pt" height="173pt"
 viewBox="0.00 0.00 589.50 173.00" xmlns="http://www.w3.org/2000/svg" xmlns:xlink="http://www.w3.org/1999/xlink">
<g id="graph0" class="graph" transform="scale(1 1) rotate(0) translate(4 169)">
<title>include/miral/miral/canonical_window_manager.h</title>
<polygon fill="#ffffff" stroke="transparent" points="-4,4 -4,-169 585.5,-169 585.5,4 -4,4"/>
<!-- Node48 -->
<g id="node1" class="node">
<title>Node48</title>
<polygon fill="#bfbfbf" stroke="#000000" points="198,-134.5 198,-164.5 347,-164.5 347,-134.5 198,-134.5"/>
<text text-anchor="start" x="206" y="-152.5" font-family="Arial" font-size="10.00" fill="#000000">include/miral/miral</text>
<text text-anchor="middle" x="272.5" y="-141.5" font-family="Arial" font-size="10.00" fill="#000000">/canonical_window_manager.h</text>
</g>
<!-- Node49 -->
<g id="node2" class="node">
<title>Node49</title>
<g id="a_node2"><a xlink:href="kiosk__window__manager_8h.html" target="_top" xlink:title="examples/miral&#45;kiosk\l/kiosk_window_manager.h">
<polygon fill="#ffffff" stroke="#000000" points="127,-67.5 127,-97.5 258,-97.5 258,-67.5 127,-67.5"/>
<text text-anchor="start" x="135" y="-85.5" font-family="Arial" font-size="10.00" fill="#000000">examples/miral&#45;kiosk</text>
<text text-anchor="middle" x="192.5" y="-74.5" font-family="Arial" font-size="10.00" fill="#000000">/kiosk_window_manager.h</text>
</a>
</g>
</g>
<!-- Node48&#45;&gt;Node49 -->
<g id="edge1" class="edge">
<title>Node48&#45;&gt;Node49</title>
<path fill="none" stroke="#191970" d="M246.5667,-127.7808C234.8144,-117.9383 221.2056,-106.541 210.5814,-97.6432"/>
<polygon fill="#191970" stroke="#191970" points="244.433,-130.5592 254.3468,-134.2967 248.9275,-125.1927 244.433,-130.5592"/>
</g>
<!-- Node52 -->
<g id="node5" class="node">
<title>Node52</title>
<g id="a_node5"><a xlink:href="floating__window__manager_8h.html" target="_top" xlink:title="examples/example&#45;server\l&#45;lib/floating_window_manager.h">
<polygon fill="#ffffff" stroke="#000000" points="276.5,-67.5 276.5,-97.5 428.5,-97.5 428.5,-67.5 276.5,-67.5"/>
<text text-anchor="start" x="284.5" y="-85.5" font-family="Arial" font-size="10.00" fill="#000000">examples/example&#45;server</text>
<text text-anchor="middle" x="352.5" y="-74.5" font-family="Arial" font-size="10.00" fill="#000000">&#45;lib/floating_window_manager.h</text>
</a>
</g>
</g>
<!-- Node48&#45;&gt;Node52 -->
<g id="edge4" class="edge">
<title>Node48&#45;&gt;Node52</title>
<path fill="none" stroke="#191970" d="M298.4333,-127.7808C310.1856,-117.9383 323.7944,-106.541 334.4186,-97.6432"/>
<polygon fill="#191970" stroke="#191970" points="296.0725,-125.1927 290.6532,-134.2967 300.567,-130.5592 296.0725,-125.1927"/>
</g>
<!-- Node50 -->
<g id="node3" class="node">
<title>Node50</title>
<g id="a_node3"><a xlink:href="kiosk__main_8cpp.html" target="_top" xlink:title="examples/miral&#45;kiosk\l/kiosk_main.cpp">
<polygon fill="#ffffff" stroke="#000000" points="0,-.5 0,-30.5 109,-30.5 109,-.5 0,-.5"/>
<text text-anchor="start" x="8" y="-18.5" font-family="Arial" font-size="10.00" fill="#000000">examples/miral&#45;kiosk</text>
<text text-anchor="middle" x="54.5" y="-7.5" font-family="Arial" font-size="10.00" fill="#000000">/kiosk_main.cpp</text>
</a>
</g>
</g>
<!-- Node49&#45;&gt;Node50 -->
<g id="edge2" class="edge">
<title>Node49&#45;&gt;Node50</title>
<path fill="none" stroke="#191970" d="M152.4425,-63.0518C131.2377,-52.7567 105.5788,-40.2991 85.844,-30.7177"/>
<polygon fill="#191970" stroke="#191970" points="151.0056,-66.2448 161.5301,-67.4639 154.0629,-59.9478 151.0056,-66.2448"/>
</g>
<!-- Node51 -->
<g id="node4" class="node">
<title>Node51</title>
<g id="a_node4"><a xlink:href="kiosk__window__manager_8cpp.html" target="_top" xlink:title="examples/miral&#45;kiosk\l/kiosk_window_manager.cpp">
<polygon fill="#ffffff" stroke="#000000" points="127,-.5 127,-30.5 268,-30.5 268,-.5 127,-.5"/>
<text text-anchor="start" x="135" y="-18.5" font-family="Arial" font-size="10.00" fill="#000000">examples/miral&#45;kiosk</text>
<text text-anchor="middle" x="197.5" y="-7.5" font-family="Arial" font-size="10.00" fill="#000000">/kiosk_window_manager.cpp</text>
</a>
</g>
</g>
<!-- Node49&#45;&gt;Node51 -->
<g id="edge3" class="edge">
<title>Node49&#45;&gt;Node51</title>
<path fill="none" stroke="#191970" d="M194.3793,-57.3179C195.0491,-48.3414 195.7825,-38.5143 196.3699,-30.6432"/>
<polygon fill="#191970" stroke="#191970" points="190.8886,-57.0639 193.6346,-67.2967 197.8692,-57.5849 190.8886,-57.0639"/>
</g>
<!-- Node53 -->
<g id="node6" class="node">
<title>Node53</title>
<g id="a_node6"><a xlink:href="shell__main_8cpp.html" target="_top" xlink:title="examples/miral&#45;shell\l/shell_main.cpp">
<polygon fill="#ffffff" stroke="#000000" points="295.5,-.5 295.5,-30.5 401.5,-30.5 401.5,-.5 295.5,-.5"/>
<text text-anchor="start" x="303.5" y="-18.5" font-family="Arial" font-size="10.00" fill="#000000">examples/miral&#45;shell</text>
<text text-anchor="middle" x="348.5" y="-7.5" font-family="Arial" font-size="10.00" fill="#000000">/shell_main.cpp</text>
</a>
</g>
</g>
<!-- Node52&#45;&gt;Node53 -->
<g id="edge5" class="edge">
<title>Node52&#45;&gt;Node53</title>
<path fill="none" stroke="#191970" d="M350.9791,-57.0249C350.4479,-48.128 349.8689,-38.4287 349.4041,-30.6432"/>
<polygon fill="#191970" stroke="#191970" points="347.5025,-57.5231 351.5923,-67.2967 354.4901,-57.1058 347.5025,-57.5231"/>
</g>
<!-- Node54 -->
<g id="node7" class="node">
<title>Node54</title>
<g id="a_node7"><a xlink:href="floating__window__manager_8cpp.html" target="_top" xlink:title="examples/example&#45;server\l&#45;lib/floating_window_manager.cpp">
<polygon fill="#ffffff" stroke="#000000" points="419.5,-.5 419.5,-30.5 581.5,-30.5 581.5,-.5 419.5,-.5"/>
<text text-anchor="start" x="427.5" y="-18.5" font-family="Arial" font-size="10.00" fill="#000000">examples/example&#45;server</text>
<text text-anchor="middle" x="500.5" y="-7.5" font-family="Arial" font-size="10.00" fill="#000000">&#45;lib/floating_window_manager.cpp</text>
</a>
</g>
</g>
<!-- Node52&#45;&gt;Node54 -->
<g id="edge6" class="edge">
<title>Node52&#45;&gt;Node54</title>
<path fill="none" stroke="#191970" d="M394.8827,-63.3132C417.8261,-52.9267 445.7634,-40.2794 467.141,-30.6017"/>
<polygon fill="#191970" stroke="#191970" points="393.3806,-60.1512 385.7141,-67.4639 396.2675,-66.5282 393.3806,-60.1512"/>
</g>
</g>
</svg>
