<?xml version="1.0" encoding="UTF-8" standalone="no"?>
<!DOCTYPE svg PUBLIC "-//W3C//DTD SVG 1.1//EN"
 "http://www.w3.org/Graphics/SVG/1.1/DTD/svg11.dtd">
<!-- Generated by graphviz version 2.38.0 (20140413.2041)
 -->
<!-- Title: include/miral/miral/canonical_window_manager.h Pages: 1 -->
<svg width="734pt" height="173pt"
 viewBox="0.00 0.00 734.00 173.00" xmlns="http://www.w3.org/2000/svg" xmlns:xlink="http://www.w3.org/1999/xlink">
<g id="graph0" class="graph" transform="scale(1 1) rotate(0) translate(4 169)">
<title>include/miral/miral/canonical_window_manager.h</title>
<polygon fill="white" stroke="none" points="-4,4 -4,-169 730,-169 730,4 -4,4"/>
<!-- Node48 -->
<g id="node1" class="node"><title>Node48</title>
<polygon fill="#bfbfbf" stroke="black" points="204.5,-134.5 204.5,-164.5 352.5,-164.5 352.5,-134.5 204.5,-134.5"/>
<text text-anchor="start" x="212.5" y="-152.5" font-family="Arial" font-size="10.00">include/miral/miral</text>
<text text-anchor="middle" x="278.5" y="-141.5" font-family="Arial" font-size="10.00">/canonical_window_manager.h</text>
</g>
<!-- Node49 -->
<g id="node2" class="node"><title>Node49</title>
<g id="a_node2"><a xlink:href="kiosk__window__manager_8h.html" target="_top" xlink:title="examples/miral&#45;kiosk\l/kiosk_window_manager.h">
<polygon fill="white" stroke="black" points="132.5,-67.5 132.5,-97.5 262.5,-97.5 262.5,-67.5 132.5,-67.5"/>
<text text-anchor="start" x="140.5" y="-85.5" font-family="Arial" font-size="10.00">examples/miral&#45;kiosk</text>
<text text-anchor="middle" x="197.5" y="-74.5" font-family="Arial" font-size="10.00">/kiosk_window_manager.h</text>
</a>
</g>
</g>
<!-- Node48&#45;&gt;Node49 -->
<g id="edge1" class="edge"><title>Node48&#45;&gt;Node49</title>
<path fill="none" stroke="midnightblue" d="M252.808,-127.883C240.499,-118.005 226.073,-106.429 215.041,-97.5765"/>
<polygon fill="midnightblue" stroke="midnightblue" points="250.934,-130.867 260.924,-134.396 255.315,-125.407 250.934,-130.867"/>
</g>
<!-- Node52 -->
<g id="node5" class="node"><title>Node52</title>
<g id="a_node5"><a xlink:href="floating__window__manager_8h.html" target="_top" xlink:title="examples/miral&#45;shell\l/floating_window_manager.h">
<polygon fill="white" stroke="black" points="363.5,-67.5 363.5,-97.5 501.5,-97.5 501.5,-67.5 363.5,-67.5"/>
<text text-anchor="start" x="371.5" y="-85.5" font-family="Arial" font-size="10.00">examples/miral&#45;shell</text>
<text text-anchor="middle" x="432.5" y="-74.5" font-family="Arial" font-size="10.00">/floating_window_manager.h</text>
</a>
</g>
</g>
<!-- Node48&#45;&gt;Node52 -->
<g id="edge4" class="edge"><title>Node48&#45;&gt;Node52</title>
<path fill="none" stroke="midnightblue" d="M321.367,-130.407C345.953,-120.029 376.36,-107.195 399.15,-97.5765"/>
<polygon fill="midnightblue" stroke="midnightblue" points="319.768,-127.283 311.916,-134.396 322.49,-133.732 319.768,-127.283"/>
</g>
<!-- Node50 -->
<g id="node3" class="node"><title>Node50</title>
<g id="a_node3"><a xlink:href="kiosk__main_8cpp.html" target="_top" xlink:title="examples/miral&#45;kiosk\l/kiosk_main.cpp">
<polygon fill="white" stroke="black" points="0,-0.5 0,-30.5 109,-30.5 109,-0.5 0,-0.5"/>
<text text-anchor="start" x="8" y="-18.5" font-family="Arial" font-size="10.00">examples/miral&#45;kiosk</text>
<text text-anchor="middle" x="54.5" y="-7.5" font-family="Arial" font-size="10.00">/kiosk_main.cpp</text>
</a>
</g>
</g>
<!-- Node49&#45;&gt;Node50 -->
<g id="edge2" class="edge"><title>Node49&#45;&gt;Node50</title>
<path fill="none" stroke="midnightblue" d="M157.087,-63.1305C134.365,-52.8025 106.443,-40.1103 85.4683,-30.5765"/>
<polygon fill="midnightblue" stroke="midnightblue" points="155.919,-66.4442 166.471,-67.396 158.816,-60.0716 155.919,-66.4442"/>
</g>
<!-- Node51 -->
<g id="node4" class="node"><title>Node51</title>
<g id="a_node4"><a xlink:href="kiosk__window__manager_8cpp.html" target="_top" xlink:title="examples/miral&#45;kiosk\l/kiosk_window_manager.cpp">
<polygon fill="white" stroke="black" points="127.5,-0.5 127.5,-30.5 267.5,-30.5 267.5,-0.5 127.5,-0.5"/>
<text text-anchor="start" x="135.5" y="-18.5" font-family="Arial" font-size="10.00">examples/miral&#45;kiosk</text>
<text text-anchor="middle" x="197.5" y="-7.5" font-family="Arial" font-size="10.00">/kiosk_window_manager.cpp</text>
</a>
</g>
</g>
<!-- Node49&#45;&gt;Node51 -->
<g id="edge3" class="edge"><title>Node49&#45;&gt;Node51</title>
<path fill="none" stroke="midnightblue" d="M197.5,-57.1081C197.5,-48.1539 197.5,-38.3227 197.5,-30.5765"/>
<polygon fill="midnightblue" stroke="midnightblue" points="194,-57.3959 197.5,-67.396 201,-57.396 194,-57.3959"/>
</g>
<!-- Node53 -->
<g id="node6" class="node"><title>Node53</title>
<g id="a_node6"><a xlink:href="floating__window__manager_8cpp.html" target="_top" xlink:title="examples/miral&#45;shell\l/floating_window_manager.cpp">
<polygon fill="white" stroke="black" points="286,-0.5 286,-30.5 435,-30.5 435,-0.5 286,-0.5"/>
<text text-anchor="start" x="294" y="-18.5" font-family="Arial" font-size="10.00">examples/miral&#45;shell</text>
<text text-anchor="middle" x="360.5" y="-7.5" font-family="Arial" font-size="10.00">/floating_window_manager.cpp</text>
</a>
</g>
</g>
<!-- Node52&#45;&gt;Node53 -->
<g id="edge5" class="edge"><title>Node52&#45;&gt;Node53</title>
<path fill="none" stroke="midnightblue" d="M409.347,-60.5978C398.475,-50.7831 385.804,-39.3442 376.092,-30.5765"/>
<polygon fill="midnightblue" stroke="midnightblue" points="407.109,-63.2929 416.877,-67.396 411.8,-58.097 407.109,-63.2929"/>
</g>
<!-- Node54 -->
<g id="node7" class="node"><title>Node54</title>
<g id="a_node7"><a xlink:href="shell__main_8cpp.html" target="_top" xlink:title="examples/miral&#45;shell\l/shell_main.cpp">
<polygon fill="white" stroke="black" points="452.5,-0.5 452.5,-30.5 558.5,-30.5 558.5,-0.5 452.5,-0.5"/>
<text text-anchor="start" x="460.5" y="-18.5" font-family="Arial" font-size="10.00">examples/miral&#45;shell</text>
<text text-anchor="middle" x="505.5" y="-7.5" font-family="Arial" font-size="10.00">/shell_main.cpp</text>
</a>
</g>
</g>
<!-- Node52&#45;&gt;Node54 -->
<g id="edge6" class="edge"><title>Node52&#45;&gt;Node54</title>
<path fill="none" stroke="midnightblue" d="M455.975,-60.5978C466.997,-50.7831 479.844,-39.3442 489.691,-30.5765"/>
<polygon fill="midnightblue" stroke="midnightblue" points="453.481,-58.132 448.34,-67.396 458.136,-63.3599 453.481,-58.132"/>
</g>
<!-- Node55 -->
<g id="node8" class="node"><title>Node55</title>
<g id="a_node8"><a xlink:href="server__example_8cpp.html" target="_top" xlink:title="examples/server_example.cpp">
<polygon fill="white" stroke="black" points="577,-6 577,-25 726,-25 726,-6 577,-6"/>
<text text-anchor="middle" x="651.5" y="-13" font-family="Arial" font-size="10.00">examples/server_example.cpp</text>
</a>
</g>
</g>
<!-- Node52&#45;&gt;Node55 -->
<g id="edge7" class="edge"><title>Node52&#45;&gt;Node55</title>
<path fill="none" stroke="midnightblue" d="M489.472,-64.5904C532.243,-51.896 589.025,-35.0429 622.765,-25.0287"/>
<polygon fill="midnightblue" stroke="midnightblue" points="488.341,-61.2752 479.75,-67.476 490.333,-67.9859 488.341,-61.2752"/>
</g>
</g>
</svg>
