<?xml version="1.0" encoding="UTF-8" standalone="no"?>
<!DOCTYPE svg PUBLIC "-//W3C//DTD SVG 1.1//EN"
 "http://www.w3.org/Graphics/SVG/1.1/DTD/svg11.dtd">
<!-- Generated by graphviz version 2.40.1 (20161225.0304)
 -->
<!-- Title: miral::BasicSetApplicationAuthorizer Pages: 1 -->
<svg width="177pt" height="106pt"
 viewBox="0.00 0.00 177.00 106.00" xmlns="http://www.w3.org/2000/svg" xmlns:xlink="http://www.w3.org/1999/xlink">
<g id="graph0" class="graph" transform="scale(1 1) rotate(0) translate(4 102)">
<title>miral::BasicSetApplicationAuthorizer</title>
<polygon fill="#ffffff" stroke="transparent" points="-4,4 -4,-102 173,-102 173,4 -4,4"/>
<!-- Node0 -->
<g id="node1" class="node">
<title>Node0</title>
<polygon fill="#bfbfbf" stroke="#000000" points="12,-67.5 12,-97.5 157,-97.5 157,-67.5 12,-67.5"/>
<text text-anchor="start" x="20" y="-85.5" font-family="Arial" font-size="10.00" fill="#000000">miral::BasicSetApplication</text>
<text text-anchor="middle" x="84.5" y="-74.5" font-family="Arial" font-size="10.00" fill="#000000">Authorizer</text>
</g>
<!-- Node1 -->
<g id="node2" class="node">
<title>Node1</title>
<g id="a_node2"><a xlink:href="classmiral_1_1_set_application_authorizer.html" target="_top" xlink:title="miral::SetApplicationAuthorizer\l\&lt; Policy \&gt;">
<polygon fill="#ffffff" stroke="#000000" points="0,-.5 0,-30.5 169,-30.5 169,-.5 0,-.5"/>
<text text-anchor="start" x="8" y="-18.5" font-family="Arial" font-size="10.00" fill="#000000">miral::SetApplicationAuthorizer</text>
<text text-anchor="middle" x="84.5" y="-7.5" font-family="Arial" font-size="10.00" fill="#000000">&lt; Policy &gt;</text>
</a>
</g>
</g>
<!-- Node0&#45;&gt;Node1 -->
<g id="edge1" class="edge">
<title>Node0&#45;&gt;Node1</title>
<path fill="none" stroke="#191970" d="M84.5,-57.0249C84.5,-48.128 84.5,-38.4287 84.5,-30.6432"/>
<polygon fill="#191970" stroke="#191970" points="81.0001,-57.2966 84.5,-67.2967 88.0001,-57.2967 81.0001,-57.2966"/>
</g>
</g>
</svg>
