<?xml version="1.0" encoding="UTF-8" standalone="no"?>
<!DOCTYPE svg PUBLIC "-//W3C//DTD SVG 1.1//EN"
 "http://www.w3.org/Graphics/SVG/1.1/DTD/svg11.dtd">
<!-- Generated by graphviz version 2.40.1 (20161225.0304)
 -->
<!-- Title: miral::CanonicalWindowManagerPolicy Pages: 1 -->
<svg width="316pt" height="151pt"
 viewBox="0.00 0.00 315.50 151.00" xmlns="http://www.w3.org/2000/svg" xmlns:xlink="http://www.w3.org/1999/xlink">
<g id="graph0" class="graph" transform="scale(1 1) rotate(0) translate(4 147)">
<title>miral::CanonicalWindowManagerPolicy</title>
<polygon fill="#ffffff" stroke="transparent" points="-4,4 -4,-147 311.5,-147 311.5,4 -4,4"/>
<!-- Node0 -->
<g id="node1" class="node">
<title>Node0</title>
<polygon fill="#bfbfbf" stroke="#000000" points="76.5,-56.5 76.5,-86.5 234.5,-86.5 234.5,-56.5 76.5,-56.5"/>
<text text-anchor="start" x="84.5" y="-74.5" font-family="Arial" font-size="10.00" fill="#000000">miral::CanonicalWindowManager</text>
<text text-anchor="middle" x="155.5" y="-63.5" font-family="Arial" font-size="10.00" fill="#000000">Policy</text>
</g>
<!-- Node2 -->
<g id="node3" class="node">
<title>Node2</title>
<g id="a_node3"><a xlink:href="class_floating_window_manager_policy.html" target="_top" xlink:title="FloatingWindowManagerPolicy">
<polygon fill="#ffffff" stroke="#000000" points="0,-.5 0,-19.5 149,-19.5 149,-.5 0,-.5"/>
<text text-anchor="middle" x="74.5" y="-7.5" font-family="Arial" font-size="10.00" fill="#000000">FloatingWindowManagerPolicy</text>
</a>
</g>
</g>
<!-- Node0&#45;&gt;Node2 -->
<g id="edge2" class="edge">
<title>Node0&#45;&gt;Node2</title>
<path fill="none" stroke="#191970" d="M127.3593,-50.1339C113.797,-39.8366 98.1896,-27.9865 87.4691,-19.8469"/>
<polygon fill="#191970" stroke="#191970" points="125.3965,-53.0382 135.4775,-56.2977 129.6295,-47.463 125.3965,-53.0382"/>
</g>
<!-- Node3 -->
<g id="node4" class="node">
<title>Node3</title>
<g id="a_node4"><a xlink:href="class_kiosk_window_manager_policy.html" target="_top" xlink:title="KioskWindowManagerPolicy">
<polygon fill="#ffffff" stroke="#000000" points="167.5,-.5 167.5,-19.5 307.5,-19.5 307.5,-.5 167.5,-.5"/>
<text text-anchor="middle" x="237.5" y="-7.5" font-family="Arial" font-size="10.00" fill="#000000">KioskWindowManagerPolicy</text>
</a>
</g>
</g>
<!-- Node0&#45;&gt;Node3 -->
<g id="edge3" class="edge">
<title>Node0&#45;&gt;Node3</title>
<path fill="none" stroke="#191970" d="M183.9881,-50.1339C197.7179,-39.8366 213.518,-27.9865 224.3708,-19.8469"/>
<polygon fill="#191970" stroke="#191970" points="181.6697,-47.4977 175.7697,-56.2977 185.8697,-53.0977 181.6697,-47.4977"/>
</g>
<!-- Node1 -->
<g id="node2" class="node">
<title>Node1</title>
<g id="a_node2"><a xlink:href="classmiral_1_1_window_management_policy.html" target="_top" xlink:title="The interface through which the window management policy is determined. ">
<polygon fill="#ffffff" stroke="#000000" points="75,-123.5 75,-142.5 236,-142.5 236,-123.5 75,-123.5"/>
<text text-anchor="middle" x="155.5" y="-130.5" font-family="Arial" font-size="10.00" fill="#000000">miral::WindowManagementPolicy</text>
</a>
</g>
</g>
<!-- Node1&#45;&gt;Node0 -->
<g id="edge1" class="edge">
<title>Node1&#45;&gt;Node0</title>
<path fill="none" stroke="#191970" d="M155.5,-113.3693C155.5,-104.681 155.5,-94.6241 155.5,-86.5446"/>
<polygon fill="#191970" stroke="#191970" points="152.0001,-113.3906 155.5,-123.3906 159.0001,-113.3907 152.0001,-113.3906"/>
</g>
</g>
</svg>
