<?xml version="1.0" encoding="UTF-8" standalone="no"?>
<!DOCTYPE svg PUBLIC "-//W3C//DTD SVG 1.1//EN"
 "http://www.w3.org/Graphics/SVG/1.1/DTD/svg11.dtd">
<!-- Generated by graphviz version 2.38.0 (20140413.2041)
 -->
<!-- Title: include/client/mir/client/event.h Pages: 1 -->
<svg width="1678pt" height="307pt"
 viewBox="0.00 0.00 1677.50 307.00" xmlns="http://www.w3.org/2000/svg" xmlns:xlink="http://www.w3.org/1999/xlink">
<g id="graph0" class="graph" transform="scale(1 1) rotate(0) translate(4 303)">
<title>include/client/mir/client/event.h</title>
<polygon fill="white" stroke="none" points="-4,4 -4,-303 1673.5,-303 1673.5,4 -4,4"/>
<!-- Node0 -->
<g id="node1" class="node"><title>Node0</title>
<polygon fill="#bfbfbf" stroke="black" points="853.5,-268.5 853.5,-298.5 943.5,-298.5 943.5,-268.5 853.5,-268.5"/>
<text text-anchor="start" x="861.5" y="-286.5" font-family="Arial" font-size="10.00">include/client/mir</text>
<text text-anchor="middle" x="898.5" y="-275.5" font-family="Arial" font-size="10.00">/client/event.h</text>
</g>
<!-- Node1 -->
<g id="node2" class="node"><title>Node1</title>
<g id="a_node2"><a xlink:href="toolkit_2events_2event_8h.html" target="_top" xlink:title="mir_toolkit/events\l/event.h">
<polygon fill="white" stroke="black" points="807.5,-201.5 807.5,-231.5 899.5,-231.5 899.5,-201.5 807.5,-201.5"/>
<text text-anchor="start" x="815.5" y="-219.5" font-family="Arial" font-size="10.00">mir_toolkit/events</text>
<text text-anchor="middle" x="853.5" y="-208.5" font-family="Arial" font-size="10.00">/event.h</text>
</a>
</g>
</g>
<!-- Node0&#45;&gt;Node1 -->
<g id="edge1" class="edge"><title>Node0&#45;&gt;Node1</title>
<path fill="none" stroke="midnightblue" d="M888.736,-268.396C882.957,-260.049 875.506,-249.287 868.946,-239.811"/>
<polygon fill="midnightblue" stroke="midnightblue" points="871.815,-237.806 863.245,-231.577 866.06,-241.791 871.815,-237.806"/>
</g>
<!-- Node23 -->
<g id="node24" class="node"><title>Node23</title>
<polygon fill="white" stroke="#bfbfbf" points="917.5,-207 917.5,-226 969.5,-226 969.5,-207 917.5,-207"/>
<text text-anchor="middle" x="943.5" y="-214" font-family="Arial" font-size="10.00">memory</text>
</g>
<!-- Node0&#45;&gt;Node23 -->
<g id="edge42" class="edge"><title>Node0&#45;&gt;Node23</title>
<path fill="none" stroke="midnightblue" d="M908.264,-268.396C915.142,-258.462 924.387,-245.108 931.681,-234.572"/>
<polygon fill="midnightblue" stroke="midnightblue" points="934.666,-236.409 937.481,-226.195 928.911,-232.424 934.666,-236.409"/>
</g>
<!-- Node2 -->
<g id="node3" class="node"><title>Node2</title>
<polygon fill="white" stroke="#bfbfbf" points="0,-134.5 0,-153.5 51,-153.5 51,-134.5 0,-134.5"/>
<text text-anchor="middle" x="25.5" y="-141.5" font-family="Arial" font-size="10.00">stddef.h</text>
</g>
<!-- Node1&#45;&gt;Node2 -->
<g id="edge2" class="edge"><title>Node1&#45;&gt;Node2</title>
<path fill="none" stroke="midnightblue" d="M807.495,-214.946C661.017,-212.806 206.859,-203.184 65.5,-165 59.7847,-163.456 53.9254,-161.058 48.5149,-158.451"/>
<polygon fill="midnightblue" stroke="midnightblue" points="49.8714,-155.21 39.3888,-153.672 46.6244,-161.412 49.8714,-155.21"/>
</g>
<!-- Node3 -->
<g id="node4" class="node"><title>Node3</title>
<polygon fill="white" stroke="#bfbfbf" points="93,-0.5 93,-19.5 142,-19.5 142,-0.5 93,-0.5"/>
<text text-anchor="middle" x="117.5" y="-7.5" font-family="Arial" font-size="10.00">stdint.h</text>
</g>
<!-- Node1&#45;&gt;Node3 -->
<g id="edge3" class="edge"><title>Node1&#45;&gt;Node3</title>
<path fill="none" stroke="midnightblue" d="M807.348,-214.242C663.965,-210.033 232.531,-194.984 177.5,-165 139.331,-144.203 132.601,-128.116 118.5,-87 112.093,-68.318 112.836,-45.5026 114.558,-29.7729"/>
<polygon fill="midnightblue" stroke="midnightblue" points="118.045,-30.107 115.898,-19.732 111.106,-29.1816 118.045,-30.107"/>
</g>
<!-- Node4 -->
<g id="node5" class="node"><title>Node4</title>
<g id="a_node5"><a xlink:href="common_8h.html" target="_top" xlink:title="mir_toolkit/common.h">
<polygon fill="white" stroke="black" points="306.5,-134.5 306.5,-153.5 416.5,-153.5 416.5,-134.5 306.5,-134.5"/>
<text text-anchor="middle" x="361.5" y="-141.5" font-family="Arial" font-size="10.00">mir_toolkit/common.h</text>
</a>
</g>
</g>
<!-- Node1&#45;&gt;Node4 -->
<g id="edge4" class="edge"><title>Node1&#45;&gt;Node4</title>
<path fill="none" stroke="midnightblue" d="M807.414,-212.474C729.267,-206.792 566.033,-192.541 430.5,-165 419.478,-162.76 407.659,-159.617 396.972,-156.484"/>
<polygon fill="midnightblue" stroke="midnightblue" points="397.721,-153.054 387.136,-153.514 395.697,-159.755 397.721,-153.054"/>
</g>
<!-- Node5 -->
<g id="node6" class="node"><title>Node5</title>
<g id="a_node6"><a xlink:href="deprecations_8h.html" target="_top" xlink:title="mir_toolkit/deprecations.h">
<polygon fill="white" stroke="black" points="692.5,-62 692.5,-81 820.5,-81 820.5,-62 692.5,-62"/>
<text text-anchor="middle" x="756.5" y="-69" font-family="Arial" font-size="10.00">mir_toolkit/deprecations.h</text>
</a>
</g>
</g>
<!-- Node1&#45;&gt;Node5 -->
<g id="edge6" class="edge"><title>Node1&#45;&gt;Node5</title>
<path fill="none" stroke="midnightblue" d="M807.441,-212.899C709.148,-206.877 485.923,-190.513 463.5,-165 404.483,-97.8482 525.847,-115.216 682.5,-87 689.586,-85.7236 697.043,-84.3264 704.385,-82.9191"/>
<polygon fill="midnightblue" stroke="midnightblue" points="705.126,-86.3408 714.279,-81.0044 703.796,-79.4683 705.126,-86.3408"/>
</g>
<!-- Node6 -->
<g id="node7" class="node"><title>Node6</title>
<g id="a_node7"><a xlink:href="input__event_8h.html" target="_top" xlink:title="mir_toolkit/events\l/input/input_event.h">
<polygon fill="white" stroke="black" points="187,-129 187,-159 288,-159 288,-129 187,-129"/>
<text text-anchor="start" x="195" y="-147" font-family="Arial" font-size="10.00">mir_toolkit/events</text>
<text text-anchor="middle" x="237.5" y="-136" font-family="Arial" font-size="10.00">/input/input_event.h</text>
</a>
</g>
</g>
<!-- Node1&#45;&gt;Node6 -->
<g id="edge7" class="edge"><title>Node1&#45;&gt;Node6</title>
<path fill="none" stroke="midnightblue" d="M807.489,-214.997C710.287,-213.163 478.008,-204.633 288.5,-165 284.389,-164.14 280.167,-163.091 275.989,-161.928"/>
<polygon fill="midnightblue" stroke="midnightblue" points="276.977,-158.57 266.393,-159.043 274.962,-165.274 276.977,-158.57"/>
</g>
<!-- Node13 -->
<g id="node14" class="node"><title>Node13</title>
<g id="a_node14"><a xlink:href="resize__event_8h.html" target="_top" xlink:title="mir_toolkit/events\l/resize_event.h">
<polygon fill="white" stroke="black" points="472.5,-129 472.5,-159 564.5,-159 564.5,-129 472.5,-129"/>
<text text-anchor="start" x="480.5" y="-147" font-family="Arial" font-size="10.00">mir_toolkit/events</text>
<text text-anchor="middle" x="518.5" y="-136" font-family="Arial" font-size="10.00">/resize_event.h</text>
</a>
</g>
</g>
<!-- Node1&#45;&gt;Node13 -->
<g id="edge18" class="edge"><title>Node1&#45;&gt;Node13</title>
<path fill="none" stroke="midnightblue" d="M807.073,-210.424C749.302,-203.027 648.433,-187.652 564.5,-165 561.361,-164.153 558.147,-163.205 554.944,-162.195"/>
<polygon fill="midnightblue" stroke="midnightblue" points="556.047,-158.873 545.453,-159.016 553.823,-165.511 556.047,-158.873"/>
</g>
<!-- Node14 -->
<g id="node15" class="node"><title>Node14</title>
<g id="a_node15"><a xlink:href="surface__event_8h.html" target="_top" xlink:title="mir_toolkit/events\l/surface_event.h">
<polygon fill="white" stroke="black" points="582.5,-129 582.5,-159 674.5,-159 674.5,-129 582.5,-129"/>
<text text-anchor="start" x="590.5" y="-147" font-family="Arial" font-size="10.00">mir_toolkit/events</text>
<text text-anchor="middle" x="628.5" y="-136" font-family="Arial" font-size="10.00">/surface_event.h</text>
</a>
</g>
</g>
<!-- Node1&#45;&gt;Node14 -->
<g id="edge20" class="edge"><title>Node1&#45;&gt;Node14</title>
<path fill="none" stroke="midnightblue" d="M807.373,-204.627C770.88,-194.819 719.087,-179.715 674.5,-165 672.052,-164.192 669.548,-163.348 667.034,-162.482"/>
<polygon fill="midnightblue" stroke="midnightblue" points="667.966,-159.1 657.371,-159.071 665.636,-165.7 667.966,-159.1"/>
</g>
<!-- Node15 -->
<g id="node16" class="node"><title>Node15</title>
<g id="a_node16"><a xlink:href="window__event_8h.html" target="_top" xlink:title="mir_toolkit/events\l/window_event.h">
<polygon fill="white" stroke="black" points="692.5,-129 692.5,-159 784.5,-159 784.5,-129 692.5,-129"/>
<text text-anchor="start" x="700.5" y="-147" font-family="Arial" font-size="10.00">mir_toolkit/events</text>
<text text-anchor="middle" x="738.5" y="-136" font-family="Arial" font-size="10.00">/window_event.h</text>
</a>
</g>
</g>
<!-- Node1&#45;&gt;Node15 -->
<g id="edge23" class="edge"><title>Node1&#45;&gt;Node15</title>
<path fill="none" stroke="midnightblue" d="M824.978,-201.403C806.508,-190.932 782.776,-176.51 764.769,-164.87"/>
<polygon fill="midnightblue" stroke="midnightblue" points="766.214,-161.632 755.933,-159.073 762.374,-167.485 766.214,-161.632"/>
</g>
<!-- Node16 -->
<g id="node17" class="node"><title>Node16</title>
<g id="a_node17"><a xlink:href="orientation__event_8h.html" target="_top" xlink:title="mir_toolkit/events\l/orientation_event.h">
<polygon fill="white" stroke="black" points="803,-129 803,-159 904,-159 904,-129 803,-129"/>
<text text-anchor="start" x="811" y="-147" font-family="Arial" font-size="10.00">mir_toolkit/events</text>
<text text-anchor="middle" x="853.5" y="-136" font-family="Arial" font-size="10.00">/orientation_event.h</text>
</a>
</g>
</g>
<!-- Node1&#45;&gt;Node16 -->
<g id="edge25" class="edge"><title>Node1&#45;&gt;Node16</title>
<path fill="none" stroke="midnightblue" d="M847.951,-201.233C846.749,-192.06 846.449,-179.905 847.051,-169.244"/>
<polygon fill="midnightblue" stroke="midnightblue" points="850.541,-169.52 847.954,-159.246 843.569,-168.89 850.541,-169.52"/>
</g>
<!-- Node17 -->
<g id="node18" class="node"><title>Node17</title>
<g id="a_node18"><a xlink:href="prompt__session__event_8h.html" target="_top" xlink:title="mir_toolkit/events\l/prompt_session_event.h">
<polygon fill="white" stroke="black" points="922,-129 922,-159 1047,-159 1047,-129 922,-129"/>
<text text-anchor="start" x="930" y="-147" font-family="Arial" font-size="10.00">mir_toolkit/events</text>
<text text-anchor="middle" x="984.5" y="-136" font-family="Arial" font-size="10.00">/prompt_session_event.h</text>
</a>
</g>
</g>
<!-- Node1&#45;&gt;Node17 -->
<g id="edge27" class="edge"><title>Node1&#45;&gt;Node17</title>
<path fill="none" stroke="midnightblue" d="M874.169,-201.403C892.898,-190.548 920.791,-175.446 943.907,-163.6"/>
<polygon fill="midnightblue" stroke="midnightblue" points="945.494,-166.72 952.827,-159.073 942.326,-160.478 945.494,-166.72"/>
</g>
<!-- Node18 -->
<g id="node19" class="node"><title>Node18</title>
<g id="a_node19"><a xlink:href="keymap__event_8h.html" target="_top" xlink:title="mir_toolkit/events\l/keymap_event.h">
<polygon fill="white" stroke="black" points="1321.5,-129 1321.5,-159 1413.5,-159 1413.5,-129 1321.5,-129"/>
<text text-anchor="start" x="1329.5" y="-147" font-family="Arial" font-size="10.00">mir_toolkit/events</text>
<text text-anchor="middle" x="1367.5" y="-136" font-family="Arial" font-size="10.00">/keymap_event.h</text>
</a>
</g>
</g>
<!-- Node1&#45;&gt;Node18 -->
<g id="edge29" class="edge"><title>Node1&#45;&gt;Node18</title>
<path fill="none" stroke="midnightblue" d="M896.856,-201.481C897.743,-201.314 898.625,-201.153 899.5,-201 1077.07,-169.912 1127.53,-204.132 1303.5,-165 1307.08,-164.203 1310.75,-163.233 1314.43,-162.154"/>
<polygon fill="midnightblue" stroke="midnightblue" points="1315.67,-165.432 1324.16,-159.09 1313.57,-158.756 1315.67,-165.432"/>
</g>
<!-- Node19 -->
<g id="node20" class="node"><title>Node19</title>
<g id="a_node20"><a xlink:href="input__configuration__event_8h.html" target="_top" xlink:title="mir_toolkit/events\l/input_configuration\l_event.h">
<polygon fill="white" stroke="black" points="1065,-123.5 1065,-164.5 1166,-164.5 1166,-123.5 1065,-123.5"/>
<text text-anchor="start" x="1073" y="-152.5" font-family="Arial" font-size="10.00">mir_toolkit/events</text>
<text text-anchor="start" x="1073" y="-141.5" font-family="Arial" font-size="10.00">/input_configuration</text>
<text text-anchor="middle" x="1115.5" y="-130.5" font-family="Arial" font-size="10.00">_event.h</text>
</a>
</g>
</g>
<!-- Node1&#45;&gt;Node19 -->
<g id="edge32" class="edge"><title>Node1&#45;&gt;Node19</title>
<path fill="none" stroke="midnightblue" d="M897.768,-201.44C898.348,-201.292 898.926,-201.146 899.5,-201 965.121,-184.371 982.492,-183.885 1047.5,-165 1050.04,-164.262 1052.64,-163.482 1055.26,-162.675"/>
<polygon fill="midnightblue" stroke="midnightblue" points="1056.34,-166.004 1064.83,-159.662 1054.24,-159.327 1056.34,-166.004"/>
</g>
<!-- Node20 -->
<g id="node21" class="node"><title>Node20</title>
<g id="a_node21"><a xlink:href="surface__output__event_8h.html" target="_top" xlink:title="mir_toolkit/events\l/surface_output_event.h">
<polygon fill="white" stroke="black" points="1184,-129 1184,-159 1303,-159 1303,-129 1184,-129"/>
<text text-anchor="start" x="1192" y="-147" font-family="Arial" font-size="10.00">mir_toolkit/events</text>
<text text-anchor="middle" x="1243.5" y="-136" font-family="Arial" font-size="10.00">/surface_output_event.h</text>
</a>
</g>
</g>
<!-- Node1&#45;&gt;Node20 -->
<g id="edge35" class="edge"><title>Node1&#45;&gt;Node20</title>
<path fill="none" stroke="midnightblue" d="M897.161,-201.475C897.945,-201.312 898.725,-201.154 899.5,-201 1016.95,-177.693 1049.39,-189.965 1166.5,-165 1171.14,-164.01 1175.93,-162.864 1180.75,-161.631"/>
<polygon fill="midnightblue" stroke="midnightblue" points="1181.87,-164.955 1190.64,-159.002 1180.07,-158.19 1181.87,-164.955"/>
</g>
<!-- Node21 -->
<g id="node22" class="node"><title>Node21</title>
<g id="a_node22"><a xlink:href="window__output__event_8h.html" target="_top" xlink:title="mir_toolkit/events\l/window_output_event.h">
<polygon fill="white" stroke="black" points="1432,-129 1432,-159 1551,-159 1551,-129 1432,-129"/>
<text text-anchor="start" x="1440" y="-147" font-family="Arial" font-size="10.00">mir_toolkit/events</text>
<text text-anchor="middle" x="1491.5" y="-136" font-family="Arial" font-size="10.00">/window_output_event.h</text>
</a>
</g>
</g>
<!-- Node1&#45;&gt;Node21 -->
<g id="edge38" class="edge"><title>Node1&#45;&gt;Node21</title>
<path fill="none" stroke="midnightblue" d="M896.852,-201.457C897.74,-201.298 898.623,-201.145 899.5,-201 1125.44,-163.646 1188.03,-205.102 1413.5,-165 1418.8,-164.058 1424.27,-162.866 1429.74,-161.535"/>
<polygon fill="midnightblue" stroke="midnightblue" points="1430.76,-164.887 1439.58,-159.012 1429.02,-158.107 1430.76,-164.887"/>
</g>
<!-- Node22 -->
<g id="node23" class="node"><title>Node22</title>
<g id="a_node23"><a xlink:href="input__device__state__event_8h.html" target="_top" xlink:title="mir_toolkit/events\l/input_device_state\l_event.h">
<polygon fill="white" stroke="black" points="1569.5,-123.5 1569.5,-164.5 1669.5,-164.5 1669.5,-123.5 1569.5,-123.5"/>
<text text-anchor="start" x="1577.5" y="-152.5" font-family="Arial" font-size="10.00">mir_toolkit/events</text>
<text text-anchor="start" x="1577.5" y="-141.5" font-family="Arial" font-size="10.00">/input_device_state</text>
<text text-anchor="middle" x="1619.5" y="-130.5" font-family="Arial" font-size="10.00">_event.h</text>
</a>
</g>
</g>
<!-- Node1&#45;&gt;Node22 -->
<g id="edge40" class="edge"><title>Node1&#45;&gt;Node22</title>
<path fill="none" stroke="midnightblue" d="M896.553,-201.491C897.541,-201.318 898.525,-201.154 899.5,-201 1186.17,-155.776 1266.56,-220.093 1551.5,-165 1554.15,-164.488 1556.84,-163.887 1559.55,-163.218"/>
<polygon fill="midnightblue" stroke="midnightblue" points="1560.66,-166.542 1569.39,-160.539 1558.82,-159.787 1560.66,-166.542"/>
</g>
<!-- Node4&#45;&gt;Node5 -->
<g id="edge5" class="edge"><title>Node4&#45;&gt;Node5</title>
<path fill="none" stroke="midnightblue" d="M387.819,-134.43C400.596,-130.512 416.234,-126.071 430.5,-123 541.104,-99.193 570.95,-105.884 682.5,-87 689.86,-85.7541 697.611,-84.344 705.216,-82.9045"/>
<polygon fill="midnightblue" stroke="midnightblue" points="705.924,-86.3326 715.083,-81.0067 704.601,-79.4586 705.924,-86.3326"/>
</g>
<!-- Node6&#45;&gt;Node1 -->
<g id="edge8" class="edge"><title>Node6&#45;&gt;Node1</title>
<path fill="none" stroke="midnightblue" d="M284.056,-159.043C291.532,-161.344 299.192,-163.472 306.5,-165 483.346,-201.985 697.438,-211.884 797.3,-214.533"/>
<polygon fill="midnightblue" stroke="midnightblue" points="797.382,-218.036 807.467,-214.788 797.557,-211.038 797.382,-218.036"/>
</g>
<!-- Node6&#45;&gt;Node3 -->
<g id="edge11" class="edge"><title>Node6&#45;&gt;Node3</title>
<path fill="none" stroke="midnightblue" d="M195.695,-128.98C175.032,-120.03 151.396,-106.402 136.5,-87 123.849,-70.5215 119.531,-46.6498 118.105,-30.0744"/>
<polygon fill="midnightblue" stroke="midnightblue" points="121.591,-29.7242 117.514,-19.9453 114.603,-30.1323 121.591,-29.7242"/>
</g>
<!-- Node7 -->
<g id="node8" class="node"><title>Node7</title>
<g id="a_node8"><a xlink:href="mir__input__device__types_8h.html" target="_top" xlink:title="mir_toolkit/mir_input\l_device_types.h">
<polygon fill="white" stroke="black" points="145.5,-56.5 145.5,-86.5 249.5,-86.5 249.5,-56.5 145.5,-56.5"/>
<text text-anchor="start" x="153.5" y="-74.5" font-family="Arial" font-size="10.00">mir_toolkit/mir_input</text>
<text text-anchor="middle" x="197.5" y="-63.5" font-family="Arial" font-size="10.00">_device_types.h</text>
</a>
</g>
</g>
<!-- Node6&#45;&gt;Node7 -->
<g id="edge9" class="edge"><title>Node6&#45;&gt;Node7</title>
<path fill="none" stroke="midnightblue" d="M229.405,-128.733C224.038,-119.273 216.872,-106.643 210.691,-95.7486"/>
<polygon fill="midnightblue" stroke="midnightblue" points="213.562,-93.7159 205.583,-86.7455 207.473,-97.1703 213.562,-93.7159"/>
</g>
<!-- Node8 -->
<g id="node9" class="node"><title>Node8</title>
<polygon fill="white" stroke="#bfbfbf" points="351.5,-0.5 351.5,-19.5 407.5,-19.5 407.5,-0.5 351.5,-0.5"/>
<text text-anchor="middle" x="379.5" y="-7.5" font-family="Arial" font-size="10.00">stdbool.h</text>
</g>
<!-- Node6&#45;&gt;Node8 -->
<g id="edge12" class="edge"><title>Node6&#45;&gt;Node8</title>
<path fill="none" stroke="midnightblue" d="M244.372,-128.82C253.948,-110.221 272.826,-77.4367 296.5,-56 311.532,-42.3884 331.42,-31.4231 347.96,-23.7254"/>
<polygon fill="midnightblue" stroke="midnightblue" points="349.546,-26.85 357.249,-19.5754 346.691,-20.4588 349.546,-26.85"/>
</g>
<!-- Node9 -->
<g id="node10" class="node"><title>Node9</title>
<g id="a_node10"><a xlink:href="touch__event_8h.html" target="_top" xlink:title="mir_toolkit/events\l/input/touch_event.h">
<polygon fill="white" stroke="black" points="305.5,-56.5 305.5,-86.5 409.5,-86.5 409.5,-56.5 305.5,-56.5"/>
<text text-anchor="start" x="313.5" y="-74.5" font-family="Arial" font-size="10.00">mir_toolkit/events</text>
<text text-anchor="middle" x="357.5" y="-63.5" font-family="Arial" font-size="10.00">/input/touch_event.h</text>
</a>
</g>
</g>
<!-- Node6&#45;&gt;Node9 -->
<g id="edge13" class="edge"><title>Node6&#45;&gt;Node9</title>
<path fill="none" stroke="midnightblue" d="M261.495,-128.903C279.645,-118.24 304.77,-103.479 324.764,-91.7323"/>
<polygon fill="midnightblue" stroke="midnightblue" points="326.697,-94.6561 333.546,-86.5729 323.151,-88.6206 326.697,-94.6561"/>
</g>
<!-- Node10 -->
<g id="node11" class="node"><title>Node10</title>
<g id="a_node11"><a xlink:href="keyboard__event_8h.html" target="_top" xlink:title="mir_toolkit/events\l/input/keyboard_event.h">
<polygon fill="white" stroke="black" points="555,-56.5 555,-86.5 674,-86.5 674,-56.5 555,-56.5"/>
<text text-anchor="start" x="563" y="-74.5" font-family="Arial" font-size="10.00">mir_toolkit/events</text>
<text text-anchor="middle" x="614.5" y="-63.5" font-family="Arial" font-size="10.00">/input/keyboard_event.h</text>
</a>
</g>
</g>
<!-- Node6&#45;&gt;Node10 -->
<g id="edge14" class="edge"><title>Node6&#45;&gt;Node10</title>
<path fill="none" stroke="midnightblue" d="M276.263,-128.965C283.27,-126.748 290.556,-124.648 297.5,-123 402.8,-98.0165 434.076,-105.971 544.816,-87.0319"/>
<polygon fill="midnightblue" stroke="midnightblue" points="545.456,-90.4732 554.706,-85.306 544.253,-83.5775 545.456,-90.4732"/>
</g>
<!-- Node12 -->
<g id="node13" class="node"><title>Node12</title>
<g id="a_node13"><a xlink:href="pointer__event_8h.html" target="_top" xlink:title="mir_toolkit/events\l/input/pointer_event.h">
<polygon fill="white" stroke="black" points="428,-56.5 428,-86.5 537,-86.5 537,-56.5 428,-56.5"/>
<text text-anchor="start" x="436" y="-74.5" font-family="Arial" font-size="10.00">mir_toolkit/events</text>
<text text-anchor="middle" x="482.5" y="-63.5" font-family="Arial" font-size="10.00">/input/pointer_event.h</text>
</a>
</g>
</g>
<!-- Node6&#45;&gt;Node12 -->
<g id="edge16" class="edge"><title>Node6&#45;&gt;Node12</title>
<path fill="none" stroke="midnightblue" d="M278.718,-128.928C284.992,-126.882 291.405,-124.846 297.5,-123 337.402,-110.914 382.534,-98.5681 418.231,-89.1088"/>
<polygon fill="midnightblue" stroke="midnightblue" points="419.262,-92.4566 428.037,-86.5199 417.475,-85.6885 419.262,-92.4566"/>
</g>
<!-- Node7&#45;&gt;Node3 -->
<g id="edge10" class="edge"><title>Node7&#45;&gt;Node3</title>
<path fill="none" stroke="midnightblue" d="M178.541,-56.3993C166.077,-47.1293 149.803,-35.0254 137.193,-25.6469"/>
<polygon fill="midnightblue" stroke="midnightblue" points="139.253,-22.8173 129.141,-19.6578 135.076,-28.4341 139.253,-22.8173"/>
</g>
<!-- Node11 -->
<g id="node12" class="node"><title>Node11</title>
<polygon fill="white" stroke="#bfbfbf" points="783.5,-0.5 783.5,-19.5 917.5,-19.5 917.5,-0.5 783.5,-0.5"/>
<text text-anchor="middle" x="850.5" y="-7.5" font-family="Arial" font-size="10.00">xkbcommon/xkbcommon.h</text>
</g>
<!-- Node10&#45;&gt;Node11 -->
<g id="edge15" class="edge"><title>Node10&#45;&gt;Node11</title>
<path fill="none" stroke="midnightblue" d="M670.13,-56.4747C711.911,-45.9408 768.333,-31.7158 806.879,-21.9978"/>
<polygon fill="midnightblue" stroke="midnightblue" points="807.92,-25.3449 816.76,-19.5064 806.208,-18.5573 807.92,-25.3449"/>
</g>
<!-- Node12&#45;&gt;Node8 -->
<g id="edge17" class="edge"><title>Node12&#45;&gt;Node8</title>
<path fill="none" stroke="midnightblue" d="M458.09,-56.3993C441.58,-46.8619 419.877,-34.3248 403.462,-24.8422"/>
<polygon fill="midnightblue" stroke="midnightblue" points="404.897,-21.6292 394.487,-19.6578 401.396,-27.6906 404.897,-21.6292"/>
</g>
<!-- Node13&#45;&gt;Node1 -->
<g id="edge19" class="edge"><title>Node13&#45;&gt;Node1</title>
<path fill="none" stroke="midnightblue" d="M563.172,-159.016C569.646,-161.208 576.222,-163.306 582.5,-165 655.903,-184.81 742.259,-199.055 797.501,-207.265"/>
<polygon fill="midnightblue" stroke="midnightblue" points="797.041,-210.734 807.444,-208.727 798.06,-203.809 797.041,-210.734"/>
</g>
<!-- Node14&#45;&gt;Node1 -->
<g id="edge21" class="edge"><title>Node14&#45;&gt;Node1</title>
<path fill="none" stroke="midnightblue" d="M674.556,-158.859C680.614,-160.976 686.711,-163.089 692.5,-165 728.644,-176.928 769.522,-189.112 801.121,-198.523"/>
<polygon fill="midnightblue" stroke="midnightblue" points="800.453,-201.976 811.036,-201.478 802.452,-195.268 800.453,-201.976"/>
</g>
<!-- Node14&#45;&gt;Node5 -->
<g id="edge22" class="edge"><title>Node14&#45;&gt;Node5</title>
<path fill="none" stroke="midnightblue" d="M654.095,-128.903C676.821,-116.386 709.799,-98.222 732.143,-85.9156"/>
<polygon fill="midnightblue" stroke="midnightblue" points="733.936,-88.9238 741.006,-81.0336 730.559,-82.7923 733.936,-88.9238"/>
</g>
<!-- Node15&#45;&gt;Node1 -->
<g id="edge24" class="edge"><title>Node15&#45;&gt;Node1</title>
<path fill="none" stroke="midnightblue" d="M766.979,-159.073C785.441,-169.538 809.173,-183.959 827.189,-195.603"/>
<polygon fill="midnightblue" stroke="midnightblue" points="825.749,-198.844 836.031,-201.403 829.589,-192.991 825.749,-198.844"/>
</g>
<!-- Node16&#45;&gt;Node1 -->
<g id="edge26" class="edge"><title>Node16&#45;&gt;Node1</title>
<path fill="none" stroke="midnightblue" d="M859.046,-159.246C860.249,-168.414 860.551,-180.568 859.95,-191.232"/>
<polygon fill="midnightblue" stroke="midnightblue" points="856.46,-190.959 859.049,-201.233 863.432,-191.588 856.46,-190.959"/>
</g>
<!-- Node17&#45;&gt;Node1 -->
<g id="edge28" class="edge"><title>Node17&#45;&gt;Node1</title>
<path fill="none" stroke="midnightblue" d="M963.873,-159.073C945.158,-169.922 917.268,-185.023 894.145,-196.873"/>
<polygon fill="midnightblue" stroke="midnightblue" points="892.554,-193.755 885.221,-201.403 895.722,-199.997 892.554,-193.755"/>
</g>
<!-- Node18&#45;&gt;Node1 -->
<g id="edge30" class="edge"><title>Node18&#45;&gt;Node1</title>
<path fill="none" stroke="midnightblue" d="M1341.82,-159.09C1335.29,-161.386 1328.24,-163.5 1321.5,-165 1145.53,-204.132 1095.07,-169.912 917.5,-201 914.9,-201.455 912.242,-201.974 909.559,-202.537"/>
<polygon fill="midnightblue" stroke="midnightblue" points="908.763,-199.128 899.777,-204.741 910.302,-205.957 908.763,-199.128"/>
</g>
<!-- Node18&#45;&gt;Node11 -->
<g id="edge31" class="edge"><title>Node18&#45;&gt;Node11</title>
<path fill="none" stroke="midnightblue" d="M1330.71,-128.985C1324.66,-126.865 1318.43,-124.792 1312.5,-123 1165.59,-78.6321 988.36,-39.6292 902.357,-21.6045"/>
<polygon fill="midnightblue" stroke="midnightblue" points="902.833,-18.1286 892.329,-19.5114 901.403,-24.9809 902.833,-18.1286"/>
</g>
<!-- Node19&#45;&gt;Node1 -->
<g id="edge33" class="edge"><title>Node19&#45;&gt;Node1</title>
<path fill="none" stroke="midnightblue" d="M1067.06,-164.542C1066.54,-164.697 1066.02,-164.849 1065.5,-165 1000.49,-183.885 983.121,-184.371 917.5,-201 914.898,-201.66 912.228,-202.342 909.523,-203.036"/>
<polygon fill="midnightblue" stroke="midnightblue" points="908.452,-199.698 899.637,-205.576 910.193,-206.478 908.452,-199.698"/>
</g>
<!-- Node19&#45;&gt;Node5 -->
<g id="edge34" class="edge"><title>Node19&#45;&gt;Node5</title>
<path fill="none" stroke="midnightblue" d="M1064.81,-125.241C1062.01,-124.441 1059.23,-123.687 1056.5,-123 980.453,-103.841 891.697,-89.918 830.559,-81.6024"/>
<polygon fill="midnightblue" stroke="midnightblue" points="830.989,-78.1289 820.612,-80.2659 830.057,-85.0665 830.989,-78.1289"/>
</g>
<!-- Node20&#45;&gt;Node1 -->
<g id="edge36" class="edge"><title>Node20&#45;&gt;Node1</title>
<path fill="none" stroke="midnightblue" d="M1208.34,-159.002C1200.56,-161.222 1192.32,-163.332 1184.5,-165 1067.39,-189.965 1034.95,-177.693 917.5,-201 914.867,-201.523 912.172,-202.098 909.449,-202.708"/>
<polygon fill="midnightblue" stroke="midnightblue" points="908.45,-199.348 899.517,-205.044 910.052,-206.162 908.45,-199.348"/>
</g>
<!-- Node20&#45;&gt;Node5 -->
<g id="edge37" class="edge"><title>Node20&#45;&gt;Node5</title>
<path fill="none" stroke="midnightblue" d="M1199.51,-128.906C1191.57,-126.696 1183.33,-124.613 1175.5,-123 1056.02,-98.4077 914.741,-84.4439 830.542,-77.6851"/>
<polygon fill="midnightblue" stroke="midnightblue" points="830.807,-74.1953 820.563,-76.8964 830.256,-81.1735 830.807,-74.1953"/>
</g>
<!-- Node21&#45;&gt;Node1 -->
<g id="edge39" class="edge"><title>Node21&#45;&gt;Node1</title>
<path fill="none" stroke="midnightblue" d="M1457.22,-159.012C1448.89,-161.345 1439.97,-163.493 1431.5,-165 1206.03,-205.102 1143.44,-163.646 917.5,-201 914.895,-201.431 912.235,-201.929 909.548,-202.478"/>
<polygon fill="midnightblue" stroke="midnightblue" points="908.768,-199.066 899.761,-204.644 910.281,-205.9 908.768,-199.066"/>
</g>
<!-- Node22&#45;&gt;Node1 -->
<g id="edge41" class="edge"><title>Node22&#45;&gt;Node1</title>
<path fill="none" stroke="midnightblue" d="M1571.74,-164.548C1570.99,-164.705 1570.24,-164.856 1569.5,-165 1284.56,-220.093 1204.17,-155.776 917.5,-201 914.892,-201.411 912.229,-201.895 909.541,-202.431"/>
<polygon fill="midnightblue" stroke="midnightblue" points="908.772,-199.017 899.748,-204.568 910.265,-205.856 908.772,-199.017"/>
</g>
</g>
</svg>
