<?xml version="1.0" encoding="UTF-8" standalone="no"?>
<!DOCTYPE svg PUBLIC "-//W3C//DTD SVG 1.1//EN"
 "http://www.w3.org/Graphics/SVG/1.1/DTD/svg11.dtd">
<!-- Generated by graphviz version 2.40.1 (20161225.0304)
 -->
<!-- Title: include/client/mir/client/window.h Pages: 1 -->
<svg width="132pt" height="106pt"
 viewBox="0.00 0.00 132.00 106.00" xmlns="http://www.w3.org/2000/svg" xmlns:xlink="http://www.w3.org/1999/xlink">
<g id="graph0" class="graph" transform="scale(1 1) rotate(0) translate(4 102)">
<title>include/client/mir/client/window.h</title>
<polygon fill="#ffffff" stroke="transparent" points="-4,4 -4,-102 128,-102 128,4 -4,4"/>
<!-- Node28 -->
<g id="node1" class="node">
<title>Node28</title>
<polygon fill="#bfbfbf" stroke="#000000" points="11.5,-67.5 11.5,-97.5 112.5,-97.5 112.5,-67.5 11.5,-67.5"/>
<text text-anchor="start" x="19.5" y="-85.5" font-family="Arial" font-size="10.00" fill="#000000">include/client/mir</text>
<text text-anchor="middle" x="62" y="-74.5" font-family="Arial" font-size="10.00" fill="#000000">/client/window.h</text>
</g>
<!-- Node29 -->
<g id="node2" class="node">
<title>Node29</title>
<g id="a_node2"><a xlink:href="window__spec_8h.html" target="_top" xlink:title="include/client/mir\l/client/window_spec.h">
<polygon fill="#ffffff" stroke="#000000" points="0,-.5 0,-30.5 124,-30.5 124,-.5 0,-.5"/>
<text text-anchor="start" x="8" y="-18.5" font-family="Arial" font-size="10.00" fill="#000000">include/client/mir</text>
<text text-anchor="middle" x="62" y="-7.5" font-family="Arial" font-size="10.00" fill="#000000">/client/window_spec.h</text>
</a>
</g>
</g>
<!-- Node28&#45;&gt;Node29 -->
<g id="edge1" class="edge">
<title>Node28&#45;&gt;Node29</title>
<path fill="none" stroke="#191970" d="M62,-57.0249C62,-48.128 62,-38.4287 62,-30.6432"/>
<polygon fill="#191970" stroke="#191970" points="58.5001,-57.2966 62,-67.2967 65.5001,-57.2967 58.5001,-57.2966"/>
</g>
</g>
</svg>
