<?xml version="1.0" encoding="UTF-8" standalone="no"?>
<!DOCTYPE svg PUBLIC "-//W3C//DTD SVG 1.1//EN"
 "http://www.w3.org/Graphics/SVG/1.1/DTD/svg11.dtd">
<!-- Generated by graphviz version 2.38.0 (20140413.2041)
 -->
<!-- Title: include/client/mir_toolkit/version.h Pages: 1 -->
<svg width="3902pt" height="273pt"
 viewBox="0.00 0.00 3902.00 273.00" xmlns="http://www.w3.org/2000/svg" xmlns:xlink="http://www.w3.org/1999/xlink">
<g id="graph0" class="graph" transform="scale(1 1) rotate(0) translate(4 269)">
<title>include/client/mir_toolkit/version.h</title>
<polygon fill="white" stroke="none" points="-4,4 -4,-269 3898,-269 3898,4 -4,4"/>
<!-- Node2 -->
<g id="node1" class="node"><title>Node2</title>
<polygon fill="#bfbfbf" stroke="black" points="218.5,-234.5 218.5,-264.5 309.5,-264.5 309.5,-234.5 218.5,-234.5"/>
<text text-anchor="start" x="226.5" y="-252.5" font-family="Arial" font-size="10.00">include/client/mir</text>
<text text-anchor="middle" x="264" y="-241.5" font-family="Arial" font-size="10.00">_toolkit/version.h</text>
</g>
<!-- Node3 -->
<g id="node2" class="node"><title>Node3</title>
<g id="a_node2"><a xlink:href="chain__jumping__buffers_8c.html" target="_top" xlink:title="examples/chain_jumping\l_buffers.c">
<polygon fill="white" stroke="black" points="0,-162 0,-192 124,-192 124,-162 0,-162"/>
<text text-anchor="start" x="8" y="-180" font-family="Arial" font-size="10.00">examples/chain_jumping</text>
<text text-anchor="middle" x="62" y="-169" font-family="Arial" font-size="10.00">_buffers.c</text>
</a>
</g>
</g>
<!-- Node2&#45;&gt;Node3 -->
<g id="edge1" class="edge"><title>Node2&#45;&gt;Node3</title>
<path fill="none" stroke="midnightblue" d="M213.756,-230.965C179.367,-218.962 134.369,-203.258 102.322,-192.073"/>
<polygon fill="midnightblue" stroke="midnightblue" points="213.013,-234.412 223.608,-234.403 215.32,-227.803 213.013,-234.412"/>
</g>
<!-- Node4 -->
<g id="node3" class="node"><title>Node4</title>
<g id="a_node3"><a xlink:href="prerendered__frames_8c.html" target="_top" xlink:title="examples/prerendered\l_frames.c">
<polygon fill="white" stroke="black" points="142.5,-162 142.5,-192 255.5,-192 255.5,-162 142.5,-162"/>
<text text-anchor="start" x="150.5" y="-180" font-family="Arial" font-size="10.00">examples/prerendered</text>
<text text-anchor="middle" x="199" y="-169" font-family="Arial" font-size="10.00">_frames.c</text>
</a>
</g>
</g>
<!-- Node2&#45;&gt;Node4 -->
<g id="edge2" class="edge"><title>Node2&#45;&gt;Node4</title>
<path fill="none" stroke="midnightblue" d="M244.052,-226.864C233.68,-215.614 221.292,-202.179 212.134,-192.246"/>
<polygon fill="midnightblue" stroke="midnightblue" points="241.495,-229.254 250.846,-234.233 246.641,-224.509 241.495,-229.254"/>
</g>
<!-- Node5 -->
<g id="node4" class="node"><title>Node5</title>
<g id="a_node4"><a xlink:href="window__spec_8h.html" target="_top" xlink:title="include/client/mir\l/client/window_spec.h">
<polygon fill="white" stroke="black" points="274,-162 274,-192 386,-192 386,-162 274,-162"/>
<text text-anchor="start" x="282" y="-180" font-family="Arial" font-size="10.00">include/client/mir</text>
<text text-anchor="middle" x="330" y="-169" font-family="Arial" font-size="10.00">/client/window_spec.h</text>
</a>
</g>
</g>
<!-- Node2&#45;&gt;Node5 -->
<g id="edge3" class="edge"><title>Node2&#45;&gt;Node5</title>
<path fill="none" stroke="midnightblue" d="M284.255,-226.864C294.787,-215.614 307.365,-202.179 316.664,-192.246"/>
<polygon fill="midnightblue" stroke="midnightblue" points="281.635,-224.541 277.356,-234.233 286.745,-229.325 281.635,-224.541"/>
</g>
<!-- Node9 -->
<g id="node8" class="node"><title>Node9</title>
<g id="a_node8"><a xlink:href="mir__client__library_8h.html" target="_top" xlink:title="include/client/mir\l_toolkit/mir_client\l_library.h">
<polygon fill="white" stroke="black" points="2163.5,-156.5 2163.5,-197.5 2256.5,-197.5 2256.5,-156.5 2163.5,-156.5"/>
<text text-anchor="start" x="2171.5" y="-185.5" font-family="Arial" font-size="10.00">include/client/mir</text>
<text text-anchor="start" x="2171.5" y="-174.5" font-family="Arial" font-size="10.00">_toolkit/mir_client</text>
<text text-anchor="middle" x="2210" y="-163.5" font-family="Arial" font-size="10.00">_library.h</text>
</a>
</g>
</g>
<!-- Node2&#45;&gt;Node9 -->
<g id="edge7" class="edge"><title>Node2&#45;&gt;Node9</title>
<path fill="none" stroke="midnightblue" d="M319.835,-246.477C605.508,-236.128 1900.41,-189.216 2163.34,-179.691"/>
<polygon fill="midnightblue" stroke="midnightblue" points="319.577,-242.984 309.71,-246.844 319.83,-249.98 319.577,-242.984"/>
</g>
<!-- Node6 -->
<g id="node5" class="node"><title>Node6</title>
<g id="a_node5"><a xlink:href="sw__splash_8cpp.html" target="_top" xlink:title="examples/miral&#45;kiosk\l/sw_splash.cpp">
<polygon fill="white" stroke="black" points="75.5,-84 75.5,-114 184.5,-114 184.5,-84 75.5,-84"/>
<text text-anchor="start" x="83.5" y="-102" font-family="Arial" font-size="10.00">examples/miral&#45;kiosk</text>
<text text-anchor="middle" x="130" y="-91" font-family="Arial" font-size="10.00">/sw_splash.cpp</text>
</a>
</g>
</g>
<!-- Node5&#45;&gt;Node6 -->
<g id="edge4" class="edge"><title>Node5&#45;&gt;Node6</title>
<path fill="none" stroke="midnightblue" d="M283.209,-158.219C247.76,-144.749 199.725,-126.496 166.951,-114.041"/>
<polygon fill="midnightblue" stroke="midnightblue" points="282.259,-161.603 292.85,-161.883 284.746,-155.059 282.259,-161.603"/>
</g>
<!-- Node7 -->
<g id="node6" class="node"><title>Node7</title>
<g id="a_node6"><a xlink:href="decoration__provider_8cpp.html" target="_top" xlink:title="examples/miral&#45;shell\l/decoration_provider.cpp">
<polygon fill="white" stroke="black" points="203,-84 203,-114 325,-114 325,-84 203,-84"/>
<text text-anchor="start" x="211" y="-102" font-family="Arial" font-size="10.00">examples/miral&#45;shell</text>
<text text-anchor="middle" x="264" y="-91" font-family="Arial" font-size="10.00">/decoration_provider.cpp</text>
</a>
</g>
</g>
<!-- Node5&#45;&gt;Node7 -->
<g id="edge5" class="edge"><title>Node5&#45;&gt;Node7</title>
<path fill="none" stroke="midnightblue" d="M310.727,-153.807C299.634,-141.033 286.023,-125.36 276.358,-114.231"/>
<polygon fill="midnightblue" stroke="midnightblue" points="308.386,-156.45 317.586,-161.705 313.672,-151.86 308.386,-156.45"/>
</g>
<!-- Node8 -->
<g id="node7" class="node"><title>Node8</title>
<g id="a_node7"><a xlink:href="miregl_8cpp.html" target="_top" xlink:title="examples/miral&#45;shell\l/spinner/miregl.cpp">
<polygon fill="white" stroke="black" points="343,-84 343,-114 449,-114 449,-84 343,-84"/>
<text text-anchor="start" x="351" y="-102" font-family="Arial" font-size="10.00">examples/miral&#45;shell</text>
<text text-anchor="middle" x="396" y="-91" font-family="Arial" font-size="10.00">/spinner/miregl.cpp</text>
</a>
</g>
</g>
<!-- Node5&#45;&gt;Node8 -->
<g id="edge6" class="edge"><title>Node5&#45;&gt;Node8</title>
<path fill="none" stroke="midnightblue" d="M349.273,-153.807C360.366,-141.033 373.977,-125.36 383.642,-114.231"/>
<polygon fill="midnightblue" stroke="midnightblue" points="346.328,-151.86 342.414,-161.705 351.614,-156.45 346.328,-151.86"/>
</g>
<!-- Node9&#45;&gt;Node8 -->
<g id="edge27" class="edge"><title>Node9&#45;&gt;Node8</title>
<path fill="none" stroke="midnightblue" d="M2153.11,-176.317C1890.61,-177.452 794.932,-178.53 458,-120 450.088,-118.626 441.796,-116.475 433.943,-114.085"/>
<polygon fill="midnightblue" stroke="midnightblue" points="2153.19,-179.817 2163.18,-176.271 2153.16,-172.817 2153.19,-179.817"/>
</g>
<!-- Node10 -->
<g id="node9" class="node"><title>Node10</title>
<g id="a_node9"><a xlink:href="animated__cursor__demo__client_8c.html" target="_top" xlink:title="examples/animated_cursor\l_demo_client.c">
<polygon fill="white" stroke="black" points="3016,-84 3016,-114 3150,-114 3150,-84 3016,-84"/>
<text text-anchor="start" x="3024" y="-102" font-family="Arial" font-size="10.00">examples/animated_cursor</text>
<text text-anchor="middle" x="3083" y="-91" font-family="Arial" font-size="10.00">_demo_client.c</text>
</a>
</g>
</g>
<!-- Node9&#45;&gt;Node10 -->
<g id="edge8" class="edge"><title>Node9&#45;&gt;Node10</title>
<path fill="none" stroke="midnightblue" d="M2266.75,-175.577C2397.84,-173.826 2731.45,-164.921 3006,-120 3015.27,-118.483 3025.05,-116.361 3034.41,-114.063"/>
<polygon fill="midnightblue" stroke="midnightblue" points="2266.51,-172.08 2256.55,-175.705 2266.6,-179.08 2266.51,-172.08"/>
</g>
<!-- Node11 -->
<g id="node10" class="node"><title>Node11</title>
<g id="a_node10"><a xlink:href="basic_8c.html" target="_top" xlink:title="examples/basic.c">
<polygon fill="white" stroke="black" points="3168.5,-89.5 3168.5,-108.5 3261.5,-108.5 3261.5,-89.5 3168.5,-89.5"/>
<text text-anchor="middle" x="3215" y="-96.5" font-family="Arial" font-size="10.00">examples/basic.c</text>
</a>
</g>
</g>
<!-- Node9&#45;&gt;Node11 -->
<g id="edge9" class="edge"><title>Node9&#45;&gt;Node11</title>
<path fill="none" stroke="midnightblue" d="M2266.73,-174.761C2444.14,-170.556 2986.76,-155.091 3159,-120 3171.44,-117.465 3184.86,-112.749 3195.44,-108.533"/>
<polygon fill="midnightblue" stroke="midnightblue" points="2266.49,-171.266 2256.57,-174.999 2266.65,-178.264 2266.49,-171.266"/>
</g>
<!-- Node12 -->
<g id="node11" class="node"><title>Node12</title>
<g id="a_node11"><a xlink:href="camera_8c.html" target="_top" xlink:title="examples/camera.c">
<polygon fill="white" stroke="black" points="3280,-89.5 3280,-108.5 3382,-108.5 3382,-89.5 3280,-89.5"/>
<text text-anchor="middle" x="3331" y="-96.5" font-family="Arial" font-size="10.00">examples/camera.c</text>
</a>
</g>
</g>
<!-- Node9&#45;&gt;Node12 -->
<g id="edge10" class="edge"><title>Node9&#45;&gt;Node12</title>
<path fill="none" stroke="midnightblue" d="M2266.77,-174.974C2457.61,-171.215 3074.89,-156.472 3270,-120 3283.47,-117.481 3298.08,-112.766 3309.62,-108.546"/>
<polygon fill="midnightblue" stroke="midnightblue" points="2266.61,-171.476 2256.68,-175.17 2266.75,-178.475 2266.61,-171.476"/>
</g>
<!-- Node13 -->
<g id="node12" class="node"><title>Node13</title>
<g id="a_node12"><a xlink:href="client__helpers_8h.html" target="_top" xlink:title="examples/client_helpers.h">
<polygon fill="white" stroke="black" points="3400,-89.5 3400,-108.5 3530,-108.5 3530,-89.5 3400,-89.5"/>
<text text-anchor="middle" x="3465" y="-96.5" font-family="Arial" font-size="10.00">examples/client_helpers.h</text>
</a>
</g>
</g>
<!-- Node9&#45;&gt;Node13 -->
<g id="edge11" class="edge"><title>Node9&#45;&gt;Node13</title>
<path fill="none" stroke="midnightblue" d="M2266.88,-174.935C2471.59,-170.847 3170.38,-154.625 3391,-120 3407.17,-117.462 3424.89,-112.746 3438.93,-108.531"/>
<polygon fill="midnightblue" stroke="midnightblue" points="2266.58,-171.44 2256.65,-175.137 2266.72,-178.438 2266.58,-171.44"/>
</g>
<!-- Node14 -->
<g id="node13" class="node"><title>Node14</title>
<g id="a_node13"><a xlink:href="client__helpers_8cpp.html" target="_top" xlink:title="examples/client_helpers.cpp">
<polygon fill="white" stroke="black" points="3360,-11.5 3360,-30.5 3500,-30.5 3500,-11.5 3360,-11.5"/>
<text text-anchor="middle" x="3430" y="-18.5" font-family="Arial" font-size="10.00">examples/client_helpers.cpp</text>
</a>
</g>
</g>
<!-- Node9&#45;&gt;Node14 -->
<g id="edge16" class="edge"><title>Node9&#45;&gt;Node14</title>
<path fill="none" stroke="midnightblue" d="M2266.94,-175.772C2515.42,-174.502 3494.37,-166.553 3539,-120 3551.92,-106.526 3548.73,-93.9323 3539,-78 3523.59,-52.7596 3492.78,-38.4191 3467.84,-30.5831"/>
<polygon fill="midnightblue" stroke="midnightblue" points="2266.67,-172.273 2256.69,-175.822 2266.71,-179.273 2266.67,-172.273"/>
</g>
<!-- Node15 -->
<g id="node14" class="node"><title>Node15</title>
<g id="a_node14"><a xlink:href="eglsquare_8cpp.html" target="_top" xlink:title="examples/eglsquare.cpp">
<polygon fill="white" stroke="black" points="3518,-11.5 3518,-30.5 3640,-30.5 3640,-11.5 3518,-11.5"/>
<text text-anchor="middle" x="3579" y="-18.5" font-family="Arial" font-size="10.00">examples/eglsquare.cpp</text>
</a>
</g>
</g>
<!-- Node9&#45;&gt;Node15 -->
<g id="edge21" class="edge"><title>Node9&#45;&gt;Node15</title>
<path fill="none" stroke="midnightblue" d="M2267.06,-175.549C2517.21,-173.33 3506.8,-161.92 3557,-120 3583.9,-97.5347 3582.12,-49.9328 3580.12,-30.5159"/>
<polygon fill="midnightblue" stroke="midnightblue" points="2266.71,-172.052 2256.74,-175.639 2266.77,-179.052 2266.71,-172.052"/>
</g>
<!-- Node16 -->
<g id="node15" class="node"><title>Node16</title>
<g id="a_node15"><a xlink:href="input__shapes_8cpp.html" target="_top" xlink:title="examples/input_shapes.cpp">
<polygon fill="white" stroke="black" points="2509,-11.5 2509,-30.5 2647,-30.5 2647,-11.5 2509,-11.5"/>
<text text-anchor="middle" x="2578" y="-18.5" font-family="Arial" font-size="10.00">examples/input_shapes.cpp</text>
</a>
</g>
</g>
<!-- Node9&#45;&gt;Node16 -->
<g id="edge25" class="edge"><title>Node9&#45;&gt;Node16</title>
<path fill="none" stroke="midnightblue" d="M2153.17,-168.423C2079.32,-156.372 1964.94,-128.833 2011,-78 2043.88,-41.7159 2365.08,-28.0592 2508.94,-23.7336"/>
<polygon fill="midnightblue" stroke="midnightblue" points="2152.88,-171.92 2163.3,-170.021 2153.97,-165.005 2152.88,-171.92"/>
</g>
<!-- Node17 -->
<g id="node16" class="node"><title>Node17</title>
<g id="a_node16"><a xlink:href="render__surface_8cpp.html" target="_top" xlink:title="examples/render_surface.cpp">
<polygon fill="white" stroke="black" points="2974.5,-11.5 2974.5,-30.5 3119.5,-30.5 3119.5,-11.5 2974.5,-11.5"/>
<text text-anchor="middle" x="3047" y="-18.5" font-family="Arial" font-size="10.00">examples/render_surface.cpp</text>
</a>
</g>
</g>
<!-- Node9&#45;&gt;Node17 -->
<g id="edge33" class="edge"><title>Node9&#45;&gt;Node17</title>
<path fill="none" stroke="midnightblue" d="M2266.68,-175.763C2396.64,-174.412 2712.07,-166.311 2806,-120 2828.85,-108.736 2823.24,-91.2369 2845,-78 2887.13,-52.376 2941.25,-38.1887 2982.87,-30.51"/>
<polygon fill="midnightblue" stroke="midnightblue" points="2266.51,-172.264 2256.54,-175.858 2266.58,-179.264 2266.51,-172.264"/>
</g>
<!-- Node18 -->
<g id="node17" class="node"><title>Node18</title>
<g id="a_node17"><a xlink:href="client__touch__validator_8cpp.html" target="_top" xlink:title="examples/client_touch\l_validator.cpp">
<polygon fill="white" stroke="black" points="3780,-84 3780,-114 3894,-114 3894,-84 3780,-84"/>
<text text-anchor="start" x="3788" y="-102" font-family="Arial" font-size="10.00">examples/client_touch</text>
<text text-anchor="middle" x="3837" y="-91" font-family="Arial" font-size="10.00">_validator.cpp</text>
</a>
</g>
</g>
<!-- Node9&#45;&gt;Node18 -->
<g id="edge17" class="edge"><title>Node9&#45;&gt;Node18</title>
<path fill="none" stroke="midnightblue" d="M2266.92,-175.923C2511.34,-175.291 3473.01,-169.634 3771,-120 3779.39,-118.603 3788.2,-116.443 3796.55,-114.05"/>
<polygon fill="midnightblue" stroke="midnightblue" points="2266.83,-172.423 2256.83,-175.947 2266.84,-179.423 2266.83,-172.423"/>
</g>
<!-- Node19 -->
<g id="node18" class="node"><title>Node19</title>
<g id="a_node18"><a xlink:href="cursors__demo__client_8c.html" target="_top" xlink:title="examples/cursors_demo\l_client.c">
<polygon fill="white" stroke="black" points="467.5,-84 467.5,-114 590.5,-114 590.5,-84 467.5,-84"/>
<text text-anchor="start" x="475.5" y="-102" font-family="Arial" font-size="10.00">examples/cursors_demo</text>
<text text-anchor="middle" x="529" y="-91" font-family="Arial" font-size="10.00">_client.c</text>
</a>
</g>
</g>
<!-- Node9&#45;&gt;Node19 -->
<g id="edge18" class="edge"><title>Node9&#45;&gt;Node19</title>
<path fill="none" stroke="midnightblue" d="M2152.98,-175.847C1903.72,-174.897 908.528,-168.105 600,-120 591.016,-118.599 581.554,-116.437 572.571,-114.044"/>
<polygon fill="midnightblue" stroke="midnightblue" points="2153.24,-179.348 2163.26,-175.884 2153.27,-172.348 2153.24,-179.348"/>
</g>
<!-- Node20 -->
<g id="node19" class="node"><title>Node20</title>
<g id="a_node19"><a xlink:href="demo__client__display__config_8c.html" target="_top" xlink:title="examples/demo_client\l_display_config.c">
<polygon fill="white" stroke="black" points="609,-84 609,-114 723,-114 723,-84 609,-84"/>
<text text-anchor="start" x="617" y="-102" font-family="Arial" font-size="10.00">examples/demo_client</text>
<text text-anchor="middle" x="666" y="-91" font-family="Arial" font-size="10.00">_display_config.c</text>
</a>
</g>
</g>
<!-- Node9&#45;&gt;Node20 -->
<g id="edge19" class="edge"><title>Node9&#45;&gt;Node20</title>
<path fill="none" stroke="midnightblue" d="M2153.43,-175.791C1917.74,-174.624 1013.04,-167.102 732,-120 723.616,-118.595 714.806,-116.431 706.451,-114.037"/>
<polygon fill="midnightblue" stroke="midnightblue" points="2153.48,-179.291 2163.49,-175.839 2153.51,-172.292 2153.48,-179.291"/>
</g>
<!-- Node21 -->
<g id="node20" class="node"><title>Node21</title>
<g id="a_node20"><a xlink:href="eglapp_8c.html" target="_top" xlink:title="examples/eglapp.c">
<polygon fill="white" stroke="black" points="741,-89.5 741,-108.5 839,-108.5 839,-89.5 741,-89.5"/>
<text text-anchor="middle" x="790" y="-96.5" font-family="Arial" font-size="10.00">examples/eglapp.c</text>
</a>
</g>
</g>
<!-- Node9&#45;&gt;Node21 -->
<g id="edge20" class="edge"><title>Node9&#45;&gt;Node21</title>
<path fill="none" stroke="midnightblue" d="M2153.11,-175.859C1928.64,-174.961 1104.24,-168.372 848,-120 835.022,-117.55 821.008,-112.781 810.007,-108.514"/>
<polygon fill="midnightblue" stroke="midnightblue" points="2153.32,-179.359 2163.34,-175.897 2153.35,-172.359 2153.32,-179.359"/>
</g>
<!-- Node22 -->
<g id="node21" class="node"><title>Node22</title>
<g id="a_node21"><a xlink:href="eglstateswitcher_8c.html" target="_top" xlink:title="examples/eglstateswitcher.c">
<polygon fill="white" stroke="black" points="857,-89.5 857,-108.5 997,-108.5 997,-89.5 857,-89.5"/>
<text text-anchor="middle" x="927" y="-96.5" font-family="Arial" font-size="10.00">examples/eglstateswitcher.c</text>
</a>
</g>
</g>
<!-- Node9&#45;&gt;Node22 -->
<g id="edge22" class="edge"><title>Node9&#45;&gt;Node22</title>
<path fill="none" stroke="midnightblue" d="M2153.4,-174.88C1946.52,-170.552 1231.69,-153.467 1006,-120 988.786,-117.447 969.877,-112.731 954.875,-108.519"/>
<polygon fill="midnightblue" stroke="midnightblue" points="2153.37,-178.38 2163.44,-175.089 2153.51,-171.382 2153.37,-178.38"/>
</g>
<!-- Node23 -->
<g id="node22" class="node"><title>Node23</title>
<g id="a_node22"><a xlink:href="fingerpaint_8c.html" target="_top" xlink:title="examples/fingerpaint.c">
<polygon fill="white" stroke="black" points="1015.5,-89.5 1015.5,-108.5 1130.5,-108.5 1130.5,-89.5 1015.5,-89.5"/>
<text text-anchor="middle" x="1073" y="-96.5" font-family="Arial" font-size="10.00">examples/fingerpaint.c</text>
</a>
</g>
</g>
<!-- Node9&#45;&gt;Node23 -->
<g id="edge23" class="edge"><title>Node9&#45;&gt;Node23</title>
<path fill="none" stroke="midnightblue" d="M2153.32,-174.844C1961.37,-170.648 1336.76,-154.607 1139,-120 1124.49,-117.462 1108.69,-112.745 1096.19,-108.53"/>
<polygon fill="midnightblue" stroke="midnightblue" points="2153.4,-178.347 2163.47,-175.064 2153.55,-171.348 2153.4,-178.347"/>
</g>
<!-- Node24 -->
<g id="node23" class="node"><title>Node24</title>
<g id="a_node23"><a xlink:href="flicker_8c.html" target="_top" xlink:title="examples/flicker.c">
<polygon fill="white" stroke="black" points="1148.5,-89.5 1148.5,-108.5 1243.5,-108.5 1243.5,-89.5 1148.5,-89.5"/>
<text text-anchor="middle" x="1196" y="-96.5" font-family="Arial" font-size="10.00">examples/flicker.c</text>
</a>
</g>
</g>
<!-- Node9&#45;&gt;Node24 -->
<g id="edge24" class="edge"><title>Node9&#45;&gt;Node24</title>
<path fill="none" stroke="midnightblue" d="M2153.1,-174.749C1974.55,-170.497 1426.89,-154.879 1253,-120 1240.35,-117.463 1226.7,-112.747 1215.93,-108.531"/>
<polygon fill="midnightblue" stroke="midnightblue" points="2153.25,-178.253 2163.33,-174.99 2153.41,-171.255 2153.25,-178.253"/>
</g>
<!-- Node25 -->
<g id="node24" class="node"><title>Node25</title>
<g id="a_node24"><a xlink:href="eglspinner_8cpp.html" target="_top" xlink:title="examples/miral&#45;shell\l/spinner/eglspinner.cpp">
<polygon fill="white" stroke="black" points="1262,-84 1262,-114 1378,-114 1378,-84 1262,-84"/>
<text text-anchor="start" x="1270" y="-102" font-family="Arial" font-size="10.00">examples/miral&#45;shell</text>
<text text-anchor="middle" x="1320" y="-91" font-family="Arial" font-size="10.00">/spinner/eglspinner.cpp</text>
</a>
</g>
</g>
<!-- Node9&#45;&gt;Node25 -->
<g id="edge26" class="edge"><title>Node9&#45;&gt;Node25</title>
<path fill="none" stroke="midnightblue" d="M2153.08,-176.452C2018.63,-176.585 1671.31,-171.445 1387,-120 1378.76,-118.509 1370.09,-116.368 1361.83,-114.037"/>
<polygon fill="midnightblue" stroke="midnightblue" points="2153.16,-179.952 2163.15,-176.432 2153.14,-172.952 2153.16,-179.952"/>
</g>
<!-- Node26 -->
<g id="node25" class="node"><title>Node26</title>
<g id="a_node25"><a xlink:href="multiwin_8c.html" target="_top" xlink:title="examples/multiwin.c">
<polygon fill="white" stroke="black" points="1396.5,-89.5 1396.5,-108.5 1501.5,-108.5 1501.5,-89.5 1396.5,-89.5"/>
<text text-anchor="middle" x="1449" y="-96.5" font-family="Arial" font-size="10.00">examples/multiwin.c</text>
</a>
</g>
</g>
<!-- Node9&#45;&gt;Node26 -->
<g id="edge28" class="edge"><title>Node9&#45;&gt;Node26</title>
<path fill="none" stroke="midnightblue" d="M2153.23,-175.89C2033.39,-174.691 1746.25,-166.707 1511,-120 1497.58,-117.335 1482.99,-112.721 1471.34,-108.596"/>
<polygon fill="midnightblue" stroke="midnightblue" points="2153.25,-179.39 2163.28,-175.978 2153.31,-172.391 2153.25,-179.39"/>
</g>
<!-- Node27 -->
<g id="node26" class="node"><title>Node27</title>
<g id="a_node26"><a xlink:href="pointer__confinement_8c.html" target="_top" xlink:title="examples/pointer_confinement.c">
<polygon fill="white" stroke="black" points="1520,-89.5 1520,-108.5 1678,-108.5 1678,-89.5 1520,-89.5"/>
<text text-anchor="middle" x="1599" y="-96.5" font-family="Arial" font-size="10.00">examples/pointer_confinement.c</text>
</a>
</g>
</g>
<!-- Node9&#45;&gt;Node27 -->
<g id="edge29" class="edge"><title>Node9&#45;&gt;Node27</title>
<path fill="none" stroke="midnightblue" d="M2153.11,-172.097C2056.73,-164.996 1855.39,-148.051 1687,-120 1668.76,-116.962 1648.64,-112.475 1632.25,-108.521"/>
<polygon fill="midnightblue" stroke="midnightblue" points="2153,-175.598 2163.22,-172.834 2153.51,-168.616 2153,-175.598"/>
</g>
<!-- Node28 -->
<g id="node27" class="node"><title>Node28</title>
<g id="a_node27"><a xlink:href="progressbar_8c.html" target="_top" xlink:title="examples/progressbar.c">
<polygon fill="white" stroke="black" points="1696,-89.5 1696,-108.5 1816,-108.5 1816,-89.5 1696,-89.5"/>
<text text-anchor="middle" x="1756" y="-96.5" font-family="Arial" font-size="10.00">examples/progressbar.c</text>
</a>
</g>
</g>
<!-- Node9&#45;&gt;Node28 -->
<g id="edge30" class="edge"><title>Node9&#45;&gt;Node28</title>
<path fill="none" stroke="midnightblue" d="M2153.17,-170.212C2077.67,-161.959 1940.38,-144.988 1825,-120 1810.74,-116.911 1795.1,-112.468 1782.32,-108.554"/>
<polygon fill="midnightblue" stroke="midnightblue" points="2153.09,-173.723 2163.41,-171.319 2153.84,-166.764 2153.09,-173.723"/>
</g>
<!-- Node29 -->
<g id="node28" class="node"><title>Node29</title>
<g id="a_node28"><a xlink:href="prompt__session_8c.html" target="_top" xlink:title="examples/prompt_session.c">
<polygon fill="white" stroke="black" points="3658.5,-11.5 3658.5,-30.5 3797.5,-30.5 3797.5,-11.5 3658.5,-11.5"/>
<text text-anchor="middle" x="3728" y="-18.5" font-family="Arial" font-size="10.00">examples/prompt_session.c</text>
</a>
</g>
</g>
<!-- Node9&#45;&gt;Node29 -->
<g id="edge31" class="edge"><title>Node9&#45;&gt;Node29</title>
<path fill="none" stroke="midnightblue" d="M2266.83,-175.489C2509.82,-173.06 3454.82,-161.035 3581,-120 3611.04,-110.23 3687.92,-52.7264 3716.81,-30.6368"/>
<polygon fill="midnightblue" stroke="midnightblue" points="2266.76,-171.99 2256.8,-175.588 2266.83,-178.989 2266.76,-171.99"/>
</g>
<!-- Node30 -->
<g id="node29" class="node"><title>Node30</title>
<g id="a_node29"><a xlink:href="release__at__exit_8c.html" target="_top" xlink:title="examples/release_at\l_exit.c">
<polygon fill="white" stroke="black" points="2020.5,-84 2020.5,-114 2127.5,-114 2127.5,-84 2020.5,-84"/>
<text text-anchor="start" x="2028.5" y="-102" font-family="Arial" font-size="10.00">examples/release_at</text>
<text text-anchor="middle" x="2074" y="-91" font-family="Arial" font-size="10.00">_exit.c</text>
</a>
</g>
</g>
<!-- Node9&#45;&gt;Node30 -->
<g id="edge32" class="edge"><title>Node9&#45;&gt;Node30</title>
<path fill="none" stroke="midnightblue" d="M2166.12,-151.479C2144.09,-139.167 2118.18,-124.687 2099.46,-114.225"/>
<polygon fill="midnightblue" stroke="midnightblue" points="2164.54,-154.605 2174.98,-156.428 2167.95,-148.495 2164.54,-154.605"/>
</g>
<!-- Node31 -->
<g id="node30" class="node"><title>Node31</title>
<g id="a_node30"><a xlink:href="screencast_8cpp.html" target="_top" xlink:title="examples/screencast.cpp">
<polygon fill="white" stroke="black" points="2146,-89.5 2146,-108.5 2274,-108.5 2274,-89.5 2146,-89.5"/>
<text text-anchor="middle" x="2210" y="-96.5" font-family="Arial" font-size="10.00">examples/screencast.cpp</text>
</a>
</g>
</g>
<!-- Node9&#45;&gt;Node31 -->
<g id="edge34" class="edge"><title>Node9&#45;&gt;Node31</title>
<path fill="none" stroke="midnightblue" d="M2210,-146.051C2210,-132.56 2210,-117.649 2210,-108.552"/>
<polygon fill="midnightblue" stroke="midnightblue" points="2206.5,-146.428 2210,-156.428 2213.5,-146.428 2206.5,-146.428"/>
</g>
<!-- Node32 -->
<g id="node31" class="node"><title>Node32</title>
<g id="a_node31"><a xlink:href="tooltip_8c.html" target="_top" xlink:title="examples/tooltip.c">
<polygon fill="white" stroke="black" points="2292,-89.5 2292,-108.5 2388,-108.5 2388,-89.5 2292,-89.5"/>
<text text-anchor="middle" x="2340" y="-96.5" font-family="Arial" font-size="10.00">examples/tooltip.c</text>
</a>
</g>
</g>
<!-- Node9&#45;&gt;Node32 -->
<g id="edge35" class="edge"><title>Node9&#45;&gt;Node32</title>
<path fill="none" stroke="midnightblue" d="M2252.13,-151.367C2277.31,-136.649 2307.73,-118.865 2325.37,-108.552"/>
<polygon fill="midnightblue" stroke="midnightblue" points="2250.34,-148.36 2243.48,-156.428 2253.88,-154.403 2250.34,-148.36"/>
</g>
<!-- Node33 -->
<g id="node32" class="node"><title>Node33</title>
<g id="a_node32"><a xlink:href="toolkit_2debug_2surface_8h.html" target="_top" xlink:title="include/client/mir\l_toolkit/debug/surface.h">
<polygon fill="white" stroke="black" points="2406.5,-84 2406.5,-114 2527.5,-114 2527.5,-84 2406.5,-84"/>
<text text-anchor="start" x="2414.5" y="-102" font-family="Arial" font-size="10.00">include/client/mir</text>
<text text-anchor="middle" x="2467" y="-91" font-family="Arial" font-size="10.00">_toolkit/debug/surface.h</text>
</a>
</g>
</g>
<!-- Node9&#45;&gt;Node33 -->
<g id="edge36" class="edge"><title>Node9&#45;&gt;Node33</title>
<path fill="none" stroke="midnightblue" d="M2266.33,-159.343C2312.19,-145.781 2376.2,-126.851 2419.5,-114.047"/>
<polygon fill="midnightblue" stroke="midnightblue" points="2265.14,-156.045 2256.54,-162.237 2267.12,-162.757 2265.14,-156.045"/>
</g>
<!-- Node34 -->
<g id="node33" class="node"><title>Node34</title>
<g id="a_node33"><a xlink:href="mir__prompt__session_8h.html" target="_top" xlink:title="include/client/mir\l_toolkit/mir_prompt\l_session.h">
<polygon fill="white" stroke="black" points="3662,-78.5 3662,-119.5 3762,-119.5 3762,-78.5 3662,-78.5"/>
<text text-anchor="start" x="3670" y="-107.5" font-family="Arial" font-size="10.00">include/client/mir</text>
<text text-anchor="start" x="3670" y="-96.5" font-family="Arial" font-size="10.00">_toolkit/mir_prompt</text>
<text text-anchor="middle" x="3712" y="-85.5" font-family="Arial" font-size="10.00">_session.h</text>
</a>
</g>
</g>
<!-- Node9&#45;&gt;Node34 -->
<g id="edge37" class="edge"><title>Node9&#45;&gt;Node34</title>
<path fill="none" stroke="midnightblue" d="M2266.93,-175.785C2499.18,-174.597 3375.52,-167.027 3648,-120 3652.59,-119.208 3657.31,-118.175 3662,-116.996"/>
<polygon fill="midnightblue" stroke="midnightblue" points="2266.67,-172.286 2256.68,-175.835 2266.7,-179.286 2266.67,-172.286"/>
</g>
<!-- Node35 -->
<g id="node34" class="node"><title>Node35</title>
<g id="a_node34"><a xlink:href="client__buffer__factory_8h.html" target="_top" xlink:title="include/platform/mir\l/client/client_buffer\l_factory.h">
<polygon fill="white" stroke="black" points="2546,-78.5 2546,-119.5 2648,-119.5 2648,-78.5 2546,-78.5"/>
<text text-anchor="start" x="2554" y="-107.5" font-family="Arial" font-size="10.00">include/platform/mir</text>
<text text-anchor="start" x="2554" y="-96.5" font-family="Arial" font-size="10.00">/client/client_buffer</text>
<text text-anchor="middle" x="2597" y="-85.5" font-family="Arial" font-size="10.00">_factory.h</text>
</a>
</g>
</g>
<!-- Node9&#45;&gt;Node35 -->
<g id="edge39" class="edge"><title>Node9&#45;&gt;Node35</title>
<path fill="none" stroke="midnightblue" d="M2266.71,-168.832C2332.16,-159.966 2442.76,-143.161 2536,-120 2539.24,-119.194 2542.57,-118.302 2545.9,-117.356"/>
<polygon fill="midnightblue" stroke="midnightblue" points="2266.05,-165.389 2256.6,-170.186 2266.98,-172.327 2266.05,-165.389"/>
</g>
<!-- Node36 -->
<g id="node35" class="node"><title>Node36</title>
<g id="a_node35"><a xlink:href="any__surface_8h.html" target="_top" xlink:title="include/test/mir_test\l_framework/any_surface.h">
<polygon fill="white" stroke="black" points="2666.5,-84 2666.5,-114 2797.5,-114 2797.5,-84 2666.5,-84"/>
<text text-anchor="start" x="2674.5" y="-102" font-family="Arial" font-size="10.00">include/test/mir_test</text>
<text text-anchor="middle" x="2732" y="-91" font-family="Arial" font-size="10.00">_framework/any_surface.h</text>
</a>
</g>
</g>
<!-- Node9&#45;&gt;Node36 -->
<g id="edge40" class="edge"><title>Node9&#45;&gt;Node36</title>
<path fill="none" stroke="midnightblue" d="M2266.65,-171.391C2351.88,-163.898 2517.95,-147.119 2657,-120 2665.47,-118.349 2674.39,-116.274 2683,-114.089"/>
<polygon fill="midnightblue" stroke="midnightblue" points="2266.32,-167.907 2256.66,-172.259 2266.93,-174.88 2266.32,-167.907"/>
</g>
<!-- Node37 -->
<g id="node36" class="node"><title>Node37</title>
<g id="a_node36"><a xlink:href="connected__client__headless__server_8h.html" target="_top" xlink:title="include/test/mir_test\l_framework/connected\l_client_headless_server.h">
<polygon fill="white" stroke="black" points="1834.5,-78.5 1834.5,-119.5 1963.5,-119.5 1963.5,-78.5 1834.5,-78.5"/>
<text text-anchor="start" x="1842.5" y="-107.5" font-family="Arial" font-size="10.00">include/test/mir_test</text>
<text text-anchor="start" x="1842.5" y="-96.5" font-family="Arial" font-size="10.00">_framework/connected</text>
<text text-anchor="middle" x="1899" y="-85.5" font-family="Arial" font-size="10.00">_client_headless_server.h</text>
</a>
</g>
</g>
<!-- Node9&#45;&gt;Node37 -->
<g id="edge41" class="edge"><title>Node9&#45;&gt;Node37</title>
<path fill="none" stroke="midnightblue" d="M2153.32,-162.504C2106.32,-151.269 2037.77,-134.779 1978,-120 1973.33,-118.845 1968.51,-117.645 1963.65,-116.43"/>
<polygon fill="midnightblue" stroke="midnightblue" points="2152.76,-165.97 2163.3,-164.89 2154.39,-159.162 2152.76,-165.97"/>
</g>
<!-- Node39 -->
<g id="node38" class="node"><title>Node39</title>
<g id="a_node38"><a xlink:href="visible__surface_8h.html" target="_top" xlink:title="include/test/mir_test\l_framework/visible_surface.h">
<polygon fill="white" stroke="black" points="2854.5,-84 2854.5,-114 2997.5,-114 2997.5,-84 2854.5,-84"/>
<text text-anchor="start" x="2862.5" y="-102" font-family="Arial" font-size="10.00">include/test/mir_test</text>
<text text-anchor="middle" x="2926" y="-91" font-family="Arial" font-size="10.00">_framework/visible_surface.h</text>
</a>
</g>
</g>
<!-- Node9&#45;&gt;Node39 -->
<g id="edge43" class="edge"><title>Node9&#45;&gt;Node39</title>
<path fill="none" stroke="midnightblue" d="M2266.79,-173.617C2377.6,-168.378 2630.18,-153.554 2840,-120 2849.99,-118.402 2860.55,-116.299 2870.71,-114.057"/>
<polygon fill="midnightblue" stroke="midnightblue" points="2266.34,-170.133 2256.51,-174.094 2266.66,-177.126 2266.34,-170.133"/>
</g>
<!-- Node13&#45;&gt;Node14 -->
<g id="edge12" class="edge"><title>Node13&#45;&gt;Node14</title>
<path fill="none" stroke="midnightblue" d="M3456.77,-80.1216C3449.59,-64.5297 3439.48,-42.5862 3433.97,-30.6165"/>
<polygon fill="midnightblue" stroke="midnightblue" points="3453.62,-81.6628 3460.99,-89.2818 3459.98,-78.7347 3453.62,-81.6628"/>
</g>
<!-- Node13&#45;&gt;Node15 -->
<g id="edge13" class="edge"><title>Node13&#45;&gt;Node15</title>
<path fill="none" stroke="midnightblue" d="M3486.65,-83.5677C3510.1,-67.9314 3546.75,-43.4981 3566.08,-30.6165"/>
<polygon fill="midnightblue" stroke="midnightblue" points="3484.46,-80.8226 3478.08,-89.2818 3488.34,-86.647 3484.46,-80.8226"/>
</g>
<!-- Node13&#45;&gt;Node16 -->
<g id="edge14" class="edge"><title>Node13&#45;&gt;Node16</title>
<path fill="none" stroke="midnightblue" d="M3428.27,-86.5547C3416.47,-83.2898 3403.28,-80.0625 3391,-78 3318.66,-65.8533 2830.03,-36.6388 2647.02,-25.9789"/>
<polygon fill="midnightblue" stroke="midnightblue" points="3427.64,-90.0151 3438.22,-89.4052 3429.57,-83.2859 3427.64,-90.0151"/>
</g>
<!-- Node13&#45;&gt;Node17 -->
<g id="edge15" class="edge"><title>Node13&#45;&gt;Node17</title>
<path fill="none" stroke="midnightblue" d="M3426.03,-86.6636C3414.78,-83.611 3402.45,-80.4732 3391,-78 3294.45,-57.1505 3181.15,-40.1196 3111.72,-30.5156"/>
<polygon fill="midnightblue" stroke="midnightblue" points="3425.43,-90.1283 3436,-89.4216 3427.29,-83.3817 3425.43,-90.1283"/>
</g>
<!-- Node34&#45;&gt;Node29 -->
<g id="edge38" class="edge"><title>Node34&#45;&gt;Node29</title>
<path fill="none" stroke="midnightblue" d="M3718.22,-68.4511C3721.08,-54.8554 3724.27,-39.7393 3726.2,-30.552"/>
<polygon fill="midnightblue" stroke="midnightblue" points="3714.76,-67.9215 3716.12,-78.4281 3721.61,-69.3637 3714.76,-67.9215"/>
</g>
<!-- Node38 -->
<g id="node37" class="node"><title>Node38</title>
<g id="a_node37"><a xlink:href="connected__client__with__a__window_8h.html" target="_top" xlink:title="include/test/mir_test\l_framework/connected\l_client_with_a_window.h">
<polygon fill="white" stroke="black" points="1838,-0.5 1838,-41.5 1960,-41.5 1960,-0.5 1838,-0.5"/>
<text text-anchor="start" x="1846" y="-29.5" font-family="Arial" font-size="10.00">include/test/mir_test</text>
<text text-anchor="start" x="1846" y="-18.5" font-family="Arial" font-size="10.00">_framework/connected</text>
<text text-anchor="middle" x="1899" y="-7.5" font-family="Arial" font-size="10.00">_client_with_a_window.h</text>
</a>
</g>
</g>
<!-- Node37&#45;&gt;Node38 -->
<g id="edge42" class="edge"><title>Node37&#45;&gt;Node38</title>
<path fill="none" stroke="midnightblue" d="M1899,-68.2965C1899,-59.3009 1899,-49.6532 1899,-41.5056"/>
<polygon fill="midnightblue" stroke="midnightblue" points="1895.5,-68.4281 1899,-78.4281 1902.5,-68.4281 1895.5,-68.4281"/>
</g>
</g>
</svg>
