<?xml version="1.0" encoding="UTF-8" standalone="no"?>
<!DOCTYPE svg PUBLIC "-//W3C//DTD SVG 1.1//EN"
 "http://www.w3.org/Graphics/SVG/1.1/DTD/svg11.dtd">
<!-- Generated by graphviz version 2.38.0 (20140413.2041)
 -->
<!-- Title: include/platform/mir/client/client_buffer.h Pages: 1 -->
<svg width="826pt" height="218pt"
 viewBox="0.00 0.00 826.00 218.00" xmlns="http://www.w3.org/2000/svg" xmlns:xlink="http://www.w3.org/1999/xlink">
<g id="graph0" class="graph" transform="scale(1 1) rotate(0) translate(4 214)">
<title>include/platform/mir/client/client_buffer.h</title>
<polygon fill="white" stroke="none" points="-4,4 -4,-214 822,-214 822,4 -4,4"/>
<!-- Node0 -->
<g id="node1" class="node"><title>Node0</title>
<polygon fill="#bfbfbf" stroke="black" points="467.5,-179.5 467.5,-209.5 574.5,-209.5 574.5,-179.5 467.5,-179.5"/>
<text text-anchor="start" x="475.5" y="-197.5" font-family="Arial" font-size="10.00">include/platform/mir</text>
<text text-anchor="middle" x="521" y="-186.5" font-family="Arial" font-size="10.00">/client/client_buffer.h</text>
</g>
<!-- Node1 -->
<g id="node2" class="node"><title>Node1</title>
<g id="a_node2"><a xlink:href="mir__native__buffer_8h.html" target="_top" xlink:title="mir_toolkit/mir_native\l_buffer.h">
<polygon fill="white" stroke="black" points="0,-112.5 0,-142.5 110,-142.5 110,-112.5 0,-112.5"/>
<text text-anchor="start" x="8" y="-130.5" font-family="Arial" font-size="10.00">mir_toolkit/mir_native</text>
<text text-anchor="middle" x="55" y="-119.5" font-family="Arial" font-size="10.00">_buffer.h</text>
</a>
</g>
</g>
<!-- Node0&#45;&gt;Node1 -->
<g id="edge1" class="edge"><title>Node0&#45;&gt;Node1</title>
<path fill="none" stroke="midnightblue" d="M467.429,-188.454C392.103,-180.988 250.437,-165.591 120.24,-143.112"/>
<polygon fill="midnightblue" stroke="midnightblue" points="120.542,-139.612 110.089,-141.341 119.338,-146.508 120.542,-139.612"/>
</g>
<!-- Node2 -->
<g id="node3" class="node"><title>Node2</title>
<g id="a_node3"><a xlink:href="native__buffer_8h.html" target="_top" xlink:title="mir/graphics/native\l_buffer.h">
<polygon fill="white" stroke="black" points="128.5,-112.5 128.5,-142.5 227.5,-142.5 227.5,-112.5 128.5,-112.5"/>
<text text-anchor="start" x="136.5" y="-130.5" font-family="Arial" font-size="10.00">mir/graphics/native</text>
<text text-anchor="middle" x="178" y="-119.5" font-family="Arial" font-size="10.00">_buffer.h</text>
</a>
</g>
</g>
<!-- Node0&#45;&gt;Node2 -->
<g id="edge2" class="edge"><title>Node0&#45;&gt;Node2</title>
<path fill="none" stroke="midnightblue" d="M467.409,-185.037C412.285,-176.093 323.736,-161.063 237.481,-143.018"/>
<polygon fill="midnightblue" stroke="midnightblue" points="238.028,-139.556 227.521,-140.918 236.584,-146.405 238.028,-139.556"/>
</g>
<!-- Node3 -->
<g id="node4" class="node"><title>Node3</title>
<g id="a_node4"><a xlink:href="common_8h.html" target="_top" xlink:title="mir_toolkit/common.h">
<polygon fill="white" stroke="black" points="246,-118 246,-137 356,-137 356,-118 246,-118"/>
<text text-anchor="middle" x="301" y="-125" font-family="Arial" font-size="10.00">mir_toolkit/common.h</text>
</a>
</g>
</g>
<!-- Node0&#45;&gt;Node3 -->
<g id="edge3" class="edge"><title>Node0&#45;&gt;Node3</title>
<path fill="none" stroke="midnightblue" d="M473.534,-179.476C433.585,-167.673 377.157,-151.001 339.852,-139.979"/>
<polygon fill="midnightblue" stroke="midnightblue" points="340.448,-136.506 329.866,-137.029 338.465,-143.219 340.448,-136.506"/>
</g>
<!-- Node5 -->
<g id="node6" class="node"><title>Node5</title>
<g id="a_node6"><a xlink:href="size_8h.html" target="_top" xlink:title="mir/geometry/size.h">
<polygon fill="white" stroke="black" points="374.5,-118 374.5,-137 477.5,-137 477.5,-118 374.5,-118"/>
<text text-anchor="middle" x="426" y="-125" font-family="Arial" font-size="10.00">mir/geometry/size.h</text>
</a>
</g>
</g>
<!-- Node0&#45;&gt;Node5 -->
<g id="edge5" class="edge"><title>Node0&#45;&gt;Node5</title>
<path fill="none" stroke="midnightblue" d="M500.386,-179.396C484.603,-168.597 462.913,-153.756 447.027,-142.887"/>
<polygon fill="midnightblue" stroke="midnightblue" points="448.663,-139.765 438.433,-137.007 444.71,-145.542 448.663,-139.765"/>
</g>
<!-- Node9 -->
<g id="node10" class="node"><title>Node9</title>
<g id="a_node10"><a xlink:href="fd_8h.html" target="_top" xlink:title="mir/fd.h">
<polygon fill="white" stroke="black" points="496,-118 496,-137 546,-137 546,-118 496,-118"/>
<text text-anchor="middle" x="521" y="-125" font-family="Arial" font-size="10.00">mir/fd.h</text>
</a>
</g>
</g>
<!-- Node0&#45;&gt;Node9 -->
<g id="edge10" class="edge"><title>Node0&#45;&gt;Node9</title>
<path fill="none" stroke="midnightblue" d="M521,-179.396C521,-170.064 521,-157.714 521,-147.517"/>
<polygon fill="midnightblue" stroke="midnightblue" points="524.5,-147.195 521,-137.195 517.5,-147.195 524.5,-147.195"/>
</g>
<!-- Node10 -->
<g id="node11" class="node"><title>Node10</title>
<polygon fill="white" stroke="#bfbfbf" points="548,-56.5 548,-75.5 600,-75.5 600,-56.5 548,-56.5"/>
<text text-anchor="middle" x="574" y="-63.5" font-family="Arial" font-size="10.00">memory</text>
</g>
<!-- Node0&#45;&gt;Node10 -->
<g id="edge12" class="edge"><title>Node0&#45;&gt;Node10</title>
<path fill="none" stroke="midnightblue" d="M532.555,-179.271C539.925,-169.564 549.155,-156.132 555,-143 563.278,-124.403 568.371,-101.573 571.174,-85.8168"/>
<polygon fill="midnightblue" stroke="midnightblue" points="574.659,-86.1901 572.822,-75.7557 567.751,-85.0579 574.659,-86.1901"/>
</g>
<!-- Node11 -->
<g id="node12" class="node"><title>Node11</title>
<polygon fill="white" stroke="#bfbfbf" points="602,-118 602,-137 648,-137 648,-118 602,-118"/>
<text text-anchor="middle" x="625" y="-125" font-family="Arial" font-size="10.00">chrono</text>
</g>
<!-- Node0&#45;&gt;Node11 -->
<g id="edge13" class="edge"><title>Node0&#45;&gt;Node11</title>
<path fill="none" stroke="midnightblue" d="M543.566,-179.396C561.007,-168.496 585.034,-153.479 602.466,-142.584"/>
<polygon fill="midnightblue" stroke="midnightblue" points="604.764,-145.275 611.389,-137.007 601.054,-139.339 604.764,-145.275"/>
</g>
<!-- Node12 -->
<g id="node13" class="node"><title>Node12</title>
<polygon fill="white" stroke="#bfbfbf" points="666,-118 666,-137 726,-137 726,-118 666,-118"/>
<text text-anchor="middle" x="696" y="-125" font-family="Arial" font-size="10.00">EGL/egl.h</text>
</g>
<!-- Node0&#45;&gt;Node12 -->
<g id="edge14" class="edge"><title>Node0&#45;&gt;Node12</title>
<path fill="none" stroke="midnightblue" d="M558.814,-179.463C586.103,-169.333 623.829,-155.325 657,-143 659.091,-142.223 661.244,-141.423 663.415,-140.616"/>
<polygon fill="midnightblue" stroke="midnightblue" points="664.75,-143.854 672.904,-137.089 662.311,-137.293 664.75,-143.854"/>
</g>
<!-- Node13 -->
<g id="node14" class="node"><title>Node13</title>
<polygon fill="white" stroke="#bfbfbf" points="744,-118 744,-137 818,-137 818,-118 744,-118"/>
<text text-anchor="middle" x="781" y="-125" font-family="Arial" font-size="10.00">EGL/eglext.h</text>
</g>
<!-- Node0&#45;&gt;Node13 -->
<g id="edge15" class="edge"><title>Node0&#45;&gt;Node13</title>
<path fill="none" stroke="midnightblue" d="M574.926,-181.929C618.366,-172.33 680.897,-157.889 735,-143 738.33,-142.084 741.782,-141.086 745.229,-140.057"/>
<polygon fill="midnightblue" stroke="midnightblue" points="746.291,-143.392 754.827,-137.117 744.241,-136.699 746.291,-143.392"/>
</g>
<!-- Node4 -->
<g id="node5" class="node"><title>Node4</title>
<g id="a_node5"><a xlink:href="deprecations_8h.html" target="_top" xlink:title="mir_toolkit/deprecations.h">
<polygon fill="white" stroke="black" points="212,-56.5 212,-75.5 340,-75.5 340,-56.5 212,-56.5"/>
<text text-anchor="middle" x="276" y="-63.5" font-family="Arial" font-size="10.00">mir_toolkit/deprecations.h</text>
</a>
</g>
</g>
<!-- Node3&#45;&gt;Node4 -->
<g id="edge4" class="edge"><title>Node3&#45;&gt;Node4</title>
<path fill="none" stroke="midnightblue" d="M297.418,-117.975C293.817,-109.404 288.154,-95.9269 283.556,-84.983"/>
<polygon fill="midnightblue" stroke="midnightblue" points="286.676,-83.3726 279.575,-75.5091 280.222,-86.0842 286.676,-83.3726"/>
</g>
<!-- Node6 -->
<g id="node7" class="node"><title>Node6</title>
<g id="a_node7"><a xlink:href="dimensions_8h.html" target="_top" xlink:title="mir/geometry/dimensions.h">
<polygon fill="white" stroke="black" points="358,-56.5 358,-75.5 492,-75.5 492,-56.5 358,-56.5"/>
<text text-anchor="middle" x="425" y="-63.5" font-family="Arial" font-size="10.00">mir/geometry/dimensions.h</text>
</a>
</g>
</g>
<!-- Node5&#45;&gt;Node6 -->
<g id="edge6" class="edge"><title>Node5&#45;&gt;Node6</title>
<path fill="none" stroke="midnightblue" d="M425.857,-117.975C425.716,-109.58 425.495,-96.4806 425.314,-85.6631"/>
<polygon fill="midnightblue" stroke="midnightblue" points="428.811,-85.4488 425.143,-75.5091 421.812,-85.5665 428.811,-85.4488"/>
</g>
<!-- Node8 -->
<g id="node9" class="node"><title>Node8</title>
<polygon fill="white" stroke="#bfbfbf" points="482,-0.5 482,-19.5 526,-19.5 526,-0.5 482,-0.5"/>
<text text-anchor="middle" x="504" y="-7.5" font-family="Arial" font-size="10.00">iosfwd</text>
</g>
<!-- Node5&#45;&gt;Node8 -->
<g id="edge9" class="edge"><title>Node5&#45;&gt;Node8</title>
<path fill="none" stroke="midnightblue" d="M448.704,-117.933C466.327,-109.966 489.615,-96.2512 501,-76 508.872,-61.9984 508.925,-43.4984 507.416,-29.8164"/>
<polygon fill="midnightblue" stroke="midnightblue" points="510.84,-29.0437 505.919,-19.6612 503.915,-30.0648 510.84,-29.0437"/>
</g>
<!-- Node7 -->
<g id="node8" class="node"><title>Node7</title>
<polygon fill="white" stroke="#bfbfbf" points="402,-0.5 402,-19.5 448,-19.5 448,-0.5 402,-0.5"/>
<text text-anchor="middle" x="425" y="-7.5" font-family="Arial" font-size="10.00">cstdint</text>
</g>
<!-- Node6&#45;&gt;Node7 -->
<g id="edge7" class="edge"><title>Node6&#45;&gt;Node7</title>
<path fill="none" stroke="midnightblue" d="M425,-56.083C425,-49.0059 425,-38.8611 425,-29.9865"/>
<polygon fill="midnightblue" stroke="midnightblue" points="428.5,-29.751 425,-19.7511 421.5,-29.7511 428.5,-29.751"/>
</g>
<!-- Node6&#45;&gt;Node8 -->
<g id="edge8" class="edge"><title>Node6&#45;&gt;Node8</title>
<path fill="none" stroke="midnightblue" d="M437.693,-56.324C449.901,-47.979 468.578,-35.2122 483.003,-25.3524"/>
<polygon fill="midnightblue" stroke="midnightblue" points="485.058,-28.1871 491.339,-19.6545 481.108,-22.4082 485.058,-28.1871"/>
</g>
<!-- Node9&#45;&gt;Node10 -->
<g id="edge11" class="edge"><title>Node9&#45;&gt;Node10</title>
<path fill="none" stroke="midnightblue" d="M528.594,-117.975C536.701,-108.873 549.735,-94.241 559.763,-82.983"/>
<polygon fill="midnightblue" stroke="midnightblue" points="562.383,-85.3043 566.42,-75.5091 557.156,-80.6483 562.383,-85.3043"/>
</g>
</g>
</svg>
