<?xml version="1.0" encoding="UTF-8" standalone="no"?>
<!DOCTYPE svg PUBLIC "-//W3C//DTD SVG 1.1//EN"
 "http://www.w3.org/Graphics/SVG/1.1/DTD/svg11.dtd">
<!-- Generated by graphviz version 2.40.1 (20161225.0304)
 -->
<!-- Title: include/client/mir_toolkit/version.h Pages: 1 -->
<svg width="331pt" height="195pt"
 viewBox="0.00 0.00 330.50 195.00" xmlns="http://www.w3.org/2000/svg" xmlns:xlink="http://www.w3.org/1999/xlink">
<g id="graph0" class="graph" transform="scale(1 1) rotate(0) translate(4 191)">
<title>include/client/mir_toolkit/version.h</title>
<polygon fill="#ffffff" stroke="transparent" points="-4,4 -4,-191 326.5,-191 326.5,4 -4,4"/>
<!-- Node2 -->
<g id="node1" class="node">
<title>Node2</title>
<polygon fill="#bfbfbf" stroke="#000000" points="77.5,-156.5 77.5,-186.5 178.5,-186.5 178.5,-156.5 77.5,-156.5"/>
<text text-anchor="start" x="85.5" y="-174.5" font-family="Arial" font-size="10.00" fill="#000000">include/client/mir</text>
<text text-anchor="middle" x="128" y="-163.5" font-family="Arial" font-size="10.00" fill="#000000">_toolkit/version.h</text>
</g>
<!-- Node3 -->
<g id="node2" class="node">
<title>Node3</title>
<g id="a_node2"><a xlink:href="window__spec_8h.html" target="_top" xlink:title="include/client/mir\l/client/window_spec.h">
<polygon fill="#ffffff" stroke="#000000" points="0,-84 0,-114 124,-114 124,-84 0,-84"/>
<text text-anchor="start" x="8" y="-102" font-family="Arial" font-size="10.00" fill="#000000">include/client/mir</text>
<text text-anchor="middle" x="62" y="-91" font-family="Arial" font-size="10.00" fill="#000000">/client/window_spec.h</text>
</a>
</g>
</g>
<!-- Node2&#45;&gt;Node3 -->
<g id="edge1" class="edge">
<title>Node2&#45;&gt;Node3</title>
<path fill="none" stroke="#191970" d="M107.5204,-149.0035C97.1561,-137.6184 84.8572,-124.1083 75.6577,-114.0028"/>
<polygon fill="#191970" stroke="#191970" points="105.0047,-151.4393 114.3248,-156.478 110.1811,-146.727 105.0047,-151.4393"/>
</g>
<!-- Node4 -->
<g id="node3" class="node">
<title>Node4</title>
<g id="a_node3"><a xlink:href="mir__client__library_8h.html" target="_top" xlink:title="include/client/mir\l_toolkit/mir_client\l_library.h">
<polygon fill="#ffffff" stroke="#000000" points="142.5,-78.5 142.5,-119.5 247.5,-119.5 247.5,-78.5 142.5,-78.5"/>
<text text-anchor="start" x="150.5" y="-107.5" font-family="Arial" font-size="10.00" fill="#000000">include/client/mir</text>
<text text-anchor="start" x="150.5" y="-96.5" font-family="Arial" font-size="10.00" fill="#000000">_toolkit/mir_client</text>
<text text-anchor="middle" x="195" y="-85.5" font-family="Arial" font-size="10.00" fill="#000000">_library.h</text>
</a>
</g>
</g>
<!-- Node2&#45;&gt;Node4 -->
<g id="edge2" class="edge">
<title>Node2&#45;&gt;Node4</title>
<path fill="none" stroke="#191970" d="M148.8142,-148.9772C157.517,-139.5599 167.5601,-128.6924 176.0538,-119.5015"/>
<polygon fill="#191970" stroke="#191970" points="146.099,-146.7583 141.8824,-156.478 151.2399,-151.5092 146.099,-146.7583"/>
</g>
<!-- Node5 -->
<g id="node4" class="node">
<title>Node5</title>
<g id="a_node4"><a xlink:href="toolkit_2debug_2surface_8h.html" target="_top" xlink:title="include/client/mir\l_toolkit/debug/surface.h">
<polygon fill="#ffffff" stroke="#000000" points="57,-6 57,-36 191,-36 191,-6 57,-6"/>
<text text-anchor="start" x="65" y="-24" font-family="Arial" font-size="10.00" fill="#000000">include/client/mir</text>
<text text-anchor="middle" x="124" y="-13" font-family="Arial" font-size="10.00" fill="#000000">_toolkit/debug/surface.h</text>
</a>
</g>
</g>
<!-- Node4&#45;&gt;Node5 -->
<g id="edge3" class="edge">
<title>Node4&#45;&gt;Node5</title>
<path fill="none" stroke="#191970" d="M169.2394,-70.6996C158.6507,-59.0669 146.8091,-46.0578 137.8977,-36.2679"/>
<polygon fill="#191970" stroke="#191970" points="166.6535,-73.0583 175.9733,-78.0974 171.8301,-68.3463 166.6535,-73.0583"/>
</g>
<!-- Node6 -->
<g id="node5" class="node">
<title>Node6</title>
<g id="a_node5"><a xlink:href="mir__prompt__session_8h.html" target="_top" xlink:title="include/client/mir\l_toolkit/mir_prompt\l_session.h">
<polygon fill="#ffffff" stroke="#000000" points="209.5,-.5 209.5,-41.5 322.5,-41.5 322.5,-.5 209.5,-.5"/>
<text text-anchor="start" x="217.5" y="-29.5" font-family="Arial" font-size="10.00" fill="#000000">include/client/mir</text>
<text text-anchor="start" x="217.5" y="-18.5" font-family="Arial" font-size="10.00" fill="#000000">_toolkit/mir_prompt</text>
<text text-anchor="middle" x="266" y="-7.5" font-family="Arial" font-size="10.00" fill="#000000">_session.h</text>
</a>
</g>
</g>
<!-- Node4&#45;&gt;Node6 -->
<g id="edge4" class="edge">
<title>Node4&#45;&gt;Node6</title>
<path fill="none" stroke="#191970" d="M220.7959,-70.6609C229.5185,-61.0783 239.0877,-50.5657 247.167,-41.6898"/>
<polygon fill="#191970" stroke="#191970" points="218.1699,-68.3463 214.0267,-78.0974 223.3465,-73.0583 218.1699,-68.3463"/>
</g>
</g>
</svg>
