<?xml version="1.0" encoding="UTF-8" standalone="no"?>
<!DOCTYPE svg PUBLIC "-//W3C//DTD SVG 1.1//EN"
 "http://www.w3.org/Graphics/SVG/1.1/DTD/svg11.dtd">
<!-- Generated by graphviz version 2.40.1 (20161225.0304)
 -->
<!-- Title: include/client/mir_toolkit/version.h Pages: 1 -->
<svg width="123pt" height="106pt"
 viewBox="0.00 0.00 123.00 106.00" xmlns="http://www.w3.org/2000/svg" xmlns:xlink="http://www.w3.org/1999/xlink">
<g id="graph0" class="graph" transform="scale(1 1) rotate(0) translate(4 102)">
<title>include/client/mir_toolkit/version.h</title>
<polygon fill="#ffffff" stroke="transparent" points="-4,4 -4,-102 119,-102 119,4 -4,4"/>
<!-- Node0 -->
<g id="node1" class="node">
<title>Node0</title>
<polygon fill="#bfbfbf" stroke="#000000" points="12,-67.5 12,-97.5 103,-97.5 103,-67.5 12,-67.5"/>
<text text-anchor="start" x="20" y="-85.5" font-family="Arial" font-size="10.00" fill="#000000">include/client/mir</text>
<text text-anchor="middle" x="57.5" y="-74.5" font-family="Arial" font-size="10.00" fill="#000000">_toolkit/version.h</text>
</g>
<!-- Node1 -->
<g id="node2" class="node">
<title>Node1</title>
<g id="a_node2"><a xlink:href="mir__version__number_8h.html" target="_top" xlink:title="mir_toolkit/mir_version\l_number.h">
<polygon fill="#ffffff" stroke="#000000" points="0,-.5 0,-30.5 115,-30.5 115,-.5 0,-.5"/>
<text text-anchor="start" x="8" y="-18.5" font-family="Arial" font-size="10.00" fill="#000000">mir_toolkit/mir_version</text>
<text text-anchor="middle" x="57.5" y="-7.5" font-family="Arial" font-size="10.00" fill="#000000">_number.h</text>
</a>
</g>
</g>
<!-- Node0&#45;&gt;Node1 -->
<g id="edge1" class="edge">
<title>Node0&#45;&gt;Node1</title>
<path fill="none" stroke="#191970" d="M57.5,-67.2967C57.5,-59.5013 57.5,-49.7991 57.5,-40.9064"/>
<polygon fill="#191970" stroke="#191970" points="61.0001,-40.6431 57.5,-30.6432 54.0001,-40.6432 61.0001,-40.6431"/>
</g>
</g>
</svg>
