<?xml version="1.0" encoding="UTF-8" standalone="no"?>
<!DOCTYPE svg PUBLIC "-//W3C//DTD SVG 1.1//EN"
 "http://www.w3.org/Graphics/SVG/1.1/DTD/svg11.dtd">
<!-- Generated by graphviz version 2.38.0 (20140413.2041)
 -->
<!-- Title: include/platform/mir/client/client_platform_factory.h Pages: 1 -->
<svg width="158pt" height="162pt"
 viewBox="0.00 0.00 157.50 162.00" xmlns="http://www.w3.org/2000/svg" xmlns:xlink="http://www.w3.org/1999/xlink">
<g id="graph0" class="graph" transform="scale(1 1) rotate(0) translate(4 158)">
<title>include/platform/mir/client/client_platform_factory.h</title>
<polygon fill="white" stroke="none" points="-4,4 -4,-158 153.5,-158 153.5,4 -4,4"/>
<!-- Node0 -->
<g id="node1" class="node"><title>Node0</title>
<polygon fill="#bfbfbf" stroke="black" points="39.5,-112.5 39.5,-153.5 149.5,-153.5 149.5,-112.5 39.5,-112.5"/>
<text text-anchor="start" x="47.5" y="-141.5" font-family="Arial" font-size="10.00">include/platform/mir</text>
<text text-anchor="start" x="47.5" y="-130.5" font-family="Arial" font-size="10.00">/client/client_platform</text>
<text text-anchor="middle" x="94.5" y="-119.5" font-family="Arial" font-size="10.00">_factory.h</text>
</g>
<!-- Node1 -->
<g id="node2" class="node"><title>Node1</title>
<g id="a_node2"><a xlink:href="module__deleter_8h.html" target="_top" xlink:title="mir/module_deleter.h">
<polygon fill="white" stroke="black" points="0,-56.5 0,-75.5 107,-75.5 107,-56.5 0,-56.5"/>
<text text-anchor="middle" x="53.5" y="-63.5" font-family="Arial" font-size="10.00">mir/module_deleter.h</text>
</a>
</g>
</g>
<!-- Node0&#45;&gt;Node1 -->
<g id="edge1" class="edge"><title>Node0&#45;&gt;Node1</title>
<path fill="none" stroke="midnightblue" d="M82.1986,-112.498C76.517,-103.49 69.8294,-92.8881 64.3399,-84.1852"/>
<polygon fill="midnightblue" stroke="midnightblue" points="67.2531,-82.2432 58.9577,-75.6525 61.3325,-85.9778 67.2531,-82.2432"/>
</g>
<!-- Node2 -->
<g id="node3" class="node"><title>Node2</title>
<polygon fill="white" stroke="#bfbfbf" points="68.5,-0.5 68.5,-19.5 120.5,-19.5 120.5,-0.5 68.5,-0.5"/>
<text text-anchor="middle" x="94.5" y="-7.5" font-family="Arial" font-size="10.00">memory</text>
</g>
<!-- Node0&#45;&gt;Node2 -->
<g id="edge3" class="edge"><title>Node0&#45;&gt;Node2</title>
<path fill="none" stroke="midnightblue" d="M105.345,-112.455C112.491,-97.1862 119.799,-75.3777 115.5,-56 113.376,-46.426 108.993,-36.4756 104.779,-28.3735"/>
<polygon fill="midnightblue" stroke="midnightblue" points="107.798,-26.6012 99.8841,-19.557 101.678,-29.9989 107.798,-26.6012"/>
</g>
<!-- Node1&#45;&gt;Node2 -->
<g id="edge2" class="edge"><title>Node1&#45;&gt;Node2</title>
<path fill="none" stroke="midnightblue" d="M60.2703,-56.083C66.0616,-48.4554 74.5585,-37.2645 81.6375,-27.9408"/>
<polygon fill="midnightblue" stroke="midnightblue" points="84.5961,-29.8321 87.8557,-19.7511 79.021,-25.5991 84.5961,-29.8321"/>
</g>
</g>
</svg>
