<?xml version="1.0" encoding="UTF-8" standalone="no"?>
<!DOCTYPE svg PUBLIC "-//W3C//DTD SVG 1.1//EN"
 "http://www.w3.org/Graphics/SVG/1.1/DTD/svg11.dtd">
<!-- Generated by graphviz version 2.38.0 (20140413.2041)
 -->
<!-- Title: include/client/mir/client/surface.h Pages: 1 -->
<svg width="1865pt" height="441pt"
 viewBox="0.00 0.00 1865.00 441.00" xmlns="http://www.w3.org/2000/svg" xmlns:xlink="http://www.w3.org/1999/xlink">
<g id="graph0" class="graph" transform="scale(1 1) rotate(0) translate(4 437)">
<title>include/client/mir/client/surface.h</title>
<polygon fill="white" stroke="none" points="-4,4 -4,-437 1861,-437 1861,4 -4,4"/>
<!-- Node0 -->
<g id="node1" class="node"><title>Node0</title>
<polygon fill="#bfbfbf" stroke="black" points="47,-402.5 47,-432.5 137,-432.5 137,-402.5 47,-402.5"/>
<text text-anchor="start" x="55" y="-420.5" font-family="Arial" font-size="10.00">include/client/mir</text>
<text text-anchor="middle" x="92" y="-409.5" font-family="Arial" font-size="10.00">/client/surface.h</text>
</g>
<!-- Node1 -->
<g id="node2" class="node"><title>Node1</title>
<g id="a_node2"><a xlink:href="mir__render__surface_8h.html" target="_top" xlink:title="mir_toolkit/rs/mir\l_render_surface.h">
<polygon fill="white" stroke="black" points="0,-335.5 0,-365.5 94,-365.5 94,-335.5 0,-335.5"/>
<text text-anchor="start" x="8" y="-353.5" font-family="Arial" font-size="10.00">mir_toolkit/rs/mir</text>
<text text-anchor="middle" x="47" y="-342.5" font-family="Arial" font-size="10.00">_render_surface.h</text>
</a>
</g>
</g>
<!-- Node0&#45;&gt;Node1 -->
<g id="edge1" class="edge"><title>Node0&#45;&gt;Node1</title>
<path fill="none" stroke="midnightblue" d="M82.2357,-402.396C76.4567,-394.049 69.0065,-383.287 62.4463,-373.811"/>
<polygon fill="midnightblue" stroke="midnightblue" points="65.3151,-371.806 56.7453,-365.577 59.5597,-375.791 65.3151,-371.806"/>
</g>
<!-- Node25 -->
<g id="node26" class="node"><title>Node25</title>
<polygon fill="white" stroke="#bfbfbf" points="112,-341 112,-360 164,-360 164,-341 112,-341"/>
<text text-anchor="middle" x="138" y="-348" font-family="Arial" font-size="10.00">memory</text>
</g>
<!-- Node0&#45;&gt;Node25 -->
<g id="edge48" class="edge"><title>Node0&#45;&gt;Node25</title>
<path fill="none" stroke="midnightblue" d="M101.981,-402.396C109.012,-392.462 118.462,-379.108 125.918,-368.572"/>
<polygon fill="midnightblue" stroke="midnightblue" points="128.927,-370.379 131.847,-360.195 123.213,-366.335 128.927,-370.379"/>
</g>
<!-- Node2 -->
<g id="node3" class="node"><title>Node2</title>
<g id="a_node3"><a xlink:href="client__types_8h.html" target="_top" xlink:title="mir_toolkit/client\l_types.h">
<polygon fill="white" stroke="black" points="64,-268.5 64,-298.5 152,-298.5 152,-268.5 64,-268.5"/>
<text text-anchor="start" x="72" y="-286.5" font-family="Arial" font-size="10.00">mir_toolkit/client</text>
<text text-anchor="middle" x="108" y="-275.5" font-family="Arial" font-size="10.00">_types.h</text>
</a>
</g>
</g>
<!-- Node1&#45;&gt;Node2 -->
<g id="edge2" class="edge"><title>Node1&#45;&gt;Node2</title>
<path fill="none" stroke="midnightblue" d="M60.2361,-335.396C68.3096,-326.793 78.7894,-315.626 87.8749,-305.945"/>
<polygon fill="midnightblue" stroke="midnightblue" points="90.4987,-308.264 94.7897,-298.577 85.3944,-303.473 90.4987,-308.264"/>
</g>
<!-- Node7 -->
<g id="node8" class="node"><title>Node7</title>
<g id="a_node8"><a xlink:href="deprecations_8h.html" target="_top" xlink:title="mir_toolkit/deprecations.h">
<polygon fill="white" stroke="black" points="127,-62 127,-81 255,-81 255,-62 127,-62"/>
<text text-anchor="middle" x="191" y="-69" font-family="Arial" font-size="10.00">mir_toolkit/deprecations.h</text>
</a>
</g>
</g>
<!-- Node1&#45;&gt;Node7 -->
<g id="edge47" class="edge"><title>Node1&#45;&gt;Node7</title>
<path fill="none" stroke="midnightblue" d="M40.1856,-335.293C22.8173,-296.797 -18.4327,-188.951 30,-123 49.9489,-95.8356 84.4843,-82.8876 116.467,-76.8645"/>
<polygon fill="midnightblue" stroke="midnightblue" points="117.455,-80.2477 126.739,-75.143 116.298,-73.344 117.455,-80.2477"/>
</g>
<!-- Node3 -->
<g id="node4" class="node"><title>Node3</title>
<g id="a_node4"><a xlink:href="toolkit_2events_2event_8h.html" target="_top" xlink:title="mir_toolkit/events\l/event.h">
<polygon fill="white" stroke="black" points="811,-201.5 811,-231.5 903,-231.5 903,-201.5 811,-201.5"/>
<text text-anchor="start" x="819" y="-219.5" font-family="Arial" font-size="10.00">mir_toolkit/events</text>
<text text-anchor="middle" x="857" y="-208.5" font-family="Arial" font-size="10.00">/event.h</text>
</a>
</g>
</g>
<!-- Node2&#45;&gt;Node3 -->
<g id="edge3" class="edge"><title>Node2&#45;&gt;Node3</title>
<path fill="none" stroke="midnightblue" d="M152.057,-278.677C280.851,-267.5 656.648,-234.887 800.281,-222.422"/>
<polygon fill="midnightblue" stroke="midnightblue" points="800.961,-225.876 810.621,-221.525 800.355,-218.903 800.961,-225.876"/>
</g>
<!-- Node4 -->
<g id="node5" class="node"><title>Node4</title>
<polygon fill="white" stroke="#bfbfbf" points="1592.5,-134.5 1592.5,-153.5 1643.5,-153.5 1643.5,-134.5 1592.5,-134.5"/>
<text text-anchor="middle" x="1618" y="-141.5" font-family="Arial" font-size="10.00">stddef.h</text>
</g>
<!-- Node2&#45;&gt;Node4 -->
<g id="edge46" class="edge"><title>Node2&#45;&gt;Node4</title>
<path fill="none" stroke="midnightblue" d="M152.271,-281.685C367.604,-277.312 1306.34,-253.418 1583,-165 1587.83,-163.457 1592.73,-161.185 1597.27,-158.722"/>
<polygon fill="midnightblue" stroke="midnightblue" points="1599.14,-161.68 1605.96,-153.566 1595.57,-155.661 1599.14,-161.68"/>
</g>
<!-- Node6 -->
<g id="node7" class="node"><title>Node6</title>
<g id="a_node7"><a xlink:href="common_8h.html" target="_top" xlink:title="mir_toolkit/common.h">
<polygon fill="white" stroke="black" points="53,-134.5 53,-153.5 163,-153.5 163,-134.5 53,-134.5"/>
<text text-anchor="middle" x="108" y="-141.5" font-family="Arial" font-size="10.00">mir_toolkit/common.h</text>
</a>
</g>
</g>
<!-- Node2&#45;&gt;Node6 -->
<g id="edge44" class="edge"><title>Node2&#45;&gt;Node6</title>
<path fill="none" stroke="midnightblue" d="M108,-268.303C108,-243.336 108,-191.58 108,-163.722"/>
<polygon fill="midnightblue" stroke="midnightblue" points="111.5,-163.701 108,-153.701 104.5,-163.701 111.5,-163.701"/>
</g>
<!-- Node2&#45;&gt;Node7 -->
<g id="edge45" class="edge"><title>Node2&#45;&gt;Node7</title>
<path fill="none" stroke="midnightblue" d="M93.5019,-268.166C65.5891,-238.807 10.0234,-170.598 44,-123 60.8256,-99.429 89.3785,-86.7457 116.869,-79.964"/>
<polygon fill="midnightblue" stroke="midnightblue" points="117.926,-83.3144 126.925,-77.7232 116.404,-76.4819 117.926,-83.3144"/>
</g>
<!-- Node3&#45;&gt;Node4 -->
<g id="edge4" class="edge"><title>Node3&#45;&gt;Node4</title>
<path fill="none" stroke="midnightblue" d="M903.2,-213.487C1052.82,-206.8 1518.2,-184.641 1583,-165 1587.85,-163.529 1592.76,-161.29 1597.3,-158.834"/>
<polygon fill="midnightblue" stroke="midnightblue" points="1599.18,-161.789 1605.99,-153.667 1595.6,-155.773 1599.18,-161.789"/>
</g>
<!-- Node5 -->
<g id="node6" class="node"><title>Node5</title>
<polygon fill="white" stroke="#bfbfbf" points="1266.5,-0.5 1266.5,-19.5 1315.5,-19.5 1315.5,-0.5 1266.5,-0.5"/>
<text text-anchor="middle" x="1291" y="-7.5" font-family="Arial" font-size="10.00">stdint.h</text>
</g>
<!-- Node3&#45;&gt;Node5 -->
<g id="edge5" class="edge"><title>Node3&#45;&gt;Node5</title>
<path fill="none" stroke="midnightblue" d="M903.051,-213.841C1013.78,-209.379 1287.81,-195.351 1315,-165 1376.51,-96.3333 1234.67,-94.0502 1230,-87 1222.39,-75.514 1223.79,-68.2987 1230,-56 1236.81,-42.5199 1249.77,-32.083 1262,-24.6696"/>
<polygon fill="midnightblue" stroke="midnightblue" points="1264.07,-27.5214 1271.09,-19.5896 1260.66,-21.4099 1264.07,-27.5214"/>
</g>
<!-- Node3&#45;&gt;Node6 -->
<g id="edge6" class="edge"><title>Node3&#45;&gt;Node6</title>
<path fill="none" stroke="midnightblue" d="M810.821,-215.367C700.379,-214.334 412.637,-207.423 177,-165 165.628,-162.953 153.451,-159.768 142.541,-156.537"/>
<polygon fill="midnightblue" stroke="midnightblue" points="143.523,-153.178 132.936,-153.589 141.468,-159.87 143.523,-153.178"/>
</g>
<!-- Node3&#45;&gt;Node7 -->
<g id="edge8" class="edge"><title>Node3&#45;&gt;Node7</title>
<path fill="none" stroke="midnightblue" d="M810.697,-215.045C670.075,-213.235 254.826,-204.558 210,-165 189.265,-146.702 187.606,-112.356 188.887,-91.0561"/>
<polygon fill="midnightblue" stroke="midnightblue" points="192.381,-91.2722 189.768,-81.0046 185.408,-90.6605 192.381,-91.2722"/>
</g>
<!-- Node8 -->
<g id="node9" class="node"><title>Node8</title>
<g id="a_node9"><a xlink:href="input__event_8h.html" target="_top" xlink:title="mir_toolkit/events\l/input/input_event.h">
<polygon fill="white" stroke="black" points="1362.5,-129 1362.5,-159 1463.5,-159 1463.5,-129 1362.5,-129"/>
<text text-anchor="start" x="1370.5" y="-147" font-family="Arial" font-size="10.00">mir_toolkit/events</text>
<text text-anchor="middle" x="1413" y="-136" font-family="Arial" font-size="10.00">/input/input_event.h</text>
</a>
</g>
</g>
<!-- Node3&#45;&gt;Node8 -->
<g id="edge9" class="edge"><title>Node3&#45;&gt;Node8</title>
<path fill="none" stroke="midnightblue" d="M903.328,-213.512C989.822,-209.312 1180.91,-197.127 1339,-165 1343.6,-164.065 1348.34,-162.937 1353.11,-161.699"/>
<polygon fill="midnightblue" stroke="midnightblue" points="1354.14,-165.045 1362.86,-159.031 1352.29,-158.293 1354.14,-165.045"/>
</g>
<!-- Node15 -->
<g id="node16" class="node"><title>Node15</title>
<g id="a_node16"><a xlink:href="resize__event_8h.html" target="_top" xlink:title="mir_toolkit/events\l/resize_event.h">
<polygon fill="white" stroke="black" points="586,-129 586,-159 678,-159 678,-129 586,-129"/>
<text text-anchor="start" x="594" y="-147" font-family="Arial" font-size="10.00">mir_toolkit/events</text>
<text text-anchor="middle" x="632" y="-136" font-family="Arial" font-size="10.00">/resize_event.h</text>
</a>
</g>
</g>
<!-- Node3&#45;&gt;Node15 -->
<g id="edge20" class="edge"><title>Node3&#45;&gt;Node15</title>
<path fill="none" stroke="midnightblue" d="M810.873,-204.627C774.38,-194.819 722.587,-179.715 678,-165 675.552,-164.192 673.048,-163.348 670.534,-162.482"/>
<polygon fill="midnightblue" stroke="midnightblue" points="671.466,-159.1 660.871,-159.071 669.136,-165.7 671.466,-159.1"/>
</g>
<!-- Node16 -->
<g id="node17" class="node"><title>Node16</title>
<g id="a_node17"><a xlink:href="surface__event_8h.html" target="_top" xlink:title="mir_toolkit/events\l/surface_event.h">
<polygon fill="white" stroke="black" points="219,-129 219,-159 311,-159 311,-129 219,-129"/>
<text text-anchor="start" x="227" y="-147" font-family="Arial" font-size="10.00">mir_toolkit/events</text>
<text text-anchor="middle" x="265" y="-136" font-family="Arial" font-size="10.00">/surface_event.h</text>
</a>
</g>
</g>
<!-- Node3&#45;&gt;Node16 -->
<g id="edge22" class="edge"><title>Node3&#45;&gt;Node16</title>
<path fill="none" stroke="midnightblue" d="M810.897,-215.181C715.886,-213.707 492.573,-205.845 311,-165 307.524,-164.218 303.969,-163.275 300.444,-162.23"/>
<polygon fill="midnightblue" stroke="midnightblue" points="301.275,-158.82 290.683,-159.063 299.114,-165.478 301.275,-158.82"/>
</g>
<!-- Node17 -->
<g id="node18" class="node"><title>Node17</title>
<g id="a_node18"><a xlink:href="window__event_8h.html" target="_top" xlink:title="mir_toolkit/events\l/window_event.h">
<polygon fill="white" stroke="black" points="696,-129 696,-159 788,-159 788,-129 696,-129"/>
<text text-anchor="start" x="704" y="-147" font-family="Arial" font-size="10.00">mir_toolkit/events</text>
<text text-anchor="middle" x="742" y="-136" font-family="Arial" font-size="10.00">/window_event.h</text>
</a>
</g>
</g>
<!-- Node3&#45;&gt;Node17 -->
<g id="edge25" class="edge"><title>Node3&#45;&gt;Node17</title>
<path fill="none" stroke="midnightblue" d="M828.478,-201.403C810.008,-190.932 786.276,-176.51 768.269,-164.87"/>
<polygon fill="midnightblue" stroke="midnightblue" points="769.714,-161.632 759.433,-159.073 765.874,-167.485 769.714,-161.632"/>
</g>
<!-- Node18 -->
<g id="node19" class="node"><title>Node18</title>
<g id="a_node19"><a xlink:href="orientation__event_8h.html" target="_top" xlink:title="mir_toolkit/events\l/orientation_event.h">
<polygon fill="white" stroke="black" points="806.5,-129 806.5,-159 907.5,-159 907.5,-129 806.5,-129"/>
<text text-anchor="start" x="814.5" y="-147" font-family="Arial" font-size="10.00">mir_toolkit/events</text>
<text text-anchor="middle" x="857" y="-136" font-family="Arial" font-size="10.00">/orientation_event.h</text>
</a>
</g>
</g>
<!-- Node3&#45;&gt;Node18 -->
<g id="edge27" class="edge"><title>Node3&#45;&gt;Node18</title>
<path fill="none" stroke="midnightblue" d="M851.451,-201.233C850.249,-192.06 849.949,-179.905 850.551,-169.244"/>
<polygon fill="midnightblue" stroke="midnightblue" points="854.041,-169.52 851.454,-159.246 847.069,-168.89 854.041,-169.52"/>
</g>
<!-- Node19 -->
<g id="node20" class="node"><title>Node19</title>
<g id="a_node20"><a xlink:href="prompt__session__event_8h.html" target="_top" xlink:title="mir_toolkit/events\l/prompt_session_event.h">
<polygon fill="white" stroke="black" points="925.5,-129 925.5,-159 1050.5,-159 1050.5,-129 925.5,-129"/>
<text text-anchor="start" x="933.5" y="-147" font-family="Arial" font-size="10.00">mir_toolkit/events</text>
<text text-anchor="middle" x="988" y="-136" font-family="Arial" font-size="10.00">/prompt_session_event.h</text>
</a>
</g>
</g>
<!-- Node3&#45;&gt;Node19 -->
<g id="edge29" class="edge"><title>Node3&#45;&gt;Node19</title>
<path fill="none" stroke="midnightblue" d="M877.669,-201.403C896.398,-190.548 924.291,-175.446 947.407,-163.6"/>
<polygon fill="midnightblue" stroke="midnightblue" points="948.994,-166.72 956.327,-159.073 945.826,-160.478 948.994,-166.72"/>
</g>
<!-- Node20 -->
<g id="node21" class="node"><title>Node20</title>
<g id="a_node21"><a xlink:href="keymap__event_8h.html" target="_top" xlink:title="mir_toolkit/events\l/keymap_event.h">
<polygon fill="white" stroke="black" points="1482,-129 1482,-159 1574,-159 1574,-129 1482,-129"/>
<text text-anchor="start" x="1490" y="-147" font-family="Arial" font-size="10.00">mir_toolkit/events</text>
<text text-anchor="middle" x="1528" y="-136" font-family="Arial" font-size="10.00">/keymap_event.h</text>
</a>
</g>
</g>
<!-- Node3&#45;&gt;Node20 -->
<g id="edge31" class="edge"><title>Node3&#45;&gt;Node20</title>
<path fill="none" stroke="midnightblue" d="M903.049,-215.884C1005.32,-215.691 1258.02,-210.043 1464,-165 1467.75,-164.181 1471.58,-163.169 1475.43,-162.038"/>
<polygon fill="midnightblue" stroke="midnightblue" points="1476.49,-165.374 1484.97,-159.027 1474.38,-158.699 1476.49,-165.374"/>
</g>
<!-- Node21 -->
<g id="node22" class="node"><title>Node21</title>
<g id="a_node22"><a xlink:href="input__configuration__event_8h.html" target="_top" xlink:title="mir_toolkit/events\l/input_configuration\l_event.h">
<polygon fill="white" stroke="black" points="329.5,-123.5 329.5,-164.5 430.5,-164.5 430.5,-123.5 329.5,-123.5"/>
<text text-anchor="start" x="337.5" y="-152.5" font-family="Arial" font-size="10.00">mir_toolkit/events</text>
<text text-anchor="start" x="337.5" y="-141.5" font-family="Arial" font-size="10.00">/input_configuration</text>
<text text-anchor="middle" x="380" y="-130.5" font-family="Arial" font-size="10.00">_event.h</text>
</a>
</g>
</g>
<!-- Node3&#45;&gt;Node21 -->
<g id="edge34" class="edge"><title>Node3&#45;&gt;Node21</title>
<path fill="none" stroke="midnightblue" d="M810.91,-213.372C733.748,-208.938 574.18,-196.573 438.253,-166.822"/>
<polygon fill="midnightblue" stroke="midnightblue" points="438.616,-163.317 428.094,-164.556 437.092,-170.149 438.616,-163.317"/>
</g>
<!-- Node22 -->
<g id="node23" class="node"><title>Node22</title>
<g id="a_node23"><a xlink:href="surface__output__event_8h.html" target="_top" xlink:title="mir_toolkit/events\l/surface_output_event.h">
<polygon fill="white" stroke="black" points="448.5,-129 448.5,-159 567.5,-159 567.5,-129 448.5,-129"/>
<text text-anchor="start" x="456.5" y="-147" font-family="Arial" font-size="10.00">mir_toolkit/events</text>
<text text-anchor="middle" x="508" y="-136" font-family="Arial" font-size="10.00">/surface_output_event.h</text>
</a>
</g>
</g>
<!-- Node3&#45;&gt;Node22 -->
<g id="edge37" class="edge"><title>Node3&#45;&gt;Node22</title>
<path fill="none" stroke="midnightblue" d="M810.78,-209.601C753.244,-201.271 652.641,-184.843 568,-165 563.647,-163.98 559.161,-162.853 554.688,-161.67"/>
<polygon fill="midnightblue" stroke="midnightblue" points="555.545,-158.275 544.976,-159.008 553.695,-165.027 555.545,-158.275"/>
</g>
<!-- Node23 -->
<g id="node24" class="node"><title>Node23</title>
<g id="a_node24"><a xlink:href="window__output__event_8h.html" target="_top" xlink:title="mir_toolkit/events\l/window_output_event.h">
<polygon fill="white" stroke="black" points="1068.5,-129 1068.5,-159 1187.5,-159 1187.5,-129 1068.5,-129"/>
<text text-anchor="start" x="1076.5" y="-147" font-family="Arial" font-size="10.00">mir_toolkit/events</text>
<text text-anchor="middle" x="1128" y="-136" font-family="Arial" font-size="10.00">/window_output_event.h</text>
</a>
</g>
</g>
<!-- Node3&#45;&gt;Node23 -->
<g id="edge40" class="edge"><title>Node3&#45;&gt;Node23</title>
<path fill="none" stroke="midnightblue" d="M903.188,-202.823C942.606,-192.961 1000.53,-178.694 1051,-165 1054.77,-163.978 1058.64,-162.902 1062.56,-161.802"/>
<polygon fill="midnightblue" stroke="midnightblue" points="1063.69,-165.122 1072.36,-159.031 1061.78,-158.386 1063.69,-165.122"/>
</g>
<!-- Node24 -->
<g id="node25" class="node"><title>Node24</title>
<g id="a_node25"><a xlink:href="input__device__state__event_8h.html" target="_top" xlink:title="mir_toolkit/events\l/input_device_state\l_event.h">
<polygon fill="white" stroke="black" points="1206,-123.5 1206,-164.5 1306,-164.5 1306,-123.5 1206,-123.5"/>
<text text-anchor="start" x="1214" y="-152.5" font-family="Arial" font-size="10.00">mir_toolkit/events</text>
<text text-anchor="start" x="1214" y="-141.5" font-family="Arial" font-size="10.00">/input_device_state</text>
<text text-anchor="middle" x="1256" y="-130.5" font-family="Arial" font-size="10.00">_event.h</text>
</a>
</g>
</g>
<!-- Node3&#45;&gt;Node24 -->
<g id="edge42" class="edge"><title>Node3&#45;&gt;Node24</title>
<path fill="none" stroke="midnightblue" d="M903.177,-210.665C967.659,-203.789 1087.65,-189.253 1188,-165 1190.62,-164.367 1193.29,-163.667 1195.98,-162.92"/>
<polygon fill="midnightblue" stroke="midnightblue" points="1197.17,-166.218 1205.78,-160.043 1195.2,-159.502 1197.17,-166.218"/>
</g>
<!-- Node6&#45;&gt;Node7 -->
<g id="edge7" class="edge"><title>Node6&#45;&gt;Node7</title>
<path fill="none" stroke="midnightblue" d="M118.177,-134.355C131.743,-122.833 155.983,-102.243 172.749,-88.0022"/>
<polygon fill="midnightblue" stroke="midnightblue" points="175.383,-90.3568 180.739,-81.2154 170.852,-85.0217 175.383,-90.3568"/>
</g>
<!-- Node8&#45;&gt;Node3 -->
<g id="edge10" class="edge"><title>Node8&#45;&gt;Node3</title>
<path fill="none" stroke="midnightblue" d="M1380.54,-159.031C1372.9,-161.304 1364.75,-163.425 1357,-165 1198.35,-197.241 1006.47,-209.398 913.177,-213.556"/>
<polygon fill="midnightblue" stroke="midnightblue" points="912.948,-210.063 903.108,-213.991 913.25,-217.056 912.948,-210.063"/>
</g>
<!-- Node8&#45;&gt;Node5 -->
<g id="edge13" class="edge"><title>Node8&#45;&gt;Node5</title>
<path fill="none" stroke="midnightblue" d="M1435.15,-128.806C1459.71,-111.304 1493.46,-80.8258 1474,-56 1455.94,-32.9591 1373.7,-20.141 1325.83,-14.5129"/>
<polygon fill="midnightblue" stroke="midnightblue" points="1325.94,-11.0024 1315.61,-13.3581 1325.15,-17.9582 1325.94,-11.0024"/>
</g>
<!-- Node9 -->
<g id="node10" class="node"><title>Node9</title>
<g id="a_node10"><a xlink:href="mir__input__device__types_8h.html" target="_top" xlink:title="mir_toolkit/mir_input\l_device_types.h">
<polygon fill="white" stroke="black" points="1239,-56.5 1239,-86.5 1343,-86.5 1343,-56.5 1239,-56.5"/>
<text text-anchor="start" x="1247" y="-74.5" font-family="Arial" font-size="10.00">mir_toolkit/mir_input</text>
<text text-anchor="middle" x="1291" y="-63.5" font-family="Arial" font-size="10.00">_device_types.h</text>
</a>
</g>
</g>
<!-- Node8&#45;&gt;Node9 -->
<g id="edge11" class="edge"><title>Node8&#45;&gt;Node9</title>
<path fill="none" stroke="midnightblue" d="M1388.6,-128.903C1370.15,-118.24 1344.61,-103.479 1324.28,-91.7323"/>
<polygon fill="midnightblue" stroke="midnightblue" points="1325.76,-88.5459 1315.35,-86.5729 1322.26,-94.6067 1325.76,-88.5459"/>
</g>
<!-- Node10 -->
<g id="node11" class="node"><title>Node10</title>
<polygon fill="white" stroke="#bfbfbf" points="1544,-0.5 1544,-19.5 1600,-19.5 1600,-0.5 1544,-0.5"/>
<text text-anchor="middle" x="1572" y="-7.5" font-family="Arial" font-size="10.00">stdbool.h</text>
</g>
<!-- Node8&#45;&gt;Node10 -->
<g id="edge14" class="edge"><title>Node8&#45;&gt;Node10</title>
<path fill="none" stroke="midnightblue" d="M1433.76,-128.903C1449.55,-117.946 1471.61,-102.117 1490,-87 1513.75,-67.4749 1539.5,-43.0174 1555.68,-27.2053"/>
<polygon fill="midnightblue" stroke="midnightblue" points="1558.54,-29.3048 1563.22,-19.7966 1553.63,-24.3149 1558.54,-29.3048"/>
</g>
<!-- Node11 -->
<g id="node12" class="node"><title>Node11</title>
<g id="a_node12"><a xlink:href="touch__event_8h.html" target="_top" xlink:title="mir_toolkit/events\l/input/touch_event.h">
<polygon fill="white" stroke="black" points="1361,-56.5 1361,-86.5 1465,-86.5 1465,-56.5 1361,-56.5"/>
<text text-anchor="start" x="1369" y="-74.5" font-family="Arial" font-size="10.00">mir_toolkit/events</text>
<text text-anchor="middle" x="1413" y="-63.5" font-family="Arial" font-size="10.00">/input/touch_event.h</text>
</a>
</g>
</g>
<!-- Node8&#45;&gt;Node11 -->
<g id="edge15" class="edge"><title>Node8&#45;&gt;Node11</title>
<path fill="none" stroke="midnightblue" d="M1413,-128.733C1413,-119.655 1413,-107.658 1413,-97.0773"/>
<polygon fill="midnightblue" stroke="midnightblue" points="1416.5,-96.7455 1413,-86.7455 1409.5,-96.7455 1416.5,-96.7455"/>
</g>
<!-- Node12 -->
<g id="node13" class="node"><title>Node12</title>
<g id="a_node13"><a xlink:href="keyboard__event_8h.html" target="_top" xlink:title="mir_toolkit/events\l/input/keyboard_event.h">
<polygon fill="white" stroke="black" points="1686.5,-56.5 1686.5,-86.5 1805.5,-86.5 1805.5,-56.5 1686.5,-56.5"/>
<text text-anchor="start" x="1694.5" y="-74.5" font-family="Arial" font-size="10.00">mir_toolkit/events</text>
<text text-anchor="middle" x="1746" y="-63.5" font-family="Arial" font-size="10.00">/input/keyboard_event.h</text>
</a>
</g>
</g>
<!-- Node8&#45;&gt;Node12 -->
<g id="edge16" class="edge"><title>Node8&#45;&gt;Node12</title>
<path fill="none" stroke="midnightblue" d="M1452.45,-128.931C1459.25,-126.769 1466.29,-124.697 1473,-123 1559.61,-101.087 1585.44,-104.384 1676.41,-87.2513"/>
<polygon fill="midnightblue" stroke="midnightblue" points="1677.16,-90.6722 1686.32,-85.3536 1675.84,-83.7972 1677.16,-90.6722"/>
</g>
<!-- Node14 -->
<g id="node15" class="node"><title>Node14</title>
<g id="a_node15"><a xlink:href="pointer__event_8h.html" target="_top" xlink:title="mir_toolkit/events\l/input/pointer_event.h">
<polygon fill="white" stroke="black" points="1559.5,-56.5 1559.5,-86.5 1668.5,-86.5 1668.5,-56.5 1559.5,-56.5"/>
<text text-anchor="start" x="1567.5" y="-74.5" font-family="Arial" font-size="10.00">mir_toolkit/events</text>
<text text-anchor="middle" x="1614" y="-63.5" font-family="Arial" font-size="10.00">/input/pointer_event.h</text>
</a>
</g>
</g>
<!-- Node8&#45;&gt;Node14 -->
<g id="edge18" class="edge"><title>Node8&#45;&gt;Node14</title>
<path fill="none" stroke="midnightblue" d="M1453.19,-128.903C1485.1,-117.711 1529.88,-102.006 1564.08,-90.0093"/>
<polygon fill="midnightblue" stroke="midnightblue" points="1565.6,-93.1854 1573.88,-86.5729 1563.28,-86.58 1565.6,-93.1854"/>
</g>
<!-- Node9&#45;&gt;Node5 -->
<g id="edge12" class="edge"><title>Node9&#45;&gt;Node5</title>
<path fill="none" stroke="midnightblue" d="M1291,-56.3993C1291,-48.4664 1291,-38.458 1291,-29.8583"/>
<polygon fill="midnightblue" stroke="midnightblue" points="1294.5,-29.6577 1291,-19.6578 1287.5,-29.6578 1294.5,-29.6577"/>
</g>
<!-- Node13 -->
<g id="node14" class="node"><title>Node13</title>
<polygon fill="white" stroke="#bfbfbf" points="1723,-0.5 1723,-19.5 1857,-19.5 1857,-0.5 1723,-0.5"/>
<text text-anchor="middle" x="1790" y="-7.5" font-family="Arial" font-size="10.00">xkbcommon/xkbcommon.h</text>
</g>
<!-- Node12&#45;&gt;Node13 -->
<g id="edge17" class="edge"><title>Node12&#45;&gt;Node13</title>
<path fill="none" stroke="midnightblue" d="M1756.43,-56.3993C1762.76,-47.8424 1770.87,-36.8708 1777.53,-27.857"/>
<polygon fill="midnightblue" stroke="midnightblue" points="1780.47,-29.7792 1783.6,-19.6578 1774.84,-25.6171 1780.47,-29.7792"/>
</g>
<!-- Node14&#45;&gt;Node10 -->
<g id="edge19" class="edge"><title>Node14&#45;&gt;Node10</title>
<path fill="none" stroke="midnightblue" d="M1604.05,-56.3993C1598.01,-47.8424 1590.26,-36.8708 1583.9,-27.857"/>
<polygon fill="midnightblue" stroke="midnightblue" points="1586.74,-25.8091 1578.11,-19.6578 1581.02,-29.8459 1586.74,-25.8091"/>
</g>
<!-- Node15&#45;&gt;Node3 -->
<g id="edge21" class="edge"><title>Node15&#45;&gt;Node3</title>
<path fill="none" stroke="midnightblue" d="M678.056,-158.859C684.114,-160.976 690.211,-163.089 696,-165 732.144,-176.928 773.022,-189.112 804.621,-198.523"/>
<polygon fill="midnightblue" stroke="midnightblue" points="803.953,-201.976 814.536,-201.478 805.952,-195.268 803.953,-201.976"/>
</g>
<!-- Node16&#45;&gt;Node3 -->
<g id="edge23" class="edge"><title>Node16&#45;&gt;Node3</title>
<path fill="none" stroke="midnightblue" d="M308.345,-159.063C315.219,-161.362 322.259,-163.484 329,-165 498.019,-203.021 703.207,-212.462 800.613,-214.775"/>
<polygon fill="midnightblue" stroke="midnightblue" points="800.749,-218.279 810.824,-215 800.904,-211.28 800.749,-218.279"/>
</g>
<!-- Node16&#45;&gt;Node7 -->
<g id="edge24" class="edge"><title>Node16&#45;&gt;Node7</title>
<path fill="none" stroke="midnightblue" d="M250.025,-128.733C237.83,-117.115 220.617,-100.716 207.925,-88.6241"/>
<polygon fill="midnightblue" stroke="midnightblue" points="209.989,-85.7569 200.335,-81.3932 205.161,-90.825 209.989,-85.7569"/>
</g>
<!-- Node17&#45;&gt;Node3 -->
<g id="edge26" class="edge"><title>Node17&#45;&gt;Node3</title>
<path fill="none" stroke="midnightblue" d="M770.479,-159.073C788.941,-169.538 812.673,-183.959 830.689,-195.603"/>
<polygon fill="midnightblue" stroke="midnightblue" points="829.249,-198.844 839.531,-201.403 833.089,-192.991 829.249,-198.844"/>
</g>
<!-- Node18&#45;&gt;Node3 -->
<g id="edge28" class="edge"><title>Node18&#45;&gt;Node3</title>
<path fill="none" stroke="midnightblue" d="M862.546,-159.246C863.749,-168.414 864.051,-180.568 863.45,-191.232"/>
<polygon fill="midnightblue" stroke="midnightblue" points="859.96,-190.959 862.549,-201.233 866.932,-191.588 859.96,-190.959"/>
</g>
<!-- Node19&#45;&gt;Node3 -->
<g id="edge30" class="edge"><title>Node19&#45;&gt;Node3</title>
<path fill="none" stroke="midnightblue" d="M967.373,-159.073C948.658,-169.922 920.768,-185.023 897.645,-196.873"/>
<polygon fill="midnightblue" stroke="midnightblue" points="896.054,-193.755 888.721,-201.403 899.222,-199.997 896.054,-193.755"/>
</g>
<!-- Node20&#45;&gt;Node3 -->
<g id="edge32" class="edge"><title>Node20&#45;&gt;Node3</title>
<path fill="none" stroke="midnightblue" d="M1502.62,-159.027C1496,-161.359 1488.85,-163.502 1482,-165 1276.36,-209.968 1024.16,-215.672 913.463,-215.883"/>
<polygon fill="midnightblue" stroke="midnightblue" points="913.197,-212.383 903.198,-215.887 913.2,-219.383 913.197,-212.383"/>
</g>
<!-- Node20&#45;&gt;Node13 -->
<g id="edge33" class="edge"><title>Node20&#45;&gt;Node13</title>
<path fill="none" stroke="midnightblue" d="M1564.14,-128.973C1570.68,-126.755 1577.5,-124.652 1584,-123 1634.35,-110.206 1781.21,-126.463 1815,-87 1829.48,-70.0857 1816.02,-44.552 1803.94,-27.8272"/>
<polygon fill="midnightblue" stroke="midnightblue" points="1806.43,-25.3304 1797.55,-19.5525 1800.89,-29.6074 1806.43,-25.3304"/>
</g>
<!-- Node21&#45;&gt;Node3 -->
<g id="edge35" class="edge"><title>Node21&#45;&gt;Node3</title>
<path fill="none" stroke="midnightblue" d="M430.51,-160.288C436.387,-162.067 442.305,-163.705 448,-165 572.153,-193.223 720.866,-206.419 800.409,-211.971"/>
<polygon fill="midnightblue" stroke="midnightblue" points="800.481,-215.484 810.696,-212.673 800.958,-208.5 800.481,-215.484"/>
</g>
<!-- Node21&#45;&gt;Node7 -->
<g id="edge36" class="edge"><title>Node21&#45;&gt;Node7</title>
<path fill="none" stroke="midnightblue" d="M329.351,-124.107C295.802,-111.593 252.778,-95.5442 223.683,-84.6913"/>
<polygon fill="midnightblue" stroke="midnightblue" points="224.604,-81.2993 214.011,-81.0835 222.157,-87.8578 224.604,-81.2993"/>
</g>
<!-- Node22&#45;&gt;Node3 -->
<g id="edge38" class="edge"><title>Node22&#45;&gt;Node3</title>
<path fill="none" stroke="midnightblue" d="M562.72,-159.008C570.542,-161.152 578.471,-163.235 586,-165 659.796,-182.301 745.726,-197.005 800.791,-206.01"/>
<polygon fill="midnightblue" stroke="midnightblue" points="800.271,-209.471 810.703,-207.624 801.396,-202.562 800.271,-209.471"/>
</g>
<!-- Node22&#45;&gt;Node7 -->
<g id="edge39" class="edge"><title>Node22&#45;&gt;Node7</title>
<path fill="none" stroke="midnightblue" d="M461.372,-128.928C453.917,-126.839 446.266,-124.79 439,-123 374.339,-107.073 299.317,-92.3047 248.866,-82.9051"/>
<polygon fill="midnightblue" stroke="midnightblue" points="249.27,-79.4205 238.8,-81.0402 247.995,-86.3034 249.27,-79.4205"/>
</g>
<!-- Node23&#45;&gt;Node3 -->
<g id="edge41" class="edge"><title>Node23&#45;&gt;Node3</title>
<path fill="none" stroke="midnightblue" d="M1090.15,-159.031C1083.15,-161.082 1075.89,-163.131 1069,-165 1016.6,-179.218 956.16,-194.054 913.157,-203.936"/>
<polygon fill="midnightblue" stroke="midnightblue" points="912.135,-200.579 903.163,-206.215 913.691,-207.404 912.135,-200.579"/>
</g>
<!-- Node24&#45;&gt;Node3 -->
<g id="edge43" class="edge"><title>Node24&#45;&gt;Node3</title>
<path fill="none" stroke="midnightblue" d="M1207.9,-164.531C1207.26,-164.691 1206.63,-164.848 1206,-165 1104.62,-189.502 983.19,-204.087 913.479,-210.875"/>
<polygon fill="midnightblue" stroke="midnightblue" points="912.784,-207.425 903.161,-211.859 913.449,-214.393 912.784,-207.425"/>
</g>
</g>
</svg>
