<?xml version="1.0" encoding="UTF-8" standalone="no"?>
<!DOCTYPE svg PUBLIC "-//W3C//DTD SVG 1.1//EN"
 "http://www.w3.org/Graphics/SVG/1.1/DTD/svg11.dtd">
<!-- Generated by graphviz version 2.40.1 (20161225.0304)
 -->
<!-- Title: include/client/mir/client/event.h Pages: 1 -->
<svg width="1694pt" height="307pt"
 viewBox="0.00 0.00 1693.50 307.00" xmlns="http://www.w3.org/2000/svg" xmlns:xlink="http://www.w3.org/1999/xlink">
<g id="graph0" class="graph" transform="scale(1 1) rotate(0) translate(4 303)">
<title>include/client/mir/client/event.h</title>
<polygon fill="#ffffff" stroke="transparent" points="-4,4 -4,-303 1689.5,-303 1689.5,4 -4,4"/>
<!-- Node0 -->
<g id="node1" class="node">
<title>Node0</title>
<polygon fill="#bfbfbf" stroke="#000000" points="860,-268.5 860,-298.5 950,-298.5 950,-268.5 860,-268.5"/>
<text text-anchor="start" x="868" y="-286.5" font-family="Arial" font-size="10.00" fill="#000000">include/client/mir</text>
<text text-anchor="middle" x="905" y="-275.5" font-family="Arial" font-size="10.00" fill="#000000">/client/event.h</text>
</g>
<!-- Node1 -->
<g id="node2" class="node">
<title>Node1</title>
<g id="a_node2"><a xlink:href="toolkit_2events_2event_8h.html" target="_top" xlink:title="mir_toolkit/events\l/event.h">
<polygon fill="#ffffff" stroke="#000000" points="813,-201.5 813,-231.5 907,-231.5 907,-201.5 813,-201.5"/>
<text text-anchor="start" x="821" y="-219.5" font-family="Arial" font-size="10.00" fill="#000000">mir_toolkit/events</text>
<text text-anchor="middle" x="860" y="-208.5" font-family="Arial" font-size="10.00" fill="#000000">/event.h</text>
</a>
</g>
</g>
<!-- Node0&#45;&gt;Node1 -->
<g id="edge1" class="edge">
<title>Node0&#45;&gt;Node1</title>
<path fill="none" stroke="#191970" d="M894.7888,-268.2967C889.2079,-259.9873 882.1719,-249.5115 875.8902,-240.1587"/>
<polygon fill="#191970" stroke="#191970" points="878.6519,-237.9931 870.1708,-231.6432 872.8409,-241.896 878.6519,-237.9931"/>
</g>
<!-- Node23 -->
<g id="node24" class="node">
<title>Node23</title>
<polygon fill="#ffffff" stroke="#bfbfbf" points="925,-207 925,-226 977,-226 977,-207 925,-207"/>
<text text-anchor="middle" x="951" y="-214" font-family="Arial" font-size="10.00" fill="#000000">memory</text>
</g>
<!-- Node0&#45;&gt;Node23 -->
<g id="edge42" class="edge">
<title>Node0&#45;&gt;Node23</title>
<path fill="none" stroke="#191970" d="M915.4381,-268.2967C922.3268,-258.2631 931.3842,-245.0709 938.634,-234.5113"/>
<polygon fill="#191970" stroke="#191970" points="941.6652,-236.28 944.4399,-226.055 935.8944,-232.318 941.6652,-236.28"/>
</g>
<!-- Node2 -->
<g id="node3" class="node">
<title>Node2</title>
<polygon fill="#ffffff" stroke="#bfbfbf" points="0,-134.5 0,-153.5 52,-153.5 52,-134.5 0,-134.5"/>
<text text-anchor="middle" x="26" y="-141.5" font-family="Arial" font-size="10.00" fill="#000000">stddef.h</text>
</g>
<!-- Node1&#45;&gt;Node2 -->
<g id="edge2" class="edge">
<title>Node1&#45;&gt;Node2</title>
<path fill="none" stroke="#191970" d="M812.8316,-216.0066C664.3137,-214.0517 207.7897,-204.8694 66,-165 60.4315,-163.4342 54.7517,-161.0277 49.4868,-158.3949"/>
<polygon fill="#191970" stroke="#191970" points="51.0286,-155.2493 40.5719,-153.544 47.6829,-161.3979 51.0286,-155.2493"/>
</g>
<!-- Node3 -->
<g id="node4" class="node">
<title>Node3</title>
<polygon fill="#ffffff" stroke="#bfbfbf" points="93.5,-.5 93.5,-19.5 142.5,-19.5 142.5,-.5 93.5,-.5"/>
<text text-anchor="middle" x="118" y="-7.5" font-family="Arial" font-size="10.00" fill="#000000">stdint.h</text>
</g>
<!-- Node1&#45;&gt;Node3 -->
<g id="edge3" class="edge">
<title>Node1&#45;&gt;Node3</title>
<path fill="none" stroke="#191970" d="M812.9163,-215.1956C667.7169,-210.8627 233.3206,-195.4657 178,-165 140.1585,-144.1602 134.1081,-127.8318 120,-87 113.6042,-68.4893 113.8717,-45.9574 115.2718,-30.0635"/>
<polygon fill="#191970" stroke="#191970" points="118.7846,-30.1416 116.4123,-19.8157 111.8276,-29.3672 118.7846,-30.1416"/>
</g>
<!-- Node4 -->
<g id="node5" class="node">
<title>Node4</title>
<g id="a_node5"><a xlink:href="common_8h.html" target="_top" xlink:title="mir_toolkit/common.h">
<polygon fill="#ffffff" stroke="#000000" points="307,-134.5 307,-153.5 417,-153.5 417,-134.5 307,-134.5"/>
<text text-anchor="middle" x="362" y="-141.5" font-family="Arial" font-size="10.00" fill="#000000">mir_toolkit/common.h</text>
</a>
</g>
</g>
<!-- Node1&#45;&gt;Node4 -->
<g id="edge4" class="edge">
<title>Node1&#45;&gt;Node4</title>
<path fill="none" stroke="#191970" d="M812.9012,-213.5676C733.4611,-208.0169 568.0847,-193.8544 431,-165 420.4144,-162.7719 409.1155,-159.6561 398.7902,-156.5054"/>
<polygon fill="#191970" stroke="#191970" points="399.8335,-153.1646 389.2441,-153.5019 397.7326,-159.8419 399.8335,-153.1646"/>
</g>
<!-- Node5 -->
<g id="node6" class="node">
<title>Node5</title>
<g id="a_node6"><a xlink:href="deprecations_8h.html" target="_top" xlink:title="mir_toolkit/deprecations.h">
<polygon fill="#ffffff" stroke="#000000" points="698,-62 698,-81 826,-81 826,-62 698,-62"/>
<text text-anchor="middle" x="762" y="-69" font-family="Arial" font-size="10.00" fill="#000000">mir_toolkit/deprecations.h</text>
</a>
</g>
</g>
<!-- Node1&#45;&gt;Node5 -->
<g id="edge6" class="edge">
<title>Node1&#45;&gt;Node5</title>
<path fill="none" stroke="#191970" d="M812.8549,-213.8083C712.8553,-207.6173 486.7334,-190.8813 464,-165 404.2103,-96.9311 523.5782,-117.4148 688,-87 694.5907,-85.7809 701.4963,-84.4314 708.329,-83.0521"/>
<polygon fill="#191970" stroke="#191970" points="709.148,-86.4571 718.2423,-81.0216 707.7433,-79.5994 709.148,-86.4571"/>
</g>
<!-- Node6 -->
<g id="node7" class="node">
<title>Node6</title>
<g id="a_node7"><a xlink:href="input__event_8h.html" target="_top" xlink:title="mir_toolkit/events\l/input/input_event.h">
<polygon fill="#ffffff" stroke="#000000" points="187,-129 187,-159 289,-159 289,-129 187,-129"/>
<text text-anchor="start" x="195" y="-147" font-family="Arial" font-size="10.00" fill="#000000">mir_toolkit/events</text>
<text text-anchor="middle" x="238" y="-136" font-family="Arial" font-size="10.00" fill="#000000">/input/input_event.h</text>
</a>
</g>
</g>
<!-- Node1&#45;&gt;Node6 -->
<g id="edge7" class="edge">
<title>Node1&#45;&gt;Node6</title>
<path fill="none" stroke="#191970" d="M812.7625,-213.9293C694.3833,-206.9172 388.0937,-186.5387 289,-165 285.276,-164.1906 281.465,-163.2174 277.6802,-162.1394"/>
<polygon fill="#191970" stroke="#191970" points="278.3888,-158.695 267.801,-159.0815 276.3189,-165.382 278.3888,-158.695"/>
</g>
<!-- Node13 -->
<g id="node14" class="node">
<title>Node13</title>
<g id="a_node14"><a xlink:href="resize__event_8h.html" target="_top" xlink:title="mir_toolkit/events\l/resize_event.h">
<polygon fill="#ffffff" stroke="#000000" points="473,-129 473,-159 567,-159 567,-129 473,-129"/>
<text text-anchor="start" x="481" y="-147" font-family="Arial" font-size="10.00" fill="#000000">mir_toolkit/events</text>
<text text-anchor="middle" x="520" y="-136" font-family="Arial" font-size="10.00" fill="#000000">/resize_event.h</text>
</a>
</g>
</g>
<!-- Node1&#45;&gt;Node13 -->
<g id="edge18" class="edge">
<title>Node1&#45;&gt;Node13</title>
<path fill="none" stroke="#191970" d="M812.9635,-211.4243C754.3715,-203.9953 652.0195,-188.4456 567,-165 564.0424,-164.1844 561.0216,-163.2773 558.0053,-162.3108"/>
<polygon fill="#191970" stroke="#191970" points="559.0646,-158.9741 548.4701,-159.0603 556.8059,-165.5997 559.0646,-158.9741"/>
</g>
<!-- Node14 -->
<g id="node15" class="node">
<title>Node14</title>
<g id="a_node15"><a xlink:href="surface__event_8h.html" target="_top" xlink:title="mir_toolkit/events\l/surface_event.h">
<polygon fill="#ffffff" stroke="#000000" points="585,-129 585,-159 679,-159 679,-129 585,-129"/>
<text text-anchor="start" x="593" y="-147" font-family="Arial" font-size="10.00" fill="#000000">mir_toolkit/events</text>
<text text-anchor="middle" x="632" y="-136" font-family="Arial" font-size="10.00" fill="#000000">/surface_event.h</text>
</a>
</g>
</g>
<!-- Node1&#45;&gt;Node14 -->
<g id="edge20" class="edge">
<title>Node1&#45;&gt;Node14</title>
<path fill="none" stroke="#191970" d="M812.655,-205.2961C775.776,-195.3415 723.7541,-180.0722 679,-165 676.5891,-164.1881 674.1268,-163.3392 671.6528,-162.4679"/>
<polygon fill="#191970" stroke="#191970" points="672.7316,-159.1363 662.1374,-159.0269 670.3511,-165.7191 672.7316,-159.1363"/>
</g>
<!-- Node15 -->
<g id="node16" class="node">
<title>Node15</title>
<g id="a_node16"><a xlink:href="window__event_8h.html" target="_top" xlink:title="mir_toolkit/events\l/window_event.h">
<polygon fill="#ffffff" stroke="#000000" points="697,-129 697,-159 791,-159 791,-129 697,-129"/>
<text text-anchor="start" x="705" y="-147" font-family="Arial" font-size="10.00" fill="#000000">mir_toolkit/events</text>
<text text-anchor="middle" x="744" y="-136" font-family="Arial" font-size="10.00" fill="#000000">/window_event.h</text>
</a>
</g>
</g>
<!-- Node1&#45;&gt;Node15 -->
<g id="edge23" class="edge">
<title>Node1&#45;&gt;Node15</title>
<path fill="none" stroke="#191970" d="M830.372,-201.478C812.104,-190.8821 788.9784,-176.5502 771.1813,-164.8486"/>
<polygon fill="#191970" stroke="#191970" points="772.6759,-161.6385 762.4141,-159.0028 768.7925,-167.4625 772.6759,-161.6385"/>
</g>
<!-- Node16 -->
<g id="node17" class="node">
<title>Node16</title>
<g id="a_node17"><a xlink:href="orientation__event_8h.html" target="_top" xlink:title="mir_toolkit/events\l/orientation_event.h">
<polygon fill="#ffffff" stroke="#000000" points="809,-129 809,-159 911,-159 911,-129 809,-129"/>
<text text-anchor="start" x="817" y="-147" font-family="Arial" font-size="10.00" fill="#000000">mir_toolkit/events</text>
<text text-anchor="middle" x="860" y="-136" font-family="Arial" font-size="10.00" fill="#000000">/orientation_event.h</text>
</a>
</g>
</g>
<!-- Node1&#45;&gt;Node16 -->
<g id="edge25" class="edge">
<title>Node1&#45;&gt;Node16</title>
<path fill="none" stroke="#191970" d="M854.4073,-201.478C853.2494,-192.1459 852.9604,-179.9157 853.5402,-169.1368"/>
<polygon fill="#191970" stroke="#191970" points="857.042,-169.2654 854.4097,-159.0028 850.0676,-168.667 857.042,-169.2654"/>
</g>
<!-- Node17 -->
<g id="node18" class="node">
<title>Node17</title>
<g id="a_node18"><a xlink:href="prompt__session__event_8h.html" target="_top" xlink:title="mir_toolkit/events\l/prompt_session_event.h">
<polygon fill="#ffffff" stroke="#000000" points="929,-129 929,-159 1055,-159 1055,-129 929,-129"/>
<text text-anchor="start" x="937" y="-147" font-family="Arial" font-size="10.00" fill="#000000">mir_toolkit/events</text>
<text text-anchor="middle" x="992" y="-136" font-family="Arial" font-size="10.00" fill="#000000">/prompt_session_event.h</text>
</a>
</g>
</g>
<!-- Node1&#45;&gt;Node17 -->
<g id="edge27" class="edge">
<title>Node1&#45;&gt;Node17</title>
<path fill="none" stroke="#191970" d="M881.7578,-201.478C900.312,-190.5419 927.3056,-175.626 949.9946,-163.7297"/>
<polygon fill="#191970" stroke="#191970" points="951.8335,-166.7185 959.0942,-159.0028 948.6066,-160.5066 951.8335,-166.7185"/>
</g>
<!-- Node18 -->
<g id="node19" class="node">
<title>Node18</title>
<g id="a_node19"><a xlink:href="keymap__event_8h.html" target="_top" xlink:title="mir_toolkit/events\l/keymap_event.h">
<polygon fill="#ffffff" stroke="#000000" points="1333,-129 1333,-159 1427,-159 1427,-129 1333,-129"/>
<text text-anchor="start" x="1341" y="-147" font-family="Arial" font-size="10.00" fill="#000000">mir_toolkit/events</text>
<text text-anchor="middle" x="1380" y="-136" font-family="Arial" font-size="10.00" fill="#000000">/keymap_event.h</text>
</a>
</g>
</g>
<!-- Node1&#45;&gt;Node18 -->
<g id="edge29" class="edge">
<title>Node1&#45;&gt;Node18</title>
<path fill="none" stroke="#191970" d="M904.6038,-201.449C905.4067,-201.2936 906.2059,-201.1437 907,-201 1086.1288,-168.586 1137.4854,-205.3279 1315,-165 1318.5502,-164.1935 1322.1784,-163.2139 1325.8198,-162.1239"/>
<polygon fill="#191970" stroke="#191970" points="1326.9997,-165.421 1335.4449,-159.0234 1324.8533,-158.7582 1326.9997,-165.421"/>
</g>
<!-- Node19 -->
<g id="node20" class="node">
<title>Node19</title>
<g id="a_node20"><a xlink:href="input__configuration__event_8h.html" target="_top" xlink:title="mir_toolkit/events\l/input_configuration\l_event.h">
<polygon fill="#ffffff" stroke="#000000" points="1073.5,-123.5 1073.5,-164.5 1174.5,-164.5 1174.5,-123.5 1073.5,-123.5"/>
<text text-anchor="start" x="1081.5" y="-152.5" font-family="Arial" font-size="10.00" fill="#000000">mir_toolkit/events</text>
<text text-anchor="start" x="1081.5" y="-141.5" font-family="Arial" font-size="10.00" fill="#000000">/input_configuration</text>
<text text-anchor="middle" x="1124" y="-130.5" font-family="Arial" font-size="10.00" fill="#000000">_event.h</text>
</a>
</g>
</g>
<!-- Node1&#45;&gt;Node19 -->
<g id="edge32" class="edge">
<title>Node1&#45;&gt;Node19</title>
<path fill="none" stroke="#191970" d="M905.2333,-201.4608C905.8251,-201.3059 906.4142,-201.1523 907,-201 972.5183,-183.9688 990.0855,-184.2047 1055,-165 1057.8706,-164.1507 1060.8065,-163.2457 1063.7723,-162.3062"/>
<polygon fill="#191970" stroke="#191970" points="1064.8709,-165.6295 1073.3029,-159.2146 1062.7109,-158.971 1064.8709,-165.6295"/>
</g>
<!-- Node20 -->
<g id="node21" class="node">
<title>Node20</title>
<g id="a_node21"><a xlink:href="surface__output__event_8h.html" target="_top" xlink:title="mir_toolkit/events\l/surface_output_event.h">
<polygon fill="#ffffff" stroke="#000000" points="1193,-129 1193,-159 1315,-159 1315,-129 1193,-129"/>
<text text-anchor="start" x="1201" y="-147" font-family="Arial" font-size="10.00" fill="#000000">mir_toolkit/events</text>
<text text-anchor="middle" x="1254" y="-136" font-family="Arial" font-size="10.00" fill="#000000">/surface_output_event.h</text>
</a>
</g>
</g>
<!-- Node1&#45;&gt;Node20 -->
<g id="edge35" class="edge">
<title>Node1&#45;&gt;Node20</title>
<path fill="none" stroke="#191970" d="M904.6136,-201.4998C905.4134,-201.3285 906.2094,-201.1617 907,-201 1024.7427,-176.9144 1057.5222,-190.3458 1175,-165 1179.5657,-164.015 1184.2657,-162.879 1188.9939,-161.6558"/>
<polygon fill="#191970" stroke="#191970" points="1189.9572,-165.0212 1198.7044,-159.0432 1188.1385,-158.2616 1189.9572,-165.0212"/>
</g>
<!-- Node21 -->
<g id="node22" class="node">
<title>Node21</title>
<g id="a_node22"><a xlink:href="window__output__event_8h.html" target="_top" xlink:title="mir_toolkit/events\l/window_output_event.h">
<polygon fill="#ffffff" stroke="#000000" points="1445.5,-129 1445.5,-159 1566.5,-159 1566.5,-129 1445.5,-129"/>
<text text-anchor="start" x="1453.5" y="-147" font-family="Arial" font-size="10.00" fill="#000000">mir_toolkit/events</text>
<text text-anchor="middle" x="1506" y="-136" font-family="Arial" font-size="10.00" fill="#000000">/window_output_event.h</text>
</a>
</g>
</g>
<!-- Node1&#45;&gt;Node21 -->
<g id="edge38" class="edge">
<title>Node1&#45;&gt;Node21</title>
<path fill="none" stroke="#191970" d="M904.2984,-201.484C905.204,-201.3148 906.1051,-201.1532 907,-201 1135.3415,-161.904 1199.0905,-206.5405 1427,-165 1432.0202,-164.085 1437.1907,-162.9391 1442.3754,-161.6576"/>
<polygon fill="#191970" stroke="#191970" points="1443.5405,-164.9706 1452.3273,-159.0509 1441.7667,-158.199 1443.5405,-164.9706"/>
</g>
<!-- Node22 -->
<g id="node23" class="node">
<title>Node22</title>
<g id="a_node23"><a xlink:href="input__device__state__event_8h.html" target="_top" xlink:title="mir_toolkit/events\l/input_device_state\l_event.h">
<polygon fill="#ffffff" stroke="#000000" points="1584.5,-123.5 1584.5,-164.5 1685.5,-164.5 1685.5,-123.5 1584.5,-123.5"/>
<text text-anchor="start" x="1592.5" y="-152.5" font-family="Arial" font-size="10.00" fill="#000000">mir_toolkit/events</text>
<text text-anchor="start" x="1592.5" y="-141.5" font-family="Arial" font-size="10.00" fill="#000000">/input_device_state</text>
<text text-anchor="middle" x="1635" y="-130.5" font-family="Arial" font-size="10.00" fill="#000000">_event.h</text>
</a>
</g>
</g>
<!-- Node1&#45;&gt;Node22 -->
<g id="edge40" class="edge">
<title>Node1&#45;&gt;Node22</title>
<path fill="none" stroke="#191970" d="M904.2954,-201.4657C905.2018,-201.3022 906.104,-201.1467 907,-201 1196.9107,-153.5423 1278.9831,-222.8506 1567,-165 1569.4717,-164.5035 1571.9797,-163.9247 1574.5038,-163.2826"/>
<polygon fill="#191970" stroke="#191970" points="1575.5991,-166.6103 1584.2767,-160.5318 1573.7025,-159.8722 1575.5991,-166.6103"/>
</g>
<!-- Node4&#45;&gt;Node5 -->
<g id="edge5" class="edge">
<title>Node4&#45;&gt;Node5</title>
<path fill="none" stroke="#191970" d="M389.936,-134.4116C402.3867,-130.4211 417.3055,-126.0236 431,-123 543.6249,-98.1332 574.3808,-106.8339 688,-87 694.7764,-85.8171 701.8795,-84.4689 708.8915,-83.0727"/>
<polygon fill="#191970" stroke="#191970" points="709.9494,-86.4293 719.0512,-81.0065 708.5542,-79.5698 709.9494,-86.4293"/>
</g>
<!-- Node6&#45;&gt;Node1 -->
<g id="edge8" class="edge">
<title>Node6&#45;&gt;Node1</title>
<path fill="none" stroke="#191970" d="M285.5063,-159.0815C292.6718,-161.3726 299.9901,-163.4763 307,-165 400.8453,-185.398 680.5197,-204.7553 802.3473,-212.7044"/>
<polygon fill="#191970" stroke="#191970" points="802.3828,-216.214 812.5888,-213.3701 802.837,-209.2288 802.3828,-216.214"/>
</g>
<!-- Node6&#45;&gt;Node3 -->
<g id="edge11" class="edge">
<title>Node6&#45;&gt;Node3</title>
<path fill="none" stroke="#191970" d="M194.632,-128.8939C174.3328,-119.7402 151.4899,-106.082 137,-87 124.416,-70.4279 120.0681,-46.588 118.6177,-29.8364"/>
<polygon fill="#191970" stroke="#191970" points="122.0937,-29.3245 118.0109,-19.548 115.1058,-29.7368 122.0937,-29.3245"/>
</g>
<!-- Node7 -->
<g id="node8" class="node">
<title>Node7</title>
<g id="a_node8"><a xlink:href="mir__input__device__types_8h.html" target="_top" xlink:title="mir_toolkit/mir_input\l_device_types.h">
<polygon fill="#ffffff" stroke="#000000" points="146,-56.5 146,-86.5 250,-86.5 250,-56.5 146,-56.5"/>
<text text-anchor="start" x="154" y="-74.5" font-family="Arial" font-size="10.00" fill="#000000">mir_toolkit/mir_input</text>
<text text-anchor="middle" x="198" y="-63.5" font-family="Arial" font-size="10.00" fill="#000000">_device_types.h</text>
</a>
</g>
</g>
<!-- Node6&#45;&gt;Node7 -->
<g id="edge9" class="edge">
<title>Node6&#45;&gt;Node7</title>
<path fill="none" stroke="#191970" d="M229.712,-128.978C224.3487,-119.257 217.2505,-106.3915 211.1296,-95.2974"/>
<polygon fill="#191970" stroke="#191970" points="214.1728,-93.5678 206.2774,-86.5028 208.0437,-96.9494 214.1728,-93.5678"/>
</g>
<!-- Node8 -->
<g id="node9" class="node">
<title>Node8</title>
<polygon fill="#ffffff" stroke="#bfbfbf" points="353,-.5 353,-19.5 409,-19.5 409,-.5 353,-.5"/>
<text text-anchor="middle" x="381" y="-7.5" font-family="Arial" font-size="10.00" fill="#000000">stdbool.h</text>
</g>
<!-- Node6&#45;&gt;Node8 -->
<g id="edge12" class="edge">
<title>Node6&#45;&gt;Node8</title>
<path fill="none" stroke="#191970" d="M245.346,-128.6888C255.0427,-109.7333 273.6496,-77.3465 297,-56 311.6695,-42.5894 330.9547,-31.673 347.3464,-23.8456"/>
<polygon fill="#191970" stroke="#191970" points="348.9761,-26.9488 356.6065,-19.5984 346.0578,-20.5861 348.9761,-26.9488"/>
</g>
<!-- Node9 -->
<g id="node10" class="node">
<title>Node9</title>
<g id="a_node10"><a xlink:href="touch__event_8h.html" target="_top" xlink:title="mir_toolkit/events\l/input/touch_event.h">
<polygon fill="#ffffff" stroke="#000000" points="306.5,-56.5 306.5,-86.5 411.5,-86.5 411.5,-56.5 306.5,-56.5"/>
<text text-anchor="start" x="314.5" y="-74.5" font-family="Arial" font-size="10.00" fill="#000000">mir_toolkit/events</text>
<text text-anchor="middle" x="359" y="-63.5" font-family="Arial" font-size="10.00" fill="#000000">/input/touch_event.h</text>
</a>
</g>
</g>
<!-- Node6&#45;&gt;Node9 -->
<g id="edge13" class="edge">
<title>Node6&#45;&gt;Node9</title>
<path fill="none" stroke="#191970" d="M263.0713,-128.978C281.0798,-118.1877 305.5547,-103.523 325.275,-91.7071"/>
<polygon fill="#191970" stroke="#191970" points="327.1817,-94.6449 333.9608,-86.5028 323.5838,-88.6403 327.1817,-94.6449"/>
</g>
<!-- Node10 -->
<g id="node11" class="node">
<title>Node10</title>
<g id="a_node11"><a xlink:href="keyboard__event_8h.html" target="_top" xlink:title="mir_toolkit/events\l/input/keyboard_event.h">
<polygon fill="#ffffff" stroke="#000000" points="558.5,-56.5 558.5,-86.5 679.5,-86.5 679.5,-56.5 558.5,-56.5"/>
<text text-anchor="start" x="566.5" y="-74.5" font-family="Arial" font-size="10.00" fill="#000000">mir_toolkit/events</text>
<text text-anchor="middle" x="619" y="-63.5" font-family="Arial" font-size="10.00" fill="#000000">/input/keyboard_event.h</text>
</a>
</g>
</g>
<!-- Node6&#45;&gt;Node10 -->
<g id="edge14" class="edge">
<title>Node6&#45;&gt;Node10</title>
<path fill="none" stroke="#191970" d="M277.695,-128.8958C284.4062,-126.6925 291.3529,-124.6236 298,-123 404.3782,-97.0165 436.3282,-106.6072 548.3478,-87.0125"/>
<polygon fill="#191970" stroke="#191970" points="549.1229,-90.4295 558.3503,-85.2232 547.8903,-83.5389 549.1229,-90.4295"/>
</g>
<!-- Node12 -->
<g id="node13" class="node">
<title>Node12</title>
<g id="a_node13"><a xlink:href="pointer__event_8h.html" target="_top" xlink:title="mir_toolkit/events\l/input/pointer_event.h">
<polygon fill="#ffffff" stroke="#000000" points="430,-56.5 430,-86.5 540,-86.5 540,-56.5 430,-56.5"/>
<text text-anchor="start" x="438" y="-74.5" font-family="Arial" font-size="10.00" fill="#000000">mir_toolkit/events</text>
<text text-anchor="middle" x="485" y="-63.5" font-family="Arial" font-size="10.00" fill="#000000">/input/pointer_event.h</text>
</a>
</g>
</g>
<!-- Node6&#45;&gt;Node12 -->
<g id="edge16" class="edge">
<title>Node6&#45;&gt;Node12</title>
<path fill="none" stroke="#191970" d="M279.8409,-128.9485C285.9112,-126.8836 292.1007,-124.8424 298,-123 338.2515,-110.4293 383.8696,-97.8338 419.9726,-88.2457"/>
<polygon fill="#191970" stroke="#191970" points="421.1175,-91.5634 429.8908,-85.6237 419.3283,-84.7959 421.1175,-91.5634"/>
</g>
<!-- Node7&#45;&gt;Node3 -->
<g id="edge10" class="edge">
<title>Node7&#45;&gt;Node3</title>
<path fill="none" stroke="#191970" d="M178.2247,-56.2977C166.3102,-47.1384 151.1468,-35.4816 139.0162,-26.1562"/>
<polygon fill="#191970" stroke="#191970" points="140.8703,-23.1668 130.809,-19.8469 136.604,-28.7165 140.8703,-23.1668"/>
</g>
<!-- Node11 -->
<g id="node12" class="node">
<title>Node11</title>
<polygon fill="#ffffff" stroke="#bfbfbf" points="791,-.5 791,-19.5 925,-19.5 925,-.5 791,-.5"/>
<text text-anchor="middle" x="858" y="-7.5" font-family="Arial" font-size="10.00" fill="#000000">xkbcommon/xkbcommon.h</text>
</g>
<!-- Node10&#45;&gt;Node11 -->
<g id="edge15" class="edge">
<title>Node10&#45;&gt;Node11</title>
<path fill="none" stroke="#191970" d="M677.466,-56.4554C718.5681,-45.8789 772.8383,-31.914 811.1081,-22.0663"/>
<polygon fill="#191970" stroke="#191970" points="812.1512,-25.412 820.9635,-19.5303 810.4067,-18.6329 812.1512,-25.412"/>
</g>
<!-- Node12&#45;&gt;Node8 -->
<g id="edge17" class="edge">
<title>Node12&#45;&gt;Node8</title>
<path fill="none" stroke="#191970" d="M459.5587,-56.4554C443.2716,-46.8241 422.2327,-34.3828 406.027,-24.7996"/>
<polygon fill="#191970" stroke="#191970" points="407.5055,-21.6078 397.1163,-19.5303 403.9424,-27.6331 407.5055,-21.6078"/>
</g>
<!-- Node13&#45;&gt;Node1 -->
<g id="edge19" class="edge">
<title>Node13&#45;&gt;Node1</title>
<path fill="none" stroke="#191970" d="M566.2266,-159.0603C572.5184,-161.2425 578.8941,-163.3162 585,-165 659.2397,-185.4729 746.6953,-199.9252 802.7961,-208.2073"/>
<polygon fill="#191970" stroke="#191970" points="802.4954,-211.7004 812.8962,-209.682 803.5068,-204.7738 802.4954,-211.7004"/>
</g>
<!-- Node14&#45;&gt;Node1 -->
<g id="edge21" class="edge">
<title>Node14&#45;&gt;Node1</title>
<path fill="none" stroke="#191970" d="M679.0233,-158.6943C685.0901,-160.8753 691.1942,-163.0447 697,-165 732.4523,-176.9395 772.4651,-189.0028 804.0441,-198.4498"/>
<polygon fill="#191970" stroke="#191970" points="803.4006,-201.9104 813.9841,-201.4216 805.4058,-195.2038 803.4006,-201.9104"/>
</g>
<!-- Node14&#45;&gt;Node5 -->
<g id="edge22" class="edge">
<title>Node14&#45;&gt;Node5</title>
<path fill="none" stroke="#191970" d="M658.9361,-128.978C681.4518,-116.4211 713.3759,-98.6173 735.7094,-86.1621"/>
<polygon fill="#191970" stroke="#191970" points="737.6094,-89.11 744.6383,-81.1825 734.1999,-82.9965 737.6094,-89.11"/>
</g>
<!-- Node15&#45;&gt;Node1 -->
<g id="edge24" class="edge">
<title>Node15&#45;&gt;Node1</title>
<path fill="none" stroke="#191970" d="M773.5948,-159.0028C791.8569,-169.5941 814.9828,-183.9253 832.7864,-195.6302"/>
<polygon fill="#191970" stroke="#191970" points="831.2956,-198.8428 841.5575,-201.478 835.1787,-193.0185 831.2956,-198.8428"/>
</g>
<!-- Node16&#45;&gt;Node1 -->
<g id="edge26" class="edge">
<title>Node16&#45;&gt;Node1</title>
<path fill="none" stroke="#191970" d="M865.5903,-159.0028C866.7494,-168.3309 867.0396,-180.5601 866.461,-191.3409"/>
<polygon fill="#191970" stroke="#191970" points="862.959,-191.2157 865.5927,-201.478 869.9334,-191.8132 862.959,-191.2157"/>
</g>
<!-- Node17&#45;&gt;Node1 -->
<g id="edge28" class="edge">
<title>Node17&#45;&gt;Node1</title>
<path fill="none" stroke="#191970" d="M970.2749,-159.0028C951.7305,-169.9342 924.7394,-184.8495 902.0454,-196.7494"/>
<polygon fill="#191970" stroke="#191970" points="900.2037,-193.762 892.9432,-201.478 903.4307,-199.9738 900.2037,-193.762"/>
</g>
<!-- Node18&#45;&gt;Node1 -->
<g id="edge30" class="edge">
<title>Node18&#45;&gt;Node1</title>
<path fill="none" stroke="#191970" d="M1353.1364,-159.0234C1346.6418,-161.3506 1339.6827,-163.4818 1333,-165 1155.4854,-205.3279 1104.1288,-168.586 925,-201 922.3912,-201.4721 919.7278,-202.0106 917.0388,-202.5969"/>
<polygon fill="#191970" stroke="#191970" points="916.1778,-199.2038 907.242,-204.896 917.7772,-206.0187 916.1778,-199.2038"/>
</g>
<!-- Node18&#45;&gt;Node11 -->
<g id="edge31" class="edge">
<title>Node18&#45;&gt;Node11</title>
<path fill="none" stroke="#191970" d="M1341.6514,-128.9221C1335.7788,-126.8161 1329.7563,-124.7701 1324,-123 1178.8101,-78.3524 1003.8491,-39.9435 915.3178,-21.5623"/>
<polygon fill="#191970" stroke="#191970" points="915.9753,-18.1243 905.4737,-19.5271 914.558,-24.9793 915.9753,-18.1243"/>
</g>
<!-- Node19&#45;&gt;Node1 -->
<g id="edge33" class="edge">
<title>Node19&#45;&gt;Node1</title>
<path fill="none" stroke="#191970" d="M1074.5937,-164.5248C1074.0605,-164.685 1073.5291,-164.8435 1073,-165 1008.0855,-184.2047 990.5183,-183.9688 925,-201 922.3898,-201.6785 919.7141,-202.3843 917.0047,-203.1044"/>
<polygon fill="#191970" stroke="#191970" points="915.8611,-199.7871 907.104,-205.7505 917.6686,-206.5497 915.8611,-199.7871"/>
</g>
<!-- Node19&#45;&gt;Node5 -->
<g id="edge34" class="edge">
<title>Node19&#45;&gt;Node5</title>
<path fill="none" stroke="#191970" d="M1073.4449,-125.6356C1070.2655,-124.6891 1067.0988,-123.8005 1064,-123 987.4132,-103.2164 897.8887,-89.0382 836.3059,-80.6293"/>
<polygon fill="#191970" stroke="#191970" points="836.6658,-77.1463 826.2878,-79.2786 835.7304,-84.0835 836.6658,-77.1463"/>
</g>
<!-- Node20&#45;&gt;Node1 -->
<g id="edge36" class="edge">
<title>Node20&#45;&gt;Node1</title>
<path fill="none" stroke="#191970" d="M1216.4488,-159.0432C1208.7603,-161.2538 1200.6895,-163.341 1193,-165 1075.5222,-190.3458 1042.7427,-176.9144 925,-201 922.4026,-201.5313 919.7483,-202.1169 917.0664,-202.74"/>
<polygon fill="#191970" stroke="#191970" points="916.17,-199.356 907.2872,-205.1307 917.8323,-206.1558 916.17,-199.356"/>
</g>
<!-- Node20&#45;&gt;Node5 -->
<g id="edge37" class="edge">
<title>Node20&#45;&gt;Node5</title>
<path fill="none" stroke="#191970" d="M1207.9717,-128.9833C1200.0359,-126.7424 1191.8236,-124.6385 1184,-123 1063.5593,-97.776 921.008,-83.5636 836.2293,-76.7184"/>
<polygon fill="#191970" stroke="#191970" points="836.4281,-73.2233 826.1822,-75.9199 835.8735,-80.2013 836.4281,-73.2233"/>
</g>
<!-- Node21&#45;&gt;Node1 -->
<g id="edge39" class="edge">
<title>Node21&#45;&gt;Node1</title>
<path fill="none" stroke="#191970" d="M1470.0188,-159.0509C1461.8814,-161.3753 1453.2383,-163.4984 1445,-165 1217.0905,-206.5405 1153.3415,-161.904 925,-201 922.3868,-201.4474 919.72,-201.9663 917.0283,-202.5373"/>
<polygon fill="#191970" stroke="#191970" points="916.1824,-199.1405 907.2248,-204.7984 917.7556,-205.9614 916.1824,-199.1405"/>
</g>
<!-- Node22&#45;&gt;Node1 -->
<g id="edge41" class="edge">
<title>Node22&#45;&gt;Node1</title>
<path fill="none" stroke="#191970" d="M1587.2475,-164.5284C1586.4957,-164.6927 1585.7462,-164.8501 1585,-165 1296.9831,-222.8506 1214.9107,-153.5423 925,-201 922.3836,-201.4283 919.7143,-201.932 917.0206,-202.4911"/>
<polygon fill="#191970" stroke="#191970" points="916.1865,-199.0914 907.2121,-204.7226 917.7394,-205.917 916.1865,-199.0914"/>
</g>
</g>
</svg>
