<?xml version="1.0" encoding="UTF-8" standalone="no"?>
<!DOCTYPE svg PUBLIC "-//W3C//DTD SVG 1.1//EN"
 "http://www.w3.org/Graphics/SVG/1.1/DTD/svg11.dtd">
<!-- Generated by graphviz version 2.38.0 (20140413.2041)
 -->
<!-- Title: include/client/mir/client/surface.h Pages: 1 -->
<svg width="681pt" height="173pt"
 viewBox="0.00 0.00 681.00 173.00" xmlns="http://www.w3.org/2000/svg" xmlns:xlink="http://www.w3.org/1999/xlink">
<g id="graph0" class="graph" transform="scale(1 1) rotate(0) translate(4 169)">
<title>include/client/mir/client/surface.h</title>
<polygon fill="white" stroke="none" points="-4,4 -4,-169 677,-169 677,4 -4,4"/>
<!-- Node26 -->
<g id="node1" class="node"><title>Node26</title>
<polygon fill="#bfbfbf" stroke="black" points="170,-134.5 170,-164.5 260,-164.5 260,-134.5 170,-134.5"/>
<text text-anchor="start" x="178" y="-152.5" font-family="Arial" font-size="10.00">include/client/mir</text>
<text text-anchor="middle" x="215" y="-141.5" font-family="Arial" font-size="10.00">/client/surface.h</text>
</g>
<!-- Node27 -->
<g id="node2" class="node"><title>Node27</title>
<g id="a_node2"><a xlink:href="sw__splash_8cpp.html" target="_top" xlink:title="examples/miral&#45;kiosk\l/sw_splash.cpp">
<polygon fill="white" stroke="black" points="32.5,-67.5 32.5,-97.5 141.5,-97.5 141.5,-67.5 32.5,-67.5"/>
<text text-anchor="start" x="40.5" y="-85.5" font-family="Arial" font-size="10.00">examples/miral&#45;kiosk</text>
<text text-anchor="middle" x="87" y="-74.5" font-family="Arial" font-size="10.00">/sw_splash.cpp</text>
</a>
</g>
</g>
<!-- Node26&#45;&gt;Node27 -->
<g id="edge1" class="edge"><title>Node26&#45;&gt;Node27</title>
<path fill="none" stroke="midnightblue" d="M178.28,-129.853C158.042,-119.576 133.326,-107.025 114.72,-97.5765"/>
<polygon fill="midnightblue" stroke="midnightblue" points="176.725,-132.989 187.226,-134.396 179.894,-126.747 176.725,-132.989"/>
</g>
<!-- Node28 -->
<g id="node3" class="node"><title>Node28</title>
<g id="a_node3"><a xlink:href="decoration__provider_8h.html" target="_top" xlink:title="examples/miral&#45;shell\l/decoration_provider.h">
<polygon fill="white" stroke="black" points="159.5,-67.5 159.5,-97.5 270.5,-97.5 270.5,-67.5 159.5,-67.5"/>
<text text-anchor="start" x="167.5" y="-85.5" font-family="Arial" font-size="10.00">examples/miral&#45;shell</text>
<text text-anchor="middle" x="215" y="-74.5" font-family="Arial" font-size="10.00">/decoration_provider.h</text>
</a>
</g>
</g>
<!-- Node26&#45;&gt;Node28 -->
<g id="edge2" class="edge"><title>Node26&#45;&gt;Node28</title>
<path fill="none" stroke="midnightblue" d="M215,-124.108C215,-115.154 215,-105.323 215,-97.5765"/>
<polygon fill="midnightblue" stroke="midnightblue" points="211.5,-124.396 215,-134.396 218.5,-124.396 211.5,-124.396"/>
</g>
<!-- Node31 -->
<g id="node6" class="node"><title>Node31</title>
<g id="a_node6"><a xlink:href="miregl_8h.html" target="_top" xlink:title="examples/miral&#45;shell\l/spinner/miregl.h">
<polygon fill="white" stroke="black" points="372,-67.5 372,-97.5 478,-97.5 478,-67.5 372,-67.5"/>
<text text-anchor="start" x="380" y="-85.5" font-family="Arial" font-size="10.00">examples/miral&#45;shell</text>
<text text-anchor="middle" x="425" y="-74.5" font-family="Arial" font-size="10.00">/spinner/miregl.h</text>
</a>
</g>
</g>
<!-- Node26&#45;&gt;Node31 -->
<g id="edge5" class="edge"><title>Node26&#45;&gt;Node31</title>
<path fill="none" stroke="midnightblue" d="M269.878,-131.514C304.042,-120.939 347.456,-107.502 379.662,-97.5331"/>
<polygon fill="midnightblue" stroke="midnightblue" points="268.568,-128.255 260.05,-134.556 270.638,-134.942 268.568,-128.255"/>
</g>
<!-- Node29 -->
<g id="node4" class="node"><title>Node29</title>
<g id="a_node4"><a xlink:href="decoration__provider_8cpp.html" target="_top" xlink:title="examples/miral&#45;shell\l/decoration_provider.cpp">
<polygon fill="white" stroke="black" points="0,-0.5 0,-30.5 122,-30.5 122,-0.5 0,-0.5"/>
<text text-anchor="start" x="8" y="-18.5" font-family="Arial" font-size="10.00">examples/miral&#45;shell</text>
<text text-anchor="middle" x="61" y="-7.5" font-family="Arial" font-size="10.00">/decoration_provider.cpp</text>
</a>
</g>
</g>
<!-- Node28&#45;&gt;Node29 -->
<g id="edge3" class="edge"><title>Node28&#45;&gt;Node29</title>
<path fill="none" stroke="midnightblue" d="M172.133,-63.4066C147.547,-53.0294 117.14,-40.1954 94.3505,-30.5765"/>
<polygon fill="midnightblue" stroke="midnightblue" points="171.01,-66.7319 181.584,-67.396 173.732,-60.2828 171.01,-66.7319"/>
</g>
<!-- Node30 -->
<g id="node5" class="node"><title>Node30</title>
<g id="a_node5"><a xlink:href="floating__window__manager_8cpp.html" target="_top" xlink:title="examples/miral&#45;shell\l/floating_window_manager.cpp">
<polygon fill="white" stroke="black" points="140.5,-0.5 140.5,-30.5 289.5,-30.5 289.5,-0.5 140.5,-0.5"/>
<text text-anchor="start" x="148.5" y="-18.5" font-family="Arial" font-size="10.00">examples/miral&#45;shell</text>
<text text-anchor="middle" x="215" y="-7.5" font-family="Arial" font-size="10.00">/floating_window_manager.cpp</text>
</a>
</g>
</g>
<!-- Node28&#45;&gt;Node30 -->
<g id="edge4" class="edge"><title>Node28&#45;&gt;Node30</title>
<path fill="none" stroke="midnightblue" d="M215,-57.1081C215,-48.1539 215,-38.3227 215,-30.5765"/>
<polygon fill="midnightblue" stroke="midnightblue" points="211.5,-57.3959 215,-67.396 218.5,-57.396 211.5,-57.3959"/>
</g>
<!-- Node32 -->
<g id="node7" class="node"><title>Node32</title>
<g id="a_node7"><a xlink:href="eglapp_8cpp.html" target="_top" xlink:title="examples/miral&#45;shell\l/spinner/eglapp.cpp">
<polygon fill="white" stroke="black" points="307,-0.5 307,-30.5 413,-30.5 413,-0.5 307,-0.5"/>
<text text-anchor="start" x="315" y="-18.5" font-family="Arial" font-size="10.00">examples/miral&#45;shell</text>
<text text-anchor="middle" x="360" y="-7.5" font-family="Arial" font-size="10.00">/spinner/eglapp.cpp</text>
</a>
</g>
</g>
<!-- Node31&#45;&gt;Node32 -->
<g id="edge6" class="edge"><title>Node31&#45;&gt;Node32</title>
<path fill="none" stroke="midnightblue" d="M403.811,-60.3115C394.061,-50.5612 382.759,-39.259 374.077,-30.5765"/>
<polygon fill="midnightblue" stroke="midnightblue" points="401.35,-62.7998 410.896,-67.396 406.3,-57.85 401.35,-62.7998"/>
</g>
<!-- Node33 -->
<g id="node8" class="node"><title>Node33</title>
<g id="a_node8"><a xlink:href="eglspinner_8cpp.html" target="_top" xlink:title="examples/miral&#45;shell\l/spinner/eglspinner.cpp">
<polygon fill="white" stroke="black" points="431.5,-0.5 431.5,-30.5 548.5,-30.5 548.5,-0.5 431.5,-0.5"/>
<text text-anchor="start" x="439.5" y="-18.5" font-family="Arial" font-size="10.00">examples/miral&#45;shell</text>
<text text-anchor="middle" x="490" y="-7.5" font-family="Arial" font-size="10.00">/spinner/eglspinner.cpp</text>
</a>
</g>
</g>
<!-- Node31&#45;&gt;Node33 -->
<g id="edge7" class="edge"><title>Node31&#45;&gt;Node33</title>
<path fill="none" stroke="midnightblue" d="M446.189,-60.3115C455.939,-50.5612 467.241,-39.259 475.923,-30.5765"/>
<polygon fill="midnightblue" stroke="midnightblue" points="443.7,-57.85 439.104,-67.396 448.65,-62.7998 443.7,-57.85"/>
</g>
<!-- Node34 -->
<g id="node9" class="node"><title>Node34</title>
<g id="a_node9"><a xlink:href="miregl_8cpp.html" target="_top" xlink:title="examples/miral&#45;shell\l/spinner/miregl.cpp">
<polygon fill="white" stroke="black" points="567,-0.5 567,-30.5 673,-30.5 673,-0.5 567,-0.5"/>
<text text-anchor="start" x="575" y="-18.5" font-family="Arial" font-size="10.00">examples/miral&#45;shell</text>
<text text-anchor="middle" x="620" y="-7.5" font-family="Arial" font-size="10.00">/spinner/miregl.cpp</text>
</a>
</g>
</g>
<!-- Node31&#45;&gt;Node34 -->
<g id="edge8" class="edge"><title>Node31&#45;&gt;Node34</title>
<path fill="none" stroke="midnightblue" d="M476.817,-64.2278C508.361,-53.7131 548.148,-40.4508 577.77,-30.5765"/>
<polygon fill="midnightblue" stroke="midnightblue" points="475.692,-60.9132 467.312,-67.396 477.906,-67.554 475.692,-60.9132"/>
</g>
</g>
</svg>
