<?xml version="1.0" encoding="UTF-8" standalone="no"?>
<!DOCTYPE svg PUBLIC "-//W3C//DTD SVG 1.1//EN"
 "http://www.w3.org/Graphics/SVG/1.1/DTD/svg11.dtd">
<!-- Generated by graphviz version 2.38.0 (20140413.2041)
 -->
<!-- Title: include/platform/mir/client/client_platform.h Pages: 1 -->
<svg width="1857pt" height="374pt"
 viewBox="0.00 0.00 1856.50 374.00" xmlns="http://www.w3.org/2000/svg" xmlns:xlink="http://www.w3.org/1999/xlink">
<g id="graph0" class="graph" transform="scale(1 1) rotate(0) translate(4 370)">
<title>include/platform/mir/client/client_platform.h</title>
<polygon fill="white" stroke="none" points="-4,4 -4,-370 1852.5,-370 1852.5,4 -4,4"/>
<!-- Node0 -->
<g id="node1" class="node"><title>Node0</title>
<polygon fill="#bfbfbf" stroke="black" points="343.5,-335.5 343.5,-365.5 461.5,-365.5 461.5,-335.5 343.5,-335.5"/>
<text text-anchor="start" x="351.5" y="-353.5" font-family="Arial" font-size="10.00">include/platform/mir</text>
<text text-anchor="middle" x="402.5" y="-342.5" font-family="Arial" font-size="10.00">/client/client_platform.h</text>
</g>
<!-- Node1 -->
<g id="node2" class="node"><title>Node1</title>
<g id="a_node2"><a xlink:href="native__buffer_8h.html" target="_top" xlink:title="mir/graphics/native\l_buffer.h">
<polygon fill="white" stroke="black" points="0,-268.5 0,-298.5 99,-298.5 99,-268.5 0,-268.5"/>
<text text-anchor="start" x="8" y="-286.5" font-family="Arial" font-size="10.00">mir/graphics/native</text>
<text text-anchor="middle" x="49.5" y="-275.5" font-family="Arial" font-size="10.00">_buffer.h</text>
</a>
</g>
</g>
<!-- Node0&#45;&gt;Node1 -->
<g id="edge1" class="edge"><title>Node0&#45;&gt;Node1</title>
<path fill="none" stroke="midnightblue" d="M343.483,-340.739C285.969,-331.898 195.852,-317.246 109.127,-299.26"/>
<polygon fill="midnightblue" stroke="midnightblue" points="109.622,-295.788 99.1172,-297.166 108.188,-302.64 109.622,-295.788"/>
</g>
<!-- Node2 -->
<g id="node3" class="node"><title>Node2</title>
<g id="a_node3"><a xlink:href="size_8h.html" target="_top" xlink:title="mir/geometry/size.h">
<polygon fill="white" stroke="black" points="117,-274 117,-293 220,-293 220,-274 117,-274"/>
<text text-anchor="middle" x="168.5" y="-281" font-family="Arial" font-size="10.00">mir/geometry/size.h</text>
</a>
</g>
</g>
<!-- Node0&#45;&gt;Node2 -->
<g id="edge2" class="edge"><title>Node0&#45;&gt;Node2</title>
<path fill="none" stroke="midnightblue" d="M352.014,-335.476C309.249,-323.597 248.733,-306.787 209.063,-295.768"/>
<polygon fill="midnightblue" stroke="midnightblue" points="209.775,-292.333 199.203,-293.029 207.902,-299.077 209.775,-292.333"/>
</g>
<!-- Node6 -->
<g id="node7" class="node"><title>Node6</title>
<g id="a_node7"><a xlink:href="client__types_8h.html" target="_top" xlink:title="mir_toolkit/client\l_types.h">
<polygon fill="white" stroke="black" points="241.5,-268.5 241.5,-298.5 329.5,-298.5 329.5,-268.5 241.5,-268.5"/>
<text text-anchor="start" x="249.5" y="-286.5" font-family="Arial" font-size="10.00">mir_toolkit/client</text>
<text text-anchor="middle" x="285.5" y="-275.5" font-family="Arial" font-size="10.00">_types.h</text>
</a>
</g>
</g>
<!-- Node0&#45;&gt;Node6 -->
<g id="edge7" class="edge"><title>Node0&#45;&gt;Node6</title>
<path fill="none" stroke="midnightblue" d="M377.113,-335.396C360.324,-326.069 338.111,-313.728 319.762,-303.534"/>
<polygon fill="midnightblue" stroke="midnightblue" points="321.279,-300.373 310.838,-298.577 317.88,-306.493 321.279,-300.373"/>
</g>
<!-- Node29 -->
<g id="node30" class="node"><title>Node29</title>
<g id="a_node30"><a xlink:href="mir__native__buffer_8h.html" target="_top" xlink:title="mir_toolkit/mir_native\l_buffer.h">
<polygon fill="white" stroke="black" points="347.5,-268.5 347.5,-298.5 457.5,-298.5 457.5,-268.5 347.5,-268.5"/>
<text text-anchor="start" x="355.5" y="-286.5" font-family="Arial" font-size="10.00">mir_toolkit/mir_native</text>
<text text-anchor="middle" x="402.5" y="-275.5" font-family="Arial" font-size="10.00">_buffer.h</text>
</a>
</g>
</g>
<!-- Node0&#45;&gt;Node29 -->
<g id="edge52" class="edge"><title>Node0&#45;&gt;Node29</title>
<path fill="none" stroke="midnightblue" d="M402.5,-335.396C402.5,-327.645 402.5,-317.812 402.5,-308.86"/>
<polygon fill="midnightblue" stroke="midnightblue" points="406,-308.576 402.5,-298.577 399,-308.577 406,-308.576"/>
</g>
<!-- Node30 -->
<g id="node31" class="node"><title>Node30</title>
<polygon fill="white" stroke="#bfbfbf" points="476,-274 476,-293 571,-293 571,-274 476,-274"/>
<text text-anchor="middle" x="523.5" y="-281" font-family="Arial" font-size="10.00">EGL/eglplatform.h</text>
</g>
<!-- Node0&#45;&gt;Node30 -->
<g id="edge53" class="edge"><title>Node0&#45;&gt;Node30</title>
<path fill="none" stroke="midnightblue" d="M428.755,-335.396C449.516,-324.243 478.3,-308.781 498.679,-297.834"/>
<polygon fill="midnightblue" stroke="midnightblue" points="500.511,-300.823 507.664,-293.007 497.198,-294.656 500.511,-300.823"/>
</g>
<!-- Node31 -->
<g id="node32" class="node"><title>Node31</title>
<polygon fill="white" stroke="#bfbfbf" points="589.5,-274 589.5,-293 649.5,-293 649.5,-274 589.5,-274"/>
<text text-anchor="middle" x="619.5" y="-281" font-family="Arial" font-size="10.00">EGL/egl.h</text>
</g>
<!-- Node0&#45;&gt;Node31 -->
<g id="edge54" class="edge"><title>Node0&#45;&gt;Node31</title>
<path fill="none" stroke="midnightblue" d="M456.19,-335.463C491.688,-325.889 539.132,-312.535 580.5,-299 582.903,-298.214 585.378,-297.372 587.86,-296.503"/>
<polygon fill="midnightblue" stroke="midnightblue" points="589.113,-299.772 597.334,-293.089 586.739,-293.187 589.113,-299.772"/>
</g>
<!-- Node32 -->
<g id="node33" class="node"><title>Node32</title>
<polygon fill="white" stroke="#bfbfbf" points="667.5,-274 667.5,-293 719.5,-293 719.5,-274 667.5,-274"/>
<text text-anchor="middle" x="693.5" y="-281" font-family="Arial" font-size="10.00">memory</text>
</g>
<!-- Node0&#45;&gt;Node32 -->
<g id="edge55" class="edge"><title>Node0&#45;&gt;Node32</title>
<path fill="none" stroke="midnightblue" d="M461.516,-341.26C513.931,-333.142 592.267,-319.036 658.5,-299 660.784,-298.309 663.124,-297.523 665.457,-296.682"/>
<polygon fill="midnightblue" stroke="midnightblue" points="666.808,-299.912 674.858,-293.024 664.27,-293.388 666.808,-299.912"/>
</g>
<!-- Node3 -->
<g id="node4" class="node"><title>Node3</title>
<g id="a_node4"><a xlink:href="dimensions_8h.html" target="_top" xlink:title="mir/geometry/dimensions.h">
<polygon fill="white" stroke="black" points="5.5,-207 5.5,-226 139.5,-226 139.5,-207 5.5,-207"/>
<text text-anchor="middle" x="72.5" y="-214" font-family="Arial" font-size="10.00">mir/geometry/dimensions.h</text>
</a>
</g>
</g>
<!-- Node2&#45;&gt;Node3 -->
<g id="edge3" class="edge"><title>Node2&#45;&gt;Node3</title>
<path fill="none" stroke="midnightblue" d="M155.553,-273.734C139.647,-262.964 112.451,-244.55 93.5306,-231.739"/>
<polygon fill="midnightblue" stroke="midnightblue" points="95.4847,-228.836 85.2419,-226.127 91.56,-234.632 95.4847,-228.836"/>
</g>
<!-- Node5 -->
<g id="node6" class="node"><title>Node5</title>
<polygon fill="white" stroke="#bfbfbf" points="123.5,-134.5 123.5,-153.5 167.5,-153.5 167.5,-134.5 123.5,-134.5"/>
<text text-anchor="middle" x="145.5" y="-141.5" font-family="Arial" font-size="10.00">iosfwd</text>
</g>
<!-- Node2&#45;&gt;Node5 -->
<g id="edge6" class="edge"><title>Node2&#45;&gt;Node5</title>
<path fill="none" stroke="midnightblue" d="M167.061,-273.899C163.399,-252.003 153.656,-193.761 148.617,-163.634"/>
<polygon fill="midnightblue" stroke="midnightblue" points="152.04,-162.883 146.938,-153.598 145.136,-164.038 152.04,-162.883"/>
</g>
<!-- Node4 -->
<g id="node5" class="node"><title>Node4</title>
<polygon fill="white" stroke="#bfbfbf" points="49.5,-134.5 49.5,-153.5 95.5,-153.5 95.5,-134.5 49.5,-134.5"/>
<text text-anchor="middle" x="72.5" y="-141.5" font-family="Arial" font-size="10.00">cstdint</text>
</g>
<!-- Node3&#45;&gt;Node4 -->
<g id="edge4" class="edge"><title>Node3&#45;&gt;Node4</title>
<path fill="none" stroke="midnightblue" d="M72.5,-206.855C72.5,-196.179 72.5,-177.717 72.5,-163.734"/>
<polygon fill="midnightblue" stroke="midnightblue" points="76.0001,-163.715 72.5,-153.715 69.0001,-163.715 76.0001,-163.715"/>
</g>
<!-- Node3&#45;&gt;Node5 -->
<g id="edge5" class="edge"><title>Node3&#45;&gt;Node5</title>
<path fill="none" stroke="midnightblue" d="M81.4512,-206.855C93.2727,-195.439 114.312,-175.12 129.041,-160.896"/>
<polygon fill="midnightblue" stroke="midnightblue" points="131.714,-163.18 136.476,-153.715 126.851,-158.145 131.714,-163.18"/>
</g>
<!-- Node7 -->
<g id="node8" class="node"><title>Node7</title>
<g id="a_node8"><a xlink:href="events_2event_8h.html" target="_top" xlink:title="mir_toolkit/events\l/event.h">
<polygon fill="white" stroke="black" points="924.5,-201.5 924.5,-231.5 1018.5,-231.5 1018.5,-201.5 924.5,-201.5"/>
<text text-anchor="start" x="932.5" y="-219.5" font-family="Arial" font-size="10.00">mir_toolkit/events</text>
<text text-anchor="middle" x="971.5" y="-208.5" font-family="Arial" font-size="10.00">/event.h</text>
</a>
</g>
</g>
<!-- Node6&#45;&gt;Node7 -->
<g id="edge8" class="edge"><title>Node6&#45;&gt;Node7</title>
<path fill="none" stroke="midnightblue" d="M329.606,-269.768C332.602,-269.109 335.587,-268.51 338.5,-268 548.585,-231.217 802.645,-221.188 914.239,-218.483"/>
<polygon fill="midnightblue" stroke="midnightblue" points="914.352,-221.982 924.268,-218.251 914.19,-214.984 914.352,-221.982"/>
</g>
<!-- Node8 -->
<g id="node9" class="node"><title>Node8</title>
<polygon fill="white" stroke="#bfbfbf" points="1788.5,-134.5 1788.5,-153.5 1840.5,-153.5 1840.5,-134.5 1788.5,-134.5"/>
<text text-anchor="middle" x="1814.5" y="-141.5" font-family="Arial" font-size="10.00">stddef.h</text>
</g>
<!-- Node6&#45;&gt;Node8 -->
<g id="edge51" class="edge"><title>Node6&#45;&gt;Node8</title>
<path fill="none" stroke="midnightblue" d="M329.591,-269.676C332.591,-269.039 335.58,-268.47 338.5,-268 641.242,-219.26 721.622,-253.61 1027.5,-232 1362.21,-208.353 1459.34,-265.443 1779.5,-165 1784.34,-163.482 1789.24,-161.222 1793.78,-158.762"/>
<polygon fill="midnightblue" stroke="midnightblue" points="1795.66,-161.719 1802.47,-153.602 1792.08,-155.701 1795.66,-161.719"/>
</g>
<!-- Node10 -->
<g id="node11" class="node"><title>Node10</title>
<g id="a_node11"><a xlink:href="common_8h.html" target="_top" xlink:title="mir_toolkit/common.h">
<polygon fill="white" stroke="black" points="233.5,-134.5 233.5,-153.5 343.5,-153.5 343.5,-134.5 233.5,-134.5"/>
<text text-anchor="middle" x="288.5" y="-141.5" font-family="Arial" font-size="10.00">mir_toolkit/common.h</text>
</a>
</g>
</g>
<!-- Node6&#45;&gt;Node10 -->
<g id="edge49" class="edge"><title>Node6&#45;&gt;Node10</title>
<path fill="none" stroke="midnightblue" d="M285.81,-268.303C286.354,-243.336 287.484,-191.58 288.092,-163.722"/>
<polygon fill="midnightblue" stroke="midnightblue" points="291.591,-163.775 288.31,-153.701 284.593,-163.622 291.591,-163.775"/>
</g>
<!-- Node11 -->
<g id="node12" class="node"><title>Node11</title>
<g id="a_node12"><a xlink:href="deprecations_8h.html" target="_top" xlink:title="mir_toolkit/deprecations.h">
<polygon fill="white" stroke="black" points="755.5,-62 755.5,-81 883.5,-81 883.5,-62 755.5,-62"/>
<text text-anchor="middle" x="819.5" y="-69" font-family="Arial" font-size="10.00">mir_toolkit/deprecations.h</text>
</a>
</g>
</g>
<!-- Node6&#45;&gt;Node11 -->
<g id="edge50" class="edge"><title>Node6&#45;&gt;Node11</title>
<path fill="none" stroke="midnightblue" d="M271.41,-268.305C242.995,-238.001 184.786,-166.227 224.5,-123 259.081,-85.3596 593.509,-75.743 745.265,-73.3113"/>
<polygon fill="midnightblue" stroke="midnightblue" points="745.486,-76.8084 755.431,-73.1548 745.378,-69.8092 745.486,-76.8084"/>
</g>
<!-- Node7&#45;&gt;Node8 -->
<g id="edge9" class="edge"><title>Node7&#45;&gt;Node8</title>
<path fill="none" stroke="midnightblue" d="M1018.63,-213.801C1180.33,-207.8 1706.7,-186.785 1779.5,-165 1784.36,-163.547 1789.27,-161.314 1793.81,-158.86"/>
<polygon fill="midnightblue" stroke="midnightblue" points="1795.69,-161.814 1802.49,-153.691 1792.11,-155.8 1795.69,-161.814"/>
</g>
<!-- Node9 -->
<g id="node10" class="node"><title>Node9</title>
<polygon fill="white" stroke="#bfbfbf" points="1212,-0.5 1212,-19.5 1261,-19.5 1261,-0.5 1212,-0.5"/>
<text text-anchor="middle" x="1236.5" y="-7.5" font-family="Arial" font-size="10.00">stdint.h</text>
</g>
<!-- Node7&#45;&gt;Node9 -->
<g id="edge10" class="edge"><title>Node7&#45;&gt;Node9</title>
<path fill="none" stroke="midnightblue" d="M924.112,-214.962C792.056,-212.975 427.23,-203.976 391.5,-165 378.886,-151.24 379.587,-137.371 391.5,-123 444.242,-59.3724 1048.36,-21.5066 1201.42,-12.8919"/>
<polygon fill="midnightblue" stroke="midnightblue" points="1201.86,-16.373 1211.65,-12.3222 1201.47,-9.38387 1201.86,-16.373"/>
</g>
<!-- Node7&#45;&gt;Node10 -->
<g id="edge11" class="edge"><title>Node7&#45;&gt;Node10</title>
<path fill="none" stroke="midnightblue" d="M924.48,-214.828C821.093,-212.656 566.563,-203.495 357.5,-165 346.137,-162.908 333.962,-159.711 323.051,-156.482"/>
<polygon fill="midnightblue" stroke="midnightblue" points="324.032,-153.122 313.445,-153.54 321.981,-159.815 324.032,-153.122"/>
</g>
<!-- Node7&#45;&gt;Node11 -->
<g id="edge13" class="edge"><title>Node7&#45;&gt;Node11</title>
<path fill="none" stroke="midnightblue" d="M924.357,-214.169C851.587,-211.011 717.17,-200.411 687.5,-165 675.512,-150.692 676.918,-138.378 687.5,-123 701.07,-103.279 723.468,-91.2553 745.995,-83.9257"/>
<polygon fill="midnightblue" stroke="midnightblue" points="747.043,-87.2657 755.632,-81.0631 745.05,-80.5555 747.043,-87.2657"/>
</g>
<!-- Node12 -->
<g id="node13" class="node"><title>Node12</title>
<g id="a_node13"><a xlink:href="input__event_8h.html" target="_top" xlink:title="mir_toolkit/events\l/input/input_event.h">
<polygon fill="white" stroke="black" points="1556.5,-129 1556.5,-159 1658.5,-159 1658.5,-129 1556.5,-129"/>
<text text-anchor="start" x="1564.5" y="-147" font-family="Arial" font-size="10.00">mir_toolkit/events</text>
<text text-anchor="middle" x="1607.5" y="-136" font-family="Arial" font-size="10.00">/input/input_event.h</text>
</a>
</g>
</g>
<!-- Node7&#45;&gt;Node12 -->
<g id="edge14" class="edge"><title>Node7&#45;&gt;Node12</title>
<path fill="none" stroke="midnightblue" d="M1018.61,-214.997C1116.55,-213.122 1348.31,-204.465 1538.5,-165 1542.61,-164.147 1546.84,-163.102 1551.07,-161.942"/>
<polygon fill="midnightblue" stroke="midnightblue" points="1552.33,-165.222 1560.95,-159.062 1550.37,-158.502 1552.33,-165.222"/>
</g>
<!-- Node19 -->
<g id="node20" class="node"><title>Node19</title>
<g id="a_node20"><a xlink:href="resize__event_8h.html" target="_top" xlink:title="mir_toolkit/events\l/resize_event.h">
<polygon fill="white" stroke="black" points="696.5,-129 696.5,-159 790.5,-159 790.5,-129 696.5,-129"/>
<text text-anchor="start" x="704.5" y="-147" font-family="Arial" font-size="10.00">mir_toolkit/events</text>
<text text-anchor="middle" x="743.5" y="-136" font-family="Arial" font-size="10.00">/resize_event.h</text>
</a>
</g>
</g>
<!-- Node7&#45;&gt;Node19 -->
<g id="edge25" class="edge"><title>Node7&#45;&gt;Node19</title>
<path fill="none" stroke="midnightblue" d="M924.198,-204.412C887.346,-194.586 835.339,-179.576 790.5,-165 787.92,-164.161 785.279,-163.284 782.627,-162.385"/>
<polygon fill="midnightblue" stroke="midnightblue" points="783.659,-159.038 773.064,-159.063 781.362,-165.651 783.659,-159.038"/>
</g>
<!-- Node20 -->
<g id="node21" class="node"><title>Node20</title>
<g id="a_node21"><a xlink:href="surface__event_8h.html" target="_top" xlink:title="mir_toolkit/events\l/surface_event.h">
<polygon fill="white" stroke="black" points="1444.5,-129 1444.5,-159 1538.5,-159 1538.5,-129 1444.5,-129"/>
<text text-anchor="start" x="1452.5" y="-147" font-family="Arial" font-size="10.00">mir_toolkit/events</text>
<text text-anchor="middle" x="1491.5" y="-136" font-family="Arial" font-size="10.00">/surface_event.h</text>
</a>
</g>
</g>
<!-- Node7&#45;&gt;Node20 -->
<g id="edge27" class="edge"><title>Node7&#45;&gt;Node20</title>
<path fill="none" stroke="midnightblue" d="M1018.78,-213.774C1102.18,-210.044 1280,-198.641 1426.5,-165 1430.08,-164.178 1433.75,-163.197 1437.43,-162.119"/>
<polygon fill="midnightblue" stroke="midnightblue" points="1438.68,-165.396 1447.18,-159.076 1436.6,-158.714 1438.68,-165.396"/>
</g>
<!-- Node21 -->
<g id="node22" class="node"><title>Node21</title>
<g id="a_node22"><a xlink:href="window__event_8h.html" target="_top" xlink:title="mir_toolkit/events\l/window_event.h">
<polygon fill="white" stroke="black" points="808.5,-129 808.5,-159 902.5,-159 902.5,-129 808.5,-129"/>
<text text-anchor="start" x="816.5" y="-147" font-family="Arial" font-size="10.00">mir_toolkit/events</text>
<text text-anchor="middle" x="855.5" y="-136" font-family="Arial" font-size="10.00">/window_event.h</text>
</a>
</g>
</g>
<!-- Node7&#45;&gt;Node21 -->
<g id="edge30" class="edge"><title>Node7&#45;&gt;Node21</title>
<path fill="none" stroke="midnightblue" d="M942.778,-201.403C923.988,-190.836 899.784,-176.245 881.552,-164.551"/>
<polygon fill="midnightblue" stroke="midnightblue" points="883.423,-161.592 873.132,-159.073 879.606,-167.46 883.423,-161.592"/>
</g>
<!-- Node22 -->
<g id="node23" class="node"><title>Node22</title>
<g id="a_node23"><a xlink:href="orientation__event_8h.html" target="_top" xlink:title="mir_toolkit/events\l/orientation_event.h">
<polygon fill="white" stroke="black" points="1180.5,-129 1180.5,-159 1282.5,-159 1282.5,-129 1180.5,-129"/>
<text text-anchor="start" x="1188.5" y="-147" font-family="Arial" font-size="10.00">mir_toolkit/events</text>
<text text-anchor="middle" x="1231.5" y="-136" font-family="Arial" font-size="10.00">/orientation_event.h</text>
</a>
</g>
</g>
<!-- Node7&#45;&gt;Node22 -->
<g id="edge32" class="edge"><title>Node7&#45;&gt;Node22</title>
<path fill="none" stroke="midnightblue" d="M1018.66,-202.869C1057.49,-193.252 1113.69,-179.275 1162.5,-165 1165.61,-164.091 1168.8,-163.125 1172.02,-162.129"/>
<polygon fill="midnightblue" stroke="midnightblue" points="1173.26,-165.409 1181.75,-159.072 1171.16,-158.731 1173.26,-165.409"/>
</g>
<!-- Node23 -->
<g id="node24" class="node"><title>Node23</title>
<g id="a_node24"><a xlink:href="prompt__session__event_8h.html" target="_top" xlink:title="mir_toolkit/events\l/prompt_session_event.h">
<polygon fill="white" stroke="black" points="1300.5,-129 1300.5,-159 1426.5,-159 1426.5,-129 1300.5,-129"/>
<text text-anchor="start" x="1308.5" y="-147" font-family="Arial" font-size="10.00">mir_toolkit/events</text>
<text text-anchor="middle" x="1363.5" y="-136" font-family="Arial" font-size="10.00">/prompt_session_event.h</text>
</a>
</g>
</g>
<!-- Node7&#45;&gt;Node23 -->
<g id="edge34" class="edge"><title>Node7&#45;&gt;Node23</title>
<path fill="none" stroke="midnightblue" d="M1018.66,-208.952C1079.91,-200.712 1189.61,-185.161 1282.5,-165 1287.37,-163.944 1292.39,-162.754 1297.45,-161.496"/>
<polygon fill="midnightblue" stroke="midnightblue" points="1298.37,-164.874 1307.19,-159.006 1296.63,-158.093 1298.37,-164.874"/>
</g>
<!-- Node24 -->
<g id="node25" class="node"><title>Node24</title>
<g id="a_node25"><a xlink:href="keymap__event_8h.html" target="_top" xlink:title="mir_toolkit/events\l/keymap_event.h">
<polygon fill="white" stroke="black" points="1676.5,-129 1676.5,-159 1770.5,-159 1770.5,-129 1676.5,-129"/>
<text text-anchor="start" x="1684.5" y="-147" font-family="Arial" font-size="10.00">mir_toolkit/events</text>
<text text-anchor="middle" x="1723.5" y="-136" font-family="Arial" font-size="10.00">/keymap_event.h</text>
</a>
</g>
</g>
<!-- Node7&#45;&gt;Node24 -->
<g id="edge36" class="edge"><title>Node7&#45;&gt;Node24</title>
<path fill="none" stroke="midnightblue" d="M1018.55,-213.58C1152.8,-208.082 1535.21,-190.985 1658.5,-165 1662.31,-164.197 1666.22,-163.195 1670.13,-162.072"/>
<polygon fill="midnightblue" stroke="midnightblue" points="1671.32,-165.368 1679.85,-159.073 1669.26,-158.68 1671.32,-165.368"/>
</g>
<!-- Node25 -->
<g id="node26" class="node"><title>Node25</title>
<g id="a_node26"><a xlink:href="input__configuration__event_8h.html" target="_top" xlink:title="mir_toolkit/events\l/input_configuration\l_event.h">
<polygon fill="white" stroke="black" points="921,-123.5 921,-164.5 1022,-164.5 1022,-123.5 921,-123.5"/>
<text text-anchor="start" x="929" y="-152.5" font-family="Arial" font-size="10.00">mir_toolkit/events</text>
<text text-anchor="start" x="929" y="-141.5" font-family="Arial" font-size="10.00">/input_configuration</text>
<text text-anchor="middle" x="971.5" y="-130.5" font-family="Arial" font-size="10.00">_event.h</text>
</a>
</g>
</g>
<!-- Node7&#45;&gt;Node25 -->
<g id="edge39" class="edge"><title>Node7&#45;&gt;Node25</title>
<path fill="none" stroke="midnightblue" d="M965.951,-201.233C964.948,-193.574 964.573,-183.837 964.827,-174.626"/>
<polygon fill="midnightblue" stroke="midnightblue" points="968.324,-174.766 965.381,-164.588 961.335,-174.38 968.324,-174.766"/>
</g>
<!-- Node26 -->
<g id="node27" class="node"><title>Node26</title>
<g id="a_node27"><a xlink:href="surface__output__event_8h.html" target="_top" xlink:title="mir_toolkit/events\l/surface_output_event.h">
<polygon fill="white" stroke="black" points="1040.5,-129 1040.5,-159 1162.5,-159 1162.5,-129 1040.5,-129"/>
<text text-anchor="start" x="1048.5" y="-147" font-family="Arial" font-size="10.00">mir_toolkit/events</text>
<text text-anchor="middle" x="1101.5" y="-136" font-family="Arial" font-size="10.00">/surface_output_event.h</text>
</a>
</g>
</g>
<!-- Node7&#45;&gt;Node26 -->
<g id="edge42" class="edge"><title>Node7&#45;&gt;Node26</title>
<path fill="none" stroke="midnightblue" d="M991.969,-201.403C1010.46,-190.596 1037.98,-175.579 1060.87,-163.758"/>
<polygon fill="midnightblue" stroke="midnightblue" points="1062.72,-166.742 1070.03,-159.073 1059.53,-160.51 1062.72,-166.742"/>
</g>
<!-- Node27 -->
<g id="node28" class="node"><title>Node27</title>
<g id="a_node28"><a xlink:href="window__output__event_8h.html" target="_top" xlink:title="mir_toolkit/events\l/window_output_event.h">
<polygon fill="white" stroke="black" points="400,-129 400,-159 521,-159 521,-129 400,-129"/>
<text text-anchor="start" x="408" y="-147" font-family="Arial" font-size="10.00">mir_toolkit/events</text>
<text text-anchor="middle" x="460.5" y="-136" font-family="Arial" font-size="10.00">/window_output_event.h</text>
</a>
</g>
</g>
<!-- Node7&#45;&gt;Node27 -->
<g id="edge45" class="edge"><title>Node7&#45;&gt;Node27</title>
<path fill="none" stroke="midnightblue" d="M924.279,-212.996C841.667,-207.789 666.434,-193.8 521.5,-165 516.514,-164.009 511.367,-162.836 506.268,-161.563"/>
<polygon fill="midnightblue" stroke="midnightblue" points="507.136,-158.172 496.574,-159.011 505.354,-164.941 507.136,-158.172"/>
</g>
<!-- Node28 -->
<g id="node29" class="node"><title>Node28</title>
<g id="a_node29"><a xlink:href="input__device__state__event_8h.html" target="_top" xlink:title="mir_toolkit/events\l/input_device_state\l_event.h">
<polygon fill="white" stroke="black" points="539,-123.5 539,-164.5 640,-164.5 640,-123.5 539,-123.5"/>
<text text-anchor="start" x="547" y="-152.5" font-family="Arial" font-size="10.00">mir_toolkit/events</text>
<text text-anchor="start" x="547" y="-141.5" font-family="Arial" font-size="10.00">/input_device_state</text>
<text text-anchor="middle" x="589.5" y="-130.5" font-family="Arial" font-size="10.00">_event.h</text>
</a>
</g>
</g>
<!-- Node7&#45;&gt;Node28 -->
<g id="edge47" class="edge"><title>Node7&#45;&gt;Node28</title>
<path fill="none" stroke="midnightblue" d="M924.236,-210.791C862.298,-203.679 750.698,-188.703 650.266,-166.028"/>
<polygon fill="midnightblue" stroke="midnightblue" points="650.801,-162.56 640.272,-163.737 649.237,-169.383 650.801,-162.56"/>
</g>
<!-- Node10&#45;&gt;Node11 -->
<g id="edge12" class="edge"><title>Node10&#45;&gt;Node11</title>
<path fill="none" stroke="midnightblue" d="M328.982,-134.418C347.914,-130.59 370.802,-126.226 391.5,-123 515.111,-103.734 659.832,-88.0918 745.356,-79.5586"/>
<polygon fill="midnightblue" stroke="midnightblue" points="745.882,-83.0237 755.487,-78.5534 745.19,-76.058 745.882,-83.0237"/>
</g>
<!-- Node12&#45;&gt;Node7 -->
<g id="edge15" class="edge"><title>Node12&#45;&gt;Node7</title>
<path fill="none" stroke="midnightblue" d="M1578.61,-159.062C1571.47,-161.361 1563.81,-163.483 1556.5,-165 1366.26,-204.476 1134.42,-213.127 1028.75,-214.998"/>
<polygon fill="midnightblue" stroke="midnightblue" points="1028.56,-211.501 1018.62,-215.163 1028.67,-218.5 1028.56,-211.501"/>
</g>
<!-- Node12&#45;&gt;Node9 -->
<g id="edge18" class="edge"><title>Node12&#45;&gt;Node9</title>
<path fill="none" stroke="midnightblue" d="M1569.09,-128.944C1561.98,-126.702 1554.57,-124.599 1547.5,-123 1483.95,-108.627 1305.56,-129.881 1256.5,-87 1240.32,-72.8584 1236.48,-47.3506 1235.92,-29.8151"/>
<polygon fill="midnightblue" stroke="midnightblue" points="1239.42,-29.6456 1235.93,-19.6426 1232.42,-29.6397 1239.42,-29.6456"/>
</g>
<!-- Node13 -->
<g id="node14" class="node"><title>Node13</title>
<g id="a_node14"><a xlink:href="mir__input__device__types_8h.html" target="_top" xlink:title="mir_toolkit/mir_input\l_device_types.h">
<polygon fill="white" stroke="black" points="1388.5,-56.5 1388.5,-86.5 1492.5,-86.5 1492.5,-56.5 1388.5,-56.5"/>
<text text-anchor="start" x="1396.5" y="-74.5" font-family="Arial" font-size="10.00">mir_toolkit/mir_input</text>
<text text-anchor="middle" x="1440.5" y="-63.5" font-family="Arial" font-size="10.00">_device_types.h</text>
</a>
</g>
</g>
<!-- Node12&#45;&gt;Node13 -->
<g id="edge16" class="edge"><title>Node12&#45;&gt;Node13</title>
<path fill="none" stroke="midnightblue" d="M1574.11,-128.903C1547.94,-117.856 1511.35,-102.41 1483.08,-90.4745"/>
<polygon fill="midnightblue" stroke="midnightblue" points="1484.41,-87.2377 1473.84,-86.5729 1481.69,-93.6866 1484.41,-87.2377"/>
</g>
<!-- Node14 -->
<g id="node15" class="node"><title>Node14</title>
<polygon fill="white" stroke="#bfbfbf" points="1578.5,-0.5 1578.5,-19.5 1634.5,-19.5 1634.5,-0.5 1578.5,-0.5"/>
<text text-anchor="middle" x="1606.5" y="-7.5" font-family="Arial" font-size="10.00">stdbool.h</text>
</g>
<!-- Node12&#45;&gt;Node14 -->
<g id="edge19" class="edge"><title>Node12&#45;&gt;Node14</title>
<path fill="none" stroke="midnightblue" d="M1615.38,-128.86C1623.96,-111.666 1635.7,-81.7496 1629.5,-56 1627.19,-46.4183 1622.48,-36.5813 1617.92,-28.5579"/>
<polygon fill="midnightblue" stroke="midnightblue" points="1620.79,-26.537 1612.6,-19.8095 1614.81,-30.1727 1620.79,-26.537"/>
</g>
<!-- Node15 -->
<g id="node16" class="node"><title>Node15</title>
<g id="a_node16"><a xlink:href="touch__event_8h.html" target="_top" xlink:title="mir_toolkit/events\l/input/touch_event.h">
<polygon fill="white" stroke="black" points="1265,-56.5 1265,-86.5 1370,-86.5 1370,-56.5 1265,-56.5"/>
<text text-anchor="start" x="1273" y="-74.5" font-family="Arial" font-size="10.00">mir_toolkit/events</text>
<text text-anchor="middle" x="1317.5" y="-63.5" font-family="Arial" font-size="10.00">/input/touch_event.h</text>
</a>
</g>
</g>
<!-- Node12&#45;&gt;Node15 -->
<g id="edge20" class="edge"><title>Node12&#45;&gt;Node15</title>
<path fill="none" stroke="midnightblue" d="M1567.34,-128.935C1560.75,-126.822 1553.96,-124.763 1547.5,-123 1476.85,-103.72 1455.73,-103.665 1380.24,-87.123"/>
<polygon fill="midnightblue" stroke="midnightblue" points="1380.77,-83.6552 1370.25,-84.9072 1379.25,-90.4892 1380.77,-83.6552"/>
</g>
<!-- Node16 -->
<g id="node17" class="node"><title>Node16</title>
<g id="a_node17"><a xlink:href="keyboard__event_8h.html" target="_top" xlink:title="mir_toolkit/events\l/input/keyboard_event.h">
<polygon fill="white" stroke="black" points="1677,-56.5 1677,-86.5 1798,-86.5 1798,-56.5 1677,-56.5"/>
<text text-anchor="start" x="1685" y="-74.5" font-family="Arial" font-size="10.00">mir_toolkit/events</text>
<text text-anchor="middle" x="1737.5" y="-63.5" font-family="Arial" font-size="10.00">/input/keyboard_event.h</text>
</a>
</g>
</g>
<!-- Node12&#45;&gt;Node16 -->
<g id="edge21" class="edge"><title>Node12&#45;&gt;Node16</title>
<path fill="none" stroke="midnightblue" d="M1633.49,-128.903C1653.33,-118.144 1680.87,-103.213 1702.62,-91.4156"/>
<polygon fill="midnightblue" stroke="midnightblue" points="1704.43,-94.4168 1711.55,-86.5729 1701.09,-88.2634 1704.43,-94.4168"/>
</g>
<!-- Node18 -->
<g id="node19" class="node"><title>Node18</title>
<g id="a_node19"><a xlink:href="pointer__event_8h.html" target="_top" xlink:title="mir_toolkit/events\l/input/pointer_event.h">
<polygon fill="white" stroke="black" points="1510.5,-56.5 1510.5,-86.5 1620.5,-86.5 1620.5,-56.5 1510.5,-56.5"/>
<text text-anchor="start" x="1518.5" y="-74.5" font-family="Arial" font-size="10.00">mir_toolkit/events</text>
<text text-anchor="middle" x="1565.5" y="-63.5" font-family="Arial" font-size="10.00">/input/pointer_event.h</text>
</a>
</g>
</g>
<!-- Node12&#45;&gt;Node18 -->
<g id="edge23" class="edge"><title>Node12&#45;&gt;Node18</title>
<path fill="none" stroke="midnightblue" d="M1599,-128.733C1593.31,-119.177 1585.69,-106.387 1579.15,-95.419"/>
<polygon fill="midnightblue" stroke="midnightblue" points="1582.11,-93.5452 1573.99,-86.7455 1576.1,-97.1279 1582.11,-93.5452"/>
</g>
<!-- Node13&#45;&gt;Node9 -->
<g id="edge17" class="edge"><title>Node13&#45;&gt;Node9</title>
<path fill="none" stroke="midnightblue" d="M1392.41,-56.4747C1355.05,-45.5771 1304.14,-30.7291 1270.81,-21.0077"/>
<polygon fill="midnightblue" stroke="midnightblue" points="1271.65,-17.6054 1261.07,-18.1653 1269.69,-24.3254 1271.65,-17.6054"/>
</g>
<!-- Node17 -->
<g id="node18" class="node"><title>Node17</title>
<polygon fill="white" stroke="#bfbfbf" points="1714.5,-0.5 1714.5,-19.5 1848.5,-19.5 1848.5,-0.5 1714.5,-0.5"/>
<text text-anchor="middle" x="1781.5" y="-7.5" font-family="Arial" font-size="10.00">xkbcommon/xkbcommon.h</text>
</g>
<!-- Node16&#45;&gt;Node17 -->
<g id="edge22" class="edge"><title>Node16&#45;&gt;Node17</title>
<path fill="none" stroke="midnightblue" d="M1747.93,-56.3993C1754.26,-47.8424 1762.37,-36.8708 1769.03,-27.857"/>
<polygon fill="midnightblue" stroke="midnightblue" points="1771.97,-29.7792 1775.1,-19.6578 1766.34,-25.6171 1771.97,-29.7792"/>
</g>
<!-- Node18&#45;&gt;Node14 -->
<g id="edge24" class="edge"><title>Node18&#45;&gt;Node14</title>
<path fill="none" stroke="midnightblue" d="M1575.22,-56.3993C1581.05,-47.9315 1588.52,-37.0991 1594.69,-28.1393"/>
<polygon fill="midnightblue" stroke="midnightblue" points="1597.74,-29.8781 1600.53,-19.6578 1591.98,-25.9062 1597.74,-29.8781"/>
</g>
<!-- Node19&#45;&gt;Node7 -->
<g id="edge26" class="edge"><title>Node19&#45;&gt;Node7</title>
<path fill="none" stroke="midnightblue" d="M790.547,-158.957C796.61,-161.04 802.707,-163.117 808.5,-165 845.247,-176.945 886.806,-189.182 918.841,-198.618"/>
<polygon fill="midnightblue" stroke="midnightblue" points="917.879,-201.984 928.461,-201.453 919.858,-195.269 917.879,-201.984"/>
</g>
<!-- Node20&#45;&gt;Node7 -->
<g id="edge28" class="edge"><title>Node20&#45;&gt;Node7</title>
<path fill="none" stroke="midnightblue" d="M1464.86,-159.076C1458.29,-161.344 1451.24,-163.452 1444.5,-165 1297.5,-198.755 1118.97,-210.121 1029.01,-213.811"/>
<polygon fill="midnightblue" stroke="midnightblue" points="1028.61,-210.325 1018.75,-214.215 1028.88,-217.319 1028.61,-210.325"/>
</g>
<!-- Node20&#45;&gt;Node11 -->
<g id="edge29" class="edge"><title>Node20&#45;&gt;Node11</title>
<path fill="none" stroke="midnightblue" d="M1456.66,-128.979C1449.74,-126.647 1442.46,-124.502 1435.5,-123 1243.32,-81.5531 1010.69,-73.5659 893.955,-72.3744"/>
<polygon fill="midnightblue" stroke="midnightblue" points="893.737,-68.8724 883.707,-72.2843 893.675,-75.8721 893.737,-68.8724"/>
</g>
<!-- Node21&#45;&gt;Node7 -->
<g id="edge31" class="edge"><title>Node21&#45;&gt;Node7</title>
<path fill="none" stroke="midnightblue" d="M884.178,-159.073C902.96,-169.634 927.165,-184.224 945.405,-195.922"/>
<polygon fill="midnightblue" stroke="midnightblue" points="943.54,-198.884 953.831,-201.403 947.356,-193.016 943.54,-198.884"/>
</g>
<!-- Node22&#45;&gt;Node7 -->
<g id="edge33" class="edge"><title>Node22&#45;&gt;Node7</title>
<path fill="none" stroke="midnightblue" d="M1199.53,-159.072C1193.26,-161.139 1186.72,-163.181 1180.5,-165 1129.75,-179.844 1071,-194.366 1028.64,-203.998"/>
<polygon fill="midnightblue" stroke="midnightblue" points="1027.77,-200.607 1018.78,-206.218 1029.31,-207.436 1027.77,-200.607"/>
</g>
<!-- Node23&#45;&gt;Node7 -->
<g id="edge35" class="edge"><title>Node23&#45;&gt;Node7</title>
<path fill="none" stroke="midnightblue" d="M1324.92,-159.006C1316.9,-161.175 1308.49,-163.266 1300.5,-165 1206.33,-185.44 1094.87,-201.14 1028.75,-209.29"/>
<polygon fill="midnightblue" stroke="midnightblue" points="1028.04,-205.85 1018.54,-210.532 1028.89,-212.799 1028.04,-205.85"/>
</g>
<!-- Node24&#45;&gt;Node7 -->
<g id="edge37" class="edge"><title>Node24&#45;&gt;Node7</title>
<path fill="none" stroke="midnightblue" d="M1697.49,-159.073C1690.75,-161.401 1683.47,-163.531 1676.5,-165 1553.79,-190.864 1174.35,-207.923 1028.93,-213.503"/>
<polygon fill="midnightblue" stroke="midnightblue" points="1028.73,-210.008 1018.87,-213.885 1028.99,-217.003 1028.73,-210.008"/>
</g>
<!-- Node24&#45;&gt;Node17 -->
<g id="edge38" class="edge"><title>Node24&#45;&gt;Node17</title>
<path fill="none" stroke="midnightblue" d="M1759.29,-128.972C1777.22,-119.899 1797.24,-106.162 1807.5,-87 1817.73,-67.883 1805.94,-43.9524 1795.11,-28.1074"/>
<polygon fill="midnightblue" stroke="midnightblue" points="1797.75,-25.7972 1789.01,-19.81 1792.11,-29.9413 1797.75,-25.7972"/>
</g>
<!-- Node25&#45;&gt;Node7 -->
<g id="edge40" class="edge"><title>Node25&#45;&gt;Node7</title>
<path fill="none" stroke="midnightblue" d="M977.619,-164.588C978.331,-172.853 978.44,-182.56 977.948,-191.269"/>
<polygon fill="midnightblue" stroke="midnightblue" points="974.462,-190.959 977.049,-201.233 981.433,-191.588 974.462,-190.959"/>
</g>
<!-- Node25&#45;&gt;Node11 -->
<g id="edge41" class="edge"><title>Node25&#45;&gt;Node11</title>
<path fill="none" stroke="midnightblue" d="M929.16,-123.362C903.026,-111.241 870.239,-96.0335 847.354,-85.4189"/>
<polygon fill="midnightblue" stroke="midnightblue" points="848.744,-82.2059 838.2,-81.1734 845.799,-88.5561 848.744,-82.2059"/>
</g>
<!-- Node26&#45;&gt;Node7 -->
<g id="edge43" class="edge"><title>Node26&#45;&gt;Node7</title>
<path fill="none" stroke="midnightblue" d="M1081.07,-159.073C1062.59,-169.874 1035.08,-184.889 1012.19,-196.715"/>
<polygon fill="midnightblue" stroke="midnightblue" points="1010.33,-193.733 1003.02,-201.403 1013.52,-199.965 1010.33,-193.733"/>
</g>
<!-- Node26&#45;&gt;Node11 -->
<g id="edge44" class="edge"><title>Node26&#45;&gt;Node11</title>
<path fill="none" stroke="midnightblue" d="M1053.38,-128.947C1046.06,-126.899 1038.59,-124.857 1031.5,-123 975.42,-108.317 910.529,-93.1203 867.461,-83.2842"/>
<polygon fill="midnightblue" stroke="midnightblue" points="868.067,-79.8327 857.54,-81.025 866.513,-86.658 868.067,-79.8327"/>
</g>
<!-- Node27&#45;&gt;Node7 -->
<g id="edge46" class="edge"><title>Node27&#45;&gt;Node7</title>
<path fill="none" stroke="midnightblue" d="M514.266,-159.011C522.702,-161.257 531.318,-163.374 539.5,-165 672.645,-191.458 831.36,-205.415 914.483,-211.548"/>
<polygon fill="midnightblue" stroke="midnightblue" points="914.254,-215.04 924.482,-212.275 914.762,-208.059 914.254,-215.04"/>
</g>
<!-- Node28&#45;&gt;Node7 -->
<g id="edge48" class="edge"><title>Node28&#45;&gt;Node7</title>
<path fill="none" stroke="midnightblue" d="M640.069,-158.784C647.913,-161.053 655.91,-163.237 663.5,-165 750.273,-185.156 852.278,-199.83 914.47,-208.01"/>
<polygon fill="midnightblue" stroke="midnightblue" points="914.108,-211.492 924.476,-209.315 915.013,-204.551 914.108,-211.492"/>
</g>
</g>
</svg>
