<?xml version="1.0" encoding="UTF-8" standalone="no"?>
<!DOCTYPE svg PUBLIC "-//W3C//DTD SVG 1.1//EN"
 "http://www.w3.org/Graphics/SVG/1.1/DTD/svg11.dtd">
<!-- Generated by graphviz version 2.43.0 (0)
 -->
<!-- Title: include/miral/miral/command_line_option.h Pages: 1 -->
<svg width="484pt" height="218pt"
 viewBox="0.00 0.00 484.00 218.00" xmlns="http://www.w3.org/2000/svg" xmlns:xlink="http://www.w3.org/1999/xlink">
<g id="graph0" class="graph" transform="scale(1 1) rotate(0) translate(4 214)">
<title>include/miral/miral/command_line_option.h</title>
<polygon fill="white" stroke="transparent" points="-4,4 -4,-214 480,-214 480,4 -4,4"/>
<!-- Node1 -->
<g id="node1" class="node">
<title>Node1</title>
<g id="a_node1"><a xlink:title=" ">
<polygon fill="#bfbfbf" stroke="black" points="259.5,-179.5 259.5,-209.5 396.5,-209.5 396.5,-179.5 259.5,-179.5"/>
<text text-anchor="start" x="267.5" y="-197.5" font-family="Arial" font-size="10.00">include/miral/miral</text>
<text text-anchor="middle" x="328" y="-186.5" font-family="Arial" font-size="10.00">/command_line_option.h</text>
</a>
</g>
</g>
<!-- Node2 -->
<g id="node2" class="node">
<title>Node2</title>
<g id="a_node2"><a xlink:href="configuration__option_8h.html" target="_top" xlink:title=" ">
<polygon fill="white" stroke="black" points="273.5,-112.5 273.5,-142.5 382.5,-142.5 382.5,-112.5 273.5,-112.5"/>
<text text-anchor="start" x="281.5" y="-130.5" font-family="Arial" font-size="10.00">miral/configuration</text>
<text text-anchor="middle" x="328" y="-119.5" font-family="Arial" font-size="10.00">_option.h</text>
</a>
</g>
</g>
<!-- Node1&#45;&gt;Node2 -->
<g id="edge1" class="edge">
<title>Node1&#45;&gt;Node2</title>
<path fill="none" stroke="midnightblue" d="M328,-179.4C328,-171.64 328,-161.81 328,-152.86"/>
<polygon fill="midnightblue" stroke="midnightblue" points="331.5,-152.58 328,-142.58 324.5,-152.58 331.5,-152.58"/>
</g>
<!-- Node3 -->
<g id="node3" class="node">
<title>Node3</title>
<g id="a_node3"><a xlink:href="optional__value_8h.html" target="_top" xlink:title=" ">
<polygon fill="white" stroke="black" points="12.5,-56.5 12.5,-75.5 129.5,-75.5 129.5,-56.5 12.5,-56.5"/>
<text text-anchor="middle" x="71" y="-63.5" font-family="Arial" font-size="10.00">mir/optional_value.h</text>
</a>
</g>
</g>
<!-- Node2&#45;&gt;Node3 -->
<g id="edge2" class="edge">
<title>Node2&#45;&gt;Node3</title>
<path fill="none" stroke="midnightblue" d="M273.5,-113.88C227.29,-103.18 161.73,-88.01 117.85,-77.85"/>
<polygon fill="midnightblue" stroke="midnightblue" points="118.54,-74.41 108.01,-75.57 116.96,-81.23 118.54,-74.41"/>
</g>
<!-- Node6 -->
<g id="node6" class="node">
<title>Node6</title>
<g id="a_node6"><a xlink:href="lambda__as__function_8h.html" target="_top" xlink:title=" ">
<polygon fill="white" stroke="black" points="148,-56.5 148,-75.5 300,-75.5 300,-56.5 148,-56.5"/>
<text text-anchor="middle" x="224" y="-63.5" font-family="Arial" font-size="10.00">miral/lambda_as_function.h</text>
</a>
</g>
</g>
<!-- Node2&#45;&gt;Node6 -->
<g id="edge5" class="edge">
<title>Node2&#45;&gt;Node6</title>
<path fill="none" stroke="midnightblue" d="M303.35,-112.4C286.68,-102.86 264.77,-90.32 248.19,-80.84"/>
<polygon fill="midnightblue" stroke="midnightblue" points="249.55,-77.59 239.13,-75.66 246.07,-83.66 249.55,-77.59"/>
</g>
<!-- Node7 -->
<g id="node7" class="node">
<title>Node7</title>
<g id="a_node7"><a xlink:title=" ">
<polygon fill="white" stroke="#bfbfbf" points="243.5,-0.5 243.5,-19.5 308.5,-19.5 308.5,-0.5 243.5,-0.5"/>
<text text-anchor="middle" x="276" y="-7.5" font-family="Arial" font-size="10.00">functional</text>
</a>
</g>
</g>
<!-- Node2&#45;&gt;Node7 -->
<g id="edge7" class="edge">
<title>Node2&#45;&gt;Node7</title>
<path fill="none" stroke="midnightblue" d="M325.79,-112.45C323.14,-97.82 317.9,-74.51 309,-56 304.13,-45.87 296.9,-35.68 290.44,-27.56"/>
<polygon fill="midnightblue" stroke="midnightblue" points="292.97,-25.13 283.89,-19.67 287.58,-29.6 292.97,-25.13"/>
</g>
<!-- Node8 -->
<g id="node8" class="node">
<title>Node8</title>
<g id="a_node8"><a xlink:title=" ">
<polygon fill="white" stroke="#bfbfbf" points="356,-56.5 356,-75.5 414,-75.5 414,-56.5 356,-56.5"/>
<text text-anchor="middle" x="385" y="-63.5" font-family="Arial" font-size="10.00">memory</text>
</a>
</g>
</g>
<!-- Node2&#45;&gt;Node8 -->
<g id="edge8" class="edge">
<title>Node2&#45;&gt;Node8</title>
<path fill="none" stroke="midnightblue" d="M341.51,-112.4C349.96,-103.58 360.88,-92.18 369.66,-83.02"/>
<polygon fill="midnightblue" stroke="midnightblue" points="372.32,-85.3 376.71,-75.66 367.26,-80.46 372.32,-85.3"/>
</g>
<!-- Node9 -->
<g id="node9" class="node">
<title>Node9</title>
<g id="a_node9"><a xlink:title=" ">
<polygon fill="white" stroke="#bfbfbf" points="432,-56.5 432,-75.5 476,-75.5 476,-56.5 432,-56.5"/>
<text text-anchor="middle" x="454" y="-63.5" font-family="Arial" font-size="10.00">string</text>
</a>
</g>
</g>
<!-- Node2&#45;&gt;Node9 -->
<g id="edge9" class="edge">
<title>Node2&#45;&gt;Node9</title>
<path fill="none" stroke="midnightblue" d="M357.86,-112.4C378.62,-102.59 406.1,-89.62 426.36,-80.05"/>
<polygon fill="midnightblue" stroke="midnightblue" points="428.12,-83.09 435.67,-75.66 425.13,-76.76 428.12,-83.09"/>
</g>
<!-- Node4 -->
<g id="node4" class="node">
<title>Node4</title>
<g id="a_node4"><a xlink:href="fatal_8h.html" target="_top" xlink:title=" ">
<polygon fill="white" stroke="black" points="0,-0.5 0,-19.5 68,-19.5 68,-0.5 0,-0.5"/>
<text text-anchor="middle" x="34" y="-7.5" font-family="Arial" font-size="10.00">mir/fatal.h</text>
</a>
</g>
</g>
<!-- Node3&#45;&gt;Node4 -->
<g id="edge3" class="edge">
<title>Node3&#45;&gt;Node4</title>
<path fill="none" stroke="midnightblue" d="M64.89,-56.08C59.72,-48.53 52.15,-37.49 45.81,-28.23"/>
<polygon fill="midnightblue" stroke="midnightblue" points="48.54,-26.02 40,-19.75 42.76,-29.98 48.54,-26.02"/>
</g>
<!-- Node5 -->
<g id="node5" class="node">
<title>Node5</title>
<g id="a_node5"><a xlink:title=" ">
<polygon fill="white" stroke="#bfbfbf" points="86.5,-0.5 86.5,-19.5 131.5,-19.5 131.5,-0.5 86.5,-0.5"/>
<text text-anchor="middle" x="109" y="-7.5" font-family="Arial" font-size="10.00">utility</text>
</a>
</g>
</g>
<!-- Node3&#45;&gt;Node5 -->
<g id="edge4" class="edge">
<title>Node3&#45;&gt;Node5</title>
<path fill="none" stroke="midnightblue" d="M77.27,-56.08C82.64,-48.46 90.52,-37.26 97.08,-27.94"/>
<polygon fill="midnightblue" stroke="midnightblue" points="99.95,-29.94 102.84,-19.75 94.22,-25.91 99.95,-29.94"/>
</g>
<!-- Node6&#45;&gt;Node7 -->
<g id="edge6" class="edge">
<title>Node6&#45;&gt;Node7</title>
<path fill="none" stroke="midnightblue" d="M232.59,-56.08C240.16,-48.22 251.38,-36.57 260.51,-27.08"/>
<polygon fill="midnightblue" stroke="midnightblue" points="263.16,-29.38 267.57,-19.75 258.12,-24.53 263.16,-29.38"/>
</g>
</g>
</svg>
