<?xml version="1.0" encoding="UTF-8" standalone="no"?>
<!DOCTYPE svg PUBLIC "-//W3C//DTD SVG 1.1//EN"
 "http://www.w3.org/Graphics/SVG/1.1/DTD/svg11.dtd">
<!-- Generated by graphviz version 2.40.1 (20161225.0304)
 -->
<!-- Title: include/miral/miral/command_line_option.h Pages: 1 -->
<svg width="446pt" height="151pt"
 viewBox="0.00 0.00 445.50 151.00" xmlns="http://www.w3.org/2000/svg" xmlns:xlink="http://www.w3.org/1999/xlink">
<g id="graph0" class="graph" transform="scale(1 1) rotate(0) translate(4 147)">
<title>include/miral/miral/command_line_option.h</title>
<polygon fill="#ffffff" stroke="transparent" points="-4,4 -4,-147 441.5,-147 441.5,4 -4,4"/>
<!-- Node0 -->
<g id="node1" class="node">
<title>Node0</title>
<polygon fill="#bfbfbf" stroke="#000000" points="237,-112.5 237,-142.5 359,-142.5 359,-112.5 237,-112.5"/>
<text text-anchor="start" x="245" y="-130.5" font-family="Arial" font-size="10.00" fill="#000000">include/miral/miral</text>
<text text-anchor="middle" x="298" y="-119.5" font-family="Arial" font-size="10.00" fill="#000000">/command_line_option.h</text>
</g>
<!-- Node1 -->
<g id="node2" class="node">
<title>Node1</title>
<g id="a_node2"><a xlink:href="optional__value_8h.html" target="_top" xlink:title="mir/optional_value.h">
<polygon fill="#ffffff" stroke="#000000" points="12,-56.5 12,-75.5 116,-75.5 116,-56.5 12,-56.5"/>
<text text-anchor="middle" x="64" y="-63.5" font-family="Arial" font-size="10.00" fill="#000000">mir/optional_value.h</text>
</a>
</g>
</g>
<!-- Node0&#45;&gt;Node1 -->
<g id="edge1" class="edge">
<title>Node0&#45;&gt;Node1</title>
<path fill="none" stroke="#191970" d="M240.7572,-112.4554C200.6862,-101.9239 147.8321,-88.0328 110.3901,-78.1923"/>
<polygon fill="#191970" stroke="#191970" points="110.8229,-74.6872 100.2617,-75.5303 109.0436,-81.4573 110.8229,-74.6872"/>
</g>
<!-- Node4 -->
<g id="node5" class="node">
<title>Node4</title>
<g id="a_node5"><a xlink:href="lambda__as__function_8h.html" target="_top" xlink:title="miral/lambda_as_function.h">
<polygon fill="#ffffff" stroke="#000000" points="134,-56.5 134,-75.5 270,-75.5 270,-56.5 134,-56.5"/>
<text text-anchor="middle" x="202" y="-63.5" font-family="Arial" font-size="10.00" fill="#000000">miral/lambda_as_function.h</text>
</a>
</g>
</g>
<!-- Node0&#45;&gt;Node4 -->
<g id="edge4" class="edge">
<title>Node0&#45;&gt;Node4</title>
<path fill="none" stroke="#191970" d="M274.2697,-112.2977C259.4638,-102.8127 240.4772,-90.6495 225.6807,-81.1705"/>
<polygon fill="#191970" stroke="#191970" points="227.3925,-78.1105 217.0841,-75.6633 223.6165,-84.0047 227.3925,-78.1105"/>
</g>
<!-- Node5 -->
<g id="node6" class="node">
<title>Node5</title>
<polygon fill="#ffffff" stroke="#bfbfbf" points="220.5,-.5 220.5,-19.5 279.5,-19.5 279.5,-.5 220.5,-.5"/>
<text text-anchor="middle" x="250" y="-7.5" font-family="Arial" font-size="10.00" fill="#000000">functional</text>
</g>
<!-- Node0&#45;&gt;Node5 -->
<g id="edge6" class="edge">
<title>Node0&#45;&gt;Node5</title>
<path fill="none" stroke="#191970" d="M295.3441,-112.2666C292.4467,-97.4784 287.1099,-74.6026 279,-56 274.7786,-46.3169 268.7074,-36.3108 263.2098,-28.1137"/>
<polygon fill="#191970" stroke="#191970" points="265.9645,-25.9449 257.3757,-19.7414 260.2213,-29.9469 265.9645,-25.9449"/>
</g>
<!-- Node6 -->
<g id="node7" class="node">
<title>Node6</title>
<polygon fill="#ffffff" stroke="#bfbfbf" points="326,-56.5 326,-75.5 378,-75.5 378,-56.5 326,-56.5"/>
<text text-anchor="middle" x="352" y="-63.5" font-family="Arial" font-size="10.00" fill="#000000">memory</text>
</g>
<!-- Node0&#45;&gt;Node6 -->
<g id="edge7" class="edge">
<title>Node0&#45;&gt;Node6</title>
<path fill="none" stroke="#191970" d="M311.3483,-112.2977C319.0002,-103.5831 328.6373,-92.6075 336.6076,-83.5302"/>
<polygon fill="#191970" stroke="#191970" points="339.3859,-85.6707 343.3539,-75.8469 334.1258,-81.052 339.3859,-85.6707"/>
</g>
<!-- Node7 -->
<g id="node8" class="node">
<title>Node7</title>
<polygon fill="#ffffff" stroke="#bfbfbf" points="396.5,-56.5 396.5,-75.5 437.5,-75.5 437.5,-56.5 396.5,-56.5"/>
<text text-anchor="middle" x="417" y="-63.5" font-family="Arial" font-size="10.00" fill="#000000">string</text>
</g>
<!-- Node0&#45;&gt;Node7 -->
<g id="edge8" class="edge">
<title>Node0&#45;&gt;Node7</title>
<path fill="none" stroke="#191970" d="M327.1107,-112.4554C346.1824,-102.599 370.9482,-89.7999 389.6539,-80.1327"/>
<polygon fill="#191970" stroke="#191970" points="391.2824,-83.2309 398.5592,-75.5303 388.0685,-77.0122 391.2824,-83.2309"/>
</g>
<!-- Node2 -->
<g id="node3" class="node">
<title>Node2</title>
<g id="a_node3"><a xlink:href="fatal_8h.html" target="_top" xlink:title="mir/fatal.h">
<polygon fill="#ffffff" stroke="#000000" points="0,-.5 0,-19.5 60,-19.5 60,-.5 0,-.5"/>
<text text-anchor="middle" x="30" y="-7.5" font-family="Arial" font-size="10.00" fill="#000000">mir/fatal.h</text>
</a>
</g>
</g>
<!-- Node1&#45;&gt;Node2 -->
<g id="edge2" class="edge">
<title>Node1&#45;&gt;Node2</title>
<path fill="none" stroke="#191970" d="M58.0777,-56.2455C53.3973,-48.5367 46.7327,-37.5598 41.0711,-28.2348"/>
<polygon fill="#191970" stroke="#191970" points="44.0361,-26.3741 35.8545,-19.6427 38.0525,-30.007 44.0361,-26.3741"/>
</g>
<!-- Node3 -->
<g id="node4" class="node">
<title>Node3</title>
<polygon fill="#ffffff" stroke="#bfbfbf" points="78,-.5 78,-19.5 118,-19.5 118,-.5 78,-.5"/>
<text text-anchor="middle" x="98" y="-7.5" font-family="Arial" font-size="10.00" fill="#000000">utility</text>
</g>
<!-- Node1&#45;&gt;Node3 -->
<g id="edge3" class="edge">
<title>Node1&#45;&gt;Node3</title>
<path fill="none" stroke="#191970" d="M69.9223,-56.2455C74.6027,-48.5367 81.2673,-37.5598 86.9289,-28.2348"/>
<polygon fill="#191970" stroke="#191970" points="89.9475,-30.007 92.1455,-19.6427 83.9639,-26.3741 89.9475,-30.007"/>
</g>
<!-- Node4&#45;&gt;Node5 -->
<g id="edge5" class="edge">
<title>Node4&#45;&gt;Node5</title>
<path fill="none" stroke="#191970" d="M210.361,-56.2455C217.175,-48.2958 226.9681,-36.8706 235.1152,-27.3656"/>
<polygon fill="#191970" stroke="#191970" points="237.8843,-29.513 241.7349,-19.6427 232.5695,-24.9575 237.8843,-29.513"/>
</g>
</g>
</svg>
