<?xml version="1.0" encoding="UTF-8" standalone="no"?>
<!DOCTYPE svg PUBLIC "-//W3C//DTD SVG 1.1//EN"
 "http://www.w3.org/Graphics/SVG/1.1/DTD/svg11.dtd">
<!-- Generated by graphviz version 2.43.0 (0)
 -->
<!-- Title: include/core/mir_toolkit/common.h Pages: 1 -->
<svg width="1814pt" height="519pt"
 viewBox="0.00 0.00 1813.50 519.00" xmlns="http://www.w3.org/2000/svg" xmlns:xlink="http://www.w3.org/1999/xlink">
<g id="graph0" class="graph" transform="scale(1 1) rotate(0) translate(4 515)">
<title>include/core/mir_toolkit/common.h</title>
<polygon fill="white" stroke="transparent" points="-4,4 -4,-515 1809.5,-515 1809.5,4 -4,4"/>
<!-- Node1 -->
<g id="node1" class="node">
<title>Node1</title>
<g id="a_node1"><a xlink:title=" ">
<polygon fill="#bfbfbf" stroke="black" points="1235.5,-480.5 1235.5,-510.5 1352.5,-510.5 1352.5,-480.5 1235.5,-480.5"/>
<text text-anchor="start" x="1243.5" y="-498.5" font-family="Arial" font-size="10.00">include/core/mir_toolkit</text>
<text text-anchor="middle" x="1294" y="-487.5" font-family="Arial" font-size="10.00">/common.h</text>
</a>
</g>
</g>
<!-- Node2 -->
<g id="node2" class="node">
<title>Node2</title>
<g id="a_node2"><a xlink:href="depth__layer_8h.html" target="_top" xlink:title=" ">
<polygon fill="white" stroke="black" points="571.5,-408 571.5,-438 684.5,-438 684.5,-408 571.5,-408"/>
<text text-anchor="start" x="579.5" y="-426" font-family="Arial" font-size="10.00">include/core/mir/depth</text>
<text text-anchor="middle" x="628" y="-415" font-family="Arial" font-size="10.00">_layer.h</text>
</a>
</g>
</g>
<!-- Node1&#45;&gt;Node2 -->
<g id="edge1" class="edge">
<title>Node1&#45;&gt;Node2</title>
<path fill="none" stroke="midnightblue" d="M1225.15,-492.89C1113.75,-489.35 887.43,-478.22 699,-444 690.56,-442.47 681.67,-440.37 673.15,-438.1"/>
<polygon fill="midnightblue" stroke="midnightblue" points="1225.14,-496.39 1235.24,-493.2 1225.35,-489.4 1225.14,-496.39"/>
</g>
<!-- Node3 -->
<g id="node3" class="node">
<title>Node3</title>
<g id="a_node3"><a xlink:href="enums_8h.html" target="_top" xlink:title=" ">
<polygon fill="white" stroke="black" points="205.5,-201.5 205.5,-231.5 322.5,-231.5 322.5,-201.5 205.5,-201.5"/>
<text text-anchor="start" x="213.5" y="-219.5" font-family="Arial" font-size="10.00">include/core/mir_toolkit</text>
<text text-anchor="middle" x="264" y="-208.5" font-family="Arial" font-size="10.00">/events/enums.h</text>
</a>
</g>
</g>
<!-- Node1&#45;&gt;Node3 -->
<g id="edge2" class="edge">
<title>Node1&#45;&gt;Node3</title>
<path fill="none" stroke="midnightblue" d="M1225.31,-492.01C1137.75,-487.61 982.23,-475.7 853,-444 629.56,-389.19 376.35,-271.89 292.57,-231.5"/>
<polygon fill="midnightblue" stroke="midnightblue" points="1225.23,-495.51 1235.38,-492.5 1225.57,-488.52 1225.23,-495.51"/>
</g>
<!-- Node15 -->
<g id="node15" class="node">
<title>Node15</title>
<g id="a_node15"><a xlink:href="application_8h.html" target="_top" xlink:title=" ">
<polygon fill="white" stroke="black" points="926.5,-408 926.5,-438 1021.5,-438 1021.5,-408 926.5,-408"/>
<text text-anchor="start" x="934.5" y="-426" font-family="Arial" font-size="10.00">include/miral/miral</text>
<text text-anchor="middle" x="974" y="-415" font-family="Arial" font-size="10.00">/application.h</text>
</a>
</g>
</g>
<!-- Node1&#45;&gt;Node15 -->
<g id="edge20" class="edge">
<title>Node1&#45;&gt;Node15</title>
<path fill="none" stroke="midnightblue" d="M1225.33,-479.37C1164.04,-465.87 1075.85,-446.44 1021.89,-434.55"/>
<polygon fill="midnightblue" stroke="midnightblue" points="1224.79,-482.84 1235.31,-481.57 1226.29,-476 1224.79,-482.84"/>
</g>
<!-- Node25 -->
<g id="node25" class="node">
<title>Node25</title>
<g id="a_node25"><a xlink:href="output_8h.html" target="_top" xlink:title=" ">
<polygon fill="white" stroke="black" points="1341.5,-408 1341.5,-438 1436.5,-438 1436.5,-408 1341.5,-408"/>
<text text-anchor="start" x="1349.5" y="-426" font-family="Arial" font-size="10.00">include/miral/miral</text>
<text text-anchor="middle" x="1389" y="-415" font-family="Arial" font-size="10.00">/output.h</text>
</a>
</g>
</g>
<!-- Node1&#45;&gt;Node25 -->
<g id="edge47" class="edge">
<title>Node1&#45;&gt;Node25</title>
<path fill="none" stroke="midnightblue" d="M1321.48,-474.11C1337.08,-462.53 1356.22,-448.33 1370.13,-438"/>
<polygon fill="midnightblue" stroke="midnightblue" points="1319.17,-471.46 1313.22,-480.23 1323.34,-477.08 1319.17,-471.46"/>
</g>
<!-- Node26 -->
<g id="node26" class="node">
<title>Node26</title>
<g id="a_node26"><a xlink:href="window__management__policy_8h.html" target="_top" xlink:title=" ">
<polygon fill="white" stroke="black" points="478,-201.5 478,-231.5 630,-231.5 630,-201.5 478,-201.5"/>
<text text-anchor="start" x="486" y="-219.5" font-family="Arial" font-size="10.00">include/miral/miral</text>
<text text-anchor="middle" x="554" y="-208.5" font-family="Arial" font-size="10.00">/window_management_policy.h</text>
</a>
</g>
</g>
<!-- Node1&#45;&gt;Node26 -->
<g id="edge48" class="edge">
<title>Node1&#45;&gt;Node26</title>
<path fill="none" stroke="midnightblue" d="M1225.26,-490.27C1131.8,-483.69 970.19,-469.05 917,-444 812.86,-394.95 827.14,-324.75 727,-268 697.19,-251.11 661.23,-239.43 629.84,-231.59"/>
<polygon fill="midnightblue" stroke="midnightblue" points="1225.25,-493.78 1235.47,-490.98 1225.74,-486.8 1225.25,-493.78"/>
</g>
<!-- Node27 -->
<g id="node27" class="node">
<title>Node27</title>
<g id="a_node27"><a xlink:href="window__specification_8h.html" target="_top" xlink:title=" ">
<polygon fill="white" stroke="black" points="1214.5,-335.5 1214.5,-365.5 1335.5,-365.5 1335.5,-335.5 1214.5,-335.5"/>
<text text-anchor="start" x="1222.5" y="-353.5" font-family="Arial" font-size="10.00">include/miral/miral</text>
<text text-anchor="middle" x="1275" y="-342.5" font-family="Arial" font-size="10.00">/window_specification.h</text>
</a>
</g>
</g>
<!-- Node1&#45;&gt;Node27 -->
<g id="edge52" class="edge">
<title>Node1&#45;&gt;Node27</title>
<path fill="none" stroke="midnightblue" d="M1290.77,-470.19C1286.78,-440.16 1280.12,-390.05 1276.88,-365.68"/>
<polygon fill="midnightblue" stroke="midnightblue" points="1287.32,-470.81 1292.11,-480.27 1294.26,-469.89 1287.32,-470.81"/>
</g>
<!-- Node28 -->
<g id="node28" class="node">
<title>Node28</title>
<g id="a_node28"><a xlink:href="zone_8h.html" target="_top" xlink:title=" ">
<polygon fill="white" stroke="black" points="1316.5,-134.5 1316.5,-164.5 1411.5,-164.5 1411.5,-134.5 1316.5,-134.5"/>
<text text-anchor="start" x="1324.5" y="-152.5" font-family="Arial" font-size="10.00">include/miral/miral</text>
<text text-anchor="middle" x="1364" y="-141.5" font-family="Arial" font-size="10.00">/zone.h</text>
</a>
</g>
</g>
<!-- Node1&#45;&gt;Node28 -->
<g id="edge54" class="edge">
<title>Node1&#45;&gt;Node28</title>
<path fill="none" stroke="midnightblue" d="M1303.99,-471.16C1317.13,-440.07 1339.14,-386.6 1344,-366 1361.57,-291.58 1363.84,-199.3 1364.04,-164.58"/>
<polygon fill="midnightblue" stroke="midnightblue" points="1300.75,-469.82 1300.06,-480.4 1307.19,-472.56 1300.75,-469.82"/>
</g>
<!-- Node29 -->
<g id="node29" class="node">
<title>Node29</title>
<g id="a_node29"><a xlink:href="display__configuration__storage_8h.html" target="_top" xlink:title=" ">
<polygon fill="white" stroke="black" points="1454.5,-402.5 1454.5,-443.5 1565.5,-443.5 1565.5,-402.5 1454.5,-402.5"/>
<text text-anchor="start" x="1462.5" y="-431.5" font-family="Arial" font-size="10.00">include/miroil/miroil</text>
<text text-anchor="start" x="1462.5" y="-420.5" font-family="Arial" font-size="10.00">/display_configuration</text>
<text text-anchor="middle" x="1510" y="-409.5" font-family="Arial" font-size="10.00">_storage.h</text>
</a>
</g>
</g>
<!-- Node1&#45;&gt;Node29 -->
<g id="edge57" class="edge">
<title>Node1&#45;&gt;Node29</title>
<path fill="none" stroke="midnightblue" d="M1346.75,-477.28C1379.4,-466.63 1421.27,-452.96 1454.43,-442.14"/>
<polygon fill="midnightblue" stroke="midnightblue" points="1345.35,-474.06 1336.93,-480.49 1347.53,-480.71 1345.35,-474.06"/>
</g>
<!-- Node30 -->
<g id="node30" class="node">
<title>Node30</title>
<g id="a_node30"><a xlink:href="surface_8h.html" target="_top" xlink:title=" ">
<polygon fill="white" stroke="black" points="1584,-408 1584,-438 1684,-438 1684,-408 1584,-408"/>
<text text-anchor="start" x="1592" y="-426" font-family="Arial" font-size="10.00">include/miroil/miroil</text>
<text text-anchor="middle" x="1634" y="-415" font-family="Arial" font-size="10.00">/surface.h</text>
</a>
</g>
</g>
<!-- Node1&#45;&gt;Node30 -->
<g id="edge58" class="edge">
<title>Node1&#45;&gt;Node30</title>
<path fill="none" stroke="midnightblue" d="M1362.69,-485.08C1419.97,-476.53 1503.46,-462.44 1575,-444 1581.6,-442.3 1588.52,-440.22 1595.21,-438.06"/>
<polygon fill="midnightblue" stroke="midnightblue" points="1362.05,-481.64 1352.67,-486.56 1363.07,-488.56 1362.05,-481.64"/>
</g>
<!-- Node31 -->
<g id="node31" class="node">
<title>Node31</title>
<g id="a_node31"><a xlink:href="surface__observer_8h.html" target="_top" xlink:title=" ">
<polygon fill="white" stroke="black" points="1702.5,-408 1702.5,-438 1805.5,-438 1805.5,-408 1702.5,-408"/>
<text text-anchor="start" x="1710.5" y="-426" font-family="Arial" font-size="10.00">include/miroil/miroil</text>
<text text-anchor="middle" x="1754" y="-415" font-family="Arial" font-size="10.00">/surface_observer.h</text>
</a>
</g>
</g>
<!-- Node1&#45;&gt;Node31 -->
<g id="edge59" class="edge">
<title>Node1&#45;&gt;Node31</title>
<path fill="none" stroke="midnightblue" d="M1363.2,-489.77C1443.33,-483.37 1578.91,-469.68 1693,-444 1700.18,-442.39 1707.71,-440.27 1714.93,-438.03"/>
<polygon fill="midnightblue" stroke="midnightblue" points="1362.45,-486.32 1352.75,-490.59 1363,-493.3 1362.45,-486.32"/>
</g>
<!-- Node4 -->
<g id="node4" class="node">
<title>Node4</title>
<g id="a_node4"><a xlink:href="floating__window__manager_8h.html" target="_top" xlink:title=" ">
<polygon fill="white" stroke="black" points="284.5,-67.5 284.5,-97.5 437.5,-97.5 437.5,-67.5 284.5,-67.5"/>
<text text-anchor="start" x="292.5" y="-85.5" font-family="Arial" font-size="10.00">examples/example&#45;server</text>
<text text-anchor="middle" x="361" y="-74.5" font-family="Arial" font-size="10.00">&#45;lib/floating_window_manager.h</text>
</a>
</g>
</g>
<!-- Node3&#45;&gt;Node4 -->
<g id="edge3" class="edge">
<title>Node3&#45;&gt;Node4</title>
<path fill="none" stroke="midnightblue" d="M212.07,-196.78C198.23,-189.15 184.93,-178.78 177,-165 170.13,-153.06 168.65,-144.96 177,-134 184.47,-124.2 245.38,-108.74 295.11,-97.51"/>
<polygon fill="midnightblue" stroke="midnightblue" points="210.69,-200.01 221.19,-201.42 213.86,-193.77 210.69,-200.01"/>
</g>
<!-- Node7 -->
<g id="node7" class="node">
<title>Node7</title>
<g id="a_node7"><a xlink:href="tiling__window__manager_8h.html" target="_top" xlink:title=" ">
<polygon fill="white" stroke="black" points="630,-134.5 630,-164.5 772,-164.5 772,-134.5 630,-134.5"/>
<text text-anchor="start" x="638" y="-152.5" font-family="Arial" font-size="10.00">examples/example&#45;server</text>
<text text-anchor="middle" x="701" y="-141.5" font-family="Arial" font-size="10.00">&#45;lib/tiling_window_manager.h</text>
</a>
</g>
</g>
<!-- Node3&#45;&gt;Node7 -->
<g id="edge6" class="edge">
<title>Node3&#45;&gt;Node7</title>
<path fill="none" stroke="midnightblue" d="M332.95,-206.47C404.75,-196.9 520.42,-180.97 620,-165 623.24,-164.48 626.56,-163.94 629.91,-163.38"/>
<polygon fill="midnightblue" stroke="midnightblue" points="332.13,-203.05 322.68,-207.84 333.06,-209.99 332.13,-203.05"/>
</g>
<!-- Node9 -->
<g id="node9" class="node">
<title>Node9</title>
<g id="a_node9"><a xlink:href="kiosk__window__manager_8h.html" target="_top" xlink:title=" ">
<polygon fill="white" stroke="black" points="134,-67.5 134,-97.5 266,-97.5 266,-67.5 134,-67.5"/>
<text text-anchor="start" x="142" y="-85.5" font-family="Arial" font-size="10.00">examples/miral&#45;kiosk</text>
<text text-anchor="middle" x="200" y="-74.5" font-family="Arial" font-size="10.00">/kiosk_window_manager.h</text>
</a>
</g>
</g>
<!-- Node3&#45;&gt;Node9 -->
<g id="edge9" class="edge">
<title>Node3&#45;&gt;Node9</title>
<path fill="none" stroke="midnightblue" d="M195.93,-202.12C175.81,-194.65 155.98,-183.04 144,-165 128.14,-141.12 156.8,-113.71 178.65,-97.54"/>
<polygon fill="midnightblue" stroke="midnightblue" points="194.88,-205.46 205.48,-205.36 197.13,-198.83 194.88,-205.46"/>
</g>
<!-- Node12 -->
<g id="node12" class="node">
<title>Node12</title>
<g id="a_node12"><a xlink:href="minimal__window__manager_8h.html" target="_top" xlink:title=" ">
<polygon fill="white" stroke="black" points="186.5,-134.5 186.5,-164.5 329.5,-164.5 329.5,-134.5 186.5,-134.5"/>
<text text-anchor="start" x="194.5" y="-152.5" font-family="Arial" font-size="10.00">include/miral/miral</text>
<text text-anchor="middle" x="258" y="-141.5" font-family="Arial" font-size="10.00">/minimal_window_manager.h</text>
</a>
</g>
</g>
<!-- Node3&#45;&gt;Node12 -->
<g id="edge12" class="edge">
<title>Node3&#45;&gt;Node12</title>
<path fill="none" stroke="midnightblue" d="M261.78,-191.4C260.94,-182.37 260.02,-172.41 259.3,-164.58"/>
<polygon fill="midnightblue" stroke="midnightblue" points="258.29,-191.76 262.7,-201.4 265.26,-191.12 258.29,-191.76"/>
</g>
<!-- Node13 -->
<g id="node13" class="node">
<title>Node13</title>
<g id="a_node13"><a xlink:href="toolkit__event_8h.html" target="_top" xlink:title=" ">
<polygon fill="white" stroke="black" points="516.5,-134.5 516.5,-164.5 611.5,-164.5 611.5,-134.5 516.5,-134.5"/>
<text text-anchor="start" x="524.5" y="-152.5" font-family="Arial" font-size="10.00">include/miral/miral</text>
<text text-anchor="middle" x="564" y="-141.5" font-family="Arial" font-size="10.00">/toolkit_event.h</text>
</a>
</g>
</g>
<!-- Node3&#45;&gt;Node13 -->
<g id="edge14" class="edge">
<title>Node3&#45;&gt;Node13</title>
<path fill="none" stroke="midnightblue" d="M332.4,-202.12C381.19,-192.38 448.28,-178.56 507,-165 510.08,-164.29 513.26,-163.54 516.45,-162.76"/>
<polygon fill="midnightblue" stroke="midnightblue" points="331.71,-198.69 322.59,-204.08 333.08,-205.56 331.71,-198.69"/>
</g>
<!-- Node5 -->
<g id="node5" class="node">
<title>Node5</title>
<g id="a_node5"><a xlink:href="floating__window__manager_8cpp.html" target="_top" xlink:title=" ">
<polygon fill="white" stroke="black" points="884,-0.5 884,-30.5 1048,-30.5 1048,-0.5 884,-0.5"/>
<text text-anchor="start" x="892" y="-18.5" font-family="Arial" font-size="10.00">examples/example&#45;server</text>
<text text-anchor="middle" x="966" y="-7.5" font-family="Arial" font-size="10.00">&#45;lib/floating_window_manager.cpp</text>
</a>
</g>
</g>
<!-- Node4&#45;&gt;Node5 -->
<g id="edge4" class="edge">
<title>Node4&#45;&gt;Node5</title>
<path fill="none" stroke="midnightblue" d="M447.69,-71.23C460.21,-69.79 472.93,-68.34 485,-67 624.99,-51.47 788.05,-34.61 883.84,-24.83"/>
<polygon fill="midnightblue" stroke="midnightblue" points="447.24,-67.76 437.71,-72.39 448.05,-74.71 447.24,-67.76"/>
</g>
<!-- Node6 -->
<g id="node6" class="node">
<title>Node6</title>
<g id="a_node6"><a xlink:href="shell__main_8cpp.html" target="_top" xlink:title=" ">
<polygon fill="white" stroke="black" points="360,-0.5 360,-30.5 466,-30.5 466,-0.5 360,-0.5"/>
<text text-anchor="start" x="368" y="-18.5" font-family="Arial" font-size="10.00">examples/miral&#45;shell</text>
<text text-anchor="middle" x="413" y="-7.5" font-family="Arial" font-size="10.00">/shell_main.cpp</text>
</a>
</g>
</g>
<!-- Node4&#45;&gt;Node6 -->
<g id="edge5" class="edge">
<title>Node4&#45;&gt;Node6</title>
<path fill="none" stroke="midnightblue" d="M378.64,-59.45C386.28,-49.9 395,-39 401.74,-30.58"/>
<polygon fill="midnightblue" stroke="midnightblue" points="375.8,-57.4 372.28,-67.4 381.26,-61.77 375.8,-57.4"/>
</g>
<!-- Node7&#45;&gt;Node6 -->
<g id="edge8" class="edge">
<title>Node7&#45;&gt;Node6</title>
<path fill="none" stroke="midnightblue" d="M680.51,-126.81C661.93,-108.36 632.93,-82.46 603,-67 559.63,-44.6 505.43,-31.47 466.03,-24.24"/>
<polygon fill="midnightblue" stroke="midnightblue" points="678.29,-129.55 687.81,-134.21 683.28,-124.63 678.29,-129.55"/>
</g>
<!-- Node8 -->
<g id="node8" class="node">
<title>Node8</title>
<g id="a_node8"><a xlink:href="tiling__window__manager_8cpp.html" target="_top" xlink:title=" ">
<polygon fill="white" stroke="black" points="994,-67.5 994,-97.5 1146,-97.5 1146,-67.5 994,-67.5"/>
<text text-anchor="start" x="1002" y="-85.5" font-family="Arial" font-size="10.00">examples/example&#45;server</text>
<text text-anchor="middle" x="1070" y="-74.5" font-family="Arial" font-size="10.00">&#45;lib/tiling_window_manager.cpp</text>
</a>
</g>
</g>
<!-- Node7&#45;&gt;Node8 -->
<g id="edge7" class="edge">
<title>Node7&#45;&gt;Node8</title>
<path fill="none" stroke="midnightblue" d="M782.07,-134.22C845.19,-123.1 932.19,-107.78 993.99,-96.89"/>
<polygon fill="midnightblue" stroke="midnightblue" points="781.39,-130.79 772.15,-135.97 782.6,-137.68 781.39,-130.79"/>
</g>
<!-- Node10 -->
<g id="node10" class="node">
<title>Node10</title>
<g id="a_node10"><a xlink:href="kiosk__main_8cpp.html" target="_top" xlink:title=" ">
<polygon fill="white" stroke="black" points="74.5,-0.5 74.5,-30.5 183.5,-30.5 183.5,-0.5 74.5,-0.5"/>
<text text-anchor="start" x="82.5" y="-18.5" font-family="Arial" font-size="10.00">examples/miral&#45;kiosk</text>
<text text-anchor="middle" x="129" y="-7.5" font-family="Arial" font-size="10.00">/kiosk_main.cpp</text>
</a>
</g>
</g>
<!-- Node9&#45;&gt;Node10 -->
<g id="edge10" class="edge">
<title>Node9&#45;&gt;Node10</title>
<path fill="none" stroke="midnightblue" d="M177.17,-60.6C166.45,-50.78 153.95,-39.34 144.38,-30.58"/>
<polygon fill="midnightblue" stroke="midnightblue" points="174.85,-63.22 184.59,-67.4 179.58,-58.06 174.85,-63.22"/>
</g>
<!-- Node11 -->
<g id="node11" class="node">
<title>Node11</title>
<g id="a_node11"><a xlink:href="kiosk__window__manager_8cpp.html" target="_top" xlink:title=" ">
<polygon fill="white" stroke="black" points="664.5,-0.5 664.5,-30.5 807.5,-30.5 807.5,-0.5 664.5,-0.5"/>
<text text-anchor="start" x="672.5" y="-18.5" font-family="Arial" font-size="10.00">examples/miral&#45;kiosk</text>
<text text-anchor="middle" x="736" y="-7.5" font-family="Arial" font-size="10.00">/kiosk_window_manager.cpp</text>
</a>
</g>
</g>
<!-- Node9&#45;&gt;Node11 -->
<g id="edge11" class="edge">
<title>Node9&#45;&gt;Node11</title>
<path fill="none" stroke="midnightblue" d="M276.49,-66.85C419.65,-45.54 575.56,-30.38 664.29,-22.52"/>
<polygon fill="midnightblue" stroke="midnightblue" points="275.57,-63.45 266.2,-68.4 276.61,-70.37 275.57,-63.45"/>
</g>
<!-- Node12&#45;&gt;Node4 -->
<g id="edge13" class="edge">
<title>Node12&#45;&gt;Node4</title>
<path fill="none" stroke="midnightblue" d="M288.88,-129.02C304.9,-118.9 324.13,-106.77 338.69,-97.58"/>
<polygon fill="midnightblue" stroke="midnightblue" points="286.94,-126.1 280.35,-134.4 290.67,-132.02 286.94,-126.1"/>
</g>
<!-- Node13&#45;&gt;Node5 -->
<g id="edge15" class="edge">
<title>Node13&#45;&gt;Node5</title>
<path fill="none" stroke="midnightblue" d="M602.02,-130.02C640.06,-112.08 700.56,-84.99 755,-67 800.6,-51.93 853.12,-39.35 894.35,-30.51"/>
<polygon fill="midnightblue" stroke="midnightblue" points="600.39,-126.92 592.86,-134.37 603.39,-133.24 600.39,-126.92"/>
</g>
<!-- Node13&#45;&gt;Node6 -->
<g id="edge18" class="edge">
<title>Node13&#45;&gt;Node6</title>
<path fill="none" stroke="midnightblue" d="M529.55,-129.35C515.14,-120.63 498.62,-109.66 485,-98 460.47,-77 436.59,-47.69 423.43,-30.54"/>
<polygon fill="midnightblue" stroke="midnightblue" points="527.82,-132.39 538.2,-134.48 531.38,-126.37 527.82,-132.39"/>
</g>
<!-- Node13&#45;&gt;Node8 -->
<g id="edge16" class="edge">
<title>Node13&#45;&gt;Node8</title>
<path fill="none" stroke="midnightblue" d="M621.79,-134.07C705.96,-119.73 889.11,-101.03 993.6,-90.81"/>
<polygon fill="midnightblue" stroke="midnightblue" points="621.03,-130.65 611.79,-135.84 622.25,-137.54 621.03,-130.65"/>
</g>
<!-- Node13&#45;&gt;Node11 -->
<g id="edge17" class="edge">
<title>Node13&#45;&gt;Node11</title>
<path fill="none" stroke="midnightblue" d="M590.35,-128.28C625.59,-101.24 687.17,-53.98 717.73,-30.52"/>
<polygon fill="midnightblue" stroke="midnightblue" points="588.21,-125.51 582.41,-134.37 592.47,-131.06 588.21,-125.51"/>
</g>
<!-- Node14 -->
<g id="node14" class="node">
<title>Node14</title>
<g id="a_node14"><a xlink:href="event__builder_8h.html" target="_top" xlink:title=" ">
<polygon fill="white" stroke="black" points="494,-67.5 494,-97.5 594,-97.5 594,-67.5 494,-67.5"/>
<text text-anchor="start" x="502" y="-85.5" font-family="Arial" font-size="10.00">include/miroil/miroil</text>
<text text-anchor="middle" x="544" y="-74.5" font-family="Arial" font-size="10.00">/event_builder.h</text>
</a>
</g>
</g>
<!-- Node13&#45;&gt;Node14 -->
<g id="edge19" class="edge">
<title>Node13&#45;&gt;Node14</title>
<path fill="none" stroke="midnightblue" d="M556.68,-124.7C553.87,-115.59 550.77,-105.49 548.33,-97.58"/>
<polygon fill="midnightblue" stroke="midnightblue" points="553.37,-125.87 559.66,-134.4 560.06,-123.81 553.37,-125.87"/>
</g>
<!-- Node15&#45;&gt;Node7 -->
<g id="edge21" class="edge">
<title>Node15&#45;&gt;Node7</title>
<path fill="none" stroke="midnightblue" d="M935.74,-403.09C917.86,-393.31 896.84,-380.4 880,-366 804.04,-301.04 734.69,-201.51 710.28,-164.77"/>
<polygon fill="midnightblue" stroke="midnightblue" points="934.3,-406.29 944.77,-407.91 937.6,-400.11 934.3,-406.29"/>
</g>
<!-- Node16 -->
<g id="node16" class="node">
<title>Node16</title>
<g id="a_node16"><a xlink:href="application__info_8h.html" target="_top" xlink:title=" ">
<polygon fill="white" stroke="black" points="1164.5,-134.5 1164.5,-164.5 1259.5,-164.5 1259.5,-134.5 1164.5,-134.5"/>
<text text-anchor="start" x="1172.5" y="-152.5" font-family="Arial" font-size="10.00">include/miral/miral</text>
<text text-anchor="middle" x="1212" y="-141.5" font-family="Arial" font-size="10.00">/application_info.h</text>
</a>
</g>
</g>
<!-- Node15&#45;&gt;Node16 -->
<g id="edge22" class="edge">
<title>Node15&#45;&gt;Node16</title>
<path fill="none" stroke="midnightblue" d="M1031.76,-420.34C1074.78,-415.93 1131.76,-402.86 1166,-366 1220.03,-307.84 1216.69,-202.38 1213.49,-164.51"/>
<polygon fill="midnightblue" stroke="midnightblue" points="1031.35,-416.86 1021.71,-421.24 1031.98,-423.83 1031.35,-416.86"/>
</g>
<!-- Node17 -->
<g id="node17" class="node">
<title>Node17</title>
<g id="a_node17"><a xlink:href="wayland__extensions_8h.html" target="_top" xlink:title=" ">
<polygon fill="white" stroke="black" points="0,-67.5 0,-97.5 116,-97.5 116,-67.5 0,-67.5"/>
<text text-anchor="start" x="8" y="-85.5" font-family="Arial" font-size="10.00">include/miral/miral</text>
<text text-anchor="middle" x="58" y="-74.5" font-family="Arial" font-size="10.00">/wayland_extensions.h</text>
</a>
</g>
</g>
<!-- Node15&#45;&gt;Node17 -->
<g id="edge26" class="edge">
<title>Node15&#45;&gt;Node17</title>
<path fill="none" stroke="midnightblue" d="M916.25,-416.2C718.11,-395.91 78,-327.07 78,-284.5 78,-284.5 78,-284.5 78,-215.5 78,-172.16 67.33,-121.7 61.58,-97.65"/>
<polygon fill="midnightblue" stroke="midnightblue" points="916.16,-419.71 926.46,-417.24 916.87,-412.74 916.16,-419.71"/>
</g>
<!-- Node18 -->
<g id="node18" class="node">
<title>Node18</title>
<g id="a_node18"><a xlink:href="window_8h.html" target="_top" xlink:title=" ">
<polygon fill="white" stroke="black" points="1062.5,-335.5 1062.5,-365.5 1157.5,-365.5 1157.5,-335.5 1062.5,-335.5"/>
<text text-anchor="start" x="1070.5" y="-353.5" font-family="Arial" font-size="10.00">include/miral/miral</text>
<text text-anchor="middle" x="1110" y="-342.5" font-family="Arial" font-size="10.00">/window.h</text>
</a>
</g>
</g>
<!-- Node15&#45;&gt;Node18 -->
<g id="edge29" class="edge">
<title>Node15&#45;&gt;Node18</title>
<path fill="none" stroke="midnightblue" d="M1010.24,-403.22C1033.05,-391.39 1062.02,-376.37 1082.85,-365.57"/>
<polygon fill="midnightblue" stroke="midnightblue" points="1008.46,-400.19 1001.19,-407.9 1011.68,-406.41 1008.46,-400.19"/>
</g>
<!-- Node20 -->
<g id="node20" class="node">
<title>Node20</title>
<g id="a_node20"><a xlink:href="window__manager__tools_8h.html" target="_top" xlink:title=" ">
<polygon fill="white" stroke="black" points="817,-201.5 817,-231.5 947,-231.5 947,-201.5 817,-201.5"/>
<text text-anchor="start" x="825" y="-219.5" font-family="Arial" font-size="10.00">include/miral/miral</text>
<text text-anchor="middle" x="882" y="-208.5" font-family="Arial" font-size="10.00">/window_manager_tools.h</text>
</a>
</g>
</g>
<!-- Node15&#45;&gt;Node20 -->
<g id="edge45" class="edge">
<title>Node15&#45;&gt;Node20</title>
<path fill="none" stroke="midnightblue" d="M933.55,-402.77C918.93,-393.72 903.87,-381.46 895,-366 870.02,-322.45 875.44,-259.62 879.52,-231.75"/>
<polygon fill="midnightblue" stroke="midnightblue" points="932.13,-406 942.53,-408 935.65,-399.95 932.13,-406"/>
</g>
<!-- Node24 -->
<g id="node24" class="node">
<title>Node24</title>
<g id="a_node24"><a xlink:href="prompt__session__manager_8h.html" target="_top" xlink:title=" ">
<polygon fill="white" stroke="black" points="904,-335.5 904,-365.5 1044,-365.5 1044,-335.5 904,-335.5"/>
<text text-anchor="start" x="912" y="-353.5" font-family="Arial" font-size="10.00">include/miroil/miroil</text>
<text text-anchor="middle" x="974" y="-342.5" font-family="Arial" font-size="10.00">/prompt_session_manager.h</text>
</a>
</g>
</g>
<!-- Node15&#45;&gt;Node24 -->
<g id="edge46" class="edge">
<title>Node15&#45;&gt;Node24</title>
<path fill="none" stroke="midnightblue" d="M974,-397.73C974,-387.07 974,-374.91 974,-365.75"/>
<polygon fill="midnightblue" stroke="midnightblue" points="970.5,-397.73 974,-407.73 977.5,-397.73 970.5,-397.73"/>
</g>
<!-- Node16&#45;&gt;Node5 -->
<g id="edge23" class="edge">
<title>Node16&#45;&gt;Node5</title>
<path fill="none" stroke="midnightblue" d="M1224.92,-125.24C1232.91,-107.4 1239.33,-83.17 1226,-67 1203.7,-39.95 1115.7,-27.2 1048.19,-21.32"/>
<polygon fill="midnightblue" stroke="midnightblue" points="1221.69,-123.88 1220.44,-134.4 1227.98,-126.95 1221.69,-123.88"/>
</g>
<!-- Node16&#45;&gt;Node8 -->
<g id="edge24" class="edge">
<title>Node16&#45;&gt;Node8</title>
<path fill="none" stroke="midnightblue" d="M1171.87,-130.13C1149.31,-119.8 1121.58,-107.11 1100.75,-97.58"/>
<polygon fill="midnightblue" stroke="midnightblue" points="1170.64,-133.42 1181.19,-134.4 1173.55,-127.05 1170.64,-133.42"/>
</g>
<!-- Node16&#45;&gt;Node11 -->
<g id="edge25" class="edge">
<title>Node16&#45;&gt;Node11</title>
<path fill="none" stroke="midnightblue" d="M1211.69,-124.38C1210.07,-105.78 1204.63,-80.94 1188,-67 1184.39,-63.97 934.56,-37.35 807.92,-24.03"/>
<polygon fill="midnightblue" stroke="midnightblue" points="1208.2,-124.7 1212.26,-134.48 1215.19,-124.3 1208.2,-124.7"/>
</g>
<!-- Node17&#45;&gt;Node6 -->
<g id="edge28" class="edge">
<title>Node17&#45;&gt;Node6</title>
<path fill="none" stroke="midnightblue" d="M125.92,-66.86C213.53,-49.84 304.01,-34.43 359.8,-25.18"/>
<polygon fill="midnightblue" stroke="midnightblue" points="125.22,-63.43 116.08,-68.78 126.56,-70.3 125.22,-63.43"/>
</g>
<!-- Node17&#45;&gt;Node10 -->
<g id="edge27" class="edge">
<title>Node17&#45;&gt;Node10</title>
<path fill="none" stroke="midnightblue" d="M80.83,-60.6C91.55,-50.78 104.05,-39.34 113.62,-30.58"/>
<polygon fill="midnightblue" stroke="midnightblue" points="78.42,-58.06 73.41,-67.4 83.15,-63.22 78.42,-58.06"/>
</g>
<!-- Node19 -->
<g id="node19" class="node">
<title>Node19</title>
<g id="a_node19"><a xlink:href="window__info_8h.html" target="_top" xlink:title=" ">
<polygon fill="white" stroke="black" points="1075.5,-268.5 1075.5,-298.5 1170.5,-298.5 1170.5,-268.5 1075.5,-268.5"/>
<text text-anchor="start" x="1083.5" y="-286.5" font-family="Arial" font-size="10.00">include/miral/miral</text>
<text text-anchor="middle" x="1123" y="-275.5" font-family="Arial" font-size="10.00">/window_info.h</text>
</a>
</g>
</g>
<!-- Node18&#45;&gt;Node19 -->
<g id="edge30" class="edge">
<title>Node18&#45;&gt;Node19</title>
<path fill="none" stroke="midnightblue" d="M1114.82,-325.4C1116.63,-316.37 1118.62,-306.41 1120.18,-298.58"/>
<polygon fill="midnightblue" stroke="midnightblue" points="1111.35,-324.9 1112.82,-335.4 1118.21,-326.28 1111.35,-324.9"/>
</g>
<!-- Node19&#45;&gt;Node5 -->
<g id="edge31" class="edge">
<title>Node19&#45;&gt;Node5</title>
<path fill="none" stroke="midnightblue" d="M1162.1,-263.63C1197.13,-244.3 1246.24,-210.64 1268,-165 1287.3,-124.52 1278.2,-96 1244,-67 1215,-42.41 1119.21,-29.09 1048.13,-22.4"/>
<polygon fill="midnightblue" stroke="midnightblue" points="1160.23,-260.65 1153.07,-268.46 1163.54,-266.82 1160.23,-260.65"/>
</g>
<!-- Node19&#45;&gt;Node8 -->
<g id="edge32" class="edge">
<title>Node19&#45;&gt;Node8</title>
<path fill="none" stroke="midnightblue" d="M1116.55,-258.27C1105.37,-216.29 1082.74,-131.33 1073.78,-97.68"/>
<polygon fill="midnightblue" stroke="midnightblue" points="1113.23,-259.43 1119.19,-268.19 1120,-257.62 1113.23,-259.43"/>
</g>
<!-- Node19&#45;&gt;Node11 -->
<g id="edge33" class="edge">
<title>Node19&#45;&gt;Node11</title>
<path fill="none" stroke="midnightblue" d="M1128.69,-258.27C1140.9,-204.98 1167.56,-81.16 1155,-67 1149.29,-60.56 926,-36.34 807.78,-23.93"/>
<polygon fill="midnightblue" stroke="midnightblue" points="1125.23,-257.69 1126.39,-268.22 1132.05,-259.27 1125.23,-257.69"/>
</g>
<!-- Node19&#45;&gt;Node20 -->
<g id="edge34" class="edge">
<title>Node19&#45;&gt;Node20</title>
<path fill="none" stroke="midnightblue" d="M1065.53,-267C1025.6,-256.23 972.82,-241.99 934.11,-231.55"/>
<polygon fill="midnightblue" stroke="midnightblue" points="1064.82,-270.43 1075.39,-269.66 1066.64,-263.67 1064.82,-270.43"/>
</g>
<!-- Node20&#45;&gt;Node5 -->
<g id="edge38" class="edge">
<title>Node20&#45;&gt;Node5</title>
<path fill="none" stroke="midnightblue" d="M930.83,-196.68C944.28,-188.98 957.29,-178.6 965,-165 989.66,-121.48 977.52,-58.64 970.19,-30.75"/>
<polygon fill="midnightblue" stroke="midnightblue" points="929.17,-193.59 921.97,-201.36 932.44,-199.78 929.17,-193.59"/>
</g>
<!-- Node20&#45;&gt;Node7 -->
<g id="edge40" class="edge">
<title>Node20&#45;&gt;Node7</title>
<path fill="none" stroke="midnightblue" d="M833.14,-197.96C803.99,-187.48 767.46,-174.37 740.2,-164.58"/>
<polygon fill="midnightblue" stroke="midnightblue" points="832.13,-201.31 842.73,-201.4 834.5,-194.72 832.13,-201.31"/>
</g>
<!-- Node20&#45;&gt;Node8 -->
<g id="edge39" class="edge">
<title>Node20&#45;&gt;Node8</title>
<path fill="none" stroke="midnightblue" d="M935.81,-197.75C956.34,-189.57 979.29,-178.61 998,-165 1024.41,-145.79 1048.01,-115.32 1060.53,-97.59"/>
<polygon fill="midnightblue" stroke="midnightblue" points="934.34,-194.57 926.26,-201.43 936.85,-201.1 934.34,-194.57"/>
</g>
<!-- Node20&#45;&gt;Node11 -->
<g id="edge41" class="edge">
<title>Node20&#45;&gt;Node11</title>
<path fill="none" stroke="midnightblue" d="M855.07,-195.19C843.65,-186.26 830.39,-175.44 819,-165 788.65,-137.17 774.59,-134.22 755,-98 743.25,-76.27 738.73,-47.46 737.01,-30.56"/>
<polygon fill="midnightblue" stroke="midnightblue" points="852.94,-197.97 862.99,-201.32 857.23,-192.43 852.94,-197.97"/>
</g>
<!-- Node20&#45;&gt;Node12 -->
<g id="edge44" class="edge">
<title>Node20&#45;&gt;Node12</title>
<path fill="none" stroke="midnightblue" d="M806.41,-210.49C701.29,-203.07 505.15,-187.56 339,-165 335.89,-164.58 332.71,-164.12 329.5,-163.64"/>
<polygon fill="midnightblue" stroke="midnightblue" points="806.38,-214 816.6,-211.21 806.87,-207.02 806.38,-214"/>
</g>
<!-- Node21 -->
<g id="node21" class="node">
<title>Node21</title>
<g id="a_node21"><a xlink:href="decoration__provider_8h.html" target="_top" xlink:title=" ">
<polygon fill="white" stroke="black" points="828,-134.5 828,-164.5 956,-164.5 956,-134.5 828,-134.5"/>
<text text-anchor="start" x="836" y="-152.5" font-family="Arial" font-size="10.00">examples/example&#45;server</text>
<text text-anchor="middle" x="892" y="-141.5" font-family="Arial" font-size="10.00">&#45;lib/decoration_provider.h</text>
</a>
</g>
</g>
<!-- Node20&#45;&gt;Node21 -->
<g id="edge35" class="edge">
<title>Node20&#45;&gt;Node21</title>
<path fill="none" stroke="midnightblue" d="M885.71,-191.4C887.1,-182.37 888.63,-172.41 889.83,-164.58"/>
<polygon fill="midnightblue" stroke="midnightblue" points="882.23,-190.98 884.17,-201.4 889.15,-192.04 882.23,-190.98"/>
</g>
<!-- Node23 -->
<g id="node23" class="node">
<title>Node23</title>
<g id="a_node23"><a xlink:href="canonical__window__manager_8h.html" target="_top" xlink:title=" ">
<polygon fill="white" stroke="black" points="348,-134.5 348,-164.5 498,-164.5 498,-134.5 348,-134.5"/>
<text text-anchor="start" x="356" y="-152.5" font-family="Arial" font-size="10.00">include/miral/miral</text>
<text text-anchor="middle" x="423" y="-141.5" font-family="Arial" font-size="10.00">/canonical_window_manager.h</text>
</a>
</g>
</g>
<!-- Node20&#45;&gt;Node23 -->
<g id="edge42" class="edge">
<title>Node20&#45;&gt;Node23</title>
<path fill="none" stroke="midnightblue" d="M806.93,-206.22C731.14,-196.66 610.77,-180.94 507,-165 504.07,-164.55 501.09,-164.08 498.08,-163.6"/>
<polygon fill="midnightblue" stroke="midnightblue" points="806.5,-209.7 816.86,-207.47 807.37,-202.75 806.5,-209.7"/>
</g>
<!-- Node21&#45;&gt;Node5 -->
<g id="edge37" class="edge">
<title>Node21&#45;&gt;Node5</title>
<path fill="none" stroke="midnightblue" d="M904.91,-125.48C920.27,-98.07 945.43,-53.19 958.14,-30.52"/>
<polygon fill="midnightblue" stroke="midnightblue" points="901.76,-123.94 899.92,-134.37 907.86,-127.36 901.76,-123.94"/>
</g>
<!-- Node22 -->
<g id="node22" class="node">
<title>Node22</title>
<g id="a_node22"><a xlink:href="decoration__provider_8cpp.html" target="_top" xlink:title=" ">
<polygon fill="white" stroke="black" points="764,-67.5 764,-97.5 900,-97.5 900,-67.5 764,-67.5"/>
<text text-anchor="start" x="772" y="-85.5" font-family="Arial" font-size="10.00">examples/example&#45;server</text>
<text text-anchor="middle" x="832" y="-74.5" font-family="Arial" font-size="10.00">&#45;lib/decoration_provider.cpp</text>
</a>
</g>
</g>
<!-- Node21&#45;&gt;Node22 -->
<g id="edge36" class="edge">
<title>Node21&#45;&gt;Node22</title>
<path fill="none" stroke="midnightblue" d="M872.18,-127.02C863.24,-117.34 852.93,-106.17 844.99,-97.58"/>
<polygon fill="midnightblue" stroke="midnightblue" points="869.63,-129.42 878.98,-134.4 874.77,-124.67 869.63,-129.42"/>
</g>
<!-- Node23&#45;&gt;Node9 -->
<g id="edge43" class="edge">
<title>Node23&#45;&gt;Node9</title>
<path fill="none" stroke="midnightblue" d="M364.95,-131.58C328.73,-121.02 282.65,-107.59 248.41,-97.61"/>
<polygon fill="midnightblue" stroke="midnightblue" points="364.31,-135.04 374.89,-134.48 366.27,-128.32 364.31,-135.04"/>
</g>
<!-- Node26&#45;&gt;Node7 -->
<g id="edge49" class="edge">
<title>Node26&#45;&gt;Node7</title>
<path fill="none" stroke="midnightblue" d="M595.23,-197.27C618.64,-186.92 647.51,-174.15 669.17,-164.58"/>
<polygon fill="midnightblue" stroke="midnightblue" points="593.63,-194.15 585.9,-201.4 596.46,-200.55 593.63,-194.15"/>
</g>
<!-- Node26&#45;&gt;Node12 -->
<g id="edge51" class="edge">
<title>Node26&#45;&gt;Node12</title>
<path fill="none" stroke="midnightblue" d="M480.3,-199.32C431.65,-188.63 368.54,-174.77 322,-164.55"/>
<polygon fill="midnightblue" stroke="midnightblue" points="479.62,-202.75 490.14,-201.48 481.12,-195.91 479.62,-202.75"/>
</g>
<!-- Node26&#45;&gt;Node23 -->
<g id="edge50" class="edge">
<title>Node26&#45;&gt;Node23</title>
<path fill="none" stroke="midnightblue" d="M516.42,-196.85C495.71,-186.58 470.41,-174.03 451.37,-164.58"/>
<polygon fill="midnightblue" stroke="midnightblue" points="515.06,-200.09 525.57,-201.4 518.17,-193.82 515.06,-200.09"/>
</g>
<!-- Node27&#45;&gt;Node19 -->
<g id="edge53" class="edge">
<title>Node27&#45;&gt;Node19</title>
<path fill="none" stroke="midnightblue" d="M1232.69,-331.41C1208.42,-321.03 1178.41,-308.2 1155.92,-298.58"/>
<polygon fill="midnightblue" stroke="midnightblue" points="1231.45,-334.68 1242.02,-335.4 1234.2,-328.25 1231.45,-334.68"/>
</g>
<!-- Node28&#45;&gt;Node5 -->
<g id="edge55" class="edge">
<title>Node28&#45;&gt;Node5</title>
<path fill="none" stroke="midnightblue" d="M1352.83,-125.36C1342.42,-106.43 1325.03,-80.64 1302,-67 1260.26,-42.27 1133.42,-28.47 1048.09,-21.77"/>
<polygon fill="midnightblue" stroke="midnightblue" points="1349.76,-127.04 1357.51,-134.27 1355.96,-123.79 1349.76,-127.04"/>
</g>
<!-- Node28&#45;&gt;Node8 -->
<g id="edge56" class="edge">
<title>Node28&#45;&gt;Node8</title>
<path fill="none" stroke="midnightblue" d="M1306.48,-135.78C1256.71,-124.78 1184.85,-108.89 1133.43,-97.52"/>
<polygon fill="midnightblue" stroke="midnightblue" points="1305.92,-139.24 1316.44,-137.98 1307.43,-132.41 1305.92,-139.24"/>
</g>
</g>
</svg>
