<?xml version="1.0" encoding="UTF-8" standalone="no"?>
<!DOCTYPE svg PUBLIC "-//W3C//DTD SVG 1.1//EN"
 "http://www.w3.org/Graphics/SVG/1.1/DTD/svg11.dtd">
<!-- Generated by graphviz version 2.38.0 (20140413.2041)
 -->
<!-- Title: include/miral/miral/command_line_option.h Pages: 1 -->
<svg width="328pt" height="151pt"
 viewBox="0.00 0.00 328.00 151.00" xmlns="http://www.w3.org/2000/svg" xmlns:xlink="http://www.w3.org/1999/xlink">
<g id="graph0" class="graph" transform="scale(1 1) rotate(0) translate(4 147)">
<title>include/miral/miral/command_line_option.h</title>
<polygon fill="white" stroke="none" points="-4,4 -4,-147 324,-147 324,4 -4,4"/>
<!-- Node0 -->
<g id="node1" class="node"><title>Node0</title>
<polygon fill="#bfbfbf" stroke="black" points="136.5,-112.5 136.5,-142.5 258.5,-142.5 258.5,-112.5 136.5,-112.5"/>
<text text-anchor="start" x="144.5" y="-130.5" font-family="Arial" font-size="10.00">include/miral/miral</text>
<text text-anchor="middle" x="197.5" y="-119.5" font-family="Arial" font-size="10.00">/command_line_option.h</text>
</g>
<!-- Node1 -->
<g id="node2" class="node"><title>Node1</title>
<g id="a_node2"><a xlink:href="optional__value_8h.html" target="_top" xlink:title="mir/optional_value.h">
<polygon fill="white" stroke="black" points="12.5,-56.5 12.5,-75.5 114.5,-75.5 114.5,-56.5 12.5,-56.5"/>
<text text-anchor="middle" x="63.5" y="-63.5" font-family="Arial" font-size="10.00">mir/optional_value.h</text>
</a>
</g>
</g>
<!-- Node0&#45;&gt;Node1 -->
<g id="edge1" class="edge"><title>Node0&#45;&gt;Node1</title>
<path fill="none" stroke="midnightblue" d="M165.744,-112.399C143.462,-102.505 113.909,-89.3832 92.3086,-79.7919"/>
<polygon fill="midnightblue" stroke="midnightblue" points="93.5581,-76.5172 82.9982,-75.6578 90.7173,-82.9149 93.5581,-76.5172"/>
</g>
<!-- Node4 -->
<g id="node5" class="node"><title>Node4</title>
<polygon fill="white" stroke="#bfbfbf" points="132.5,-56.5 132.5,-75.5 190.5,-75.5 190.5,-56.5 132.5,-56.5"/>
<text text-anchor="middle" x="161.5" y="-63.5" font-family="Arial" font-size="10.00">functional</text>
</g>
<!-- Node0&#45;&gt;Node4 -->
<g id="edge4" class="edge"><title>Node0&#45;&gt;Node4</title>
<path fill="none" stroke="midnightblue" d="M188.969,-112.399C183.899,-104.021 177.429,-93.3269 172.042,-84.4229"/>
<polygon fill="midnightblue" stroke="midnightblue" points="174.91,-82.4018 166.738,-75.6578 168.92,-86.0255 174.91,-82.4018"/>
</g>
<!-- Node5 -->
<g id="node6" class="node"><title>Node5</title>
<polygon fill="white" stroke="#bfbfbf" points="208.5,-56.5 208.5,-75.5 260.5,-75.5 260.5,-56.5 208.5,-56.5"/>
<text text-anchor="middle" x="234.5" y="-63.5" font-family="Arial" font-size="10.00">memory</text>
</g>
<!-- Node0&#45;&gt;Node5 -->
<g id="edge5" class="edge"><title>Node0&#45;&gt;Node5</title>
<path fill="none" stroke="midnightblue" d="M206.268,-112.399C211.479,-104.021 218.129,-93.3269 223.666,-84.4229"/>
<polygon fill="midnightblue" stroke="midnightblue" points="226.808,-85.9981 229.116,-75.6578 220.863,-82.3015 226.808,-85.9981"/>
</g>
<!-- Node6 -->
<g id="node7" class="node"><title>Node6</title>
<polygon fill="white" stroke="#bfbfbf" points="279,-56.5 279,-75.5 320,-75.5 320,-56.5 279,-56.5"/>
<text text-anchor="middle" x="299.5" y="-63.5" font-family="Arial" font-size="10.00">string</text>
</g>
<!-- Node0&#45;&gt;Node6 -->
<g id="edge6" class="edge"><title>Node0&#45;&gt;Node6</title>
<path fill="none" stroke="midnightblue" d="M221.673,-112.399C238.022,-102.862 259.515,-90.3248 275.77,-80.8422"/>
<polygon fill="midnightblue" stroke="midnightblue" points="277.784,-83.7198 284.658,-75.6578 274.257,-77.6733 277.784,-83.7198"/>
</g>
<!-- Node2 -->
<g id="node3" class="node"><title>Node2</title>
<g id="a_node3"><a xlink:href="fatal_8h.html" target="_top" xlink:title="mir/fatal.h">
<polygon fill="white" stroke="black" points="0,-0.5 0,-19.5 59,-19.5 59,-0.5 0,-0.5"/>
<text text-anchor="middle" x="29.5" y="-7.5" font-family="Arial" font-size="10.00">mir/fatal.h</text>
</a>
</g>
</g>
<!-- Node1&#45;&gt;Node2 -->
<g id="edge2" class="edge"><title>Node1&#45;&gt;Node2</title>
<path fill="none" stroke="midnightblue" d="M57.8856,-56.083C53.1326,-48.5341 46.1819,-37.4948 40.3484,-28.2298"/>
<polygon fill="midnightblue" stroke="midnightblue" points="43.2999,-26.3486 35.0099,-19.7511 37.3763,-30.0783 43.2999,-26.3486"/>
</g>
<!-- Node3 -->
<g id="node4" class="node"><title>Node3</title>
<polygon fill="white" stroke="#bfbfbf" points="77.5,-0.5 77.5,-19.5 117.5,-19.5 117.5,-0.5 77.5,-0.5"/>
<text text-anchor="middle" x="97.5" y="-7.5" font-family="Arial" font-size="10.00">utility</text>
</g>
<!-- Node1&#45;&gt;Node3 -->
<g id="edge3" class="edge"><title>Node1&#45;&gt;Node3</title>
<path fill="none" stroke="midnightblue" d="M69.1144,-56.083C73.8674,-48.5341 80.8181,-37.4948 86.6516,-28.2298"/>
<polygon fill="midnightblue" stroke="midnightblue" points="89.6237,-30.0783 91.9901,-19.7511 83.7001,-26.3486 89.6237,-30.0783"/>
</g>
</g>
</svg>
