<?xml version="1.0" encoding="UTF-8" standalone="no"?>
<!DOCTYPE svg PUBLIC "-//W3C//DTD SVG 1.1//EN"
 "http://www.w3.org/Graphics/SVG/1.1/DTD/svg11.dtd">
<!-- Generated by graphviz version 2.40.1 (20161225.0304)
 -->
<!-- Title: include/miral/miral/command_line_option.h Pages: 1 -->
<svg width="484pt" height="151pt"
 viewBox="0.00 0.00 484.00 151.00" xmlns="http://www.w3.org/2000/svg" xmlns:xlink="http://www.w3.org/1999/xlink">
<g id="graph0" class="graph" transform="scale(1 1) rotate(0) translate(4 147)">
<title>include/miral/miral/command_line_option.h</title>
<polygon fill="#ffffff" stroke="transparent" points="-4,4 -4,-147 480,-147 480,4 -4,4"/>
<!-- Node0 -->
<g id="node1" class="node">
<title>Node0</title>
<polygon fill="#bfbfbf" stroke="#000000" points="259.5,-112.5 259.5,-142.5 396.5,-142.5 396.5,-112.5 259.5,-112.5"/>
<text text-anchor="start" x="267.5" y="-130.5" font-family="Arial" font-size="10.00" fill="#000000">include/miral/miral</text>
<text text-anchor="middle" x="328" y="-119.5" font-family="Arial" font-size="10.00" fill="#000000">/command_line_option.h</text>
</g>
<!-- Node1 -->
<g id="node2" class="node">
<title>Node1</title>
<g id="a_node2"><a xlink:href="optional__value_8h.html" target="_top" xlink:title="mir/optional_value.h">
<polygon fill="#ffffff" stroke="#000000" points="12.5,-56.5 12.5,-75.5 129.5,-75.5 129.5,-56.5 12.5,-56.5"/>
<text text-anchor="middle" x="71" y="-63.5" font-family="Arial" font-size="10.00" fill="#000000">mir/optional_value.h</text>
</a>
</g>
</g>
<!-- Node0&#45;&gt;Node1 -->
<g id="edge1" class="edge">
<title>Node0&#45;&gt;Node1</title>
<path fill="none" stroke="#191970" d="M265.1307,-112.4554C220.651,-101.8114 161.83,-87.7356 120.6376,-77.8783"/>
<polygon fill="#191970" stroke="#191970" points="121.3659,-74.4538 110.8259,-75.5303 119.7367,-81.2616 121.3659,-74.4538"/>
</g>
<!-- Node4 -->
<g id="node5" class="node">
<title>Node4</title>
<g id="a_node5"><a xlink:href="lambda__as__function_8h.html" target="_top" xlink:title="miral/lambda_as_function.h">
<polygon fill="#ffffff" stroke="#000000" points="148,-56.5 148,-75.5 300,-75.5 300,-56.5 148,-56.5"/>
<text text-anchor="middle" x="224" y="-63.5" font-family="Arial" font-size="10.00" fill="#000000">miral/lambda_as_function.h</text>
</a>
</g>
</g>
<!-- Node0&#45;&gt;Node4 -->
<g id="edge4" class="edge">
<title>Node0&#45;&gt;Node4</title>
<path fill="none" stroke="#191970" d="M302.5587,-112.4554C286.2716,-102.8241 265.2327,-90.3828 249.027,-80.7996"/>
<polygon fill="#191970" stroke="#191970" points="250.5055,-77.6078 240.1163,-75.5303 246.9424,-83.6331 250.5055,-77.6078"/>
</g>
<!-- Node5 -->
<g id="node6" class="node">
<title>Node5</title>
<polygon fill="#ffffff" stroke="#bfbfbf" points="243.5,-.5 243.5,-19.5 308.5,-19.5 308.5,-.5 243.5,-.5"/>
<text text-anchor="middle" x="276" y="-7.5" font-family="Arial" font-size="10.00" fill="#000000">functional</text>
</g>
<!-- Node0&#45;&gt;Node5 -->
<g id="edge6" class="edge">
<title>Node0&#45;&gt;Node5</title>
<path fill="none" stroke="#191970" d="M325.6383,-112.4377C322.9355,-97.5769 317.7173,-74.4679 309,-56 304.2552,-45.948 297.2623,-35.7999 290.9336,-27.6024"/>
<polygon fill="#191970" stroke="#191970" points="293.4629,-25.1629 284.4647,-19.5697 288.0109,-29.5534 293.4629,-25.1629"/>
</g>
<!-- Node6 -->
<g id="node7" class="node">
<title>Node6</title>
<polygon fill="#ffffff" stroke="#bfbfbf" points="356,-56.5 356,-75.5 414,-75.5 414,-56.5 356,-56.5"/>
<text text-anchor="middle" x="385" y="-63.5" font-family="Arial" font-size="10.00" fill="#000000">memory</text>
</g>
<!-- Node0&#45;&gt;Node6 -->
<g id="edge7" class="edge">
<title>Node0&#45;&gt;Node6</title>
<path fill="none" stroke="#191970" d="M342.0899,-112.2977C350.2493,-103.4941 360.5472,-92.3833 369.0095,-83.2529"/>
<polygon fill="#191970" stroke="#191970" points="371.6429,-85.5604 375.8736,-75.8469 366.5089,-80.8021 371.6429,-85.5604"/>
</g>
<!-- Node7 -->
<g id="node8" class="node">
<title>Node7</title>
<polygon fill="#ffffff" stroke="#bfbfbf" points="432,-56.5 432,-75.5 476,-75.5 476,-56.5 432,-56.5"/>
<text text-anchor="middle" x="454" y="-63.5" font-family="Arial" font-size="10.00" fill="#000000">string</text>
</g>
<!-- Node0&#45;&gt;Node7 -->
<g id="edge8" class="edge">
<title>Node0&#45;&gt;Node7</title>
<path fill="none" stroke="#191970" d="M358.8231,-112.4554C379.1088,-102.554 405.4788,-89.683 425.3162,-80.0004"/>
<polygon fill="#191970" stroke="#191970" points="427.023,-83.062 434.4745,-75.5303 423.9526,-76.7714 427.023,-83.062"/>
</g>
<!-- Node2 -->
<g id="node3" class="node">
<title>Node2</title>
<g id="a_node3"><a xlink:href="fatal_8h.html" target="_top" xlink:title="mir/fatal.h">
<polygon fill="#ffffff" stroke="#000000" points="0,-.5 0,-19.5 68,-19.5 68,-.5 0,-.5"/>
<text text-anchor="middle" x="34" y="-7.5" font-family="Arial" font-size="10.00" fill="#000000">mir/fatal.h</text>
</a>
</g>
</g>
<!-- Node1&#45;&gt;Node2 -->
<g id="edge2" class="edge">
<title>Node1&#45;&gt;Node2</title>
<path fill="none" stroke="#191970" d="M64.5551,-56.2455C59.4618,-48.5367 52.2092,-37.5598 46.048,-28.2348"/>
<polygon fill="#191970" stroke="#191970" points="48.8038,-26.0566 40.3711,-19.6427 42.9635,-29.9155 48.8038,-26.0566"/>
</g>
<!-- Node3 -->
<g id="node4" class="node">
<title>Node3</title>
<polygon fill="#ffffff" stroke="#bfbfbf" points="86.5,-.5 86.5,-19.5 131.5,-19.5 131.5,-.5 86.5,-.5"/>
<text text-anchor="middle" x="109" y="-7.5" font-family="Arial" font-size="10.00" fill="#000000">utility</text>
</g>
<!-- Node1&#45;&gt;Node3 -->
<g id="edge3" class="edge">
<title>Node1&#45;&gt;Node3</title>
<path fill="none" stroke="#191970" d="M77.6191,-56.2455C82.9046,-48.4564 90.4541,-37.3308 96.8238,-27.9439"/>
<polygon fill="#191970" stroke="#191970" points="99.7379,-29.8827 102.4568,-19.6427 93.9455,-25.9522 99.7379,-29.8827"/>
</g>
<!-- Node4&#45;&gt;Node5 -->
<g id="edge5" class="edge">
<title>Node4&#45;&gt;Node5</title>
<path fill="none" stroke="#191970" d="M233.0577,-56.2455C240.5142,-48.2155 251.2634,-36.6394 260.1417,-27.0781"/>
<polygon fill="#191970" stroke="#191970" points="262.8063,-29.3522 267.0461,-19.6427 257.6768,-24.589 262.8063,-29.3522"/>
</g>
</g>
</svg>
