<?xml version="1.0" encoding="UTF-8" standalone="no"?>
<!DOCTYPE svg PUBLIC "-//W3C//DTD SVG 1.1//EN"
 "http://www.w3.org/Graphics/SVG/1.1/DTD/svg11.dtd">
<!-- Generated by graphviz version 2.38.0 (20140413.2041)
 -->
<!-- Title: include/common/mir/input/keymap.h Pages: 1 -->
<svg width="150pt" height="184pt"
 viewBox="0.00 0.00 150.00 184.00" xmlns="http://www.w3.org/2000/svg" xmlns:xlink="http://www.w3.org/1999/xlink">
<g id="graph0" class="graph" transform="scale(1 1) rotate(0) translate(4 180)">
<title>include/common/mir/input/keymap.h</title>
<polygon fill="white" stroke="none" points="-4,4 -4,-180 146,-180 146,4 -4,4"/>
<!-- Node3 -->
<g id="node1" class="node"><title>Node3</title>
<polygon fill="#bfbfbf" stroke="black" points="19,-145.5 19,-175.5 123,-175.5 123,-145.5 19,-145.5"/>
<text text-anchor="start" x="27" y="-163.5" font-family="Arial" font-size="10.00">include/common/mir</text>
<text text-anchor="middle" x="71" y="-152.5" font-family="Arial" font-size="10.00">/input/keymap.h</text>
</g>
<!-- Node4 -->
<g id="node2" class="node"><title>Node4</title>
<g id="a_node2"><a xlink:href="mir__keyboard__config_8h.html" target="_top" xlink:title="include/common/mir\l/input/mir_keyboard\l_config.h">
<polygon fill="white" stroke="black" points="19,-67.5 19,-108.5 123,-108.5 123,-67.5 19,-67.5"/>
<text text-anchor="start" x="27" y="-96.5" font-family="Arial" font-size="10.00">include/common/mir</text>
<text text-anchor="start" x="27" y="-85.5" font-family="Arial" font-size="10.00">/input/mir_keyboard</text>
<text text-anchor="middle" x="71" y="-74.5" font-family="Arial" font-size="10.00">_config.h</text>
</a>
</g>
</g>
<!-- Node3&#45;&gt;Node4 -->
<g id="edge1" class="edge"><title>Node3&#45;&gt;Node4</title>
<path fill="none" stroke="midnightblue" d="M71,-134.982C71,-126.347 71,-116.762 71,-108.588"/>
<polygon fill="midnightblue" stroke="midnightblue" points="67.5001,-135.233 71,-145.233 74.5001,-135.233 67.5001,-135.233"/>
</g>
<!-- Node5 -->
<g id="node3" class="node"><title>Node5</title>
<g id="a_node3"><a xlink:href="stub__input__device_8h.html" target="_top" xlink:title="include/test/mir/test\l/doubles/stub_input_device.h">
<polygon fill="white" stroke="black" points="0,-0.5 0,-30.5 142,-30.5 142,-0.5 0,-0.5"/>
<text text-anchor="start" x="8" y="-18.5" font-family="Arial" font-size="10.00">include/test/mir/test</text>
<text text-anchor="middle" x="71" y="-7.5" font-family="Arial" font-size="10.00">/doubles/stub_input_device.h</text>
</a>
</g>
</g>
<!-- Node4&#45;&gt;Node5 -->
<g id="edge2" class="edge"><title>Node4&#45;&gt;Node5</title>
<path fill="none" stroke="midnightblue" d="M71,-57.08C71,-48.0061 71,-38.4498 71,-30.8916"/>
<polygon fill="midnightblue" stroke="midnightblue" points="67.5001,-57.3618 71,-67.3618 74.5001,-57.3619 67.5001,-57.3618"/>
</g>
</g>
</svg>
