<?xml version="1.0" encoding="UTF-8" standalone="no"?>
<!DOCTYPE svg PUBLIC "-//W3C//DTD SVG 1.1//EN"
 "http://www.w3.org/Graphics/SVG/1.1/DTD/svg11.dtd">
<!-- Generated by graphviz version 2.40.1 (20161225.0304)
 -->
<!-- Title: include/client/mir/client/connection.h Pages: 1 -->
<svg width="555pt" height="240pt"
 viewBox="0.00 0.00 555.00 240.00" xmlns="http://www.w3.org/2000/svg" xmlns:xlink="http://www.w3.org/1999/xlink">
<g id="graph0" class="graph" transform="scale(1 1) rotate(0) translate(4 236)">
<title>include/client/mir/client/connection.h</title>
<polygon fill="#ffffff" stroke="transparent" points="-4,4 -4,-236 551,-236 551,4 -4,4"/>
<!-- Node26 -->
<g id="node1" class="node">
<title>Node26</title>
<polygon fill="#bfbfbf" stroke="#000000" points="155.5,-201.5 155.5,-231.5 267.5,-231.5 267.5,-201.5 155.5,-201.5"/>
<text text-anchor="start" x="163.5" y="-219.5" font-family="Arial" font-size="10.00" fill="#000000">include/client/mir</text>
<text text-anchor="middle" x="211.5" y="-208.5" font-family="Arial" font-size="10.00" fill="#000000">/client/connection.h</text>
</g>
<!-- Node27 -->
<g id="node2" class="node">
<title>Node27</title>
<g id="a_node2"><a xlink:href="internal__client_8h.html" target="_top" xlink:title="include/miral/miral\l/internal_client.h">
<polygon fill="#ffffff" stroke="#000000" points="157,-134.5 157,-164.5 266,-164.5 266,-134.5 157,-134.5"/>
<text text-anchor="start" x="165" y="-152.5" font-family="Arial" font-size="10.00" fill="#000000">include/miral/miral</text>
<text text-anchor="middle" x="211.5" y="-141.5" font-family="Arial" font-size="10.00" fill="#000000">/internal_client.h</text>
</a>
</g>
</g>
<!-- Node26&#45;&gt;Node27 -->
<g id="edge1" class="edge">
<title>Node26&#45;&gt;Node27</title>
<path fill="none" stroke="#191970" d="M211.5,-191.0249C211.5,-182.128 211.5,-172.4287 211.5,-164.6432"/>
<polygon fill="#191970" stroke="#191970" points="208.0001,-191.2966 211.5,-201.2967 215.0001,-191.2967 208.0001,-191.2966"/>
</g>
<!-- Node28 -->
<g id="node3" class="node">
<title>Node28</title>
<g id="a_node3"><a xlink:href="kiosk__main_8cpp.html" target="_top" xlink:title="examples/miral&#45;kiosk\l/kiosk_main.cpp">
<polygon fill="#ffffff" stroke="#000000" points="0,-67.5 0,-97.5 123,-97.5 123,-67.5 0,-67.5"/>
<text text-anchor="start" x="8" y="-85.5" font-family="Arial" font-size="10.00" fill="#000000">examples/miral&#45;kiosk</text>
<text text-anchor="middle" x="61.5" y="-74.5" font-family="Arial" font-size="10.00" fill="#000000">/kiosk_main.cpp</text>
</a>
</g>
</g>
<!-- Node27&#45;&gt;Node28 -->
<g id="edge2" class="edge">
<title>Node27&#45;&gt;Node28</title>
<path fill="none" stroke="#191970" d="M168.5445,-130.3132C145.2911,-119.9267 116.9763,-107.2794 95.3097,-97.6017"/>
<polygon fill="#191970" stroke="#191970" points="167.2791,-133.5812 177.8371,-134.4639 170.1339,-127.1898 167.2791,-133.5812"/>
</g>
<!-- Node29 -->
<g id="node4" class="node">
<title>Node29</title>
<g id="a_node4"><a xlink:href="shell__main_8cpp.html" target="_top" xlink:title="examples/miral&#45;shell\l/shell_main.cpp">
<polygon fill="#ffffff" stroke="#000000" points="164.5,-.5 164.5,-30.5 284.5,-30.5 284.5,-.5 164.5,-.5"/>
<text text-anchor="start" x="172.5" y="-18.5" font-family="Arial" font-size="10.00" fill="#000000">examples/miral&#45;shell</text>
<text text-anchor="middle" x="224.5" y="-7.5" font-family="Arial" font-size="10.00" fill="#000000">/shell_main.cpp</text>
</a>
</g>
</g>
<!-- Node27&#45;&gt;Node29 -->
<g id="edge3" class="edge">
<title>Node27&#45;&gt;Node29</title>
<path fill="none" stroke="#191970" d="M187.714,-126.4321C180.7897,-118.1885 174.1193,-108.3571 170.5,-98 165.9549,-84.9935 165.0771,-79.6657 170.5,-67 176.8229,-52.2325 189.6899,-39.6881 201.278,-30.678"/>
<polygon fill="#191970" stroke="#191970" points="185.3289,-129.014 194.6193,-134.1071 190.5327,-124.3321 185.3289,-129.014"/>
</g>
<!-- Node30 -->
<g id="node5" class="node">
<title>Node30</title>
<g id="a_node5"><a xlink:href="floating__window__manager_8cpp.html" target="_top" xlink:title="examples/example&#45;server\l&#45;lib/floating_window_manager.cpp">
<polygon fill="#ffffff" stroke="#000000" points="180,-67.5 180,-97.5 363,-97.5 363,-67.5 180,-67.5"/>
<text text-anchor="start" x="188" y="-85.5" font-family="Arial" font-size="10.00" fill="#000000">examples/example&#45;server</text>
<text text-anchor="middle" x="271.5" y="-74.5" font-family="Arial" font-size="10.00" fill="#000000">&#45;lib/floating_window_manager.cpp</text>
</a>
</g>
</g>
<!-- Node27&#45;&gt;Node30 -->
<g id="edge4" class="edge">
<title>Node27&#45;&gt;Node30</title>
<path fill="none" stroke="#191970" d="M231.973,-126.6385C240.546,-117.0653 250.2773,-106.1987 257.939,-97.6432"/>
<polygon fill="#191970" stroke="#191970" points="229.1788,-124.5122 225.1149,-134.2967 234.3935,-129.1821 229.1788,-124.5122"/>
</g>
<!-- Node31 -->
<g id="node6" class="node">
<title>Node31</title>
<g id="a_node6"><a xlink:href="tiling__window__manager_8h.html" target="_top" xlink:title="examples/example&#45;server\l&#45;lib/tiling_window_manager.h">
<polygon fill="#ffffff" stroke="#000000" points="381.5,-67.5 381.5,-97.5 541.5,-97.5 541.5,-67.5 381.5,-67.5"/>
<text text-anchor="start" x="389.5" y="-85.5" font-family="Arial" font-size="10.00" fill="#000000">examples/example&#45;server</text>
<text text-anchor="middle" x="461.5" y="-74.5" font-family="Arial" font-size="10.00" fill="#000000">&#45;lib/tiling_window_manager.h</text>
</a>
</g>
</g>
<!-- Node27&#45;&gt;Node31 -->
<g id="edge5" class="edge">
<title>Node27&#45;&gt;Node31</title>
<path fill="none" stroke="#191970" d="M275.7282,-132.2868C315.7975,-121.5483 366.8772,-107.8589 405.33,-97.5536"/>
<polygon fill="#191970" stroke="#191970" points="274.8077,-128.9099 266.0546,-134.8794 276.6198,-135.6713 274.8077,-128.9099"/>
</g>
<!-- Node31&#45;&gt;Node29 -->
<g id="edge6" class="edge">
<title>Node31&#45;&gt;Node29</title>
<path fill="none" stroke="#191970" d="M398.4801,-64.6842C360.8874,-54.0568 313.674,-40.7095 277.9194,-30.6017"/>
<polygon fill="#191970" stroke="#191970" points="397.7375,-68.1114 408.3126,-67.4639 399.6419,-61.3754 397.7375,-68.1114"/>
</g>
<!-- Node32 -->
<g id="node7" class="node">
<title>Node32</title>
<g id="a_node7"><a xlink:href="tiling__window__manager_8cpp.html" target="_top" xlink:title="examples/example&#45;server\l&#45;lib/tiling_window_manager.cpp">
<polygon fill="#ffffff" stroke="#000000" points="376,-.5 376,-30.5 547,-30.5 547,-.5 376,-.5"/>
<text text-anchor="start" x="384" y="-18.5" font-family="Arial" font-size="10.00" fill="#000000">examples/example&#45;server</text>
<text text-anchor="middle" x="461.5" y="-7.5" font-family="Arial" font-size="10.00" fill="#000000">&#45;lib/tiling_window_manager.cpp</text>
</a>
</g>
</g>
<!-- Node31&#45;&gt;Node32 -->
<g id="edge7" class="edge">
<title>Node31&#45;&gt;Node32</title>
<path fill="none" stroke="#191970" d="M461.5,-57.0249C461.5,-48.128 461.5,-38.4287 461.5,-30.6432"/>
<polygon fill="#191970" stroke="#191970" points="458.0001,-57.2966 461.5,-67.2967 465.0001,-57.2967 458.0001,-57.2966"/>
</g>
</g>
</svg>
