<?xml version="1.0" encoding="UTF-8" standalone="no"?>
<!DOCTYPE svg PUBLIC "-//W3C//DTD SVG 1.1//EN"
 "http://www.w3.org/Graphics/SVG/1.1/DTD/svg11.dtd">
<!-- Generated by graphviz version 2.38.0 (20140413.2041)
 -->
<!-- Title: include/renderers/gl/mir/renderer/gl/context_source.h Pages: 1 -->
<svg width="125pt" height="106pt"
 viewBox="0.00 0.00 125.00 106.00" xmlns="http://www.w3.org/2000/svg" xmlns:xlink="http://www.w3.org/1999/xlink">
<g id="graph0" class="graph" transform="scale(1 1) rotate(0) translate(4 102)">
<title>include/renderers/gl/mir/renderer/gl/context_source.h</title>
<polygon fill="white" stroke="none" points="-4,4 -4,-102 121,-102 121,4 -4,4"/>
<!-- Node0 -->
<g id="node1" class="node"><title>Node0</title>
<polygon fill="#bfbfbf" stroke="black" points="0,-56.5 0,-97.5 117,-97.5 117,-56.5 0,-56.5"/>
<text text-anchor="start" x="8" y="-85.5" font-family="Arial" font-size="10.00">include/renderers/gl</text>
<text text-anchor="start" x="8" y="-74.5" font-family="Arial" font-size="10.00">/mir/renderer/gl/context</text>
<text text-anchor="middle" x="58.5" y="-63.5" font-family="Arial" font-size="10.00">_source.h</text>
</g>
<!-- Node1 -->
<g id="node2" class="node"><title>Node1</title>
<polygon fill="white" stroke="#bfbfbf" points="32.5,-0.5 32.5,-19.5 84.5,-19.5 84.5,-0.5 32.5,-0.5"/>
<text text-anchor="middle" x="58.5" y="-7.5" font-family="Arial" font-size="10.00">memory</text>
</g>
<!-- Node0&#45;&gt;Node1 -->
<g id="edge1" class="edge"><title>Node0&#45;&gt;Node1</title>
<path fill="none" stroke="midnightblue" d="M58.5,-56.4979C58.5,-48.0653 58.5,-38.2351 58.5,-29.874"/>
<polygon fill="midnightblue" stroke="midnightblue" points="62.0001,-29.6525 58.5,-19.6525 55.0001,-29.6525 62.0001,-29.6525"/>
</g>
</g>
</svg>
