<?xml version="1.0" encoding="UTF-8" standalone="no"?>
<!DOCTYPE svg PUBLIC "-//W3C//DTD SVG 1.1//EN"
 "http://www.w3.org/Graphics/SVG/1.1/DTD/svg11.dtd">
<!-- Generated by graphviz version 2.38.0 (20140413.2041)
 -->
<!-- Title: include/client/mir/client/cookie.h Pages: 1 -->
<svg width="198pt" height="151pt"
 viewBox="0.00 0.00 198.00 151.00" xmlns="http://www.w3.org/2000/svg" xmlns:xlink="http://www.w3.org/1999/xlink">
<g id="graph0" class="graph" transform="scale(1 1) rotate(0) translate(4 147)">
<title>include/client/mir/client/cookie.h</title>
<polygon fill="white" stroke="none" points="-4,4 -4,-147 194,-147 194,4 -4,4"/>
<!-- Node0 -->
<g id="node1" class="node"><title>Node0</title>
<polygon fill="#bfbfbf" stroke="black" points="67,-112.5 67,-142.5 157,-142.5 157,-112.5 67,-112.5"/>
<text text-anchor="start" x="75" y="-130.5" font-family="Arial" font-size="10.00">include/client/mir</text>
<text text-anchor="middle" x="112" y="-119.5" font-family="Arial" font-size="10.00">/client/cookie.h</text>
</g>
<!-- Node1 -->
<g id="node2" class="node"><title>Node1</title>
<g id="a_node2"><a xlink:href="mir__cookie_8h.html" target="_top" xlink:title="mir_toolkit/mir_cookie.h">
<polygon fill="white" stroke="black" points="-7.10543e-15,-56.5 -7.10543e-15,-75.5 120,-75.5 120,-56.5 -7.10543e-15,-56.5"/>
<text text-anchor="middle" x="60" y="-63.5" font-family="Arial" font-size="10.00">mir_toolkit/mir_cookie.h</text>
</a>
</g>
</g>
<!-- Node0&#45;&gt;Node1 -->
<g id="edge1" class="edge"><title>Node0&#45;&gt;Node1</title>
<path fill="none" stroke="midnightblue" d="M99.6767,-112.399C92.0426,-103.664 82.2093,-92.4126 74.2421,-83.2962"/>
<polygon fill="midnightblue" stroke="midnightblue" points="76.7825,-80.8843 67.5665,-75.6578 71.5117,-85.4907 76.7825,-80.8843"/>
</g>
<!-- Node3 -->
<g id="node4" class="node"><title>Node3</title>
<polygon fill="white" stroke="#bfbfbf" points="138,-56.5 138,-75.5 190,-75.5 190,-56.5 138,-56.5"/>
<text text-anchor="middle" x="164" y="-63.5" font-family="Arial" font-size="10.00">memory</text>
</g>
<!-- Node0&#45;&gt;Node3 -->
<g id="edge3" class="edge"><title>Node0&#45;&gt;Node3</title>
<path fill="none" stroke="midnightblue" d="M124.323,-112.399C131.957,-103.664 141.791,-92.4126 149.758,-83.2962"/>
<polygon fill="midnightblue" stroke="midnightblue" points="152.488,-85.4907 156.434,-75.6578 147.218,-80.8843 152.488,-85.4907"/>
</g>
<!-- Node2 -->
<g id="node3" class="node"><title>Node2</title>
<polygon fill="white" stroke="#bfbfbf" points="35.5,-0.5 35.5,-19.5 84.5,-19.5 84.5,-0.5 35.5,-0.5"/>
<text text-anchor="middle" x="60" y="-7.5" font-family="Arial" font-size="10.00">stdint.h</text>
</g>
<!-- Node1&#45;&gt;Node2 -->
<g id="edge2" class="edge"><title>Node1&#45;&gt;Node2</title>
<path fill="none" stroke="midnightblue" d="M60,-56.083C60,-49.0059 60,-38.8611 60,-29.9865"/>
<polygon fill="midnightblue" stroke="midnightblue" points="63.5001,-29.751 60,-19.7511 56.5001,-29.7511 63.5001,-29.751"/>
</g>
</g>
</svg>
