<?xml version="1.0" encoding="UTF-8" standalone="no"?>
<!DOCTYPE svg PUBLIC "-//W3C//DTD SVG 1.1//EN"
 "http://www.w3.org/Graphics/SVG/1.1/DTD/svg11.dtd">
<!-- Generated by graphviz version 2.38.0 (20140413.2041)
 -->
<!-- Title: include/cookie/mir/cookie/cookie.h Pages: 1 -->
<svg width="120pt" height="95pt"
 viewBox="0.00 0.00 119.50 95.00" xmlns="http://www.w3.org/2000/svg" xmlns:xlink="http://www.w3.org/1999/xlink">
<g id="graph0" class="graph" transform="scale(1 1) rotate(0) translate(4 91)">
<title>include/cookie/mir/cookie/cookie.h</title>
<polygon fill="white" stroke="none" points="-4,4 -4,-91 115.5,-91 115.5,4 -4,4"/>
<!-- Node0 -->
<g id="node1" class="node"><title>Node0</title>
<polygon fill="#bfbfbf" stroke="black" points="9,-56.5 9,-86.5 104,-86.5 104,-56.5 9,-56.5"/>
<text text-anchor="start" x="17" y="-74.5" font-family="Arial" font-size="10.00">include/cookie/mir</text>
<text text-anchor="middle" x="56.5" y="-63.5" font-family="Arial" font-size="10.00">/cookie/cookie.h</text>
</g>
<!-- Node1 -->
<g id="node2" class="node"><title>Node1</title>
<polygon fill="white" stroke="#bfbfbf" points="0,-0.5 0,-19.5 49,-19.5 49,-0.5 0,-0.5"/>
<text text-anchor="middle" x="24.5" y="-7.5" font-family="Arial" font-size="10.00">stdint.h</text>
</g>
<!-- Node0&#45;&gt;Node1 -->
<g id="edge1" class="edge"><title>Node0&#45;&gt;Node1</title>
<path fill="none" stroke="midnightblue" d="M48.9164,-56.3993C44.4582,-48.1098 38.7812,-37.5542 34.0234,-28.7077"/>
<polygon fill="midnightblue" stroke="midnightblue" points="36.9754,-26.8071 29.1563,-19.6578 30.8104,-30.1227 36.9754,-26.8071"/>
</g>
<!-- Node2 -->
<g id="node3" class="node"><title>Node2</title>
<polygon fill="white" stroke="#bfbfbf" points="67.5,-0.5 67.5,-19.5 111.5,-19.5 111.5,-0.5 67.5,-0.5"/>
<text text-anchor="middle" x="89.5" y="-7.5" font-family="Arial" font-size="10.00">vector</text>
</g>
<!-- Node0&#45;&gt;Node2 -->
<g id="edge2" class="edge"><title>Node0&#45;&gt;Node2</title>
<path fill="none" stroke="midnightblue" d="M64.3205,-56.3993C68.9675,-48.0207 74.8985,-37.3269 79.8369,-28.4229"/>
<polygon fill="midnightblue" stroke="midnightblue" points="82.9087,-30.1004 84.6982,-19.6578 76.7872,-26.7052 82.9087,-30.1004"/>
</g>
</g>
</svg>
