<?xml version="1.0" encoding="UTF-8" standalone="no"?>
<!DOCTYPE svg PUBLIC "-//W3C//DTD SVG 1.1//EN"
 "http://www.w3.org/Graphics/SVG/1.1/DTD/svg11.dtd">
<!-- Generated by graphviz version 2.38.0 (20140413.2041)
 -->
<!-- Title: include/cookie/mir/cookie/cookie.h Pages: 1 -->
<svg width="105pt" height="106pt"
 viewBox="0.00 0.00 105.00 106.00" xmlns="http://www.w3.org/2000/svg" xmlns:xlink="http://www.w3.org/1999/xlink">
<g id="graph0" class="graph" transform="scale(1 1) rotate(0) translate(4 102)">
<title>include/cookie/mir/cookie/cookie.h</title>
<polygon fill="white" stroke="none" points="-4,4 -4,-102 101,-102 101,4 -4,4"/>
<!-- Node3 -->
<g id="node1" class="node"><title>Node3</title>
<polygon fill="#bfbfbf" stroke="black" points="1,-67.5 1,-97.5 96,-97.5 96,-67.5 1,-67.5"/>
<text text-anchor="start" x="9" y="-85.5" font-family="Arial" font-size="10.00">include/cookie/mir</text>
<text text-anchor="middle" x="48.5" y="-74.5" font-family="Arial" font-size="10.00">/cookie/cookie.h</text>
</g>
<!-- Node4 -->
<g id="node2" class="node"><title>Node4</title>
<g id="a_node2"><a xlink:href="authority_8h.html" target="_top" xlink:title="include/cookie/mir\l/cookie/authority.h">
<polygon fill="white" stroke="black" points="-7.10543e-15,-0.5 -7.10543e-15,-30.5 97,-30.5 97,-0.5 -7.10543e-15,-0.5"/>
<text text-anchor="start" x="8" y="-18.5" font-family="Arial" font-size="10.00">include/cookie/mir</text>
<text text-anchor="middle" x="48.5" y="-7.5" font-family="Arial" font-size="10.00">/cookie/authority.h</text>
</a>
</g>
</g>
<!-- Node3&#45;&gt;Node4 -->
<g id="edge1" class="edge"><title>Node3&#45;&gt;Node4</title>
<path fill="none" stroke="midnightblue" d="M48.5,-57.1081C48.5,-48.1539 48.5,-38.3227 48.5,-30.5765"/>
<polygon fill="midnightblue" stroke="midnightblue" points="45.0001,-57.3959 48.5,-67.396 52.0001,-57.396 45.0001,-57.3959"/>
</g>
</g>
</svg>
