<?xml version="1.0" encoding="UTF-8" standalone="no"?>
<!DOCTYPE svg PUBLIC "-//W3C//DTD SVG 1.1//EN"
 "http://www.w3.org/Graphics/SVG/1.1/DTD/svg11.dtd">
<!-- Generated by graphviz version 2.38.0 (20140413.2041)
 -->
<!-- Title: include/test/mir/test/cross_process_sync.h Pages: 1 -->
<svg width="272pt" height="117pt"
 viewBox="0.00 0.00 272.00 117.00" xmlns="http://www.w3.org/2000/svg" xmlns:xlink="http://www.w3.org/1999/xlink">
<g id="graph0" class="graph" transform="scale(1 1) rotate(0) translate(4 113)">
<title>include/test/mir/test/cross_process_sync.h</title>
<polygon fill="white" stroke="none" points="-4,4 -4,-113 268,-113 268,4 -4,4"/>
<!-- Node2 -->
<g id="node1" class="node"><title>Node2</title>
<polygon fill="#bfbfbf" stroke="black" points="72.5,-78.5 72.5,-108.5 190.5,-108.5 190.5,-78.5 72.5,-78.5"/>
<text text-anchor="start" x="80.5" y="-96.5" font-family="Arial" font-size="10.00">include/test/mir/test</text>
<text text-anchor="middle" x="131.5" y="-85.5" font-family="Arial" font-size="10.00">/cross_process_sync.h</text>
</g>
<!-- Node3 -->
<g id="node2" class="node"><title>Node3</title>
<g id="a_node2"><a xlink:href="cross__process__action_8h.html" target="_top" xlink:title="include/test/mir/test\l/cross_process_action.h">
<polygon fill="white" stroke="black" points="0,-6 0,-36 123,-36 123,-6 0,-6"/>
<text text-anchor="start" x="8" y="-24" font-family="Arial" font-size="10.00">include/test/mir/test</text>
<text text-anchor="middle" x="61.5" y="-13" font-family="Arial" font-size="10.00">/cross_process_action.h</text>
</a>
</g>
</g>
<!-- Node2&#45;&gt;Node3 -->
<g id="edge1" class="edge"><title>Node2&#45;&gt;Node3</title>
<path fill="none" stroke="midnightblue" d="M110.018,-70.8641C98.8475,-59.6142 85.5071,-46.1786 75.6445,-36.2455"/>
<polygon fill="midnightblue" stroke="midnightblue" points="107.805,-73.6031 117.334,-78.2333 112.772,-68.671 107.805,-73.6031"/>
</g>
<!-- Node4 -->
<g id="node3" class="node"><title>Node4</title>
<g id="a_node3"><a xlink:href="interprocess__client__server__test_8h.html" target="_top" xlink:title="include/test/mir_test\l_framework/interprocess\l_client_server_test.h">
<polygon fill="white" stroke="black" points="141,-0.5 141,-41.5 264,-41.5 264,-0.5 141,-0.5"/>
<text text-anchor="start" x="149" y="-29.5" font-family="Arial" font-size="10.00">include/test/mir_test</text>
<text text-anchor="start" x="149" y="-18.5" font-family="Arial" font-size="10.00">_framework/interprocess</text>
<text text-anchor="middle" x="202.5" y="-7.5" font-family="Arial" font-size="10.00">_client_server_test.h</text>
</a>
</g>
</g>
<!-- Node2&#45;&gt;Node4 -->
<g id="edge2" class="edge"><title>Node2&#45;&gt;Node4</title>
<path fill="none" stroke="midnightblue" d="M153.051,-71.1007C162.508,-61.7107 173.534,-50.7615 182.773,-41.5884"/>
<polygon fill="midnightblue" stroke="midnightblue" points="150.498,-68.7036 145.868,-78.2333 155.43,-73.6708 150.498,-68.7036"/>
</g>
</g>
</svg>
