<?xml version="1.0" encoding="UTF-8" standalone="no"?>
<!DOCTYPE svg PUBLIC "-//W3C//DTD SVG 1.1//EN"
 "http://www.w3.org/Graphics/SVG/1.1/DTD/svg11.dtd">
<!-- Generated by graphviz version 2.38.0 (20140413.2041)
 -->
<!-- Title: include/test/mir/test/death.h Pages: 1 -->
<svg width="178pt" height="95pt"
 viewBox="0.00 0.00 178.00 95.00" xmlns="http://www.w3.org/2000/svg" xmlns:xlink="http://www.w3.org/1999/xlink">
<g id="graph0" class="graph" transform="scale(1 1) rotate(0) translate(4 91)">
<title>include/test/mir/test/death.h</title>
<polygon fill="white" stroke="none" points="-4,4 -4,-91 174,-91 174,4 -4,4"/>
<!-- Node0 -->
<g id="node1" class="node"><title>Node0</title>
<polygon fill="#bfbfbf" stroke="black" points="36,-56.5 36,-86.5 139,-86.5 139,-56.5 36,-56.5"/>
<text text-anchor="start" x="44" y="-74.5" font-family="Arial" font-size="10.00">include/test/mir/test</text>
<text text-anchor="middle" x="87.5" y="-63.5" font-family="Arial" font-size="10.00">/death.h</text>
</g>
<!-- Node1 -->
<g id="node2" class="node"><title>Node1</title>
<polygon fill="white" stroke="#bfbfbf" points="0,-0.5 0,-19.5 81,-19.5 81,-0.5 0,-0.5"/>
<text text-anchor="middle" x="40.5" y="-7.5" font-family="Arial" font-size="10.00">sys/resource.h</text>
</g>
<!-- Node0&#45;&gt;Node1 -->
<g id="edge1" class="edge"><title>Node0&#45;&gt;Node1</title>
<path fill="none" stroke="midnightblue" d="M76.3617,-56.3993C69.532,-47.7533 60.755,-36.642 53.5936,-27.576"/>
<polygon fill="midnightblue" stroke="midnightblue" points="56.284,-25.3354 47.3389,-19.6578 50.791,-29.6745 56.284,-25.3354"/>
</g>
<!-- Node2 -->
<g id="node3" class="node"><title>Node2</title>
<polygon fill="white" stroke="#bfbfbf" points="99,-0.5 99,-19.5 170,-19.5 170,-0.5 99,-0.5"/>
<text text-anchor="middle" x="134.5" y="-7.5" font-family="Arial" font-size="10.00">gtest/gtest.h</text>
</g>
<!-- Node0&#45;&gt;Node2 -->
<g id="edge2" class="edge"><title>Node0&#45;&gt;Node2</title>
<path fill="none" stroke="midnightblue" d="M98.6383,-56.3993C105.468,-47.7533 114.245,-36.642 121.406,-27.576"/>
<polygon fill="midnightblue" stroke="midnightblue" points="124.209,-29.6745 127.661,-19.6578 118.716,-25.3354 124.209,-29.6745"/>
</g>
</g>
</svg>
