<?xml version="1.0" encoding="UTF-8" standalone="no"?>
<!DOCTYPE svg PUBLIC "-//W3C//DTD SVG 1.1//EN"
 "http://www.w3.org/Graphics/SVG/1.1/DTD/svg11.dtd">
<!-- Generated by graphviz version 2.43.0 (0)
 -->
<!-- Title: examples/example&#45;server&#45;lib/decoration_provider.cpp Pages: 1 -->
<svg width="2396pt" height="666pt"
 viewBox="0.00 0.00 2396.00 666.00" xmlns="http://www.w3.org/2000/svg" xmlns:xlink="http://www.w3.org/1999/xlink">
<g id="graph0" class="graph" transform="scale(1 1) rotate(0) translate(4 662)">
<title>examples/example&#45;server&#45;lib/decoration_provider.cpp</title>
<polygon fill="white" stroke="transparent" points="-4,4 -4,-662 2392,-662 2392,4 -4,4"/>
<!-- Node1 -->
<g id="node1" class="node">
<title>Node1</title>
<g id="a_node1"><a xlink:title=" ">
<polygon fill="#bfbfbf" stroke="black" points="1564,-627.5 1564,-657.5 1716,-657.5 1716,-627.5 1564,-627.5"/>
<text text-anchor="start" x="1572" y="-645.5" font-family="Arial" font-size="10.00">examples/example&#45;server</text>
<text text-anchor="middle" x="1640" y="-634.5" font-family="Arial" font-size="10.00">&#45;lib/decoration_provider.cpp</text>
</a>
</g>
</g>
<!-- Node2 -->
<g id="node2" class="node">
<title>Node2</title>
<g id="a_node2"><a xlink:href="decoration__provider_8h.html" target="_top" xlink:title=" ">
<polygon fill="white" stroke="black" points="1027,-571.5 1027,-590.5 1149,-590.5 1149,-571.5 1027,-571.5"/>
<text text-anchor="middle" x="1088" y="-578.5" font-family="Arial" font-size="10.00">decoration_provider.h</text>
</a>
</g>
</g>
<!-- Node1&#45;&gt;Node2 -->
<g id="edge1" class="edge">
<title>Node1&#45;&gt;Node2</title>
<path fill="none" stroke="midnightblue" d="M1563.64,-633.3C1470.82,-623.32 1309.41,-605.96 1171,-591 1167.14,-590.58 1163.18,-590.15 1159.18,-589.72"/>
<polygon fill="midnightblue" stroke="midnightblue" points="1159.51,-586.24 1149.19,-588.64 1158.76,-593.2 1159.51,-586.24"/>
</g>
<!-- Node7 -->
<g id="node7" class="node">
<title>Node7</title>
<g id="a_node7"><a xlink:title=" ">
<polygon fill="white" stroke="#bfbfbf" points="1051,-280.5 1051,-299.5 1095,-299.5 1095,-280.5 1051,-280.5"/>
<text text-anchor="middle" x="1073" y="-287.5" font-family="Arial" font-size="10.00">string</text>
</a>
</g>
</g>
<!-- Node1&#45;&gt;Node7 -->
<g id="edge81" class="edge">
<title>Node1&#45;&gt;Node7</title>
<path fill="none" stroke="midnightblue" d="M1563.84,-636.93C1434.32,-627.04 1185,-597.95 1185,-520.5 1185,-520.5 1185,-520.5 1185,-457 1185,-422.55 1117.86,-341.94 1087.55,-307.29"/>
<polygon fill="midnightblue" stroke="midnightblue" points="1089.94,-304.71 1080.7,-299.53 1084.69,-309.35 1089.94,-304.71"/>
</g>
<!-- Node36 -->
<g id="node35" class="node">
<title>Node36</title>
<g id="a_node35"><a xlink:href="wallpaper__config_8h.html" target="_top" xlink:title=" ">
<polygon fill="white" stroke="black" points="1233,-448.5 1233,-467.5 1341,-467.5 1341,-448.5 1233,-448.5"/>
<text text-anchor="middle" x="1287" y="-455.5" font-family="Arial" font-size="10.00">wallpaper_config.h</text>
</a>
</g>
</g>
<!-- Node1&#45;&gt;Node36 -->
<g id="edge58" class="edge">
<title>Node1&#45;&gt;Node36</title>
<path fill="none" stroke="midnightblue" d="M1563.91,-638.41C1513.75,-633.41 1448.29,-621.05 1398,-591 1350.18,-562.42 1313.24,-505.66 1296.62,-476.77"/>
<polygon fill="midnightblue" stroke="midnightblue" points="1299.54,-474.83 1291.61,-467.81 1293.43,-478.25 1299.54,-474.83"/>
</g>
<!-- Node37 -->
<g id="node36" class="node">
<title>Node37</title>
<g id="a_node36"><a xlink:href="wayland__app_8h.html" target="_top" xlink:title=" ">
<polygon fill="white" stroke="black" points="1425,-336.5 1425,-355.5 1515,-355.5 1515,-336.5 1425,-336.5"/>
<text text-anchor="middle" x="1470" y="-343.5" font-family="Arial" font-size="10.00">wayland_app.h</text>
</a>
</g>
</g>
<!-- Node1&#45;&gt;Node37 -->
<g id="edge60" class="edge">
<title>Node1&#45;&gt;Node37</title>
<path fill="none" stroke="midnightblue" d="M1563.66,-628.5C1539.4,-621.05 1514.18,-609.35 1496,-591 1472.7,-567.49 1472,-553.6 1472,-520.5 1472,-520.5 1472,-520.5 1472,-457 1472,-424.94 1471.14,-387.64 1470.55,-365.75"/>
<polygon fill="midnightblue" stroke="midnightblue" points="1474.04,-365.45 1470.26,-355.56 1467.04,-365.65 1474.04,-365.45"/>
</g>
<!-- Node39 -->
<g id="node38" class="node">
<title>Node39</title>
<g id="a_node38"><a xlink:title=" ">
<polygon fill="white" stroke="#bfbfbf" points="1488,-280.5 1488,-299.5 1526,-299.5 1526,-280.5 1488,-280.5"/>
<text text-anchor="middle" x="1507" y="-287.5" font-family="Arial" font-size="10.00">map</text>
</a>
</g>
</g>
<!-- Node1&#45;&gt;Node39 -->
<g id="edge80" class="edge">
<title>Node1&#45;&gt;Node39</title>
<path fill="none" stroke="midnightblue" d="M1578.66,-627.46C1559.53,-619.92 1540.46,-608.42 1529,-591 1466.72,-496.29 1545.45,-447.31 1524,-336 1522.22,-326.77 1518.72,-316.97 1515.36,-308.87"/>
<polygon fill="midnightblue" stroke="midnightblue" points="1518.55,-307.44 1511.31,-299.7 1512.15,-310.26 1518.55,-307.44"/>
</g>
<!-- Node40 -->
<g id="node39" class="node">
<title>Node40</title>
<g id="a_node39"><a xlink:href="wayland__surface_8h.html" target="_top" xlink:title=" ">
<polygon fill="white" stroke="black" points="1336,-392.5 1336,-411.5 1444,-411.5 1444,-392.5 1336,-392.5"/>
<text text-anchor="middle" x="1390" y="-399.5" font-family="Arial" font-size="10.00">wayland_surface.h</text>
</a>
</g>
</g>
<!-- Node1&#45;&gt;Node40 -->
<g id="edge66" class="edge">
<title>Node1&#45;&gt;Node40</title>
<path fill="none" stroke="midnightblue" d="M1563.56,-636.3C1527.62,-630.19 1486.51,-617.41 1458,-591 1408.16,-544.83 1394.78,-459.35 1391.24,-421.67"/>
<polygon fill="midnightblue" stroke="midnightblue" points="1394.73,-421.29 1390.43,-411.6 1387.75,-421.85 1394.73,-421.29"/>
</g>
<!-- Node41 -->
<g id="node40" class="node">
<title>Node41</title>
<g id="a_node40"><a xlink:href="wayland__shm_8h.html" target="_top" xlink:title=" ">
<polygon fill="white" stroke="black" points="763.5,-336.5 763.5,-355.5 856.5,-355.5 856.5,-336.5 763.5,-336.5"/>
<text text-anchor="middle" x="810" y="-343.5" font-family="Arial" font-size="10.00">wayland_shm.h</text>
</a>
</g>
</g>
<!-- Node1&#45;&gt;Node41 -->
<g id="edge70" class="edge">
<title>Node1&#45;&gt;Node41</title>
<path fill="none" stroke="midnightblue" d="M1563.96,-638.43C1421.46,-632.17 1119.44,-616.32 1018,-591 941.42,-571.88 855,-599.43 855,-520.5 855,-520.5 855,-520.5 855,-457 855,-421.93 835.16,-384.94 821.83,-364.04"/>
<polygon fill="midnightblue" stroke="midnightblue" points="824.7,-362.03 816.26,-355.63 818.87,-365.9 824.7,-362.03"/>
</g>
<!-- Node42 -->
<g id="node41" class="node">
<title>Node42</title>
<g id="a_node41"><a xlink:title=" ">
<polygon fill="white" stroke="#bfbfbf" points="1538,-571.5 1538,-590.5 1600,-590.5 1600,-571.5 1538,-571.5"/>
<text text-anchor="middle" x="1569" y="-578.5" font-family="Arial" font-size="10.00">ft2build.h</text>
</a>
</g>
</g>
<!-- Node1&#45;&gt;Node42 -->
<g id="edge75" class="edge">
<title>Node1&#45;&gt;Node42</title>
<path fill="none" stroke="midnightblue" d="M1623.17,-627.4C1612.33,-618.31 1598.22,-606.49 1587.13,-597.19"/>
<polygon fill="midnightblue" stroke="midnightblue" points="1589.24,-594.4 1579.33,-590.66 1584.75,-599.76 1589.24,-594.4"/>
</g>
<!-- Node43 -->
<g id="node42" class="node">
<title>Node43</title>
<g id="a_node42"><a xlink:title=" ">
<polygon fill="white" stroke="#bfbfbf" points="1618,-571.5 1618,-590.5 1662,-590.5 1662,-571.5 1618,-571.5"/>
<text text-anchor="middle" x="1640" y="-578.5" font-family="Arial" font-size="10.00">poll.h</text>
</a>
</g>
</g>
<!-- Node1&#45;&gt;Node43 -->
<g id="edge76" class="edge">
<title>Node1&#45;&gt;Node43</title>
<path fill="none" stroke="midnightblue" d="M1640,-627.4C1640,-619.47 1640,-609.46 1640,-600.86"/>
<polygon fill="midnightblue" stroke="midnightblue" points="1643.5,-600.66 1640,-590.66 1636.5,-600.66 1643.5,-600.66"/>
</g>
<!-- Node44 -->
<g id="node43" class="node">
<title>Node44</title>
<g id="a_node43"><a xlink:title=" ">
<polygon fill="white" stroke="#bfbfbf" points="1680.5,-571.5 1680.5,-590.5 1763.5,-590.5 1763.5,-571.5 1680.5,-571.5"/>
<text text-anchor="middle" x="1722" y="-578.5" font-family="Arial" font-size="10.00">sys/eventfd.h</text>
</a>
</g>
</g>
<!-- Node1&#45;&gt;Node44 -->
<g id="edge77" class="edge">
<title>Node1&#45;&gt;Node44</title>
<path fill="none" stroke="midnightblue" d="M1659.43,-627.4C1672.21,-618.13 1688.89,-606.03 1701.81,-596.65"/>
<polygon fill="midnightblue" stroke="midnightblue" points="1704.03,-599.36 1710.07,-590.66 1699.92,-593.7 1704.03,-599.36"/>
</g>
<!-- Node45 -->
<g id="node44" class="node">
<title>Node45</title>
<g id="a_node44"><a xlink:title=" ">
<polygon fill="white" stroke="#bfbfbf" points="1782,-571.5 1782,-590.5 1828,-590.5 1828,-571.5 1782,-571.5"/>
<text text-anchor="middle" x="1805" y="-578.5" font-family="Arial" font-size="10.00">locale</text>
</a>
</g>
</g>
<!-- Node1&#45;&gt;Node45 -->
<g id="edge78" class="edge">
<title>Node1&#45;&gt;Node45</title>
<path fill="none" stroke="midnightblue" d="M1679.1,-627.4C1707.5,-617.16 1745.48,-603.46 1772.27,-593.8"/>
<polygon fill="midnightblue" stroke="midnightblue" points="1773.73,-597 1781.95,-590.31 1771.35,-590.41 1773.73,-597"/>
</g>
<!-- Node46 -->
<g id="node45" class="node">
<title>Node46</title>
<g id="a_node45"><a xlink:title=" ">
<polygon fill="white" stroke="#bfbfbf" points="1846.5,-571.5 1846.5,-590.5 1901.5,-590.5 1901.5,-571.5 1846.5,-571.5"/>
<text text-anchor="middle" x="1874" y="-578.5" font-family="Arial" font-size="10.00">codecvt</text>
</a>
</g>
</g>
<!-- Node1&#45;&gt;Node46 -->
<g id="edge79" class="edge">
<title>Node1&#45;&gt;Node46</title>
<path fill="none" stroke="midnightblue" d="M1695.16,-627.47C1738.63,-616.42 1798.09,-601.3 1836.28,-591.59"/>
<polygon fill="midnightblue" stroke="midnightblue" points="1837.63,-594.86 1846.45,-589 1835.9,-588.08 1837.63,-594.86"/>
</g>
<!-- Node47 -->
<g id="node46" class="node">
<title>Node47</title>
<g id="a_node46"><a xlink:title=" ">
<polygon fill="white" stroke="#bfbfbf" points="1920,-571.5 1920,-590.5 1970,-590.5 1970,-571.5 1920,-571.5"/>
<text text-anchor="middle" x="1945" y="-578.5" font-family="Arial" font-size="10.00">cstring</text>
</a>
</g>
</g>
<!-- Node1&#45;&gt;Node47 -->
<g id="edge82" class="edge">
<title>Node1&#45;&gt;Node47</title>
<path fill="none" stroke="midnightblue" d="M1716.24,-628.86C1768.27,-619.87 1838.95,-606.94 1909.8,-591.14"/>
<polygon fill="midnightblue" stroke="midnightblue" points="1910.81,-594.5 1919.8,-588.89 1909.28,-587.67 1910.81,-594.5"/>
</g>
<!-- Node48 -->
<g id="node47" class="node">
<title>Node48</title>
<g id="a_node47"><a xlink:title=" ">
<polygon fill="white" stroke="#bfbfbf" points="1988,-571.5 1988,-590.5 2044,-590.5 2044,-571.5 1988,-571.5"/>
<text text-anchor="middle" x="2016" y="-578.5" font-family="Arial" font-size="10.00">sstream</text>
</a>
</g>
</g>
<!-- Node1&#45;&gt;Node48 -->
<g id="edge83" class="edge">
<title>Node1&#45;&gt;Node48</title>
<path fill="none" stroke="midnightblue" d="M1716.07,-632.18C1782.71,-623.55 1882.33,-609.54 1977.94,-591.06"/>
<polygon fill="midnightblue" stroke="midnightblue" points="1978.63,-594.5 1987.78,-589.14 1977.29,-587.62 1978.63,-594.5"/>
</g>
<!-- Node49 -->
<g id="node48" class="node">
<title>Node49</title>
<g id="a_node48"><a xlink:title=" ">
<polygon fill="white" stroke="#bfbfbf" points="2061.5,-571.5 2061.5,-590.5 2210.5,-590.5 2210.5,-571.5 2061.5,-571.5"/>
<text text-anchor="middle" x="2136" y="-578.5" font-family="Arial" font-size="10.00">boost/throw_exception.hpp</text>
</a>
</g>
</g>
<!-- Node1&#45;&gt;Node49 -->
<g id="edge84" class="edge">
<title>Node1&#45;&gt;Node49</title>
<path fill="none" stroke="midnightblue" d="M1716.14,-632.37C1807.85,-621.37 1961.23,-602.97 2055.03,-591.71"/>
<polygon fill="midnightblue" stroke="midnightblue" points="2055.53,-595.18 2065.05,-590.51 2054.7,-588.23 2055.53,-595.18"/>
</g>
<!-- Node50 -->
<g id="node49" class="node">
<title>Node50</title>
<g id="a_node49"><a xlink:title=" ">
<polygon fill="white" stroke="#bfbfbf" points="2228.5,-571.5 2228.5,-590.5 2309.5,-590.5 2309.5,-571.5 2228.5,-571.5"/>
<text text-anchor="middle" x="2269" y="-578.5" font-family="Arial" font-size="10.00">system_error</text>
</a>
</g>
</g>
<!-- Node1&#45;&gt;Node50 -->
<g id="edge85" class="edge">
<title>Node1&#45;&gt;Node50</title>
<path fill="none" stroke="midnightblue" d="M1716.26,-637.17C1825.44,-630.46 2032.75,-615.81 2218.46,-591.1"/>
<polygon fill="midnightblue" stroke="midnightblue" points="2218.96,-594.56 2228.41,-589.76 2218.03,-587.62 2218.96,-594.56"/>
</g>
<!-- Node51 -->
<g id="node50" class="node">
<title>Node51</title>
<g id="a_node50"><a xlink:title=" ">
<polygon fill="white" stroke="#bfbfbf" points="2328,-571.5 2328,-590.5 2388,-590.5 2388,-571.5 2328,-571.5"/>
<text text-anchor="middle" x="2358" y="-578.5" font-family="Arial" font-size="10.00">iostream</text>
</a>
</g>
</g>
<!-- Node1&#45;&gt;Node51 -->
<g id="edge86" class="edge">
<title>Node1&#45;&gt;Node51</title>
<path fill="none" stroke="midnightblue" d="M1716.03,-639.62C1840.18,-635.73 2094.19,-624.29 2317.9,-590.94"/>
<polygon fill="midnightblue" stroke="midnightblue" points="2318.49,-594.39 2327.85,-589.44 2317.44,-587.47 2318.49,-594.39"/>
</g>
<!-- Node3 -->
<g id="node3" class="node">
<title>Node3</title>
<g id="a_node3"><a xlink:href="window__manager__tools_8h.html" target="_top" xlink:title=" ">
<polygon fill="white" stroke="black" points="901.5,-504.5 901.5,-534.5 1032.5,-534.5 1032.5,-504.5 901.5,-504.5"/>
<text text-anchor="start" x="909.5" y="-522.5" font-family="Arial" font-size="10.00">miral/window_manager</text>
<text text-anchor="middle" x="967" y="-511.5" font-family="Arial" font-size="10.00">_tools.h</text>
</a>
</g>
</g>
<!-- Node2&#45;&gt;Node3 -->
<g id="edge2" class="edge">
<title>Node2&#45;&gt;Node3</title>
<path fill="none" stroke="midnightblue" d="M1070.66,-571.48C1053.51,-563.04 1026.7,-549.86 1004.64,-539.01"/>
<polygon fill="midnightblue" stroke="midnightblue" points="1006.04,-535.79 995.52,-534.52 1002.95,-542.08 1006.04,-535.79"/>
</g>
<!-- Node34 -->
<g id="node33" class="node">
<title>Node34</title>
<g id="a_node33"><a xlink:href="fd_8h.html" target="_top" xlink:title=" ">
<polygon fill="white" stroke="black" points="1063.5,-448.5 1063.5,-467.5 1118.5,-467.5 1118.5,-448.5 1063.5,-448.5"/>
<text text-anchor="middle" x="1091" y="-455.5" font-family="Arial" font-size="10.00">mir/fd.h</text>
</a>
</g>
</g>
<!-- Node2&#45;&gt;Node34 -->
<g id="edge55" class="edge">
<title>Node2&#45;&gt;Node34</title>
<path fill="none" stroke="midnightblue" d="M1093.13,-571.41C1098.06,-562.61 1105.16,-548.38 1108,-535 1110.86,-521.52 1110.47,-517.55 1108,-504 1106.31,-494.76 1102.83,-484.95 1099.45,-476.85"/>
<polygon fill="midnightblue" stroke="midnightblue" points="1102.63,-475.4 1095.37,-467.69 1096.24,-478.25 1102.63,-475.4"/>
</g>
<!-- Node35 -->
<g id="node34" class="node">
<title>Node35</title>
<g id="a_node34"><a xlink:title=" ">
<polygon fill="white" stroke="#bfbfbf" points="1051,-510 1051,-529 1099,-529 1099,-510 1051,-510"/>
<text text-anchor="middle" x="1075" y="-517" font-family="Arial" font-size="10.00">mutex</text>
</a>
</g>
</g>
<!-- Node2&#45;&gt;Node35 -->
<g id="edge57" class="edge">
<title>Node2&#45;&gt;Node35</title>
<path fill="none" stroke="midnightblue" d="M1086.14,-571.48C1084.28,-562.99 1081.38,-549.7 1079,-538.82"/>
<polygon fill="midnightblue" stroke="midnightblue" points="1082.41,-538.03 1076.86,-529.01 1075.57,-539.53 1082.41,-538.03"/>
</g>
<!-- Node4 -->
<g id="node4" class="node">
<title>Node4</title>
<g id="a_node4"><a xlink:href="application_8h.html" target="_top" xlink:title=" ">
<polygon fill="white" stroke="black" points="913,-336.5 913,-355.5 1021,-355.5 1021,-336.5 913,-336.5"/>
<text text-anchor="middle" x="967" y="-343.5" font-family="Arial" font-size="10.00">miral/application.h</text>
</a>
</g>
</g>
<!-- Node3&#45;&gt;Node4 -->
<g id="edge3" class="edge">
<title>Node3&#45;&gt;Node4</title>
<path fill="none" stroke="midnightblue" d="M967,-504.47C967,-473.7 967,-400.33 967,-365.7"/>
<polygon fill="midnightblue" stroke="midnightblue" points="970.5,-365.56 967,-355.56 963.5,-365.56 970.5,-365.56"/>
</g>
<!-- Node6 -->
<g id="node6" class="node">
<title>Node6</title>
<g id="a_node6"><a xlink:title=" ">
<polygon fill="white" stroke="#bfbfbf" points="938,-280.5 938,-299.5 996,-299.5 996,-280.5 938,-280.5"/>
<text text-anchor="middle" x="967" y="-287.5" font-family="Arial" font-size="10.00">memory</text>
</a>
</g>
</g>
<!-- Node3&#45;&gt;Node6 -->
<g id="edge54" class="edge">
<title>Node3&#45;&gt;Node6</title>
<path fill="none" stroke="midnightblue" d="M974.62,-504.25C988.91,-476.61 1019.26,-413.4 1030,-356 1031.63,-347.26 1034.07,-343.9 1030,-336 1022.92,-322.25 1009.48,-311.77 996.82,-304.39"/>
<polygon fill="midnightblue" stroke="midnightblue" points="998.31,-301.22 987.85,-299.57 995,-307.39 998.31,-301.22"/>
</g>
<!-- Node8 -->
<g id="node8" class="node">
<title>Node8</title>
<g id="a_node8"><a xlink:href="window__info_8h.html" target="_top" xlink:title=" ">
<polygon fill="white" stroke="black" points="524.5,-448.5 524.5,-467.5 611.5,-467.5 611.5,-448.5 524.5,-448.5"/>
<text text-anchor="middle" x="568" y="-455.5" font-family="Arial" font-size="10.00">window_info.h</text>
</a>
</g>
</g>
<!-- Node3&#45;&gt;Node8 -->
<g id="edge7" class="edge">
<title>Node3&#45;&gt;Node8</title>
<path fill="none" stroke="midnightblue" d="M901.11,-508.67C823.06,-497.03 694.49,-477.86 622.03,-467.06"/>
<polygon fill="midnightblue" stroke="midnightblue" points="622.16,-463.54 611.76,-465.53 621.13,-470.46 622.16,-463.54"/>
</g>
<!-- Node21 -->
<g id="node21" class="node">
<title>Node21</title>
<g id="a_node21"><a xlink:href="displacement_8h.html" target="_top" xlink:title=" ">
<polygon fill="white" stroke="black" points="311.5,-224.5 311.5,-243.5 472.5,-243.5 472.5,-224.5 311.5,-224.5"/>
<text text-anchor="middle" x="392" y="-231.5" font-family="Arial" font-size="10.00">mir/geometry/displacement.h</text>
</a>
</g>
</g>
<!-- Node3&#45;&gt;Node21 -->
<g id="edge52" class="edge">
<title>Node3&#45;&gt;Node21</title>
<path fill="none" stroke="midnightblue" d="M901.29,-517.57C683.65,-513.62 0,-493.98 0,-403 0,-403 0,-403 0,-345 0,-306.58 23.14,-298.16 57,-280 98,-258.02 216.72,-246 301.16,-240.04"/>
<polygon fill="midnightblue" stroke="midnightblue" points="301.54,-243.52 311.28,-239.34 301.06,-236.54 301.54,-243.52"/>
</g>
<!-- Node32 -->
<g id="node31" class="node">
<title>Node32</title>
<g id="a_node31"><a xlink:title=" ">
<polygon fill="white" stroke="#bfbfbf" points="1325.5,-280.5 1325.5,-299.5 1390.5,-299.5 1390.5,-280.5 1325.5,-280.5"/>
<text text-anchor="middle" x="1358" y="-287.5" font-family="Arial" font-size="10.00">functional</text>
</a>
</g>
</g>
<!-- Node3&#45;&gt;Node32 -->
<g id="edge53" class="edge">
<title>Node3&#45;&gt;Node32</title>
<path fill="none" stroke="midnightblue" d="M1032.72,-505.39C1062.9,-497.5 1098.27,-485.51 1127,-468 1197.57,-424.98 1190.07,-383.08 1258,-336 1278.04,-322.11 1303.05,-310.86 1323.04,-303.08"/>
<polygon fill="midnightblue" stroke="midnightblue" points="1324.29,-306.35 1332.41,-299.54 1321.82,-299.8 1324.29,-306.35"/>
</g>
<!-- Node5 -->
<g id="node5" class="node">
<title>Node5</title>
<g id="a_node5"><a xlink:href="common_8h.html" target="_top" xlink:title=" ">
<polygon fill="white" stroke="black" points="580.5,-280.5 580.5,-299.5 705.5,-299.5 705.5,-280.5 580.5,-280.5"/>
<text text-anchor="middle" x="643" y="-287.5" font-family="Arial" font-size="10.00">mir_toolkit/common.h</text>
</a>
</g>
</g>
<!-- Node4&#45;&gt;Node5 -->
<g id="edge4" class="edge">
<title>Node4&#45;&gt;Node5</title>
<path fill="none" stroke="midnightblue" d="M915.66,-336.44C858.19,-326.87 765.13,-311.36 704,-301.17"/>
<polygon fill="midnightblue" stroke="midnightblue" points="704.54,-297.71 694.1,-299.52 703.39,-304.61 704.54,-297.71"/>
</g>
<!-- Node4&#45;&gt;Node6 -->
<g id="edge5" class="edge">
<title>Node4&#45;&gt;Node6</title>
<path fill="none" stroke="midnightblue" d="M967,-336.08C967,-329.01 967,-318.86 967,-309.99"/>
<polygon fill="midnightblue" stroke="midnightblue" points="970.5,-309.75 967,-299.75 963.5,-309.75 970.5,-309.75"/>
</g>
<!-- Node4&#45;&gt;Node7 -->
<g id="edge6" class="edge">
<title>Node4&#45;&gt;Node7</title>
<path fill="none" stroke="midnightblue" d="M984.03,-336.32C1001.03,-327.66 1027.38,-314.24 1046.99,-304.25"/>
<polygon fill="midnightblue" stroke="midnightblue" points="1048.69,-307.31 1056.01,-299.65 1045.51,-301.08 1048.69,-307.31"/>
</g>
<!-- Node9 -->
<g id="node9" class="node">
<title>Node9</title>
<g id="a_node9"><a xlink:href="window_8h.html" target="_top" xlink:title=" ">
<polygon fill="white" stroke="black" points="718.5,-392.5 718.5,-411.5 809.5,-411.5 809.5,-392.5 718.5,-392.5"/>
<text text-anchor="middle" x="764" y="-399.5" font-family="Arial" font-size="10.00">miral/window.h</text>
</a>
</g>
</g>
<!-- Node8&#45;&gt;Node9 -->
<g id="edge8" class="edge">
<title>Node8&#45;&gt;Node9</title>
<path fill="none" stroke="midnightblue" d="M599.06,-448.44C632.6,-439.2 686.2,-424.44 723.14,-414.26"/>
<polygon fill="midnightblue" stroke="midnightblue" points="724.38,-417.55 733.09,-411.52 722.52,-410.8 724.38,-417.55"/>
</g>
<!-- Node20 -->
<g id="node20" class="node">
<title>Node20</title>
<g id="a_node20"><a xlink:href="window__specification_8h.html" target="_top" xlink:title=" ">
<polygon fill="white" stroke="black" points="542,-392.5 542,-411.5 700,-411.5 700,-392.5 542,-392.5"/>
<text text-anchor="middle" x="621" y="-399.5" font-family="Arial" font-size="10.00">miral/window_specification.h</text>
</a>
</g>
</g>
<!-- Node8&#45;&gt;Node20 -->
<g id="edge25" class="edge">
<title>Node8&#45;&gt;Node20</title>
<path fill="none" stroke="midnightblue" d="M576.75,-448.08C584.47,-440.22 595.9,-428.57 605.22,-419.08"/>
<polygon fill="midnightblue" stroke="midnightblue" points="607.9,-421.34 612.41,-411.75 602.91,-416.44 607.9,-421.34"/>
</g>
<!-- Node23 -->
<g id="node23" class="node">
<title>Node23</title>
<g id="a_node23"><a xlink:href="rectangles_8h.html" target="_top" xlink:title=" ">
<polygon fill="white" stroke="black" points="163,-336.5 163,-355.5 309,-355.5 309,-336.5 163,-336.5"/>
<text text-anchor="middle" x="236" y="-343.5" font-family="Arial" font-size="10.00">mir/geometry/rectangles.h</text>
</a>
</g>
</g>
<!-- Node8&#45;&gt;Node23 -->
<g id="edge49" class="edge">
<title>Node8&#45;&gt;Node23</title>
<path fill="none" stroke="midnightblue" d="M556.34,-448.41C536.81,-434.43 495.8,-406.84 457,-392 412.48,-374.97 360.32,-363.96 317.86,-357.1"/>
<polygon fill="midnightblue" stroke="midnightblue" points="318.27,-353.62 307.85,-355.53 317.18,-360.53 318.27,-353.62"/>
</g>
<!-- Node28 -->
<g id="node27" class="node">
<title>Node28</title>
<g id="a_node27"><a xlink:href="optional__value_8h.html" target="_top" xlink:title=" ">
<polygon fill="white" stroke="black" points="462.5,-336.5 462.5,-355.5 579.5,-355.5 579.5,-336.5 462.5,-336.5"/>
<text text-anchor="middle" x="521" y="-343.5" font-family="Arial" font-size="10.00">mir/optional_value.h</text>
</a>
</g>
</g>
<!-- Node8&#45;&gt;Node28 -->
<g id="edge50" class="edge">
<title>Node8&#45;&gt;Node28</title>
<path fill="none" stroke="midnightblue" d="M559.04,-448.21C550.94,-439.72 539.32,-426.09 533,-412 526.46,-397.42 523.48,-379.48 522.13,-366.14"/>
<polygon fill="midnightblue" stroke="midnightblue" points="525.59,-365.49 521.31,-355.8 518.61,-366.05 525.59,-365.49"/>
</g>
<!-- Node33 -->
<g id="node32" class="node">
<title>Node33</title>
<g id="a_node32"><a xlink:title=" ">
<polygon fill="white" stroke="#bfbfbf" points="384,-392.5 384,-411.5 448,-411.5 448,-392.5 384,-392.5"/>
<text text-anchor="middle" x="416" y="-399.5" font-family="Arial" font-size="10.00">algorithm</text>
</a>
</g>
</g>
<!-- Node8&#45;&gt;Node33 -->
<g id="edge51" class="edge">
<title>Node8&#45;&gt;Node33</title>
<path fill="none" stroke="midnightblue" d="M543.92,-448.44C518.46,-439.4 478.11,-425.06 449.54,-414.92"/>
<polygon fill="midnightblue" stroke="midnightblue" points="450.57,-411.57 439.97,-411.52 448.22,-418.16 450.57,-411.57"/>
</g>
<!-- Node9&#45;&gt;Node4 -->
<g id="edge9" class="edge">
<title>Node9&#45;&gt;Node4</title>
<path fill="none" stroke="midnightblue" d="M796.17,-392.44C831.06,-383.16 886.89,-368.31 925.17,-358.13"/>
<polygon fill="midnightblue" stroke="midnightblue" points="926.22,-361.47 934.98,-355.52 924.42,-354.7 926.22,-361.47"/>
</g>
<!-- Node9&#45;&gt;Node6 -->
<g id="edge24" class="edge">
<title>Node9&#45;&gt;Node6</title>
<path fill="none" stroke="midnightblue" d="M785.72,-392.42C806.48,-383.96 838.45,-370.27 865,-356 894.19,-340.31 926.16,-319.26 946.38,-305.42"/>
<polygon fill="midnightblue" stroke="midnightblue" points="948.55,-308.18 954.8,-299.62 944.58,-302.42 948.55,-308.18"/>
</g>
<!-- Node10 -->
<g id="node10" class="node">
<title>Node10</title>
<g id="a_node10"><a xlink:href="point_8h.html" target="_top" xlink:title=" ">
<polygon fill="white" stroke="black" points="332,-168.5 332,-187.5 452,-187.5 452,-168.5 332,-168.5"/>
<text text-anchor="middle" x="392" y="-175.5" font-family="Arial" font-size="10.00">mir/geometry/point.h</text>
</a>
</g>
</g>
<!-- Node9&#45;&gt;Node10 -->
<g id="edge10" class="edge">
<title>Node9&#45;&gt;Node10</title>
<path fill="none" stroke="midnightblue" d="M760.86,-392.23C751.34,-365.78 722.88,-288.14 714,-280 644.09,-215.98 533.93,-192.54 462.32,-183.96"/>
<polygon fill="midnightblue" stroke="midnightblue" points="462.38,-180.44 452.05,-182.8 461.59,-187.4 462.38,-180.44"/>
</g>
<!-- Node18 -->
<g id="node18" class="node">
<title>Node18</title>
<g id="a_node18"><a xlink:href="size_8h.html" target="_top" xlink:title=" ">
<polygon fill="white" stroke="black" points="695.5,-168.5 695.5,-187.5 810.5,-187.5 810.5,-168.5 695.5,-168.5"/>
<text text-anchor="middle" x="753" y="-175.5" font-family="Arial" font-size="10.00">mir/geometry/size.h</text>
</a>
</g>
</g>
<!-- Node9&#45;&gt;Node18 -->
<g id="edge19" class="edge">
<title>Node9&#45;&gt;Node18</title>
<path fill="none" stroke="midnightblue" d="M761.53,-392.47C759.07,-383.48 755.45,-368.88 754,-356 747.54,-298.62 750.02,-230.1 751.8,-197.72"/>
<polygon fill="midnightblue" stroke="midnightblue" points="755.31,-197.7 752.41,-187.51 748.32,-197.29 755.31,-197.7"/>
</g>
<!-- Node11 -->
<g id="node11" class="node">
<title>Node11</title>
<g id="a_node11"><a xlink:href="point__generic_8h.html" target="_top" xlink:title=" ">
<polygon fill="white" stroke="black" points="346,-112.5 346,-131.5 438,-131.5 438,-112.5 346,-112.5"/>
<text text-anchor="middle" x="392" y="-119.5" font-family="Arial" font-size="10.00">point_generic.h</text>
</a>
</g>
</g>
<!-- Node10&#45;&gt;Node11 -->
<g id="edge11" class="edge">
<title>Node10&#45;&gt;Node11</title>
<path fill="none" stroke="midnightblue" d="M392,-168.08C392,-161.01 392,-150.86 392,-141.99"/>
<polygon fill="midnightblue" stroke="midnightblue" points="395.5,-141.75 392,-131.75 388.5,-141.75 395.5,-141.75"/>
</g>
<!-- Node16 -->
<g id="node16" class="node">
<title>Node16</title>
<g id="a_node16"><a xlink:href="dimensions_8h.html" target="_top" xlink:title=" ">
<polygon fill="white" stroke="black" points="712,-112.5 712,-131.5 794,-131.5 794,-112.5 712,-112.5"/>
<text text-anchor="middle" x="753" y="-119.5" font-family="Arial" font-size="10.00">dimensions.h</text>
</a>
</g>
</g>
<!-- Node10&#45;&gt;Node16 -->
<g id="edge16" class="edge">
<title>Node10&#45;&gt;Node16</title>
<path fill="none" stroke="midnightblue" d="M452,-168.94C512.5,-160.68 608.83,-147.13 701.68,-132.17"/>
<polygon fill="midnightblue" stroke="midnightblue" points="702.51,-135.58 711.82,-130.53 701.39,-128.67 702.51,-135.58"/>
</g>
<!-- Node12 -->
<g id="node12" class="node">
<title>Node12</title>
<g id="a_node12"><a xlink:href="dimensions__generic_8h.html" target="_top" xlink:title=" ">
<polygon fill="white" stroke="black" points="589.5,-56.5 589.5,-75.5 712.5,-75.5 712.5,-56.5 589.5,-56.5"/>
<text text-anchor="middle" x="651" y="-63.5" font-family="Arial" font-size="10.00">dimensions_generic.h</text>
</a>
</g>
</g>
<!-- Node11&#45;&gt;Node12 -->
<g id="edge12" class="edge">
<title>Node11&#45;&gt;Node12</title>
<path fill="none" stroke="midnightblue" d="M433.04,-112.44C478.32,-103 551.23,-87.8 600.11,-77.61"/>
<polygon fill="midnightblue" stroke="midnightblue" points="601.08,-80.98 610.15,-75.52 599.65,-74.13 601.08,-80.98"/>
</g>
<!-- Node15 -->
<g id="node15" class="node">
<title>Node15</title>
<g id="a_node15"><a xlink:title=" ">
<polygon fill="white" stroke="#bfbfbf" points="494.5,-56.5 494.5,-75.5 551.5,-75.5 551.5,-56.5 494.5,-56.5"/>
<text text-anchor="middle" x="523" y="-63.5" font-family="Arial" font-size="10.00">ostream</text>
</a>
</g>
</g>
<!-- Node11&#45;&gt;Node15 -->
<g id="edge15" class="edge">
<title>Node11&#45;&gt;Node15</title>
<path fill="none" stroke="midnightblue" d="M412.76,-112.44C434.32,-103.56 468.26,-89.56 492.79,-79.45"/>
<polygon fill="midnightblue" stroke="midnightblue" points="494.43,-82.56 502.34,-75.52 491.76,-76.09 494.43,-82.56"/>
</g>
<!-- Node13 -->
<g id="node13" class="node">
<title>Node13</title>
<g id="a_node13"><a xlink:title=" ">
<polygon fill="white" stroke="#bfbfbf" points="979,-0.5 979,-19.5 1027,-19.5 1027,-0.5 979,-0.5"/>
<text text-anchor="middle" x="1003" y="-7.5" font-family="Arial" font-size="10.00">iosfwd</text>
</a>
</g>
</g>
<!-- Node12&#45;&gt;Node13 -->
<g id="edge13" class="edge">
<title>Node12&#45;&gt;Node13</title>
<path fill="none" stroke="midnightblue" d="M706.78,-56.44C780.29,-45.17 907.42,-25.66 968.4,-16.31"/>
<polygon fill="midnightblue" stroke="midnightblue" points="969.29,-19.71 978.65,-14.74 968.23,-12.79 969.29,-19.71"/>
</g>
<!-- Node14 -->
<g id="node14" class="node">
<title>Node14</title>
<g id="a_node14"><a xlink:title=" ">
<polygon fill="white" stroke="#bfbfbf" points="616.5,-0.5 616.5,-19.5 685.5,-19.5 685.5,-0.5 616.5,-0.5"/>
<text text-anchor="middle" x="651" y="-7.5" font-family="Arial" font-size="10.00">type_traits</text>
</a>
</g>
</g>
<!-- Node12&#45;&gt;Node14 -->
<g id="edge14" class="edge">
<title>Node12&#45;&gt;Node14</title>
<path fill="none" stroke="midnightblue" d="M651,-56.08C651,-49.01 651,-38.86 651,-29.99"/>
<polygon fill="midnightblue" stroke="midnightblue" points="654.5,-29.75 651,-19.75 647.5,-29.75 654.5,-29.75"/>
</g>
<!-- Node16&#45;&gt;Node12 -->
<g id="edge17" class="edge">
<title>Node16&#45;&gt;Node12</title>
<path fill="none" stroke="midnightblue" d="M736.61,-112.32C720.33,-103.7 695.13,-90.36 676.28,-80.39"/>
<polygon fill="midnightblue" stroke="midnightblue" points="677.82,-77.24 667.35,-75.65 674.55,-83.43 677.82,-77.24"/>
</g>
<!-- Node17 -->
<g id="node17" class="node">
<title>Node17</title>
<g id="a_node17"><a xlink:title=" ">
<polygon fill="white" stroke="#bfbfbf" points="955,-56.5 955,-75.5 1005,-75.5 1005,-56.5 955,-56.5"/>
<text text-anchor="middle" x="980" y="-63.5" font-family="Arial" font-size="10.00">cstdint</text>
</a>
</g>
</g>
<!-- Node16&#45;&gt;Node17 -->
<g id="edge18" class="edge">
<title>Node16&#45;&gt;Node17</title>
<path fill="none" stroke="midnightblue" d="M788.97,-112.44C831.7,-102.28 902.52,-85.43 944.88,-75.36"/>
<polygon fill="midnightblue" stroke="midnightblue" points="945.82,-78.73 954.74,-73.01 944.2,-71.92 945.82,-78.73"/>
</g>
<!-- Node18&#45;&gt;Node16 -->
<g id="edge23" class="edge">
<title>Node18&#45;&gt;Node16</title>
<path fill="none" stroke="midnightblue" d="M753,-168.08C753,-161.01 753,-150.86 753,-141.99"/>
<polygon fill="midnightblue" stroke="midnightblue" points="756.5,-141.75 753,-131.75 749.5,-141.75 756.5,-141.75"/>
</g>
<!-- Node19 -->
<g id="node19" class="node">
<title>Node19</title>
<g id="a_node19"><a xlink:href="size__generic_8h.html" target="_top" xlink:title=" ">
<polygon fill="white" stroke="black" points="608,-112.5 608,-131.5 694,-131.5 694,-112.5 608,-112.5"/>
<text text-anchor="middle" x="651" y="-119.5" font-family="Arial" font-size="10.00">size_generic.h</text>
</a>
</g>
</g>
<!-- Node18&#45;&gt;Node19 -->
<g id="edge20" class="edge">
<title>Node18&#45;&gt;Node19</title>
<path fill="none" stroke="midnightblue" d="M736.61,-168.32C720.33,-159.7 695.13,-146.36 676.28,-136.39"/>
<polygon fill="midnightblue" stroke="midnightblue" points="677.82,-133.24 667.35,-131.65 674.55,-139.43 677.82,-133.24"/>
</g>
<!-- Node19&#45;&gt;Node12 -->
<g id="edge21" class="edge">
<title>Node19&#45;&gt;Node12</title>
<path fill="none" stroke="midnightblue" d="M651,-112.08C651,-105.01 651,-94.86 651,-85.99"/>
<polygon fill="midnightblue" stroke="midnightblue" points="654.5,-85.75 651,-75.75 647.5,-85.75 654.5,-85.75"/>
</g>
<!-- Node19&#45;&gt;Node15 -->
<g id="edge22" class="edge">
<title>Node19&#45;&gt;Node15</title>
<path fill="none" stroke="midnightblue" d="M630.72,-112.44C609.65,-103.56 576.48,-89.56 552.51,-79.45"/>
<polygon fill="midnightblue" stroke="midnightblue" points="553.76,-76.18 543.19,-75.52 551.04,-82.63 553.76,-76.18"/>
</g>
<!-- Node20&#45;&gt;Node5 -->
<g id="edge26" class="edge">
<title>Node20&#45;&gt;Node5</title>
<path fill="none" stroke="midnightblue" d="M622.73,-392.37C626.28,-374.62 634.47,-333.67 639.28,-309.6"/>
<polygon fill="midnightblue" stroke="midnightblue" points="642.75,-310.08 641.28,-299.59 635.89,-308.71 642.75,-310.08"/>
</g>
<!-- Node20&#45;&gt;Node6 -->
<g id="edge48" class="edge">
<title>Node20&#45;&gt;Node6</title>
<path fill="none" stroke="midnightblue" d="M635.64,-392.34C659.61,-378.53 709.04,-351.47 754,-336 812.93,-315.72 884.32,-302.9 927.67,-296.34"/>
<polygon fill="midnightblue" stroke="midnightblue" points="928.41,-299.76 937.8,-294.84 927.39,-292.84 928.41,-299.76"/>
</g>
<!-- Node20&#45;&gt;Node21 -->
<g id="edge27" class="edge">
<title>Node20&#45;&gt;Node21</title>
<path fill="none" stroke="midnightblue" d="M541.95,-396.37C478.13,-387.8 393.05,-364.17 356,-300 346.4,-283.38 360.12,-264.12 373.3,-250.9"/>
<polygon fill="midnightblue" stroke="midnightblue" points="375.89,-253.27 380.81,-243.89 371.12,-248.15 375.89,-253.27"/>
</g>
<!-- Node20&#45;&gt;Node23 -->
<g id="edge34" class="edge">
<title>Node20&#45;&gt;Node23</title>
<path fill="none" stroke="midnightblue" d="M560,-392.44C491.14,-382.79 379.3,-367.1 306.7,-356.92"/>
<polygon fill="midnightblue" stroke="midnightblue" points="307.11,-353.44 296.72,-355.52 306.14,-360.37 307.11,-353.44"/>
</g>
<!-- Node20&#45;&gt;Node28 -->
<g id="edge42" class="edge">
<title>Node20&#45;&gt;Node28</title>
<path fill="none" stroke="midnightblue" d="M604.93,-392.32C589.04,-383.74 564.49,-370.49 546.04,-360.52"/>
<polygon fill="midnightblue" stroke="midnightblue" points="547.49,-357.33 537.03,-355.65 544.16,-363.49 547.49,-357.33"/>
</g>
<!-- Node31 -->
<g id="node30" class="node">
<title>Node31</title>
<g id="a_node30"><a xlink:href="int__wrapper_8h.html" target="_top" xlink:title=" ">
<polygon fill="white" stroke="black" points="1267,-336.5 1267,-355.5 1369,-355.5 1369,-336.5 1267,-336.5"/>
<text text-anchor="middle" x="1318" y="-343.5" font-family="Arial" font-size="10.00">mir/int_wrapper.h</text>
</a>
</g>
</g>
<!-- Node20&#45;&gt;Node31 -->
<g id="edge45" class="edge">
<title>Node20&#45;&gt;Node31</title>
<path fill="none" stroke="midnightblue" d="M700.14,-392.8C703.13,-392.52 706.09,-392.26 709,-392 909.01,-374.39 1146.4,-358.2 1256.39,-350.98"/>
<polygon fill="midnightblue" stroke="midnightblue" points="1256.88,-354.45 1266.63,-350.31 1256.42,-347.47 1256.88,-354.45"/>
</g>
<!-- Node21&#45;&gt;Node10 -->
<g id="edge32" class="edge">
<title>Node21&#45;&gt;Node10</title>
<path fill="none" stroke="midnightblue" d="M392,-224.08C392,-217.01 392,-206.86 392,-197.99"/>
<polygon fill="midnightblue" stroke="midnightblue" points="395.5,-197.75 392,-187.75 388.5,-197.75 395.5,-197.75"/>
</g>
<!-- Node21&#45;&gt;Node16 -->
<g id="edge31" class="edge">
<title>Node21&#45;&gt;Node16</title>
<path fill="none" stroke="midnightblue" d="M420.03,-224.46C484.26,-204.89 642.19,-156.77 715.04,-134.57"/>
<polygon fill="midnightblue" stroke="midnightblue" points="716.2,-137.87 724.74,-131.61 714.16,-131.18 716.2,-137.87"/>
</g>
<!-- Node21&#45;&gt;Node18 -->
<g id="edge33" class="edge">
<title>Node21&#45;&gt;Node18</title>
<path fill="none" stroke="midnightblue" d="M449.2,-224.44C513.5,-214.83 617.78,-199.23 685.87,-189.04"/>
<polygon fill="midnightblue" stroke="midnightblue" points="686.69,-192.46 696.07,-187.52 685.66,-185.53 686.69,-192.46"/>
</g>
<!-- Node22 -->
<g id="node22" class="node">
<title>Node22</title>
<g id="a_node22"><a xlink:href="displacement__generic_8h.html" target="_top" xlink:title=" ">
<polygon fill="white" stroke="black" points="456.5,-112.5 456.5,-131.5 589.5,-131.5 589.5,-112.5 456.5,-112.5"/>
<text text-anchor="middle" x="523" y="-119.5" font-family="Arial" font-size="10.00">displacement_generic.h</text>
</a>
</g>
</g>
<!-- Node21&#45;&gt;Node22 -->
<g id="edge28" class="edge">
<title>Node21&#45;&gt;Node22</title>
<path fill="none" stroke="midnightblue" d="M407.23,-224.45C421.69,-216.03 443.73,-202.35 461,-188 479.08,-172.98 497.36,-153.11 509.34,-139.32"/>
<polygon fill="midnightblue" stroke="midnightblue" points="512.09,-141.48 515.92,-131.61 506.77,-136.94 512.09,-141.48"/>
</g>
<!-- Node22&#45;&gt;Node12 -->
<g id="edge29" class="edge">
<title>Node22&#45;&gt;Node12</title>
<path fill="none" stroke="midnightblue" d="M543.28,-112.44C564.35,-103.56 597.52,-89.56 621.49,-79.45"/>
<polygon fill="midnightblue" stroke="midnightblue" points="622.96,-82.63 630.81,-75.52 620.24,-76.18 622.96,-82.63"/>
</g>
<!-- Node22&#45;&gt;Node15 -->
<g id="edge30" class="edge">
<title>Node22&#45;&gt;Node15</title>
<path fill="none" stroke="midnightblue" d="M523,-112.08C523,-105.01 523,-94.86 523,-85.99"/>
<polygon fill="midnightblue" stroke="midnightblue" points="526.5,-85.75 523,-75.75 519.5,-85.75 526.5,-85.75"/>
</g>
<!-- Node23&#45;&gt;Node10 -->
<g id="edge35" class="edge">
<title>Node23&#45;&gt;Node10</title>
<path fill="none" stroke="midnightblue" d="M162.8,-342.08C100.62,-336.72 25.99,-321.73 57,-280 89.31,-236.51 239.24,-204.59 327.19,-189.23"/>
<polygon fill="midnightblue" stroke="midnightblue" points="327.81,-192.68 337.07,-187.53 326.62,-185.78 327.81,-192.68"/>
</g>
<!-- Node24 -->
<g id="node24" class="node">
<title>Node24</title>
<g id="a_node24"><a xlink:href="rectangle_8h.html" target="_top" xlink:title=" ">
<polygon fill="white" stroke="red" points="167.5,-280.5 167.5,-299.5 308.5,-299.5 308.5,-280.5 167.5,-280.5"/>
<text text-anchor="middle" x="238" y="-287.5" font-family="Arial" font-size="10.00">mir/geometry/rectangle.h</text>
</a>
</g>
</g>
<!-- Node23&#45;&gt;Node24 -->
<g id="edge36" class="edge">
<title>Node23&#45;&gt;Node24</title>
<path fill="none" stroke="midnightblue" d="M236.33,-336.08C236.59,-329.01 236.97,-318.86 237.3,-309.99"/>
<polygon fill="midnightblue" stroke="midnightblue" points="240.8,-309.87 237.68,-299.75 233.81,-309.61 240.8,-309.87"/>
</g>
<!-- Node26 -->
<g id="node25" class="node">
<title>Node26</title>
<g id="a_node25"><a xlink:title=" ">
<polygon fill="white" stroke="#bfbfbf" points="365.5,-280.5 365.5,-299.5 412.5,-299.5 412.5,-280.5 365.5,-280.5"/>
<text text-anchor="middle" x="389" y="-287.5" font-family="Arial" font-size="10.00">vector</text>
</a>
</g>
</g>
<!-- Node23&#45;&gt;Node26 -->
<g id="edge40" class="edge">
<title>Node23&#45;&gt;Node26</title>
<path fill="none" stroke="midnightblue" d="M260.24,-336.44C286.02,-327.35 326.96,-312.9 355.74,-302.74"/>
<polygon fill="midnightblue" stroke="midnightblue" points="357.11,-305.97 365.37,-299.34 354.78,-299.37 357.11,-305.97"/>
</g>
<!-- Node27 -->
<g id="node26" class="node">
<title>Node27</title>
<g id="a_node26"><a xlink:title=" ">
<polygon fill="white" stroke="#bfbfbf" points="66.5,-280.5 66.5,-299.5 149.5,-299.5 149.5,-280.5 66.5,-280.5"/>
<text text-anchor="middle" x="108" y="-287.5" font-family="Arial" font-size="10.00">initializer_list</text>
</a>
</g>
</g>
<!-- Node23&#45;&gt;Node27 -->
<g id="edge41" class="edge">
<title>Node23&#45;&gt;Node27</title>
<path fill="none" stroke="midnightblue" d="M215.72,-336.44C194.65,-327.56 161.48,-313.56 137.51,-303.45"/>
<polygon fill="midnightblue" stroke="midnightblue" points="138.76,-300.18 128.19,-299.52 136.04,-306.63 138.76,-300.18"/>
</g>
<!-- Node24&#45;&gt;Node10 -->
<g id="edge37" class="edge">
<title>Node24&#45;&gt;Node10</title>
<path fill="none" stroke="midnightblue" d="M245.11,-280.09C256.17,-266.65 278.68,-240.94 302,-224 320.12,-210.83 342.68,-199.56 360.67,-191.59"/>
<polygon fill="midnightblue" stroke="midnightblue" points="362.34,-194.69 370.14,-187.52 359.57,-188.26 362.34,-194.69"/>
</g>
<!-- Node24&#45;&gt;Node18 -->
<g id="edge38" class="edge">
<title>Node24&#45;&gt;Node18</title>
<path fill="none" stroke="midnightblue" d="M288.41,-280.44C337.66,-271.9 414.68,-258.05 481,-244 562.21,-226.79 656.28,-203.57 709.8,-190.05"/>
<polygon fill="midnightblue" stroke="midnightblue" points="710.79,-193.41 719.63,-187.56 709.07,-186.62 710.79,-193.41"/>
</g>
<!-- Node24&#45;&gt;Node21 -->
<g id="edge39" class="edge">
<title>Node24&#45;&gt;Node21</title>
<path fill="none" stroke="midnightblue" d="M262.4,-280.44C288.2,-271.4 329.08,-257.06 358.02,-246.92"/>
<polygon fill="midnightblue" stroke="midnightblue" points="359.43,-250.13 367.71,-243.52 357.12,-243.52 359.43,-250.13"/>
</g>
<!-- Node29 -->
<g id="node28" class="node">
<title>Node29</title>
<g id="a_node28"><a xlink:href="fatal_8h.html" target="_top" xlink:title=" ">
<polygon fill="white" stroke="black" points="494,-280.5 494,-299.5 562,-299.5 562,-280.5 494,-280.5"/>
<text text-anchor="middle" x="528" y="-287.5" font-family="Arial" font-size="10.00">mir/fatal.h</text>
</a>
</g>
</g>
<!-- Node28&#45;&gt;Node29 -->
<g id="edge43" class="edge">
<title>Node28&#45;&gt;Node29</title>
<path fill="none" stroke="midnightblue" d="M522.16,-336.08C523.08,-328.93 524.42,-318.64 525.58,-309.69"/>
<polygon fill="midnightblue" stroke="midnightblue" points="529.05,-310.12 526.87,-299.75 522.11,-309.22 529.05,-310.12"/>
</g>
<!-- Node30 -->
<g id="node29" class="node">
<title>Node30</title>
<g id="a_node29"><a xlink:title=" ">
<polygon fill="white" stroke="#bfbfbf" points="430.5,-280.5 430.5,-299.5 475.5,-299.5 475.5,-280.5 430.5,-280.5"/>
<text text-anchor="middle" x="453" y="-287.5" font-family="Arial" font-size="10.00">utility</text>
</a>
</g>
</g>
<!-- Node28&#45;&gt;Node30 -->
<g id="edge44" class="edge">
<title>Node28&#45;&gt;Node30</title>
<path fill="none" stroke="midnightblue" d="M510.07,-336.32C499.83,-328.18 484.28,-315.84 472,-306.09"/>
<polygon fill="midnightblue" stroke="midnightblue" points="474.13,-303.31 464.12,-299.83 469.78,-308.79 474.13,-303.31"/>
</g>
<!-- Node31&#45;&gt;Node13 -->
<g id="edge46" class="edge">
<title>Node31&#45;&gt;Node13</title>
<path fill="none" stroke="midnightblue" d="M1315.17,-336.27C1309.44,-317.79 1297,-273.3 1297,-235 1297,-235 1297,-235 1297,-121 1297,-66.09 1114.82,-29.46 1037.28,-16.36"/>
<polygon fill="midnightblue" stroke="midnightblue" points="1037.5,-12.85 1027.06,-14.67 1036.35,-19.76 1037.5,-12.85"/>
</g>
<!-- Node31&#45;&gt;Node32 -->
<g id="edge47" class="edge">
<title>Node31&#45;&gt;Node32</title>
<path fill="none" stroke="midnightblue" d="M1324.61,-336.08C1330.26,-328.46 1338.54,-317.26 1345.45,-307.94"/>
<polygon fill="midnightblue" stroke="midnightblue" points="1348.38,-309.87 1351.52,-299.75 1342.75,-305.7 1348.38,-309.87"/>
</g>
<!-- Node34&#45;&gt;Node6 -->
<g id="edge56" class="edge">
<title>Node34&#45;&gt;Node6</title>
<path fill="none" stroke="midnightblue" d="M1091.43,-448.28C1092.02,-426.73 1090.66,-370.2 1063,-336 1048.64,-318.25 1025.66,-307.13 1005.78,-300.39"/>
<polygon fill="midnightblue" stroke="midnightblue" points="1006.62,-296.98 996.03,-297.34 1004.53,-303.67 1006.62,-296.98"/>
</g>
<!-- Node36&#45;&gt;Node7 -->
<g id="edge59" class="edge">
<title>Node36&#45;&gt;Node7</title>
<path fill="none" stroke="midnightblue" d="M1277.19,-448.48C1253.8,-428.27 1192.7,-376.14 1139,-336 1124.7,-325.31 1108.09,-313.99 1095.11,-305.38"/>
<polygon fill="midnightblue" stroke="midnightblue" points="1096.66,-302.21 1086.38,-299.63 1092.81,-308.06 1096.66,-302.21"/>
</g>
<!-- Node37&#45;&gt;Node6 -->
<g id="edge62" class="edge">
<title>Node37&#45;&gt;Node6</title>
<path fill="none" stroke="midnightblue" d="M1424.99,-340.49C1346.98,-332.62 1181.58,-315.71 1042,-300 1030.43,-298.7 1017.86,-297.22 1006.37,-295.83"/>
<polygon fill="midnightblue" stroke="midnightblue" points="1006.54,-292.33 996.19,-294.6 1005.7,-299.28 1006.54,-292.33"/>
</g>
<!-- Node37&#45;&gt;Node17 -->
<g id="edge65" class="edge">
<title>Node37&#45;&gt;Node17</title>
<path fill="none" stroke="midnightblue" d="M1461.9,-336.19C1449.34,-322.87 1424,-297.32 1399,-280 1264.14,-186.58 1082.68,-108.53 1010.99,-79.32"/>
<polygon fill="midnightblue" stroke="midnightblue" points="1012.2,-76.03 1001.62,-75.52 1009.58,-82.52 1012.2,-76.03"/>
</g>
<!-- Node37&#45;&gt;Node32 -->
<g id="edge64" class="edge">
<title>Node37&#45;&gt;Node32</title>
<path fill="none" stroke="midnightblue" d="M1452.01,-336.32C1433.96,-327.62 1405.95,-314.12 1385.2,-304.11"/>
<polygon fill="midnightblue" stroke="midnightblue" points="1386.48,-300.84 1375.95,-299.65 1383.44,-307.15 1386.48,-300.84"/>
</g>
<!-- Node38 -->
<g id="node37" class="node">
<title>Node38</title>
<g id="a_node37"><a xlink:title=" ">
<polygon fill="white" stroke="#bfbfbf" points="1113,-280.5 1113,-299.5 1211,-299.5 1211,-280.5 1113,-280.5"/>
<text text-anchor="middle" x="1162" y="-287.5" font-family="Arial" font-size="10.00">wayland&#45;client.h</text>
</a>
</g>
</g>
<!-- Node37&#45;&gt;Node38 -->
<g id="edge61" class="edge">
<title>Node37&#45;&gt;Node38</title>
<path fill="none" stroke="midnightblue" d="M1424.88,-337.09C1370.79,-327.61 1279.98,-311.69 1220.53,-301.26"/>
<polygon fill="midnightblue" stroke="midnightblue" points="1221,-297.79 1210.54,-299.51 1219.79,-304.68 1221,-297.79"/>
</g>
<!-- Node37&#45;&gt;Node39 -->
<g id="edge63" class="edge">
<title>Node37&#45;&gt;Node39</title>
<path fill="none" stroke="midnightblue" d="M1476.11,-336.08C1481.28,-328.53 1488.85,-317.49 1495.19,-308.23"/>
<polygon fill="midnightblue" stroke="midnightblue" points="1498.24,-309.98 1501,-299.75 1492.46,-306.02 1498.24,-309.98"/>
</g>
<!-- Node40&#45;&gt;Node18 -->
<g id="edge68" class="edge">
<title>Node40&#45;&gt;Node18</title>
<path fill="none" stroke="midnightblue" d="M1336.02,-392.49C1310,-386.1 1279.79,-375.03 1258,-356 1229.55,-331.16 1249.83,-303.16 1220,-280 1158.3,-232.11 934.67,-200.02 820.73,-186.4"/>
<polygon fill="midnightblue" stroke="midnightblue" points="821.06,-182.92 810.72,-185.22 820.24,-189.87 821.06,-182.92"/>
</g>
<!-- Node40&#45;&gt;Node32 -->
<g id="edge69" class="edge">
<title>Node40&#45;&gt;Node32</title>
<path fill="none" stroke="midnightblue" d="M1389.07,-392.43C1387.56,-379.85 1384.11,-355.73 1378,-336 1375.15,-326.81 1370.95,-317.01 1367.12,-308.91"/>
<polygon fill="midnightblue" stroke="midnightblue" points="1370.17,-307.16 1362.62,-299.73 1363.88,-310.25 1370.17,-307.16"/>
</g>
<!-- Node40&#45;&gt;Node37 -->
<g id="edge67" class="edge">
<title>Node40&#45;&gt;Node37</title>
<path fill="none" stroke="midnightblue" d="M1402.85,-392.32C1415.22,-383.98 1434.13,-371.21 1448.74,-361.35"/>
<polygon fill="midnightblue" stroke="midnightblue" points="1450.85,-364.15 1457.18,-355.65 1446.93,-358.35 1450.85,-364.15"/>
</g>
<!-- Node41&#45;&gt;Node6 -->
<g id="edge73" class="edge">
<title>Node41&#45;&gt;Node6</title>
<path fill="none" stroke="midnightblue" d="M834.88,-336.44C861.29,-327.36 903.22,-312.94 932.74,-302.78"/>
<polygon fill="midnightblue" stroke="midnightblue" points="933.92,-306.08 942.24,-299.52 931.64,-299.46 933.92,-306.08"/>
</g>
<!-- Node41&#45;&gt;Node18 -->
<g id="edge71" class="edge">
<title>Node41&#45;&gt;Node18</title>
<path fill="none" stroke="midnightblue" d="M809.57,-336.41C808.29,-316.04 803.41,-263.6 786,-224 781.48,-213.71 774.27,-203.5 767.75,-195.42"/>
<polygon fill="midnightblue" stroke="midnightblue" points="770.23,-192.94 761.1,-187.57 764.9,-197.46 770.23,-192.94"/>
</g>
<!-- Node41&#45;&gt;Node26 -->
<g id="edge74" class="edge">
<title>Node41&#45;&gt;Node26</title>
<path fill="none" stroke="midnightblue" d="M763.22,-342C691.66,-336.89 550.63,-324.74 422.64,-300.06"/>
<polygon fill="midnightblue" stroke="midnightblue" points="423.15,-296.6 412.66,-298.11 421.8,-303.47 423.15,-296.6"/>
</g>
<!-- Node41&#45;&gt;Node38 -->
<g id="edge72" class="edge">
<title>Node41&#45;&gt;Node38</title>
<path fill="none" stroke="midnightblue" d="M856.6,-337.9C912.59,-329.36 1009.68,-314.53 1103.06,-300.14"/>
<polygon fill="midnightblue" stroke="midnightblue" points="1103.6,-303.6 1112.95,-298.62 1102.54,-296.68 1103.6,-303.6"/>
</g>
</g>
</svg>
