<?xml version="1.0" encoding="UTF-8" standalone="no"?>
<!DOCTYPE svg PUBLIC "-//W3C//DTD SVG 1.1//EN"
 "http://www.w3.org/Graphics/SVG/1.1/DTD/svg11.dtd">
<!-- Generated by graphviz version 2.43.0 (0)
 -->
<!-- Title: include/core/mir/geometry/dimensions.h Pages: 1 -->
<svg width="273pt" height="95pt"
 viewBox="0.00 0.00 272.50 95.00" xmlns="http://www.w3.org/2000/svg" xmlns:xlink="http://www.w3.org/1999/xlink">
<g id="graph0" class="graph" transform="scale(1 1) rotate(0) translate(4 91)">
<title>include/core/mir/geometry/dimensions.h</title>
<polygon fill="white" stroke="transparent" points="-4,4 -4,-91 268.5,-91 268.5,4 -4,4"/>
<!-- Node1 -->
<g id="node1" class="node">
<title>Node1</title>
<g id="a_node1"><a xlink:title=" ">
<polygon fill="#bfbfbf" stroke="black" points="69,-56.5 69,-86.5 198,-86.5 198,-56.5 69,-56.5"/>
<text text-anchor="start" x="77" y="-74.5" font-family="Arial" font-size="10.00">include/core/mir/geometry</text>
<text text-anchor="middle" x="133.5" y="-63.5" font-family="Arial" font-size="10.00">/dimensions.h</text>
</a>
</g>
</g>
<!-- Node2 -->
<g id="node2" class="node">
<title>Node2</title>
<g id="a_node2"><a xlink:href="forward_8h.html" target="_top" xlink:title=" ">
<polygon fill="white" stroke="black" points="0,-0.5 0,-19.5 57,-19.5 57,-0.5 0,-0.5"/>
<text text-anchor="middle" x="28.5" y="-7.5" font-family="Arial" font-size="10.00">forward.h</text>
</a>
</g>
</g>
<!-- Node1&#45;&gt;Node2 -->
<g id="edge1" class="edge">
<title>Node1&#45;&gt;Node2</title>
<path fill="none" stroke="midnightblue" d="M108.62,-56.4C91.79,-46.86 69.66,-34.32 52.93,-24.84"/>
<polygon fill="midnightblue" stroke="midnightblue" points="54.2,-21.54 43.78,-19.66 50.75,-27.63 54.2,-21.54"/>
</g>
<!-- Node3 -->
<g id="node3" class="node">
<title>Node3</title>
<g id="a_node3"><a xlink:title=" ">
<polygon fill="white" stroke="#bfbfbf" points="75,-0.5 75,-19.5 120,-19.5 120,-0.5 75,-0.5"/>
<text text-anchor="middle" x="97.5" y="-7.5" font-family="Arial" font-size="10.00">iosfwd</text>
</a>
</g>
</g>
<!-- Node1&#45;&gt;Node3 -->
<g id="edge2" class="edge">
<title>Node1&#45;&gt;Node3</title>
<path fill="none" stroke="midnightblue" d="M124.97,-56.4C119.9,-48.02 113.43,-37.33 108.04,-28.42"/>
<polygon fill="midnightblue" stroke="midnightblue" points="110.91,-26.4 102.74,-19.66 104.92,-30.03 110.91,-26.4"/>
</g>
<!-- Node4 -->
<g id="node4" class="node">
<title>Node4</title>
<g id="a_node4"><a xlink:title=" ">
<polygon fill="white" stroke="#bfbfbf" points="138.5,-0.5 138.5,-19.5 200.5,-19.5 200.5,-0.5 138.5,-0.5"/>
<text text-anchor="middle" x="169.5" y="-7.5" font-family="Arial" font-size="10.00">type_traits</text>
</a>
</g>
</g>
<!-- Node1&#45;&gt;Node4 -->
<g id="edge3" class="edge">
<title>Node1&#45;&gt;Node4</title>
<path fill="none" stroke="midnightblue" d="M142.03,-56.4C147.1,-48.02 153.57,-37.33 158.96,-28.42"/>
<polygon fill="midnightblue" stroke="midnightblue" points="162.08,-30.03 164.26,-19.66 156.09,-26.4 162.08,-30.03"/>
</g>
<!-- Node5 -->
<g id="node5" class="node">
<title>Node5</title>
<g id="a_node5"><a xlink:title=" ">
<polygon fill="white" stroke="#bfbfbf" points="218.5,-0.5 218.5,-19.5 264.5,-19.5 264.5,-0.5 218.5,-0.5"/>
<text text-anchor="middle" x="241.5" y="-7.5" font-family="Arial" font-size="10.00">cstdint</text>
</a>
</g>
</g>
<!-- Node1&#45;&gt;Node5 -->
<g id="edge4" class="edge">
<title>Node1&#45;&gt;Node5</title>
<path fill="none" stroke="midnightblue" d="M159.09,-56.4C176.57,-46.77 199.59,-34.09 216.86,-24.58"/>
<polygon fill="midnightblue" stroke="midnightblue" points="218.72,-27.55 225.79,-19.66 215.34,-21.42 218.72,-27.55"/>
</g>
</g>
</svg>
