<?xml version="1.0" encoding="UTF-8" standalone="no"?>
<!DOCTYPE svg PUBLIC "-//W3C//DTD SVG 1.1//EN"
 "http://www.w3.org/Graphics/SVG/1.1/DTD/svg11.dtd">
<!-- Generated by graphviz version 2.38.0 (20140413.2041)
 -->
<!-- Title: include/test/mir_test_framework Pages: 1 -->
<svg width="193pt" height="367pt"
 viewBox="0.00 0.00 192.81 367.00" xmlns="http://www.w3.org/2000/svg" xmlns:xlink="http://www.w3.org/1999/xlink">
<g id="graph0" class="graph" transform="scale(1 1) rotate(0) translate(4 363)">
<title>include/test/mir_test_framework</title>
<polygon fill="white" stroke="none" points="-4,4 -4,-363 188.807,-363 188.807,4 -4,4"/>
<g id="clust1" class="cluster"><title>clusterdir_69f6b0b437b9d7106ae46b3b241ba72b</title>
<g id="a_clust1"><a xlink:href="dir_69f6b0b437b9d7106ae46b3b241ba72b.html" target="_top" xlink:title="test">
<polygon fill="#ddddee" stroke="black" points="15.8067,-280 15.8067,-351 133.807,-351 133.807,-280 15.8067,-280"/>
<text text-anchor="middle" x="74.8067" y="-339" font-family="Arial" font-size="10.00">test</text>
</a>
</g>
</g>
<!-- dir_6200a8502958d68e2184a3fb3c410f3e -->
<g id="node1" class="node"><title>dir_6200a8502958d68e2184a3fb3c410f3e</title>
<g id="a_node1"><a xlink:href="dir_6200a8502958d68e2184a3fb3c410f3e.html" target="_top" xlink:title="mir_test_framework">
<polygon fill="#eeeeff" stroke="black" points="125.807,-324 23.8067,-324 23.8067,-288 125.807,-288 125.807,-324"/>
<text text-anchor="middle" x="74.8067" y="-303.5" font-family="Arial" font-size="10.00">mir_test_framework</text>
</a>
</g>
</g>
<!-- dir_eca4379131abe55f66c454f8d4bf8fd2 -->
<g id="node2" class="node"><title>dir_eca4379131abe55f66c454f8d4bf8fd2</title>
<g id="a_node2"><a xlink:href="dir_eca4379131abe55f66c454f8d4bf8fd2.html" target="_top" xlink:title="client">
<polygon fill="white" stroke="red" points="184.807,-180 130.807,-180 130.807,-144 184.807,-144 184.807,-180"/>
<text text-anchor="middle" x="157.807" y="-159.5" font-family="Arial" font-size="10.00">client</text>
</a>
</g>
</g>
<!-- dir_6200a8502958d68e2184a3fb3c410f3e&#45;&gt;dir_eca4379131abe55f66c454f8d4bf8fd2 -->
<g id="edge1" class="edge"><title>dir_6200a8502958d68e2184a3fb3c410f3e&#45;&gt;dir_eca4379131abe55f66c454f8d4bf8fd2</title>
<path fill="none" stroke="black" d="M90.3083,-287.63C98.7678,-277.64 109.063,-264.604 116.807,-252 129.129,-231.942 140.109,-207.565 147.598,-189.398"/>
<polygon fill="black" stroke="black" points="150.89,-190.594 151.386,-180.011 144.398,-187.975 150.89,-190.594"/>
<g id="a_edge1&#45;headlabel"><a xlink:href="dir_000054_000005.html" target="_top" xlink:title="6">
<text text-anchor="middle" x="152.178" y="-192.49" font-family="Arial" font-size="10.00">6</text>
</a>
</g>
</g>
<!-- dir_ac186d3e8926949364e5821f25491cc3 -->
<g id="node3" class="node"><title>dir_ac186d3e8926949364e5821f25491cc3</title>
<g id="a_node3"><a xlink:href="dir_ac186d3e8926949364e5821f25491cc3.html" target="_top" xlink:title="platform">
<polygon fill="white" stroke="red" points="74.8067,-252 20.8067,-252 20.8067,-216 74.8067,-216 74.8067,-252"/>
<text text-anchor="middle" x="47.8067" y="-231.5" font-family="Arial" font-size="10.00">platform</text>
</a>
</g>
</g>
<!-- dir_6200a8502958d68e2184a3fb3c410f3e&#45;&gt;dir_ac186d3e8926949364e5821f25491cc3 -->
<g id="edge2" class="edge"><title>dir_6200a8502958d68e2184a3fb3c410f3e&#45;&gt;dir_ac186d3e8926949364e5821f25491cc3</title>
<path fill="none" stroke="black" d="M68.1325,-287.697C65.0917,-279.813 61.424,-270.304 58.046,-261.546"/>
<polygon fill="black" stroke="black" points="61.2683,-260.175 54.404,-252.104 54.7373,-262.694 61.2683,-260.175"/>
<g id="a_edge2&#45;headlabel"><a xlink:href="dir_000054_000019.html" target="_top" xlink:title="2">
<text text-anchor="middle" x="65.2109" y="-260.007" font-family="Arial" font-size="10.00">2</text>
</a>
</g>
</g>
<!-- dir_3d69f64eaf81436fe2b22361382717e5 -->
<g id="node4" class="node"><title>dir_3d69f64eaf81436fe2b22361382717e5</title>
<g id="a_node4"><a xlink:href="dir_3d69f64eaf81436fe2b22361382717e5.html" target="_top" xlink:title="core">
<polygon fill="white" stroke="red" points="91.8067,-36 37.8067,-36 37.8067,-0 91.8067,-0 91.8067,-36"/>
<text text-anchor="middle" x="64.8067" y="-15.5" font-family="Arial" font-size="10.00">core</text>
</a>
</g>
</g>
<!-- dir_6200a8502958d68e2184a3fb3c410f3e&#45;&gt;dir_3d69f64eaf81436fe2b22361382717e5 -->
<g id="edge3" class="edge"><title>dir_6200a8502958d68e2184a3fb3c410f3e&#45;&gt;dir_3d69f64eaf81436fe2b22361382717e5</title>
<path fill="none" stroke="black" d="M44.5069,-287.805C31.9288,-278.898 18.6835,-266.772 11.8067,-252 -21.048,-181.426 22.741,-89.1216 48.4647,-44.8649"/>
<polygon fill="black" stroke="black" points="51.5307,-46.557 53.6456,-36.1753 45.5183,-42.9722 51.5307,-46.557"/>
<g id="a_edge3&#45;headlabel"><a xlink:href="dir_000054_000031.html" target="_top" xlink:title="5">
<text text-anchor="middle" x="52.1287" y="-48.5984" font-family="Arial" font-size="10.00">5</text>
</a>
</g>
</g>
<!-- dir_0966d06610f72609fd9aa4979c2b5a92 -->
<g id="node5" class="node"><title>dir_0966d06610f72609fd9aa4979c2b5a92</title>
<g id="a_node5"><a xlink:href="dir_0966d06610f72609fd9aa4979c2b5a92.html" target="_top" xlink:title="common">
<polygon fill="white" stroke="red" points="129.807,-108 75.8067,-108 75.8067,-72 129.807,-72 129.807,-108"/>
<text text-anchor="middle" x="102.807" y="-87.5" font-family="Arial" font-size="10.00">common</text>
</a>
</g>
</g>
<!-- dir_6200a8502958d68e2184a3fb3c410f3e&#45;&gt;dir_0966d06610f72609fd9aa4979c2b5a92 -->
<g id="edge4" class="edge"><title>dir_6200a8502958d68e2184a3fb3c410f3e&#45;&gt;dir_0966d06610f72609fd9aa4979c2b5a92</title>
<path fill="none" stroke="black" d="M77.946,-287.849C79.7856,-277.489 82.0795,-264.009 83.8067,-252 90.538,-205.195 96.6174,-150.481 100.001,-118.398"/>
<polygon fill="black" stroke="black" points="103.485,-118.739 101.043,-108.43 96.5226,-118.012 103.485,-118.739"/>
<g id="a_edge4&#45;headlabel"><a xlink:href="dir_000054_000022.html" target="_top" xlink:title="1">
<text text-anchor="middle" x="105.935" y="-120.109" font-family="Arial" font-size="10.00">1</text>
</a>
</g>
</g>
<!-- dir_eca4379131abe55f66c454f8d4bf8fd2&#45;&gt;dir_3d69f64eaf81436fe2b22361382717e5 -->
<g id="edge5" class="edge"><title>dir_eca4379131abe55f66c454f8d4bf8fd2&#45;&gt;dir_3d69f64eaf81436fe2b22361382717e5</title>
<path fill="none" stroke="black" d="M157.741,-143.87C156.899,-124.849 153.175,-93.941 138.807,-72 129.432,-57.6853 114.749,-45.9981 100.925,-37.2765"/>
<polygon fill="black" stroke="black" points="102.411,-34.088 92.0293,-31.9757 98.8282,-40.1014 102.411,-34.088"/>
<g id="a_edge5&#45;headlabel"><a xlink:href="dir_000005_000031.html" target="_top" xlink:title="36">
<text text-anchor="middle" x="106.953" y="-30.9889" font-family="Arial" font-size="10.00">36</text>
</a>
</g>
</g>
<!-- dir_eca4379131abe55f66c454f8d4bf8fd2&#45;&gt;dir_0966d06610f72609fd9aa4979c2b5a92 -->
<g id="edge6" class="edge"><title>dir_eca4379131abe55f66c454f8d4bf8fd2&#45;&gt;dir_0966d06610f72609fd9aa4979c2b5a92</title>
<path fill="none" stroke="black" d="M138.295,-143.697C130.987,-135.474 122.935,-125.483 116.26,-116.421"/>
<polygon fill="black" stroke="black" points="118.996,-114.229 110.351,-108.104 113.29,-118.283 118.996,-114.229"/>
<g id="a_edge6&#45;headlabel"><a xlink:href="dir_000005_000022.html" target="_top" xlink:title="3">
<text text-anchor="middle" x="123.393" y="-113.014" font-family="Arial" font-size="10.00">3</text>
</a>
</g>
</g>
<!-- dir_ac186d3e8926949364e5821f25491cc3&#45;&gt;dir_eca4379131abe55f66c454f8d4bf8fd2 -->
<g id="edge7" class="edge"><title>dir_ac186d3e8926949364e5821f25491cc3&#45;&gt;dir_eca4379131abe55f66c454f8d4bf8fd2</title>
<path fill="none" stroke="black" d="M74.7157,-215.876C88.965,-206.808 106.653,-195.552 122.042,-185.759"/>
<polygon fill="black" stroke="black" points="124.237,-188.511 130.794,-180.19 120.478,-182.606 124.237,-188.511"/>
<g id="a_edge7&#45;headlabel"><a xlink:href="dir_000019_000005.html" target="_top" xlink:title="14">
<text text-anchor="middle" x="122.728" y="-190.337" font-family="Arial" font-size="10.00">14</text>
</a>
</g>
</g>
<!-- dir_ac186d3e8926949364e5821f25491cc3&#45;&gt;dir_3d69f64eaf81436fe2b22361382717e5 -->
<g id="edge8" class="edge"><title>dir_ac186d3e8926949364e5821f25491cc3&#45;&gt;dir_3d69f64eaf81436fe2b22361382717e5</title>
<path fill="none" stroke="black" d="M49.1691,-215.849C52.1098,-178.832 59.0727,-91.1809 62.6311,-46.3863"/>
<polygon fill="black" stroke="black" points="66.1347,-46.4782 63.4377,-36.2325 59.1567,-45.9239 66.1347,-46.4782"/>
<g id="a_edge8&#45;headlabel"><a xlink:href="dir_000019_000031.html" target="_top" xlink:title="42">
<text text-anchor="middle" x="68.6805" y="-47.7864" font-family="Arial" font-size="10.00">42</text>
</a>
</g>
</g>
<!-- dir_ac186d3e8926949364e5821f25491cc3&#45;&gt;dir_0966d06610f72609fd9aa4979c2b5a92 -->
<g id="edge9" class="edge"><title>dir_ac186d3e8926949364e5821f25491cc3&#45;&gt;dir_0966d06610f72609fd9aa4979c2b5a92</title>
<path fill="none" stroke="black" d="M54.4409,-215.871C63.8973,-191.457 81.3389,-146.426 92.4902,-117.635"/>
<polygon fill="black" stroke="black" points="95.8007,-118.778 96.1488,-108.189 89.2733,-116.25 95.8007,-118.778"/>
<g id="a_edge9&#45;headlabel"><a xlink:href="dir_000019_000022.html" target="_top" xlink:title="20">
<text text-anchor="middle" x="97.1501" y="-120.656" font-family="Arial" font-size="10.00">20</text>
</a>
</g>
</g>
<!-- dir_0966d06610f72609fd9aa4979c2b5a92&#45;&gt;dir_eca4379131abe55f66c454f8d4bf8fd2 -->
<g id="edge10" class="edge"><title>dir_0966d06610f72609fd9aa4979c2b5a92&#45;&gt;dir_eca4379131abe55f66c454f8d4bf8fd2</title>
<path fill="none" stroke="black" d="M122.141,-108.104C129.437,-116.298 137.494,-126.282 144.191,-135.359"/>
<polygon fill="black" stroke="black" points="141.476,-137.58 150.127,-143.697 147.178,-133.52 141.476,-137.58"/>
<g id="a_edge10&#45;headlabel"><a xlink:href="dir_000022_000005.html" target="_top" xlink:title="2">
<text text-anchor="middle" x="137.078" y="-133.799" font-family="Arial" font-size="10.00">2</text>
</a>
</g>
</g>
<!-- dir_0966d06610f72609fd9aa4979c2b5a92&#45;&gt;dir_3d69f64eaf81436fe2b22361382717e5 -->
<g id="edge11" class="edge"><title>dir_0966d06610f72609fd9aa4979c2b5a92&#45;&gt;dir_3d69f64eaf81436fe2b22361382717e5</title>
<path fill="none" stroke="black" d="M93.4134,-71.6966C89.0418,-63.6436 83.7494,-53.8945 78.9114,-44.9824"/>
<polygon fill="black" stroke="black" points="81.9388,-43.223 74.0919,-36.1043 75.7869,-46.5627 81.9388,-43.223"/>
<g id="a_edge11&#45;headlabel"><a xlink:href="dir_000022_000031.html" target="_top" xlink:title="11">
<text text-anchor="middle" x="86.149" y="-42.5276" font-family="Arial" font-size="10.00">11</text>
</a>
</g>
</g>
</g>
</svg>
