<?xml version="1.0" encoding="UTF-8" standalone="no"?>
<!DOCTYPE svg PUBLIC "-//W3C//DTD SVG 1.1//EN"
 "http://www.w3.org/Graphics/SVG/1.1/DTD/svg11.dtd">
<!-- Generated by graphviz version 2.43.0 (0)
 -->
<!-- Title: include/miral Pages: 1 -->
<svg width="182pt" height="175pt"
 viewBox="0.00 0.00 182.00 175.00" xmlns="http://www.w3.org/2000/svg" xmlns:xlink="http://www.w3.org/1999/xlink">
<g id="graph0" class="graph" transform="scale(1 1) rotate(0) translate(4 171)">
<title>include/miral</title>
<polygon fill="white" stroke="transparent" points="-4,4 -4,-171 178,-171 178,4 -4,4"/>
<g id="clust1" class="cluster">
<title>clusterdir_d44c64559bbebec7f509842c48db8b23</title>
<g id="a_clust1"><a xlink:href="dir_d44c64559bbebec7f509842c48db8b23.html" target="_top" xlink:title="include">
<polygon fill="#feece5" stroke="#404040" stroke-dasharray="5,2" points="8,-8 8,-159 166,-159 166,-8 8,-8"/>
<text text-anchor="middle" x="87" y="-147" font-family="Arial" font-size="10.00">include</text>
</a>
</g>
</g>
<g id="clust2" class="cluster">
<title>clusterdir_f5fbc7f007a2ec1b5077eb888dc4db14</title>
<g id="a_clust2"><a xlink:href="dir_f5fbc7f007a2ec1b5077eb888dc4db14.html" target="_top">
<polygon fill="#feece5" stroke="#404040" stroke-width="2" points="16,-80 16,-132 158,-132 158,-80 16,-80"/>
</a>
</g>
</g>
<!-- dir_3d69f64eaf81436fe2b22361382717e5 -->
<g id="node1" class="node">
<title>dir_3d69f64eaf81436fe2b22361382717e5</title>
<g id="a_node1"><a xlink:href="dir_3d69f64eaf81436fe2b22361382717e5.html" target="_top" xlink:title="core">
<polygon fill="#fb9f7e" stroke="red" points="78,-52 24,-52 24,-16 78,-16 78,-52"/>
<text text-anchor="middle" x="51" y="-31.5" font-family="Arial" font-size="10.00">core</text>
</a>
</g>
</g>
<!-- dir_f5fbc7f007a2ec1b5077eb888dc4db14 -->
<g id="node2" class="node">
<title>dir_f5fbc7f007a2ec1b5077eb888dc4db14</title>
<text text-anchor="middle" x="123" y="-103.5" font-family="Arial" font-size="10.00">miral</text>
</g>
<!-- dir_e1393d28c51480e3cfefb6c600744fe0 -->
<g id="node3" class="node">
<title>dir_e1393d28c51480e3cfefb6c600744fe0</title>
<g id="a_node3"><a xlink:href="dir_e1393d28c51480e3cfefb6c600744fe0.html" target="_top" xlink:title="miral">
<polygon fill="#fb9f7e" stroke="#404040" points="78,-124 24,-124 24,-88 78,-88 78,-124"/>
<text text-anchor="middle" x="51" y="-103.5" font-family="Arial" font-size="10.00">miral</text>
</a>
</g>
</g>
<!-- dir_e1393d28c51480e3cfefb6c600744fe0&#45;&gt;dir_3d69f64eaf81436fe2b22361382717e5 -->
<g id="edge1" class="edge">
<title>dir_e1393d28c51480e3cfefb6c600744fe0&#45;&gt;dir_3d69f64eaf81436fe2b22361382717e5</title>
<path fill="none" stroke="black" d="M51,-87.7C51,-79.98 51,-70.71 51,-62.11"/>
<polygon fill="black" stroke="black" points="54.5,-62.1 51,-52.1 47.5,-62.1 54.5,-62.1"/>
<g id="a_edge1&#45;headlabel"><a xlink:href="dir_000010_000000.html" target="_top" xlink:title="25">
<text text-anchor="middle" x="57.34" y="-63.2" font-family="Arial" font-size="10.00">25</text>
</a>
</g>
</g>
</g>
</svg>
