<?xml version="1.0" encoding="UTF-8" standalone="no"?>
<!DOCTYPE svg PUBLIC "-//W3C//DTD SVG 1.1//EN"
 "http://www.w3.org/Graphics/SVG/1.1/DTD/svg11.dtd">
<!-- Generated by graphviz version 2.43.0 (0)
 -->
<!-- Title: examples/miral&#45;shell/spinner Pages: 1 -->
<svg width="104pt" height="151pt"
 viewBox="0.00 0.00 104.00 151.00" xmlns="http://www.w3.org/2000/svg" xmlns:xlink="http://www.w3.org/1999/xlink">
<g id="graph0" class="graph" transform="scale(1 1) rotate(0) translate(4 147)">
<title>examples/miral&#45;shell/spinner</title>
<polygon fill="white" stroke="transparent" points="-4,4 -4,-147 100,-147 100,4 -4,4"/>
<g id="clust1" class="cluster">
<title>clusterdir_f12490db20c962b051f50ee48227d2d9</title>
<g id="a_clust1"><a xlink:href="dir_f12490db20c962b051f50ee48227d2d9.html" target="_top" xlink:title="miral&#45;shell">
<polygon fill="#feece5" stroke="#7f7f7f" stroke-dasharray="5,2" points="13,-64 13,-135 83,-135 83,-64 13,-64"/>
<text text-anchor="middle" x="48" y="-123" font-family="Arial" font-size="10.00">miral&#45;shell</text>
</a>
</g>
</g>
<!-- dir_0988342b392d39a3d145cc970e471b2a -->
<g id="node1" class="node">
<title>dir_0988342b392d39a3d145cc970e471b2a</title>
<g id="a_node1"><a xlink:href="dir_0988342b392d39a3d145cc970e471b2a.html" target="_top" xlink:title="spinner">
<polygon fill="#feece5" stroke="#404040" stroke-width="2" points="75,-108 21,-108 21,-72 75,-72 75,-108"/>
<text text-anchor="middle" x="48" y="-87.5" font-family="Arial" font-size="10.00">spinner</text>
</a>
</g>
</g>
<!-- dir_603a3fb0fb569e6a215a7f888c21b720 -->
<g id="node2" class="node">
<title>dir_603a3fb0fb569e6a215a7f888c21b720</title>
<g id="a_node2"><a xlink:href="dir_603a3fb0fb569e6a215a7f888c21b720.html" target="_top" xlink:title="example&#45;server&#45;lib">
<polygon fill="none" stroke="#7f7f7f" points="96,-36 0,-36 0,0 96,0 96,-36"/>
<text text-anchor="middle" x="48" y="-15.5" font-family="Arial" font-size="10.00">example&#45;server&#45;lib</text>
</a>
</g>
</g>
<!-- dir_0988342b392d39a3d145cc970e471b2a&#45;&gt;dir_603a3fb0fb569e6a215a7f888c21b720 -->
<g id="edge1" class="edge">
<title>dir_0988342b392d39a3d145cc970e471b2a&#45;&gt;dir_603a3fb0fb569e6a215a7f888c21b720</title>
<path fill="none" stroke="black" d="M48,-71.7C48,-63.98 48,-54.71 48,-46.11"/>
<polygon fill="black" stroke="black" points="51.5,-46.1 48,-36.1 44.5,-46.1 51.5,-46.1"/>
<g id="a_edge1&#45;headlabel"><a xlink:href="dir_000015_000003.html" target="_top" xlink:title="3">
<text text-anchor="middle" x="54.34" y="-47.2" font-family="Arial" font-size="10.00">3</text>
</a>
</g>
</g>
</g>
</svg>
