<?xml version="1.0" encoding="UTF-8" standalone="no"?>
<!DOCTYPE svg PUBLIC "-//W3C//DTD SVG 1.1//EN"
 "http://www.w3.org/Graphics/SVG/1.1/DTD/svg11.dtd">
<!-- Generated by graphviz version 2.40.1 (20161225.0304)
 -->
<!-- Title: include/client/mir Pages: 1 -->
<svg width="254pt" height="231pt"
 viewBox="0.00 0.00 254.00 231.00" xmlns="http://www.w3.org/2000/svg" xmlns:xlink="http://www.w3.org/1999/xlink">
<g id="graph0" class="graph" transform="scale(1 1) rotate(0) translate(4 227)">
<title>include/client/mir</title>
<polygon fill="#ffffff" stroke="transparent" points="-4,4 -4,-227 250,-227 250,4 -4,4"/>
<g id="clust1" class="cluster">
<title>clusterdir_eca4379131abe55f66c454f8d4bf8fd2</title>
<g id="a_clust1"><a xlink:href="dir_eca4379131abe55f66c454f8d4bf8fd2.html" target="_top" xlink:title="client">
<polygon fill="#ddddee" stroke="#000000" points="8,-128 8,-215 238,-215 238,-128 8,-128"/>
<text text-anchor="middle" x="123" y="-203" font-family="Arial" font-size="10.00" fill="#000000">client</text>
</a>
</g>
</g>
<g id="clust2" class="cluster">
<title>clusterdir_922ddc82555d6e3e8c3ba93df0fc2d5e</title>
<g id="a_clust2"><a xlink:href="dir_922ddc82555d6e3e8c3ba93df0fc2d5e.html" target="_top">
<polygon fill="#eeeeff" stroke="#000000" points="16,-136 16,-188 230,-188 230,-136 16,-136"/>
</a>
</g>
</g>
<!-- dir_922ddc82555d6e3e8c3ba93df0fc2d5e -->
<g id="node1" class="node">
<title>dir_922ddc82555d6e3e8c3ba93df0fc2d5e</title>
<text text-anchor="middle" x="195" y="-159.5" font-family="Arial" font-size="10.00" fill="#000000">mir</text>
</g>
<!-- dir_2360a4be4fa9eb5453a7779787e3c570 -->
<g id="node2" class="node">
<title>dir_2360a4be4fa9eb5453a7779787e3c570</title>
<g id="a_node2"><a xlink:href="dir_2360a4be4fa9eb5453a7779787e3c570.html" target="_top" xlink:title="client">
<polygon fill="#ffffff" stroke="#000000" points="78,-180 24,-180 24,-144 78,-144 78,-180"/>
<text text-anchor="middle" x="51" y="-159.5" font-family="Arial" font-size="10.00" fill="#000000">client</text>
</a>
</g>
</g>
<!-- dir_866c46951d19fd3fcfcc106369b0956c -->
<g id="node4" class="node">
<title>dir_866c46951d19fd3fcfcc106369b0956c</title>
<g id="a_node4"><a xlink:href="dir_866c46951d19fd3fcfcc106369b0956c.html" target="_top" xlink:title="mir_toolkit">
<polygon fill="#ffffff" stroke="#ff0000" points="95,-108 33,-108 33,-72 95,-72 95,-108"/>
<text text-anchor="middle" x="64" y="-87.5" font-family="Arial" font-size="10.00" fill="#000000">mir_toolkit</text>
</a>
</g>
</g>
<!-- dir_2360a4be4fa9eb5453a7779787e3c570&#45;&gt;dir_866c46951d19fd3fcfcc106369b0956c -->
<g id="edge2" class="edge">
<title>dir_2360a4be4fa9eb5453a7779787e3c570&#45;&gt;dir_866c46951d19fd3fcfcc106369b0956c</title>
<path fill="none" stroke="#000000" d="M54.2804,-143.8314C55.6708,-136.131 57.3241,-126.9743 58.8692,-118.4166"/>
<polygon fill="#000000" stroke="#000000" points="62.3428,-118.8761 60.6754,-108.4133 55.4542,-117.6322 62.3428,-118.8761"/>
<g id="a_edge2&#45;headlabel"><a xlink:href="dir_000008_000009.html" target="_top" xlink:title="14">
<text text-anchor="middle" x="64.4983" y="-120.4179" font-family="Arial" font-size="10.00" fill="#000000">14</text>
</a>
</g>
</g>
<!-- dir_37013e6622aa85210765d5a50104d3e1 -->
<g id="node3" class="node">
<title>dir_37013e6622aa85210765d5a50104d3e1</title>
<g id="a_node3"><a xlink:href="dir_37013e6622aa85210765d5a50104d3e1.html" target="_top" xlink:title="events">
<polygon fill="#ffffff" stroke="#000000" points="150,-180 96,-180 96,-144 150,-144 150,-180"/>
<text text-anchor="middle" x="123" y="-159.5" font-family="Arial" font-size="10.00" fill="#000000">events</text>
</a>
</g>
</g>
<!-- dir_37013e6622aa85210765d5a50104d3e1&#45;&gt;dir_866c46951d19fd3fcfcc106369b0956c -->
<g id="edge3" class="edge">
<title>dir_37013e6622aa85210765d5a50104d3e1&#45;&gt;dir_866c46951d19fd3fcfcc106369b0956c</title>
<path fill="none" stroke="#000000" d="M108.1118,-143.8314C101.247,-135.454 92.9699,-125.3531 85.4489,-116.1749"/>
<polygon fill="#000000" stroke="#000000" points="88.1341,-113.9297 79.0886,-108.4133 82.7197,-118.3665 88.1341,-113.9297"/>
<g id="a_edge3&#45;headlabel"><a xlink:href="dir_000014_000009.html" target="_top" xlink:title="1">
<text text-anchor="middle" x="92.6085" y="-112.4104" font-family="Arial" font-size="10.00" fill="#000000">1</text>
</a>
</g>
</g>
<!-- dir_3d69f64eaf81436fe2b22361382717e5 -->
<g id="node5" class="node">
<title>dir_3d69f64eaf81436fe2b22361382717e5</title>
<g id="a_node5"><a xlink:href="dir_3d69f64eaf81436fe2b22361382717e5.html" target="_top" xlink:title="core">
<polygon fill="#ffffff" stroke="#ff0000" points="120,-36 66,-36 66,0 120,0 120,-36"/>
<text text-anchor="middle" x="93" y="-15.5" font-family="Arial" font-size="10.00" fill="#000000">core</text>
</a>
</g>
</g>
<!-- dir_37013e6622aa85210765d5a50104d3e1&#45;&gt;dir_3d69f64eaf81436fe2b22361382717e5 -->
<g id="edge4" class="edge">
<title>dir_37013e6622aa85210765d5a50104d3e1&#45;&gt;dir_3d69f64eaf81436fe2b22361382717e5</title>
<path fill="none" stroke="#000000" d="M119.2005,-143.7623C114.061,-119.0928 104.8458,-74.8598 98.8277,-45.9731"/>
<polygon fill="#000000" stroke="#000000" points="102.2347,-45.1656 96.7687,-36.0896 95.3819,-46.5933 102.2347,-45.1656"/>
<g id="a_edge4&#45;headlabel"><a xlink:href="dir_000014_000018.html" target="_top" xlink:title="4">
<text text-anchor="middle" x="105.7474" y="-45.6056" font-family="Arial" font-size="10.00" fill="#000000">4</text>
</a>
</g>
</g>
<!-- dir_866c46951d19fd3fcfcc106369b0956c&#45;&gt;dir_3d69f64eaf81436fe2b22361382717e5 -->
<g id="edge1" class="edge">
<title>dir_866c46951d19fd3fcfcc106369b0956c&#45;&gt;dir_3d69f64eaf81436fe2b22361382717e5</title>
<path fill="none" stroke="#000000" d="M71.3179,-71.8314C74.4876,-63.9617 78.27,-54.5712 81.7813,-45.8533"/>
<polygon fill="#000000" stroke="#000000" points="85.0939,-46.9968 85.5835,-36.4133 78.6008,-44.3815 85.0939,-46.9968"/>
<g id="a_edge1&#45;headlabel"><a xlink:href="dir_000009_000018.html" target="_top" xlink:title="32">
<text text-anchor="middle" x="86.3847" y="-48.8919" font-family="Arial" font-size="10.00" fill="#000000">32</text>
</a>
</g>
</g>
</g>
</svg>
