<?xml version="1.0" encoding="UTF-8" standalone="no"?>
<!DOCTYPE svg PUBLIC "-//W3C//DTD SVG 1.1//EN"
 "http://www.w3.org/Graphics/SVG/1.1/DTD/svg11.dtd">
<!-- Generated by graphviz version 2.38.0 (20140413.2041)
 -->
<!-- Title: include/common/mir Pages: 1 -->
<svg width="621pt" height="195pt"
 viewBox="0.00 0.00 620.77 195.00" xmlns="http://www.w3.org/2000/svg" xmlns:xlink="http://www.w3.org/1999/xlink">
<g id="graph0" class="graph" transform="scale(1 1) rotate(0) translate(4 191)">
<title>include/common/mir</title>
<polygon fill="white" stroke="none" points="-4,4 -4,-191 616.774,-191 616.774,4 -4,4"/>
<g id="clust1" class="cluster"><title>clusterdir_0966d06610f72609fd9aa4979c2b5a92</title>
<g id="a_clust1"><a xlink:href="dir_0966d06610f72609fd9aa4979c2b5a92.html" target="_top" xlink:title="common">
<polygon fill="#ddddee" stroke="black" points="8,-56 8,-143 598,-143 598,-56 8,-56"/>
<text text-anchor="middle" x="303" y="-131" font-family="Arial" font-size="10.00">common</text>
</a>
</g>
</g>
<g id="clust2" class="cluster"><title>clusterdir_abd63fde1aa60803836c92ee89eb2954</title>
<g id="a_clust2"><a xlink:href="dir_abd63fde1aa60803836c92ee89eb2954.html" target="_top">
<polygon fill="#eeeeff" stroke="black" points="16,-64 16,-116 590,-116 590,-64 16,-64"/>
</a>
</g>
</g>
<!-- dir_abd63fde1aa60803836c92ee89eb2954 -->
<g id="node1" class="node"><title>dir_abd63fde1aa60803836c92ee89eb2954</title>
<text text-anchor="middle" x="555" y="-87.5" font-family="Arial" font-size="10.00">mir</text>
</g>
<!-- dir_1f483a0c66d56e0b58fd228addeeef9f -->
<g id="node2" class="node"><title>dir_1f483a0c66d56e0b58fd228addeeef9f</title>
<g id="a_node2"><a xlink:href="dir_1f483a0c66d56e0b58fd228addeeef9f.html" target="_top" xlink:title="dispatch">
<polygon fill="white" stroke="black" points="510,-108 456,-108 456,-72 510,-72 510,-108"/>
<text text-anchor="middle" x="483" y="-87.5" font-family="Arial" font-size="10.00">dispatch</text>
</a>
</g>
</g>
<!-- dir_3d69f64eaf81436fe2b22361382717e5 -->
<g id="node10" class="node"><title>dir_3d69f64eaf81436fe2b22361382717e5</title>
<g id="a_node10"><a xlink:href="dir_3d69f64eaf81436fe2b22361382717e5.html" target="_top" xlink:title="core">
<polygon fill="white" stroke="red" points="438,-36 384,-36 384,-0 438,-0 438,-36"/>
<text text-anchor="middle" x="411" y="-15.5" font-family="Arial" font-size="10.00">core</text>
</a>
</g>
</g>
<!-- dir_1f483a0c66d56e0b58fd228addeeef9f&#45;&gt;dir_3d69f64eaf81436fe2b22361382717e5 -->
<g id="edge6" class="edge"><title>dir_1f483a0c66d56e0b58fd228addeeef9f&#45;&gt;dir_3d69f64eaf81436fe2b22361382717e5</title>
<path fill="none" stroke="black" d="M465.202,-71.6966C456.396,-63.135 445.618,-52.6562 435.999,-43.3045"/>
<polygon fill="black" stroke="black" points="438.203,-40.5657 428.593,-36.1043 433.323,-45.5846 438.203,-40.5657"/>
<g id="a_edge6&#45;headlabel"><a xlink:href="dir_000022_000029.html" target="_top" xlink:title="4">
<text text-anchor="middle" x="442.759" y="-38.5356" font-family="Arial" font-size="10.00">4</text>
</a>
</g>
</g>
<!-- dir_ce67256a592a30cebead85145f13016b -->
<g id="node3" class="node"><title>dir_ce67256a592a30cebead85145f13016b</title>
<g id="a_node3"><a xlink:href="dir_ce67256a592a30cebead85145f13016b.html" target="_top" xlink:title="events">
<polygon fill="white" stroke="black" points="438,-108 384,-108 384,-72 438,-72 438,-108"/>
<text text-anchor="middle" x="411" y="-87.5" font-family="Arial" font-size="10.00">events</text>
</a>
</g>
</g>
<!-- dir_eca4379131abe55f66c454f8d4bf8fd2 -->
<g id="node9" class="node"><title>dir_eca4379131abe55f66c454f8d4bf8fd2</title>
<g id="a_node9"><a xlink:href="dir_eca4379131abe55f66c454f8d4bf8fd2.html" target="_top" xlink:title="client">
<polygon fill="white" stroke="red" points="438,-187 384,-187 384,-151 438,-151 438,-187"/>
<text text-anchor="middle" x="411" y="-166.5" font-family="Arial" font-size="10.00">client</text>
</a>
</g>
</g>
<!-- dir_ce67256a592a30cebead85145f13016b&#45;&gt;dir_eca4379131abe55f66c454f8d4bf8fd2 -->
<g id="edge4" class="edge"><title>dir_ce67256a592a30cebead85145f13016b&#45;&gt;dir_eca4379131abe55f66c454f8d4bf8fd2</title>
<path fill="none" stroke="black" d="M405.285,-108.041C404.251,-117.603 403.992,-129.759 404.507,-140.622"/>
<polygon fill="black" stroke="black" points="401.04,-141.202 405.28,-150.911 408.021,-140.677 401.04,-141.202"/>
<g id="a_edge4&#45;headlabel"><a xlink:href="dir_000023_000005.html" target="_top" xlink:title="2">
<text text-anchor="middle" x="397.94" y="-135.33" font-family="Arial" font-size="10.00">2</text>
</a>
</g>
</g>
<!-- dir_10116480faa7a12f8318e49e28b01a1a -->
<g id="node4" class="node"><title>dir_10116480faa7a12f8318e49e28b01a1a</title>
<g id="a_node4"><a xlink:href="dir_10116480faa7a12f8318e49e28b01a1a.html" target="_top" xlink:title="frontend">
<polygon fill="white" stroke="black" points="366,-108 312,-108 312,-72 366,-72 366,-108"/>
<text text-anchor="middle" x="339" y="-87.5" font-family="Arial" font-size="10.00">frontend</text>
</a>
</g>
</g>
<!-- dir_10116480faa7a12f8318e49e28b01a1a&#45;&gt;dir_3d69f64eaf81436fe2b22361382717e5 -->
<g id="edge7" class="edge"><title>dir_10116480faa7a12f8318e49e28b01a1a&#45;&gt;dir_3d69f64eaf81436fe2b22361382717e5</title>
<path fill="none" stroke="black" d="M356.798,-71.6966C365.604,-63.135 376.382,-52.6562 386.001,-43.3045"/>
<polygon fill="black" stroke="black" points="388.677,-45.5846 393.407,-36.1043 383.797,-40.5657 388.677,-45.5846"/>
<g id="a_edge7&#45;headlabel"><a xlink:href="dir_000024_000029.html" target="_top" xlink:title="2">
<text text-anchor="middle" x="388.079" y="-47.6261" font-family="Arial" font-size="10.00">2</text>
</a>
</g>
</g>
<!-- dir_141e1c247f705a35a4954521f0b42212 -->
<g id="node5" class="node"><title>dir_141e1c247f705a35a4954521f0b42212</title>
<g id="a_node5"><a xlink:href="dir_141e1c247f705a35a4954521f0b42212.html" target="_top" xlink:title="graphics">
<polygon fill="white" stroke="black" points="294,-108 240,-108 240,-72 294,-72 294,-108"/>
<text text-anchor="middle" x="267" y="-87.5" font-family="Arial" font-size="10.00">graphics</text>
</a>
</g>
</g>
<!-- dir_d45fdc541d3352466877a2a7df5d6b97 -->
<g id="node6" class="node"><title>dir_d45fdc541d3352466877a2a7df5d6b97</title>
<g id="a_node6"><a xlink:href="dir_d45fdc541d3352466877a2a7df5d6b97.html" target="_top" xlink:title="input">
<polygon fill="white" stroke="black" points="222,-108 168,-108 168,-72 222,-72 222,-108"/>
<text text-anchor="middle" x="195" y="-87.5" font-family="Arial" font-size="10.00">input</text>
</a>
</g>
</g>
<!-- dir_d45fdc541d3352466877a2a7df5d6b97&#45;&gt;dir_3d69f64eaf81436fe2b22361382717e5 -->
<g id="edge5" class="edge"><title>dir_d45fdc541d3352466877a2a7df5d6b97&#45;&gt;dir_3d69f64eaf81436fe2b22361382717e5</title>
<path fill="none" stroke="black" d="M210.048,-71.8134C216.019,-65.9727 223.299,-59.9346 231,-56 276.705,-32.6488 336.05,-24.0346 373.842,-20.857"/>
<polygon fill="black" stroke="black" points="374.193,-24.3406 383.901,-20.0972 373.666,-17.3605 374.193,-24.3406"/>
<g id="a_edge5&#45;headlabel"><a xlink:href="dir_000026_000029.html" target="_top" xlink:title="9">
<text text-anchor="middle" x="370.822" y="-24.9425" font-family="Arial" font-size="10.00">9</text>
</a>
</g>
</g>
<!-- dir_8dbe33107821399bda0ded9731bf5972 -->
<g id="node7" class="node"><title>dir_8dbe33107821399bda0ded9731bf5972</title>
<g id="a_node7"><a xlink:href="dir_8dbe33107821399bda0ded9731bf5972.html" target="_top" xlink:title="logging">
<polygon fill="white" stroke="black" points="150,-108 96,-108 96,-72 150,-72 150,-108"/>
<text text-anchor="middle" x="123" y="-87.5" font-family="Arial" font-size="10.00">logging</text>
</a>
</g>
</g>
<!-- dir_b1b905262df25f24ffcbe409e5239b9e -->
<g id="node8" class="node"><title>dir_b1b905262df25f24ffcbe409e5239b9e</title>
<g id="a_node8"><a xlink:href="dir_b1b905262df25f24ffcbe409e5239b9e.html" target="_top" xlink:title="time">
<polygon fill="white" stroke="black" points="78,-108 24,-108 24,-72 78,-72 78,-108"/>
<text text-anchor="middle" x="51" y="-87.5" font-family="Arial" font-size="10.00">time</text>
</a>
</g>
</g>
<!-- dir_eca4379131abe55f66c454f8d4bf8fd2&#45;&gt;dir_ce67256a592a30cebead85145f13016b -->
<g id="edge1" class="edge"><title>dir_eca4379131abe55f66c454f8d4bf8fd2&#45;&gt;dir_ce67256a592a30cebead85145f13016b</title>
<path fill="none" stroke="black" d="M416.72,-150.911C417.751,-141.341 418.008,-129.183 417.491,-118.323"/>
<polygon fill="black" stroke="black" points="420.957,-117.749 416.715,-108.041 413.977,-118.276 420.957,-117.749"/>
<g id="a_edge1&#45;headlabel"><a xlink:href="dir_000005_000023.html" target="_top" xlink:title="2">
<text text-anchor="middle" x="424.059" y="-118.62" font-family="Arial" font-size="10.00">2</text>
</a>
</g>
</g>
<!-- dir_eca4379131abe55f66c454f8d4bf8fd2&#45;&gt;dir_10116480faa7a12f8318e49e28b01a1a -->
<g id="edge3" class="edge"><title>dir_eca4379131abe55f66c454f8d4bf8fd2&#45;&gt;dir_10116480faa7a12f8318e49e28b01a1a</title>
<path fill="none" stroke="black" d="M383.806,-150.718C380.7,-148.286 377.688,-145.692 375,-143 367.203,-135.191 359.979,-125.5 354.081,-116.607"/>
<polygon fill="black" stroke="black" points="356.975,-114.635 348.652,-108.08 351.07,-118.395 356.975,-114.635"/>
<g id="a_edge3&#45;headlabel"><a xlink:href="dir_000005_000024.html" target="_top" xlink:title="1">
<text text-anchor="middle" x="361.3" y="-113.643" font-family="Arial" font-size="10.00">1</text>
</a>
</g>
</g>
<!-- dir_eca4379131abe55f66c454f8d4bf8fd2&#45;&gt;dir_3d69f64eaf81436fe2b22361382717e5 -->
<g id="edge2" class="edge"><title>dir_eca4379131abe55f66c454f8d4bf8fd2&#45;&gt;dir_3d69f64eaf81436fe2b22361382717e5</title>
<path fill="none" stroke="black" d="M438.314,-168.452C484.302,-168.562 574.129,-165.771 594,-143 619.424,-113.867 618.483,-85.9283 594,-56 575.931,-33.9121 496.143,-24.7047 448.087,-21.1085"/>
<polygon fill="black" stroke="black" points="448.279,-17.6134 438.058,-20.4047 447.788,-24.5963 448.279,-17.6134"/>
<g id="a_edge2&#45;headlabel"><a xlink:href="dir_000005_000029.html" target="_top" xlink:title="36">
<text text-anchor="middle" x="452.063" y="-12.5327" font-family="Arial" font-size="10.00">36</text>
</a>
</g>
</g>
</g>
</svg>
