<?xml version="1.0" encoding="UTF-8" standalone="no"?>
<!DOCTYPE svg PUBLIC "-//W3C//DTD SVG 1.1//EN"
 "http://www.w3.org/Graphics/SVG/1.1/DTD/svg11.dtd">
<!-- Generated by graphviz version 2.38.0 (20140413.2041)
 -->
<!-- Title: include/platforms/mesa/mir_toolkit Pages: 1 -->
<svg width="190pt" height="159pt"
 viewBox="0.00 0.00 190.00 159.00" xmlns="http://www.w3.org/2000/svg" xmlns:xlink="http://www.w3.org/1999/xlink">
<g id="graph0" class="graph" transform="scale(1 1) rotate(0) translate(4 155)">
<title>include/platforms/mesa/mir_toolkit</title>
<polygon fill="white" stroke="none" points="-4,4 -4,-155 186,-155 186,4 -4,4"/>
<g id="clust1" class="cluster"><title>clusterdir_6ca103df1208d58a6c212d058511044b</title>
<g id="a_clust1"><a xlink:href="dir_6ca103df1208d58a6c212d058511044b.html" target="_top" xlink:title="mesa">
<polygon fill="#ddddee" stroke="black" points="8,-56 8,-143 174,-143 174,-56 8,-56"/>
<text text-anchor="middle" x="91" y="-131" font-family="Arial" font-size="10.00">mesa</text>
</a>
</g>
</g>
<g id="clust2" class="cluster"><title>clusterdir_2c6992b6c66fc6fa26160b8a7bea0620</title>
<g id="a_clust2"><a xlink:href="dir_2c6992b6c66fc6fa26160b8a7bea0620.html" target="_top">
<polygon fill="#eeeeff" stroke="black" points="16,-64 16,-116 166,-116 166,-64 16,-64"/>
</a>
</g>
</g>
<!-- dir_2c6992b6c66fc6fa26160b8a7bea0620 -->
<g id="node1" class="node"><title>dir_2c6992b6c66fc6fa26160b8a7bea0620</title>
<text text-anchor="middle" x="127" y="-87.5" font-family="Arial" font-size="10.00">mir_toolkit</text>
</g>
<!-- dir_8ee4ecce9ad63a6c93b3a5983e4fdad2 -->
<g id="node2" class="node"><title>dir_8ee4ecce9ad63a6c93b3a5983e4fdad2</title>
<g id="a_node2"><a xlink:href="dir_8ee4ecce9ad63a6c93b3a5983e4fdad2.html" target="_top" xlink:title="mesa">
<polygon fill="white" stroke="black" points="78,-108 24,-108 24,-72 78,-72 78,-108"/>
<text text-anchor="middle" x="51" y="-87.5" font-family="Arial" font-size="10.00">mesa</text>
</a>
</g>
</g>
<!-- dir_eca4379131abe55f66c454f8d4bf8fd2 -->
<g id="node3" class="node"><title>dir_eca4379131abe55f66c454f8d4bf8fd2</title>
<g id="a_node3"><a xlink:href="dir_eca4379131abe55f66c454f8d4bf8fd2.html" target="_top" xlink:title="client">
<polygon fill="white" stroke="red" points="78,-36 24,-36 24,-0 78,-0 78,-36"/>
<text text-anchor="middle" x="51" y="-15.5" font-family="Arial" font-size="10.00">client</text>
</a>
</g>
</g>
<!-- dir_8ee4ecce9ad63a6c93b3a5983e4fdad2&#45;&gt;dir_eca4379131abe55f66c454f8d4bf8fd2 -->
<g id="edge1" class="edge"><title>dir_8ee4ecce9ad63a6c93b3a5983e4fdad2&#45;&gt;dir_eca4379131abe55f66c454f8d4bf8fd2</title>
<path fill="none" stroke="black" d="M51,-71.6966C51,-63.9827 51,-54.7125 51,-46.1124"/>
<polygon fill="black" stroke="black" points="54.5001,-46.1043 51,-36.1043 47.5001,-46.1044 54.5001,-46.1043"/>
<g id="a_edge1&#45;headlabel"><a xlink:href="dir_000044_000005.html" target="_top" xlink:title="1">
<text text-anchor="middle" x="57.3393" y="-47.199" font-family="Arial" font-size="10.00">1</text>
</a>
</g>
</g>
</g>
</svg>
