<?xml version="1.0" encoding="UTF-8" standalone="no"?>
<!DOCTYPE svg PUBLIC "-//W3C//DTD SVG 1.1//EN"
 "http://www.w3.org/Graphics/SVG/1.1/DTD/svg11.dtd">
<!-- Generated by graphviz version 2.43.0 (0)
 -->
<!-- Title: examples Pages: 1 -->
<svg width="261pt" height="204pt"
 viewBox="0.00 0.00 261.00 204.00" xmlns="http://www.w3.org/2000/svg" xmlns:xlink="http://www.w3.org/1999/xlink">
<g id="graph0" class="graph" transform="scale(1 1) rotate(0) translate(4 200)">
<title>examples</title>
<polygon fill="white" stroke="transparent" points="-4,4 -4,-200 257,-200 257,4 -4,4"/>
<g id="clust1" class="cluster">
<title>clusterdir_d28a4824dc47e487b107a5db32ef43c4</title>
<g id="a_clust1"><a xlink:href="dir_d28a4824dc47e487b107a5db32ef43c4.html" target="_top">
<polygon fill="#eeeeff" stroke="black" points="8,-64 8,-188 245,-188 245,-64 8,-64"/>
</a>
</g>
</g>
<!-- dir_d28a4824dc47e487b107a5db32ef43c4 -->
<g id="node1" class="node">
<title>dir_d28a4824dc47e487b107a5db32ef43c4</title>
<text text-anchor="middle" x="207" y="-159.5" font-family="Arial" font-size="10.00">examples</text>
</g>
<!-- dir_603a3fb0fb569e6a215a7f888c21b720 -->
<g id="node2" class="node">
<title>dir_603a3fb0fb569e6a215a7f888c21b720</title>
<g id="a_node2"><a xlink:href="dir_603a3fb0fb569e6a215a7f888c21b720.html" target="_top" xlink:title="example&#45;server&#45;lib">
<polygon fill="white" stroke="black" points="112,-108 16,-108 16,-72 112,-72 112,-108"/>
<text text-anchor="middle" x="64" y="-87.5" font-family="Arial" font-size="10.00">example&#45;server&#45;lib</text>
</a>
</g>
</g>
<!-- dir_d44c64559bbebec7f509842c48db8b23 -->
<g id="node5" class="node">
<title>dir_d44c64559bbebec7f509842c48db8b23</title>
<g id="a_node5"><a xlink:href="dir_d44c64559bbebec7f509842c48db8b23.html" target="_top" xlink:title="include">
<polygon fill="white" stroke="red" points="167,-36 113,-36 113,0 167,0 167,-36"/>
<text text-anchor="middle" x="140" y="-15.5" font-family="Arial" font-size="10.00">include</text>
</a>
</g>
</g>
<!-- dir_603a3fb0fb569e6a215a7f888c21b720&#45;&gt;dir_d44c64559bbebec7f509842c48db8b23 -->
<g id="edge5" class="edge">
<title>dir_603a3fb0fb569e6a215a7f888c21b720&#45;&gt;dir_d44c64559bbebec7f509842c48db8b23</title>
<path fill="none" stroke="black" d="M82.79,-71.7C92.17,-63.05 103.68,-52.45 113.91,-43.03"/>
<polygon fill="black" stroke="black" points="116.45,-45.45 121.43,-36.1 111.7,-40.3 116.45,-45.45"/>
<g id="a_edge5&#45;headlabel"><a xlink:href="dir_000002_000006.html" target="_top" xlink:title="25">
<text text-anchor="middle" x="115.72" y="-47.48" font-family="Arial" font-size="10.00">25</text>
</a>
</g>
</g>
<!-- dir_bbaec19dfc87f6b1b9f85f9dadd53d19 -->
<g id="node3" class="node">
<title>dir_bbaec19dfc87f6b1b9f85f9dadd53d19</title>
<g id="a_node3"><a xlink:href="dir_bbaec19dfc87f6b1b9f85f9dadd53d19.html" target="_top" xlink:title="miral&#45;kiosk">
<polygon fill="white" stroke="black" points="80,-180 16,-180 16,-144 80,-144 80,-180"/>
<text text-anchor="middle" x="48" y="-159.5" font-family="Arial" font-size="10.00">miral&#45;kiosk</text>
</a>
</g>
</g>
<!-- dir_bbaec19dfc87f6b1b9f85f9dadd53d19&#45;&gt;dir_603a3fb0fb569e6a215a7f888c21b720 -->
<g id="edge1" class="edge">
<title>dir_bbaec19dfc87f6b1b9f85f9dadd53d19&#45;&gt;dir_603a3fb0fb569e6a215a7f888c21b720</title>
<path fill="none" stroke="black" d="M51.96,-143.7C53.72,-135.98 55.84,-126.71 57.8,-118.11"/>
<polygon fill="black" stroke="black" points="61.27,-118.63 60.09,-108.1 54.45,-117.07 61.27,-118.63"/>
<g id="a_edge1&#45;headlabel"><a xlink:href="dir_000003_000002.html" target="_top" xlink:title="1">
<text text-anchor="middle" x="63.24" y="-120.27" font-family="Arial" font-size="10.00">1</text>
</a>
</g>
</g>
<!-- dir_bbaec19dfc87f6b1b9f85f9dadd53d19&#45;&gt;dir_d44c64559bbebec7f509842c48db8b23 -->
<g id="edge2" class="edge">
<title>dir_bbaec19dfc87f6b1b9f85f9dadd53d19&#45;&gt;dir_d44c64559bbebec7f509842c48db8b23</title>
<path fill="none" stroke="black" d="M80.36,-144.68C94.9,-135.75 111.01,-123.36 121,-108 132.95,-89.62 137.53,-65.02 139.22,-46.34"/>
<polygon fill="black" stroke="black" points="142.72,-46.33 139.91,-36.11 135.74,-45.85 142.72,-46.33"/>
<g id="a_edge2&#45;headlabel"><a xlink:href="dir_000003_000006.html" target="_top" xlink:title="15">
<text text-anchor="middle" x="145.31" y="-47.61" font-family="Arial" font-size="10.00">15</text>
</a>
</g>
</g>
<!-- dir_f12490db20c962b051f50ee48227d2d9 -->
<g id="node4" class="node">
<title>dir_f12490db20c962b051f50ee48227d2d9</title>
<g id="a_node4"><a xlink:href="dir_f12490db20c962b051f50ee48227d2d9.html" target="_top" xlink:title="miral&#45;shell">
<polygon fill="white" stroke="red" points="159.5,-180 98.5,-180 98.5,-144 159.5,-144 159.5,-180"/>
<text text-anchor="middle" x="129" y="-159.5" font-family="Arial" font-size="10.00">miral&#45;shell</text>
</a>
</g>
</g>
<!-- dir_f12490db20c962b051f50ee48227d2d9&#45;&gt;dir_603a3fb0fb569e6a215a7f888c21b720 -->
<g id="edge3" class="edge">
<title>dir_f12490db20c962b051f50ee48227d2d9&#45;&gt;dir_603a3fb0fb569e6a215a7f888c21b720</title>
<path fill="none" stroke="black" d="M112.93,-143.7C105.06,-135.22 95.44,-124.86 86.83,-115.58"/>
<polygon fill="black" stroke="black" points="89.25,-113.05 79.88,-108.1 84.12,-117.81 89.25,-113.05"/>
<g id="a_edge3&#45;headlabel"><a xlink:href="dir_000004_000002.html" target="_top" xlink:title="6">
<text text-anchor="middle" x="93.78" y="-111.25" font-family="Arial" font-size="10.00">6</text>
</a>
</g>
</g>
<!-- dir_f12490db20c962b051f50ee48227d2d9&#45;&gt;dir_d44c64559bbebec7f509842c48db8b23 -->
<g id="edge4" class="edge">
<title>dir_f12490db20c962b051f50ee48227d2d9&#45;&gt;dir_d44c64559bbebec7f509842c48db8b23</title>
<path fill="none" stroke="black" d="M139.63,-143.56C145.1,-133.54 151.2,-120.51 154,-108 158.27,-88.92 156.94,-83.33 154,-64 153.11,-58.14 151.6,-51.98 149.89,-46.18"/>
<polygon fill="black" stroke="black" points="153.09,-44.69 146.7,-36.24 146.43,-46.83 153.09,-44.69"/>
<g id="a_edge4&#45;headlabel"><a xlink:href="dir_000004_000006.html" target="_top" xlink:title="12">
<text text-anchor="middle" x="156.89" y="-44.74" font-family="Arial" font-size="10.00">12</text>
</a>
</g>
</g>
</g>
</svg>
