<?xml version="1.0" encoding="UTF-8" standalone="no"?>
<!DOCTYPE svg PUBLIC "-//W3C//DTD SVG 1.1//EN"
 "http://www.w3.org/Graphics/SVG/1.1/DTD/svg11.dtd">
<!-- Generated by graphviz version 2.40.1 (20161225.0304)
 -->
<!-- Title: include/client Pages: 1 -->
<svg width="182pt" height="231pt"
 viewBox="0.00 0.00 182.00 231.00" xmlns="http://www.w3.org/2000/svg" xmlns:xlink="http://www.w3.org/1999/xlink">
<g id="graph0" class="graph" transform="scale(1 1) rotate(0) translate(4 227)">
<title>include/client</title>
<polygon fill="#ffffff" stroke="transparent" points="-4,4 -4,-227 178,-227 178,4 -4,4"/>
<g id="clust1" class="cluster">
<title>clusterdir_d44c64559bbebec7f509842c48db8b23</title>
<g id="a_clust1"><a xlink:href="dir_d44c64559bbebec7f509842c48db8b23.html" target="_top" xlink:title="include">
<polygon fill="#ddddee" stroke="#000000" points="8,-56 8,-215 166,-215 166,-56 8,-56"/>
<text text-anchor="middle" x="87" y="-203" font-family="Arial" font-size="10.00" fill="#000000">include</text>
</a>
</g>
</g>
<g id="clust2" class="cluster">
<title>clusterdir_eca4379131abe55f66c454f8d4bf8fd2</title>
<g id="a_clust2"><a xlink:href="dir_eca4379131abe55f66c454f8d4bf8fd2.html" target="_top">
<polygon fill="#eeeeff" stroke="#000000" points="16,-64 16,-188 158,-188 158,-64 16,-64"/>
</a>
</g>
</g>
<!-- dir_eca4379131abe55f66c454f8d4bf8fd2 -->
<g id="node1" class="node">
<title>dir_eca4379131abe55f66c454f8d4bf8fd2</title>
<text text-anchor="middle" x="123" y="-159.5" font-family="Arial" font-size="10.00" fill="#000000">client</text>
</g>
<!-- dir_922ddc82555d6e3e8c3ba93df0fc2d5e -->
<g id="node2" class="node">
<title>dir_922ddc82555d6e3e8c3ba93df0fc2d5e</title>
<g id="a_node2"><a xlink:href="dir_922ddc82555d6e3e8c3ba93df0fc2d5e.html" target="_top" xlink:title="mir">
<polygon fill="#ffffff" stroke="#ff0000" points="78,-180 24,-180 24,-144 78,-144 78,-180"/>
<text text-anchor="middle" x="51" y="-159.5" font-family="Arial" font-size="10.00" fill="#000000">mir</text>
</a>
</g>
</g>
<!-- dir_866c46951d19fd3fcfcc106369b0956c -->
<g id="node3" class="node">
<title>dir_866c46951d19fd3fcfcc106369b0956c</title>
<g id="a_node3"><a xlink:href="dir_866c46951d19fd3fcfcc106369b0956c.html" target="_top" xlink:title="mir_toolkit">
<polygon fill="#ffffff" stroke="#ff0000" points="86,-108 24,-108 24,-72 86,-72 86,-108"/>
<text text-anchor="middle" x="55" y="-87.5" font-family="Arial" font-size="10.00" fill="#000000">mir_toolkit</text>
</a>
</g>
</g>
<!-- dir_922ddc82555d6e3e8c3ba93df0fc2d5e&#45;&gt;dir_866c46951d19fd3fcfcc106369b0956c -->
<g id="edge1" class="edge">
<title>dir_922ddc82555d6e3e8c3ba93df0fc2d5e&#45;&gt;dir_866c46951d19fd3fcfcc106369b0956c</title>
<path fill="none" stroke="#000000" d="M52.0094,-143.8314C52.4372,-136.131 52.9459,-126.9743 53.4213,-118.4166"/>
<polygon fill="#000000" stroke="#000000" points="56.9169,-118.592 53.977,-108.4133 49.9276,-118.2037 56.9169,-118.592"/>
<g id="a_edge1&#45;headlabel"><a xlink:href="dir_000007_000009.html" target="_top" xlink:title="16">
<text text-anchor="middle" x="59.5525" y="-119.8386" font-family="Arial" font-size="10.00" fill="#000000">16</text>
</a>
</g>
</g>
<!-- dir_3d69f64eaf81436fe2b22361382717e5 -->
<g id="node4" class="node">
<title>dir_3d69f64eaf81436fe2b22361382717e5</title>
<g id="a_node4"><a xlink:href="dir_3d69f64eaf81436fe2b22361382717e5.html" target="_top" xlink:title="core">
<polygon fill="#ffffff" stroke="#ff0000" points="111,-36 57,-36 57,0 111,0 111,-36"/>
<text text-anchor="middle" x="84" y="-15.5" font-family="Arial" font-size="10.00" fill="#000000">core</text>
</a>
</g>
</g>
<!-- dir_922ddc82555d6e3e8c3ba93df0fc2d5e&#45;&gt;dir_3d69f64eaf81436fe2b22361382717e5 -->
<g id="edge2" class="edge">
<title>dir_922ddc82555d6e3e8c3ba93df0fc2d5e&#45;&gt;dir_3d69f64eaf81436fe2b22361382717e5</title>
<path fill="none" stroke="#000000" d="M71.4026,-143.5625C80.4941,-133.9675 90.2162,-121.4441 95,-108 102.1353,-87.9471 98.6644,-63.9694 93.8007,-45.8073"/>
<polygon fill="#000000" stroke="#000000" points="97.1268,-44.7126 90.9301,-36.1189 90.4152,-46.7012 97.1268,-44.7126"/>
<g id="a_edge2&#45;headlabel"><a xlink:href="dir_000007_000018.html" target="_top" xlink:title="4">
<text text-anchor="middle" x="100.8702" y="-44.8526" font-family="Arial" font-size="10.00" fill="#000000">4</text>
</a>
</g>
</g>
<!-- dir_866c46951d19fd3fcfcc106369b0956c&#45;&gt;dir_3d69f64eaf81436fe2b22361382717e5 -->
<g id="edge3" class="edge">
<title>dir_866c46951d19fd3fcfcc106369b0956c&#45;&gt;dir_3d69f64eaf81436fe2b22361382717e5</title>
<path fill="none" stroke="#000000" d="M62.3179,-71.8314C65.4876,-63.9617 69.27,-54.5712 72.7813,-45.8533"/>
<polygon fill="#000000" stroke="#000000" points="76.0939,-46.9968 76.5835,-36.4133 69.6008,-44.3815 76.0939,-46.9968"/>
<g id="a_edge3&#45;headlabel"><a xlink:href="dir_000009_000018.html" target="_top" xlink:title="32">
<text text-anchor="middle" x="77.3847" y="-48.8919" font-family="Arial" font-size="10.00" fill="#000000">32</text>
</a>
</g>
</g>
</g>
</svg>
