<?xml version="1.0" encoding="UTF-8" standalone="no"?>
<!DOCTYPE svg PUBLIC "-//W3C//DTD SVG 1.1//EN"
 "http://www.w3.org/Graphics/SVG/1.1/DTD/svg11.dtd">
<!-- Generated by graphviz version 2.43.0 (0)
 -->
<!-- Title: examples/miral&#45;shell Pages: 1 -->
<svg width="190pt" height="247pt"
 viewBox="0.00 0.00 190.00 247.00" xmlns="http://www.w3.org/2000/svg" xmlns:xlink="http://www.w3.org/1999/xlink">
<g id="graph0" class="graph" transform="scale(1 1) rotate(0) translate(4 243)">
<title>examples/miral&#45;shell</title>
<polygon fill="white" stroke="transparent" points="-4,4 -4,-243 186,-243 186,4 -4,4"/>
<g id="clust1" class="cluster">
<title>clusterdir_d28a4824dc47e487b107a5db32ef43c4</title>
<g id="a_clust1"><a xlink:href="dir_d28a4824dc47e487b107a5db32ef43c4.html" target="_top" xlink:title="examples">
<polygon fill="#feece5" stroke="#404040" stroke-dasharray="5,2" points="8,-8 8,-231 120,-231 120,-8 8,-8"/>
<text text-anchor="middle" x="64" y="-219" font-family="Arial" font-size="10.00">examples</text>
</a>
</g>
</g>
<g id="clust2" class="cluster">
<title>clusterdir_f12490db20c962b051f50ee48227d2d9</title>
<g id="a_clust2"><a xlink:href="dir_f12490db20c962b051f50ee48227d2d9.html" target="_top">
<polygon fill="#feece5" stroke="#404040" stroke-width="2" points="28,-80 28,-204 106,-204 106,-80 28,-80"/>
</a>
</g>
</g>
<!-- dir_603a3fb0fb569e6a215a7f888c21b720 -->
<g id="node1" class="node">
<title>dir_603a3fb0fb569e6a215a7f888c21b720</title>
<g id="a_node1"><a xlink:href="dir_603a3fb0fb569e6a215a7f888c21b720.html" target="_top" xlink:title="example&#45;server&#45;lib">
<polygon fill="#fb9f7e" stroke="#404040" points="112,-52 16,-52 16,-16 112,-16 112,-52"/>
<text text-anchor="middle" x="64" y="-31.5" font-family="Arial" font-size="10.00">example&#45;server&#45;lib</text>
</a>
</g>
</g>
<!-- dir_f12490db20c962b051f50ee48227d2d9 -->
<g id="node2" class="node">
<title>dir_f12490db20c962b051f50ee48227d2d9</title>
<text text-anchor="middle" x="67" y="-175.5" font-family="Arial" font-size="10.00">miral&#45;shell</text>
</g>
<!-- dir_f12490db20c962b051f50ee48227d2d9&#45;&gt;dir_603a3fb0fb569e6a215a7f888c21b720 -->
<g id="edge2" class="edge">
<title>dir_f12490db20c962b051f50ee48227d2d9&#45;&gt;dir_603a3fb0fb569e6a215a7f888c21b720</title>
<path fill="none" stroke="black" d="M80.56,-159.97C87.56,-150.09 95.37,-137.05 99,-124 104.25,-105.16 105.35,-98.5 99,-80 96.57,-72.92 92.52,-66.1 88.02,-59.99"/>
<polygon fill="black" stroke="black" points="90.72,-57.76 81.72,-52.17 85.27,-62.15 90.72,-57.76"/>
<g id="a_edge2&#45;headlabel"><a xlink:href="dir_000012_000003.html" target="_top" xlink:title="6">
<text text-anchor="middle" x="95.18" y="-56.28" font-family="Arial" font-size="10.00">6</text>
</a>
</g>
</g>
<!-- dir_0988342b392d39a3d145cc970e471b2a -->
<g id="node3" class="node">
<title>dir_0988342b392d39a3d145cc970e471b2a</title>
<g id="a_node3"><a xlink:href="dir_0988342b392d39a3d145cc970e471b2a.html" target="_top" xlink:title="spinner">
<polygon fill="#fb9f7e" stroke="#404040" points="90,-124 36,-124 36,-88 90,-88 90,-124"/>
<text text-anchor="middle" x="63" y="-103.5" font-family="Arial" font-size="10.00">spinner</text>
</a>
</g>
</g>
<!-- dir_f12490db20c962b051f50ee48227d2d9&#45;&gt;dir_0988342b392d39a3d145cc970e471b2a -->
<g id="edge1" class="edge">
<title>dir_f12490db20c962b051f50ee48227d2d9&#45;&gt;dir_0988342b392d39a3d145cc970e471b2a</title>
<path fill="none" stroke="black" d="M66.01,-159.7C65.57,-151.98 65.04,-142.71 64.55,-134.11"/>
<polygon fill="black" stroke="black" points="68.04,-133.89 63.98,-124.1 61.05,-134.29 68.04,-133.89"/>
<g id="a_edge1&#45;headlabel"><a xlink:href="dir_000012_000015.html" target="_top" xlink:title="1">
<text text-anchor="middle" x="71.08" y="-134.82" font-family="Arial" font-size="10.00">1</text>
</a>
</g>
</g>
<!-- dir_d44c64559bbebec7f509842c48db8b23 -->
<g id="node4" class="node">
<title>dir_d44c64559bbebec7f509842c48db8b23</title>
<g id="a_node4"><a xlink:href="dir_d44c64559bbebec7f509842c48db8b23.html" target="_top" xlink:title="include">
<polygon fill="none" stroke="red" points="182,-124 128,-124 128,-88 182,-88 182,-124"/>
<text text-anchor="middle" x="155" y="-103.5" font-family="Arial" font-size="10.00">include</text>
</a>
</g>
</g>
<!-- dir_f12490db20c962b051f50ee48227d2d9&#45;&gt;dir_d44c64559bbebec7f509842c48db8b23 -->
<g id="edge3" class="edge">
<title>dir_f12490db20c962b051f50ee48227d2d9&#45;&gt;dir_d44c64559bbebec7f509842c48db8b23</title>
<path fill="none" stroke="black" d="M88.75,-159.7C99.84,-150.88 113.47,-140.03 125.49,-130.47"/>
<polygon fill="black" stroke="black" points="127.85,-133.07 133.5,-124.1 123.49,-127.59 127.85,-133.07"/>
<g id="a_edge3&#45;headlabel"><a xlink:href="dir_000012_000006.html" target="_top" xlink:title="12">
<text text-anchor="middle" x="126.8" y="-135.03" font-family="Arial" font-size="10.00">12</text>
</a>
</g>
</g>
<!-- dir_0988342b392d39a3d145cc970e471b2a&#45;&gt;dir_603a3fb0fb569e6a215a7f888c21b720 -->
<g id="edge4" class="edge">
<title>dir_0988342b392d39a3d145cc970e471b2a&#45;&gt;dir_603a3fb0fb569e6a215a7f888c21b720</title>
<path fill="none" stroke="black" d="M63.25,-87.7C63.36,-79.98 63.49,-70.71 63.61,-62.11"/>
<polygon fill="black" stroke="black" points="67.11,-62.15 63.76,-52.1 60.11,-62.05 67.11,-62.15"/>
<g id="a_edge4&#45;headlabel"><a xlink:href="dir_000015_000003.html" target="_top" xlink:title="3">
<text text-anchor="middle" x="69.9" y="-63.29" font-family="Arial" font-size="10.00">3</text>
</a>
</g>
</g>
</g>
</svg>
