<?xml version="1.0" encoding="UTF-8" standalone="no"?>
<!DOCTYPE svg PUBLIC "-//W3C//DTD SVG 1.1//EN"
 "http://www.w3.org/Graphics/SVG/1.1/DTD/svg11.dtd">
<!-- Generated by graphviz version 2.38.0 (20140413.2041)
 -->
<!-- Title: include Pages: 1 -->
<svg width="238pt" height="364pt"
 viewBox="0.00 0.00 238.00 364.00" xmlns="http://www.w3.org/2000/svg" xmlns:xlink="http://www.w3.org/1999/xlink">
<g id="graph0" class="graph" transform="scale(1 1) rotate(0) translate(4 360)">
<title>include</title>
<polygon fill="white" stroke="none" points="-4,4 -4,-360 234,-360 234,4 -4,4"/>
<g id="clust1" class="cluster"><title>clusterdir_d44c64559bbebec7f509842c48db8b23</title>
<g id="a_clust1"><a xlink:href="dir_d44c64559bbebec7f509842c48db8b23.html" target="_top">
<polygon fill="#eeeeff" stroke="black" points="8,-8 8,-348 222,-348 222,-8 8,-8"/>
</a>
</g>
</g>
<!-- dir_d44c64559bbebec7f509842c48db8b23 -->
<g id="node1" class="node"><title>dir_d44c64559bbebec7f509842c48db8b23</title>
<text text-anchor="middle" x="187" y="-319.5" font-family="Arial" font-size="10.00">include</text>
</g>
<!-- dir_eca4379131abe55f66c454f8d4bf8fd2 -->
<g id="node2" class="node"><title>dir_eca4379131abe55f66c454f8d4bf8fd2</title>
<g id="a_node2"><a xlink:href="dir_eca4379131abe55f66c454f8d4bf8fd2.html" target="_top" xlink:title="client">
<polygon fill="white" stroke="red" points="90,-196 36,-196 36,-160 90,-160 90,-196"/>
<text text-anchor="middle" x="63" y="-175.5" font-family="Arial" font-size="10.00">client</text>
</a>
</g>
</g>
<!-- dir_0966d06610f72609fd9aa4979c2b5a92 -->
<g id="node3" class="node"><title>dir_0966d06610f72609fd9aa4979c2b5a92</title>
<g id="a_node3"><a xlink:href="dir_0966d06610f72609fd9aa4979c2b5a92.html" target="_top" xlink:title="common">
<polygon fill="white" stroke="red" points="70,-124 16,-124 16,-88 70,-88 70,-124"/>
<text text-anchor="middle" x="43" y="-103.5" font-family="Arial" font-size="10.00">common</text>
</a>
</g>
</g>
<!-- dir_eca4379131abe55f66c454f8d4bf8fd2&#45;&gt;dir_0966d06610f72609fd9aa4979c2b5a92 -->
<g id="edge7" class="edge"><title>dir_eca4379131abe55f66c454f8d4bf8fd2&#45;&gt;dir_0966d06610f72609fd9aa4979c2b5a92</title>
<path fill="none" stroke="black" d="M52.1405,-159.697C49.1408,-151.983 46.2656,-142.712 44.1511,-134.112"/>
<polygon fill="black" stroke="black" points="47.5222,-133.141 41.9919,-124.104 40.6796,-134.618 47.5222,-133.141"/>
<g id="a_edge7&#45;headlabel"><a xlink:href="dir_000005_000020.html" target="_top" xlink:title="3">
<text text-anchor="middle" x="51.0556" y="-133.556" font-family="Arial" font-size="10.00">3</text>
</a>
</g>
</g>
<!-- dir_3d69f64eaf81436fe2b22361382717e5 -->
<g id="node5" class="node"><title>dir_3d69f64eaf81436fe2b22361382717e5</title>
<g id="a_node5"><a xlink:href="dir_3d69f64eaf81436fe2b22361382717e5.html" target="_top" xlink:title="core">
<polygon fill="white" stroke="red" points="136,-52 82,-52 82,-16 136,-16 136,-52"/>
<text text-anchor="middle" x="109" y="-31.5" font-family="Arial" font-size="10.00">core</text>
</a>
</g>
</g>
<!-- dir_eca4379131abe55f66c454f8d4bf8fd2&#45;&gt;dir_3d69f64eaf81436fe2b22361382717e5 -->
<g id="edge6" class="edge"><title>dir_eca4379131abe55f66c454f8d4bf8fd2&#45;&gt;dir_3d69f64eaf81436fe2b22361382717e5</title>
<path fill="none" stroke="black" d="M68.5487,-159.871C76.4231,-135.564 90.9179,-90.8187 100.249,-62.0132"/>
<polygon fill="black" stroke="black" points="103.679,-62.7812 103.432,-52.1893 97.0202,-60.6239 103.679,-62.7812"/>
<g id="a_edge6&#45;headlabel"><a xlink:href="dir_000005_000029.html" target="_top" xlink:title="36">
<text text-anchor="middle" x="105.273" y="-64.5758" font-family="Arial" font-size="10.00">36</text>
</a>
</g>
</g>
<!-- dir_0966d06610f72609fd9aa4979c2b5a92&#45;&gt;dir_eca4379131abe55f66c454f8d4bf8fd2 -->
<g id="edge11" class="edge"><title>dir_0966d06610f72609fd9aa4979c2b5a92&#45;&gt;dir_eca4379131abe55f66c454f8d4bf8fd2</title>
<path fill="none" stroke="black" d="M53.782,-124.104C56.7838,-131.791 59.6665,-141.054 61.7941,-149.665"/>
<polygon fill="black" stroke="black" points="58.4299,-150.667 63.9719,-159.697 65.2706,-149.182 58.4299,-150.667"/>
<g id="a_edge11&#45;headlabel"><a xlink:href="dir_000020_000005.html" target="_top" xlink:title="2">
<text text-anchor="middle" x="54.8927" y="-145.256" font-family="Arial" font-size="10.00">2</text>
</a>
</g>
</g>
<!-- dir_0966d06610f72609fd9aa4979c2b5a92&#45;&gt;dir_3d69f64eaf81436fe2b22361382717e5 -->
<g id="edge12" class="edge"><title>dir_0966d06610f72609fd9aa4979c2b5a92&#45;&gt;dir_3d69f64eaf81436fe2b22361382717e5</title>
<path fill="none" stroke="black" d="M59.3146,-87.6966C67.307,-79.2198 77.0715,-68.8636 85.8221,-59.5826"/>
<polygon fill="black" stroke="black" points="88.5595,-61.7813 92.8731,-52.1043 83.4663,-56.9792 88.5595,-61.7813"/>
<g id="a_edge12&#45;headlabel"><a xlink:href="dir_000020_000029.html" target="_top" xlink:title="15">
<text text-anchor="middle" x="88.1594" y="-63.8445" font-family="Arial" font-size="10.00">15</text>
</a>
</g>
</g>
<!-- dir_e22a04079b11717bc80a8f8a512e592a -->
<g id="node4" class="node"><title>dir_e22a04079b11717bc80a8f8a512e592a</title>
<g id="a_node4"><a xlink:href="dir_e22a04079b11717bc80a8f8a512e592a.html" target="_top" xlink:title="cookie">
<polygon fill="white" stroke="red" points="142,-340 88,-340 88,-304 142,-304 142,-340"/>
<text text-anchor="middle" x="115" y="-319.5" font-family="Arial" font-size="10.00">cookie</text>
</a>
</g>
</g>
<!-- dir_f5fbc7f007a2ec1b5077eb888dc4db14 -->
<g id="node6" class="node"><title>dir_f5fbc7f007a2ec1b5077eb888dc4db14</title>
<g id="a_node6"><a xlink:href="dir_f5fbc7f007a2ec1b5077eb888dc4db14.html" target="_top" xlink:title="miral">
<polygon fill="white" stroke="red" points="110,-268 56,-268 56,-232 110,-232 110,-268"/>
<text text-anchor="middle" x="83" y="-247.5" font-family="Arial" font-size="10.00">miral</text>
</a>
</g>
</g>
<!-- dir_f5fbc7f007a2ec1b5077eb888dc4db14&#45;&gt;dir_eca4379131abe55f66c454f8d4bf8fd2 -->
<g id="edge8" class="edge"><title>dir_f5fbc7f007a2ec1b5077eb888dc4db14&#45;&gt;dir_eca4379131abe55f66c454f8d4bf8fd2</title>
<path fill="none" stroke="black" d="M78.0562,-231.697C75.828,-223.898 73.1453,-214.509 70.6655,-205.829"/>
<polygon fill="black" stroke="black" points="73.9996,-204.758 67.887,-196.104 67.2689,-206.681 73.9996,-204.758"/>
<g id="a_edge8&#45;headlabel"><a xlink:href="dir_000014_000005.html" target="_top" xlink:title="3">
<text text-anchor="middle" x="77.717" y="-204.934" font-family="Arial" font-size="10.00">3</text>
</a>
</g>
</g>
<!-- dir_f5fbc7f007a2ec1b5077eb888dc4db14&#45;&gt;dir_3d69f64eaf81436fe2b22361382717e5 -->
<g id="edge9" class="edge"><title>dir_f5fbc7f007a2ec1b5077eb888dc4db14&#45;&gt;dir_3d69f64eaf81436fe2b22361382717e5</title>
<path fill="none" stroke="black" d="M89.3698,-231.582C92.8264,-221.359 96.8264,-208.109 99,-196 107.321,-149.644 109.025,-94.7136 109.215,-62.479"/>
<polygon fill="black" stroke="black" points="112.715,-62.0792 109.227,-52.075 105.715,-62.0708 112.715,-62.0792"/>
<g id="a_edge9&#45;headlabel"><a xlink:href="dir_000014_000029.html" target="_top" xlink:title="18">
<text text-anchor="middle" x="115.55" y="-63.1771" font-family="Arial" font-size="10.00">18</text>
</a>
</g>
</g>
<!-- dir_2559567b361f07c773f9d9dac257f09a -->
<g id="node7" class="node"><title>dir_2559567b361f07c773f9d9dac257f09a</title>
<g id="a_node7"><a xlink:href="dir_2559567b361f07c773f9d9dac257f09a.html" target="_top" xlink:title="renderer">
<polygon fill="white" stroke="red" points="202,-124 148,-124 148,-88 202,-88 202,-124"/>
<text text-anchor="middle" x="175" y="-103.5" font-family="Arial" font-size="10.00">renderer</text>
</a>
</g>
</g>
<!-- dir_2559567b361f07c773f9d9dac257f09a&#45;&gt;dir_3d69f64eaf81436fe2b22361382717e5 -->
<g id="edge10" class="edge"><title>dir_2559567b361f07c773f9d9dac257f09a&#45;&gt;dir_3d69f64eaf81436fe2b22361382717e5</title>
<path fill="none" stroke="black" d="M158.685,-87.6966C150.693,-79.2198 140.928,-68.8636 132.178,-59.5826"/>
<polygon fill="black" stroke="black" points="134.534,-56.9792 125.127,-52.1043 129.441,-61.7813 134.534,-56.9792"/>
<g id="a_edge10&#45;headlabel"><a xlink:href="dir_000033_000029.html" target="_top" xlink:title="2">
<text text-anchor="middle" x="139.065" y="-55.1468" font-family="Arial" font-size="10.00">2</text>
</a>
</g>
</g>
<!-- dir_59dc2ee39f03ca117030a43005a438e2 -->
<g id="node8" class="node"><title>dir_59dc2ee39f03ca117030a43005a438e2</title>
<g id="a_node8"><a xlink:href="dir_59dc2ee39f03ca117030a43005a438e2.html" target="_top" xlink:title="renderers">
<polygon fill="white" stroke="red" points="205.5,-268 148.5,-268 148.5,-232 205.5,-232 205.5,-268"/>
<text text-anchor="middle" x="177" y="-247.5" font-family="Arial" font-size="10.00">renderers</text>
</a>
</g>
</g>
<!-- dir_69f6b0b437b9d7106ae46b3b241ba72b -->
<g id="node9" class="node"><title>dir_69f6b0b437b9d7106ae46b3b241ba72b</title>
<g id="a_node9"><a xlink:href="dir_69f6b0b437b9d7106ae46b3b241ba72b.html" target="_top" xlink:title="test">
<polygon fill="white" stroke="red" points="70,-340 16,-340 16,-304 70,-304 70,-340"/>
<text text-anchor="middle" x="43" y="-319.5" font-family="Arial" font-size="10.00">test</text>
</a>
</g>
</g>
<!-- dir_69f6b0b437b9d7106ae46b3b241ba72b&#45;&gt;dir_eca4379131abe55f66c454f8d4bf8fd2 -->
<g id="edge1" class="edge"><title>dir_69f6b0b437b9d7106ae46b3b241ba72b&#45;&gt;dir_eca4379131abe55f66c454f8d4bf8fd2</title>
<path fill="none" stroke="black" d="M42.5167,-303.804C42.3023,-285.779 42.7843,-256.699 47,-232 48.4716,-223.378 50.9187,-214.189 53.4618,-205.925"/>
<polygon fill="black" stroke="black" points="56.7938,-206.997 56.5524,-196.404 50.1358,-204.835 56.7938,-206.997"/>
<g id="a_edge1&#45;headlabel"><a xlink:href="dir_000041_000005.html" target="_top" xlink:title="11">
<text text-anchor="middle" x="58.3845" y="-208.792" font-family="Arial" font-size="10.00">11</text>
</a>
</g>
</g>
<!-- dir_69f6b0b437b9d7106ae46b3b241ba72b&#45;&gt;dir_0966d06610f72609fd9aa4979c2b5a92 -->
<g id="edge5" class="edge"><title>dir_69f6b0b437b9d7106ae46b3b241ba72b&#45;&gt;dir_0966d06610f72609fd9aa4979c2b5a92</title>
<path fill="none" stroke="black" d="M38.4674,-303.541C31.4014,-273.919 19.3275,-211.963 27,-160 28.2776,-151.347 30.6686,-142.149 33.2201,-133.887"/>
<polygon fill="black" stroke="black" points="36.5499,-134.965 36.3478,-124.372 29.8999,-132.779 36.5499,-134.965"/>
<g id="a_edge5&#45;headlabel"><a xlink:href="dir_000041_000020.html" target="_top" xlink:title="8">
<text text-anchor="middle" x="38.1247" y="-136.766" font-family="Arial" font-size="10.00">8</text>
</a>
</g>
</g>
<!-- dir_69f6b0b437b9d7106ae46b3b241ba72b&#45;&gt;dir_3d69f64eaf81436fe2b22361382717e5 -->
<g id="edge4" class="edge"><title>dir_69f6b0b437b9d7106ae46b3b241ba72b&#45;&gt;dir_3d69f64eaf81436fe2b22361382717e5</title>
<path fill="none" stroke="black" d="M70.0284,-305.819C89.6123,-294.185 113.568,-278.411 119,-268 154.1,-200.73 132.452,-107.088 118.33,-61.7335"/>
<polygon fill="black" stroke="black" points="121.605,-60.4865 115.197,-52.0492 114.945,-62.641 121.605,-60.4865"/>
<g id="a_edge4&#45;headlabel"><a xlink:href="dir_000041_000029.html" target="_top" xlink:title="12">
<text text-anchor="middle" x="125.413" y="-60.5328" font-family="Arial" font-size="10.00">12</text>
</a>
</g>
</g>
<!-- dir_69f6b0b437b9d7106ae46b3b241ba72b&#45;&gt;dir_f5fbc7f007a2ec1b5077eb888dc4db14 -->
<g id="edge3" class="edge"><title>dir_69f6b0b437b9d7106ae46b3b241ba72b&#45;&gt;dir_f5fbc7f007a2ec1b5077eb888dc4db14</title>
<path fill="none" stroke="black" d="M52.8876,-303.697C57.4893,-295.644 63.0603,-285.894 68.1529,-276.982"/>
<polygon fill="black" stroke="black" points="71.3035,-278.523 73.2261,-268.104 65.2258,-275.05 71.3035,-278.523"/>
<g id="a_edge3&#45;headlabel"><a xlink:href="dir_000041_000014.html" target="_top" xlink:title="2">
<text text-anchor="middle" x="71.9853" y="-280.553" font-family="Arial" font-size="10.00">2</text>
</a>
</g>
</g>
<!-- dir_69f6b0b437b9d7106ae46b3b241ba72b&#45;&gt;dir_59dc2ee39f03ca117030a43005a438e2 -->
<g id="edge2" class="edge"><title>dir_69f6b0b437b9d7106ae46b3b241ba72b&#45;&gt;dir_59dc2ee39f03ca117030a43005a438e2</title>
<path fill="none" stroke="black" d="M70.1169,-306.834C89.9239,-296.488 117.043,-282.321 139.007,-270.847"/>
<polygon fill="black" stroke="black" points="140.825,-273.846 148.068,-266.114 137.584,-267.642 140.825,-273.846"/>
<g id="a_edge2&#45;headlabel"><a xlink:href="dir_000041_000036.html" target="_top" xlink:title="2">
<text text-anchor="middle" x="138.954" y="-275.527" font-family="Arial" font-size="10.00">2</text>
</a>
</g>
</g>
</g>
</svg>
