<?xml version="1.0" encoding="UTF-8" standalone="no"?>
<!DOCTYPE svg PUBLIC "-//W3C//DTD SVG 1.1//EN"
 "http://www.w3.org/Graphics/SVG/1.1/DTD/svg11.dtd">
<!-- Generated by graphviz version 2.40.1 (20161225.0304)
 -->
<!-- Title: examples Pages: 1 -->
<svg width="261pt" height="204pt"
 viewBox="0.00 0.00 261.00 204.00" xmlns="http://www.w3.org/2000/svg" xmlns:xlink="http://www.w3.org/1999/xlink">
<g id="graph0" class="graph" transform="scale(1 1) rotate(0) translate(4 200)">
<title>examples</title>
<polygon fill="#ffffff" stroke="transparent" points="-4,4 -4,-200 257,-200 257,4 -4,4"/>
<g id="clust1" class="cluster">
<title>clusterdir_d28a4824dc47e487b107a5db32ef43c4</title>
<g id="a_clust1"><a xlink:href="dir_d28a4824dc47e487b107a5db32ef43c4.html" target="_top">
<polygon fill="#eeeeff" stroke="#000000" points="8,-64 8,-188 245,-188 245,-64 8,-64"/>
</a>
</g>
</g>
<!-- dir_d28a4824dc47e487b107a5db32ef43c4 -->
<g id="node1" class="node">
<title>dir_d28a4824dc47e487b107a5db32ef43c4</title>
<text text-anchor="middle" x="207" y="-159.5" font-family="Arial" font-size="10.00" fill="#000000">examples</text>
</g>
<!-- dir_603a3fb0fb569e6a215a7f888c21b720 -->
<g id="node2" class="node">
<title>dir_603a3fb0fb569e6a215a7f888c21b720</title>
<g id="a_node2"><a xlink:href="dir_603a3fb0fb569e6a215a7f888c21b720.html" target="_top" xlink:title="example&#45;server&#45;lib">
<polygon fill="#ffffff" stroke="#000000" points="112,-108 16,-108 16,-72 112,-72 112,-108"/>
<text text-anchor="middle" x="64" y="-87.5" font-family="Arial" font-size="10.00" fill="#000000">example&#45;server&#45;lib</text>
</a>
</g>
</g>
<!-- dir_d44c64559bbebec7f509842c48db8b23 -->
<g id="node5" class="node">
<title>dir_d44c64559bbebec7f509842c48db8b23</title>
<g id="a_node5"><a xlink:href="dir_d44c64559bbebec7f509842c48db8b23.html" target="_top" xlink:title="include">
<polygon fill="#ffffff" stroke="#ff0000" points="167,-36 113,-36 113,0 167,0 167,-36"/>
<text text-anchor="middle" x="140" y="-15.5" font-family="Arial" font-size="10.00" fill="#000000">include</text>
</a>
</g>
</g>
<!-- dir_603a3fb0fb569e6a215a7f888c21b720&#45;&gt;dir_d44c64559bbebec7f509842c48db8b23 -->
<g id="edge5" class="edge">
<title>dir_603a3fb0fb569e6a215a7f888c21b720&#45;&gt;dir_d44c64559bbebec7f509842c48db8b23</title>
<path fill="none" stroke="#000000" d="M83.178,-71.8314C92.3588,-63.1337 103.5006,-52.5783 113.4776,-43.1265"/>
<polygon fill="#000000" stroke="#000000" points="115.9757,-45.5811 120.8281,-36.1628 111.1615,-40.4995 115.9757,-45.5811"/>
<g id="a_edge5&#45;headlabel"><a xlink:href="dir_000001_000005.html" target="_top" xlink:title="29">
<text text-anchor="middle" x="115.3189" y="-47.6145" font-family="Arial" font-size="10.00" fill="#000000">29</text>
</a>
</g>
</g>
<!-- dir_bbaec19dfc87f6b1b9f85f9dadd53d19 -->
<g id="node3" class="node">
<title>dir_bbaec19dfc87f6b1b9f85f9dadd53d19</title>
<g id="a_node3"><a xlink:href="dir_bbaec19dfc87f6b1b9f85f9dadd53d19.html" target="_top" xlink:title="miral&#45;kiosk">
<polygon fill="#ffffff" stroke="#000000" points="80,-180 16,-180 16,-144 80,-144 80,-180"/>
<text text-anchor="middle" x="48" y="-159.5" font-family="Arial" font-size="10.00" fill="#000000">miral&#45;kiosk</text>
</a>
</g>
</g>
<!-- dir_bbaec19dfc87f6b1b9f85f9dadd53d19&#45;&gt;dir_603a3fb0fb569e6a215a7f888c21b720 -->
<g id="edge2" class="edge">
<title>dir_bbaec19dfc87f6b1b9f85f9dadd53d19&#45;&gt;dir_603a3fb0fb569e6a215a7f888c21b720</title>
<path fill="none" stroke="#000000" d="M52.0375,-143.8314C53.7487,-136.131 55.7835,-126.9743 57.6852,-118.4166"/>
<polygon fill="#000000" stroke="#000000" points="61.1554,-118.9344 59.9082,-108.4133 54.3221,-117.4159 61.1554,-118.9344"/>
<g id="a_edge2&#45;headlabel"><a xlink:href="dir_000002_000001.html" target="_top" xlink:title="1">
<text text-anchor="middle" x="63.1474" y="-120.5593" font-family="Arial" font-size="10.00" fill="#000000">1</text>
</a>
</g>
</g>
<!-- dir_bbaec19dfc87f6b1b9f85f9dadd53d19&#45;&gt;dir_d44c64559bbebec7f509842c48db8b23 -->
<g id="edge1" class="edge">
<title>dir_bbaec19dfc87f6b1b9f85f9dadd53d19&#45;&gt;dir_d44c64559bbebec7f509842c48db8b23</title>
<path fill="none" stroke="#000000" d="M80.0044,-145.4864C94.6513,-136.3468 110.9465,-123.651 121,-108 132.815,-89.6066 137.4271,-65.1491 139.1612,-46.3726"/>
<polygon fill="#000000" stroke="#000000" points="142.657,-46.5534 139.8692,-36.3319 135.6744,-46.0609 142.657,-46.5534"/>
<g id="a_edge1&#45;headlabel"><a xlink:href="dir_000002_000005.html" target="_top" xlink:title="10">
<text text-anchor="middle" x="145.2365" y="-47.8388" font-family="Arial" font-size="10.00" fill="#000000">10</text>
</a>
</g>
</g>
<!-- dir_f12490db20c962b051f50ee48227d2d9 -->
<g id="node4" class="node">
<title>dir_f12490db20c962b051f50ee48227d2d9</title>
<g id="a_node4"><a xlink:href="dir_f12490db20c962b051f50ee48227d2d9.html" target="_top" xlink:title="miral&#45;shell">
<polygon fill="#ffffff" stroke="#ff0000" points="159.5,-180 98.5,-180 98.5,-144 159.5,-144 159.5,-180"/>
<text text-anchor="middle" x="129" y="-159.5" font-family="Arial" font-size="10.00" fill="#000000">miral&#45;shell</text>
</a>
</g>
</g>
<!-- dir_f12490db20c962b051f50ee48227d2d9&#45;&gt;dir_603a3fb0fb569e6a215a7f888c21b720 -->
<g id="edge4" class="edge">
<title>dir_f12490db20c962b051f50ee48227d2d9&#45;&gt;dir_603a3fb0fb569e6a215a7f888c21b720</title>
<path fill="none" stroke="#000000" d="M112.5978,-143.8314C104.9585,-135.3694 95.7317,-125.1489 87.3793,-115.8971"/>
<polygon fill="#000000" stroke="#000000" points="89.9221,-113.4906 80.6231,-108.4133 84.7262,-118.1813 89.9221,-113.4906"/>
<g id="a_edge4&#45;headlabel"><a xlink:href="dir_000003_000001.html" target="_top" xlink:title="4">
<text text-anchor="middle" x="94.4383" y="-111.7561" font-family="Arial" font-size="10.00" fill="#000000">4</text>
</a>
</g>
</g>
<!-- dir_f12490db20c962b051f50ee48227d2d9&#45;&gt;dir_d44c64559bbebec7f509842c48db8b23 -->
<g id="edge3" class="edge">
<title>dir_f12490db20c962b051f50ee48227d2d9&#45;&gt;dir_d44c64559bbebec7f509842c48db8b23</title>
<path fill="none" stroke="#000000" d="M139.888,-143.7133C145.2929,-133.5709 151.2445,-120.5105 154,-108 158.2063,-88.9022 156.8783,-83.3426 154,-64 153.1027,-57.9699 151.578,-51.6367 149.8569,-45.664"/>
<polygon fill="#000000" stroke="#000000" points="153.1807,-44.5662 146.851,-36.07 146.5009,-46.6591 153.1807,-44.5662"/>
<g id="a_edge3&#45;headlabel"><a xlink:href="dir_000003_000005.html" target="_top" xlink:title="9">
<text text-anchor="middle" x="156.9648" y="-44.6475" font-family="Arial" font-size="10.00" fill="#000000">9</text>
</a>
</g>
</g>
</g>
</svg>
