<?xml version="1.0" encoding="UTF-8" standalone="no"?>
<!DOCTYPE svg PUBLIC "-//W3C//DTD SVG 1.1//EN"
 "http://www.w3.org/Graphics/SVG/1.1/DTD/svg11.dtd">
<!-- Generated by graphviz version 2.40.1 (20161225.0304)
 -->
<!-- Title: examples/miral&#45;shell/spinner Pages: 1 -->
<svg width="117pt" height="151pt"
 viewBox="0.00 0.00 117.00 151.00" xmlns="http://www.w3.org/2000/svg" xmlns:xlink="http://www.w3.org/1999/xlink">
<g id="graph0" class="graph" transform="scale(1 1) rotate(0) translate(4 147)">
<title>examples/miral&#45;shell/spinner</title>
<polygon fill="#ffffff" stroke="transparent" points="-4,4 -4,-147 113,-147 113,4 -4,4"/>
<g id="clust1" class="cluster">
<title>clusterdir_f12490db20c962b051f50ee48227d2d9</title>
<g id="a_clust1"><a xlink:href="dir_f12490db20c962b051f50ee48227d2d9.html" target="_top" xlink:title="miral&#45;shell">
<polygon fill="#ddddee" stroke="#000000" points="19.5,-64 19.5,-135 89.5,-135 89.5,-64 19.5,-64"/>
<text text-anchor="middle" x="54.5" y="-123" font-family="Arial" font-size="10.00" fill="#000000">miral&#45;shell</text>
</a>
</g>
</g>
<!-- dir_0988342b392d39a3d145cc970e471b2a -->
<g id="node1" class="node">
<title>dir_0988342b392d39a3d145cc970e471b2a</title>
<g id="a_node1"><a xlink:href="dir_0988342b392d39a3d145cc970e471b2a.html" target="_top" xlink:title="spinner">
<polygon fill="#eeeeff" stroke="#000000" points="81.5,-108 27.5,-108 27.5,-72 81.5,-72 81.5,-108"/>
<text text-anchor="middle" x="54.5" y="-87.5" font-family="Arial" font-size="10.00" fill="#000000">spinner</text>
</a>
</g>
</g>
<!-- dir_603a3fb0fb569e6a215a7f888c21b720 -->
<g id="node2" class="node">
<title>dir_603a3fb0fb569e6a215a7f888c21b720</title>
<g id="a_node2"><a xlink:href="dir_603a3fb0fb569e6a215a7f888c21b720.html" target="_top" xlink:title="example&#45;server&#45;lib">
<polygon fill="none" stroke="#000000" points="109,-36 0,-36 0,0 109,0 109,-36"/>
<text text-anchor="middle" x="54.5" y="-15.5" font-family="Arial" font-size="10.00" fill="#000000">example&#45;server&#45;lib</text>
</a>
</g>
</g>
<!-- dir_0988342b392d39a3d145cc970e471b2a&#45;&gt;dir_603a3fb0fb569e6a215a7f888c21b720 -->
<g id="edge1" class="edge">
<title>dir_0988342b392d39a3d145cc970e471b2a&#45;&gt;dir_603a3fb0fb569e6a215a7f888c21b720</title>
<path fill="none" stroke="#000000" d="M54.5,-71.8314C54.5,-64.131 54.5,-54.9743 54.5,-46.4166"/>
<polygon fill="#000000" stroke="#000000" points="58.0001,-46.4132 54.5,-36.4133 51.0001,-46.4133 58.0001,-46.4132"/>
<g id="a_edge1&#45;headlabel"><a xlink:href="dir_000004_000001.html" target="_top" xlink:title="1">
<text text-anchor="middle" x="60.8393" y="-47.5079" font-family="Arial" font-size="10.00" fill="#000000">1</text>
</a>
</g>
</g>
</g>
</svg>
