<?xml version="1.0" encoding="UTF-8" standalone="no"?>
<!DOCTYPE svg PUBLIC "-//W3C//DTD SVG 1.1//EN"
 "http://www.w3.org/Graphics/SVG/1.1/DTD/svg11.dtd">
<!-- Generated by graphviz version 2.40.1 (20161225.0304)
 -->
<!-- Title: include/client/mir/events Pages: 1 -->
<svg width="118pt" height="223pt"
 viewBox="0.00 0.00 118.00 223.00" xmlns="http://www.w3.org/2000/svg" xmlns:xlink="http://www.w3.org/1999/xlink">
<g id="graph0" class="graph" transform="scale(1 1) rotate(0) translate(4 219)">
<title>include/client/mir/events</title>
<polygon fill="#ffffff" stroke="transparent" points="-4,4 -4,-219 114,-219 114,4 -4,4"/>
<g id="clust1" class="cluster">
<title>clusterdir_922ddc82555d6e3e8c3ba93df0fc2d5e</title>
<g id="a_clust1"><a xlink:href="dir_922ddc82555d6e3e8c3ba93df0fc2d5e.html" target="_top" xlink:title="mir">
<polygon fill="#ddddee" stroke="#000000" points="32,-136 32,-207 102,-207 102,-136 32,-136"/>
<text text-anchor="middle" x="67" y="-195" font-family="Arial" font-size="10.00" fill="#000000">mir</text>
</a>
</g>
</g>
<!-- dir_37013e6622aa85210765d5a50104d3e1 -->
<g id="node1" class="node">
<title>dir_37013e6622aa85210765d5a50104d3e1</title>
<g id="a_node1"><a xlink:href="dir_37013e6622aa85210765d5a50104d3e1.html" target="_top" xlink:title="events">
<polygon fill="#eeeeff" stroke="#000000" points="94,-180 40,-180 40,-144 94,-144 94,-180"/>
<text text-anchor="middle" x="67" y="-159.5" font-family="Arial" font-size="10.00" fill="#000000">events</text>
</a>
</g>
</g>
<!-- dir_866c46951d19fd3fcfcc106369b0956c -->
<g id="node2" class="node">
<title>dir_866c46951d19fd3fcfcc106369b0956c</title>
<g id="a_node2"><a xlink:href="dir_866c46951d19fd3fcfcc106369b0956c.html" target="_top" xlink:title="mir_toolkit">
<polygon fill="#ffffff" stroke="#ff0000" points="70,-108 0,-108 0,-72 70,-72 70,-108"/>
<text text-anchor="middle" x="35" y="-87.5" font-family="Arial" font-size="10.00" fill="#000000">mir_toolkit</text>
</a>
</g>
</g>
<!-- dir_37013e6622aa85210765d5a50104d3e1&#45;&gt;dir_866c46951d19fd3fcfcc106369b0956c -->
<g id="edge2" class="edge">
<title>dir_37013e6622aa85210765d5a50104d3e1&#45;&gt;dir_866c46951d19fd3fcfcc106369b0956c</title>
<path fill="none" stroke="#000000" d="M58.925,-143.8314C55.3898,-135.8771 51.164,-126.369 47.2544,-117.5723"/>
<polygon fill="#000000" stroke="#000000" points="50.4435,-116.1299 43.1837,-108.4133 44.0468,-118.9729 50.4435,-116.1299"/>
<g id="a_edge2&#45;headlabel"><a xlink:href="dir_000014_000009.html" target="_top" xlink:title="1">
<text text-anchor="middle" x="54.4979" y="-115.7616" font-family="Arial" font-size="10.00" fill="#000000">1</text>
</a>
</g>
</g>
<!-- dir_3d69f64eaf81436fe2b22361382717e5 -->
<g id="node3" class="node">
<title>dir_3d69f64eaf81436fe2b22361382717e5</title>
<g id="a_node3"><a xlink:href="dir_3d69f64eaf81436fe2b22361382717e5.html" target="_top" xlink:title="core">
<polygon fill="#ffffff" stroke="#ff0000" points="93,-36 39,-36 39,0 93,0 93,-36"/>
<text text-anchor="middle" x="66" y="-15.5" font-family="Arial" font-size="10.00" fill="#000000">core</text>
</a>
</g>
</g>
<!-- dir_37013e6622aa85210765d5a50104d3e1&#45;&gt;dir_3d69f64eaf81436fe2b22361382717e5 -->
<g id="edge3" class="edge">
<title>dir_37013e6622aa85210765d5a50104d3e1&#45;&gt;dir_3d69f64eaf81436fe2b22361382717e5</title>
<path fill="none" stroke="#000000" d="M72.1191,-143.6727C74.752,-133.2978 77.6796,-120.0284 79,-108 80.7459,-92.0955 80.8856,-87.8885 79,-72 77.9932,-63.5166 76.1264,-54.4376 74.1153,-46.1913"/>
<polygon fill="#000000" stroke="#000000" points="77.4472,-45.0971 71.5446,-36.2988 70.6722,-46.8576 77.4472,-45.0971"/>
<g id="a_edge3&#45;headlabel"><a xlink:href="dir_000014_000018.html" target="_top" xlink:title="4">
<text text-anchor="middle" x="81.0992" y="-45.3621" font-family="Arial" font-size="10.00" fill="#000000">4</text>
</a>
</g>
</g>
<!-- dir_866c46951d19fd3fcfcc106369b0956c&#45;&gt;dir_3d69f64eaf81436fe2b22361382717e5 -->
<g id="edge1" class="edge">
<title>dir_866c46951d19fd3fcfcc106369b0956c&#45;&gt;dir_3d69f64eaf81436fe2b22361382717e5</title>
<path fill="none" stroke="#000000" d="M42.8226,-71.8314C46.2109,-63.9617 50.2541,-54.5712 54.0076,-45.8533"/>
<polygon fill="#000000" stroke="#000000" points="57.3321,-46.9822 58.0721,-36.4133 50.9027,-44.214 57.3321,-46.9822"/>
<g id="a_edge1&#45;headlabel"><a xlink:href="dir_000009_000018.html" target="_top" xlink:title="32">
<text text-anchor="middle" x="58.5185" y="-48.9066" font-family="Arial" font-size="10.00" fill="#000000">32</text>
</a>
</g>
</g>
</g>
</svg>
