<?xml version="1.0" encoding="UTF-8" standalone="no"?>
<!DOCTYPE svg PUBLIC "-//W3C//DTD SVG 1.1//EN"
 "http://www.w3.org/Graphics/SVG/1.1/DTD/svg11.dtd">
<!-- Generated by graphviz version 2.40.1 (20161225.0304)
 -->
<!-- Title: examples/miral&#45;shell Pages: 1 -->
<svg width="138pt" height="303pt"
 viewBox="0.00 0.00 137.98 303.00" xmlns="http://www.w3.org/2000/svg" xmlns:xlink="http://www.w3.org/1999/xlink">
<g id="graph0" class="graph" transform="scale(1 1) rotate(0) translate(4 299)">
<title>examples/miral&#45;shell</title>
<polygon fill="#ffffff" stroke="transparent" points="-4,4 -4,-299 133.975,-299 133.975,4 -4,4"/>
<g id="clust1" class="cluster">
<title>clusterdir_d28a4824dc47e487b107a5db32ef43c4</title>
<g id="a_clust1"><a xlink:href="dir_d28a4824dc47e487b107a5db32ef43c4.html" target="_top" xlink:title="examples">
<polygon fill="#ddddee" stroke="#000000" points="8,-128 8,-287 110,-287 110,-128 8,-128"/>
<text text-anchor="middle" x="59" y="-275" font-family="Arial" font-size="10.00" fill="#000000">examples</text>
</a>
</g>
</g>
<g id="clust2" class="cluster">
<title>clusterdir_f12490db20c962b051f50ee48227d2d9</title>
<g id="a_clust2"><a xlink:href="dir_f12490db20c962b051f50ee48227d2d9.html" target="_top">
<polygon fill="#eeeeff" stroke="#000000" points="16,-136 16,-260 102,-260 102,-136 16,-136"/>
</a>
</g>
</g>
<!-- dir_f12490db20c962b051f50ee48227d2d9 -->
<g id="node1" class="node">
<title>dir_f12490db20c962b051f50ee48227d2d9</title>
<text text-anchor="middle" x="59" y="-231.5" font-family="Arial" font-size="10.00" fill="#000000">miral&#45;shell</text>
</g>
<!-- dir_0988342b392d39a3d145cc970e471b2a -->
<g id="node2" class="node">
<title>dir_0988342b392d39a3d145cc970e471b2a</title>
<g id="a_node2"><a xlink:href="dir_0988342b392d39a3d145cc970e471b2a.html" target="_top" xlink:title="spinner">
<polygon fill="#ffffff" stroke="#000000" points="78,-180 24,-180 24,-144 78,-144 78,-180"/>
<text text-anchor="middle" x="51" y="-159.5" font-family="Arial" font-size="10.00" fill="#000000">spinner</text>
</a>
</g>
</g>
<!-- dir_f12490db20c962b051f50ee48227d2d9&#45;&gt;dir_0988342b392d39a3d145cc970e471b2a -->
<g id="edge2" class="edge">
<title>dir_f12490db20c962b051f50ee48227d2d9&#45;&gt;dir_0988342b392d39a3d145cc970e471b2a</title>
<path fill="none" stroke="#000000" d="M56.9813,-215.8314C56.1257,-208.131 55.1083,-198.9743 54.1574,-190.4166"/>
<polygon fill="#000000" stroke="#000000" points="57.6289,-189.9656 53.0459,-180.4133 50.6717,-190.7386 57.6289,-189.9656"/>
<g id="a_edge2&#45;headlabel"><a xlink:href="dir_000003_000004.html" target="_top" xlink:title="1">
<text text-anchor="middle" x="60.8477" y="-190.7247" font-family="Arial" font-size="10.00" fill="#000000">1</text>
</a>
</g>
</g>
<!-- dir_d44c64559bbebec7f509842c48db8b23 -->
<g id="node3" class="node">
<title>dir_d44c64559bbebec7f509842c48db8b23</title>
<g id="a_node3"><a xlink:href="dir_d44c64559bbebec7f509842c48db8b23.html" target="_top" xlink:title="include">
<polygon fill="#ffffff" stroke="#ff0000" points="129,-36 75,-36 75,0 129,0 129,-36"/>
<text text-anchor="middle" x="102" y="-15.5" font-family="Arial" font-size="10.00" fill="#000000">include</text>
</a>
</g>
</g>
<!-- dir_f12490db20c962b051f50ee48227d2d9&#45;&gt;dir_d44c64559bbebec7f509842c48db8b23 -->
<g id="edge3" class="edge">
<title>dir_f12490db20c962b051f50ee48227d2d9&#45;&gt;dir_d44c64559bbebec7f509842c48db8b23</title>
<path fill="none" stroke="#000000" d="M76.8372,-215.8022C85.7364,-205.8909 96.0549,-193.0167 103,-180 118.7511,-150.4787 120.0569,-141.0934 125,-108 127.3637,-92.1756 128.1995,-87.6768 125,-72 123.1839,-63.1016 119.8446,-53.8541 116.2629,-45.5789"/>
<polygon fill="#000000" stroke="#000000" points="119.3911,-44.0044 112.0235,-36.3906 113.0349,-46.937 119.3911,-44.0044"/>
<g id="a_edge3&#45;headlabel"><a xlink:href="dir_000003_000005.html" target="_top" xlink:title="10">
<text text-anchor="middle" x="123.475" y="-43.5789" font-family="Arial" font-size="10.00" fill="#000000">10</text>
</a>
</g>
</g>
<!-- dir_603a3fb0fb569e6a215a7f888c21b720 -->
<g id="node4" class="node">
<title>dir_603a3fb0fb569e6a215a7f888c21b720</title>
<g id="a_node4"><a xlink:href="dir_603a3fb0fb569e6a215a7f888c21b720.html" target="_top" xlink:title="example&#45;server&#45;lib">
<polygon fill="none" stroke="#000000" points="115.5,-108 6.5,-108 6.5,-72 115.5,-72 115.5,-108"/>
<text text-anchor="middle" x="61" y="-87.5" font-family="Arial" font-size="10.00" fill="#000000">example&#45;server&#45;lib</text>
</a>
</g>
</g>
<!-- dir_f12490db20c962b051f50ee48227d2d9&#45;&gt;dir_603a3fb0fb569e6a215a7f888c21b720 -->
<g id="edge4" class="edge">
<title>dir_f12490db20c962b051f50ee48227d2d9&#45;&gt;dir_603a3fb0fb569e6a215a7f888c21b720</title>
<path fill="none" stroke="#000000" d="M71.1817,-215.882C77.2315,-205.7891 83.8978,-192.7221 87,-180 92.4751,-157.5468 93.8304,-150.0787 87,-128 85.8114,-124.1578 84.0857,-120.3582 82.08,-116.7326"/>
<polygon fill="#000000" stroke="#000000" points="84.962,-114.7414 76.6638,-108.1543 79.0431,-118.4785 84.962,-114.7414"/>
<g id="a_edge4&#45;headlabel"><a xlink:href="dir_000003_000001.html" target="_top" xlink:title="4">
<text text-anchor="middle" x="89.2818" y="-113.765" font-family="Arial" font-size="10.00" fill="#000000">4</text>
</a>
</g>
</g>
<!-- dir_0988342b392d39a3d145cc970e471b2a&#45;&gt;dir_603a3fb0fb569e6a215a7f888c21b720 -->
<g id="edge1" class="edge">
<title>dir_0988342b392d39a3d145cc970e471b2a&#45;&gt;dir_603a3fb0fb569e6a215a7f888c21b720</title>
<path fill="none" stroke="#000000" d="M53.5234,-143.8314C54.5929,-136.131 55.8647,-126.9743 57.0532,-118.4166"/>
<polygon fill="#000000" stroke="#000000" points="60.5336,-118.7997 58.4426,-108.4133 53.6001,-117.8367 60.5336,-118.7997"/>
<g id="a_edge1&#45;headlabel"><a xlink:href="dir_000004_000001.html" target="_top" xlink:title="1">
<text text-anchor="middle" x="62.8514" y="-120.2507" font-family="Arial" font-size="10.00" fill="#000000">1</text>
</a>
</g>
</g>
<!-- dir_603a3fb0fb569e6a215a7f888c21b720&#45;&gt;dir_d44c64559bbebec7f509842c48db8b23 -->
<g id="edge5" class="edge">
<title>dir_603a3fb0fb569e6a215a7f888c21b720&#45;&gt;dir_d44c64559bbebec7f509842c48db8b23</title>
<path fill="none" stroke="#000000" d="M71.346,-71.8314C75.9237,-63.7925 81.4052,-54.1666 86.4588,-45.2918"/>
<polygon fill="#000000" stroke="#000000" points="89.6077,-46.8351 91.5147,-36.4133 83.5248,-43.3712 89.6077,-46.8351"/>
<g id="a_edge5&#45;headlabel"><a xlink:href="dir_000001_000005.html" target="_top" xlink:title="16">
<text text-anchor="middle" x="90.2963" y="-48.8637" font-family="Arial" font-size="10.00" fill="#000000">16</text>
</a>
</g>
</g>
</g>
</svg>
