<?xml version="1.0" encoding="UTF-8" standalone="no"?>
<!DOCTYPE svg PUBLIC "-//W3C//DTD SVG 1.1//EN"
 "http://www.w3.org/Graphics/SVG/1.1/DTD/svg11.dtd">
<!-- Generated by graphviz version 2.40.1 (20161225.0304)
 -->
<!-- Title: include/client/mir/client/display_config.h Pages: 1 -->
<svg width="2014pt" height="441pt"
 viewBox="0.00 0.00 2013.73 441.00" xmlns="http://www.w3.org/2000/svg" xmlns:xlink="http://www.w3.org/1999/xlink">
<g id="graph0" class="graph" transform="scale(1 1) rotate(0) translate(4 437)">
<title>include/client/mir/client/display_config.h</title>
<polygon fill="#ffffff" stroke="transparent" points="-4,4 -4,-437 2009.7329,-437 2009.7329,4 -4,4"/>
<!-- Node0 -->
<g id="node1" class="node">
<title>Node0</title>
<polygon fill="#bfbfbf" stroke="#000000" points="202,-402.5 202,-432.5 318,-432.5 318,-402.5 202,-402.5"/>
<text text-anchor="start" x="210" y="-420.5" font-family="Arial" font-size="10.00" fill="#000000">include/client/mir</text>
<text text-anchor="middle" x="260" y="-409.5" font-family="Arial" font-size="10.00" fill="#000000">/client/display_config.h</text>
</g>
<!-- Node1 -->
<g id="node2" class="node">
<title>Node1</title>
<g id="a_node2"><a xlink:href="mir__connection_8h.html" target="_top" xlink:title="mir_toolkit/mir_connection.h">
<polygon fill="#ffffff" stroke="#000000" points="132.5,-341 132.5,-360 271.5,-360 271.5,-341 132.5,-341"/>
<text text-anchor="middle" x="202" y="-348" font-family="Arial" font-size="10.00" fill="#000000">mir_toolkit/mir_connection.h</text>
</a>
</g>
</g>
<!-- Node0&#45;&gt;Node1 -->
<g id="edge1" class="edge">
<title>Node0&#45;&gt;Node1</title>
<path fill="none" stroke="#191970" d="M246.8389,-402.2967C237.9777,-392.0605 226.2705,-378.5366 217.0407,-367.8746"/>
<polygon fill="#191970" stroke="#191970" points="219.4627,-365.3248 210.2715,-360.055 214.1703,-369.9064 219.4627,-365.3248"/>
</g>
<!-- Node25 -->
<g id="node26" class="node">
<title>Node25</title>
<g id="a_node26"><a xlink:href="mir__display__configuration_8h.html" target="_top" xlink:title="mir_toolkit/mir_display\l_configuration.h">
<polygon fill="#ffffff" stroke="#000000" points="0,-335.5 0,-365.5 114,-365.5 114,-335.5 0,-335.5"/>
<text text-anchor="start" x="8" y="-353.5" font-family="Arial" font-size="10.00" fill="#000000">mir_toolkit/mir_display</text>
<text text-anchor="middle" x="57" y="-342.5" font-family="Arial" font-size="10.00" fill="#000000">_configuration.h</text>
</a>
</g>
</g>
<!-- Node0&#45;&gt;Node25 -->
<g id="edge50" class="edge">
<title>Node0&#45;&gt;Node25</title>
<path fill="none" stroke="#191970" d="M214.4428,-402.4639C184.2506,-392.499 144.4543,-379.3642 112.4268,-368.7936"/>
<polygon fill="#191970" stroke="#191970" points="113.349,-365.4123 102.7559,-365.6017 111.155,-372.0596 113.349,-365.4123"/>
</g>
<!-- Node26 -->
<g id="node27" class="node">
<title>Node26</title>
<polygon fill="#ffffff" stroke="#bfbfbf" points="289.5,-341 289.5,-360 348.5,-360 348.5,-341 289.5,-341"/>
<text text-anchor="middle" x="319" y="-348" font-family="Arial" font-size="10.00" fill="#000000">functional</text>
</g>
<!-- Node0&#45;&gt;Node26 -->
<g id="edge53" class="edge">
<title>Node0&#45;&gt;Node26</title>
<path fill="none" stroke="#191970" d="M273.388,-402.2967C282.402,-392.0605 294.3111,-378.5366 303.7,-367.8746"/>
<polygon fill="#191970" stroke="#191970" points="306.6038,-369.873 310.5859,-360.055 301.3504,-365.2468 306.6038,-369.873"/>
</g>
<!-- Node27 -->
<g id="node28" class="node">
<title>Node27</title>
<polygon fill="#ffffff" stroke="#bfbfbf" points="367,-341 367,-360 419,-360 419,-341 367,-341"/>
<text text-anchor="middle" x="393" y="-348" font-family="Arial" font-size="10.00" fill="#000000">memory</text>
</g>
<!-- Node0&#45;&gt;Node27 -->
<g id="edge54" class="edge">
<title>Node0&#45;&gt;Node27</title>
<path fill="none" stroke="#191970" d="M289.8478,-402.4639C312.264,-391.1715 342.7606,-375.8086 364.7738,-364.7192"/>
<polygon fill="#191970" stroke="#191970" points="366.5793,-367.7287 373.9355,-360.1039 363.43,-361.4772 366.5793,-367.7287"/>
</g>
<!-- Node2 -->
<g id="node3" class="node">
<title>Node2</title>
<g id="a_node3"><a xlink:href="client__types_8h.html" target="_top" xlink:title="mir_toolkit/client\l_types.h">
<polygon fill="#ffffff" stroke="#000000" points="170,-268.5 170,-298.5 258,-298.5 258,-268.5 170,-268.5"/>
<text text-anchor="start" x="178" y="-286.5" font-family="Arial" font-size="10.00" fill="#000000">mir_toolkit/client</text>
<text text-anchor="middle" x="214" y="-275.5" font-family="Arial" font-size="10.00" fill="#000000">_types.h</text>
</a>
</g>
</g>
<!-- Node1&#45;&gt;Node2 -->
<g id="edge2" class="edge">
<title>Node1&#45;&gt;Node2</title>
<path fill="none" stroke="#191970" d="M203.7193,-340.9005C205.2221,-332.5099 207.4725,-319.9451 209.485,-308.7085"/>
<polygon fill="#191970" stroke="#191970" points="212.9916,-308.9822 211.3095,-298.5218 206.1013,-307.7481 212.9916,-308.9822"/>
</g>
<!-- Node6 -->
<g id="node7" class="node">
<title>Node6</title>
<g id="a_node7"><a xlink:href="common_8h.html" target="_top" xlink:title="mir_toolkit/common.h">
<polygon fill="#ffffff" stroke="#000000" points="110,-134.5 110,-153.5 220,-153.5 220,-134.5 110,-134.5"/>
<text text-anchor="middle" x="165" y="-141.5" font-family="Arial" font-size="10.00" fill="#000000">mir_toolkit/common.h</text>
</a>
</g>
</g>
<!-- Node1&#45;&gt;Node6 -->
<g id="edge47" class="edge">
<title>Node1&#45;&gt;Node6</title>
<path fill="none" stroke="#191970" d="M190.8115,-340.7687C180.8196,-331.2725 166.8813,-315.8302 161,-299 144.8579,-252.8071 153.6566,-194.064 160.1155,-163.8839"/>
<polygon fill="#191970" stroke="#191970" points="163.6038,-164.3298 162.4195,-153.8014 156.7797,-162.7703 163.6038,-164.3298"/>
</g>
<!-- Node7 -->
<g id="node8" class="node">
<title>Node7</title>
<g id="a_node8"><a xlink:href="deprecations_8h.html" target="_top" xlink:title="mir_toolkit/deprecations.h">
<polygon fill="#ffffff" stroke="#000000" points="163,-62 163,-81 291,-81 291,-62 163,-62"/>
<text text-anchor="middle" x="227" y="-69" font-family="Arial" font-size="10.00" fill="#000000">mir_toolkit/deprecations.h</text>
</a>
</g>
</g>
<!-- Node1&#45;&gt;Node7 -->
<g id="edge48" class="edge">
<title>Node1&#45;&gt;Node7</title>
<path fill="none" stroke="#191970" d="M184.4008,-340.911C128.9425,-309.4939 -34.7608,-206.867 30,-123 45.2609,-103.2368 103.668,-89.6029 152.9557,-81.3518"/>
<polygon fill="#191970" stroke="#191970" points="153.6853,-84.7793 162.9956,-79.7229 152.5641,-77.8697 153.6853,-84.7793"/>
</g>
<!-- Node10 -->
<g id="node11" class="node">
<title>Node10</title>
<polygon fill="#ffffff" stroke="#bfbfbf" points="1894,-.5 1894,-19.5 1950,-19.5 1950,-.5 1894,-.5"/>
<text text-anchor="middle" x="1922" y="-7.5" font-family="Arial" font-size="10.00" fill="#000000">stdbool.h</text>
</g>
<!-- Node1&#45;&gt;Node10 -->
<g id="edge49" class="edge">
<title>Node1&#45;&gt;Node10</title>
<path fill="none" stroke="#191970" d="M245.302,-340.9911C256.8537,-338.7325 269.3604,-336.5358 281,-335 376.1789,-322.4419 2005,-312.5038 2005,-216.5 2005,-216.5 2005,-216.5 2005,-144 2005,-103.9877 2007.9318,-89.4662 1986,-56 1977.4298,-42.9226 1963.7597,-32.3549 1951.2496,-24.6619"/>
<polygon fill="#191970" stroke="#191970" points="1952.8454,-21.5418 1942.435,-19.5734 1949.3457,-27.6042 1952.8454,-21.5418"/>
</g>
<!-- Node3 -->
<g id="node4" class="node">
<title>Node3</title>
<g id="a_node4"><a xlink:href="toolkit_2events_2event_8h.html" target="_top" xlink:title="mir_toolkit/events\l/event.h">
<polygon fill="#ffffff" stroke="#000000" points="896,-201.5 896,-231.5 990,-231.5 990,-201.5 896,-201.5"/>
<text text-anchor="start" x="904" y="-219.5" font-family="Arial" font-size="10.00" fill="#000000">mir_toolkit/events</text>
<text text-anchor="middle" x="943" y="-208.5" font-family="Arial" font-size="10.00" fill="#000000">/event.h</text>
</a>
</g>
</g>
<!-- Node2&#45;&gt;Node3 -->
<g id="edge3" class="edge">
<title>Node2&#45;&gt;Node3</title>
<path fill="none" stroke="#191970" d="M258.2323,-279.4348C384.1813,-267.8592 744.697,-234.7254 885.5899,-221.7764"/>
<polygon fill="#191970" stroke="#191970" points="886.1101,-225.2434 895.7478,-220.8428 885.4694,-218.2728 886.1101,-225.2434"/>
</g>
<!-- Node4 -->
<g id="node5" class="node">
<title>Node4</title>
<polygon fill="#ffffff" stroke="#bfbfbf" points="1665,-134.5 1665,-153.5 1717,-153.5 1717,-134.5 1665,-134.5"/>
<text text-anchor="middle" x="1691" y="-141.5" font-family="Arial" font-size="10.00" fill="#000000">stddef.h</text>
</g>
<!-- Node2&#45;&gt;Node4 -->
<g id="edge46" class="edge">
<title>Node2&#45;&gt;Node4</title>
<path fill="none" stroke="#191970" d="M258.022,-282.6821C470.053,-278.3192 1386.8039,-254.5146 1656,-165 1660.5094,-163.5005 1665.0581,-161.3455 1669.316,-158.9814"/>
<polygon fill="#191970" stroke="#191970" points="1671.3383,-161.8473 1678.0446,-153.6451 1667.6871,-155.875 1671.3383,-161.8473"/>
</g>
<!-- Node2&#45;&gt;Node6 -->
<g id="edge44" class="edge">
<title>Node2&#45;&gt;Node6</title>
<path fill="none" stroke="#191970" d="M208.6629,-268.3055C199.6892,-242.758 181.5968,-191.25 171.7528,-163.2247"/>
<polygon fill="#191970" stroke="#191970" points="175.0364,-162.0116 168.42,-153.7366 168.4319,-164.3315 175.0364,-162.0116"/>
</g>
<!-- Node2&#45;&gt;Node7 -->
<g id="edge45" class="edge">
<title>Node2&#45;&gt;Node7</title>
<path fill="none" stroke="#191970" d="M189.166,-268.3856C145.8982,-240.1112 64.6168,-177.1759 101,-123 113.9687,-103.6891 135.5928,-91.6145 157.2988,-84.0664"/>
<polygon fill="#191970" stroke="#191970" points="158.4467,-87.3741 166.9127,-81.0041 156.3221,-80.7043 158.4467,-87.3741"/>
</g>
<!-- Node3&#45;&gt;Node4 -->
<g id="edge4" class="edge">
<title>Node3&#45;&gt;Node4</title>
<path fill="none" stroke="#191970" d="M990.2063,-214.3644C1139.1161,-207.4511 1592.8402,-184.9718 1656,-165 1660.6092,-163.5425 1665.2473,-161.3706 1669.5715,-158.9685"/>
<polygon fill="#191970" stroke="#191970" points="1671.7235,-161.7537 1678.4037,-153.5302 1668.0533,-155.793 1671.7235,-161.7537"/>
</g>
<!-- Node5 -->
<g id="node6" class="node">
<title>Node5</title>
<polygon fill="#ffffff" stroke="#bfbfbf" points="1530.5,-.5 1530.5,-19.5 1579.5,-19.5 1579.5,-.5 1530.5,-.5"/>
<text text-anchor="middle" x="1555" y="-7.5" font-family="Arial" font-size="10.00" fill="#000000">stdint.h</text>
</g>
<!-- Node3&#45;&gt;Node5 -->
<g id="edge5" class="edge">
<title>Node3&#45;&gt;Node5</title>
<path fill="none" stroke="#191970" d="M990.2259,-213.4879C1120.7228,-204.9838 1477.9584,-180.4093 1498,-165 1540.8848,-132.0274 1551.518,-63.4653 1554.1448,-29.6823"/>
<polygon fill="#191970" stroke="#191970" points="1557.6406,-29.8571 1554.7637,-19.6604 1550.6539,-29.4256 1557.6406,-29.8571"/>
</g>
<!-- Node3&#45;&gt;Node6 -->
<g id="edge6" class="edge">
<title>Node3&#45;&gt;Node6</title>
<path fill="none" stroke="#191970" d="M895.5871,-214.5635C757.6506,-208.6941 358.2151,-189.964 230,-165 219.8919,-163.0319 209.1624,-159.9828 199.396,-156.8124"/>
<polygon fill="#191970" stroke="#191970" points="200.2279,-153.3988 189.6336,-153.5049 197.9817,-160.0287 200.2279,-153.3988"/>
</g>
<!-- Node3&#45;&gt;Node7 -->
<g id="edge8" class="edge">
<title>Node3&#45;&gt;Node7</title>
<path fill="none" stroke="#191970" d="M895.7635,-213.0441C850.6935,-207.9706 782.2632,-195.5084 731,-165 709.368,-152.1261 715.4124,-134.4613 693,-123 626.3471,-88.9148 414.8799,-77.2233 301.124,-73.3421"/>
<polygon fill="#191970" stroke="#191970" points="301.2077,-69.8431 291.0978,-73.0117 300.9771,-76.8393 301.2077,-69.8431"/>
</g>
<!-- Node8 -->
<g id="node9" class="node">
<title>Node8</title>
<g id="a_node9"><a xlink:href="input__event_8h.html" target="_top" xlink:title="mir_toolkit/events\l/input/input_event.h">
<polygon fill="#ffffff" stroke="#000000" points="1545,-129 1545,-159 1647,-159 1647,-129 1545,-129"/>
<text text-anchor="start" x="1553" y="-147" font-family="Arial" font-size="10.00" fill="#000000">mir_toolkit/events</text>
<text text-anchor="middle" x="1596" y="-136" font-family="Arial" font-size="10.00" fill="#000000">/input/input_event.h</text>
</a>
</g>
</g>
<!-- Node3&#45;&gt;Node8 -->
<g id="edge9" class="edge">
<title>Node3&#45;&gt;Node8</title>
<path fill="none" stroke="#191970" d="M990.1119,-213.4756C1109.2928,-205.9862 1419.935,-185.6818 1522,-165 1526.3676,-164.115 1530.8536,-163.0373 1535.3575,-161.8425"/>
<polygon fill="#191970" stroke="#191970" points="1536.5298,-165.1486 1545.207,-159.0695 1534.6327,-158.4106 1536.5298,-165.1486"/>
</g>
<!-- Node15 -->
<g id="node16" class="node">
<title>Node15</title>
<g id="a_node16"><a xlink:href="resize__event_8h.html" target="_top" xlink:title="mir_toolkit/events\l/resize_event.h">
<polygon fill="#ffffff" stroke="#000000" points="358,-129 358,-159 452,-159 452,-129 358,-129"/>
<text text-anchor="start" x="366" y="-147" font-family="Arial" font-size="10.00" fill="#000000">mir_toolkit/events</text>
<text text-anchor="middle" x="405" y="-136" font-family="Arial" font-size="10.00" fill="#000000">/resize_event.h</text>
</a>
</g>
</g>
<!-- Node3&#45;&gt;Node15 -->
<g id="edge20" class="edge">
<title>Node3&#45;&gt;Node15</title>
<path fill="none" stroke="#191970" d="M895.7784,-215.5546C807.2616,-212.883 611.4816,-202.7803 452,-165 448.6137,-164.1978 445.1542,-163.2457 441.7189,-162.1967"/>
<polygon fill="#191970" stroke="#191970" points="442.7761,-158.8599 432.1826,-159.0279 440.5687,-165.5027 442.7761,-158.8599"/>
</g>
<!-- Node16 -->
<g id="node17" class="node">
<title>Node16</title>
<g id="a_node17"><a xlink:href="surface__event_8h.html" target="_top" xlink:title="mir_toolkit/events\l/surface_event.h">
<polygon fill="#ffffff" stroke="#000000" points="1024,-129 1024,-159 1118,-159 1118,-129 1024,-129"/>
<text text-anchor="start" x="1032" y="-147" font-family="Arial" font-size="10.00" fill="#000000">mir_toolkit/events</text>
<text text-anchor="middle" x="1071" y="-136" font-family="Arial" font-size="10.00" fill="#000000">/surface_event.h</text>
</a>
</g>
</g>
<!-- Node3&#45;&gt;Node16 -->
<g id="edge22" class="edge">
<title>Node3&#45;&gt;Node16</title>
<path fill="none" stroke="#191970" d="M963.929,-201.478C981.8799,-190.5419 1008.0505,-175.626 1030.0831,-163.7297"/>
<polygon fill="#191970" stroke="#191970" points="1031.7543,-166.8051 1038.922,-159.0028 1028.4532,-160.6323 1031.7543,-166.8051"/>
</g>
<!-- Node17 -->
<g id="node18" class="node">
<title>Node17</title>
<g id="a_node18"><a xlink:href="window__event_8h.html" target="_top" xlink:title="mir_toolkit/events\l/window_event.h">
<polygon fill="#ffffff" stroke="#000000" points="470,-129 470,-159 564,-159 564,-129 470,-129"/>
<text text-anchor="start" x="478" y="-147" font-family="Arial" font-size="10.00" fill="#000000">mir_toolkit/events</text>
<text text-anchor="middle" x="517" y="-136" font-family="Arial" font-size="10.00" fill="#000000">/window_event.h</text>
</a>
</g>
</g>
<!-- Node3&#45;&gt;Node17 -->
<g id="edge25" class="edge">
<title>Node3&#45;&gt;Node17</title>
<path fill="none" stroke="#191970" d="M895.8149,-213.71C823.2635,-208.4141 680.9244,-194.6734 564,-165 560.8297,-164.1954 557.5918,-163.2709 554.3676,-162.2682"/>
<polygon fill="#191970" stroke="#191970" points="555.4115,-158.9267 544.8176,-159.0668 553.1866,-165.5638 555.4115,-158.9267"/>
</g>
<!-- Node18 -->
<g id="node19" class="node">
<title>Node18</title>
<g id="a_node19"><a xlink:href="orientation__event_8h.html" target="_top" xlink:title="mir_toolkit/events\l/orientation_event.h">
<polygon fill="#ffffff" stroke="#000000" points="582,-129 582,-159 684,-159 684,-129 582,-129"/>
<text text-anchor="start" x="590" y="-147" font-family="Arial" font-size="10.00" fill="#000000">mir_toolkit/events</text>
<text text-anchor="middle" x="633" y="-136" font-family="Arial" font-size="10.00" fill="#000000">/orientation_event.h</text>
</a>
</g>
</g>
<!-- Node3&#45;&gt;Node18 -->
<g id="edge27" class="edge">
<title>Node3&#45;&gt;Node18</title>
<path fill="none" stroke="#191970" d="M895.9864,-209.3173C844.5201,-200.3684 760.1989,-183.9282 689,-165 685.5725,-164.0888 682.0587,-163.1039 678.5399,-162.0749"/>
<polygon fill="#191970" stroke="#191970" points="679.263,-158.6369 668.6776,-159.0832 677.2309,-165.3354 679.263,-158.6369"/>
</g>
<!-- Node19 -->
<g id="node20" class="node">
<title>Node19</title>
<g id="a_node20"><a xlink:href="prompt__session__event_8h.html" target="_top" xlink:title="mir_toolkit/events\l/prompt_session_event.h">
<polygon fill="#ffffff" stroke="#000000" points="880,-129 880,-159 1006,-159 1006,-129 880,-129"/>
<text text-anchor="start" x="888" y="-147" font-family="Arial" font-size="10.00" fill="#000000">mir_toolkit/events</text>
<text text-anchor="middle" x="943" y="-136" font-family="Arial" font-size="10.00" fill="#000000">/prompt_session_event.h</text>
</a>
</g>
</g>
<!-- Node3&#45;&gt;Node19 -->
<g id="edge29" class="edge">
<title>Node3&#45;&gt;Node19</title>
<path fill="none" stroke="#191970" d="M937.4073,-201.478C936.2494,-192.1459 935.9604,-179.9157 936.5402,-169.1368"/>
<polygon fill="#191970" stroke="#191970" points="940.042,-169.2654 937.4097,-159.0028 933.0676,-168.667 940.042,-169.2654"/>
</g>
<!-- Node20 -->
<g id="node21" class="node">
<title>Node20</title>
<g id="a_node21"><a xlink:href="keymap__event_8h.html" target="_top" xlink:title="mir_toolkit/events\l/keymap_event.h">
<polygon fill="#ffffff" stroke="#000000" points="1395,-129 1395,-159 1489,-159 1489,-129 1395,-129"/>
<text text-anchor="start" x="1403" y="-147" font-family="Arial" font-size="10.00" fill="#000000">mir_toolkit/events</text>
<text text-anchor="middle" x="1442" y="-136" font-family="Arial" font-size="10.00" fill="#000000">/keymap_event.h</text>
</a>
</g>
</g>
<!-- Node3&#45;&gt;Node20 -->
<g id="edge31" class="edge">
<title>Node3&#45;&gt;Node20</title>
<path fill="none" stroke="#191970" d="M990.2236,-214.4996C1070.7099,-210.4074 1238.7121,-198.4389 1377,-165 1380.3305,-164.1947 1383.7329,-163.248 1387.1526,-162.2098"/>
<polygon fill="#191970" stroke="#191970" points="1388.3586,-165.4982 1396.7905,-159.0831 1386.1985,-158.8399 1388.3586,-165.4982"/>
</g>
<!-- Node21 -->
<g id="node22" class="node">
<title>Node21</title>
<g id="a_node22"><a xlink:href="input__configuration__event_8h.html" target="_top" xlink:title="mir_toolkit/events\l/input_configuration\l_event.h">
<polygon fill="#ffffff" stroke="#000000" points="238.5,-123.5 238.5,-164.5 339.5,-164.5 339.5,-123.5 238.5,-123.5"/>
<text text-anchor="start" x="246.5" y="-152.5" font-family="Arial" font-size="10.00" fill="#000000">mir_toolkit/events</text>
<text text-anchor="start" x="246.5" y="-141.5" font-family="Arial" font-size="10.00" fill="#000000">/input_configuration</text>
<text text-anchor="middle" x="289" y="-130.5" font-family="Arial" font-size="10.00" fill="#000000">_event.h</text>
</a>
</g>
</g>
<!-- Node3&#45;&gt;Node21 -->
<g id="edge34" class="edge">
<title>Node3&#45;&gt;Node21</title>
<path fill="none" stroke="#191970" d="M895.9979,-214.1795C776.7709,-207.7649 464.5282,-188.817 348.0511,-166.5893"/>
<polygon fill="#191970" stroke="#191970" points="348.5457,-163.1186 338.0505,-164.5681 347.1589,-169.9799 348.5457,-163.1186"/>
</g>
<!-- Node22 -->
<g id="node23" class="node">
<title>Node22</title>
<g id="a_node23"><a xlink:href="surface__output__event_8h.html" target="_top" xlink:title="mir_toolkit/events\l/surface_output_event.h">
<polygon fill="#ffffff" stroke="#000000" points="740,-129 740,-159 862,-159 862,-129 740,-129"/>
<text text-anchor="start" x="748" y="-147" font-family="Arial" font-size="10.00" fill="#000000">mir_toolkit/events</text>
<text text-anchor="middle" x="801" y="-136" font-family="Arial" font-size="10.00" fill="#000000">/surface_output_event.h</text>
</a>
</g>
</g>
<!-- Node3&#45;&gt;Node22 -->
<g id="edge37" class="edge">
<title>Node3&#45;&gt;Node22</title>
<path fill="none" stroke="#191970" d="M907.9848,-201.478C885.3096,-190.5905 856.091,-175.7585 833.8565,-163.8885"/>
<polygon fill="#191970" stroke="#191970" points="835.2577,-160.6677 824.7945,-159.0028 831.9357,-166.8292 835.2577,-160.6677"/>
</g>
<!-- Node23 -->
<g id="node24" class="node">
<title>Node23</title>
<g id="a_node24"><a xlink:href="window__output__event_8h.html" target="_top" xlink:title="mir_toolkit/events\l/window_output_event.h">
<polygon fill="#ffffff" stroke="#000000" points="1136.5,-129 1136.5,-159 1257.5,-159 1257.5,-129 1136.5,-129"/>
<text text-anchor="start" x="1144.5" y="-147" font-family="Arial" font-size="10.00" fill="#000000">mir_toolkit/events</text>
<text text-anchor="middle" x="1197" y="-136" font-family="Arial" font-size="10.00" fill="#000000">/window_output_event.h</text>
</a>
</g>
</g>
<!-- Node3&#45;&gt;Node23 -->
<g id="edge40" class="edge">
<title>Node3&#45;&gt;Node23</title>
<path fill="none" stroke="#191970" d="M990.1735,-201.4416C1025.4486,-191.3117 1074.6702,-177.5621 1118,-165 1121.4959,-163.9865 1125.0873,-162.9364 1128.7216,-161.8707"/>
<polygon fill="#191970" stroke="#191970" points="1129.7967,-165.2028 1138.4058,-159.0275 1127.8248,-158.4863 1129.7967,-165.2028"/>
</g>
<!-- Node24 -->
<g id="node25" class="node">
<title>Node24</title>
<g id="a_node25"><a xlink:href="input__device__state__event_8h.html" target="_top" xlink:title="mir_toolkit/events\l/input_device_state\l_event.h">
<polygon fill="#ffffff" stroke="#000000" points="1275.5,-123.5 1275.5,-164.5 1376.5,-164.5 1376.5,-123.5 1275.5,-123.5"/>
<text text-anchor="start" x="1283.5" y="-152.5" font-family="Arial" font-size="10.00" fill="#000000">mir_toolkit/events</text>
<text text-anchor="start" x="1283.5" y="-141.5" font-family="Arial" font-size="10.00" fill="#000000">/input_device_state</text>
<text text-anchor="middle" x="1326" y="-130.5" font-family="Arial" font-size="10.00" fill="#000000">_event.h</text>
</a>
</g>
</g>
<!-- Node3&#45;&gt;Node24 -->
<g id="edge42" class="edge">
<title>Node3&#45;&gt;Node24</title>
<path fill="none" stroke="#191970" d="M990.2729,-211.0404C1052.4169,-203.7483 1164.3176,-188.9002 1258,-165 1260.5778,-164.3424 1263.2018,-163.6186 1265.8476,-162.8473"/>
<polygon fill="#191970" stroke="#191970" points="1266.9525,-166.1693 1275.4787,-159.8801 1264.8914,-159.4796 1266.9525,-166.1693"/>
</g>
<!-- Node6&#45;&gt;Node7 -->
<g id="edge7" class="edge">
<title>Node6&#45;&gt;Node7</title>
<path fill="none" stroke="#191970" d="M173.3616,-134.2223C183.3086,-122.5907 200.0931,-102.9637 212.2409,-88.7586"/>
<polygon fill="#191970" stroke="#191970" points="214.9316,-90.9975 218.7709,-81.1228 209.6116,-86.448 214.9316,-90.9975"/>
</g>
<!-- Node8&#45;&gt;Node3 -->
<g id="edge10" class="edge">
<title>Node8&#45;&gt;Node3</title>
<path fill="none" stroke="#191970" d="M1562.9124,-159.0695C1555.4637,-161.3618 1547.5548,-163.4691 1540,-165 1438.3038,-185.6071 1129.5348,-205.8394 1000.5002,-213.394"/>
<polygon fill="#191970" stroke="#191970" points="1000.2002,-209.9054 990.42,-213.9796 1000.6062,-216.8936 1000.2002,-209.9054"/>
</g>
<!-- Node8&#45;&gt;Node5 -->
<g id="edge13" class="edge">
<title>Node8&#45;&gt;Node5</title>
<path fill="none" stroke="#191970" d="M1589.4895,-128.704C1584.7991,-117.3329 1578.5251,-101.3666 1574,-87 1567.942,-67.7663 1562.597,-45.3387 1559.132,-29.6663"/>
<polygon fill="#191970" stroke="#191970" points="1562.4884,-28.6273 1556.9578,-19.5905 1555.6459,-30.1038 1562.4884,-28.6273"/>
</g>
<!-- Node9 -->
<g id="node10" class="node">
<title>Node9</title>
<g id="a_node10"><a xlink:href="mir__input__device__types_8h.html" target="_top" xlink:title="mir_toolkit/mir_input\l_device_types.h">
<polygon fill="#ffffff" stroke="#000000" points="1583,-56.5 1583,-86.5 1687,-86.5 1687,-56.5 1583,-56.5"/>
<text text-anchor="start" x="1591" y="-74.5" font-family="Arial" font-size="10.00" fill="#000000">mir_toolkit/mir_input</text>
<text text-anchor="middle" x="1635" y="-63.5" font-family="Arial" font-size="10.00" fill="#000000">_device_types.h</text>
</a>
</g>
</g>
<!-- Node8&#45;&gt;Node9 -->
<g id="edge11" class="edge">
<title>Node8&#45;&gt;Node9</title>
<path fill="none" stroke="#191970" d="M1604.0808,-128.978C1609.2577,-119.3542 1616.0925,-106.6485 1622.0193,-95.6307"/>
<polygon fill="#191970" stroke="#191970" points="1625.2744,-96.9676 1626.9295,-86.5028 1619.1098,-93.6514 1625.2744,-96.9676"/>
</g>
<!-- Node8&#45;&gt;Node10 -->
<g id="edge14" class="edge">
<title>Node8&#45;&gt;Node10</title>
<path fill="none" stroke="#191970" d="M1636.7794,-128.9887C1643.1719,-126.85 1649.7357,-124.7768 1656,-123 1727.7923,-102.6369 1752.8109,-119.4718 1820,-87 1839.6243,-77.5158 1840.6982,-69.2555 1858,-56 1871.6352,-45.5536 1887.287,-34.2914 1899.699,-25.5254"/>
<polygon fill="#191970" stroke="#191970" points="1901.9187,-28.2434 1908.0892,-19.6308 1897.8947,-22.5156 1901.9187,-28.2434"/>
</g>
<!-- Node11 -->
<g id="node12" class="node">
<title>Node11</title>
<g id="a_node12"><a xlink:href="touch__event_8h.html" target="_top" xlink:title="mir_toolkit/events\l/input/touch_event.h">
<polygon fill="#ffffff" stroke="#000000" points="1705.5,-56.5 1705.5,-86.5 1810.5,-86.5 1810.5,-56.5 1705.5,-56.5"/>
<text text-anchor="start" x="1713.5" y="-74.5" font-family="Arial" font-size="10.00" fill="#000000">mir_toolkit/events</text>
<text text-anchor="middle" x="1758" y="-63.5" font-family="Arial" font-size="10.00" fill="#000000">/input/touch_event.h</text>
</a>
</g>
</g>
<!-- Node8&#45;&gt;Node11 -->
<g id="edge15" class="edge">
<title>Node8&#45;&gt;Node11</title>
<path fill="none" stroke="#191970" d="M1629.5665,-128.978C1654.4373,-117.8475 1688.5201,-102.5944 1715.3256,-90.5981"/>
<polygon fill="#191970" stroke="#191970" points="1716.7786,-93.7824 1724.4765,-86.5028 1713.9191,-87.3931 1716.7786,-93.7824"/>
</g>
<!-- Node12 -->
<g id="node13" class="node">
<title>Node12</title>
<g id="a_node13"><a xlink:href="keyboard__event_8h.html" target="_top" xlink:title="mir_toolkit/events\l/input/keyboard_event.h">
<polygon fill="#ffffff" stroke="#000000" points="1367.5,-56.5 1367.5,-86.5 1488.5,-86.5 1488.5,-56.5 1367.5,-56.5"/>
<text text-anchor="start" x="1375.5" y="-74.5" font-family="Arial" font-size="10.00" fill="#000000">mir_toolkit/events</text>
<text text-anchor="middle" x="1428" y="-63.5" font-family="Arial" font-size="10.00" fill="#000000">/input/keyboard_event.h</text>
</a>
</g>
</g>
<!-- Node8&#45;&gt;Node12 -->
<g id="edge16" class="edge">
<title>Node8&#45;&gt;Node12</title>
<path fill="none" stroke="#191970" d="M1561.1903,-128.978C1535.3983,-117.8475 1500.0532,-102.5944 1472.2549,-90.5981"/>
<polygon fill="#191970" stroke="#191970" points="1473.3335,-87.2516 1462.7651,-86.5028 1470.5598,-93.6787 1473.3335,-87.2516"/>
</g>
<!-- Node14 -->
<g id="node15" class="node">
<title>Node14</title>
<g id="a_node15"><a xlink:href="pointer__event_8h.html" target="_top" xlink:title="mir_toolkit/events\l/input/pointer_event.h">
<polygon fill="#ffffff" stroke="#000000" points="1867,-56.5 1867,-86.5 1977,-86.5 1977,-56.5 1867,-56.5"/>
<text text-anchor="start" x="1875" y="-74.5" font-family="Arial" font-size="10.00" fill="#000000">mir_toolkit/events</text>
<text text-anchor="middle" x="1922" y="-63.5" font-family="Arial" font-size="10.00" fill="#000000">/input/pointer_event.h</text>
</a>
</g>
</g>
<!-- Node8&#45;&gt;Node14 -->
<g id="edge18" class="edge">
<title>Node8&#45;&gt;Node14</title>
<path fill="none" stroke="#191970" d="M1636.4001,-128.8991C1642.902,-126.7476 1649.5986,-124.6941 1656,-123 1742.0434,-100.2293 1765.7839,-104.7575 1853,-87 1854.252,-86.7451 1855.5162,-86.4853 1856.7895,-86.2214"/>
<polygon fill="#191970" stroke="#191970" points="1857.6196,-89.6234 1866.6804,-84.1324 1856.173,-82.7745 1857.6196,-89.6234"/>
</g>
<!-- Node9&#45;&gt;Node5 -->
<g id="edge12" class="edge">
<title>Node9&#45;&gt;Node5</title>
<path fill="none" stroke="#191970" d="M1615.2247,-56.2977C1603.3102,-47.1384 1588.1468,-35.4816 1576.0162,-26.1562"/>
<polygon fill="#191970" stroke="#191970" points="1577.8703,-23.1668 1567.809,-19.8469 1573.604,-28.7165 1577.8703,-23.1668"/>
</g>
<!-- Node13 -->
<g id="node14" class="node">
<title>Node13</title>
<polygon fill="#ffffff" stroke="#bfbfbf" points="1317,-.5 1317,-19.5 1451,-19.5 1451,-.5 1317,-.5"/>
<text text-anchor="middle" x="1384" y="-7.5" font-family="Arial" font-size="10.00" fill="#000000">xkbcommon/xkbcommon.h</text>
</g>
<!-- Node12&#45;&gt;Node13 -->
<g id="edge17" class="edge">
<title>Node12&#45;&gt;Node13</title>
<path fill="none" stroke="#191970" d="M1417.1236,-56.2977C1411.0159,-47.7609 1403.3561,-37.0545 1396.9412,-28.0883"/>
<polygon fill="#191970" stroke="#191970" points="1399.7101,-25.9433 1391.045,-19.8469 1394.0171,-30.0163 1399.7101,-25.9433"/>
</g>
<!-- Node14&#45;&gt;Node10 -->
<g id="edge19" class="edge">
<title>Node14&#45;&gt;Node10</title>
<path fill="none" stroke="#191970" d="M1922,-56.2977C1922,-48.3834 1922,-38.6043 1922,-30.0759"/>
<polygon fill="#191970" stroke="#191970" points="1925.5001,-29.8469 1922,-19.8469 1918.5001,-29.847 1925.5001,-29.8469"/>
</g>
<!-- Node15&#45;&gt;Node3 -->
<g id="edge21" class="edge">
<title>Node15&#45;&gt;Node3</title>
<path fill="none" stroke="#191970" d="M449.888,-159.0279C456.59,-161.3246 463.4326,-163.4442 470,-165 617.3028,-199.8952 795.5719,-211.1786 885.4427,-214.8035"/>
<polygon fill="#191970" stroke="#191970" points="885.5671,-218.3108 895.6946,-215.1991 885.837,-211.316 885.5671,-218.3108"/>
</g>
<!-- Node16&#45;&gt;Node3 -->
<g id="edge23" class="edge">
<title>Node16&#45;&gt;Node3</title>
<path fill="none" stroke="#191970" d="M1050.1026,-159.0028C1032.1614,-169.9342 1005.9932,-184.8495 983.9557,-196.7494"/>
<polygon fill="#191970" stroke="#191970" points="982.2818,-193.6754 975.1144,-201.478 985.5831,-199.8481 982.2818,-193.6754"/>
</g>
<!-- Node16&#45;&gt;Node7 -->
<g id="edge24" class="edge">
<title>Node16&#45;&gt;Node7</title>
<path fill="none" stroke="#191970" d="M1035.6206,-128.9562C1028.878,-126.6 1021.8011,-124.4639 1015,-123 880.1257,-93.9681 470.2708,-78.7536 301.1709,-73.5747"/>
<polygon fill="#191970" stroke="#191970" points="301.2149,-70.0745 291.1134,-73.2698 301.0027,-77.0713 301.2149,-70.0745"/>
</g>
<!-- Node17&#45;&gt;Node3 -->
<g id="edge26" class="edge">
<title>Node17&#45;&gt;Node3</title>
<path fill="none" stroke="#191970" d="M562.5493,-159.0668C569.0482,-161.302 575.6595,-163.3909 582,-165 687.6018,-191.7999 813.9344,-205.6035 885.7749,-211.9271"/>
<polygon fill="#191970" stroke="#191970" points="885.7061,-215.4341 895.9699,-212.8065 886.3077,-208.46 885.7061,-215.4341"/>
</g>
<!-- Node18&#45;&gt;Node3 -->
<g id="edge28" class="edge">
<title>Node18&#45;&gt;Node3</title>
<path fill="none" stroke="#191970" d="M684.3253,-158.4281C691.935,-160.7625 699.665,-163.05 707,-165 767.5885,-181.1074 837.6796,-195.4131 885.7206,-204.8339"/>
<polygon fill="#191970" stroke="#191970" points="885.1405,-208.2866 895.626,-206.7689 886.4826,-201.4165 885.1405,-208.2866"/>
</g>
<!-- Node19&#45;&gt;Node3 -->
<g id="edge30" class="edge">
<title>Node19&#45;&gt;Node3</title>
<path fill="none" stroke="#191970" d="M948.5903,-159.0028C949.7494,-168.3309 950.0396,-180.5601 949.461,-191.3409"/>
<polygon fill="#191970" stroke="#191970" points="945.959,-191.2157 948.5927,-201.478 952.9334,-191.8132 945.959,-191.2157"/>
</g>
<!-- Node20&#45;&gt;Node3 -->
<g id="edge32" class="edge">
<title>Node20&#45;&gt;Node3</title>
<path fill="none" stroke="#191970" d="M1414.5092,-159.0831C1408.1888,-161.3447 1401.4592,-163.4381 1395,-165 1255.9668,-198.6191 1086.8983,-210.5358 1000.1655,-214.5651"/>
<polygon fill="#191970" stroke="#191970" points="999.8382,-211.0761 990.0041,-215.0183 1000.1501,-218.0692 999.8382,-211.0761"/>
</g>
<!-- Node20&#45;&gt;Node13 -->
<g id="edge33" class="edge">
<title>Node20&#45;&gt;Node13</title>
<path fill="none" stroke="#191970" d="M1405.3182,-128.7795C1387.9331,-119.4745 1368.8518,-105.7169 1359,-87 1348.9854,-67.9738 1359.8667,-44.191 1370.2465,-28.1302"/>
<polygon fill="#191970" stroke="#191970" points="1373.301,-29.8684 1376.1384,-19.6605 1367.5546,-25.8709 1373.301,-29.8684"/>
</g>
<!-- Node21&#45;&gt;Node3 -->
<g id="edge35" class="edge">
<title>Node21&#45;&gt;Node3</title>
<path fill="none" stroke="#191970" d="M339.8169,-160.1511C345.9114,-162.029 352.0654,-163.7253 358,-165 458.1589,-186.5136 758.5378,-205.5467 885.4855,-213.0739"/>
<polygon fill="#191970" stroke="#191970" points="885.5835,-216.5857 895.7725,-213.6813 885.9962,-209.5979 885.5835,-216.5857"/>
</g>
<!-- Node21&#45;&gt;Node7 -->
<g id="edge36" class="edge">
<title>Node21&#45;&gt;Node7</title>
<path fill="none" stroke="#191970" d="M271.3991,-123.4183C262.0205,-112.4514 250.6157,-99.1152 241.7135,-88.7053"/>
<polygon fill="#191970" stroke="#191970" points="244.3564,-86.4106 235.1971,-81.0853 239.0364,-90.9601 244.3564,-86.4106"/>
</g>
<!-- Node22&#45;&gt;Node3 -->
<g id="edge38" class="edge">
<title>Node22&#45;&gt;Node3</title>
<path fill="none" stroke="#191970" d="M835.9751,-159.0028C858.6426,-169.8856 887.8614,-184.717 910.1042,-196.5905"/>
<polygon fill="#191970" stroke="#191970" points="908.707,-199.8135 919.1702,-201.478 912.0287,-193.6518 908.707,-199.8135"/>
</g>
<!-- Node22&#45;&gt;Node7 -->
<g id="edge39" class="edge">
<title>Node22&#45;&gt;Node7</title>
<path fill="none" stroke="#191970" d="M751.6605,-128.9031C743.1605,-126.6714 734.3686,-124.5915 726,-123 576.8449,-94.6353 399.4304,-81.0199 301.4126,-75.2195"/>
<polygon fill="#191970" stroke="#191970" points="301.4955,-71.7185 291.3094,-74.6328 301.0896,-78.7067 301.4955,-71.7185"/>
</g>
<!-- Node23&#45;&gt;Node3 -->
<g id="edge41" class="edge">
<title>Node23&#45;&gt;Node3</title>
<path fill="none" stroke="#191970" d="M1156.2368,-159.0275C1149.4994,-161.0549 1142.5805,-163.0922 1136,-165 1090.6677,-178.1427 1038.8865,-192.585 1000.2836,-202.8224"/>
<polygon fill="#191970" stroke="#191970" points="999.0427,-199.5298 990.2645,-205.4622 1000.8262,-206.2988 999.0427,-199.5298"/>
</g>
<!-- Node24&#45;&gt;Node3 -->
<g id="edge43" class="edge">
<title>Node24&#45;&gt;Node3</title>
<path fill="none" stroke="#191970" d="M1277.9041,-164.5046C1277.267,-164.6735 1276.6321,-164.8387 1276,-165 1180.9864,-189.2398 1067.233,-204.1684 1000.1794,-211.3467"/>
<polygon fill="#191970" stroke="#191970" points="999.8108,-207.8661 990.2309,-212.3911 1000.5417,-214.8278 999.8108,-207.8661"/>
</g>
<!-- Node25&#45;&gt;Node2 -->
<g id="edge51" class="edge">
<title>Node25&#45;&gt;Node2</title>
<path fill="none" stroke="#191970" d="M92.2339,-335.4639C114.9806,-325.7567 144.7759,-313.0415 169.1993,-302.6188"/>
<polygon fill="#191970" stroke="#191970" points="170.7887,-305.7459 178.6125,-298.6017 168.0412,-299.3077 170.7887,-305.7459"/>
</g>
<!-- Node25&#45;&gt;Node7 -->
<g id="edge52" class="edge">
<title>Node25&#45;&gt;Node7</title>
<path fill="none" stroke="#191970" d="M54.1671,-335.4776C47.6067,-295.8704 35.6108,-187.241 87,-123 98.7929,-108.2578 142.5604,-93.6039 178.0584,-83.7191"/>
<polygon fill="#191970" stroke="#191970" points="179.0889,-87.066 187.8179,-81.0614 177.2496,-80.3119 179.0889,-87.066"/>
</g>
</g>
</svg>
