<?xml version="1.0" encoding="UTF-8" standalone="no"?>
<!DOCTYPE svg PUBLIC "-//W3C//DTD SVG 1.1//EN"
 "http://www.w3.org/Graphics/SVG/1.1/DTD/svg11.dtd">
<!-- Generated by graphviz version 2.43.0 (0)
 -->
<!-- Title: include/miroil/miroil/display_listener_wrapper.h Pages: 1 -->
<svg width="196pt" height="95pt"
 viewBox="0.00 0.00 195.50 95.00" xmlns="http://www.w3.org/2000/svg" xmlns:xlink="http://www.w3.org/1999/xlink">
<g id="graph0" class="graph" transform="scale(1 1) rotate(0) translate(4 91)">
<title>include/miroil/miroil/display_listener_wrapper.h</title>
<polygon fill="white" stroke="transparent" points="-4,4 -4,-91 191.5,-91 191.5,4 -4,4"/>
<!-- Node1 -->
<g id="node1" class="node">
<title>Node1</title>
<g id="a_node1"><a xlink:title=" ">
<polygon fill="#bfbfbf" stroke="black" points="42,-56.5 42,-86.5 177,-86.5 177,-56.5 42,-56.5"/>
<text text-anchor="start" x="50" y="-74.5" font-family="Arial" font-size="10.00">include/miroil/miroil</text>
<text text-anchor="middle" x="109.5" y="-63.5" font-family="Arial" font-size="10.00">/display_listener_wrapper.h</text>
</a>
</g>
</g>
<!-- Node2 -->
<g id="node2" class="node">
<title>Node2</title>
<g id="a_node2"><a xlink:href="forward_8h.html" target="_top" xlink:title=" ">
<polygon fill="white" stroke="black" points="0,-0.5 0,-19.5 117,-19.5 117,-0.5 0,-0.5"/>
<text text-anchor="middle" x="58.5" y="-7.5" font-family="Arial" font-size="10.00">mir/geometry/forward.h</text>
</a>
</g>
</g>
<!-- Node1&#45;&gt;Node2 -->
<g id="edge1" class="edge">
<title>Node1&#45;&gt;Node2</title>
<path fill="none" stroke="midnightblue" d="M97.41,-56.4C89.93,-47.66 80.28,-36.41 72.47,-27.3"/>
<polygon fill="midnightblue" stroke="midnightblue" points="75.09,-24.97 65.92,-19.66 69.77,-29.53 75.09,-24.97"/>
</g>
<!-- Node3 -->
<g id="node3" class="node">
<title>Node3</title>
<g id="a_node3"><a xlink:title=" ">
<polygon fill="white" stroke="#bfbfbf" points="135.5,-0.5 135.5,-19.5 187.5,-19.5 187.5,-0.5 135.5,-0.5"/>
<text text-anchor="middle" x="161.5" y="-7.5" font-family="Arial" font-size="10.00">memory</text>
</a>
</g>
</g>
<!-- Node1&#45;&gt;Node3 -->
<g id="edge2" class="edge">
<title>Node1&#45;&gt;Node3</title>
<path fill="none" stroke="midnightblue" d="M121.82,-56.4C129.46,-47.66 139.29,-36.41 147.26,-27.3"/>
<polygon fill="midnightblue" stroke="midnightblue" points="149.99,-29.49 153.93,-19.66 144.72,-24.88 149.99,-29.49"/>
</g>
</g>
</svg>
