<?xml version="1.0" encoding="UTF-8" standalone="no"?>
<!DOCTYPE svg PUBLIC "-//W3C//DTD SVG 1.1//EN"
 "http://www.w3.org/Graphics/SVG/1.1/DTD/svg11.dtd">
<!-- Generated by graphviz version 2.40.1 (20161225.0304)
 -->
<!-- Title: include/core/mir/geometry/displacement.h Pages: 1 -->
<svg width="209pt" height="207pt"
 viewBox="0.00 0.00 208.89 207.00" xmlns="http://www.w3.org/2000/svg" xmlns:xlink="http://www.w3.org/1999/xlink">
<g id="graph0" class="graph" transform="scale(1 1) rotate(0) translate(4 203)">
<title>include/core/mir/geometry/displacement.h</title>
<polygon fill="#ffffff" stroke="transparent" points="-4,4 -4,-203 204.8863,-203 204.8863,4 -4,4"/>
<!-- Node0 -->
<g id="node1" class="node">
<title>Node0</title>
<polygon fill="#bfbfbf" stroke="#000000" points="68.5,-168.5 68.5,-198.5 197.5,-198.5 197.5,-168.5 68.5,-168.5"/>
<text text-anchor="start" x="76.5" y="-186.5" font-family="Arial" font-size="10.00" fill="#000000">include/core/mir/geometry</text>
<text text-anchor="middle" x="133" y="-175.5" font-family="Arial" font-size="10.00" fill="#000000">/displacement.h</text>
</g>
<!-- Node1 -->
<g id="node2" class="node">
<title>Node1</title>
<g id="a_node2"><a xlink:href="dimensions_8h.html" target="_top" xlink:title="mir/geometry/dimensions.h">
<polygon fill="#ffffff" stroke="#000000" points="0,-56.5 0,-75.5 134,-75.5 134,-56.5 0,-56.5"/>
<text text-anchor="middle" x="67" y="-63.5" font-family="Arial" font-size="10.00" fill="#000000">mir/geometry/dimensions.h</text>
</a>
</g>
</g>
<!-- Node0&#45;&gt;Node1 -->
<g id="edge1" class="edge">
<title>Node0&#45;&gt;Node1</title>
<path fill="none" stroke="#191970" d="M106.1654,-168.457C93.1602,-159.6374 78.7175,-147.2273 71,-132 63.7833,-117.7609 63.2267,-99.5162 64.224,-85.8194"/>
<polygon fill="#191970" stroke="#191970" points="67.7366,-85.8859 65.3151,-75.5715 60.776,-85.1447 67.7366,-85.8859"/>
</g>
<!-- Node3 -->
<g id="node4" class="node">
<title>Node3</title>
<polygon fill="#ffffff" stroke="#bfbfbf" points="140,-.5 140,-19.5 184,-19.5 184,-.5 140,-.5"/>
<text text-anchor="middle" x="162" y="-7.5" font-family="Arial" font-size="10.00" fill="#000000">iosfwd</text>
</g>
<!-- Node0&#45;&gt;Node3 -->
<g id="edge7" class="edge">
<title>Node0&#45;&gt;Node3</title>
<path fill="none" stroke="#191970" d="M160.5389,-168.4269C173.5618,-159.6707 187.8063,-147.3272 195,-132 211.3777,-97.1051 189.7361,-52.649 174.5437,-28.1877"/>
<polygon fill="#191970" stroke="#191970" points="177.3259,-26.046 168.9386,-19.5726 171.4584,-29.8635 177.3259,-26.046"/>
</g>
<!-- Node4 -->
<g id="node5" class="node">
<title>Node4</title>
<g id="a_node5"><a xlink:href="point_8h.html" target="_top" xlink:title="mir/geometry/point.h">
<polygon fill="#ffffff" stroke="#000000" points="80,-112.5 80,-131.5 186,-131.5 186,-112.5 80,-112.5"/>
<text text-anchor="middle" x="133" y="-119.5" font-family="Arial" font-size="10.00" fill="#000000">mir/geometry/point.h</text>
</a>
</g>
</g>
<!-- Node0&#45;&gt;Node4 -->
<g id="edge4" class="edge">
<title>Node0&#45;&gt;Node4</title>
<path fill="none" stroke="#191970" d="M133,-168.2977C133,-160.3834 133,-150.6043 133,-142.0759"/>
<polygon fill="#191970" stroke="#191970" points="136.5001,-141.8469 133,-131.8469 129.5001,-141.847 136.5001,-141.8469"/>
</g>
<!-- Node2 -->
<g id="node3" class="node">
<title>Node2</title>
<polygon fill="#ffffff" stroke="#bfbfbf" points="44,-.5 44,-19.5 90,-19.5 90,-.5 44,-.5"/>
<text text-anchor="middle" x="67" y="-7.5" font-family="Arial" font-size="10.00" fill="#000000">cstdint</text>
</g>
<!-- Node1&#45;&gt;Node2 -->
<g id="edge2" class="edge">
<title>Node1&#45;&gt;Node2</title>
<path fill="none" stroke="#191970" d="M67,-56.2455C67,-48.9382 67,-38.6944 67,-29.7046"/>
<polygon fill="#191970" stroke="#191970" points="70.5001,-29.6426 67,-19.6427 63.5001,-29.6427 70.5001,-29.6426"/>
</g>
<!-- Node1&#45;&gt;Node3 -->
<g id="edge3" class="edge">
<title>Node1&#45;&gt;Node3</title>
<path fill="none" stroke="#191970" d="M83.5477,-56.2455C98.2599,-47.5731 119.9888,-34.7645 136.8505,-24.825"/>
<polygon fill="#191970" stroke="#191970" points="138.8046,-27.736 145.6419,-19.6427 135.2498,-21.7057 138.8046,-27.736"/>
</g>
<!-- Node4&#45;&gt;Node1 -->
<g id="edge5" class="edge">
<title>Node4&#45;&gt;Node1</title>
<path fill="none" stroke="#191970" d="M121.5037,-112.2455C111.7558,-103.9746 97.5741,-91.9416 86.1202,-82.2232"/>
<polygon fill="#191970" stroke="#191970" points="88.2541,-79.4437 78.3646,-75.6427 83.7253,-84.7813 88.2541,-79.4437"/>
</g>
<!-- Node4&#45;&gt;Node3 -->
<g id="edge6" class="edge">
<title>Node4&#45;&gt;Node3</title>
<path fill="none" stroke="#191970" d="M135.4725,-112.4509C140.2238,-94.1013 150.7131,-53.5908 156.9847,-29.3693"/>
<polygon fill="#191970" stroke="#191970" points="160.4153,-30.083 159.5337,-19.5249 153.6388,-28.3283 160.4153,-30.083"/>
</g>
</g>
</svg>
