<?xml version="1.0" encoding="UTF-8" standalone="no"?>
<!DOCTYPE svg PUBLIC "-//W3C//DTD SVG 1.1//EN"
 "http://www.w3.org/Graphics/SVG/1.1/DTD/svg11.dtd">
<!-- Generated by graphviz version 2.38.0 (20140413.2041)
 -->
<!-- Title: include/common/mir/dispatch/dispatchable.h Pages: 1 -->
<svg width="397pt" height="184pt"
 viewBox="0.00 0.00 397.00 184.00" xmlns="http://www.w3.org/2000/svg" xmlns:xlink="http://www.w3.org/1999/xlink">
<g id="graph0" class="graph" transform="scale(1 1) rotate(0) translate(4 180)">
<title>include/common/mir/dispatch/dispatchable.h</title>
<polygon fill="white" stroke="none" points="-4,4 -4,-180 393,-180 393,4 -4,4"/>
<!-- Node3 -->
<g id="node1" class="node"><title>Node3</title>
<polygon fill="#bfbfbf" stroke="black" points="137.5,-145.5 137.5,-175.5 259.5,-175.5 259.5,-145.5 137.5,-145.5"/>
<text text-anchor="start" x="145.5" y="-163.5" font-family="Arial" font-size="10.00">include/common/mir</text>
<text text-anchor="middle" x="198.5" y="-152.5" font-family="Arial" font-size="10.00">/dispatch/dispatchable.h</text>
</g>
<!-- Node4 -->
<g id="node2" class="node"><title>Node4</title>
<g id="a_node2"><a xlink:href="action__queue_8h.html" target="_top" xlink:title="include/common/mir\l/dispatch/action_queue.h">
<polygon fill="white" stroke="black" points="-7.10543e-15,-73 -7.10543e-15,-103 125,-103 125,-73 -7.10543e-15,-73"/>
<text text-anchor="start" x="8" y="-91" font-family="Arial" font-size="10.00">include/common/mir</text>
<text text-anchor="middle" x="62.5" y="-80" font-family="Arial" font-size="10.00">/dispatch/action_queue.h</text>
</a>
</g>
</g>
<!-- Node3&#45;&gt;Node4 -->
<g id="edge1" class="edge"><title>Node3&#45;&gt;Node4</title>
<path fill="none" stroke="midnightblue" d="M162.263,-140.715C139.449,-128.889 110.483,-113.874 89.6476,-103.073"/>
<polygon fill="midnightblue" stroke="midnightblue" points="160.816,-143.908 171.305,-145.403 164.038,-137.693 160.816,-143.908"/>
</g>
<!-- Node5 -->
<g id="node3" class="node"><title>Node5</title>
<g id="a_node3"><a xlink:href="multiplexing__dispatchable_8h.html" target="_top" xlink:title="include/common/mir\l/dispatch/multiplexing\l_dispatchable.h">
<polygon fill="white" stroke="black" points="143,-67.5 143,-108.5 254,-108.5 254,-67.5 143,-67.5"/>
<text text-anchor="start" x="151" y="-96.5" font-family="Arial" font-size="10.00">include/common/mir</text>
<text text-anchor="start" x="151" y="-85.5" font-family="Arial" font-size="10.00">/dispatch/multiplexing</text>
<text text-anchor="middle" x="198.5" y="-74.5" font-family="Arial" font-size="10.00">_dispatchable.h</text>
</a>
</g>
</g>
<!-- Node3&#45;&gt;Node5 -->
<g id="edge2" class="edge"><title>Node3&#45;&gt;Node5</title>
<path fill="none" stroke="midnightblue" d="M198.5,-134.982C198.5,-126.347 198.5,-116.762 198.5,-108.588"/>
<polygon fill="midnightblue" stroke="midnightblue" points="195,-135.233 198.5,-145.233 202,-135.233 195,-135.233"/>
</g>
<!-- Node7 -->
<g id="node5" class="node"><title>Node7</title>
<g id="a_node5"><a xlink:href="readable__fd_8h.html" target="_top" xlink:title="include/common/mir\l/dispatch/readable_fd.h">
<polygon fill="white" stroke="black" points="272,-73 272,-103 389,-103 389,-73 272,-73"/>
<text text-anchor="start" x="280" y="-91" font-family="Arial" font-size="10.00">include/common/mir</text>
<text text-anchor="middle" x="330.5" y="-80" font-family="Arial" font-size="10.00">/dispatch/readable_fd.h</text>
</a>
</g>
</g>
<!-- Node3&#45;&gt;Node7 -->
<g id="edge4" class="edge"><title>Node3&#45;&gt;Node7</title>
<path fill="none" stroke="midnightblue" d="M233.967,-140.558C256.064,-128.756 284.018,-113.826 304.151,-103.073"/>
<polygon fill="midnightblue" stroke="midnightblue" points="232.067,-137.604 224.895,-145.403 235.365,-143.779 232.067,-137.604"/>
</g>
<!-- Node6 -->
<g id="node4" class="node"><title>Node6</title>
<g id="a_node4"><a xlink:href="threaded__dispatcher_8h.html" target="_top" xlink:title="include/common/mir\l/dispatch/threaded_dispatcher.h">
<polygon fill="white" stroke="black" points="121,-0.5 121,-30.5 276,-30.5 276,-0.5 121,-0.5"/>
<text text-anchor="start" x="129" y="-18.5" font-family="Arial" font-size="10.00">include/common/mir</text>
<text text-anchor="middle" x="198.5" y="-7.5" font-family="Arial" font-size="10.00">/dispatch/threaded_dispatcher.h</text>
</a>
</g>
</g>
<!-- Node5&#45;&gt;Node6 -->
<g id="edge3" class="edge"><title>Node5&#45;&gt;Node6</title>
<path fill="none" stroke="midnightblue" d="M198.5,-57.08C198.5,-48.0061 198.5,-38.4498 198.5,-30.8916"/>
<polygon fill="midnightblue" stroke="midnightblue" points="195,-57.3618 198.5,-67.3618 202,-57.3619 195,-57.3618"/>
</g>
</g>
</svg>
