<?xml version="1.0" encoding="UTF-8" standalone="no"?>
<!DOCTYPE svg PUBLIC "-//W3C//DTD SVG 1.1//EN"
 "http://www.w3.org/Graphics/SVG/1.1/DTD/svg11.dtd">
<!-- Generated by graphviz version 2.38.0 (20140413.2041)
 -->
<!-- Title: include/core/mir/geometry/displacement.h Pages: 1 -->
<svg width="967pt" height="441pt"
 viewBox="0.00 0.00 967.00 441.00" xmlns="http://www.w3.org/2000/svg" xmlns:xlink="http://www.w3.org/1999/xlink">
<g id="graph0" class="graph" transform="scale(1 1) rotate(0) translate(4 437)">
<title>include/core/mir/geometry/displacement.h</title>
<polygon fill="white" stroke="none" points="-4,4 -4,-437 963,-437 963,4 -4,4"/>
<!-- Node5 -->
<g id="node1" class="node"><title>Node5</title>
<polygon fill="#bfbfbf" stroke="black" points="326.5,-402.5 326.5,-432.5 455.5,-432.5 455.5,-402.5 326.5,-402.5"/>
<text text-anchor="start" x="334.5" y="-420.5" font-family="Arial" font-size="10.00">include/core/mir/geometry</text>
<text text-anchor="middle" x="391" y="-409.5" font-family="Arial" font-size="10.00">/displacement.h</text>
</g>
<!-- Node6 -->
<g id="node2" class="node"><title>Node6</title>
<g id="a_node2"><a xlink:href="tiling__window__manager_8h.html" target="_top" xlink:title="examples/miral&#45;shell\l/tiling_window_manager.h">
<polygon fill="white" stroke="black" points="128.5,-134.5 128.5,-164.5 255.5,-164.5 255.5,-134.5 128.5,-134.5"/>
<text text-anchor="start" x="136.5" y="-152.5" font-family="Arial" font-size="10.00">examples/miral&#45;shell</text>
<text text-anchor="middle" x="192" y="-141.5" font-family="Arial" font-size="10.00">/tiling_window_manager.h</text>
</a>
</g>
</g>
<!-- Node5&#45;&gt;Node6 -->
<g id="edge1" class="edge"><title>Node5&#45;&gt;Node6</title>
<path fill="none" stroke="midnightblue" d="M316.391,-404.348C273.258,-395.708 224.844,-382.685 211,-366 161.356,-306.168 179.573,-202.197 188.365,-164.587"/>
<polygon fill="midnightblue" stroke="midnightblue" points="315.871,-407.812 326.356,-406.287 317.208,-400.941 315.871,-407.812"/>
</g>
<!-- Node10 -->
<g id="node6" class="node"><title>Node10</title>
<g id="a_node6"><a xlink:href="event__builders_8h.html" target="_top" xlink:title="include/client/mir\l/events/event_builders.h">
<polygon fill="white" stroke="black" points="220.5,-335.5 220.5,-365.5 343.5,-365.5 343.5,-335.5 220.5,-335.5"/>
<text text-anchor="start" x="228.5" y="-353.5" font-family="Arial" font-size="10.00">include/client/mir</text>
<text text-anchor="middle" x="282" y="-342.5" font-family="Arial" font-size="10.00">/events/event_builders.h</text>
</a>
</g>
</g>
<!-- Node5&#45;&gt;Node10 -->
<g id="edge5" class="edge"><title>Node5&#45;&gt;Node10</title>
<path fill="none" stroke="midnightblue" d="M358.325,-397.015C341.363,-386.9 321.022,-374.77 305.605,-365.577"/>
<polygon fill="midnightblue" stroke="midnightblue" points="356.967,-400.28 367.349,-402.396 360.552,-394.268 356.967,-400.28"/>
</g>
<!-- Node11 -->
<g id="node7" class="node"><title>Node11</title>
<g id="a_node7"><a xlink:href="window__management__policy_8h.html" target="_top" xlink:title="include/miral/miral\l/window_management_policy.h">
<polygon fill="white" stroke="black" points="269.5,-201.5 269.5,-231.5 420.5,-231.5 420.5,-201.5 269.5,-201.5"/>
<text text-anchor="start" x="277.5" y="-219.5" font-family="Arial" font-size="10.00">include/miral/miral</text>
<text text-anchor="middle" x="345" y="-208.5" font-family="Arial" font-size="10.00">/window_management_policy.h</text>
</a>
</g>
</g>
<!-- Node5&#45;&gt;Node11 -->
<g id="edge6" class="edge"><title>Node5&#45;&gt;Node11</title>
<path fill="none" stroke="midnightblue" d="M385.398,-392.266C375.695,-350.291 356.056,-265.327 348.278,-231.682"/>
<polygon fill="midnightblue" stroke="midnightblue" points="382.029,-393.234 387.692,-402.188 388.85,-391.657 382.029,-393.234"/>
</g>
<!-- Node18 -->
<g id="node14" class="node"><title>Node18</title>
<g id="a_node14"><a xlink:href="window__manager__tools_8h.html" target="_top" xlink:title="include/miral/miral\l/window_manager_tools.h">
<polygon fill="white" stroke="black" points="439,-201.5 439,-231.5 567,-231.5 567,-201.5 439,-201.5"/>
<text text-anchor="start" x="447" y="-219.5" font-family="Arial" font-size="10.00">include/miral/miral</text>
<text text-anchor="middle" x="503" y="-208.5" font-family="Arial" font-size="10.00">/window_manager_tools.h</text>
</a>
</g>
</g>
<!-- Node5&#45;&gt;Node18 -->
<g id="edge16" class="edge"><title>Node5&#45;&gt;Node18</title>
<path fill="none" stroke="midnightblue" d="M392.734,-392.036C396.006,-360.732 405.374,-306.018 432,-268 442.76,-252.637 459.754,-240.308 474.419,-231.679"/>
<polygon fill="midnightblue" stroke="midnightblue" points="389.242,-391.789 391.812,-402.067 396.212,-392.429 389.242,-391.789"/>
</g>
<!-- Node21 -->
<g id="node17" class="node"><title>Node21</title>
<g id="a_node17"><a xlink:href="window__specification_8h.html" target="_top" xlink:title="include/miral/miral\l/window_specification.h">
<polygon fill="white" stroke="black" points="438.5,-335.5 438.5,-365.5 557.5,-365.5 557.5,-335.5 438.5,-335.5"/>
<text text-anchor="start" x="446.5" y="-353.5" font-family="Arial" font-size="10.00">include/miral/miral</text>
<text text-anchor="middle" x="498" y="-342.5" font-family="Arial" font-size="10.00">/window_specification.h</text>
</a>
</g>
</g>
<!-- Node5&#45;&gt;Node21 -->
<g id="edge25" class="edge"><title>Node5&#45;&gt;Node21</title>
<path fill="none" stroke="midnightblue" d="M423.075,-397.015C439.726,-386.9 459.694,-374.77 474.828,-365.577"/>
<polygon fill="midnightblue" stroke="midnightblue" points="420.947,-394.213 414.217,-402.396 424.581,-400.195 420.947,-394.213"/>
</g>
<!-- Node24 -->
<g id="node20" class="node"><title>Node24</title>
<g id="a_node20"><a xlink:href="cursor__image_8h.html" target="_top" xlink:title="include/platform/mir\l/graphics/cursor_image.h">
<polygon fill="white" stroke="black" points="576,-335.5 576,-365.5 702,-365.5 702,-335.5 576,-335.5"/>
<text text-anchor="start" x="584" y="-353.5" font-family="Arial" font-size="10.00">include/platform/mir</text>
<text text-anchor="middle" x="639" y="-342.5" font-family="Arial" font-size="10.00">/graphics/cursor_image.h</text>
</a>
</g>
</g>
<!-- Node5&#45;&gt;Node24 -->
<g id="edge32" class="edge"><title>Node5&#45;&gt;Node24</title>
<path fill="none" stroke="midnightblue" d="M454.27,-399.917C494.741,-389.31 546.672,-375.699 585.161,-365.611"/>
<polygon fill="midnightblue" stroke="midnightblue" points="453.293,-396.555 444.507,-402.476 455.068,-403.326 453.293,-396.555"/>
</g>
<!-- Node7 -->
<g id="node3" class="node"><title>Node7</title>
<g id="a_node3"><a xlink:href="shell__main_8cpp.html" target="_top" xlink:title="examples/miral&#45;shell\l/shell_main.cpp">
<polygon fill="white" stroke="black" points="0,-0.5 0,-30.5 106,-30.5 106,-0.5 0,-0.5"/>
<text text-anchor="start" x="8" y="-18.5" font-family="Arial" font-size="10.00">examples/miral&#45;shell</text>
<text text-anchor="middle" x="53" y="-7.5" font-family="Arial" font-size="10.00">/shell_main.cpp</text>
</a>
</g>
</g>
<!-- Node6&#45;&gt;Node7 -->
<g id="edge2" class="edge"><title>Node6&#45;&gt;Node7</title>
<path fill="none" stroke="midnightblue" d="M154.155,-129.527C139.421,-121.077 122.992,-110.256 110,-98 88.5224,-77.7398 70.3051,-48.1821 60.5755,-30.7875"/>
<polygon fill="midnightblue" stroke="midnightblue" points="152.622,-132.679 163.064,-134.473 156.02,-126.559 152.622,-132.679"/>
</g>
<!-- Node8 -->
<g id="node4" class="node"><title>Node8</title>
<g id="a_node4"><a xlink:href="tiling__window__manager_8cpp.html" target="_top" xlink:title="examples/miral&#45;shell\l/tiling_window_manager.cpp">
<polygon fill="white" stroke="black" points="431.5,-67.5 431.5,-97.5 568.5,-97.5 568.5,-67.5 431.5,-67.5"/>
<text text-anchor="start" x="439.5" y="-85.5" font-family="Arial" font-size="10.00">examples/miral&#45;shell</text>
<text text-anchor="middle" x="500" y="-74.5" font-family="Arial" font-size="10.00">/tiling_window_manager.cpp</text>
</a>
</g>
</g>
<!-- Node6&#45;&gt;Node8 -->
<g id="edge3" class="edge"><title>Node6&#45;&gt;Node8</title>
<path fill="none" stroke="midnightblue" d="M265.802,-132.925C316.86,-122.15 384.232,-107.932 433.604,-97.5121"/>
<polygon fill="midnightblue" stroke="midnightblue" points="264.88,-129.542 255.818,-135.032 266.325,-136.392 264.88,-129.542"/>
</g>
<!-- Node9 -->
<g id="node5" class="node"><title>Node9</title>
<g id="a_node5"><a xlink:href="server__example_8cpp.html" target="_top" xlink:title="examples/server_example.cpp">
<polygon fill="white" stroke="black" points="124.5,-6 124.5,-25 273.5,-25 273.5,-6 124.5,-6"/>
<text text-anchor="middle" x="199" y="-13" font-family="Arial" font-size="10.00">examples/server_example.cpp</text>
</a>
</g>
</g>
<!-- Node6&#45;&gt;Node9 -->
<g id="edge4" class="edge"><title>Node6&#45;&gt;Node9</title>
<path fill="none" stroke="midnightblue" d="M149.179,-129.193C136.86,-121.378 124.898,-111.059 118,-98 111.565,-85.8174 111.314,-79.0469 118,-67 129.58,-46.1346 153.761,-32.7643 172.703,-25.059"/>
<polygon fill="midnightblue" stroke="midnightblue" points="147.748,-132.411 158.146,-134.444 151.286,-126.37 147.748,-132.411"/>
</g>
<!-- Node11&#45;&gt;Node6 -->
<g id="edge7" class="edge"><title>Node11&#45;&gt;Node6</title>
<path fill="none" stroke="midnightblue" d="M302.411,-197.407C277.985,-187.029 247.775,-174.195 225.134,-164.577"/>
<polygon fill="midnightblue" stroke="midnightblue" points="301.229,-200.707 311.801,-201.396 303.966,-194.264 301.229,-200.707"/>
</g>
<!-- Node12 -->
<g id="node8" class="node"><title>Node12</title>
<g id="a_node8"><a xlink:href="canonical__window__manager_8h.html" target="_top" xlink:title="include/miral/miral\l/canonical_window_manager.h">
<polygon fill="white" stroke="black" points="274,-134.5 274,-164.5 422,-164.5 422,-134.5 274,-134.5"/>
<text text-anchor="start" x="282" y="-152.5" font-family="Arial" font-size="10.00">include/miral/miral</text>
<text text-anchor="middle" x="348" y="-141.5" font-family="Arial" font-size="10.00">/canonical_window_manager.h</text>
</a>
</g>
</g>
<!-- Node11&#45;&gt;Node12 -->
<g id="edge8" class="edge"><title>Node11&#45;&gt;Node12</title>
<path fill="none" stroke="midnightblue" d="M346.112,-191.403C346.529,-182.37 346.989,-172.408 347.35,-164.577"/>
<polygon fill="midnightblue" stroke="midnightblue" points="342.616,-191.245 345.651,-201.396 349.608,-191.568 342.616,-191.245"/>
</g>
<!-- Node13 -->
<g id="node9" class="node"><title>Node13</title>
<g id="a_node9"><a xlink:href="kiosk__window__manager_8h.html" target="_top" xlink:title="examples/miral&#45;kiosk\l/kiosk_window_manager.h">
<polygon fill="white" stroke="black" points="283,-67.5 283,-97.5 413,-97.5 413,-67.5 283,-67.5"/>
<text text-anchor="start" x="291" y="-85.5" font-family="Arial" font-size="10.00">examples/miral&#45;kiosk</text>
<text text-anchor="middle" x="348" y="-74.5" font-family="Arial" font-size="10.00">/kiosk_window_manager.h</text>
</a>
</g>
</g>
<!-- Node12&#45;&gt;Node13 -->
<g id="edge9" class="edge"><title>Node12&#45;&gt;Node13</title>
<path fill="none" stroke="midnightblue" d="M348,-124.108C348,-115.154 348,-105.323 348,-97.5765"/>
<polygon fill="midnightblue" stroke="midnightblue" points="344.5,-124.396 348,-134.396 351.5,-124.396 344.5,-124.396"/>
</g>
<!-- Node16 -->
<g id="node12" class="node"><title>Node16</title>
<g id="a_node12"><a xlink:href="floating__window__manager_8h.html" target="_top" xlink:title="examples/miral&#45;shell\l/floating_window_manager.h">
<polygon fill="white" stroke="black" points="127,-67.5 127,-97.5 265,-97.5 265,-67.5 127,-67.5"/>
<text text-anchor="start" x="135" y="-85.5" font-family="Arial" font-size="10.00">examples/miral&#45;shell</text>
<text text-anchor="middle" x="196" y="-74.5" font-family="Arial" font-size="10.00">/floating_window_manager.h</text>
</a>
</g>
</g>
<!-- Node12&#45;&gt;Node16 -->
<g id="edge12" class="edge"><title>Node12&#45;&gt;Node16</title>
<path fill="none" stroke="midnightblue" d="M305.689,-130.407C281.423,-120.029 251.411,-107.195 228.917,-97.5765"/>
<polygon fill="midnightblue" stroke="midnightblue" points="304.447,-133.682 315.018,-134.396 307.2,-127.246 304.447,-133.682"/>
</g>
<!-- Node14 -->
<g id="node10" class="node"><title>Node14</title>
<g id="a_node10"><a xlink:href="kiosk__main_8cpp.html" target="_top" xlink:title="examples/miral&#45;kiosk\l/kiosk_main.cpp">
<polygon fill="white" stroke="black" points="293.5,-0.5 293.5,-30.5 402.5,-30.5 402.5,-0.5 293.5,-0.5"/>
<text text-anchor="start" x="301.5" y="-18.5" font-family="Arial" font-size="10.00">examples/miral&#45;kiosk</text>
<text text-anchor="middle" x="348" y="-7.5" font-family="Arial" font-size="10.00">/kiosk_main.cpp</text>
</a>
</g>
</g>
<!-- Node13&#45;&gt;Node14 -->
<g id="edge10" class="edge"><title>Node13&#45;&gt;Node14</title>
<path fill="none" stroke="midnightblue" d="M348,-57.1081C348,-48.1539 348,-38.3227 348,-30.5765"/>
<polygon fill="midnightblue" stroke="midnightblue" points="344.5,-57.3959 348,-67.396 351.5,-57.396 344.5,-57.3959"/>
</g>
<!-- Node15 -->
<g id="node11" class="node"><title>Node15</title>
<g id="a_node11"><a xlink:href="kiosk__window__manager_8cpp.html" target="_top" xlink:title="examples/miral&#45;kiosk\l/kiosk_window_manager.cpp">
<polygon fill="white" stroke="black" points="819,-0.5 819,-30.5 959,-30.5 959,-0.5 819,-0.5"/>
<text text-anchor="start" x="827" y="-18.5" font-family="Arial" font-size="10.00">examples/miral&#45;kiosk</text>
<text text-anchor="middle" x="889" y="-7.5" font-family="Arial" font-size="10.00">/kiosk_window_manager.cpp</text>
</a>
</g>
</g>
<!-- Node13&#45;&gt;Node15 -->
<g id="edge11" class="edge"><title>Node13&#45;&gt;Node15</title>
<path fill="none" stroke="midnightblue" d="M423.428,-66.8897C594.731,-42.8071 641.112,-53.9797 809,-31 812.217,-30.5597 815.501,-30.0815 818.815,-29.5758"/>
<polygon fill="midnightblue" stroke="midnightblue" points="422.715,-63.4559 413.309,-68.3326 423.703,-70.3859 422.715,-63.4559"/>
</g>
<!-- Node16&#45;&gt;Node7 -->
<g id="edge14" class="edge"><title>Node16&#45;&gt;Node7</title>
<path fill="none" stroke="midnightblue" d="M155.587,-63.1305C132.865,-52.8025 104.943,-40.1103 83.9683,-30.5765"/>
<polygon fill="midnightblue" stroke="midnightblue" points="154.419,-66.4442 164.971,-67.396 157.316,-60.0716 154.419,-66.4442"/>
</g>
<!-- Node16&#45;&gt;Node9 -->
<g id="edge15" class="edge"><title>Node16&#45;&gt;Node9</title>
<path fill="none" stroke="midnightblue" d="M197.119,-57.2495C197.638,-46.017 198.221,-33.3767 198.599,-25.1945"/>
<polygon fill="midnightblue" stroke="midnightblue" points="193.616,-57.2452 196.651,-67.396 200.608,-57.568 193.616,-57.2452"/>
</g>
<!-- Node17 -->
<g id="node13" class="node"><title>Node17</title>
<g id="a_node13"><a xlink:href="floating__window__manager_8cpp.html" target="_top" xlink:title="examples/miral&#45;shell\l/floating_window_manager.cpp">
<polygon fill="white" stroke="black" points="651.5,-0.5 651.5,-30.5 800.5,-30.5 800.5,-0.5 651.5,-0.5"/>
<text text-anchor="start" x="659.5" y="-18.5" font-family="Arial" font-size="10.00">examples/miral&#45;shell</text>
<text text-anchor="middle" x="726" y="-7.5" font-family="Arial" font-size="10.00">/floating_window_manager.cpp</text>
</a>
</g>
</g>
<!-- Node16&#45;&gt;Node17 -->
<g id="edge13" class="edge"><title>Node16&#45;&gt;Node17</title>
<path fill="none" stroke="midnightblue" d="M275.222,-66.8819C413.625,-46.5915 563.719,-31.3692 651.402,-23.162"/>
<polygon fill="midnightblue" stroke="midnightblue" points="274.66,-63.427 265.279,-68.3516 275.683,-70.3518 274.66,-63.427"/>
</g>
<!-- Node18&#45;&gt;Node6 -->
<g id="edge22" class="edge"><title>Node18&#45;&gt;Node6</title>
<path fill="none" stroke="midnightblue" d="M428.962,-200.026C376.194,-188.997 305.986,-174.323 255.713,-163.816"/>
<polygon fill="midnightblue" stroke="midnightblue" points="428.433,-203.491 438.938,-202.111 429.865,-196.639 428.433,-203.491"/>
</g>
<!-- Node18&#45;&gt;Node8 -->
<g id="edge23" class="edge"><title>Node18&#45;&gt;Node8</title>
<path fill="none" stroke="midnightblue" d="M502.444,-191.024C501.818,-163.512 500.825,-119.789 500.319,-97.5247"/>
<polygon fill="midnightblue" stroke="midnightblue" points="498.953,-191.456 502.679,-201.374 505.951,-191.297 498.953,-191.456"/>
</g>
<!-- Node18&#45;&gt;Node12 -->
<g id="edge24" class="edge"><title>Node18&#45;&gt;Node12</title>
<path fill="none" stroke="midnightblue" d="M459.854,-197.407C435.109,-187.029 404.504,-174.195 381.567,-164.577"/>
<polygon fill="midnightblue" stroke="midnightblue" points="458.792,-200.756 469.367,-201.396 461.499,-194.301 458.792,-200.756"/>
</g>
<!-- Node18&#45;&gt;Node15 -->
<g id="edge17" class="edge"><title>Node18&#45;&gt;Node15</title>
<path fill="none" stroke="midnightblue" d="M577.072,-214.379C632.281,-210.552 707.712,-198.777 765,-165 822.287,-131.223 865.136,-60.8614 881.611,-30.7125"/>
<polygon fill="midnightblue" stroke="midnightblue" points="576.771,-210.891 567.007,-215.005 577.205,-217.878 576.771,-210.891"/>
</g>
<!-- Node18&#45;&gt;Node17 -->
<g id="edge21" class="edge"><title>Node18&#45;&gt;Node17</title>
<path fill="none" stroke="midnightblue" d="M577.492,-209.998C640.325,-203.624 723.257,-190.54 744,-165 776.09,-125.489 748.491,-59.4311 733.791,-30.637"/>
<polygon fill="midnightblue" stroke="midnightblue" points="576.812,-206.547 567.199,-211.001 577.491,-213.514 576.812,-206.547"/>
</g>
<!-- Node19 -->
<g id="node15" class="node"><title>Node19</title>
<g id="a_node15"><a xlink:href="decoration__provider_8h.html" target="_top" xlink:title="examples/miral&#45;shell\l/decoration_provider.h">
<polygon fill="white" stroke="black" points="623,-134.5 623,-164.5 735,-164.5 735,-134.5 623,-134.5"/>
<text text-anchor="start" x="631" y="-152.5" font-family="Arial" font-size="10.00">examples/miral&#45;shell</text>
<text text-anchor="middle" x="679" y="-141.5" font-family="Arial" font-size="10.00">/decoration_provider.h</text>
</a>
</g>
</g>
<!-- Node18&#45;&gt;Node19 -->
<g id="edge18" class="edge"><title>Node18&#45;&gt;Node19</title>
<path fill="none" stroke="midnightblue" d="M550.876,-197.819C579.166,-187.371 614.494,-174.323 640.885,-164.577"/>
<polygon fill="midnightblue" stroke="midnightblue" points="549.357,-194.648 541.189,-201.396 551.783,-201.215 549.357,-194.648"/>
</g>
<!-- Node19&#45;&gt;Node17 -->
<g id="edge20" class="edge"><title>Node19&#45;&gt;Node17</title>
<path fill="none" stroke="midnightblue" d="M700.143,-126.692C707.001,-118.354 713.894,-108.348 718,-98 726.861,-75.6665 727.509,-47.302 726.926,-30.6024"/>
<polygon fill="midnightblue" stroke="midnightblue" points="697.334,-124.587 693.4,-134.425 702.61,-129.188 697.334,-124.587"/>
</g>
<!-- Node20 -->
<g id="node16" class="node"><title>Node20</title>
<g id="a_node16"><a xlink:href="decoration__provider_8cpp.html" target="_top" xlink:title="examples/miral&#45;shell\l/decoration_provider.cpp">
<polygon fill="white" stroke="black" points="587,-67.5 587,-97.5 709,-97.5 709,-67.5 587,-67.5"/>
<text text-anchor="start" x="595" y="-85.5" font-family="Arial" font-size="10.00">examples/miral&#45;shell</text>
<text text-anchor="middle" x="648" y="-74.5" font-family="Arial" font-size="10.00">/decoration_provider.cpp</text>
</a>
</g>
</g>
<!-- Node19&#45;&gt;Node20 -->
<g id="edge19" class="edge"><title>Node19&#45;&gt;Node20</title>
<path fill="none" stroke="midnightblue" d="M667.928,-125.283C663.511,-116.022 658.57,-105.663 654.713,-97.5765"/>
<polygon fill="midnightblue" stroke="midnightblue" points="664.81,-126.877 672.273,-134.396 671.128,-123.863 664.81,-126.877"/>
</g>
<!-- Node22 -->
<g id="node18" class="node"><title>Node22</title>
<g id="a_node18"><a xlink:href="miregl_8cpp.html" target="_top" xlink:title="examples/miral&#45;shell\l/spinner/miregl.cpp">
<polygon fill="white" stroke="black" points="441,-268.5 441,-298.5 547,-298.5 547,-268.5 441,-268.5"/>
<text text-anchor="start" x="449" y="-286.5" font-family="Arial" font-size="10.00">examples/miral&#45;shell</text>
<text text-anchor="middle" x="494" y="-275.5" font-family="Arial" font-size="10.00">/spinner/miregl.cpp</text>
</a>
</g>
</g>
<!-- Node21&#45;&gt;Node22 -->
<g id="edge26" class="edge"><title>Node21&#45;&gt;Node22</title>
<path fill="none" stroke="midnightblue" d="M496.517,-325.403C495.961,-316.37 495.348,-306.408 494.866,-298.577"/>
<polygon fill="midnightblue" stroke="midnightblue" points="493.024,-325.63 497.132,-335.396 500.011,-325.2 493.024,-325.63"/>
</g>
<!-- Node23 -->
<g id="node19" class="node"><title>Node23</title>
<g id="a_node19"><a xlink:href="window__info_8h.html" target="_top" xlink:title="include/miral/miral\l/window_info.h">
<polygon fill="white" stroke="black" points="565.5,-268.5 565.5,-298.5 660.5,-298.5 660.5,-268.5 565.5,-268.5"/>
<text text-anchor="start" x="573.5" y="-286.5" font-family="Arial" font-size="10.00">include/miral/miral</text>
<text text-anchor="middle" x="613" y="-275.5" font-family="Arial" font-size="10.00">/window_info.h</text>
</a>
</g>
</g>
<!-- Node21&#45;&gt;Node23 -->
<g id="edge27" class="edge"><title>Node21&#45;&gt;Node23</title>
<path fill="none" stroke="midnightblue" d="M531.977,-330.296C549.971,-320.125 571.68,-307.855 588.095,-298.577"/>
<polygon fill="midnightblue" stroke="midnightblue" points="529.937,-327.428 522.953,-335.396 533.381,-333.522 529.937,-327.428"/>
</g>
<!-- Node23&#45;&gt;Node8 -->
<g id="edge30" class="edge"><title>Node23&#45;&gt;Node8</title>
<path fill="none" stroke="midnightblue" d="M603.388,-258.912C596.394,-242.393 586.367,-219.971 576,-201 554.796,-162.2 525.329,-119.18 510.064,-97.5518"/>
<polygon fill="midnightblue" stroke="midnightblue" points="600.246,-260.47 607.328,-268.351 606.706,-257.774 600.246,-260.47"/>
</g>
<!-- Node23&#45;&gt;Node15 -->
<g id="edge28" class="edge"><title>Node23&#45;&gt;Node15</title>
<path fill="none" stroke="midnightblue" d="M670.114,-266.311C692.127,-258.289 716.614,-247.034 736,-232 811.054,-173.794 864.767,-68.819 882.579,-30.7657"/>
<polygon fill="midnightblue" stroke="midnightblue" points="668.814,-263.058 660.529,-269.662 671.124,-269.666 668.814,-263.058"/>
</g>
<!-- Node23&#45;&gt;Node17 -->
<g id="edge29" class="edge"><title>Node23&#45;&gt;Node17</title>
<path fill="none" stroke="midnightblue" d="M654.093,-263.542C690.397,-244.341 741.164,-210.927 765,-165 785.073,-126.323 782.814,-107.98 768,-67 762.883,-52.8442 751.876,-39.8602 742.414,-30.6031"/>
<polygon fill="midnightblue" stroke="midnightblue" points="652.033,-260.665 644.736,-268.347 655.231,-266.892 652.033,-260.665"/>
</g>
<!-- Node23&#45;&gt;Node18 -->
<g id="edge31" class="edge"><title>Node23&#45;&gt;Node18</title>
<path fill="none" stroke="midnightblue" d="M580.5,-263.296C563.288,-253.125 542.524,-240.855 526.822,-231.577"/>
<polygon fill="midnightblue" stroke="midnightblue" points="578.742,-266.322 589.132,-268.396 582.303,-260.295 578.742,-266.322"/>
</g>
</g>
</svg>
