<?xml version="1.0" encoding="UTF-8" standalone="no"?>
<!DOCTYPE svg PUBLIC "-//W3C//DTD SVG 1.1//EN"
 "http://www.w3.org/Graphics/SVG/1.1/DTD/svg11.dtd">
<!-- Generated by graphviz version 2.38.0 (20140413.2041)
 -->
<!-- Title: include/core/mir/geometry/displacement.h Pages: 1 -->
<svg width="971pt" height="474pt"
 viewBox="0.00 0.00 970.53 474.00" xmlns="http://www.w3.org/2000/svg" xmlns:xlink="http://www.w3.org/1999/xlink">
<g id="graph0" class="graph" transform="scale(1 1) rotate(0) translate(4 470)">
<title>include/core/mir/geometry/displacement.h</title>
<polygon fill="white" stroke="none" points="-4,4 -4,-470 966.527,-470 966.527,4 -4,4"/>
<!-- Node5 -->
<g id="node1" class="node"><title>Node5</title>
<polygon fill="#bfbfbf" stroke="black" points="502,-435.5 502,-465.5 631,-465.5 631,-435.5 502,-435.5"/>
<text text-anchor="start" x="510" y="-453.5" font-family="Arial" font-size="10.00">include/core/mir/geometry</text>
<text text-anchor="middle" x="566.5" y="-442.5" font-family="Arial" font-size="10.00">/displacement.h</text>
</g>
<!-- Node6 -->
<g id="node2" class="node"><title>Node6</title>
<g id="a_node2"><a xlink:href="tiling__window__manager_8h.html" target="_top" xlink:title="examples/miral&#45;shell\l/tiling_window_manager.h">
<polygon fill="white" stroke="black" points="465,-167.5 465,-197.5 592,-197.5 592,-167.5 465,-167.5"/>
<text text-anchor="start" x="473" y="-185.5" font-family="Arial" font-size="10.00">examples/miral&#45;shell</text>
<text text-anchor="middle" x="528.5" y="-174.5" font-family="Arial" font-size="10.00">/tiling_window_manager.h</text>
</a>
</g>
</g>
<!-- Node5&#45;&gt;Node6 -->
<g id="edge1" class="edge"><title>Node5&#45;&gt;Node6</title>
<path fill="none" stroke="midnightblue" d="M563.009,-425.065C555.225,-370.572 536.646,-240.521 530.507,-197.549"/>
<polygon fill="midnightblue" stroke="midnightblue" points="559.578,-425.794 564.457,-435.199 566.507,-424.804 559.578,-425.794"/>
</g>
<!-- Node9 -->
<g id="node5" class="node"><title>Node9</title>
<g id="a_node5"><a xlink:href="event__builders_8h.html" target="_top" xlink:title="include/client/mir\l/events/event_builders.h">
<polygon fill="white" stroke="black" points="732,-368.5 732,-398.5 855,-398.5 855,-368.5 732,-368.5"/>
<text text-anchor="start" x="740" y="-386.5" font-family="Arial" font-size="10.00">include/client/mir</text>
<text text-anchor="middle" x="793.5" y="-375.5" font-family="Arial" font-size="10.00">/events/event_builders.h</text>
</a>
</g>
</g>
<!-- Node5&#45;&gt;Node9 -->
<g id="edge4" class="edge"><title>Node5&#45;&gt;Node9</title>
<path fill="none" stroke="midnightblue" d="M625.119,-432.715C662.059,-422.137 709.214,-408.635 744.22,-398.611"/>
<polygon fill="midnightblue" stroke="midnightblue" points="624.126,-429.358 615.476,-435.476 626.053,-436.088 624.126,-429.358"/>
</g>
<!-- Node10 -->
<g id="node6" class="node"><title>Node10</title>
<g id="a_node6"><a xlink:href="window__management__policy_8h.html" target="_top" xlink:title="include/miral/miral\l/window_management_policy.h">
<polygon fill="white" stroke="black" points="349,-234.5 349,-264.5 500,-264.5 500,-234.5 349,-234.5"/>
<text text-anchor="start" x="357" y="-252.5" font-family="Arial" font-size="10.00">include/miral/miral</text>
<text text-anchor="middle" x="424.5" y="-241.5" font-family="Arial" font-size="10.00">/window_management_policy.h</text>
</a>
</g>
</g>
<!-- Node5&#45;&gt;Node10 -->
<g id="edge5" class="edge"><title>Node5&#45;&gt;Node10</title>
<path fill="none" stroke="midnightblue" d="M542.487,-428.614C533.201,-419.936 522.829,-409.46 514.5,-399 478.258,-353.484 445.508,-292.194 431.584,-264.784"/>
<polygon fill="midnightblue" stroke="midnightblue" points="540.217,-431.281 549.962,-435.44 544.937,-426.112 540.217,-431.281"/>
</g>
<!-- Node19 -->
<g id="node15" class="node"><title>Node19</title>
<g id="a_node15"><a xlink:href="window__manager__tools_8h.html" target="_top" xlink:title="include/miral/miral\l/window_manager_tools.h">
<polygon fill="white" stroke="black" points="556.5,-234.5 556.5,-264.5 684.5,-264.5 684.5,-234.5 556.5,-234.5"/>
<text text-anchor="start" x="564.5" y="-252.5" font-family="Arial" font-size="10.00">include/miral/miral</text>
<text text-anchor="middle" x="620.5" y="-241.5" font-family="Arial" font-size="10.00">/window_manager_tools.h</text>
</a>
</g>
</g>
<!-- Node5&#45;&gt;Node19 -->
<g id="edge16" class="edge"><title>Node5&#45;&gt;Node19</title>
<path fill="none" stroke="midnightblue" d="M567.029,-425.074C568.371,-394.998 572.97,-342.774 588.5,-301 593.419,-287.769 602.143,-274.343 609.241,-264.664"/>
<polygon fill="midnightblue" stroke="midnightblue" points="563.531,-424.972 566.668,-435.091 570.526,-425.224 563.531,-424.972"/>
</g>
<!-- Node22 -->
<g id="node18" class="node"><title>Node22</title>
<g id="a_node18"><a xlink:href="window__specification_8h.html" target="_top" xlink:title="include/miral/miral\l/window_specification.h">
<polygon fill="white" stroke="black" points="595,-368.5 595,-398.5 714,-398.5 714,-368.5 595,-368.5"/>
<text text-anchor="start" x="603" y="-386.5" font-family="Arial" font-size="10.00">include/miral/miral</text>
<text text-anchor="middle" x="654.5" y="-375.5" font-family="Arial" font-size="10.00">/window_specification.h</text>
</a>
</g>
</g>
<!-- Node5&#45;&gt;Node22 -->
<g id="edge25" class="edge"><title>Node5&#45;&gt;Node22</title>
<path fill="none" stroke="midnightblue" d="M593.643,-429.451C607.181,-419.452 623.227,-407.6 635.443,-398.577"/>
<polygon fill="midnightblue" stroke="midnightblue" points="591.559,-426.639 585.595,-435.396 595.718,-432.27 591.559,-426.639"/>
</g>
<!-- Node7 -->
<g id="node3" class="node"><title>Node7</title>
<g id="a_node3"><a xlink:href="shell__main_8cpp.html" target="_top" xlink:title="examples/miral&#45;shell\l/shell_main.cpp">
<polygon fill="white" stroke="black" points="368.5,-11.5 368.5,-41.5 474.5,-41.5 474.5,-11.5 368.5,-11.5"/>
<text text-anchor="start" x="376.5" y="-29.5" font-family="Arial" font-size="10.00">examples/miral&#45;shell</text>
<text text-anchor="middle" x="421.5" y="-18.5" font-family="Arial" font-size="10.00">/shell_main.cpp</text>
</a>
</g>
</g>
<!-- Node6&#45;&gt;Node7 -->
<g id="edge2" class="edge"><title>Node6&#45;&gt;Node7</title>
<path fill="none" stroke="midnightblue" d="M510.556,-159.027C503.805,-150.376 496.157,-140.335 489.5,-131 467.281,-99.8406 443.085,-61.9742 430.403,-41.792"/>
<polygon fill="midnightblue" stroke="midnightblue" points="508.003,-161.442 516.938,-167.136 513.504,-157.113 508.003,-161.442"/>
</g>
<!-- Node8 -->
<g id="node4" class="node"><title>Node8</title>
<g id="a_node4"><a xlink:href="tiling__window__manager_8cpp.html" target="_top" xlink:title="examples/miral&#45;shell\l/tiling_window_manager.cpp">
<polygon fill="white" stroke="black" points="499,-95 499,-125 636,-125 636,-95 499,-95"/>
<text text-anchor="start" x="507" y="-113" font-family="Arial" font-size="10.00">examples/miral&#45;shell</text>
<text text-anchor="middle" x="567.5" y="-102" font-family="Arial" font-size="10.00">/tiling_window_manager.cpp</text>
</a>
</g>
</g>
<!-- Node6&#45;&gt;Node8 -->
<g id="edge3" class="edge"><title>Node6&#45;&gt;Node8</title>
<path fill="none" stroke="midnightblue" d="M541.374,-158.227C547.402,-147.33 554.389,-134.701 559.62,-125.246"/>
<polygon fill="midnightblue" stroke="midnightblue" points="538.17,-156.789 536.392,-167.233 544.296,-160.177 538.17,-156.789"/>
</g>
<!-- Node10&#45;&gt;Node6 -->
<g id="edge6" class="edge"><title>Node10&#45;&gt;Node6</title>
<path fill="none" stroke="midnightblue" d="M455.676,-229.015C471.86,-218.9 491.268,-206.77 505.978,-197.577"/>
<polygon fill="midnightblue" stroke="midnightblue" points="453.691,-226.128 447.066,-234.396 457.401,-232.064 453.691,-226.128"/>
</g>
<!-- Node11 -->
<g id="node7" class="node"><title>Node11</title>
<g id="a_node7"><a xlink:href="canonical__window__manager_8h.html" target="_top" xlink:title="include/miral/miral\l/canonical_window_manager.h">
<polygon fill="white" stroke="black" points="298.5,-167.5 298.5,-197.5 446.5,-197.5 446.5,-167.5 298.5,-167.5"/>
<text text-anchor="start" x="306.5" y="-185.5" font-family="Arial" font-size="10.00">include/miral/miral</text>
<text text-anchor="middle" x="372.5" y="-174.5" font-family="Arial" font-size="10.00">/canonical_window_manager.h</text>
</a>
</g>
</g>
<!-- Node10&#45;&gt;Node11 -->
<g id="edge7" class="edge"><title>Node10&#45;&gt;Node11</title>
<path fill="none" stroke="midnightblue" d="M406.858,-226.447C399.219,-216.899 390.503,-206.004 383.761,-197.577"/>
<polygon fill="midnightblue" stroke="midnightblue" points="404.237,-228.774 413.217,-234.396 409.703,-224.401 404.237,-228.774"/>
</g>
<!-- Node12 -->
<g id="node8" class="node"><title>Node12</title>
<g id="a_node8"><a xlink:href="kiosk__window__manager_8h.html" target="_top" xlink:title="examples/miral&#45;kiosk\l/kiosk_window_manager.h">
<polygon fill="white" stroke="black" points="156.5,-95 156.5,-125 286.5,-125 286.5,-95 156.5,-95"/>
<text text-anchor="start" x="164.5" y="-113" font-family="Arial" font-size="10.00">examples/miral&#45;kiosk</text>
<text text-anchor="middle" x="221.5" y="-102" font-family="Arial" font-size="10.00">/kiosk_window_manager.h</text>
</a>
</g>
</g>
<!-- Node11&#45;&gt;Node12 -->
<g id="edge8" class="edge"><title>Node11&#45;&gt;Node12</title>
<path fill="none" stroke="midnightblue" d="M332.94,-163.03C307.509,-151.156 274.981,-135.97 251.642,-125.073"/>
<polygon fill="midnightblue" stroke="midnightblue" points="331.764,-166.344 342.306,-167.403 334.725,-160.001 331.764,-166.344"/>
</g>
<!-- Node15 -->
<g id="node11" class="node"><title>Node15</title>
<g id="a_node11"><a xlink:href="floating__window__manager_8h.html" target="_top" xlink:title="examples/miral&#45;shell\l/floating_window_manager.h">
<polygon fill="white" stroke="black" points="304.5,-95 304.5,-125 442.5,-125 442.5,-95 304.5,-95"/>
<text text-anchor="start" x="312.5" y="-113" font-family="Arial" font-size="10.00">examples/miral&#45;shell</text>
<text text-anchor="middle" x="373.5" y="-102" font-family="Arial" font-size="10.00">/floating_window_manager.h</text>
</a>
</g>
</g>
<!-- Node11&#45;&gt;Node15 -->
<g id="edge11" class="edge"><title>Node11&#45;&gt;Node15</title>
<path fill="none" stroke="midnightblue" d="M372.844,-157.232C372.995,-146.568 373.168,-134.414 373.298,-125.246"/>
<polygon fill="midnightblue" stroke="midnightblue" points="369.345,-157.185 372.702,-167.233 376.344,-157.284 369.345,-157.185"/>
</g>
<!-- Node17 -->
<g id="node13" class="node"><title>Node17</title>
<g id="a_node13"><a xlink:href="canonical__window__manager__policy_8h.html" target="_top" xlink:title="include/test/mir_test\l_framework/canonical\l_window_manager_policy.h">
<polygon fill="white" stroke="black" points="4.5,-89.5 4.5,-130.5 138.5,-130.5 138.5,-89.5 4.5,-89.5"/>
<text text-anchor="start" x="12.5" y="-118.5" font-family="Arial" font-size="10.00">include/test/mir_test</text>
<text text-anchor="start" x="12.5" y="-107.5" font-family="Arial" font-size="10.00">_framework/canonical</text>
<text text-anchor="middle" x="71.5" y="-96.5" font-family="Arial" font-size="10.00">_window_manager_policy.h</text>
</a>
</g>
</g>
<!-- Node11&#45;&gt;Node17 -->
<g id="edge14" class="edge"><title>Node11&#45;&gt;Node17</title>
<path fill="none" stroke="midnightblue" d="M296.891,-165.252C253.153,-155.673 197.117,-143.092 147.5,-131 144.584,-130.289 141.607,-129.553 138.603,-128.801"/>
<polygon fill="midnightblue" stroke="midnightblue" points="296.363,-168.719 306.88,-167.434 297.857,-161.88 296.363,-168.719"/>
</g>
<!-- Node13 -->
<g id="node9" class="node"><title>Node13</title>
<g id="a_node9"><a xlink:href="kiosk__main_8cpp.html" target="_top" xlink:title="examples/miral&#45;kiosk\l/kiosk_main.cpp">
<polygon fill="white" stroke="black" points="167,-11.5 167,-41.5 276,-41.5 276,-11.5 167,-11.5"/>
<text text-anchor="start" x="175" y="-29.5" font-family="Arial" font-size="10.00">examples/miral&#45;kiosk</text>
<text text-anchor="middle" x="221.5" y="-18.5" font-family="Arial" font-size="10.00">/kiosk_main.cpp</text>
</a>
</g>
</g>
<!-- Node12&#45;&gt;Node13 -->
<g id="edge9" class="edge"><title>Node12&#45;&gt;Node13</title>
<path fill="none" stroke="midnightblue" d="M221.5,-84.7839C221.5,-70.6843 221.5,-53.4047 221.5,-41.5335"/>
<polygon fill="midnightblue" stroke="midnightblue" points="218,-84.8037 221.5,-94.8038 225,-84.8038 218,-84.8037"/>
</g>
<!-- Node14 -->
<g id="node10" class="node"><title>Node14</title>
<g id="a_node10"><a xlink:href="kiosk__window__manager_8cpp.html" target="_top" xlink:title="examples/miral&#45;kiosk\l/kiosk_window_manager.cpp">
<polygon fill="white" stroke="black" points="594.5,-11.5 594.5,-41.5 734.5,-41.5 734.5,-11.5 594.5,-11.5"/>
<text text-anchor="start" x="602.5" y="-29.5" font-family="Arial" font-size="10.00">examples/miral&#45;kiosk</text>
<text text-anchor="middle" x="664.5" y="-18.5" font-family="Arial" font-size="10.00">/kiosk_window_manager.cpp</text>
</a>
</g>
</g>
<!-- Node12&#45;&gt;Node14 -->
<g id="edge10" class="edge"><title>Node12&#45;&gt;Node14</title>
<path fill="none" stroke="midnightblue" d="M280.431,-92.5119C285.513,-91.2607 290.587,-90.0705 295.5,-89 398.776,-66.495 519.876,-47.7484 594.397,-37.0773"/>
<polygon fill="midnightblue" stroke="midnightblue" points="279.527,-89.1304 270.692,-94.9777 281.245,-95.9163 279.527,-89.1304"/>
</g>
<!-- Node15&#45;&gt;Node7 -->
<g id="edge13" class="edge"><title>Node15&#45;&gt;Node7</title>
<path fill="none" stroke="midnightblue" d="M387.035,-86.0195C395.465,-71.7055 406.038,-53.7538 413.235,-41.5335"/>
<polygon fill="midnightblue" stroke="midnightblue" points="383.92,-84.4109 381.861,-94.8038 389.952,-87.9634 383.92,-84.4109"/>
</g>
<!-- Node16 -->
<g id="node12" class="node"><title>Node16</title>
<g id="a_node12"><a xlink:href="floating__window__manager_8cpp.html" target="_top" xlink:title="examples/miral&#45;shell\l/floating_window_manager.cpp">
<polygon fill="white" stroke="black" points="787,-11.5 787,-41.5 936,-41.5 936,-11.5 787,-11.5"/>
<text text-anchor="start" x="795" y="-29.5" font-family="Arial" font-size="10.00">examples/miral&#45;shell</text>
<text text-anchor="middle" x="861.5" y="-18.5" font-family="Arial" font-size="10.00">/floating_window_manager.cpp</text>
</a>
</g>
</g>
<!-- Node15&#45;&gt;Node16 -->
<g id="edge12" class="edge"><title>Node15&#45;&gt;Node16</title>
<path fill="none" stroke="midnightblue" d="M452.949,-94.9774C465.18,-92.9126 477.671,-90.8576 489.5,-89 602.137,-71.3119 631.26,-73.0547 743.5,-53 762.172,-49.6637 782.389,-45.4994 800.726,-41.5096"/>
<polygon fill="midnightblue" stroke="midnightblue" points="452.029,-91.5834 442.757,-96.7099 453.203,-98.4845 452.029,-91.5834"/>
</g>
<!-- Node18 -->
<g id="node14" class="node"><title>Node18</title>
<g id="a_node14"><a xlink:href="declarative__placement__window__manage__policy_8h.html" target="_top" xlink:title="include/test/mir_test\l_framework/declarative\l_placement_window_manage\l_policy.h">
<polygon fill="white" stroke="black" points="0,-0.5 0,-52.5 143,-52.5 143,-0.5 0,-0.5"/>
<text text-anchor="start" x="8" y="-40.5" font-family="Arial" font-size="10.00">include/test/mir_test</text>
<text text-anchor="start" x="8" y="-29.5" font-family="Arial" font-size="10.00">_framework/declarative</text>
<text text-anchor="start" x="8" y="-18.5" font-family="Arial" font-size="10.00">_placement_window_manage</text>
<text text-anchor="middle" x="71.5" y="-7.5" font-family="Arial" font-size="10.00">_policy.h</text>
</a>
</g>
</g>
<!-- Node17&#45;&gt;Node18 -->
<g id="edge15" class="edge"><title>Node17&#45;&gt;Node18</title>
<path fill="none" stroke="midnightblue" d="M71.5,-79.1211C71.5,-70.4126 71.5,-60.9894 71.5,-52.6073"/>
<polygon fill="midnightblue" stroke="midnightblue" points="68.0001,-79.2711 71.5,-89.2711 75.0001,-79.2712 68.0001,-79.2711"/>
</g>
<!-- Node19&#45;&gt;Node6 -->
<g id="edge22" class="edge"><title>Node19&#45;&gt;Node6</title>
<path fill="none" stroke="midnightblue" d="M592.123,-228.451C577.97,-218.452 561.195,-206.6 548.424,-197.577"/>
<polygon fill="midnightblue" stroke="midnightblue" points="590.351,-231.484 600.537,-234.396 594.39,-225.767 590.351,-231.484"/>
</g>
<!-- Node19&#45;&gt;Node8 -->
<g id="edge23" class="edge"><title>Node19&#45;&gt;Node8</title>
<path fill="none" stroke="midnightblue" d="M616.488,-224.318C613.285,-207.789 608.07,-185.596 600.5,-167 594.373,-151.949 584.698,-136.112 577.404,-125.135"/>
<polygon fill="midnightblue" stroke="midnightblue" points="613.065,-225.058 618.306,-234.266 619.951,-223.8 613.065,-225.058"/>
</g>
<!-- Node19&#45;&gt;Node11 -->
<g id="edge24" class="edge"><title>Node19&#45;&gt;Node11</title>
<path fill="none" stroke="midnightblue" d="M557.23,-231.917C516.759,-221.31 464.828,-207.699 426.339,-197.611"/>
<polygon fill="midnightblue" stroke="midnightblue" points="556.432,-235.326 566.993,-234.476 558.207,-228.555 556.432,-235.326"/>
</g>
<!-- Node19&#45;&gt;Node14 -->
<g id="edge17" class="edge"><title>Node19&#45;&gt;Node14</title>
<path fill="none" stroke="midnightblue" d="M625.475,-224.524C630.381,-200.789 638.059,-163.407 644.5,-131 650.85,-99.0488 658.039,-61.4917 661.83,-41.5715"/>
<polygon fill="midnightblue" stroke="midnightblue" points="622.03,-223.9 623.43,-234.402 628.884,-225.319 622.03,-223.9"/>
</g>
<!-- Node19&#45;&gt;Node16 -->
<g id="edge21" class="edge"><title>Node19&#45;&gt;Node16</title>
<path fill="none" stroke="midnightblue" d="M694.992,-242.998C757.825,-236.624 840.757,-223.54 861.5,-198 898.823,-152.046 877.829,-73.83 866.858,-41.8097"/>
<polygon fill="midnightblue" stroke="midnightblue" points="694.312,-239.547 684.699,-244.001 694.991,-246.514 694.312,-239.547"/>
</g>
<!-- Node20 -->
<g id="node16" class="node"><title>Node20</title>
<g id="a_node16"><a xlink:href="decoration__provider_8h.html" target="_top" xlink:title="examples/miral&#45;shell\l/decoration_provider.h">
<polygon fill="white" stroke="black" points="740.5,-167.5 740.5,-197.5 852.5,-197.5 852.5,-167.5 740.5,-167.5"/>
<text text-anchor="start" x="748.5" y="-185.5" font-family="Arial" font-size="10.00">examples/miral&#45;shell</text>
<text text-anchor="middle" x="796.5" y="-174.5" font-family="Arial" font-size="10.00">/decoration_provider.h</text>
</a>
</g>
</g>
<!-- Node19&#45;&gt;Node20 -->
<g id="edge18" class="edge"><title>Node19&#45;&gt;Node20</title>
<path fill="none" stroke="midnightblue" d="M668.376,-230.819C696.666,-220.371 731.994,-207.323 758.385,-197.577"/>
<polygon fill="midnightblue" stroke="midnightblue" points="666.857,-227.648 658.689,-234.396 669.283,-234.215 666.857,-227.648"/>
</g>
<!-- Node20&#45;&gt;Node16 -->
<g id="edge20" class="edge"><title>Node20&#45;&gt;Node16</title>
<path fill="none" stroke="midnightblue" d="M809.792,-158.271C814.397,-149.814 819.422,-140.096 823.5,-131 837.438,-99.9091 850.365,-62.0159 856.948,-41.8111"/>
<polygon fill="midnightblue" stroke="midnightblue" points="806.638,-156.741 804.844,-167.183 812.758,-160.139 806.638,-156.741"/>
</g>
<!-- Node21 -->
<g id="node17" class="node"><title>Node21</title>
<g id="a_node17"><a xlink:href="decoration__provider_8cpp.html" target="_top" xlink:title="examples/miral&#45;shell\l/decoration_provider.cpp">
<polygon fill="white" stroke="black" points="692.5,-95 692.5,-125 814.5,-125 814.5,-95 692.5,-95"/>
<text text-anchor="start" x="700.5" y="-113" font-family="Arial" font-size="10.00">examples/miral&#45;shell</text>
<text text-anchor="middle" x="753.5" y="-102" font-family="Arial" font-size="10.00">/decoration_provider.cpp</text>
</a>
</g>
</g>
<!-- Node20&#45;&gt;Node21 -->
<g id="edge19" class="edge"><title>Node20&#45;&gt;Node21</title>
<path fill="none" stroke="midnightblue" d="M782.506,-158.557C775.815,-147.586 768.014,-134.797 762.189,-125.246"/>
<polygon fill="midnightblue" stroke="midnightblue" points="779.603,-160.518 787.798,-167.233 785.579,-156.873 779.603,-160.518"/>
</g>
<!-- Node23 -->
<g id="node19" class="node"><title>Node23</title>
<g id="a_node19"><a xlink:href="miregl_8cpp.html" target="_top" xlink:title="examples/miral&#45;shell\l/spinner/miregl.cpp">
<polygon fill="white" stroke="black" points="597.5,-301.5 597.5,-331.5 703.5,-331.5 703.5,-301.5 597.5,-301.5"/>
<text text-anchor="start" x="605.5" y="-319.5" font-family="Arial" font-size="10.00">examples/miral&#45;shell</text>
<text text-anchor="middle" x="650.5" y="-308.5" font-family="Arial" font-size="10.00">/spinner/miregl.cpp</text>
</a>
</g>
</g>
<!-- Node22&#45;&gt;Node23 -->
<g id="edge26" class="edge"><title>Node22&#45;&gt;Node23</title>
<path fill="none" stroke="midnightblue" d="M653.017,-358.403C652.461,-349.37 651.848,-339.408 651.366,-331.577"/>
<polygon fill="midnightblue" stroke="midnightblue" points="649.524,-358.63 653.632,-368.396 656.511,-358.2 649.524,-358.63"/>
</g>
<!-- Node24 -->
<g id="node20" class="node"><title>Node24</title>
<g id="a_node20"><a xlink:href="window__info_8h.html" target="_top" xlink:title="include/miral/miral\l/window_info.h">
<polygon fill="white" stroke="black" points="722,-301.5 722,-331.5 817,-331.5 817,-301.5 722,-301.5"/>
<text text-anchor="start" x="730" y="-319.5" font-family="Arial" font-size="10.00">include/miral/miral</text>
<text text-anchor="middle" x="769.5" y="-308.5" font-family="Arial" font-size="10.00">/window_info.h</text>
</a>
</g>
</g>
<!-- Node22&#45;&gt;Node24 -->
<g id="edge27" class="edge"><title>Node22&#45;&gt;Node24</title>
<path fill="none" stroke="midnightblue" d="M688.477,-363.296C706.471,-353.125 728.18,-340.855 744.595,-331.577"/>
<polygon fill="midnightblue" stroke="midnightblue" points="686.437,-360.428 679.453,-368.396 689.881,-366.522 686.437,-360.428"/>
</g>
<!-- Node24&#45;&gt;Node8 -->
<g id="edge30" class="edge"><title>Node24&#45;&gt;Node8</title>
<path fill="none" stroke="midnightblue" d="M749.888,-293.921C734.698,-277.341 713.024,-253.975 693.5,-234 654.183,-193.774 606.293,-147.831 582.464,-125.17"/>
<polygon fill="midnightblue" stroke="midnightblue" points="747.457,-296.448 756.786,-301.47 752.624,-291.726 747.457,-296.448"/>
</g>
<!-- Node24&#45;&gt;Node14 -->
<g id="edge28" class="edge"><title>Node24&#45;&gt;Node14</title>
<path fill="none" stroke="midnightblue" d="M796.188,-294.717C827.356,-267.725 873.262,-218.001 861.5,-167 852.834,-129.425 851.892,-115.095 823.5,-89 798.113,-65.6671 762.904,-50.8344 732.07,-41.5975"/>
<polygon fill="midnightblue" stroke="midnightblue" points="793.645,-292.282 788.237,-301.393 798.146,-297.643 793.645,-292.282"/>
</g>
<!-- Node24&#45;&gt;Node16 -->
<g id="edge29" class="edge"><title>Node24&#45;&gt;Node16</title>
<path fill="none" stroke="midnightblue" d="M827.087,-314.055C863.658,-309.775 908.48,-297.588 932.5,-265 978.911,-202.034 965.001,-160.151 932.5,-89 923.149,-68.5299 903.248,-52.258 886.888,-41.6064"/>
<polygon fill="midnightblue" stroke="midnightblue" points="826.617,-310.584 817.015,-315.063 827.314,-317.55 826.617,-310.584"/>
</g>
<!-- Node24&#45;&gt;Node19 -->
<g id="edge31" class="edge"><title>Node24&#45;&gt;Node19</title>
<path fill="none" stroke="midnightblue" d="M727.708,-297.269C703.976,-286.916 674.72,-274.153 652.768,-264.577"/>
<polygon fill="midnightblue" stroke="midnightblue" points="726.604,-300.605 737.169,-301.396 729.403,-294.189 726.604,-300.605"/>
</g>
</g>
</svg>
