<?xml version="1.0" encoding="UTF-8" standalone="no"?>
<!DOCTYPE svg PUBLIC "-//W3C//DTD SVG 1.1//EN"
 "http://www.w3.org/Graphics/SVG/1.1/DTD/svg11.dtd">
<!-- Generated by graphviz version 2.38.0 (20140413.2041)
 -->
<!-- Title: include/client/mir/client/display_config.h Pages: 1 -->
<svg width="2014pt" height="441pt"
 viewBox="0.00 0.00 2013.73 441.00" xmlns="http://www.w3.org/2000/svg" xmlns:xlink="http://www.w3.org/1999/xlink">
<g id="graph0" class="graph" transform="scale(1 1) rotate(0) translate(4 437)">
<title>include/client/mir/client/display_config.h</title>
<polygon fill="white" stroke="none" points="-4,4 -4,-437 2009.73,-437 2009.73,4 -4,4"/>
<!-- Node0 -->
<g id="node1" class="node"><title>Node0</title>
<polygon fill="#bfbfbf" stroke="black" points="202,-402.5 202,-432.5 318,-432.5 318,-402.5 202,-402.5"/>
<text text-anchor="start" x="210" y="-420.5" font-family="Arial" font-size="10.00">include/client/mir</text>
<text text-anchor="middle" x="260" y="-409.5" font-family="Arial" font-size="10.00">/client/display_config.h</text>
</g>
<!-- Node1 -->
<g id="node2" class="node"><title>Node1</title>
<g id="a_node2"><a xlink:href="mir__connection_8h.html" target="_top" xlink:title="mir_toolkit/mir_connection.h">
<polygon fill="white" stroke="black" points="132.5,-341 132.5,-360 271.5,-360 271.5,-341 132.5,-341"/>
<text text-anchor="middle" x="202" y="-348" font-family="Arial" font-size="10.00">mir_toolkit/mir_connection.h</text>
</a>
</g>
</g>
<!-- Node0&#45;&gt;Node1 -->
<g id="edge1" class="edge"><title>Node0&#45;&gt;Node1</title>
<path fill="none" stroke="midnightblue" d="M247.415,-402.396C238.371,-392.261 226.152,-378.567 216.667,-367.937"/>
<polygon fill="midnightblue" stroke="midnightblue" points="219.028,-365.326 209.758,-360.195 213.805,-369.986 219.028,-365.326"/>
</g>
<!-- Node25 -->
<g id="node26" class="node"><title>Node25</title>
<g id="a_node26"><a xlink:href="mir__display__configuration_8h.html" target="_top" xlink:title="mir_toolkit/mir_display\l_configuration.h">
<polygon fill="white" stroke="black" points="0,-335.5 0,-365.5 114,-365.5 114,-335.5 0,-335.5"/>
<text text-anchor="start" x="8" y="-353.5" font-family="Arial" font-size="10.00">mir_toolkit/mir_display</text>
<text text-anchor="middle" x="57" y="-342.5" font-family="Arial" font-size="10.00">_configuration.h</text>
</a>
</g>
</g>
<!-- Node0&#45;&gt;Node25 -->
<g id="edge50" class="edge"><title>Node0&#45;&gt;Node25</title>
<path fill="none" stroke="midnightblue" d="M215.952,-402.396C185.094,-392.515 143.673,-379.252 110.851,-368.743"/>
<polygon fill="midnightblue" stroke="midnightblue" points="111.553,-365.293 100.962,-365.577 109.418,-371.959 111.553,-365.293"/>
</g>
<!-- Node26 -->
<g id="node27" class="node"><title>Node26</title>
<polygon fill="white" stroke="#bfbfbf" points="289.5,-341 289.5,-360 348.5,-360 348.5,-341 289.5,-341"/>
<text text-anchor="middle" x="319" y="-348" font-family="Arial" font-size="10.00">functional</text>
</g>
<!-- Node0&#45;&gt;Node26 -->
<g id="edge53" class="edge"><title>Node0&#45;&gt;Node26</title>
<path fill="none" stroke="midnightblue" d="M272.802,-402.396C282.093,-392.161 294.678,-378.296 304.366,-367.622"/>
<polygon fill="midnightblue" stroke="midnightblue" points="306.979,-369.951 311.108,-360.195 301.795,-365.247 306.979,-369.951"/>
</g>
<!-- Node27 -->
<g id="node28" class="node"><title>Node27</title>
<polygon fill="white" stroke="#bfbfbf" points="367,-341 367,-360 419,-360 419,-341 367,-341"/>
<text text-anchor="middle" x="393" y="-348" font-family="Arial" font-size="10.00">memory</text>
</g>
<!-- Node0&#45;&gt;Node27 -->
<g id="edge54" class="edge"><title>Node0&#45;&gt;Node27</title>
<path fill="none" stroke="midnightblue" d="M288.859,-402.396C311.886,-391.142 343.89,-375.501 366.323,-364.538"/>
<polygon fill="midnightblue" stroke="midnightblue" points="368.146,-367.543 375.593,-360.007 365.072,-361.253 368.146,-367.543"/>
</g>
<!-- Node2 -->
<g id="node3" class="node"><title>Node2</title>
<g id="a_node3"><a xlink:href="client__types_8h.html" target="_top" xlink:title="mir_toolkit/client\l_types.h">
<polygon fill="white" stroke="black" points="171,-268.5 171,-298.5 259,-298.5 259,-268.5 171,-268.5"/>
<text text-anchor="start" x="179" y="-286.5" font-family="Arial" font-size="10.00">mir_toolkit/client</text>
<text text-anchor="middle" x="215" y="-275.5" font-family="Arial" font-size="10.00">_types.h</text>
</a>
</g>
</g>
<!-- Node1&#45;&gt;Node2 -->
<g id="edge2" class="edge"><title>Node1&#45;&gt;Node2</title>
<path fill="none" stroke="midnightblue" d="M203.753,-340.734C205.392,-332.541 207.915,-319.923 210.157,-308.714"/>
<polygon fill="midnightblue" stroke="midnightblue" points="213.653,-309.081 212.182,-298.589 206.789,-307.708 213.653,-309.081"/>
</g>
<!-- Node6 -->
<g id="node7" class="node"><title>Node6</title>
<g id="a_node7"><a xlink:href="common_8h.html" target="_top" xlink:title="mir_toolkit/common.h">
<polygon fill="white" stroke="black" points="110,-134.5 110,-153.5 220,-153.5 220,-134.5 110,-134.5"/>
<text text-anchor="middle" x="165" y="-141.5" font-family="Arial" font-size="10.00">mir_toolkit/common.h</text>
</a>
</g>
</g>
<!-- Node1&#45;&gt;Node6 -->
<g id="edge47" class="edge"><title>Node1&#45;&gt;Node6</title>
<path fill="none" stroke="midnightblue" d="M192.19,-340.995C182.392,-331.789 167.956,-316.112 162,-299 145.787,-252.42 154.493,-193.023 160.627,-163.454"/>
<polygon fill="midnightblue" stroke="midnightblue" points="164.048,-164.192 162.795,-153.672 157.214,-162.678 164.048,-164.192"/>
</g>
<!-- Node7 -->
<g id="node8" class="node"><title>Node7</title>
<g id="a_node8"><a xlink:href="deprecations_8h.html" target="_top" xlink:title="mir_toolkit/deprecations.h">
<polygon fill="white" stroke="black" points="163,-62 163,-81 291,-81 291,-62 163,-62"/>
<text text-anchor="middle" x="227" y="-69" font-family="Arial" font-size="10.00">mir_toolkit/deprecations.h</text>
</a>
</g>
</g>
<!-- Node1&#45;&gt;Node7 -->
<g id="edge48" class="edge"><title>Node1&#45;&gt;Node7</title>
<path fill="none" stroke="midnightblue" d="M185.926,-340.81C132.017,-310.579 -35.384,-207.259 30,-123 45.2637,-103.33 103.5,-90.0059 152.728,-82.0056"/>
<polygon fill="midnightblue" stroke="midnightblue" points="153.423,-85.4394 162.757,-80.4276 152.335,-78.5245 153.423,-85.4394"/>
</g>
<!-- Node10 -->
<g id="node11" class="node"><title>Node10</title>
<polygon fill="white" stroke="#bfbfbf" points="1894,-0.5 1894,-19.5 1950,-19.5 1950,-0.5 1894,-0.5"/>
<text text-anchor="middle" x="1922" y="-7.5" font-family="Arial" font-size="10.00">stdbool.h</text>
</g>
<!-- Node1&#45;&gt;Node10 -->
<g id="edge49" class="edge"><title>Node1&#45;&gt;Node10</title>
<path fill="none" stroke="midnightblue" d="M243.15,-340.929C255.001,-338.711 267.975,-336.522 280,-335 375.295,-322.938 2005,-313.555 2005,-217.5 2005,-217.5 2005,-217.5 2005,-143 2005,-103.422 2007.9,-88.964 1986,-56 1977.17,-42.7091 1962.96,-32.1397 1950.18,-24.5932"/>
<polygon fill="midnightblue" stroke="midnightblue" points="1951.66,-21.4134 1941.22,-19.6366 1948.27,-27.5391 1951.66,-21.4134"/>
</g>
<!-- Node3 -->
<g id="node4" class="node"><title>Node3</title>
<g id="a_node4"><a xlink:href="toolkit_2events_2event_8h.html" target="_top" xlink:title="mir_toolkit/events\l/event.h">
<polygon fill="white" stroke="black" points="896,-201.5 896,-231.5 990,-231.5 990,-201.5 896,-201.5"/>
<text text-anchor="start" x="904" y="-219.5" font-family="Arial" font-size="10.00">mir_toolkit/events</text>
<text text-anchor="middle" x="943" y="-208.5" font-family="Arial" font-size="10.00">/event.h</text>
</a>
</g>
</g>
<!-- Node2&#45;&gt;Node3 -->
<g id="edge3" class="edge"><title>Node2&#45;&gt;Node3</title>
<path fill="none" stroke="midnightblue" d="M259.172,-278.556C384.948,-267.326 744.969,-235.181 885.669,-222.619"/>
<polygon fill="midnightblue" stroke="midnightblue" points="886.163,-226.089 895.813,-221.713 885.541,-219.116 886.163,-226.089"/>
</g>
<!-- Node4 -->
<g id="node5" class="node"><title>Node4</title>
<polygon fill="white" stroke="#bfbfbf" points="1665,-134.5 1665,-153.5 1717,-153.5 1717,-134.5 1665,-134.5"/>
<text text-anchor="middle" x="1691" y="-141.5" font-family="Arial" font-size="10.00">stddef.h</text>
</g>
<!-- Node2&#45;&gt;Node4 -->
<g id="edge46" class="edge"><title>Node2&#45;&gt;Node4</title>
<path fill="none" stroke="midnightblue" d="M259.305,-281.591C471.671,-276.822 1386.22,-251.534 1656,-165 1660.83,-163.452 1665.73,-161.178 1670.27,-158.714"/>
<polygon fill="midnightblue" stroke="midnightblue" points="1672.14,-161.673 1678.95,-153.559 1668.57,-155.653 1672.14,-161.673"/>
</g>
<!-- Node2&#45;&gt;Node6 -->
<g id="edge44" class="edge"><title>Node2&#45;&gt;Node6</title>
<path fill="none" stroke="midnightblue" d="M209.837,-268.303C200.718,-243.225 181.771,-191.12 171.673,-163.352"/>
<polygon fill="midnightblue" stroke="midnightblue" points="174.871,-161.902 168.164,-153.701 168.292,-164.295 174.871,-161.902"/>
</g>
<!-- Node2&#45;&gt;Node7 -->
<g id="edge45" class="edge"><title>Node2&#45;&gt;Node7</title>
<path fill="none" stroke="midnightblue" d="M191.334,-268.376C148.111,-240.762 64.095,-177.55 101,-123 114.286,-103.361 136.591,-91.3591 158.773,-84.0241"/>
<polygon fill="midnightblue" stroke="midnightblue" points="160.02,-87.3038 168.583,-81.0648 157.999,-80.6021 160.02,-87.3038"/>
</g>
<!-- Node3&#45;&gt;Node4 -->
<g id="edge4" class="edge"><title>Node3&#45;&gt;Node4</title>
<path fill="none" stroke="midnightblue" d="M990.188,-213.379C1139.04,-206.517 1592.62,-184.253 1656,-165 1660.85,-163.526 1665.76,-161.285 1670.3,-158.829"/>
<polygon fill="midnightblue" stroke="midnightblue" points="1672.18,-161.784 1678.99,-153.663 1668.6,-155.769 1672.18,-161.784"/>
</g>
<!-- Node5 -->
<g id="node6" class="node"><title>Node5</title>
<polygon fill="white" stroke="#bfbfbf" points="1530.5,-0.5 1530.5,-19.5 1579.5,-19.5 1579.5,-0.5 1530.5,-0.5"/>
<text text-anchor="middle" x="1555" y="-7.5" font-family="Arial" font-size="10.00">stdint.h</text>
</g>
<!-- Node3&#45;&gt;Node5 -->
<g id="edge5" class="edge"><title>Node3&#45;&gt;Node5</title>
<path fill="none" stroke="midnightblue" d="M990.223,-212.572C1120.71,-204.302 1477.93,-180.368 1498,-165 1540.92,-132.13 1551.53,-63.4499 1554.15,-30.0526"/>
<polygon fill="midnightblue" stroke="midnightblue" points="1557.66,-30.0244 1554.78,-19.8276 1550.67,-29.5927 1557.66,-30.0244"/>
</g>
<!-- Node3&#45;&gt;Node6 -->
<g id="edge6" class="edge"><title>Node3&#45;&gt;Node6</title>
<path fill="none" stroke="midnightblue" d="M895.735,-215.925C780.6,-216.148 476.878,-211.836 229,-165 218.534,-163.022 207.373,-159.903 197.352,-156.712"/>
<polygon fill="midnightblue" stroke="midnightblue" points="198.371,-153.362 187.778,-153.535 196.167,-160.006 198.371,-153.362"/>
</g>
<!-- Node3&#45;&gt;Node7 -->
<g id="edge8" class="edge"><title>Node3&#45;&gt;Node7</title>
<path fill="none" stroke="midnightblue" d="M895.769,-212.309C850.703,-207.479 782.276,-195.361 731,-165 709.339,-152.174 715.425,-134.438 693,-123 626.326,-88.9934 414.868,-77.7838 301.119,-74.1678"/>
<polygon fill="midnightblue" stroke="midnightblue" points="301.196,-70.6686 291.094,-73.8607 300.982,-77.6653 301.196,-70.6686"/>
</g>
<!-- Node8 -->
<g id="node9" class="node"><title>Node8</title>
<g id="a_node9"><a xlink:href="input__event_8h.html" target="_top" xlink:title="mir_toolkit/events\l/input/input_event.h">
<polygon fill="white" stroke="black" points="1545,-129 1545,-159 1647,-159 1647,-129 1545,-129"/>
<text text-anchor="start" x="1553" y="-147" font-family="Arial" font-size="10.00">mir_toolkit/events</text>
<text text-anchor="middle" x="1596" y="-136" font-family="Arial" font-size="10.00">/input/input_event.h</text>
</a>
</g>
</g>
<!-- Node3&#45;&gt;Node8 -->
<g id="edge9" class="edge"><title>Node3&#45;&gt;Node8</title>
<path fill="none" stroke="midnightblue" d="M990.345,-214.726C1089.81,-212.382 1326.89,-202.947 1522,-165 1526.68,-164.09 1531.5,-162.969 1536.33,-161.728"/>
<polygon fill="midnightblue" stroke="midnightblue" points="1537.51,-165.036 1546.24,-159.036 1535.67,-158.28 1537.51,-165.036"/>
</g>
<!-- Node15 -->
<g id="node16" class="node"><title>Node15</title>
<g id="a_node16"><a xlink:href="resize__event_8h.html" target="_top" xlink:title="mir_toolkit/events\l/resize_event.h">
<polygon fill="white" stroke="black" points="358,-129 358,-159 452,-159 452,-129 358,-129"/>
<text text-anchor="start" x="366" y="-147" font-family="Arial" font-size="10.00">mir_toolkit/events</text>
<text text-anchor="middle" x="405" y="-136" font-family="Arial" font-size="10.00">/resize_event.h</text>
</a>
</g>
</g>
<!-- Node3&#45;&gt;Node15 -->
<g id="edge20" class="edge"><title>Node3&#45;&gt;Node15</title>
<path fill="none" stroke="midnightblue" d="M895.829,-214.454C807.403,-211.621 611.777,-201.352 452,-165 448.522,-164.209 444.964,-163.267 441.431,-162.229"/>
<polygon fill="midnightblue" stroke="midnightblue" points="442.224,-158.809 431.633,-159.098 440.093,-165.476 442.224,-158.809"/>
</g>
<!-- Node16 -->
<g id="node17" class="node"><title>Node16</title>
<g id="a_node17"><a xlink:href="surface__event_8h.html" target="_top" xlink:title="mir_toolkit/events\l/surface_event.h">
<polygon fill="white" stroke="black" points="1024,-129 1024,-159 1118,-159 1118,-129 1024,-129"/>
<text text-anchor="start" x="1032" y="-147" font-family="Arial" font-size="10.00">mir_toolkit/events</text>
<text text-anchor="middle" x="1071" y="-136" font-family="Arial" font-size="10.00">/surface_event.h</text>
</a>
</g>
</g>
<!-- Node3&#45;&gt;Node16 -->
<g id="edge22" class="edge"><title>Node3&#45;&gt;Node16</title>
<path fill="none" stroke="midnightblue" d="M963.069,-201.403C981.255,-190.596 1008.35,-175.579 1030.9,-163.758"/>
<polygon fill="midnightblue" stroke="midnightblue" points="1032.66,-166.786 1039.93,-159.073 1029.44,-160.572 1032.66,-166.786"/>
</g>
<!-- Node17 -->
<g id="node18" class="node"><title>Node17</title>
<g id="a_node18"><a xlink:href="window__event_8h.html" target="_top" xlink:title="mir_toolkit/events\l/window_event.h">
<polygon fill="white" stroke="black" points="470,-129 470,-159 564,-159 564,-129 470,-129"/>
<text text-anchor="start" x="478" y="-147" font-family="Arial" font-size="10.00">mir_toolkit/events</text>
<text text-anchor="middle" x="517" y="-136" font-family="Arial" font-size="10.00">/window_event.h</text>
</a>
</g>
</g>
<!-- Node3&#45;&gt;Node17 -->
<g id="edge25" class="edge"><title>Node3&#45;&gt;Node17</title>
<path fill="none" stroke="midnightblue" d="M895.865,-212.649C823.387,-207.292 681.15,-193.586 564,-165 560.587,-164.167 557.092,-163.202 553.617,-162.155"/>
<polygon fill="midnightblue" stroke="midnightblue" points="554.56,-158.782 543.968,-159.028 552.402,-165.441 554.56,-158.782"/>
</g>
<!-- Node18 -->
<g id="node19" class="node"><title>Node18</title>
<g id="a_node19"><a xlink:href="orientation__event_8h.html" target="_top" xlink:title="mir_toolkit/events\l/orientation_event.h">
<polygon fill="white" stroke="black" points="582,-129 582,-159 684,-159 684,-129 582,-129"/>
<text text-anchor="start" x="590" y="-147" font-family="Arial" font-size="10.00">mir_toolkit/events</text>
<text text-anchor="middle" x="633" y="-136" font-family="Arial" font-size="10.00">/orientation_event.h</text>
</a>
</g>
</g>
<!-- Node3&#45;&gt;Node18 -->
<g id="edge27" class="edge"><title>Node3&#45;&gt;Node18</title>
<path fill="none" stroke="midnightblue" d="M895.568,-208.28C844.096,-199.393 760.097,-183.221 689,-165 685.185,-164.022 681.26,-162.96 677.339,-161.851"/>
<polygon fill="midnightblue" stroke="midnightblue" points="678.245,-158.469 667.665,-159.022 676.281,-165.188 678.245,-158.469"/>
</g>
<!-- Node19 -->
<g id="node20" class="node"><title>Node19</title>
<g id="a_node20"><a xlink:href="prompt__session__event_8h.html" target="_top" xlink:title="mir_toolkit/events\l/prompt_session_event.h">
<polygon fill="white" stroke="black" points="880,-129 880,-159 1006,-159 1006,-129 880,-129"/>
<text text-anchor="start" x="888" y="-147" font-family="Arial" font-size="10.00">mir_toolkit/events</text>
<text text-anchor="middle" x="943" y="-136" font-family="Arial" font-size="10.00">/prompt_session_event.h</text>
</a>
</g>
</g>
<!-- Node3&#45;&gt;Node19 -->
<g id="edge29" class="edge"><title>Node3&#45;&gt;Node19</title>
<path fill="none" stroke="midnightblue" d="M937.451,-201.233C936.249,-192.06 935.949,-179.905 936.551,-169.244"/>
<polygon fill="midnightblue" stroke="midnightblue" points="940.041,-169.52 937.454,-159.246 933.069,-168.89 940.041,-169.52"/>
</g>
<!-- Node20 -->
<g id="node21" class="node"><title>Node20</title>
<g id="a_node21"><a xlink:href="keymap__event_8h.html" target="_top" xlink:title="mir_toolkit/events\l/keymap_event.h">
<polygon fill="white" stroke="black" points="1395,-129 1395,-159 1489,-159 1489,-129 1395,-129"/>
<text text-anchor="start" x="1403" y="-147" font-family="Arial" font-size="10.00">mir_toolkit/events</text>
<text text-anchor="middle" x="1442" y="-136" font-family="Arial" font-size="10.00">/keymap_event.h</text>
</a>
</g>
</g>
<!-- Node3&#45;&gt;Node20 -->
<g id="edge31" class="edge"><title>Node3&#45;&gt;Node20</title>
<path fill="none" stroke="midnightblue" d="M990.162,-213.394C1070.56,-209.185 1238.45,-197.186 1377,-165 1380.58,-164.168 1384.25,-163.182 1387.93,-162.099"/>
<polygon fill="midnightblue" stroke="midnightblue" points="1389.18,-165.375 1397.68,-159.048 1387.09,-158.695 1389.18,-165.375"/>
</g>
<!-- Node21 -->
<g id="node22" class="node"><title>Node21</title>
<g id="a_node22"><a xlink:href="input__configuration__event_8h.html" target="_top" xlink:title="mir_toolkit/events\l/input_configuration\l_event.h">
<polygon fill="white" stroke="black" points="238.5,-123.5 238.5,-164.5 339.5,-164.5 339.5,-123.5 238.5,-123.5"/>
<text text-anchor="start" x="246.5" y="-152.5" font-family="Arial" font-size="10.00">mir_toolkit/events</text>
<text text-anchor="start" x="246.5" y="-141.5" font-family="Arial" font-size="10.00">/input_configuration</text>
<text text-anchor="middle" x="289" y="-130.5" font-family="Arial" font-size="10.00">_event.h</text>
</a>
</g>
</g>
<!-- Node3&#45;&gt;Node21 -->
<g id="edge34" class="edge"><title>Node3&#45;&gt;Node21</title>
<path fill="none" stroke="midnightblue" d="M895.715,-215.32C794.762,-214.178 551.498,-207.177 347.711,-166.539"/>
<polygon fill="midnightblue" stroke="midnightblue" points="348.228,-163.073 337.732,-164.516 346.836,-169.933 348.228,-163.073"/>
</g>
<!-- Node22 -->
<g id="node23" class="node"><title>Node22</title>
<g id="a_node23"><a xlink:href="surface__output__event_8h.html" target="_top" xlink:title="mir_toolkit/events\l/surface_output_event.h">
<polygon fill="white" stroke="black" points="740,-129 740,-159 862,-159 862,-129 740,-129"/>
<text text-anchor="start" x="748" y="-147" font-family="Arial" font-size="10.00">mir_toolkit/events</text>
<text text-anchor="middle" x="801" y="-136" font-family="Arial" font-size="10.00">/surface_output_event.h</text>
</a>
</g>
</g>
<!-- Node3&#45;&gt;Node22 -->
<g id="edge37" class="edge"><title>Node3&#45;&gt;Node22</title>
<path fill="none" stroke="midnightblue" d="M909.079,-201.403C885.877,-190.596 855.458,-175.579 832.737,-163.758"/>
<polygon fill="midnightblue" stroke="midnightblue" points="834.303,-160.627 823.822,-159.073 831.046,-166.823 834.303,-160.627"/>
</g>
<!-- Node23 -->
<g id="node24" class="node"><title>Node23</title>
<g id="a_node24"><a xlink:href="window__output__event_8h.html" target="_top" xlink:title="mir_toolkit/events\l/window_output_event.h">
<polygon fill="white" stroke="black" points="1136.5,-129 1136.5,-159 1257.5,-159 1257.5,-129 1136.5,-129"/>
<text text-anchor="start" x="1144.5" y="-147" font-family="Arial" font-size="10.00">mir_toolkit/events</text>
<text text-anchor="middle" x="1197" y="-136" font-family="Arial" font-size="10.00">/window_output_event.h</text>
</a>
</g>
</g>
<!-- Node3&#45;&gt;Node23 -->
<g id="edge40" class="edge"><title>Node3&#45;&gt;Node23</title>
<path fill="none" stroke="midnightblue" d="M987.065,-201.495C1022.5,-191.438 1073.34,-177.508 1118,-165 1121.73,-163.956 1125.56,-162.876 1129.45,-161.783"/>
<polygon fill="midnightblue" stroke="midnightblue" points="1130.48,-165.129 1139.16,-159.052 1128.58,-158.39 1130.48,-165.129"/>
</g>
<!-- Node24 -->
<g id="node25" class="node"><title>Node24</title>
<g id="a_node25"><a xlink:href="input__device__state__event_8h.html" target="_top" xlink:title="mir_toolkit/events\l/input_device_state\l_event.h">
<polygon fill="white" stroke="black" points="1275.5,-123.5 1275.5,-164.5 1376.5,-164.5 1376.5,-123.5 1275.5,-123.5"/>
<text text-anchor="start" x="1283.5" y="-152.5" font-family="Arial" font-size="10.00">mir_toolkit/events</text>
<text text-anchor="start" x="1283.5" y="-141.5" font-family="Arial" font-size="10.00">/input_device_state</text>
<text text-anchor="middle" x="1326" y="-130.5" font-family="Arial" font-size="10.00">_event.h</text>
</a>
</g>
</g>
<!-- Node3&#45;&gt;Node24 -->
<g id="edge42" class="edge"><title>Node3&#45;&gt;Node24</title>
<path fill="none" stroke="midnightblue" d="M990.216,-210.011C1052.3,-202.728 1164.15,-188.039 1258,-165 1260.57,-164.369 1263.19,-163.676 1265.83,-162.939"/>
<polygon fill="midnightblue" stroke="midnightblue" points="1266.84,-166.288 1275.45,-160.105 1264.87,-159.574 1266.84,-166.288"/>
</g>
<!-- Node6&#45;&gt;Node7 -->
<g id="edge7" class="edge"><title>Node6&#45;&gt;Node7</title>
<path fill="none" stroke="midnightblue" d="M172.602,-134.355C182.55,-123.044 200.181,-102.996 212.672,-88.7924"/>
<polygon fill="midnightblue" stroke="midnightblue" points="215.36,-91.036 219.335,-81.2154 210.103,-86.4133 215.36,-91.036"/>
</g>
<!-- Node8&#45;&gt;Node3 -->
<g id="edge10" class="edge"><title>Node8&#45;&gt;Node3</title>
<path fill="none" stroke="midnightblue" d="M1563.9,-159.036C1556.16,-161.338 1547.88,-163.467 1540,-165 1344.85,-202.954 1107.72,-212.385 1000.45,-214.727"/>
<polygon fill="midnightblue" stroke="midnightblue" points="1000.1,-211.234 990.169,-214.938 1000.24,-218.232 1000.1,-211.234"/>
</g>
<!-- Node8&#45;&gt;Node5 -->
<g id="edge13" class="edge"><title>Node8&#45;&gt;Node5</title>
<path fill="none" stroke="midnightblue" d="M1589.88,-128.913C1585.15,-117.697 1578.65,-101.525 1574,-87 1567.8,-67.612 1562.35,-44.9161 1558.9,-29.4075"/>
<polygon fill="midnightblue" stroke="midnightblue" points="1562.3,-28.5645 1556.76,-19.5352 1555.46,-30.0503 1562.3,-28.5645"/>
</g>
<!-- Node9 -->
<g id="node10" class="node"><title>Node9</title>
<g id="a_node10"><a xlink:href="mir__input__device__types_8h.html" target="_top" xlink:title="mir_toolkit/mir_input\l_device_types.h">
<polygon fill="white" stroke="black" points="1583,-56.5 1583,-86.5 1687,-86.5 1687,-56.5 1583,-56.5"/>
<text text-anchor="start" x="1591" y="-74.5" font-family="Arial" font-size="10.00">mir_toolkit/mir_input</text>
<text text-anchor="middle" x="1635" y="-63.5" font-family="Arial" font-size="10.00">_device_types.h</text>
</a>
</g>
</g>
<!-- Node8&#45;&gt;Node9 -->
<g id="edge11" class="edge"><title>Node8&#45;&gt;Node9</title>
<path fill="none" stroke="midnightblue" d="M1603.89,-128.733C1609.13,-119.273 1616.11,-106.643 1622.14,-95.7486"/>
<polygon fill="midnightblue" stroke="midnightblue" points="1625.34,-97.1901 1627.12,-86.7455 1619.22,-93.8016 1625.34,-97.1901"/>
</g>
<!-- Node8&#45;&gt;Node10 -->
<g id="edge14" class="edge"><title>Node8&#45;&gt;Node10</title>
<path fill="none" stroke="midnightblue" d="M1636.16,-128.963C1642.76,-126.847 1649.54,-124.78 1656,-123 1727.94,-103.173 1752.81,-119.472 1820,-87 1839.62,-77.5158 1840.63,-69.1655 1858,-56 1871.94,-45.4367 1888.04,-34.1164 1900.61,-25.4723"/>
<polygon fill="midnightblue" stroke="midnightblue" points="1902.78,-28.2327 1909.06,-19.7002 1898.83,-22.4536 1902.78,-28.2327"/>
</g>
<!-- Node11 -->
<g id="node12" class="node"><title>Node11</title>
<g id="a_node12"><a xlink:href="touch__event_8h.html" target="_top" xlink:title="mir_toolkit/events\l/input/touch_event.h">
<polygon fill="white" stroke="black" points="1705.5,-56.5 1705.5,-86.5 1810.5,-86.5 1810.5,-56.5 1705.5,-56.5"/>
<text text-anchor="start" x="1713.5" y="-74.5" font-family="Arial" font-size="10.00">mir_toolkit/events</text>
<text text-anchor="middle" x="1758" y="-63.5" font-family="Arial" font-size="10.00">/input/touch_event.h</text>
</a>
</g>
</g>
<!-- Node8&#45;&gt;Node11 -->
<g id="edge15" class="edge"><title>Node8&#45;&gt;Node11</title>
<path fill="none" stroke="midnightblue" d="M1628.39,-128.903C1653.67,-117.904 1688.96,-102.544 1716.34,-90.6304"/>
<polygon fill="midnightblue" stroke="midnightblue" points="1717.89,-93.7726 1725.66,-86.5729 1715.1,-87.354 1717.89,-93.7726"/>
</g>
<!-- Node12 -->
<g id="node13" class="node"><title>Node12</title>
<g id="a_node13"><a xlink:href="keyboard__event_8h.html" target="_top" xlink:title="mir_toolkit/events\l/input/keyboard_event.h">
<polygon fill="white" stroke="black" points="1367.5,-56.5 1367.5,-86.5 1488.5,-86.5 1488.5,-56.5 1367.5,-56.5"/>
<text text-anchor="start" x="1375.5" y="-74.5" font-family="Arial" font-size="10.00">mir_toolkit/events</text>
<text text-anchor="middle" x="1428" y="-63.5" font-family="Arial" font-size="10.00">/input/keyboard_event.h</text>
</a>
</g>
</g>
<!-- Node8&#45;&gt;Node12 -->
<g id="edge16" class="edge"><title>Node8&#45;&gt;Node12</title>
<path fill="none" stroke="midnightblue" d="M1562.41,-128.903C1536.08,-117.856 1499.27,-102.41 1470.83,-90.4745"/>
<polygon fill="midnightblue" stroke="midnightblue" points="1472.11,-87.2151 1461.54,-86.5729 1469.4,-93.6698 1472.11,-87.2151"/>
</g>
<!-- Node14 -->
<g id="node15" class="node"><title>Node14</title>
<g id="a_node15"><a xlink:href="pointer__event_8h.html" target="_top" xlink:title="mir_toolkit/events\l/input/pointer_event.h">
<polygon fill="white" stroke="black" points="1867,-56.5 1867,-86.5 1977,-86.5 1977,-56.5 1867,-56.5"/>
<text text-anchor="start" x="1875" y="-74.5" font-family="Arial" font-size="10.00">mir_toolkit/events</text>
<text text-anchor="middle" x="1922" y="-63.5" font-family="Arial" font-size="10.00">/input/pointer_event.h</text>
</a>
</g>
</g>
<!-- Node8&#45;&gt;Node14 -->
<g id="edge18" class="edge"><title>Node8&#45;&gt;Node14</title>
<path fill="none" stroke="midnightblue" d="M1635.46,-128.97C1642.26,-126.804 1649.3,-124.72 1656,-123 1742.21,-100.872 1765.66,-104.154 1853,-87 1854.25,-86.7545 1855.51,-86.505 1856.78,-86.2522"/>
<polygon fill="midnightblue" stroke="midnightblue" points="1857.55,-89.6678 1866.66,-84.2625 1856.17,-82.8056 1857.55,-89.6678"/>
</g>
<!-- Node9&#45;&gt;Node5 -->
<g id="edge12" class="edge"><title>Node9&#45;&gt;Node5</title>
<path fill="none" stroke="midnightblue" d="M1616.04,-56.3993C1603.58,-47.1293 1587.3,-35.0254 1574.69,-25.6469"/>
<polygon fill="midnightblue" stroke="midnightblue" points="1576.75,-22.8173 1566.64,-19.6578 1572.58,-28.4341 1576.75,-22.8173"/>
</g>
<!-- Node13 -->
<g id="node14" class="node"><title>Node13</title>
<polygon fill="white" stroke="#bfbfbf" points="1317,-0.5 1317,-19.5 1451,-19.5 1451,-0.5 1317,-0.5"/>
<text text-anchor="middle" x="1384" y="-7.5" font-family="Arial" font-size="10.00">xkbcommon/xkbcommon.h</text>
</g>
<!-- Node12&#45;&gt;Node13 -->
<g id="edge17" class="edge"><title>Node12&#45;&gt;Node13</title>
<path fill="none" stroke="midnightblue" d="M1417.57,-56.3993C1411.24,-47.8424 1403.13,-36.8708 1396.47,-27.857"/>
<polygon fill="midnightblue" stroke="midnightblue" points="1399.16,-25.6171 1390.4,-19.6578 1393.53,-29.7792 1399.16,-25.6171"/>
</g>
<!-- Node14&#45;&gt;Node10 -->
<g id="edge19" class="edge"><title>Node14&#45;&gt;Node10</title>
<path fill="none" stroke="midnightblue" d="M1922,-56.3993C1922,-48.4664 1922,-38.458 1922,-29.8583"/>
<polygon fill="midnightblue" stroke="midnightblue" points="1925.5,-29.6577 1922,-19.6578 1918.5,-29.6578 1925.5,-29.6577"/>
</g>
<!-- Node15&#45;&gt;Node3 -->
<g id="edge21" class="edge"><title>Node15&#45;&gt;Node3</title>
<path fill="none" stroke="midnightblue" d="M449.311,-159.098C456.206,-161.364 463.256,-163.466 470,-165 617.575,-198.576 795.734,-209.9 885.515,-213.666"/>
<polygon fill="midnightblue" stroke="midnightblue" points="885.624,-217.173 895.756,-214.079 885.905,-210.179 885.624,-217.173"/>
</g>
<!-- Node16&#45;&gt;Node3 -->
<g id="edge23" class="edge"><title>Node16&#45;&gt;Node3</title>
<path fill="none" stroke="midnightblue" d="M1050.97,-159.073C1032.8,-169.874 1005.71,-184.889 983.153,-196.715"/>
<polygon fill="midnightblue" stroke="midnightblue" points="981.385,-193.69 974.121,-201.403 984.609,-199.903 981.385,-193.69"/>
</g>
<!-- Node16&#45;&gt;Node7 -->
<g id="edge24" class="edge"><title>Node16&#45;&gt;Node7</title>
<path fill="none" stroke="midnightblue" d="M1036.48,-128.981C1029.47,-126.618 1022.08,-124.461 1015,-123 879.895,-95.1185 470.172,-79.8637 301.139,-74.6149"/>
<polygon fill="midnightblue" stroke="midnightblue" points="301.189,-71.1148 291.086,-74.3057 300.973,-78.1115 301.189,-71.1148"/>
</g>
<!-- Node17&#45;&gt;Node3 -->
<g id="edge26" class="edge"><title>Node17&#45;&gt;Node3</title>
<path fill="none" stroke="midnightblue" d="M561.66,-159.028C568.452,-161.273 575.381,-163.385 582,-165 687.655,-190.781 813.716,-204.459 885.541,-210.825"/>
<polygon fill="midnightblue" stroke="midnightblue" points="885.47,-214.332 895.736,-211.712 886.077,-207.358 885.47,-214.332"/>
</g>
<!-- Node18&#45;&gt;Node3 -->
<g id="edge28" class="edge"><title>Node18&#45;&gt;Node3</title>
<path fill="none" stroke="midnightblue" d="M684.351,-158.709C691.958,-160.936 699.68,-163.124 707,-165 767.681,-180.552 837.76,-194.61 885.773,-203.921"/>
<polygon fill="midnightblue" stroke="midnightblue" points="885.19,-207.373 895.673,-205.835 886.519,-200.501 885.19,-207.373"/>
</g>
<!-- Node19&#45;&gt;Node3 -->
<g id="edge30" class="edge"><title>Node19&#45;&gt;Node3</title>
<path fill="none" stroke="midnightblue" d="M948.546,-159.246C949.749,-168.414 950.051,-180.568 949.45,-191.232"/>
<polygon fill="midnightblue" stroke="midnightblue" points="945.96,-190.959 948.549,-201.233 952.932,-191.588 945.96,-190.959"/>
</g>
<!-- Node20&#45;&gt;Node3 -->
<g id="edge32" class="edge"><title>Node20&#45;&gt;Node3</title>
<path fill="none" stroke="midnightblue" d="M1415.36,-159.048C1408.78,-161.319 1401.74,-163.435 1395,-165 1255.89,-197.318 1087.19,-209.283 1000.44,-213.445"/>
<polygon fill="midnightblue" stroke="midnightblue" points="1000.11,-209.957 990.278,-213.915 1000.43,-216.95 1000.11,-209.957"/>
</g>
<!-- Node20&#45;&gt;Node13 -->
<g id="edge33" class="edge"><title>Node20&#45;&gt;Node13</title>
<path fill="none" stroke="midnightblue" d="M1406.63,-128.868C1388.91,-119.766 1369.12,-106.032 1359,-87 1348.86,-67.9305 1360.26,-43.9897 1370.78,-28.1294"/>
<polygon fill="midnightblue" stroke="midnightblue" points="1373.74,-29.9978 1376.69,-19.8227 1368.04,-25.9357 1373.74,-29.9978"/>
</g>
<!-- Node21&#45;&gt;Node3 -->
<g id="edge35" class="edge"><title>Node21&#45;&gt;Node3</title>
<path fill="none" stroke="midnightblue" d="M339.522,-160.275C345.719,-162.103 351.978,-163.759 358,-165 548.803,-204.33 780.157,-213.125 885.697,-215.025"/>
<polygon fill="midnightblue" stroke="midnightblue" points="885.759,-218.527 895.815,-215.193 885.875,-211.528 885.759,-218.527"/>
</g>
<!-- Node21&#45;&gt;Node7 -->
<g id="edge36" class="edge"><title>Node21&#45;&gt;Node7</title>
<path fill="none" stroke="midnightblue" d="M271.73,-123.362C262.212,-112.539 250.531,-99.2568 241.493,-88.9795"/>
<polygon fill="midnightblue" stroke="midnightblue" points="243.86,-86.3713 234.628,-81.1734 238.603,-90.994 243.86,-86.3713"/>
</g>
<!-- Node22&#45;&gt;Node3 -->
<g id="edge38" class="edge"><title>Node22&#45;&gt;Node3</title>
<path fill="none" stroke="midnightblue" d="M834.868,-159.073C858.06,-169.874 888.479,-184.889 911.212,-196.715"/>
<polygon fill="midnightblue" stroke="midnightblue" points="909.651,-199.849 920.132,-201.403 912.908,-193.653 909.651,-199.849"/>
</g>
<!-- Node22&#45;&gt;Node7 -->
<g id="edge39" class="edge"><title>Node22&#45;&gt;Node7</title>
<path fill="none" stroke="midnightblue" d="M752.843,-128.944C743.972,-126.702 734.749,-124.599 726,-123 576.675,-95.7147 399.322,-82.1723 301.361,-76.3087"/>
<polygon fill="midnightblue" stroke="midnightblue" points="301.452,-72.8081 291.263,-75.7147 301.041,-79.796 301.452,-72.8081"/>
</g>
<!-- Node23&#45;&gt;Node3 -->
<g id="edge41" class="edge"><title>Node23&#45;&gt;Node3</title>
<path fill="none" stroke="midnightblue" d="M1156.97,-159.052C1150,-161.06 1142.82,-163.091 1136,-165 1090.61,-177.712 1038.84,-191.893 1000.25,-201.984"/>
<polygon fill="midnightblue" stroke="midnightblue" points="999.035,-198.684 990.237,-204.587 1000.8,-205.459 999.035,-198.684"/>
</g>
<!-- Node24&#45;&gt;Node3 -->
<g id="edge43" class="edge"><title>Node24&#45;&gt;Node3</title>
<path fill="none" stroke="midnightblue" d="M1277.9,-164.525C1277.26,-164.687 1276.63,-164.845 1276,-165 1181.01,-188.318 1067.59,-203.083 1000.54,-210.273"/>
<polygon fill="midnightblue" stroke="midnightblue" points="999.764,-206.835 990.185,-211.362 1000.5,-213.796 999.764,-206.835"/>
</g>
<!-- Node25&#45;&gt;Node2 -->
<g id="edge51" class="edge"><title>Node25&#45;&gt;Node2</title>
<path fill="none" stroke="midnightblue" d="M91.2836,-335.396C114.783,-325.728 146.154,-312.823 171.426,-302.426"/>
<polygon fill="midnightblue" stroke="midnightblue" points="172.867,-305.618 180.783,-298.577 170.204,-299.144 172.867,-305.618"/>
</g>
<!-- Node25&#45;&gt;Node7 -->
<g id="edge52" class="edge"><title>Node25&#45;&gt;Node7</title>
<path fill="none" stroke="midnightblue" d="M54.3917,-335.372C48.0892,-296.614 36.144,-187.235 88,-123 104.088,-103.071 128.745,-91.0054 152.849,-83.701"/>
<polygon fill="midnightblue" stroke="midnightblue" points="154.06,-86.997 162.756,-80.9449 152.184,-80.253 154.06,-86.997"/>
</g>
</g>
</svg>
