<?xml version="1.0" encoding="UTF-8" standalone="no"?>
<!DOCTYPE svg PUBLIC "-//W3C//DTD SVG 1.1//EN"
 "http://www.w3.org/Graphics/SVG/1.1/DTD/svg11.dtd">
<!-- Generated by graphviz version 2.43.0 (0)
 -->
<!-- Title: include/miroil/miroil/display_id.h Pages: 1 -->
<svg width="317pt" height="151pt"
 viewBox="0.00 0.00 316.50 151.00" xmlns="http://www.w3.org/2000/svg" xmlns:xlink="http://www.w3.org/1999/xlink">
<g id="graph0" class="graph" transform="scale(1 1) rotate(0) translate(4 147)">
<title>include/miroil/miroil/display_id.h</title>
<polygon fill="white" stroke="transparent" points="-4,4 -4,-147 312.5,-147 312.5,4 -4,4"/>
<!-- Node1 -->
<g id="node1" class="node">
<title>Node1</title>
<g id="a_node1"><a xlink:title=" ">
<polygon fill="#bfbfbf" stroke="black" points="91.5,-112.5 91.5,-142.5 191.5,-142.5 191.5,-112.5 91.5,-112.5"/>
<text text-anchor="start" x="99.5" y="-130.5" font-family="Arial" font-size="10.00">include/miroil/miroil</text>
<text text-anchor="middle" x="141.5" y="-119.5" font-family="Arial" font-size="10.00">/display_id.h</text>
</a>
</g>
</g>
<!-- Node2 -->
<g id="node2" class="node">
<title>Node2</title>
<g id="a_node2"><a xlink:href="int__wrapper_8h.html" target="_top" xlink:title=" ">
<polygon fill="white" stroke="black" points="46.5,-56.5 46.5,-75.5 138.5,-75.5 138.5,-56.5 46.5,-56.5"/>
<text text-anchor="middle" x="92.5" y="-63.5" font-family="Arial" font-size="10.00">mir/int_wrapper.h</text>
</a>
</g>
</g>
<!-- Node1&#45;&gt;Node2 -->
<g id="edge1" class="edge">
<title>Node1&#45;&gt;Node2</title>
<path fill="none" stroke="midnightblue" d="M129.89,-112.4C122.77,-103.75 113.62,-92.64 106.15,-83.58"/>
<polygon fill="midnightblue" stroke="midnightblue" points="108.69,-81.15 99.63,-75.66 103.29,-85.6 108.69,-81.15"/>
</g>
<!-- Node5 -->
<g id="node5" class="node">
<title>Node5</title>
<g id="a_node5"><a xlink:href="edid_8h.html" target="_top" xlink:title=" ">
<polygon fill="white" stroke="black" points="174,-56.5 174,-75.5 243,-75.5 243,-56.5 174,-56.5"/>
<text text-anchor="middle" x="208.5" y="-63.5" font-family="Arial" font-size="10.00">miroil/edid.h</text>
</a>
</g>
</g>
<!-- Node1&#45;&gt;Node5 -->
<g id="edge4" class="edge">
<title>Node1&#45;&gt;Node5</title>
<path fill="none" stroke="midnightblue" d="M157.38,-112.4C167.52,-103.4 180.66,-91.72 191.09,-82.47"/>
<polygon fill="midnightblue" stroke="midnightblue" points="193.6,-84.92 198.75,-75.66 188.95,-79.68 193.6,-84.92"/>
</g>
<!-- Node3 -->
<g id="node3" class="node">
<title>Node3</title>
<g id="a_node3"><a xlink:title=" ">
<polygon fill="white" stroke="#bfbfbf" points="0,-0.5 0,-19.5 45,-19.5 45,-0.5 0,-0.5"/>
<text text-anchor="middle" x="22.5" y="-7.5" font-family="Arial" font-size="10.00">iosfwd</text>
</a>
</g>
</g>
<!-- Node2&#45;&gt;Node3 -->
<g id="edge2" class="edge">
<title>Node2&#45;&gt;Node3</title>
<path fill="none" stroke="midnightblue" d="M81.25,-56.32C70.7,-48.18 54.7,-35.84 42.06,-26.09"/>
<polygon fill="midnightblue" stroke="midnightblue" points="44.01,-23.17 33.95,-19.83 39.73,-28.71 44.01,-23.17"/>
</g>
<!-- Node4 -->
<g id="node4" class="node">
<title>Node4</title>
<g id="a_node4"><a xlink:title=" ">
<polygon fill="white" stroke="#bfbfbf" points="63,-0.5 63,-19.5 122,-19.5 122,-0.5 63,-0.5"/>
<text text-anchor="middle" x="92.5" y="-7.5" font-family="Arial" font-size="10.00">functional</text>
</a>
</g>
</g>
<!-- Node2&#45;&gt;Node4 -->
<g id="edge3" class="edge">
<title>Node2&#45;&gt;Node4</title>
<path fill="none" stroke="midnightblue" d="M92.5,-56.08C92.5,-49.01 92.5,-38.86 92.5,-29.99"/>
<polygon fill="midnightblue" stroke="midnightblue" points="96,-29.75 92.5,-19.75 89,-29.75 96,-29.75"/>
</g>
<!-- Node6 -->
<g id="node6" class="node">
<title>Node6</title>
<g id="a_node6"><a xlink:title=" ">
<polygon fill="white" stroke="#bfbfbf" points="140.5,-0.5 140.5,-19.5 186.5,-19.5 186.5,-0.5 140.5,-0.5"/>
<text text-anchor="middle" x="163.5" y="-7.5" font-family="Arial" font-size="10.00">cstdint</text>
</a>
</g>
</g>
<!-- Node5&#45;&gt;Node6 -->
<g id="edge5" class="edge">
<title>Node5&#45;&gt;Node6</title>
<path fill="none" stroke="midnightblue" d="M201.07,-56.08C194.65,-48.38 185.19,-37.03 177.38,-27.65"/>
<polygon fill="midnightblue" stroke="midnightblue" points="179.88,-25.19 170.79,-19.75 174.51,-29.67 179.88,-25.19"/>
</g>
<!-- Node7 -->
<g id="node7" class="node">
<title>Node7</title>
<g id="a_node7"><a xlink:title=" ">
<polygon fill="white" stroke="#bfbfbf" points="205,-0.5 205,-19.5 246,-19.5 246,-0.5 205,-0.5"/>
<text text-anchor="middle" x="225.5" y="-7.5" font-family="Arial" font-size="10.00">string</text>
</a>
</g>
</g>
<!-- Node5&#45;&gt;Node7 -->
<g id="edge6" class="edge">
<title>Node5&#45;&gt;Node7</title>
<path fill="none" stroke="midnightblue" d="M211.31,-56.08C213.58,-48.85 216.87,-38.41 219.71,-29.4"/>
<polygon fill="midnightblue" stroke="midnightblue" points="223.08,-30.34 222.75,-19.75 216.4,-28.24 223.08,-30.34"/>
</g>
<!-- Node8 -->
<g id="node8" class="node">
<title>Node8</title>
<g id="a_node8"><a xlink:title=" ">
<polygon fill="white" stroke="#bfbfbf" points="264.5,-0.5 264.5,-19.5 308.5,-19.5 308.5,-0.5 264.5,-0.5"/>
<text text-anchor="middle" x="286.5" y="-7.5" font-family="Arial" font-size="10.00">vector</text>
</a>
</g>
</g>
<!-- Node5&#45;&gt;Node8 -->
<g id="edge7" class="edge">
<title>Node5&#45;&gt;Node8</title>
<path fill="none" stroke="midnightblue" d="M221.03,-56.32C233.09,-47.98 251.53,-35.21 265.77,-25.35"/>
<polygon fill="midnightblue" stroke="midnightblue" points="267.77,-28.22 274,-19.65 263.78,-22.47 267.77,-28.22"/>
</g>
</g>
</svg>
