<?xml version="1.0" encoding="UTF-8" standalone="no"?>
<!DOCTYPE svg PUBLIC "-//W3C//DTD SVG 1.1//EN"
 "http://www.w3.org/Graphics/SVG/1.1/DTD/svg11.dtd">
<!-- Generated by graphviz version 2.43.0 (0)
 -->
<!-- Title: include/miral/miral/display_configuration.h Pages: 1 -->
<svg width="194pt" height="95pt"
 viewBox="0.00 0.00 193.50 95.00" xmlns="http://www.w3.org/2000/svg" xmlns:xlink="http://www.w3.org/1999/xlink">
<g id="graph0" class="graph" transform="scale(1 1) rotate(0) translate(4 91)">
<title>include/miral/miral/display_configuration.h</title>
<polygon fill="white" stroke="transparent" points="-4,4 -4,-91 189.5,-91 189.5,4 -4,4"/>
<!-- Node1 -->
<g id="node1" class="node">
<title>Node1</title>
<g id="a_node1"><a xlink:title=" ">
<polygon fill="#bfbfbf" stroke="black" points="31.5,-56.5 31.5,-86.5 164.5,-86.5 164.5,-56.5 31.5,-56.5"/>
<text text-anchor="start" x="39.5" y="-74.5" font-family="Arial" font-size="10.00">include/miral/miral</text>
<text text-anchor="middle" x="98" y="-63.5" font-family="Arial" font-size="10.00">/display_configuration.h</text>
</a>
</g>
</g>
<!-- Node2 -->
<g id="node2" class="node">
<title>Node2</title>
<g id="a_node2"><a xlink:title=" ">
<polygon fill="white" stroke="#bfbfbf" points="0,-0.5 0,-19.5 58,-19.5 58,-0.5 0,-0.5"/>
<text text-anchor="middle" x="29" y="-7.5" font-family="Arial" font-size="10.00">memory</text>
</a>
</g>
</g>
<!-- Node1&#45;&gt;Node2 -->
<g id="edge1" class="edge">
<title>Node1&#45;&gt;Node2</title>
<path fill="none" stroke="midnightblue" d="M81.65,-56.4C71.1,-47.31 57.4,-35.49 46.62,-26.19"/>
<polygon fill="midnightblue" stroke="midnightblue" points="48.9,-23.54 39.04,-19.66 44.33,-28.84 48.9,-23.54"/>
</g>
<!-- Node3 -->
<g id="node3" class="node">
<title>Node3</title>
<g id="a_node3"><a xlink:title=" ">
<polygon fill="white" stroke="#bfbfbf" points="76,-0.5 76,-19.5 120,-19.5 120,-0.5 76,-0.5"/>
<text text-anchor="middle" x="98" y="-7.5" font-family="Arial" font-size="10.00">string</text>
</a>
</g>
</g>
<!-- Node1&#45;&gt;Node3 -->
<g id="edge2" class="edge">
<title>Node1&#45;&gt;Node3</title>
<path fill="none" stroke="midnightblue" d="M98,-56.4C98,-48.47 98,-38.46 98,-29.86"/>
<polygon fill="midnightblue" stroke="midnightblue" points="101.5,-29.66 98,-19.66 94.5,-29.66 101.5,-29.66"/>
</g>
<!-- Node4 -->
<g id="node4" class="node">
<title>Node4</title>
<g id="a_node4"><a xlink:title=" ">
<polygon fill="white" stroke="#bfbfbf" points="138.5,-0.5 138.5,-19.5 185.5,-19.5 185.5,-0.5 138.5,-0.5"/>
<text text-anchor="middle" x="162" y="-7.5" font-family="Arial" font-size="10.00">vector</text>
</a>
</g>
</g>
<!-- Node1&#45;&gt;Node4 -->
<g id="edge3" class="edge">
<title>Node1&#45;&gt;Node4</title>
<path fill="none" stroke="midnightblue" d="M113.17,-56.4C122.75,-47.49 135.16,-35.95 145.07,-26.74"/>
<polygon fill="midnightblue" stroke="midnightblue" points="147.75,-29.03 152.69,-19.66 142.98,-23.9 147.75,-29.03"/>
</g>
</g>
</svg>
