<?xml version="1.0" encoding="UTF-8" standalone="no"?>
<!DOCTYPE svg PUBLIC "-//W3C//DTD SVG 1.1//EN"
 "http://www.w3.org/Graphics/SVG/1.1/DTD/svg11.dtd">
<!-- Generated by graphviz version 2.43.0 (0)
 -->
<!-- Title: examples/miral&#45;shell/spinner/eglapp.cpp Pages: 1 -->
<svg width="574pt" height="319pt"
 viewBox="0.00 0.00 573.50 319.00" xmlns="http://www.w3.org/2000/svg" xmlns:xlink="http://www.w3.org/1999/xlink">
<g id="graph0" class="graph" transform="scale(1 1) rotate(0) translate(4 315)">
<title>examples/miral&#45;shell/spinner/eglapp.cpp</title>
<polygon fill="white" stroke="transparent" points="-4,4 -4,-315 569.5,-315 569.5,4 -4,4"/>
<!-- Node1 -->
<g id="node1" class="node">
<title>Node1</title>
<g id="a_node1"><a xlink:title=" ">
<polygon fill="#bfbfbf" stroke="black" points="47,-280.5 47,-310.5 167,-310.5 167,-280.5 47,-280.5"/>
<text text-anchor="start" x="55" y="-298.5" font-family="Arial" font-size="10.00">examples/miral&#45;shell</text>
<text text-anchor="middle" x="107" y="-287.5" font-family="Arial" font-size="10.00">/spinner/eglapp.cpp</text>
</a>
</g>
</g>
<!-- Node2 -->
<g id="node2" class="node">
<title>Node2</title>
<g id="a_node2"><a xlink:href="eglapp_8h.html" target="_top" xlink:title=" ">
<polygon fill="white" stroke="black" points="39.5,-224.5 39.5,-243.5 98.5,-243.5 98.5,-224.5 39.5,-224.5"/>
<text text-anchor="middle" x="69" y="-231.5" font-family="Arial" font-size="10.00">eglapp.h</text>
</a>
</g>
</g>
<!-- Node1&#45;&gt;Node2 -->
<g id="edge1" class="edge">
<title>Node1&#45;&gt;Node2</title>
<path fill="none" stroke="midnightblue" d="M97.99,-280.4C92.59,-271.93 85.67,-261.1 79.95,-252.14"/>
<polygon fill="midnightblue" stroke="midnightblue" points="82.86,-250.2 74.53,-243.66 76.96,-253.97 82.86,-250.2"/>
</g>
<!-- Node5 -->
<g id="node5" class="node">
<title>Node5</title>
<g id="a_node5"><a xlink:href="miregl_8h.html" target="_top" xlink:title=" ">
<polygon fill="white" stroke="black" points="116.5,-224.5 116.5,-243.5 173.5,-243.5 173.5,-224.5 116.5,-224.5"/>
<text text-anchor="middle" x="145" y="-231.5" font-family="Arial" font-size="10.00">miregl.h</text>
</a>
</g>
</g>
<!-- Node1&#45;&gt;Node5 -->
<g id="edge4" class="edge">
<title>Node1&#45;&gt;Node5</title>
<path fill="none" stroke="midnightblue" d="M116.01,-280.4C121.41,-271.93 128.33,-261.1 134.05,-252.14"/>
<polygon fill="midnightblue" stroke="midnightblue" points="137.04,-253.97 139.47,-243.66 131.14,-250.2 137.04,-253.97"/>
</g>
<!-- Node3 -->
<g id="node3" class="node">
<title>Node3</title>
<g id="a_node3"><a xlink:title=" ">
<polygon fill="white" stroke="#bfbfbf" points="0,-56.5 0,-75.5 58,-75.5 58,-56.5 0,-56.5"/>
<text text-anchor="middle" x="29" y="-63.5" font-family="Arial" font-size="10.00">memory</text>
</a>
</g>
</g>
<!-- Node2&#45;&gt;Node3 -->
<g id="edge2" class="edge">
<title>Node2&#45;&gt;Node3</title>
<path fill="none" stroke="midnightblue" d="M64.05,-224.33C59.22,-215.47 52.03,-201.19 48,-188 37.28,-152.87 32.38,-110.06 30.32,-85.93"/>
<polygon fill="midnightblue" stroke="midnightblue" points="33.79,-85.39 29.53,-75.69 26.81,-85.94 33.79,-85.39"/>
</g>
<!-- Node4 -->
<g id="node4" class="node">
<title>Node4</title>
<g id="a_node4"><a xlink:title=" ">
<polygon fill="white" stroke="#bfbfbf" points="57.5,-168.5 57.5,-187.5 104.5,-187.5 104.5,-168.5 57.5,-168.5"/>
<text text-anchor="middle" x="81" y="-175.5" font-family="Arial" font-size="10.00">vector</text>
</a>
</g>
</g>
<!-- Node2&#45;&gt;Node4 -->
<g id="edge3" class="edge">
<title>Node2&#45;&gt;Node4</title>
<path fill="none" stroke="midnightblue" d="M70.98,-224.08C72.57,-216.93 74.86,-206.64 76.85,-197.69"/>
<polygon fill="midnightblue" stroke="midnightblue" points="80.3,-198.27 79.06,-187.75 73.47,-196.75 80.3,-198.27"/>
</g>
<!-- Node5&#45;&gt;Node3 -->
<g id="edge22" class="edge">
<title>Node5&#45;&gt;Node3</title>
<path fill="none" stroke="midnightblue" d="M141.47,-224.24C136.14,-211.41 125.32,-186.99 113,-168 92.03,-135.69 62.18,-102.06 44.28,-82.91"/>
<polygon fill="midnightblue" stroke="midnightblue" points="46.82,-80.49 37.4,-75.63 41.73,-85.3 46.82,-80.49"/>
</g>
<!-- Node5&#45;&gt;Node4 -->
<g id="edge23" class="edge">
<title>Node5&#45;&gt;Node4</title>
<path fill="none" stroke="midnightblue" d="M134.72,-224.32C125.16,-216.26 110.72,-204.08 99.22,-194.37"/>
<polygon fill="midnightblue" stroke="midnightblue" points="101.37,-191.61 91.47,-187.83 96.86,-196.96 101.37,-191.61"/>
</g>
<!-- Node6 -->
<g id="node6" class="node">
<title>Node6</title>
<g id="a_node6"><a xlink:href="wayland__surface_8h.html" target="_top" xlink:title=" ">
<polygon fill="white" stroke="black" points="161,-168.5 161,-187.5 269,-187.5 269,-168.5 161,-168.5"/>
<text text-anchor="middle" x="215" y="-175.5" font-family="Arial" font-size="10.00">wayland_surface.h</text>
</a>
</g>
</g>
<!-- Node5&#45;&gt;Node6 -->
<g id="edge5" class="edge">
<title>Node5&#45;&gt;Node6</title>
<path fill="none" stroke="midnightblue" d="M156.25,-224.32C166.8,-216.18 182.8,-203.84 195.44,-194.09"/>
<polygon fill="midnightblue" stroke="midnightblue" points="197.77,-196.71 203.55,-187.83 193.49,-191.17 197.77,-196.71"/>
</g>
<!-- Node18 -->
<g id="node18" class="node">
<title>Node18</title>
<g id="a_node18"><a xlink:title=" ">
<polygon fill="white" stroke="#bfbfbf" points="287,-168.5 287,-187.5 349,-187.5 349,-168.5 287,-168.5"/>
<text text-anchor="middle" x="318" y="-175.5" font-family="Arial" font-size="10.00">EGL/egl.h</text>
</a>
</g>
</g>
<!-- Node5&#45;&gt;Node18 -->
<g id="edge21" class="edge">
<title>Node5&#45;&gt;Node18</title>
<path fill="none" stroke="midnightblue" d="M172.41,-224.44C201.77,-215.28 248.52,-200.69 281.1,-190.52"/>
<polygon fill="midnightblue" stroke="midnightblue" points="282.21,-193.84 290.72,-187.52 280.13,-187.16 282.21,-193.84"/>
</g>
<!-- Node7 -->
<g id="node7" class="node">
<title>Node7</title>
<g id="a_node7"><a xlink:href="wayland__app_8h.html" target="_top" xlink:title=" ">
<polygon fill="white" stroke="black" points="168,-112.5 168,-131.5 258,-131.5 258,-112.5 168,-112.5"/>
<text text-anchor="middle" x="213" y="-119.5" font-family="Arial" font-size="10.00">wayland_app.h</text>
</a>
</g>
</g>
<!-- Node6&#45;&gt;Node7 -->
<g id="edge6" class="edge">
<title>Node6&#45;&gt;Node7</title>
<path fill="none" stroke="midnightblue" d="M214.67,-168.08C214.41,-161.01 214.03,-150.86 213.7,-141.99"/>
<polygon fill="midnightblue" stroke="midnightblue" points="217.19,-141.61 213.32,-131.75 210.2,-141.87 217.19,-141.61"/>
</g>
<!-- Node10 -->
<g id="node10" class="node">
<title>Node10</title>
<g id="a_node10"><a xlink:title=" ">
<polygon fill="white" stroke="#bfbfbf" points="286.5,-56.5 286.5,-75.5 351.5,-75.5 351.5,-56.5 286.5,-56.5"/>
<text text-anchor="middle" x="319" y="-63.5" font-family="Arial" font-size="10.00">functional</text>
</a>
</g>
</g>
<!-- Node6&#45;&gt;Node10 -->
<g id="edge20" class="edge">
<title>Node6&#45;&gt;Node10</title>
<path fill="none" stroke="midnightblue" d="M226.28,-168.24C237.18,-159.55 253.92,-145.59 267,-132 281.65,-116.77 296.54,-97.73 306.6,-84.2"/>
<polygon fill="midnightblue" stroke="midnightblue" points="309.65,-85.96 312.74,-75.83 304,-81.82 309.65,-85.96"/>
</g>
<!-- Node12 -->
<g id="node12" class="node">
<title>Node12</title>
<g id="a_node12"><a xlink:href="size_8h.html" target="_top" xlink:title=" ">
<polygon fill="white" stroke="black" points="337.5,-112.5 337.5,-131.5 452.5,-131.5 452.5,-112.5 337.5,-112.5"/>
<text text-anchor="middle" x="395" y="-119.5" font-family="Arial" font-size="10.00">mir/geometry/size.h</text>
</a>
</g>
</g>
<!-- Node6&#45;&gt;Node12 -->
<g id="edge12" class="edge">
<title>Node6&#45;&gt;Node12</title>
<path fill="none" stroke="midnightblue" d="M243.52,-168.44C274.07,-159.28 322.71,-144.69 356.6,-134.52"/>
<polygon fill="midnightblue" stroke="midnightblue" points="358.04,-137.74 366.61,-131.52 356.03,-131.04 358.04,-137.74"/>
</g>
<!-- Node7&#45;&gt;Node3 -->
<g id="edge8" class="edge">
<title>Node7&#45;&gt;Node3</title>
<path fill="none" stroke="midnightblue" d="M183.84,-112.44C152.49,-103.24 102.47,-88.56 67.8,-78.39"/>
<polygon fill="midnightblue" stroke="midnightblue" points="68.6,-74.97 58.02,-75.52 66.63,-81.69 68.6,-74.97"/>
</g>
<!-- Node8 -->
<g id="node8" class="node">
<title>Node8</title>
<g id="a_node8"><a xlink:title=" ">
<polygon fill="white" stroke="#bfbfbf" points="76,-56.5 76,-75.5 174,-75.5 174,-56.5 76,-56.5"/>
<text text-anchor="middle" x="125" y="-63.5" font-family="Arial" font-size="10.00">wayland&#45;client.h</text>
</a>
</g>
</g>
<!-- Node7&#45;&gt;Node8 -->
<g id="edge7" class="edge">
<title>Node7&#45;&gt;Node8</title>
<path fill="none" stroke="midnightblue" d="M198.86,-112.32C185.13,-103.9 164.06,-90.97 147.94,-81.07"/>
<polygon fill="midnightblue" stroke="midnightblue" points="149.46,-77.9 139.1,-75.65 145.8,-83.87 149.46,-77.9"/>
</g>
<!-- Node9 -->
<g id="node9" class="node">
<title>Node9</title>
<g id="a_node9"><a xlink:title=" ">
<polygon fill="white" stroke="#bfbfbf" points="192,-56.5 192,-75.5 230,-75.5 230,-56.5 192,-56.5"/>
<text text-anchor="middle" x="211" y="-63.5" font-family="Arial" font-size="10.00">map</text>
</a>
</g>
</g>
<!-- Node7&#45;&gt;Node9 -->
<g id="edge9" class="edge">
<title>Node7&#45;&gt;Node9</title>
<path fill="none" stroke="midnightblue" d="M212.67,-112.08C212.41,-105.01 212.03,-94.86 211.7,-85.99"/>
<polygon fill="midnightblue" stroke="midnightblue" points="215.19,-85.61 211.32,-75.75 208.2,-85.87 215.19,-85.61"/>
</g>
<!-- Node7&#45;&gt;Node10 -->
<g id="edge10" class="edge">
<title>Node7&#45;&gt;Node10</title>
<path fill="none" stroke="midnightblue" d="M230.03,-112.32C247.03,-103.66 273.38,-90.24 292.99,-80.25"/>
<polygon fill="midnightblue" stroke="midnightblue" points="294.69,-83.31 302.01,-75.65 291.51,-77.08 294.69,-83.31"/>
</g>
<!-- Node11 -->
<g id="node11" class="node">
<title>Node11</title>
<g id="a_node11"><a xlink:title=" ">
<polygon fill="white" stroke="#bfbfbf" points="256,-0.5 256,-19.5 306,-19.5 306,-0.5 256,-0.5"/>
<text text-anchor="middle" x="281" y="-7.5" font-family="Arial" font-size="10.00">cstdint</text>
</a>
</g>
</g>
<!-- Node7&#45;&gt;Node11 -->
<g id="edge11" class="edge">
<title>Node7&#45;&gt;Node11</title>
<path fill="none" stroke="midnightblue" d="M218.34,-112.37C229.51,-94.3 255.55,-52.18 270.3,-28.31"/>
<polygon fill="midnightblue" stroke="midnightblue" points="273.41,-29.94 275.69,-19.59 267.45,-26.26 273.41,-29.94"/>
</g>
<!-- Node13 -->
<g id="node13" class="node">
<title>Node13</title>
<g id="a_node13"><a xlink:href="forward_8h.html" target="_top" xlink:title=" ">
<polygon fill="white" stroke="black" points="345.5,-0.5 345.5,-19.5 408.5,-19.5 408.5,-0.5 345.5,-0.5"/>
<text text-anchor="middle" x="377" y="-7.5" font-family="Arial" font-size="10.00">forward.h</text>
</a>
</g>
</g>
<!-- Node12&#45;&gt;Node13 -->
<g id="edge13" class="edge">
<title>Node12&#45;&gt;Node13</title>
<path fill="none" stroke="midnightblue" d="M393.59,-112.37C390.68,-94.62 383.98,-53.67 380.04,-29.6"/>
<polygon fill="midnightblue" stroke="midnightblue" points="383.47,-28.89 378.41,-19.59 376.57,-30.03 383.47,-28.89"/>
</g>
<!-- Node14 -->
<g id="node14" class="node">
<title>Node14</title>
<g id="a_node14"><a xlink:href="dimensions_8h.html" target="_top" xlink:title=" ">
<polygon fill="white" stroke="black" points="408,-56.5 408,-75.5 490,-75.5 490,-56.5 408,-56.5"/>
<text text-anchor="middle" x="449" y="-63.5" font-family="Arial" font-size="10.00">dimensions.h</text>
</a>
</g>
</g>
<!-- Node12&#45;&gt;Node14 -->
<g id="edge14" class="edge">
<title>Node12&#45;&gt;Node14</title>
<path fill="none" stroke="midnightblue" d="M403.92,-112.08C411.78,-104.22 423.43,-92.57 432.92,-83.08"/>
<polygon fill="midnightblue" stroke="midnightblue" points="435.65,-85.3 440.25,-75.75 430.7,-80.35 435.65,-85.3"/>
</g>
<!-- Node17 -->
<g id="node17" class="node">
<title>Node17</title>
<g id="a_node17"><a xlink:title=" ">
<polygon fill="white" stroke="#bfbfbf" points="508.5,-56.5 508.5,-75.5 565.5,-75.5 565.5,-56.5 508.5,-56.5"/>
<text text-anchor="middle" x="537" y="-63.5" font-family="Arial" font-size="10.00">ostream</text>
</a>
</g>
</g>
<!-- Node12&#45;&gt;Node17 -->
<g id="edge19" class="edge">
<title>Node12&#45;&gt;Node17</title>
<path fill="none" stroke="midnightblue" d="M417.5,-112.44C441.08,-103.48 478.32,-89.31 504.96,-79.18"/>
<polygon fill="midnightblue" stroke="midnightblue" points="506.5,-82.34 514.6,-75.52 504.01,-75.8 506.5,-82.34"/>
</g>
<!-- Node14&#45;&gt;Node11 -->
<g id="edge18" class="edge">
<title>Node14&#45;&gt;Node11</title>
<path fill="none" stroke="midnightblue" d="M422.38,-56.44C393.58,-47.19 347.53,-32.39 315.86,-22.21"/>
<polygon fill="midnightblue" stroke="midnightblue" points="316.71,-18.8 306.12,-19.08 314.57,-25.47 316.71,-18.8"/>
</g>
<!-- Node14&#45;&gt;Node13 -->
<g id="edge15" class="edge">
<title>Node14&#45;&gt;Node13</title>
<path fill="none" stroke="midnightblue" d="M437.43,-56.32C426.58,-48.18 410.12,-35.84 397.12,-26.09"/>
<polygon fill="midnightblue" stroke="midnightblue" points="398.88,-23.03 388.78,-19.83 394.68,-28.63 398.88,-23.03"/>
</g>
<!-- Node15 -->
<g id="node15" class="node">
<title>Node15</title>
<g id="a_node15"><a xlink:title=" ">
<polygon fill="white" stroke="#bfbfbf" points="427,-0.5 427,-19.5 475,-19.5 475,-0.5 427,-0.5"/>
<text text-anchor="middle" x="451" y="-7.5" font-family="Arial" font-size="10.00">iosfwd</text>
</a>
</g>
</g>
<!-- Node14&#45;&gt;Node15 -->
<g id="edge16" class="edge">
<title>Node14&#45;&gt;Node15</title>
<path fill="none" stroke="midnightblue" d="M449.33,-56.08C449.59,-49.01 449.97,-38.86 450.3,-29.99"/>
<polygon fill="midnightblue" stroke="midnightblue" points="453.8,-29.87 450.68,-19.75 446.81,-29.61 453.8,-29.87"/>
</g>
<!-- Node16 -->
<g id="node16" class="node">
<title>Node16</title>
<g id="a_node16"><a xlink:title=" ">
<polygon fill="white" stroke="#bfbfbf" points="493.5,-0.5 493.5,-19.5 562.5,-19.5 562.5,-0.5 493.5,-0.5"/>
<text text-anchor="middle" x="528" y="-7.5" font-family="Arial" font-size="10.00">type_traits</text>
</a>
</g>
</g>
<!-- Node14&#45;&gt;Node16 -->
<g id="edge17" class="edge">
<title>Node14&#45;&gt;Node16</title>
<path fill="none" stroke="midnightblue" d="M461.69,-56.32C473.9,-47.98 492.58,-35.21 507,-25.35"/>
<polygon fill="midnightblue" stroke="midnightblue" points="509.06,-28.19 515.34,-19.65 505.11,-22.41 509.06,-28.19"/>
</g>
</g>
</svg>
