<?xml version="1.0" encoding="UTF-8" standalone="no"?>
<!DOCTYPE svg PUBLIC "-//W3C//DTD SVG 1.1//EN"
 "http://www.w3.org/Graphics/SVG/1.1/DTD/svg11.dtd">
<!-- Generated by graphviz version 2.38.0 (20140413.2041)
 -->
<!-- Title: examples/miral&#45;shell/spinner/eglapp.h Pages: 1 -->
<svg width="1964pt" height="374pt"
 viewBox="0.00 0.00 1964.27 374.00" xmlns="http://www.w3.org/2000/svg" xmlns:xlink="http://www.w3.org/1999/xlink">
<g id="graph0" class="graph" transform="scale(1 1) rotate(0) translate(4 370)">
<title>examples/miral&#45;shell/spinner/eglapp.h</title>
<polygon fill="white" stroke="none" points="-4,4 -4,-370 1960.27,-370 1960.27,4 -4,4"/>
<!-- Node0 -->
<g id="node1" class="node"><title>Node0</title>
<polygon fill="#bfbfbf" stroke="black" points="131.274,-335.5 131.274,-365.5 237.274,-365.5 237.274,-335.5 131.274,-335.5"/>
<text text-anchor="start" x="139.274" y="-353.5" font-family="Arial" font-size="10.00">examples/miral&#45;shell</text>
<text text-anchor="middle" x="184.274" y="-342.5" font-family="Arial" font-size="10.00">/spinner/eglapp.h</text>
</g>
<!-- Node1 -->
<g id="node2" class="node"><title>Node1</title>
<g id="a_node2"><a xlink:href="client__types_8h.html" target="_top" xlink:title="mir_toolkit/client\l_types.h">
<polygon fill="white" stroke="black" points="52.2742,-268.5 52.2742,-298.5 140.274,-298.5 140.274,-268.5 52.2742,-268.5"/>
<text text-anchor="start" x="60.2742" y="-286.5" font-family="Arial" font-size="10.00">mir_toolkit/client</text>
<text text-anchor="middle" x="96.2742" y="-275.5" font-family="Arial" font-size="10.00">_types.h</text>
</a>
</g>
</g>
<!-- Node0&#45;&gt;Node1 -->
<g id="edge1" class="edge"><title>Node0&#45;&gt;Node1</title>
<path fill="none" stroke="midnightblue" d="M165.18,-335.396C152.956,-326.367 136.909,-314.514 123.376,-304.518"/>
<polygon fill="midnightblue" stroke="midnightblue" points="125.455,-301.703 115.332,-298.577 121.296,-307.333 125.455,-301.703"/>
</g>
<!-- Node24 -->
<g id="node25" class="node"><title>Node24</title>
<polygon fill="white" stroke="#bfbfbf" points="158.274,-274 158.274,-293 210.274,-293 210.274,-274 158.274,-274"/>
<text text-anchor="middle" x="184.274" y="-281" font-family="Arial" font-size="10.00">memory</text>
</g>
<!-- Node0&#45;&gt;Node24 -->
<g id="edge46" class="edge"><title>Node0&#45;&gt;Node24</title>
<path fill="none" stroke="midnightblue" d="M184.274,-335.396C184.274,-326.064 184.274,-313.714 184.274,-303.517"/>
<polygon fill="midnightblue" stroke="midnightblue" points="187.774,-303.195 184.274,-293.195 180.774,-303.195 187.774,-303.195"/>
</g>
<!-- Node25 -->
<g id="node26" class="node"><title>Node25</title>
<polygon fill="white" stroke="#bfbfbf" points="228.274,-274 228.274,-293 270.274,-293 270.274,-274 228.274,-274"/>
<text text-anchor="middle" x="249.274" y="-281" font-family="Arial" font-size="10.00">vector</text>
</g>
<!-- Node0&#45;&gt;Node25 -->
<g id="edge47" class="edge"><title>Node0&#45;&gt;Node25</title>
<path fill="none" stroke="midnightblue" d="M198.378,-335.396C208.714,-325.06 222.751,-311.024 233.465,-300.309"/>
<polygon fill="midnightblue" stroke="midnightblue" points="235.983,-302.741 240.58,-293.195 231.034,-297.791 235.983,-302.741"/>
</g>
<!-- Node2 -->
<g id="node3" class="node"><title>Node2</title>
<g id="a_node3"><a xlink:href="toolkit_2events_2event_8h.html" target="_top" xlink:title="mir_toolkit/events\l/event.h">
<polygon fill="white" stroke="black" points="734.274,-201.5 734.274,-231.5 826.274,-231.5 826.274,-201.5 734.274,-201.5"/>
<text text-anchor="start" x="742.274" y="-219.5" font-family="Arial" font-size="10.00">mir_toolkit/events</text>
<text text-anchor="middle" x="780.274" y="-208.5" font-family="Arial" font-size="10.00">/event.h</text>
</a>
</g>
</g>
<!-- Node1&#45;&gt;Node2 -->
<g id="edge2" class="edge"><title>Node1&#45;&gt;Node2</title>
<path fill="none" stroke="midnightblue" d="M140.381,-269.769C143.377,-269.11 146.361,-268.51 149.274,-268 359.008,-231.251 612.711,-221.202 723.692,-218.487"/>
<polygon fill="midnightblue" stroke="midnightblue" points="724.065,-221.979 733.981,-218.247 723.902,-214.981 724.065,-221.979"/>
</g>
<!-- Node3 -->
<g id="node4" class="node"><title>Node3</title>
<polygon fill="white" stroke="#bfbfbf" points="21.7742,-134.5 21.7742,-153.5 72.7742,-153.5 72.7742,-134.5 21.7742,-134.5"/>
<text text-anchor="middle" x="47.2742" y="-141.5" font-family="Arial" font-size="10.00">stddef.h</text>
</g>
<!-- Node1&#45;&gt;Node3 -->
<g id="edge45" class="edge"><title>Node1&#45;&gt;Node3</title>
<path fill="none" stroke="midnightblue" d="M91.2149,-268.303C82.2781,-243.225 63.7096,-191.12 53.8142,-163.352"/>
<polygon fill="midnightblue" stroke="midnightblue" points="57.0287,-161.945 50.3748,-153.701 50.4348,-164.295 57.0287,-161.945"/>
</g>
<!-- Node5 -->
<g id="node6" class="node"><title>Node5</title>
<g id="a_node6"><a xlink:href="common_8h.html" target="_top" xlink:title="mir_toolkit/common.h">
<polygon fill="white" stroke="black" points="91.2742,-134.5 91.2742,-153.5 201.274,-153.5 201.274,-134.5 91.2742,-134.5"/>
<text text-anchor="middle" x="146.274" y="-141.5" font-family="Arial" font-size="10.00">mir_toolkit/common.h</text>
</a>
</g>
</g>
<!-- Node1&#45;&gt;Node5 -->
<g id="edge43" class="edge"><title>Node1&#45;&gt;Node5</title>
<path fill="none" stroke="midnightblue" d="M101.437,-268.303C110.556,-243.225 129.503,-191.12 139.601,-163.352"/>
<polygon fill="midnightblue" stroke="midnightblue" points="142.982,-164.295 143.11,-153.701 136.404,-161.902 142.982,-164.295"/>
</g>
<!-- Node6 -->
<g id="node7" class="node"><title>Node6</title>
<g id="a_node7"><a xlink:href="deprecations_8h.html" target="_top" xlink:title="mir_toolkit/deprecations.h">
<polygon fill="white" stroke="black" points="270.274,-62 270.274,-81 398.274,-81 398.274,-62 270.274,-62"/>
<text text-anchor="middle" x="334.274" y="-69" font-family="Arial" font-size="10.00">mir_toolkit/deprecations.h</text>
</a>
</g>
</g>
<!-- Node1&#45;&gt;Node6 -->
<g id="edge44" class="edge"><title>Node1&#45;&gt;Node6</title>
<path fill="none" stroke="midnightblue" d="M78.5595,-268.455C43.5445,-239.048 -27.8022,-169.852 12.2742,-123 43.5108,-86.4827 175.037,-76.1919 260.026,-73.4013"/>
<polygon fill="midnightblue" stroke="midnightblue" points="260.26,-76.8959 270.15,-73.0969 260.049,-69.8991 260.26,-76.8959"/>
</g>
<!-- Node2&#45;&gt;Node3 -->
<g id="edge3" class="edge"><title>Node2&#45;&gt;Node3</title>
<path fill="none" stroke="midnightblue" d="M734.039,-214.821C598.624,-212.414 204.746,-202.307 82.2742,-165 77.4247,-163.523 72.5173,-161.28 67.9731,-158.824"/>
<polygon fill="midnightblue" stroke="midnightblue" points="69.6739,-155.763 59.2903,-153.658 66.0946,-161.779 69.6739,-155.763"/>
</g>
<!-- Node4 -->
<g id="node5" class="node"><title>Node4</title>
<polygon fill="white" stroke="#bfbfbf" points="1365.77,-0.5 1365.77,-19.5 1414.77,-19.5 1414.77,-0.5 1365.77,-0.5"/>
<text text-anchor="middle" x="1390.27" y="-7.5" font-family="Arial" font-size="10.00">stdint.h</text>
</g>
<!-- Node2&#45;&gt;Node4 -->
<g id="edge4" class="edge"><title>Node2&#45;&gt;Node4</title>
<path fill="none" stroke="midnightblue" d="M826.625,-214.925C956.697,-212.834 1317.95,-203.574 1353.27,-165 1365.88,-151.233 1358.68,-140.866 1353.27,-123 1347.7,-104.595 1334.85,-105.405 1329.27,-87 1325.28,-73.8134 1323.06,-68.2987 1329.27,-56 1336.08,-42.5199 1349.04,-32.083 1361.27,-24.6696"/>
<polygon fill="midnightblue" stroke="midnightblue" points="1363.34,-27.5214 1370.37,-19.5896 1359.93,-21.4099 1363.34,-27.5214"/>
</g>
<!-- Node2&#45;&gt;Node5 -->
<g id="edge5" class="edge"><title>Node2&#45;&gt;Node5</title>
<path fill="none" stroke="midnightblue" d="M733.993,-214.751C636.306,-212.44 402.253,-203.042 210.274,-165 199.912,-162.947 188.853,-159.836 178.895,-156.675"/>
<polygon fill="midnightblue" stroke="midnightblue" points="179.963,-153.342 169.369,-153.535 177.771,-159.99 179.963,-153.342"/>
</g>
<!-- Node2&#45;&gt;Node6 -->
<g id="edge7" class="edge"><title>Node2&#45;&gt;Node6</title>
<path fill="none" stroke="midnightblue" d="M734.271,-215.726C677.157,-214.135 578.357,-205.117 505.274,-165 482.944,-152.742 487.386,-137.255 466.274,-123 439.588,-104.981 405.573,-92.1648 378.757,-83.953"/>
<polygon fill="midnightblue" stroke="midnightblue" points="379.444,-80.5064 368.862,-81.0298 377.461,-87.2196 379.444,-80.5064"/>
</g>
<!-- Node7 -->
<g id="node8" class="node"><title>Node7</title>
<g id="a_node8"><a xlink:href="input__event_8h.html" target="_top" xlink:title="mir_toolkit/events\l/input/input_event.h">
<polygon fill="white" stroke="black" points="1461.77,-129 1461.77,-159 1562.77,-159 1562.77,-129 1461.77,-129"/>
<text text-anchor="start" x="1469.77" y="-147" font-family="Arial" font-size="10.00">mir_toolkit/events</text>
<text text-anchor="middle" x="1512.27" y="-136" font-family="Arial" font-size="10.00">/input/input_event.h</text>
</a>
</g>
</g>
<!-- Node2&#45;&gt;Node7 -->
<g id="edge8" class="edge"><title>Node2&#45;&gt;Node7</title>
<path fill="none" stroke="midnightblue" d="M826.49,-212.521C927.009,-206.157 1172.37,-189.765 1377.27,-165 1401.5,-162.071 1428.22,-157.958 1451.51,-154.223"/>
<polygon fill="midnightblue" stroke="midnightblue" points="1452.29,-157.643 1461.61,-152.595 1451.18,-150.732 1452.29,-157.643"/>
</g>
<!-- Node14 -->
<g id="node15" class="node"><title>Node14</title>
<g id="a_node15"><a xlink:href="resize__event_8h.html" target="_top" xlink:title="mir_toolkit/events\l/resize_event.h">
<polygon fill="white" stroke="black" points="624.274,-129 624.274,-159 716.274,-159 716.274,-129 624.274,-129"/>
<text text-anchor="start" x="632.274" y="-147" font-family="Arial" font-size="10.00">mir_toolkit/events</text>
<text text-anchor="middle" x="670.274" y="-136" font-family="Arial" font-size="10.00">/resize_event.h</text>
</a>
</g>
</g>
<!-- Node2&#45;&gt;Node14 -->
<g id="edge19" class="edge"><title>Node2&#45;&gt;Node14</title>
<path fill="none" stroke="midnightblue" d="M752.752,-201.403C735.024,-190.932 712.316,-176.51 695.134,-164.87"/>
<polygon fill="midnightblue" stroke="midnightblue" points="696.931,-161.858 686.709,-159.073 692.963,-167.625 696.931,-161.858"/>
</g>
<!-- Node15 -->
<g id="node16" class="node"><title>Node15</title>
<g id="a_node16"><a xlink:href="surface__event_8h.html" target="_top" xlink:title="mir_toolkit/events\l/surface_event.h">
<polygon fill="white" stroke="black" points="514.274,-129 514.274,-159 606.274,-159 606.274,-129 514.274,-129"/>
<text text-anchor="start" x="522.274" y="-147" font-family="Arial" font-size="10.00">mir_toolkit/events</text>
<text text-anchor="middle" x="560.274" y="-136" font-family="Arial" font-size="10.00">/surface_event.h</text>
</a>
</g>
</g>
<!-- Node2&#45;&gt;Node15 -->
<g id="edge21" class="edge"><title>Node2&#45;&gt;Node15</title>
<path fill="none" stroke="midnightblue" d="M734.268,-204.226C698.87,-194.344 649.172,-179.354 606.274,-165 603.829,-164.182 601.329,-163.33 598.816,-162.458"/>
<polygon fill="midnightblue" stroke="midnightblue" points="599.754,-159.077 589.159,-159.03 597.412,-165.673 599.754,-159.077"/>
</g>
<!-- Node16 -->
<g id="node17" class="node"><title>Node16</title>
<g id="a_node17"><a xlink:href="window__event_8h.html" target="_top" xlink:title="mir_toolkit/events\l/window_event.h">
<polygon fill="white" stroke="black" points="734.274,-129 734.274,-159 826.274,-159 826.274,-129 734.274,-129"/>
<text text-anchor="start" x="742.274" y="-147" font-family="Arial" font-size="10.00">mir_toolkit/events</text>
<text text-anchor="middle" x="780.274" y="-136" font-family="Arial" font-size="10.00">/window_event.h</text>
</a>
</g>
</g>
<!-- Node2&#45;&gt;Node16 -->
<g id="edge24" class="edge"><title>Node2&#45;&gt;Node16</title>
<path fill="none" stroke="midnightblue" d="M774.726,-201.233C773.524,-192.06 773.224,-179.905 773.826,-169.244"/>
<polygon fill="midnightblue" stroke="midnightblue" points="777.315,-169.52 774.728,-159.246 770.343,-168.89 777.315,-169.52"/>
</g>
<!-- Node17 -->
<g id="node18" class="node"><title>Node17</title>
<g id="a_node18"><a xlink:href="orientation__event_8h.html" target="_top" xlink:title="mir_toolkit/events\l/orientation_event.h">
<polygon fill="white" stroke="black" points="844.774,-129 844.774,-159 945.774,-159 945.774,-129 844.774,-129"/>
<text text-anchor="start" x="852.774" y="-147" font-family="Arial" font-size="10.00">mir_toolkit/events</text>
<text text-anchor="middle" x="895.274" y="-136" font-family="Arial" font-size="10.00">/orientation_event.h</text>
</a>
</g>
</g>
<!-- Node2&#45;&gt;Node17 -->
<g id="edge26" class="edge"><title>Node2&#45;&gt;Node17</title>
<path fill="none" stroke="midnightblue" d="M797.744,-201.403C813.793,-190.692 837.827,-175.846 858.087,-164.074"/>
<polygon fill="midnightblue" stroke="midnightblue" points="859.867,-167.088 866.795,-159.073 856.381,-161.018 859.867,-167.088"/>
</g>
<!-- Node18 -->
<g id="node19" class="node"><title>Node18</title>
<g id="a_node19"><a xlink:href="prompt__session__event_8h.html" target="_top" xlink:title="mir_toolkit/events\l/prompt_session_event.h">
<polygon fill="white" stroke="black" points="963.774,-129 963.774,-159 1088.77,-159 1088.77,-129 963.774,-129"/>
<text text-anchor="start" x="971.774" y="-147" font-family="Arial" font-size="10.00">mir_toolkit/events</text>
<text text-anchor="middle" x="1026.27" y="-136" font-family="Arial" font-size="10.00">/prompt_session_event.h</text>
</a>
</g>
</g>
<!-- Node2&#45;&gt;Node18 -->
<g id="edge28" class="edge"><title>Node2&#45;&gt;Node18</title>
<path fill="none" stroke="midnightblue" d="M823.655,-201.487C861.99,-190.063 918.295,-173.895 961.868,-161.782"/>
<polygon fill="midnightblue" stroke="midnightblue" points="962.82,-165.15 971.523,-159.107 960.951,-158.404 962.82,-165.15"/>
</g>
<!-- Node19 -->
<g id="node20" class="node"><title>Node19</title>
<g id="a_node20"><a xlink:href="keymap__event_8h.html" target="_top" xlink:title="mir_toolkit/events\l/keymap_event.h">
<polygon fill="white" stroke="black" points="1581.27,-129 1581.27,-159 1673.27,-159 1673.27,-129 1581.27,-129"/>
<text text-anchor="start" x="1589.27" y="-147" font-family="Arial" font-size="10.00">mir_toolkit/events</text>
<text text-anchor="middle" x="1627.27" y="-136" font-family="Arial" font-size="10.00">/keymap_event.h</text>
</a>
</g>
</g>
<!-- Node2&#45;&gt;Node19 -->
<g id="edge30" class="edge"><title>Node2&#45;&gt;Node19</title>
<path fill="none" stroke="midnightblue" d="M826.378,-214.172C972.048,-209.877 1420.49,-194.87 1563.27,-165 1567.08,-164.204 1570.98,-163.198 1574.89,-162.064"/>
<polygon fill="midnightblue" stroke="midnightblue" points="1576.08,-165.359 1584.57,-159.025 1573.98,-158.68 1576.08,-165.359"/>
</g>
<!-- Node20 -->
<g id="node21" class="node"><title>Node20</title>
<g id="a_node21"><a xlink:href="input__configuration__event_8h.html" target="_top" xlink:title="mir_toolkit/events\l/input_configuration\l_event.h">
<polygon fill="white" stroke="black" points="219.774,-123.5 219.774,-164.5 320.774,-164.5 320.774,-123.5 219.774,-123.5"/>
<text text-anchor="start" x="227.774" y="-152.5" font-family="Arial" font-size="10.00">mir_toolkit/events</text>
<text text-anchor="start" x="227.774" y="-141.5" font-family="Arial" font-size="10.00">/input_configuration</text>
<text text-anchor="middle" x="270.274" y="-130.5" font-family="Arial" font-size="10.00">_event.h</text>
</a>
</g>
</g>
<!-- Node2&#45;&gt;Node20 -->
<g id="edge33" class="edge"><title>Node2&#45;&gt;Node20</title>
<path fill="none" stroke="midnightblue" d="M734.25,-213.867C652.48,-210.123 477.187,-198.676 328.567,-166.794"/>
<polygon fill="midnightblue" stroke="midnightblue" points="328.883,-163.281 318.366,-164.564 327.388,-170.119 328.883,-163.281"/>
</g>
<!-- Node21 -->
<g id="node22" class="node"><title>Node21</title>
<g id="a_node22"><a xlink:href="surface__output__event_8h.html" target="_top" xlink:title="mir_toolkit/events\l/surface_output_event.h">
<polygon fill="white" stroke="black" points="338.774,-129 338.774,-159 457.774,-159 457.774,-129 338.774,-129"/>
<text text-anchor="start" x="346.774" y="-147" font-family="Arial" font-size="10.00">mir_toolkit/events</text>
<text text-anchor="middle" x="398.274" y="-136" font-family="Arial" font-size="10.00">/surface_output_event.h</text>
</a>
</g>
</g>
<!-- Node2&#45;&gt;Node21 -->
<g id="edge36" class="edge"><title>Node2&#45;&gt;Node21</title>
<path fill="none" stroke="midnightblue" d="M734.029,-210.214C671.829,-202.176 558.468,-185.612 463.274,-165 458.486,-163.963 453.545,-162.811 448.62,-161.598"/>
<polygon fill="midnightblue" stroke="midnightblue" points="449.145,-158.12 438.59,-159.041 447.415,-164.903 449.145,-158.12"/>
</g>
<!-- Node22 -->
<g id="node23" class="node"><title>Node22</title>
<g id="a_node23"><a xlink:href="window__output__event_8h.html" target="_top" xlink:title="mir_toolkit/events\l/window_output_event.h">
<polygon fill="white" stroke="black" points="1106.77,-129 1106.77,-159 1225.77,-159 1225.77,-129 1106.77,-129"/>
<text text-anchor="start" x="1114.77" y="-147" font-family="Arial" font-size="10.00">mir_toolkit/events</text>
<text text-anchor="middle" x="1166.27" y="-136" font-family="Arial" font-size="10.00">/window_output_event.h</text>
</a>
</g>
</g>
<!-- Node2&#45;&gt;Node22 -->
<g id="edge39" class="edge"><title>Node2&#45;&gt;Node22</title>
<path fill="none" stroke="midnightblue" d="M826.343,-209.273C887.081,-201.268 996.708,-185.872 1089.27,-165 1093.65,-164.014 1098.15,-162.904 1102.69,-161.725"/>
<polygon fill="midnightblue" stroke="midnightblue" points="1103.88,-165.028 1112.63,-159.055 1102.07,-158.268 1103.88,-165.028"/>
</g>
<!-- Node23 -->
<g id="node24" class="node"><title>Node23</title>
<g id="a_node24"><a xlink:href="input__device__state__event_8h.html" target="_top" xlink:title="mir_toolkit/events\l/input_device_state\l_event.h">
<polygon fill="white" stroke="black" points="1244.27,-123.5 1244.27,-164.5 1344.27,-164.5 1344.27,-123.5 1244.27,-123.5"/>
<text text-anchor="start" x="1252.27" y="-152.5" font-family="Arial" font-size="10.00">mir_toolkit/events</text>
<text text-anchor="start" x="1252.27" y="-141.5" font-family="Arial" font-size="10.00">/input_device_state</text>
<text text-anchor="middle" x="1294.27" y="-130.5" font-family="Arial" font-size="10.00">_event.h</text>
</a>
</g>
</g>
<!-- Node2&#45;&gt;Node23 -->
<g id="edge41" class="edge"><title>Node2&#45;&gt;Node23</title>
<path fill="none" stroke="midnightblue" d="M826.469,-213.397C908.104,-209.132 1082.35,-196.984 1226.27,-165 1228.91,-164.415 1231.58,-163.755 1234.28,-163.039"/>
<polygon fill="midnightblue" stroke="midnightblue" points="1235.44,-166.347 1244.1,-160.241 1233.53,-159.615 1235.44,-166.347"/>
</g>
<!-- Node5&#45;&gt;Node6 -->
<g id="edge6" class="edge"><title>Node5&#45;&gt;Node6</title>
<path fill="none" stroke="midnightblue" d="M168.951,-134.496C202.122,-122.057 264.036,-98.8392 301.962,-84.6172"/>
<polygon fill="midnightblue" stroke="midnightblue" points="303.382,-87.8226 311.517,-81.0341 300.924,-81.2683 303.382,-87.8226"/>
</g>
<!-- Node7&#45;&gt;Node2 -->
<g id="edge9" class="edge"><title>Node7&#45;&gt;Node2</title>
<path fill="none" stroke="midnightblue" d="M1461.58,-155.32C1441.06,-158.746 1417.15,-162.356 1395.27,-165 1190.43,-189.758 945.146,-206.148 836.564,-212.516"/>
<polygon fill="midnightblue" stroke="midnightblue" points="836.27,-209.027 826.489,-213.101 836.675,-216.015 836.27,-209.027"/>
</g>
<!-- Node7&#45;&gt;Node4 -->
<g id="edge12" class="edge"><title>Node7&#45;&gt;Node4</title>
<path fill="none" stroke="midnightblue" d="M1534.42,-128.806C1558.98,-111.304 1592.73,-80.8258 1573.27,-56 1555.21,-32.9591 1472.97,-20.141 1425.11,-14.5129"/>
<polygon fill="midnightblue" stroke="midnightblue" points="1425.21,-11.0024 1414.88,-13.3581 1424.43,-17.9582 1425.21,-11.0024"/>
</g>
<!-- Node8 -->
<g id="node9" class="node"><title>Node8</title>
<g id="a_node9"><a xlink:href="mir__input__device__types_8h.html" target="_top" xlink:title="mir_toolkit/mir_input\l_device_types.h">
<polygon fill="white" stroke="black" points="1338.27,-56.5 1338.27,-86.5 1442.27,-86.5 1442.27,-56.5 1338.27,-56.5"/>
<text text-anchor="start" x="1346.27" y="-74.5" font-family="Arial" font-size="10.00">mir_toolkit/mir_input</text>
<text text-anchor="middle" x="1390.27" y="-63.5" font-family="Arial" font-size="10.00">_device_types.h</text>
</a>
</g>
</g>
<!-- Node7&#45;&gt;Node8 -->
<g id="edge10" class="edge"><title>Node7&#45;&gt;Node8</title>
<path fill="none" stroke="midnightblue" d="M1487.88,-128.903C1469.43,-118.24 1443.88,-103.479 1423.56,-91.7323"/>
<polygon fill="midnightblue" stroke="midnightblue" points="1425.04,-88.5459 1414.63,-86.5729 1421.53,-94.6067 1425.04,-88.5459"/>
</g>
<!-- Node9 -->
<g id="node10" class="node"><title>Node9</title>
<polygon fill="white" stroke="#bfbfbf" points="1643.27,-0.5 1643.27,-19.5 1699.27,-19.5 1699.27,-0.5 1643.27,-0.5"/>
<text text-anchor="middle" x="1671.27" y="-7.5" font-family="Arial" font-size="10.00">stdbool.h</text>
</g>
<!-- Node7&#45;&gt;Node9 -->
<g id="edge13" class="edge"><title>Node7&#45;&gt;Node9</title>
<path fill="none" stroke="midnightblue" d="M1533.04,-128.903C1548.82,-117.946 1570.89,-102.117 1589.27,-87 1613.02,-67.4749 1638.77,-43.0174 1654.96,-27.2053"/>
<polygon fill="midnightblue" stroke="midnightblue" points="1657.82,-29.3048 1662.49,-19.7966 1652.91,-24.3149 1657.82,-29.3048"/>
</g>
<!-- Node10 -->
<g id="node11" class="node"><title>Node10</title>
<g id="a_node11"><a xlink:href="touch__event_8h.html" target="_top" xlink:title="mir_toolkit/events\l/input/touch_event.h">
<polygon fill="white" stroke="black" points="1460.27,-56.5 1460.27,-86.5 1564.27,-86.5 1564.27,-56.5 1460.27,-56.5"/>
<text text-anchor="start" x="1468.27" y="-74.5" font-family="Arial" font-size="10.00">mir_toolkit/events</text>
<text text-anchor="middle" x="1512.27" y="-63.5" font-family="Arial" font-size="10.00">/input/touch_event.h</text>
</a>
</g>
</g>
<!-- Node7&#45;&gt;Node10 -->
<g id="edge14" class="edge"><title>Node7&#45;&gt;Node10</title>
<path fill="none" stroke="midnightblue" d="M1512.27,-128.733C1512.27,-119.655 1512.27,-107.658 1512.27,-97.0773"/>
<polygon fill="midnightblue" stroke="midnightblue" points="1515.77,-96.7455 1512.27,-86.7455 1508.77,-96.7455 1515.77,-96.7455"/>
</g>
<!-- Node11 -->
<g id="node12" class="node"><title>Node11</title>
<g id="a_node12"><a xlink:href="keyboard__event_8h.html" target="_top" xlink:title="mir_toolkit/events\l/input/keyboard_event.h">
<polygon fill="white" stroke="black" points="1785.77,-56.5 1785.77,-86.5 1904.77,-86.5 1904.77,-56.5 1785.77,-56.5"/>
<text text-anchor="start" x="1793.77" y="-74.5" font-family="Arial" font-size="10.00">mir_toolkit/events</text>
<text text-anchor="middle" x="1845.27" y="-63.5" font-family="Arial" font-size="10.00">/input/keyboard_event.h</text>
</a>
</g>
</g>
<!-- Node7&#45;&gt;Node11 -->
<g id="edge15" class="edge"><title>Node7&#45;&gt;Node11</title>
<path fill="none" stroke="midnightblue" d="M1551.73,-128.931C1558.53,-126.769 1565.57,-124.697 1572.27,-123 1658.89,-101.087 1684.72,-104.384 1775.69,-87.2513"/>
<polygon fill="midnightblue" stroke="midnightblue" points="1776.43,-90.6722 1785.6,-85.3536 1775.12,-83.7972 1776.43,-90.6722"/>
</g>
<!-- Node13 -->
<g id="node14" class="node"><title>Node13</title>
<g id="a_node14"><a xlink:href="pointer__event_8h.html" target="_top" xlink:title="mir_toolkit/events\l/input/pointer_event.h">
<polygon fill="white" stroke="black" points="1658.77,-56.5 1658.77,-86.5 1767.77,-86.5 1767.77,-56.5 1658.77,-56.5"/>
<text text-anchor="start" x="1666.77" y="-74.5" font-family="Arial" font-size="10.00">mir_toolkit/events</text>
<text text-anchor="middle" x="1713.27" y="-63.5" font-family="Arial" font-size="10.00">/input/pointer_event.h</text>
</a>
</g>
</g>
<!-- Node7&#45;&gt;Node13 -->
<g id="edge17" class="edge"><title>Node7&#45;&gt;Node13</title>
<path fill="none" stroke="midnightblue" d="M1552.47,-128.903C1584.37,-117.711 1629.15,-102.006 1663.35,-90.0093"/>
<polygon fill="midnightblue" stroke="midnightblue" points="1664.87,-93.1854 1673.15,-86.5729 1662.56,-86.58 1664.87,-93.1854"/>
</g>
<!-- Node8&#45;&gt;Node4 -->
<g id="edge11" class="edge"><title>Node8&#45;&gt;Node4</title>
<path fill="none" stroke="midnightblue" d="M1390.27,-56.3993C1390.27,-48.4664 1390.27,-38.458 1390.27,-29.8583"/>
<polygon fill="midnightblue" stroke="midnightblue" points="1393.77,-29.6577 1390.27,-19.6578 1386.77,-29.6578 1393.77,-29.6577"/>
</g>
<!-- Node12 -->
<g id="node13" class="node"><title>Node12</title>
<polygon fill="white" stroke="#bfbfbf" points="1822.27,-0.5 1822.27,-19.5 1956.27,-19.5 1956.27,-0.5 1822.27,-0.5"/>
<text text-anchor="middle" x="1889.27" y="-7.5" font-family="Arial" font-size="10.00">xkbcommon/xkbcommon.h</text>
</g>
<!-- Node11&#45;&gt;Node12 -->
<g id="edge16" class="edge"><title>Node11&#45;&gt;Node12</title>
<path fill="none" stroke="midnightblue" d="M1855.7,-56.3993C1862.03,-47.8424 1870.14,-36.8708 1876.81,-27.857"/>
<polygon fill="midnightblue" stroke="midnightblue" points="1879.74,-29.7792 1882.87,-19.6578 1874.11,-25.6171 1879.74,-29.7792"/>
</g>
<!-- Node13&#45;&gt;Node9 -->
<g id="edge18" class="edge"><title>Node13&#45;&gt;Node9</title>
<path fill="none" stroke="midnightblue" d="M1703.32,-56.3993C1697.28,-47.8424 1689.54,-36.8708 1683.17,-27.857"/>
<polygon fill="midnightblue" stroke="midnightblue" points="1686.01,-25.8091 1677.39,-19.6578 1680.29,-29.8459 1686.01,-25.8091"/>
</g>
<!-- Node14&#45;&gt;Node2 -->
<g id="edge20" class="edge"><title>Node14&#45;&gt;Node2</title>
<path fill="none" stroke="midnightblue" d="M697.64,-159.005C715.29,-169.424 737.924,-183.792 755.121,-195.431"/>
<polygon fill="midnightblue" stroke="midnightblue" points="753.339,-198.454 763.563,-201.233 757.304,-192.685 753.339,-198.454"/>
</g>
<!-- Node15&#45;&gt;Node2 -->
<g id="edge22" class="edge"><title>Node15&#45;&gt;Node2</title>
<path fill="none" stroke="midnightblue" d="M606.344,-158.817C612.401,-160.939 618.493,-163.066 624.274,-165 659.522,-176.794 699.361,-189.018 730.037,-198.485"/>
<polygon fill="midnightblue" stroke="midnightblue" points="729.07,-201.849 739.657,-201.458 731.136,-195.161 729.07,-201.849"/>
</g>
<!-- Node15&#45;&gt;Node6 -->
<g id="edge23" class="edge"><title>Node15&#45;&gt;Node6</title>
<path fill="none" stroke="midnightblue" d="M518.683,-128.978C512.52,-126.946 506.237,-124.901 500.274,-123 456.837,-109.156 406.741,-94.0309 373.042,-83.978"/>
<polygon fill="midnightblue" stroke="midnightblue" points="373.718,-80.5276 363.135,-81.028 371.72,-87.2364 373.718,-80.5276"/>
</g>
<!-- Node16&#45;&gt;Node2 -->
<g id="edge25" class="edge"><title>Node16&#45;&gt;Node2</title>
<path fill="none" stroke="midnightblue" d="M785.82,-159.246C787.024,-168.414 787.325,-180.568 786.724,-191.232"/>
<polygon fill="midnightblue" stroke="midnightblue" points="783.235,-190.959 785.823,-201.233 790.206,-191.588 783.235,-190.959"/>
</g>
<!-- Node17&#45;&gt;Node2 -->
<g id="edge27" class="edge"><title>Node17&#45;&gt;Node2</title>
<path fill="none" stroke="midnightblue" d="M877.842,-159.073C861.804,-169.778 837.773,-184.622 817.508,-196.399"/>
<polygon fill="midnightblue" stroke="midnightblue" points="815.724,-193.387 808.796,-201.403 819.211,-199.457 815.724,-193.387"/>
</g>
<!-- Node18&#45;&gt;Node2 -->
<g id="edge29" class="edge"><title>Node18&#45;&gt;Node2</title>
<path fill="none" stroke="midnightblue" d="M982.746,-159.057C941.854,-171.241 880.606,-188.798 836.137,-201.086"/>
<polygon fill="midnightblue" stroke="midnightblue" points="835.064,-197.751 826.351,-203.779 836.922,-204.5 835.064,-197.751"/>
</g>
<!-- Node19&#45;&gt;Node2 -->
<g id="edge31" class="edge"><title>Node19&#45;&gt;Node2</title>
<path fill="none" stroke="midnightblue" d="M1602.2,-159.025C1595.5,-161.388 1588.24,-163.544 1581.27,-165 1439.31,-194.699 995.173,-209.705 836.898,-214.098"/>
<polygon fill="midnightblue" stroke="midnightblue" points="836.348,-210.611 826.448,-214.384 836.54,-217.609 836.348,-210.611"/>
</g>
<!-- Node19&#45;&gt;Node12 -->
<g id="edge32" class="edge"><title>Node19&#45;&gt;Node12</title>
<path fill="none" stroke="midnightblue" d="M1673.48,-140.885C1746.72,-136.456 1884.3,-123.392 1914.27,-87 1928.28,-69.9938 1915.33,-44.8832 1903.45,-28.2411"/>
<polygon fill="midnightblue" stroke="midnightblue" points="1905.99,-25.7979 1897.14,-19.9719 1900.43,-30.0447 1905.99,-25.7979"/>
</g>
<!-- Node20&#45;&gt;Node2 -->
<g id="edge34" class="edge"><title>Node20&#45;&gt;Node2</title>
<path fill="none" stroke="midnightblue" d="M321.1,-160.432C326.872,-162.166 332.679,-163.754 338.274,-165 475.033,-195.463 639.421,-207.972 724.042,-212.771"/>
<polygon fill="midnightblue" stroke="midnightblue" points="724.029,-216.275 734.207,-213.332 724.415,-209.286 724.029,-216.275"/>
</g>
<!-- Node20&#45;&gt;Node6 -->
<g id="edge35" class="edge"><title>Node20&#45;&gt;Node6</title>
<path fill="none" stroke="midnightblue" d="M288.102,-123.362C298.025,-112.431 310.226,-98.9909 319.593,-88.6721"/>
<polygon fill="midnightblue" stroke="midnightblue" points="322.27,-90.9301 326.401,-81.1734 317.088,-86.225 322.27,-90.9301"/>
</g>
<!-- Node21&#45;&gt;Node2 -->
<g id="edge37" class="edge"><title>Node21&#45;&gt;Node2</title>
<path fill="none" stroke="midnightblue" d="M456.334,-159.041C464.712,-161.18 473.21,-163.254 481.274,-165 565.38,-183.211 663.667,-198.262 724.024,-207.065"/>
<polygon fill="midnightblue" stroke="midnightblue" points="723.709,-210.556 734.108,-208.53 724.715,-203.629 723.709,-210.556"/>
</g>
<!-- Node21&#45;&gt;Node6 -->
<g id="edge38" class="edge"><title>Node21&#45;&gt;Node6</title>
<path fill="none" stroke="midnightblue" d="M385.323,-128.733C374.877,-117.226 360.172,-101.028 349.226,-88.9707"/>
<polygon fill="midnightblue" stroke="midnightblue" points="351.66,-86.4448 342.347,-81.3932 346.478,-91.1499 351.66,-86.4448"/>
</g>
<!-- Node22&#45;&gt;Node2 -->
<g id="edge40" class="edge"><title>Node22&#45;&gt;Node2</title>
<path fill="none" stroke="midnightblue" d="M1130.36,-159.055C1122.8,-161.218 1114.84,-163.295 1107.27,-165 1013.46,-186.154 902.113,-201.684 836.442,-209.594"/>
<polygon fill="midnightblue" stroke="midnightblue" points="835.821,-206.143 826.304,-210.798 836.647,-213.094 835.821,-206.143"/>
</g>
<!-- Node23&#45;&gt;Node2 -->
<g id="edge42" class="edge"><title>Node23&#45;&gt;Node2</title>
<path fill="none" stroke="midnightblue" d="M1246.18,-164.565C1245.54,-164.714 1244.91,-164.859 1244.27,-165 1099.68,-197.134 924.467,-209.245 836.38,-213.456"/>
<polygon fill="midnightblue" stroke="midnightblue" points="836.162,-209.963 826.334,-213.92 836.485,-216.955 836.162,-209.963"/>
</g>
</g>
</svg>
