<?xml version="1.0" encoding="UTF-8" standalone="no"?>
<!DOCTYPE svg PUBLIC "-//W3C//DTD SVG 1.1//EN"
 "http://www.w3.org/Graphics/SVG/1.1/DTD/svg11.dtd">
<!-- Generated by graphviz version 2.38.0 (20140413.2041)
 -->
<!-- Title: examples/miral&#45;shell/spinner/eglapp.cpp Pages: 1 -->
<svg width="2262pt" height="620pt"
 viewBox="0.00 0.00 2261.96 620.00" xmlns="http://www.w3.org/2000/svg" xmlns:xlink="http://www.w3.org/1999/xlink">
<g id="graph0" class="graph" transform="scale(1 1) rotate(0) translate(4 616)">
<title>examples/miral&#45;shell/spinner/eglapp.cpp</title>
<polygon fill="white" stroke="none" points="-4,4 -4,-616 2257.96,-616 2257.96,4 -4,4"/>
<!-- Node0 -->
<g id="node1" class="node"><title>Node0</title>
<polygon fill="#bfbfbf" stroke="black" points="543.962,-581.5 543.962,-611.5 649.962,-611.5 649.962,-581.5 543.962,-581.5"/>
<text text-anchor="start" x="551.962" y="-599.5" font-family="Arial" font-size="10.00">examples/miral&#45;shell</text>
<text text-anchor="middle" x="596.962" y="-588.5" font-family="Arial" font-size="10.00">/spinner/eglapp.cpp</text>
</g>
<!-- Node1 -->
<g id="node2" class="node"><title>Node1</title>
<g id="a_node2"><a xlink:href="miral-shell_2spinner_2eglapp_8h.html" target="_top" xlink:title="eglapp.h">
<polygon fill="white" stroke="black" points="570.462,-464 570.462,-483 623.462,-483 623.462,-464 570.462,-464"/>
<text text-anchor="middle" x="596.962" y="-471" font-family="Arial" font-size="10.00">eglapp.h</text>
</a>
</g>
</g>
<!-- Node0&#45;&gt;Node1 -->
<g id="edge1" class="edge"><title>Node0&#45;&gt;Node1</title>
<path fill="none" stroke="midnightblue" d="M596.962,-581.145C596.962,-559.203 596.962,-517.327 596.962,-493.091"/>
<polygon fill="midnightblue" stroke="midnightblue" points="600.462,-493.052 596.962,-483.052 593.462,-493.052 600.462,-493.052"/>
</g>
<!-- Node27 -->
<g id="node28" class="node"><title>Node27</title>
<g id="a_node28"><a xlink:href="display__config_8h.html" target="_top" xlink:title="mir/client/display\l_config.h">
<polygon fill="white" stroke="black" points="641.962,-458.5 641.962,-488.5 731.962,-488.5 731.962,-458.5 641.962,-458.5"/>
<text text-anchor="start" x="649.962" y="-476.5" font-family="Arial" font-size="10.00">mir/client/display</text>
<text text-anchor="middle" x="686.962" y="-465.5" font-family="Arial" font-size="10.00">_config.h</text>
</a>
</g>
</g>
<!-- Node0&#45;&gt;Node27 -->
<g id="edge49" class="edge"><title>Node0&#45;&gt;Node27</title>
<path fill="none" stroke="midnightblue" d="M607.64,-581.145C623.134,-560.313 651.995,-521.512 670.302,-496.898"/>
<polygon fill="midnightblue" stroke="midnightblue" points="673.139,-498.949 676.298,-488.837 667.522,-494.772 673.139,-498.949"/>
</g>
<!-- Node31 -->
<g id="node32" class="node"><title>Node31</title>
<g id="a_node32"><a xlink:href="miregl_8h.html" target="_top" xlink:title="miregl.h">
<polygon fill="white" stroke="black" points="458.462,-525.5 458.462,-544.5 509.462,-544.5 509.462,-525.5 458.462,-525.5"/>
<text text-anchor="middle" x="483.962" y="-532.5" font-family="Arial" font-size="10.00">miregl.h</text>
</a>
</g>
</g>
<!-- Node0&#45;&gt;Node31 -->
<g id="edge60" class="edge"><title>Node0&#45;&gt;Node31</title>
<path fill="none" stroke="midnightblue" d="M570.183,-581.399C551.9,-571.773 527.814,-559.09 509.747,-549.577"/>
<polygon fill="midnightblue" stroke="midnightblue" points="510.884,-546.22 500.405,-544.658 507.622,-552.414 510.884,-546.22"/>
</g>
<!-- Node2 -->
<g id="node3" class="node"><title>Node2</title>
<g id="a_node3"><a xlink:href="client__types_8h.html" target="_top" xlink:title="mir_toolkit/client\l_types.h">
<polygon fill="white" stroke="black" points="489.962,-268.5 489.962,-298.5 577.962,-298.5 577.962,-268.5 489.962,-268.5"/>
<text text-anchor="start" x="497.962" y="-286.5" font-family="Arial" font-size="10.00">mir_toolkit/client</text>
<text text-anchor="middle" x="533.962" y="-275.5" font-family="Arial" font-size="10.00">_types.h</text>
</a>
</g>
</g>
<!-- Node1&#45;&gt;Node2 -->
<g id="edge2" class="edge"><title>Node1&#45;&gt;Node2</title>
<path fill="none" stroke="midnightblue" d="M592.979,-463.663C588.543,-453.662 581.297,-436.832 575.962,-422 561.867,-382.811 548.304,-336.297 540.567,-308.653"/>
<polygon fill="midnightblue" stroke="midnightblue" points="543.852,-307.403 537.806,-298.703 537.107,-309.275 543.852,-307.403"/>
</g>
<!-- Node25 -->
<g id="node26" class="node"><title>Node25</title>
<polygon fill="white" stroke="#bfbfbf" points="476.962,-402.5 476.962,-421.5 528.962,-421.5 528.962,-402.5 476.962,-402.5"/>
<text text-anchor="middle" x="502.962" y="-409.5" font-family="Arial" font-size="10.00">memory</text>
</g>
<!-- Node1&#45;&gt;Node25 -->
<g id="edge47" class="edge"><title>Node1&#45;&gt;Node25</title>
<path fill="none" stroke="midnightblue" d="M583.494,-463.975C568.277,-454.343 543.275,-438.517 525.161,-427.052"/>
<polygon fill="midnightblue" stroke="midnightblue" points="526.727,-423.9 516.405,-421.509 522.983,-429.815 526.727,-423.9"/>
</g>
<!-- Node26 -->
<g id="node27" class="node"><title>Node26</title>
<polygon fill="white" stroke="#bfbfbf" points="584.962,-402.5 584.962,-421.5 628.962,-421.5 628.962,-402.5 584.962,-402.5"/>
<text text-anchor="middle" x="606.962" y="-409.5" font-family="Arial" font-size="10.00">vector</text>
</g>
<!-- Node1&#45;&gt;Node26 -->
<g id="edge48" class="edge"><title>Node1&#45;&gt;Node26</title>
<path fill="none" stroke="midnightblue" d="M598.395,-463.975C599.806,-455.58 602.007,-442.481 603.825,-431.663"/>
<polygon fill="midnightblue" stroke="midnightblue" points="607.326,-431.951 605.532,-421.509 600.423,-430.791 607.326,-431.951"/>
</g>
<!-- Node3 -->
<g id="node4" class="node"><title>Node3</title>
<g id="a_node4"><a xlink:href="events_2event_8h.html" target="_top" xlink:title="mir_toolkit/events\l/event.h">
<polygon fill="white" stroke="black" points="1008.96,-201.5 1008.96,-231.5 1102.96,-231.5 1102.96,-201.5 1008.96,-201.5"/>
<text text-anchor="start" x="1016.96" y="-219.5" font-family="Arial" font-size="10.00">mir_toolkit/events</text>
<text text-anchor="middle" x="1055.96" y="-208.5" font-family="Arial" font-size="10.00">/event.h</text>
</a>
</g>
</g>
<!-- Node2&#45;&gt;Node3 -->
<g id="edge3" class="edge"><title>Node2&#45;&gt;Node3</title>
<path fill="none" stroke="midnightblue" d="M578.018,-277.014C672.335,-265.27 893.733,-237.701 998.753,-224.624"/>
<polygon fill="midnightblue" stroke="midnightblue" points="999.357,-228.076 1008.85,-223.367 998.492,-221.129 999.357,-228.076"/>
</g>
<!-- Node4 -->
<g id="node5" class="node"><title>Node4</title>
<polygon fill="white" stroke="#bfbfbf" points="304.962,-134.5 304.962,-153.5 356.962,-153.5 356.962,-134.5 304.962,-134.5"/>
<text text-anchor="middle" x="330.962" y="-141.5" font-family="Arial" font-size="10.00">stddef.h</text>
</g>
<!-- Node2&#45;&gt;Node4 -->
<g id="edge46" class="edge"><title>Node2&#45;&gt;Node4</title>
<path fill="none" stroke="midnightblue" d="M513.002,-268.303C474.176,-242.005 391.469,-185.983 352.334,-159.476"/>
<polygon fill="midnightblue" stroke="midnightblue" points="354.05,-156.411 343.807,-153.701 350.124,-162.207 354.05,-156.411"/>
</g>
<!-- Node6 -->
<g id="node7" class="node"><title>Node6</title>
<g id="a_node7"><a xlink:href="common_8h.html" target="_top" xlink:title="mir_toolkit/common.h">
<polygon fill="white" stroke="black" points="176.962,-134.5 176.962,-153.5 286.962,-153.5 286.962,-134.5 176.962,-134.5"/>
<text text-anchor="middle" x="231.962" y="-141.5" font-family="Arial" font-size="10.00">mir_toolkit/common.h</text>
</a>
</g>
</g>
<!-- Node2&#45;&gt;Node6 -->
<g id="edge44" class="edge"><title>Node2&#45;&gt;Node6</title>
<path fill="none" stroke="midnightblue" d="M497.917,-268.394C473.265,-258.577 439.931,-244.971 410.962,-232 355.617,-207.218 292.03,-175.527 257.512,-158.046"/>
<polygon fill="midnightblue" stroke="midnightblue" points="259.079,-154.917 248.578,-153.51 255.91,-161.158 259.079,-154.917"/>
</g>
<!-- Node7 -->
<g id="node8" class="node"><title>Node7</title>
<g id="a_node8"><a xlink:href="deprecations_8h.html" target="_top" xlink:title="mir_toolkit/deprecations.h">
<polygon fill="white" stroke="black" points="507.962,-62 507.962,-81 635.962,-81 635.962,-62 507.962,-62"/>
<text text-anchor="middle" x="571.962" y="-69" font-family="Arial" font-size="10.00">mir_toolkit/deprecations.h</text>
</a>
</g>
</g>
<!-- Node2&#45;&gt;Node7 -->
<g id="edge45" class="edge"><title>Node2&#45;&gt;Node7</title>
<path fill="none" stroke="midnightblue" d="M578.266,-281.229C775.11,-275.131 1563.88,-245.766 1634.96,-165 1647.29,-150.987 1647.84,-136.509 1634.96,-123 1600.88,-87.2634 882.157,-75.994 646.247,-73.2506"/>
<polygon fill="midnightblue" stroke="midnightblue" points="646.089,-69.7486 636.049,-73.1338 646.009,-76.7482 646.089,-69.7486"/>
</g>
<!-- Node3&#45;&gt;Node4 -->
<g id="edge4" class="edge"><title>Node3&#45;&gt;Node4</title>
<path fill="none" stroke="midnightblue" d="M1008.83,-203.43C1004.17,-202.497 999.486,-201.662 994.962,-201 717.899,-160.465 634.43,-244.576 365.962,-165 361.022,-163.536 356.028,-161.259 351.421,-158.759"/>
<polygon fill="midnightblue" stroke="midnightblue" points="353.023,-155.639 342.646,-153.502 349.425,-161.644 353.023,-155.639"/>
</g>
<!-- Node5 -->
<g id="node6" class="node"><title>Node5</title>
<polygon fill="white" stroke="#bfbfbf" points="1741.46,-0.5 1741.46,-19.5 1790.46,-19.5 1790.46,-0.5 1741.46,-0.5"/>
<text text-anchor="middle" x="1765.96" y="-7.5" font-family="Arial" font-size="10.00">stdint.h</text>
</g>
<!-- Node3&#45;&gt;Node5 -->
<g id="edge5" class="edge"><title>Node3&#45;&gt;Node5</title>
<path fill="none" stroke="midnightblue" d="M1103.27,-214.956C1235.1,-212.952 1599.3,-203.912 1634.96,-165 1647.57,-151.239 1640.87,-140.709 1634.96,-123 1628.64,-104.026 1614.29,-105.974 1607.96,-87 1603.61,-73.9293 1599.66,-66.996 1607.96,-56 1622.77,-36.3795 1689.29,-22.7778 1731.15,-15.9861"/>
<polygon fill="midnightblue" stroke="midnightblue" points="1731.88,-19.4145 1741.22,-14.4066 1730.8,-12.4991 1731.88,-19.4145"/>
</g>
<!-- Node3&#45;&gt;Node6 -->
<g id="edge6" class="edge"><title>Node3&#45;&gt;Node6</title>
<path fill="none" stroke="midnightblue" d="M1008.84,-203.403C1004.17,-202.475 999.488,-201.649 994.962,-201 687.033,-156.847 602.171,-219.826 295.962,-165 285.391,-163.107 274.128,-159.982 264.045,-156.757"/>
<polygon fill="midnightblue" stroke="midnightblue" points="265.017,-153.392 254.423,-153.542 262.799,-160.031 265.017,-153.392"/>
</g>
<!-- Node3&#45;&gt;Node7 -->
<g id="edge8" class="edge"><title>Node3&#45;&gt;Node7</title>
<path fill="none" stroke="midnightblue" d="M1008.82,-203.515C1004.16,-202.564 999.48,-201.702 994.962,-201 942.223,-192.803 552.26,-204.129 515.962,-165 503.267,-151.315 508.376,-140.056 515.962,-123 522.641,-107.984 536.235,-95.552 548.356,-86.78"/>
<polygon fill="midnightblue" stroke="midnightblue" points="550.488,-89.563 556.802,-81.055 546.561,-83.7686 550.488,-89.563"/>
</g>
<!-- Node8 -->
<g id="node9" class="node"><title>Node8</title>
<g id="a_node9"><a xlink:href="input__event_8h.html" target="_top" xlink:title="mir_toolkit/events\l/input/input_event.h">
<polygon fill="white" stroke="black" points="1795.96,-129 1795.96,-159 1897.96,-159 1897.96,-129 1795.96,-129"/>
<text text-anchor="start" x="1803.96" y="-147" font-family="Arial" font-size="10.00">mir_toolkit/events</text>
<text text-anchor="middle" x="1846.96" y="-136" font-family="Arial" font-size="10.00">/input/input_event.h</text>
</a>
</g>
</g>
<!-- Node3&#45;&gt;Node8 -->
<g id="edge9" class="edge"><title>Node3&#45;&gt;Node8</title>
<path fill="none" stroke="midnightblue" d="M1102.99,-211.717C1204.63,-203.924 1451.78,-185.118 1658.96,-165 1701.07,-160.912 1748.66,-155.559 1785.51,-151.42"/>
<polygon fill="midnightblue" stroke="midnightblue" points="1786.05,-154.881 1795.6,-150.287 1785.27,-147.924 1786.05,-154.881"/>
</g>
<!-- Node15 -->
<g id="node16" class="node"><title>Node15</title>
<g id="a_node16"><a xlink:href="resize__event_8h.html" target="_top" xlink:title="mir_toolkit/events\l/resize_event.h">
<polygon fill="white" stroke="black" points="756.962,-129 756.962,-159 850.962,-159 850.962,-129 756.962,-129"/>
<text text-anchor="start" x="764.962" y="-147" font-family="Arial" font-size="10.00">mir_toolkit/events</text>
<text text-anchor="middle" x="803.962" y="-136" font-family="Arial" font-size="10.00">/resize_event.h</text>
</a>
</g>
</g>
<!-- Node3&#45;&gt;Node15 -->
<g id="edge20" class="edge"><title>Node3&#45;&gt;Node15</title>
<path fill="none" stroke="midnightblue" d="M1008.67,-205.409C957.488,-193.382 879.685,-173.81 850.962,-165 848.186,-164.149 845.344,-163.243 842.496,-162.305"/>
<polygon fill="midnightblue" stroke="midnightblue" points="843.472,-158.94 832.877,-159.025 841.213,-165.565 843.472,-158.94"/>
</g>
<!-- Node16 -->
<g id="node17" class="node"><title>Node16</title>
<g id="a_node17"><a xlink:href="surface__event_8h.html" target="_top" xlink:title="mir_toolkit/events\l/surface_event.h">
<polygon fill="white" stroke="black" points="524.962,-129 524.962,-159 618.962,-159 618.962,-129 524.962,-129"/>
<text text-anchor="start" x="532.962" y="-147" font-family="Arial" font-size="10.00">mir_toolkit/events</text>
<text text-anchor="middle" x="571.962" y="-136" font-family="Arial" font-size="10.00">/surface_event.h</text>
</a>
</g>
</g>
<!-- Node3&#45;&gt;Node16 -->
<g id="edge22" class="edge"><title>Node3&#45;&gt;Node16</title>
<path fill="none" stroke="midnightblue" d="M1008.9,-205.574C1001.22,-203.862 993.37,-202.238 985.962,-201 824.31,-173.987 778.891,-200.831 618.962,-165 615.323,-164.185 611.596,-163.201 607.903,-162.113"/>
<polygon fill="midnightblue" stroke="midnightblue" points="608.884,-158.752 598.293,-159.033 606.748,-165.418 608.884,-158.752"/>
</g>
<!-- Node17 -->
<g id="node18" class="node"><title>Node17</title>
<g id="a_node18"><a xlink:href="window__event_8h.html" target="_top" xlink:title="mir_toolkit/events\l/window_event.h">
<polygon fill="white" stroke="black" points="1008.96,-129 1008.96,-159 1102.96,-159 1102.96,-129 1008.96,-129"/>
<text text-anchor="start" x="1016.96" y="-147" font-family="Arial" font-size="10.00">mir_toolkit/events</text>
<text text-anchor="middle" x="1055.96" y="-136" font-family="Arial" font-size="10.00">/window_event.h</text>
</a>
</g>
</g>
<!-- Node3&#45;&gt;Node17 -->
<g id="edge25" class="edge"><title>Node3&#45;&gt;Node17</title>
<path fill="none" stroke="midnightblue" d="M1050.41,-201.233C1049.21,-192.06 1048.91,-179.905 1049.51,-169.244"/>
<polygon fill="midnightblue" stroke="midnightblue" points="1053,-169.52 1050.42,-159.246 1046.03,-168.89 1053,-169.52"/>
</g>
<!-- Node18 -->
<g id="node19" class="node"><title>Node18</title>
<g id="a_node19"><a xlink:href="orientation__event_8h.html" target="_top" xlink:title="mir_toolkit/events\l/orientation_event.h">
<polygon fill="white" stroke="black" points="1120.96,-129 1120.96,-159 1222.96,-159 1222.96,-129 1120.96,-129"/>
<text text-anchor="start" x="1128.96" y="-147" font-family="Arial" font-size="10.00">mir_toolkit/events</text>
<text text-anchor="middle" x="1171.96" y="-136" font-family="Arial" font-size="10.00">/orientation_event.h</text>
</a>
</g>
</g>
<!-- Node3&#45;&gt;Node18 -->
<g id="edge27" class="edge"><title>Node3&#45;&gt;Node18</title>
<path fill="none" stroke="midnightblue" d="M1073.63,-201.403C1089.83,-190.692 1114.08,-175.846 1134.5,-164.074"/>
<polygon fill="midnightblue" stroke="midnightblue" points="1136.33,-167.064 1143.28,-159.073 1132.86,-160.981 1136.33,-167.064"/>
</g>
<!-- Node19 -->
<g id="node20" class="node"><title>Node19</title>
<g id="a_node20"><a xlink:href="prompt__session__event_8h.html" target="_top" xlink:title="mir_toolkit/events\l/prompt_session_event.h">
<polygon fill="white" stroke="black" points="1240.96,-129 1240.96,-159 1366.96,-159 1366.96,-129 1240.96,-129"/>
<text text-anchor="start" x="1248.96" y="-147" font-family="Arial" font-size="10.00">mir_toolkit/events</text>
<text text-anchor="middle" x="1303.96" y="-136" font-family="Arial" font-size="10.00">/prompt_session_event.h</text>
</a>
</g>
</g>
<!-- Node3&#45;&gt;Node19 -->
<g id="edge29" class="edge"><title>Node3&#45;&gt;Node19</title>
<path fill="none" stroke="midnightblue" d="M1099.74,-201.487C1138.4,-190.063 1195.16,-173.895 1239.08,-161.782"/>
<polygon fill="midnightblue" stroke="midnightblue" points="1240.1,-165.133 1248.81,-159.107 1238.24,-158.383 1240.1,-165.133"/>
</g>
<!-- Node20 -->
<g id="node21" class="node"><title>Node20</title>
<g id="a_node21"><a xlink:href="keymap__event_8h.html" target="_top" xlink:title="mir_toolkit/events\l/keymap_event.h">
<polygon fill="white" stroke="black" points="374.962,-129 374.962,-159 468.962,-159 468.962,-129 374.962,-129"/>
<text text-anchor="start" x="382.962" y="-147" font-family="Arial" font-size="10.00">mir_toolkit/events</text>
<text text-anchor="middle" x="421.962" y="-136" font-family="Arial" font-size="10.00">/keymap_event.h</text>
</a>
</g>
</g>
<!-- Node3&#45;&gt;Node20 -->
<g id="edge31" class="edge"><title>Node3&#45;&gt;Node20</title>
<path fill="none" stroke="midnightblue" d="M1008.93,-205.41C1001.24,-203.713 993.387,-202.136 985.962,-201 760.467,-166.508 697.822,-208.868 473.962,-165 469.717,-164.168 465.357,-163.129 461.046,-161.964"/>
<polygon fill="midnightblue" stroke="midnightblue" points="461.734,-158.518 451.153,-159.057 459.76,-165.234 461.734,-158.518"/>
</g>
<!-- Node21 -->
<g id="node22" class="node"><title>Node21</title>
<g id="a_node22"><a xlink:href="input__configuration__event_8h.html" target="_top" xlink:title="mir_toolkit/events\l/input_configuration\l_event.h">
<polygon fill="white" stroke="black" points="637.462,-123.5 637.462,-164.5 738.462,-164.5 738.462,-123.5 637.462,-123.5"/>
<text text-anchor="start" x="645.462" y="-152.5" font-family="Arial" font-size="10.00">mir_toolkit/events</text>
<text text-anchor="start" x="645.462" y="-141.5" font-family="Arial" font-size="10.00">/input_configuration</text>
<text text-anchor="middle" x="687.962" y="-130.5" font-family="Arial" font-size="10.00">_event.h</text>
</a>
</g>
</g>
<!-- Node3&#45;&gt;Node21 -->
<g id="edge34" class="edge"><title>Node3&#45;&gt;Node21</title>
<path fill="none" stroke="midnightblue" d="M1008.85,-205.852C1001.17,-204.116 993.339,-202.412 985.962,-201 880.3,-180.783 848.791,-190.035 746.794,-166.804"/>
<polygon fill="midnightblue" stroke="midnightblue" points="747.564,-163.39 737.031,-164.532 745.977,-170.208 747.564,-163.39"/>
</g>
<!-- Node22 -->
<g id="node23" class="node"><title>Node22</title>
<g id="a_node23"><a xlink:href="surface__output__event_8h.html" target="_top" xlink:title="mir_toolkit/events\l/surface_output_event.h">
<polygon fill="white" stroke="black" points="868.962,-129 868.962,-159 990.962,-159 990.962,-129 868.962,-129"/>
<text text-anchor="start" x="876.962" y="-147" font-family="Arial" font-size="10.00">mir_toolkit/events</text>
<text text-anchor="middle" x="929.962" y="-136" font-family="Arial" font-size="10.00">/surface_output_event.h</text>
</a>
</g>
</g>
<!-- Node3&#45;&gt;Node22 -->
<g id="edge37" class="edge"><title>Node3&#45;&gt;Node22</title>
<path fill="none" stroke="midnightblue" d="M1025.24,-201.403C1004.77,-190.74 978.2,-175.979 958.247,-164.232"/>
<polygon fill="midnightblue" stroke="midnightblue" points="959.972,-161.186 949.591,-159.073 956.388,-167.199 959.972,-161.186"/>
</g>
<!-- Node23 -->
<g id="node24" class="node"><title>Node23</title>
<g id="a_node24"><a xlink:href="window__output__event_8h.html" target="_top" xlink:title="mir_toolkit/events\l/window_output_event.h">
<polygon fill="white" stroke="black" points="1385.46,-129 1385.46,-159 1506.46,-159 1506.46,-129 1385.46,-129"/>
<text text-anchor="start" x="1393.46" y="-147" font-family="Arial" font-size="10.00">mir_toolkit/events</text>
<text text-anchor="middle" x="1445.96" y="-136" font-family="Arial" font-size="10.00">/window_output_event.h</text>
</a>
</g>
</g>
<!-- Node3&#45;&gt;Node23 -->
<g id="edge40" class="edge"><title>Node3&#45;&gt;Node23</title>
<path fill="none" stroke="midnightblue" d="M1103.15,-209.071C1164.42,-200.944 1274.15,-185.503 1366.96,-165 1371.58,-163.98 1376.34,-162.831 1381.13,-161.613"/>
<polygon fill="midnightblue" stroke="midnightblue" points="1382.2,-164.953 1390.99,-159.034 1380.42,-158.181 1382.2,-164.953"/>
</g>
<!-- Node24 -->
<g id="node25" class="node"><title>Node24</title>
<g id="a_node25"><a xlink:href="input__device__state__event_8h.html" target="_top" xlink:title="mir_toolkit/events\l/input_device_state\l_event.h">
<polygon fill="white" stroke="black" points="1524.46,-123.5 1524.46,-164.5 1625.46,-164.5 1625.46,-123.5 1524.46,-123.5"/>
<text text-anchor="start" x="1532.46" y="-152.5" font-family="Arial" font-size="10.00">mir_toolkit/events</text>
<text text-anchor="start" x="1532.46" y="-141.5" font-family="Arial" font-size="10.00">/input_device_state</text>
<text text-anchor="middle" x="1574.96" y="-130.5" font-family="Arial" font-size="10.00">_event.h</text>
</a>
</g>
</g>
<!-- Node3&#45;&gt;Node24 -->
<g id="edge42" class="edge"><title>Node3&#45;&gt;Node24</title>
<path fill="none" stroke="midnightblue" d="M1103.06,-213.439C1185.77,-209.243 1361.66,-197.201 1506.96,-165 1509.41,-164.457 1511.9,-163.849 1514.41,-163.191"/>
<polygon fill="midnightblue" stroke="midnightblue" points="1515.47,-166.529 1524.14,-160.444 1513.56,-159.793 1515.47,-166.529"/>
</g>
<!-- Node6&#45;&gt;Node7 -->
<g id="edge7" class="edge"><title>Node6&#45;&gt;Node7</title>
<path fill="none" stroke="midnightblue" d="M256.992,-134.401C268.73,-130.569 282.965,-126.207 295.962,-123 366.085,-105.696 447.565,-91.4963 503.724,-82.6093"/>
<polygon fill="midnightblue" stroke="midnightblue" points="504.57,-86.0194 513.907,-81.0121 503.485,-79.104 504.57,-86.0194"/>
</g>
<!-- Node8&#45;&gt;Node3 -->
<g id="edge10" class="edge"><title>Node8&#45;&gt;Node3</title>
<path fill="none" stroke="midnightblue" d="M1795.61,-152.051C1761.9,-156.093 1716.96,-161.116 1676.96,-165 1470.09,-185.088 1223.36,-203.869 1113.49,-211.682"/>
<polygon fill="midnightblue" stroke="midnightblue" points="1113.02,-208.207 1103.29,-212.404 1113.51,-215.189 1113.02,-208.207"/>
</g>
<!-- Node8&#45;&gt;Node5 -->
<g id="edge13" class="edge"><title>Node8&#45;&gt;Node5</title>
<path fill="none" stroke="midnightblue" d="M1826.27,-128.881C1812.89,-118.717 1796.13,-103.865 1785.96,-87 1775.3,-69.3255 1770.26,-46 1767.91,-29.8746"/>
<polygon fill="midnightblue" stroke="midnightblue" points="1771.34,-29.0842 1766.64,-19.589 1764.39,-29.9428 1771.34,-29.0842"/>
</g>
<!-- Node9 -->
<g id="node10" class="node"><title>Node9</title>
<g id="a_node10"><a xlink:href="mir__input__device__types_8h.html" target="_top" xlink:title="mir_toolkit/mir_input\l_device_types.h">
<polygon fill="white" stroke="black" points="1917.96,-56.5 1917.96,-86.5 2021.96,-86.5 2021.96,-56.5 1917.96,-56.5"/>
<text text-anchor="start" x="1925.96" y="-74.5" font-family="Arial" font-size="10.00">mir_toolkit/mir_input</text>
<text text-anchor="middle" x="1969.96" y="-63.5" font-family="Arial" font-size="10.00">_device_types.h</text>
</a>
</g>
</g>
<!-- Node8&#45;&gt;Node9 -->
<g id="edge11" class="edge"><title>Node8&#45;&gt;Node9</title>
<path fill="none" stroke="midnightblue" d="M1871.56,-128.903C1890.24,-118.192 1916.15,-103.346 1936.68,-91.5738"/>
<polygon fill="midnightblue" stroke="midnightblue" points="1938.47,-94.5823 1945.41,-86.5729 1934.99,-88.5091 1938.47,-94.5823"/>
</g>
<!-- Node10 -->
<g id="node11" class="node"><title>Node10</title>
<polygon fill="white" stroke="#bfbfbf" points="2145.96,-0.5 2145.96,-19.5 2201.96,-19.5 2201.96,-0.5 2145.96,-0.5"/>
<text text-anchor="middle" x="2173.96" y="-7.5" font-family="Arial" font-size="10.00">stdbool.h</text>
</g>
<!-- Node8&#45;&gt;Node10 -->
<g id="edge14" class="edge"><title>Node8&#45;&gt;Node10</title>
<path fill="none" stroke="midnightblue" d="M1898.24,-133.031C1936.35,-124.307 1988.83,-109.467 2030.96,-87 2050.19,-76.7448 2050.32,-67.2918 2068.96,-56 2091.22,-42.5176 2118.25,-31.0337 2139.31,-23.0418"/>
<polygon fill="midnightblue" stroke="midnightblue" points="2140.66,-26.2724 2148.82,-19.5135 2138.23,-19.7093 2140.66,-26.2724"/>
</g>
<!-- Node11 -->
<g id="node12" class="node"><title>Node11</title>
<g id="a_node12"><a xlink:href="touch__event_8h.html" target="_top" xlink:title="mir_toolkit/events\l/input/touch_event.h">
<polygon fill="white" stroke="black" points="1794.46,-56.5 1794.46,-86.5 1899.46,-86.5 1899.46,-56.5 1794.46,-56.5"/>
<text text-anchor="start" x="1802.46" y="-74.5" font-family="Arial" font-size="10.00">mir_toolkit/events</text>
<text text-anchor="middle" x="1846.96" y="-63.5" font-family="Arial" font-size="10.00">/input/touch_event.h</text>
</a>
</g>
</g>
<!-- Node8&#45;&gt;Node11 -->
<g id="edge15" class="edge"><title>Node8&#45;&gt;Node11</title>
<path fill="none" stroke="midnightblue" d="M1846.96,-128.733C1846.96,-119.655 1846.96,-107.658 1846.96,-97.0773"/>
<polygon fill="midnightblue" stroke="midnightblue" points="1850.46,-96.7455 1846.96,-86.7455 1843.46,-96.7455 1850.46,-96.7455"/>
</g>
<!-- Node12 -->
<g id="node13" class="node"><title>Node12</title>
<g id="a_node13"><a xlink:href="keyboard__event_8h.html" target="_top" xlink:title="mir_toolkit/events\l/input/keyboard_event.h">
<polygon fill="white" stroke="black" points="1616.46,-56.5 1616.46,-86.5 1737.46,-86.5 1737.46,-56.5 1616.46,-56.5"/>
<text text-anchor="start" x="1624.46" y="-74.5" font-family="Arial" font-size="10.00">mir_toolkit/events</text>
<text text-anchor="middle" x="1676.96" y="-63.5" font-family="Arial" font-size="10.00">/input/keyboard_event.h</text>
</a>
</g>
</g>
<!-- Node8&#45;&gt;Node12 -->
<g id="edge16" class="edge"><title>Node8&#45;&gt;Node12</title>
<path fill="none" stroke="midnightblue" d="M1812.97,-128.903C1786.33,-117.856 1749.09,-102.41 1720.3,-90.4745"/>
<polygon fill="midnightblue" stroke="midnightblue" points="1721.47,-87.1706 1710.9,-86.5729 1718.79,-93.6366 1721.47,-87.1706"/>
</g>
<!-- Node14 -->
<g id="node15" class="node"><title>Node14</title>
<g id="a_node15"><a xlink:href="pointer__event_8h.html" target="_top" xlink:title="mir_toolkit/events\l/input/pointer_event.h">
<polygon fill="white" stroke="black" points="2077.96,-56.5 2077.96,-86.5 2187.96,-86.5 2187.96,-56.5 2077.96,-56.5"/>
<text text-anchor="start" x="2085.96" y="-74.5" font-family="Arial" font-size="10.00">mir_toolkit/events</text>
<text text-anchor="middle" x="2132.96" y="-63.5" font-family="Arial" font-size="10.00">/input/pointer_event.h</text>
</a>
</g>
</g>
<!-- Node8&#45;&gt;Node14 -->
<g id="edge18" class="edge"><title>Node8&#45;&gt;Node14</title>
<path fill="none" stroke="midnightblue" d="M1898.09,-130.396C1945.54,-118.7 2016.39,-101.235 2067.86,-88.5475"/>
<polygon fill="midnightblue" stroke="midnightblue" points="2069.01,-91.8685 2077.88,-86.0768 2067.34,-85.072 2069.01,-91.8685"/>
</g>
<!-- Node9&#45;&gt;Node5 -->
<g id="edge12" class="edge"><title>Node9&#45;&gt;Node5</title>
<path fill="none" stroke="midnightblue" d="M1921.88,-56.4747C1884.51,-45.5771 1833.6,-30.7291 1800.27,-21.0077"/>
<polygon fill="midnightblue" stroke="midnightblue" points="1801.11,-17.6054 1790.53,-18.1653 1799.15,-24.3254 1801.11,-17.6054"/>
</g>
<!-- Node13 -->
<g id="node14" class="node"><title>Node13</title>
<polygon fill="white" stroke="#bfbfbf" points="985.962,-0.5 985.962,-19.5 1119.96,-19.5 1119.96,-0.5 985.962,-0.5"/>
<text text-anchor="middle" x="1052.96" y="-7.5" font-family="Arial" font-size="10.00">xkbcommon/xkbcommon.h</text>
</g>
<!-- Node12&#45;&gt;Node13 -->
<g id="edge17" class="edge"><title>Node12&#45;&gt;Node13</title>
<path fill="none" stroke="midnightblue" d="M1616.28,-64.7137C1502.34,-53.8489 1256.55,-30.4124 1130.69,-18.4112"/>
<polygon fill="midnightblue" stroke="midnightblue" points="1130.65,-14.8918 1120.36,-17.4267 1129.98,-21.8602 1130.65,-14.8918"/>
</g>
<!-- Node14&#45;&gt;Node10 -->
<g id="edge19" class="edge"><title>Node14&#45;&gt;Node10</title>
<path fill="none" stroke="midnightblue" d="M2142.68,-56.3993C2148.51,-47.9315 2155.98,-37.0991 2162.15,-28.1393"/>
<polygon fill="midnightblue" stroke="midnightblue" points="2165.2,-29.8781 2168,-19.6578 2159.44,-25.9062 2165.2,-29.8781"/>
</g>
<!-- Node15&#45;&gt;Node3 -->
<g id="edge21" class="edge"><title>Node15&#45;&gt;Node3</title>
<path fill="none" stroke="midnightblue" d="M850.646,-159.025C856.818,-161.12 863.04,-163.184 868.962,-165 893.375,-172.487 953.24,-187.75 998.788,-199.546"/>
<polygon fill="midnightblue" stroke="midnightblue" points="998.005,-202.958 1008.56,-202.082 999.763,-196.183 998.005,-202.958"/>
</g>
<!-- Node16&#45;&gt;Node3 -->
<g id="edge23" class="edge"><title>Node16&#45;&gt;Node3</title>
<path fill="none" stroke="midnightblue" d="M615.956,-159.033C622.95,-161.335 630.112,-163.465 636.962,-165 793.612,-200.096 840.399,-175.061 998.751,-200.212"/>
<polygon fill="midnightblue" stroke="midnightblue" points="998.413,-203.703 1008.85,-201.859 999.54,-196.795 998.413,-203.703"/>
</g>
<!-- Node16&#45;&gt;Node7 -->
<g id="edge24" class="edge"><title>Node16&#45;&gt;Node7</title>
<path fill="none" stroke="midnightblue" d="M571.962,-128.733C571.962,-118.001 571.962,-103.187 571.962,-91.459"/>
<polygon fill="midnightblue" stroke="midnightblue" points="575.462,-91.3931 571.962,-81.3932 568.462,-91.3932 575.462,-91.3931"/>
</g>
<!-- Node17&#45;&gt;Node3 -->
<g id="edge26" class="edge"><title>Node17&#45;&gt;Node3</title>
<path fill="none" stroke="midnightblue" d="M1061.51,-159.246C1062.71,-168.414 1063.01,-180.568 1062.41,-191.232"/>
<polygon fill="midnightblue" stroke="midnightblue" points="1058.92,-190.959 1061.51,-201.233 1065.89,-191.588 1058.92,-190.959"/>
</g>
<!-- Node18&#45;&gt;Node3 -->
<g id="edge28" class="edge"><title>Node18&#45;&gt;Node3</title>
<path fill="none" stroke="midnightblue" d="M1154.33,-159.073C1138.14,-169.778 1113.9,-184.622 1093.47,-196.399"/>
<polygon fill="midnightblue" stroke="midnightblue" points="1091.64,-193.411 1084.68,-201.403 1095.11,-199.494 1091.64,-193.411"/>
</g>
<!-- Node19&#45;&gt;Node3 -->
<g id="edge30" class="edge"><title>Node19&#45;&gt;Node3</title>
<path fill="none" stroke="midnightblue" d="M1259.94,-159.083C1218.97,-171.189 1157.81,-188.583 1113.1,-200.85"/>
<polygon fill="midnightblue" stroke="midnightblue" points="1111.97,-197.528 1103.25,-203.541 1113.82,-204.281 1111.97,-197.528"/>
</g>
<!-- Node20&#45;&gt;Node3 -->
<g id="edge32" class="edge"><title>Node20&#45;&gt;Node3</title>
<path fill="none" stroke="midnightblue" d="M468.8,-159.057C476.506,-161.387 484.416,-163.521 491.962,-165 712.542,-208.226 776.598,-167.73 998.838,-200.298"/>
<polygon fill="midnightblue" stroke="midnightblue" points="998.447,-203.779 1008.86,-201.8 999.485,-196.856 998.447,-203.779"/>
</g>
<!-- Node20&#45;&gt;Node13 -->
<g id="edge33" class="edge"><title>Node20&#45;&gt;Node13</title>
<path fill="none" stroke="midnightblue" d="M429.706,-128.843C441.614,-108.653 466.489,-72.2376 498.962,-56 580.556,-15.2004 843.824,-10.1207 975.899,-10.2532"/>
<polygon fill="midnightblue" stroke="midnightblue" points="975.942,-13.7532 985.949,-10.2736 975.956,-6.75318 975.942,-13.7532"/>
</g>
<!-- Node21&#45;&gt;Node3 -->
<g id="edge35" class="edge"><title>Node21&#45;&gt;Node3</title>
<path fill="none" stroke="midnightblue" d="M738.557,-159.945C744.744,-161.822 750.98,-163.579 756.962,-165 861.628,-189.865 893.107,-180.754 998.716,-200.066"/>
<polygon fill="midnightblue" stroke="midnightblue" points="998.354,-203.559 1008.83,-201.959 999.643,-196.678 998.354,-203.559"/>
</g>
<!-- Node21&#45;&gt;Node7 -->
<g id="edge36" class="edge"><title>Node21&#45;&gt;Node7</title>
<path fill="none" stroke="midnightblue" d="M655.65,-123.362C636.418,-111.674 612.465,-97.1158 595.118,-86.5734"/>
<polygon fill="midnightblue" stroke="midnightblue" points="596.597,-83.3761 586.233,-81.1734 592.961,-89.358 596.597,-83.3761"/>
</g>
<!-- Node22&#45;&gt;Node3 -->
<g id="edge38" class="edge"><title>Node22&#45;&gt;Node3</title>
<path fill="none" stroke="midnightblue" d="M960.637,-159.073C981.1,-169.73 1007.67,-184.489 1027.63,-196.241"/>
<polygon fill="midnightblue" stroke="midnightblue" points="1025.91,-199.29 1036.29,-201.403 1029.49,-193.277 1025.91,-199.29"/>
</g>
<!-- Node22&#45;&gt;Node7 -->
<g id="edge39" class="edge"><title>Node22&#45;&gt;Node7</title>
<path fill="none" stroke="midnightblue" d="M883.448,-128.976C875.643,-126.834 867.599,-124.756 859.962,-123 785.873,-105.969 699.908,-91.5824 641.317,-82.5742"/>
<polygon fill="midnightblue" stroke="midnightblue" points="641.482,-79.0588 631.068,-81.0104 640.426,-85.9787 641.482,-79.0588"/>
</g>
<!-- Node23&#45;&gt;Node3 -->
<g id="edge41" class="edge"><title>Node23&#45;&gt;Node3</title>
<path fill="none" stroke="midnightblue" d="M1408.72,-159.034C1400.92,-161.199 1392.74,-163.282 1384.96,-165 1290.87,-185.786 1179.39,-201.369 1113.24,-209.403"/>
<polygon fill="midnightblue" stroke="midnightblue" points="1112.54,-205.963 1103.02,-210.627 1113.37,-212.913 1112.54,-205.963"/>
</g>
<!-- Node24&#45;&gt;Node3 -->
<g id="edge43" class="edge"><title>Node24&#45;&gt;Node3</title>
<path fill="none" stroke="midnightblue" d="M1526.87,-164.566C1526.23,-164.715 1525.6,-164.86 1524.96,-165 1379.15,-197.313 1202.55,-209.326 1113.31,-213.482"/>
<polygon fill="midnightblue" stroke="midnightblue" points="1112.97,-209.994 1103.13,-213.94 1113.28,-216.987 1112.97,-209.994"/>
</g>
<!-- Node27&#45;&gt;Node25 -->
<g id="edge59" class="edge"><title>Node27&#45;&gt;Node25</title>
<path fill="none" stroke="midnightblue" d="M643.357,-458.399C611.467,-448.087 568.732,-434.268 538.818,-424.595"/>
<polygon fill="midnightblue" stroke="midnightblue" points="539.791,-421.231 529.2,-421.484 537.638,-427.892 539.791,-421.231"/>
</g>
<!-- Node28 -->
<g id="node29" class="node"><title>Node28</title>
<g id="a_node29"><a xlink:href="mir__connection_8h.html" target="_top" xlink:title="mir_toolkit/mir_connection.h">
<polygon fill="white" stroke="black" points="911.462,-341 911.462,-360 1050.46,-360 1050.46,-341 911.462,-341"/>
<text text-anchor="middle" x="980.962" y="-348" font-family="Arial" font-size="10.00">mir_toolkit/mir_connection.h</text>
</a>
</g>
</g>
<!-- Node27&#45;&gt;Node28 -->
<g id="edge50" class="edge"><title>Node27&#45;&gt;Node28</title>
<path fill="none" stroke="midnightblue" d="M721.263,-458.383C779.158,-434.556 895.338,-386.74 950.519,-364.029"/>
<polygon fill="midnightblue" stroke="midnightblue" points="952.17,-367.135 960.085,-360.092 949.506,-360.662 952.17,-367.135"/>
</g>
<!-- Node29 -->
<g id="node30" class="node"><title>Node29</title>
<g id="a_node30"><a xlink:href="mir__display__configuration_8h.html" target="_top" xlink:title="mir_toolkit/mir_display\l_configuration.h">
<polygon fill="white" stroke="black" points="619.962,-335.5 619.962,-365.5 733.962,-365.5 733.962,-335.5 619.962,-335.5"/>
<text text-anchor="start" x="627.962" y="-353.5" font-family="Arial" font-size="10.00">mir_toolkit/mir_display</text>
<text text-anchor="middle" x="676.962" y="-342.5" font-family="Arial" font-size="10.00">_configuration.h</text>
</a>
</g>
</g>
<!-- Node27&#45;&gt;Node29 -->
<g id="edge55" class="edge"><title>Node27&#45;&gt;Node29</title>
<path fill="none" stroke="midnightblue" d="M685.776,-458.145C684.099,-437.859 681.014,-400.533 678.975,-375.862"/>
<polygon fill="midnightblue" stroke="midnightblue" points="682.459,-375.514 678.147,-365.837 675.483,-376.091 682.459,-375.514"/>
</g>
<!-- Node30 -->
<g id="node31" class="node"><title>Node30</title>
<polygon fill="white" stroke="#bfbfbf" points="705.462,-402.5 705.462,-421.5 764.462,-421.5 764.462,-402.5 705.462,-402.5"/>
<text text-anchor="middle" x="734.962" y="-409.5" font-family="Arial" font-size="10.00">functional</text>
</g>
<!-- Node27&#45;&gt;Node30 -->
<g id="edge58" class="edge"><title>Node27&#45;&gt;Node30</title>
<path fill="none" stroke="midnightblue" d="M698.337,-458.399C705.312,-449.753 714.276,-438.642 721.59,-429.576"/>
<polygon fill="midnightblue" stroke="midnightblue" points="724.423,-431.638 727.978,-421.658 718.975,-427.243 724.423,-431.638"/>
</g>
<!-- Node28&#45;&gt;Node2 -->
<g id="edge51" class="edge"><title>Node28&#45;&gt;Node2</title>
<path fill="none" stroke="midnightblue" d="M922.065,-340.936C834.814,-328.248 672.462,-304.64 588.062,-292.367"/>
<polygon fill="midnightblue" stroke="midnightblue" points="588.566,-288.903 578.167,-290.928 587.559,-295.831 588.566,-288.903"/>
</g>
<!-- Node28&#45;&gt;Node6 -->
<g id="edge52" class="edge"><title>Node28&#45;&gt;Node6</title>
<path fill="none" stroke="midnightblue" d="M947.33,-340.947C847.596,-315.477 544.906,-237.392 295.962,-165 286.85,-162.35 277.052,-159.36 267.929,-156.515"/>
<polygon fill="midnightblue" stroke="midnightblue" points="268.947,-153.167 258.358,-153.508 266.849,-159.845 268.947,-153.167"/>
</g>
<!-- Node28&#45;&gt;Node7 -->
<g id="edge53" class="edge"><title>Node28&#45;&gt;Node7</title>
<path fill="none" stroke="midnightblue" d="M1050.65,-348.944C1260.31,-345.131 1859.64,-317.383 1673.96,-123 1638.46,-85.8384 887.626,-75.4907 646.093,-73.118"/>
<polygon fill="midnightblue" stroke="midnightblue" points="646.037,-69.6174 636.004,-73.0207 645.97,-76.6171 646.037,-69.6174"/>
</g>
<!-- Node28&#45;&gt;Node10 -->
<g id="edge54" class="edge"><title>Node28&#45;&gt;Node10</title>
<path fill="none" stroke="midnightblue" d="M1050.9,-349.423C1312.16,-348.227 2215.96,-335.558 2215.96,-217.5 2215.96,-217.5 2215.96,-217.5 2215.96,-143 2215.96,-103.422 2210.3,-93.2625 2196.96,-56 2193.6,-46.6037 2188.68,-36.6731 2184.26,-28.5381"/>
<polygon fill="midnightblue" stroke="midnightblue" points="2187.21,-26.6467 2179.24,-19.6624 2181.12,-30.0905 2187.21,-26.6467"/>
</g>
<!-- Node29&#45;&gt;Node2 -->
<g id="edge56" class="edge"><title>Node29&#45;&gt;Node2</title>
<path fill="none" stroke="midnightblue" d="M645.933,-335.396C624.946,-325.856 597.021,-313.163 574.309,-302.84"/>
<polygon fill="midnightblue" stroke="midnightblue" points="575.482,-299.528 564.93,-298.577 572.586,-305.901 575.482,-299.528"/>
</g>
<!-- Node29&#45;&gt;Node7 -->
<g id="edge57" class="edge"><title>Node29&#45;&gt;Node7</title>
<path fill="none" stroke="midnightblue" d="M734.145,-345.754C961.88,-329.821 1785.67,-262.049 1652.96,-123 1618.25,-86.6314 885.72,-75.7745 646.676,-73.1936"/>
<polygon fill="midnightblue" stroke="midnightblue" points="646.383,-69.6904 636.346,-73.0839 646.309,-76.69 646.383,-69.6904"/>
</g>
<!-- Node31&#45;&gt;Node25 -->
<g id="edge79" class="edge"><title>Node31&#45;&gt;Node25</title>
<path fill="none" stroke="midnightblue" d="M494.952,-525.365C504.415,-517.171 517.398,-503.917 522.962,-489 530.238,-469.496 521.736,-446.244 513.68,-430.64"/>
<polygon fill="midnightblue" stroke="midnightblue" points="516.56,-428.621 508.62,-421.606 510.453,-432.041 516.56,-428.621"/>
</g>
<!-- Node32 -->
<g id="node33" class="node"><title>Node32</title>
<g id="a_node33"><a xlink:href="client_2surface_8h.html" target="_top" xlink:title="mir/client/surface.h">
<polygon fill="white" stroke="black" points="335.962,-464 335.962,-483 435.962,-483 435.962,-464 335.962,-464"/>
<text text-anchor="middle" x="385.962" y="-471" font-family="Arial" font-size="10.00">mir/client/surface.h</text>
</a>
</g>
</g>
<!-- Node31&#45;&gt;Node32 -->
<g id="edge61" class="edge"><title>Node31&#45;&gt;Node32</title>
<path fill="none" stroke="midnightblue" d="M469.921,-525.475C453.911,-515.755 427.512,-499.727 408.588,-488.237"/>
<polygon fill="midnightblue" stroke="midnightblue" points="410.341,-485.207 399.977,-483.009 406.709,-491.191 410.341,-485.207"/>
</g>
<!-- Node34 -->
<g id="node35" class="node"><title>Node34</title>
<g id="a_node35"><a xlink:href="client_2mir_2client_2window_8h.html" target="_top" xlink:title="mir/client/window.h">
<polygon fill="white" stroke="black" points="219.962,-464 219.962,-483 317.962,-483 317.962,-464 219.962,-464"/>
<text text-anchor="middle" x="268.962" y="-471" font-family="Arial" font-size="10.00">mir/client/window.h</text>
</a>
</g>
</g>
<!-- Node31&#45;&gt;Node34 -->
<g id="edge66" class="edge"><title>Node31&#45;&gt;Node34</title>
<path fill="none" stroke="midnightblue" d="M458.454,-526.941C421.717,-516.774 353.526,-497.903 309.748,-485.787"/>
<polygon fill="midnightblue" stroke="midnightblue" points="310.559,-482.38 299.988,-483.086 308.692,-489.127 310.559,-482.38"/>
</g>
<!-- Node38 -->
<g id="node39" class="node"><title>Node38</title>
<polygon fill="white" stroke="#bfbfbf" points="453.962,-464 453.962,-483 513.962,-483 513.962,-464 453.962,-464"/>
<text text-anchor="middle" x="483.962" y="-471" font-family="Arial" font-size="10.00">EGL/egl.h</text>
</g>
<!-- Node31&#45;&gt;Node38 -->
<g id="edge78" class="edge"><title>Node31&#45;&gt;Node38</title>
<path fill="none" stroke="midnightblue" d="M483.962,-525.475C483.962,-517.08 483.962,-503.981 483.962,-493.163"/>
<polygon fill="midnightblue" stroke="midnightblue" points="487.462,-493.009 483.962,-483.009 480.462,-493.009 487.462,-493.009"/>
</g>
<!-- Node32&#45;&gt;Node25 -->
<g id="edge65" class="edge"><title>Node32&#45;&gt;Node25</title>
<path fill="none" stroke="midnightblue" d="M402.725,-463.975C422.187,-454.078 454.507,-437.642 477.173,-426.115"/>
<polygon fill="midnightblue" stroke="midnightblue" points="478.903,-429.162 486.23,-421.509 475.73,-422.922 478.903,-429.162"/>
</g>
<!-- Node33 -->
<g id="node34" class="node"><title>Node33</title>
<g id="a_node34"><a xlink:href="client_2mir__toolkit_2rs_2mir__render__surface_8h.html" target="_top" xlink:title="mir_toolkit/rs/mir\l_render_surface.h">
<polygon fill="white" stroke="black" points="370.462,-335.5 370.462,-365.5 465.462,-365.5 465.462,-335.5 370.462,-335.5"/>
<text text-anchor="start" x="378.462" y="-353.5" font-family="Arial" font-size="10.00">mir_toolkit/rs/mir</text>
<text text-anchor="middle" x="417.962" y="-342.5" font-family="Arial" font-size="10.00">_render_surface.h</text>
</a>
</g>
</g>
<!-- Node32&#45;&gt;Node33 -->
<g id="edge62" class="edge"><title>Node32&#45;&gt;Node33</title>
<path fill="none" stroke="midnightblue" d="M388.263,-463.798C393.096,-445.524 404.447,-402.604 411.633,-375.433"/>
<polygon fill="midnightblue" stroke="midnightblue" points="415.076,-376.102 414.249,-365.539 408.309,-374.312 415.076,-376.102"/>
</g>
<!-- Node33&#45;&gt;Node2 -->
<g id="edge63" class="edge"><title>Node33&#45;&gt;Node2</title>
<path fill="none" stroke="midnightblue" d="M443.132,-335.396C459.701,-326.112 481.6,-313.841 499.743,-303.674"/>
<polygon fill="midnightblue" stroke="midnightblue" points="501.828,-306.518 508.841,-298.577 498.406,-300.412 501.828,-306.518"/>
</g>
<!-- Node33&#45;&gt;Node7 -->
<g id="edge64" class="edge"><title>Node33&#45;&gt;Node7</title>
<path fill="none" stroke="midnightblue" d="M379.16,-335.482C291.084,-301.662 89.5704,-211.801 167.962,-123 189.368,-98.752 386.69,-83.3621 497.431,-76.5592"/>
<polygon fill="midnightblue" stroke="midnightblue" points="497.771,-80.0451 507.541,-75.9472 497.348,-73.0579 497.771,-80.0451"/>
</g>
<!-- Node34&#45;&gt;Node25 -->
<g id="edge77" class="edge"><title>Node34&#45;&gt;Node25</title>
<path fill="none" stroke="midnightblue" d="M302.489,-463.975C346.102,-452.885 422.005,-433.585 466.852,-422.182"/>
<polygon fill="midnightblue" stroke="midnightblue" points="467.908,-425.525 476.737,-419.668 466.183,-418.741 467.908,-425.525"/>
</g>
<!-- Node35 -->
<g id="node36" class="node"><title>Node35</title>
<g id="a_node36"><a xlink:href="mir__window_8h.html" target="_top" xlink:title="mir_toolkit/mir_window.h">
<polygon fill="white" stroke="black" points="197.962,-402.5 197.962,-421.5 319.962,-421.5 319.962,-402.5 197.962,-402.5"/>
<text text-anchor="middle" x="258.962" y="-409.5" font-family="Arial" font-size="10.00">mir_toolkit/mir_window.h</text>
</a>
</g>
</g>
<!-- Node34&#45;&gt;Node35 -->
<g id="edge67" class="edge"><title>Node34&#45;&gt;Node35</title>
<path fill="none" stroke="midnightblue" d="M267.529,-463.975C266.118,-455.58 263.917,-442.481 262.099,-431.663"/>
<polygon fill="midnightblue" stroke="midnightblue" points="265.501,-430.791 260.392,-421.509 258.598,-431.951 265.501,-430.791"/>
</g>
<!-- Node35&#45;&gt;Node2 -->
<g id="edge69" class="edge"><title>Node35&#45;&gt;Node2</title>
<path fill="none" stroke="midnightblue" d="M271.905,-402.3C284.972,-393.424 305.642,-379.127 322.962,-366 340.332,-352.834 341.671,-345.145 360.962,-335 398.39,-315.316 444.52,-302.341 479.73,-294.476"/>
<polygon fill="midnightblue" stroke="midnightblue" points="480.784,-297.829 489.819,-292.295 479.305,-290.987 480.784,-297.829"/>
</g>
<!-- Node35&#45;&gt;Node6 -->
<g id="edge70" class="edge"><title>Node35&#45;&gt;Node6</title>
<path fill="none" stroke="midnightblue" d="M237.479,-402.36C222.571,-395.09 203.851,-383.117 194.962,-366 159.171,-297.082 201.696,-201.266 222.162,-162.406"/>
<polygon fill="midnightblue" stroke="midnightblue" points="225.243,-164.067 226.939,-153.608 219.091,-160.726 225.243,-164.067"/>
</g>
<!-- Node35&#45;&gt;Node7 -->
<g id="edge75" class="edge"><title>Node35&#45;&gt;Node7</title>
<path fill="none" stroke="midnightblue" d="M197.918,-406.938C135.976,-401.548 45.7775,-389.79 20.9621,-366 -5.88631,-340.261 1.9621,-321.694 1.9621,-284.5 1.9621,-284.5 1.9621,-284.5 1.9621,-215.5 1.9621,-146.744 62.0306,-148.301 125.962,-123 191.768,-96.9575 388.725,-82.4475 497.591,-76.2153"/>
<polygon fill="midnightblue" stroke="midnightblue" points="498.056,-79.6947 507.844,-75.6379 497.663,-72.7058 498.056,-79.6947"/>
</g>
<!-- Node35&#45;&gt;Node10 -->
<g id="edge76" class="edge"><title>Node35&#45;&gt;Node10</title>
<path fill="none" stroke="midnightblue" d="M320.032,-407.946C654.976,-391.096 2253.96,-309.356 2253.96,-284.5 2253.96,-284.5 2253.96,-284.5 2253.96,-143 2253.96,-95.09 2214.94,-49.7165 2191.4,-26.7049"/>
<polygon fill="midnightblue" stroke="midnightblue" points="2193.76,-24.1185 2184.09,-19.7869 2188.95,-29.2027 2193.76,-24.1185"/>
</g>
<!-- Node36 -->
<g id="node37" class="node"><title>Node36</title>
<g id="a_node37"><a xlink:href="mir__native__buffer_8h.html" target="_top" xlink:title="mir_toolkit/mir_native\l_buffer.h">
<polygon fill="white" stroke="black" points="29.9621,-335.5 29.9621,-365.5 139.962,-365.5 139.962,-335.5 29.9621,-335.5"/>
<text text-anchor="start" x="37.9621" y="-353.5" font-family="Arial" font-size="10.00">mir_toolkit/mir_native</text>
<text text-anchor="middle" x="84.9621" y="-342.5" font-family="Arial" font-size="10.00">_buffer.h</text>
</a>
</g>
</g>
<!-- Node35&#45;&gt;Node36 -->
<g id="edge68" class="edge"><title>Node35&#45;&gt;Node36</title>
<path fill="none" stroke="midnightblue" d="M234.032,-402.475C208.484,-393.739 168.036,-379.907 135.715,-368.855"/>
<polygon fill="midnightblue" stroke="midnightblue" points="136.565,-365.447 125.97,-365.523 134.3,-372.07 136.565,-365.447"/>
</g>
<!-- Node37 -->
<g id="node38" class="node"><title>Node37</title>
<g id="a_node38"><a xlink:href="mir__cursor__configuration_8h.html" target="_top" xlink:title="mir_toolkit/mir_cursor\l_configuration.h">
<polygon fill="white" stroke="black" points="203.962,-335.5 203.962,-365.5 313.962,-365.5 313.962,-335.5 203.962,-335.5"/>
<text text-anchor="start" x="211.962" y="-353.5" font-family="Arial" font-size="10.00">mir_toolkit/mir_cursor</text>
<text text-anchor="middle" x="258.962" y="-342.5" font-family="Arial" font-size="10.00">_configuration.h</text>
</a>
</g>
</g>
<!-- Node35&#45;&gt;Node37 -->
<g id="edge71" class="edge"><title>Node35&#45;&gt;Node37</title>
<path fill="none" stroke="midnightblue" d="M258.962,-402.475C258.962,-395.471 258.962,-385.192 258.962,-375.696"/>
<polygon fill="midnightblue" stroke="midnightblue" points="262.462,-375.523 258.962,-365.523 255.462,-375.523 262.462,-375.523"/>
</g>
<!-- Node37&#45;&gt;Node2 -->
<g id="edge73" class="edge"><title>Node37&#45;&gt;Node2</title>
<path fill="none" stroke="midnightblue" d="M314.282,-336.424C362.457,-325.038 431.891,-308.626 479.74,-297.316"/>
<polygon fill="midnightblue" stroke="midnightblue" points="480.681,-300.69 489.607,-294.984 479.07,-293.878 480.681,-300.69"/>
</g>
<!-- Node37&#45;&gt;Node6 -->
<g id="edge72" class="edge"><title>Node37&#45;&gt;Node6</title>
<path fill="none" stroke="midnightblue" d="M257.106,-335.444C252.368,-299.558 239.821,-204.525 234.454,-163.876"/>
<polygon fill="midnightblue" stroke="midnightblue" points="237.895,-163.198 233.116,-153.742 230.955,-164.114 237.895,-163.198"/>
</g>
<!-- Node37&#45;&gt;Node7 -->
<g id="edge74" class="edge"><title>Node37&#45;&gt;Node7</title>
<path fill="none" stroke="midnightblue" d="M241.595,-335.244C197.106,-297.081 86.6594,-190.892 146.962,-123 169.804,-97.2838 381.94,-82.3492 497.592,-76.0531"/>
<polygon fill="midnightblue" stroke="midnightblue" points="497.994,-79.5367 507.792,-75.5066 497.619,-72.5467 497.994,-79.5367"/>
</g>
</g>
</svg>
