<?xml version="1.0" encoding="UTF-8" standalone="no"?>
<!DOCTYPE svg PUBLIC "-//W3C//DTD SVG 1.1//EN"
 "http://www.w3.org/Graphics/SVG/1.1/DTD/svg11.dtd">
<!-- Generated by graphviz version 2.43.0 (0)
 -->
<!-- Title: examples/miral&#45;shell/spinner/eglapp.h Pages: 1 -->
<svg width="132pt" height="95pt"
 viewBox="0.00 0.00 132.00 95.00" xmlns="http://www.w3.org/2000/svg" xmlns:xlink="http://www.w3.org/1999/xlink">
<g id="graph0" class="graph" transform="scale(1 1) rotate(0) translate(4 91)">
<title>examples/miral&#45;shell/spinner/eglapp.h</title>
<polygon fill="white" stroke="transparent" points="-4,4 -4,-91 128,-91 128,4 -4,4"/>
<!-- Node1 -->
<g id="node1" class="node">
<title>Node1</title>
<g id="a_node1"><a xlink:title=" ">
<polygon fill="#bfbfbf" stroke="black" points="4,-56.5 4,-86.5 124,-86.5 124,-56.5 4,-56.5"/>
<text text-anchor="start" x="12" y="-74.5" font-family="Arial" font-size="10.00">examples/miral&#45;shell</text>
<text text-anchor="middle" x="64" y="-63.5" font-family="Arial" font-size="10.00">/spinner/eglapp.h</text>
</a>
</g>
</g>
<!-- Node2 -->
<g id="node2" class="node">
<title>Node2</title>
<g id="a_node2"><a xlink:title=" ">
<polygon fill="white" stroke="#bfbfbf" points="0,-0.5 0,-19.5 58,-19.5 58,-0.5 0,-0.5"/>
<text text-anchor="middle" x="29" y="-7.5" font-family="Arial" font-size="10.00">memory</text>
</a>
</g>
</g>
<!-- Node1&#45;&gt;Node2 -->
<g id="edge1" class="edge">
<title>Node1&#45;&gt;Node2</title>
<path fill="none" stroke="midnightblue" d="M55.71,-56.4C50.78,-48.02 44.49,-37.33 39.25,-28.42"/>
<polygon fill="midnightblue" stroke="midnightblue" points="42.18,-26.5 34.09,-19.66 36.15,-30.05 42.18,-26.5"/>
</g>
<!-- Node3 -->
<g id="node3" class="node">
<title>Node3</title>
<g id="a_node3"><a xlink:title=" ">
<polygon fill="white" stroke="#bfbfbf" points="76.5,-0.5 76.5,-19.5 123.5,-19.5 123.5,-0.5 76.5,-0.5"/>
<text text-anchor="middle" x="100" y="-7.5" font-family="Arial" font-size="10.00">vector</text>
</a>
</g>
</g>
<!-- Node1&#45;&gt;Node3 -->
<g id="edge2" class="edge">
<title>Node1&#45;&gt;Node3</title>
<path fill="none" stroke="midnightblue" d="M72.53,-56.4C77.6,-48.02 84.07,-37.33 89.46,-28.42"/>
<polygon fill="midnightblue" stroke="midnightblue" points="92.58,-30.03 94.76,-19.66 86.59,-26.4 92.58,-30.03"/>
</g>
</g>
</svg>
