<?xml version="1.0" encoding="UTF-8" standalone="no"?>
<!DOCTYPE svg PUBLIC "-//W3C//DTD SVG 1.1//EN"
 "http://www.w3.org/Graphics/SVG/1.1/DTD/svg11.dtd">
<!-- Generated by graphviz version 2.38.0 (20140413.2041)
 -->
<!-- Title: examples/miral&#45;shell/spinner/eglapp.h Pages: 1 -->
<svg width="248pt" height="106pt"
 viewBox="0.00 0.00 248.00 106.00" xmlns="http://www.w3.org/2000/svg" xmlns:xlink="http://www.w3.org/1999/xlink">
<g id="graph0" class="graph" transform="scale(1 1) rotate(0) translate(4 102)">
<title>examples/miral&#45;shell/spinner/eglapp.h</title>
<polygon fill="white" stroke="none" points="-4,4 -4,-102 244,-102 244,4 -4,4"/>
<!-- Node26 -->
<g id="node1" class="node"><title>Node26</title>
<polygon fill="#bfbfbf" stroke="black" points="64,-67.5 64,-97.5 170,-97.5 170,-67.5 64,-67.5"/>
<text text-anchor="start" x="72" y="-85.5" font-family="Arial" font-size="10.00">examples/miral&#45;shell</text>
<text text-anchor="middle" x="117" y="-74.5" font-family="Arial" font-size="10.00">/spinner/eglapp.h</text>
</g>
<!-- Node27 -->
<g id="node2" class="node"><title>Node27</title>
<g id="a_node2"><a xlink:href="eglapp_8cpp.html" target="_top" xlink:title="examples/miral&#45;shell\l/spinner/eglapp.cpp">
<polygon fill="white" stroke="black" points="0,-0.5 0,-30.5 106,-30.5 106,-0.5 0,-0.5"/>
<text text-anchor="start" x="8" y="-18.5" font-family="Arial" font-size="10.00">examples/miral&#45;shell</text>
<text text-anchor="middle" x="53" y="-7.5" font-family="Arial" font-size="10.00">/spinner/eglapp.cpp</text>
</a>
</g>
</g>
<!-- Node26&#45;&gt;Node27 -->
<g id="edge1" class="edge"><title>Node26&#45;&gt;Node27</title>
<path fill="none" stroke="midnightblue" d="M95.8546,-60.0243C86.3192,-50.3398 75.3251,-39.1739 66.8599,-30.5765"/>
<polygon fill="midnightblue" stroke="midnightblue" points="93.6029,-62.7259 103.113,-67.396 98.5909,-57.8146 93.6029,-62.7259"/>
</g>
<!-- Node28 -->
<g id="node3" class="node"><title>Node28</title>
<g id="a_node3"><a xlink:href="eglspinner_8cpp.html" target="_top" xlink:title="examples/miral&#45;shell\l/spinner/eglspinner.cpp">
<polygon fill="white" stroke="black" points="124,-0.5 124,-30.5 240,-30.5 240,-0.5 124,-0.5"/>
<text text-anchor="start" x="132" y="-18.5" font-family="Arial" font-size="10.00">examples/miral&#45;shell</text>
<text text-anchor="middle" x="182" y="-7.5" font-family="Arial" font-size="10.00">/spinner/eglspinner.cpp</text>
</a>
</g>
</g>
<!-- Node26&#45;&gt;Node28 -->
<g id="edge2" class="edge"><title>Node26&#45;&gt;Node28</title>
<path fill="none" stroke="midnightblue" d="M138.189,-60.3115C147.939,-50.5612 159.241,-39.259 167.923,-30.5765"/>
<polygon fill="midnightblue" stroke="midnightblue" points="135.7,-57.85 131.104,-67.396 140.65,-62.7998 135.7,-57.85"/>
</g>
</g>
</svg>
