<?xml version="1.0" encoding="UTF-8" standalone="no"?>
<!DOCTYPE svg PUBLIC "-//W3C//DTD SVG 1.1//EN"
 "http://www.w3.org/Graphics/SVG/1.1/DTD/svg11.dtd">
<!-- Generated by graphviz version 2.43.0 (0)
 -->
<!-- Title: examples/miral&#45;shell/spinner/eglspinner.cpp Pages: 1 -->
<svg width="848pt" height="375pt"
 viewBox="0.00 0.00 847.50 375.00" xmlns="http://www.w3.org/2000/svg" xmlns:xlink="http://www.w3.org/1999/xlink">
<g id="graph0" class="graph" transform="scale(1 1) rotate(0) translate(4 371)">
<title>examples/miral&#45;shell/spinner/eglspinner.cpp</title>
<polygon fill="white" stroke="transparent" points="-4,4 -4,-371 843.5,-371 843.5,4 -4,4"/>
<!-- Node1 -->
<g id="node1" class="node">
<title>Node1</title>
<g id="a_node1"><a xlink:title=" ">
<polygon fill="#bfbfbf" stroke="black" points="343,-336.5 343,-366.5 472,-366.5 472,-336.5 343,-336.5"/>
<text text-anchor="start" x="351" y="-354.5" font-family="Arial" font-size="10.00">examples/miral&#45;shell</text>
<text text-anchor="middle" x="407.5" y="-343.5" font-family="Arial" font-size="10.00">/spinner/eglspinner.cpp</text>
</a>
</g>
</g>
<!-- Node2 -->
<g id="node2" class="node">
<title>Node2</title>
<g id="a_node2"><a xlink:href="splash_8h.html" target="_top" xlink:title=" ">
<polygon fill="white" stroke="black" points="44,-280.5 44,-299.5 101,-299.5 101,-280.5 44,-280.5"/>
<text text-anchor="middle" x="72.5" y="-287.5" font-family="Arial" font-size="10.00">splash.h</text>
</a>
</g>
</g>
<!-- Node1&#45;&gt;Node2 -->
<g id="edge1" class="edge">
<title>Node1&#45;&gt;Node2</title>
<path fill="none" stroke="midnightblue" d="M342.96,-339.87C283.93,-330.01 194.22,-314.69 116.5,-300 114.81,-299.68 113.09,-299.35 111.36,-299.01"/>
<polygon fill="midnightblue" stroke="midnightblue" points="111.84,-295.54 101.35,-297.03 110.48,-302.41 111.84,-295.54"/>
</g>
<!-- Node5 -->
<g id="node5" class="node">
<title>Node5</title>
<g id="a_node5"><a xlink:href="eglapp_8h.html" target="_top" xlink:title=" ">
<polygon fill="white" stroke="black" points="126,-280.5 126,-299.5 185,-299.5 185,-280.5 126,-280.5"/>
<text text-anchor="middle" x="155.5" y="-287.5" font-family="Arial" font-size="10.00">eglapp.h</text>
</a>
</g>
</g>
<!-- Node1&#45;&gt;Node5 -->
<g id="edge4" class="edge">
<title>Node1&#45;&gt;Node5</title>
<path fill="none" stroke="midnightblue" d="M348,-336.47C307.41,-326.9 252.14,-313.86 195.26,-300.41"/>
<polygon fill="midnightblue" stroke="midnightblue" points="195.91,-296.97 185.37,-298.08 194.3,-303.78 195.91,-296.97"/>
</g>
<!-- Node7 -->
<g id="node7" class="node">
<title>Node7</title>
<g id="a_node7"><a xlink:href="miregl_8h.html" target="_top" xlink:title=" ">
<polygon fill="white" stroke="black" points="203,-280.5 203,-299.5 260,-299.5 260,-280.5 203,-280.5"/>
<text text-anchor="middle" x="231.5" y="-287.5" font-family="Arial" font-size="10.00">miregl.h</text>
</a>
</g>
</g>
<!-- Node1&#45;&gt;Node7 -->
<g id="edge7" class="edge">
<title>Node1&#45;&gt;Node7</title>
<path fill="none" stroke="midnightblue" d="M365.79,-336.4C335.51,-326.16 295.01,-312.47 266.43,-302.81"/>
<polygon fill="midnightblue" stroke="midnightblue" points="267.45,-299.46 256.85,-299.57 265.2,-306.09 267.45,-299.46"/>
</g>
<!-- Node22 -->
<g id="node22" class="node">
<title>Node22</title>
<g id="a_node22"><a xlink:title=" ">
<polygon fill="white" stroke="#bfbfbf" points="278.5,-280.5 278.5,-299.5 334.5,-299.5 334.5,-280.5 278.5,-280.5"/>
<text text-anchor="middle" x="306.5" y="-287.5" font-family="Arial" font-size="10.00">assert.h</text>
</a>
</g>
</g>
<!-- Node1&#45;&gt;Node22 -->
<g id="edge28" class="edge">
<title>Node1&#45;&gt;Node22</title>
<path fill="none" stroke="midnightblue" d="M383.56,-336.4C367.37,-326.86 346.09,-314.32 330,-304.84"/>
<polygon fill="midnightblue" stroke="midnightblue" points="331.59,-301.72 321.2,-299.66 328.04,-307.75 331.59,-301.72"/>
</g>
<!-- Node23 -->
<g id="node23" class="node">
<title>Node23</title>
<g id="a_node23"><a xlink:title=" ">
<polygon fill="white" stroke="#bfbfbf" points="352.5,-280.5 352.5,-299.5 396.5,-299.5 396.5,-280.5 352.5,-280.5"/>
<text text-anchor="middle" x="374.5" y="-287.5" font-family="Arial" font-size="10.00">glib.h</text>
</a>
</g>
</g>
<!-- Node1&#45;&gt;Node23 -->
<g id="edge29" class="edge">
<title>Node1&#45;&gt;Node23</title>
<path fill="none" stroke="midnightblue" d="M399.68,-336.4C395.03,-328.02 389.1,-317.33 384.16,-308.42"/>
<polygon fill="midnightblue" stroke="midnightblue" points="387.21,-306.71 379.3,-299.66 381.09,-310.1 387.21,-306.71"/>
</g>
<!-- Node24 -->
<g id="node24" class="node">
<title>Node24</title>
<g id="a_node24"><a xlink:title=" ">
<polygon fill="white" stroke="#bfbfbf" points="415,-280.5 415,-299.5 468,-299.5 468,-280.5 415,-280.5"/>
<text text-anchor="middle" x="441.5" y="-287.5" font-family="Arial" font-size="10.00">string.h</text>
</a>
</g>
</g>
<!-- Node1&#45;&gt;Node24 -->
<g id="edge30" class="edge">
<title>Node1&#45;&gt;Node24</title>
<path fill="none" stroke="midnightblue" d="M415.56,-336.4C420.35,-328.02 426.46,-317.33 431.54,-308.42"/>
<polygon fill="midnightblue" stroke="midnightblue" points="434.63,-310.08 436.55,-299.66 428.55,-306.6 434.63,-310.08"/>
</g>
<!-- Node25 -->
<g id="node25" class="node">
<title>Node25</title>
<g id="a_node25"><a xlink:title=" ">
<polygon fill="white" stroke="#bfbfbf" points="486.5,-280.5 486.5,-299.5 560.5,-299.5 560.5,-280.5 486.5,-280.5"/>
<text text-anchor="middle" x="523.5" y="-287.5" font-family="Arial" font-size="10.00">GLES2/gl2.h</text>
</a>
</g>
</g>
<!-- Node1&#45;&gt;Node25 -->
<g id="edge31" class="edge">
<title>Node1&#45;&gt;Node25</title>
<path fill="none" stroke="midnightblue" d="M434.99,-336.4C453.93,-326.68 478.94,-313.86 497.54,-304.31"/>
<polygon fill="midnightblue" stroke="midnightblue" points="499.32,-307.34 506.62,-299.66 496.13,-301.11 499.32,-307.34"/>
</g>
<!-- Node26 -->
<g id="node26" class="node">
<title>Node26</title>
<g id="a_node26"><a xlink:title=" ">
<polygon fill="white" stroke="#bfbfbf" points="578.5,-280.5 578.5,-299.5 626.5,-299.5 626.5,-280.5 578.5,-280.5"/>
<text text-anchor="middle" x="602.5" y="-287.5" font-family="Arial" font-size="10.00">mutex</text>
</a>
</g>
</g>
<!-- Node1&#45;&gt;Node26 -->
<g id="edge32" class="edge">
<title>Node1&#45;&gt;Node26</title>
<path fill="none" stroke="midnightblue" d="M453.71,-336.4C488.98,-325.64 536.75,-311.06 568.55,-301.36"/>
<polygon fill="midnightblue" stroke="midnightblue" points="569.74,-304.66 578.28,-298.39 567.69,-297.96 569.74,-304.66"/>
</g>
<!-- Node27 -->
<g id="node27" class="node">
<title>Node27</title>
<g id="a_node27"><a xlink:title=" ">
<polygon fill="white" stroke="#bfbfbf" points="645,-280.5 645,-299.5 734,-299.5 734,-280.5 645,-280.5"/>
<text text-anchor="middle" x="689.5" y="-287.5" font-family="Arial" font-size="10.00">spinner_glow.h</text>
</a>
</g>
</g>
<!-- Node1&#45;&gt;Node27 -->
<g id="edge33" class="edge">
<title>Node1&#45;&gt;Node27</title>
<path fill="none" stroke="midnightblue" d="M472.2,-336.85C522.95,-326.14 592.57,-311.45 639.2,-301.61"/>
<polygon fill="midnightblue" stroke="midnightblue" points="640.01,-305.02 649.08,-299.53 638.57,-298.17 640.01,-305.02"/>
</g>
<!-- Node28 -->
<g id="node28" class="node">
<title>Node28</title>
<g id="a_node28"><a xlink:title=" ">
<polygon fill="white" stroke="#bfbfbf" points="751.5,-280.5 751.5,-299.5 839.5,-299.5 839.5,-280.5 751.5,-280.5"/>
<text text-anchor="middle" x="795.5" y="-287.5" font-family="Arial" font-size="10.00">spinner_logo.h</text>
</a>
</g>
</g>
<!-- Node1&#45;&gt;Node28 -->
<g id="edge34" class="edge">
<title>Node1&#45;&gt;Node28</title>
<path fill="none" stroke="midnightblue" d="M472.29,-341.2C537.83,-331.69 642.31,-316.26 741.38,-300.32"/>
<polygon fill="midnightblue" stroke="midnightblue" points="741.94,-303.77 751.26,-298.73 740.83,-296.86 741.94,-303.77"/>
</g>
<!-- Node3 -->
<g id="node3" class="node">
<title>Node3</title>
<g id="a_node3"><a xlink:href="splash__session_8h.html" target="_top" xlink:title=" ">
<polygon fill="white" stroke="black" points="0,-168.5 0,-187.5 99,-187.5 99,-168.5 0,-168.5"/>
<text text-anchor="middle" x="49.5" y="-175.5" font-family="Arial" font-size="10.00">splash_session.h</text>
</a>
</g>
</g>
<!-- Node2&#45;&gt;Node3 -->
<g id="edge2" class="edge">
<title>Node2&#45;&gt;Node3</title>
<path fill="none" stroke="midnightblue" d="M70.7,-280.37C66.98,-262.62 58.42,-221.67 53.39,-197.6"/>
<polygon fill="midnightblue" stroke="midnightblue" points="56.77,-196.66 51.3,-187.59 49.92,-198.1 56.77,-196.66"/>
</g>
<!-- Node4 -->
<g id="node4" class="node">
<title>Node4</title>
<g id="a_node4"><a xlink:title=" ">
<polygon fill="white" stroke="#bfbfbf" points="88.5,-112.5 88.5,-131.5 146.5,-131.5 146.5,-112.5 88.5,-112.5"/>
<text text-anchor="middle" x="117.5" y="-119.5" font-family="Arial" font-size="10.00">memory</text>
</a>
</g>
</g>
<!-- Node3&#45;&gt;Node4 -->
<g id="edge3" class="edge">
<title>Node3&#45;&gt;Node4</title>
<path fill="none" stroke="midnightblue" d="M60.43,-168.32C70.67,-160.18 86.22,-147.84 98.5,-138.09"/>
<polygon fill="midnightblue" stroke="midnightblue" points="100.72,-140.79 106.38,-131.83 96.37,-135.31 100.72,-140.79"/>
</g>
<!-- Node5&#45;&gt;Node4 -->
<g id="edge5" class="edge">
<title>Node5&#45;&gt;Node4</title>
<path fill="none" stroke="midnightblue" d="M153.46,-280.08C147.48,-253.95 129.91,-177.21 121.75,-141.58"/>
<polygon fill="midnightblue" stroke="midnightblue" points="125.1,-140.53 119.46,-131.57 118.28,-142.1 125.1,-140.53"/>
</g>
<!-- Node6 -->
<g id="node6" class="node">
<title>Node6</title>
<g id="a_node6"><a xlink:title=" ">
<polygon fill="white" stroke="#bfbfbf" points="156,-224.5 156,-243.5 203,-243.5 203,-224.5 156,-224.5"/>
<text text-anchor="middle" x="179.5" y="-231.5" font-family="Arial" font-size="10.00">vector</text>
</a>
</g>
</g>
<!-- Node5&#45;&gt;Node6 -->
<g id="edge6" class="edge">
<title>Node5&#45;&gt;Node6</title>
<path fill="none" stroke="midnightblue" d="M159.46,-280.08C162.71,-272.77 167.42,-262.18 171.45,-253.1"/>
<polygon fill="midnightblue" stroke="midnightblue" points="174.75,-254.31 175.61,-243.75 168.35,-251.47 174.75,-254.31"/>
</g>
<!-- Node7&#45;&gt;Node4 -->
<g id="edge26" class="edge">
<title>Node7&#45;&gt;Node4</title>
<path fill="none" stroke="midnightblue" d="M230.07,-280.08C227.7,-267.06 222.13,-242.4 211.5,-224 191.29,-189.03 156.92,-156.31 135.82,-138.05"/>
<polygon fill="midnightblue" stroke="midnightblue" points="138.07,-135.36 128.18,-131.57 133.54,-140.7 138.07,-135.36"/>
</g>
<!-- Node7&#45;&gt;Node6 -->
<g id="edge27" class="edge">
<title>Node7&#45;&gt;Node6</title>
<path fill="none" stroke="midnightblue" d="M222.91,-280.08C215.34,-272.22 204.12,-260.57 194.99,-251.08"/>
<polygon fill="midnightblue" stroke="midnightblue" points="197.38,-248.53 187.93,-243.75 192.34,-253.38 197.38,-248.53"/>
</g>
<!-- Node8 -->
<g id="node8" class="node">
<title>Node8</title>
<g id="a_node8"><a xlink:href="wayland__surface_8h.html" target="_top" xlink:title=" ">
<polygon fill="white" stroke="black" points="259.5,-224.5 259.5,-243.5 367.5,-243.5 367.5,-224.5 259.5,-224.5"/>
<text text-anchor="middle" x="313.5" y="-231.5" font-family="Arial" font-size="10.00">wayland_surface.h</text>
</a>
</g>
</g>
<!-- Node7&#45;&gt;Node8 -->
<g id="edge8" class="edge">
<title>Node7&#45;&gt;Node8</title>
<path fill="none" stroke="midnightblue" d="M244.67,-280.32C257.35,-271.98 276.73,-259.21 291.71,-249.35"/>
<polygon fill="midnightblue" stroke="midnightblue" points="293.93,-252.08 300.36,-243.65 290.08,-246.23 293.93,-252.08"/>
</g>
<!-- Node21 -->
<g id="node21" class="node">
<title>Node21</title>
<g id="a_node21"><a xlink:title=" ">
<polygon fill="white" stroke="#bfbfbf" points="385.5,-224.5 385.5,-243.5 447.5,-243.5 447.5,-224.5 385.5,-224.5"/>
<text text-anchor="middle" x="416.5" y="-231.5" font-family="Arial" font-size="10.00">EGL/egl.h</text>
</a>
</g>
</g>
<!-- Node7&#45;&gt;Node21 -->
<g id="edge25" class="edge">
<title>Node7&#45;&gt;Node21</title>
<path fill="none" stroke="midnightblue" d="M260,-280.68C291.46,-271.5 342.28,-256.66 377.44,-246.4"/>
<polygon fill="midnightblue" stroke="midnightblue" points="378.74,-249.67 387.36,-243.51 376.78,-242.95 378.74,-249.67"/>
</g>
<!-- Node9 -->
<g id="node9" class="node">
<title>Node9</title>
<g id="a_node9"><a xlink:href="wayland__app_8h.html" target="_top" xlink:title=" ">
<polygon fill="white" stroke="black" points="263.5,-168.5 263.5,-187.5 353.5,-187.5 353.5,-168.5 263.5,-168.5"/>
<text text-anchor="middle" x="308.5" y="-175.5" font-family="Arial" font-size="10.00">wayland_app.h</text>
</a>
</g>
</g>
<!-- Node8&#45;&gt;Node9 -->
<g id="edge9" class="edge">
<title>Node8&#45;&gt;Node9</title>
<path fill="none" stroke="midnightblue" d="M312.67,-224.08C312.02,-217.01 311.08,-206.86 310.26,-197.99"/>
<polygon fill="midnightblue" stroke="midnightblue" points="313.72,-197.39 309.31,-187.75 306.75,-198.03 313.72,-197.39"/>
</g>
<!-- Node12 -->
<g id="node12" class="node">
<title>Node12</title>
<g id="a_node12"><a xlink:title=" ">
<polygon fill="white" stroke="#bfbfbf" points="375,-112.5 375,-131.5 440,-131.5 440,-112.5 375,-112.5"/>
<text text-anchor="middle" x="407.5" y="-119.5" font-family="Arial" font-size="10.00">functional</text>
</a>
</g>
</g>
<!-- Node8&#45;&gt;Node12 -->
<g id="edge24" class="edge">
<title>Node8&#45;&gt;Node12</title>
<path fill="none" stroke="midnightblue" d="M324.27,-224.31C334.66,-215.68 350.51,-201.76 362.5,-188 375.56,-173.01 388.25,-154.18 396.8,-140.64"/>
<polygon fill="midnightblue" stroke="midnightblue" points="399.95,-142.2 402.25,-131.86 394,-138.52 399.95,-142.2"/>
</g>
<!-- Node14 -->
<g id="node14" class="node">
<title>Node14</title>
<g id="a_node14"><a xlink:href="size_8h.html" target="_top" xlink:title=" ">
<polygon fill="white" stroke="black" points="442,-168.5 442,-187.5 557,-187.5 557,-168.5 442,-168.5"/>
<text text-anchor="middle" x="499.5" y="-175.5" font-family="Arial" font-size="10.00">mir/geometry/size.h</text>
</a>
</g>
</g>
<!-- Node8&#45;&gt;Node14 -->
<g id="edge15" class="edge">
<title>Node8&#45;&gt;Node14</title>
<path fill="none" stroke="midnightblue" d="M342.97,-224.44C374.67,-215.24 425.23,-200.56 460.27,-190.39"/>
<polygon fill="midnightblue" stroke="midnightblue" points="461.54,-193.67 470.17,-187.52 459.59,-186.94 461.54,-193.67"/>
</g>
<!-- Node9&#45;&gt;Node4 -->
<g id="edge11" class="edge">
<title>Node9&#45;&gt;Node4</title>
<path fill="none" stroke="midnightblue" d="M278.24,-168.44C245.26,-159.12 192.4,-144.17 156.37,-133.99"/>
<polygon fill="midnightblue" stroke="midnightblue" points="157.26,-130.6 146.68,-131.25 155.35,-137.34 157.26,-130.6"/>
</g>
<!-- Node10 -->
<g id="node10" class="node">
<title>Node10</title>
<g id="a_node10"><a xlink:title=" ">
<polygon fill="white" stroke="#bfbfbf" points="164.5,-112.5 164.5,-131.5 262.5,-131.5 262.5,-112.5 164.5,-112.5"/>
<text text-anchor="middle" x="213.5" y="-119.5" font-family="Arial" font-size="10.00">wayland&#45;client.h</text>
</a>
</g>
</g>
<!-- Node9&#45;&gt;Node10 -->
<g id="edge10" class="edge">
<title>Node9&#45;&gt;Node10</title>
<path fill="none" stroke="midnightblue" d="M293.24,-168.32C278.28,-159.82 255.25,-146.73 237.77,-136.8"/>
<polygon fill="midnightblue" stroke="midnightblue" points="239.15,-133.55 228.73,-131.65 235.69,-139.64 239.15,-133.55"/>
</g>
<!-- Node11 -->
<g id="node11" class="node">
<title>Node11</title>
<g id="a_node11"><a xlink:title=" ">
<polygon fill="white" stroke="#bfbfbf" points="280.5,-112.5 280.5,-131.5 318.5,-131.5 318.5,-112.5 280.5,-112.5"/>
<text text-anchor="middle" x="299.5" y="-119.5" font-family="Arial" font-size="10.00">map</text>
</a>
</g>
</g>
<!-- Node9&#45;&gt;Node11 -->
<g id="edge12" class="edge">
<title>Node9&#45;&gt;Node11</title>
<path fill="none" stroke="midnightblue" d="M307.01,-168.08C305.82,-160.93 304.11,-150.64 302.62,-141.69"/>
<polygon fill="midnightblue" stroke="midnightblue" points="306.05,-141.04 300.96,-131.75 299.15,-142.19 306.05,-141.04"/>
</g>
<!-- Node9&#45;&gt;Node12 -->
<g id="edge13" class="edge">
<title>Node9&#45;&gt;Node12</title>
<path fill="none" stroke="midnightblue" d="M324.41,-168.32C340.14,-159.74 364.44,-146.49 382.71,-136.52"/>
<polygon fill="midnightblue" stroke="midnightblue" points="384.53,-139.52 391.63,-131.65 381.18,-133.37 384.53,-139.52"/>
</g>
<!-- Node13 -->
<g id="node13" class="node">
<title>Node13</title>
<g id="a_node13"><a xlink:title=" ">
<polygon fill="white" stroke="#bfbfbf" points="345.5,-56.5 345.5,-75.5 395.5,-75.5 395.5,-56.5 345.5,-56.5"/>
<text text-anchor="middle" x="370.5" y="-63.5" font-family="Arial" font-size="10.00">cstdint</text>
</a>
</g>
</g>
<!-- Node9&#45;&gt;Node13 -->
<g id="edge14" class="edge">
<title>Node9&#45;&gt;Node13</title>
<path fill="none" stroke="midnightblue" d="M313.37,-168.37C323.55,-150.3 347.29,-108.18 360.74,-84.31"/>
<polygon fill="midnightblue" stroke="midnightblue" points="363.8,-86.02 365.66,-75.59 357.7,-82.58 363.8,-86.02"/>
</g>
<!-- Node15 -->
<g id="node15" class="node">
<title>Node15</title>
<g id="a_node15"><a xlink:href="size__generic_8h.html" target="_top" xlink:title=" ">
<polygon fill="white" stroke="black" points="558.5,-112.5 558.5,-131.5 644.5,-131.5 644.5,-112.5 558.5,-112.5"/>
<text text-anchor="middle" x="601.5" y="-119.5" font-family="Arial" font-size="10.00">size_generic.h</text>
</a>
</g>
</g>
<!-- Node14&#45;&gt;Node15 -->
<g id="edge16" class="edge">
<title>Node14&#45;&gt;Node15</title>
<path fill="none" stroke="midnightblue" d="M515.89,-168.32C532.17,-159.7 557.37,-146.36 576.22,-136.39"/>
<polygon fill="midnightblue" stroke="midnightblue" points="577.95,-139.43 585.15,-131.65 574.68,-133.24 577.95,-139.43"/>
</g>
<!-- Node20 -->
<g id="node20" class="node">
<title>Node20</title>
<g id="a_node20"><a xlink:href="dimensions_8h.html" target="_top" xlink:title=" ">
<polygon fill="white" stroke="black" points="458.5,-112.5 458.5,-131.5 540.5,-131.5 540.5,-112.5 458.5,-112.5"/>
<text text-anchor="middle" x="499.5" y="-119.5" font-family="Arial" font-size="10.00">dimensions.h</text>
</a>
</g>
</g>
<!-- Node14&#45;&gt;Node20 -->
<g id="edge21" class="edge">
<title>Node14&#45;&gt;Node20</title>
<path fill="none" stroke="midnightblue" d="M499.5,-168.08C499.5,-161.01 499.5,-150.86 499.5,-141.99"/>
<polygon fill="midnightblue" stroke="midnightblue" points="503,-141.75 499.5,-131.75 496,-141.75 503,-141.75"/>
</g>
<!-- Node16 -->
<g id="node16" class="node">
<title>Node16</title>
<g id="a_node16"><a xlink:href="dimensions__generic_8h.html" target="_top" xlink:title=" ">
<polygon fill="white" stroke="black" points="438,-56.5 438,-75.5 561,-75.5 561,-56.5 438,-56.5"/>
<text text-anchor="middle" x="499.5" y="-63.5" font-family="Arial" font-size="10.00">dimensions_generic.h</text>
</a>
</g>
</g>
<!-- Node15&#45;&gt;Node16 -->
<g id="edge17" class="edge">
<title>Node15&#45;&gt;Node16</title>
<path fill="none" stroke="midnightblue" d="M585.11,-112.32C568.83,-103.7 543.63,-90.36 524.78,-80.39"/>
<polygon fill="midnightblue" stroke="midnightblue" points="526.32,-77.24 515.85,-75.65 523.05,-83.43 526.32,-77.24"/>
</g>
<!-- Node19 -->
<g id="node19" class="node">
<title>Node19</title>
<g id="a_node19"><a xlink:title=" ">
<polygon fill="white" stroke="#bfbfbf" points="579,-56.5 579,-75.5 636,-75.5 636,-56.5 579,-56.5"/>
<text text-anchor="middle" x="607.5" y="-63.5" font-family="Arial" font-size="10.00">ostream</text>
</a>
</g>
</g>
<!-- Node15&#45;&gt;Node19 -->
<g id="edge20" class="edge">
<title>Node15&#45;&gt;Node19</title>
<path fill="none" stroke="midnightblue" d="M602.49,-112.08C603.29,-104.93 604.43,-94.64 605.42,-85.69"/>
<polygon fill="midnightblue" stroke="midnightblue" points="608.9,-86.08 606.53,-75.75 601.94,-85.3 608.9,-86.08"/>
</g>
<!-- Node17 -->
<g id="node17" class="node">
<title>Node17</title>
<g id="a_node17"><a xlink:title=" ">
<polygon fill="white" stroke="#bfbfbf" points="437.5,-0.5 437.5,-19.5 485.5,-19.5 485.5,-0.5 437.5,-0.5"/>
<text text-anchor="middle" x="461.5" y="-7.5" font-family="Arial" font-size="10.00">iosfwd</text>
</a>
</g>
</g>
<!-- Node16&#45;&gt;Node17 -->
<g id="edge18" class="edge">
<title>Node16&#45;&gt;Node17</title>
<path fill="none" stroke="midnightblue" d="M493.23,-56.08C487.86,-48.46 479.98,-37.26 473.42,-27.94"/>
<polygon fill="midnightblue" stroke="midnightblue" points="476.28,-25.91 467.66,-19.75 470.55,-29.94 476.28,-25.91"/>
</g>
<!-- Node18 -->
<g id="node18" class="node">
<title>Node18</title>
<g id="a_node18"><a xlink:title=" ">
<polygon fill="white" stroke="#bfbfbf" points="504,-0.5 504,-19.5 573,-19.5 573,-0.5 504,-0.5"/>
<text text-anchor="middle" x="538.5" y="-7.5" font-family="Arial" font-size="10.00">type_traits</text>
</a>
</g>
</g>
<!-- Node16&#45;&gt;Node18 -->
<g id="edge19" class="edge">
<title>Node16&#45;&gt;Node18</title>
<path fill="none" stroke="midnightblue" d="M505.94,-56.08C511.45,-48.46 519.53,-37.26 526.26,-27.94"/>
<polygon fill="midnightblue" stroke="midnightblue" points="529.16,-29.91 532.18,-19.75 523.49,-25.81 529.16,-29.91"/>
</g>
<!-- Node20&#45;&gt;Node13 -->
<g id="edge23" class="edge">
<title>Node20&#45;&gt;Node13</title>
<path fill="none" stroke="midnightblue" d="M479.06,-112.44C457.83,-103.56 424.4,-89.56 400.25,-79.45"/>
<polygon fill="midnightblue" stroke="midnightblue" points="401.42,-76.15 390.84,-75.52 398.72,-82.61 401.42,-76.15"/>
</g>
<!-- Node20&#45;&gt;Node16 -->
<g id="edge22" class="edge">
<title>Node20&#45;&gt;Node16</title>
<path fill="none" stroke="midnightblue" d="M499.5,-112.08C499.5,-105.01 499.5,-94.86 499.5,-85.99"/>
<polygon fill="midnightblue" stroke="midnightblue" points="503,-85.75 499.5,-75.75 496,-85.75 503,-85.75"/>
</g>
</g>
</svg>
