<?xml version="1.0" encoding="UTF-8" standalone="no"?>
<!DOCTYPE svg PUBLIC "-//W3C//DTD SVG 1.1//EN"
 "http://www.w3.org/Graphics/SVG/1.1/DTD/svg11.dtd">
<!-- Generated by graphviz version 2.43.0 (0)
 -->
<!-- Title: examples/miral&#45;shell/spinner/eglspinner.cpp Pages: 1 -->
<svg width="800pt" height="319pt"
 viewBox="0.00 0.00 800.00 319.00" xmlns="http://www.w3.org/2000/svg" xmlns:xlink="http://www.w3.org/1999/xlink">
<g id="graph0" class="graph" transform="scale(1 1) rotate(0) translate(4 315)">
<title>examples/miral&#45;shell/spinner/eglspinner.cpp</title>
<polygon fill="white" stroke="transparent" points="-4,4 -4,-315 796,-315 796,4 -4,4"/>
<!-- Node1 -->
<g id="node1" class="node">
<title>Node1</title>
<g id="a_node1"><a xlink:title=" ">
<polygon fill="#bfbfbf" stroke="black" points="326.5,-280.5 326.5,-310.5 443.5,-310.5 443.5,-280.5 326.5,-280.5"/>
<text text-anchor="start" x="334.5" y="-298.5" font-family="Arial" font-size="10.00">examples/miral&#45;shell</text>
<text text-anchor="middle" x="385" y="-287.5" font-family="Arial" font-size="10.00">/spinner/eglspinner.cpp</text>
</a>
</g>
</g>
<!-- Node2 -->
<g id="node2" class="node">
<title>Node2</title>
<g id="a_node2"><a xlink:href="splash_8h.html" target="_top" xlink:title=" ">
<polygon fill="white" stroke="black" points="44.5,-224.5 44.5,-243.5 97.5,-243.5 97.5,-224.5 44.5,-224.5"/>
<text text-anchor="middle" x="71" y="-231.5" font-family="Arial" font-size="10.00">splash.h</text>
</a>
</g>
</g>
<!-- Node1&#45;&gt;Node2 -->
<g id="edge1" class="edge">
<title>Node1&#45;&gt;Node2</title>
<path fill="none" stroke="midnightblue" d="M326.25,-283.94C271.31,-273.97 187.01,-258.44 114,-244 111.95,-243.6 109.85,-243.17 107.74,-242.75"/>
<polygon fill="midnightblue" stroke="midnightblue" points="108.32,-239.29 97.82,-240.71 106.91,-246.15 108.32,-239.29"/>
</g>
<!-- Node5 -->
<g id="node5" class="node">
<title>Node5</title>
<g id="a_node5"><a xlink:href="eglapp_8h.html" target="_top" xlink:title=" ">
<polygon fill="white" stroke="black" points="123.5,-224.5 123.5,-243.5 176.5,-243.5 176.5,-224.5 123.5,-224.5"/>
<text text-anchor="middle" x="150" y="-231.5" font-family="Arial" font-size="10.00">eglapp.h</text>
</a>
</g>
</g>
<!-- Node1&#45;&gt;Node5 -->
<g id="edge4" class="edge">
<title>Node1&#45;&gt;Node5</title>
<path fill="none" stroke="midnightblue" d="M328.95,-280.42C291.19,-270.91 240.01,-258 186.72,-244.43"/>
<polygon fill="midnightblue" stroke="midnightblue" points="187.3,-240.97 176.75,-241.89 185.58,-247.75 187.3,-240.97"/>
</g>
<!-- Node7 -->
<g id="node7" class="node">
<title>Node7</title>
<g id="a_node7"><a xlink:href="miregl_8h.html" target="_top" xlink:title=" ">
<polygon fill="white" stroke="black" points="194.5,-224.5 194.5,-243.5 245.5,-243.5 245.5,-224.5 194.5,-224.5"/>
<text text-anchor="middle" x="220" y="-231.5" font-family="Arial" font-size="10.00">miregl.h</text>
</a>
</g>
</g>
<!-- Node1&#45;&gt;Node7 -->
<g id="edge7" class="edge">
<title>Node1&#45;&gt;Node7</title>
<path fill="none" stroke="midnightblue" d="M345.9,-280.4C317.84,-270.28 280.43,-256.79 253.69,-247.15"/>
<polygon fill="midnightblue" stroke="midnightblue" points="254.6,-243.76 244.01,-243.66 252.23,-250.34 254.6,-243.76"/>
</g>
<!-- Node21 -->
<g id="node21" class="node">
<title>Node21</title>
<g id="a_node21"><a xlink:title=" ">
<polygon fill="white" stroke="#bfbfbf" points="264,-224.5 264,-243.5 316,-243.5 316,-224.5 264,-224.5"/>
<text text-anchor="middle" x="290" y="-231.5" font-family="Arial" font-size="10.00">assert.h</text>
</a>
</g>
</g>
<!-- Node1&#45;&gt;Node21 -->
<g id="edge27" class="edge">
<title>Node1&#45;&gt;Node21</title>
<path fill="none" stroke="midnightblue" d="M362.49,-280.4C347.4,-270.95 327.61,-258.56 312.53,-249.11"/>
<polygon fill="midnightblue" stroke="midnightblue" points="314.16,-246 303.82,-243.66 310.44,-251.93 314.16,-246"/>
</g>
<!-- Node22 -->
<g id="node22" class="node">
<title>Node22</title>
<g id="a_node22"><a xlink:title=" ">
<polygon fill="white" stroke="#bfbfbf" points="334,-224.5 334,-243.5 374,-243.5 374,-224.5 334,-224.5"/>
<text text-anchor="middle" x="354" y="-231.5" font-family="Arial" font-size="10.00">glib.h</text>
</a>
</g>
</g>
<!-- Node1&#45;&gt;Node22 -->
<g id="edge28" class="edge">
<title>Node1&#45;&gt;Node22</title>
<path fill="none" stroke="midnightblue" d="M377.65,-280.4C373.33,-272.11 367.83,-261.55 363.23,-252.71"/>
<polygon fill="midnightblue" stroke="midnightblue" points="366.24,-250.91 358.51,-243.66 360.03,-254.14 366.24,-250.91"/>
</g>
<!-- Node23 -->
<g id="node23" class="node">
<title>Node23</title>
<g id="a_node23"><a xlink:title=" ">
<polygon fill="white" stroke="#bfbfbf" points="392.5,-224.5 392.5,-243.5 441.5,-243.5 441.5,-224.5 392.5,-224.5"/>
<text text-anchor="middle" x="417" y="-231.5" font-family="Arial" font-size="10.00">string.h</text>
</a>
</g>
</g>
<!-- Node1&#45;&gt;Node23 -->
<g id="edge29" class="edge">
<title>Node1&#45;&gt;Node23</title>
<path fill="none" stroke="midnightblue" d="M392.58,-280.4C397.04,-272.11 402.72,-261.55 407.48,-252.71"/>
<polygon fill="midnightblue" stroke="midnightblue" points="410.69,-254.12 412.34,-243.66 404.52,-250.81 410.69,-254.12"/>
</g>
<!-- Node24 -->
<g id="node24" class="node">
<title>Node24</title>
<g id="a_node24"><a xlink:title=" ">
<polygon fill="white" stroke="#bfbfbf" points="460,-224.5 460,-243.5 532,-243.5 532,-224.5 460,-224.5"/>
<text text-anchor="middle" x="496" y="-231.5" font-family="Arial" font-size="10.00">GLES2/gl2.h</text>
</a>
</g>
</g>
<!-- Node1&#45;&gt;Node24 -->
<g id="edge30" class="edge">
<title>Node1&#45;&gt;Node24</title>
<path fill="none" stroke="midnightblue" d="M411.31,-280.4C429.26,-270.77 452.92,-258.09 470.67,-248.58"/>
<polygon fill="midnightblue" stroke="midnightblue" points="472.69,-251.47 479.85,-243.66 469.38,-245.3 472.69,-251.47"/>
</g>
<!-- Node25 -->
<g id="node25" class="node">
<title>Node25</title>
<g id="a_node25"><a xlink:title=" ">
<polygon fill="white" stroke="#bfbfbf" points="550,-224.5 550,-243.5 594,-243.5 594,-224.5 550,-224.5"/>
<text text-anchor="middle" x="572" y="-231.5" font-family="Arial" font-size="10.00">mutex</text>
</a>
</g>
</g>
<!-- Node1&#45;&gt;Node25 -->
<g id="edge31" class="edge">
<title>Node1&#45;&gt;Node25</title>
<path fill="none" stroke="midnightblue" d="M429.32,-280.4C463.38,-269.56 509.61,-254.85 540.1,-245.15"/>
<polygon fill="midnightblue" stroke="midnightblue" points="541.32,-248.43 549.79,-242.07 539.2,-241.76 541.32,-248.43"/>
</g>
<!-- Node26 -->
<g id="node26" class="node">
<title>Node26</title>
<g id="a_node26"><a xlink:title=" ">
<polygon fill="white" stroke="#bfbfbf" points="612.5,-224.5 612.5,-243.5 693.5,-243.5 693.5,-224.5 612.5,-224.5"/>
<text text-anchor="middle" x="653" y="-231.5" font-family="Arial" font-size="10.00">spinner_glow.h</text>
</a>
</g>
</g>
<!-- Node1&#45;&gt;Node26 -->
<g id="edge32" class="edge">
<title>Node1&#45;&gt;Node26</title>
<path fill="none" stroke="midnightblue" d="M443.81,-281.44C492.09,-270.72 559.61,-255.73 604.75,-245.71"/>
<polygon fill="midnightblue" stroke="midnightblue" points="605.59,-249.11 614.59,-243.53 604.07,-242.28 605.59,-249.11"/>
</g>
<!-- Node27 -->
<g id="node27" class="node">
<title>Node27</title>
<g id="a_node27"><a xlink:title=" ">
<polygon fill="white" stroke="#bfbfbf" points="712,-224.5 712,-243.5 792,-243.5 792,-224.5 712,-224.5"/>
<text text-anchor="middle" x="752" y="-231.5" font-family="Arial" font-size="10.00">spinner_logo.h</text>
</a>
</g>
</g>
<!-- Node1&#45;&gt;Node27 -->
<g id="edge33" class="edge">
<title>Node1&#45;&gt;Node27</title>
<path fill="none" stroke="midnightblue" d="M443.68,-285.62C505.42,-276.17 605.71,-260.55 702,-244.14"/>
<polygon fill="midnightblue" stroke="midnightblue" points="702.64,-247.58 711.9,-242.45 701.46,-240.68 702.64,-247.58"/>
</g>
<!-- Node3 -->
<g id="node3" class="node">
<title>Node3</title>
<g id="a_node3"><a xlink:href="splash__session_8h.html" target="_top" xlink:title=" ">
<polygon fill="white" stroke="black" points="0,-112.5 0,-131.5 92,-131.5 92,-112.5 0,-112.5"/>
<text text-anchor="middle" x="46" y="-119.5" font-family="Arial" font-size="10.00">splash_session.h</text>
</a>
</g>
</g>
<!-- Node2&#45;&gt;Node3 -->
<g id="edge2" class="edge">
<title>Node2&#45;&gt;Node3</title>
<path fill="none" stroke="midnightblue" d="M69.04,-224.37C65,-206.62 55.7,-165.67 50.23,-141.6"/>
<polygon fill="midnightblue" stroke="midnightblue" points="53.58,-140.57 47.95,-131.59 46.76,-142.12 53.58,-140.57"/>
</g>
<!-- Node4 -->
<g id="node4" class="node">
<title>Node4</title>
<g id="a_node4"><a xlink:title=" ">
<polygon fill="white" stroke="#bfbfbf" points="90,-56.5 90,-75.5 142,-75.5 142,-56.5 90,-56.5"/>
<text text-anchor="middle" x="116" y="-63.5" font-family="Arial" font-size="10.00">memory</text>
</a>
</g>
</g>
<!-- Node3&#45;&gt;Node4 -->
<g id="edge3" class="edge">
<title>Node3&#45;&gt;Node4</title>
<path fill="none" stroke="midnightblue" d="M57.25,-112.32C67.8,-104.18 83.8,-91.84 96.44,-82.09"/>
<polygon fill="midnightblue" stroke="midnightblue" points="98.77,-84.71 104.55,-75.83 94.49,-79.17 98.77,-84.71"/>
</g>
<!-- Node5&#45;&gt;Node4 -->
<g id="edge5" class="edge">
<title>Node5&#45;&gt;Node4</title>
<path fill="none" stroke="midnightblue" d="M147.76,-224.4C145.44,-215.37 141.76,-200.73 139,-188 131.16,-151.9 123.43,-109.43 119.23,-85.62"/>
<polygon fill="midnightblue" stroke="midnightblue" points="122.64,-84.79 117.47,-75.54 115.74,-85.99 122.64,-84.79"/>
</g>
<!-- Node6 -->
<g id="node6" class="node">
<title>Node6</title>
<g id="a_node6"><a xlink:title=" ">
<polygon fill="white" stroke="#bfbfbf" points="148,-168.5 148,-187.5 192,-187.5 192,-168.5 148,-168.5"/>
<text text-anchor="middle" x="170" y="-175.5" font-family="Arial" font-size="10.00">vector</text>
</a>
</g>
</g>
<!-- Node5&#45;&gt;Node6 -->
<g id="edge6" class="edge">
<title>Node5&#45;&gt;Node6</title>
<path fill="none" stroke="midnightblue" d="M153.3,-224.08C155.98,-216.85 159.85,-206.41 163.19,-197.4"/>
<polygon fill="midnightblue" stroke="midnightblue" points="166.57,-198.34 166.76,-187.75 160,-195.91 166.57,-198.34"/>
</g>
<!-- Node7&#45;&gt;Node4 -->
<g id="edge25" class="edge">
<title>Node7&#45;&gt;Node4</title>
<path fill="none" stroke="midnightblue" d="M218.61,-224.15C216.33,-211.21 211,-186.65 201,-168 182.81,-134.06 151.89,-101.17 132.78,-82.57"/>
<polygon fill="midnightblue" stroke="midnightblue" points="135.03,-79.88 125.38,-75.51 130.2,-84.95 135.03,-79.88"/>
</g>
<!-- Node7&#45;&gt;Node6 -->
<g id="edge26" class="edge">
<title>Node7&#45;&gt;Node6</title>
<path fill="none" stroke="midnightblue" d="M211.74,-224.08C204.54,-216.3 193.89,-204.8 185.15,-195.37"/>
<polygon fill="midnightblue" stroke="midnightblue" points="187.47,-192.71 178.1,-187.75 182.33,-197.47 187.47,-192.71"/>
</g>
<!-- Node8 -->
<g id="node8" class="node">
<title>Node8</title>
<g id="a_node8"><a xlink:href="wayland__surface_8h.html" target="_top" xlink:title=" ">
<polygon fill="white" stroke="black" points="248,-168.5 248,-187.5 346,-187.5 346,-168.5 248,-168.5"/>
<text text-anchor="middle" x="297" y="-175.5" font-family="Arial" font-size="10.00">wayland_surface.h</text>
</a>
</g>
</g>
<!-- Node7&#45;&gt;Node8 -->
<g id="edge8" class="edge">
<title>Node7&#45;&gt;Node8</title>
<path fill="none" stroke="midnightblue" d="M232.37,-224.32C244.16,-216.06 262.13,-203.45 276.14,-193.63"/>
<polygon fill="midnightblue" stroke="midnightblue" points="278.48,-196.26 284.66,-187.65 274.46,-190.53 278.48,-196.26"/>
</g>
<!-- Node20 -->
<g id="node20" class="node">
<title>Node20</title>
<g id="a_node20"><a xlink:title=" ">
<polygon fill="white" stroke="#bfbfbf" points="364,-168.5 364,-187.5 424,-187.5 424,-168.5 364,-168.5"/>
<text text-anchor="middle" x="394" y="-175.5" font-family="Arial" font-size="10.00">EGL/egl.h</text>
</a>
</g>
</g>
<!-- Node7&#45;&gt;Node20 -->
<g id="edge24" class="edge">
<title>Node7&#45;&gt;Node20</title>
<path fill="none" stroke="midnightblue" d="M245.67,-225.03C274.97,-215.94 323.15,-200.99 356.62,-190.6"/>
<polygon fill="midnightblue" stroke="midnightblue" points="357.98,-193.84 366.5,-187.54 355.91,-187.16 357.98,-193.84"/>
</g>
<!-- Node9 -->
<g id="node9" class="node">
<title>Node9</title>
<g id="a_node9"><a xlink:href="wayland__app_8h.html" target="_top" xlink:title=" ">
<polygon fill="white" stroke="black" points="252,-112.5 252,-131.5 334,-131.5 334,-112.5 252,-112.5"/>
<text text-anchor="middle" x="293" y="-119.5" font-family="Arial" font-size="10.00">wayland_app.h</text>
</a>
</g>
</g>
<!-- Node8&#45;&gt;Node9 -->
<g id="edge9" class="edge">
<title>Node8&#45;&gt;Node9</title>
<path fill="none" stroke="midnightblue" d="M296.34,-168.08C295.82,-161.01 295.06,-150.86 294.41,-141.99"/>
<polygon fill="midnightblue" stroke="midnightblue" points="297.88,-141.47 293.65,-131.75 290.9,-141.98 297.88,-141.47"/>
</g>
<!-- Node12 -->
<g id="node12" class="node">
<title>Node12</title>
<g id="a_node12"><a xlink:title=" ">
<polygon fill="white" stroke="#bfbfbf" points="357.5,-56.5 357.5,-75.5 416.5,-75.5 416.5,-56.5 357.5,-56.5"/>
<text text-anchor="middle" x="387" y="-63.5" font-family="Arial" font-size="10.00">functional</text>
</a>
</g>
</g>
<!-- Node8&#45;&gt;Node12 -->
<g id="edge23" class="edge">
<title>Node8&#45;&gt;Node12</title>
<path fill="none" stroke="midnightblue" d="M307.09,-168.22C316.82,-159.52 331.69,-145.55 343,-132 355.65,-116.85 368.07,-98.03 376.47,-84.55"/>
<polygon fill="midnightblue" stroke="midnightblue" points="379.59,-86.16 381.83,-75.81 373.62,-82.51 379.59,-86.16"/>
</g>
<!-- Node14 -->
<g id="node14" class="node">
<title>Node14</title>
<g id="a_node14"><a xlink:href="size_8h.html" target="_top" xlink:title=" ">
<polygon fill="white" stroke="black" points="460.5,-112.5 460.5,-131.5 563.5,-131.5 563.5,-112.5 460.5,-112.5"/>
<text text-anchor="middle" x="512" y="-119.5" font-family="Arial" font-size="10.00">mir/geometry/size.h</text>
</a>
</g>
</g>
<!-- Node8&#45;&gt;Node14 -->
<g id="edge15" class="edge">
<title>Node8&#45;&gt;Node14</title>
<path fill="none" stroke="midnightblue" d="M331.07,-168.44C368.18,-159.12 427.66,-144.18 468.21,-134"/>
<polygon fill="midnightblue" stroke="midnightblue" points="469.25,-137.35 478.09,-131.52 467.54,-130.56 469.25,-137.35"/>
</g>
<!-- Node9&#45;&gt;Node4 -->
<g id="edge11" class="edge">
<title>Node9&#45;&gt;Node4</title>
<path fill="none" stroke="midnightblue" d="M264.95,-112.44C234.39,-103.12 185.39,-88.17 152.01,-77.99"/>
<polygon fill="midnightblue" stroke="midnightblue" points="152.77,-74.56 142.18,-74.99 150.73,-81.25 152.77,-74.56"/>
</g>
<!-- Node10 -->
<g id="node10" class="node">
<title>Node10</title>
<g id="a_node10"><a xlink:title=" ">
<polygon fill="white" stroke="#bfbfbf" points="252.5,-56.5 252.5,-75.5 339.5,-75.5 339.5,-56.5 252.5,-56.5"/>
<text text-anchor="middle" x="296" y="-63.5" font-family="Arial" font-size="10.00">wayland&#45;client.h</text>
</a>
</g>
</g>
<!-- Node9&#45;&gt;Node10 -->
<g id="edge10" class="edge">
<title>Node9&#45;&gt;Node10</title>
<path fill="none" stroke="midnightblue" d="M293.5,-112.08C293.89,-105.01 294.45,-94.86 294.95,-85.99"/>
<polygon fill="midnightblue" stroke="midnightblue" points="298.45,-85.93 295.51,-75.75 291.46,-85.54 298.45,-85.93"/>
</g>
<!-- Node11 -->
<g id="node11" class="node">
<title>Node11</title>
<g id="a_node11"><a xlink:title=" ">
<polygon fill="white" stroke="#bfbfbf" points="160.5,-56.5 160.5,-75.5 195.5,-75.5 195.5,-56.5 160.5,-56.5"/>
<text text-anchor="middle" x="178" y="-63.5" font-family="Arial" font-size="10.00">map</text>
</a>
</g>
</g>
<!-- Node9&#45;&gt;Node11 -->
<g id="edge12" class="edge">
<title>Node9&#45;&gt;Node11</title>
<path fill="none" stroke="midnightblue" d="M274.78,-112.44C255.99,-103.62 226.5,-89.77 205,-79.68"/>
<polygon fill="midnightblue" stroke="midnightblue" points="206.3,-76.42 195.76,-75.34 203.32,-82.76 206.3,-76.42"/>
</g>
<!-- Node9&#45;&gt;Node12 -->
<g id="edge13" class="edge">
<title>Node9&#45;&gt;Node12</title>
<path fill="none" stroke="midnightblue" d="M308.1,-112.32C322.9,-103.82 345.69,-90.73 362.98,-80.8"/>
<polygon fill="midnightblue" stroke="midnightblue" points="365.01,-83.67 371.93,-75.65 361.52,-77.6 365.01,-83.67"/>
</g>
<!-- Node13 -->
<g id="node13" class="node">
<title>Node13</title>
<g id="a_node13"><a xlink:title=" ">
<polygon fill="white" stroke="#bfbfbf" points="269,-0.5 269,-19.5 315,-19.5 315,-0.5 269,-0.5"/>
<text text-anchor="middle" x="292" y="-7.5" font-family="Arial" font-size="10.00">cstdint</text>
</a>
</g>
</g>
<!-- Node9&#45;&gt;Node13 -->
<g id="edge14" class="edge">
<title>Node9&#45;&gt;Node13</title>
<path fill="none" stroke="midnightblue" d="M278.05,-112.47C266.07,-104.7 250.13,-92 243,-76 234.43,-56.76 252.44,-37.9 268.99,-25.49"/>
<polygon fill="midnightblue" stroke="midnightblue" points="271.19,-28.22 277.37,-19.62 267.17,-22.49 271.19,-28.22"/>
</g>
<!-- Node15 -->
<g id="node15" class="node">
<title>Node15</title>
<g id="a_node15"><a xlink:href="forward_8h.html" target="_top" xlink:title=" ">
<polygon fill="white" stroke="black" points="561.5,-0.5 561.5,-19.5 618.5,-19.5 618.5,-0.5 561.5,-0.5"/>
<text text-anchor="middle" x="590" y="-7.5" font-family="Arial" font-size="10.00">forward.h</text>
</a>
</g>
</g>
<!-- Node14&#45;&gt;Node15 -->
<g id="edge16" class="edge">
<title>Node14&#45;&gt;Node15</title>
<path fill="none" stroke="midnightblue" d="M539.45,-112.44C556.61,-105.53 577.39,-93.96 588,-76 596.16,-62.18 595.88,-43.66 594.01,-29.92"/>
<polygon fill="midnightblue" stroke="midnightblue" points="597.39,-28.96 592.21,-19.72 590.5,-30.17 597.39,-28.96"/>
</g>
<!-- Node16 -->
<g id="node16" class="node">
<title>Node16</title>
<g id="a_node16"><a xlink:href="dimensions_8h.html" target="_top" xlink:title=" ">
<polygon fill="white" stroke="black" points="435,-56.5 435,-75.5 509,-75.5 509,-56.5 435,-56.5"/>
<text text-anchor="middle" x="472" y="-63.5" font-family="Arial" font-size="10.00">dimensions.h</text>
</a>
</g>
</g>
<!-- Node14&#45;&gt;Node16 -->
<g id="edge17" class="edge">
<title>Node14&#45;&gt;Node16</title>
<path fill="none" stroke="midnightblue" d="M505.39,-112.08C499.74,-104.46 491.46,-93.26 484.55,-83.94"/>
<polygon fill="midnightblue" stroke="midnightblue" points="487.25,-81.7 478.48,-75.75 481.62,-85.87 487.25,-81.7"/>
</g>
<!-- Node19 -->
<g id="node19" class="node">
<title>Node19</title>
<g id="a_node19"><a xlink:title=" ">
<polygon fill="white" stroke="#bfbfbf" points="527,-56.5 527,-75.5 579,-75.5 579,-56.5 527,-56.5"/>
<text text-anchor="middle" x="553" y="-63.5" font-family="Arial" font-size="10.00">ostream</text>
</a>
</g>
</g>
<!-- Node14&#45;&gt;Node19 -->
<g id="edge22" class="edge">
<title>Node14&#45;&gt;Node19</title>
<path fill="none" stroke="midnightblue" d="M518.77,-112.08C524.56,-104.46 533.06,-93.26 540.14,-83.94"/>
<polygon fill="midnightblue" stroke="midnightblue" points="543.1,-85.83 546.36,-75.75 537.52,-81.6 543.1,-85.83"/>
</g>
<!-- Node16&#45;&gt;Node13 -->
<g id="edge21" class="edge">
<title>Node16&#45;&gt;Node13</title>
<path fill="none" stroke="midnightblue" d="M443.48,-56.44C411.32,-46.79 359.09,-31.13 325.14,-20.94"/>
<polygon fill="midnightblue" stroke="midnightblue" points="325.82,-17.49 315.24,-17.97 323.81,-24.2 325.82,-17.49"/>
</g>
<!-- Node16&#45;&gt;Node15 -->
<g id="edge18" class="edge">
<title>Node16&#45;&gt;Node15</title>
<path fill="none" stroke="midnightblue" d="M490.7,-56.44C509.94,-47.64 540.15,-33.81 562.2,-23.72"/>
<polygon fill="midnightblue" stroke="midnightblue" points="563.75,-26.86 571.39,-19.52 560.84,-20.5 563.75,-26.86"/>
</g>
<!-- Node17 -->
<g id="node17" class="node">
<title>Node17</title>
<g id="a_node17"><a xlink:title=" ">
<polygon fill="white" stroke="#bfbfbf" points="465.5,-0.5 465.5,-19.5 510.5,-19.5 510.5,-0.5 465.5,-0.5"/>
<text text-anchor="middle" x="488" y="-7.5" font-family="Arial" font-size="10.00">iosfwd</text>
</a>
</g>
</g>
<!-- Node16&#45;&gt;Node17 -->
<g id="edge19" class="edge">
<title>Node16&#45;&gt;Node17</title>
<path fill="none" stroke="midnightblue" d="M474.64,-56.08C476.79,-48.85 479.88,-38.41 482.55,-29.4"/>
<polygon fill="midnightblue" stroke="midnightblue" points="485.92,-30.33 485.41,-19.75 479.21,-28.34 485.92,-30.33"/>
</g>
<!-- Node18 -->
<g id="node18" class="node">
<title>Node18</title>
<g id="a_node18"><a xlink:title=" ">
<polygon fill="white" stroke="#bfbfbf" points="385,-0.5 385,-19.5 447,-19.5 447,-0.5 385,-0.5"/>
<text text-anchor="middle" x="416" y="-7.5" font-family="Arial" font-size="10.00">type_traits</text>
</a>
</g>
</g>
<!-- Node16&#45;&gt;Node18 -->
<g id="edge20" class="edge">
<title>Node16&#45;&gt;Node18</title>
<path fill="none" stroke="midnightblue" d="M463,-56.32C454.81,-48.42 442.49,-36.55 432.53,-26.94"/>
<polygon fill="midnightblue" stroke="midnightblue" points="434.79,-24.26 425.16,-19.83 429.93,-29.29 434.79,-24.26"/>
</g>
</g>
</svg>
