<?xml version="1.0" encoding="UTF-8" standalone="no"?>
<!DOCTYPE svg PUBLIC "-//W3C//DTD SVG 1.1//EN"
 "http://www.w3.org/Graphics/SVG/1.1/DTD/svg11.dtd">
<!-- Generated by graphviz version 2.38.0 (20140413.2041)
 -->
<!-- Title: include/platform/mir/emergency_cleanup_registry.h Pages: 1 -->
<svg width="192pt" height="151pt"
 viewBox="0.00 0.00 192.00 151.00" xmlns="http://www.w3.org/2000/svg" xmlns:xlink="http://www.w3.org/1999/xlink">
<g id="graph0" class="graph" transform="scale(1 1) rotate(0) translate(4 147)">
<title>include/platform/mir/emergency_cleanup_registry.h</title>
<polygon fill="white" stroke="none" points="-4,4 -4,-147 188,-147 188,4 -4,4"/>
<!-- Node0 -->
<g id="node1" class="node"><title>Node0</title>
<polygon fill="#bfbfbf" stroke="black" points="3.5,-112.5 3.5,-142.5 155.5,-142.5 155.5,-112.5 3.5,-112.5"/>
<text text-anchor="start" x="11.5" y="-130.5" font-family="Arial" font-size="10.00">include/platform/mir</text>
<text text-anchor="middle" x="79.5" y="-119.5" font-family="Arial" font-size="10.00">/emergency_cleanup_registry.h</text>
</g>
<!-- Node1 -->
<g id="node2" class="node"><title>Node1</title>
<polygon fill="white" stroke="#bfbfbf" points="0,-56.5 0,-75.5 59,-75.5 59,-56.5 0,-56.5"/>
<text text-anchor="middle" x="29.5" y="-63.5" font-family="Arial" font-size="10.00">functional</text>
</g>
<!-- Node0&#45;&gt;Node1 -->
<g id="edge1" class="edge"><title>Node0&#45;&gt;Node1</title>
<path fill="none" stroke="midnightblue" d="M67.6507,-112.399C60.3851,-103.753 51.0479,-92.642 43.4294,-83.576"/>
<polygon fill="midnightblue" stroke="midnightblue" points="45.8884,-81.0619 36.7754,-75.6578 40.5294,-85.5653 45.8884,-81.0619"/>
</g>
<!-- Node2 -->
<g id="node3" class="node"><title>Node2</title>
<g id="a_node3"><a xlink:href="module__deleter_8h.html" target="_top" xlink:title="mir/module_deleter.h">
<polygon fill="white" stroke="black" points="77,-56.5 77,-75.5 184,-75.5 184,-56.5 77,-56.5"/>
<text text-anchor="middle" x="130.5" y="-63.5" font-family="Arial" font-size="10.00">mir/module_deleter.h</text>
</a>
</g>
</g>
<!-- Node0&#45;&gt;Node2 -->
<g id="edge2" class="edge"><title>Node0&#45;&gt;Node2</title>
<path fill="none" stroke="midnightblue" d="M91.5863,-112.399C99.0736,-103.664 108.718,-92.4126 116.532,-83.2962"/>
<polygon fill="midnightblue" stroke="midnightblue" points="119.229,-85.5281 123.079,-75.6578 113.914,-80.9726 119.229,-85.5281"/>
</g>
<!-- Node3 -->
<g id="node4" class="node"><title>Node3</title>
<polygon fill="white" stroke="#bfbfbf" points="104.5,-0.5 104.5,-19.5 156.5,-19.5 156.5,-0.5 104.5,-0.5"/>
<text text-anchor="middle" x="130.5" y="-7.5" font-family="Arial" font-size="10.00">memory</text>
</g>
<!-- Node2&#45;&gt;Node3 -->
<g id="edge3" class="edge"><title>Node2&#45;&gt;Node3</title>
<path fill="none" stroke="midnightblue" d="M130.5,-56.083C130.5,-49.0059 130.5,-38.8611 130.5,-29.9865"/>
<polygon fill="midnightblue" stroke="midnightblue" points="134,-29.751 130.5,-19.7511 127,-29.7511 134,-29.751"/>
</g>
</g>
</svg>
