<?xml version="1.0" encoding="UTF-8" standalone="no"?>
<!DOCTYPE svg PUBLIC "-//W3C//DTD SVG 1.1//EN"
 "http://www.w3.org/Graphics/SVG/1.1/DTD/svg11.dtd">
<!-- Generated by graphviz version 2.43.0 (0)
 -->
<!-- Title: include/core/mir_toolkit/events/enums.h Pages: 1 -->
<svg width="968pt" height="173pt"
 viewBox="0.00 0.00 968.00 173.00" xmlns="http://www.w3.org/2000/svg" xmlns:xlink="http://www.w3.org/1999/xlink">
<g id="graph0" class="graph" transform="scale(1 1) rotate(0) translate(4 169)">
<title>include/core/mir_toolkit/events/enums.h</title>
<polygon fill="white" stroke="transparent" points="-4,4 -4,-169 964,-169 964,4 -4,4"/>
<!-- Node1 -->
<g id="node1" class="node">
<title>Node1</title>
<g id="a_node1"><a xlink:title=" ">
<polygon fill="#bfbfbf" stroke="black" points="466.5,-134.5 466.5,-164.5 598.5,-164.5 598.5,-134.5 466.5,-134.5"/>
<text text-anchor="start" x="474.5" y="-152.5" font-family="Arial" font-size="10.00">include/core/mir_toolkit</text>
<text text-anchor="middle" x="532.5" y="-141.5" font-family="Arial" font-size="10.00">/events/enums.h</text>
</a>
</g>
</g>
<!-- Node2 -->
<g id="node2" class="node">
<title>Node2</title>
<g id="a_node2"><a xlink:href="kiosk__window__manager_8h.html" target="_top" xlink:title=" ">
<polygon fill="white" stroke="black" points="146.5,-67.5 146.5,-97.5 292.5,-97.5 292.5,-67.5 146.5,-67.5"/>
<text text-anchor="start" x="154.5" y="-85.5" font-family="Arial" font-size="10.00">examples/miral&#45;kiosk</text>
<text text-anchor="middle" x="219.5" y="-74.5" font-family="Arial" font-size="10.00">/kiosk_window_manager.h</text>
</a>
</g>
</g>
<!-- Node1&#45;&gt;Node2 -->
<g id="edge1" class="edge">
<title>Node1&#45;&gt;Node2</title>
<path fill="none" stroke="midnightblue" d="M456.01,-132.62C404.37,-121.89 336.81,-107.86 287.13,-97.55"/>
<polygon fill="midnightblue" stroke="midnightblue" points="455.62,-136.11 466.12,-134.72 457.04,-129.25 455.62,-136.11"/>
</g>
<!-- Node5 -->
<g id="node5" class="node">
<title>Node5</title>
<g id="a_node5"><a xlink:href="toolkit__event_8h.html" target="_top" xlink:title=" ">
<polygon fill="white" stroke="black" points="402,-67.5 402,-97.5 511,-97.5 511,-67.5 402,-67.5"/>
<text text-anchor="start" x="410" y="-85.5" font-family="Arial" font-size="10.00">include/miral/miral</text>
<text text-anchor="middle" x="456.5" y="-74.5" font-family="Arial" font-size="10.00">/toolkit_event.h</text>
</a>
</g>
</g>
<!-- Node1&#45;&gt;Node5 -->
<g id="edge4" class="edge">
<title>Node1&#45;&gt;Node5</title>
<path fill="none" stroke="midnightblue" d="M508.39,-127.88C496.84,-118.01 483.31,-106.43 472.96,-97.58"/>
<polygon fill="midnightblue" stroke="midnightblue" points="506.13,-130.56 516.01,-134.4 510.68,-125.24 506.13,-130.56"/>
</g>
<!-- Node10 -->
<g id="node10" class="node">
<title>Node10</title>
<g id="a_node10"><a xlink:href="tiling__window__manager_8h.html" target="_top" xlink:title=" ">
<polygon fill="white" stroke="black" points="529.5,-67.5 529.5,-97.5 689.5,-97.5 689.5,-67.5 529.5,-67.5"/>
<text text-anchor="start" x="537.5" y="-85.5" font-family="Arial" font-size="10.00">examples/example&#45;server</text>
<text text-anchor="middle" x="609.5" y="-74.5" font-family="Arial" font-size="10.00">&#45;lib/tiling_window_manager.h</text>
</a>
</g>
</g>
<!-- Node1&#45;&gt;Node10 -->
<g id="edge10" class="edge">
<title>Node1&#45;&gt;Node10</title>
<path fill="none" stroke="midnightblue" d="M556.92,-127.88C568.62,-118.01 582.34,-106.43 592.82,-97.58"/>
<polygon fill="midnightblue" stroke="midnightblue" points="554.59,-125.27 549.21,-134.4 559.11,-130.62 554.59,-125.27"/>
</g>
<!-- Node11 -->
<g id="node11" class="node">
<title>Node11</title>
<g id="a_node11"><a xlink:href="floating__window__manager_8h.html" target="_top" xlink:title=" ">
<polygon fill="white" stroke="black" points="707.5,-67.5 707.5,-97.5 879.5,-97.5 879.5,-67.5 707.5,-67.5"/>
<text text-anchor="start" x="715.5" y="-85.5" font-family="Arial" font-size="10.00">examples/example&#45;server</text>
<text text-anchor="middle" x="793.5" y="-74.5" font-family="Arial" font-size="10.00">&#45;lib/floating_window_manager.h</text>
</a>
</g>
</g>
<!-- Node1&#45;&gt;Node11 -->
<g id="edge13" class="edge">
<title>Node1&#45;&gt;Node11</title>
<path fill="none" stroke="midnightblue" d="M598.55,-132.05C641.22,-121.43 696.16,-107.74 736.84,-97.61"/>
<polygon fill="midnightblue" stroke="midnightblue" points="597.67,-128.66 588.81,-134.48 599.36,-135.46 597.67,-128.66"/>
</g>
<!-- Node3 -->
<g id="node3" class="node">
<title>Node3</title>
<g id="a_node3"><a xlink:href="kiosk__main_8cpp.html" target="_top" xlink:title=" ">
<polygon fill="white" stroke="black" points="0,-0.5 0,-30.5 123,-30.5 123,-0.5 0,-0.5"/>
<text text-anchor="start" x="8" y="-18.5" font-family="Arial" font-size="10.00">examples/miral&#45;kiosk</text>
<text text-anchor="middle" x="61.5" y="-7.5" font-family="Arial" font-size="10.00">/kiosk_main.cpp</text>
</a>
</g>
</g>
<!-- Node2&#45;&gt;Node3 -->
<g id="edge2" class="edge">
<title>Node2&#45;&gt;Node3</title>
<path fill="none" stroke="midnightblue" d="M175.85,-63.54C150.57,-53.14 119.2,-40.24 95.72,-30.58"/>
<polygon fill="midnightblue" stroke="midnightblue" points="174.64,-66.83 185.22,-67.4 177.3,-60.35 174.64,-66.83"/>
</g>
<!-- Node4 -->
<g id="node4" class="node">
<title>Node4</title>
<g id="a_node4"><a xlink:href="kiosk__window__manager_8cpp.html" target="_top" xlink:title=" ">
<polygon fill="white" stroke="black" points="141,-0.5 141,-30.5 298,-30.5 298,-0.5 141,-0.5"/>
<text text-anchor="start" x="149" y="-18.5" font-family="Arial" font-size="10.00">examples/miral&#45;kiosk</text>
<text text-anchor="middle" x="219.5" y="-7.5" font-family="Arial" font-size="10.00">/kiosk_window_manager.cpp</text>
</a>
</g>
</g>
<!-- Node2&#45;&gt;Node4 -->
<g id="edge3" class="edge">
<title>Node2&#45;&gt;Node4</title>
<path fill="none" stroke="midnightblue" d="M219.5,-57.11C219.5,-48.15 219.5,-38.32 219.5,-30.58"/>
<polygon fill="midnightblue" stroke="midnightblue" points="216,-57.4 219.5,-67.4 223,-57.4 216,-57.4"/>
</g>
<!-- Node5&#45;&gt;Node4 -->
<g id="edge5" class="edge">
<title>Node5&#45;&gt;Node4</title>
<path fill="none" stroke="midnightblue" d="M395.3,-64.71C356.73,-54.14 307.5,-40.63 270.95,-30.61"/>
<polygon fill="midnightblue" stroke="midnightblue" points="394.8,-68.21 405.37,-67.48 396.65,-61.46 394.8,-68.21"/>
</g>
<!-- Node6 -->
<g id="node6" class="node">
<title>Node6</title>
<g id="a_node6"><a xlink:href="shell__main_8cpp.html" target="_top" xlink:title=" ">
<polygon fill="white" stroke="black" points="638.5,-0.5 638.5,-30.5 758.5,-30.5 758.5,-0.5 638.5,-0.5"/>
<text text-anchor="start" x="646.5" y="-18.5" font-family="Arial" font-size="10.00">examples/miral&#45;shell</text>
<text text-anchor="middle" x="698.5" y="-7.5" font-family="Arial" font-size="10.00">/shell_main.cpp</text>
</a>
</g>
</g>
<!-- Node5&#45;&gt;Node6 -->
<g id="edge6" class="edge">
<title>Node5&#45;&gt;Node6</title>
<path fill="none" stroke="midnightblue" d="M518.49,-64.85C557.95,-54.25 608.49,-40.68 645.96,-30.61"/>
<polygon fill="midnightblue" stroke="midnightblue" points="517.46,-61.5 508.71,-67.48 519.28,-68.26 517.46,-61.5"/>
</g>
<!-- Node7 -->
<g id="node7" class="node">
<title>Node7</title>
<g id="a_node7"><a xlink:href="floating__window__manager_8cpp.html" target="_top" xlink:title=" ">
<polygon fill="white" stroke="black" points="777,-0.5 777,-30.5 960,-30.5 960,-0.5 777,-0.5"/>
<text text-anchor="start" x="785" y="-18.5" font-family="Arial" font-size="10.00">examples/example&#45;server</text>
<text text-anchor="middle" x="868.5" y="-7.5" font-family="Arial" font-size="10.00">&#45;lib/floating_window_manager.cpp</text>
</a>
</g>
</g>
<!-- Node5&#45;&gt;Node7 -->
<g id="edge7" class="edge">
<title>Node5&#45;&gt;Node7</title>
<path fill="none" stroke="midnightblue" d="M521.17,-67.15C559.45,-61.11 687.27,-42.63 776.99,-29.69"/>
<polygon fill="midnightblue" stroke="midnightblue" points="520.54,-63.7 511.25,-68.8 521.69,-70.61 520.54,-63.7"/>
</g>
<!-- Node8 -->
<g id="node8" class="node">
<title>Node8</title>
<g id="a_node8"><a xlink:href="tiling__window__manager_8cpp.html" target="_top" xlink:title=" ">
<polygon fill="white" stroke="black" points="449,-0.5 449,-30.5 620,-30.5 620,-0.5 449,-0.5"/>
<text text-anchor="start" x="457" y="-18.5" font-family="Arial" font-size="10.00">examples/example&#45;server</text>
<text text-anchor="middle" x="534.5" y="-7.5" font-family="Arial" font-size="10.00">&#45;lib/tiling_window_manager.cpp</text>
</a>
</g>
</g>
<!-- Node5&#45;&gt;Node8 -->
<g id="edge8" class="edge">
<title>Node5&#45;&gt;Node8</title>
<path fill="none" stroke="midnightblue" d="M481.24,-60.88C493.09,-51.01 506.98,-39.43 517.61,-30.58"/>
<polygon fill="midnightblue" stroke="midnightblue" points="478.87,-58.31 473.42,-67.4 483.35,-63.68 478.87,-58.31"/>
</g>
<!-- Node9 -->
<g id="node9" class="node">
<title>Node9</title>
<g id="a_node9"><a xlink:href="event__builder_8h.html" target="_top" xlink:title=" ">
<polygon fill="white" stroke="black" points="316,-0.5 316,-30.5 431,-30.5 431,-0.5 316,-0.5"/>
<text text-anchor="start" x="324" y="-18.5" font-family="Arial" font-size="10.00">include/miroil/miroil</text>
<text text-anchor="middle" x="373.5" y="-7.5" font-family="Arial" font-size="10.00">/event_builder.h</text>
</a>
</g>
</g>
<!-- Node5&#45;&gt;Node9 -->
<g id="edge9" class="edge">
<title>Node5&#45;&gt;Node9</title>
<path fill="none" stroke="midnightblue" d="M430.54,-61.17C417.85,-51.23 402.89,-39.51 391.47,-30.58"/>
<polygon fill="midnightblue" stroke="midnightblue" points="428.46,-63.99 438.49,-67.4 432.78,-58.47 428.46,-63.99"/>
</g>
<!-- Node10&#45;&gt;Node6 -->
<g id="edge11" class="edge">
<title>Node10&#45;&gt;Node6</title>
<path fill="none" stroke="midnightblue" d="M636.95,-61.45C650.64,-51.45 666.87,-39.6 679.23,-30.58"/>
<polygon fill="midnightblue" stroke="midnightblue" points="634.82,-58.67 628.81,-67.4 638.95,-64.32 634.82,-58.67"/>
</g>
<!-- Node10&#45;&gt;Node8 -->
<g id="edge12" class="edge">
<title>Node10&#45;&gt;Node8</title>
<path fill="none" stroke="midnightblue" d="M585.38,-60.6C574.06,-50.78 560.86,-39.34 550.74,-30.58"/>
<polygon fill="midnightblue" stroke="midnightblue" points="583.38,-63.49 593.23,-67.4 587.96,-58.2 583.38,-63.49"/>
</g>
<!-- Node11&#45;&gt;Node6 -->
<g id="edge14" class="edge">
<title>Node11&#45;&gt;Node6</title>
<path fill="none" stroke="midnightblue" d="M764.61,-61.73C749.91,-51.68 732.39,-39.68 719.07,-30.58"/>
<polygon fill="midnightblue" stroke="midnightblue" points="762.66,-64.64 772.89,-67.4 766.61,-58.86 762.66,-64.64"/>
</g>
<!-- Node11&#45;&gt;Node7 -->
<g id="edge15" class="edge">
<title>Node11&#45;&gt;Node7</title>
<path fill="none" stroke="midnightblue" d="M817.62,-60.6C828.94,-50.78 842.14,-39.34 852.26,-30.58"/>
<polygon fill="midnightblue" stroke="midnightblue" points="815.04,-58.2 809.77,-67.4 819.62,-63.49 815.04,-58.2"/>
</g>
</g>
</svg>
