<?xml version="1.0" encoding="UTF-8" standalone="no"?>
<!DOCTYPE svg PUBLIC "-//W3C//DTD SVG 1.1//EN"
 "http://www.w3.org/Graphics/SVG/1.1/DTD/svg11.dtd">
<!-- Generated by graphviz version 2.43.0 (0)
 -->
<!-- Title: include/core/mir_toolkit/events/enums.h Pages: 1 -->
<svg width="873pt" height="173pt"
 viewBox="0.00 0.00 872.50 173.00" xmlns="http://www.w3.org/2000/svg" xmlns:xlink="http://www.w3.org/1999/xlink">
<g id="graph0" class="graph" transform="scale(1 1) rotate(0) translate(4 169)">
<title>include/core/mir_toolkit/events/enums.h</title>
<polygon fill="white" stroke="transparent" points="-4,4 -4,-169 868.5,-169 868.5,4 -4,4"/>
<!-- Node1 -->
<g id="node1" class="node">
<title>Node1</title>
<g id="a_node1"><a xlink:title=" ">
<polygon fill="#bfbfbf" stroke="black" points="426,-134.5 426,-164.5 543,-164.5 543,-134.5 426,-134.5"/>
<text text-anchor="start" x="434" y="-152.5" font-family="Arial" font-size="10.00">include/core/mir_toolkit</text>
<text text-anchor="middle" x="484.5" y="-141.5" font-family="Arial" font-size="10.00">/events/enums.h</text>
</a>
</g>
</g>
<!-- Node2 -->
<g id="node2" class="node">
<title>Node2</title>
<g id="a_node2"><a xlink:href="kiosk__window__manager_8h.html" target="_top" xlink:title=" ">
<polygon fill="white" stroke="black" points="132.5,-67.5 132.5,-97.5 264.5,-97.5 264.5,-67.5 132.5,-67.5"/>
<text text-anchor="start" x="140.5" y="-85.5" font-family="Arial" font-size="10.00">examples/miral&#45;kiosk</text>
<text text-anchor="middle" x="198.5" y="-74.5" font-family="Arial" font-size="10.00">/kiosk_window_manager.h</text>
</a>
</g>
</g>
<!-- Node1&#45;&gt;Node2 -->
<g id="edge1" class="edge">
<title>Node1&#45;&gt;Node2</title>
<path fill="none" stroke="midnightblue" d="M416.06,-132.95C368.65,-122.17 306.07,-107.95 260.2,-97.52"/>
<polygon fill="midnightblue" stroke="midnightblue" points="415.41,-136.39 425.93,-135.19 416.96,-129.56 415.41,-136.39"/>
</g>
<!-- Node5 -->
<g id="node5" class="node">
<title>Node5</title>
<g id="a_node5"><a xlink:href="floating__window__manager_8h.html" target="_top" xlink:title=" ">
<polygon fill="white" stroke="black" points="479,-67.5 479,-97.5 632,-97.5 632,-67.5 479,-67.5"/>
<text text-anchor="start" x="487" y="-85.5" font-family="Arial" font-size="10.00">examples/example&#45;server</text>
<text text-anchor="middle" x="555.5" y="-74.5" font-family="Arial" font-size="10.00">&#45;lib/floating_window_manager.h</text>
</a>
</g>
</g>
<!-- Node1&#45;&gt;Node5 -->
<g id="edge4" class="edge">
<title>Node1&#45;&gt;Node5</title>
<path fill="none" stroke="midnightblue" d="M507.33,-127.6C518.05,-117.78 530.55,-106.34 540.12,-97.58"/>
<polygon fill="midnightblue" stroke="midnightblue" points="504.92,-125.06 499.91,-134.4 509.65,-130.22 504.92,-125.06"/>
</g>
<!-- Node8 -->
<g id="node8" class="node">
<title>Node8</title>
<g id="a_node8"><a xlink:href="tiling__window__manager_8h.html" target="_top" xlink:title=" ">
<polygon fill="white" stroke="black" points="650.5,-67.5 650.5,-97.5 792.5,-97.5 792.5,-67.5 650.5,-67.5"/>
<text text-anchor="start" x="658.5" y="-85.5" font-family="Arial" font-size="10.00">examples/example&#45;server</text>
<text text-anchor="middle" x="721.5" y="-74.5" font-family="Arial" font-size="10.00">&#45;lib/tiling_window_manager.h</text>
</a>
</g>
</g>
<!-- Node1&#45;&gt;Node8 -->
<g id="edge7" class="edge">
<title>Node1&#45;&gt;Node8</title>
<path fill="none" stroke="midnightblue" d="M545.7,-131.71C584.27,-121.14 633.5,-107.63 670.05,-97.61"/>
<polygon fill="midnightblue" stroke="midnightblue" points="544.35,-128.46 535.63,-134.48 546.2,-135.21 544.35,-128.46"/>
</g>
<!-- Node10 -->
<g id="node10" class="node">
<title>Node10</title>
<g id="a_node10"><a xlink:href="toolkit__event_8h.html" target="_top" xlink:title=" ">
<polygon fill="white" stroke="black" points="366,-67.5 366,-97.5 461,-97.5 461,-67.5 366,-67.5"/>
<text text-anchor="start" x="374" y="-85.5" font-family="Arial" font-size="10.00">include/miral/miral</text>
<text text-anchor="middle" x="413.5" y="-74.5" font-family="Arial" font-size="10.00">/toolkit_event.h</text>
</a>
</g>
</g>
<!-- Node1&#45;&gt;Node10 -->
<g id="edge10" class="edge">
<title>Node1&#45;&gt;Node10</title>
<path fill="none" stroke="midnightblue" d="M461.67,-127.6C450.95,-117.78 438.45,-106.34 428.88,-97.58"/>
<polygon fill="midnightblue" stroke="midnightblue" points="459.35,-130.22 469.09,-134.4 464.08,-125.06 459.35,-130.22"/>
</g>
<!-- Node3 -->
<g id="node3" class="node">
<title>Node3</title>
<g id="a_node3"><a xlink:href="kiosk__main_8cpp.html" target="_top" xlink:title=" ">
<polygon fill="white" stroke="black" points="0,-0.5 0,-30.5 109,-30.5 109,-0.5 0,-0.5"/>
<text text-anchor="start" x="8" y="-18.5" font-family="Arial" font-size="10.00">examples/miral&#45;kiosk</text>
<text text-anchor="middle" x="54.5" y="-7.5" font-family="Arial" font-size="10.00">/kiosk_main.cpp</text>
</a>
</g>
</g>
<!-- Node2&#45;&gt;Node3 -->
<g id="edge2" class="edge">
<title>Node2&#45;&gt;Node3</title>
<path fill="none" stroke="midnightblue" d="M158.11,-63.27C135.18,-52.92 106.9,-40.15 85.68,-30.58"/>
<polygon fill="midnightblue" stroke="midnightblue" points="156.7,-66.47 167.25,-67.4 159.58,-60.09 156.7,-66.47"/>
</g>
<!-- Node4 -->
<g id="node4" class="node">
<title>Node4</title>
<g id="a_node4"><a xlink:href="kiosk__window__manager_8cpp.html" target="_top" xlink:title=" ">
<polygon fill="white" stroke="black" points="127,-0.5 127,-30.5 270,-30.5 270,-0.5 127,-0.5"/>
<text text-anchor="start" x="135" y="-18.5" font-family="Arial" font-size="10.00">examples/miral&#45;kiosk</text>
<text text-anchor="middle" x="198.5" y="-7.5" font-family="Arial" font-size="10.00">/kiosk_window_manager.cpp</text>
</a>
</g>
</g>
<!-- Node2&#45;&gt;Node4 -->
<g id="edge3" class="edge">
<title>Node2&#45;&gt;Node4</title>
<path fill="none" stroke="midnightblue" d="M198.5,-57.11C198.5,-48.15 198.5,-38.32 198.5,-30.58"/>
<polygon fill="midnightblue" stroke="midnightblue" points="195,-57.4 198.5,-67.4 202,-57.4 195,-57.4"/>
</g>
<!-- Node6 -->
<g id="node6" class="node">
<title>Node6</title>
<g id="a_node6"><a xlink:href="shell__main_8cpp.html" target="_top" xlink:title=" ">
<polygon fill="white" stroke="black" points="588.5,-0.5 588.5,-30.5 694.5,-30.5 694.5,-0.5 588.5,-0.5"/>
<text text-anchor="start" x="596.5" y="-18.5" font-family="Arial" font-size="10.00">examples/miral&#45;shell</text>
<text text-anchor="middle" x="641.5" y="-7.5" font-family="Arial" font-size="10.00">/shell_main.cpp</text>
</a>
</g>
</g>
<!-- Node5&#45;&gt;Node6 -->
<g id="edge5" class="edge">
<title>Node5&#45;&gt;Node6</title>
<path fill="none" stroke="midnightblue" d="M582.4,-61.17C595.55,-51.23 611.05,-39.51 622.88,-30.58"/>
<polygon fill="midnightblue" stroke="midnightblue" points="580.03,-58.57 574.16,-67.4 584.25,-64.16 580.03,-58.57"/>
</g>
<!-- Node7 -->
<g id="node7" class="node">
<title>Node7</title>
<g id="a_node7"><a xlink:href="floating__window__manager_8cpp.html" target="_top" xlink:title=" ">
<polygon fill="white" stroke="black" points="406.5,-0.5 406.5,-30.5 570.5,-30.5 570.5,-0.5 406.5,-0.5"/>
<text text-anchor="start" x="414.5" y="-18.5" font-family="Arial" font-size="10.00">examples/example&#45;server</text>
<text text-anchor="middle" x="488.5" y="-7.5" font-family="Arial" font-size="10.00">&#45;lib/floating_window_manager.cpp</text>
</a>
</g>
</g>
<!-- Node5&#45;&gt;Node7 -->
<g id="edge6" class="edge">
<title>Node5&#45;&gt;Node7</title>
<path fill="none" stroke="midnightblue" d="M533.66,-60.31C523.61,-50.56 511.96,-39.26 503.01,-30.58"/>
<polygon fill="midnightblue" stroke="midnightblue" points="531.35,-62.94 540.96,-67.4 536.22,-57.92 531.35,-62.94"/>
</g>
<!-- Node8&#45;&gt;Node6 -->
<g id="edge8" class="edge">
<title>Node8&#45;&gt;Node6</title>
<path fill="none" stroke="midnightblue" d="M696.13,-60.88C683.97,-51.01 669.72,-39.43 658.82,-30.58"/>
<polygon fill="midnightblue" stroke="midnightblue" points="694.17,-63.81 704.14,-67.4 698.59,-58.37 694.17,-63.81"/>
</g>
<!-- Node9 -->
<g id="node9" class="node">
<title>Node9</title>
<g id="a_node9"><a xlink:href="tiling__window__manager_8cpp.html" target="_top" xlink:title=" ">
<polygon fill="white" stroke="black" points="712.5,-0.5 712.5,-30.5 864.5,-30.5 864.5,-0.5 712.5,-0.5"/>
<text text-anchor="start" x="720.5" y="-18.5" font-family="Arial" font-size="10.00">examples/example&#45;server</text>
<text text-anchor="middle" x="788.5" y="-7.5" font-family="Arial" font-size="10.00">&#45;lib/tiling_window_manager.cpp</text>
</a>
</g>
</g>
<!-- Node8&#45;&gt;Node9 -->
<g id="edge9" class="edge">
<title>Node8&#45;&gt;Node9</title>
<path fill="none" stroke="midnightblue" d="M743.34,-60.31C753.39,-50.56 765.04,-39.26 773.99,-30.58"/>
<polygon fill="midnightblue" stroke="midnightblue" points="740.78,-57.92 736.04,-67.4 745.65,-62.94 740.78,-57.92"/>
</g>
<!-- Node10&#45;&gt;Node4 -->
<g id="edge11" class="edge">
<title>Node10&#45;&gt;Node4</title>
<path fill="none" stroke="midnightblue" d="M357.53,-64.58C322.61,-54.02 278.19,-40.59 245.17,-30.61"/>
<polygon fill="midnightblue" stroke="midnightblue" points="356.53,-67.93 367.11,-67.48 358.55,-61.23 356.53,-67.93"/>
</g>
<!-- Node10&#45;&gt;Node6 -->
<g id="edge12" class="edge">
<title>Node10&#45;&gt;Node6</title>
<path fill="none" stroke="midnightblue" d="M470.76,-65.18C508.12,-54.53 556.39,-40.76 592.07,-30.59"/>
<polygon fill="midnightblue" stroke="midnightblue" points="469.68,-61.85 461.02,-67.95 471.6,-68.58 469.68,-61.85"/>
</g>
<!-- Node10&#45;&gt;Node7 -->
<g id="edge13" class="edge">
<title>Node10&#45;&gt;Node7</title>
<path fill="none" stroke="midnightblue" d="M437.62,-60.6C448.94,-50.78 462.14,-39.34 472.26,-30.58"/>
<polygon fill="midnightblue" stroke="midnightblue" points="435.04,-58.2 429.77,-67.4 439.62,-63.49 435.04,-58.2"/>
</g>
<!-- Node10&#45;&gt;Node9 -->
<g id="edge14" class="edge">
<title>Node10&#45;&gt;Node9</title>
<path fill="none" stroke="midnightblue" d="M470.98,-66.81C574.27,-45.89 602.78,-47.34 703.5,-31 706.31,-30.54 709.17,-30.08 712.05,-29.6"/>
<polygon fill="midnightblue" stroke="midnightblue" points="470.18,-63.4 461.08,-68.83 471.58,-70.26 470.18,-63.4"/>
</g>
<!-- Node11 -->
<g id="node11" class="node">
<title>Node11</title>
<g id="a_node11"><a xlink:href="event__builder_8h.html" target="_top" xlink:title=" ">
<polygon fill="white" stroke="black" points="288.5,-0.5 288.5,-30.5 388.5,-30.5 388.5,-0.5 288.5,-0.5"/>
<text text-anchor="start" x="296.5" y="-18.5" font-family="Arial" font-size="10.00">include/miroil/miroil</text>
<text text-anchor="middle" x="338.5" y="-7.5" font-family="Arial" font-size="10.00">/event_builder.h</text>
</a>
</g>
</g>
<!-- Node10&#45;&gt;Node11 -->
<g id="edge15" class="edge">
<title>Node10&#45;&gt;Node11</title>
<path fill="none" stroke="midnightblue" d="M389.38,-60.6C378.06,-50.78 364.86,-39.34 354.74,-30.58"/>
<polygon fill="midnightblue" stroke="midnightblue" points="387.38,-63.49 397.23,-67.4 391.96,-58.2 387.38,-63.49"/>
</g>
</g>
</svg>
