<?xml version="1.0" encoding="UTF-8" standalone="no"?>
<!DOCTYPE svg PUBLIC "-//W3C//DTD SVG 1.1//EN"
 "http://www.w3.org/Graphics/SVG/1.1/DTD/svg11.dtd">
<!-- Generated by graphviz version 2.38.0 (20140413.2041)
 -->
<!-- Title: include/test/mir/test/event_factory.h Pages: 1 -->
<svg width="123pt" height="117pt"
 viewBox="0.00 0.00 123.00 117.00" xmlns="http://www.w3.org/2000/svg" xmlns:xlink="http://www.w3.org/1999/xlink">
<g id="graph0" class="graph" transform="scale(1 1) rotate(0) translate(4 113)">
<title>include/test/mir/test/event_factory.h</title>
<polygon fill="white" stroke="none" points="-4,4 -4,-113 119,-113 119,4 -4,4"/>
<!-- Node5 -->
<g id="node1" class="node"><title>Node5</title>
<polygon fill="#bfbfbf" stroke="black" points="6,-78.5 6,-108.5 109,-108.5 109,-78.5 6,-78.5"/>
<text text-anchor="start" x="14" y="-96.5" font-family="Arial" font-size="10.00">include/test/mir/test</text>
<text text-anchor="middle" x="57.5" y="-85.5" font-family="Arial" font-size="10.00">/event_factory.h</text>
</g>
<!-- Node6 -->
<g id="node2" class="node"><title>Node6</title>
<g id="a_node2"><a xlink:href="fake__input__device_8h.html" target="_top" xlink:title="include/test/mir_test\l_framework/fake_input\l_device.h">
<polygon fill="white" stroke="black" points="-7.10543e-15,-0.5 -7.10543e-15,-41.5 115,-41.5 115,-0.5 -7.10543e-15,-0.5"/>
<text text-anchor="start" x="8" y="-29.5" font-family="Arial" font-size="10.00">include/test/mir_test</text>
<text text-anchor="start" x="8" y="-18.5" font-family="Arial" font-size="10.00">_framework/fake_input</text>
<text text-anchor="middle" x="57.5" y="-7.5" font-family="Arial" font-size="10.00">_device.h</text>
</a>
</g>
</g>
<!-- Node5&#45;&gt;Node6 -->
<g id="edge1" class="edge"><title>Node5&#45;&gt;Node6</title>
<path fill="none" stroke="midnightblue" d="M57.5,-67.9815C57.5,-59.3468 57.5,-49.7625 57.5,-41.5884"/>
<polygon fill="midnightblue" stroke="midnightblue" points="54.0001,-68.2332 57.5,-78.2333 61.0001,-68.2333 54.0001,-68.2332"/>
</g>
</g>
</svg>
