<?xml version="1.0" encoding="UTF-8" standalone="no"?>
<!DOCTYPE svg PUBLIC "-//W3C//DTD SVG 1.1//EN"
 "http://www.w3.org/Graphics/SVG/1.1/DTD/svg11.dtd">
<!-- Generated by graphviz version 2.38.0 (20140413.2041)
 -->
<!-- Title: include/client/mir/events/event_builders.h Pages: 1 -->
<svg width="2299pt" height="430pt"
 viewBox="0.00 0.00 2298.50 430.00" xmlns="http://www.w3.org/2000/svg" xmlns:xlink="http://www.w3.org/1999/xlink">
<g id="graph0" class="graph" transform="scale(1 1) rotate(0) translate(4 426)">
<title>include/client/mir/events/event_builders.h</title>
<polygon fill="white" stroke="none" points="-4,4 -4,-426 2294.5,-426 2294.5,4 -4,4"/>
<!-- Node0 -->
<g id="node1" class="node"><title>Node0</title>
<polygon fill="#bfbfbf" stroke="black" points="1741,-391.5 1741,-421.5 1864,-421.5 1864,-391.5 1741,-391.5"/>
<text text-anchor="start" x="1749" y="-409.5" font-family="Arial" font-size="10.00">include/client/mir</text>
<text text-anchor="middle" x="1802.5" y="-398.5" font-family="Arial" font-size="10.00">/events/event_builders.h</text>
</g>
<!-- Node1 -->
<g id="node2" class="node"><title>Node1</title>
<g id="a_node2"><a xlink:href="toolkit_2event_8h.html" target="_top" xlink:title="mir_toolkit/event.h">
<polygon fill="white" stroke="black" points="1281,-268.5 1281,-287.5 1378,-287.5 1378,-268.5 1281,-268.5"/>
<text text-anchor="middle" x="1329.5" y="-275.5" font-family="Arial" font-size="10.00">mir_toolkit/event.h</text>
</a>
</g>
</g>
<!-- Node0&#45;&gt;Node1 -->
<g id="edge1" class="edge"><title>Node0&#45;&gt;Node1</title>
<path fill="none" stroke="midnightblue" d="M1740.66,-403.692C1614.91,-399.375 1338.83,-386.392 1310.5,-355 1295.89,-338.815 1307.03,-313.097 1317.4,-296.133"/>
<polygon fill="midnightblue" stroke="midnightblue" points="1320.35,-298.007 1322.91,-287.725 1314.5,-294.169 1320.35,-298.007"/>
</g>
<!-- Node24 -->
<g id="node25" class="node"><title>Node24</title>
<g id="a_node25"><a xlink:href="size_8h.html" target="_top" xlink:title="mir/geometry/size.h">
<polygon fill="white" stroke="black" points="1855,-268.5 1855,-287.5 1958,-287.5 1958,-268.5 1855,-268.5"/>
<text text-anchor="middle" x="1906.5" y="-275.5" font-family="Arial" font-size="10.00">mir/geometry/size.h</text>
</a>
</g>
</g>
<!-- Node0&#45;&gt;Node24 -->
<g id="edge43" class="edge"><title>Node0&#45;&gt;Node24</title>
<path fill="none" stroke="midnightblue" d="M1806.57,-391.24C1812.07,-373.873 1823.21,-344.344 1840.5,-324 1851.34,-311.244 1866.63,-300.513 1879.76,-292.733"/>
<polygon fill="midnightblue" stroke="midnightblue" points="1881.86,-295.566 1888.85,-287.603 1878.42,-289.471 1881.86,-295.566"/>
</g>
<!-- Node28 -->
<g id="node29" class="node"><title>Node28</title>
<g id="a_node29"><a xlink:href="point_8h.html" target="_top" xlink:title="mir/geometry/point.h">
<polygon fill="white" stroke="black" points="1730.5,-268.5 1730.5,-287.5 1836.5,-287.5 1836.5,-268.5 1730.5,-268.5"/>
<text text-anchor="middle" x="1783.5" y="-275.5" font-family="Arial" font-size="10.00">mir/geometry/point.h</text>
</a>
</g>
</g>
<!-- Node0&#45;&gt;Node28 -->
<g id="edge48" class="edge"><title>Node0&#45;&gt;Node28</title>
<path fill="none" stroke="midnightblue" d="M1800.39,-391.479C1796.96,-368.616 1790.15,-323.296 1786.31,-297.713"/>
<polygon fill="midnightblue" stroke="midnightblue" points="1789.77,-297.158 1784.82,-287.789 1782.84,-298.198 1789.77,-297.158"/>
</g>
<!-- Node29 -->
<g id="node30" class="node"><title>Node29</title>
<g id="a_node30"><a xlink:href="rectangle_8h.html" target="_top" xlink:title="mir/geometry/rectangle.h">
<polygon fill="white" stroke="black" points="1850,-330 1850,-349 1975,-349 1975,-330 1850,-330"/>
<text text-anchor="middle" x="1912.5" y="-337" font-family="Arial" font-size="10.00">mir/geometry/rectangle.h</text>
</a>
</g>
</g>
<!-- Node0&#45;&gt;Node29 -->
<g id="edge51" class="edge"><title>Node0&#45;&gt;Node29</title>
<path fill="none" stroke="midnightblue" d="M1826.37,-391.396C1845.07,-380.344 1870.94,-365.061 1889.43,-354.132"/>
<polygon fill="midnightblue" stroke="midnightblue" points="1891.27,-357.108 1898.1,-349.007 1887.71,-351.081 1891.27,-357.108"/>
</g>
<!-- Node30 -->
<g id="node31" class="node"><title>Node30</title>
<g id="a_node31"><a xlink:href="displacement_8h.html" target="_top" xlink:title="mir/geometry/displacement.h">
<polygon fill="white" stroke="black" points="1612,-330 1612,-349 1755,-349 1755,-330 1612,-330"/>
<text text-anchor="middle" x="1683.5" y="-337" font-family="Arial" font-size="10.00">mir/geometry/displacement.h</text>
</a>
</g>
</g>
<!-- Node0&#45;&gt;Node30 -->
<g id="edge55" class="edge"><title>Node0&#45;&gt;Node30</title>
<path fill="none" stroke="midnightblue" d="M1776.68,-391.396C1756.26,-380.243 1727.95,-364.781 1707.91,-353.834"/>
<polygon fill="midnightblue" stroke="midnightblue" points="1709.53,-350.729 1699.07,-349.007 1706.17,-356.872 1709.53,-350.729"/>
</g>
<!-- Node31 -->
<g id="node32" class="node"><title>Node31</title>
<g id="a_node32"><a xlink:href="surface__id_8h.html" target="_top" xlink:title="mir/frontend/surface_id.h">
<polygon fill="white" stroke="black" points="1993,-330 1993,-349 2118,-349 2118,-330 1993,-330"/>
<text text-anchor="middle" x="2055.5" y="-337" font-family="Arial" font-size="10.00">mir/frontend/surface_id.h</text>
</a>
</g>
</g>
<!-- Node0&#45;&gt;Node31 -->
<g id="edge59" class="edge"><title>Node0&#45;&gt;Node31</title>
<path fill="none" stroke="midnightblue" d="M1857.09,-391.476C1903.62,-379.521 1969.59,-362.573 2012.46,-351.558"/>
<polygon fill="midnightblue" stroke="midnightblue" points="2013.49,-354.907 2022.3,-349.029 2011.75,-348.127 2013.49,-354.907"/>
</g>
<!-- Node33 -->
<g id="node34" class="node"><title>Node33</title>
<polygon fill="white" stroke="#bfbfbf" points="2093,-207 2093,-226 2152,-226 2152,-207 2093,-207"/>
<text text-anchor="middle" x="2122.5" y="-214" font-family="Arial" font-size="10.00">functional</text>
</g>
<!-- Node0&#45;&gt;Node33 -->
<g id="edge69" class="edge"><title>Node0&#45;&gt;Node33</title>
<path fill="none" stroke="midnightblue" d="M1864.16,-405.038C1948.56,-402.946 2093.41,-393.649 2126.5,-355 2155.15,-321.542 2140.44,-264.923 2129.98,-235.883"/>
<polygon fill="midnightblue" stroke="midnightblue" points="2133.12,-234.298 2126.28,-226.21 2126.58,-236.8 2133.12,-234.298"/>
</g>
<!-- Node34 -->
<g id="node35" class="node"><title>Node34</title>
<g id="a_node35"><a xlink:href="input__device__state_8h.html" target="_top" xlink:title="mir/events/input_device\l_state.h">
<polygon fill="white" stroke="black" points="1435.5,-324.5 1435.5,-354.5 1555.5,-354.5 1555.5,-324.5 1435.5,-324.5"/>
<text text-anchor="start" x="1443.5" y="-342.5" font-family="Arial" font-size="10.00">mir/events/input_device</text>
<text text-anchor="middle" x="1495.5" y="-331.5" font-family="Arial" font-size="10.00">_state.h</text>
</a>
</g>
</g>
<!-- Node0&#45;&gt;Node34 -->
<g id="edge63" class="edge"><title>Node0&#45;&gt;Node34</title>
<path fill="none" stroke="midnightblue" d="M1740.74,-392.424C1690.08,-381.698 1618.35,-366.511 1565.55,-355.332"/>
<polygon fill="midnightblue" stroke="midnightblue" points="1566.1,-351.87 1555.59,-353.223 1564.65,-358.718 1566.1,-351.87"/>
</g>
<!-- Node35 -->
<g id="node36" class="node"><title>Node35</title>
<polygon fill="white" stroke="#bfbfbf" points="1517.5,-268.5 1517.5,-287.5 1561.5,-287.5 1561.5,-268.5 1517.5,-268.5"/>
<text text-anchor="middle" x="1539.5" y="-275.5" font-family="Arial" font-size="10.00">vector</text>
</g>
<!-- Node0&#45;&gt;Node35 -->
<g id="edge71" class="edge"><title>Node0&#45;&gt;Node35</title>
<path fill="none" stroke="midnightblue" d="M1740.83,-400.015C1699.15,-393.991 1644.29,-381.377 1602.5,-355 1579.02,-340.182 1560.03,-313.684 1549.25,-296.222"/>
<polygon fill="midnightblue" stroke="midnightblue" points="1552.24,-294.4 1544.13,-287.582 1546.21,-297.969 1552.24,-294.4"/>
</g>
<!-- Node36 -->
<g id="node37" class="node"><title>Node36</title>
<g id="a_node37"><a xlink:href="contact__state_8h.html" target="_top" xlink:title="mir/events/contact\l_state.h">
<polygon fill="white" stroke="black" points="1319.5,-324.5 1319.5,-354.5 1417.5,-354.5 1417.5,-324.5 1319.5,-324.5"/>
<text text-anchor="start" x="1327.5" y="-342.5" font-family="Arial" font-size="10.00">mir/events/contact</text>
<text text-anchor="middle" x="1368.5" y="-331.5" font-family="Arial" font-size="10.00">_state.h</text>
</a>
</g>
</g>
<!-- Node0&#45;&gt;Node36 -->
<g id="edge66" class="edge"><title>Node0&#45;&gt;Node36</title>
<path fill="none" stroke="midnightblue" d="M1740.94,-399.363C1668.31,-391.646 1543.77,-376.927 1427.89,-355.14"/>
<polygon fill="midnightblue" stroke="midnightblue" points="1428.26,-351.647 1417.78,-353.217 1426.95,-358.524 1428.26,-351.647"/>
</g>
<!-- Node37 -->
<g id="node38" class="node"><title>Node37</title>
<polygon fill="white" stroke="#bfbfbf" points="2174.5,-330 2174.5,-349 2226.5,-349 2226.5,-330 2174.5,-330"/>
<text text-anchor="middle" x="2200.5" y="-337" font-family="Arial" font-size="10.00">memory</text>
</g>
<!-- Node0&#45;&gt;Node37 -->
<g id="edge68" class="edge"><title>Node0&#45;&gt;Node37</title>
<path fill="none" stroke="midnightblue" d="M1864.05,-400.73C1935.97,-394.259 2058.17,-380.47 2160.5,-355 2163.56,-354.24 2166.7,-353.33 2169.83,-352.343"/>
<polygon fill="midnightblue" stroke="midnightblue" points="2171.25,-355.555 2179.58,-349.009 2168.99,-348.931 2171.25,-355.555"/>
</g>
<!-- Node38 -->
<g id="node39" class="node"><title>Node38</title>
<polygon fill="white" stroke="#bfbfbf" points="2244.5,-330 2244.5,-349 2290.5,-349 2290.5,-330 2244.5,-330"/>
<text text-anchor="middle" x="2267.5" y="-337" font-family="Arial" font-size="10.00">chrono</text>
</g>
<!-- Node0&#45;&gt;Node38 -->
<g id="edge70" class="edge"><title>Node0&#45;&gt;Node38</title>
<path fill="none" stroke="midnightblue" d="M1864.24,-404.265C1949.29,-401.226 2106.6,-390.781 2235.5,-355 2237.65,-354.404 2239.84,-353.682 2242.01,-352.882"/>
<polygon fill="midnightblue" stroke="midnightblue" points="2243.37,-356.107 2251.26,-349.032 2240.68,-349.644 2243.37,-356.107"/>
</g>
<!-- Node2 -->
<g id="node3" class="node"><title>Node2</title>
<g id="a_node3"><a xlink:href="toolkit_2events_2event_8h.html" target="_top" xlink:title="mir_toolkit/events\l/event.h">
<polygon fill="white" stroke="black" points="799.5,-201.5 799.5,-231.5 893.5,-231.5 893.5,-201.5 799.5,-201.5"/>
<text text-anchor="start" x="807.5" y="-219.5" font-family="Arial" font-size="10.00">mir_toolkit/events</text>
<text text-anchor="middle" x="846.5" y="-208.5" font-family="Arial" font-size="10.00">/event.h</text>
</a>
</g>
</g>
<!-- Node1&#45;&gt;Node2 -->
<g id="edge2" class="edge"><title>Node1&#45;&gt;Node2</title>
<path fill="none" stroke="midnightblue" d="M1280.98,-271.022C1191.19,-259.962 999.566,-236.356 903.658,-224.541"/>
<polygon fill="midnightblue" stroke="midnightblue" points="903.918,-221.047 893.565,-223.298 903.062,-227.994 903.918,-221.047"/>
</g>
<!-- Node3 -->
<g id="node4" class="node"><title>Node3</title>
<polygon fill="white" stroke="#bfbfbf" points="1044.5,-134.5 1044.5,-153.5 1096.5,-153.5 1096.5,-134.5 1044.5,-134.5"/>
<text text-anchor="middle" x="1070.5" y="-141.5" font-family="Arial" font-size="10.00">stddef.h</text>
</g>
<!-- Node2&#45;&gt;Node3 -->
<g id="edge3" class="edge"><title>Node2&#45;&gt;Node3</title>
<path fill="none" stroke="midnightblue" d="M893.503,-206.229C932.172,-197.813 987.982,-183.837 1034.5,-165 1038.94,-163.2 1043.53,-160.971 1047.88,-158.661"/>
<polygon fill="midnightblue" stroke="midnightblue" points="1049.87,-161.558 1056.87,-153.609 1046.44,-155.455 1049.87,-161.558"/>
</g>
<!-- Node4 -->
<g id="node5" class="node"><title>Node4</title>
<polygon fill="white" stroke="#bfbfbf" points="1696,-0.5 1696,-19.5 1745,-19.5 1745,-0.5 1696,-0.5"/>
<text text-anchor="middle" x="1720.5" y="-7.5" font-family="Arial" font-size="10.00">stdint.h</text>
</g>
<!-- Node2&#45;&gt;Node4 -->
<g id="edge4" class="edge"><title>Node2&#45;&gt;Node4</title>
<path fill="none" stroke="midnightblue" d="M893.863,-214.812C1034.58,-212.362 1448.36,-202.11 1577.5,-165 1648.21,-144.682 1685.67,-150.098 1723.5,-87 1733.87,-69.7005 1730.8,-45.9875 1726.63,-29.6737"/>
<polygon fill="midnightblue" stroke="midnightblue" points="1729.89,-28.3472 1723.72,-19.7314 1723.17,-30.3118 1729.89,-28.3472"/>
</g>
<!-- Node5 -->
<g id="node6" class="node"><title>Node5</title>
<g id="a_node6"><a xlink:href="common_8h.html" target="_top" xlink:title="mir_toolkit/common.h">
<polygon fill="white" stroke="black" points="1114.5,-134.5 1114.5,-153.5 1224.5,-153.5 1224.5,-134.5 1114.5,-134.5"/>
<text text-anchor="middle" x="1169.5" y="-141.5" font-family="Arial" font-size="10.00">mir_toolkit/common.h</text>
</a>
</g>
</g>
<!-- Node2&#45;&gt;Node5 -->
<g id="edge5" class="edge"><title>Node2&#45;&gt;Node5</title>
<path fill="none" stroke="midnightblue" d="M893.634,-207.919C945.807,-199.156 1032.22,-183.535 1105.5,-165 1115.03,-162.589 1125.24,-159.593 1134.64,-156.659"/>
<polygon fill="midnightblue" stroke="midnightblue" points="1135.99,-159.902 1144.45,-153.531 1133.86,-153.233 1135.99,-159.902"/>
</g>
<!-- Node6 -->
<g id="node7" class="node"><title>Node6</title>
<g id="a_node7"><a xlink:href="deprecations_8h.html" target="_top" xlink:title="mir_toolkit/deprecations.h">
<polygon fill="white" stroke="black" points="205.5,-62 205.5,-81 333.5,-81 333.5,-62 205.5,-62"/>
<text text-anchor="middle" x="269.5" y="-69" font-family="Arial" font-size="10.00">mir_toolkit/deprecations.h</text>
</a>
</g>
</g>
<!-- Node2&#45;&gt;Node6 -->
<g id="edge7" class="edge"><title>Node2&#45;&gt;Node6</title>
<path fill="none" stroke="midnightblue" d="M799.443,-214.406C671.841,-211.006 326.263,-198.742 288.5,-165 267.982,-146.666 266.201,-112.614 267.408,-91.333"/>
<polygon fill="midnightblue" stroke="midnightblue" points="270.904,-91.5208 268.256,-81.2622 263.929,-90.9329 270.904,-91.5208"/>
</g>
<!-- Node7 -->
<g id="node8" class="node"><title>Node7</title>
<g id="a_node8"><a xlink:href="input__event_8h.html" target="_top" xlink:title="mir_toolkit/events\l/input/input_event.h">
<polygon fill="white" stroke="black" points="1466.5,-129 1466.5,-159 1568.5,-159 1568.5,-129 1466.5,-129"/>
<text text-anchor="start" x="1474.5" y="-147" font-family="Arial" font-size="10.00">mir_toolkit/events</text>
<text text-anchor="middle" x="1517.5" y="-136" font-family="Arial" font-size="10.00">/input/input_event.h</text>
</a>
</g>
</g>
<!-- Node2&#45;&gt;Node7 -->
<g id="edge8" class="edge"><title>Node2&#45;&gt;Node7</title>
<path fill="none" stroke="midnightblue" d="M893.598,-215.37C995.817,-214.194 1244.65,-206.77 1448.5,-165 1452.61,-164.157 1456.84,-163.119 1461.08,-161.964"/>
<polygon fill="midnightblue" stroke="midnightblue" points="1462.33,-165.245 1470.95,-159.091 1460.37,-158.524 1462.33,-165.245"/>
</g>
<!-- Node14 -->
<g id="node15" class="node"><title>Node14</title>
<g id="a_node15"><a xlink:href="resize__event_8h.html" target="_top" xlink:title="mir_toolkit/events\l/resize_event.h">
<polygon fill="white" stroke="black" points="297.5,-129 297.5,-159 391.5,-159 391.5,-129 297.5,-129"/>
<text text-anchor="start" x="305.5" y="-147" font-family="Arial" font-size="10.00">mir_toolkit/events</text>
<text text-anchor="middle" x="344.5" y="-136" font-family="Arial" font-size="10.00">/resize_event.h</text>
</a>
</g>
</g>
<!-- Node2&#45;&gt;Node14 -->
<g id="edge19" class="edge"><title>Node2&#45;&gt;Node14</title>
<path fill="none" stroke="midnightblue" d="M799.264,-213.961C715.713,-210.337 537.438,-198.845 391.5,-165 388.026,-164.194 384.469,-163.242 380.938,-162.197"/>
<polygon fill="midnightblue" stroke="midnightblue" points="381.735,-158.777 371.144,-159.052 379.595,-165.442 381.735,-158.777"/>
</g>
<!-- Node15 -->
<g id="node16" class="node"><title>Node15</title>
<g id="a_node16"><a xlink:href="surface__event_8h.html" target="_top" xlink:title="mir_toolkit/events\l/surface_event.h">
<polygon fill="white" stroke="black" points="1242.5,-129 1242.5,-159 1336.5,-159 1336.5,-129 1242.5,-129"/>
<text text-anchor="start" x="1250.5" y="-147" font-family="Arial" font-size="10.00">mir_toolkit/events</text>
<text text-anchor="middle" x="1289.5" y="-136" font-family="Arial" font-size="10.00">/surface_event.h</text>
</a>
</g>
</g>
<!-- Node2&#45;&gt;Node15 -->
<g id="edge21" class="edge"><title>Node2&#45;&gt;Node15</title>
<path fill="none" stroke="midnightblue" d="M893.758,-212.159C965.95,-206.627 1107.25,-193.246 1224.5,-165 1228.02,-164.152 1231.62,-163.162 1235.25,-162.083"/>
<polygon fill="midnightblue" stroke="midnightblue" points="1236.36,-165.403 1244.85,-159.06 1234.26,-158.726 1236.36,-165.403"/>
</g>
<!-- Node16 -->
<g id="node17" class="node"><title>Node16</title>
<g id="a_node17"><a xlink:href="window__event_8h.html" target="_top" xlink:title="mir_toolkit/events\l/window_event.h">
<polygon fill="white" stroke="black" points="409.5,-129 409.5,-159 503.5,-159 503.5,-129 409.5,-129"/>
<text text-anchor="start" x="417.5" y="-147" font-family="Arial" font-size="10.00">mir_toolkit/events</text>
<text text-anchor="middle" x="456.5" y="-136" font-family="Arial" font-size="10.00">/window_event.h</text>
</a>
</g>
</g>
<!-- Node2&#45;&gt;Node16 -->
<g id="edge24" class="edge"><title>Node2&#45;&gt;Node16</title>
<path fill="none" stroke="midnightblue" d="M799.366,-211.836C732.498,-205.624 607.149,-191.085 503.5,-165 500.246,-164.181 496.916,-163.248 493.6,-162.242"/>
<polygon fill="midnightblue" stroke="midnightblue" points="494.375,-158.814 483.783,-159.052 492.211,-165.471 494.375,-158.814"/>
</g>
<!-- Node17 -->
<g id="node18" class="node"><title>Node17</title>
<g id="a_node18"><a xlink:href="orientation__event_8h.html" target="_top" xlink:title="mir_toolkit/events\l/orientation_event.h">
<polygon fill="white" stroke="black" points="521.5,-129 521.5,-159 623.5,-159 623.5,-129 521.5,-129"/>
<text text-anchor="start" x="529.5" y="-147" font-family="Arial" font-size="10.00">mir_toolkit/events</text>
<text text-anchor="middle" x="572.5" y="-136" font-family="Arial" font-size="10.00">/orientation_event.h</text>
</a>
</g>
</g>
<!-- Node2&#45;&gt;Node17 -->
<g id="edge26" class="edge"><title>Node2&#45;&gt;Node17</title>
<path fill="none" stroke="midnightblue" d="M799.314,-207.079C753.746,-197.825 683.355,-182.001 623.5,-165 620.331,-164.1 617.081,-163.136 613.827,-162.136"/>
<polygon fill="midnightblue" stroke="midnightblue" points="614.719,-158.747 604.129,-159.054 612.599,-165.418 614.719,-158.747"/>
</g>
<!-- Node18 -->
<g id="node19" class="node"><title>Node18</title>
<g id="a_node19"><a xlink:href="prompt__session__event_8h.html" target="_top" xlink:title="mir_toolkit/events\l/prompt_session_event.h">
<polygon fill="white" stroke="black" points="641.5,-129 641.5,-159 767.5,-159 767.5,-129 641.5,-129"/>
<text text-anchor="start" x="649.5" y="-147" font-family="Arial" font-size="10.00">mir_toolkit/events</text>
<text text-anchor="middle" x="704.5" y="-136" font-family="Arial" font-size="10.00">/prompt_session_event.h</text>
</a>
</g>
</g>
<!-- Node2&#45;&gt;Node18 -->
<g id="edge28" class="edge"><title>Node2&#45;&gt;Node18</title>
<path fill="none" stroke="midnightblue" d="M812.579,-201.403C789.377,-190.596 758.958,-175.579 736.237,-163.758"/>
<polygon fill="midnightblue" stroke="midnightblue" points="737.803,-160.627 727.322,-159.073 734.546,-166.823 737.803,-160.627"/>
</g>
<!-- Node19 -->
<g id="node20" class="node"><title>Node19</title>
<g id="a_node20"><a xlink:href="keymap__event_8h.html" target="_top" xlink:title="mir_toolkit/events\l/keymap_event.h">
<polygon fill="white" stroke="black" points="1354.5,-129 1354.5,-159 1448.5,-159 1448.5,-129 1354.5,-129"/>
<text text-anchor="start" x="1362.5" y="-147" font-family="Arial" font-size="10.00">mir_toolkit/events</text>
<text text-anchor="middle" x="1401.5" y="-136" font-family="Arial" font-size="10.00">/keymap_event.h</text>
</a>
</g>
</g>
<!-- Node2&#45;&gt;Node19 -->
<g id="edge30" class="edge"><title>Node2&#45;&gt;Node19</title>
<path fill="none" stroke="midnightblue" d="M893.831,-214.343C982.037,-211.406 1176.6,-201.082 1336.5,-165 1340.24,-164.155 1344.08,-163.133 1347.94,-162.004"/>
<polygon fill="midnightblue" stroke="midnightblue" points="1349,-165.339 1357.5,-159.016 1346.91,-158.657 1349,-165.339"/>
</g>
<!-- Node20 -->
<g id="node21" class="node"><title>Node20</title>
<g id="a_node21"><a xlink:href="input__configuration__event_8h.html" target="_top" xlink:title="mir_toolkit/events\l/input_configuration\l_event.h">
<polygon fill="white" stroke="black" points="0,-123.5 0,-164.5 101,-164.5 101,-123.5 0,-123.5"/>
<text text-anchor="start" x="8" y="-152.5" font-family="Arial" font-size="10.00">mir_toolkit/events</text>
<text text-anchor="start" x="8" y="-141.5" font-family="Arial" font-size="10.00">/input_configuration</text>
<text text-anchor="middle" x="50.5" y="-130.5" font-family="Arial" font-size="10.00">_event.h</text>
</a>
</g>
</g>
<!-- Node2&#45;&gt;Node20 -->
<g id="edge33" class="edge"><title>Node2&#45;&gt;Node20</title>
<path fill="none" stroke="midnightblue" d="M799.192,-213.961C660.29,-209.004 255.075,-192.288 109.27,-166.412"/>
<polygon fill="midnightblue" stroke="midnightblue" points="109.701,-162.932 99.228,-164.533 108.414,-169.812 109.701,-162.932"/>
</g>
<!-- Node21 -->
<g id="node22" class="node"><title>Node21</title>
<g id="a_node22"><a xlink:href="surface__output__event_8h.html" target="_top" xlink:title="mir_toolkit/events\l/surface_output_event.h">
<polygon fill="white" stroke="black" points="119.5,-129 119.5,-159 241.5,-159 241.5,-129 119.5,-129"/>
<text text-anchor="start" x="127.5" y="-147" font-family="Arial" font-size="10.00">mir_toolkit/events</text>
<text text-anchor="middle" x="180.5" y="-136" font-family="Arial" font-size="10.00">/surface_output_event.h</text>
</a>
</g>
</g>
<!-- Node2&#45;&gt;Node21 -->
<g id="edge36" class="edge"><title>Node2&#45;&gt;Node21</title>
<path fill="none" stroke="midnightblue" d="M799.214,-214.418C697.213,-211.381 449.892,-200.526 246.5,-165 240.941,-164.029 235.194,-162.841 229.509,-161.532"/>
<polygon fill="midnightblue" stroke="midnightblue" points="229.939,-158.034 219.395,-159.067 228.282,-164.835 229.939,-158.034"/>
</g>
<!-- Node22 -->
<g id="node23" class="node"><title>Node22</title>
<g id="a_node23"><a xlink:href="window__output__event_8h.html" target="_top" xlink:title="mir_toolkit/events\l/window_output_event.h">
<polygon fill="white" stroke="black" points="786,-129 786,-159 907,-159 907,-129 786,-129"/>
<text text-anchor="start" x="794" y="-147" font-family="Arial" font-size="10.00">mir_toolkit/events</text>
<text text-anchor="middle" x="846.5" y="-136" font-family="Arial" font-size="10.00">/window_output_event.h</text>
</a>
</g>
</g>
<!-- Node2&#45;&gt;Node22 -->
<g id="edge39" class="edge"><title>Node2&#45;&gt;Node22</title>
<path fill="none" stroke="midnightblue" d="M840.951,-201.233C839.749,-192.06 839.449,-179.905 840.051,-169.244"/>
<polygon fill="midnightblue" stroke="midnightblue" points="843.541,-169.52 840.954,-159.246 836.569,-168.89 843.541,-169.52"/>
</g>
<!-- Node23 -->
<g id="node24" class="node"><title>Node23</title>
<g id="a_node24"><a xlink:href="input__device__state__event_8h.html" target="_top" xlink:title="mir_toolkit/events\l/input_device_state\l_event.h">
<polygon fill="white" stroke="black" points="925,-123.5 925,-164.5 1026,-164.5 1026,-123.5 925,-123.5"/>
<text text-anchor="start" x="933" y="-152.5" font-family="Arial" font-size="10.00">mir_toolkit/events</text>
<text text-anchor="start" x="933" y="-141.5" font-family="Arial" font-size="10.00">/input_device_state</text>
<text text-anchor="middle" x="975.5" y="-130.5" font-family="Arial" font-size="10.00">_event.h</text>
</a>
</g>
</g>
<!-- Node2&#45;&gt;Node23 -->
<g id="edge41" class="edge"><title>Node2&#45;&gt;Node23</title>
<path fill="none" stroke="midnightblue" d="M866.769,-201.403C882.321,-192.238 904.32,-180.047 924.503,-169.343"/>
<polygon fill="midnightblue" stroke="midnightblue" points="926.399,-172.3 933.619,-164.546 923.139,-166.106 926.399,-172.3"/>
</g>
<!-- Node5&#45;&gt;Node6 -->
<g id="edge6" class="edge"><title>Node5&#45;&gt;Node6</title>
<path fill="none" stroke="midnightblue" d="M1146.73,-134.406C1134.66,-130.228 1119.47,-125.565 1105.5,-123 960.461,-96.3661 520.438,-80.2349 343.927,-74.6834"/>
<polygon fill="midnightblue" stroke="midnightblue" points="343.801,-71.1778 333.697,-74.3642 343.583,-78.1744 343.801,-71.1778"/>
</g>
<!-- Node7&#45;&gt;Node2 -->
<g id="edge9" class="edge"><title>Node7&#45;&gt;Node2</title>
<path fill="none" stroke="midnightblue" d="M1488.62,-159.091C1481.48,-161.388 1473.81,-163.501 1466.5,-165 1262.96,-206.707 1014.57,-214.172 904.084,-215.365"/>
<polygon fill="midnightblue" stroke="midnightblue" points="903.795,-211.867 893.829,-215.462 903.861,-218.867 903.795,-211.867"/>
</g>
<!-- Node7&#45;&gt;Node4 -->
<g id="edge12" class="edge"><title>Node7&#45;&gt;Node4</title>
<path fill="none" stroke="midnightblue" d="M1568.68,-140.772C1610.13,-136.199 1667.1,-123.178 1701.5,-87 1716.04,-71.7038 1719.94,-47.0243 1720.75,-29.9589"/>
<polygon fill="midnightblue" stroke="midnightblue" points="1724.25,-29.623 1720.91,-19.5697 1717.25,-29.5138 1724.25,-29.623"/>
</g>
<!-- Node8 -->
<g id="node9" class="node"><title>Node8</title>
<g id="a_node9"><a xlink:href="mir__input__device__types_8h.html" target="_top" xlink:title="mir_toolkit/mir_input\l_device_types.h">
<polygon fill="white" stroke="black" points="1588.5,-56.5 1588.5,-86.5 1692.5,-86.5 1692.5,-56.5 1588.5,-56.5"/>
<text text-anchor="start" x="1596.5" y="-74.5" font-family="Arial" font-size="10.00">mir_toolkit/mir_input</text>
<text text-anchor="middle" x="1640.5" y="-63.5" font-family="Arial" font-size="10.00">_device_types.h</text>
</a>
</g>
</g>
<!-- Node7&#45;&gt;Node8 -->
<g id="edge10" class="edge"><title>Node7&#45;&gt;Node8</title>
<path fill="none" stroke="midnightblue" d="M1542.1,-128.903C1560.78,-118.192 1586.68,-103.346 1607.22,-91.5738"/>
<polygon fill="midnightblue" stroke="midnightblue" points="1609.01,-94.5823 1615.95,-86.5729 1605.53,-88.5091 1609.01,-94.5823"/>
</g>
<!-- Node9 -->
<g id="node10" class="node"><title>Node9</title>
<polygon fill="white" stroke="#bfbfbf" points="1308.5,-0.5 1308.5,-19.5 1364.5,-19.5 1364.5,-0.5 1308.5,-0.5"/>
<text text-anchor="middle" x="1336.5" y="-7.5" font-family="Arial" font-size="10.00">stdbool.h</text>
</g>
<!-- Node7&#45;&gt;Node9 -->
<g id="edge13" class="edge"><title>Node7&#45;&gt;Node9</title>
<path fill="none" stroke="midnightblue" d="M1476.28,-128.948C1470,-126.9 1463.59,-124.857 1457.5,-123 1400.15,-105.515 1363.8,-134.715 1327.5,-87 1314.84,-70.3614 1321.14,-45.4658 1327.88,-28.7485"/>
<polygon fill="midnightblue" stroke="midnightblue" points="1331.11,-30.1036 1331.97,-19.5435 1324.71,-27.264 1331.11,-30.1036"/>
</g>
<!-- Node10 -->
<g id="node11" class="node"><title>Node10</title>
<g id="a_node11"><a xlink:href="touch__event_8h.html" target="_top" xlink:title="mir_toolkit/events\l/input/touch_event.h">
<polygon fill="white" stroke="black" points="1465,-56.5 1465,-86.5 1570,-86.5 1570,-56.5 1465,-56.5"/>
<text text-anchor="start" x="1473" y="-74.5" font-family="Arial" font-size="10.00">mir_toolkit/events</text>
<text text-anchor="middle" x="1517.5" y="-63.5" font-family="Arial" font-size="10.00">/input/touch_event.h</text>
</a>
</g>
</g>
<!-- Node7&#45;&gt;Node10 -->
<g id="edge14" class="edge"><title>Node7&#45;&gt;Node10</title>
<path fill="none" stroke="midnightblue" d="M1517.5,-128.733C1517.5,-119.655 1517.5,-107.658 1517.5,-97.0773"/>
<polygon fill="midnightblue" stroke="midnightblue" points="1521,-96.7455 1517.5,-86.7455 1514,-96.7455 1521,-96.7455"/>
</g>
<!-- Node11 -->
<g id="node12" class="node"><title>Node11</title>
<g id="a_node12"><a xlink:href="keyboard__event_8h.html" target="_top" xlink:title="mir_toolkit/events\l/input/keyboard_event.h">
<polygon fill="white" stroke="black" points="1159,-56.5 1159,-86.5 1280,-86.5 1280,-56.5 1159,-56.5"/>
<text text-anchor="start" x="1167" y="-74.5" font-family="Arial" font-size="10.00">mir_toolkit/events</text>
<text text-anchor="middle" x="1219.5" y="-63.5" font-family="Arial" font-size="10.00">/input/keyboard_event.h</text>
</a>
</g>
</g>
<!-- Node7&#45;&gt;Node11 -->
<g id="edge15" class="edge"><title>Node7&#45;&gt;Node11</title>
<path fill="none" stroke="midnightblue" d="M1477.35,-128.924C1470.75,-126.812 1463.96,-124.757 1457.5,-123 1426.53,-114.582 1348.47,-98.3637 1290.13,-86.572"/>
<polygon fill="midnightblue" stroke="midnightblue" points="1290.71,-83.1188 1280.22,-84.5723 1289.33,-89.9806 1290.71,-83.1188"/>
</g>
<!-- Node13 -->
<g id="node14" class="node"><title>Node13</title>
<g id="a_node14"><a xlink:href="pointer__event_8h.html" target="_top" xlink:title="mir_toolkit/events\l/input/pointer_event.h">
<polygon fill="white" stroke="black" points="1336.5,-56.5 1336.5,-86.5 1446.5,-86.5 1446.5,-56.5 1336.5,-56.5"/>
<text text-anchor="start" x="1344.5" y="-74.5" font-family="Arial" font-size="10.00">mir_toolkit/events</text>
<text text-anchor="middle" x="1391.5" y="-63.5" font-family="Arial" font-size="10.00">/input/pointer_event.h</text>
</a>
</g>
</g>
<!-- Node7&#45;&gt;Node13 -->
<g id="edge17" class="edge"><title>Node7&#45;&gt;Node13</title>
<path fill="none" stroke="midnightblue" d="M1492.3,-128.903C1473.16,-118.192 1446.63,-103.346 1425.59,-91.5738"/>
<polygon fill="midnightblue" stroke="midnightblue" points="1427.09,-88.4014 1416.65,-86.5729 1423.67,-94.5102 1427.09,-88.4014"/>
</g>
<!-- Node8&#45;&gt;Node4 -->
<g id="edge11" class="edge"><title>Node8&#45;&gt;Node4</title>
<path fill="none" stroke="midnightblue" d="M1659.46,-56.3993C1671.92,-47.1293 1688.2,-35.0254 1700.81,-25.6469"/>
<polygon fill="midnightblue" stroke="midnightblue" points="1702.92,-28.4341 1708.86,-19.6578 1698.75,-22.8173 1702.92,-28.4341"/>
</g>
<!-- Node12 -->
<g id="node13" class="node"><title>Node12</title>
<polygon fill="white" stroke="#bfbfbf" points="1124.5,-0.5 1124.5,-19.5 1258.5,-19.5 1258.5,-0.5 1124.5,-0.5"/>
<text text-anchor="middle" x="1191.5" y="-7.5" font-family="Arial" font-size="10.00">xkbcommon/xkbcommon.h</text>
</g>
<!-- Node11&#45;&gt;Node12 -->
<g id="edge16" class="edge"><title>Node11&#45;&gt;Node12</title>
<path fill="none" stroke="midnightblue" d="M1212.86,-56.3993C1208.96,-48.1098 1204,-37.5542 1199.83,-28.7077"/>
<polygon fill="midnightblue" stroke="midnightblue" points="1203,-27.2157 1195.57,-19.6578 1196.67,-30.1963 1203,-27.2157"/>
</g>
<!-- Node13&#45;&gt;Node9 -->
<g id="edge18" class="edge"><title>Node13&#45;&gt;Node9</title>
<path fill="none" stroke="midnightblue" d="M1378.47,-56.3993C1370.31,-47.575 1359.78,-36.1827 1351.31,-27.0178"/>
<polygon fill="midnightblue" stroke="midnightblue" points="1353.86,-24.6253 1344.5,-19.6578 1348.72,-29.3769 1353.86,-24.6253"/>
</g>
<!-- Node14&#45;&gt;Node2 -->
<g id="edge20" class="edge"><title>Node14&#45;&gt;Node2</title>
<path fill="none" stroke="midnightblue" d="M388.821,-159.052C395.715,-161.323 402.762,-163.437 409.5,-165 543.583,-196.096 704.962,-208.322 789.183,-212.914"/>
<polygon fill="midnightblue" stroke="midnightblue" points="789.14,-216.417 799.311,-213.45 789.509,-209.427 789.14,-216.417"/>
</g>
<!-- Node15&#45;&gt;Node2 -->
<g id="edge22" class="edge"><title>Node15&#45;&gt;Node2</title>
<path fill="none" stroke="midnightblue" d="M1262.54,-159.06C1256.05,-161.302 1249.12,-163.404 1242.5,-165 1124.3,-193.475 981.657,-206.843 903.816,-212.292"/>
<polygon fill="midnightblue" stroke="midnightblue" points="903.47,-208.807 893.731,-212.979 903.946,-215.791 903.47,-208.807"/>
</g>
<!-- Node15&#45;&gt;Node6 -->
<g id="edge23" class="edge"><title>Node15&#45;&gt;Node6</title>
<path fill="none" stroke="midnightblue" d="M1254.99,-128.916C1247.98,-126.558 1240.59,-124.419 1233.5,-123 1063.59,-88.9668 539.122,-76.9642 343.806,-73.6077"/>
<polygon fill="midnightblue" stroke="midnightblue" points="343.699,-70.1055 333.641,-73.4358 343.581,-77.1045 343.699,-70.1055"/>
</g>
<!-- Node16&#45;&gt;Node2 -->
<g id="edge25" class="edge"><title>Node16&#45;&gt;Node2</title>
<path fill="none" stroke="midnightblue" d="M501.488,-159.052C508.179,-161.267 514.993,-163.362 521.5,-165 613.947,-188.265 723.658,-202.346 789.13,-209.526"/>
<polygon fill="midnightblue" stroke="midnightblue" points="788.93,-213.025 799.248,-210.619 789.682,-206.065 788.93,-213.025"/>
</g>
<!-- Node17&#45;&gt;Node2 -->
<g id="edge27" class="edge"><title>Node17&#45;&gt;Node2</title>
<path fill="none" stroke="midnightblue" d="M621.897,-159.054C628.5,-161.145 635.163,-163.2 641.5,-165 691.198,-179.116 748.16,-192.421 789.486,-201.827"/>
<polygon fill="midnightblue" stroke="midnightblue" points="788.849,-205.272 799.376,-204.073 790.399,-198.445 788.849,-205.272"/>
</g>
<!-- Node18&#45;&gt;Node2 -->
<g id="edge29" class="edge"><title>Node18&#45;&gt;Node2</title>
<path fill="none" stroke="midnightblue" d="M738.368,-159.073C761.56,-169.874 791.979,-184.889 814.712,-196.715"/>
<polygon fill="midnightblue" stroke="midnightblue" points="813.151,-199.849 823.632,-201.403 816.408,-193.653 813.151,-199.849"/>
</g>
<!-- Node19&#45;&gt;Node2 -->
<g id="edge31" class="edge"><title>Node19&#45;&gt;Node2</title>
<path fill="none" stroke="midnightblue" d="M1375.17,-159.016C1368.51,-161.319 1361.35,-163.455 1354.5,-165 1194.24,-201.164 999.154,-211.452 904.026,-214.363"/>
<polygon fill="midnightblue" stroke="midnightblue" points="903.651,-210.872 893.757,-214.66 903.854,-217.869 903.651,-210.872"/>
</g>
<!-- Node19&#45;&gt;Node12 -->
<g id="edge32" class="edge"><title>Node19&#45;&gt;Node12</title>
<path fill="none" stroke="midnightblue" d="M1364.72,-128.914C1358.36,-126.754 1351.78,-124.687 1345.5,-123 1259.96,-100.031 1206.19,-155.049 1149.5,-87 1133.77,-68.1166 1155.11,-42.4616 1172.68,-26.3183"/>
<polygon fill="midnightblue" stroke="midnightblue" points="1175.11,-28.8421 1180.34,-19.629 1170.51,-23.5688 1175.11,-28.8421"/>
</g>
<!-- Node20&#45;&gt;Node2 -->
<g id="edge34" class="edge"><title>Node20&#45;&gt;Node2</title>
<path fill="none" stroke="midnightblue" d="M101.003,-160.365C107.204,-162.18 113.468,-163.808 119.5,-165 247.954,-190.388 640.728,-207.436 789.066,-213.271"/>
<polygon fill="midnightblue" stroke="midnightblue" points="789.188,-216.779 799.317,-213.672 789.462,-209.784 789.188,-216.779"/>
</g>
<!-- Node20&#45;&gt;Node6 -->
<g id="edge35" class="edge"><title>Node20&#45;&gt;Node6</title>
<path fill="none" stroke="midnightblue" d="M101.222,-126.036C104.36,-125.004 107.472,-123.985 110.5,-123 152.126,-109.453 200.023,-94.299 232.277,-84.1581"/>
<polygon fill="midnightblue" stroke="midnightblue" points="233.68,-87.3861 242.171,-81.0502 231.582,-80.7078 233.68,-87.3861"/>
</g>
<!-- Node21&#45;&gt;Node2 -->
<g id="edge37" class="edge"><title>Node21&#45;&gt;Node2</title>
<path fill="none" stroke="midnightblue" d="M237.072,-159.067C246.23,-161.336 255.606,-163.446 264.5,-165 455.201,-198.309 684.521,-209.93 789.342,-213.754"/>
<polygon fill="midnightblue" stroke="midnightblue" points="789.276,-217.254 799.394,-214.11 789.524,-210.258 789.276,-217.254"/>
</g>
<!-- Node21&#45;&gt;Node6 -->
<g id="edge38" class="edge"><title>Node21&#45;&gt;Node6</title>
<path fill="none" stroke="midnightblue" d="M198.51,-128.733C213.456,-116.894 234.67,-100.09 250.011,-87.9378"/>
<polygon fill="midnightblue" stroke="midnightblue" points="252.608,-90.346 258.273,-81.3932 248.261,-84.8589 252.608,-90.346"/>
</g>
<!-- Node22&#45;&gt;Node2 -->
<g id="edge40" class="edge"><title>Node22&#45;&gt;Node2</title>
<path fill="none" stroke="midnightblue" d="M852.046,-159.246C853.249,-168.414 853.551,-180.568 852.95,-191.232"/>
<polygon fill="midnightblue" stroke="midnightblue" points="849.46,-190.959 852.049,-201.233 856.432,-191.588 849.46,-190.959"/>
</g>
<!-- Node23&#45;&gt;Node2 -->
<g id="edge42" class="edge"><title>Node23&#45;&gt;Node2</title>
<path fill="none" stroke="midnightblue" d="M945.617,-164.68C928.12,-174.711 905.886,-186.847 886.866,-196.743"/>
<polygon fill="midnightblue" stroke="midnightblue" points="885.108,-193.712 877.821,-201.403 888.314,-199.934 885.108,-193.712"/>
</g>
<!-- Node25 -->
<g id="node26" class="node"><title>Node25</title>
<g id="a_node26"><a xlink:href="dimensions_8h.html" target="_top" xlink:title="mir/geometry/dimensions.h">
<polygon fill="white" stroke="black" points="1716.5,-207 1716.5,-226 1850.5,-226 1850.5,-207 1716.5,-207"/>
<text text-anchor="middle" x="1783.5" y="-214" font-family="Arial" font-size="10.00">mir/geometry/dimensions.h</text>
</a>
</g>
</g>
<!-- Node24&#45;&gt;Node25 -->
<g id="edge44" class="edge"><title>Node24&#45;&gt;Node25</title>
<path fill="none" stroke="midnightblue" d="M1888.88,-268.475C1868.33,-258.534 1834.14,-241.995 1810.29,-230.461"/>
<polygon fill="midnightblue" stroke="midnightblue" points="1811.62,-227.213 1801.09,-226.009 1808.57,-233.515 1811.62,-227.213"/>
</g>
<!-- Node27 -->
<g id="node28" class="node"><title>Node27</title>
<polygon fill="white" stroke="#bfbfbf" points="1875.5,-134.5 1875.5,-153.5 1919.5,-153.5 1919.5,-134.5 1875.5,-134.5"/>
<text text-anchor="middle" x="1897.5" y="-141.5" font-family="Arial" font-size="10.00">iosfwd</text>
</g>
<!-- Node24&#45;&gt;Node27 -->
<g id="edge47" class="edge"><title>Node24&#45;&gt;Node27</title>
<path fill="none" stroke="midnightblue" d="M1905.91,-268.339C1904.47,-247.174 1900.74,-192.448 1898.76,-163.533"/>
<polygon fill="midnightblue" stroke="midnightblue" points="1902.25,-163.26 1898.08,-153.521 1895.27,-163.736 1902.25,-163.26"/>
</g>
<!-- Node26 -->
<g id="node27" class="node"><title>Node26</title>
<polygon fill="white" stroke="#bfbfbf" points="1786.5,-134.5 1786.5,-153.5 1832.5,-153.5 1832.5,-134.5 1786.5,-134.5"/>
<text text-anchor="middle" x="1809.5" y="-141.5" font-family="Arial" font-size="10.00">cstdint</text>
</g>
<!-- Node25&#45;&gt;Node26 -->
<g id="edge45" class="edge"><title>Node25&#45;&gt;Node26</title>
<path fill="none" stroke="midnightblue" d="M1786.69,-206.855C1790.66,-196.073 1797.57,-177.35 1802.74,-163.32"/>
<polygon fill="midnightblue" stroke="midnightblue" points="1806.11,-164.309 1806.29,-153.715 1799.54,-161.887 1806.11,-164.309"/>
</g>
<!-- Node25&#45;&gt;Node27 -->
<g id="edge46" class="edge"><title>Node25&#45;&gt;Node27</title>
<path fill="none" stroke="midnightblue" d="M1797.48,-206.855C1816.71,-194.963 1851.56,-173.412 1874.62,-159.15"/>
<polygon fill="midnightblue" stroke="midnightblue" points="1876.74,-161.952 1883.41,-153.715 1873.06,-155.998 1876.74,-161.952"/>
</g>
<!-- Node28&#45;&gt;Node25 -->
<g id="edge49" class="edge"><title>Node28&#45;&gt;Node25</title>
<path fill="none" stroke="midnightblue" d="M1783.5,-268.475C1783.5,-260.08 1783.5,-246.981 1783.5,-236.163"/>
<polygon fill="midnightblue" stroke="midnightblue" points="1787,-236.009 1783.5,-226.009 1780,-236.009 1787,-236.009"/>
</g>
<!-- Node28&#45;&gt;Node27 -->
<g id="edge50" class="edge"><title>Node28&#45;&gt;Node27</title>
<path fill="none" stroke="midnightblue" d="M1805.67,-268.351C1822.35,-260.881 1844.77,-248.657 1859.5,-232 1877.21,-211.975 1887.73,-182.408 1893.06,-163.424"/>
<polygon fill="midnightblue" stroke="midnightblue" points="1896.48,-164.182 1895.62,-153.622 1889.71,-162.415 1896.48,-164.182"/>
</g>
<!-- Node29&#45;&gt;Node24 -->
<g id="edge53" class="edge"><title>Node29&#45;&gt;Node24</title>
<path fill="none" stroke="midnightblue" d="M1911.64,-329.975C1910.79,-321.58 1909.47,-308.481 1908.38,-297.663"/>
<polygon fill="midnightblue" stroke="midnightblue" points="1911.84,-297.107 1907.36,-287.509 1904.88,-297.81 1911.84,-297.107"/>
</g>
<!-- Node29&#45;&gt;Node27 -->
<g id="edge54" class="edge"><title>Node29&#45;&gt;Node27</title>
<path fill="none" stroke="midnightblue" d="M1926.88,-329.978C1939.98,-321.292 1958.48,-306.486 1966.5,-288 1970.04,-279.846 1968.75,-276.6 1966.5,-268 1955.67,-226.567 1927.43,-184.335 1910.63,-161.736"/>
<polygon fill="midnightblue" stroke="midnightblue" points="1913.25,-159.403 1904.41,-153.567 1907.68,-163.643 1913.25,-159.403"/>
</g>
<!-- Node29&#45;&gt;Node28 -->
<g id="edge52" class="edge"><title>Node29&#45;&gt;Node28</title>
<path fill="none" stroke="midnightblue" d="M1894.02,-329.975C1872.37,-319.99 1836.29,-303.348 1811.27,-291.807"/>
<polygon fill="midnightblue" stroke="midnightblue" points="1812.49,-288.519 1801.95,-287.509 1809.56,-294.876 1812.49,-288.519"/>
</g>
<!-- Node30&#45;&gt;Node25 -->
<g id="edge56" class="edge"><title>Node30&#45;&gt;Node25</title>
<path fill="none" stroke="midnightblue" d="M1686.96,-329.586C1692.7,-315.512 1705.2,-287.718 1721.5,-268 1733,-254.09 1748.81,-241.285 1761.58,-232.049"/>
<polygon fill="midnightblue" stroke="midnightblue" points="1763.67,-234.86 1769.85,-226.256 1759.66,-229.127 1763.67,-234.86"/>
</g>
<!-- Node30&#45;&gt;Node27 -->
<g id="edge58" class="edge"><title>Node30&#45;&gt;Node27</title>
<path fill="none" stroke="midnightblue" d="M1682.13,-329.734C1678.9,-305.722 1673.49,-238.202 1707.5,-201 1749.11,-155.484 1782.64,-183.385 1841.5,-165 1849.4,-162.533 1857.84,-159.65 1865.71,-156.854"/>
<polygon fill="midnightblue" stroke="midnightblue" points="1867.08,-160.083 1875.29,-153.395 1864.7,-153.498 1867.08,-160.083"/>
</g>
<!-- Node30&#45;&gt;Node28 -->
<g id="edge57" class="edge"><title>Node30&#45;&gt;Node28</title>
<path fill="none" stroke="midnightblue" d="M1697.83,-329.975C1714.16,-320.255 1741.1,-304.227 1760.41,-292.737"/>
<polygon fill="midnightblue" stroke="midnightblue" points="1762.39,-295.63 1769.2,-287.509 1758.82,-289.615 1762.39,-295.63"/>
</g>
<!-- Node32 -->
<g id="node33" class="node"><title>Node32</title>
<g id="a_node33"><a xlink:href="int__wrapper_8h.html" target="_top" xlink:title="mir/int_wrapper.h">
<polygon fill="white" stroke="black" points="2014.5,-268.5 2014.5,-287.5 2104.5,-287.5 2104.5,-268.5 2014.5,-268.5"/>
<text text-anchor="middle" x="2059.5" y="-275.5" font-family="Arial" font-size="10.00">mir/int_wrapper.h</text>
</a>
</g>
</g>
<!-- Node31&#45;&gt;Node32 -->
<g id="edge60" class="edge"><title>Node31&#45;&gt;Node32</title>
<path fill="none" stroke="midnightblue" d="M2056.07,-329.975C2056.64,-321.58 2057.52,-308.481 2058.25,-297.663"/>
<polygon fill="midnightblue" stroke="midnightblue" points="2061.75,-297.721 2058.93,-287.509 2054.76,-297.252 2061.75,-297.721"/>
</g>
<!-- Node32&#45;&gt;Node27 -->
<g id="edge61" class="edge"><title>Node32&#45;&gt;Node27</title>
<path fill="none" stroke="midnightblue" d="M2054.29,-268.066C2045.03,-252.79 2024.43,-221.334 2000.5,-201 1978.84,-182.599 1950.17,-167.612 1928.58,-157.789"/>
<polygon fill="midnightblue" stroke="midnightblue" points="1929.77,-154.488 1919.21,-153.645 1926.94,-160.89 1929.77,-154.488"/>
</g>
<!-- Node32&#45;&gt;Node33 -->
<g id="edge62" class="edge"><title>Node32&#45;&gt;Node33</title>
<path fill="none" stroke="midnightblue" d="M2068.53,-268.475C2078.26,-259.285 2093.96,-244.456 2105.92,-233.156"/>
<polygon fill="midnightblue" stroke="midnightblue" points="2108.62,-235.42 2113.49,-226.009 2103.82,-230.331 2108.62,-235.42"/>
</g>
<!-- Node34&#45;&gt;Node1 -->
<g id="edge64" class="edge"><title>Node34&#45;&gt;Node1</title>
<path fill="none" stroke="midnightblue" d="M1456.16,-324.399C1427.94,-314.283 1390.29,-300.791 1363.4,-291.149"/>
<polygon fill="midnightblue" stroke="midnightblue" points="1364.25,-287.737 1353.65,-287.658 1361.89,-294.327 1364.25,-287.737"/>
</g>
<!-- Node34&#45;&gt;Node35 -->
<g id="edge65" class="edge"><title>Node34&#45;&gt;Node35</title>
<path fill="none" stroke="midnightblue" d="M1505.93,-324.399C1512.26,-315.842 1520.37,-304.871 1527.03,-295.857"/>
<polygon fill="midnightblue" stroke="midnightblue" points="1529.97,-297.779 1533.1,-287.658 1524.34,-293.617 1529.97,-297.779"/>
</g>
<!-- Node36&#45;&gt;Node1 -->
<g id="edge67" class="edge"><title>Node36&#45;&gt;Node1</title>
<path fill="none" stroke="midnightblue" d="M1359.26,-324.399C1353.71,-315.932 1346.61,-305.099 1340.73,-296.139"/>
<polygon fill="midnightblue" stroke="midnightblue" points="1343.58,-294.103 1335.17,-287.658 1337.73,-297.94 1343.58,-294.103"/>
</g>
</g>
</svg>
