<?xml version="1.0" encoding="UTF-8" standalone="no"?>
<!DOCTYPE svg PUBLIC "-//W3C//DTD SVG 1.1//EN"
 "http://www.w3.org/Graphics/SVG/1.1/DTD/svg11.dtd">
<!-- Generated by graphviz version 2.40.1 (20161225.0304)
 -->
<!-- Title: include/client/mir/events/event_builders.h Pages: 1 -->
<svg width="3034pt" height="374pt"
 viewBox="0.00 0.00 3033.50 374.00" xmlns="http://www.w3.org/2000/svg" xmlns:xlink="http://www.w3.org/1999/xlink">
<g id="graph0" class="graph" transform="scale(1 1) rotate(0) translate(4 370)">
<title>include/client/mir/events/event_builders.h</title>
<polygon fill="#ffffff" stroke="transparent" points="-4,4 -4,-370 3029.5,-370 3029.5,4 -4,4"/>
<!-- Node0 -->
<g id="node1" class="node">
<title>Node0</title>
<polygon fill="#bfbfbf" stroke="#000000" points="2392.5,-335.5 2392.5,-365.5 2529.5,-365.5 2529.5,-335.5 2392.5,-335.5"/>
<text text-anchor="start" x="2400.5" y="-353.5" font-family="Arial" font-size="10.00" fill="#000000">include/client/mir</text>
<text text-anchor="middle" x="2461" y="-342.5" font-family="Arial" font-size="10.00" fill="#000000">/events/event_builders.h</text>
</g>
<!-- Node1 -->
<g id="node2" class="node">
<title>Node1</title>
<g id="a_node2"><a xlink:href="toolkit_2event_8h.html" target="_top" xlink:title="mir_toolkit/event.h">
<polygon fill="#ffffff" stroke="#000000" points="1294,-274 1294,-293 1404,-293 1404,-274 1294,-274"/>
<text text-anchor="middle" x="1349" y="-281" font-family="Arial" font-size="10.00" fill="#000000">mir_toolkit/event.h</text>
</a>
</g>
</g>
<!-- Node0&#45;&gt;Node1 -->
<g id="edge1" class="edge">
<title>Node0&#45;&gt;Node1</title>
<path fill="none" stroke="#191970" d="M2392.2786,-346.3594C2191.8962,-334.286 1610.0535,-299.2289 1414.2079,-287.4289"/>
<polygon fill="#191970" stroke="#191970" points="1414.2629,-283.9259 1404.0705,-286.8181 1413.8418,-290.9133 1414.2629,-283.9259"/>
</g>
<!-- Node24 -->
<g id="node25" class="node">
<title>Node24</title>
<g id="a_node25"><a xlink:href="size_8h.html" target="_top" xlink:title="mir/geometry/size.h">
<polygon fill="#ffffff" stroke="#000000" points="1866.5,-207 1866.5,-226 1981.5,-226 1981.5,-207 1866.5,-207"/>
<text text-anchor="middle" x="1924" y="-214" font-family="Arial" font-size="10.00" fill="#000000">mir/geometry/size.h</text>
</a>
</g>
</g>
<!-- Node0&#45;&gt;Node24 -->
<g id="edge43" class="edge">
<title>Node0&#45;&gt;Node24</title>
<path fill="none" stroke="#191970" d="M2392.33,-348.7808C2255.5453,-344.6605 1959.4508,-331.9938 1928,-299 1912.2854,-282.5144 1914.5305,-254.7286 1918.499,-236.0102"/>
<polygon fill="#191970" stroke="#191970" points="1921.9244,-236.7371 1920.912,-226.1908 1915.1266,-235.0666 1921.9244,-236.7371"/>
</g>
<!-- Node28 -->
<g id="node29" class="node">
<title>Node28</title>
<g id="a_node29"><a xlink:href="point_8h.html" target="_top" xlink:title="mir/geometry/point.h">
<polygon fill="#ffffff" stroke="#000000" points="2046,-207 2046,-226 2166,-226 2166,-207 2046,-207"/>
<text text-anchor="middle" x="2106" y="-214" font-family="Arial" font-size="10.00" fill="#000000">mir/geometry/point.h</text>
</a>
</g>
</g>
<!-- Node0&#45;&gt;Node28 -->
<g id="edge48" class="edge">
<title>Node0&#45;&gt;Node28</title>
<path fill="none" stroke="#191970" d="M2392.258,-348.7221C2305.7318,-345.037 2163.818,-333.7224 2126,-299 2108.7478,-283.16 2105.2078,-255.194 2105.004,-236.261"/>
<polygon fill="#191970" stroke="#191970" points="2108.507,-236.1396 2105.2031,-226.0731 2101.5083,-236.0027 2108.507,-236.1396"/>
</g>
<!-- Node29 -->
<g id="node30" class="node">
<title>Node29</title>
<g id="a_node30"><a xlink:href="rectangle_8h.html" target="_top" xlink:title="mir/geometry/rectangle.h">
<polygon fill="#ffffff" stroke="#000000" points="1936.5,-274 1936.5,-293 2077.5,-293 2077.5,-274 1936.5,-274"/>
<text text-anchor="middle" x="2007" y="-281" font-family="Arial" font-size="10.00" fill="#000000">mir/geometry/rectangle.h</text>
</a>
</g>
</g>
<!-- Node0&#45;&gt;Node29 -->
<g id="edge51" class="edge">
<title>Node0&#45;&gt;Node29</title>
<path fill="none" stroke="#191970" d="M2392.1834,-341.7675C2317.9716,-332.1469 2196.4146,-315.7991 2092,-299 2083.9981,-297.7126 2075.5875,-296.2781 2067.2972,-294.8161"/>
<polygon fill="#191970" stroke="#191970" points="2067.7397,-291.3398 2057.2801,-293.027 2066.5089,-298.2308 2067.7397,-291.3398"/>
</g>
<!-- Node30 -->
<g id="node31" class="node">
<title>Node30</title>
<g id="a_node31"><a xlink:href="displacement_8h.html" target="_top" xlink:title="mir/geometry/displacement.h">
<polygon fill="#ffffff" stroke="#000000" points="2134.5,-274 2134.5,-293 2295.5,-293 2295.5,-274 2134.5,-274"/>
<text text-anchor="middle" x="2215" y="-281" font-family="Arial" font-size="10.00" fill="#000000">mir/geometry/displacement.h</text>
</a>
</g>
</g>
<!-- Node0&#45;&gt;Node30 -->
<g id="edge55" class="edge">
<title>Node0&#45;&gt;Node30</title>
<path fill="none" stroke="#191970" d="M2405.7928,-335.4639C2361.6904,-323.4522 2300.6777,-306.835 2259.6265,-295.6544"/>
<polygon fill="#191970" stroke="#191970" points="2260.4683,-292.2562 2249.9,-293.0053 2258.6288,-299.0102 2260.4683,-292.2562"/>
</g>
<!-- Node31 -->
<g id="node32" class="node">
<title>Node31</title>
<polygon fill="#ffffff" stroke="#bfbfbf" points="2314,-274 2314,-293 2454,-293 2454,-274 2314,-274"/>
<text text-anchor="middle" x="2384" y="-281" font-family="Arial" font-size="10.00" fill="#000000">mir/frontend/surface_id.h</text>
</g>
<!-- Node0&#45;&gt;Node31 -->
<g id="edge59" class="edge">
<title>Node0&#45;&gt;Node31</title>
<path fill="none" stroke="#191970" d="M2443.5275,-335.2967C2431.2976,-324.6551 2414.9841,-310.4602 2402.5279,-299.6217"/>
<polygon fill="#191970" stroke="#191970" points="2404.8225,-296.9788 2394.9811,-293.055 2400.2276,-302.2596 2404.8225,-296.9788"/>
</g>
<!-- Node32 -->
<g id="node33" class="node">
<title>Node32</title>
<polygon fill="#ffffff" stroke="#bfbfbf" points="2472,-268.5 2472,-298.5 2606,-298.5 2606,-268.5 2472,-268.5"/>
<text text-anchor="start" x="2480" y="-286.5" font-family="Arial" font-size="10.00" fill="#000000">mir/events/input_device</text>
<text text-anchor="middle" x="2539" y="-275.5" font-family="Arial" font-size="10.00" fill="#000000">_state.h</text>
</g>
<!-- Node0&#45;&gt;Node32 -->
<g id="edge60" class="edge">
<title>Node0&#45;&gt;Node32</title>
<path fill="none" stroke="#191970" d="M2478.6994,-335.2967C2488.9714,-326.4733 2502.0872,-315.2072 2513.4616,-305.4368"/>
<polygon fill="#191970" stroke="#191970" points="2516.0655,-307.8141 2521.3706,-298.6432 2511.5043,-302.5041 2516.0655,-307.8141"/>
</g>
<!-- Node33 -->
<g id="node34" class="node">
<title>Node33</title>
<polygon fill="#ffffff" stroke="#bfbfbf" points="2624,-268.5 2624,-298.5 2732,-298.5 2732,-268.5 2624,-268.5"/>
<text text-anchor="start" x="2632" y="-286.5" font-family="Arial" font-size="10.00" fill="#000000">mir/events/contact</text>
<text text-anchor="middle" x="2678" y="-275.5" font-family="Arial" font-size="10.00" fill="#000000">_state.h</text>
</g>
<!-- Node0&#45;&gt;Node33 -->
<g id="edge61" class="edge">
<title>Node0&#45;&gt;Node33</title>
<path fill="none" stroke="#191970" d="M2509.699,-335.4639C2542.1126,-325.456 2584.8813,-312.2509 2619.1929,-301.657"/>
<polygon fill="#191970" stroke="#191970" points="2620.5662,-304.8961 2629.0886,-298.6017 2618.5011,-298.2077 2620.5662,-304.8961"/>
</g>
<!-- Node34 -->
<g id="node35" class="node">
<title>Node34</title>
<polygon fill="#ffffff" stroke="#bfbfbf" points="2750,-274 2750,-293 2808,-293 2808,-274 2750,-274"/>
<text text-anchor="middle" x="2779" y="-281" font-family="Arial" font-size="10.00" fill="#000000">memory</text>
</g>
<!-- Node0&#45;&gt;Node34 -->
<g id="edge62" class="edge">
<title>Node0&#45;&gt;Node34</title>
<path fill="none" stroke="#191970" d="M2529.5234,-341.9078C2586.781,-333.7783 2670.1982,-319.712 2741,-299 2743.3079,-298.3248 2745.6678,-297.5583 2748.0258,-296.7362"/>
<polygon fill="#191970" stroke="#191970" points="2749.4495,-299.94 2757.5707,-293.1358 2746.9789,-293.3904 2749.4495,-299.94"/>
</g>
<!-- Node35 -->
<g id="node36" class="node">
<title>Node35</title>
<polygon fill="#ffffff" stroke="#bfbfbf" points="2826.5,-274 2826.5,-293 2891.5,-293 2891.5,-274 2826.5,-274"/>
<text text-anchor="middle" x="2859" y="-281" font-family="Arial" font-size="10.00" fill="#000000">functional</text>
</g>
<!-- Node0&#45;&gt;Node35 -->
<g id="edge63" class="edge">
<title>Node0&#45;&gt;Node35</title>
<path fill="none" stroke="#191970" d="M2529.7494,-344.869C2602.0689,-337.9468 2718.7916,-323.9307 2817,-299 2819.9922,-298.2404 2823.0669,-297.3434 2826.1265,-296.3699"/>
<polygon fill="#191970" stroke="#191970" points="2827.4062,-299.6312 2835.7285,-293.0745 2825.1338,-293.0103 2827.4062,-299.6312"/>
</g>
<!-- Node36 -->
<g id="node37" class="node">
<title>Node36</title>
<polygon fill="#ffffff" stroke="#bfbfbf" points="2910,-274 2910,-293 2960,-293 2960,-274 2910,-274"/>
<text text-anchor="middle" x="2935" y="-281" font-family="Arial" font-size="10.00" fill="#000000">chrono</text>
</g>
<!-- Node0&#45;&gt;Node36 -->
<g id="edge64" class="edge">
<title>Node0&#45;&gt;Node36</title>
<path fill="none" stroke="#191970" d="M2529.6632,-345.0834C2635.3588,-336.3027 2832.8462,-318.0181 2901,-299 2902.9683,-298.4508 2904.967,-297.802 2906.9588,-297.0865"/>
<polygon fill="#191970" stroke="#191970" points="2908.7583,-300.1319 2916.6877,-293.1052 2906.1071,-293.6534 2908.7583,-300.1319"/>
</g>
<!-- Node37 -->
<g id="node38" class="node">
<title>Node37</title>
<polygon fill="#ffffff" stroke="#bfbfbf" points="2978.5,-274 2978.5,-293 3025.5,-293 3025.5,-274 2978.5,-274"/>
<text text-anchor="middle" x="3002" y="-281" font-family="Arial" font-size="10.00" fill="#000000">vector</text>
</g>
<!-- Node0&#45;&gt;Node37 -->
<g id="edge65" class="edge">
<title>Node0&#45;&gt;Node37</title>
<path fill="none" stroke="#191970" d="M2529.6411,-346.4165C2648.588,-338.8616 2888.0521,-321.4093 2969,-299 2970.9673,-298.4554 2972.9627,-297.802 2974.9478,-297.0759"/>
<polygon fill="#191970" stroke="#191970" points="2976.7533,-300.1133 2984.6107,-293.0062 2974.0362,-293.6621 2976.7533,-300.1133"/>
</g>
<!-- Node2 -->
<g id="node3" class="node">
<title>Node2</title>
<g id="a_node3"><a xlink:href="toolkit_2events_2event_8h.html" target="_top" xlink:title="mir_toolkit/events\l/event.h">
<polygon fill="#ffffff" stroke="#000000" points="823,-201.5 823,-231.5 929,-231.5 929,-201.5 823,-201.5"/>
<text text-anchor="start" x="831" y="-219.5" font-family="Arial" font-size="10.00" fill="#000000">mir_toolkit/events</text>
<text text-anchor="middle" x="876" y="-208.5" font-family="Arial" font-size="10.00" fill="#000000">/event.h</text>
</a>
</g>
</g>
<!-- Node1&#45;&gt;Node2 -->
<g id="edge2" class="edge">
<title>Node1&#45;&gt;Node2</title>
<path fill="none" stroke="#191970" d="M1293.8152,-275.6831C1205.379,-263.1562 1032.4085,-238.6551 939.1641,-225.4471"/>
<polygon fill="#191970" stroke="#191970" points="939.4144,-221.9477 929.0224,-224.0106 938.4326,-228.8786 939.4144,-221.9477"/>
</g>
<!-- Node3 -->
<g id="node4" class="node">
<title>Node3</title>
<polygon fill="#ffffff" stroke="#bfbfbf" points="1269,-134.5 1269,-153.5 1325,-153.5 1325,-134.5 1269,-134.5"/>
<text text-anchor="middle" x="1297" y="-141.5" font-family="Arial" font-size="10.00" fill="#000000">stddef.h</text>
</g>
<!-- Node2&#45;&gt;Node3 -->
<g id="edge3" class="edge">
<title>Node2&#45;&gt;Node3</title>
<path fill="none" stroke="#191970" d="M929.1206,-211.8989C1019.6424,-203.6387 1199.8386,-185.2562 1260,-165 1264.8212,-163.3767 1269.7265,-161.1068 1274.3215,-158.6557"/>
<polygon fill="#191970" stroke="#191970" points="1276.2917,-161.5594 1283.1915,-153.5193 1272.7837,-155.5018 1276.2917,-161.5594"/>
</g>
<!-- Node4 -->
<g id="node5" class="node">
<title>Node4</title>
<polygon fill="#ffffff" stroke="#bfbfbf" points="1819.5,-.5 1819.5,-19.5 1872.5,-19.5 1872.5,-.5 1819.5,-.5"/>
<text text-anchor="middle" x="1846" y="-7.5" font-family="Arial" font-size="10.00" fill="#000000">stdint.h</text>
</g>
<!-- Node2&#45;&gt;Node4 -->
<g id="edge4" class="edge">
<title>Node2&#45;&gt;Node4</title>
<path fill="none" stroke="#191970" d="M929.1123,-215.7113C1091.5415,-212.922 1579.9282,-201.6313 1734,-165 1819.2206,-144.7384 1866.8522,-160.177 1915,-87 1922.573,-75.4902 1921.5012,-68.1475 1915,-56 1907.5485,-42.0767 1893.8151,-31.6399 1880.551,-24.258"/>
<polygon fill="#191970" stroke="#191970" points="1882.0215,-21.0787 1871.5262,-19.6302 1878.8274,-27.3075 1882.0215,-21.0787"/>
</g>
<!-- Node5 -->
<g id="node6" class="node">
<title>Node5</title>
<g id="a_node6"><a xlink:href="common_8h.html" target="_top" xlink:title="mir_toolkit/common.h">
<polygon fill="#ffffff" stroke="#000000" points="1343.5,-134.5 1343.5,-153.5 1468.5,-153.5 1468.5,-134.5 1343.5,-134.5"/>
<text text-anchor="middle" x="1406" y="-141.5" font-family="Arial" font-size="10.00" fill="#000000">mir_toolkit/common.h</text>
</a>
</g>
</g>
<!-- Node2&#45;&gt;Node5 -->
<g id="edge5" class="edge">
<title>Node2&#45;&gt;Node5</title>
<path fill="none" stroke="#191970" d="M929.002,-213.5064C1014.7827,-207.9996 1189.0572,-194.0623 1334,-165 1345.143,-162.7657 1357.0571,-159.6139 1367.9213,-156.4299"/>
<polygon fill="#191970" stroke="#191970" points="1368.9898,-159.7634 1377.5512,-153.5222 1366.9664,-153.0622 1368.9898,-159.7634"/>
</g>
<!-- Node6 -->
<g id="node7" class="node">
<title>Node6</title>
<g id="a_node7"><a xlink:href="deprecations_8h.html" target="_top" xlink:title="mir_toolkit/deprecations.h">
<polygon fill="#ffffff" stroke="#000000" points="803.5,-62 803.5,-81 948.5,-81 948.5,-62 803.5,-62"/>
<text text-anchor="middle" x="876" y="-69" font-family="Arial" font-size="10.00" fill="#000000">mir_toolkit/deprecations.h</text>
</a>
</g>
</g>
<!-- Node2&#45;&gt;Node6 -->
<g id="edge7" class="edge">
<title>Node2&#45;&gt;Node6</title>
<path fill="none" stroke="#191970" d="M903.5389,-201.4269C916.5618,-192.6707 930.8063,-180.3272 938,-165 945.931,-148.102 945.931,-139.898 938,-123 930.8025,-107.6648 916.5471,-95.3165 903.5187,-86.5595"/>
<polygon fill="#191970" stroke="#191970" points="905.1261,-83.4359 894.7969,-81.0782 901.4013,-89.3627 905.1261,-83.4359"/>
</g>
<!-- Node7 -->
<g id="node8" class="node">
<title>Node7</title>
<g id="a_node8"><a xlink:href="input__event_8h.html" target="_top" xlink:title="mir_toolkit/events\l/input/input_event.h">
<polygon fill="#ffffff" stroke="#000000" points="1611,-129 1611,-159 1725,-159 1725,-129 1611,-129"/>
<text text-anchor="start" x="1619" y="-147" font-family="Arial" font-size="10.00" fill="#000000">mir_toolkit/events</text>
<text text-anchor="middle" x="1668" y="-136" font-family="Arial" font-size="10.00" fill="#000000">/input/input_event.h</text>
</a>
</g>
</g>
<!-- Node2&#45;&gt;Node7 -->
<g id="edge8" class="edge">
<title>Node2&#45;&gt;Node7</title>
<path fill="none" stroke="#191970" d="M929.0662,-214.1898C1072.4929,-207.943 1465.1016,-189.5225 1593,-165 1597.6278,-164.1127 1602.3852,-163.005 1607.1566,-161.7651"/>
<polygon fill="#191970" stroke="#191970" points="1608.2268,-165.1006 1616.9328,-159.0627 1606.3617,-158.3536 1608.2268,-165.1006"/>
</g>
<!-- Node14 -->
<g id="node15" class="node">
<title>Node14</title>
<g id="a_node15"><a xlink:href="resize__event_8h.html" target="_top" xlink:title="mir_toolkit/events\l/resize_event.h">
<polygon fill="#ffffff" stroke="#000000" points="0,-129 0,-159 106,-159 106,-129 0,-129"/>
<text text-anchor="start" x="8" y="-147" font-family="Arial" font-size="10.00" fill="#000000">mir_toolkit/events</text>
<text text-anchor="middle" x="53" y="-136" font-family="Arial" font-size="10.00" fill="#000000">/resize_event.h</text>
</a>
</g>
</g>
<!-- Node2&#45;&gt;Node14 -->
<g id="edge19" class="edge">
<title>Node2&#45;&gt;Node14</title>
<path fill="none" stroke="#191970" d="M822.9996,-214.8397C672.1538,-209.6435 243.1615,-192.3868 106,-165 101.8626,-164.1739 97.6213,-163.1457 93.4207,-161.9915"/>
<polygon fill="#191970" stroke="#191970" points="94.3446,-158.6148 83.7611,-159.1053 92.3405,-165.3218 94.3446,-158.6148"/>
</g>
<!-- Node15 -->
<g id="node16" class="node">
<title>Node15</title>
<g id="a_node16"><a xlink:href="surface__event_8h.html" target="_top" xlink:title="mir_toolkit/events\l/surface_event.h">
<polygon fill="#ffffff" stroke="#000000" points="823,-129 823,-159 929,-159 929,-129 823,-129"/>
<text text-anchor="start" x="831" y="-147" font-family="Arial" font-size="10.00" fill="#000000">mir_toolkit/events</text>
<text text-anchor="middle" x="876" y="-136" font-family="Arial" font-size="10.00" fill="#000000">/surface_event.h</text>
</a>
</g>
</g>
<!-- Node2&#45;&gt;Node15 -->
<g id="edge21" class="edge">
<title>Node2&#45;&gt;Node15</title>
<path fill="none" stroke="#191970" d="M870.4073,-201.478C869.2494,-192.1459 868.9604,-179.9157 869.5402,-169.1368"/>
<polygon fill="#191970" stroke="#191970" points="873.042,-169.2654 870.4097,-159.0028 866.0676,-168.667 873.042,-169.2654"/>
</g>
<!-- Node16 -->
<g id="node17" class="node">
<title>Node16</title>
<g id="a_node17"><a xlink:href="window__event_8h.html" target="_top" xlink:title="mir_toolkit/events\l/window_event.h">
<polygon fill="#ffffff" stroke="#000000" points="256,-129 256,-159 362,-159 362,-129 256,-129"/>
<text text-anchor="start" x="264" y="-147" font-family="Arial" font-size="10.00" fill="#000000">mir_toolkit/events</text>
<text text-anchor="middle" x="309" y="-136" font-family="Arial" font-size="10.00" fill="#000000">/window_event.h</text>
</a>
</g>
</g>
<!-- Node2&#45;&gt;Node16 -->
<g id="edge24" class="edge">
<title>Node2&#45;&gt;Node16</title>
<path fill="none" stroke="#191970" d="M822.8924,-215.1941C728.7339,-211.9447 527.3429,-200.9518 362,-165 358.0525,-164.1417 354.0058,-163.1168 349.9878,-161.9882"/>
<polygon fill="#191970" stroke="#191970" points="350.7168,-158.5521 340.1316,-159.0049 348.6888,-165.2519 350.7168,-158.5521"/>
</g>
<!-- Node17 -->
<g id="node18" class="node">
<title>Node17</title>
<g id="a_node18"><a xlink:href="orientation__event_8h.html" target="_top" xlink:title="mir_toolkit/events\l/orientation_event.h">
<polygon fill="#ffffff" stroke="#000000" points="380.5,-129 380.5,-159 495.5,-159 495.5,-129 380.5,-129"/>
<text text-anchor="start" x="388.5" y="-147" font-family="Arial" font-size="10.00" fill="#000000">mir_toolkit/events</text>
<text text-anchor="middle" x="438" y="-136" font-family="Arial" font-size="10.00" fill="#000000">/orientation_event.h</text>
</a>
</g>
</g>
<!-- Node2&#45;&gt;Node17 -->
<g id="edge26" class="edge">
<title>Node2&#45;&gt;Node17</title>
<path fill="none" stroke="#191970" d="M822.738,-212.5438C748.3979,-206.0239 610.0936,-191.0769 495,-165 490.9102,-164.0734 486.7098,-163.0095 482.5276,-161.8629"/>
<polygon fill="#191970" stroke="#191970" points="483.4418,-158.4839 472.8629,-159.0632 481.4941,-165.2075 483.4418,-158.4839"/>
</g>
<!-- Node18 -->
<g id="node19" class="node">
<title>Node18</title>
<g id="a_node19"><a xlink:href="prompt__session__event_8h.html" target="_top" xlink:title="mir_toolkit/events\l/prompt_session_event.h">
<polygon fill="#ffffff" stroke="#000000" points="513.5,-129 513.5,-159 652.5,-159 652.5,-129 513.5,-129"/>
<text text-anchor="start" x="521.5" y="-147" font-family="Arial" font-size="10.00" fill="#000000">mir_toolkit/events</text>
<text text-anchor="middle" x="583" y="-136" font-family="Arial" font-size="10.00" fill="#000000">/prompt_session_event.h</text>
</a>
</g>
</g>
<!-- Node2&#45;&gt;Node18 -->
<g id="edge28" class="edge">
<title>Node2&#45;&gt;Node18</title>
<path fill="none" stroke="#191970" d="M822.6023,-205.6643C777.186,-195.4533 710.6041,-179.5854 653,-165 648.7051,-163.9125 644.2829,-162.778 639.8446,-161.624"/>
<polygon fill="#191970" stroke="#191970" points="640.7068,-158.2319 630.1458,-159.0775 638.9291,-165.0024 640.7068,-158.2319"/>
</g>
<!-- Node19 -->
<g id="node20" class="node">
<title>Node19</title>
<g id="a_node20"><a xlink:href="keymap__event_8h.html" target="_top" xlink:title="mir_toolkit/events\l/keymap_event.h">
<polygon fill="#ffffff" stroke="#000000" points="1487,-129 1487,-159 1593,-159 1593,-129 1487,-129"/>
<text text-anchor="start" x="1495" y="-147" font-family="Arial" font-size="10.00" fill="#000000">mir_toolkit/events</text>
<text text-anchor="middle" x="1540" y="-136" font-family="Arial" font-size="10.00" fill="#000000">/keymap_event.h</text>
</a>
</g>
</g>
<!-- Node2&#45;&gt;Node19 -->
<g id="edge30" class="edge">
<title>Node2&#45;&gt;Node19</title>
<path fill="none" stroke="#191970" d="M929.3212,-213.2813C1054.7621,-205.7953 1365.1843,-186.2291 1468,-165 1472.1283,-164.1476 1476.3624,-163.1103 1480.6142,-161.9584"/>
<polygon fill="#191970" stroke="#191970" points="1481.8896,-165.2331 1490.5255,-159.0954 1479.9469,-158.5081 1481.8896,-165.2331"/>
</g>
<!-- Node20 -->
<g id="node21" class="node">
<title>Node20</title>
<g id="a_node21"><a xlink:href="input__configuration__event_8h.html" target="_top" xlink:title="mir_toolkit/events\l/input_configuration\l_event.h">
<polygon fill="#ffffff" stroke="#000000" points="124.5,-123.5 124.5,-164.5 237.5,-164.5 237.5,-123.5 124.5,-123.5"/>
<text text-anchor="start" x="132.5" y="-152.5" font-family="Arial" font-size="10.00" fill="#000000">mir_toolkit/events</text>
<text text-anchor="start" x="132.5" y="-141.5" font-family="Arial" font-size="10.00" fill="#000000">/input_configuration</text>
<text text-anchor="middle" x="181" y="-130.5" font-family="Arial" font-size="10.00" fill="#000000">_event.h</text>
</a>
</g>
</g>
<!-- Node2&#45;&gt;Node20 -->
<g id="edge33" class="edge">
<title>Node2&#45;&gt;Node20</title>
<path fill="none" stroke="#191970" d="M822.7159,-213.9253C693.9445,-207.1777 368.1452,-188.0328 246.0175,-166.4586"/>
<polygon fill="#191970" stroke="#191970" points="246.3401,-162.9585 235.868,-164.5662 245.0571,-169.8399 246.3401,-162.9585"/>
</g>
<!-- Node21 -->
<g id="node22" class="node">
<title>Node21</title>
<g id="a_node22"><a xlink:href="surface__output__event_8h.html" target="_top" xlink:title="mir_toolkit/events\l/surface_output_event.h">
<polygon fill="#ffffff" stroke="#000000" points="671,-129 671,-159 805,-159 805,-129 671,-129"/>
<text text-anchor="start" x="679" y="-147" font-family="Arial" font-size="10.00" fill="#000000">mir_toolkit/events</text>
<text text-anchor="middle" x="738" y="-136" font-family="Arial" font-size="10.00" fill="#000000">/surface_output_event.h</text>
</a>
</g>
</g>
<!-- Node2&#45;&gt;Node21 -->
<g id="edge36" class="edge">
<title>Node2&#45;&gt;Node21</title>
<path fill="none" stroke="#191970" d="M841.8136,-201.478C819.7391,-190.5905 791.3388,-175.7585 769.7592,-163.8885"/>
<polygon fill="#191970" stroke="#191970" points="771.4079,-160.8006 760.9667,-159.0028 768.0079,-166.9194 771.4079,-160.8006"/>
</g>
<!-- Node22 -->
<g id="node23" class="node">
<title>Node22</title>
<g id="a_node23"><a xlink:href="window__output__event_8h.html" target="_top" xlink:title="mir_toolkit/events\l/window_output_event.h">
<polygon fill="#ffffff" stroke="#000000" points="985,-129 985,-159 1121,-159 1121,-129 985,-129"/>
<text text-anchor="start" x="993" y="-147" font-family="Arial" font-size="10.00" fill="#000000">mir_toolkit/events</text>
<text text-anchor="middle" x="1053" y="-136" font-family="Arial" font-size="10.00" fill="#000000">/window_output_event.h</text>
</a>
</g>
</g>
<!-- Node2&#45;&gt;Node22 -->
<g id="edge39" class="edge">
<title>Node2&#45;&gt;Node22</title>
<path fill="none" stroke="#191970" d="M907.0818,-201.478C933.0997,-190.2503 970.6168,-174.8276 1001.1409,-162.7845"/>
<polygon fill="#191970" stroke="#191970" points="1002.7508,-165.9128 1010.7821,-159.0028 1000.1946,-159.3962 1002.7508,-165.9128"/>
</g>
<!-- Node23 -->
<g id="node24" class="node">
<title>Node23</title>
<g id="a_node24"><a xlink:href="input__device__state__event_8h.html" target="_top" xlink:title="mir_toolkit/events\l/input_device_state\l_event.h">
<polygon fill="#ffffff" stroke="#000000" points="1139,-123.5 1139,-164.5 1251,-164.5 1251,-123.5 1139,-123.5"/>
<text text-anchor="start" x="1147" y="-152.5" font-family="Arial" font-size="10.00" fill="#000000">mir_toolkit/events</text>
<text text-anchor="start" x="1147" y="-141.5" font-family="Arial" font-size="10.00" fill="#000000">/input_device_state</text>
<text text-anchor="middle" x="1195" y="-130.5" font-family="Arial" font-size="10.00" fill="#000000">_event.h</text>
</a>
</g>
</g>
<!-- Node2&#45;&gt;Node23 -->
<g id="edge41" class="edge">
<title>Node2&#45;&gt;Node23</title>
<path fill="none" stroke="#191970" d="M929.3121,-206.2149C979.223,-196.9463 1055.4947,-182.1643 1121,-165 1123.5991,-164.319 1126.2472,-163.594 1128.9216,-162.8382"/>
<polygon fill="#191970" stroke="#191970" points="1130.0607,-166.1518 1138.6795,-159.99 1128.0993,-159.4322 1130.0607,-166.1518"/>
</g>
<!-- Node5&#45;&gt;Node6 -->
<g id="edge6" class="edge">
<title>Node5&#45;&gt;Node6</title>
<path fill="none" stroke="#191970" d="M1377.5512,-134.4778C1364.4238,-130.4018 1348.5541,-125.9182 1334,-123 1204.3139,-96.9968 1051.1459,-83.1021 958.8938,-76.5206"/>
<polygon fill="#191970" stroke="#191970" points="959.0007,-73.0196 948.7802,-75.811 958.5107,-80.0024 959.0007,-73.0196"/>
</g>
<!-- Node7&#45;&gt;Node2 -->
<g id="edge9" class="edge">
<title>Node7&#45;&gt;Node2</title>
<path fill="none" stroke="#191970" d="M1634.6243,-159.0627C1626.9562,-161.3859 1618.7941,-163.5056 1611,-165 1483.5481,-189.4369 1093.231,-207.8143 939.2795,-214.1239"/>
<polygon fill="#191970" stroke="#191970" points="938.8975,-210.6364 929.0478,-214.5396 939.1817,-217.6307 938.8975,-210.6364"/>
</g>
<!-- Node7&#45;&gt;Node4 -->
<g id="edge12" class="edge">
<title>Node7&#45;&gt;Node4</title>
<path fill="none" stroke="#191970" d="M1687.1487,-128.6157C1717.4279,-104.2985 1773.4214,-59.3717 1778,-56 1792.5469,-45.2875 1809.3585,-33.9064 1822.6263,-25.1448"/>
<polygon fill="#191970" stroke="#191970" points="1824.732,-27.9494 1831.174,-19.538 1820.8927,-22.0962 1824.732,-27.9494"/>
</g>
<!-- Node8 -->
<g id="node9" class="node">
<title>Node8</title>
<g id="a_node9"><a xlink:href="mir__input__device__types_8h.html" target="_top" xlink:title="mir_toolkit/mir_input\l_device_types.h">
<polygon fill="#ffffff" stroke="#000000" points="1786.5,-56.5 1786.5,-86.5 1905.5,-86.5 1905.5,-56.5 1786.5,-56.5"/>
<text text-anchor="start" x="1794.5" y="-74.5" font-family="Arial" font-size="10.00" fill="#000000">mir_toolkit/mir_input</text>
<text text-anchor="middle" x="1846" y="-63.5" font-family="Arial" font-size="10.00" fill="#000000">_device_types.h</text>
</a>
</g>
</g>
<!-- Node7&#45;&gt;Node8 -->
<g id="edge10" class="edge">
<title>Node7&#45;&gt;Node8</title>
<path fill="none" stroke="#191970" d="M1704.8817,-128.978C1732.4476,-117.7503 1770.3128,-102.3276 1799.8807,-90.2845"/>
<polygon fill="#191970" stroke="#191970" points="1801.2245,-93.5165 1809.1655,-86.5028 1798.584,-87.0336 1801.2245,-93.5165"/>
</g>
<!-- Node9 -->
<g id="node10" class="node">
<title>Node9</title>
<polygon fill="#ffffff" stroke="#bfbfbf" points="1444,-.5 1444,-19.5 1506,-19.5 1506,-.5 1444,-.5"/>
<text text-anchor="middle" x="1475" y="-7.5" font-family="Arial" font-size="10.00" fill="#000000">stdbool.h</text>
</g>
<!-- Node7&#45;&gt;Node9 -->
<g id="edge13" class="edge">
<title>Node7&#45;&gt;Node9</title>
<path fill="none" stroke="#191970" d="M1621.9399,-128.9911C1615.2676,-126.92 1608.47,-124.8657 1602,-123 1540.6822,-105.3188 1502.0604,-137.4656 1463,-87 1450.2446,-70.5202 1457.1829,-45.9958 1464.7339,-29.0735"/>
<polygon fill="#191970" stroke="#191970" points="1468.0894,-30.1796 1469.3441,-19.6593 1461.8027,-27.1009 1468.0894,-30.1796"/>
</g>
<!-- Node10 -->
<g id="node11" class="node">
<title>Node10</title>
<g id="a_node11"><a xlink:href="touch__event_8h.html" target="_top" xlink:title="mir_toolkit/events\l/input/touch_event.h">
<polygon fill="#ffffff" stroke="#000000" points="1472,-56.5 1472,-86.5 1588,-86.5 1588,-56.5 1472,-56.5"/>
<text text-anchor="start" x="1480" y="-74.5" font-family="Arial" font-size="10.00" fill="#000000">mir_toolkit/events</text>
<text text-anchor="middle" x="1530" y="-63.5" font-family="Arial" font-size="10.00" fill="#000000">/input/touch_event.h</text>
</a>
</g>
</g>
<!-- Node7&#45;&gt;Node10 -->
<g id="edge14" class="edge">
<title>Node7&#45;&gt;Node10</title>
<path fill="none" stroke="#191970" d="M1639.4063,-128.978C1618.5901,-118.0419 1590.1984,-103.126 1567.5544,-91.2297"/>
<polygon fill="#191970" stroke="#191970" points="1569.0375,-88.0553 1558.5571,-86.5028 1565.7819,-94.2521 1569.0375,-88.0553"/>
</g>
<!-- Node11 -->
<g id="node12" class="node">
<title>Node11</title>
<g id="a_node12"><a xlink:href="keyboard__event_8h.html" target="_top" xlink:title="mir_toolkit/events\l/input/keyboard_event.h">
<polygon fill="#ffffff" stroke="#000000" points="1280.5,-56.5 1280.5,-86.5 1415.5,-86.5 1415.5,-56.5 1280.5,-56.5"/>
<text text-anchor="start" x="1288.5" y="-74.5" font-family="Arial" font-size="10.00" fill="#000000">mir_toolkit/events</text>
<text text-anchor="middle" x="1348" y="-63.5" font-family="Arial" font-size="10.00" fill="#000000">/input/keyboard_event.h</text>
</a>
</g>
</g>
<!-- Node7&#45;&gt;Node11 -->
<g id="edge15" class="edge">
<title>Node7&#45;&gt;Node11</title>
<path fill="none" stroke="#191970" d="M1623.0999,-128.9997C1616.0739,-126.8596 1608.8667,-124.783 1602,-123 1569.358,-114.5242 1487.8508,-98.316 1425.8984,-86.3373"/>
<polygon fill="#191970" stroke="#191970" points="1426.2274,-82.8363 1415.7453,-84.3781 1424.901,-89.7095 1426.2274,-82.8363"/>
</g>
<!-- Node13 -->
<g id="node14" class="node">
<title>Node13</title>
<g id="a_node14"><a xlink:href="pointer__event_8h.html" target="_top" xlink:title="mir_toolkit/events\l/input/pointer_event.h">
<polygon fill="#ffffff" stroke="#000000" points="1606,-56.5 1606,-86.5 1730,-86.5 1730,-56.5 1606,-56.5"/>
<text text-anchor="start" x="1614" y="-74.5" font-family="Arial" font-size="10.00" fill="#000000">mir_toolkit/events</text>
<text text-anchor="middle" x="1668" y="-63.5" font-family="Arial" font-size="10.00" fill="#000000">/input/pointer_event.h</text>
</a>
</g>
</g>
<!-- Node7&#45;&gt;Node13 -->
<g id="edge17" class="edge">
<title>Node7&#45;&gt;Node13</title>
<path fill="none" stroke="#191970" d="M1668,-128.978C1668,-119.6459 1668,-107.4157 1668,-96.6368"/>
<polygon fill="#191970" stroke="#191970" points="1671.5001,-96.5028 1668,-86.5028 1664.5001,-96.5028 1671.5001,-96.5028"/>
</g>
<!-- Node8&#45;&gt;Node4 -->
<g id="edge11" class="edge">
<title>Node8&#45;&gt;Node4</title>
<path fill="none" stroke="#191970" d="M1846,-56.2977C1846,-48.3834 1846,-38.6043 1846,-30.0759"/>
<polygon fill="#191970" stroke="#191970" points="1849.5001,-29.8469 1846,-19.8469 1842.5001,-29.847 1849.5001,-29.8469"/>
</g>
<!-- Node12 -->
<g id="node13" class="node">
<title>Node12</title>
<polygon fill="#ffffff" stroke="#bfbfbf" points="1242,-.5 1242,-19.5 1392,-19.5 1392,-.5 1242,-.5"/>
<text text-anchor="middle" x="1317" y="-7.5" font-family="Arial" font-size="10.00" fill="#000000">xkbcommon/xkbcommon.h</text>
</g>
<!-- Node11&#45;&gt;Node12 -->
<g id="edge16" class="edge">
<title>Node11&#45;&gt;Node12</title>
<path fill="none" stroke="#191970" d="M1340.3371,-56.2977C1336.1684,-48.0277 1330.9735,-37.7215 1326.5439,-28.9339"/>
<polygon fill="#191970" stroke="#191970" points="1329.5901,-27.2012 1321.9635,-19.8469 1323.3393,-30.3521 1329.5901,-27.2012"/>
</g>
<!-- Node13&#45;&gt;Node9 -->
<g id="edge18" class="edge">
<title>Node13&#45;&gt;Node9</title>
<path fill="none" stroke="#191970" d="M1620.7869,-56.4554C1588.1606,-46.059 1545.2596,-32.3884 1514.4559,-22.5727"/>
<polygon fill="#191970" stroke="#191970" points="1515.4988,-19.2317 1504.9081,-19.5303 1513.3735,-25.9013 1515.4988,-19.2317"/>
</g>
<!-- Node14&#45;&gt;Node2 -->
<g id="edge20" class="edge">
<title>Node14&#45;&gt;Node2</title>
<path fill="none" stroke="#191970" d="M101.4527,-159.1053C108.9608,-161.4242 116.6446,-163.5314 124,-165 255.6212,-191.2805 655.9741,-208.2329 812.4592,-214.1511"/>
<polygon fill="#191970" stroke="#191970" points="812.729,-217.6637 822.8534,-214.5416 812.9918,-210.6686 812.729,-217.6637"/>
</g>
<!-- Node15&#45;&gt;Node2 -->
<g id="edge22" class="edge">
<title>Node15&#45;&gt;Node2</title>
<path fill="none" stroke="#191970" d="M881.5903,-159.0028C882.7494,-168.3309 883.0396,-180.5601 882.461,-191.3409"/>
<polygon fill="#191970" stroke="#191970" points="878.959,-191.2157 881.5927,-201.478 885.9334,-191.8132 878.959,-191.2157"/>
</g>
<!-- Node15&#45;&gt;Node6 -->
<g id="edge23" class="edge">
<title>Node15&#45;&gt;Node6</title>
<path fill="none" stroke="#191970" d="M876,-128.978C876,-118.1657 876,-103.4631 876,-91.6348"/>
<polygon fill="#191970" stroke="#191970" points="879.5001,-91.3956 876,-81.3957 872.5001,-91.3957 879.5001,-91.3956"/>
</g>
<!-- Node16&#45;&gt;Node2 -->
<g id="edge25" class="edge">
<title>Node16&#45;&gt;Node2</title>
<path fill="none" stroke="#191970" d="M357.837,-159.0049C365.2319,-161.3041 372.7817,-163.4305 380,-165 533.2984,-198.3329 717.5844,-210.2107 812.6115,-214.354"/>
<polygon fill="#191970" stroke="#191970" points="812.4991,-217.8523 822.6377,-214.7768 812.7941,-210.8585 812.4991,-217.8523"/>
</g>
<!-- Node17&#45;&gt;Node2 -->
<g id="edge27" class="edge">
<title>Node17&#45;&gt;Node2</title>
<path fill="none" stroke="#191970" d="M490.6072,-159.0632C498.1089,-161.2715 505.7292,-163.3526 513,-165 616.7894,-188.5157 739.454,-202.9805 812.3995,-210.3762"/>
<polygon fill="#191970" stroke="#191970" points="812.4942,-213.9031 822.7931,-211.4164 813.1913,-206.9379 812.4942,-213.9031"/>
</g>
<!-- Node18&#45;&gt;Node2 -->
<g id="edge29" class="edge">
<title>Node18&#45;&gt;Node2</title>
<path fill="none" stroke="#191970" d="M647.9769,-159.0775C655.761,-161.0971 663.571,-163.119 671,-165 718.5696,-177.0447 772.2615,-189.9639 812.8287,-199.8498"/>
<polygon fill="#191970" stroke="#191970" points="812.04,-203.26 822.5848,-202.2311 813.6999,-196.4596 812.04,-203.26"/>
</g>
<!-- Node19&#45;&gt;Node2 -->
<g id="edge31" class="edge">
<title>Node19&#45;&gt;Node2</title>
<path fill="none" stroke="#191970" d="M1508.2308,-159.0954C1501.0129,-161.385 1493.3391,-163.4846 1486,-165 1383.4209,-186.1803 1074.1898,-205.7052 939.6021,-213.2294"/>
<polygon fill="#191970" stroke="#191970" points="939.2363,-209.7442 929.4456,-213.7928 939.6241,-216.7335 939.2363,-209.7442"/>
</g>
<!-- Node19&#45;&gt;Node12 -->
<g id="edge32" class="edge">
<title>Node19&#45;&gt;Node12</title>
<path fill="none" stroke="#191970" d="M1497.5543,-128.8987C1490.7306,-126.7473 1483.7069,-124.6938 1477,-123 1431.9432,-111.6207 1300.8984,-122.5765 1271,-87 1254.8702,-67.807 1277.2228,-42.2999 1296.0338,-26.012"/>
<polygon fill="#191970" stroke="#191970" points="1298.2697,-28.7047 1303.7563,-19.6411 1293.8151,-23.305 1298.2697,-28.7047"/>
</g>
<!-- Node20&#45;&gt;Node2 -->
<g id="edge34" class="edge">
<title>Node20&#45;&gt;Node2</title>
<path fill="none" stroke="#191970" d="M237.5403,-160.5473C243.745,-162.2647 249.9836,-163.8125 256,-165 361.8113,-185.8848 676.8718,-205.1049 812.6742,-212.8694"/>
<polygon fill="#191970" stroke="#191970" points="812.7333,-216.3783 822.9162,-213.4527 813.1314,-209.3896 812.7333,-216.3783"/>
</g>
<!-- Node20&#45;&gt;Node6 -->
<g id="edge35" class="edge">
<title>Node20&#45;&gt;Node6</title>
<path fill="none" stroke="#191970" d="M237.6686,-125.0718C240.8079,-124.3044 243.9328,-123.6054 247,-123 349.2836,-102.8114 647.0968,-84.1785 793.2057,-75.945"/>
<polygon fill="#191970" stroke="#191970" points="793.6702,-79.4246 803.4586,-75.3703 793.2784,-72.4356 793.6702,-79.4246"/>
</g>
<!-- Node21&#45;&gt;Node2 -->
<g id="edge37" class="edge">
<title>Node21&#45;&gt;Node2</title>
<path fill="none" stroke="#191970" d="M772.1474,-159.0028C794.2145,-169.8856 822.615,-184.717 844.2026,-196.5905"/>
<polygon fill="#191970" stroke="#191970" points="842.5578,-199.6806 852.999,-201.478 845.9576,-193.5616 842.5578,-199.6806"/>
</g>
<!-- Node21&#45;&gt;Node6 -->
<g id="edge38" class="edge">
<title>Node21&#45;&gt;Node6</title>
<path fill="none" stroke="#191970" d="M766.5937,-128.978C790.6017,-116.365 824.6865,-98.4582 848.4084,-85.9956"/>
<polygon fill="#191970" stroke="#191970" points="850.345,-88.9318 857.5699,-81.1825 847.0894,-82.735 850.345,-88.9318"/>
</g>
<!-- Node22&#45;&gt;Node2 -->
<g id="edge40" class="edge">
<title>Node22&#45;&gt;Node2</title>
<path fill="none" stroke="#191970" d="M1021.9628,-159.0028C995.958,-170.2257 958.4435,-185.6478 927.9114,-197.6948"/>
<polygon fill="#191970" stroke="#191970" points="926.2985,-194.5678 918.2672,-201.478 928.8548,-201.0844 926.2985,-194.5678"/>
</g>
<!-- Node23&#45;&gt;Node2 -->
<g id="edge42" class="edge">
<title>Node23&#45;&gt;Node2</title>
<path fill="none" stroke="#191970" d="M1140.7276,-164.5428C1140.1496,-164.6973 1139.5736,-164.8497 1139,-165 1071.7363,-182.6251 993.1203,-197.7382 939.3906,-206.9493"/>
<polygon fill="#191970" stroke="#191970" points="938.5964,-203.5339 929.3219,-208.6558 939.7662,-210.4355 938.5964,-203.5339"/>
</g>
<!-- Node25 -->
<g id="node26" class="node">
<title>Node25</title>
<g id="a_node26"><a xlink:href="dimensions_8h.html" target="_top" xlink:title="mir/geometry/dimensions.h">
<polygon fill="#ffffff" stroke="#000000" points="2076,-134.5 2076,-153.5 2228,-153.5 2228,-134.5 2076,-134.5"/>
<text text-anchor="middle" x="2152" y="-141.5" font-family="Arial" font-size="10.00" fill="#000000">mir/geometry/dimensions.h</text>
</a>
</g>
</g>
<!-- Node24&#45;&gt;Node25 -->
<g id="edge44" class="edge">
<title>Node24&#45;&gt;Node25</title>
<path fill="none" stroke="#191970" d="M1954.2766,-206.8726C1994.9312,-193.9451 2067.2459,-170.9503 2112.2455,-156.6412"/>
<polygon fill="#191970" stroke="#191970" points="2113.4921,-159.9176 2121.9613,-153.5518 2111.3708,-153.2467 2113.4921,-159.9176"/>
</g>
<!-- Node27 -->
<g id="node28" class="node">
<title>Node27</title>
<polygon fill="#ffffff" stroke="#bfbfbf" points="2023.5,-62 2023.5,-81 2072.5,-81 2072.5,-62 2023.5,-62"/>
<text text-anchor="middle" x="2048" y="-69" font-family="Arial" font-size="10.00" fill="#000000">iosfwd</text>
</g>
<!-- Node24&#45;&gt;Node27 -->
<g id="edge47" class="edge">
<title>Node24&#45;&gt;Node27</title>
<path fill="none" stroke="#191970" d="M1930.7524,-206.8794C1943.0559,-189.551 1970.2382,-152.1825 1996,-123 2006.6162,-110.9742 2019.4083,-98.2844 2029.6482,-88.5104"/>
<polygon fill="#191970" stroke="#191970" points="2032.3501,-90.7731 2037.2228,-81.3653 2027.5468,-85.6811 2032.3501,-90.7731"/>
</g>
<!-- Node26 -->
<g id="node27" class="node">
<title>Node26</title>
<polygon fill="#ffffff" stroke="#bfbfbf" points="2127,-62 2127,-81 2177,-81 2177,-62 2127,-62"/>
<text text-anchor="middle" x="2152" y="-69" font-family="Arial" font-size="10.00" fill="#000000">cstdint</text>
</g>
<!-- Node25&#45;&gt;Node26 -->
<g id="edge45" class="edge">
<title>Node25&#45;&gt;Node26</title>
<path fill="none" stroke="#191970" d="M2152,-134.2223C2152,-123.243 2152,-105.1397 2152,-91.197"/>
<polygon fill="#191970" stroke="#191970" points="2155.5001,-91.1227 2152,-81.1228 2148.5001,-91.1228 2155.5001,-91.1227"/>
</g>
<!-- Node25&#45;&gt;Node27 -->
<g id="edge46" class="edge">
<title>Node25&#45;&gt;Node27</title>
<path fill="none" stroke="#191970" d="M2137.9741,-134.2223C2120.5871,-122.1016 2090.7457,-101.2987 2070.2289,-86.9961"/>
<polygon fill="#191970" stroke="#191970" points="2072.0087,-83.9703 2061.8037,-81.1228 2068.0056,-89.7127 2072.0087,-83.9703"/>
</g>
<!-- Node28&#45;&gt;Node25 -->
<g id="edge49" class="edge">
<title>Node28&#45;&gt;Node25</title>
<path fill="none" stroke="#191970" d="M2112.2038,-206.7223C2119.3769,-195.4169 2131.3425,-176.558 2140.2837,-162.4659"/>
<polygon fill="#191970" stroke="#191970" points="2143.4924,-163.9417 2145.8945,-153.6228 2137.5817,-160.1915 2143.4924,-163.9417"/>
</g>
<!-- Node28&#45;&gt;Node27 -->
<g id="edge50" class="edge">
<title>Node28&#45;&gt;Node27</title>
<path fill="none" stroke="#191970" d="M2096.4372,-206.7366C2087.4414,-196.9814 2074.2954,-181.1489 2067,-165 2056.1688,-141.0241 2051.4639,-110.8082 2049.4527,-91.324"/>
<polygon fill="#191970" stroke="#191970" points="2052.9263,-90.871 2048.5538,-81.2205 2045.9538,-91.4913 2052.9263,-90.871"/>
</g>
<!-- Node29&#45;&gt;Node24 -->
<g id="edge53" class="edge">
<title>Node29&#45;&gt;Node24</title>
<path fill="none" stroke="#191970" d="M1995.1081,-273.9005C1981.7952,-263.1539 1960.0001,-245.5603 1944.0432,-232.6794"/>
<polygon fill="#191970" stroke="#191970" points="1945.8494,-229.6395 1935.8698,-226.0817 1941.4526,-235.0863 1945.8494,-229.6395"/>
</g>
<!-- Node29&#45;&gt;Node27 -->
<g id="edge54" class="edge">
<title>Node29&#45;&gt;Node27</title>
<path fill="none" stroke="#191970" d="M2008.8682,-273.8399C2015.1515,-241.3509 2035.6045,-135.5938 2044.1711,-91.2984"/>
<polygon fill="#191970" stroke="#191970" points="2047.6583,-91.6995 2046.1208,-81.2168 2040.7856,-90.3703 2047.6583,-91.6995"/>
</g>
<!-- Node29&#45;&gt;Node28 -->
<g id="edge52" class="edge">
<title>Node29&#45;&gt;Node28</title>
<path fill="none" stroke="#191970" d="M2021.1843,-273.9005C2037.4311,-262.9052 2064.2691,-244.7422 2083.4034,-231.7927"/>
<polygon fill="#191970" stroke="#191970" points="2085.522,-234.5851 2091.842,-226.0817 2081.5986,-228.7879 2085.522,-234.5851"/>
</g>
<!-- Node30&#45;&gt;Node25 -->
<g id="edge56" class="edge">
<title>Node30&#45;&gt;Node25</title>
<path fill="none" stroke="#191970" d="M2210.6698,-273.9116C2200.3745,-251.115 2174.2777,-193.3292 2160.6246,-163.0973"/>
<polygon fill="#191970" stroke="#191970" points="2163.6663,-161.3286 2156.3605,-153.6555 2157.2867,-164.2098 2163.6663,-161.3286"/>
</g>
<!-- Node30&#45;&gt;Node27 -->
<g id="edge58" class="edge">
<title>Node30&#45;&gt;Node27</title>
<path fill="none" stroke="#191970" d="M2220.5608,-273.98C2235.4398,-247.1277 2272.6852,-169.7101 2237,-123 2232.2336,-116.7611 2135.9758,-92.72 2082.7177,-79.8101"/>
<polygon fill="#191970" stroke="#191970" points="2083.2215,-76.3312 2072.6792,-77.3851 2081.5778,-83.1355 2083.2215,-76.3312"/>
</g>
<!-- Node30&#45;&gt;Node28 -->
<g id="edge57" class="edge">
<title>Node30&#45;&gt;Node28</title>
<path fill="none" stroke="#191970" d="M2199.383,-273.9005C2181.3331,-262.8057 2151.4104,-244.4128 2130.3092,-231.4424"/>
<polygon fill="#191970" stroke="#191970" points="2131.9402,-228.3366 2121.5881,-226.0817 2128.2745,-234.3001 2131.9402,-228.3366"/>
</g>
</g>
</svg>
