<?xml version="1.0" encoding="UTF-8" standalone="no"?>
<!DOCTYPE svg PUBLIC "-//W3C//DTD SVG 1.1//EN"
 "http://www.w3.org/Graphics/SVG/1.1/DTD/svg11.dtd">
<!-- Generated by graphviz version 2.38.0 (20140413.2041)
 -->
<!-- Title: include/client/mir_toolkit/event.h Pages: 1 -->
<svg width="1258pt" height="318pt"
 viewBox="0.00 0.00 1257.50 318.00" xmlns="http://www.w3.org/2000/svg" xmlns:xlink="http://www.w3.org/1999/xlink">
<g id="graph0" class="graph" transform="scale(1 1) rotate(0) translate(4 314)">
<title>include/client/mir_toolkit/event.h</title>
<polygon fill="white" stroke="none" points="-4,4 -4,-314 1253.5,-314 1253.5,4 -4,4"/>
<!-- Node23 -->
<g id="node1" class="node"><title>Node23</title>
<polygon fill="#bfbfbf" stroke="black" points="330,-279.5 330,-309.5 420,-309.5 420,-279.5 330,-279.5"/>
<text text-anchor="start" x="338" y="-297.5" font-family="Arial" font-size="10.00">include/client/mir</text>
<text text-anchor="middle" x="375" y="-286.5" font-family="Arial" font-size="10.00">_toolkit/event.h</text>
</g>
<!-- Node24 -->
<g id="node2" class="node"><title>Node24</title>
<g id="a_node2"><a xlink:href="event__printer_8h.html" target="_top" xlink:title="include/client/mir\l/event_printer.h">
<polygon fill="white" stroke="black" points="0,-207 0,-237 90,-237 90,-207 0,-207"/>
<text text-anchor="start" x="8" y="-225" font-family="Arial" font-size="10.00">include/client/mir</text>
<text text-anchor="middle" x="45" y="-214" font-family="Arial" font-size="10.00">/event_printer.h</text>
</a>
</g>
</g>
<!-- Node23&#45;&gt;Node24 -->
<g id="edge1" class="edge"><title>Node23&#45;&gt;Node24</title>
<path fill="none" stroke="midnightblue" d="M320.063,-285.618C264.954,-277.162 177.887,-262.302 104,-243 97.4074,-241.278 90.4865,-239.192 83.798,-237.026"/>
<polygon fill="midnightblue" stroke="midnightblue" points="319.559,-289.082 329.971,-287.122 320.609,-282.161 319.559,-289.082"/>
</g>
<!-- Node25 -->
<g id="node3" class="node"><title>Node25</title>
<g id="a_node3"><a xlink:href="event__builders_8h.html" target="_top" xlink:title="include/client/mir\l/events/event_builders.h">
<polygon fill="white" stroke="black" points="135.5,-134.5 135.5,-164.5 258.5,-164.5 258.5,-134.5 135.5,-134.5"/>
<text text-anchor="start" x="143.5" y="-152.5" font-family="Arial" font-size="10.00">include/client/mir</text>
<text text-anchor="middle" x="197" y="-141.5" font-family="Arial" font-size="10.00">/events/event_builders.h</text>
</a>
</g>
</g>
<!-- Node23&#45;&gt;Node25 -->
<g id="edge2" class="edge"><title>Node23&#45;&gt;Node25</title>
<path fill="none" stroke="midnightblue" d="M319.631,-289.633C256.633,-283.946 159.541,-270.826 137,-243 125.25,-228.495 129.124,-217.924 137,-201 144.181,-185.57 158.654,-173.168 171.587,-164.516"/>
<polygon fill="midnightblue" stroke="midnightblue" points="319.551,-293.139 329.816,-290.515 320.155,-286.165 319.551,-293.139"/>
</g>
<!-- Node26 -->
<g id="node4" class="node"><title>Node26</title>
<g id="a_node4"><a xlink:href="contact__state_8h.html" target="_top" xlink:title="include/common/mir\l/events/contact_state.h">
<polygon fill="white" stroke="black" points="271.5,-207 271.5,-237 390.5,-237 390.5,-207 271.5,-207"/>
<text text-anchor="start" x="279.5" y="-225" font-family="Arial" font-size="10.00">include/common/mir</text>
<text text-anchor="middle" x="331" y="-214" font-family="Arial" font-size="10.00">/events/contact_state.h</text>
</a>
</g>
</g>
<!-- Node23&#45;&gt;Node26 -->
<g id="edge3" class="edge"><title>Node23&#45;&gt;Node26</title>
<path fill="none" stroke="midnightblue" d="M360.681,-270.557C353.834,-259.586 345.852,-246.797 339.891,-237.246"/>
<polygon fill="midnightblue" stroke="midnightblue" points="357.832,-272.603 366.096,-279.233 363.77,-268.897 357.832,-272.603"/>
</g>
<!-- Node27 -->
<g id="node5" class="node"><title>Node27</title>
<g id="a_node5"><a xlink:href="event__builder_8h.html" target="_top" xlink:title="include/platform/mir\l/input/event_builder.h">
<polygon fill="white" stroke="black" points="276.5,-134.5 276.5,-164.5 385.5,-164.5 385.5,-134.5 276.5,-134.5"/>
<text text-anchor="start" x="284.5" y="-152.5" font-family="Arial" font-size="10.00">include/platform/mir</text>
<text text-anchor="middle" x="331" y="-141.5" font-family="Arial" font-size="10.00">/input/event_builder.h</text>
</a>
</g>
</g>
<!-- Node23&#45;&gt;Node27 -->
<g id="edge23" class="edge"><title>Node23&#45;&gt;Node27</title>
<path fill="none" stroke="midnightblue" d="M389.607,-270.642C399.967,-251.314 410.211,-223.29 399,-201 391.005,-185.104 375.376,-172.953 361.116,-164.558"/>
<polygon fill="midnightblue" stroke="midnightblue" points="386.542,-268.952 384.606,-279.369 392.615,-272.433 386.542,-268.952"/>
</g>
<!-- Node28 -->
<g id="node6" class="node"><title>Node28</title>
<g id="a_node6"><a xlink:href="input__device__state_8h.html" target="_top" xlink:title="include/common/mir\l/events/input_device\l_state.h">
<polygon fill="white" stroke="black" points="146.5,-201.5 146.5,-242.5 253.5,-242.5 253.5,-201.5 146.5,-201.5"/>
<text text-anchor="start" x="154.5" y="-230.5" font-family="Arial" font-size="10.00">include/common/mir</text>
<text text-anchor="start" x="154.5" y="-219.5" font-family="Arial" font-size="10.00">/events/input_device</text>
<text text-anchor="middle" x="200" y="-208.5" font-family="Arial" font-size="10.00">_state.h</text>
</a>
</g>
</g>
<!-- Node23&#45;&gt;Node28 -->
<g id="edge6" class="edge"><title>Node23&#45;&gt;Node28</title>
<path fill="none" stroke="midnightblue" d="M330.4,-275.533C305.382,-265.454 274.147,-252.871 248.519,-242.546"/>
<polygon fill="midnightblue" stroke="midnightblue" points="329.423,-278.912 340.007,-279.403 332.039,-272.419 329.423,-278.912"/>
</g>
<!-- Node29 -->
<g id="node7" class="node"><title>Node29</title>
<g id="a_node7"><a xlink:href="append__event__filter_8h.html" target="_top" xlink:title="include/miral/miral\l/append_event_filter.h">
<polygon fill="white" stroke="black" points="404,-134.5 404,-164.5 516,-164.5 516,-134.5 404,-134.5"/>
<text text-anchor="start" x="412" y="-152.5" font-family="Arial" font-size="10.00">include/miral/miral</text>
<text text-anchor="middle" x="460" y="-141.5" font-family="Arial" font-size="10.00">/append_event_filter.h</text>
</a>
</g>
</g>
<!-- Node23&#45;&gt;Node29 -->
<g id="edge8" class="edge"><title>Node23&#45;&gt;Node29</title>
<path fill="none" stroke="midnightblue" d="M394.764,-271.503C401.933,-262.945 409.788,-252.843 416,-243 432.609,-216.682 447.072,-183.12 454.561,-164.517"/>
<polygon fill="midnightblue" stroke="midnightblue" points="392.035,-269.308 388.177,-279.176 397.347,-273.868 392.035,-269.308"/>
</g>
<!-- Node31 -->
<g id="node9" class="node"><title>Node31</title>
<g id="a_node9"><a xlink:href="window__management__policy_8h.html" target="_top" xlink:title="include/miral/miral\l/window_management_policy.h">
<polygon fill="white" stroke="black" points="485.5,-207 485.5,-237 636.5,-237 636.5,-207 485.5,-207"/>
<text text-anchor="start" x="493.5" y="-225" font-family="Arial" font-size="10.00">include/miral/miral</text>
<text text-anchor="middle" x="561" y="-214" font-family="Arial" font-size="10.00">/window_management_policy.h</text>
</a>
</g>
</g>
<!-- Node23&#45;&gt;Node31 -->
<g id="edge10" class="edge"><title>Node23&#45;&gt;Node31</title>
<path fill="none" stroke="midnightblue" d="M421.672,-275.81C453.285,-263.827 494.49,-248.21 523.872,-237.073"/>
<polygon fill="midnightblue" stroke="midnightblue" points="420.303,-272.586 412.193,-279.403 422.784,-279.131 420.303,-272.586"/>
</g>
<!-- Node41 -->
<g id="node19" class="node"><title>Node41</title>
<g id="a_node19"><a xlink:href="input__sink_8h.html" target="_top" xlink:title="include/platform/mir\l/input/input_sink.h">
<polygon fill="white" stroke="black" points="655,-207 655,-237 757,-237 757,-207 655,-207"/>
<text text-anchor="start" x="663" y="-225" font-family="Arial" font-size="10.00">include/platform/mir</text>
<text text-anchor="middle" x="706" y="-214" font-family="Arial" font-size="10.00">/input/input_sink.h</text>
</a>
</g>
</g>
<!-- Node23&#45;&gt;Node41 -->
<g id="edge24" class="edge"><title>Node23&#45;&gt;Node41</title>
<path fill="none" stroke="midnightblue" d="M430.521,-285.313C485.436,-276.701 571.657,-261.795 645,-243 651.694,-241.285 658.723,-239.227 665.533,-237.094"/>
<polygon fill="midnightblue" stroke="midnightblue" points="429.65,-281.906 420.305,-286.899 430.724,-288.823 429.65,-281.906"/>
</g>
<!-- Node26&#45;&gt;Node25 -->
<g id="edge4" class="edge"><title>Node26&#45;&gt;Node25</title>
<path fill="none" stroke="midnightblue" d="M295.296,-202.215C272.818,-190.389 244.277,-175.374 223.748,-164.573"/>
<polygon fill="midnightblue" stroke="midnightblue" points="293.726,-205.344 304.205,-206.903 296.985,-199.149 293.726,-205.344"/>
</g>
<!-- Node26&#45;&gt;Node27 -->
<g id="edge5" class="edge"><title>Node26&#45;&gt;Node27</title>
<path fill="none" stroke="midnightblue" d="M331,-196.732C331,-186.068 331,-173.914 331,-164.746"/>
<polygon fill="midnightblue" stroke="midnightblue" points="327.5,-196.733 331,-206.733 334.5,-196.733 327.5,-196.733"/>
</g>
<!-- Node28&#45;&gt;Node25 -->
<g id="edge7" class="edge"><title>Node28&#45;&gt;Node25</title>
<path fill="none" stroke="midnightblue" d="M198.727,-191.08C198.341,-182.006 197.934,-172.45 197.612,-164.892"/>
<polygon fill="midnightblue" stroke="midnightblue" points="195.242,-191.52 199.164,-201.362 202.236,-191.222 195.242,-191.52"/>
</g>
<!-- Node30 -->
<g id="node8" class="node"><title>Node30</title>
<g id="a_node8"><a xlink:href="shell__main_8cpp.html" target="_top" xlink:title="examples/miral&#45;shell\l/shell_main.cpp">
<polygon fill="white" stroke="black" points="368,-0.5 368,-30.5 474,-30.5 474,-0.5 368,-0.5"/>
<text text-anchor="start" x="376" y="-18.5" font-family="Arial" font-size="10.00">examples/miral&#45;shell</text>
<text text-anchor="middle" x="421" y="-7.5" font-family="Arial" font-size="10.00">/shell_main.cpp</text>
</a>
</g>
</g>
<!-- Node29&#45;&gt;Node30 -->
<g id="edge9" class="edge"><title>Node29&#45;&gt;Node30</title>
<path fill="none" stroke="midnightblue" d="M452.984,-124.754C444.87,-97.291 431.78,-52.9873 425.144,-30.5247"/>
<polygon fill="midnightblue" stroke="midnightblue" points="449.636,-125.775 455.826,-134.374 456.349,-123.792 449.636,-125.775"/>
</g>
<!-- Node32 -->
<g id="node10" class="node"><title>Node32</title>
<g id="a_node10"><a xlink:href="tiling__window__manager_8h.html" target="_top" xlink:title="examples/miral&#45;shell\l/tiling_window_manager.h">
<polygon fill="white" stroke="black" points="497.5,-67.5 497.5,-97.5 624.5,-97.5 624.5,-67.5 497.5,-67.5"/>
<text text-anchor="start" x="505.5" y="-85.5" font-family="Arial" font-size="10.00">examples/miral&#45;shell</text>
<text text-anchor="middle" x="561" y="-74.5" font-family="Arial" font-size="10.00">/tiling_window_manager.h</text>
</a>
</g>
</g>
<!-- Node31&#45;&gt;Node32 -->
<g id="edge11" class="edge"><title>Node31&#45;&gt;Node32</title>
<path fill="none" stroke="midnightblue" d="M561,-196.787C561,-168.107 561,-121.275 561,-97.8258"/>
<polygon fill="midnightblue" stroke="midnightblue" points="557.5,-196.803 561,-206.803 564.5,-196.803 557.5,-196.803"/>
</g>
<!-- Node35 -->
<g id="node13" class="node"><title>Node35</title>
<g id="a_node13"><a xlink:href="canonical__window__manager_8h.html" target="_top" xlink:title="include/miral/miral\l/canonical_window_manager.h">
<polygon fill="white" stroke="black" points="648,-134.5 648,-164.5 796,-164.5 796,-134.5 648,-134.5"/>
<text text-anchor="start" x="656" y="-152.5" font-family="Arial" font-size="10.00">include/miral/miral</text>
<text text-anchor="middle" x="722" y="-141.5" font-family="Arial" font-size="10.00">/canonical_window_manager.h</text>
</a>
</g>
</g>
<!-- Node31&#45;&gt;Node35 -->
<g id="edge15" class="edge"><title>Node31&#45;&gt;Node35</title>
<path fill="none" stroke="midnightblue" d="M602.465,-202.843C629.684,-190.924 664.758,-175.566 689.862,-164.573"/>
<polygon fill="midnightblue" stroke="midnightblue" points="600.95,-199.685 593.194,-206.903 603.758,-206.098 600.95,-199.685"/>
</g>
<!-- Node32&#45;&gt;Node30 -->
<g id="edge12" class="edge"><title>Node32&#45;&gt;Node30</title>
<path fill="none" stroke="midnightblue" d="M521.435,-63.1305C499.19,-52.8025 471.853,-40.1103 451.319,-30.5765"/>
<polygon fill="midnightblue" stroke="midnightblue" points="520.078,-66.3593 530.622,-67.396 523.026,-60.0103 520.078,-66.3593"/>
</g>
<!-- Node33 -->
<g id="node11" class="node"><title>Node33</title>
<g id="a_node11"><a xlink:href="tiling__window__manager_8cpp.html" target="_top" xlink:title="examples/miral&#45;shell\l/tiling_window_manager.cpp">
<polygon fill="white" stroke="black" points="492.5,-0.5 492.5,-30.5 629.5,-30.5 629.5,-0.5 492.5,-0.5"/>
<text text-anchor="start" x="500.5" y="-18.5" font-family="Arial" font-size="10.00">examples/miral&#45;shell</text>
<text text-anchor="middle" x="561" y="-7.5" font-family="Arial" font-size="10.00">/tiling_window_manager.cpp</text>
</a>
</g>
</g>
<!-- Node32&#45;&gt;Node33 -->
<g id="edge13" class="edge"><title>Node32&#45;&gt;Node33</title>
<path fill="none" stroke="midnightblue" d="M561,-57.1081C561,-48.1539 561,-38.3227 561,-30.5765"/>
<polygon fill="midnightblue" stroke="midnightblue" points="557.5,-57.3959 561,-67.396 564.5,-57.396 557.5,-57.3959"/>
</g>
<!-- Node34 -->
<g id="node12" class="node"><title>Node34</title>
<g id="a_node12"><a xlink:href="server__example_8cpp.html" target="_top" xlink:title="examples/server_example.cpp">
<polygon fill="white" stroke="black" points="647.5,-6 647.5,-25 796.5,-25 796.5,-6 647.5,-6"/>
<text text-anchor="middle" x="722" y="-13" font-family="Arial" font-size="10.00">examples/server_example.cpp</text>
</a>
</g>
</g>
<!-- Node32&#45;&gt;Node34 -->
<g id="edge14" class="edge"><title>Node32&#45;&gt;Node34</title>
<path fill="none" stroke="midnightblue" d="M605.284,-63.6214C636.446,-51.0403 676.756,-34.7661 700.929,-25.007"/>
<polygon fill="midnightblue" stroke="midnightblue" points="603.897,-60.4067 595.935,-67.396 606.518,-66.8977 603.897,-60.4067"/>
</g>
<!-- Node36 -->
<g id="node14" class="node"><title>Node36</title>
<g id="a_node14"><a xlink:href="kiosk__window__manager_8h.html" target="_top" xlink:title="examples/miral&#45;kiosk\l/kiosk_window_manager.h">
<polygon fill="white" stroke="black" points="987,-67.5 987,-97.5 1117,-97.5 1117,-67.5 987,-67.5"/>
<text text-anchor="start" x="995" y="-85.5" font-family="Arial" font-size="10.00">examples/miral&#45;kiosk</text>
<text text-anchor="middle" x="1052" y="-74.5" font-family="Arial" font-size="10.00">/kiosk_window_manager.h</text>
</a>
</g>
</g>
<!-- Node35&#45;&gt;Node36 -->
<g id="edge16" class="edge"><title>Node35&#45;&gt;Node36</title>
<path fill="none" stroke="midnightblue" d="M803.181,-132.51C859.719,-121.374 934.135,-106.716 986.81,-96.3405"/>
<polygon fill="midnightblue" stroke="midnightblue" points="802.334,-129.109 793.199,-134.476 803.687,-135.977 802.334,-129.109"/>
</g>
<!-- Node39 -->
<g id="node17" class="node"><title>Node39</title>
<g id="a_node17"><a xlink:href="floating__window__manager_8h.html" target="_top" xlink:title="examples/miral&#45;shell\l/floating_window_manager.h">
<polygon fill="white" stroke="black" points="653,-67.5 653,-97.5 791,-97.5 791,-67.5 653,-67.5"/>
<text text-anchor="start" x="661" y="-85.5" font-family="Arial" font-size="10.00">examples/miral&#45;shell</text>
<text text-anchor="middle" x="722" y="-74.5" font-family="Arial" font-size="10.00">/floating_window_manager.h</text>
</a>
</g>
</g>
<!-- Node35&#45;&gt;Node39 -->
<g id="edge19" class="edge"><title>Node35&#45;&gt;Node39</title>
<path fill="none" stroke="midnightblue" d="M722,-124.108C722,-115.154 722,-105.323 722,-97.5765"/>
<polygon fill="midnightblue" stroke="midnightblue" points="718.5,-124.396 722,-134.396 725.5,-124.396 718.5,-124.396"/>
</g>
<!-- Node37 -->
<g id="node15" class="node"><title>Node37</title>
<g id="a_node15"><a xlink:href="kiosk__main_8cpp.html" target="_top" xlink:title="examples/miral&#45;kiosk\l/kiosk_main.cpp">
<polygon fill="white" stroke="black" points="1140.5,-0.5 1140.5,-30.5 1249.5,-30.5 1249.5,-0.5 1140.5,-0.5"/>
<text text-anchor="start" x="1148.5" y="-18.5" font-family="Arial" font-size="10.00">examples/miral&#45;kiosk</text>
<text text-anchor="middle" x="1195" y="-7.5" font-family="Arial" font-size="10.00">/kiosk_main.cpp</text>
</a>
</g>
</g>
<!-- Node36&#45;&gt;Node37 -->
<g id="edge17" class="edge"><title>Node36&#45;&gt;Node37</title>
<path fill="none" stroke="midnightblue" d="M1092.41,-63.1305C1115.13,-52.8025 1143.06,-40.1103 1164.03,-30.5765"/>
<polygon fill="midnightblue" stroke="midnightblue" points="1090.68,-60.0716 1083.03,-67.396 1093.58,-66.4442 1090.68,-60.0716"/>
</g>
<!-- Node38 -->
<g id="node16" class="node"><title>Node38</title>
<g id="a_node16"><a xlink:href="kiosk__window__manager_8cpp.html" target="_top" xlink:title="examples/miral&#45;kiosk\l/kiosk_window_manager.cpp">
<polygon fill="white" stroke="black" points="982,-0.5 982,-30.5 1122,-30.5 1122,-0.5 982,-0.5"/>
<text text-anchor="start" x="990" y="-18.5" font-family="Arial" font-size="10.00">examples/miral&#45;kiosk</text>
<text text-anchor="middle" x="1052" y="-7.5" font-family="Arial" font-size="10.00">/kiosk_window_manager.cpp</text>
</a>
</g>
</g>
<!-- Node36&#45;&gt;Node38 -->
<g id="edge18" class="edge"><title>Node36&#45;&gt;Node38</title>
<path fill="none" stroke="midnightblue" d="M1052,-57.1081C1052,-48.1539 1052,-38.3227 1052,-30.5765"/>
<polygon fill="midnightblue" stroke="midnightblue" points="1048.5,-57.3959 1052,-67.396 1055.5,-57.396 1048.5,-57.3959"/>
</g>
<!-- Node39&#45;&gt;Node30 -->
<g id="edge21" class="edge"><title>Node39&#45;&gt;Node30</title>
<path fill="none" stroke="midnightblue" d="M643.616,-65.3806C596.919,-55.6674 536.511,-42.9093 483,-31 480.087,-30.3516 477.098,-29.6787 474.083,-28.9936"/>
<polygon fill="midnightblue" stroke="midnightblue" points="643.162,-68.8611 653.665,-67.468 644.586,-62.0073 643.162,-68.8611"/>
</g>
<!-- Node39&#45;&gt;Node34 -->
<g id="edge22" class="edge"><title>Node39&#45;&gt;Node34</title>
<path fill="none" stroke="midnightblue" d="M722,-57.2495C722,-46.017 722,-33.3767 722,-25.1945"/>
<polygon fill="midnightblue" stroke="midnightblue" points="718.5,-57.3959 722,-67.396 725.5,-57.396 718.5,-57.3959"/>
</g>
<!-- Node40 -->
<g id="node18" class="node"><title>Node40</title>
<g id="a_node18"><a xlink:href="floating__window__manager_8cpp.html" target="_top" xlink:title="examples/miral&#45;shell\l/floating_window_manager.cpp">
<polygon fill="white" stroke="black" points="814.5,-0.5 814.5,-30.5 963.5,-30.5 963.5,-0.5 814.5,-0.5"/>
<text text-anchor="start" x="822.5" y="-18.5" font-family="Arial" font-size="10.00">examples/miral&#45;shell</text>
<text text-anchor="middle" x="889" y="-7.5" font-family="Arial" font-size="10.00">/floating_window_manager.cpp</text>
</a>
</g>
</g>
<!-- Node39&#45;&gt;Node40 -->
<g id="edge20" class="edge"><title>Node39&#45;&gt;Node40</title>
<path fill="none" stroke="midnightblue" d="M767.78,-63.6815C794.563,-53.2568 827.902,-40.2805 852.834,-30.5765"/>
<polygon fill="midnightblue" stroke="midnightblue" points="766.286,-60.5071 758.237,-67.396 768.825,-67.0304 766.286,-60.5071"/>
</g>
</g>
</svg>
