<?xml version="1.0" encoding="UTF-8" standalone="no"?>
<!DOCTYPE svg PUBLIC "-//W3C//DTD SVG 1.1//EN"
 "http://www.w3.org/Graphics/SVG/1.1/DTD/svg11.dtd">
<!-- Generated by graphviz version 2.40.1 (20161225.0304)
 -->
<!-- Title: include/miral/miral/external_client.h Pages: 1 -->
<svg width="284pt" height="95pt"
 viewBox="0.00 0.00 283.50 95.00" xmlns="http://www.w3.org/2000/svg" xmlns:xlink="http://www.w3.org/1999/xlink">
<g id="graph0" class="graph" transform="scale(1 1) rotate(0) translate(4 91)">
<title>include/miral/miral/external_client.h</title>
<polygon fill="#ffffff" stroke="transparent" points="-4,4 -4,-91 279.5,-91 279.5,4 -4,4"/>
<!-- Node0 -->
<g id="node1" class="node">
<title>Node0</title>
<polygon fill="#bfbfbf" stroke="#000000" points="98.5,-56.5 98.5,-86.5 207.5,-86.5 207.5,-56.5 98.5,-56.5"/>
<text text-anchor="start" x="106.5" y="-74.5" font-family="Arial" font-size="10.00" fill="#000000">include/miral/miral</text>
<text text-anchor="middle" x="153" y="-63.5" font-family="Arial" font-size="10.00" fill="#000000">/external_client.h</text>
</g>
<!-- Node1 -->
<g id="node2" class="node">
<title>Node1</title>
<polygon fill="#ffffff" stroke="#bfbfbf" points="0,-.5 0,-19.5 72,-19.5 72,-.5 0,-.5"/>
<text text-anchor="middle" x="36" y="-7.5" font-family="Arial" font-size="10.00" fill="#000000">sys/types.h</text>
</g>
<!-- Node0&#45;&gt;Node1 -->
<g id="edge1" class="edge">
<title>Node0&#45;&gt;Node1</title>
<path fill="none" stroke="#191970" d="M124.3786,-56.4554C105.713,-46.644 81.5001,-33.9167 63.1388,-24.2653"/>
<polygon fill="#191970" stroke="#191970" points="64.611,-21.0851 54.1308,-19.5303 61.354,-27.2812 64.611,-21.0851"/>
</g>
<!-- Node2 -->
<g id="node3" class="node">
<title>Node2</title>
<polygon fill="#ffffff" stroke="#bfbfbf" points="90,-.5 90,-19.5 148,-19.5 148,-.5 90,-.5"/>
<text text-anchor="middle" x="119" y="-7.5" font-family="Arial" font-size="10.00" fill="#000000">memory</text>
</g>
<!-- Node0&#45;&gt;Node2 -->
<g id="edge2" class="edge">
<title>Node0&#45;&gt;Node2</title>
<path fill="none" stroke="#191970" d="M144.5955,-56.2977C139.9743,-47.9388 134.2031,-37.4997 129.3111,-28.6509"/>
<polygon fill="#191970" stroke="#191970" points="132.3452,-26.9051 124.4438,-19.8469 126.2191,-30.292 132.3452,-26.9051"/>
</g>
<!-- Node3 -->
<g id="node4" class="node">
<title>Node3</title>
<polygon fill="#ffffff" stroke="#bfbfbf" points="166,-.5 166,-19.5 210,-19.5 210,-.5 166,-.5"/>
<text text-anchor="middle" x="188" y="-7.5" font-family="Arial" font-size="10.00" fill="#000000">string</text>
</g>
<!-- Node0&#45;&gt;Node3 -->
<g id="edge3" class="edge">
<title>Node0&#45;&gt;Node3</title>
<path fill="none" stroke="#191970" d="M161.6517,-56.2977C166.4088,-47.9388 172.3498,-37.4997 177.3857,-28.6509"/>
<polygon fill="#191970" stroke="#191970" points="180.4917,-30.2692 182.3961,-19.8469 174.4079,-26.8069 180.4917,-30.2692"/>
</g>
<!-- Node4 -->
<g id="node5" class="node">
<title>Node4</title>
<polygon fill="#ffffff" stroke="#bfbfbf" points="228.5,-.5 228.5,-19.5 275.5,-19.5 275.5,-.5 228.5,-.5"/>
<text text-anchor="middle" x="252" y="-7.5" font-family="Arial" font-size="10.00" fill="#000000">vector</text>
</g>
<!-- Node0&#45;&gt;Node4 -->
<g id="edge4" class="edge">
<title>Node0&#45;&gt;Node4</title>
<path fill="none" stroke="#191970" d="M177.2181,-56.4554C192.5773,-46.9141 212.3757,-34.6151 227.7425,-25.0691"/>
<polygon fill="#191970" stroke="#191970" points="230.011,-27.7802 236.6585,-19.5303 226.3172,-21.8341 230.011,-27.7802"/>
</g>
</g>
</svg>
