<?xml version="1.0" encoding="UTF-8" standalone="no"?>
<!DOCTYPE svg PUBLIC "-//W3C//DTD SVG 1.1//EN"
 "http://www.w3.org/Graphics/SVG/1.1/DTD/svg11.dtd">
<!-- Generated by graphviz version 2.38.0 (20140413.2041)
 -->
<!-- Title: include/test/mir/test/fake_shared.h Pages: 1 -->
<svg width="200pt" height="95pt"
 viewBox="0.00 0.00 200.00 95.00" xmlns="http://www.w3.org/2000/svg" xmlns:xlink="http://www.w3.org/1999/xlink">
<g id="graph0" class="graph" transform="scale(1 1) rotate(0) translate(4 91)">
<title>include/test/mir/test/fake_shared.h</title>
<polygon fill="white" stroke="none" points="-4,4 -4,-91 196,-91 196,4 -4,4"/>
<!-- Node0 -->
<g id="node1" class="node"><title>Node0</title>
<polygon fill="#bfbfbf" stroke="black" points="61.5,-56.5 61.5,-86.5 164.5,-86.5 164.5,-56.5 61.5,-56.5"/>
<text text-anchor="start" x="69.5" y="-74.5" font-family="Arial" font-size="10.00">include/test/mir/test</text>
<text text-anchor="middle" x="113" y="-63.5" font-family="Arial" font-size="10.00">/fake_shared.h</text>
</g>
<!-- Node1 -->
<g id="node2" class="node"><title>Node1</title>
<g id="a_node2"><a xlink:href="empty__deleter_8h.html" target="_top" xlink:title="mir/test/empty_deleter.h">
<polygon fill="white" stroke="black" points="0,-0.5 0,-19.5 122,-19.5 122,-0.5 0,-0.5"/>
<text text-anchor="middle" x="61" y="-7.5" font-family="Arial" font-size="10.00">mir/test/empty_deleter.h</text>
</a>
</g>
</g>
<!-- Node0&#45;&gt;Node1 -->
<g id="edge1" class="edge"><title>Node0&#45;&gt;Node1</title>
<path fill="none" stroke="midnightblue" d="M100.677,-56.3993C93.0426,-47.6641 83.2093,-36.4126 75.2421,-27.2962"/>
<polygon fill="midnightblue" stroke="midnightblue" points="77.7825,-24.8843 68.5665,-19.6578 72.5117,-29.4907 77.7825,-24.8843"/>
</g>
<!-- Node2 -->
<g id="node3" class="node"><title>Node2</title>
<polygon fill="white" stroke="#bfbfbf" points="140,-0.5 140,-19.5 192,-19.5 192,-0.5 140,-0.5"/>
<text text-anchor="middle" x="166" y="-7.5" font-family="Arial" font-size="10.00">memory</text>
</g>
<!-- Node0&#45;&gt;Node2 -->
<g id="edge2" class="edge"><title>Node0&#45;&gt;Node2</title>
<path fill="none" stroke="midnightblue" d="M125.56,-56.3993C133.341,-47.6641 143.364,-36.4126 151.484,-27.2962"/>
<polygon fill="midnightblue" stroke="midnightblue" points="154.25,-29.453 158.288,-19.6578 149.023,-24.797 154.25,-29.453"/>
</g>
</g>
</svg>
