<?xml version="1.0" encoding="UTF-8" standalone="no"?>
<!DOCTYPE svg PUBLIC "-//W3C//DTD SVG 1.1//EN"
 "http://www.w3.org/Graphics/SVG/1.1/DTD/svg11.dtd">
<!-- Generated by graphviz version 2.38.0 (20140413.2041)
 -->
<!-- Title: include/test/mir/test/doubles/fake_display.h Pages: 1 -->
<svg width="853pt" height="486pt"
 viewBox="0.00 0.00 852.90 486.00" xmlns="http://www.w3.org/2000/svg" xmlns:xlink="http://www.w3.org/1999/xlink">
<g id="graph0" class="graph" transform="scale(1 1) rotate(0) translate(4 482)">
<title>include/test/mir/test/doubles/fake_display.h</title>
<polygon fill="white" stroke="none" points="-4,4 -4,-482 848.901,-482 848.901,4 -4,4"/>
<!-- Node0 -->
<g id="node1" class="node"><title>Node0</title>
<polygon fill="#bfbfbf" stroke="black" points="514.94,-447.5 514.94,-477.5 633.94,-477.5 633.94,-447.5 514.94,-447.5"/>
<text text-anchor="start" x="522.94" y="-465.5" font-family="Arial" font-size="10.00">include/test/mir/test</text>
<text text-anchor="middle" x="574.44" y="-454.5" font-family="Arial" font-size="10.00">/doubles/fake_display.h</text>
</g>
<!-- Node1 -->
<g id="node2" class="node"><title>Node1</title>
<g id="a_node2"><a xlink:href="null__display_8h.html" target="_top" xlink:title="mir/test/doubles/null\l_display.h">
<polygon fill="white" stroke="black" points="394.44,-380.5 394.44,-410.5 498.44,-410.5 498.44,-380.5 394.44,-380.5"/>
<text text-anchor="start" x="402.44" y="-398.5" font-family="Arial" font-size="10.00">mir/test/doubles/null</text>
<text text-anchor="middle" x="446.44" y="-387.5" font-family="Arial" font-size="10.00">_display.h</text>
</a>
</g>
</g>
<!-- Node0&#45;&gt;Node1 -->
<g id="edge1" class="edge"><title>Node0&#45;&gt;Node1</title>
<path fill="none" stroke="midnightblue" d="M546.666,-447.396C528.048,-437.941 503.331,-425.39 483.101,-415.117"/>
<polygon fill="midnightblue" stroke="midnightblue" points="484.661,-411.984 474.16,-410.577 481.492,-418.225 484.661,-411.984"/>
</g>
<!-- Node18 -->
<g id="node19" class="node"><title>Node18</title>
<g id="a_node19"><a xlink:href="rectangle_8h.html" target="_top" xlink:title="mir/geometry/rectangle.h">
<polygon fill="white" stroke="black" points="126.94,-185 126.94,-204 251.94,-204 251.94,-185 126.94,-185"/>
<text text-anchor="middle" x="189.44" y="-192" font-family="Arial" font-size="10.00">mir/geometry/rectangle.h</text>
</a>
</g>
</g>
<!-- Node0&#45;&gt;Node18 -->
<g id="edge30" class="edge"><title>Node0&#45;&gt;Node18</title>
<path fill="none" stroke="midnightblue" d="M514.736,-452.022C380.053,-429.196 60.1402,-366.374 6.44043,-277 -21.7682,-230.052 53.9822,-210.023 116.462,-201.561"/>
<polygon fill="midnightblue" stroke="midnightblue" points="117.275,-204.986 126.753,-200.253 116.392,-198.042 117.275,-204.986"/>
</g>
<!-- Node21 -->
<g id="node22" class="node"><title>Node21</title>
<g id="a_node22"><a xlink:href="fd_8h.html" target="_top" xlink:title="mir/fd.h">
<polygon fill="white" stroke="black" points="516.44,-386 516.44,-405 566.44,-405 566.44,-386 516.44,-386"/>
<text text-anchor="middle" x="541.44" y="-393" font-family="Arial" font-size="10.00">mir/fd.h</text>
</a>
</g>
</g>
<!-- Node0&#45;&gt;Node21 -->
<g id="edge28" class="edge"><title>Node0&#45;&gt;Node21</title>
<path fill="none" stroke="midnightblue" d="M567.28,-447.396C562.338,-437.662 555.73,-424.646 550.434,-414.214"/>
<polygon fill="midnightblue" stroke="midnightblue" points="553.502,-412.527 545.855,-405.195 547.261,-415.696 553.502,-412.527"/>
</g>
<!-- Node22 -->
<g id="node23" class="node"><title>Node22</title>
<polygon fill="white" stroke="#bfbfbf" points="584.44,-386 584.44,-405 630.44,-405 630.44,-386 584.44,-386"/>
<text text-anchor="middle" x="607.44" y="-393" font-family="Arial" font-size="10.00">atomic</text>
</g>
<!-- Node0&#45;&gt;Node22 -->
<g id="edge31" class="edge"><title>Node0&#45;&gt;Node22</title>
<path fill="none" stroke="midnightblue" d="M581.601,-447.396C586.543,-437.662 593.151,-424.646 598.447,-414.214"/>
<polygon fill="midnightblue" stroke="midnightblue" points="601.62,-415.696 603.026,-405.195 595.378,-412.527 601.62,-415.696"/>
</g>
<!-- Node23 -->
<g id="node24" class="node"><title>Node23</title>
<polygon fill="white" stroke="#bfbfbf" points="648.44,-386 648.44,-405 692.44,-405 692.44,-386 648.44,-386"/>
<text text-anchor="middle" x="670.44" y="-393" font-family="Arial" font-size="10.00">mutex</text>
</g>
<!-- Node0&#45;&gt;Node23 -->
<g id="edge32" class="edge"><title>Node0&#45;&gt;Node23</title>
<path fill="none" stroke="midnightblue" d="M595.271,-447.396C611.221,-436.597 633.139,-421.756 649.192,-410.887"/>
<polygon fill="midnightblue" stroke="midnightblue" points="651.558,-413.512 657.876,-405.007 647.633,-407.715 651.558,-413.512"/>
</g>
<!-- Node24 -->
<g id="node25" class="node"><title>Node24</title>
<polygon fill="white" stroke="#bfbfbf" points="710.44,-386 710.44,-405 754.44,-405 754.44,-386 710.44,-386"/>
<text text-anchor="middle" x="732.44" y="-393" font-family="Arial" font-size="10.00">vector</text>
</g>
<!-- Node0&#45;&gt;Node24 -->
<g id="edge33" class="edge"><title>Node0&#45;&gt;Node24</title>
<path fill="none" stroke="midnightblue" d="M611.356,-447.484C636.827,-437.652 671.384,-423.992 701.44,-411 702.637,-410.483 703.856,-409.948 705.085,-409.402"/>
<polygon fill="midnightblue" stroke="midnightblue" points="706.842,-412.447 714.49,-405.115 703.939,-406.078 706.842,-412.447"/>
</g>
<!-- Node2 -->
<g id="node3" class="node"><title>Node2</title>
<polygon fill="white" stroke="#bfbfbf" points="15.9404,-252 15.9404,-271 126.94,-271 126.94,-252 15.9404,-252"/>
<text text-anchor="middle" x="71.4404" y="-259" font-family="Arial" font-size="10.00">mir/graphics/display.h</text>
</g>
<!-- Node1&#45;&gt;Node2 -->
<g id="edge2" class="edge"><title>Node1&#45;&gt;Node2</title>
<path fill="none" stroke="midnightblue" d="M394.356,-390.327C341.533,-384.699 258.268,-371.944 191.44,-344 151.648,-327.361 111.39,-296.508 89.0992,-277.907"/>
<polygon fill="midnightblue" stroke="midnightblue" points="91.1024,-275.016 81.2153,-271.209 86.5702,-280.351 91.1024,-275.016"/>
</g>
<!-- Node3 -->
<g id="node4" class="node"><title>Node3</title>
<polygon fill="white" stroke="#bfbfbf" points="456.94,-313.5 456.94,-343.5 555.94,-343.5 555.94,-313.5 456.94,-313.5"/>
<text text-anchor="start" x="464.94" y="-331.5" font-family="Arial" font-size="10.00">mir/graphics/virtual</text>
<text text-anchor="middle" x="506.44" y="-320.5" font-family="Arial" font-size="10.00">_output.h</text>
</g>
<!-- Node1&#45;&gt;Node3 -->
<g id="edge3" class="edge"><title>Node1&#45;&gt;Node3</title>
<path fill="none" stroke="midnightblue" d="M459.46,-380.396C467.401,-371.793 477.709,-360.626 486.645,-350.945"/>
<polygon fill="midnightblue" stroke="midnightblue" points="489.236,-353.299 493.447,-343.577 484.092,-348.551 489.236,-353.299"/>
</g>
<!-- Node4 -->
<g id="node5" class="node"><title>Node4</title>
<g id="a_node5"><a xlink:href="context__source_8h.html" target="_top" xlink:title="mir/renderer/gl/context\l_source.h">
<polygon fill="white" stroke="black" points="714.44,-313.5 714.44,-343.5 828.44,-343.5 828.44,-313.5 714.44,-313.5"/>
<text text-anchor="start" x="722.44" y="-331.5" font-family="Arial" font-size="10.00">mir/renderer/gl/context</text>
<text text-anchor="middle" x="771.44" y="-320.5" font-family="Arial" font-size="10.00">_source.h</text>
</a>
</g>
</g>
<!-- Node1&#45;&gt;Node4 -->
<g id="edge4" class="edge"><title>Node1&#45;&gt;Node4</title>
<path fill="none" stroke="midnightblue" d="M498.643,-381.897C501.616,-381.24 504.564,-380.603 507.44,-380 591.903,-362.296 616.066,-361.625 704.321,-344.178"/>
<polygon fill="midnightblue" stroke="midnightblue" points="705.107,-347.59 714.23,-342.203 703.738,-340.726 705.107,-347.59"/>
</g>
<!-- Node6 -->
<g id="node7" class="node"><title>Node6</title>
<g id="a_node7"><a xlink:href="null__gl__context_8h.html" target="_top" xlink:title="mir/test/doubles/null\l_gl_context.h">
<polygon fill="white" stroke="black" points="334.44,-313.5 334.44,-343.5 438.44,-343.5 438.44,-313.5 334.44,-313.5"/>
<text text-anchor="start" x="342.44" y="-331.5" font-family="Arial" font-size="10.00">mir/test/doubles/null</text>
<text text-anchor="middle" x="386.44" y="-320.5" font-family="Arial" font-size="10.00">_gl_context.h</text>
</a>
</g>
</g>
<!-- Node1&#45;&gt;Node6 -->
<g id="edge6" class="edge"><title>Node1&#45;&gt;Node6</title>
<path fill="none" stroke="midnightblue" d="M433.421,-380.396C425.48,-371.793 415.172,-360.626 406.236,-350.945"/>
<polygon fill="midnightblue" stroke="midnightblue" points="408.789,-348.551 399.434,-343.577 403.645,-353.299 408.789,-348.551"/>
</g>
<!-- Node8 -->
<g id="node9" class="node"><title>Node8</title>
<g id="a_node9"><a xlink:href="null__display__configuration_8h.html" target="_top" xlink:title="mir/test/doubles/null\l_display_configuration.h">
<polygon fill="white" stroke="black" points="574.44,-313.5 574.44,-343.5 696.44,-343.5 696.44,-313.5 574.44,-313.5"/>
<text text-anchor="start" x="582.44" y="-331.5" font-family="Arial" font-size="10.00">mir/test/doubles/null</text>
<text text-anchor="middle" x="635.44" y="-320.5" font-family="Arial" font-size="10.00">_display_configuration.h</text>
</a>
</g>
</g>
<!-- Node1&#45;&gt;Node8 -->
<g id="edge8" class="edge"><title>Node1&#45;&gt;Node8</title>
<path fill="none" stroke="midnightblue" d="M487.451,-380.396C516.056,-370.558 554.412,-357.367 584.908,-346.879"/>
<polygon fill="midnightblue" stroke="midnightblue" points="586.192,-350.139 594.51,-343.577 583.916,-343.519 586.192,-350.139"/>
</g>
<!-- Node10 -->
<g id="node11" class="node"><title>Node10</title>
<g id="a_node11"><a xlink:href="null__display__sync__group_8h.html" target="_top" xlink:title="mir/test/doubles/null\l_display_sync_group.h">
<polygon fill="white" stroke="black" points="200.44,-313.5 200.44,-343.5 316.44,-343.5 316.44,-313.5 200.44,-313.5"/>
<text text-anchor="start" x="208.44" y="-331.5" font-family="Arial" font-size="10.00">mir/test/doubles/null</text>
<text text-anchor="middle" x="258.44" y="-320.5" font-family="Arial" font-size="10.00">_display_sync_group.h</text>
</a>
</g>
</g>
<!-- Node1&#45;&gt;Node10 -->
<g id="edge10" class="edge"><title>Node1&#45;&gt;Node10</title>
<path fill="none" stroke="midnightblue" d="M405.647,-380.396C377.193,-370.558 339.04,-357.367 308.706,-346.879"/>
<polygon fill="midnightblue" stroke="midnightblue" points="309.749,-343.536 299.154,-343.577 307.461,-350.152 309.749,-343.536"/>
</g>
<!-- Node5 -->
<g id="node6" class="node"><title>Node5</title>
<polygon fill="white" stroke="#bfbfbf" points="787.44,-252 787.44,-271 839.44,-271 839.44,-252 787.44,-252"/>
<text text-anchor="middle" x="813.44" y="-259" font-family="Arial" font-size="10.00">memory</text>
</g>
<!-- Node4&#45;&gt;Node5 -->
<g id="edge5" class="edge"><title>Node4&#45;&gt;Node5</title>
<path fill="none" stroke="midnightblue" d="M780.554,-313.396C786.908,-303.562 795.427,-290.378 802.203,-279.892"/>
<polygon fill="midnightblue" stroke="midnightblue" points="805.335,-281.493 807.822,-271.195 799.456,-277.694 805.335,-281.493"/>
</g>
<!-- Node7 -->
<g id="node8" class="node"><title>Node7</title>
<g id="a_node8"><a xlink:href="context_8h.html" target="_top" xlink:title="mir/renderer/gl/context.h">
<polygon fill="white" stroke="black" points="409.44,-252 409.44,-271 531.44,-271 531.44,-252 409.44,-252"/>
<text text-anchor="middle" x="470.44" y="-259" font-family="Arial" font-size="10.00">mir/renderer/gl/context.h</text>
</a>
</g>
</g>
<!-- Node6&#45;&gt;Node7 -->
<g id="edge7" class="edge"><title>Node6&#45;&gt;Node7</title>
<path fill="none" stroke="midnightblue" d="M404.667,-313.396C418.413,-302.759 437.224,-288.203 451.209,-277.381"/>
<polygon fill="midnightblue" stroke="midnightblue" points="453.438,-280.082 459.204,-271.195 449.154,-274.546 453.438,-280.082"/>
</g>
<!-- Node9 -->
<g id="node10" class="node"><title>Node9</title>
<polygon fill="white" stroke="#bfbfbf" points="583.44,-246.5 583.44,-276.5 687.44,-276.5 687.44,-246.5 583.44,-246.5"/>
<text text-anchor="start" x="591.44" y="-264.5" font-family="Arial" font-size="10.00">mir/graphics/display</text>
<text text-anchor="middle" x="635.44" y="-253.5" font-family="Arial" font-size="10.00">_configuration.h</text>
</g>
<!-- Node8&#45;&gt;Node9 -->
<g id="edge9" class="edge"><title>Node8&#45;&gt;Node9</title>
<path fill="none" stroke="midnightblue" d="M635.44,-313.396C635.44,-305.645 635.44,-295.812 635.44,-286.86"/>
<polygon fill="midnightblue" stroke="midnightblue" points="638.941,-286.576 635.44,-276.577 631.941,-286.577 638.941,-286.576"/>
</g>
<!-- Node10&#45;&gt;Node2 -->
<g id="edge11" class="edge"><title>Node10&#45;&gt;Node2</title>
<path fill="none" stroke="midnightblue" d="M217.864,-313.396C184.327,-301.739 137.245,-285.373 105.607,-274.376"/>
<polygon fill="midnightblue" stroke="midnightblue" points="106.509,-270.984 95.9144,-271.007 104.211,-277.596 106.509,-270.984"/>
</g>
<!-- Node11 -->
<g id="node12" class="node"><title>Node11</title>
<g id="a_node12"><a xlink:href="size_8h.html" target="_top" xlink:title="mir/geometry/size.h">
<polygon fill="white" stroke="black" points="260.94,-118 260.94,-137 363.94,-137 363.94,-118 260.94,-118"/>
<text text-anchor="middle" x="312.44" y="-125" font-family="Arial" font-size="10.00">mir/geometry/size.h</text>
</a>
</g>
</g>
<!-- Node10&#45;&gt;Node11 -->
<g id="edge12" class="edge"><title>Node10&#45;&gt;Node11</title>
<path fill="none" stroke="midnightblue" d="M287.351,-313.448C301.29,-304.99 316.645,-292.781 324.44,-277 345.569,-234.229 330.024,-176.007 319.683,-146.798"/>
<polygon fill="midnightblue" stroke="midnightblue" points="322.843,-145.257 316.061,-137.117 316.287,-147.709 322.843,-145.257"/>
</g>
<!-- Node15 -->
<g id="node16" class="node"><title>Node15</title>
<g id="a_node16"><a xlink:href="null__display__buffer_8h.html" target="_top" xlink:title="mir/test/doubles/null\l_display_buffer.h">
<polygon fill="white" stroke="black" points="371.44,-179.5 371.44,-209.5 475.44,-209.5 475.44,-179.5 371.44,-179.5"/>
<text text-anchor="start" x="379.44" y="-197.5" font-family="Arial" font-size="10.00">mir/test/doubles/null</text>
<text text-anchor="middle" x="423.44" y="-186.5" font-family="Arial" font-size="10.00">_display_buffer.h</text>
</a>
</g>
</g>
<!-- Node10&#45;&gt;Node15 -->
<g id="edge17" class="edge"><title>Node10&#45;&gt;Node15</title>
<path fill="none" stroke="midnightblue" d="M294.487,-313.497C314.273,-304.776 338.551,-292.304 357.44,-277 378.161,-260.213 396.777,-235.956 408.913,-218.273"/>
<polygon fill="midnightblue" stroke="midnightblue" points="411.997,-219.957 414.645,-209.699 406.178,-216.066 411.997,-219.957"/>
</g>
<!-- Node17 -->
<g id="node18" class="node"><title>Node17</title>
<g id="a_node18"><a xlink:href="stub__display__buffer_8h.html" target="_top" xlink:title="mir/test/doubles/stub\l_display_buffer.h">
<polygon fill="white" stroke="black" points="145.44,-246.5 145.44,-276.5 253.44,-276.5 253.44,-246.5 145.44,-246.5"/>
<text text-anchor="start" x="153.44" y="-264.5" font-family="Arial" font-size="10.00">mir/test/doubles/stub</text>
<text text-anchor="middle" x="199.44" y="-253.5" font-family="Arial" font-size="10.00">_display_buffer.h</text>
</a>
</g>
</g>
<!-- Node10&#45;&gt;Node17 -->
<g id="edge19" class="edge"><title>Node10&#45;&gt;Node17</title>
<path fill="none" stroke="midnightblue" d="M245.638,-313.396C237.907,-304.878 227.894,-293.847 219.167,-284.233"/>
<polygon fill="midnightblue" stroke="midnightblue" points="221.53,-281.629 212.218,-276.577 216.347,-286.333 221.53,-281.629"/>
</g>
<!-- Node20 -->
<g id="node21" class="node"><title>Node20</title>
<polygon fill="white" stroke="#bfbfbf" points="271.44,-252 271.44,-271 315.44,-271 315.44,-252 271.44,-252"/>
<text text-anchor="middle" x="293.44" y="-259" font-family="Arial" font-size="10.00">thread</text>
</g>
<!-- Node10&#45;&gt;Node20 -->
<g id="edge27" class="edge"><title>Node10&#45;&gt;Node20</title>
<path fill="none" stroke="midnightblue" d="M266.035,-313.396C271.276,-303.662 278.285,-290.646 283.902,-280.214"/>
<polygon fill="midnightblue" stroke="midnightblue" points="287.099,-281.659 288.759,-271.195 280.936,-278.34 287.099,-281.659"/>
</g>
<!-- Node12 -->
<g id="node13" class="node"><title>Node12</title>
<g id="a_node13"><a xlink:href="dimensions_8h.html" target="_top" xlink:title="mir/geometry/dimensions.h">
<polygon fill="white" stroke="black" points="174.44,-56.5 174.44,-75.5 308.44,-75.5 308.44,-56.5 174.44,-56.5"/>
<text text-anchor="middle" x="241.44" y="-63.5" font-family="Arial" font-size="10.00">mir/geometry/dimensions.h</text>
</a>
</g>
</g>
<!-- Node11&#45;&gt;Node12 -->
<g id="edge13" class="edge"><title>Node11&#45;&gt;Node12</title>
<path fill="none" stroke="midnightblue" d="M302.268,-117.975C291.091,-108.608 272.924,-93.3839 259.349,-82.0081"/>
<polygon fill="midnightblue" stroke="midnightblue" points="261.507,-79.2496 251.594,-75.5091 257.011,-84.6148 261.507,-79.2496"/>
</g>
<!-- Node14 -->
<g id="node15" class="node"><title>Node14</title>
<polygon fill="white" stroke="#bfbfbf" points="140.44,-0.5 140.44,-19.5 184.44,-19.5 184.44,-0.5 140.44,-0.5"/>
<text text-anchor="middle" x="162.44" y="-7.5" font-family="Arial" font-size="10.00">iosfwd</text>
</g>
<!-- Node11&#45;&gt;Node14 -->
<g id="edge16" class="edge"><title>Node11&#45;&gt;Node14</title>
<path fill="none" stroke="midnightblue" d="M316.432,-117.663C322.296,-103.197 331.145,-74.2498 317.44,-56 309.924,-45.9914 237.394,-28.0326 194.264,-18.097"/>
<polygon fill="midnightblue" stroke="midnightblue" points="195.035,-14.6829 184.507,-15.8703 193.477,-21.5075 195.035,-14.6829"/>
</g>
<!-- Node13 -->
<g id="node14" class="node"><title>Node13</title>
<polygon fill="white" stroke="#bfbfbf" points="218.44,-0.5 218.44,-19.5 264.44,-19.5 264.44,-0.5 218.44,-0.5"/>
<text text-anchor="middle" x="241.44" y="-7.5" font-family="Arial" font-size="10.00">cstdint</text>
</g>
<!-- Node12&#45;&gt;Node13 -->
<g id="edge14" class="edge"><title>Node12&#45;&gt;Node13</title>
<path fill="none" stroke="midnightblue" d="M241.44,-56.083C241.44,-49.0059 241.44,-38.8611 241.44,-29.9865"/>
<polygon fill="midnightblue" stroke="midnightblue" points="244.941,-29.751 241.44,-19.7511 237.941,-29.7511 244.941,-29.751"/>
</g>
<!-- Node12&#45;&gt;Node14 -->
<g id="edge15" class="edge"><title>Node12&#45;&gt;Node14</title>
<path fill="none" stroke="midnightblue" d="M228.748,-56.324C216.539,-47.979 197.862,-35.2122 183.437,-25.3524"/>
<polygon fill="midnightblue" stroke="midnightblue" points="185.332,-22.4082 175.102,-19.6545 181.382,-28.1871 185.332,-22.4082"/>
</g>
<!-- Node16 -->
<g id="node17" class="node"><title>Node16</title>
<polygon fill="white" stroke="#bfbfbf" points="382.44,-112.5 382.44,-142.5 486.44,-142.5 486.44,-112.5 382.44,-112.5"/>
<text text-anchor="start" x="390.44" y="-130.5" font-family="Arial" font-size="10.00">mir/graphics/display</text>
<text text-anchor="middle" x="434.44" y="-119.5" font-family="Arial" font-size="10.00">_buffer.h</text>
</g>
<!-- Node15&#45;&gt;Node16 -->
<g id="edge18" class="edge"><title>Node15&#45;&gt;Node16</title>
<path fill="none" stroke="midnightblue" d="M425.827,-179.396C427.153,-171.56 428.84,-161.596 430.368,-152.565"/>
<polygon fill="midnightblue" stroke="midnightblue" points="433.841,-153.02 432.058,-142.577 426.939,-151.852 433.841,-153.02"/>
</g>
<!-- Node17&#45;&gt;Node15 -->
<g id="edge20" class="edge"><title>Node17&#45;&gt;Node15</title>
<path fill="none" stroke="midnightblue" d="M247.769,-246.476C282.097,-236.515 328.374,-223.086 364.813,-212.512"/>
<polygon fill="midnightblue" stroke="midnightblue" points="366.184,-215.759 374.812,-209.611 364.233,-209.036 366.184,-215.759"/>
</g>
<!-- Node17&#45;&gt;Node18 -->
<g id="edge21" class="edge"><title>Node17&#45;&gt;Node18</title>
<path fill="none" stroke="midnightblue" d="M197.271,-246.396C195.819,-236.963 193.894,-224.448 192.316,-214.189"/>
<polygon fill="midnightblue" stroke="midnightblue" points="195.758,-213.546 190.778,-204.195 188.839,-214.61 195.758,-213.546"/>
</g>
<!-- Node18&#45;&gt;Node11 -->
<g id="edge25" class="edge"><title>Node18&#45;&gt;Node11</title>
<path fill="none" stroke="midnightblue" d="M205.774,-184.869C226.542,-173.893 262.627,-154.824 287.011,-141.938"/>
<polygon fill="midnightblue" stroke="midnightblue" points="288.833,-144.934 296.039,-137.167 285.563,-138.745 288.833,-144.934"/>
</g>
<!-- Node18&#45;&gt;Node14 -->
<g id="edge26" class="edge"><title>Node18&#45;&gt;Node14</title>
<path fill="none" stroke="midnightblue" d="M171.835,-184.87C156.923,-176.476 136.557,-162.184 127.44,-143 108.951,-104.094 134.336,-53.9245 150.631,-28.076"/>
<polygon fill="midnightblue" stroke="midnightblue" points="153.556,-29.9978 156.125,-19.7192 147.707,-26.1523 153.556,-29.9978"/>
</g>
<!-- Node19 -->
<g id="node20" class="node"><title>Node19</title>
<g id="a_node20"><a xlink:href="point_8h.html" target="_top" xlink:title="mir/geometry/point.h">
<polygon fill="white" stroke="black" points="136.44,-118 136.44,-137 242.44,-137 242.44,-118 136.44,-118"/>
<text text-anchor="middle" x="189.44" y="-125" font-family="Arial" font-size="10.00">mir/geometry/point.h</text>
</a>
</g>
</g>
<!-- Node18&#45;&gt;Node19 -->
<g id="edge22" class="edge"><title>Node18&#45;&gt;Node19</title>
<path fill="none" stroke="midnightblue" d="M189.44,-184.734C189.44,-175.183 189.44,-159.618 189.44,-147.283"/>
<polygon fill="midnightblue" stroke="midnightblue" points="192.941,-147.127 189.44,-137.127 185.941,-147.127 192.941,-147.127"/>
</g>
<!-- Node19&#45;&gt;Node12 -->
<g id="edge23" class="edge"><title>Node19&#45;&gt;Node12</title>
<path fill="none" stroke="midnightblue" d="M196.891,-117.975C204.768,-108.962 217.385,-94.5246 227.185,-83.3118"/>
<polygon fill="midnightblue" stroke="midnightblue" points="230.059,-85.342 234.004,-75.5091 224.788,-80.7356 230.059,-85.342"/>
</g>
<!-- Node19&#45;&gt;Node14 -->
<g id="edge24" class="edge"><title>Node19&#45;&gt;Node14</title>
<path fill="none" stroke="midnightblue" d="M184.076,-117.96C178.279,-108.226 169.347,-91.633 165.44,-76 161.627,-60.742 161.074,-42.856 161.363,-29.7128"/>
<polygon fill="midnightblue" stroke="midnightblue" points="164.867,-29.702 161.773,-19.5688 157.872,-29.4193 164.867,-29.702"/>
</g>
<!-- Node21&#45;&gt;Node5 -->
<g id="edge29" class="edge"><title>Node21&#45;&gt;Node5</title>
<path fill="none" stroke="midnightblue" d="M559.118,-385.907C564.279,-383.689 569.998,-381.505 575.44,-380 632.083,-364.334 798.816,-388.294 837.44,-344 853.29,-325.824 839.105,-297.621 826.784,-279.613"/>
<polygon fill="midnightblue" stroke="midnightblue" points="829.397,-277.255 820.68,-271.232 823.739,-281.376 829.397,-277.255"/>
</g>
</g>
</svg>
