<?xml version="1.0" encoding="UTF-8" standalone="no"?>
<!DOCTYPE svg PUBLIC "-//W3C//DTD SVG 1.1//EN"
 "http://www.w3.org/Graphics/SVG/1.1/DTD/svg11.dtd">
<!-- Generated by graphviz version 2.43.0 (0)
 -->
<!-- Title: include/core/mir/fatal.h Pages: 1 -->
<svg width="1177pt" height="508pt"
 viewBox="0.00 0.00 1176.50 508.00" xmlns="http://www.w3.org/2000/svg" xmlns:xlink="http://www.w3.org/1999/xlink">
<g id="graph0" class="graph" transform="scale(1 1) rotate(0) translate(4 504)">
<title>include/core/mir/fatal.h</title>
<polygon fill="white" stroke="transparent" points="-4,4 -4,-504 1172.5,-504 1172.5,4 -4,4"/>
<!-- Node1 -->
<g id="node1" class="node">
<title>Node1</title>
<g id="a_node1"><a xlink:title=" ">
<polygon fill="#bfbfbf" stroke="black" points="299.5,-480.5 299.5,-499.5 415.5,-499.5 415.5,-480.5 299.5,-480.5"/>
<text text-anchor="middle" x="357.5" y="-487.5" font-family="Arial" font-size="10.00">include/core/mir/fatal.h</text>
</a>
</g>
</g>
<!-- Node2 -->
<g id="node2" class="node">
<title>Node2</title>
<g id="a_node2"><a xlink:href="wayland__shm_8cpp.html" target="_top" xlink:title=" ">
<polygon fill="white" stroke="black" points="150.5,-413.5 150.5,-443.5 278.5,-443.5 278.5,-413.5 150.5,-413.5"/>
<text text-anchor="start" x="158.5" y="-431.5" font-family="Arial" font-size="10.00">examples/example&#45;server</text>
<text text-anchor="middle" x="214.5" y="-420.5" font-family="Arial" font-size="10.00">&#45;lib/wayland_shm.cpp</text>
</a>
</g>
</g>
<!-- Node1&#45;&gt;Node2 -->
<g id="edge1" class="edge">
<title>Node1&#45;&gt;Node2</title>
<path fill="none" stroke="midnightblue" d="M327.67,-476.59C304.49,-466.94 272.32,-453.56 248.2,-443.52"/>
<polygon fill="midnightblue" stroke="midnightblue" points="326.43,-479.86 337.01,-480.48 329.12,-473.4 326.43,-479.86"/>
</g>
<!-- Node3 -->
<g id="node3" class="node">
<title>Node3</title>
<g id="a_node3"><a xlink:href="optional__value_8h.html" target="_top" xlink:title=" ">
<polygon fill="white" stroke="black" points="296.5,-413.5 296.5,-443.5 418.5,-443.5 418.5,-413.5 296.5,-413.5"/>
<text text-anchor="start" x="304.5" y="-431.5" font-family="Arial" font-size="10.00">include/core/mir/optional</text>
<text text-anchor="middle" x="357.5" y="-420.5" font-family="Arial" font-size="10.00">_value.h</text>
</a>
</g>
</g>
<!-- Node1&#45;&gt;Node3 -->
<g id="edge2" class="edge">
<title>Node1&#45;&gt;Node3</title>
<path fill="none" stroke="midnightblue" d="M357.5,-470.23C357.5,-461.59 357.5,-451.5 357.5,-443.52"/>
<polygon fill="midnightblue" stroke="midnightblue" points="354,-470.48 357.5,-480.48 361,-470.48 354,-470.48"/>
</g>
<!-- Node23 -->
<g id="node23" class="node">
<title>Node23</title>
<g id="a_node23"><a xlink:href="proof__of__mutex__lock_8h.html" target="_top" xlink:title=" ">
<polygon fill="white" stroke="black" points="436.5,-413.5 436.5,-443.5 546.5,-443.5 546.5,-413.5 436.5,-413.5"/>
<text text-anchor="start" x="444.5" y="-431.5" font-family="Arial" font-size="10.00">include/core/mir/proof</text>
<text text-anchor="middle" x="491.5" y="-420.5" font-family="Arial" font-size="10.00">_of_mutex_lock.h</text>
</a>
</g>
</g>
<!-- Node1&#45;&gt;Node23 -->
<g id="edge35" class="edge">
<title>Node1&#45;&gt;Node23</title>
<path fill="none" stroke="midnightblue" d="M386.03,-476.33C407.71,-466.7 437.52,-453.47 459.92,-443.52"/>
<polygon fill="midnightblue" stroke="midnightblue" points="384.42,-473.22 376.7,-480.48 387.26,-479.62 384.42,-473.22"/>
</g>
<!-- Node4 -->
<g id="node4" class="node">
<title>Node4</title>
<g id="a_node4"><a xlink:href="configuration__option_8h.html" target="_top" xlink:title=" ">
<polygon fill="white" stroke="black" points="159,-268.5 159,-298.5 274,-298.5 274,-268.5 159,-268.5"/>
<text text-anchor="start" x="167" y="-286.5" font-family="Arial" font-size="10.00">include/miral/miral</text>
<text text-anchor="middle" x="216.5" y="-275.5" font-family="Arial" font-size="10.00">/configuration_option.h</text>
</a>
</g>
</g>
<!-- Node3&#45;&gt;Node4 -->
<g id="edge3" class="edge">
<title>Node3&#45;&gt;Node4</title>
<path fill="none" stroke="midnightblue" d="M326.82,-407.79C314.31,-399.07 300.1,-388.26 288.5,-377 262.8,-352.05 238.41,-317.69 225.67,-298.64"/>
<polygon fill="midnightblue" stroke="midnightblue" points="324.91,-410.73 335.15,-413.46 328.85,-404.94 324.91,-410.73"/>
</g>
<!-- Node8 -->
<g id="node8" class="node">
<title>Node8</title>
<g id="a_node8"><a xlink:href="runner_8h.html" target="_top" xlink:title=" ">
<polygon fill="white" stroke="black" points="0,-67.5 0,-97.5 95,-97.5 95,-67.5 0,-67.5"/>
<text text-anchor="start" x="8" y="-85.5" font-family="Arial" font-size="10.00">include/miral/miral</text>
<text text-anchor="middle" x="47.5" y="-74.5" font-family="Arial" font-size="10.00">/runner.h</text>
</a>
</g>
</g>
<!-- Node3&#45;&gt;Node8 -->
<g id="edge7" class="edge">
<title>Node3&#45;&gt;Node8</title>
<path fill="none" stroke="midnightblue" d="M307,-410C233.96,-383.13 107.5,-330.02 107.5,-284.5 107.5,-284.5 107.5,-284.5 107.5,-215.5 107.5,-168.93 76.17,-120.73 58.79,-97.58"/>
<polygon fill="midnightblue" stroke="midnightblue" points="305.9,-413.33 316.5,-413.46 308.3,-406.75 305.9,-413.33"/>
</g>
<!-- Node9 -->
<g id="node9" class="node">
<title>Node9</title>
<g id="a_node9"><a xlink:href="window__info_8h.html" target="_top" xlink:title=" ">
<polygon fill="white" stroke="black" points="410,-268.5 410,-298.5 505,-298.5 505,-268.5 410,-268.5"/>
<text text-anchor="start" x="418" y="-286.5" font-family="Arial" font-size="10.00">include/miral/miral</text>
<text text-anchor="middle" x="457.5" y="-275.5" font-family="Arial" font-size="10.00">/window_info.h</text>
</a>
</g>
</g>
<!-- Node3&#45;&gt;Node9 -->
<g id="edge10" class="edge">
<title>Node3&#45;&gt;Node9</title>
<path fill="none" stroke="midnightblue" d="M393.47,-407.93C405.71,-399.75 418.55,-389.28 427.5,-377 445.1,-352.85 452.7,-317.88 455.72,-298.59"/>
<polygon fill="midnightblue" stroke="midnightblue" points="391.3,-405.16 384.72,-413.46 395.04,-411.07 391.3,-405.16"/>
</g>
<!-- Node21 -->
<g id="node21" class="node">
<title>Node21</title>
<g id="a_node21"><a xlink:href="window__specification_8h.html" target="_top" xlink:title=" ">
<polygon fill="white" stroke="black" points="297,-341 297,-371 418,-371 418,-341 297,-341"/>
<text text-anchor="start" x="305" y="-359" font-family="Arial" font-size="10.00">include/miral/miral</text>
<text text-anchor="middle" x="357.5" y="-348" font-family="Arial" font-size="10.00">/window_specification.h</text>
</a>
</g>
</g>
<!-- Node3&#45;&gt;Node21 -->
<g id="edge32" class="edge">
<title>Node3&#45;&gt;Node21</title>
<path fill="none" stroke="midnightblue" d="M357.5,-403.23C357.5,-392.57 357.5,-380.41 357.5,-371.25"/>
<polygon fill="midnightblue" stroke="midnightblue" points="354,-403.23 357.5,-413.23 361,-403.23 354,-403.23"/>
</g>
<!-- Node22 -->
<g id="node22" class="node">
<title>Node22</title>
<g id="a_node22"><a xlink:href="display__configuration__storage_8h.html" target="_top" xlink:title=" ">
<polygon fill="white" stroke="black" points="475,-335.5 475,-376.5 586,-376.5 586,-335.5 475,-335.5"/>
<text text-anchor="start" x="483" y="-364.5" font-family="Arial" font-size="10.00">include/miroil/miroil</text>
<text text-anchor="start" x="483" y="-353.5" font-family="Arial" font-size="10.00">/display_configuration</text>
<text text-anchor="middle" x="530.5" y="-342.5" font-family="Arial" font-size="10.00">_storage.h</text>
</a>
</g>
</g>
<!-- Node3&#45;&gt;Node22 -->
<g id="edge34" class="edge">
<title>Node3&#45;&gt;Node22</title>
<path fill="none" stroke="midnightblue" d="M401.59,-409.53C426.32,-399.45 457.2,-386.87 482.54,-376.55"/>
<polygon fill="midnightblue" stroke="midnightblue" points="400.03,-406.39 392.09,-413.4 402.67,-412.87 400.03,-406.39"/>
</g>
<!-- Node5 -->
<g id="node5" class="node">
<title>Node5</title>
<g id="a_node5"><a xlink:href="command__line__option_8h.html" target="_top" xlink:title=" ">
<polygon fill="white" stroke="black" points="113.5,-67.5 113.5,-97.5 235.5,-97.5 235.5,-67.5 113.5,-67.5"/>
<text text-anchor="start" x="121.5" y="-85.5" font-family="Arial" font-size="10.00">include/miral/miral</text>
<text text-anchor="middle" x="174.5" y="-74.5" font-family="Arial" font-size="10.00">/command_line_option.h</text>
</a>
</g>
</g>
<!-- Node4&#45;&gt;Node5 -->
<g id="edge4" class="edge">
<title>Node4&#45;&gt;Node5</title>
<path fill="none" stroke="midnightblue" d="M211.39,-258.27C202.53,-216.29 184.59,-131.33 177.49,-97.68"/>
<polygon fill="midnightblue" stroke="midnightblue" points="207.99,-259.13 213.48,-268.19 214.84,-257.68 207.99,-259.13"/>
</g>
<!-- Node6 -->
<g id="node6" class="node">
<title>Node6</title>
<g id="a_node6"><a xlink:href="kiosk__main_8cpp.html" target="_top" xlink:title=" ">
<polygon fill="white" stroke="black" points="105,-0.5 105,-30.5 214,-30.5 214,-0.5 105,-0.5"/>
<text text-anchor="start" x="113" y="-18.5" font-family="Arial" font-size="10.00">examples/miral&#45;kiosk</text>
<text text-anchor="middle" x="159.5" y="-7.5" font-family="Arial" font-size="10.00">/kiosk_main.cpp</text>
</a>
</g>
</g>
<!-- Node5&#45;&gt;Node6 -->
<g id="edge5" class="edge">
<title>Node5&#45;&gt;Node6</title>
<path fill="none" stroke="midnightblue" d="M168.94,-57.4C166.85,-48.37 164.56,-38.41 162.75,-30.58"/>
<polygon fill="midnightblue" stroke="midnightblue" points="165.59,-58.44 171.25,-67.4 172.41,-56.87 165.59,-58.44"/>
</g>
<!-- Node7 -->
<g id="node7" class="node">
<title>Node7</title>
<g id="a_node7"><a xlink:href="shell__main_8cpp.html" target="_top" xlink:title=" ">
<polygon fill="white" stroke="black" points="232.5,-0.5 232.5,-30.5 338.5,-30.5 338.5,-0.5 232.5,-0.5"/>
<text text-anchor="start" x="240.5" y="-18.5" font-family="Arial" font-size="10.00">examples/miral&#45;shell</text>
<text text-anchor="middle" x="285.5" y="-7.5" font-family="Arial" font-size="10.00">/shell_main.cpp</text>
</a>
</g>
</g>
<!-- Node5&#45;&gt;Node7 -->
<g id="edge6" class="edge">
<title>Node5&#45;&gt;Node7</title>
<path fill="none" stroke="midnightblue" d="M207.3,-62.3C224.66,-52.12 245.62,-39.85 261.46,-30.58"/>
<polygon fill="midnightblue" stroke="midnightblue" points="205.45,-59.32 198.59,-67.4 208.98,-65.36 205.45,-59.32"/>
</g>
<!-- Node8&#45;&gt;Node6 -->
<g id="edge8" class="edge">
<title>Node8&#45;&gt;Node6</title>
<path fill="none" stroke="midnightblue" d="M80.59,-62.3C98.12,-52.12 119.26,-39.85 135.25,-30.58"/>
<polygon fill="midnightblue" stroke="midnightblue" points="78.69,-59.35 71.8,-67.4 82.21,-65.4 78.69,-59.35"/>
</g>
<!-- Node8&#45;&gt;Node7 -->
<g id="edge9" class="edge">
<title>Node8&#45;&gt;Node7</title>
<path fill="none" stroke="midnightblue" d="M104.8,-65.85C144.11,-55.12 195.83,-40.99 233.87,-30.6"/>
<polygon fill="midnightblue" stroke="midnightblue" points="103.82,-62.49 95.09,-68.5 105.66,-69.24 103.82,-62.49"/>
</g>
<!-- Node10 -->
<g id="node10" class="node">
<title>Node10</title>
<g id="a_node10"><a xlink:href="floating__window__manager_8cpp.html" target="_top" xlink:title=" ">
<polygon fill="white" stroke="black" points="1004.5,-0.5 1004.5,-30.5 1168.5,-30.5 1168.5,-0.5 1004.5,-0.5"/>
<text text-anchor="start" x="1012.5" y="-18.5" font-family="Arial" font-size="10.00">examples/example&#45;server</text>
<text text-anchor="middle" x="1086.5" y="-7.5" font-family="Arial" font-size="10.00">&#45;lib/floating_window_manager.cpp</text>
</a>
</g>
</g>
<!-- Node9&#45;&gt;Node10 -->
<g id="edge11" class="edge">
<title>Node9&#45;&gt;Node10</title>
<path fill="none" stroke="midnightblue" d="M515.57,-278.47C651.56,-267.93 985.56,-235.37 1069.5,-165 1104.21,-135.9 1102.35,-112.04 1097.5,-67 1096.16,-54.51 1092.99,-40.58 1090.4,-30.52"/>
<polygon fill="midnightblue" stroke="midnightblue" points="515.05,-275 505.35,-279.25 515.59,-281.98 515.05,-275"/>
</g>
<!-- Node11 -->
<g id="node11" class="node">
<title>Node11</title>
<g id="a_node11"><a xlink:href="tiling__window__manager_8cpp.html" target="_top" xlink:title=" ">
<polygon fill="white" stroke="black" points="441.5,-67.5 441.5,-97.5 593.5,-97.5 593.5,-67.5 441.5,-67.5"/>
<text text-anchor="start" x="449.5" y="-85.5" font-family="Arial" font-size="10.00">examples/example&#45;server</text>
<text text-anchor="middle" x="517.5" y="-74.5" font-family="Arial" font-size="10.00">&#45;lib/tiling_window_manager.cpp</text>
</a>
</g>
</g>
<!-- Node9&#45;&gt;Node11 -->
<g id="edge12" class="edge">
<title>Node9&#45;&gt;Node11</title>
<path fill="none" stroke="midnightblue" d="M464.73,-258.53C477.35,-216.65 503.06,-131.4 513.22,-97.68"/>
<polygon fill="midnightblue" stroke="midnightblue" points="461.35,-257.6 461.82,-268.19 468.05,-259.62 461.35,-257.6"/>
</g>
<!-- Node12 -->
<g id="node12" class="node">
<title>Node12</title>
<g id="a_node12"><a xlink:href="kiosk__window__manager_8cpp.html" target="_top" xlink:title=" ">
<polygon fill="white" stroke="black" points="357,-0.5 357,-30.5 500,-30.5 500,-0.5 357,-0.5"/>
<text text-anchor="start" x="365" y="-18.5" font-family="Arial" font-size="10.00">examples/miral&#45;kiosk</text>
<text text-anchor="middle" x="428.5" y="-7.5" font-family="Arial" font-size="10.00">/kiosk_window_manager.cpp</text>
</a>
</g>
</g>
<!-- Node9&#45;&gt;Node12 -->
<g id="edge13" class="edge">
<title>Node9&#45;&gt;Node12</title>
<path fill="none" stroke="midnightblue" d="M411.36,-264.21C371.76,-245.74 317.26,-213.04 292.5,-165 286.19,-152.75 284.54,-145.25 292.5,-134 320.27,-94.76 359.57,-131.03 394.5,-98 413.88,-79.67 422.62,-48.61 426.24,-30.59"/>
<polygon fill="midnightblue" stroke="midnightblue" points="410.02,-267.45 420.58,-268.38 412.91,-261.07 410.02,-267.45"/>
</g>
<!-- Node13 -->
<g id="node13" class="node">
<title>Node13</title>
<g id="a_node13"><a xlink:href="window__manager__tools_8h.html" target="_top" xlink:title=" ">
<polygon fill="white" stroke="black" points="631.5,-201.5 631.5,-231.5 761.5,-231.5 761.5,-201.5 631.5,-201.5"/>
<text text-anchor="start" x="639.5" y="-219.5" font-family="Arial" font-size="10.00">include/miral/miral</text>
<text text-anchor="middle" x="696.5" y="-208.5" font-family="Arial" font-size="10.00">/window_manager_tools.h</text>
</a>
</g>
</g>
<!-- Node9&#45;&gt;Node13 -->
<g id="edge14" class="edge">
<title>Node9&#45;&gt;Node13</title>
<path fill="none" stroke="midnightblue" d="M514.79,-266.92C554.39,-256.15 606.64,-241.94 644.95,-231.52"/>
<polygon fill="midnightblue" stroke="midnightblue" points="513.74,-263.58 505,-269.58 515.57,-270.33 513.74,-263.58"/>
</g>
<!-- Node13&#45;&gt;Node10 -->
<g id="edge18" class="edge">
<title>Node13&#45;&gt;Node10</title>
<path fill="none" stroke="midnightblue" d="M771.93,-213.19C861.32,-209 1003.36,-197.32 1044.5,-165 1086.22,-132.23 1088.53,-61.32 1087.43,-30.87"/>
<polygon fill="midnightblue" stroke="midnightblue" points="771.67,-209.7 761.83,-213.64 771.98,-216.69 771.67,-209.7"/>
</g>
<!-- Node13&#45;&gt;Node11 -->
<g id="edge19" class="edge">
<title>Node13&#45;&gt;Node11</title>
<path fill="none" stroke="midnightblue" d="M621.03,-207.91C590.91,-201.15 558.28,-188.52 536.5,-165 519.32,-146.45 516.72,-115.47 516.81,-97.52"/>
<polygon fill="midnightblue" stroke="midnightblue" points="620.63,-211.4 631.13,-209.98 622.04,-204.54 620.63,-211.4"/>
</g>
<!-- Node13&#45;&gt;Node12 -->
<g id="edge23" class="edge">
<title>Node13&#45;&gt;Node12</title>
<path fill="none" stroke="midnightblue" d="M771.45,-211.27C803.64,-205.27 838.41,-192.31 858.5,-165 868.7,-151.14 875.47,-87.71 856.5,-67 832.9,-41.24 615.97,-26.19 500.33,-19.93"/>
<polygon fill="midnightblue" stroke="midnightblue" points="770.85,-207.82 761.56,-212.91 772,-214.72 770.85,-207.82"/>
</g>
<!-- Node14 -->
<g id="node14" class="node">
<title>Node14</title>
<g id="a_node14"><a xlink:href="decoration__provider_8h.html" target="_top" xlink:title=" ">
<polygon fill="white" stroke="black" points="907.5,-134.5 907.5,-164.5 1035.5,-164.5 1035.5,-134.5 907.5,-134.5"/>
<text text-anchor="start" x="915.5" y="-152.5" font-family="Arial" font-size="10.00">examples/example&#45;server</text>
<text text-anchor="middle" x="971.5" y="-141.5" font-family="Arial" font-size="10.00">&#45;lib/decoration_provider.h</text>
</a>
</g>
</g>
<!-- Node13&#45;&gt;Node14 -->
<g id="edge15" class="edge">
<title>Node13&#45;&gt;Node14</title>
<path fill="none" stroke="midnightblue" d="M765.81,-199.12C810.8,-188.48 868.85,-174.76 911.8,-164.61"/>
<polygon fill="midnightblue" stroke="midnightblue" points="764.76,-195.77 755.83,-201.48 766.37,-202.58 764.76,-195.77"/>
</g>
<!-- Node16 -->
<g id="node16" class="node">
<title>Node16</title>
<g id="a_node16"><a xlink:href="tiling__window__manager_8h.html" target="_top" xlink:title=" ">
<polygon fill="white" stroke="black" points="545.5,-134.5 545.5,-164.5 687.5,-164.5 687.5,-134.5 545.5,-134.5"/>
<text text-anchor="start" x="553.5" y="-152.5" font-family="Arial" font-size="10.00">examples/example&#45;server</text>
<text text-anchor="middle" x="616.5" y="-141.5" font-family="Arial" font-size="10.00">&#45;lib/tiling_window_manager.h</text>
</a>
</g>
</g>
<!-- Node13&#45;&gt;Node16 -->
<g id="edge20" class="edge">
<title>Node13&#45;&gt;Node16</title>
<path fill="none" stroke="midnightblue" d="M671.13,-194.88C658.97,-185.01 644.72,-173.43 633.82,-164.58"/>
<polygon fill="midnightblue" stroke="midnightblue" points="669.17,-197.81 679.14,-201.4 673.59,-192.37 669.17,-197.81"/>
</g>
<!-- Node17 -->
<g id="node17" class="node">
<title>Node17</title>
<g id="a_node17"><a xlink:href="canonical__window__manager_8h.html" target="_top" xlink:title=" ">
<polygon fill="white" stroke="black" points="301.5,-134.5 301.5,-164.5 451.5,-164.5 451.5,-134.5 301.5,-134.5"/>
<text text-anchor="start" x="309.5" y="-152.5" font-family="Arial" font-size="10.00">include/miral/miral</text>
<text text-anchor="middle" x="376.5" y="-141.5" font-family="Arial" font-size="10.00">/canonical_window_manager.h</text>
</a>
</g>
</g>
<!-- Node13&#45;&gt;Node17 -->
<g id="edge24" class="edge">
<title>Node13&#45;&gt;Node17</title>
<path fill="none" stroke="midnightblue" d="M621.29,-200.22C568.05,-189.41 497.2,-175.02 445.42,-164.5"/>
<polygon fill="midnightblue" stroke="midnightblue" points="620.86,-203.71 631.36,-202.27 622.25,-196.85 620.86,-203.71"/>
</g>
<!-- Node19 -->
<g id="node19" class="node">
<title>Node19</title>
<g id="a_node19"><a xlink:href="minimal__window__manager_8h.html" target="_top" xlink:title=" ">
<polygon fill="white" stroke="black" points="706,-134.5 706,-164.5 849,-164.5 849,-134.5 706,-134.5"/>
<text text-anchor="start" x="714" y="-152.5" font-family="Arial" font-size="10.00">include/miral/miral</text>
<text text-anchor="middle" x="777.5" y="-141.5" font-family="Arial" font-size="10.00">/minimal_window_manager.h</text>
</a>
</g>
</g>
<!-- Node13&#45;&gt;Node19 -->
<g id="edge28" class="edge">
<title>Node13&#45;&gt;Node19</title>
<path fill="none" stroke="midnightblue" d="M722.19,-194.88C734.5,-185.01 748.93,-173.43 759.96,-164.58"/>
<polygon fill="midnightblue" stroke="midnightblue" points="719.68,-192.41 714.08,-201.4 724.07,-197.87 719.68,-192.41"/>
</g>
<!-- Node14&#45;&gt;Node10 -->
<g id="edge17" class="edge">
<title>Node14&#45;&gt;Node10</title>
<path fill="none" stroke="midnightblue" d="M1009.45,-129.38C1023.05,-121.13 1037.69,-110.5 1048.5,-98 1066.07,-77.69 1077.18,-47.88 1082.59,-30.51"/>
<polygon fill="midnightblue" stroke="midnightblue" points="1007.6,-126.4 1000.71,-134.44 1011.11,-132.46 1007.6,-126.4"/>
</g>
<!-- Node15 -->
<g id="node15" class="node">
<title>Node15</title>
<g id="a_node15"><a xlink:href="decoration__provider_8cpp.html" target="_top" xlink:title=" ">
<polygon fill="white" stroke="black" points="903.5,-67.5 903.5,-97.5 1039.5,-97.5 1039.5,-67.5 903.5,-67.5"/>
<text text-anchor="start" x="911.5" y="-85.5" font-family="Arial" font-size="10.00">examples/example&#45;server</text>
<text text-anchor="middle" x="971.5" y="-74.5" font-family="Arial" font-size="10.00">&#45;lib/decoration_provider.cpp</text>
</a>
</g>
</g>
<!-- Node14&#45;&gt;Node15 -->
<g id="edge16" class="edge">
<title>Node14&#45;&gt;Node15</title>
<path fill="none" stroke="midnightblue" d="M971.5,-124.11C971.5,-115.15 971.5,-105.32 971.5,-97.58"/>
<polygon fill="midnightblue" stroke="midnightblue" points="968,-124.4 971.5,-134.4 975,-124.4 968,-124.4"/>
</g>
<!-- Node16&#45;&gt;Node7 -->
<g id="edge22" class="edge">
<title>Node16&#45;&gt;Node7</title>
<path fill="none" stroke="midnightblue" d="M619.3,-124.23C619.96,-105.93 617.5,-81.56 602.5,-67 561.6,-27.28 404.55,-41.4 348.5,-31 345.3,-30.41 342.02,-29.76 338.71,-29.08"/>
<polygon fill="midnightblue" stroke="midnightblue" points="615.79,-124.22 618.6,-134.44 622.78,-124.71 615.79,-124.22"/>
</g>
<!-- Node16&#45;&gt;Node11 -->
<g id="edge21" class="edge">
<title>Node16&#45;&gt;Node11</title>
<path fill="none" stroke="midnightblue" d="M586.39,-128.73C571.08,-118.68 552.81,-106.68 538.94,-97.58"/>
<polygon fill="midnightblue" stroke="midnightblue" points="584.74,-131.83 595.02,-134.4 588.58,-125.98 584.74,-131.83"/>
</g>
<!-- Node18 -->
<g id="node18" class="node">
<title>Node18</title>
<g id="a_node18"><a xlink:href="kiosk__window__manager_8h.html" target="_top" xlink:title=" ">
<polygon fill="white" stroke="black" points="253.5,-67.5 253.5,-97.5 385.5,-97.5 385.5,-67.5 253.5,-67.5"/>
<text text-anchor="start" x="261.5" y="-85.5" font-family="Arial" font-size="10.00">examples/miral&#45;kiosk</text>
<text text-anchor="middle" x="319.5" y="-74.5" font-family="Arial" font-size="10.00">/kiosk_window_manager.h</text>
</a>
</g>
</g>
<!-- Node17&#45;&gt;Node18 -->
<g id="edge25" class="edge">
<title>Node17&#45;&gt;Node18</title>
<path fill="none" stroke="midnightblue" d="M357.41,-126.74C348.98,-117.12 339.31,-106.09 331.84,-97.58"/>
<polygon fill="midnightblue" stroke="midnightblue" points="354.91,-129.18 364.13,-134.4 360.17,-124.57 354.91,-129.18"/>
</g>
<!-- Node18&#45;&gt;Node6 -->
<g id="edge26" class="edge">
<title>Node18&#45;&gt;Node6</title>
<path fill="none" stroke="midnightblue" d="M275.3,-63.54C249.7,-53.14 217.93,-40.24 194.15,-30.58"/>
<polygon fill="midnightblue" stroke="midnightblue" points="274.2,-66.87 284.78,-67.4 276.84,-60.39 274.2,-66.87"/>
</g>
<!-- Node18&#45;&gt;Node12 -->
<g id="edge27" class="edge">
<title>Node18&#45;&gt;Node12</title>
<path fill="none" stroke="midnightblue" d="M352.17,-62.02C369.14,-51.9 389.48,-39.77 404.89,-30.58"/>
<polygon fill="midnightblue" stroke="midnightblue" points="349.95,-59.27 343.15,-67.4 353.53,-65.28 349.95,-59.27"/>
</g>
<!-- Node20 -->
<g id="node20" class="node">
<title>Node20</title>
<g id="a_node20"><a xlink:href="floating__window__manager_8h.html" target="_top" xlink:title=" ">
<polygon fill="white" stroke="black" points="694,-67.5 694,-97.5 847,-97.5 847,-67.5 694,-67.5"/>
<text text-anchor="start" x="702" y="-85.5" font-family="Arial" font-size="10.00">examples/example&#45;server</text>
<text text-anchor="middle" x="770.5" y="-74.5" font-family="Arial" font-size="10.00">&#45;lib/floating_window_manager.h</text>
</a>
</g>
</g>
<!-- Node19&#45;&gt;Node20 -->
<g id="edge29" class="edge">
<title>Node19&#45;&gt;Node20</title>
<path fill="none" stroke="midnightblue" d="M774.9,-124.4C773.93,-115.37 772.86,-105.41 772.02,-97.58"/>
<polygon fill="midnightblue" stroke="midnightblue" points="771.43,-124.83 775.98,-134.4 778.39,-124.08 771.43,-124.83"/>
</g>
<!-- Node20&#45;&gt;Node7 -->
<g id="edge31" class="edge">
<title>Node20&#45;&gt;Node7</title>
<path fill="none" stroke="midnightblue" d="M683.8,-72.23C579.59,-60.9 410.93,-41.89 348.5,-31 345.29,-30.44 342.01,-29.82 338.69,-29.16"/>
<polygon fill="midnightblue" stroke="midnightblue" points="683.67,-75.74 693.99,-73.34 684.43,-68.78 683.67,-75.74"/>
</g>
<!-- Node20&#45;&gt;Node10 -->
<g id="edge30" class="edge">
<title>Node20&#45;&gt;Node10</title>
<path fill="none" stroke="midnightblue" d="M848.53,-65.45C900.55,-54.75 968.28,-40.82 1018.17,-30.55"/>
<polygon fill="midnightblue" stroke="midnightblue" points="847.77,-62.03 838.68,-67.48 849.18,-68.89 847.77,-62.03"/>
</g>
<!-- Node21&#45;&gt;Node9 -->
<g id="edge33" class="edge">
<title>Node21&#45;&gt;Node9</title>
<path fill="none" stroke="midnightblue" d="M385.97,-334.93C402.48,-323.29 422.86,-308.92 437.63,-298.5"/>
<polygon fill="midnightblue" stroke="midnightblue" points="383.89,-332.11 377.74,-340.73 387.93,-337.83 383.89,-332.11"/>
</g>
</g>
</svg>
