<?xml version="1.0" encoding="UTF-8" standalone="no"?>
<!DOCTYPE svg PUBLIC "-//W3C//DTD SVG 1.1//EN"
 "http://www.w3.org/Graphics/SVG/1.1/DTD/svg11.dtd">
<!-- Generated by graphviz version 2.38.0 (20140413.2041)
 -->
<!-- Title: include/core/mir/fatal.h Pages: 1 -->
<svg width="1016pt" height="497pt"
 viewBox="0.00 0.00 1016.00 497.00" xmlns="http://www.w3.org/2000/svg" xmlns:xlink="http://www.w3.org/1999/xlink">
<g id="graph0" class="graph" transform="scale(1 1) rotate(0) translate(4 493)">
<title>include/core/mir/fatal.h</title>
<polygon fill="white" stroke="none" points="-4,4 -4,-493 1012,-493 1012,4 -4,4"/>
<!-- Node1 -->
<g id="node1" class="node"><title>Node1</title>
<polygon fill="#bfbfbf" stroke="black" points="453,-469.5 453,-488.5 569,-488.5 569,-469.5 453,-469.5"/>
<text text-anchor="middle" x="511" y="-476.5" font-family="Arial" font-size="10.00">include/core/mir/fatal.h</text>
</g>
<!-- Node2 -->
<g id="node2" class="node"><title>Node2</title>
<g id="a_node2"><a xlink:href="optional__value_8h.html" target="_top" xlink:title="include/core/mir/optional\l_value.h">
<polygon fill="white" stroke="black" points="450,-402.5 450,-432.5 572,-432.5 572,-402.5 450,-402.5"/>
<text text-anchor="start" x="458" y="-420.5" font-family="Arial" font-size="10.00">include/core/mir/optional</text>
<text text-anchor="middle" x="511" y="-409.5" font-family="Arial" font-size="10.00">_value.h</text>
</a>
</g>
</g>
<!-- Node1&#45;&gt;Node2 -->
<g id="edge1" class="edge"><title>Node1&#45;&gt;Node2</title>
<path fill="none" stroke="midnightblue" d="M511,-459.235C511,-450.586 511,-440.497 511,-432.523"/>
<polygon fill="midnightblue" stroke="midnightblue" points="507.5,-459.475 511,-469.475 514.5,-459.475 507.5,-459.475"/>
</g>
<!-- Node3 -->
<g id="node3" class="node"><title>Node3</title>
<g id="a_node3"><a xlink:href="command__line__option_8h.html" target="_top" xlink:title="include/miral/miral\l/command_line_option.h">
<polygon fill="white" stroke="black" points="0,-67.5 0,-97.5 122,-97.5 122,-67.5 0,-67.5"/>
<text text-anchor="start" x="8" y="-85.5" font-family="Arial" font-size="10.00">include/miral/miral</text>
<text text-anchor="middle" x="61" y="-74.5" font-family="Arial" font-size="10.00">/command_line_option.h</text>
</a>
</g>
</g>
<!-- Node2&#45;&gt;Node3 -->
<g id="edge2" class="edge"><title>Node2&#45;&gt;Node3</title>
<path fill="none" stroke="midnightblue" d="M439.966,-407.335C327.239,-390.78 120,-351.265 120,-284.5 120,-284.5 120,-284.5 120,-215.5 120,-169.062 89.1883,-120.807 72.0974,-97.6122"/>
<polygon fill="midnightblue" stroke="midnightblue" points="439.508,-410.805 449.906,-408.771 440.51,-403.877 439.508,-410.805"/>
</g>
<!-- Node6 -->
<g id="node6" class="node"><title>Node6</title>
<g id="a_node6"><a xlink:href="window__info_8h.html" target="_top" xlink:title="include/miral/miral\l/window_info.h">
<polygon fill="white" stroke="black" points="551.5,-268.5 551.5,-298.5 646.5,-298.5 646.5,-268.5 551.5,-268.5"/>
<text text-anchor="start" x="559.5" y="-286.5" font-family="Arial" font-size="10.00">include/miral/miral</text>
<text text-anchor="middle" x="599" y="-275.5" font-family="Arial" font-size="10.00">/window_info.h</text>
</a>
</g>
</g>
<!-- Node2&#45;&gt;Node6 -->
<g id="edge5" class="edge"><title>Node2&#45;&gt;Node6</title>
<path fill="none" stroke="midnightblue" d="M546.707,-396.885C558.565,-388.756 570.816,-378.321 579,-366 592.785,-345.248 597.078,-315.855 598.409,-298.625"/>
<polygon fill="midnightblue" stroke="midnightblue" points="544.697,-394.017 538.205,-402.39 548.502,-399.892 544.697,-394.017"/>
</g>
<!-- Node17 -->
<g id="node17" class="node"><title>Node17</title>
<g id="a_node17"><a xlink:href="window__specification_8h.html" target="_top" xlink:title="include/miral/miral\l/window_specification.h">
<polygon fill="white" stroke="black" points="451.5,-335.5 451.5,-365.5 570.5,-365.5 570.5,-335.5 451.5,-335.5"/>
<text text-anchor="start" x="459.5" y="-353.5" font-family="Arial" font-size="10.00">include/miral/miral</text>
<text text-anchor="middle" x="511" y="-342.5" font-family="Arial" font-size="10.00">/window_specification.h</text>
</a>
</g>
</g>
<!-- Node2&#45;&gt;Node17 -->
<g id="edge26" class="edge"><title>Node2&#45;&gt;Node17</title>
<path fill="none" stroke="midnightblue" d="M511,-392.108C511,-383.154 511,-373.323 511,-365.577"/>
<polygon fill="midnightblue" stroke="midnightblue" points="507.5,-392.396 511,-402.396 514.5,-392.396 507.5,-392.396"/>
</g>
<!-- Node4 -->
<g id="node4" class="node"><title>Node4</title>
<g id="a_node4"><a xlink:href="kiosk__main_8cpp.html" target="_top" xlink:title="examples/miral&#45;kiosk\l/kiosk_main.cpp">
<polygon fill="white" stroke="black" points="73.5,-0.5 73.5,-30.5 182.5,-30.5 182.5,-0.5 73.5,-0.5"/>
<text text-anchor="start" x="81.5" y="-18.5" font-family="Arial" font-size="10.00">examples/miral&#45;kiosk</text>
<text text-anchor="middle" x="128" y="-7.5" font-family="Arial" font-size="10.00">/kiosk_main.cpp</text>
</a>
</g>
</g>
<!-- Node3&#45;&gt;Node4 -->
<g id="edge3" class="edge"><title>Node3&#45;&gt;Node4</title>
<path fill="none" stroke="midnightblue" d="M82.8405,-60.3115C92.8908,-50.5612 104.541,-39.259 113.49,-30.5765"/>
<polygon fill="midnightblue" stroke="midnightblue" points="80.2783,-57.9207 75.538,-67.396 85.1525,-62.9449 80.2783,-57.9207"/>
</g>
<!-- Node5 -->
<g id="node5" class="node"><title>Node5</title>
<g id="a_node5"><a xlink:href="shell__main_8cpp.html" target="_top" xlink:title="examples/miral&#45;shell\l/shell_main.cpp">
<polygon fill="white" stroke="black" points="267,-0.5 267,-30.5 373,-30.5 373,-0.5 267,-0.5"/>
<text text-anchor="start" x="275" y="-18.5" font-family="Arial" font-size="10.00">examples/miral&#45;shell</text>
<text text-anchor="middle" x="320" y="-7.5" font-family="Arial" font-size="10.00">/shell_main.cpp</text>
</a>
</g>
</g>
<!-- Node3&#45;&gt;Node5 -->
<g id="edge4" class="edge"><title>Node3&#45;&gt;Node5</title>
<path fill="none" stroke="midnightblue" d="M126.778,-64.992C170.182,-54.099 226.307,-40.0137 266.874,-29.8328"/>
<polygon fill="midnightblue" stroke="midnightblue" points="125.728,-61.647 116.88,-67.476 127.431,-68.4365 125.728,-61.647"/>
</g>
<!-- Node7 -->
<g id="node7" class="node"><title>Node7</title>
<g id="a_node7"><a xlink:href="kiosk__window__manager_8cpp.html" target="_top" xlink:title="examples/miral&#45;kiosk\l/kiosk_window_manager.cpp">
<polygon fill="white" stroke="black" points="607.5,-0.5 607.5,-30.5 748.5,-30.5 748.5,-0.5 607.5,-0.5"/>
<text text-anchor="start" x="615.5" y="-18.5" font-family="Arial" font-size="10.00">examples/miral&#45;kiosk</text>
<text text-anchor="middle" x="678" y="-7.5" font-family="Arial" font-size="10.00">/kiosk_window_manager.cpp</text>
</a>
</g>
</g>
<!-- Node6&#45;&gt;Node7 -->
<g id="edge6" class="edge"><title>Node6&#45;&gt;Node7</title>
<path fill="none" stroke="midnightblue" d="M639.163,-262.998C651.554,-255.055 664.023,-244.709 672,-232 711.301,-169.388 703.635,-140.156 693,-67 691.184,-54.5099 686.967,-40.811 683.466,-30.836"/>
<polygon fill="midnightblue" stroke="midnightblue" points="637,-260.215 630.221,-268.357 640.598,-266.219 637,-260.215"/>
</g>
<!-- Node8 -->
<g id="node8" class="node"><title>Node8</title>
<g id="a_node8"><a xlink:href="floating__window__manager_8cpp.html" target="_top" xlink:title="examples/example&#45;server\l&#45;lib/floating_window_manager.cpp">
<polygon fill="white" stroke="black" points="846,-0.5 846,-30.5 1008,-30.5 1008,-0.5 846,-0.5"/>
<text text-anchor="start" x="854" y="-18.5" font-family="Arial" font-size="10.00">examples/example&#45;server</text>
<text text-anchor="middle" x="927" y="-7.5" font-family="Arial" font-size="10.00">&#45;lib/floating_window_manager.cpp</text>
</a>
</g>
</g>
<!-- Node6&#45;&gt;Node8 -->
<g id="edge7" class="edge"><title>Node6&#45;&gt;Node8</title>
<path fill="none" stroke="midnightblue" d="M656.975,-274.765C725.811,-262.729 840.184,-233.334 911,-165 943.597,-133.546 944.272,-111.991 939,-67 937.553,-54.6487 934.179,-40.9389 931.376,-30.9244"/>
<polygon fill="midnightblue" stroke="midnightblue" points="656.027,-271.375 646.746,-276.485 657.188,-278.278 656.027,-271.375"/>
</g>
<!-- Node9 -->
<g id="node9" class="node"><title>Node9</title>
<g id="a_node9"><a xlink:href="tiling__window__manager_8cpp.html" target="_top" xlink:title="examples/example&#45;server\l&#45;lib/tiling_window_manager.cpp">
<polygon fill="white" stroke="black" points="140.5,-67.5 140.5,-97.5 291.5,-97.5 291.5,-67.5 140.5,-67.5"/>
<text text-anchor="start" x="148.5" y="-85.5" font-family="Arial" font-size="10.00">examples/example&#45;server</text>
<text text-anchor="middle" x="216" y="-74.5" font-family="Arial" font-size="10.00">&#45;lib/tiling_window_manager.cpp</text>
</a>
</g>
</g>
<!-- Node6&#45;&gt;Node9 -->
<g id="edge8" class="edge"><title>Node6&#45;&gt;Node9</title>
<path fill="none" stroke="midnightblue" d="M541.05,-279.877C461.689,-273.115 319.846,-249.182 239,-165 221.281,-146.549 217.023,-115.529 216.114,-97.5497"/>
<polygon fill="midnightblue" stroke="midnightblue" points="541.106,-283.392 551.35,-280.688 541.656,-276.414 541.106,-283.392"/>
</g>
<!-- Node10 -->
<g id="node10" class="node"><title>Node10</title>
<g id="a_node10"><a xlink:href="window__manager__tools_8h.html" target="_top" xlink:title="include/miral/miral\l/window_manager_tools.h">
<polygon fill="white" stroke="black" points="535,-201.5 535,-231.5 663,-231.5 663,-201.5 535,-201.5"/>
<text text-anchor="start" x="543" y="-219.5" font-family="Arial" font-size="10.00">include/miral/miral</text>
<text text-anchor="middle" x="599" y="-208.5" font-family="Arial" font-size="10.00">/window_manager_tools.h</text>
</a>
</g>
</g>
<!-- Node6&#45;&gt;Node10 -->
<g id="edge9" class="edge"><title>Node6&#45;&gt;Node10</title>
<path fill="none" stroke="midnightblue" d="M599,-258.108C599,-249.154 599,-239.323 599,-231.577"/>
<polygon fill="midnightblue" stroke="midnightblue" points="595.5,-258.396 599,-268.396 602.5,-258.396 595.5,-258.396"/>
</g>
<!-- Node10&#45;&gt;Node7 -->
<g id="edge10" class="edge"><title>Node10&#45;&gt;Node7</title>
<path fill="none" stroke="midnightblue" d="M630.202,-195.22C640.342,-187.049 650.615,-176.758 657,-165 681.104,-120.609 680.735,-58.2175 679.143,-30.6004"/>
<polygon fill="midnightblue" stroke="midnightblue" points="628.03,-192.474 622.176,-201.305 632.259,-198.052 628.03,-192.474"/>
</g>
<!-- Node10&#45;&gt;Node8 -->
<g id="edge14" class="edge"><title>Node10&#45;&gt;Node8</title>
<path fill="none" stroke="midnightblue" d="M673.296,-210.41C746.89,-203.982 853.087,-190.536 885,-165 926.421,-131.855 928.893,-61.1479 927.888,-30.8098"/>
<polygon fill="midnightblue" stroke="midnightblue" points="672.807,-206.939 663.139,-211.271 673.399,-213.914 672.807,-206.939"/>
</g>
<!-- Node10&#45;&gt;Node9 -->
<g id="edge18" class="edge"><title>Node10&#45;&gt;Node9</title>
<path fill="none" stroke="midnightblue" d="M524.74,-210.744C441.825,-204.274 313.891,-190.471 273,-165 247.206,-148.933 229.937,-116.437 221.663,-97.6954"/>
<polygon fill="midnightblue" stroke="midnightblue" points="524.633,-214.246 534.87,-211.516 525.165,-207.267 524.633,-214.246"/>
</g>
<!-- Node11 -->
<g id="node11" class="node"><title>Node11</title>
<g id="a_node11"><a xlink:href="decoration__provider_8h.html" target="_top" xlink:title="examples/example&#45;server\l&#45;lib/decoration_provider.h">
<polygon fill="white" stroke="black" points="748,-134.5 748,-164.5 876,-164.5 876,-134.5 748,-134.5"/>
<text text-anchor="start" x="756" y="-152.5" font-family="Arial" font-size="10.00">examples/example&#45;server</text>
<text text-anchor="middle" x="812" y="-141.5" font-family="Arial" font-size="10.00">&#45;lib/decoration_provider.h</text>
</a>
</g>
</g>
<!-- Node10&#45;&gt;Node11 -->
<g id="edge11" class="edge"><title>Node10&#45;&gt;Node11</title>
<path fill="none" stroke="midnightblue" d="M654.89,-198.444C689.418,-187.908 733.192,-174.549 765.76,-164.611"/>
<polygon fill="midnightblue" stroke="midnightblue" points="653.499,-195.21 644.956,-201.476 655.542,-201.905 653.499,-195.21"/>
</g>
<!-- Node13 -->
<g id="node13" class="node"><title>Node13</title>
<g id="a_node13"><a xlink:href="tiling__window__manager_8h.html" target="_top" xlink:title="examples/example&#45;server\l&#45;lib/tiling_window_manager.h">
<polygon fill="white" stroke="black" points="282,-134.5 282,-164.5 422,-164.5 422,-134.5 282,-134.5"/>
<text text-anchor="start" x="290" y="-152.5" font-family="Arial" font-size="10.00">examples/example&#45;server</text>
<text text-anchor="middle" x="352" y="-141.5" font-family="Arial" font-size="10.00">&#45;lib/tiling_window_manager.h</text>
</a>
</g>
</g>
<!-- Node10&#45;&gt;Node13 -->
<g id="edge15" class="edge"><title>Node10&#45;&gt;Node13</title>
<path fill="none" stroke="midnightblue" d="M535.985,-198.917C495.677,-188.31 443.955,-174.699 405.621,-164.611"/>
<polygon fill="midnightblue" stroke="midnightblue" points="535.147,-202.316 545.709,-201.476 536.929,-195.546 535.147,-202.316"/>
</g>
<!-- Node14 -->
<g id="node14" class="node"><title>Node14</title>
<g id="a_node14"><a xlink:href="canonical__window__manager_8h.html" target="_top" xlink:title="include/miral/miral\l/canonical_window_manager.h">
<polygon fill="white" stroke="black" points="499.5,-134.5 499.5,-164.5 648.5,-164.5 648.5,-134.5 499.5,-134.5"/>
<text text-anchor="start" x="507.5" y="-152.5" font-family="Arial" font-size="10.00">include/miral/miral</text>
<text text-anchor="middle" x="574" y="-141.5" font-family="Arial" font-size="10.00">/canonical_window_manager.h</text>
</a>
</g>
</g>
<!-- Node10&#45;&gt;Node14 -->
<g id="edge19" class="edge"><title>Node10&#45;&gt;Node14</title>
<path fill="none" stroke="midnightblue" d="M589.958,-191.991C586.425,-182.804 582.492,-172.578 579.414,-164.577"/>
<polygon fill="midnightblue" stroke="midnightblue" points="586.719,-193.319 593.575,-201.396 593.252,-190.806 586.719,-193.319"/>
</g>
<!-- Node11&#45;&gt;Node8 -->
<g id="edge13" class="edge"><title>Node11&#45;&gt;Node8</title>
<path fill="none" stroke="midnightblue" d="M849.948,-129.376C863.555,-121.133 878.188,-110.495 889,-98 906.57,-77.6943 917.684,-47.884 923.086,-30.5072"/>
<polygon fill="midnightblue" stroke="midnightblue" points="848.103,-126.4 841.206,-134.442 851.613,-132.456 848.103,-126.4"/>
</g>
<!-- Node12 -->
<g id="node12" class="node"><title>Node12</title>
<g id="a_node12"><a xlink:href="decoration__provider_8cpp.html" target="_top" xlink:title="examples/example&#45;server\l&#45;lib/decoration_provider.cpp">
<polygon fill="white" stroke="black" points="744,-67.5 744,-97.5 880,-97.5 880,-67.5 744,-67.5"/>
<text text-anchor="start" x="752" y="-85.5" font-family="Arial" font-size="10.00">examples/example&#45;server</text>
<text text-anchor="middle" x="812" y="-74.5" font-family="Arial" font-size="10.00">&#45;lib/decoration_provider.cpp</text>
</a>
</g>
</g>
<!-- Node11&#45;&gt;Node12 -->
<g id="edge12" class="edge"><title>Node11&#45;&gt;Node12</title>
<path fill="none" stroke="midnightblue" d="M812,-124.108C812,-115.154 812,-105.323 812,-97.5765"/>
<polygon fill="midnightblue" stroke="midnightblue" points="808.5,-124.396 812,-134.396 815.5,-124.396 808.5,-124.396"/>
</g>
<!-- Node13&#45;&gt;Node5 -->
<g id="edge16" class="edge"><title>Node13&#45;&gt;Node5</title>
<path fill="none" stroke="midnightblue" d="M345.7,-124.494C343.535,-116.121 341.123,-106.655 339,-98 333.221,-74.4353 326.896,-46.9327 323.197,-30.6579"/>
<polygon fill="midnightblue" stroke="midnightblue" points="342.365,-125.576 348.271,-134.373 349.14,-123.814 342.365,-125.576"/>
</g>
<!-- Node13&#45;&gt;Node9 -->
<g id="edge17" class="edge"><title>Node13&#45;&gt;Node9</title>
<path fill="none" stroke="midnightblue" d="M313.276,-129.992C291.719,-119.689 265.311,-107.068 245.452,-97.5765"/>
<polygon fill="midnightblue" stroke="midnightblue" points="311.958,-133.242 322.49,-134.396 314.977,-126.926 311.958,-133.242"/>
</g>
<!-- Node15 -->
<g id="node15" class="node"><title>Node15</title>
<g id="a_node15"><a xlink:href="kiosk__window__manager_8h.html" target="_top" xlink:title="examples/miral&#45;kiosk\l/kiosk_window_manager.h">
<polygon fill="white" stroke="black" points="348.5,-67.5 348.5,-97.5 479.5,-97.5 479.5,-67.5 348.5,-67.5"/>
<text text-anchor="start" x="356.5" y="-85.5" font-family="Arial" font-size="10.00">examples/miral&#45;kiosk</text>
<text text-anchor="middle" x="414" y="-74.5" font-family="Arial" font-size="10.00">/kiosk_window_manager.h</text>
</a>
</g>
</g>
<!-- Node14&#45;&gt;Node15 -->
<g id="edge20" class="edge"><title>Node14&#45;&gt;Node15</title>
<path fill="none" stroke="midnightblue" d="M529.801,-130.544C504.198,-120.143 472.432,-107.238 448.65,-97.5765"/>
<polygon fill="midnightblue" stroke="midnightblue" points="528.7,-133.875 539.282,-134.396 531.335,-127.39 528.7,-133.875"/>
</g>
<!-- Node16 -->
<g id="node16" class="node"><title>Node16</title>
<g id="a_node16"><a xlink:href="floating__window__manager_8h.html" target="_top" xlink:title="examples/example&#45;server\l&#45;lib/floating_window_manager.h">
<polygon fill="white" stroke="black" points="498,-67.5 498,-97.5 650,-97.5 650,-67.5 498,-67.5"/>
<text text-anchor="start" x="506" y="-85.5" font-family="Arial" font-size="10.00">examples/example&#45;server</text>
<text text-anchor="middle" x="574" y="-74.5" font-family="Arial" font-size="10.00">&#45;lib/floating_window_manager.h</text>
</a>
</g>
</g>
<!-- Node14&#45;&gt;Node16 -->
<g id="edge23" class="edge"><title>Node14&#45;&gt;Node16</title>
<path fill="none" stroke="midnightblue" d="M574,-124.108C574,-115.154 574,-105.323 574,-97.5765"/>
<polygon fill="midnightblue" stroke="midnightblue" points="570.5,-124.396 574,-134.396 577.5,-124.396 570.5,-124.396"/>
</g>
<!-- Node15&#45;&gt;Node4 -->
<g id="edge21" class="edge"><title>Node15&#45;&gt;Node4</title>
<path fill="none" stroke="midnightblue" d="M342.306,-65.206C292.873,-53.9711 228.161,-39.2639 182.832,-28.9619"/>
<polygon fill="midnightblue" stroke="midnightblue" points="341.767,-68.6727 352.294,-67.476 343.319,-61.8467 341.767,-68.6727"/>
</g>
<!-- Node15&#45;&gt;Node7 -->
<g id="edge22" class="edge"><title>Node15&#45;&gt;Node7</title>
<path fill="none" stroke="midnightblue" d="M480.806,-65.0515C523.966,-54.425 579.542,-40.7414 620.688,-30.6109"/>
<polygon fill="midnightblue" stroke="midnightblue" points="479.832,-61.6867 470.959,-67.476 481.506,-68.4837 479.832,-61.6867"/>
</g>
<!-- Node16&#45;&gt;Node5 -->
<g id="edge24" class="edge"><title>Node16&#45;&gt;Node5</title>
<path fill="none" stroke="midnightblue" d="M509.325,-64.9494C467.243,-54.1803 413.021,-40.3046 373.397,-30.1645"/>
<polygon fill="midnightblue" stroke="midnightblue" points="508.643,-68.3875 519.198,-67.476 510.378,-61.606 508.643,-68.3875"/>
</g>
<!-- Node16&#45;&gt;Node8 -->
<g id="edge25" class="edge"><title>Node16&#45;&gt;Node8</title>
<path fill="none" stroke="midnightblue" d="M660.083,-65.649C718.335,-54.9227 794.589,-40.8816 850.671,-30.5549"/>
<polygon fill="midnightblue" stroke="midnightblue" points="659.362,-62.2229 650.161,-67.476 660.63,-69.1071 659.362,-62.2229"/>
</g>
<!-- Node17&#45;&gt;Node6 -->
<g id="edge27" class="edge"><title>Node17&#45;&gt;Node6</title>
<path fill="none" stroke="midnightblue" d="M538.143,-329.451C551.681,-319.452 567.727,-307.6 579.943,-298.577"/>
<polygon fill="midnightblue" stroke="midnightblue" points="536.059,-326.639 530.095,-335.396 540.218,-332.27 536.059,-326.639"/>
</g>
</g>
</svg>
