<?xml version="1.0" encoding="UTF-8" standalone="no"?>
<!DOCTYPE svg PUBLIC "-//W3C//DTD SVG 1.1//EN"
 "http://www.w3.org/Graphics/SVG/1.1/DTD/svg11.dtd">
<!-- Generated by graphviz version 2.43.0 (0)
 -->
<!-- Title: include/core/mir/fd.h Pages: 1 -->
<svg width="586pt" height="162pt"
 viewBox="0.00 0.00 585.50 162.00" xmlns="http://www.w3.org/2000/svg" xmlns:xlink="http://www.w3.org/1999/xlink">
<g id="graph0" class="graph" transform="scale(1 1) rotate(0) translate(4 158)">
<title>include/core/mir/fd.h</title>
<polygon fill="white" stroke="transparent" points="-4,4 -4,-158 581.5,-158 581.5,4 -4,4"/>
<!-- Node1 -->
<g id="node1" class="node">
<title>Node1</title>
<g id="a_node1"><a xlink:title=" ">
<polygon fill="#bfbfbf" stroke="black" points="273.5,-134.5 273.5,-153.5 390.5,-153.5 390.5,-134.5 273.5,-134.5"/>
<text text-anchor="middle" x="332" y="-141.5" font-family="Arial" font-size="10.00">include/core/mir/fd.h</text>
</a>
</g>
</g>
<!-- Node2 -->
<g id="node2" class="node">
<title>Node2</title>
<g id="a_node2"><a xlink:href="decoration__provider_8h.html" target="_top" xlink:title=" ">
<polygon fill="white" stroke="black" points="96.5,-67.5 96.5,-97.5 241.5,-97.5 241.5,-67.5 96.5,-67.5"/>
<text text-anchor="start" x="104.5" y="-85.5" font-family="Arial" font-size="10.00">examples/example&#45;server</text>
<text text-anchor="middle" x="169" y="-74.5" font-family="Arial" font-size="10.00">&#45;lib/decoration_provider.h</text>
</a>
</g>
</g>
<!-- Node1&#45;&gt;Node2 -->
<g id="edge1" class="edge">
<title>Node1&#45;&gt;Node2</title>
<path fill="none" stroke="midnightblue" d="M299.06,-130.98C272.56,-121.3 235.27,-107.69 207.42,-97.52"/>
<polygon fill="midnightblue" stroke="midnightblue" points="298.05,-134.33 308.65,-134.48 300.45,-127.76 298.05,-134.33"/>
</g>
<!-- Node5 -->
<g id="node5" class="node">
<title>Node5</title>
<g id="a_node5"><a xlink:href="wayland__shm_8cpp.html" target="_top" xlink:title=" ">
<polygon fill="white" stroke="black" points="259.5,-67.5 259.5,-97.5 404.5,-97.5 404.5,-67.5 259.5,-67.5"/>
<text text-anchor="start" x="267.5" y="-85.5" font-family="Arial" font-size="10.00">examples/example&#45;server</text>
<text text-anchor="middle" x="332" y="-74.5" font-family="Arial" font-size="10.00">&#45;lib/wayland_shm.cpp</text>
</a>
</g>
</g>
<!-- Node1&#45;&gt;Node5 -->
<g id="edge4" class="edge">
<title>Node1&#45;&gt;Node5</title>
<path fill="none" stroke="midnightblue" d="M332,-124.23C332,-115.59 332,-105.5 332,-97.52"/>
<polygon fill="midnightblue" stroke="midnightblue" points="328.5,-124.48 332,-134.48 335.5,-124.48 328.5,-124.48"/>
</g>
<!-- Node6 -->
<g id="node6" class="node">
<title>Node6</title>
<g id="a_node6"><a xlink:href="anonymous__shm__file_8h.html" target="_top" xlink:title=" ">
<polygon fill="white" stroke="black" points="422.5,-67.5 422.5,-97.5 577.5,-97.5 577.5,-67.5 422.5,-67.5"/>
<text text-anchor="start" x="430.5" y="-85.5" font-family="Arial" font-size="10.00">include/core/mir/anonymous</text>
<text text-anchor="middle" x="500" y="-74.5" font-family="Arial" font-size="10.00">_shm_file.h</text>
</a>
</g>
</g>
<!-- Node1&#45;&gt;Node6 -->
<g id="edge5" class="edge">
<title>Node1&#45;&gt;Node6</title>
<path fill="none" stroke="midnightblue" d="M365.59,-131.1C392.93,-121.42 431.57,-107.74 460.41,-97.52"/>
<polygon fill="midnightblue" stroke="midnightblue" points="364.33,-127.84 356.07,-134.48 366.67,-134.44 364.33,-127.84"/>
</g>
<!-- Node3 -->
<g id="node3" class="node">
<title>Node3</title>
<g id="a_node3"><a xlink:href="decoration__provider_8cpp.html" target="_top" xlink:title=" ">
<polygon fill="white" stroke="black" points="0,-0.5 0,-30.5 152,-30.5 152,-0.5 0,-0.5"/>
<text text-anchor="start" x="8" y="-18.5" font-family="Arial" font-size="10.00">examples/example&#45;server</text>
<text text-anchor="middle" x="76" y="-7.5" font-family="Arial" font-size="10.00">&#45;lib/decoration_provider.cpp</text>
</a>
</g>
</g>
<!-- Node2&#45;&gt;Node3 -->
<g id="edge2" class="edge">
<title>Node2&#45;&gt;Node3</title>
<path fill="none" stroke="midnightblue" d="M140.31,-61.45C126.01,-51.45 109.05,-39.6 96.14,-30.58"/>
<polygon fill="midnightblue" stroke="midnightblue" points="138.62,-64.54 148.82,-67.4 142.63,-58.8 138.62,-64.54"/>
</g>
<!-- Node4 -->
<g id="node4" class="node">
<title>Node4</title>
<g id="a_node4"><a xlink:href="floating__window__manager_8cpp.html" target="_top" xlink:title=" ">
<polygon fill="white" stroke="black" points="170.5,-0.5 170.5,-30.5 353.5,-30.5 353.5,-0.5 170.5,-0.5"/>
<text text-anchor="start" x="178.5" y="-18.5" font-family="Arial" font-size="10.00">examples/example&#45;server</text>
<text text-anchor="middle" x="262" y="-7.5" font-family="Arial" font-size="10.00">&#45;lib/floating_window_manager.cpp</text>
</a>
</g>
</g>
<!-- Node2&#45;&gt;Node4 -->
<g id="edge3" class="edge">
<title>Node2&#45;&gt;Node4</title>
<path fill="none" stroke="midnightblue" d="M197.69,-61.45C211.99,-51.45 228.95,-39.6 241.86,-30.58"/>
<polygon fill="midnightblue" stroke="midnightblue" points="195.37,-58.8 189.18,-67.4 199.38,-64.54 195.37,-58.8"/>
</g>
</g>
</svg>
