<?xml version="1.0" encoding="UTF-8" standalone="no"?>
<!DOCTYPE svg PUBLIC "-//W3C//DTD SVG 1.1//EN"
 "http://www.w3.org/Graphics/SVG/1.1/DTD/svg11.dtd">
<!-- Generated by graphviz version 2.43.0 (0)
 -->
<!-- Title: examples/example&#45;server&#45;lib/floating_window_manager.h Pages: 1 -->
<svg width="1137pt" height="688pt"
 viewBox="0.00 0.00 1136.69 688.00" xmlns="http://www.w3.org/2000/svg" xmlns:xlink="http://www.w3.org/1999/xlink">
<g id="graph0" class="graph" transform="scale(1 1) rotate(0) translate(4 684)">
<title>examples/example&#45;server&#45;lib/floating_window_manager.h</title>
<polygon fill="white" stroke="transparent" points="-4,4 -4,-684 1132.69,-684 1132.69,4 -4,4"/>
<!-- Node1 -->
<g id="node1" class="node">
<title>Node1</title>
<g id="a_node1"><a xlink:title=" ">
<polygon fill="#bfbfbf" stroke="black" points="799.5,-649.5 799.5,-679.5 971.5,-679.5 971.5,-649.5 799.5,-649.5"/>
<text text-anchor="start" x="807.5" y="-667.5" font-family="Arial" font-size="10.00">examples/example&#45;server</text>
<text text-anchor="middle" x="885.5" y="-656.5" font-family="Arial" font-size="10.00">&#45;lib/floating_window_manager.h</text>
</a>
</g>
</g>
<!-- Node2 -->
<g id="node2" class="node">
<title>Node2</title>
<g id="a_node2"><a xlink:href="minimal__window__manager_8h.html" target="_top" xlink:title=" ">
<polygon fill="white" stroke="black" points="678.5,-582.5 678.5,-612.5 806.5,-612.5 806.5,-582.5 678.5,-582.5"/>
<text text-anchor="start" x="686.5" y="-600.5" font-family="Arial" font-size="10.00">miral/minimal_window</text>
<text text-anchor="middle" x="742.5" y="-589.5" font-family="Arial" font-size="10.00">_manager.h</text>
</a>
</g>
</g>
<!-- Node1&#45;&gt;Node2 -->
<g id="edge1" class="edge">
<title>Node1&#45;&gt;Node2</title>
<path fill="none" stroke="midnightblue" d="M854.47,-649.4C833.48,-639.86 805.56,-627.16 782.85,-616.84"/>
<polygon fill="midnightblue" stroke="midnightblue" points="784.02,-613.53 773.47,-612.58 781.12,-619.9 784.02,-613.53"/>
</g>
<!-- Node35 -->
<g id="node35" class="node">
<title>Node35</title>
<g id="a_node35"><a xlink:href="splash__session_8h.html" target="_top" xlink:title=" ">
<polygon fill="white" stroke="black" points="798,-459.5 798,-478.5 897,-478.5 897,-459.5 798,-459.5"/>
<text text-anchor="middle" x="847.5" y="-466.5" font-family="Arial" font-size="10.00">splash_session.h</text>
</a>
</g>
</g>
<!-- Node1&#45;&gt;Node35 -->
<g id="edge65" class="edge">
<title>Node1&#45;&gt;Node35</title>
<path fill="none" stroke="midnightblue" d="M882.71,-649.27C875.94,-614.8 858.66,-526.81 851.11,-488.4"/>
<polygon fill="midnightblue" stroke="midnightblue" points="854.55,-487.71 849.18,-478.58 847.68,-489.06 854.55,-487.71"/>
</g>
<!-- Node36 -->
<g id="node36" class="node">
<title>Node36</title>
<g id="a_node36"><a xlink:href="enums_8h.html" target="_top" xlink:title=" ">
<polygon fill="white" stroke="black" points="968.5,-515.5 968.5,-545.5 1074.5,-545.5 1074.5,-515.5 968.5,-515.5"/>
<text text-anchor="start" x="976.5" y="-533.5" font-family="Arial" font-size="10.00">mir_toolkit/events</text>
<text text-anchor="middle" x="1021.5" y="-522.5" font-family="Arial" font-size="10.00">/enums.h</text>
</a>
</g>
</g>
<!-- Node1&#45;&gt;Node36 -->
<g id="edge67" class="edge">
<title>Node1&#45;&gt;Node36</title>
<path fill="none" stroke="midnightblue" d="M885.11,-649.44C885.37,-631.73 888.38,-601.29 904.5,-582 918.4,-565.37 938.8,-554.07 958.68,-546.46"/>
<polygon fill="midnightblue" stroke="midnightblue" points="960.12,-549.66 968.37,-543.01 957.78,-543.07 960.12,-549.66"/>
</g>
<!-- Node37 -->
<g id="node37" class="node">
<title>Node37</title>
<g id="a_node37"><a xlink:title=" ">
<polygon fill="white" stroke="#bfbfbf" points="913.5,-588 913.5,-607 963.5,-607 963.5,-588 913.5,-588"/>
<text text-anchor="middle" x="938.5" y="-595" font-family="Arial" font-size="10.00">chrono</text>
</a>
</g>
</g>
<!-- Node1&#45;&gt;Node37 -->
<g id="edge69" class="edge">
<title>Node1&#45;&gt;Node37</title>
<path fill="none" stroke="midnightblue" d="M897,-649.4C905.18,-639.36 916.21,-625.84 924.84,-615.25"/>
<polygon fill="midnightblue" stroke="midnightblue" points="927.8,-617.16 931.41,-607.19 922.38,-612.73 927.8,-617.16"/>
</g>
<!-- Node38 -->
<g id="node38" class="node">
<title>Node38</title>
<g id="a_node38"><a xlink:title=" ">
<polygon fill="white" stroke="#bfbfbf" points="981.5,-588 981.5,-607 1019.5,-607 1019.5,-588 981.5,-588"/>
<text text-anchor="middle" x="1000.5" y="-595" font-family="Arial" font-size="10.00">map</text>
</a>
</g>
</g>
<!-- Node1&#45;&gt;Node38 -->
<g id="edge70" class="edge">
<title>Node1&#45;&gt;Node38</title>
<path fill="none" stroke="midnightblue" d="M910.45,-649.4C930.1,-638.29 957.29,-622.92 976.65,-611.98"/>
<polygon fill="midnightblue" stroke="midnightblue" points="978.47,-614.97 985.45,-607.01 975.02,-608.88 978.47,-614.97"/>
</g>
<!-- Node3 -->
<g id="node3" class="node">
<title>Node3</title>
<g id="a_node3"><a xlink:href="window__management__policy_8h.html" target="_top" xlink:title=" ">
<polygon fill="white" stroke="black" points="666,-392.5 666,-422.5 819,-422.5 819,-392.5 666,-392.5"/>
<text text-anchor="start" x="674" y="-410.5" font-family="Arial" font-size="10.00">miral/window_management</text>
<text text-anchor="middle" x="742.5" y="-399.5" font-family="Arial" font-size="10.00">_policy.h</text>
</a>
</g>
</g>
<!-- Node2&#45;&gt;Node3 -->
<g id="edge2" class="edge">
<title>Node2&#45;&gt;Node3</title>
<path fill="none" stroke="midnightblue" d="M742.5,-582.37C742.5,-550.44 742.5,-472.44 742.5,-432.67"/>
<polygon fill="midnightblue" stroke="midnightblue" points="746,-432.54 742.5,-422.54 739,-432.54 746,-432.54"/>
</g>
<!-- Node23 -->
<g id="node23" class="node">
<title>Node23</title>
<g id="a_node23"><a xlink:href="window__manager__tools_8h.html" target="_top" xlink:title=" ">
<polygon fill="white" stroke="black" points="530,-515.5 530,-545.5 661,-545.5 661,-515.5 530,-515.5"/>
<text text-anchor="start" x="538" y="-533.5" font-family="Arial" font-size="10.00">miral/window_manager</text>
<text text-anchor="middle" x="595.5" y="-522.5" font-family="Arial" font-size="10.00">_tools.h</text>
</a>
</g>
</g>
<!-- Node2&#45;&gt;Node23 -->
<g id="edge37" class="edge">
<title>Node2&#45;&gt;Node23</title>
<path fill="none" stroke="midnightblue" d="M710.6,-582.4C688.93,-572.81 660.07,-560.05 636.66,-549.7"/>
<polygon fill="midnightblue" stroke="midnightblue" points="637.9,-546.42 627.33,-545.58 635.06,-552.82 637.9,-546.42"/>
</g>
<!-- Node4 -->
<g id="node4" class="node">
<title>Node4</title>
<g id="a_node4"><a xlink:href="displacement_8h.html" target="_top" xlink:title=" ">
<polygon fill="white" stroke="black" points="338,-224.5 338,-243.5 499,-243.5 499,-224.5 338,-224.5"/>
<text text-anchor="middle" x="418.5" y="-231.5" font-family="Arial" font-size="10.00">mir/geometry/displacement.h</text>
</a>
</g>
</g>
<!-- Node3&#45;&gt;Node4 -->
<g id="edge3" class="edge">
<title>Node3&#45;&gt;Node4</title>
<path fill="none" stroke="midnightblue" d="M702.47,-392.41C661.92,-378.14 597.37,-355.47 541.5,-336 495.31,-319.91 471.23,-335.42 437.5,-300 425.73,-287.64 421.2,-268.39 419.48,-254.04"/>
<polygon fill="midnightblue" stroke="midnightblue" points="422.95,-253.49 418.62,-243.82 415.97,-254.07 422.95,-253.49"/>
</g>
<!-- Node16 -->
<g id="node16" class="node">
<title>Node16</title>
<g id="a_node16"><a xlink:href="rectangles_8h.html" target="_top" xlink:title=" ">
<polygon fill="white" stroke="black" points="251.5,-336.5 251.5,-355.5 397.5,-355.5 397.5,-336.5 251.5,-336.5"/>
<text text-anchor="middle" x="324.5" y="-343.5" font-family="Arial" font-size="10.00">mir/geometry/rectangles.h</text>
</a>
</g>
</g>
<!-- Node3&#45;&gt;Node16 -->
<g id="edge22" class="edge">
<title>Node3&#45;&gt;Node16</title>
<path fill="none" stroke="midnightblue" d="M665.83,-395.59C588.4,-384.56 469.79,-367.68 394.74,-357"/>
<polygon fill="midnightblue" stroke="midnightblue" points="394.84,-353.48 384.44,-355.53 393.85,-360.41 394.84,-353.48"/>
</g>
<!-- Node21 -->
<g id="node21" class="node">
<title>Node21</title>
<g id="a_node21"><a xlink:href="common_8h.html" target="_top" xlink:title=" ">
<polygon fill="white" stroke="black" points="871,-280.5 871,-299.5 996,-299.5 996,-280.5 871,-280.5"/>
<text text-anchor="middle" x="933.5" y="-287.5" font-family="Arial" font-size="10.00">mir_toolkit/common.h</text>
</a>
</g>
</g>
<!-- Node3&#45;&gt;Node21 -->
<g id="edge35" class="edge">
<title>Node3&#45;&gt;Node21</title>
<path fill="none" stroke="midnightblue" d="M784.27,-392.41C807.62,-383.62 836.71,-371.11 860.5,-356 882.53,-342 904.44,-321.36 918.42,-307.11"/>
<polygon fill="midnightblue" stroke="midnightblue" points="921.27,-309.2 925.68,-299.56 916.23,-304.35 921.27,-309.2"/>
</g>
<!-- Node22 -->
<g id="node22" class="node">
<title>Node22</title>
<g id="a_node22"><a xlink:title=" ">
<polygon fill="white" stroke="#bfbfbf" points="794.5,-280.5 794.5,-299.5 852.5,-299.5 852.5,-280.5 794.5,-280.5"/>
<text text-anchor="middle" x="823.5" y="-287.5" font-family="Arial" font-size="10.00">memory</text>
</a>
</g>
</g>
<!-- Node3&#45;&gt;Node22 -->
<g id="edge36" class="edge">
<title>Node3&#45;&gt;Node22</title>
<path fill="none" stroke="midnightblue" d="M752.43,-392.34C767.36,-371.05 795.53,-330.89 811.55,-308.03"/>
<polygon fill="midnightblue" stroke="midnightblue" points="814.54,-309.87 817.42,-299.67 808.81,-305.85 814.54,-309.87"/>
</g>
<!-- Node5 -->
<g id="node5" class="node">
<title>Node5</title>
<g id="a_node5"><a xlink:href="displacement__generic_8h.html" target="_top" xlink:title=" ">
<polygon fill="white" stroke="black" points="440,-112.5 440,-131.5 573,-131.5 573,-112.5 440,-112.5"/>
<text text-anchor="middle" x="506.5" y="-119.5" font-family="Arial" font-size="10.00">displacement_generic.h</text>
</a>
</g>
</g>
<!-- Node4&#45;&gt;Node5 -->
<g id="edge4" class="edge">
<title>Node4&#45;&gt;Node5</title>
<path fill="none" stroke="midnightblue" d="M425.41,-224.37C439.99,-206.14 474.16,-163.43 493.16,-139.68"/>
<polygon fill="midnightblue" stroke="midnightblue" points="496.11,-141.59 499.63,-131.59 490.65,-137.21 496.11,-141.59"/>
</g>
<!-- Node10 -->
<g id="node10" class="node">
<title>Node10</title>
<g id="a_node10"><a xlink:href="dimensions_8h.html" target="_top" xlink:title=" ">
<polygon fill="white" stroke="black" points="339.5,-112.5 339.5,-131.5 421.5,-131.5 421.5,-112.5 339.5,-112.5"/>
<text text-anchor="middle" x="380.5" y="-119.5" font-family="Arial" font-size="10.00">dimensions.h</text>
</a>
</g>
</g>
<!-- Node4&#45;&gt;Node10 -->
<g id="edge9" class="edge">
<title>Node4&#45;&gt;Node10</title>
<path fill="none" stroke="midnightblue" d="M415.52,-224.37C409.36,-206.54 395.11,-165.3 386.81,-141.27"/>
<polygon fill="midnightblue" stroke="midnightblue" points="390.04,-139.9 383.47,-131.59 383.43,-142.19 390.04,-139.9"/>
</g>
<!-- Node12 -->
<g id="node12" class="node">
<title>Node12</title>
<g id="a_node12"><a xlink:href="point_8h.html" target="_top" xlink:title=" ">
<polygon fill="white" stroke="black" points="579.5,-168.5 579.5,-187.5 629.5,-187.5 629.5,-168.5 579.5,-168.5"/>
<text text-anchor="middle" x="604.5" y="-175.5" font-family="Arial" font-size="10.00">point.h</text>
</a>
</g>
</g>
<!-- Node4&#45;&gt;Node12 -->
<g id="edge12" class="edge">
<title>Node4&#45;&gt;Node12</title>
<path fill="none" stroke="midnightblue" d="M447.97,-224.44C480.98,-214.86 534.43,-199.34 569.52,-189.15"/>
<polygon fill="midnightblue" stroke="midnightblue" points="570.71,-192.45 579.34,-186.3 568.76,-185.73 570.71,-192.45"/>
</g>
<!-- Node14 -->
<g id="node14" class="node">
<title>Node14</title>
<g id="a_node14"><a xlink:href="size_8h.html" target="_top" xlink:title=" ">
<polygon fill="white" stroke="black" points="505,-168.5 505,-187.5 550,-187.5 550,-168.5 505,-168.5"/>
<text text-anchor="middle" x="527.5" y="-175.5" font-family="Arial" font-size="10.00">size.h</text>
</a>
</g>
</g>
<!-- Node4&#45;&gt;Node14 -->
<g id="edge17" class="edge">
<title>Node4&#45;&gt;Node14</title>
<path fill="none" stroke="midnightblue" d="M436.01,-224.32C453.57,-215.62 480.83,-202.12 501.03,-192.11"/>
<polygon fill="midnightblue" stroke="midnightblue" points="502.62,-195.23 510.03,-187.65 499.52,-188.96 502.62,-195.23"/>
</g>
<!-- Node6 -->
<g id="node6" class="node">
<title>Node6</title>
<g id="a_node6"><a xlink:href="dimensions__generic_8h.html" target="_top" xlink:title=" ">
<polygon fill="white" stroke="black" points="445,-56.5 445,-75.5 568,-75.5 568,-56.5 445,-56.5"/>
<text text-anchor="middle" x="506.5" y="-63.5" font-family="Arial" font-size="10.00">dimensions_generic.h</text>
</a>
</g>
</g>
<!-- Node5&#45;&gt;Node6 -->
<g id="edge5" class="edge">
<title>Node5&#45;&gt;Node6</title>
<path fill="none" stroke="midnightblue" d="M506.5,-112.08C506.5,-105.01 506.5,-94.86 506.5,-85.99"/>
<polygon fill="midnightblue" stroke="midnightblue" points="510,-85.75 506.5,-75.75 503,-85.75 510,-85.75"/>
</g>
<!-- Node9 -->
<g id="node9" class="node">
<title>Node9</title>
<g id="a_node9"><a xlink:title=" ">
<polygon fill="white" stroke="#bfbfbf" points="659,-56.5 659,-75.5 716,-75.5 716,-56.5 659,-56.5"/>
<text text-anchor="middle" x="687.5" y="-63.5" font-family="Arial" font-size="10.00">ostream</text>
</a>
</g>
</g>
<!-- Node5&#45;&gt;Node9 -->
<g id="edge8" class="edge">
<title>Node5&#45;&gt;Node9</title>
<path fill="none" stroke="midnightblue" d="M535.18,-112.44C566.03,-103.24 615.23,-88.56 649.33,-78.39"/>
<polygon fill="midnightblue" stroke="midnightblue" points="650.37,-81.73 658.95,-75.52 648.37,-75.02 650.37,-81.73"/>
</g>
<!-- Node7 -->
<g id="node7" class="node">
<title>Node7</title>
<g id="a_node7"><a xlink:title=" ">
<polygon fill="white" stroke="#bfbfbf" points="276.5,-0.5 276.5,-19.5 324.5,-19.5 324.5,-0.5 276.5,-0.5"/>
<text text-anchor="middle" x="300.5" y="-7.5" font-family="Arial" font-size="10.00">iosfwd</text>
</a>
</g>
</g>
<!-- Node6&#45;&gt;Node7 -->
<g id="edge6" class="edge">
<title>Node6&#45;&gt;Node7</title>
<path fill="none" stroke="midnightblue" d="M473.86,-56.44C435.74,-46.45 373,-30.01 334.37,-19.88"/>
<polygon fill="midnightblue" stroke="midnightblue" points="335.18,-16.47 324.62,-17.32 333.41,-23.24 335.18,-16.47"/>
</g>
<!-- Node8 -->
<g id="node8" class="node">
<title>Node8</title>
<g id="a_node8"><a xlink:title=" ">
<polygon fill="white" stroke="#bfbfbf" points="472,-0.5 472,-19.5 541,-19.5 541,-0.5 472,-0.5"/>
<text text-anchor="middle" x="506.5" y="-7.5" font-family="Arial" font-size="10.00">type_traits</text>
</a>
</g>
</g>
<!-- Node6&#45;&gt;Node8 -->
<g id="edge7" class="edge">
<title>Node6&#45;&gt;Node8</title>
<path fill="none" stroke="midnightblue" d="M506.5,-56.08C506.5,-49.01 506.5,-38.86 506.5,-29.99"/>
<polygon fill="midnightblue" stroke="midnightblue" points="510,-29.75 506.5,-19.75 503,-29.75 510,-29.75"/>
</g>
<!-- Node10&#45;&gt;Node6 -->
<g id="edge10" class="edge">
<title>Node10&#45;&gt;Node6</title>
<path fill="none" stroke="midnightblue" d="M400.47,-112.44C421.11,-103.6 453.56,-89.69 477.13,-79.59"/>
<polygon fill="midnightblue" stroke="midnightblue" points="478.82,-82.67 486.63,-75.52 476.06,-76.24 478.82,-82.67"/>
</g>
<!-- Node11 -->
<g id="node11" class="node">
<title>Node11</title>
<g id="a_node11"><a xlink:title=" ">
<polygon fill="white" stroke="#bfbfbf" points="355.5,-56.5 355.5,-75.5 405.5,-75.5 405.5,-56.5 355.5,-56.5"/>
<text text-anchor="middle" x="380.5" y="-63.5" font-family="Arial" font-size="10.00">cstdint</text>
</a>
</g>
</g>
<!-- Node10&#45;&gt;Node11 -->
<g id="edge11" class="edge">
<title>Node10&#45;&gt;Node11</title>
<path fill="none" stroke="midnightblue" d="M380.5,-112.08C380.5,-105.01 380.5,-94.86 380.5,-85.99"/>
<polygon fill="midnightblue" stroke="midnightblue" points="384,-85.75 380.5,-75.75 377,-85.75 384,-85.75"/>
</g>
<!-- Node12&#45;&gt;Node10 -->
<g id="edge16" class="edge">
<title>Node12&#45;&gt;Node10</title>
<path fill="none" stroke="midnightblue" d="M579.24,-170.91C542.04,-161.94 471.94,-145.04 425.73,-133.9"/>
<polygon fill="midnightblue" stroke="midnightblue" points="426.5,-130.49 415.96,-131.55 424.86,-137.29 426.5,-130.49"/>
</g>
<!-- Node13 -->
<g id="node13" class="node">
<title>Node13</title>
<g id="a_node13"><a xlink:href="point__generic_8h.html" target="_top" xlink:title=" ">
<polygon fill="white" stroke="black" points="695.5,-112.5 695.5,-131.5 787.5,-131.5 787.5,-112.5 695.5,-112.5"/>
<text text-anchor="middle" x="741.5" y="-119.5" font-family="Arial" font-size="10.00">point_generic.h</text>
</a>
</g>
</g>
<!-- Node12&#45;&gt;Node13 -->
<g id="edge13" class="edge">
<title>Node12&#45;&gt;Node13</title>
<path fill="none" stroke="midnightblue" d="M626.21,-168.44C648.85,-159.52 684.57,-145.44 710.25,-135.32"/>
<polygon fill="midnightblue" stroke="midnightblue" points="711.87,-138.44 719.89,-131.52 709.31,-131.93 711.87,-138.44"/>
</g>
<!-- Node13&#45;&gt;Node6 -->
<g id="edge14" class="edge">
<title>Node13&#45;&gt;Node6</title>
<path fill="none" stroke="midnightblue" d="M704.26,-112.44C663.44,-103.06 597.86,-87.99 553.52,-77.8"/>
<polygon fill="midnightblue" stroke="midnightblue" points="554.09,-74.34 543.56,-75.52 552.52,-81.17 554.09,-74.34"/>
</g>
<!-- Node13&#45;&gt;Node9 -->
<g id="edge15" class="edge">
<title>Node13&#45;&gt;Node9</title>
<path fill="none" stroke="midnightblue" d="M732.58,-112.08C724.72,-104.22 713.07,-92.57 703.58,-83.08"/>
<polygon fill="midnightblue" stroke="midnightblue" points="705.8,-80.35 696.25,-75.75 700.85,-85.3 705.8,-80.35"/>
</g>
<!-- Node14&#45;&gt;Node10 -->
<g id="edge21" class="edge">
<title>Node14&#45;&gt;Node10</title>
<path fill="none" stroke="midnightblue" d="M504.85,-168.68C480.47,-159.72 441.43,-145.38 413.6,-135.16"/>
<polygon fill="midnightblue" stroke="midnightblue" points="414.5,-131.76 403.9,-131.6 412.08,-138.33 414.5,-131.76"/>
</g>
<!-- Node15 -->
<g id="node15" class="node">
<title>Node15</title>
<g id="a_node15"><a xlink:href="size__generic_8h.html" target="_top" xlink:title=" ">
<polygon fill="white" stroke="black" points="591.5,-112.5 591.5,-131.5 677.5,-131.5 677.5,-112.5 591.5,-112.5"/>
<text text-anchor="middle" x="634.5" y="-119.5" font-family="Arial" font-size="10.00">size_generic.h</text>
</a>
</g>
</g>
<!-- Node14&#45;&gt;Node15 -->
<g id="edge18" class="edge">
<title>Node14&#45;&gt;Node15</title>
<path fill="none" stroke="midnightblue" d="M544.69,-168.32C561.85,-159.66 588.45,-146.24 608.25,-136.25"/>
<polygon fill="midnightblue" stroke="midnightblue" points="610,-139.28 617.35,-131.65 606.85,-133.04 610,-139.28"/>
</g>
<!-- Node15&#45;&gt;Node6 -->
<g id="edge19" class="edge">
<title>Node15&#45;&gt;Node6</title>
<path fill="none" stroke="midnightblue" d="M614.22,-112.44C593.15,-103.56 559.98,-89.56 536.01,-79.45"/>
<polygon fill="midnightblue" stroke="midnightblue" points="537.26,-76.18 526.69,-75.52 534.54,-82.63 537.26,-76.18"/>
</g>
<!-- Node15&#45;&gt;Node9 -->
<g id="edge20" class="edge">
<title>Node15&#45;&gt;Node9</title>
<path fill="none" stroke="midnightblue" d="M643.25,-112.08C650.97,-104.22 662.4,-92.57 671.72,-83.08"/>
<polygon fill="midnightblue" stroke="midnightblue" points="674.4,-85.34 678.91,-75.75 669.41,-80.44 674.4,-85.34"/>
</g>
<!-- Node16&#45;&gt;Node12 -->
<g id="edge23" class="edge">
<title>Node16&#45;&gt;Node12</title>
<path fill="none" stroke="midnightblue" d="M388.19,-336.48C466.36,-325.73 589.51,-307.71 596.5,-300 621.86,-272.02 615.61,-223.85 609.6,-197.51"/>
<polygon fill="midnightblue" stroke="midnightblue" points="612.96,-196.53 607.13,-187.69 606.17,-198.24 612.96,-196.53"/>
</g>
<!-- Node17 -->
<g id="node17" class="node">
<title>Node17</title>
<g id="a_node17"><a xlink:href="rectangle_8h.html" target="_top" xlink:title=" ">
<polygon fill="white" stroke="black" points="447,-280.5 447,-299.5 588,-299.5 588,-280.5 447,-280.5"/>
<text text-anchor="middle" x="517.5" y="-287.5" font-family="Arial" font-size="10.00">mir/geometry/rectangle.h</text>
</a>
</g>
</g>
<!-- Node16&#45;&gt;Node17 -->
<g id="edge24" class="edge">
<title>Node16&#45;&gt;Node17</title>
<path fill="none" stroke="midnightblue" d="M355.08,-336.44C388.11,-327.2 440.89,-312.44 477.27,-302.26"/>
<polygon fill="midnightblue" stroke="midnightblue" points="478.37,-305.58 487.06,-299.52 476.49,-298.84 478.37,-305.58"/>
</g>
<!-- Node19 -->
<g id="node19" class="node">
<title>Node19</title>
<g id="a_node19"><a xlink:title=" ">
<polygon fill="white" stroke="#bfbfbf" points="242,-280.5 242,-299.5 289,-299.5 289,-280.5 242,-280.5"/>
<text text-anchor="middle" x="265.5" y="-287.5" font-family="Arial" font-size="10.00">vector</text>
</a>
</g>
</g>
<!-- Node16&#45;&gt;Node19 -->
<g id="edge33" class="edge">
<title>Node16&#45;&gt;Node19</title>
<path fill="none" stroke="midnightblue" d="M315.02,-336.32C306.3,-328.34 293.16,-316.31 282.6,-306.65"/>
<polygon fill="midnightblue" stroke="midnightblue" points="284.89,-304 275.15,-299.83 280.17,-309.17 284.89,-304"/>
</g>
<!-- Node20 -->
<g id="node20" class="node">
<title>Node20</title>
<g id="a_node20"><a xlink:title=" ">
<polygon fill="white" stroke="#bfbfbf" points="307,-280.5 307,-299.5 390,-299.5 390,-280.5 307,-280.5"/>
<text text-anchor="middle" x="348.5" y="-287.5" font-family="Arial" font-size="10.00">initializer_list</text>
</a>
</g>
</g>
<!-- Node16&#45;&gt;Node20 -->
<g id="edge34" class="edge">
<title>Node16&#45;&gt;Node20</title>
<path fill="none" stroke="midnightblue" d="M328.46,-336.08C331.71,-328.77 336.42,-318.18 340.45,-309.1"/>
<polygon fill="midnightblue" stroke="midnightblue" points="343.75,-310.31 344.61,-299.75 337.35,-307.47 343.75,-310.31"/>
</g>
<!-- Node17&#45;&gt;Node4 -->
<g id="edge32" class="edge">
<title>Node17&#45;&gt;Node4</title>
<path fill="none" stroke="midnightblue" d="M501.59,-280.32C485.86,-271.74 461.56,-258.49 443.29,-248.52"/>
<polygon fill="midnightblue" stroke="midnightblue" points="444.82,-245.37 434.37,-243.65 441.47,-251.52 444.82,-245.37"/>
</g>
<!-- Node17&#45;&gt;Node12 -->
<g id="edge30" class="edge">
<title>Node17&#45;&gt;Node12</title>
<path fill="none" stroke="midnightblue" d="M524.33,-280.37C538.75,-262.14 572.53,-219.43 591.31,-195.68"/>
<polygon fill="midnightblue" stroke="midnightblue" points="594.25,-197.61 597.7,-187.59 588.76,-193.26 594.25,-197.61"/>
</g>
<!-- Node17&#45;&gt;Node14 -->
<g id="edge31" class="edge">
<title>Node17&#45;&gt;Node14</title>
<path fill="none" stroke="midnightblue" d="M518.28,-280.37C519.9,-262.62 523.62,-221.67 525.81,-197.6"/>
<polygon fill="midnightblue" stroke="midnightblue" points="529.3,-197.87 526.72,-187.59 522.33,-197.23 529.3,-197.87"/>
</g>
<!-- Node18 -->
<g id="node18" class="node">
<title>Node18</title>
<g id="a_node18"><a xlink:href="rectangle__generic_8h.html" target="_top" xlink:title=" ">
<polygon fill="white" stroke="black" points="685,-168.5 685,-187.5 798,-187.5 798,-168.5 685,-168.5"/>
<text text-anchor="middle" x="741.5" y="-175.5" font-family="Arial" font-size="10.00">rectangle_generic.h</text>
</a>
</g>
</g>
<!-- Node17&#45;&gt;Node18 -->
<g id="edge25" class="edge">
<title>Node17&#45;&gt;Node18</title>
<path fill="none" stroke="midnightblue" d="M535.08,-280.37C574.17,-261.17 668.51,-214.84 714.88,-192.07"/>
<polygon fill="midnightblue" stroke="midnightblue" points="716.57,-195.14 724,-187.59 713.49,-188.86 716.57,-195.14"/>
</g>
<!-- Node18&#45;&gt;Node5 -->
<g id="edge28" class="edge">
<title>Node18&#45;&gt;Node5</title>
<path fill="none" stroke="midnightblue" d="M704.26,-168.44C663.44,-159.06 597.86,-143.99 553.52,-133.8"/>
<polygon fill="midnightblue" stroke="midnightblue" points="554.09,-130.34 543.56,-131.52 552.52,-137.17 554.09,-130.34"/>
</g>
<!-- Node18&#45;&gt;Node9 -->
<g id="edge29" class="edge">
<title>Node18&#45;&gt;Node9</title>
<path fill="none" stroke="midnightblue" d="M758.14,-168.46C779.19,-156.49 811.05,-133.75 796.5,-112 780.89,-88.67 750.74,-77.42 726.09,-72.01"/>
<polygon fill="midnightblue" stroke="midnightblue" points="726.76,-68.57 716.27,-70.08 725.41,-75.44 726.76,-68.57"/>
</g>
<!-- Node18&#45;&gt;Node13 -->
<g id="edge26" class="edge">
<title>Node18&#45;&gt;Node13</title>
<path fill="none" stroke="midnightblue" d="M741.5,-168.08C741.5,-161.01 741.5,-150.86 741.5,-141.99"/>
<polygon fill="midnightblue" stroke="midnightblue" points="745,-141.75 741.5,-131.75 738,-141.75 745,-141.75"/>
</g>
<!-- Node18&#45;&gt;Node15 -->
<g id="edge27" class="edge">
<title>Node18&#45;&gt;Node15</title>
<path fill="none" stroke="midnightblue" d="M724.31,-168.32C707.15,-159.66 680.55,-146.24 660.75,-136.25"/>
<polygon fill="midnightblue" stroke="midnightblue" points="662.15,-133.04 651.65,-131.65 659,-139.28 662.15,-133.04"/>
</g>
<!-- Node23&#45;&gt;Node4 -->
<g id="edge62" class="edge">
<title>Node23&#45;&gt;Node4</title>
<path fill="none" stroke="midnightblue" d="M529.88,-524.25C411.75,-512.99 175.5,-481.35 175.5,-408.5 175.5,-408.5 175.5,-408.5 175.5,-345 175.5,-275.59 258.79,-249.75 327.85,-240.26"/>
<polygon fill="midnightblue" stroke="midnightblue" points="328.45,-243.71 337.92,-238.97 327.56,-236.76 328.45,-243.71"/>
</g>
<!-- Node23&#45;&gt;Node22 -->
<g id="edge64" class="edge">
<title>Node23&#45;&gt;Node22</title>
<path fill="none" stroke="midnightblue" d="M598.71,-515.49C605.43,-488.77 623.18,-429.82 656.5,-392 694.13,-349.29 754.28,-319.14 791.2,-303.46"/>
<polygon fill="midnightblue" stroke="midnightblue" points="792.61,-306.67 800.51,-299.6 789.93,-300.2 792.61,-306.67"/>
</g>
<!-- Node24 -->
<g id="node24" class="node">
<title>Node24</title>
<g id="a_node24"><a xlink:href="application_8h.html" target="_top" xlink:title=" ">
<polygon fill="white" stroke="black" points="950.5,-336.5 950.5,-355.5 1058.5,-355.5 1058.5,-336.5 950.5,-336.5"/>
<text text-anchor="middle" x="1004.5" y="-343.5" font-family="Arial" font-size="10.00">miral/application.h</text>
</a>
</g>
</g>
<!-- Node23&#45;&gt;Node24 -->
<g id="edge38" class="edge">
<title>Node23&#45;&gt;Node24</title>
<path fill="none" stroke="midnightblue" d="M661.25,-527.43C725.86,-523.43 826.14,-511.92 906.5,-479 946.33,-462.68 961.21,-458.53 985.5,-423 997.22,-405.85 1001.72,-382.11 1003.44,-365.75"/>
<polygon fill="midnightblue" stroke="midnightblue" points="1006.93,-366.02 1004.24,-355.77 999.95,-365.46 1006.93,-366.02"/>
</g>
<!-- Node26 -->
<g id="node26" class="node">
<title>Node26</title>
<g id="a_node26"><a xlink:href="window__info_8h.html" target="_top" xlink:title=" ">
<polygon fill="white" stroke="black" points="509,-459.5 509,-478.5 596,-478.5 596,-459.5 509,-459.5"/>
<text text-anchor="middle" x="552.5" y="-466.5" font-family="Arial" font-size="10.00">window_info.h</text>
</a>
</g>
</g>
<!-- Node23&#45;&gt;Node26 -->
<g id="edge42" class="edge">
<title>Node23&#45;&gt;Node26</title>
<path fill="none" stroke="midnightblue" d="M585.31,-515.4C579.13,-506.84 571.2,-495.87 564.68,-486.86"/>
<polygon fill="midnightblue" stroke="midnightblue" points="567.45,-484.71 558.76,-478.66 561.78,-488.81 567.45,-484.71"/>
</g>
<!-- Node33 -->
<g id="node33" class="node">
<title>Node33</title>
<g id="a_node33"><a xlink:title=" ">
<polygon fill="white" stroke="#bfbfbf" points="0,-280.5 0,-299.5 65,-299.5 65,-280.5 0,-280.5"/>
<text text-anchor="middle" x="32.5" y="-287.5" font-family="Arial" font-size="10.00">functional</text>
</a>
</g>
</g>
<!-- Node23&#45;&gt;Node33 -->
<g id="edge63" class="edge">
<title>Node23&#45;&gt;Node33</title>
<path fill="none" stroke="midnightblue" d="M529.75,-527.05C424.86,-522.29 225.04,-509.43 161.5,-479 91.2,-445.34 68.81,-426.93 36.5,-356 29.91,-341.53 29.35,-323.34 30.19,-309.89"/>
<polygon fill="midnightblue" stroke="midnightblue" points="33.68,-310.17 31.12,-299.89 26.71,-309.52 33.68,-310.17"/>
</g>
<!-- Node24&#45;&gt;Node21 -->
<g id="edge39" class="edge">
<title>Node24&#45;&gt;Node21</title>
<path fill="none" stroke="midnightblue" d="M993.09,-336.32C982.39,-328.18 966.16,-315.84 953.34,-306.09"/>
<polygon fill="midnightblue" stroke="midnightblue" points="955.19,-303.1 945.11,-299.83 950.96,-308.67 955.19,-303.1"/>
</g>
<!-- Node24&#45;&gt;Node22 -->
<g id="edge40" class="edge">
<title>Node24&#45;&gt;Node22</title>
<path fill="none" stroke="midnightblue" d="M975.82,-336.44C944.97,-327.24 895.77,-312.56 861.67,-302.39"/>
<polygon fill="midnightblue" stroke="midnightblue" points="862.63,-299.02 852.05,-299.52 860.63,-305.73 862.63,-299.02"/>
</g>
<!-- Node25 -->
<g id="node25" class="node">
<title>Node25</title>
<g id="a_node25"><a xlink:title=" ">
<polygon fill="white" stroke="#bfbfbf" points="1014.5,-280.5 1014.5,-299.5 1058.5,-299.5 1058.5,-280.5 1014.5,-280.5"/>
<text text-anchor="middle" x="1036.5" y="-287.5" font-family="Arial" font-size="10.00">string</text>
</a>
</g>
</g>
<!-- Node24&#45;&gt;Node25 -->
<g id="edge41" class="edge">
<title>Node24&#45;&gt;Node25</title>
<path fill="none" stroke="midnightblue" d="M1009.78,-336.08C1014.21,-328.61 1020.66,-317.72 1026.12,-308.52"/>
<polygon fill="midnightblue" stroke="midnightblue" points="1029.23,-310.14 1031.31,-299.75 1023.21,-306.57 1029.23,-310.14"/>
</g>
<!-- Node26&#45;&gt;Node16 -->
<g id="edge59" class="edge">
<title>Node26&#45;&gt;Node16</title>
<path fill="none" stroke="midnightblue" d="M508.88,-465.87C448.87,-461.91 345.65,-451.11 322.5,-423 309.42,-407.12 313.01,-382.4 317.82,-365.5"/>
<polygon fill="midnightblue" stroke="midnightblue" points="321.24,-366.28 320.99,-355.69 314.58,-364.13 321.24,-366.28"/>
</g>
<!-- Node27 -->
<g id="node27" class="node">
<title>Node27</title>
<g id="a_node27"><a xlink:href="window_8h.html" target="_top" xlink:title=" ">
<polygon fill="white" stroke="black" points="885,-398 885,-417 976,-417 976,-398 885,-398"/>
<text text-anchor="middle" x="930.5" y="-405" font-family="Arial" font-size="10.00">miral/window.h</text>
</a>
</g>
</g>
<!-- Node26&#45;&gt;Node27 -->
<g id="edge43" class="edge">
<title>Node26&#45;&gt;Node27</title>
<path fill="none" stroke="midnightblue" d="M596.23,-461.12C665.09,-450.28 798.74,-429.24 874.52,-417.31"/>
<polygon fill="midnightblue" stroke="midnightblue" points="875.48,-420.7 884.81,-415.69 874.39,-413.79 875.48,-420.7"/>
</g>
<!-- Node28 -->
<g id="node28" class="node">
<title>Node28</title>
<g id="a_node28"><a xlink:href="window__specification_8h.html" target="_top" xlink:title=" ">
<polygon fill="white" stroke="black" points="331.5,-398 331.5,-417 489.5,-417 489.5,-398 331.5,-398"/>
<text text-anchor="middle" x="410.5" y="-405" font-family="Arial" font-size="10.00">miral/window_specification.h</text>
</a>
</g>
</g>
<!-- Node26&#45;&gt;Node28 -->
<g id="edge48" class="edge">
<title>Node26&#45;&gt;Node28</title>
<path fill="none" stroke="midnightblue" d="M532.15,-459.48C508.11,-449.4 467.9,-432.55 440.34,-421"/>
<polygon fill="midnightblue" stroke="midnightblue" points="441.38,-417.65 430.81,-417.01 438.68,-424.1 441.38,-417.65"/>
</g>
<!-- Node29 -->
<g id="node29" class="node">
<title>Node29</title>
<g id="a_node29"><a xlink:href="optional__value_8h.html" target="_top" xlink:title=" ">
<polygon fill="white" stroke="black" points="416,-336.5 416,-355.5 533,-355.5 533,-336.5 416,-336.5"/>
<text text-anchor="middle" x="474.5" y="-343.5" font-family="Arial" font-size="10.00">mir/optional_value.h</text>
</a>
</g>
</g>
<!-- Node26&#45;&gt;Node29 -->
<g id="edge60" class="edge">
<title>Node26&#45;&gt;Node29</title>
<path fill="none" stroke="midnightblue" d="M560.47,-459.43C573.15,-444.7 595.09,-414.04 580.5,-392 569.84,-375.89 552.13,-365.53 534.21,-358.88"/>
<polygon fill="midnightblue" stroke="midnightblue" points="534.87,-355.41 524.27,-355.55 532.64,-362.05 534.87,-355.41"/>
</g>
<!-- Node34 -->
<g id="node34" class="node">
<title>Node34</title>
<g id="a_node34"><a xlink:title=" ">
<polygon fill="white" stroke="#bfbfbf" points="507.5,-398 507.5,-417 571.5,-417 571.5,-398 507.5,-398"/>
<text text-anchor="middle" x="539.5" y="-405" font-family="Arial" font-size="10.00">algorithm</text>
</a>
</g>
</g>
<!-- Node26&#45;&gt;Node34 -->
<g id="edge61" class="edge">
<title>Node26&#45;&gt;Node34</title>
<path fill="none" stroke="midnightblue" d="M550.64,-459.48C548.78,-450.99 545.88,-437.7 543.5,-426.82"/>
<polygon fill="midnightblue" stroke="midnightblue" points="546.91,-426.03 541.36,-417.01 540.07,-427.53 546.91,-426.03"/>
</g>
<!-- Node27&#45;&gt;Node12 -->
<g id="edge45" class="edge">
<title>Node27&#45;&gt;Node12</title>
<path fill="none" stroke="midnightblue" d="M976.4,-399.16C1021.47,-390.9 1085.59,-375.99 1100.5,-356 1135.58,-308.98 1140.19,-267.2 1100.5,-224 1068.43,-189.1 722.63,-192.98 675.5,-188 663.86,-186.77 651.18,-185.23 639.8,-183.77"/>
<polygon fill="midnightblue" stroke="midnightblue" points="640.14,-180.28 629.77,-182.46 639.24,-187.22 640.14,-180.28"/>
</g>
<!-- Node27&#45;&gt;Node14 -->
<g id="edge46" class="edge">
<title>Node27&#45;&gt;Node14</title>
<path fill="none" stroke="midnightblue" d="M976.23,-402.83C1007.57,-397.66 1047.06,-385.32 1067.5,-356 1086.82,-328.29 1089.1,-305.97 1067.5,-280 995.67,-193.65 680.7,-209.73 570.5,-188 567.21,-187.35 563.78,-186.66 560.35,-185.96"/>
<polygon fill="midnightblue" stroke="midnightblue" points="560.74,-182.47 550.24,-183.86 559.32,-189.32 560.74,-182.47"/>
</g>
<!-- Node27&#45;&gt;Node22 -->
<g id="edge47" class="edge">
<title>Node27&#45;&gt;Node22</title>
<path fill="none" stroke="midnightblue" d="M922.46,-397.82C904.64,-378.59 861.61,-332.14 838.61,-307.31"/>
<polygon fill="midnightblue" stroke="midnightblue" points="841,-304.74 831.64,-299.78 835.86,-309.5 841,-304.74"/>
</g>
<!-- Node27&#45;&gt;Node24 -->
<g id="edge44" class="edge">
<title>Node27&#45;&gt;Node24</title>
<path fill="none" stroke="midnightblue" d="M941.1,-397.98C952.75,-388.61 971.69,-373.38 985.83,-362.01"/>
<polygon fill="midnightblue" stroke="midnightblue" points="988.32,-364.5 993.92,-355.51 983.93,-359.05 988.32,-364.5"/>
</g>
<!-- Node28&#45;&gt;Node4 -->
<g id="edge50" class="edge">
<title>Node28&#45;&gt;Node4</title>
<path fill="none" stroke="midnightblue" d="M331.08,-400.46C299.25,-393.97 264.89,-381.13 242.5,-356 219.84,-330.56 211.43,-306.77 232.5,-280 245.56,-263.41 291.5,-252.2 334.45,-245.12"/>
<polygon fill="midnightblue" stroke="midnightblue" points="335.09,-248.56 344.42,-243.54 333.99,-241.65 335.09,-248.56"/>
</g>
<!-- Node28&#45;&gt;Node16 -->
<g id="edge51" class="edge">
<title>Node28&#45;&gt;Node16</title>
<path fill="none" stroke="midnightblue" d="M398.18,-397.98C384.38,-388.43 361.8,-372.81 345.27,-361.37"/>
<polygon fill="midnightblue" stroke="midnightblue" points="347.01,-358.32 336.8,-355.51 343.03,-364.08 347.01,-358.32"/>
</g>
<!-- Node28&#45;&gt;Node21 -->
<g id="edge49" class="edge">
<title>Node28&#45;&gt;Node21</title>
<path fill="none" stroke="midnightblue" d="M449.38,-397.91C543.2,-377.19 781.83,-324.5 884.88,-301.74"/>
<polygon fill="midnightblue" stroke="midnightblue" points="885.71,-305.14 894.72,-299.56 884.2,-298.3 885.71,-305.14"/>
</g>
<!-- Node28&#45;&gt;Node22 -->
<g id="edge58" class="edge">
<title>Node28&#45;&gt;Node22</title>
<path fill="none" stroke="midnightblue" d="M433.9,-397.89C472.86,-383.75 553.66,-355.27 623.5,-336 691.55,-317.23 711.88,-316.53 784.37,-300.22"/>
<polygon fill="midnightblue" stroke="midnightblue" points="785.49,-303.55 794.46,-297.92 783.94,-296.73 785.49,-303.55"/>
</g>
<!-- Node28&#45;&gt;Node29 -->
<g id="edge52" class="edge">
<title>Node28&#45;&gt;Node29</title>
<path fill="none" stroke="midnightblue" d="M419.67,-397.98C429.65,-388.7 445.81,-373.67 458.01,-362.33"/>
<polygon fill="midnightblue" stroke="midnightblue" points="460.41,-364.88 465.35,-355.51 455.64,-359.75 460.41,-364.88"/>
</g>
<!-- Node32 -->
<g id="node32" class="node">
<title>Node32</title>
<g id="a_node32"><a xlink:href="int__wrapper_8h.html" target="_top" xlink:title=" ">
<polygon fill="white" stroke="black" points="45.5,-336.5 45.5,-355.5 147.5,-355.5 147.5,-336.5 45.5,-336.5"/>
<text text-anchor="middle" x="96.5" y="-343.5" font-family="Arial" font-size="10.00">mir/int_wrapper.h</text>
</a>
</g>
</g>
<!-- Node28&#45;&gt;Node32 -->
<g id="edge55" class="edge">
<title>Node28&#45;&gt;Node32</title>
<path fill="none" stroke="midnightblue" d="M365.51,-397.98C309.08,-387.28 212.38,-368.96 151.58,-357.44"/>
<polygon fill="midnightblue" stroke="midnightblue" points="151.88,-353.93 141.41,-355.51 150.58,-360.81 151.88,-353.93"/>
</g>
<!-- Node30 -->
<g id="node30" class="node">
<title>Node30</title>
<g id="a_node30"><a xlink:href="fatal_8h.html" target="_top" xlink:title=" ">
<polygon fill="white" stroke="black" points="708.5,-280.5 708.5,-299.5 776.5,-299.5 776.5,-280.5 708.5,-280.5"/>
<text text-anchor="middle" x="742.5" y="-287.5" font-family="Arial" font-size="10.00">mir/fatal.h</text>
</a>
</g>
</g>
<!-- Node29&#45;&gt;Node30 -->
<g id="edge53" class="edge">
<title>Node29&#45;&gt;Node30</title>
<path fill="none" stroke="midnightblue" d="M517.45,-336.42C562.55,-327.4 635.52,-312.77 698.5,-300 698.6,-299.98 698.7,-299.96 698.8,-299.94"/>
<polygon fill="midnightblue" stroke="midnightblue" points="699.29,-303.41 708.39,-297.99 697.9,-296.55 699.29,-303.41"/>
</g>
<!-- Node31 -->
<g id="node31" class="node">
<title>Node31</title>
<g id="a_node31"><a xlink:title=" ">
<polygon fill="white" stroke="#bfbfbf" points="645,-280.5 645,-299.5 690,-299.5 690,-280.5 645,-280.5"/>
<text text-anchor="middle" x="667.5" y="-287.5" font-family="Arial" font-size="10.00">utility</text>
</a>
</g>
</g>
<!-- Node29&#45;&gt;Node31 -->
<g id="edge54" class="edge">
<title>Node29&#45;&gt;Node31</title>
<path fill="none" stroke="midnightblue" d="M505.08,-336.44C540.49,-326.54 598.58,-310.28 634.84,-300.14"/>
<polygon fill="midnightblue" stroke="midnightblue" points="636.21,-303.39 644.9,-297.32 634.33,-296.65 636.21,-303.39"/>
</g>
<!-- Node32&#45;&gt;Node7 -->
<g id="edge56" class="edge">
<title>Node32&#45;&gt;Node7</title>
<path fill="none" stroke="midnightblue" d="M100.01,-336.32C107.1,-317.96 122.5,-273.66 122.5,-235 122.5,-235 122.5,-235 122.5,-121 122.5,-54.05 214.76,-26.48 266.43,-16.3"/>
<polygon fill="midnightblue" stroke="midnightblue" points="267.3,-19.7 276.49,-14.43 266.02,-12.81 267.3,-19.7"/>
</g>
<!-- Node32&#45;&gt;Node33 -->
<g id="edge57" class="edge">
<title>Node32&#45;&gt;Node33</title>
<path fill="none" stroke="midnightblue" d="M86.22,-336.32C76.66,-328.26 62.22,-316.08 50.72,-306.37"/>
<polygon fill="midnightblue" stroke="midnightblue" points="52.87,-303.61 42.97,-299.83 48.36,-308.96 52.87,-303.61"/>
</g>
<!-- Node35&#45;&gt;Node22 -->
<g id="edge66" class="edge">
<title>Node35&#45;&gt;Node22</title>
<path fill="none" stroke="midnightblue" d="M846.34,-459.46C842.68,-432.43 831.26,-348.24 826.09,-310.11"/>
<polygon fill="midnightblue" stroke="midnightblue" points="829.51,-309.31 824.7,-299.87 822.58,-310.25 829.51,-309.31"/>
</g>
<!-- Node36&#45;&gt;Node21 -->
<g id="edge68" class="edge">
<title>Node36&#45;&gt;Node21</title>
<path fill="none" stroke="midnightblue" d="M1031.86,-515.37C1055.52,-481.24 1108.42,-392.91 1067.5,-336 1057.53,-322.14 1018.83,-310.06 985.57,-301.91"/>
<polygon fill="midnightblue" stroke="midnightblue" points="985.99,-298.41 975.46,-299.51 984.38,-305.23 985.99,-298.41"/>
</g>
</g>
</svg>
