<?xml version="1.0" encoding="UTF-8" standalone="no"?>
<!DOCTYPE svg PUBLIC "-//W3C//DTD SVG 1.1//EN"
 "http://www.w3.org/Graphics/SVG/1.1/DTD/svg11.dtd">
<!-- Generated by graphviz version 2.43.0 (0)
 -->
<!-- Title: include/core/mir/geometry/forward.h Pages: 1 -->
<svg width="1821pt" height="787pt"
 viewBox="0.00 0.00 1821.00 787.00" xmlns="http://www.w3.org/2000/svg" xmlns:xlink="http://www.w3.org/1999/xlink">
<g id="graph0" class="graph" transform="scale(1 1) rotate(0) translate(4 783)">
<title>include/core/mir/geometry/forward.h</title>
<polygon fill="white" stroke="transparent" points="-4,4 -4,-783 1817,-783 1817,4 -4,4"/>
<!-- Node1 -->
<g id="node1" class="node">
<title>Node1</title>
<g id="a_node1"><a xlink:title=" ">
<polygon fill="#bfbfbf" stroke="black" points="678.5,-748.5 678.5,-778.5 807.5,-778.5 807.5,-748.5 678.5,-748.5"/>
<text text-anchor="start" x="686.5" y="-766.5" font-family="Arial" font-size="10.00">include/core/mir/geometry</text>
<text text-anchor="middle" x="743" y="-755.5" font-family="Arial" font-size="10.00">/forward.h</text>
</a>
</g>
</g>
<!-- Node2 -->
<g id="node2" class="node">
<title>Node2</title>
<g id="a_node2"><a xlink:href="dimensions_8h.html" target="_top" xlink:title=" ">
<polygon fill="white" stroke="black" points="566.5,-681.5 566.5,-711.5 695.5,-711.5 695.5,-681.5 566.5,-681.5"/>
<text text-anchor="start" x="574.5" y="-699.5" font-family="Arial" font-size="10.00">include/core/mir/geometry</text>
<text text-anchor="middle" x="631" y="-688.5" font-family="Arial" font-size="10.00">/dimensions.h</text>
</a>
</g>
</g>
<!-- Node1&#45;&gt;Node2 -->
<g id="edge1" class="edge">
<title>Node1&#45;&gt;Node2</title>
<path fill="none" stroke="midnightblue" d="M709.91,-743.3C692.38,-733.12 671.24,-720.85 655.25,-711.58"/>
<polygon fill="midnightblue" stroke="midnightblue" points="708.29,-746.4 718.7,-748.4 711.81,-740.35 708.29,-746.4"/>
</g>
<!-- Node3 -->
<g id="node3" class="node">
<title>Node3</title>
<g id="a_node3"><a xlink:href="displacement_8h.html" target="_top" xlink:title=" ">
<polygon fill="white" stroke="black" points="385.5,-547.5 385.5,-577.5 514.5,-577.5 514.5,-547.5 385.5,-547.5"/>
<text text-anchor="start" x="393.5" y="-565.5" font-family="Arial" font-size="10.00">include/core/mir/geometry</text>
<text text-anchor="middle" x="450" y="-554.5" font-family="Arial" font-size="10.00">/displacement.h</text>
</a>
</g>
</g>
<!-- Node1&#45;&gt;Node3 -->
<g id="edge66" class="edge">
<title>Node1&#45;&gt;Node3</title>
<path fill="none" stroke="midnightblue" d="M668.2,-753.82C632.42,-746.87 590.43,-734.39 558,-712 506.32,-676.32 470.22,-607.62 456.33,-577.84"/>
<polygon fill="midnightblue" stroke="midnightblue" points="667.65,-757.28 678.12,-755.64 668.91,-750.39 667.65,-757.28"/>
</g>
<!-- Node7 -->
<g id="node7" class="node">
<title>Node7</title>
<g id="a_node7"><a xlink:href="rectangle_8h.html" target="_top" xlink:title=" ">
<polygon fill="white" stroke="black" points="697.5,-480.5 697.5,-510.5 826.5,-510.5 826.5,-480.5 697.5,-480.5"/>
<text text-anchor="start" x="705.5" y="-498.5" font-family="Arial" font-size="10.00">include/core/mir/geometry</text>
<text text-anchor="middle" x="762" y="-487.5" font-family="Arial" font-size="10.00">/rectangle.h</text>
</a>
</g>
</g>
<!-- Node1&#45;&gt;Node7 -->
<g id="edge68" class="edge">
<title>Node1&#45;&gt;Node7</title>
<path fill="none" stroke="midnightblue" d="M744.75,-738.07C748.64,-683.57 757.93,-553.52 761,-510.55"/>
<polygon fill="midnightblue" stroke="midnightblue" points="741.24,-737.97 744.02,-748.2 748.23,-738.47 741.24,-737.97"/>
</g>
<!-- Node26 -->
<g id="node26" class="node">
<title>Node26</title>
<g id="a_node26"><a xlink:href="point_8h.html" target="_top" xlink:title=" ">
<polygon fill="white" stroke="black" points="567.5,-614.5 567.5,-644.5 696.5,-644.5 696.5,-614.5 567.5,-614.5"/>
<text text-anchor="start" x="575.5" y="-632.5" font-family="Arial" font-size="10.00">include/core/mir/geometry</text>
<text text-anchor="middle" x="632" y="-621.5" font-family="Arial" font-size="10.00">/point.h</text>
</a>
</g>
</g>
<!-- Node1&#45;&gt;Node26 -->
<g id="edge67" class="edge">
<title>Node1&#45;&gt;Node26</title>
<path fill="none" stroke="midnightblue" d="M735.56,-738.34C729.37,-721.04 719.26,-697.9 705,-681 692.38,-666.04 674.31,-653.5 659.31,-644.65"/>
<polygon fill="midnightblue" stroke="midnightblue" points="732.39,-739.91 738.91,-748.26 739.02,-737.67 732.39,-739.91"/>
</g>
<!-- Node28 -->
<g id="node28" class="node">
<title>Node28</title>
<g id="a_node28"><a xlink:href="size_8h.html" target="_top" xlink:title=" ">
<polygon fill="white" stroke="black" points="859.5,-547.5 859.5,-577.5 988.5,-577.5 988.5,-547.5 859.5,-547.5"/>
<text text-anchor="start" x="867.5" y="-565.5" font-family="Arial" font-size="10.00">include/core/mir/geometry</text>
<text text-anchor="middle" x="924" y="-554.5" font-family="Arial" font-size="10.00">/size.h</text>
</a>
</g>
</g>
<!-- Node1&#45;&gt;Node28 -->
<g id="edge69" class="edge">
<title>Node1&#45;&gt;Node28</title>
<path fill="none" stroke="midnightblue" d="M762.9,-740.62C800.25,-699.56 879.91,-611.97 911.1,-577.68"/>
<polygon fill="midnightblue" stroke="midnightblue" points="760.16,-738.44 756.02,-748.19 765.33,-743.15 760.16,-738.44"/>
</g>
<!-- Node39 -->
<g id="node39" class="node">
<title>Node39</title>
<g id="a_node39"><a xlink:href="display__listener__wrapper_8h.html" target="_top" xlink:title=" ">
<polygon fill="white" stroke="black" points="866.5,-681.5 866.5,-711.5 1001.5,-711.5 1001.5,-681.5 866.5,-681.5"/>
<text text-anchor="start" x="874.5" y="-699.5" font-family="Arial" font-size="10.00">include/miroil/miroil</text>
<text text-anchor="middle" x="934" y="-688.5" font-family="Arial" font-size="10.00">/display_listener_wrapper.h</text>
</a>
</g>
</g>
<!-- Node1&#45;&gt;Node39 -->
<g id="edge70" class="edge">
<title>Node1&#45;&gt;Node39</title>
<path fill="none" stroke="midnightblue" d="M794.15,-745.09C824.99,-734.6 863.75,-721.41 892.64,-711.58"/>
<polygon fill="midnightblue" stroke="midnightblue" points="792.78,-741.86 784.44,-748.4 795.04,-748.49 792.78,-741.86"/>
</g>
<!-- Node2&#45;&gt;Node3 -->
<g id="edge2" class="edge">
<title>Node2&#45;&gt;Node3</title>
<path fill="none" stroke="midnightblue" d="M602.14,-675.55C588.92,-666.35 573.1,-655.21 559,-645 526.85,-621.71 489.96,-593.89 468.39,-577.52"/>
<polygon fill="midnightblue" stroke="midnightblue" points="600.19,-678.46 610.4,-681.3 604.19,-672.72 600.19,-678.46"/>
</g>
<!-- Node2&#45;&gt;Node26 -->
<g id="edge43" class="edge">
<title>Node2&#45;&gt;Node26</title>
<path fill="none" stroke="midnightblue" d="M631.38,-671.11C631.51,-662.15 631.66,-652.32 631.78,-644.58"/>
<polygon fill="midnightblue" stroke="midnightblue" points="627.87,-671.34 631.22,-681.4 634.87,-671.45 627.87,-671.34"/>
</g>
<!-- Node2&#45;&gt;Node28 -->
<g id="edge49" class="edge">
<title>Node2&#45;&gt;Node28</title>
<path fill="none" stroke="midnightblue" d="M671.48,-677.26C730.62,-650.62 839.42,-601.6 892.8,-577.56"/>
<polygon fill="midnightblue" stroke="midnightblue" points="669.76,-674.2 662.08,-681.5 672.63,-680.58 669.76,-674.2"/>
</g>
<!-- Node4 -->
<g id="node4" class="node">
<title>Node4</title>
<g id="a_node4"><a xlink:href="tiling__window__manager_8h.html" target="_top" xlink:title=" ">
<polygon fill="white" stroke="black" points="0,-134.5 0,-164.5 142,-164.5 142,-134.5 0,-134.5"/>
<text text-anchor="start" x="8" y="-152.5" font-family="Arial" font-size="10.00">examples/example&#45;server</text>
<text text-anchor="middle" x="71" y="-141.5" font-family="Arial" font-size="10.00">&#45;lib/tiling_window_manager.h</text>
</a>
</g>
</g>
<!-- Node3&#45;&gt;Node4 -->
<g id="edge3" class="edge">
<title>Node3&#45;&gt;Node4</title>
<path fill="none" stroke="midnightblue" d="M422.98,-541.09C411.8,-532.24 398.92,-521.51 388,-511 258.03,-385.84 121.17,-214.54 82.03,-164.66"/>
<polygon fill="midnightblue" stroke="midnightblue" points="421.11,-544.07 431.15,-547.46 425.41,-538.55 421.11,-544.07"/>
</g>
<!-- Node3&#45;&gt;Node7 -->
<g id="edge6" class="edge">
<title>Node3&#45;&gt;Node7</title>
<path fill="none" stroke="midnightblue" d="M524.61,-545.96C577.28,-534.98 647.15,-520.43 697.44,-509.95"/>
<polygon fill="midnightblue" stroke="midnightblue" points="523.72,-542.57 514.65,-548.03 525.15,-549.42 523.72,-542.57"/>
</g>
<!-- Node12 -->
<g id="node12" class="node">
<title>Node12</title>
<g id="a_node12"><a xlink:href="window__manager__tools_8h.html" target="_top" xlink:title=" ">
<polygon fill="white" stroke="black" points="444,-201.5 444,-231.5 574,-231.5 574,-201.5 444,-201.5"/>
<text text-anchor="start" x="452" y="-219.5" font-family="Arial" font-size="10.00">include/miral/miral</text>
<text text-anchor="middle" x="509" y="-208.5" font-family="Arial" font-size="10.00">/window_manager_tools.h</text>
</a>
</g>
</g>
<!-- Node3&#45;&gt;Node12 -->
<g id="edge41" class="edge">
<title>Node3&#45;&gt;Node12</title>
<path fill="none" stroke="midnightblue" d="M429.92,-539.48C408.62,-513.77 378,-468.98 378,-424 378,-424 378,-424 378,-349.5 378,-292.84 439.57,-251.83 478.29,-231.64"/>
<polygon fill="midnightblue" stroke="midnightblue" points="427.3,-541.81 436.46,-547.14 432.62,-537.26 427.3,-541.81"/>
</g>
<!-- Node20 -->
<g id="node20" class="node">
<title>Node20</title>
<g id="a_node20"><a xlink:href="window__management__policy_8h.html" target="_top" xlink:title=" ">
<polygon fill="white" stroke="black" points="274,-201.5 274,-231.5 426,-231.5 426,-201.5 274,-201.5"/>
<text text-anchor="start" x="282" y="-219.5" font-family="Arial" font-size="10.00">include/miral/miral</text>
<text text-anchor="middle" x="350" y="-208.5" font-family="Arial" font-size="10.00">/window_management_policy.h</text>
</a>
</g>
</g>
<!-- Node3&#45;&gt;Node20 -->
<g id="edge40" class="edge">
<title>Node3&#45;&gt;Node20</title>
<path fill="none" stroke="midnightblue" d="M398.19,-543.56C349.48,-523 284,-484.17 284,-424 284,-424 284,-424 284,-349.5 284,-302.36 318.1,-254.79 337.27,-231.76"/>
<polygon fill="midnightblue" stroke="midnightblue" points="397.1,-546.89 407.68,-547.42 399.74,-540.41 397.1,-546.89"/>
</g>
<!-- Node21 -->
<g id="node21" class="node">
<title>Node21</title>
<g id="a_node21"><a xlink:href="window__specification_8h.html" target="_top" xlink:title=" ">
<polygon fill="white" stroke="black" points="406.5,-335.5 406.5,-365.5 527.5,-365.5 527.5,-335.5 406.5,-335.5"/>
<text text-anchor="start" x="414.5" y="-353.5" font-family="Arial" font-size="10.00">include/miral/miral</text>
<text text-anchor="middle" x="467" y="-342.5" font-family="Arial" font-size="10.00">/window_specification.h</text>
</a>
</g>
</g>
<!-- Node3&#45;&gt;Node21 -->
<g id="edge42" class="edge">
<title>Node3&#45;&gt;Node21</title>
<path fill="none" stroke="midnightblue" d="M451.96,-537.26C455.54,-493.08 463.01,-400.74 465.86,-365.54"/>
<polygon fill="midnightblue" stroke="midnightblue" points="448.46,-537.15 451.14,-547.4 455.44,-537.71 448.46,-537.15"/>
</g>
<!-- Node5 -->
<g id="node5" class="node">
<title>Node5</title>
<g id="a_node5"><a xlink:href="tiling__window__manager_8cpp.html" target="_top" xlink:title=" ">
<polygon fill="white" stroke="black" points="462,-67.5 462,-97.5 614,-97.5 614,-67.5 462,-67.5"/>
<text text-anchor="start" x="470" y="-85.5" font-family="Arial" font-size="10.00">examples/example&#45;server</text>
<text text-anchor="middle" x="538" y="-74.5" font-family="Arial" font-size="10.00">&#45;lib/tiling_window_manager.cpp</text>
</a>
</g>
</g>
<!-- Node4&#45;&gt;Node5 -->
<g id="edge4" class="edge">
<title>Node4&#45;&gt;Node5</title>
<path fill="none" stroke="midnightblue" d="M151.99,-133.89C265.67,-116.36 385.89,-101.35 461.84,-92.31"/>
<polygon fill="midnightblue" stroke="midnightblue" points="151.41,-130.44 142.07,-135.43 152.49,-137.36 151.41,-130.44"/>
</g>
<!-- Node6 -->
<g id="node6" class="node">
<title>Node6</title>
<g id="a_node6"><a xlink:href="shell__main_8cpp.html" target="_top" xlink:title=" ">
<polygon fill="white" stroke="black" points="18,-0.5 18,-30.5 124,-30.5 124,-0.5 18,-0.5"/>
<text text-anchor="start" x="26" y="-18.5" font-family="Arial" font-size="10.00">examples/miral&#45;shell</text>
<text text-anchor="middle" x="71" y="-7.5" font-family="Arial" font-size="10.00">/shell_main.cpp</text>
</a>
</g>
</g>
<!-- Node4&#45;&gt;Node6 -->
<g id="edge5" class="edge">
<title>Node4&#45;&gt;Node6</title>
<path fill="none" stroke="midnightblue" d="M71,-124.02C71,-96.51 71,-52.79 71,-30.52"/>
<polygon fill="midnightblue" stroke="midnightblue" points="67.5,-124.37 71,-134.37 74.5,-124.37 67.5,-124.37"/>
</g>
<!-- Node8 -->
<g id="node8" class="node">
<title>Node8</title>
<g id="a_node8"><a xlink:href="rectangles_8h.html" target="_top" xlink:title=" ">
<polygon fill="white" stroke="black" points="474.5,-408 474.5,-438 603.5,-438 603.5,-408 474.5,-408"/>
<text text-anchor="start" x="482.5" y="-426" font-family="Arial" font-size="10.00">include/core/mir/geometry</text>
<text text-anchor="middle" x="539" y="-415" font-family="Arial" font-size="10.00">/rectangles.h</text>
</a>
</g>
</g>
<!-- Node7&#45;&gt;Node8 -->
<g id="edge7" class="edge">
<title>Node7&#45;&gt;Node8</title>
<path fill="none" stroke="midnightblue" d="M707.78,-477.36C669.7,-465.32 619.38,-449.41 583.62,-438.11"/>
<polygon fill="midnightblue" stroke="midnightblue" points="707.09,-480.81 717.68,-480.49 709.2,-474.14 707.09,-480.81"/>
</g>
<!-- Node22 -->
<g id="node22" class="node">
<title>Node22</title>
<g id="a_node22"><a xlink:href="output_8h.html" target="_top" xlink:title=" ">
<polygon fill="white" stroke="black" points="660.5,-408 660.5,-438 755.5,-438 755.5,-408 660.5,-408"/>
<text text-anchor="start" x="668.5" y="-426" font-family="Arial" font-size="10.00">include/miral/miral</text>
<text text-anchor="middle" x="708" y="-415" font-family="Arial" font-size="10.00">/output.h</text>
</a>
</g>
</g>
<!-- Node7&#45;&gt;Node22 -->
<g id="edge34" class="edge">
<title>Node7&#45;&gt;Node22</title>
<path fill="none" stroke="midnightblue" d="M744.93,-472.21C736.42,-461.1 726.37,-447.99 718.91,-438.25"/>
<polygon fill="midnightblue" stroke="midnightblue" points="742.21,-474.42 751.07,-480.23 747.77,-470.17 742.21,-474.42"/>
</g>
<!-- Node23 -->
<g id="node23" class="node">
<title>Node23</title>
<g id="a_node23"><a xlink:href="zone_8h.html" target="_top" xlink:title=" ">
<polygon fill="white" stroke="black" points="746.5,-134.5 746.5,-164.5 841.5,-164.5 841.5,-134.5 746.5,-134.5"/>
<text text-anchor="start" x="754.5" y="-152.5" font-family="Arial" font-size="10.00">include/miral/miral</text>
<text text-anchor="middle" x="794" y="-141.5" font-family="Arial" font-size="10.00">/zone.h</text>
</a>
</g>
</g>
<!-- Node7&#45;&gt;Node23 -->
<g id="edge35" class="edge">
<title>Node7&#45;&gt;Node23</title>
<path fill="none" stroke="midnightblue" d="M767.96,-470.62C774.47,-442.37 784,-393.82 784,-351.5 784,-351.5 784,-351.5 784,-282.5 784,-239.52 789.34,-188.9 792.21,-164.73"/>
<polygon fill="midnightblue" stroke="midnightblue" points="764.54,-469.86 765.63,-480.4 771.35,-471.48 764.54,-469.86"/>
</g>
<!-- Node24 -->
<g id="node24" class="node">
<title>Node24</title>
<g id="a_node24"><a xlink:href="display__configuration__storage_8h.html" target="_top" xlink:title=" ">
<polygon fill="white" stroke="black" points="812.5,-402.5 812.5,-443.5 923.5,-443.5 923.5,-402.5 812.5,-402.5"/>
<text text-anchor="start" x="820.5" y="-431.5" font-family="Arial" font-size="10.00">include/miroil/miroil</text>
<text text-anchor="start" x="820.5" y="-420.5" font-family="Arial" font-size="10.00">/display_configuration</text>
<text text-anchor="middle" x="868" y="-409.5" font-family="Arial" font-size="10.00">_storage.h</text>
</a>
</g>
</g>
<!-- Node7&#45;&gt;Node24 -->
<g id="edge38" class="edge">
<title>Node7&#45;&gt;Node24</title>
<path fill="none" stroke="midnightblue" d="M791.84,-474.65C806.4,-464.97 823.88,-453.35 838.41,-443.68"/>
<polygon fill="midnightblue" stroke="midnightblue" points="789.58,-471.95 783.2,-480.4 793.46,-477.78 789.58,-471.95"/>
</g>
<!-- Node25 -->
<g id="node25" class="node">
<title>Node25</title>
<g id="a_node25"><a xlink:href="surface__observer_8h.html" target="_top" xlink:title=" ">
<polygon fill="white" stroke="black" points="941.5,-408 941.5,-438 1044.5,-438 1044.5,-408 941.5,-408"/>
<text text-anchor="start" x="949.5" y="-426" font-family="Arial" font-size="10.00">include/miroil/miroil</text>
<text text-anchor="middle" x="993" y="-415" font-family="Arial" font-size="10.00">/surface_observer.h</text>
</a>
</g>
</g>
<!-- Node7&#45;&gt;Node25 -->
<g id="edge39" class="edge">
<title>Node7&#45;&gt;Node25</title>
<path fill="none" stroke="midnightblue" d="M821.1,-477.59C854.11,-468.01 895.93,-455.65 933,-444 938.97,-442.12 945.26,-440.09 951.42,-438.07"/>
<polygon fill="midnightblue" stroke="midnightblue" points="819.79,-474.33 811.15,-480.47 821.73,-481.05 819.79,-474.33"/>
</g>
<!-- Node9 -->
<g id="node9" class="node">
<title>Node9</title>
<g id="a_node9"><a xlink:href="window__info_8h.html" target="_top" xlink:title=" ">
<polygon fill="white" stroke="black" points="584.5,-268.5 584.5,-298.5 679.5,-298.5 679.5,-268.5 584.5,-268.5"/>
<text text-anchor="start" x="592.5" y="-286.5" font-family="Arial" font-size="10.00">include/miral/miral</text>
<text text-anchor="middle" x="632" y="-275.5" font-family="Arial" font-size="10.00">/window_info.h</text>
</a>
</g>
</g>
<!-- Node8&#45;&gt;Node9 -->
<g id="edge8" class="edge">
<title>Node8&#45;&gt;Node9</title>
<path fill="none" stroke="midnightblue" d="M554.36,-399.29C573.65,-370.76 606.17,-322.69 622.31,-298.83"/>
<polygon fill="midnightblue" stroke="midnightblue" points="551.31,-397.56 548.6,-407.8 557.1,-401.48 551.31,-397.56"/>
</g>
<!-- Node8&#45;&gt;Node20 -->
<g id="edge28" class="edge">
<title>Node8&#45;&gt;Node20</title>
<path fill="none" stroke="midnightblue" d="M543.93,-398.01C546.42,-379.55 546.94,-354.07 536,-335 505.11,-281.17 438.49,-248.33 393.95,-231.53"/>
<polygon fill="midnightblue" stroke="midnightblue" points="540.46,-397.53 542.3,-407.96 547.37,-398.65 540.46,-397.53"/>
</g>
<!-- Node8&#45;&gt;Node21 -->
<g id="edge32" class="edge">
<title>Node8&#45;&gt;Node21</title>
<path fill="none" stroke="midnightblue" d="M517.23,-400.69C505.68,-389.37 491.79,-375.77 481.55,-365.75"/>
<polygon fill="midnightblue" stroke="midnightblue" points="514.84,-403.24 524.43,-407.73 519.73,-398.24 514.84,-403.24"/>
</g>
<!-- Node9&#45;&gt;Node5 -->
<g id="edge10" class="edge">
<title>Node9&#45;&gt;Node5</title>
<path fill="none" stroke="midnightblue" d="M620.93,-259.06C601.24,-217.38 560.69,-131.54 544.7,-97.68"/>
<polygon fill="midnightblue" stroke="midnightblue" points="617.8,-260.64 625.24,-268.19 624.13,-257.65 617.8,-260.64"/>
</g>
<!-- Node10 -->
<g id="node10" class="node">
<title>Node10</title>
<g id="a_node10"><a xlink:href="floating__window__manager_8cpp.html" target="_top" xlink:title=" ">
<polygon fill="white" stroke="black" points="636,-0.5 636,-30.5 800,-30.5 800,-0.5 636,-0.5"/>
<text text-anchor="start" x="644" y="-18.5" font-family="Arial" font-size="10.00">examples/example&#45;server</text>
<text text-anchor="middle" x="718" y="-7.5" font-family="Arial" font-size="10.00">&#45;lib/floating_window_manager.cpp</text>
</a>
</g>
</g>
<!-- Node9&#45;&gt;Node10 -->
<g id="edge9" class="edge">
<title>Node9&#45;&gt;Node10</title>
<path fill="none" stroke="midnightblue" d="M666.05,-262.34C676.74,-254.28 687.45,-244.02 694,-232 730.94,-164.24 724.11,-66.81 719.92,-30.68"/>
<polygon fill="midnightblue" stroke="midnightblue" points="663.72,-259.71 657.56,-268.33 667.75,-265.43 663.72,-259.71"/>
</g>
<!-- Node11 -->
<g id="node11" class="node">
<title>Node11</title>
<g id="a_node11"><a xlink:href="kiosk__window__manager_8cpp.html" target="_top" xlink:title=" ">
<polygon fill="white" stroke="black" points="362.5,-0.5 362.5,-30.5 505.5,-30.5 505.5,-0.5 362.5,-0.5"/>
<text text-anchor="start" x="370.5" y="-18.5" font-family="Arial" font-size="10.00">examples/miral&#45;kiosk</text>
<text text-anchor="middle" x="434" y="-7.5" font-family="Arial" font-size="10.00">/kiosk_window_manager.cpp</text>
</a>
</g>
</g>
<!-- Node9&#45;&gt;Node11 -->
<g id="edge11" class="edge">
<title>Node9&#45;&gt;Node11</title>
<path fill="none" stroke="midnightblue" d="M639.16,-258.83C650.68,-215.52 667.79,-122.87 623,-67 608.08,-48.38 552.61,-34.99 505.59,-26.69"/>
<polygon fill="midnightblue" stroke="midnightblue" points="635.79,-257.91 636.47,-268.48 642.53,-259.79 635.79,-257.91"/>
</g>
<!-- Node9&#45;&gt;Node12 -->
<g id="edge12" class="edge">
<title>Node9&#45;&gt;Node12</title>
<path fill="none" stroke="midnightblue" d="M596.45,-263.71C577.05,-253.46 553.44,-240.98 535.64,-231.58"/>
<polygon fill="midnightblue" stroke="midnightblue" points="594.83,-266.82 605.31,-268.4 598.1,-260.63 594.83,-266.82"/>
</g>
<!-- Node12&#45;&gt;Node4 -->
<g id="edge18" class="edge">
<title>Node12&#45;&gt;Node4</title>
<path fill="none" stroke="midnightblue" d="M433.64,-200.85C307.67,-180.92 273.56,-183.86 151,-165 148.07,-164.55 145.08,-164.07 142.07,-163.58"/>
<polygon fill="midnightblue" stroke="midnightblue" points="433.25,-204.33 443.67,-202.45 434.35,-197.42 433.25,-204.33"/>
</g>
<!-- Node12&#45;&gt;Node5 -->
<g id="edge17" class="edge">
<title>Node12&#45;&gt;Node5</title>
<path fill="none" stroke="midnightblue" d="M514.3,-191.39C520.34,-163.9 530.01,-119.89 534.92,-97.52"/>
<polygon fill="midnightblue" stroke="midnightblue" points="510.83,-190.86 512.1,-201.37 517.67,-192.36 510.83,-190.86"/>
</g>
<!-- Node12&#45;&gt;Node10 -->
<g id="edge16" class="edge">
<title>Node12&#45;&gt;Node10</title>
<path fill="none" stroke="midnightblue" d="M531.44,-194.14C574.34,-153.29 666.94,-65.11 703.11,-30.68"/>
<polygon fill="midnightblue" stroke="midnightblue" points="528.86,-191.76 524.03,-201.19 533.69,-196.83 528.86,-191.76"/>
</g>
<!-- Node12&#45;&gt;Node11 -->
<g id="edge19" class="edge">
<title>Node12&#45;&gt;Node11</title>
<path fill="none" stroke="midnightblue" d="M502.51,-191.38C497.53,-174.72 489.85,-152.34 480,-134 470.54,-116.38 461.45,-116.13 453,-98 442.62,-75.75 437.67,-47.36 435.5,-30.63"/>
<polygon fill="midnightblue" stroke="midnightblue" points="499.27,-192.76 505.39,-201.41 505.99,-190.83 499.27,-192.76"/>
</g>
<!-- Node13 -->
<g id="node13" class="node">
<title>Node13</title>
<g id="a_node13"><a xlink:href="decoration__provider_8h.html" target="_top" xlink:title=" ">
<polygon fill="white" stroke="black" points="860,-134.5 860,-164.5 988,-164.5 988,-134.5 860,-134.5"/>
<text text-anchor="start" x="868" y="-152.5" font-family="Arial" font-size="10.00">examples/example&#45;server</text>
<text text-anchor="middle" x="924" y="-141.5" font-family="Arial" font-size="10.00">&#45;lib/decoration_provider.h</text>
</a>
</g>
</g>
<!-- Node12&#45;&gt;Node13 -->
<g id="edge13" class="edge">
<title>Node12&#45;&gt;Node13</title>
<path fill="none" stroke="midnightblue" d="M584.05,-205.51C653.45,-196.01 759.4,-180.85 851,-165 853.93,-164.49 856.92,-163.96 859.94,-163.41"/>
<polygon fill="midnightblue" stroke="midnightblue" points="583.52,-202.05 574.08,-206.87 584.46,-208.98 583.52,-202.05"/>
</g>
<!-- Node15 -->
<g id="node15" class="node">
<title>Node15</title>
<g id="a_node15"><a xlink:href="canonical__window__manager_8h.html" target="_top" xlink:title=" ">
<polygon fill="white" stroke="black" points="160,-134.5 160,-164.5 310,-164.5 310,-134.5 160,-134.5"/>
<text text-anchor="start" x="168" y="-152.5" font-family="Arial" font-size="10.00">include/miral/miral</text>
<text text-anchor="middle" x="235" y="-141.5" font-family="Arial" font-size="10.00">/canonical_window_manager.h</text>
</a>
</g>
</g>
<!-- Node12&#45;&gt;Node15 -->
<g id="edge20" class="edge">
<title>Node12&#45;&gt;Node15</title>
<path fill="none" stroke="midnightblue" d="M439.95,-199.12C395.11,-188.48 337.28,-174.76 294.48,-164.61"/>
<polygon fill="midnightblue" stroke="midnightblue" points="439.35,-202.57 449.88,-201.48 440.96,-195.76 439.35,-202.57"/>
</g>
<!-- Node18 -->
<g id="node18" class="node">
<title>Node18</title>
<g id="a_node18"><a xlink:href="minimal__window__manager_8h.html" target="_top" xlink:title=" ">
<polygon fill="white" stroke="black" points="328.5,-134.5 328.5,-164.5 471.5,-164.5 471.5,-134.5 328.5,-134.5"/>
<text text-anchor="start" x="336.5" y="-152.5" font-family="Arial" font-size="10.00">include/miral/miral</text>
<text text-anchor="middle" x="400" y="-141.5" font-family="Arial" font-size="10.00">/minimal_window_manager.h</text>
</a>
</g>
</g>
<!-- Node12&#45;&gt;Node18 -->
<g id="edge24" class="edge">
<title>Node12&#45;&gt;Node18</title>
<path fill="none" stroke="midnightblue" d="M476.33,-196.02C459.36,-185.9 439.02,-173.77 423.61,-164.58"/>
<polygon fill="midnightblue" stroke="midnightblue" points="474.97,-199.28 485.35,-201.4 478.55,-193.27 474.97,-199.28"/>
</g>
<!-- Node13&#45;&gt;Node10 -->
<g id="edge15" class="edge">
<title>Node13&#45;&gt;Node10</title>
<path fill="none" stroke="midnightblue" d="M893.51,-128.96C851.49,-102.04 776.8,-54.17 739.89,-30.52"/>
<polygon fill="midnightblue" stroke="midnightblue" points="891.65,-131.93 901.95,-134.37 895.42,-126.03 891.65,-131.93"/>
</g>
<!-- Node14 -->
<g id="node14" class="node">
<title>Node14</title>
<g id="a_node14"><a xlink:href="decoration__provider_8cpp.html" target="_top" xlink:title=" ">
<polygon fill="white" stroke="black" points="1151,-67.5 1151,-97.5 1287,-97.5 1287,-67.5 1151,-67.5"/>
<text text-anchor="start" x="1159" y="-85.5" font-family="Arial" font-size="10.00">examples/example&#45;server</text>
<text text-anchor="middle" x="1219" y="-74.5" font-family="Arial" font-size="10.00">&#45;lib/decoration_provider.cpp</text>
</a>
</g>
</g>
<!-- Node13&#45;&gt;Node14 -->
<g id="edge14" class="edge">
<title>Node13&#45;&gt;Node14</title>
<path fill="none" stroke="midnightblue" d="M997.45,-132.32C1045.94,-121.63 1108.83,-107.77 1155.21,-97.55"/>
<polygon fill="midnightblue" stroke="midnightblue" points="996.66,-128.91 987.65,-134.48 998.17,-135.74 996.66,-128.91"/>
</g>
<!-- Node16 -->
<g id="node16" class="node">
<title>Node16</title>
<g id="a_node16"><a xlink:href="kiosk__window__manager_8h.html" target="_top" xlink:title=" ">
<polygon fill="white" stroke="black" points="102,-67.5 102,-97.5 234,-97.5 234,-67.5 102,-67.5"/>
<text text-anchor="start" x="110" y="-85.5" font-family="Arial" font-size="10.00">examples/miral&#45;kiosk</text>
<text text-anchor="middle" x="168" y="-74.5" font-family="Arial" font-size="10.00">/kiosk_window_manager.h</text>
</a>
</g>
</g>
<!-- Node15&#45;&gt;Node16 -->
<g id="edge21" class="edge">
<title>Node15&#45;&gt;Node16</title>
<path fill="none" stroke="midnightblue" d="M213.16,-127.31C203.11,-117.56 191.46,-106.26 182.51,-97.58"/>
<polygon fill="midnightblue" stroke="midnightblue" points="210.85,-129.94 220.46,-134.4 215.72,-124.92 210.85,-129.94"/>
</g>
<!-- Node16&#45;&gt;Node11 -->
<g id="edge23" class="edge">
<title>Node16&#45;&gt;Node11</title>
<path fill="none" stroke="midnightblue" d="M235.31,-65.05C278.8,-54.43 334.8,-40.74 376.25,-30.61"/>
<polygon fill="midnightblue" stroke="midnightblue" points="234.27,-61.7 225.39,-67.48 235.94,-68.5 234.27,-61.7"/>
</g>
<!-- Node17 -->
<g id="node17" class="node">
<title>Node17</title>
<g id="a_node17"><a xlink:href="kiosk__main_8cpp.html" target="_top" xlink:title=" ">
<polygon fill="white" stroke="black" points="142.5,-0.5 142.5,-30.5 251.5,-30.5 251.5,-0.5 142.5,-0.5"/>
<text text-anchor="start" x="150.5" y="-18.5" font-family="Arial" font-size="10.00">examples/miral&#45;kiosk</text>
<text text-anchor="middle" x="197" y="-7.5" font-family="Arial" font-size="10.00">/kiosk_main.cpp</text>
</a>
</g>
</g>
<!-- Node16&#45;&gt;Node17 -->
<g id="edge22" class="edge">
<title>Node16&#45;&gt;Node17</title>
<path fill="none" stroke="midnightblue" d="M178.49,-57.99C182.59,-48.8 187.15,-38.58 190.72,-30.58"/>
<polygon fill="midnightblue" stroke="midnightblue" points="175.17,-56.84 174.29,-67.4 181.56,-59.69 175.17,-56.84"/>
</g>
<!-- Node19 -->
<g id="node19" class="node">
<title>Node19</title>
<g id="a_node19"><a xlink:href="floating__window__manager_8h.html" target="_top" xlink:title=" ">
<polygon fill="white" stroke="black" points="252.5,-67.5 252.5,-97.5 405.5,-97.5 405.5,-67.5 252.5,-67.5"/>
<text text-anchor="start" x="260.5" y="-85.5" font-family="Arial" font-size="10.00">examples/example&#45;server</text>
<text text-anchor="middle" x="329" y="-74.5" font-family="Arial" font-size="10.00">&#45;lib/floating_window_manager.h</text>
</a>
</g>
</g>
<!-- Node18&#45;&gt;Node19 -->
<g id="edge25" class="edge">
<title>Node18&#45;&gt;Node19</title>
<path fill="none" stroke="midnightblue" d="M377.17,-127.6C366.45,-117.78 353.95,-106.34 344.38,-97.58"/>
<polygon fill="midnightblue" stroke="midnightblue" points="374.85,-130.22 384.59,-134.4 379.58,-125.06 374.85,-130.22"/>
</g>
<!-- Node19&#45;&gt;Node6 -->
<g id="edge27" class="edge">
<title>Node19&#45;&gt;Node6</title>
<path fill="none" stroke="midnightblue" d="M263.51,-65C220.42,-54.15 164.74,-40.12 124.36,-29.94"/>
<polygon fill="midnightblue" stroke="midnightblue" points="262.78,-68.43 273.34,-67.48 264.49,-61.64 262.78,-68.43"/>
</g>
<!-- Node19&#45;&gt;Node10 -->
<g id="edge26" class="edge">
<title>Node19&#45;&gt;Node10</title>
<path fill="none" stroke="midnightblue" d="M415.79,-67C481.56,-56.01 571.35,-41.01 635.93,-30.21"/>
<polygon fill="midnightblue" stroke="midnightblue" points="415.14,-63.56 405.85,-68.66 416.29,-70.46 415.14,-63.56"/>
</g>
<!-- Node20&#45;&gt;Node4 -->
<g id="edge29" class="edge">
<title>Node20&#45;&gt;Node4</title>
<path fill="none" stroke="midnightblue" d="M279.97,-199.19C234.28,-188.54 175.23,-174.78 131.57,-164.61"/>
<polygon fill="midnightblue" stroke="midnightblue" points="279.27,-202.62 289.8,-201.48 280.86,-195.8 279.27,-202.62"/>
</g>
<!-- Node20&#45;&gt;Node15 -->
<g id="edge30" class="edge">
<title>Node20&#45;&gt;Node15</title>
<path fill="none" stroke="midnightblue" d="M316.02,-196.3C298.03,-186.12 276.32,-173.85 259.9,-164.58"/>
<polygon fill="midnightblue" stroke="midnightblue" points="314.62,-199.52 325.05,-201.4 318.06,-193.43 314.62,-199.52"/>
</g>
<!-- Node20&#45;&gt;Node18 -->
<g id="edge31" class="edge">
<title>Node20&#45;&gt;Node18</title>
<path fill="none" stroke="midnightblue" d="M366.96,-193.45C374.31,-183.9 382.69,-173 389.17,-164.58"/>
<polygon fill="midnightblue" stroke="midnightblue" points="364.17,-191.34 360.85,-201.4 369.72,-195.6 364.17,-191.34"/>
</g>
<!-- Node21&#45;&gt;Node9 -->
<g id="edge33" class="edge">
<title>Node21&#45;&gt;Node9</title>
<path fill="none" stroke="midnightblue" d="M512.23,-331.68C538.69,-321.26 571.63,-308.28 596.27,-298.58"/>
<polygon fill="midnightblue" stroke="midnightblue" points="510.82,-328.47 502.8,-335.4 513.39,-334.99 510.82,-328.47"/>
</g>
<!-- Node23&#45;&gt;Node5 -->
<g id="edge37" class="edge">
<title>Node23&#45;&gt;Node5</title>
<path fill="none" stroke="midnightblue" d="M736.73,-133.96C693.9,-123.08 635.66,-108.3 593.31,-97.54"/>
<polygon fill="midnightblue" stroke="midnightblue" points="735.89,-137.36 746.45,-136.43 737.62,-130.57 735.89,-137.36"/>
</g>
<!-- Node23&#45;&gt;Node10 -->
<g id="edge36" class="edge">
<title>Node23&#45;&gt;Node10</title>
<path fill="none" stroke="midnightblue" d="M780.74,-125.48C764.97,-98.07 739.12,-53.19 726.07,-30.52"/>
<polygon fill="midnightblue" stroke="midnightblue" points="777.84,-127.45 785.87,-134.37 783.91,-123.96 777.84,-127.45"/>
</g>
<!-- Node26&#45;&gt;Node3 -->
<g id="edge44" class="edge">
<title>Node26&#45;&gt;Node3</title>
<path fill="none" stroke="midnightblue" d="M582.87,-610.96C553.56,-600.48 516.82,-587.37 489.41,-577.58"/>
<polygon fill="midnightblue" stroke="midnightblue" points="581.91,-614.33 592.51,-614.4 584.27,-607.74 581.91,-614.33"/>
</g>
<!-- Node26&#45;&gt;Node7 -->
<g id="edge45" class="edge">
<title>Node26&#45;&gt;Node7</title>
<path fill="none" stroke="midnightblue" d="M652.93,-607.25C679.72,-580.04 725.38,-533.68 748.19,-510.52"/>
<polygon fill="midnightblue" stroke="midnightblue" points="650.44,-604.79 645.91,-614.37 655.42,-609.7 650.44,-604.79"/>
</g>
<!-- Node26&#45;&gt;Node8 -->
<g id="edge46" class="edge">
<title>Node26&#45;&gt;Node8</title>
<path fill="none" stroke="midnightblue" d="M620.58,-605.28C609.05,-581.68 590.87,-543.99 576,-511 564.54,-485.56 551.98,-455.54 544.84,-438.25"/>
<polygon fill="midnightblue" stroke="midnightblue" points="617.54,-607.04 625.08,-614.48 623.83,-603.96 617.54,-607.04"/>
</g>
<!-- Node27 -->
<g id="node27" class="node">
<title>Node27</title>
<g id="a_node27"><a xlink:href="window_8h.html" target="_top" xlink:title=" ">
<polygon fill="white" stroke="black" points="584.5,-480.5 584.5,-510.5 679.5,-510.5 679.5,-480.5 584.5,-480.5"/>
<text text-anchor="start" x="592.5" y="-498.5" font-family="Arial" font-size="10.00">include/miral/miral</text>
<text text-anchor="middle" x="632" y="-487.5" font-family="Arial" font-size="10.00">/window.h</text>
</a>
</g>
</g>
<!-- Node26&#45;&gt;Node27 -->
<g id="edge47" class="edge">
<title>Node26&#45;&gt;Node27</title>
<path fill="none" stroke="midnightblue" d="M632,-604.02C632,-576.51 632,-532.79 632,-510.52"/>
<polygon fill="midnightblue" stroke="midnightblue" points="628.5,-604.37 632,-614.37 635.5,-604.37 628.5,-604.37"/>
</g>
<!-- Node27&#45;&gt;Node9 -->
<g id="edge48" class="edge">
<title>Node27&#45;&gt;Node9</title>
<path fill="none" stroke="midnightblue" d="M632,-470.26C632,-426.08 632,-333.74 632,-298.54"/>
<polygon fill="midnightblue" stroke="midnightblue" points="628.5,-470.4 632,-480.4 635.5,-470.4 628.5,-470.4"/>
</g>
<!-- Node28&#45;&gt;Node7 -->
<g id="edge62" class="edge">
<title>Node28&#45;&gt;Node7</title>
<path fill="none" stroke="midnightblue" d="M879.25,-543.54C853.33,-533.14 821.16,-520.24 797.08,-510.58"/>
<polygon fill="midnightblue" stroke="midnightblue" points="878.26,-546.92 888.85,-547.4 880.87,-540.42 878.26,-546.92"/>
</g>
<!-- Node28&#45;&gt;Node25 -->
<g id="edge65" class="edge">
<title>Node28&#45;&gt;Node25</title>
<path fill="none" stroke="midnightblue" d="M935.77,-538.04C950.13,-509.43 973.94,-461.98 985.81,-438.33"/>
<polygon fill="midnightblue" stroke="midnightblue" points="932.48,-536.8 931.12,-547.3 938.74,-539.94 932.48,-536.8"/>
</g>
<!-- Node28&#45;&gt;Node27 -->
<g id="edge63" class="edge">
<title>Node28&#45;&gt;Node27</title>
<path fill="none" stroke="midnightblue" d="M849.33,-546.2C803.06,-536.53 742.46,-523.54 689,-511 685.92,-510.28 682.75,-509.52 679.55,-508.74"/>
<polygon fill="midnightblue" stroke="midnightblue" points="848.77,-549.66 859.27,-548.27 850.19,-542.8 848.77,-549.66"/>
</g>
<!-- Node29 -->
<g id="node29" class="node">
<title>Node29</title>
<g id="a_node29"><a xlink:href="wayland__shm_8h.html" target="_top" xlink:title=" ">
<polygon fill="white" stroke="black" points="1063,-480.5 1063,-510.5 1191,-510.5 1191,-480.5 1063,-480.5"/>
<text text-anchor="start" x="1071" y="-498.5" font-family="Arial" font-size="10.00">examples/example&#45;server</text>
<text text-anchor="middle" x="1127" y="-487.5" font-family="Arial" font-size="10.00">&#45;lib/wayland_shm.h</text>
</a>
</g>
</g>
<!-- Node28&#45;&gt;Node29 -->
<g id="edge50" class="edge">
<title>Node28&#45;&gt;Node29</title>
<path fill="none" stroke="midnightblue" d="M977.94,-544.23C1010.78,-533.71 1052.2,-520.45 1083.04,-510.58"/>
<polygon fill="midnightblue" stroke="midnightblue" points="976.5,-541.01 968.05,-547.4 978.64,-547.68 976.5,-541.01"/>
</g>
<!-- Node32 -->
<g id="node32" class="node">
<title>Node32</title>
<g id="a_node32"><a xlink:href="wayland__surface_8h.html" target="_top" xlink:title=" ">
<polygon fill="white" stroke="black" points="1339,-480.5 1339,-510.5 1467,-510.5 1467,-480.5 1339,-480.5"/>
<text text-anchor="start" x="1347" y="-498.5" font-family="Arial" font-size="10.00">examples/example&#45;server</text>
<text text-anchor="middle" x="1403" y="-487.5" font-family="Arial" font-size="10.00">&#45;lib/wayland_surface.h</text>
</a>
</g>
</g>
<!-- Node28&#45;&gt;Node32 -->
<g id="edge54" class="edge">
<title>Node28&#45;&gt;Node32</title>
<path fill="none" stroke="midnightblue" d="M998.99,-552.83C1078.35,-543.43 1207.19,-527.54 1318,-511 1324.81,-509.98 1331.92,-508.86 1339,-507.71"/>
<polygon fill="midnightblue" stroke="midnightblue" points="998.13,-549.4 988.61,-554.05 998.95,-556.36 998.13,-549.4"/>
</g>
<!-- Node38 -->
<g id="node38" class="node">
<title>Node38</title>
<g id="a_node38"><a xlink:href="mirbuffer_8h.html" target="_top" xlink:title=" ">
<polygon fill="white" stroke="black" points="1209,-480.5 1209,-510.5 1309,-510.5 1309,-480.5 1209,-480.5"/>
<text text-anchor="start" x="1217" y="-498.5" font-family="Arial" font-size="10.00">include/miroil/miroil</text>
<text text-anchor="middle" x="1259" y="-487.5" font-family="Arial" font-size="10.00">/mirbuffer.h</text>
</a>
</g>
</g>
<!-- Node28&#45;&gt;Node38 -->
<g id="edge64" class="edge">
<title>Node28&#45;&gt;Node38</title>
<path fill="none" stroke="midnightblue" d="M998.76,-549.07C1054.42,-539.52 1132.18,-525.53 1200,-511 1202.89,-510.38 1205.85,-509.72 1208.84,-509.05"/>
<polygon fill="midnightblue" stroke="midnightblue" points="997.89,-545.67 988.63,-550.8 999.07,-552.57 997.89,-545.67"/>
</g>
<!-- Node29&#45;&gt;Node14 -->
<g id="edge51" class="edge">
<title>Node29&#45;&gt;Node14</title>
<path fill="none" stroke="midnightblue" d="M1166.15,-475.21C1178.73,-467.19 1191.58,-456.74 1200,-444 1223.14,-408.99 1219,-393.47 1219,-351.5 1219,-351.5 1219,-351.5 1219,-215.5 1219,-172.65 1219,-121.97 1219,-97.76"/>
<polygon fill="midnightblue" stroke="midnightblue" points="1164.32,-472.22 1157.54,-480.37 1167.92,-478.23 1164.32,-472.22"/>
</g>
<!-- Node30 -->
<g id="node30" class="node">
<title>Node30</title>
<g id="a_node30"><a xlink:href="sw__splash_8cpp.html" target="_top" xlink:title=" ">
<polygon fill="white" stroke="black" points="1247,-408 1247,-438 1375,-438 1375,-408 1247,-408"/>
<text text-anchor="start" x="1255" y="-426" font-family="Arial" font-size="10.00">examples/example&#45;server</text>
<text text-anchor="middle" x="1311" y="-415" font-family="Arial" font-size="10.00">&#45;lib/sw_splash.cpp</text>
</a>
</g>
</g>
<!-- Node29&#45;&gt;Node30 -->
<g id="edge52" class="edge">
<title>Node29&#45;&gt;Node30</title>
<path fill="none" stroke="midnightblue" d="M1173.17,-476.81C1204.44,-464.83 1245.2,-449.21 1274.27,-438.07"/>
<polygon fill="midnightblue" stroke="midnightblue" points="1171.88,-473.56 1163.79,-480.4 1174.38,-480.09 1171.88,-473.56"/>
</g>
<!-- Node31 -->
<g id="node31" class="node">
<title>Node31</title>
<g id="a_node31"><a xlink:href="wayland__shm_8cpp.html" target="_top" xlink:title=" ">
<polygon fill="white" stroke="black" points="1063,-408 1063,-438 1191,-438 1191,-408 1063,-408"/>
<text text-anchor="start" x="1071" y="-426" font-family="Arial" font-size="10.00">examples/example&#45;server</text>
<text text-anchor="middle" x="1127" y="-415" font-family="Arial" font-size="10.00">&#45;lib/wayland_shm.cpp</text>
</a>
</g>
</g>
<!-- Node29&#45;&gt;Node31 -->
<g id="edge53" class="edge">
<title>Node29&#45;&gt;Node31</title>
<path fill="none" stroke="midnightblue" d="M1127,-470.23C1127,-459.57 1127,-447.41 1127,-438.25"/>
<polygon fill="midnightblue" stroke="midnightblue" points="1123.5,-470.23 1127,-480.23 1130.5,-470.23 1123.5,-470.23"/>
</g>
<!-- Node32&#45;&gt;Node14 -->
<g id="edge55" class="edge">
<title>Node32&#45;&gt;Node14</title>
<path fill="none" stroke="midnightblue" d="M1403,-470.07C1403,-441.61 1403,-393.14 1403,-351.5 1403,-351.5 1403,-351.5 1403,-215.5 1403,-151.22 1327.95,-115.21 1273.71,-97.57"/>
<polygon fill="midnightblue" stroke="midnightblue" points="1399.5,-470.29 1403,-480.29 1406.5,-470.29 1399.5,-470.29"/>
</g>
<!-- Node32&#45;&gt;Node30 -->
<g id="edge56" class="edge">
<title>Node32&#45;&gt;Node30</title>
<path fill="none" stroke="midnightblue" d="M1376.39,-474.11C1361.28,-462.53 1342.75,-448.33 1329.28,-438"/>
<polygon fill="midnightblue" stroke="midnightblue" points="1374.32,-476.93 1384.38,-480.23 1378.57,-471.37 1374.32,-476.93"/>
</g>
<!-- Node33 -->
<g id="node33" class="node">
<title>Node33</title>
<g id="a_node33"><a xlink:href="wayland__surface_8cpp.html" target="_top" xlink:title=" ">
<polygon fill="white" stroke="black" points="1431,-408 1431,-438 1559,-438 1559,-408 1431,-408"/>
<text text-anchor="start" x="1439" y="-426" font-family="Arial" font-size="10.00">examples/example&#45;server</text>
<text text-anchor="middle" x="1495" y="-415" font-family="Arial" font-size="10.00">&#45;lib/wayland_surface.cpp</text>
</a>
</g>
</g>
<!-- Node32&#45;&gt;Node33 -->
<g id="edge57" class="edge">
<title>Node32&#45;&gt;Node33</title>
<path fill="none" stroke="midnightblue" d="M1429.61,-474.11C1444.72,-462.53 1463.25,-448.33 1476.72,-438"/>
<polygon fill="midnightblue" stroke="midnightblue" points="1427.43,-471.37 1421.62,-480.23 1431.68,-476.93 1427.43,-471.37"/>
</g>
<!-- Node34 -->
<g id="node34" class="node">
<title>Node34</title>
<g id="a_node34"><a xlink:href="miregl_8h.html" target="_top" xlink:title=" ">
<polygon fill="white" stroke="black" points="1577,-408 1577,-438 1683,-438 1683,-408 1577,-408"/>
<text text-anchor="start" x="1585" y="-426" font-family="Arial" font-size="10.00">examples/miral&#45;shell</text>
<text text-anchor="middle" x="1630" y="-415" font-family="Arial" font-size="10.00">/spinner/miregl.h</text>
</a>
</g>
</g>
<!-- Node32&#45;&gt;Node34 -->
<g id="edge58" class="edge">
<title>Node32&#45;&gt;Node34</title>
<path fill="none" stroke="midnightblue" d="M1459.26,-477.51C1491.19,-467.81 1531.87,-455.36 1568,-444 1574.04,-442.1 1580.41,-440.08 1586.67,-438.07"/>
<polygon fill="midnightblue" stroke="midnightblue" points="1458.19,-474.18 1449.64,-480.43 1460.23,-480.87 1458.19,-474.18"/>
</g>
<!-- Node35 -->
<g id="node35" class="node">
<title>Node35</title>
<g id="a_node35"><a xlink:href="eglapp_8cpp.html" target="_top" xlink:title=" ">
<polygon fill="white" stroke="black" points="1447,-335.5 1447,-365.5 1553,-365.5 1553,-335.5 1447,-335.5"/>
<text text-anchor="start" x="1455" y="-353.5" font-family="Arial" font-size="10.00">examples/miral&#45;shell</text>
<text text-anchor="middle" x="1500" y="-342.5" font-family="Arial" font-size="10.00">/spinner/eglapp.cpp</text>
</a>
</g>
</g>
<!-- Node34&#45;&gt;Node35 -->
<g id="edge59" class="edge">
<title>Node34&#45;&gt;Node35</title>
<path fill="none" stroke="midnightblue" d="M1595.07,-403.06C1573.31,-391.26 1545.78,-376.33 1525.95,-365.57"/>
<polygon fill="midnightblue" stroke="midnightblue" points="1593.55,-406.21 1604.01,-407.9 1596.88,-400.06 1593.55,-406.21"/>
</g>
<!-- Node36 -->
<g id="node36" class="node">
<title>Node36</title>
<g id="a_node36"><a xlink:href="eglspinner_8cpp.html" target="_top" xlink:title=" ">
<polygon fill="white" stroke="black" points="1571.5,-335.5 1571.5,-365.5 1688.5,-365.5 1688.5,-335.5 1571.5,-335.5"/>
<text text-anchor="start" x="1579.5" y="-353.5" font-family="Arial" font-size="10.00">examples/miral&#45;shell</text>
<text text-anchor="middle" x="1630" y="-342.5" font-family="Arial" font-size="10.00">/spinner/eglspinner.cpp</text>
</a>
</g>
</g>
<!-- Node34&#45;&gt;Node36 -->
<g id="edge60" class="edge">
<title>Node34&#45;&gt;Node36</title>
<path fill="none" stroke="midnightblue" d="M1630,-397.73C1630,-387.07 1630,-374.91 1630,-365.75"/>
<polygon fill="midnightblue" stroke="midnightblue" points="1626.5,-397.73 1630,-407.73 1633.5,-397.73 1626.5,-397.73"/>
</g>
<!-- Node37 -->
<g id="node37" class="node">
<title>Node37</title>
<g id="a_node37"><a xlink:href="miregl_8cpp.html" target="_top" xlink:title=" ">
<polygon fill="white" stroke="black" points="1707,-335.5 1707,-365.5 1813,-365.5 1813,-335.5 1707,-335.5"/>
<text text-anchor="start" x="1715" y="-353.5" font-family="Arial" font-size="10.00">examples/miral&#45;shell</text>
<text text-anchor="middle" x="1760" y="-342.5" font-family="Arial" font-size="10.00">/spinner/miregl.cpp</text>
</a>
</g>
</g>
<!-- Node34&#45;&gt;Node37 -->
<g id="edge61" class="edge">
<title>Node34&#45;&gt;Node37</title>
<path fill="none" stroke="midnightblue" d="M1664.93,-403.06C1686.69,-391.26 1714.22,-376.33 1734.05,-365.57"/>
<polygon fill="midnightblue" stroke="midnightblue" points="1663.12,-400.06 1655.99,-407.9 1666.45,-406.21 1663.12,-400.06"/>
</g>
</g>
</svg>
