<?xml version="1.0" encoding="UTF-8" standalone="no"?>
<!DOCTYPE svg PUBLIC "-//W3C//DTD SVG 1.1//EN"
 "http://www.w3.org/Graphics/SVG/1.1/DTD/svg11.dtd">
<!-- Generated by graphviz version 2.38.0 (20140413.2041)
 -->
<!-- Title: include/platform/mir/graphics/frame.h Pages: 1 -->
<svg width="270pt" height="173pt"
 viewBox="0.00 0.00 270.00 173.00" xmlns="http://www.w3.org/2000/svg" xmlns:xlink="http://www.w3.org/1999/xlink">
<g id="graph0" class="graph" transform="scale(1 1) rotate(0) translate(4 169)">
<title>include/platform/mir/graphics/frame.h</title>
<polygon fill="white" stroke="none" points="-4,4 -4,-169 266,-169 266,4 -4,4"/>
<!-- Node6 -->
<g id="node1" class="node"><title>Node6</title>
<polygon fill="#bfbfbf" stroke="black" points="78.5,-134.5 78.5,-164.5 180.5,-164.5 180.5,-134.5 78.5,-134.5"/>
<text text-anchor="start" x="86.5" y="-152.5" font-family="Arial" font-size="10.00">include/platform/mir</text>
<text text-anchor="middle" x="129.5" y="-141.5" font-family="Arial" font-size="10.00">/graphics/frame.h</text>
</g>
<!-- Node7 -->
<g id="node2" class="node"><title>Node7</title>
<g id="a_node2"><a xlink:href="atomic__frame_8h.html" target="_top" xlink:title="include/platform/mir\l/graphics/atomic_frame.h">
<polygon fill="white" stroke="black" points="0,-67.5 0,-97.5 127,-97.5 127,-67.5 0,-67.5"/>
<text text-anchor="start" x="8" y="-85.5" font-family="Arial" font-size="10.00">include/platform/mir</text>
<text text-anchor="middle" x="63.5" y="-74.5" font-family="Arial" font-size="10.00">/graphics/atomic_frame.h</text>
</a>
</g>
</g>
<!-- Node6&#45;&gt;Node7 -->
<g id="edge1" class="edge"><title>Node6&#45;&gt;Node7</title>
<path fill="none" stroke="midnightblue" d="M107.985,-127.311C98.0852,-117.561 86.6092,-106.259 77.7931,-97.5765"/>
<polygon fill="midnightblue" stroke="midnightblue" points="105.598,-129.873 115.179,-134.396 110.51,-124.885 105.598,-129.873"/>
</g>
<!-- Node8 -->
<g id="node3" class="node"><title>Node8</title>
<g id="a_node3"><a xlink:href="display_8h.html" target="_top" xlink:title="include/platform/mir\l/graphics/display.h">
<polygon fill="white" stroke="black" points="145.5,-67.5 145.5,-97.5 247.5,-97.5 247.5,-67.5 145.5,-67.5"/>
<text text-anchor="start" x="153.5" y="-85.5" font-family="Arial" font-size="10.00">include/platform/mir</text>
<text text-anchor="middle" x="196.5" y="-74.5" font-family="Arial" font-size="10.00">/graphics/display.h</text>
</a>
</g>
</g>
<!-- Node6&#45;&gt;Node8 -->
<g id="edge2" class="edge"><title>Node6&#45;&gt;Node8</title>
<path fill="none" stroke="midnightblue" d="M151.34,-127.311C161.391,-117.561 173.041,-106.259 181.99,-97.5765"/>
<polygon fill="midnightblue" stroke="midnightblue" points="148.778,-124.921 144.038,-134.396 153.653,-129.945 148.778,-124.921"/>
</g>
<!-- Node9 -->
<g id="node4" class="node"><title>Node9</title>
<g id="a_node4"><a xlink:href="server__example__input__filter_8cpp.html" target="_top" xlink:title="examples/server_example\l_input_filter.cpp">
<polygon fill="white" stroke="black" points="131,-0.5 131,-30.5 262,-30.5 262,-0.5 131,-0.5"/>
<text text-anchor="start" x="139" y="-18.5" font-family="Arial" font-size="10.00">examples/server_example</text>
<text text-anchor="middle" x="196.5" y="-7.5" font-family="Arial" font-size="10.00">_input_filter.cpp</text>
</a>
</g>
</g>
<!-- Node8&#45;&gt;Node9 -->
<g id="edge3" class="edge"><title>Node8&#45;&gt;Node9</title>
<path fill="none" stroke="midnightblue" d="M196.5,-57.1081C196.5,-48.1539 196.5,-38.3227 196.5,-30.5765"/>
<polygon fill="midnightblue" stroke="midnightblue" points="193,-57.3959 196.5,-67.396 200,-57.396 193,-57.3959"/>
</g>
</g>
</svg>
