<?xml version="1.0" encoding="UTF-8" standalone="no"?>
<!DOCTYPE svg PUBLIC "-//W3C//DTD SVG 1.1//EN"
 "http://www.w3.org/Graphics/SVG/1.1/DTD/svg11.dtd">
<!-- Generated by graphviz version 2.38.0 (20140413.2041)
 -->
<!-- Title: include/platform/mir/graphics/gamma_curves.h Pages: 1 -->
<svg width="167pt" height="173pt"
 viewBox="0.00 0.00 167.00 173.00" xmlns="http://www.w3.org/2000/svg" xmlns:xlink="http://www.w3.org/1999/xlink">
<g id="graph0" class="graph" transform="scale(1 1) rotate(0) translate(4 169)">
<title>include/platform/mir/graphics/gamma_curves.h</title>
<polygon fill="white" stroke="none" points="-4,4 -4,-169 163,-169 163,4 -4,4"/>
<!-- Node3 -->
<g id="node1" class="node"><title>Node3</title>
<polygon fill="#bfbfbf" stroke="black" points="12.5,-134.5 12.5,-164.5 146.5,-164.5 146.5,-134.5 12.5,-134.5"/>
<text text-anchor="start" x="20.5" y="-152.5" font-family="Arial" font-size="10.00">include/platform/mir</text>
<text text-anchor="middle" x="79.5" y="-141.5" font-family="Arial" font-size="10.00">/graphics/gamma_curves.h</text>
</g>
<!-- Node4 -->
<g id="node2" class="node"><title>Node4</title>
<g id="a_node2"><a xlink:href="display__configuration_8h.html" target="_top" xlink:title="include/platform/mir\l/graphics/display_configuration.h">
<polygon fill="white" stroke="black" points="-1.42109e-14,-67.5 -1.42109e-14,-97.5 159,-97.5 159,-67.5 -1.42109e-14,-67.5"/>
<text text-anchor="start" x="8" y="-85.5" font-family="Arial" font-size="10.00">include/platform/mir</text>
<text text-anchor="middle" x="79.5" y="-74.5" font-family="Arial" font-size="10.00">/graphics/display_configuration.h</text>
</a>
</g>
</g>
<!-- Node3&#45;&gt;Node4 -->
<g id="edge1" class="edge"><title>Node3&#45;&gt;Node4</title>
<path fill="none" stroke="midnightblue" d="M79.5,-124.108C79.5,-115.154 79.5,-105.323 79.5,-97.5765"/>
<polygon fill="midnightblue" stroke="midnightblue" points="76.0001,-124.396 79.5,-134.396 83.0001,-124.396 76.0001,-124.396"/>
</g>
<!-- Node5 -->
<g id="node3" class="node"><title>Node5</title>
<g id="a_node3"><a xlink:href="server__example__input__filter_8cpp.html" target="_top" xlink:title="examples/server_example\l_input_filter.cpp">
<polygon fill="white" stroke="black" points="14,-0.5 14,-30.5 145,-30.5 145,-0.5 14,-0.5"/>
<text text-anchor="start" x="22" y="-18.5" font-family="Arial" font-size="10.00">examples/server_example</text>
<text text-anchor="middle" x="79.5" y="-7.5" font-family="Arial" font-size="10.00">_input_filter.cpp</text>
</a>
</g>
</g>
<!-- Node4&#45;&gt;Node5 -->
<g id="edge2" class="edge"><title>Node4&#45;&gt;Node5</title>
<path fill="none" stroke="midnightblue" d="M79.5,-57.1081C79.5,-48.1539 79.5,-38.3227 79.5,-30.5765"/>
<polygon fill="midnightblue" stroke="midnightblue" points="76.0001,-57.3959 79.5,-67.396 83.0001,-57.396 76.0001,-57.3959"/>
</g>
</g>
</svg>
