<?xml version="1.0" encoding="UTF-8" standalone="no"?>
<!DOCTYPE svg PUBLIC "-//W3C//DTD SVG 1.1//EN"
 "http://www.w3.org/Graphics/SVG/1.1/DTD/svg11.dtd">
<!-- Generated by graphviz version 2.40.1 (20161225.0304)
 -->
<!-- Title: include/client/mir_toolkit/extensions/hardware_buffer_stream.h Pages: 1 -->
<svg width="2177pt" height="519pt"
 viewBox="0.00 0.00 2177.00 519.00" xmlns="http://www.w3.org/2000/svg" xmlns:xlink="http://www.w3.org/1999/xlink">
<g id="graph0" class="graph" transform="scale(1 1) rotate(0) translate(4 515)">
<title>include/client/mir_toolkit/extensions/hardware_buffer_stream.h</title>
<polygon fill="#ffffff" stroke="transparent" points="-4,4 -4,-515 2173,-515 2173,4 -4,4"/>
<!-- Node0 -->
<g id="node1" class="node">
<title>Node0</title>
<polygon fill="#bfbfbf" stroke="#000000" points="1911,-469.5 1911,-510.5 2059,-510.5 2059,-469.5 1911,-469.5"/>
<text text-anchor="start" x="1919" y="-498.5" font-family="Arial" font-size="10.00" fill="#000000">include/client/mir</text>
<text text-anchor="start" x="1919" y="-487.5" font-family="Arial" font-size="10.00" fill="#000000">_toolkit/extensions</text>
<text text-anchor="middle" x="1985" y="-476.5" font-family="Arial" font-size="10.00" fill="#000000">/hardware_buffer_stream.h</text>
</g>
<!-- Node1 -->
<g id="node2" class="node">
<title>Node1</title>
<g id="a_node2"><a xlink:href="mir__render__surface_8h.html" target="_top" xlink:title="mir_toolkit/rs/mir\l_render_surface.h">
<polygon fill="#ffffff" stroke="#000000" points="2065,-335.5 2065,-365.5 2169,-365.5 2169,-335.5 2065,-335.5"/>
<text text-anchor="start" x="2073" y="-353.5" font-family="Arial" font-size="10.00" fill="#000000">mir_toolkit/rs/mir</text>
<text text-anchor="middle" x="2117" y="-342.5" font-family="Arial" font-size="10.00" fill="#000000">_render_surface.h</text>
</a>
</g>
</g>
<!-- Node0&#45;&gt;Node1 -->
<g id="edge1" class="edge">
<title>Node0&#45;&gt;Node1</title>
<path fill="none" stroke="#191970" d="M2004.4771,-469.4163C2028.8887,-443.6176 2070.5772,-399.5604 2095.7797,-372.926"/>
<polygon fill="#191970" stroke="#191970" points="2098.3978,-375.2515 2102.7286,-365.5822 2093.3132,-370.4403 2098.3978,-375.2515"/>
</g>
<!-- Node25 -->
<g id="node26" class="node">
<title>Node25</title>
<g id="a_node26"><a xlink:href="mir__buffer__stream_8h.html" target="_top" xlink:title="mir_toolkit/mir_buffer\l_stream.h">
<polygon fill="#ffffff" stroke="#000000" points="1923.5,-335.5 1923.5,-365.5 2046.5,-365.5 2046.5,-335.5 1923.5,-335.5"/>
<text text-anchor="start" x="1931.5" y="-353.5" font-family="Arial" font-size="10.00" fill="#000000">mir_toolkit/mir_buffer</text>
<text text-anchor="middle" x="1985" y="-342.5" font-family="Arial" font-size="10.00" fill="#000000">_stream.h</text>
</a>
</g>
</g>
<!-- Node0&#45;&gt;Node25 -->
<g id="edge48" class="edge">
<title>Node0&#45;&gt;Node25</title>
<path fill="none" stroke="#191970" d="M1985,-469.4163C1985,-444.5034 1985,-402.5643 1985,-375.7297"/>
<polygon fill="#191970" stroke="#191970" points="1988.5001,-375.5822 1985,-365.5822 1981.5001,-375.5823 1988.5001,-375.5822"/>
</g>
<!-- Node27 -->
<g id="node28" class="node">
<title>Node27</title>
<g id="a_node28"><a xlink:href="mir__extension__core_8h.html" target="_top" xlink:title="mir_toolkit/mir_extension\l_core.h">
<polygon fill="#ffffff" stroke="#000000" points="1784.5,-402.5 1784.5,-432.5 1927.5,-432.5 1927.5,-402.5 1784.5,-402.5"/>
<text text-anchor="start" x="1792.5" y="-420.5" font-family="Arial" font-size="10.00" fill="#000000">mir_toolkit/mir_extension</text>
<text text-anchor="middle" x="1856" y="-409.5" font-family="Arial" font-size="10.00" fill="#000000">_core.h</text>
</a>
</g>
</g>
<!-- Node0&#45;&gt;Node27 -->
<g id="edge52" class="edge">
<title>Node0&#45;&gt;Node27</title>
<path fill="none" stroke="#191970" d="M1948.3788,-469.4183C1930.618,-459.4365 1909.3649,-447.4919 1891.7241,-437.5775"/>
<polygon fill="#191970" stroke="#191970" points="1893.2984,-434.4474 1882.866,-432.5991 1889.8688,-440.5497 1893.2984,-434.4474"/>
</g>
<!-- Node2 -->
<g id="node3" class="node">
<title>Node2</title>
<g id="a_node3"><a xlink:href="client__types_8h.html" target="_top" xlink:title="mir_toolkit/client\l_types.h">
<polygon fill="#ffffff" stroke="#000000" points="1804,-268.5 1804,-298.5 1904,-298.5 1904,-268.5 1804,-268.5"/>
<text text-anchor="start" x="1812" y="-286.5" font-family="Arial" font-size="10.00" fill="#000000">mir_toolkit/client</text>
<text text-anchor="middle" x="1854" y="-275.5" font-family="Arial" font-size="10.00" fill="#000000">_types.h</text>
</a>
</g>
</g>
<!-- Node1&#45;&gt;Node2 -->
<g id="edge2" class="edge">
<title>Node1&#45;&gt;Node2</title>
<path fill="none" stroke="#191970" d="M2064.7571,-337.2232C2061.7945,-336.4709 2058.8596,-335.7258 2056,-335 1992.8932,-318.9829 1977.0748,-315.1425 1914,-299 1913.899,-298.9742 1913.798,-298.9483 1913.6968,-298.9224"/>
<polygon fill="#191970" stroke="#191970" points="1914.642,-295.5516 1904.0859,-296.4569 1912.9025,-302.3321 1914.642,-295.5516"/>
</g>
<!-- Node7 -->
<g id="node8" class="node">
<title>Node7</title>
<g id="a_node8"><a xlink:href="deprecations_8h.html" target="_top" xlink:title="mir_toolkit/deprecations.h">
<polygon fill="#ffffff" stroke="#000000" points="1800.5,-62 1800.5,-81 1945.5,-81 1945.5,-62 1800.5,-62"/>
<text text-anchor="middle" x="1873" y="-69" font-family="Arial" font-size="10.00" fill="#000000">mir_toolkit/deprecations.h</text>
</a>
</g>
</g>
<!-- Node1&#45;&gt;Node7 -->
<g id="edge47" class="edge">
<title>Node1&#45;&gt;Node7</title>
<path fill="none" stroke="#191970" d="M2121.831,-335.2725C2133.5194,-295.1632 2158.6532,-185.4121 2106,-123 2086.6502,-100.0639 2014.5851,-86.5944 1955.6638,-79.2223"/>
<polygon fill="#191970" stroke="#191970" points="1955.9303,-75.7292 1945.5825,-78.0035 1955.0901,-82.6786 1955.9303,-75.7292"/>
</g>
<!-- Node3 -->
<g id="node4" class="node">
<title>Node3</title>
<g id="a_node4"><a xlink:href="toolkit_2events_2event_8h.html" target="_top" xlink:title="mir_toolkit/events\l/event.h">
<polygon fill="#ffffff" stroke="#000000" points="1009,-201.5 1009,-231.5 1115,-231.5 1115,-201.5 1009,-201.5"/>
<text text-anchor="start" x="1017" y="-219.5" font-family="Arial" font-size="10.00" fill="#000000">mir_toolkit/events</text>
<text text-anchor="middle" x="1062" y="-208.5" font-family="Arial" font-size="10.00" fill="#000000">/event.h</text>
</a>
</g>
</g>
<!-- Node2&#45;&gt;Node3 -->
<g id="edge3" class="edge">
<title>Node2&#45;&gt;Node3</title>
<path fill="none" stroke="#191970" d="M1803.856,-279.258C1665.4126,-267.5463 1278.0375,-234.7759 1125.179,-221.8447"/>
<polygon fill="#191970" stroke="#191970" points="1125.2791,-218.3407 1115.0197,-220.9852 1124.689,-225.3158 1125.2791,-218.3407"/>
</g>
<!-- Node4 -->
<g id="node5" class="node">
<title>Node4</title>
<polygon fill="#ffffff" stroke="#bfbfbf" points="1954,-134.5 1954,-153.5 2010,-153.5 2010,-134.5 1954,-134.5"/>
<text text-anchor="middle" x="1982" y="-141.5" font-family="Arial" font-size="10.00" fill="#000000">stddef.h</text>
</g>
<!-- Node2&#45;&gt;Node4 -->
<g id="edge46" class="edge">
<title>Node2&#45;&gt;Node4</title>
<path fill="none" stroke="#191970" d="M1867.9419,-268.3055C1891.8997,-242.1953 1940.7387,-188.9684 1966.0275,-161.4075"/>
<polygon fill="#191970" stroke="#191970" points="1968.8841,-163.4712 1973.066,-153.7366 1963.7263,-158.7386 1968.8841,-163.4712"/>
</g>
<!-- Node6 -->
<g id="node7" class="node">
<title>Node6</title>
<g id="a_node7"><a xlink:href="common_8h.html" target="_top" xlink:title="mir_toolkit/common.h">
<polygon fill="#ffffff" stroke="#000000" points="1810.5,-134.5 1810.5,-153.5 1935.5,-153.5 1935.5,-134.5 1810.5,-134.5"/>
<text text-anchor="middle" x="1873" y="-141.5" font-family="Arial" font-size="10.00" fill="#000000">mir_toolkit/common.h</text>
</a>
</g>
</g>
<!-- Node2&#45;&gt;Node6 -->
<g id="edge44" class="edge">
<title>Node2&#45;&gt;Node6</title>
<path fill="none" stroke="#191970" d="M1856.0695,-268.3055C1859.5184,-242.9831 1866.4412,-192.1556 1870.2799,-163.9709"/>
<polygon fill="#191970" stroke="#191970" points="1873.7922,-164.1175 1871.6739,-153.7366 1866.8563,-163.1728 1873.7922,-164.1175"/>
</g>
<!-- Node2&#45;&gt;Node7 -->
<g id="edge45" class="edge">
<title>Node2&#45;&gt;Node7</title>
<path fill="none" stroke="#191970" d="M1892.9765,-268.4768C1933.094,-250.6244 1993.2586,-216.5986 2019,-165 2027.333,-148.2965 2029.7827,-138.2374 2019,-123 2007.8476,-107.2402 1963.2334,-92.95 1926.2258,-83.4432"/>
<polygon fill="#191970" stroke="#191970" points="1927.0669,-80.0458 1916.5161,-81.0115 1925.3662,-86.8361 1927.0669,-80.0458"/>
</g>
<!-- Node3&#45;&gt;Node4 -->
<g id="edge4" class="edge">
<title>Node3&#45;&gt;Node4</title>
<path fill="none" stroke="#191970" d="M1115.0392,-214.8111C1293.5199,-208.9338 1865.6136,-188.4519 1945,-165 1949.9629,-163.5339 1954.9806,-161.2973 1959.6515,-158.8219"/>
<polygon fill="#191970" stroke="#191970" points="1961.7576,-161.6448 1968.6231,-153.5754 1958.2239,-155.6022 1961.7576,-161.6448"/>
</g>
<!-- Node5 -->
<g id="node6" class="node">
<title>Node5</title>
<polygon fill="#ffffff" stroke="#bfbfbf" points="632.5,-.5 632.5,-19.5 685.5,-19.5 685.5,-.5 632.5,-.5"/>
<text text-anchor="middle" x="659" y="-7.5" font-family="Arial" font-size="10.00" fill="#000000">stdint.h</text>
</g>
<!-- Node3&#45;&gt;Node5 -->
<g id="edge5" class="edge">
<title>Node3&#45;&gt;Node5</title>
<path fill="none" stroke="#191970" d="M1034.5407,-201.4276C1016.5675,-191.4057 992.6696,-177.7831 972,-165 943.3794,-147.2996 938.4307,-139.3181 909,-123 834.5651,-81.729 742.2392,-43.0178 693.2639,-23.4007"/>
<polygon fill="#191970" stroke="#191970" points="694.3643,-20.0716 683.7789,-19.6235 691.7744,-26.5749 694.3643,-20.0716"/>
</g>
<!-- Node3&#45;&gt;Node6 -->
<g id="edge6" class="edge">
<title>Node3&#45;&gt;Node6</title>
<path fill="none" stroke="#191970" d="M1115.2526,-214.2729C1261.8162,-207.9069 1669.0116,-188.5661 1801,-165 1812.3841,-162.9674 1824.535,-159.8176 1835.5505,-156.5705"/>
<polygon fill="#191970" stroke="#191970" points="1836.7543,-159.8624 1845.2931,-153.5903 1834.7066,-153.1686 1836.7543,-159.8624"/>
</g>
<!-- Node3&#45;&gt;Node7 -->
<g id="edge8" class="edge">
<title>Node3&#45;&gt;Node7</title>
<path fill="none" stroke="#191970" d="M1025.1828,-201.4687C1009.8532,-193.1524 993.6389,-181.1711 985,-165 976.2043,-148.5355 972.1885,-136.5761 985,-123 1012.3896,-93.9759 1574.6744,-78.2429 1790.0555,-73.2628"/>
<polygon fill="#191970" stroke="#191970" points="1790.4374,-76.7551 1800.3545,-73.0268 1790.2769,-69.7569 1790.4374,-76.7551"/>
</g>
<!-- Node8 -->
<g id="node9" class="node">
<title>Node8</title>
<g id="a_node9"><a xlink:href="input__event_8h.html" target="_top" xlink:title="mir_toolkit/events\l/input/input_event.h">
<polygon fill="#ffffff" stroke="#000000" points="371,-129 371,-159 485,-159 485,-129 371,-129"/>
<text text-anchor="start" x="379" y="-147" font-family="Arial" font-size="10.00" fill="#000000">mir_toolkit/events</text>
<text text-anchor="middle" x="428" y="-136" font-family="Arial" font-size="10.00" fill="#000000">/input/input_event.h</text>
</a>
</g>
</g>
<!-- Node3&#45;&gt;Node8 -->
<g id="edge9" class="edge">
<title>Node3&#45;&gt;Node8</title>
<path fill="none" stroke="#191970" d="M1008.625,-215.65C905.9393,-213.1433 674.7462,-203.3128 485,-165 480.5709,-164.1057 476.0199,-163.0214 471.5068,-161.8223"/>
<polygon fill="#191970" stroke="#191970" points="472.3256,-158.4163 461.7493,-159.0427 470.4078,-165.1485 472.3256,-158.4163"/>
</g>
<!-- Node15 -->
<g id="node16" class="node">
<title>Node15</title>
<g id="a_node16"><a xlink:href="resize__event_8h.html" target="_top" xlink:title="mir_toolkit/events\l/resize_event.h">
<polygon fill="#ffffff" stroke="#000000" points="1534,-129 1534,-159 1640,-159 1640,-129 1534,-129"/>
<text text-anchor="start" x="1542" y="-147" font-family="Arial" font-size="10.00" fill="#000000">mir_toolkit/events</text>
<text text-anchor="middle" x="1587" y="-136" font-family="Arial" font-size="10.00" fill="#000000">/resize_event.h</text>
</a>
</g>
</g>
<!-- Node3&#45;&gt;Node15 -->
<g id="edge20" class="edge">
<title>Node3&#45;&gt;Node15</title>
<path fill="none" stroke="#191970" d="M1115.3186,-214.0065C1200.8176,-209.3524 1373.0977,-196.7575 1516,-165 1519.9938,-164.1124 1524.0904,-163.0592 1528.207,-161.9045"/>
<polygon fill="#191970" stroke="#191970" points="1529.2178,-165.2555 1537.8096,-159.0561 1527.2271,-158.5445 1529.2178,-165.2555"/>
</g>
<!-- Node16 -->
<g id="node17" class="node">
<title>Node16</title>
<g id="a_node17"><a xlink:href="surface__event_8h.html" target="_top" xlink:title="mir_toolkit/events\l/surface_event.h">
<polygon fill="#ffffff" stroke="#000000" points="1278,-129 1278,-159 1384,-159 1384,-129 1278,-129"/>
<text text-anchor="start" x="1286" y="-147" font-family="Arial" font-size="10.00" fill="#000000">mir_toolkit/events</text>
<text text-anchor="middle" x="1331" y="-136" font-family="Arial" font-size="10.00" fill="#000000">/surface_event.h</text>
</a>
</g>
</g>
<!-- Node3&#45;&gt;Node16 -->
<g id="edge22" class="edge">
<title>Node3&#45;&gt;Node16</title>
<path fill="none" stroke="#191970" d="M1115.4214,-202.7149C1155.4544,-193.0204 1211.3144,-179.2749 1260,-165 1263.1081,-164.0887 1266.2925,-163.12 1269.5102,-162.1181"/>
<polygon fill="#191970" stroke="#191970" points="1270.7475,-165.3975 1279.2202,-159.0363 1268.6299,-158.7255 1270.7475,-165.3975"/>
</g>
<!-- Node17 -->
<g id="node18" class="node">
<title>Node17</title>
<g id="a_node18"><a xlink:href="window__event_8h.html" target="_top" xlink:title="mir_toolkit/events\l/window_event.h">
<polygon fill="#ffffff" stroke="#000000" points="503,-129 503,-159 609,-159 609,-129 503,-129"/>
<text text-anchor="start" x="511" y="-147" font-family="Arial" font-size="10.00" fill="#000000">mir_toolkit/events</text>
<text text-anchor="middle" x="556" y="-136" font-family="Arial" font-size="10.00" fill="#000000">/window_event.h</text>
</a>
</g>
</g>
<!-- Node3&#45;&gt;Node17 -->
<g id="edge25" class="edge">
<title>Node3&#45;&gt;Node17</title>
<path fill="none" stroke="#191970" d="M1008.7965,-214.1782C923.4847,-209.4861 751.7175,-196.5036 610,-165 606.061,-164.1244 602.0214,-163.0956 598.0054,-161.972"/>
<polygon fill="#191970" stroke="#191970" points="598.726,-158.5342 588.1421,-159.0168 596.7168,-165.2397 598.726,-158.5342"/>
</g>
<!-- Node18 -->
<g id="node19" class="node">
<title>Node18</title>
<g id="a_node19"><a xlink:href="orientation__event_8h.html" target="_top" xlink:title="mir_toolkit/events\l/orientation_event.h">
<polygon fill="#ffffff" stroke="#000000" points="627.5,-129 627.5,-159 742.5,-159 742.5,-129 627.5,-129"/>
<text text-anchor="start" x="635.5" y="-147" font-family="Arial" font-size="10.00" fill="#000000">mir_toolkit/events</text>
<text text-anchor="middle" x="685" y="-136" font-family="Arial" font-size="10.00" fill="#000000">/orientation_event.h</text>
</a>
</g>
</g>
<!-- Node3&#45;&gt;Node18 -->
<g id="edge27" class="edge">
<title>Node3&#45;&gt;Node18</title>
<path fill="none" stroke="#191970" d="M1008.9299,-210.7793C945.0503,-202.8577 835.2055,-186.9963 743,-165 739.1094,-164.0719 735.1154,-163.0366 731.1274,-161.9371"/>
<polygon fill="#191970" stroke="#191970" points="731.8675,-158.5078 721.289,-159.0955 729.9251,-165.2329 731.8675,-158.5078"/>
</g>
<!-- Node19 -->
<g id="node20" class="node">
<title>Node19</title>
<g id="a_node20"><a xlink:href="prompt__session__event_8h.html" target="_top" xlink:title="mir_toolkit/events\l/prompt_session_event.h">
<polygon fill="#ffffff" stroke="#000000" points="760.5,-129 760.5,-159 899.5,-159 899.5,-129 760.5,-129"/>
<text text-anchor="start" x="768.5" y="-147" font-family="Arial" font-size="10.00" fill="#000000">mir_toolkit/events</text>
<text text-anchor="middle" x="830" y="-136" font-family="Arial" font-size="10.00" fill="#000000">/prompt_session_event.h</text>
</a>
</g>
</g>
<!-- Node3&#45;&gt;Node19 -->
<g id="edge29" class="edge">
<title>Node3&#45;&gt;Node19</title>
<path fill="none" stroke="#191970" d="M1008.9207,-201.6536C970.9783,-190.2449 920.2433,-174.4295 882.4471,-162.2484"/>
<polygon fill="#191970" stroke="#191970" points="883.2347,-158.8247 872.6429,-159.0757 881.0795,-165.4846 883.2347,-158.8247"/>
</g>
<!-- Node20 -->
<g id="node21" class="node">
<title>Node20</title>
<g id="a_node21"><a xlink:href="keymap__event_8h.html" target="_top" xlink:title="mir_toolkit/events\l/keymap_event.h">
<polygon fill="#ffffff" stroke="#000000" points="247,-129 247,-159 353,-159 353,-129 247,-129"/>
<text text-anchor="start" x="255" y="-147" font-family="Arial" font-size="10.00" fill="#000000">mir_toolkit/events</text>
<text text-anchor="middle" x="300" y="-136" font-family="Arial" font-size="10.00" fill="#000000">/keymap_event.h</text>
</a>
</g>
</g>
<!-- Node3&#45;&gt;Node20 -->
<g id="edge31" class="edge">
<title>Node3&#45;&gt;Node20</title>
<path fill="none" stroke="#191970" d="M1008.9091,-214.5091C866.3165,-208.6593 477.9505,-190.3301 353,-165 348.865,-164.1618 344.6254,-163.125 340.426,-161.9649"/>
<polygon fill="#191970" stroke="#191970" points="341.3522,-158.5887 330.7683,-159.0697 339.3421,-165.2939 341.3522,-158.5887"/>
</g>
<!-- Node21 -->
<g id="node22" class="node">
<title>Node21</title>
<g id="a_node22"><a xlink:href="input__configuration__event_8h.html" target="_top" xlink:title="mir_toolkit/events\l/input_configuration\l_event.h">
<polygon fill="#ffffff" stroke="#000000" points="1402.5,-123.5 1402.5,-164.5 1515.5,-164.5 1515.5,-123.5 1402.5,-123.5"/>
<text text-anchor="start" x="1410.5" y="-152.5" font-family="Arial" font-size="10.00" fill="#000000">mir_toolkit/events</text>
<text text-anchor="start" x="1410.5" y="-141.5" font-family="Arial" font-size="10.00" fill="#000000">/input_configuration</text>
<text text-anchor="middle" x="1459" y="-130.5" font-family="Arial" font-size="10.00" fill="#000000">_event.h</text>
</a>
</g>
</g>
<!-- Node3&#45;&gt;Node21 -->
<g id="edge34" class="edge">
<title>Node3&#45;&gt;Node21</title>
<path fill="none" stroke="#191970" d="M1115.1575,-210.0111C1179.4207,-202.1178 1290.3117,-187.0553 1384,-165 1386.7981,-164.3413 1389.6491,-163.6225 1392.5262,-162.8605"/>
<polygon fill="#191970" stroke="#191970" points="1393.6695,-166.1756 1402.3691,-160.1284 1391.7973,-159.4306 1393.6695,-166.1756"/>
</g>
<!-- Node22 -->
<g id="node23" class="node">
<title>Node22</title>
<g id="a_node23"><a xlink:href="surface__output__event_8h.html" target="_top" xlink:title="mir_toolkit/events\l/surface_output_event.h">
<polygon fill="#ffffff" stroke="#000000" points="1658,-129 1658,-159 1792,-159 1792,-129 1658,-129"/>
<text text-anchor="start" x="1666" y="-147" font-family="Arial" font-size="10.00" fill="#000000">mir_toolkit/events</text>
<text text-anchor="middle" x="1725" y="-136" font-family="Arial" font-size="10.00" fill="#000000">/surface_output_event.h</text>
</a>
</g>
</g>
<!-- Node3&#45;&gt;Node22 -->
<g id="edge37" class="edge">
<title>Node3&#45;&gt;Node22</title>
<path fill="none" stroke="#191970" d="M1115.0644,-214.894C1217.4186,-211.1989 1448.4661,-199.5664 1640,-165 1645.3885,-164.0275 1650.9486,-162.8463 1656.5294,-161.5452"/>
<polygon fill="#191970" stroke="#191970" points="1657.6812,-164.8668 1666.5646,-159.0931 1656.0196,-158.0668 1657.6812,-164.8668"/>
</g>
<!-- Node23 -->
<g id="node24" class="node">
<title>Node23</title>
<g id="a_node24"><a xlink:href="window__output__event_8h.html" target="_top" xlink:title="mir_toolkit/events\l/window_output_event.h">
<polygon fill="#ffffff" stroke="#000000" points="994,-129 994,-159 1130,-159 1130,-129 994,-129"/>
<text text-anchor="start" x="1002" y="-147" font-family="Arial" font-size="10.00" fill="#000000">mir_toolkit/events</text>
<text text-anchor="middle" x="1062" y="-136" font-family="Arial" font-size="10.00" fill="#000000">/window_output_event.h</text>
</a>
</g>
</g>
<!-- Node3&#45;&gt;Node23 -->
<g id="edge40" class="edge">
<title>Node3&#45;&gt;Node23</title>
<path fill="none" stroke="#191970" d="M1056.4073,-201.478C1055.2494,-192.1459 1054.9604,-179.9157 1055.5402,-169.1368"/>
<polygon fill="#191970" stroke="#191970" points="1059.042,-169.2654 1056.4097,-159.0028 1052.0676,-168.667 1059.042,-169.2654"/>
</g>
<!-- Node24 -->
<g id="node25" class="node">
<title>Node24</title>
<g id="a_node25"><a xlink:href="input__device__state__event_8h.html" target="_top" xlink:title="mir_toolkit/events\l/input_device_state\l_event.h">
<polygon fill="#ffffff" stroke="#000000" points="1148,-123.5 1148,-164.5 1260,-164.5 1260,-123.5 1148,-123.5"/>
<text text-anchor="start" x="1156" y="-152.5" font-family="Arial" font-size="10.00" fill="#000000">mir_toolkit/events</text>
<text text-anchor="start" x="1156" y="-141.5" font-family="Arial" font-size="10.00" fill="#000000">/input_device_state</text>
<text text-anchor="middle" x="1204" y="-130.5" font-family="Arial" font-size="10.00" fill="#000000">_event.h</text>
</a>
</g>
</g>
<!-- Node3&#45;&gt;Node24 -->
<g id="edge42" class="edge">
<title>Node3&#45;&gt;Node24</title>
<path fill="none" stroke="#191970" d="M1085.8298,-201.478C1103.007,-192.1148 1126.773,-179.8341 1148.5235,-169.0291"/>
<polygon fill="#191970" stroke="#191970" points="1150.2786,-172.066 1157.6967,-164.5015 1147.1804,-165.789 1150.2786,-172.066"/>
</g>
<!-- Node6&#45;&gt;Node7 -->
<g id="edge7" class="edge">
<title>Node6&#45;&gt;Node7</title>
<path fill="none" stroke="#191970" d="M1873,-134.2223C1873,-123.243 1873,-105.1397 1873,-91.197"/>
<polygon fill="#191970" stroke="#191970" points="1876.5001,-91.1227 1873,-81.1228 1869.5001,-91.1228 1876.5001,-91.1227"/>
</g>
<!-- Node8&#45;&gt;Node3 -->
<g id="edge10" class="edge">
<title>Node8&#45;&gt;Node3</title>
<path fill="none" stroke="#191970" d="M479.4546,-159.0427C487.3131,-161.3379 495.3388,-163.4531 503,-165 680.5259,-200.8453 894.3321,-211.7589 998.6661,-215.0689"/>
<polygon fill="#191970" stroke="#191970" points="998.6176,-218.5689 1008.7195,-215.3749 998.8306,-211.5722 998.6176,-218.5689"/>
</g>
<!-- Node8&#45;&gt;Node5 -->
<g id="edge13" class="edge">
<title>Node8&#45;&gt;Node5</title>
<path fill="none" stroke="#191970" d="M466.9364,-128.9478C492.003,-118.5768 524.8528,-103.6904 552,-87 570.8623,-75.4032 573.1502,-69.1018 591,-56 605.5637,-45.3103 622.3755,-33.9294 635.6391,-25.1623"/>
<polygon fill="#191970" stroke="#191970" points="637.7461,-27.9658 644.1835,-19.5509 633.9035,-22.1148 637.7461,-27.9658"/>
</g>
<!-- Node9 -->
<g id="node10" class="node">
<title>Node9</title>
<g id="a_node10"><a xlink:href="mir__input__device__types_8h.html" target="_top" xlink:title="mir_toolkit/mir_input\l_device_types.h">
<polygon fill="#ffffff" stroke="#000000" points="599.5,-56.5 599.5,-86.5 718.5,-86.5 718.5,-56.5 599.5,-56.5"/>
<text text-anchor="start" x="607.5" y="-74.5" font-family="Arial" font-size="10.00" fill="#000000">mir_toolkit/mir_input</text>
<text text-anchor="middle" x="659" y="-63.5" font-family="Arial" font-size="10.00" fill="#000000">_device_types.h</text>
</a>
</g>
</g>
<!-- Node8&#45;&gt;Node9 -->
<g id="edge11" class="edge">
<title>Node8&#45;&gt;Node9</title>
<path fill="none" stroke="#191970" d="M475.2187,-128.9411C481.5314,-126.938 487.9218,-124.9155 494,-123 529.3817,-111.8495 569.068,-99.4589 600.6511,-89.626"/>
<polygon fill="#191970" stroke="#191970" points="602.0967,-92.8418 610.6049,-86.5282 600.0165,-86.158 602.0967,-92.8418"/>
</g>
<!-- Node10 -->
<g id="node11" class="node">
<title>Node10</title>
<polygon fill="#ffffff" stroke="#bfbfbf" points="226,-.5 226,-19.5 288,-19.5 288,-.5 226,-.5"/>
<text text-anchor="middle" x="257" y="-7.5" font-family="Arial" font-size="10.00" fill="#000000">stdbool.h</text>
</g>
<!-- Node8&#45;&gt;Node10 -->
<g id="edge14" class="edge">
<title>Node8&#45;&gt;Node10</title>
<path fill="none" stroke="#191970" d="M381.4823,-128.993C339.5646,-115.081 283.3987,-95.318 276,-87 261.9624,-71.2183 257.9258,-46.7025 256.945,-29.5862"/>
<polygon fill="#191970" stroke="#191970" points="260.4433,-29.4723 256.6673,-19.5732 253.4459,-29.6664 260.4433,-29.4723"/>
</g>
<!-- Node11 -->
<g id="node12" class="node">
<title>Node11</title>
<g id="a_node12"><a xlink:href="touch__event_8h.html" target="_top" xlink:title="mir_toolkit/events\l/input/touch_event.h">
<polygon fill="#ffffff" stroke="#000000" points="427,-56.5 427,-86.5 543,-86.5 543,-56.5 427,-56.5"/>
<text text-anchor="start" x="435" y="-74.5" font-family="Arial" font-size="10.00" fill="#000000">mir_toolkit/events</text>
<text text-anchor="middle" x="485" y="-63.5" font-family="Arial" font-size="10.00" fill="#000000">/input/touch_event.h</text>
</a>
</g>
</g>
<!-- Node8&#45;&gt;Node11 -->
<g id="edge15" class="edge">
<title>Node8&#45;&gt;Node11</title>
<path fill="none" stroke="#191970" d="M439.8104,-128.978C447.606,-119.0626 457.9736,-105.8756 466.812,-94.6339"/>
<polygon fill="#191970" stroke="#191970" points="469.7755,-96.5274 473.2047,-86.5028 464.2726,-92.2009 469.7755,-96.5274"/>
</g>
<!-- Node12 -->
<g id="node13" class="node">
<title>Node12</title>
<g id="a_node13"><a xlink:href="keyboard__event_8h.html" target="_top" xlink:title="mir_toolkit/events\l/input/keyboard_event.h">
<polygon fill="#ffffff" stroke="#000000" points="55.5,-56.5 55.5,-86.5 190.5,-86.5 190.5,-56.5 55.5,-56.5"/>
<text text-anchor="start" x="63.5" y="-74.5" font-family="Arial" font-size="10.00" fill="#000000">mir_toolkit/events</text>
<text text-anchor="middle" x="123" y="-63.5" font-family="Arial" font-size="10.00" fill="#000000">/input/keyboard_event.h</text>
</a>
</g>
</g>
<!-- Node8&#45;&gt;Node12 -->
<g id="edge16" class="edge">
<title>Node8&#45;&gt;Node12</title>
<path fill="none" stroke="#191970" d="M382.7231,-128.9647C375.8129,-126.8529 368.7395,-124.7939 362,-123 308.4849,-108.7556 247.4395,-95.6538 200.4394,-86.2298"/>
<polygon fill="#191970" stroke="#191970" points="201.1222,-82.7971 190.6311,-84.2755 199.7544,-89.6622 201.1222,-82.7971"/>
</g>
<!-- Node14 -->
<g id="node15" class="node">
<title>Node14</title>
<g id="a_node15"><a xlink:href="pointer__event_8h.html" target="_top" xlink:title="mir_toolkit/events\l/input/pointer_event.h">
<polygon fill="#ffffff" stroke="#000000" points="285,-56.5 285,-86.5 409,-86.5 409,-56.5 285,-56.5"/>
<text text-anchor="start" x="293" y="-74.5" font-family="Arial" font-size="10.00" fill="#000000">mir_toolkit/events</text>
<text text-anchor="middle" x="347" y="-63.5" font-family="Arial" font-size="10.00" fill="#000000">/input/pointer_event.h</text>
</a>
</g>
</g>
<!-- Node8&#45;&gt;Node14 -->
<g id="edge18" class="edge">
<title>Node8&#45;&gt;Node14</title>
<path fill="none" stroke="#191970" d="M411.2167,-128.978C399.7045,-118.6738 384.2447,-104.8363 371.3789,-93.3206"/>
<polygon fill="#191970" stroke="#191970" points="373.5473,-90.5642 363.7618,-86.5028 368.8787,-95.7801 373.5473,-90.5642"/>
</g>
<!-- Node9&#45;&gt;Node5 -->
<g id="edge12" class="edge">
<title>Node9&#45;&gt;Node5</title>
<path fill="none" stroke="#191970" d="M659,-56.2977C659,-48.3834 659,-38.6043 659,-30.0759"/>
<polygon fill="#191970" stroke="#191970" points="662.5001,-29.8469 659,-19.8469 655.5001,-29.847 662.5001,-29.8469"/>
</g>
<!-- Node13 -->
<g id="node14" class="node">
<title>Node13</title>
<polygon fill="#ffffff" stroke="#bfbfbf" points="0,-.5 0,-19.5 150,-19.5 150,-.5 0,-.5"/>
<text text-anchor="middle" x="75" y="-7.5" font-family="Arial" font-size="10.00" fill="#000000">xkbcommon/xkbcommon.h</text>
</g>
<!-- Node12&#45;&gt;Node13 -->
<g id="edge17" class="edge">
<title>Node12&#45;&gt;Node13</title>
<path fill="none" stroke="#191970" d="M111.1348,-56.2977C104.4025,-47.672 95.9415,-36.8312 88.8994,-27.8087"/>
<polygon fill="#191970" stroke="#191970" points="91.5973,-25.5766 82.6854,-19.8469 86.079,-29.8836 91.5973,-25.5766"/>
</g>
<!-- Node14&#45;&gt;Node10 -->
<g id="edge19" class="edge">
<title>Node14&#45;&gt;Node10</title>
<path fill="none" stroke="#191970" d="M324.7528,-56.2977C311.0033,-46.9022 293.4079,-34.8787 279.5943,-25.4395"/>
<polygon fill="#191970" stroke="#191970" points="281.3725,-22.4155 271.1414,-19.6633 277.4232,-28.195 281.3725,-22.4155"/>
</g>
<!-- Node15&#45;&gt;Node3 -->
<g id="edge21" class="edge">
<title>Node15&#45;&gt;Node3</title>
<path fill="none" stroke="#191970" d="M1555.5283,-159.0561C1548.5252,-161.3207 1541.1001,-163.4221 1534,-165 1390.3189,-196.9306 1216.9391,-209.4891 1125.4622,-214.0819"/>
<polygon fill="#191970" stroke="#191970" points="1125.0753,-210.5964 1115.2571,-214.578 1125.4153,-217.5882 1125.0753,-210.5964"/>
</g>
<!-- Node16&#45;&gt;Node3 -->
<g id="edge23" class="edge">
<title>Node16&#45;&gt;Node3</title>
<path fill="none" stroke="#191970" d="M1297.0215,-159.0363C1290.7378,-161.1253 1284.2161,-163.1774 1278,-165 1227.2279,-179.8866 1168.6535,-194.1975 1125.2348,-203.9387"/>
<polygon fill="#191970" stroke="#191970" points="1124.3777,-200.5437 1115.3752,-206.1299 1125.8964,-207.3769 1124.3777,-200.5437"/>
</g>
<!-- Node16&#45;&gt;Node7 -->
<g id="edge24" class="edge">
<title>Node16&#45;&gt;Node7</title>
<path fill="none" stroke="#191970" d="M1371.9899,-128.9308C1379.248,-126.6676 1386.7903,-124.5701 1394,-123 1531.0026,-93.1642 1693.9818,-80.3197 1790.1654,-75.0074"/>
<polygon fill="#191970" stroke="#191970" points="1790.6113,-78.4886 1800.4088,-74.4562 1790.2352,-71.4987 1790.6113,-78.4886"/>
</g>
<!-- Node17&#45;&gt;Node3 -->
<g id="edge26" class="edge">
<title>Node17&#45;&gt;Node3</title>
<path fill="none" stroke="#191970" d="M605.8609,-159.0168C613.2583,-161.2857 620.7972,-163.3988 628,-165 758.1897,-193.941 913.7392,-207.2515 998.8413,-212.8631"/>
<polygon fill="#191970" stroke="#191970" points="998.6593,-216.3585 1008.8639,-213.5098 999.1101,-209.3731 998.6593,-216.3585"/>
</g>
<!-- Node18&#45;&gt;Node3 -->
<g id="edge28" class="edge">
<title>Node18&#45;&gt;Node3</title>
<path fill="none" stroke="#191970" d="M739.0572,-159.0955C746.4258,-161.2476 753.8857,-163.3028 761,-165 842.4365,-184.4272 937.6325,-199.069 998.8908,-207.6817"/>
<polygon fill="#191970" stroke="#191970" points="998.4101,-211.1485 1008.7978,-209.0638 999.3774,-204.2156 998.4101,-211.1485"/>
</g>
<!-- Node19&#45;&gt;Node3 -->
<g id="edge30" class="edge">
<title>Node19&#45;&gt;Node3</title>
<path fill="none" stroke="#191970" d="M883.5993,-159.0028C921.553,-170.42 972.1123,-186.1832 1009.7576,-198.3175"/>
<polygon fill="#191970" stroke="#191970" points="1008.9303,-201.7285 1019.5222,-201.478 1011.0859,-195.0686 1008.9303,-201.7285"/>
</g>
<!-- Node20&#45;&gt;Node3 -->
<g id="edge32" class="edge">
<title>Node20&#45;&gt;Node3</title>
<path fill="none" stroke="#191970" d="M348.4599,-159.0697C355.9673,-161.3921 363.6489,-163.5098 371,-165 490.6165,-189.2487 851.6388,-207.0816 998.7197,-213.6921"/>
<polygon fill="#191970" stroke="#191970" points="998.7873,-217.1985 1008.9336,-214.1486 999.0999,-210.2055 998.7873,-217.1985"/>
</g>
<!-- Node20&#45;&gt;Node13 -->
<g id="edge33" class="edge">
<title>Node20&#45;&gt;Node13</title>
<path fill="none" stroke="#191970" d="M246.8606,-139.6753C180.175,-133.0181 71.5361,-117.6791 47,-87 33.0793,-69.5941 46.6885,-44.6495 59.3427,-27.9151"/>
<polygon fill="#191970" stroke="#191970" points="62.1743,-29.9791 65.722,-19.9959 56.7231,-25.5878 62.1743,-29.9791"/>
</g>
<!-- Node21&#45;&gt;Node3 -->
<g id="edge35" class="edge">
<title>Node21&#45;&gt;Node3</title>
<path fill="none" stroke="#191970" d="M1403.7622,-164.579C1403.1728,-164.7218 1402.5852,-164.8622 1402,-165 1306.9634,-187.3727 1194.2253,-202.5499 1125.3355,-210.3475"/>
<polygon fill="#191970" stroke="#191970" points="1124.6322,-206.9041 1115.0812,-211.49 1125.4073,-213.8611 1124.6322,-206.9041"/>
</g>
<!-- Node21&#45;&gt;Node7 -->
<g id="edge36" class="edge">
<title>Node21&#45;&gt;Node7</title>
<path fill="none" stroke="#191970" d="M1515.7203,-125.3133C1518.8463,-124.4836 1521.9542,-123.7051 1525,-123 1614.605,-102.2569 1719.2125,-88.097 1790.1645,-79.9531"/>
<polygon fill="#191970" stroke="#191970" points="1790.8405,-83.399 1800.3828,-78.7951 1790.0522,-76.4435 1790.8405,-83.399"/>
</g>
<!-- Node22&#45;&gt;Node3 -->
<g id="edge38" class="edge">
<title>Node22&#45;&gt;Node3</title>
<path fill="none" stroke="#191970" d="M1684.2833,-159.0931C1675.6824,-161.3536 1666.6216,-163.444 1658,-165 1466.356,-199.5863 1235.1529,-211.2122 1125.4872,-214.9003"/>
<polygon fill="#191970" stroke="#191970" points="1125.1402,-211.4097 1115.2592,-215.233 1125.3678,-218.406 1125.1402,-211.4097"/>
</g>
<!-- Node22&#45;&gt;Node7 -->
<g id="edge39" class="edge">
<title>Node22&#45;&gt;Node7</title>
<path fill="none" stroke="#191970" d="M1755.6657,-128.978C1781.6423,-116.2529 1818.6188,-98.1394 1844.0848,-85.6646"/>
<polygon fill="#191970" stroke="#191970" points="1845.7937,-88.7249 1853.2343,-81.1825 1842.7142,-82.4386 1845.7937,-88.7249"/>
</g>
<!-- Node23&#45;&gt;Node3 -->
<g id="edge41" class="edge">
<title>Node23&#45;&gt;Node3</title>
<path fill="none" stroke="#191970" d="M1067.5903,-159.0028C1068.7494,-168.3309 1069.0396,-180.5601 1068.461,-191.3409"/>
<polygon fill="#191970" stroke="#191970" points="1064.959,-191.2157 1067.5927,-201.478 1071.9334,-191.8132 1064.959,-191.2157"/>
</g>
<!-- Node24&#45;&gt;Node3 -->
<g id="edge43" class="edge">
<title>Node24&#45;&gt;Node3</title>
<path fill="none" stroke="#191970" d="M1169.9939,-164.5015C1150.8423,-174.7034 1126.7855,-186.971 1106.1994,-197.0281"/>
<polygon fill="#191970" stroke="#191970" points="1104.4884,-193.9678 1097.0152,-201.478 1107.5407,-200.2673 1104.4884,-193.9678"/>
</g>
<!-- Node25&#45;&gt;Node2 -->
<g id="edge50" class="edge">
<title>Node25&#45;&gt;Node2</title>
<path fill="none" stroke="#191970" d="M1955.601,-335.4639C1937.0226,-325.9619 1912.809,-313.5779 1892.6801,-303.283"/>
<polygon fill="#191970" stroke="#191970" points="1894.251,-300.1552 1883.7541,-298.7177 1891.0635,-306.3874 1894.251,-300.1552"/>
</g>
<!-- Node25&#45;&gt;Node7 -->
<g id="edge51" class="edge">
<title>Node25&#45;&gt;Node7</title>
<path fill="none" stroke="#191970" d="M2018.7333,-335.3642C2033.3002,-326.9147 2048.8477,-314.8543 2057,-299 2079.4631,-255.3147 2112.1907,-212.6716 2036,-123 2022.2419,-106.8076 1972.8769,-92.6167 1932.0429,-83.2544"/>
<polygon fill="#191970" stroke="#191970" points="1932.6641,-79.8069 1922.1411,-81.0386 1931.1354,-86.638 1932.6641,-79.8069"/>
</g>
<!-- Node26 -->
<g id="node27" class="node">
<title>Node26</title>
<g id="a_node27"><a xlink:href="mir__native__buffer_8h.html" target="_top" xlink:title="mir_toolkit/mir_native\l_buffer.h">
<polygon fill="#ffffff" stroke="#000000" points="1922.5,-268.5 1922.5,-298.5 2047.5,-298.5 2047.5,-268.5 1922.5,-268.5"/>
<text text-anchor="start" x="1930.5" y="-286.5" font-family="Arial" font-size="10.00" fill="#000000">mir_toolkit/mir_native</text>
<text text-anchor="middle" x="1985" y="-275.5" font-family="Arial" font-size="10.00" fill="#000000">_buffer.h</text>
</a>
</g>
</g>
<!-- Node25&#45;&gt;Node26 -->
<g id="edge49" class="edge">
<title>Node25&#45;&gt;Node26</title>
<path fill="none" stroke="#191970" d="M1985,-335.2967C1985,-327.5013 1985,-317.7991 1985,-308.9064"/>
<polygon fill="#191970" stroke="#191970" points="1988.5001,-308.6431 1985,-298.6432 1981.5001,-308.6432 1988.5001,-308.6431"/>
</g>
<!-- Node28 -->
<g id="node29" class="node">
<title>Node28</title>
<g id="a_node29"><a xlink:href="mir__connection_8h.html" target="_top" xlink:title="mir_toolkit/mir_connection.h">
<polygon fill="#ffffff" stroke="#000000" points="1748.5,-341 1748.5,-360 1905.5,-360 1905.5,-341 1748.5,-341"/>
<text text-anchor="middle" x="1827" y="-348" font-family="Arial" font-size="10.00" fill="#000000">mir_toolkit/mir_connection.h</text>
</a>
</g>
</g>
<!-- Node27&#45;&gt;Node28 -->
<g id="edge53" class="edge">
<title>Node27&#45;&gt;Node28</title>
<path fill="none" stroke="#191970" d="M1849.4195,-402.2967C1845.2082,-392.5672 1839.7113,-379.8675 1835.2145,-369.4784"/>
<polygon fill="#191970" stroke="#191970" points="1838.3201,-367.8419 1831.1357,-360.055 1831.896,-370.6225 1838.3201,-367.8419"/>
</g>
<!-- Node28&#45;&gt;Node2 -->
<g id="edge54" class="edge">
<title>Node28&#45;&gt;Node2</title>
<path fill="none" stroke="#191970" d="M1830.8684,-340.9005C1834.3195,-332.3368 1839.5227,-319.4252 1844.1207,-308.0152"/>
<polygon fill="#191970" stroke="#191970" points="1847.4549,-309.1052 1847.9465,-298.5218 1840.9623,-306.4887 1847.4549,-309.1052"/>
</g>
<!-- Node28&#45;&gt;Node6 -->
<g id="edge55" class="edge">
<title>Node28&#45;&gt;Node6</title>
<path fill="none" stroke="#191970" d="M1818.5286,-340.6682C1810.6838,-330.8622 1799.5641,-314.9932 1795,-299 1791.2191,-285.7512 1791.1825,-281.2384 1795,-268 1807.1845,-225.746 1838.4935,-184.0017 1857.5338,-161.3551"/>
<polygon fill="#191970" stroke="#191970" points="1860.2951,-163.5122 1864.1651,-153.6494 1854.9893,-158.9462 1860.2951,-163.5122"/>
</g>
<!-- Node28&#45;&gt;Node7 -->
<g id="edge56" class="edge">
<title>Node28&#45;&gt;Node7</title>
<path fill="none" stroke="#191970" d="M1875.6807,-340.9542C1941.2287,-327.9055 2050.476,-305.3872 2057,-299 2100.8273,-256.0915 2082.6129,-225.8885 2090,-165 2092.2482,-146.4692 2101.5755,-137.6442 2090,-123 2073.16,-101.6957 2009.6254,-88.2762 1955.6225,-80.4971"/>
<polygon fill="#191970" stroke="#191970" points="1956.0507,-77.023 1945.6633,-79.1095 1955.0847,-83.956 1956.0507,-77.023"/>
</g>
<!-- Node28&#45;&gt;Node10 -->
<g id="edge57" class="edge">
<title>Node28&#45;&gt;Node10</title>
<path fill="none" stroke="#191970" d="M1748.3543,-348.1159C1425.5168,-337.8204 219,-294.1497 219,-216.5 219,-216.5 219,-216.5 219,-144 219,-101.7065 236.7376,-54.6555 247.9757,-29.0895"/>
<polygon fill="#191970" stroke="#191970" points="251.2396,-30.3667 252.1873,-19.8143 244.8659,-27.4726 251.2396,-30.3667"/>
</g>
</g>
</svg>
