<?xml version="1.0" encoding="UTF-8" standalone="no"?>
<!DOCTYPE svg PUBLIC "-//W3C//DTD SVG 1.1//EN"
 "http://www.w3.org/Graphics/SVG/1.1/DTD/svg11.dtd">
<!-- Generated by graphviz version 2.40.1 (20161225.0304)
 -->
<!-- Title: include/client/mir_toolkit/extensions/hardware_buffer_stream.h Pages: 1 -->
<svg width="1994pt" height="519pt"
 viewBox="0.00 0.00 1993.50 519.00" xmlns="http://www.w3.org/2000/svg" xmlns:xlink="http://www.w3.org/1999/xlink">
<g id="graph0" class="graph" transform="scale(1 1) rotate(0) translate(4 515)">
<title>include/client/mir_toolkit/extensions/hardware_buffer_stream.h</title>
<polygon fill="#ffffff" stroke="transparent" points="-4,4 -4,-515 1989.5,-515 1989.5,4 -4,4"/>
<!-- Node0 -->
<g id="node1" class="node">
<title>Node0</title>
<polygon fill="#bfbfbf" stroke="#000000" points="1752,-469.5 1752,-510.5 1884,-510.5 1884,-469.5 1752,-469.5"/>
<text text-anchor="start" x="1760" y="-498.5" font-family="Arial" font-size="10.00" fill="#000000">include/client/mir</text>
<text text-anchor="start" x="1760" y="-487.5" font-family="Arial" font-size="10.00" fill="#000000">_toolkit/extensions</text>
<text text-anchor="middle" x="1818" y="-476.5" font-family="Arial" font-size="10.00" fill="#000000">/hardware_buffer_stream.h</text>
</g>
<!-- Node1 -->
<g id="node2" class="node">
<title>Node1</title>
<g id="a_node2"><a xlink:href="mir__render__surface_8h.html" target="_top" xlink:title="mir_toolkit/rs/mir\l_render_surface.h">
<polygon fill="#ffffff" stroke="#000000" points="1890.5,-335.5 1890.5,-365.5 1985.5,-365.5 1985.5,-335.5 1890.5,-335.5"/>
<text text-anchor="start" x="1898.5" y="-353.5" font-family="Arial" font-size="10.00" fill="#000000">mir_toolkit/rs/mir</text>
<text text-anchor="middle" x="1938" y="-342.5" font-family="Arial" font-size="10.00" fill="#000000">_render_surface.h</text>
</a>
</g>
</g>
<!-- Node0&#45;&gt;Node1 -->
<g id="edge1" class="edge">
<title>Node0&#45;&gt;Node1</title>
<path fill="none" stroke="#191970" d="M1835.7064,-469.4163C1857.8036,-443.7284 1895.4725,-399.9382 1918.413,-373.2699"/>
<polygon fill="#191970" stroke="#191970" points="1921.158,-375.4458 1925.026,-365.5822 1915.8513,-370.8808 1921.158,-375.4458"/>
</g>
<!-- Node25 -->
<g id="node26" class="node">
<title>Node25</title>
<g id="a_node26"><a xlink:href="mir__buffer__stream_8h.html" target="_top" xlink:title="mir_toolkit/mir_buffer\l_stream.h">
<polygon fill="#ffffff" stroke="#000000" points="1764,-335.5 1764,-365.5 1872,-365.5 1872,-335.5 1764,-335.5"/>
<text text-anchor="start" x="1772" y="-353.5" font-family="Arial" font-size="10.00" fill="#000000">mir_toolkit/mir_buffer</text>
<text text-anchor="middle" x="1818" y="-342.5" font-family="Arial" font-size="10.00" fill="#000000">_stream.h</text>
</a>
</g>
</g>
<!-- Node0&#45;&gt;Node25 -->
<g id="edge48" class="edge">
<title>Node0&#45;&gt;Node25</title>
<path fill="none" stroke="#191970" d="M1818,-469.4163C1818,-444.5034 1818,-402.5643 1818,-375.7297"/>
<polygon fill="#191970" stroke="#191970" points="1821.5001,-375.5822 1818,-365.5822 1814.5001,-375.5823 1821.5001,-375.5822"/>
</g>
<!-- Node27 -->
<g id="node28" class="node">
<title>Node27</title>
<g id="a_node28"><a xlink:href="mir__extension__core_8h.html" target="_top" xlink:title="mir_toolkit/mir_extension\l_core.h">
<polygon fill="#ffffff" stroke="#000000" points="1639.5,-402.5 1639.5,-432.5 1764.5,-432.5 1764.5,-402.5 1639.5,-402.5"/>
<text text-anchor="start" x="1647.5" y="-420.5" font-family="Arial" font-size="10.00" fill="#000000">mir_toolkit/mir_extension</text>
<text text-anchor="middle" x="1702" y="-409.5" font-family="Arial" font-size="10.00" fill="#000000">_core.h</text>
</a>
</g>
</g>
<!-- Node0&#45;&gt;Node27 -->
<g id="edge52" class="edge">
<title>Node0&#45;&gt;Node27</title>
<path fill="none" stroke="#191970" d="M1785.0693,-469.4183C1769.3914,-459.6196 1750.6873,-447.9296 1735.0004,-438.1253"/>
<polygon fill="#191970" stroke="#191970" points="1736.4936,-434.9311 1726.1586,-432.5991 1732.7836,-440.8671 1736.4936,-434.9311"/>
</g>
<!-- Node2 -->
<g id="node3" class="node">
<title>Node2</title>
<g id="a_node3"><a xlink:href="client__types_8h.html" target="_top" xlink:title="mir_toolkit/client\l_types.h">
<polygon fill="#ffffff" stroke="#000000" points="1657,-268.5 1657,-298.5 1745,-298.5 1745,-268.5 1657,-268.5"/>
<text text-anchor="start" x="1665" y="-286.5" font-family="Arial" font-size="10.00" fill="#000000">mir_toolkit/client</text>
<text text-anchor="middle" x="1701" y="-275.5" font-family="Arial" font-size="10.00" fill="#000000">_types.h</text>
</a>
</g>
</g>
<!-- Node1&#45;&gt;Node2 -->
<g id="edge2" class="edge">
<title>Node1&#45;&gt;Node2</title>
<path fill="none" stroke="#191970" d="M1890.3021,-337.3133C1855.3098,-327.602 1806.3873,-313.948 1754.8801,-299.2369"/>
<polygon fill="#191970" stroke="#191970" points="1755.8122,-295.8632 1745.2353,-296.4784 1753.8873,-302.5933 1755.8122,-295.8632"/>
</g>
<!-- Node7 -->
<g id="node8" class="node">
<title>Node7</title>
<g id="a_node8"><a xlink:href="deprecations_8h.html" target="_top" xlink:title="mir_toolkit/deprecations.h">
<polygon fill="#ffffff" stroke="#000000" points="1646,-62 1646,-81 1774,-81 1774,-62 1646,-62"/>
<text text-anchor="middle" x="1710" y="-69" font-family="Arial" font-size="10.00" fill="#000000">mir_toolkit/deprecations.h</text>
</a>
</g>
</g>
<!-- Node1&#45;&gt;Node7 -->
<g id="edge47" class="edge">
<title>Node1&#45;&gt;Node7</title>
<path fill="none" stroke="#191970" d="M1943.1158,-335.3524C1955.5511,-295.4386 1982.7079,-186.1243 1931,-123 1912.4539,-100.3591 1840.992,-86.6515 1784.2848,-79.1341"/>
<polygon fill="#191970" stroke="#191970" points="1784.6087,-75.6471 1774.2446,-77.8464 1783.7181,-82.5902 1784.6087,-75.6471"/>
</g>
<!-- Node3 -->
<g id="node4" class="node">
<title>Node3</title>
<g id="a_node4"><a xlink:href="toolkit_2events_2event_8h.html" target="_top" xlink:title="mir_toolkit/events\l/event.h">
<polygon fill="#ffffff" stroke="#000000" points="926,-201.5 926,-231.5 1020,-231.5 1020,-201.5 926,-201.5"/>
<text text-anchor="start" x="934" y="-219.5" font-family="Arial" font-size="10.00" fill="#000000">mir_toolkit/events</text>
<text text-anchor="middle" x="973" y="-208.5" font-family="Arial" font-size="10.00" fill="#000000">/event.h</text>
</a>
</g>
</g>
<!-- Node2&#45;&gt;Node3 -->
<g id="edge3" class="edge">
<title>Node2&#45;&gt;Node3</title>
<path fill="none" stroke="#191970" d="M1656.8284,-279.4348C1531.0522,-267.8592 1171.031,-234.7254 1030.3313,-221.7764"/>
<polygon fill="#191970" stroke="#191970" points="1030.4661,-218.2741 1020.1874,-220.8428 1029.8246,-225.2446 1030.4661,-218.2741"/>
</g>
<!-- Node4 -->
<g id="node5" class="node">
<title>Node4</title>
<polygon fill="#ffffff" stroke="#bfbfbf" points="1783,-134.5 1783,-153.5 1835,-153.5 1835,-134.5 1783,-134.5"/>
<text text-anchor="middle" x="1809" y="-141.5" font-family="Arial" font-size="10.00" fill="#000000">stddef.h</text>
</g>
<!-- Node2&#45;&gt;Node4 -->
<g id="edge46" class="edge">
<title>Node2&#45;&gt;Node4</title>
<path fill="none" stroke="#191970" d="M1712.7635,-268.3055C1732.8907,-242.3078 1773.8309,-189.4267 1795.2462,-161.7654"/>
<polygon fill="#191970" stroke="#191970" points="1798.1077,-163.7865 1801.462,-153.7366 1792.5727,-159.5013 1798.1077,-163.7865"/>
</g>
<!-- Node6 -->
<g id="node7" class="node">
<title>Node6</title>
<g id="a_node7"><a xlink:href="common_8h.html" target="_top" xlink:title="mir_toolkit/common.h">
<polygon fill="#ffffff" stroke="#000000" points="1655,-134.5 1655,-153.5 1765,-153.5 1765,-134.5 1655,-134.5"/>
<text text-anchor="middle" x="1710" y="-141.5" font-family="Arial" font-size="10.00" fill="#000000">mir_toolkit/common.h</text>
</a>
</g>
</g>
<!-- Node2&#45;&gt;Node6 -->
<g id="edge44" class="edge">
<title>Node2&#45;&gt;Node6</title>
<path fill="none" stroke="#191970" d="M1701.9803,-268.3055C1703.614,-242.9831 1706.8932,-192.1556 1708.7116,-163.9709"/>
<polygon fill="#191970" stroke="#191970" points="1712.2207,-163.9412 1709.3718,-153.7366 1705.2352,-163.4905 1712.2207,-163.9412"/>
</g>
<!-- Node2&#45;&gt;Node7 -->
<g id="edge45" class="edge">
<title>Node2&#45;&gt;Node7</title>
<path fill="none" stroke="#191970" d="M1732.4284,-268.4273C1767.3044,-249.7125 1821.6156,-214.1493 1844,-165 1851.7369,-148.0122 1854.5698,-138.3858 1844,-123 1833.7887,-108.136 1792.3017,-93.6199 1758.1619,-83.8083"/>
<polygon fill="#191970" stroke="#191970" points="1758.8774,-80.374 1748.3038,-81.0444 1756.9876,-87.1141 1758.8774,-80.374"/>
</g>
<!-- Node3&#45;&gt;Node4 -->
<g id="edge4" class="edge">
<title>Node3&#45;&gt;Node4</title>
<path fill="none" stroke="#191970" d="M1020.0152,-214.7724C1180.705,-208.6894 1702.1221,-187.4167 1774,-165 1778.6149,-163.5607 1783.2557,-161.3973 1787.5808,-158.9979"/>
<polygon fill="#191970" stroke="#191970" points="1789.7337,-161.7825 1796.4123,-153.5577 1786.0623,-155.8225 1789.7337,-161.7825"/>
</g>
<!-- Node5 -->
<g id="node6" class="node">
<title>Node5</title>
<polygon fill="#ffffff" stroke="#bfbfbf" points="583.5,-.5 583.5,-19.5 632.5,-19.5 632.5,-.5 583.5,-.5"/>
<text text-anchor="middle" x="608" y="-7.5" font-family="Arial" font-size="10.00" fill="#000000">stdint.h</text>
</g>
<!-- Node3&#45;&gt;Node5 -->
<g id="edge5" class="edge">
<title>Node3&#45;&gt;Node5</title>
<path fill="none" stroke="#191970" d="M948.5205,-201.3034C932.1789,-191.1151 910.2387,-177.3524 891,-165 862.3706,-146.6182 856.3797,-140.157 827,-123 760.8483,-84.369 680.0992,-44.4979 637.5333,-24.0195"/>
<polygon fill="#191970" stroke="#191970" points="638.8368,-20.7631 628.3063,-19.5968 635.8111,-27.0754 638.8368,-20.7631"/>
</g>
<!-- Node3&#45;&gt;Node6 -->
<g id="edge6" class="edge">
<title>Node3&#45;&gt;Node6</title>
<path fill="none" stroke="#191970" d="M1020.1051,-214.3722C1152.4441,-208.1598 1525.763,-188.9623 1646,-165 1655.8736,-163.0323 1666.3446,-160.0129 1675.8944,-156.8719"/>
<polygon fill="#191970" stroke="#191970" points="1677.1264,-160.1495 1685.4492,-153.5935 1674.8546,-153.5284 1677.1264,-160.1495"/>
</g>
<!-- Node3&#45;&gt;Node7 -->
<g id="edge8" class="edge">
<title>Node3&#45;&gt;Node7</title>
<path fill="none" stroke="#191970" d="M941.3579,-201.4839C927.1842,-192.9409 911.9065,-180.7673 904,-165 895.6326,-148.3137 891.2284,-136.6137 904,-123 928.8285,-96.5345 1440.7091,-79.1913 1635.5739,-73.5261"/>
<polygon fill="#191970" stroke="#191970" points="1635.8299,-77.0203 1645.7247,-73.2333 1635.6279,-70.0232 1635.8299,-77.0203"/>
</g>
<!-- Node8 -->
<g id="node9" class="node">
<title>Node8</title>
<g id="a_node9"><a xlink:href="input__event_8h.html" target="_top" xlink:title="mir_toolkit/events\l/input/input_event.h">
<polygon fill="#ffffff" stroke="#000000" points="340,-129 340,-159 442,-159 442,-129 340,-129"/>
<text text-anchor="start" x="348" y="-147" font-family="Arial" font-size="10.00" fill="#000000">mir_toolkit/events</text>
<text text-anchor="middle" x="391" y="-136" font-family="Arial" font-size="10.00" fill="#000000">/input/input_event.h</text>
</a>
</g>
</g>
<!-- Node3&#45;&gt;Node8 -->
<g id="edge9" class="edge">
<title>Node3&#45;&gt;Node8</title>
<path fill="none" stroke="#191970" d="M925.9715,-215.7324C832.405,-213.3661 617.3934,-203.7626 442,-165 438.2788,-164.1776 434.4699,-163.195 430.6866,-162.1103"/>
<polygon fill="#191970" stroke="#191970" points="431.3981,-158.6664 420.8099,-159.0408 429.3206,-165.351 431.3981,-158.6664"/>
</g>
<!-- Node15 -->
<g id="node16" class="node">
<title>Node15</title>
<g id="a_node16"><a xlink:href="resize__event_8h.html" target="_top" xlink:title="mir_toolkit/events\l/resize_event.h">
<polygon fill="#ffffff" stroke="#000000" points="1403,-129 1403,-159 1497,-159 1497,-129 1403,-129"/>
<text text-anchor="start" x="1411" y="-147" font-family="Arial" font-size="10.00" fill="#000000">mir_toolkit/events</text>
<text text-anchor="middle" x="1450" y="-136" font-family="Arial" font-size="10.00" fill="#000000">/resize_event.h</text>
</a>
</g>
</g>
<!-- Node3&#45;&gt;Node15 -->
<g id="edge20" class="edge">
<title>Node3&#45;&gt;Node15</title>
<path fill="none" stroke="#191970" d="M1020.1189,-214.0526C1097.394,-209.4305 1255.0119,-196.8443 1385,-165 1388.3281,-164.1847 1391.7287,-163.2306 1395.1471,-162.1871"/>
<polygon fill="#191970" stroke="#191970" points="1396.3571,-165.4741 1404.7826,-159.0505 1394.1903,-158.8179 1396.3571,-165.4741"/>
</g>
<!-- Node16 -->
<g id="node17" class="node">
<title>Node16</title>
<g id="a_node17"><a xlink:href="surface__event_8h.html" target="_top" xlink:title="mir_toolkit/events\l/surface_event.h">
<polygon fill="#ffffff" stroke="#000000" points="1171,-129 1171,-159 1265,-159 1265,-129 1171,-129"/>
<text text-anchor="start" x="1179" y="-147" font-family="Arial" font-size="10.00" fill="#000000">mir_toolkit/events</text>
<text text-anchor="middle" x="1218" y="-136" font-family="Arial" font-size="10.00" fill="#000000">/surface_event.h</text>
</a>
</g>
</g>
<!-- Node3&#45;&gt;Node16 -->
<g id="edge22" class="edge">
<title>Node3&#45;&gt;Node16</title>
<path fill="none" stroke="#191970" d="M1020.3919,-202.9553C1056.9073,-193.2627 1108.3394,-179.4243 1153,-165 1155.6863,-164.1324 1158.4337,-163.2122 1161.2096,-162.2604"/>
<polygon fill="#191970" stroke="#191970" points="1162.4294,-165.5417 1170.7104,-158.9329 1160.1155,-158.9352 1162.4294,-165.5417"/>
</g>
<!-- Node17 -->
<g id="node18" class="node">
<title>Node17</title>
<g id="a_node18"><a xlink:href="window__event_8h.html" target="_top" xlink:title="mir_toolkit/events\l/window_event.h">
<polygon fill="#ffffff" stroke="#000000" points="460,-129 460,-159 554,-159 554,-129 460,-129"/>
<text text-anchor="start" x="468" y="-147" font-family="Arial" font-size="10.00" fill="#000000">mir_toolkit/events</text>
<text text-anchor="middle" x="507" y="-136" font-family="Arial" font-size="10.00" fill="#000000">/window_event.h</text>
</a>
</g>
</g>
<!-- Node3&#45;&gt;Node17 -->
<g id="edge25" class="edge">
<title>Node3&#45;&gt;Node17</title>
<path fill="none" stroke="#191970" d="M925.7451,-214.4715C847.2312,-210.1357 685.9901,-197.5609 554,-165 550.774,-164.2042 547.4796,-163.2792 544.2017,-162.2698"/>
<polygon fill="#191970" stroke="#191970" points="545.0967,-158.8787 534.503,-159.0329 542.8806,-165.5187 545.0967,-158.8787"/>
</g>
<!-- Node18 -->
<g id="node19" class="node">
<title>Node18</title>
<g id="a_node19"><a xlink:href="orientation__event_8h.html" target="_top" xlink:title="mir_toolkit/events\l/orientation_event.h">
<polygon fill="#ffffff" stroke="#000000" points="572,-129 572,-159 674,-159 674,-129 572,-129"/>
<text text-anchor="start" x="580" y="-147" font-family="Arial" font-size="10.00" fill="#000000">mir_toolkit/events</text>
<text text-anchor="middle" x="623" y="-136" font-family="Arial" font-size="10.00" fill="#000000">/orientation_event.h</text>
</a>
</g>
</g>
<!-- Node3&#45;&gt;Node18 -->
<g id="edge27" class="edge">
<title>Node3&#45;&gt;Node18</title>
<path fill="none" stroke="#191970" d="M925.9302,-211.3345C866.3729,-203.7307 761.4307,-187.9044 674,-165 670.6421,-164.1203 667.2035,-163.1398 663.7716,-162.0965"/>
<polygon fill="#191970" stroke="#191970" points="664.7807,-158.7446 654.1895,-159.0216 662.6418,-165.4098 664.7807,-158.7446"/>
</g>
<!-- Node19 -->
<g id="node20" class="node">
<title>Node19</title>
<g id="a_node20"><a xlink:href="prompt__session__event_8h.html" target="_top" xlink:title="mir_toolkit/events\l/prompt_session_event.h">
<polygon fill="#ffffff" stroke="#000000" points="692,-129 692,-159 818,-159 818,-129 692,-129"/>
<text text-anchor="start" x="700" y="-147" font-family="Arial" font-size="10.00" fill="#000000">mir_toolkit/events</text>
<text text-anchor="middle" x="755" y="-136" font-family="Arial" font-size="10.00" fill="#000000">/prompt_session_event.h</text>
</a>
</g>
</g>
<!-- Node3&#45;&gt;Node19 -->
<g id="edge29" class="edge">
<title>Node3&#45;&gt;Node19</title>
<path fill="none" stroke="#191970" d="M925.7789,-202.6071C889.9976,-191.2194 841.0594,-175.0025 804.6939,-162.5132"/>
<polygon fill="#191970" stroke="#191970" points="805.3865,-159.0497 794.7917,-159.0965 803.1032,-165.6669 805.3865,-159.0497"/>
</g>
<!-- Node20 -->
<g id="node21" class="node">
<title>Node20</title>
<g id="a_node21"><a xlink:href="keymap__event_8h.html" target="_top" xlink:title="mir_toolkit/events\l/keymap_event.h">
<polygon fill="#ffffff" stroke="#000000" points="228,-129 228,-159 322,-159 322,-129 228,-129"/>
<text text-anchor="start" x="236" y="-147" font-family="Arial" font-size="10.00" fill="#000000">mir_toolkit/events</text>
<text text-anchor="middle" x="275" y="-136" font-family="Arial" font-size="10.00" fill="#000000">/keymap_event.h</text>
</a>
</g>
</g>
<!-- Node3&#45;&gt;Node20 -->
<g id="edge31" class="edge">
<title>Node3&#45;&gt;Node20</title>
<path fill="none" stroke="#191970" d="M925.795,-214.6048C796.0457,-208.882 436.7289,-190.5844 322,-165 318.5511,-164.2309 315.0296,-163.2952 311.5368,-162.2507"/>
<polygon fill="#191970" stroke="#191970" points="312.4466,-158.8656 301.8537,-159.0674 310.2604,-165.5155 312.4466,-158.8656"/>
</g>
<!-- Node21 -->
<g id="node22" class="node">
<title>Node21</title>
<g id="a_node22"><a xlink:href="input__configuration__event_8h.html" target="_top" xlink:title="mir_toolkit/events\l/input_configuration\l_event.h">
<polygon fill="#ffffff" stroke="#000000" points="1283.5,-123.5 1283.5,-164.5 1384.5,-164.5 1384.5,-123.5 1283.5,-123.5"/>
<text text-anchor="start" x="1291.5" y="-152.5" font-family="Arial" font-size="10.00" fill="#000000">mir_toolkit/events</text>
<text text-anchor="start" x="1291.5" y="-141.5" font-family="Arial" font-size="10.00" fill="#000000">/input_configuration</text>
<text text-anchor="middle" x="1334" y="-130.5" font-family="Arial" font-size="10.00" fill="#000000">_event.h</text>
</a>
</g>
</g>
<!-- Node3&#45;&gt;Node21 -->
<g id="edge34" class="edge">
<title>Node3&#45;&gt;Node21</title>
<path fill="none" stroke="#191970" d="M1020.0478,-210.0857C1078.224,-202.1928 1179.6677,-187.0678 1265,-165 1267.8982,-164.2505 1270.8559,-163.424 1273.8386,-162.5454"/>
<polygon fill="#191970" stroke="#191970" points="1274.8846,-165.8855 1283.4074,-159.5917 1272.8199,-159.1969 1274.8846,-165.8855"/>
</g>
<!-- Node22 -->
<g id="node23" class="node">
<title>Node22</title>
<g id="a_node23"><a xlink:href="surface__output__event_8h.html" target="_top" xlink:title="mir_toolkit/events\l/surface_output_event.h">
<polygon fill="#ffffff" stroke="#000000" points="1515,-129 1515,-159 1637,-159 1637,-129 1515,-129"/>
<text text-anchor="start" x="1523" y="-147" font-family="Arial" font-size="10.00" fill="#000000">mir_toolkit/events</text>
<text text-anchor="middle" x="1576" y="-136" font-family="Arial" font-size="10.00" fill="#000000">/surface_output_event.h</text>
</a>
</g>
</g>
<!-- Node3&#45;&gt;Node22 -->
<g id="edge37" class="edge">
<title>Node3&#45;&gt;Node22</title>
<path fill="none" stroke="#191970" d="M1020.0376,-214.8276C1112.3747,-211.0104 1322.9908,-199.1679 1497,-165 1501.731,-164.071 1506.5999,-162.9551 1511.4909,-161.7283"/>
<polygon fill="#191970" stroke="#191970" points="1512.7495,-165.016 1521.5243,-159.0785 1510.962,-158.248 1512.7495,-165.016"/>
</g>
<!-- Node23 -->
<g id="node24" class="node">
<title>Node23</title>
<g id="a_node24"><a xlink:href="window__output__event_8h.html" target="_top" xlink:title="mir_toolkit/events\l/window_output_event.h">
<polygon fill="#ffffff" stroke="#000000" points="912.5,-129 912.5,-159 1033.5,-159 1033.5,-129 912.5,-129"/>
<text text-anchor="start" x="920.5" y="-147" font-family="Arial" font-size="10.00" fill="#000000">mir_toolkit/events</text>
<text text-anchor="middle" x="973" y="-136" font-family="Arial" font-size="10.00" fill="#000000">/window_output_event.h</text>
</a>
</g>
</g>
<!-- Node3&#45;&gt;Node23 -->
<g id="edge40" class="edge">
<title>Node3&#45;&gt;Node23</title>
<path fill="none" stroke="#191970" d="M967.4073,-201.478C966.2494,-192.1459 965.9604,-179.9157 966.5402,-169.1368"/>
<polygon fill="#191970" stroke="#191970" points="970.042,-169.2654 967.4097,-159.0028 963.0676,-168.667 970.042,-169.2654"/>
</g>
<!-- Node24 -->
<g id="node25" class="node">
<title>Node24</title>
<g id="a_node25"><a xlink:href="input__device__state__event_8h.html" target="_top" xlink:title="mir_toolkit/events\l/input_device_state\l_event.h">
<polygon fill="#ffffff" stroke="#000000" points="1051.5,-123.5 1051.5,-164.5 1152.5,-164.5 1152.5,-123.5 1051.5,-123.5"/>
<text text-anchor="start" x="1059.5" y="-152.5" font-family="Arial" font-size="10.00" fill="#000000">mir_toolkit/events</text>
<text text-anchor="start" x="1059.5" y="-141.5" font-family="Arial" font-size="10.00" fill="#000000">/input_device_state</text>
<text text-anchor="middle" x="1102" y="-130.5" font-family="Arial" font-size="10.00" fill="#000000">_event.h</text>
</a>
</g>
</g>
<!-- Node3&#45;&gt;Node24 -->
<g id="edge42" class="edge">
<title>Node3&#45;&gt;Node24</title>
<path fill="none" stroke="#191970" d="M994.1362,-201.478C1009.4961,-192.1984 1030.8138,-180.0532 1050.4804,-169.3189"/>
<polygon fill="#191970" stroke="#191970" points="1052.2474,-172.3423 1059.3729,-164.5015 1048.913,-166.1874 1052.2474,-172.3423"/>
</g>
<!-- Node6&#45;&gt;Node7 -->
<g id="edge7" class="edge">
<title>Node6&#45;&gt;Node7</title>
<path fill="none" stroke="#191970" d="M1710,-134.2223C1710,-123.243 1710,-105.1397 1710,-91.197"/>
<polygon fill="#191970" stroke="#191970" points="1713.5001,-91.1227 1710,-81.1228 1706.5001,-91.1228 1713.5001,-91.1227"/>
</g>
<!-- Node8&#45;&gt;Node3 -->
<g id="edge10" class="edge">
<title>Node8&#45;&gt;Node3</title>
<path fill="none" stroke="#191970" d="M438.5153,-159.0408C445.6798,-161.3362 452.9955,-163.452 460,-165 623.0072,-201.0253 820.2346,-211.8643 915.7786,-215.1151"/>
<polygon fill="#191970" stroke="#191970" points="915.7027,-218.6144 925.8112,-215.4411 915.9301,-211.6181 915.7027,-218.6144"/>
</g>
<!-- Node8&#45;&gt;Node5 -->
<g id="edge13" class="edge">
<title>Node8&#45;&gt;Node5</title>
<path fill="none" stroke="#191970" d="M427.803,-128.8943C451.6967,-118.4492 483.0948,-103.5003 509,-87 527.3835,-75.2907 529.8512,-69.4529 547,-56 559.9732,-45.8228 574.7309,-34.6827 586.4809,-25.9146"/>
<polygon fill="#191970" stroke="#191970" points="588.8651,-28.5034 594.8006,-19.7272 584.6877,-22.8864 588.8651,-28.5034"/>
</g>
<!-- Node9 -->
<g id="node10" class="node">
<title>Node9</title>
<g id="a_node10"><a xlink:href="mir__input__device__types_8h.html" target="_top" xlink:title="mir_toolkit/mir_input\l_device_types.h">
<polygon fill="#ffffff" stroke="#000000" points="556,-56.5 556,-86.5 660,-86.5 660,-56.5 556,-56.5"/>
<text text-anchor="start" x="564" y="-74.5" font-family="Arial" font-size="10.00" fill="#000000">mir_toolkit/mir_input</text>
<text text-anchor="middle" x="608" y="-63.5" font-family="Arial" font-size="10.00" fill="#000000">_device_types.h</text>
</a>
</g>
</g>
<!-- Node8&#45;&gt;Node9 -->
<g id="edge11" class="edge">
<title>Node8&#45;&gt;Node9</title>
<path fill="none" stroke="#191970" d="M433.5748,-128.9826C439.4232,-126.9537 445.3559,-124.9132 451,-123 484.1953,-111.7476 521.4689,-99.5044 551.3656,-89.7796"/>
<polygon fill="#191970" stroke="#191970" points="552.7757,-93.0016 561.205,-86.5832 550.6129,-86.3441 552.7757,-93.0016"/>
</g>
<!-- Node10 -->
<g id="node11" class="node">
<title>Node10</title>
<polygon fill="#ffffff" stroke="#bfbfbf" points="210,-.5 210,-19.5 266,-19.5 266,-.5 210,-.5"/>
<text text-anchor="middle" x="238" y="-7.5" font-family="Arial" font-size="10.00" fill="#000000">stdbool.h</text>
</g>
<!-- Node8&#45;&gt;Node10 -->
<g id="edge14" class="edge">
<title>Node8&#45;&gt;Node10</title>
<path fill="none" stroke="#191970" d="M350.6697,-128.9468C313.6281,-114.7869 263.5143,-94.6519 257,-87 243.5112,-71.1556 239.3268,-47.1843 238.1622,-30.2028"/>
<polygon fill="#191970" stroke="#191970" points="241.642,-29.6073 237.7611,-19.7489 234.6471,-29.8758 241.642,-29.6073"/>
</g>
<!-- Node11 -->
<g id="node12" class="node">
<title>Node11</title>
<g id="a_node12"><a xlink:href="touch__event_8h.html" target="_top" xlink:title="mir_toolkit/events\l/input/touch_event.h">
<polygon fill="#ffffff" stroke="#000000" points="394.5,-56.5 394.5,-86.5 499.5,-86.5 499.5,-56.5 394.5,-56.5"/>
<text text-anchor="start" x="402.5" y="-74.5" font-family="Arial" font-size="10.00" fill="#000000">mir_toolkit/events</text>
<text text-anchor="middle" x="447" y="-63.5" font-family="Arial" font-size="10.00" fill="#000000">/input/touch_event.h</text>
</a>
</g>
</g>
<!-- Node8&#45;&gt;Node11 -->
<g id="edge15" class="edge">
<title>Node8&#45;&gt;Node11</title>
<path fill="none" stroke="#191970" d="M402.6032,-128.978C410.262,-119.0626 420.4478,-105.8756 429.1311,-94.6339"/>
<polygon fill="#191970" stroke="#191970" points="432.0686,-96.5564 435.4116,-86.5028 426.5287,-92.2773 432.0686,-96.5564"/>
</g>
<!-- Node12 -->
<g id="node13" class="node">
<title>Node12</title>
<g id="a_node13"><a xlink:href="keyboard__event_8h.html" target="_top" xlink:title="mir_toolkit/events\l/input/keyboard_event.h">
<polygon fill="#ffffff" stroke="#000000" points="50.5,-56.5 50.5,-86.5 171.5,-86.5 171.5,-56.5 50.5,-56.5"/>
<text text-anchor="start" x="58.5" y="-74.5" font-family="Arial" font-size="10.00" fill="#000000">mir_toolkit/events</text>
<text text-anchor="middle" x="111" y="-63.5" font-family="Arial" font-size="10.00" fill="#000000">/input/keyboard_event.h</text>
</a>
</g>
</g>
<!-- Node8&#45;&gt;Node12 -->
<g id="edge16" class="edge">
<title>Node8&#45;&gt;Node12</title>
<path fill="none" stroke="#191970" d="M349.8734,-128.9565C343.5867,-126.8458 337.1459,-124.7893 331,-123 281.5579,-108.6052 224.9727,-95.4313 181.5713,-86.0113"/>
<polygon fill="#191970" stroke="#191970" points="182.1916,-82.5647 171.6787,-83.8796 180.717,-89.4077 182.1916,-82.5647"/>
</g>
<!-- Node14 -->
<g id="node15" class="node">
<title>Node14</title>
<g id="a_node15"><a xlink:href="pointer__event_8h.html" target="_top" xlink:title="mir_toolkit/events\l/input/pointer_event.h">
<polygon fill="#ffffff" stroke="#000000" points="266,-56.5 266,-86.5 376,-86.5 376,-56.5 266,-56.5"/>
<text text-anchor="start" x="274" y="-74.5" font-family="Arial" font-size="10.00" fill="#000000">mir_toolkit/events</text>
<text text-anchor="middle" x="321" y="-63.5" font-family="Arial" font-size="10.00" fill="#000000">/input/pointer_event.h</text>
</a>
</g>
</g>
<!-- Node8&#45;&gt;Node14 -->
<g id="edge18" class="edge">
<title>Node8&#45;&gt;Node14</title>
<path fill="none" stroke="#191970" d="M376.496,-128.978C366.7348,-118.8682 353.6897,-105.3572 342.6999,-93.9749"/>
<polygon fill="#191970" stroke="#191970" points="344.9494,-91.2658 335.4855,-86.5028 339.9135,-96.1279 344.9494,-91.2658"/>
</g>
<!-- Node9&#45;&gt;Node5 -->
<g id="edge12" class="edge">
<title>Node9&#45;&gt;Node5</title>
<path fill="none" stroke="#191970" d="M608,-56.2977C608,-48.3834 608,-38.6043 608,-30.0759"/>
<polygon fill="#191970" stroke="#191970" points="611.5001,-29.8469 608,-19.8469 604.5001,-29.847 611.5001,-29.8469"/>
</g>
<!-- Node13 -->
<g id="node14" class="node">
<title>Node13</title>
<polygon fill="#ffffff" stroke="#bfbfbf" points="0,-.5 0,-19.5 134,-19.5 134,-.5 0,-.5"/>
<text text-anchor="middle" x="67" y="-7.5" font-family="Arial" font-size="10.00" fill="#000000">xkbcommon/xkbcommon.h</text>
</g>
<!-- Node12&#45;&gt;Node13 -->
<g id="edge17" class="edge">
<title>Node12&#45;&gt;Node13</title>
<path fill="none" stroke="#191970" d="M100.1236,-56.2977C94.0159,-47.7609 86.3561,-37.0545 79.9412,-28.0883"/>
<polygon fill="#191970" stroke="#191970" points="82.7101,-25.9433 74.045,-19.8469 77.0171,-30.0163 82.7101,-25.9433"/>
</g>
<!-- Node14&#45;&gt;Node10 -->
<g id="edge19" class="edge">
<title>Node14&#45;&gt;Node10</title>
<path fill="none" stroke="#191970" d="M300.4831,-56.2977C288.0018,-47.0495 272.0841,-35.2551 259.4386,-25.8853"/>
<polygon fill="#191970" stroke="#191970" points="261.4078,-22.9882 251.2894,-19.8469 257.2404,-28.6126 261.4078,-22.9882"/>
</g>
<!-- Node15&#45;&gt;Node3 -->
<g id="edge21" class="edge">
<title>Node15&#45;&gt;Node3</title>
<path fill="none" stroke="#191970" d="M1422.5013,-159.0505C1416.1817,-161.3157 1409.4545,-163.4188 1403,-165 1272.2091,-197.0409 1113.4459,-209.5852 1030.1349,-214.1373"/>
<polygon fill="#191970" stroke="#191970" points="1029.9134,-210.6441 1020.1117,-214.6661 1030.2822,-217.6343 1029.9134,-210.6441"/>
</g>
<!-- Node16&#45;&gt;Node3 -->
<g id="edge23" class="edge">
<title>Node16&#45;&gt;Node3</title>
<path fill="none" stroke="#191970" d="M1188.2028,-159.0429C1182.5323,-161.1309 1176.632,-163.181 1171,-165 1124.1599,-180.1282 1069.8714,-194.6119 1029.9023,-204.3443"/>
<polygon fill="#191970" stroke="#191970" points="1028.9651,-200.9698 1020.0624,-206.7138 1030.6039,-207.7753 1028.9651,-200.9698"/>
</g>
<!-- Node16&#45;&gt;Node7 -->
<g id="edge24" class="edge">
<title>Node16&#45;&gt;Node7</title>
<path fill="none" stroke="#191970" d="M1255.0182,-128.9379C1261.5925,-126.674 1268.4367,-124.5743 1275,-123 1399.4848,-93.1406 1548.3442,-80.2821 1635.6976,-74.977"/>
<polygon fill="#191970" stroke="#191970" points="1636.0027,-78.4652 1645.779,-74.3818 1635.5901,-71.4773 1636.0027,-78.4652"/>
</g>
<!-- Node17&#45;&gt;Node3 -->
<g id="edge26" class="edge">
<title>Node17&#45;&gt;Node3</title>
<path fill="none" stroke="#191970" d="M552.2218,-159.0329C558.8221,-161.3 565.5481,-163.4084 572,-165 692.3194,-194.6819 836.9456,-207.7557 915.5247,-213.12"/>
<polygon fill="#191970" stroke="#191970" points="915.491,-216.6254 925.7012,-213.7967 915.9555,-209.6408 915.491,-216.6254"/>
</g>
<!-- Node18&#45;&gt;Node3 -->
<g id="edge28" class="edge">
<title>Node18&#45;&gt;Node3</title>
<path fill="none" stroke="#191970" d="M671.946,-159.0216C678.6722,-161.2086 685.4876,-163.2939 692,-165 768.6455,-185.079 858.7488,-199.7185 915.9449,-208.1473"/>
<polygon fill="#191970" stroke="#191970" points="915.4806,-211.6166 925.8814,-209.5982 916.4921,-204.69 915.4806,-211.6166"/>
</g>
<!-- Node19&#45;&gt;Node3 -->
<g id="edge30" class="edge">
<title>Node19&#45;&gt;Node3</title>
<path fill="none" stroke="#191970" d="M805.7022,-159.0028C841.2991,-170.3714 888.5624,-186.0491 923.8174,-198.1624"/>
<polygon fill="#191970" stroke="#191970" points="922.8282,-201.5236 933.423,-201.478 925.1122,-194.9067 922.8282,-201.5236"/>
</g>
<!-- Node20&#45;&gt;Node3 -->
<g id="edge32" class="edge">
<title>Node20&#45;&gt;Node3</title>
<path fill="none" stroke="#191970" d="M319.5452,-159.0674C326.3493,-161.3901 333.3113,-163.5084 340,-165 449.4227,-189.4011 781.3319,-207.1739 915.7149,-213.7306"/>
<polygon fill="#191970" stroke="#191970" points="915.6504,-217.2315 925.8082,-214.2201 915.9895,-210.2397 915.6504,-217.2315"/>
</g>
<!-- Node20&#45;&gt;Node13 -->
<g id="edge33" class="edge">
<title>Node20&#45;&gt;Node13</title>
<path fill="none" stroke="#191970" d="M227.8492,-139.2565C166.559,-132.0048 64.658,-115.8692 42,-87 28.3816,-69.6485 40.8557,-44.6335 52.549,-27.872"/>
<polygon fill="#191970" stroke="#191970" points="55.6144,-29.6166 58.7943,-19.5102 50.006,-25.4278 55.6144,-29.6166"/>
</g>
<!-- Node21&#45;&gt;Node3 -->
<g id="edge35" class="edge">
<title>Node21&#45;&gt;Node3</title>
<path fill="none" stroke="#191970" d="M1284.6084,-164.5778C1284.0705,-164.7211 1283.5342,-164.8618 1283,-165 1196.3331,-187.4129 1093.047,-202.6642 1030.1854,-210.4508"/>
<polygon fill="#191970" stroke="#191970" points="1029.5763,-206.999 1020.0725,-211.6817 1030.4222,-213.9477 1029.5763,-206.999"/>
</g>
<!-- Node21&#45;&gt;Node7 -->
<g id="edge36" class="edge">
<title>Node21&#45;&gt;Node7</title>
<path fill="none" stroke="#191970" d="M1384.5482,-125.6087C1387.7293,-124.6689 1390.8983,-123.7891 1394,-123 1475.558,-102.2517 1571.1731,-88.032 1635.6923,-79.8758"/>
<polygon fill="#191970" stroke="#191970" points="1636.2833,-83.3293 1645.7734,-78.6188 1635.4171,-76.3831 1636.2833,-83.3293"/>
</g>
<!-- Node22&#45;&gt;Node3 -->
<g id="edge38" class="edge">
<title>Node22&#45;&gt;Node3</title>
<path fill="none" stroke="#191970" d="M1539.243,-159.0785C1531.3271,-161.3406 1522.9681,-163.4354 1515,-165 1340.771,-199.2111 1129.8425,-211.0403 1030.2136,-214.842"/>
<polygon fill="#191970" stroke="#191970" points="1029.9252,-211.3502 1020.0609,-215.2161 1030.183,-218.3454 1029.9252,-211.3502"/>
</g>
<!-- Node22&#45;&gt;Node7 -->
<g id="edge39" class="edge">
<title>Node22&#45;&gt;Node7</title>
<path fill="none" stroke="#191970" d="M1603.7649,-128.978C1627.077,-116.365 1660.1738,-98.4582 1683.2082,-85.9956"/>
<polygon fill="#191970" stroke="#191970" points="1684.9744,-89.0195 1692.1041,-81.1825 1681.6433,-82.8628 1684.9744,-89.0195"/>
</g>
<!-- Node23&#45;&gt;Node3 -->
<g id="edge41" class="edge">
<title>Node23&#45;&gt;Node3</title>
<path fill="none" stroke="#191970" d="M978.5903,-159.0028C979.7494,-168.3309 980.0396,-180.5601 979.461,-191.3409"/>
<polygon fill="#191970" stroke="#191970" points="975.959,-191.2157 978.5927,-201.478 982.9334,-191.8132 975.959,-191.2157"/>
</g>
<!-- Node24&#45;&gt;Node3 -->
<g id="edge43" class="edge">
<title>Node24&#45;&gt;Node3</title>
<path fill="none" stroke="#191970" d="M1071.67,-164.5015C1054.5037,-174.6115 1032.8841,-186.7502 1014.2163,-196.7557"/>
<polygon fill="#191970" stroke="#191970" points="1012.5128,-193.6974 1005.3216,-201.478 1015.7953,-199.8801 1012.5128,-193.6974"/>
</g>
<!-- Node25&#45;&gt;Node2 -->
<g id="edge50" class="edge">
<title>Node25&#45;&gt;Node2</title>
<path fill="none" stroke="#191970" d="M1791.7429,-335.4639C1775.4489,-326.1332 1754.3018,-314.0232 1736.5216,-303.8415"/>
<polygon fill="#191970" stroke="#191970" points="1737.9914,-300.6499 1727.5743,-298.7177 1734.5128,-306.7244 1737.9914,-300.6499"/>
</g>
<!-- Node25&#45;&gt;Node7 -->
<g id="edge51" class="edge">
<title>Node25&#45;&gt;Node7</title>
<path fill="none" stroke="#191970" d="M1846.7377,-335.4081C1860.0839,-326.7162 1874.6084,-314.4356 1882,-299 1903.3501,-254.4158 1931.9302,-208.4233 1861,-123 1848.2089,-107.5953 1801.7027,-93.1642 1763.6435,-83.5205"/>
<polygon fill="#191970" stroke="#191970" points="1764.2209,-80.0579 1753.6729,-81.0526 1762.539,-86.8528 1764.2209,-80.0579"/>
</g>
<!-- Node26 -->
<g id="node27" class="node">
<title>Node26</title>
<g id="a_node27"><a xlink:href="mir__native__buffer_8h.html" target="_top" xlink:title="mir_toolkit/mir_native\l_buffer.h">
<polygon fill="#ffffff" stroke="#000000" points="1763,-268.5 1763,-298.5 1873,-298.5 1873,-268.5 1763,-268.5"/>
<text text-anchor="start" x="1771" y="-286.5" font-family="Arial" font-size="10.00" fill="#000000">mir_toolkit/mir_native</text>
<text text-anchor="middle" x="1818" y="-275.5" font-family="Arial" font-size="10.00" fill="#000000">_buffer.h</text>
</a>
</g>
</g>
<!-- Node25&#45;&gt;Node26 -->
<g id="edge49" class="edge">
<title>Node25&#45;&gt;Node26</title>
<path fill="none" stroke="#191970" d="M1818,-335.2967C1818,-327.5013 1818,-317.7991 1818,-308.9064"/>
<polygon fill="#191970" stroke="#191970" points="1821.5001,-308.6431 1818,-298.6432 1814.5001,-308.6432 1821.5001,-308.6431"/>
</g>
<!-- Node28 -->
<g id="node29" class="node">
<title>Node28</title>
<g id="a_node29"><a xlink:href="mir__connection_8h.html" target="_top" xlink:title="mir_toolkit/mir_connection.h">
<polygon fill="#ffffff" stroke="#000000" points="1606.5,-341 1606.5,-360 1745.5,-360 1745.5,-341 1606.5,-341"/>
<text text-anchor="middle" x="1676" y="-348" font-family="Arial" font-size="10.00" fill="#000000">mir_toolkit/mir_connection.h</text>
</a>
</g>
</g>
<!-- Node27&#45;&gt;Node28 -->
<g id="edge53" class="edge">
<title>Node27&#45;&gt;Node28</title>
<path fill="none" stroke="#191970" d="M1696.1002,-402.2967C1692.3246,-392.5672 1687.3963,-379.8675 1683.3647,-369.4784"/>
<polygon fill="#191970" stroke="#191970" points="1686.5886,-368.1114 1679.7079,-360.055 1680.0628,-370.6439 1686.5886,-368.1114"/>
</g>
<!-- Node28&#45;&gt;Node2 -->
<g id="edge54" class="edge">
<title>Node28&#45;&gt;Node2</title>
<path fill="none" stroke="#191970" d="M1679.5819,-340.9005C1682.7773,-332.3368 1687.5951,-319.4252 1691.8525,-308.0152"/>
<polygon fill="#191970" stroke="#191970" points="1695.1781,-309.1144 1695.3949,-298.5218 1688.6197,-306.6672 1695.1781,-309.1144"/>
</g>
<!-- Node28&#45;&gt;Node6 -->
<g id="edge55" class="edge">
<title>Node28&#45;&gt;Node6</title>
<path fill="none" stroke="#191970" d="M1668.8335,-340.8627C1661.947,-330.953 1652.0126,-314.781 1648,-299 1644.6048,-285.6471 1644.8345,-281.4092 1648,-268 1657.5261,-227.6469 1682.306,-185.4534 1697.4973,-162.1687"/>
<polygon fill="#191970" stroke="#191970" points="1700.5255,-163.9362 1703.1653,-153.6755 1694.703,-160.0505 1700.5255,-163.9362"/>
</g>
<!-- Node28&#45;&gt;Node7 -->
<g id="edge56" class="edge">
<title>Node28&#45;&gt;Node7</title>
<path fill="none" stroke="#191970" d="M1725.1197,-340.9801C1782.4414,-329.4477 1870.8596,-310.1796 1882,-299 1925.2941,-255.5535 1907.6129,-225.8885 1915,-165 1917.2482,-146.4692 1926.4793,-137.7198 1915,-123 1898.789,-102.2128 1836.2058,-88.5372 1784.4062,-80.5381"/>
<polygon fill="#191970" stroke="#191970" points="1784.6145,-77.0304 1774.207,-79.0135 1783.5796,-83.9535 1784.6145,-77.0304"/>
</g>
<!-- Node28&#45;&gt;Node10 -->
<g id="edge57" class="edge">
<title>Node28&#45;&gt;Node10</title>
<path fill="none" stroke="#191970" d="M1606.2966,-347.8737C1313.726,-336.3992 200,-288.0224 200,-216.5 200,-216.5 200,-216.5 200,-144 200,-101.7065 217.7376,-54.6555 228.9757,-29.0895"/>
<polygon fill="#191970" stroke="#191970" points="232.2396,-30.3667 233.1873,-19.8143 225.8659,-27.4726 232.2396,-30.3667"/>
</g>
</g>
</svg>
