<?xml version="1.0" encoding="UTF-8" standalone="no"?>
<!DOCTYPE svg PUBLIC "-//W3C//DTD SVG 1.1//EN"
 "http://www.w3.org/Graphics/SVG/1.1/DTD/svg11.dtd">
<!-- Generated by graphviz version 2.38.0 (20140413.2041)
 -->
<!-- Title: Graphical Class Hierarchy Pages: 1 -->
<svg width="754pt" height="212pt"
 viewBox="0.00 0.00 754.00 212.00" xmlns="http://www.w3.org/2000/svg" xmlns:xlink="http://www.w3.org/1999/xlink">
<g id="graph0" class="graph" transform="scale(1 1) rotate(0) translate(4 208)">
<title>Graphical Class Hierarchy</title>
<polygon fill="white" stroke="none" points="-4,4 -4,-208 750,-208 750,4 -4,4"/>
<!-- Node239 -->
<g id="node1" class="node"><title>Node239</title>
<g id="a_node1"><a xlink:href="classmiral_1_1_active_outputs_listener.html" target="_top" xlink:title="miral::ActiveOutputsListener">
<polygon fill="white" stroke="black" points="10.5,-184.5 10.5,-203.5 150.5,-203.5 150.5,-184.5 10.5,-184.5"/>
<text text-anchor="middle" x="80.5" y="-191.5" font-family="Arial" font-size="10.00">miral::ActiveOutputsListener</text>
</a>
</g>
</g>
<!-- Node18 -->
<g id="node2" class="node"><title>Node18</title>
<g id="a_node2"><a xlink:href="class_tiling_window_manager_policy.html" target="_top" xlink:title="TilingWindowManagerPolicy">
<polygon fill="white" stroke="black" points="208.5,-184.5 208.5,-203.5 346.5,-203.5 346.5,-184.5 208.5,-184.5"/>
<text text-anchor="middle" x="277.5" y="-191.5" font-family="Arial" font-size="10.00">TilingWindowManagerPolicy</text>
</a>
</g>
</g>
<!-- Node239&#45;&gt;Node18 -->
<g id="edge1" class="edge"><title>Node239&#45;&gt;Node18</title>
<path fill="none" stroke="#8b1a1a" d="M160.754,-194C176.494,-194 192.891,-194 208.225,-194"/>
<polygon fill="#8b1a1a" stroke="#8b1a1a" points="160.524,-190.5 150.524,-194 160.524,-197.5 160.524,-190.5"/>
</g>
<!-- Node13 -->
<g id="node3" class="node"><title>Node13</title>
<g id="a_node3"><a xlink:href="classmiral_1_1_window_management_policy.html" target="_top" xlink:title="The interface through which the window management policy is determined. ">
<polygon fill="white" stroke="black" points="0,-99.5 0,-118.5 161,-118.5 161,-99.5 0,-99.5"/>
<text text-anchor="middle" x="80.5" y="-106.5" font-family="Arial" font-size="10.00">miral::WindowManagementPolicy</text>
</a>
</g>
</g>
<!-- Node13&#45;&gt;Node18 -->
<g id="edge7" class="edge"><title>Node13&#45;&gt;Node18</title>
<path fill="none" stroke="midnightblue" d="M103.94,-124.403C126.533,-139.276 162.838,-161.479 197,-175 206.5,-178.76 216.945,-181.908 227.052,-184.491"/>
<polygon fill="midnightblue" stroke="midnightblue" points="105.683,-121.358 95.4234,-118.714 101.795,-127.179 105.683,-121.358"/>
</g>
<!-- Node14 -->
<g id="node4" class="node"><title>Node14</title>
<g id="a_node4"><a xlink:href="classmiral_1_1_canonical_window_manager_policy.html" target="_top" xlink:title="Widely accepted defaults for window management. ">
<polygon fill="white" stroke="black" points="198.5,-47 198.5,-77 356.5,-77 356.5,-47 198.5,-47"/>
<text text-anchor="start" x="206.5" y="-65" font-family="Arial" font-size="10.00">miral::CanonicalWindowManager</text>
<text text-anchor="middle" x="277.5" y="-54" font-family="Arial" font-size="10.00">Policy</text>
</a>
</g>
</g>
<!-- Node13&#45;&gt;Node14 -->
<g id="edge2" class="edge"><title>Node13&#45;&gt;Node14</title>
<path fill="none" stroke="midnightblue" d="M130.704,-97.1405C155.999,-91.0439 187.095,-83.5488 214.063,-77.0488"/>
<polygon fill="midnightblue" stroke="midnightblue" points="129.863,-93.7431 120.961,-99.4888 131.503,-100.548 129.863,-93.7431"/>
</g>
<!-- Node1 -->
<g id="node5" class="node"><title>Node1</title>
<g id="a_node5"><a xlink:href="class_floating_window_manager_policy.html" target="_top" xlink:title="FloatingWindowManagerPolicy">
<polygon fill="white" stroke="black" points="401.5,-96.5 401.5,-115.5 550.5,-115.5 550.5,-96.5 401.5,-96.5"/>
<text text-anchor="middle" x="476" y="-103.5" font-family="Arial" font-size="10.00">FloatingWindowManagerPolicy</text>
</a>
</g>
</g>
<!-- Node14&#45;&gt;Node1 -->
<g id="edge3" class="edge"><title>Node14&#45;&gt;Node1</title>
<path fill="none" stroke="midnightblue" d="M355.498,-79.2412C381.702,-85.1089 410.026,-91.451 432.518,-96.4876"/>
<polygon fill="midnightblue" stroke="midnightblue" points="356.098,-75.789 345.575,-77.0192 354.568,-82.6198 356.098,-75.789"/>
</g>
<!-- Node15 -->
<g id="node6" class="node"><title>Node15</title>
<g id="a_node6"><a xlink:href="class_kiosk_window_manager_policy.html" target="_top" xlink:title="KioskWindowManagerPolicy">
<polygon fill="white" stroke="black" points="406,-55.5 406,-74.5 546,-74.5 546,-55.5 406,-55.5"/>
<text text-anchor="middle" x="476" y="-62.5" font-family="Arial" font-size="10.00">KioskWindowManagerPolicy</text>
</a>
</g>
</g>
<!-- Node14&#45;&gt;Node15 -->
<g id="edge4" class="edge"><title>Node14&#45;&gt;Node15</title>
<path fill="none" stroke="midnightblue" d="M367.106,-63.3528C380.13,-63.5516 393.383,-63.7539 405.937,-63.9456"/>
<polygon fill="midnightblue" stroke="midnightblue" points="366.779,-59.8475 356.727,-63.1943 366.672,-66.8466 366.779,-59.8475"/>
</g>
<!-- Node16 -->
<g id="node7" class="node"><title>Node16</title>
<g id="a_node7"><a xlink:href="structmir__test__framework_1_1_canonical_window_manager_policy.html" target="_top" xlink:title="mir_test_framework\l::CanonicalWindowManagerPolicy">
<polygon fill="white" stroke="black" points="394,-6 394,-36 558,-36 558,-6 394,-6"/>
<text text-anchor="start" x="402" y="-24" font-family="Arial" font-size="10.00">mir_test_framework</text>
<text text-anchor="middle" x="476" y="-13" font-family="Arial" font-size="10.00">::CanonicalWindowManagerPolicy</text>
</a>
</g>
</g>
<!-- Node14&#45;&gt;Node16 -->
<g id="edge5" class="edge"><title>Node14&#45;&gt;Node16</title>
<path fill="none" stroke="midnightblue" d="M360.679,-44.8532C374.717,-41.9241 389.206,-38.9011 402.955,-36.0323"/>
<polygon fill="midnightblue" stroke="midnightblue" points="359.628,-41.4971 350.554,-46.9659 361.058,-48.3495 359.628,-41.4971"/>
</g>
<!-- Node17 -->
<g id="node8" class="node"><title>Node17</title>
<g id="a_node8"><a xlink:href="classmir__test__framework_1_1_declarative_placement_window_manager_policy.html" target="_top" xlink:title="DeclarativePlacementWindowManagerPolicy is a test utility server component for specifying a static li...">
<polygon fill="white" stroke="black" points="594,-0.5 594,-41.5 746,-41.5 746,-0.5 594,-0.5"/>
<text text-anchor="start" x="602" y="-29.5" font-family="Arial" font-size="10.00">mir_test_framework</text>
<text text-anchor="start" x="602" y="-18.5" font-family="Arial" font-size="10.00">::DeclarativePlacementWindow</text>
<text text-anchor="middle" x="670" y="-7.5" font-family="Arial" font-size="10.00">ManagerPolicy</text>
</a>
</g>
</g>
<!-- Node16&#45;&gt;Node17 -->
<g id="edge6" class="edge"><title>Node16&#45;&gt;Node17</title>
<path fill="none" stroke="midnightblue" d="M568.221,-21C576.837,-21 585.505,-21 593.945,-21"/>
<polygon fill="midnightblue" stroke="midnightblue" points="568.147,-17.5001 558.147,-21 568.147,-24.5001 568.147,-17.5001"/>
</g>
<!-- Node11 -->
<g id="node9" class="node"><title>Node11</title>
<g id="a_node9"><a xlink:href="classmiral_1_1_window_management_policy_addendum3.html" target="_top" xlink:title="Handle additional client requests. ">
<polygon fill="white" stroke="black" points="197,-135 197,-165 358,-165 358,-135 197,-135"/>
<text text-anchor="start" x="205" y="-153" font-family="Arial" font-size="10.00">miral::WindowManagementPolicy</text>
<text text-anchor="middle" x="277.5" y="-142" font-family="Arial" font-size="10.00">Addendum3</text>
</a>
</g>
</g>
<!-- Node11&#45;&gt;Node1 -->
<g id="edge8" class="edge"><title>Node11&#45;&gt;Node1</title>
<path fill="none" stroke="midnightblue" d="M355.498,-132.759C381.702,-126.891 410.026,-120.549 432.518,-115.512"/>
<polygon fill="midnightblue" stroke="midnightblue" points="354.568,-129.38 345.575,-134.981 356.098,-136.211 354.568,-129.38"/>
</g>
<!-- Node0 -->
<g id="node10" class="node"><title>Node0</title>
<g id="a_node10"><a xlink:href="classmiral_1_1_workspace_policy.html" target="_top" xlink:title="Advise changes to workspaces. ">
<polygon fill="white" stroke="black" points="218,-96.5 218,-115.5 337,-115.5 337,-96.5 218,-96.5"/>
<text text-anchor="middle" x="277.5" y="-103.5" font-family="Arial" font-size="10.00">miral::WorkspacePolicy</text>
</a>
</g>
</g>
<!-- Node0&#45;&gt;Node1 -->
<g id="edge9" class="edge"><title>Node0&#45;&gt;Node1</title>
<path fill="none" stroke="midnightblue" d="M347.294,-106C364.754,-106 383.583,-106 401.277,-106"/>
<polygon fill="midnightblue" stroke="midnightblue" points="347.19,-102.5 337.19,-106 347.19,-109.5 347.19,-102.5"/>
</g>
</g>
</svg>
