<?xml version="1.0" encoding="UTF-8" standalone="no"?>
<!DOCTYPE svg PUBLIC "-//W3C//DTD SVG 1.1//EN"
 "http://www.w3.org/Graphics/SVG/1.1/DTD/svg11.dtd">
<!-- Generated by graphviz version 2.40.1 (20161225.0304)
 -->
<!-- Title: Graphical Class Hierarchy Pages: 1 -->
<svg width="548pt" height="91pt"
 viewBox="0.00 0.00 548.00 91.00" xmlns="http://www.w3.org/2000/svg" xmlns:xlink="http://www.w3.org/1999/xlink">
<g id="graph0" class="graph" transform="scale(1 1) rotate(0) translate(4 87)">
<title>Graphical Class Hierarchy</title>
<polygon fill="#ffffff" stroke="transparent" points="-4,4 -4,-87 544,-87 544,4 -4,4"/>
<!-- Node0 -->
<g id="node1" class="node">
<title>Node0</title>
<g id="a_node1"><a xlink:href="classmiral_1_1_window_management_policy.html" target="_top" xlink:title="The interface through which the window management policy is determined. ">
<polygon fill="#ffffff" stroke="#000000" points="0,-22.5 0,-41.5 161,-41.5 161,-22.5 0,-22.5"/>
<text text-anchor="middle" x="80.5" y="-29.5" font-family="Arial" font-size="10.00" fill="#000000">miral::WindowManagementPolicy</text>
</a>
</g>
</g>
<!-- Node1 -->
<g id="node2" class="node">
<title>Node1</title>
<g id="a_node2"><a xlink:href="classmiral_1_1_canonical_window_manager_policy.html" target="_top" xlink:title="Widely accepted defaults for window management. ">
<polygon fill="#ffffff" stroke="#000000" points="197,-39 197,-69 355,-69 355,-39 197,-39"/>
<text text-anchor="start" x="205" y="-57" font-family="Arial" font-size="10.00" fill="#000000">miral::CanonicalWindowManager</text>
<text text-anchor="middle" x="276" y="-46" font-family="Arial" font-size="10.00" fill="#000000">Policy</text>
</a>
</g>
</g>
<!-- Node0&#45;&gt;Node1 -->
<g id="edge1" class="edge">
<title>Node0&#45;&gt;Node1</title>
<path fill="none" stroke="#191970" d="M171.151,-42.2011C179.7158,-43.1649 188.3536,-44.137 196.7997,-45.0874"/>
<polygon fill="#191970" stroke="#191970" points="171.4747,-38.7156 161.146,-41.0753 170.6919,-45.6717 171.4747,-38.7156"/>
</g>
<!-- Node4 -->
<g id="node5" class="node">
<title>Node4</title>
<g id="a_node5"><a xlink:href="class_tiling_window_manager_policy.html" target="_top" xlink:title="TilingWindowManagerPolicy">
<polygon fill="#ffffff" stroke="#000000" points="207,-.5 207,-19.5 345,-19.5 345,-.5 207,-.5"/>
<text text-anchor="middle" x="276" y="-7.5" font-family="Arial" font-size="10.00" fill="#000000">TilingWindowManagerPolicy</text>
</a>
</g>
</g>
<!-- Node0&#45;&gt;Node4 -->
<g id="edge4" class="edge">
<title>Node0&#45;&gt;Node4</title>
<path fill="none" stroke="#191970" d="M171.151,-21.7989C183.1204,-20.4519 195.2326,-19.0889 206.7645,-17.7912"/>
<polygon fill="#191970" stroke="#191970" points="170.6919,-18.3283 161.146,-22.9247 171.4747,-25.2844 170.6919,-18.3283"/>
</g>
<!-- Node2 -->
<g id="node3" class="node">
<title>Node2</title>
<g id="a_node3"><a xlink:href="class_floating_window_manager_policy.html" target="_top" xlink:title="FloatingWindowManagerPolicy">
<polygon fill="#ffffff" stroke="#000000" points="391,-63.5 391,-82.5 540,-82.5 540,-63.5 391,-63.5"/>
<text text-anchor="middle" x="465.5" y="-70.5" font-family="Arial" font-size="10.00" fill="#000000">FloatingWindowManagerPolicy</text>
</a>
</g>
</g>
<!-- Node1&#45;&gt;Node2 -->
<g id="edge2" class="edge">
<title>Node1&#45;&gt;Node2</title>
<path fill="none" stroke="#191970" d="M365.2547,-62.949C373.8003,-63.8058 382.4057,-64.6686 390.7916,-65.5094"/>
<polygon fill="#191970" stroke="#191970" points="365.5664,-59.4628 355.2671,-61.9476 364.868,-66.4279 365.5664,-59.4628"/>
</g>
<!-- Node3 -->
<g id="node4" class="node">
<title>Node3</title>
<g id="a_node4"><a xlink:href="class_kiosk_window_manager_policy.html" target="_top" xlink:title="KioskWindowManagerPolicy">
<polygon fill="#ffffff" stroke="#000000" points="395.5,-25.5 395.5,-44.5 535.5,-44.5 535.5,-25.5 395.5,-25.5"/>
<text text-anchor="middle" x="465.5" y="-32.5" font-family="Arial" font-size="10.00" fill="#000000">KioskWindowManagerPolicy</text>
</a>
</g>
</g>
<!-- Node1&#45;&gt;Node3 -->
<g id="edge3" class="edge">
<title>Node1&#45;&gt;Node3</title>
<path fill="none" stroke="#191970" d="M365.2931,-45.0471C375.3635,-44.0374 385.5165,-43.0195 395.2948,-42.039"/>
<polygon fill="#191970" stroke="#191970" points="364.868,-41.5721 355.2671,-46.0524 365.5664,-48.5372 364.868,-41.5721"/>
</g>
</g>
</svg>
