<?xml version="1.0" encoding="UTF-8" standalone="no"?>
<!DOCTYPE svg PUBLIC "-//W3C//DTD SVG 1.1//EN"
 "http://www.w3.org/Graphics/SVG/1.1/DTD/svg11.dtd">
<!-- Generated by graphviz version 2.38.0 (20140413.2041)
 -->
<!-- Title: include/test/mir_test_framework/input_device_faker.h Pages: 1 -->
<svg width="133pt" height="162pt"
 viewBox="0.00 0.00 133.00 162.00" xmlns="http://www.w3.org/2000/svg" xmlns:xlink="http://www.w3.org/1999/xlink">
<g id="graph0" class="graph" transform="scale(1 1) rotate(0) translate(4 158)">
<title>include/test/mir_test_framework/input_device_faker.h</title>
<polygon fill="white" stroke="none" points="-4,4 -4,-158 129,-158 129,4 -4,4"/>
<!-- Node0 -->
<g id="node1" class="node"><title>Node0</title>
<polygon fill="#bfbfbf" stroke="black" points="-7.10543e-15,-112.5 -7.10543e-15,-153.5 125,-153.5 125,-112.5 -7.10543e-15,-112.5"/>
<text text-anchor="start" x="8" y="-141.5" font-family="Arial" font-size="10.00">include/test/mir_test</text>
<text text-anchor="start" x="8" y="-130.5" font-family="Arial" font-size="10.00">_framework/input_device</text>
<text text-anchor="middle" x="62.5" y="-119.5" font-family="Arial" font-size="10.00">_faker.h</text>
</g>
<!-- Node1 -->
<g id="node2" class="node"><title>Node1</title>
<g id="a_node2"><a xlink:href="module__deleter_8h.html" target="_top" xlink:title="mir/module_deleter.h">
<polygon fill="white" stroke="black" points="9,-56.5 9,-75.5 116,-75.5 116,-56.5 9,-56.5"/>
<text text-anchor="middle" x="62.5" y="-63.5" font-family="Arial" font-size="10.00">mir/module_deleter.h</text>
</a>
</g>
</g>
<!-- Node0&#45;&gt;Node1 -->
<g id="edge1" class="edge"><title>Node0&#45;&gt;Node1</title>
<path fill="none" stroke="midnightblue" d="M62.5,-112.498C62.5,-104.065 62.5,-94.2351 62.5,-85.874"/>
<polygon fill="midnightblue" stroke="midnightblue" points="66.0001,-85.6525 62.5,-75.6525 59.0001,-85.6525 66.0001,-85.6525"/>
</g>
<!-- Node2 -->
<g id="node3" class="node"><title>Node2</title>
<polygon fill="white" stroke="#bfbfbf" points="36.5,-0.5 36.5,-19.5 88.5,-19.5 88.5,-0.5 36.5,-0.5"/>
<text text-anchor="middle" x="62.5" y="-7.5" font-family="Arial" font-size="10.00">memory</text>
</g>
<!-- Node1&#45;&gt;Node2 -->
<g id="edge2" class="edge"><title>Node1&#45;&gt;Node2</title>
<path fill="none" stroke="midnightblue" d="M62.5,-56.083C62.5,-49.0059 62.5,-38.8611 62.5,-29.9865"/>
<polygon fill="midnightblue" stroke="midnightblue" points="66.0001,-29.751 62.5,-19.7511 59.0001,-29.7511 66.0001,-29.751"/>
</g>
</g>
</svg>
