<?xml version="1.0" encoding="UTF-8" standalone="no"?>
<!DOCTYPE svg PUBLIC "-//W3C//DTD SVG 1.1//EN"
 "http://www.w3.org/Graphics/SVG/1.1/DTD/svg11.dtd">
<!-- Generated by graphviz version 2.40.1 (20161225.0304)
 -->
<!-- Title: include/client/mir_toolkit/events/input_device_state_event.h Pages: 1 -->
<svg width="1725pt" height="318pt"
 viewBox="0.00 0.00 1725.00 318.00" xmlns="http://www.w3.org/2000/svg" xmlns:xlink="http://www.w3.org/1999/xlink">
<g id="graph0" class="graph" transform="scale(1 1) rotate(0) translate(4 314)">
<title>include/client/mir_toolkit/events/input_device_state_event.h</title>
<polygon fill="#ffffff" stroke="transparent" points="-4,4 -4,-314 1721,-314 1721,4 -4,4"/>
<!-- Node0 -->
<g id="node1" class="node">
<title>Node0</title>
<polygon fill="#bfbfbf" stroke="#000000" points="813,-268.5 813,-309.5 939,-309.5 939,-268.5 813,-268.5"/>
<text text-anchor="start" x="821" y="-297.5" font-family="Arial" font-size="10.00" fill="#000000">include/client/mir</text>
<text text-anchor="start" x="821" y="-286.5" font-family="Arial" font-size="10.00" fill="#000000">_toolkit/events/input</text>
<text text-anchor="middle" x="876" y="-275.5" font-family="Arial" font-size="10.00" fill="#000000">_device_state_event.h</text>
</g>
<!-- Node1 -->
<g id="node2" class="node">
<title>Node1</title>
<g id="a_node2"><a xlink:href="toolkit_2events_2event_8h.html" target="_top" xlink:title="mir_toolkit/events\l/event.h">
<polygon fill="#ffffff" stroke="#000000" points="823,-201.5 823,-231.5 929,-231.5 929,-201.5 823,-201.5"/>
<text text-anchor="start" x="831" y="-219.5" font-family="Arial" font-size="10.00" fill="#000000">mir_toolkit/events</text>
<text text-anchor="middle" x="876" y="-208.5" font-family="Arial" font-size="10.00" fill="#000000">/event.h</text>
</a>
</g>
</g>
<!-- Node0&#45;&gt;Node1 -->
<g id="edge1" class="edge">
<title>Node0&#45;&gt;Node1</title>
<path fill="none" stroke="#191970" d="M869.8449,-268.4183C869.1713,-260.0849 869.0697,-250.3834 869.5402,-241.6373"/>
<polygon fill="#191970" stroke="#191970" points="873.0338,-241.8608 870.3977,-231.5991 866.0592,-241.2649 873.0338,-241.8608"/>
</g>
<!-- Node1&#45;&gt;Node0 -->
<g id="edge40" class="edge">
<title>Node1&#45;&gt;Node0</title>
<path fill="none" stroke="#191970" d="M881.6023,-231.5991C882.5584,-239.3508 882.9172,-249.0871 882.6785,-258.3279"/>
<polygon fill="#191970" stroke="#191970" points="879.1779,-258.2504 882.1551,-268.4183 886.1685,-258.6131 879.1779,-258.2504"/>
</g>
<!-- Node2 -->
<g id="node3" class="node">
<title>Node2</title>
<polygon fill="#ffffff" stroke="#bfbfbf" points="0,-134.5 0,-153.5 56,-153.5 56,-134.5 0,-134.5"/>
<text text-anchor="middle" x="28" y="-141.5" font-family="Arial" font-size="10.00" fill="#000000">stddef.h</text>
</g>
<!-- Node1&#45;&gt;Node2 -->
<g id="edge2" class="edge">
<title>Node1&#45;&gt;Node2</title>
<path fill="none" stroke="#191970" d="M822.7259,-215.8519C666.6754,-213.5191 212.6439,-203.5164 70,-165 64.0504,-163.3935 57.9523,-160.9047 52.3122,-158.1947"/>
<polygon fill="#191970" stroke="#191970" points="53.847,-155.0479 43.3597,-153.5418 50.6188,-161.2591 53.847,-155.0479"/>
</g>
<!-- Node3 -->
<g id="node4" class="node">
<title>Node3</title>
<polygon fill="#ffffff" stroke="#bfbfbf" points="95.5,-.5 95.5,-19.5 148.5,-19.5 148.5,-.5 95.5,-.5"/>
<text text-anchor="middle" x="122" y="-7.5" font-family="Arial" font-size="10.00" fill="#000000">stdint.h</text>
</g>
<!-- Node1&#45;&gt;Node3 -->
<g id="edge3" class="edge">
<title>Node1&#45;&gt;Node3</title>
<path fill="none" stroke="#191970" d="M822.7572,-214.8969C671.0569,-209.9981 243.911,-193.7808 188,-165 147.8779,-144.3467 138.6372,-129.3299 123,-87 116.1779,-68.5326 116.8734,-45.8329 118.6952,-29.8806"/>
<polygon fill="#191970" stroke="#191970" points="122.2121,-30.0024 120.1294,-19.6143 115.2795,-29.0339 122.2121,-30.0024"/>
</g>
<!-- Node4 -->
<g id="node5" class="node">
<title>Node4</title>
<g id="a_node5"><a xlink:href="common_8h.html" target="_top" xlink:title="mir_toolkit/common.h">
<polygon fill="#ffffff" stroke="#000000" points="329.5,-134.5 329.5,-153.5 454.5,-153.5 454.5,-134.5 329.5,-134.5"/>
<text text-anchor="middle" x="392" y="-141.5" font-family="Arial" font-size="10.00" fill="#000000">mir_toolkit/common.h</text>
</a>
</g>
</g>
<!-- Node1&#45;&gt;Node4 -->
<g id="edge4" class="edge">
<title>Node1&#45;&gt;Node4</title>
<path fill="none" stroke="#191970" d="M822.9334,-212.1815C744.876,-205.2894 594.7456,-189.9744 469,-165 457.2269,-162.6617 444.6049,-159.5014 433.0564,-156.3431"/>
<polygon fill="#191970" stroke="#191970" points="433.806,-152.9184 423.2324,-153.5888 431.9163,-159.6585 433.806,-152.9184"/>
</g>
<!-- Node5 -->
<g id="node6" class="node">
<title>Node5</title>
<g id="a_node6"><a xlink:href="deprecations_8h.html" target="_top" xlink:title="mir_toolkit/deprecations.h">
<polygon fill="#ffffff" stroke="#000000" points="755.5,-62 755.5,-81 900.5,-81 900.5,-62 755.5,-62"/>
<text text-anchor="middle" x="828" y="-69" font-family="Arial" font-size="10.00" fill="#000000">mir_toolkit/deprecations.h</text>
</a>
</g>
</g>
<!-- Node1&#45;&gt;Node5 -->
<g id="edge6" class="edge">
<title>Node1&#45;&gt;Node5</title>
<path fill="none" stroke="#191970" d="M822.973,-213.0094C724.8002,-206.0043 522.7808,-188.8385 502,-165 438.5839,-92.2531 545.4944,-120.7275 746,-87 753.6349,-85.7157 761.6553,-84.2922 769.5676,-82.8436"/>
<polygon fill="#191970" stroke="#191970" points="770.3001,-86.2675 779.4949,-81.0038 769.0245,-79.3847 770.3001,-86.2675"/>
</g>
<!-- Node6 -->
<g id="node7" class="node">
<title>Node6</title>
<g id="a_node7"><a xlink:href="input__event_8h.html" target="_top" xlink:title="mir_toolkit/events\l/input/input_event.h">
<polygon fill="#ffffff" stroke="#000000" points="197,-129 197,-159 311,-159 311,-129 197,-129"/>
<text text-anchor="start" x="205" y="-147" font-family="Arial" font-size="10.00" fill="#000000">mir_toolkit/events</text>
<text text-anchor="middle" x="254" y="-136" font-family="Arial" font-size="10.00" fill="#000000">/input/input_event.h</text>
</a>
</g>
</g>
<!-- Node1&#45;&gt;Node6 -->
<g id="edge7" class="edge">
<title>Node1&#45;&gt;Node6</title>
<path fill="none" stroke="#191970" d="M822.8723,-215.5248C721.8873,-212.7969 496.259,-202.5939 311,-165 306.5717,-164.1014 302.0214,-163.0141 297.5087,-161.8129"/>
<polygon fill="#191970" stroke="#191970" points="298.3283,-158.4071 287.7518,-159.0303 296.4084,-165.1387 298.3283,-158.4071"/>
</g>
<!-- Node13 -->
<g id="node14" class="node">
<title>Node13</title>
<g id="a_node14"><a xlink:href="resize__event_8h.html" target="_top" xlink:title="mir_toolkit/events\l/resize_event.h">
<polygon fill="#ffffff" stroke="#000000" points="511,-129 511,-159 617,-159 617,-129 511,-129"/>
<text text-anchor="start" x="519" y="-147" font-family="Arial" font-size="10.00" fill="#000000">mir_toolkit/events</text>
<text text-anchor="middle" x="564" y="-136" font-family="Arial" font-size="10.00" fill="#000000">/resize_event.h</text>
</a>
</g>
</g>
<!-- Node1&#45;&gt;Node13 -->
<g id="edge18" class="edge">
<title>Node1&#45;&gt;Node13</title>
<path fill="none" stroke="#191970" d="M822.8862,-208.6982C770.0138,-199.81 687.1407,-184.0252 617,-165 613.6633,-164.0949 610.244,-163.1084 606.8241,-162.0726"/>
<polygon fill="#191970" stroke="#191970" points="607.842,-158.7237 597.2521,-159.0495 605.7338,-165.3987 607.842,-158.7237"/>
</g>
<!-- Node14 -->
<g id="node15" class="node">
<title>Node14</title>
<g id="a_node15"><a xlink:href="surface__event_8h.html" target="_top" xlink:title="mir_toolkit/events\l/surface_event.h">
<polygon fill="#ffffff" stroke="#000000" points="635,-129 635,-159 741,-159 741,-129 635,-129"/>
<text text-anchor="start" x="643" y="-147" font-family="Arial" font-size="10.00" fill="#000000">mir_toolkit/events</text>
<text text-anchor="middle" x="688" y="-136" font-family="Arial" font-size="10.00" fill="#000000">/surface_event.h</text>
</a>
</g>
</g>
<!-- Node1&#45;&gt;Node14 -->
<g id="edge20" class="edge">
<title>Node1&#45;&gt;Node14</title>
<path fill="none" stroke="#191970" d="M831.4536,-201.478C800.946,-190.2503 760.8181,-174.8276 730.7114,-162.7845"/>
<polygon fill="#191970" stroke="#191970" points="731.8972,-159.489 721.3135,-159.0028 729.2839,-165.983 731.8972,-159.489"/>
</g>
<!-- Node15 -->
<g id="node16" class="node">
<title>Node15</title>
<g id="a_node16"><a xlink:href="window__event_8h.html" target="_top" xlink:title="mir_toolkit/events\l/window_event.h">
<polygon fill="#ffffff" stroke="#000000" points="759,-129 759,-159 865,-159 865,-129 759,-129"/>
<text text-anchor="start" x="767" y="-147" font-family="Arial" font-size="10.00" fill="#000000">mir_toolkit/events</text>
<text text-anchor="middle" x="812" y="-136" font-family="Arial" font-size="10.00" fill="#000000">/window_event.h</text>
</a>
</g>
</g>
<!-- Node1&#45;&gt;Node15 -->
<g id="edge23" class="edge">
<title>Node1&#45;&gt;Node15</title>
<path fill="none" stroke="#191970" d="M857.1464,-201.478C847.1633,-191.5626 835.273,-178.3756 826.0807,-167.1339"/>
<polygon fill="#191970" stroke="#191970" points="828.6005,-164.6775 819.6535,-159.0028 823.1089,-169.0183 828.6005,-164.6775"/>
</g>
<!-- Node16 -->
<g id="node17" class="node">
<title>Node16</title>
<g id="a_node17"><a xlink:href="orientation__event_8h.html" target="_top" xlink:title="mir_toolkit/events\l/orientation_event.h">
<polygon fill="#ffffff" stroke="#000000" points="883.5,-129 883.5,-159 998.5,-159 998.5,-129 883.5,-129"/>
<text text-anchor="start" x="891.5" y="-147" font-family="Arial" font-size="10.00" fill="#000000">mir_toolkit/events</text>
<text text-anchor="middle" x="941" y="-136" font-family="Arial" font-size="10.00" fill="#000000">/orientation_event.h</text>
</a>
</g>
</g>
<!-- Node1&#45;&gt;Node16 -->
<g id="edge25" class="edge">
<title>Node1&#45;&gt;Node16</title>
<path fill="none" stroke="#191970" d="M883.8753,-201.478C891.76,-191.271 903.7923,-177.5971 914.8702,-166.1471"/>
<polygon fill="#191970" stroke="#191970" points="917.4,-168.5667 921.9589,-159.0028 912.4309,-163.6363 917.4,-168.5667"/>
</g>
<!-- Node17 -->
<g id="node18" class="node">
<title>Node17</title>
<g id="a_node18"><a xlink:href="prompt__session__event_8h.html" target="_top" xlink:title="mir_toolkit/events\l/prompt_session_event.h">
<polygon fill="#ffffff" stroke="#000000" points="1016.5,-129 1016.5,-159 1155.5,-159 1155.5,-129 1016.5,-129"/>
<text text-anchor="start" x="1024.5" y="-147" font-family="Arial" font-size="10.00" fill="#000000">mir_toolkit/events</text>
<text text-anchor="middle" x="1086" y="-136" font-family="Arial" font-size="10.00" fill="#000000">/prompt_session_event.h</text>
</a>
</g>
</g>
<!-- Node1&#45;&gt;Node17 -->
<g id="edge27" class="edge">
<title>Node1&#45;&gt;Node17</title>
<path fill="none" stroke="#191970" d="M913.9194,-201.478C945.5869,-190.0559 991.1314,-174.2923 1027.4533,-162.162"/>
<polygon fill="#191970" stroke="#191970" points="1028.5687,-165.4796 1036.9533,-159.0028 1026.3597,-158.8373 1028.5687,-165.4796"/>
</g>
<!-- Node18 -->
<g id="node19" class="node">
<title>Node18</title>
<g id="a_node19"><a xlink:href="keymap__event_8h.html" target="_top" xlink:title="mir_toolkit/events\l/keymap_event.h">
<polygon fill="#ffffff" stroke="#000000" points="1457,-129 1457,-159 1563,-159 1563,-129 1457,-129"/>
<text text-anchor="start" x="1465" y="-147" font-family="Arial" font-size="10.00" fill="#000000">mir_toolkit/events</text>
<text text-anchor="middle" x="1510" y="-136" font-family="Arial" font-size="10.00" fill="#000000">/keymap_event.h</text>
</a>
</g>
</g>
<!-- Node1&#45;&gt;Node18 -->
<g id="edge29" class="edge">
<title>Node1&#45;&gt;Node18</title>
<path fill="none" stroke="#191970" d="M929.2352,-213.0272C1050.1365,-205.2507 1341.9335,-185.5051 1439,-165 1443.0654,-164.1412 1447.2343,-163.0993 1451.4203,-161.9442"/>
<polygon fill="#191970" stroke="#191970" points="1452.5711,-165.2541 1461.1783,-159.0763 1450.5972,-158.5382 1452.5711,-165.2541"/>
</g>
<!-- Node19 -->
<g id="node20" class="node">
<title>Node19</title>
<g id="a_node20"><a xlink:href="input__configuration__event_8h.html" target="_top" xlink:title="mir_toolkit/events\l/input_configuration\l_event.h">
<polygon fill="#ffffff" stroke="#000000" points="1173.5,-123.5 1173.5,-164.5 1286.5,-164.5 1286.5,-123.5 1173.5,-123.5"/>
<text text-anchor="start" x="1181.5" y="-152.5" font-family="Arial" font-size="10.00" fill="#000000">mir_toolkit/events</text>
<text text-anchor="start" x="1181.5" y="-141.5" font-family="Arial" font-size="10.00" fill="#000000">/input_configuration</text>
<text text-anchor="middle" x="1230" y="-130.5" font-family="Arial" font-size="10.00" fill="#000000">_event.h</text>
</a>
</g>
</g>
<!-- Node1&#45;&gt;Node19 -->
<g id="edge32" class="edge">
<title>Node1&#45;&gt;Node19</title>
<path fill="none" stroke="#191970" d="M929.1277,-208.2449C985.8054,-199.5841 1077.7465,-184.517 1156,-165 1158.4667,-164.3848 1160.9761,-163.7253 1163.509,-163.0334"/>
<polygon fill="#191970" stroke="#191970" points="1164.6966,-166.3344 1173.3548,-160.2282 1162.7785,-159.6023 1164.6966,-166.3344"/>
</g>
<!-- Node20 -->
<g id="node21" class="node">
<title>Node20</title>
<g id="a_node21"><a xlink:href="surface__output__event_8h.html" target="_top" xlink:title="mir_toolkit/events\l/surface_output_event.h">
<polygon fill="#ffffff" stroke="#000000" points="1305,-129 1305,-159 1439,-159 1439,-129 1305,-129"/>
<text text-anchor="start" x="1313" y="-147" font-family="Arial" font-size="10.00" fill="#000000">mir_toolkit/events</text>
<text text-anchor="middle" x="1372" y="-136" font-family="Arial" font-size="10.00" fill="#000000">/surface_output_event.h</text>
</a>
</g>
</g>
<!-- Node1&#45;&gt;Node20 -->
<g id="edge35" class="edge">
<title>Node1&#45;&gt;Node20</title>
<path fill="none" stroke="#191970" d="M929.1747,-212.0121C1007.9324,-205.1901 1159.6356,-190.2615 1287,-165 1292.2031,-163.968 1297.5723,-162.7673 1302.9694,-161.4726"/>
<polygon fill="#191970" stroke="#191970" points="1303.8247,-164.8666 1312.6844,-159.0567 1302.1353,-158.0735 1303.8247,-164.8666"/>
</g>
<!-- Node21 -->
<g id="node22" class="node">
<title>Node21</title>
<g id="a_node22"><a xlink:href="window__output__event_8h.html" target="_top" xlink:title="mir_toolkit/events\l/window_output_event.h">
<polygon fill="#ffffff" stroke="#000000" points="1581,-129 1581,-159 1717,-159 1717,-129 1581,-129"/>
<text text-anchor="start" x="1589" y="-147" font-family="Arial" font-size="10.00" fill="#000000">mir_toolkit/events</text>
<text text-anchor="middle" x="1649" y="-136" font-family="Arial" font-size="10.00" fill="#000000">/window_output_event.h</text>
</a>
</g>
</g>
<!-- Node1&#45;&gt;Node21 -->
<g id="edge38" class="edge">
<title>Node1&#45;&gt;Node21</title>
<path fill="none" stroke="#191970" d="M929.1652,-213.6717C1068.3747,-206.3739 1440.6733,-186.0052 1563,-165 1568.6866,-164.0235 1574.5605,-162.8091 1580.4491,-161.46"/>
<polygon fill="#191970" stroke="#191970" points="1581.4382,-164.822 1590.3425,-159.0805 1579.8012,-158.016 1581.4382,-164.822"/>
</g>
<!-- Node4&#45;&gt;Node5 -->
<g id="edge5" class="edge">
<title>Node4&#45;&gt;Node5</title>
<path fill="none" stroke="#191970" d="M423.2373,-134.4355C437.143,-130.4495 453.7834,-126.0489 469,-123 590.7271,-98.6102 623.4005,-106.5373 746,-87 753.7463,-85.7656 761.8837,-84.36 769.9003,-82.9109"/>
<polygon fill="#191970" stroke="#191970" points="770.7499,-86.3134 779.9515,-81.0617 769.4832,-79.429 770.7499,-86.3134"/>
</g>
<!-- Node6&#45;&gt;Node1 -->
<g id="edge8" class="edge">
<title>Node6&#45;&gt;Node1</title>
<path fill="none" stroke="#191970" d="M305.4571,-159.0303C313.3153,-161.3268 321.3403,-163.4456 329,-165 501.9079,-200.0875 709.9818,-211.3147 812.5935,-214.8736"/>
<polygon fill="#191970" stroke="#191970" points="812.6755,-218.3782 822.7867,-215.2138 812.9091,-211.3821 812.6755,-218.3782"/>
</g>
<!-- Node6&#45;&gt;Node3 -->
<g id="edge11" class="edge">
<title>Node6&#45;&gt;Node3</title>
<path fill="none" stroke="#191970" d="M202.6753,-128.9257C180.7247,-120.0367 156.6092,-106.5906 141,-87 128.0332,-70.7257 123.7545,-46.832 122.425,-29.9863"/>
<polygon fill="#191970" stroke="#191970" points="125.9021,-29.4422 121.9052,-19.6302 118.9109,-29.7931 125.9021,-29.4422"/>
</g>
<!-- Node7 -->
<g id="node8" class="node">
<title>Node7</title>
<g id="a_node8"><a xlink:href="mir__input__device__types_8h.html" target="_top" xlink:title="mir_toolkit/mir_input\l_device_types.h">
<polygon fill="#ffffff" stroke="#000000" points="150.5,-56.5 150.5,-86.5 269.5,-86.5 269.5,-56.5 150.5,-56.5"/>
<text text-anchor="start" x="158.5" y="-74.5" font-family="Arial" font-size="10.00" fill="#000000">mir_toolkit/mir_input</text>
<text text-anchor="middle" x="210" y="-63.5" font-family="Arial" font-size="10.00" fill="#000000">_device_types.h</text>
</a>
</g>
</g>
<!-- Node6&#45;&gt;Node7 -->
<g id="edge9" class="edge">
<title>Node6&#45;&gt;Node7</title>
<path fill="none" stroke="#191970" d="M244.8832,-128.978C238.9836,-119.257 231.1755,-106.3915 224.4425,-95.2974"/>
<polygon fill="#191970" stroke="#191970" points="227.2855,-93.2357 219.1051,-86.5028 221.3014,-96.8675 227.2855,-93.2357"/>
</g>
<!-- Node8 -->
<g id="node9" class="node">
<title>Node8</title>
<polygon fill="#ffffff" stroke="#bfbfbf" points="379,-.5 379,-19.5 441,-19.5 441,-.5 379,-.5"/>
<text text-anchor="middle" x="410" y="-7.5" font-family="Arial" font-size="10.00" fill="#000000">stdbool.h</text>
</g>
<!-- Node6&#45;&gt;Node8 -->
<g id="edge12" class="edge">
<title>Node6&#45;&gt;Node8</title>
<path fill="none" stroke="#191970" d="M261.762,-128.8854C272.1679,-109.8375 292.2309,-77.05 317,-56 333.3294,-42.1225 354.5664,-31.2089 372.6231,-23.5015"/>
<polygon fill="#191970" stroke="#191970" points="374.3468,-26.5779 382.276,-19.551 371.6954,-20.0995 374.3468,-26.5779"/>
</g>
<!-- Node9 -->
<g id="node10" class="node">
<title>Node9</title>
<g id="a_node10"><a xlink:href="touch__event_8h.html" target="_top" xlink:title="mir_toolkit/events\l/input/touch_event.h">
<polygon fill="#ffffff" stroke="#000000" points="326,-56.5 326,-86.5 442,-86.5 442,-56.5 326,-56.5"/>
<text text-anchor="start" x="334" y="-74.5" font-family="Arial" font-size="10.00" fill="#000000">mir_toolkit/events</text>
<text text-anchor="middle" x="384" y="-63.5" font-family="Arial" font-size="10.00" fill="#000000">/input/touch_event.h</text>
</a>
</g>
</g>
<!-- Node6&#45;&gt;Node9 -->
<g id="edge13" class="edge">
<title>Node6&#45;&gt;Node9</title>
<path fill="none" stroke="#191970" d="M280.9361,-128.978C300.4584,-118.0905 327.0537,-103.2585 348.3379,-91.3885"/>
<polygon fill="#191970" stroke="#191970" points="350.0695,-94.4303 357.0984,-86.5028 346.66,-88.3168 350.0695,-94.4303"/>
</g>
<!-- Node10 -->
<g id="node11" class="node">
<title>Node10</title>
<g id="a_node11"><a xlink:href="keyboard__event_8h.html" target="_top" xlink:title="mir_toolkit/events\l/input/keyboard_event.h">
<polygon fill="#ffffff" stroke="#000000" points="602.5,-56.5 602.5,-86.5 737.5,-86.5 737.5,-56.5 602.5,-56.5"/>
<text text-anchor="start" x="610.5" y="-74.5" font-family="Arial" font-size="10.00" fill="#000000">mir_toolkit/events</text>
<text text-anchor="middle" x="670" y="-63.5" font-family="Arial" font-size="10.00" fill="#000000">/input/keyboard_event.h</text>
</a>
</g>
</g>
<!-- Node6&#45;&gt;Node10 -->
<g id="edge14" class="edge">
<title>Node6&#45;&gt;Node10</title>
<path fill="none" stroke="#191970" d="M297.7259,-128.8963C305.1009,-126.693 312.7239,-124.6239 320,-123 436.2957,-97.045 470.4845,-106.5464 592.3448,-87.0194"/>
<polygon fill="#191970" stroke="#191970" points="593.1377,-90.4364 602.4415,-85.3679 592.0076,-83.5282 593.1377,-90.4364"/>
</g>
<!-- Node12 -->
<g id="node13" class="node">
<title>Node12</title>
<g id="a_node13"><a xlink:href="pointer__event_8h.html" target="_top" xlink:title="mir_toolkit/events\l/input/pointer_event.h">
<polygon fill="#ffffff" stroke="#000000" points="460,-56.5 460,-86.5 584,-86.5 584,-56.5 460,-56.5"/>
<text text-anchor="start" x="468" y="-74.5" font-family="Arial" font-size="10.00" fill="#000000">mir_toolkit/events</text>
<text text-anchor="middle" x="522" y="-63.5" font-family="Arial" font-size="10.00" fill="#000000">/input/pointer_event.h</text>
</a>
</g>
</g>
<!-- Node6&#45;&gt;Node12 -->
<g id="edge16" class="edge">
<title>Node6&#45;&gt;Node12</title>
<path fill="none" stroke="#191970" d="M300.0537,-128.9687C306.7269,-126.9008 313.5264,-124.8534 320,-123 362.7985,-110.7467 411.1054,-98.3785 449.7458,-88.8349"/>
<polygon fill="#191970" stroke="#191970" points="450.988,-92.1337 459.8623,-86.3461 449.3157,-85.3364 450.988,-92.1337"/>
</g>
<!-- Node7&#45;&gt;Node3 -->
<g id="edge10" class="edge">
<title>Node7&#45;&gt;Node3</title>
<path fill="none" stroke="#191970" d="M188.2472,-56.2977C174.8032,-46.9022 157.5989,-34.8787 144.0922,-25.4395"/>
<polygon fill="#191970" stroke="#191970" points="146.0288,-22.5228 135.8271,-19.6633 142.0189,-28.2605 146.0288,-22.5228"/>
</g>
<!-- Node11 -->
<g id="node12" class="node">
<title>Node11</title>
<polygon fill="#ffffff" stroke="#bfbfbf" points="858,-.5 858,-19.5 1008,-19.5 1008,-.5 858,-.5"/>
<text text-anchor="middle" x="933" y="-7.5" font-family="Arial" font-size="10.00" fill="#000000">xkbcommon/xkbcommon.h</text>
</g>
<!-- Node10&#45;&gt;Node11 -->
<g id="edge15" class="edge">
<title>Node10&#45;&gt;Node11</title>
<path fill="none" stroke="#191970" d="M734.337,-56.4554C779.9515,-45.7889 840.304,-31.6761 882.4706,-21.8158"/>
<polygon fill="#191970" stroke="#191970" points="883.304,-25.2154 892.2443,-19.5303 881.71,-18.3993 883.304,-25.2154"/>
</g>
<!-- Node12&#45;&gt;Node8 -->
<g id="edge17" class="edge">
<title>Node12&#45;&gt;Node8</title>
<path fill="none" stroke="#191970" d="M494.6017,-56.4554C476.8978,-46.734 453.9805,-34.15 436.4642,-24.5317"/>
<polygon fill="#191970" stroke="#191970" points="437.8061,-21.2756 427.356,-19.5303 434.4369,-27.4115 437.8061,-21.2756"/>
</g>
<!-- Node13&#45;&gt;Node1 -->
<g id="edge19" class="edge">
<title>Node13&#45;&gt;Node1</title>
<path fill="none" stroke="#191970" d="M615.0318,-159.0495C621.7471,-161.1831 628.5287,-163.2447 635,-165 694.6933,-181.1914 763.6084,-195.0358 812.4876,-204.2795"/>
<polygon fill="#191970" stroke="#191970" points="812.1287,-207.7733 822.6032,-206.1814 813.4222,-200.8938 812.1287,-207.7733"/>
</g>
<!-- Node14&#45;&gt;Node1 -->
<g id="edge21" class="edge">
<title>Node14&#45;&gt;Node1</title>
<path fill="none" stroke="#191970" d="M732.4942,-159.0028C762.9907,-170.2257 803.1188,-185.6478 833.237,-197.6948"/>
<polygon fill="#191970" stroke="#191970" points="832.0553,-200.992 842.639,-201.478 834.6684,-194.498 832.0553,-200.992"/>
</g>
<!-- Node14&#45;&gt;Node5 -->
<g id="edge22" class="edge">
<title>Node14&#45;&gt;Node5</title>
<path fill="none" stroke="#191970" d="M717.0081,-128.978C741.4723,-116.309 776.2503,-98.2989 800.3288,-85.8297"/>
<polygon fill="#191970" stroke="#191970" points="802.0323,-88.8891 809.3028,-81.1825 798.8133,-82.6731 802.0323,-88.8891"/>
</g>
<!-- Node15&#45;&gt;Node1 -->
<g id="edge24" class="edge">
<title>Node15&#45;&gt;Node1</title>
<path fill="none" stroke="#191970" d="M830.8342,-159.0028C840.8148,-168.9139 852.7056,-182.1 861.9014,-193.3443"/>
<polygon fill="#191970" stroke="#191970" points="859.3844,-195.8041 868.3319,-201.478 864.8756,-191.4627 859.3844,-195.8041"/>
</g>
<!-- Node16&#45;&gt;Node1 -->
<g id="edge26" class="edge">
<title>Node16&#45;&gt;Node1</title>
<path fill="none" stroke="#191970" d="M933.1395,-159.0028C925.2601,-169.2054 913.2298,-182.8785 902.1507,-194.3313"/>
<polygon fill="#191970" stroke="#191970" points="899.6189,-191.9137 895.0608,-201.478 904.5884,-196.8438 899.6189,-191.9137"/>
</g>
<!-- Node17&#45;&gt;Node1 -->
<g id="edge28" class="edge">
<title>Node17&#45;&gt;Node1</title>
<path fill="none" stroke="#191970" d="M1048.1339,-159.0028C1016.482,-170.42 970.9402,-186.1832 934.6079,-198.3175"/>
<polygon fill="#191970" stroke="#191970" points="933.4893,-195.001 925.1049,-201.478 935.6984,-201.6433 933.4893,-195.001"/>
</g>
<!-- Node18&#45;&gt;Node1 -->
<g id="edge30" class="edge">
<title>Node18&#45;&gt;Node1</title>
<path fill="none" stroke="#191970" d="M1478.8837,-159.0763C1471.7818,-161.3679 1464.2275,-163.4732 1457,-165 1360.1183,-185.4661 1069.2469,-205.1755 939.5209,-212.9826"/>
<polygon fill="#191970" stroke="#191970" points="939.1166,-209.5004 929.3431,-213.5905 939.534,-216.488 939.1166,-209.5004"/>
</g>
<!-- Node18&#45;&gt;Node11 -->
<g id="edge31" class="edge">
<title>Node18&#45;&gt;Node11</title>
<path fill="none" stroke="#191970" d="M1467.5019,-128.9153C1461.0057,-126.8102 1454.3504,-124.7663 1448,-123 1286.5941,-78.1057 1092.7453,-39.6466 995.342,-21.368"/>
<polygon fill="#191970" stroke="#191970" points="995.8418,-17.9009 985.369,-19.5039 994.5556,-24.7818 995.8418,-17.9009"/>
</g>
<!-- Node19&#45;&gt;Node1 -->
<g id="edge33" class="edge">
<title>Node19&#45;&gt;Node1</title>
<path fill="none" stroke="#191970" d="M1175.7326,-164.5625C1175.153,-164.7106 1174.5753,-164.8565 1174,-165 1094.1829,-184.9069 1000.1256,-200.1844 939.2609,-208.7564"/>
<polygon fill="#191970" stroke="#191970" points="938.4632,-205.3335 929.04,-210.1763 939.4265,-212.2669 938.4632,-205.3335"/>
</g>
<!-- Node19&#45;&gt;Node5 -->
<g id="edge34" class="edge">
<title>Node19&#45;&gt;Node5</title>
<path fill="none" stroke="#191970" d="M1173.4314,-125.1319C1170.5917,-124.371 1167.7699,-123.6546 1165,-123 1079.3952,-102.7693 979.6044,-88.671 910.9509,-80.4033"/>
<polygon fill="#191970" stroke="#191970" points="910.9737,-76.8814 900.6303,-79.1761 910.1471,-83.8325 910.9737,-76.8814"/>
</g>
<!-- Node20&#45;&gt;Node1 -->
<g id="edge36" class="edge">
<title>Node20&#45;&gt;Node1</title>
<path fill="none" stroke="#191970" d="M1330.4287,-159.0567C1322.0752,-161.2657 1313.3249,-163.3488 1305,-165 1176.6824,-190.4506 1023.6604,-205.413 939.3606,-212.1639"/>
<polygon fill="#191970" stroke="#191970" points="938.8721,-208.6915 929.1778,-212.966 939.4218,-215.6699 938.8721,-208.6915"/>
</g>
<!-- Node20&#45;&gt;Node5 -->
<g id="edge37" class="edge">
<title>Node20&#45;&gt;Node5</title>
<path fill="none" stroke="#191970" d="M1321.9842,-128.9608C1313.3731,-126.7224 1304.4695,-124.6253 1296,-123 1162.3927,-97.3607 1004.6975,-83.2916 910.7086,-76.5854"/>
<polygon fill="#191970" stroke="#191970" points="910.9133,-73.0912 900.6925,-75.8815 910.4224,-80.074 910.9133,-73.0912"/>
</g>
<!-- Node21&#45;&gt;Node1 -->
<g id="edge39" class="edge">
<title>Node21&#45;&gt;Node1</title>
<path fill="none" stroke="#191970" d="M1608.0478,-159.0805C1599.2097,-161.3717 1589.8767,-163.4757 1581,-165 1459.1351,-185.9259 1089.1821,-206.2201 939.6297,-213.5885"/>
<polygon fill="#191970" stroke="#191970" points="939.0662,-210.1118 929.2493,-214.0965 939.4084,-217.1034 939.0662,-210.1118"/>
</g>
</g>
</svg>
