<?xml version="1.0" encoding="UTF-8" standalone="no"?>
<!DOCTYPE svg PUBLIC "-//W3C//DTD SVG 1.1//EN"
 "http://www.w3.org/Graphics/SVG/1.1/DTD/svg11.dtd">
<!-- Generated by graphviz version 2.38.0 (20140413.2041)
 -->
<!-- Title: include/client/mir_toolkit/events/input_device_state_event.h Pages: 1 -->
<svg width="1559pt" height="318pt"
 viewBox="0.00 0.00 1559.00 318.00" xmlns="http://www.w3.org/2000/svg" xmlns:xlink="http://www.w3.org/1999/xlink">
<g id="graph0" class="graph" transform="scale(1 1) rotate(0) translate(4 314)">
<title>include/client/mir_toolkit/events/input_device_state_event.h</title>
<polygon fill="white" stroke="none" points="-4,4 -4,-314 1555,-314 1555,4 -4,4"/>
<!-- Node0 -->
<g id="node1" class="node"><title>Node0</title>
<polygon fill="#bfbfbf" stroke="black" points="739.5,-268.5 739.5,-309.5 851.5,-309.5 851.5,-268.5 739.5,-268.5"/>
<text text-anchor="start" x="747.5" y="-297.5" font-family="Arial" font-size="10.00">include/client/mir</text>
<text text-anchor="start" x="747.5" y="-286.5" font-family="Arial" font-size="10.00">_toolkit/events/input</text>
<text text-anchor="middle" x="795.5" y="-275.5" font-family="Arial" font-size="10.00">_device_state_event.h</text>
</g>
<!-- Node1 -->
<g id="node2" class="node"><title>Node1</title>
<g id="a_node2"><a xlink:href="toolkit_2events_2event_8h.html" target="_top" xlink:title="mir_toolkit/events\l/event.h">
<polygon fill="white" stroke="black" points="749.5,-201.5 749.5,-231.5 841.5,-231.5 841.5,-201.5 749.5,-201.5"/>
<text text-anchor="start" x="757.5" y="-219.5" font-family="Arial" font-size="10.00">mir_toolkit/events</text>
<text text-anchor="middle" x="795.5" y="-208.5" font-family="Arial" font-size="10.00">/event.h</text>
</a>
</g>
</g>
<!-- Node0&#45;&gt;Node1 -->
<g id="edge1" class="edge"><title>Node0&#45;&gt;Node1</title>
<path fill="none" stroke="midnightblue" d="M789.377,-268.362C788.679,-260.226 788.564,-250.7 789.031,-242.105"/>
<polygon fill="midnightblue" stroke="midnightblue" points="792.54,-242.161 789.935,-231.892 785.567,-241.544 792.54,-242.161"/>
</g>
<!-- Node1&#45;&gt;Node0 -->
<g id="edge40" class="edge"><title>Node1&#45;&gt;Node0</title>
<path fill="none" stroke="midnightblue" d="M801.065,-231.892C802.056,-239.532 802.426,-249.214 802.173,-258.376"/>
<polygon fill="midnightblue" stroke="midnightblue" points="798.678,-258.185 801.623,-268.362 805.668,-258.569 798.678,-258.185"/>
</g>
<!-- Node2 -->
<g id="node3" class="node"><title>Node2</title>
<polygon fill="white" stroke="#bfbfbf" points="0,-134.5 0,-153.5 51,-153.5 51,-134.5 0,-134.5"/>
<text text-anchor="middle" x="25.5" y="-141.5" font-family="Arial" font-size="10.00">stddef.h</text>
</g>
<!-- Node1&#45;&gt;Node2 -->
<g id="edge2" class="edge"><title>Node1&#45;&gt;Node2</title>
<path fill="none" stroke="midnightblue" d="M749.239,-214.668C609.806,-211.79 195.259,-200.404 65.5,-165 59.7886,-163.442 53.9309,-161.037 48.5207,-158.429"/>
<polygon fill="midnightblue" stroke="midnightblue" points="49.877,-155.189 39.394,-153.653 46.6314,-161.391 49.877,-155.189"/>
</g>
<!-- Node3 -->
<g id="node4" class="node"><title>Node3</title>
<polygon fill="white" stroke="#bfbfbf" points="93,-0.5 93,-19.5 142,-19.5 142,-0.5 93,-0.5"/>
<text text-anchor="middle" x="117.5" y="-7.5" font-family="Arial" font-size="10.00">stdint.h</text>
</g>
<!-- Node1&#45;&gt;Node3 -->
<g id="edge3" class="edge"><title>Node1&#45;&gt;Node3</title>
<path fill="none" stroke="midnightblue" d="M749.06,-213.884C613.909,-208.88 227.21,-192.31 177.5,-165 139.404,-144.07 132.601,-128.116 118.5,-87 112.093,-68.318 112.836,-45.5026 114.558,-29.7729"/>
<polygon fill="midnightblue" stroke="midnightblue" points="118.045,-30.107 115.898,-19.732 111.106,-29.1816 118.045,-30.107"/>
</g>
<!-- Node4 -->
<g id="node5" class="node"><title>Node4</title>
<g id="a_node5"><a xlink:href="common_8h.html" target="_top" xlink:title="mir_toolkit/common.h">
<polygon fill="white" stroke="black" points="306.5,-134.5 306.5,-153.5 416.5,-153.5 416.5,-134.5 306.5,-134.5"/>
<text text-anchor="middle" x="361.5" y="-141.5" font-family="Arial" font-size="10.00">mir_toolkit/common.h</text>
</a>
</g>
</g>
<!-- Node1&#45;&gt;Node4 -->
<g id="edge4" class="edge"><title>Node1&#45;&gt;Node4</title>
<path fill="none" stroke="midnightblue" d="M749.321,-211.274C679.693,-204.417 543.906,-189.148 430.5,-165 419.684,-162.697 408.083,-159.59 397.539,-156.512"/>
<polygon fill="midnightblue" stroke="midnightblue" points="398.397,-153.116 387.813,-153.598 396.387,-159.821 398.397,-153.116"/>
</g>
<!-- Node5 -->
<g id="node6" class="node"><title>Node5</title>
<g id="a_node6"><a xlink:href="deprecations_8h.html" target="_top" xlink:title="mir_toolkit/deprecations.h">
<polygon fill="white" stroke="black" points="692.5,-62 692.5,-81 820.5,-81 820.5,-62 692.5,-62"/>
<text text-anchor="middle" x="756.5" y="-69" font-family="Arial" font-size="10.00">mir_toolkit/deprecations.h</text>
</a>
</g>
</g>
<!-- Node1&#45;&gt;Node5 -->
<g id="edge6" class="edge"><title>Node1&#45;&gt;Node5</title>
<path fill="none" stroke="midnightblue" d="M749.177,-215.553C666.738,-214.555 499.79,-207.227 463.5,-165 405.615,-97.6443 531.829,-114.139 682.5,-87 689.586,-85.7236 697.043,-84.3264 704.385,-82.9191"/>
<polygon fill="midnightblue" stroke="midnightblue" points="705.126,-86.3408 714.279,-81.0044 703.796,-79.4683 705.126,-86.3408"/>
</g>
<!-- Node6 -->
<g id="node7" class="node"><title>Node6</title>
<g id="a_node7"><a xlink:href="input__event_8h.html" target="_top" xlink:title="mir_toolkit/events\l/input/input_event.h">
<polygon fill="white" stroke="black" points="187,-129 187,-159 288,-159 288,-129 187,-129"/>
<text text-anchor="start" x="195" y="-147" font-family="Arial" font-size="10.00">mir_toolkit/events</text>
<text text-anchor="middle" x="237.5" y="-136" font-family="Arial" font-size="10.00">/input/input_event.h</text>
</a>
</g>
</g>
<!-- Node1&#45;&gt;Node6 -->
<g id="edge7" class="edge"><title>Node1&#45;&gt;Node6</title>
<path fill="none" stroke="midnightblue" d="M749.427,-214.391C659.52,-211.41 455.46,-200.832 288.5,-165 284.566,-164.156 280.53,-163.144 276.526,-162.029"/>
<polygon fill="midnightblue" stroke="midnightblue" points="277.306,-158.608 266.721,-159.083 275.292,-165.312 277.306,-158.608"/>
</g>
<!-- Node13 -->
<g id="node14" class="node"><title>Node13</title>
<g id="a_node14"><a xlink:href="resize__event_8h.html" target="_top" xlink:title="mir_toolkit/events\l/resize_event.h">
<polygon fill="white" stroke="black" points="472.5,-129 472.5,-159 564.5,-159 564.5,-129 472.5,-129"/>
<text text-anchor="start" x="480.5" y="-147" font-family="Arial" font-size="10.00">mir_toolkit/events</text>
<text text-anchor="middle" x="518.5" y="-136" font-family="Arial" font-size="10.00">/resize_event.h</text>
</a>
</g>
</g>
<!-- Node1&#45;&gt;Node13 -->
<g id="edge18" class="edge"><title>Node1&#45;&gt;Node13</title>
<path fill="none" stroke="midnightblue" d="M749.27,-208.033C702.102,-199.259 627.444,-183.525 564.5,-165 561.713,-164.18 558.862,-163.293 556.01,-162.366"/>
<polygon fill="midnightblue" stroke="midnightblue" points="556.987,-159.001 546.392,-159.089 554.729,-165.627 556.987,-159.001"/>
</g>
<!-- Node14 -->
<g id="node15" class="node"><title>Node14</title>
<g id="a_node15"><a xlink:href="surface__event_8h.html" target="_top" xlink:title="mir_toolkit/events\l/surface_event.h">
<polygon fill="white" stroke="black" points="582.5,-129 582.5,-159 674.5,-159 674.5,-129 582.5,-129"/>
<text text-anchor="start" x="590.5" y="-147" font-family="Arial" font-size="10.00">mir_toolkit/events</text>
<text text-anchor="middle" x="628.5" y="-136" font-family="Arial" font-size="10.00">/surface_event.h</text>
</a>
</g>
</g>
<!-- Node1&#45;&gt;Node14 -->
<g id="edge20" class="edge"><title>Node1&#45;&gt;Node14</title>
<path fill="none" stroke="midnightblue" d="M756.58,-201.403C729.065,-190.404 692.528,-175.044 665.461,-163.13"/>
<polygon fill="midnightblue" stroke="midnightblue" points="666.873,-159.928 656.313,-159.073 664.035,-166.327 666.873,-159.928"/>
</g>
<!-- Node15 -->
<g id="node16" class="node"><title>Node15</title>
<g id="a_node16"><a xlink:href="window__event_8h.html" target="_top" xlink:title="mir_toolkit/events\l/window_event.h">
<polygon fill="white" stroke="black" points="692.5,-129 692.5,-159 784.5,-159 784.5,-129 692.5,-129"/>
<text text-anchor="start" x="700.5" y="-147" font-family="Arial" font-size="10.00">mir_toolkit/events</text>
<text text-anchor="middle" x="738.5" y="-136" font-family="Arial" font-size="10.00">/window_event.h</text>
</a>
</g>
</g>
<!-- Node1&#45;&gt;Node15 -->
<g id="edge23" class="edge"><title>Node1&#45;&gt;Node15</title>
<path fill="none" stroke="midnightblue" d="M778.417,-201.233C769.349,-191.582 758.611,-178.631 750.417,-167.591"/>
<polygon fill="midnightblue" stroke="midnightblue" points="753.125,-165.359 744.472,-159.246 747.424,-169.421 753.125,-165.359"/>
</g>
<!-- Node16 -->
<g id="node17" class="node"><title>Node16</title>
<g id="a_node17"><a xlink:href="orientation__event_8h.html" target="_top" xlink:title="mir_toolkit/events\l/orientation_event.h">
<polygon fill="white" stroke="black" points="803,-129 803,-159 904,-159 904,-129 803,-129"/>
<text text-anchor="start" x="811" y="-147" font-family="Arial" font-size="10.00">mir_toolkit/events</text>
<text text-anchor="middle" x="853.5" y="-136" font-family="Arial" font-size="10.00">/orientation_event.h</text>
</a>
</g>
</g>
<!-- Node1&#45;&gt;Node16 -->
<g id="edge25" class="edge"><title>Node1&#45;&gt;Node16</title>
<path fill="none" stroke="midnightblue" d="M801.689,-201.233C808.562,-191.295 819.373,-177.859 829.441,-166.612"/>
<polygon fill="midnightblue" stroke="midnightblue" points="832.028,-168.969 836.234,-159.246 826.882,-164.224 832.028,-168.969"/>
</g>
<!-- Node17 -->
<g id="node18" class="node"><title>Node17</title>
<g id="a_node18"><a xlink:href="prompt__session__event_8h.html" target="_top" xlink:title="mir_toolkit/events\l/prompt_session_event.h">
<polygon fill="white" stroke="black" points="922,-129 922,-159 1047,-159 1047,-129 922,-129"/>
<text text-anchor="start" x="930" y="-147" font-family="Arial" font-size="10.00">mir_toolkit/events</text>
<text text-anchor="middle" x="984.5" y="-136" font-family="Arial" font-size="10.00">/prompt_session_event.h</text>
</a>
</g>
</g>
<!-- Node1&#45;&gt;Node17 -->
<g id="edge27" class="edge"><title>Node1&#45;&gt;Node17</title>
<path fill="none" stroke="midnightblue" d="M827.766,-201.403C856.283,-190.211 898.253,-174.506 931.636,-162.509"/>
<polygon fill="midnightblue" stroke="midnightblue" points="933.011,-165.735 941.25,-159.073 930.655,-159.143 933.011,-165.735"/>
</g>
<!-- Node18 -->
<g id="node19" class="node"><title>Node18</title>
<g id="a_node19"><a xlink:href="keymap__event_8h.html" target="_top" xlink:title="mir_toolkit/events\l/keymap_event.h">
<polygon fill="white" stroke="black" points="1321.5,-129 1321.5,-159 1413.5,-159 1413.5,-129 1321.5,-129"/>
<text text-anchor="start" x="1329.5" y="-147" font-family="Arial" font-size="10.00">mir_toolkit/events</text>
<text text-anchor="middle" x="1367.5" y="-136" font-family="Arial" font-size="10.00">/keymap_event.h</text>
</a>
</g>
</g>
<!-- Node1&#45;&gt;Node18 -->
<g id="edge29" class="edge"><title>Node1&#45;&gt;Node18</title>
<path fill="none" stroke="midnightblue" d="M841.52,-214.738C931.478,-212.413 1135.96,-203.007 1303.5,-165 1307.08,-164.188 1310.74,-163.207 1314.42,-162.121"/>
<polygon fill="midnightblue" stroke="midnightblue" points="1315.67,-165.397 1324.15,-159.043 1313.56,-158.723 1315.67,-165.397"/>
</g>
<!-- Node19 -->
<g id="node20" class="node"><title>Node19</title>
<g id="a_node20"><a xlink:href="input__configuration__event_8h.html" target="_top" xlink:title="mir_toolkit/events\l/input_configuration\l_event.h">
<polygon fill="white" stroke="black" points="1065,-123.5 1065,-164.5 1166,-164.5 1166,-123.5 1065,-123.5"/>
<text text-anchor="start" x="1073" y="-152.5" font-family="Arial" font-size="10.00">mir_toolkit/events</text>
<text text-anchor="start" x="1073" y="-141.5" font-family="Arial" font-size="10.00">/input_configuration</text>
<text text-anchor="middle" x="1115.5" y="-130.5" font-family="Arial" font-size="10.00">_event.h</text>
</a>
</g>
</g>
<!-- Node1&#45;&gt;Node19 -->
<g id="edge32" class="edge"><title>Node1&#45;&gt;Node19</title>
<path fill="none" stroke="midnightblue" d="M841.643,-207.419C892.536,-198.816 976.341,-183.852 1047.5,-165 1050.06,-164.322 1052.67,-163.591 1055.3,-162.824"/>
<polygon fill="midnightblue" stroke="midnightblue" points="1056.34,-166.164 1064.9,-159.912 1054.31,-159.466 1056.34,-166.164"/>
</g>
<!-- Node20 -->
<g id="node21" class="node"><title>Node20</title>
<g id="a_node21"><a xlink:href="surface__output__event_8h.html" target="_top" xlink:title="mir_toolkit/events\l/surface_output_event.h">
<polygon fill="white" stroke="black" points="1184,-129 1184,-159 1303,-159 1303,-129 1184,-129"/>
<text text-anchor="start" x="1192" y="-147" font-family="Arial" font-size="10.00">mir_toolkit/events</text>
<text text-anchor="middle" x="1243.5" y="-136" font-family="Arial" font-size="10.00">/surface_output_event.h</text>
</a>
</g>
</g>
<!-- Node1&#45;&gt;Node20 -->
<g id="edge35" class="edge"><title>Node1&#45;&gt;Node20</title>
<path fill="none" stroke="midnightblue" d="M841.586,-211.14C912.169,-204.399 1050.62,-189.589 1166.5,-165 1171.15,-164.014 1175.94,-162.871 1180.75,-161.641"/>
<polygon fill="midnightblue" stroke="midnightblue" points="1181.87,-164.964 1190.64,-159.014 1180.08,-158.199 1181.87,-164.964"/>
</g>
<!-- Node21 -->
<g id="node22" class="node"><title>Node21</title>
<g id="a_node22"><a xlink:href="window__output__event_8h.html" target="_top" xlink:title="mir_toolkit/events\l/window_output_event.h">
<polygon fill="white" stroke="black" points="1432,-129 1432,-159 1551,-159 1551,-129 1432,-129"/>
<text text-anchor="start" x="1440" y="-147" font-family="Arial" font-size="10.00">mir_toolkit/events</text>
<text text-anchor="middle" x="1491.5" y="-136" font-family="Arial" font-size="10.00">/window_output_event.h</text>
</a>
</g>
</g>
<!-- Node1&#45;&gt;Node21 -->
<g id="edge38" class="edge"><title>Node1&#45;&gt;Node21</title>
<path fill="none" stroke="midnightblue" d="M841.835,-214.861C945.317,-212.757 1202.16,-203.73 1413.5,-165 1418.71,-164.045 1424.1,-162.855 1429.49,-161.536"/>
<polygon fill="midnightblue" stroke="midnightblue" points="1430.37,-164.924 1439.18,-159.043 1428.63,-158.145 1430.37,-164.924"/>
</g>
<!-- Node4&#45;&gt;Node5 -->
<g id="edge5" class="edge"><title>Node4&#45;&gt;Node5</title>
<path fill="none" stroke="midnightblue" d="M387.819,-134.43C400.596,-130.512 416.234,-126.071 430.5,-123 541.104,-99.193 570.95,-105.884 682.5,-87 689.86,-85.7541 697.611,-84.344 705.216,-82.9045"/>
<polygon fill="midnightblue" stroke="midnightblue" points="705.924,-86.3326 715.083,-81.0067 704.601,-79.4586 705.924,-86.3326"/>
</g>
<!-- Node6&#45;&gt;Node1 -->
<g id="edge8" class="edge"><title>Node6&#45;&gt;Node1</title>
<path fill="none" stroke="midnightblue" d="M284.399,-159.083C291.769,-161.351 299.307,-163.456 306.5,-165 461.128,-198.185 647.578,-209.709 739.231,-213.599"/>
<polygon fill="midnightblue" stroke="midnightblue" points="739.264,-217.103 749.399,-214.015 739.55,-210.109 739.264,-217.103"/>
</g>
<!-- Node6&#45;&gt;Node3 -->
<g id="edge11" class="edge"><title>Node6&#45;&gt;Node3</title>
<path fill="none" stroke="midnightblue" d="M195.695,-128.98C175.032,-120.03 151.396,-106.402 136.5,-87 123.849,-70.5215 119.531,-46.6498 118.105,-30.0744"/>
<polygon fill="midnightblue" stroke="midnightblue" points="121.591,-29.7242 117.514,-19.9453 114.603,-30.1323 121.591,-29.7242"/>
</g>
<!-- Node7 -->
<g id="node8" class="node"><title>Node7</title>
<g id="a_node8"><a xlink:href="mir__input__device__types_8h.html" target="_top" xlink:title="mir_toolkit/mir_input\l_device_types.h">
<polygon fill="white" stroke="black" points="145.5,-56.5 145.5,-86.5 249.5,-86.5 249.5,-56.5 145.5,-56.5"/>
<text text-anchor="start" x="153.5" y="-74.5" font-family="Arial" font-size="10.00">mir_toolkit/mir_input</text>
<text text-anchor="middle" x="197.5" y="-63.5" font-family="Arial" font-size="10.00">_device_types.h</text>
</a>
</g>
</g>
<!-- Node6&#45;&gt;Node7 -->
<g id="edge9" class="edge"><title>Node6&#45;&gt;Node7</title>
<path fill="none" stroke="midnightblue" d="M229.405,-128.733C224.038,-119.273 216.872,-106.643 210.691,-95.7486"/>
<polygon fill="midnightblue" stroke="midnightblue" points="213.562,-93.7159 205.583,-86.7455 207.473,-97.1703 213.562,-93.7159"/>
</g>
<!-- Node8 -->
<g id="node9" class="node"><title>Node8</title>
<polygon fill="white" stroke="#bfbfbf" points="351.5,-0.5 351.5,-19.5 407.5,-19.5 407.5,-0.5 351.5,-0.5"/>
<text text-anchor="middle" x="379.5" y="-7.5" font-family="Arial" font-size="10.00">stdbool.h</text>
</g>
<!-- Node6&#45;&gt;Node8 -->
<g id="edge12" class="edge"><title>Node6&#45;&gt;Node8</title>
<path fill="none" stroke="midnightblue" d="M244.372,-128.82C253.948,-110.221 272.826,-77.4367 296.5,-56 311.532,-42.3884 331.42,-31.4231 347.96,-23.7254"/>
<polygon fill="midnightblue" stroke="midnightblue" points="349.546,-26.85 357.249,-19.5754 346.691,-20.4588 349.546,-26.85"/>
</g>
<!-- Node9 -->
<g id="node10" class="node"><title>Node9</title>
<g id="a_node10"><a xlink:href="touch__event_8h.html" target="_top" xlink:title="mir_toolkit/events\l/input/touch_event.h">
<polygon fill="white" stroke="black" points="305.5,-56.5 305.5,-86.5 409.5,-86.5 409.5,-56.5 305.5,-56.5"/>
<text text-anchor="start" x="313.5" y="-74.5" font-family="Arial" font-size="10.00">mir_toolkit/events</text>
<text text-anchor="middle" x="357.5" y="-63.5" font-family="Arial" font-size="10.00">/input/touch_event.h</text>
</a>
</g>
</g>
<!-- Node6&#45;&gt;Node9 -->
<g id="edge13" class="edge"><title>Node6&#45;&gt;Node9</title>
<path fill="none" stroke="midnightblue" d="M261.495,-128.903C279.645,-118.24 304.77,-103.479 324.764,-91.7323"/>
<polygon fill="midnightblue" stroke="midnightblue" points="326.697,-94.6561 333.546,-86.5729 323.151,-88.6206 326.697,-94.6561"/>
</g>
<!-- Node10 -->
<g id="node11" class="node"><title>Node10</title>
<g id="a_node11"><a xlink:href="keyboard__event_8h.html" target="_top" xlink:title="mir_toolkit/events\l/input/keyboard_event.h">
<polygon fill="white" stroke="black" points="555,-56.5 555,-86.5 674,-86.5 674,-56.5 555,-56.5"/>
<text text-anchor="start" x="563" y="-74.5" font-family="Arial" font-size="10.00">mir_toolkit/events</text>
<text text-anchor="middle" x="614.5" y="-63.5" font-family="Arial" font-size="10.00">/input/keyboard_event.h</text>
</a>
</g>
</g>
<!-- Node6&#45;&gt;Node10 -->
<g id="edge14" class="edge"><title>Node6&#45;&gt;Node10</title>
<path fill="none" stroke="midnightblue" d="M276.263,-128.965C283.27,-126.748 290.556,-124.648 297.5,-123 402.8,-98.0165 434.076,-105.971 544.816,-87.0319"/>
<polygon fill="midnightblue" stroke="midnightblue" points="545.456,-90.4732 554.706,-85.306 544.253,-83.5775 545.456,-90.4732"/>
</g>
<!-- Node12 -->
<g id="node13" class="node"><title>Node12</title>
<g id="a_node13"><a xlink:href="pointer__event_8h.html" target="_top" xlink:title="mir_toolkit/events\l/input/pointer_event.h">
<polygon fill="white" stroke="black" points="428,-56.5 428,-86.5 537,-86.5 537,-56.5 428,-56.5"/>
<text text-anchor="start" x="436" y="-74.5" font-family="Arial" font-size="10.00">mir_toolkit/events</text>
<text text-anchor="middle" x="482.5" y="-63.5" font-family="Arial" font-size="10.00">/input/pointer_event.h</text>
</a>
</g>
</g>
<!-- Node6&#45;&gt;Node12 -->
<g id="edge16" class="edge"><title>Node6&#45;&gt;Node12</title>
<path fill="none" stroke="midnightblue" d="M278.718,-128.928C284.992,-126.882 291.405,-124.846 297.5,-123 337.402,-110.914 382.534,-98.5681 418.231,-89.1088"/>
<polygon fill="midnightblue" stroke="midnightblue" points="419.262,-92.4566 428.037,-86.5199 417.475,-85.6885 419.262,-92.4566"/>
</g>
<!-- Node7&#45;&gt;Node3 -->
<g id="edge10" class="edge"><title>Node7&#45;&gt;Node3</title>
<path fill="none" stroke="midnightblue" d="M178.541,-56.3993C166.077,-47.1293 149.803,-35.0254 137.193,-25.6469"/>
<polygon fill="midnightblue" stroke="midnightblue" points="139.253,-22.8173 129.141,-19.6578 135.076,-28.4341 139.253,-22.8173"/>
</g>
<!-- Node11 -->
<g id="node12" class="node"><title>Node11</title>
<polygon fill="white" stroke="#bfbfbf" points="783.5,-0.5 783.5,-19.5 917.5,-19.5 917.5,-0.5 783.5,-0.5"/>
<text text-anchor="middle" x="850.5" y="-7.5" font-family="Arial" font-size="10.00">xkbcommon/xkbcommon.h</text>
</g>
<!-- Node10&#45;&gt;Node11 -->
<g id="edge15" class="edge"><title>Node10&#45;&gt;Node11</title>
<path fill="none" stroke="midnightblue" d="M670.13,-56.4747C711.911,-45.9408 768.333,-31.7158 806.879,-21.9978"/>
<polygon fill="midnightblue" stroke="midnightblue" points="807.92,-25.3449 816.76,-19.5064 806.208,-18.5573 807.92,-25.3449"/>
</g>
<!-- Node12&#45;&gt;Node8 -->
<g id="edge17" class="edge"><title>Node12&#45;&gt;Node8</title>
<path fill="none" stroke="midnightblue" d="M458.09,-56.3993C441.58,-46.8619 419.877,-34.3248 403.462,-24.8422"/>
<polygon fill="midnightblue" stroke="midnightblue" points="404.897,-21.6292 394.487,-19.6578 401.396,-27.6906 404.897,-21.6292"/>
</g>
<!-- Node13&#45;&gt;Node1 -->
<g id="edge19" class="edge"><title>Node13&#45;&gt;Node1</title>
<path fill="none" stroke="midnightblue" d="M564.149,-159.089C570.319,-161.199 576.554,-163.25 582.5,-165 635.156,-180.497 696.009,-194.041 739.236,-203.191"/>
<polygon fill="midnightblue" stroke="midnightblue" points="738.773,-206.67 749.279,-205.305 740.215,-199.82 738.773,-206.67"/>
</g>
<!-- Node14&#45;&gt;Node1 -->
<g id="edge21" class="edge"><title>Node14&#45;&gt;Node1</title>
<path fill="none" stroke="midnightblue" d="M667.359,-159.073C694.861,-170.066 731.397,-185.424 758.478,-197.343"/>
<polygon fill="midnightblue" stroke="midnightblue" points="757.072,-200.548 767.633,-201.403 759.91,-194.149 757.072,-200.548"/>
</g>
<!-- Node14&#45;&gt;Node5 -->
<g id="edge22" class="edge"><title>Node14&#45;&gt;Node5</title>
<path fill="none" stroke="midnightblue" d="M654.095,-128.903C676.821,-116.386 709.799,-98.222 732.143,-85.9156"/>
<polygon fill="midnightblue" stroke="midnightblue" points="733.936,-88.9238 741.006,-81.0336 730.559,-82.7923 733.936,-88.9238"/>
</g>
<!-- Node15&#45;&gt;Node1 -->
<g id="edge24" class="edge"><title>Node15&#45;&gt;Node1</title>
<path fill="none" stroke="midnightblue" d="M755.564,-159.246C764.629,-168.892 775.367,-181.842 783.565,-192.885"/>
<polygon fill="midnightblue" stroke="midnightblue" points="780.86,-195.121 789.514,-201.233 786.56,-191.058 780.86,-195.121"/>
</g>
<!-- Node16&#45;&gt;Node1 -->
<g id="edge26" class="edge"><title>Node16&#45;&gt;Node1</title>
<path fill="none" stroke="midnightblue" d="M847.326,-159.246C840.458,-169.179 829.65,-182.614 819.581,-193.864"/>
<polygon fill="midnightblue" stroke="midnightblue" points="816.992,-191.509 812.786,-201.233 822.138,-196.254 816.992,-191.509"/>
</g>
<!-- Node17&#45;&gt;Node1 -->
<g id="edge28" class="edge"><title>Node17&#45;&gt;Node1</title>
<path fill="none" stroke="midnightblue" d="M952.296,-159.073C923.799,-170.258 881.832,-185.962 848.437,-197.965"/>
<polygon fill="midnightblue" stroke="midnightblue" points="847.057,-194.741 838.819,-201.403 849.414,-201.332 847.057,-194.741"/>
</g>
<!-- Node18&#45;&gt;Node1 -->
<g id="edge30" class="edge"><title>Node18&#45;&gt;Node1</title>
<path fill="none" stroke="midnightblue" d="M1341.81,-159.043C1335.28,-161.344 1328.24,-163.472 1321.5,-165 1153.91,-203.018 949.357,-212.418 852.016,-214.74"/>
<polygon fill="midnightblue" stroke="midnightblue" points="851.729,-211.246 841.809,-214.967 851.885,-218.244 851.729,-211.246"/>
</g>
<!-- Node18&#45;&gt;Node11 -->
<g id="edge31" class="edge"><title>Node18&#45;&gt;Node11</title>
<path fill="none" stroke="midnightblue" d="M1330.71,-128.985C1324.66,-126.865 1318.43,-124.792 1312.5,-123 1165.59,-78.6321 988.36,-39.6292 902.357,-21.6045"/>
<polygon fill="midnightblue" stroke="midnightblue" points="902.833,-18.1286 892.329,-19.5114 901.403,-24.9809 902.833,-18.1286"/>
</g>
<!-- Node19&#45;&gt;Node1 -->
<g id="edge33" class="edge"><title>Node19&#45;&gt;Node1</title>
<path fill="none" stroke="midnightblue" d="M1067.07,-164.578C1066.55,-164.721 1066.02,-164.862 1065.5,-165 992.84,-184.249 906.996,-199.445 851.833,-207.955"/>
<polygon fill="midnightblue" stroke="midnightblue" points="851.26,-204.501 841.9,-209.465 852.312,-211.422 851.26,-204.501"/>
</g>
<!-- Node19&#45;&gt;Node5 -->
<g id="edge34" class="edge"><title>Node19&#45;&gt;Node5</title>
<path fill="none" stroke="midnightblue" d="M1064.81,-125.241C1062.01,-124.441 1059.23,-123.687 1056.5,-123 980.453,-103.841 891.697,-89.918 830.559,-81.6024"/>
<polygon fill="midnightblue" stroke="midnightblue" points="830.989,-78.1289 820.612,-80.2659 830.057,-85.0665 830.989,-78.1289"/>
</g>
<!-- Node20&#45;&gt;Node1 -->
<g id="edge36" class="edge"><title>Node20&#45;&gt;Node1</title>
<path fill="none" stroke="midnightblue" d="M1208.34,-159.014C1200.56,-161.233 1192.32,-163.34 1184.5,-165 1067.76,-189.771 928.121,-204.617 851.846,-211.289"/>
<polygon fill="midnightblue" stroke="midnightblue" points="851.176,-207.833 841.512,-212.176 851.775,-214.808 851.176,-207.833"/>
</g>
<!-- Node20&#45;&gt;Node5 -->
<g id="edge37" class="edge"><title>Node20&#45;&gt;Node5</title>
<path fill="none" stroke="midnightblue" d="M1199.51,-128.906C1191.57,-126.696 1183.33,-124.613 1175.5,-123 1056.02,-98.4077 914.741,-84.4439 830.542,-77.6851"/>
<polygon fill="midnightblue" stroke="midnightblue" points="830.807,-74.1953 820.563,-76.8964 830.256,-81.1735 830.807,-74.1953"/>
</g>
<!-- Node21&#45;&gt;Node1 -->
<g id="edge39" class="edge"><title>Node21&#45;&gt;Node1</title>
<path fill="none" stroke="midnightblue" d="M1456.85,-159.043C1448.62,-161.343 1439.84,-163.471 1431.5,-165 1220.3,-203.703 963.677,-212.744 851.899,-214.856"/>
<polygon fill="midnightblue" stroke="midnightblue" points="851.796,-211.358 841.859,-215.035 851.92,-218.356 851.796,-211.358"/>
</g>
</g>
</svg>
