<?xml version="1.0" encoding="UTF-8" standalone="no"?>
<!DOCTYPE svg PUBLIC "-//W3C//DTD SVG 1.1//EN"
 "http://www.w3.org/Graphics/SVG/1.1/DTD/svg11.dtd">
<!-- Generated by graphviz version 2.43.0 (0)
 -->
<!-- Title: include/miroil/miroil/input_device.h Pages: 1 -->
<svg width="242pt" height="162pt"
 viewBox="0.00 0.00 241.50 162.00" xmlns="http://www.w3.org/2000/svg" xmlns:xlink="http://www.w3.org/1999/xlink">
<g id="graph0" class="graph" transform="scale(1 1) rotate(0) translate(4 158)">
<title>include/miroil/miroil/input_device.h</title>
<polygon fill="white" stroke="transparent" points="-4,4 -4,-158 237.5,-158 237.5,4 -4,4"/>
<!-- Node1 -->
<g id="node1" class="node">
<title>Node1</title>
<g id="a_node1"><a xlink:title=" ">
<polygon fill="#bfbfbf" stroke="black" points="98,-123.5 98,-153.5 198,-153.5 198,-123.5 98,-123.5"/>
<text text-anchor="start" x="106" y="-141.5" font-family="Arial" font-size="10.00">include/miroil/miroil</text>
<text text-anchor="middle" x="148" y="-130.5" font-family="Arial" font-size="10.00">/input_device.h</text>
</a>
</g>
</g>
<!-- Node2 -->
<g id="node2" class="node">
<title>Node2</title>
<g id="a_node2"><a xlink:href="mir__input__device__types_8h.html" target="_top" xlink:title=" ">
<polygon fill="white" stroke="black" points="0,-56.5 0,-86.5 104,-86.5 104,-56.5 0,-56.5"/>
<text text-anchor="start" x="8" y="-74.5" font-family="Arial" font-size="10.00">mir_toolkit/mir_input</text>
<text text-anchor="middle" x="52" y="-63.5" font-family="Arial" font-size="10.00">_device_types.h</text>
</a>
</g>
</g>
<!-- Node1&#45;&gt;Node2 -->
<g id="edge1" class="edge">
<title>Node1&#45;&gt;Node2</title>
<path fill="none" stroke="midnightblue" d="M127.17,-123.4C113.71,-114.28 96,-102.29 81.15,-92.24"/>
<polygon fill="midnightblue" stroke="midnightblue" points="83.03,-89.28 72.79,-86.58 79.11,-95.08 83.03,-89.28"/>
</g>
<!-- Node4 -->
<g id="node4" class="node">
<title>Node4</title>
<g id="a_node4"><a xlink:title=" ">
<polygon fill="white" stroke="#bfbfbf" points="122,-62 122,-81 174,-81 174,-62 122,-62"/>
<text text-anchor="middle" x="148" y="-69" font-family="Arial" font-size="10.00">memory</text>
</a>
</g>
</g>
<!-- Node1&#45;&gt;Node4 -->
<g id="edge3" class="edge">
<title>Node1&#45;&gt;Node4</title>
<path fill="none" stroke="midnightblue" d="M148,-123.4C148,-114.06 148,-101.71 148,-91.52"/>
<polygon fill="midnightblue" stroke="midnightblue" points="151.5,-91.19 148,-81.19 144.5,-91.19 151.5,-91.19"/>
</g>
<!-- Node5 -->
<g id="node5" class="node">
<title>Node5</title>
<g id="a_node5"><a xlink:title=" ">
<polygon fill="white" stroke="#bfbfbf" points="192.5,-62 192.5,-81 233.5,-81 233.5,-62 192.5,-62"/>
<text text-anchor="middle" x="213" y="-69" font-family="Arial" font-size="10.00">string</text>
</a>
</g>
</g>
<!-- Node1&#45;&gt;Node5 -->
<g id="edge4" class="edge">
<title>Node1&#45;&gt;Node5</title>
<path fill="none" stroke="midnightblue" d="M162.1,-123.4C172.44,-113.06 186.48,-99.02 197.19,-88.31"/>
<polygon fill="midnightblue" stroke="midnightblue" points="199.71,-90.74 204.31,-81.19 194.76,-85.79 199.71,-90.74"/>
</g>
<!-- Node3 -->
<g id="node3" class="node">
<title>Node3</title>
<g id="a_node3"><a xlink:title=" ">
<polygon fill="white" stroke="#bfbfbf" points="27.5,-0.5 27.5,-19.5 76.5,-19.5 76.5,-0.5 27.5,-0.5"/>
<text text-anchor="middle" x="52" y="-7.5" font-family="Arial" font-size="10.00">stdint.h</text>
</a>
</g>
</g>
<!-- Node2&#45;&gt;Node3 -->
<g id="edge2" class="edge">
<title>Node2&#45;&gt;Node3</title>
<path fill="none" stroke="midnightblue" d="M52,-56.4C52,-48.47 52,-38.46 52,-29.86"/>
<polygon fill="midnightblue" stroke="midnightblue" points="55.5,-29.66 52,-19.66 48.5,-29.66 55.5,-29.66"/>
</g>
</g>
</svg>
