<?xml version="1.0" encoding="UTF-8" standalone="no"?>
<!DOCTYPE svg PUBLIC "-//W3C//DTD SVG 1.1//EN"
 "http://www.w3.org/Graphics/SVG/1.1/DTD/svg11.dtd">
<!-- Generated by graphviz version 2.38.0 (20140413.2041)
 -->
<!-- Title: include/platform/mir/input/input_device_info.h Pages: 1 -->
<svg width="246pt" height="207pt"
 viewBox="0.00 0.00 245.50 207.00" xmlns="http://www.w3.org/2000/svg" xmlns:xlink="http://www.w3.org/1999/xlink">
<g id="graph0" class="graph" transform="scale(1 1) rotate(0) translate(4 203)">
<title>include/platform/mir/input/input_device_info.h</title>
<polygon fill="white" stroke="none" points="-4,4 -4,-203 241.5,-203 241.5,4 -4,4"/>
<!-- Node0 -->
<g id="node1" class="node"><title>Node0</title>
<polygon fill="#bfbfbf" stroke="black" points="104,-168.5 104,-198.5 232,-198.5 232,-168.5 104,-168.5"/>
<text text-anchor="start" x="112" y="-186.5" font-family="Arial" font-size="10.00">include/platform/mir</text>
<text text-anchor="middle" x="168" y="-175.5" font-family="Arial" font-size="10.00">/input/input_device_info.h</text>
</g>
<!-- Node1 -->
<g id="node2" class="node"><title>Node1</title>
<g id="a_node2"><a xlink:href="device__capability_8h.html" target="_top" xlink:title="mir/input/device_capability.h">
<polygon fill="white" stroke="black" points="0,-112.5 0,-131.5 140,-131.5 140,-112.5 0,-112.5"/>
<text text-anchor="middle" x="70" y="-119.5" font-family="Arial" font-size="10.00">mir/input/device_capability.h</text>
</a>
</g>
</g>
<!-- Node0&#45;&gt;Node1 -->
<g id="edge1" class="edge"><title>Node0&#45;&gt;Node1</title>
<path fill="none" stroke="midnightblue" d="M144.775,-168.399C129.214,-158.951 108.803,-146.559 93.2382,-137.109"/>
<polygon fill="midnightblue" stroke="midnightblue" points="94.6242,-133.856 84.2599,-131.658 90.9913,-139.839 94.6242,-133.856"/>
</g>
<!-- Node4 -->
<g id="node5" class="node"><title>Node4</title>
<polygon fill="white" stroke="#bfbfbf" points="132,-56.5 132,-75.5 178,-75.5 178,-56.5 132,-56.5"/>
<text text-anchor="middle" x="155" y="-63.5" font-family="Arial" font-size="10.00">cstdint</text>
</g>
<!-- Node0&#45;&gt;Node4 -->
<g id="edge5" class="edge"><title>Node0&#45;&gt;Node4</title>
<path fill="none" stroke="midnightblue" d="M166.406,-168.337C164.074,-147.622 159.729,-109.016 157.127,-85.8991"/>
<polygon fill="midnightblue" stroke="midnightblue" points="160.572,-85.2152 155.976,-75.6695 153.616,-85.9982 160.572,-85.2152"/>
</g>
<!-- Node5 -->
<g id="node6" class="node"><title>Node5</title>
<polygon fill="white" stroke="#bfbfbf" points="196.5,-112.5 196.5,-131.5 237.5,-131.5 237.5,-112.5 196.5,-112.5"/>
<text text-anchor="middle" x="217" y="-119.5" font-family="Arial" font-size="10.00">string</text>
</g>
<!-- Node0&#45;&gt;Node5 -->
<g id="edge6" class="edge"><title>Node0&#45;&gt;Node5</title>
<path fill="none" stroke="midnightblue" d="M179.612,-168.399C186.733,-159.753 195.883,-148.642 203.349,-139.576"/>
<polygon fill="midnightblue" stroke="midnightblue" points="206.215,-141.602 209.87,-131.658 200.811,-137.152 206.215,-141.602"/>
</g>
<!-- Node2 -->
<g id="node3" class="node"><title>Node2</title>
<g id="a_node3"><a xlink:href="flags_8h.html" target="_top" xlink:title="mir/flags.h">
<polygon fill="white" stroke="black" points="39,-56.5 39,-75.5 101,-75.5 101,-56.5 39,-56.5"/>
<text text-anchor="middle" x="70" y="-63.5" font-family="Arial" font-size="10.00">mir/flags.h</text>
</a>
</g>
</g>
<!-- Node1&#45;&gt;Node2 -->
<g id="edge2" class="edge"><title>Node1&#45;&gt;Node2</title>
<path fill="none" stroke="midnightblue" d="M70,-112.083C70,-105.006 70,-94.8611 70,-85.9865"/>
<polygon fill="midnightblue" stroke="midnightblue" points="73.5001,-85.751 70,-75.7511 66.5001,-85.7511 73.5001,-85.751"/>
</g>
<!-- Node1&#45;&gt;Node4 -->
<g id="edge4" class="edge"><title>Node1&#45;&gt;Node4</title>
<path fill="none" stroke="midnightblue" d="M83.6567,-112.324C96.9163,-103.9 117.268,-90.9709 132.846,-81.0741"/>
<polygon fill="midnightblue" stroke="midnightblue" points="134.813,-83.9711 141.377,-75.6545 131.06,-78.0626 134.813,-83.9711"/>
</g>
<!-- Node3 -->
<g id="node4" class="node"><title>Node3</title>
<polygon fill="white" stroke="#bfbfbf" points="39,-0.5 39,-19.5 101,-19.5 101,-0.5 39,-0.5"/>
<text text-anchor="middle" x="70" y="-7.5" font-family="Arial" font-size="10.00">type_traits</text>
</g>
<!-- Node2&#45;&gt;Node3 -->
<g id="edge3" class="edge"><title>Node2&#45;&gt;Node3</title>
<path fill="none" stroke="midnightblue" d="M70,-56.083C70,-49.0059 70,-38.8611 70,-29.9865"/>
<polygon fill="midnightblue" stroke="midnightblue" points="73.5001,-29.751 70,-19.7511 66.5001,-29.7511 73.5001,-29.751"/>
</g>
</g>
</svg>
