<?xml version="1.0" encoding="UTF-8" standalone="no"?>
<!DOCTYPE svg PUBLIC "-//W3C//DTD SVG 1.1//EN"
 "http://www.w3.org/Graphics/SVG/1.1/DTD/svg11.dtd">
<!-- Generated by graphviz version 2.38.0 (20140413.2041)
 -->
<!-- Title: include/platform/mir/input/input_device.h Pages: 1 -->
<svg width="278pt" height="151pt"
 viewBox="0.00 0.00 277.50 151.00" xmlns="http://www.w3.org/2000/svg" xmlns:xlink="http://www.w3.org/1999/xlink">
<g id="graph0" class="graph" transform="scale(1 1) rotate(0) translate(4 147)">
<title>include/platform/mir/input/input_device.h</title>
<polygon fill="white" stroke="none" points="-4,4 -4,-147 273.5,-147 273.5,4 -4,4"/>
<!-- Node0 -->
<g id="node1" class="node"><title>Node0</title>
<polygon fill="#bfbfbf" stroke="black" points="82,-112.5 82,-142.5 189,-142.5 189,-112.5 82,-112.5"/>
<text text-anchor="start" x="90" y="-130.5" font-family="Arial" font-size="10.00">include/platform/mir</text>
<text text-anchor="middle" x="135.5" y="-119.5" font-family="Arial" font-size="10.00">/input/input_device.h</text>
</g>
<!-- Node1 -->
<g id="node2" class="node"><title>Node1</title>
<g id="a_node2"><a xlink:href="module__deleter_8h.html" target="_top" xlink:title="mir/module_deleter.h">
<polygon fill="white" stroke="black" points="0,-56.5 0,-75.5 107,-75.5 107,-56.5 0,-56.5"/>
<text text-anchor="middle" x="53.5" y="-63.5" font-family="Arial" font-size="10.00">mir/module_deleter.h</text>
</a>
</g>
</g>
<!-- Node0&#45;&gt;Node1 -->
<g id="edge1" class="edge"><title>Node0&#45;&gt;Node1</title>
<path fill="none" stroke="midnightblue" d="M116.067,-112.399C103.292,-103.129 86.6107,-91.0254 73.6856,-81.6469"/>
<polygon fill="midnightblue" stroke="midnightblue" points="75.581,-78.6979 65.4317,-75.6578 71.47,-84.3635 75.581,-78.6979"/>
</g>
<!-- Node2 -->
<g id="node3" class="node"><title>Node2</title>
<polygon fill="white" stroke="#bfbfbf" points="54.5,-0.5 54.5,-19.5 106.5,-19.5 106.5,-0.5 54.5,-0.5"/>
<text text-anchor="middle" x="80.5" y="-7.5" font-family="Arial" font-size="10.00">memory</text>
</g>
<!-- Node0&#45;&gt;Node2 -->
<g id="edge6" class="edge"><title>Node0&#45;&gt;Node2</title>
<path fill="none" stroke="midnightblue" d="M133.157,-112.402C130.347,-97.7352 124.811,-74.3875 115.5,-56 110.257,-45.6456 102.473,-35.3351 95.5766,-27.2008"/>
<polygon fill="midnightblue" stroke="midnightblue" points="98.1016,-24.7726 88.8545,-19.6013 92.8584,-29.4104 98.1016,-24.7726"/>
</g>
<!-- Node3 -->
<g id="node4" class="node"><title>Node3</title>
<g id="a_node4"><a xlink:href="optional__value_8h.html" target="_top" xlink:title="mir/optional_value.h">
<polygon fill="white" stroke="black" points="163.5,-56.5 163.5,-75.5 267.5,-75.5 267.5,-56.5 163.5,-56.5"/>
<text text-anchor="middle" x="215.5" y="-63.5" font-family="Arial" font-size="10.00">mir/optional_value.h</text>
</a>
</g>
</g>
<!-- Node0&#45;&gt;Node3 -->
<g id="edge3" class="edge"><title>Node0&#45;&gt;Node3</title>
<path fill="none" stroke="midnightblue" d="M154.459,-112.399C166.923,-103.129 183.197,-91.0254 195.807,-81.6469"/>
<polygon fill="midnightblue" stroke="midnightblue" points="197.924,-84.4341 203.859,-75.6578 193.747,-78.8173 197.924,-84.4341"/>
</g>
<!-- Node1&#45;&gt;Node2 -->
<g id="edge2" class="edge"><title>Node1&#45;&gt;Node2</title>
<path fill="none" stroke="midnightblue" d="M57.9585,-56.083C61.6543,-48.6913 67.0234,-37.9533 71.5945,-28.8111"/>
<polygon fill="midnightblue" stroke="midnightblue" points="74.7828,-30.2606 76.1245,-19.7511 68.5218,-27.1301 74.7828,-30.2606"/>
</g>
<!-- Node4 -->
<g id="node5" class="node"><title>Node4</title>
<g id="a_node5"><a xlink:href="fatal_8h.html" target="_top" xlink:title="mir/fatal.h">
<polygon fill="white" stroke="black" points="151.5,-0.5 151.5,-19.5 211.5,-19.5 211.5,-0.5 151.5,-0.5"/>
<text text-anchor="middle" x="181.5" y="-7.5" font-family="Arial" font-size="10.00">mir/fatal.h</text>
</a>
</g>
</g>
<!-- Node3&#45;&gt;Node4 -->
<g id="edge4" class="edge"><title>Node3&#45;&gt;Node4</title>
<path fill="none" stroke="midnightblue" d="M209.886,-56.083C205.133,-48.5341 198.182,-37.4948 192.348,-28.2298"/>
<polygon fill="midnightblue" stroke="midnightblue" points="195.3,-26.3486 187.01,-19.7511 189.376,-30.0783 195.3,-26.3486"/>
</g>
<!-- Node5 -->
<g id="node6" class="node"><title>Node5</title>
<polygon fill="white" stroke="#bfbfbf" points="229.5,-0.5 229.5,-19.5 269.5,-19.5 269.5,-0.5 229.5,-0.5"/>
<text text-anchor="middle" x="249.5" y="-7.5" font-family="Arial" font-size="10.00">utility</text>
</g>
<!-- Node3&#45;&gt;Node5 -->
<g id="edge5" class="edge"><title>Node3&#45;&gt;Node5</title>
<path fill="none" stroke="midnightblue" d="M221.114,-56.083C225.867,-48.5341 232.818,-37.4948 238.652,-28.2298"/>
<polygon fill="midnightblue" stroke="midnightblue" points="241.624,-30.0783 243.99,-19.7511 235.7,-26.3486 241.624,-30.0783"/>
</g>
</g>
</svg>
