<?xml version="1.0" encoding="UTF-8" standalone="no"?>
<!DOCTYPE svg PUBLIC "-//W3C//DTD SVG 1.1//EN"
 "http://www.w3.org/Graphics/SVG/1.1/DTD/svg11.dtd">
<!-- Generated by graphviz version 2.38.0 (20140413.2041)
 -->
<!-- Title: include/common/mir/events/input_device_state.h Pages: 1 -->
<svg width="1678pt" height="374pt"
 viewBox="0.00 0.00 1677.50 374.00" xmlns="http://www.w3.org/2000/svg" xmlns:xlink="http://www.w3.org/1999/xlink">
<g id="graph0" class="graph" transform="scale(1 1) rotate(0) translate(4 370)">
<title>include/common/mir/events/input_device_state.h</title>
<polygon fill="white" stroke="none" points="-4,4 -4,-370 1673.5,-370 1673.5,4 -4,4"/>
<!-- Node0 -->
<g id="node1" class="node"><title>Node0</title>
<polygon fill="#bfbfbf" stroke="black" points="844.5,-324.5 844.5,-365.5 948.5,-365.5 948.5,-324.5 844.5,-324.5"/>
<text text-anchor="start" x="852.5" y="-353.5" font-family="Arial" font-size="10.00">include/common/mir</text>
<text text-anchor="start" x="852.5" y="-342.5" font-family="Arial" font-size="10.00">/events/input_device</text>
<text text-anchor="middle" x="896.5" y="-331.5" font-family="Arial" font-size="10.00">_state.h</text>
</g>
<!-- Node1 -->
<g id="node2" class="node"><title>Node1</title>
<g id="a_node2"><a xlink:href="toolkit_2event_8h.html" target="_top" xlink:title="mir_toolkit/event.h">
<polygon fill="white" stroke="black" points="806,-268.5 806,-287.5 901,-287.5 901,-268.5 806,-268.5"/>
<text text-anchor="middle" x="853.5" y="-275.5" font-family="Arial" font-size="10.00">mir_toolkit/event.h</text>
</a>
</g>
</g>
<!-- Node0&#45;&gt;Node1 -->
<g id="edge1" class="edge"><title>Node0&#45;&gt;Node1</title>
<path fill="none" stroke="midnightblue" d="M883.599,-324.498C877.64,-315.49 870.626,-304.888 864.869,-296.185"/>
<polygon fill="midnightblue" stroke="midnightblue" points="867.66,-294.062 859.224,-287.652 861.822,-297.924 867.66,-294.062"/>
</g>
<!-- Node24 -->
<g id="node25" class="node"><title>Node24</title>
<polygon fill="white" stroke="#bfbfbf" points="919.5,-268.5 919.5,-287.5 961.5,-287.5 961.5,-268.5 919.5,-268.5"/>
<text text-anchor="middle" x="940.5" y="-275.5" font-family="Arial" font-size="10.00">vector</text>
</g>
<!-- Node0&#45;&gt;Node24 -->
<g id="edge43" class="edge"><title>Node0&#45;&gt;Node24</title>
<path fill="none" stroke="midnightblue" d="M909.701,-324.498C915.799,-315.49 922.976,-304.888 928.867,-296.185"/>
<polygon fill="midnightblue" stroke="midnightblue" points="931.936,-297.896 934.643,-287.652 926.139,-293.972 931.936,-297.896"/>
</g>
<!-- Node2 -->
<g id="node3" class="node"><title>Node2</title>
<g id="a_node3"><a xlink:href="toolkit_2events_2event_8h.html" target="_top" xlink:title="mir_toolkit/events\l/event.h">
<polygon fill="white" stroke="black" points="807.5,-201.5 807.5,-231.5 899.5,-231.5 899.5,-201.5 807.5,-201.5"/>
<text text-anchor="start" x="815.5" y="-219.5" font-family="Arial" font-size="10.00">mir_toolkit/events</text>
<text text-anchor="middle" x="853.5" y="-208.5" font-family="Arial" font-size="10.00">/event.h</text>
</a>
</g>
</g>
<!-- Node1&#45;&gt;Node2 -->
<g id="edge2" class="edge"><title>Node1&#45;&gt;Node2</title>
<path fill="none" stroke="midnightblue" d="M853.5,-268.475C853.5,-261.471 853.5,-251.192 853.5,-241.696"/>
<polygon fill="midnightblue" stroke="midnightblue" points="857,-241.523 853.5,-231.523 850,-241.523 857,-241.523"/>
</g>
<!-- Node3 -->
<g id="node4" class="node"><title>Node3</title>
<polygon fill="white" stroke="#bfbfbf" points="0,-134.5 0,-153.5 51,-153.5 51,-134.5 0,-134.5"/>
<text text-anchor="middle" x="25.5" y="-141.5" font-family="Arial" font-size="10.00">stddef.h</text>
</g>
<!-- Node2&#45;&gt;Node3 -->
<g id="edge3" class="edge"><title>Node2&#45;&gt;Node3</title>
<path fill="none" stroke="midnightblue" d="M807.495,-214.946C661.017,-212.806 206.859,-203.184 65.5,-165 59.7847,-163.456 53.9254,-161.058 48.5149,-158.451"/>
<polygon fill="midnightblue" stroke="midnightblue" points="49.8714,-155.21 39.3888,-153.672 46.6244,-161.412 49.8714,-155.21"/>
</g>
<!-- Node4 -->
<g id="node5" class="node"><title>Node4</title>
<polygon fill="white" stroke="#bfbfbf" points="93,-0.5 93,-19.5 142,-19.5 142,-0.5 93,-0.5"/>
<text text-anchor="middle" x="117.5" y="-7.5" font-family="Arial" font-size="10.00">stdint.h</text>
</g>
<!-- Node2&#45;&gt;Node4 -->
<g id="edge4" class="edge"><title>Node2&#45;&gt;Node4</title>
<path fill="none" stroke="midnightblue" d="M807.348,-214.242C663.965,-210.033 232.531,-194.984 177.5,-165 139.331,-144.203 132.601,-128.116 118.5,-87 112.093,-68.318 112.836,-45.5026 114.558,-29.7729"/>
<polygon fill="midnightblue" stroke="midnightblue" points="118.045,-30.107 115.898,-19.732 111.106,-29.1816 118.045,-30.107"/>
</g>
<!-- Node5 -->
<g id="node6" class="node"><title>Node5</title>
<g id="a_node6"><a xlink:href="common_8h.html" target="_top" xlink:title="mir_toolkit/common.h">
<polygon fill="white" stroke="black" points="306.5,-134.5 306.5,-153.5 416.5,-153.5 416.5,-134.5 306.5,-134.5"/>
<text text-anchor="middle" x="361.5" y="-141.5" font-family="Arial" font-size="10.00">mir_toolkit/common.h</text>
</a>
</g>
</g>
<!-- Node2&#45;&gt;Node5 -->
<g id="edge5" class="edge"><title>Node2&#45;&gt;Node5</title>
<path fill="none" stroke="midnightblue" d="M807.414,-212.474C729.267,-206.792 566.033,-192.541 430.5,-165 419.478,-162.76 407.659,-159.617 396.972,-156.484"/>
<polygon fill="midnightblue" stroke="midnightblue" points="397.721,-153.054 387.136,-153.514 395.697,-159.755 397.721,-153.054"/>
</g>
<!-- Node6 -->
<g id="node7" class="node"><title>Node6</title>
<g id="a_node7"><a xlink:href="deprecations_8h.html" target="_top" xlink:title="mir_toolkit/deprecations.h">
<polygon fill="white" stroke="black" points="692.5,-62 692.5,-81 820.5,-81 820.5,-62 692.5,-62"/>
<text text-anchor="middle" x="756.5" y="-69" font-family="Arial" font-size="10.00">mir_toolkit/deprecations.h</text>
</a>
</g>
</g>
<!-- Node2&#45;&gt;Node6 -->
<g id="edge7" class="edge"><title>Node2&#45;&gt;Node6</title>
<path fill="none" stroke="midnightblue" d="M807.441,-212.899C709.148,-206.877 485.923,-190.513 463.5,-165 404.483,-97.8482 525.847,-115.216 682.5,-87 689.586,-85.7236 697.043,-84.3264 704.385,-82.9191"/>
<polygon fill="midnightblue" stroke="midnightblue" points="705.126,-86.3408 714.279,-81.0044 703.796,-79.4683 705.126,-86.3408"/>
</g>
<!-- Node7 -->
<g id="node8" class="node"><title>Node7</title>
<g id="a_node8"><a xlink:href="input__event_8h.html" target="_top" xlink:title="mir_toolkit/events\l/input/input_event.h">
<polygon fill="white" stroke="black" points="187,-129 187,-159 288,-159 288,-129 187,-129"/>
<text text-anchor="start" x="195" y="-147" font-family="Arial" font-size="10.00">mir_toolkit/events</text>
<text text-anchor="middle" x="237.5" y="-136" font-family="Arial" font-size="10.00">/input/input_event.h</text>
</a>
</g>
</g>
<!-- Node2&#45;&gt;Node7 -->
<g id="edge8" class="edge"><title>Node2&#45;&gt;Node7</title>
<path fill="none" stroke="midnightblue" d="M807.489,-214.997C710.287,-213.163 478.008,-204.633 288.5,-165 284.389,-164.14 280.167,-163.091 275.989,-161.928"/>
<polygon fill="midnightblue" stroke="midnightblue" points="276.977,-158.57 266.393,-159.043 274.962,-165.274 276.977,-158.57"/>
</g>
<!-- Node14 -->
<g id="node15" class="node"><title>Node14</title>
<g id="a_node15"><a xlink:href="resize__event_8h.html" target="_top" xlink:title="mir_toolkit/events\l/resize_event.h">
<polygon fill="white" stroke="black" points="472.5,-129 472.5,-159 564.5,-159 564.5,-129 472.5,-129"/>
<text text-anchor="start" x="480.5" y="-147" font-family="Arial" font-size="10.00">mir_toolkit/events</text>
<text text-anchor="middle" x="518.5" y="-136" font-family="Arial" font-size="10.00">/resize_event.h</text>
</a>
</g>
</g>
<!-- Node2&#45;&gt;Node14 -->
<g id="edge19" class="edge"><title>Node2&#45;&gt;Node14</title>
<path fill="none" stroke="midnightblue" d="M807.073,-210.424C749.302,-203.027 648.433,-187.652 564.5,-165 561.361,-164.153 558.147,-163.205 554.944,-162.195"/>
<polygon fill="midnightblue" stroke="midnightblue" points="556.047,-158.873 545.453,-159.016 553.823,-165.511 556.047,-158.873"/>
</g>
<!-- Node15 -->
<g id="node16" class="node"><title>Node15</title>
<g id="a_node16"><a xlink:href="surface__event_8h.html" target="_top" xlink:title="mir_toolkit/events\l/surface_event.h">
<polygon fill="white" stroke="black" points="582.5,-129 582.5,-159 674.5,-159 674.5,-129 582.5,-129"/>
<text text-anchor="start" x="590.5" y="-147" font-family="Arial" font-size="10.00">mir_toolkit/events</text>
<text text-anchor="middle" x="628.5" y="-136" font-family="Arial" font-size="10.00">/surface_event.h</text>
</a>
</g>
</g>
<!-- Node2&#45;&gt;Node15 -->
<g id="edge21" class="edge"><title>Node2&#45;&gt;Node15</title>
<path fill="none" stroke="midnightblue" d="M807.373,-204.627C770.88,-194.819 719.087,-179.715 674.5,-165 672.052,-164.192 669.548,-163.348 667.034,-162.482"/>
<polygon fill="midnightblue" stroke="midnightblue" points="667.966,-159.1 657.371,-159.071 665.636,-165.7 667.966,-159.1"/>
</g>
<!-- Node16 -->
<g id="node17" class="node"><title>Node16</title>
<g id="a_node17"><a xlink:href="window__event_8h.html" target="_top" xlink:title="mir_toolkit/events\l/window_event.h">
<polygon fill="white" stroke="black" points="692.5,-129 692.5,-159 784.5,-159 784.5,-129 692.5,-129"/>
<text text-anchor="start" x="700.5" y="-147" font-family="Arial" font-size="10.00">mir_toolkit/events</text>
<text text-anchor="middle" x="738.5" y="-136" font-family="Arial" font-size="10.00">/window_event.h</text>
</a>
</g>
</g>
<!-- Node2&#45;&gt;Node16 -->
<g id="edge24" class="edge"><title>Node2&#45;&gt;Node16</title>
<path fill="none" stroke="midnightblue" d="M824.978,-201.403C806.508,-190.932 782.776,-176.51 764.769,-164.87"/>
<polygon fill="midnightblue" stroke="midnightblue" points="766.214,-161.632 755.933,-159.073 762.374,-167.485 766.214,-161.632"/>
</g>
<!-- Node17 -->
<g id="node18" class="node"><title>Node17</title>
<g id="a_node18"><a xlink:href="orientation__event_8h.html" target="_top" xlink:title="mir_toolkit/events\l/orientation_event.h">
<polygon fill="white" stroke="black" points="803,-129 803,-159 904,-159 904,-129 803,-129"/>
<text text-anchor="start" x="811" y="-147" font-family="Arial" font-size="10.00">mir_toolkit/events</text>
<text text-anchor="middle" x="853.5" y="-136" font-family="Arial" font-size="10.00">/orientation_event.h</text>
</a>
</g>
</g>
<!-- Node2&#45;&gt;Node17 -->
<g id="edge26" class="edge"><title>Node2&#45;&gt;Node17</title>
<path fill="none" stroke="midnightblue" d="M847.951,-201.233C846.749,-192.06 846.449,-179.905 847.051,-169.244"/>
<polygon fill="midnightblue" stroke="midnightblue" points="850.541,-169.52 847.954,-159.246 843.569,-168.89 850.541,-169.52"/>
</g>
<!-- Node18 -->
<g id="node19" class="node"><title>Node18</title>
<g id="a_node19"><a xlink:href="prompt__session__event_8h.html" target="_top" xlink:title="mir_toolkit/events\l/prompt_session_event.h">
<polygon fill="white" stroke="black" points="922,-129 922,-159 1047,-159 1047,-129 922,-129"/>
<text text-anchor="start" x="930" y="-147" font-family="Arial" font-size="10.00">mir_toolkit/events</text>
<text text-anchor="middle" x="984.5" y="-136" font-family="Arial" font-size="10.00">/prompt_session_event.h</text>
</a>
</g>
</g>
<!-- Node2&#45;&gt;Node18 -->
<g id="edge28" class="edge"><title>Node2&#45;&gt;Node18</title>
<path fill="none" stroke="midnightblue" d="M874.169,-201.403C892.898,-190.548 920.791,-175.446 943.907,-163.6"/>
<polygon fill="midnightblue" stroke="midnightblue" points="945.494,-166.72 952.827,-159.073 942.326,-160.478 945.494,-166.72"/>
</g>
<!-- Node19 -->
<g id="node20" class="node"><title>Node19</title>
<g id="a_node20"><a xlink:href="keymap__event_8h.html" target="_top" xlink:title="mir_toolkit/events\l/keymap_event.h">
<polygon fill="white" stroke="black" points="1321.5,-129 1321.5,-159 1413.5,-159 1413.5,-129 1321.5,-129"/>
<text text-anchor="start" x="1329.5" y="-147" font-family="Arial" font-size="10.00">mir_toolkit/events</text>
<text text-anchor="middle" x="1367.5" y="-136" font-family="Arial" font-size="10.00">/keymap_event.h</text>
</a>
</g>
</g>
<!-- Node2&#45;&gt;Node19 -->
<g id="edge30" class="edge"><title>Node2&#45;&gt;Node19</title>
<path fill="none" stroke="midnightblue" d="M899.567,-213.836C981.783,-210.184 1158.29,-198.875 1303.5,-165 1307.02,-164.178 1310.63,-163.199 1314.25,-162.121"/>
<polygon fill="midnightblue" stroke="midnightblue" points="1315.36,-165.441 1323.83,-159.079 1313.24,-158.769 1315.36,-165.441"/>
</g>
<!-- Node20 -->
<g id="node21" class="node"><title>Node20</title>
<g id="a_node21"><a xlink:href="input__configuration__event_8h.html" target="_top" xlink:title="mir_toolkit/events\l/input_configuration\l_event.h">
<polygon fill="white" stroke="black" points="1065,-123.5 1065,-164.5 1166,-164.5 1166,-123.5 1065,-123.5"/>
<text text-anchor="start" x="1073" y="-152.5" font-family="Arial" font-size="10.00">mir_toolkit/events</text>
<text text-anchor="start" x="1073" y="-141.5" font-family="Arial" font-size="10.00">/input_configuration</text>
<text text-anchor="middle" x="1115.5" y="-130.5" font-family="Arial" font-size="10.00">_event.h</text>
</a>
</g>
</g>
<!-- Node2&#45;&gt;Node20 -->
<g id="edge33" class="edge"><title>Node2&#45;&gt;Node20</title>
<path fill="none" stroke="midnightblue" d="M899.854,-203.412C939.36,-193.858 997.318,-179.72 1047.5,-165 1050.04,-164.255 1052.63,-163.47 1055.25,-162.659"/>
<polygon fill="midnightblue" stroke="midnightblue" points="1056.34,-165.986 1064.82,-159.635 1054.23,-159.312 1056.34,-165.986"/>
</g>
<!-- Node21 -->
<g id="node22" class="node"><title>Node21</title>
<g id="a_node22"><a xlink:href="surface__output__event_8h.html" target="_top" xlink:title="mir_toolkit/events\l/surface_output_event.h">
<polygon fill="white" stroke="black" points="1184,-129 1184,-159 1303,-159 1303,-129 1184,-129"/>
<text text-anchor="start" x="1192" y="-147" font-family="Arial" font-size="10.00">mir_toolkit/events</text>
<text text-anchor="middle" x="1243.5" y="-136" font-family="Arial" font-size="10.00">/surface_output_event.h</text>
</a>
</g>
</g>
<!-- Node2&#45;&gt;Node21 -->
<g id="edge36" class="edge"><title>Node2&#45;&gt;Node21</title>
<path fill="none" stroke="midnightblue" d="M899.689,-209.4C961.115,-201.47 1072.5,-186.1 1166.5,-165 1170.87,-164.018 1175.38,-162.911 1179.92,-161.734"/>
<polygon fill="midnightblue" stroke="midnightblue" points="1181.11,-165.038 1189.86,-159.067 1179.29,-158.277 1181.11,-165.038"/>
</g>
<!-- Node22 -->
<g id="node23" class="node"><title>Node22</title>
<g id="a_node23"><a xlink:href="window__output__event_8h.html" target="_top" xlink:title="mir_toolkit/events\l/window_output_event.h">
<polygon fill="white" stroke="black" points="1432,-129 1432,-159 1551,-159 1551,-129 1432,-129"/>
<text text-anchor="start" x="1440" y="-147" font-family="Arial" font-size="10.00">mir_toolkit/events</text>
<text text-anchor="middle" x="1491.5" y="-136" font-family="Arial" font-size="10.00">/window_output_event.h</text>
</a>
</g>
</g>
<!-- Node2&#45;&gt;Node22 -->
<g id="edge39" class="edge"><title>Node2&#45;&gt;Node22</title>
<path fill="none" stroke="midnightblue" d="M899.845,-214.263C996.32,-211.117 1224.89,-200.36 1413.5,-165 1418.5,-164.062 1423.67,-162.914 1428.85,-161.648"/>
<polygon fill="midnightblue" stroke="midnightblue" points="1429.98,-164.97 1438.8,-159.089 1428.24,-158.19 1429.98,-164.97"/>
</g>
<!-- Node23 -->
<g id="node24" class="node"><title>Node23</title>
<g id="a_node24"><a xlink:href="input__device__state__event_8h.html" target="_top" xlink:title="mir_toolkit/events\l/input_device_state\l_event.h">
<polygon fill="white" stroke="black" points="1569.5,-123.5 1569.5,-164.5 1669.5,-164.5 1669.5,-123.5 1569.5,-123.5"/>
<text text-anchor="start" x="1577.5" y="-152.5" font-family="Arial" font-size="10.00">mir_toolkit/events</text>
<text text-anchor="start" x="1577.5" y="-141.5" font-family="Arial" font-size="10.00">/input_device_state</text>
<text text-anchor="middle" x="1619.5" y="-130.5" font-family="Arial" font-size="10.00">_event.h</text>
</a>
</g>
</g>
<!-- Node2&#45;&gt;Node23 -->
<g id="edge41" class="edge"><title>Node2&#45;&gt;Node23</title>
<path fill="none" stroke="midnightblue" d="M899.581,-216.285C1012.21,-217.141 1309.34,-213.852 1551.5,-165 1554.14,-164.467 1556.83,-163.848 1559.54,-163.165"/>
<polygon fill="midnightblue" stroke="midnightblue" points="1560.66,-166.485 1569.37,-160.452 1558.8,-159.737 1560.66,-166.485"/>
</g>
<!-- Node5&#45;&gt;Node6 -->
<g id="edge6" class="edge"><title>Node5&#45;&gt;Node6</title>
<path fill="none" stroke="midnightblue" d="M387.819,-134.43C400.596,-130.512 416.234,-126.071 430.5,-123 541.104,-99.193 570.95,-105.884 682.5,-87 689.86,-85.7541 697.611,-84.344 705.216,-82.9045"/>
<polygon fill="midnightblue" stroke="midnightblue" points="705.924,-86.3326 715.083,-81.0067 704.601,-79.4586 705.924,-86.3326"/>
</g>
<!-- Node7&#45;&gt;Node2 -->
<g id="edge9" class="edge"><title>Node7&#45;&gt;Node2</title>
<path fill="none" stroke="midnightblue" d="M284.056,-159.043C291.532,-161.344 299.192,-163.472 306.5,-165 483.346,-201.985 697.438,-211.884 797.3,-214.533"/>
<polygon fill="midnightblue" stroke="midnightblue" points="797.382,-218.036 807.467,-214.788 797.557,-211.038 797.382,-218.036"/>
</g>
<!-- Node7&#45;&gt;Node4 -->
<g id="edge12" class="edge"><title>Node7&#45;&gt;Node4</title>
<path fill="none" stroke="midnightblue" d="M195.695,-128.98C175.032,-120.03 151.396,-106.402 136.5,-87 123.849,-70.5215 119.531,-46.6498 118.105,-30.0744"/>
<polygon fill="midnightblue" stroke="midnightblue" points="121.591,-29.7242 117.514,-19.9453 114.603,-30.1323 121.591,-29.7242"/>
</g>
<!-- Node8 -->
<g id="node9" class="node"><title>Node8</title>
<g id="a_node9"><a xlink:href="mir__input__device__types_8h.html" target="_top" xlink:title="mir_toolkit/mir_input\l_device_types.h">
<polygon fill="white" stroke="black" points="145.5,-56.5 145.5,-86.5 249.5,-86.5 249.5,-56.5 145.5,-56.5"/>
<text text-anchor="start" x="153.5" y="-74.5" font-family="Arial" font-size="10.00">mir_toolkit/mir_input</text>
<text text-anchor="middle" x="197.5" y="-63.5" font-family="Arial" font-size="10.00">_device_types.h</text>
</a>
</g>
</g>
<!-- Node7&#45;&gt;Node8 -->
<g id="edge10" class="edge"><title>Node7&#45;&gt;Node8</title>
<path fill="none" stroke="midnightblue" d="M229.405,-128.733C224.038,-119.273 216.872,-106.643 210.691,-95.7486"/>
<polygon fill="midnightblue" stroke="midnightblue" points="213.562,-93.7159 205.583,-86.7455 207.473,-97.1703 213.562,-93.7159"/>
</g>
<!-- Node9 -->
<g id="node10" class="node"><title>Node9</title>
<polygon fill="white" stroke="#bfbfbf" points="351.5,-0.5 351.5,-19.5 407.5,-19.5 407.5,-0.5 351.5,-0.5"/>
<text text-anchor="middle" x="379.5" y="-7.5" font-family="Arial" font-size="10.00">stdbool.h</text>
</g>
<!-- Node7&#45;&gt;Node9 -->
<g id="edge13" class="edge"><title>Node7&#45;&gt;Node9</title>
<path fill="none" stroke="midnightblue" d="M244.372,-128.82C253.948,-110.221 272.826,-77.4367 296.5,-56 311.532,-42.3884 331.42,-31.4231 347.96,-23.7254"/>
<polygon fill="midnightblue" stroke="midnightblue" points="349.546,-26.85 357.249,-19.5754 346.691,-20.4588 349.546,-26.85"/>
</g>
<!-- Node10 -->
<g id="node11" class="node"><title>Node10</title>
<g id="a_node11"><a xlink:href="touch__event_8h.html" target="_top" xlink:title="mir_toolkit/events\l/input/touch_event.h">
<polygon fill="white" stroke="black" points="305.5,-56.5 305.5,-86.5 409.5,-86.5 409.5,-56.5 305.5,-56.5"/>
<text text-anchor="start" x="313.5" y="-74.5" font-family="Arial" font-size="10.00">mir_toolkit/events</text>
<text text-anchor="middle" x="357.5" y="-63.5" font-family="Arial" font-size="10.00">/input/touch_event.h</text>
</a>
</g>
</g>
<!-- Node7&#45;&gt;Node10 -->
<g id="edge14" class="edge"><title>Node7&#45;&gt;Node10</title>
<path fill="none" stroke="midnightblue" d="M261.495,-128.903C279.645,-118.24 304.77,-103.479 324.764,-91.7323"/>
<polygon fill="midnightblue" stroke="midnightblue" points="326.697,-94.6561 333.546,-86.5729 323.151,-88.6206 326.697,-94.6561"/>
</g>
<!-- Node11 -->
<g id="node12" class="node"><title>Node11</title>
<g id="a_node12"><a xlink:href="keyboard__event_8h.html" target="_top" xlink:title="mir_toolkit/events\l/input/keyboard_event.h">
<polygon fill="white" stroke="black" points="555,-56.5 555,-86.5 674,-86.5 674,-56.5 555,-56.5"/>
<text text-anchor="start" x="563" y="-74.5" font-family="Arial" font-size="10.00">mir_toolkit/events</text>
<text text-anchor="middle" x="614.5" y="-63.5" font-family="Arial" font-size="10.00">/input/keyboard_event.h</text>
</a>
</g>
</g>
<!-- Node7&#45;&gt;Node11 -->
<g id="edge15" class="edge"><title>Node7&#45;&gt;Node11</title>
<path fill="none" stroke="midnightblue" d="M276.263,-128.965C283.27,-126.748 290.556,-124.648 297.5,-123 402.8,-98.0165 434.076,-105.971 544.816,-87.0319"/>
<polygon fill="midnightblue" stroke="midnightblue" points="545.456,-90.4732 554.706,-85.306 544.253,-83.5775 545.456,-90.4732"/>
</g>
<!-- Node13 -->
<g id="node14" class="node"><title>Node13</title>
<g id="a_node14"><a xlink:href="pointer__event_8h.html" target="_top" xlink:title="mir_toolkit/events\l/input/pointer_event.h">
<polygon fill="white" stroke="black" points="428,-56.5 428,-86.5 537,-86.5 537,-56.5 428,-56.5"/>
<text text-anchor="start" x="436" y="-74.5" font-family="Arial" font-size="10.00">mir_toolkit/events</text>
<text text-anchor="middle" x="482.5" y="-63.5" font-family="Arial" font-size="10.00">/input/pointer_event.h</text>
</a>
</g>
</g>
<!-- Node7&#45;&gt;Node13 -->
<g id="edge17" class="edge"><title>Node7&#45;&gt;Node13</title>
<path fill="none" stroke="midnightblue" d="M278.718,-128.928C284.992,-126.882 291.405,-124.846 297.5,-123 337.402,-110.914 382.534,-98.5681 418.231,-89.1088"/>
<polygon fill="midnightblue" stroke="midnightblue" points="419.262,-92.4566 428.037,-86.5199 417.475,-85.6885 419.262,-92.4566"/>
</g>
<!-- Node8&#45;&gt;Node4 -->
<g id="edge11" class="edge"><title>Node8&#45;&gt;Node4</title>
<path fill="none" stroke="midnightblue" d="M178.541,-56.3993C166.077,-47.1293 149.803,-35.0254 137.193,-25.6469"/>
<polygon fill="midnightblue" stroke="midnightblue" points="139.253,-22.8173 129.141,-19.6578 135.076,-28.4341 139.253,-22.8173"/>
</g>
<!-- Node12 -->
<g id="node13" class="node"><title>Node12</title>
<polygon fill="white" stroke="#bfbfbf" points="783.5,-0.5 783.5,-19.5 917.5,-19.5 917.5,-0.5 783.5,-0.5"/>
<text text-anchor="middle" x="850.5" y="-7.5" font-family="Arial" font-size="10.00">xkbcommon/xkbcommon.h</text>
</g>
<!-- Node11&#45;&gt;Node12 -->
<g id="edge16" class="edge"><title>Node11&#45;&gt;Node12</title>
<path fill="none" stroke="midnightblue" d="M670.13,-56.4747C711.911,-45.9408 768.333,-31.7158 806.879,-21.9978"/>
<polygon fill="midnightblue" stroke="midnightblue" points="807.92,-25.3449 816.76,-19.5064 806.208,-18.5573 807.92,-25.3449"/>
</g>
<!-- Node13&#45;&gt;Node9 -->
<g id="edge18" class="edge"><title>Node13&#45;&gt;Node9</title>
<path fill="none" stroke="midnightblue" d="M458.09,-56.3993C441.58,-46.8619 419.877,-34.3248 403.462,-24.8422"/>
<polygon fill="midnightblue" stroke="midnightblue" points="404.897,-21.6292 394.487,-19.6578 401.396,-27.6906 404.897,-21.6292"/>
</g>
<!-- Node14&#45;&gt;Node2 -->
<g id="edge20" class="edge"><title>Node14&#45;&gt;Node2</title>
<path fill="none" stroke="midnightblue" d="M563.172,-159.016C569.646,-161.208 576.222,-163.306 582.5,-165 655.903,-184.81 742.259,-199.055 797.501,-207.265"/>
<polygon fill="midnightblue" stroke="midnightblue" points="797.041,-210.734 807.444,-208.727 798.06,-203.809 797.041,-210.734"/>
</g>
<!-- Node15&#45;&gt;Node2 -->
<g id="edge22" class="edge"><title>Node15&#45;&gt;Node2</title>
<path fill="none" stroke="midnightblue" d="M674.556,-158.859C680.614,-160.976 686.711,-163.089 692.5,-165 728.644,-176.928 769.522,-189.112 801.121,-198.523"/>
<polygon fill="midnightblue" stroke="midnightblue" points="800.453,-201.976 811.036,-201.478 802.452,-195.268 800.453,-201.976"/>
</g>
<!-- Node15&#45;&gt;Node6 -->
<g id="edge23" class="edge"><title>Node15&#45;&gt;Node6</title>
<path fill="none" stroke="midnightblue" d="M654.095,-128.903C676.821,-116.386 709.799,-98.222 732.143,-85.9156"/>
<polygon fill="midnightblue" stroke="midnightblue" points="733.936,-88.9238 741.006,-81.0336 730.559,-82.7923 733.936,-88.9238"/>
</g>
<!-- Node16&#45;&gt;Node2 -->
<g id="edge25" class="edge"><title>Node16&#45;&gt;Node2</title>
<path fill="none" stroke="midnightblue" d="M766.979,-159.073C785.441,-169.538 809.173,-183.959 827.189,-195.603"/>
<polygon fill="midnightblue" stroke="midnightblue" points="825.749,-198.844 836.031,-201.403 829.589,-192.991 825.749,-198.844"/>
</g>
<!-- Node17&#45;&gt;Node2 -->
<g id="edge27" class="edge"><title>Node17&#45;&gt;Node2</title>
<path fill="none" stroke="midnightblue" d="M859.046,-159.246C860.249,-168.414 860.551,-180.568 859.95,-191.232"/>
<polygon fill="midnightblue" stroke="midnightblue" points="856.46,-190.959 859.049,-201.233 863.432,-191.588 856.46,-190.959"/>
</g>
<!-- Node18&#45;&gt;Node2 -->
<g id="edge29" class="edge"><title>Node18&#45;&gt;Node2</title>
<path fill="none" stroke="midnightblue" d="M963.873,-159.073C945.158,-169.922 917.268,-185.023 894.145,-196.873"/>
<polygon fill="midnightblue" stroke="midnightblue" points="892.554,-193.755 885.221,-201.403 895.722,-199.997 892.554,-193.755"/>
</g>
<!-- Node19&#45;&gt;Node2 -->
<g id="edge31" class="edge"><title>Node19&#45;&gt;Node2</title>
<path fill="none" stroke="midnightblue" d="M1341.51,-159.079C1335.06,-161.347 1328.13,-163.454 1321.5,-165 1175.81,-198.986 998.622,-210.258 909.788,-213.872"/>
<polygon fill="midnightblue" stroke="midnightblue" points="909.515,-210.379 899.659,-214.266 909.787,-217.374 909.515,-210.379"/>
</g>
<!-- Node19&#45;&gt;Node12 -->
<g id="edge32" class="edge"><title>Node19&#45;&gt;Node12</title>
<path fill="none" stroke="midnightblue" d="M1330.71,-128.985C1324.66,-126.865 1318.43,-124.792 1312.5,-123 1165.59,-78.6321 988.36,-39.6292 902.357,-21.6045"/>
<polygon fill="midnightblue" stroke="midnightblue" points="902.833,-18.1286 892.329,-19.5114 901.403,-24.9809 902.833,-18.1286"/>
</g>
<!-- Node20&#45;&gt;Node2 -->
<g id="edge34" class="edge"><title>Node20&#45;&gt;Node2</title>
<path fill="none" stroke="midnightblue" d="M1067.06,-164.538C1066.54,-164.694 1066.02,-164.848 1065.5,-165 1013.4,-180.283 952.91,-194.94 909.813,-204.489"/>
<polygon fill="midnightblue" stroke="midnightblue" points="908.815,-201.125 899.796,-206.685 910.314,-207.962 908.815,-201.125"/>
</g>
<!-- Node20&#45;&gt;Node6 -->
<g id="edge35" class="edge"><title>Node20&#45;&gt;Node6</title>
<path fill="none" stroke="midnightblue" d="M1064.81,-125.241C1062.01,-124.441 1059.23,-123.687 1056.5,-123 980.453,-103.841 891.697,-89.918 830.559,-81.6024"/>
<polygon fill="midnightblue" stroke="midnightblue" points="830.989,-78.1289 820.612,-80.2659 830.057,-85.0665 830.989,-78.1289"/>
</g>
<!-- Node21&#45;&gt;Node2 -->
<g id="edge37" class="edge"><title>Node21&#45;&gt;Node2</title>
<path fill="none" stroke="midnightblue" d="M1207.59,-159.067C1200.02,-161.229 1192.06,-163.302 1184.5,-165 1089.25,-186.381 976.141,-201.879 909.749,-209.713"/>
<polygon fill="midnightblue" stroke="midnightblue" points="909.033,-206.273 899.504,-210.904 909.842,-213.226 909.033,-206.273"/>
</g>
<!-- Node21&#45;&gt;Node6 -->
<g id="edge38" class="edge"><title>Node21&#45;&gt;Node6</title>
<path fill="none" stroke="midnightblue" d="M1199.51,-128.906C1191.57,-126.696 1183.33,-124.613 1175.5,-123 1056.02,-98.4077 914.741,-84.4439 830.542,-77.6851"/>
<polygon fill="midnightblue" stroke="midnightblue" points="830.807,-74.1953 820.563,-76.8964 830.256,-81.1735 830.807,-74.1953"/>
</g>
<!-- Node22&#45;&gt;Node2 -->
<g id="edge40" class="edge"><title>Node22&#45;&gt;Node2</title>
<path fill="none" stroke="midnightblue" d="M1456.47,-159.089C1448.35,-161.356 1439.71,-163.46 1431.5,-165 1242.79,-200.379 1014.08,-211.129 909.908,-214.267"/>
<polygon fill="midnightblue" stroke="midnightblue" points="909.517,-210.777 899.623,-214.565 909.72,-217.774 909.517,-210.777"/>
</g>
<!-- Node23&#45;&gt;Node2 -->
<g id="edge42" class="edge"><title>Node23&#45;&gt;Node2</title>
<path fill="none" stroke="midnightblue" d="M1571.74,-164.531C1570.99,-164.694 1570.24,-164.85 1569.5,-165 1328.05,-213.71 1031.94,-217.121 909.964,-216.292"/>
<polygon fill="midnightblue" stroke="midnightblue" points="909.776,-212.791 899.748,-216.21 909.719,-219.791 909.776,-212.791"/>
</g>
</g>
</svg>
