<?xml version="1.0" encoding="UTF-8" standalone="no"?>
<!DOCTYPE svg PUBLIC "-//W3C//DTD SVG 1.1//EN"
 "http://www.w3.org/Graphics/SVG/1.1/DTD/svg11.dtd">
<!-- Generated by graphviz version 2.40.1 (20161225.0304)
 -->
<!-- Title: include/core/mir/int_wrapper.h Pages: 1 -->
<svg width="130pt" height="95pt"
 viewBox="0.00 0.00 129.50 95.00" xmlns="http://www.w3.org/2000/svg" xmlns:xlink="http://www.w3.org/1999/xlink">
<g id="graph0" class="graph" transform="scale(1 1) rotate(0) translate(4 91)">
<title>include/core/mir/int_wrapper.h</title>
<polygon fill="#ffffff" stroke="transparent" points="-4,4 -4,-91 125.5,-91 125.5,4 -4,4"/>
<!-- Node0 -->
<g id="node1" class="node">
<title>Node0</title>
<polygon fill="#bfbfbf" stroke="#000000" points="7.5,-56.5 7.5,-86.5 106.5,-86.5 106.5,-56.5 7.5,-56.5"/>
<text text-anchor="start" x="15.5" y="-74.5" font-family="Arial" font-size="10.00" fill="#000000">include/core/mir/int</text>
<text text-anchor="middle" x="57" y="-63.5" font-family="Arial" font-size="10.00" fill="#000000">_wrapper.h</text>
</g>
<!-- Node1 -->
<g id="node2" class="node">
<title>Node1</title>
<polygon fill="#ffffff" stroke="#bfbfbf" points="0,-.5 0,-19.5 44,-19.5 44,-.5 0,-.5"/>
<text text-anchor="middle" x="22" y="-7.5" font-family="Arial" font-size="10.00" fill="#000000">iosfwd</text>
</g>
<!-- Node0&#45;&gt;Node1 -->
<g id="edge1" class="edge">
<title>Node0&#45;&gt;Node1</title>
<path fill="none" stroke="#191970" d="M48.3483,-56.2977C43.5912,-47.9388 37.6502,-37.4997 32.6143,-28.6509"/>
<polygon fill="#191970" stroke="#191970" points="35.5921,-26.8069 27.6039,-19.8469 29.5083,-30.2692 35.5921,-26.8069"/>
</g>
<!-- Node2 -->
<g id="node3" class="node">
<title>Node2</title>
<polygon fill="#ffffff" stroke="#bfbfbf" points="62.5,-.5 62.5,-19.5 121.5,-19.5 121.5,-.5 62.5,-.5"/>
<text text-anchor="middle" x="92" y="-7.5" font-family="Arial" font-size="10.00" fill="#000000">functional</text>
</g>
<!-- Node0&#45;&gt;Node2 -->
<g id="edge2" class="edge">
<title>Node0&#45;&gt;Node2</title>
<path fill="none" stroke="#191970" d="M65.6517,-56.2977C70.4088,-47.9388 76.3498,-37.4997 81.3857,-28.6509"/>
<polygon fill="#191970" stroke="#191970" points="84.4917,-30.2692 86.3961,-19.8469 78.4079,-26.8069 84.4917,-30.2692"/>
</g>
</g>
</svg>
