<?xml version="1.0" encoding="UTF-8" standalone="no"?>
<!DOCTYPE svg PUBLIC "-//W3C//DTD SVG 1.1//EN"
 "http://www.w3.org/Graphics/SVG/1.1/DTD/svg11.dtd">
<!-- Generated by graphviz version 2.40.1 (20161225.0304)
 -->
<!-- Title: include/core/mir/int_wrapper.h Pages: 1 -->
<svg width="952pt" height="441pt"
 viewBox="0.00 0.00 951.50 441.00" xmlns="http://www.w3.org/2000/svg" xmlns:xlink="http://www.w3.org/1999/xlink">
<g id="graph0" class="graph" transform="scale(1 1) rotate(0) translate(4 437)">
<title>include/core/mir/int_wrapper.h</title>
<polygon fill="#ffffff" stroke="transparent" points="-4,4 -4,-437 947.5,-437 947.5,4 -4,4"/>
<!-- Node3 -->
<g id="node1" class="node">
<title>Node3</title>
<polygon fill="#bfbfbf" stroke="#000000" points="54,-402.5 54,-432.5 153,-432.5 153,-402.5 54,-402.5"/>
<text text-anchor="start" x="62" y="-420.5" font-family="Arial" font-size="10.00" fill="#000000">include/core/mir/int</text>
<text text-anchor="middle" x="103.5" y="-409.5" font-family="Arial" font-size="10.00" fill="#000000">_wrapper.h</text>
</g>
<!-- Node4 -->
<g id="node2" class="node">
<title>Node4</title>
<g id="a_node2"><a xlink:href="output_8h.html" target="_top" xlink:title="include/miral/miral\l/output.h">
<polygon fill="#ffffff" stroke="#000000" points="0,-268.5 0,-298.5 95,-298.5 95,-268.5 0,-268.5"/>
<text text-anchor="start" x="8" y="-286.5" font-family="Arial" font-size="10.00" fill="#000000">include/miral/miral</text>
<text text-anchor="middle" x="47.5" y="-275.5" font-family="Arial" font-size="10.00" fill="#000000">/output.h</text>
</a>
</g>
</g>
<!-- Node3&#45;&gt;Node4 -->
<g id="edge1" class="edge">
<title>Node3&#45;&gt;Node4</title>
<path fill="none" stroke="#191970" d="M93.2899,-393.0686C81.8021,-365.58 63.4948,-321.7732 53.8779,-298.7614"/>
<polygon fill="#191970" stroke="#191970" points="90.0996,-394.5119 97.1849,-402.389 96.5583,-391.8127 90.0996,-394.5119"/>
</g>
<!-- Node6 -->
<g id="node4" class="node">
<title>Node6</title>
<g id="a_node4"><a xlink:href="window__specification_8h.html" target="_top" xlink:title="include/miral/miral\l/window_specification.h">
<polygon fill="#ffffff" stroke="#000000" points="94,-335.5 94,-365.5 213,-365.5 213,-335.5 94,-335.5"/>
<text text-anchor="start" x="102" y="-353.5" font-family="Arial" font-size="10.00" fill="#000000">include/miral/miral</text>
<text text-anchor="middle" x="153.5" y="-342.5" font-family="Arial" font-size="10.00" fill="#000000">/window_specification.h</text>
</a>
</g>
</g>
<!-- Node3&#45;&gt;Node6 -->
<g id="edge3" class="edge">
<title>Node3&#45;&gt;Node6</title>
<path fill="none" stroke="#191970" d="M120.9906,-394.0626C128.0287,-384.6315 135.9421,-374.0276 142.1991,-365.6432"/>
<polygon fill="#191970" stroke="#191970" points="118.0216,-392.189 114.8458,-402.2967 123.6317,-396.3756 118.0216,-392.189"/>
</g>
<!-- Node5 -->
<g id="node3" class="node">
<title>Node5</title>
<g id="a_node3"><a xlink:href="tiling__window__manager_8cpp.html" target="_top" xlink:title="examples/example&#45;server\l&#45;lib/tiling_window_manager.cpp">
<polygon fill="#ffffff" stroke="#000000" points="114,-67.5 114,-97.5 265,-97.5 265,-67.5 114,-67.5"/>
<text text-anchor="start" x="122" y="-85.5" font-family="Arial" font-size="10.00" fill="#000000">examples/example&#45;server</text>
<text text-anchor="middle" x="189.5" y="-74.5" font-family="Arial" font-size="10.00" fill="#000000">&#45;lib/tiling_window_manager.cpp</text>
</a>
</g>
</g>
<!-- Node4&#45;&gt;Node5 -->
<g id="edge2" class="edge">
<title>Node4&#45;&gt;Node5</title>
<path fill="none" stroke="#191970" d="M63.9552,-260.2078C93.4055,-218.5211 154.3371,-132.2728 178.8968,-97.5088"/>
<polygon fill="#191970" stroke="#191970" points="61.0845,-258.2054 58.1731,-268.3923 66.8017,-262.2444 61.0845,-258.2054"/>
</g>
<!-- Node7 -->
<g id="node5" class="node">
<title>Node7</title>
<g id="a_node5"><a xlink:href="window__info_8h.html" target="_top" xlink:title="include/miral/miral\l/window_info.h">
<polygon fill="#ffffff" stroke="#000000" points="113,-268.5 113,-298.5 208,-298.5 208,-268.5 113,-268.5"/>
<text text-anchor="start" x="121" y="-286.5" font-family="Arial" font-size="10.00" fill="#000000">include/miral/miral</text>
<text text-anchor="middle" x="160.5" y="-275.5" font-family="Arial" font-size="10.00" fill="#000000">/window_info.h</text>
</a>
</g>
</g>
<!-- Node6&#45;&gt;Node7 -->
<g id="edge4" class="edge">
<title>Node6&#45;&gt;Node7</title>
<path fill="none" stroke="#191970" d="M156.131,-325.3179C157.0688,-316.3414 158.0955,-306.5143 158.9179,-298.6432"/>
<polygon fill="#191970" stroke="#191970" points="152.6466,-324.9871 155.0884,-335.2967 159.6087,-325.7145 152.6466,-324.9871"/>
</g>
<!-- Node7&#45;&gt;Node5 -->
<g id="edge7" class="edge">
<title>Node7&#45;&gt;Node5</title>
<path fill="none" stroke="#191970" d="M163.2039,-258.2078C166.5063,-228.4202 172.5226,-177.4845 179.5,-134 181.4624,-121.7696 184.1621,-107.9993 186.2617,-97.7771"/>
<polygon fill="#191970" stroke="#191970" points="159.7221,-257.8509 162.1132,-268.1724 166.6806,-258.6126 159.7221,-257.8509"/>
</g>
<!-- Node8 -->
<g id="node6" class="node">
<title>Node8</title>
<g id="a_node6"><a xlink:href="kiosk__window__manager_8cpp.html" target="_top" xlink:title="examples/miral&#45;kiosk\l/kiosk_window_manager.cpp">
<polygon fill="#ffffff" stroke="#000000" points="192,-.5 192,-30.5 333,-30.5 333,-.5 192,-.5"/>
<text text-anchor="start" x="200" y="-18.5" font-family="Arial" font-size="10.00" fill="#000000">examples/miral&#45;kiosk</text>
<text text-anchor="middle" x="262.5" y="-7.5" font-family="Arial" font-size="10.00" fill="#000000">/kiosk_window_manager.cpp</text>
</a>
</g>
</g>
<!-- Node7&#45;&gt;Node8 -->
<g id="edge5" class="edge">
<title>Node7&#45;&gt;Node8</title>
<path fill="none" stroke="#191970" d="M142.824,-259.9573C113.2527,-217.47 61.0663,-126.8399 104.5,-67 115.3463,-52.0568 154.8463,-39.1818 191.6347,-30.0426"/>
<polygon fill="#191970" stroke="#191970" points="140.0925,-262.1551 148.7484,-268.2645 145.7916,-258.0906 140.0925,-262.1551"/>
</g>
<!-- Node9 -->
<g id="node7" class="node">
<title>Node9</title>
<g id="a_node7"><a xlink:href="floating__window__manager_8cpp.html" target="_top" xlink:title="examples/example&#45;server\l&#45;lib/floating_window_manager.cpp">
<polygon fill="#ffffff" stroke="#000000" points="781.5,-.5 781.5,-30.5 943.5,-30.5 943.5,-.5 781.5,-.5"/>
<text text-anchor="start" x="789.5" y="-18.5" font-family="Arial" font-size="10.00" fill="#000000">examples/example&#45;server</text>
<text text-anchor="middle" x="862.5" y="-7.5" font-family="Arial" font-size="10.00" fill="#000000">&#45;lib/floating_window_manager.cpp</text>
</a>
</g>
</g>
<!-- Node7&#45;&gt;Node9 -->
<g id="edge6" class="edge">
<title>Node7&#45;&gt;Node9</title>
<path fill="none" stroke="#191970" d="M218.5733,-280.5306C365.8942,-271.9185 749.3617,-242.4336 846.5,-165 881.9214,-136.7639 879.6737,-112.002 874.5,-67 873.074,-54.5962 869.7764,-40.8368 866.9982,-30.6628"/>
<polygon fill="#191970" stroke="#191970" points="218.1647,-277.0482 208.3815,-281.115 218.5655,-284.0367 218.1647,-277.0482"/>
</g>
<!-- Node10 -->
<g id="node8" class="node">
<title>Node10</title>
<g id="a_node8"><a xlink:href="window__manager__tools_8h.html" target="_top" xlink:title="include/miral/miral\l/window_manager_tools.h">
<polygon fill="#ffffff" stroke="#000000" points="307.5,-201.5 307.5,-231.5 435.5,-231.5 435.5,-201.5 307.5,-201.5"/>
<text text-anchor="start" x="315.5" y="-219.5" font-family="Arial" font-size="10.00" fill="#000000">include/miral/miral</text>
<text text-anchor="middle" x="371.5" y="-208.5" font-family="Arial" font-size="10.00" fill="#000000">/window_manager_tools.h</text>
</a>
</g>
</g>
<!-- Node7&#45;&gt;Node10 -->
<g id="edge8" class="edge">
<title>Node7&#45;&gt;Node10</title>
<path fill="none" stroke="#191970" d="M217.4627,-265.4123C250.7897,-254.8298 292.3797,-241.6235 323.941,-231.6017"/>
<polygon fill="#191970" stroke="#191970" points="216.3243,-262.1015 207.8525,-268.4639 218.4428,-268.7732 216.3243,-262.1015"/>
</g>
<!-- Node10&#45;&gt;Node5 -->
<g id="edge17" class="edge">
<title>Node10&#45;&gt;Node5</title>
<path fill="none" stroke="#191970" d="M297.2392,-203.7431C254.933,-194.8483 207.7692,-181.6085 194.5,-165 179.2738,-145.9419 182.065,-115.8146 185.6587,-97.7236"/>
<polygon fill="#191970" stroke="#191970" points="296.8024,-207.226 307.3005,-205.798 298.2032,-200.3676 296.8024,-207.226"/>
</g>
<!-- Node10&#45;&gt;Node8 -->
<g id="edge9" class="edge">
<title>Node10&#45;&gt;Node8</title>
<path fill="none" stroke="#191970" d="M369.552,-190.8799C367.3378,-173.8157 362.607,-151.4145 352.5,-134 340.6592,-113.5981 328.5068,-116.2 313.5,-98 295.6104,-76.3036 279.358,-47.8062 270.2197,-30.6139"/>
<polygon fill="#191970" stroke="#191970" points="366.1154,-191.6532 370.6749,-201.2167 373.0744,-190.8972 366.1154,-191.6532"/>
</g>
<!-- Node10&#45;&gt;Node9 -->
<g id="edge13" class="edge">
<title>Node10&#45;&gt;Node9</title>
<path fill="none" stroke="#191970" d="M445.7869,-212.113C565.6611,-204.4255 791.3504,-187.2039 820.5,-165 862.7496,-132.8177 864.8459,-61.6353 863.5681,-30.5341"/>
<polygon fill="#191970" stroke="#191970" points="445.3408,-208.6342 435.5826,-212.7608 445.7843,-215.6201 445.3408,-208.6342"/>
</g>
<!-- Node11 -->
<g id="node9" class="node">
<title>Node11</title>
<g id="a_node9"><a xlink:href="decoration__provider_8h.html" target="_top" xlink:title="examples/example&#45;server\l&#45;lib/decoration_provider.h">
<polygon fill="#ffffff" stroke="#000000" points="683.5,-134.5 683.5,-164.5 811.5,-164.5 811.5,-134.5 683.5,-134.5"/>
<text text-anchor="start" x="691.5" y="-152.5" font-family="Arial" font-size="10.00" fill="#000000">examples/example&#45;server</text>
<text text-anchor="middle" x="747.5" y="-141.5" font-family="Arial" font-size="10.00" fill="#000000">&#45;lib/decoration_provider.h</text>
</a>
</g>
</g>
<!-- Node10&#45;&gt;Node11 -->
<g id="edge10" class="edge">
<title>Node10&#45;&gt;Node11</title>
<path fill="none" stroke="#191970" d="M445.6848,-203.2809C514.9785,-190.9334 617.3508,-172.6915 683.2409,-160.9504"/>
<polygon fill="#191970" stroke="#191970" points="444.9404,-199.8583 435.7095,-205.0584 446.1684,-206.7498 444.9404,-199.8583"/>
</g>
<!-- Node13 -->
<g id="node11" class="node">
<title>Node13</title>
<g id="a_node11"><a xlink:href="tiling__window__manager_8h.html" target="_top" xlink:title="examples/example&#45;server\l&#45;lib/tiling_window_manager.h">
<polygon fill="#ffffff" stroke="#000000" points="203.5,-134.5 203.5,-164.5 343.5,-164.5 343.5,-134.5 203.5,-134.5"/>
<text text-anchor="start" x="211.5" y="-152.5" font-family="Arial" font-size="10.00" fill="#000000">examples/example&#45;server</text>
<text text-anchor="middle" x="273.5" y="-141.5" font-family="Arial" font-size="10.00" fill="#000000">&#45;lib/tiling_window_manager.h</text>
</a>
</g>
</g>
<!-- Node10&#45;&gt;Node13 -->
<g id="edge14" class="edge">
<title>Node10&#45;&gt;Node13</title>
<path fill="none" stroke="#191970" d="M340.9717,-195.6286C326.2999,-185.5979 309.0398,-173.7976 295.6497,-164.6432"/>
<polygon fill="#191970" stroke="#191970" points="339.0318,-198.5421 349.2623,-201.2967 342.9825,-192.7635 339.0318,-198.5421"/>
</g>
<!-- Node15 -->
<g id="node13" class="node">
<title>Node15</title>
<g id="a_node13"><a xlink:href="canonical__window__manager_8h.html" target="_top" xlink:title="include/miral/miral\l/canonical_window_manager.h">
<polygon fill="#ffffff" stroke="#000000" points="399,-134.5 399,-164.5 548,-164.5 548,-134.5 399,-134.5"/>
<text text-anchor="start" x="407" y="-152.5" font-family="Arial" font-size="10.00" fill="#000000">include/miral/miral</text>
<text text-anchor="middle" x="473.5" y="-141.5" font-family="Arial" font-size="10.00" fill="#000000">/canonical_window_manager.h</text>
</a>
</g>
</g>
<!-- Node10&#45;&gt;Node15 -->
<g id="edge18" class="edge">
<title>Node10&#45;&gt;Node15</title>
<path fill="none" stroke="#191970" d="M403.0209,-195.7951C418.3045,-185.7558 436.3348,-173.9124 450.3327,-164.7177"/>
<polygon fill="#191970" stroke="#191970" points="400.8274,-193.0484 394.3908,-201.4639 404.6705,-198.8991 400.8274,-193.0484"/>
</g>
<!-- Node11&#45;&gt;Node9 -->
<g id="edge12" class="edge">
<title>Node11&#45;&gt;Node9</title>
<path fill="none" stroke="#191970" d="M786.4448,-129.2867C799.7746,-120.9567 813.9663,-110.3432 824.5,-98 841.7999,-77.7284 852.8192,-48.2676 858.3108,-30.5848"/>
<polygon fill="#191970" stroke="#191970" points="784.6403,-126.2876 777.8567,-134.4261 788.2349,-132.2942 784.6403,-126.2876"/>
</g>
<!-- Node12 -->
<g id="node10" class="node">
<title>Node12</title>
<g id="a_node10"><a xlink:href="decoration__provider_8cpp.html" target="_top" xlink:title="examples/example&#45;server\l&#45;lib/decoration_provider.cpp">
<polygon fill="#ffffff" stroke="#000000" points="679.5,-67.5 679.5,-97.5 815.5,-97.5 815.5,-67.5 679.5,-67.5"/>
<text text-anchor="start" x="687.5" y="-85.5" font-family="Arial" font-size="10.00" fill="#000000">examples/example&#45;server</text>
<text text-anchor="middle" x="747.5" y="-74.5" font-family="Arial" font-size="10.00" fill="#000000">&#45;lib/decoration_provider.cpp</text>
</a>
</g>
</g>
<!-- Node11&#45;&gt;Node12 -->
<g id="edge11" class="edge">
<title>Node11&#45;&gt;Node12</title>
<path fill="none" stroke="#191970" d="M747.5,-124.0249C747.5,-115.128 747.5,-105.4287 747.5,-97.6432"/>
<polygon fill="#191970" stroke="#191970" points="744.0001,-124.2966 747.5,-134.2967 751.0001,-124.2967 744.0001,-124.2966"/>
</g>
<!-- Node13&#45;&gt;Node5 -->
<g id="edge16" class="edge">
<title>Node13&#45;&gt;Node5</title>
<path fill="none" stroke="#191970" d="M246.27,-127.7808C233.9301,-117.9383 219.6409,-106.541 208.4855,-97.6432"/>
<polygon fill="#191970" stroke="#191970" points="244.4388,-130.7973 254.4391,-134.2967 248.8038,-125.3248 244.4388,-130.7973"/>
</g>
<!-- Node14 -->
<g id="node12" class="node">
<title>Node14</title>
<g id="a_node12"><a xlink:href="shell__main_8cpp.html" target="_top" xlink:title="examples/miral&#45;shell\l/shell_main.cpp">
<polygon fill="#ffffff" stroke="#000000" points="496.5,-.5 496.5,-30.5 602.5,-30.5 602.5,-.5 496.5,-.5"/>
<text text-anchor="start" x="504.5" y="-18.5" font-family="Arial" font-size="10.00" fill="#000000">examples/miral&#45;shell</text>
<text text-anchor="middle" x="549.5" y="-7.5" font-family="Arial" font-size="10.00" fill="#000000">/shell_main.cpp</text>
</a>
</g>
</g>
<!-- Node13&#45;&gt;Node14 -->
<g id="edge15" class="edge">
<title>Node13&#45;&gt;Node14</title>
<path fill="none" stroke="#191970" d="M353.7377,-136.7588C388.6861,-128.9556 429.1829,-116.7432 462.5,-98 478.8275,-88.8146 515.2059,-51.7595 535.3666,-30.5675"/>
<polygon fill="#191970" stroke="#191970" points="352.6054,-133.422 343.5626,-138.9427 354.0745,-140.2661 352.6054,-133.422"/>
</g>
<!-- Node16 -->
<g id="node14" class="node">
<title>Node16</title>
<g id="a_node14"><a xlink:href="kiosk__window__manager_8h.html" target="_top" xlink:title="examples/miral&#45;kiosk\l/kiosk_window_manager.h">
<polygon fill="#ffffff" stroke="#000000" points="322,-67.5 322,-97.5 453,-97.5 453,-67.5 322,-67.5"/>
<text text-anchor="start" x="330" y="-85.5" font-family="Arial" font-size="10.00" fill="#000000">examples/miral&#45;kiosk</text>
<text text-anchor="middle" x="387.5" y="-74.5" font-family="Arial" font-size="10.00" fill="#000000">/kiosk_window_manager.h</text>
</a>
</g>
</g>
<!-- Node15&#45;&gt;Node16 -->
<g id="edge19" class="edge">
<title>Node15&#45;&gt;Node16</title>
<path fill="none" stroke="#191970" d="M445.9855,-128.0643C433.2696,-118.1577 418.4684,-106.6265 406.9375,-97.6432"/>
<polygon fill="#191970" stroke="#191970" points="443.9456,-130.9119 453.9853,-134.2967 448.2477,-125.3899 443.9456,-130.9119"/>
</g>
<!-- Node18 -->
<g id="node16" class="node">
<title>Node18</title>
<g id="a_node16"><a xlink:href="floating__window__manager_8h.html" target="_top" xlink:title="examples/example&#45;server\l&#45;lib/floating_window_manager.h">
<polygon fill="#ffffff" stroke="#000000" points="509.5,-67.5 509.5,-97.5 661.5,-97.5 661.5,-67.5 509.5,-67.5"/>
<text text-anchor="start" x="517.5" y="-85.5" font-family="Arial" font-size="10.00" fill="#000000">examples/example&#45;server</text>
<text text-anchor="middle" x="585.5" y="-74.5" font-family="Arial" font-size="10.00" fill="#000000">&#45;lib/floating_window_manager.h</text>
</a>
</g>
</g>
<!-- Node15&#45;&gt;Node18 -->
<g id="edge22" class="edge">
<title>Node15&#45;&gt;Node18</title>
<path fill="none" stroke="#191970" d="M507.6415,-129.0761C524.5228,-118.9774 544.5475,-106.9983 560.0614,-97.7177"/>
<polygon fill="#191970" stroke="#191970" points="505.4199,-126.3266 498.635,-134.4639 509.0135,-132.3338 505.4199,-126.3266"/>
</g>
<!-- Node16&#45;&gt;Node8 -->
<g id="edge21" class="edge">
<title>Node16&#45;&gt;Node8</title>
<path fill="none" stroke="#191970" d="M350.4387,-62.6352C331.3844,-52.422 308.5265,-40.1702 290.8913,-30.7177"/>
<polygon fill="#191970" stroke="#191970" points="348.9803,-65.8245 359.4476,-67.4639 352.2873,-59.6549 348.9803,-65.8245"/>
</g>
<!-- Node17 -->
<g id="node15" class="node">
<title>Node17</title>
<g id="a_node15"><a xlink:href="kiosk__main_8cpp.html" target="_top" xlink:title="examples/miral&#45;kiosk\l/kiosk_main.cpp">
<polygon fill="#ffffff" stroke="#000000" points="351,-.5 351,-30.5 460,-30.5 460,-.5 351,-.5"/>
<text text-anchor="start" x="359" y="-18.5" font-family="Arial" font-size="10.00" fill="#000000">examples/miral&#45;kiosk</text>
<text text-anchor="middle" x="405.5" y="-7.5" font-family="Arial" font-size="10.00" fill="#000000">/kiosk_main.cpp</text>
</a>
</g>
</g>
<!-- Node16&#45;&gt;Node17 -->
<g id="edge20" class="edge">
<title>Node16&#45;&gt;Node17</title>
<path fill="none" stroke="#191970" d="M394.1868,-57.6103C396.6195,-48.5553 399.2941,-38.5998 401.4317,-30.6432"/>
<polygon fill="#191970" stroke="#191970" points="390.799,-56.731 391.5845,-67.2967 397.5593,-58.5472 390.799,-56.731"/>
</g>
<!-- Node18&#45;&gt;Node9 -->
<g id="edge24" class="edge">
<title>Node18&#45;&gt;Node9</title>
<path fill="none" stroke="#191970" d="M657.4791,-65.0899C701.6826,-54.3981 757.7421,-40.8386 800.0647,-30.6017"/>
<polygon fill="#191970" stroke="#191970" points="656.5611,-61.7109 647.6642,-67.4639 658.2068,-68.5147 656.5611,-61.7109"/>
</g>
<!-- Node18&#45;&gt;Node14 -->
<g id="edge23" class="edge">
<title>Node18&#45;&gt;Node14</title>
<path fill="none" stroke="#191970" d="M572.5957,-58.4837C567.6073,-49.1996 562.0498,-38.8565 557.6366,-30.6432"/>
<polygon fill="#191970" stroke="#191970" points="569.5147,-60.1443 577.331,-67.2967 575.681,-56.8311 569.5147,-60.1443"/>
</g>
</g>
</svg>
