<?xml version="1.0" encoding="UTF-8" standalone="no"?>
<!DOCTYPE svg PUBLIC "-//W3C//DTD SVG 1.1//EN"
 "http://www.w3.org/Graphics/SVG/1.1/DTD/svg11.dtd">
<!-- Generated by graphviz version 2.43.0 (0)
 -->
<!-- Title: include/core/mir/int_wrapper.h Pages: 1 -->
<svg width="1122pt" height="452pt"
 viewBox="0.00 0.00 1122.00 452.00" xmlns="http://www.w3.org/2000/svg" xmlns:xlink="http://www.w3.org/1999/xlink">
<g id="graph0" class="graph" transform="scale(1 1) rotate(0) translate(4 448)">
<title>include/core/mir/int_wrapper.h</title>
<polygon fill="white" stroke="transparent" points="-4,4 -4,-448 1118,-448 1118,4 -4,4"/>
<!-- Node1 -->
<g id="node1" class="node">
<title>Node1</title>
<g id="a_node1"><a xlink:title=" ">
<polygon fill="#bfbfbf" stroke="black" points="205,-413.5 205,-443.5 316,-443.5 316,-413.5 205,-413.5"/>
<text text-anchor="start" x="213" y="-431.5" font-family="Arial" font-size="10.00">include/core/mir/int</text>
<text text-anchor="middle" x="260.5" y="-420.5" font-family="Arial" font-size="10.00">_wrapper.h</text>
</a>
</g>
</g>
<!-- Node2 -->
<g id="node2" class="node">
<title>Node2</title>
<g id="a_node2"><a xlink:href="window__specification_8h.html" target="_top" xlink:title=" ">
<polygon fill="white" stroke="black" points="125,-346.5 125,-376.5 258,-376.5 258,-346.5 125,-346.5"/>
<text text-anchor="start" x="133" y="-364.5" font-family="Arial" font-size="10.00">include/miral/miral</text>
<text text-anchor="middle" x="191.5" y="-353.5" font-family="Arial" font-size="10.00">/window_specification.h</text>
</a>
</g>
</g>
<!-- Node1&#45;&gt;Node2 -->
<g id="edge1" class="edge">
<title>Node1&#45;&gt;Node2</title>
<path fill="none" stroke="midnightblue" d="M238.01,-406.31C227.66,-396.56 215.66,-385.26 206.44,-376.58"/>
<polygon fill="midnightblue" stroke="midnightblue" points="235.85,-409.09 245.53,-413.4 240.65,-403.99 235.85,-409.09"/>
</g>
<!-- Node17 -->
<g id="node17" class="node">
<title>Node17</title>
<g id="a_node17"><a xlink:href="zone_8h.html" target="_top" xlink:title=" ">
<polygon fill="white" stroke="black" points="0,-134.5 0,-164.5 109,-164.5 109,-134.5 0,-134.5"/>
<text text-anchor="start" x="8" y="-152.5" font-family="Arial" font-size="10.00">include/miral/miral</text>
<text text-anchor="middle" x="54.5" y="-141.5" font-family="Arial" font-size="10.00">/zone.h</text>
</a>
</g>
</g>
<!-- Node1&#45;&gt;Node17 -->
<g id="edge24" class="edge">
<title>Node1&#45;&gt;Node17</title>
<path fill="none" stroke="midnightblue" d="M194.97,-418.59C167,-411.61 136.13,-399.17 115.5,-377 57.66,-314.84 53.57,-203.69 54.05,-164.58"/>
<polygon fill="midnightblue" stroke="midnightblue" points="194.19,-422 204.72,-420.83 195.76,-415.18 194.19,-422"/>
</g>
<!-- Node18 -->
<g id="node18" class="node">
<title>Node18</title>
<g id="a_node18"><a xlink:href="output_8h.html" target="_top" xlink:title=" ">
<polygon fill="white" stroke="black" points="276,-346.5 276,-376.5 385,-376.5 385,-346.5 276,-346.5"/>
<text text-anchor="start" x="284" y="-364.5" font-family="Arial" font-size="10.00">include/miral/miral</text>
<text text-anchor="middle" x="330.5" y="-353.5" font-family="Arial" font-size="10.00">/output.h</text>
</a>
</g>
</g>
<!-- Node1&#45;&gt;Node18 -->
<g id="edge27" class="edge">
<title>Node1&#45;&gt;Node18</title>
<path fill="none" stroke="midnightblue" d="M283.32,-406.31C293.82,-396.56 305.99,-385.26 315.34,-376.58"/>
<polygon fill="midnightblue" stroke="midnightblue" points="280.64,-404.03 275.69,-413.4 285.4,-409.16 280.64,-404.03"/>
</g>
<!-- Node19 -->
<g id="node19" class="node">
<title>Node19</title>
<g id="a_node19"><a xlink:href="display__id_8h.html" target="_top" xlink:title=" ">
<polygon fill="white" stroke="black" points="403,-346.5 403,-376.5 518,-376.5 518,-346.5 403,-346.5"/>
<text text-anchor="start" x="411" y="-364.5" font-family="Arial" font-size="10.00">include/miroil/miroil</text>
<text text-anchor="middle" x="460.5" y="-353.5" font-family="Arial" font-size="10.00">/display_id.h</text>
</a>
</g>
</g>
<!-- Node1&#45;&gt;Node19 -->
<g id="edge28" class="edge">
<title>Node1&#45;&gt;Node19</title>
<path fill="none" stroke="midnightblue" d="M313.65,-410.23C346,-399.71 386.81,-386.45 417.19,-376.58"/>
<polygon fill="midnightblue" stroke="midnightblue" points="312.33,-406.98 303.9,-413.4 314.49,-413.63 312.33,-406.98"/>
</g>
<!-- Node3 -->
<g id="node3" class="node">
<title>Node3</title>
<g id="a_node3"><a xlink:href="window__info_8h.html" target="_top" xlink:title=" ">
<polygon fill="white" stroke="black" points="144,-274 144,-304 253,-304 253,-274 144,-274"/>
<text text-anchor="start" x="152" y="-292" font-family="Arial" font-size="10.00">include/miral/miral</text>
<text text-anchor="middle" x="198.5" y="-281" font-family="Arial" font-size="10.00">/window_info.h</text>
</a>
</g>
</g>
<!-- Node2&#45;&gt;Node3 -->
<g id="edge2" class="edge">
<title>Node2&#45;&gt;Node3</title>
<path fill="none" stroke="midnightblue" d="M193.91,-336.23C194.97,-325.57 196.18,-313.41 197.09,-304.25"/>
<polygon fill="midnightblue" stroke="midnightblue" points="190.42,-335.94 192.92,-346.23 197.39,-336.63 190.42,-335.94"/>
</g>
<!-- Node4 -->
<g id="node4" class="node">
<title>Node4</title>
<g id="a_node4"><a xlink:href="kiosk__window__manager_8cpp.html" target="_top" xlink:title=" ">
<polygon fill="white" stroke="black" points="957,-0.5 957,-30.5 1114,-30.5 1114,-0.5 957,-0.5"/>
<text text-anchor="start" x="965" y="-18.5" font-family="Arial" font-size="10.00">examples/miral&#45;kiosk</text>
<text text-anchor="middle" x="1035.5" y="-7.5" font-family="Arial" font-size="10.00">/kiosk_window_manager.cpp</text>
</a>
</g>
</g>
<!-- Node3&#45;&gt;Node4 -->
<g id="edge3" class="edge">
<title>Node3&#45;&gt;Node4</title>
<path fill="none" stroke="midnightblue" d="M263.36,-281.27C377.12,-269.36 608.14,-244.63 688.5,-232 838.07,-208.49 912.05,-268.55 1022.5,-165 1059.88,-129.95 1047.22,-60.29 1039.56,-30.52"/>
<polygon fill="midnightblue" stroke="midnightblue" points="262.97,-277.8 253.39,-282.32 263.7,-284.76 262.97,-277.8"/>
</g>
<!-- Node5 -->
<g id="node5" class="node">
<title>Node5</title>
<g id="a_node5"><a xlink:href="window__manager__tools_8h.html" target="_top" xlink:title=" ">
<polygon fill="white" stroke="black" points="535.5,-201.5 535.5,-231.5 679.5,-231.5 679.5,-201.5 535.5,-201.5"/>
<text text-anchor="start" x="543.5" y="-219.5" font-family="Arial" font-size="10.00">include/miral/miral</text>
<text text-anchor="middle" x="607.5" y="-208.5" font-family="Arial" font-size="10.00">/window_manager_tools.h</text>
</a>
</g>
</g>
<!-- Node3&#45;&gt;Node5 -->
<g id="edge4" class="edge">
<title>Node3&#45;&gt;Node5</title>
<path fill="none" stroke="midnightblue" d="M263.36,-276.82C337.4,-264.06 458.17,-243.24 535.18,-229.97"/>
<polygon fill="midnightblue" stroke="midnightblue" points="262.5,-273.42 253.24,-278.57 263.68,-280.32 262.5,-273.42"/>
</g>
<!-- Node11 -->
<g id="node11" class="node">
<title>Node11</title>
<g id="a_node11"><a xlink:href="tiling__window__manager_8cpp.html" target="_top" xlink:title=" ">
<polygon fill="white" stroke="black" points="159,-67.5 159,-97.5 330,-97.5 330,-67.5 159,-67.5"/>
<text text-anchor="start" x="167" y="-85.5" font-family="Arial" font-size="10.00">examples/example&#45;server</text>
<text text-anchor="middle" x="244.5" y="-74.5" font-family="Arial" font-size="10.00">&#45;lib/tiling_window_manager.cpp</text>
</a>
</g>
</g>
<!-- Node3&#45;&gt;Node11 -->
<g id="edge23" class="edge">
<title>Node3&#45;&gt;Node11</title>
<path fill="none" stroke="midnightblue" d="M203.88,-264.08C213.54,-221.12 233.55,-132.2 241.32,-97.65"/>
<polygon fill="midnightblue" stroke="midnightblue" points="200.44,-263.42 201.66,-273.94 207.27,-264.96 200.44,-263.42"/>
</g>
<!-- Node14 -->
<g id="node14" class="node">
<title>Node14</title>
<g id="a_node14"><a xlink:href="floating__window__manager_8cpp.html" target="_top" xlink:title=" ">
<polygon fill="white" stroke="black" points="437,-0.5 437,-30.5 620,-30.5 620,-0.5 437,-0.5"/>
<text text-anchor="start" x="445" y="-18.5" font-family="Arial" font-size="10.00">examples/example&#45;server</text>
<text text-anchor="middle" x="528.5" y="-7.5" font-family="Arial" font-size="10.00">&#45;lib/floating_window_manager.cpp</text>
</a>
</g>
</g>
<!-- Node3&#45;&gt;Node14 -->
<g id="edge22" class="edge">
<title>Node3&#45;&gt;Node14</title>
<path fill="none" stroke="midnightblue" d="M182.29,-265.28C153.11,-221.37 99.24,-124.19 149.5,-67 190.62,-20.21 365.78,-39.43 427.5,-31 430.57,-30.58 433.7,-30.15 436.85,-29.71"/>
<polygon fill="midnightblue" stroke="midnightblue" points="179.57,-267.51 188.09,-273.8 185.36,-263.57 179.57,-267.51"/>
</g>
<!-- Node5&#45;&gt;Node4 -->
<g id="edge5" class="edge">
<title>Node5&#45;&gt;Node4</title>
<path fill="none" stroke="midnightblue" d="M689.86,-215.36C790.61,-213.45 953.26,-204.15 997.5,-165 1036.96,-130.08 1038.11,-60.34 1036.61,-30.54"/>
<polygon fill="midnightblue" stroke="midnightblue" points="689.64,-211.87 679.71,-215.53 689.76,-218.86 689.64,-211.87"/>
</g>
<!-- Node6 -->
<g id="node6" class="node">
<title>Node6</title>
<g id="a_node6"><a xlink:href="canonical__window__manager_8h.html" target="_top" xlink:title=" ">
<polygon fill="white" stroke="black" points="822.5,-134.5 822.5,-164.5 988.5,-164.5 988.5,-134.5 822.5,-134.5"/>
<text text-anchor="start" x="830.5" y="-152.5" font-family="Arial" font-size="10.00">include/miral/miral</text>
<text text-anchor="middle" x="905.5" y="-141.5" font-family="Arial" font-size="10.00">/canonical_window_manager.h</text>
</a>
</g>
</g>
<!-- Node5&#45;&gt;Node6 -->
<g id="edge6" class="edge">
<title>Node5&#45;&gt;Node6</title>
<path fill="none" stroke="midnightblue" d="M681.7,-199.32C730.68,-188.63 794.21,-174.77 841.06,-164.55"/>
<polygon fill="midnightblue" stroke="midnightblue" points="680.82,-195.93 671.79,-201.48 682.31,-202.76 680.82,-195.93"/>
</g>
<!-- Node9 -->
<g id="node9" class="node">
<title>Node9</title>
<g id="a_node9"><a xlink:href="tiling__window__manager_8h.html" target="_top" xlink:title=" ">
<polygon fill="white" stroke="black" points="264.5,-134.5 264.5,-164.5 424.5,-164.5 424.5,-134.5 264.5,-134.5"/>
<text text-anchor="start" x="272.5" y="-152.5" font-family="Arial" font-size="10.00">examples/example&#45;server</text>
<text text-anchor="middle" x="344.5" y="-141.5" font-family="Arial" font-size="10.00">&#45;lib/tiling_window_manager.h</text>
</a>
</g>
</g>
<!-- Node5&#45;&gt;Node9 -->
<g id="edge10" class="edge">
<title>Node5&#45;&gt;Node9</title>
<path fill="none" stroke="midnightblue" d="M540.95,-199.05C497.95,-188.43 442.58,-174.74 401.59,-164.61"/>
<polygon fill="midnightblue" stroke="midnightblue" points="540.21,-202.47 550.76,-201.48 541.89,-195.68 540.21,-202.47"/>
</g>
<!-- Node5&#45;&gt;Node11 -->
<g id="edge21" class="edge">
<title>Node5&#45;&gt;Node11</title>
<path fill="none" stroke="midnightblue" d="M524.97,-214.77C432.93,-212.12 292.11,-201.92 255.5,-165 238.01,-147.36 239.21,-116.05 241.78,-97.8"/>
<polygon fill="midnightblue" stroke="midnightblue" points="525.02,-218.28 535.11,-215.04 525.21,-211.28 525.02,-218.28"/>
</g>
<!-- Node12 -->
<g id="node12" class="node">
<title>Node12</title>
<g id="a_node12"><a xlink:href="decoration__provider_8h.html" target="_top" xlink:title=" ">
<polygon fill="white" stroke="black" points="621,-134.5 621,-164.5 766,-164.5 766,-134.5 621,-134.5"/>
<text text-anchor="start" x="629" y="-152.5" font-family="Arial" font-size="10.00">examples/example&#45;server</text>
<text text-anchor="middle" x="693.5" y="-141.5" font-family="Arial" font-size="10.00">&#45;lib/decoration_provider.h</text>
</a>
</g>
</g>
<!-- Node5&#45;&gt;Node12 -->
<g id="edge13" class="edge">
<title>Node5&#45;&gt;Node12</title>
<path fill="none" stroke="midnightblue" d="M634.4,-195.17C647.55,-185.23 663.05,-173.51 674.88,-164.58"/>
<polygon fill="midnightblue" stroke="midnightblue" points="632.03,-192.57 626.16,-201.4 636.25,-198.16 632.03,-192.57"/>
</g>
<!-- Node5&#45;&gt;Node14 -->
<g id="edge16" class="edge">
<title>Node5&#45;&gt;Node14</title>
<path fill="none" stroke="midnightblue" d="M689.5,-211.21C721.61,-205.01 755.49,-191.91 775.5,-165 783.72,-153.94 777.68,-147.6 775.5,-134 770.55,-103.05 776.71,-88.07 753.5,-67 733.71,-49.04 673.38,-36.08 620.16,-27.78"/>
<polygon fill="midnightblue" stroke="midnightblue" points="688.87,-207.77 679.61,-212.92 690.06,-214.66 688.87,-207.77"/>
</g>
<!-- Node15 -->
<g id="node15" class="node">
<title>Node15</title>
<g id="a_node15"><a xlink:href="minimal__window__manager_8h.html" target="_top" xlink:title=" ">
<polygon fill="white" stroke="black" points="442.5,-134.5 442.5,-164.5 602.5,-164.5 602.5,-134.5 442.5,-134.5"/>
<text text-anchor="start" x="450.5" y="-152.5" font-family="Arial" font-size="10.00">include/miral/miral</text>
<text text-anchor="middle" x="522.5" y="-141.5" font-family="Arial" font-size="10.00">/minimal_window_manager.h</text>
</a>
</g>
</g>
<!-- Node5&#45;&gt;Node15 -->
<g id="edge17" class="edge">
<title>Node5&#45;&gt;Node15</title>
<path fill="none" stroke="midnightblue" d="M580.91,-195.17C567.91,-185.23 552.6,-173.51 540.91,-164.58"/>
<polygon fill="midnightblue" stroke="midnightblue" points="578.99,-198.1 589.06,-201.4 583.24,-192.54 578.99,-198.1"/>
</g>
<!-- Node7 -->
<g id="node7" class="node">
<title>Node7</title>
<g id="a_node7"><a xlink:href="kiosk__window__manager_8h.html" target="_top" xlink:title=" ">
<polygon fill="white" stroke="black" points="832.5,-67.5 832.5,-97.5 978.5,-97.5 978.5,-67.5 832.5,-67.5"/>
<text text-anchor="start" x="840.5" y="-85.5" font-family="Arial" font-size="10.00">examples/miral&#45;kiosk</text>
<text text-anchor="middle" x="905.5" y="-74.5" font-family="Arial" font-size="10.00">/kiosk_window_manager.h</text>
</a>
</g>
</g>
<!-- Node6&#45;&gt;Node7 -->
<g id="edge7" class="edge">
<title>Node6&#45;&gt;Node7</title>
<path fill="none" stroke="midnightblue" d="M905.5,-124.11C905.5,-115.15 905.5,-105.32 905.5,-97.58"/>
<polygon fill="midnightblue" stroke="midnightblue" points="902,-124.4 905.5,-134.4 909,-124.4 902,-124.4"/>
</g>
<!-- Node7&#45;&gt;Node4 -->
<g id="edge9" class="edge">
<title>Node7&#45;&gt;Node4</title>
<path fill="none" stroke="midnightblue" d="M942.79,-62.85C963.35,-52.58 988.45,-40.03 1007.35,-30.58"/>
<polygon fill="midnightblue" stroke="midnightblue" points="941.09,-59.79 933.71,-67.4 944.22,-66.05 941.09,-59.79"/>
</g>
<!-- Node8 -->
<g id="node8" class="node">
<title>Node8</title>
<g id="a_node8"><a xlink:href="kiosk__main_8cpp.html" target="_top" xlink:title=" ">
<polygon fill="white" stroke="black" points="816,-0.5 816,-30.5 939,-30.5 939,-0.5 816,-0.5"/>
<text text-anchor="start" x="824" y="-18.5" font-family="Arial" font-size="10.00">examples/miral&#45;kiosk</text>
<text text-anchor="middle" x="877.5" y="-7.5" font-family="Arial" font-size="10.00">/kiosk_main.cpp</text>
</a>
</g>
</g>
<!-- Node7&#45;&gt;Node8 -->
<g id="edge8" class="edge">
<title>Node7&#45;&gt;Node8</title>
<path fill="none" stroke="midnightblue" d="M895.37,-57.99C891.42,-48.8 887.01,-38.58 883.56,-30.58"/>
<polygon fill="midnightblue" stroke="midnightblue" points="892.25,-59.6 899.42,-67.4 898.68,-56.83 892.25,-59.6"/>
</g>
<!-- Node10 -->
<g id="node10" class="node">
<title>Node10</title>
<g id="a_node10"><a xlink:href="shell__main_8cpp.html" target="_top" xlink:title=" ">
<polygon fill="white" stroke="black" points="298.5,-0.5 298.5,-30.5 418.5,-30.5 418.5,-0.5 298.5,-0.5"/>
<text text-anchor="start" x="306.5" y="-18.5" font-family="Arial" font-size="10.00">examples/miral&#45;shell</text>
<text text-anchor="middle" x="358.5" y="-7.5" font-family="Arial" font-size="10.00">/shell_main.cpp</text>
</a>
</g>
</g>
<!-- Node9&#45;&gt;Node10 -->
<g id="edge11" class="edge">
<title>Node9&#45;&gt;Node10</title>
<path fill="none" stroke="midnightblue" d="M347.06,-124.39C349.97,-96.9 354.64,-52.89 357.01,-30.52"/>
<polygon fill="midnightblue" stroke="midnightblue" points="343.57,-124.06 346,-134.37 350.53,-124.8 343.57,-124.06"/>
</g>
<!-- Node9&#45;&gt;Node11 -->
<g id="edge12" class="edge">
<title>Node9&#45;&gt;Node11</title>
<path fill="none" stroke="midnightblue" d="M314.09,-128.73C298.62,-118.68 280.17,-106.68 266.16,-97.58"/>
<polygon fill="midnightblue" stroke="midnightblue" points="312.51,-131.88 322.8,-134.4 316.32,-126.01 312.51,-131.88"/>
</g>
<!-- Node13 -->
<g id="node13" class="node">
<title>Node13</title>
<g id="a_node13"><a xlink:href="decoration__provider_8cpp.html" target="_top" xlink:title=" ">
<polygon fill="white" stroke="black" points="576.5,-67.5 576.5,-97.5 728.5,-97.5 728.5,-67.5 576.5,-67.5"/>
<text text-anchor="start" x="584.5" y="-85.5" font-family="Arial" font-size="10.00">examples/example&#45;server</text>
<text text-anchor="middle" x="652.5" y="-74.5" font-family="Arial" font-size="10.00">&#45;lib/decoration_provider.cpp</text>
</a>
</g>
</g>
<!-- Node12&#45;&gt;Node13 -->
<g id="edge14" class="edge">
<title>Node12&#45;&gt;Node13</title>
<path fill="none" stroke="midnightblue" d="M679.22,-125.87C673.29,-116.46 666.59,-105.83 661.38,-97.58"/>
<polygon fill="midnightblue" stroke="midnightblue" points="676.31,-127.81 684.6,-134.4 682.23,-124.07 676.31,-127.81"/>
</g>
<!-- Node12&#45;&gt;Node14 -->
<g id="edge15" class="edge">
<title>Node12&#45;&gt;Node14</title>
<path fill="none" stroke="midnightblue" d="M718.44,-127.01C735.35,-109.83 752.16,-85.63 737.5,-67 722.55,-48.01 669.24,-35.31 620.21,-27.39"/>
<polygon fill="midnightblue" stroke="midnightblue" points="715.57,-124.91 710.78,-134.36 720.42,-129.96 715.57,-124.91"/>
</g>
<!-- Node16 -->
<g id="node16" class="node">
<title>Node16</title>
<g id="a_node16"><a xlink:href="floating__window__manager_8h.html" target="_top" xlink:title=" ">
<polygon fill="white" stroke="black" points="386.5,-67.5 386.5,-97.5 558.5,-97.5 558.5,-67.5 386.5,-67.5"/>
<text text-anchor="start" x="394.5" y="-85.5" font-family="Arial" font-size="10.00">examples/example&#45;server</text>
<text text-anchor="middle" x="472.5" y="-74.5" font-family="Arial" font-size="10.00">&#45;lib/floating_window_manager.h</text>
</a>
</g>
</g>
<!-- Node15&#45;&gt;Node16 -->
<g id="edge18" class="edge">
<title>Node15&#45;&gt;Node16</title>
<path fill="none" stroke="midnightblue" d="M505.54,-126.45C498.19,-116.9 489.81,-106 483.33,-97.58"/>
<polygon fill="midnightblue" stroke="midnightblue" points="502.78,-128.6 511.65,-134.4 508.33,-124.34 502.78,-128.6"/>
</g>
<!-- Node16&#45;&gt;Node10 -->
<g id="edge19" class="edge">
<title>Node16&#45;&gt;Node10</title>
<path fill="none" stroke="midnightblue" d="M438.82,-62.3C420.98,-52.12 399.46,-39.85 383.19,-30.58"/>
<polygon fill="midnightblue" stroke="midnightblue" points="437.34,-65.48 447.76,-67.4 440.81,-59.4 437.34,-65.48"/>
</g>
<!-- Node16&#45;&gt;Node14 -->
<g id="edge20" class="edge">
<title>Node16&#45;&gt;Node14</title>
<path fill="none" stroke="midnightblue" d="M491.25,-59.74C499.54,-50.12 509.04,-39.09 516.37,-30.58"/>
<polygon fill="midnightblue" stroke="midnightblue" points="488.53,-57.54 484.65,-67.4 493.83,-62.1 488.53,-57.54"/>
</g>
<!-- Node17&#45;&gt;Node11 -->
<g id="edge26" class="edge">
<title>Node17&#45;&gt;Node11</title>
<path fill="none" stroke="midnightblue" d="M105.39,-131.09C136.06,-120.6 174.61,-107.41 203.35,-97.58"/>
<polygon fill="midnightblue" stroke="midnightblue" points="104.06,-127.85 95.73,-134.4 106.32,-134.47 104.06,-127.85"/>
</g>
<!-- Node17&#45;&gt;Node14 -->
<g id="edge25" class="edge">
<title>Node17&#45;&gt;Node14</title>
<path fill="none" stroke="midnightblue" d="M65.38,-125.48C75.7,-106.4 93.11,-80.33 116.5,-67 176.95,-32.56 358.5,-39.94 427.5,-31 430.57,-30.6 433.7,-30.19 436.86,-29.77"/>
<polygon fill="midnightblue" stroke="midnightblue" points="62.22,-123.96 60.76,-134.46 68.45,-127.17 62.22,-123.96"/>
</g>
<!-- Node20 -->
<g id="node20" class="node">
<title>Node20</title>
<g id="a_node20"><a xlink:href="display__configuration__storage_8h.html" target="_top" xlink:title=" ">
<polygon fill="white" stroke="black" points="398.5,-268.5 398.5,-309.5 522.5,-309.5 522.5,-268.5 398.5,-268.5"/>
<text text-anchor="start" x="406.5" y="-297.5" font-family="Arial" font-size="10.00">include/miroil/miroil</text>
<text text-anchor="start" x="406.5" y="-286.5" font-family="Arial" font-size="10.00">/display_configuration</text>
<text text-anchor="middle" x="460.5" y="-275.5" font-family="Arial" font-size="10.00">_storage.h</text>
</a>
</g>
</g>
<!-- Node19&#45;&gt;Node20 -->
<g id="edge29" class="edge">
<title>Node19&#45;&gt;Node20</title>
<path fill="none" stroke="midnightblue" d="M460.5,-335.98C460.5,-327.35 460.5,-317.76 460.5,-309.59"/>
<polygon fill="midnightblue" stroke="midnightblue" points="457,-336.23 460.5,-346.23 464,-336.23 457,-336.23"/>
</g>
</g>
</svg>
