<?xml version="1.0" encoding="UTF-8" standalone="no"?>
<!DOCTYPE svg PUBLIC "-//W3C//DTD SVG 1.1//EN"
 "http://www.w3.org/Graphics/SVG/1.1/DTD/svg11.dtd">
<!-- Generated by graphviz version 2.40.1 (20161225.0304)
 -->
<!-- Title: include/core/mir/int_wrapper.h Pages: 1 -->
<svg width="140pt" height="95pt"
 viewBox="0.00 0.00 140.00 95.00" xmlns="http://www.w3.org/2000/svg" xmlns:xlink="http://www.w3.org/1999/xlink">
<g id="graph0" class="graph" transform="scale(1 1) rotate(0) translate(4 91)">
<title>include/core/mir/int_wrapper.h</title>
<polygon fill="#ffffff" stroke="transparent" points="-4,4 -4,-91 136,-91 136,4 -4,4"/>
<!-- Node0 -->
<g id="node1" class="node">
<title>Node0</title>
<polygon fill="#bfbfbf" stroke="#000000" points="6,-56.5 6,-86.5 117,-86.5 117,-56.5 6,-56.5"/>
<text text-anchor="start" x="14" y="-74.5" font-family="Arial" font-size="10.00" fill="#000000">include/core/mir/int</text>
<text text-anchor="middle" x="61.5" y="-63.5" font-family="Arial" font-size="10.00" fill="#000000">_wrapper.h</text>
</g>
<!-- Node1 -->
<g id="node2" class="node">
<title>Node1</title>
<polygon fill="#ffffff" stroke="#bfbfbf" points="0,-.5 0,-19.5 49,-19.5 49,-.5 0,-.5"/>
<text text-anchor="middle" x="24.5" y="-7.5" font-family="Arial" font-size="10.00" fill="#000000">iosfwd</text>
</g>
<!-- Node0&#45;&gt;Node1 -->
<g id="edge1" class="edge">
<title>Node0&#45;&gt;Node1</title>
<path fill="none" stroke="#191970" d="M52.3539,-56.2977C47.3249,-47.9388 41.0445,-37.4997 35.7209,-28.6509"/>
<polygon fill="#191970" stroke="#191970" points="38.5785,-26.6114 30.4242,-19.8469 32.5803,-30.2201 38.5785,-26.6114"/>
</g>
<!-- Node2 -->
<g id="node3" class="node">
<title>Node2</title>
<polygon fill="#ffffff" stroke="#bfbfbf" points="67,-.5 67,-19.5 132,-19.5 132,-.5 67,-.5"/>
<text text-anchor="middle" x="99.5" y="-7.5" font-family="Arial" font-size="10.00" fill="#000000">functional</text>
</g>
<!-- Node0&#45;&gt;Node2 -->
<g id="edge2" class="edge">
<title>Node0&#45;&gt;Node2</title>
<path fill="none" stroke="#191970" d="M70.8933,-56.2977C76.1131,-47.8498 82.6457,-37.2773 88.15,-28.369"/>
<polygon fill="#191970" stroke="#191970" points="91.1368,-30.1938 93.4157,-19.8469 85.1818,-26.5143 91.1368,-30.1938"/>
</g>
</g>
</svg>
