<?xml version="1.0" encoding="UTF-8" standalone="no"?>
<!DOCTYPE svg PUBLIC "-//W3C//DTD SVG 1.1//EN"
 "http://www.w3.org/Graphics/SVG/1.1/DTD/svg11.dtd">
<!-- Generated by graphviz version 2.43.0 (0)
 -->
<!-- Title: include/core/mir/int_wrapper.h Pages: 1 -->
<svg width="130pt" height="95pt"
 viewBox="0.00 0.00 130.00 95.00" xmlns="http://www.w3.org/2000/svg" xmlns:xlink="http://www.w3.org/1999/xlink">
<g id="graph0" class="graph" transform="scale(1 1) rotate(0) translate(4 91)">
<title>include/core/mir/int_wrapper.h</title>
<polygon fill="white" stroke="transparent" points="-4,4 -4,-91 126,-91 126,4 -4,4"/>
<!-- Node1 -->
<g id="node1" class="node">
<title>Node1</title>
<g id="a_node1"><a xlink:title=" ">
<polygon fill="#bfbfbf" stroke="black" points="8,-56.5 8,-86.5 107,-86.5 107,-56.5 8,-56.5"/>
<text text-anchor="start" x="16" y="-74.5" font-family="Arial" font-size="10.00">include/core/mir/int</text>
<text text-anchor="middle" x="57.5" y="-63.5" font-family="Arial" font-size="10.00">_wrapper.h</text>
</a>
</g>
</g>
<!-- Node2 -->
<g id="node2" class="node">
<title>Node2</title>
<g id="a_node2"><a xlink:title=" ">
<polygon fill="white" stroke="#bfbfbf" points="0,-0.5 0,-19.5 45,-19.5 45,-0.5 0,-0.5"/>
<text text-anchor="middle" x="22.5" y="-7.5" font-family="Arial" font-size="10.00">iosfwd</text>
</a>
</g>
</g>
<!-- Node1&#45;&gt;Node2 -->
<g id="edge1" class="edge">
<title>Node1&#45;&gt;Node2</title>
<path fill="none" stroke="midnightblue" d="M49.21,-56.4C44.28,-48.02 37.99,-37.33 32.75,-28.42"/>
<polygon fill="midnightblue" stroke="midnightblue" points="35.68,-26.5 27.59,-19.66 29.65,-30.05 35.68,-26.5"/>
</g>
<!-- Node3 -->
<g id="node3" class="node">
<title>Node3</title>
<g id="a_node3"><a xlink:title=" ">
<polygon fill="white" stroke="#bfbfbf" points="63,-0.5 63,-19.5 122,-19.5 122,-0.5 63,-0.5"/>
<text text-anchor="middle" x="92.5" y="-7.5" font-family="Arial" font-size="10.00">functional</text>
</a>
</g>
</g>
<!-- Node1&#45;&gt;Node3 -->
<g id="edge2" class="edge">
<title>Node1&#45;&gt;Node3</title>
<path fill="none" stroke="midnightblue" d="M65.79,-56.4C70.72,-48.02 77.01,-37.33 82.25,-28.42"/>
<polygon fill="midnightblue" stroke="midnightblue" points="85.35,-30.05 87.41,-19.66 79.32,-26.5 85.35,-30.05"/>
</g>
</g>
</svg>
