<?xml version="1.0" encoding="UTF-8" standalone="no"?>
<!DOCTYPE svg PUBLIC "-//W3C//DTD SVG 1.1//EN"
 "http://www.w3.org/Graphics/SVG/1.1/DTD/svg11.dtd">
<!-- Generated by graphviz version 2.43.0 (0)
 -->
<!-- Title: include/miral/miral/internal_client.h Pages: 1 -->
<svg width="549pt" height="173pt"
 viewBox="0.00 0.00 549.00 173.00" xmlns="http://www.w3.org/2000/svg" xmlns:xlink="http://www.w3.org/1999/xlink">
<g id="graph0" class="graph" transform="scale(1 1) rotate(0) translate(4 169)">
<title>include/miral/miral/internal_client.h</title>
<polygon fill="white" stroke="transparent" points="-4,4 -4,-169 545,-169 545,4 -4,4"/>
<!-- Node1 -->
<g id="node1" class="node">
<title>Node1</title>
<g id="a_node1"><a xlink:title=" ">
<polygon fill="#bfbfbf" stroke="black" points="151,-134.5 151,-164.5 260,-164.5 260,-134.5 151,-134.5"/>
<text text-anchor="start" x="159" y="-152.5" font-family="Arial" font-size="10.00">include/miral/miral</text>
<text text-anchor="middle" x="205.5" y="-141.5" font-family="Arial" font-size="10.00">/internal_client.h</text>
</a>
</g>
</g>
<!-- Node2 -->
<g id="node2" class="node">
<title>Node2</title>
<g id="a_node2"><a xlink:href="kiosk__main_8cpp.html" target="_top" xlink:title=" ">
<polygon fill="white" stroke="black" points="0,-67.5 0,-97.5 123,-97.5 123,-67.5 0,-67.5"/>
<text text-anchor="start" x="8" y="-85.5" font-family="Arial" font-size="10.00">examples/miral&#45;kiosk</text>
<text text-anchor="middle" x="61.5" y="-74.5" font-family="Arial" font-size="10.00">/kiosk_main.cpp</text>
</a>
</g>
</g>
<!-- Node1&#45;&gt;Node2 -->
<g id="edge1" class="edge">
<title>Node1&#45;&gt;Node2</title>
<path fill="none" stroke="midnightblue" d="M165.11,-130.27C142.18,-119.92 113.9,-107.15 92.68,-97.58"/>
<polygon fill="midnightblue" stroke="midnightblue" points="163.7,-133.47 174.25,-134.4 166.58,-127.09 163.7,-133.47"/>
</g>
<!-- Node3 -->
<g id="node3" class="node">
<title>Node3</title>
<g id="a_node3"><a xlink:href="shell__main_8cpp.html" target="_top" xlink:title=" ">
<polygon fill="white" stroke="black" points="91.5,-0.5 91.5,-30.5 211.5,-30.5 211.5,-0.5 91.5,-0.5"/>
<text text-anchor="start" x="99.5" y="-18.5" font-family="Arial" font-size="10.00">examples/miral&#45;shell</text>
<text text-anchor="middle" x="151.5" y="-7.5" font-family="Arial" font-size="10.00">/shell_main.cpp</text>
</a>
</g>
</g>
<!-- Node1&#45;&gt;Node3 -->
<g id="edge2" class="edge">
<title>Node1&#45;&gt;Node3</title>
<path fill="none" stroke="midnightblue" d="M187.34,-126.19C181.23,-117.77 174.87,-107.84 170.5,-98 160.54,-75.56 155.45,-47.23 153.14,-30.56"/>
<polygon fill="midnightblue" stroke="midnightblue" points="184.69,-128.49 193.52,-134.36 190.27,-124.27 184.69,-128.49"/>
</g>
<!-- Node4 -->
<g id="node4" class="node">
<title>Node4</title>
<g id="a_node4"><a xlink:href="tiling__window__manager_8h.html" target="_top" xlink:title=" ">
<polygon fill="white" stroke="black" points="179.5,-67.5 179.5,-97.5 339.5,-97.5 339.5,-67.5 179.5,-67.5"/>
<text text-anchor="start" x="187.5" y="-85.5" font-family="Arial" font-size="10.00">examples/example&#45;server</text>
<text text-anchor="middle" x="259.5" y="-74.5" font-family="Arial" font-size="10.00">&#45;lib/tiling_window_manager.h</text>
</a>
</g>
</g>
<!-- Node1&#45;&gt;Node4 -->
<g id="edge3" class="edge">
<title>Node1&#45;&gt;Node4</title>
<path fill="none" stroke="midnightblue" d="M223.82,-126.45C231.75,-116.9 240.8,-106 247.81,-97.58"/>
<polygon fill="midnightblue" stroke="midnightblue" points="220.92,-124.47 217.22,-134.4 226.3,-128.94 220.92,-124.47"/>
</g>
<!-- Node6 -->
<g id="node6" class="node">
<title>Node6</title>
<g id="a_node6"><a xlink:href="floating__window__manager_8cpp.html" target="_top" xlink:title=" ">
<polygon fill="white" stroke="black" points="358,-67.5 358,-97.5 541,-97.5 541,-67.5 358,-67.5"/>
<text text-anchor="start" x="366" y="-85.5" font-family="Arial" font-size="10.00">examples/example&#45;server</text>
<text text-anchor="middle" x="449.5" y="-74.5" font-family="Arial" font-size="10.00">&#45;lib/floating_window_manager.cpp</text>
</a>
</g>
</g>
<!-- Node1&#45;&gt;Node6 -->
<g id="edge6" class="edge">
<title>Node1&#45;&gt;Node6</title>
<path fill="none" stroke="midnightblue" d="M268,-131.85C307.78,-121.25 358.74,-107.68 396.53,-97.61"/>
<polygon fill="midnightblue" stroke="midnightblue" points="266.91,-128.52 258.14,-134.48 268.71,-135.28 266.91,-128.52"/>
</g>
<!-- Node4&#45;&gt;Node3 -->
<g id="edge4" class="edge">
<title>Node4&#45;&gt;Node3</title>
<path fill="none" stroke="midnightblue" d="M227.13,-62.02C210.32,-51.9 190.16,-39.77 174.89,-30.58"/>
<polygon fill="midnightblue" stroke="midnightblue" points="225.69,-65.24 236.07,-67.4 229.3,-59.24 225.69,-65.24"/>
</g>
<!-- Node5 -->
<g id="node5" class="node">
<title>Node5</title>
<g id="a_node5"><a xlink:href="tiling__window__manager_8cpp.html" target="_top" xlink:title=" ">
<polygon fill="white" stroke="black" points="230,-0.5 230,-30.5 401,-30.5 401,-0.5 230,-0.5"/>
<text text-anchor="start" x="238" y="-18.5" font-family="Arial" font-size="10.00">examples/example&#45;server</text>
<text text-anchor="middle" x="315.5" y="-7.5" font-family="Arial" font-size="10.00">&#45;lib/tiling_window_manager.cpp</text>
</a>
</g>
</g>
<!-- Node4&#45;&gt;Node5 -->
<g id="edge5" class="edge">
<title>Node4&#45;&gt;Node5</title>
<path fill="none" stroke="midnightblue" d="M278.25,-59.74C286.54,-50.12 296.04,-39.09 303.37,-30.58"/>
<polygon fill="midnightblue" stroke="midnightblue" points="275.53,-57.54 271.65,-67.4 280.83,-62.1 275.53,-57.54"/>
</g>
</g>
</svg>
