<?xml version="1.0" encoding="UTF-8" standalone="no"?>
<!DOCTYPE svg PUBLIC "-//W3C//DTD SVG 1.1//EN"
 "http://www.w3.org/Graphics/SVG/1.1/DTD/svg11.dtd">
<!-- Generated by graphviz version 2.38.0 (20140413.2041)
 -->
<!-- Title: include/miral/miral/internal_client.h Pages: 1 -->
<svg width="2033pt" height="486pt"
 viewBox="0.00 0.00 2032.82 486.00" xmlns="http://www.w3.org/2000/svg" xmlns:xlink="http://www.w3.org/1999/xlink">
<g id="graph0" class="graph" transform="scale(1 1) rotate(0) translate(4 482)">
<title>include/miral/miral/internal_client.h</title>
<polygon fill="white" stroke="none" points="-4,4 -4,-482 2028.82,-482 2028.82,4 -4,4"/>
<!-- Node0 -->
<g id="node1" class="node"><title>Node0</title>
<polygon fill="#bfbfbf" stroke="black" points="1078.59,-447.5 1078.59,-477.5 1173.59,-477.5 1173.59,-447.5 1078.59,-447.5"/>
<text text-anchor="start" x="1086.59" y="-465.5" font-family="Arial" font-size="10.00">include/miral/miral</text>
<text text-anchor="middle" x="1126.09" y="-454.5" font-family="Arial" font-size="10.00">/internal_client.h</text>
</g>
<!-- Node1 -->
<g id="node2" class="node"><title>Node1</title>
<g id="a_node2"><a xlink:href="connection_8h.html" target="_top" xlink:title="mir/client/connection.h">
<polygon fill="white" stroke="black" points="953.591,-391.5 953.591,-410.5 1068.59,-410.5 1068.59,-391.5 953.591,-391.5"/>
<text text-anchor="middle" x="1011.09" y="-398.5" font-family="Arial" font-size="10.00">mir/client/connection.h</text>
</a>
</g>
</g>
<!-- Node0&#45;&gt;Node1 -->
<g id="edge1" class="edge"><title>Node0&#45;&gt;Node1</title>
<path fill="none" stroke="midnightblue" d="M1098.84,-447.399C1080.06,-437.684 1055.26,-424.855 1036.82,-415.314"/>
<polygon fill="midnightblue" stroke="midnightblue" points="1038.31,-412.145 1027.82,-410.658 1035.1,-418.362 1038.31,-412.145"/>
</g>
<!-- Node26 -->
<g id="node27" class="node"><title>Node26</title>
<polygon fill="white" stroke="#bfbfbf" points="1071.09,-335.5 1071.09,-354.5 1123.09,-354.5 1123.09,-335.5 1071.09,-335.5"/>
<text text-anchor="middle" x="1097.09" y="-342.5" font-family="Arial" font-size="10.00">memory</text>
</g>
<!-- Node0&#45;&gt;Node26 -->
<g id="edge53" class="edge"><title>Node0&#45;&gt;Node26</title>
<path fill="none" stroke="midnightblue" d="M1122.54,-447.337C1117.31,-426.527 1107.55,-387.663 1101.76,-364.583"/>
<polygon fill="midnightblue" stroke="midnightblue" points="1105.1,-363.516 1099.27,-354.669 1098.31,-365.221 1105.1,-363.516"/>
</g>
<!-- Node27 -->
<g id="node28" class="node"><title>Node27</title>
<polygon fill="white" stroke="#bfbfbf" points="1125.59,-391.5 1125.59,-410.5 1184.59,-410.5 1184.59,-391.5 1125.59,-391.5"/>
<text text-anchor="middle" x="1155.09" y="-398.5" font-family="Arial" font-size="10.00">functional</text>
</g>
<!-- Node0&#45;&gt;Node27 -->
<g id="edge52" class="edge"><title>Node0&#45;&gt;Node27</title>
<path fill="none" stroke="midnightblue" d="M1132.96,-447.399C1137,-439.11 1142.15,-428.554 1146.46,-419.708"/>
<polygon fill="midnightblue" stroke="midnightblue" points="1149.64,-421.18 1150.87,-410.658 1143.34,-418.113 1149.64,-421.18"/>
</g>
<!-- Node28 -->
<g id="node29" class="node"><title>Node28</title>
<polygon fill="white" stroke="#bfbfbf" points="1202.59,-391.5 1202.59,-410.5 1243.59,-410.5 1243.59,-391.5 1202.59,-391.5"/>
<text text-anchor="middle" x="1223.09" y="-398.5" font-family="Arial" font-size="10.00">string</text>
</g>
<!-- Node0&#45;&gt;Node28 -->
<g id="edge54" class="edge"><title>Node0&#45;&gt;Node28</title>
<path fill="none" stroke="midnightblue" d="M1149.08,-447.399C1164.48,-437.951 1184.68,-425.559 1200.09,-416.109"/>
<polygon fill="midnightblue" stroke="midnightblue" points="1202.28,-418.87 1208.98,-410.658 1198.62,-412.903 1202.28,-418.87"/>
</g>
<!-- Node2 -->
<g id="node3" class="node"><title>Node2</title>
<g id="a_node3"><a xlink:href="mir__connection_8h.html" target="_top" xlink:title="mir_toolkit/mir_connection.h">
<polygon fill="white" stroke="black" points="913.591,-335.5 913.591,-354.5 1052.59,-354.5 1052.59,-335.5 913.591,-335.5"/>
<text text-anchor="middle" x="983.091" y="-342.5" font-family="Arial" font-size="10.00">mir_toolkit/mir_connection.h</text>
</a>
</g>
</g>
<!-- Node1&#45;&gt;Node2 -->
<g id="edge2" class="edge"><title>Node1&#45;&gt;Node2</title>
<path fill="none" stroke="midnightblue" d="M1006.47,-391.083C1002.63,-383.691 997.067,-372.953 992.327,-363.811"/>
<polygon fill="midnightblue" stroke="midnightblue" points="995.339,-362.018 987.629,-354.751 989.125,-365.24 995.339,-362.018"/>
</g>
<!-- Node1&#45;&gt;Node26 -->
<g id="edge51" class="edge"><title>Node1&#45;&gt;Node26</title>
<path fill="none" stroke="midnightblue" d="M1024.91,-391.324C1038.32,-382.9 1058.92,-369.971 1074.68,-360.074"/>
<polygon fill="midnightblue" stroke="midnightblue" points="1076.7,-362.936 1083.31,-354.655 1072.98,-357.008 1076.7,-362.936"/>
</g>
<!-- Node3 -->
<g id="node4" class="node"><title>Node3</title>
<g id="a_node4"><a xlink:href="client__types_8h.html" target="_top" xlink:title="mir_toolkit/client\l_types.h">
<polygon fill="white" stroke="black" points="103.091,-268.5 103.091,-298.5 191.091,-298.5 191.091,-268.5 103.091,-268.5"/>
<text text-anchor="start" x="111.091" y="-286.5" font-family="Arial" font-size="10.00">mir_toolkit/client</text>
<text text-anchor="middle" x="147.091" y="-275.5" font-family="Arial" font-size="10.00">_types.h</text>
</a>
</g>
</g>
<!-- Node2&#45;&gt;Node3 -->
<g id="edge3" class="edge"><title>Node2&#45;&gt;Node3</title>
<path fill="none" stroke="midnightblue" d="M913.252,-339.029C750.379,-327.437 348.111,-298.807 201.592,-288.379"/>
<polygon fill="midnightblue" stroke="midnightblue" points="201.715,-284.879 191.492,-287.66 201.218,-291.861 201.715,-284.879"/>
</g>
<!-- Node7 -->
<g id="node8" class="node"><title>Node7</title>
<g id="a_node8"><a xlink:href="common_8h.html" target="_top" xlink:title="mir_toolkit/common.h">
<polygon fill="white" stroke="black" points="92.0913,-134.5 92.0913,-153.5 202.091,-153.5 202.091,-134.5 92.0913,-134.5"/>
<text text-anchor="middle" x="147.091" y="-141.5" font-family="Arial" font-size="10.00">mir_toolkit/common.h</text>
</a>
</g>
</g>
<!-- Node2&#45;&gt;Node7 -->
<g id="edge48" class="edge"><title>Node2&#45;&gt;Node7</title>
<path fill="none" stroke="midnightblue" d="M941.393,-335.483C825.101,-311.484 487.58,-240.142 211.091,-165 201.769,-162.467 191.766,-159.474 182.502,-156.586"/>
<polygon fill="midnightblue" stroke="midnightblue" points="183.398,-153.199 172.808,-153.52 181.287,-159.873 183.398,-153.199"/>
</g>
<!-- Node8 -->
<g id="node9" class="node"><title>Node8</title>
<g id="a_node9"><a xlink:href="deprecations_8h.html" target="_top" xlink:title="mir_toolkit/deprecations.h">
<polygon fill="white" stroke="black" points="729.091,-62 729.091,-81 857.091,-81 857.091,-62 729.091,-62"/>
<text text-anchor="middle" x="793.091" y="-69" font-family="Arial" font-size="10.00">mir_toolkit/deprecations.h</text>
</a>
</g>
</g>
<!-- Node2&#45;&gt;Node8 -->
<g id="edge49" class="edge"><title>Node2&#45;&gt;Node8</title>
<path fill="none" stroke="midnightblue" d="M1024.27,-335.445C1133.25,-311.885 1424.57,-242.635 1479.09,-165 1489.82,-149.724 1491.8,-136.675 1479.09,-123 1438.12,-78.8997 1036.13,-72.9405 867.23,-72.3985"/>
<polygon fill="midnightblue" stroke="midnightblue" points="867.185,-68.8984 857.176,-72.3717 867.166,-75.8984 867.185,-68.8984"/>
</g>
<!-- Node11 -->
<g id="node12" class="node"><title>Node11</title>
<polygon fill="white" stroke="#bfbfbf" points="1913.09,-0.5 1913.09,-19.5 1969.09,-19.5 1969.09,-0.5 1913.09,-0.5"/>
<text text-anchor="middle" x="1941.09" y="-7.5" font-family="Arial" font-size="10.00">stdbool.h</text>
</g>
<!-- Node2&#45;&gt;Node11 -->
<g id="edge50" class="edge"><title>Node2&#45;&gt;Node11</title>
<path fill="none" stroke="midnightblue" d="M1052.61,-336.011C1285.56,-309.179 2024.09,-223.634 2024.09,-217.5 2024.09,-217.5 2024.09,-217.5 2024.09,-143 2024.09,-103.422 2027,-88.964 2005.09,-56 1996.26,-42.7091 1982.06,-32.1397 1969.27,-24.5932"/>
<polygon fill="midnightblue" stroke="midnightblue" points="1970.75,-21.4134 1960.31,-19.6366 1967.36,-27.5391 1970.75,-21.4134"/>
</g>
<!-- Node4 -->
<g id="node5" class="node"><title>Node4</title>
<g id="a_node5"><a xlink:href="toolkit_2events_2event_8h.html" target="_top" xlink:title="mir_toolkit/events\l/event.h">
<polygon fill="white" stroke="black" points="746.091,-201.5 746.091,-231.5 840.091,-231.5 840.091,-201.5 746.091,-201.5"/>
<text text-anchor="start" x="754.091" y="-219.5" font-family="Arial" font-size="10.00">mir_toolkit/events</text>
<text text-anchor="middle" x="793.091" y="-208.5" font-family="Arial" font-size="10.00">/event.h</text>
</a>
</g>
</g>
<!-- Node3&#45;&gt;Node4 -->
<g id="edge4" class="edge"><title>Node3&#45;&gt;Node4</title>
<path fill="none" stroke="midnightblue" d="M191.239,-278.058C304.979,-266.613 608.01,-236.123 735.402,-223.305"/>
<polygon fill="midnightblue" stroke="midnightblue" points="736.123,-226.75 745.722,-222.266 735.422,-219.785 736.123,-226.75"/>
</g>
<!-- Node5 -->
<g id="node6" class="node"><title>Node5</title>
<polygon fill="white" stroke="#bfbfbf" points="22.0913,-134.5 22.0913,-153.5 74.0913,-153.5 74.0913,-134.5 22.0913,-134.5"/>
<text text-anchor="middle" x="48.0913" y="-141.5" font-family="Arial" font-size="10.00">stddef.h</text>
</g>
<!-- Node3&#45;&gt;Node5 -->
<g id="edge47" class="edge"><title>Node3&#45;&gt;Node5</title>
<path fill="none" stroke="midnightblue" d="M136.869,-268.303C118.494,-242.781 79.9634,-189.267 60.2598,-161.901"/>
<polygon fill="midnightblue" stroke="midnightblue" points="63.0393,-159.771 54.3558,-153.701 57.3585,-163.861 63.0393,-159.771"/>
</g>
<!-- Node3&#45;&gt;Node7 -->
<g id="edge45" class="edge"><title>Node3&#45;&gt;Node7</title>
<path fill="none" stroke="midnightblue" d="M147.091,-268.303C147.091,-243.336 147.091,-191.58 147.091,-163.722"/>
<polygon fill="midnightblue" stroke="midnightblue" points="150.591,-163.701 147.091,-153.701 143.591,-163.701 150.591,-163.701"/>
</g>
<!-- Node3&#45;&gt;Node8 -->
<g id="edge46" class="edge"><title>Node3&#45;&gt;Node8</title>
<path fill="none" stroke="midnightblue" d="M119.677,-268.412C67.8555,-240.065 -35.139,-174.454 13.0913,-123 37.012,-97.4805 528.475,-80.3072 718.756,-74.592"/>
<polygon fill="midnightblue" stroke="midnightblue" points="719.057,-78.0847 728.949,-74.2882 718.849,-71.0878 719.057,-78.0847"/>
</g>
<!-- Node4&#45;&gt;Node5 -->
<g id="edge5" class="edge"><title>Node4&#45;&gt;Node5</title>
<path fill="none" stroke="midnightblue" d="M746.063,-214.874C608.322,-212.613 207.681,-202.869 83.0913,-165 78.2409,-163.526 73.3331,-161.284 68.7888,-158.828"/>
<polygon fill="midnightblue" stroke="midnightblue" points="70.4896,-155.768 60.1062,-153.662 66.9101,-161.783 70.4896,-155.768"/>
</g>
<!-- Node6 -->
<g id="node7" class="node"><title>Node6</title>
<polygon fill="white" stroke="#bfbfbf" points="1549.59,-0.5 1549.59,-19.5 1598.59,-19.5 1598.59,-0.5 1549.59,-0.5"/>
<text text-anchor="middle" x="1574.09" y="-7.5" font-family="Arial" font-size="10.00">stdint.h</text>
</g>
<!-- Node4&#45;&gt;Node6 -->
<g id="edge6" class="edge"><title>Node4&#45;&gt;Node6</title>
<path fill="none" stroke="midnightblue" d="M840.31,-214.492C986.446,-211.033 1424.77,-197.989 1479.09,-165 1530.47,-133.795 1558.12,-63.1884 1568.81,-29.525"/>
<polygon fill="midnightblue" stroke="midnightblue" points="1572.25,-30.22 1571.79,-19.6353 1565.55,-28.1983 1572.25,-30.22"/>
</g>
<!-- Node4&#45;&gt;Node7 -->
<g id="edge7" class="edge"><title>Node4&#45;&gt;Node7</title>
<path fill="none" stroke="midnightblue" d="M746.019,-212.734C626.459,-205.497 313.332,-185.164 211.091,-165 200.727,-162.956 189.668,-159.848 179.71,-156.687"/>
<polygon fill="midnightblue" stroke="midnightblue" points="180.778,-153.354 170.185,-153.546 178.585,-160.002 180.778,-153.354"/>
</g>
<!-- Node4&#45;&gt;Node8 -->
<g id="edge9" class="edge"><title>Node4&#45;&gt;Node8</title>
<path fill="none" stroke="midnightblue" d="M745.731,-213.453C638.872,-208.349 386.348,-193.381 361.091,-165 348.682,-151.055 348.682,-136.945 361.091,-123 384.413,-96.7934 601.518,-82.0232 718.777,-75.8954"/>
<polygon fill="midnightblue" stroke="midnightblue" points="718.961,-79.3906 728.768,-75.3815 718.602,-72.3999 718.961,-79.3906"/>
</g>
<!-- Node9 -->
<g id="node10" class="node"><title>Node9</title>
<g id="a_node10"><a xlink:href="input__event_8h.html" target="_top" xlink:title="mir_toolkit/events\l/input/input_event.h">
<polygon fill="white" stroke="black" points="1584.09,-129 1584.09,-159 1686.09,-159 1686.09,-129 1584.09,-129"/>
<text text-anchor="start" x="1592.09" y="-147" font-family="Arial" font-size="10.00">mir_toolkit/events</text>
<text text-anchor="middle" x="1635.09" y="-136" font-family="Arial" font-size="10.00">/input/input_event.h</text>
</a>
</g>
</g>
<!-- Node4&#45;&gt;Node9 -->
<g id="edge10" class="edge"><title>Node4&#45;&gt;Node9</title>
<path fill="none" stroke="midnightblue" d="M840.228,-214.974C958.763,-213.089 1277.97,-204.458 1541.09,-165 1551.77,-163.399 1563.08,-161.142 1574.04,-158.717"/>
<polygon fill="midnightblue" stroke="midnightblue" points="1575.01,-162.086 1583.98,-156.456 1573.46,-155.26 1575.01,-162.086"/>
</g>
<!-- Node16 -->
<g id="node17" class="node"><title>Node16</title>
<g id="a_node17"><a xlink:href="resize__event_8h.html" target="_top" xlink:title="mir_toolkit/events\l/resize_event.h">
<polygon fill="white" stroke="black" points="220.091,-129 220.091,-159 314.091,-159 314.091,-129 220.091,-129"/>
<text text-anchor="start" x="228.091" y="-147" font-family="Arial" font-size="10.00">mir_toolkit/events</text>
<text text-anchor="middle" x="267.091" y="-136" font-family="Arial" font-size="10.00">/resize_event.h</text>
</a>
</g>
</g>
<!-- Node4&#45;&gt;Node16 -->
<g id="edge21" class="edge"><title>Node4&#45;&gt;Node16</title>
<path fill="none" stroke="midnightblue" d="M745.828,-213.865C659.754,-210.033 472.686,-198.139 319.091,-165 314.986,-164.114 310.767,-163.056 306.586,-161.895"/>
<polygon fill="midnightblue" stroke="midnightblue" points="307.552,-158.531 296.969,-159.032 305.555,-165.24 307.552,-158.531"/>
</g>
<!-- Node17 -->
<g id="node18" class="node"><title>Node17</title>
<g id="a_node18"><a xlink:href="surface__event_8h.html" target="_top" xlink:title="mir_toolkit/events\l/surface_event.h">
<polygon fill="white" stroke="black" points="746.091,-129 746.091,-159 840.091,-159 840.091,-129 746.091,-129"/>
<text text-anchor="start" x="754.091" y="-147" font-family="Arial" font-size="10.00">mir_toolkit/events</text>
<text text-anchor="middle" x="793.091" y="-136" font-family="Arial" font-size="10.00">/surface_event.h</text>
</a>
</g>
</g>
<!-- Node4&#45;&gt;Node17 -->
<g id="edge23" class="edge"><title>Node4&#45;&gt;Node17</title>
<path fill="none" stroke="midnightblue" d="M787.543,-201.233C786.341,-192.06 786.041,-179.905 786.643,-169.244"/>
<polygon fill="midnightblue" stroke="midnightblue" points="790.132,-169.52 787.545,-159.246 783.16,-168.89 790.132,-169.52"/>
</g>
<!-- Node18 -->
<g id="node19" class="node"><title>Node18</title>
<g id="a_node19"><a xlink:href="window__event_8h.html" target="_top" xlink:title="mir_toolkit/events\l/window_event.h">
<polygon fill="white" stroke="black" points="370.091,-129 370.091,-159 464.091,-159 464.091,-129 370.091,-129"/>
<text text-anchor="start" x="378.091" y="-147" font-family="Arial" font-size="10.00">mir_toolkit/events</text>
<text text-anchor="middle" x="417.091" y="-136" font-family="Arial" font-size="10.00">/window_event.h</text>
</a>
</g>
</g>
<!-- Node4&#45;&gt;Node18 -->
<g id="edge26" class="edge"><title>Node4&#45;&gt;Node18</title>
<path fill="none" stroke="midnightblue" d="M745.831,-211.461C681.197,-204.907 562.46,-190.094 464.091,-165 460.84,-164.171 457.512,-163.23 454.197,-162.218"/>
<polygon fill="midnightblue" stroke="midnightblue" points="454.975,-158.791 444.383,-159.017 452.804,-165.446 454.975,-158.791"/>
</g>
<!-- Node19 -->
<g id="node20" class="node"><title>Node19</title>
<g id="a_node20"><a xlink:href="orientation__event_8h.html" target="_top" xlink:title="mir_toolkit/events\l/orientation_event.h">
<polygon fill="white" stroke="black" points="482.091,-129 482.091,-159 584.091,-159 584.091,-129 482.091,-129"/>
<text text-anchor="start" x="490.091" y="-147" font-family="Arial" font-size="10.00">mir_toolkit/events</text>
<text text-anchor="middle" x="533.091" y="-136" font-family="Arial" font-size="10.00">/orientation_event.h</text>
</a>
</g>
</g>
<!-- Node4&#45;&gt;Node19 -->
<g id="edge28" class="edge"><title>Node4&#45;&gt;Node19</title>
<path fill="none" stroke="midnightblue" d="M745.807,-206.218C703.061,-196.692 638.915,-181.035 584.091,-165 580.982,-164.091 577.793,-163.125 574.597,-162.129"/>
<polygon fill="midnightblue" stroke="midnightblue" points="575.655,-158.793 565.064,-159.072 573.517,-165.458 575.655,-158.793"/>
</g>
<!-- Node20 -->
<g id="node21" class="node"><title>Node20</title>
<g id="a_node21"><a xlink:href="prompt__session__event_8h.html" target="_top" xlink:title="mir_toolkit/events\l/prompt_session_event.h">
<polygon fill="white" stroke="black" points="602.091,-129 602.091,-159 728.091,-159 728.091,-129 602.091,-129"/>
<text text-anchor="start" x="610.091" y="-147" font-family="Arial" font-size="10.00">mir_toolkit/events</text>
<text text-anchor="middle" x="665.091" y="-136" font-family="Arial" font-size="10.00">/prompt_session_event.h</text>
</a>
</g>
</g>
<!-- Node4&#45;&gt;Node20 -->
<g id="edge30" class="edge"><title>Node4&#45;&gt;Node20</title>
<path fill="none" stroke="midnightblue" d="M761.97,-201.403C741.194,-190.74 714.208,-175.979 693.922,-164.232"/>
<polygon fill="midnightblue" stroke="midnightblue" points="695.516,-161.11 685.119,-159.073 691.976,-167.149 695.516,-161.11"/>
</g>
<!-- Node21 -->
<g id="node22" class="node"><title>Node21</title>
<g id="a_node22"><a xlink:href="keymap__event_8h.html" target="_top" xlink:title="mir_toolkit/events\l/keymap_event.h">
<polygon fill="white" stroke="black" points="1376.09,-129 1376.09,-159 1470.09,-159 1470.09,-129 1376.09,-129"/>
<text text-anchor="start" x="1384.09" y="-147" font-family="Arial" font-size="10.00">mir_toolkit/events</text>
<text text-anchor="middle" x="1423.09" y="-136" font-family="Arial" font-size="10.00">/keymap_event.h</text>
</a>
</g>
</g>
<!-- Node4&#45;&gt;Node21 -->
<g id="edge32" class="edge"><title>Node4&#45;&gt;Node21</title>
<path fill="none" stroke="midnightblue" d="M840.098,-215.337C937.818,-214.053 1168.99,-206.372 1358.09,-165 1361.84,-164.179 1365.68,-163.175 1369.54,-162.058"/>
<polygon fill="midnightblue" stroke="midnightblue" points="1370.6,-165.395 1379.11,-159.089 1368.52,-158.71 1370.6,-165.395"/>
</g>
<!-- Node22 -->
<g id="node23" class="node"><title>Node22</title>
<g id="a_node23"><a xlink:href="input__configuration__event_8h.html" target="_top" xlink:title="mir_toolkit/events\l/input_configuration\l_event.h">
<polygon fill="white" stroke="black" points="1116.59,-123.5 1116.59,-164.5 1217.59,-164.5 1217.59,-123.5 1116.59,-123.5"/>
<text text-anchor="start" x="1124.59" y="-152.5" font-family="Arial" font-size="10.00">mir_toolkit/events</text>
<text text-anchor="start" x="1124.59" y="-141.5" font-family="Arial" font-size="10.00">/input_configuration</text>
<text text-anchor="middle" x="1167.09" y="-130.5" font-family="Arial" font-size="10.00">_event.h</text>
</a>
</g>
</g>
<!-- Node4&#45;&gt;Node22 -->
<g id="edge35" class="edge"><title>Node4&#45;&gt;Node22</title>
<path fill="none" stroke="midnightblue" d="M840.232,-209.57C900.609,-201.989 1007.87,-187.137 1098.09,-165 1100.89,-164.313 1103.75,-163.557 1106.63,-162.753"/>
<polygon fill="midnightblue" stroke="midnightblue" points="1107.87,-166.037 1116.48,-159.865 1105.9,-159.32 1107.87,-166.037"/>
</g>
<!-- Node23 -->
<g id="node24" class="node"><title>Node23</title>
<g id="a_node24"><a xlink:href="surface__output__event_8h.html" target="_top" xlink:title="mir_toolkit/events\l/surface_output_event.h">
<polygon fill="white" stroke="black" points="1236.09,-129 1236.09,-159 1358.09,-159 1358.09,-129 1236.09,-129"/>
<text text-anchor="start" x="1244.09" y="-147" font-family="Arial" font-size="10.00">mir_toolkit/events</text>
<text text-anchor="middle" x="1297.09" y="-136" font-family="Arial" font-size="10.00">/surface_output_event.h</text>
</a>
</g>
</g>
<!-- Node4&#45;&gt;Node23 -->
<g id="edge38" class="edge"><title>Node4&#45;&gt;Node23</title>
<path fill="none" stroke="midnightblue" d="M840.105,-212.056C918.786,-206.098 1081.41,-191.846 1217.09,-165 1222.07,-164.015 1227.2,-162.857 1232.36,-161.601"/>
<polygon fill="midnightblue" stroke="midnightblue" points="1233.45,-164.937 1242.28,-159.089 1231.73,-158.152 1233.45,-164.937"/>
</g>
<!-- Node24 -->
<g id="node25" class="node"><title>Node24</title>
<g id="a_node25"><a xlink:href="window__output__event_8h.html" target="_top" xlink:title="mir_toolkit/events\l/window_output_event.h">
<polygon fill="white" stroke="black" points="858.591,-129 858.591,-159 979.591,-159 979.591,-129 858.591,-129"/>
<text text-anchor="start" x="866.591" y="-147" font-family="Arial" font-size="10.00">mir_toolkit/events</text>
<text text-anchor="middle" x="919.091" y="-136" font-family="Arial" font-size="10.00">/window_output_event.h</text>
</a>
</g>
</g>
<!-- Node4&#45;&gt;Node24 -->
<g id="edge41" class="edge"><title>Node4&#45;&gt;Node24</title>
<path fill="none" stroke="midnightblue" d="M812.76,-201.403C830.64,-190.596 857.305,-175.579 879.522,-163.758"/>
<polygon fill="midnightblue" stroke="midnightblue" points="881.2,-166.83 888.417,-159.073 877.938,-160.636 881.2,-166.83"/>
</g>
<!-- Node25 -->
<g id="node26" class="node"><title>Node25</title>
<g id="a_node26"><a xlink:href="input__device__state__event_8h.html" target="_top" xlink:title="mir_toolkit/events\l/input_device_state\l_event.h">
<polygon fill="white" stroke="black" points="997.591,-123.5 997.591,-164.5 1098.59,-164.5 1098.59,-123.5 997.591,-123.5"/>
<text text-anchor="start" x="1005.59" y="-152.5" font-family="Arial" font-size="10.00">mir_toolkit/events</text>
<text text-anchor="start" x="1005.59" y="-141.5" font-family="Arial" font-size="10.00">/input_device_state</text>
<text text-anchor="middle" x="1048.09" y="-130.5" font-family="Arial" font-size="10.00">_event.h</text>
</a>
</g>
</g>
<!-- Node4&#45;&gt;Node25 -->
<g id="edge43" class="edge"><title>Node4&#45;&gt;Node25</title>
<path fill="none" stroke="midnightblue" d="M840.474,-202.344C878.225,-192.688 932.143,-178.886 979.091,-165 981.855,-164.182 984.683,-163.322 987.543,-162.437"/>
<polygon fill="midnightblue" stroke="midnightblue" points="988.851,-165.695 997.339,-159.354 986.75,-159.017 988.851,-165.695"/>
</g>
<!-- Node7&#45;&gt;Node8 -->
<g id="edge8" class="edge"><title>Node7&#45;&gt;Node8</title>
<path fill="none" stroke="midnightblue" d="M170.185,-134.454C182.218,-130.343 197.272,-125.725 211.091,-123 391.05,-87.509 607.21,-76.9601 718.606,-73.8252"/>
<polygon fill="midnightblue" stroke="midnightblue" points="718.826,-77.3206 728.729,-73.5527 718.638,-70.3232 718.826,-77.3206"/>
</g>
<!-- Node9&#45;&gt;Node4 -->
<g id="edge11" class="edge"><title>Node9&#45;&gt;Node4</title>
<path fill="none" stroke="midnightblue" d="M1590.22,-159.043C1580.06,-161.343 1569.29,-163.471 1559.09,-165 1296.83,-204.329 978.849,-213.032 850.64,-214.955"/>
<polygon fill="midnightblue" stroke="midnightblue" points="850.231,-211.461 840.282,-215.102 850.331,-218.46 850.231,-211.461"/>
</g>
<!-- Node9&#45;&gt;Node6 -->
<g id="edge14" class="edge"><title>Node9&#45;&gt;Node6</title>
<path fill="none" stroke="midnightblue" d="M1621.94,-128.845C1612.62,-118.108 1600.51,-102.582 1593.09,-87 1584.34,-68.6197 1579.33,-45.7532 1576.67,-29.929"/>
<polygon fill="midnightblue" stroke="midnightblue" points="1580.1,-29.1769 1575.14,-19.8161 1573.18,-30.2284 1580.1,-29.1769"/>
</g>
<!-- Node10 -->
<g id="node11" class="node"><title>Node10</title>
<g id="a_node11"><a xlink:href="mir__input__device__types_8h.html" target="_top" xlink:title="mir_toolkit/mir_input\l_device_types.h">
<polygon fill="white" stroke="black" points="1602.09,-56.5 1602.09,-86.5 1706.09,-86.5 1706.09,-56.5 1602.09,-56.5"/>
<text text-anchor="start" x="1610.09" y="-74.5" font-family="Arial" font-size="10.00">mir_toolkit/mir_input</text>
<text text-anchor="middle" x="1654.09" y="-63.5" font-family="Arial" font-size="10.00">_device_types.h</text>
</a>
</g>
</g>
<!-- Node9&#45;&gt;Node10 -->
<g id="edge12" class="edge"><title>Node9&#45;&gt;Node10</title>
<path fill="none" stroke="midnightblue" d="M1638.94,-128.733C1641.43,-119.464 1644.75,-107.152 1647.65,-96.4109"/>
<polygon fill="midnightblue" stroke="midnightblue" points="1651.03,-97.3118 1650.25,-86.7455 1644.27,-95.4902 1651.03,-97.3118"/>
</g>
<!-- Node9&#45;&gt;Node11 -->
<g id="edge15" class="edge"><title>Node9&#45;&gt;Node11</title>
<path fill="none" stroke="midnightblue" d="M1656.11,-128.909C1672.42,-117.825 1695.48,-101.828 1715.09,-87 1732.48,-73.8527 1733.56,-65.6688 1753.09,-56 1801.69,-31.9469 1863.82,-20.3307 1903.05,-15.0335"/>
<polygon fill="midnightblue" stroke="midnightblue" points="1903.52,-18.5023 1913,-13.7605 1902.63,-11.559 1903.52,-18.5023"/>
</g>
<!-- Node12 -->
<g id="node13" class="node"><title>Node12</title>
<g id="a_node13"><a xlink:href="touch__event_8h.html" target="_top" xlink:title="mir_toolkit/events\l/input/touch_event.h">
<polygon fill="white" stroke="black" points="1762.59,-56.5 1762.59,-86.5 1867.59,-86.5 1867.59,-56.5 1762.59,-56.5"/>
<text text-anchor="start" x="1770.59" y="-74.5" font-family="Arial" font-size="10.00">mir_toolkit/events</text>
<text text-anchor="middle" x="1815.09" y="-63.5" font-family="Arial" font-size="10.00">/input/touch_event.h</text>
</a>
</g>
</g>
<!-- Node9&#45;&gt;Node12 -->
<g id="edge16" class="edge"><title>Node9&#45;&gt;Node12</title>
<path fill="none" stroke="midnightblue" d="M1671.08,-128.903C1699.41,-117.807 1739.07,-102.275 1769.6,-90.319"/>
<polygon fill="midnightblue" stroke="midnightblue" points="1771.13,-93.4788 1779.16,-86.5729 1768.57,-86.9609 1771.13,-93.4788"/>
</g>
<!-- Node13 -->
<g id="node14" class="node"><title>Node13</title>
<g id="a_node14"><a xlink:href="keyboard__event_8h.html" target="_top" xlink:title="mir_toolkit/events\l/input/keyboard_event.h">
<polygon fill="white" stroke="black" points="1386.59,-56.5 1386.59,-86.5 1507.59,-86.5 1507.59,-56.5 1386.59,-56.5"/>
<text text-anchor="start" x="1394.59" y="-74.5" font-family="Arial" font-size="10.00">mir_toolkit/events</text>
<text text-anchor="middle" x="1447.09" y="-63.5" font-family="Arial" font-size="10.00">/input/keyboard_event.h</text>
</a>
</g>
</g>
<!-- Node9&#45;&gt;Node13 -->
<g id="edge17" class="edge"><title>Node9&#45;&gt;Node13</title>
<path fill="none" stroke="midnightblue" d="M1597.5,-128.903C1567.78,-117.759 1526.13,-102.141 1494.2,-90.164"/>
<polygon fill="midnightblue" stroke="midnightblue" points="1495.21,-86.807 1484.62,-86.5729 1492.75,-93.3613 1495.21,-86.807"/>
</g>
<!-- Node15 -->
<g id="node16" class="node"><title>Node15</title>
<g id="a_node16"><a xlink:href="pointer__event_8h.html" target="_top" xlink:title="mir_toolkit/events\l/input/pointer_event.h">
<polygon fill="white" stroke="black" points="1886.09,-56.5 1886.09,-86.5 1996.09,-86.5 1996.09,-56.5 1886.09,-56.5"/>
<text text-anchor="start" x="1894.09" y="-74.5" font-family="Arial" font-size="10.00">mir_toolkit/events</text>
<text text-anchor="middle" x="1941.09" y="-63.5" font-family="Arial" font-size="10.00">/input/pointer_event.h</text>
</a>
</g>
</g>
<!-- Node9&#45;&gt;Node15 -->
<g id="edge19" class="edge"><title>Node9&#45;&gt;Node15</title>
<path fill="none" stroke="midnightblue" d="M1686.31,-131.2C1738.47,-119.182 1819.52,-100.509 1876.16,-87.4599"/>
<polygon fill="midnightblue" stroke="midnightblue" points="1877.13,-90.8288 1886.09,-85.173 1875.55,-84.0075 1877.13,-90.8288"/>
</g>
<!-- Node10&#45;&gt;Node6 -->
<g id="edge13" class="edge"><title>Node10&#45;&gt;Node6</title>
<path fill="none" stroke="midnightblue" d="M1635.13,-56.3993C1622.67,-47.1293 1606.39,-35.0254 1593.78,-25.6469"/>
<polygon fill="midnightblue" stroke="midnightblue" points="1595.84,-22.8173 1585.73,-19.6578 1591.67,-28.4341 1595.84,-22.8173"/>
</g>
<!-- Node14 -->
<g id="node15" class="node"><title>Node14</title>
<polygon fill="white" stroke="#bfbfbf" points="1336.09,-0.5 1336.09,-19.5 1470.09,-19.5 1470.09,-0.5 1336.09,-0.5"/>
<text text-anchor="middle" x="1403.09" y="-7.5" font-family="Arial" font-size="10.00">xkbcommon/xkbcommon.h</text>
</g>
<!-- Node13&#45;&gt;Node14 -->
<g id="edge18" class="edge"><title>Node13&#45;&gt;Node14</title>
<path fill="none" stroke="midnightblue" d="M1436.66,-56.3993C1430.34,-47.8424 1422.22,-36.8708 1415.56,-27.857"/>
<polygon fill="midnightblue" stroke="midnightblue" points="1418.25,-25.6171 1409.49,-19.6578 1412.63,-29.7792 1418.25,-25.6171"/>
</g>
<!-- Node15&#45;&gt;Node11 -->
<g id="edge20" class="edge"><title>Node15&#45;&gt;Node11</title>
<path fill="none" stroke="midnightblue" d="M1941.09,-56.3993C1941.09,-48.4664 1941.09,-38.458 1941.09,-29.8583"/>
<polygon fill="midnightblue" stroke="midnightblue" points="1944.59,-29.6577 1941.09,-19.6578 1937.59,-29.6578 1944.59,-29.6577"/>
</g>
<!-- Node16&#45;&gt;Node4 -->
<g id="edge22" class="edge"><title>Node16&#45;&gt;Node4</title>
<path fill="none" stroke="midnightblue" d="M314.312,-158.93C321.907,-161.241 329.683,-163.402 337.091,-165 478.584,-195.528 648.483,-208.027 735.59,-212.803"/>
<polygon fill="midnightblue" stroke="midnightblue" points="735.623,-216.31 745.795,-213.348 735.996,-209.32 735.623,-216.31"/>
</g>
<!-- Node17&#45;&gt;Node4 -->
<g id="edge24" class="edge"><title>Node17&#45;&gt;Node4</title>
<path fill="none" stroke="midnightblue" d="M798.637,-159.246C799.841,-168.414 800.142,-180.568 799.541,-191.232"/>
<polygon fill="midnightblue" stroke="midnightblue" points="796.052,-190.959 798.64,-201.233 803.024,-191.588 796.052,-190.959"/>
</g>
<!-- Node17&#45;&gt;Node8 -->
<g id="edge25" class="edge"><title>Node17&#45;&gt;Node8</title>
<path fill="none" stroke="midnightblue" d="M793.091,-128.733C793.091,-118.001 793.091,-103.187 793.091,-91.459"/>
<polygon fill="midnightblue" stroke="midnightblue" points="796.591,-91.3931 793.091,-81.3932 789.591,-91.3932 796.591,-91.3931"/>
</g>
<!-- Node18&#45;&gt;Node4 -->
<g id="edge27" class="edge"><title>Node18&#45;&gt;Node4</title>
<path fill="none" stroke="midnightblue" d="M462.088,-159.017C468.779,-161.236 475.589,-163.341 482.091,-165 569.465,-187.289 672.908,-201.467 735.813,-208.951"/>
<polygon fill="midnightblue" stroke="midnightblue" points="735.592,-212.449 745.932,-210.139 736.408,-205.497 735.592,-212.449"/>
</g>
<!-- Node19&#45;&gt;Node4 -->
<g id="edge29" class="edge"><title>Node19&#45;&gt;Node4</title>
<path fill="none" stroke="midnightblue" d="M582.843,-159.072C589.335,-161.139 595.874,-163.181 602.091,-165 646.896,-178.104 697.927,-190.957 736.039,-200.416"/>
<polygon fill="midnightblue" stroke="midnightblue" points="735.384,-203.86 745.933,-202.869 737.068,-197.065 735.384,-203.86"/>
</g>
<!-- Node20&#45;&gt;Node4 -->
<g id="edge31" class="edge"><title>Node20&#45;&gt;Node4</title>
<path fill="none" stroke="midnightblue" d="M696.165,-159.073C716.931,-169.73 743.918,-184.489 764.215,-196.241"/>
<polygon fill="midnightblue" stroke="midnightblue" points="762.625,-199.366 773.023,-201.403 766.165,-193.327 762.625,-199.366"/>
</g>
<!-- Node21&#45;&gt;Node4 -->
<g id="edge33" class="edge"><title>Node21&#45;&gt;Node4</title>
<path fill="none" stroke="midnightblue" d="M1396.77,-159.089C1390.12,-161.385 1382.95,-163.5 1376.09,-165 1186.94,-206.383 955.687,-214.057 850.235,-215.339"/>
<polygon fill="midnightblue" stroke="midnightblue" points="850.087,-211.84 840.125,-215.446 850.162,-218.839 850.087,-211.84"/>
</g>
<!-- Node21&#45;&gt;Node14 -->
<g id="edge34" class="edge"><title>Node21&#45;&gt;Node14</title>
<path fill="none" stroke="midnightblue" d="M1406.51,-128.694C1395.85,-118.342 1382.94,-103.347 1377.09,-87 1372.45,-74.0287 1373.52,-69.3077 1377.09,-56 1379.74,-46.1031 1385.16,-36.1315 1390.37,-28.099"/>
<polygon fill="midnightblue" stroke="midnightblue" points="1393.38,-29.8935 1396.2,-19.6811 1387.63,-25.9055 1393.38,-29.8935"/>
</g>
<!-- Node22&#45;&gt;Node4 -->
<g id="edge36" class="edge"><title>Node22&#45;&gt;Node4</title>
<path fill="none" stroke="midnightblue" d="M1118.02,-164.518C1117.37,-164.682 1116.73,-164.843 1116.09,-165 1024.6,-187.449 915.581,-202.407 850.377,-209.886"/>
<polygon fill="midnightblue" stroke="midnightblue" points="849.843,-206.424 840.298,-211.023 850.627,-213.38 849.843,-206.424"/>
</g>
<!-- Node22&#45;&gt;Node8 -->
<g id="edge37" class="edge"><title>Node22&#45;&gt;Node8</title>
<path fill="none" stroke="midnightblue" d="M1116.52,-125.502C1113.35,-124.602 1110.18,-123.759 1107.09,-123 1026.03,-103.111 931.219,-89.1027 867.158,-80.9645"/>
<polygon fill="midnightblue" stroke="midnightblue" points="867.505,-77.4807 857.147,-79.7088 866.634,-84.4263 867.505,-77.4807"/>
</g>
<!-- Node23&#45;&gt;Node4 -->
<g id="edge39" class="edge"><title>Node23&#45;&gt;Node4</title>
<path fill="none" stroke="midnightblue" d="M1259.99,-159.089C1251.85,-161.3 1243.26,-163.384 1235.09,-165 1098.79,-191.97 935.286,-206.229 850.383,-212.138"/>
<polygon fill="midnightblue" stroke="midnightblue" points="849.915,-208.662 840.177,-212.834 850.392,-215.646 849.915,-208.662"/>
</g>
<!-- Node23&#45;&gt;Node8 -->
<g id="edge40" class="edge"><title>Node23&#45;&gt;Node8</title>
<path fill="none" stroke="midnightblue" d="M1251.14,-128.911C1242.85,-126.7 1234.26,-124.616 1226.09,-123 1101.47,-98.3421 954.119,-84.3088 867.421,-77.5683"/>
<polygon fill="midnightblue" stroke="midnightblue" points="867.651,-74.0758 857.413,-76.8017 867.117,-81.0553 867.651,-74.0758"/>
</g>
<!-- Node24&#45;&gt;Node4 -->
<g id="edge42" class="edge"><title>Node24&#45;&gt;Node4</title>
<path fill="none" stroke="midnightblue" d="M899.463,-159.073C881.596,-169.874 854.935,-184.889 832.711,-196.715"/>
<polygon fill="midnightblue" stroke="midnightblue" points="831.029,-193.646 823.813,-201.403 834.292,-199.839 831.029,-193.646"/>
</g>
<!-- Node25&#45;&gt;Node4 -->
<g id="edge44" class="edge"><title>Node25&#45;&gt;Node4</title>
<path fill="none" stroke="midnightblue" d="M998.677,-164.528C998.147,-164.687 997.618,-164.844 997.091,-165 947.987,-179.524 891.26,-193.955 850.011,-203.647"/>
<polygon fill="midnightblue" stroke="midnightblue" points="849.082,-200.27 840.136,-205.945 850.669,-207.087 849.082,-200.27"/>
</g>
</g>
</svg>
