<?xml version="1.0" encoding="UTF-8" standalone="no"?>
<!DOCTYPE svg PUBLIC "-//W3C//DTD SVG 1.1//EN"
 "http://www.w3.org/Graphics/SVG/1.1/DTD/svg11.dtd">
<!-- Generated by graphviz version 2.38.0 (20140413.2041)
 -->
<!-- Title: include/miral/miral/internal_client.h Pages: 1 -->
<svg width="675pt" height="173pt"
 viewBox="0.00 0.00 675.00 173.00" xmlns="http://www.w3.org/2000/svg" xmlns:xlink="http://www.w3.org/1999/xlink">
<g id="graph0" class="graph" transform="scale(1 1) rotate(0) translate(4 169)">
<title>include/miral/miral/internal_client.h</title>
<polygon fill="white" stroke="none" points="-4,4 -4,-169 671,-169 671,4 -4,4"/>
<!-- Node29 -->
<g id="node1" class="node"><title>Node29</title>
<polygon fill="#bfbfbf" stroke="black" points="205,-134.5 205,-164.5 300,-164.5 300,-134.5 205,-134.5"/>
<text text-anchor="start" x="213" y="-152.5" font-family="Arial" font-size="10.00">include/miral/miral</text>
<text text-anchor="middle" x="252.5" y="-141.5" font-family="Arial" font-size="10.00">/internal_client.h</text>
</g>
<!-- Node30 -->
<g id="node2" class="node"><title>Node30</title>
<g id="a_node2"><a xlink:href="kiosk__main_8cpp.html" target="_top" xlink:title="examples/miral&#45;kiosk\l/kiosk_main.cpp">
<polygon fill="white" stroke="black" points="0,-67.5 0,-97.5 109,-97.5 109,-67.5 0,-67.5"/>
<text text-anchor="start" x="8" y="-85.5" font-family="Arial" font-size="10.00">examples/miral&#45;kiosk</text>
<text text-anchor="middle" x="54.5" y="-74.5" font-family="Arial" font-size="10.00">/kiosk_main.cpp</text>
</a>
</g>
</g>
<!-- Node29&#45;&gt;Node30 -->
<g id="edge1" class="edge"><title>Node29&#45;&gt;Node30</title>
<path fill="none" stroke="midnightblue" d="M199.886,-131.228C167.857,-120.713 127.458,-107.451 97.3792,-97.5765"/>
<polygon fill="midnightblue" stroke="midnightblue" points="198.944,-134.602 209.537,-134.396 201.128,-127.951 198.944,-134.602"/>
</g>
<!-- Node31 -->
<g id="node3" class="node"><title>Node31</title>
<g id="a_node3"><a xlink:href="floating__window__manager_8cpp.html" target="_top" xlink:title="examples/miral&#45;shell\l/floating_window_manager.cpp">
<polygon fill="white" stroke="black" points="127,-67.5 127,-97.5 276,-97.5 276,-67.5 127,-67.5"/>
<text text-anchor="start" x="135" y="-85.5" font-family="Arial" font-size="10.00">examples/miral&#45;shell</text>
<text text-anchor="middle" x="201.5" y="-74.5" font-family="Arial" font-size="10.00">/floating_window_manager.cpp</text>
</a>
</g>
</g>
<!-- Node29&#45;&gt;Node31 -->
<g id="edge2" class="edge"><title>Node29&#45;&gt;Node31</title>
<path fill="none" stroke="midnightblue" d="M235.197,-126.447C227.705,-116.899 219.157,-106.004 212.545,-97.5765"/>
<polygon fill="midnightblue" stroke="midnightblue" points="232.507,-128.689 241.434,-134.396 238.014,-124.368 232.507,-128.689"/>
</g>
<!-- Node32 -->
<g id="node4" class="node"><title>Node32</title>
<g id="a_node4"><a xlink:href="tiling__window__manager_8h.html" target="_top" xlink:title="examples/miral&#45;shell\l/tiling_window_manager.h">
<polygon fill="white" stroke="black" points="356,-67.5 356,-97.5 483,-97.5 483,-67.5 356,-67.5"/>
<text text-anchor="start" x="364" y="-85.5" font-family="Arial" font-size="10.00">examples/miral&#45;shell</text>
<text text-anchor="middle" x="419.5" y="-74.5" font-family="Arial" font-size="10.00">/tiling_window_manager.h</text>
</a>
</g>
</g>
<!-- Node29&#45;&gt;Node32 -->
<g id="edge3" class="edge"><title>Node29&#45;&gt;Node32</title>
<path fill="none" stroke="midnightblue" d="M298.28,-130.682C325.063,-120.257 358.402,-107.281 383.334,-97.5765"/>
<polygon fill="midnightblue" stroke="midnightblue" points="296.786,-127.507 288.737,-134.396 299.325,-134.03 296.786,-127.507"/>
</g>
<!-- Node33 -->
<g id="node5" class="node"><title>Node33</title>
<g id="a_node5"><a xlink:href="shell__main_8cpp.html" target="_top" xlink:title="examples/miral&#45;shell\l/shell_main.cpp">
<polygon fill="white" stroke="black" points="238.5,-0.5 238.5,-30.5 344.5,-30.5 344.5,-0.5 238.5,-0.5"/>
<text text-anchor="start" x="246.5" y="-18.5" font-family="Arial" font-size="10.00">examples/miral&#45;shell</text>
<text text-anchor="middle" x="291.5" y="-7.5" font-family="Arial" font-size="10.00">/shell_main.cpp</text>
</a>
</g>
</g>
<!-- Node29&#45;&gt;Node33 -->
<g id="edge7" class="edge"><title>Node29&#45;&gt;Node33</title>
<path fill="none" stroke="midnightblue" d="M269.993,-126.022C275.589,-117.668 281.188,-107.823 284.5,-98 292.124,-75.3925 292.756,-47.3582 292.29,-30.756"/>
<polygon fill="midnightblue" stroke="midnightblue" points="266.959,-124.25 264.029,-134.431 272.669,-128.299 266.959,-124.25"/>
</g>
<!-- Node32&#45;&gt;Node33 -->
<g id="edge4" class="edge"><title>Node32&#45;&gt;Node33</title>
<path fill="none" stroke="midnightblue" d="M382.78,-62.8533C362.542,-52.5761 337.826,-40.0252 319.22,-30.5765"/>
<polygon fill="midnightblue" stroke="midnightblue" points="381.225,-65.9888 391.726,-67.396 384.394,-59.7475 381.225,-65.9888"/>
</g>
<!-- Node34 -->
<g id="node6" class="node"><title>Node34</title>
<g id="a_node6"><a xlink:href="tiling__window__manager_8cpp.html" target="_top" xlink:title="examples/miral&#45;shell\l/tiling_window_manager.cpp">
<polygon fill="white" stroke="black" points="363,-0.5 363,-30.5 500,-30.5 500,-0.5 363,-0.5"/>
<text text-anchor="start" x="371" y="-18.5" font-family="Arial" font-size="10.00">examples/miral&#45;shell</text>
<text text-anchor="middle" x="431.5" y="-7.5" font-family="Arial" font-size="10.00">/tiling_window_manager.cpp</text>
</a>
</g>
</g>
<!-- Node32&#45;&gt;Node34 -->
<g id="edge5" class="edge"><title>Node32&#45;&gt;Node34</title>
<path fill="none" stroke="midnightblue" d="M423.949,-57.4029C425.616,-48.3703 427.455,-38.4078 428.901,-30.5765"/>
<polygon fill="midnightblue" stroke="midnightblue" points="420.478,-56.9267 422.104,-67.396 427.361,-58.1976 420.478,-56.9267"/>
</g>
<!-- Node35 -->
<g id="node7" class="node"><title>Node35</title>
<g id="a_node7"><a xlink:href="server__example_8cpp.html" target="_top" xlink:title="examples/server_example.cpp">
<polygon fill="white" stroke="black" points="518,-6 518,-25 667,-25 667,-6 518,-6"/>
<text text-anchor="middle" x="592.5" y="-13" font-family="Arial" font-size="10.00">examples/server_example.cpp</text>
</a>
</g>
</g>
<!-- Node32&#45;&gt;Node35 -->
<g id="edge6" class="edge"><title>Node32&#45;&gt;Node35</title>
<path fill="none" stroke="midnightblue" d="M466.652,-63.7838C500.196,-51.1807 543.772,-34.8082 569.858,-25.007"/>
<polygon fill="midnightblue" stroke="midnightblue" points="465.168,-60.6024 457.038,-67.396 467.631,-67.1551 465.168,-60.6024"/>
</g>
</g>
</svg>
