<?xml version="1.0" encoding="UTF-8" standalone="no"?>
<!DOCTYPE svg PUBLIC "-//W3C//DTD SVG 1.1//EN"
 "http://www.w3.org/Graphics/SVG/1.1/DTD/svg11.dtd">
<!-- Generated by graphviz version 2.43.0 (0)
 -->
<!-- Title: examples/miral&#45;kiosk/kiosk_window_manager.cpp Pages: 1 -->
<svg width="1252pt" height="688pt"
 viewBox="0.00 0.00 1252.00 688.00" xmlns="http://www.w3.org/2000/svg" xmlns:xlink="http://www.w3.org/1999/xlink">
<g id="graph0" class="graph" transform="scale(1 1) rotate(0) translate(4 684)">
<title>examples/miral&#45;kiosk/kiosk_window_manager.cpp</title>
<polygon fill="white" stroke="transparent" points="-4,4 -4,-684 1248,-684 1248,4 -4,4"/>
<!-- Node1 -->
<g id="node1" class="node">
<title>Node1</title>
<g id="a_node1"><a xlink:title=" ">
<polygon fill="#bfbfbf" stroke="black" points="514.5,-649.5 514.5,-679.5 671.5,-679.5 671.5,-649.5 514.5,-649.5"/>
<text text-anchor="start" x="522.5" y="-667.5" font-family="Arial" font-size="10.00">examples/miral&#45;kiosk</text>
<text text-anchor="middle" x="593" y="-656.5" font-family="Arial" font-size="10.00">/kiosk_window_manager.cpp</text>
</a>
</g>
</g>
<!-- Node2 -->
<g id="node2" class="node">
<title>Node2</title>
<g id="a_node2"><a xlink:href="kiosk__window__manager_8h.html" target="_top" xlink:title=" ">
<polygon fill="white" stroke="black" points="340.5,-593.5 340.5,-612.5 483.5,-612.5 483.5,-593.5 340.5,-593.5"/>
<text text-anchor="middle" x="412" y="-600.5" font-family="Arial" font-size="10.00">kiosk_window_manager.h</text>
</a>
</g>
</g>
<!-- Node1&#45;&gt;Node2 -->
<g id="edge1" class="edge">
<title>Node1&#45;&gt;Node2</title>
<path fill="none" stroke="midnightblue" d="M550.11,-649.4C518.97,-639.16 477.31,-625.47 447.92,-615.81"/>
<polygon fill="midnightblue" stroke="midnightblue" points="448.67,-612.37 438.07,-612.57 446.48,-619.02 448.67,-612.37"/>
</g>
<!-- Node22 -->
<g id="node22" class="node">
<title>Node22</title>
<g id="a_node22"><a xlink:href="window__manager__tools_8h.html" target="_top" xlink:title=" ">
<polygon fill="white" stroke="black" points="447.5,-459.5 447.5,-489.5 578.5,-489.5 578.5,-459.5 447.5,-459.5"/>
<text text-anchor="start" x="455.5" y="-477.5" font-family="Arial" font-size="10.00">miral/window_manager</text>
<text text-anchor="middle" x="513" y="-466.5" font-family="Arial" font-size="10.00">_tools.h</text>
</a>
</g>
</g>
<!-- Node1&#45;&gt;Node22 -->
<g id="edge72" class="edge">
<title>Node1&#45;&gt;Node22</title>
<path fill="none" stroke="midnightblue" d="M586.99,-649.37C573.31,-617.24 539.78,-538.44 522.96,-498.91"/>
<polygon fill="midnightblue" stroke="midnightblue" points="526.11,-497.37 518.97,-489.54 519.67,-500.11 526.11,-497.37"/>
</g>
<!-- Node25 -->
<g id="node25" class="node">
<title>Node25</title>
<g id="a_node25"><a xlink:href="window__info_8h.html" target="_top" xlink:title=" ">
<polygon fill="white" stroke="black" points="717.5,-403.5 717.5,-422.5 804.5,-422.5 804.5,-403.5 717.5,-403.5"/>
<text text-anchor="middle" x="761" y="-410.5" font-family="Arial" font-size="10.00">window_info.h</text>
</a>
</g>
</g>
<!-- Node1&#45;&gt;Node25 -->
<g id="edge71" class="edge">
<title>Node1&#45;&gt;Node25</title>
<path fill="none" stroke="midnightblue" d="M626.77,-649.37C643.68,-640.89 663.4,-628.68 677,-613 725.1,-557.54 748.75,-470.54 757.22,-432.66"/>
<polygon fill="midnightblue" stroke="midnightblue" points="760.71,-433.09 759.38,-422.58 753.87,-431.63 760.71,-433.09"/>
</g>
<!-- Node35 -->
<g id="node35" class="node">
<title>Node35</title>
<g id="a_node35"><a xlink:href="application__info_8h.html" target="_top" xlink:title=" ">
<polygon fill="white" stroke="black" points="541,-342 541,-361 673,-361 673,-342 541,-342"/>
<text text-anchor="middle" x="607" y="-349" font-family="Arial" font-size="10.00">miral/application_info.h</text>
</a>
</g>
</g>
<!-- Node1&#45;&gt;Node35 -->
<g id="edge64" class="edge">
<title>Node1&#45;&gt;Node35</title>
<path fill="none" stroke="midnightblue" d="M607.85,-649.39C628.39,-628.26 663,-586.18 663,-542.5 663,-542.5 663,-542.5 663,-473.5 663,-433.22 637.12,-391.79 620.55,-369.38"/>
<polygon fill="midnightblue" stroke="midnightblue" points="623.18,-367.07 614.32,-361.26 617.63,-371.33 623.18,-367.07"/>
</g>
<!-- Node36 -->
<g id="node36" class="node">
<title>Node36</title>
<g id="a_node36"><a xlink:href="toolkit__event_8h.html" target="_top" xlink:title=" ">
<polygon fill="white" stroke="black" points="161.5,-593.5 161.5,-612.5 280.5,-612.5 280.5,-593.5 161.5,-593.5"/>
<text text-anchor="middle" x="221" y="-600.5" font-family="Arial" font-size="10.00">miral/toolkit_event.h</text>
</a>
</g>
</g>
<!-- Node1&#45;&gt;Node36 -->
<g id="edge68" class="edge">
<title>Node1&#45;&gt;Node36</title>
<path fill="none" stroke="midnightblue" d="M514.11,-650.88C445.58,-639.92 347.63,-624.25 284.17,-614.1"/>
<polygon fill="midnightblue" stroke="midnightblue" points="284.72,-610.65 274.29,-612.52 283.61,-617.56 284.72,-610.65"/>
</g>
<!-- Node38 -->
<g id="node38" class="node">
<title>Node38</title>
<g id="a_node38"><a xlink:title=" ">
<polygon fill="white" stroke="#bfbfbf" points="729.5,-593.5 729.5,-612.5 806.5,-612.5 806.5,-593.5 729.5,-593.5"/>
<text text-anchor="middle" x="768" y="-600.5" font-family="Arial" font-size="10.00">linux/input.h</text>
</a>
</g>
</g>
<!-- Node1&#45;&gt;Node38 -->
<g id="edge73" class="edge">
<title>Node1&#45;&gt;Node38</title>
<path fill="none" stroke="midnightblue" d="M634.47,-649.4C664.58,-639.16 704.85,-625.47 733.27,-615.81"/>
<polygon fill="midnightblue" stroke="midnightblue" points="734.45,-619.1 742.79,-612.57 732.2,-612.48 734.45,-619.1"/>
</g>
<!-- Node3 -->
<g id="node3" class="node">
<title>Node3</title>
<g id="a_node3"><a xlink:href="sw__splash_8h.html" target="_top" xlink:title=" ">
<polygon fill="white" stroke="black" points="292,-532 292,-551 368,-551 368,-532 292,-532"/>
<text text-anchor="middle" x="330" y="-539" font-family="Arial" font-size="10.00">sw_splash.h</text>
</a>
</g>
</g>
<!-- Node2&#45;&gt;Node3 -->
<g id="edge2" class="edge">
<title>Node2&#45;&gt;Node3</title>
<path fill="none" stroke="midnightblue" d="M400.25,-593.48C387.22,-584.02 365.96,-568.6 350.24,-557.19"/>
<polygon fill="midnightblue" stroke="midnightblue" points="351.88,-554.05 341.73,-551.01 347.77,-559.71 351.88,-554.05"/>
</g>
<!-- Node6 -->
<g id="node6" class="node">
<title>Node6</title>
<g id="a_node6"><a xlink:href="canonical__window__manager_8h.html" target="_top" xlink:title=" ">
<polygon fill="white" stroke="black" points="386,-526.5 386,-556.5 520,-556.5 520,-526.5 386,-526.5"/>
<text text-anchor="start" x="394" y="-544.5" font-family="Arial" font-size="10.00">miral/canonical_window</text>
<text text-anchor="middle" x="453" y="-533.5" font-family="Arial" font-size="10.00">_manager.h</text>
</a>
</g>
</g>
<!-- Node2&#45;&gt;Node6 -->
<g id="edge5" class="edge">
<title>Node2&#45;&gt;Node6</title>
<path fill="none" stroke="midnightblue" d="M417.87,-593.48C423.01,-586.02 430.71,-574.85 437.59,-564.87"/>
<polygon fill="midnightblue" stroke="midnightblue" points="440.55,-566.74 443.34,-556.52 434.78,-562.77 440.55,-566.74"/>
</g>
<!-- Node34 -->
<g id="node34" class="node">
<title>Node34</title>
<g id="a_node34"><a xlink:href="enums_8h.html" target="_top" xlink:title=" ">
<polygon fill="white" stroke="black" points="168,-526.5 168,-556.5 274,-556.5 274,-526.5 168,-526.5"/>
<text text-anchor="start" x="176" y="-544.5" font-family="Arial" font-size="10.00">mir_toolkit/events</text>
<text text-anchor="middle" x="221" y="-533.5" font-family="Arial" font-size="10.00">/enums.h</text>
</a>
</g>
</g>
<!-- Node2&#45;&gt;Node34 -->
<g id="edge62" class="edge">
<title>Node2&#45;&gt;Node34</title>
<path fill="none" stroke="midnightblue" d="M384.63,-593.48C356.35,-584.66 311.42,-570.67 275.8,-559.57"/>
<polygon fill="midnightblue" stroke="midnightblue" points="276.6,-556.16 266.01,-556.52 274.52,-562.84 276.6,-556.16"/>
</g>
<!-- Node4 -->
<g id="node4" class="node">
<title>Node4</title>
<g id="a_node4"><a xlink:href="splash__session_8h.html" target="_top" xlink:title=" ">
<polygon fill="white" stroke="black" points="159.5,-403.5 159.5,-422.5 258.5,-422.5 258.5,-403.5 159.5,-403.5"/>
<text text-anchor="middle" x="209" y="-410.5" font-family="Arial" font-size="10.00">splash_session.h</text>
</a>
</g>
</g>
<!-- Node3&#45;&gt;Node4 -->
<g id="edge3" class="edge">
<title>Node3&#45;&gt;Node4</title>
<path fill="none" stroke="midnightblue" d="M321.68,-531.81C301.65,-510.86 250.47,-457.35 224.55,-430.25"/>
<polygon fill="midnightblue" stroke="midnightblue" points="226.82,-427.56 217.38,-422.76 221.76,-432.4 226.82,-427.56"/>
</g>
<!-- Node5 -->
<g id="node5" class="node">
<title>Node5</title>
<g id="a_node5"><a xlink:title=" ">
<polygon fill="white" stroke="#bfbfbf" points="367,-224.5 367,-243.5 425,-243.5 425,-224.5 367,-224.5"/>
<text text-anchor="middle" x="396" y="-231.5" font-family="Arial" font-size="10.00">memory</text>
</a>
</g>
</g>
<!-- Node4&#45;&gt;Node5 -->
<g id="edge4" class="edge">
<title>Node4&#45;&gt;Node5</title>
<path fill="none" stroke="midnightblue" d="M199.46,-403.26C184.87,-388.79 160.1,-359.17 174,-336 194.03,-302.62 299.8,-265.09 357.82,-246.59"/>
<polygon fill="midnightblue" stroke="midnightblue" points="358.9,-249.92 367.39,-243.57 356.8,-243.24 358.9,-249.92"/>
</g>
<!-- Node7 -->
<g id="node7" class="node">
<title>Node7</title>
<g id="a_node7"><a xlink:href="window__management__policy_8h.html" target="_top" xlink:title=" ">
<polygon fill="white" stroke="black" points="183.5,-336.5 183.5,-366.5 336.5,-366.5 336.5,-336.5 183.5,-336.5"/>
<text text-anchor="start" x="191.5" y="-354.5" font-family="Arial" font-size="10.00">miral/window_management</text>
<text text-anchor="middle" x="260" y="-343.5" font-family="Arial" font-size="10.00">_policy.h</text>
</a>
</g>
</g>
<!-- Node6&#45;&gt;Node7 -->
<g id="edge6" class="edge">
<title>Node6&#45;&gt;Node7</title>
<path fill="none" stroke="midnightblue" d="M438.49,-526.37C404.88,-493.63 321.5,-412.41 281.75,-373.69"/>
<polygon fill="midnightblue" stroke="midnightblue" points="284.02,-371.01 274.41,-366.54 279.13,-376.02 284.02,-371.01"/>
</g>
<!-- Node6&#45;&gt;Node22 -->
<g id="edge34" class="edge">
<title>Node6&#45;&gt;Node22</title>
<path fill="none" stroke="midnightblue" d="M466.02,-526.4C473.96,-517.79 484.27,-506.63 493.2,-496.94"/>
<polygon fill="midnightblue" stroke="midnightblue" points="495.8,-499.3 500.01,-489.58 490.65,-494.55 495.8,-499.3"/>
</g>
<!-- Node7&#45;&gt;Node5 -->
<g id="edge33" class="edge">
<title>Node7&#45;&gt;Node5</title>
<path fill="none" stroke="midnightblue" d="M264.55,-336.34C270.19,-320.75 281.17,-295.79 298,-280 314.7,-264.33 337.82,-253.36 357.41,-246.18"/>
<polygon fill="midnightblue" stroke="midnightblue" points="358.69,-249.44 366.99,-242.86 356.39,-242.83 358.69,-249.44"/>
</g>
<!-- Node8 -->
<g id="node8" class="node">
<title>Node8</title>
<g id="a_node8"><a xlink:href="displacement_8h.html" target="_top" xlink:title=" ">
<polygon fill="white" stroke="black" points="360.5,-168.5 360.5,-187.5 521.5,-187.5 521.5,-168.5 360.5,-168.5"/>
<text text-anchor="middle" x="441" y="-175.5" font-family="Arial" font-size="10.00">mir/geometry/displacement.h</text>
</a>
</g>
</g>
<!-- Node7&#45;&gt;Node8 -->
<g id="edge7" class="edge">
<title>Node7&#45;&gt;Node8</title>
<path fill="none" stroke="midnightblue" d="M246.79,-336.45C224.81,-311.37 185.82,-258.31 214,-224 231.4,-202.81 294.79,-191.42 350.17,-185.41"/>
<polygon fill="midnightblue" stroke="midnightblue" points="350.82,-188.86 360.4,-184.35 350.1,-181.9 350.82,-188.86"/>
</g>
<!-- Node16 -->
<g id="node16" class="node">
<title>Node16</title>
<g id="a_node16"><a xlink:href="rectangles_8h.html" target="_top" xlink:title=" ">
<polygon fill="white" stroke="black" points="890,-280.5 890,-299.5 1036,-299.5 1036,-280.5 890,-280.5"/>
<text text-anchor="middle" x="963" y="-287.5" font-family="Arial" font-size="10.00">mir/geometry/rectangles.h</text>
</a>
</g>
</g>
<!-- Node7&#45;&gt;Node16 -->
<g id="edge19" class="edge">
<title>Node7&#45;&gt;Node16</title>
<path fill="none" stroke="midnightblue" d="M336.67,-341C352.32,-339.21 368.68,-337.45 384,-336 601.25,-315.44 658.77,-319.95 879.73,-300.08"/>
<polygon fill="midnightblue" stroke="midnightblue" points="880.05,-303.57 889.7,-299.18 879.42,-296.6 880.05,-303.57"/>
</g>
<!-- Node21 -->
<g id="node21" class="node">
<title>Node21</title>
<g id="a_node21"><a xlink:href="common_8h.html" target="_top" xlink:title=" ">
<polygon fill="white" stroke="black" points="223.5,-224.5 223.5,-243.5 348.5,-243.5 348.5,-224.5 223.5,-224.5"/>
<text text-anchor="middle" x="286" y="-231.5" font-family="Arial" font-size="10.00">mir_toolkit/common.h</text>
</a>
</g>
</g>
<!-- Node7&#45;&gt;Node21 -->
<g id="edge32" class="edge">
<title>Node7&#45;&gt;Node21</title>
<path fill="none" stroke="midnightblue" d="M257.89,-336.44C256.21,-322.01 254.9,-299.03 260,-280 262.65,-270.1 268.07,-260.13 273.27,-252.1"/>
<polygon fill="midnightblue" stroke="midnightblue" points="276.29,-253.89 279.11,-243.68 270.54,-249.91 276.29,-253.89"/>
</g>
<!-- Node9 -->
<g id="node9" class="node">
<title>Node9</title>
<g id="a_node9"><a xlink:href="forward_8h.html" target="_top" xlink:title=" ">
<polygon fill="white" stroke="black" points="563.5,-0.5 563.5,-19.5 626.5,-19.5 626.5,-0.5 563.5,-0.5"/>
<text text-anchor="middle" x="595" y="-7.5" font-family="Arial" font-size="10.00">forward.h</text>
</a>
</g>
</g>
<!-- Node8&#45;&gt;Node9 -->
<g id="edge8" class="edge">
<title>Node8&#45;&gt;Node9</title>
<path fill="none" stroke="midnightblue" d="M443.82,-168.28C451.18,-146.71 472.87,-90.14 508,-56 522.68,-41.73 542.79,-30.93 559.98,-23.49"/>
<polygon fill="midnightblue" stroke="midnightblue" points="561.78,-26.54 569.7,-19.5 559.12,-20.06 561.78,-26.54"/>
</g>
<!-- Node10 -->
<g id="node10" class="node">
<title>Node10</title>
<g id="a_node10"><a xlink:href="dimensions_8h.html" target="_top" xlink:title=" ">
<polygon fill="white" stroke="black" points="638,-56.5 638,-75.5 720,-75.5 720,-56.5 638,-56.5"/>
<text text-anchor="middle" x="679" y="-63.5" font-family="Arial" font-size="10.00">dimensions.h</text>
</a>
</g>
</g>
<!-- Node8&#45;&gt;Node10 -->
<g id="edge9" class="edge">
<title>Node8&#45;&gt;Node10</title>
<path fill="none" stroke="midnightblue" d="M469.86,-168.49C496.01,-160.39 535.33,-147.19 568,-132 600.43,-116.93 635.72,-95.28 657.6,-81.18"/>
<polygon fill="midnightblue" stroke="midnightblue" points="659.64,-84.03 666.11,-75.64 655.82,-78.16 659.64,-84.03"/>
</g>
<!-- Node14 -->
<g id="node14" class="node">
<title>Node14</title>
<g id="a_node14"><a xlink:href="point_8h.html" target="_top" xlink:title=" ">
<polygon fill="white" stroke="black" points="654,-112.5 654,-131.5 704,-131.5 704,-112.5 654,-112.5"/>
<text text-anchor="middle" x="679" y="-119.5" font-family="Arial" font-size="10.00">point.h</text>
</a>
</g>
</g>
<!-- Node8&#45;&gt;Node14 -->
<g id="edge14" class="edge">
<title>Node8&#45;&gt;Node14</title>
<path fill="none" stroke="midnightblue" d="M479.16,-168.42C519.23,-159.41 584.06,-144.78 640,-132 641.26,-131.71 642.54,-131.42 643.83,-131.12"/>
<polygon fill="midnightblue" stroke="midnightblue" points="644.87,-134.48 653.83,-128.83 643.3,-127.65 644.87,-134.48"/>
</g>
<!-- Node15 -->
<g id="node15" class="node">
<title>Node15</title>
<g id="a_node15"><a xlink:title=" ">
<polygon fill="white" stroke="#bfbfbf" points="524.5,-56.5 524.5,-75.5 581.5,-75.5 581.5,-56.5 524.5,-56.5"/>
<text text-anchor="middle" x="553" y="-63.5" font-family="Arial" font-size="10.00">ostream</text>
</a>
</g>
</g>
<!-- Node8&#45;&gt;Node15 -->
<g id="edge18" class="edge">
<title>Node8&#45;&gt;Node15</title>
<path fill="none" stroke="midnightblue" d="M449.18,-168.48C461.25,-155.96 484.6,-131.91 505,-112 515.24,-102 526.96,-91.01 536.25,-82.4"/>
<polygon fill="midnightblue" stroke="midnightblue" points="538.72,-84.88 543.69,-75.52 533.97,-79.73 538.72,-84.88"/>
</g>
<!-- Node10&#45;&gt;Node9 -->
<g id="edge10" class="edge">
<title>Node10&#45;&gt;Node9</title>
<path fill="none" stroke="midnightblue" d="M665.5,-56.32C652.4,-47.9 632.29,-34.97 616.89,-25.07"/>
<polygon fill="midnightblue" stroke="midnightblue" points="618.77,-22.12 608.46,-19.65 614.98,-28.01 618.77,-22.12"/>
</g>
<!-- Node11 -->
<g id="node11" class="node">
<title>Node11</title>
<g id="a_node11"><a xlink:title=" ">
<polygon fill="white" stroke="#bfbfbf" points="830,-0.5 830,-19.5 878,-19.5 878,-0.5 830,-0.5"/>
<text text-anchor="middle" x="854" y="-7.5" font-family="Arial" font-size="10.00">iosfwd</text>
</a>
</g>
</g>
<!-- Node10&#45;&gt;Node11 -->
<g id="edge11" class="edge">
<title>Node10&#45;&gt;Node11</title>
<path fill="none" stroke="midnightblue" d="M706.73,-56.44C737.47,-46.96 787.08,-31.65 820.1,-21.46"/>
<polygon fill="midnightblue" stroke="midnightblue" points="821.26,-24.77 829.78,-18.47 819.19,-18.08 821.26,-24.77"/>
</g>
<!-- Node12 -->
<g id="node12" class="node">
<title>Node12</title>
<g id="a_node12"><a xlink:title=" ">
<polygon fill="white" stroke="#bfbfbf" points="644.5,-0.5 644.5,-19.5 713.5,-19.5 713.5,-0.5 644.5,-0.5"/>
<text text-anchor="middle" x="679" y="-7.5" font-family="Arial" font-size="10.00">type_traits</text>
</a>
</g>
</g>
<!-- Node10&#45;&gt;Node12 -->
<g id="edge12" class="edge">
<title>Node10&#45;&gt;Node12</title>
<path fill="none" stroke="midnightblue" d="M679,-56.08C679,-49.01 679,-38.86 679,-29.99"/>
<polygon fill="midnightblue" stroke="midnightblue" points="682.5,-29.75 679,-19.75 675.5,-29.75 682.5,-29.75"/>
</g>
<!-- Node13 -->
<g id="node13" class="node">
<title>Node13</title>
<g id="a_node13"><a xlink:title=" ">
<polygon fill="white" stroke="#bfbfbf" points="732,-0.5 732,-19.5 782,-19.5 782,-0.5 732,-0.5"/>
<text text-anchor="middle" x="757" y="-7.5" font-family="Arial" font-size="10.00">cstdint</text>
</a>
</g>
</g>
<!-- Node10&#45;&gt;Node13 -->
<g id="edge13" class="edge">
<title>Node10&#45;&gt;Node13</title>
<path fill="none" stroke="midnightblue" d="M691.53,-56.32C703.59,-47.98 722.03,-35.21 736.27,-25.35"/>
<polygon fill="midnightblue" stroke="midnightblue" points="738.27,-28.22 744.5,-19.65 734.28,-22.47 738.27,-28.22"/>
</g>
<!-- Node14&#45;&gt;Node9 -->
<g id="edge15" class="edge">
<title>Node14&#45;&gt;Node9</title>
<path fill="none" stroke="midnightblue" d="M667.19,-112.35C656.29,-103.95 640.17,-90.39 629,-76 617.68,-61.41 608.27,-42.49 602.24,-28.83"/>
<polygon fill="midnightblue" stroke="midnightblue" points="605.44,-27.41 598.32,-19.56 599,-30.14 605.44,-27.41"/>
</g>
<!-- Node14&#45;&gt;Node10 -->
<g id="edge16" class="edge">
<title>Node14&#45;&gt;Node10</title>
<path fill="none" stroke="midnightblue" d="M679,-112.08C679,-105.01 679,-94.86 679,-85.99"/>
<polygon fill="midnightblue" stroke="midnightblue" points="682.5,-85.75 679,-75.75 675.5,-85.75 682.5,-85.75"/>
</g>
<!-- Node14&#45;&gt;Node15 -->
<g id="edge17" class="edge">
<title>Node14&#45;&gt;Node15</title>
<path fill="none" stroke="midnightblue" d="M659.03,-112.44C638.39,-103.6 605.94,-89.69 582.37,-79.59"/>
<polygon fill="midnightblue" stroke="midnightblue" points="583.44,-76.24 572.87,-75.52 580.68,-82.67 583.44,-76.24"/>
</g>
<!-- Node16&#45;&gt;Node14 -->
<g id="edge20" class="edge">
<title>Node16&#45;&gt;Node14</title>
<path fill="none" stroke="midnightblue" d="M948.13,-280.31C901.74,-253.19 759.38,-169.98 702.67,-136.83"/>
<polygon fill="midnightblue" stroke="midnightblue" points="704.12,-133.63 693.72,-131.61 700.59,-139.67 704.12,-133.63"/>
</g>
<!-- Node17 -->
<g id="node17" class="node">
<title>Node17</title>
<g id="a_node17"><a xlink:href="rectangle_8h.html" target="_top" xlink:title=" ">
<polygon fill="white" stroke="black" points="677.5,-224.5 677.5,-243.5 818.5,-243.5 818.5,-224.5 677.5,-224.5"/>
<text text-anchor="middle" x="748" y="-231.5" font-family="Arial" font-size="10.00">mir/geometry/rectangle.h</text>
</a>
</g>
</g>
<!-- Node16&#45;&gt;Node17 -->
<g id="edge21" class="edge">
<title>Node16&#45;&gt;Node17</title>
<path fill="none" stroke="midnightblue" d="M928.93,-280.44C891.82,-271.12 832.34,-256.18 791.79,-246"/>
<polygon fill="midnightblue" stroke="midnightblue" points="792.46,-242.56 781.91,-243.52 790.75,-249.35 792.46,-242.56"/>
</g>
<!-- Node19 -->
<g id="node19" class="node">
<title>Node19</title>
<g id="a_node19"><a xlink:title=" ">
<polygon fill="white" stroke="#bfbfbf" points="1031.5,-224.5 1031.5,-243.5 1078.5,-243.5 1078.5,-224.5 1031.5,-224.5"/>
<text text-anchor="middle" x="1055" y="-231.5" font-family="Arial" font-size="10.00">vector</text>
</a>
</g>
</g>
<!-- Node16&#45;&gt;Node19 -->
<g id="edge30" class="edge">
<title>Node16&#45;&gt;Node19</title>
<path fill="none" stroke="midnightblue" d="M977.78,-280.32C992.27,-271.82 1014.57,-258.73 1031.49,-248.8"/>
<polygon fill="midnightblue" stroke="midnightblue" points="1033.4,-251.74 1040.26,-243.65 1029.86,-245.7 1033.4,-251.74"/>
</g>
<!-- Node20 -->
<g id="node20" class="node">
<title>Node20</title>
<g id="a_node20"><a xlink:title=" ">
<polygon fill="white" stroke="#bfbfbf" points="921.5,-224.5 921.5,-243.5 1004.5,-243.5 1004.5,-224.5 921.5,-224.5"/>
<text text-anchor="middle" x="963" y="-231.5" font-family="Arial" font-size="10.00">initializer_list</text>
</a>
</g>
</g>
<!-- Node16&#45;&gt;Node20 -->
<g id="edge31" class="edge">
<title>Node16&#45;&gt;Node20</title>
<path fill="none" stroke="midnightblue" d="M963,-280.08C963,-273.01 963,-262.86 963,-253.99"/>
<polygon fill="midnightblue" stroke="midnightblue" points="966.5,-253.75 963,-243.75 959.5,-253.75 966.5,-253.75"/>
</g>
<!-- Node17&#45;&gt;Node8 -->
<g id="edge28" class="edge">
<title>Node17&#45;&gt;Node8</title>
<path fill="none" stroke="midnightblue" d="M699.35,-224.44C645.13,-214.9 557.45,-199.48 499.52,-189.29"/>
<polygon fill="midnightblue" stroke="midnightblue" points="499.87,-185.8 489.42,-187.52 498.66,-192.7 499.87,-185.8"/>
</g>
<!-- Node17&#45;&gt;Node9 -->
<g id="edge22" class="edge">
<title>Node17&#45;&gt;Node9</title>
<path fill="none" stroke="midnightblue" d="M749.98,-224.43C755.87,-196.6 770.43,-107.56 729,-56 722.92,-48.44 673.22,-33.05 636.11,-22.39"/>
<polygon fill="midnightblue" stroke="midnightblue" points="636.6,-18.89 626.03,-19.51 634.69,-25.62 636.6,-18.89"/>
</g>
<!-- Node17&#45;&gt;Node14 -->
<g id="edge23" class="edge">
<title>Node17&#45;&gt;Node14</title>
<path fill="none" stroke="midnightblue" d="M742.59,-224.37C731.25,-206.3 704.83,-164.18 689.86,-140.31"/>
<polygon fill="midnightblue" stroke="midnightblue" points="692.67,-138.2 684.39,-131.59 686.74,-141.92 692.67,-138.2"/>
</g>
<!-- Node17&#45;&gt;Node15 -->
<g id="edge29" class="edge">
<title>Node17&#45;&gt;Node15</title>
<path fill="none" stroke="midnightblue" d="M737.79,-224.31C706.33,-197.53 610.6,-116.03 570.73,-82.09"/>
<polygon fill="midnightblue" stroke="midnightblue" points="572.99,-79.42 563.11,-75.61 568.45,-84.75 572.99,-79.42"/>
</g>
<!-- Node18 -->
<g id="node18" class="node">
<title>Node18</title>
<g id="a_node18"><a xlink:href="size_8h.html" target="_top" xlink:title=" ">
<polygon fill="white" stroke="black" points="514.5,-112.5 514.5,-131.5 559.5,-131.5 559.5,-112.5 514.5,-112.5"/>
<text text-anchor="middle" x="537" y="-119.5" font-family="Arial" font-size="10.00">size.h</text>
</a>
</g>
</g>
<!-- Node17&#45;&gt;Node18 -->
<g id="edge24" class="edge">
<title>Node17&#45;&gt;Node18</title>
<path fill="none" stroke="midnightblue" d="M697.51,-224.46C653.33,-216.18 593.27,-202.74 574,-188 558.57,-176.19 548.53,-155.97 542.86,-141.21"/>
<polygon fill="midnightblue" stroke="midnightblue" points="546.11,-139.9 539.48,-131.63 539.5,-142.22 546.11,-139.9"/>
</g>
<!-- Node18&#45;&gt;Node9 -->
<g id="edge25" class="edge">
<title>Node18&#45;&gt;Node9</title>
<path fill="none" stroke="midnightblue" d="M529.47,-112.11C519.45,-99.13 504.17,-74.51 515,-56 523.86,-40.85 539.91,-30.41 555.31,-23.42"/>
<polygon fill="midnightblue" stroke="midnightblue" points="556.85,-26.57 564.75,-19.51 554.17,-20.11 556.85,-26.57"/>
</g>
<!-- Node18&#45;&gt;Node10 -->
<g id="edge26" class="edge">
<title>Node18&#45;&gt;Node10</title>
<path fill="none" stroke="midnightblue" d="M559.5,-112.44C583.08,-103.48 620.32,-89.31 646.96,-79.18"/>
<polygon fill="midnightblue" stroke="midnightblue" points="648.5,-82.34 656.6,-75.52 646.01,-75.8 648.5,-82.34"/>
</g>
<!-- Node18&#45;&gt;Node15 -->
<g id="edge27" class="edge">
<title>Node18&#45;&gt;Node15</title>
<path fill="none" stroke="midnightblue" d="M539.64,-112.08C541.79,-104.85 544.88,-94.41 547.55,-85.4"/>
<polygon fill="midnightblue" stroke="midnightblue" points="550.92,-86.33 550.41,-75.75 544.21,-84.34 550.92,-86.33"/>
</g>
<!-- Node22&#45;&gt;Node5 -->
<g id="edge61" class="edge">
<title>Node22&#45;&gt;Node5</title>
<path fill="none" stroke="midnightblue" d="M484,-459.44C452.69,-442.44 404.55,-410.61 384,-367 366.33,-329.49 379.48,-279.4 388.81,-253.01"/>
<polygon fill="midnightblue" stroke="midnightblue" points="392.13,-254.14 392.37,-243.55 385.58,-251.68 392.13,-254.14"/>
</g>
<!-- Node22&#45;&gt;Node8 -->
<g id="edge59" class="edge">
<title>Node22&#45;&gt;Node8</title>
<path fill="none" stroke="midnightblue" d="M447.33,-469.35C357.29,-462.82 200.88,-448.21 150,-423 110.15,-403.26 79,-396.97 79,-352.5 79,-352.5 79,-352.5 79,-289 79,-232.45 242.78,-202.2 350.02,-188.47"/>
<polygon fill="midnightblue" stroke="midnightblue" points="350.72,-191.9 360.21,-187.19 349.85,-184.96 350.72,-191.9"/>
</g>
<!-- Node23 -->
<g id="node23" class="node">
<title>Node23</title>
<g id="a_node23"><a xlink:href="application_8h.html" target="_top" xlink:title=" ">
<polygon fill="white" stroke="black" points="454,-280.5 454,-299.5 562,-299.5 562,-280.5 454,-280.5"/>
<text text-anchor="middle" x="508" y="-287.5" font-family="Arial" font-size="10.00">miral/application.h</text>
</a>
</g>
</g>
<!-- Node22&#45;&gt;Node23 -->
<g id="edge35" class="edge">
<title>Node22&#45;&gt;Node23</title>
<path fill="none" stroke="midnightblue" d="M512.62,-459.48C511.73,-427.1 509.54,-347.04 508.52,-310.16"/>
<polygon fill="midnightblue" stroke="midnightblue" points="512.01,-309.72 508.24,-299.82 505.02,-309.91 512.01,-309.72"/>
</g>
<!-- Node22&#45;&gt;Node25 -->
<g id="edge39" class="edge">
<title>Node22&#45;&gt;Node25</title>
<path fill="none" stroke="midnightblue" d="M571.46,-459.47C615.55,-448.9 675.16,-434.59 715.68,-424.87"/>
<polygon fill="midnightblue" stroke="midnightblue" points="716.64,-428.24 725.54,-422.51 715,-421.44 716.64,-428.24"/>
</g>
<!-- Node32 -->
<g id="node32" class="node">
<title>Node32</title>
<g id="a_node32"><a xlink:title=" ">
<polygon fill="white" stroke="#bfbfbf" points="594.5,-224.5 594.5,-243.5 659.5,-243.5 659.5,-224.5 594.5,-224.5"/>
<text text-anchor="middle" x="627" y="-231.5" font-family="Arial" font-size="10.00">functional</text>
</a>
</g>
</g>
<!-- Node22&#45;&gt;Node32 -->
<g id="edge60" class="edge">
<title>Node22&#45;&gt;Node32</title>
<path fill="none" stroke="midnightblue" d="M557.47,-459.43C598.09,-443.93 655.69,-414.67 682,-367 704.08,-326.99 665.97,-276.27 642.81,-250.93"/>
<polygon fill="midnightblue" stroke="midnightblue" points="645.33,-248.5 635.91,-243.64 640.25,-253.31 645.33,-248.5"/>
</g>
<!-- Node23&#45;&gt;Node5 -->
<g id="edge37" class="edge">
<title>Node23&#45;&gt;Node5</title>
<path fill="none" stroke="midnightblue" d="M490.01,-280.32C471.96,-271.62 443.95,-258.12 423.2,-248.11"/>
<polygon fill="midnightblue" stroke="midnightblue" points="424.48,-244.84 413.95,-243.65 421.44,-251.15 424.48,-244.84"/>
</g>
<!-- Node23&#45;&gt;Node21 -->
<g id="edge36" class="edge">
<title>Node23&#45;&gt;Node21</title>
<path fill="none" stroke="midnightblue" d="M472.82,-280.44C434.42,-271.1 372.82,-256.12 330.94,-245.93"/>
<polygon fill="midnightblue" stroke="midnightblue" points="331.56,-242.48 321.01,-243.52 329.9,-249.28 331.56,-242.48"/>
</g>
<!-- Node24 -->
<g id="node24" class="node">
<title>Node24</title>
<g id="a_node24"><a xlink:title=" ">
<polygon fill="white" stroke="#bfbfbf" points="490,-224.5 490,-243.5 534,-243.5 534,-224.5 490,-224.5"/>
<text text-anchor="middle" x="512" y="-231.5" font-family="Arial" font-size="10.00">string</text>
</a>
</g>
</g>
<!-- Node23&#45;&gt;Node24 -->
<g id="edge38" class="edge">
<title>Node23&#45;&gt;Node24</title>
<path fill="none" stroke="midnightblue" d="M508.66,-280.08C509.18,-273.01 509.94,-262.86 510.59,-253.99"/>
<polygon fill="midnightblue" stroke="midnightblue" points="514.1,-253.98 511.35,-243.75 507.12,-253.47 514.1,-253.98"/>
</g>
<!-- Node25&#45;&gt;Node16 -->
<g id="edge56" class="edge">
<title>Node25&#45;&gt;Node16</title>
<path fill="none" stroke="midnightblue" d="M804.58,-409.3C861.54,-404.75 956.57,-393.33 978,-367 991.48,-350.43 982.46,-325.17 973.67,-308.38"/>
<polygon fill="midnightblue" stroke="midnightblue" points="976.67,-306.57 968.69,-299.6 970.58,-310.02 976.67,-306.57"/>
</g>
<!-- Node26 -->
<g id="node26" class="node">
<title>Node26</title>
<g id="a_node26"><a xlink:href="window_8h.html" target="_top" xlink:title=" ">
<polygon fill="white" stroke="black" points="393.5,-342 393.5,-361 484.5,-361 484.5,-342 393.5,-342"/>
<text text-anchor="middle" x="439" y="-349" font-family="Arial" font-size="10.00">miral/window.h</text>
</a>
</g>
</g>
<!-- Node25&#45;&gt;Node26 -->
<g id="edge40" class="edge">
<title>Node25&#45;&gt;Node26</title>
<path fill="none" stroke="midnightblue" d="M717.24,-403.91C659.58,-393.26 558.09,-374.51 494.93,-362.83"/>
<polygon fill="midnightblue" stroke="midnightblue" points="495.22,-359.33 484.75,-360.95 493.94,-366.21 495.22,-359.33"/>
</g>
<!-- Node27 -->
<g id="node27" class="node">
<title>Node27</title>
<g id="a_node27"><a xlink:href="window__specification_8h.html" target="_top" xlink:title=" ">
<polygon fill="white" stroke="black" points="811,-342 811,-361 969,-361 969,-342 811,-342"/>
<text text-anchor="middle" x="890" y="-349" font-family="Arial" font-size="10.00">miral/window_specification.h</text>
</a>
</g>
</g>
<!-- Node25&#45;&gt;Node27 -->
<g id="edge45" class="edge">
<title>Node25&#45;&gt;Node27</title>
<path fill="none" stroke="midnightblue" d="M779.48,-403.48C801.13,-393.49 837.21,-376.85 862.23,-365.31"/>
<polygon fill="midnightblue" stroke="midnightblue" points="863.94,-368.38 871.55,-361.01 861.01,-362.02 863.94,-368.38"/>
</g>
<!-- Node28 -->
<g id="node28" class="node">
<title>Node28</title>
<g id="a_node28"><a xlink:href="optional__value_8h.html" target="_top" xlink:title=" ">
<polygon fill="white" stroke="black" points="1092.5,-280.5 1092.5,-299.5 1209.5,-299.5 1209.5,-280.5 1092.5,-280.5"/>
<text text-anchor="middle" x="1151" y="-287.5" font-family="Arial" font-size="10.00">mir/optional_value.h</text>
</a>
</g>
</g>
<!-- Node25&#45;&gt;Node28 -->
<g id="edge57" class="edge">
<title>Node25&#45;&gt;Node28</title>
<path fill="none" stroke="midnightblue" d="M804.57,-407.11C852.23,-400.96 930.44,-388.51 995,-367 1044.26,-350.59 1097.9,-321.83 1127.69,-304.78"/>
<polygon fill="midnightblue" stroke="midnightblue" points="1129.59,-307.73 1136.49,-299.69 1126.09,-301.67 1129.59,-307.73"/>
</g>
<!-- Node33 -->
<g id="node33" class="node">
<title>Node33</title>
<g id="a_node33"><a xlink:title=" ">
<polygon fill="white" stroke="#bfbfbf" points="729,-342 729,-361 793,-361 793,-342 729,-342"/>
<text text-anchor="middle" x="761" y="-349" font-family="Arial" font-size="10.00">algorithm</text>
</a>
</g>
</g>
<!-- Node25&#45;&gt;Node33 -->
<g id="edge58" class="edge">
<title>Node25&#45;&gt;Node33</title>
<path fill="none" stroke="midnightblue" d="M761,-403.48C761,-395.08 761,-381.98 761,-371.16"/>
<polygon fill="midnightblue" stroke="midnightblue" points="764.5,-371.01 761,-361.01 757.5,-371.01 764.5,-371.01"/>
</g>
<!-- Node26&#45;&gt;Node5 -->
<g id="edge44" class="edge">
<title>Node26&#45;&gt;Node5</title>
<path fill="none" stroke="midnightblue" d="M433.53,-341.88C427.51,-332.07 417.91,-315.41 412,-300 406.21,-284.89 401.98,-266.99 399.33,-253.81"/>
<polygon fill="midnightblue" stroke="midnightblue" points="402.71,-252.8 397.41,-243.62 395.83,-254.1 402.71,-252.8"/>
</g>
<!-- Node26&#45;&gt;Node14 -->
<g id="edge42" class="edge">
<title>Node26&#45;&gt;Node14</title>
<path fill="none" stroke="midnightblue" d="M438.43,-341.98C437.8,-328.46 437.72,-301.4 445,-280 454.54,-251.99 459.06,-243.85 481,-224 507.83,-199.71 601.65,-156.79 649.88,-135.58"/>
<polygon fill="midnightblue" stroke="midnightblue" points="651.4,-138.74 659.16,-131.52 648.6,-132.32 651.4,-138.74"/>
</g>
<!-- Node26&#45;&gt;Node18 -->
<g id="edge43" class="edge">
<title>Node26&#45;&gt;Node18</title>
<path fill="none" stroke="midnightblue" d="M393.31,-343.87C314.63,-330.41 166.34,-294.96 214,-224 247.08,-174.74 429.06,-140.33 504.36,-128.01"/>
<polygon fill="midnightblue" stroke="midnightblue" points="504.94,-131.46 514.25,-126.42 503.82,-124.55 504.94,-131.46"/>
</g>
<!-- Node26&#45;&gt;Node23 -->
<g id="edge41" class="edge">
<title>Node26&#45;&gt;Node23</title>
<path fill="none" stroke="midnightblue" d="M448.89,-341.98C459.65,-332.7 477.07,-317.67 490.22,-306.33"/>
<polygon fill="midnightblue" stroke="midnightblue" points="492.84,-308.69 498.13,-299.51 488.27,-303.39 492.84,-308.69"/>
</g>
<!-- Node27&#45;&gt;Node5 -->
<g id="edge55" class="edge">
<title>Node27&#45;&gt;Node5</title>
<path fill="none" stroke="midnightblue" d="M848.89,-341.98C808.1,-333.1 744.03,-317.97 690,-300 668.07,-292.71 664.16,-286.56 642,-280 570.64,-258.87 484.54,-245.86 435.44,-239.57"/>
<polygon fill="midnightblue" stroke="midnightblue" points="435.61,-236.06 425.25,-238.29 434.74,-243.01 435.61,-236.06"/>
</g>
<!-- Node27&#45;&gt;Node8 -->
<g id="edge47" class="edge">
<title>Node27&#45;&gt;Node8</title>
<path fill="none" stroke="midnightblue" d="M864.38,-341.95C800.97,-320.74 638.04,-265.81 585,-244 565.88,-236.14 561.79,-232.62 543,-224 518.66,-212.84 490.83,-200.6 470.4,-191.7"/>
<polygon fill="midnightblue" stroke="midnightblue" points="471.58,-188.4 461.01,-187.63 468.79,-194.82 471.58,-188.4"/>
</g>
<!-- Node27&#45;&gt;Node16 -->
<g id="edge48" class="edge">
<title>Node27&#45;&gt;Node16</title>
<path fill="none" stroke="midnightblue" d="M900.46,-341.98C911.95,-332.61 930.63,-317.38 944.59,-306.01"/>
<polygon fill="midnightblue" stroke="midnightblue" points="947.02,-308.54 952.56,-299.51 942.6,-303.11 947.02,-308.54"/>
</g>
<!-- Node27&#45;&gt;Node21 -->
<g id="edge46" class="edge">
<title>Node27&#45;&gt;Node21</title>
<path fill="none" stroke="midnightblue" d="M842.69,-341.94C792.62,-332.63 711.39,-316.81 642,-300 610.14,-292.28 603.02,-287.01 571,-280 531.07,-271.25 426.2,-255.37 355.43,-245"/>
<polygon fill="midnightblue" stroke="midnightblue" points="355.65,-241.5 345.25,-243.51 354.64,-248.42 355.65,-241.5"/>
</g>
<!-- Node27&#45;&gt;Node28 -->
<g id="edge49" class="edge">
<title>Node27&#45;&gt;Node28</title>
<path fill="none" stroke="midnightblue" d="M927.39,-341.98C973.81,-331.39 1053.02,-313.34 1103.64,-301.8"/>
<polygon fill="midnightblue" stroke="midnightblue" points="1104.7,-305.14 1113.67,-299.51 1103.15,-298.32 1104.7,-305.14"/>
</g>
<!-- Node31 -->
<g id="node31" class="node">
<title>Node31</title>
<g id="a_node31"><a xlink:href="int__wrapper_8h.html" target="_top" xlink:title=" ">
<polygon fill="white" stroke="black" points="770,-280.5 770,-299.5 872,-299.5 872,-280.5 770,-280.5"/>
<text text-anchor="middle" x="821" y="-287.5" font-family="Arial" font-size="10.00">mir/int_wrapper.h</text>
</a>
</g>
</g>
<!-- Node27&#45;&gt;Node31 -->
<g id="edge52" class="edge">
<title>Node27&#45;&gt;Node31</title>
<path fill="none" stroke="midnightblue" d="M880.11,-341.98C869.35,-332.7 851.93,-317.67 838.78,-306.33"/>
<polygon fill="midnightblue" stroke="midnightblue" points="840.73,-303.39 830.87,-299.51 836.16,-308.69 840.73,-303.39"/>
</g>
<!-- Node29 -->
<g id="node29" class="node">
<title>Node29</title>
<g id="a_node29"><a xlink:href="fatal_8h.html" target="_top" xlink:title=" ">
<polygon fill="white" stroke="black" points="1176,-224.5 1176,-243.5 1244,-243.5 1244,-224.5 1176,-224.5"/>
<text text-anchor="middle" x="1210" y="-231.5" font-family="Arial" font-size="10.00">mir/fatal.h</text>
</a>
</g>
</g>
<!-- Node28&#45;&gt;Node29 -->
<g id="edge50" class="edge">
<title>Node28&#45;&gt;Node29</title>
<path fill="none" stroke="midnightblue" d="M1160.48,-280.32C1169.2,-272.34 1182.34,-260.31 1192.9,-250.65"/>
<polygon fill="midnightblue" stroke="midnightblue" points="1195.33,-253.17 1200.35,-243.83 1190.61,-248 1195.33,-253.17"/>
</g>
<!-- Node30 -->
<g id="node30" class="node">
<title>Node30</title>
<g id="a_node30"><a xlink:title=" ">
<polygon fill="white" stroke="#bfbfbf" points="1112.5,-224.5 1112.5,-243.5 1157.5,-243.5 1157.5,-224.5 1112.5,-224.5"/>
<text text-anchor="middle" x="1135" y="-231.5" font-family="Arial" font-size="10.00">utility</text>
</a>
</g>
</g>
<!-- Node28&#45;&gt;Node30 -->
<g id="edge51" class="edge">
<title>Node28&#45;&gt;Node30</title>
<path fill="none" stroke="midnightblue" d="M1148.36,-280.08C1146.21,-272.85 1143.12,-262.41 1140.45,-253.4"/>
<polygon fill="midnightblue" stroke="midnightblue" points="1143.79,-252.34 1137.59,-243.75 1137.08,-254.33 1143.79,-252.34"/>
</g>
<!-- Node31&#45;&gt;Node11 -->
<g id="edge53" class="edge">
<title>Node31&#45;&gt;Node11</title>
<path fill="none" stroke="midnightblue" d="M830.44,-280.31C848.25,-262.93 885,-221.86 885,-179 885,-179 885,-179 885,-121 885,-87.41 871.44,-50.14 862.26,-28.75"/>
<polygon fill="midnightblue" stroke="midnightblue" points="865.45,-27.31 858.18,-19.61 859.06,-30.17 865.45,-27.31"/>
</g>
<!-- Node31&#45;&gt;Node32 -->
<g id="edge54" class="edge">
<title>Node31&#45;&gt;Node32</title>
<path fill="none" stroke="midnightblue" d="M790.26,-280.44C757.06,-271.2 704.01,-256.44 667.44,-246.26"/>
<polygon fill="midnightblue" stroke="midnightblue" points="668.17,-242.83 657.6,-243.52 666.29,-249.57 668.17,-242.83"/>
</g>
<!-- Node34&#45;&gt;Node21 -->
<g id="edge63" class="edge">
<title>Node34&#45;&gt;Node21</title>
<path fill="none" stroke="midnightblue" d="M197.66,-526.35C167,-505.76 117,-464.47 117,-414 117,-414 117,-414 117,-350.5 117,-292.03 186.81,-261.01 236.69,-246.3"/>
<polygon fill="midnightblue" stroke="midnightblue" points="237.7,-249.66 246.38,-243.58 235.8,-242.92 237.7,-249.66"/>
</g>
<!-- Node35&#45;&gt;Node19 -->
<g id="edge67" class="edge">
<title>Node35&#45;&gt;Node19</title>
<path fill="none" stroke="midnightblue" d="M671.81,-341.99C687.57,-339.97 704.39,-337.87 720,-336 792.15,-327.38 992.54,-350.28 1045,-300 1057.22,-288.29 1058.64,-268.35 1057.67,-253.64"/>
<polygon fill="midnightblue" stroke="midnightblue" points="1061.14,-253.2 1056.6,-243.63 1054.18,-253.94 1061.14,-253.2"/>
</g>
<!-- Node35&#45;&gt;Node23 -->
<g id="edge65" class="edge">
<title>Node35&#45;&gt;Node23</title>
<path fill="none" stroke="midnightblue" d="M592.82,-341.98C576.64,-332.25 549.97,-316.23 530.86,-304.74"/>
<polygon fill="midnightblue" stroke="midnightblue" points="532.53,-301.66 522.16,-299.51 528.93,-307.66 532.53,-301.66"/>
</g>
<!-- Node35&#45;&gt;Node24 -->
<g id="edge66" class="edge">
<title>Node35&#45;&gt;Node24</title>
<path fill="none" stroke="midnightblue" d="M604.07,-341.97C598.96,-327.95 587.38,-299.62 571,-280 560.93,-267.94 547.07,-257.16 535.32,-249.18"/>
<polygon fill="midnightblue" stroke="midnightblue" points="537.12,-246.18 526.83,-243.64 533.29,-252.04 537.12,-246.18"/>
</g>
<!-- Node36&#45;&gt;Node34 -->
<g id="edge69" class="edge">
<title>Node36&#45;&gt;Node34</title>
<path fill="none" stroke="midnightblue" d="M221,-593.48C221,-586.47 221,-576.19 221,-566.7"/>
<polygon fill="midnightblue" stroke="midnightblue" points="224.5,-566.52 221,-556.52 217.5,-566.52 224.5,-566.52"/>
</g>
<!-- Node37 -->
<g id="node37" class="node">
<title>Node37</title>
<g id="a_node37"><a xlink:title=" ">
<polygon fill="white" stroke="#bfbfbf" points="0,-532 0,-551 150,-551 150,-532 0,-532"/>
<text text-anchor="middle" x="75" y="-539" font-family="Arial" font-size="10.00">xkbcommon/xkbcommon.h</text>
</a>
</g>
</g>
<!-- Node36&#45;&gt;Node37 -->
<g id="edge70" class="edge">
<title>Node36&#45;&gt;Node37</title>
<path fill="none" stroke="midnightblue" d="M200.08,-593.48C175.25,-583.36 133.66,-566.4 105.31,-554.85"/>
<polygon fill="midnightblue" stroke="midnightblue" points="106.46,-551.54 95.88,-551.01 103.82,-558.02 106.46,-551.54"/>
</g>
</g>
</svg>
