<?xml version="1.0" encoding="UTF-8" standalone="no"?>
<!DOCTYPE svg PUBLIC "-//W3C//DTD SVG 1.1//EN"
 "http://www.w3.org/Graphics/SVG/1.1/DTD/svg11.dtd">
<!-- Generated by graphviz version 2.38.0 (20140413.2041)
 -->
<!-- Title: include/miral/miral/lambda_as_function.h Pages: 1 -->
<svg width="123pt" height="95pt"
 viewBox="0.00 0.00 123.00 95.00" xmlns="http://www.w3.org/2000/svg" xmlns:xlink="http://www.w3.org/1999/xlink">
<g id="graph0" class="graph" transform="scale(1 1) rotate(0) translate(4 91)">
<title>include/miral/miral/lambda_as_function.h</title>
<polygon fill="white" stroke="none" points="-4,4 -4,-91 119,-91 119,4 -4,4"/>
<!-- Node0 -->
<g id="node1" class="node"><title>Node0</title>
<polygon fill="#bfbfbf" stroke="black" points="-7.10543e-15,-56.5 -7.10543e-15,-86.5 115,-86.5 115,-56.5 -7.10543e-15,-56.5"/>
<text text-anchor="start" x="8" y="-74.5" font-family="Arial" font-size="10.00">include/miral/miral</text>
<text text-anchor="middle" x="57.5" y="-63.5" font-family="Arial" font-size="10.00">/lambda_as_function.h</text>
</g>
<!-- Node1 -->
<g id="node2" class="node"><title>Node1</title>
<polygon fill="white" stroke="#bfbfbf" points="28,-0.5 28,-19.5 87,-19.5 87,-0.5 28,-0.5"/>
<text text-anchor="middle" x="57.5" y="-7.5" font-family="Arial" font-size="10.00">functional</text>
</g>
<!-- Node0&#45;&gt;Node1 -->
<g id="edge1" class="edge"><title>Node0&#45;&gt;Node1</title>
<path fill="none" stroke="midnightblue" d="M57.5,-56.3993C57.5,-48.4664 57.5,-38.458 57.5,-29.8583"/>
<polygon fill="midnightblue" stroke="midnightblue" points="61.0001,-29.6577 57.5,-19.6578 54.0001,-29.6578 61.0001,-29.6577"/>
</g>
</g>
</svg>
