<?xml version="1.0" encoding="UTF-8" standalone="no"?>
<!DOCTYPE svg PUBLIC "-//W3C//DTD SVG 1.1//EN"
 "http://www.w3.org/Graphics/SVG/1.1/DTD/svg11.dtd">
<!-- Generated by graphviz version 2.43.0 (0)
 -->
<!-- Title: include/miral/miral/lambda_as_function.h Pages: 1 -->
<svg width="242pt" height="240pt"
 viewBox="0.00 0.00 241.50 240.00" xmlns="http://www.w3.org/2000/svg" xmlns:xlink="http://www.w3.org/1999/xlink">
<g id="graph0" class="graph" transform="scale(1 1) rotate(0) translate(4 236)">
<title>include/miral/miral/lambda_as_function.h</title>
<polygon fill="white" stroke="transparent" points="-4,4 -4,-236 237.5,-236 237.5,4 -4,4"/>
<!-- Node1 -->
<g id="node1" class="node">
<title>Node1</title>
<g id="a_node1"><a xlink:title=" ">
<polygon fill="#bfbfbf" stroke="black" points="60,-201.5 60,-231.5 175,-231.5 175,-201.5 60,-201.5"/>
<text text-anchor="start" x="68" y="-219.5" font-family="Arial" font-size="10.00">include/miral/miral</text>
<text text-anchor="middle" x="117.5" y="-208.5" font-family="Arial" font-size="10.00">/lambda_as_function.h</text>
</a>
</g>
</g>
<!-- Node2 -->
<g id="node2" class="node">
<title>Node2</title>
<g id="a_node2"><a xlink:href="configuration__option_8h.html" target="_top" xlink:title=" ">
<polygon fill="white" stroke="black" points="60,-134.5 60,-164.5 175,-164.5 175,-134.5 60,-134.5"/>
<text text-anchor="start" x="68" y="-152.5" font-family="Arial" font-size="10.00">include/miral/miral</text>
<text text-anchor="middle" x="117.5" y="-141.5" font-family="Arial" font-size="10.00">/configuration_option.h</text>
</a>
</g>
</g>
<!-- Node1&#45;&gt;Node2 -->
<g id="edge1" class="edge">
<title>Node1&#45;&gt;Node2</title>
<path fill="none" stroke="midnightblue" d="M117.5,-191.11C117.5,-182.15 117.5,-172.32 117.5,-164.58"/>
<polygon fill="midnightblue" stroke="midnightblue" points="114,-191.4 117.5,-201.4 121,-191.4 114,-191.4"/>
</g>
<!-- Node3 -->
<g id="node3" class="node">
<title>Node3</title>
<g id="a_node3"><a xlink:href="command__line__option_8h.html" target="_top" xlink:title=" ">
<polygon fill="white" stroke="black" points="56.5,-67.5 56.5,-97.5 178.5,-97.5 178.5,-67.5 56.5,-67.5"/>
<text text-anchor="start" x="64.5" y="-85.5" font-family="Arial" font-size="10.00">include/miral/miral</text>
<text text-anchor="middle" x="117.5" y="-74.5" font-family="Arial" font-size="10.00">/command_line_option.h</text>
</a>
</g>
</g>
<!-- Node2&#45;&gt;Node3 -->
<g id="edge2" class="edge">
<title>Node2&#45;&gt;Node3</title>
<path fill="none" stroke="midnightblue" d="M117.5,-124.11C117.5,-115.15 117.5,-105.32 117.5,-97.58"/>
<polygon fill="midnightblue" stroke="midnightblue" points="114,-124.4 117.5,-134.4 121,-124.4 114,-124.4"/>
</g>
<!-- Node4 -->
<g id="node4" class="node">
<title>Node4</title>
<g id="a_node4"><a xlink:href="kiosk__main_8cpp.html" target="_top" xlink:title=" ">
<polygon fill="white" stroke="black" points="0,-0.5 0,-30.5 109,-30.5 109,-0.5 0,-0.5"/>
<text text-anchor="start" x="8" y="-18.5" font-family="Arial" font-size="10.00">examples/miral&#45;kiosk</text>
<text text-anchor="middle" x="54.5" y="-7.5" font-family="Arial" font-size="10.00">/kiosk_main.cpp</text>
</a>
</g>
</g>
<!-- Node3&#45;&gt;Node4 -->
<g id="edge3" class="edge">
<title>Node3&#45;&gt;Node4</title>
<path fill="none" stroke="midnightblue" d="M96.69,-60.02C87.3,-50.34 76.48,-39.17 68.14,-30.58"/>
<polygon fill="midnightblue" stroke="midnightblue" points="94.36,-62.65 103.83,-67.4 99.38,-57.78 94.36,-62.65"/>
</g>
<!-- Node5 -->
<g id="node5" class="node">
<title>Node5</title>
<g id="a_node5"><a xlink:href="shell__main_8cpp.html" target="_top" xlink:title=" ">
<polygon fill="white" stroke="black" points="127.5,-0.5 127.5,-30.5 233.5,-30.5 233.5,-0.5 127.5,-0.5"/>
<text text-anchor="start" x="135.5" y="-18.5" font-family="Arial" font-size="10.00">examples/miral&#45;shell</text>
<text text-anchor="middle" x="180.5" y="-7.5" font-family="Arial" font-size="10.00">/shell_main.cpp</text>
</a>
</g>
</g>
<!-- Node3&#45;&gt;Node5 -->
<g id="edge4" class="edge">
<title>Node3&#45;&gt;Node5</title>
<path fill="none" stroke="midnightblue" d="M138.31,-60.02C147.7,-50.34 158.52,-39.17 166.86,-30.58"/>
<polygon fill="midnightblue" stroke="midnightblue" points="135.62,-57.78 131.17,-67.4 140.64,-62.65 135.62,-57.78"/>
</g>
</g>
</svg>
