<?xml version="1.0" encoding="UTF-8" standalone="no"?>
<!DOCTYPE svg PUBLIC "-//W3C//DTD SVG 1.1//EN"
 "http://www.w3.org/Graphics/SVG/1.1/DTD/svg11.dtd">
<!-- Generated by graphviz version 2.38.0 (20140413.2041)
 -->
<!-- Title: include/common/mir/logging/logger.h Pages: 1 -->
<svg width="118pt" height="106pt"
 viewBox="0.00 0.00 118.00 106.00" xmlns="http://www.w3.org/2000/svg" xmlns:xlink="http://www.w3.org/1999/xlink">
<g id="graph0" class="graph" transform="scale(1 1) rotate(0) translate(4 102)">
<title>include/common/mir/logging/logger.h</title>
<polygon fill="white" stroke="none" points="-4,4 -4,-102 114,-102 114,4 -4,4"/>
<!-- Node3 -->
<g id="node1" class="node"><title>Node3</title>
<polygon fill="#bfbfbf" stroke="black" points="3,-67.5 3,-97.5 107,-97.5 107,-67.5 3,-67.5"/>
<text text-anchor="start" x="11" y="-85.5" font-family="Arial" font-size="10.00">include/common/mir</text>
<text text-anchor="middle" x="55" y="-74.5" font-family="Arial" font-size="10.00">/logging/logger.h</text>
</g>
<!-- Node4 -->
<g id="node2" class="node"><title>Node4</title>
<g id="a_node2"><a xlink:href="null__logger_8h.html" target="_top" xlink:title="include/test/mir/test\l/doubles/null_logger.h">
<polygon fill="white" stroke="black" points="0,-0.5 0,-30.5 110,-30.5 110,-0.5 0,-0.5"/>
<text text-anchor="start" x="8" y="-18.5" font-family="Arial" font-size="10.00">include/test/mir/test</text>
<text text-anchor="middle" x="55" y="-7.5" font-family="Arial" font-size="10.00">/doubles/null_logger.h</text>
</a>
</g>
</g>
<!-- Node3&#45;&gt;Node4 -->
<g id="edge1" class="edge"><title>Node3&#45;&gt;Node4</title>
<path fill="none" stroke="midnightblue" d="M55,-57.1081C55,-48.1539 55,-38.3227 55,-30.5765"/>
<polygon fill="midnightblue" stroke="midnightblue" points="51.5001,-57.3959 55,-67.396 58.5001,-57.396 51.5001,-57.3959"/>
</g>
</g>
</svg>
