<?xml version="1.0" encoding="UTF-8" standalone="no"?>
<!DOCTYPE svg PUBLIC "-//W3C//DTD SVG 1.1//EN"
 "http://www.w3.org/Graphics/SVG/1.1/DTD/svg11.dtd">
<!-- Generated by graphviz version 2.38.0 (20140413.2041)
 -->
<!-- Title: include/client/mir_toolkit/mir_window_id.h Pages: 1 -->
<svg width="1706pt" height="374pt"
 viewBox="0.00 0.00 1706.12 374.00" xmlns="http://www.w3.org/2000/svg" xmlns:xlink="http://www.w3.org/1999/xlink">
<g id="graph0" class="graph" transform="scale(1 1) rotate(0) translate(4 370)">
<title>include/client/mir_toolkit/mir_window_id.h</title>
<polygon fill="white" stroke="none" points="-4,4 -4,-370 1702.12,-370 1702.12,4 -4,4"/>
<!-- Node0 -->
<g id="node1" class="node"><title>Node0</title>
<polygon fill="#bfbfbf" stroke="black" points="715,-335.5 715,-365.5 837,-365.5 837,-335.5 715,-335.5"/>
<text text-anchor="start" x="723" y="-353.5" font-family="Arial" font-size="10.00">include/client/mir</text>
<text text-anchor="middle" x="776" y="-342.5" font-family="Arial" font-size="10.00">_toolkit/mir_window_id.h</text>
</g>
<!-- Node1 -->
<g id="node2" class="node"><title>Node1</title>
<g id="a_node2"><a xlink:href="client__types_8h.html" target="_top" xlink:title="mir_toolkit/client\l_types.h">
<polygon fill="white" stroke="black" points="1508,-268.5 1508,-298.5 1596,-298.5 1596,-268.5 1508,-268.5"/>
<text text-anchor="start" x="1516" y="-286.5" font-family="Arial" font-size="10.00">mir_toolkit/client</text>
<text text-anchor="middle" x="1552" y="-275.5" font-family="Arial" font-size="10.00">_types.h</text>
</a>
</g>
</g>
<!-- Node0&#45;&gt;Node1 -->
<g id="edge1" class="edge"><title>Node0&#45;&gt;Node1</title>
<path fill="none" stroke="midnightblue" d="M837.215,-344.372C984.731,-332.016 1357.99,-300.751 1497.91,-289.03"/>
<polygon fill="midnightblue" stroke="midnightblue" points="1498.3,-292.51 1507.97,-288.188 1497.72,-285.535 1498.3,-292.51"/>
</g>
<!-- Node9 -->
<g id="node10" class="node"><title>Node9</title>
<polygon fill="white" stroke="#bfbfbf" points="10,-0.5 10,-19.5 66,-19.5 66,-0.5 10,-0.5"/>
<text text-anchor="middle" x="38" y="-7.5" font-family="Arial" font-size="10.00">stdbool.h</text>
</g>
<!-- Node0&#45;&gt;Node9 -->
<g id="edge46" class="edge"><title>Node0&#45;&gt;Node9</title>
<path fill="none" stroke="midnightblue" d="M714.785,-345.539C531.546,-332.871 0,-289.886 0,-217.5 0,-217.5 0,-217.5 0,-143 0,-100.85 18.1143,-53.9796 29.3297,-28.9998"/>
<polygon fill="midnightblue" stroke="midnightblue" points="32.6052,-30.256 33.6409,-19.7119 26.2559,-27.3087 32.6052,-30.256"/>
</g>
<!-- Node2 -->
<g id="node3" class="node"><title>Node2</title>
<g id="a_node3"><a xlink:href="toolkit_2events_2event_8h.html" target="_top" xlink:title="mir_toolkit/events\l/event.h">
<polygon fill="white" stroke="black" points="859,-201.5 859,-231.5 953,-231.5 953,-201.5 859,-201.5"/>
<text text-anchor="start" x="867" y="-219.5" font-family="Arial" font-size="10.00">mir_toolkit/events</text>
<text text-anchor="middle" x="906" y="-208.5" font-family="Arial" font-size="10.00">/event.h</text>
</a>
</g>
</g>
<!-- Node1&#45;&gt;Node2 -->
<g id="edge2" class="edge"><title>Node1&#45;&gt;Node2</title>
<path fill="none" stroke="midnightblue" d="M1507.85,-278.058C1394.11,-266.613 1091.08,-236.123 963.689,-223.305"/>
<polygon fill="midnightblue" stroke="midnightblue" points="963.67,-219.785 953.369,-222.266 962.969,-226.75 963.67,-219.785"/>
</g>
<!-- Node3 -->
<g id="node4" class="node"><title>Node3</title>
<polygon fill="white" stroke="#bfbfbf" points="1625,-134.5 1625,-153.5 1677,-153.5 1677,-134.5 1625,-134.5"/>
<text text-anchor="middle" x="1651" y="-141.5" font-family="Arial" font-size="10.00">stddef.h</text>
</g>
<!-- Node1&#45;&gt;Node3 -->
<g id="edge45" class="edge"><title>Node1&#45;&gt;Node3</title>
<path fill="none" stroke="midnightblue" d="M1562.22,-268.303C1580.6,-242.781 1619.13,-189.267 1638.83,-161.901"/>
<polygon fill="midnightblue" stroke="midnightblue" points="1641.73,-163.861 1644.74,-153.701 1636.05,-159.771 1641.73,-163.861"/>
</g>
<!-- Node5 -->
<g id="node6" class="node"><title>Node5</title>
<g id="a_node6"><a xlink:href="common_8h.html" target="_top" xlink:title="mir_toolkit/common.h">
<polygon fill="white" stroke="black" points="1497,-134.5 1497,-153.5 1607,-153.5 1607,-134.5 1497,-134.5"/>
<text text-anchor="middle" x="1552" y="-141.5" font-family="Arial" font-size="10.00">mir_toolkit/common.h</text>
</a>
</g>
</g>
<!-- Node1&#45;&gt;Node5 -->
<g id="edge43" class="edge"><title>Node1&#45;&gt;Node5</title>
<path fill="none" stroke="midnightblue" d="M1552,-268.303C1552,-243.336 1552,-191.58 1552,-163.722"/>
<polygon fill="midnightblue" stroke="midnightblue" points="1555.5,-163.701 1552,-153.701 1548.5,-163.701 1555.5,-163.701"/>
</g>
<!-- Node6 -->
<g id="node7" class="node"><title>Node6</title>
<g id="a_node7"><a xlink:href="deprecations_8h.html" target="_top" xlink:title="mir_toolkit/deprecations.h">
<polygon fill="white" stroke="black" points="1306,-62 1306,-81 1434,-81 1434,-62 1306,-62"/>
<text text-anchor="middle" x="1370" y="-69" font-family="Arial" font-size="10.00">mir_toolkit/deprecations.h</text>
</a>
</g>
</g>
<!-- Node1&#45;&gt;Node6 -->
<g id="edge44" class="edge"><title>Node1&#45;&gt;Node6</title>
<path fill="none" stroke="midnightblue" d="M1579.78,-268.359C1631.1,-240.455 1731.53,-176.384 1686,-123 1655.59,-87.3415 1528.01,-76.7499 1444.55,-73.6727"/>
<polygon fill="midnightblue" stroke="midnightblue" points="1444.46,-70.1677 1434.35,-73.3256 1444.22,-77.1637 1444.46,-70.1677"/>
</g>
<!-- Node2&#45;&gt;Node3 -->
<g id="edge3" class="edge"><title>Node2&#45;&gt;Node3</title>
<path fill="none" stroke="midnightblue" d="M953.029,-214.874C1090.77,-212.613 1491.41,-202.869 1616,-165 1620.85,-163.526 1625.76,-161.284 1630.3,-158.828"/>
<polygon fill="midnightblue" stroke="midnightblue" points="1632.18,-161.783 1638.99,-153.662 1628.6,-155.768 1632.18,-161.783"/>
</g>
<!-- Node4 -->
<g id="node5" class="node"><title>Node4</title>
<polygon fill="white" stroke="#bfbfbf" points="217.5,-0.5 217.5,-19.5 266.5,-19.5 266.5,-0.5 217.5,-0.5"/>
<text text-anchor="middle" x="242" y="-7.5" font-family="Arial" font-size="10.00">stdint.h</text>
</g>
<!-- Node2&#45;&gt;Node4 -->
<g id="edge4" class="edge"><title>Node2&#45;&gt;Node4</title>
<path fill="none" stroke="midnightblue" d="M858.845,-214.266C690.241,-209.636 125.85,-192.154 99,-165 64.9151,-130.529 66.1717,-94.9738 95,-56 120.603,-21.3861 172.308,-12.5268 207.053,-10.7086"/>
<polygon fill="midnightblue" stroke="midnightblue" points="207.374,-14.1996 217.244,-10.3496 207.127,-7.20389 207.374,-14.1996"/>
</g>
<!-- Node2&#45;&gt;Node5 -->
<g id="edge5" class="edge"><title>Node2&#45;&gt;Node5</title>
<path fill="none" stroke="midnightblue" d="M953.161,-214.773C1052.71,-212.503 1291.23,-203.179 1487,-165 1497.52,-162.949 1508.75,-159.839 1518.86,-156.678"/>
<polygon fill="midnightblue" stroke="midnightblue" points="1520.1,-159.954 1528.53,-153.538 1517.94,-153.296 1520.1,-159.954"/>
</g>
<!-- Node2&#45;&gt;Node6 -->
<g id="edge7" class="edge"><title>Node2&#45;&gt;Node6</title>
<path fill="none" stroke="midnightblue" d="M953.169,-211.704C1028.78,-204.987 1173.17,-189.372 1218,-165 1240.12,-152.978 1235.6,-137.753 1256,-123 1279.48,-106.017 1309.58,-92.9855 1332.95,-84.4176"/>
<polygon fill="midnightblue" stroke="midnightblue" points="1334.27,-87.6651 1342.52,-81.0204 1331.92,-81.0687 1334.27,-87.6651"/>
</g>
<!-- Node7 -->
<g id="node8" class="node"><title>Node7</title>
<g id="a_node8"><a xlink:href="input__event_8h.html" target="_top" xlink:title="mir_toolkit/events\l/input/input_event.h">
<polygon fill="white" stroke="black" points="108,-129 108,-159 210,-159 210,-129 108,-129"/>
<text text-anchor="start" x="116" y="-147" font-family="Arial" font-size="10.00">mir_toolkit/events</text>
<text text-anchor="middle" x="159" y="-136" font-family="Arial" font-size="10.00">/input/input_event.h</text>
</a>
</g>
</g>
<!-- Node2&#45;&gt;Node7 -->
<g id="edge8" class="edge"><title>Node2&#45;&gt;Node7</title>
<path fill="none" stroke="midnightblue" d="M858.896,-216.017C745.6,-216.548 450.103,-213.062 210,-165 205.821,-164.164 201.53,-163.121 197.289,-161.954"/>
<polygon fill="midnightblue" stroke="midnightblue" points="198.141,-158.556 187.558,-159.044 196.136,-165.262 198.141,-158.556"/>
</g>
<!-- Node14 -->
<g id="node15" class="node"><title>Node14</title>
<g id="a_node15"><a xlink:href="resize__event_8h.html" target="_top" xlink:title="mir_toolkit/events\l/resize_event.h">
<polygon fill="white" stroke="black" points="228,-129 228,-159 322,-159 322,-129 228,-129"/>
<text text-anchor="start" x="236" y="-147" font-family="Arial" font-size="10.00">mir_toolkit/events</text>
<text text-anchor="middle" x="275" y="-136" font-family="Arial" font-size="10.00">/resize_event.h</text>
</a>
</g>
</g>
<!-- Node2&#45;&gt;Node14 -->
<g id="edge19" class="edge"><title>Node2&#45;&gt;Node14</title>
<path fill="none" stroke="midnightblue" d="M858.892,-215.455C758.612,-214.557 517.794,-207.821 322,-165 318.357,-164.203 314.626,-163.233 310.932,-162.154"/>
<polygon fill="midnightblue" stroke="midnightblue" points="311.909,-158.792 301.319,-159.09 309.783,-165.462 311.909,-158.792"/>
</g>
<!-- Node15 -->
<g id="node16" class="node"><title>Node15</title>
<g id="a_node16"><a xlink:href="surface__event_8h.html" target="_top" xlink:title="mir_toolkit/events\l/surface_event.h">
<polygon fill="white" stroke="black" points="1265,-129 1265,-159 1359,-159 1359,-129 1265,-129"/>
<text text-anchor="start" x="1273" y="-147" font-family="Arial" font-size="10.00">mir_toolkit/events</text>
<text text-anchor="middle" x="1312" y="-136" font-family="Arial" font-size="10.00">/surface_event.h</text>
</a>
</g>
</g>
<!-- Node2&#45;&gt;Node15 -->
<g id="edge21" class="edge"><title>Node2&#45;&gt;Node15</title>
<path fill="none" stroke="midnightblue" d="M953.195,-210.55C1018.7,-203.573 1140.21,-188.951 1242,-165 1246.26,-163.997 1250.66,-162.83 1255.07,-161.573"/>
<polygon fill="midnightblue" stroke="midnightblue" points="1256.14,-164.908 1264.73,-158.708 1254.15,-158.197 1256.14,-164.908"/>
</g>
<!-- Node16 -->
<g id="node17" class="node"><title>Node16</title>
<g id="a_node17"><a xlink:href="window__event_8h.html" target="_top" xlink:title="mir_toolkit/events\l/window_event.h">
<polygon fill="white" stroke="black" points="340,-129 340,-159 434,-159 434,-129 340,-129"/>
<text text-anchor="start" x="348" y="-147" font-family="Arial" font-size="10.00">mir_toolkit/events</text>
<text text-anchor="middle" x="387" y="-136" font-family="Arial" font-size="10.00">/window_event.h</text>
</a>
</g>
</g>
<!-- Node2&#45;&gt;Node16 -->
<g id="edge24" class="edge"><title>Node2&#45;&gt;Node16</title>
<path fill="none" stroke="midnightblue" d="M858.838,-214.204C772.98,-210.959 586.489,-200.035 434,-165 430.524,-164.201 426.966,-163.254 423.435,-162.213"/>
<polygon fill="midnightblue" stroke="midnightblue" points="424.23,-158.792 413.639,-159.075 422.094,-165.459 424.23,-158.792"/>
</g>
<!-- Node17 -->
<g id="node18" class="node"><title>Node17</title>
<g id="a_node18"><a xlink:href="orientation__event_8h.html" target="_top" xlink:title="mir_toolkit/events\l/orientation_event.h">
<polygon fill="white" stroke="black" points="452,-129 452,-159 554,-159 554,-129 452,-129"/>
<text text-anchor="start" x="460" y="-147" font-family="Arial" font-size="10.00">mir_toolkit/events</text>
<text text-anchor="middle" x="503" y="-136" font-family="Arial" font-size="10.00">/orientation_event.h</text>
</a>
</g>
</g>
<!-- Node2&#45;&gt;Node17 -->
<g id="edge26" class="edge"><title>Node2&#45;&gt;Node17</title>
<path fill="none" stroke="midnightblue" d="M858.939,-211.778C790.734,-205.41 661.294,-190.571 554,-165 550.312,-164.121 546.527,-163.115 542.76,-162.033"/>
<polygon fill="midnightblue" stroke="midnightblue" points="543.5,-158.599 532.913,-159.023 541.454,-165.293 543.5,-158.599"/>
</g>
<!-- Node18 -->
<g id="node19" class="node"><title>Node18</title>
<g id="a_node19"><a xlink:href="prompt__session__event_8h.html" target="_top" xlink:title="mir_toolkit/events\l/prompt_session_event.h">
<polygon fill="white" stroke="black" points="572,-129 572,-159 698,-159 698,-129 572,-129"/>
<text text-anchor="start" x="580" y="-147" font-family="Arial" font-size="10.00">mir_toolkit/events</text>
<text text-anchor="middle" x="635" y="-136" font-family="Arial" font-size="10.00">/prompt_session_event.h</text>
</a>
</g>
</g>
<!-- Node2&#45;&gt;Node18 -->
<g id="edge28" class="edge"><title>Node2&#45;&gt;Node18</title>
<path fill="none" stroke="midnightblue" d="M858.687,-205.513C816.273,-195.511 752.773,-179.555 698,-165 693.98,-163.932 689.837,-162.817 685.684,-161.685"/>
<polygon fill="midnightblue" stroke="midnightblue" points="686.595,-158.306 676.025,-159.024 684.736,-165.054 686.595,-158.306"/>
</g>
<!-- Node19 -->
<g id="node20" class="node"><title>Node19</title>
<g id="a_node20"><a xlink:href="keymap__event_8h.html" target="_top" xlink:title="mir_toolkit/events\l/keymap_event.h">
<polygon fill="white" stroke="black" points="975,-129 975,-159 1069,-159 1069,-129 975,-129"/>
<text text-anchor="start" x="983" y="-147" font-family="Arial" font-size="10.00">mir_toolkit/events</text>
<text text-anchor="middle" x="1022" y="-136" font-family="Arial" font-size="10.00">/keymap_event.h</text>
</a>
</g>
</g>
<!-- Node2&#45;&gt;Node19 -->
<g id="edge30" class="edge"><title>Node2&#45;&gt;Node19</title>
<path fill="none" stroke="midnightblue" d="M923.669,-201.403C939.871,-190.692 964.115,-175.846 984.542,-164.074"/>
<polygon fill="midnightblue" stroke="midnightblue" points="986.365,-167.064 993.322,-159.073 982.9,-160.981 986.365,-167.064"/>
</g>
<!-- Node20 -->
<g id="node21" class="node"><title>Node20</title>
<g id="a_node21"><a xlink:href="input__configuration__event_8h.html" target="_top" xlink:title="mir_toolkit/events\l/input_configuration\l_event.h">
<polygon fill="white" stroke="black" points="1377.5,-123.5 1377.5,-164.5 1478.5,-164.5 1478.5,-123.5 1377.5,-123.5"/>
<text text-anchor="start" x="1385.5" y="-152.5" font-family="Arial" font-size="10.00">mir_toolkit/events</text>
<text text-anchor="start" x="1385.5" y="-141.5" font-family="Arial" font-size="10.00">/input_configuration</text>
<text text-anchor="middle" x="1428" y="-130.5" font-family="Arial" font-size="10.00">_event.h</text>
</a>
</g>
</g>
<!-- Node2&#45;&gt;Node20 -->
<g id="edge33" class="edge"><title>Node2&#45;&gt;Node20</title>
<path fill="none" stroke="midnightblue" d="M953.309,-213.378C1036.37,-209.096 1212.98,-196.935 1359,-165 1361.82,-164.384 1364.68,-163.684 1367.58,-162.924"/>
<polygon fill="midnightblue" stroke="midnightblue" points="1368.77,-166.223 1377.45,-160.142 1366.88,-159.485 1368.77,-166.223"/>
</g>
<!-- Node21 -->
<g id="node22" class="node"><title>Node21</title>
<g id="a_node22"><a xlink:href="surface__output__event_8h.html" target="_top" xlink:title="mir_toolkit/events\l/surface_output_event.h">
<polygon fill="white" stroke="black" points="1087,-129 1087,-159 1209,-159 1209,-129 1087,-129"/>
<text text-anchor="start" x="1095" y="-147" font-family="Arial" font-size="10.00">mir_toolkit/events</text>
<text text-anchor="middle" x="1148" y="-136" font-family="Arial" font-size="10.00">/surface_output_event.h</text>
</a>
</g>
</g>
<!-- Node2&#45;&gt;Node21 -->
<g id="edge36" class="edge"><title>Node2&#45;&gt;Node21</title>
<path fill="none" stroke="midnightblue" d="M948.586,-201.487C986.193,-190.087 1041.43,-173.963 1084.28,-161.858"/>
<polygon fill="midnightblue" stroke="midnightblue" points="1085.37,-165.186 1094.05,-159.107 1083.47,-158.448 1085.37,-165.186"/>
</g>
<!-- Node22 -->
<g id="node23" class="node"><title>Node22</title>
<g id="a_node23"><a xlink:href="window__output__event_8h.html" target="_top" xlink:title="mir_toolkit/events\l/window_output_event.h">
<polygon fill="white" stroke="black" points="716.5,-129 716.5,-159 837.5,-159 837.5,-129 716.5,-129"/>
<text text-anchor="start" x="724.5" y="-147" font-family="Arial" font-size="10.00">mir_toolkit/events</text>
<text text-anchor="middle" x="777" y="-136" font-family="Arial" font-size="10.00">/window_output_event.h</text>
</a>
</g>
</g>
<!-- Node2&#45;&gt;Node22 -->
<g id="edge39" class="edge"><title>Node2&#45;&gt;Node22</title>
<path fill="none" stroke="midnightblue" d="M874.679,-201.403C853.752,-190.74 826.556,-175.979 806.103,-164.232"/>
<polygon fill="midnightblue" stroke="midnightblue" points="807.632,-161.073 797.227,-159.073 804.114,-167.124 807.632,-161.073"/>
</g>
<!-- Node23 -->
<g id="node24" class="node"><title>Node23</title>
<g id="a_node24"><a xlink:href="input__device__state__event_8h.html" target="_top" xlink:title="mir_toolkit/events\l/input_device_state\l_event.h">
<polygon fill="white" stroke="black" points="855.5,-123.5 855.5,-164.5 956.5,-164.5 956.5,-123.5 855.5,-123.5"/>
<text text-anchor="start" x="863.5" y="-152.5" font-family="Arial" font-size="10.00">mir_toolkit/events</text>
<text text-anchor="start" x="863.5" y="-141.5" font-family="Arial" font-size="10.00">/input_device_state</text>
<text text-anchor="middle" x="906" y="-130.5" font-family="Arial" font-size="10.00">_event.h</text>
</a>
</g>
</g>
<!-- Node2&#45;&gt;Node23 -->
<g id="edge41" class="edge"><title>Node2&#45;&gt;Node23</title>
<path fill="none" stroke="midnightblue" d="M900.451,-201.233C899.448,-193.574 899.073,-183.837 899.327,-174.626"/>
<polygon fill="midnightblue" stroke="midnightblue" points="902.824,-174.766 899.881,-164.588 895.835,-174.38 902.824,-174.766"/>
</g>
<!-- Node5&#45;&gt;Node6 -->
<g id="edge6" class="edge"><title>Node5&#45;&gt;Node6</title>
<path fill="none" stroke="midnightblue" d="M1530.05,-134.496C1498.07,-122.11 1438.51,-99.0366 1401.75,-84.7992"/>
<polygon fill="midnightblue" stroke="midnightblue" points="1402.62,-81.3826 1392.03,-81.0341 1400.09,-87.91 1402.62,-81.3826"/>
</g>
<!-- Node7&#45;&gt;Node2 -->
<g id="edge9" class="edge"><title>Node7&#45;&gt;Node2</title>
<path fill="none" stroke="midnightblue" d="M205.205,-159.044C212.788,-161.375 220.571,-163.513 228,-165 454.808,-210.401 731.046,-216.025 848.678,-216.062"/>
<polygon fill="midnightblue" stroke="midnightblue" points="848.893,-219.561 858.89,-216.051 848.886,-212.561 848.893,-219.561"/>
</g>
<!-- Node7&#45;&gt;Node4 -->
<g id="edge12" class="edge"><title>Node7&#45;&gt;Node4</title>
<path fill="none" stroke="midnightblue" d="M181.103,-128.916C195.123,-118.868 212.531,-104.134 223,-87 233.728,-69.4429 238.411,-46.0961 240.448,-29.9335"/>
<polygon fill="midnightblue" stroke="midnightblue" points="243.968,-29.9263 241.512,-19.6199 237.005,-29.2079 243.968,-29.9263"/>
</g>
<!-- Node8 -->
<g id="node9" class="node"><title>Node8</title>
<g id="a_node9"><a xlink:href="mir__input__device__types_8h.html" target="_top" xlink:title="mir_toolkit/mir_input\l_device_types.h">
<polygon fill="white" stroke="black" points="394,-56.5 394,-86.5 498,-86.5 498,-56.5 394,-56.5"/>
<text text-anchor="start" x="402" y="-74.5" font-family="Arial" font-size="10.00">mir_toolkit/mir_input</text>
<text text-anchor="middle" x="446" y="-63.5" font-family="Arial" font-size="10.00">_device_types.h</text>
</a>
</g>
</g>
<!-- Node7&#45;&gt;Node8 -->
<g id="edge10" class="edge"><title>Node7&#45;&gt;Node8</title>
<path fill="none" stroke="midnightblue" d="M199.162,-128.956C205.755,-126.84 212.542,-124.775 219,-123 291.373,-103.104 310.788,-103.547 384,-87 384.101,-86.9772 384.202,-86.9543 384.304,-86.9314"/>
<polygon fill="midnightblue" stroke="midnightblue" points="384.946,-90.3749 393.918,-84.74 383.39,-83.5499 384.946,-90.3749"/>
</g>
<!-- Node7&#45;&gt;Node9 -->
<g id="edge13" class="edge"><title>Node7&#45;&gt;Node9</title>
<path fill="none" stroke="midnightblue" d="M140.991,-128.948C127.644,-118.14 109.356,-102.48 95,-87 77.5625,-68.1969 60.2802,-44.1989 49.397,-28.2526"/>
<polygon fill="midnightblue" stroke="midnightblue" points="52.2607,-26.239 43.7757,-19.8942 46.4521,-30.1455 52.2607,-26.239"/>
</g>
<!-- Node10 -->
<g id="node11" class="node"><title>Node10</title>
<g id="a_node11"><a xlink:href="touch__event_8h.html" target="_top" xlink:title="mir_toolkit/events\l/input/touch_event.h">
<polygon fill="white" stroke="black" points="270.5,-56.5 270.5,-86.5 375.5,-86.5 375.5,-56.5 270.5,-56.5"/>
<text text-anchor="start" x="278.5" y="-74.5" font-family="Arial" font-size="10.00">mir_toolkit/events</text>
<text text-anchor="middle" x="323" y="-63.5" font-family="Arial" font-size="10.00">/input/touch_event.h</text>
</a>
</g>
</g>
<!-- Node7&#45;&gt;Node10 -->
<g id="edge14" class="edge"><title>Node7&#45;&gt;Node10</title>
<path fill="none" stroke="midnightblue" d="M191.794,-128.903C217.38,-117.904 253.11,-102.544 280.824,-90.6304"/>
<polygon fill="midnightblue" stroke="midnightblue" points="282.458,-93.7377 290.263,-86.5729 279.694,-87.3068 282.458,-93.7377"/>
</g>
<!-- Node11 -->
<g id="node12" class="node"><title>Node11</title>
<g id="a_node12"><a xlink:href="keyboard__event_8h.html" target="_top" xlink:title="mir_toolkit/events\l/input/keyboard_event.h">
<polygon fill="white" stroke="black" points="694.5,-56.5 694.5,-86.5 815.5,-86.5 815.5,-56.5 694.5,-56.5"/>
<text text-anchor="start" x="702.5" y="-74.5" font-family="Arial" font-size="10.00">mir_toolkit/events</text>
<text text-anchor="middle" x="755" y="-63.5" font-family="Arial" font-size="10.00">/input/keyboard_event.h</text>
</a>
</g>
</g>
<!-- Node7&#45;&gt;Node11 -->
<g id="edge15" class="edge"><title>Node7&#45;&gt;Node11</title>
<path fill="none" stroke="midnightblue" d="M196.729,-128.976C204.036,-126.674 211.694,-124.541 219,-123 305.954,-104.662 559.462,-85.704 684.119,-77.1646"/>
<polygon fill="midnightblue" stroke="midnightblue" points="684.581,-80.6413 694.32,-76.4694 684.105,-73.6575 684.581,-80.6413"/>
</g>
<!-- Node13 -->
<g id="node14" class="node"><title>Node13</title>
<g id="a_node14"><a xlink:href="pointer__event_8h.html" target="_top" xlink:title="mir_toolkit/events\l/input/pointer_event.h">
<polygon fill="white" stroke="black" points="104,-56.5 104,-86.5 214,-86.5 214,-56.5 104,-56.5"/>
<text text-anchor="start" x="112" y="-74.5" font-family="Arial" font-size="10.00">mir_toolkit/events</text>
<text text-anchor="middle" x="159" y="-63.5" font-family="Arial" font-size="10.00">/input/pointer_event.h</text>
</a>
</g>
</g>
<!-- Node7&#45;&gt;Node13 -->
<g id="edge17" class="edge"><title>Node7&#45;&gt;Node13</title>
<path fill="none" stroke="midnightblue" d="M159,-128.733C159,-119.655 159,-107.658 159,-97.0773"/>
<polygon fill="midnightblue" stroke="midnightblue" points="162.5,-96.7455 159,-86.7455 155.5,-96.7455 162.5,-96.7455"/>
</g>
<!-- Node8&#45;&gt;Node4 -->
<g id="edge11" class="edge"><title>Node8&#45;&gt;Node4</title>
<path fill="none" stroke="midnightblue" d="M397.913,-56.4747C360.55,-45.5771 309.643,-30.7291 276.312,-21.0077"/>
<polygon fill="midnightblue" stroke="midnightblue" points="277.147,-17.6054 266.567,-18.1653 275.187,-24.3254 277.147,-17.6054"/>
</g>
<!-- Node12 -->
<g id="node13" class="node"><title>Node12</title>
<polygon fill="white" stroke="#bfbfbf" points="777,-0.5 777,-19.5 911,-19.5 911,-0.5 777,-0.5"/>
<text text-anchor="middle" x="844" y="-7.5" font-family="Arial" font-size="10.00">xkbcommon/xkbcommon.h</text>
</g>
<!-- Node11&#45;&gt;Node12 -->
<g id="edge16" class="edge"><title>Node11&#45;&gt;Node12</title>
<path fill="none" stroke="midnightblue" d="M776.092,-56.3993C790.091,-47.0402 808.411,-34.7924 822.495,-25.3771"/>
<polygon fill="midnightblue" stroke="midnightblue" points="824.682,-28.1253 831.05,-19.6578 820.791,-22.3059 824.682,-28.1253"/>
</g>
<!-- Node13&#45;&gt;Node9 -->
<g id="edge18" class="edge"><title>Node13&#45;&gt;Node9</title>
<path fill="none" stroke="midnightblue" d="M130.325,-56.3993C110.476,-46.6391 84.2389,-33.7373 64.8084,-24.1826"/>
<polygon fill="midnightblue" stroke="midnightblue" points="66.1248,-20.9297 55.6066,-19.6578 63.0359,-27.2114 66.1248,-20.9297"/>
</g>
<!-- Node14&#45;&gt;Node2 -->
<g id="edge20" class="edge"><title>Node14&#45;&gt;Node2</title>
<path fill="none" stroke="midnightblue" d="M318.981,-159.09C325.976,-161.386 333.142,-163.5 340,-165 523.141,-205.053 745.675,-213.535 848.716,-215.199"/>
<polygon fill="midnightblue" stroke="midnightblue" points="848.853,-218.702 858.903,-215.348 848.955,-211.702 848.853,-218.702"/>
</g>
<!-- Node15&#45;&gt;Node2 -->
<g id="edge22" class="edge"><title>Node15&#45;&gt;Node2</title>
<path fill="none" stroke="midnightblue" d="M1281.43,-159.016C1274.45,-161.235 1267.05,-163.341 1260,-165 1156.94,-189.248 1033.67,-203.935 963.038,-210.807"/>
<polygon fill="midnightblue" stroke="midnightblue" points="962.629,-207.33 953.007,-211.765 963.294,-214.299 962.629,-207.33"/>
</g>
<!-- Node15&#45;&gt;Node6 -->
<g id="edge23" class="edge"><title>Node15&#45;&gt;Node6</title>
<path fill="none" stroke="midnightblue" d="M1323.74,-128.733C1333.11,-117.337 1346.27,-101.339 1356.16,-89.3197"/>
<polygon fill="midnightblue" stroke="midnightblue" points="1359.03,-91.3393 1362.68,-81.3932 1353.63,-86.892 1359.03,-91.3393"/>
</g>
<!-- Node16&#45;&gt;Node2 -->
<g id="edge25" class="edge"><title>Node16&#45;&gt;Node2</title>
<path fill="none" stroke="midnightblue" d="M431.316,-159.075C438.21,-161.343 445.259,-163.451 452,-165 592.474,-197.274 761.803,-209.087 848.658,-213.286"/>
<polygon fill="midnightblue" stroke="midnightblue" points="848.682,-216.791 858.834,-213.761 849.008,-209.798 848.682,-216.791"/>
</g>
<!-- Node17&#45;&gt;Node2 -->
<g id="edge27" class="edge"><title>Node17&#45;&gt;Node2</title>
<path fill="none" stroke="midnightblue" d="M550.619,-159.023C557.772,-161.242 565.057,-163.345 572,-165 667.871,-187.849 781.424,-202.129 848.463,-209.454"/>
<polygon fill="midnightblue" stroke="midnightblue" points="848.496,-212.977 858.813,-210.57 849.246,-206.018 848.496,-212.977"/>
</g>
<!-- Node18&#45;&gt;Node2 -->
<g id="edge29" class="edge"><title>Node18&#45;&gt;Node2</title>
<path fill="none" stroke="midnightblue" d="M693.826,-159.024C701.32,-161.056 708.853,-163.101 716,-165 760.746,-176.891 811.316,-189.716 849.105,-199.466"/>
<polygon fill="midnightblue" stroke="midnightblue" points="848.358,-202.888 858.916,-202.004 850.111,-196.111 848.358,-202.888"/>
</g>
<!-- Node19&#45;&gt;Node2 -->
<g id="edge31" class="edge"><title>Node19&#45;&gt;Node2</title>
<path fill="none" stroke="midnightblue" d="M1004.37,-159.073C988.178,-169.778 963.937,-184.622 943.504,-196.399"/>
<polygon fill="midnightblue" stroke="midnightblue" points="941.678,-193.411 934.722,-201.403 945.143,-199.494 941.678,-193.411"/>
</g>
<!-- Node19&#45;&gt;Node12 -->
<g id="edge32" class="edge"><title>Node19&#45;&gt;Node12</title>
<path fill="none" stroke="midnightblue" d="M1002.95,-128.874C969.031,-103.72 898.492,-51.41 863.942,-25.7883"/>
<polygon fill="midnightblue" stroke="midnightblue" points="865.71,-22.7426 855.593,-19.5973 861.541,-28.3652 865.71,-22.7426"/>
</g>
<!-- Node20&#45;&gt;Node2 -->
<g id="edge34" class="edge"><title>Node20&#45;&gt;Node2</title>
<path fill="none" stroke="midnightblue" d="M1378.94,-164.565C1378.29,-164.714 1377.64,-164.859 1377,-165 1230.29,-197.087 1052.69,-209.211 963.212,-213.439"/>
<polygon fill="midnightblue" stroke="midnightblue" points="962.836,-209.952 953.006,-213.904 963.156,-216.945 962.836,-209.952"/>
</g>
<!-- Node20&#45;&gt;Node6 -->
<g id="edge35" class="edge"><title>Node20&#45;&gt;Node6</title>
<path fill="none" stroke="midnightblue" d="M1411.84,-123.362C1402.94,-112.539 1392.01,-99.2568 1383.56,-88.9795"/>
<polygon fill="midnightblue" stroke="midnightblue" points="1386.19,-86.6722 1377.14,-81.1734 1380.79,-91.1195 1386.19,-86.6722"/>
</g>
<!-- Node21&#45;&gt;Node2 -->
<g id="edge37" class="edge"><title>Node21&#45;&gt;Node2</title>
<path fill="none" stroke="midnightblue" d="M1105.1,-159.109C1065.49,-171.11 1006.54,-188.296 963.007,-200.535"/>
<polygon fill="midnightblue" stroke="midnightblue" points="961.817,-197.233 953.131,-203.3 963.705,-203.974 961.817,-197.233"/>
</g>
<!-- Node21&#45;&gt;Node6 -->
<g id="edge38" class="edge"><title>Node21&#45;&gt;Node6</title>
<path fill="none" stroke="midnightblue" d="M1192.13,-128.987C1233.45,-115.864 1294.49,-96.4808 1333.24,-84.1749"/>
<polygon fill="midnightblue" stroke="midnightblue" points="1334.59,-87.4176 1343.06,-81.055 1332.47,-80.7459 1334.59,-87.4176"/>
</g>
<!-- Node22&#45;&gt;Node2 -->
<g id="edge40" class="edge"><title>Node22&#45;&gt;Node2</title>
<path fill="none" stroke="midnightblue" d="M808.273,-159.073C829.191,-169.73 856.387,-184.489 876.85,-196.241"/>
<polygon fill="midnightblue" stroke="midnightblue" points="875.327,-199.404 885.731,-201.403 878.844,-193.352 875.327,-199.404"/>
</g>
<!-- Node23&#45;&gt;Node2 -->
<g id="edge42" class="edge"><title>Node23&#45;&gt;Node2</title>
<path fill="none" stroke="midnightblue" d="M912.119,-164.588C912.831,-172.853 912.94,-182.56 912.448,-191.269"/>
<polygon fill="midnightblue" stroke="midnightblue" points="908.962,-190.959 911.549,-201.233 915.933,-191.588 908.962,-190.959"/>
</g>
</g>
</svg>
