<?xml version="1.0" encoding="UTF-8" standalone="no"?>
<!DOCTYPE svg PUBLIC "-//W3C//DTD SVG 1.1//EN"
 "http://www.w3.org/Graphics/SVG/1.1/DTD/svg11.dtd">
<!-- Generated by graphviz version 2.38.0 (20140413.2041)
 -->
<!-- Title: include/client/mir_toolkit/mir_persistent_id.h Pages: 1 -->
<svg width="1859pt" height="374pt"
 viewBox="0.00 0.00 1858.76 374.00" xmlns="http://www.w3.org/2000/svg" xmlns:xlink="http://www.w3.org/1999/xlink">
<g id="graph0" class="graph" transform="scale(1 1) rotate(0) translate(4 370)">
<title>include/client/mir_toolkit/mir_persistent_id.h</title>
<polygon fill="white" stroke="none" points="-4,4 -4,-370 1854.76,-370 1854.76,4 -4,4"/>
<!-- Node0 -->
<g id="node1" class="node"><title>Node0</title>
<polygon fill="#bfbfbf" stroke="black" points="563.76,-335.5 563.76,-365.5 697.76,-365.5 697.76,-335.5 563.76,-335.5"/>
<text text-anchor="start" x="571.76" y="-353.5" font-family="Arial" font-size="10.00">include/client/mir</text>
<text text-anchor="middle" x="630.76" y="-342.5" font-family="Arial" font-size="10.00">_toolkit/mir_persistent_id.h</text>
</g>
<!-- Node1 -->
<g id="node2" class="node"><title>Node1</title>
<g id="a_node2"><a xlink:href="client__types_8h.html" target="_top" xlink:title="mir_toolkit/client\l_types.h">
<polygon fill="white" stroke="black" points="586.76,-268.5 586.76,-298.5 674.76,-298.5 674.76,-268.5 586.76,-268.5"/>
<text text-anchor="start" x="594.76" y="-286.5" font-family="Arial" font-size="10.00">mir_toolkit/client</text>
<text text-anchor="middle" x="630.76" y="-275.5" font-family="Arial" font-size="10.00">_types.h</text>
</a>
</g>
</g>
<!-- Node0&#45;&gt;Node1 -->
<g id="edge1" class="edge"><title>Node0&#45;&gt;Node1</title>
<path fill="none" stroke="midnightblue" d="M630.76,-335.396C630.76,-327.645 630.76,-317.812 630.76,-308.86"/>
<polygon fill="midnightblue" stroke="midnightblue" points="634.26,-308.576 630.76,-298.577 627.26,-308.577 634.26,-308.576"/>
</g>
<!-- Node6 -->
<g id="node7" class="node"><title>Node6</title>
<g id="a_node7"><a xlink:href="deprecations_8h.html" target="_top" xlink:title="mir_toolkit/deprecations.h">
<polygon fill="white" stroke="black" points="142.76,-62 142.76,-81 270.76,-81 270.76,-62 142.76,-62"/>
<text text-anchor="middle" x="206.76" y="-69" font-family="Arial" font-size="10.00">mir_toolkit/deprecations.h</text>
</a>
</g>
</g>
<!-- Node0&#45;&gt;Node6 -->
<g id="edge46" class="edge"><title>Node0&#45;&gt;Node6</title>
<path fill="none" stroke="midnightblue" d="M563.374,-348.432C453.526,-343.943 232.14,-323.232 72.7602,-232 24.5804,-204.421 -22.2195,-166.901 11.7602,-123 26.8044,-103.563 84.119,-90.246 132.748,-82.1879"/>
<polygon fill="midnightblue" stroke="midnightblue" points="133.34,-85.6379 142.658,-80.5971 132.23,-78.7264 133.34,-85.6379"/>
</g>
<!-- Node9 -->
<g id="node10" class="node"><title>Node9</title>
<polygon fill="white" stroke="#bfbfbf" points="1104.76,-0.5 1104.76,-19.5 1160.76,-19.5 1160.76,-0.5 1104.76,-0.5"/>
<text text-anchor="middle" x="1132.76" y="-7.5" font-family="Arial" font-size="10.00">stdbool.h</text>
</g>
<!-- Node0&#45;&gt;Node9 -->
<g id="edge47" class="edge"><title>Node0&#45;&gt;Node9</title>
<path fill="none" stroke="midnightblue" d="M698.146,-347.897C925.737,-341.602 1651.76,-313.96 1651.76,-217.5 1651.76,-217.5 1651.76,-217.5 1651.76,-143 1651.76,-43.839 1291.42,-18.2815 1171.24,-12.5153"/>
<polygon fill="midnightblue" stroke="midnightblue" points="1171.18,-9.00899 1161.03,-12.0458 1170.86,-16.0016 1171.18,-9.00899"/>
</g>
<!-- Node2 -->
<g id="node3" class="node"><title>Node2</title>
<g id="a_node3"><a xlink:href="toolkit_2events_2event_8h.html" target="_top" xlink:title="mir_toolkit/events\l/event.h">
<polygon fill="white" stroke="black" points="790.76,-201.5 790.76,-231.5 882.76,-231.5 882.76,-201.5 790.76,-201.5"/>
<text text-anchor="start" x="798.76" y="-219.5" font-family="Arial" font-size="10.00">mir_toolkit/events</text>
<text text-anchor="middle" x="836.76" y="-208.5" font-family="Arial" font-size="10.00">/event.h</text>
</a>
</g>
</g>
<!-- Node1&#45;&gt;Node2 -->
<g id="edge2" class="edge"><title>Node1&#45;&gt;Node2</title>
<path fill="none" stroke="midnightblue" d="M674.952,-268.556C706.479,-258.608 749.061,-245.172 782.628,-234.58"/>
<polygon fill="midnightblue" stroke="midnightblue" points="783.803,-237.88 792.286,-231.533 781.696,-231.204 783.803,-237.88"/>
</g>
<!-- Node3 -->
<g id="node4" class="node"><title>Node3</title>
<polygon fill="white" stroke="#bfbfbf" points="1572.26,-134.5 1572.26,-153.5 1623.26,-153.5 1623.26,-134.5 1572.26,-134.5"/>
<text text-anchor="middle" x="1597.76" y="-141.5" font-family="Arial" font-size="10.00">stddef.h</text>
</g>
<!-- Node1&#45;&gt;Node3 -->
<g id="edge45" class="edge"><title>Node1&#45;&gt;Node3</title>
<path fill="none" stroke="midnightblue" d="M674.829,-282.985C810.873,-283.223 1234.82,-274.507 1562.76,-165 1567.37,-163.462 1572.04,-161.289 1576.42,-158.938"/>
<polygon fill="midnightblue" stroke="midnightblue" points="1578.52,-161.766 1585.37,-153.684 1574.97,-155.73 1578.52,-161.766"/>
</g>
<!-- Node5 -->
<g id="node6" class="node"><title>Node5</title>
<g id="a_node6"><a xlink:href="common_8h.html" target="_top" xlink:title="mir_toolkit/common.h">
<polygon fill="white" stroke="black" points="32.7602,-134.5 32.7602,-153.5 142.76,-153.5 142.76,-134.5 32.7602,-134.5"/>
<text text-anchor="middle" x="87.7602" y="-141.5" font-family="Arial" font-size="10.00">mir_toolkit/common.h</text>
</a>
</g>
</g>
<!-- Node1&#45;&gt;Node5 -->
<g id="edge43" class="edge"><title>Node1&#45;&gt;Node5</title>
<path fill="none" stroke="midnightblue" d="M586.604,-272.638C501.869,-253.499 310.747,-209.295 151.76,-165 142.537,-162.43 132.634,-159.447 123.44,-156.582"/>
<polygon fill="midnightblue" stroke="midnightblue" points="124.397,-153.214 113.807,-153.544 122.291,-159.89 124.397,-153.214"/>
</g>
<!-- Node1&#45;&gt;Node6 -->
<g id="edge44" class="edge"><title>Node1&#45;&gt;Node6</title>
<path fill="none" stroke="midnightblue" d="M586.644,-281.12C458.893,-276.087 93.3243,-254.016 23.7602,-165 12.266,-150.292 12.4519,-137.852 23.7602,-123 37.8041,-104.556 91.6745,-91.1327 137.359,-82.7822"/>
<polygon fill="midnightblue" stroke="midnightblue" points="138.029,-86.2181 147.265,-81.026 136.807,-79.3256 138.029,-86.2181"/>
</g>
<!-- Node2&#45;&gt;Node3 -->
<g id="edge3" class="edge"><title>Node2&#45;&gt;Node3</title>
<path fill="none" stroke="midnightblue" d="M882.961,-213.487C1032.58,-206.8 1497.96,-184.641 1562.76,-165 1567.61,-163.529 1572.52,-161.29 1577.06,-158.834"/>
<polygon fill="midnightblue" stroke="midnightblue" points="1578.94,-161.789 1585.75,-153.667 1575.36,-155.773 1578.94,-161.789"/>
</g>
<!-- Node4 -->
<g id="node5" class="node"><title>Node4</title>
<polygon fill="white" stroke="#bfbfbf" points="1390.26,-0.5 1390.26,-19.5 1439.26,-19.5 1439.26,-0.5 1390.26,-0.5"/>
<text text-anchor="middle" x="1414.76" y="-7.5" font-family="Arial" font-size="10.00">stdint.h</text>
</g>
<!-- Node2&#45;&gt;Node4 -->
<g id="edge4" class="edge"><title>Node2&#45;&gt;Node4</title>
<path fill="none" stroke="midnightblue" d="M883.046,-214.964C1013.85,-212.972 1379.07,-203.941 1414.76,-165 1449,-127.634 1432.53,-61.1613 1421.68,-29.1792"/>
<polygon fill="midnightblue" stroke="midnightblue" points="1424.97,-27.9776 1418.29,-19.7472 1418.38,-30.3417 1424.97,-27.9776"/>
</g>
<!-- Node2&#45;&gt;Node5 -->
<g id="edge5" class="edge"><title>Node2&#45;&gt;Node5</title>
<path fill="none" stroke="midnightblue" d="M790.747,-213.485C657.818,-207.447 274.904,-188.458 151.76,-165 141.297,-163.007 130.137,-159.883 120.115,-156.692"/>
<polygon fill="midnightblue" stroke="midnightblue" points="121.135,-153.343 110.541,-153.518 118.932,-159.987 121.135,-153.343"/>
</g>
<!-- Node2&#45;&gt;Node6 -->
<g id="edge7" class="edge"><title>Node2&#45;&gt;Node6</title>
<path fill="none" stroke="midnightblue" d="M790.687,-215.935C732.661,-214.599 631.519,-205.882 556.76,-165 534.41,-152.778 540.216,-135.027 517.76,-123 477.9,-101.652 359.815,-86.8154 281.167,-78.9836"/>
<polygon fill="midnightblue" stroke="midnightblue" points="281.116,-75.462 270.822,-77.9712 280.434,-82.4287 281.116,-75.462"/>
</g>
<!-- Node7 -->
<g id="node8" class="node"><title>Node7</title>
<g id="a_node8"><a xlink:href="input__event_8h.html" target="_top" xlink:title="mir_toolkit/events\l/input/input_event.h">
<polygon fill="white" stroke="black" points="1304.26,-129 1304.26,-159 1405.26,-159 1405.26,-129 1304.26,-129"/>
<text text-anchor="start" x="1312.26" y="-147" font-family="Arial" font-size="10.00">mir_toolkit/events</text>
<text text-anchor="middle" x="1354.76" y="-136" font-family="Arial" font-size="10.00">/input/input_event.h</text>
</a>
</g>
</g>
<!-- Node2&#45;&gt;Node7 -->
<g id="edge8" class="edge"><title>Node2&#45;&gt;Node7</title>
<path fill="none" stroke="midnightblue" d="M882.946,-213.366C964.974,-209.048 1140.61,-196.816 1285.76,-165 1289.8,-164.114 1293.95,-163.055 1298.13,-161.894"/>
<polygon fill="midnightblue" stroke="midnightblue" points="1299.25,-165.213 1307.85,-159.032 1297.27,-158.498 1299.25,-165.213"/>
</g>
<!-- Node14 -->
<g id="node15" class="node"><title>Node14</title>
<g id="a_node15"><a xlink:href="resize__event_8h.html" target="_top" xlink:title="mir_toolkit/events\l/resize_event.h">
<polygon fill="white" stroke="black" points="565.76,-129 565.76,-159 657.76,-159 657.76,-129 565.76,-129"/>
<text text-anchor="start" x="573.76" y="-147" font-family="Arial" font-size="10.00">mir_toolkit/events</text>
<text text-anchor="middle" x="611.76" y="-136" font-family="Arial" font-size="10.00">/resize_event.h</text>
</a>
</g>
</g>
<!-- Node2&#45;&gt;Node14 -->
<g id="edge19" class="edge"><title>Node2&#45;&gt;Node14</title>
<path fill="none" stroke="midnightblue" d="M790.633,-204.627C754.14,-194.819 702.347,-179.715 657.76,-165 655.312,-164.192 652.809,-163.348 650.294,-162.482"/>
<polygon fill="midnightblue" stroke="midnightblue" points="651.226,-159.1 640.632,-159.071 648.896,-165.7 651.226,-159.1"/>
</g>
<!-- Node15 -->
<g id="node16" class="node"><title>Node15</title>
<g id="a_node16"><a xlink:href="surface__event_8h.html" target="_top" xlink:title="mir_toolkit/events\l/surface_event.h">
<polygon fill="white" stroke="black" points="160.76,-129 160.76,-159 252.76,-159 252.76,-129 160.76,-129"/>
<text text-anchor="start" x="168.76" y="-147" font-family="Arial" font-size="10.00">mir_toolkit/events</text>
<text text-anchor="middle" x="206.76" y="-136" font-family="Arial" font-size="10.00">/surface_event.h</text>
</a>
</g>
</g>
<!-- Node2&#45;&gt;Node15 -->
<g id="edge21" class="edge"><title>Node2&#45;&gt;Node15</title>
<path fill="none" stroke="midnightblue" d="M790.757,-215.544C691.125,-214.85 449.164,-208.546 252.76,-165 249.282,-164.229 245.725,-163.294 242.199,-162.254"/>
<polygon fill="midnightblue" stroke="midnightblue" points="243.027,-158.844 232.435,-159.097 240.873,-165.504 243.027,-158.844"/>
</g>
<!-- Node16 -->
<g id="node17" class="node"><title>Node16</title>
<g id="a_node17"><a xlink:href="window__event_8h.html" target="_top" xlink:title="mir_toolkit/events\l/window_event.h">
<polygon fill="white" stroke="black" points="675.76,-129 675.76,-159 767.76,-159 767.76,-129 675.76,-129"/>
<text text-anchor="start" x="683.76" y="-147" font-family="Arial" font-size="10.00">mir_toolkit/events</text>
<text text-anchor="middle" x="721.76" y="-136" font-family="Arial" font-size="10.00">/window_event.h</text>
</a>
</g>
</g>
<!-- Node2&#45;&gt;Node16 -->
<g id="edge24" class="edge"><title>Node2&#45;&gt;Node16</title>
<path fill="none" stroke="midnightblue" d="M808.238,-201.403C789.768,-190.932 766.037,-176.51 748.029,-164.87"/>
<polygon fill="midnightblue" stroke="midnightblue" points="749.474,-161.632 739.193,-159.073 745.634,-167.485 749.474,-161.632"/>
</g>
<!-- Node17 -->
<g id="node18" class="node"><title>Node17</title>
<g id="a_node18"><a xlink:href="orientation__event_8h.html" target="_top" xlink:title="mir_toolkit/events\l/orientation_event.h">
<polygon fill="white" stroke="black" points="786.26,-129 786.26,-159 887.26,-159 887.26,-129 786.26,-129"/>
<text text-anchor="start" x="794.26" y="-147" font-family="Arial" font-size="10.00">mir_toolkit/events</text>
<text text-anchor="middle" x="836.76" y="-136" font-family="Arial" font-size="10.00">/orientation_event.h</text>
</a>
</g>
</g>
<!-- Node2&#45;&gt;Node17 -->
<g id="edge26" class="edge"><title>Node2&#45;&gt;Node17</title>
<path fill="none" stroke="midnightblue" d="M831.212,-201.233C830.009,-192.06 829.709,-179.905 830.312,-169.244"/>
<polygon fill="midnightblue" stroke="midnightblue" points="833.801,-169.52 831.214,-159.246 826.829,-168.89 833.801,-169.52"/>
</g>
<!-- Node18 -->
<g id="node19" class="node"><title>Node18</title>
<g id="a_node19"><a xlink:href="prompt__session__event_8h.html" target="_top" xlink:title="mir_toolkit/events\l/prompt_session_event.h">
<polygon fill="white" stroke="black" points="905.26,-129 905.26,-159 1030.26,-159 1030.26,-129 905.26,-129"/>
<text text-anchor="start" x="913.26" y="-147" font-family="Arial" font-size="10.00">mir_toolkit/events</text>
<text text-anchor="middle" x="967.76" y="-136" font-family="Arial" font-size="10.00">/prompt_session_event.h</text>
</a>
</g>
</g>
<!-- Node2&#45;&gt;Node18 -->
<g id="edge28" class="edge"><title>Node2&#45;&gt;Node18</title>
<path fill="none" stroke="midnightblue" d="M857.429,-201.403C876.158,-190.548 904.051,-175.446 927.167,-163.6"/>
<polygon fill="midnightblue" stroke="midnightblue" points="928.754,-166.72 936.088,-159.073 925.586,-160.478 928.754,-166.72"/>
</g>
<!-- Node19 -->
<g id="node20" class="node"><title>Node19</title>
<g id="a_node20"><a xlink:href="keymap__event_8h.html" target="_top" xlink:title="mir_toolkit/events\l/keymap_event.h">
<polygon fill="white" stroke="black" points="1461.76,-129 1461.76,-159 1553.76,-159 1553.76,-129 1461.76,-129"/>
<text text-anchor="start" x="1469.76" y="-147" font-family="Arial" font-size="10.00">mir_toolkit/events</text>
<text text-anchor="middle" x="1507.76" y="-136" font-family="Arial" font-size="10.00">/keymap_event.h</text>
</a>
</g>
</g>
<!-- Node2&#45;&gt;Node19 -->
<g id="edge30" class="edge"><title>Node2&#45;&gt;Node19</title>
<path fill="none" stroke="midnightblue" d="M883.077,-215.379C984.804,-214.232 1234.39,-206.877 1438.76,-165 1443.05,-164.121 1447.46,-163.03 1451.88,-161.815"/>
<polygon fill="midnightblue" stroke="midnightblue" points="1452.93,-165.156 1461.54,-158.99 1450.96,-158.437 1452.93,-165.156"/>
</g>
<!-- Node20 -->
<g id="node21" class="node"><title>Node20</title>
<g id="a_node21"><a xlink:href="input__configuration__event_8h.html" target="_top" xlink:title="mir_toolkit/events\l/input_configuration\l_event.h">
<polygon fill="white" stroke="black" points="271.26,-123.5 271.26,-164.5 372.26,-164.5 372.26,-123.5 271.26,-123.5"/>
<text text-anchor="start" x="279.26" y="-152.5" font-family="Arial" font-size="10.00">mir_toolkit/events</text>
<text text-anchor="start" x="279.26" y="-141.5" font-family="Arial" font-size="10.00">/input_configuration</text>
<text text-anchor="middle" x="321.76" y="-130.5" font-family="Arial" font-size="10.00">_event.h</text>
</a>
</g>
</g>
<!-- Node2&#45;&gt;Node20 -->
<g id="edge33" class="edge"><title>Node2&#45;&gt;Node20</title>
<path fill="none" stroke="midnightblue" d="M790.61,-213.93C708.036,-210.28 530.264,-198.962 379.727,-166.719"/>
<polygon fill="midnightblue" stroke="midnightblue" points="380.368,-163.277 369.852,-164.565 378.876,-170.116 380.368,-163.277"/>
</g>
<!-- Node21 -->
<g id="node22" class="node"><title>Node21</title>
<g id="a_node22"><a xlink:href="surface__output__event_8h.html" target="_top" xlink:title="mir_toolkit/events\l/surface_output_event.h">
<polygon fill="white" stroke="black" points="390.26,-129 390.26,-159 509.26,-159 509.26,-129 390.26,-129"/>
<text text-anchor="start" x="398.26" y="-147" font-family="Arial" font-size="10.00">mir_toolkit/events</text>
<text text-anchor="middle" x="449.76" y="-136" font-family="Arial" font-size="10.00">/surface_output_event.h</text>
</a>
</g>
</g>
<!-- Node2&#45;&gt;Node21 -->
<g id="edge36" class="edge"><title>Node2&#45;&gt;Node21</title>
<path fill="none" stroke="midnightblue" d="M790.644,-210.368C727.654,-202.434 611.889,-185.902 514.76,-165 509.971,-163.969 505.029,-162.822 500.103,-161.612"/>
<polygon fill="midnightblue" stroke="midnightblue" points="500.626,-158.133 490.072,-159.058 498.9,-164.917 500.626,-158.133"/>
</g>
<!-- Node22 -->
<g id="node23" class="node"><title>Node22</title>
<g id="a_node23"><a xlink:href="window__output__event_8h.html" target="_top" xlink:title="mir_toolkit/events\l/window_output_event.h">
<polygon fill="white" stroke="black" points="1048.26,-129 1048.26,-159 1167.26,-159 1167.26,-129 1048.26,-129"/>
<text text-anchor="start" x="1056.26" y="-147" font-family="Arial" font-size="10.00">mir_toolkit/events</text>
<text text-anchor="middle" x="1107.76" y="-136" font-family="Arial" font-size="10.00">/window_output_event.h</text>
</a>
</g>
</g>
<!-- Node2&#45;&gt;Node22 -->
<g id="edge39" class="edge"><title>Node2&#45;&gt;Node22</title>
<path fill="none" stroke="midnightblue" d="M882.948,-202.823C922.367,-192.961 980.288,-178.694 1030.76,-165 1034.53,-163.978 1038.4,-162.902 1042.32,-161.802"/>
<polygon fill="midnightblue" stroke="midnightblue" points="1043.45,-165.122 1052.12,-159.031 1041.54,-158.386 1043.45,-165.122"/>
</g>
<!-- Node23 -->
<g id="node24" class="node"><title>Node23</title>
<g id="a_node24"><a xlink:href="input__device__state__event_8h.html" target="_top" xlink:title="mir_toolkit/events\l/input_device_state\l_event.h">
<polygon fill="white" stroke="black" points="1185.76,-123.5 1185.76,-164.5 1285.76,-164.5 1285.76,-123.5 1185.76,-123.5"/>
<text text-anchor="start" x="1193.76" y="-152.5" font-family="Arial" font-size="10.00">mir_toolkit/events</text>
<text text-anchor="start" x="1193.76" y="-141.5" font-family="Arial" font-size="10.00">/input_device_state</text>
<text text-anchor="middle" x="1235.76" y="-130.5" font-family="Arial" font-size="10.00">_event.h</text>
</a>
</g>
</g>
<!-- Node2&#45;&gt;Node23 -->
<g id="edge41" class="edge"><title>Node2&#45;&gt;Node23</title>
<path fill="none" stroke="midnightblue" d="M882.937,-210.665C947.419,-203.789 1067.41,-189.253 1167.76,-165 1170.38,-164.367 1173.05,-163.667 1175.74,-162.92"/>
<polygon fill="midnightblue" stroke="midnightblue" points="1176.93,-166.218 1185.54,-160.043 1174.96,-159.502 1176.93,-166.218"/>
</g>
<!-- Node5&#45;&gt;Node6 -->
<g id="edge6" class="edge"><title>Node5&#45;&gt;Node6</title>
<path fill="none" stroke="midnightblue" d="M102.352,-134.355C122.515,-122.41 159.127,-100.72 183.195,-86.4608"/>
<polygon fill="midnightblue" stroke="midnightblue" points="185.23,-89.3237 192.049,-81.2154 181.662,-83.3012 185.23,-89.3237"/>
</g>
<!-- Node7&#45;&gt;Node2 -->
<g id="edge9" class="edge"><title>Node7&#45;&gt;Node2</title>
<path fill="none" stroke="midnightblue" d="M1325.53,-159.032C1318.48,-161.304 1310.95,-163.425 1303.76,-165 1158.13,-196.922 981.8,-209.13 893.182,-213.409"/>
<polygon fill="midnightblue" stroke="midnightblue" points="892.901,-209.918 883.075,-213.881 893.228,-216.911 892.901,-209.918"/>
</g>
<!-- Node7&#45;&gt;Node4 -->
<g id="edge12" class="edge"><title>Node7&#45;&gt;Node4</title>
<path fill="none" stroke="midnightblue" d="M1367.59,-128.791C1376.68,-118.027 1388.5,-102.492 1395.76,-87 1404.4,-68.5695 1409.43,-45.7115 1412.12,-29.9031"/>
<polygon fill="midnightblue" stroke="midnightblue" points="1415.62,-30.2195 1413.68,-19.8021 1408.7,-29.1499 1415.62,-30.2195"/>
</g>
<!-- Node8 -->
<g id="node9" class="node"><title>Node8</title>
<g id="a_node9"><a xlink:href="mir__input__device__types_8h.html" target="_top" xlink:title="mir_toolkit/mir_input\l_device_types.h">
<polygon fill="white" stroke="black" points="1282.76,-56.5 1282.76,-86.5 1386.76,-86.5 1386.76,-56.5 1282.76,-56.5"/>
<text text-anchor="start" x="1290.76" y="-74.5" font-family="Arial" font-size="10.00">mir_toolkit/mir_input</text>
<text text-anchor="middle" x="1334.76" y="-63.5" font-family="Arial" font-size="10.00">_device_types.h</text>
</a>
</g>
</g>
<!-- Node7&#45;&gt;Node8 -->
<g id="edge10" class="edge"><title>Node7&#45;&gt;Node8</title>
<path fill="none" stroke="midnightblue" d="M1350.71,-128.733C1348.08,-119.464 1344.59,-107.152 1341.54,-96.4109"/>
<polygon fill="midnightblue" stroke="midnightblue" points="1344.9,-95.4106 1338.8,-86.7455 1338.16,-97.3211 1344.9,-95.4106"/>
</g>
<!-- Node7&#45;&gt;Node9 -->
<g id="edge13" class="edge"><title>Node7&#45;&gt;Node9</title>
<path fill="none" stroke="midnightblue" d="M1313.9,-128.924C1307.52,-126.858 1300.98,-124.816 1294.76,-123 1231.85,-104.624 1198.06,-133.381 1151.76,-87 1136.85,-72.0633 1133.03,-47.3074 1132.34,-30.1261"/>
<polygon fill="midnightblue" stroke="midnightblue" points="1135.84,-29.6288 1132.26,-19.6552 1128.84,-29.6811 1135.84,-29.6288"/>
</g>
<!-- Node10 -->
<g id="node11" class="node"><title>Node10</title>
<g id="a_node11"><a xlink:href="touch__event_8h.html" target="_top" xlink:title="mir_toolkit/events\l/input/touch_event.h">
<polygon fill="white" stroke="black" points="1160.76,-56.5 1160.76,-86.5 1264.76,-86.5 1264.76,-56.5 1160.76,-56.5"/>
<text text-anchor="start" x="1168.76" y="-74.5" font-family="Arial" font-size="10.00">mir_toolkit/events</text>
<text text-anchor="middle" x="1212.76" y="-63.5" font-family="Arial" font-size="10.00">/input/touch_event.h</text>
</a>
</g>
</g>
<!-- Node7&#45;&gt;Node10 -->
<g id="edge14" class="edge"><title>Node7&#45;&gt;Node10</title>
<path fill="none" stroke="midnightblue" d="M1326.37,-128.903C1304.5,-118.048 1274.08,-102.946 1250.22,-91.1004"/>
<polygon fill="midnightblue" stroke="midnightblue" points="1251.62,-87.8849 1241.11,-86.5729 1248.51,-94.1547 1251.62,-87.8849"/>
</g>
<!-- Node11 -->
<g id="node12" class="node"><title>Node11</title>
<g id="a_node12"><a xlink:href="keyboard__event_8h.html" target="_top" xlink:title="mir_toolkit/events\l/input/keyboard_event.h">
<polygon fill="white" stroke="black" points="1680.26,-56.5 1680.26,-86.5 1799.26,-86.5 1799.26,-56.5 1680.26,-56.5"/>
<text text-anchor="start" x="1688.26" y="-74.5" font-family="Arial" font-size="10.00">mir_toolkit/events</text>
<text text-anchor="middle" x="1739.76" y="-63.5" font-family="Arial" font-size="10.00">/input/keyboard_event.h</text>
</a>
</g>
</g>
<!-- Node7&#45;&gt;Node11 -->
<g id="edge15" class="edge"><title>Node7&#45;&gt;Node11</title>
<path fill="none" stroke="midnightblue" d="M1405.32,-132.409C1420.55,-129.292 1437.32,-125.933 1452.76,-123 1526.73,-108.948 1611.68,-94.168 1669.85,-84.255"/>
<polygon fill="midnightblue" stroke="midnightblue" points="1670.76,-87.6507 1680.03,-82.5233 1669.59,-80.7499 1670.76,-87.6507"/>
</g>
<!-- Node13 -->
<g id="node14" class="node"><title>Node13</title>
<g id="a_node14"><a xlink:href="pointer__event_8h.html" target="_top" xlink:title="mir_toolkit/events\l/input/pointer_event.h">
<polygon fill="white" stroke="black" points="995.26,-56.5 995.26,-86.5 1104.26,-86.5 1104.26,-56.5 995.26,-56.5"/>
<text text-anchor="start" x="1003.26" y="-74.5" font-family="Arial" font-size="10.00">mir_toolkit/events</text>
<text text-anchor="middle" x="1049.76" y="-63.5" font-family="Arial" font-size="10.00">/input/pointer_event.h</text>
</a>
</g>
</g>
<!-- Node7&#45;&gt;Node13 -->
<g id="edge17" class="edge"><title>Node7&#45;&gt;Node13</title>
<path fill="none" stroke="midnightblue" d="M1314.94,-128.986C1308.25,-126.843 1301.34,-124.762 1294.76,-123 1217.64,-102.339 1196.94,-103.21 1118.76,-87 1117.3,-86.6971 1115.82,-86.3902 1114.33,-86.0803"/>
<polygon fill="midnightblue" stroke="midnightblue" points="1114.87,-82.6179 1104.37,-84.0037 1113.44,-89.4706 1114.87,-82.6179"/>
</g>
<!-- Node8&#45;&gt;Node4 -->
<g id="edge11" class="edge"><title>Node8&#45;&gt;Node4</title>
<path fill="none" stroke="midnightblue" d="M1353.72,-56.3993C1366.18,-47.1293 1382.46,-35.0254 1395.07,-25.6469"/>
<polygon fill="midnightblue" stroke="midnightblue" points="1397.18,-28.4341 1403.12,-19.6578 1393.01,-22.8173 1397.18,-28.4341"/>
</g>
<!-- Node12 -->
<g id="node13" class="node"><title>Node12</title>
<polygon fill="white" stroke="#bfbfbf" points="1716.76,-0.5 1716.76,-19.5 1850.76,-19.5 1850.76,-0.5 1716.76,-0.5"/>
<text text-anchor="middle" x="1783.76" y="-7.5" font-family="Arial" font-size="10.00">xkbcommon/xkbcommon.h</text>
</g>
<!-- Node11&#45;&gt;Node12 -->
<g id="edge16" class="edge"><title>Node11&#45;&gt;Node12</title>
<path fill="none" stroke="midnightblue" d="M1750.19,-56.3993C1756.52,-47.8424 1764.63,-36.8708 1771.29,-27.857"/>
<polygon fill="midnightblue" stroke="midnightblue" points="1774.23,-29.7792 1777.36,-19.6578 1768.6,-25.6171 1774.23,-29.7792"/>
</g>
<!-- Node13&#45;&gt;Node9 -->
<g id="edge18" class="edge"><title>Node13&#45;&gt;Node9</title>
<path fill="none" stroke="midnightblue" d="M1069.43,-56.3993C1082.36,-47.1293 1099.25,-35.0254 1112.33,-25.6469"/>
<polygon fill="midnightblue" stroke="midnightblue" points="1114.59,-28.3287 1120.68,-19.6578 1110.52,-22.6395 1114.59,-28.3287"/>
</g>
<!-- Node14&#45;&gt;Node2 -->
<g id="edge20" class="edge"><title>Node14&#45;&gt;Node2</title>
<path fill="none" stroke="midnightblue" d="M657.816,-158.859C663.874,-160.976 669.971,-163.089 675.76,-165 711.904,-176.928 752.782,-189.112 784.381,-198.523"/>
<polygon fill="midnightblue" stroke="midnightblue" points="783.713,-201.976 794.296,-201.478 785.712,-195.268 783.713,-201.976"/>
</g>
<!-- Node15&#45;&gt;Node2 -->
<g id="edge22" class="edge"><title>Node15&#45;&gt;Node2</title>
<path fill="none" stroke="midnightblue" d="M250.098,-159.097C256.972,-161.392 264.015,-163.504 270.76,-165 454.258,-205.684 677.523,-213.861 780.247,-215.325"/>
<polygon fill="midnightblue" stroke="midnightblue" points="780.355,-218.827 790.398,-215.453 780.443,-211.827 780.355,-218.827"/>
</g>
<!-- Node15&#45;&gt;Node6 -->
<g id="edge23" class="edge"><title>Node15&#45;&gt;Node6</title>
<path fill="none" stroke="midnightblue" d="M206.76,-128.733C206.76,-118.001 206.76,-103.187 206.76,-91.459"/>
<polygon fill="midnightblue" stroke="midnightblue" points="210.26,-91.3931 206.76,-81.3932 203.26,-91.3932 210.26,-91.3931"/>
</g>
<!-- Node16&#45;&gt;Node2 -->
<g id="edge25" class="edge"><title>Node16&#45;&gt;Node2</title>
<path fill="none" stroke="midnightblue" d="M750.239,-159.073C768.701,-169.538 792.433,-183.959 810.449,-195.603"/>
<polygon fill="midnightblue" stroke="midnightblue" points="809.01,-198.844 819.291,-201.403 812.849,-192.991 809.01,-198.844"/>
</g>
<!-- Node17&#45;&gt;Node2 -->
<g id="edge27" class="edge"><title>Node17&#45;&gt;Node2</title>
<path fill="none" stroke="midnightblue" d="M842.306,-159.246C843.509,-168.414 843.811,-180.568 843.21,-191.232"/>
<polygon fill="midnightblue" stroke="midnightblue" points="839.721,-190.959 842.309,-201.233 846.692,-191.588 839.721,-190.959"/>
</g>
<!-- Node18&#45;&gt;Node2 -->
<g id="edge29" class="edge"><title>Node18&#45;&gt;Node2</title>
<path fill="none" stroke="midnightblue" d="M947.134,-159.073C928.418,-169.922 900.528,-185.023 877.405,-196.873"/>
<polygon fill="midnightblue" stroke="midnightblue" points="875.814,-193.755 868.481,-201.403 878.983,-199.997 875.814,-193.755"/>
</g>
<!-- Node19&#45;&gt;Node2 -->
<g id="edge31" class="edge"><title>Node19&#45;&gt;Node2</title>
<path fill="none" stroke="midnightblue" d="M1478.88,-159.091C1471.74,-161.388 1464.07,-163.501 1456.76,-165 1252.46,-206.862 1002.98,-214.227 893.117,-215.378"/>
<polygon fill="midnightblue" stroke="midnightblue" points="892.894,-211.88 882.926,-215.471 892.958,-218.88 892.894,-211.88"/>
</g>
<!-- Node19&#45;&gt;Node12 -->
<g id="edge32" class="edge"><title>Node19&#45;&gt;Node12</title>
<path fill="none" stroke="midnightblue" d="M1543.89,-128.926C1550.43,-126.713 1557.25,-124.624 1563.76,-123 1617.15,-109.681 1772.79,-128.644 1808.76,-87 1823.32,-70.1489 1809.84,-44.5992 1797.73,-27.8536"/>
<polygon fill="midnightblue" stroke="midnightblue" points="1800.21,-25.3423 1791.33,-19.5675 1794.67,-29.6212 1800.21,-25.3423"/>
</g>
<!-- Node20&#45;&gt;Node2 -->
<g id="edge34" class="edge"><title>Node20&#45;&gt;Node2</title>
<path fill="none" stroke="midnightblue" d="M372.585,-160.439C378.357,-162.172 384.164,-163.757 389.76,-165 528.363,-195.785 695.033,-208.183 780.445,-212.874"/>
<polygon fill="midnightblue" stroke="midnightblue" points="780.279,-216.37 790.451,-213.409 780.652,-209.38 780.279,-216.37"/>
</g>
<!-- Node20&#45;&gt;Node6 -->
<g id="edge35" class="edge"><title>Node20&#45;&gt;Node6</title>
<path fill="none" stroke="midnightblue" d="M289.726,-123.362C270.661,-111.674 246.914,-97.1158 229.717,-86.5734"/>
<polygon fill="midnightblue" stroke="midnightblue" points="231.263,-83.416 220.908,-81.1734 227.604,-89.3838 231.263,-83.416"/>
</g>
<!-- Node21&#45;&gt;Node2 -->
<g id="edge37" class="edge"><title>Node21&#45;&gt;Node2</title>
<path fill="none" stroke="midnightblue" d="M507.816,-159.058C516.194,-161.196 524.694,-163.264 532.76,-165 618.6,-183.472 718.997,-198.532 780.3,-207.26"/>
<polygon fill="midnightblue" stroke="midnightblue" points="780.144,-210.772 790.536,-208.71 781.126,-203.842 780.144,-210.772"/>
</g>
<!-- Node21&#45;&gt;Node6 -->
<g id="edge38" class="edge"><title>Node21&#45;&gt;Node6</title>
<path fill="none" stroke="midnightblue" d="M401.461,-128.987C355.844,-115.753 288.279,-96.1504 245.924,-83.8623"/>
<polygon fill="midnightblue" stroke="midnightblue" points="246.827,-80.48 236.247,-81.055 244.876,-87.2028 246.827,-80.48"/>
</g>
<!-- Node22&#45;&gt;Node2 -->
<g id="edge40" class="edge"><title>Node22&#45;&gt;Node2</title>
<path fill="none" stroke="midnightblue" d="M1069.91,-159.031C1062.91,-161.082 1055.65,-163.131 1048.76,-165 996.355,-179.218 935.92,-194.054 892.917,-203.936"/>
<polygon fill="midnightblue" stroke="midnightblue" points="891.895,-200.579 882.923,-206.215 893.451,-207.404 891.895,-200.579"/>
</g>
<!-- Node23&#45;&gt;Node2 -->
<g id="edge42" class="edge"><title>Node23&#45;&gt;Node2</title>
<path fill="none" stroke="midnightblue" d="M1187.66,-164.531C1187.02,-164.691 1186.39,-164.848 1185.76,-165 1084.38,-189.502 962.95,-204.087 893.239,-210.875"/>
<polygon fill="midnightblue" stroke="midnightblue" points="892.544,-207.425 882.922,-211.859 893.209,-214.393 892.544,-207.425"/>
</g>
</g>
</svg>
