<?xml version="1.0" encoding="UTF-8" standalone="no"?>
<!DOCTYPE svg PUBLIC "-//W3C//DTD SVG 1.1//EN"
 "http://www.w3.org/Graphics/SVG/1.1/DTD/svg11.dtd">
<!-- Generated by graphviz version 2.38.0 (20140413.2041)
 -->
<!-- Title: include/client/mir_toolkit/mir_connection.h Pages: 1 -->
<svg width="3092pt" height="340pt"
 viewBox="0.00 0.00 3091.50 340.00" xmlns="http://www.w3.org/2000/svg" xmlns:xlink="http://www.w3.org/1999/xlink">
<g id="graph0" class="graph" transform="scale(1 1) rotate(0) translate(4 336)">
<title>include/client/mir_toolkit/mir_connection.h</title>
<polygon fill="white" stroke="none" points="-4,4 -4,-336 3087.5,-336 3087.5,4 -4,4"/>
<!-- Node24 -->
<g id="node1" class="node"><title>Node24</title>
<polygon fill="#bfbfbf" stroke="black" points="786,-301.5 786,-331.5 911,-331.5 911,-301.5 786,-301.5"/>
<text text-anchor="start" x="794" y="-319.5" font-family="Arial" font-size="10.00">include/client/mir</text>
<text text-anchor="middle" x="848.5" y="-308.5" font-family="Arial" font-size="10.00">_toolkit/mir_connection.h</text>
</g>
<!-- Node25 -->
<g id="node2" class="node"><title>Node25</title>
<g id="a_node2"><a xlink:href="connection_8h.html" target="_top" xlink:title="include/client/mir\l/client/connection.h">
<polygon fill="white" stroke="black" points="370,-229 370,-259 471,-259 471,-229 370,-229"/>
<text text-anchor="start" x="378" y="-247" font-family="Arial" font-size="10.00">include/client/mir</text>
<text text-anchor="middle" x="420.5" y="-236" font-family="Arial" font-size="10.00">/client/connection.h</text>
</a>
</g>
</g>
<!-- Node24&#45;&gt;Node25 -->
<g id="edge1" class="edge"><title>Node24&#45;&gt;Node25</title>
<path fill="none" stroke="midnightblue" d="M775.581,-306.301C706.55,-297.208 600.132,-282.192 508.5,-265 496.335,-262.718 483.298,-259.939 471.085,-257.188"/>
<polygon fill="midnightblue" stroke="midnightblue" points="775.539,-309.826 785.909,-307.655 776.448,-302.885 775.539,-309.826"/>
</g>
<!-- Node34 -->
<g id="node11" class="node"><title>Node34</title>
<g id="a_node11"><a xlink:href="display__config_8h.html" target="_top" xlink:title="include/client/mir\l/client/display_config.h">
<polygon fill="white" stroke="black" points="647.5,-229 647.5,-259 763.5,-259 763.5,-229 647.5,-229"/>
<text text-anchor="start" x="655.5" y="-247" font-family="Arial" font-size="10.00">include/client/mir</text>
<text text-anchor="middle" x="705.5" y="-236" font-family="Arial" font-size="10.00">/client/display_config.h</text>
</a>
</g>
</g>
<!-- Node24&#45;&gt;Node34 -->
<g id="edge12" class="edge"><title>Node24&#45;&gt;Node34</title>
<path fill="none" stroke="midnightblue" d="M810.717,-296.873C786.681,-285.023 756.05,-269.922 734.045,-259.073"/>
<polygon fill="midnightblue" stroke="midnightblue" points="809.389,-300.12 819.906,-301.403 812.484,-293.842 809.389,-300.12"/>
</g>
<!-- Node36 -->
<g id="node13" class="node"><title>Node36</title>
<g id="a_node13"><a xlink:href="window__spec_8h.html" target="_top" xlink:title="include/client/mir\l/client/window_spec.h">
<polygon fill="white" stroke="black" points="517.5,-229 517.5,-259 629.5,-259 629.5,-229 517.5,-229"/>
<text text-anchor="start" x="525.5" y="-247" font-family="Arial" font-size="10.00">include/client/mir</text>
<text text-anchor="middle" x="573.5" y="-236" font-family="Arial" font-size="10.00">/client/window_spec.h</text>
</a>
</g>
</g>
<!-- Node24&#45;&gt;Node36 -->
<g id="edge15" class="edge"><title>Node24&#45;&gt;Node36</title>
<path fill="none" stroke="midnightblue" d="M775.945,-299.23C735.36,-289.834 683.94,-277.441 638.5,-265 631.781,-263.16 624.707,-261.106 617.798,-259.035"/>
<polygon fill="midnightblue" stroke="midnightblue" points="775.223,-302.655 785.754,-301.491 776.796,-295.834 775.223,-302.655"/>
</g>
<!-- Node37 -->
<g id="node14" class="node"><title>Node37</title>
<g id="a_node14"><a xlink:href="android__buffer_8h.html" target="_top" xlink:title="include/client/mir\l_toolkit/extensions\l/android_buffer.h">
<polygon fill="white" stroke="black" points="724.5,-145.5 724.5,-186.5 822.5,-186.5 822.5,-145.5 724.5,-145.5"/>
<text text-anchor="start" x="732.5" y="-174.5" font-family="Arial" font-size="10.00">include/client/mir</text>
<text text-anchor="start" x="732.5" y="-163.5" font-family="Arial" font-size="10.00">_toolkit/extensions</text>
<text text-anchor="middle" x="773.5" y="-152.5" font-family="Arial" font-size="10.00">/android_buffer.h</text>
</a>
</g>
</g>
<!-- Node24&#45;&gt;Node37 -->
<g id="edge18" class="edge"><title>Node24&#45;&gt;Node37</title>
<path fill="none" stroke="midnightblue" d="M836.745,-292.225C822.042,-263.114 797.134,-213.794 783.372,-186.547"/>
<polygon fill="midnightblue" stroke="midnightblue" points="833.676,-293.913 841.309,-301.261 839.925,-290.757 833.676,-293.913"/>
</g>
<!-- Node38 -->
<g id="node15" class="node"><title>Node38</title>
<g id="a_node15"><a xlink:href="android__egl_8h.html" target="_top" xlink:title="include/client/mir\l_toolkit/extensions\l/android_egl.h">
<polygon fill="white" stroke="black" points="840.5,-145.5 840.5,-186.5 938.5,-186.5 938.5,-145.5 840.5,-145.5"/>
<text text-anchor="start" x="848.5" y="-174.5" font-family="Arial" font-size="10.00">include/client/mir</text>
<text text-anchor="start" x="848.5" y="-163.5" font-family="Arial" font-size="10.00">_toolkit/extensions</text>
<text text-anchor="middle" x="889.5" y="-152.5" font-family="Arial" font-size="10.00">/android_egl.h</text>
</a>
</g>
</g>
<!-- Node24&#45;&gt;Node38 -->
<g id="edge19" class="edge"><title>Node24&#45;&gt;Node38</title>
<path fill="none" stroke="midnightblue" d="M855.137,-291.461C863.2,-262.258 876.646,-213.558 884.103,-186.547"/>
<polygon fill="midnightblue" stroke="midnightblue" points="851.719,-290.69 852.431,-301.261 858.466,-292.553 851.719,-290.69"/>
</g>
<!-- Node39 -->
<g id="node16" class="node"><title>Node39</title>
<g id="a_node16"><a xlink:href="gbm__buffer_8h.html" target="_top" xlink:title="include/client/mir\l_toolkit/extensions\l/gbm_buffer.h">
<polygon fill="white" stroke="black" points="956.5,-145.5 956.5,-186.5 1054.5,-186.5 1054.5,-145.5 956.5,-145.5"/>
<text text-anchor="start" x="964.5" y="-174.5" font-family="Arial" font-size="10.00">include/client/mir</text>
<text text-anchor="start" x="964.5" y="-163.5" font-family="Arial" font-size="10.00">_toolkit/extensions</text>
<text text-anchor="middle" x="1005.5" y="-152.5" font-family="Arial" font-size="10.00">/gbm_buffer.h</text>
</a>
</g>
</g>
<!-- Node24&#45;&gt;Node39 -->
<g id="edge20" class="edge"><title>Node24&#45;&gt;Node39</title>
<path fill="none" stroke="midnightblue" d="M871.131,-294.094C901.607,-265.269 955.401,-214.387 984.834,-186.547"/>
<polygon fill="midnightblue" stroke="midnightblue" points="868.414,-291.847 863.554,-301.261 873.224,-296.932 868.414,-291.847"/>
</g>
<!-- Node40 -->
<g id="node17" class="node"><title>Node40</title>
<g id="a_node17"><a xlink:href="mir__client__library_8h.html" target="_top" xlink:title="include/client/mir\l_toolkit/mir_client\l_library.h">
<polygon fill="white" stroke="black" points="2500,-223.5 2500,-264.5 2593,-264.5 2593,-223.5 2500,-223.5"/>
<text text-anchor="start" x="2508" y="-252.5" font-family="Arial" font-size="10.00">include/client/mir</text>
<text text-anchor="start" x="2508" y="-241.5" font-family="Arial" font-size="10.00">_toolkit/mir_client</text>
<text text-anchor="middle" x="2546.5" y="-230.5" font-family="Arial" font-size="10.00">_library.h</text>
</a>
</g>
</g>
<!-- Node24&#45;&gt;Node40 -->
<g id="edge21" class="edge"><title>Node24&#45;&gt;Node40</title>
<path fill="none" stroke="midnightblue" d="M921.537,-312.468C1209.92,-300.494 2265.08,-256.684 2499.96,-246.932"/>
<polygon fill="midnightblue" stroke="midnightblue" points="921.046,-308.985 911.2,-312.897 921.337,-315.979 921.046,-308.985"/>
</g>
<!-- Node49 -->
<g id="node26" class="node"><title>Node49</title>
<g id="a_node26"><a xlink:href="mir__extension__core_8h.html" target="_top" xlink:title="include/client/mir\l_toolkit/mir_extension\l_core.h">
<polygon fill="white" stroke="black" points="1295.5,-223.5 1295.5,-264.5 1407.5,-264.5 1407.5,-223.5 1295.5,-223.5"/>
<text text-anchor="start" x="1303.5" y="-252.5" font-family="Arial" font-size="10.00">include/client/mir</text>
<text text-anchor="start" x="1303.5" y="-241.5" font-family="Arial" font-size="10.00">_toolkit/mir_extension</text>
<text text-anchor="middle" x="1351.5" y="-230.5" font-family="Arial" font-size="10.00">_core.h</text>
</a>
</g>
</g>
<!-- Node24&#45;&gt;Node49 -->
<g id="edge30" class="edge"><title>Node24&#45;&gt;Node49</title>
<path fill="none" stroke="midnightblue" d="M921.335,-305.291C1022.63,-291.094 1203.89,-265.689 1295.39,-252.865"/>
<polygon fill="midnightblue" stroke="midnightblue" points="920.606,-301.859 911.188,-306.714 921.577,-308.792 920.606,-301.859"/>
</g>
<!-- Node26 -->
<g id="node3" class="node"><title>Node26</title>
<g id="a_node3"><a xlink:href="decoration__provider_8h.html" target="_top" xlink:title="examples/example&#45;server\l&#45;lib/decoration_provider.h">
<polygon fill="white" stroke="black" points="356.5,-151 356.5,-181 484.5,-181 484.5,-151 356.5,-151"/>
<text text-anchor="start" x="364.5" y="-169" font-family="Arial" font-size="10.00">examples/example&#45;server</text>
<text text-anchor="middle" x="420.5" y="-158" font-family="Arial" font-size="10.00">&#45;lib/decoration_provider.h</text>
</a>
</g>
</g>
<!-- Node25&#45;&gt;Node26 -->
<g id="edge2" class="edge"><title>Node25&#45;&gt;Node26</title>
<path fill="none" stroke="midnightblue" d="M420.5,-218.59C420.5,-206.257 420.5,-191.724 420.5,-181.231"/>
<polygon fill="midnightblue" stroke="midnightblue" points="417,-218.705 420.5,-228.705 424,-218.705 417,-218.705"/>
</g>
<!-- Node29 -->
<g id="node6" class="node"><title>Node29</title>
<g id="a_node6"><a xlink:href="internal__client_8h.html" target="_top" xlink:title="include/miral/miral\l/internal_client.h">
<polygon fill="white" stroke="black" points="243,-151 243,-181 338,-181 338,-151 243,-151"/>
<text text-anchor="start" x="251" y="-169" font-family="Arial" font-size="10.00">include/miral/miral</text>
<text text-anchor="middle" x="290.5" y="-158" font-family="Arial" font-size="10.00">/internal_client.h</text>
</a>
</g>
</g>
<!-- Node25&#45;&gt;Node29 -->
<g id="edge5" class="edge"><title>Node25&#45;&gt;Node29</title>
<path fill="none" stroke="midnightblue" d="M387.694,-223.821C364.921,-210.508 335.093,-193.07 314.518,-181.041"/>
<polygon fill="midnightblue" stroke="midnightblue" points="385.953,-226.858 396.353,-228.883 389.486,-220.815 385.953,-226.858"/>
</g>
<!-- Node27 -->
<g id="node4" class="node"><title>Node27</title>
<g id="a_node4"><a xlink:href="decoration__provider_8cpp.html" target="_top" xlink:title="examples/example&#45;server\l&#45;lib/decoration_provider.cpp">
<polygon fill="white" stroke="black" points="509.5,-73 509.5,-103 645.5,-103 645.5,-73 509.5,-73"/>
<text text-anchor="start" x="517.5" y="-91" font-family="Arial" font-size="10.00">examples/example&#45;server</text>
<text text-anchor="middle" x="577.5" y="-80" font-family="Arial" font-size="10.00">&#45;lib/decoration_provider.cpp</text>
</a>
</g>
</g>
<!-- Node26&#45;&gt;Node27 -->
<g id="edge3" class="edge"><title>Node26&#45;&gt;Node27</title>
<path fill="none" stroke="midnightblue" d="M458.667,-146.524C486.344,-133.126 523.206,-115.283 548.494,-103.041"/>
<polygon fill="midnightblue" stroke="midnightblue" points="457.138,-143.376 449.663,-150.883 460.188,-149.676 457.138,-143.376"/>
</g>
<!-- Node28 -->
<g id="node5" class="node"><title>Node28</title>
<g id="a_node5"><a xlink:href="floating__window__manager_8cpp.html" target="_top" xlink:title="examples/example&#45;server\l&#45;lib/floating_window_manager.cpp">
<polygon fill="white" stroke="black" points="329.5,-73 329.5,-103 491.5,-103 491.5,-73 329.5,-73"/>
<text text-anchor="start" x="337.5" y="-91" font-family="Arial" font-size="10.00">examples/example&#45;server</text>
<text text-anchor="middle" x="410.5" y="-80" font-family="Arial" font-size="10.00">&#45;lib/floating_window_manager.cpp</text>
</a>
</g>
</g>
<!-- Node26&#45;&gt;Node28 -->
<g id="edge4" class="edge"><title>Node26&#45;&gt;Node28</title>
<path fill="none" stroke="midnightblue" d="M417.288,-140.59C415.665,-128.257 413.753,-113.724 412.372,-103.231"/>
<polygon fill="midnightblue" stroke="midnightblue" points="413.844,-141.247 418.619,-150.705 420.785,-140.334 413.844,-141.247"/>
</g>
<!-- Node29&#45;&gt;Node28 -->
<g id="edge8" class="edge"><title>Node29&#45;&gt;Node28</title>
<path fill="none" stroke="midnightblue" d="M321.342,-145.467C342.291,-132.199 369.505,-114.963 388.33,-103.041"/>
<polygon fill="midnightblue" stroke="midnightblue" points="319.365,-142.576 312.79,-150.883 323.111,-148.489 319.365,-142.576"/>
</g>
<!-- Node30 -->
<g id="node7" class="node"><title>Node30</title>
<g id="a_node7"><a xlink:href="kiosk__main_8cpp.html" target="_top" xlink:title="examples/miral&#45;kiosk\l/kiosk_main.cpp">
<polygon fill="white" stroke="black" points="164,-73 164,-103 273,-103 273,-73 164,-73"/>
<text text-anchor="start" x="172" y="-91" font-family="Arial" font-size="10.00">examples/miral&#45;kiosk</text>
<text text-anchor="middle" x="218.5" y="-80" font-family="Arial" font-size="10.00">/kiosk_main.cpp</text>
</a>
</g>
</g>
<!-- Node29&#45;&gt;Node30 -->
<g id="edge6" class="edge"><title>Node29&#45;&gt;Node30</title>
<path fill="none" stroke="midnightblue" d="M269.82,-143.171C257.657,-130.332 242.625,-114.466 231.982,-103.231"/>
<polygon fill="midnightblue" stroke="midnightblue" points="267.539,-145.853 276.957,-150.705 272.621,-141.038 267.539,-145.853"/>
</g>
<!-- Node31 -->
<g id="node8" class="node"><title>Node31</title>
<g id="a_node8"><a xlink:href="shell__main_8cpp.html" target="_top" xlink:title="examples/miral&#45;shell\l/shell_main.cpp">
<polygon fill="white" stroke="black" points="208.5,-0.5 208.5,-30.5 314.5,-30.5 314.5,-0.5 208.5,-0.5"/>
<text text-anchor="start" x="216.5" y="-18.5" font-family="Arial" font-size="10.00">examples/miral&#45;shell</text>
<text text-anchor="middle" x="261.5" y="-7.5" font-family="Arial" font-size="10.00">/shell_main.cpp</text>
</a>
</g>
</g>
<!-- Node29&#45;&gt;Node31 -->
<g id="edge7" class="edge"><title>Node29&#45;&gt;Node31</title>
<path fill="none" stroke="midnightblue" d="M290.188,-140.726C289.476,-120.702 287.391,-91.6785 281.5,-67 278.478,-54.3424 272.903,-40.6566 268.405,-30.7292"/>
<polygon fill="midnightblue" stroke="midnightblue" points="286.693,-140.936 290.458,-150.839 293.69,-140.75 286.693,-140.936"/>
</g>
<!-- Node32 -->
<g id="node9" class="node"><title>Node32</title>
<g id="a_node9"><a xlink:href="tiling__window__manager_8h.html" target="_top" xlink:title="examples/example&#45;server\l&#45;lib/tiling_window_manager.h">
<polygon fill="white" stroke="black" points="5.5,-73 5.5,-103 145.5,-103 145.5,-73 5.5,-73"/>
<text text-anchor="start" x="13.5" y="-91" font-family="Arial" font-size="10.00">examples/example&#45;server</text>
<text text-anchor="middle" x="75.5" y="-80" font-family="Arial" font-size="10.00">&#45;lib/tiling_window_manager.h</text>
</a>
</g>
</g>
<!-- Node29&#45;&gt;Node32 -->
<g id="edge9" class="edge"><title>Node29&#45;&gt;Node32</title>
<path fill="none" stroke="midnightblue" d="M240.944,-147.482C202.801,-133.999 150.778,-115.61 115.317,-103.075"/>
<polygon fill="midnightblue" stroke="midnightblue" points="240.22,-150.939 250.815,-150.972 242.553,-144.339 240.22,-150.939"/>
</g>
<!-- Node32&#45;&gt;Node31 -->
<g id="edge10" class="edge"><title>Node32&#45;&gt;Node31</title>
<path fill="none" stroke="midnightblue" d="M122.172,-69.3098C153.785,-57.3275 194.99,-41.7096 224.372,-30.5729"/>
<polygon fill="midnightblue" stroke="midnightblue" points="120.803,-66.0856 112.693,-72.9027 123.284,-72.6312 120.803,-66.0856"/>
</g>
<!-- Node33 -->
<g id="node10" class="node"><title>Node33</title>
<g id="a_node10"><a xlink:href="tiling__window__manager_8cpp.html" target="_top" xlink:title="examples/example&#45;server\l&#45;lib/tiling_window_manager.cpp">
<polygon fill="white" stroke="black" points="0,-0.5 0,-30.5 151,-30.5 151,-0.5 0,-0.5"/>
<text text-anchor="start" x="8" y="-18.5" font-family="Arial" font-size="10.00">examples/example&#45;server</text>
<text text-anchor="middle" x="75.5" y="-7.5" font-family="Arial" font-size="10.00">&#45;lib/tiling_window_manager.cpp</text>
</a>
</g>
</g>
<!-- Node32&#45;&gt;Node33 -->
<g id="edge11" class="edge"><title>Node32&#45;&gt;Node33</title>
<path fill="none" stroke="midnightblue" d="M75.5,-62.7317C75.5,-52.0679 75.5,-39.9145 75.5,-30.7455"/>
<polygon fill="midnightblue" stroke="midnightblue" points="72.0001,-62.7332 75.5,-72.7333 79.0001,-62.7333 72.0001,-62.7332"/>
</g>
<!-- Node34&#45;&gt;Node27 -->
<g id="edge13" class="edge"><title>Node34&#45;&gt;Node27</title>
<path fill="none" stroke="midnightblue" d="M703.722,-218.602C701.043,-197.204 694.328,-166.271 677.5,-145 662.315,-125.806 638.637,-112.128 618.132,-103.097"/>
<polygon fill="midnightblue" stroke="midnightblue" points="700.269,-219.238 704.787,-228.821 707.231,-218.512 700.269,-219.238"/>
</g>
<!-- Node35 -->
<g id="node12" class="node"><title>Node35</title>
<g id="a_node12"><a xlink:href="sw__splash_8cpp.html" target="_top" xlink:title="examples/example&#45;server\l&#45;lib/sw_splash.cpp">
<polygon fill="white" stroke="black" points="540.5,-151 540.5,-181 668.5,-181 668.5,-151 540.5,-151"/>
<text text-anchor="start" x="548.5" y="-169" font-family="Arial" font-size="10.00">examples/example&#45;server</text>
<text text-anchor="middle" x="604.5" y="-158" font-family="Arial" font-size="10.00">&#45;lib/sw_splash.cpp</text>
</a>
</g>
</g>
<!-- Node34&#45;&gt;Node35 -->
<g id="edge14" class="edge"><title>Node34&#45;&gt;Node35</title>
<path fill="none" stroke="midnightblue" d="M678.404,-222.611C661.028,-209.536 638.906,-192.89 623.412,-181.231"/>
<polygon fill="midnightblue" stroke="midnightblue" points="676.408,-225.489 686.503,-228.705 680.617,-219.896 676.408,-225.489"/>
</g>
<!-- Node36&#45;&gt;Node27 -->
<g id="edge16" class="edge"><title>Node36&#45;&gt;Node27</title>
<path fill="none" stroke="midnightblue" d="M552.086,-221.342C543.982,-211.667 535.703,-199.61 531.5,-187 525.597,-169.291 525.207,-162.574 531.5,-145 537.353,-128.653 550.263,-113.658 560.92,-103.306"/>
<polygon fill="midnightblue" stroke="midnightblue" points="549.505,-223.708 558.759,-228.868 554.743,-219.064 549.505,-223.708"/>
</g>
<!-- Node36&#45;&gt;Node35 -->
<g id="edge17" class="edge"><title>Node36&#45;&gt;Node35</title>
<path fill="none" stroke="midnightblue" d="M583.153,-219.334C588.247,-206.845 594.329,-191.936 598.695,-181.231"/>
<polygon fill="midnightblue" stroke="midnightblue" points="579.867,-218.124 579.331,-228.705 586.349,-220.768 579.867,-218.124"/>
</g>
<!-- Node41 -->
<g id="node18" class="node"><title>Node41</title>
<g id="a_node18"><a xlink:href="toolkit_2debug_2surface_8h.html" target="_top" xlink:title="include/client/mir\l_toolkit/debug/surface.h">
<polygon fill="white" stroke="black" points="2296,-151 2296,-181 2417,-181 2417,-151 2296,-151"/>
<text text-anchor="start" x="2304" y="-169" font-family="Arial" font-size="10.00">include/client/mir</text>
<text text-anchor="middle" x="2356.5" y="-158" font-family="Arial" font-size="10.00">_toolkit/debug/surface.h</text>
</a>
</g>
</g>
<!-- Node40&#45;&gt;Node41 -->
<g id="edge22" class="edge"><title>Node40&#45;&gt;Node41</title>
<path fill="none" stroke="midnightblue" d="M2489.87,-220.35C2457.97,-207.587 2419.12,-192.047 2391.6,-181.039"/>
<polygon fill="midnightblue" stroke="midnightblue" points="2488.95,-223.749 2499.53,-224.213 2491.55,-217.25 2488.95,-223.749"/>
</g>
<!-- Node42 -->
<g id="node19" class="node"><title>Node42</title>
<g id="a_node19"><a xlink:href="mir__prompt__session_8h.html" target="_top" xlink:title="include/client/mir\l_toolkit/mir_prompt\l_session.h">
<polygon fill="white" stroke="black" points="2435.5,-145.5 2435.5,-186.5 2535.5,-186.5 2535.5,-145.5 2435.5,-145.5"/>
<text text-anchor="start" x="2443.5" y="-174.5" font-family="Arial" font-size="10.00">include/client/mir</text>
<text text-anchor="start" x="2443.5" y="-163.5" font-family="Arial" font-size="10.00">_toolkit/mir_prompt</text>
<text text-anchor="middle" x="2485.5" y="-152.5" font-family="Arial" font-size="10.00">_session.h</text>
</a>
</g>
</g>
<!-- Node40&#45;&gt;Node42 -->
<g id="edge23" class="edge"><title>Node40&#45;&gt;Node42</title>
<path fill="none" stroke="midnightblue" d="M2524.53,-215.627C2516.79,-205.99 2508.26,-195.362 2501.16,-186.506"/>
<polygon fill="midnightblue" stroke="midnightblue" points="2521.8,-217.82 2530.79,-223.428 2527.26,-213.439 2521.8,-217.82"/>
</g>
<!-- Node43 -->
<g id="node20" class="node"><title>Node43</title>
<g id="a_node20"><a xlink:href="mock__client__context_8h.html" target="_top" xlink:title="include/test/mir/test\l/doubles/mock_client\l_context.h">
<polygon fill="white" stroke="black" points="2554,-145.5 2554,-186.5 2663,-186.5 2663,-145.5 2554,-145.5"/>
<text text-anchor="start" x="2562" y="-174.5" font-family="Arial" font-size="10.00">include/test/mir/test</text>
<text text-anchor="start" x="2562" y="-163.5" font-family="Arial" font-size="10.00">/doubles/mock_client</text>
<text text-anchor="middle" x="2608.5" y="-152.5" font-family="Arial" font-size="10.00">_context.h</text>
</a>
</g>
</g>
<!-- Node40&#45;&gt;Node43 -->
<g id="edge24" class="edge"><title>Node40&#45;&gt;Node43</title>
<path fill="none" stroke="midnightblue" d="M2568.83,-215.627C2576.69,-205.99 2585.36,-195.362 2592.59,-186.506"/>
<polygon fill="midnightblue" stroke="midnightblue" points="2566.08,-213.467 2562.47,-223.428 2571.5,-217.892 2566.08,-213.467"/>
</g>
<!-- Node44 -->
<g id="node21" class="node"><title>Node44</title>
<g id="a_node21"><a xlink:href="validity__matchers_8h.html" target="_top" xlink:title="include/test/mir/test\l/validity_matchers.h">
<polygon fill="white" stroke="black" points="2681.5,-151 2681.5,-181 2785.5,-181 2785.5,-151 2681.5,-151"/>
<text text-anchor="start" x="2689.5" y="-169" font-family="Arial" font-size="10.00">include/test/mir/test</text>
<text text-anchor="middle" x="2733.5" y="-158" font-family="Arial" font-size="10.00">/validity_matchers.h</text>
</a>
</g>
</g>
<!-- Node40&#45;&gt;Node44 -->
<g id="edge25" class="edge"><title>Node40&#45;&gt;Node44</title>
<path fill="none" stroke="midnightblue" d="M2602.68,-220.168C2633.95,-207.458 2671.89,-192.04 2698.84,-181.087"/>
<polygon fill="midnightblue" stroke="midnightblue" points="2601.15,-217.01 2593.21,-224.018 2603.79,-223.495 2601.15,-217.01"/>
</g>
<!-- Node45 -->
<g id="node22" class="node"><title>Node45</title>
<g id="a_node22"><a xlink:href="any__surface_8h.html" target="_top" xlink:title="include/test/mir_test\l_framework/any_surface.h">
<polygon fill="white" stroke="black" points="2804,-151 2804,-181 2935,-181 2935,-151 2804,-151"/>
<text text-anchor="start" x="2812" y="-169" font-family="Arial" font-size="10.00">include/test/mir_test</text>
<text text-anchor="middle" x="2869.5" y="-158" font-family="Arial" font-size="10.00">_framework/any_surface.h</text>
</a>
</g>
</g>
<!-- Node40&#45;&gt;Node45 -->
<g id="edge26" class="edge"><title>Node40&#45;&gt;Node45</title>
<path fill="none" stroke="midnightblue" d="M2603.29,-230.829C2653.65,-219.88 2729.14,-203.088 2794.5,-187 2802.09,-185.132 2810.09,-183.084 2817.93,-181.033"/>
<polygon fill="midnightblue" stroke="midnightblue" points="2602.28,-227.466 2593.25,-233.006 2603.76,-234.307 2602.28,-227.466"/>
</g>
<!-- Node46 -->
<g id="node23" class="node"><title>Node46</title>
<g id="a_node23"><a xlink:href="connected__client__headless__server_8h.html" target="_top" xlink:title="include/test/mir_test\l_framework/connected\l_client_headless_server.h">
<polygon fill="white" stroke="black" points="2953.5,-145.5 2953.5,-186.5 3083.5,-186.5 3083.5,-145.5 2953.5,-145.5"/>
<text text-anchor="start" x="2961.5" y="-174.5" font-family="Arial" font-size="10.00">include/test/mir_test</text>
<text text-anchor="start" x="2961.5" y="-163.5" font-family="Arial" font-size="10.00">_framework/connected</text>
<text text-anchor="middle" x="3018.5" y="-152.5" font-family="Arial" font-size="10.00">_client_headless_server.h</text>
</a>
</g>
</g>
<!-- Node40&#45;&gt;Node46 -->
<g id="edge27" class="edge"><title>Node40&#45;&gt;Node46</title>
<path fill="none" stroke="midnightblue" d="M2603.28,-237.169C2680.67,-228.726 2823.38,-211.395 2943.5,-187 2946.67,-186.356 2949.9,-185.658 2953.16,-184.92"/>
<polygon fill="midnightblue" stroke="midnightblue" points="2602.83,-233.697 2593.26,-238.252 2603.58,-240.657 2602.83,-233.697"/>
</g>
<!-- Node48 -->
<g id="node25" class="node"><title>Node48</title>
<g id="a_node25"><a xlink:href="visible__surface_8h.html" target="_top" xlink:title="include/test/mir_test\l_framework/visible_surface.h">
<polygon fill="white" stroke="black" points="2135,-151 2135,-181 2278,-181 2278,-151 2135,-151"/>
<text text-anchor="start" x="2143" y="-169" font-family="Arial" font-size="10.00">include/test/mir_test</text>
<text text-anchor="middle" x="2206.5" y="-158" font-family="Arial" font-size="10.00">_framework/visible_surface.h</text>
</a>
</g>
</g>
<!-- Node40&#45;&gt;Node48 -->
<g id="edge29" class="edge"><title>Node40&#45;&gt;Node48</title>
<path fill="none" stroke="midnightblue" d="M2490.06,-231.402C2437.32,-220.43 2356.42,-203.266 2286.5,-187 2278.41,-185.119 2269.88,-183.063 2261.53,-181.009"/>
<polygon fill="midnightblue" stroke="midnightblue" points="2489.4,-234.838 2499.9,-233.444 2490.82,-227.984 2489.4,-234.838"/>
</g>
<!-- Node47 -->
<g id="node24" class="node"><title>Node47</title>
<g id="a_node24"><a xlink:href="connected__client__with__a__window_8h.html" target="_top" xlink:title="include/test/mir_test\l_framework/connected\l_client_with_a_window.h">
<polygon fill="white" stroke="black" points="2957,-67.5 2957,-108.5 3080,-108.5 3080,-67.5 2957,-67.5"/>
<text text-anchor="start" x="2965" y="-96.5" font-family="Arial" font-size="10.00">include/test/mir_test</text>
<text text-anchor="start" x="2965" y="-85.5" font-family="Arial" font-size="10.00">_framework/connected</text>
<text text-anchor="middle" x="3018.5" y="-74.5" font-family="Arial" font-size="10.00">_client_with_a_window.h</text>
</a>
</g>
</g>
<!-- Node46&#45;&gt;Node47 -->
<g id="edge28" class="edge"><title>Node46&#45;&gt;Node47</title>
<path fill="none" stroke="midnightblue" d="M3018.5,-135.297C3018.5,-126.301 3018.5,-116.653 3018.5,-108.506"/>
<polygon fill="midnightblue" stroke="midnightblue" points="3015,-135.428 3018.5,-145.428 3022,-135.428 3015,-135.428"/>
</g>
<!-- Node49&#45;&gt;Node37 -->
<g id="edge31" class="edge"><title>Node49&#45;&gt;Node37</title>
<path fill="none" stroke="midnightblue" d="M1285.21,-240.625C1185.62,-235.991 991.979,-222.831 831.5,-187 828.589,-186.35 825.621,-185.603 822.644,-184.788"/>
<polygon fill="midnightblue" stroke="midnightblue" points="1285.27,-244.132 1295.42,-241.086 1285.59,-237.139 1285.27,-244.132"/>
</g>
<!-- Node49&#45;&gt;Node38 -->
<g id="edge32" class="edge"><title>Node49&#45;&gt;Node38</title>
<path fill="none" stroke="midnightblue" d="M1285.3,-237.8C1204.67,-230.559 1064.72,-215.053 947.5,-187 944.6,-186.306 941.64,-185.524 938.668,-184.683"/>
<polygon fill="midnightblue" stroke="midnightblue" points="1285.05,-241.291 1295.32,-238.684 1285.66,-234.318 1285.05,-241.291"/>
</g>
<!-- Node49&#45;&gt;Node39 -->
<g id="edge35" class="edge"><title>Node49&#45;&gt;Node39</title>
<path fill="none" stroke="midnightblue" d="M1285.6,-232.886C1226.83,-223.229 1138.73,-207.177 1063.5,-187 1060.62,-186.227 1057.68,-185.385 1054.72,-184.496"/>
<polygon fill="midnightblue" stroke="midnightblue" points="1285.06,-236.344 1295.49,-234.497 1286.18,-229.435 1285.06,-236.344"/>
</g>
<!-- Node50 -->
<g id="node27" class="node"><title>Node50</title>
<g id="a_node27"><a xlink:href="drag__and__drop_8h.html" target="_top" xlink:title="include/client/mir\l_toolkit/extensions\l/drag_and_drop.h">
<polygon fill="white" stroke="black" points="1516.5,-145.5 1516.5,-186.5 1614.5,-186.5 1614.5,-145.5 1516.5,-145.5"/>
<text text-anchor="start" x="1524.5" y="-174.5" font-family="Arial" font-size="10.00">include/client/mir</text>
<text text-anchor="start" x="1524.5" y="-163.5" font-family="Arial" font-size="10.00">_toolkit/extensions</text>
<text text-anchor="middle" x="1565.5" y="-152.5" font-family="Arial" font-size="10.00">/drag_and_drop.h</text>
</a>
</g>
</g>
<!-- Node49&#45;&gt;Node50 -->
<g id="edge33" class="edge"><title>Node49&#45;&gt;Node50</title>
<path fill="none" stroke="midnightblue" d="M1416.38,-219.959C1448.54,-208.538 1486.73,-194.974 1516.42,-184.431"/>
<polygon fill="midnightblue" stroke="midnightblue" points="1414.86,-216.783 1406.61,-223.428 1417.21,-223.38 1414.86,-216.783"/>
</g>
<!-- Node51 -->
<g id="node28" class="node"><title>Node51</title>
<g id="a_node28"><a xlink:href="fenced__buffers_8h.html" target="_top" xlink:title="include/client/mir\l_toolkit/extensions\l/fenced_buffers.h">
<polygon fill="white" stroke="black" points="1632.5,-145.5 1632.5,-186.5 1730.5,-186.5 1730.5,-145.5 1632.5,-145.5"/>
<text text-anchor="start" x="1640.5" y="-174.5" font-family="Arial" font-size="10.00">include/client/mir</text>
<text text-anchor="start" x="1640.5" y="-163.5" font-family="Arial" font-size="10.00">_toolkit/extensions</text>
<text text-anchor="middle" x="1681.5" y="-152.5" font-family="Arial" font-size="10.00">/fenced_buffers.h</text>
</a>
</g>
</g>
<!-- Node49&#45;&gt;Node51 -->
<g id="edge34" class="edge"><title>Node49&#45;&gt;Node51</title>
<path fill="none" stroke="midnightblue" d="M1417.78,-231.825C1473.21,-221.892 1554.12,-206.019 1623.5,-187 1626.38,-186.212 1629.32,-185.356 1632.27,-184.458"/>
<polygon fill="midnightblue" stroke="midnightblue" points="1416.97,-228.414 1407.74,-233.61 1418.2,-235.306 1416.97,-228.414"/>
</g>
<!-- Node52 -->
<g id="node29" class="node"><title>Node52</title>
<g id="a_node29"><a xlink:href="graphics__module_8h.html" target="_top" xlink:title="include/client/mir\l_toolkit/extensions\l/graphics_module.h">
<polygon fill="white" stroke="black" points="1749,-145.5 1749,-186.5 1850,-186.5 1850,-145.5 1749,-145.5"/>
<text text-anchor="start" x="1757" y="-174.5" font-family="Arial" font-size="10.00">include/client/mir</text>
<text text-anchor="start" x="1757" y="-163.5" font-family="Arial" font-size="10.00">_toolkit/extensions</text>
<text text-anchor="middle" x="1799.5" y="-152.5" font-family="Arial" font-size="10.00">/graphics_module.h</text>
</a>
</g>
</g>
<!-- Node49&#45;&gt;Node52 -->
<g id="edge36" class="edge"><title>Node49&#45;&gt;Node52</title>
<path fill="none" stroke="midnightblue" d="M1417.81,-237.066C1495.6,-229.27 1628.11,-213.381 1739.5,-187 1742.6,-186.266 1745.77,-185.442 1748.94,-184.557"/>
<polygon fill="midnightblue" stroke="midnightblue" points="1417.27,-233.602 1407.67,-238.068 1417.96,-240.568 1417.27,-233.602"/>
</g>
<!-- Node53 -->
<g id="node30" class="node"><title>Node53</title>
<g id="a_node30"><a xlink:href="hardware__buffer__stream_8h.html" target="_top" xlink:title="include/client/mir\l_toolkit/extensions\l/hardware_buffer_stream.h">
<polygon fill="white" stroke="black" points="1868.5,-145.5 1868.5,-186.5 2000.5,-186.5 2000.5,-145.5 1868.5,-145.5"/>
<text text-anchor="start" x="1876.5" y="-174.5" font-family="Arial" font-size="10.00">include/client/mir</text>
<text text-anchor="start" x="1876.5" y="-163.5" font-family="Arial" font-size="10.00">_toolkit/extensions</text>
<text text-anchor="middle" x="1934.5" y="-152.5" font-family="Arial" font-size="10.00">/hardware_buffer_stream.h</text>
</a>
</g>
</g>
<!-- Node49&#45;&gt;Node53 -->
<g id="edge37" class="edge"><title>Node49&#45;&gt;Node53</title>
<path fill="none" stroke="midnightblue" d="M1417.77,-238.808C1515.04,-231.95 1701.88,-216.093 1858.5,-187 1861.72,-186.402 1865,-185.74 1868.31,-185.032"/>
<polygon fill="midnightblue" stroke="midnightblue" points="1417.52,-235.317 1407.79,-239.502 1418.01,-242.3 1417.52,-235.317"/>
</g>
<!-- Node54 -->
<g id="node31" class="node"><title>Node54</title>
<g id="a_node31"><a xlink:href="mesa__drm__auth_8h.html" target="_top" xlink:title="include/client/mir\l_toolkit/extensions\l/mesa_drm_auth.h">
<polygon fill="white" stroke="black" points="2018.5,-145.5 2018.5,-186.5 2116.5,-186.5 2116.5,-145.5 2018.5,-145.5"/>
<text text-anchor="start" x="2026.5" y="-174.5" font-family="Arial" font-size="10.00">include/client/mir</text>
<text text-anchor="start" x="2026.5" y="-163.5" font-family="Arial" font-size="10.00">_toolkit/extensions</text>
<text text-anchor="middle" x="2067.5" y="-152.5" font-family="Arial" font-size="10.00">/mesa_drm_auth.h</text>
</a>
</g>
</g>
<!-- Node49&#45;&gt;Node54 -->
<g id="edge38" class="edge"><title>Node49&#45;&gt;Node54</title>
<path fill="none" stroke="midnightblue" d="M1417.73,-242.742C1537.26,-241.091 1796.42,-232.077 2009.5,-187 2012.42,-186.383 2015.39,-185.661 2018.37,-184.866"/>
<polygon fill="midnightblue" stroke="midnightblue" points="1417.59,-239.243 1407.64,-242.868 1417.68,-246.243 1417.59,-239.243"/>
</g>
<!-- Node55 -->
<g id="node32" class="node"><title>Node55</title>
<g id="a_node32"><a xlink:href="set__gbm__device_8h.html" target="_top" xlink:title="include/client/mir\l_toolkit/extensions\l/set_gbm_device.h">
<polygon fill="white" stroke="black" points="1073,-145.5 1073,-186.5 1172,-186.5 1172,-145.5 1073,-145.5"/>
<text text-anchor="start" x="1081" y="-174.5" font-family="Arial" font-size="10.00">include/client/mir</text>
<text text-anchor="start" x="1081" y="-163.5" font-family="Arial" font-size="10.00">_toolkit/extensions</text>
<text text-anchor="middle" x="1122.5" y="-152.5" font-family="Arial" font-size="10.00">/set_gbm_device.h</text>
</a>
</g>
</g>
<!-- Node49&#45;&gt;Node55 -->
<g id="edge39" class="edge"><title>Node49&#45;&gt;Node55</title>
<path fill="none" stroke="midnightblue" d="M1285.62,-221.446C1254.09,-211.092 1215.82,-198.47 1181.5,-187 1178.42,-185.972 1175.26,-184.91 1172.06,-183.836"/>
<polygon fill="midnightblue" stroke="midnightblue" points="1284.59,-224.789 1295.18,-224.582 1286.77,-218.138 1284.59,-224.789"/>
</g>
<!-- Node56 -->
<g id="node33" class="node"><title>Node56</title>
<g id="a_node33"><a xlink:href="window__coordinate__translation_8h.html" target="_top" xlink:title="include/client/mir\l_toolkit/extensions\l/window_coordinate_translation.h">
<polygon fill="white" stroke="black" points="1190.5,-145.5 1190.5,-186.5 1350.5,-186.5 1350.5,-145.5 1190.5,-145.5"/>
<text text-anchor="start" x="1198.5" y="-174.5" font-family="Arial" font-size="10.00">include/client/mir</text>
<text text-anchor="start" x="1198.5" y="-163.5" font-family="Arial" font-size="10.00">_toolkit/extensions</text>
<text text-anchor="middle" x="1270.5" y="-152.5" font-family="Arial" font-size="10.00">/window_coordinate_translation.h</text>
</a>
</g>
</g>
<!-- Node49&#45;&gt;Node56 -->
<g id="edge40" class="edge"><title>Node49&#45;&gt;Node56</title>
<path fill="none" stroke="midnightblue" d="M1323.25,-216.492C1312.74,-206.629 1301.01,-195.627 1291.29,-186.506"/>
<polygon fill="midnightblue" stroke="midnightblue" points="1320.95,-219.138 1330.64,-223.428 1325.74,-214.033 1320.95,-219.138"/>
</g>
<!-- Node57 -->
<g id="node34" class="node"><title>Node57</title>
<g id="a_node34"><a xlink:href="stub__platform__extension_8h.html" target="_top" xlink:title="include/test/mir_test\l_framework/stub_platform\l_extension.h">
<polygon fill="white" stroke="black" points="1369,-145.5 1369,-186.5 1498,-186.5 1498,-145.5 1369,-145.5"/>
<text text-anchor="start" x="1377" y="-174.5" font-family="Arial" font-size="10.00">include/test/mir_test</text>
<text text-anchor="start" x="1377" y="-163.5" font-family="Arial" font-size="10.00">_framework/stub_platform</text>
<text text-anchor="middle" x="1433.5" y="-152.5" font-family="Arial" font-size="10.00">_extension.h</text>
</a>
</g>
</g>
<!-- Node49&#45;&gt;Node57 -->
<g id="edge41" class="edge"><title>Node49&#45;&gt;Node57</title>
<path fill="none" stroke="midnightblue" d="M1380.1,-216.492C1390.74,-206.629 1402.61,-195.627 1412.45,-186.506"/>
<polygon fill="midnightblue" stroke="midnightblue" points="1377.57,-214.063 1372.62,-223.428 1382.33,-219.197 1377.57,-214.063"/>
</g>
</g>
</svg>
