<?xml version="1.0" encoding="UTF-8" standalone="no"?>
<!DOCTYPE svg PUBLIC "-//W3C//DTD SVG 1.1//EN"
 "http://www.w3.org/Graphics/SVG/1.1/DTD/svg11.dtd">
<!-- Generated by graphviz version 2.38.0 (20140413.2041)
 -->
<!-- Title: include/client/mir_toolkit/mir_display_configuration.h Pages: 1 -->
<svg width="1886pt" height="374pt"
 viewBox="0.00 0.00 1885.50 374.00" xmlns="http://www.w3.org/2000/svg" xmlns:xlink="http://www.w3.org/1999/xlink">
<g id="graph0" class="graph" transform="scale(1 1) rotate(0) translate(4 370)">
<title>include/client/mir_toolkit/mir_display_configuration.h</title>
<polygon fill="white" stroke="none" points="-4,4 -4,-370 1881.5,-370 1881.5,4 -4,4"/>
<!-- Node0 -->
<g id="node1" class="node"><title>Node0</title>
<polygon fill="#bfbfbf" stroke="black" points="0,-324.5 0,-365.5 101,-365.5 101,-324.5 0,-324.5"/>
<text text-anchor="start" x="8" y="-353.5" font-family="Arial" font-size="10.00">include/client/mir</text>
<text text-anchor="start" x="8" y="-342.5" font-family="Arial" font-size="10.00">_toolkit/mir_display</text>
<text text-anchor="middle" x="50.5" y="-331.5" font-family="Arial" font-size="10.00">_configuration.h</text>
</g>
<!-- Node1 -->
<g id="node2" class="node"><title>Node1</title>
<g id="a_node2"><a xlink:href="client__types_8h.html" target="_top" xlink:title="client_types.h">
<polygon fill="white" stroke="black" points="73,-268.5 73,-287.5 150,-287.5 150,-268.5 73,-268.5"/>
<text text-anchor="middle" x="111.5" y="-275.5" font-family="Arial" font-size="10.00">client_types.h</text>
</a>
</g>
</g>
<!-- Node0&#45;&gt;Node1 -->
<g id="edge1" class="edge"><title>Node0&#45;&gt;Node1</title>
<path fill="none" stroke="midnightblue" d="M68.802,-324.498C77.6149,-315.107 88.0545,-303.983 96.4051,-295.085"/>
<polygon fill="midnightblue" stroke="midnightblue" points="99.089,-297.34 103.38,-287.652 93.9846,-292.549 99.089,-297.34"/>
</g>
<!-- Node6 -->
<g id="node7" class="node"><title>Node6</title>
<g id="a_node7"><a xlink:href="deprecations_8h.html" target="_top" xlink:title="mir_toolkit/deprecations.h">
<polygon fill="white" stroke="black" points="130.5,-62 130.5,-81 258.5,-81 258.5,-62 130.5,-62"/>
<text text-anchor="middle" x="194.5" y="-69" font-family="Arial" font-size="10.00">mir_toolkit/deprecations.h</text>
</a>
</g>
</g>
<!-- Node0&#45;&gt;Node6 -->
<g id="edge46" class="edge"><title>Node0&#45;&gt;Node6</title>
<path fill="none" stroke="midnightblue" d="M41.1952,-324.249C23.0584,-282.533 -11.4855,-184.257 33.5,-123 53.4489,-95.8356 87.9843,-82.8876 119.967,-76.8645"/>
<polygon fill="midnightblue" stroke="midnightblue" points="120.955,-80.2477 130.239,-75.143 119.798,-73.344 120.955,-80.2477"/>
</g>
<!-- Node2 -->
<g id="node3" class="node"><title>Node2</title>
<g id="a_node3"><a xlink:href="events_2event_8h.html" target="_top" xlink:title="mir_toolkit/events\l/event.h">
<polygon fill="white" stroke="black" points="822.5,-201.5 822.5,-231.5 916.5,-231.5 916.5,-201.5 822.5,-201.5"/>
<text text-anchor="start" x="830.5" y="-219.5" font-family="Arial" font-size="10.00">mir_toolkit/events</text>
<text text-anchor="middle" x="869.5" y="-208.5" font-family="Arial" font-size="10.00">/event.h</text>
</a>
</g>
</g>
<!-- Node1&#45;&gt;Node2 -->
<g id="edge2" class="edge"><title>Node1&#45;&gt;Node2</title>
<path fill="none" stroke="midnightblue" d="M150.131,-273.968C274.461,-264.208 664.699,-233.576 812.236,-221.995"/>
<polygon fill="midnightblue" stroke="midnightblue" points="812.737,-225.467 822.433,-221.195 812.189,-218.488 812.737,-225.467"/>
</g>
<!-- Node3 -->
<g id="node4" class="node"><title>Node3</title>
<polygon fill="white" stroke="#bfbfbf" points="1611.5,-134.5 1611.5,-153.5 1663.5,-153.5 1663.5,-134.5 1611.5,-134.5"/>
<text text-anchor="middle" x="1637.5" y="-141.5" font-family="Arial" font-size="10.00">stddef.h</text>
</g>
<!-- Node1&#45;&gt;Node3 -->
<g id="edge45" class="edge"><title>Node1&#45;&gt;Node3</title>
<path fill="none" stroke="midnightblue" d="M150.312,-276.512C356.038,-273.56 1320.27,-255.062 1602.5,-165 1607.33,-163.459 1612.23,-161.189 1616.77,-158.725"/>
<polygon fill="midnightblue" stroke="midnightblue" points="1618.64,-161.683 1625.46,-153.569 1615.07,-155.664 1618.64,-161.683"/>
</g>
<!-- Node5 -->
<g id="node6" class="node"><title>Node5</title>
<g id="a_node6"><a xlink:href="common_8h.html" target="_top" xlink:title="mir_toolkit/common.h">
<polygon fill="white" stroke="black" points="56.5,-134.5 56.5,-153.5 166.5,-153.5 166.5,-134.5 56.5,-134.5"/>
<text text-anchor="middle" x="111.5" y="-141.5" font-family="Arial" font-size="10.00">mir_toolkit/common.h</text>
</a>
</g>
</g>
<!-- Node1&#45;&gt;Node5 -->
<g id="edge43" class="edge"><title>Node1&#45;&gt;Node5</title>
<path fill="none" stroke="midnightblue" d="M111.5,-268.339C111.5,-247.174 111.5,-192.448 111.5,-163.533"/>
<polygon fill="midnightblue" stroke="midnightblue" points="115,-163.521 111.5,-153.521 108,-163.521 115,-163.521"/>
</g>
<!-- Node1&#45;&gt;Node6 -->
<g id="edge44" class="edge"><title>Node1&#45;&gt;Node6</title>
<path fill="none" stroke="midnightblue" d="M102.265,-268.314C77.2481,-243.728 12.3432,-172.251 47.5,-123 64.3256,-99.429 92.8785,-86.7457 120.369,-79.964"/>
<polygon fill="midnightblue" stroke="midnightblue" points="121.426,-83.3144 130.425,-77.7232 119.904,-76.4819 121.426,-83.3144"/>
</g>
<!-- Node2&#45;&gt;Node3 -->
<g id="edge3" class="edge"><title>Node2&#45;&gt;Node3</title>
<path fill="none" stroke="midnightblue" d="M916.675,-213.477C1068.31,-206.803 1537.15,-184.785 1602.5,-165 1607.35,-163.531 1612.26,-161.292 1616.81,-158.837"/>
<polygon fill="midnightblue" stroke="midnightblue" points="1618.68,-161.791 1625.49,-153.669 1615.1,-155.776 1618.68,-161.791"/>
</g>
<!-- Node4 -->
<g id="node5" class="node"><title>Node4</title>
<polygon fill="white" stroke="#bfbfbf" points="1283,-0.5 1283,-19.5 1332,-19.5 1332,-0.5 1283,-0.5"/>
<text text-anchor="middle" x="1307.5" y="-7.5" font-family="Arial" font-size="10.00">stdint.h</text>
</g>
<!-- Node2&#45;&gt;Node4 -->
<g id="edge4" class="edge"><title>Node2&#45;&gt;Node4</title>
<path fill="none" stroke="midnightblue" d="M916.879,-213.847C1029.34,-209.438 1305.07,-195.587 1332.5,-165 1394.33,-96.0622 1251.86,-95.0517 1246.5,-87 1238.87,-75.5299 1240.29,-68.2987 1246.5,-56 1253.31,-42.5199 1266.27,-32.083 1278.5,-24.6696"/>
<polygon fill="midnightblue" stroke="midnightblue" points="1280.57,-27.5214 1287.59,-19.5896 1277.16,-21.4099 1280.57,-27.5214"/>
</g>
<!-- Node2&#45;&gt;Node5 -->
<g id="edge5" class="edge"><title>Node2&#45;&gt;Node5</title>
<path fill="none" stroke="midnightblue" d="M822.294,-215.422C710.087,-214.504 418.964,-207.813 180.5,-165 169.127,-162.958 156.95,-159.775 146.039,-156.544"/>
<polygon fill="midnightblue" stroke="midnightblue" points="147.022,-153.185 136.435,-153.595 144.967,-159.876 147.022,-153.185"/>
</g>
<!-- Node2&#45;&gt;Node6 -->
<g id="edge7" class="edge"><title>Node2&#45;&gt;Node6</title>
<path fill="none" stroke="midnightblue" d="M822.302,-215.088C679.485,-213.404 258.94,-205.057 213.5,-165 192.755,-146.713 191.099,-112.364 192.383,-91.06"/>
<polygon fill="midnightblue" stroke="midnightblue" points="195.878,-91.2745 193.267,-81.0066 188.905,-90.6618 195.878,-91.2745"/>
</g>
<!-- Node7 -->
<g id="node8" class="node"><title>Node7</title>
<g id="a_node8"><a xlink:href="input__event_8h.html" target="_top" xlink:title="mir_toolkit/events\l/input/input_event.h">
<polygon fill="white" stroke="black" points="1379.5,-129 1379.5,-159 1481.5,-159 1481.5,-129 1379.5,-129"/>
<text text-anchor="start" x="1387.5" y="-147" font-family="Arial" font-size="10.00">mir_toolkit/events</text>
<text text-anchor="middle" x="1430.5" y="-136" font-family="Arial" font-size="10.00">/input/input_event.h</text>
</a>
</g>
</g>
<!-- Node2&#45;&gt;Node7 -->
<g id="edge8" class="edge"><title>Node2&#45;&gt;Node7</title>
<path fill="none" stroke="midnightblue" d="M916.703,-213.546C1004.28,-209.408 1197.02,-197.326 1356.5,-165 1361.1,-164.067 1365.85,-162.941 1370.61,-161.704"/>
<polygon fill="midnightblue" stroke="midnightblue" points="1371.64,-165.05 1380.37,-159.038 1369.8,-158.298 1371.64,-165.05"/>
</g>
<!-- Node14 -->
<g id="node15" class="node"><title>Node14</title>
<g id="a_node15"><a xlink:href="resize__event_8h.html" target="_top" xlink:title="mir_toolkit/events\l/resize_event.h">
<polygon fill="white" stroke="black" points="594.5,-129 594.5,-159 688.5,-159 688.5,-129 594.5,-129"/>
<text text-anchor="start" x="602.5" y="-147" font-family="Arial" font-size="10.00">mir_toolkit/events</text>
<text text-anchor="middle" x="641.5" y="-136" font-family="Arial" font-size="10.00">/resize_event.h</text>
</a>
</g>
</g>
<!-- Node2&#45;&gt;Node14 -->
<g id="edge19" class="edge"><title>Node2&#45;&gt;Node14</title>
<path fill="none" stroke="midnightblue" d="M822.198,-204.412C785.346,-194.586 733.339,-179.576 688.5,-165 685.92,-164.161 683.279,-163.284 680.627,-162.385"/>
<polygon fill="midnightblue" stroke="midnightblue" points="681.659,-159.038 671.064,-159.063 679.362,-165.651 681.659,-159.038"/>
</g>
<!-- Node15 -->
<g id="node16" class="node"><title>Node15</title>
<g id="a_node16"><a xlink:href="surface__event_8h.html" target="_top" xlink:title="mir_toolkit/events\l/surface_event.h">
<polygon fill="white" stroke="black" points="222.5,-129 222.5,-159 316.5,-159 316.5,-129 222.5,-129"/>
<text text-anchor="start" x="230.5" y="-147" font-family="Arial" font-size="10.00">mir_toolkit/events</text>
<text text-anchor="middle" x="269.5" y="-136" font-family="Arial" font-size="10.00">/surface_event.h</text>
</a>
</g>
</g>
<!-- Node2&#45;&gt;Node15 -->
<g id="edge21" class="edge"><title>Node2&#45;&gt;Node15</title>
<path fill="none" stroke="midnightblue" d="M822.149,-215.153C725.581,-213.617 500.099,-205.631 316.5,-165 312.859,-164.194 309.13,-163.217 305.436,-162.134"/>
<polygon fill="midnightblue" stroke="midnightblue" points="306.415,-158.773 295.825,-159.062 304.284,-165.441 306.415,-158.773"/>
</g>
<!-- Node16 -->
<g id="node17" class="node"><title>Node16</title>
<g id="a_node17"><a xlink:href="window__event_8h.html" target="_top" xlink:title="mir_toolkit/events\l/window_event.h">
<polygon fill="white" stroke="black" points="706.5,-129 706.5,-159 800.5,-159 800.5,-129 706.5,-129"/>
<text text-anchor="start" x="714.5" y="-147" font-family="Arial" font-size="10.00">mir_toolkit/events</text>
<text text-anchor="middle" x="753.5" y="-136" font-family="Arial" font-size="10.00">/window_event.h</text>
</a>
</g>
</g>
<!-- Node2&#45;&gt;Node16 -->
<g id="edge24" class="edge"><title>Node2&#45;&gt;Node16</title>
<path fill="none" stroke="midnightblue" d="M840.778,-201.403C821.988,-190.836 797.784,-176.245 779.552,-164.551"/>
<polygon fill="midnightblue" stroke="midnightblue" points="781.423,-161.592 771.132,-159.073 777.606,-167.46 781.423,-161.592"/>
</g>
<!-- Node17 -->
<g id="node18" class="node"><title>Node17</title>
<g id="a_node18"><a xlink:href="orientation__event_8h.html" target="_top" xlink:title="mir_toolkit/events\l/orientation_event.h">
<polygon fill="white" stroke="black" points="818.5,-129 818.5,-159 920.5,-159 920.5,-129 818.5,-129"/>
<text text-anchor="start" x="826.5" y="-147" font-family="Arial" font-size="10.00">mir_toolkit/events</text>
<text text-anchor="middle" x="869.5" y="-136" font-family="Arial" font-size="10.00">/orientation_event.h</text>
</a>
</g>
</g>
<!-- Node2&#45;&gt;Node17 -->
<g id="edge26" class="edge"><title>Node2&#45;&gt;Node17</title>
<path fill="none" stroke="midnightblue" d="M863.951,-201.233C862.749,-192.06 862.449,-179.905 863.051,-169.244"/>
<polygon fill="midnightblue" stroke="midnightblue" points="866.541,-169.52 863.954,-159.246 859.569,-168.89 866.541,-169.52"/>
</g>
<!-- Node18 -->
<g id="node19" class="node"><title>Node18</title>
<g id="a_node19"><a xlink:href="prompt__session__event_8h.html" target="_top" xlink:title="mir_toolkit/events\l/prompt_session_event.h">
<polygon fill="white" stroke="black" points="938.5,-129 938.5,-159 1064.5,-159 1064.5,-129 938.5,-129"/>
<text text-anchor="start" x="946.5" y="-147" font-family="Arial" font-size="10.00">mir_toolkit/events</text>
<text text-anchor="middle" x="1001.5" y="-136" font-family="Arial" font-size="10.00">/prompt_session_event.h</text>
</a>
</g>
</g>
<!-- Node2&#45;&gt;Node18 -->
<g id="edge28" class="edge"><title>Node2&#45;&gt;Node18</title>
<path fill="none" stroke="midnightblue" d="M890.369,-201.403C909.252,-190.548 937.359,-175.446 960.643,-163.6"/>
<polygon fill="midnightblue" stroke="midnightblue" points="962.273,-166.699 969.628,-159.073 959.122,-160.447 962.273,-166.699"/>
</g>
<!-- Node19 -->
<g id="node20" class="node"><title>Node19</title>
<g id="a_node20"><a xlink:href="keymap__event_8h.html" target="_top" xlink:title="mir_toolkit/events\l/keymap_event.h">
<polygon fill="white" stroke="black" points="1499.5,-129 1499.5,-159 1593.5,-159 1593.5,-129 1499.5,-129"/>
<text text-anchor="start" x="1507.5" y="-147" font-family="Arial" font-size="10.00">mir_toolkit/events</text>
<text text-anchor="middle" x="1546.5" y="-136" font-family="Arial" font-size="10.00">/keymap_event.h</text>
</a>
</g>
</g>
<!-- Node2&#45;&gt;Node19 -->
<g id="edge30" class="edge"><title>Node2&#45;&gt;Node19</title>
<path fill="none" stroke="midnightblue" d="M916.731,-215.833C1020.33,-215.521 1274.24,-209.627 1481.5,-165 1485.31,-164.18 1489.21,-163.167 1493.13,-162.036"/>
<polygon fill="midnightblue" stroke="midnightblue" points="1494.32,-165.33 1502.84,-159.024 1492.25,-158.644 1494.32,-165.33"/>
</g>
<!-- Node20 -->
<g id="node21" class="node"><title>Node20</title>
<g id="a_node21"><a xlink:href="input__configuration__event_8h.html" target="_top" xlink:title="mir_toolkit/events\l/input_configuration\l_event.h">
<polygon fill="white" stroke="black" points="335,-123.5 335,-164.5 436,-164.5 436,-123.5 335,-123.5"/>
<text text-anchor="start" x="343" y="-152.5" font-family="Arial" font-size="10.00">mir_toolkit/events</text>
<text text-anchor="start" x="343" y="-141.5" font-family="Arial" font-size="10.00">/input_configuration</text>
<text text-anchor="middle" x="385.5" y="-130.5" font-family="Arial" font-size="10.00">_event.h</text>
</a>
</g>
</g>
<!-- Node2&#45;&gt;Node20 -->
<g id="edge33" class="edge"><title>Node2&#45;&gt;Node20</title>
<path fill="none" stroke="midnightblue" d="M822.207,-213.33C743.693,-208.852 582.116,-196.439 444.434,-166.725"/>
<polygon fill="midnightblue" stroke="midnightblue" points="445.082,-163.284 434.563,-164.556 443.579,-170.121 445.082,-163.284"/>
</g>
<!-- Node21 -->
<g id="node22" class="node"><title>Node21</title>
<g id="a_node22"><a xlink:href="surface__output__event_8h.html" target="_top" xlink:title="mir_toolkit/events\l/surface_output_event.h">
<polygon fill="white" stroke="black" points="454.5,-129 454.5,-159 576.5,-159 576.5,-129 454.5,-129"/>
<text text-anchor="start" x="462.5" y="-147" font-family="Arial" font-size="10.00">mir_toolkit/events</text>
<text text-anchor="middle" x="515.5" y="-136" font-family="Arial" font-size="10.00">/surface_output_event.h</text>
</a>
</g>
</g>
<!-- Node2&#45;&gt;Node21 -->
<g id="edge36" class="edge"><title>Node2&#45;&gt;Node21</title>
<path fill="none" stroke="midnightblue" d="M822.465,-209.567C764.117,-201.228 662.253,-184.82 576.5,-165 572.086,-163.98 567.536,-162.853 562.999,-161.67"/>
<polygon fill="midnightblue" stroke="midnightblue" points="563.712,-158.237 553.145,-159.009 561.887,-164.995 563.712,-158.237"/>
</g>
<!-- Node22 -->
<g id="node23" class="node"><title>Node22</title>
<g id="a_node23"><a xlink:href="window__output__event_8h.html" target="_top" xlink:title="mir_toolkit/events\l/window_output_event.h">
<polygon fill="white" stroke="black" points="1083,-129 1083,-159 1204,-159 1204,-129 1083,-129"/>
<text text-anchor="start" x="1091" y="-147" font-family="Arial" font-size="10.00">mir_toolkit/events</text>
<text text-anchor="middle" x="1143.5" y="-136" font-family="Arial" font-size="10.00">/window_output_event.h</text>
</a>
</g>
</g>
<!-- Node2&#45;&gt;Node22 -->
<g id="edge39" class="edge"><title>Node2&#45;&gt;Node22</title>
<path fill="none" stroke="midnightblue" d="M916.753,-202.523C956.34,-192.62 1014.09,-178.438 1064.5,-165 1068.31,-163.985 1072.22,-162.921 1076.19,-161.835"/>
<polygon fill="midnightblue" stroke="midnightblue" points="1077.38,-165.137 1086.08,-159.103 1075.51,-158.39 1077.38,-165.137"/>
</g>
<!-- Node23 -->
<g id="node24" class="node"><title>Node23</title>
<g id="a_node24"><a xlink:href="input__device__state__event_8h.html" target="_top" xlink:title="mir_toolkit/events\l/input_device_state\l_event.h">
<polygon fill="white" stroke="black" points="1222,-123.5 1222,-164.5 1323,-164.5 1323,-123.5 1222,-123.5"/>
<text text-anchor="start" x="1230" y="-152.5" font-family="Arial" font-size="10.00">mir_toolkit/events</text>
<text text-anchor="start" x="1230" y="-141.5" font-family="Arial" font-size="10.00">/input_device_state</text>
<text text-anchor="middle" x="1272.5" y="-130.5" font-family="Arial" font-size="10.00">_event.h</text>
</a>
</g>
</g>
<!-- Node2&#45;&gt;Node23 -->
<g id="edge41" class="edge"><title>Node2&#45;&gt;Node23</title>
<path fill="none" stroke="midnightblue" d="M916.578,-210.697C981.92,-203.873 1103.12,-189.411 1204.5,-165 1207.07,-164.38 1209.69,-163.697 1212.34,-162.966"/>
<polygon fill="midnightblue" stroke="midnightblue" points="1213.34,-166.319 1221.96,-160.152 1211.38,-159.6 1213.34,-166.319"/>
</g>
<!-- Node5&#45;&gt;Node6 -->
<g id="edge6" class="edge"><title>Node5&#45;&gt;Node6</title>
<path fill="none" stroke="midnightblue" d="M121.677,-134.355C135.243,-122.833 159.483,-102.243 176.249,-88.0022"/>
<polygon fill="midnightblue" stroke="midnightblue" points="178.883,-90.3568 184.239,-81.2154 174.352,-85.0217 178.883,-90.3568"/>
</g>
<!-- Node7&#45;&gt;Node2 -->
<g id="edge9" class="edge"><title>Node7&#45;&gt;Node2</title>
<path fill="none" stroke="midnightblue" d="M1398.04,-159.038C1390.4,-161.31 1382.25,-163.429 1374.5,-165 1214.65,-197.401 1021.38,-209.464 926.917,-213.575"/>
<polygon fill="midnightblue" stroke="midnightblue" points="926.56,-210.086 916.717,-214.004 926.855,-217.08 926.56,-210.086"/>
</g>
<!-- Node7&#45;&gt;Node4 -->
<g id="edge12" class="edge"><title>Node7&#45;&gt;Node4</title>
<path fill="none" stroke="midnightblue" d="M1452.95,-128.843C1477.85,-111.377 1512.1,-80.9362 1492.5,-56 1474.14,-32.6351 1390.3,-19.8923 1342.03,-14.3767"/>
<polygon fill="midnightblue" stroke="midnightblue" points="1342.34,-10.8898 1332.02,-13.278 1341.57,-17.848 1342.34,-10.8898"/>
</g>
<!-- Node8 -->
<g id="node9" class="node"><title>Node8</title>
<g id="a_node9"><a xlink:href="mir__input__device__types_8h.html" target="_top" xlink:title="mir_toolkit/mir_input\l_device_types.h">
<polygon fill="white" stroke="black" points="1255.5,-56.5 1255.5,-86.5 1359.5,-86.5 1359.5,-56.5 1255.5,-56.5"/>
<text text-anchor="start" x="1263.5" y="-74.5" font-family="Arial" font-size="10.00">mir_toolkit/mir_input</text>
<text text-anchor="middle" x="1307.5" y="-63.5" font-family="Arial" font-size="10.00">_device_types.h</text>
</a>
</g>
</g>
<!-- Node7&#45;&gt;Node8 -->
<g id="edge10" class="edge"><title>Node7&#45;&gt;Node8</title>
<path fill="none" stroke="midnightblue" d="M1405.9,-128.903C1387.22,-118.192 1361.32,-103.346 1340.78,-91.5738"/>
<polygon fill="midnightblue" stroke="midnightblue" points="1342.47,-88.5091 1332.05,-86.5729 1338.99,-94.5823 1342.47,-88.5091"/>
</g>
<!-- Node9 -->
<g id="node10" class="node"><title>Node9</title>
<polygon fill="white" stroke="#bfbfbf" points="1562.5,-0.5 1562.5,-19.5 1618.5,-19.5 1618.5,-0.5 1562.5,-0.5"/>
<text text-anchor="middle" x="1590.5" y="-7.5" font-family="Arial" font-size="10.00">stdbool.h</text>
</g>
<!-- Node7&#45;&gt;Node9 -->
<g id="edge13" class="edge"><title>Node7&#45;&gt;Node9</title>
<path fill="none" stroke="midnightblue" d="M1451.55,-128.944C1467.55,-118.009 1489.91,-102.188 1508.5,-87 1532.31,-67.5477 1558.05,-43.0729 1574.21,-27.2371"/>
<polygon fill="midnightblue" stroke="midnightblue" points="1577.07,-29.3311 1581.73,-19.8158 1572.15,-24.3487 1577.07,-29.3311"/>
</g>
<!-- Node10 -->
<g id="node11" class="node"><title>Node10</title>
<g id="a_node11"><a xlink:href="touch__event_8h.html" target="_top" xlink:title="mir_toolkit/events\l/input/touch_event.h">
<polygon fill="white" stroke="black" points="1378,-56.5 1378,-86.5 1483,-86.5 1483,-56.5 1378,-56.5"/>
<text text-anchor="start" x="1386" y="-74.5" font-family="Arial" font-size="10.00">mir_toolkit/events</text>
<text text-anchor="middle" x="1430.5" y="-63.5" font-family="Arial" font-size="10.00">/input/touch_event.h</text>
</a>
</g>
</g>
<!-- Node7&#45;&gt;Node10 -->
<g id="edge14" class="edge"><title>Node7&#45;&gt;Node10</title>
<path fill="none" stroke="midnightblue" d="M1430.5,-128.733C1430.5,-119.655 1430.5,-107.658 1430.5,-97.0773"/>
<polygon fill="midnightblue" stroke="midnightblue" points="1434,-96.7455 1430.5,-86.7455 1427,-96.7455 1434,-96.7455"/>
</g>
<!-- Node11 -->
<g id="node12" class="node"><title>Node11</title>
<g id="a_node12"><a xlink:href="keyboard__event_8h.html" target="_top" xlink:title="mir_toolkit/events\l/input/keyboard_event.h">
<polygon fill="white" stroke="black" points="1706,-56.5 1706,-86.5 1827,-86.5 1827,-56.5 1706,-56.5"/>
<text text-anchor="start" x="1714" y="-74.5" font-family="Arial" font-size="10.00">mir_toolkit/events</text>
<text text-anchor="middle" x="1766.5" y="-63.5" font-family="Arial" font-size="10.00">/input/keyboard_event.h</text>
</a>
</g>
</g>
<!-- Node7&#45;&gt;Node11 -->
<g id="edge15" class="edge"><title>Node7&#45;&gt;Node11</title>
<path fill="none" stroke="midnightblue" d="M1469.95,-128.926C1476.75,-126.765 1483.79,-124.694 1490.5,-123 1577.53,-101.019 1603.45,-104.174 1695.76,-87.0835"/>
<polygon fill="midnightblue" stroke="midnightblue" points="1696.64,-90.4802 1705.82,-85.191 1695.34,-83.601 1696.64,-90.4802"/>
</g>
<!-- Node13 -->
<g id="node14" class="node"><title>Node13</title>
<g id="a_node14"><a xlink:href="pointer__event_8h.html" target="_top" xlink:title="mir_toolkit/events\l/input/pointer_event.h">
<polygon fill="white" stroke="black" points="1577.5,-56.5 1577.5,-86.5 1687.5,-86.5 1687.5,-56.5 1577.5,-56.5"/>
<text text-anchor="start" x="1585.5" y="-74.5" font-family="Arial" font-size="10.00">mir_toolkit/events</text>
<text text-anchor="middle" x="1632.5" y="-63.5" font-family="Arial" font-size="10.00">/input/pointer_event.h</text>
</a>
</g>
</g>
<!-- Node7&#45;&gt;Node13 -->
<g id="edge17" class="edge"><title>Node7&#45;&gt;Node13</title>
<path fill="none" stroke="midnightblue" d="M1470.89,-128.903C1502.96,-117.711 1547.96,-102.006 1582.33,-90.0093"/>
<polygon fill="midnightblue" stroke="midnightblue" points="1583.89,-93.1726 1592.18,-86.5729 1581.58,-86.5636 1583.89,-93.1726"/>
</g>
<!-- Node8&#45;&gt;Node4 -->
<g id="edge11" class="edge"><title>Node8&#45;&gt;Node4</title>
<path fill="none" stroke="midnightblue" d="M1307.5,-56.3993C1307.5,-48.4664 1307.5,-38.458 1307.5,-29.8583"/>
<polygon fill="midnightblue" stroke="midnightblue" points="1311,-29.6577 1307.5,-19.6578 1304,-29.6578 1311,-29.6577"/>
</g>
<!-- Node12 -->
<g id="node13" class="node"><title>Node12</title>
<polygon fill="white" stroke="#bfbfbf" points="1743.5,-0.5 1743.5,-19.5 1877.5,-19.5 1877.5,-0.5 1743.5,-0.5"/>
<text text-anchor="middle" x="1810.5" y="-7.5" font-family="Arial" font-size="10.00">xkbcommon/xkbcommon.h</text>
</g>
<!-- Node11&#45;&gt;Node12 -->
<g id="edge16" class="edge"><title>Node11&#45;&gt;Node12</title>
<path fill="none" stroke="midnightblue" d="M1776.93,-56.3993C1783.26,-47.8424 1791.37,-36.8708 1798.03,-27.857"/>
<polygon fill="midnightblue" stroke="midnightblue" points="1800.97,-29.7792 1804.1,-19.6578 1795.34,-25.6171 1800.97,-29.7792"/>
</g>
<!-- Node13&#45;&gt;Node9 -->
<g id="edge18" class="edge"><title>Node13&#45;&gt;Node9</title>
<path fill="none" stroke="midnightblue" d="M1622.55,-56.3993C1616.51,-47.8424 1608.76,-36.8708 1602.4,-27.857"/>
<polygon fill="midnightblue" stroke="midnightblue" points="1605.24,-25.8091 1596.61,-19.6578 1599.52,-29.8459 1605.24,-25.8091"/>
</g>
<!-- Node14&#45;&gt;Node2 -->
<g id="edge20" class="edge"><title>Node14&#45;&gt;Node2</title>
<path fill="none" stroke="midnightblue" d="M688.547,-158.957C694.61,-161.04 700.707,-163.117 706.5,-165 743.247,-176.945 784.806,-189.182 816.841,-198.618"/>
<polygon fill="midnightblue" stroke="midnightblue" points="815.879,-201.984 826.461,-201.453 817.858,-195.269 815.879,-201.984"/>
</g>
<!-- Node15&#45;&gt;Node2 -->
<g id="edge22" class="edge"><title>Node15&#45;&gt;Node2</title>
<path fill="none" stroke="midnightblue" d="M313.487,-159.062C320.482,-161.361 327.646,-163.483 334.5,-165 505.786,-202.906 713.526,-212.399 812.244,-214.749"/>
<polygon fill="midnightblue" stroke="midnightblue" points="812.233,-218.25 822.309,-214.973 812.389,-211.251 812.233,-218.25"/>
</g>
<!-- Node15&#45;&gt;Node6 -->
<g id="edge23" class="edge"><title>Node15&#45;&gt;Node6</title>
<path fill="none" stroke="midnightblue" d="M254.323,-128.733C241.846,-117.005 224.185,-100.404 211.287,-88.2797"/>
<polygon fill="midnightblue" stroke="midnightblue" points="213.644,-85.6921 203.961,-81.3932 208.85,-90.7925 213.644,-85.6921"/>
</g>
<!-- Node16&#45;&gt;Node2 -->
<g id="edge25" class="edge"><title>Node16&#45;&gt;Node2</title>
<path fill="none" stroke="midnightblue" d="M782.178,-159.073C800.96,-169.634 825.165,-184.224 843.405,-195.922"/>
<polygon fill="midnightblue" stroke="midnightblue" points="841.54,-198.884 851.831,-201.403 845.356,-193.016 841.54,-198.884"/>
</g>
<!-- Node17&#45;&gt;Node2 -->
<g id="edge27" class="edge"><title>Node17&#45;&gt;Node2</title>
<path fill="none" stroke="midnightblue" d="M875.046,-159.246C876.249,-168.414 876.551,-180.568 875.95,-191.232"/>
<polygon fill="midnightblue" stroke="midnightblue" points="872.46,-190.959 875.049,-201.233 879.432,-191.588 872.46,-190.959"/>
</g>
<!-- Node18&#45;&gt;Node2 -->
<g id="edge29" class="edge"><title>Node18&#45;&gt;Node2</title>
<path fill="none" stroke="midnightblue" d="M980.674,-159.073C961.805,-169.922 933.7,-185.023 910.409,-196.873"/>
<polygon fill="midnightblue" stroke="midnightblue" points="908.776,-193.777 901.421,-201.403 911.926,-200.028 908.776,-193.777"/>
</g>
<!-- Node19&#45;&gt;Node2 -->
<g id="edge31" class="edge"><title>Node19&#45;&gt;Node2</title>
<path fill="none" stroke="midnightblue" d="M1520.48,-159.024C1513.74,-161.356 1506.46,-163.501 1499.5,-165 1292.36,-209.601 1038.63,-215.514 926.85,-215.832"/>
<polygon fill="midnightblue" stroke="midnightblue" points="926.797,-212.332 916.802,-215.846 926.807,-219.332 926.797,-212.332"/>
</g>
<!-- Node19&#45;&gt;Node12 -->
<g id="edge32" class="edge"><title>Node19&#45;&gt;Node12</title>
<path fill="none" stroke="midnightblue" d="M1582.64,-128.962C1589.18,-126.746 1595.99,-124.646 1602.5,-123 1653.5,-110.094 1802.24,-126.931 1836.5,-87 1851.06,-70.0326 1837.19,-44.5123 1824.78,-27.8049"/>
<polygon fill="midnightblue" stroke="midnightblue" points="1827.19,-25.2036 1818.23,-19.54 1821.7,-29.5513 1827.19,-25.2036"/>
</g>
<!-- Node20&#45;&gt;Node2 -->
<g id="edge34" class="edge"><title>Node20&#45;&gt;Node2</title>
<path fill="none" stroke="midnightblue" d="M436.061,-160.089C442.253,-161.945 448.5,-163.657 454.5,-165 580.505,-193.197 731.328,-206.402 812.03,-211.963"/>
<polygon fill="midnightblue" stroke="midnightblue" points="812.255,-215.486 822.467,-212.666 812.725,-208.501 812.255,-215.486"/>
</g>
<!-- Node20&#45;&gt;Node6 -->
<g id="edge35" class="edge"><title>Node20&#45;&gt;Node6</title>
<path fill="none" stroke="midnightblue" d="M334.817,-124.292C300.66,-111.685 256.612,-95.426 227.059,-84.518"/>
<polygon fill="midnightblue" stroke="midnightblue" points="228.222,-81.2162 217.628,-81.0369 225.798,-87.7831 228.222,-81.2162"/>
</g>
<!-- Node21&#45;&gt;Node2 -->
<g id="edge37" class="edge"><title>Node21&#45;&gt;Node2</title>
<path fill="none" stroke="midnightblue" d="M570.89,-159.009C578.822,-161.152 586.865,-163.235 594.5,-165 669.372,-182.305 756.525,-197.009 812.397,-206.012"/>
<polygon fill="midnightblue" stroke="midnightblue" points="812.028,-209.497 822.456,-207.626 813.137,-202.586 812.028,-209.497"/>
</g>
<!-- Node21&#45;&gt;Node6 -->
<g id="edge38" class="edge"><title>Node21&#45;&gt;Node6</title>
<path fill="none" stroke="midnightblue" d="M467.507,-128.953C459.837,-126.86 451.969,-124.804 444.5,-123 379.064,-107.198 303.182,-92.3551 252.337,-82.9045"/>
<polygon fill="midnightblue" stroke="midnightblue" points="252.666,-79.4061 242.196,-81.0295 251.393,-86.2894 252.666,-79.4061"/>
</g>
<!-- Node22&#45;&gt;Node2 -->
<g id="edge40" class="edge"><title>Node22&#45;&gt;Node2</title>
<path fill="none" stroke="midnightblue" d="M1103.89,-159.103C1096.79,-161.124 1089.46,-163.145 1082.5,-165 1030.01,-178.992 969.561,-193.792 926.404,-203.726"/>
<polygon fill="midnightblue" stroke="midnightblue" points="925.615,-200.317 916.646,-205.957 927.174,-207.141 925.615,-200.317"/>
</g>
<!-- Node23&#45;&gt;Node2 -->
<g id="edge42" class="edge"><title>Node23&#45;&gt;Node2</title>
<path fill="none" stroke="midnightblue" d="M1224.4,-164.533C1223.76,-164.692 1223.13,-164.848 1222.5,-165 1120,-189.681 997.237,-204.191 926.715,-210.92"/>
<polygon fill="midnightblue" stroke="midnightblue" points="926.328,-207.441 916.698,-211.857 926.98,-214.41 926.328,-207.441"/>
</g>
</g>
</svg>
