<?xml version="1.0" encoding="UTF-8" standalone="no"?>
<!DOCTYPE svg PUBLIC "-//W3C//DTD SVG 1.1//EN"
 "http://www.w3.org/Graphics/SVG/1.1/DTD/svg11.dtd">
<!-- Generated by graphviz version 2.38.0 (20140413.2041)
 -->
<!-- Title: examples/mir_demo_server_loader.cpp Pages: 1 -->
<svg width="266pt" height="95pt"
 viewBox="0.00 0.00 266.00 95.00" xmlns="http://www.w3.org/2000/svg" xmlns:xlink="http://www.w3.org/1999/xlink">
<g id="graph0" class="graph" transform="scale(1 1) rotate(0) translate(4 91)">
<title>examples/mir_demo_server_loader.cpp</title>
<polygon fill="white" stroke="none" points="-4,4 -4,-91 262,-91 262,4 -4,4"/>
<!-- Node0 -->
<g id="node1" class="node"><title>Node0</title>
<polygon fill="#bfbfbf" stroke="black" points="62.5,-56.5 62.5,-86.5 199.5,-86.5 199.5,-56.5 62.5,-56.5"/>
<text text-anchor="start" x="70.5" y="-74.5" font-family="Arial" font-size="10.00">examples/mir_demo_server</text>
<text text-anchor="middle" x="131" y="-63.5" font-family="Arial" font-size="10.00">_loader.cpp</text>
</g>
<!-- Node1 -->
<g id="node2" class="node"><title>Node1</title>
<polygon fill="white" stroke="#bfbfbf" points="0,-0.5 0,-19.5 46,-19.5 46,-0.5 0,-0.5"/>
<text text-anchor="middle" x="23" y="-7.5" font-family="Arial" font-size="10.00">dlfcn.h</text>
</g>
<!-- Node0&#45;&gt;Node1 -->
<g id="edge1" class="edge"><title>Node0&#45;&gt;Node1</title>
<path fill="none" stroke="midnightblue" d="M105.406,-56.3993C87.9321,-46.7728 64.9116,-34.0902 47.6443,-24.5772"/>
<polygon fill="midnightblue" stroke="midnightblue" points="49.1626,-21.4177 38.715,-19.6578 45.7848,-27.5488 49.1626,-21.4177"/>
</g>
<!-- Node2 -->
<g id="node3" class="node"><title>Node2</title>
<polygon fill="white" stroke="#bfbfbf" points="64.5,-0.5 64.5,-19.5 123.5,-19.5 123.5,-0.5 64.5,-0.5"/>
<text text-anchor="middle" x="94" y="-7.5" font-family="Arial" font-size="10.00">stdexcept</text>
</g>
<!-- Node0&#45;&gt;Node2 -->
<g id="edge2" class="edge"><title>Node0&#45;&gt;Node2</title>
<path fill="none" stroke="midnightblue" d="M122.232,-56.3993C117.021,-48.0207 110.371,-37.3269 104.834,-28.4229"/>
<polygon fill="midnightblue" stroke="midnightblue" points="107.637,-26.3015 99.3838,-19.6578 101.692,-29.9981 107.637,-26.3015"/>
</g>
<!-- Node3 -->
<g id="node4" class="node"><title>Node3</title>
<polygon fill="white" stroke="#bfbfbf" points="142,-0.5 142,-19.5 196,-19.5 196,-0.5 142,-0.5"/>
<text text-anchor="middle" x="169" y="-7.5" font-family="Arial" font-size="10.00">iostream</text>
</g>
<!-- Node0&#45;&gt;Node3 -->
<g id="edge3" class="edge"><title>Node0&#45;&gt;Node3</title>
<path fill="none" stroke="midnightblue" d="M140.005,-56.3993C145.413,-47.9315 152.332,-37.0991 158.054,-28.1393"/>
<polygon fill="midnightblue" stroke="midnightblue" points="161.038,-29.9695 163.471,-19.6578 155.138,-26.2018 161.038,-29.9695"/>
</g>
<!-- Node4 -->
<g id="node5" class="node"><title>Node4</title>
<polygon fill="white" stroke="#bfbfbf" points="214,-0.5 214,-19.5 258,-19.5 258,-0.5 214,-0.5"/>
<text text-anchor="middle" x="236" y="-7.5" font-family="Arial" font-size="10.00">thread</text>
</g>
<!-- Node0&#45;&gt;Node4 -->
<g id="edge4" class="edge"><title>Node0&#45;&gt;Node4</title>
<path fill="none" stroke="midnightblue" d="M155.884,-56.3993C172.714,-46.8619 194.839,-34.3248 211.573,-24.8422"/>
<polygon fill="midnightblue" stroke="midnightblue" points="213.747,-27.633 220.722,-19.6578 210.296,-21.5429 213.747,-27.633"/>
</g>
</g>
</svg>
