<?xml version="1.0" encoding="UTF-8" standalone="no"?>
<!DOCTYPE svg PUBLIC "-//W3C//DTD SVG 1.1//EN"
 "http://www.w3.org/Graphics/SVG/1.1/DTD/svg11.dtd">
<!-- Generated by graphviz version 2.38.0 (20140413.2041)
 -->
<!-- Title: include/client/mir_toolkit/mir_prompt_session.h Pages: 1 -->
<svg width="147pt" height="106pt"
 viewBox="0.00 0.00 147.00 106.00" xmlns="http://www.w3.org/2000/svg" xmlns:xlink="http://www.w3.org/1999/xlink">
<g id="graph0" class="graph" transform="scale(1 1) rotate(0) translate(4 102)">
<title>include/client/mir_toolkit/mir_prompt_session.h</title>
<polygon fill="white" stroke="none" points="-4,4 -4,-102 143,-102 143,4 -4,4"/>
<!-- Node46 -->
<g id="node1" class="node"><title>Node46</title>
<polygon fill="#bfbfbf" stroke="black" points="19.5,-56.5 19.5,-97.5 119.5,-97.5 119.5,-56.5 19.5,-56.5"/>
<text text-anchor="start" x="27.5" y="-85.5" font-family="Arial" font-size="10.00">include/client/mir</text>
<text text-anchor="start" x="27.5" y="-74.5" font-family="Arial" font-size="10.00">_toolkit/mir_prompt</text>
<text text-anchor="middle" x="69.5" y="-63.5" font-family="Arial" font-size="10.00">_session.h</text>
</g>
<!-- Node47 -->
<g id="node2" class="node"><title>Node47</title>
<g id="a_node2"><a xlink:href="prompt__session_8c.html" target="_top" xlink:title="examples/prompt_session.c">
<polygon fill="white" stroke="black" points="0,-0.5 0,-19.5 139,-19.5 139,-0.5 0,-0.5"/>
<text text-anchor="middle" x="69.5" y="-7.5" font-family="Arial" font-size="10.00">examples/prompt_session.c</text>
</a>
</g>
</g>
<!-- Node46&#45;&gt;Node47 -->
<g id="edge1" class="edge"><title>Node46&#45;&gt;Node47</title>
<path fill="none" stroke="midnightblue" d="M69.5,-46.2632C69.5,-36.5592 69.5,-26.5242 69.5,-19.6525"/>
<polygon fill="midnightblue" stroke="midnightblue" points="66.0001,-46.4978 69.5,-56.4979 73.0001,-46.4979 66.0001,-46.4978"/>
</g>
</g>
</svg>
