<?xml version="1.0" encoding="UTF-8" standalone="no"?>
<!DOCTYPE svg PUBLIC "-//W3C//DTD SVG 1.1//EN"
 "http://www.w3.org/Graphics/SVG/1.1/DTD/svg11.dtd">
<!-- Generated by graphviz version 2.38.0 (20140413.2041)
 -->
<!-- Title: include/client/mir_toolkit/mir_buffer.h Pages: 1 -->
<svg width="1781pt" height="374pt"
 viewBox="0.00 0.00 1781.00 374.00" xmlns="http://www.w3.org/2000/svg" xmlns:xlink="http://www.w3.org/1999/xlink">
<g id="graph0" class="graph" transform="scale(1 1) rotate(0) translate(4 370)">
<title>include/client/mir_toolkit/mir_buffer.h</title>
<polygon fill="white" stroke="none" points="-4,4 -4,-370 1777,-370 1777,4 -4,4"/>
<!-- Node0 -->
<g id="node1" class="node"><title>Node0</title>
<polygon fill="#bfbfbf" stroke="black" points="1586.5,-335.5 1586.5,-365.5 1687.5,-365.5 1687.5,-335.5 1586.5,-335.5"/>
<text text-anchor="start" x="1594.5" y="-353.5" font-family="Arial" font-size="10.00">include/client/mir</text>
<text text-anchor="middle" x="1637" y="-342.5" font-family="Arial" font-size="10.00">_toolkit/mir_buffer.h</text>
</g>
<!-- Node1 -->
<g id="node2" class="node"><title>Node1</title>
<polygon fill="white" stroke="#bfbfbf" points="1422,-0.5 1422,-19.5 1478,-19.5 1478,-0.5 1422,-0.5"/>
<text text-anchor="middle" x="1450" y="-7.5" font-family="Arial" font-size="10.00">stdbool.h</text>
</g>
<!-- Node0&#45;&gt;Node1 -->
<g id="edge1" class="edge"><title>Node0&#45;&gt;Node1</title>
<path fill="none" stroke="midnightblue" d="M1639.7,-335.24C1646.06,-297.511 1658.49,-193.166 1617,-123 1586.94,-72.1687 1523.68,-39.6106 1484.23,-23.3716"/>
<polygon fill="midnightblue" stroke="midnightblue" points="1485.33,-20.0433 1474.75,-19.5935 1482.74,-26.5462 1485.33,-20.0433"/>
</g>
<!-- Node2 -->
<g id="node3" class="node"><title>Node2</title>
<g id="a_node3"><a xlink:href="client__types_8h.html" target="_top" xlink:title="mir_toolkit/client\l_types.h">
<polygon fill="white" stroke="black" points="768.995,-268.5 768.995,-298.5 856.995,-298.5 856.995,-268.5 768.995,-268.5"/>
<text text-anchor="start" x="776.995" y="-286.5" font-family="Arial" font-size="10.00">mir_toolkit/client</text>
<text text-anchor="middle" x="812.995" y="-275.5" font-family="Arial" font-size="10.00">_types.h</text>
</a>
</g>
</g>
<!-- Node0&#45;&gt;Node2 -->
<g id="edge2" class="edge"><title>Node0&#45;&gt;Node2</title>
<path fill="none" stroke="midnightblue" d="M1586.38,-345.507C1440.2,-333.976 1018.21,-300.688 867.39,-288.791"/>
<polygon fill="midnightblue" stroke="midnightblue" points="867.251,-285.269 857.007,-287.972 866.701,-292.247 867.251,-285.269"/>
</g>
<!-- Node24 -->
<g id="node25" class="node"><title>Node24</title>
<g id="a_node25"><a xlink:href="mir__native__buffer_8h.html" target="_top" xlink:title="mir_toolkit/mir_native\l_buffer.h">
<polygon fill="white" stroke="black" points="1665,-268.5 1665,-298.5 1773,-298.5 1773,-268.5 1665,-268.5"/>
<text text-anchor="start" x="1673" y="-286.5" font-family="Arial" font-size="10.00">mir_toolkit/mir_native</text>
<text text-anchor="middle" x="1719" y="-275.5" font-family="Arial" font-size="10.00">_buffer.h</text>
</a>
</g>
</g>
<!-- Node0&#45;&gt;Node24 -->
<g id="edge47" class="edge"><title>Node0&#45;&gt;Node24</title>
<path fill="none" stroke="midnightblue" d="M1654.79,-335.396C1666.07,-326.452 1680.85,-314.737 1693.38,-304.802"/>
<polygon fill="midnightblue" stroke="midnightblue" points="1695.57,-307.531 1701.24,-298.577 1691.23,-302.046 1695.57,-307.531"/>
</g>
<!-- Node3 -->
<g id="node4" class="node"><title>Node3</title>
<g id="a_node4"><a xlink:href="toolkit_2events_2event_8h.html" target="_top" xlink:title="mir_toolkit/events\l/event.h">
<polygon fill="white" stroke="black" points="766.995,-201.5 766.995,-231.5 858.995,-231.5 858.995,-201.5 766.995,-201.5"/>
<text text-anchor="start" x="774.995" y="-219.5" font-family="Arial" font-size="10.00">mir_toolkit/events</text>
<text text-anchor="middle" x="812.995" y="-208.5" font-family="Arial" font-size="10.00">/event.h</text>
</a>
</g>
</g>
<!-- Node2&#45;&gt;Node3 -->
<g id="edge3" class="edge"><title>Node2&#45;&gt;Node3</title>
<path fill="none" stroke="midnightblue" d="M812.995,-268.396C812.995,-260.645 812.995,-250.812 812.995,-241.86"/>
<polygon fill="midnightblue" stroke="midnightblue" points="816.495,-241.576 812.995,-231.577 809.495,-241.577 816.495,-241.576"/>
</g>
<!-- Node4 -->
<g id="node5" class="node"><title>Node4</title>
<polygon fill="white" stroke="#bfbfbf" points="1557.5,-134.5 1557.5,-153.5 1608.5,-153.5 1608.5,-134.5 1557.5,-134.5"/>
<text text-anchor="middle" x="1583" y="-141.5" font-family="Arial" font-size="10.00">stddef.h</text>
</g>
<!-- Node2&#45;&gt;Node4 -->
<g id="edge46" class="edge"><title>Node2&#45;&gt;Node4</title>
<path fill="none" stroke="midnightblue" d="M857.275,-280.056C972.759,-272.689 1291.6,-245.978 1543,-165 1548.54,-163.215 1554.27,-160.759 1559.6,-158.179"/>
<polygon fill="midnightblue" stroke="midnightblue" points="1561.35,-161.213 1568.63,-153.518 1558.14,-154.991 1561.35,-161.213"/>
</g>
<!-- Node6 -->
<g id="node7" class="node"><title>Node6</title>
<g id="a_node7"><a xlink:href="common_8h.html" target="_top" xlink:title="mir_toolkit/common.h">
<polygon fill="white" stroke="black" points="17.9954,-134.5 17.9954,-153.5 127.995,-153.5 127.995,-134.5 17.9954,-134.5"/>
<text text-anchor="middle" x="72.9954" y="-141.5" font-family="Arial" font-size="10.00">mir_toolkit/common.h</text>
</a>
</g>
</g>
<!-- Node2&#45;&gt;Node6 -->
<g id="edge44" class="edge"><title>Node2&#45;&gt;Node6</title>
<path fill="none" stroke="midnightblue" d="M768.692,-276.845C660.088,-262.54 372.313,-221.961 136.995,-165 127.255,-162.642 116.827,-159.608 107.276,-156.62"/>
<polygon fill="midnightblue" stroke="midnightblue" points="108.298,-153.272 97.7066,-153.552 106.161,-159.937 108.298,-153.272"/>
</g>
<!-- Node7 -->
<g id="node8" class="node"><title>Node7</title>
<g id="a_node8"><a xlink:href="deprecations_8h.html" target="_top" xlink:title="mir_toolkit/deprecations.h">
<polygon fill="white" stroke="black" points="309.995,-62 309.995,-81 437.995,-81 437.995,-62 309.995,-62"/>
<text text-anchor="middle" x="373.995" y="-69" font-family="Arial" font-size="10.00">mir_toolkit/deprecations.h</text>
</a>
</g>
</g>
<!-- Node2&#45;&gt;Node7 -->
<g id="edge45" class="edge"><title>Node2&#45;&gt;Node7</title>
<path fill="none" stroke="midnightblue" d="M768.829,-279.518C607.491,-268.168 56.9051,-225.24 8.99539,-165 -2.62373,-150.39 -3.26613,-137.075 8.99539,-123 45.8901,-80.6492 203.909,-72.6378 299.523,-71.7828"/>
<polygon fill="midnightblue" stroke="midnightblue" points="299.741,-75.2815 309.718,-71.7165 299.695,-68.2817 299.741,-75.2815"/>
</g>
<!-- Node3&#45;&gt;Node4 -->
<g id="edge4" class="edge"><title>Node3&#45;&gt;Node4</title>
<path fill="none" stroke="midnightblue" d="M859.146,-213.363C1009.18,-206.268 1477.27,-182.932 1543,-165 1548.71,-163.442 1554.56,-161.037 1559.97,-158.429"/>
<polygon fill="midnightblue" stroke="midnightblue" points="1561.86,-161.391 1569.1,-153.653 1558.62,-155.189 1561.86,-161.391"/>
</g>
<!-- Node5 -->
<g id="node6" class="node"><title>Node5</title>
<polygon fill="white" stroke="#bfbfbf" points="1626.5,-0.5 1626.5,-19.5 1675.5,-19.5 1675.5,-0.5 1626.5,-0.5"/>
<text text-anchor="middle" x="1651" y="-7.5" font-family="Arial" font-size="10.00">stdint.h</text>
</g>
<!-- Node3&#45;&gt;Node5 -->
<g id="edge5" class="edge"><title>Node3&#45;&gt;Node5</title>
<path fill="none" stroke="midnightblue" d="M859.097,-214.108C1005.03,-209.433 1450.66,-192.993 1509,-165 1531.96,-153.979 1525.88,-135.641 1548,-123 1612.78,-85.9691 1665.23,-145.15 1712,-87 1720.63,-76.2639 1718.21,-68.2987 1712,-56 1705.19,-42.5199 1692.23,-32.083 1680,-24.6696"/>
<polygon fill="midnightblue" stroke="midnightblue" points="1681.34,-21.4099 1670.9,-19.5896 1677.93,-27.5214 1681.34,-21.4099"/>
</g>
<!-- Node3&#45;&gt;Node6 -->
<g id="edge6" class="edge"><title>Node3&#45;&gt;Node6</title>
<path fill="none" stroke="midnightblue" d="M766.646,-213.418C634.607,-207.268 258.229,-188.155 136.995,-165 126.533,-163.002 115.374,-159.877 105.352,-156.686"/>
<polygon fill="midnightblue" stroke="midnightblue" points="106.371,-153.337 95.7775,-153.513 104.168,-159.981 106.371,-153.337"/>
</g>
<!-- Node3&#45;&gt;Node7 -->
<g id="edge8" class="edge"><title>Node3&#45;&gt;Node7</title>
<path fill="none" stroke="midnightblue" d="M766.786,-214.734C675.857,-212.4 477.771,-202.975 422.995,-165 397.687,-147.454 384.413,-112.605 378.332,-91.0492"/>
<polygon fill="midnightblue" stroke="midnightblue" points="381.666,-89.9611 375.781,-81.1507 374.887,-91.7077 381.666,-89.9611"/>
</g>
<!-- Node8 -->
<g id="node9" class="node"><title>Node8</title>
<g id="a_node9"><a xlink:href="input__event_8h.html" target="_top" xlink:title="mir_toolkit/events\l/input/input_event.h">
<polygon fill="white" stroke="black" points="1399.5,-129 1399.5,-159 1500.5,-159 1500.5,-129 1399.5,-129"/>
<text text-anchor="start" x="1407.5" y="-147" font-family="Arial" font-size="10.00">mir_toolkit/events</text>
<text text-anchor="middle" x="1450" y="-136" font-family="Arial" font-size="10.00">/input/input_event.h</text>
</a>
</g>
</g>
<!-- Node3&#45;&gt;Node8 -->
<g id="edge9" class="edge"><title>Node3&#45;&gt;Node8</title>
<path fill="none" stroke="midnightblue" d="M859.062,-215.027C956.513,-213.215 1189.74,-204.672 1381,-165 1385.11,-164.147 1389.33,-163.102 1393.57,-161.943"/>
<polygon fill="midnightblue" stroke="midnightblue" points="1394.82,-165.223 1403.44,-159.063 1392.86,-158.503 1394.82,-165.223"/>
</g>
<!-- Node14 -->
<g id="node15" class="node"><title>Node14</title>
<g id="a_node15"><a xlink:href="resize__event_8h.html" target="_top" xlink:title="mir_toolkit/events\l/resize_event.h">
<polygon fill="white" stroke="black" points="541.995,-129 541.995,-159 633.995,-159 633.995,-129 541.995,-129"/>
<text text-anchor="start" x="549.995" y="-147" font-family="Arial" font-size="10.00">mir_toolkit/events</text>
<text text-anchor="middle" x="587.995" y="-136" font-family="Arial" font-size="10.00">/resize_event.h</text>
</a>
</g>
</g>
<!-- Node3&#45;&gt;Node14 -->
<g id="edge20" class="edge"><title>Node3&#45;&gt;Node14</title>
<path fill="none" stroke="midnightblue" d="M766.868,-204.627C730.375,-194.819 678.583,-179.715 633.995,-165 631.547,-164.192 629.044,-163.348 626.529,-162.482"/>
<polygon fill="midnightblue" stroke="midnightblue" points="627.462,-159.1 616.867,-159.071 625.131,-165.7 627.462,-159.1"/>
</g>
<!-- Node15 -->
<g id="node16" class="node"><title>Node15</title>
<g id="a_node16"><a xlink:href="surface__event_8h.html" target="_top" xlink:title="mir_toolkit/events\l/surface_event.h">
<polygon fill="white" stroke="black" points="431.995,-129 431.995,-159 523.995,-159 523.995,-129 431.995,-129"/>
<text text-anchor="start" x="439.995" y="-147" font-family="Arial" font-size="10.00">mir_toolkit/events</text>
<text text-anchor="middle" x="477.995" y="-136" font-family="Arial" font-size="10.00">/surface_event.h</text>
</a>
</g>
</g>
<!-- Node3&#45;&gt;Node15 -->
<g id="edge22" class="edge"><title>Node3&#45;&gt;Node15</title>
<path fill="none" stroke="midnightblue" d="M766.568,-210.424C708.797,-203.027 607.928,-187.652 523.995,-165 520.856,-164.153 517.643,-163.205 514.44,-162.195"/>
<polygon fill="midnightblue" stroke="midnightblue" points="515.542,-158.873 504.948,-159.016 513.319,-165.511 515.542,-158.873"/>
</g>
<!-- Node16 -->
<g id="node17" class="node"><title>Node16</title>
<g id="a_node17"><a xlink:href="window__event_8h.html" target="_top" xlink:title="mir_toolkit/events\l/window_event.h">
<polygon fill="white" stroke="black" points="651.995,-129 651.995,-159 743.995,-159 743.995,-129 651.995,-129"/>
<text text-anchor="start" x="659.995" y="-147" font-family="Arial" font-size="10.00">mir_toolkit/events</text>
<text text-anchor="middle" x="697.995" y="-136" font-family="Arial" font-size="10.00">/window_event.h</text>
</a>
</g>
</g>
<!-- Node3&#45;&gt;Node16 -->
<g id="edge25" class="edge"><title>Node3&#45;&gt;Node16</title>
<path fill="none" stroke="midnightblue" d="M784.474,-201.403C766.003,-190.932 742.272,-176.51 724.265,-164.87"/>
<polygon fill="midnightblue" stroke="midnightblue" points="725.709,-161.632 715.428,-159.073 721.869,-167.485 725.709,-161.632"/>
</g>
<!-- Node17 -->
<g id="node18" class="node"><title>Node17</title>
<g id="a_node18"><a xlink:href="orientation__event_8h.html" target="_top" xlink:title="mir_toolkit/events\l/orientation_event.h">
<polygon fill="white" stroke="black" points="762.495,-129 762.495,-159 863.495,-159 863.495,-129 762.495,-129"/>
<text text-anchor="start" x="770.495" y="-147" font-family="Arial" font-size="10.00">mir_toolkit/events</text>
<text text-anchor="middle" x="812.995" y="-136" font-family="Arial" font-size="10.00">/orientation_event.h</text>
</a>
</g>
</g>
<!-- Node3&#45;&gt;Node17 -->
<g id="edge27" class="edge"><title>Node3&#45;&gt;Node17</title>
<path fill="none" stroke="midnightblue" d="M807.447,-201.233C806.245,-192.06 805.945,-179.905 806.547,-169.244"/>
<polygon fill="midnightblue" stroke="midnightblue" points="810.036,-169.52 807.45,-159.246 803.064,-168.89 810.036,-169.52"/>
</g>
<!-- Node18 -->
<g id="node19" class="node"><title>Node18</title>
<g id="a_node19"><a xlink:href="prompt__session__event_8h.html" target="_top" xlink:title="mir_toolkit/events\l/prompt_session_event.h">
<polygon fill="white" stroke="black" points="881.495,-129 881.495,-159 1006.5,-159 1006.5,-129 881.495,-129"/>
<text text-anchor="start" x="889.495" y="-147" font-family="Arial" font-size="10.00">mir_toolkit/events</text>
<text text-anchor="middle" x="943.995" y="-136" font-family="Arial" font-size="10.00">/prompt_session_event.h</text>
</a>
</g>
</g>
<!-- Node3&#45;&gt;Node18 -->
<g id="edge29" class="edge"><title>Node3&#45;&gt;Node18</title>
<path fill="none" stroke="midnightblue" d="M833.664,-201.403C852.393,-190.548 880.287,-175.446 903.403,-163.6"/>
<polygon fill="midnightblue" stroke="midnightblue" points="904.99,-166.72 912.323,-159.073 901.822,-160.478 904.99,-166.72"/>
</g>
<!-- Node19 -->
<g id="node20" class="node"><title>Node19</title>
<g id="a_node20"><a xlink:href="keymap__event_8h.html" target="_top" xlink:title="mir_toolkit/events\l/keymap_event.h">
<polygon fill="white" stroke="black" points="145.995,-129 145.995,-159 237.995,-159 237.995,-129 145.995,-129"/>
<text text-anchor="start" x="153.995" y="-147" font-family="Arial" font-size="10.00">mir_toolkit/events</text>
<text text-anchor="middle" x="191.995" y="-136" font-family="Arial" font-size="10.00">/keymap_event.h</text>
</a>
</g>
</g>
<!-- Node3&#45;&gt;Node19 -->
<g id="edge31" class="edge"><title>Node3&#45;&gt;Node19</title>
<path fill="none" stroke="midnightblue" d="M766.903,-215.461C668.31,-214.583 430.837,-207.896 237.995,-165 234.518,-164.226 230.961,-163.29 227.436,-162.249"/>
<polygon fill="midnightblue" stroke="midnightblue" points="228.264,-158.838 217.672,-159.089 226.109,-165.498 228.264,-158.838"/>
</g>
<!-- Node20 -->
<g id="node21" class="node"><title>Node20</title>
<g id="a_node21"><a xlink:href="input__configuration__event_8h.html" target="_top" xlink:title="mir_toolkit/events\l/input_configuration\l_event.h">
<polygon fill="white" stroke="black" points="1024.5,-123.5 1024.5,-164.5 1125.5,-164.5 1125.5,-123.5 1024.5,-123.5"/>
<text text-anchor="start" x="1032.5" y="-152.5" font-family="Arial" font-size="10.00">mir_toolkit/events</text>
<text text-anchor="start" x="1032.5" y="-141.5" font-family="Arial" font-size="10.00">/input_configuration</text>
<text text-anchor="middle" x="1075" y="-130.5" font-family="Arial" font-size="10.00">_event.h</text>
</a>
</g>
</g>
<!-- Node3&#45;&gt;Node20 -->
<g id="edge34" class="edge"><title>Node3&#45;&gt;Node20</title>
<path fill="none" stroke="midnightblue" d="M859.06,-203.317C898.35,-193.713 956.017,-179.554 1006,-165 1008.76,-164.194 1011.59,-163.343 1014.46,-162.465"/>
<polygon fill="midnightblue" stroke="midnightblue" points="1015.76,-165.725 1024.26,-159.4 1013.67,-159.044 1015.76,-165.725"/>
</g>
<!-- Node21 -->
<g id="node22" class="node"><title>Node21</title>
<g id="a_node22"><a xlink:href="surface__output__event_8h.html" target="_top" xlink:title="mir_toolkit/events\l/surface_output_event.h">
<polygon fill="white" stroke="black" points="256.495,-129 256.495,-159 375.495,-159 375.495,-129 256.495,-129"/>
<text text-anchor="start" x="264.495" y="-147" font-family="Arial" font-size="10.00">mir_toolkit/events</text>
<text text-anchor="middle" x="315.995" y="-136" font-family="Arial" font-size="10.00">/surface_output_event.h</text>
</a>
</g>
</g>
<!-- Node3&#45;&gt;Node21 -->
<g id="edge37" class="edge"><title>Node3&#45;&gt;Node21</title>
<path fill="none" stroke="midnightblue" d="M766.905,-212.606C687.323,-206.796 519.859,-191.907 380.995,-165 375.82,-163.997 370.475,-162.826 365.17,-161.562"/>
<polygon fill="midnightblue" stroke="midnightblue" points="365.622,-158.068 355.071,-159.039 363.924,-164.859 365.622,-158.068"/>
</g>
<!-- Node22 -->
<g id="node23" class="node"><title>Node22</title>
<g id="a_node23"><a xlink:href="window__output__event_8h.html" target="_top" xlink:title="mir_toolkit/events\l/window_output_event.h">
<polygon fill="white" stroke="black" points="1143.5,-129 1143.5,-159 1262.5,-159 1262.5,-129 1143.5,-129"/>
<text text-anchor="start" x="1151.5" y="-147" font-family="Arial" font-size="10.00">mir_toolkit/events</text>
<text text-anchor="middle" x="1203" y="-136" font-family="Arial" font-size="10.00">/window_output_event.h</text>
</a>
</g>
</g>
<!-- Node3&#45;&gt;Node22 -->
<g id="edge40" class="edge"><title>Node3&#45;&gt;Node22</title>
<path fill="none" stroke="midnightblue" d="M859.006,-209.324C920.219,-201.319 1031.25,-185.874 1125,-165 1129.55,-163.986 1134.25,-162.841 1138.97,-161.626"/>
<polygon fill="midnightblue" stroke="midnightblue" points="1139.92,-164.997 1148.69,-159.051 1138.12,-158.23 1139.92,-164.997"/>
</g>
<!-- Node23 -->
<g id="node24" class="node"><title>Node23</title>
<g id="a_node24"><a xlink:href="input__device__state__event_8h.html" target="_top" xlink:title="mir_toolkit/events\l/input_device_state\l_event.h">
<polygon fill="white" stroke="black" points="1281,-123.5 1281,-164.5 1381,-164.5 1381,-123.5 1281,-123.5"/>
<text text-anchor="start" x="1289" y="-152.5" font-family="Arial" font-size="10.00">mir_toolkit/events</text>
<text text-anchor="start" x="1289" y="-141.5" font-family="Arial" font-size="10.00">/input_device_state</text>
<text text-anchor="middle" x="1331" y="-130.5" font-family="Arial" font-size="10.00">_event.h</text>
</a>
</g>
</g>
<!-- Node3&#45;&gt;Node23 -->
<g id="edge42" class="edge"><title>Node3&#45;&gt;Node23</title>
<path fill="none" stroke="midnightblue" d="M859.182,-213.366C941.21,-209.048 1116.85,-196.816 1262,-165 1264.96,-164.351 1267.98,-163.609 1271.02,-162.802"/>
<polygon fill="midnightblue" stroke="midnightblue" points="1272.11,-166.132 1280.78,-160.038 1270.2,-159.397 1272.11,-166.132"/>
</g>
<!-- Node6&#45;&gt;Node7 -->
<g id="edge7" class="edge"><title>Node6&#45;&gt;Node7</title>
<path fill="none" stroke="midnightblue" d="M98.3756,-134.473C110.063,-130.7 124.159,-126.366 136.995,-123 198.352,-106.913 269.646,-92.2581 317.888,-82.9284"/>
<polygon fill="midnightblue" stroke="midnightblue" points="318.66,-86.3441 327.82,-81.0198 317.339,-79.4698 318.66,-86.3441"/>
</g>
<!-- Node8&#45;&gt;Node1 -->
<g id="edge14" class="edge"><title>Node8&#45;&gt;Node1</title>
<path fill="none" stroke="midnightblue" d="M1408.76,-128.992C1402.49,-126.938 1396.08,-124.882 1390,-123 1329.4,-104.255 1224.77,-105.843 1264,-56 1281.99,-33.1354 1362.43,-20.4933 1411.44,-14.7885"/>
<polygon fill="midnightblue" stroke="midnightblue" points="1412.14,-18.2327 1421.68,-13.6435 1411.36,-11.276 1412.14,-18.2327"/>
</g>
<!-- Node8&#45;&gt;Node3 -->
<g id="edge10" class="edge"><title>Node8&#45;&gt;Node3</title>
<path fill="none" stroke="midnightblue" d="M1421.11,-159.063C1413.97,-161.362 1406.31,-163.484 1399,-165 1207.71,-204.678 974.44,-213.217 869.148,-215.028"/>
<polygon fill="midnightblue" stroke="midnightblue" points="869.005,-211.53 859.062,-215.188 869.116,-218.529 869.005,-211.53"/>
</g>
<!-- Node8&#45;&gt;Node5 -->
<g id="edge13" class="edge"><title>Node8&#45;&gt;Node5</title>
<path fill="none" stroke="midnightblue" d="M1471.51,-128.874C1510.13,-103.506 1590.82,-50.5177 1629.46,-25.1399"/>
<polygon fill="midnightblue" stroke="midnightblue" points="1631.47,-28.0121 1637.9,-19.5973 1627.62,-22.161 1631.47,-28.0121"/>
</g>
<!-- Node9 -->
<g id="node10" class="node"><title>Node9</title>
<g id="a_node10"><a xlink:href="mir__input__device__types_8h.html" target="_top" xlink:title="mir_toolkit/mir_input\l_device_types.h">
<polygon fill="white" stroke="black" points="1599,-56.5 1599,-86.5 1703,-86.5 1703,-56.5 1599,-56.5"/>
<text text-anchor="start" x="1607" y="-74.5" font-family="Arial" font-size="10.00">mir_toolkit/mir_input</text>
<text text-anchor="middle" x="1651" y="-63.5" font-family="Arial" font-size="10.00">_device_types.h</text>
</a>
</g>
</g>
<!-- Node8&#45;&gt;Node9 -->
<g id="edge11" class="edge"><title>Node8&#45;&gt;Node9</title>
<path fill="none" stroke="midnightblue" d="M1490.19,-128.903C1522.09,-117.711 1566.87,-102.006 1601.08,-90.0093"/>
<polygon fill="midnightblue" stroke="midnightblue" points="1602.59,-93.1854 1610.87,-86.5729 1600.28,-86.58 1602.59,-93.1854"/>
</g>
<!-- Node10 -->
<g id="node11" class="node"><title>Node10</title>
<g id="a_node11"><a xlink:href="touch__event_8h.html" target="_top" xlink:title="mir_toolkit/events\l/input/touch_event.h">
<polygon fill="white" stroke="black" points="1273,-56.5 1273,-86.5 1377,-86.5 1377,-56.5 1273,-56.5"/>
<text text-anchor="start" x="1281" y="-74.5" font-family="Arial" font-size="10.00">mir_toolkit/events</text>
<text text-anchor="middle" x="1325" y="-63.5" font-family="Arial" font-size="10.00">/input/touch_event.h</text>
</a>
</g>
</g>
<!-- Node8&#45;&gt;Node10 -->
<g id="edge15" class="edge"><title>Node8&#45;&gt;Node10</title>
<path fill="none" stroke="midnightblue" d="M1425,-128.903C1406.01,-118.192 1379.69,-103.346 1358.81,-91.5738"/>
<polygon fill="midnightblue" stroke="midnightblue" points="1360.38,-88.4369 1349.95,-86.5729 1356.94,-94.534 1360.38,-88.4369"/>
</g>
<!-- Node11 -->
<g id="node12" class="node"><title>Node11</title>
<g id="a_node12"><a xlink:href="keyboard__event_8h.html" target="_top" xlink:title="mir_toolkit/events\l/input/keyboard_event.h">
<polygon fill="white" stroke="black" points="856.495,-56.5 856.495,-86.5 975.495,-86.5 975.495,-56.5 856.495,-56.5"/>
<text text-anchor="start" x="864.495" y="-74.5" font-family="Arial" font-size="10.00">mir_toolkit/events</text>
<text text-anchor="middle" x="915.995" y="-63.5" font-family="Arial" font-size="10.00">/input/keyboard_event.h</text>
</a>
</g>
</g>
<!-- Node8&#45;&gt;Node11 -->
<g id="edge16" class="edge"><title>Node8&#45;&gt;Node11</title>
<path fill="none" stroke="midnightblue" d="M1411.93,-128.947C1404.72,-126.676 1397.18,-124.562 1390,-123 1248.52,-92.2613 1079.05,-79.9512 985.915,-75.2374"/>
<polygon fill="midnightblue" stroke="midnightblue" points="985.927,-71.7339 975.768,-74.7387 985.584,-78.7255 985.927,-71.7339"/>
</g>
<!-- Node13 -->
<g id="node14" class="node"><title>Node13</title>
<g id="a_node14"><a xlink:href="pointer__event_8h.html" target="_top" xlink:title="mir_toolkit/events\l/input/pointer_event.h">
<polygon fill="white" stroke="black" points="1395.5,-56.5 1395.5,-86.5 1504.5,-86.5 1504.5,-56.5 1395.5,-56.5"/>
<text text-anchor="start" x="1403.5" y="-74.5" font-family="Arial" font-size="10.00">mir_toolkit/events</text>
<text text-anchor="middle" x="1450" y="-63.5" font-family="Arial" font-size="10.00">/input/pointer_event.h</text>
</a>
</g>
</g>
<!-- Node8&#45;&gt;Node13 -->
<g id="edge18" class="edge"><title>Node8&#45;&gt;Node13</title>
<path fill="none" stroke="midnightblue" d="M1450,-128.733C1450,-119.655 1450,-107.658 1450,-97.0773"/>
<polygon fill="midnightblue" stroke="midnightblue" points="1453.5,-96.7455 1450,-86.7455 1446.5,-96.7455 1453.5,-96.7455"/>
</g>
<!-- Node9&#45;&gt;Node5 -->
<g id="edge12" class="edge"><title>Node9&#45;&gt;Node5</title>
<path fill="none" stroke="midnightblue" d="M1651,-56.3993C1651,-48.4664 1651,-38.458 1651,-29.8583"/>
<polygon fill="midnightblue" stroke="midnightblue" points="1654.5,-29.6577 1651,-19.6578 1647.5,-29.6578 1654.5,-29.6577"/>
</g>
<!-- Node12 -->
<g id="node13" class="node"><title>Node12</title>
<polygon fill="white" stroke="#bfbfbf" points="576.995,-0.5 576.995,-19.5 710.995,-19.5 710.995,-0.5 576.995,-0.5"/>
<text text-anchor="middle" x="643.995" y="-7.5" font-family="Arial" font-size="10.00">xkbcommon/xkbcommon.h</text>
</g>
<!-- Node11&#45;&gt;Node12 -->
<g id="edge17" class="edge"><title>Node11&#45;&gt;Node12</title>
<path fill="none" stroke="midnightblue" d="M856.304,-57.4425C807.309,-46.7248 738.777,-31.7335 692.965,-21.7121"/>
<polygon fill="midnightblue" stroke="midnightblue" points="693.496,-18.2455 682.979,-19.5276 692,-25.0838 693.496,-18.2455"/>
</g>
<!-- Node13&#45;&gt;Node1 -->
<g id="edge19" class="edge"><title>Node13&#45;&gt;Node1</title>
<path fill="none" stroke="midnightblue" d="M1450,-56.3993C1450,-48.4664 1450,-38.458 1450,-29.8583"/>
<polygon fill="midnightblue" stroke="midnightblue" points="1453.5,-29.6577 1450,-19.6578 1446.5,-29.6578 1453.5,-29.6577"/>
</g>
<!-- Node14&#45;&gt;Node3 -->
<g id="edge21" class="edge"><title>Node14&#45;&gt;Node3</title>
<path fill="none" stroke="midnightblue" d="M634.052,-158.859C640.11,-160.976 646.206,-163.089 651.995,-165 688.139,-176.928 729.018,-189.112 760.616,-198.523"/>
<polygon fill="midnightblue" stroke="midnightblue" points="759.949,-201.976 770.532,-201.478 761.947,-195.268 759.949,-201.976"/>
</g>
<!-- Node15&#45;&gt;Node3 -->
<g id="edge23" class="edge"><title>Node15&#45;&gt;Node3</title>
<path fill="none" stroke="midnightblue" d="M522.667,-159.016C529.141,-161.208 535.717,-163.306 541.995,-165 615.398,-184.81 701.755,-199.055 756.997,-207.265"/>
<polygon fill="midnightblue" stroke="midnightblue" points="756.536,-210.734 766.939,-208.727 757.555,-203.809 756.536,-210.734"/>
</g>
<!-- Node15&#45;&gt;Node7 -->
<g id="edge24" class="edge"><title>Node15&#45;&gt;Node7</title>
<path fill="none" stroke="midnightblue" d="M456.949,-128.733C439.057,-116.604 413.477,-99.2642 395.465,-87.0539"/>
<polygon fill="midnightblue" stroke="midnightblue" points="397.058,-83.9051 386.816,-81.1911 393.13,-89.6993 397.058,-83.9051"/>
</g>
<!-- Node16&#45;&gt;Node3 -->
<g id="edge26" class="edge"><title>Node16&#45;&gt;Node3</title>
<path fill="none" stroke="midnightblue" d="M726.474,-159.073C744.936,-169.538 768.668,-183.959 786.684,-195.603"/>
<polygon fill="midnightblue" stroke="midnightblue" points="785.245,-198.844 795.526,-201.403 789.084,-192.991 785.245,-198.844"/>
</g>
<!-- Node17&#45;&gt;Node3 -->
<g id="edge28" class="edge"><title>Node17&#45;&gt;Node3</title>
<path fill="none" stroke="midnightblue" d="M818.541,-159.246C819.745,-168.414 820.046,-180.568 819.445,-191.232"/>
<polygon fill="midnightblue" stroke="midnightblue" points="815.956,-190.959 818.544,-201.233 822.928,-191.588 815.956,-190.959"/>
</g>
<!-- Node18&#45;&gt;Node3 -->
<g id="edge30" class="edge"><title>Node18&#45;&gt;Node3</title>
<path fill="none" stroke="midnightblue" d="M923.369,-159.073C904.654,-169.922 876.763,-185.023 853.64,-196.873"/>
<polygon fill="midnightblue" stroke="midnightblue" points="852.049,-193.755 844.717,-201.403 855.218,-199.997 852.049,-193.755"/>
</g>
<!-- Node19&#45;&gt;Node3 -->
<g id="edge32" class="edge"><title>Node19&#45;&gt;Node3</title>
<path fill="none" stroke="midnightblue" d="M235.335,-159.089C242.209,-161.385 249.251,-163.5 255.995,-165 436.15,-205.074 655.256,-213.547 756.668,-215.204"/>
<polygon fill="midnightblue" stroke="midnightblue" points="756.643,-218.704 766.693,-215.352 756.746,-211.705 756.643,-218.704"/>
</g>
<!-- Node19&#45;&gt;Node12 -->
<g id="edge33" class="edge"><title>Node19&#45;&gt;Node12</title>
<path fill="none" stroke="midnightblue" d="M204.822,-128.725C223.712,-108.737 261.111,-72.9587 300.995,-56 347.448,-36.2484 480.782,-23.0337 566.872,-16.2872"/>
<polygon fill="midnightblue" stroke="midnightblue" points="567.167,-19.775 576.868,-15.5163 566.628,-12.7957 567.167,-19.775"/>
</g>
<!-- Node20&#45;&gt;Node3 -->
<g id="edge35" class="edge"><title>Node20&#45;&gt;Node3</title>
<path fill="none" stroke="midnightblue" d="M1025.58,-164.535C1025.05,-164.691 1024.52,-164.847 1024,-165 972.103,-180.111 911.923,-194.797 869.043,-204.4"/>
<polygon fill="midnightblue" stroke="midnightblue" points="868.082,-201.028 859.077,-206.609 869.597,-207.862 868.082,-201.028"/>
</g>
<!-- Node20&#45;&gt;Node7 -->
<g id="edge36" class="edge"><title>Node20&#45;&gt;Node7</title>
<path fill="none" stroke="midnightblue" d="M1024.49,-125.205C1021.3,-124.38 1018.12,-123.633 1015,-123 813.022,-82.0188 568.988,-73.8821 448.603,-72.5307"/>
<polygon fill="midnightblue" stroke="midnightblue" points="448.43,-69.0289 438.396,-72.4292 448.36,-76.0285 448.43,-69.0289"/>
</g>
<!-- Node21&#45;&gt;Node3 -->
<g id="edge38" class="edge"><title>Node21&#45;&gt;Node3</title>
<path fill="none" stroke="midnightblue" d="M372.777,-159.039C381.553,-161.255 390.503,-163.354 398.995,-165 525.812,-189.573 676.482,-204.122 756.568,-210.887"/>
<polygon fill="midnightblue" stroke="midnightblue" points="756.664,-214.407 766.92,-211.751 757.246,-207.431 756.664,-214.407"/>
</g>
<!-- Node21&#45;&gt;Node7 -->
<g id="edge39" class="edge"><title>Node21&#45;&gt;Node7</title>
<path fill="none" stroke="midnightblue" d="M327.733,-128.733C337.108,-117.337 350.269,-101.339 360.158,-89.3197"/>
<polygon fill="midnightblue" stroke="midnightblue" points="363.029,-91.3393 366.679,-81.3932 357.623,-86.892 363.029,-91.3393"/>
</g>
<!-- Node22&#45;&gt;Node3 -->
<g id="edge41" class="edge"><title>Node22&#45;&gt;Node3</title>
<path fill="none" stroke="midnightblue" d="M1166.42,-159.051C1158.74,-161.214 1150.67,-163.292 1143,-165 1048.13,-186.123 935.565,-201.687 869.348,-209.607"/>
<polygon fill="midnightblue" stroke="midnightblue" points="868.65,-206.165 859.129,-210.813 869.47,-213.117 868.65,-206.165"/>
</g>
<!-- Node23&#45;&gt;Node3 -->
<g id="edge43" class="edge"><title>Node23&#45;&gt;Node3</title>
<path fill="none" stroke="midnightblue" d="M1281.93,-164.564C1281.29,-164.714 1280.64,-164.859 1280,-165 1134.36,-196.922 958.035,-209.13 869.417,-213.409"/>
<polygon fill="midnightblue" stroke="midnightblue" points="869.137,-209.918 859.311,-213.881 869.463,-216.911 869.137,-209.918"/>
</g>
</g>
</svg>
