<?xml version="1.0" encoding="UTF-8" standalone="no"?>
<!DOCTYPE svg PUBLIC "-//W3C//DTD SVG 1.1//EN"
 "http://www.w3.org/Graphics/SVG/1.1/DTD/svg11.dtd">
<!-- Generated by graphviz version 2.40.1 (20161225.0304)
 -->
<!-- Title: include/client/mir_toolkit/rs/mir_render_surface.h Pages: 1 -->
<svg width="782pt" height="273pt"
 viewBox="0.00 0.00 782.00 273.00" xmlns="http://www.w3.org/2000/svg" xmlns:xlink="http://www.w3.org/1999/xlink">
<g id="graph0" class="graph" transform="scale(1 1) rotate(0) translate(4 269)">
<title>include/client/mir_toolkit/rs/mir_render_surface.h</title>
<polygon fill="#ffffff" stroke="transparent" points="-4,4 -4,-269 778,-269 778,4 -4,4"/>
<!-- Node24 -->
<g id="node1" class="node">
<title>Node24</title>
<polygon fill="#bfbfbf" stroke="#000000" points="342,-223.5 342,-264.5 450,-264.5 450,-223.5 342,-223.5"/>
<text text-anchor="start" x="350" y="-252.5" font-family="Arial" font-size="10.00" fill="#000000">include/client/mir</text>
<text text-anchor="start" x="350" y="-241.5" font-family="Arial" font-size="10.00" fill="#000000">_toolkit/rs/mir_render</text>
<text text-anchor="middle" x="396" y="-230.5" font-family="Arial" font-size="10.00" fill="#000000">_surface.h</text>
</g>
<!-- Node25 -->
<g id="node2" class="node">
<title>Node25</title>
<g id="a_node2"><a xlink:href="client_2surface_8h.html" target="_top" xlink:title="include/client/mir\l/client/surface.h">
<polygon fill="#ffffff" stroke="#000000" points="109,-151 109,-181 199,-181 199,-151 109,-151"/>
<text text-anchor="start" x="117" y="-169" font-family="Arial" font-size="10.00" fill="#000000">include/client/mir</text>
<text text-anchor="middle" x="154" y="-158" font-family="Arial" font-size="10.00" fill="#000000">/client/surface.h</text>
</a>
</g>
</g>
<!-- Node24&#45;&gt;Node25 -->
<g id="edge1" class="edge">
<title>Node24&#45;&gt;Node25</title>
<path fill="none" stroke="#191970" d="M331.7377,-225.8389C295.2336,-215.193 248.8107,-201.099 208,-187 202.6758,-185.1606 197.0969,-183.1211 191.6296,-181.057"/>
<polygon fill="#191970" stroke="#191970" points="331.1785,-229.321 341.7578,-228.7473 333.1298,-222.5984 331.1785,-229.321"/>
</g>
<!-- Node30 -->
<g id="node7" class="node">
<title>Node30</title>
<g id="a_node7"><a xlink:href="window__spec_8h.html" target="_top" xlink:title="include/client/mir\l/client/window_spec.h">
<polygon fill="#ffffff" stroke="#000000" points="217,-151 217,-181 329,-181 329,-151 217,-151"/>
<text text-anchor="start" x="225" y="-169" font-family="Arial" font-size="10.00" fill="#000000">include/client/mir</text>
<text text-anchor="middle" x="273" y="-158" font-family="Arial" font-size="10.00" fill="#000000">/client/window_spec.h</text>
</a>
</g>
</g>
<!-- Node24&#45;&gt;Node30 -->
<g id="edge6" class="edge">
<title>Node24&#45;&gt;Node30</title>
<path fill="none" stroke="#191970" d="M354.7508,-217.842C335.4847,-205.6244 313.2338,-191.5141 296.8147,-181.102"/>
<polygon fill="#191970" stroke="#191970" points="353.0417,-220.9025 363.3612,-223.3022 356.7905,-214.991 353.0417,-220.9025"/>
</g>
<!-- Node31 -->
<g id="node8" class="node">
<title>Node31</title>
<g id="a_node8"><a xlink:href="android__egl_8h.html" target="_top" xlink:title="include/client/mir\l_toolkit/extensions\l/android_egl.h">
<polygon fill="#ffffff" stroke="#000000" points="347,-145.5 347,-186.5 445,-186.5 445,-145.5 347,-145.5"/>
<text text-anchor="start" x="355" y="-174.5" font-family="Arial" font-size="10.00" fill="#000000">include/client/mir</text>
<text text-anchor="start" x="355" y="-163.5" font-family="Arial" font-size="10.00" fill="#000000">_toolkit/extensions</text>
<text text-anchor="middle" x="396" y="-152.5" font-family="Arial" font-size="10.00" fill="#000000">/android_egl.h</text>
</a>
</g>
</g>
<!-- Node24&#45;&gt;Node31 -->
<g id="edge9" class="edge">
<title>Node24&#45;&gt;Node31</title>
<path fill="none" stroke="#191970" d="M396,-213.0789C396,-204.2178 396,-194.7747 396,-186.6898"/>
<polygon fill="#191970" stroke="#191970" points="392.5001,-213.0974 396,-223.0974 399.5001,-213.0975 392.5001,-213.0974"/>
</g>
<!-- Node32 -->
<g id="node9" class="node">
<title>Node32</title>
<g id="a_node9"><a xlink:href="hardware__buffer__stream_8h.html" target="_top" xlink:title="include/client/mir\l_toolkit/extensions\l/hardware_buffer_stream.h">
<polygon fill="#ffffff" stroke="#000000" points="463,-145.5 463,-186.5 595,-186.5 595,-145.5 463,-145.5"/>
<text text-anchor="start" x="471" y="-174.5" font-family="Arial" font-size="10.00" fill="#000000">include/client/mir</text>
<text text-anchor="start" x="471" y="-163.5" font-family="Arial" font-size="10.00" fill="#000000">_toolkit/extensions</text>
<text text-anchor="middle" x="529" y="-152.5" font-family="Arial" font-size="10.00" fill="#000000">/hardware_buffer_stream.h</text>
</a>
</g>
</g>
<!-- Node24&#45;&gt;Node32 -->
<g id="edge10" class="edge">
<title>Node24&#45;&gt;Node32</title>
<path fill="none" stroke="#191970" d="M440.201,-218.0776C457.7004,-207.8148 477.5297,-196.1856 494.0042,-186.5239"/>
<polygon fill="#191970" stroke="#191970" points="438.1478,-215.2242 431.2924,-223.3022 441.689,-221.2624 438.1478,-215.2242"/>
</g>
<!-- Node33 -->
<g id="node10" class="node">
<title>Node33</title>
<g id="a_node10"><a xlink:href="mir__client__library_8h.html" target="_top" xlink:title="include/client/mir\l_toolkit/mir_client\l_library.h">
<polygon fill="#ffffff" stroke="#000000" points="613.5,-145.5 613.5,-186.5 706.5,-186.5 706.5,-145.5 613.5,-145.5"/>
<text text-anchor="start" x="621.5" y="-174.5" font-family="Arial" font-size="10.00" fill="#000000">include/client/mir</text>
<text text-anchor="start" x="621.5" y="-163.5" font-family="Arial" font-size="10.00" fill="#000000">_toolkit/mir_client</text>
<text text-anchor="middle" x="660" y="-152.5" font-family="Arial" font-size="10.00" fill="#000000">_library.h</text>
</a>
</g>
</g>
<!-- Node24&#45;&gt;Node33 -->
<g id="edge11" class="edge">
<title>Node24&#45;&gt;Node33</title>
<path fill="none" stroke="#191970" d="M460.212,-228.0216C501.5516,-217.3376 556.2826,-202.4496 604,-187 607.0623,-186.0085 610.2042,-184.9492 613.3613,-183.853"/>
<polygon fill="#191970" stroke="#191970" points="459.0849,-224.6974 450.2709,-230.5765 460.8274,-231.4771 459.0849,-224.6974"/>
</g>
<!-- Node26 -->
<g id="node3" class="node">
<title>Node26</title>
<g id="a_node3"><a xlink:href="decoration__provider_8h.html" target="_top" xlink:title="examples/example&#45;server\l&#45;lib/decoration_provider.h">
<polygon fill="#ffffff" stroke="#000000" points="17,-73 17,-103 145,-103 145,-73 17,-73"/>
<text text-anchor="start" x="25" y="-91" font-family="Arial" font-size="10.00" fill="#000000">examples/example&#45;server</text>
<text text-anchor="middle" x="81" y="-80" font-family="Arial" font-size="10.00" fill="#000000">&#45;lib/decoration_provider.h</text>
</a>
</g>
</g>
<!-- Node25&#45;&gt;Node26 -->
<g id="edge2" class="edge">
<title>Node25&#45;&gt;Node26</title>
<path fill="none" stroke="#191970" d="M132.8274,-143.3772C120.7637,-130.4872 105.9704,-114.6807 95.281,-103.2592"/>
<polygon fill="#191970" stroke="#191970" points="130.5362,-146.0512 139.9249,-150.9608 135.6471,-141.268 130.5362,-146.0512"/>
</g>
<!-- Node29 -->
<g id="node6" class="node">
<title>Node29</title>
<g id="a_node6"><a xlink:href="sw__splash_8cpp.html" target="_top" xlink:title="examples/example&#45;server\l&#45;lib/sw_splash.cpp">
<polygon fill="#ffffff" stroke="#000000" points="163,-73 163,-103 291,-103 291,-73 163,-73"/>
<text text-anchor="start" x="171" y="-91" font-family="Arial" font-size="10.00" fill="#000000">examples/example&#45;server</text>
<text text-anchor="middle" x="227" y="-80" font-family="Arial" font-size="10.00" fill="#000000">&#45;lib/sw_splash.cpp</text>
</a>
</g>
</g>
<!-- Node25&#45;&gt;Node29 -->
<g id="edge5" class="edge">
<title>Node25&#45;&gt;Node29</title>
<path fill="none" stroke="#191970" d="M175.1726,-143.3772C187.2363,-130.4872 202.0296,-114.6807 212.719,-103.2592"/>
<polygon fill="#191970" stroke="#191970" points="172.3529,-141.268 168.0751,-150.9608 177.4638,-146.0512 172.3529,-141.268"/>
</g>
<!-- Node27 -->
<g id="node4" class="node">
<title>Node27</title>
<g id="a_node4"><a xlink:href="decoration__provider_8cpp.html" target="_top" xlink:title="examples/example&#45;server\l&#45;lib/decoration_provider.cpp">
<polygon fill="#ffffff" stroke="#000000" points="215,-.5 215,-30.5 351,-30.5 351,-.5 215,-.5"/>
<text text-anchor="start" x="223" y="-18.5" font-family="Arial" font-size="10.00" fill="#000000">examples/example&#45;server</text>
<text text-anchor="middle" x="283" y="-7.5" font-family="Arial" font-size="10.00" fill="#000000">&#45;lib/decoration_provider.cpp</text>
</a>
</g>
</g>
<!-- Node26&#45;&gt;Node27 -->
<g id="edge3" class="edge">
<title>Node26&#45;&gt;Node27</title>
<path fill="none" stroke="#191970" d="M132.5255,-69.5069C166.2155,-57.4152 209.6591,-41.8228 241.1991,-30.5028"/>
<polygon fill="#191970" stroke="#191970" points="131.0843,-66.3055 122.8545,-72.978 133.449,-72.894 131.0843,-66.3055"/>
</g>
<!-- Node28 -->
<g id="node5" class="node">
<title>Node28</title>
<g id="a_node5"><a xlink:href="floating__window__manager_8cpp.html" target="_top" xlink:title="examples/example&#45;server\l&#45;lib/floating_window_manager.cpp">
<polygon fill="#ffffff" stroke="#000000" points="0,-.5 0,-30.5 162,-30.5 162,-.5 0,-.5"/>
<text text-anchor="start" x="8" y="-18.5" font-family="Arial" font-size="10.00" fill="#000000">examples/example&#45;server</text>
<text text-anchor="middle" x="81" y="-7.5" font-family="Arial" font-size="10.00" fill="#000000">&#45;lib/floating_window_manager.cpp</text>
</a>
</g>
</g>
<!-- Node26&#45;&gt;Node28 -->
<g id="edge4" class="edge">
<title>Node26&#45;&gt;Node28</title>
<path fill="none" stroke="#191970" d="M81,-62.8409C81,-52.0601 81,-39.8309 81,-30.5028"/>
<polygon fill="#191970" stroke="#191970" points="77.5001,-62.9779 81,-72.978 84.5001,-62.978 77.5001,-62.9779"/>
</g>
<!-- Node30&#45;&gt;Node27 -->
<g id="edge7" class="edge">
<title>Node30&#45;&gt;Node27</title>
<path fill="none" stroke="#191970" d="M287.31,-141.9143C292.3779,-132.0637 297.4513,-120.3341 300,-109 304.0952,-90.7881 302.9632,-85.43 300,-67 297.9673,-54.3573 293.2965,-40.6128 289.3642,-30.5053"/>
<polygon fill="#191970" stroke="#191970" points="284.2309,-140.2504 282.5355,-150.7087 290.3827,-143.5903 284.2309,-140.2504"/>
</g>
<!-- Node30&#45;&gt;Node29 -->
<g id="edge8" class="edge">
<title>Node30&#45;&gt;Node29</title>
<path fill="none" stroke="#191970" d="M259.0089,-142.2759C251.531,-129.596 242.5441,-114.3574 235.999,-103.2592"/>
<polygon fill="#191970" stroke="#191970" points="256.0361,-144.1251 264.1307,-150.9608 262.0656,-140.5692 256.0361,-144.1251"/>
</g>
<!-- Node34 -->
<g id="node11" class="node">
<title>Node34</title>
<g id="a_node11"><a xlink:href="toolkit_2debug_2surface_8h.html" target="_top" xlink:title="include/client/mir\l_toolkit/debug/surface.h">
<polygon fill="#ffffff" stroke="#000000" points="534.5,-73 534.5,-103 655.5,-103 655.5,-73 534.5,-73"/>
<text text-anchor="start" x="542.5" y="-91" font-family="Arial" font-size="10.00" fill="#000000">include/client/mir</text>
<text text-anchor="middle" x="595" y="-80" font-family="Arial" font-size="10.00" fill="#000000">_toolkit/debug/surface.h</text>
</a>
</g>
</g>
<!-- Node33&#45;&gt;Node34 -->
<g id="edge12" class="edge">
<title>Node33&#45;&gt;Node34</title>
<path fill="none" stroke="#191970" d="M636.139,-137.3668C626.5162,-125.8194 615.8038,-112.9646 607.7232,-103.2679"/>
<polygon fill="#191970" stroke="#191970" points="633.4905,-139.6559 642.5812,-145.0974 638.8681,-135.1745 633.4905,-139.6559"/>
</g>
<!-- Node35 -->
<g id="node12" class="node">
<title>Node35</title>
<g id="a_node12"><a xlink:href="mir__prompt__session_8h.html" target="_top" xlink:title="include/client/mir\l_toolkit/mir_prompt\l_session.h">
<polygon fill="#ffffff" stroke="#000000" points="674,-67.5 674,-108.5 774,-108.5 774,-67.5 674,-67.5"/>
<text text-anchor="start" x="682" y="-96.5" font-family="Arial" font-size="10.00" fill="#000000">include/client/mir</text>
<text text-anchor="start" x="682" y="-85.5" font-family="Arial" font-size="10.00" fill="#000000">_toolkit/mir_prompt</text>
<text text-anchor="middle" x="724" y="-74.5" font-family="Arial" font-size="10.00" fill="#000000">_session.h</text>
</a>
</g>
</g>
<!-- Node33&#45;&gt;Node35 -->
<g id="edge13" class="edge">
<title>Node33&#45;&gt;Node35</title>
<path fill="none" stroke="#191970" d="M683.7206,-137.0905C691.4563,-127.6626 699.8852,-117.3899 707.0238,-108.6898"/>
<polygon fill="#191970" stroke="#191970" points="680.7883,-135.1466 677.1508,-145.0974 686.1998,-139.5868 680.7883,-135.1466"/>
</g>
</g>
</svg>
