<?xml version="1.0" encoding="UTF-8" standalone="no"?>
<!DOCTYPE svg PUBLIC "-//W3C//DTD SVG 1.1//EN"
 "http://www.w3.org/Graphics/SVG/1.1/DTD/svg11.dtd">
<!-- Generated by graphviz version 2.38.0 (20140413.2041)
 -->
<!-- Title: include/core/mir_toolkit/mir_version_number.h Pages: 1 -->
<svg width="1883pt" height="351pt"
 viewBox="0.00 0.00 1883.00 351.00" xmlns="http://www.w3.org/2000/svg" xmlns:xlink="http://www.w3.org/1999/xlink">
<g id="graph0" class="graph" transform="scale(1 1) rotate(0) translate(4 347)">
<title>include/core/mir_toolkit/mir_version_number.h</title>
<polygon fill="white" stroke="none" points="-4,4 -4,-347 1879,-347 1879,4 -4,4"/>
<!-- Node1 -->
<g id="node1" class="node"><title>Node1</title>
<polygon fill="#bfbfbf" stroke="black" points="1515,-312.5 1515,-342.5 1632,-342.5 1632,-312.5 1515,-312.5"/>
<text text-anchor="start" x="1523" y="-330.5" font-family="Arial" font-size="10.00">include/core/mir_toolkit</text>
<text text-anchor="middle" x="1573.5" y="-319.5" font-family="Arial" font-size="10.00">/mir_version_number.h</text>
</g>
<!-- Node2 -->
<g id="node2" class="node"><title>Node2</title>
<g id="a_node2"><a xlink:href="client_2mir__toolkit_2version_8h.html" target="_top" xlink:title="include/client/mir\l_toolkit/version.h">
<polygon fill="white" stroke="black" points="793,-240 793,-270 884,-270 884,-240 793,-240"/>
<text text-anchor="start" x="801" y="-258" font-family="Arial" font-size="10.00">include/client/mir</text>
<text text-anchor="middle" x="838.5" y="-247" font-family="Arial" font-size="10.00">_toolkit/version.h</text>
</a>
</g>
</g>
<!-- Node1&#45;&gt;Node2 -->
<g id="edge1" class="edge"><title>Node1&#45;&gt;Node2</title>
<path fill="none" stroke="midnightblue" d="M1504.55,-319.887C1355.96,-305.634 1008.87,-272.342 884.151,-260.379"/>
<polygon fill="midnightblue" stroke="midnightblue" points="1504.61,-323.409 1514.9,-320.879 1505.28,-316.441 1504.61,-323.409"/>
</g>
<!-- Node17 -->
<g id="node17" class="node"><title>Node17</title>
<g id="a_node17"><a xlink:href="miral_2miral_2version_8h.html" target="_top" xlink:title="include/miral/miral\l/version.h">
<polygon fill="white" stroke="black" points="1458,-240 1458,-270 1553,-270 1553,-240 1458,-240"/>
<text text-anchor="start" x="1466" y="-258" font-family="Arial" font-size="10.00">include/miral/miral</text>
<text text-anchor="middle" x="1505.5" y="-247" font-family="Arial" font-size="10.00">/version.h</text>
</a>
</g>
</g>
<!-- Node1&#45;&gt;Node17 -->
<g id="edge17" class="edge"><title>Node1&#45;&gt;Node17</title>
<path fill="none" stroke="midnightblue" d="M1552.63,-304.864C1541.78,-293.614 1528.82,-280.179 1519.24,-270.246"/>
<polygon fill="midnightblue" stroke="midnightblue" points="1550.28,-307.466 1559.74,-312.233 1555.32,-302.606 1550.28,-307.466"/>
</g>
<!-- Node24 -->
<g id="node24" class="node"><title>Node24</title>
<g id="a_node24"><a xlink:href="window__management__policy__addendum2_8h.html" target="_top" xlink:title="include/miral/miral\l/window_management_policy\l_addendum2.h">
<polygon fill="white" stroke="black" points="1571,-234.5 1571,-275.5 1714,-275.5 1714,-234.5 1571,-234.5"/>
<text text-anchor="start" x="1579" y="-263.5" font-family="Arial" font-size="10.00">include/miral/miral</text>
<text text-anchor="start" x="1579" y="-252.5" font-family="Arial" font-size="10.00">/window_management_policy</text>
<text text-anchor="middle" x="1642.5" y="-241.5" font-family="Arial" font-size="10.00">_addendum2.h</text>
</a>
</g>
</g>
<!-- Node1&#45;&gt;Node24 -->
<g id="edge24" class="edge"><title>Node1&#45;&gt;Node24</title>
<path fill="none" stroke="midnightblue" d="M1594.72,-304.821C1603.85,-295.494 1614.44,-284.671 1623.33,-275.588"/>
<polygon fill="midnightblue" stroke="midnightblue" points="1591.96,-302.638 1587.46,-312.233 1596.96,-307.535 1591.96,-302.638"/>
</g>
<!-- Node25 -->
<g id="node25" class="node"><title>Node25</title>
<g id="a_node25"><a xlink:href="window__management__policy__addendum3_8h.html" target="_top" xlink:title="include/miral/miral\l/window_management_policy\l_addendum3.h">
<polygon fill="white" stroke="black" points="1732,-234.5 1732,-275.5 1875,-275.5 1875,-234.5 1732,-234.5"/>
<text text-anchor="start" x="1740" y="-263.5" font-family="Arial" font-size="10.00">include/miral/miral</text>
<text text-anchor="start" x="1740" y="-252.5" font-family="Arial" font-size="10.00">/window_management_policy</text>
<text text-anchor="middle" x="1803.5" y="-241.5" font-family="Arial" font-size="10.00">_addendum3.h</text>
</a>
</g>
</g>
<!-- Node1&#45;&gt;Node25 -->
<g id="edge25" class="edge"><title>Node1&#45;&gt;Node25</title>
<path fill="none" stroke="midnightblue" d="M1628.81,-309.547C1662.16,-299.323 1704.79,-286.257 1739.58,-275.592"/>
<polygon fill="midnightblue" stroke="midnightblue" points="1627.75,-306.21 1619.22,-312.487 1629.8,-312.903 1627.75,-306.21"/>
</g>
<!-- Node3 -->
<g id="node3" class="node"><title>Node3</title>
<g id="a_node3"><a xlink:href="window__spec_8h.html" target="_top" xlink:title="include/client/mir\l/client/window_spec.h">
<polygon fill="white" stroke="black" points="198.5,-162 198.5,-192 310.5,-192 310.5,-162 198.5,-162"/>
<text text-anchor="start" x="206.5" y="-180" font-family="Arial" font-size="10.00">include/client/mir</text>
<text text-anchor="middle" x="254.5" y="-169" font-family="Arial" font-size="10.00">/client/window_spec.h</text>
</a>
</g>
</g>
<!-- Node2&#45;&gt;Node3 -->
<g id="edge2" class="edge"><title>Node2&#45;&gt;Node3</title>
<path fill="none" stroke="midnightblue" d="M782.646,-246.731C671.193,-232.227 422.323,-199.84 310.637,-185.306"/>
<polygon fill="midnightblue" stroke="midnightblue" points="782.306,-250.217 792.674,-248.036 783.21,-243.275 782.306,-250.217"/>
</g>
<!-- Node7 -->
<g id="node7" class="node"><title>Node7</title>
<g id="a_node7"><a xlink:href="mir__client__library_8h.html" target="_top" xlink:title="include/client/mir\l_toolkit/mir_client\l_library.h">
<polygon fill="white" stroke="black" points="792,-156.5 792,-197.5 885,-197.5 885,-156.5 792,-156.5"/>
<text text-anchor="start" x="800" y="-185.5" font-family="Arial" font-size="10.00">include/client/mir</text>
<text text-anchor="start" x="800" y="-174.5" font-family="Arial" font-size="10.00">_toolkit/mir_client</text>
<text text-anchor="middle" x="838.5" y="-163.5" font-family="Arial" font-size="10.00">_library.h</text>
</a>
</g>
</g>
<!-- Node2&#45;&gt;Node7 -->
<g id="edge6" class="edge"><title>Node2&#45;&gt;Node7</title>
<path fill="none" stroke="midnightblue" d="M838.5,-229.656C838.5,-219.326 838.5,-207.443 838.5,-197.68"/>
<polygon fill="midnightblue" stroke="midnightblue" points="835,-229.705 838.5,-239.705 842,-229.705 835,-229.705"/>
</g>
<!-- Node4 -->
<g id="node4" class="node"><title>Node4</title>
<g id="a_node4"><a xlink:href="sw__splash_8cpp.html" target="_top" xlink:title="examples/miral&#45;kiosk\l/sw_splash.cpp">
<polygon fill="white" stroke="black" points="0,-84 0,-114 109,-114 109,-84 0,-84"/>
<text text-anchor="start" x="8" y="-102" font-family="Arial" font-size="10.00">examples/miral&#45;kiosk</text>
<text text-anchor="middle" x="54.5" y="-91" font-family="Arial" font-size="10.00">/sw_splash.cpp</text>
</a>
</g>
</g>
<!-- Node3&#45;&gt;Node4 -->
<g id="edge3" class="edge"><title>Node3&#45;&gt;Node4</title>
<path fill="none" stroke="midnightblue" d="M207.709,-158.219C172.26,-144.749 124.225,-126.496 91.4508,-114.041"/>
<polygon fill="midnightblue" stroke="midnightblue" points="206.759,-161.603 217.35,-161.883 209.246,-155.059 206.759,-161.603"/>
</g>
<!-- Node5 -->
<g id="node5" class="node"><title>Node5</title>
<g id="a_node5"><a xlink:href="decoration__provider_8cpp.html" target="_top" xlink:title="examples/miral&#45;shell\l/decoration_provider.cpp">
<polygon fill="white" stroke="black" points="127.5,-84 127.5,-114 249.5,-114 249.5,-84 127.5,-84"/>
<text text-anchor="start" x="135.5" y="-102" font-family="Arial" font-size="10.00">examples/miral&#45;shell</text>
<text text-anchor="middle" x="188.5" y="-91" font-family="Arial" font-size="10.00">/decoration_provider.cpp</text>
</a>
</g>
</g>
<!-- Node3&#45;&gt;Node5 -->
<g id="edge4" class="edge"><title>Node3&#45;&gt;Node5</title>
<path fill="none" stroke="midnightblue" d="M235.227,-153.807C224.134,-141.033 210.523,-125.36 200.858,-114.231"/>
<polygon fill="midnightblue" stroke="midnightblue" points="232.886,-156.45 242.086,-161.705 238.172,-151.86 232.886,-156.45"/>
</g>
<!-- Node6 -->
<g id="node6" class="node"><title>Node6</title>
<g id="a_node6"><a xlink:href="miregl_8cpp.html" target="_top" xlink:title="examples/miral&#45;shell\l/spinner/miregl.cpp">
<polygon fill="white" stroke="black" points="267.5,-84 267.5,-114 373.5,-114 373.5,-84 267.5,-84"/>
<text text-anchor="start" x="275.5" y="-102" font-family="Arial" font-size="10.00">examples/miral&#45;shell</text>
<text text-anchor="middle" x="320.5" y="-91" font-family="Arial" font-size="10.00">/spinner/miregl.cpp</text>
</a>
</g>
</g>
<!-- Node3&#45;&gt;Node6 -->
<g id="edge5" class="edge"><title>Node3&#45;&gt;Node6</title>
<path fill="none" stroke="midnightblue" d="M273.773,-153.807C284.866,-141.033 298.477,-125.36 308.142,-114.231"/>
<polygon fill="midnightblue" stroke="midnightblue" points="270.828,-151.86 266.914,-161.705 276.114,-156.45 270.828,-151.86"/>
</g>
<!-- Node7&#45;&gt;Node6 -->
<g id="edge8" class="edge"><title>Node7&#45;&gt;Node6</title>
<path fill="none" stroke="midnightblue" d="M781.552,-172.492C694.663,-166.359 524.147,-151.247 382.5,-120 375.211,-118.392 367.559,-116.284 360.216,-114.04"/>
<polygon fill="midnightblue" stroke="midnightblue" points="781.508,-175.997 791.726,-173.196 781.991,-169.014 781.508,-175.997"/>
</g>
<!-- Node8 -->
<g id="node8" class="node"><title>Node8</title>
<g id="a_node8"><a xlink:href="eglspinner_8cpp.html" target="_top" xlink:title="examples/miral&#45;shell\l/spinner/eglspinner.cpp">
<polygon fill="white" stroke="black" points="391.5,-84 391.5,-114 507.5,-114 507.5,-84 391.5,-84"/>
<text text-anchor="start" x="399.5" y="-102" font-family="Arial" font-size="10.00">examples/miral&#45;shell</text>
<text text-anchor="middle" x="449.5" y="-91" font-family="Arial" font-size="10.00">/spinner/eglspinner.cpp</text>
</a>
</g>
</g>
<!-- Node7&#45;&gt;Node8 -->
<g id="edge7" class="edge"><title>Node7&#45;&gt;Node8</title>
<path fill="none" stroke="midnightblue" d="M781.771,-168.203C717.125,-158.84 608.511,-141.654 516.5,-120 509.174,-118.276 501.466,-116.214 493.992,-114.078"/>
<polygon fill="midnightblue" stroke="midnightblue" points="781.364,-171.68 791.76,-169.638 782.359,-164.751 781.364,-171.68"/>
</g>
<!-- Node9 -->
<g id="node9" class="node"><title>Node9</title>
<g id="a_node9"><a xlink:href="toolkit_2debug_2surface_8h.html" target="_top" xlink:title="include/client/mir\l_toolkit/debug/surface.h">
<polygon fill="white" stroke="black" points="526,-84 526,-114 647,-114 647,-84 526,-84"/>
<text text-anchor="start" x="534" y="-102" font-family="Arial" font-size="10.00">include/client/mir</text>
<text text-anchor="middle" x="586.5" y="-91" font-family="Arial" font-size="10.00">_toolkit/debug/surface.h</text>
</a>
</g>
</g>
<!-- Node7&#45;&gt;Node9 -->
<g id="edge9" class="edge"><title>Node7&#45;&gt;Node9</title>
<path fill="none" stroke="midnightblue" d="M782.402,-159.082C737.529,-145.548 675.351,-126.796 633.169,-114.075"/>
<polygon fill="midnightblue" stroke="midnightblue" points="781.401,-162.435 791.986,-161.972 783.422,-155.733 781.401,-162.435"/>
</g>
<!-- Node10 -->
<g id="node10" class="node"><title>Node10</title>
<g id="a_node10"><a xlink:href="mir__prompt__session_8h.html" target="_top" xlink:title="include/client/mir\l_toolkit/mir_prompt\l_session.h">
<polygon fill="white" stroke="black" points="665.5,-78.5 665.5,-119.5 765.5,-119.5 765.5,-78.5 665.5,-78.5"/>
<text text-anchor="start" x="673.5" y="-107.5" font-family="Arial" font-size="10.00">include/client/mir</text>
<text text-anchor="start" x="673.5" y="-96.5" font-family="Arial" font-size="10.00">_toolkit/mir_prompt</text>
<text text-anchor="middle" x="715.5" y="-85.5" font-family="Arial" font-size="10.00">_session.h</text>
</a>
</g>
</g>
<!-- Node7&#45;&gt;Node10 -->
<g id="edge10" class="edge"><title>Node7&#45;&gt;Node10</title>
<path fill="none" stroke="midnightblue" d="M797.909,-150.919C781.373,-140.702 762.548,-129.07 747.068,-119.506"/>
<polygon fill="midnightblue" stroke="midnightblue" points="796.478,-154.149 806.824,-156.428 800.157,-148.194 796.478,-154.149"/>
</g>
<!-- Node11 -->
<g id="node11" class="node"><title>Node11</title>
<g id="a_node11"><a xlink:href="mock__client__context_8h.html" target="_top" xlink:title="include/test/mir/test\l/doubles/mock_client\l_context.h">
<polygon fill="white" stroke="black" points="784,-78.5 784,-119.5 893,-119.5 893,-78.5 784,-78.5"/>
<text text-anchor="start" x="792" y="-107.5" font-family="Arial" font-size="10.00">include/test/mir/test</text>
<text text-anchor="start" x="792" y="-96.5" font-family="Arial" font-size="10.00">/doubles/mock_client</text>
<text text-anchor="middle" x="838.5" y="-85.5" font-family="Arial" font-size="10.00">_context.h</text>
</a>
</g>
</g>
<!-- Node7&#45;&gt;Node11 -->
<g id="edge11" class="edge"><title>Node7&#45;&gt;Node11</title>
<path fill="none" stroke="midnightblue" d="M838.5,-146.297C838.5,-137.301 838.5,-127.653 838.5,-119.506"/>
<polygon fill="midnightblue" stroke="midnightblue" points="835,-146.428 838.5,-156.428 842,-146.428 835,-146.428"/>
</g>
<!-- Node12 -->
<g id="node12" class="node"><title>Node12</title>
<g id="a_node12"><a xlink:href="validity__matchers_8h.html" target="_top" xlink:title="include/test/mir/test\l/validity_matchers.h">
<polygon fill="white" stroke="black" points="911.5,-84 911.5,-114 1015.5,-114 1015.5,-84 911.5,-84"/>
<text text-anchor="start" x="919.5" y="-102" font-family="Arial" font-size="10.00">include/test/mir/test</text>
<text text-anchor="middle" x="963.5" y="-91" font-family="Arial" font-size="10.00">/validity_matchers.h</text>
</a>
</g>
</g>
<!-- Node7&#45;&gt;Node12 -->
<g id="edge12" class="edge"><title>Node7&#45;&gt;Node12</title>
<path fill="none" stroke="midnightblue" d="M879.371,-151.15C899.503,-138.91 923.049,-124.594 940.103,-114.225"/>
<polygon fill="midnightblue" stroke="midnightblue" points="877.417,-148.242 870.691,-156.428 881.054,-154.224 877.417,-148.242"/>
</g>
<!-- Node13 -->
<g id="node13" class="node"><title>Node13</title>
<g id="a_node13"><a xlink:href="any__surface_8h.html" target="_top" xlink:title="include/test/mir_test\l_framework/any_surface.h">
<polygon fill="white" stroke="black" points="1034,-84 1034,-114 1165,-114 1165,-84 1034,-84"/>
<text text-anchor="start" x="1042" y="-102" font-family="Arial" font-size="10.00">include/test/mir_test</text>
<text text-anchor="middle" x="1099.5" y="-91" font-family="Arial" font-size="10.00">_framework/any_surface.h</text>
</a>
</g>
</g>
<!-- Node7&#45;&gt;Node13 -->
<g id="edge13" class="edge"><title>Node7&#45;&gt;Node13</title>
<path fill="none" stroke="midnightblue" d="M894.795,-159.608C941.35,-146.051 1006.78,-127 1051.03,-114.113"/>
<polygon fill="midnightblue" stroke="midnightblue" points="893.784,-156.256 885.162,-162.413 895.741,-162.977 893.784,-156.256"/>
</g>
<!-- Node14 -->
<g id="node14" class="node"><title>Node14</title>
<g id="a_node14"><a xlink:href="connected__client__headless__server_8h.html" target="_top" xlink:title="include/test/mir_test\l_framework/connected\l_client_headless_server.h">
<polygon fill="white" stroke="black" points="1183,-78.5 1183,-119.5 1312,-119.5 1312,-78.5 1183,-78.5"/>
<text text-anchor="start" x="1191" y="-107.5" font-family="Arial" font-size="10.00">include/test/mir_test</text>
<text text-anchor="start" x="1191" y="-96.5" font-family="Arial" font-size="10.00">_framework/connected</text>
<text text-anchor="middle" x="1247.5" y="-85.5" font-family="Arial" font-size="10.00">_client_headless_server.h</text>
</a>
</g>
</g>
<!-- Node7&#45;&gt;Node14 -->
<g id="edge14" class="edge"><title>Node7&#45;&gt;Node14</title>
<path fill="none" stroke="midnightblue" d="M895.02,-168.284C961.878,-158.758 1076.37,-141.19 1173.5,-120 1176.49,-119.348 1179.54,-118.651 1182.62,-117.923"/>
<polygon fill="midnightblue" stroke="midnightblue" points="894.52,-164.82 885.109,-169.687 895.501,-171.751 894.52,-164.82"/>
</g>
<!-- Node16 -->
<g id="node16" class="node"><title>Node16</title>
<g id="a_node16"><a xlink:href="visible__surface_8h.html" target="_top" xlink:title="include/test/mir_test\l_framework/visible_surface.h">
<polygon fill="white" stroke="black" points="1330,-84 1330,-114 1473,-114 1473,-84 1330,-84"/>
<text text-anchor="start" x="1338" y="-102" font-family="Arial" font-size="10.00">include/test/mir_test</text>
<text text-anchor="middle" x="1401.5" y="-91" font-family="Arial" font-size="10.00">_framework/visible_surface.h</text>
</a>
</g>
</g>
<!-- Node7&#45;&gt;Node16 -->
<g id="edge16" class="edge"><title>Node7&#45;&gt;Node16</title>
<path fill="none" stroke="midnightblue" d="M895.367,-171.737C985.871,-164.426 1168.04,-147.565 1320.5,-120 1329.62,-118.351 1339.25,-116.276 1348.55,-114.092"/>
<polygon fill="midnightblue" stroke="midnightblue" points="895.008,-168.254 885.318,-172.539 895.565,-175.232 895.008,-168.254"/>
</g>
<!-- Node15 -->
<g id="node15" class="node"><title>Node15</title>
<g id="a_node15"><a xlink:href="connected__client__with__a__window_8h.html" target="_top" xlink:title="include/test/mir_test\l_framework/connected\l_client_with_a_window.h">
<polygon fill="white" stroke="black" points="1186.5,-0.5 1186.5,-41.5 1308.5,-41.5 1308.5,-0.5 1186.5,-0.5"/>
<text text-anchor="start" x="1194.5" y="-29.5" font-family="Arial" font-size="10.00">include/test/mir_test</text>
<text text-anchor="start" x="1194.5" y="-18.5" font-family="Arial" font-size="10.00">_framework/connected</text>
<text text-anchor="middle" x="1247.5" y="-7.5" font-family="Arial" font-size="10.00">_client_with_a_window.h</text>
</a>
</g>
</g>
<!-- Node14&#45;&gt;Node15 -->
<g id="edge15" class="edge"><title>Node14&#45;&gt;Node15</title>
<path fill="none" stroke="midnightblue" d="M1247.5,-68.2965C1247.5,-59.3009 1247.5,-49.6532 1247.5,-41.5056"/>
<polygon fill="midnightblue" stroke="midnightblue" points="1244,-68.4281 1247.5,-78.4281 1251,-68.4281 1244,-68.4281"/>
</g>
<!-- Node18 -->
<g id="node18" class="node"><title>Node18</title>
<g id="a_node18"><a xlink:href="application__authorizer_8h.html" target="_top" xlink:title="include/miral/miral\l/application_authorizer.h">
<polygon fill="white" stroke="black" points="1455.5,-162 1455.5,-192 1577.5,-192 1577.5,-162 1455.5,-162"/>
<text text-anchor="start" x="1463.5" y="-180" font-family="Arial" font-size="10.00">include/miral/miral</text>
<text text-anchor="middle" x="1516.5" y="-169" font-family="Arial" font-size="10.00">/application_authorizer.h</text>
</a>
</g>
</g>
<!-- Node17&#45;&gt;Node18 -->
<g id="edge18" class="edge"><title>Node17&#45;&gt;Node18</title>
<path fill="none" stroke="midnightblue" d="M1509.03,-229.59C1510.82,-217.257 1512.92,-202.724 1514.44,-192.231"/>
<polygon fill="midnightblue" stroke="midnightblue" points="1505.54,-229.307 1507.57,-239.705 1512.47,-230.309 1505.54,-229.307"/>
</g>
<!-- Node20 -->
<g id="node20" class="node"><title>Node20</title>
<g id="a_node20"><a xlink:href="workspace__policy_8h.html" target="_top" xlink:title="include/miral/miral\l/workspace_policy.h">
<polygon fill="white" stroke="black" points="1617.5,-162 1617.5,-192 1721.5,-192 1721.5,-162 1617.5,-162"/>
<text text-anchor="start" x="1625.5" y="-180" font-family="Arial" font-size="10.00">include/miral/miral</text>
<text text-anchor="middle" x="1669.5" y="-169" font-family="Arial" font-size="10.00">/workspace_policy.h</text>
</a>
</g>
</g>
<!-- Node17&#45;&gt;Node20 -->
<g id="edge20" class="edge"><title>Node17&#45;&gt;Node20</title>
<path fill="none" stroke="midnightblue" d="M1545.37,-235.524C1574.28,-222.126 1612.78,-204.283 1639.2,-192.041"/>
<polygon fill="midnightblue" stroke="midnightblue" points="1543.56,-232.503 1535.96,-239.883 1546.51,-238.854 1543.56,-232.503"/>
</g>
<!-- Node19 -->
<g id="node19" class="node"><title>Node19</title>
<g id="a_node19"><a xlink:href="kiosk__main_8cpp.html" target="_top" xlink:title="examples/miral&#45;kiosk\l/kiosk_main.cpp">
<polygon fill="white" stroke="black" points="1491,-84 1491,-114 1600,-114 1600,-84 1491,-84"/>
<text text-anchor="start" x="1499" y="-102" font-family="Arial" font-size="10.00">examples/miral&#45;kiosk</text>
<text text-anchor="middle" x="1545.5" y="-91" font-family="Arial" font-size="10.00">/kiosk_main.cpp</text>
</a>
</g>
</g>
<!-- Node18&#45;&gt;Node19 -->
<g id="edge19" class="edge"><title>Node18&#45;&gt;Node19</title>
<path fill="none" stroke="midnightblue" d="M1525.53,-152.334C1530.3,-139.845 1535.99,-124.936 1540.07,-114.231"/>
<polygon fill="midnightblue" stroke="midnightblue" points="1522.25,-151.114 1521.95,-161.705 1528.79,-153.61 1522.25,-151.114"/>
</g>
<!-- Node21 -->
<g id="node21" class="node"><title>Node21</title>
<g id="a_node21"><a xlink:href="floating__window__manager_8h.html" target="_top" xlink:title="examples/miral&#45;shell\l/floating_window_manager.h">
<polygon fill="white" stroke="black" points="1646.5,-84 1646.5,-114 1784.5,-114 1784.5,-84 1646.5,-84"/>
<text text-anchor="start" x="1654.5" y="-102" font-family="Arial" font-size="10.00">examples/miral&#45;shell</text>
<text text-anchor="middle" x="1715.5" y="-91" font-family="Arial" font-size="10.00">/floating_window_manager.h</text>
</a>
</g>
</g>
<!-- Node20&#45;&gt;Node21 -->
<g id="edge21" class="edge"><title>Node20&#45;&gt;Node21</title>
<path fill="none" stroke="midnightblue" d="M1683.38,-153.074C1691.02,-140.437 1700.28,-125.148 1706.89,-114.231"/>
<polygon fill="midnightblue" stroke="midnightblue" points="1680.34,-151.338 1678.15,-161.705 1686.32,-154.962 1680.34,-151.338"/>
</g>
<!-- Node22 -->
<g id="node22" class="node"><title>Node22</title>
<g id="a_node22"><a xlink:href="floating__window__manager_8cpp.html" target="_top" xlink:title="examples/miral&#45;shell\l/floating_window_manager.cpp">
<polygon fill="white" stroke="black" points="1568,-6 1568,-36 1717,-36 1717,-6 1568,-6"/>
<text text-anchor="start" x="1576" y="-24" font-family="Arial" font-size="10.00">examples/miral&#45;shell</text>
<text text-anchor="middle" x="1642.5" y="-13" font-family="Arial" font-size="10.00">/floating_window_manager.cpp</text>
</a>
</g>
</g>
<!-- Node21&#45;&gt;Node22 -->
<g id="edge22" class="edge"><title>Node21&#45;&gt;Node22</title>
<path fill="none" stroke="midnightblue" d="M1694.53,-76.1707C1682.2,-63.3319 1666.96,-47.4656 1656.17,-36.2309"/>
<polygon fill="midnightblue" stroke="midnightblue" points="1692.32,-78.9175 1701.77,-83.705 1697.37,-74.0684 1692.32,-78.9175"/>
</g>
<!-- Node23 -->
<g id="node23" class="node"><title>Node23</title>
<g id="a_node23"><a xlink:href="shell__main_8cpp.html" target="_top" xlink:title="examples/miral&#45;shell\l/shell_main.cpp">
<polygon fill="white" stroke="black" points="1734.5,-6 1734.5,-36 1840.5,-36 1840.5,-6 1734.5,-6"/>
<text text-anchor="start" x="1742.5" y="-24" font-family="Arial" font-size="10.00">examples/miral&#45;shell</text>
<text text-anchor="middle" x="1787.5" y="-13" font-family="Arial" font-size="10.00">/shell_main.cpp</text>
</a>
</g>
</g>
<!-- Node21&#45;&gt;Node23 -->
<g id="edge23" class="edge"><title>Node21&#45;&gt;Node23</title>
<path fill="none" stroke="midnightblue" d="M1736.18,-76.1707C1748.34,-63.3319 1763.37,-47.4656 1774.02,-36.2309"/>
<polygon fill="midnightblue" stroke="midnightblue" points="1733.38,-74.0383 1729.04,-83.705 1738.46,-78.8525 1733.38,-74.0383"/>
</g>
<!-- Node25&#45;&gt;Node21 -->
<g id="edge26" class="edge"><title>Node25&#45;&gt;Node21</title>
<path fill="none" stroke="midnightblue" d="M1787.38,-225.783C1768.56,-192.846 1738.17,-139.664 1723.68,-114.319"/>
<polygon fill="midnightblue" stroke="midnightblue" points="1784.35,-227.55 1792.35,-234.496 1790.43,-224.077 1784.35,-227.55"/>
</g>
</g>
</svg>
