<?xml version="1.0" encoding="UTF-8" standalone="no"?>
<!DOCTYPE svg PUBLIC "-//W3C//DTD SVG 1.1//EN"
 "http://www.w3.org/Graphics/SVG/1.1/DTD/svg11.dtd">
<!-- Generated by graphviz version 2.38.0 (20140413.2041)
 -->
<!-- Title: include/client/mir_toolkit/mir_buffer_stream.h Pages: 1 -->
<svg width="1207pt" height="284pt"
 viewBox="0.00 0.00 1206.50 284.00" xmlns="http://www.w3.org/2000/svg" xmlns:xlink="http://www.w3.org/1999/xlink">
<g id="graph0" class="graph" transform="scale(1 1) rotate(0) translate(4 280)">
<title>include/client/mir_toolkit/mir_buffer_stream.h</title>
<polygon fill="white" stroke="none" points="-4,4 -4,-280 1202.5,-280 1202.5,4 -4,4"/>
<!-- Node25 -->
<g id="node1" class="node"><title>Node25</title>
<polygon fill="#bfbfbf" stroke="black" points="321,-234.5 321,-275.5 414,-275.5 414,-234.5 321,-234.5"/>
<text text-anchor="start" x="329" y="-263.5" font-family="Arial" font-size="10.00">include/client/mir</text>
<text text-anchor="start" x="329" y="-252.5" font-family="Arial" font-size="10.00">_toolkit/mir_buffer</text>
<text text-anchor="middle" x="367.5" y="-241.5" font-family="Arial" font-size="10.00">_stream.h</text>
</g>
<!-- Node26 -->
<g id="node2" class="node"><title>Node26</title>
<g id="a_node2"><a xlink:href="sw__splash_8cpp.html" target="_top" xlink:title="examples/miral&#45;kiosk\l/sw_splash.cpp">
<polygon fill="white" stroke="black" points="107,-162 107,-192 216,-192 216,-162 107,-162"/>
<text text-anchor="start" x="115" y="-180" font-family="Arial" font-size="10.00">examples/miral&#45;kiosk</text>
<text text-anchor="middle" x="161.5" y="-169" font-family="Arial" font-size="10.00">/sw_splash.cpp</text>
</a>
</g>
</g>
<!-- Node25&#45;&gt;Node26 -->
<g id="edge1" class="edge"><title>Node25&#45;&gt;Node26</title>
<path fill="none" stroke="midnightblue" d="M311.013,-233.16C275.53,-220.069 230.723,-203.539 199.454,-192.003"/>
<polygon fill="midnightblue" stroke="midnightblue" points="310.162,-236.577 320.755,-236.754 312.585,-230.009 310.162,-236.577"/>
</g>
<!-- Node27 -->
<g id="node3" class="node"><title>Node27</title>
<g id="a_node3"><a xlink:href="decoration__provider_8cpp.html" target="_top" xlink:title="examples/miral&#45;shell\l/decoration_provider.cpp">
<polygon fill="white" stroke="black" points="234.5,-162 234.5,-192 356.5,-192 356.5,-162 234.5,-162"/>
<text text-anchor="start" x="242.5" y="-180" font-family="Arial" font-size="10.00">examples/miral&#45;shell</text>
<text text-anchor="middle" x="295.5" y="-169" font-family="Arial" font-size="10.00">/decoration_provider.cpp</text>
</a>
</g>
</g>
<!-- Node25&#45;&gt;Node27 -->
<g id="edge2" class="edge"><title>Node25&#45;&gt;Node27</title>
<path fill="none" stroke="midnightblue" d="M341.911,-226.99C330.794,-215.255 318.227,-201.99 308.977,-192.225"/>
<polygon fill="midnightblue" stroke="midnightblue" points="339.54,-229.576 348.958,-234.428 344.622,-224.761 339.54,-229.576"/>
</g>
<!-- Node28 -->
<g id="node4" class="node"><title>Node28</title>
<g id="a_node4"><a xlink:href="hardware__buffer__stream_8h.html" target="_top" xlink:title="include/client/mir\l_toolkit/extensions\l/hardware_buffer_stream.h">
<polygon fill="white" stroke="black" points="375,-156.5 375,-197.5 506,-197.5 506,-156.5 375,-156.5"/>
<text text-anchor="start" x="383" y="-185.5" font-family="Arial" font-size="10.00">include/client/mir</text>
<text text-anchor="start" x="383" y="-174.5" font-family="Arial" font-size="10.00">_toolkit/extensions</text>
<text text-anchor="middle" x="440.5" y="-163.5" font-family="Arial" font-size="10.00">/hardware_buffer_stream.h</text>
</a>
</g>
</g>
<!-- Node25&#45;&gt;Node28 -->
<g id="edge3" class="edge"><title>Node25&#45;&gt;Node28</title>
<path fill="none" stroke="midnightblue" d="M393.238,-227.204C402.64,-217.416 413.088,-206.539 421.764,-197.506"/>
<polygon fill="midnightblue" stroke="midnightblue" points="390.702,-224.792 386.299,-234.428 395.751,-229.641 390.702,-224.792"/>
</g>
<!-- Node29 -->
<g id="node5" class="node"><title>Node29</title>
<g id="a_node5"><a xlink:href="mir__client__library_8h.html" target="_top" xlink:title="include/client/mir\l_toolkit/mir_client\l_library.h">
<polygon fill="white" stroke="black" points="524,-156.5 524,-197.5 617,-197.5 617,-156.5 524,-156.5"/>
<text text-anchor="start" x="532" y="-185.5" font-family="Arial" font-size="10.00">include/client/mir</text>
<text text-anchor="start" x="532" y="-174.5" font-family="Arial" font-size="10.00">_toolkit/mir_client</text>
<text text-anchor="middle" x="570.5" y="-163.5" font-family="Arial" font-size="10.00">_library.h</text>
</a>
</g>
</g>
<!-- Node25&#45;&gt;Node29 -->
<g id="edge4" class="edge"><title>Node25&#45;&gt;Node29</title>
<path fill="none" stroke="midnightblue" d="M423.596,-232.999C455.101,-221.204 493.957,-206.656 523.793,-195.486"/>
<polygon fill="midnightblue" stroke="midnightblue" points="422.21,-229.78 414.072,-236.564 424.665,-236.336 422.21,-229.78"/>
</g>
<!-- Node30 -->
<g id="node6" class="node"><title>Node30</title>
<g id="a_node6"><a xlink:href="eglspinner_8cpp.html" target="_top" xlink:title="examples/miral&#45;shell\l/spinner/eglspinner.cpp">
<polygon fill="white" stroke="black" points="0,-84 0,-114 117,-114 117,-84 0,-84"/>
<text text-anchor="start" x="8" y="-102" font-family="Arial" font-size="10.00">examples/miral&#45;shell</text>
<text text-anchor="middle" x="58.5" y="-91" font-family="Arial" font-size="10.00">/spinner/eglspinner.cpp</text>
</a>
</g>
</g>
<!-- Node29&#45;&gt;Node30 -->
<g id="edge5" class="edge"><title>Node29&#45;&gt;Node30</title>
<path fill="none" stroke="midnightblue" d="M513.905,-156.187C343.552,-119.822 293.436,-151.981 126.5,-120 118.403,-118.449 109.886,-116.339 101.724,-114.071"/>
<polygon fill="midnightblue" stroke="midnightblue" points="513.181,-159.612 523.697,-158.324 514.673,-152.772 513.181,-159.612"/>
</g>
<!-- Node31 -->
<g id="node7" class="node"><title>Node31</title>
<g id="a_node7"><a xlink:href="miregl_8cpp.html" target="_top" xlink:title="examples/miral&#45;shell\l/spinner/miregl.cpp">
<polygon fill="white" stroke="black" points="135.5,-84 135.5,-114 241.5,-114 241.5,-84 135.5,-84"/>
<text text-anchor="start" x="143.5" y="-102" font-family="Arial" font-size="10.00">examples/miral&#45;shell</text>
<text text-anchor="middle" x="188.5" y="-91" font-family="Arial" font-size="10.00">/spinner/miregl.cpp</text>
</a>
</g>
</g>
<!-- Node29&#45;&gt;Node31 -->
<g id="edge6" class="edge"><title>Node29&#45;&gt;Node31</title>
<path fill="none" stroke="midnightblue" d="M513.956,-156.162C397.562,-128.905 362.809,-145.561 250.5,-120 243.332,-118.369 235.807,-116.276 228.568,-114.062"/>
<polygon fill="midnightblue" stroke="midnightblue" points="513.429,-159.634 523.97,-158.567 515.064,-152.828 513.429,-159.634"/>
</g>
<!-- Node32 -->
<g id="node8" class="node"><title>Node32</title>
<g id="a_node8"><a xlink:href="toolkit_2debug_2surface_8h.html" target="_top" xlink:title="include/client/mir\l_toolkit/debug/surface.h">
<polygon fill="white" stroke="black" points="259.5,-84 259.5,-114 379.5,-114 379.5,-84 259.5,-84"/>
<text text-anchor="start" x="267.5" y="-102" font-family="Arial" font-size="10.00">include/client/mir</text>
<text text-anchor="middle" x="319.5" y="-91" font-family="Arial" font-size="10.00">_toolkit/debug/surface.h</text>
</a>
</g>
</g>
<!-- Node29&#45;&gt;Node32 -->
<g id="edge7" class="edge"><title>Node29&#45;&gt;Node32</title>
<path fill="none" stroke="midnightblue" d="M513.983,-155.925C457.394,-137.937 441.518,-135.258 388.5,-120 381.788,-118.068 374.711,-116.025 367.749,-114.011"/>
<polygon fill="midnightblue" stroke="midnightblue" points="513.235,-159.36 523.826,-159.076 515.37,-152.693 513.235,-159.36"/>
</g>
<!-- Node33 -->
<g id="node9" class="node"><title>Node33</title>
<g id="a_node9"><a xlink:href="mir__prompt__session_8h.html" target="_top" xlink:title="include/client/mir\l_toolkit/mir_prompt\l_session.h">
<polygon fill="white" stroke="black" points="397.5,-78.5 397.5,-119.5 497.5,-119.5 497.5,-78.5 397.5,-78.5"/>
<text text-anchor="start" x="405.5" y="-107.5" font-family="Arial" font-size="10.00">include/client/mir</text>
<text text-anchor="start" x="405.5" y="-96.5" font-family="Arial" font-size="10.00">_toolkit/mir_prompt</text>
<text text-anchor="middle" x="447.5" y="-85.5" font-family="Arial" font-size="10.00">_session.h</text>
</a>
</g>
</g>
<!-- Node29&#45;&gt;Node33 -->
<g id="edge8" class="edge"><title>Node29&#45;&gt;Node33</title>
<path fill="none" stroke="midnightblue" d="M529.909,-150.919C513.373,-140.702 494.548,-129.07 479.068,-119.506"/>
<polygon fill="midnightblue" stroke="midnightblue" points="528.478,-154.149 538.824,-156.428 532.157,-148.194 528.478,-154.149"/>
</g>
<!-- Node34 -->
<g id="node10" class="node"><title>Node34</title>
<g id="a_node10"><a xlink:href="mock__client__context_8h.html" target="_top" xlink:title="include/test/mir/test\l/doubles/mock_client\l_context.h">
<polygon fill="white" stroke="black" points="516,-78.5 516,-119.5 625,-119.5 625,-78.5 516,-78.5"/>
<text text-anchor="start" x="524" y="-107.5" font-family="Arial" font-size="10.00">include/test/mir/test</text>
<text text-anchor="start" x="524" y="-96.5" font-family="Arial" font-size="10.00">/doubles/mock_client</text>
<text text-anchor="middle" x="570.5" y="-85.5" font-family="Arial" font-size="10.00">_context.h</text>
</a>
</g>
</g>
<!-- Node29&#45;&gt;Node34 -->
<g id="edge9" class="edge"><title>Node29&#45;&gt;Node34</title>
<path fill="none" stroke="midnightblue" d="M570.5,-146.297C570.5,-137.301 570.5,-127.653 570.5,-119.506"/>
<polygon fill="midnightblue" stroke="midnightblue" points="567,-146.428 570.5,-156.428 574,-146.428 567,-146.428"/>
</g>
<!-- Node35 -->
<g id="node11" class="node"><title>Node35</title>
<g id="a_node11"><a xlink:href="validity__matchers_8h.html" target="_top" xlink:title="include/test/mir/test\l/validity_matchers.h">
<polygon fill="white" stroke="black" points="643,-84 643,-114 746,-114 746,-84 643,-84"/>
<text text-anchor="start" x="651" y="-102" font-family="Arial" font-size="10.00">include/test/mir/test</text>
<text text-anchor="middle" x="694.5" y="-91" font-family="Arial" font-size="10.00">/validity_matchers.h</text>
</a>
</g>
</g>
<!-- Node29&#45;&gt;Node35 -->
<g id="edge10" class="edge"><title>Node29&#45;&gt;Node35</title>
<path fill="none" stroke="midnightblue" d="M611.044,-151.15C631.015,-138.91 654.373,-124.594 671.29,-114.225"/>
<polygon fill="midnightblue" stroke="midnightblue" points="609.13,-148.218 602.433,-156.428 612.788,-154.187 609.13,-148.218"/>
</g>
<!-- Node36 -->
<g id="node12" class="node"><title>Node36</title>
<g id="a_node12"><a xlink:href="any__surface_8h.html" target="_top" xlink:title="include/test/mir_test\l_framework/any_surface.h">
<polygon fill="white" stroke="black" points="764.5,-84 764.5,-114 894.5,-114 894.5,-84 764.5,-84"/>
<text text-anchor="start" x="772.5" y="-102" font-family="Arial" font-size="10.00">include/test/mir_test</text>
<text text-anchor="middle" x="829.5" y="-91" font-family="Arial" font-size="10.00">_framework/any_surface.h</text>
</a>
</g>
</g>
<!-- Node29&#45;&gt;Node36 -->
<g id="edge11" class="edge"><title>Node29&#45;&gt;Node36</title>
<path fill="none" stroke="midnightblue" d="M626.96,-159.433C673.159,-145.876 737.787,-126.912 781.517,-114.08"/>
<polygon fill="midnightblue" stroke="midnightblue" points="625.713,-156.151 617.103,-162.325 627.684,-162.868 625.713,-156.151"/>
</g>
<!-- Node37 -->
<g id="node13" class="node"><title>Node37</title>
<g id="a_node13"><a xlink:href="connected__client__headless__server_8h.html" target="_top" xlink:title="include/test/mir_test\l_framework/connected\l_client_headless_server.h">
<polygon fill="white" stroke="black" points="912.5,-78.5 912.5,-119.5 1040.5,-119.5 1040.5,-78.5 912.5,-78.5"/>
<text text-anchor="start" x="920.5" y="-107.5" font-family="Arial" font-size="10.00">include/test/mir_test</text>
<text text-anchor="start" x="920.5" y="-96.5" font-family="Arial" font-size="10.00">_framework/connected</text>
<text text-anchor="middle" x="976.5" y="-85.5" font-family="Arial" font-size="10.00">_client_headless_server.h</text>
</a>
</g>
</g>
<!-- Node29&#45;&gt;Node37 -->
<g id="edge12" class="edge"><title>Node29&#45;&gt;Node37</title>
<path fill="none" stroke="midnightblue" d="M627.385,-168.217C693.95,-158.699 807.314,-141.207 903.5,-120 906.451,-119.349 909.462,-118.654 912.497,-117.927"/>
<polygon fill="midnightblue" stroke="midnightblue" points="626.522,-164.804 617.114,-169.676 627.506,-171.735 626.522,-164.804"/>
</g>
<!-- Node39 -->
<g id="node15" class="node"><title>Node39</title>
<g id="a_node15"><a xlink:href="visible__surface_8h.html" target="_top" xlink:title="include/test/mir_test\l_framework/visible_surface.h">
<polygon fill="white" stroke="black" points="1058.5,-84 1058.5,-114 1198.5,-114 1198.5,-84 1058.5,-84"/>
<text text-anchor="start" x="1066.5" y="-102" font-family="Arial" font-size="10.00">include/test/mir_test</text>
<text text-anchor="middle" x="1128.5" y="-91" font-family="Arial" font-size="10.00">_framework/visible_surface.h</text>
</a>
</g>
</g>
<!-- Node29&#45;&gt;Node39 -->
<g id="edge14" class="edge"><title>Node29&#45;&gt;Node39</title>
<path fill="none" stroke="midnightblue" d="M627.032,-171.815C716.998,-164.613 898.065,-147.896 1049.5,-120 1058.54,-118.334 1068.09,-116.225 1077.3,-114.004"/>
<polygon fill="midnightblue" stroke="midnightblue" points="626.735,-168.328 617.043,-172.606 627.288,-175.306 626.735,-168.328"/>
</g>
<!-- Node38 -->
<g id="node14" class="node"><title>Node38</title>
<g id="a_node14"><a xlink:href="connected__client__with__a__window_8h.html" target="_top" xlink:title="include/test/mir_test\l_framework/connected\l_client_with_a_window.h">
<polygon fill="white" stroke="black" points="915,-0.5 915,-41.5 1038,-41.5 1038,-0.5 915,-0.5"/>
<text text-anchor="start" x="923" y="-29.5" font-family="Arial" font-size="10.00">include/test/mir_test</text>
<text text-anchor="start" x="923" y="-18.5" font-family="Arial" font-size="10.00">_framework/connected</text>
<text text-anchor="middle" x="976.5" y="-7.5" font-family="Arial" font-size="10.00">_client_with_a_window.h</text>
</a>
</g>
</g>
<!-- Node37&#45;&gt;Node38 -->
<g id="edge13" class="edge"><title>Node37&#45;&gt;Node38</title>
<path fill="none" stroke="midnightblue" d="M976.5,-68.2965C976.5,-59.3009 976.5,-49.6532 976.5,-41.5056"/>
<polygon fill="midnightblue" stroke="midnightblue" points="973,-68.4281 976.5,-78.4281 980,-68.4281 973,-68.4281"/>
</g>
</g>
</svg>
