<?xml version="1.0" encoding="UTF-8" standalone="no"?>
<!DOCTYPE svg PUBLIC "-//W3C//DTD SVG 1.1//EN"
 "http://www.w3.org/Graphics/SVG/1.1/DTD/svg11.dtd">
<!-- Generated by graphviz version 2.38.0 (20140413.2041)
 -->
<!-- Title: include/client/mir_toolkit/mir_presentation_chain.h Pages: 1 -->
<svg width="1214pt" height="284pt"
 viewBox="0.00 0.00 1213.50 284.00" xmlns="http://www.w3.org/2000/svg" xmlns:xlink="http://www.w3.org/1999/xlink">
<g id="graph0" class="graph" transform="scale(1 1) rotate(0) translate(4 280)">
<title>include/client/mir_toolkit/mir_presentation_chain.h</title>
<polygon fill="white" stroke="none" points="-4,4 -4,-280 1209.5,-280 1209.5,4 -4,4"/>
<!-- Node24 -->
<g id="node1" class="node"><title>Node24</title>
<polygon fill="#bfbfbf" stroke="black" points="509.5,-234.5 509.5,-275.5 632.5,-275.5 632.5,-234.5 509.5,-234.5"/>
<text text-anchor="start" x="517.5" y="-263.5" font-family="Arial" font-size="10.00">include/client/mir</text>
<text text-anchor="start" x="517.5" y="-252.5" font-family="Arial" font-size="10.00">_toolkit/mir_presentation</text>
<text text-anchor="middle" x="571" y="-241.5" font-family="Arial" font-size="10.00">_chain.h</text>
</g>
<!-- Node25 -->
<g id="node2" class="node"><title>Node25</title>
<g id="a_node2"><a xlink:href="mir__client__library_8h.html" target="_top" xlink:title="include/client/mir\l_toolkit/mir_client\l_library.h">
<polygon fill="white" stroke="black" points="524.5,-156.5 524.5,-197.5 617.5,-197.5 617.5,-156.5 524.5,-156.5"/>
<text text-anchor="start" x="532.5" y="-185.5" font-family="Arial" font-size="10.00">include/client/mir</text>
<text text-anchor="start" x="532.5" y="-174.5" font-family="Arial" font-size="10.00">_toolkit/mir_client</text>
<text text-anchor="middle" x="571" y="-163.5" font-family="Arial" font-size="10.00">_library.h</text>
</a>
</g>
</g>
<!-- Node24&#45;&gt;Node25 -->
<g id="edge1" class="edge"><title>Node24&#45;&gt;Node25</title>
<path fill="none" stroke="midnightblue" d="M571,-224.297C571,-215.301 571,-205.653 571,-197.506"/>
<polygon fill="midnightblue" stroke="midnightblue" points="567.5,-224.428 571,-234.428 574.5,-224.428 567.5,-224.428"/>
</g>
<!-- Node26 -->
<g id="node3" class="node"><title>Node26</title>
<g id="a_node3"><a xlink:href="eglspinner_8cpp.html" target="_top" xlink:title="examples/miral&#45;shell\l/spinner/eglspinner.cpp">
<polygon fill="white" stroke="black" points="-7.10543e-15,-84 -7.10543e-15,-114 116,-114 116,-84 -7.10543e-15,-84"/>
<text text-anchor="start" x="8" y="-102" font-family="Arial" font-size="10.00">examples/miral&#45;shell</text>
<text text-anchor="middle" x="58" y="-91" font-family="Arial" font-size="10.00">/spinner/eglspinner.cpp</text>
</a>
</g>
</g>
<!-- Node25&#45;&gt;Node26 -->
<g id="edge2" class="edge"><title>Node25&#45;&gt;Node26</title>
<path fill="none" stroke="midnightblue" d="M514.372,-171.905C429.191,-165.068 263.324,-149.121 125,-120 117.279,-118.374 109.159,-116.285 101.341,-114.072"/>
<polygon fill="midnightblue" stroke="midnightblue" points="514.108,-175.395 524.353,-172.694 514.66,-168.417 514.108,-175.395"/>
</g>
<!-- Node27 -->
<g id="node4" class="node"><title>Node27</title>
<g id="a_node4"><a xlink:href="miregl_8cpp.html" target="_top" xlink:title="examples/miral&#45;shell\l/spinner/miregl.cpp">
<polygon fill="white" stroke="black" points="134,-84 134,-114 240,-114 240,-84 134,-84"/>
<text text-anchor="start" x="142" y="-102" font-family="Arial" font-size="10.00">examples/miral&#45;shell</text>
<text text-anchor="middle" x="187" y="-91" font-family="Arial" font-size="10.00">/spinner/miregl.cpp</text>
</a>
</g>
</g>
<!-- Node25&#45;&gt;Node27 -->
<g id="edge3" class="edge"><title>Node25&#45;&gt;Node27</title>
<path fill="none" stroke="midnightblue" d="M514.379,-168.478C449.871,-159.365 341.538,-142.406 250,-120 242.978,-118.281 235.596,-116.197 228.458,-114.032"/>
<polygon fill="midnightblue" stroke="midnightblue" points="513.958,-171.953 524.346,-169.873 514.928,-165.021 513.958,-171.953"/>
</g>
<!-- Node28 -->
<g id="node5" class="node"><title>Node28</title>
<g id="a_node5"><a xlink:href="toolkit_2debug_2surface_8h.html" target="_top" xlink:title="include/client/mir\l_toolkit/debug/surface.h">
<polygon fill="white" stroke="black" points="258.5,-84 258.5,-114 379.5,-114 379.5,-84 258.5,-84"/>
<text text-anchor="start" x="266.5" y="-102" font-family="Arial" font-size="10.00">include/client/mir</text>
<text text-anchor="middle" x="319" y="-91" font-family="Arial" font-size="10.00">_toolkit/debug/surface.h</text>
</a>
</g>
</g>
<!-- Node25&#45;&gt;Node28 -->
<g id="edge4" class="edge"><title>Node25&#45;&gt;Node28</title>
<path fill="none" stroke="midnightblue" d="M514.902,-159.082C470.029,-145.548 407.851,-126.796 365.669,-114.075"/>
<polygon fill="midnightblue" stroke="midnightblue" points="513.901,-162.435 524.486,-161.972 515.922,-155.733 513.901,-162.435"/>
</g>
<!-- Node29 -->
<g id="node6" class="node"><title>Node29</title>
<g id="a_node6"><a xlink:href="mir__prompt__session_8h.html" target="_top" xlink:title="include/client/mir\l_toolkit/mir_prompt\l_session.h">
<polygon fill="white" stroke="black" points="398,-78.5 398,-119.5 498,-119.5 498,-78.5 398,-78.5"/>
<text text-anchor="start" x="406" y="-107.5" font-family="Arial" font-size="10.00">include/client/mir</text>
<text text-anchor="start" x="406" y="-96.5" font-family="Arial" font-size="10.00">_toolkit/mir_prompt</text>
<text text-anchor="middle" x="448" y="-85.5" font-family="Arial" font-size="10.00">_session.h</text>
</a>
</g>
</g>
<!-- Node25&#45;&gt;Node29 -->
<g id="edge5" class="edge"><title>Node25&#45;&gt;Node29</title>
<path fill="none" stroke="midnightblue" d="M530.409,-150.919C513.873,-140.702 495.048,-129.07 479.568,-119.506"/>
<polygon fill="midnightblue" stroke="midnightblue" points="528.978,-154.149 539.324,-156.428 532.657,-148.194 528.978,-154.149"/>
</g>
<!-- Node30 -->
<g id="node7" class="node"><title>Node30</title>
<g id="a_node7"><a xlink:href="mock__client__context_8h.html" target="_top" xlink:title="include/test/mir/test\l/doubles/mock_client\l_context.h">
<polygon fill="white" stroke="black" points="516.5,-78.5 516.5,-119.5 625.5,-119.5 625.5,-78.5 516.5,-78.5"/>
<text text-anchor="start" x="524.5" y="-107.5" font-family="Arial" font-size="10.00">include/test/mir/test</text>
<text text-anchor="start" x="524.5" y="-96.5" font-family="Arial" font-size="10.00">/doubles/mock_client</text>
<text text-anchor="middle" x="571" y="-85.5" font-family="Arial" font-size="10.00">_context.h</text>
</a>
</g>
</g>
<!-- Node25&#45;&gt;Node30 -->
<g id="edge6" class="edge"><title>Node25&#45;&gt;Node30</title>
<path fill="none" stroke="midnightblue" d="M571,-146.297C571,-137.301 571,-127.653 571,-119.506"/>
<polygon fill="midnightblue" stroke="midnightblue" points="567.5,-146.428 571,-156.428 574.5,-146.428 567.5,-146.428"/>
</g>
<!-- Node31 -->
<g id="node8" class="node"><title>Node31</title>
<g id="a_node8"><a xlink:href="validity__matchers_8h.html" target="_top" xlink:title="include/test/mir/test\l/validity_matchers.h">
<polygon fill="white" stroke="black" points="644,-84 644,-114 748,-114 748,-84 644,-84"/>
<text text-anchor="start" x="652" y="-102" font-family="Arial" font-size="10.00">include/test/mir/test</text>
<text text-anchor="middle" x="696" y="-91" font-family="Arial" font-size="10.00">/validity_matchers.h</text>
</a>
</g>
</g>
<!-- Node25&#45;&gt;Node31 -->
<g id="edge7" class="edge"><title>Node25&#45;&gt;Node31</title>
<path fill="none" stroke="midnightblue" d="M611.871,-151.15C632.003,-138.91 655.549,-124.594 672.603,-114.225"/>
<polygon fill="midnightblue" stroke="midnightblue" points="609.917,-148.242 603.191,-156.428 613.554,-154.224 609.917,-148.242"/>
</g>
<!-- Node32 -->
<g id="node9" class="node"><title>Node32</title>
<g id="a_node9"><a xlink:href="any__surface_8h.html" target="_top" xlink:title="include/test/mir_test\l_framework/any_surface.h">
<polygon fill="white" stroke="black" points="766.5,-84 766.5,-114 897.5,-114 897.5,-84 766.5,-84"/>
<text text-anchor="start" x="774.5" y="-102" font-family="Arial" font-size="10.00">include/test/mir_test</text>
<text text-anchor="middle" x="832" y="-91" font-family="Arial" font-size="10.00">_framework/any_surface.h</text>
</a>
</g>
</g>
<!-- Node25&#45;&gt;Node32 -->
<g id="edge8" class="edge"><title>Node25&#45;&gt;Node32</title>
<path fill="none" stroke="midnightblue" d="M627.295,-159.608C673.85,-146.051 739.276,-127 783.531,-114.113"/>
<polygon fill="midnightblue" stroke="midnightblue" points="626.284,-156.256 617.662,-162.413 628.241,-162.977 626.284,-156.256"/>
</g>
<!-- Node33 -->
<g id="node10" class="node"><title>Node33</title>
<g id="a_node10"><a xlink:href="connected__client__headless__server_8h.html" target="_top" xlink:title="include/test/mir_test\l_framework/connected\l_client_headless_server.h">
<polygon fill="white" stroke="black" points="915.5,-78.5 915.5,-119.5 1044.5,-119.5 1044.5,-78.5 915.5,-78.5"/>
<text text-anchor="start" x="923.5" y="-107.5" font-family="Arial" font-size="10.00">include/test/mir_test</text>
<text text-anchor="start" x="923.5" y="-96.5" font-family="Arial" font-size="10.00">_framework/connected</text>
<text text-anchor="middle" x="980" y="-85.5" font-family="Arial" font-size="10.00">_client_headless_server.h</text>
</a>
</g>
</g>
<!-- Node25&#45;&gt;Node33 -->
<g id="edge9" class="edge"><title>Node25&#45;&gt;Node33</title>
<path fill="none" stroke="midnightblue" d="M627.702,-168.356C694.773,-158.899 809.619,-141.396 907,-120 909.695,-119.408 912.44,-118.778 915.207,-118.121"/>
<polygon fill="midnightblue" stroke="midnightblue" points="627.178,-164.895 617.76,-169.749 628.149,-171.828 627.178,-164.895"/>
</g>
<!-- Node35 -->
<g id="node12" class="node"><title>Node35</title>
<g id="a_node12"><a xlink:href="visible__surface_8h.html" target="_top" xlink:title="include/test/mir_test\l_framework/visible_surface.h">
<polygon fill="white" stroke="black" points="1062.5,-84 1062.5,-114 1205.5,-114 1205.5,-84 1062.5,-84"/>
<text text-anchor="start" x="1070.5" y="-102" font-family="Arial" font-size="10.00">include/test/mir_test</text>
<text text-anchor="middle" x="1134" y="-91" font-family="Arial" font-size="10.00">_framework/visible_surface.h</text>
</a>
</g>
</g>
<!-- Node25&#45;&gt;Node35 -->
<g id="edge11" class="edge"><title>Node25&#45;&gt;Node35</title>
<path fill="none" stroke="midnightblue" d="M627.639,-171.827C718.222,-164.617 901.063,-147.862 1054,-120 1063.15,-118.332 1072.82,-116.222 1082.14,-114.001"/>
<polygon fill="midnightblue" stroke="midnightblue" points="627.279,-168.344 617.584,-172.618 627.828,-175.323 627.279,-168.344"/>
</g>
<!-- Node34 -->
<g id="node11" class="node"><title>Node34</title>
<g id="a_node11"><a xlink:href="connected__client__with__a__window_8h.html" target="_top" xlink:title="include/test/mir_test\l_framework/connected\l_client_with_a_window.h">
<polygon fill="white" stroke="black" points="919,-0.5 919,-41.5 1041,-41.5 1041,-0.5 919,-0.5"/>
<text text-anchor="start" x="927" y="-29.5" font-family="Arial" font-size="10.00">include/test/mir_test</text>
<text text-anchor="start" x="927" y="-18.5" font-family="Arial" font-size="10.00">_framework/connected</text>
<text text-anchor="middle" x="980" y="-7.5" font-family="Arial" font-size="10.00">_client_with_a_window.h</text>
</a>
</g>
</g>
<!-- Node33&#45;&gt;Node34 -->
<g id="edge10" class="edge"><title>Node33&#45;&gt;Node34</title>
<path fill="none" stroke="midnightblue" d="M980,-68.2965C980,-59.3009 980,-49.6532 980,-41.5056"/>
<polygon fill="midnightblue" stroke="midnightblue" points="976.5,-68.4281 980,-78.4281 983.5,-68.4281 976.5,-68.4281"/>
</g>
</g>
</svg>
