<?xml version="1.0" encoding="UTF-8" standalone="no"?>
<!DOCTYPE svg PUBLIC "-//W3C//DTD SVG 1.1//EN"
 "http://www.w3.org/Graphics/SVG/1.1/DTD/svg11.dtd">
<!-- Generated by graphviz version 2.40.1 (20161225.0304)
 -->
<!-- Title: include/client/mir_toolkit/mir_cookie.h Pages: 1 -->
<svg width="307pt" height="195pt"
 viewBox="0.00 0.00 307.00 195.00" xmlns="http://www.w3.org/2000/svg" xmlns:xlink="http://www.w3.org/1999/xlink">
<g id="graph0" class="graph" transform="scale(1 1) rotate(0) translate(4 191)">
<title>include/client/mir_toolkit/mir_cookie.h</title>
<polygon fill="#ffffff" stroke="transparent" points="-4,4 -4,-191 303,-191 303,4 -4,4"/>
<!-- Node2 -->
<g id="node1" class="node">
<title>Node2</title>
<polygon fill="#bfbfbf" stroke="#000000" points="51,-156.5 51,-186.5 170,-186.5 170,-156.5 51,-156.5"/>
<text text-anchor="start" x="59" y="-174.5" font-family="Arial" font-size="10.00" fill="#000000">include/client/mir</text>
<text text-anchor="middle" x="110.5" y="-163.5" font-family="Arial" font-size="10.00" fill="#000000">_toolkit/mir_cookie.h</text>
</g>
<!-- Node3 -->
<g id="node2" class="node">
<title>Node3</title>
<g id="a_node2"><a xlink:href="cookie_8h.html" target="_top" xlink:title="include/client/mir\l/client/cookie.h">
<polygon fill="#ffffff" stroke="#000000" points="0,-84 0,-114 101,-114 101,-84 0,-84"/>
<text text-anchor="start" x="8" y="-102" font-family="Arial" font-size="10.00" fill="#000000">include/client/mir</text>
<text text-anchor="middle" x="50.5" y="-91" font-family="Arial" font-size="10.00" fill="#000000">/client/cookie.h</text>
</a>
</g>
</g>
<!-- Node2&#45;&gt;Node3 -->
<g id="edge1" class="edge">
<title>Node2&#45;&gt;Node3</title>
<path fill="none" stroke="#191970" d="M91.6099,-148.6745C82.2453,-137.3589 71.1988,-124.0111 62.9161,-114.0028"/>
<polygon fill="#191970" stroke="#191970" points="88.9959,-151.0055 98.068,-156.478 94.3886,-146.5425 88.9959,-151.0055"/>
</g>
<!-- Node4 -->
<g id="node3" class="node">
<title>Node4</title>
<g id="a_node3"><a xlink:href="mir__client__library_8h.html" target="_top" xlink:title="include/client/mir\l_toolkit/mir_client\l_library.h">
<polygon fill="#ffffff" stroke="#000000" points="119,-78.5 119,-119.5 224,-119.5 224,-78.5 119,-78.5"/>
<text text-anchor="start" x="127" y="-107.5" font-family="Arial" font-size="10.00" fill="#000000">include/client/mir</text>
<text text-anchor="start" x="127" y="-96.5" font-family="Arial" font-size="10.00" fill="#000000">_toolkit/mir_client</text>
<text text-anchor="middle" x="171.5" y="-85.5" font-family="Arial" font-size="10.00" fill="#000000">_library.h</text>
</a>
</g>
</g>
<!-- Node2&#45;&gt;Node4 -->
<g id="edge2" class="edge">
<title>Node2&#45;&gt;Node4</title>
<path fill="none" stroke="#191970" d="M129.6883,-148.6942C137.5565,-139.3427 146.5947,-128.6005 154.2505,-119.5015"/>
<polygon fill="#191970" stroke="#191970" points="126.8992,-146.5727 123.1392,-156.478 132.2555,-151.0794 126.8992,-146.5727"/>
</g>
<!-- Node5 -->
<g id="node4" class="node">
<title>Node5</title>
<g id="a_node4"><a xlink:href="toolkit_2debug_2surface_8h.html" target="_top" xlink:title="include/client/mir\l_toolkit/debug/surface.h">
<polygon fill="#ffffff" stroke="#000000" points="33.5,-6 33.5,-36 167.5,-36 167.5,-6 33.5,-6"/>
<text text-anchor="start" x="41.5" y="-24" font-family="Arial" font-size="10.00" fill="#000000">include/client/mir</text>
<text text-anchor="middle" x="100.5" y="-13" font-family="Arial" font-size="10.00" fill="#000000">_toolkit/debug/surface.h</text>
</a>
</g>
</g>
<!-- Node4&#45;&gt;Node5 -->
<g id="edge3" class="edge">
<title>Node4&#45;&gt;Node5</title>
<path fill="none" stroke="#191970" d="M145.7394,-70.6996C135.1507,-59.0669 123.3091,-46.0578 114.3977,-36.2679"/>
<polygon fill="#191970" stroke="#191970" points="143.1535,-73.0583 152.4733,-78.0974 148.3301,-68.3463 143.1535,-73.0583"/>
</g>
<!-- Node6 -->
<g id="node5" class="node">
<title>Node6</title>
<g id="a_node5"><a xlink:href="mir__prompt__session_8h.html" target="_top" xlink:title="include/client/mir\l_toolkit/mir_prompt\l_session.h">
<polygon fill="#ffffff" stroke="#000000" points="186,-.5 186,-41.5 299,-41.5 299,-.5 186,-.5"/>
<text text-anchor="start" x="194" y="-29.5" font-family="Arial" font-size="10.00" fill="#000000">include/client/mir</text>
<text text-anchor="start" x="194" y="-18.5" font-family="Arial" font-size="10.00" fill="#000000">_toolkit/mir_prompt</text>
<text text-anchor="middle" x="242.5" y="-7.5" font-family="Arial" font-size="10.00" fill="#000000">_session.h</text>
</a>
</g>
</g>
<!-- Node4&#45;&gt;Node6 -->
<g id="edge4" class="edge">
<title>Node4&#45;&gt;Node6</title>
<path fill="none" stroke="#191970" d="M197.2959,-70.6609C206.0185,-61.0783 215.5877,-50.5657 223.667,-41.6898"/>
<polygon fill="#191970" stroke="#191970" points="194.6699,-68.3463 190.5267,-78.0974 199.8465,-73.0583 194.6699,-68.3463"/>
</g>
</g>
</svg>
