<?xml version="1.0" encoding="UTF-8" standalone="no"?>
<!DOCTYPE svg PUBLIC "-//W3C//DTD SVG 1.1//EN"
 "http://www.w3.org/Graphics/SVG/1.1/DTD/svg11.dtd">
<!-- Generated by graphviz version 2.40.1 (20161225.0304)
 -->
<!-- Title: include/client/mir_toolkit/rs/mir_render_surface.h Pages: 1 -->
<svg width="2064pt" height="385pt"
 viewBox="0.00 0.00 2064.00 385.00" xmlns="http://www.w3.org/2000/svg" xmlns:xlink="http://www.w3.org/1999/xlink">
<g id="graph0" class="graph" transform="scale(1 1) rotate(0) translate(4 381)">
<title>include/client/mir_toolkit/rs/mir_render_surface.h</title>
<polygon fill="#ffffff" stroke="transparent" points="-4,4 -4,-381 2060,-381 2060,4 -4,4"/>
<!-- Node0 -->
<g id="node1" class="node">
<title>Node0</title>
<polygon fill="#bfbfbf" stroke="#000000" points="0,-335.5 0,-376.5 122,-376.5 122,-335.5 0,-335.5"/>
<text text-anchor="start" x="8" y="-364.5" font-family="Arial" font-size="10.00" fill="#000000">include/client/mir</text>
<text text-anchor="start" x="8" y="-353.5" font-family="Arial" font-size="10.00" fill="#000000">_toolkit/rs/mir_render</text>
<text text-anchor="middle" x="61" y="-342.5" font-family="Arial" font-size="10.00" fill="#000000">_surface.h</text>
</g>
<!-- Node1 -->
<g id="node2" class="node">
<title>Node1</title>
<g id="a_node2"><a xlink:href="client__types_8h.html" target="_top" xlink:title="mir_toolkit/client\l_types.h">
<polygon fill="#ffffff" stroke="#000000" points="76,-268.5 76,-298.5 176,-298.5 176,-268.5 76,-268.5"/>
<text text-anchor="start" x="84" y="-286.5" font-family="Arial" font-size="10.00" fill="#000000">mir_toolkit/client</text>
<text text-anchor="middle" x="126" y="-275.5" font-family="Arial" font-size="10.00" fill="#000000">_types.h</text>
</a>
</g>
</g>
<!-- Node0&#45;&gt;Node1 -->
<g id="edge1" class="edge">
<title>Node0&#45;&gt;Node1</title>
<path fill="none" stroke="#191970" d="M79.4525,-335.4183C87.6628,-326.2607 97.3543,-315.451 105.7625,-306.0726"/>
<polygon fill="#191970" stroke="#191970" points="108.3934,-308.3812 112.4629,-298.5991 103.1814,-303.7084 108.3934,-308.3812"/>
</g>
<!-- Node6 -->
<g id="node7" class="node">
<title>Node6</title>
<g id="a_node7"><a xlink:href="deprecations_8h.html" target="_top" xlink:title="mir_toolkit/deprecations.h">
<polygon fill="#ffffff" stroke="#000000" points="144.5,-62 144.5,-81 289.5,-81 289.5,-62 144.5,-62"/>
<text text-anchor="middle" x="217" y="-69" font-family="Arial" font-size="10.00" fill="#000000">mir_toolkit/deprecations.h</text>
</a>
</g>
</g>
<!-- Node0&#45;&gt;Node6 -->
<g id="edge46" class="edge">
<title>Node0&#45;&gt;Node6</title>
<path fill="none" stroke="#191970" d="M50.9622,-335.4459C31.1213,-291.5322 -7.2049,-187.3317 41,-123 54.195,-105.3907 104.4561,-91.7827 147.9069,-82.9891"/>
<polygon fill="#191970" stroke="#191970" points="148.7786,-86.3848 157.916,-81.0221 147.4288,-79.5162 148.7786,-86.3848"/>
</g>
<!-- Node2 -->
<g id="node3" class="node">
<title>Node2</title>
<g id="a_node3"><a xlink:href="toolkit_2events_2event_8h.html" target="_top" xlink:title="mir_toolkit/events\l/event.h">
<polygon fill="#ffffff" stroke="#000000" points="906,-201.5 906,-231.5 1012,-231.5 1012,-201.5 906,-201.5"/>
<text text-anchor="start" x="914" y="-219.5" font-family="Arial" font-size="10.00" fill="#000000">mir_toolkit/events</text>
<text text-anchor="middle" x="959" y="-208.5" font-family="Arial" font-size="10.00" fill="#000000">/event.h</text>
</a>
</g>
</g>
<!-- Node1&#45;&gt;Node2 -->
<g id="edge2" class="edge">
<title>Node1&#45;&gt;Node2</title>
<path fill="none" stroke="#191970" d="M176.232,-279.4597C320.5344,-267.8532 736.1355,-234.4255 895.6328,-221.5968"/>
<polygon fill="#191970" stroke="#191970" points="896.0754,-225.0726 905.7626,-220.782 895.5142,-218.0951 896.0754,-225.0726"/>
</g>
<!-- Node3 -->
<g id="node4" class="node">
<title>Node3</title>
<polygon fill="#ffffff" stroke="#bfbfbf" points="1770,-134.5 1770,-153.5 1826,-153.5 1826,-134.5 1770,-134.5"/>
<text text-anchor="middle" x="1798" y="-141.5" font-family="Arial" font-size="10.00" fill="#000000">stddef.h</text>
</g>
<!-- Node1&#45;&gt;Node3 -->
<g id="edge45" class="edge">
<title>Node1&#45;&gt;Node3</title>
<path fill="none" stroke="#191970" d="M176.2499,-282.9458C417.1135,-279.8216 1454.4183,-260.9339 1761,-165 1765.8551,-163.4808 1770.7759,-161.259 1775.3757,-158.8226"/>
<polygon fill="#191970" stroke="#191970" points="1777.3505,-161.7233 1784.2425,-153.6765 1773.8367,-155.669 1777.3505,-161.7233"/>
</g>
<!-- Node5 -->
<g id="node6" class="node">
<title>Node5</title>
<g id="a_node6"><a xlink:href="common_8h.html" target="_top" xlink:title="mir_toolkit/common.h">
<polygon fill="#ffffff" stroke="#000000" points="63.5,-134.5 63.5,-153.5 188.5,-153.5 188.5,-134.5 63.5,-134.5"/>
<text text-anchor="middle" x="126" y="-141.5" font-family="Arial" font-size="10.00" fill="#000000">mir_toolkit/common.h</text>
</a>
</g>
</g>
<!-- Node1&#45;&gt;Node5 -->
<g id="edge43" class="edge">
<title>Node1&#45;&gt;Node5</title>
<path fill="none" stroke="#191970" d="M126,-268.3055C126,-242.9831 126,-192.1556 126,-163.9709"/>
<polygon fill="#191970" stroke="#191970" points="129.5001,-163.7366 126,-153.7366 122.5001,-163.7367 129.5001,-163.7366"/>
</g>
<!-- Node1&#45;&gt;Node6 -->
<g id="edge44" class="edge">
<title>Node1&#45;&gt;Node6</title>
<path fill="none" stroke="#191970" d="M109.3832,-268.213C78.8711,-238.2817 20.1039,-170.7105 55,-123 67.2728,-106.2205 115.1008,-92.3121 155.6331,-83.1966"/>
<polygon fill="#191970" stroke="#191970" points="156.4655,-86.5973 165.4862,-81.0406 154.9692,-79.7591 156.4655,-86.5973"/>
</g>
<!-- Node2&#45;&gt;Node3 -->
<g id="edge3" class="edge">
<title>Node2&#45;&gt;Node3</title>
<path fill="none" stroke="#191970" d="M1012.0729,-214.4749C1179.4923,-207.8946 1689.6431,-186.3077 1761,-165 1765.9586,-163.5193 1770.9743,-161.2762 1775.6446,-158.7988"/>
<polygon fill="#191970" stroke="#191970" points="1777.75,-161.6223 1784.6168,-153.554 1774.2173,-155.5791 1777.75,-161.6223"/>
</g>
<!-- Node4 -->
<g id="node5" class="node">
<title>Node4</title>
<polygon fill="#ffffff" stroke="#bfbfbf" points="1408.5,-.5 1408.5,-19.5 1461.5,-19.5 1461.5,-.5 1408.5,-.5"/>
<text text-anchor="middle" x="1435" y="-7.5" font-family="Arial" font-size="10.00" fill="#000000">stdint.h</text>
</g>
<!-- Node2&#45;&gt;Node4 -->
<g id="edge4" class="edge">
<title>Node2&#45;&gt;Node4</title>
<path fill="none" stroke="#191970" d="M1012.3441,-215.0548C1136.5647,-211.1401 1436.9098,-198.2949 1467,-165 1532.8725,-92.1118 1382.7964,-109.4755 1367,-87 1359.0776,-75.7278 1360.5399,-68.1694 1367,-56 1374.3846,-42.0889 1388.0636,-31.6166 1401.2272,-24.2062"/>
<polygon fill="#191970" stroke="#191970" points="1402.9124,-27.275 1410.1745,-19.5605 1399.6866,-21.0625 1402.9124,-27.275"/>
</g>
<!-- Node2&#45;&gt;Node5 -->
<g id="edge5" class="edge">
<title>Node2&#45;&gt;Node5</title>
<path fill="none" stroke="#191970" d="M905.8847,-214.254C757.1641,-207.747 338.6396,-187.8835 203,-165 190.6177,-162.911 177.3526,-159.6693 165.3815,-156.3529"/>
<polygon fill="#191970" stroke="#191970" points="166.2551,-152.9624 155.6779,-153.5732 164.3274,-159.6918 166.2551,-152.9624"/>
</g>
<!-- Node2&#45;&gt;Node6 -->
<g id="edge7" class="edge">
<title>Node2&#45;&gt;Node6</title>
<path fill="none" stroke="#191970" d="M905.9305,-214.4665C743.2701,-208.0061 261.1288,-187.0715 236,-165 215.3338,-146.8482 213.4837,-112.9048 214.7348,-91.2936"/>
<polygon fill="#191970" stroke="#191970" points="218.2276,-91.5263 215.5885,-81.2655 211.2528,-90.9325 218.2276,-91.5263"/>
</g>
<!-- Node7 -->
<g id="node8" class="node">
<title>Node7</title>
<g id="a_node8"><a xlink:href="input__event_8h.html" target="_top" xlink:title="mir_toolkit/events\l/input/input_event.h">
<polygon fill="#ffffff" stroke="#000000" points="1514,-129 1514,-159 1628,-159 1628,-129 1514,-129"/>
<text text-anchor="start" x="1522" y="-147" font-family="Arial" font-size="10.00" fill="#000000">mir_toolkit/events</text>
<text text-anchor="middle" x="1571" y="-136" font-family="Arial" font-size="10.00" fill="#000000">/input/input_event.h</text>
</a>
</g>
</g>
<!-- Node2&#45;&gt;Node7 -->
<g id="edge8" class="edge">
<title>Node2&#45;&gt;Node7</title>
<path fill="none" stroke="#191970" d="M1012.0909,-214.6178C1108.3988,-210.5896 1317.5538,-198.5806 1491,-165 1495.9218,-164.0471 1500.9917,-162.8972 1506.0824,-161.6323"/>
<polygon fill="#191970" stroke="#191970" points="1507.0716,-164.9915 1515.8639,-159.08 1505.3041,-158.2183 1507.0716,-164.9915"/>
</g>
<!-- Node14 -->
<g id="node15" class="node">
<title>Node14</title>
<g id="a_node15"><a xlink:href="resize__event_8h.html" target="_top" xlink:title="mir_toolkit/events\l/resize_event.h">
<polygon fill="#ffffff" stroke="#000000" points="653,-129 653,-159 759,-159 759,-129 653,-129"/>
<text text-anchor="start" x="661" y="-147" font-family="Arial" font-size="10.00" fill="#000000">mir_toolkit/events</text>
<text text-anchor="middle" x="706" y="-136" font-family="Arial" font-size="10.00" fill="#000000">/resize_event.h</text>
</a>
</g>
</g>
<!-- Node2&#45;&gt;Node14 -->
<g id="edge19" class="edge">
<title>Node2&#45;&gt;Node14</title>
<path fill="none" stroke="#191970" d="M905.6346,-204.9268C865.0131,-194.9829 808.1266,-179.9266 759,-165 756.0505,-164.1038 753.03,-163.1618 749.9973,-162.1937"/>
<polygon fill="#191970" stroke="#191970" points="750.9345,-158.8179 740.342,-159.0372 748.7594,-165.4714 750.9345,-158.8179"/>
</g>
<!-- Node15 -->
<g id="node16" class="node">
<title>Node15</title>
<g id="a_node16"><a xlink:href="surface__event_8h.html" target="_top" xlink:title="mir_toolkit/events\l/surface_event.h">
<polygon fill="#ffffff" stroke="#000000" points="245,-129 245,-159 351,-159 351,-129 245,-129"/>
<text text-anchor="start" x="253" y="-147" font-family="Arial" font-size="10.00" fill="#000000">mir_toolkit/events</text>
<text text-anchor="middle" x="298" y="-136" font-family="Arial" font-size="10.00" fill="#000000">/surface_event.h</text>
</a>
</g>
</g>
<!-- Node2&#45;&gt;Node15 -->
<g id="edge21" class="edge">
<title>Node2&#45;&gt;Node15</title>
<path fill="none" stroke="#191970" d="M905.7993,-213.7828C777.9257,-206.6876 456.7253,-186.6467 352,-165 347.8719,-164.1467 343.6379,-163.1088 339.4387,-161.9564"/>
<polygon fill="#191970" stroke="#191970" points="340.352,-158.5767 329.7697,-159.0928 338.3641,-165.2885 340.352,-158.5767"/>
</g>
<!-- Node16 -->
<g id="node17" class="node">
<title>Node16</title>
<g id="a_node17"><a xlink:href="window__event_8h.html" target="_top" xlink:title="mir_toolkit/events\l/window_event.h">
<polygon fill="#ffffff" stroke="#000000" points="777,-129 777,-159 883,-159 883,-129 777,-129"/>
<text text-anchor="start" x="785" y="-147" font-family="Arial" font-size="10.00" fill="#000000">mir_toolkit/events</text>
<text text-anchor="middle" x="830" y="-136" font-family="Arial" font-size="10.00" fill="#000000">/window_event.h</text>
</a>
</g>
</g>
<!-- Node2&#45;&gt;Node16 -->
<g id="edge24" class="edge">
<title>Node2&#45;&gt;Node16</title>
<path fill="none" stroke="#191970" d="M926.6784,-201.478C906.1404,-190.6877 879.8702,-176.023 859.8304,-164.2071"/>
<polygon fill="#191970" stroke="#191970" points="861.4856,-161.1191 851.1043,-159.0028 857.9,-167.1311 861.4856,-161.1191"/>
</g>
<!-- Node17 -->
<g id="node18" class="node">
<title>Node17</title>
<g id="a_node18"><a xlink:href="orientation__event_8h.html" target="_top" xlink:title="mir_toolkit/events\l/orientation_event.h">
<polygon fill="#ffffff" stroke="#000000" points="901.5,-129 901.5,-159 1016.5,-159 1016.5,-129 901.5,-129"/>
<text text-anchor="start" x="909.5" y="-147" font-family="Arial" font-size="10.00" fill="#000000">mir_toolkit/events</text>
<text text-anchor="middle" x="959" y="-136" font-family="Arial" font-size="10.00" fill="#000000">/orientation_event.h</text>
</a>
</g>
</g>
<!-- Node2&#45;&gt;Node17 -->
<g id="edge26" class="edge">
<title>Node2&#45;&gt;Node17</title>
<path fill="none" stroke="#191970" d="M953.4073,-201.478C952.2494,-192.1459 951.9604,-179.9157 952.5402,-169.1368"/>
<polygon fill="#191970" stroke="#191970" points="956.042,-169.2654 953.4097,-159.0028 949.0676,-168.667 956.042,-169.2654"/>
</g>
<!-- Node18 -->
<g id="node19" class="node">
<title>Node18</title>
<g id="a_node19"><a xlink:href="prompt__session__event_8h.html" target="_top" xlink:title="mir_toolkit/events\l/prompt_session_event.h">
<polygon fill="#ffffff" stroke="#000000" points="1034.5,-129 1034.5,-159 1173.5,-159 1173.5,-129 1034.5,-129"/>
<text text-anchor="start" x="1042.5" y="-147" font-family="Arial" font-size="10.00" fill="#000000">mir_toolkit/events</text>
<text text-anchor="middle" x="1104" y="-136" font-family="Arial" font-size="10.00" fill="#000000">/prompt_session_event.h</text>
</a>
</g>
</g>
<!-- Node2&#45;&gt;Node18 -->
<g id="edge28" class="edge">
<title>Node2&#45;&gt;Node18</title>
<path fill="none" stroke="#191970" d="M983.4514,-201.478C1004.1489,-190.4447 1034.1629,-175.3605 1059.1176,-163.4132"/>
<polygon fill="#191970" stroke="#191970" points="1060.8725,-166.4544 1068.4041,-159.0028 1057.8695,-160.1313 1060.8725,-166.4544"/>
</g>
<!-- Node19 -->
<g id="node20" class="node">
<title>Node19</title>
<g id="a_node20"><a xlink:href="keymap__event_8h.html" target="_top" xlink:title="mir_toolkit/events\l/keymap_event.h">
<polygon fill="#ffffff" stroke="#000000" points="1646,-129 1646,-159 1752,-159 1752,-129 1646,-129"/>
<text text-anchor="start" x="1654" y="-147" font-family="Arial" font-size="10.00" fill="#000000">mir_toolkit/events</text>
<text text-anchor="middle" x="1699" y="-136" font-family="Arial" font-size="10.00" fill="#000000">/keymap_event.h</text>
</a>
</g>
</g>
<!-- Node2&#45;&gt;Node19 -->
<g id="edge30" class="edge">
<title>Node2&#45;&gt;Node19</title>
<path fill="none" stroke="#191970" d="M1012.0059,-213.9909C1148.6503,-207.5236 1509.8759,-189.0922 1628,-165 1632.134,-164.1568 1636.3729,-163.1166 1640.6267,-161.9541"/>
<polygon fill="#191970" stroke="#191970" points="1641.922,-165.222 1650.5372,-159.0552 1639.9567,-158.5035 1641.922,-165.222"/>
</g>
<!-- Node20 -->
<g id="node21" class="node">
<title>Node20</title>
<g id="a_node21"><a xlink:href="input__configuration__event_8h.html" target="_top" xlink:title="mir_toolkit/events\l/input_configuration\l_event.h">
<polygon fill="#ffffff" stroke="#000000" points="369.5,-123.5 369.5,-164.5 482.5,-164.5 482.5,-123.5 369.5,-123.5"/>
<text text-anchor="start" x="377.5" y="-152.5" font-family="Arial" font-size="10.00" fill="#000000">mir_toolkit/events</text>
<text text-anchor="start" x="377.5" y="-141.5" font-family="Arial" font-size="10.00" fill="#000000">/input_configuration</text>
<text text-anchor="middle" x="426" y="-130.5" font-family="Arial" font-size="10.00" fill="#000000">_event.h</text>
</a>
</g>
</g>
<!-- Node2&#45;&gt;Node20 -->
<g id="edge33" class="edge">
<title>Node2&#45;&gt;Node20</title>
<path fill="none" stroke="#191970" d="M905.7438,-214.3527C818.8731,-209.9396 641.8278,-197.567 490.784,-166.6042"/>
<polygon fill="#191970" stroke="#191970" points="491.3777,-163.1528 480.8738,-164.5378 489.9488,-170.0055 491.3777,-163.1528"/>
</g>
<!-- Node21 -->
<g id="node22" class="node">
<title>Node21</title>
<g id="a_node22"><a xlink:href="surface__output__event_8h.html" target="_top" xlink:title="mir_toolkit/events\l/surface_output_event.h">
<polygon fill="#ffffff" stroke="#000000" points="501,-129 501,-159 635,-159 635,-129 501,-129"/>
<text text-anchor="start" x="509" y="-147" font-family="Arial" font-size="10.00" fill="#000000">mir_toolkit/events</text>
<text text-anchor="middle" x="568" y="-136" font-family="Arial" font-size="10.00" fill="#000000">/surface_output_event.h</text>
</a>
</g>
</g>
<!-- Node2&#45;&gt;Node21 -->
<g id="edge36" class="edge">
<title>Node2&#45;&gt;Node21</title>
<path fill="none" stroke="#191970" d="M905.8413,-210.4249C841.1789,-202.0667 729.318,-185.6781 635,-165 630.3159,-163.9731 625.4906,-162.8339 620.6735,-161.6326"/>
<polygon fill="#191970" stroke="#191970" points="621.4027,-158.2061 610.8453,-159.0952 619.6528,-164.9839 621.4027,-158.2061"/>
</g>
<!-- Node22 -->
<g id="node23" class="node">
<title>Node22</title>
<g id="a_node23"><a xlink:href="window__output__event_8h.html" target="_top" xlink:title="mir_toolkit/events\l/window_output_event.h">
<polygon fill="#ffffff" stroke="#000000" points="1192,-129 1192,-159 1328,-159 1328,-129 1192,-129"/>
<text text-anchor="start" x="1200" y="-147" font-family="Arial" font-size="10.00" fill="#000000">mir_toolkit/events</text>
<text text-anchor="middle" x="1260" y="-136" font-family="Arial" font-size="10.00" fill="#000000">/window_output_event.h</text>
</a>
</g>
</g>
<!-- Node2&#45;&gt;Node22 -->
<g id="edge39" class="edge">
<title>Node2&#45;&gt;Node22</title>
<path fill="none" stroke="#191970" d="M1012.081,-203.2765C1055.6923,-193.2418 1118.8511,-178.854 1174,-165 1178.2731,-163.9266 1182.6726,-162.7958 1187.1184,-161.6385"/>
<polygon fill="#191970" stroke="#191970" points="1188.1092,-164.9971 1196.8941,-159.0746 1186.3333,-158.2261 1188.1092,-164.9971"/>
</g>
<!-- Node23 -->
<g id="node24" class="node">
<title>Node23</title>
<g id="a_node24"><a xlink:href="input__device__state__event_8h.html" target="_top" xlink:title="mir_toolkit/events\l/input_device_state\l_event.h">
<polygon fill="#ffffff" stroke="#000000" points="1346,-123.5 1346,-164.5 1458,-164.5 1458,-123.5 1346,-123.5"/>
<text text-anchor="start" x="1354" y="-152.5" font-family="Arial" font-size="10.00" fill="#000000">mir_toolkit/events</text>
<text text-anchor="start" x="1354" y="-141.5" font-family="Arial" font-size="10.00" fill="#000000">/input_device_state</text>
<text text-anchor="middle" x="1402" y="-130.5" font-family="Arial" font-size="10.00" fill="#000000">_event.h</text>
</a>
</g>
</g>
<!-- Node2&#45;&gt;Node23 -->
<g id="edge41" class="edge">
<title>Node2&#45;&gt;Node23</title>
<path fill="none" stroke="#191970" d="M1012.2387,-211.676C1084.4731,-204.8506 1216.927,-190.2992 1328,-165 1330.6197,-164.4033 1333.2849,-163.7477 1335.9731,-163.0484"/>
<polygon fill="#191970" stroke="#191970" points="1337.0558,-166.3806 1345.768,-160.3516 1335.1976,-159.6317 1337.0558,-166.3806"/>
</g>
<!-- Node5&#45;&gt;Node6 -->
<g id="edge6" class="edge">
<title>Node5&#45;&gt;Node6</title>
<path fill="none" stroke="#191970" d="M138.2727,-134.2223C153.2816,-122.2646 178.8969,-101.8569 196.8208,-87.5768"/>
<polygon fill="#191970" stroke="#191970" points="199.2814,-90.0915 204.9218,-81.1228 194.9196,-84.6166 199.2814,-90.0915"/>
</g>
<!-- Node7&#45;&gt;Node2 -->
<g id="edge9" class="edge">
<title>Node7&#45;&gt;Node2</title>
<path fill="none" stroke="#191970" d="M1533.5826,-159.08C1525.5526,-161.3419 1517.0767,-163.4363 1509,-165 1335.268,-198.6359 1125.7093,-210.6291 1022.5368,-214.6377"/>
<polygon fill="#191970" stroke="#191970" points="1022.1505,-211.1496 1012.2891,-215.023 1022.4136,-218.1447 1022.1505,-211.1496"/>
</g>
<!-- Node7&#45;&gt;Node4 -->
<g id="edge12" class="edge">
<title>Node7&#45;&gt;Node4</title>
<path fill="none" stroke="#191970" d="M1596.445,-128.8888C1622.9869,-111.2272 1658.133,-81.2055 1638,-56 1617.5967,-30.4561 1524.6268,-18.0412 1471.8609,-12.9569"/>
<polygon fill="#191970" stroke="#191970" points="1472.1564,-9.4694 1461.8772,-12.036 1471.5134,-16.4398 1472.1564,-9.4694"/>
</g>
<!-- Node8 -->
<g id="node9" class="node">
<title>Node8</title>
<g id="a_node9"><a xlink:href="mir__input__device__types_8h.html" target="_top" xlink:title="mir_toolkit/mir_input\l_device_types.h">
<polygon fill="#ffffff" stroke="#000000" points="1375.5,-56.5 1375.5,-86.5 1494.5,-86.5 1494.5,-56.5 1375.5,-56.5"/>
<text text-anchor="start" x="1383.5" y="-74.5" font-family="Arial" font-size="10.00" fill="#000000">mir_toolkit/mir_input</text>
<text text-anchor="middle" x="1435" y="-63.5" font-family="Arial" font-size="10.00" fill="#000000">_device_types.h</text>
</a>
</g>
</g>
<!-- Node7&#45;&gt;Node8 -->
<g id="edge10" class="edge">
<title>Node7&#45;&gt;Node8</title>
<path fill="none" stroke="#191970" d="M1542.8207,-128.978C1522.3062,-118.0419 1494.326,-103.126 1472.0102,-91.2297"/>
<polygon fill="#191970" stroke="#191970" points="1473.6141,-88.1185 1463.1432,-86.5028 1470.3211,-94.2956 1473.6141,-88.1185"/>
</g>
<!-- Node9 -->
<g id="node10" class="node">
<title>Node9</title>
<polygon fill="#ffffff" stroke="#bfbfbf" points="1709,-.5 1709,-19.5 1771,-19.5 1771,-.5 1709,-.5"/>
<text text-anchor="middle" x="1740" y="-7.5" font-family="Arial" font-size="10.00" fill="#000000">stdbool.h</text>
</g>
<!-- Node7&#45;&gt;Node9 -->
<g id="edge13" class="edge">
<title>Node7&#45;&gt;Node9</title>
<path fill="none" stroke="#191970" d="M1594.8283,-128.8098C1611.7383,-117.7501 1634.7573,-102.1205 1654,-87 1678.7817,-67.5272 1705.571,-42.9205 1722.549,-26.8365"/>
<polygon fill="#191970" stroke="#191970" points="1725.225,-29.1208 1730.0437,-19.6852 1720.3926,-24.0564 1725.225,-29.1208"/>
</g>
<!-- Node10 -->
<g id="node11" class="node">
<title>Node10</title>
<g id="a_node11"><a xlink:href="touch__event_8h.html" target="_top" xlink:title="mir_toolkit/events\l/input/touch_event.h">
<polygon fill="#ffffff" stroke="#000000" points="1513,-56.5 1513,-86.5 1629,-86.5 1629,-56.5 1513,-56.5"/>
<text text-anchor="start" x="1521" y="-74.5" font-family="Arial" font-size="10.00" fill="#000000">mir_toolkit/events</text>
<text text-anchor="middle" x="1571" y="-63.5" font-family="Arial" font-size="10.00" fill="#000000">/input/touch_event.h</text>
</a>
</g>
</g>
<!-- Node7&#45;&gt;Node10 -->
<g id="edge14" class="edge">
<title>Node7&#45;&gt;Node10</title>
<path fill="none" stroke="#191970" d="M1571,-128.978C1571,-119.6459 1571,-107.4157 1571,-96.6368"/>
<polygon fill="#191970" stroke="#191970" points="1574.5001,-96.5028 1571,-86.5028 1567.5001,-96.5028 1574.5001,-96.5028"/>
</g>
<!-- Node11 -->
<g id="node12" class="node">
<title>Node11</title>
<g id="a_node12"><a xlink:href="keyboard__event_8h.html" target="_top" xlink:title="mir_toolkit/events\l/input/keyboard_event.h">
<polygon fill="#ffffff" stroke="#000000" points="1865.5,-56.5 1865.5,-86.5 2000.5,-86.5 2000.5,-56.5 1865.5,-56.5"/>
<text text-anchor="start" x="1873.5" y="-74.5" font-family="Arial" font-size="10.00" fill="#000000">mir_toolkit/events</text>
<text text-anchor="middle" x="1933" y="-63.5" font-family="Arial" font-size="10.00" fill="#000000">/input/keyboard_event.h</text>
</a>
</g>
</g>
<!-- Node7&#45;&gt;Node11 -->
<g id="edge15" class="edge">
<title>Node7&#45;&gt;Node11</title>
<path fill="none" stroke="#191970" d="M1615.1288,-128.9877C1622.3869,-126.7995 1629.8676,-124.7114 1637,-123 1729.8261,-100.7272 1757.2163,-104.4583 1855.3739,-87.0562"/>
<polygon fill="#191970" stroke="#191970" points="1856.1995,-90.4639 1865.4202,-85.2457 1854.9579,-83.5749 1856.1995,-90.4639"/>
</g>
<!-- Node13 -->
<g id="node14" class="node">
<title>Node13</title>
<g id="a_node14"><a xlink:href="pointer__event_8h.html" target="_top" xlink:title="mir_toolkit/events\l/input/pointer_event.h">
<polygon fill="#ffffff" stroke="#000000" points="1723,-56.5 1723,-86.5 1847,-86.5 1847,-56.5 1723,-56.5"/>
<text text-anchor="start" x="1731" y="-74.5" font-family="Arial" font-size="10.00" fill="#000000">mir_toolkit/events</text>
<text text-anchor="middle" x="1785" y="-63.5" font-family="Arial" font-size="10.00" fill="#000000">/input/pointer_event.h</text>
</a>
</g>
</g>
<!-- Node7&#45;&gt;Node13 -->
<g id="edge17" class="edge">
<title>Node7&#45;&gt;Node13</title>
<path fill="none" stroke="#191970" d="M1615.3409,-128.978C1648.9123,-117.6045 1695.1898,-101.9263 1730.9331,-89.8171"/>
<polygon fill="#191970" stroke="#191970" points="1732.3677,-93.0265 1740.7159,-86.5028 1730.1216,-86.3966 1732.3677,-93.0265"/>
</g>
<!-- Node8&#45;&gt;Node4 -->
<g id="edge11" class="edge">
<title>Node8&#45;&gt;Node4</title>
<path fill="none" stroke="#191970" d="M1435,-56.2977C1435,-48.3834 1435,-38.6043 1435,-30.0759"/>
<polygon fill="#191970" stroke="#191970" points="1438.5001,-29.8469 1435,-19.8469 1431.5001,-29.847 1438.5001,-29.8469"/>
</g>
<!-- Node12 -->
<g id="node13" class="node">
<title>Node12</title>
<polygon fill="#ffffff" stroke="#bfbfbf" points="1906,-.5 1906,-19.5 2056,-19.5 2056,-.5 1906,-.5"/>
<text text-anchor="middle" x="1981" y="-7.5" font-family="Arial" font-size="10.00" fill="#000000">xkbcommon/xkbcommon.h</text>
</g>
<!-- Node11&#45;&gt;Node12 -->
<g id="edge16" class="edge">
<title>Node11&#45;&gt;Node12</title>
<path fill="none" stroke="#191970" d="M1944.8652,-56.2977C1951.5975,-47.672 1960.0585,-36.8312 1967.1006,-27.8087"/>
<polygon fill="#191970" stroke="#191970" points="1969.921,-29.8836 1973.3146,-19.8469 1964.4027,-25.5766 1969.921,-29.8836"/>
</g>
<!-- Node13&#45;&gt;Node9 -->
<g id="edge18" class="edge">
<title>Node13&#45;&gt;Node9</title>
<path fill="none" stroke="#191970" d="M1773.8764,-56.2977C1767.6299,-47.7609 1759.796,-37.0545 1753.2353,-28.0883"/>
<polygon fill="#191970" stroke="#191970" points="1755.9348,-25.8505 1747.2051,-19.8469 1750.2856,-29.984 1755.9348,-25.8505"/>
</g>
<!-- Node14&#45;&gt;Node2 -->
<g id="edge20" class="edge">
<title>Node14&#45;&gt;Node2</title>
<path fill="none" stroke="#191970" d="M758.1536,-159.0372C764.5187,-161.1042 770.9107,-163.1498 777,-165 816.9488,-177.138 862.0288,-189.3618 897.3937,-198.8525"/>
<polygon fill="#191970" stroke="#191970" points="896.5332,-202.2453 907.0985,-201.4545 898.3461,-195.4841 896.5332,-202.2453"/>
</g>
<!-- Node15&#45;&gt;Node2 -->
<g id="edge22" class="edge">
<title>Node15&#45;&gt;Node2</title>
<path fill="none" stroke="#191970" d="M347.4751,-159.0928C354.9876,-161.3826 362.6612,-163.4831 370,-165 469.6043,-185.5882 765.0302,-204.7238 895.7201,-212.6504"/>
<polygon fill="#191970" stroke="#191970" points="895.7753,-216.16 905.9682,-213.2695 896.1975,-209.1727 895.7753,-216.16"/>
</g>
<!-- Node15&#45;&gt;Node6 -->
<g id="edge23" class="edge">
<title>Node15&#45;&gt;Node6</title>
<path fill="none" stroke="#191970" d="M281.2167,-128.978C267.8915,-117.051 249.2775,-100.3903 235.5189,-88.0756"/>
<polygon fill="#191970" stroke="#191970" points="237.8413,-85.4571 228.0558,-81.3957 233.1728,-90.6729 237.8413,-85.4571"/>
</g>
<!-- Node16&#45;&gt;Node2 -->
<g id="edge25" class="edge">
<title>Node16&#45;&gt;Node2</title>
<path fill="none" stroke="#191970" d="M862.285,-159.0028C882.8161,-169.7884 909.0866,-184.4525 929.1339,-196.2718"/>
<polygon fill="#191970" stroke="#191970" points="927.4824,-199.3621 937.8638,-201.478 931.0678,-193.3499 927.4824,-199.3621"/>
</g>
<!-- Node17&#45;&gt;Node2 -->
<g id="edge27" class="edge">
<title>Node17&#45;&gt;Node2</title>
<path fill="none" stroke="#191970" d="M964.5903,-159.0028C965.7494,-168.3309 966.0396,-180.5601 965.461,-191.3409"/>
<polygon fill="#191970" stroke="#191970" points="961.959,-191.2157 964.5927,-201.478 968.9334,-191.8132 961.959,-191.2157"/>
</g>
<!-- Node18&#45;&gt;Node2 -->
<g id="edge29" class="edge">
<title>Node18&#45;&gt;Node2</title>
<path fill="none" stroke="#191970" d="M1079.5847,-159.0028C1058.898,-170.0313 1028.8865,-185.115 1003.9259,-197.066"/>
<polygon fill="#191970" stroke="#191970" points="1002.1681,-194.0261 994.6368,-201.478 1005.1714,-200.3491 1002.1681,-194.0261"/>
</g>
<!-- Node19&#45;&gt;Node2 -->
<g id="edge31" class="edge">
<title>Node19&#45;&gt;Node2</title>
<path fill="none" stroke="#191970" d="M1668.2288,-159.0552C1661.0301,-161.3792 1653.3493,-163.5011 1646,-165 1528.2442,-189.0171 1168.9001,-207.4086 1022.2336,-213.93"/>
<polygon fill="#191970" stroke="#191970" points="1021.8836,-210.442 1012.0474,-214.379 1022.1919,-217.4352 1021.8836,-210.442"/>
</g>
<!-- Node19&#45;&gt;Node12 -->
<g id="edge32" class="edge">
<title>Node19&#45;&gt;Node12</title>
<path fill="none" stroke="#191970" d="M1740.0464,-128.9261C1746.978,-126.7192 1754.1478,-124.6412 1761,-123 1815.3709,-109.9776 1973.4042,-129.2673 2010,-87 2024.81,-69.8949 2010.1923,-44.48 1996.8922,-27.586"/>
<polygon fill="#191970" stroke="#191970" points="1999.3234,-25.0377 1990.22,-19.6174 1993.9563,-29.5316 1999.3234,-25.0377"/>
</g>
<!-- Node20&#45;&gt;Node2 -->
<g id="edge34" class="edge">
<title>Node20&#45;&gt;Node2</title>
<path fill="none" stroke="#191970" d="M482.5736,-160.3847C488.7727,-162.1293 495.0009,-163.728 501,-165 640.31,-194.5391 806.8076,-207.7405 895.7622,-213.1497"/>
<polygon fill="#191970" stroke="#191970" points="895.767,-216.6561 905.9572,-213.7561 896.1827,-209.6684 895.767,-216.6561"/>
</g>
<!-- Node20&#45;&gt;Node6 -->
<g id="edge35" class="edge">
<title>Node20&#45;&gt;Node6</title>
<path fill="none" stroke="#191970" d="M369.4416,-124.3805C332.898,-111.7039 286.3681,-95.5631 254.3819,-84.4674"/>
<polygon fill="#191970" stroke="#191970" points="255.1337,-81.0236 244.5389,-81.053 252.8395,-87.637 255.1337,-81.0236"/>
</g>
<!-- Node21&#45;&gt;Node2 -->
<g id="edge37" class="edge">
<title>Node21&#45;&gt;Node2</title>
<path fill="none" stroke="#191970" d="M628.6249,-159.0952C636.8214,-161.2226 645.1109,-163.2704 653,-165 736.4478,-183.2949 833.6277,-198.2321 895.7711,-207.2208"/>
<polygon fill="#191970" stroke="#191970" points="895.419,-210.706 905.8156,-208.6662 896.4161,-203.7774 895.419,-210.706"/>
</g>
<!-- Node21&#45;&gt;Node6 -->
<g id="edge38" class="edge">
<title>Node21&#45;&gt;Node6</title>
<path fill="none" stroke="#191970" d="M515.8174,-128.9571C507.8666,-126.8463 499.7352,-124.7896 492,-123 422.279,-106.8694 341.7253,-92.2481 285.8999,-82.7415"/>
<polygon fill="#191970" stroke="#191970" points="286.216,-79.2452 275.772,-81.0267 285.0474,-86.147 286.216,-79.2452"/>
</g>
<!-- Node22&#45;&gt;Node2 -->
<g id="edge40" class="edge">
<title>Node22&#45;&gt;Node2</title>
<path fill="none" stroke="#191970" d="M1214.7156,-159.0746C1207.1608,-161.115 1199.3913,-163.1432 1192,-165 1135.0324,-179.3109 1069.518,-194.1913 1022.4093,-204.2549"/>
<polygon fill="#191970" stroke="#191970" points="1021.4029,-200.8904 1012.3474,-206.3902 1022.8562,-207.7379 1021.4029,-200.8904"/>
</g>
<!-- Node23&#45;&gt;Node2 -->
<g id="edge42" class="edge">
<title>Node23&#45;&gt;Node2</title>
<path fill="none" stroke="#191970" d="M1348.0902,-164.5138C1347.3907,-164.6798 1346.6938,-164.842 1346,-165 1233.6739,-190.5847 1099.4818,-205.1775 1022.1708,-211.904"/>
<polygon fill="#191970" stroke="#191970" points="1021.7748,-208.425 1012.1086,-212.7628 1022.3701,-215.3997 1021.7748,-208.425"/>
</g>
</g>
</svg>
