<?xml version="1.0" encoding="UTF-8" standalone="no"?>
<!DOCTYPE svg PUBLIC "-//W3C//DTD SVG 1.1//EN"
 "http://www.w3.org/Graphics/SVG/1.1/DTD/svg11.dtd">
<!-- Generated by graphviz version 2.40.1 (20161225.0304)
 -->
<!-- Title: include/client/mir_toolkit/mir_screencast.h Pages: 1 -->
<svg width="1898pt" height="374pt"
 viewBox="0.00 0.00 1898.00 374.00" xmlns="http://www.w3.org/2000/svg" xmlns:xlink="http://www.w3.org/1999/xlink">
<g id="graph0" class="graph" transform="scale(1 1) rotate(0) translate(4 370)">
<title>include/client/mir_toolkit/mir_screencast.h</title>
<polygon fill="#ffffff" stroke="transparent" points="-4,4 -4,-370 1894,-370 1894,4 -4,4"/>
<!-- Node0 -->
<g id="node1" class="node">
<title>Node0</title>
<polygon fill="#bfbfbf" stroke="#000000" points="0,-335.5 0,-365.5 126,-365.5 126,-335.5 0,-335.5"/>
<text text-anchor="start" x="8" y="-353.5" font-family="Arial" font-size="10.00" fill="#000000">include/client/mir</text>
<text text-anchor="middle" x="63" y="-342.5" font-family="Arial" font-size="10.00" fill="#000000">_toolkit/mir_screencast.h</text>
</g>
<!-- Node1 -->
<g id="node2" class="node">
<title>Node1</title>
<g id="a_node2"><a xlink:href="client__types_8h.html" target="_top" xlink:title="mir_toolkit/client\l_types.h">
<polygon fill="#ffffff" stroke="#000000" points="80,-268.5 80,-298.5 168,-298.5 168,-268.5 80,-268.5"/>
<text text-anchor="start" x="88" y="-286.5" font-family="Arial" font-size="10.00" fill="#000000">mir_toolkit/client</text>
<text text-anchor="middle" x="124" y="-275.5" font-family="Arial" font-size="10.00" fill="#000000">_types.h</text>
</a>
</g>
</g>
<!-- Node0&#45;&gt;Node1 -->
<g id="edge1" class="edge">
<title>Node0&#45;&gt;Node1</title>
<path fill="none" stroke="#191970" d="M76.8418,-335.2967C84.6411,-326.7303 94.5366,-315.8614 103.247,-306.2943"/>
<polygon fill="#191970" stroke="#191970" points="106.0687,-308.3939 110.2129,-298.6432 100.8926,-303.6813 106.0687,-308.3939"/>
</g>
<!-- Node6 -->
<g id="node7" class="node">
<title>Node6</title>
<g id="a_node7"><a xlink:href="deprecations_8h.html" target="_top" xlink:title="mir_toolkit/deprecations.h">
<polygon fill="#ffffff" stroke="#000000" points="143,-62 143,-81 271,-81 271,-62 143,-62"/>
<text text-anchor="middle" x="207" y="-69" font-family="Arial" font-size="10.00" fill="#000000">mir_toolkit/deprecations.h</text>
</a>
</g>
</g>
<!-- Node0&#45;&gt;Node6 -->
<g id="edge46" class="edge">
<title>Node0&#45;&gt;Node6</title>
<path fill="none" stroke="#191970" d="M55.6942,-335.3937C37.8339,-296.0443 -3.1831,-188.8767 45,-123 57.2728,-106.2205 105.1008,-92.3121 145.6331,-83.1966"/>
<polygon fill="#191970" stroke="#191970" points="146.4655,-86.5973 155.4862,-81.0406 144.9692,-79.7591 146.4655,-86.5973"/>
</g>
<!-- Node2 -->
<g id="node3" class="node">
<title>Node2</title>
<g id="a_node3"><a xlink:href="toolkit_2events_2event_8h.html" target="_top" xlink:title="mir_toolkit/events\l/event.h">
<polygon fill="#ffffff" stroke="#000000" points="835,-201.5 835,-231.5 929,-231.5 929,-201.5 835,-201.5"/>
<text text-anchor="start" x="843" y="-219.5" font-family="Arial" font-size="10.00" fill="#000000">mir_toolkit/events</text>
<text text-anchor="middle" x="882" y="-208.5" font-family="Arial" font-size="10.00" fill="#000000">/event.h</text>
</a>
</g>
</g>
<!-- Node1&#45;&gt;Node2 -->
<g id="edge2" class="edge">
<title>Node1&#45;&gt;Node2</title>
<path fill="none" stroke="#191970" d="M168.0296,-279.6082C297.9346,-268.1258 679.5812,-234.3919 824.9129,-221.546"/>
<polygon fill="#191970" stroke="#191970" points="825.3087,-225.0247 834.9617,-220.6577 824.6923,-218.0519 825.3087,-225.0247"/>
</g>
<!-- Node3 -->
<g id="node4" class="node">
<title>Node3</title>
<polygon fill="#ffffff" stroke="#bfbfbf" points="1624,-134.5 1624,-153.5 1676,-153.5 1676,-134.5 1624,-134.5"/>
<text text-anchor="middle" x="1650" y="-141.5" font-family="Arial" font-size="10.00" fill="#000000">stddef.h</text>
</g>
<!-- Node1&#45;&gt;Node3 -->
<g id="edge45" class="edge">
<title>Node1&#45;&gt;Node3</title>
<path fill="none" stroke="#191970" d="M168.0696,-282.8157C384.536,-279.0289 1335.9628,-257.3251 1615,-165 1619.5117,-163.5072 1624.0614,-161.3554 1628.3197,-158.9924"/>
<polygon fill="#191970" stroke="#191970" points="1630.3423,-161.8581 1637.0481,-153.6555 1626.6907,-155.886 1630.3423,-161.8581"/>
</g>
<!-- Node5 -->
<g id="node6" class="node">
<title>Node5</title>
<g id="a_node6"><a xlink:href="common_8h.html" target="_top" xlink:title="mir_toolkit/common.h">
<polygon fill="#ffffff" stroke="#000000" points="69,-134.5 69,-153.5 179,-153.5 179,-134.5 69,-134.5"/>
<text text-anchor="middle" x="124" y="-141.5" font-family="Arial" font-size="10.00" fill="#000000">mir_toolkit/common.h</text>
</a>
</g>
</g>
<!-- Node1&#45;&gt;Node5 -->
<g id="edge43" class="edge">
<title>Node1&#45;&gt;Node5</title>
<path fill="none" stroke="#191970" d="M124,-268.3055C124,-242.9831 124,-192.1556 124,-163.9709"/>
<polygon fill="#191970" stroke="#191970" points="127.5001,-163.7366 124,-153.7366 120.5001,-163.7367 127.5001,-163.7366"/>
</g>
<!-- Node1&#45;&gt;Node6 -->
<g id="edge44" class="edge">
<title>Node1&#45;&gt;Node6</title>
<path fill="none" stroke="#191970" d="M108.6323,-268.1706C80.4461,-238.1648 26.3323,-170.4692 60,-123 71.2014,-107.2068 115.8693,-92.9675 153.0572,-83.4856"/>
<polygon fill="#191970" stroke="#191970" points="153.9576,-86.8684 162.8183,-81.0599 152.2694,-80.075 153.9576,-86.8684"/>
</g>
<!-- Node2&#45;&gt;Node3 -->
<g id="edge3" class="edge">
<title>Node2&#45;&gt;Node3</title>
<path fill="none" stroke="#191970" d="M929.1932,-214.4645C1080.8792,-207.7447 1549.8674,-185.5254 1615,-165 1619.6106,-163.547 1624.2494,-161.3772 1628.5738,-158.9758"/>
<polygon fill="#191970" stroke="#191970" points="1630.7261,-161.7609 1637.4058,-153.537 1627.0555,-155.8003 1630.7261,-161.7609"/>
</g>
<!-- Node4 -->
<g id="node5" class="node">
<title>Node4</title>
<polygon fill="#ffffff" stroke="#bfbfbf" points="1295.5,-.5 1295.5,-19.5 1344.5,-19.5 1344.5,-.5 1295.5,-.5"/>
<text text-anchor="middle" x="1320" y="-7.5" font-family="Arial" font-size="10.00" fill="#000000">stdint.h</text>
</g>
<!-- Node2&#45;&gt;Node4 -->
<g id="edge4" class="edge">
<title>Node2&#45;&gt;Node4</title>
<path fill="none" stroke="#191970" d="M929.3827,-214.742C1041.8541,-210.0832 1317.594,-195.6234 1345,-165 1406.771,-95.9772 1264.2327,-94.8631 1259,-87 1251.3669,-75.5299 1252.8545,-68.3313 1259,-56 1265.6003,-42.756 1278.0327,-32.3192 1289.9605,-24.7581"/>
<polygon fill="#191970" stroke="#191970" points="1292.0165,-27.6102 1298.8784,-19.5378 1288.4801,-21.5691 1292.0165,-27.6102"/>
</g>
<!-- Node2&#45;&gt;Node5 -->
<g id="edge5" class="edge">
<title>Node2&#45;&gt;Node5</title>
<path fill="none" stroke="#191970" d="M834.7678,-214.3307C700.2126,-207.9349 316.6522,-188.1433 193,-165 182.1805,-162.975 170.6556,-159.8645 160.1854,-156.6528"/>
<polygon fill="#191970" stroke="#191970" points="161.1182,-153.2767 150.5276,-153.5747 158.9925,-159.9462 161.1182,-153.2767"/>
</g>
<!-- Node2&#45;&gt;Node6 -->
<g id="edge7" class="edge">
<title>Node2&#45;&gt;Node6</title>
<path fill="none" stroke="#191970" d="M834.7963,-216.0178C691.9622,-214.1202 271.3728,-205.1441 226,-165 205.3996,-146.7736 203.5299,-112.8524 204.7592,-91.266"/>
<polygon fill="#191970" stroke="#191970" points="208.251,-91.5087 205.6016,-81.2505 201.2756,-90.9219 208.251,-91.5087"/>
</g>
<!-- Node7 -->
<g id="node8" class="node">
<title>Node7</title>
<g id="a_node8"><a xlink:href="input__event_8h.html" target="_top" xlink:title="mir_toolkit/events\l/input/input_event.h">
<polygon fill="#ffffff" stroke="#000000" points="1392,-129 1392,-159 1494,-159 1494,-129 1392,-129"/>
<text text-anchor="start" x="1400" y="-147" font-family="Arial" font-size="10.00" fill="#000000">mir_toolkit/events</text>
<text text-anchor="middle" x="1443" y="-136" font-family="Arial" font-size="10.00" fill="#000000">/input/input_event.h</text>
</a>
</g>
</g>
<!-- Node2&#45;&gt;Node7 -->
<g id="edge8" class="edge">
<title>Node2&#45;&gt;Node7</title>
<path fill="none" stroke="#191970" d="M929.2523,-214.6429C1016.9013,-210.6277 1209.7481,-198.6065 1369,-165 1373.2933,-164.094 1377.7034,-163.0112 1382.1339,-161.8217"/>
<polygon fill="#191970" stroke="#191970" points="1383.1619,-165.1683 1391.8287,-159.0742 1381.2532,-158.4335 1383.1619,-165.1683"/>
</g>
<!-- Node14 -->
<g id="node15" class="node">
<title>Node14</title>
<g id="a_node15"><a xlink:href="resize__event_8h.html" target="_top" xlink:title="mir_toolkit/events\l/resize_event.h">
<polygon fill="#ffffff" stroke="#000000" points="607,-129 607,-159 701,-159 701,-129 607,-129"/>
<text text-anchor="start" x="615" y="-147" font-family="Arial" font-size="10.00" fill="#000000">mir_toolkit/events</text>
<text text-anchor="middle" x="654" y="-136" font-family="Arial" font-size="10.00" fill="#000000">/resize_event.h</text>
</a>
</g>
</g>
<!-- Node2&#45;&gt;Node14 -->
<g id="edge19" class="edge">
<title>Node2&#45;&gt;Node14</title>
<path fill="none" stroke="#191970" d="M834.655,-205.2961C797.776,-195.3415 745.7541,-180.0722 701,-165 698.5891,-164.1881 696.1268,-163.3392 693.6528,-162.4679"/>
<polygon fill="#191970" stroke="#191970" points="694.7316,-159.1363 684.1374,-159.0269 692.3511,-165.7191 694.7316,-159.1363"/>
</g>
<!-- Node15 -->
<g id="node16" class="node">
<title>Node15</title>
<g id="a_node16"><a xlink:href="surface__event_8h.html" target="_top" xlink:title="mir_toolkit/events\l/surface_event.h">
<polygon fill="#ffffff" stroke="#000000" points="235,-129 235,-159 329,-159 329,-129 235,-129"/>
<text text-anchor="start" x="243" y="-147" font-family="Arial" font-size="10.00" fill="#000000">mir_toolkit/events</text>
<text text-anchor="middle" x="282" y="-136" font-family="Arial" font-size="10.00" fill="#000000">/surface_event.h</text>
</a>
</g>
</g>
<!-- Node2&#45;&gt;Node15 -->
<g id="edge21" class="edge">
<title>Node2&#45;&gt;Node15</title>
<path fill="none" stroke="#191970" d="M834.9437,-213.8763C719.467,-206.8511 425.2182,-186.6704 330,-165 326.5535,-164.2156 323.0325,-163.2767 319.5357,-162.2371"/>
<polygon fill="#191970" stroke="#191970" points="320.4193,-158.8442 309.8272,-159.0856 318.258,-165.5022 320.4193,-158.8442"/>
</g>
<!-- Node16 -->
<g id="node17" class="node">
<title>Node16</title>
<g id="a_node17"><a xlink:href="window__event_8h.html" target="_top" xlink:title="mir_toolkit/events\l/window_event.h">
<polygon fill="#ffffff" stroke="#000000" points="719,-129 719,-159 813,-159 813,-129 719,-129"/>
<text text-anchor="start" x="727" y="-147" font-family="Arial" font-size="10.00" fill="#000000">mir_toolkit/events</text>
<text text-anchor="middle" x="766" y="-136" font-family="Arial" font-size="10.00" fill="#000000">/window_event.h</text>
</a>
</g>
</g>
<!-- Node2&#45;&gt;Node16 -->
<g id="edge24" class="edge">
<title>Node2&#45;&gt;Node16</title>
<path fill="none" stroke="#191970" d="M852.372,-201.478C834.104,-190.8821 810.9784,-176.5502 793.1813,-164.8486"/>
<polygon fill="#191970" stroke="#191970" points="794.6759,-161.6385 784.4141,-159.0028 790.7925,-167.4625 794.6759,-161.6385"/>
</g>
<!-- Node17 -->
<g id="node18" class="node">
<title>Node17</title>
<g id="a_node18"><a xlink:href="orientation__event_8h.html" target="_top" xlink:title="mir_toolkit/events\l/orientation_event.h">
<polygon fill="#ffffff" stroke="#000000" points="831,-129 831,-159 933,-159 933,-129 831,-129"/>
<text text-anchor="start" x="839" y="-147" font-family="Arial" font-size="10.00" fill="#000000">mir_toolkit/events</text>
<text text-anchor="middle" x="882" y="-136" font-family="Arial" font-size="10.00" fill="#000000">/orientation_event.h</text>
</a>
</g>
</g>
<!-- Node2&#45;&gt;Node17 -->
<g id="edge26" class="edge">
<title>Node2&#45;&gt;Node17</title>
<path fill="none" stroke="#191970" d="M876.4073,-201.478C875.2494,-192.1459 874.9604,-179.9157 875.5402,-169.1368"/>
<polygon fill="#191970" stroke="#191970" points="879.042,-169.2654 876.4097,-159.0028 872.0676,-168.667 879.042,-169.2654"/>
</g>
<!-- Node18 -->
<g id="node19" class="node">
<title>Node18</title>
<g id="a_node19"><a xlink:href="prompt__session__event_8h.html" target="_top" xlink:title="mir_toolkit/events\l/prompt_session_event.h">
<polygon fill="#ffffff" stroke="#000000" points="951,-129 951,-159 1077,-159 1077,-129 951,-129"/>
<text text-anchor="start" x="959" y="-147" font-family="Arial" font-size="10.00" fill="#000000">mir_toolkit/events</text>
<text text-anchor="middle" x="1014" y="-136" font-family="Arial" font-size="10.00" fill="#000000">/prompt_session_event.h</text>
</a>
</g>
</g>
<!-- Node2&#45;&gt;Node18 -->
<g id="edge28" class="edge">
<title>Node2&#45;&gt;Node18</title>
<path fill="none" stroke="#191970" d="M903.7578,-201.478C922.312,-190.5419 949.3056,-175.626 971.9946,-163.7297"/>
<polygon fill="#191970" stroke="#191970" points="973.8335,-166.7185 981.0942,-159.0028 970.6066,-160.5066 973.8335,-166.7185"/>
</g>
<!-- Node19 -->
<g id="node20" class="node">
<title>Node19</title>
<g id="a_node20"><a xlink:href="keymap__event_8h.html" target="_top" xlink:title="mir_toolkit/events\l/keymap_event.h">
<polygon fill="#ffffff" stroke="#000000" points="1512,-129 1512,-159 1606,-159 1606,-129 1512,-129"/>
<text text-anchor="start" x="1520" y="-147" font-family="Arial" font-size="10.00" fill="#000000">mir_toolkit/events</text>
<text text-anchor="middle" x="1559" y="-136" font-family="Arial" font-size="10.00" fill="#000000">/keymap_event.h</text>
</a>
</g>
</g>
<!-- Node2&#45;&gt;Node19 -->
<g id="edge30" class="edge">
<title>Node2&#45;&gt;Node19</title>
<path fill="none" stroke="#191970" d="M929.3121,-214.0502C1053.4861,-207.6538 1385.9358,-189.2511 1494,-165 1497.5523,-164.2028 1501.182,-163.2301 1504.8245,-162.1448"/>
<polygon fill="#191970" stroke="#191970" points="1506.0009,-165.4431 1514.4514,-159.0525 1503.8601,-158.7785 1506.0009,-165.4431"/>
</g>
<!-- Node20 -->
<g id="node21" class="node">
<title>Node20</title>
<g id="a_node21"><a xlink:href="input__configuration__event_8h.html" target="_top" xlink:title="mir_toolkit/events\l/input_configuration\l_event.h">
<polygon fill="#ffffff" stroke="#000000" points="347.5,-123.5 347.5,-164.5 448.5,-164.5 448.5,-123.5 347.5,-123.5"/>
<text text-anchor="start" x="355.5" y="-152.5" font-family="Arial" font-size="10.00" fill="#000000">mir_toolkit/events</text>
<text text-anchor="start" x="355.5" y="-141.5" font-family="Arial" font-size="10.00" fill="#000000">/input_configuration</text>
<text text-anchor="middle" x="398" y="-130.5" font-family="Arial" font-size="10.00" fill="#000000">_event.h</text>
</a>
</g>
</g>
<!-- Node2&#45;&gt;Node20 -->
<g id="edge33" class="edge">
<title>Node2&#45;&gt;Node20</title>
<path fill="none" stroke="#191970" d="M834.9778,-214.4201C756.513,-210.0495 594.5807,-197.6758 456.9254,-166.7921"/>
<polygon fill="#191970" stroke="#191970" points="457.5862,-163.3529 447.0576,-164.5363 456.0262,-170.1769 457.5862,-163.3529"/>
</g>
<!-- Node21 -->
<g id="node22" class="node">
<title>Node21</title>
<g id="a_node22"><a xlink:href="surface__output__event_8h.html" target="_top" xlink:title="mir_toolkit/events\l/surface_output_event.h">
<polygon fill="#ffffff" stroke="#000000" points="467,-129 467,-159 589,-159 589,-129 467,-129"/>
<text text-anchor="start" x="475" y="-147" font-family="Arial" font-size="10.00" fill="#000000">mir_toolkit/events</text>
<text text-anchor="middle" x="528" y="-136" font-family="Arial" font-size="10.00" fill="#000000">/surface_output_event.h</text>
</a>
</g>
</g>
<!-- Node2&#45;&gt;Node21 -->
<g id="edge36" class="edge">
<title>Node2&#45;&gt;Node21</title>
<path fill="none" stroke="#191970" d="M834.9316,-210.5464C776.5446,-202.1517 674.6385,-185.5422 589,-165 584.9054,-164.0178 580.6959,-162.9374 576.4899,-161.8006"/>
<polygon fill="#191970" stroke="#191970" points="577.3113,-158.396 566.7376,-159.0658 575.4212,-165.136 577.3113,-158.396"/>
</g>
<!-- Node22 -->
<g id="node23" class="node">
<title>Node22</title>
<g id="a_node23"><a xlink:href="window__output__event_8h.html" target="_top" xlink:title="mir_toolkit/events\l/window_output_event.h">
<polygon fill="#ffffff" stroke="#000000" points="1095.5,-129 1095.5,-159 1216.5,-159 1216.5,-129 1095.5,-129"/>
<text text-anchor="start" x="1103.5" y="-147" font-family="Arial" font-size="10.00" fill="#000000">mir_toolkit/events</text>
<text text-anchor="middle" x="1156" y="-136" font-family="Arial" font-size="10.00" fill="#000000">/window_output_event.h</text>
</a>
</g>
</g>
<!-- Node2&#45;&gt;Node22 -->
<g id="edge39" class="edge">
<title>Node2&#45;&gt;Node22</title>
<path fill="none" stroke="#191970" d="M929.2899,-203.381C968.8959,-193.3413 1026.6489,-178.901 1077,-165 1080.5735,-164.0134 1084.2432,-162.9785 1087.954,-161.9191"/>
<polygon fill="#191970" stroke="#191970" points="1089.1934,-165.2045 1097.8345,-159.074 1087.2564,-158.4778 1089.1934,-165.2045"/>
</g>
<!-- Node23 -->
<g id="node24" class="node">
<title>Node23</title>
<g id="a_node24"><a xlink:href="input__device__state__event_8h.html" target="_top" xlink:title="mir_toolkit/events\l/input_device_state\l_event.h">
<polygon fill="#ffffff" stroke="#000000" points="1234.5,-123.5 1234.5,-164.5 1335.5,-164.5 1335.5,-123.5 1234.5,-123.5"/>
<text text-anchor="start" x="1242.5" y="-152.5" font-family="Arial" font-size="10.00" fill="#000000">mir_toolkit/events</text>
<text text-anchor="start" x="1242.5" y="-141.5" font-family="Arial" font-size="10.00" fill="#000000">/input_device_state</text>
<text text-anchor="middle" x="1285" y="-130.5" font-family="Arial" font-size="10.00" fill="#000000">_event.h</text>
</a>
</g>
</g>
<!-- Node2&#45;&gt;Node23 -->
<g id="edge41" class="edge">
<title>Node2&#45;&gt;Node23</title>
<path fill="none" stroke="#191970" d="M929.1357,-211.7401C994.5377,-204.9265 1115.8024,-190.3316 1217,-165 1219.5808,-164.354 1222.2072,-163.6396 1224.8548,-162.8759"/>
<polygon fill="#191970" stroke="#191970" points="1225.9521,-166.2004 1234.4908,-159.9281 1223.9044,-159.5066 1225.9521,-166.2004"/>
</g>
<!-- Node5&#45;&gt;Node6 -->
<g id="edge6" class="edge">
<title>Node5&#45;&gt;Node6</title>
<path fill="none" stroke="#191970" d="M135.1937,-134.2223C148.7588,-122.3733 171.8227,-102.2272 188.1472,-87.9678"/>
<polygon fill="#191970" stroke="#191970" points="190.7547,-90.3374 195.9836,-81.1228 186.1497,-85.0654 190.7547,-90.3374"/>
</g>
<!-- Node7&#45;&gt;Node2 -->
<g id="edge9" class="edge">
<title>Node7&#45;&gt;Node2</title>
<path fill="none" stroke="#191970" d="M1409.5474,-159.0742C1402.2019,-161.3368 1394.4262,-163.4329 1387,-165 1227.3788,-198.6844 1034.0066,-210.6834 939.4654,-214.6707"/>
<polygon fill="#191970" stroke="#191970" points="939.1062,-211.1823 929.2568,-215.086 939.3908,-218.1765 939.1062,-211.1823"/>
</g>
<!-- Node7&#45;&gt;Node4 -->
<g id="edge12" class="edge">
<title>Node7&#45;&gt;Node4</title>
<path fill="none" stroke="#191970" d="M1466.7969,-128.722C1491.5937,-110.9039 1524.338,-80.7352 1505,-56 1486.6738,-32.559 1402.8264,-19.3537 1354.5387,-13.5695"/>
<polygon fill="#191970" stroke="#191970" points="1354.8586,-10.0833 1344.5236,-12.415 1354.057,-17.0372 1354.8586,-10.0833"/>
</g>
<!-- Node8 -->
<g id="node9" class="node">
<title>Node8</title>
<g id="a_node9"><a xlink:href="mir__input__device__types_8h.html" target="_top" xlink:title="mir_toolkit/mir_input\l_device_types.h">
<polygon fill="#ffffff" stroke="#000000" points="1268,-56.5 1268,-86.5 1372,-86.5 1372,-56.5 1268,-56.5"/>
<text text-anchor="start" x="1276" y="-74.5" font-family="Arial" font-size="10.00" fill="#000000">mir_toolkit/mir_input</text>
<text text-anchor="middle" x="1320" y="-63.5" font-family="Arial" font-size="10.00" fill="#000000">_device_types.h</text>
</a>
</g>
</g>
<!-- Node7&#45;&gt;Node8 -->
<g id="edge10" class="edge">
<title>Node7&#45;&gt;Node8</title>
<path fill="none" stroke="#191970" d="M1417.5143,-128.978C1399.2081,-118.1877 1374.3287,-103.523 1354.2824,-91.7071"/>
<polygon fill="#191970" stroke="#191970" points="1355.8451,-88.5655 1345.453,-86.5028 1352.2906,-94.5959 1355.8451,-88.5655"/>
</g>
<!-- Node9 -->
<g id="node10" class="node">
<title>Node9</title>
<polygon fill="#ffffff" stroke="#bfbfbf" points="1575,-.5 1575,-19.5 1631,-19.5 1631,-.5 1575,-.5"/>
<text text-anchor="middle" x="1603" y="-7.5" font-family="Arial" font-size="10.00" fill="#000000">stdbool.h</text>
</g>
<!-- Node7&#45;&gt;Node9 -->
<g id="edge13" class="edge">
<title>Node7&#45;&gt;Node9</title>
<path fill="none" stroke="#191970" d="M1465.0603,-128.9678C1480.9855,-117.8572 1502.799,-102.0992 1521,-87 1544.6372,-67.391 1570.1786,-42.8155 1586.3643,-26.7757"/>
<polygon fill="#191970" stroke="#191970" points="1588.9025,-29.1875 1593.5091,-19.6465 1583.9581,-24.2323 1588.9025,-29.1875"/>
</g>
<!-- Node10 -->
<g id="node11" class="node">
<title>Node10</title>
<g id="a_node11"><a xlink:href="touch__event_8h.html" target="_top" xlink:title="mir_toolkit/events\l/input/touch_event.h">
<polygon fill="#ffffff" stroke="#000000" points="1390.5,-56.5 1390.5,-86.5 1495.5,-86.5 1495.5,-56.5 1390.5,-56.5"/>
<text text-anchor="start" x="1398.5" y="-74.5" font-family="Arial" font-size="10.00" fill="#000000">mir_toolkit/events</text>
<text text-anchor="middle" x="1443" y="-63.5" font-family="Arial" font-size="10.00" fill="#000000">/input/touch_event.h</text>
</a>
</g>
</g>
<!-- Node7&#45;&gt;Node10 -->
<g id="edge14" class="edge">
<title>Node7&#45;&gt;Node10</title>
<path fill="none" stroke="#191970" d="M1443,-128.978C1443,-119.6459 1443,-107.4157 1443,-96.6368"/>
<polygon fill="#191970" stroke="#191970" points="1446.5001,-96.5028 1443,-86.5028 1439.5001,-96.5028 1446.5001,-96.5028"/>
</g>
<!-- Node11 -->
<g id="node12" class="node">
<title>Node11</title>
<g id="a_node12"><a xlink:href="keyboard__event_8h.html" target="_top" xlink:title="mir_toolkit/events\l/input/keyboard_event.h">
<polygon fill="#ffffff" stroke="#000000" points="1718.5,-56.5 1718.5,-86.5 1839.5,-86.5 1839.5,-56.5 1718.5,-56.5"/>
<text text-anchor="start" x="1726.5" y="-74.5" font-family="Arial" font-size="10.00" fill="#000000">mir_toolkit/events</text>
<text text-anchor="middle" x="1779" y="-63.5" font-family="Arial" font-size="10.00" fill="#000000">/input/keyboard_event.h</text>
</a>
</g>
</g>
<!-- Node7&#45;&gt;Node11 -->
<g id="edge15" class="edge">
<title>Node7&#45;&gt;Node11</title>
<path fill="none" stroke="#191970" d="M1483.0637,-128.9629C1489.6686,-126.7778 1496.4853,-124.6971 1503,-123 1589.8672,-100.3705 1616.0496,-104.7104 1708.2827,-87.0671"/>
<polygon fill="#191970" stroke="#191970" points="1709.1829,-90.4575 1718.3287,-85.1091 1707.8438,-83.5868 1709.1829,-90.4575"/>
</g>
<!-- Node13 -->
<g id="node14" class="node">
<title>Node13</title>
<g id="a_node14"><a xlink:href="pointer__event_8h.html" target="_top" xlink:title="mir_toolkit/events\l/input/pointer_event.h">
<polygon fill="#ffffff" stroke="#000000" points="1590,-56.5 1590,-86.5 1700,-86.5 1700,-56.5 1590,-56.5"/>
<text text-anchor="start" x="1598" y="-74.5" font-family="Arial" font-size="10.00" fill="#000000">mir_toolkit/events</text>
<text text-anchor="middle" x="1645" y="-63.5" font-family="Arial" font-size="10.00" fill="#000000">/input/pointer_event.h</text>
</a>
</g>
</g>
<!-- Node7&#45;&gt;Node13 -->
<g id="edge17" class="edge">
<title>Node7&#45;&gt;Node13</title>
<path fill="none" stroke="#191970" d="M1484.8545,-128.978C1516.408,-117.6531 1559.8528,-102.0603 1593.5318,-89.9725"/>
<polygon fill="#191970" stroke="#191970" points="1594.9693,-93.1752 1603.1991,-86.5028 1592.6046,-86.5867 1594.9693,-93.1752"/>
</g>
<!-- Node8&#45;&gt;Node4 -->
<g id="edge11" class="edge">
<title>Node8&#45;&gt;Node4</title>
<path fill="none" stroke="#191970" d="M1320,-56.2977C1320,-48.3834 1320,-38.6043 1320,-30.0759"/>
<polygon fill="#191970" stroke="#191970" points="1323.5001,-29.8469 1320,-19.8469 1316.5001,-29.847 1323.5001,-29.8469"/>
</g>
<!-- Node12 -->
<g id="node13" class="node">
<title>Node12</title>
<polygon fill="#ffffff" stroke="#bfbfbf" points="1756,-.5 1756,-19.5 1890,-19.5 1890,-.5 1756,-.5"/>
<text text-anchor="middle" x="1823" y="-7.5" font-family="Arial" font-size="10.00" fill="#000000">xkbcommon/xkbcommon.h</text>
</g>
<!-- Node11&#45;&gt;Node12 -->
<g id="edge16" class="edge">
<title>Node11&#45;&gt;Node12</title>
<path fill="none" stroke="#191970" d="M1789.8764,-56.2977C1795.9841,-47.7609 1803.6439,-37.0545 1810.0588,-28.0883"/>
<polygon fill="#191970" stroke="#191970" points="1812.9829,-30.0163 1815.955,-19.8469 1807.2899,-25.9433 1812.9829,-30.0163"/>
</g>
<!-- Node13&#45;&gt;Node9 -->
<g id="edge18" class="edge">
<title>Node13&#45;&gt;Node9</title>
<path fill="none" stroke="#191970" d="M1634.618,-56.2977C1628.8487,-47.8498 1621.6284,-37.2773 1615.5447,-28.369"/>
<polygon fill="#191970" stroke="#191970" points="1618.2547,-26.1311 1609.7247,-19.8469 1612.4741,-30.0788 1618.2547,-26.1311"/>
</g>
<!-- Node14&#45;&gt;Node2 -->
<g id="edge20" class="edge">
<title>Node14&#45;&gt;Node2</title>
<path fill="none" stroke="#191970" d="M701.0233,-158.6943C707.0901,-160.8753 713.1942,-163.0447 719,-165 754.4523,-176.9395 794.4651,-189.0028 826.0441,-198.4498"/>
<polygon fill="#191970" stroke="#191970" points="825.4006,-201.9104 835.9841,-201.4216 827.4058,-195.2038 825.4006,-201.9104"/>
</g>
<!-- Node15&#45;&gt;Node2 -->
<g id="edge22" class="edge">
<title>Node15&#45;&gt;Node2</title>
<path fill="none" stroke="#191970" d="M327.5325,-159.0856C334.3515,-161.3763 341.316,-163.4788 348,-165 437.9639,-185.4746 705.5984,-204.6193 824.3181,-212.5951"/>
<polygon fill="#191970" stroke="#191970" points="824.44,-216.111 834.6514,-213.2864 824.9074,-209.1266 824.44,-216.111"/>
</g>
<!-- Node15&#45;&gt;Node6 -->
<g id="edge23" class="edge">
<title>Node15&#45;&gt;Node6</title>
<path fill="none" stroke="#191970" d="M266.46,-128.978C254.2371,-117.1625 237.2083,-100.7013 224.5055,-88.422"/>
<polygon fill="#191970" stroke="#191970" points="226.8594,-85.8294 217.2369,-81.3957 221.9942,-90.8624 226.8594,-85.8294"/>
</g>
<!-- Node16&#45;&gt;Node2 -->
<g id="edge25" class="edge">
<title>Node16&#45;&gt;Node2</title>
<path fill="none" stroke="#191970" d="M795.5948,-159.0028C813.8569,-169.5941 836.9828,-183.9253 854.7864,-195.6302"/>
<polygon fill="#191970" stroke="#191970" points="853.2956,-198.8428 863.5575,-201.478 857.1787,-193.0185 853.2956,-198.8428"/>
</g>
<!-- Node17&#45;&gt;Node2 -->
<g id="edge27" class="edge">
<title>Node17&#45;&gt;Node2</title>
<path fill="none" stroke="#191970" d="M887.5903,-159.0028C888.7494,-168.3309 889.0396,-180.5601 888.461,-191.3409"/>
<polygon fill="#191970" stroke="#191970" points="884.959,-191.2157 887.5927,-201.478 891.9334,-191.8132 884.959,-191.2157"/>
</g>
<!-- Node18&#45;&gt;Node2 -->
<g id="edge29" class="edge">
<title>Node18&#45;&gt;Node2</title>
<path fill="none" stroke="#191970" d="M992.2749,-159.0028C973.7305,-169.9342 946.7394,-184.8495 924.0454,-196.7494"/>
<polygon fill="#191970" stroke="#191970" points="922.2037,-193.762 914.9432,-201.478 925.4307,-199.9738 922.2037,-193.762"/>
</g>
<!-- Node19&#45;&gt;Node2 -->
<g id="edge31" class="edge">
<title>Node19&#45;&gt;Node2</title>
<path fill="none" stroke="#191970" d="M1532.143,-159.0525C1525.6477,-161.3768 1518.6867,-163.4994 1512,-165 1404.2363,-189.1836 1073.3332,-207.5514 939.2201,-213.9965"/>
<polygon fill="#191970" stroke="#191970" points="938.9687,-210.5044 929.1464,-214.4759 939.3015,-217.4965 938.9687,-210.5044"/>
</g>
<!-- Node19&#45;&gt;Node12 -->
<g id="edge32" class="edge">
<title>Node19&#45;&gt;Node12</title>
<path fill="none" stroke="#191970" d="M1596.0066,-128.9039C1602.2755,-126.6996 1608.7717,-124.6283 1615,-123 1665.9011,-109.6928 1814.7428,-126.9305 1849,-87 1863.5516,-70.0385 1850.1437,-44.5895 1837.8037,-27.6487"/>
<polygon fill="#191970" stroke="#191970" points="1840.4971,-25.4105 1831.6017,-19.6553 1834.9666,-29.7016 1840.4971,-25.4105"/>
</g>
<!-- Node20&#45;&gt;Node2 -->
<g id="edge34" class="edge">
<title>Node20&#45;&gt;Node2</title>
<path fill="none" stroke="#191970" d="M448.527,-159.8586C454.7238,-161.8051 460.9807,-163.5984 467,-165 592.7928,-194.2907 743.6916,-207.5641 824.4648,-213.0567"/>
<polygon fill="#191970" stroke="#191970" points="824.7018,-216.5801 834.9117,-213.7502 825.1655,-209.5954 824.7018,-216.5801"/>
</g>
<!-- Node20&#45;&gt;Node6 -->
<g id="edge35" class="edge">
<title>Node20&#45;&gt;Node6</title>
<path fill="none" stroke="#191970" d="M347.317,-124.7617C313.9546,-112.098 271.1551,-95.8521 241.6443,-84.6503"/>
<polygon fill="#191970" stroke="#191970" points="242.7698,-81.3339 232.1786,-81.0573 240.2857,-87.8783 242.7698,-81.3339"/>
</g>
<!-- Node21&#45;&gt;Node2 -->
<g id="edge37" class="edge">
<title>Node21&#45;&gt;Node2</title>
<path fill="none" stroke="#191970" d="M584.5173,-159.0658C592.0785,-161.1972 599.7206,-163.2539 607,-165 681.7719,-182.9356 768.9449,-197.8732 824.8491,-206.9628"/>
<polygon fill="#191970" stroke="#191970" points="824.483,-210.449 834.9137,-208.5913 825.6012,-203.5388 824.483,-210.449"/>
</g>
<!-- Node21&#45;&gt;Node6 -->
<g id="edge38" class="edge">
<title>Node21&#45;&gt;Node6</title>
<path fill="none" stroke="#191970" d="M479.9573,-128.9732C472.6313,-126.8602 465.1358,-124.7986 458,-123 394.7128,-107.048 321.5228,-92.4648 270.5687,-82.9211"/>
<polygon fill="#191970" stroke="#191970" points="271.1556,-79.4703 260.6839,-81.0807 269.8743,-86.3521 271.1556,-79.4703"/>
</g>
<!-- Node22&#45;&gt;Node2 -->
<g id="edge40" class="edge">
<title>Node22&#45;&gt;Node2</title>
<path fill="none" stroke="#191970" d="M1115.656,-159.074C1108.794,-161.1144 1101.7267,-163.1429 1095,-165 1042.571,-179.4746 982.1166,-194.5341 938.939,-204.6011"/>
<polygon fill="#191970" stroke="#191970" points="938.1292,-201.196 929.1755,-206.8601 939.7071,-208.0158 938.1292,-201.196"/>
</g>
<!-- Node23&#45;&gt;Node2 -->
<g id="edge42" class="edge">
<title>Node23&#45;&gt;Node2</title>
<path fill="none" stroke="#191970" d="M1236.9061,-164.5127C1236.2684,-164.6791 1235.6328,-164.8416 1235,-165 1132.6834,-190.6117 1009.8535,-205.248 939.2702,-211.9633"/>
<polygon fill="#191970" stroke="#191970" points="938.8764,-208.4847 929.244,-212.8969 939.5255,-215.4545 938.8764,-208.4847"/>
</g>
</g>
</svg>
