<?xml version="1.0" encoding="UTF-8" standalone="no"?>
<!DOCTYPE svg PUBLIC "-//W3C//DTD SVG 1.1//EN"
 "http://www.w3.org/Graphics/SVG/1.1/DTD/svg11.dtd">
<!-- Generated by graphviz version 2.38.0 (20140413.2041)
 -->
<!-- Title: include/common/mir/input/mir_keyboard_config.h Pages: 1 -->
<svg width="499pt" height="173pt"
 viewBox="0.00 0.00 499.00 173.00" xmlns="http://www.w3.org/2000/svg" xmlns:xlink="http://www.w3.org/1999/xlink">
<g id="graph0" class="graph" transform="scale(1 1) rotate(0) translate(4 169)">
<title>include/common/mir/input/mir_keyboard_config.h</title>
<polygon fill="white" stroke="none" points="-4,4 -4,-169 495,-169 495,4 -4,4"/>
<!-- Node0 -->
<g id="node1" class="node"><title>Node0</title>
<polygon fill="#bfbfbf" stroke="black" points="257,-123.5 257,-164.5 361,-164.5 361,-123.5 257,-123.5"/>
<text text-anchor="start" x="265" y="-152.5" font-family="Arial" font-size="10.00">include/common/mir</text>
<text text-anchor="start" x="265" y="-141.5" font-family="Arial" font-size="10.00">/input/mir_keyboard</text>
<text text-anchor="middle" x="309" y="-130.5" font-family="Arial" font-size="10.00">_config.h</text>
</g>
<!-- Node1 -->
<g id="node2" class="node"><title>Node1</title>
<g id="a_node2"><a xlink:href="common_8h.html" target="_top" xlink:title="mir_toolkit/common.h">
<polygon fill="white" stroke="black" points="9,-62 9,-81 119,-81 119,-62 9,-62"/>
<text text-anchor="middle" x="64" y="-69" font-family="Arial" font-size="10.00">mir_toolkit/common.h</text>
</a>
</g>
</g>
<!-- Node0&#45;&gt;Node1 -->
<g id="edge1" class="edge"><title>Node0&#45;&gt;Node1</title>
<path fill="none" stroke="midnightblue" d="M256.742,-127.962C210.912,-114.775 145.27,-95.886 103.647,-83.9088"/>
<polygon fill="midnightblue" stroke="midnightblue" points="104.444,-80.496 93.8662,-81.0941 102.508,-87.2231 104.444,-80.496"/>
</g>
<!-- Node3 -->
<g id="node4" class="node"><title>Node3</title>
<g id="a_node4"><a xlink:href="mir__input__device__types_8h.html" target="_top" xlink:title="mir_toolkit/mir_input\l_device_types.h">
<polygon fill="white" stroke="black" points="137,-56.5 137,-86.5 241,-86.5 241,-56.5 137,-56.5"/>
<text text-anchor="start" x="145" y="-74.5" font-family="Arial" font-size="10.00">mir_toolkit/mir_input</text>
<text text-anchor="middle" x="189" y="-63.5" font-family="Arial" font-size="10.00">_device_types.h</text>
</a>
</g>
</g>
<!-- Node0&#45;&gt;Node3 -->
<g id="edge3" class="edge"><title>Node0&#45;&gt;Node3</title>
<path fill="none" stroke="midnightblue" d="M275.573,-123.362C258.838,-113.53 238.647,-101.668 221.975,-91.8729"/>
<polygon fill="midnightblue" stroke="midnightblue" points="223.514,-88.7178 213.119,-86.67 219.968,-94.7533 223.514,-88.7178"/>
</g>
<!-- Node5 -->
<g id="node6" class="node"><title>Node5</title>
<g id="a_node6"><a xlink:href="common_2mir_2input_2keymap_8h.html" target="_top" xlink:title="mir/input/keymap.h">
<polygon fill="white" stroke="black" points="259,-62 259,-81 359,-81 359,-62 259,-62"/>
<text text-anchor="middle" x="309" y="-69" font-family="Arial" font-size="10.00">mir/input/keymap.h</text>
</a>
</g>
</g>
<!-- Node0&#45;&gt;Node5 -->
<g id="edge5" class="edge"><title>Node0&#45;&gt;Node5</title>
<path fill="none" stroke="midnightblue" d="M309,-123.362C309,-113.297 309,-101.104 309,-91.18"/>
<polygon fill="midnightblue" stroke="midnightblue" points="312.5,-91.1733 309,-81.1734 305.5,-91.1734 312.5,-91.1733"/>
</g>
<!-- Node8 -->
<g id="node9" class="node"><title>Node8</title>
<polygon fill="white" stroke="#bfbfbf" points="377,-62 377,-81 421,-81 421,-62 377,-62"/>
<text text-anchor="middle" x="399" y="-69" font-family="Arial" font-size="10.00">iosfwd</text>
</g>
<!-- Node0&#45;&gt;Node8 -->
<g id="edge8" class="edge"><title>Node0&#45;&gt;Node8</title>
<path fill="none" stroke="midnightblue" d="M334.07,-123.362C348.577,-111.998 366.546,-97.9224 379.901,-87.4611"/>
<polygon fill="midnightblue" stroke="midnightblue" points="382.214,-90.0953 387.928,-81.1734 377.897,-84.5847 382.214,-90.0953"/>
</g>
<!-- Node9 -->
<g id="node10" class="node"><title>Node9</title>
<polygon fill="white" stroke="#bfbfbf" points="439,-62 439,-81 491,-81 491,-62 439,-62"/>
<text text-anchor="middle" x="465" y="-69" font-family="Arial" font-size="10.00">memory</text>
</g>
<!-- Node0&#45;&gt;Node9 -->
<g id="edge9" class="edge"><title>Node0&#45;&gt;Node9</title>
<path fill="none" stroke="midnightblue" d="M352.455,-123.362C379.276,-111.241 412.926,-96.0335 436.413,-85.4189"/>
<polygon fill="midnightblue" stroke="midnightblue" points="438.137,-88.4811 445.808,-81.1734 435.254,-82.1022 438.137,-88.4811"/>
</g>
<!-- Node2 -->
<g id="node3" class="node"><title>Node2</title>
<g id="a_node3"><a xlink:href="deprecations_8h.html" target="_top" xlink:title="mir_toolkit/deprecations.h">
<polygon fill="white" stroke="black" points="0,-0.5 0,-19.5 128,-19.5 128,-0.5 0,-0.5"/>
<text text-anchor="middle" x="64" y="-7.5" font-family="Arial" font-size="10.00">mir_toolkit/deprecations.h</text>
</a>
</g>
</g>
<!-- Node1&#45;&gt;Node2 -->
<g id="edge2" class="edge"><title>Node1&#45;&gt;Node2</title>
<path fill="none" stroke="midnightblue" d="M64,-61.9751C64,-53.5803 64,-40.4806 64,-29.6631"/>
<polygon fill="midnightblue" stroke="midnightblue" points="67.5001,-29.5091 64,-19.5091 60.5001,-29.5091 67.5001,-29.5091"/>
</g>
<!-- Node4 -->
<g id="node5" class="node"><title>Node4</title>
<polygon fill="white" stroke="#bfbfbf" points="164.5,-0.5 164.5,-19.5 213.5,-19.5 213.5,-0.5 164.5,-0.5"/>
<text text-anchor="middle" x="189" y="-7.5" font-family="Arial" font-size="10.00">stdint.h</text>
</g>
<!-- Node3&#45;&gt;Node4 -->
<g id="edge4" class="edge"><title>Node3&#45;&gt;Node4</title>
<path fill="none" stroke="midnightblue" d="M189,-56.3993C189,-48.4664 189,-38.458 189,-29.8583"/>
<polygon fill="midnightblue" stroke="midnightblue" points="192.5,-29.6577 189,-19.6578 185.5,-29.6578 192.5,-29.6577"/>
</g>
<!-- Node6 -->
<g id="node7" class="node"><title>Node6</title>
<polygon fill="white" stroke="#bfbfbf" points="259.5,-0.5 259.5,-19.5 300.5,-19.5 300.5,-0.5 259.5,-0.5"/>
<text text-anchor="middle" x="280" y="-7.5" font-family="Arial" font-size="10.00">string</text>
</g>
<!-- Node5&#45;&gt;Node6 -->
<g id="edge6" class="edge"><title>Node5&#45;&gt;Node6</title>
<path fill="none" stroke="midnightblue" d="M304.845,-61.9751C300.624,-53.3152 293.963,-39.6486 288.6,-28.6453"/>
<polygon fill="midnightblue" stroke="midnightblue" points="291.675,-26.9648 284.147,-19.5091 285.382,-30.0317 291.675,-26.9648"/>
</g>
<!-- Node7 -->
<g id="node8" class="node"><title>Node7</title>
<polygon fill="white" stroke="#bfbfbf" points="319,-0.5 319,-19.5 371,-19.5 371,-0.5 319,-0.5"/>
<text text-anchor="middle" x="345" y="-7.5" font-family="Arial" font-size="10.00">ostream</text>
</g>
<!-- Node5&#45;&gt;Node7 -->
<g id="edge7" class="edge"><title>Node5&#45;&gt;Node7</title>
<path fill="none" stroke="midnightblue" d="M314.158,-61.9751C319.451,-53.2268 327.835,-39.3691 334.527,-28.3093"/>
<polygon fill="midnightblue" stroke="midnightblue" points="337.67,-29.8768 339.852,-19.5091 331.68,-26.2531 337.67,-29.8768"/>
</g>
</g>
</svg>
