<?xml version="1.0" encoding="UTF-8" standalone="no"?>
<!DOCTYPE svg PUBLIC "-//W3C//DTD SVG 1.1//EN"
 "http://www.w3.org/Graphics/SVG/1.1/DTD/svg11.dtd">
<!-- Generated by graphviz version 2.38.0 (20140413.2041)
 -->
<!-- Title: include/client/mir_toolkit/mir_display_configuration.h Pages: 1 -->
<svg width="1599pt" height="284pt"
 viewBox="0.00 0.00 1598.50 284.00" xmlns="http://www.w3.org/2000/svg" xmlns:xlink="http://www.w3.org/1999/xlink">
<g id="graph0" class="graph" transform="scale(1 1) rotate(0) translate(4 280)">
<title>include/client/mir_toolkit/mir_display_configuration.h</title>
<polygon fill="white" stroke="none" points="-4,4 -4,-280 1594.5,-280 1594.5,4 -4,4"/>
<!-- Node24 -->
<g id="node1" class="node"><title>Node24</title>
<polygon fill="#bfbfbf" stroke="black" points="560,-234.5 560,-275.5 661,-275.5 661,-234.5 560,-234.5"/>
<text text-anchor="start" x="568" y="-263.5" font-family="Arial" font-size="10.00">include/client/mir</text>
<text text-anchor="start" x="568" y="-252.5" font-family="Arial" font-size="10.00">_toolkit/mir_display</text>
<text text-anchor="middle" x="610.5" y="-241.5" font-family="Arial" font-size="10.00">_configuration.h</text>
</g>
<!-- Node25 -->
<g id="node2" class="node"><title>Node25</title>
<g id="a_node2"><a xlink:href="display__config_8h.html" target="_top" xlink:title="include/client/mir\l/client/display_config.h">
<polygon fill="white" stroke="black" points="196.5,-162 196.5,-192 312.5,-192 312.5,-162 196.5,-162"/>
<text text-anchor="start" x="204.5" y="-180" font-family="Arial" font-size="10.00">include/client/mir</text>
<text text-anchor="middle" x="254.5" y="-169" font-family="Arial" font-size="10.00">/client/display_config.h</text>
</a>
</g>
</g>
<!-- Node24&#45;&gt;Node25 -->
<g id="edge1" class="edge"><title>Node24&#45;&gt;Node25</title>
<path fill="none" stroke="midnightblue" d="M549.979,-241.08C483.651,-226.92 378.002,-204.366 312.636,-190.411"/>
<polygon fill="midnightblue" stroke="midnightblue" points="549.362,-244.527 559.872,-243.192 550.823,-237.681 549.362,-244.527"/>
</g>
<!-- Node29 -->
<g id="node6" class="node"><title>Node29</title>
<g id="a_node6"><a xlink:href="mir__client__library_8h.html" target="_top" xlink:title="include/client/mir\l_toolkit/mir_client\l_library.h">
<polygon fill="white" stroke="black" points="854,-156.5 854,-197.5 947,-197.5 947,-156.5 854,-156.5"/>
<text text-anchor="start" x="862" y="-185.5" font-family="Arial" font-size="10.00">include/client/mir</text>
<text text-anchor="start" x="862" y="-174.5" font-family="Arial" font-size="10.00">_toolkit/mir_client</text>
<text text-anchor="middle" x="900.5" y="-163.5" font-family="Arial" font-size="10.00">_library.h</text>
</a>
</g>
</g>
<!-- Node24&#45;&gt;Node29 -->
<g id="edge5" class="edge"><title>Node24&#45;&gt;Node29</title>
<path fill="none" stroke="midnightblue" d="M670.881,-238.176C725.313,-223.911 804.22,-203.232 853.917,-190.208"/>
<polygon fill="midnightblue" stroke="midnightblue" points="669.8,-234.841 661.014,-240.762 671.575,-241.612 669.8,-234.841"/>
</g>
<!-- Node26 -->
<g id="node3" class="node"><title>Node26</title>
<g id="a_node3"><a xlink:href="sw__splash_8cpp.html" target="_top" xlink:title="examples/miral&#45;kiosk\l/sw_splash.cpp">
<polygon fill="white" stroke="black" points="0,-84 0,-114 109,-114 109,-84 0,-84"/>
<text text-anchor="start" x="8" y="-102" font-family="Arial" font-size="10.00">examples/miral&#45;kiosk</text>
<text text-anchor="middle" x="54.5" y="-91" font-family="Arial" font-size="10.00">/sw_splash.cpp</text>
</a>
</g>
</g>
<!-- Node25&#45;&gt;Node26 -->
<g id="edge2" class="edge"><title>Node25&#45;&gt;Node26</title>
<path fill="none" stroke="midnightblue" d="M207.709,-158.219C172.26,-144.749 124.225,-126.496 91.4508,-114.041"/>
<polygon fill="midnightblue" stroke="midnightblue" points="206.759,-161.603 217.35,-161.883 209.246,-155.059 206.759,-161.603"/>
</g>
<!-- Node27 -->
<g id="node4" class="node"><title>Node27</title>
<g id="a_node4"><a xlink:href="decoration__provider_8cpp.html" target="_top" xlink:title="examples/miral&#45;shell\l/decoration_provider.cpp">
<polygon fill="white" stroke="black" points="127.5,-84 127.5,-114 249.5,-114 249.5,-84 127.5,-84"/>
<text text-anchor="start" x="135.5" y="-102" font-family="Arial" font-size="10.00">examples/miral&#45;shell</text>
<text text-anchor="middle" x="188.5" y="-91" font-family="Arial" font-size="10.00">/decoration_provider.cpp</text>
</a>
</g>
</g>
<!-- Node25&#45;&gt;Node27 -->
<g id="edge3" class="edge"><title>Node25&#45;&gt;Node27</title>
<path fill="none" stroke="midnightblue" d="M235.227,-153.807C224.134,-141.033 210.523,-125.36 200.858,-114.231"/>
<polygon fill="midnightblue" stroke="midnightblue" points="232.886,-156.45 242.086,-161.705 238.172,-151.86 232.886,-156.45"/>
</g>
<!-- Node28 -->
<g id="node5" class="node"><title>Node28</title>
<g id="a_node5"><a xlink:href="eglapp_8cpp.html" target="_top" xlink:title="examples/miral&#45;shell\l/spinner/eglapp.cpp">
<polygon fill="white" stroke="black" points="267.5,-84 267.5,-114 373.5,-114 373.5,-84 267.5,-84"/>
<text text-anchor="start" x="275.5" y="-102" font-family="Arial" font-size="10.00">examples/miral&#45;shell</text>
<text text-anchor="middle" x="320.5" y="-91" font-family="Arial" font-size="10.00">/spinner/eglapp.cpp</text>
</a>
</g>
</g>
<!-- Node25&#45;&gt;Node28 -->
<g id="edge4" class="edge"><title>Node25&#45;&gt;Node28</title>
<path fill="none" stroke="midnightblue" d="M273.773,-153.807C284.866,-141.033 298.477,-125.36 308.142,-114.231"/>
<polygon fill="midnightblue" stroke="midnightblue" points="270.828,-151.86 266.914,-161.705 276.114,-156.45 270.828,-151.86"/>
</g>
<!-- Node30 -->
<g id="node7" class="node"><title>Node30</title>
<g id="a_node7"><a xlink:href="eglspinner_8cpp.html" target="_top" xlink:title="examples/miral&#45;shell\l/spinner/eglspinner.cpp">
<polygon fill="white" stroke="black" points="392,-84 392,-114 509,-114 509,-84 392,-84"/>
<text text-anchor="start" x="400" y="-102" font-family="Arial" font-size="10.00">examples/miral&#45;shell</text>
<text text-anchor="middle" x="450.5" y="-91" font-family="Arial" font-size="10.00">/spinner/eglspinner.cpp</text>
</a>
</g>
</g>
<!-- Node29&#45;&gt;Node30 -->
<g id="edge6" class="edge"><title>Node29&#45;&gt;Node30</title>
<path fill="none" stroke="midnightblue" d="M843.793,-170.208C768.799,-161.975 632.778,-145.052 518.5,-120 510.807,-118.314 502.711,-116.22 494.893,-114.029"/>
<polygon fill="midnightblue" stroke="midnightblue" points="843.642,-173.712 853.961,-171.312 844.397,-166.753 843.642,-173.712"/>
</g>
<!-- Node31 -->
<g id="node8" class="node"><title>Node31</title>
<g id="a_node8"><a xlink:href="miregl_8cpp.html" target="_top" xlink:title="examples/miral&#45;shell\l/spinner/miregl.cpp">
<polygon fill="white" stroke="black" points="527.5,-84 527.5,-114 633.5,-114 633.5,-84 527.5,-84"/>
<text text-anchor="start" x="535.5" y="-102" font-family="Arial" font-size="10.00">examples/miral&#45;shell</text>
<text text-anchor="middle" x="580.5" y="-91" font-family="Arial" font-size="10.00">/spinner/miregl.cpp</text>
</a>
</g>
</g>
<!-- Node29&#45;&gt;Node31 -->
<g id="edge7" class="edge"><title>Node29&#45;&gt;Node31</title>
<path fill="none" stroke="midnightblue" d="M843.428,-165.287C790.89,-155.03 710.965,-138.425 642.5,-120 635.838,-118.207 628.83,-116.133 622.021,-114.014"/>
<polygon fill="midnightblue" stroke="midnightblue" points="843.075,-168.784 853.559,-167.253 844.409,-161.912 843.075,-168.784"/>
</g>
<!-- Node32 -->
<g id="node9" class="node"><title>Node32</title>
<g id="a_node9"><a xlink:href="toolkit_2debug_2surface_8h.html" target="_top" xlink:title="include/client/mir\l_toolkit/debug/surface.h">
<polygon fill="white" stroke="black" points="651.5,-84 651.5,-114 771.5,-114 771.5,-84 651.5,-84"/>
<text text-anchor="start" x="659.5" y="-102" font-family="Arial" font-size="10.00">include/client/mir</text>
<text text-anchor="middle" x="711.5" y="-91" font-family="Arial" font-size="10.00">_toolkit/debug/surface.h</text>
</a>
</g>
</g>
<!-- Node29&#45;&gt;Node32 -->
<g id="edge8" class="edge"><title>Node29&#45;&gt;Node32</title>
<path fill="none" stroke="midnightblue" d="M844.173,-153.35C812.434,-140.587 773.789,-125.047 746.413,-114.039"/>
<polygon fill="midnightblue" stroke="midnightblue" points="843.197,-156.73 853.781,-157.213 845.809,-150.235 843.197,-156.73"/>
</g>
<!-- Node33 -->
<g id="node10" class="node"><title>Node33</title>
<g id="a_node10"><a xlink:href="mir__prompt__session_8h.html" target="_top" xlink:title="include/client/mir\l_toolkit/mir_prompt\l_session.h">
<polygon fill="white" stroke="black" points="789.5,-78.5 789.5,-119.5 889.5,-119.5 889.5,-78.5 789.5,-78.5"/>
<text text-anchor="start" x="797.5" y="-107.5" font-family="Arial" font-size="10.00">include/client/mir</text>
<text text-anchor="start" x="797.5" y="-96.5" font-family="Arial" font-size="10.00">_toolkit/mir_prompt</text>
<text text-anchor="middle" x="839.5" y="-85.5" font-family="Arial" font-size="10.00">_session.h</text>
</a>
</g>
</g>
<!-- Node29&#45;&gt;Node33 -->
<g id="edge9" class="edge"><title>Node29&#45;&gt;Node33</title>
<path fill="none" stroke="midnightblue" d="M878.53,-148.627C870.795,-138.99 862.264,-128.362 855.156,-119.506"/>
<polygon fill="midnightblue" stroke="midnightblue" points="875.802,-150.82 884.791,-156.428 881.261,-146.439 875.802,-150.82"/>
</g>
<!-- Node34 -->
<g id="node11" class="node"><title>Node34</title>
<g id="a_node11"><a xlink:href="mock__client__context_8h.html" target="_top" xlink:title="include/test/mir/test\l/doubles/mock_client\l_context.h">
<polygon fill="white" stroke="black" points="908,-78.5 908,-119.5 1017,-119.5 1017,-78.5 908,-78.5"/>
<text text-anchor="start" x="916" y="-107.5" font-family="Arial" font-size="10.00">include/test/mir/test</text>
<text text-anchor="start" x="916" y="-96.5" font-family="Arial" font-size="10.00">/doubles/mock_client</text>
<text text-anchor="middle" x="962.5" y="-85.5" font-family="Arial" font-size="10.00">_context.h</text>
</a>
</g>
</g>
<!-- Node29&#45;&gt;Node34 -->
<g id="edge10" class="edge"><title>Node29&#45;&gt;Node34</title>
<path fill="none" stroke="midnightblue" d="M922.831,-148.627C930.692,-138.99 939.363,-128.362 946.588,-119.506"/>
<polygon fill="midnightblue" stroke="midnightblue" points="920.076,-146.467 916.467,-156.428 925.5,-150.892 920.076,-146.467"/>
</g>
<!-- Node35 -->
<g id="node12" class="node"><title>Node35</title>
<g id="a_node12"><a xlink:href="validity__matchers_8h.html" target="_top" xlink:title="include/test/mir/test\l/validity_matchers.h">
<polygon fill="white" stroke="black" points="1035,-84 1035,-114 1138,-114 1138,-84 1035,-84"/>
<text text-anchor="start" x="1043" y="-102" font-family="Arial" font-size="10.00">include/test/mir/test</text>
<text text-anchor="middle" x="1086.5" y="-91" font-family="Arial" font-size="10.00">/validity_matchers.h</text>
</a>
</g>
</g>
<!-- Node29&#45;&gt;Node35 -->
<g id="edge11" class="edge"><title>Node29&#45;&gt;Node35</title>
<path fill="none" stroke="midnightblue" d="M956.854,-152.974C987.937,-140.273 1025.52,-124.916 1052.2,-114.014"/>
<polygon fill="midnightblue" stroke="midnightblue" points="955.369,-149.8 947.436,-156.822 958.017,-156.279 955.369,-149.8"/>
</g>
<!-- Node36 -->
<g id="node13" class="node"><title>Node36</title>
<g id="a_node13"><a xlink:href="any__surface_8h.html" target="_top" xlink:title="include/test/mir_test\l_framework/any_surface.h">
<polygon fill="white" stroke="black" points="1156.5,-84 1156.5,-114 1286.5,-114 1286.5,-84 1156.5,-84"/>
<text text-anchor="start" x="1164.5" y="-102" font-family="Arial" font-size="10.00">include/test/mir_test</text>
<text text-anchor="middle" x="1221.5" y="-91" font-family="Arial" font-size="10.00">_framework/any_surface.h</text>
</a>
</g>
</g>
<!-- Node29&#45;&gt;Node36 -->
<g id="edge12" class="edge"><title>Node29&#45;&gt;Node36</title>
<path fill="none" stroke="midnightblue" d="M957.069,-163.866C1007.23,-152.941 1082.43,-136.164 1147.5,-120 1154.99,-118.139 1162.89,-116.095 1170.62,-114.046"/>
<polygon fill="midnightblue" stroke="midnightblue" points="956.098,-160.495 947.069,-166.039 957.584,-167.336 956.098,-160.495"/>
</g>
<!-- Node37 -->
<g id="node14" class="node"><title>Node37</title>
<g id="a_node14"><a xlink:href="connected__client__headless__server_8h.html" target="_top" xlink:title="include/test/mir_test\l_framework/connected\l_client_headless_server.h">
<polygon fill="white" stroke="black" points="1304.5,-78.5 1304.5,-119.5 1432.5,-119.5 1432.5,-78.5 1304.5,-78.5"/>
<text text-anchor="start" x="1312.5" y="-107.5" font-family="Arial" font-size="10.00">include/test/mir_test</text>
<text text-anchor="start" x="1312.5" y="-96.5" font-family="Arial" font-size="10.00">_framework/connected</text>
<text text-anchor="middle" x="1368.5" y="-85.5" font-family="Arial" font-size="10.00">_client_headless_server.h</text>
</a>
</g>
</g>
<!-- Node29&#45;&gt;Node37 -->
<g id="edge13" class="edge"><title>Node29&#45;&gt;Node37</title>
<path fill="none" stroke="midnightblue" d="M957.019,-170.264C1034.04,-161.931 1176.07,-144.723 1295.5,-120 1298.33,-119.414 1301.21,-118.781 1304.12,-118.113"/>
<polygon fill="midnightblue" stroke="midnightblue" points="956.615,-166.788 947.045,-171.333 957.361,-173.748 956.615,-166.788"/>
</g>
<!-- Node39 -->
<g id="node16" class="node"><title>Node39</title>
<g id="a_node16"><a xlink:href="visible__surface_8h.html" target="_top" xlink:title="include/test/mir_test\l_framework/visible_surface.h">
<polygon fill="white" stroke="black" points="1450.5,-84 1450.5,-114 1590.5,-114 1590.5,-84 1450.5,-84"/>
<text text-anchor="start" x="1458.5" y="-102" font-family="Arial" font-size="10.00">include/test/mir_test</text>
<text text-anchor="middle" x="1520.5" y="-91" font-family="Arial" font-size="10.00">_framework/visible_surface.h</text>
</a>
</g>
</g>
<!-- Node29&#45;&gt;Node39 -->
<g id="edge15" class="edge"><title>Node29&#45;&gt;Node39</title>
<path fill="none" stroke="midnightblue" d="M957.208,-172.841C1056.13,-166.728 1266.4,-151.059 1441.5,-120 1450.69,-118.369 1460.4,-116.25 1469.74,-114.002"/>
<polygon fill="midnightblue" stroke="midnightblue" points="956.899,-169.353 947.131,-173.454 957.325,-176.34 956.899,-169.353"/>
</g>
<!-- Node38 -->
<g id="node15" class="node"><title>Node38</title>
<g id="a_node15"><a xlink:href="connected__client__with__a__window_8h.html" target="_top" xlink:title="include/test/mir_test\l_framework/connected\l_client_with_a_window.h">
<polygon fill="white" stroke="black" points="1307,-0.5 1307,-41.5 1430,-41.5 1430,-0.5 1307,-0.5"/>
<text text-anchor="start" x="1315" y="-29.5" font-family="Arial" font-size="10.00">include/test/mir_test</text>
<text text-anchor="start" x="1315" y="-18.5" font-family="Arial" font-size="10.00">_framework/connected</text>
<text text-anchor="middle" x="1368.5" y="-7.5" font-family="Arial" font-size="10.00">_client_with_a_window.h</text>
</a>
</g>
</g>
<!-- Node37&#45;&gt;Node38 -->
<g id="edge14" class="edge"><title>Node37&#45;&gt;Node38</title>
<path fill="none" stroke="midnightblue" d="M1368.5,-68.2965C1368.5,-59.3009 1368.5,-49.6532 1368.5,-41.5056"/>
<polygon fill="midnightblue" stroke="midnightblue" points="1365,-68.4281 1368.5,-78.4281 1372,-68.4281 1365,-68.4281"/>
</g>
</g>
</svg>
