<?xml version="1.0" encoding="UTF-8" standalone="no"?>
<!DOCTYPE svg PUBLIC "-//W3C//DTD SVG 1.1//EN"
 "http://www.w3.org/Graphics/SVG/1.1/DTD/svg11.dtd">
<!-- Generated by graphviz version 2.40.1 (20161225.0304)
 -->
<!-- Title: include/client/mir_toolkit/mir_window_id.h Pages: 1 -->
<svg width="285pt" height="195pt"
 viewBox="0.00 0.00 285.00 195.00" xmlns="http://www.w3.org/2000/svg" xmlns:xlink="http://www.w3.org/1999/xlink">
<g id="graph0" class="graph" transform="scale(1 1) rotate(0) translate(4 191)">
<title>include/client/mir_toolkit/mir_window_id.h</title>
<polygon fill="#ffffff" stroke="transparent" points="-4,4 -4,-191 281,-191 281,4 -4,4"/>
<!-- Node24 -->
<g id="node1" class="node">
<title>Node24</title>
<polygon fill="#bfbfbf" stroke="#000000" points="45,-156.5 45,-186.5 167,-186.5 167,-156.5 45,-156.5"/>
<text text-anchor="start" x="53" y="-174.5" font-family="Arial" font-size="10.00" fill="#000000">include/client/mir</text>
<text text-anchor="middle" x="106" y="-163.5" font-family="Arial" font-size="10.00" fill="#000000">_toolkit/mir_window_id.h</text>
</g>
<!-- Node25 -->
<g id="node2" class="node">
<title>Node25</title>
<g id="a_node2"><a xlink:href="window__id_8h.html" target="_top" xlink:title="include/client/mir\l/client/window_id.h">
<polygon fill="#ffffff" stroke="#000000" points="0,-84 0,-114 98,-114 98,-84 0,-84"/>
<text text-anchor="start" x="8" y="-102" font-family="Arial" font-size="10.00" fill="#000000">include/client/mir</text>
<text text-anchor="middle" x="49" y="-91" font-family="Arial" font-size="10.00" fill="#000000">/client/window_id.h</text>
</a>
</g>
</g>
<!-- Node24&#45;&gt;Node25 -->
<g id="edge1" class="edge">
<title>Node24&#45;&gt;Node25</title>
<path fill="none" stroke="#191970" d="M87.7948,-148.3443C78.9545,-137.1 68.5875,-123.9139 60.7953,-114.0028"/>
<polygon fill="#191970" stroke="#191970" points="85.2575,-150.7799 94.1896,-156.478 90.7604,-146.4534 85.2575,-150.7799"/>
</g>
<!-- Node26 -->
<g id="node3" class="node">
<title>Node26</title>
<g id="a_node3"><a xlink:href="mir__client__library_8h.html" target="_top" xlink:title="include/client/mir\l_toolkit/mir_client\l_library.h">
<polygon fill="#ffffff" stroke="#000000" points="116.5,-78.5 116.5,-119.5 209.5,-119.5 209.5,-78.5 116.5,-78.5"/>
<text text-anchor="start" x="124.5" y="-107.5" font-family="Arial" font-size="10.00" fill="#000000">include/client/mir</text>
<text text-anchor="start" x="124.5" y="-96.5" font-family="Arial" font-size="10.00" fill="#000000">_toolkit/mir_client</text>
<text text-anchor="middle" x="163" y="-85.5" font-family="Arial" font-size="10.00" fill="#000000">_library.h</text>
</a>
</g>
</g>
<!-- Node24&#45;&gt;Node26 -->
<g id="edge2" class="edge">
<title>Node24&#45;&gt;Node26</title>
<path fill="none" stroke="#191970" d="M124.1532,-148.4104C131.4528,-139.1259 139.8001,-128.5086 146.8816,-119.5015"/>
<polygon fill="#191970" stroke="#191970" points="121.2396,-146.4534 117.8104,-156.478 126.7425,-150.7799 121.2396,-146.4534"/>
</g>
<!-- Node27 -->
<g id="node4" class="node">
<title>Node27</title>
<g id="a_node4"><a xlink:href="toolkit_2debug_2surface_8h.html" target="_top" xlink:title="include/client/mir\l_toolkit/debug/surface.h">
<polygon fill="#ffffff" stroke="#000000" points="37.5,-6 37.5,-36 158.5,-36 158.5,-6 37.5,-6"/>
<text text-anchor="start" x="45.5" y="-24" font-family="Arial" font-size="10.00" fill="#000000">include/client/mir</text>
<text text-anchor="middle" x="98" y="-13" font-family="Arial" font-size="10.00" fill="#000000">_toolkit/debug/surface.h</text>
</a>
</g>
</g>
<!-- Node26&#45;&gt;Node27 -->
<g id="edge3" class="edge">
<title>Node26&#45;&gt;Node27</title>
<path fill="none" stroke="#191970" d="M139.139,-70.3668C129.5162,-58.8194 118.8038,-45.9646 110.7232,-36.2679"/>
<polygon fill="#191970" stroke="#191970" points="136.4905,-72.6559 145.5812,-78.0974 141.8681,-68.1745 136.4905,-72.6559"/>
</g>
<!-- Node28 -->
<g id="node5" class="node">
<title>Node28</title>
<g id="a_node5"><a xlink:href="mir__prompt__session_8h.html" target="_top" xlink:title="include/client/mir\l_toolkit/mir_prompt\l_session.h">
<polygon fill="#ffffff" stroke="#000000" points="177,-.5 177,-41.5 277,-41.5 277,-.5 177,-.5"/>
<text text-anchor="start" x="185" y="-29.5" font-family="Arial" font-size="10.00" fill="#000000">include/client/mir</text>
<text text-anchor="start" x="185" y="-18.5" font-family="Arial" font-size="10.00" fill="#000000">_toolkit/mir_prompt</text>
<text text-anchor="middle" x="227" y="-7.5" font-family="Arial" font-size="10.00" fill="#000000">_session.h</text>
</a>
</g>
</g>
<!-- Node26&#45;&gt;Node28 -->
<g id="edge4" class="edge">
<title>Node26&#45;&gt;Node28</title>
<path fill="none" stroke="#191970" d="M186.7206,-70.0905C194.4563,-60.6626 202.8852,-50.3899 210.0238,-41.6898"/>
<polygon fill="#191970" stroke="#191970" points="183.7883,-68.1466 180.1508,-78.0974 189.1998,-72.5868 183.7883,-68.1466"/>
</g>
</g>
</svg>
