<?xml version="1.0" encoding="UTF-8" standalone="no"?>
<!DOCTYPE svg PUBLIC "-//W3C//DTD SVG 1.1//EN"
 "http://www.w3.org/Graphics/SVG/1.1/DTD/svg11.dtd">
<!-- Generated by graphviz version 2.38.0 (20140413.2041)
 -->
<!-- Title: include/client/mir_toolkit/mir_screencast.h Pages: 1 -->
<svg width="1898pt" height="374pt"
 viewBox="0.00 0.00 1898.00 374.00" xmlns="http://www.w3.org/2000/svg" xmlns:xlink="http://www.w3.org/1999/xlink">
<g id="graph0" class="graph" transform="scale(1 1) rotate(0) translate(4 370)">
<title>include/client/mir_toolkit/mir_screencast.h</title>
<polygon fill="white" stroke="none" points="-4,4 -4,-370 1894,-370 1894,4 -4,4"/>
<!-- Node0 -->
<g id="node1" class="node"><title>Node0</title>
<polygon fill="#bfbfbf" stroke="black" points="0,-335.5 0,-365.5 126,-365.5 126,-335.5 0,-335.5"/>
<text text-anchor="start" x="8" y="-353.5" font-family="Arial" font-size="10.00">include/client/mir</text>
<text text-anchor="middle" x="63" y="-342.5" font-family="Arial" font-size="10.00">_toolkit/mir_screencast.h</text>
</g>
<!-- Node1 -->
<g id="node2" class="node"><title>Node1</title>
<g id="a_node2"><a xlink:href="client__types_8h.html" target="_top" xlink:title="mir_toolkit/client\l_types.h">
<polygon fill="white" stroke="black" points="80,-268.5 80,-298.5 168,-298.5 168,-268.5 80,-268.5"/>
<text text-anchor="start" x="88" y="-286.5" font-family="Arial" font-size="10.00">mir_toolkit/client</text>
<text text-anchor="middle" x="124" y="-275.5" font-family="Arial" font-size="10.00">_types.h</text>
</a>
</g>
</g>
<!-- Node0&#45;&gt;Node1 -->
<g id="edge1" class="edge"><title>Node0&#45;&gt;Node1</title>
<path fill="none" stroke="midnightblue" d="M76.2361,-335.396C84.3096,-326.793 94.7894,-315.626 103.875,-305.945"/>
<polygon fill="midnightblue" stroke="midnightblue" points="106.499,-308.264 110.79,-298.577 101.394,-303.473 106.499,-308.264"/>
</g>
<!-- Node6 -->
<g id="node7" class="node"><title>Node6</title>
<g id="a_node7"><a xlink:href="deprecations_8h.html" target="_top" xlink:title="mir_toolkit/deprecations.h">
<polygon fill="white" stroke="black" points="143,-62 143,-81 271,-81 271,-62 143,-62"/>
<text text-anchor="middle" x="207" y="-69" font-family="Arial" font-size="10.00">mir_toolkit/deprecations.h</text>
</a>
</g>
</g>
<!-- Node0&#45;&gt;Node6 -->
<g id="edge46" class="edge"><title>Node0&#45;&gt;Node6</title>
<path fill="none" stroke="midnightblue" d="M56.1856,-335.293C38.8173,-296.797 -2.4327,-188.951 46,-123 65.9489,-95.8356 100.484,-82.8876 132.467,-76.8645"/>
<polygon fill="midnightblue" stroke="midnightblue" points="133.455,-80.2477 142.739,-75.143 132.298,-73.344 133.455,-80.2477"/>
</g>
<!-- Node2 -->
<g id="node3" class="node"><title>Node2</title>
<g id="a_node3"><a xlink:href="toolkit_2events_2event_8h.html" target="_top" xlink:title="mir_toolkit/events\l/event.h">
<polygon fill="white" stroke="black" points="835,-201.5 835,-231.5 929,-231.5 929,-201.5 835,-201.5"/>
<text text-anchor="start" x="843" y="-219.5" font-family="Arial" font-size="10.00">mir_toolkit/events</text>
<text text-anchor="middle" x="882" y="-208.5" font-family="Arial" font-size="10.00">/event.h</text>
</a>
</g>
</g>
<!-- Node1&#45;&gt;Node2 -->
<g id="edge2" class="edge"><title>Node1&#45;&gt;Node2</title>
<path fill="none" stroke="midnightblue" d="M168.03,-278.724C297.935,-267.585 679.581,-234.858 824.913,-222.395"/>
<polygon fill="midnightblue" stroke="midnightblue" points="825.297,-225.875 834.962,-221.534 824.699,-218.901 825.297,-225.875"/>
</g>
<!-- Node3 -->
<g id="node4" class="node"><title>Node3</title>
<polygon fill="white" stroke="#bfbfbf" points="1624,-134.5 1624,-153.5 1676,-153.5 1676,-134.5 1624,-134.5"/>
<text text-anchor="middle" x="1650" y="-141.5" font-family="Arial" font-size="10.00">stddef.h</text>
</g>
<!-- Node1&#45;&gt;Node3 -->
<g id="edge45" class="edge"><title>Node1&#45;&gt;Node3</title>
<path fill="none" stroke="midnightblue" d="M168.031,-281.733C384.316,-277.558 1335.01,-254.347 1615,-165 1619.83,-163.459 1624.73,-161.189 1629.27,-158.725"/>
<polygon fill="midnightblue" stroke="midnightblue" points="1631.14,-161.683 1637.96,-153.569 1627.57,-155.664 1631.14,-161.683"/>
</g>
<!-- Node5 -->
<g id="node6" class="node"><title>Node5</title>
<g id="a_node6"><a xlink:href="common_8h.html" target="_top" xlink:title="mir_toolkit/common.h">
<polygon fill="white" stroke="black" points="69,-134.5 69,-153.5 179,-153.5 179,-134.5 69,-134.5"/>
<text text-anchor="middle" x="124" y="-141.5" font-family="Arial" font-size="10.00">mir_toolkit/common.h</text>
</a>
</g>
</g>
<!-- Node1&#45;&gt;Node5 -->
<g id="edge43" class="edge"><title>Node1&#45;&gt;Node5</title>
<path fill="none" stroke="midnightblue" d="M124,-268.303C124,-243.336 124,-191.58 124,-163.722"/>
<polygon fill="midnightblue" stroke="midnightblue" points="127.5,-163.701 124,-153.701 120.5,-163.701 127.5,-163.701"/>
</g>
<!-- Node1&#45;&gt;Node6 -->
<g id="edge44" class="edge"><title>Node1&#45;&gt;Node6</title>
<path fill="none" stroke="midnightblue" d="M109.502,-268.166C81.5891,-238.807 26.0234,-170.598 60,-123 76.8256,-99.429 105.379,-86.7457 132.869,-79.964"/>
<polygon fill="midnightblue" stroke="midnightblue" points="133.926,-83.3144 142.925,-77.7232 132.404,-76.4819 133.926,-83.3144"/>
</g>
<!-- Node2&#45;&gt;Node3 -->
<g id="edge3" class="edge"><title>Node2&#45;&gt;Node3</title>
<path fill="none" stroke="midnightblue" d="M929.175,-213.477C1080.81,-206.803 1549.65,-184.785 1615,-165 1619.85,-163.531 1624.76,-161.292 1629.31,-158.837"/>
<polygon fill="midnightblue" stroke="midnightblue" points="1631.18,-161.791 1637.99,-153.669 1627.6,-155.776 1631.18,-161.791"/>
</g>
<!-- Node4 -->
<g id="node5" class="node"><title>Node4</title>
<polygon fill="white" stroke="#bfbfbf" points="1295.5,-0.5 1295.5,-19.5 1344.5,-19.5 1344.5,-0.5 1295.5,-0.5"/>
<text text-anchor="middle" x="1320" y="-7.5" font-family="Arial" font-size="10.00">stdint.h</text>
</g>
<!-- Node2&#45;&gt;Node4 -->
<g id="edge4" class="edge"><title>Node2&#45;&gt;Node4</title>
<path fill="none" stroke="midnightblue" d="M929.379,-213.847C1041.84,-209.438 1317.57,-195.587 1345,-165 1406.83,-96.0622 1264.36,-95.0517 1259,-87 1251.37,-75.5299 1252.79,-68.2987 1259,-56 1265.81,-42.5199 1278.77,-32.083 1291,-24.6696"/>
<polygon fill="midnightblue" stroke="midnightblue" points="1293.07,-27.5214 1300.09,-19.5896 1289.66,-21.4099 1293.07,-27.5214"/>
</g>
<!-- Node2&#45;&gt;Node5 -->
<g id="edge5" class="edge"><title>Node2&#45;&gt;Node5</title>
<path fill="none" stroke="midnightblue" d="M834.794,-215.422C722.587,-214.504 431.464,-207.813 193,-165 181.627,-162.958 169.45,-159.775 158.539,-156.544"/>
<polygon fill="midnightblue" stroke="midnightblue" points="159.522,-153.185 148.935,-153.595 157.467,-159.876 159.522,-153.185"/>
</g>
<!-- Node2&#45;&gt;Node6 -->
<g id="edge7" class="edge"><title>Node2&#45;&gt;Node6</title>
<path fill="none" stroke="midnightblue" d="M834.802,-215.088C691.985,-213.404 271.44,-205.057 226,-165 205.255,-146.713 203.599,-112.364 204.883,-91.06"/>
<polygon fill="midnightblue" stroke="midnightblue" points="208.378,-91.2745 205.767,-81.0066 201.405,-90.6618 208.378,-91.2745"/>
</g>
<!-- Node7 -->
<g id="node8" class="node"><title>Node7</title>
<g id="a_node8"><a xlink:href="input__event_8h.html" target="_top" xlink:title="mir_toolkit/events\l/input/input_event.h">
<polygon fill="white" stroke="black" points="1392,-129 1392,-159 1494,-159 1494,-129 1392,-129"/>
<text text-anchor="start" x="1400" y="-147" font-family="Arial" font-size="10.00">mir_toolkit/events</text>
<text text-anchor="middle" x="1443" y="-136" font-family="Arial" font-size="10.00">/input/input_event.h</text>
</a>
</g>
</g>
<!-- Node2&#45;&gt;Node7 -->
<g id="edge8" class="edge"><title>Node2&#45;&gt;Node7</title>
<path fill="none" stroke="midnightblue" d="M929.203,-213.546C1016.78,-209.408 1209.52,-197.326 1369,-165 1373.6,-164.067 1378.35,-162.941 1383.11,-161.704"/>
<polygon fill="midnightblue" stroke="midnightblue" points="1384.14,-165.05 1392.87,-159.038 1382.3,-158.298 1384.14,-165.05"/>
</g>
<!-- Node14 -->
<g id="node15" class="node"><title>Node14</title>
<g id="a_node15"><a xlink:href="resize__event_8h.html" target="_top" xlink:title="mir_toolkit/events\l/resize_event.h">
<polygon fill="white" stroke="black" points="607,-129 607,-159 701,-159 701,-129 607,-129"/>
<text text-anchor="start" x="615" y="-147" font-family="Arial" font-size="10.00">mir_toolkit/events</text>
<text text-anchor="middle" x="654" y="-136" font-family="Arial" font-size="10.00">/resize_event.h</text>
</a>
</g>
</g>
<!-- Node2&#45;&gt;Node14 -->
<g id="edge19" class="edge"><title>Node2&#45;&gt;Node14</title>
<path fill="none" stroke="midnightblue" d="M834.698,-204.412C797.846,-194.586 745.839,-179.576 701,-165 698.42,-164.161 695.779,-163.284 693.127,-162.385"/>
<polygon fill="midnightblue" stroke="midnightblue" points="694.159,-159.038 683.564,-159.063 691.862,-165.651 694.159,-159.038"/>
</g>
<!-- Node15 -->
<g id="node16" class="node"><title>Node15</title>
<g id="a_node16"><a xlink:href="surface__event_8h.html" target="_top" xlink:title="mir_toolkit/events\l/surface_event.h">
<polygon fill="white" stroke="black" points="235,-129 235,-159 329,-159 329,-129 235,-129"/>
<text text-anchor="start" x="243" y="-147" font-family="Arial" font-size="10.00">mir_toolkit/events</text>
<text text-anchor="middle" x="282" y="-136" font-family="Arial" font-size="10.00">/surface_event.h</text>
</a>
</g>
</g>
<!-- Node2&#45;&gt;Node15 -->
<g id="edge21" class="edge"><title>Node2&#45;&gt;Node15</title>
<path fill="none" stroke="midnightblue" d="M834.649,-215.153C738.081,-213.617 512.599,-205.631 329,-165 325.359,-164.194 321.63,-163.217 317.936,-162.134"/>
<polygon fill="midnightblue" stroke="midnightblue" points="318.915,-158.773 308.325,-159.062 316.784,-165.441 318.915,-158.773"/>
</g>
<!-- Node16 -->
<g id="node17" class="node"><title>Node16</title>
<g id="a_node17"><a xlink:href="window__event_8h.html" target="_top" xlink:title="mir_toolkit/events\l/window_event.h">
<polygon fill="white" stroke="black" points="719,-129 719,-159 813,-159 813,-129 719,-129"/>
<text text-anchor="start" x="727" y="-147" font-family="Arial" font-size="10.00">mir_toolkit/events</text>
<text text-anchor="middle" x="766" y="-136" font-family="Arial" font-size="10.00">/window_event.h</text>
</a>
</g>
</g>
<!-- Node2&#45;&gt;Node16 -->
<g id="edge24" class="edge"><title>Node2&#45;&gt;Node16</title>
<path fill="none" stroke="midnightblue" d="M853.278,-201.403C834.488,-190.836 810.284,-176.245 792.052,-164.551"/>
<polygon fill="midnightblue" stroke="midnightblue" points="793.923,-161.592 783.632,-159.073 790.106,-167.46 793.923,-161.592"/>
</g>
<!-- Node17 -->
<g id="node18" class="node"><title>Node17</title>
<g id="a_node18"><a xlink:href="orientation__event_8h.html" target="_top" xlink:title="mir_toolkit/events\l/orientation_event.h">
<polygon fill="white" stroke="black" points="831,-129 831,-159 933,-159 933,-129 831,-129"/>
<text text-anchor="start" x="839" y="-147" font-family="Arial" font-size="10.00">mir_toolkit/events</text>
<text text-anchor="middle" x="882" y="-136" font-family="Arial" font-size="10.00">/orientation_event.h</text>
</a>
</g>
</g>
<!-- Node2&#45;&gt;Node17 -->
<g id="edge26" class="edge"><title>Node2&#45;&gt;Node17</title>
<path fill="none" stroke="midnightblue" d="M876.451,-201.233C875.249,-192.06 874.949,-179.905 875.551,-169.244"/>
<polygon fill="midnightblue" stroke="midnightblue" points="879.041,-169.52 876.454,-159.246 872.069,-168.89 879.041,-169.52"/>
</g>
<!-- Node18 -->
<g id="node19" class="node"><title>Node18</title>
<g id="a_node19"><a xlink:href="prompt__session__event_8h.html" target="_top" xlink:title="mir_toolkit/events\l/prompt_session_event.h">
<polygon fill="white" stroke="black" points="951,-129 951,-159 1077,-159 1077,-129 951,-129"/>
<text text-anchor="start" x="959" y="-147" font-family="Arial" font-size="10.00">mir_toolkit/events</text>
<text text-anchor="middle" x="1014" y="-136" font-family="Arial" font-size="10.00">/prompt_session_event.h</text>
</a>
</g>
</g>
<!-- Node2&#45;&gt;Node18 -->
<g id="edge28" class="edge"><title>Node2&#45;&gt;Node18</title>
<path fill="none" stroke="midnightblue" d="M902.869,-201.403C921.752,-190.548 949.859,-175.446 973.143,-163.6"/>
<polygon fill="midnightblue" stroke="midnightblue" points="974.773,-166.699 982.128,-159.073 971.622,-160.447 974.773,-166.699"/>
</g>
<!-- Node19 -->
<g id="node20" class="node"><title>Node19</title>
<g id="a_node20"><a xlink:href="keymap__event_8h.html" target="_top" xlink:title="mir_toolkit/events\l/keymap_event.h">
<polygon fill="white" stroke="black" points="1512,-129 1512,-159 1606,-159 1606,-129 1512,-129"/>
<text text-anchor="start" x="1520" y="-147" font-family="Arial" font-size="10.00">mir_toolkit/events</text>
<text text-anchor="middle" x="1559" y="-136" font-family="Arial" font-size="10.00">/keymap_event.h</text>
</a>
</g>
</g>
<!-- Node2&#45;&gt;Node19 -->
<g id="edge30" class="edge"><title>Node2&#45;&gt;Node19</title>
<path fill="none" stroke="midnightblue" d="M929.231,-215.833C1032.83,-215.521 1286.74,-209.627 1494,-165 1497.81,-164.18 1501.71,-163.167 1505.63,-162.036"/>
<polygon fill="midnightblue" stroke="midnightblue" points="1506.82,-165.33 1515.34,-159.024 1504.75,-158.644 1506.82,-165.33"/>
</g>
<!-- Node20 -->
<g id="node21" class="node"><title>Node20</title>
<g id="a_node21"><a xlink:href="input__configuration__event_8h.html" target="_top" xlink:title="mir_toolkit/events\l/input_configuration\l_event.h">
<polygon fill="white" stroke="black" points="347.5,-123.5 347.5,-164.5 448.5,-164.5 448.5,-123.5 347.5,-123.5"/>
<text text-anchor="start" x="355.5" y="-152.5" font-family="Arial" font-size="10.00">mir_toolkit/events</text>
<text text-anchor="start" x="355.5" y="-141.5" font-family="Arial" font-size="10.00">/input_configuration</text>
<text text-anchor="middle" x="398" y="-130.5" font-family="Arial" font-size="10.00">_event.h</text>
</a>
</g>
</g>
<!-- Node2&#45;&gt;Node20 -->
<g id="edge33" class="edge"><title>Node2&#45;&gt;Node20</title>
<path fill="none" stroke="midnightblue" d="M834.707,-213.33C756.193,-208.852 594.616,-196.439 456.934,-166.725"/>
<polygon fill="midnightblue" stroke="midnightblue" points="457.582,-163.284 447.063,-164.556 456.079,-170.121 457.582,-163.284"/>
</g>
<!-- Node21 -->
<g id="node22" class="node"><title>Node21</title>
<g id="a_node22"><a xlink:href="surface__output__event_8h.html" target="_top" xlink:title="mir_toolkit/events\l/surface_output_event.h">
<polygon fill="white" stroke="black" points="467,-129 467,-159 589,-159 589,-129 467,-129"/>
<text text-anchor="start" x="475" y="-147" font-family="Arial" font-size="10.00">mir_toolkit/events</text>
<text text-anchor="middle" x="528" y="-136" font-family="Arial" font-size="10.00">/surface_output_event.h</text>
</a>
</g>
</g>
<!-- Node2&#45;&gt;Node21 -->
<g id="edge36" class="edge"><title>Node2&#45;&gt;Node21</title>
<path fill="none" stroke="midnightblue" d="M834.965,-209.567C776.617,-201.228 674.753,-184.82 589,-165 584.586,-163.98 580.036,-162.853 575.499,-161.67"/>
<polygon fill="midnightblue" stroke="midnightblue" points="576.212,-158.237 565.645,-159.009 574.387,-164.995 576.212,-158.237"/>
</g>
<!-- Node22 -->
<g id="node23" class="node"><title>Node22</title>
<g id="a_node23"><a xlink:href="window__output__event_8h.html" target="_top" xlink:title="mir_toolkit/events\l/window_output_event.h">
<polygon fill="white" stroke="black" points="1095.5,-129 1095.5,-159 1216.5,-159 1216.5,-129 1095.5,-129"/>
<text text-anchor="start" x="1103.5" y="-147" font-family="Arial" font-size="10.00">mir_toolkit/events</text>
<text text-anchor="middle" x="1156" y="-136" font-family="Arial" font-size="10.00">/window_output_event.h</text>
</a>
</g>
</g>
<!-- Node2&#45;&gt;Node22 -->
<g id="edge39" class="edge"><title>Node2&#45;&gt;Node22</title>
<path fill="none" stroke="midnightblue" d="M929.253,-202.523C968.84,-192.62 1026.59,-178.438 1077,-165 1080.81,-163.985 1084.72,-162.921 1088.69,-161.835"/>
<polygon fill="midnightblue" stroke="midnightblue" points="1089.88,-165.137 1098.58,-159.103 1088.01,-158.39 1089.88,-165.137"/>
</g>
<!-- Node23 -->
<g id="node24" class="node"><title>Node23</title>
<g id="a_node24"><a xlink:href="input__device__state__event_8h.html" target="_top" xlink:title="mir_toolkit/events\l/input_device_state\l_event.h">
<polygon fill="white" stroke="black" points="1234.5,-123.5 1234.5,-164.5 1335.5,-164.5 1335.5,-123.5 1234.5,-123.5"/>
<text text-anchor="start" x="1242.5" y="-152.5" font-family="Arial" font-size="10.00">mir_toolkit/events</text>
<text text-anchor="start" x="1242.5" y="-141.5" font-family="Arial" font-size="10.00">/input_device_state</text>
<text text-anchor="middle" x="1285" y="-130.5" font-family="Arial" font-size="10.00">_event.h</text>
</a>
</g>
</g>
<!-- Node2&#45;&gt;Node23 -->
<g id="edge41" class="edge"><title>Node2&#45;&gt;Node23</title>
<path fill="none" stroke="midnightblue" d="M929.078,-210.697C994.42,-203.873 1115.62,-189.411 1217,-165 1219.57,-164.38 1222.19,-163.697 1224.84,-162.966"/>
<polygon fill="midnightblue" stroke="midnightblue" points="1225.84,-166.319 1234.46,-160.152 1223.88,-159.6 1225.84,-166.319"/>
</g>
<!-- Node5&#45;&gt;Node6 -->
<g id="edge6" class="edge"><title>Node5&#45;&gt;Node6</title>
<path fill="none" stroke="midnightblue" d="M134.177,-134.355C147.743,-122.833 171.983,-102.243 188.749,-88.0022"/>
<polygon fill="midnightblue" stroke="midnightblue" points="191.383,-90.3568 196.739,-81.2154 186.852,-85.0217 191.383,-90.3568"/>
</g>
<!-- Node7&#45;&gt;Node2 -->
<g id="edge9" class="edge"><title>Node7&#45;&gt;Node2</title>
<path fill="none" stroke="midnightblue" d="M1410.54,-159.038C1402.9,-161.31 1394.75,-163.429 1387,-165 1227.15,-197.401 1033.88,-209.464 939.417,-213.575"/>
<polygon fill="midnightblue" stroke="midnightblue" points="939.06,-210.086 929.217,-214.004 939.355,-217.08 939.06,-210.086"/>
</g>
<!-- Node7&#45;&gt;Node4 -->
<g id="edge12" class="edge"><title>Node7&#45;&gt;Node4</title>
<path fill="none" stroke="midnightblue" d="M1465.45,-128.843C1490.35,-111.377 1524.6,-80.9362 1505,-56 1486.64,-32.6351 1402.8,-19.8923 1354.53,-14.3767"/>
<polygon fill="midnightblue" stroke="midnightblue" points="1354.84,-10.8898 1344.52,-13.278 1354.07,-17.848 1354.84,-10.8898"/>
</g>
<!-- Node8 -->
<g id="node9" class="node"><title>Node8</title>
<g id="a_node9"><a xlink:href="mir__input__device__types_8h.html" target="_top" xlink:title="mir_toolkit/mir_input\l_device_types.h">
<polygon fill="white" stroke="black" points="1268,-56.5 1268,-86.5 1372,-86.5 1372,-56.5 1268,-56.5"/>
<text text-anchor="start" x="1276" y="-74.5" font-family="Arial" font-size="10.00">mir_toolkit/mir_input</text>
<text text-anchor="middle" x="1320" y="-63.5" font-family="Arial" font-size="10.00">_device_types.h</text>
</a>
</g>
</g>
<!-- Node7&#45;&gt;Node8 -->
<g id="edge10" class="edge"><title>Node7&#45;&gt;Node8</title>
<path fill="none" stroke="midnightblue" d="M1418.4,-128.903C1399.72,-118.192 1373.82,-103.346 1353.28,-91.5738"/>
<polygon fill="midnightblue" stroke="midnightblue" points="1354.97,-88.5091 1344.55,-86.5729 1351.49,-94.5823 1354.97,-88.5091"/>
</g>
<!-- Node9 -->
<g id="node10" class="node"><title>Node9</title>
<polygon fill="white" stroke="#bfbfbf" points="1575,-0.5 1575,-19.5 1631,-19.5 1631,-0.5 1575,-0.5"/>
<text text-anchor="middle" x="1603" y="-7.5" font-family="Arial" font-size="10.00">stdbool.h</text>
</g>
<!-- Node7&#45;&gt;Node9 -->
<g id="edge13" class="edge"><title>Node7&#45;&gt;Node9</title>
<path fill="none" stroke="midnightblue" d="M1464.05,-128.944C1480.05,-118.009 1502.41,-102.188 1521,-87 1544.81,-67.5477 1570.55,-43.0729 1586.71,-27.2371"/>
<polygon fill="midnightblue" stroke="midnightblue" points="1589.57,-29.3311 1594.23,-19.8158 1584.65,-24.3487 1589.57,-29.3311"/>
</g>
<!-- Node10 -->
<g id="node11" class="node"><title>Node10</title>
<g id="a_node11"><a xlink:href="touch__event_8h.html" target="_top" xlink:title="mir_toolkit/events\l/input/touch_event.h">
<polygon fill="white" stroke="black" points="1390.5,-56.5 1390.5,-86.5 1495.5,-86.5 1495.5,-56.5 1390.5,-56.5"/>
<text text-anchor="start" x="1398.5" y="-74.5" font-family="Arial" font-size="10.00">mir_toolkit/events</text>
<text text-anchor="middle" x="1443" y="-63.5" font-family="Arial" font-size="10.00">/input/touch_event.h</text>
</a>
</g>
</g>
<!-- Node7&#45;&gt;Node10 -->
<g id="edge14" class="edge"><title>Node7&#45;&gt;Node10</title>
<path fill="none" stroke="midnightblue" d="M1443,-128.733C1443,-119.655 1443,-107.658 1443,-97.0773"/>
<polygon fill="midnightblue" stroke="midnightblue" points="1446.5,-96.7455 1443,-86.7455 1439.5,-96.7455 1446.5,-96.7455"/>
</g>
<!-- Node11 -->
<g id="node12" class="node"><title>Node11</title>
<g id="a_node12"><a xlink:href="keyboard__event_8h.html" target="_top" xlink:title="mir_toolkit/events\l/input/keyboard_event.h">
<polygon fill="white" stroke="black" points="1718.5,-56.5 1718.5,-86.5 1839.5,-86.5 1839.5,-56.5 1718.5,-56.5"/>
<text text-anchor="start" x="1726.5" y="-74.5" font-family="Arial" font-size="10.00">mir_toolkit/events</text>
<text text-anchor="middle" x="1779" y="-63.5" font-family="Arial" font-size="10.00">/input/keyboard_event.h</text>
</a>
</g>
</g>
<!-- Node7&#45;&gt;Node11 -->
<g id="edge15" class="edge"><title>Node7&#45;&gt;Node11</title>
<path fill="none" stroke="midnightblue" d="M1482.45,-128.926C1489.25,-126.765 1496.29,-124.694 1503,-123 1590.03,-101.019 1615.95,-104.174 1708.26,-87.0835"/>
<polygon fill="midnightblue" stroke="midnightblue" points="1709.14,-90.4802 1718.32,-85.191 1707.84,-83.601 1709.14,-90.4802"/>
</g>
<!-- Node13 -->
<g id="node14" class="node"><title>Node13</title>
<g id="a_node14"><a xlink:href="pointer__event_8h.html" target="_top" xlink:title="mir_toolkit/events\l/input/pointer_event.h">
<polygon fill="white" stroke="black" points="1590,-56.5 1590,-86.5 1700,-86.5 1700,-56.5 1590,-56.5"/>
<text text-anchor="start" x="1598" y="-74.5" font-family="Arial" font-size="10.00">mir_toolkit/events</text>
<text text-anchor="middle" x="1645" y="-63.5" font-family="Arial" font-size="10.00">/input/pointer_event.h</text>
</a>
</g>
</g>
<!-- Node7&#45;&gt;Node13 -->
<g id="edge17" class="edge"><title>Node7&#45;&gt;Node13</title>
<path fill="none" stroke="midnightblue" d="M1483.39,-128.903C1515.46,-117.711 1560.46,-102.006 1594.83,-90.0093"/>
<polygon fill="midnightblue" stroke="midnightblue" points="1596.39,-93.1726 1604.68,-86.5729 1594.08,-86.5636 1596.39,-93.1726"/>
</g>
<!-- Node8&#45;&gt;Node4 -->
<g id="edge11" class="edge"><title>Node8&#45;&gt;Node4</title>
<path fill="none" stroke="midnightblue" d="M1320,-56.3993C1320,-48.4664 1320,-38.458 1320,-29.8583"/>
<polygon fill="midnightblue" stroke="midnightblue" points="1323.5,-29.6577 1320,-19.6578 1316.5,-29.6578 1323.5,-29.6577"/>
</g>
<!-- Node12 -->
<g id="node13" class="node"><title>Node12</title>
<polygon fill="white" stroke="#bfbfbf" points="1756,-0.5 1756,-19.5 1890,-19.5 1890,-0.5 1756,-0.5"/>
<text text-anchor="middle" x="1823" y="-7.5" font-family="Arial" font-size="10.00">xkbcommon/xkbcommon.h</text>
</g>
<!-- Node11&#45;&gt;Node12 -->
<g id="edge16" class="edge"><title>Node11&#45;&gt;Node12</title>
<path fill="none" stroke="midnightblue" d="M1789.43,-56.3993C1795.76,-47.8424 1803.87,-36.8708 1810.53,-27.857"/>
<polygon fill="midnightblue" stroke="midnightblue" points="1813.47,-29.7792 1816.6,-19.6578 1807.84,-25.6171 1813.47,-29.7792"/>
</g>
<!-- Node13&#45;&gt;Node9 -->
<g id="edge18" class="edge"><title>Node13&#45;&gt;Node9</title>
<path fill="none" stroke="midnightblue" d="M1635.05,-56.3993C1629.01,-47.8424 1621.26,-36.8708 1614.9,-27.857"/>
<polygon fill="midnightblue" stroke="midnightblue" points="1617.74,-25.8091 1609.11,-19.6578 1612.02,-29.8459 1617.74,-25.8091"/>
</g>
<!-- Node14&#45;&gt;Node2 -->
<g id="edge20" class="edge"><title>Node14&#45;&gt;Node2</title>
<path fill="none" stroke="midnightblue" d="M701.047,-158.957C707.11,-161.04 713.207,-163.117 719,-165 755.747,-176.945 797.306,-189.182 829.341,-198.618"/>
<polygon fill="midnightblue" stroke="midnightblue" points="828.379,-201.984 838.961,-201.453 830.358,-195.269 828.379,-201.984"/>
</g>
<!-- Node15&#45;&gt;Node2 -->
<g id="edge22" class="edge"><title>Node15&#45;&gt;Node2</title>
<path fill="none" stroke="midnightblue" d="M325.987,-159.062C332.982,-161.361 340.146,-163.483 347,-165 518.286,-202.906 726.026,-212.399 824.744,-214.749"/>
<polygon fill="midnightblue" stroke="midnightblue" points="824.733,-218.25 834.809,-214.973 824.889,-211.251 824.733,-218.25"/>
</g>
<!-- Node15&#45;&gt;Node6 -->
<g id="edge23" class="edge"><title>Node15&#45;&gt;Node6</title>
<path fill="none" stroke="midnightblue" d="M266.823,-128.733C254.346,-117.005 236.685,-100.404 223.787,-88.2797"/>
<polygon fill="midnightblue" stroke="midnightblue" points="226.144,-85.6921 216.461,-81.3932 221.35,-90.7925 226.144,-85.6921"/>
</g>
<!-- Node16&#45;&gt;Node2 -->
<g id="edge25" class="edge"><title>Node16&#45;&gt;Node2</title>
<path fill="none" stroke="midnightblue" d="M794.678,-159.073C813.46,-169.634 837.665,-184.224 855.905,-195.922"/>
<polygon fill="midnightblue" stroke="midnightblue" points="854.04,-198.884 864.331,-201.403 857.856,-193.016 854.04,-198.884"/>
</g>
<!-- Node17&#45;&gt;Node2 -->
<g id="edge27" class="edge"><title>Node17&#45;&gt;Node2</title>
<path fill="none" stroke="midnightblue" d="M887.546,-159.246C888.749,-168.414 889.051,-180.568 888.45,-191.232"/>
<polygon fill="midnightblue" stroke="midnightblue" points="884.96,-190.959 887.549,-201.233 891.932,-191.588 884.96,-190.959"/>
</g>
<!-- Node18&#45;&gt;Node2 -->
<g id="edge29" class="edge"><title>Node18&#45;&gt;Node2</title>
<path fill="none" stroke="midnightblue" d="M993.174,-159.073C974.305,-169.922 946.2,-185.023 922.909,-196.873"/>
<polygon fill="midnightblue" stroke="midnightblue" points="921.276,-193.777 913.921,-201.403 924.426,-200.028 921.276,-193.777"/>
</g>
<!-- Node19&#45;&gt;Node2 -->
<g id="edge31" class="edge"><title>Node19&#45;&gt;Node2</title>
<path fill="none" stroke="midnightblue" d="M1532.98,-159.024C1526.24,-161.356 1518.96,-163.501 1512,-165 1304.86,-209.601 1051.13,-215.514 939.35,-215.832"/>
<polygon fill="midnightblue" stroke="midnightblue" points="939.297,-212.332 929.302,-215.846 939.307,-219.332 939.297,-212.332"/>
</g>
<!-- Node19&#45;&gt;Node12 -->
<g id="edge32" class="edge"><title>Node19&#45;&gt;Node12</title>
<path fill="none" stroke="midnightblue" d="M1595.14,-128.962C1601.68,-126.746 1608.49,-124.646 1615,-123 1666,-110.094 1814.74,-126.931 1849,-87 1863.56,-70.0326 1849.69,-44.5123 1837.28,-27.8049"/>
<polygon fill="midnightblue" stroke="midnightblue" points="1839.69,-25.2036 1830.73,-19.54 1834.2,-29.5513 1839.69,-25.2036"/>
</g>
<!-- Node20&#45;&gt;Node2 -->
<g id="edge34" class="edge"><title>Node20&#45;&gt;Node2</title>
<path fill="none" stroke="midnightblue" d="M448.561,-160.089C454.753,-161.945 461,-163.657 467,-165 593.005,-193.197 743.828,-206.402 824.53,-211.963"/>
<polygon fill="midnightblue" stroke="midnightblue" points="824.755,-215.486 834.967,-212.666 825.225,-208.501 824.755,-215.486"/>
</g>
<!-- Node20&#45;&gt;Node6 -->
<g id="edge35" class="edge"><title>Node20&#45;&gt;Node6</title>
<path fill="none" stroke="midnightblue" d="M347.317,-124.292C313.16,-111.685 269.112,-95.426 239.559,-84.518"/>
<polygon fill="midnightblue" stroke="midnightblue" points="240.722,-81.2162 230.128,-81.0369 238.298,-87.7831 240.722,-81.2162"/>
</g>
<!-- Node21&#45;&gt;Node2 -->
<g id="edge37" class="edge"><title>Node21&#45;&gt;Node2</title>
<path fill="none" stroke="midnightblue" d="M583.39,-159.009C591.322,-161.152 599.365,-163.235 607,-165 681.872,-182.305 769.025,-197.009 824.897,-206.012"/>
<polygon fill="midnightblue" stroke="midnightblue" points="824.528,-209.497 834.956,-207.626 825.637,-202.586 824.528,-209.497"/>
</g>
<!-- Node21&#45;&gt;Node6 -->
<g id="edge38" class="edge"><title>Node21&#45;&gt;Node6</title>
<path fill="none" stroke="midnightblue" d="M480.007,-128.953C472.337,-126.86 464.469,-124.804 457,-123 391.564,-107.198 315.682,-92.3551 264.837,-82.9045"/>
<polygon fill="midnightblue" stroke="midnightblue" points="265.166,-79.4061 254.696,-81.0295 263.893,-86.2894 265.166,-79.4061"/>
</g>
<!-- Node22&#45;&gt;Node2 -->
<g id="edge40" class="edge"><title>Node22&#45;&gt;Node2</title>
<path fill="none" stroke="midnightblue" d="M1116.39,-159.103C1109.29,-161.124 1101.96,-163.145 1095,-165 1042.51,-178.992 982.061,-193.792 938.904,-203.726"/>
<polygon fill="midnightblue" stroke="midnightblue" points="938.115,-200.317 929.146,-205.957 939.674,-207.141 938.115,-200.317"/>
</g>
<!-- Node23&#45;&gt;Node2 -->
<g id="edge42" class="edge"><title>Node23&#45;&gt;Node2</title>
<path fill="none" stroke="midnightblue" d="M1236.9,-164.533C1236.26,-164.692 1235.63,-164.848 1235,-165 1132.5,-189.681 1009.74,-204.191 939.215,-210.92"/>
<polygon fill="midnightblue" stroke="midnightblue" points="938.828,-207.441 929.198,-211.857 939.48,-214.41 938.828,-207.441"/>
</g>
</g>
</svg>
