<?xml version="1.0" encoding="UTF-8" standalone="no"?>
<!DOCTYPE svg PUBLIC "-//W3C//DTD SVG 1.1//EN"
 "http://www.w3.org/Graphics/SVG/1.1/DTD/svg11.dtd">
<!-- Generated by graphviz version 2.40.1 (20161225.0304)
 -->
<!-- Title: include/client/mir_toolkit/mir_buffer_stream.h Pages: 1 -->
<svg width="2033pt" height="385pt"
 viewBox="0.00 0.00 2033.00 385.00" xmlns="http://www.w3.org/2000/svg" xmlns:xlink="http://www.w3.org/1999/xlink">
<g id="graph0" class="graph" transform="scale(1 1) rotate(0) translate(4 381)">
<title>include/client/mir_toolkit/mir_buffer_stream.h</title>
<polygon fill="#ffffff" stroke="transparent" points="-4,4 -4,-381 2029,-381 2029,4 -4,4"/>
<!-- Node0 -->
<g id="node1" class="node">
<title>Node0</title>
<polygon fill="#bfbfbf" stroke="#000000" points="90.5,-335.5 90.5,-376.5 185.5,-376.5 185.5,-335.5 90.5,-335.5"/>
<text text-anchor="start" x="98.5" y="-364.5" font-family="Arial" font-size="10.00" fill="#000000">include/client/mir</text>
<text text-anchor="start" x="98.5" y="-353.5" font-family="Arial" font-size="10.00" fill="#000000">_toolkit/mir_buffer</text>
<text text-anchor="middle" x="138" y="-342.5" font-family="Arial" font-size="10.00" fill="#000000">_stream.h</text>
</g>
<!-- Node1 -->
<g id="node2" class="node">
<title>Node1</title>
<g id="a_node2"><a xlink:href="mir__native__buffer_8h.html" target="_top" xlink:title="mir_toolkit/mir_native\l_buffer.h">
<polygon fill="#ffffff" stroke="#000000" points="0,-268.5 0,-298.5 110,-298.5 110,-268.5 0,-268.5"/>
<text text-anchor="start" x="8" y="-286.5" font-family="Arial" font-size="10.00" fill="#000000">mir_toolkit/mir_native</text>
<text text-anchor="middle" x="55" y="-275.5" font-family="Arial" font-size="10.00" fill="#000000">_buffer.h</text>
</a>
</g>
</g>
<!-- Node0&#45;&gt;Node1 -->
<g id="edge1" class="edge">
<title>Node0&#45;&gt;Node1</title>
<path fill="none" stroke="#191970" d="M114.4375,-335.4183C103.6391,-325.9859 90.8342,-314.801 79.88,-305.2325"/>
<polygon fill="#191970" stroke="#191970" points="82.1198,-302.5418 72.2859,-298.5991 77.5148,-307.8138 82.1198,-302.5418"/>
</g>
<!-- Node2 -->
<g id="node3" class="node">
<title>Node2</title>
<g id="a_node3"><a xlink:href="client__types_8h.html" target="_top" xlink:title="mir_toolkit/client\l_types.h">
<polygon fill="#ffffff" stroke="#000000" points="215,-268.5 215,-298.5 303,-298.5 303,-268.5 215,-268.5"/>
<text text-anchor="start" x="223" y="-286.5" font-family="Arial" font-size="10.00" fill="#000000">mir_toolkit/client</text>
<text text-anchor="middle" x="259" y="-275.5" font-family="Arial" font-size="10.00" fill="#000000">_types.h</text>
</a>
</g>
</g>
<!-- Node0&#45;&gt;Node2 -->
<g id="edge2" class="edge">
<title>Node0&#45;&gt;Node2</title>
<path fill="none" stroke="#191970" d="M172.3501,-335.4183C188.8566,-325.5281 208.579,-313.7109 225.0351,-303.8509"/>
<polygon fill="#191970" stroke="#191970" points="227.021,-306.7412 233.8001,-298.5991 223.4231,-300.7366 227.021,-306.7412"/>
</g>
<!-- Node7 -->
<g id="node8" class="node">
<title>Node7</title>
<g id="a_node8"><a xlink:href="deprecations_8h.html" target="_top" xlink:title="mir_toolkit/deprecations.h">
<polygon fill="#ffffff" stroke="#000000" points="278,-62 278,-81 406,-81 406,-62 278,-62"/>
<text text-anchor="middle" x="342" y="-69" font-family="Arial" font-size="10.00" fill="#000000">mir_toolkit/deprecations.h</text>
</a>
</g>
</g>
<!-- Node0&#45;&gt;Node7 -->
<g id="edge47" class="edge">
<title>Node0&#45;&gt;Node7</title>
<path fill="none" stroke="#191970" d="M135.2561,-335.2945C130.5622,-290.6256 126.1596,-184.3038 180,-123 194.0331,-107.0216 243.6074,-92.712 284.2591,-83.2563"/>
<polygon fill="#191970" stroke="#191970" points="285.132,-86.6472 294.1077,-81.0181 283.5807,-79.8213 285.132,-86.6472"/>
</g>
<!-- Node3 -->
<g id="node4" class="node">
<title>Node3</title>
<g id="a_node4"><a xlink:href="toolkit_2events_2event_8h.html" target="_top" xlink:title="mir_toolkit/events\l/event.h">
<polygon fill="#ffffff" stroke="#000000" points="970,-201.5 970,-231.5 1064,-231.5 1064,-201.5 970,-201.5"/>
<text text-anchor="start" x="978" y="-219.5" font-family="Arial" font-size="10.00" fill="#000000">mir_toolkit/events</text>
<text text-anchor="middle" x="1017" y="-208.5" font-family="Arial" font-size="10.00" fill="#000000">/event.h</text>
</a>
</g>
</g>
<!-- Node2&#45;&gt;Node3 -->
<g id="edge3" class="edge">
<title>Node2&#45;&gt;Node3</title>
<path fill="none" stroke="#191970" d="M303.0296,-279.6082C432.9346,-268.1258 814.5812,-234.3919 959.9129,-221.546"/>
<polygon fill="#191970" stroke="#191970" points="960.3087,-225.0247 969.9617,-220.6577 959.6923,-218.0519 960.3087,-225.0247"/>
</g>
<!-- Node4 -->
<g id="node5" class="node">
<title>Node4</title>
<polygon fill="#ffffff" stroke="#bfbfbf" points="1759,-134.5 1759,-153.5 1811,-153.5 1811,-134.5 1759,-134.5"/>
<text text-anchor="middle" x="1785" y="-141.5" font-family="Arial" font-size="10.00" fill="#000000">stddef.h</text>
</g>
<!-- Node2&#45;&gt;Node4 -->
<g id="edge46" class="edge">
<title>Node2&#45;&gt;Node4</title>
<path fill="none" stroke="#191970" d="M303.0696,-282.8157C519.536,-279.0289 1470.9628,-257.3251 1750,-165 1754.5117,-163.5072 1759.0614,-161.3554 1763.3197,-158.9924"/>
<polygon fill="#191970" stroke="#191970" points="1765.3423,-161.8581 1772.0481,-153.6555 1761.6907,-155.886 1765.3423,-161.8581"/>
</g>
<!-- Node6 -->
<g id="node7" class="node">
<title>Node6</title>
<g id="a_node7"><a xlink:href="common_8h.html" target="_top" xlink:title="mir_toolkit/common.h">
<polygon fill="#ffffff" stroke="#000000" points="204,-134.5 204,-153.5 314,-153.5 314,-134.5 204,-134.5"/>
<text text-anchor="middle" x="259" y="-141.5" font-family="Arial" font-size="10.00" fill="#000000">mir_toolkit/common.h</text>
</a>
</g>
</g>
<!-- Node2&#45;&gt;Node6 -->
<g id="edge44" class="edge">
<title>Node2&#45;&gt;Node6</title>
<path fill="none" stroke="#191970" d="M259,-268.3055C259,-242.9831 259,-192.1556 259,-163.9709"/>
<polygon fill="#191970" stroke="#191970" points="262.5001,-163.7366 259,-153.7366 255.5001,-163.7367 262.5001,-163.7366"/>
</g>
<!-- Node2&#45;&gt;Node7 -->
<g id="edge45" class="edge">
<title>Node2&#45;&gt;Node7</title>
<path fill="none" stroke="#191970" d="M243.6323,-268.1706C215.4461,-238.1648 161.3323,-170.4692 195,-123 206.2014,-107.2068 250.8693,-92.9675 288.0572,-83.4856"/>
<polygon fill="#191970" stroke="#191970" points="288.9576,-86.8684 297.8183,-81.0599 287.2694,-80.075 288.9576,-86.8684"/>
</g>
<!-- Node3&#45;&gt;Node4 -->
<g id="edge4" class="edge">
<title>Node3&#45;&gt;Node4</title>
<path fill="none" stroke="#191970" d="M1064.1932,-214.4645C1215.8792,-207.7447 1684.8674,-185.5254 1750,-165 1754.6106,-163.547 1759.2494,-161.3772 1763.5738,-158.9758"/>
<polygon fill="#191970" stroke="#191970" points="1765.7261,-161.7609 1772.4058,-153.537 1762.0555,-155.8003 1765.7261,-161.7609"/>
</g>
<!-- Node5 -->
<g id="node6" class="node">
<title>Node5</title>
<polygon fill="#ffffff" stroke="#bfbfbf" points="1430.5,-.5 1430.5,-19.5 1479.5,-19.5 1479.5,-.5 1430.5,-.5"/>
<text text-anchor="middle" x="1455" y="-7.5" font-family="Arial" font-size="10.00" fill="#000000">stdint.h</text>
</g>
<!-- Node3&#45;&gt;Node5 -->
<g id="edge5" class="edge">
<title>Node3&#45;&gt;Node5</title>
<path fill="none" stroke="#191970" d="M1064.3827,-214.742C1176.8541,-210.0832 1452.594,-195.6234 1480,-165 1541.771,-95.9772 1399.2327,-94.8631 1394,-87 1386.3669,-75.5299 1387.8545,-68.3313 1394,-56 1400.6003,-42.756 1413.0327,-32.3192 1424.9605,-24.7581"/>
<polygon fill="#191970" stroke="#191970" points="1427.0165,-27.6102 1433.8784,-19.5378 1423.4801,-21.5691 1427.0165,-27.6102"/>
</g>
<!-- Node3&#45;&gt;Node6 -->
<g id="edge6" class="edge">
<title>Node3&#45;&gt;Node6</title>
<path fill="none" stroke="#191970" d="M969.7678,-214.3307C835.2126,-207.9349 451.6522,-188.1433 328,-165 317.1805,-162.975 305.6556,-159.8645 295.1854,-156.6528"/>
<polygon fill="#191970" stroke="#191970" points="296.1182,-153.2767 285.5276,-153.5747 293.9925,-159.9462 296.1182,-153.2767"/>
</g>
<!-- Node3&#45;&gt;Node7 -->
<g id="edge8" class="edge">
<title>Node3&#45;&gt;Node7</title>
<path fill="none" stroke="#191970" d="M969.7963,-216.0178C826.9622,-214.1202 406.3728,-205.1441 361,-165 340.3996,-146.7736 338.5299,-112.8524 339.7592,-91.266"/>
<polygon fill="#191970" stroke="#191970" points="343.251,-91.5087 340.6016,-81.2505 336.2756,-90.9219 343.251,-91.5087"/>
</g>
<!-- Node8 -->
<g id="node9" class="node">
<title>Node8</title>
<g id="a_node9"><a xlink:href="input__event_8h.html" target="_top" xlink:title="mir_toolkit/events\l/input/input_event.h">
<polygon fill="#ffffff" stroke="#000000" points="1527,-129 1527,-159 1629,-159 1629,-129 1527,-129"/>
<text text-anchor="start" x="1535" y="-147" font-family="Arial" font-size="10.00" fill="#000000">mir_toolkit/events</text>
<text text-anchor="middle" x="1578" y="-136" font-family="Arial" font-size="10.00" fill="#000000">/input/input_event.h</text>
</a>
</g>
</g>
<!-- Node3&#45;&gt;Node8 -->
<g id="edge9" class="edge">
<title>Node3&#45;&gt;Node8</title>
<path fill="none" stroke="#191970" d="M1064.2523,-214.6429C1151.9013,-210.6277 1344.7481,-198.6065 1504,-165 1508.2933,-164.094 1512.7034,-163.0112 1517.1339,-161.8217"/>
<polygon fill="#191970" stroke="#191970" points="1518.1619,-165.1683 1526.8287,-159.0742 1516.2532,-158.4335 1518.1619,-165.1683"/>
</g>
<!-- Node15 -->
<g id="node16" class="node">
<title>Node15</title>
<g id="a_node16"><a xlink:href="resize__event_8h.html" target="_top" xlink:title="mir_toolkit/events\l/resize_event.h">
<polygon fill="#ffffff" stroke="#000000" points="742,-129 742,-159 836,-159 836,-129 742,-129"/>
<text text-anchor="start" x="750" y="-147" font-family="Arial" font-size="10.00" fill="#000000">mir_toolkit/events</text>
<text text-anchor="middle" x="789" y="-136" font-family="Arial" font-size="10.00" fill="#000000">/resize_event.h</text>
</a>
</g>
</g>
<!-- Node3&#45;&gt;Node15 -->
<g id="edge20" class="edge">
<title>Node3&#45;&gt;Node15</title>
<path fill="none" stroke="#191970" d="M969.655,-205.2961C932.776,-195.3415 880.7541,-180.0722 836,-165 833.5891,-164.1881 831.1268,-163.3392 828.6528,-162.4679"/>
<polygon fill="#191970" stroke="#191970" points="829.7316,-159.1363 819.1374,-159.0269 827.3511,-165.7191 829.7316,-159.1363"/>
</g>
<!-- Node16 -->
<g id="node17" class="node">
<title>Node16</title>
<g id="a_node17"><a xlink:href="surface__event_8h.html" target="_top" xlink:title="mir_toolkit/events\l/surface_event.h">
<polygon fill="#ffffff" stroke="#000000" points="370,-129 370,-159 464,-159 464,-129 370,-129"/>
<text text-anchor="start" x="378" y="-147" font-family="Arial" font-size="10.00" fill="#000000">mir_toolkit/events</text>
<text text-anchor="middle" x="417" y="-136" font-family="Arial" font-size="10.00" fill="#000000">/surface_event.h</text>
</a>
</g>
</g>
<!-- Node3&#45;&gt;Node16 -->
<g id="edge22" class="edge">
<title>Node3&#45;&gt;Node16</title>
<path fill="none" stroke="#191970" d="M969.9437,-213.8763C854.467,-206.8511 560.2182,-186.6704 465,-165 461.5535,-164.2156 458.0325,-163.2767 454.5357,-162.2371"/>
<polygon fill="#191970" stroke="#191970" points="455.4193,-158.8442 444.8272,-159.0856 453.258,-165.5022 455.4193,-158.8442"/>
</g>
<!-- Node17 -->
<g id="node18" class="node">
<title>Node17</title>
<g id="a_node18"><a xlink:href="window__event_8h.html" target="_top" xlink:title="mir_toolkit/events\l/window_event.h">
<polygon fill="#ffffff" stroke="#000000" points="854,-129 854,-159 948,-159 948,-129 854,-129"/>
<text text-anchor="start" x="862" y="-147" font-family="Arial" font-size="10.00" fill="#000000">mir_toolkit/events</text>
<text text-anchor="middle" x="901" y="-136" font-family="Arial" font-size="10.00" fill="#000000">/window_event.h</text>
</a>
</g>
</g>
<!-- Node3&#45;&gt;Node17 -->
<g id="edge25" class="edge">
<title>Node3&#45;&gt;Node17</title>
<path fill="none" stroke="#191970" d="M987.372,-201.478C969.104,-190.8821 945.9784,-176.5502 928.1813,-164.8486"/>
<polygon fill="#191970" stroke="#191970" points="929.6759,-161.6385 919.4141,-159.0028 925.7925,-167.4625 929.6759,-161.6385"/>
</g>
<!-- Node18 -->
<g id="node19" class="node">
<title>Node18</title>
<g id="a_node19"><a xlink:href="orientation__event_8h.html" target="_top" xlink:title="mir_toolkit/events\l/orientation_event.h">
<polygon fill="#ffffff" stroke="#000000" points="966,-129 966,-159 1068,-159 1068,-129 966,-129"/>
<text text-anchor="start" x="974" y="-147" font-family="Arial" font-size="10.00" fill="#000000">mir_toolkit/events</text>
<text text-anchor="middle" x="1017" y="-136" font-family="Arial" font-size="10.00" fill="#000000">/orientation_event.h</text>
</a>
</g>
</g>
<!-- Node3&#45;&gt;Node18 -->
<g id="edge27" class="edge">
<title>Node3&#45;&gt;Node18</title>
<path fill="none" stroke="#191970" d="M1011.4073,-201.478C1010.2494,-192.1459 1009.9604,-179.9157 1010.5402,-169.1368"/>
<polygon fill="#191970" stroke="#191970" points="1014.042,-169.2654 1011.4097,-159.0028 1007.0676,-168.667 1014.042,-169.2654"/>
</g>
<!-- Node19 -->
<g id="node20" class="node">
<title>Node19</title>
<g id="a_node20"><a xlink:href="prompt__session__event_8h.html" target="_top" xlink:title="mir_toolkit/events\l/prompt_session_event.h">
<polygon fill="#ffffff" stroke="#000000" points="1086,-129 1086,-159 1212,-159 1212,-129 1086,-129"/>
<text text-anchor="start" x="1094" y="-147" font-family="Arial" font-size="10.00" fill="#000000">mir_toolkit/events</text>
<text text-anchor="middle" x="1149" y="-136" font-family="Arial" font-size="10.00" fill="#000000">/prompt_session_event.h</text>
</a>
</g>
</g>
<!-- Node3&#45;&gt;Node19 -->
<g id="edge29" class="edge">
<title>Node3&#45;&gt;Node19</title>
<path fill="none" stroke="#191970" d="M1038.7578,-201.478C1057.312,-190.5419 1084.3056,-175.626 1106.9946,-163.7297"/>
<polygon fill="#191970" stroke="#191970" points="1108.8335,-166.7185 1116.0942,-159.0028 1105.6066,-160.5066 1108.8335,-166.7185"/>
</g>
<!-- Node20 -->
<g id="node21" class="node">
<title>Node20</title>
<g id="a_node21"><a xlink:href="keymap__event_8h.html" target="_top" xlink:title="mir_toolkit/events\l/keymap_event.h">
<polygon fill="#ffffff" stroke="#000000" points="1647,-129 1647,-159 1741,-159 1741,-129 1647,-129"/>
<text text-anchor="start" x="1655" y="-147" font-family="Arial" font-size="10.00" fill="#000000">mir_toolkit/events</text>
<text text-anchor="middle" x="1694" y="-136" font-family="Arial" font-size="10.00" fill="#000000">/keymap_event.h</text>
</a>
</g>
</g>
<!-- Node3&#45;&gt;Node20 -->
<g id="edge31" class="edge">
<title>Node3&#45;&gt;Node20</title>
<path fill="none" stroke="#191970" d="M1064.3121,-214.0502C1188.4861,-207.6538 1520.9358,-189.2511 1629,-165 1632.5523,-164.2028 1636.182,-163.2301 1639.8245,-162.1448"/>
<polygon fill="#191970" stroke="#191970" points="1641.0009,-165.4431 1649.4514,-159.0525 1638.8601,-158.7785 1641.0009,-165.4431"/>
</g>
<!-- Node21 -->
<g id="node22" class="node">
<title>Node21</title>
<g id="a_node22"><a xlink:href="input__configuration__event_8h.html" target="_top" xlink:title="mir_toolkit/events\l/input_configuration\l_event.h">
<polygon fill="#ffffff" stroke="#000000" points="482.5,-123.5 482.5,-164.5 583.5,-164.5 583.5,-123.5 482.5,-123.5"/>
<text text-anchor="start" x="490.5" y="-152.5" font-family="Arial" font-size="10.00" fill="#000000">mir_toolkit/events</text>
<text text-anchor="start" x="490.5" y="-141.5" font-family="Arial" font-size="10.00" fill="#000000">/input_configuration</text>
<text text-anchor="middle" x="533" y="-130.5" font-family="Arial" font-size="10.00" fill="#000000">_event.h</text>
</a>
</g>
</g>
<!-- Node3&#45;&gt;Node21 -->
<g id="edge34" class="edge">
<title>Node3&#45;&gt;Node21</title>
<path fill="none" stroke="#191970" d="M969.9778,-214.4201C891.513,-210.0495 729.5807,-197.6758 591.9254,-166.7921"/>
<polygon fill="#191970" stroke="#191970" points="592.5862,-163.3529 582.0576,-164.5363 591.0262,-170.1769 592.5862,-163.3529"/>
</g>
<!-- Node22 -->
<g id="node23" class="node">
<title>Node22</title>
<g id="a_node23"><a xlink:href="surface__output__event_8h.html" target="_top" xlink:title="mir_toolkit/events\l/surface_output_event.h">
<polygon fill="#ffffff" stroke="#000000" points="602,-129 602,-159 724,-159 724,-129 602,-129"/>
<text text-anchor="start" x="610" y="-147" font-family="Arial" font-size="10.00" fill="#000000">mir_toolkit/events</text>
<text text-anchor="middle" x="663" y="-136" font-family="Arial" font-size="10.00" fill="#000000">/surface_output_event.h</text>
</a>
</g>
</g>
<!-- Node3&#45;&gt;Node22 -->
<g id="edge37" class="edge">
<title>Node3&#45;&gt;Node22</title>
<path fill="none" stroke="#191970" d="M969.9316,-210.5464C911.5446,-202.1517 809.6385,-185.5422 724,-165 719.9054,-164.0178 715.6959,-162.9374 711.4899,-161.8006"/>
<polygon fill="#191970" stroke="#191970" points="712.3113,-158.396 701.7376,-159.0658 710.4212,-165.136 712.3113,-158.396"/>
</g>
<!-- Node23 -->
<g id="node24" class="node">
<title>Node23</title>
<g id="a_node24"><a xlink:href="window__output__event_8h.html" target="_top" xlink:title="mir_toolkit/events\l/window_output_event.h">
<polygon fill="#ffffff" stroke="#000000" points="1230.5,-129 1230.5,-159 1351.5,-159 1351.5,-129 1230.5,-129"/>
<text text-anchor="start" x="1238.5" y="-147" font-family="Arial" font-size="10.00" fill="#000000">mir_toolkit/events</text>
<text text-anchor="middle" x="1291" y="-136" font-family="Arial" font-size="10.00" fill="#000000">/window_output_event.h</text>
</a>
</g>
</g>
<!-- Node3&#45;&gt;Node23 -->
<g id="edge40" class="edge">
<title>Node3&#45;&gt;Node23</title>
<path fill="none" stroke="#191970" d="M1064.2899,-203.381C1103.8959,-193.3413 1161.6489,-178.901 1212,-165 1215.5735,-164.0134 1219.2432,-162.9785 1222.954,-161.9191"/>
<polygon fill="#191970" stroke="#191970" points="1224.1934,-165.2045 1232.8345,-159.074 1222.2564,-158.4778 1224.1934,-165.2045"/>
</g>
<!-- Node24 -->
<g id="node25" class="node">
<title>Node24</title>
<g id="a_node25"><a xlink:href="input__device__state__event_8h.html" target="_top" xlink:title="mir_toolkit/events\l/input_device_state\l_event.h">
<polygon fill="#ffffff" stroke="#000000" points="1369.5,-123.5 1369.5,-164.5 1470.5,-164.5 1470.5,-123.5 1369.5,-123.5"/>
<text text-anchor="start" x="1377.5" y="-152.5" font-family="Arial" font-size="10.00" fill="#000000">mir_toolkit/events</text>
<text text-anchor="start" x="1377.5" y="-141.5" font-family="Arial" font-size="10.00" fill="#000000">/input_device_state</text>
<text text-anchor="middle" x="1420" y="-130.5" font-family="Arial" font-size="10.00" fill="#000000">_event.h</text>
</a>
</g>
</g>
<!-- Node3&#45;&gt;Node24 -->
<g id="edge42" class="edge">
<title>Node3&#45;&gt;Node24</title>
<path fill="none" stroke="#191970" d="M1064.1357,-211.7401C1129.5377,-204.9265 1250.8024,-190.3316 1352,-165 1354.5808,-164.354 1357.2072,-163.6396 1359.8548,-162.8759"/>
<polygon fill="#191970" stroke="#191970" points="1360.9521,-166.2004 1369.4908,-159.9281 1358.9044,-159.5066 1360.9521,-166.2004"/>
</g>
<!-- Node6&#45;&gt;Node7 -->
<g id="edge7" class="edge">
<title>Node6&#45;&gt;Node7</title>
<path fill="none" stroke="#191970" d="M270.1937,-134.2223C283.7588,-122.3733 306.8227,-102.2272 323.1472,-87.9678"/>
<polygon fill="#191970" stroke="#191970" points="325.7547,-90.3374 330.9836,-81.1228 321.1497,-85.0654 325.7547,-90.3374"/>
</g>
<!-- Node8&#45;&gt;Node3 -->
<g id="edge10" class="edge">
<title>Node8&#45;&gt;Node3</title>
<path fill="none" stroke="#191970" d="M1544.5474,-159.0742C1537.2019,-161.3368 1529.4262,-163.4329 1522,-165 1362.3788,-198.6844 1169.0066,-210.6834 1074.4654,-214.6707"/>
<polygon fill="#191970" stroke="#191970" points="1074.1062,-211.1823 1064.2568,-215.086 1074.3908,-218.1765 1074.1062,-211.1823"/>
</g>
<!-- Node8&#45;&gt;Node5 -->
<g id="edge13" class="edge">
<title>Node8&#45;&gt;Node5</title>
<path fill="none" stroke="#191970" d="M1601.7969,-128.722C1626.5937,-110.9039 1659.338,-80.7352 1640,-56 1621.6738,-32.559 1537.8264,-19.3537 1489.5387,-13.5695"/>
<polygon fill="#191970" stroke="#191970" points="1489.8586,-10.0833 1479.5236,-12.415 1489.057,-17.0372 1489.8586,-10.0833"/>
</g>
<!-- Node9 -->
<g id="node10" class="node">
<title>Node9</title>
<g id="a_node10"><a xlink:href="mir__input__device__types_8h.html" target="_top" xlink:title="mir_toolkit/mir_input\l_device_types.h">
<polygon fill="#ffffff" stroke="#000000" points="1403,-56.5 1403,-86.5 1507,-86.5 1507,-56.5 1403,-56.5"/>
<text text-anchor="start" x="1411" y="-74.5" font-family="Arial" font-size="10.00" fill="#000000">mir_toolkit/mir_input</text>
<text text-anchor="middle" x="1455" y="-63.5" font-family="Arial" font-size="10.00" fill="#000000">_device_types.h</text>
</a>
</g>
</g>
<!-- Node8&#45;&gt;Node9 -->
<g id="edge11" class="edge">
<title>Node8&#45;&gt;Node9</title>
<path fill="none" stroke="#191970" d="M1552.5143,-128.978C1534.2081,-118.1877 1509.3287,-103.523 1489.2824,-91.7071"/>
<polygon fill="#191970" stroke="#191970" points="1490.8451,-88.5655 1480.453,-86.5028 1487.2906,-94.5959 1490.8451,-88.5655"/>
</g>
<!-- Node10 -->
<g id="node11" class="node">
<title>Node10</title>
<polygon fill="#ffffff" stroke="#bfbfbf" points="1710,-.5 1710,-19.5 1766,-19.5 1766,-.5 1710,-.5"/>
<text text-anchor="middle" x="1738" y="-7.5" font-family="Arial" font-size="10.00" fill="#000000">stdbool.h</text>
</g>
<!-- Node8&#45;&gt;Node10 -->
<g id="edge14" class="edge">
<title>Node8&#45;&gt;Node10</title>
<path fill="none" stroke="#191970" d="M1600.0603,-128.9678C1615.9855,-117.8572 1637.799,-102.0992 1656,-87 1679.6372,-67.391 1705.1786,-42.8155 1721.3643,-26.7757"/>
<polygon fill="#191970" stroke="#191970" points="1723.9025,-29.1875 1728.5091,-19.6465 1718.9581,-24.2323 1723.9025,-29.1875"/>
</g>
<!-- Node11 -->
<g id="node12" class="node">
<title>Node11</title>
<g id="a_node12"><a xlink:href="touch__event_8h.html" target="_top" xlink:title="mir_toolkit/events\l/input/touch_event.h">
<polygon fill="#ffffff" stroke="#000000" points="1525.5,-56.5 1525.5,-86.5 1630.5,-86.5 1630.5,-56.5 1525.5,-56.5"/>
<text text-anchor="start" x="1533.5" y="-74.5" font-family="Arial" font-size="10.00" fill="#000000">mir_toolkit/events</text>
<text text-anchor="middle" x="1578" y="-63.5" font-family="Arial" font-size="10.00" fill="#000000">/input/touch_event.h</text>
</a>
</g>
</g>
<!-- Node8&#45;&gt;Node11 -->
<g id="edge15" class="edge">
<title>Node8&#45;&gt;Node11</title>
<path fill="none" stroke="#191970" d="M1578,-128.978C1578,-119.6459 1578,-107.4157 1578,-96.6368"/>
<polygon fill="#191970" stroke="#191970" points="1581.5001,-96.5028 1578,-86.5028 1574.5001,-96.5028 1581.5001,-96.5028"/>
</g>
<!-- Node12 -->
<g id="node13" class="node">
<title>Node12</title>
<g id="a_node13"><a xlink:href="keyboard__event_8h.html" target="_top" xlink:title="mir_toolkit/events\l/input/keyboard_event.h">
<polygon fill="#ffffff" stroke="#000000" points="1853.5,-56.5 1853.5,-86.5 1974.5,-86.5 1974.5,-56.5 1853.5,-56.5"/>
<text text-anchor="start" x="1861.5" y="-74.5" font-family="Arial" font-size="10.00" fill="#000000">mir_toolkit/events</text>
<text text-anchor="middle" x="1914" y="-63.5" font-family="Arial" font-size="10.00" fill="#000000">/input/keyboard_event.h</text>
</a>
</g>
</g>
<!-- Node8&#45;&gt;Node12 -->
<g id="edge16" class="edge">
<title>Node8&#45;&gt;Node12</title>
<path fill="none" stroke="#191970" d="M1618.0637,-128.9629C1624.6686,-126.7778 1631.4853,-124.6971 1638,-123 1724.8672,-100.3705 1751.0496,-104.7104 1843.2827,-87.0671"/>
<polygon fill="#191970" stroke="#191970" points="1844.1829,-90.4575 1853.3287,-85.1091 1842.8438,-83.5868 1844.1829,-90.4575"/>
</g>
<!-- Node14 -->
<g id="node15" class="node">
<title>Node14</title>
<g id="a_node15"><a xlink:href="pointer__event_8h.html" target="_top" xlink:title="mir_toolkit/events\l/input/pointer_event.h">
<polygon fill="#ffffff" stroke="#000000" points="1725,-56.5 1725,-86.5 1835,-86.5 1835,-56.5 1725,-56.5"/>
<text text-anchor="start" x="1733" y="-74.5" font-family="Arial" font-size="10.00" fill="#000000">mir_toolkit/events</text>
<text text-anchor="middle" x="1780" y="-63.5" font-family="Arial" font-size="10.00" fill="#000000">/input/pointer_event.h</text>
</a>
</g>
</g>
<!-- Node8&#45;&gt;Node14 -->
<g id="edge18" class="edge">
<title>Node8&#45;&gt;Node14</title>
<path fill="none" stroke="#191970" d="M1619.8545,-128.978C1651.408,-117.6531 1694.8528,-102.0603 1728.5318,-89.9725"/>
<polygon fill="#191970" stroke="#191970" points="1729.9693,-93.1752 1738.1991,-86.5028 1727.6046,-86.5867 1729.9693,-93.1752"/>
</g>
<!-- Node9&#45;&gt;Node5 -->
<g id="edge12" class="edge">
<title>Node9&#45;&gt;Node5</title>
<path fill="none" stroke="#191970" d="M1455,-56.2977C1455,-48.3834 1455,-38.6043 1455,-30.0759"/>
<polygon fill="#191970" stroke="#191970" points="1458.5001,-29.8469 1455,-19.8469 1451.5001,-29.847 1458.5001,-29.8469"/>
</g>
<!-- Node13 -->
<g id="node14" class="node">
<title>Node13</title>
<polygon fill="#ffffff" stroke="#bfbfbf" points="1891,-.5 1891,-19.5 2025,-19.5 2025,-.5 1891,-.5"/>
<text text-anchor="middle" x="1958" y="-7.5" font-family="Arial" font-size="10.00" fill="#000000">xkbcommon/xkbcommon.h</text>
</g>
<!-- Node12&#45;&gt;Node13 -->
<g id="edge17" class="edge">
<title>Node12&#45;&gt;Node13</title>
<path fill="none" stroke="#191970" d="M1924.8764,-56.2977C1930.9841,-47.7609 1938.6439,-37.0545 1945.0588,-28.0883"/>
<polygon fill="#191970" stroke="#191970" points="1947.9829,-30.0163 1950.955,-19.8469 1942.2899,-25.9433 1947.9829,-30.0163"/>
</g>
<!-- Node14&#45;&gt;Node10 -->
<g id="edge19" class="edge">
<title>Node14&#45;&gt;Node10</title>
<path fill="none" stroke="#191970" d="M1769.618,-56.2977C1763.8487,-47.8498 1756.6284,-37.2773 1750.5447,-28.369"/>
<polygon fill="#191970" stroke="#191970" points="1753.2547,-26.1311 1744.7247,-19.8469 1747.4741,-30.0788 1753.2547,-26.1311"/>
</g>
<!-- Node15&#45;&gt;Node3 -->
<g id="edge21" class="edge">
<title>Node15&#45;&gt;Node3</title>
<path fill="none" stroke="#191970" d="M836.0233,-158.6943C842.0901,-160.8753 848.1942,-163.0447 854,-165 889.4523,-176.9395 929.4651,-189.0028 961.0441,-198.4498"/>
<polygon fill="#191970" stroke="#191970" points="960.4006,-201.9104 970.9841,-201.4216 962.4058,-195.2038 960.4006,-201.9104"/>
</g>
<!-- Node16&#45;&gt;Node3 -->
<g id="edge23" class="edge">
<title>Node16&#45;&gt;Node3</title>
<path fill="none" stroke="#191970" d="M462.5325,-159.0856C469.3515,-161.3763 476.316,-163.4788 483,-165 572.9639,-185.4746 840.5984,-204.6193 959.3181,-212.5951"/>
<polygon fill="#191970" stroke="#191970" points="959.44,-216.111 969.6514,-213.2864 959.9074,-209.1266 959.44,-216.111"/>
</g>
<!-- Node16&#45;&gt;Node7 -->
<g id="edge24" class="edge">
<title>Node16&#45;&gt;Node7</title>
<path fill="none" stroke="#191970" d="M401.46,-128.978C389.2371,-117.1625 372.2083,-100.7013 359.5055,-88.422"/>
<polygon fill="#191970" stroke="#191970" points="361.8594,-85.8294 352.2369,-81.3957 356.9942,-90.8624 361.8594,-85.8294"/>
</g>
<!-- Node17&#45;&gt;Node3 -->
<g id="edge26" class="edge">
<title>Node17&#45;&gt;Node3</title>
<path fill="none" stroke="#191970" d="M930.5948,-159.0028C948.8569,-169.5941 971.9828,-183.9253 989.7864,-195.6302"/>
<polygon fill="#191970" stroke="#191970" points="988.2956,-198.8428 998.5575,-201.478 992.1787,-193.0185 988.2956,-198.8428"/>
</g>
<!-- Node18&#45;&gt;Node3 -->
<g id="edge28" class="edge">
<title>Node18&#45;&gt;Node3</title>
<path fill="none" stroke="#191970" d="M1022.5903,-159.0028C1023.7494,-168.3309 1024.0396,-180.5601 1023.461,-191.3409"/>
<polygon fill="#191970" stroke="#191970" points="1019.959,-191.2157 1022.5927,-201.478 1026.9334,-191.8132 1019.959,-191.2157"/>
</g>
<!-- Node19&#45;&gt;Node3 -->
<g id="edge30" class="edge">
<title>Node19&#45;&gt;Node3</title>
<path fill="none" stroke="#191970" d="M1127.2749,-159.0028C1108.7305,-169.9342 1081.7394,-184.8495 1059.0454,-196.7494"/>
<polygon fill="#191970" stroke="#191970" points="1057.2037,-193.762 1049.9432,-201.478 1060.4307,-199.9738 1057.2037,-193.762"/>
</g>
<!-- Node20&#45;&gt;Node3 -->
<g id="edge32" class="edge">
<title>Node20&#45;&gt;Node3</title>
<path fill="none" stroke="#191970" d="M1667.143,-159.0525C1660.6477,-161.3768 1653.6867,-163.4994 1647,-165 1539.2363,-189.1836 1208.3332,-207.5514 1074.2201,-213.9965"/>
<polygon fill="#191970" stroke="#191970" points="1073.9687,-210.5044 1064.1464,-214.4759 1074.3015,-217.4965 1073.9687,-210.5044"/>
</g>
<!-- Node20&#45;&gt;Node13 -->
<g id="edge33" class="edge">
<title>Node20&#45;&gt;Node13</title>
<path fill="none" stroke="#191970" d="M1731.0066,-128.9039C1737.2755,-126.6996 1743.7717,-124.6283 1750,-123 1800.9011,-109.6928 1949.7428,-126.9305 1984,-87 1998.5516,-70.0385 1985.1437,-44.5895 1972.8037,-27.6487"/>
<polygon fill="#191970" stroke="#191970" points="1975.4971,-25.4105 1966.6017,-19.6553 1969.9666,-29.7016 1975.4971,-25.4105"/>
</g>
<!-- Node21&#45;&gt;Node3 -->
<g id="edge35" class="edge">
<title>Node21&#45;&gt;Node3</title>
<path fill="none" stroke="#191970" d="M583.527,-159.8586C589.7238,-161.8051 595.9807,-163.5984 602,-165 727.7928,-194.2907 878.6916,-207.5641 959.4648,-213.0567"/>
<polygon fill="#191970" stroke="#191970" points="959.7018,-216.5801 969.9117,-213.7502 960.1655,-209.5954 959.7018,-216.5801"/>
</g>
<!-- Node21&#45;&gt;Node7 -->
<g id="edge36" class="edge">
<title>Node21&#45;&gt;Node7</title>
<path fill="none" stroke="#191970" d="M482.317,-124.7617C448.9546,-112.098 406.1551,-95.8521 376.6443,-84.6503"/>
<polygon fill="#191970" stroke="#191970" points="377.7698,-81.3339 367.1786,-81.0573 375.2857,-87.8783 377.7698,-81.3339"/>
</g>
<!-- Node22&#45;&gt;Node3 -->
<g id="edge38" class="edge">
<title>Node22&#45;&gt;Node3</title>
<path fill="none" stroke="#191970" d="M719.5173,-159.0658C727.0785,-161.1972 734.7206,-163.2539 742,-165 816.7719,-182.9356 903.9449,-197.8732 959.8491,-206.9628"/>
<polygon fill="#191970" stroke="#191970" points="959.483,-210.449 969.9137,-208.5913 960.6012,-203.5388 959.483,-210.449"/>
</g>
<!-- Node22&#45;&gt;Node7 -->
<g id="edge39" class="edge">
<title>Node22&#45;&gt;Node7</title>
<path fill="none" stroke="#191970" d="M614.9573,-128.9732C607.6313,-126.8602 600.1358,-124.7986 593,-123 529.7128,-107.048 456.5228,-92.4648 405.5687,-82.9211"/>
<polygon fill="#191970" stroke="#191970" points="406.1556,-79.4703 395.6839,-81.0807 404.8743,-86.3521 406.1556,-79.4703"/>
</g>
<!-- Node23&#45;&gt;Node3 -->
<g id="edge41" class="edge">
<title>Node23&#45;&gt;Node3</title>
<path fill="none" stroke="#191970" d="M1250.656,-159.074C1243.794,-161.1144 1236.7267,-163.1429 1230,-165 1177.571,-179.4746 1117.1166,-194.5341 1073.939,-204.6011"/>
<polygon fill="#191970" stroke="#191970" points="1073.1292,-201.196 1064.1755,-206.8601 1074.7071,-208.0158 1073.1292,-201.196"/>
</g>
<!-- Node24&#45;&gt;Node3 -->
<g id="edge43" class="edge">
<title>Node24&#45;&gt;Node3</title>
<path fill="none" stroke="#191970" d="M1371.9061,-164.5127C1371.2684,-164.6791 1370.6328,-164.8416 1370,-165 1267.6834,-190.6117 1144.8535,-205.248 1074.2702,-211.9633"/>
<polygon fill="#191970" stroke="#191970" points="1073.8764,-208.4847 1064.244,-212.8969 1074.5255,-215.4545 1073.8764,-208.4847"/>
</g>
</g>
</svg>
