<?xml version="1.0" encoding="UTF-8" standalone="no"?>
<!DOCTYPE svg PUBLIC "-//W3C//DTD SVG 1.1//EN"
 "http://www.w3.org/Graphics/SVG/1.1/DTD/svg11.dtd">
<!-- Generated by graphviz version 2.38.0 (20140413.2041)
 -->
<!-- Title: include/client/mir_toolkit/mir_display_configuration.h Pages: 1 -->
<svg width="3951pt" height="284pt"
 viewBox="0.00 0.00 3950.50 284.00" xmlns="http://www.w3.org/2000/svg" xmlns:xlink="http://www.w3.org/1999/xlink">
<g id="graph0" class="graph" transform="scale(1 1) rotate(0) translate(4 280)">
<title>include/client/mir_toolkit/mir_display_configuration.h</title>
<polygon fill="white" stroke="none" points="-4,4 -4,-280 3946.5,-280 3946.5,4 -4,4"/>
<!-- Node24 -->
<g id="node1" class="node"><title>Node24</title>
<polygon fill="#bfbfbf" stroke="black" points="1184,-234.5 1184,-275.5 1285,-275.5 1285,-234.5 1184,-234.5"/>
<text text-anchor="start" x="1192" y="-263.5" font-family="Arial" font-size="10.00">include/client/mir</text>
<text text-anchor="start" x="1192" y="-252.5" font-family="Arial" font-size="10.00">_toolkit/mir_display</text>
<text text-anchor="middle" x="1234.5" y="-241.5" font-family="Arial" font-size="10.00">_configuration.h</text>
</g>
<!-- Node25 -->
<g id="node2" class="node"><title>Node25</title>
<g id="a_node2"><a xlink:href="display__config_8h.html" target="_top" xlink:title="include/client/mir\l/client/display_config.h">
<polygon fill="white" stroke="black" points="196.5,-162 196.5,-192 312.5,-192 312.5,-162 196.5,-162"/>
<text text-anchor="start" x="204.5" y="-180" font-family="Arial" font-size="10.00">include/client/mir</text>
<text text-anchor="middle" x="254.5" y="-169" font-family="Arial" font-size="10.00">/client/display_config.h</text>
</a>
</g>
</g>
<!-- Node24&#45;&gt;Node25 -->
<g id="edge1" class="edge"><title>Node24&#45;&gt;Node25</title>
<path fill="none" stroke="midnightblue" d="M1173.73,-249.287C997.187,-235.596 485.941,-195.948 312.699,-182.513"/>
<polygon fill="midnightblue" stroke="midnightblue" points="1173.63,-252.79 1183.87,-250.074 1174.18,-245.811 1173.63,-252.79"/>
</g>
<!-- Node29 -->
<g id="node6" class="node"><title>Node29</title>
<g id="a_node6"><a xlink:href="mir__client__library_8h.html" target="_top" xlink:title="include/client/mir\l_toolkit/mir_client\l_library.h">
<polygon fill="white" stroke="black" points="2102,-156.5 2102,-197.5 2195,-197.5 2195,-156.5 2102,-156.5"/>
<text text-anchor="start" x="2110" y="-185.5" font-family="Arial" font-size="10.00">include/client/mir</text>
<text text-anchor="start" x="2110" y="-174.5" font-family="Arial" font-size="10.00">_toolkit/mir_client</text>
<text text-anchor="middle" x="2148.5" y="-163.5" font-family="Arial" font-size="10.00">_library.h</text>
</a>
</g>
</g>
<!-- Node24&#45;&gt;Node29 -->
<g id="edge5" class="edge"><title>Node24&#45;&gt;Node29</title>
<path fill="none" stroke="midnightblue" d="M1295.36,-248.939C1466.52,-234.707 1949.49,-194.547 2101.85,-181.879"/>
<polygon fill="midnightblue" stroke="midnightblue" points="1294.95,-245.462 1285.27,-249.778 1295.53,-252.438 1294.95,-245.462"/>
</g>
<!-- Node26 -->
<g id="node3" class="node"><title>Node26</title>
<g id="a_node3"><a xlink:href="sw__splash_8cpp.html" target="_top" xlink:title="examples/miral&#45;kiosk\l/sw_splash.cpp">
<polygon fill="white" stroke="black" points="0,-84 0,-114 109,-114 109,-84 0,-84"/>
<text text-anchor="start" x="8" y="-102" font-family="Arial" font-size="10.00">examples/miral&#45;kiosk</text>
<text text-anchor="middle" x="54.5" y="-91" font-family="Arial" font-size="10.00">/sw_splash.cpp</text>
</a>
</g>
</g>
<!-- Node25&#45;&gt;Node26 -->
<g id="edge2" class="edge"><title>Node25&#45;&gt;Node26</title>
<path fill="none" stroke="midnightblue" d="M207.709,-158.219C172.26,-144.749 124.225,-126.496 91.4508,-114.041"/>
<polygon fill="midnightblue" stroke="midnightblue" points="206.759,-161.603 217.35,-161.883 209.246,-155.059 206.759,-161.603"/>
</g>
<!-- Node27 -->
<g id="node4" class="node"><title>Node27</title>
<g id="a_node4"><a xlink:href="decoration__provider_8cpp.html" target="_top" xlink:title="examples/miral&#45;shell\l/decoration_provider.cpp">
<polygon fill="white" stroke="black" points="127.5,-84 127.5,-114 249.5,-114 249.5,-84 127.5,-84"/>
<text text-anchor="start" x="135.5" y="-102" font-family="Arial" font-size="10.00">examples/miral&#45;shell</text>
<text text-anchor="middle" x="188.5" y="-91" font-family="Arial" font-size="10.00">/decoration_provider.cpp</text>
</a>
</g>
</g>
<!-- Node25&#45;&gt;Node27 -->
<g id="edge3" class="edge"><title>Node25&#45;&gt;Node27</title>
<path fill="none" stroke="midnightblue" d="M235.227,-153.807C224.134,-141.033 210.523,-125.36 200.858,-114.231"/>
<polygon fill="midnightblue" stroke="midnightblue" points="232.886,-156.45 242.086,-161.705 238.172,-151.86 232.886,-156.45"/>
</g>
<!-- Node28 -->
<g id="node5" class="node"><title>Node28</title>
<g id="a_node5"><a xlink:href="eglapp_8cpp.html" target="_top" xlink:title="examples/miral&#45;shell\l/spinner/eglapp.cpp">
<polygon fill="white" stroke="black" points="267.5,-84 267.5,-114 373.5,-114 373.5,-84 267.5,-84"/>
<text text-anchor="start" x="275.5" y="-102" font-family="Arial" font-size="10.00">examples/miral&#45;shell</text>
<text text-anchor="middle" x="320.5" y="-91" font-family="Arial" font-size="10.00">/spinner/eglapp.cpp</text>
</a>
</g>
</g>
<!-- Node25&#45;&gt;Node28 -->
<g id="edge4" class="edge"><title>Node25&#45;&gt;Node28</title>
<path fill="none" stroke="midnightblue" d="M273.773,-153.807C284.866,-141.033 298.477,-125.36 308.142,-114.231"/>
<polygon fill="midnightblue" stroke="midnightblue" points="270.828,-151.86 266.914,-161.705 276.114,-156.45 270.828,-151.86"/>
</g>
<!-- Node30 -->
<g id="node7" class="node"><title>Node30</title>
<g id="a_node7"><a xlink:href="animated__cursor__demo__client_8c.html" target="_top" xlink:title="examples/animated_cursor\l_demo_client.c">
<polygon fill="white" stroke="black" points="3064.5,-84 3064.5,-114 3198.5,-114 3198.5,-84 3064.5,-84"/>
<text text-anchor="start" x="3072.5" y="-102" font-family="Arial" font-size="10.00">examples/animated_cursor</text>
<text text-anchor="middle" x="3131.5" y="-91" font-family="Arial" font-size="10.00">_demo_client.c</text>
</a>
</g>
</g>
<!-- Node29&#45;&gt;Node30 -->
<g id="edge6" class="edge"><title>Node29&#45;&gt;Node30</title>
<path fill="none" stroke="midnightblue" d="M2205.42,-176.334C2348.99,-176.345 2737.14,-171.211 3055.5,-120 3064.79,-118.505 3074.6,-116.363 3083.97,-114.031"/>
<polygon fill="midnightblue" stroke="midnightblue" points="2205.11,-172.834 2195.1,-176.324 2205.1,-179.834 2205.11,-172.834"/>
</g>
<!-- Node31 -->
<g id="node8" class="node"><title>Node31</title>
<g id="a_node8"><a xlink:href="basic_8c.html" target="_top" xlink:title="examples/basic.c">
<polygon fill="white" stroke="black" points="3217,-89.5 3217,-108.5 3310,-108.5 3310,-89.5 3217,-89.5"/>
<text text-anchor="middle" x="3263.5" y="-96.5" font-family="Arial" font-size="10.00">examples/basic.c</text>
</a>
</g>
</g>
<!-- Node29&#45;&gt;Node31 -->
<g id="edge7" class="edge"><title>Node29&#45;&gt;Node31</title>
<path fill="none" stroke="midnightblue" d="M2205.26,-175.164C2396.03,-172.015 3013.07,-158.993 3207.5,-120 3219.95,-117.503 3233.36,-112.789 3243.94,-108.564"/>
<polygon fill="midnightblue" stroke="midnightblue" points="2205.11,-171.666 2195.17,-175.328 2205.22,-178.665 2205.11,-171.666"/>
</g>
<!-- Node32 -->
<g id="node9" class="node"><title>Node32</title>
<g id="a_node9"><a xlink:href="camera_8c.html" target="_top" xlink:title="examples/camera.c">
<polygon fill="white" stroke="black" points="3328.5,-89.5 3328.5,-108.5 3430.5,-108.5 3430.5,-89.5 3328.5,-89.5"/>
<text text-anchor="middle" x="3379.5" y="-96.5" font-family="Arial" font-size="10.00">examples/camera.c</text>
</a>
</g>
</g>
<!-- Node29&#45;&gt;Node32 -->
<g id="edge8" class="edge"><title>Node29&#45;&gt;Node32</title>
<path fill="none" stroke="midnightblue" d="M2205.31,-175.339C2408.99,-172.65 3101.96,-160.658 3319.5,-120 3332.78,-117.519 3347.15,-112.805 3358.49,-108.576"/>
<polygon fill="midnightblue" stroke="midnightblue" points="2205.09,-171.842 2195.14,-175.471 2205.18,-178.841 2205.09,-171.842"/>
</g>
<!-- Node33 -->
<g id="node10" class="node"><title>Node33</title>
<g id="a_node10"><a xlink:href="client__helpers_8h.html" target="_top" xlink:title="examples/client_helpers.h">
<polygon fill="white" stroke="black" points="2754.5,-89.5 2754.5,-108.5 2884.5,-108.5 2884.5,-89.5 2754.5,-89.5"/>
<text text-anchor="middle" x="2819.5" y="-96.5" font-family="Arial" font-size="10.00">examples/client_helpers.h</text>
</a>
</g>
</g>
<!-- Node29&#45;&gt;Node33 -->
<g id="edge9" class="edge"><title>Node29&#45;&gt;Node33</title>
<path fill="none" stroke="midnightblue" d="M2205.54,-173.885C2312.28,-169.214 2549.2,-155.466 2745.5,-120 2761.22,-117.161 2778.46,-112.589 2792.34,-108.532"/>
<polygon fill="midnightblue" stroke="midnightblue" points="2205.15,-170.398 2195.31,-174.322 2205.45,-177.392 2205.15,-170.398"/>
</g>
<!-- Node34 -->
<g id="node11" class="node"><title>Node34</title>
<g id="a_node11"><a xlink:href="client__helpers_8cpp.html" target="_top" xlink:title="examples/client_helpers.cpp">
<polygon fill="white" stroke="black" points="2869.5,-11.5 2869.5,-30.5 3009.5,-30.5 3009.5,-11.5 2869.5,-11.5"/>
<text text-anchor="middle" x="2939.5" y="-18.5" font-family="Arial" font-size="10.00">examples/client_helpers.cpp</text>
</a>
</g>
</g>
<!-- Node29&#45;&gt;Node34 -->
<g id="edge14" class="edge"><title>Node29&#45;&gt;Node34</title>
<path fill="none" stroke="midnightblue" d="M2205.42,-175.698C2449.39,-174.132 3396.26,-165.152 3439.5,-120 3452.41,-106.518 3451.94,-91.9145 3439.5,-78 3425.34,-62.1698 3144.08,-38.0684 3009.75,-27.4021"/>
<polygon fill="midnightblue" stroke="midnightblue" points="2205.33,-172.199 2195.35,-175.761 2205.37,-179.199 2205.33,-172.199"/>
</g>
<!-- Node35 -->
<g id="node12" class="node"><title>Node35</title>
<g id="a_node12"><a xlink:href="eglsquare_8cpp.html" target="_top" xlink:title="examples/eglsquare.cpp">
<polygon fill="white" stroke="black" points="3267.5,-11.5 3267.5,-30.5 3389.5,-30.5 3389.5,-11.5 3267.5,-11.5"/>
<text text-anchor="middle" x="3328.5" y="-18.5" font-family="Arial" font-size="10.00">examples/eglsquare.cpp</text>
</a>
</g>
</g>
<!-- Node29&#45;&gt;Node35 -->
<g id="edge19" class="edge"><title>Node29&#45;&gt;Node35</title>
<path fill="none" stroke="midnightblue" d="M2205.4,-175.734C2451.45,-174.309 3413.6,-165.818 3457.5,-120 3470.41,-106.522 3467.74,-93.6076 3457.5,-78 3440.49,-52.0742 3408.61,-38.0896 3380.8,-30.5788"/>
<polygon fill="midnightblue" stroke="midnightblue" points="2205.22,-172.235 2195.24,-175.791 2205.26,-179.235 2205.22,-172.235"/>
</g>
<!-- Node36 -->
<g id="node13" class="node"><title>Node36</title>
<g id="a_node13"><a xlink:href="input__shapes_8cpp.html" target="_top" xlink:title="examples/input_shapes.cpp">
<polygon fill="white" stroke="black" points="1974.5,-11.5 1974.5,-30.5 2112.5,-30.5 2112.5,-11.5 1974.5,-11.5"/>
<text text-anchor="middle" x="2043.5" y="-18.5" font-family="Arial" font-size="10.00">examples/input_shapes.cpp</text>
</a>
</g>
</g>
<!-- Node29&#45;&gt;Node36 -->
<g id="edge23" class="edge"><title>Node29&#45;&gt;Node36</title>
<path fill="none" stroke="midnightblue" d="M2091.85,-170.283C2030.32,-162.768 1937.93,-147.215 1916.5,-120 1904.95,-105.334 1906.31,-93.637 1916.5,-78 1933.41,-52.0612 1965.34,-38.0529 1992.96,-30.5335"/>
<polygon fill="midnightblue" stroke="midnightblue" points="2091.48,-173.764 2101.82,-171.465 2092.3,-166.812 2091.48,-173.764"/>
</g>
<!-- Node37 -->
<g id="node14" class="node"><title>Node37</title>
<g id="a_node14"><a xlink:href="render__surface_8cpp.html" target="_top" xlink:title="examples/render_surface.cpp">
<polygon fill="white" stroke="black" points="2434,-11.5 2434,-30.5 2579,-30.5 2579,-11.5 2434,-11.5"/>
<text text-anchor="middle" x="2506.5" y="-18.5" font-family="Arial" font-size="10.00">examples/render_surface.cpp</text>
</a>
</g>
</g>
<!-- Node29&#45;&gt;Node37 -->
<g id="edge31" class="edge"><title>Node29&#45;&gt;Node37</title>
<path fill="none" stroke="midnightblue" d="M2091.66,-168.329C2018.17,-156.2 1904.74,-128.604 1950.5,-78 1982.34,-42.7865 2290.58,-28.6824 2433.9,-23.9941"/>
<polygon fill="midnightblue" stroke="midnightblue" points="2091.32,-171.819 2101.74,-169.939 2092.42,-164.906 2091.32,-171.819"/>
</g>
<!-- Node38 -->
<g id="node15" class="node"><title>Node38</title>
<g id="a_node15"><a xlink:href="client__touch__validator_8cpp.html" target="_top" xlink:title="examples/client_touch\l_validator.cpp">
<polygon fill="white" stroke="black" points="3828.5,-84 3828.5,-114 3942.5,-114 3942.5,-84 3828.5,-84"/>
<text text-anchor="start" x="3836.5" y="-102" font-family="Arial" font-size="10.00">examples/client_touch</text>
<text text-anchor="middle" x="3885.5" y="-91" font-family="Arial" font-size="10.00">_validator.cpp</text>
</a>
</g>
</g>
<!-- Node29&#45;&gt;Node38 -->
<g id="edge15" class="edge"><title>Node29&#45;&gt;Node38</title>
<path fill="none" stroke="midnightblue" d="M2205.42,-175.925C2459.85,-175.307 3494.36,-169.724 3814.5,-120 3823.48,-118.605 3832.95,-116.445 3841.93,-114.052"/>
<polygon fill="midnightblue" stroke="midnightblue" points="2205.29,-172.425 2195.3,-175.948 2205.31,-179.425 2205.29,-172.425"/>
</g>
<!-- Node39 -->
<g id="node16" class="node"><title>Node39</title>
<g id="a_node16"><a xlink:href="cursors__demo__client_8c.html" target="_top" xlink:title="examples/cursors_demo\l_client.c">
<polygon fill="white" stroke="black" points="392,-84 392,-114 515,-114 515,-84 392,-84"/>
<text text-anchor="start" x="400" y="-102" font-family="Arial" font-size="10.00">examples/cursors_demo</text>
<text text-anchor="middle" x="453.5" y="-91" font-family="Arial" font-size="10.00">_client.c</text>
</a>
</g>
</g>
<!-- Node29&#45;&gt;Node39 -->
<g id="edge16" class="edge"><title>Node29&#45;&gt;Node39</title>
<path fill="none" stroke="midnightblue" d="M2091.4,-175.867C1840.67,-174.999 835.887,-168.503 524.5,-120 515.516,-118.601 506.054,-116.439 497.07,-114.046"/>
<polygon fill="midnightblue" stroke="midnightblue" points="2091.72,-179.368 2101.74,-175.901 2091.75,-172.368 2091.72,-179.368"/>
</g>
<!-- Node40 -->
<g id="node17" class="node"><title>Node40</title>
<g id="a_node17"><a xlink:href="demo__client__display__config_8c.html" target="_top" xlink:title="examples/demo_client\l_display_config.c">
<polygon fill="white" stroke="black" points="533.5,-84 533.5,-114 647.5,-114 647.5,-84 533.5,-84"/>
<text text-anchor="start" x="541.5" y="-102" font-family="Arial" font-size="10.00">examples/demo_client</text>
<text text-anchor="middle" x="590.5" y="-91" font-family="Arial" font-size="10.00">_display_config.c</text>
</a>
</g>
</g>
<!-- Node29&#45;&gt;Node40 -->
<g id="edge17" class="edge"><title>Node29&#45;&gt;Node40</title>
<path fill="none" stroke="midnightblue" d="M2091.79,-175.814C1854.49,-174.737 940.368,-167.523 656.5,-120 648.116,-118.596 639.306,-116.433 630.951,-114.039"/>
<polygon fill="midnightblue" stroke="midnightblue" points="2091.91,-179.314 2101.92,-175.858 2091.94,-172.315 2091.91,-179.314"/>
</g>
<!-- Node41 -->
<g id="node18" class="node"><title>Node41</title>
<g id="a_node18"><a xlink:href="eglapp_8c.html" target="_top" xlink:title="examples/eglapp.c">
<polygon fill="white" stroke="black" points="665.5,-89.5 665.5,-108.5 763.5,-108.5 763.5,-89.5 665.5,-89.5"/>
<text text-anchor="middle" x="714.5" y="-96.5" font-family="Arial" font-size="10.00">examples/eglapp.c</text>
</a>
</g>
</g>
<!-- Node29&#45;&gt;Node41 -->
<g id="edge18" class="edge"><title>Node29&#45;&gt;Node41</title>
<path fill="none" stroke="midnightblue" d="M2091.4,-175.886C1865.18,-175.091 1031.53,-168.841 772.5,-120 759.521,-117.553 745.508,-112.784 734.507,-108.517"/>
<polygon fill="midnightblue" stroke="midnightblue" points="2091.7,-179.387 2101.71,-175.92 2091.72,-172.387 2091.7,-179.387"/>
</g>
<!-- Node42 -->
<g id="node19" class="node"><title>Node42</title>
<g id="a_node19"><a xlink:href="eglstateswitcher_8c.html" target="_top" xlink:title="examples/eglstateswitcher.c">
<polygon fill="white" stroke="black" points="781.5,-89.5 781.5,-108.5 921.5,-108.5 921.5,-89.5 781.5,-89.5"/>
<text text-anchor="middle" x="851.5" y="-96.5" font-family="Arial" font-size="10.00">examples/eglstateswitcher.c</text>
</a>
</g>
</g>
<!-- Node29&#45;&gt;Node42 -->
<g id="edge20" class="edge"><title>Node29&#45;&gt;Node42</title>
<path fill="none" stroke="midnightblue" d="M2091.59,-174.909C1882.77,-170.668 1158.95,-153.814 930.5,-120 913.286,-117.452 894.376,-112.735 879.374,-108.522"/>
<polygon fill="midnightblue" stroke="midnightblue" points="2091.66,-178.411 2101.73,-175.113 2091.8,-171.412 2091.66,-178.411"/>
</g>
<!-- Node43 -->
<g id="node20" class="node"><title>Node43</title>
<g id="a_node20"><a xlink:href="fingerpaint_8c.html" target="_top" xlink:title="examples/fingerpaint.c">
<polygon fill="white" stroke="black" points="940,-89.5 940,-108.5 1055,-108.5 1055,-89.5 940,-89.5"/>
<text text-anchor="middle" x="997.5" y="-96.5" font-family="Arial" font-size="10.00">examples/fingerpaint.c</text>
</a>
</g>
</g>
<!-- Node29&#45;&gt;Node43 -->
<g id="edge21" class="edge"><title>Node29&#45;&gt;Node43</title>
<path fill="none" stroke="midnightblue" d="M2091.75,-174.887C1898.06,-170.805 1264.08,-155.03 1063.5,-120 1048.99,-117.466 1033.19,-112.75 1020.69,-108.534"/>
<polygon fill="midnightblue" stroke="midnightblue" points="2091.91,-178.391 2101.98,-175.101 2092.06,-171.393 2091.91,-178.391"/>
</g>
<!-- Node44 -->
<g id="node21" class="node"><title>Node44</title>
<g id="a_node21"><a xlink:href="flicker_8c.html" target="_top" xlink:title="examples/flicker.c">
<polygon fill="white" stroke="black" points="1073,-89.5 1073,-108.5 1168,-108.5 1168,-89.5 1073,-89.5"/>
<text text-anchor="middle" x="1120.5" y="-96.5" font-family="Arial" font-size="10.00">examples/flicker.c</text>
</a>
</g>
</g>
<!-- Node29&#45;&gt;Node44 -->
<g id="edge22" class="edge"><title>Node29&#45;&gt;Node44</title>
<path fill="none" stroke="midnightblue" d="M2091.67,-174.806C1911.45,-170.693 1354.23,-155.372 1177.5,-120 1164.85,-117.468 1151.2,-112.753 1140.43,-108.536"/>
<polygon fill="midnightblue" stroke="midnightblue" points="2091.65,-178.307 2101.73,-175.033 2091.81,-171.308 2091.65,-178.307"/>
</g>
<!-- Node45 -->
<g id="node22" class="node"><title>Node45</title>
<g id="a_node22"><a xlink:href="eglspinner_8cpp.html" target="_top" xlink:title="examples/miral&#45;shell\l/spinner/eglspinner.cpp">
<polygon fill="white" stroke="black" points="1186.5,-84 1186.5,-114 1302.5,-114 1302.5,-84 1186.5,-84"/>
<text text-anchor="start" x="1194.5" y="-102" font-family="Arial" font-size="10.00">examples/miral&#45;shell</text>
<text text-anchor="middle" x="1244.5" y="-91" font-family="Arial" font-size="10.00">/spinner/eglspinner.cpp</text>
</a>
</g>
</g>
<!-- Node29&#45;&gt;Node45 -->
<g id="edge24" class="edge"><title>Node29&#45;&gt;Node45</title>
<path fill="none" stroke="midnightblue" d="M2091.6,-176.545C1955.58,-176.907 1601.35,-172.278 1311.5,-120 1303.26,-118.513 1294.59,-116.375 1286.33,-114.044"/>
<polygon fill="midnightblue" stroke="midnightblue" points="2091.79,-180.045 2101.78,-176.508 2091.77,-173.045 2091.79,-180.045"/>
</g>
<!-- Node46 -->
<g id="node23" class="node"><title>Node46</title>
<g id="a_node23"><a xlink:href="miregl_8cpp.html" target="_top" xlink:title="examples/miral&#45;shell\l/spinner/miregl.cpp">
<polygon fill="white" stroke="black" points="1320.5,-84 1320.5,-114 1426.5,-114 1426.5,-84 1320.5,-84"/>
<text text-anchor="start" x="1328.5" y="-102" font-family="Arial" font-size="10.00">examples/miral&#45;shell</text>
<text text-anchor="middle" x="1373.5" y="-91" font-family="Arial" font-size="10.00">/spinner/miregl.cpp</text>
</a>
</g>
</g>
<!-- Node29&#45;&gt;Node46 -->
<g id="edge25" class="edge"><title>Node29&#45;&gt;Node46</title>
<path fill="none" stroke="midnightblue" d="M2091.59,-175.92C1970.1,-174.791 1676.83,-166.955 1436.5,-120 1428.84,-118.504 1420.81,-116.391 1413.14,-114.095"/>
<polygon fill="midnightblue" stroke="midnightblue" points="2091.74,-179.421 2101.77,-176.002 2091.8,-172.421 2091.74,-179.421"/>
</g>
<!-- Node47 -->
<g id="node24" class="node"><title>Node47</title>
<g id="a_node24"><a xlink:href="multiwin_8c.html" target="_top" xlink:title="examples/multiwin.c">
<polygon fill="white" stroke="black" points="1445,-89.5 1445,-108.5 1550,-108.5 1550,-89.5 1445,-89.5"/>
<text text-anchor="middle" x="1497.5" y="-96.5" font-family="Arial" font-size="10.00">examples/multiwin.c</text>
</a>
</g>
</g>
<!-- Node29&#45;&gt;Node47 -->
<g id="edge26" class="edge"><title>Node29&#45;&gt;Node47</title>
<path fill="none" stroke="midnightblue" d="M2091.66,-174.688C1985.87,-171.345 1752.03,-159.712 1559.5,-120 1546.1,-117.235 1531.51,-112.616 1519.86,-108.513"/>
<polygon fill="midnightblue" stroke="midnightblue" points="2091.69,-178.19 2101.79,-174.995 2091.9,-171.194 2091.69,-178.19"/>
</g>
<!-- Node48 -->
<g id="node25" class="node"><title>Node48</title>
<g id="a_node25"><a xlink:href="pointer__confinement_8c.html" target="_top" xlink:title="examples/pointer_confinement.c">
<polygon fill="white" stroke="black" points="1568.5,-89.5 1568.5,-108.5 1726.5,-108.5 1726.5,-89.5 1568.5,-89.5"/>
<text text-anchor="middle" x="1647.5" y="-96.5" font-family="Arial" font-size="10.00">examples/pointer_confinement.c</text>
</a>
</g>
</g>
<!-- Node29&#45;&gt;Node48 -->
<g id="edge27" class="edge"><title>Node29&#45;&gt;Node48</title>
<path fill="none" stroke="midnightblue" d="M2091.5,-169.892C2011.6,-160.961 1861.9,-142.887 1735.5,-120 1717.77,-116.79 1698.21,-112.428 1682.05,-108.597"/>
<polygon fill="midnightblue" stroke="midnightblue" points="2091.51,-173.414 2101.84,-171.039 2092.28,-166.457 2091.51,-173.414"/>
</g>
<!-- Node49 -->
<g id="node26" class="node"><title>Node49</title>
<g id="a_node26"><a xlink:href="progressbar_8c.html" target="_top" xlink:title="examples/progressbar.c">
<polygon fill="white" stroke="black" points="1744.5,-89.5 1744.5,-108.5 1864.5,-108.5 1864.5,-89.5 1744.5,-89.5"/>
<text text-anchor="middle" x="1804.5" y="-96.5" font-family="Arial" font-size="10.00">examples/progressbar.c</text>
</a>
</g>
</g>
<!-- Node29&#45;&gt;Node49 -->
<g id="edge28" class="edge"><title>Node29&#45;&gt;Node49</title>
<path fill="none" stroke="midnightblue" d="M2092.11,-165.318C2037.34,-154.704 1951.93,-137.521 1878.5,-120 1864,-116.541 1848.03,-112.28 1834.64,-108.581"/>
<polygon fill="midnightblue" stroke="midnightblue" points="2091.49,-168.763 2101.97,-167.222 2092.82,-161.89 2091.49,-168.763"/>
</g>
<!-- Node50 -->
<g id="node27" class="node"><title>Node50</title>
<g id="a_node27"><a xlink:href="prompt__session_8c.html" target="_top" xlink:title="examples/prompt_session.c">
<polygon fill="white" stroke="black" points="3700,-11.5 3700,-30.5 3839,-30.5 3839,-11.5 3700,-11.5"/>
<text text-anchor="middle" x="3769.5" y="-18.5" font-family="Arial" font-size="10.00">examples/prompt_session.c</text>
</a>
</g>
</g>
<!-- Node29&#45;&gt;Node50 -->
<g id="edge29" class="edge"><title>Node29&#45;&gt;Node50</title>
<path fill="none" stroke="midnightblue" d="M2205.55,-176.239C2488.02,-177.147 3725.64,-177.81 3781.5,-120 3805.2,-95.4704 3784.8,-49.8588 3774.55,-30.7635"/>
<polygon fill="midnightblue" stroke="midnightblue" points="2205.14,-172.738 2195.13,-176.204 2205.12,-179.737 2205.14,-172.738"/>
</g>
<!-- Node51 -->
<g id="node28" class="node"><title>Node51</title>
<g id="a_node28"><a xlink:href="release__at__exit_8c.html" target="_top" xlink:title="examples/release_at\l_exit.c">
<polygon fill="white" stroke="black" points="1959,-84 1959,-114 2066,-114 2066,-84 1959,-84"/>
<text text-anchor="start" x="1967" y="-102" font-family="Arial" font-size="10.00">examples/release_at</text>
<text text-anchor="middle" x="2012.5" y="-91" font-family="Arial" font-size="10.00">_exit.c</text>
</a>
</g>
</g>
<!-- Node29&#45;&gt;Node51 -->
<g id="edge30" class="edge"><title>Node29&#45;&gt;Node51</title>
<path fill="none" stroke="midnightblue" d="M2104.62,-151.479C2082.59,-139.167 2056.68,-124.687 2037.96,-114.225"/>
<polygon fill="midnightblue" stroke="midnightblue" points="2103.04,-154.605 2113.48,-156.428 2106.45,-148.495 2103.04,-154.605"/>
</g>
<!-- Node52 -->
<g id="node29" class="node"><title>Node52</title>
<g id="a_node29"><a xlink:href="screencast_8cpp.html" target="_top" xlink:title="examples/screencast.cpp">
<polygon fill="white" stroke="black" points="2084.5,-89.5 2084.5,-108.5 2212.5,-108.5 2212.5,-89.5 2084.5,-89.5"/>
<text text-anchor="middle" x="2148.5" y="-96.5" font-family="Arial" font-size="10.00">examples/screencast.cpp</text>
</a>
</g>
</g>
<!-- Node29&#45;&gt;Node52 -->
<g id="edge32" class="edge"><title>Node29&#45;&gt;Node52</title>
<path fill="none" stroke="midnightblue" d="M2148.5,-146.051C2148.5,-132.56 2148.5,-117.649 2148.5,-108.552"/>
<polygon fill="midnightblue" stroke="midnightblue" points="2145,-146.428 2148.5,-156.428 2152,-146.428 2145,-146.428"/>
</g>
<!-- Node53 -->
<g id="node30" class="node"><title>Node53</title>
<g id="a_node30"><a xlink:href="tooltip_8c.html" target="_top" xlink:title="examples/tooltip.c">
<polygon fill="white" stroke="black" points="2230.5,-89.5 2230.5,-108.5 2326.5,-108.5 2326.5,-89.5 2230.5,-89.5"/>
<text text-anchor="middle" x="2278.5" y="-96.5" font-family="Arial" font-size="10.00">examples/tooltip.c</text>
</a>
</g>
</g>
<!-- Node29&#45;&gt;Node53 -->
<g id="edge33" class="edge"><title>Node29&#45;&gt;Node53</title>
<path fill="none" stroke="midnightblue" d="M2190.63,-151.367C2215.81,-136.649 2246.23,-118.865 2263.87,-108.552"/>
<polygon fill="midnightblue" stroke="midnightblue" points="2188.84,-148.36 2181.98,-156.428 2192.38,-154.403 2188.84,-148.36"/>
</g>
<!-- Node54 -->
<g id="node31" class="node"><title>Node54</title>
<g id="a_node31"><a xlink:href="toolkit_2debug_2surface_8h.html" target="_top" xlink:title="include/client/mir\l_toolkit/debug/surface.h">
<polygon fill="white" stroke="black" points="2345,-84 2345,-114 2466,-114 2466,-84 2345,-84"/>
<text text-anchor="start" x="2353" y="-102" font-family="Arial" font-size="10.00">include/client/mir</text>
<text text-anchor="middle" x="2405.5" y="-91" font-family="Arial" font-size="10.00">_toolkit/debug/surface.h</text>
</a>
</g>
</g>
<!-- Node29&#45;&gt;Node54 -->
<g id="edge34" class="edge"><title>Node29&#45;&gt;Node54</title>
<path fill="none" stroke="midnightblue" d="M2204.83,-159.343C2250.69,-145.781 2314.7,-126.851 2358,-114.047"/>
<polygon fill="midnightblue" stroke="midnightblue" points="2203.64,-156.045 2195.04,-162.237 2205.62,-162.757 2203.64,-156.045"/>
</g>
<!-- Node55 -->
<g id="node32" class="node"><title>Node55</title>
<g id="a_node32"><a xlink:href="mir__prompt__session_8h.html" target="_top" xlink:title="include/client/mir\l_toolkit/mir_prompt\l_session.h">
<polygon fill="white" stroke="black" points="3672.5,-78.5 3672.5,-119.5 3772.5,-119.5 3772.5,-78.5 3672.5,-78.5"/>
<text text-anchor="start" x="3680.5" y="-107.5" font-family="Arial" font-size="10.00">include/client/mir</text>
<text text-anchor="start" x="3680.5" y="-96.5" font-family="Arial" font-size="10.00">_toolkit/mir_prompt</text>
<text text-anchor="middle" x="3722.5" y="-85.5" font-family="Arial" font-size="10.00">_session.h</text>
</a>
</g>
</g>
<!-- Node29&#45;&gt;Node55 -->
<g id="edge35" class="edge"><title>Node29&#45;&gt;Node55</title>
<path fill="none" stroke="midnightblue" d="M2205.33,-176.095C2445.2,-176.159 3375.75,-172.922 3663.5,-120 3666.37,-119.472 3669.29,-118.833 3672.22,-118.111"/>
<polygon fill="midnightblue" stroke="midnightblue" points="2205.09,-172.595 2195.09,-176.09 2205.09,-179.595 2205.09,-172.595"/>
</g>
<!-- Node56 -->
<g id="node33" class="node"><title>Node56</title>
<g id="a_node33"><a xlink:href="client__buffer__factory_8h.html" target="_top" xlink:title="include/platform/mir\l/client/client_buffer\l_factory.h">
<polygon fill="white" stroke="black" points="2484.5,-78.5 2484.5,-119.5 2586.5,-119.5 2586.5,-78.5 2484.5,-78.5"/>
<text text-anchor="start" x="2492.5" y="-107.5" font-family="Arial" font-size="10.00">include/platform/mir</text>
<text text-anchor="start" x="2492.5" y="-96.5" font-family="Arial" font-size="10.00">/client/client_buffer</text>
<text text-anchor="middle" x="2535.5" y="-85.5" font-family="Arial" font-size="10.00">_factory.h</text>
</a>
</g>
</g>
<!-- Node29&#45;&gt;Node56 -->
<g id="edge37" class="edge"><title>Node29&#45;&gt;Node56</title>
<path fill="none" stroke="midnightblue" d="M2205.4,-168.931C2271.07,-160.157 2382.03,-143.436 2475.5,-120 2478.38,-119.279 2481.31,-118.488 2484.26,-117.649"/>
<polygon fill="midnightblue" stroke="midnightblue" points="2204.72,-165.491 2195.26,-170.27 2205.64,-172.431 2204.72,-165.491"/>
</g>
<!-- Node57 -->
<g id="node34" class="node"><title>Node57</title>
<g id="a_node34"><a xlink:href="any__surface_8h.html" target="_top" xlink:title="include/test/mir_test\l_framework/any_surface.h">
<polygon fill="white" stroke="black" points="2605,-84 2605,-114 2736,-114 2736,-84 2605,-84"/>
<text text-anchor="start" x="2613" y="-102" font-family="Arial" font-size="10.00">include/test/mir_test</text>
<text text-anchor="middle" x="2670.5" y="-91" font-family="Arial" font-size="10.00">_framework/any_surface.h</text>
</a>
</g>
</g>
<!-- Node29&#45;&gt;Node57 -->
<g id="edge38" class="edge"><title>Node29&#45;&gt;Node57</title>
<path fill="none" stroke="midnightblue" d="M2205.15,-171.391C2290.38,-163.898 2456.45,-147.119 2595.5,-120 2603.97,-118.349 2612.89,-116.274 2621.5,-114.089"/>
<polygon fill="midnightblue" stroke="midnightblue" points="2204.82,-167.907 2195.16,-172.259 2205.43,-174.88 2204.82,-167.907"/>
</g>
<!-- Node58 -->
<g id="node35" class="node"><title>Node58</title>
<g id="a_node35"><a xlink:href="connected__client__headless__server_8h.html" target="_top" xlink:title="include/test/mir_test\l_framework/connected\l_client_headless_server.h">
<polygon fill="white" stroke="black" points="3525,-78.5 3525,-119.5 3654,-119.5 3654,-78.5 3525,-78.5"/>
<text text-anchor="start" x="3533" y="-107.5" font-family="Arial" font-size="10.00">include/test/mir_test</text>
<text text-anchor="start" x="3533" y="-96.5" font-family="Arial" font-size="10.00">_framework/connected</text>
<text text-anchor="middle" x="3589.5" y="-85.5" font-family="Arial" font-size="10.00">_client_headless_server.h</text>
</a>
</g>
</g>
<!-- Node29&#45;&gt;Node58 -->
<g id="edge39" class="edge"><title>Node29&#45;&gt;Node58</title>
<path fill="none" stroke="midnightblue" d="M2205.29,-175.23C2429.36,-171.951 3252.45,-157.556 3510.5,-120 3515.12,-119.328 3519.86,-118.496 3524.62,-117.558"/>
<polygon fill="midnightblue" stroke="midnightblue" points="2205.02,-171.734 2195.08,-175.378 2205.13,-178.733 2205.02,-171.734"/>
</g>
<!-- Node60 -->
<g id="node37" class="node"><title>Node60</title>
<g id="a_node37"><a xlink:href="visible__surface_8h.html" target="_top" xlink:title="include/test/mir_test\l_framework/visible_surface.h">
<polygon fill="white" stroke="black" points="2903,-84 2903,-114 3046,-114 3046,-84 2903,-84"/>
<text text-anchor="start" x="2911" y="-102" font-family="Arial" font-size="10.00">include/test/mir_test</text>
<text text-anchor="middle" x="2974.5" y="-91" font-family="Arial" font-size="10.00">_framework/visible_surface.h</text>
</a>
</g>
</g>
<!-- Node29&#45;&gt;Node60 -->
<g id="edge41" class="edge"><title>Node29&#45;&gt;Node60</title>
<path fill="none" stroke="midnightblue" d="M2205.12,-174.964C2330.11,-171.976 2638.74,-160.734 2893.5,-120 2903.23,-118.445 2913.5,-116.305 2923.35,-114"/>
<polygon fill="midnightblue" stroke="midnightblue" points="2204.94,-171.468 2195.02,-175.197 2205.1,-178.466 2204.94,-171.468"/>
</g>
<!-- Node33&#45;&gt;Node34 -->
<g id="edge10" class="edge"><title>Node33&#45;&gt;Node34</title>
<path fill="none" stroke="midnightblue" d="M2841.96,-83.7747C2866.63,-68.1479 2905.47,-43.5551 2925.9,-30.6165"/>
<polygon fill="midnightblue" stroke="midnightblue" points="2839.84,-80.9744 2833.27,-89.2818 2843.59,-86.8881 2839.84,-80.9744"/>
</g>
<!-- Node33&#45;&gt;Node35 -->
<g id="edge11" class="edge"><title>Node33&#45;&gt;Node35</title>
<path fill="none" stroke="midnightblue" d="M2858.01,-86.6853C2869.66,-83.546 2882.54,-80.3565 2894.5,-78 3026.25,-52.0517 3182.96,-35.2396 3267.35,-27.3172"/>
<polygon fill="midnightblue" stroke="midnightblue" points="2856.85,-83.3743 2848.14,-89.4088 2858.71,-90.1221 2856.85,-83.3743"/>
</g>
<!-- Node33&#45;&gt;Node36 -->
<g id="edge12" class="edge"><title>Node33&#45;&gt;Node36</title>
<path fill="none" stroke="midnightblue" d="M2782.76,-86.635C2770.96,-83.3742 2757.77,-80.129 2745.5,-78 2625.11,-57.1136 2264.78,-34.7048 2112.57,-25.883"/>
<polygon fill="midnightblue" stroke="midnightblue" points="2782.13,-90.0956 2792.7,-89.477 2784.05,-83.3648 2782.13,-90.0956"/>
</g>
<!-- Node33&#45;&gt;Node37 -->
<g id="edge13" class="edge"><title>Node33&#45;&gt;Node37</title>
<path fill="none" stroke="midnightblue" d="M2779.23,-86.8518C2768.31,-83.8995 2756.47,-80.7659 2745.5,-78 2674.84,-60.1781 2591.94,-41.1789 2544.68,-30.5271"/>
<polygon fill="midnightblue" stroke="midnightblue" points="2778.39,-90.2497 2788.96,-89.4964 2780.23,-83.495 2778.39,-90.2497"/>
</g>
<!-- Node55&#45;&gt;Node50 -->
<g id="edge36" class="edge"><title>Node55&#45;&gt;Node50</title>
<path fill="none" stroke="midnightblue" d="M3740.03,-69.6466C3748.63,-55.7497 3758.36,-40.0096 3764.21,-30.552"/>
<polygon fill="midnightblue" stroke="midnightblue" points="3736.89,-68.0822 3734.6,-78.4281 3742.84,-71.764 3736.89,-68.0822"/>
</g>
<!-- Node59 -->
<g id="node36" class="node"><title>Node59</title>
<g id="a_node36"><a xlink:href="connected__client__with__a__window_8h.html" target="_top" xlink:title="include/test/mir_test\l_framework/connected\l_client_with_a_window.h">
<polygon fill="white" stroke="black" points="3528.5,-0.5 3528.5,-41.5 3650.5,-41.5 3650.5,-0.5 3528.5,-0.5"/>
<text text-anchor="start" x="3536.5" y="-29.5" font-family="Arial" font-size="10.00">include/test/mir_test</text>
<text text-anchor="start" x="3536.5" y="-18.5" font-family="Arial" font-size="10.00">_framework/connected</text>
<text text-anchor="middle" x="3589.5" y="-7.5" font-family="Arial" font-size="10.00">_client_with_a_window.h</text>
</a>
</g>
</g>
<!-- Node58&#45;&gt;Node59 -->
<g id="edge40" class="edge"><title>Node58&#45;&gt;Node59</title>
<path fill="none" stroke="midnightblue" d="M3589.5,-68.2965C3589.5,-59.3009 3589.5,-49.6532 3589.5,-41.5056"/>
<polygon fill="midnightblue" stroke="midnightblue" points="3586,-68.4281 3589.5,-78.4281 3593,-68.4281 3586,-68.4281"/>
</g>
</g>
</svg>
