<?xml version="1.0" encoding="UTF-8" standalone="no"?>
<!DOCTYPE svg PUBLIC "-//W3C//DTD SVG 1.1//EN"
 "http://www.w3.org/Graphics/SVG/1.1/DTD/svg11.dtd">
<!-- Generated by graphviz version 2.38.0 (20140413.2041)
 -->
<!-- Title: include/client/mir_toolkit/mir_extension_core.h Pages: 1 -->
<svg width="1252pt" height="128pt"
 viewBox="0.00 0.00 1252.00 128.00" xmlns="http://www.w3.org/2000/svg" xmlns:xlink="http://www.w3.org/1999/xlink">
<g id="graph0" class="graph" transform="scale(1 1) rotate(0) translate(4 124)">
<title>include/client/mir_toolkit/mir_extension_core.h</title>
<polygon fill="white" stroke="none" points="-4,4 -4,-124 1248,-124 1248,4 -4,4"/>
<!-- Node25 -->
<g id="node1" class="node"><title>Node25</title>
<polygon fill="#bfbfbf" stroke="black" points="516,-78.5 516,-119.5 628,-119.5 628,-78.5 516,-78.5"/>
<text text-anchor="start" x="524" y="-107.5" font-family="Arial" font-size="10.00">include/client/mir</text>
<text text-anchor="start" x="524" y="-96.5" font-family="Arial" font-size="10.00">_toolkit/mir_extension</text>
<text text-anchor="middle" x="572" y="-85.5" font-family="Arial" font-size="10.00">_core.h</text>
</g>
<!-- Node26 -->
<g id="node2" class="node"><title>Node26</title>
<g id="a_node2"><a xlink:href="android__buffer_8h.html" target="_top" xlink:title="include/client/mir\l_toolkit/extensions\l/android_buffer.h">
<polygon fill="white" stroke="black" points="0,-0.5 0,-41.5 98,-41.5 98,-0.5 0,-0.5"/>
<text text-anchor="start" x="8" y="-29.5" font-family="Arial" font-size="10.00">include/client/mir</text>
<text text-anchor="start" x="8" y="-18.5" font-family="Arial" font-size="10.00">_toolkit/extensions</text>
<text text-anchor="middle" x="49" y="-7.5" font-family="Arial" font-size="10.00">/android_buffer.h</text>
</a>
</g>
</g>
<!-- Node25&#45;&gt;Node26 -->
<g id="edge1" class="edge"><title>Node25&#45;&gt;Node26</title>
<path fill="none" stroke="midnightblue" d="M505.708,-94.45C414.811,-88.5813 246.829,-74.144 107,-42 104.093,-41.3318 101.129,-40.5706 98.1537,-39.7446"/>
<polygon fill="midnightblue" stroke="midnightblue" points="505.668,-97.9543 515.868,-95.0908 506.108,-90.9681 505.668,-97.9543"/>
</g>
<!-- Node27 -->
<g id="node3" class="node"><title>Node27</title>
<g id="a_node3"><a xlink:href="android__egl_8h.html" target="_top" xlink:title="include/client/mir\l_toolkit/extensions\l/android_egl.h">
<polygon fill="white" stroke="black" points="116,-0.5 116,-41.5 214,-41.5 214,-0.5 116,-0.5"/>
<text text-anchor="start" x="124" y="-29.5" font-family="Arial" font-size="10.00">include/client/mir</text>
<text text-anchor="start" x="124" y="-18.5" font-family="Arial" font-size="10.00">_toolkit/extensions</text>
<text text-anchor="middle" x="165" y="-7.5" font-family="Arial" font-size="10.00">/android_egl.h</text>
</a>
</g>
</g>
<!-- Node25&#45;&gt;Node27 -->
<g id="edge2" class="edge"><title>Node25&#45;&gt;Node27</title>
<path fill="none" stroke="midnightblue" d="M505.682,-90.8238C434.961,-82.3686 320.015,-66.3158 223,-42 220.107,-41.2749 217.153,-40.4692 214.186,-39.6092"/>
<polygon fill="midnightblue" stroke="midnightblue" points="505.447,-94.3202 515.788,-92.0162 506.267,-87.3684 505.447,-94.3202"/>
</g>
<!-- Node28 -->
<g id="node4" class="node"><title>Node28</title>
<g id="a_node4"><a xlink:href="drag__and__drop_8h.html" target="_top" xlink:title="include/client/mir\l_toolkit/extensions\l/drag_and_drop.h">
<polygon fill="white" stroke="black" points="232,-0.5 232,-41.5 330,-41.5 330,-0.5 232,-0.5"/>
<text text-anchor="start" x="240" y="-29.5" font-family="Arial" font-size="10.00">include/client/mir</text>
<text text-anchor="start" x="240" y="-18.5" font-family="Arial" font-size="10.00">_toolkit/extensions</text>
<text text-anchor="middle" x="281" y="-7.5" font-family="Arial" font-size="10.00">/drag_and_drop.h</text>
</a>
</g>
</g>
<!-- Node25&#45;&gt;Node28 -->
<g id="edge3" class="edge"><title>Node25&#45;&gt;Node28</title>
<path fill="none" stroke="midnightblue" d="M505.55,-83.8159C458.692,-73.3798 394.625,-58.2341 339,-42 336.137,-41.1645 333.207,-40.2724 330.258,-39.3463"/>
<polygon fill="midnightblue" stroke="midnightblue" points="505.056,-87.2913 515.576,-86.0357 506.569,-80.4568 505.056,-87.2913"/>
</g>
<!-- Node29 -->
<g id="node5" class="node"><title>Node29</title>
<g id="a_node5"><a xlink:href="fenced__buffers_8h.html" target="_top" xlink:title="include/client/mir\l_toolkit/extensions\l/fenced_buffers.h">
<polygon fill="white" stroke="black" points="348,-0.5 348,-41.5 446,-41.5 446,-0.5 348,-0.5"/>
<text text-anchor="start" x="356" y="-29.5" font-family="Arial" font-size="10.00">include/client/mir</text>
<text text-anchor="start" x="356" y="-18.5" font-family="Arial" font-size="10.00">_toolkit/extensions</text>
<text text-anchor="middle" x="397" y="-7.5" font-family="Arial" font-size="10.00">/fenced_buffers.h</text>
</a>
</g>
</g>
<!-- Node25&#45;&gt;Node29 -->
<g id="edge4" class="edge"><title>Node25&#45;&gt;Node29</title>
<path fill="none" stroke="midnightblue" d="M517.495,-74.3291C493.212,-63.7835 464.957,-51.5129 441.914,-41.5056"/>
<polygon fill="midnightblue" stroke="midnightblue" points="516.367,-77.655 526.933,-78.4281 519.155,-71.2343 516.367,-77.655"/>
</g>
<!-- Node30 -->
<g id="node6" class="node"><title>Node30</title>
<g id="a_node6"><a xlink:href="gbm__buffer_8h.html" target="_top" xlink:title="include/client/mir\l_toolkit/extensions\l/gbm_buffer.h">
<polygon fill="white" stroke="black" points="464,-0.5 464,-41.5 562,-41.5 562,-0.5 464,-0.5"/>
<text text-anchor="start" x="472" y="-29.5" font-family="Arial" font-size="10.00">include/client/mir</text>
<text text-anchor="start" x="472" y="-18.5" font-family="Arial" font-size="10.00">_toolkit/extensions</text>
<text text-anchor="middle" x="513" y="-7.5" font-family="Arial" font-size="10.00">/gbm_buffer.h</text>
</a>
</g>
</g>
<!-- Node25&#45;&gt;Node30 -->
<g id="edge5" class="edge"><title>Node25&#45;&gt;Node30</title>
<path fill="none" stroke="midnightblue" d="M550.525,-70.3376C543.104,-60.7777 534.949,-50.2731 528.142,-41.5056"/>
<polygon fill="midnightblue" stroke="midnightblue" points="547.909,-72.6753 556.806,-78.4281 553.438,-68.3827 547.909,-72.6753"/>
</g>
<!-- Node31 -->
<g id="node7" class="node"><title>Node31</title>
<g id="a_node7"><a xlink:href="graphics__module_8h.html" target="_top" xlink:title="include/client/mir\l_toolkit/extensions\l/graphics_module.h">
<polygon fill="white" stroke="black" points="580.5,-0.5 580.5,-41.5 681.5,-41.5 681.5,-0.5 580.5,-0.5"/>
<text text-anchor="start" x="588.5" y="-29.5" font-family="Arial" font-size="10.00">include/client/mir</text>
<text text-anchor="start" x="588.5" y="-18.5" font-family="Arial" font-size="10.00">_toolkit/extensions</text>
<text text-anchor="middle" x="631" y="-7.5" font-family="Arial" font-size="10.00">/graphics_module.h</text>
</a>
</g>
</g>
<!-- Node25&#45;&gt;Node31 -->
<g id="edge6" class="edge"><title>Node25&#45;&gt;Node31</title>
<path fill="none" stroke="midnightblue" d="M593.475,-70.3376C600.896,-60.7777 609.051,-50.2731 615.858,-41.5056"/>
<polygon fill="midnightblue" stroke="midnightblue" points="590.562,-68.3827 587.194,-78.4281 596.091,-72.6753 590.562,-68.3827"/>
</g>
<!-- Node32 -->
<g id="node8" class="node"><title>Node32</title>
<g id="a_node8"><a xlink:href="hardware__buffer__stream_8h.html" target="_top" xlink:title="include/client/mir\l_toolkit/extensions\l/hardware_buffer_stream.h">
<polygon fill="white" stroke="black" points="700,-0.5 700,-41.5 832,-41.5 832,-0.5 700,-0.5"/>
<text text-anchor="start" x="708" y="-29.5" font-family="Arial" font-size="10.00">include/client/mir</text>
<text text-anchor="start" x="708" y="-18.5" font-family="Arial" font-size="10.00">_toolkit/extensions</text>
<text text-anchor="middle" x="766" y="-7.5" font-family="Arial" font-size="10.00">/hardware_buffer_stream.h</text>
</a>
</g>
</g>
<!-- Node25&#45;&gt;Node32 -->
<g id="edge7" class="edge"><title>Node25&#45;&gt;Node32</title>
<path fill="none" stroke="midnightblue" d="M631.354,-74.7481C658.51,-64.1096 690.325,-51.6458 716.209,-41.5056"/>
<polygon fill="midnightblue" stroke="midnightblue" points="629.994,-71.5216 621.96,-78.4281 632.548,-78.0393 629.994,-71.5216"/>
</g>
<!-- Node33 -->
<g id="node9" class="node"><title>Node33</title>
<g id="a_node9"><a xlink:href="mesa__drm__auth_8h.html" target="_top" xlink:title="include/client/mir\l_toolkit/extensions\l/mesa_drm_auth.h">
<polygon fill="white" stroke="black" points="850,-0.5 850,-41.5 948,-41.5 948,-0.5 850,-0.5"/>
<text text-anchor="start" x="858" y="-29.5" font-family="Arial" font-size="10.00">include/client/mir</text>
<text text-anchor="start" x="858" y="-18.5" font-family="Arial" font-size="10.00">_toolkit/extensions</text>
<text text-anchor="middle" x="899" y="-7.5" font-family="Arial" font-size="10.00">/mesa_drm_auth.h</text>
</a>
</g>
</g>
<!-- Node25&#45;&gt;Node33 -->
<g id="edge8" class="edge"><title>Node25&#45;&gt;Node33</title>
<path fill="none" stroke="midnightblue" d="M638.067,-86.6646C692.865,-76.6866 772.591,-60.8335 841,-42 843.875,-41.2084 846.816,-40.3507 849.772,-39.4508"/>
<polygon fill="midnightblue" stroke="midnightblue" points="637.352,-83.237 628.134,-88.4588 638.597,-90.1256 637.352,-83.237"/>
</g>
<!-- Node34 -->
<g id="node10" class="node"><title>Node34</title>
<g id="a_node10"><a xlink:href="set__gbm__device_8h.html" target="_top" xlink:title="include/client/mir\l_toolkit/extensions\l/set_gbm_device.h">
<polygon fill="white" stroke="black" points="966.5,-0.5 966.5,-41.5 1065.5,-41.5 1065.5,-0.5 966.5,-0.5"/>
<text text-anchor="start" x="974.5" y="-29.5" font-family="Arial" font-size="10.00">include/client/mir</text>
<text text-anchor="start" x="974.5" y="-18.5" font-family="Arial" font-size="10.00">_toolkit/extensions</text>
<text text-anchor="middle" x="1016" y="-7.5" font-family="Arial" font-size="10.00">/set_gbm_device.h</text>
</a>
</g>
</g>
<!-- Node25&#45;&gt;Node34 -->
<g id="edge9" class="edge"><title>Node25&#45;&gt;Node34</title>
<path fill="none" stroke="midnightblue" d="M638.146,-92.0831C715.401,-84.3223 846.689,-68.485 957,-42 960.05,-41.2678 963.166,-40.4447 966.294,-39.561"/>
<polygon fill="midnightblue" stroke="midnightblue" points="637.68,-88.612 628.073,-93.0798 638.369,-95.5779 637.68,-88.612"/>
</g>
<!-- Node35 -->
<g id="node11" class="node"><title>Node35</title>
<g id="a_node11"><a xlink:href="window__coordinate__translation_8h.html" target="_top" xlink:title="include/client/mir\l_toolkit/extensions\l/window_coordinate_translation.h">
<polygon fill="white" stroke="black" points="1084,-0.5 1084,-41.5 1244,-41.5 1244,-0.5 1084,-0.5"/>
<text text-anchor="start" x="1092" y="-29.5" font-family="Arial" font-size="10.00">include/client/mir</text>
<text text-anchor="start" x="1092" y="-18.5" font-family="Arial" font-size="10.00">_toolkit/extensions</text>
<text text-anchor="middle" x="1164" y="-7.5" font-family="Arial" font-size="10.00">/window_coordinate_translation.h</text>
</a>
</g>
</g>
<!-- Node25&#45;&gt;Node35 -->
<g id="edge10" class="edge"><title>Node25&#45;&gt;Node35</title>
<path fill="none" stroke="midnightblue" d="M638.298,-92.9615C734.818,-85.0966 919.482,-68.0496 1075,-42 1077.81,-41.5291 1080.67,-41.0255 1083.55,-40.4962"/>
<polygon fill="midnightblue" stroke="midnightblue" points="637.789,-89.4911 628.103,-93.7847 638.353,-96.4684 637.789,-89.4911"/>
</g>
</g>
</svg>
