<?xml version="1.0" encoding="UTF-8" standalone="no"?>
<!DOCTYPE svg PUBLIC "-//W3C//DTD SVG 1.1//EN"
 "http://www.w3.org/Graphics/SVG/1.1/DTD/svg11.dtd">
<!-- Generated by graphviz version 2.40.1 (20161225.0304)
 -->
<!-- Title: include/client/mir_toolkit/mir_window_id.h Pages: 1 -->
<svg width="1706pt" height="374pt"
 viewBox="0.00 0.00 1706.13 374.00" xmlns="http://www.w3.org/2000/svg" xmlns:xlink="http://www.w3.org/1999/xlink">
<g id="graph0" class="graph" transform="scale(1 1) rotate(0) translate(4 370)">
<title>include/client/mir_toolkit/mir_window_id.h</title>
<polygon fill="#ffffff" stroke="transparent" points="-4,4 -4,-370 1702.1324,-370 1702.1324,4 -4,4"/>
<!-- Node0 -->
<g id="node1" class="node">
<title>Node0</title>
<polygon fill="#bfbfbf" stroke="#000000" points="715,-335.5 715,-365.5 837,-365.5 837,-335.5 715,-335.5"/>
<text text-anchor="start" x="723" y="-353.5" font-family="Arial" font-size="10.00" fill="#000000">include/client/mir</text>
<text text-anchor="middle" x="776" y="-342.5" font-family="Arial" font-size="10.00" fill="#000000">_toolkit/mir_window_id.h</text>
</g>
<!-- Node1 -->
<g id="node2" class="node">
<title>Node1</title>
<g id="a_node2"><a xlink:href="client__types_8h.html" target="_top" xlink:title="mir_toolkit/client\l_types.h">
<polygon fill="#ffffff" stroke="#000000" points="1508,-268.5 1508,-298.5 1596,-298.5 1596,-268.5 1508,-268.5"/>
<text text-anchor="start" x="1516" y="-286.5" font-family="Arial" font-size="10.00" fill="#000000">mir_toolkit/client</text>
<text text-anchor="middle" x="1552" y="-275.5" font-family="Arial" font-size="10.00" fill="#000000">_types.h</text>
</a>
</g>
</g>
<!-- Node0&#45;&gt;Node1 -->
<g id="edge1" class="edge">
<title>Node0&#45;&gt;Node1</title>
<path fill="none" stroke="#191970" d="M837.2154,-345.2147C984.7311,-332.4781 1357.9867,-300.2511 1497.9134,-288.1699"/>
<polygon fill="#191970" stroke="#191970" points="1498.311,-291.6486 1507.9728,-287.3013 1497.7088,-284.6746 1498.311,-291.6486"/>
</g>
<!-- Node9 -->
<g id="node10" class="node">
<title>Node9</title>
<polygon fill="#ffffff" stroke="#bfbfbf" points="10,-.5 10,-19.5 66,-19.5 66,-.5 10,-.5"/>
<text text-anchor="middle" x="38" y="-7.5" font-family="Arial" font-size="10.00" fill="#000000">stdbool.h</text>
</g>
<!-- Node0&#45;&gt;Node9 -->
<g id="edge46" class="edge">
<title>Node0&#45;&gt;Node9</title>
<path fill="none" stroke="#191970" d="M714.7846,-346.3836C531.5464,-333.2517 0,-288.9168 0,-216.5 0,-216.5 0,-216.5 0,-144 0,-101.7065 17.7376,-54.6555 28.9757,-29.0895"/>
<polygon fill="#191970" stroke="#191970" points="32.2396,-30.3667 33.1873,-19.8143 25.8659,-27.4726 32.2396,-30.3667"/>
</g>
<!-- Node2 -->
<g id="node3" class="node">
<title>Node2</title>
<g id="a_node3"><a xlink:href="toolkit_2events_2event_8h.html" target="_top" xlink:title="mir_toolkit/events\l/event.h">
<polygon fill="#ffffff" stroke="#000000" points="859,-201.5 859,-231.5 953,-231.5 953,-201.5 859,-201.5"/>
<text text-anchor="start" x="867" y="-219.5" font-family="Arial" font-size="10.00" fill="#000000">mir_toolkit/events</text>
<text text-anchor="middle" x="906" y="-208.5" font-family="Arial" font-size="10.00" fill="#000000">/event.h</text>
</a>
</g>
</g>
<!-- Node1&#45;&gt;Node2 -->
<g id="edge2" class="edge">
<title>Node1&#45;&gt;Node2</title>
<path fill="none" stroke="#191970" d="M1507.8521,-278.9212C1394.112,-267.1246 1091.0811,-235.6957 963.6888,-222.4832"/>
<polygon fill="#191970" stroke="#191970" points="963.6772,-218.9633 953.3694,-221.4129 962.955,-225.926 963.6772,-218.9633"/>
</g>
<!-- Node3 -->
<g id="node4" class="node">
<title>Node3</title>
<polygon fill="#ffffff" stroke="#bfbfbf" points="1625,-134.5 1625,-153.5 1677,-153.5 1677,-134.5 1625,-134.5"/>
<text text-anchor="middle" x="1651" y="-141.5" font-family="Arial" font-size="10.00" fill="#000000">stddef.h</text>
</g>
<!-- Node1&#45;&gt;Node3 -->
<g id="edge45" class="edge">
<title>Node1&#45;&gt;Node3</title>
<path fill="none" stroke="#191970" d="M1562.7832,-268.3055C1581.1533,-242.4204 1618.4371,-189.8841 1638.1364,-162.126"/>
<polygon fill="#191970" stroke="#191970" points="1641.1569,-163.9173 1644.0901,-153.7366 1635.4483,-159.8661 1641.1569,-163.9173"/>
</g>
<!-- Node5 -->
<g id="node6" class="node">
<title>Node5</title>
<g id="a_node6"><a xlink:href="common_8h.html" target="_top" xlink:title="mir_toolkit/common.h">
<polygon fill="#ffffff" stroke="#000000" points="1497,-134.5 1497,-153.5 1607,-153.5 1607,-134.5 1497,-134.5"/>
<text text-anchor="middle" x="1552" y="-141.5" font-family="Arial" font-size="10.00" fill="#000000">mir_toolkit/common.h</text>
</a>
</g>
</g>
<!-- Node1&#45;&gt;Node5 -->
<g id="edge43" class="edge">
<title>Node1&#45;&gt;Node5</title>
<path fill="none" stroke="#191970" d="M1552,-268.3055C1552,-242.9831 1552,-192.1556 1552,-163.9709"/>
<polygon fill="#191970" stroke="#191970" points="1555.5001,-163.7366 1552,-153.7366 1548.5001,-163.7367 1555.5001,-163.7366"/>
</g>
<!-- Node6 -->
<g id="node7" class="node">
<title>Node6</title>
<g id="a_node7"><a xlink:href="deprecations_8h.html" target="_top" xlink:title="mir_toolkit/deprecations.h">
<polygon fill="#ffffff" stroke="#000000" points="1306,-62 1306,-81 1434,-81 1434,-62 1306,-62"/>
<text text-anchor="middle" x="1370" y="-69" font-family="Arial" font-size="10.00" fill="#000000">mir_toolkit/deprecations.h</text>
</a>
</g>
</g>
<!-- Node1&#45;&gt;Node6 -->
<g id="edge44" class="edge">
<title>Node1&#45;&gt;Node6</title>
<path fill="none" stroke="#191970" d="M1581.4021,-268.3776C1633.1972,-239.83 1731.1444,-176.0975 1686,-123 1670.4857,-104.7526 1532.6212,-87.7315 1444.1887,-78.5568"/>
<polygon fill="#191970" stroke="#191970" points="1444.4994,-75.0704 1434.1943,-77.5314 1443.7848,-82.0338 1444.4994,-75.0704"/>
</g>
<!-- Node2&#45;&gt;Node3 -->
<g id="edge3" class="edge">
<title>Node2&#45;&gt;Node3</title>
<path fill="none" stroke="#191970" d="M953.0684,-215.9237C1090.9192,-213.7901 1491.8354,-204.283 1616,-165 1620.609,-163.5418 1625.2469,-161.3696 1629.5712,-158.9673"/>
<polygon fill="#191970" stroke="#191970" points="1631.7231,-161.7526 1638.4033,-153.5292 1628.0529,-155.7919 1631.7231,-161.7526"/>
</g>
<!-- Node4 -->
<g id="node5" class="node">
<title>Node4</title>
<polygon fill="#ffffff" stroke="#bfbfbf" points="217.5,-.5 217.5,-19.5 266.5,-19.5 266.5,-.5 217.5,-.5"/>
<text text-anchor="middle" x="242" y="-7.5" font-family="Arial" font-size="10.00" fill="#000000">stdint.h</text>
</g>
<!-- Node2&#45;&gt;Node4 -->
<g id="edge4" class="edge">
<title>Node2&#45;&gt;Node4</title>
<path fill="none" stroke="#191970" d="M858.8441,-215.207C690.2369,-210.3638 125.8354,-192.1727 99,-165 64.9363,-130.5081 66.2928,-95.0631 95,-56 108.41,-37.7524 168.4171,-23.5156 207.4961,-15.9694"/>
<polygon fill="#191970" stroke="#191970" points="208.2391,-19.3912 217.4231,-14.1086 206.9494,-12.511 208.2391,-19.3912"/>
</g>
<!-- Node2&#45;&gt;Node5 -->
<g id="edge5" class="edge">
<title>Node2&#45;&gt;Node5</title>
<path fill="none" stroke="#191970" d="M953.0032,-213.697C1072.3854,-206.3593 1385.0351,-185.7171 1487,-165 1497.0055,-162.9671 1507.6327,-159.9264 1517.3319,-156.7858"/>
<polygon fill="#191970" stroke="#191970" points="1518.6799,-160.025 1527.0385,-153.5147 1516.4444,-153.3915 1518.6799,-160.025"/>
</g>
<!-- Node2&#45;&gt;Node6 -->
<g id="edge7" class="edge">
<title>Node2&#45;&gt;Node6</title>
<path fill="none" stroke="#191970" d="M953.1724,-212.5393C1028.7868,-205.5599 1173.1807,-189.4542 1218,-165 1240.0977,-152.9431 1235.6571,-137.8272 1256,-123 1278.7279,-106.4345 1307.6334,-93.4501 1330.6506,-84.6628"/>
<polygon fill="#191970" stroke="#191970" points="1331.9578,-87.9111 1340.1195,-81.1555 1329.5264,-81.3469 1331.9578,-87.9111"/>
</g>
<!-- Node7 -->
<g id="node8" class="node">
<title>Node7</title>
<g id="a_node8"><a xlink:href="input__event_8h.html" target="_top" xlink:title="mir_toolkit/events\l/input/input_event.h">
<polygon fill="#ffffff" stroke="#000000" points="108,-129 108,-159 210,-159 210,-129 108,-129"/>
<text text-anchor="start" x="116" y="-147" font-family="Arial" font-size="10.00" fill="#000000">mir_toolkit/events</text>
<text text-anchor="middle" x="159" y="-136" font-family="Arial" font-size="10.00" fill="#000000">/input/input_event.h</text>
</a>
</g>
</g>
<!-- Node2&#45;&gt;Node7 -->
<g id="edge8" class="edge">
<title>Node2&#45;&gt;Node7</title>
<path fill="none" stroke="#191970" d="M858.7223,-214.7347C722.8818,-209.1787 333.9614,-190.8711 210,-165 206.1006,-164.1862 202.1081,-163.1844 198.1514,-162.0638"/>
<polygon fill="#191970" stroke="#191970" points="199.0509,-158.6786 188.4634,-159.0731 196.9861,-165.3672 199.0509,-158.6786"/>
</g>
<!-- Node14 -->
<g id="node15" class="node">
<title>Node14</title>
<g id="a_node15"><a xlink:href="resize__event_8h.html" target="_top" xlink:title="mir_toolkit/events\l/resize_event.h">
<polygon fill="#ffffff" stroke="#000000" points="228,-129 228,-159 322,-159 322,-129 228,-129"/>
<text text-anchor="start" x="236" y="-147" font-family="Arial" font-size="10.00" fill="#000000">mir_toolkit/events</text>
<text text-anchor="middle" x="275" y="-136" font-family="Arial" font-size="10.00" fill="#000000">/resize_event.h</text>
</a>
</g>
</g>
<!-- Node2&#45;&gt;Node14 -->
<g id="edge19" class="edge">
<title>Node2&#45;&gt;Node14</title>
<path fill="none" stroke="#191970" d="M858.615,-214.1427C738.1827,-207.5887 423.3855,-188.1032 322,-165 318.5547,-164.2149 315.0359,-163.2675 311.545,-162.2147"/>
<polygon fill="#191970" stroke="#191970" points="312.4585,-158.8304 301.8652,-159.0162 310.2622,-165.477 312.4585,-158.8304"/>
</g>
<!-- Node15 -->
<g id="node16" class="node">
<title>Node15</title>
<g id="a_node16"><a xlink:href="surface__event_8h.html" target="_top" xlink:title="mir_toolkit/events\l/surface_event.h">
<polygon fill="#ffffff" stroke="#000000" points="1265,-129 1265,-159 1359,-159 1359,-129 1265,-129"/>
<text text-anchor="start" x="1273" y="-147" font-family="Arial" font-size="10.00" fill="#000000">mir_toolkit/events</text>
<text text-anchor="middle" x="1312" y="-136" font-family="Arial" font-size="10.00" fill="#000000">/surface_event.h</text>
</a>
</g>
</g>
<!-- Node2&#45;&gt;Node15 -->
<g id="edge21" class="edge">
<title>Node2&#45;&gt;Node15</title>
<path fill="none" stroke="#191970" d="M953.2497,-211.5886C1018.8068,-204.616 1140.3787,-189.8542 1242,-165 1246.277,-163.9539 1250.679,-162.7339 1255.0992,-161.4181"/>
<polygon fill="#191970" stroke="#191970" points="1256.2529,-164.7247 1264.7636,-158.4146 1254.1754,-158.0401 1256.2529,-164.7247"/>
</g>
<!-- Node16 -->
<g id="node17" class="node">
<title>Node16</title>
<g id="a_node17"><a xlink:href="window__event_8h.html" target="_top" xlink:title="mir_toolkit/events\l/window_event.h">
<polygon fill="#ffffff" stroke="#000000" points="340,-129 340,-159 434,-159 434,-129 340,-129"/>
<text text-anchor="start" x="348" y="-147" font-family="Arial" font-size="10.00" fill="#000000">mir_toolkit/events</text>
<text text-anchor="middle" x="387" y="-136" font-family="Arial" font-size="10.00" fill="#000000">/window_event.h</text>
</a>
</g>
</g>
<!-- Node2&#45;&gt;Node16 -->
<g id="edge24" class="edge">
<title>Node2&#45;&gt;Node16</title>
<path fill="none" stroke="#191970" d="M858.7872,-215.2997C772.8416,-212.199 586.2051,-201.405 434,-165 430.6154,-164.1905 427.1572,-163.233 423.7229,-162.1801"/>
<polygon fill="#191970" stroke="#191970" points="424.7819,-158.8438 414.1882,-159.0041 422.5696,-165.4851 424.7819,-158.8438"/>
</g>
<!-- Node17 -->
<g id="node18" class="node">
<title>Node17</title>
<g id="a_node18"><a xlink:href="orientation__event_8h.html" target="_top" xlink:title="mir_toolkit/events\l/orientation_event.h">
<polygon fill="#ffffff" stroke="#000000" points="452,-129 452,-159 554,-159 554,-129 452,-129"/>
<text text-anchor="start" x="460" y="-147" font-family="Arial" font-size="10.00" fill="#000000">mir_toolkit/events</text>
<text text-anchor="middle" x="503" y="-136" font-family="Arial" font-size="10.00" fill="#000000">/orientation_event.h</text>
</a>
</g>
</g>
<!-- Node2&#45;&gt;Node17 -->
<g id="edge26" class="edge">
<title>Node2&#45;&gt;Node17</title>
<path fill="none" stroke="#191970" d="M858.8941,-212.8155C790.6286,-206.4701 661.108,-191.5353 554,-165 550.5754,-164.1516 547.0704,-163.1876 543.5761,-162.1501"/>
<polygon fill="#191970" stroke="#191970" points="544.4221,-158.7468 533.8321,-159.0666 542.3101,-165.4206 544.4221,-158.7468"/>
</g>
<!-- Node18 -->
<g id="node19" class="node">
<title>Node18</title>
<g id="a_node19"><a xlink:href="prompt__session__event_8h.html" target="_top" xlink:title="mir_toolkit/events\l/prompt_session_event.h">
<polygon fill="#ffffff" stroke="#000000" points="572,-129 572,-159 698,-159 698,-129 572,-129"/>
<text text-anchor="start" x="580" y="-147" font-family="Arial" font-size="10.00" fill="#000000">mir_toolkit/events</text>
<text text-anchor="middle" x="635" y="-136" font-family="Arial" font-size="10.00" fill="#000000">/prompt_session_event.h</text>
</a>
</g>
</g>
<!-- Node2&#45;&gt;Node18 -->
<g id="edge28" class="edge">
<title>Node2&#45;&gt;Node18</title>
<path fill="none" stroke="#191970" d="M858.6597,-206.4054C816.2247,-196.2744 752.7087,-180.0537 698,-165 694.3985,-164.009 690.7,-162.9764 686.9842,-161.924"/>
<polygon fill="#191970" stroke="#191970" points="687.7398,-158.4996 677.1624,-159.1067 685.8098,-165.2283 687.7398,-158.4996"/>
</g>
<!-- Node19 -->
<g id="node20" class="node">
<title>Node19</title>
<g id="a_node20"><a xlink:href="keymap__event_8h.html" target="_top" xlink:title="mir_toolkit/events\l/keymap_event.h">
<polygon fill="#ffffff" stroke="#000000" points="975,-129 975,-159 1069,-159 1069,-129 975,-129"/>
<text text-anchor="start" x="983" y="-147" font-family="Arial" font-size="10.00" fill="#000000">mir_toolkit/events</text>
<text text-anchor="middle" x="1022" y="-136" font-family="Arial" font-size="10.00" fill="#000000">/keymap_event.h</text>
</a>
</g>
</g>
<!-- Node2&#45;&gt;Node19 -->
<g id="edge30" class="edge">
<title>Node2&#45;&gt;Node19</title>
<path fill="none" stroke="#191970" d="M924.4425,-201.478C940.3681,-190.6877 963.6544,-176.023 983.5442,-164.2071"/>
<polygon fill="#191970" stroke="#191970" points="985.555,-167.0852 992.4052,-159.0028 982.0099,-161.0493 985.555,-167.0852"/>
</g>
<!-- Node20 -->
<g id="node21" class="node">
<title>Node20</title>
<g id="a_node21"><a xlink:href="input__configuration__event_8h.html" target="_top" xlink:title="mir_toolkit/events\l/input_configuration\l_event.h">
<polygon fill="#ffffff" stroke="#000000" points="1377.5,-123.5 1377.5,-164.5 1478.5,-164.5 1478.5,-123.5 1377.5,-123.5"/>
<text text-anchor="start" x="1385.5" y="-152.5" font-family="Arial" font-size="10.00" fill="#000000">mir_toolkit/events</text>
<text text-anchor="start" x="1385.5" y="-141.5" font-family="Arial" font-size="10.00" fill="#000000">/input_configuration</text>
<text text-anchor="middle" x="1428" y="-130.5" font-family="Arial" font-size="10.00" fill="#000000">_event.h</text>
</a>
</g>
</g>
<!-- Node2&#45;&gt;Node20 -->
<g id="edge33" class="edge">
<title>Node2&#45;&gt;Node20</title>
<path fill="none" stroke="#191970" d="M953.0283,-214.4949C1036.0237,-210.3442 1213.027,-198.2321 1359,-165 1361.9189,-164.3355 1364.8929,-163.576 1367.8881,-162.7492"/>
<polygon fill="#191970" stroke="#191970" points="1368.8875,-166.1036 1377.4855,-159.913 1366.9036,-159.3906 1368.8875,-166.1036"/>
</g>
<!-- Node21 -->
<g id="node22" class="node">
<title>Node21</title>
<g id="a_node22"><a xlink:href="surface__output__event_8h.html" target="_top" xlink:title="mir_toolkit/events\l/surface_output_event.h">
<polygon fill="#ffffff" stroke="#000000" points="1087,-129 1087,-159 1209,-159 1209,-129 1087,-129"/>
<text text-anchor="start" x="1095" y="-147" font-family="Arial" font-size="10.00" fill="#000000">mir_toolkit/events</text>
<text text-anchor="middle" x="1148" y="-136" font-family="Arial" font-size="10.00" fill="#000000">/surface_output_event.h</text>
</a>
</g>
</g>
<!-- Node2&#45;&gt;Node21 -->
<g id="edge36" class="edge">
<title>Node2&#45;&gt;Node21</title>
<path fill="none" stroke="#191970" d="M948.8069,-201.4088C981.7103,-191.1472 1028.0935,-177.26 1069,-165 1072.3214,-164.0045 1075.7314,-162.9823 1079.1841,-161.9504"/>
<polygon fill="#191970" stroke="#191970" points="1080.4045,-165.2389 1088.9898,-159.0306 1078.4068,-158.53 1080.4045,-165.2389"/>
</g>
<!-- Node22 -->
<g id="node23" class="node">
<title>Node22</title>
<g id="a_node23"><a xlink:href="window__output__event_8h.html" target="_top" xlink:title="mir_toolkit/events\l/window_output_event.h">
<polygon fill="#ffffff" stroke="#000000" points="716.5,-129 716.5,-159 837.5,-159 837.5,-129 716.5,-129"/>
<text text-anchor="start" x="724.5" y="-147" font-family="Arial" font-size="10.00" fill="#000000">mir_toolkit/events</text>
<text text-anchor="middle" x="777" y="-136" font-family="Arial" font-size="10.00" fill="#000000">/window_output_event.h</text>
</a>
</g>
</g>
<!-- Node2&#45;&gt;Node22 -->
<g id="edge39" class="edge">
<title>Node2&#45;&gt;Node22</title>
<path fill="none" stroke="#191970" d="M873.6784,-201.478C853.1404,-190.6877 826.8702,-176.023 806.8304,-164.2071"/>
<polygon fill="#191970" stroke="#191970" points="808.4856,-161.1191 798.1043,-159.0028 804.9,-167.1311 808.4856,-161.1191"/>
</g>
<!-- Node23 -->
<g id="node24" class="node">
<title>Node23</title>
<g id="a_node24"><a xlink:href="input__device__state__event_8h.html" target="_top" xlink:title="mir_toolkit/events\l/input_device_state\l_event.h">
<polygon fill="#ffffff" stroke="#000000" points="855.5,-123.5 855.5,-164.5 956.5,-164.5 956.5,-123.5 855.5,-123.5"/>
<text text-anchor="start" x="863.5" y="-152.5" font-family="Arial" font-size="10.00" fill="#000000">mir_toolkit/events</text>
<text text-anchor="start" x="863.5" y="-141.5" font-family="Arial" font-size="10.00" fill="#000000">/input_device_state</text>
<text text-anchor="middle" x="906" y="-130.5" font-family="Arial" font-size="10.00" fill="#000000">_event.h</text>
</a>
</g>
</g>
<!-- Node2&#45;&gt;Node23 -->
<g id="edge41" class="edge">
<title>Node2&#45;&gt;Node23</title>
<path fill="none" stroke="#191970" d="M900.4073,-201.478C899.4426,-193.7032 899.081,-183.9168 899.3225,-174.634"/>
<polygon fill="#191970" stroke="#191970" points="902.8253,-174.6704 899.8514,-164.5015 895.8348,-174.3054 902.8253,-174.6704"/>
</g>
<!-- Node5&#45;&gt;Node6 -->
<g id="edge6" class="edge">
<title>Node5&#45;&gt;Node6</title>
<path fill="none" stroke="#191970" d="M1527.8318,-134.3726C1495.9249,-121.6624 1439.5878,-99.2204 1403.5632,-84.87"/>
<polygon fill="#191970" stroke="#191970" points="1404.5636,-81.501 1393.9783,-81.0518 1401.9731,-88.0041 1404.5636,-81.501"/>
</g>
<!-- Node7&#45;&gt;Node2 -->
<g id="edge9" class="edge">
<title>Node7&#45;&gt;Node2</title>
<path fill="none" stroke="#191970" d="M206.155,-159.0731C213.4279,-161.3953 220.8697,-163.5119 228,-165 346.5077,-189.7329 707.1736,-207.5532 848.4677,-213.9278"/>
<polygon fill="#191970" stroke="#191970" points="848.5092,-217.4331 858.656,-214.3848 848.8229,-210.4401 848.5092,-217.4331"/>
</g>
<!-- Node7&#45;&gt;Node4 -->
<g id="edge12" class="edge">
<title>Node7&#45;&gt;Node4</title>
<path fill="none" stroke="#191970" d="M182.0498,-128.9059C195.9071,-118.6702 212.7824,-103.9472 223,-87 233.6284,-69.3714 238.3228,-46.0726 240.3894,-29.7381"/>
<polygon fill="#191970" stroke="#191970" points="243.8802,-30.0078 241.4408,-19.6976 236.9182,-29.2787 243.8802,-30.0078"/>
</g>
<!-- Node8 -->
<g id="node9" class="node">
<title>Node8</title>
<g id="a_node9"><a xlink:href="mir__input__device__types_8h.html" target="_top" xlink:title="mir_toolkit/mir_input\l_device_types.h">
<polygon fill="#ffffff" stroke="#000000" points="394,-56.5 394,-86.5 498,-86.5 498,-56.5 394,-56.5"/>
<text text-anchor="start" x="402" y="-74.5" font-family="Arial" font-size="10.00" fill="#000000">mir_toolkit/mir_input</text>
<text text-anchor="middle" x="446" y="-63.5" font-family="Arial" font-size="10.00" fill="#000000">_device_types.h</text>
</a>
</g>
</g>
<!-- Node7&#45;&gt;Node8 -->
<g id="edge10" class="edge">
<title>Node7&#45;&gt;Node8</title>
<path fill="none" stroke="#191970" d="M199.7774,-128.9816C206.1702,-126.8439 212.7346,-124.7728 219,-123 291.223,-102.5643 310.9163,-104.1041 384,-87 384.1013,-86.9763 384.2027,-86.9526 384.3041,-86.9288"/>
<polygon fill="#191970" stroke="#191970" points="385.0142,-90.3576 393.9324,-84.6379 383.3938,-83.5477 385.0142,-90.3576"/>
</g>
<!-- Node7&#45;&gt;Node9 -->
<g id="edge13" class="edge">
<title>Node7&#45;&gt;Node9</title>
<path fill="none" stroke="#191970" d="M140.1406,-128.9695C126.8726,-117.985 109.0491,-102.3798 95,-87 77.8398,-68.2144 60.8345,-44.3846 49.9266,-28.2471"/>
<polygon fill="#191970" stroke="#191970" points="52.7105,-26.113 44.2537,-19.7307 46.8847,-29.9937 52.7105,-26.113"/>
</g>
<!-- Node10 -->
<g id="node11" class="node">
<title>Node10</title>
<g id="a_node11"><a xlink:href="touch__event_8h.html" target="_top" xlink:title="mir_toolkit/events\l/input/touch_event.h">
<polygon fill="#ffffff" stroke="#000000" points="270.5,-56.5 270.5,-86.5 375.5,-86.5 375.5,-56.5 270.5,-56.5"/>
<text text-anchor="start" x="278.5" y="-74.5" font-family="Arial" font-size="10.00" fill="#000000">mir_toolkit/events</text>
<text text-anchor="middle" x="323" y="-63.5" font-family="Arial" font-size="10.00" fill="#000000">/input/touch_event.h</text>
</a>
</g>
</g>
<!-- Node7&#45;&gt;Node10 -->
<g id="edge14" class="edge">
<title>Node7&#45;&gt;Node10</title>
<path fill="none" stroke="#191970" d="M192.9809,-128.978C218.1588,-117.8475 252.6623,-102.5944 279.7988,-90.5981"/>
<polygon fill="#191970" stroke="#191970" points="281.3316,-93.7473 289.0626,-86.5028 278.5013,-87.345 281.3316,-93.7473"/>
</g>
<!-- Node11 -->
<g id="node12" class="node">
<title>Node11</title>
<g id="a_node12"><a xlink:href="keyboard__event_8h.html" target="_top" xlink:title="mir_toolkit/events\l/input/keyboard_event.h">
<polygon fill="#ffffff" stroke="#000000" points="694.5,-56.5 694.5,-86.5 815.5,-86.5 815.5,-56.5 694.5,-56.5"/>
<text text-anchor="start" x="702.5" y="-74.5" font-family="Arial" font-size="10.00" fill="#000000">mir_toolkit/events</text>
<text text-anchor="middle" x="755" y="-63.5" font-family="Arial" font-size="10.00" fill="#000000">/input/keyboard_event.h</text>
</a>
</g>
</g>
<!-- Node7&#45;&gt;Node11 -->
<g id="edge15" class="edge">
<title>Node7&#45;&gt;Node11</title>
<path fill="none" stroke="#191970" d="M197.6593,-128.9442C204.6769,-126.6504 211.9935,-124.5391 219,-123 305.8122,-103.9303 559.3891,-84.7757 684.0908,-76.1838"/>
<polygon fill="#191970" stroke="#191970" points="684.5584,-79.6601 694.2957,-75.4845 684.0797,-72.6764 684.5584,-79.6601"/>
</g>
<!-- Node13 -->
<g id="node14" class="node">
<title>Node13</title>
<g id="a_node14"><a xlink:href="pointer__event_8h.html" target="_top" xlink:title="mir_toolkit/events\l/input/pointer_event.h">
<polygon fill="#ffffff" stroke="#000000" points="104,-56.5 104,-86.5 214,-86.5 214,-56.5 104,-56.5"/>
<text text-anchor="start" x="112" y="-74.5" font-family="Arial" font-size="10.00" fill="#000000">mir_toolkit/events</text>
<text text-anchor="middle" x="159" y="-63.5" font-family="Arial" font-size="10.00" fill="#000000">/input/pointer_event.h</text>
</a>
</g>
</g>
<!-- Node7&#45;&gt;Node13 -->
<g id="edge17" class="edge">
<title>Node7&#45;&gt;Node13</title>
<path fill="none" stroke="#191970" d="M159,-128.978C159,-119.6459 159,-107.4157 159,-96.6368"/>
<polygon fill="#191970" stroke="#191970" points="162.5001,-96.5028 159,-86.5028 155.5001,-96.5028 162.5001,-96.5028"/>
</g>
<!-- Node8&#45;&gt;Node4 -->
<g id="edge11" class="edge">
<title>Node8&#45;&gt;Node4</title>
<path fill="none" stroke="#191970" d="M396.096,-56.4554C358.8953,-45.2405 309.0571,-30.2157 276.2644,-20.3297"/>
<polygon fill="#191970" stroke="#191970" points="277.2521,-16.9719 266.6674,-17.4365 275.2316,-23.674 277.2521,-16.9719"/>
</g>
<!-- Node12 -->
<g id="node13" class="node">
<title>Node12</title>
<polygon fill="#ffffff" stroke="#bfbfbf" points="777,-.5 777,-19.5 911,-19.5 911,-.5 777,-.5"/>
<text text-anchor="middle" x="844" y="-7.5" font-family="Arial" font-size="10.00" fill="#000000">xkbcommon/xkbcommon.h</text>
</g>
<!-- Node11&#45;&gt;Node12 -->
<g id="edge16" class="edge">
<title>Node11&#45;&gt;Node12</title>
<path fill="none" stroke="#191970" d="M777,-56.2977C790.5968,-46.9022 807.9966,-34.8787 821.6567,-25.4395"/>
<polygon fill="#191970" stroke="#191970" points="823.7785,-28.2276 830.0158,-19.6633 819.7991,-22.4688 823.7785,-28.2276"/>
</g>
<!-- Node13&#45;&gt;Node9 -->
<g id="edge18" class="edge">
<title>Node13&#45;&gt;Node9</title>
<path fill="none" stroke="#191970" d="M129.4001,-56.4554C110.0078,-46.599 84.8258,-33.7999 65.8057,-24.1327"/>
<polygon fill="#191970" stroke="#191970" points="67.2512,-20.9412 56.7507,-19.5303 64.0795,-27.1815 67.2512,-20.9412"/>
</g>
<!-- Node14&#45;&gt;Node2 -->
<g id="edge20" class="edge">
<title>Node14&#45;&gt;Node2</title>
<path fill="none" stroke="#191970" d="M319.5568,-159.0162C326.3597,-161.3441 333.3183,-163.4774 340,-165 436.237,-186.93 724.7614,-205.6004 848.6197,-213.0454"/>
<polygon fill="#191970" stroke="#191970" points="848.476,-216.543 858.6672,-213.6465 848.8941,-209.5555 848.476,-216.543"/>
</g>
<!-- Node15&#45;&gt;Node2 -->
<g id="edge22" class="edge">
<title>Node15&#45;&gt;Node2</title>
<path fill="none" stroke="#191970" d="M1280.4941,-159.0591C1273.8014,-161.2678 1266.7454,-163.3502 1260,-165 1157.1149,-190.1633 1033.7798,-204.9816 963.09,-211.8452"/>
<polygon fill="#191970" stroke="#191970" points="962.6745,-208.3688 953.051,-212.8004 963.3376,-215.3373 962.6745,-208.3688"/>
</g>
<!-- Node15&#45;&gt;Node6 -->
<g id="edge23" class="edge">
<title>Node15&#45;&gt;Node6</title>
<path fill="none" stroke="#191970" d="M1324.0176,-128.978C1333.2025,-117.4969 1345.8965,-101.6294 1355.6205,-89.4744"/>
<polygon fill="#191970" stroke="#191970" points="1358.5695,-91.3908 1362.0835,-81.3957 1353.1034,-87.0179 1358.5695,-91.3908"/>
</g>
<!-- Node16&#45;&gt;Node2 -->
<g id="edge25" class="edge">
<title>Node16&#45;&gt;Node2</title>
<path fill="none" stroke="#191970" d="M431.8936,-159.0041C438.595,-161.3034 445.436,-163.43 452,-165 592.2127,-198.5366 761.6448,-210.3391 848.586,-214.4147"/>
<polygon fill="#191970" stroke="#191970" points="848.6245,-217.9199 858.7722,-214.8744 848.9401,-210.927 848.6245,-217.9199"/>
</g>
<!-- Node17&#45;&gt;Node2 -->
<g id="edge27" class="edge">
<title>Node17&#45;&gt;Node2</title>
<path fill="none" stroke="#191970" d="M551.5764,-159.0666C558.4144,-161.2744 565.3583,-163.3546 572,-165 667.9016,-188.759 781.7713,-203.218 848.812,-210.5383"/>
<polygon fill="#191970" stroke="#191970" points="848.4402,-214.0184 858.7575,-211.6095 849.1899,-207.0587 848.4402,-214.0184"/>
</g>
<!-- Node18&#45;&gt;Node2 -->
<g id="edge29" class="edge">
<title>Node18&#45;&gt;Node2</title>
<path fill="none" stroke="#191970" d="M694.9935,-159.1067C702.0978,-161.1218 709.2207,-163.1346 716,-165 760.6934,-177.2979 811.2647,-190.3746 849.0671,-200.2737"/>
<polygon fill="#191970" stroke="#191970" points="848.3213,-203.6965 858.8822,-202.8486 850.0977,-196.9256 848.3213,-203.6965"/>
</g>
<!-- Node19&#45;&gt;Node2 -->
<g id="edge31" class="edge">
<title>Node19&#45;&gt;Node2</title>
<path fill="none" stroke="#191970" d="M1003.5859,-159.0028C987.669,-169.7884 964.3851,-184.4525 944.4912,-196.2718"/>
<polygon fill="#191970" stroke="#191970" points="942.4779,-193.3952 935.628,-201.478 946.0232,-199.431 942.4779,-193.3952"/>
</g>
<!-- Node19&#45;&gt;Node12 -->
<g id="edge32" class="edge">
<title>Node19&#45;&gt;Node12</title>
<path fill="none" stroke="#191970" d="M1001.9271,-128.889C968.0413,-103.3794 899.8073,-52.0122 865.1856,-25.9487"/>
<polygon fill="#191970" stroke="#191970" points="866.852,-22.8223 856.7578,-19.6042 862.642,-28.4148 866.852,-22.8223"/>
</g>
<!-- Node20&#45;&gt;Node2 -->
<g id="edge34" class="edge">
<title>Node20&#45;&gt;Node2</title>
<path fill="none" stroke="#191970" d="M1378.9445,-164.5454C1378.294,-164.7014 1377.6457,-164.853 1377,-165 1230.531,-198.345 1052.8203,-210.4262 963.2671,-214.537"/>
<polygon fill="#191970" stroke="#191970" points="962.8874,-211.0502 953.0518,-214.9886 963.1967,-218.0434 962.8874,-211.0502"/>
</g>
<!-- Node20&#45;&gt;Node6 -->
<g id="edge35" class="edge">
<title>Node20&#45;&gt;Node6</title>
<path fill="none" stroke="#191970" d="M1411.5347,-123.4183C1402.848,-112.56 1392.3032,-99.379 1384.0123,-89.0154"/>
<polygon fill="#191970" stroke="#191970" points="1386.6483,-86.7076 1377.6683,-81.0853 1381.1822,-91.0805 1386.6483,-86.7076"/>
</g>
<!-- Node21&#45;&gt;Node2 -->
<g id="edge37" class="edge">
<title>Node21&#45;&gt;Node2</title>
<path fill="none" stroke="#191970" d="M1106.83,-159.0306C1100.2161,-161.0381 1093.4415,-163.0694 1087,-165 1045.6515,-177.3925 998.7072,-191.4475 962.8957,-201.7402"/>
<polygon fill="#191970" stroke="#191970" points="961.7572,-198.4254 953.1042,-204.539 963.681,-205.1558 961.7572,-198.4254"/>
</g>
<!-- Node21&#45;&gt;Node6 -->
<g id="edge38" class="edge">
<title>Node21&#45;&gt;Node6</title>
<path fill="none" stroke="#191970" d="M1193.9985,-128.978C1234.4532,-115.7664 1292.6936,-96.7465 1330.9311,-84.259"/>
<polygon fill="#191970" stroke="#191970" points="1332.2565,-87.5081 1340.6758,-81.0766 1330.0833,-80.854 1332.2565,-87.5081"/>
</g>
<!-- Node22&#45;&gt;Node2 -->
<g id="edge40" class="edge">
<title>Node22&#45;&gt;Node2</title>
<path fill="none" stroke="#191970" d="M809.285,-159.0028C829.8161,-169.7884 856.0866,-184.4525 876.1339,-196.2718"/>
<polygon fill="#191970" stroke="#191970" points="874.4824,-199.3621 884.8638,-201.478 878.0678,-193.3499 874.4824,-199.3621"/>
</g>
<!-- Node23&#45;&gt;Node2 -->
<g id="edge42" class="edge">
<title>Node23&#45;&gt;Node2</title>
<path fill="none" stroke="#191970" d="M912.1486,-164.5015C912.829,-172.8652 912.9321,-182.6173 912.4577,-191.4016"/>
<polygon fill="#191970" stroke="#191970" points="908.9609,-191.2152 911.5927,-201.478 915.9353,-191.814 908.9609,-191.2152"/>
</g>
</g>
</svg>
