<?xml version="1.0" encoding="UTF-8" standalone="no"?>
<!DOCTYPE svg PUBLIC "-//W3C//DTD SVG 1.1//EN"
 "http://www.w3.org/Graphics/SVG/1.1/DTD/svg11.dtd">
<!-- Generated by graphviz version 2.38.0 (20140413.2041)
 -->
<!-- Title: include/common/mir/input/mir_input_config.h Pages: 1 -->
<svg width="602pt" height="218pt"
 viewBox="0.00 0.00 601.50 218.00" xmlns="http://www.w3.org/2000/svg" xmlns:xlink="http://www.w3.org/1999/xlink">
<g id="graph0" class="graph" transform="scale(1 1) rotate(0) translate(4 214)">
<title>include/common/mir/input/mir_input_config.h</title>
<polygon fill="white" stroke="none" points="-4,4 -4,-214 597.5,-214 597.5,4 -4,4"/>
<!-- Node0 -->
<g id="node1" class="node"><title>Node0</title>
<polygon fill="#bfbfbf" stroke="black" points="310.5,-179.5 310.5,-209.5 433.5,-209.5 433.5,-179.5 310.5,-179.5"/>
<text text-anchor="start" x="318.5" y="-197.5" font-family="Arial" font-size="10.00">include/common/mir</text>
<text text-anchor="middle" x="372" y="-186.5" font-family="Arial" font-size="10.00">/input/mir_input_config.h</text>
</g>
<!-- Node1 -->
<g id="node2" class="node"><title>Node1</title>
<g id="a_node2"><a xlink:href="mir__input__device__types_8h.html" target="_top" xlink:title="mir_toolkit/mir_input\l_device_types.h">
<polygon fill="white" stroke="black" points="0,-112.5 0,-142.5 104,-142.5 104,-112.5 0,-112.5"/>
<text text-anchor="start" x="8" y="-130.5" font-family="Arial" font-size="10.00">mir_toolkit/mir_input</text>
<text text-anchor="middle" x="52" y="-119.5" font-family="Arial" font-size="10.00">_device_types.h</text>
</a>
</g>
</g>
<!-- Node0&#45;&gt;Node1 -->
<g id="edge1" class="edge"><title>Node0&#45;&gt;Node1</title>
<path fill="none" stroke="midnightblue" d="M310.367,-182.215C260.059,-172.836 186.894,-158.817 114.023,-143.175"/>
<polygon fill="midnightblue" stroke="midnightblue" points="114.725,-139.746 104.212,-141.059 113.249,-146.589 114.725,-139.746"/>
</g>
<!-- Node3 -->
<g id="node4" class="node"><title>Node3</title>
<g id="a_node4"><a xlink:href="device__capability_8h.html" target="_top" xlink:title="mir/input/device_capability.h">
<polygon fill="white" stroke="black" points="122,-118 122,-137 262,-137 262,-118 122,-118"/>
<text text-anchor="middle" x="192" y="-125" font-family="Arial" font-size="10.00">mir/input/device_capability.h</text>
</a>
</g>
</g>
<!-- Node0&#45;&gt;Node3 -->
<g id="edge3" class="edge"><title>Node0&#45;&gt;Node3</title>
<path fill="none" stroke="midnightblue" d="M332.943,-179.396C300.801,-167.789 255.733,-151.515 225.284,-140.519"/>
<polygon fill="midnightblue" stroke="midnightblue" points="226.152,-137.112 215.558,-137.007 223.775,-143.695 226.152,-137.112"/>
</g>
<!-- Node7 -->
<g id="node8" class="node"><title>Node7</title>
<polygon fill="white" stroke="#bfbfbf" points="280,-118 280,-137 332,-137 332,-118 280,-118"/>
<text text-anchor="middle" x="306" y="-125" font-family="Arial" font-size="10.00">memory</text>
</g>
<!-- Node0&#45;&gt;Node7 -->
<g id="edge7" class="edge"><title>Node0&#45;&gt;Node7</title>
<path fill="none" stroke="midnightblue" d="M357.679,-179.396C347.184,-169.06 332.932,-155.024 322.052,-144.309"/>
<polygon fill="midnightblue" stroke="midnightblue" points="324.409,-141.718 314.828,-137.195 319.497,-146.705 324.409,-141.718"/>
</g>
<!-- Node8 -->
<g id="node9" class="node"><title>Node8</title>
<polygon fill="white" stroke="#bfbfbf" points="350,-118 350,-137 394,-137 394,-118 350,-118"/>
<text text-anchor="middle" x="372" y="-125" font-family="Arial" font-size="10.00">vector</text>
</g>
<!-- Node0&#45;&gt;Node8 -->
<g id="edge8" class="edge"><title>Node0&#45;&gt;Node8</title>
<path fill="none" stroke="midnightblue" d="M372,-179.396C372,-170.064 372,-157.714 372,-147.517"/>
<polygon fill="midnightblue" stroke="midnightblue" points="375.5,-147.195 372,-137.195 368.5,-147.195 375.5,-147.195"/>
</g>
<!-- Node9 -->
<g id="node10" class="node"><title>Node9</title>
<polygon fill="white" stroke="#bfbfbf" points="412.5,-118 412.5,-137 453.5,-137 453.5,-118 412.5,-118"/>
<text text-anchor="middle" x="433" y="-125" font-family="Arial" font-size="10.00">string</text>
</g>
<!-- Node0&#45;&gt;Node9 -->
<g id="edge9" class="edge"><title>Node0&#45;&gt;Node9</title>
<path fill="none" stroke="midnightblue" d="M385.236,-179.396C394.841,-169.161 407.853,-155.296 417.87,-144.622"/>
<polygon fill="midnightblue" stroke="midnightblue" points="420.55,-146.882 424.841,-137.195 415.445,-142.091 420.55,-146.882"/>
</g>
<!-- Node10 -->
<g id="node11" class="node"><title>Node10</title>
<polygon fill="white" stroke="#bfbfbf" points="472,-118 472,-137 516,-137 516,-118 472,-118"/>
<text text-anchor="middle" x="494" y="-125" font-family="Arial" font-size="10.00">iosfwd</text>
</g>
<!-- Node0&#45;&gt;Node10 -->
<g id="edge10" class="edge"><title>Node0&#45;&gt;Node10</title>
<path fill="none" stroke="midnightblue" d="M398.472,-179.396C419.405,-168.243 448.426,-152.781 468.974,-141.834"/>
<polygon fill="midnightblue" stroke="midnightblue" points="470.853,-144.798 478.033,-137.007 467.562,-138.62 470.853,-144.798"/>
</g>
<!-- Node11 -->
<g id="node12" class="node"><title>Node11</title>
<polygon fill="white" stroke="#bfbfbf" points="534.5,-118 534.5,-137 593.5,-137 593.5,-118 534.5,-118"/>
<text text-anchor="middle" x="564" y="-125" font-family="Arial" font-size="10.00">functional</text>
</g>
<!-- Node0&#45;&gt;Node11 -->
<g id="edge11" class="edge"><title>Node0&#45;&gt;Node11</title>
<path fill="none" stroke="midnightblue" d="M416.004,-179.455C446.659,-169.553 488.443,-155.824 525,-143 527.243,-142.213 529.554,-141.389 531.878,-140.55"/>
<polygon fill="midnightblue" stroke="midnightblue" points="533.179,-143.801 541.367,-137.077 530.773,-137.228 533.179,-143.801"/>
</g>
<!-- Node2 -->
<g id="node3" class="node"><title>Node2</title>
<polygon fill="white" stroke="#bfbfbf" points="27.5,-56.5 27.5,-75.5 76.5,-75.5 76.5,-56.5 27.5,-56.5"/>
<text text-anchor="middle" x="52" y="-63.5" font-family="Arial" font-size="10.00">stdint.h</text>
</g>
<!-- Node1&#45;&gt;Node2 -->
<g id="edge2" class="edge"><title>Node1&#45;&gt;Node2</title>
<path fill="none" stroke="midnightblue" d="M52,-112.399C52,-104.466 52,-94.458 52,-85.8583"/>
<polygon fill="midnightblue" stroke="midnightblue" points="55.5001,-85.6577 52,-75.6578 48.5001,-85.6578 55.5001,-85.6577"/>
</g>
<!-- Node4 -->
<g id="node5" class="node"><title>Node4</title>
<g id="a_node5"><a xlink:href="flags_8h.html" target="_top" xlink:title="mir/flags.h">
<polygon fill="white" stroke="black" points="128,-56.5 128,-75.5 190,-75.5 190,-56.5 128,-56.5"/>
<text text-anchor="middle" x="159" y="-63.5" font-family="Arial" font-size="10.00">mir/flags.h</text>
</a>
</g>
</g>
<!-- Node3&#45;&gt;Node4 -->
<g id="edge4" class="edge"><title>Node3&#45;&gt;Node4</title>
<path fill="none" stroke="midnightblue" d="M187.272,-117.975C182.42,-109.227 174.734,-95.3691 168.6,-84.3093"/>
<polygon fill="midnightblue" stroke="midnightblue" points="171.63,-82.5566 163.719,-75.5091 165.509,-85.9517 171.63,-82.5566"/>
</g>
<!-- Node6 -->
<g id="node7" class="node"><title>Node6</title>
<polygon fill="white" stroke="#bfbfbf" points="208,-56.5 208,-75.5 254,-75.5 254,-56.5 208,-56.5"/>
<text text-anchor="middle" x="231" y="-63.5" font-family="Arial" font-size="10.00">cstdint</text>
</g>
<!-- Node3&#45;&gt;Node6 -->
<g id="edge6" class="edge"><title>Node3&#45;&gt;Node6</title>
<path fill="none" stroke="midnightblue" d="M197.588,-117.975C203.38,-109.138 212.589,-95.0886 219.874,-83.975"/>
<polygon fill="midnightblue" stroke="midnightblue" points="222.868,-85.7913 225.423,-75.5091 217.013,-81.9539 222.868,-85.7913"/>
</g>
<!-- Node5 -->
<g id="node6" class="node"><title>Node5</title>
<polygon fill="white" stroke="#bfbfbf" points="128,-0.5 128,-19.5 190,-19.5 190,-0.5 128,-0.5"/>
<text text-anchor="middle" x="159" y="-7.5" font-family="Arial" font-size="10.00">type_traits</text>
</g>
<!-- Node4&#45;&gt;Node5 -->
<g id="edge5" class="edge"><title>Node4&#45;&gt;Node5</title>
<path fill="none" stroke="midnightblue" d="M159,-56.083C159,-49.0059 159,-38.8611 159,-29.9865"/>
<polygon fill="midnightblue" stroke="midnightblue" points="162.5,-29.751 159,-19.7511 155.5,-29.7511 162.5,-29.751"/>
</g>
</g>
</svg>
