<?xml version="1.0" encoding="UTF-8" standalone="no"?>
<!DOCTYPE svg PUBLIC "-//W3C//DTD SVG 1.1//EN"
 "http://www.w3.org/Graphics/SVG/1.1/DTD/svg11.dtd">
<!-- Generated by graphviz version 2.40.1 (20161225.0304)
 -->
<!-- Title: include/client/mir_toolkit/mir_buffer.h Pages: 1 -->
<svg width="1798pt" height="374pt"
 viewBox="0.00 0.00 1797.99 374.00" xmlns="http://www.w3.org/2000/svg" xmlns:xlink="http://www.w3.org/1999/xlink">
<g id="graph0" class="graph" transform="scale(1 1) rotate(0) translate(4 370)">
<title>include/client/mir_toolkit/mir_buffer.h</title>
<polygon fill="#ffffff" stroke="transparent" points="-4,4 -4,-370 1793.994,-370 1793.994,4 -4,4"/>
<!-- Node0 -->
<g id="node1" class="node">
<title>Node0</title>
<polygon fill="#bfbfbf" stroke="#000000" points="1600.494,-335.5 1600.494,-365.5 1703.494,-365.5 1703.494,-335.5 1600.494,-335.5"/>
<text text-anchor="start" x="1608.494" y="-353.5" font-family="Arial" font-size="10.00" fill="#000000">include/client/mir</text>
<text text-anchor="middle" x="1651.994" y="-342.5" font-family="Arial" font-size="10.00" fill="#000000">_toolkit/mir_buffer.h</text>
</g>
<!-- Node1 -->
<g id="node2" class="node">
<title>Node1</title>
<polygon fill="#ffffff" stroke="#bfbfbf" points="1436.994,-.5 1436.994,-19.5 1492.994,-19.5 1492.994,-.5 1436.994,-.5"/>
<text text-anchor="middle" x="1464.994" y="-7.5" font-family="Arial" font-size="10.00" fill="#000000">stdbool.h</text>
</g>
<!-- Node0&#45;&gt;Node1 -->
<g id="edge1" class="edge">
<title>Node0&#45;&gt;Node1</title>
<path fill="none" stroke="#191970" d="M1654.9311,-335.3522C1661.5714,-296.7997 1674.1388,-193.0616 1632.994,-123 1603.3942,-72.5973 1541.3631,-39.9955 1501.5225,-23.3357"/>
<polygon fill="#191970" stroke="#191970" points="1502.7334,-20.05 1492.1509,-19.5389 1500.1049,-26.5378 1502.7334,-20.05"/>
</g>
<!-- Node2 -->
<g id="node3" class="node">
<title>Node2</title>
<g id="a_node3"><a xlink:href="client__types_8h.html" target="_top" xlink:title="mir_toolkit/client\l_types.h">
<polygon fill="#ffffff" stroke="#000000" points="778.994,-268.5 778.994,-298.5 866.994,-298.5 866.994,-268.5 778.994,-268.5"/>
<text text-anchor="start" x="786.994" y="-286.5" font-family="Arial" font-size="10.00" fill="#000000">mir_toolkit/client</text>
<text text-anchor="middle" x="822.994" y="-275.5" font-family="Arial" font-size="10.00" fill="#000000">_types.h</text>
</a>
</g>
</g>
<!-- Node0&#45;&gt;Node2 -->
<g id="edge2" class="edge">
<title>Node0&#45;&gt;Node2</title>
<path fill="none" stroke="#191970" d="M1600.4496,-346.3342C1452.6222,-334.3867 1028.1742,-300.0827 877.1466,-287.8766"/>
<polygon fill="#191970" stroke="#191970" points="877.4254,-284.3878 867.1759,-287.0708 876.8614,-291.3651 877.4254,-284.3878"/>
</g>
<!-- Node24 -->
<g id="node25" class="node">
<title>Node24</title>
<g id="a_node25"><a xlink:href="mir__native__buffer_8h.html" target="_top" xlink:title="mir_toolkit/mir_native\l_buffer.h">
<polygon fill="#ffffff" stroke="#000000" points="1679.994,-268.5 1679.994,-298.5 1789.994,-298.5 1789.994,-268.5 1679.994,-268.5"/>
<text text-anchor="start" x="1687.994" y="-286.5" font-family="Arial" font-size="10.00" fill="#000000">mir_toolkit/mir_native</text>
<text text-anchor="middle" x="1734.994" y="-275.5" font-family="Arial" font-size="10.00" fill="#000000">_buffer.h</text>
</a>
</g>
</g>
<!-- Node0&#45;&gt;Node24 -->
<g id="edge47" class="edge">
<title>Node0&#45;&gt;Node24</title>
<path fill="none" stroke="#191970" d="M1670.828,-335.2967C1681.8646,-326.3876 1695.9863,-314.9882 1708.1705,-305.1527"/>
<polygon fill="#191970" stroke="#191970" points="1710.6518,-307.6478 1716.2346,-298.6432 1706.2549,-302.201 1710.6518,-307.6478"/>
</g>
<!-- Node3 -->
<g id="node4" class="node">
<title>Node3</title>
<g id="a_node4"><a xlink:href="toolkit_2events_2event_8h.html" target="_top" xlink:title="mir_toolkit/events\l/event.h">
<polygon fill="#ffffff" stroke="#000000" points="775.994,-201.5 775.994,-231.5 869.994,-231.5 869.994,-201.5 775.994,-201.5"/>
<text text-anchor="start" x="783.994" y="-219.5" font-family="Arial" font-size="10.00" fill="#000000">mir_toolkit/events</text>
<text text-anchor="middle" x="822.994" y="-208.5" font-family="Arial" font-size="10.00" fill="#000000">/event.h</text>
</a>
</g>
</g>
<!-- Node2&#45;&gt;Node3 -->
<g id="edge3" class="edge">
<title>Node2&#45;&gt;Node3</title>
<path fill="none" stroke="#191970" d="M822.994,-268.2967C822.994,-260.5013 822.994,-250.7991 822.994,-241.9064"/>
<polygon fill="#191970" stroke="#191970" points="826.4941,-241.6431 822.994,-231.6432 819.4941,-241.6432 826.4941,-241.6431"/>
</g>
<!-- Node4 -->
<g id="node5" class="node">
<title>Node4</title>
<polygon fill="#ffffff" stroke="#bfbfbf" points="1571.994,-134.5 1571.994,-153.5 1623.994,-153.5 1623.994,-134.5 1571.994,-134.5"/>
<text text-anchor="middle" x="1597.994" y="-141.5" font-family="Arial" font-size="10.00" fill="#000000">stddef.h</text>
</g>
<!-- Node2&#45;&gt;Node4 -->
<g id="edge46" class="edge">
<title>Node2&#45;&gt;Node4</title>
<path fill="none" stroke="#191970" d="M867.2475,-281.3373C983.3919,-274.6113 1305.3899,-249.1726 1557.994,-165 1563.1632,-163.2775 1568.4725,-160.9435 1573.4651,-158.4566"/>
<polygon fill="#191970" stroke="#191970" points="1575.3804,-161.4018 1582.5558,-153.6067 1572.0854,-155.2258 1575.3804,-161.4018"/>
</g>
<!-- Node6 -->
<g id="node7" class="node">
<title>Node6</title>
<g id="a_node7"><a xlink:href="common_8h.html" target="_top" xlink:title="mir_toolkit/common.h">
<polygon fill="#ffffff" stroke="#000000" points="17.994,-134.5 17.994,-153.5 127.994,-153.5 127.994,-134.5 17.994,-134.5"/>
<text text-anchor="middle" x="72.994" y="-141.5" font-family="Arial" font-size="10.00" fill="#000000">mir_toolkit/common.h</text>
</a>
</g>
</g>
<!-- Node2&#45;&gt;Node6 -->
<g id="edge44" class="edge">
<title>Node2&#45;&gt;Node6</title>
<path fill="none" stroke="#191970" d="M778.7912,-278.1423C669.0867,-264.3543 375.951,-224.5046 136.994,-165 127.7441,-162.6966 117.8958,-159.7309 108.7682,-156.7582"/>
<polygon fill="#191970" stroke="#191970" points="109.8027,-153.4137 99.2089,-153.5607 107.5822,-160.0522 109.8027,-153.4137"/>
</g>
<!-- Node7 -->
<g id="node8" class="node">
<title>Node7</title>
<g id="a_node8"><a xlink:href="deprecations_8h.html" target="_top" xlink:title="mir_toolkit/deprecations.h">
<polygon fill="#ffffff" stroke="#000000" points="312.994,-62 312.994,-81 440.994,-81 440.994,-62 312.994,-62"/>
<text text-anchor="middle" x="376.994" y="-69" font-family="Arial" font-size="10.00" fill="#000000">mir_toolkit/deprecations.h</text>
</a>
</g>
</g>
<!-- Node2&#45;&gt;Node7 -->
<g id="edge45" class="edge">
<title>Node2&#45;&gt;Node7</title>
<path fill="none" stroke="#191970" d="M778.8403,-280.5447C616.2232,-269.2024 57.5971,-226.0182 8.994,-165 -2.6361,-150.3991 -3.2565,-137.0843 8.994,-123 27.9506,-101.2058 200.4999,-84.6997 302.455,-76.7497"/>
<polygon fill="#191970" stroke="#191970" points="302.9987,-80.2183 312.7005,-75.961 302.4614,-73.2389 302.9987,-80.2183"/>
</g>
<!-- Node3&#45;&gt;Node4 -->
<g id="edge4" class="edge">
<title>Node3&#45;&gt;Node4</title>
<path fill="none" stroke="#191970" d="M870.0052,-214.331C1021.6838,-207.1769 1492.0847,-183.7173 1557.994,-165 1563.5584,-163.4198 1569.2365,-161.0072 1574.501,-158.3729"/>
<polygon fill="#191970" stroke="#191970" points="1576.304,-161.3765 1583.4164,-153.5239 1572.9594,-155.2272 1576.304,-161.3765"/>
</g>
<!-- Node5 -->
<g id="node6" class="node">
<title>Node5</title>
<polygon fill="#ffffff" stroke="#bfbfbf" points="1641.494,-.5 1641.494,-19.5 1690.494,-19.5 1690.494,-.5 1641.494,-.5"/>
<text text-anchor="middle" x="1665.994" y="-7.5" font-family="Arial" font-size="10.00" fill="#000000">stdint.h</text>
</g>
<!-- Node3&#45;&gt;Node5 -->
<g id="edge5" class="edge">
<title>Node3&#45;&gt;Node5</title>
<path fill="none" stroke="#191970" d="M870.0361,-214.0122C1022.6017,-205.8179 1495.5518,-179.3784 1524.994,-165 1547.6137,-153.9534 1541.2203,-135.6327 1562.994,-123 1627.5413,-85.5508 1680.2244,-145.1497 1726.994,-87 1735.629,-76.2639 1733.1395,-68.3313 1726.994,-56 1720.3937,-42.756 1707.9613,-32.3192 1696.0335,-24.7581"/>
<polygon fill="#191970" stroke="#191970" points="1697.5139,-21.5691 1687.1156,-19.5378 1693.9776,-27.6102 1697.5139,-21.5691"/>
</g>
<!-- Node3&#45;&gt;Node6 -->
<g id="edge6" class="edge">
<title>Node3&#45;&gt;Node6</title>
<path fill="none" stroke="#191970" d="M775.9422,-214.453C641.9052,-208.3862 259.8507,-189.3923 136.994,-165 127.119,-163.0394 116.6476,-160.0224 107.0978,-156.8813"/>
<polygon fill="#191970" stroke="#191970" points="108.1377,-153.5379 97.5431,-153.6021 105.8654,-160.1588 108.1377,-153.5379"/>
</g>
<!-- Node3&#45;&gt;Node7 -->
<g id="edge8" class="edge">
<title>Node3&#45;&gt;Node7</title>
<path fill="none" stroke="#191970" d="M775.7301,-215.6655C683.2637,-213.1904 482.6098,-203.4196 426.994,-165 401.5993,-147.4572 388.0209,-112.7844 381.6741,-90.9464"/>
<polygon fill="#191970" stroke="#191970" points="385.0126,-89.8821 379.0543,-81.1214 378.2489,-91.6856 385.0126,-89.8821"/>
</g>
<!-- Node8 -->
<g id="node9" class="node">
<title>Node8</title>
<g id="a_node9"><a xlink:href="input__event_8h.html" target="_top" xlink:title="mir_toolkit/events\l/input/input_event.h">
<polygon fill="#ffffff" stroke="#000000" points="1413.994,-129 1413.994,-159 1515.994,-159 1515.994,-129 1413.994,-129"/>
<text text-anchor="start" x="1421.994" y="-147" font-family="Arial" font-size="10.00" fill="#000000">mir_toolkit/events</text>
<text text-anchor="middle" x="1464.994" y="-136" font-family="Arial" font-size="10.00" fill="#000000">/input/input_event.h</text>
</a>
</g>
</g>
<!-- Node3&#45;&gt;Node8 -->
<g id="edge9" class="edge">
<title>Node3&#45;&gt;Node8</title>
<path fill="none" stroke="#191970" d="M870.3897,-213.5197C988.7924,-206.2053 1294.593,-186.3978 1394.994,-165 1398.9992,-164.1464 1403.1046,-163.1083 1407.2261,-161.9557"/>
<polygon fill="#191970" stroke="#191970" points="1408.2494,-165.303 1416.8327,-159.0918 1406.2495,-158.5947 1408.2494,-165.303"/>
</g>
<!-- Node14 -->
<g id="node15" class="node">
<title>Node14</title>
<g id="a_node15"><a xlink:href="resize__event_8h.html" target="_top" xlink:title="mir_toolkit/events\l/resize_event.h">
<polygon fill="#ffffff" stroke="#000000" points="547.994,-129 547.994,-159 641.994,-159 641.994,-129 547.994,-129"/>
<text text-anchor="start" x="555.994" y="-147" font-family="Arial" font-size="10.00" fill="#000000">mir_toolkit/events</text>
<text text-anchor="middle" x="594.994" y="-136" font-family="Arial" font-size="10.00" fill="#000000">/resize_event.h</text>
</a>
</g>
</g>
<!-- Node3&#45;&gt;Node14 -->
<g id="edge20" class="edge">
<title>Node3&#45;&gt;Node14</title>
<path fill="none" stroke="#191970" d="M775.649,-205.2961C738.77,-195.3415 686.7481,-180.0722 641.994,-165 639.5831,-164.1881 637.1208,-163.3392 634.6469,-162.4679"/>
<polygon fill="#191970" stroke="#191970" points="635.7257,-159.1363 625.1314,-159.0269 633.3451,-165.7191 635.7257,-159.1363"/>
</g>
<!-- Node15 -->
<g id="node16" class="node">
<title>Node15</title>
<g id="a_node16"><a xlink:href="surface__event_8h.html" target="_top" xlink:title="mir_toolkit/events\l/surface_event.h">
<polygon fill="#ffffff" stroke="#000000" points="435.994,-129 435.994,-159 529.994,-159 529.994,-129 435.994,-129"/>
<text text-anchor="start" x="443.994" y="-147" font-family="Arial" font-size="10.00" fill="#000000">mir_toolkit/events</text>
<text text-anchor="middle" x="482.994" y="-136" font-family="Arial" font-size="10.00" fill="#000000">/surface_event.h</text>
</a>
</g>
</g>
<!-- Node3&#45;&gt;Node15 -->
<g id="edge22" class="edge">
<title>Node3&#45;&gt;Node15</title>
<path fill="none" stroke="#191970" d="M775.9575,-211.4243C717.3656,-203.9953 615.0135,-188.4456 529.994,-165 527.0365,-164.1844 524.0156,-163.2773 520.9994,-162.3108"/>
<polygon fill="#191970" stroke="#191970" points="522.0586,-158.9741 511.4641,-159.0603 519.7999,-165.5997 522.0586,-158.9741"/>
</g>
<!-- Node16 -->
<g id="node17" class="node">
<title>Node16</title>
<g id="a_node17"><a xlink:href="window__event_8h.html" target="_top" xlink:title="mir_toolkit/events\l/window_event.h">
<polygon fill="#ffffff" stroke="#000000" points="659.994,-129 659.994,-159 753.994,-159 753.994,-129 659.994,-129"/>
<text text-anchor="start" x="667.994" y="-147" font-family="Arial" font-size="10.00" fill="#000000">mir_toolkit/events</text>
<text text-anchor="middle" x="706.994" y="-136" font-family="Arial" font-size="10.00" fill="#000000">/window_event.h</text>
</a>
</g>
</g>
<!-- Node3&#45;&gt;Node16 -->
<g id="edge25" class="edge">
<title>Node3&#45;&gt;Node16</title>
<path fill="none" stroke="#191970" d="M793.366,-201.478C775.098,-190.8821 751.9724,-176.5502 734.1753,-164.8486"/>
<polygon fill="#191970" stroke="#191970" points="735.6699,-161.6385 725.4082,-159.0028 731.7865,-167.4625 735.6699,-161.6385"/>
</g>
<!-- Node17 -->
<g id="node18" class="node">
<title>Node17</title>
<g id="a_node18"><a xlink:href="orientation__event_8h.html" target="_top" xlink:title="mir_toolkit/events\l/orientation_event.h">
<polygon fill="#ffffff" stroke="#000000" points="771.994,-129 771.994,-159 873.994,-159 873.994,-129 771.994,-129"/>
<text text-anchor="start" x="779.994" y="-147" font-family="Arial" font-size="10.00" fill="#000000">mir_toolkit/events</text>
<text text-anchor="middle" x="822.994" y="-136" font-family="Arial" font-size="10.00" fill="#000000">/orientation_event.h</text>
</a>
</g>
</g>
<!-- Node3&#45;&gt;Node17 -->
<g id="edge27" class="edge">
<title>Node3&#45;&gt;Node17</title>
<path fill="none" stroke="#191970" d="M817.4013,-201.478C816.2434,-192.1459 815.9544,-179.9157 816.5342,-169.1368"/>
<polygon fill="#191970" stroke="#191970" points="820.036,-169.2654 817.4037,-159.0028 813.0616,-168.667 820.036,-169.2654"/>
</g>
<!-- Node18 -->
<g id="node19" class="node">
<title>Node18</title>
<g id="a_node19"><a xlink:href="prompt__session__event_8h.html" target="_top" xlink:title="mir_toolkit/events\l/prompt_session_event.h">
<polygon fill="#ffffff" stroke="#000000" points="891.994,-129 891.994,-159 1017.994,-159 1017.994,-129 891.994,-129"/>
<text text-anchor="start" x="899.994" y="-147" font-family="Arial" font-size="10.00" fill="#000000">mir_toolkit/events</text>
<text text-anchor="middle" x="954.994" y="-136" font-family="Arial" font-size="10.00" fill="#000000">/prompt_session_event.h</text>
</a>
</g>
</g>
<!-- Node3&#45;&gt;Node18 -->
<g id="edge29" class="edge">
<title>Node3&#45;&gt;Node18</title>
<path fill="none" stroke="#191970" d="M844.7518,-201.478C863.306,-190.5419 890.2996,-175.626 912.9886,-163.7297"/>
<polygon fill="#191970" stroke="#191970" points="914.8275,-166.7185 922.0882,-159.0028 911.6007,-160.5066 914.8275,-166.7185"/>
</g>
<!-- Node19 -->
<g id="node20" class="node">
<title>Node19</title>
<g id="a_node20"><a xlink:href="keymap__event_8h.html" target="_top" xlink:title="mir_toolkit/events\l/keymap_event.h">
<polygon fill="#ffffff" stroke="#000000" points="145.994,-129 145.994,-159 239.994,-159 239.994,-129 145.994,-129"/>
<text text-anchor="start" x="153.994" y="-147" font-family="Arial" font-size="10.00" fill="#000000">mir_toolkit/events</text>
<text text-anchor="middle" x="192.994" y="-136" font-family="Arial" font-size="10.00" fill="#000000">/keymap_event.h</text>
</a>
</g>
</g>
<!-- Node3&#45;&gt;Node19 -->
<g id="edge31" class="edge">
<title>Node3&#45;&gt;Node19</title>
<path fill="none" stroke="#191970" d="M775.6841,-214.1392C655.4528,-207.5766 341.2028,-188.0711 239.994,-165 236.5488,-164.2146 233.03,-163.267 229.5391,-162.2141"/>
<polygon fill="#191970" stroke="#191970" points="230.4527,-158.8299 219.8595,-159.0153 228.2562,-165.4763 230.4527,-158.8299"/>
</g>
<!-- Node20 -->
<g id="node21" class="node">
<title>Node20</title>
<g id="a_node21"><a xlink:href="input__configuration__event_8h.html" target="_top" xlink:title="mir_toolkit/events\l/input_configuration\l_event.h">
<polygon fill="#ffffff" stroke="#000000" points="1036.494,-123.5 1036.494,-164.5 1137.494,-164.5 1137.494,-123.5 1036.494,-123.5"/>
<text text-anchor="start" x="1044.494" y="-152.5" font-family="Arial" font-size="10.00" fill="#000000">mir_toolkit/events</text>
<text text-anchor="start" x="1044.494" y="-141.5" font-family="Arial" font-size="10.00" fill="#000000">/input_configuration</text>
<text text-anchor="middle" x="1086.994" y="-130.5" font-family="Arial" font-size="10.00" fill="#000000">_event.h</text>
</a>
</g>
</g>
<!-- Node3&#45;&gt;Node20 -->
<g id="edge34" class="edge">
<title>Node3&#45;&gt;Node20</title>
<path fill="none" stroke="#191970" d="M870.0593,-204.1459C909.7745,-194.4431 967.7951,-180.0883 1017.994,-165 1020.8609,-164.1383 1023.7939,-163.2234 1026.7574,-162.2764"/>
<polygon fill="#191970" stroke="#191970" points="1027.8623,-165.5975 1036.2829,-159.1676 1025.6905,-158.943 1027.8623,-165.5975"/>
</g>
<!-- Node21 -->
<g id="node22" class="node">
<title>Node21</title>
<g id="a_node22"><a xlink:href="surface__output__event_8h.html" target="_top" xlink:title="mir_toolkit/events\l/surface_output_event.h">
<polygon fill="#ffffff" stroke="#000000" points="257.994,-129 257.994,-159 379.994,-159 379.994,-129 257.994,-129"/>
<text text-anchor="start" x="265.994" y="-147" font-family="Arial" font-size="10.00" fill="#000000">mir_toolkit/events</text>
<text text-anchor="middle" x="318.994" y="-136" font-family="Arial" font-size="10.00" fill="#000000">/surface_output_event.h</text>
</a>
</g>
</g>
<!-- Node3&#45;&gt;Node21 -->
<g id="edge37" class="edge">
<title>Node3&#45;&gt;Node21</title>
<path fill="none" stroke="#191970" d="M775.9842,-213.6287C695.1605,-207.8544 525.5206,-192.9367 384.994,-165 379.9834,-164.0039 374.8182,-162.8444 369.6822,-161.5915"/>
<polygon fill="#191970" stroke="#191970" points="370.4449,-158.1739 359.8893,-159.0852 368.7093,-164.9554 370.4449,-158.1739"/>
</g>
<!-- Node22 -->
<g id="node23" class="node">
<title>Node22</title>
<g id="a_node23"><a xlink:href="window__output__event_8h.html" target="_top" xlink:title="mir_toolkit/events\l/window_output_event.h">
<polygon fill="#ffffff" stroke="#000000" points="1155.494,-129 1155.494,-159 1276.494,-159 1276.494,-129 1155.494,-129"/>
<text text-anchor="start" x="1163.494" y="-147" font-family="Arial" font-size="10.00" fill="#000000">mir_toolkit/events</text>
<text text-anchor="middle" x="1215.994" y="-136" font-family="Arial" font-size="10.00" fill="#000000">/window_output_event.h</text>
</a>
</g>
</g>
<!-- Node3&#45;&gt;Node22 -->
<g id="edge40" class="edge">
<title>Node3&#45;&gt;Node22</title>
<path fill="none" stroke="#191970" d="M870.1792,-210.1823C931.9868,-202.0751 1043.1654,-186.4538 1136.994,-165 1141.2844,-164.019 1145.6973,-162.9183 1150.1431,-161.7484"/>
<polygon fill="#191970" stroke="#191970" points="1151.1629,-165.0982 1159.8936,-159.0961 1149.3255,-158.3436 1151.1629,-165.0982"/>
</g>
<!-- Node23 -->
<g id="node24" class="node">
<title>Node23</title>
<g id="a_node24"><a xlink:href="input__device__state__event_8h.html" target="_top" xlink:title="mir_toolkit/events\l/input_device_state\l_event.h">
<polygon fill="#ffffff" stroke="#000000" points="1294.494,-123.5 1294.494,-164.5 1395.494,-164.5 1395.494,-123.5 1294.494,-123.5"/>
<text text-anchor="start" x="1302.494" y="-152.5" font-family="Arial" font-size="10.00" fill="#000000">mir_toolkit/events</text>
<text text-anchor="start" x="1302.494" y="-141.5" font-family="Arial" font-size="10.00" fill="#000000">/input_device_state</text>
<text text-anchor="middle" x="1344.994" y="-130.5" font-family="Arial" font-size="10.00" fill="#000000">_event.h</text>
</a>
</g>
</g>
<!-- Node3&#45;&gt;Node23 -->
<g id="edge42" class="edge">
<title>Node3&#45;&gt;Node23</title>
<path fill="none" stroke="#191970" d="M870.0223,-214.4949C953.0177,-210.3442 1130.021,-198.2321 1275.994,-165 1278.9129,-164.3355 1281.8869,-163.576 1284.8822,-162.7492"/>
<polygon fill="#191970" stroke="#191970" points="1285.8815,-166.1036 1294.4796,-159.913 1283.8976,-159.3906 1285.8815,-166.1036"/>
</g>
<!-- Node6&#45;&gt;Node7 -->
<g id="edge7" class="edge">
<title>Node6&#45;&gt;Node7</title>
<path fill="none" stroke="#191970" d="M99.8957,-134.472C111.261,-130.63 124.6899,-126.3288 136.994,-123 196.7132,-106.8435 265.8812,-92.4495 314.5766,-83.0148"/>
<polygon fill="#191970" stroke="#191970" points="315.4873,-86.4039 324.6462,-81.078 314.1651,-79.5299 315.4873,-86.4039"/>
</g>
<!-- Node8&#45;&gt;Node1 -->
<g id="edge14" class="edge">
<title>Node8&#45;&gt;Node1</title>
<path fill="none" stroke="#191970" d="M1422.1017,-128.9005C1416.0398,-126.8639 1409.8719,-124.8433 1403.994,-123 1343.1005,-103.9038 1237.5939,-106.2028 1276.994,-56 1295.248,-32.7412 1377.2469,-19.7222 1426.7241,-13.8559"/>
<polygon fill="#191970" stroke="#191970" points="1427.2149,-17.3227 1436.7537,-12.7116 1426.4213,-10.3678 1427.2149,-17.3227"/>
</g>
<!-- Node8&#45;&gt;Node3 -->
<g id="edge10" class="edge">
<title>Node8&#45;&gt;Node3</title>
<path fill="none" stroke="#191970" d="M1434.538,-159.0918C1427.5514,-161.3818 1420.1143,-163.4825 1412.994,-165 1312.8296,-186.3474 1008.2325,-206.1119 880.3509,-213.4678"/>
<polygon fill="#191970" stroke="#191970" points="880.1421,-209.9739 870.3577,-214.0379 880.5409,-216.9625 880.1421,-209.9739"/>
</g>
<!-- Node8&#45;&gt;Node5 -->
<g id="edge13" class="edge">
<title>Node8&#45;&gt;Node5</title>
<path fill="none" stroke="#191970" d="M1487.6606,-128.889C1526.2505,-103.1623 1604.29,-51.136 1643.0608,-25.2888"/>
<polygon fill="#191970" stroke="#191970" points="1645.2087,-28.0634 1651.5878,-19.6042 1641.3258,-22.239 1645.2087,-28.0634"/>
</g>
<!-- Node9 -->
<g id="node10" class="node">
<title>Node9</title>
<g id="a_node10"><a xlink:href="mir__input__device__types_8h.html" target="_top" xlink:title="mir_toolkit/mir_input\l_device_types.h">
<polygon fill="#ffffff" stroke="#000000" points="1613.994,-56.5 1613.994,-86.5 1717.994,-86.5 1717.994,-56.5 1613.994,-56.5"/>
<text text-anchor="start" x="1621.994" y="-74.5" font-family="Arial" font-size="10.00" fill="#000000">mir_toolkit/mir_input</text>
<text text-anchor="middle" x="1665.994" y="-63.5" font-family="Arial" font-size="10.00" fill="#000000">_device_types.h</text>
</a>
</g>
</g>
<!-- Node8&#45;&gt;Node9 -->
<g id="edge11" class="edge">
<title>Node8&#45;&gt;Node9</title>
<path fill="none" stroke="#191970" d="M1506.6413,-128.978C1538.0386,-117.6531 1581.2683,-102.0603 1614.7806,-89.9725"/>
<polygon fill="#191970" stroke="#191970" points="1616.1808,-93.1882 1624.4,-86.5028 1613.8057,-86.6035 1616.1808,-93.1882"/>
</g>
<!-- Node10 -->
<g id="node11" class="node">
<title>Node10</title>
<g id="a_node11"><a xlink:href="touch__event_8h.html" target="_top" xlink:title="mir_toolkit/events\l/input/touch_event.h">
<polygon fill="#ffffff" stroke="#000000" points="1286.494,-56.5 1286.494,-86.5 1391.494,-86.5 1391.494,-56.5 1286.494,-56.5"/>
<text text-anchor="start" x="1294.494" y="-74.5" font-family="Arial" font-size="10.00" fill="#000000">mir_toolkit/events</text>
<text text-anchor="middle" x="1338.994" y="-63.5" font-family="Arial" font-size="10.00" fill="#000000">/input/touch_event.h</text>
</a>
</g>
</g>
<!-- Node8&#45;&gt;Node10 -->
<g id="edge15" class="edge">
<title>Node8&#45;&gt;Node10</title>
<path fill="none" stroke="#191970" d="M1438.8867,-128.978C1420.0496,-118.1391 1394.4181,-103.3908 1373.8354,-91.5476"/>
<polygon fill="#191970" stroke="#191970" points="1375.481,-88.4565 1365.0679,-86.5028 1371.9899,-94.5238 1375.481,-88.4565"/>
</g>
<!-- Node11 -->
<g id="node12" class="node">
<title>Node11</title>
<g id="a_node12"><a xlink:href="keyboard__event_8h.html" target="_top" xlink:title="mir_toolkit/events\l/input/keyboard_event.h">
<polygon fill="#ffffff" stroke="#000000" points="799.494,-56.5 799.494,-86.5 920.494,-86.5 920.494,-56.5 799.494,-56.5"/>
<text text-anchor="start" x="807.494" y="-74.5" font-family="Arial" font-size="10.00" fill="#000000">mir_toolkit/events</text>
<text text-anchor="middle" x="859.994" y="-63.5" font-family="Arial" font-size="10.00" fill="#000000">/input/keyboard_event.h</text>
</a>
</g>
</g>
<!-- Node8&#45;&gt;Node11 -->
<g id="edge16" class="edge">
<title>Node8&#45;&gt;Node11</title>
<path fill="none" stroke="#191970" d="M1425.6777,-128.9437C1418.5445,-126.65 1411.1097,-124.5388 1403.994,-123 1236.8621,-86.8577 1035.3967,-76.0795 930.8008,-72.8655"/>
<polygon fill="#191970" stroke="#191970" points="930.7772,-69.3634 920.6789,-72.5689 930.5721,-76.3604 930.7772,-69.3634"/>
</g>
<!-- Node13 -->
<g id="node14" class="node">
<title>Node13</title>
<g id="a_node14"><a xlink:href="pointer__event_8h.html" target="_top" xlink:title="mir_toolkit/events\l/input/pointer_event.h">
<polygon fill="#ffffff" stroke="#000000" points="1409.994,-56.5 1409.994,-86.5 1519.994,-86.5 1519.994,-56.5 1409.994,-56.5"/>
<text text-anchor="start" x="1417.994" y="-74.5" font-family="Arial" font-size="10.00" fill="#000000">mir_toolkit/events</text>
<text text-anchor="middle" x="1464.994" y="-63.5" font-family="Arial" font-size="10.00" fill="#000000">/input/pointer_event.h</text>
</a>
</g>
</g>
<!-- Node8&#45;&gt;Node13 -->
<g id="edge18" class="edge">
<title>Node8&#45;&gt;Node13</title>
<path fill="none" stroke="#191970" d="M1464.994,-128.978C1464.994,-119.6459 1464.994,-107.4157 1464.994,-96.6368"/>
<polygon fill="#191970" stroke="#191970" points="1468.4941,-96.5028 1464.994,-86.5028 1461.4941,-96.5028 1468.4941,-96.5028"/>
</g>
<!-- Node9&#45;&gt;Node5 -->
<g id="edge12" class="edge">
<title>Node9&#45;&gt;Node5</title>
<path fill="none" stroke="#191970" d="M1665.994,-56.2977C1665.994,-48.3834 1665.994,-38.6043 1665.994,-30.0759"/>
<polygon fill="#191970" stroke="#191970" points="1669.4941,-29.8469 1665.994,-19.8469 1662.4941,-29.847 1669.4941,-29.8469"/>
</g>
<!-- Node12 -->
<g id="node13" class="node">
<title>Node12</title>
<polygon fill="#ffffff" stroke="#bfbfbf" points="490.994,-.5 490.994,-19.5 624.994,-19.5 624.994,-.5 490.994,-.5"/>
<text text-anchor="middle" x="557.994" y="-7.5" font-family="Arial" font-size="10.00" fill="#000000">xkbcommon/xkbcommon.h</text>
</g>
<!-- Node11&#45;&gt;Node12 -->
<g id="edge17" class="edge">
<title>Node11&#45;&gt;Node12</title>
<path fill="none" stroke="#191970" d="M799.2431,-59.1285C745.3586,-48.1554 667.2555,-32.2503 614.6464,-21.5368"/>
<polygon fill="#191970" stroke="#191970" points="615.3029,-18.0988 604.8056,-19.5328 613.906,-24.958 615.3029,-18.0988"/>
</g>
<!-- Node13&#45;&gt;Node1 -->
<g id="edge19" class="edge">
<title>Node13&#45;&gt;Node1</title>
<path fill="none" stroke="#191970" d="M1464.994,-56.2977C1464.994,-48.3834 1464.994,-38.6043 1464.994,-30.0759"/>
<polygon fill="#191970" stroke="#191970" points="1468.4941,-29.8469 1464.994,-19.8469 1461.4941,-29.847 1468.4941,-29.8469"/>
</g>
<!-- Node14&#45;&gt;Node3 -->
<g id="edge21" class="edge">
<title>Node14&#45;&gt;Node3</title>
<path fill="none" stroke="#191970" d="M642.0173,-158.6943C648.0841,-160.8753 654.1883,-163.0447 659.994,-165 695.4463,-176.9395 735.4592,-189.0028 767.0381,-198.4498"/>
<polygon fill="#191970" stroke="#191970" points="766.3946,-201.9104 776.9782,-201.4216 768.3998,-195.2038 766.3946,-201.9104"/>
</g>
<!-- Node15&#45;&gt;Node3 -->
<g id="edge23" class="edge">
<title>Node15&#45;&gt;Node3</title>
<path fill="none" stroke="#191970" d="M529.2206,-159.0603C535.5125,-161.2425 541.8881,-163.3162 547.994,-165 622.2337,-185.4729 709.6893,-199.9252 765.7901,-208.2073"/>
<polygon fill="#191970" stroke="#191970" points="765.4894,-211.7004 775.8902,-209.682 766.5008,-204.7738 765.4894,-211.7004"/>
</g>
<!-- Node15&#45;&gt;Node7 -->
<g id="edge24" class="edge">
<title>Node15&#45;&gt;Node7</title>
<path fill="none" stroke="#191970" d="M461.0307,-128.978C442.9996,-116.6453 417.5686,-99.2514 399.4139,-86.8344"/>
<polygon fill="#191970" stroke="#191970" points="401.3805,-83.9391 391.1505,-81.1825 397.4286,-89.7169 401.3805,-83.9391"/>
</g>
<!-- Node16&#45;&gt;Node3 -->
<g id="edge26" class="edge">
<title>Node16&#45;&gt;Node3</title>
<path fill="none" stroke="#191970" d="M736.5888,-159.0028C754.8509,-169.5941 777.9768,-183.9253 795.7804,-195.6302"/>
<polygon fill="#191970" stroke="#191970" points="794.2896,-198.8428 804.5515,-201.478 798.1727,-193.0185 794.2896,-198.8428"/>
</g>
<!-- Node17&#45;&gt;Node3 -->
<g id="edge28" class="edge">
<title>Node17&#45;&gt;Node3</title>
<path fill="none" stroke="#191970" d="M828.5844,-159.0028C829.7434,-168.3309 830.0336,-180.5601 829.455,-191.3409"/>
<polygon fill="#191970" stroke="#191970" points="825.953,-191.2157 828.5867,-201.478 832.9275,-191.8132 825.953,-191.2157"/>
</g>
<!-- Node18&#45;&gt;Node3 -->
<g id="edge30" class="edge">
<title>Node18&#45;&gt;Node3</title>
<path fill="none" stroke="#191970" d="M933.2689,-159.0028C914.7245,-169.9342 887.7334,-184.8495 865.0394,-196.7494"/>
<polygon fill="#191970" stroke="#191970" points="863.1977,-193.762 855.9372,-201.478 866.4248,-199.9738 863.1977,-193.762"/>
</g>
<!-- Node19&#45;&gt;Node3 -->
<g id="edge32" class="edge">
<title>Node19&#45;&gt;Node3</title>
<path fill="none" stroke="#191970" d="M237.551,-159.0153C244.3538,-161.3433 251.3124,-163.4769 257.994,-165 354.0633,-186.8996 642.0861,-205.5864 765.7219,-213.0406"/>
<polygon fill="#191970" stroke="#191970" points="765.5597,-216.537 775.7514,-213.6424 765.979,-209.5496 765.5597,-216.537"/>
</g>
<!-- Node19&#45;&gt;Node12 -->
<g id="edge33" class="edge">
<title>Node19&#45;&gt;Node12</title>
<path fill="none" stroke="#191970" d="M207.185,-128.8153C226.8815,-108.7413 264.5577,-73.8361 303.994,-56 334.8407,-42.0488 417.7511,-28.5424 480.5255,-19.8153"/>
<polygon fill="#191970" stroke="#191970" points="481.379,-23.231 490.8098,-18.4029 480.4266,-16.2961 481.379,-23.231"/>
</g>
<!-- Node20&#45;&gt;Node3 -->
<g id="edge35" class="edge">
<title>Node20&#45;&gt;Node3</title>
<path fill="none" stroke="#191970" d="M1037.5858,-164.5182C1037.0532,-164.6805 1036.5225,-164.8412 1035.994,-165 983.9056,-180.6562 923.3956,-195.5227 880.1119,-205.2215"/>
<polygon fill="#191970" stroke="#191970" points="879.3281,-201.8102 870.3228,-207.3919 880.8434,-208.6443 879.3281,-201.8102"/>
</g>
<!-- Node20&#45;&gt;Node7 -->
<g id="edge36" class="edge">
<title>Node20&#45;&gt;Node7</title>
<path fill="none" stroke="#191970" d="M1036.1855,-125.2163C1033.0976,-124.3872 1030.0176,-123.6377 1026.994,-123 918.8937,-100.1998 597.7613,-82.2287 451.2988,-74.9776"/>
<polygon fill="#191970" stroke="#191970" points="451.2206,-71.4696 441.0607,-74.4741 450.8767,-78.4612 451.2206,-71.4696"/>
</g>
<!-- Node21&#45;&gt;Node3 -->
<g id="edge38" class="edge">
<title>Node21&#45;&gt;Node3</title>
<path fill="none" stroke="#191970" d="M377.6336,-159.0852C386.1327,-161.2908 394.7715,-163.3654 402.994,-165 531.5831,-190.5636 684.5494,-205.226 765.8084,-211.9569"/>
<polygon fill="#191970" stroke="#191970" points="765.5815,-215.4499 775.8337,-212.7772 766.1525,-208.4732 765.5815,-215.4499"/>
</g>
<!-- Node21&#45;&gt;Node7 -->
<g id="edge39" class="edge">
<title>Node21&#45;&gt;Node7</title>
<path fill="none" stroke="#191970" d="M331.0117,-128.978C340.1965,-117.4969 352.8905,-101.6294 362.6145,-89.4744"/>
<polygon fill="#191970" stroke="#191970" points="365.5635,-91.3908 369.0775,-81.3957 360.0975,-87.0179 365.5635,-91.3908"/>
</g>
<!-- Node22&#45;&gt;Node3 -->
<g id="edge41" class="edge">
<title>Node22&#45;&gt;Node3</title>
<path fill="none" stroke="#191970" d="M1177.6619,-159.0961C1170.203,-161.2481 1162.4152,-163.3032 1154.994,-165 1060.0188,-186.7159 947.267,-202.456 880.5169,-210.4761"/>
<polygon fill="#191970" stroke="#191970" points="879.7277,-207.045 870.2087,-211.6968 880.5509,-213.9965 879.7277,-207.045"/>
</g>
<!-- Node23&#45;&gt;Node3 -->
<g id="edge43" class="edge">
<title>Node23&#45;&gt;Node3</title>
<path fill="none" stroke="#191970" d="M1295.9385,-164.5454C1295.288,-164.7014 1294.6397,-164.853 1293.994,-165 1147.525,-198.345 969.8143,-210.4262 880.2611,-214.537"/>
<polygon fill="#191970" stroke="#191970" points="879.8815,-211.0502 870.0458,-214.9886 880.1907,-218.0434 879.8815,-211.0502"/>
</g>
</g>
</svg>
