<?xml version="1.0" encoding="UTF-8" standalone="no"?>
<!DOCTYPE svg PUBLIC "-//W3C//DTD SVG 1.1//EN"
 "http://www.w3.org/Graphics/SVG/1.1/DTD/svg11.dtd">
<!-- Generated by graphviz version 2.38.0 (20140413.2041)
 -->
<!-- Title: include/client/mir_toolkit/mir_window.h Pages: 1 -->
<svg width="1887pt" height="441pt"
 viewBox="0.00 0.00 1886.60 441.00" xmlns="http://www.w3.org/2000/svg" xmlns:xlink="http://www.w3.org/1999/xlink">
<g id="graph0" class="graph" transform="scale(1 1) rotate(0) translate(4 437)">
<title>include/client/mir_toolkit/mir_window.h</title>
<polygon fill="white" stroke="none" points="-4,4 -4,-437 1882.6,-437 1882.6,4 -4,4"/>
<!-- Node0 -->
<g id="node1" class="node"><title>Node0</title>
<polygon fill="#bfbfbf" stroke="black" points="1637.5,-402.5 1637.5,-432.5 1746.5,-432.5 1746.5,-402.5 1637.5,-402.5"/>
<text text-anchor="start" x="1645.5" y="-420.5" font-family="Arial" font-size="10.00">include/client/mir</text>
<text text-anchor="middle" x="1692" y="-409.5" font-family="Arial" font-size="10.00">_toolkit/mir_window.h</text>
</g>
<!-- Node1 -->
<g id="node2" class="node"><title>Node1</title>
<g id="a_node2"><a xlink:href="mir__native__buffer_8h.html" target="_top" xlink:title="mir_toolkit/mir_native\l_buffer.h">
<polygon fill="white" stroke="black" points="0,-335.5 0,-365.5 110,-365.5 110,-335.5 0,-335.5"/>
<text text-anchor="start" x="8" y="-353.5" font-family="Arial" font-size="10.00">mir_toolkit/mir_native</text>
<text text-anchor="middle" x="55" y="-342.5" font-family="Arial" font-size="10.00">_buffer.h</text>
</a>
</g>
</g>
<!-- Node0&#45;&gt;Node1 -->
<g id="edge1" class="edge"><title>Node0&#45;&gt;Node1</title>
<path fill="none" stroke="midnightblue" d="M1637.21,-416.022C1395.87,-413.717 426.19,-402.335 124,-366 122.735,-365.848 121.459,-365.684 120.175,-365.51"/>
<polygon fill="midnightblue" stroke="midnightblue" points="120.634,-362.04 110.22,-363.992 119.578,-368.96 120.634,-362.04"/>
</g>
<!-- Node2 -->
<g id="node3" class="node"><title>Node2</title>
<g id="a_node3"><a xlink:href="client__types_8h.html" target="_top" xlink:title="mir_toolkit/client\l_types.h">
<polygon fill="white" stroke="black" points="1629,-268.5 1629,-298.5 1717,-298.5 1717,-268.5 1629,-268.5"/>
<text text-anchor="start" x="1637" y="-286.5" font-family="Arial" font-size="10.00">mir_toolkit/client</text>
<text text-anchor="middle" x="1673" y="-275.5" font-family="Arial" font-size="10.00">_types.h</text>
</a>
</g>
</g>
<!-- Node0&#45;&gt;Node2 -->
<g id="edge2" class="edge"><title>Node0&#45;&gt;Node2</title>
<path fill="none" stroke="midnightblue" d="M1689.97,-402.374C1686.74,-379.945 1680.4,-335.924 1676.45,-308.486"/>
<polygon fill="midnightblue" stroke="midnightblue" points="1679.91,-307.924 1675.02,-298.525 1672.98,-308.921 1679.91,-307.924"/>
</g>
<!-- Node6 -->
<g id="node7" class="node"><title>Node6</title>
<g id="a_node7"><a xlink:href="common_8h.html" target="_top" xlink:title="mir_toolkit/common.h">
<polygon fill="white" stroke="black" points="1701,-134.5 1701,-153.5 1811,-153.5 1811,-134.5 1701,-134.5"/>
<text text-anchor="middle" x="1756" y="-141.5" font-family="Arial" font-size="10.00">mir_toolkit/common.h</text>
</a>
</g>
</g>
<!-- Node0&#45;&gt;Node6 -->
<g id="edge47" class="edge"><title>Node0&#45;&gt;Node6</title>
<path fill="none" stroke="midnightblue" d="M1696.61,-402.14C1703.57,-380.108 1716.92,-336.569 1726,-299 1737.69,-250.615 1747.98,-192.835 1752.91,-163.729"/>
<polygon fill="midnightblue" stroke="midnightblue" points="1756.38,-164.183 1754.58,-153.742 1749.48,-163.027 1756.38,-164.183"/>
</g>
<!-- Node7 -->
<g id="node8" class="node"><title>Node7</title>
<g id="a_node8"><a xlink:href="deprecations_8h.html" target="_top" xlink:title="mir_toolkit/deprecations.h">
<polygon fill="white" stroke="black" points="1529,-62 1529,-81 1657,-81 1657,-62 1529,-62"/>
<text text-anchor="middle" x="1593" y="-69" font-family="Arial" font-size="10.00">mir_toolkit/deprecations.h</text>
</a>
</g>
</g>
<!-- Node0&#45;&gt;Node7 -->
<g id="edge52" class="edge"><title>Node0&#45;&gt;Node7</title>
<path fill="none" stroke="midnightblue" d="M1746.79,-413.602C1783.24,-408.745 1829.49,-396.463 1858,-366 1883.41,-338.843 1877,-321.694 1877,-284.5 1877,-284.5 1877,-284.5 1877,-215.5 1877,-171.7 1876.25,-151.515 1843,-123 1817,-100.699 1731.11,-86.908 1667.22,-79.4866"/>
<polygon fill="midnightblue" stroke="midnightblue" points="1667.49,-75.9957 1657.16,-78.3499 1666.71,-82.9514 1667.49,-75.9957"/>
</g>
<!-- Node10 -->
<g id="node11" class="node"><title>Node10</title>
<polygon fill="white" stroke="#bfbfbf" points="974,-0.5 974,-19.5 1030,-19.5 1030,-0.5 974,-0.5"/>
<text text-anchor="middle" x="1002" y="-7.5" font-family="Arial" font-size="10.00">stdbool.h</text>
</g>
<!-- Node0&#45;&gt;Node10 -->
<g id="edge53" class="edge"><title>Node0&#45;&gt;Node10</title>
<path fill="none" stroke="midnightblue" d="M1637.15,-414.775C1361.21,-405.743 138,-361.371 138,-284.5 138,-284.5 138,-284.5 138,-215.5 138,-173.531 125.309,-150.516 157,-123 205.923,-80.5227 678.517,-110.229 739,-87 759.67,-79.0614 757.919,-65.3295 778,-56 839.073,-27.6253 917.659,-17.0943 963.669,-13.2193"/>
<polygon fill="midnightblue" stroke="midnightblue" points="964.106,-16.6959 973.804,-12.4296 963.562,-9.71705 964.106,-16.6959"/>
</g>
<!-- Node25 -->
<g id="node26" class="node"><title>Node25</title>
<g id="a_node26"><a xlink:href="mir__cursor__configuration_8h.html" target="_top" xlink:title="mir_toolkit/mir_cursor\l_configuration.h">
<polygon fill="white" stroke="black" points="1739,-335.5 1739,-365.5 1849,-365.5 1849,-335.5 1739,-335.5"/>
<text text-anchor="start" x="1747" y="-353.5" font-family="Arial" font-size="10.00">mir_toolkit/mir_cursor</text>
<text text-anchor="middle" x="1794" y="-342.5" font-family="Arial" font-size="10.00">_configuration.h</text>
</a>
</g>
</g>
<!-- Node0&#45;&gt;Node25 -->
<g id="edge48" class="edge"><title>Node0&#45;&gt;Node25</title>
<path fill="none" stroke="midnightblue" d="M1714.13,-402.396C1728.57,-393.197 1747.6,-381.066 1763.47,-370.955"/>
<polygon fill="midnightblue" stroke="midnightblue" points="1765.36,-373.902 1771.91,-365.577 1761.6,-367.999 1765.36,-373.902"/>
</g>
<!-- Node3 -->
<g id="node4" class="node"><title>Node3</title>
<g id="a_node4"><a xlink:href="toolkit_2events_2event_8h.html" target="_top" xlink:title="mir_toolkit/events\l/event.h">
<polygon fill="white" stroke="black" points="955,-201.5 955,-231.5 1049,-231.5 1049,-201.5 955,-201.5"/>
<text text-anchor="start" x="963" y="-219.5" font-family="Arial" font-size="10.00">mir_toolkit/events</text>
<text text-anchor="middle" x="1002" y="-208.5" font-family="Arial" font-size="10.00">/event.h</text>
</a>
</g>
</g>
<!-- Node2&#45;&gt;Node3 -->
<g id="edge3" class="edge"><title>Node2&#45;&gt;Node3</title>
<path fill="none" stroke="midnightblue" d="M1628.97,-278.235C1511.59,-266.864 1191.15,-235.823 1059.57,-223.077"/>
<polygon fill="midnightblue" stroke="midnightblue" points="1059.59,-219.563 1049.3,-222.082 1058.92,-226.53 1059.59,-219.563"/>
</g>
<!-- Node4 -->
<g id="node5" class="node"><title>Node4</title>
<polygon fill="white" stroke="#bfbfbf" points="1593,-134.5 1593,-153.5 1645,-153.5 1645,-134.5 1593,-134.5"/>
<text text-anchor="middle" x="1619" y="-141.5" font-family="Arial" font-size="10.00">stddef.h</text>
</g>
<!-- Node2&#45;&gt;Node4 -->
<g id="edge46" class="edge"><title>Node2&#45;&gt;Node4</title>
<path fill="none" stroke="midnightblue" d="M1667.42,-268.303C1657.58,-243.225 1637.11,-191.12 1626.21,-163.352"/>
<polygon fill="midnightblue" stroke="midnightblue" points="1629.33,-161.729 1622.42,-153.701 1622.81,-164.288 1629.33,-161.729"/>
</g>
<!-- Node2&#45;&gt;Node6 -->
<g id="edge44" class="edge"><title>Node2&#45;&gt;Node6</title>
<path fill="none" stroke="midnightblue" d="M1681.57,-268.303C1696.84,-243.003 1728.72,-190.195 1745.36,-162.62"/>
<polygon fill="midnightblue" stroke="midnightblue" points="1748.58,-164.071 1750.75,-153.701 1742.58,-160.453 1748.58,-164.071"/>
</g>
<!-- Node2&#45;&gt;Node7 -->
<g id="edge45" class="edge"><title>Node2&#45;&gt;Node7</title>
<path fill="none" stroke="midnightblue" d="M1674.67,-268.232C1677.4,-238.994 1680.15,-170.995 1654,-123 1645.72,-107.796 1630.82,-95.3298 1617.82,-86.587"/>
<polygon fill="midnightblue" stroke="midnightblue" points="1619.55,-83.5393 1609.23,-81.1412 1615.8,-89.4515 1619.55,-83.5393"/>
</g>
<!-- Node3&#45;&gt;Node4 -->
<g id="edge4" class="edge"><title>Node3&#45;&gt;Node4</title>
<path fill="none" stroke="midnightblue" d="M1049.4,-214.008C1169.73,-209.803 1484.53,-196.08 1584,-165 1588.84,-163.488 1593.74,-161.23 1598.28,-158.77"/>
<polygon fill="midnightblue" stroke="midnightblue" points="1600.16,-161.727 1606.97,-153.61 1596.58,-155.709 1600.16,-161.727"/>
</g>
<!-- Node5 -->
<g id="node6" class="node"><title>Node5</title>
<polygon fill="white" stroke="#bfbfbf" points="814.5,-0.5 814.5,-19.5 863.5,-19.5 863.5,-0.5 814.5,-0.5"/>
<text text-anchor="middle" x="839" y="-7.5" font-family="Arial" font-size="10.00">stdint.h</text>
</g>
<!-- Node3&#45;&gt;Node5 -->
<g id="edge5" class="edge"><title>Node3&#45;&gt;Node5</title>
<path fill="none" stroke="midnightblue" d="M983.861,-201.304C971.663,-191.503 955.424,-177.951 942,-165 923.884,-147.522 926.368,-134.549 904,-123 843.554,-91.7907 645.186,-137.853 600,-87 541.461,-21.1195 724.906,-11.9064 804.272,-10.9361"/>
<polygon fill="midnightblue" stroke="midnightblue" points="804.331,-14.4358 814.301,-10.8508 804.271,-7.43603 804.331,-14.4358"/>
</g>
<!-- Node3&#45;&gt;Node6 -->
<g id="edge6" class="edge"><title>Node3&#45;&gt;Node6</title>
<path fill="none" stroke="midnightblue" d="M1049.25,-213.726C1156.94,-209.272 1428.73,-195.703 1654,-165 1671.62,-162.598 1690.79,-159.082 1707.7,-155.665"/>
<polygon fill="midnightblue" stroke="midnightblue" points="1708.82,-159.008 1717.91,-153.561 1707.41,-152.152 1708.82,-159.008"/>
</g>
<!-- Node3&#45;&gt;Node7 -->
<g id="edge8" class="edge"><title>Node3&#45;&gt;Node7</title>
<path fill="none" stroke="midnightblue" d="M1020.14,-201.304C1032.34,-191.503 1048.58,-177.951 1062,-165 1080.12,-147.522 1077.54,-134.372 1100,-123 1171.42,-86.8387 1399.48,-76.5654 1518.74,-73.6511"/>
<polygon fill="midnightblue" stroke="midnightblue" points="1518.96,-77.1468 1528.88,-73.4146 1518.8,-70.1487 1518.96,-77.1468"/>
</g>
<!-- Node8 -->
<g id="node9" class="node"><title>Node8</title>
<g id="a_node9"><a xlink:href="input__event_8h.html" target="_top" xlink:title="mir_toolkit/events\l/input/input_event.h">
<polygon fill="white" stroke="black" points="951,-129 951,-159 1053,-159 1053,-129 951,-129"/>
<text text-anchor="start" x="959" y="-147" font-family="Arial" font-size="10.00">mir_toolkit/events</text>
<text text-anchor="middle" x="1002" y="-136" font-family="Arial" font-size="10.00">/input/input_event.h</text>
</a>
</g>
</g>
<!-- Node3&#45;&gt;Node8 -->
<g id="edge9" class="edge"><title>Node3&#45;&gt;Node8</title>
<path fill="none" stroke="midnightblue" d="M996.451,-201.233C995.249,-192.06 994.949,-179.905 995.551,-169.244"/>
<polygon fill="midnightblue" stroke="midnightblue" points="999.041,-169.52 996.454,-159.246 992.069,-168.89 999.041,-169.52"/>
</g>
<!-- Node15 -->
<g id="node16" class="node"><title>Node15</title>
<g id="a_node16"><a xlink:href="resize__event_8h.html" target="_top" xlink:title="mir_toolkit/events\l/resize_event.h">
<polygon fill="white" stroke="black" points="801,-129 801,-159 895,-159 895,-129 801,-129"/>
<text text-anchor="start" x="809" y="-147" font-family="Arial" font-size="10.00">mir_toolkit/events</text>
<text text-anchor="middle" x="848" y="-136" font-family="Arial" font-size="10.00">/resize_event.h</text>
</a>
</g>
</g>
<!-- Node3&#45;&gt;Node15 -->
<g id="edge20" class="edge"><title>Node3&#45;&gt;Node15</title>
<path fill="none" stroke="midnightblue" d="M965.68,-201.403C940.415,-190.5 907.076,-175.312 882.272,-163.443"/>
<polygon fill="midnightblue" stroke="midnightblue" points="883.745,-160.268 873.218,-159.073 880.702,-166.572 883.745,-160.268"/>
</g>
<!-- Node16 -->
<g id="node17" class="node"><title>Node16</title>
<g id="a_node17"><a xlink:href="surface__event_8h.html" target="_top" xlink:title="mir_toolkit/events\l/surface_event.h">
<polygon fill="white" stroke="black" points="1221,-129 1221,-159 1315,-159 1315,-129 1221,-129"/>
<text text-anchor="start" x="1229" y="-147" font-family="Arial" font-size="10.00">mir_toolkit/events</text>
<text text-anchor="middle" x="1268" y="-136" font-family="Arial" font-size="10.00">/surface_event.h</text>
</a>
</g>
</g>
<!-- Node3&#45;&gt;Node16 -->
<g id="edge22" class="edge"><title>Node3&#45;&gt;Node16</title>
<path fill="none" stroke="midnightblue" d="M1049.03,-204.102C1090.02,-194.759 1150.71,-180.576 1203,-165 1205.92,-164.129 1208.92,-163.193 1211.94,-162.218"/>
<polygon fill="midnightblue" stroke="midnightblue" points="1213.26,-165.47 1221.65,-159.005 1211.06,-158.824 1213.26,-165.47"/>
</g>
<!-- Node17 -->
<g id="node18" class="node"><title>Node17</title>
<g id="a_node18"><a xlink:href="window__event_8h.html" target="_top" xlink:title="mir_toolkit/events\l/window_event.h">
<polygon fill="white" stroke="black" points="1109,-129 1109,-159 1203,-159 1203,-129 1109,-129"/>
<text text-anchor="start" x="1117" y="-147" font-family="Arial" font-size="10.00">mir_toolkit/events</text>
<text text-anchor="middle" x="1156" y="-136" font-family="Arial" font-size="10.00">/window_event.h</text>
</a>
</g>
</g>
<!-- Node3&#45;&gt;Node17 -->
<g id="edge25" class="edge"><title>Node3&#45;&gt;Node17</title>
<path fill="none" stroke="midnightblue" d="M1027.27,-201.403C1049.83,-190.404 1083.23,-175.044 1110.41,-163.13"/>
<polygon fill="midnightblue" stroke="midnightblue" points="1111.96,-166.272 1119.74,-159.073 1109.17,-159.853 1111.96,-166.272"/>
</g>
<!-- Node18 -->
<g id="node19" class="node"><title>Node18</title>
<g id="a_node19"><a xlink:href="orientation__event_8h.html" target="_top" xlink:title="mir_toolkit/events\l/orientation_event.h">
<polygon fill="white" stroke="black" points="166,-129 166,-159 268,-159 268,-129 166,-129"/>
<text text-anchor="start" x="174" y="-147" font-family="Arial" font-size="10.00">mir_toolkit/events</text>
<text text-anchor="middle" x="217" y="-136" font-family="Arial" font-size="10.00">/orientation_event.h</text>
</a>
</g>
</g>
<!-- Node3&#45;&gt;Node18 -->
<g id="edge27" class="edge"><title>Node3&#45;&gt;Node18</title>
<path fill="none" stroke="midnightblue" d="M954.701,-216.256C837.046,-217.437 522.958,-215.528 268,-165 263.82,-164.172 259.528,-163.135 255.285,-161.971"/>
<polygon fill="midnightblue" stroke="midnightblue" points="256.136,-158.573 245.553,-159.067 254.134,-165.28 256.136,-158.573"/>
</g>
<!-- Node19 -->
<g id="node20" class="node"><title>Node19</title>
<g id="a_node20"><a xlink:href="prompt__session__event_8h.html" target="_top" xlink:title="mir_toolkit/events\l/prompt_session_event.h">
<polygon fill="white" stroke="black" points="286,-129 286,-159 412,-159 412,-129 286,-129"/>
<text text-anchor="start" x="294" y="-147" font-family="Arial" font-size="10.00">mir_toolkit/events</text>
<text text-anchor="middle" x="349" y="-136" font-family="Arial" font-size="10.00">/prompt_session_event.h</text>
</a>
</g>
</g>
<!-- Node3&#45;&gt;Node19 -->
<g id="edge29" class="edge"><title>Node3&#45;&gt;Node19</title>
<path fill="none" stroke="midnightblue" d="M954.655,-214.478C853.794,-211.581 611.268,-201.019 412,-165 406.654,-164.034 401.131,-162.848 395.67,-161.542"/>
<polygon fill="midnightblue" stroke="midnightblue" points="396.515,-158.145 385.961,-159.079 394.794,-164.93 396.515,-158.145"/>
</g>
<!-- Node20 -->
<g id="node21" class="node"><title>Node20</title>
<g id="a_node21"><a xlink:href="keymap__event_8h.html" target="_top" xlink:title="mir_toolkit/events\l/keymap_event.h">
<polygon fill="white" stroke="black" points="430,-129 430,-159 524,-159 524,-129 430,-129"/>
<text text-anchor="start" x="438" y="-147" font-family="Arial" font-size="10.00">mir_toolkit/events</text>
<text text-anchor="middle" x="477" y="-136" font-family="Arial" font-size="10.00">/keymap_event.h</text>
</a>
</g>
</g>
<!-- Node3&#45;&gt;Node20 -->
<g id="edge31" class="edge"><title>Node3&#45;&gt;Node20</title>
<path fill="none" stroke="midnightblue" d="M954.965,-214.29C868.35,-211.181 678.865,-200.468 524,-165 520.524,-164.204 516.965,-163.258 513.433,-162.218"/>
<polygon fill="midnightblue" stroke="midnightblue" points="514.228,-158.798 503.637,-159.082 512.094,-165.464 514.228,-158.798"/>
</g>
<!-- Node21 -->
<g id="node22" class="node"><title>Node21</title>
<g id="a_node22"><a xlink:href="input__configuration__event_8h.html" target="_top" xlink:title="mir_toolkit/events\l/input_configuration\l_event.h">
<polygon fill="white" stroke="black" points="1333.5,-123.5 1333.5,-164.5 1434.5,-164.5 1434.5,-123.5 1333.5,-123.5"/>
<text text-anchor="start" x="1341.5" y="-152.5" font-family="Arial" font-size="10.00">mir_toolkit/events</text>
<text text-anchor="start" x="1341.5" y="-141.5" font-family="Arial" font-size="10.00">/input_configuration</text>
<text text-anchor="middle" x="1384" y="-130.5" font-family="Arial" font-size="10.00">_event.h</text>
</a>
</g>
</g>
<!-- Node3&#45;&gt;Node21 -->
<g id="edge34" class="edge"><title>Node3&#45;&gt;Node21</title>
<path fill="none" stroke="midnightblue" d="M1049.14,-209.866C1110.86,-202.461 1221.81,-187.674 1315,-165 1317.8,-164.319 1320.66,-163.567 1323.54,-162.766"/>
<polygon fill="midnightblue" stroke="midnightblue" points="1324.78,-166.051 1333.39,-159.886 1322.81,-159.333 1324.78,-166.051"/>
</g>
<!-- Node22 -->
<g id="node23" class="node"><title>Node22</title>
<g id="a_node23"><a xlink:href="surface__output__event_8h.html" target="_top" xlink:title="mir_toolkit/events\l/surface_output_event.h">
<polygon fill="white" stroke="black" points="1453,-129 1453,-159 1575,-159 1575,-129 1453,-129"/>
<text text-anchor="start" x="1461" y="-147" font-family="Arial" font-size="10.00">mir_toolkit/events</text>
<text text-anchor="middle" x="1514" y="-136" font-family="Arial" font-size="10.00">/surface_output_event.h</text>
</a>
</g>
</g>
<!-- Node3&#45;&gt;Node22 -->
<g id="edge37" class="edge"><title>Node3&#45;&gt;Node22</title>
<path fill="none" stroke="midnightblue" d="M1049.01,-212.213C1128.83,-206.411 1295.25,-192.303 1434,-165 1439.05,-164.006 1444.27,-162.83 1449.51,-161.555"/>
<polygon fill="midnightblue" stroke="midnightblue" points="1450.75,-164.852 1459.58,-159.001 1449.03,-158.067 1450.75,-164.852"/>
</g>
<!-- Node23 -->
<g id="node24" class="node"><title>Node23</title>
<g id="a_node24"><a xlink:href="window__output__event_8h.html" target="_top" xlink:title="mir_toolkit/events\l/window_output_event.h">
<polygon fill="white" stroke="black" points="542.5,-129 542.5,-159 663.5,-159 663.5,-129 542.5,-129"/>
<text text-anchor="start" x="550.5" y="-147" font-family="Arial" font-size="10.00">mir_toolkit/events</text>
<text text-anchor="middle" x="603" y="-136" font-family="Arial" font-size="10.00">/window_output_event.h</text>
</a>
</g>
</g>
<!-- Node3&#45;&gt;Node23 -->
<g id="edge40" class="edge"><title>Node3&#45;&gt;Node23</title>
<path fill="none" stroke="midnightblue" d="M954.731,-210.913C888.668,-203.566 765.728,-187.647 663,-165 658.564,-164.022 653.993,-162.917 649.442,-161.742"/>
<polygon fill="midnightblue" stroke="midnightblue" points="650.137,-158.305 639.571,-159.078 648.313,-165.063 650.137,-158.305"/>
</g>
<!-- Node24 -->
<g id="node25" class="node"><title>Node24</title>
<g id="a_node25"><a xlink:href="input__device__state__event_8h.html" target="_top" xlink:title="mir_toolkit/events\l/input_device_state\l_event.h">
<polygon fill="white" stroke="black" points="681.5,-123.5 681.5,-164.5 782.5,-164.5 782.5,-123.5 681.5,-123.5"/>
<text text-anchor="start" x="689.5" y="-152.5" font-family="Arial" font-size="10.00">mir_toolkit/events</text>
<text text-anchor="start" x="689.5" y="-141.5" font-family="Arial" font-size="10.00">/input_device_state</text>
<text text-anchor="middle" x="732" y="-130.5" font-family="Arial" font-size="10.00">_event.h</text>
</a>
</g>
</g>
<!-- Node3&#45;&gt;Node24 -->
<g id="edge42" class="edge"><title>Node3&#45;&gt;Node24</title>
<path fill="none" stroke="midnightblue" d="M954.754,-206.838C912.43,-198.013 848.829,-183.429 791.324,-167.347"/>
<polygon fill="midnightblue" stroke="midnightblue" points="791.985,-163.897 781.41,-164.542 790.079,-170.632 791.985,-163.897"/>
</g>
<!-- Node6&#45;&gt;Node7 -->
<g id="edge7" class="edge"><title>Node6&#45;&gt;Node7</title>
<path fill="none" stroke="midnightblue" d="M1736.34,-134.496C1707.95,-122.216 1655.26,-99.4302 1622.28,-85.1662"/>
<polygon fill="midnightblue" stroke="midnightblue" points="1623.3,-81.7915 1612.73,-81.0341 1620.52,-88.2163 1623.3,-81.7915"/>
</g>
<!-- Node8&#45;&gt;Node3 -->
<g id="edge10" class="edge"><title>Node8&#45;&gt;Node3</title>
<path fill="none" stroke="midnightblue" d="M1007.55,-159.246C1008.75,-168.414 1009.05,-180.568 1008.45,-191.232"/>
<polygon fill="midnightblue" stroke="midnightblue" points="1004.96,-190.959 1007.55,-201.233 1011.93,-191.588 1004.96,-190.959"/>
</g>
<!-- Node8&#45;&gt;Node5 -->
<g id="edge13" class="edge"><title>Node8&#45;&gt;Node5</title>
<path fill="none" stroke="midnightblue" d="M986.043,-128.779C966.212,-111.249 931.174,-80.7431 900,-56 886.857,-45.5686 871.675,-34.3656 859.745,-25.7471"/>
<polygon fill="midnightblue" stroke="midnightblue" points="861.508,-22.7042 851.343,-19.7158 857.425,-28.3907 861.508,-22.7042"/>
</g>
<!-- Node9 -->
<g id="node10" class="node"><title>Node9</title>
<g id="a_node10"><a xlink:href="mir__input__device__types_8h.html" target="_top" xlink:title="mir_toolkit/mir_input\l_device_types.h">
<polygon fill="white" stroke="black" points="787,-56.5 787,-86.5 891,-86.5 891,-56.5 787,-56.5"/>
<text text-anchor="start" x="795" y="-74.5" font-family="Arial" font-size="10.00">mir_toolkit/mir_input</text>
<text text-anchor="middle" x="839" y="-63.5" font-family="Arial" font-size="10.00">_device_types.h</text>
</a>
</g>
</g>
<!-- Node8&#45;&gt;Node9 -->
<g id="edge11" class="edge"><title>Node8&#45;&gt;Node9</title>
<path fill="none" stroke="midnightblue" d="M969.406,-128.903C943.976,-117.904 908.464,-102.544 880.918,-90.6304"/>
<polygon fill="midnightblue" stroke="midnightblue" points="882.105,-87.3303 871.537,-86.5729 879.326,-93.7551 882.105,-87.3303"/>
</g>
<!-- Node8&#45;&gt;Node10 -->
<g id="edge14" class="edge"><title>Node8&#45;&gt;Node10</title>
<path fill="none" stroke="midnightblue" d="M1047.44,-128.946C1054,-126.938 1060.67,-124.908 1067,-123 1126.23,-105.15 1227.28,-104.591 1189,-56 1170.82,-32.9209 1089.26,-20.3071 1040.06,-14.6766"/>
<polygon fill="midnightblue" stroke="midnightblue" points="1040.41,-11.1939 1030.08,-13.5798 1039.64,-18.1519 1040.41,-11.1939"/>
</g>
<!-- Node11 -->
<g id="node12" class="node"><title>Node11</title>
<g id="a_node12"><a xlink:href="touch__event_8h.html" target="_top" xlink:title="mir_toolkit/events\l/input/touch_event.h">
<polygon fill="white" stroke="black" points="1075.5,-56.5 1075.5,-86.5 1180.5,-86.5 1180.5,-56.5 1075.5,-56.5"/>
<text text-anchor="start" x="1083.5" y="-74.5" font-family="Arial" font-size="10.00">mir_toolkit/events</text>
<text text-anchor="middle" x="1128" y="-63.5" font-family="Arial" font-size="10.00">/input/touch_event.h</text>
</a>
</g>
</g>
<!-- Node8&#45;&gt;Node11 -->
<g id="edge15" class="edge"><title>Node8&#45;&gt;Node11</title>
<path fill="none" stroke="midnightblue" d="M1027.2,-128.903C1046.34,-118.192 1072.87,-103.346 1093.91,-91.5738"/>
<polygon fill="midnightblue" stroke="midnightblue" points="1095.83,-94.5102 1102.85,-86.5729 1092.41,-88.4014 1095.83,-94.5102"/>
</g>
<!-- Node12 -->
<g id="node13" class="node"><title>Node12</title>
<g id="a_node13"><a xlink:href="keyboard__event_8h.html" target="_top" xlink:title="mir_toolkit/events\l/input/keyboard_event.h">
<polygon fill="white" stroke="black" points="609.5,-56.5 609.5,-86.5 730.5,-86.5 730.5,-56.5 609.5,-56.5"/>
<text text-anchor="start" x="617.5" y="-74.5" font-family="Arial" font-size="10.00">mir_toolkit/events</text>
<text text-anchor="middle" x="670" y="-63.5" font-family="Arial" font-size="10.00">/input/keyboard_event.h</text>
</a>
</g>
</g>
<!-- Node8&#45;&gt;Node12 -->
<g id="edge16" class="edge"><title>Node8&#45;&gt;Node12</title>
<path fill="none" stroke="midnightblue" d="M958.833,-128.982C951.582,-126.84 944.106,-124.759 937,-123 871.071,-106.676 794.851,-92.7409 740.766,-83.6704"/>
<polygon fill="midnightblue" stroke="midnightblue" points="741.033,-80.1667 730.594,-81.978 739.884,-87.0718 741.033,-80.1667"/>
</g>
<!-- Node14 -->
<g id="node15" class="node"><title>Node14</title>
<g id="a_node15"><a xlink:href="pointer__event_8h.html" target="_top" xlink:title="mir_toolkit/events\l/input/pointer_event.h">
<polygon fill="white" stroke="black" points="947,-56.5 947,-86.5 1057,-86.5 1057,-56.5 947,-56.5"/>
<text text-anchor="start" x="955" y="-74.5" font-family="Arial" font-size="10.00">mir_toolkit/events</text>
<text text-anchor="middle" x="1002" y="-63.5" font-family="Arial" font-size="10.00">/input/pointer_event.h</text>
</a>
</g>
</g>
<!-- Node8&#45;&gt;Node14 -->
<g id="edge18" class="edge"><title>Node8&#45;&gt;Node14</title>
<path fill="none" stroke="midnightblue" d="M1002,-128.733C1002,-119.655 1002,-107.658 1002,-97.0773"/>
<polygon fill="midnightblue" stroke="midnightblue" points="1005.5,-96.7455 1002,-86.7455 998.5,-96.7455 1005.5,-96.7455"/>
</g>
<!-- Node9&#45;&gt;Node5 -->
<g id="edge12" class="edge"><title>Node9&#45;&gt;Node5</title>
<path fill="none" stroke="midnightblue" d="M839,-56.3993C839,-48.4664 839,-38.458 839,-29.8583"/>
<polygon fill="midnightblue" stroke="midnightblue" points="842.5,-29.6577 839,-19.6578 835.5,-29.6578 842.5,-29.6577"/>
</g>
<!-- Node13 -->
<g id="node14" class="node"><title>Node13</title>
<polygon fill="white" stroke="#bfbfbf" points="523,-0.5 523,-19.5 657,-19.5 657,-0.5 523,-0.5"/>
<text text-anchor="middle" x="590" y="-7.5" font-family="Arial" font-size="10.00">xkbcommon/xkbcommon.h</text>
</g>
<!-- Node12&#45;&gt;Node13 -->
<g id="edge17" class="edge"><title>Node12&#45;&gt;Node13</title>
<path fill="none" stroke="midnightblue" d="M651.041,-56.3993C638.577,-47.1293 622.303,-35.0254 609.693,-25.6469"/>
<polygon fill="midnightblue" stroke="midnightblue" points="611.753,-22.8173 601.641,-19.6578 607.576,-28.4341 611.753,-22.8173"/>
</g>
<!-- Node14&#45;&gt;Node10 -->
<g id="edge19" class="edge"><title>Node14&#45;&gt;Node10</title>
<path fill="none" stroke="midnightblue" d="M1002,-56.3993C1002,-48.4664 1002,-38.458 1002,-29.8583"/>
<polygon fill="midnightblue" stroke="midnightblue" points="1005.5,-29.6577 1002,-19.6578 998.5,-29.6578 1005.5,-29.6577"/>
</g>
<!-- Node15&#45;&gt;Node3 -->
<g id="edge21" class="edge"><title>Node15&#45;&gt;Node3</title>
<path fill="none" stroke="midnightblue" d="M884.264,-159.073C909.516,-169.97 942.855,-185.156 967.673,-197.03"/>
<polygon fill="midnightblue" stroke="midnightblue" points="966.205,-200.208 976.732,-201.403 969.248,-193.904 966.205,-200.208"/>
</g>
<!-- Node16&#45;&gt;Node3 -->
<g id="edge23" class="edge"><title>Node16&#45;&gt;Node3</title>
<path fill="none" stroke="midnightblue" d="M1239.41,-159.005C1233.37,-161.126 1227.04,-163.202 1221,-165 1166.88,-181.123 1103.75,-195.754 1059.12,-205.068"/>
<polygon fill="midnightblue" stroke="midnightblue" points="1058.41,-201.641 1049.32,-207.088 1059.82,-208.497 1058.41,-201.641"/>
</g>
<!-- Node16&#45;&gt;Node7 -->
<g id="edge24" class="edge"><title>Node16&#45;&gt;Node7</title>
<path fill="none" stroke="midnightblue" d="M1304.79,-128.935C1311.14,-126.773 1317.72,-124.699 1324,-123 1390.6,-104.975 1468.2,-91.15 1522.89,-82.5601"/>
<polygon fill="midnightblue" stroke="midnightblue" points="1523.48,-86.0102 1532.82,-81.0173 1522.41,-79.093 1523.48,-86.0102"/>
</g>
<!-- Node17&#45;&gt;Node3 -->
<g id="edge26" class="edge"><title>Node17&#45;&gt;Node3</title>
<path fill="none" stroke="midnightblue" d="M1130.78,-159.073C1108.23,-170.066 1074.84,-185.424 1047.65,-197.343"/>
<polygon fill="midnightblue" stroke="midnightblue" points="1046.09,-194.203 1038.32,-201.403 1048.89,-200.622 1046.09,-194.203"/>
</g>
<!-- Node18&#45;&gt;Node3 -->
<g id="edge28" class="edge"><title>Node18&#45;&gt;Node3</title>
<path fill="none" stroke="midnightblue" d="M263.201,-159.067C270.784,-161.395 278.568,-163.527 286,-165 527.424,-212.846 821.867,-217.098 944.378,-216.411"/>
<polygon fill="midnightblue" stroke="midnightblue" points="944.672,-219.909 954.647,-216.339 944.623,-212.909 944.672,-219.909"/>
</g>
<!-- Node19&#45;&gt;Node3 -->
<g id="edge30" class="edge"><title>Node19&#45;&gt;Node3</title>
<path fill="none" stroke="midnightblue" d="M403.638,-159.079C412.438,-161.347 421.447,-163.454 430,-165 616.631,-198.734 841.208,-210.139 944.753,-213.83"/>
<polygon fill="midnightblue" stroke="midnightblue" points="944.872,-217.336 954.987,-214.184 945.114,-210.34 944.872,-217.336"/>
</g>
<!-- Node20&#45;&gt;Node3 -->
<g id="edge32" class="edge"><title>Node20&#45;&gt;Node3</title>
<path fill="none" stroke="midnightblue" d="M521.314,-159.082C528.209,-161.35 535.258,-163.456 542,-165 684.824,-197.71 857.094,-209.365 944.816,-213.419"/>
<polygon fill="midnightblue" stroke="midnightblue" points="944.685,-216.916 954.831,-213.865 944.997,-209.923 944.685,-216.916"/>
</g>
<!-- Node20&#45;&gt;Node13 -->
<g id="edge33" class="edge"><title>Node20&#45;&gt;Node13</title>
<path fill="none" stroke="midnightblue" d="M489.093,-128.874C510.168,-104.255 553.512,-53.6237 575.91,-27.4594"/>
<polygon fill="midnightblue" stroke="midnightblue" points="578.796,-29.47 582.64,-19.5973 573.478,-24.9178 578.796,-29.47"/>
</g>
<!-- Node21&#45;&gt;Node3 -->
<g id="edge35" class="edge"><title>Node21&#45;&gt;Node3</title>
<path fill="none" stroke="midnightblue" d="M1334.93,-164.522C1334.28,-164.685 1333.64,-164.844 1333,-165 1238.67,-187.951 1126.15,-202.821 1059.48,-210.134"/>
<polygon fill="midnightblue" stroke="midnightblue" points="1058.75,-206.692 1049.18,-211.242 1059.5,-213.652 1058.75,-206.692"/>
</g>
<!-- Node21&#45;&gt;Node7 -->
<g id="edge36" class="edge"><title>Node21&#45;&gt;Node7</title>
<path fill="none" stroke="midnightblue" d="M1434.59,-125.934C1472.69,-113.082 1523.96,-95.7891 1557.71,-84.4025"/>
<polygon fill="midnightblue" stroke="midnightblue" points="1559.24,-87.5825 1567.59,-81.0698 1557,-80.9497 1559.24,-87.5825"/>
</g>
<!-- Node22&#45;&gt;Node3 -->
<g id="edge38" class="edge"><title>Node22&#45;&gt;Node3</title>
<path fill="none" stroke="midnightblue" d="M1477.27,-159.001C1469.03,-161.248 1460.29,-163.368 1452,-165 1312.68,-192.416 1145.45,-206.528 1059.31,-212.284"/>
<polygon fill="midnightblue" stroke="midnightblue" points="1058.96,-208.799 1049.21,-212.945 1059.42,-215.784 1058.96,-208.799"/>
</g>
<!-- Node22&#45;&gt;Node7 -->
<g id="edge39" class="edge"><title>Node22&#45;&gt;Node7</title>
<path fill="none" stroke="midnightblue" d="M1529.99,-128.733C1543.13,-117.005 1561.73,-100.404 1575.32,-88.2797"/>
<polygon fill="midnightblue" stroke="midnightblue" points="1577.9,-90.6628 1583.03,-81.3932 1573.24,-85.4401 1577.9,-90.6628"/>
</g>
<!-- Node23&#45;&gt;Node3 -->
<g id="edge41" class="edge"><title>Node23&#45;&gt;Node3</title>
<path fill="none" stroke="midnightblue" d="M657.302,-159.078C665.251,-161.238 673.327,-163.308 681,-165 772.602,-185.194 880.274,-200.039 944.813,-208.226"/>
<polygon fill="midnightblue" stroke="midnightblue" points="944.433,-211.706 954.792,-209.483 945.308,-204.761 944.433,-211.706"/>
</g>
<!-- Node24&#45;&gt;Node3 -->
<g id="edge43" class="edge"><title>Node24&#45;&gt;Node3</title>
<path fill="none" stroke="midnightblue" d="M782.725,-159.448C788.892,-161.398 795.089,-163.307 801,-165 849.187,-178.798 904.308,-191.955 944.702,-201.379"/>
<polygon fill="midnightblue" stroke="midnightblue" points="944.108,-204.834 954.641,-203.692 945.695,-198.016 944.108,-204.834"/>
</g>
<!-- Node25&#45;&gt;Node2 -->
<g id="edge50" class="edge"><title>Node25&#45;&gt;Node2</title>
<path fill="none" stroke="midnightblue" d="M1767.74,-335.396C1750.3,-326.026 1727.2,-313.615 1708.17,-303.395"/>
<polygon fill="midnightblue" stroke="midnightblue" points="1709.67,-300.226 1699.2,-298.577 1706.36,-306.392 1709.67,-300.226"/>
</g>
<!-- Node25&#45;&gt;Node6 -->
<g id="edge49" class="edge"><title>Node25&#45;&gt;Node6</title>
<path fill="none" stroke="midnightblue" d="M1791.39,-335.444C1784.71,-299.481 1766.99,-204.118 1759.46,-163.616"/>
<polygon fill="midnightblue" stroke="midnightblue" points="1762.89,-162.934 1757.62,-153.742 1756.01,-164.213 1762.89,-162.934"/>
</g>
<!-- Node25&#45;&gt;Node7 -->
<g id="edge51" class="edge"><title>Node25&#45;&gt;Node7</title>
<path fill="none" stroke="midnightblue" d="M1801.83,-335.371C1822.15,-296.61 1871.51,-187.226 1820,-123 1800.99,-99.293 1725.84,-86.0048 1667.15,-79.0797"/>
<polygon fill="midnightblue" stroke="midnightblue" points="1667.47,-75.5942 1657.14,-77.941 1666.68,-82.5493 1667.47,-75.5942"/>
</g>
</g>
</svg>
