<?xml version="1.0" encoding="UTF-8" standalone="no"?>
<!DOCTYPE svg PUBLIC "-//W3C//DTD SVG 1.1//EN"
 "http://www.w3.org/Graphics/SVG/1.1/DTD/svg11.dtd">
<!-- Generated by graphviz version 2.38.0 (20140413.2041)
 -->
<!-- Title: include/client/mir_toolkit/mir_extension_core.h Pages: 1 -->
<svg width="1400pt" height="184pt"
 viewBox="0.00 0.00 1399.50 184.00" xmlns="http://www.w3.org/2000/svg" xmlns:xlink="http://www.w3.org/1999/xlink">
<g id="graph0" class="graph" transform="scale(1 1) rotate(0) translate(4 180)">
<title>include/client/mir_toolkit/mir_extension_core.h</title>
<polygon fill="white" stroke="none" points="-4,4 -4,-180 1395.5,-180 1395.5,4 -4,4"/>
<!-- Node25 -->
<g id="node1" class="node"><title>Node25</title>
<polygon fill="#bfbfbf" stroke="black" points="575,-134.5 575,-175.5 687,-175.5 687,-134.5 575,-134.5"/>
<text text-anchor="start" x="583" y="-163.5" font-family="Arial" font-size="10.00">include/client/mir</text>
<text text-anchor="start" x="583" y="-152.5" font-family="Arial" font-size="10.00">_toolkit/mir_extension</text>
<text text-anchor="middle" x="631" y="-141.5" font-family="Arial" font-size="10.00">_core.h</text>
</g>
<!-- Node26 -->
<g id="node2" class="node"><title>Node26</title>
<g id="a_node2"><a xlink:href="android__buffer_8h.html" target="_top" xlink:title="include/client/mir\l_toolkit/extensions\l/android_buffer.h">
<polygon fill="white" stroke="black" points="-7.10543e-15,-56.5 -7.10543e-15,-97.5 98,-97.5 98,-56.5 -7.10543e-15,-56.5"/>
<text text-anchor="start" x="8" y="-85.5" font-family="Arial" font-size="10.00">include/client/mir</text>
<text text-anchor="start" x="8" y="-74.5" font-family="Arial" font-size="10.00">_toolkit/extensions</text>
<text text-anchor="middle" x="49" y="-63.5" font-family="Arial" font-size="10.00">/android_buffer.h</text>
</a>
</g>
</g>
<!-- Node25&#45;&gt;Node26 -->
<g id="edge1" class="edge"><title>Node25&#45;&gt;Node26</title>
<path fill="none" stroke="midnightblue" d="M564.599,-151.697C464.368,-147.147 268.93,-134.085 107,-98 104.089,-97.3513 101.121,-96.6053 98.1432,-95.7909"/>
<polygon fill="midnightblue" stroke="midnightblue" points="564.733,-155.206 574.877,-152.148 565.04,-148.212 564.733,-155.206"/>
</g>
<!-- Node27 -->
<g id="node3" class="node"><title>Node27</title>
<g id="a_node3"><a xlink:href="android__egl_8h.html" target="_top" xlink:title="include/client/mir\l_toolkit/extensions\l/android_egl.h">
<polygon fill="white" stroke="black" points="116,-56.5 116,-97.5 214,-97.5 214,-56.5 116,-56.5"/>
<text text-anchor="start" x="124" y="-85.5" font-family="Arial" font-size="10.00">include/client/mir</text>
<text text-anchor="start" x="124" y="-74.5" font-family="Arial" font-size="10.00">_toolkit/extensions</text>
<text text-anchor="middle" x="165" y="-63.5" font-family="Arial" font-size="10.00">/android_egl.h</text>
</a>
</g>
</g>
<!-- Node25&#45;&gt;Node27 -->
<g id="edge2" class="edge"><title>Node25&#45;&gt;Node27</title>
<path fill="none" stroke="midnightblue" d="M564.832,-148.926C483.514,-141.775 341.713,-126.326 223,-98 220.099,-97.3078 217.139,-96.5278 214.167,-95.6874"/>
<polygon fill="midnightblue" stroke="midnightblue" points="564.663,-152.424 574.928,-149.798 565.266,-145.45 564.663,-152.424"/>
</g>
<!-- Node28 -->
<g id="node4" class="node"><title>Node28</title>
<g id="a_node4"><a xlink:href="drag__and__drop_8h.html" target="_top" xlink:title="include/client/mir\l_toolkit/extensions\l/drag_and_drop.h">
<polygon fill="white" stroke="black" points="232,-56.5 232,-97.5 330,-97.5 330,-56.5 232,-56.5"/>
<text text-anchor="start" x="240" y="-85.5" font-family="Arial" font-size="10.00">include/client/mir</text>
<text text-anchor="start" x="240" y="-74.5" font-family="Arial" font-size="10.00">_toolkit/extensions</text>
<text text-anchor="middle" x="281" y="-63.5" font-family="Arial" font-size="10.00">/drag_and_drop.h</text>
</a>
</g>
</g>
<!-- Node25&#45;&gt;Node28 -->
<g id="edge3" class="edge"><title>Node25&#45;&gt;Node28</title>
<path fill="none" stroke="midnightblue" d="M564.727,-144.058C505.143,-134.467 415.494,-118.412 339,-98 336.118,-97.2311 333.173,-96.3911 330.213,-95.5048"/>
<polygon fill="midnightblue" stroke="midnightblue" points="564.331,-147.539 574.757,-145.658 565.433,-140.627 564.331,-147.539"/>
</g>
<!-- Node29 -->
<g id="node5" class="node"><title>Node29</title>
<g id="a_node5"><a xlink:href="fenced__buffers_8h.html" target="_top" xlink:title="include/client/mir\l_toolkit/extensions\l/fenced_buffers.h">
<polygon fill="white" stroke="black" points="348,-56.5 348,-97.5 446,-97.5 446,-56.5 348,-56.5"/>
<text text-anchor="start" x="356" y="-85.5" font-family="Arial" font-size="10.00">include/client/mir</text>
<text text-anchor="start" x="356" y="-74.5" font-family="Arial" font-size="10.00">_toolkit/extensions</text>
<text text-anchor="middle" x="397" y="-63.5" font-family="Arial" font-size="10.00">/fenced_buffers.h</text>
</a>
</g>
</g>
<!-- Node25&#45;&gt;Node29 -->
<g id="edge4" class="edge"><title>Node25&#45;&gt;Node29</title>
<path fill="none" stroke="midnightblue" d="M565.045,-133.427C531.954,-123 491.29,-110.028 455,-98 452.068,-97.0282 449.056,-96.0199 446.02,-94.9958"/>
<polygon fill="midnightblue" stroke="midnightblue" points="564.022,-136.774 574.612,-136.437 566.123,-130.097 564.022,-136.774"/>
</g>
<!-- Node30 -->
<g id="node6" class="node"><title>Node30</title>
<g id="a_node6"><a xlink:href="gbm__buffer_8h.html" target="_top" xlink:title="include/client/mir\l_toolkit/extensions\l/gbm_buffer.h">
<polygon fill="white" stroke="black" points="464,-56.5 464,-97.5 562,-97.5 562,-56.5 464,-56.5"/>
<text text-anchor="start" x="472" y="-85.5" font-family="Arial" font-size="10.00">include/client/mir</text>
<text text-anchor="start" x="472" y="-74.5" font-family="Arial" font-size="10.00">_toolkit/extensions</text>
<text text-anchor="middle" x="513" y="-63.5" font-family="Arial" font-size="10.00">/gbm_buffer.h</text>
</a>
</g>
</g>
<!-- Node25&#45;&gt;Node30 -->
<g id="edge5" class="edge"><title>Node25&#45;&gt;Node30</title>
<path fill="none" stroke="midnightblue" d="M592.059,-128.919C576.195,-118.702 558.135,-107.07 543.285,-97.5056"/>
<polygon fill="midnightblue" stroke="midnightblue" points="590.31,-131.956 600.612,-134.428 594.1,-126.071 590.31,-131.956"/>
</g>
<!-- Node31 -->
<g id="node7" class="node"><title>Node31</title>
<g id="a_node7"><a xlink:href="graphics__module_8h.html" target="_top" xlink:title="include/client/mir\l_toolkit/extensions\l/graphics_module.h">
<polygon fill="white" stroke="black" points="580.5,-56.5 580.5,-97.5 681.5,-97.5 681.5,-56.5 580.5,-56.5"/>
<text text-anchor="start" x="588.5" y="-85.5" font-family="Arial" font-size="10.00">include/client/mir</text>
<text text-anchor="start" x="588.5" y="-74.5" font-family="Arial" font-size="10.00">_toolkit/extensions</text>
<text text-anchor="middle" x="631" y="-63.5" font-family="Arial" font-size="10.00">/graphics_module.h</text>
</a>
</g>
</g>
<!-- Node25&#45;&gt;Node31 -->
<g id="edge6" class="edge"><title>Node25&#45;&gt;Node31</title>
<path fill="none" stroke="midnightblue" d="M631,-124.297C631,-115.301 631,-105.653 631,-97.5056"/>
<polygon fill="midnightblue" stroke="midnightblue" points="627.5,-124.428 631,-134.428 634.5,-124.428 627.5,-124.428"/>
</g>
<!-- Node33 -->
<g id="node9" class="node"><title>Node33</title>
<g id="a_node9"><a xlink:href="hardware__buffer__stream_8h.html" target="_top" xlink:title="include/client/mir\l_toolkit/extensions\l/hardware_buffer_stream.h">
<polygon fill="white" stroke="black" points="700,-56.5 700,-97.5 832,-97.5 832,-56.5 700,-56.5"/>
<text text-anchor="start" x="708" y="-85.5" font-family="Arial" font-size="10.00">include/client/mir</text>
<text text-anchor="start" x="708" y="-74.5" font-family="Arial" font-size="10.00">_toolkit/extensions</text>
<text text-anchor="middle" x="766" y="-63.5" font-family="Arial" font-size="10.00">/hardware_buffer_stream.h</text>
</a>
</g>
</g>
<!-- Node25&#45;&gt;Node33 -->
<g id="edge8" class="edge"><title>Node25&#45;&gt;Node33</title>
<path fill="none" stroke="midnightblue" d="M674.545,-129.486C692.934,-119.134 714.048,-107.247 731.352,-97.5056"/>
<polygon fill="midnightblue" stroke="midnightblue" points="672.763,-126.472 665.766,-134.428 676.197,-132.572 672.763,-126.472"/>
</g>
<!-- Node34 -->
<g id="node10" class="node"><title>Node34</title>
<g id="a_node10"><a xlink:href="mesa__drm__auth_8h.html" target="_top" xlink:title="include/client/mir\l_toolkit/extensions\l/mesa_drm_auth.h">
<polygon fill="white" stroke="black" points="850,-56.5 850,-97.5 948,-97.5 948,-56.5 850,-56.5"/>
<text text-anchor="start" x="858" y="-85.5" font-family="Arial" font-size="10.00">include/client/mir</text>
<text text-anchor="start" x="858" y="-74.5" font-family="Arial" font-size="10.00">_toolkit/extensions</text>
<text text-anchor="middle" x="899" y="-63.5" font-family="Arial" font-size="10.00">/mesa_drm_auth.h</text>
</a>
</g>
</g>
<!-- Node25&#45;&gt;Node34 -->
<g id="edge9" class="edge"><title>Node25&#45;&gt;Node34</title>
<path fill="none" stroke="midnightblue" d="M696.752,-137.753C738.32,-127.164 793.058,-112.638 841,-98 843.852,-97.1291 846.775,-96.2095 849.717,-95.2622"/>
<polygon fill="midnightblue" stroke="midnightblue" points="695.851,-134.37 687.018,-140.221 697.572,-141.155 695.851,-134.37"/>
</g>
<!-- Node35 -->
<g id="node11" class="node"><title>Node35</title>
<g id="a_node11"><a xlink:href="set__gbm__device_8h.html" target="_top" xlink:title="include/client/mir\l_toolkit/extensions\l/set_gbm_device.h">
<polygon fill="white" stroke="black" points="966.5,-56.5 966.5,-97.5 1065.5,-97.5 1065.5,-56.5 966.5,-56.5"/>
<text text-anchor="start" x="974.5" y="-85.5" font-family="Arial" font-size="10.00">include/client/mir</text>
<text text-anchor="start" x="974.5" y="-74.5" font-family="Arial" font-size="10.00">_toolkit/extensions</text>
<text text-anchor="middle" x="1016" y="-63.5" font-family="Arial" font-size="10.00">/set_gbm_device.h</text>
</a>
</g>
</g>
<!-- Node25&#45;&gt;Node35 -->
<g id="edge10" class="edge"><title>Node25&#45;&gt;Node35</title>
<path fill="none" stroke="midnightblue" d="M697.534,-145.684C763.87,-136.666 868.368,-120.487 957,-98 960.04,-97.2287 963.149,-96.3754 966.271,-95.4687"/>
<polygon fill="midnightblue" stroke="midnightblue" points="696.668,-142.269 687.223,-147.07 697.601,-149.206 696.668,-142.269"/>
</g>
<!-- Node36 -->
<g id="node12" class="node"><title>Node36</title>
<g id="a_node12"><a xlink:href="window__coordinate__translation_8h.html" target="_top" xlink:title="include/client/mir\l_toolkit/extensions\l/window_coordinate_translation.h">
<polygon fill="white" stroke="black" points="1084,-56.5 1084,-97.5 1244,-97.5 1244,-56.5 1084,-56.5"/>
<text text-anchor="start" x="1092" y="-85.5" font-family="Arial" font-size="10.00">include/client/mir</text>
<text text-anchor="start" x="1092" y="-74.5" font-family="Arial" font-size="10.00">_toolkit/extensions</text>
<text text-anchor="middle" x="1164" y="-63.5" font-family="Arial" font-size="10.00">/window_coordinate_translation.h</text>
</a>
</g>
</g>
<!-- Node25&#45;&gt;Node36 -->
<g id="edge11" class="edge"><title>Node25&#45;&gt;Node36</title>
<path fill="none" stroke="midnightblue" d="M697.332,-147.633C784.383,-138.822 941.755,-121.319 1075,-98 1077.81,-97.5086 1080.66,-96.9874 1083.54,-96.4431"/>
<polygon fill="midnightblue" stroke="midnightblue" points="696.929,-144.156 687.329,-148.639 697.629,-151.121 696.929,-144.156"/>
</g>
<!-- Node37 -->
<g id="node13" class="node"><title>Node37</title>
<g id="a_node13"><a xlink:href="stub__platform__extension_8h.html" target="_top" xlink:title="include/test/mir_test\l_framework/stub_platform\l_extension.h">
<polygon fill="white" stroke="black" points="1262.5,-56.5 1262.5,-97.5 1391.5,-97.5 1391.5,-56.5 1262.5,-56.5"/>
<text text-anchor="start" x="1270.5" y="-85.5" font-family="Arial" font-size="10.00">include/test/mir_test</text>
<text text-anchor="start" x="1270.5" y="-74.5" font-family="Arial" font-size="10.00">_framework/stub_platform</text>
<text text-anchor="middle" x="1327" y="-63.5" font-family="Arial" font-size="10.00">_extension.h</text>
</a>
</g>
</g>
<!-- Node25&#45;&gt;Node37 -->
<g id="edge12" class="edge"><title>Node25&#45;&gt;Node37</title>
<path fill="none" stroke="midnightblue" d="M697.524,-151.811C811.872,-147.204 1052.73,-133.798 1253,-98 1256.01,-97.4614 1259.08,-96.8582 1262.17,-96.2062"/>
<polygon fill="midnightblue" stroke="midnightblue" points="697.045,-148.327 687.19,-152.217 697.32,-155.322 697.045,-148.327"/>
</g>
<!-- Node32 -->
<g id="node8" class="node"><title>Node32</title>
<g id="a_node8"><a xlink:href="basic_8c.html" target="_top" xlink:title="examples/basic.c">
<polygon fill="white" stroke="black" points="584.5,-0.5 584.5,-19.5 677.5,-19.5 677.5,-0.5 584.5,-0.5"/>
<text text-anchor="middle" x="631" y="-7.5" font-family="Arial" font-size="10.00">examples/basic.c</text>
</a>
</g>
</g>
<!-- Node31&#45;&gt;Node32 -->
<g id="edge7" class="edge"><title>Node31&#45;&gt;Node32</title>
<path fill="none" stroke="midnightblue" d="M631,-46.2632C631,-36.5592 631,-26.5242 631,-19.6525"/>
<polygon fill="midnightblue" stroke="midnightblue" points="627.5,-46.4978 631,-56.4979 634.5,-46.4979 627.5,-46.4978"/>
</g>
</g>
</svg>
