<?xml version="1.0" encoding="UTF-8" standalone="no"?>
<!DOCTYPE svg PUBLIC "-//W3C//DTD SVG 1.1//EN"
 "http://www.w3.org/Graphics/SVG/1.1/DTD/svg11.dtd">
<!-- Generated by graphviz version 2.38.0 (20140413.2041)
 -->
<!-- Title: include/client/mir_toolkit/mir_input_device.h Pages: 1 -->
<svg width="1860pt" height="374pt"
 viewBox="0.00 0.00 1860.49 374.00" xmlns="http://www.w3.org/2000/svg" xmlns:xlink="http://www.w3.org/1999/xlink">
<g id="graph0" class="graph" transform="scale(1 1) rotate(0) translate(4 370)">
<title>include/client/mir_toolkit/mir_input_device.h</title>
<polygon fill="white" stroke="none" points="-4,4 -4,-370 1856.49,-370 1856.49,4 -4,4"/>
<!-- Node0 -->
<g id="node1" class="node"><title>Node0</title>
<polygon fill="#bfbfbf" stroke="black" points="1061.82,-335.5 1061.82,-365.5 1192.82,-365.5 1192.82,-335.5 1061.82,-335.5"/>
<text text-anchor="start" x="1069.82" y="-353.5" font-family="Arial" font-size="10.00">include/client/mir</text>
<text text-anchor="middle" x="1127.32" y="-342.5" font-family="Arial" font-size="10.00">_toolkit/mir_input_device.h</text>
</g>
<!-- Node1 -->
<g id="node2" class="node"><title>Node1</title>
<g id="a_node2"><a xlink:href="client__types_8h.html" target="_top" xlink:title="mir_toolkit/client\l_types.h">
<polygon fill="white" stroke="black" points="761.325,-268.5 761.325,-298.5 849.325,-298.5 849.325,-268.5 761.325,-268.5"/>
<text text-anchor="start" x="769.325" y="-286.5" font-family="Arial" font-size="10.00">mir_toolkit/client</text>
<text text-anchor="middle" x="805.325" y="-275.5" font-family="Arial" font-size="10.00">_types.h</text>
</a>
</g>
</g>
<!-- Node0&#45;&gt;Node1 -->
<g id="edge1" class="edge"><title>Node0&#45;&gt;Node1</title>
<path fill="none" stroke="midnightblue" d="M1061.78,-336.268C1002.23,-324.247 915.41,-306.722 859.645,-295.465"/>
<polygon fill="midnightblue" stroke="midnightblue" points="860.102,-291.987 849.607,-293.439 858.716,-298.848 860.102,-291.987"/>
</g>
<!-- Node8 -->
<g id="node9" class="node"><title>Node8</title>
<g id="a_node9"><a xlink:href="mir__input__device__types_8h.html" target="_top" xlink:title="mir_toolkit/mir_input\l_device_types.h">
<polygon fill="white" stroke="black" points="1308.32,-56.5 1308.32,-86.5 1412.32,-86.5 1412.32,-56.5 1308.32,-56.5"/>
<text text-anchor="start" x="1316.32" y="-74.5" font-family="Arial" font-size="10.00">mir_toolkit/mir_input</text>
<text text-anchor="middle" x="1360.32" y="-63.5" font-family="Arial" font-size="10.00">_device_types.h</text>
</a>
</g>
</g>
<!-- Node0&#45;&gt;Node8 -->
<g id="edge46" class="edge"><title>Node0&#45;&gt;Node8</title>
<path fill="none" stroke="midnightblue" d="M1178.71,-335.457C1250.05,-312.875 1376.4,-260.977 1430.32,-165 1439.47,-148.726 1438.83,-139.618 1430.32,-123 1423.73,-110.118 1412.16,-99.7692 1400.29,-91.8752"/>
<polygon fill="midnightblue" stroke="midnightblue" points="1402.02,-88.8276 1391.67,-86.56 1398.34,-94.7866 1402.02,-88.8276"/>
</g>
<!-- Node2 -->
<g id="node3" class="node"><title>Node2</title>
<g id="a_node3"><a xlink:href="toolkit_2events_2event_8h.html" target="_top" xlink:title="mir_toolkit/events\l/event.h">
<polygon fill="white" stroke="black" points="759.325,-201.5 759.325,-231.5 851.325,-231.5 851.325,-201.5 759.325,-201.5"/>
<text text-anchor="start" x="767.325" y="-219.5" font-family="Arial" font-size="10.00">mir_toolkit/events</text>
<text text-anchor="middle" x="805.325" y="-208.5" font-family="Arial" font-size="10.00">/event.h</text>
</a>
</g>
</g>
<!-- Node1&#45;&gt;Node2 -->
<g id="edge2" class="edge"><title>Node1&#45;&gt;Node2</title>
<path fill="none" stroke="midnightblue" d="M805.325,-268.396C805.325,-260.645 805.325,-250.812 805.325,-241.86"/>
<polygon fill="midnightblue" stroke="midnightblue" points="808.825,-241.576 805.325,-231.577 801.825,-241.577 808.825,-241.576"/>
</g>
<!-- Node3 -->
<g id="node4" class="node"><title>Node3</title>
<polygon fill="white" stroke="#bfbfbf" points="1596.82,-134.5 1596.82,-153.5 1647.82,-153.5 1647.82,-134.5 1596.82,-134.5"/>
<text text-anchor="middle" x="1622.32" y="-141.5" font-family="Arial" font-size="10.00">stddef.h</text>
</g>
<!-- Node1&#45;&gt;Node3 -->
<g id="edge45" class="edge"><title>Node1&#45;&gt;Node3</title>
<path fill="none" stroke="midnightblue" d="M849.597,-281.71C971.192,-278.315 1319.13,-260.326 1588.32,-165 1592.8,-163.414 1597.35,-161.219 1601.6,-158.861"/>
<polygon fill="midnightblue" stroke="midnightblue" points="1603.54,-161.779 1610.29,-153.614 1599.92,-155.787 1603.54,-161.779"/>
</g>
<!-- Node5 -->
<g id="node6" class="node"><title>Node5</title>
<g id="a_node6"><a xlink:href="common_8h.html" target="_top" xlink:title="mir_toolkit/common.h">
<polygon fill="white" stroke="black" points="20.3249,-134.5 20.3249,-153.5 130.325,-153.5 130.325,-134.5 20.3249,-134.5"/>
<text text-anchor="middle" x="75.3249" y="-141.5" font-family="Arial" font-size="10.00">mir_toolkit/common.h</text>
</a>
</g>
</g>
<!-- Node1&#45;&gt;Node5 -->
<g id="edge43" class="edge"><title>Node1&#45;&gt;Node5</title>
<path fill="none" stroke="midnightblue" d="M761.285,-276.725C653.995,-262.223 370.907,-221.367 139.325,-165 129.587,-162.63 119.161,-159.592 109.61,-156.603"/>
<polygon fill="midnightblue" stroke="midnightblue" points="110.631,-153.255 100.04,-153.537 108.495,-159.921 110.631,-153.255"/>
</g>
<!-- Node6 -->
<g id="node7" class="node"><title>Node6</title>
<g id="a_node7"><a xlink:href="deprecations_8h.html" target="_top" xlink:title="mir_toolkit/deprecations.h">
<polygon fill="white" stroke="black" points="199.325,-62 199.325,-81 327.325,-81 327.325,-62 199.325,-62"/>
<text text-anchor="middle" x="263.325" y="-69" font-family="Arial" font-size="10.00">mir_toolkit/deprecations.h</text>
</a>
</g>
</g>
<!-- Node1&#45;&gt;Node6 -->
<g id="edge44" class="edge"><title>Node1&#45;&gt;Node6</title>
<path fill="none" stroke="midnightblue" d="M761.182,-279.413C601.236,-267.771 58.938,-224.166 11.3249,-165 -39.9307,-101.308 97.3903,-81.4706 188.912,-75.2931"/>
<polygon fill="midnightblue" stroke="midnightblue" points="189.24,-78.7794 198.999,-74.6544 188.798,-71.7934 189.24,-78.7794"/>
</g>
<!-- Node2&#45;&gt;Node3 -->
<g id="edge3" class="edge"><title>Node2&#45;&gt;Node3</title>
<path fill="none" stroke="midnightblue" d="M851.55,-213.769C1008.92,-207.702 1518.01,-186.602 1588.32,-165 1592.94,-163.582 1597.6,-161.427 1601.92,-159.048"/>
<polygon fill="midnightblue" stroke="midnightblue" points="1603.99,-161.886 1610.7,-153.686 1600.34,-155.912 1603.99,-161.886"/>
</g>
<!-- Node4 -->
<g id="node5" class="node"><title>Node4</title>
<polygon fill="white" stroke="#bfbfbf" points="1335.82,-0.5 1335.82,-19.5 1384.82,-19.5 1384.82,-0.5 1335.82,-0.5"/>
<text text-anchor="middle" x="1360.32" y="-7.5" font-family="Arial" font-size="10.00">stdint.h</text>
</g>
<!-- Node2&#45;&gt;Node4 -->
<g id="edge4" class="edge"><title>Node2&#45;&gt;Node4</title>
<path fill="none" stroke="midnightblue" d="M759.045,-212.312C679.448,-205.16 529.974,-183.427 582.325,-123 631.905,-65.7719 1180.3,-23.5901 1325.32,-13.3804"/>
<polygon fill="midnightblue" stroke="midnightblue" points="1325.7,-16.8622 1335.43,-12.6742 1325.21,-9.87919 1325.7,-16.8622"/>
</g>
<!-- Node2&#45;&gt;Node5 -->
<g id="edge5" class="edge"><title>Node2&#45;&gt;Node5</title>
<path fill="none" stroke="midnightblue" d="M759.195,-213.369C628.691,-207.123 258.62,-187.854 139.325,-165 128.864,-162.996 117.705,-159.869 107.683,-156.679"/>
<polygon fill="midnightblue" stroke="midnightblue" points="108.702,-153.329 98.1083,-153.506 106.5,-159.974 108.702,-153.329"/>
</g>
<!-- Node2&#45;&gt;Node6 -->
<g id="edge7" class="edge"><title>Node2&#45;&gt;Node6</title>
<path fill="none" stroke="midnightblue" d="M759.093,-213.081C672.594,-207.929 489.998,-193.903 434.325,-165 411.717,-153.263 416.436,-137.255 395.325,-123 368.639,-104.981 334.624,-92.1648 307.808,-83.953"/>
<polygon fill="midnightblue" stroke="midnightblue" points="308.495,-80.5064 297.913,-81.0298 306.512,-87.2196 308.495,-80.5064"/>
</g>
<!-- Node7 -->
<g id="node8" class="node"><title>Node7</title>
<g id="a_node8"><a xlink:href="input__event_8h.html" target="_top" xlink:title="mir_toolkit/events\l/input/input_event.h">
<polygon fill="white" stroke="black" points="1477.82,-129 1477.82,-159 1578.82,-159 1578.82,-129 1477.82,-129"/>
<text text-anchor="start" x="1485.82" y="-147" font-family="Arial" font-size="10.00">mir_toolkit/events</text>
<text text-anchor="middle" x="1528.32" y="-136" font-family="Arial" font-size="10.00">/input/input_event.h</text>
</a>
</g>
</g>
<!-- Node2&#45;&gt;Node7 -->
<g id="edge8" class="edge"><title>Node2&#45;&gt;Node7</title>
<path fill="none" stroke="midnightblue" d="M851.666,-213.455C954.641,-208.724 1209.54,-195.055 1421.32,-165 1436.42,-162.859 1452.68,-159.834 1467.9,-156.785"/>
<polygon fill="midnightblue" stroke="midnightblue" points="1468.63,-160.209 1477.73,-154.786 1467.23,-153.349 1468.63,-160.209"/>
</g>
<!-- Node14 -->
<g id="node15" class="node"><title>Node14</title>
<g id="a_node15"><a xlink:href="resize__event_8h.html" target="_top" xlink:title="mir_toolkit/events\l/resize_event.h">
<polygon fill="white" stroke="black" points="591.325,-129 591.325,-159 683.325,-159 683.325,-129 591.325,-129"/>
<text text-anchor="start" x="599.325" y="-147" font-family="Arial" font-size="10.00">mir_toolkit/events</text>
<text text-anchor="middle" x="637.325" y="-136" font-family="Arial" font-size="10.00">/resize_event.h</text>
</a>
</g>
</g>
<!-- Node2&#45;&gt;Node14 -->
<g id="edge19" class="edge"><title>Node2&#45;&gt;Node14</title>
<path fill="none" stroke="midnightblue" d="M766.205,-201.403C738.534,-190.404 701.779,-175.044 674.543,-163.13"/>
<polygon fill="midnightblue" stroke="midnightblue" points="675.899,-159.903 665.337,-159.073 673.076,-166.309 675.899,-159.903"/>
</g>
<!-- Node15 -->
<g id="node16" class="node"><title>Node15</title>
<g id="a_node16"><a xlink:href="surface__event_8h.html" target="_top" xlink:title="mir_toolkit/events\l/surface_event.h">
<polygon fill="white" stroke="black" points="443.325,-129 443.325,-159 535.325,-159 535.325,-129 443.325,-129"/>
<text text-anchor="start" x="451.325" y="-147" font-family="Arial" font-size="10.00">mir_toolkit/events</text>
<text text-anchor="middle" x="489.325" y="-136" font-family="Arial" font-size="10.00">/surface_event.h</text>
</a>
</g>
</g>
<!-- Node2&#45;&gt;Node15 -->
<g id="edge21" class="edge"><title>Node2&#45;&gt;Node15</title>
<path fill="none" stroke="midnightblue" d="M759.253,-209.257C705.847,-200.949 615.878,-184.958 540.325,-165 536.931,-164.104 533.449,-163.119 529.972,-162.083"/>
<polygon fill="midnightblue" stroke="midnightblue" points="530.849,-158.69 520.26,-159.054 528.764,-165.372 530.849,-158.69"/>
</g>
<!-- Node16 -->
<g id="node17" class="node"><title>Node16</title>
<g id="a_node17"><a xlink:href="window__event_8h.html" target="_top" xlink:title="mir_toolkit/events\l/window_event.h">
<polygon fill="white" stroke="black" points="701.325,-129 701.325,-159 793.325,-159 793.325,-129 701.325,-129"/>
<text text-anchor="start" x="709.325" y="-147" font-family="Arial" font-size="10.00">mir_toolkit/events</text>
<text text-anchor="middle" x="747.325" y="-136" font-family="Arial" font-size="10.00">/window_event.h</text>
</a>
</g>
</g>
<!-- Node2&#45;&gt;Node16 -->
<g id="edge24" class="edge"><title>Node2&#45;&gt;Node16</title>
<path fill="none" stroke="midnightblue" d="M788.039,-201.233C778.834,-191.582 767.913,-178.631 759.563,-167.591"/>
<polygon fill="midnightblue" stroke="midnightblue" points="762.209,-165.278 753.499,-159.246 756.546,-169.393 762.209,-165.278"/>
</g>
<!-- Node17 -->
<g id="node18" class="node"><title>Node17</title>
<g id="a_node18"><a xlink:href="orientation__event_8h.html" target="_top" xlink:title="mir_toolkit/events\l/orientation_event.h">
<polygon fill="white" stroke="black" points="811.825,-129 811.825,-159 912.825,-159 912.825,-129 811.825,-129"/>
<text text-anchor="start" x="819.825" y="-147" font-family="Arial" font-size="10.00">mir_toolkit/events</text>
<text text-anchor="middle" x="862.325" y="-136" font-family="Arial" font-size="10.00">/orientation_event.h</text>
</a>
</g>
</g>
<!-- Node2&#45;&gt;Node17 -->
<g id="edge26" class="edge"><title>Node2&#45;&gt;Node17</title>
<path fill="none" stroke="midnightblue" d="M811.311,-201.233C817.979,-191.391 828.46,-178.117 838.286,-166.937"/>
<polygon fill="midnightblue" stroke="midnightblue" points="841.136,-169.004 845.261,-159.246 835.951,-164.302 841.136,-169.004"/>
</g>
<!-- Node18 -->
<g id="node19" class="node"><title>Node18</title>
<g id="a_node19"><a xlink:href="prompt__session__event_8h.html" target="_top" xlink:title="mir_toolkit/events\l/prompt_session_event.h">
<polygon fill="white" stroke="black" points="930.825,-129 930.825,-159 1055.82,-159 1055.82,-129 930.825,-129"/>
<text text-anchor="start" x="938.825" y="-147" font-family="Arial" font-size="10.00">mir_toolkit/events</text>
<text text-anchor="middle" x="993.325" y="-136" font-family="Arial" font-size="10.00">/prompt_session_event.h</text>
</a>
</g>
</g>
<!-- Node2&#45;&gt;Node18 -->
<g id="edge28" class="edge"><title>Node2&#45;&gt;Node18</title>
<path fill="none" stroke="midnightblue" d="M837.391,-201.403C865.749,-190.211 907.497,-174.506 940.709,-162.509"/>
<polygon fill="midnightblue" stroke="midnightblue" points="942.047,-165.748 950.274,-159.073 939.68,-159.16 942.047,-165.748"/>
</g>
<!-- Node19 -->
<g id="node20" class="node"><title>Node19</title>
<g id="a_node20"><a xlink:href="keymap__event_8h.html" target="_top" xlink:title="mir_toolkit/events\l/keymap_event.h">
<polygon fill="white" stroke="black" points="1329.32,-129 1329.32,-159 1421.32,-159 1421.32,-129 1329.32,-129"/>
<text text-anchor="start" x="1337.32" y="-147" font-family="Arial" font-size="10.00">mir_toolkit/events</text>
<text text-anchor="middle" x="1375.32" y="-136" font-family="Arial" font-size="10.00">/keymap_event.h</text>
</a>
</g>
</g>
<!-- Node2&#45;&gt;Node19 -->
<g id="edge30" class="edge"><title>Node2&#45;&gt;Node19</title>
<path fill="none" stroke="midnightblue" d="M851.5,-214.706C941.277,-212.329 1144.65,-202.843 1311.32,-165 1314.9,-164.187 1318.57,-163.206 1322.25,-162.119"/>
<polygon fill="midnightblue" stroke="midnightblue" points="1323.5,-165.395 1331.97,-159.041 1321.38,-158.721 1323.5,-165.395"/>
</g>
<!-- Node20 -->
<g id="node21" class="node"><title>Node20</title>
<g id="a_node21"><a xlink:href="input__configuration__event_8h.html" target="_top" xlink:title="mir_toolkit/events\l/input_configuration\l_event.h">
<polygon fill="white" stroke="black" points="148.825,-123.5 148.825,-164.5 249.825,-164.5 249.825,-123.5 148.825,-123.5"/>
<text text-anchor="start" x="156.825" y="-152.5" font-family="Arial" font-size="10.00">mir_toolkit/events</text>
<text text-anchor="start" x="156.825" y="-141.5" font-family="Arial" font-size="10.00">/input_configuration</text>
<text text-anchor="middle" x="199.325" y="-130.5" font-family="Arial" font-size="10.00">_event.h</text>
</a>
</g>
</g>
<!-- Node2&#45;&gt;Node20 -->
<g id="edge33" class="edge"><title>Node2&#45;&gt;Node20</title>
<path fill="none" stroke="midnightblue" d="M759.246,-214.98C664.785,-213.141 443.167,-204.809 257.049,-166.59"/>
<polygon fill="midnightblue" stroke="midnightblue" points="257.598,-163.129 247.093,-164.509 256.166,-169.981 257.598,-163.129"/>
</g>
<!-- Node21 -->
<g id="node22" class="node"><title>Node21</title>
<g id="a_node22"><a xlink:href="surface__output__event_8h.html" target="_top" xlink:title="mir_toolkit/events\l/surface_output_event.h">
<polygon fill="white" stroke="black" points="267.825,-129 267.825,-159 386.825,-159 386.825,-129 267.825,-129"/>
<text text-anchor="start" x="275.825" y="-147" font-family="Arial" font-size="10.00">mir_toolkit/events</text>
<text text-anchor="middle" x="327.325" y="-136" font-family="Arial" font-size="10.00">/surface_output_event.h</text>
</a>
</g>
</g>
<!-- Node2&#45;&gt;Node21 -->
<g id="edge36" class="edge"><title>Node2&#45;&gt;Node21</title>
<path fill="none" stroke="midnightblue" d="M759.265,-212.304C682.395,-206.138 523.929,-190.878 392.325,-165 387.232,-163.999 381.974,-162.838 376.75,-161.59"/>
<polygon fill="midnightblue" stroke="midnightblue" points="377.351,-158.133 366.8,-159.102 375.652,-164.924 377.351,-158.133"/>
</g>
<!-- Node22 -->
<g id="node23" class="node"><title>Node22</title>
<g id="a_node23"><a xlink:href="window__output__event_8h.html" target="_top" xlink:title="mir_toolkit/events\l/window_output_event.h">
<polygon fill="white" stroke="black" points="1073.82,-129 1073.82,-159 1192.82,-159 1192.82,-129 1073.82,-129"/>
<text text-anchor="start" x="1081.82" y="-147" font-family="Arial" font-size="10.00">mir_toolkit/events</text>
<text text-anchor="middle" x="1133.32" y="-136" font-family="Arial" font-size="10.00">/window_output_event.h</text>
</a>
</g>
</g>
<!-- Node2&#45;&gt;Node22 -->
<g id="edge39" class="edge"><title>Node2&#45;&gt;Node22</title>
<path fill="none" stroke="midnightblue" d="M851.583,-206.697C902.197,-197.594 985.29,-182.304 1056.32,-165 1060.43,-164.001 1064.65,-162.91 1068.91,-161.77"/>
<polygon fill="midnightblue" stroke="midnightblue" points="1070.16,-165.057 1078.88,-159.042 1068.32,-158.305 1070.16,-165.057"/>
</g>
<!-- Node23 -->
<g id="node24" class="node"><title>Node23</title>
<g id="a_node24"><a xlink:href="input__device__state__event_8h.html" target="_top" xlink:title="mir_toolkit/events\l/input_device_state\l_event.h">
<polygon fill="white" stroke="black" points="1211.32,-123.5 1211.32,-164.5 1311.32,-164.5 1311.32,-123.5 1211.32,-123.5"/>
<text text-anchor="start" x="1219.32" y="-152.5" font-family="Arial" font-size="10.00">mir_toolkit/events</text>
<text text-anchor="start" x="1219.32" y="-141.5" font-family="Arial" font-size="10.00">/input_device_state</text>
<text text-anchor="middle" x="1261.32" y="-130.5" font-family="Arial" font-size="10.00">_event.h</text>
</a>
</g>
</g>
<!-- Node2&#45;&gt;Node23 -->
<g id="edge41" class="edge"><title>Node2&#45;&gt;Node23</title>
<path fill="none" stroke="midnightblue" d="M851.426,-212.222C924.698,-206.655 1071.46,-193.106 1193.32,-165 1195.95,-164.394 1198.63,-163.717 1201.32,-162.988"/>
<polygon fill="midnightblue" stroke="midnightblue" points="1202.5,-166.291 1211.13,-160.155 1200.56,-159.566 1202.5,-166.291"/>
</g>
<!-- Node5&#45;&gt;Node6 -->
<g id="edge6" class="edge"><title>Node5&#45;&gt;Node6</title>
<path fill="none" stroke="midnightblue" d="M98.0021,-134.496C131.172,-122.057 193.087,-98.8392 231.012,-84.6172"/>
<polygon fill="midnightblue" stroke="midnightblue" points="232.433,-87.8226 240.567,-81.0341 229.975,-81.2683 232.433,-87.8226"/>
</g>
<!-- Node7&#45;&gt;Node2 -->
<g id="edge9" class="edge"><title>Node7&#45;&gt;Node2</title>
<path fill="none" stroke="midnightblue" d="M1477.72,-158.318C1465.24,-160.827 1451.88,-163.219 1439.32,-165 1227.63,-195.042 972.864,-208.713 861.671,-213.449"/>
<polygon fill="midnightblue" stroke="midnightblue" points="861.21,-209.965 851.365,-213.879 861.503,-216.959 861.21,-209.965"/>
</g>
<!-- Node7&#45;&gt;Node4 -->
<g id="edge12" class="edge"><title>Node7&#45;&gt;Node4</title>
<path fill="none" stroke="midnightblue" d="M1510.99,-128.739C1485.36,-107.687 1438.55,-69.3431 1421.32,-56 1408.06,-45.724 1392.88,-34.5216 1380.98,-25.8645"/>
<polygon fill="midnightblue" stroke="midnightblue" points="1382.76,-22.8303 1372.6,-19.798 1378.65,-28.4991 1382.76,-22.8303"/>
</g>
<!-- Node7&#45;&gt;Node8 -->
<g id="edge10" class="edge"><title>Node7&#45;&gt;Node8</title>
<path fill="none" stroke="midnightblue" d="M1494.73,-128.903C1468.41,-117.856 1431.6,-102.41 1403.16,-90.4745"/>
<polygon fill="midnightblue" stroke="midnightblue" points="1404.44,-87.2151 1393.86,-86.5729 1401.73,-93.6698 1404.44,-87.2151"/>
</g>
<!-- Node9 -->
<g id="node10" class="node"><title>Node9</title>
<polygon fill="white" stroke="#bfbfbf" points="1734.32,-0.5 1734.32,-19.5 1790.32,-19.5 1790.32,-0.5 1734.32,-0.5"/>
<text text-anchor="middle" x="1762.32" y="-7.5" font-family="Arial" font-size="10.00">stdbool.h</text>
</g>
<!-- Node7&#45;&gt;Node9 -->
<g id="edge13" class="edge"><title>Node7&#45;&gt;Node9</title>
<path fill="none" stroke="midnightblue" d="M1567.08,-128.933C1574.09,-126.719 1581.38,-124.628 1588.32,-123 1644.69,-109.792 1808.32,-130.67 1846.32,-87 1855.37,-76.6062 1853.4,-67.8209 1846.32,-56 1836.31,-39.2695 1817.71,-28.4057 1800.55,-21.553"/>
<polygon fill="midnightblue" stroke="midnightblue" points="1801.29,-18.0963 1790.69,-17.9677 1798.9,-24.6748 1801.29,-18.0963"/>
</g>
<!-- Node10 -->
<g id="node11" class="node"><title>Node10</title>
<g id="a_node11"><a xlink:href="touch__event_8h.html" target="_top" xlink:title="mir_toolkit/events\l/input/touch_event.h">
<polygon fill="white" stroke="black" points="1733.32,-56.5 1733.32,-86.5 1837.32,-86.5 1837.32,-56.5 1733.32,-56.5"/>
<text text-anchor="start" x="1741.32" y="-74.5" font-family="Arial" font-size="10.00">mir_toolkit/events</text>
<text text-anchor="middle" x="1785.32" y="-63.5" font-family="Arial" font-size="10.00">/input/touch_event.h</text>
</a>
</g>
</g>
<!-- Node7&#45;&gt;Node10 -->
<g id="edge14" class="edge"><title>Node7&#45;&gt;Node10</title>
<path fill="none" stroke="midnightblue" d="M1569.19,-128.948C1575.57,-126.878 1582.11,-124.83 1588.32,-123 1613.38,-115.622 1675.29,-99.9003 1723.08,-87.9461"/>
<polygon fill="midnightblue" stroke="midnightblue" points="1724.19,-91.2762 1733.05,-85.4567 1722.49,-84.4849 1724.19,-91.2762"/>
</g>
<!-- Node11 -->
<g id="node12" class="node"><title>Node11</title>
<g id="a_node12"><a xlink:href="keyboard__event_8h.html" target="_top" xlink:title="mir_toolkit/events\l/input/keyboard_event.h">
<polygon fill="white" stroke="black" points="1468.82,-56.5 1468.82,-86.5 1587.82,-86.5 1587.82,-56.5 1468.82,-56.5"/>
<text text-anchor="start" x="1476.82" y="-74.5" font-family="Arial" font-size="10.00">mir_toolkit/events</text>
<text text-anchor="middle" x="1528.32" y="-63.5" font-family="Arial" font-size="10.00">/input/keyboard_event.h</text>
</a>
</g>
</g>
<!-- Node7&#45;&gt;Node11 -->
<g id="edge15" class="edge"><title>Node7&#45;&gt;Node11</title>
<path fill="none" stroke="midnightblue" d="M1528.32,-128.733C1528.32,-119.655 1528.32,-107.658 1528.32,-97.0773"/>
<polygon fill="midnightblue" stroke="midnightblue" points="1531.83,-96.7455 1528.32,-86.7455 1524.83,-96.7455 1531.83,-96.7455"/>
</g>
<!-- Node13 -->
<g id="node14" class="node"><title>Node13</title>
<g id="a_node14"><a xlink:href="pointer__event_8h.html" target="_top" xlink:title="mir_toolkit/events\l/input/pointer_event.h">
<polygon fill="white" stroke="black" points="1605.82,-56.5 1605.82,-86.5 1714.82,-86.5 1714.82,-56.5 1605.82,-56.5"/>
<text text-anchor="start" x="1613.82" y="-74.5" font-family="Arial" font-size="10.00">mir_toolkit/events</text>
<text text-anchor="middle" x="1660.32" y="-63.5" font-family="Arial" font-size="10.00">/input/pointer_event.h</text>
</a>
</g>
</g>
<!-- Node7&#45;&gt;Node13 -->
<g id="edge17" class="edge"><title>Node7&#45;&gt;Node13</title>
<path fill="none" stroke="midnightblue" d="M1554.72,-128.903C1574.86,-118.144 1602.82,-103.213 1624.91,-91.4156"/>
<polygon fill="midnightblue" stroke="midnightblue" points="1626.8,-94.3713 1633.98,-86.5729 1623.51,-88.1967 1626.8,-94.3713"/>
</g>
<!-- Node8&#45;&gt;Node4 -->
<g id="edge11" class="edge"><title>Node8&#45;&gt;Node4</title>
<path fill="none" stroke="midnightblue" d="M1360.32,-56.3993C1360.32,-48.4664 1360.32,-38.458 1360.32,-29.8583"/>
<polygon fill="midnightblue" stroke="midnightblue" points="1363.83,-29.6577 1360.32,-19.6578 1356.83,-29.6578 1363.83,-29.6577"/>
</g>
<!-- Node12 -->
<g id="node13" class="node"><title>Node12</title>
<polygon fill="white" stroke="#bfbfbf" points="1432.32,-0.5 1432.32,-19.5 1566.32,-19.5 1566.32,-0.5 1432.32,-0.5"/>
<text text-anchor="middle" x="1499.32" y="-7.5" font-family="Arial" font-size="10.00">xkbcommon/xkbcommon.h</text>
</g>
<!-- Node11&#45;&gt;Node12 -->
<g id="edge16" class="edge"><title>Node11&#45;&gt;Node12</title>
<path fill="none" stroke="midnightblue" d="M1521.45,-56.3993C1517.41,-48.1098 1512.27,-37.5542 1507.96,-28.7077"/>
<polygon fill="midnightblue" stroke="midnightblue" points="1511.07,-27.1135 1503.54,-19.6578 1504.78,-30.1804 1511.07,-27.1135"/>
</g>
<!-- Node13&#45;&gt;Node9 -->
<g id="edge18" class="edge"><title>Node13&#45;&gt;Node9</title>
<path fill="none" stroke="midnightblue" d="M1684.5,-56.3993C1700.85,-46.8619 1722.34,-34.3248 1738.6,-24.8422"/>
<polygon fill="midnightblue" stroke="midnightblue" points="1740.61,-27.7198 1747.48,-19.6578 1737.08,-21.6733 1740.61,-27.7198"/>
</g>
<!-- Node14&#45;&gt;Node2 -->
<g id="edge20" class="edge"><title>Node14&#45;&gt;Node2</title>
<path fill="none" stroke="midnightblue" d="M676.383,-159.073C704.041,-170.066 740.796,-185.424 768.046,-197.343"/>
<polygon fill="midnightblue" stroke="midnightblue" points="766.695,-200.573 777.258,-201.403 769.518,-194.167 766.695,-200.573"/>
</g>
<!-- Node15&#45;&gt;Node2 -->
<g id="edge22" class="edge"><title>Node15&#45;&gt;Node2</title>
<path fill="none" stroke="midnightblue" d="M535.367,-158.223C543.04,-160.652 550.894,-163.037 558.325,-165 623.271,-182.156 698.871,-196.381 749.242,-205.314"/>
<polygon fill="midnightblue" stroke="midnightblue" points="748.826,-208.794 759.282,-207.084 750.042,-201.901 748.826,-208.794"/>
</g>
<!-- Node15&#45;&gt;Node6 -->
<g id="edge23" class="edge"><title>Node15&#45;&gt;Node6</title>
<path fill="none" stroke="midnightblue" d="M447.734,-128.978C441.57,-126.946 435.288,-124.901 429.325,-123 385.888,-109.156 335.792,-94.0309 302.092,-83.978"/>
<polygon fill="midnightblue" stroke="midnightblue" points="302.769,-80.5276 292.186,-81.028 300.771,-87.2364 302.769,-80.5276"/>
</g>
<!-- Node16&#45;&gt;Node2 -->
<g id="edge25" class="edge"><title>Node16&#45;&gt;Node2</title>
<path fill="none" stroke="midnightblue" d="M764.591,-159.246C773.793,-168.892 784.714,-181.842 793.069,-192.885"/>
<polygon fill="midnightblue" stroke="midnightblue" points="790.426,-195.202 799.136,-201.233 796.088,-191.086 790.426,-195.202"/>
</g>
<!-- Node17&#45;&gt;Node2 -->
<g id="edge27" class="edge"><title>Node17&#45;&gt;Node2</title>
<path fill="none" stroke="midnightblue" d="M856.353,-159.246C849.691,-169.083 839.212,-182.356 829.385,-193.539"/>
<polygon fill="midnightblue" stroke="midnightblue" points="826.533,-191.474 822.408,-201.233 831.718,-196.176 826.533,-191.474"/>
</g>
<!-- Node18&#45;&gt;Node2 -->
<g id="edge29" class="edge"><title>Node18&#45;&gt;Node2</title>
<path fill="none" stroke="midnightblue" d="M961.32,-159.073C932.982,-170.258 891.238,-185.962 858.013,-197.965"/>
<polygon fill="midnightblue" stroke="midnightblue" points="856.671,-194.727 848.444,-201.403 859.038,-201.315 856.671,-194.727"/>
</g>
<!-- Node19&#45;&gt;Node2 -->
<g id="edge31" class="edge"><title>Node19&#45;&gt;Node2</title>
<path fill="none" stroke="midnightblue" d="M1349.64,-159.041C1343.1,-161.342 1336.06,-163.47 1329.32,-165 1162.38,-202.904 958.622,-212.36 861.643,-214.718"/>
<polygon fill="midnightblue" stroke="midnightblue" points="861.392,-211.222 851.474,-214.948 861.551,-218.221 861.392,-211.222"/>
</g>
<!-- Node19&#45;&gt;Node12 -->
<g id="edge32" class="edge"><title>Node19&#45;&gt;Node12</title>
<path fill="none" stroke="midnightblue" d="M1347.62,-128.856C1318.05,-111.904 1278.15,-82.4668 1299.32,-56 1314.8,-36.6624 1372.55,-25.0511 1422.04,-18.4803"/>
<polygon fill="midnightblue" stroke="midnightblue" points="1422.66,-21.9299 1432.14,-17.1931 1421.77,-14.9861 1422.66,-21.9299"/>
</g>
<!-- Node20&#45;&gt;Node2 -->
<g id="edge34" class="edge"><title>Node20&#45;&gt;Node2</title>
<path fill="none" stroke="midnightblue" d="M250.129,-160.535C255.904,-162.253 261.718,-163.808 267.325,-165 440.536,-201.818 650.245,-211.794 748.953,-214.496"/>
<polygon fill="midnightblue" stroke="midnightblue" points="748.921,-217.997 759.009,-214.757 749.103,-210.999 748.921,-217.997"/>
</g>
<!-- Node20&#45;&gt;Node6 -->
<g id="edge35" class="edge"><title>Node20&#45;&gt;Node6</title>
<path fill="none" stroke="midnightblue" d="M217.153,-123.362C227.075,-112.431 239.276,-98.9909 248.644,-88.6721"/>
<polygon fill="midnightblue" stroke="midnightblue" points="251.321,-90.9301 255.451,-81.1734 246.138,-86.225 251.321,-90.9301"/>
</g>
<!-- Node21&#45;&gt;Node2 -->
<g id="edge37" class="edge"><title>Node21&#45;&gt;Node2</title>
<path fill="none" stroke="midnightblue" d="M384.519,-159.102C393.164,-161.285 401.968,-163.357 410.325,-165 530.134,-188.559 672.207,-203.318 749.179,-210.426"/>
<polygon fill="midnightblue" stroke="midnightblue" points="748.868,-213.912 759.145,-211.337 749.505,-206.941 748.868,-213.912"/>
</g>
<!-- Node21&#45;&gt;Node6 -->
<g id="edge38" class="edge"><title>Node21&#45;&gt;Node6</title>
<path fill="none" stroke="midnightblue" d="M314.374,-128.733C303.927,-117.226 289.223,-101.028 278.277,-88.9707"/>
<polygon fill="midnightblue" stroke="midnightblue" points="280.711,-86.4448 271.398,-81.3932 275.528,-91.1499 280.711,-86.4448"/>
</g>
<!-- Node22&#45;&gt;Node2 -->
<g id="edge40" class="edge"><title>Node22&#45;&gt;Node2</title>
<path fill="none" stroke="midnightblue" d="M1096.64,-159.042C1089.3,-161.158 1081.62,-163.223 1074.32,-165 1001.56,-182.725 916.152,-198.336 861.317,-207.349"/>
<polygon fill="midnightblue" stroke="midnightblue" points="860.752,-203.895 851.444,-208.954 861.876,-210.804 860.752,-203.895"/>
</g>
<!-- Node23&#45;&gt;Node2 -->
<g id="edge42" class="edge"><title>Node23&#45;&gt;Node2</title>
<path fill="none" stroke="midnightblue" d="M1213.23,-164.55C1212.59,-164.704 1211.96,-164.854 1211.32,-165 1088.7,-193.281 940.874,-206.822 861.695,-212.325"/>
<polygon fill="midnightblue" stroke="midnightblue" points="861.194,-208.85 851.453,-213.018 861.667,-215.834 861.194,-208.85"/>
</g>
</g>
</svg>
