<?xml version="1.0" encoding="UTF-8" standalone="no"?>
<!DOCTYPE svg PUBLIC "-//W3C//DTD SVG 1.1//EN"
 "http://www.w3.org/Graphics/SVG/1.1/DTD/svg11.dtd">
<!-- Generated by graphviz version 2.38.0 (20140413.2041)
 -->
<!-- Title: include/client/mir_toolkit/mir_window_id.h Pages: 1 -->
<svg width="286pt" height="195pt"
 viewBox="0.00 0.00 286.00 195.00" xmlns="http://www.w3.org/2000/svg" xmlns:xlink="http://www.w3.org/1999/xlink">
<g id="graph0" class="graph" transform="scale(1 1) rotate(0) translate(4 191)">
<title>include/client/mir_toolkit/mir_window_id.h</title>
<polygon fill="white" stroke="none" points="-4,4 -4,-191 282,-191 282,4 -4,4"/>
<!-- Node24 -->
<g id="node1" class="node"><title>Node24</title>
<polygon fill="#bfbfbf" stroke="black" points="45,-156.5 45,-186.5 167,-186.5 167,-156.5 45,-156.5"/>
<text text-anchor="start" x="53" y="-174.5" font-family="Arial" font-size="10.00">include/client/mir</text>
<text text-anchor="middle" x="106" y="-163.5" font-family="Arial" font-size="10.00">_toolkit/mir_window_id.h</text>
</g>
<!-- Node25 -->
<g id="node2" class="node"><title>Node25</title>
<g id="a_node2"><a xlink:href="window__id_8h.html" target="_top" xlink:title="include/client/mir\l/client/window_id.h">
<polygon fill="white" stroke="black" points="0,-84 0,-114 98,-114 98,-84 0,-84"/>
<text text-anchor="start" x="8" y="-102" font-family="Arial" font-size="10.00">include/client/mir</text>
<text text-anchor="middle" x="49" y="-91" font-family="Arial" font-size="10.00">/client/window_id.h</text>
</a>
</g>
</g>
<!-- Node24&#45;&gt;Node25 -->
<g id="edge1" class="edge"><title>Node24&#45;&gt;Node25</title>
<path fill="none" stroke="midnightblue" d="M87.9804,-148.213C78.9948,-137.099 68.3942,-123.988 60.5176,-114.246"/>
<polygon fill="midnightblue" stroke="midnightblue" points="85.4562,-150.657 94.4652,-156.233 90.8997,-146.256 85.4562,-150.657"/>
</g>
<!-- Node26 -->
<g id="node3" class="node"><title>Node26</title>
<g id="a_node3"><a xlink:href="mir__client__library_8h.html" target="_top" xlink:title="include/client/mir\l_toolkit/mir_client\l_library.h">
<polygon fill="white" stroke="black" points="116.5,-78.5 116.5,-119.5 209.5,-119.5 209.5,-78.5 116.5,-78.5"/>
<text text-anchor="start" x="124.5" y="-107.5" font-family="Arial" font-size="10.00">include/client/mir</text>
<text text-anchor="start" x="124.5" y="-96.5" font-family="Arial" font-size="10.00">_toolkit/mir_client</text>
<text text-anchor="middle" x="163" y="-85.5" font-family="Arial" font-size="10.00">_library.h</text>
</a>
</g>
</g>
<!-- Node24&#45;&gt;Node26 -->
<g id="edge2" class="edge"><title>Node24&#45;&gt;Node26</title>
<path fill="none" stroke="midnightblue" d="M123.981,-148.26C131.418,-139.062 139.966,-128.489 147.163,-119.588"/>
<polygon fill="midnightblue" stroke="midnightblue" points="121.1,-146.256 117.535,-156.233 126.544,-150.657 121.1,-146.256"/>
</g>
<!-- Node27 -->
<g id="node4" class="node"><title>Node27</title>
<g id="a_node4"><a xlink:href="toolkit_2debug_2surface_8h.html" target="_top" xlink:title="include/client/mir\l_toolkit/debug/surface.h">
<polygon fill="white" stroke="black" points="38.5,-6 38.5,-36 159.5,-36 159.5,-6 38.5,-6"/>
<text text-anchor="start" x="46.5" y="-24" font-family="Arial" font-size="10.00">include/client/mir</text>
<text text-anchor="middle" x="99" y="-13" font-family="Arial" font-size="10.00">_toolkit/debug/surface.h</text>
</a>
</g>
</g>
<!-- Node26&#45;&gt;Node27 -->
<g id="edge3" class="edge"><title>Node26&#45;&gt;Node27</title>
<path fill="none" stroke="midnightblue" d="M139.972,-70.6539C130.16,-59.0022 119.124,-45.8967 110.979,-36.2254"/>
<polygon fill="midnightblue" stroke="midnightblue" points="137.4,-73.0335 146.518,-78.4281 142.754,-68.5245 137.4,-73.0335"/>
</g>
<!-- Node28 -->
<g id="node5" class="node"><title>Node28</title>
<g id="a_node5"><a xlink:href="mir__prompt__session_8h.html" target="_top" xlink:title="include/client/mir\l_toolkit/mir_prompt\l_session.h">
<polygon fill="white" stroke="black" points="178,-0.5 178,-41.5 278,-41.5 278,-0.5 178,-0.5"/>
<text text-anchor="start" x="186" y="-29.5" font-family="Arial" font-size="10.00">include/client/mir</text>
<text text-anchor="start" x="186" y="-18.5" font-family="Arial" font-size="10.00">_toolkit/mir_prompt</text>
<text text-anchor="middle" x="228" y="-7.5" font-family="Arial" font-size="10.00">_session.h</text>
</a>
</g>
</g>
<!-- Node26&#45;&gt;Node28 -->
<g id="edge4" class="edge"><title>Node26&#45;&gt;Node28</title>
<path fill="none" stroke="midnightblue" d="M186.411,-70.627C194.653,-60.9901 203.743,-50.3617 211.318,-41.5056"/>
<polygon fill="midnightblue" stroke="midnightblue" points="183.579,-68.5536 179.739,-78.4281 188.899,-73.1034 183.579,-68.5536"/>
</g>
</g>
</svg>
