<?xml version="1.0" encoding="UTF-8" standalone="no"?>
<!DOCTYPE svg PUBLIC "-//W3C//DTD SVG 1.1//EN"
 "http://www.w3.org/Graphics/SVG/1.1/DTD/svg11.dtd">
<!-- Generated by graphviz version 2.40.1 (20161225.0304)
 -->
<!-- Title: include/client/mir_toolkit/mir_window.h Pages: 1 -->
<svg width="616pt" height="262pt"
 viewBox="0.00 0.00 615.50 262.00" xmlns="http://www.w3.org/2000/svg" xmlns:xlink="http://www.w3.org/1999/xlink">
<g id="graph0" class="graph" transform="scale(1 1) rotate(0) translate(4 258)">
<title>include/client/mir_toolkit/mir_window.h</title>
<polygon fill="#ffffff" stroke="transparent" points="-4,4 -4,-258 611.5,-258 611.5,4 -4,4"/>
<!-- Node26 -->
<g id="node1" class="node">
<title>Node26</title>
<polygon fill="#bfbfbf" stroke="#000000" points="204,-223.5 204,-253.5 314,-253.5 314,-223.5 204,-223.5"/>
<text text-anchor="start" x="212" y="-241.5" font-family="Arial" font-size="10.00" fill="#000000">include/client/mir</text>
<text text-anchor="middle" x="259" y="-230.5" font-family="Arial" font-size="10.00" fill="#000000">_toolkit/mir_window.h</text>
</g>
<!-- Node27 -->
<g id="node2" class="node">
<title>Node27</title>
<g id="a_node2"><a xlink:href="client_2mir_2client_2window_8h.html" target="_top" xlink:title="include/client/mir\l/client/window.h">
<polygon fill="#ffffff" stroke="#000000" points="103,-151 103,-181 193,-181 193,-151 103,-151"/>
<text text-anchor="start" x="111" y="-169" font-family="Arial" font-size="10.00" fill="#000000">include/client/mir</text>
<text text-anchor="middle" x="148" y="-158" font-family="Arial" font-size="10.00" fill="#000000">/client/window.h</text>
</a>
</g>
</g>
<!-- Node26&#45;&gt;Node27 -->
<g id="edge1" class="edge">
<title>Node26&#45;&gt;Node27</title>
<path fill="none" stroke="#191970" d="M227.5398,-217.9517C209.5301,-206.1886 187.3342,-191.6913 170.9698,-181.0028"/>
<polygon fill="#191970" stroke="#191970" points="225.7144,-220.9398 236.0007,-223.478 229.5423,-215.0792 225.7144,-220.9398"/>
</g>
<!-- Node32 -->
<g id="node7" class="node">
<title>Node32</title>
<g id="a_node7"><a xlink:href="window__spec_8h.html" target="_top" xlink:title="include/client/mir\l/client/window_spec.h">
<polygon fill="#ffffff" stroke="#000000" points="92,-73 92,-103 204,-103 204,-73 92,-73"/>
<text text-anchor="start" x="100" y="-91" font-family="Arial" font-size="10.00" fill="#000000">include/client/mir</text>
<text text-anchor="middle" x="148" y="-80" font-family="Arial" font-size="10.00" fill="#000000">/client/window_spec.h</text>
</a>
</g>
</g>
<!-- Node26&#45;&gt;Node32 -->
<g id="edge10" class="edge">
<title>Node26&#45;&gt;Node32</title>
<path fill="none" stroke="#191970" d="M246.211,-214.477C235.432,-195.0372 219.0716,-167.3209 202,-145 190.4062,-129.8413 175.3432,-114.2153 164.0729,-103.1666"/>
<polygon fill="#191970" stroke="#191970" points="243.1644,-216.2005 251.0329,-223.2954 249.3062,-212.8422 243.1644,-216.2005"/>
</g>
<!-- Node33 -->
<g id="node8" class="node">
<title>Node33</title>
<g id="a_node8"><a xlink:href="window__id_8h.html" target="_top" xlink:title="include/client/mir\l/client/window_id.h">
<polygon fill="#ffffff" stroke="#000000" points="249,-151 249,-181 347,-181 347,-151 249,-151"/>
<text text-anchor="start" x="257" y="-169" font-family="Arial" font-size="10.00" fill="#000000">include/client/mir</text>
<text text-anchor="middle" x="298" y="-158" font-family="Arial" font-size="10.00" fill="#000000">/client/window_id.h</text>
</a>
</g>
</g>
<!-- Node26&#45;&gt;Node33 -->
<g id="edge9" class="edge">
<title>Node26&#45;&gt;Node33</title>
<path fill="none" stroke="#191970" d="M271.9925,-214.3473C277.9205,-203.3272 284.7548,-190.6224 289.9295,-181.0028"/>
<polygon fill="#191970" stroke="#191970" points="268.7359,-213.0132 267.0808,-223.478 274.9006,-216.3294 268.7359,-213.0132"/>
</g>
<!-- Node34 -->
<g id="node9" class="node">
<title>Node34</title>
<g id="a_node9"><a xlink:href="mir__client__library_8h.html" target="_top" xlink:title="include/client/mir\l_toolkit/mir_client\l_library.h">
<polygon fill="#ffffff" stroke="#000000" points="371.5,-145.5 371.5,-186.5 464.5,-186.5 464.5,-145.5 371.5,-145.5"/>
<text text-anchor="start" x="379.5" y="-174.5" font-family="Arial" font-size="10.00" fill="#000000">include/client/mir</text>
<text text-anchor="start" x="379.5" y="-163.5" font-family="Arial" font-size="10.00" fill="#000000">_toolkit/mir_client</text>
<text text-anchor="middle" x="418" y="-152.5" font-family="Arial" font-size="10.00" fill="#000000">_library.h</text>
</a>
</g>
</g>
<!-- Node26&#45;&gt;Node34 -->
<g id="edge11" class="edge">
<title>Node26&#45;&gt;Node34</title>
<path fill="none" stroke="#191970" d="M301.109,-219.2993C323.2749,-209.1923 350.4627,-196.7953 373.0381,-186.5015"/>
<polygon fill="#191970" stroke="#191970" points="299.5916,-216.1445 291.9449,-223.478 302.4958,-222.5137 299.5916,-216.1445"/>
</g>
<!-- Node28 -->
<g id="node3" class="node">
<title>Node28</title>
<g id="a_node3"><a xlink:href="decoration__provider_8h.html" target="_top" xlink:title="examples/example&#45;server\l&#45;lib/decoration_provider.h">
<polygon fill="#ffffff" stroke="#000000" points="222,-73 222,-103 350,-103 350,-73 222,-73"/>
<text text-anchor="start" x="230" y="-91" font-family="Arial" font-size="10.00" fill="#000000">examples/example&#45;server</text>
<text text-anchor="middle" x="286" y="-80" font-family="Arial" font-size="10.00" fill="#000000">&#45;lib/decoration_provider.h</text>
</a>
</g>
</g>
<!-- Node27&#45;&gt;Node28 -->
<g id="edge2" class="edge">
<title>Node27&#45;&gt;Node28</title>
<path fill="none" stroke="#191970" d="M183.5782,-145.8906C207.1029,-132.594 237.4613,-115.4349 259.003,-103.2592"/>
<polygon fill="#191970" stroke="#191970" points="181.5912,-142.9932 174.6078,-150.9608 185.0356,-149.0872 181.5912,-142.9932"/>
</g>
<!-- Node31 -->
<g id="node6" class="node">
<title>Node31</title>
<g id="a_node6"><a xlink:href="sw__splash_8cpp.html" target="_top" xlink:title="examples/example&#45;server\l&#45;lib/sw_splash.cpp">
<polygon fill="#ffffff" stroke="#000000" points="0,-.5 0,-30.5 128,-30.5 128,-.5 0,-.5"/>
<text text-anchor="start" x="8" y="-18.5" font-family="Arial" font-size="10.00" fill="#000000">examples/example&#45;server</text>
<text text-anchor="middle" x="64" y="-7.5" font-family="Arial" font-size="10.00" fill="#000000">&#45;lib/sw_splash.cpp</text>
</a>
</g>
</g>
<!-- Node27&#45;&gt;Node31 -->
<g id="edge5" class="edge">
<title>Node27&#45;&gt;Node31</title>
<path fill="none" stroke="#191970" d="M115.848,-144.7336C103.7955,-135.1854 91.0776,-122.9238 83,-109 68.6202,-84.2127 64.9987,-50.2274 64.1619,-30.7956"/>
<polygon fill="#191970" stroke="#191970" points="113.9291,-147.6702 124.0204,-150.8975 118.1442,-142.0816 113.9291,-147.6702"/>
</g>
<!-- Node27&#45;&gt;Node32 -->
<g id="edge6" class="edge">
<title>Node27&#45;&gt;Node32</title>
<path fill="none" stroke="#191970" d="M148,-140.7875C148,-128.4187 148,-113.9264 148,-103.2592"/>
<polygon fill="#191970" stroke="#191970" points="144.5001,-140.9608 148,-150.9608 151.5001,-140.9608 144.5001,-140.9608"/>
</g>
<!-- Node29 -->
<g id="node4" class="node">
<title>Node29</title>
<g id="a_node4"><a xlink:href="decoration__provider_8cpp.html" target="_top" xlink:title="examples/example&#45;server\l&#45;lib/decoration_provider.cpp">
<polygon fill="#ffffff" stroke="#000000" points="146,-.5 146,-30.5 282,-30.5 282,-.5 146,-.5"/>
<text text-anchor="start" x="154" y="-18.5" font-family="Arial" font-size="10.00" fill="#000000">examples/example&#45;server</text>
<text text-anchor="middle" x="214" y="-7.5" font-family="Arial" font-size="10.00" fill="#000000">&#45;lib/decoration_provider.cpp</text>
</a>
</g>
</g>
<!-- Node28&#45;&gt;Node29 -->
<g id="edge3" class="edge">
<title>Node28&#45;&gt;Node29</title>
<path fill="none" stroke="#191970" d="M263.9842,-65.8313C252.6104,-54.3785 239.0316,-40.7054 228.8993,-30.5028"/>
<polygon fill="#191970" stroke="#191970" points="261.5515,-68.3487 271.0816,-72.978 266.5184,-63.4161 261.5515,-68.3487"/>
</g>
<!-- Node30 -->
<g id="node5" class="node">
<title>Node30</title>
<g id="a_node5"><a xlink:href="floating__window__manager_8cpp.html" target="_top" xlink:title="examples/example&#45;server\l&#45;lib/floating_window_manager.cpp">
<polygon fill="#ffffff" stroke="#000000" points="300,-.5 300,-30.5 462,-30.5 462,-.5 300,-.5"/>
<text text-anchor="start" x="308" y="-18.5" font-family="Arial" font-size="10.00" fill="#000000">examples/example&#45;server</text>
<text text-anchor="middle" x="381" y="-7.5" font-family="Arial" font-size="10.00" fill="#000000">&#45;lib/floating_window_manager.cpp</text>
</a>
</g>
</g>
<!-- Node28&#45;&gt;Node30 -->
<g id="edge4" class="edge">
<title>Node28&#45;&gt;Node30</title>
<path fill="none" stroke="#191970" d="M313.7697,-66.8074C329.0282,-55.1627 347.5902,-40.9969 361.3412,-30.5028"/>
<polygon fill="#191970" stroke="#191970" points="311.5102,-64.1288 305.6841,-72.978 315.757,-69.6935 311.5102,-64.1288"/>
</g>
<!-- Node32&#45;&gt;Node29 -->
<g id="edge7" class="edge">
<title>Node32&#45;&gt;Node29</title>
<path fill="none" stroke="#191970" d="M168.4796,-65.5035C178.8439,-54.1184 191.1428,-40.6083 200.3423,-30.5028"/>
<polygon fill="#191970" stroke="#191970" points="165.8189,-63.227 161.6752,-72.978 170.9953,-67.9393 165.8189,-63.227"/>
</g>
<!-- Node32&#45;&gt;Node31 -->
<g id="edge8" class="edge">
<title>Node32&#45;&gt;Node31</title>
<path fill="none" stroke="#191970" d="M122.6933,-66.1579C109.3476,-54.6393 93.3161,-40.8026 81.3826,-30.5028"/>
<polygon fill="#191970" stroke="#191970" points="120.738,-69.0937 130.5951,-72.978 125.3117,-63.7945 120.738,-69.0937"/>
</g>
<!-- Node35 -->
<g id="node10" class="node">
<title>Node35</title>
<g id="a_node10"><a xlink:href="toolkit_2debug_2surface_8h.html" target="_top" xlink:title="include/client/mir\l_toolkit/debug/surface.h">
<polygon fill="#ffffff" stroke="#000000" points="486.5,-73 486.5,-103 607.5,-103 607.5,-73 486.5,-73"/>
<text text-anchor="start" x="494.5" y="-91" font-family="Arial" font-size="10.00" fill="#000000">include/client/mir</text>
<text text-anchor="middle" x="547" y="-80" font-family="Arial" font-size="10.00" fill="#000000">_toolkit/debug/surface.h</text>
</a>
</g>
</g>
<!-- Node34&#45;&gt;Node35 -->
<g id="edge12" class="edge">
<title>Node34&#45;&gt;Node35</title>
<path fill="none" stroke="#191970" d="M460.9884,-140.007C481.257,-127.7516 504.726,-113.561 522.0236,-103.102"/>
<polygon fill="#191970" stroke="#191970" points="458.9773,-137.1329 452.231,-145.3022 462.5993,-143.123 458.9773,-137.1329"/>
</g>
<!-- Node36 -->
<g id="node11" class="node">
<title>Node36</title>
<g id="a_node11"><a xlink:href="mir__prompt__session_8h.html" target="_top" xlink:title="include/client/mir\l_toolkit/mir_prompt\l_session.h">
<polygon fill="#ffffff" stroke="#000000" points="368,-67.5 368,-108.5 468,-108.5 468,-67.5 368,-67.5"/>
<text text-anchor="start" x="376" y="-96.5" font-family="Arial" font-size="10.00" fill="#000000">include/client/mir</text>
<text text-anchor="start" x="376" y="-85.5" font-family="Arial" font-size="10.00" fill="#000000">_toolkit/mir_prompt</text>
<text text-anchor="middle" x="418" y="-74.5" font-family="Arial" font-size="10.00" fill="#000000">_session.h</text>
</a>
</g>
</g>
<!-- Node34&#45;&gt;Node36 -->
<g id="edge13" class="edge">
<title>Node34&#45;&gt;Node36</title>
<path fill="none" stroke="#191970" d="M418,-135.0789C418,-126.2178 418,-116.7747 418,-108.6898"/>
<polygon fill="#191970" stroke="#191970" points="414.5001,-135.0974 418,-145.0974 421.5001,-135.0975 414.5001,-135.0974"/>
</g>
</g>
</svg>
