<?xml version="1.0" encoding="UTF-8" standalone="no"?>
<!DOCTYPE svg PUBLIC "-//W3C//DTD SVG 1.1//EN"
 "http://www.w3.org/Graphics/SVG/1.1/DTD/svg11.dtd">
<!-- Generated by graphviz version 2.38.0 (20140413.2041)
 -->
<!-- Title: include/client/mir_toolkit/mir_display_configuration.h Pages: 1 -->
<svg width="548pt" height="206pt"
 viewBox="0.00 0.00 548.00 206.00" xmlns="http://www.w3.org/2000/svg" xmlns:xlink="http://www.w3.org/1999/xlink">
<g id="graph0" class="graph" transform="scale(1 1) rotate(0) translate(4 202)">
<title>include/client/mir_toolkit/mir_display_configuration.h</title>
<polygon fill="white" stroke="none" points="-4,4 -4,-202 544,-202 544,4 -4,4"/>
<!-- Node24 -->
<g id="node1" class="node"><title>Node24</title>
<polygon fill="#bfbfbf" stroke="black" points="238.5,-156.5 238.5,-197.5 339.5,-197.5 339.5,-156.5 238.5,-156.5"/>
<text text-anchor="start" x="246.5" y="-185.5" font-family="Arial" font-size="10.00">include/client/mir</text>
<text text-anchor="start" x="246.5" y="-174.5" font-family="Arial" font-size="10.00">_toolkit/mir_display</text>
<text text-anchor="middle" x="289" y="-163.5" font-family="Arial" font-size="10.00">_configuration.h</text>
</g>
<!-- Node25 -->
<g id="node2" class="node"><title>Node25</title>
<g id="a_node2"><a xlink:href="display__config_8h.html" target="_top" xlink:title="include/client/mir\l/client/display_config.h">
<polygon fill="white" stroke="black" points="160,-84 160,-114 276,-114 276,-84 160,-84"/>
<text text-anchor="start" x="168" y="-102" font-family="Arial" font-size="10.00">include/client/mir</text>
<text text-anchor="middle" x="218" y="-91" font-family="Arial" font-size="10.00">/client/display_config.h</text>
</a>
</g>
</g>
<!-- Node24&#45;&gt;Node25 -->
<g id="edge1" class="edge"><title>Node24&#45;&gt;Node25</title>
<path fill="none" stroke="midnightblue" d="M263.767,-148.99C252.804,-137.255 240.411,-123.99 231.289,-114.225"/>
<polygon fill="midnightblue" stroke="midnightblue" points="261.332,-151.51 270.716,-156.428 266.447,-146.731 261.332,-151.51"/>
</g>
<!-- Node28 -->
<g id="node5" class="node"><title>Node28</title>
<g id="a_node5"><a xlink:href="mir__client__library_8h.html" target="_top" xlink:title="include/client/mir\l_toolkit/mir_client\l_library.h">
<polygon fill="white" stroke="black" points="314.5,-78.5 314.5,-119.5 407.5,-119.5 407.5,-78.5 314.5,-78.5"/>
<text text-anchor="start" x="322.5" y="-107.5" font-family="Arial" font-size="10.00">include/client/mir</text>
<text text-anchor="start" x="322.5" y="-96.5" font-family="Arial" font-size="10.00">_toolkit/mir_client</text>
<text text-anchor="middle" x="361" y="-85.5" font-family="Arial" font-size="10.00">_library.h</text>
</a>
</g>
</g>
<!-- Node24&#45;&gt;Node28 -->
<g id="edge4" class="edge"><title>Node24&#45;&gt;Node28</title>
<path fill="none" stroke="midnightblue" d="M314.659,-148.916C323.86,-139.203 334.047,-128.45 342.521,-119.506"/>
<polygon fill="midnightblue" stroke="midnightblue" points="311.878,-146.761 307.542,-156.428 316.96,-151.576 311.878,-146.761"/>
</g>
<!-- Node26 -->
<g id="node3" class="node"><title>Node26</title>
<g id="a_node3"><a xlink:href="decoration__provider_8cpp.html" target="_top" xlink:title="examples/example&#45;server\l&#45;lib/decoration_provider.cpp">
<polygon fill="white" stroke="black" points="0,-6 0,-36 136,-36 136,-6 0,-6"/>
<text text-anchor="start" x="8" y="-24" font-family="Arial" font-size="10.00">examples/example&#45;server</text>
<text text-anchor="middle" x="68" y="-13" font-family="Arial" font-size="10.00">&#45;lib/decoration_provider.cpp</text>
</a>
</g>
</g>
<!-- Node25&#45;&gt;Node26 -->
<g id="edge2" class="edge"><title>Node25&#45;&gt;Node26</title>
<path fill="none" stroke="midnightblue" d="M181.19,-79.3494C154.786,-65.9714 119.769,-48.2295 95.7131,-36.0413"/>
<polygon fill="midnightblue" stroke="midnightblue" points="179.635,-82.4855 190.138,-83.8831 182.799,-76.2413 179.635,-82.4855"/>
</g>
<!-- Node27 -->
<g id="node4" class="node"><title>Node27</title>
<g id="a_node4"><a xlink:href="sw__splash_8cpp.html" target="_top" xlink:title="examples/example&#45;server\l&#45;lib/sw_splash.cpp">
<polygon fill="white" stroke="black" points="154,-6 154,-36 282,-36 282,-6 154,-6"/>
<text text-anchor="start" x="162" y="-24" font-family="Arial" font-size="10.00">examples/example&#45;server</text>
<text text-anchor="middle" x="218" y="-13" font-family="Arial" font-size="10.00">&#45;lib/sw_splash.cpp</text>
</a>
</g>
</g>
<!-- Node25&#45;&gt;Node27 -->
<g id="edge3" class="edge"><title>Node25&#45;&gt;Node27</title>
<path fill="none" stroke="midnightblue" d="M218,-73.5898C218,-61.2565 218,-46.7237 218,-36.2309"/>
<polygon fill="midnightblue" stroke="midnightblue" points="214.5,-73.7049 218,-83.705 221.5,-73.705 214.5,-73.7049"/>
</g>
<!-- Node29 -->
<g id="node6" class="node"><title>Node29</title>
<g id="a_node6"><a xlink:href="toolkit_2debug_2surface_8h.html" target="_top" xlink:title="include/client/mir\l_toolkit/debug/surface.h">
<polygon fill="white" stroke="black" points="300.5,-6 300.5,-36 421.5,-36 421.5,-6 300.5,-6"/>
<text text-anchor="start" x="308.5" y="-24" font-family="Arial" font-size="10.00">include/client/mir</text>
<text text-anchor="middle" x="361" y="-13" font-family="Arial" font-size="10.00">_toolkit/debug/surface.h</text>
</a>
</g>
</g>
<!-- Node28&#45;&gt;Node29 -->
<g id="edge5" class="edge"><title>Node28&#45;&gt;Node29</title>
<path fill="none" stroke="midnightblue" d="M361,-68.2829C361,-57.2536 361,-45.2457 361,-36.2254"/>
<polygon fill="midnightblue" stroke="midnightblue" points="357.5,-68.4281 361,-78.4281 364.5,-68.4281 357.5,-68.4281"/>
</g>
<!-- Node30 -->
<g id="node7" class="node"><title>Node30</title>
<g id="a_node7"><a xlink:href="mir__prompt__session_8h.html" target="_top" xlink:title="include/client/mir\l_toolkit/mir_prompt\l_session.h">
<polygon fill="white" stroke="black" points="440,-0.5 440,-41.5 540,-41.5 540,-0.5 440,-0.5"/>
<text text-anchor="start" x="448" y="-29.5" font-family="Arial" font-size="10.00">include/client/mir</text>
<text text-anchor="start" x="448" y="-18.5" font-family="Arial" font-size="10.00">_toolkit/mir_prompt</text>
<text text-anchor="middle" x="490" y="-7.5" font-family="Arial" font-size="10.00">_session.h</text>
</a>
</g>
</g>
<!-- Node28&#45;&gt;Node30 -->
<g id="edge6" class="edge"><title>Node28&#45;&gt;Node30</title>
<path fill="none" stroke="midnightblue" d="M403.09,-73.2029C420.548,-62.9176 440.507,-51.1587 456.892,-41.5056"/>
<polygon fill="midnightblue" stroke="midnightblue" points="401.06,-70.3365 394.221,-78.4281 404.613,-76.3676 401.06,-70.3365"/>
</g>
</g>
</svg>
