<?xml version="1.0" encoding="UTF-8" standalone="no"?>
<!DOCTYPE svg PUBLIC "-//W3C//DTD SVG 1.1//EN"
 "http://www.w3.org/Graphics/SVG/1.1/DTD/svg11.dtd">
<!-- Generated by graphviz version 2.40.1 (20161225.0304)
 -->
<!-- Title: include/miral/miral/window.h Pages: 1 -->
<svg width="495pt" height="207pt"
 viewBox="0.00 0.00 495.00 207.00" xmlns="http://www.w3.org/2000/svg" xmlns:xlink="http://www.w3.org/1999/xlink">
<g id="graph0" class="graph" transform="scale(1 1) rotate(0) translate(4 203)">
<title>include/miral/miral/window.h</title>
<polygon fill="#ffffff" stroke="transparent" points="-4,4 -4,-203 491,-203 491,4 -4,4"/>
<!-- Node0 -->
<g id="node1" class="node">
<title>Node0</title>
<polygon fill="#bfbfbf" stroke="#000000" points="223.5,-168.5 223.5,-198.5 318.5,-198.5 318.5,-168.5 223.5,-168.5"/>
<text text-anchor="start" x="231.5" y="-186.5" font-family="Arial" font-size="10.00" fill="#000000">include/miral/miral</text>
<text text-anchor="middle" x="271" y="-175.5" font-family="Arial" font-size="10.00" fill="#000000">/window.h</text>
</g>
<!-- Node1 -->
<g id="node2" class="node">
<title>Node1</title>
<g id="a_node2"><a xlink:href="application_8h.html" target="_top" xlink:title="miral/application.h">
<polygon fill="#ffffff" stroke="#000000" points="107.5,-112.5 107.5,-131.5 202.5,-131.5 202.5,-112.5 107.5,-112.5"/>
<text text-anchor="middle" x="155" y="-119.5" font-family="Arial" font-size="10.00" fill="#000000">miral/application.h</text>
</a>
</g>
</g>
<!-- Node0&#45;&gt;Node1 -->
<g id="edge1" class="edge">
<title>Node0&#45;&gt;Node1</title>
<path fill="none" stroke="#191970" d="M242.6232,-168.4554C224.1172,-158.644 200.1112,-145.9167 181.9069,-136.2653"/>
<polygon fill="#191970" stroke="#191970" points="183.4505,-133.1222 172.9759,-131.5303 180.1715,-139.3068 183.4505,-133.1222"/>
</g>
<!-- Node4 -->
<g id="node5" class="node">
<title>Node4</title>
<polygon fill="#ffffff" stroke="#bfbfbf" points="202,-56.5 202,-75.5 254,-75.5 254,-56.5 202,-56.5"/>
<text text-anchor="middle" x="228" y="-63.5" font-family="Arial" font-size="10.00" fill="#000000">memory</text>
</g>
<!-- Node0&#45;&gt;Node4 -->
<g id="edge14" class="edge">
<title>Node0&#45;&gt;Node4</title>
<path fill="none" stroke="#191970" d="M264.4876,-168.279C260.1998,-158.0804 254.5579,-144.3154 250,-132 244.3012,-116.602 238.4513,-98.947 234.2177,-85.7737"/>
<polygon fill="#191970" stroke="#191970" points="237.4469,-84.3788 231.0804,-75.9102 230.7762,-86.5007 237.4469,-84.3788"/>
</g>
<!-- Node6 -->
<g id="node7" class="node">
<title>Node6</title>
<g id="a_node7"><a xlink:href="point_8h.html" target="_top" xlink:title="mir/geometry/point.h">
<polygon fill="#ffffff" stroke="#000000" points="381,-112.5 381,-131.5 487,-131.5 487,-112.5 381,-112.5"/>
<text text-anchor="middle" x="434" y="-119.5" font-family="Arial" font-size="10.00" fill="#000000">mir/geometry/point.h</text>
</a>
</g>
</g>
<!-- Node0&#45;&gt;Node6 -->
<g id="edge6" class="edge">
<title>Node0&#45;&gt;Node6</title>
<path fill="none" stroke="#191970" d="M310.8743,-168.4554C337.952,-158.239 373.4094,-144.8609 399.3166,-135.0861"/>
<polygon fill="#191970" stroke="#191970" points="400.6201,-138.3352 408.7408,-131.5303 398.149,-131.7858 400.6201,-138.3352"/>
</g>
<!-- Node10 -->
<g id="node11" class="node">
<title>Node10</title>
<g id="a_node11"><a xlink:href="size_8h.html" target="_top" xlink:title="mir/geometry/size.h">
<polygon fill="#ffffff" stroke="#000000" points="259.5,-112.5 259.5,-131.5 362.5,-131.5 362.5,-112.5 259.5,-112.5"/>
<text text-anchor="middle" x="311" y="-119.5" font-family="Arial" font-size="10.00" fill="#000000">mir/geometry/size.h</text>
</a>
</g>
</g>
<!-- Node0&#45;&gt;Node10 -->
<g id="edge11" class="edge">
<title>Node0&#45;&gt;Node10</title>
<path fill="none" stroke="#191970" d="M280.8876,-168.2977C286.3822,-159.8498 293.2586,-149.2773 299.0527,-140.369"/>
<polygon fill="#191970" stroke="#191970" points="302.0772,-142.1381 304.5955,-131.8469 296.2092,-138.3215 302.0772,-142.1381"/>
</g>
<!-- Node2 -->
<g id="node3" class="node">
<title>Node2</title>
<g id="a_node3"><a xlink:href="common_8h.html" target="_top" xlink:title="mir_toolkit/common.h">
<polygon fill="#ffffff" stroke="#000000" points="9,-56.5 9,-75.5 119,-75.5 119,-56.5 9,-56.5"/>
<text text-anchor="middle" x="64" y="-63.5" font-family="Arial" font-size="10.00" fill="#000000">mir_toolkit/common.h</text>
</a>
</g>
</g>
<!-- Node1&#45;&gt;Node2 -->
<g id="edge2" class="edge">
<title>Node1&#45;&gt;Node2</title>
<path fill="none" stroke="#191970" d="M139.149,-112.2455C125.1868,-103.6534 104.6272,-91.0014 88.5404,-81.1018"/>
<polygon fill="#191970" stroke="#191970" points="90.0203,-77.9029 79.6693,-75.6427 86.3516,-83.8645 90.0203,-77.9029"/>
</g>
<!-- Node1&#45;&gt;Node4 -->
<g id="edge4" class="edge">
<title>Node1&#45;&gt;Node4</title>
<path fill="none" stroke="#191970" d="M167.7156,-112.2455C178.602,-103.8943 194.4883,-91.7076 207.22,-81.9408"/>
<polygon fill="#191970" stroke="#191970" points="209.6261,-84.5063 215.4301,-75.6427 205.3654,-78.9523 209.6261,-84.5063"/>
</g>
<!-- Node5 -->
<g id="node6" class="node">
<title>Node5</title>
<polygon fill="#ffffff" stroke="#bfbfbf" points="137.5,-56.5 137.5,-75.5 178.5,-75.5 178.5,-56.5 137.5,-56.5"/>
<text text-anchor="middle" x="158" y="-63.5" font-family="Arial" font-size="10.00" fill="#000000">string</text>
</g>
<!-- Node1&#45;&gt;Node5 -->
<g id="edge5" class="edge">
<title>Node1&#45;&gt;Node5</title>
<path fill="none" stroke="#191970" d="M155.5226,-112.2455C155.914,-104.9382 156.4628,-94.6944 156.9444,-85.7046"/>
<polygon fill="#191970" stroke="#191970" points="160.4434,-85.8156 157.4834,-75.6427 153.4534,-85.4411 160.4434,-85.8156"/>
</g>
<!-- Node3 -->
<g id="node4" class="node">
<title>Node3</title>
<g id="a_node4"><a xlink:href="deprecations_8h.html" target="_top" xlink:title="mir_toolkit/deprecations.h">
<polygon fill="#ffffff" stroke="#000000" points="0,-.5 0,-19.5 128,-19.5 128,-.5 0,-.5"/>
<text text-anchor="middle" x="64" y="-7.5" font-family="Arial" font-size="10.00" fill="#000000">mir_toolkit/deprecations.h</text>
</a>
</g>
</g>
<!-- Node2&#45;&gt;Node3 -->
<g id="edge3" class="edge">
<title>Node2&#45;&gt;Node3</title>
<path fill="none" stroke="#191970" d="M64,-56.2455C64,-48.9382 64,-38.6944 64,-29.7046"/>
<polygon fill="#191970" stroke="#191970" points="67.5001,-29.6426 64,-19.6427 60.5001,-29.6427 67.5001,-29.6426"/>
</g>
<!-- Node7 -->
<g id="node8" class="node">
<title>Node7</title>
<g id="a_node8"><a xlink:href="dimensions_8h.html" target="_top" xlink:title="dimensions.h">
<polygon fill="#ffffff" stroke="#000000" points="336,-56.5 336,-75.5 410,-75.5 410,-56.5 336,-56.5"/>
<text text-anchor="middle" x="373" y="-63.5" font-family="Arial" font-size="10.00" fill="#000000">dimensions.h</text>
</a>
</g>
</g>
<!-- Node6&#45;&gt;Node7 -->
<g id="edge7" class="edge">
<title>Node6&#45;&gt;Node7</title>
<path fill="none" stroke="#191970" d="M423.3746,-112.2455C414.4527,-104.0549 401.512,-92.1749 390.9808,-82.5069"/>
<polygon fill="#191970" stroke="#191970" points="393.2371,-79.8271 383.5036,-75.6427 388.5032,-84.9837 393.2371,-79.8271"/>
</g>
<!-- Node9 -->
<g id="node10" class="node">
<title>Node9</title>
<polygon fill="#ffffff" stroke="#bfbfbf" points="382,-.5 382,-19.5 426,-19.5 426,-.5 382,-.5"/>
<text text-anchor="middle" x="404" y="-7.5" font-family="Arial" font-size="10.00" fill="#000000">iosfwd</text>
</g>
<!-- Node6&#45;&gt;Node9 -->
<g id="edge10" class="edge">
<title>Node6&#45;&gt;Node9</title>
<path fill="none" stroke="#191970" d="M432.0436,-112.0896C429.4151,-99.1163 424.4407,-75.7088 419,-56 416.5755,-47.2172 413.5126,-37.6188 410.7876,-29.4727"/>
<polygon fill="#191970" stroke="#191970" points="414.0256,-28.1239 407.4821,-19.7913 407.401,-30.3858 414.0256,-28.1239"/>
</g>
<!-- Node8 -->
<g id="node9" class="node">
<title>Node8</title>
<polygon fill="#ffffff" stroke="#bfbfbf" points="318,-.5 318,-19.5 364,-19.5 364,-.5 318,-.5"/>
<text text-anchor="middle" x="341" y="-7.5" font-family="Arial" font-size="10.00" fill="#000000">cstdint</text>
</g>
<!-- Node7&#45;&gt;Node8 -->
<g id="edge8" class="edge">
<title>Node7&#45;&gt;Node8</title>
<path fill="none" stroke="#191970" d="M367.426,-56.2455C363.0669,-48.617 356.8789,-37.7881 351.5867,-28.5267"/>
<polygon fill="#191970" stroke="#191970" points="354.5104,-26.5886 346.5101,-19.6427 348.4327,-30.0616 354.5104,-26.5886"/>
</g>
<!-- Node7&#45;&gt;Node9 -->
<g id="edge9" class="edge">
<title>Node7&#45;&gt;Node9</title>
<path fill="none" stroke="#191970" d="M378.3998,-56.2455C382.6227,-48.617 388.6173,-37.7881 393.7441,-28.5267"/>
<polygon fill="#191970" stroke="#191970" points="396.881,-30.0867 398.6621,-19.6427 390.7568,-26.6965 396.881,-30.0867"/>
</g>
<!-- Node10&#45;&gt;Node7 -->
<g id="edge12" class="edge">
<title>Node10&#45;&gt;Node7</title>
<path fill="none" stroke="#191970" d="M321.7996,-112.2455C330.8678,-104.0549 344.0206,-92.1749 354.7245,-82.5069"/>
<polygon fill="#191970" stroke="#191970" points="357.2491,-84.9429 362.3242,-75.6427 352.5571,-79.7482 357.2491,-84.9429"/>
</g>
<!-- Node10&#45;&gt;Node9 -->
<g id="edge13" class="edge">
<title>Node10&#45;&gt;Node9</title>
<path fill="none" stroke="#191970" d="M311.0836,-112.0578C311.678,-98.2037 314.5502,-72.8949 327,-56 338.3219,-40.6357 356.4521,-29.4393 372.2764,-21.9417"/>
<polygon fill="#191970" stroke="#191970" points="374.0231,-24.9961 381.7498,-17.7471 371.189,-18.5954 374.0231,-24.9961"/>
</g>
</g>
</svg>
