<?xml version="1.0" encoding="UTF-8" standalone="no"?>
<!DOCTYPE svg PUBLIC "-//W3C//DTD SVG 1.1//EN"
 "http://www.w3.org/Graphics/SVG/1.1/DTD/svg11.dtd">
<!-- Generated by graphviz version 2.38.0 (20140413.2041)
 -->
<!-- Title: include/miral/miral/window.h Pages: 1 -->
<svg width="495pt" height="207pt"
 viewBox="0.00 0.00 495.00 207.00" xmlns="http://www.w3.org/2000/svg" xmlns:xlink="http://www.w3.org/1999/xlink">
<g id="graph0" class="graph" transform="scale(1 1) rotate(0) translate(4 203)">
<title>include/miral/miral/window.h</title>
<polygon fill="white" stroke="none" points="-4,4 -4,-203 491,-203 491,4 -4,4"/>
<!-- Node0 -->
<g id="node1" class="node"><title>Node0</title>
<polygon fill="#bfbfbf" stroke="black" points="223.5,-168.5 223.5,-198.5 318.5,-198.5 318.5,-168.5 223.5,-168.5"/>
<text text-anchor="start" x="231.5" y="-186.5" font-family="Arial" font-size="10.00">include/miral/miral</text>
<text text-anchor="middle" x="271" y="-175.5" font-family="Arial" font-size="10.00">/window.h</text>
</g>
<!-- Node1 -->
<g id="node2" class="node"><title>Node1</title>
<g id="a_node2"><a xlink:href="application_8h.html" target="_top" xlink:title="miral/application.h">
<polygon fill="white" stroke="black" points="107.5,-112.5 107.5,-131.5 202.5,-131.5 202.5,-112.5 107.5,-112.5"/>
<text text-anchor="middle" x="155" y="-119.5" font-family="Arial" font-size="10.00">miral/application.h</text>
</a>
</g>
</g>
<!-- Node0&#45;&gt;Node1 -->
<g id="edge1" class="edge"><title>Node0&#45;&gt;Node1</title>
<path fill="none" stroke="midnightblue" d="M243.51,-168.399C224.568,-158.684 199.558,-145.855 180.956,-136.314"/>
<polygon fill="midnightblue" stroke="midnightblue" points="182.374,-133.108 171.879,-131.658 179.179,-139.336 182.374,-133.108"/>
</g>
<!-- Node4 -->
<g id="node5" class="node"><title>Node4</title>
<polygon fill="white" stroke="#bfbfbf" points="202,-56.5 202,-75.5 254,-75.5 254,-56.5 202,-56.5"/>
<text text-anchor="middle" x="228" y="-63.5" font-family="Arial" font-size="10.00">memory</text>
</g>
<!-- Node0&#45;&gt;Node4 -->
<g id="edge14" class="edge"><title>Node0&#45;&gt;Node4</title>
<path fill="none" stroke="midnightblue" d="M264.858,-168.453C260.527,-158.377 254.686,-144.44 250,-132 244.16,-116.496 238.173,-98.6557 233.922,-85.5923"/>
<polygon fill="midnightblue" stroke="midnightblue" points="237.197,-84.3446 230.801,-75.8987 230.534,-86.4902 237.197,-84.3446"/>
</g>
<!-- Node6 -->
<g id="node7" class="node"><title>Node6</title>
<g id="a_node7"><a xlink:href="point_8h.html" target="_top" xlink:title="mir/geometry/point.h">
<polygon fill="white" stroke="black" points="381,-112.5 381,-131.5 487,-131.5 487,-112.5 381,-112.5"/>
<text text-anchor="middle" x="434" y="-119.5" font-family="Arial" font-size="10.00">mir/geometry/point.h</text>
</a>
</g>
</g>
<!-- Node0&#45;&gt;Node6 -->
<g id="edge6" class="edge"><title>Node0&#45;&gt;Node6</title>
<path fill="none" stroke="midnightblue" d="M309.629,-168.399C337.344,-158.283 374.305,-144.791 400.717,-135.149"/>
<polygon fill="midnightblue" stroke="midnightblue" points="402.089,-138.375 410.282,-131.658 399.688,-131.799 402.089,-138.375"/>
</g>
<!-- Node10 -->
<g id="node11" class="node"><title>Node10</title>
<g id="a_node11"><a xlink:href="size_8h.html" target="_top" xlink:title="mir/geometry/size.h">
<polygon fill="white" stroke="black" points="259.5,-112.5 259.5,-131.5 362.5,-131.5 362.5,-112.5 259.5,-112.5"/>
<text text-anchor="middle" x="311" y="-119.5" font-family="Arial" font-size="10.00">mir/geometry/size.h</text>
</a>
</g>
</g>
<!-- Node0&#45;&gt;Node10 -->
<g id="edge11" class="edge"><title>Node0&#45;&gt;Node10</title>
<path fill="none" stroke="midnightblue" d="M280.479,-168.399C286.172,-159.932 293.454,-149.099 299.478,-140.139"/>
<polygon fill="midnightblue" stroke="midnightblue" points="302.505,-141.909 305.18,-131.658 296.696,-138.004 302.505,-141.909"/>
</g>
<!-- Node2 -->
<g id="node3" class="node"><title>Node2</title>
<g id="a_node3"><a xlink:href="common_8h.html" target="_top" xlink:title="mir_toolkit/common.h">
<polygon fill="white" stroke="black" points="9,-56.5 9,-75.5 119,-75.5 119,-56.5 9,-56.5"/>
<text text-anchor="middle" x="64" y="-63.5" font-family="Arial" font-size="10.00">mir_toolkit/common.h</text>
</a>
</g>
</g>
<!-- Node1&#45;&gt;Node2 -->
<g id="edge2" class="edge"><title>Node1&#45;&gt;Node2</title>
<path fill="none" stroke="midnightblue" d="M140.379,-112.324C126.051,-103.822 103.987,-90.7288 87.2513,-80.7975"/>
<polygon fill="midnightblue" stroke="midnightblue" points="88.9704,-77.7478 78.5844,-75.6545 85.3982,-83.7677 88.9704,-77.7478"/>
</g>
<!-- Node1&#45;&gt;Node4 -->
<g id="edge4" class="edge"><title>Node1&#45;&gt;Node4</title>
<path fill="none" stroke="midnightblue" d="M166.729,-112.324C177.837,-104.107 194.742,-91.6017 207.983,-81.8069"/>
<polygon fill="midnightblue" stroke="midnightblue" points="210.1,-84.5948 216.058,-75.8339 205.937,-78.9671 210.1,-84.5948"/>
</g>
<!-- Node5 -->
<g id="node6" class="node"><title>Node5</title>
<polygon fill="white" stroke="#bfbfbf" points="137.5,-56.5 137.5,-75.5 178.5,-75.5 178.5,-56.5 137.5,-56.5"/>
<text text-anchor="middle" x="158" y="-63.5" font-family="Arial" font-size="10.00">string</text>
</g>
<!-- Node1&#45;&gt;Node5 -->
<g id="edge5" class="edge"><title>Node1&#45;&gt;Node5</title>
<path fill="none" stroke="midnightblue" d="M155.495,-112.083C155.889,-105.006 156.452,-94.8611 156.945,-85.9865"/>
<polygon fill="midnightblue" stroke="midnightblue" points="160.454,-85.9299 157.514,-75.7511 153.464,-85.5415 160.454,-85.9299"/>
</g>
<!-- Node3 -->
<g id="node4" class="node"><title>Node3</title>
<g id="a_node4"><a xlink:href="deprecations_8h.html" target="_top" xlink:title="mir_toolkit/deprecations.h">
<polygon fill="white" stroke="black" points="0,-0.5 0,-19.5 128,-19.5 128,-0.5 0,-0.5"/>
<text text-anchor="middle" x="64" y="-7.5" font-family="Arial" font-size="10.00">mir_toolkit/deprecations.h</text>
</a>
</g>
</g>
<!-- Node2&#45;&gt;Node3 -->
<g id="edge3" class="edge"><title>Node2&#45;&gt;Node3</title>
<path fill="none" stroke="midnightblue" d="M64,-56.083C64,-49.0059 64,-38.8611 64,-29.9865"/>
<polygon fill="midnightblue" stroke="midnightblue" points="67.5001,-29.751 64,-19.7511 60.5001,-29.7511 67.5001,-29.751"/>
</g>
<!-- Node7 -->
<g id="node8" class="node"><title>Node7</title>
<g id="a_node8"><a xlink:href="dimensions_8h.html" target="_top" xlink:title="dimensions.h">
<polygon fill="white" stroke="black" points="335,-56.5 335,-75.5 409,-75.5 409,-56.5 335,-56.5"/>
<text text-anchor="middle" x="372" y="-63.5" font-family="Arial" font-size="10.00">dimensions.h</text>
</a>
</g>
</g>
<!-- Node6&#45;&gt;Node7 -->
<g id="edge7" class="edge"><title>Node6&#45;&gt;Node7</title>
<path fill="none" stroke="midnightblue" d="M424.039,-112.324C414.873,-104.341 401.063,-92.3128 389.972,-82.6529"/>
<polygon fill="midnightblue" stroke="midnightblue" points="391.982,-79.7624 382.143,-75.8339 387.385,-85.041 391.982,-79.7624"/>
</g>
<!-- Node9 -->
<g id="node10" class="node"><title>Node9</title>
<polygon fill="white" stroke="#bfbfbf" points="381,-0.5 381,-19.5 425,-19.5 425,-0.5 381,-0.5"/>
<text text-anchor="middle" x="403" y="-7.5" font-family="Arial" font-size="10.00">iosfwd</text>
</g>
<!-- Node6&#45;&gt;Node9 -->
<g id="edge10" class="edge"><title>Node6&#45;&gt;Node9</title>
<path fill="none" stroke="midnightblue" d="M432.05,-112.109C429.238,-99.5343 423.748,-75.8719 418,-56 415.423,-47.0892 412.209,-37.3078 409.419,-29.1472"/>
<polygon fill="midnightblue" stroke="midnightblue" points="412.675,-27.8562 406.083,-19.5624 406.064,-30.1572 412.675,-27.8562"/>
</g>
<!-- Node8 -->
<g id="node9" class="node"><title>Node8</title>
<polygon fill="white" stroke="#bfbfbf" points="317,-0.5 317,-19.5 363,-19.5 363,-0.5 317,-0.5"/>
<text text-anchor="middle" x="340" y="-7.5" font-family="Arial" font-size="10.00">cstdint</text>
</g>
<!-- Node7&#45;&gt;Node8 -->
<g id="edge8" class="edge"><title>Node7&#45;&gt;Node8</title>
<path fill="none" stroke="midnightblue" d="M366.716,-56.083C362.289,-48.6127 355.837,-37.7244 350.382,-28.5199"/>
<polygon fill="midnightblue" stroke="midnightblue" points="353.295,-26.5697 345.186,-19.7511 347.273,-30.1383 353.295,-26.5697"/>
</g>
<!-- Node7&#45;&gt;Node9 -->
<g id="edge9" class="edge"><title>Node7&#45;&gt;Node9</title>
<path fill="none" stroke="midnightblue" d="M377.119,-56.083C381.408,-48.6127 387.658,-37.7244 392.942,-28.5199"/>
<polygon fill="midnightblue" stroke="midnightblue" points="396.033,-30.1662 397.976,-19.7511 389.962,-26.6811 396.033,-30.1662"/>
</g>
<!-- Node10&#45;&gt;Node7 -->
<g id="edge12" class="edge"><title>Node10&#45;&gt;Node7</title>
<path fill="none" stroke="midnightblue" d="M320.801,-112.324C329.818,-104.341 343.406,-92.3128 354.318,-82.6529"/>
<polygon fill="midnightblue" stroke="midnightblue" points="356.853,-85.083 362.021,-75.8339 352.213,-79.8416 356.853,-85.083"/>
</g>
<!-- Node10&#45;&gt;Node9 -->
<g id="edge13" class="edge"><title>Node10&#45;&gt;Node9</title>
<path fill="none" stroke="midnightblue" d="M310.904,-112.102C311.197,-98.6681 313.508,-72.9773 326,-56 337.247,-40.7149 355.374,-29.7511 371.215,-22.4744"/>
<polygon fill="midnightblue" stroke="midnightblue" points="372.885,-25.5668 380.701,-18.4144 370.131,-19.1314 372.885,-25.5668"/>
</g>
</g>
</svg>
