<?xml version="1.0" encoding="UTF-8" standalone="no"?>
<!DOCTYPE svg PUBLIC "-//W3C//DTD SVG 1.1//EN"
 "http://www.w3.org/Graphics/SVG/1.1/DTD/svg11.dtd">
<!-- Generated by graphviz version 2.38.0 (20140413.2041)
 -->
<!-- Title: include/miral/miral/keymap.h Pages: 1 -->
<svg width="120pt" height="95pt"
 viewBox="0.00 0.00 119.50 95.00" xmlns="http://www.w3.org/2000/svg" xmlns:xlink="http://www.w3.org/1999/xlink">
<g id="graph0" class="graph" transform="scale(1 1) rotate(0) translate(4 91)">
<title>include/miral/miral/keymap.h</title>
<polygon fill="white" stroke="none" points="-4,4 -4,-91 115.5,-91 115.5,4 -4,4"/>
<!-- Node0 -->
<g id="node1" class="node"><title>Node0</title>
<polygon fill="#bfbfbf" stroke="black" points="10.5,-56.5 10.5,-86.5 105.5,-86.5 105.5,-56.5 10.5,-56.5"/>
<text text-anchor="start" x="18.5" y="-74.5" font-family="Arial" font-size="10.00">include/miral/miral</text>
<text text-anchor="middle" x="58" y="-63.5" font-family="Arial" font-size="10.00">/keymap.h</text>
</g>
<!-- Node1 -->
<g id="node2" class="node"><title>Node1</title>
<polygon fill="white" stroke="#bfbfbf" points="0,-0.5 0,-19.5 52,-19.5 52,-0.5 0,-0.5"/>
<text text-anchor="middle" x="26" y="-7.5" font-family="Arial" font-size="10.00">memory</text>
</g>
<!-- Node0&#45;&gt;Node1 -->
<g id="edge1" class="edge"><title>Node0&#45;&gt;Node1</title>
<path fill="none" stroke="midnightblue" d="M50.4164,-56.3993C45.9582,-48.1098 40.2812,-37.5542 35.5234,-28.7077"/>
<polygon fill="midnightblue" stroke="midnightblue" points="38.4754,-26.8071 30.6563,-19.6578 32.3104,-30.1227 38.4754,-26.8071"/>
</g>
<!-- Node2 -->
<g id="node3" class="node"><title>Node2</title>
<polygon fill="white" stroke="#bfbfbf" points="70.5,-0.5 70.5,-19.5 111.5,-19.5 111.5,-0.5 70.5,-0.5"/>
<text text-anchor="middle" x="91" y="-7.5" font-family="Arial" font-size="10.00">string</text>
</g>
<!-- Node0&#45;&gt;Node2 -->
<g id="edge2" class="edge"><title>Node0&#45;&gt;Node2</title>
<path fill="none" stroke="midnightblue" d="M65.8205,-56.3993C70.4675,-48.0207 76.3985,-37.3269 81.3369,-28.4229"/>
<polygon fill="midnightblue" stroke="midnightblue" points="84.4087,-30.1004 86.1982,-19.6578 78.2872,-26.7052 84.4087,-30.1004"/>
</g>
</g>
</svg>
