<?xml version="1.0" encoding="UTF-8" standalone="no"?>
<!DOCTYPE svg PUBLIC "-//W3C//DTD SVG 1.1//EN"
 "http://www.w3.org/Graphics/SVG/1.1/DTD/svg11.dtd">
<!-- Generated by graphviz version 2.40.1 (20161225.0304)
 -->
<!-- Title: include/miral/miral/window.h Pages: 1 -->
<svg width="1026pt" height="374pt"
 viewBox="0.00 0.00 1026.00 374.00" xmlns="http://www.w3.org/2000/svg" xmlns:xlink="http://www.w3.org/1999/xlink">
<g id="graph0" class="graph" transform="scale(1 1) rotate(0) translate(4 370)">
<title>include/miral/miral/window.h</title>
<polygon fill="#ffffff" stroke="transparent" points="-4,4 -4,-370 1022,-370 1022,4 -4,4"/>
<!-- Node11 -->
<g id="node1" class="node">
<title>Node11</title>
<polygon fill="#bfbfbf" stroke="#000000" points="351,-335.5 351,-365.5 460,-365.5 460,-335.5 351,-335.5"/>
<text text-anchor="start" x="359" y="-353.5" font-family="Arial" font-size="10.00" fill="#000000">include/miral/miral</text>
<text text-anchor="middle" x="405.5" y="-342.5" font-family="Arial" font-size="10.00" fill="#000000">/window.h</text>
</g>
<!-- Node12 -->
<g id="node2" class="node">
<title>Node12</title>
<g id="a_node2"><a xlink:href="window__info_8h.html" target="_top" xlink:title="include/miral/miral\l/window_info.h">
<polygon fill="#ffffff" stroke="#000000" points="351,-268.5 351,-298.5 460,-298.5 460,-268.5 351,-268.5"/>
<text text-anchor="start" x="359" y="-286.5" font-family="Arial" font-size="10.00" fill="#000000">include/miral/miral</text>
<text text-anchor="middle" x="405.5" y="-275.5" font-family="Arial" font-size="10.00" fill="#000000">/window_info.h</text>
</a>
</g>
</g>
<!-- Node11&#45;&gt;Node12 -->
<g id="edge1" class="edge">
<title>Node11&#45;&gt;Node12</title>
<path fill="none" stroke="#191970" d="M405.5,-325.0249C405.5,-316.128 405.5,-306.4287 405.5,-298.6432"/>
<polygon fill="#191970" stroke="#191970" points="402.0001,-325.2966 405.5,-335.2967 409.0001,-325.2967 402.0001,-325.2966"/>
</g>
<!-- Node13 -->
<g id="node3" class="node">
<title>Node13</title>
<g id="a_node3"><a xlink:href="kiosk__window__manager_8cpp.html" target="_top" xlink:title="examples/miral&#45;kiosk\l/kiosk_window_manager.cpp">
<polygon fill="#ffffff" stroke="#000000" points="0,-.5 0,-30.5 157,-30.5 157,-.5 0,-.5"/>
<text text-anchor="start" x="8" y="-18.5" font-family="Arial" font-size="10.00" fill="#000000">examples/miral&#45;kiosk</text>
<text text-anchor="middle" x="78.5" y="-7.5" font-family="Arial" font-size="10.00" fill="#000000">/kiosk_window_manager.cpp</text>
</a>
</g>
</g>
<!-- Node12&#45;&gt;Node13 -->
<g id="edge2" class="edge">
<title>Node12&#45;&gt;Node13</title>
<path fill="none" stroke="#191970" d="M340.8556,-274.2357C274.0033,-261.2938 171.0843,-231.4231 110.5,-165 75.7995,-126.9552 75.315,-60.7172 77.1157,-30.8647"/>
<polygon fill="#191970" stroke="#191970" points="340.3837,-277.7079 350.8554,-276.0977 341.6651,-270.8262 340.3837,-277.7079"/>
</g>
<!-- Node14 -->
<g id="node4" class="node">
<title>Node14</title>
<g id="a_node4"><a xlink:href="floating__window__manager_8cpp.html" target="_top" xlink:title="examples/example&#45;server\l&#45;lib/floating_window_manager.cpp">
<polygon fill="#ffffff" stroke="#000000" points="319,-.5 319,-30.5 502,-30.5 502,-.5 319,-.5"/>
<text text-anchor="start" x="327" y="-18.5" font-family="Arial" font-size="10.00" fill="#000000">examples/example&#45;server</text>
<text text-anchor="middle" x="410.5" y="-7.5" font-family="Arial" font-size="10.00" fill="#000000">&#45;lib/floating_window_manager.cpp</text>
</a>
</g>
</g>
<!-- Node12&#45;&gt;Node14 -->
<g id="edge3" class="edge">
<title>Node12&#45;&gt;Node14</title>
<path fill="none" stroke="#191970" d="M388.1754,-259.7761C383.0509,-251.418 378.1148,-241.6836 375.5,-232 366.686,-199.3587 351.979,-170.1288 381.5,-67 385.2275,-53.9784 392.8212,-40.6931 399.3031,-30.878"/>
<polygon fill="#191970" stroke="#191970" points="385.3066,-261.7842 393.7091,-268.2379 391.1651,-257.953 385.3066,-261.7842"/>
</g>
<!-- Node15 -->
<g id="node5" class="node">
<title>Node15</title>
<g id="a_node5"><a xlink:href="tiling__window__manager_8cpp.html" target="_top" xlink:title="examples/example&#45;server\l&#45;lib/tiling_window_manager.cpp">
<polygon fill="#ffffff" stroke="#000000" points="847,-67.5 847,-97.5 1018,-97.5 1018,-67.5 847,-67.5"/>
<text text-anchor="start" x="855" y="-85.5" font-family="Arial" font-size="10.00" fill="#000000">examples/example&#45;server</text>
<text text-anchor="middle" x="932.5" y="-74.5" font-family="Arial" font-size="10.00" fill="#000000">&#45;lib/tiling_window_manager.cpp</text>
</a>
</g>
</g>
<!-- Node12&#45;&gt;Node15 -->
<g id="edge4" class="edge">
<title>Node12&#45;&gt;Node15</title>
<path fill="none" stroke="#191970" d="M470.2627,-278.858C598.5999,-268.1703 877.8179,-237.0031 935.5,-165 950.7335,-145.9843 944.4121,-115.8431 938.4457,-97.7379"/>
<polygon fill="#191970" stroke="#191970" points="469.8574,-275.3794 460.1755,-279.6817 470.4272,-282.3562 469.8574,-275.3794"/>
</g>
<!-- Node16 -->
<g id="node6" class="node">
<title>Node16</title>
<g id="a_node6"><a xlink:href="window__manager__tools_8h.html" target="_top" xlink:title="include/miral/miral\l/window_manager_tools.h">
<polygon fill="#ffffff" stroke="#000000" points="384.5,-201.5 384.5,-231.5 528.5,-231.5 528.5,-201.5 384.5,-201.5"/>
<text text-anchor="start" x="392.5" y="-219.5" font-family="Arial" font-size="10.00" fill="#000000">include/miral/miral</text>
<text text-anchor="middle" x="456.5" y="-208.5" font-family="Arial" font-size="10.00" fill="#000000">/window_manager_tools.h</text>
</a>
</g>
</g>
<!-- Node12&#45;&gt;Node16 -->
<g id="edge5" class="edge">
<title>Node12&#45;&gt;Node16</title>
<path fill="none" stroke="#191970" d="M423.3404,-260.0626C430.5193,-250.6315 438.5909,-240.0276 444.9731,-231.6432"/>
<polygon fill="#191970" stroke="#191970" points="420.3446,-258.2197 417.0727,-268.2967 425.9146,-262.4595 420.3446,-258.2197"/>
</g>
<!-- Node16&#45;&gt;Node13 -->
<g id="edge6" class="edge">
<title>Node16&#45;&gt;Node13</title>
<path fill="none" stroke="#191970" d="M374.0383,-212.7054C290.7071,-207.2657 169.2885,-194.4289 133.5,-165 111.9787,-147.3031 90.2619,-64.8436 81.9907,-30.5359"/>
<polygon fill="#191970" stroke="#191970" points="374.0576,-216.2134 384.2576,-213.3481 374.497,-209.2272 374.0576,-216.2134"/>
</g>
<!-- Node16&#45;&gt;Node14 -->
<g id="edge10" class="edge">
<title>Node16&#45;&gt;Node14</title>
<path fill="none" stroke="#191970" d="M420.6346,-195.4127C410.2425,-187.3306 400.1763,-177.0941 394.5,-165 373.3171,-119.8669 392.6495,-58.8608 403.8324,-30.7908"/>
<polygon fill="#191970" stroke="#191970" points="418.8052,-198.4089 428.9611,-201.4269 422.904,-192.7343 418.8052,-198.4089"/>
</g>
<!-- Node16&#45;&gt;Node15 -->
<g id="edge14" class="edge">
<title>Node16&#45;&gt;Node15</title>
<path fill="none" stroke="#191970" d="M538.9418,-212.3244C662.9958,-205.2851 886.1519,-189.3921 913.5,-165 932.4761,-148.075 934.4817,-116.3491 933.7875,-97.5559"/>
<polygon fill="#191970" stroke="#191970" points="538.5094,-208.8431 528.7209,-212.8971 538.9011,-215.8321 538.5094,-208.8431"/>
</g>
<!-- Node17 -->
<g id="node7" class="node">
<title>Node17</title>
<g id="a_node7"><a xlink:href="decoration__provider_8h.html" target="_top" xlink:title="examples/example&#45;server\l&#45;lib/decoration_provider.h">
<polygon fill="#ffffff" stroke="#000000" points="403,-134.5 403,-164.5 548,-164.5 548,-134.5 403,-134.5"/>
<text text-anchor="start" x="411" y="-152.5" font-family="Arial" font-size="10.00" fill="#000000">examples/example&#45;server</text>
<text text-anchor="middle" x="475.5" y="-141.5" font-family="Arial" font-size="10.00" fill="#000000">&#45;lib/decoration_provider.h</text>
</a>
</g>
</g>
<!-- Node16&#45;&gt;Node17 -->
<g id="edge7" class="edge">
<title>Node16&#45;&gt;Node17</title>
<path fill="none" stroke="#191970" d="M463.5583,-191.6103C466.1261,-182.5553 468.9493,-172.5998 471.2057,-164.6432"/>
<polygon fill="#191970" stroke="#191970" points="460.1725,-190.7211 460.8114,-201.2967 466.9069,-192.6309 460.1725,-190.7211"/>
</g>
<!-- Node19 -->
<g id="node9" class="node">
<title>Node19</title>
<g id="a_node9"><a xlink:href="tiling__window__manager_8h.html" target="_top" xlink:title="examples/example&#45;server\l&#45;lib/tiling_window_manager.h">
<polygon fill="#ffffff" stroke="#000000" points="744.5,-134.5 744.5,-164.5 904.5,-164.5 904.5,-134.5 744.5,-134.5"/>
<text text-anchor="start" x="752.5" y="-152.5" font-family="Arial" font-size="10.00" fill="#000000">examples/example&#45;server</text>
<text text-anchor="middle" x="824.5" y="-141.5" font-family="Arial" font-size="10.00" fill="#000000">&#45;lib/tiling_window_manager.h</text>
</a>
</g>
</g>
<!-- Node16&#45;&gt;Node19 -->
<g id="edge11" class="edge">
<title>Node16&#45;&gt;Node19</title>
<path fill="none" stroke="#191970" d="M538.8045,-201.5152C600.1836,-190.3402 683.5744,-175.1577 744.4142,-164.0808"/>
<polygon fill="#191970" stroke="#191970" points="537.9772,-198.1082 528.7659,-203.3429 539.2311,-204.995 537.9772,-198.1082"/>
</g>
<!-- Node21 -->
<g id="node11" class="node">
<title>Node21</title>
<g id="a_node11"><a xlink:href="canonical__window__manager_8h.html" target="_top" xlink:title="include/miral/miral\l/canonical_window_manager.h">
<polygon fill="#ffffff" stroke="#000000" points="142.5,-134.5 142.5,-164.5 308.5,-164.5 308.5,-134.5 142.5,-134.5"/>
<text text-anchor="start" x="150.5" y="-152.5" font-family="Arial" font-size="10.00" fill="#000000">include/miral/miral</text>
<text text-anchor="middle" x="225.5" y="-141.5" font-family="Arial" font-size="10.00" fill="#000000">/canonical_window_manager.h</text>
</a>
</g>
</g>
<!-- Node16&#45;&gt;Node21 -->
<g id="edge15" class="edge">
<title>Node16&#45;&gt;Node21</title>
<path fill="none" stroke="#191970" d="M394.6072,-198.5484C358.0431,-187.9432 312.2681,-174.6665 277.567,-164.6017"/>
<polygon fill="#191970" stroke="#191970" points="394.0799,-202.0397 404.6591,-201.4639 396.0299,-195.3167 394.0799,-202.0397"/>
</g>
<!-- Node24 -->
<g id="node14" class="node">
<title>Node24</title>
<g id="a_node14"><a xlink:href="minimal__window__manager_8h.html" target="_top" xlink:title="include/miral/miral\l/minimal_window_manager.h">
<polygon fill="#ffffff" stroke="#000000" points="566.5,-134.5 566.5,-164.5 726.5,-164.5 726.5,-134.5 566.5,-134.5"/>
<text text-anchor="start" x="574.5" y="-152.5" font-family="Arial" font-size="10.00" fill="#000000">include/miral/miral</text>
<text text-anchor="middle" x="646.5" y="-141.5" font-family="Arial" font-size="10.00" fill="#000000">/minimal_window_manager.h</text>
</a>
</g>
</g>
<!-- Node16&#45;&gt;Node24 -->
<g id="edge19" class="edge">
<title>Node16&#45;&gt;Node24</title>
<path fill="none" stroke="#191970" d="M508.9563,-198.0023C538.7664,-187.4903 575.6202,-174.4945 603.6743,-164.6017"/>
<polygon fill="#191970" stroke="#191970" points="507.4065,-194.8374 499.1397,-201.4639 509.7345,-201.439 507.4065,-194.8374"/>
</g>
<!-- Node17&#45;&gt;Node14 -->
<g id="edge9" class="edge">
<title>Node17&#45;&gt;Node14</title>
<path fill="none" stroke="#191970" d="M452.085,-126.6881C444.5746,-118.2821 436.8307,-108.286 431.5,-98 420.1431,-76.086 414.6668,-47.6549 412.2317,-30.535"/>
<polygon fill="#191970" stroke="#191970" points="449.7406,-129.3053 459.1277,-134.2178 454.8529,-124.5236 449.7406,-129.3053"/>
</g>
<!-- Node18 -->
<g id="node8" class="node">
<title>Node18</title>
<g id="a_node8"><a xlink:href="decoration__provider_8cpp.html" target="_top" xlink:title="examples/example&#45;server\l&#45;lib/decoration_provider.cpp">
<polygon fill="#ffffff" stroke="#000000" points="440.5,-67.5 440.5,-97.5 592.5,-97.5 592.5,-67.5 440.5,-67.5"/>
<text text-anchor="start" x="448.5" y="-85.5" font-family="Arial" font-size="10.00" fill="#000000">examples/example&#45;server</text>
<text text-anchor="middle" x="516.5" y="-74.5" font-family="Arial" font-size="10.00" fill="#000000">&#45;lib/decoration_provider.cpp</text>
</a>
</g>
</g>
<!-- Node17&#45;&gt;Node18 -->
<g id="edge8" class="edge">
<title>Node17&#45;&gt;Node18</title>
<path fill="none" stroke="#191970" d="M490.1965,-125.4837C495.8778,-116.1996 502.2072,-105.8565 507.2333,-97.6432"/>
<polygon fill="#191970" stroke="#191970" points="487.0378,-123.9401 484.8035,-134.2967 493.0086,-127.5939 487.0378,-123.9401"/>
</g>
<!-- Node19&#45;&gt;Node15 -->
<g id="edge13" class="edge">
<title>Node19&#45;&gt;Node15</title>
<path fill="none" stroke="#191970" d="M857.4221,-129.0761C873.7005,-118.9774 893.0101,-106.9983 907.9699,-97.7177"/>
<polygon fill="#191970" stroke="#191970" points="855.3898,-126.218 848.7373,-134.4639 859.08,-132.1663 855.3898,-126.218"/>
</g>
<!-- Node20 -->
<g id="node10" class="node">
<title>Node20</title>
<g id="a_node10"><a xlink:href="shell__main_8cpp.html" target="_top" xlink:title="examples/miral&#45;shell\l/shell_main.cpp">
<polygon fill="#ffffff" stroke="#000000" points="695.5,-.5 695.5,-30.5 815.5,-30.5 815.5,-.5 695.5,-.5"/>
<text text-anchor="start" x="703.5" y="-18.5" font-family="Arial" font-size="10.00" fill="#000000">examples/miral&#45;shell</text>
<text text-anchor="middle" x="755.5" y="-7.5" font-family="Arial" font-size="10.00" fill="#000000">/shell_main.cpp</text>
</a>
</g>
</g>
<!-- Node19&#45;&gt;Node20 -->
<g id="edge12" class="edge">
<title>Node19&#45;&gt;Node20</title>
<path fill="none" stroke="#191970" d="M816.3098,-124.8185C810.3492,-108.067 801.5791,-85.6579 791.5,-67 784.5523,-54.1387 775.0145,-40.6313 767.5016,-30.6779"/>
<polygon fill="#191970" stroke="#191970" points="813.0609,-126.1325 819.6446,-134.4335 819.6744,-123.8387 813.0609,-126.1325"/>
</g>
<!-- Node22 -->
<g id="node12" class="node">
<title>Node22</title>
<g id="a_node12"><a xlink:href="kiosk__window__manager_8h.html" target="_top" xlink:title="examples/miral&#45;kiosk\l/kiosk_window_manager.h">
<polygon fill="#ffffff" stroke="#000000" points="152.5,-67.5 152.5,-97.5 298.5,-97.5 298.5,-67.5 152.5,-67.5"/>
<text text-anchor="start" x="160.5" y="-85.5" font-family="Arial" font-size="10.00" fill="#000000">examples/miral&#45;kiosk</text>
<text text-anchor="middle" x="225.5" y="-74.5" font-family="Arial" font-size="10.00" fill="#000000">/kiosk_window_manager.h</text>
</a>
</g>
</g>
<!-- Node21&#45;&gt;Node22 -->
<g id="edge16" class="edge">
<title>Node21&#45;&gt;Node22</title>
<path fill="none" stroke="#191970" d="M225.5,-124.0249C225.5,-115.128 225.5,-105.4287 225.5,-97.6432"/>
<polygon fill="#191970" stroke="#191970" points="222.0001,-124.2966 225.5,-134.2967 229.0001,-124.2967 222.0001,-124.2966"/>
</g>
<!-- Node22&#45;&gt;Node13 -->
<g id="edge18" class="edge">
<title>Node22&#45;&gt;Node13</title>
<path fill="none" stroke="#191970" d="M183.4036,-63.3132C160.6153,-52.9267 132.8667,-40.2794 111.6336,-30.6017"/>
<polygon fill="#191970" stroke="#191970" points="181.9593,-66.5013 192.5103,-67.4639 184.8625,-60.1317 181.9593,-66.5013"/>
</g>
<!-- Node23 -->
<g id="node13" class="node">
<title>Node23</title>
<g id="a_node13"><a xlink:href="kiosk__main_8cpp.html" target="_top" xlink:title="examples/miral&#45;kiosk\l/kiosk_main.cpp">
<polygon fill="#ffffff" stroke="#000000" points="175,-.5 175,-30.5 298,-30.5 298,-.5 175,-.5"/>
<text text-anchor="start" x="183" y="-18.5" font-family="Arial" font-size="10.00" fill="#000000">examples/miral&#45;kiosk</text>
<text text-anchor="middle" x="236.5" y="-7.5" font-family="Arial" font-size="10.00" fill="#000000">/kiosk_main.cpp</text>
</a>
</g>
</g>
<!-- Node22&#45;&gt;Node23 -->
<g id="edge17" class="edge">
<title>Node22&#45;&gt;Node23</title>
<path fill="none" stroke="#191970" d="M229.6344,-57.3179C231.1081,-48.3414 232.7215,-38.5143 234.0138,-30.6432"/>
<polygon fill="#191970" stroke="#191970" points="226.1625,-56.8617 227.9961,-67.2967 233.07,-57.9958 226.1625,-56.8617"/>
</g>
<!-- Node25 -->
<g id="node15" class="node">
<title>Node25</title>
<g id="a_node15"><a xlink:href="floating__window__manager_8h.html" target="_top" xlink:title="examples/example&#45;server\l&#45;lib/floating_window_manager.h">
<polygon fill="#ffffff" stroke="#000000" points="610.5,-67.5 610.5,-97.5 782.5,-97.5 782.5,-67.5 610.5,-67.5"/>
<text text-anchor="start" x="618.5" y="-85.5" font-family="Arial" font-size="10.00" fill="#000000">examples/example&#45;server</text>
<text text-anchor="middle" x="696.5" y="-74.5" font-family="Arial" font-size="10.00" fill="#000000">&#45;lib/floating_window_manager.h</text>
</a>
</g>
</g>
<!-- Node24&#45;&gt;Node25 -->
<g id="edge20" class="edge">
<title>Node24&#45;&gt;Node25</title>
<path fill="none" stroke="#191970" d="M663.9906,-126.0626C671.0287,-116.6315 678.9421,-106.0276 685.1991,-97.6432"/>
<polygon fill="#191970" stroke="#191970" points="661.0216,-124.189 657.8458,-134.2967 666.6317,-128.3756 661.0216,-124.189"/>
</g>
<!-- Node25&#45;&gt;Node14 -->
<g id="edge22" class="edge">
<title>Node25&#45;&gt;Node14</title>
<path fill="none" stroke="#191970" d="M622.4698,-65.1573C576.7858,-54.4551 518.7534,-40.8601 474.9639,-30.6017"/>
<polygon fill="#191970" stroke="#191970" points="621.7813,-68.5907 632.316,-67.4639 623.378,-61.7752 621.7813,-68.5907"/>
</g>
<!-- Node25&#45;&gt;Node20 -->
<g id="edge21" class="edge">
<title>Node25&#45;&gt;Node20</title>
<path fill="none" stroke="#191970" d="M716.6318,-59.6385C725.0619,-50.0653 734.631,-39.1987 742.165,-30.6432"/>
<polygon fill="#191970" stroke="#191970" points="713.8701,-57.4786 709.888,-67.2967 719.1236,-62.1048 713.8701,-57.4786"/>
</g>
</g>
</svg>
