<?xml version="1.0" encoding="UTF-8" standalone="no"?>
<!DOCTYPE svg PUBLIC "-//W3C//DTD SVG 1.1//EN"
 "http://www.w3.org/Graphics/SVG/1.1/DTD/svg11.dtd">
<!-- Generated by graphviz version 2.43.0 (0)
 -->
<!-- Title: examples/miral&#45;shell/spinner/miregl.h Pages: 1 -->
<svg width="535pt" height="263pt"
 viewBox="0.00 0.00 535.00 263.00" xmlns="http://www.w3.org/2000/svg" xmlns:xlink="http://www.w3.org/1999/xlink">
<g id="graph0" class="graph" transform="scale(1 1) rotate(0) translate(4 259)">
<title>examples/miral&#45;shell/spinner/miregl.h</title>
<polygon fill="white" stroke="transparent" points="-4,4 -4,-259 531,-259 531,4 -4,4"/>
<!-- Node1 -->
<g id="node1" class="node">
<title>Node1</title>
<g id="a_node1"><a xlink:title=" ">
<polygon fill="#bfbfbf" stroke="black" points="214,-224.5 214,-254.5 320,-254.5 320,-224.5 214,-224.5"/>
<text text-anchor="start" x="222" y="-242.5" font-family="Arial" font-size="10.00">examples/miral&#45;shell</text>
<text text-anchor="middle" x="267" y="-231.5" font-family="Arial" font-size="10.00">/spinner/miregl.h</text>
</a>
</g>
</g>
<!-- Node2 -->
<g id="node2" class="node">
<title>Node2</title>
<g id="a_node2"><a xlink:href="wayland__surface_8h.html" target="_top" xlink:title=" ">
<polygon fill="white" stroke="black" points="170,-168.5 170,-187.5 268,-187.5 268,-168.5 170,-168.5"/>
<text text-anchor="middle" x="219" y="-175.5" font-family="Arial" font-size="10.00">wayland_surface.h</text>
</a>
</g>
</g>
<!-- Node1&#45;&gt;Node2 -->
<g id="edge1" class="edge">
<title>Node1&#45;&gt;Node2</title>
<path fill="none" stroke="midnightblue" d="M255.62,-224.4C248.65,-215.75 239.69,-204.64 232.37,-195.58"/>
<polygon fill="midnightblue" stroke="midnightblue" points="234.99,-193.24 225.98,-187.66 229.54,-197.64 234.99,-193.24"/>
</g>
<!-- Node5 -->
<g id="node5" class="node">
<title>Node5</title>
<g id="a_node5"><a xlink:title=" ">
<polygon fill="white" stroke="#bfbfbf" points="0,-56.5 0,-75.5 52,-75.5 52,-56.5 0,-56.5"/>
<text text-anchor="middle" x="26" y="-63.5" font-family="Arial" font-size="10.00">memory</text>
</a>
</g>
</g>
<!-- Node1&#45;&gt;Node5 -->
<g id="edge18" class="edge">
<title>Node1&#45;&gt;Node5</title>
<path fill="none" stroke="midnightblue" d="M230.78,-224.31C209.63,-215.29 182.88,-202.58 161,-188 112.99,-156.02 64.53,-107.81 40.87,-83"/>
<polygon fill="midnightblue" stroke="midnightblue" points="43.24,-80.42 33.83,-75.54 38.15,-85.22 43.24,-80.42"/>
</g>
<!-- Node15 -->
<g id="node15" class="node">
<title>Node15</title>
<g id="a_node15"><a xlink:title=" ">
<polygon fill="white" stroke="#bfbfbf" points="286,-168.5 286,-187.5 346,-187.5 346,-168.5 286,-168.5"/>
<text text-anchor="middle" x="316" y="-175.5" font-family="Arial" font-size="10.00">EGL/egl.h</text>
</a>
</g>
</g>
<!-- Node1&#45;&gt;Node15 -->
<g id="edge17" class="edge">
<title>Node1&#45;&gt;Node15</title>
<path fill="none" stroke="midnightblue" d="M278.61,-224.4C285.73,-215.75 294.88,-204.64 302.35,-195.58"/>
<polygon fill="midnightblue" stroke="midnightblue" points="305.21,-197.6 308.87,-187.66 299.81,-193.15 305.21,-197.6"/>
</g>
<!-- Node16 -->
<g id="node16" class="node">
<title>Node16</title>
<g id="a_node16"><a xlink:title=" ">
<polygon fill="white" stroke="#bfbfbf" points="364,-168.5 364,-187.5 408,-187.5 408,-168.5 364,-168.5"/>
<text text-anchor="middle" x="386" y="-175.5" font-family="Arial" font-size="10.00">vector</text>
</a>
</g>
</g>
<!-- Node1&#45;&gt;Node16 -->
<g id="edge19" class="edge">
<title>Node1&#45;&gt;Node16</title>
<path fill="none" stroke="midnightblue" d="M295.2,-224.4C314.72,-214.64 340.53,-201.74 359.63,-192.18"/>
<polygon fill="midnightblue" stroke="midnightblue" points="361.31,-195.26 368.68,-187.66 358.17,-189 361.31,-195.26"/>
</g>
<!-- Node3 -->
<g id="node3" class="node">
<title>Node3</title>
<g id="a_node3"><a xlink:href="wayland__app_8h.html" target="_top" xlink:title=" ">
<polygon fill="white" stroke="black" points="155,-112.5 155,-131.5 237,-131.5 237,-112.5 155,-112.5"/>
<text text-anchor="middle" x="196" y="-119.5" font-family="Arial" font-size="10.00">wayland_app.h</text>
</a>
</g>
</g>
<!-- Node2&#45;&gt;Node3 -->
<g id="edge2" class="edge">
<title>Node2&#45;&gt;Node3</title>
<path fill="none" stroke="midnightblue" d="M215.2,-168.08C212.09,-160.77 207.58,-150.18 203.71,-141.1"/>
<polygon fill="midnightblue" stroke="midnightblue" points="206.87,-139.58 199.73,-131.75 200.43,-142.32 206.87,-139.58"/>
</g>
<!-- Node7 -->
<g id="node7" class="node">
<title>Node7</title>
<g id="a_node7"><a xlink:title=" ">
<polygon fill="white" stroke="#bfbfbf" points="267.5,-56.5 267.5,-75.5 326.5,-75.5 326.5,-56.5 267.5,-56.5"/>
<text text-anchor="middle" x="297" y="-63.5" font-family="Arial" font-size="10.00">functional</text>
</a>
</g>
</g>
<!-- Node2&#45;&gt;Node7 -->
<g id="edge16" class="edge">
<title>Node2&#45;&gt;Node7</title>
<path fill="none" stroke="midnightblue" d="M225.12,-168.37C237.99,-150.22 268.07,-107.8 284.95,-83.99"/>
<polygon fill="midnightblue" stroke="midnightblue" points="287.98,-85.77 290.91,-75.59 282.27,-81.72 287.98,-85.77"/>
</g>
<!-- Node9 -->
<g id="node9" class="node">
<title>Node9</title>
<g id="a_node9"><a xlink:href="size_8h.html" target="_top" xlink:title=" ">
<polygon fill="white" stroke="black" points="317.5,-112.5 317.5,-131.5 420.5,-131.5 420.5,-112.5 317.5,-112.5"/>
<text text-anchor="middle" x="369" y="-119.5" font-family="Arial" font-size="10.00">mir/geometry/size.h</text>
</a>
</g>
</g>
<!-- Node2&#45;&gt;Node9 -->
<g id="edge8" class="edge">
<title>Node2&#45;&gt;Node9</title>
<path fill="none" stroke="midnightblue" d="M242.77,-168.44C267.89,-159.4 307.71,-145.06 335.9,-134.92"/>
<polygon fill="midnightblue" stroke="midnightblue" points="337.12,-138.2 345.34,-131.52 334.75,-131.61 337.12,-138.2"/>
</g>
<!-- Node4 -->
<g id="node4" class="node">
<title>Node4</title>
<g id="a_node4"><a xlink:title=" ">
<polygon fill="white" stroke="#bfbfbf" points="70.5,-56.5 70.5,-75.5 157.5,-75.5 157.5,-56.5 70.5,-56.5"/>
<text text-anchor="middle" x="114" y="-63.5" font-family="Arial" font-size="10.00">wayland&#45;client.h</text>
</a>
</g>
</g>
<!-- Node3&#45;&gt;Node4 -->
<g id="edge3" class="edge">
<title>Node3&#45;&gt;Node4</title>
<path fill="none" stroke="midnightblue" d="M182.83,-112.32C170.15,-103.98 150.77,-91.21 135.79,-81.35"/>
<polygon fill="midnightblue" stroke="midnightblue" points="137.42,-78.23 127.14,-75.65 133.57,-84.08 137.42,-78.23"/>
</g>
<!-- Node3&#45;&gt;Node5 -->
<g id="edge4" class="edge">
<title>Node3&#45;&gt;Node5</title>
<path fill="none" stroke="midnightblue" d="M169.06,-112.44C140.17,-103.27 94.13,-88.64 62.12,-78.47"/>
<polygon fill="midnightblue" stroke="midnightblue" points="62.84,-75.03 52.25,-75.34 60.72,-81.7 62.84,-75.03"/>
</g>
<!-- Node6 -->
<g id="node6" class="node">
<title>Node6</title>
<g id="a_node6"><a xlink:title=" ">
<polygon fill="white" stroke="#bfbfbf" points="175.5,-56.5 175.5,-75.5 210.5,-75.5 210.5,-56.5 175.5,-56.5"/>
<text text-anchor="middle" x="193" y="-63.5" font-family="Arial" font-size="10.00">map</text>
</a>
</g>
</g>
<!-- Node3&#45;&gt;Node6 -->
<g id="edge5" class="edge">
<title>Node3&#45;&gt;Node6</title>
<path fill="none" stroke="midnightblue" d="M195.5,-112.08C195.11,-105.01 194.55,-94.86 194.05,-85.99"/>
<polygon fill="midnightblue" stroke="midnightblue" points="197.54,-85.54 193.49,-75.75 190.55,-85.93 197.54,-85.54"/>
</g>
<!-- Node3&#45;&gt;Node7 -->
<g id="edge6" class="edge">
<title>Node3&#45;&gt;Node7</title>
<path fill="none" stroke="midnightblue" d="M212.23,-112.32C228.35,-103.7 253.3,-90.36 271.96,-80.39"/>
<polygon fill="midnightblue" stroke="midnightblue" points="273.64,-83.46 280.81,-75.65 270.34,-77.28 273.64,-83.46"/>
</g>
<!-- Node8 -->
<g id="node8" class="node">
<title>Node8</title>
<g id="a_node8"><a xlink:title=" ">
<polygon fill="white" stroke="#bfbfbf" points="239,-0.5 239,-19.5 285,-19.5 285,-0.5 239,-0.5"/>
<text text-anchor="middle" x="262" y="-7.5" font-family="Arial" font-size="10.00">cstdint</text>
</a>
</g>
</g>
<!-- Node3&#45;&gt;Node8 -->
<g id="edge7" class="edge">
<title>Node3&#45;&gt;Node8</title>
<path fill="none" stroke="midnightblue" d="M201.18,-112.37C212.02,-94.3 237.29,-52.18 251.62,-28.31"/>
<polygon fill="midnightblue" stroke="midnightblue" points="254.7,-29.97 256.85,-19.59 248.7,-26.37 254.7,-29.97"/>
</g>
<!-- Node10 -->
<g id="node10" class="node">
<title>Node10</title>
<g id="a_node10"><a xlink:href="forward_8h.html" target="_top" xlink:title=" ">
<polygon fill="white" stroke="black" points="324.5,-0.5 324.5,-19.5 381.5,-19.5 381.5,-0.5 324.5,-0.5"/>
<text text-anchor="middle" x="353" y="-7.5" font-family="Arial" font-size="10.00">forward.h</text>
</a>
</g>
</g>
<!-- Node9&#45;&gt;Node10 -->
<g id="edge9" class="edge">
<title>Node9&#45;&gt;Node10</title>
<path fill="none" stroke="midnightblue" d="M367.74,-112.37C365.16,-94.62 359.21,-53.67 355.71,-29.6"/>
<polygon fill="midnightblue" stroke="midnightblue" points="359.15,-28.98 354.25,-19.59 352.23,-29.99 359.15,-28.98"/>
</g>
<!-- Node11 -->
<g id="node11" class="node">
<title>Node11</title>
<g id="a_node11"><a xlink:href="dimensions_8h.html" target="_top" xlink:title=" ">
<polygon fill="white" stroke="black" points="383,-56.5 383,-75.5 457,-75.5 457,-56.5 383,-56.5"/>
<text text-anchor="middle" x="420" y="-63.5" font-family="Arial" font-size="10.00">dimensions.h</text>
</a>
</g>
</g>
<!-- Node9&#45;&gt;Node11 -->
<g id="edge10" class="edge">
<title>Node9&#45;&gt;Node11</title>
<path fill="none" stroke="midnightblue" d="M377.42,-112.08C384.85,-104.22 395.85,-92.57 404.81,-83.08"/>
<polygon fill="midnightblue" stroke="midnightblue" points="407.41,-85.42 411.74,-75.75 402.32,-80.62 407.41,-85.42"/>
</g>
<!-- Node14 -->
<g id="node14" class="node">
<title>Node14</title>
<g id="a_node14"><a xlink:title=" ">
<polygon fill="white" stroke="#bfbfbf" points="475,-56.5 475,-75.5 527,-75.5 527,-56.5 475,-56.5"/>
<text text-anchor="middle" x="501" y="-63.5" font-family="Arial" font-size="10.00">ostream</text>
</a>
</g>
</g>
<!-- Node9&#45;&gt;Node14 -->
<g id="edge15" class="edge">
<title>Node9&#45;&gt;Node14</title>
<path fill="none" stroke="midnightblue" d="M389.92,-112.44C411.74,-103.52 446.15,-89.44 470.89,-79.32"/>
<polygon fill="midnightblue" stroke="midnightblue" points="472.25,-82.54 480.18,-75.52 469.6,-76.06 472.25,-82.54"/>
</g>
<!-- Node11&#45;&gt;Node8 -->
<g id="edge14" class="edge">
<title>Node11&#45;&gt;Node8</title>
<path fill="none" stroke="midnightblue" d="M394.96,-56.44C367.84,-47.17 324.45,-32.34 294.66,-22.16"/>
<polygon fill="midnightblue" stroke="midnightblue" points="295.71,-18.82 285.12,-18.9 293.45,-25.45 295.71,-18.82"/>
</g>
<!-- Node11&#45;&gt;Node10 -->
<g id="edge11" class="edge">
<title>Node11&#45;&gt;Node10</title>
<path fill="none" stroke="midnightblue" d="M409.24,-56.32C399.23,-48.26 384.11,-36.08 372.07,-26.37"/>
<polygon fill="midnightblue" stroke="midnightblue" points="373.94,-23.38 363.96,-19.83 369.55,-28.83 373.94,-23.38"/>
</g>
<!-- Node12 -->
<g id="node12" class="node">
<title>Node12</title>
<g id="a_node12"><a xlink:title=" ">
<polygon fill="white" stroke="#bfbfbf" points="399.5,-0.5 399.5,-19.5 444.5,-19.5 444.5,-0.5 399.5,-0.5"/>
<text text-anchor="middle" x="422" y="-7.5" font-family="Arial" font-size="10.00">iosfwd</text>
</a>
</g>
</g>
<!-- Node11&#45;&gt;Node12 -->
<g id="edge12" class="edge">
<title>Node11&#45;&gt;Node12</title>
<path fill="none" stroke="midnightblue" d="M420.33,-56.08C420.59,-49.01 420.97,-38.86 421.3,-29.99"/>
<polygon fill="midnightblue" stroke="midnightblue" points="424.8,-29.87 421.68,-19.75 417.81,-29.61 424.8,-29.87"/>
</g>
<!-- Node13 -->
<g id="node13" class="node">
<title>Node13</title>
<g id="a_node13"><a xlink:title=" ">
<polygon fill="white" stroke="#bfbfbf" points="463,-0.5 463,-19.5 525,-19.5 525,-0.5 463,-0.5"/>
<text text-anchor="middle" x="494" y="-7.5" font-family="Arial" font-size="10.00">type_traits</text>
</a>
</g>
</g>
<!-- Node11&#45;&gt;Node13 -->
<g id="edge13" class="edge">
<title>Node11&#45;&gt;Node13</title>
<path fill="none" stroke="midnightblue" d="M431.89,-56.32C443.15,-48.11 460.29,-35.6 473.71,-25.81"/>
<polygon fill="midnightblue" stroke="midnightblue" points="475.88,-28.56 481.89,-19.83 471.75,-22.9 475.88,-28.56"/>
</g>
</g>
</svg>
