<?xml version="1.0" encoding="UTF-8" standalone="no"?>
<!DOCTYPE svg PUBLIC "-//W3C//DTD SVG 1.1//EN"
 "http://www.w3.org/Graphics/SVG/1.1/DTD/svg11.dtd">
<!-- Generated by graphviz version 2.43.0 (0)
 -->
<!-- Title: examples/miral&#45;shell/spinner/miregl.h Pages: 1 -->
<svg width="574pt" height="263pt"
 viewBox="0.00 0.00 573.50 263.00" xmlns="http://www.w3.org/2000/svg" xmlns:xlink="http://www.w3.org/1999/xlink">
<g id="graph0" class="graph" transform="scale(1 1) rotate(0) translate(4 259)">
<title>examples/miral&#45;shell/spinner/miregl.h</title>
<polygon fill="white" stroke="transparent" points="-4,4 -4,-259 569.5,-259 569.5,4 -4,4"/>
<!-- Node1 -->
<g id="node1" class="node">
<title>Node1</title>
<g id="a_node1"><a xlink:title=" ">
<polygon fill="#bfbfbf" stroke="black" points="227,-224.5 227,-254.5 347,-254.5 347,-224.5 227,-224.5"/>
<text text-anchor="start" x="235" y="-242.5" font-family="Arial" font-size="10.00">examples/miral&#45;shell</text>
<text text-anchor="middle" x="287" y="-231.5" font-family="Arial" font-size="10.00">/spinner/miregl.h</text>
</a>
</g>
</g>
<!-- Node2 -->
<g id="node2" class="node">
<title>Node2</title>
<g id="a_node2"><a xlink:href="wayland__surface_8h.html" target="_top" xlink:title=" ">
<polygon fill="white" stroke="black" points="182,-168.5 182,-187.5 290,-187.5 290,-168.5 182,-168.5"/>
<text text-anchor="middle" x="236" y="-175.5" font-family="Arial" font-size="10.00">wayland_surface.h</text>
</a>
</g>
</g>
<!-- Node1&#45;&gt;Node2 -->
<g id="edge1" class="edge">
<title>Node1&#45;&gt;Node2</title>
<path fill="none" stroke="midnightblue" d="M274.91,-224.4C267.43,-215.66 257.78,-204.41 249.97,-195.3"/>
<polygon fill="midnightblue" stroke="midnightblue" points="252.59,-192.97 243.42,-187.66 247.27,-197.53 252.59,-192.97"/>
</g>
<!-- Node5 -->
<g id="node5" class="node">
<title>Node5</title>
<g id="a_node5"><a xlink:title=" ">
<polygon fill="white" stroke="#bfbfbf" points="0,-56.5 0,-75.5 58,-75.5 58,-56.5 0,-56.5"/>
<text text-anchor="middle" x="29" y="-63.5" font-family="Arial" font-size="10.00">memory</text>
</a>
</g>
</g>
<!-- Node1&#45;&gt;Node5 -->
<g id="edge18" class="edge">
<title>Node1&#45;&gt;Node5</title>
<path fill="none" stroke="midnightblue" d="M248.16,-224.46C225.45,-215.49 196.69,-202.78 173,-188 122.01,-156.18 69.89,-107.56 44.64,-82.75"/>
<polygon fill="midnightblue" stroke="midnightblue" points="46.98,-80.14 37.42,-75.58 42.05,-85.11 46.98,-80.14"/>
</g>
<!-- Node15 -->
<g id="node15" class="node">
<title>Node15</title>
<g id="a_node15"><a xlink:title=" ">
<polygon fill="white" stroke="#bfbfbf" points="308,-168.5 308,-187.5 370,-187.5 370,-168.5 308,-168.5"/>
<text text-anchor="middle" x="339" y="-175.5" font-family="Arial" font-size="10.00">EGL/egl.h</text>
</a>
</g>
</g>
<!-- Node1&#45;&gt;Node15 -->
<g id="edge17" class="edge">
<title>Node1&#45;&gt;Node15</title>
<path fill="none" stroke="midnightblue" d="M299.32,-224.4C306.96,-215.66 316.79,-204.41 324.76,-195.3"/>
<polygon fill="midnightblue" stroke="midnightblue" points="327.49,-197.49 331.43,-187.66 322.22,-192.88 327.49,-197.49"/>
</g>
<!-- Node16 -->
<g id="node16" class="node">
<title>Node16</title>
<g id="a_node16"><a xlink:title=" ">
<polygon fill="white" stroke="#bfbfbf" points="388.5,-168.5 388.5,-187.5 435.5,-187.5 435.5,-168.5 388.5,-168.5"/>
<text text-anchor="middle" x="412" y="-175.5" font-family="Arial" font-size="10.00">vector</text>
</a>
</g>
</g>
<!-- Node1&#45;&gt;Node16 -->
<g id="edge19" class="edge">
<title>Node1&#45;&gt;Node16</title>
<path fill="none" stroke="midnightblue" d="M316.62,-224.4C337.22,-214.59 364.48,-201.62 384.58,-192.05"/>
<polygon fill="midnightblue" stroke="midnightblue" points="386.29,-195.12 393.81,-187.66 383.28,-188.8 386.29,-195.12"/>
</g>
<!-- Node3 -->
<g id="node3" class="node">
<title>Node3</title>
<g id="a_node3"><a xlink:href="wayland__app_8h.html" target="_top" xlink:title=" ">
<polygon fill="white" stroke="black" points="168,-112.5 168,-131.5 258,-131.5 258,-112.5 168,-112.5"/>
<text text-anchor="middle" x="213" y="-119.5" font-family="Arial" font-size="10.00">wayland_app.h</text>
</a>
</g>
</g>
<!-- Node2&#45;&gt;Node3 -->
<g id="edge2" class="edge">
<title>Node2&#45;&gt;Node3</title>
<path fill="none" stroke="midnightblue" d="M232.2,-168.08C229.09,-160.77 224.58,-150.18 220.71,-141.1"/>
<polygon fill="midnightblue" stroke="midnightblue" points="223.87,-139.58 216.73,-131.75 217.43,-142.32 223.87,-139.58"/>
</g>
<!-- Node7 -->
<g id="node7" class="node">
<title>Node7</title>
<g id="a_node7"><a xlink:title=" ">
<polygon fill="white" stroke="#bfbfbf" points="286.5,-56.5 286.5,-75.5 351.5,-75.5 351.5,-56.5 286.5,-56.5"/>
<text text-anchor="middle" x="319" y="-63.5" font-family="Arial" font-size="10.00">functional</text>
</a>
</g>
</g>
<!-- Node2&#45;&gt;Node7 -->
<g id="edge16" class="edge">
<title>Node2&#45;&gt;Node7</title>
<path fill="none" stroke="midnightblue" d="M242.51,-168.37C256.27,-150.14 288.5,-107.43 306.42,-83.68"/>
<polygon fill="midnightblue" stroke="midnightblue" points="309.29,-85.68 312.52,-75.59 303.7,-81.47 309.29,-85.68"/>
</g>
<!-- Node9 -->
<g id="node9" class="node">
<title>Node9</title>
<g id="a_node9"><a xlink:href="size_8h.html" target="_top" xlink:title=" ">
<polygon fill="white" stroke="black" points="337.5,-112.5 337.5,-131.5 452.5,-131.5 452.5,-112.5 337.5,-112.5"/>
<text text-anchor="middle" x="395" y="-119.5" font-family="Arial" font-size="10.00">mir/geometry/size.h</text>
</a>
</g>
</g>
<!-- Node2&#45;&gt;Node9 -->
<g id="edge8" class="edge">
<title>Node2&#45;&gt;Node9</title>
<path fill="none" stroke="midnightblue" d="M261.19,-168.44C287.94,-159.36 330.4,-144.94 360.31,-134.78"/>
<polygon fill="midnightblue" stroke="midnightblue" points="361.58,-138.05 369.92,-131.52 359.33,-131.42 361.58,-138.05"/>
</g>
<!-- Node4 -->
<g id="node4" class="node">
<title>Node4</title>
<g id="a_node4"><a xlink:title=" ">
<polygon fill="white" stroke="#bfbfbf" points="76,-56.5 76,-75.5 174,-75.5 174,-56.5 76,-56.5"/>
<text text-anchor="middle" x="125" y="-63.5" font-family="Arial" font-size="10.00">wayland&#45;client.h</text>
</a>
</g>
</g>
<!-- Node3&#45;&gt;Node4 -->
<g id="edge3" class="edge">
<title>Node3&#45;&gt;Node4</title>
<path fill="none" stroke="midnightblue" d="M198.86,-112.32C185.13,-103.9 164.06,-90.97 147.94,-81.07"/>
<polygon fill="midnightblue" stroke="midnightblue" points="149.46,-77.9 139.1,-75.65 145.8,-83.87 149.46,-77.9"/>
</g>
<!-- Node3&#45;&gt;Node5 -->
<g id="edge4" class="edge">
<title>Node3&#45;&gt;Node5</title>
<path fill="none" stroke="midnightblue" d="M183.84,-112.44C152.49,-103.24 102.47,-88.56 67.8,-78.39"/>
<polygon fill="midnightblue" stroke="midnightblue" points="68.6,-74.97 58.02,-75.52 66.63,-81.69 68.6,-74.97"/>
</g>
<!-- Node6 -->
<g id="node6" class="node">
<title>Node6</title>
<g id="a_node6"><a xlink:title=" ">
<polygon fill="white" stroke="#bfbfbf" points="192,-56.5 192,-75.5 230,-75.5 230,-56.5 192,-56.5"/>
<text text-anchor="middle" x="211" y="-63.5" font-family="Arial" font-size="10.00">map</text>
</a>
</g>
</g>
<!-- Node3&#45;&gt;Node6 -->
<g id="edge5" class="edge">
<title>Node3&#45;&gt;Node6</title>
<path fill="none" stroke="midnightblue" d="M212.67,-112.08C212.41,-105.01 212.03,-94.86 211.7,-85.99"/>
<polygon fill="midnightblue" stroke="midnightblue" points="215.19,-85.61 211.32,-75.75 208.2,-85.87 215.19,-85.61"/>
</g>
<!-- Node3&#45;&gt;Node7 -->
<g id="edge6" class="edge">
<title>Node3&#45;&gt;Node7</title>
<path fill="none" stroke="midnightblue" d="M230.03,-112.32C247.03,-103.66 273.38,-90.24 292.99,-80.25"/>
<polygon fill="midnightblue" stroke="midnightblue" points="294.69,-83.31 302.01,-75.65 291.51,-77.08 294.69,-83.31"/>
</g>
<!-- Node8 -->
<g id="node8" class="node">
<title>Node8</title>
<g id="a_node8"><a xlink:title=" ">
<polygon fill="white" stroke="#bfbfbf" points="256,-0.5 256,-19.5 306,-19.5 306,-0.5 256,-0.5"/>
<text text-anchor="middle" x="281" y="-7.5" font-family="Arial" font-size="10.00">cstdint</text>
</a>
</g>
</g>
<!-- Node3&#45;&gt;Node8 -->
<g id="edge7" class="edge">
<title>Node3&#45;&gt;Node8</title>
<path fill="none" stroke="midnightblue" d="M218.34,-112.37C229.51,-94.3 255.55,-52.18 270.3,-28.31"/>
<polygon fill="midnightblue" stroke="midnightblue" points="273.41,-29.94 275.69,-19.59 267.45,-26.26 273.41,-29.94"/>
</g>
<!-- Node10 -->
<g id="node10" class="node">
<title>Node10</title>
<g id="a_node10"><a xlink:href="forward_8h.html" target="_top" xlink:title=" ">
<polygon fill="white" stroke="black" points="345.5,-0.5 345.5,-19.5 408.5,-19.5 408.5,-0.5 345.5,-0.5"/>
<text text-anchor="middle" x="377" y="-7.5" font-family="Arial" font-size="10.00">forward.h</text>
</a>
</g>
</g>
<!-- Node9&#45;&gt;Node10 -->
<g id="edge9" class="edge">
<title>Node9&#45;&gt;Node10</title>
<path fill="none" stroke="midnightblue" d="M393.59,-112.37C390.68,-94.62 383.98,-53.67 380.04,-29.6"/>
<polygon fill="midnightblue" stroke="midnightblue" points="383.47,-28.89 378.41,-19.59 376.57,-30.03 383.47,-28.89"/>
</g>
<!-- Node11 -->
<g id="node11" class="node">
<title>Node11</title>
<g id="a_node11"><a xlink:href="dimensions_8h.html" target="_top" xlink:title=" ">
<polygon fill="white" stroke="black" points="408,-56.5 408,-75.5 490,-75.5 490,-56.5 408,-56.5"/>
<text text-anchor="middle" x="449" y="-63.5" font-family="Arial" font-size="10.00">dimensions.h</text>
</a>
</g>
</g>
<!-- Node9&#45;&gt;Node11 -->
<g id="edge10" class="edge">
<title>Node9&#45;&gt;Node11</title>
<path fill="none" stroke="midnightblue" d="M403.92,-112.08C411.78,-104.22 423.43,-92.57 432.92,-83.08"/>
<polygon fill="midnightblue" stroke="midnightblue" points="435.65,-85.3 440.25,-75.75 430.7,-80.35 435.65,-85.3"/>
</g>
<!-- Node14 -->
<g id="node14" class="node">
<title>Node14</title>
<g id="a_node14"><a xlink:title=" ">
<polygon fill="white" stroke="#bfbfbf" points="508.5,-56.5 508.5,-75.5 565.5,-75.5 565.5,-56.5 508.5,-56.5"/>
<text text-anchor="middle" x="537" y="-63.5" font-family="Arial" font-size="10.00">ostream</text>
</a>
</g>
</g>
<!-- Node9&#45;&gt;Node14 -->
<g id="edge15" class="edge">
<title>Node9&#45;&gt;Node14</title>
<path fill="none" stroke="midnightblue" d="M417.5,-112.44C441.08,-103.48 478.32,-89.31 504.96,-79.18"/>
<polygon fill="midnightblue" stroke="midnightblue" points="506.5,-82.34 514.6,-75.52 504.01,-75.8 506.5,-82.34"/>
</g>
<!-- Node11&#45;&gt;Node8 -->
<g id="edge14" class="edge">
<title>Node11&#45;&gt;Node8</title>
<path fill="none" stroke="midnightblue" d="M422.38,-56.44C393.58,-47.19 347.53,-32.39 315.86,-22.21"/>
<polygon fill="midnightblue" stroke="midnightblue" points="316.71,-18.8 306.12,-19.08 314.57,-25.47 316.71,-18.8"/>
</g>
<!-- Node11&#45;&gt;Node10 -->
<g id="edge11" class="edge">
<title>Node11&#45;&gt;Node10</title>
<path fill="none" stroke="midnightblue" d="M437.43,-56.32C426.58,-48.18 410.12,-35.84 397.12,-26.09"/>
<polygon fill="midnightblue" stroke="midnightblue" points="398.88,-23.03 388.78,-19.83 394.68,-28.63 398.88,-23.03"/>
</g>
<!-- Node12 -->
<g id="node12" class="node">
<title>Node12</title>
<g id="a_node12"><a xlink:title=" ">
<polygon fill="white" stroke="#bfbfbf" points="427,-0.5 427,-19.5 475,-19.5 475,-0.5 427,-0.5"/>
<text text-anchor="middle" x="451" y="-7.5" font-family="Arial" font-size="10.00">iosfwd</text>
</a>
</g>
</g>
<!-- Node11&#45;&gt;Node12 -->
<g id="edge12" class="edge">
<title>Node11&#45;&gt;Node12</title>
<path fill="none" stroke="midnightblue" d="M449.33,-56.08C449.59,-49.01 449.97,-38.86 450.3,-29.99"/>
<polygon fill="midnightblue" stroke="midnightblue" points="453.8,-29.87 450.68,-19.75 446.81,-29.61 453.8,-29.87"/>
</g>
<!-- Node13 -->
<g id="node13" class="node">
<title>Node13</title>
<g id="a_node13"><a xlink:title=" ">
<polygon fill="white" stroke="#bfbfbf" points="493.5,-0.5 493.5,-19.5 562.5,-19.5 562.5,-0.5 493.5,-0.5"/>
<text text-anchor="middle" x="528" y="-7.5" font-family="Arial" font-size="10.00">type_traits</text>
</a>
</g>
</g>
<!-- Node11&#45;&gt;Node13 -->
<g id="edge13" class="edge">
<title>Node11&#45;&gt;Node13</title>
<path fill="none" stroke="midnightblue" d="M461.69,-56.32C473.9,-47.98 492.58,-35.21 507,-25.35"/>
<polygon fill="midnightblue" stroke="midnightblue" points="509.06,-28.19 515.34,-19.65 505.11,-22.41 509.06,-28.19"/>
</g>
</g>
</svg>
