<?xml version="1.0" encoding="UTF-8" standalone="no"?>
<!DOCTYPE svg PUBLIC "-//W3C//DTD SVG 1.1//EN"
 "http://www.w3.org/Graphics/SVG/1.1/DTD/svg11.dtd">
<!-- Generated by graphviz version 2.38.0 (20140413.2041)
 -->
<!-- Title: include/test/mir/test/doubles/mock_egl.h Pages: 1 -->
<svg width="149pt" height="106pt"
 viewBox="0.00 0.00 149.00 106.00" xmlns="http://www.w3.org/2000/svg" xmlns:xlink="http://www.w3.org/1999/xlink">
<g id="graph0" class="graph" transform="scale(1 1) rotate(0) translate(4 102)">
<title>include/test/mir/test/doubles/mock_egl.h</title>
<polygon fill="white" stroke="none" points="-4,4 -4,-102 145,-102 145,4 -4,4"/>
<!-- Node9 -->
<g id="node1" class="node"><title>Node9</title>
<polygon fill="#bfbfbf" stroke="black" points="17,-67.5 17,-97.5 124,-97.5 124,-67.5 17,-67.5"/>
<text text-anchor="start" x="25" y="-85.5" font-family="Arial" font-size="10.00">include/test/mir/test</text>
<text text-anchor="middle" x="70.5" y="-74.5" font-family="Arial" font-size="10.00">/doubles/mock_egl.h</text>
</g>
<!-- Node10 -->
<g id="node2" class="node"><title>Node10</title>
<g id="a_node2"><a xlink:href="nested__mock__egl_8h.html" target="_top" xlink:title="include/test/mir/test\l/doubles/nested_mock_egl.h">
<polygon fill="white" stroke="black" points="0,-0.5 0,-30.5 141,-30.5 141,-0.5 0,-0.5"/>
<text text-anchor="start" x="8" y="-18.5" font-family="Arial" font-size="10.00">include/test/mir/test</text>
<text text-anchor="middle" x="70.5" y="-7.5" font-family="Arial" font-size="10.00">/doubles/nested_mock_egl.h</text>
</a>
</g>
</g>
<!-- Node9&#45;&gt;Node10 -->
<g id="edge1" class="edge"><title>Node9&#45;&gt;Node10</title>
<path fill="none" stroke="midnightblue" d="M70.5,-57.1081C70.5,-48.1539 70.5,-38.3227 70.5,-30.5765"/>
<polygon fill="midnightblue" stroke="midnightblue" points="67.0001,-57.3959 70.5,-67.396 74.0001,-57.396 67.0001,-57.3959"/>
</g>
</g>
</svg>
