<?xml version="1.0" encoding="UTF-8" standalone="no"?>
<!DOCTYPE svg PUBLIC "-//W3C//DTD SVG 1.1//EN"
 "http://www.w3.org/Graphics/SVG/1.1/DTD/svg11.dtd">
<!-- Generated by graphviz version 2.38.0 (20140413.2041)
 -->
<!-- Title: include/test/mir/test/doubles/mock_egl_native_surface.h Pages: 1 -->
<svg width="216pt" height="117pt"
 viewBox="0.00 0.00 216.00 117.00" xmlns="http://www.w3.org/2000/svg" xmlns:xlink="http://www.w3.org/1999/xlink">
<g id="graph0" class="graph" transform="scale(1 1) rotate(0) translate(4 113)">
<title>include/test/mir/test/doubles/mock_egl_native_surface.h</title>
<polygon fill="white" stroke="none" points="-4,4 -4,-113 212,-113 212,4 -4,4"/>
<!-- Node0 -->
<g id="node1" class="node"><title>Node0</title>
<polygon fill="#bfbfbf" stroke="black" points="43,-67.5 43,-108.5 173,-108.5 173,-67.5 43,-67.5"/>
<text text-anchor="start" x="51" y="-96.5" font-family="Arial" font-size="10.00">include/test/mir/test</text>
<text text-anchor="start" x="51" y="-85.5" font-family="Arial" font-size="10.00">/doubles/mock_egl_native</text>
<text text-anchor="middle" x="108" y="-74.5" font-family="Arial" font-size="10.00">_surface.h</text>
</g>
<!-- Node1 -->
<g id="node2" class="node"><title>Node1</title>
<polygon fill="white" stroke="#bfbfbf" points="0,-0.5 0,-30.5 104,-30.5 104,-0.5 0,-0.5"/>
<text text-anchor="start" x="8" y="-18.5" font-family="Arial" font-size="10.00">mir/client/egl_native</text>
<text text-anchor="middle" x="52" y="-7.5" font-family="Arial" font-size="10.00">_surface.h</text>
</g>
<!-- Node0&#45;&gt;Node1 -->
<g id="edge1" class="edge"><title>Node0&#45;&gt;Node1</title>
<path fill="none" stroke="midnightblue" d="M92.4009,-67.3618C85.3639,-58.5028 77.0174,-47.9951 69.7427,-38.8369"/>
<polygon fill="midnightblue" stroke="midnightblue" points="72.3921,-36.545 63.4316,-30.8916 66.9109,-40.8989 72.3921,-36.545"/>
</g>
<!-- Node2 -->
<g id="node3" class="node"><title>Node2</title>
<polygon fill="white" stroke="#bfbfbf" points="122,-6 122,-25 208,-25 208,-6 122,-6"/>
<text text-anchor="middle" x="165" y="-13" font-family="Arial" font-size="10.00">gmock/gmock.h</text>
</g>
<!-- Node0&#45;&gt;Node2 -->
<g id="edge2" class="edge"><title>Node0&#45;&gt;Node2</title>
<path fill="none" stroke="midnightblue" d="M123.878,-67.3618C132.628,-56.5395 143.367,-43.2568 151.676,-32.9795"/>
<polygon fill="midnightblue" stroke="midnightblue" points="154.422,-35.1502 157.987,-25.1734 148.979,-30.7492 154.422,-35.1502"/>
</g>
</g>
</svg>
