<?xml version="1.0" encoding="UTF-8" standalone="no"?>
<!DOCTYPE svg PUBLIC "-//W3C//DTD SVG 1.1//EN"
 "http://www.w3.org/Graphics/SVG/1.1/DTD/svg11.dtd">
<!-- Generated by graphviz version 2.38.0 (20140413.2041)
 -->
<!-- Title: include/test/mir/test/doubles/mock_client_buffer.h Pages: 1 -->
<svg width="323pt" height="106pt"
 viewBox="0.00 0.00 322.50 106.00" xmlns="http://www.w3.org/2000/svg" xmlns:xlink="http://www.w3.org/1999/xlink">
<g id="graph0" class="graph" transform="scale(1 1) rotate(0) translate(4 102)">
<title>include/test/mir/test/doubles/mock_client_buffer.h</title>
<polygon fill="white" stroke="none" points="-4,4 -4,-102 318.5,-102 318.5,4 -4,4"/>
<!-- Node0 -->
<g id="node1" class="node"><title>Node0</title>
<polygon fill="#bfbfbf" stroke="black" points="120,-56.5 120,-97.5 229,-97.5 229,-56.5 120,-56.5"/>
<text text-anchor="start" x="128" y="-85.5" font-family="Arial" font-size="10.00">include/test/mir/test</text>
<text text-anchor="start" x="128" y="-74.5" font-family="Arial" font-size="10.00">/doubles/mock_client</text>
<text text-anchor="middle" x="174.5" y="-63.5" font-family="Arial" font-size="10.00">_buffer.h</text>
</g>
<!-- Node1 -->
<g id="node2" class="node"><title>Node1</title>
<polygon fill="white" stroke="#bfbfbf" points="0,-0.5 0,-19.5 121,-19.5 121,-0.5 0,-0.5"/>
<text text-anchor="middle" x="60.5" y="-7.5" font-family="Arial" font-size="10.00">mir/client/client_buffer.h</text>
</g>
<!-- Node0&#45;&gt;Node1 -->
<g id="edge1" class="edge"><title>Node0&#45;&gt;Node1</title>
<path fill="none" stroke="midnightblue" d="M140.296,-56.4979C122.314,-46.2447 100.707,-33.925 84.5148,-24.6927"/>
<polygon fill="midnightblue" stroke="midnightblue" points="86.0959,-21.5652 75.6751,-19.6525 82.6286,-27.6462 86.0959,-21.5652"/>
</g>
<!-- Node2 -->
<g id="node3" class="node"><title>Node2</title>
<polygon fill="white" stroke="#bfbfbf" points="139,-0.5 139,-19.5 210,-19.5 210,-0.5 139,-0.5"/>
<text text-anchor="middle" x="174.5" y="-7.5" font-family="Arial" font-size="10.00">gtest/gtest.h</text>
</g>
<!-- Node0&#45;&gt;Node2 -->
<g id="edge2" class="edge"><title>Node0&#45;&gt;Node2</title>
<path fill="none" stroke="midnightblue" d="M174.5,-56.4979C174.5,-48.0653 174.5,-38.2351 174.5,-29.874"/>
<polygon fill="midnightblue" stroke="midnightblue" points="178,-29.6525 174.5,-19.6525 171,-29.6525 178,-29.6525"/>
</g>
<!-- Node3 -->
<g id="node4" class="node"><title>Node3</title>
<polygon fill="white" stroke="#bfbfbf" points="228.5,-0.5 228.5,-19.5 314.5,-19.5 314.5,-0.5 228.5,-0.5"/>
<text text-anchor="middle" x="271.5" y="-7.5" font-family="Arial" font-size="10.00">gmock/gmock.h</text>
</g>
<!-- Node0&#45;&gt;Node3 -->
<g id="edge3" class="edge"><title>Node0&#45;&gt;Node3</title>
<path fill="none" stroke="midnightblue" d="M203.603,-56.4979C218.475,-46.5321 236.26,-34.6142 249.897,-25.4764"/>
<polygon fill="midnightblue" stroke="midnightblue" points="252.229,-28.1268 258.588,-19.6525 248.332,-22.3117 252.229,-28.1268"/>
</g>
</g>
</svg>
