<?xml version="1.0" encoding="UTF-8" standalone="no"?>
<!DOCTYPE svg PUBLIC "-//W3C//DTD SVG 1.1//EN"
 "http://www.w3.org/Graphics/SVG/1.1/DTD/svg11.dtd">
<!-- Generated by graphviz version 2.38.0 (20140413.2041)
 -->
<!-- Title: include/test/mir/test/doubles/mock_seat_report.h Pages: 1 -->
<svg width="238pt" height="95pt"
 viewBox="0.00 0.00 238.00 95.00" xmlns="http://www.w3.org/2000/svg" xmlns:xlink="http://www.w3.org/1999/xlink">
<g id="graph0" class="graph" transform="scale(1 1) rotate(0) translate(4 91)">
<title>include/test/mir/test/doubles/mock_seat_report.h</title>
<polygon fill="white" stroke="none" points="-4,4 -4,-91 234,-91 234,4 -4,4"/>
<!-- Node0 -->
<g id="node1" class="node"><title>Node0</title>
<polygon fill="#bfbfbf" stroke="black" points="53.5,-56.5 53.5,-86.5 196.5,-86.5 196.5,-56.5 53.5,-56.5"/>
<text text-anchor="start" x="61.5" y="-74.5" font-family="Arial" font-size="10.00">include/test/mir/test</text>
<text text-anchor="middle" x="125" y="-63.5" font-family="Arial" font-size="10.00">/doubles/mock_seat_report.h</text>
</g>
<!-- Node1 -->
<g id="node2" class="node"><title>Node1</title>
<polygon fill="white" stroke="#bfbfbf" points="0,-0.5 0,-19.5 126,-19.5 126,-0.5 0,-0.5"/>
<text text-anchor="middle" x="63" y="-7.5" font-family="Arial" font-size="10.00">mir/input/seat_observer.h</text>
</g>
<!-- Node0&#45;&gt;Node1 -->
<g id="edge1" class="edge"><title>Node0&#45;&gt;Node1</title>
<path fill="none" stroke="midnightblue" d="M110.307,-56.3993C101.019,-47.4859 89.0007,-35.9523 79.4022,-26.7408"/>
<polygon fill="midnightblue" stroke="midnightblue" points="81.6601,-24.0566 72.0215,-19.6578 76.8132,-29.1072 81.6601,-24.0566"/>
</g>
<!-- Node2 -->
<g id="node3" class="node"><title>Node2</title>
<polygon fill="white" stroke="#bfbfbf" points="144,-0.5 144,-19.5 230,-19.5 230,-0.5 144,-0.5"/>
<text text-anchor="middle" x="187" y="-7.5" font-family="Arial" font-size="10.00">gmock/gmock.h</text>
</g>
<!-- Node0&#45;&gt;Node2 -->
<g id="edge2" class="edge"><title>Node0&#45;&gt;Node2</title>
<path fill="none" stroke="midnightblue" d="M139.693,-56.3993C148.981,-47.4859 160.999,-35.9523 170.598,-26.7408"/>
<polygon fill="midnightblue" stroke="midnightblue" points="173.187,-29.1072 177.978,-19.6578 168.34,-24.0566 173.187,-29.1072"/>
</g>
</g>
</svg>
