<?xml version="1.0" encoding="UTF-8" standalone="no"?>
<!DOCTYPE svg PUBLIC "-//W3C//DTD SVG 1.1//EN"
 "http://www.w3.org/Graphics/SVG/1.1/DTD/svg11.dtd">
<!-- Generated by graphviz version 2.38.0 (20140413.2041)
 -->
<!-- Title: include/test/mir/test/doubles/mock_gl.h Pages: 1 -->
<svg width="184pt" height="95pt"
 viewBox="0.00 0.00 184.00 95.00" xmlns="http://www.w3.org/2000/svg" xmlns:xlink="http://www.w3.org/1999/xlink">
<g id="graph0" class="graph" transform="scale(1 1) rotate(0) translate(4 91)">
<title>include/test/mir/test/doubles/mock_gl.h</title>
<polygon fill="white" stroke="none" points="-4,4 -4,-91 180,-91 180,4 -4,4"/>
<!-- Node0 -->
<g id="node1" class="node"><title>Node0</title>
<polygon fill="#bfbfbf" stroke="black" points="39.5,-56.5 39.5,-86.5 142.5,-86.5 142.5,-56.5 39.5,-56.5"/>
<text text-anchor="start" x="47.5" y="-74.5" font-family="Arial" font-size="10.00">include/test/mir/test</text>
<text text-anchor="middle" x="91" y="-63.5" font-family="Arial" font-size="10.00">/doubles/mock_gl.h</text>
</g>
<!-- Node1 -->
<g id="node2" class="node"><title>Node1</title>
<polygon fill="white" stroke="#bfbfbf" points="0,-0.5 0,-19.5 86,-19.5 86,-0.5 0,-0.5"/>
<text text-anchor="middle" x="43" y="-7.5" font-family="Arial" font-size="10.00">gmock/gmock.h</text>
</g>
<!-- Node0&#45;&gt;Node1 -->
<g id="edge1" class="edge"><title>Node0&#45;&gt;Node1</title>
<path fill="none" stroke="midnightblue" d="M79.6247,-56.3993C72.6497,-47.7533 63.686,-36.642 56.3722,-27.576"/>
<polygon fill="midnightblue" stroke="midnightblue" points="58.9874,-25.2433 49.9844,-19.6578 53.5392,-29.6385 58.9874,-25.2433"/>
</g>
<!-- Node2 -->
<g id="node3" class="node"><title>Node2</title>
<polygon fill="white" stroke="#bfbfbf" points="104,-0.5 104,-19.5 176,-19.5 176,-0.5 104,-0.5"/>
<text text-anchor="middle" x="140" y="-7.5" font-family="Arial" font-size="10.00">GLES2/gl2.h</text>
</g>
<!-- Node0&#45;&gt;Node2 -->
<g id="edge2" class="edge"><title>Node0&#45;&gt;Node2</title>
<path fill="none" stroke="midnightblue" d="M102.612,-56.3993C109.733,-47.7533 118.883,-36.642 126.349,-27.576"/>
<polygon fill="midnightblue" stroke="midnightblue" points="129.215,-29.6021 132.87,-19.6578 123.811,-25.1521 129.215,-29.6021"/>
</g>
</g>
</svg>
