<?xml version="1.0" encoding="UTF-8" standalone="no"?>
<!DOCTYPE svg PUBLIC "-//W3C//DTD SVG 1.1//EN"
 "http://www.w3.org/Graphics/SVG/1.1/DTD/svg11.dtd">
<!-- Generated by graphviz version 2.38.0 (20140413.2041)
 -->
<!-- Title: include/test/mir/test/doubles/mock_input_dispatcher.h Pages: 1 -->
<svg width="250pt" height="95pt"
 viewBox="0.00 0.00 249.50 95.00" xmlns="http://www.w3.org/2000/svg" xmlns:xlink="http://www.w3.org/1999/xlink">
<g id="graph0" class="graph" transform="scale(1 1) rotate(0) translate(4 91)">
<title>include/test/mir/test/doubles/mock_input_dispatcher.h</title>
<polygon fill="white" stroke="none" points="-4,4 -4,-91 245.5,-91 245.5,4 -4,4"/>
<!-- Node0 -->
<g id="node1" class="node"><title>Node0</title>
<polygon fill="#bfbfbf" stroke="black" points="51,-56.5 51,-86.5 216,-86.5 216,-56.5 51,-56.5"/>
<text text-anchor="start" x="59" y="-74.5" font-family="Arial" font-size="10.00">include/test/mir/test</text>
<text text-anchor="middle" x="133.5" y="-63.5" font-family="Arial" font-size="10.00">/doubles/mock_input_dispatcher.h</text>
</g>
<!-- Node1 -->
<g id="node2" class="node"><title>Node1</title>
<polygon fill="white" stroke="#bfbfbf" points="0,-0.5 0,-19.5 137,-19.5 137,-0.5 0,-0.5"/>
<text text-anchor="middle" x="68.5" y="-7.5" font-family="Arial" font-size="10.00">mir/input/input_dispatcher.h</text>
</g>
<!-- Node0&#45;&gt;Node1 -->
<g id="edge1" class="edge"><title>Node0&#45;&gt;Node1</title>
<path fill="none" stroke="midnightblue" d="M118.096,-56.3993C108.261,-47.3967 95.5065,-35.7214 85.3947,-26.4652"/>
<polygon fill="midnightblue" stroke="midnightblue" points="87.6976,-23.8282 77.9581,-19.6578 82.9711,-28.9916 87.6976,-23.8282"/>
</g>
<!-- Node2 -->
<g id="node3" class="node"><title>Node2</title>
<polygon fill="white" stroke="#bfbfbf" points="155.5,-0.5 155.5,-19.5 241.5,-19.5 241.5,-0.5 155.5,-0.5"/>
<text text-anchor="middle" x="198.5" y="-7.5" font-family="Arial" font-size="10.00">gmock/gmock.h</text>
</g>
<!-- Node0&#45;&gt;Node2 -->
<g id="edge2" class="edge"><title>Node0&#45;&gt;Node2</title>
<path fill="none" stroke="midnightblue" d="M148.904,-56.3993C158.739,-47.3967 171.493,-35.7214 181.605,-26.4652"/>
<polygon fill="midnightblue" stroke="midnightblue" points="184.029,-28.9916 189.042,-19.6578 179.302,-23.8282 184.029,-28.9916"/>
</g>
</g>
</svg>
