<?xml version="1.0" encoding="UTF-8" standalone="no"?>
<!DOCTYPE svg PUBLIC "-//W3C//DTD SVG 1.1//EN"
 "http://www.w3.org/Graphics/SVG/1.1/DTD/svg11.dtd">
<!-- Generated by graphviz version 2.38.0 (20140413.2041)
 -->
<!-- Title: include/platform/mir/module_properties.h Pages: 1 -->
<svg width="241pt" height="184pt"
 viewBox="0.00 0.00 240.50 184.00" xmlns="http://www.w3.org/2000/svg" xmlns:xlink="http://www.w3.org/1999/xlink">
<g id="graph0" class="graph" transform="scale(1 1) rotate(0) translate(4 180)">
<title>include/platform/mir/module_properties.h</title>
<polygon fill="white" stroke="none" points="-4,4 -4,-180 236.5,-180 236.5,4 -4,4"/>
<!-- Node1 -->
<g id="node1" class="node"><title>Node1</title>
<polygon fill="#bfbfbf" stroke="black" points="67,-145.5 67,-175.5 174,-175.5 174,-145.5 67,-145.5"/>
<text text-anchor="start" x="75" y="-163.5" font-family="Arial" font-size="10.00">include/platform/mir</text>
<text text-anchor="middle" x="120.5" y="-152.5" font-family="Arial" font-size="10.00">/module_properties.h</text>
</g>
<!-- Node2 -->
<g id="node2" class="node"><title>Node2</title>
<g id="a_node2"><a xlink:href="graphics_2platform_8h.html" target="_top" xlink:title="include/platform/mir\l/graphics/platform.h">
<polygon fill="white" stroke="black" points="9,-78.5 9,-108.5 112,-108.5 112,-78.5 9,-78.5"/>
<text text-anchor="start" x="17" y="-96.5" font-family="Arial" font-size="10.00">include/platform/mir</text>
<text text-anchor="middle" x="60.5" y="-85.5" font-family="Arial" font-size="10.00">/graphics/platform.h</text>
</a>
</g>
</g>
<!-- Node1&#45;&gt;Node2 -->
<g id="edge1" class="edge"><title>Node1&#45;&gt;Node2</title>
<path fill="none" stroke="midnightblue" d="M100.676,-138.024C91.7368,-128.34 81.4298,-117.174 73.4937,-108.577"/>
<polygon fill="midnightblue" stroke="midnightblue" points="98.1262,-140.422 107.481,-145.396 103.27,-135.674 98.1262,-140.422"/>
</g>
<!-- Node4 -->
<g id="node4" class="node"><title>Node4</title>
<g id="a_node4"><a xlink:href="input_2platform_8h.html" target="_top" xlink:title="include/platform/mir\l/input/platform.h">
<polygon fill="white" stroke="black" points="130.5,-78.5 130.5,-108.5 232.5,-108.5 232.5,-78.5 130.5,-78.5"/>
<text text-anchor="start" x="138.5" y="-96.5" font-family="Arial" font-size="10.00">include/platform/mir</text>
<text text-anchor="middle" x="181.5" y="-85.5" font-family="Arial" font-size="10.00">/input/platform.h</text>
</a>
</g>
</g>
<!-- Node1&#45;&gt;Node4 -->
<g id="edge3" class="edge"><title>Node1&#45;&gt;Node4</title>
<path fill="none" stroke="midnightblue" d="M140.654,-138.024C149.743,-128.34 160.221,-117.174 168.29,-108.577"/>
<polygon fill="midnightblue" stroke="midnightblue" points="138.027,-135.709 133.736,-145.396 143.131,-140.499 138.027,-135.709"/>
</g>
<!-- Node3 -->
<g id="node3" class="node"><title>Node3</title>
<g id="a_node3"><a xlink:href="stub__server__platform__factory_8h.html" target="_top" xlink:title="include/test/mir_test\l_framework/stub_server\l_platform_factory.h">
<polygon fill="white" stroke="black" points="-7.10543e-15,-0.5 -7.10543e-15,-41.5 121,-41.5 121,-0.5 -7.10543e-15,-0.5"/>
<text text-anchor="start" x="8" y="-29.5" font-family="Arial" font-size="10.00">include/test/mir_test</text>
<text text-anchor="start" x="8" y="-18.5" font-family="Arial" font-size="10.00">_framework/stub_server</text>
<text text-anchor="middle" x="60.5" y="-7.5" font-family="Arial" font-size="10.00">_platform_factory.h</text>
</a>
</g>
</g>
<!-- Node2&#45;&gt;Node3 -->
<g id="edge2" class="edge"><title>Node2&#45;&gt;Node3</title>
<path fill="none" stroke="midnightblue" d="M60.5,-67.9815C60.5,-59.3468 60.5,-49.7625 60.5,-41.5884"/>
<polygon fill="midnightblue" stroke="midnightblue" points="57.0001,-68.2332 60.5,-78.2333 64.0001,-68.2333 57.0001,-68.2332"/>
</g>
</g>
</svg>
