<?xml version="1.0" encoding="UTF-8" standalone="no"?>
<!DOCTYPE svg PUBLIC "-//W3C//DTD SVG 1.1//EN"
 "http://www.w3.org/Graphics/SVG/1.1/DTD/svg11.dtd">
<!-- Generated by graphviz version 2.38.0 (20140413.2041)
 -->
<!-- Title: include/test/mir/test/doubles/null_display_buffer_compositor_factory.h Pages: 1 -->
<svg width="347pt" height="117pt"
 viewBox="0.00 0.00 346.50 117.00" xmlns="http://www.w3.org/2000/svg" xmlns:xlink="http://www.w3.org/1999/xlink">
<g id="graph0" class="graph" transform="scale(1 1) rotate(0) translate(4 113)">
<title>include/test/mir/test/doubles/null_display_buffer_compositor_factory.h</title>
<polygon fill="white" stroke="none" points="-4,4 -4,-113 342.5,-113 342.5,4 -4,4"/>
<!-- Node0 -->
<g id="node1" class="node"><title>Node0</title>
<polygon fill="#bfbfbf" stroke="black" points="147,-67.5 147,-108.5 290,-108.5 290,-67.5 147,-67.5"/>
<text text-anchor="start" x="155" y="-96.5" font-family="Arial" font-size="10.00">include/test/mir/test</text>
<text text-anchor="start" x="155" y="-85.5" font-family="Arial" font-size="10.00">/doubles/null_display</text>
<text text-anchor="middle" x="218.5" y="-74.5" font-family="Arial" font-size="10.00">_buffer_compositor_factory.h</text>
</g>
<!-- Node1 -->
<g id="node2" class="node"><title>Node1</title>
<polygon fill="white" stroke="#bfbfbf" points="0,-0.5 0,-30.5 143,-30.5 143,-0.5 0,-0.5"/>
<text text-anchor="start" x="8" y="-18.5" font-family="Arial" font-size="10.00">mir/compositor/display</text>
<text text-anchor="middle" x="71.5" y="-7.5" font-family="Arial" font-size="10.00">_buffer_compositor_factory.h</text>
</g>
<!-- Node0&#45;&gt;Node1 -->
<g id="edge1" class="edge"><title>Node0&#45;&gt;Node1</title>
<path fill="none" stroke="midnightblue" d="M177.552,-67.3618C156.483,-57.2569 130.94,-45.0071 110.203,-35.0615"/>
<polygon fill="midnightblue" stroke="midnightblue" points="111.576,-31.8385 101.046,-30.67 108.549,-38.1502 111.576,-31.8385"/>
</g>
<!-- Node2 -->
<g id="node3" class="node"><title>Node2</title>
<polygon fill="white" stroke="#bfbfbf" points="161,-0.5 161,-30.5 276,-30.5 276,-0.5 161,-0.5"/>
<text text-anchor="start" x="169" y="-18.5" font-family="Arial" font-size="10.00">mir/compositor/display</text>
<text text-anchor="middle" x="218.5" y="-7.5" font-family="Arial" font-size="10.00">_buffer_compositor.h</text>
</g>
<!-- Node0&#45;&gt;Node2 -->
<g id="edge2" class="edge"><title>Node0&#45;&gt;Node2</title>
<path fill="none" stroke="midnightblue" d="M218.5,-67.3618C218.5,-59.226 218.5,-49.6997 218.5,-41.105"/>
<polygon fill="midnightblue" stroke="midnightblue" points="222,-40.8916 218.5,-30.8916 215,-40.8916 222,-40.8916"/>
</g>
<!-- Node3 -->
<g id="node4" class="node"><title>Node3</title>
<polygon fill="white" stroke="#bfbfbf" points="294.5,-6 294.5,-25 338.5,-25 338.5,-6 294.5,-6"/>
<text text-anchor="middle" x="316.5" y="-13" font-family="Arial" font-size="10.00">thread</text>
</g>
<!-- Node0&#45;&gt;Node3 -->
<g id="edge3" class="edge"><title>Node0&#45;&gt;Node3</title>
<path fill="none" stroke="midnightblue" d="M245.798,-67.3618C261.745,-55.8901 281.534,-41.654 296.117,-31.1632"/>
<polygon fill="midnightblue" stroke="midnightblue" points="298.37,-33.8544 304.443,-25.1734 294.282,-28.172 298.37,-33.8544"/>
</g>
</g>
</svg>
