<?xml version="1.0" encoding="UTF-8" standalone="no"?>
<!DOCTYPE svg PUBLIC "-//W3C//DTD SVG 1.1//EN"
 "http://www.w3.org/Graphics/SVG/1.1/DTD/svg11.dtd">
<!-- Generated by graphviz version 2.38.0 (20140413.2041)
 -->
<!-- Title: include/test/mir/test/doubles/null_display_buffer.h Pages: 1 -->
<svg width="266pt" height="340pt"
 viewBox="0.00 0.00 265.50 340.00" xmlns="http://www.w3.org/2000/svg" xmlns:xlink="http://www.w3.org/1999/xlink">
<g id="graph0" class="graph" transform="scale(1 1) rotate(0) translate(4 336)">
<title>include/test/mir/test/doubles/null_display_buffer.h</title>
<polygon fill="white" stroke="none" points="-4,4 -4,-336 261.5,-336 261.5,4 -4,4"/>
<!-- Node2 -->
<g id="node1" class="node"><title>Node2</title>
<polygon fill="#bfbfbf" stroke="black" points="75,-290.5 75,-331.5 182,-331.5 182,-290.5 75,-290.5"/>
<text text-anchor="start" x="83" y="-319.5" font-family="Arial" font-size="10.00">include/test/mir/test</text>
<text text-anchor="start" x="83" y="-308.5" font-family="Arial" font-size="10.00">/doubles/null_display</text>
<text text-anchor="middle" x="128.5" y="-297.5" font-family="Arial" font-size="10.00">_buffer.h</text>
</g>
<!-- Node3 -->
<g id="node2" class="node"><title>Node3</title>
<g id="a_node2"><a xlink:href="null__display__sync__group_8h.html" target="_top" xlink:title="include/test/mir/test\l/doubles/null_display\l_sync_group.h">
<polygon fill="white" stroke="black" points="75,-134.5 75,-175.5 182,-175.5 182,-134.5 75,-134.5"/>
<text text-anchor="start" x="83" y="-163.5" font-family="Arial" font-size="10.00">include/test/mir/test</text>
<text text-anchor="start" x="83" y="-152.5" font-family="Arial" font-size="10.00">/doubles/null_display</text>
<text text-anchor="middle" x="128.5" y="-141.5" font-family="Arial" font-size="10.00">_sync_group.h</text>
</a>
</g>
</g>
<!-- Node2&#45;&gt;Node3 -->
<g id="edge1" class="edge"><title>Node2&#45;&gt;Node3</title>
<path fill="none" stroke="midnightblue" d="M114.685,-280.88C111.322,-272.404 108.204,-262.999 106.5,-254 103.027,-235.659 103.027,-230.341 106.5,-212 108.871,-199.479 113.979,-186.174 118.676,-175.676"/>
<polygon fill="midnightblue" stroke="midnightblue" points="111.56,-282.475 118.676,-290.324 118.008,-279.751 111.56,-282.475"/>
</g>
<!-- Node7 -->
<g id="node6" class="node"><title>Node7</title>
<g id="a_node6"><a xlink:href="stub__display__buffer_8h.html" target="_top" xlink:title="include/test/mir/test\l/doubles/stub_display\l_buffer.h">
<polygon fill="white" stroke="black" points="115,-212.5 115,-253.5 226,-253.5 226,-212.5 115,-212.5"/>
<text text-anchor="start" x="123" y="-241.5" font-family="Arial" font-size="10.00">include/test/mir/test</text>
<text text-anchor="start" x="123" y="-230.5" font-family="Arial" font-size="10.00">/doubles/stub_display</text>
<text text-anchor="middle" x="170.5" y="-219.5" font-family="Arial" font-size="10.00">_buffer.h</text>
</a>
</g>
</g>
<!-- Node2&#45;&gt;Node7 -->
<g id="edge5" class="edge"><title>Node2&#45;&gt;Node7</title>
<path fill="none" stroke="midnightblue" d="M144.269,-281.466C149.421,-272.143 155.022,-262.007 159.721,-253.506"/>
<polygon fill="midnightblue" stroke="midnightblue" points="141.09,-279.983 139.316,-290.428 147.216,-283.369 141.09,-279.983"/>
</g>
<!-- Node4 -->
<g id="node3" class="node"><title>Node4</title>
<g id="a_node3"><a xlink:href="null__display_8h.html" target="_top" xlink:title="include/test/mir/test\l/doubles/null_display.h">
<polygon fill="white" stroke="black" points="70.5,-67.5 70.5,-97.5 186.5,-97.5 186.5,-67.5 70.5,-67.5"/>
<text text-anchor="start" x="78.5" y="-85.5" font-family="Arial" font-size="10.00">include/test/mir/test</text>
<text text-anchor="middle" x="128.5" y="-74.5" font-family="Arial" font-size="10.00">/doubles/null_display.h</text>
</a>
</g>
</g>
<!-- Node3&#45;&gt;Node4 -->
<g id="edge2" class="edge"><title>Node3&#45;&gt;Node4</title>
<path fill="none" stroke="midnightblue" d="M128.5,-124.08C128.5,-115.006 128.5,-105.45 128.5,-97.8916"/>
<polygon fill="midnightblue" stroke="midnightblue" points="125,-124.362 128.5,-134.362 132,-124.362 125,-124.362"/>
</g>
<!-- Node5 -->
<g id="node4" class="node"><title>Node5</title>
<g id="a_node4"><a xlink:href="fake__display_8h.html" target="_top" xlink:title="include/test/mir/test\l/doubles/fake_display.h">
<polygon fill="white" stroke="black" points="0,-0.5 0,-30.5 119,-30.5 119,-0.5 0,-0.5"/>
<text text-anchor="start" x="8" y="-18.5" font-family="Arial" font-size="10.00">include/test/mir/test</text>
<text text-anchor="middle" x="59.5" y="-7.5" font-family="Arial" font-size="10.00">/doubles/fake_display.h</text>
</a>
</g>
</g>
<!-- Node4&#45;&gt;Node5 -->
<g id="edge3" class="edge"><title>Node4&#45;&gt;Node5</title>
<path fill="none" stroke="midnightblue" d="M106.008,-60.3115C95.6573,-50.5612 83.6596,-39.259 74.4428,-30.5765"/>
<polygon fill="midnightblue" stroke="midnightblue" points="103.849,-63.0866 113.528,-67.396 108.649,-57.9914 103.849,-63.0866"/>
</g>
<!-- Node6 -->
<g id="node5" class="node"><title>Node6</title>
<g id="a_node5"><a xlink:href="null__platform_8h.html" target="_top" xlink:title="include/test/mir/test\l/doubles/null_platform.h">
<polygon fill="white" stroke="black" points="137.5,-0.5 137.5,-30.5 257.5,-30.5 257.5,-0.5 137.5,-0.5"/>
<text text-anchor="start" x="145.5" y="-18.5" font-family="Arial" font-size="10.00">include/test/mir/test</text>
<text text-anchor="middle" x="197.5" y="-7.5" font-family="Arial" font-size="10.00">/doubles/null_platform.h</text>
</a>
</g>
</g>
<!-- Node4&#45;&gt;Node6 -->
<g id="edge4" class="edge"><title>Node4&#45;&gt;Node6</title>
<path fill="none" stroke="midnightblue" d="M150.992,-60.3115C161.343,-50.5612 173.34,-39.259 182.557,-30.5765"/>
<polygon fill="midnightblue" stroke="midnightblue" points="148.351,-57.9914 143.472,-67.396 153.151,-63.0866 148.351,-57.9914"/>
</g>
<!-- Node7&#45;&gt;Node3 -->
<g id="edge6" class="edge"><title>Node7&#45;&gt;Node3</title>
<path fill="none" stroke="midnightblue" d="M154.731,-203.466C149.579,-194.143 143.978,-184.007 139.279,-175.506"/>
<polygon fill="midnightblue" stroke="midnightblue" points="151.784,-205.369 159.684,-212.428 157.91,-201.983 151.784,-205.369"/>
</g>
</g>
</svg>
