<?xml version="1.0" encoding="UTF-8" standalone="no"?>
<!DOCTYPE svg PUBLIC "-//W3C//DTD SVG 1.1//EN"
 "http://www.w3.org/Graphics/SVG/1.1/DTD/svg11.dtd">
<!-- Generated by graphviz version 2.38.0 (20140413.2041)
 -->
<!-- Title: include/test/mir/test/doubles/null_platform_ipc_operations.h Pages: 1 -->
<svg width="250pt" height="117pt"
 viewBox="0.00 0.00 249.50 117.00" xmlns="http://www.w3.org/2000/svg" xmlns:xlink="http://www.w3.org/1999/xlink">
<g id="graph0" class="graph" transform="scale(1 1) rotate(0) translate(4 113)">
<title>include/test/mir/test/doubles/null_platform_ipc_operations.h</title>
<polygon fill="white" stroke="none" points="-4,4 -4,-113 245.5,-113 245.5,4 -4,4"/>
<!-- Node0 -->
<g id="node1" class="node"><title>Node0</title>
<polygon fill="#bfbfbf" stroke="black" points="63,-67.5 63,-108.5 175,-108.5 175,-67.5 63,-67.5"/>
<text text-anchor="start" x="71" y="-96.5" font-family="Arial" font-size="10.00">include/test/mir/test</text>
<text text-anchor="start" x="71" y="-85.5" font-family="Arial" font-size="10.00">/doubles/null_platform</text>
<text text-anchor="middle" x="119" y="-74.5" font-family="Arial" font-size="10.00">_ipc_operations.h</text>
</g>
<!-- Node1 -->
<g id="node2" class="node"><title>Node1</title>
<polygon fill="white" stroke="#bfbfbf" points="0,-0.5 0,-30.5 108,-30.5 108,-0.5 0,-0.5"/>
<text text-anchor="start" x="8" y="-18.5" font-family="Arial" font-size="10.00">mir/graphics/platform</text>
<text text-anchor="middle" x="54" y="-7.5" font-family="Arial" font-size="10.00">_ipc_operations.h</text>
</g>
<!-- Node0&#45;&gt;Node1 -->
<g id="edge1" class="edge"><title>Node0&#45;&gt;Node1</title>
<path fill="none" stroke="midnightblue" d="M100.894,-67.3618C92.5593,-58.322 82.642,-47.5655 74.0789,-38.2779"/>
<polygon fill="midnightblue" stroke="midnightblue" points="76.6206,-35.8712 67.2688,-30.8916 71.4741,-40.6161 76.6206,-35.8712"/>
</g>
<!-- Node2 -->
<g id="node3" class="node"><title>Node2</title>
<polygon fill="white" stroke="#bfbfbf" points="126.5,-0.5 126.5,-30.5 241.5,-30.5 241.5,-0.5 126.5,-0.5"/>
<text text-anchor="start" x="134.5" y="-18.5" font-family="Arial" font-size="10.00">mir/graphics/platform</text>
<text text-anchor="middle" x="184" y="-7.5" font-family="Arial" font-size="10.00">_operation_message.h</text>
</g>
<!-- Node0&#45;&gt;Node2 -->
<g id="edge2" class="edge"><title>Node0&#45;&gt;Node2</title>
<path fill="none" stroke="midnightblue" d="M137.106,-67.3618C145.441,-58.322 155.358,-47.5655 163.921,-38.2779"/>
<polygon fill="midnightblue" stroke="midnightblue" points="166.526,-40.6161 170.731,-30.8916 161.379,-35.8712 166.526,-40.6161"/>
</g>
</g>
</svg>
