<?xml version="1.0" encoding="UTF-8" standalone="no"?>
<!DOCTYPE svg PUBLIC "-//W3C//DTD SVG 1.1//EN"
 "http://www.w3.org/Graphics/SVG/1.1/DTD/svg11.dtd">
<!-- Generated by graphviz version 2.38.0 (20140413.2041)
 -->
<!-- Title: include/test/mir/test/doubles/null_display.h Pages: 1 -->
<svg width="776pt" height="419pt"
 viewBox="0.00 0.00 775.50 419.00" xmlns="http://www.w3.org/2000/svg" xmlns:xlink="http://www.w3.org/1999/xlink">
<g id="graph0" class="graph" transform="scale(1 1) rotate(0) translate(4 415)">
<title>include/test/mir/test/doubles/null_display.h</title>
<polygon fill="white" stroke="none" points="-4,4 -4,-415 771.5,-415 771.5,4 -4,4"/>
<!-- Node0 -->
<g id="node1" class="node"><title>Node0</title>
<polygon fill="#bfbfbf" stroke="black" points="329,-380.5 329,-410.5 445,-410.5 445,-380.5 329,-380.5"/>
<text text-anchor="start" x="337" y="-398.5" font-family="Arial" font-size="10.00">include/test/mir/test</text>
<text text-anchor="middle" x="387" y="-387.5" font-family="Arial" font-size="10.00">/doubles/null_display.h</text>
</g>
<!-- Node1 -->
<g id="node2" class="node"><title>Node1</title>
<polygon fill="white" stroke="#bfbfbf" points="0,-252 0,-271 112,-271 112,-252 0,-252"/>
<text text-anchor="middle" x="56" y="-259" font-family="Arial" font-size="10.00">mir/graphics/display.h</text>
</g>
<!-- Node0&#45;&gt;Node1 -->
<g id="edge1" class="edge"><title>Node0&#45;&gt;Node1</title>
<path fill="none" stroke="midnightblue" d="M328.847,-392.919C275.016,-389.228 194.284,-377.88 133,-344 104.582,-328.289 80.5042,-298.447 67.1772,-279.562"/>
<polygon fill="midnightblue" stroke="midnightblue" points="69.8986,-277.34 61.3738,-271.049 64.1147,-281.283 69.8986,-277.34"/>
</g>
<!-- Node2 -->
<g id="node3" class="node"><title>Node2</title>
<polygon fill="white" stroke="#bfbfbf" points="276,-313.5 276,-343.5 374,-343.5 374,-313.5 276,-313.5"/>
<text text-anchor="start" x="284" y="-331.5" font-family="Arial" font-size="10.00">mir/graphics/virtual</text>
<text text-anchor="middle" x="325" y="-320.5" font-family="Arial" font-size="10.00">_output.h</text>
</g>
<!-- Node0&#45;&gt;Node2 -->
<g id="edge2" class="edge"><title>Node0&#45;&gt;Node2</title>
<path fill="none" stroke="midnightblue" d="M373.547,-380.396C365.341,-371.793 354.689,-360.626 345.455,-350.945"/>
<polygon fill="midnightblue" stroke="midnightblue" points="347.862,-348.397 338.427,-343.577 342.796,-353.228 347.862,-348.397"/>
</g>
<!-- Node3 -->
<g id="node4" class="node"><title>Node3</title>
<g id="a_node4"><a xlink:href="context__source_8h.html" target="_top" xlink:title="mir/renderer/gl/context\l_source.h">
<polygon fill="white" stroke="black" points="392,-313.5 392,-343.5 506,-343.5 506,-313.5 392,-313.5"/>
<text text-anchor="start" x="400" y="-331.5" font-family="Arial" font-size="10.00">mir/renderer/gl/context</text>
<text text-anchor="middle" x="449" y="-320.5" font-family="Arial" font-size="10.00">_source.h</text>
</a>
</g>
</g>
<!-- Node0&#45;&gt;Node3 -->
<g id="edge3" class="edge"><title>Node0&#45;&gt;Node3</title>
<path fill="none" stroke="midnightblue" d="M400.453,-380.396C408.659,-371.793 419.311,-360.626 428.545,-350.945"/>
<polygon fill="midnightblue" stroke="midnightblue" points="431.204,-353.228 435.573,-343.577 426.138,-348.397 431.204,-353.228"/>
</g>
<!-- Node5 -->
<g id="node6" class="node"><title>Node5</title>
<g id="a_node6"><a xlink:href="null__gl__context_8h.html" target="_top" xlink:title="mir/test/doubles/null\l_gl_context.h">
<polygon fill="white" stroke="black" points="524,-313.5 524,-343.5 628,-343.5 628,-313.5 524,-313.5"/>
<text text-anchor="start" x="532" y="-331.5" font-family="Arial" font-size="10.00">mir/test/doubles/null</text>
<text text-anchor="middle" x="576" y="-320.5" font-family="Arial" font-size="10.00">_gl_context.h</text>
</a>
</g>
</g>
<!-- Node0&#45;&gt;Node5 -->
<g id="edge5" class="edge"><title>Node0&#45;&gt;Node5</title>
<path fill="none" stroke="midnightblue" d="M428.01,-380.396C456.616,-370.558 494.972,-357.367 525.467,-346.879"/>
<polygon fill="midnightblue" stroke="midnightblue" points="526.752,-350.139 535.07,-343.577 524.475,-343.519 526.752,-350.139"/>
</g>
<!-- Node7 -->
<g id="node8" class="node"><title>Node7</title>
<g id="a_node8"><a xlink:href="null__display__configuration_8h.html" target="_top" xlink:title="mir/test/doubles/null\l_display_configuration.h">
<polygon fill="white" stroke="black" points="646.5,-313.5 646.5,-343.5 767.5,-343.5 767.5,-313.5 646.5,-313.5"/>
<text text-anchor="start" x="654.5" y="-331.5" font-family="Arial" font-size="10.00">mir/test/doubles/null</text>
<text text-anchor="middle" x="707" y="-320.5" font-family="Arial" font-size="10.00">_display_configuration.h</text>
</a>
</g>
</g>
<!-- Node0&#45;&gt;Node7 -->
<g id="edge7" class="edge"><title>Node0&#45;&gt;Node7</title>
<path fill="none" stroke="midnightblue" d="M445.109,-382.846C493.511,-373.12 564.546,-358.802 636.187,-344.161"/>
<polygon fill="midnightblue" stroke="midnightblue" points="637.201,-347.526 646.297,-342.093 635.799,-340.668 637.201,-347.526"/>
</g>
<!-- Node9 -->
<g id="node10" class="node"><title>Node9</title>
<g id="a_node10"><a xlink:href="null__display__sync__group_8h.html" target="_top" xlink:title="mir/test/doubles/null\l_display_sync_group.h">
<polygon fill="white" stroke="black" points="142,-313.5 142,-343.5 258,-343.5 258,-313.5 142,-313.5"/>
<text text-anchor="start" x="150" y="-331.5" font-family="Arial" font-size="10.00">mir/test/doubles/null</text>
<text text-anchor="middle" x="200" y="-320.5" font-family="Arial" font-size="10.00">_display_sync_group.h</text>
</a>
</g>
</g>
<!-- Node0&#45;&gt;Node9 -->
<g id="edge9" class="edge"><title>Node0&#45;&gt;Node9</title>
<path fill="none" stroke="midnightblue" d="M346.424,-380.396C318.121,-370.558 280.171,-357.367 249.998,-346.879"/>
<polygon fill="midnightblue" stroke="midnightblue" points="251.092,-343.554 240.497,-343.577 248.794,-350.166 251.092,-343.554"/>
</g>
<!-- Node4 -->
<g id="node5" class="node"><title>Node4</title>
<polygon fill="white" stroke="#bfbfbf" points="423,-252 423,-271 475,-271 475,-252 423,-252"/>
<text text-anchor="middle" x="449" y="-259" font-family="Arial" font-size="10.00">memory</text>
</g>
<!-- Node3&#45;&gt;Node4 -->
<g id="edge4" class="edge"><title>Node3&#45;&gt;Node4</title>
<path fill="none" stroke="midnightblue" d="M449,-313.396C449,-304.064 449,-291.714 449,-281.517"/>
<polygon fill="midnightblue" stroke="midnightblue" points="452.5,-281.195 449,-271.195 445.5,-281.195 452.5,-281.195"/>
</g>
<!-- Node6 -->
<g id="node7" class="node"><title>Node6</title>
<g id="a_node7"><a xlink:href="context_8h.html" target="_top" xlink:title="mir/renderer/gl/context.h">
<polygon fill="white" stroke="black" points="515,-252 515,-271 637,-271 637,-252 515,-252"/>
<text text-anchor="middle" x="576" y="-259" font-family="Arial" font-size="10.00">mir/renderer/gl/context.h</text>
</a>
</g>
</g>
<!-- Node5&#45;&gt;Node6 -->
<g id="edge6" class="edge"><title>Node5&#45;&gt;Node6</title>
<path fill="none" stroke="midnightblue" d="M576,-313.396C576,-304.064 576,-291.714 576,-281.517"/>
<polygon fill="midnightblue" stroke="midnightblue" points="579.5,-281.195 576,-271.195 572.5,-281.195 579.5,-281.195"/>
</g>
<!-- Node8 -->
<g id="node9" class="node"><title>Node8</title>
<polygon fill="white" stroke="#bfbfbf" points="655,-246.5 655,-276.5 759,-276.5 759,-246.5 655,-246.5"/>
<text text-anchor="start" x="663" y="-264.5" font-family="Arial" font-size="10.00">mir/graphics/display</text>
<text text-anchor="middle" x="707" y="-253.5" font-family="Arial" font-size="10.00">_configuration.h</text>
</g>
<!-- Node7&#45;&gt;Node8 -->
<g id="edge8" class="edge"><title>Node7&#45;&gt;Node8</title>
<path fill="none" stroke="midnightblue" d="M707,-313.396C707,-305.645 707,-295.812 707,-286.86"/>
<polygon fill="midnightblue" stroke="midnightblue" points="710.5,-286.576 707,-276.577 703.5,-286.577 710.5,-286.576"/>
</g>
<!-- Node9&#45;&gt;Node1 -->
<g id="edge10" class="edge"><title>Node9&#45;&gt;Node1</title>
<path fill="none" stroke="midnightblue" d="M168.754,-313.396C143.6,-302.041 108.549,-286.22 84.2321,-275.244"/>
<polygon fill="midnightblue" stroke="midnightblue" points="85.4007,-271.931 74.8463,-271.007 82.5208,-278.311 85.4007,-271.931"/>
</g>
<!-- Node10 -->
<g id="node11" class="node"><title>Node10</title>
<g id="a_node11"><a xlink:href="size_8h.html" target="_top" xlink:title="mir/geometry/size.h">
<polygon fill="white" stroke="black" points="56.5,-118 56.5,-137 159.5,-137 159.5,-118 56.5,-118"/>
<text text-anchor="middle" x="108" y="-125" font-family="Arial" font-size="10.00">mir/geometry/size.h</text>
</a>
</g>
</g>
<!-- Node9&#45;&gt;Node10 -->
<g id="edge11" class="edge"><title>Node9&#45;&gt;Node10</title>
<path fill="none" stroke="midnightblue" d="M187.848,-313.195C180.007,-303.457 170.002,-290.018 163,-277 139.2,-232.754 121.353,-176.007 113.087,-147.152"/>
<polygon fill="midnightblue" stroke="midnightblue" points="116.376,-145.917 110.311,-137.23 109.635,-147.804 116.376,-145.917"/>
</g>
<!-- Node14 -->
<g id="node15" class="node"><title>Node14</title>
<g id="a_node15"><a xlink:href="null__display__buffer_8h.html" target="_top" xlink:title="mir/test/doubles/null\l_display_buffer.h">
<polygon fill="white" stroke="black" points="312,-179.5 312,-209.5 416,-209.5 416,-179.5 312,-179.5"/>
<text text-anchor="start" x="320" y="-197.5" font-family="Arial" font-size="10.00">mir/test/doubles/null</text>
<text text-anchor="middle" x="364" y="-186.5" font-family="Arial" font-size="10.00">_display_buffer.h</text>
</a>
</g>
</g>
<!-- Node9&#45;&gt;Node14 -->
<g id="edge16" class="edge"><title>Node9&#45;&gt;Node14</title>
<path fill="none" stroke="midnightblue" d="M229.904,-313.494C247.902,-304.364 270.78,-291.48 289,-277 311.122,-259.419 332.56,-235.167 346.81,-217.695"/>
<polygon fill="midnightblue" stroke="midnightblue" points="349.677,-219.714 353.199,-209.722 344.215,-215.337 349.677,-219.714"/>
</g>
<!-- Node16 -->
<g id="node17" class="node"><title>Node16</title>
<g id="a_node17"><a xlink:href="stub__display__buffer_8h.html" target="_top" xlink:title="mir/test/doubles/stub\l_display_buffer.h">
<polygon fill="white" stroke="black" points="172,-246.5 172,-276.5 280,-276.5 280,-246.5 172,-246.5"/>
<text text-anchor="start" x="180" y="-264.5" font-family="Arial" font-size="10.00">mir/test/doubles/stub</text>
<text text-anchor="middle" x="226" y="-253.5" font-family="Arial" font-size="10.00">_display_buffer.h</text>
</a>
</g>
</g>
<!-- Node9&#45;&gt;Node16 -->
<g id="edge18" class="edge"><title>Node9&#45;&gt;Node16</title>
<path fill="none" stroke="midnightblue" d="M205.642,-313.396C208.844,-305.389 212.935,-295.162 216.609,-285.978"/>
<polygon fill="midnightblue" stroke="midnightblue" points="219.905,-287.161 220.369,-276.577 213.406,-284.561 219.905,-287.161"/>
</g>
<!-- Node19 -->
<g id="node20" class="node"><title>Node19</title>
<polygon fill="white" stroke="#bfbfbf" points="336,-252 336,-271 380,-271 380,-252 336,-252"/>
<text text-anchor="middle" x="358" y="-259" font-family="Arial" font-size="10.00">thread</text>
</g>
<!-- Node9&#45;&gt;Node19 -->
<g id="edge26" class="edge"><title>Node9&#45;&gt;Node19</title>
<path fill="none" stroke="midnightblue" d="M234.284,-313.396C262.129,-301.941 301.026,-285.938 327.732,-274.952"/>
<polygon fill="midnightblue" stroke="midnightblue" points="329.405,-278.048 337.321,-271.007 326.742,-271.575 329.405,-278.048"/>
</g>
<!-- Node11 -->
<g id="node12" class="node"><title>Node11</title>
<g id="a_node12"><a xlink:href="dimensions_8h.html" target="_top" xlink:title="mir/geometry/dimensions.h">
<polygon fill="white" stroke="black" points="112,-56.5 112,-75.5 246,-75.5 246,-56.5 112,-56.5"/>
<text text-anchor="middle" x="179" y="-63.5" font-family="Arial" font-size="10.00">mir/geometry/dimensions.h</text>
</a>
</g>
</g>
<!-- Node10&#45;&gt;Node11 -->
<g id="edge12" class="edge"><title>Node10&#45;&gt;Node11</title>
<path fill="none" stroke="midnightblue" d="M118.173,-117.975C129.35,-108.608 147.517,-93.3839 161.091,-82.0081"/>
<polygon fill="midnightblue" stroke="midnightblue" points="163.43,-84.6148 168.846,-75.5091 158.934,-79.2496 163.43,-84.6148"/>
</g>
<!-- Node13 -->
<g id="node14" class="node"><title>Node13</title>
<polygon fill="white" stroke="#bfbfbf" points="236,-0.5 236,-19.5 280,-19.5 280,-0.5 236,-0.5"/>
<text text-anchor="middle" x="258" y="-7.5" font-family="Arial" font-size="10.00">iosfwd</text>
</g>
<!-- Node10&#45;&gt;Node13 -->
<g id="edge15" class="edge"><title>Node10&#45;&gt;Node13</title>
<path fill="none" stroke="midnightblue" d="M104.009,-117.663C98.1445,-103.197 89.295,-74.2498 103,-56 110.516,-45.9914 183.047,-28.0326 226.176,-18.097"/>
<polygon fill="midnightblue" stroke="midnightblue" points="226.963,-21.5075 235.934,-15.8703 225.406,-14.6829 226.963,-21.5075"/>
</g>
<!-- Node12 -->
<g id="node13" class="node"><title>Node12</title>
<polygon fill="white" stroke="#bfbfbf" points="156,-0.5 156,-19.5 202,-19.5 202,-0.5 156,-0.5"/>
<text text-anchor="middle" x="179" y="-7.5" font-family="Arial" font-size="10.00">cstdint</text>
</g>
<!-- Node11&#45;&gt;Node12 -->
<g id="edge13" class="edge"><title>Node11&#45;&gt;Node12</title>
<path fill="none" stroke="midnightblue" d="M179,-56.083C179,-49.0059 179,-38.8611 179,-29.9865"/>
<polygon fill="midnightblue" stroke="midnightblue" points="182.5,-29.751 179,-19.7511 175.5,-29.7511 182.5,-29.751"/>
</g>
<!-- Node11&#45;&gt;Node13 -->
<g id="edge14" class="edge"><title>Node11&#45;&gt;Node13</title>
<path fill="none" stroke="midnightblue" d="M191.693,-56.324C203.901,-47.979 222.578,-35.2122 237.003,-25.3524"/>
<polygon fill="midnightblue" stroke="midnightblue" points="239.058,-28.1871 245.339,-19.6545 235.108,-22.4082 239.058,-28.1871"/>
</g>
<!-- Node15 -->
<g id="node16" class="node"><title>Node15</title>
<polygon fill="white" stroke="#bfbfbf" points="340,-112.5 340,-142.5 444,-142.5 444,-112.5 340,-112.5"/>
<text text-anchor="start" x="348" y="-130.5" font-family="Arial" font-size="10.00">mir/graphics/display</text>
<text text-anchor="middle" x="392" y="-119.5" font-family="Arial" font-size="10.00">_buffer.h</text>
</g>
<!-- Node14&#45;&gt;Node15 -->
<g id="edge17" class="edge"><title>Node14&#45;&gt;Node15</title>
<path fill="none" stroke="midnightblue" d="M370.076,-179.396C373.525,-171.389 377.93,-161.162 381.887,-151.978"/>
<polygon fill="midnightblue" stroke="midnightblue" points="385.194,-153.145 385.936,-142.577 378.766,-150.376 385.194,-153.145"/>
</g>
<!-- Node16&#45;&gt;Node14 -->
<g id="edge19" class="edge"><title>Node16&#45;&gt;Node14</title>
<path fill="none" stroke="midnightblue" d="M255.944,-246.396C276.198,-236.856 303.146,-224.163 325.063,-213.84"/>
<polygon fill="midnightblue" stroke="midnightblue" points="326.559,-217.004 334.114,-209.577 323.576,-210.671 326.559,-217.004"/>
</g>
<!-- Node17 -->
<g id="node18" class="node"><title>Node17</title>
<g id="a_node18"><a xlink:href="rectangle_8h.html" target="_top" xlink:title="mir/geometry/rectangle.h">
<polygon fill="white" stroke="black" points="168.5,-185 168.5,-204 293.5,-204 293.5,-185 168.5,-185"/>
<text text-anchor="middle" x="231" y="-192" font-family="Arial" font-size="10.00">mir/geometry/rectangle.h</text>
</a>
</g>
</g>
<!-- Node16&#45;&gt;Node17 -->
<g id="edge20" class="edge"><title>Node16&#45;&gt;Node17</title>
<path fill="none" stroke="midnightblue" d="M227.085,-246.396C227.811,-236.963 228.773,-224.448 229.562,-214.189"/>
<polygon fill="midnightblue" stroke="midnightblue" points="233.054,-214.434 230.331,-204.195 226.074,-213.897 233.054,-214.434"/>
</g>
<!-- Node17&#45;&gt;Node10 -->
<g id="edge24" class="edge"><title>Node17&#45;&gt;Node10</title>
<path fill="none" stroke="midnightblue" d="M214.667,-184.869C193.898,-173.893 157.814,-154.824 133.43,-141.938"/>
<polygon fill="midnightblue" stroke="midnightblue" points="134.878,-138.745 124.401,-137.167 131.607,-144.934 134.878,-138.745"/>
</g>
<!-- Node17&#45;&gt;Node13 -->
<g id="edge25" class="edge"><title>Node17&#45;&gt;Node13</title>
<path fill="none" stroke="midnightblue" d="M248.606,-184.87C263.518,-176.476 283.883,-162.184 293,-143 311.489,-104.094 286.105,-53.9245 269.809,-28.076"/>
<polygon fill="midnightblue" stroke="midnightblue" points="272.733,-26.1523 264.315,-19.7192 266.884,-29.9978 272.733,-26.1523"/>
</g>
<!-- Node18 -->
<g id="node19" class="node"><title>Node18</title>
<g id="a_node19"><a xlink:href="point_8h.html" target="_top" xlink:title="mir/geometry/point.h">
<polygon fill="white" stroke="black" points="178,-118 178,-137 284,-137 284,-118 178,-118"/>
<text text-anchor="middle" x="231" y="-125" font-family="Arial" font-size="10.00">mir/geometry/point.h</text>
</a>
</g>
</g>
<!-- Node17&#45;&gt;Node18 -->
<g id="edge21" class="edge"><title>Node17&#45;&gt;Node18</title>
<path fill="none" stroke="midnightblue" d="M231,-184.734C231,-175.183 231,-159.618 231,-147.283"/>
<polygon fill="midnightblue" stroke="midnightblue" points="234.5,-147.127 231,-137.127 227.5,-147.127 234.5,-147.127"/>
</g>
<!-- Node18&#45;&gt;Node11 -->
<g id="edge22" class="edge"><title>Node18&#45;&gt;Node11</title>
<path fill="none" stroke="midnightblue" d="M223.55,-117.975C215.672,-108.962 203.055,-94.5246 193.256,-83.3118"/>
<polygon fill="midnightblue" stroke="midnightblue" points="195.653,-80.7356 186.437,-75.5091 190.382,-85.342 195.653,-80.7356"/>
</g>
<!-- Node18&#45;&gt;Node13 -->
<g id="edge23" class="edge"><title>Node18&#45;&gt;Node13</title>
<path fill="none" stroke="midnightblue" d="M236.365,-117.96C242.162,-108.226 251.093,-91.633 255,-76 258.813,-60.742 259.366,-42.856 259.077,-29.7128"/>
<polygon fill="midnightblue" stroke="midnightblue" points="262.568,-29.4193 258.667,-19.5688 255.574,-29.702 262.568,-29.4193"/>
</g>
</g>
</svg>
