<?xml version="1.0" encoding="UTF-8" standalone="no"?>
<!DOCTYPE svg PUBLIC "-//W3C//DTD SVG 1.1//EN"
 "http://www.w3.org/Graphics/SVG/1.1/DTD/svg11.dtd">
<!-- Generated by graphviz version 2.43.0 (0)
 -->
<!-- Title: include/miroil/miroil/open_gl_context.h Pages: 1 -->
<svg width="301pt" height="95pt"
 viewBox="0.00 0.00 301.00 95.00" xmlns="http://www.w3.org/2000/svg" xmlns:xlink="http://www.w3.org/1999/xlink">
<g id="graph0" class="graph" transform="scale(1 1) rotate(0) translate(4 91)">
<title>include/miroil/miroil/open_gl_context.h</title>
<polygon fill="white" stroke="transparent" points="-4,4 -4,-91 297,-91 297,4 -4,4"/>
<!-- Node1 -->
<g id="node1" class="node">
<title>Node1</title>
<g id="a_node1"><a xlink:title=" ">
<polygon fill="#bfbfbf" stroke="black" points="123,-56.5 123,-86.5 238,-86.5 238,-56.5 123,-56.5"/>
<text text-anchor="start" x="131" y="-74.5" font-family="Arial" font-size="10.00">include/miroil/miroil</text>
<text text-anchor="middle" x="180.5" y="-63.5" font-family="Arial" font-size="10.00">/open_gl_context.h</text>
</a>
</g>
</g>
<!-- Node2 -->
<g id="node2" class="node">
<title>Node2</title>
<g id="a_node2"><a xlink:title=" ">
<polygon fill="white" stroke="#bfbfbf" points="0,-0.5 0,-19.5 133,-19.5 133,-0.5 0,-0.5"/>
<text text-anchor="middle" x="66.5" y="-7.5" font-family="Arial" font-size="10.00">mir/graphics/gl_config.h</text>
</a>
</g>
</g>
<!-- Node1&#45;&gt;Node2 -->
<g id="edge1" class="edge">
<title>Node1&#45;&gt;Node2</title>
<path fill="none" stroke="midnightblue" d="M153.48,-56.4C134.87,-46.68 110.29,-33.86 92.01,-24.31"/>
<polygon fill="midnightblue" stroke="midnightblue" points="93.57,-21.18 83.09,-19.66 90.33,-27.39 93.57,-21.18"/>
</g>
<!-- Node3 -->
<g id="node3" class="node">
<title>Node3</title>
<g id="a_node3"><a xlink:title=" ">
<polygon fill="white" stroke="#bfbfbf" points="151.5,-0.5 151.5,-19.5 209.5,-19.5 209.5,-0.5 151.5,-0.5"/>
<text text-anchor="middle" x="180.5" y="-7.5" font-family="Arial" font-size="10.00">memory</text>
</a>
</g>
</g>
<!-- Node1&#45;&gt;Node3 -->
<g id="edge2" class="edge">
<title>Node1&#45;&gt;Node3</title>
<path fill="none" stroke="midnightblue" d="M180.5,-56.4C180.5,-48.47 180.5,-38.46 180.5,-29.86"/>
<polygon fill="midnightblue" stroke="midnightblue" points="184,-29.66 180.5,-19.66 177,-29.66 184,-29.66"/>
</g>
<!-- Node4 -->
<g id="node4" class="node">
<title>Node4</title>
<g id="a_node4"><a xlink:title=" ">
<polygon fill="white" stroke="#bfbfbf" points="228,-0.5 228,-19.5 293,-19.5 293,-0.5 228,-0.5"/>
<text text-anchor="middle" x="260.5" y="-7.5" font-family="Arial" font-size="10.00">functional</text>
</a>
</g>
</g>
<!-- Node1&#45;&gt;Node4 -->
<g id="edge3" class="edge">
<title>Node1&#45;&gt;Node4</title>
<path fill="none" stroke="midnightblue" d="M199.46,-56.4C211.92,-47.13 228.2,-35.03 240.81,-25.65"/>
<polygon fill="midnightblue" stroke="midnightblue" points="242.92,-28.43 248.86,-19.66 238.75,-22.82 242.92,-28.43"/>
</g>
</g>
</svg>
