<?xml version="1.0" encoding="UTF-8" standalone="no"?>
<!DOCTYPE svg PUBLIC "-//W3C//DTD SVG 1.1//EN"
 "http://www.w3.org/Graphics/SVG/1.1/DTD/svg11.dtd">
<!-- Generated by graphviz version 2.38.0 (20140413.2041)
 -->
<!-- Title: include/platform/mir/options/option.h Pages: 1 -->
<svg width="144pt" height="95pt"
 viewBox="0.00 0.00 144.00 95.00" xmlns="http://www.w3.org/2000/svg" xmlns:xlink="http://www.w3.org/1999/xlink">
<g id="graph0" class="graph" transform="scale(1 1) rotate(0) translate(4 91)">
<title>include/platform/mir/options/option.h</title>
<polygon fill="white" stroke="none" points="-4,4 -4,-91 140,-91 140,4 -4,4"/>
<!-- Node0 -->
<g id="node1" class="node"><title>Node0</title>
<polygon fill="#bfbfbf" stroke="black" points="25.5,-56.5 25.5,-86.5 127.5,-86.5 127.5,-56.5 25.5,-56.5"/>
<text text-anchor="start" x="33.5" y="-74.5" font-family="Arial" font-size="10.00">include/platform/mir</text>
<text text-anchor="middle" x="76.5" y="-63.5" font-family="Arial" font-size="10.00">/options/option.h</text>
</g>
<!-- Node1 -->
<g id="node2" class="node"><title>Node1</title>
<polygon fill="white" stroke="#bfbfbf" points="0,-0.5 0,-19.5 77,-19.5 77,-0.5 0,-0.5"/>
<text text-anchor="middle" x="38.5" y="-7.5" font-family="Arial" font-size="10.00">boost/any.hpp</text>
</g>
<!-- Node0&#45;&gt;Node1 -->
<g id="edge1" class="edge"><title>Node0&#45;&gt;Node1</title>
<path fill="none" stroke="midnightblue" d="M67.4945,-56.3993C62.0865,-47.9315 55.1683,-37.0991 49.4461,-28.1393"/>
<polygon fill="midnightblue" stroke="midnightblue" points="52.3616,-26.2018 44.0293,-19.6578 46.4621,-29.9695 52.3616,-26.2018"/>
</g>
<!-- Node2 -->
<g id="node3" class="node"><title>Node2</title>
<polygon fill="white" stroke="#bfbfbf" points="95,-0.5 95,-19.5 136,-19.5 136,-0.5 95,-0.5"/>
<text text-anchor="middle" x="115.5" y="-7.5" font-family="Arial" font-size="10.00">string</text>
</g>
<!-- Node0&#45;&gt;Node2 -->
<g id="edge2" class="edge"><title>Node0&#45;&gt;Node2</title>
<path fill="none" stroke="midnightblue" d="M85.7425,-56.3993C91.2928,-47.9315 98.393,-37.0991 104.266,-28.1393"/>
<polygon fill="midnightblue" stroke="midnightblue" points="107.27,-29.94 109.825,-19.6578 101.416,-26.1026 107.27,-29.94"/>
</g>
</g>
</svg>
