<?xml version="1.0" encoding="UTF-8" standalone="no"?>
<!DOCTYPE svg PUBLIC "-//W3C//DTD SVG 1.1//EN"
 "http://www.w3.org/Graphics/SVG/1.1/DTD/svg11.dtd">
<!-- Generated by graphviz version 2.38.0 (20140413.2041)
 -->
<!-- Title: include/client/mir_toolkit/events/orientation_event.h Pages: 1 -->
<svg width="1559pt" height="318pt"
 viewBox="0.00 0.00 1558.50 318.00" xmlns="http://www.w3.org/2000/svg" xmlns:xlink="http://www.w3.org/1999/xlink">
<g id="graph0" class="graph" transform="scale(1 1) rotate(0) translate(4 314)">
<title>include/client/mir_toolkit/events/orientation_event.h</title>
<polygon fill="white" stroke="none" points="-4,4 -4,-314 1554.5,-314 1554.5,4 -4,4"/>
<!-- Node0 -->
<g id="node1" class="node"><title>Node0</title>
<polygon fill="#bfbfbf" stroke="black" points="738,-268.5 738,-309.5 865,-309.5 865,-268.5 738,-268.5"/>
<text text-anchor="start" x="746" y="-297.5" font-family="Arial" font-size="10.00">include/client/mir</text>
<text text-anchor="start" x="746" y="-286.5" font-family="Arial" font-size="10.00">_toolkit/events/orientation</text>
<text text-anchor="middle" x="801.5" y="-275.5" font-family="Arial" font-size="10.00">_event.h</text>
</g>
<!-- Node1 -->
<g id="node2" class="node"><title>Node1</title>
<g id="a_node2"><a xlink:href="toolkit_2events_2event_8h.html" target="_top" xlink:title="mir_toolkit/events\l/event.h">
<polygon fill="white" stroke="black" points="755.5,-201.5 755.5,-231.5 847.5,-231.5 847.5,-201.5 755.5,-201.5"/>
<text text-anchor="start" x="763.5" y="-219.5" font-family="Arial" font-size="10.00">mir_toolkit/events</text>
<text text-anchor="middle" x="801.5" y="-208.5" font-family="Arial" font-size="10.00">/event.h</text>
</a>
</g>
</g>
<!-- Node0&#45;&gt;Node1 -->
<g id="edge1" class="edge"><title>Node0&#45;&gt;Node1</title>
<path fill="none" stroke="midnightblue" d="M795.377,-268.362C794.679,-260.226 794.564,-250.7 795.031,-242.105"/>
<polygon fill="midnightblue" stroke="midnightblue" points="798.54,-242.161 795.935,-231.892 791.567,-241.544 798.54,-242.161"/>
</g>
<!-- Node1&#45;&gt;Node0 -->
<g id="edge25" class="edge"><title>Node1&#45;&gt;Node0</title>
<path fill="none" stroke="midnightblue" d="M807.065,-231.892C808.056,-239.532 808.426,-249.214 808.173,-258.376"/>
<polygon fill="midnightblue" stroke="midnightblue" points="804.678,-258.185 807.623,-268.362 811.668,-258.569 804.678,-258.185"/>
</g>
<!-- Node2 -->
<g id="node3" class="node"><title>Node2</title>
<polygon fill="white" stroke="#bfbfbf" points="0,-134.5 0,-153.5 51,-153.5 51,-134.5 0,-134.5"/>
<text text-anchor="middle" x="25.5" y="-141.5" font-family="Arial" font-size="10.00">stddef.h</text>
</g>
<!-- Node1&#45;&gt;Node2 -->
<g id="edge2" class="edge"><title>Node1&#45;&gt;Node2</title>
<path fill="none" stroke="midnightblue" d="M755.356,-214.701C615.268,-211.904 196.485,-200.699 65.5,-165 59.7882,-163.443 53.9303,-161.04 48.5201,-158.432"/>
<polygon fill="midnightblue" stroke="midnightblue" points="49.8763,-155.191 39.3934,-153.655 46.6306,-161.393 49.8763,-155.191"/>
</g>
<!-- Node3 -->
<g id="node4" class="node"><title>Node3</title>
<polygon fill="white" stroke="#bfbfbf" points="93,-0.5 93,-19.5 142,-19.5 142,-0.5 93,-0.5"/>
<text text-anchor="middle" x="117.5" y="-7.5" font-family="Arial" font-size="10.00">stdint.h</text>
</g>
<!-- Node1&#45;&gt;Node3 -->
<g id="edge3" class="edge"><title>Node1&#45;&gt;Node3</title>
<path fill="none" stroke="midnightblue" d="M755.094,-213.925C619.075,-209.005 227.76,-192.586 177.5,-165 139.395,-144.085 132.601,-128.116 118.5,-87 112.093,-68.318 112.836,-45.5026 114.558,-29.7729"/>
<polygon fill="midnightblue" stroke="midnightblue" points="118.045,-30.107 115.898,-19.732 111.106,-29.1816 118.045,-30.107"/>
</g>
<!-- Node4 -->
<g id="node5" class="node"><title>Node4</title>
<g id="a_node5"><a xlink:href="common_8h.html" target="_top" xlink:title="mir_toolkit/common.h">
<polygon fill="white" stroke="black" points="306.5,-134.5 306.5,-153.5 416.5,-153.5 416.5,-134.5 306.5,-134.5"/>
<text text-anchor="middle" x="361.5" y="-141.5" font-family="Arial" font-size="10.00">mir_toolkit/common.h</text>
</a>
</g>
</g>
<!-- Node1&#45;&gt;Node4 -->
<g id="edge4" class="edge"><title>Node1&#45;&gt;Node4</title>
<path fill="none" stroke="midnightblue" d="M755.435,-211.425C684.927,-204.696 546.239,-189.512 430.5,-165 419.589,-162.689 407.882,-159.552 397.266,-156.449"/>
<polygon fill="midnightblue" stroke="midnightblue" points="398.067,-153.035 387.483,-153.511 396.054,-159.739 398.067,-153.035"/>
</g>
<!-- Node5 -->
<g id="node6" class="node"><title>Node5</title>
<g id="a_node6"><a xlink:href="deprecations_8h.html" target="_top" xlink:title="mir_toolkit/deprecations.h">
<polygon fill="white" stroke="black" points="692.5,-62 692.5,-81 820.5,-81 820.5,-62 692.5,-62"/>
<text text-anchor="middle" x="756.5" y="-69" font-family="Arial" font-size="10.00">mir_toolkit/deprecations.h</text>
</a>
</g>
</g>
<!-- Node1&#45;&gt;Node5 -->
<g id="edge6" class="edge"><title>Node1&#45;&gt;Node5</title>
<path fill="none" stroke="midnightblue" d="M755.333,-215.697C671.769,-214.963 500.633,-208.093 463.5,-165 405.481,-97.6684 531.122,-114.266 682.5,-87 689.586,-85.7236 697.043,-84.3264 704.385,-82.9191"/>
<polygon fill="midnightblue" stroke="midnightblue" points="705.126,-86.3408 714.279,-81.0044 703.796,-79.4683 705.126,-86.3408"/>
</g>
<!-- Node6 -->
<g id="node7" class="node"><title>Node6</title>
<g id="a_node7"><a xlink:href="input__event_8h.html" target="_top" xlink:title="mir_toolkit/events\l/input/input_event.h">
<polygon fill="white" stroke="black" points="187,-129 187,-159 288,-159 288,-129 187,-129"/>
<text text-anchor="start" x="195" y="-147" font-family="Arial" font-size="10.00">mir_toolkit/events</text>
<text text-anchor="middle" x="237.5" y="-136" font-family="Arial" font-size="10.00">/input/input_event.h</text>
</a>
</g>
</g>
<!-- Node1&#45;&gt;Node6 -->
<g id="edge7" class="edge"><title>Node1&#45;&gt;Node6</title>
<path fill="none" stroke="midnightblue" d="M755.278,-214.455C664.516,-211.588 457.688,-201.204 288.5,-165 284.566,-164.158 280.529,-163.148 276.525,-162.034"/>
<polygon fill="midnightblue" stroke="midnightblue" points="277.304,-158.613 266.72,-159.09 275.291,-165.318 277.304,-158.613"/>
</g>
<!-- Node13 -->
<g id="node14" class="node"><title>Node13</title>
<g id="a_node14"><a xlink:href="resize__event_8h.html" target="_top" xlink:title="mir_toolkit/events\l/resize_event.h">
<polygon fill="white" stroke="black" points="472.5,-129 472.5,-159 564.5,-159 564.5,-129 472.5,-129"/>
<text text-anchor="start" x="480.5" y="-147" font-family="Arial" font-size="10.00">mir_toolkit/events</text>
<text text-anchor="middle" x="518.5" y="-136" font-family="Arial" font-size="10.00">/resize_event.h</text>
</a>
</g>
</g>
<!-- Node1&#45;&gt;Node13 -->
<g id="edge18" class="edge"><title>Node1&#45;&gt;Node13</title>
<path fill="none" stroke="midnightblue" d="M755.492,-208.374C707.188,-199.747 629.701,-183.987 564.5,-165 561.57,-164.147 558.571,-163.219 555.574,-162.245"/>
<polygon fill="midnightblue" stroke="midnightblue" points="556.687,-158.927 546.092,-159.015 554.429,-165.553 556.687,-158.927"/>
</g>
<!-- Node14 -->
<g id="node15" class="node"><title>Node14</title>
<g id="a_node15"><a xlink:href="surface__event_8h.html" target="_top" xlink:title="mir_toolkit/events\l/surface_event.h">
<polygon fill="white" stroke="black" points="582.5,-129 582.5,-159 674.5,-159 674.5,-129 582.5,-129"/>
<text text-anchor="start" x="590.5" y="-147" font-family="Arial" font-size="10.00">mir_toolkit/events</text>
<text text-anchor="middle" x="628.5" y="-136" font-family="Arial" font-size="10.00">/surface_event.h</text>
</a>
</g>
</g>
<!-- Node1&#45;&gt;Node14 -->
<g id="edge20" class="edge"><title>Node1&#45;&gt;Node14</title>
<path fill="none" stroke="midnightblue" d="M761.38,-201.403C732.929,-190.404 695.085,-175.044 667.004,-163.13"/>
<polygon fill="midnightblue" stroke="midnightblue" points="668.081,-159.784 657.51,-159.073 665.33,-166.221 668.081,-159.784"/>
</g>
<!-- Node15 -->
<g id="node16" class="node"><title>Node15</title>
<g id="a_node16"><a xlink:href="window__event_8h.html" target="_top" xlink:title="mir_toolkit/events\l/window_event.h">
<polygon fill="white" stroke="black" points="692.5,-129 692.5,-159 784.5,-159 784.5,-129 692.5,-129"/>
<text text-anchor="start" x="700.5" y="-147" font-family="Arial" font-size="10.00">mir_toolkit/events</text>
<text text-anchor="middle" x="738.5" y="-136" font-family="Arial" font-size="10.00">/window_event.h</text>
</a>
</g>
</g>
<!-- Node1&#45;&gt;Node15 -->
<g id="edge23" class="edge"><title>Node1&#45;&gt;Node15</title>
<path fill="none" stroke="midnightblue" d="M783.202,-201.233C773.215,-191.486 761.239,-178.374 752.07,-167.263"/>
<polygon fill="midnightblue" stroke="midnightblue" points="754.652,-164.887 745.684,-159.246 749.176,-169.248 754.652,-164.887"/>
</g>
<!-- Node16 -->
<g id="node17" class="node"><title>Node16</title>
<g id="a_node17"><a xlink:href="prompt__session__event_8h.html" target="_top" xlink:title="mir_toolkit/events\l/prompt_session_event.h">
<polygon fill="white" stroke="black" points="803,-129 803,-159 928,-159 928,-129 803,-129"/>
<text text-anchor="start" x="811" y="-147" font-family="Arial" font-size="10.00">mir_toolkit/events</text>
<text text-anchor="middle" x="865.5" y="-136" font-family="Arial" font-size="10.00">/prompt_session_event.h</text>
</a>
</g>
</g>
<!-- Node1&#45;&gt;Node16 -->
<g id="edge26" class="edge"><title>Node1&#45;&gt;Node16</title>
<path fill="none" stroke="midnightblue" d="M808.903,-201.233C816.696,-191.2 828.807,-177.6 839.919,-166.288"/>
<polygon fill="midnightblue" stroke="midnightblue" points="842.385,-168.772 847.022,-159.246 837.457,-163.801 842.385,-168.772"/>
</g>
<!-- Node17 -->
<g id="node18" class="node"><title>Node17</title>
<g id="a_node18"><a xlink:href="keymap__event_8h.html" target="_top" xlink:title="mir_toolkit/events\l/keymap_event.h">
<polygon fill="white" stroke="black" points="1202.5,-129 1202.5,-159 1294.5,-159 1294.5,-129 1202.5,-129"/>
<text text-anchor="start" x="1210.5" y="-147" font-family="Arial" font-size="10.00">mir_toolkit/events</text>
<text text-anchor="middle" x="1248.5" y="-136" font-family="Arial" font-size="10.00">/keymap_event.h</text>
</a>
</g>
</g>
<!-- Node1&#45;&gt;Node17 -->
<g id="edge28" class="edge"><title>Node1&#45;&gt;Node17</title>
<path fill="none" stroke="midnightblue" d="M847.634,-212.46C920.246,-207.215 1064.82,-194.092 1184.5,-165 1187.86,-164.183 1191.3,-163.23 1194.76,-162.192"/>
<polygon fill="midnightblue" stroke="midnightblue" points="1196.04,-165.455 1204.5,-159.08 1193.91,-158.787 1196.04,-165.455"/>
</g>
<!-- Node18 -->
<g id="node19" class="node"><title>Node18</title>
<g id="a_node19"><a xlink:href="input__configuration__event_8h.html" target="_top" xlink:title="mir_toolkit/events\l/input_configuration\l_event.h">
<polygon fill="white" stroke="black" points="946,-123.5 946,-164.5 1047,-164.5 1047,-123.5 946,-123.5"/>
<text text-anchor="start" x="954" y="-152.5" font-family="Arial" font-size="10.00">mir_toolkit/events</text>
<text text-anchor="start" x="954" y="-141.5" font-family="Arial" font-size="10.00">/input_configuration</text>
<text text-anchor="middle" x="996.5" y="-130.5" font-family="Arial" font-size="10.00">_event.h</text>
</a>
</g>
</g>
<!-- Node1&#45;&gt;Node18 -->
<g id="edge31" class="edge"><title>Node1&#45;&gt;Node18</title>
<path fill="none" stroke="midnightblue" d="M834.966,-201.403C862.798,-190.833 902.973,-176.237 936.333,-164.542"/>
<polygon fill="midnightblue" stroke="midnightblue" points="937.707,-167.769 945.995,-161.17 935.4,-161.16 937.707,-167.769"/>
</g>
<!-- Node19 -->
<g id="node20" class="node"><title>Node19</title>
<g id="a_node20"><a xlink:href="surface__output__event_8h.html" target="_top" xlink:title="mir_toolkit/events\l/surface_output_event.h">
<polygon fill="white" stroke="black" points="1065,-129 1065,-159 1184,-159 1184,-129 1065,-129"/>
<text text-anchor="start" x="1073" y="-147" font-family="Arial" font-size="10.00">mir_toolkit/events</text>
<text text-anchor="middle" x="1124.5" y="-136" font-family="Arial" font-size="10.00">/surface_output_event.h</text>
</a>
</g>
</g>
<!-- Node1&#45;&gt;Node19 -->
<g id="edge34" class="edge"><title>Node1&#45;&gt;Node19</title>
<path fill="none" stroke="midnightblue" d="M847.668,-206.44C897.346,-197.255 978.251,-182.004 1047.5,-165 1051.6,-163.993 1055.82,-162.897 1060.08,-161.753"/>
<polygon fill="midnightblue" stroke="midnightblue" points="1061.34,-165.039 1070.05,-159.019 1059.48,-158.289 1061.34,-165.039"/>
</g>
<!-- Node20 -->
<g id="node21" class="node"><title>Node20</title>
<g id="a_node21"><a xlink:href="window__output__event_8h.html" target="_top" xlink:title="mir_toolkit/events\l/window_output_event.h">
<polygon fill="white" stroke="black" points="1313,-129 1313,-159 1432,-159 1432,-129 1313,-129"/>
<text text-anchor="start" x="1321" y="-147" font-family="Arial" font-size="10.00">mir_toolkit/events</text>
<text text-anchor="middle" x="1372.5" y="-136" font-family="Arial" font-size="10.00">/window_output_event.h</text>
</a>
</g>
</g>
<!-- Node1&#45;&gt;Node20 -->
<g id="edge37" class="edge"><title>Node1&#45;&gt;Node20</title>
<path fill="none" stroke="midnightblue" d="M847.532,-213.415C935.285,-209.026 1131.75,-196.501 1294.5,-165 1299.5,-164.032 1304.66,-162.865 1309.84,-161.585"/>
<polygon fill="midnightblue" stroke="midnightblue" points="1310.98,-164.905 1319.78,-159.011 1309.22,-158.129 1310.98,-164.905"/>
</g>
<!-- Node21 -->
<g id="node22" class="node"><title>Node21</title>
<g id="a_node22"><a xlink:href="input__device__state__event_8h.html" target="_top" xlink:title="mir_toolkit/events\l/input_device_state\l_event.h">
<polygon fill="white" stroke="black" points="1450.5,-123.5 1450.5,-164.5 1550.5,-164.5 1550.5,-123.5 1450.5,-123.5"/>
<text text-anchor="start" x="1458.5" y="-152.5" font-family="Arial" font-size="10.00">mir_toolkit/events</text>
<text text-anchor="start" x="1458.5" y="-141.5" font-family="Arial" font-size="10.00">/input_device_state</text>
<text text-anchor="middle" x="1500.5" y="-130.5" font-family="Arial" font-size="10.00">_event.h</text>
</a>
</g>
</g>
<!-- Node1&#45;&gt;Node21 -->
<g id="edge39" class="edge"><title>Node1&#45;&gt;Node21</title>
<path fill="none" stroke="midnightblue" d="M847.842,-215.739C953.036,-215.319 1216.88,-209.333 1432.5,-165 1435.14,-164.457 1437.83,-163.83 1440.53,-163.141"/>
<polygon fill="midnightblue" stroke="midnightblue" points="1441.67,-166.459 1450.36,-160.412 1439.79,-159.714 1441.67,-166.459"/>
</g>
<!-- Node4&#45;&gt;Node5 -->
<g id="edge5" class="edge"><title>Node4&#45;&gt;Node5</title>
<path fill="none" stroke="midnightblue" d="M387.819,-134.43C400.596,-130.512 416.234,-126.071 430.5,-123 541.104,-99.193 570.95,-105.884 682.5,-87 689.86,-85.7541 697.611,-84.344 705.216,-82.9045"/>
<polygon fill="midnightblue" stroke="midnightblue" points="705.924,-86.3326 715.083,-81.0067 704.601,-79.4586 705.924,-86.3326"/>
</g>
<!-- Node6&#45;&gt;Node1 -->
<g id="edge8" class="edge"><title>Node6&#45;&gt;Node1</title>
<path fill="none" stroke="midnightblue" d="M284.397,-159.09C291.768,-161.357 299.306,-163.461 306.5,-165 463.407,-198.576 652.687,-209.944 745.219,-213.705"/>
<polygon fill="midnightblue" stroke="midnightblue" points="745.349,-217.212 755.479,-214.106 745.623,-210.218 745.349,-217.212"/>
</g>
<!-- Node6&#45;&gt;Node3 -->
<g id="edge11" class="edge"><title>Node6&#45;&gt;Node3</title>
<path fill="none" stroke="midnightblue" d="M195.695,-128.98C175.032,-120.03 151.396,-106.402 136.5,-87 123.849,-70.5215 119.531,-46.6498 118.105,-30.0744"/>
<polygon fill="midnightblue" stroke="midnightblue" points="121.591,-29.7242 117.514,-19.9453 114.603,-30.1323 121.591,-29.7242"/>
</g>
<!-- Node7 -->
<g id="node8" class="node"><title>Node7</title>
<g id="a_node8"><a xlink:href="mir__input__device__types_8h.html" target="_top" xlink:title="mir_toolkit/mir_input\l_device_types.h">
<polygon fill="white" stroke="black" points="145.5,-56.5 145.5,-86.5 249.5,-86.5 249.5,-56.5 145.5,-56.5"/>
<text text-anchor="start" x="153.5" y="-74.5" font-family="Arial" font-size="10.00">mir_toolkit/mir_input</text>
<text text-anchor="middle" x="197.5" y="-63.5" font-family="Arial" font-size="10.00">_device_types.h</text>
</a>
</g>
</g>
<!-- Node6&#45;&gt;Node7 -->
<g id="edge9" class="edge"><title>Node6&#45;&gt;Node7</title>
<path fill="none" stroke="midnightblue" d="M229.405,-128.733C224.038,-119.273 216.872,-106.643 210.691,-95.7486"/>
<polygon fill="midnightblue" stroke="midnightblue" points="213.562,-93.7159 205.583,-86.7455 207.473,-97.1703 213.562,-93.7159"/>
</g>
<!-- Node8 -->
<g id="node9" class="node"><title>Node8</title>
<polygon fill="white" stroke="#bfbfbf" points="351.5,-0.5 351.5,-19.5 407.5,-19.5 407.5,-0.5 351.5,-0.5"/>
<text text-anchor="middle" x="379.5" y="-7.5" font-family="Arial" font-size="10.00">stdbool.h</text>
</g>
<!-- Node6&#45;&gt;Node8 -->
<g id="edge12" class="edge"><title>Node6&#45;&gt;Node8</title>
<path fill="none" stroke="midnightblue" d="M244.372,-128.82C253.948,-110.221 272.826,-77.4367 296.5,-56 311.532,-42.3884 331.42,-31.4231 347.96,-23.7254"/>
<polygon fill="midnightblue" stroke="midnightblue" points="349.546,-26.85 357.249,-19.5754 346.691,-20.4588 349.546,-26.85"/>
</g>
<!-- Node9 -->
<g id="node10" class="node"><title>Node9</title>
<g id="a_node10"><a xlink:href="touch__event_8h.html" target="_top" xlink:title="mir_toolkit/events\l/input/touch_event.h">
<polygon fill="white" stroke="black" points="305.5,-56.5 305.5,-86.5 409.5,-86.5 409.5,-56.5 305.5,-56.5"/>
<text text-anchor="start" x="313.5" y="-74.5" font-family="Arial" font-size="10.00">mir_toolkit/events</text>
<text text-anchor="middle" x="357.5" y="-63.5" font-family="Arial" font-size="10.00">/input/touch_event.h</text>
</a>
</g>
</g>
<!-- Node6&#45;&gt;Node9 -->
<g id="edge13" class="edge"><title>Node6&#45;&gt;Node9</title>
<path fill="none" stroke="midnightblue" d="M261.495,-128.903C279.645,-118.24 304.77,-103.479 324.764,-91.7323"/>
<polygon fill="midnightblue" stroke="midnightblue" points="326.697,-94.6561 333.546,-86.5729 323.151,-88.6206 326.697,-94.6561"/>
</g>
<!-- Node10 -->
<g id="node11" class="node"><title>Node10</title>
<g id="a_node11"><a xlink:href="keyboard__event_8h.html" target="_top" xlink:title="mir_toolkit/events\l/input/keyboard_event.h">
<polygon fill="white" stroke="black" points="555,-56.5 555,-86.5 674,-86.5 674,-56.5 555,-56.5"/>
<text text-anchor="start" x="563" y="-74.5" font-family="Arial" font-size="10.00">mir_toolkit/events</text>
<text text-anchor="middle" x="614.5" y="-63.5" font-family="Arial" font-size="10.00">/input/keyboard_event.h</text>
</a>
</g>
</g>
<!-- Node6&#45;&gt;Node10 -->
<g id="edge14" class="edge"><title>Node6&#45;&gt;Node10</title>
<path fill="none" stroke="midnightblue" d="M276.263,-128.965C283.27,-126.748 290.556,-124.648 297.5,-123 402.8,-98.0165 434.076,-105.971 544.816,-87.0319"/>
<polygon fill="midnightblue" stroke="midnightblue" points="545.456,-90.4732 554.706,-85.306 544.253,-83.5775 545.456,-90.4732"/>
</g>
<!-- Node12 -->
<g id="node13" class="node"><title>Node12</title>
<g id="a_node13"><a xlink:href="pointer__event_8h.html" target="_top" xlink:title="mir_toolkit/events\l/input/pointer_event.h">
<polygon fill="white" stroke="black" points="428,-56.5 428,-86.5 537,-86.5 537,-56.5 428,-56.5"/>
<text text-anchor="start" x="436" y="-74.5" font-family="Arial" font-size="10.00">mir_toolkit/events</text>
<text text-anchor="middle" x="482.5" y="-63.5" font-family="Arial" font-size="10.00">/input/pointer_event.h</text>
</a>
</g>
</g>
<!-- Node6&#45;&gt;Node12 -->
<g id="edge16" class="edge"><title>Node6&#45;&gt;Node12</title>
<path fill="none" stroke="midnightblue" d="M278.718,-128.928C284.992,-126.882 291.405,-124.846 297.5,-123 337.402,-110.914 382.534,-98.5681 418.231,-89.1088"/>
<polygon fill="midnightblue" stroke="midnightblue" points="419.262,-92.4566 428.037,-86.5199 417.475,-85.6885 419.262,-92.4566"/>
</g>
<!-- Node7&#45;&gt;Node3 -->
<g id="edge10" class="edge"><title>Node7&#45;&gt;Node3</title>
<path fill="none" stroke="midnightblue" d="M178.541,-56.3993C166.077,-47.1293 149.803,-35.0254 137.193,-25.6469"/>
<polygon fill="midnightblue" stroke="midnightblue" points="139.253,-22.8173 129.141,-19.6578 135.076,-28.4341 139.253,-22.8173"/>
</g>
<!-- Node11 -->
<g id="node12" class="node"><title>Node11</title>
<polygon fill="white" stroke="#bfbfbf" points="754.5,-0.5 754.5,-19.5 888.5,-19.5 888.5,-0.5 754.5,-0.5"/>
<text text-anchor="middle" x="821.5" y="-7.5" font-family="Arial" font-size="10.00">xkbcommon/xkbcommon.h</text>
</g>
<!-- Node10&#45;&gt;Node11 -->
<g id="edge15" class="edge"><title>Node10&#45;&gt;Node11</title>
<path fill="none" stroke="midnightblue" d="M663.294,-56.4747C699.474,-46.0752 748.169,-32.0783 781.936,-22.3722"/>
<polygon fill="midnightblue" stroke="midnightblue" points="783.262,-25.6328 791.906,-19.5064 781.329,-18.9052 783.262,-25.6328"/>
</g>
<!-- Node12&#45;&gt;Node8 -->
<g id="edge17" class="edge"><title>Node12&#45;&gt;Node8</title>
<path fill="none" stroke="midnightblue" d="M458.09,-56.3993C441.58,-46.8619 419.877,-34.3248 403.462,-24.8422"/>
<polygon fill="midnightblue" stroke="midnightblue" points="404.897,-21.6292 394.487,-19.6578 401.396,-27.6906 404.897,-21.6292"/>
</g>
<!-- Node13&#45;&gt;Node1 -->
<g id="edge19" class="edge"><title>Node13&#45;&gt;Node1</title>
<path fill="none" stroke="midnightblue" d="M563.837,-159.015C570.107,-161.157 576.452,-163.239 582.5,-165 637.211,-180.932 700.573,-194.592 745.105,-203.673"/>
<polygon fill="midnightblue" stroke="midnightblue" points="744.66,-207.154 755.156,-205.71 746.051,-200.293 744.66,-207.154"/>
</g>
<!-- Node14&#45;&gt;Node1 -->
<g id="edge21" class="edge"><title>Node14&#45;&gt;Node1</title>
<path fill="none" stroke="midnightblue" d="M668.556,-159.073C696.994,-170.066 734.838,-185.424 762.933,-197.343"/>
<polygon fill="midnightblue" stroke="midnightblue" points="761.862,-200.692 772.433,-201.403 764.613,-194.255 761.862,-200.692"/>
</g>
<!-- Node14&#45;&gt;Node5 -->
<g id="edge22" class="edge"><title>Node14&#45;&gt;Node5</title>
<path fill="none" stroke="midnightblue" d="M654.095,-128.903C676.821,-116.386 709.799,-98.222 732.143,-85.9156"/>
<polygon fill="midnightblue" stroke="midnightblue" points="733.936,-88.9238 741.006,-81.0336 730.559,-82.7923 733.936,-88.9238"/>
</g>
<!-- Node15&#45;&gt;Node1 -->
<g id="edge24" class="edge"><title>Node15&#45;&gt;Node1</title>
<path fill="none" stroke="midnightblue" d="M756.776,-159.246C766.76,-168.988 778.737,-182.099 787.91,-193.213"/>
<polygon fill="midnightblue" stroke="midnightblue" points="785.331,-195.592 794.3,-201.233 790.807,-191.231 785.331,-195.592"/>
</g>
<!-- Node16&#45;&gt;Node1 -->
<g id="edge27" class="edge"><title>Node16&#45;&gt;Node1</title>
<path fill="none" stroke="midnightblue" d="M858.114,-159.246C850.326,-169.274 838.218,-182.873 827.104,-194.188"/>
<polygon fill="midnightblue" stroke="midnightblue" points="824.636,-191.707 820,-201.233 829.565,-196.677 824.636,-191.707"/>
</g>
<!-- Node17&#45;&gt;Node1 -->
<g id="edge29" class="edge"><title>Node17&#45;&gt;Node1</title>
<path fill="none" stroke="midnightblue" d="M1222.2,-159.08C1215.83,-161.32 1209.02,-163.416 1202.5,-165 1082.06,-194.276 936.41,-207.381 857.935,-212.559"/>
<polygon fill="midnightblue" stroke="midnightblue" points="857.536,-209.077 847.78,-213.209 857.983,-216.063 857.536,-209.077"/>
</g>
<!-- Node17&#45;&gt;Node11 -->
<g id="edge30" class="edge"><title>Node17&#45;&gt;Node11</title>
<path fill="none" stroke="midnightblue" d="M1210.73,-128.947C1204.97,-126.899 1199.09,-124.857 1193.5,-123 1073.86,-83.2725 930.626,-41.8541 862.023,-22.3903"/>
<polygon fill="midnightblue" stroke="midnightblue" points="862.636,-18.9264 852.061,-19.5695 860.729,-25.6616 862.636,-18.9264"/>
</g>
<!-- Node18&#45;&gt;Node1 -->
<g id="edge32" class="edge"><title>Node18&#45;&gt;Node1</title>
<path fill="none" stroke="midnightblue" d="M948.551,-164.546C920.397,-175.053 884.797,-187.9 855.64,-198.065"/>
<polygon fill="midnightblue" stroke="midnightblue" points="854.32,-194.819 846.019,-201.403 856.614,-201.432 854.32,-194.819"/>
</g>
<!-- Node18&#45;&gt;Node5 -->
<g id="edge33" class="edge"><title>Node18&#45;&gt;Node5</title>
<path fill="none" stroke="midnightblue" d="M945.709,-125.586C942.937,-124.697 940.187,-123.83 937.5,-123 890.486,-108.485 836.045,-93.5448 799.246,-83.7185"/>
<polygon fill="midnightblue" stroke="midnightblue" points="799.919,-80.2759 789.356,-81.0871 798.12,-87.0406 799.919,-80.2759"/>
</g>
<!-- Node19&#45;&gt;Node1 -->
<g id="edge35" class="edge"><title>Node19&#45;&gt;Node1</title>
<path fill="none" stroke="midnightblue" d="M1087.81,-159.019C1080.47,-161.138 1072.79,-163.21 1065.5,-165 994.679,-182.39 911.668,-197.946 857.808,-207.056"/>
<polygon fill="midnightblue" stroke="midnightblue" points="857.054,-203.633 847.768,-208.736 858.209,-210.537 857.054,-203.633"/>
</g>
<!-- Node19&#45;&gt;Node5 -->
<g id="edge36" class="edge"><title>Node19&#45;&gt;Node5</title>
<path fill="none" stroke="midnightblue" d="M1079.34,-128.902C1071.76,-126.769 1063.93,-124.713 1056.5,-123 980.078,-105.395 891.383,-91.2236 830.361,-82.4249"/>
<polygon fill="midnightblue" stroke="midnightblue" points="830.829,-78.9563 820.434,-81.0057 829.838,-85.8858 830.829,-78.9563"/>
</g>
<!-- Node20&#45;&gt;Node1 -->
<g id="edge38" class="edge"><title>Node20&#45;&gt;Node1</title>
<path fill="none" stroke="midnightblue" d="M1337.46,-159.011C1329.34,-161.285 1320.7,-163.412 1312.5,-165 1149.62,-196.526 952.974,-209.045 858.034,-213.426"/>
<polygon fill="midnightblue" stroke="midnightblue" points="857.626,-209.94 847.793,-213.885 857.94,-216.933 857.626,-209.94"/>
</g>
<!-- Node21&#45;&gt;Node1 -->
<g id="edge40" class="edge"><title>Node21&#45;&gt;Node1</title>
<path fill="none" stroke="midnightblue" d="M1452.73,-164.523C1451.99,-164.688 1451.24,-164.848 1450.5,-165 1235.06,-209.297 971.466,-215.309 857.854,-215.738"/>
<polygon fill="midnightblue" stroke="midnightblue" points="857.649,-212.238 847.658,-215.763 857.666,-219.238 857.649,-212.238"/>
</g>
</g>
</svg>
