<?xml version="1.0" encoding="UTF-8" standalone="no"?>
<!DOCTYPE svg PUBLIC "-//W3C//DTD SVG 1.1//EN"
 "http://www.w3.org/Graphics/SVG/1.1/DTD/svg11.dtd">
<!-- Generated by graphviz version 2.43.0 (0)
 -->
<!-- Title: include/miral/miral/output.h Pages: 1 -->
<svg width="553pt" height="319pt"
 viewBox="0.00 0.00 553.00 319.00" xmlns="http://www.w3.org/2000/svg" xmlns:xlink="http://www.w3.org/1999/xlink">
<g id="graph0" class="graph" transform="scale(1 1) rotate(0) translate(4 315)">
<title>include/miral/miral/output.h</title>
<polygon fill="white" stroke="transparent" points="-4,4 -4,-315 549,-315 549,4 -4,4"/>
<!-- Node1 -->
<g id="node1" class="node">
<title>Node1</title>
<g id="a_node1"><a xlink:title=" ">
<polygon fill="#bfbfbf" stroke="black" points="341.5,-280.5 341.5,-310.5 436.5,-310.5 436.5,-280.5 341.5,-280.5"/>
<text text-anchor="start" x="349.5" y="-298.5" font-family="Arial" font-size="10.00">include/miral/miral</text>
<text text-anchor="middle" x="389" y="-287.5" font-family="Arial" font-size="10.00">/output.h</text>
</a>
</g>
</g>
<!-- Node2 -->
<g id="node2" class="node">
<title>Node2</title>
<g id="a_node2"><a xlink:href="common_8h.html" target="_top" xlink:title=" ">
<polygon fill="white" stroke="black" points="100,-224.5 100,-243.5 210,-243.5 210,-224.5 100,-224.5"/>
<text text-anchor="middle" x="155" y="-231.5" font-family="Arial" font-size="10.00">mir_toolkit/common.h</text>
</a>
</g>
</g>
<!-- Node1&#45;&gt;Node2 -->
<g id="edge1" class="edge">
<title>Node1&#45;&gt;Node2</title>
<path fill="none" stroke="midnightblue" d="M341.36,-282.39C299.48,-271.74 239.03,-256.37 198.45,-246.05"/>
<polygon fill="midnightblue" stroke="midnightblue" points="199.14,-242.61 188.58,-243.54 197.41,-249.4 199.14,-242.61"/>
</g>
<!-- Node3 -->
<g id="node3" class="node">
<title>Node3</title>
<g id="a_node3"><a xlink:href="rectangle_8h.html" target="_top" xlink:title=" ">
<polygon fill="white" stroke="black" points="228.5,-224.5 228.5,-243.5 353.5,-243.5 353.5,-224.5 228.5,-224.5"/>
<text text-anchor="middle" x="291" y="-231.5" font-family="Arial" font-size="10.00">mir/geometry/rectangle.h</text>
</a>
</g>
</g>
<!-- Node1&#45;&gt;Node3 -->
<g id="edge2" class="edge">
<title>Node1&#45;&gt;Node3</title>
<path fill="none" stroke="midnightblue" d="M365.78,-280.4C350.21,-270.95 329.8,-258.56 314.24,-249.11"/>
<polygon fill="midnightblue" stroke="midnightblue" points="315.62,-245.86 305.26,-243.66 311.99,-251.84 315.62,-245.86"/>
</g>
<!-- Node13 -->
<g id="node13" class="node">
<title>Node13</title>
<g id="a_node13"><a xlink:title=" ">
<polygon fill="white" stroke="#bfbfbf" points="371.5,-224.5 371.5,-243.5 406.5,-243.5 406.5,-224.5 371.5,-224.5"/>
<text text-anchor="middle" x="389" y="-231.5" font-family="Arial" font-size="10.00">map</text>
</a>
</g>
</g>
<!-- Node1&#45;&gt;Node13 -->
<g id="edge22" class="edge">
<title>Node1&#45;&gt;Node13</title>
<path fill="none" stroke="midnightblue" d="M389,-280.4C389,-272.47 389,-262.46 389,-253.86"/>
<polygon fill="midnightblue" stroke="midnightblue" points="392.5,-253.66 389,-243.66 385.5,-253.66 392.5,-253.66"/>
</g>
<!-- Node14 -->
<g id="node14" class="node">
<title>Node14</title>
<g id="a_node14"><a xlink:title=" ">
<polygon fill="white" stroke="#bfbfbf" points="425,-224.5 425,-243.5 477,-243.5 477,-224.5 425,-224.5"/>
<text text-anchor="middle" x="451" y="-231.5" font-family="Arial" font-size="10.00">memory</text>
</a>
</g>
</g>
<!-- Node1&#45;&gt;Node14 -->
<g id="edge23" class="edge">
<title>Node1&#45;&gt;Node14</title>
<path fill="none" stroke="midnightblue" d="M403.69,-280.4C412.98,-271.49 425,-259.95 434.6,-250.74"/>
<polygon fill="midnightblue" stroke="midnightblue" points="437.19,-253.11 441.98,-243.66 432.34,-248.06 437.19,-253.11"/>
</g>
<!-- Node15 -->
<g id="node15" class="node">
<title>Node15</title>
<g id="a_node15"><a xlink:title=" ">
<polygon fill="white" stroke="#bfbfbf" points="495,-224.5 495,-243.5 545,-243.5 545,-224.5 495,-224.5"/>
<text text-anchor="middle" x="520" y="-231.5" font-family="Arial" font-size="10.00">optional</text>
</a>
</g>
</g>
<!-- Node1&#45;&gt;Node15 -->
<g id="edge24" class="edge">
<title>Node1&#45;&gt;Node15</title>
<path fill="none" stroke="midnightblue" d="M420.05,-280.4C441.73,-270.55 470.46,-257.5 491.55,-247.92"/>
<polygon fill="midnightblue" stroke="midnightblue" points="493.28,-250.98 500.94,-243.66 490.39,-244.61 493.28,-250.98"/>
</g>
<!-- Node4 -->
<g id="node4" class="node">
<title>Node4</title>
<g id="a_node4"><a xlink:href="forward_8h.html" target="_top" xlink:title=" ">
<polygon fill="white" stroke="black" points="207.5,-0.5 207.5,-19.5 264.5,-19.5 264.5,-0.5 207.5,-0.5"/>
<text text-anchor="middle" x="236" y="-7.5" font-family="Arial" font-size="10.00">forward.h</text>
</a>
</g>
</g>
<!-- Node3&#45;&gt;Node4 -->
<g id="edge3" class="edge">
<title>Node3&#45;&gt;Node4</title>
<path fill="none" stroke="midnightblue" d="M313.46,-224.38C328.77,-217.18 347.86,-205.29 357,-188 361.15,-180.14 358.16,-176.81 357,-168 350.28,-116.91 359.67,-95.85 327,-56 313.55,-39.59 292.63,-28.67 274.24,-21.69"/>
<polygon fill="midnightblue" stroke="midnightblue" points="275.22,-18.33 264.63,-18.31 272.9,-24.93 275.22,-18.33"/>
</g>
<!-- Node5 -->
<g id="node5" class="node">
<title>Node5</title>
<g id="a_node5"><a xlink:href="point_8h.html" target="_top" xlink:title=" ">
<polygon fill="white" stroke="black" points="214,-112.5 214,-131.5 260,-131.5 260,-112.5 214,-112.5"/>
<text text-anchor="middle" x="237" y="-119.5" font-family="Arial" font-size="10.00">point.h</text>
</a>
</g>
</g>
<!-- Node3&#45;&gt;Node5 -->
<g id="edge4" class="edge">
<title>Node3&#45;&gt;Node5</title>
<path fill="none" stroke="midnightblue" d="M276.3,-224.36C264.47,-216.51 248.62,-203.78 241,-188 234.01,-173.52 233.55,-155.08 234.53,-141.53"/>
<polygon fill="midnightblue" stroke="midnightblue" points="238.01,-141.82 235.57,-131.51 231.05,-141.09 238.01,-141.82"/>
</g>
<!-- Node10 -->
<g id="node10" class="node">
<title>Node10</title>
<g id="a_node10"><a xlink:title=" ">
<polygon fill="white" stroke="#bfbfbf" points="249,-56.5 249,-75.5 301,-75.5 301,-56.5 249,-56.5"/>
<text text-anchor="middle" x="275" y="-63.5" font-family="Arial" font-size="10.00">ostream</text>
</a>
</g>
</g>
<!-- Node3&#45;&gt;Node10 -->
<g id="edge21" class="edge">
<title>Node3&#45;&gt;Node10</title>
<path fill="none" stroke="midnightblue" d="M306.73,-224.24C318.89,-216.48 334.81,-203.93 342,-188 345.66,-179.9 344.57,-176.51 342,-168 331.89,-134.46 306.59,-101.82 290.13,-83.1"/>
<polygon fill="midnightblue" stroke="midnightblue" points="292.59,-80.6 283.28,-75.53 287.39,-85.29 292.59,-80.6"/>
</g>
<!-- Node11 -->
<g id="node11" class="node">
<title>Node11</title>
<g id="a_node11"><a xlink:href="size_8h.html" target="_top" xlink:title=" ">
<polygon fill="white" stroke="black" points="152.5,-112.5 152.5,-131.5 195.5,-131.5 195.5,-112.5 152.5,-112.5"/>
<text text-anchor="middle" x="174" y="-119.5" font-family="Arial" font-size="10.00">size.h</text>
</a>
</g>
</g>
<!-- Node3&#45;&gt;Node11 -->
<g id="edge12" class="edge">
<title>Node3&#45;&gt;Node11</title>
<path fill="none" stroke="midnightblue" d="M277.99,-224.41C265.41,-215.85 246.09,-201.98 231,-188 214.56,-172.77 197.91,-153.2 186.89,-139.53"/>
<polygon fill="midnightblue" stroke="midnightblue" points="189.47,-137.16 180.51,-131.5 183.99,-141.51 189.47,-137.16"/>
</g>
<!-- Node12 -->
<g id="node12" class="node">
<title>Node12</title>
<g id="a_node12"><a xlink:href="displacement_8h.html" target="_top" xlink:title=" ">
<polygon fill="white" stroke="black" points="249.5,-168.5 249.5,-187.5 332.5,-187.5 332.5,-168.5 249.5,-168.5"/>
<text text-anchor="middle" x="291" y="-175.5" font-family="Arial" font-size="10.00">displacement.h</text>
</a>
</g>
</g>
<!-- Node3&#45;&gt;Node12 -->
<g id="edge16" class="edge">
<title>Node3&#45;&gt;Node12</title>
<path fill="none" stroke="midnightblue" d="M291,-224.08C291,-217.01 291,-206.86 291,-197.99"/>
<polygon fill="midnightblue" stroke="midnightblue" points="294.5,-197.75 291,-187.75 287.5,-197.75 294.5,-197.75"/>
</g>
<!-- Node5&#45;&gt;Node4 -->
<g id="edge5" class="edge">
<title>Node5&#45;&gt;Node4</title>
<path fill="none" stroke="midnightblue" d="M236.92,-112.37C236.76,-94.62 236.39,-53.67 236.17,-29.6"/>
<polygon fill="midnightblue" stroke="midnightblue" points="239.67,-29.56 236.08,-19.59 232.67,-29.62 239.67,-29.56"/>
</g>
<!-- Node6 -->
<g id="node6" class="node">
<title>Node6</title>
<g id="a_node6"><a xlink:href="dimensions_8h.html" target="_top" xlink:title=" ">
<polygon fill="white" stroke="black" points="81,-56.5 81,-75.5 155,-75.5 155,-56.5 81,-56.5"/>
<text text-anchor="middle" x="118" y="-63.5" font-family="Arial" font-size="10.00">dimensions.h</text>
</a>
</g>
</g>
<!-- Node5&#45;&gt;Node6 -->
<g id="edge6" class="edge">
<title>Node5&#45;&gt;Node6</title>
<path fill="none" stroke="midnightblue" d="M218.14,-112.44C198.73,-103.64 168.27,-89.81 146.04,-79.72"/>
<polygon fill="midnightblue" stroke="midnightblue" points="147.32,-76.46 136.77,-75.52 144.43,-82.84 147.32,-76.46"/>
</g>
<!-- Node5&#45;&gt;Node10 -->
<g id="edge11" class="edge">
<title>Node5&#45;&gt;Node10</title>
<path fill="none" stroke="midnightblue" d="M243.27,-112.08C248.64,-104.46 256.52,-93.26 263.08,-83.94"/>
<polygon fill="midnightblue" stroke="midnightblue" points="265.95,-85.94 268.84,-75.75 260.22,-81.91 265.95,-85.94"/>
</g>
<!-- Node6&#45;&gt;Node4 -->
<g id="edge7" class="edge">
<title>Node6&#45;&gt;Node4</title>
<path fill="none" stroke="midnightblue" d="M136.7,-56.44C155.94,-47.64 186.15,-33.81 208.2,-23.72"/>
<polygon fill="midnightblue" stroke="midnightblue" points="209.75,-26.86 217.39,-19.52 206.84,-20.5 209.75,-26.86"/>
</g>
<!-- Node7 -->
<g id="node7" class="node">
<title>Node7</title>
<g id="a_node7"><a xlink:title=" ">
<polygon fill="white" stroke="#bfbfbf" points="144.5,-0.5 144.5,-19.5 189.5,-19.5 189.5,-0.5 144.5,-0.5"/>
<text text-anchor="middle" x="167" y="-7.5" font-family="Arial" font-size="10.00">iosfwd</text>
</a>
</g>
</g>
<!-- Node6&#45;&gt;Node7 -->
<g id="edge8" class="edge">
<title>Node6&#45;&gt;Node7</title>
<path fill="none" stroke="midnightblue" d="M126.09,-56.08C133.16,-48.3 143.59,-36.8 152.15,-27.37"/>
<polygon fill="midnightblue" stroke="midnightblue" points="154.93,-29.51 159.06,-19.75 149.75,-24.8 154.93,-29.51"/>
</g>
<!-- Node8 -->
<g id="node8" class="node">
<title>Node8</title>
<g id="a_node8"><a xlink:title=" ">
<polygon fill="white" stroke="#bfbfbf" points="0,-0.5 0,-19.5 62,-19.5 62,-0.5 0,-0.5"/>
<text text-anchor="middle" x="31" y="-7.5" font-family="Arial" font-size="10.00">type_traits</text>
</a>
</g>
</g>
<!-- Node6&#45;&gt;Node8 -->
<g id="edge9" class="edge">
<title>Node6&#45;&gt;Node8</title>
<path fill="none" stroke="midnightblue" d="M104.02,-56.32C90.45,-47.9 69.62,-34.97 53.68,-25.07"/>
<polygon fill="midnightblue" stroke="midnightblue" points="55.29,-21.95 44.94,-19.65 51.59,-27.9 55.29,-21.95"/>
</g>
<!-- Node9 -->
<g id="node9" class="node">
<title>Node9</title>
<g id="a_node9"><a xlink:title=" ">
<polygon fill="white" stroke="#bfbfbf" points="80,-0.5 80,-19.5 126,-19.5 126,-0.5 80,-0.5"/>
<text text-anchor="middle" x="103" y="-7.5" font-family="Arial" font-size="10.00">cstdint</text>
</a>
</g>
</g>
<!-- Node6&#45;&gt;Node9 -->
<g id="edge10" class="edge">
<title>Node6&#45;&gt;Node9</title>
<path fill="none" stroke="midnightblue" d="M115.52,-56.08C113.51,-48.85 110.61,-38.41 108.11,-29.4"/>
<polygon fill="midnightblue" stroke="midnightblue" points="111.48,-28.45 105.43,-19.75 104.74,-30.32 111.48,-28.45"/>
</g>
<!-- Node11&#45;&gt;Node4 -->
<g id="edge13" class="edge">
<title>Node11&#45;&gt;Node4</title>
<path fill="none" stroke="midnightblue" d="M178.87,-112.37C189.05,-94.3 212.79,-52.18 226.24,-28.31"/>
<polygon fill="midnightblue" stroke="midnightblue" points="229.3,-30.02 231.16,-19.59 223.2,-26.58 229.3,-30.02"/>
</g>
<!-- Node11&#45;&gt;Node6 -->
<g id="edge14" class="edge">
<title>Node11&#45;&gt;Node6</title>
<path fill="none" stroke="midnightblue" d="M165,-112.32C156.81,-104.42 144.49,-92.55 134.53,-82.94"/>
<polygon fill="midnightblue" stroke="midnightblue" points="136.79,-80.26 127.16,-75.83 131.93,-85.29 136.79,-80.26"/>
</g>
<!-- Node11&#45;&gt;Node10 -->
<g id="edge15" class="edge">
<title>Node11&#45;&gt;Node10</title>
<path fill="none" stroke="midnightblue" d="M190.23,-112.32C206.35,-103.7 231.3,-90.36 249.96,-80.39"/>
<polygon fill="midnightblue" stroke="midnightblue" points="251.64,-83.46 258.81,-75.65 248.34,-77.28 251.64,-83.46"/>
</g>
<!-- Node12&#45;&gt;Node4 -->
<g id="edge17" class="edge">
<title>Node12&#45;&gt;Node4</title>
<path fill="none" stroke="midnightblue" d="M295.83,-168.43C306.81,-147.66 331.16,-93.63 310,-56 301.78,-41.38 286.67,-30.95 272.24,-23.85"/>
<polygon fill="midnightblue" stroke="midnightblue" points="273.48,-20.57 262.93,-19.64 270.6,-26.95 273.48,-20.57"/>
</g>
<!-- Node12&#45;&gt;Node5 -->
<g id="edge19" class="edge">
<title>Node12&#45;&gt;Node5</title>
<path fill="none" stroke="midnightblue" d="M282.08,-168.08C274.22,-160.22 262.57,-148.57 253.08,-139.08"/>
<polygon fill="midnightblue" stroke="midnightblue" points="255.3,-136.35 245.75,-131.75 250.35,-141.3 255.3,-136.35"/>
</g>
<!-- Node12&#45;&gt;Node6 -->
<g id="edge18" class="edge">
<title>Node12&#45;&gt;Node6</title>
<path fill="none" stroke="midnightblue" d="M249.41,-174.14C216.71,-169.81 172,-158.98 143,-132 130.02,-119.92 123.71,-100.36 120.68,-85.84"/>
<polygon fill="midnightblue" stroke="midnightblue" points="124.12,-85.19 118.96,-75.94 117.23,-86.39 124.12,-85.19"/>
</g>
<!-- Node12&#45;&gt;Node10 -->
<g id="edge20" class="edge">
<title>Node12&#45;&gt;Node10</title>
<path fill="none" stroke="midnightblue" d="M289.74,-168.37C287.16,-150.62 281.21,-109.67 277.71,-85.6"/>
<polygon fill="midnightblue" stroke="midnightblue" points="281.15,-84.98 276.25,-75.59 274.23,-85.99 281.15,-84.98"/>
</g>
</g>
</svg>
