<?xml version="1.0" encoding="UTF-8" standalone="no"?>
<!DOCTYPE svg PUBLIC "-//W3C//DTD SVG 1.1//EN"
 "http://www.w3.org/Graphics/SVG/1.1/DTD/svg11.dtd">
<!-- Generated by graphviz version 2.38.0 (20140413.2041)
 -->
<!-- Title: include/miral/miral/output.h Pages: 1 -->
<svg width="146pt" height="106pt"
 viewBox="0.00 0.00 146.00 106.00" xmlns="http://www.w3.org/2000/svg" xmlns:xlink="http://www.w3.org/1999/xlink">
<g id="graph0" class="graph" transform="scale(1 1) rotate(0) translate(4 102)">
<title>include/miral/miral/output.h</title>
<polygon fill="white" stroke="none" points="-4,4 -4,-102 142,-102 142,4 -4,4"/>
<!-- Node12 -->
<g id="node1" class="node"><title>Node12</title>
<polygon fill="#bfbfbf" stroke="black" points="21.5,-67.5 21.5,-97.5 116.5,-97.5 116.5,-67.5 21.5,-67.5"/>
<text text-anchor="start" x="29.5" y="-85.5" font-family="Arial" font-size="10.00">include/miral/miral</text>
<text text-anchor="middle" x="69" y="-74.5" font-family="Arial" font-size="10.00">/output.h</text>
</g>
<!-- Node13 -->
<g id="node2" class="node"><title>Node13</title>
<g id="a_node2"><a xlink:href="tiling__window__manager_8cpp.html" target="_top" xlink:title="examples/miral&#45;shell\l/tiling_window_manager.cpp">
<polygon fill="white" stroke="black" points="0,-0.5 0,-30.5 138,-30.5 138,-0.5 0,-0.5"/>
<text text-anchor="start" x="8" y="-18.5" font-family="Arial" font-size="10.00">examples/miral&#45;shell</text>
<text text-anchor="middle" x="69" y="-7.5" font-family="Arial" font-size="10.00">/tiling_window_manager.cpp</text>
</a>
</g>
</g>
<!-- Node12&#45;&gt;Node13 -->
<g id="edge1" class="edge"><title>Node12&#45;&gt;Node13</title>
<path fill="none" stroke="midnightblue" d="M69,-57.1081C69,-48.1539 69,-38.3227 69,-30.5765"/>
<polygon fill="midnightblue" stroke="midnightblue" points="65.5001,-57.3959 69,-67.396 72.5001,-57.396 65.5001,-57.3959"/>
</g>
</g>
</svg>
