<?xml version="1.0" encoding="UTF-8" standalone="no"?>
<!DOCTYPE svg PUBLIC "-//W3C//DTD SVG 1.1//EN"
 "http://www.w3.org/Graphics/SVG/1.1/DTD/svg11.dtd">
<!-- Generated by graphviz version 2.38.0 (20140413.2041)
 -->
<!-- Title: include/platform/mir/renderer/sw/pixel_source.h Pages: 1 -->
<svg width="290pt" height="151pt"
 viewBox="0.00 0.00 290.00 151.00" xmlns="http://www.w3.org/2000/svg" xmlns:xlink="http://www.w3.org/1999/xlink">
<g id="graph0" class="graph" transform="scale(1 1) rotate(0) translate(4 147)">
<title>include/platform/mir/renderer/sw/pixel_source.h</title>
<polygon fill="white" stroke="none" points="-4,4 -4,-147 286,-147 286,4 -4,4"/>
<!-- Node0 -->
<g id="node1" class="node"><title>Node0</title>
<polygon fill="#bfbfbf" stroke="black" points="32,-112.5 32,-142.5 168,-142.5 168,-112.5 32,-112.5"/>
<text text-anchor="start" x="40" y="-130.5" font-family="Arial" font-size="10.00">include/platform/mir</text>
<text text-anchor="middle" x="100" y="-119.5" font-family="Arial" font-size="10.00">/renderer/sw/pixel_source.h</text>
</g>
<!-- Node1 -->
<g id="node2" class="node"><title>Node1</title>
<polygon fill="white" stroke="#bfbfbf" points="0,-56.5 0,-75.5 52,-75.5 52,-56.5 0,-56.5"/>
<text text-anchor="middle" x="26" y="-63.5" font-family="Arial" font-size="10.00">stddef.h</text>
</g>
<!-- Node0&#45;&gt;Node1 -->
<g id="edge1" class="edge"><title>Node0&#45;&gt;Node1</title>
<path fill="none" stroke="midnightblue" d="M82.463,-112.399C71.1557,-103.308 56.4581,-91.4899 44.8929,-82.1909"/>
<polygon fill="midnightblue" stroke="midnightblue" points="46.7541,-79.1964 36.7677,-75.6578 42.3677,-84.6517 46.7541,-79.1964"/>
</g>
<!-- Node2 -->
<g id="node3" class="node"><title>Node2</title>
<polygon fill="white" stroke="#bfbfbf" points="70.5,-56.5 70.5,-75.5 129.5,-75.5 129.5,-56.5 70.5,-56.5"/>
<text text-anchor="middle" x="100" y="-63.5" font-family="Arial" font-size="10.00">functional</text>
</g>
<!-- Node0&#45;&gt;Node2 -->
<g id="edge2" class="edge"><title>Node0&#45;&gt;Node2</title>
<path fill="none" stroke="midnightblue" d="M100,-112.399C100,-104.466 100,-94.458 100,-85.8583"/>
<polygon fill="midnightblue" stroke="midnightblue" points="103.5,-85.6577 100,-75.6578 96.5001,-85.6578 103.5,-85.6577"/>
</g>
<!-- Node3 -->
<g id="node4" class="node"><title>Node3</title>
<g id="a_node4"><a xlink:href="dimensions_8h.html" target="_top" xlink:title="mir/geometry/dimensions.h">
<polygon fill="white" stroke="black" points="148,-56.5 148,-75.5 282,-75.5 282,-56.5 148,-56.5"/>
<text text-anchor="middle" x="215" y="-63.5" font-family="Arial" font-size="10.00">mir/geometry/dimensions.h</text>
</a>
</g>
</g>
<!-- Node0&#45;&gt;Node3 -->
<g id="edge3" class="edge"><title>Node0&#45;&gt;Node3</title>
<path fill="none" stroke="midnightblue" d="M127.253,-112.399C146.032,-102.684 170.826,-89.8551 189.268,-80.3137"/>
<polygon fill="midnightblue" stroke="midnightblue" points="190.993,-83.3617 198.266,-75.6578 187.776,-77.1445 190.993,-83.3617"/>
</g>
<!-- Node4 -->
<g id="node5" class="node"><title>Node4</title>
<polygon fill="white" stroke="#bfbfbf" points="160,-0.5 160,-19.5 206,-19.5 206,-0.5 160,-0.5"/>
<text text-anchor="middle" x="183" y="-7.5" font-family="Arial" font-size="10.00">cstdint</text>
</g>
<!-- Node3&#45;&gt;Node4 -->
<g id="edge4" class="edge"><title>Node3&#45;&gt;Node4</title>
<path fill="none" stroke="midnightblue" d="M209.716,-56.083C205.289,-48.6127 198.837,-37.7244 193.382,-28.5199"/>
<polygon fill="midnightblue" stroke="midnightblue" points="196.295,-26.5697 188.186,-19.7511 190.273,-30.1383 196.295,-26.5697"/>
</g>
<!-- Node5 -->
<g id="node6" class="node"><title>Node5</title>
<polygon fill="white" stroke="#bfbfbf" points="224,-0.5 224,-19.5 268,-19.5 268,-0.5 224,-0.5"/>
<text text-anchor="middle" x="246" y="-7.5" font-family="Arial" font-size="10.00">iosfwd</text>
</g>
<!-- Node3&#45;&gt;Node5 -->
<g id="edge5" class="edge"><title>Node3&#45;&gt;Node5</title>
<path fill="none" stroke="midnightblue" d="M220.119,-56.083C224.408,-48.6127 230.658,-37.7244 235.942,-28.5199"/>
<polygon fill="midnightblue" stroke="midnightblue" points="239.033,-30.1662 240.976,-19.7511 232.962,-26.6811 239.033,-30.1662"/>
</g>
</g>
</svg>
