<?xml version="1.0" encoding="UTF-8" standalone="no"?>
<!DOCTYPE svg PUBLIC "-//W3C//DTD SVG 1.1//EN"
 "http://www.w3.org/Graphics/SVG/1.1/DTD/svg11.dtd">
<!-- Generated by graphviz version 2.38.0 (20140413.2041)
 -->
<!-- Title: include/test/mir_test_framework/placement_applying_shell.h Pages: 1 -->
<svg width="1017pt" height="285pt"
 viewBox="0.00 0.00 1016.50 285.00" xmlns="http://www.w3.org/2000/svg" xmlns:xlink="http://www.w3.org/1999/xlink">
<g id="graph0" class="graph" transform="scale(1 1) rotate(0) translate(4 281)">
<title>include/test/mir_test_framework/placement_applying_shell.h</title>
<polygon fill="white" stroke="none" points="-4,4 -4,-281 1012.5,-281 1012.5,4 -4,4"/>
<!-- Node0 -->
<g id="node1" class="node"><title>Node0</title>
<polygon fill="#bfbfbf" stroke="black" points="591,-235.5 591,-276.5 705,-276.5 705,-235.5 591,-235.5"/>
<text text-anchor="start" x="599" y="-264.5" font-family="Arial" font-size="10.00">include/test/mir_test</text>
<text text-anchor="start" x="599" y="-253.5" font-family="Arial" font-size="10.00">_framework/placement</text>
<text text-anchor="middle" x="648" y="-242.5" font-family="Arial" font-size="10.00">_applying_shell.h</text>
</g>
<!-- Node1 -->
<g id="node2" class="node"><title>Node1</title>
<polygon fill="white" stroke="#bfbfbf" points="0,-174 0,-193 124,-193 124,-174 0,-174"/>
<text text-anchor="middle" x="62" y="-181" font-family="Arial" font-size="10.00">mir/shell/shell_wrapper.h</text>
</g>
<!-- Node0&#45;&gt;Node1 -->
<g id="edge1" class="edge"><title>Node0&#45;&gt;Node1</title>
<path fill="none" stroke="midnightblue" d="M590.734,-250.459C495.569,-242.534 298.995,-224.549 134,-199 126.553,-197.847 118.707,-196.453 111.043,-194.992"/>
<polygon fill="midnightblue" stroke="midnightblue" points="111.608,-191.536 101.121,-193.046 110.261,-198.405 111.608,-191.536"/>
</g>
<!-- Node2 -->
<g id="node3" class="node"><title>Node2</title>
<g id="a_node3"><a xlink:href="rectangle_8h.html" target="_top" xlink:title="mir/geometry/rectangle.h">
<polygon fill="white" stroke="black" points="142.5,-174 142.5,-193 267.5,-193 267.5,-174 142.5,-174"/>
<text text-anchor="middle" x="205" y="-181" font-family="Arial" font-size="10.00">mir/geometry/rectangle.h</text>
</a>
</g>
</g>
<!-- Node0&#45;&gt;Node2 -->
<g id="edge2" class="edge"><title>Node0&#45;&gt;Node2</title>
<path fill="none" stroke="midnightblue" d="M590.975,-247.275C518.018,-237.19 387.824,-218.511 277,-199 270.166,-197.797 262.983,-196.45 255.91,-195.075"/>
<polygon fill="midnightblue" stroke="midnightblue" points="256.166,-191.558 245.677,-193.053 254.809,-198.425 256.166,-191.558"/>
</g>
<!-- Node8 -->
<g id="node9" class="node"><title>Node8</title>
<polygon fill="white" stroke="#bfbfbf" points="286,-174 286,-193 390,-193 390,-174 286,-174"/>
<text text-anchor="middle" x="338" y="-181" font-family="Arial" font-size="10.00">mir/scene/session.h</text>
</g>
<!-- Node0&#45;&gt;Node8 -->
<g id="edge12" class="edge"><title>Node0&#45;&gt;Node8</title>
<path fill="none" stroke="midnightblue" d="M590.594,-242.297C540.096,-231.073 464.617,-214.177 399,-199 393.959,-197.834 388.687,-196.601 383.444,-195.367"/>
<polygon fill="midnightblue" stroke="midnightblue" points="384.001,-191.902 373.464,-193.007 382.391,-198.714 384.001,-191.902"/>
</g>
<!-- Node9 -->
<g id="node10" class="node"><title>Node9</title>
<polygon fill="white" stroke="#bfbfbf" points="408,-174 408,-193 510,-193 510,-174 408,-174"/>
<text text-anchor="middle" x="459" y="-181" font-family="Arial" font-size="10.00">mir/scene/surface.h</text>
</g>
<!-- Node0&#45;&gt;Node9 -->
<g id="edge13" class="edge"><title>Node0&#45;&gt;Node9</title>
<path fill="none" stroke="midnightblue" d="M595.604,-235.455C562.183,-222.989 519.929,-207.228 491.331,-196.56"/>
<polygon fill="midnightblue" stroke="midnightblue" points="492.415,-193.229 481.822,-193.013 489.968,-199.787 492.415,-193.229"/>
</g>
<!-- Node10 -->
<g id="node11" class="node"><title>Node10</title>
<polygon fill="white" stroke="#bfbfbf" points="528,-168.5 528,-198.5 662,-198.5 662,-168.5 528,-168.5"/>
<text text-anchor="start" x="536" y="-186.5" font-family="Arial" font-size="10.00">mir/scene/surface_creation</text>
<text text-anchor="middle" x="595" y="-175.5" font-family="Arial" font-size="10.00">_parameters.h</text>
</g>
<!-- Node0&#45;&gt;Node10 -->
<g id="edge14" class="edge"><title>Node0&#45;&gt;Node10</title>
<path fill="none" stroke="midnightblue" d="M633.237,-235.362C626.645,-226.593 618.838,-216.209 612.003,-207.118"/>
<polygon fill="midnightblue" stroke="midnightblue" points="614.626,-204.782 605.819,-198.892 609.031,-208.988 614.626,-204.782"/>
</g>
<!-- Node11 -->
<g id="node12" class="node"><title>Node11</title>
<polygon fill="white" stroke="#bfbfbf" points="680,-174 680,-193 722,-193 722,-174 680,-174"/>
<text text-anchor="middle" x="701" y="-181" font-family="Arial" font-size="10.00">vector</text>
</g>
<!-- Node0&#45;&gt;Node11 -->
<g id="edge15" class="edge"><title>Node0&#45;&gt;Node11</title>
<path fill="none" stroke="midnightblue" d="M662.763,-235.362C670.818,-224.648 680.685,-211.522 688.379,-201.289"/>
<polygon fill="midnightblue" stroke="midnightblue" points="691.268,-203.27 694.48,-193.173 685.673,-199.063 691.268,-203.27"/>
</g>
<!-- Node12 -->
<g id="node13" class="node"><title>Node12</title>
<polygon fill="white" stroke="#bfbfbf" points="740.5,-174 740.5,-193 781.5,-193 781.5,-174 740.5,-174"/>
<text text-anchor="middle" x="761" y="-181" font-family="Arial" font-size="10.00">string</text>
</g>
<!-- Node0&#45;&gt;Node12 -->
<g id="edge16" class="edge"><title>Node0&#45;&gt;Node12</title>
<path fill="none" stroke="midnightblue" d="M679.477,-235.362C698.211,-223.674 721.545,-209.116 738.443,-198.573"/>
<polygon fill="midnightblue" stroke="midnightblue" points="740.466,-201.436 747.098,-193.173 736.761,-195.497 740.466,-201.436"/>
</g>
<!-- Node13 -->
<g id="node14" class="node"><title>Node13</title>
<polygon fill="white" stroke="#bfbfbf" points="799.5,-174 799.5,-193 834.5,-193 834.5,-174 799.5,-174"/>
<text text-anchor="middle" x="817" y="-181" font-family="Arial" font-size="10.00">map</text>
</g>
<!-- Node0&#45;&gt;Node13 -->
<g id="edge17" class="edge"><title>Node0&#45;&gt;Node13</title>
<path fill="none" stroke="midnightblue" d="M703.059,-235.432C729.944,-225.376 762.549,-212.429 791,-199 791.818,-198.614 792.646,-198.213 793.478,-197.801"/>
<polygon fill="midnightblue" stroke="midnightblue" points="795.117,-200.893 802.332,-193.134 791.854,-194.7 795.117,-200.893"/>
</g>
<!-- Node14 -->
<g id="node15" class="node"><title>Node14</title>
<polygon fill="white" stroke="#bfbfbf" points="853,-174 853,-193 897,-193 897,-174 853,-174"/>
<text text-anchor="middle" x="875" y="-181" font-family="Arial" font-size="10.00">mutex</text>
</g>
<!-- Node0&#45;&gt;Node14 -->
<g id="edge18" class="edge"><title>Node0&#45;&gt;Node14</title>
<path fill="none" stroke="midnightblue" d="M705.383,-241.179C744.876,-231.045 798.257,-216.108 844,-199 845.426,-198.467 846.877,-197.895 848.334,-197.297"/>
<polygon fill="midnightblue" stroke="midnightblue" points="850.082,-200.352 857.829,-193.125 847.266,-193.944 850.082,-200.352"/>
</g>
<!-- Node15 -->
<g id="node16" class="node"><title>Node15</title>
<polygon fill="white" stroke="#bfbfbf" points="915.5,-174 915.5,-193 1008.5,-193 1008.5,-174 915.5,-174"/>
<text text-anchor="middle" x="962" y="-181" font-family="Arial" font-size="10.00">condition_variable</text>
</g>
<!-- Node0&#45;&gt;Node15 -->
<g id="edge19" class="edge"><title>Node0&#45;&gt;Node15</title>
<path fill="none" stroke="midnightblue" d="M705.022,-243.3C757.399,-232.393 837.108,-215.389 906,-199 910.641,-197.896 915.487,-196.702 920.304,-195.491"/>
<polygon fill="midnightblue" stroke="midnightblue" points="921.246,-198.862 930.071,-193 919.517,-192.079 921.246,-198.862"/>
</g>
<!-- Node3 -->
<g id="node4" class="node"><title>Node3</title>
<g id="a_node4"><a xlink:href="point_8h.html" target="_top" xlink:title="mir/geometry/point.h">
<polygon fill="white" stroke="black" points="152,-112.5 152,-131.5 258,-131.5 258,-112.5 152,-112.5"/>
<text text-anchor="middle" x="205" y="-119.5" font-family="Arial" font-size="10.00">mir/geometry/point.h</text>
</a>
</g>
</g>
<!-- Node2&#45;&gt;Node3 -->
<g id="edge3" class="edge"><title>Node2&#45;&gt;Node3</title>
<path fill="none" stroke="midnightblue" d="M205,-173.975C205,-165.58 205,-152.481 205,-141.663"/>
<polygon fill="midnightblue" stroke="midnightblue" points="208.5,-141.509 205,-131.509 201.5,-141.509 208.5,-141.509"/>
</g>
<!-- Node6 -->
<g id="node7" class="node"><title>Node6</title>
<polygon fill="white" stroke="#bfbfbf" points="219,-0.5 219,-19.5 263,-19.5 263,-0.5 219,-0.5"/>
<text text-anchor="middle" x="241" y="-7.5" font-family="Arial" font-size="10.00">iosfwd</text>
</g>
<!-- Node2&#45;&gt;Node6 -->
<g id="edge11" class="edge"><title>Node2&#45;&gt;Node6</title>
<path fill="none" stroke="midnightblue" d="M222.606,-173.87C237.518,-165.476 257.883,-151.184 267,-132 283.374,-97.5459 264.532,-52.6844 251.444,-28.4219"/>
<polygon fill="midnightblue" stroke="midnightblue" points="254.446,-26.6204 246.469,-19.6475 248.357,-30.0729 254.446,-26.6204"/>
</g>
<!-- Node7 -->
<g id="node8" class="node"><title>Node7</title>
<g id="a_node8"><a xlink:href="size_8h.html" target="_top" xlink:title="size.h">
<polygon fill="white" stroke="black" points="90.5,-112.5 90.5,-131.5 133.5,-131.5 133.5,-112.5 90.5,-112.5"/>
<text text-anchor="middle" x="112" y="-119.5" font-family="Arial" font-size="10.00">size.h</text>
</a>
</g>
</g>
<!-- Node2&#45;&gt;Node7 -->
<g id="edge8" class="edge"><title>Node2&#45;&gt;Node7</title>
<path fill="none" stroke="midnightblue" d="M191.675,-173.975C176.62,-164.343 151.884,-148.517 133.963,-137.052"/>
<polygon fill="midnightblue" stroke="midnightblue" points="135.61,-133.95 125.3,-131.509 131.837,-139.847 135.61,-133.95"/>
</g>
<!-- Node4 -->
<g id="node5" class="node"><title>Node4</title>
<g id="a_node5"><a xlink:href="dimensions_8h.html" target="_top" xlink:title="dimensions.h">
<polygon fill="white" stroke="black" points="140,-56.5 140,-75.5 214,-75.5 214,-56.5 140,-56.5"/>
<text text-anchor="middle" x="177" y="-63.5" font-family="Arial" font-size="10.00">dimensions.h</text>
</a>
</g>
</g>
<!-- Node3&#45;&gt;Node4 -->
<g id="edge4" class="edge"><title>Node3&#45;&gt;Node4</title>
<path fill="none" stroke="midnightblue" d="M200.376,-112.083C196.544,-104.691 190.976,-93.9533 186.235,-84.8111"/>
<polygon fill="midnightblue" stroke="midnightblue" points="189.248,-83.0175 181.538,-75.7511 183.034,-86.2398 189.248,-83.0175"/>
</g>
<!-- Node3&#45;&gt;Node6 -->
<g id="edge7" class="edge"><title>Node3&#45;&gt;Node6</title>
<path fill="none" stroke="midnightblue" d="M208.736,-112.478C212.592,-103.506 218.643,-88.9162 223,-76 228.21,-60.5534 233.077,-42.6839 236.433,-29.595"/>
<polygon fill="midnightblue" stroke="midnightblue" points="239.926,-30.0554 238.964,-19.5043 233.136,-28.3524 239.926,-30.0554"/>
</g>
<!-- Node5 -->
<g id="node6" class="node"><title>Node5</title>
<polygon fill="white" stroke="#bfbfbf" points="154,-0.5 154,-19.5 200,-19.5 200,-0.5 154,-0.5"/>
<text text-anchor="middle" x="177" y="-7.5" font-family="Arial" font-size="10.00">cstdint</text>
</g>
<!-- Node4&#45;&gt;Node5 -->
<g id="edge5" class="edge"><title>Node4&#45;&gt;Node5</title>
<path fill="none" stroke="midnightblue" d="M177,-56.083C177,-49.0059 177,-38.8611 177,-29.9865"/>
<polygon fill="midnightblue" stroke="midnightblue" points="180.5,-29.751 177,-19.7511 173.5,-29.7511 180.5,-29.751"/>
</g>
<!-- Node4&#45;&gt;Node6 -->
<g id="edge6" class="edge"><title>Node4&#45;&gt;Node6</title>
<path fill="none" stroke="midnightblue" d="M187.283,-56.324C196.836,-48.2631 211.28,-36.0765 222.784,-26.3695"/>
<polygon fill="midnightblue" stroke="midnightblue" points="225.144,-28.9577 230.53,-19.8339 220.63,-23.6076 225.144,-28.9577"/>
</g>
<!-- Node7&#45;&gt;Node4 -->
<g id="edge9" class="edge"><title>Node7&#45;&gt;Node4</title>
<path fill="none" stroke="midnightblue" d="M122.443,-112.324C132.146,-104.263 146.815,-92.0765 158.5,-82.3695"/>
<polygon fill="midnightblue" stroke="midnightblue" points="160.911,-84.9163 166.367,-75.8339 156.438,-79.532 160.911,-84.9163"/>
</g>
<!-- Node7&#45;&gt;Node6 -->
<g id="edge10" class="edge"><title>Node7&#45;&gt;Node6</title>
<path fill="none" stroke="midnightblue" d="M112.227,-112.281C113.039,-98.6188 116.519,-72.0706 131,-56 141.811,-44.0024 180.532,-29.851 208.987,-20.6662"/>
<polygon fill="midnightblue" stroke="midnightblue" points="210.084,-23.9904 218.561,-17.6362 207.971,-17.3166 210.084,-23.9904"/>
</g>
</g>
</svg>
