<?xml version="1.0" encoding="UTF-8" standalone="no"?>
<!DOCTYPE svg PUBLIC "-//W3C//DTD SVG 1.1//EN"
 "http://www.w3.org/Graphics/SVG/1.1/DTD/svg11.dtd">
<!-- Generated by graphviz version 2.38.0 (20140413.2041)
 -->
<!-- Title: include/test/mir_test_framework/placement_applying_shell.h Pages: 1 -->
<svg width="1021pt" height="285pt"
 viewBox="0.00 0.00 1021.00 285.00" xmlns="http://www.w3.org/2000/svg" xmlns:xlink="http://www.w3.org/1999/xlink">
<g id="graph0" class="graph" transform="scale(1 1) rotate(0) translate(4 281)">
<title>include/test/mir_test_framework/placement_applying_shell.h</title>
<polygon fill="white" stroke="none" points="-4,4 -4,-281 1017,-281 1017,4 -4,4"/>
<!-- Node0 -->
<g id="node1" class="node"><title>Node0</title>
<polygon fill="#bfbfbf" stroke="black" points="591,-235.5 591,-276.5 706,-276.5 706,-235.5 591,-235.5"/>
<text text-anchor="start" x="599" y="-264.5" font-family="Arial" font-size="10.00">include/test/mir_test</text>
<text text-anchor="start" x="599" y="-253.5" font-family="Arial" font-size="10.00">_framework/placement</text>
<text text-anchor="middle" x="648.5" y="-242.5" font-family="Arial" font-size="10.00">_applying_shell.h</text>
</g>
<!-- Node1 -->
<g id="node2" class="node"><title>Node1</title>
<polygon fill="white" stroke="#bfbfbf" points="0,-174 0,-193 123,-193 123,-174 0,-174"/>
<text text-anchor="middle" x="61.5" y="-181" font-family="Arial" font-size="10.00">mir/shell/shell_wrapper.h</text>
</g>
<!-- Node0&#45;&gt;Node1 -->
<g id="edge1" class="edge"><title>Node0&#45;&gt;Node1</title>
<path fill="none" stroke="midnightblue" d="M590.617,-250.493C494.925,-242.644 297.877,-224.803 132.5,-199 125.236,-197.867 117.589,-196.495 110.111,-195.053"/>
<polygon fill="midnightblue" stroke="midnightblue" points="110.563,-191.575 100.073,-193.059 109.199,-198.441 110.563,-191.575"/>
</g>
<!-- Node2 -->
<g id="node3" class="node"><title>Node2</title>
<g id="a_node3"><a xlink:href="rectangle_8h.html" target="_top" xlink:title="mir/geometry/rectangle.h">
<polygon fill="white" stroke="black" points="141,-174 141,-193 266,-193 266,-174 141,-174"/>
<text text-anchor="middle" x="203.5" y="-181" font-family="Arial" font-size="10.00">mir/geometry/rectangle.h</text>
</a>
</g>
</g>
<!-- Node0&#45;&gt;Node2 -->
<g id="edge2" class="edge"><title>Node0&#45;&gt;Node2</title>
<path fill="none" stroke="midnightblue" d="M590.847,-247.25C517.435,-237.174 386.754,-218.542 275.5,-199 268.665,-197.799 261.483,-196.454 254.409,-195.08"/>
<polygon fill="midnightblue" stroke="midnightblue" points="254.665,-191.563 244.176,-193.059 253.308,-198.43 254.665,-191.563"/>
</g>
<!-- Node8 -->
<g id="node9" class="node"><title>Node8</title>
<polygon fill="white" stroke="#bfbfbf" points="284.5,-174 284.5,-193 388.5,-193 388.5,-174 284.5,-174"/>
<text text-anchor="middle" x="336.5" y="-181" font-family="Arial" font-size="10.00">mir/scene/session.h</text>
</g>
<!-- Node0&#45;&gt;Node8 -->
<g id="edge12" class="edge"><title>Node0&#45;&gt;Node8</title>
<path fill="none" stroke="midnightblue" d="M590.874,-242.253C540.18,-231 464.402,-214.087 398.5,-199 393.444,-197.843 388.158,-196.622 382.897,-195.401"/>
<polygon fill="midnightblue" stroke="midnightblue" points="383.41,-191.927 372.877,-193.068 381.823,-198.745 383.41,-191.927"/>
</g>
<!-- Node9 -->
<g id="node10" class="node"><title>Node9</title>
<polygon fill="white" stroke="#bfbfbf" points="407,-174 407,-193 510,-193 510,-174 407,-174"/>
<text text-anchor="middle" x="458.5" y="-181" font-family="Arial" font-size="10.00">mir/scene/surface.h</text>
</g>
<!-- Node0&#45;&gt;Node9 -->
<g id="edge13" class="edge"><title>Node0&#45;&gt;Node9</title>
<path fill="none" stroke="midnightblue" d="M595.827,-235.455C562.229,-222.989 519.752,-207.228 491.002,-196.56"/>
<polygon fill="midnightblue" stroke="midnightblue" points="492.036,-193.21 481.443,-193.013 489.601,-199.773 492.036,-193.21"/>
</g>
<!-- Node10 -->
<g id="node11" class="node"><title>Node10</title>
<polygon fill="white" stroke="#bfbfbf" points="528.5,-168.5 528.5,-198.5 662.5,-198.5 662.5,-168.5 528.5,-168.5"/>
<text text-anchor="start" x="536.5" y="-186.5" font-family="Arial" font-size="10.00">mir/scene/surface_creation</text>
<text text-anchor="middle" x="595.5" y="-175.5" font-family="Arial" font-size="10.00">_parameters.h</text>
</g>
<!-- Node0&#45;&gt;Node10 -->
<g id="edge14" class="edge"><title>Node0&#45;&gt;Node10</title>
<path fill="none" stroke="midnightblue" d="M633.737,-235.362C627.145,-226.593 619.338,-216.209 612.503,-207.118"/>
<polygon fill="midnightblue" stroke="midnightblue" points="615.126,-204.782 606.319,-198.892 609.531,-208.988 615.126,-204.782"/>
</g>
<!-- Node11 -->
<g id="node12" class="node"><title>Node11</title>
<polygon fill="white" stroke="#bfbfbf" points="680.5,-174 680.5,-193 724.5,-193 724.5,-174 680.5,-174"/>
<text text-anchor="middle" x="702.5" y="-181" font-family="Arial" font-size="10.00">vector</text>
</g>
<!-- Node0&#45;&gt;Node11 -->
<g id="edge15" class="edge"><title>Node0&#45;&gt;Node11</title>
<path fill="none" stroke="midnightblue" d="M663.542,-235.362C671.749,-224.648 681.802,-211.522 689.641,-201.289"/>
<polygon fill="midnightblue" stroke="midnightblue" points="692.554,-203.24 695.857,-193.173 686.997,-198.984 692.554,-203.24"/>
</g>
<!-- Node12 -->
<g id="node13" class="node"><title>Node12</title>
<polygon fill="white" stroke="#bfbfbf" points="743,-174 743,-193 784,-193 784,-174 743,-174"/>
<text text-anchor="middle" x="763.5" y="-181" font-family="Arial" font-size="10.00">string</text>
</g>
<!-- Node0&#45;&gt;Node12 -->
<g id="edge16" class="edge"><title>Node0&#45;&gt;Node12</title>
<path fill="none" stroke="midnightblue" d="M680.534,-235.362C699.6,-223.674 723.347,-209.116 740.543,-198.573"/>
<polygon fill="midnightblue" stroke="midnightblue" points="742.656,-201.384 749.352,-193.173 738.997,-195.416 742.656,-201.384"/>
</g>
<!-- Node13 -->
<g id="node14" class="node"><title>Node13</title>
<polygon fill="white" stroke="#bfbfbf" points="802,-174 802,-193 837,-193 837,-174 802,-174"/>
<text text-anchor="middle" x="819.5" y="-181" font-family="Arial" font-size="10.00">map</text>
</g>
<!-- Node0&#45;&gt;Node13 -->
<g id="edge17" class="edge"><title>Node0&#45;&gt;Node13</title>
<path fill="none" stroke="midnightblue" d="M704.694,-235.388C731.892,-225.369 764.794,-212.467 793.5,-199 794.319,-198.616 795.147,-198.216 795.98,-197.806"/>
<polygon fill="midnightblue" stroke="midnightblue" points="797.617,-200.9 804.838,-193.147 794.358,-194.704 797.617,-200.9"/>
</g>
<!-- Node14 -->
<g id="node15" class="node"><title>Node14</title>
<polygon fill="white" stroke="#bfbfbf" points="855.5,-174 855.5,-193 899.5,-193 899.5,-174 855.5,-174"/>
<text text-anchor="middle" x="877.5" y="-181" font-family="Arial" font-size="10.00">mutex</text>
</g>
<!-- Node0&#45;&gt;Node14 -->
<g id="edge18" class="edge"><title>Node0&#45;&gt;Node14</title>
<path fill="none" stroke="midnightblue" d="M706.043,-241.353C745.984,-231.245 800.135,-216.27 846.5,-199 847.927,-198.469 849.379,-197.898 850.836,-197.302"/>
<polygon fill="midnightblue" stroke="midnightblue" points="852.583,-200.358 860.332,-193.133 849.768,-193.948 852.583,-200.358"/>
</g>
<!-- Node15 -->
<g id="node16" class="node"><title>Node15</title>
<polygon fill="white" stroke="#bfbfbf" points="918,-174 918,-193 1013,-193 1013,-174 918,-174"/>
<text text-anchor="middle" x="965.5" y="-181" font-family="Arial" font-size="10.00">condition_variable</text>
</g>
<!-- Node0&#45;&gt;Node15 -->
<g id="edge19" class="edge"><title>Node0&#45;&gt;Node15</title>
<path fill="none" stroke="midnightblue" d="M706.209,-243.208C758.988,-232.273 839.162,-215.281 908.5,-199 913.163,-197.905 918.031,-196.725 922.871,-195.527"/>
<polygon fill="midnightblue" stroke="midnightblue" points="923.847,-198.891 932.697,-193.065 922.146,-192.101 923.847,-198.891"/>
</g>
<!-- Node3 -->
<g id="node4" class="node"><title>Node3</title>
<g id="a_node4"><a xlink:href="point_8h.html" target="_top" xlink:title="mir/geometry/point.h">
<polygon fill="white" stroke="black" points="150.5,-112.5 150.5,-131.5 256.5,-131.5 256.5,-112.5 150.5,-112.5"/>
<text text-anchor="middle" x="203.5" y="-119.5" font-family="Arial" font-size="10.00">mir/geometry/point.h</text>
</a>
</g>
</g>
<!-- Node2&#45;&gt;Node3 -->
<g id="edge3" class="edge"><title>Node2&#45;&gt;Node3</title>
<path fill="none" stroke="midnightblue" d="M203.5,-173.975C203.5,-165.58 203.5,-152.481 203.5,-141.663"/>
<polygon fill="midnightblue" stroke="midnightblue" points="207,-141.509 203.5,-131.509 200,-141.509 207,-141.509"/>
</g>
<!-- Node6 -->
<g id="node7" class="node"><title>Node6</title>
<polygon fill="white" stroke="#bfbfbf" points="217.5,-0.5 217.5,-19.5 261.5,-19.5 261.5,-0.5 217.5,-0.5"/>
<text text-anchor="middle" x="239.5" y="-7.5" font-family="Arial" font-size="10.00">iosfwd</text>
</g>
<!-- Node2&#45;&gt;Node6 -->
<g id="edge11" class="edge"><title>Node2&#45;&gt;Node6</title>
<path fill="none" stroke="midnightblue" d="M221.106,-173.87C236.018,-165.476 256.383,-151.184 265.5,-132 281.874,-97.5459 263.032,-52.6844 249.944,-28.4219"/>
<polygon fill="midnightblue" stroke="midnightblue" points="252.946,-26.6204 244.969,-19.6475 246.857,-30.0729 252.946,-26.6204"/>
</g>
<!-- Node7 -->
<g id="node8" class="node"><title>Node7</title>
<g id="a_node8"><a xlink:href="size_8h.html" target="_top" xlink:title="size.h">
<polygon fill="white" stroke="black" points="89,-112.5 89,-131.5 132,-131.5 132,-112.5 89,-112.5"/>
<text text-anchor="middle" x="110.5" y="-119.5" font-family="Arial" font-size="10.00">size.h</text>
</a>
</g>
</g>
<!-- Node2&#45;&gt;Node7 -->
<g id="edge8" class="edge"><title>Node2&#45;&gt;Node7</title>
<path fill="none" stroke="midnightblue" d="M190.175,-173.975C175.12,-164.343 150.384,-148.517 132.463,-137.052"/>
<polygon fill="midnightblue" stroke="midnightblue" points="134.11,-133.95 123.8,-131.509 130.337,-139.847 134.11,-133.95"/>
</g>
<!-- Node4 -->
<g id="node5" class="node"><title>Node4</title>
<g id="a_node5"><a xlink:href="dimensions_8h.html" target="_top" xlink:title="dimensions.h">
<polygon fill="white" stroke="black" points="138.5,-56.5 138.5,-75.5 212.5,-75.5 212.5,-56.5 138.5,-56.5"/>
<text text-anchor="middle" x="175.5" y="-63.5" font-family="Arial" font-size="10.00">dimensions.h</text>
</a>
</g>
</g>
<!-- Node3&#45;&gt;Node4 -->
<g id="edge4" class="edge"><title>Node3&#45;&gt;Node4</title>
<path fill="none" stroke="midnightblue" d="M198.876,-112.083C195.044,-104.691 189.476,-93.9533 184.735,-84.8111"/>
<polygon fill="midnightblue" stroke="midnightblue" points="187.748,-83.0175 180.038,-75.7511 181.534,-86.2398 187.748,-83.0175"/>
</g>
<!-- Node3&#45;&gt;Node6 -->
<g id="edge7" class="edge"><title>Node3&#45;&gt;Node6</title>
<path fill="none" stroke="midnightblue" d="M207.236,-112.478C211.092,-103.506 217.143,-88.9162 221.5,-76 226.71,-60.5534 231.577,-42.6839 234.933,-29.595"/>
<polygon fill="midnightblue" stroke="midnightblue" points="238.426,-30.0554 237.464,-19.5043 231.636,-28.3524 238.426,-30.0554"/>
</g>
<!-- Node5 -->
<g id="node6" class="node"><title>Node5</title>
<polygon fill="white" stroke="#bfbfbf" points="152.5,-0.5 152.5,-19.5 198.5,-19.5 198.5,-0.5 152.5,-0.5"/>
<text text-anchor="middle" x="175.5" y="-7.5" font-family="Arial" font-size="10.00">cstdint</text>
</g>
<!-- Node4&#45;&gt;Node5 -->
<g id="edge5" class="edge"><title>Node4&#45;&gt;Node5</title>
<path fill="none" stroke="midnightblue" d="M175.5,-56.083C175.5,-49.0059 175.5,-38.8611 175.5,-29.9865"/>
<polygon fill="midnightblue" stroke="midnightblue" points="179,-29.751 175.5,-19.7511 172,-29.7511 179,-29.751"/>
</g>
<!-- Node4&#45;&gt;Node6 -->
<g id="edge6" class="edge"><title>Node4&#45;&gt;Node6</title>
<path fill="none" stroke="midnightblue" d="M185.783,-56.324C195.336,-48.2631 209.78,-36.0765 221.284,-26.3695"/>
<polygon fill="midnightblue" stroke="midnightblue" points="223.644,-28.9577 229.03,-19.8339 219.13,-23.6076 223.644,-28.9577"/>
</g>
<!-- Node7&#45;&gt;Node4 -->
<g id="edge9" class="edge"><title>Node7&#45;&gt;Node4</title>
<path fill="none" stroke="midnightblue" d="M120.943,-112.324C130.646,-104.263 145.315,-92.0765 157,-82.3695"/>
<polygon fill="midnightblue" stroke="midnightblue" points="159.411,-84.9163 164.867,-75.8339 154.938,-79.532 159.411,-84.9163"/>
</g>
<!-- Node7&#45;&gt;Node6 -->
<g id="edge10" class="edge"><title>Node7&#45;&gt;Node6</title>
<path fill="none" stroke="midnightblue" d="M110.727,-112.281C111.539,-98.6188 115.019,-72.0706 129.5,-56 140.311,-44.0024 179.032,-29.851 207.487,-20.6662"/>
<polygon fill="midnightblue" stroke="midnightblue" points="208.584,-23.9904 217.061,-17.6362 206.471,-17.3166 208.584,-23.9904"/>
</g>
</g>
</svg>
