<?xml version="1.0" encoding="UTF-8" standalone="no"?>
<!DOCTYPE svg PUBLIC "-//W3C//DTD SVG 1.1//EN"
 "http://www.w3.org/Graphics/SVG/1.1/DTD/svg11.dtd">
<!-- Generated by graphviz version 2.38.0 (20140413.2041)
 -->
<!-- Title: include/platform/mir/mir_buffer.h Pages: 1 -->
<svg width="2159pt" height="430pt"
 viewBox="0.00 0.00 2158.76 430.00" xmlns="http://www.w3.org/2000/svg" xmlns:xlink="http://www.w3.org/1999/xlink">
<g id="graph0" class="graph" transform="scale(1 1) rotate(0) translate(4 426)">
<title>include/platform/mir/mir_buffer.h</title>
<polygon fill="white" stroke="none" points="-4,4 -4,-426 2154.76,-426 2154.76,4 -4,4"/>
<!-- Node0 -->
<g id="node1" class="node"><title>Node0</title>
<polygon fill="#bfbfbf" stroke="black" points="1924.76,-391.5 1924.76,-421.5 2026.76,-421.5 2026.76,-391.5 1924.76,-391.5"/>
<text text-anchor="start" x="1932.76" y="-409.5" font-family="Arial" font-size="10.00">include/platform/mir</text>
<text text-anchor="middle" x="1975.76" y="-398.5" font-family="Arial" font-size="10.00">/mir_buffer.h</text>
</g>
<!-- Node1 -->
<g id="node2" class="node"><title>Node1</title>
<g id="a_node2"><a xlink:href="client_2mir__toolkit_2mir__buffer_8h.html" target="_top" xlink:title="mir_toolkit/mir_buffer.h">
<polygon fill="white" stroke="black" points="1661.76,-335.5 1661.76,-354.5 1777.76,-354.5 1777.76,-335.5 1661.76,-335.5"/>
<text text-anchor="middle" x="1719.76" y="-342.5" font-family="Arial" font-size="10.00">mir_toolkit/mir_buffer.h</text>
</a>
</g>
</g>
<!-- Node0&#45;&gt;Node1 -->
<g id="edge1" class="edge"><title>Node0&#45;&gt;Node1</title>
<path fill="none" stroke="midnightblue" d="M1924.57,-393.602C1878.41,-382.874 1811.1,-367.229 1766.4,-356.84"/>
<polygon fill="midnightblue" stroke="midnightblue" points="1766.92,-353.368 1756.38,-354.513 1765.33,-360.186 1766.92,-353.368"/>
</g>
<!-- Node25 -->
<g id="node26" class="node"><title>Node25</title>
<g id="a_node26"><a xlink:href="mir__native__buffer_8h.html" target="_top" xlink:title="mir_toolkit/mir_native\l_buffer.h">
<polygon fill="white" stroke="black" points="1733.76,-268.5 1733.76,-298.5 1843.76,-298.5 1843.76,-268.5 1733.76,-268.5"/>
<text text-anchor="start" x="1741.76" y="-286.5" font-family="Arial" font-size="10.00">mir_toolkit/mir_native</text>
<text text-anchor="middle" x="1788.76" y="-275.5" font-family="Arial" font-size="10.00">_buffer.h</text>
</a>
</g>
</g>
<!-- Node0&#45;&gt;Node25 -->
<g id="edge49" class="edge"><title>Node0&#45;&gt;Node25</title>
<path fill="none" stroke="midnightblue" d="M1938.85,-391.399C1917.3,-382.408 1890.05,-369.7 1867.76,-355 1846.2,-340.781 1824.5,-320.932 1809.32,-305.917"/>
<polygon fill="midnightblue" stroke="midnightblue" points="1811.54,-303.187 1802.01,-298.562 1806.58,-308.122 1811.54,-303.187"/>
</g>
<!-- Node26 -->
<g id="node27" class="node"><title>Node26</title>
<g id="a_node27"><a xlink:href="size_8h.html" target="_top" xlink:title="mir/geometry/size.h">
<polygon fill="white" stroke="black" points="1877.26,-335.5 1877.26,-354.5 1980.26,-354.5 1980.26,-335.5 1877.26,-335.5"/>
<text text-anchor="middle" x="1928.76" y="-342.5" font-family="Arial" font-size="10.00">mir/geometry/size.h</text>
</a>
</g>
</g>
<!-- Node0&#45;&gt;Node26 -->
<g id="edge50" class="edge"><title>Node0&#45;&gt;Node26</title>
<path fill="none" stroke="midnightblue" d="M1964.62,-391.399C1957.79,-382.753 1949.01,-371.642 1941.85,-362.576"/>
<polygon fill="midnightblue" stroke="midnightblue" points="1944.54,-360.335 1935.6,-354.658 1939.05,-364.674 1944.54,-360.335"/>
</g>
<!-- Node30 -->
<g id="node31" class="node"><title>Node30</title>
<g id="a_node31"><a xlink:href="fd_8h.html" target="_top" xlink:title="mir/fd.h">
<polygon fill="white" stroke="black" points="1998.76,-335.5 1998.76,-354.5 2048.76,-354.5 2048.76,-335.5 1998.76,-335.5"/>
<text text-anchor="middle" x="2023.76" y="-342.5" font-family="Arial" font-size="10.00">mir/fd.h</text>
</a>
</g>
</g>
<!-- Node0&#45;&gt;Node30 -->
<g id="edge55" class="edge"><title>Node0&#45;&gt;Node30</title>
<path fill="none" stroke="midnightblue" d="M1987.13,-391.399C1994.11,-382.753 2003.07,-371.642 2010.39,-362.576"/>
<polygon fill="midnightblue" stroke="midnightblue" points="2013.22,-364.638 2016.77,-354.658 2007.77,-360.243 2013.22,-364.638"/>
</g>
<!-- Node31 -->
<g id="node32" class="node"><title>Node31</title>
<polygon fill="white" stroke="#bfbfbf" points="2051.76,-274 2051.76,-293 2103.76,-293 2103.76,-274 2051.76,-274"/>
<text text-anchor="middle" x="2077.76" y="-281" font-family="Arial" font-size="10.00">memory</text>
</g>
<!-- Node0&#45;&gt;Node31 -->
<g id="edge57" class="edge"><title>Node0&#45;&gt;Node31</title>
<path fill="none" stroke="midnightblue" d="M2010.35,-391.433C2026.88,-383.097 2045.65,-371.001 2057.76,-355 2069.13,-339.961 2074.04,-318.704 2076.16,-303.47"/>
<polygon fill="midnightblue" stroke="midnightblue" points="2079.67,-303.521 2077.29,-293.198 2072.72,-302.753 2079.67,-303.521"/>
</g>
<!-- Node32 -->
<g id="node33" class="node"><title>Node32</title>
<polygon fill="white" stroke="#bfbfbf" points="2104.76,-335.5 2104.76,-354.5 2150.76,-354.5 2150.76,-335.5 2104.76,-335.5"/>
<text text-anchor="middle" x="2127.76" y="-342.5" font-family="Arial" font-size="10.00">chrono</text>
</g>
<!-- Node0&#45;&gt;Node32 -->
<g id="edge58" class="edge"><title>Node0&#45;&gt;Node32</title>
<path fill="none" stroke="midnightblue" d="M2011.78,-391.399C2037.4,-381.372 2071.49,-368.028 2096.07,-358.405"/>
<polygon fill="midnightblue" stroke="midnightblue" points="2097.6,-361.562 2105.64,-354.658 2095.05,-355.044 2097.6,-361.562"/>
</g>
<!-- Node2 -->
<g id="node3" class="node"><title>Node2</title>
<polygon fill="white" stroke="#bfbfbf" points="1639.76,-0.5 1639.76,-19.5 1695.76,-19.5 1695.76,-0.5 1639.76,-0.5"/>
<text text-anchor="middle" x="1667.76" y="-7.5" font-family="Arial" font-size="10.00">stdbool.h</text>
</g>
<!-- Node1&#45;&gt;Node2 -->
<g id="edge2" class="edge"><title>Node1&#45;&gt;Node2</title>
<path fill="none" stroke="midnightblue" d="M1718.15,-335.447C1714.48,-315.091 1705.76,-262.134 1705.76,-217.5 1705.76,-217.5 1705.76,-217.5 1705.76,-143 1705.76,-100.85 1687.64,-53.9796 1676.43,-28.9998"/>
<polygon fill="midnightblue" stroke="midnightblue" points="1679.5,-27.3087 1672.12,-19.7119 1673.15,-30.256 1679.5,-27.3087"/>
</g>
<!-- Node3 -->
<g id="node4" class="node"><title>Node3</title>
<g id="a_node4"><a xlink:href="client__types_8h.html" target="_top" xlink:title="mir_toolkit/client\l_types.h">
<polygon fill="white" stroke="black" points="817.758,-268.5 817.758,-298.5 905.758,-298.5 905.758,-268.5 817.758,-268.5"/>
<text text-anchor="start" x="825.758" y="-286.5" font-family="Arial" font-size="10.00">mir_toolkit/client</text>
<text text-anchor="middle" x="861.758" y="-275.5" font-family="Arial" font-size="10.00">_types.h</text>
</a>
</g>
</g>
<!-- Node1&#45;&gt;Node3 -->
<g id="edge3" class="edge"><title>Node1&#45;&gt;Node3</title>
<path fill="none" stroke="midnightblue" d="M1661.46,-339.957C1503.65,-329.014 1069.75,-298.924 916.358,-288.286"/>
<polygon fill="midnightblue" stroke="midnightblue" points="916.454,-284.785 906.235,-287.584 915.969,-291.768 916.454,-284.785"/>
</g>
<!-- Node1&#45;&gt;Node25 -->
<g id="edge48" class="edge"><title>Node1&#45;&gt;Node25</title>
<path fill="none" stroke="midnightblue" d="M1729.64,-335.475C1738.81,-327.567 1752.83,-315.485 1764.91,-305.067"/>
<polygon fill="midnightblue" stroke="midnightblue" points="1767.21,-307.704 1772.5,-298.523 1762.64,-302.403 1767.21,-307.704"/>
</g>
<!-- Node4 -->
<g id="node5" class="node"><title>Node4</title>
<g id="a_node5"><a xlink:href="events_2event_8h.html" target="_top" xlink:title="mir_toolkit/events\l/event.h">
<polygon fill="white" stroke="black" points="814.758,-201.5 814.758,-231.5 908.758,-231.5 908.758,-201.5 814.758,-201.5"/>
<text text-anchor="start" x="822.758" y="-219.5" font-family="Arial" font-size="10.00">mir_toolkit/events</text>
<text text-anchor="middle" x="861.758" y="-208.5" font-family="Arial" font-size="10.00">/event.h</text>
</a>
</g>
</g>
<!-- Node3&#45;&gt;Node4 -->
<g id="edge4" class="edge"><title>Node3&#45;&gt;Node4</title>
<path fill="none" stroke="midnightblue" d="M861.758,-268.396C861.758,-260.645 861.758,-250.812 861.758,-241.86"/>
<polygon fill="midnightblue" stroke="midnightblue" points="865.258,-241.576 861.758,-231.577 858.258,-241.577 865.258,-241.576"/>
</g>
<!-- Node5 -->
<g id="node6" class="node"><title>Node5</title>
<polygon fill="white" stroke="#bfbfbf" points="1571.76,-134.5 1571.76,-153.5 1623.76,-153.5 1623.76,-134.5 1571.76,-134.5"/>
<text text-anchor="middle" x="1597.76" y="-141.5" font-family="Arial" font-size="10.00">stddef.h</text>
</g>
<!-- Node3&#45;&gt;Node5 -->
<g id="edge47" class="edge"><title>Node3&#45;&gt;Node5</title>
<path fill="none" stroke="midnightblue" d="M905.768,-280.487C1018.31,-274.208 1324.49,-249.984 1562.76,-165 1567.33,-163.369 1572,-161.153 1576.37,-158.789"/>
<polygon fill="midnightblue" stroke="midnightblue" points="1578.46,-161.621 1585.32,-153.548 1574.92,-155.581 1578.46,-161.621"/>
</g>
<!-- Node7 -->
<g id="node8" class="node"><title>Node7</title>
<g id="a_node8"><a xlink:href="common_8h.html" target="_top" xlink:title="mir_toolkit/common.h">
<polygon fill="white" stroke="black" points="17.7584,-134.5 17.7584,-153.5 127.758,-153.5 127.758,-134.5 17.7584,-134.5"/>
<text text-anchor="middle" x="72.7584" y="-141.5" font-family="Arial" font-size="10.00">mir_toolkit/common.h</text>
</a>
</g>
</g>
<!-- Node3&#45;&gt;Node7 -->
<g id="edge45" class="edge"><title>Node3&#45;&gt;Node7</title>
<path fill="none" stroke="midnightblue" d="M817.381,-275.914C706.481,-259.27 408.443,-213.384 161.758,-165 147.627,-162.228 132.306,-158.902 118.423,-155.766"/>
<polygon fill="midnightblue" stroke="midnightblue" points="119.134,-152.338 108.606,-153.526 117.577,-159.163 119.134,-152.338"/>
</g>
<!-- Node8 -->
<g id="node9" class="node"><title>Node8</title>
<g id="a_node9"><a xlink:href="deprecations_8h.html" target="_top" xlink:title="mir_toolkit/deprecations.h">
<polygon fill="white" stroke="black" points="128.758,-62 128.758,-81 256.758,-81 256.758,-62 128.758,-62"/>
<text text-anchor="middle" x="192.758" y="-69" font-family="Arial" font-size="10.00">mir_toolkit/deprecations.h</text>
</a>
</g>
</g>
<!-- Node3&#45;&gt;Node8 -->
<g id="edge46" class="edge"><title>Node3&#45;&gt;Node8</title>
<path fill="none" stroke="midnightblue" d="M817.595,-279.844C650.144,-269.322 61.1751,-228.04 8.75837,-165 -3.17604,-150.647 -2.56024,-137.844 8.75837,-123 22.8398,-104.533 76.6924,-91.146 122.526,-82.814"/>
<polygon fill="midnightblue" stroke="midnightblue" points="123.227,-86.2446 132.467,-81.0615 122.011,-79.3509 123.227,-86.2446"/>
</g>
<!-- Node4&#45;&gt;Node5 -->
<g id="edge5" class="edge"><title>Node4&#45;&gt;Node5</title>
<path fill="none" stroke="midnightblue" d="M908.927,-213.318C1056.07,-206.343 1500.56,-183.935 1562.76,-165 1567.61,-163.524 1572.52,-161.281 1577.06,-158.825"/>
<polygon fill="midnightblue" stroke="midnightblue" points="1578.94,-161.78 1585.74,-153.659 1575.36,-155.764 1578.94,-161.78"/>
</g>
<!-- Node6 -->
<g id="node7" class="node"><title>Node6</title>
<polygon fill="white" stroke="#bfbfbf" points="1231.26,-0.5 1231.26,-19.5 1280.26,-19.5 1280.26,-0.5 1231.26,-0.5"/>
<text text-anchor="middle" x="1255.76" y="-7.5" font-family="Arial" font-size="10.00">stdint.h</text>
</g>
<!-- Node4&#45;&gt;Node6 -->
<g id="edge6" class="edge"><title>Node4&#45;&gt;Node6</title>
<path fill="none" stroke="midnightblue" d="M909.01,-213.444C1015.62,-208.322 1267.56,-193.319 1292.76,-165 1305.17,-151.054 1299.9,-140.246 1292.76,-123 1284.1,-102.095 1265.55,-107.848 1256.76,-87 1249.08,-68.8034 1250.04,-45.9058 1252.16,-30.0241"/>
<polygon fill="midnightblue" stroke="midnightblue" points="1255.66,-30.2979 1253.8,-19.8673 1248.75,-29.1803 1255.66,-30.2979"/>
</g>
<!-- Node4&#45;&gt;Node7 -->
<g id="edge7" class="edge"><title>Node4&#45;&gt;Node7</title>
<path fill="none" stroke="midnightblue" d="M814.41,-213.492C675.68,-207.402 271.759,-188.129 141.758,-165 130.289,-162.959 118.003,-159.745 107.024,-156.486"/>
<polygon fill="midnightblue" stroke="midnightblue" points="107.956,-153.111 97.3687,-153.512 105.895,-159.801 107.956,-153.111"/>
</g>
<!-- Node4&#45;&gt;Node8 -->
<g id="edge9" class="edge"><title>Node4&#45;&gt;Node8</title>
<path fill="none" stroke="midnightblue" d="M814.641,-213.781C663.062,-208.024 196.56,-188.463 174.758,-165 155.819,-144.618 169.987,-110.494 181.633,-89.8811"/>
<polygon fill="midnightblue" stroke="midnightblue" points="184.691,-91.5883 186.835,-81.2127 178.688,-87.9864 184.691,-91.5883"/>
</g>
<!-- Node9 -->
<g id="node10" class="node"><title>Node9</title>
<g id="a_node10"><a xlink:href="input__event_8h.html" target="_top" xlink:title="mir_toolkit/events\l/input/input_event.h">
<polygon fill="white" stroke="black" points="1339.76,-129 1339.76,-159 1441.76,-159 1441.76,-129 1339.76,-129"/>
<text text-anchor="start" x="1347.76" y="-147" font-family="Arial" font-size="10.00">mir_toolkit/events</text>
<text text-anchor="middle" x="1390.76" y="-136" font-family="Arial" font-size="10.00">/input/input_event.h</text>
</a>
</g>
</g>
<!-- Node4&#45;&gt;Node9 -->
<g id="edge10" class="edge"><title>Node4&#45;&gt;Node9</title>
<path fill="none" stroke="midnightblue" d="M908.876,-213.03C992.049,-208.243 1169.55,-195.371 1316.76,-165 1321.17,-164.09 1325.71,-163.007 1330.27,-161.822"/>
<polygon fill="midnightblue" stroke="midnightblue" points="1331.53,-165.107 1340.26,-159.095 1329.69,-158.354 1331.53,-165.107"/>
</g>
<!-- Node15 -->
<g id="node16" class="node"><title>Node15</title>
<g id="a_node16"><a xlink:href="resize__event_8h.html" target="_top" xlink:title="mir_toolkit/events\l/resize_event.h">
<polygon fill="white" stroke="black" points="1189.76,-129 1189.76,-159 1283.76,-159 1283.76,-129 1189.76,-129"/>
<text text-anchor="start" x="1197.76" y="-147" font-family="Arial" font-size="10.00">mir_toolkit/events</text>
<text text-anchor="middle" x="1236.76" y="-136" font-family="Arial" font-size="10.00">/resize_event.h</text>
</a>
</g>
</g>
<!-- Node4&#45;&gt;Node15 -->
<g id="edge21" class="edge"><title>Node4&#45;&gt;Node15</title>
<path fill="none" stroke="midnightblue" d="M909.022,-210.09C970.331,-202.944 1079.94,-188.446 1171.76,-165 1175.11,-164.144 1178.55,-163.169 1182,-162.122"/>
<polygon fill="midnightblue" stroke="midnightblue" points="1183.29,-165.384 1191.76,-159.014 1181.17,-158.714 1183.29,-165.384"/>
</g>
<!-- Node16 -->
<g id="node17" class="node"><title>Node16</title>
<g id="a_node17"><a xlink:href="surface__event_8h.html" target="_top" xlink:title="mir_toolkit/events\l/surface_event.h">
<polygon fill="white" stroke="black" points="183.758,-129 183.758,-159 277.758,-159 277.758,-129 183.758,-129"/>
<text text-anchor="start" x="191.758" y="-147" font-family="Arial" font-size="10.00">mir_toolkit/events</text>
<text text-anchor="middle" x="230.758" y="-136" font-family="Arial" font-size="10.00">/surface_event.h</text>
</a>
</g>
</g>
<!-- Node4&#45;&gt;Node16 -->
<g id="edge23" class="edge"><title>Node4&#45;&gt;Node16</title>
<path fill="none" stroke="midnightblue" d="M814.651,-215.455C714.37,-214.557 473.552,-207.821 277.758,-165 274.115,-164.203 270.385,-163.233 266.69,-162.154"/>
<polygon fill="midnightblue" stroke="midnightblue" points="267.668,-158.792 257.077,-159.09 265.541,-165.462 267.668,-158.792"/>
</g>
<!-- Node17 -->
<g id="node18" class="node"><title>Node17</title>
<g id="a_node18"><a xlink:href="window__event_8h.html" target="_top" xlink:title="mir_toolkit/events\l/window_event.h">
<polygon fill="white" stroke="black" points="295.758,-129 295.758,-159 389.758,-159 389.758,-129 295.758,-129"/>
<text text-anchor="start" x="303.758" y="-147" font-family="Arial" font-size="10.00">mir_toolkit/events</text>
<text text-anchor="middle" x="342.758" y="-136" font-family="Arial" font-size="10.00">/window_event.h</text>
</a>
</g>
</g>
<!-- Node4&#45;&gt;Node17 -->
<g id="edge26" class="edge"><title>Node4&#45;&gt;Node17</title>
<path fill="none" stroke="midnightblue" d="M814.596,-214.204C728.738,-210.959 542.247,-200.035 389.758,-165 386.282,-164.201 382.725,-163.254 379.193,-162.213"/>
<polygon fill="midnightblue" stroke="midnightblue" points="379.988,-158.792 369.397,-159.075 377.852,-165.459 379.988,-158.792"/>
</g>
<!-- Node18 -->
<g id="node19" class="node"><title>Node18</title>
<g id="a_node19"><a xlink:href="orientation__event_8h.html" target="_top" xlink:title="mir_toolkit/events\l/orientation_event.h">
<polygon fill="white" stroke="black" points="407.758,-129 407.758,-159 509.758,-159 509.758,-129 407.758,-129"/>
<text text-anchor="start" x="415.758" y="-147" font-family="Arial" font-size="10.00">mir_toolkit/events</text>
<text text-anchor="middle" x="458.758" y="-136" font-family="Arial" font-size="10.00">/orientation_event.h</text>
</a>
</g>
</g>
<!-- Node4&#45;&gt;Node18 -->
<g id="edge28" class="edge"><title>Node4&#45;&gt;Node18</title>
<path fill="none" stroke="midnightblue" d="M814.698,-211.778C746.493,-205.41 617.052,-190.571 509.758,-165 506.07,-164.121 502.285,-163.115 498.519,-162.033"/>
<polygon fill="midnightblue" stroke="midnightblue" points="499.258,-158.599 488.672,-159.023 497.212,-165.293 499.258,-158.599"/>
</g>
<!-- Node19 -->
<g id="node20" class="node"><title>Node19</title>
<g id="a_node20"><a xlink:href="prompt__session__event_8h.html" target="_top" xlink:title="mir_toolkit/events\l/prompt_session_event.h">
<polygon fill="white" stroke="black" points="527.758,-129 527.758,-159 653.758,-159 653.758,-129 527.758,-129"/>
<text text-anchor="start" x="535.758" y="-147" font-family="Arial" font-size="10.00">mir_toolkit/events</text>
<text text-anchor="middle" x="590.758" y="-136" font-family="Arial" font-size="10.00">/prompt_session_event.h</text>
</a>
</g>
</g>
<!-- Node4&#45;&gt;Node19 -->
<g id="edge30" class="edge"><title>Node4&#45;&gt;Node19</title>
<path fill="none" stroke="midnightblue" d="M814.446,-205.513C772.031,-195.511 708.531,-179.555 653.758,-165 649.738,-163.932 645.596,-162.817 641.442,-161.685"/>
<polygon fill="midnightblue" stroke="midnightblue" points="642.354,-158.306 631.783,-159.024 640.495,-165.054 642.354,-158.306"/>
</g>
<!-- Node20 -->
<g id="node21" class="node"><title>Node20</title>
<g id="a_node21"><a xlink:href="keymap__event_8h.html" target="_top" xlink:title="mir_toolkit/events\l/keymap_event.h">
<polygon fill="white" stroke="black" points="1459.76,-129 1459.76,-159 1553.76,-159 1553.76,-129 1459.76,-129"/>
<text text-anchor="start" x="1467.76" y="-147" font-family="Arial" font-size="10.00">mir_toolkit/events</text>
<text text-anchor="middle" x="1506.76" y="-136" font-family="Arial" font-size="10.00">/keymap_event.h</text>
</a>
</g>
</g>
<!-- Node4&#45;&gt;Node20 -->
<g id="edge32" class="edge"><title>Node4&#45;&gt;Node20</title>
<path fill="none" stroke="midnightblue" d="M908.964,-215.502C1008.66,-214.527 1246.95,-207.393 1441.76,-165 1445.51,-164.184 1449.35,-163.182 1453.21,-162.067"/>
<polygon fill="midnightblue" stroke="midnightblue" points="1454.26,-165.405 1462.78,-159.101 1452.19,-158.719 1454.26,-165.405"/>
</g>
<!-- Node21 -->
<g id="node22" class="node"><title>Node21</title>
<g id="a_node22"><a xlink:href="input__configuration__event_8h.html" target="_top" xlink:title="mir_toolkit/events\l/input_configuration\l_event.h">
<polygon fill="white" stroke="black" points="930.258,-123.5 930.258,-164.5 1031.26,-164.5 1031.26,-123.5 930.258,-123.5"/>
<text text-anchor="start" x="938.258" y="-152.5" font-family="Arial" font-size="10.00">mir_toolkit/events</text>
<text text-anchor="start" x="938.258" y="-141.5" font-family="Arial" font-size="10.00">/input_configuration</text>
<text text-anchor="middle" x="980.758" y="-130.5" font-family="Arial" font-size="10.00">_event.h</text>
</a>
</g>
</g>
<!-- Node4&#45;&gt;Node21 -->
<g id="edge35" class="edge"><title>Node4&#45;&gt;Node21</title>
<path fill="none" stroke="midnightblue" d="M880.027,-201.403C894.098,-192.355 914.032,-180.358 932.498,-169.754"/>
<polygon fill="midnightblue" stroke="midnightblue" points="934.453,-172.668 941.413,-164.68 930.991,-166.585 934.453,-172.668"/>
</g>
<!-- Node22 -->
<g id="node23" class="node"><title>Node22</title>
<g id="a_node23"><a xlink:href="surface__output__event_8h.html" target="_top" xlink:title="mir_toolkit/events\l/surface_output_event.h">
<polygon fill="white" stroke="black" points="1049.76,-129 1049.76,-159 1171.76,-159 1171.76,-129 1049.76,-129"/>
<text text-anchor="start" x="1057.76" y="-147" font-family="Arial" font-size="10.00">mir_toolkit/events</text>
<text text-anchor="middle" x="1110.76" y="-136" font-family="Arial" font-size="10.00">/surface_output_event.h</text>
</a>
</g>
</g>
<!-- Node4&#45;&gt;Node22 -->
<g id="edge38" class="edge"><title>Node4&#45;&gt;Node22</title>
<path fill="none" stroke="midnightblue" d="M905.735,-201.487C944.556,-190.063 1001.55,-173.895 1045.64,-161.782"/>
<polygon fill="midnightblue" stroke="midnightblue" points="1046.69,-165.124 1055.41,-159.107 1044.84,-158.372 1046.69,-165.124"/>
</g>
<!-- Node23 -->
<g id="node24" class="node"><title>Node23</title>
<g id="a_node24"><a xlink:href="window__output__event_8h.html" target="_top" xlink:title="mir_toolkit/events\l/window_output_event.h">
<polygon fill="white" stroke="black" points="672.258,-129 672.258,-159 793.258,-159 793.258,-129 672.258,-129"/>
<text text-anchor="start" x="680.258" y="-147" font-family="Arial" font-size="10.00">mir_toolkit/events</text>
<text text-anchor="middle" x="732.758" y="-136" font-family="Arial" font-size="10.00">/window_output_event.h</text>
</a>
</g>
</g>
<!-- Node4&#45;&gt;Node23 -->
<g id="edge41" class="edge"><title>Node4&#45;&gt;Node23</title>
<path fill="none" stroke="midnightblue" d="M830.437,-201.403C809.51,-190.74 782.314,-175.979 761.861,-164.232"/>
<polygon fill="midnightblue" stroke="midnightblue" points="763.39,-161.073 752.986,-159.073 759.872,-167.124 763.39,-161.073"/>
</g>
<!-- Node24 -->
<g id="node25" class="node"><title>Node24</title>
<g id="a_node25"><a xlink:href="input__device__state__event_8h.html" target="_top" xlink:title="mir_toolkit/events\l/input_device_state\l_event.h">
<polygon fill="white" stroke="black" points="811.258,-123.5 811.258,-164.5 912.258,-164.5 912.258,-123.5 811.258,-123.5"/>
<text text-anchor="start" x="819.258" y="-152.5" font-family="Arial" font-size="10.00">mir_toolkit/events</text>
<text text-anchor="start" x="819.258" y="-141.5" font-family="Arial" font-size="10.00">/input_device_state</text>
<text text-anchor="middle" x="861.758" y="-130.5" font-family="Arial" font-size="10.00">_event.h</text>
</a>
</g>
</g>
<!-- Node4&#45;&gt;Node24 -->
<g id="edge43" class="edge"><title>Node4&#45;&gt;Node24</title>
<path fill="none" stroke="midnightblue" d="M856.21,-201.233C855.206,-193.574 854.831,-183.837 855.085,-174.626"/>
<polygon fill="midnightblue" stroke="midnightblue" points="858.583,-174.766 855.639,-164.588 851.593,-174.38 858.583,-174.766"/>
</g>
<!-- Node7&#45;&gt;Node8 -->
<g id="edge8" class="edge"><title>Node7&#45;&gt;Node8</title>
<path fill="none" stroke="midnightblue" d="M87.4727,-134.355C107.805,-122.41 144.725,-100.72 168.995,-86.4608"/>
<polygon fill="midnightblue" stroke="midnightblue" points="171.074,-89.2987 177.924,-81.2154 167.529,-83.2632 171.074,-89.2987"/>
</g>
<!-- Node9&#45;&gt;Node2 -->
<g id="edge15" class="edge"><title>Node9&#45;&gt;Node2</title>
<path fill="none" stroke="midnightblue" d="M1430.22,-128.965C1437.02,-126.8 1444.06,-124.717 1450.76,-123 1537.4,-100.802 1583.49,-148.153 1648.76,-87 1664.39,-72.3544 1667.98,-46.9627 1668.43,-29.5912"/>
<polygon fill="midnightblue" stroke="midnightblue" points="1671.93,-29.5048 1668.36,-19.5274 1664.93,-29.5497 1671.93,-29.5048"/>
</g>
<!-- Node9&#45;&gt;Node4 -->
<g id="edge11" class="edge"><title>Node9&#45;&gt;Node4</title>
<path fill="none" stroke="midnightblue" d="M1357.95,-159.095C1350.41,-161.334 1342.39,-163.425 1334.76,-165 1187.05,-195.474 1008.84,-208.331 919.113,-213.078"/>
<polygon fill="midnightblue" stroke="midnightblue" points="918.685,-209.596 908.878,-213.605 919.045,-216.586 918.685,-209.596"/>
</g>
<!-- Node9&#45;&gt;Node6 -->
<g id="edge14" class="edge"><title>Node9&#45;&gt;Node6</title>
<path fill="none" stroke="midnightblue" d="M1353.31,-128.957C1323.6,-117.113 1285.38,-100.053 1274.76,-87 1261.51,-70.714 1257.33,-46.433 1256.1,-29.7217"/>
<polygon fill="midnightblue" stroke="midnightblue" points="1259.59,-29.3864 1255.64,-19.553 1252.59,-29.6996 1259.59,-29.3864"/>
</g>
<!-- Node10 -->
<g id="node11" class="node"><title>Node10</title>
<g id="a_node11"><a xlink:href="mir__input__device__types_8h.html" target="_top" xlink:title="mir_toolkit/mir_input\l_device_types.h">
<polygon fill="white" stroke="black" points="1407.76,-56.5 1407.76,-86.5 1511.76,-86.5 1511.76,-56.5 1407.76,-56.5"/>
<text text-anchor="start" x="1415.76" y="-74.5" font-family="Arial" font-size="10.00">mir_toolkit/mir_input</text>
<text text-anchor="middle" x="1459.76" y="-63.5" font-family="Arial" font-size="10.00">_device_types.h</text>
</a>
</g>
</g>
<!-- Node9&#45;&gt;Node10 -->
<g id="edge12" class="edge"><title>Node9&#45;&gt;Node10</title>
<path fill="none" stroke="midnightblue" d="M1404.72,-128.733C1414.45,-118.795 1427.6,-105.359 1438.61,-94.1119"/>
<polygon fill="midnightblue" stroke="midnightblue" points="1441.32,-96.3404 1445.82,-86.7455 1436.32,-91.4441 1441.32,-96.3404"/>
</g>
<!-- Node11 -->
<g id="node12" class="node"><title>Node11</title>
<g id="a_node12"><a xlink:href="touch__event_8h.html" target="_top" xlink:title="mir_toolkit/events\l/input/touch_event.h">
<polygon fill="white" stroke="black" points="1284.26,-56.5 1284.26,-86.5 1389.26,-86.5 1389.26,-56.5 1284.26,-56.5"/>
<text text-anchor="start" x="1292.26" y="-74.5" font-family="Arial" font-size="10.00">mir_toolkit/events</text>
<text text-anchor="middle" x="1336.76" y="-63.5" font-family="Arial" font-size="10.00">/input/touch_event.h</text>
</a>
</g>
</g>
<!-- Node9&#45;&gt;Node11 -->
<g id="edge16" class="edge"><title>Node9&#45;&gt;Node11</title>
<path fill="none" stroke="midnightblue" d="M1379.83,-128.733C1372.36,-118.986 1362.32,-105.874 1353.81,-94.7632"/>
<polygon fill="midnightblue" stroke="midnightblue" points="1356.53,-92.556 1347.67,-86.7455 1350.97,-96.8126 1356.53,-92.556"/>
</g>
<!-- Node12 -->
<g id="node13" class="node"><title>Node12</title>
<g id="a_node13"><a xlink:href="keyboard__event_8h.html" target="_top" xlink:title="mir_toolkit/events\l/input/keyboard_event.h">
<polygon fill="white" stroke="black" points="1734.26,-56.5 1734.26,-86.5 1855.26,-86.5 1855.26,-56.5 1734.26,-56.5"/>
<text text-anchor="start" x="1742.26" y="-74.5" font-family="Arial" font-size="10.00">mir_toolkit/events</text>
<text text-anchor="middle" x="1794.76" y="-63.5" font-family="Arial" font-size="10.00">/input/keyboard_event.h</text>
</a>
</g>
</g>
<!-- Node9&#45;&gt;Node12 -->
<g id="edge17" class="edge"><title>Node9&#45;&gt;Node12</title>
<path fill="none" stroke="midnightblue" d="M1429.52,-128.974C1436.53,-126.756 1443.82,-124.653 1450.76,-123 1476.72,-116.818 1631.01,-95.0724 1723.92,-82.2201"/>
<polygon fill="midnightblue" stroke="midnightblue" points="1724.67,-85.6494 1734.1,-80.8135 1723.71,-78.7153 1724.67,-85.6494"/>
</g>
<!-- Node14 -->
<g id="node15" class="node"><title>Node14</title>
<g id="a_node15"><a xlink:href="pointer__event_8h.html" target="_top" xlink:title="mir_toolkit/events\l/input/pointer_event.h">
<polygon fill="white" stroke="black" points="1529.76,-56.5 1529.76,-86.5 1639.76,-86.5 1639.76,-56.5 1529.76,-56.5"/>
<text text-anchor="start" x="1537.76" y="-74.5" font-family="Arial" font-size="10.00">mir_toolkit/events</text>
<text text-anchor="middle" x="1584.76" y="-63.5" font-family="Arial" font-size="10.00">/input/pointer_event.h</text>
</a>
</g>
</g>
<!-- Node9&#45;&gt;Node14 -->
<g id="edge19" class="edge"><title>Node9&#45;&gt;Node14</title>
<path fill="none" stroke="midnightblue" d="M1429.55,-128.903C1460.35,-117.711 1503.56,-102.006 1536.58,-90.0093"/>
<polygon fill="midnightblue" stroke="midnightblue" points="1537.83,-93.2779 1546.03,-86.5729 1535.44,-86.6989 1537.83,-93.2779"/>
</g>
<!-- Node10&#45;&gt;Node6 -->
<g id="edge13" class="edge"><title>Node10&#45;&gt;Node6</title>
<path fill="none" stroke="midnightblue" d="M1411.67,-56.4747C1374.31,-45.5771 1323.4,-30.7291 1290.07,-21.0077"/>
<polygon fill="midnightblue" stroke="midnightblue" points="1290.91,-17.6054 1280.33,-18.1653 1288.95,-24.3254 1290.91,-17.6054"/>
</g>
<!-- Node13 -->
<g id="node14" class="node"><title>Node13</title>
<polygon fill="white" stroke="#bfbfbf" points="1771.76,-0.5 1771.76,-19.5 1905.76,-19.5 1905.76,-0.5 1771.76,-0.5"/>
<text text-anchor="middle" x="1838.76" y="-7.5" font-family="Arial" font-size="10.00">xkbcommon/xkbcommon.h</text>
</g>
<!-- Node12&#45;&gt;Node13 -->
<g id="edge18" class="edge"><title>Node12&#45;&gt;Node13</title>
<path fill="none" stroke="midnightblue" d="M1805.19,-56.3993C1811.51,-47.8424 1819.63,-36.8708 1826.29,-27.857"/>
<polygon fill="midnightblue" stroke="midnightblue" points="1829.22,-29.7792 1832.36,-19.6578 1823.6,-25.6171 1829.22,-29.7792"/>
</g>
<!-- Node14&#45;&gt;Node2 -->
<g id="edge20" class="edge"><title>Node14&#45;&gt;Node2</title>
<path fill="none" stroke="midnightblue" d="M1604.43,-56.3993C1617.36,-47.1293 1634.24,-35.0254 1647.33,-25.6469"/>
<polygon fill="midnightblue" stroke="midnightblue" points="1649.59,-28.3287 1655.68,-19.6578 1645.51,-22.6395 1649.59,-28.3287"/>
</g>
<!-- Node15&#45;&gt;Node4 -->
<g id="edge22" class="edge"><title>Node15&#45;&gt;Node4</title>
<path fill="none" stroke="midnightblue" d="M1209.47,-159.014C1203.07,-161.233 1196.26,-163.34 1189.76,-165 1096.68,-188.769 985.3,-203.343 919.113,-210.382"/>
<polygon fill="midnightblue" stroke="midnightblue" points="918.472,-206.93 908.888,-211.448 919.197,-213.892 918.472,-206.93"/>
</g>
<!-- Node16&#45;&gt;Node4 -->
<g id="edge24" class="edge"><title>Node16&#45;&gt;Node4</title>
<path fill="none" stroke="midnightblue" d="M274.74,-159.09C281.735,-161.386 288.9,-163.5 295.758,-165 478.899,-205.053 701.433,-213.535 804.474,-215.199"/>
<polygon fill="midnightblue" stroke="midnightblue" points="804.611,-218.702 814.661,-215.348 804.713,-211.702 804.611,-218.702"/>
</g>
<!-- Node16&#45;&gt;Node8 -->
<g id="edge25" class="edge"><title>Node16&#45;&gt;Node8</title>
<path fill="none" stroke="midnightblue" d="M223.069,-128.733C217.105,-117.669 208.803,-102.267 202.396,-90.3798"/>
<polygon fill="midnightblue" stroke="midnightblue" points="205.378,-88.5352 197.552,-81.3932 199.216,-91.8565 205.378,-88.5352"/>
</g>
<!-- Node17&#45;&gt;Node4 -->
<g id="edge27" class="edge"><title>Node17&#45;&gt;Node4</title>
<path fill="none" stroke="midnightblue" d="M387.074,-159.075C393.969,-161.343 401.017,-163.451 407.758,-165 548.232,-197.274 717.562,-209.087 804.417,-213.286"/>
<polygon fill="midnightblue" stroke="midnightblue" points="804.44,-216.791 814.592,-213.761 804.767,-209.798 804.44,-216.791"/>
</g>
<!-- Node18&#45;&gt;Node4 -->
<g id="edge29" class="edge"><title>Node18&#45;&gt;Node4</title>
<path fill="none" stroke="midnightblue" d="M506.377,-159.023C513.531,-161.242 520.816,-163.345 527.758,-165 623.629,-187.849 737.182,-202.129 804.222,-209.454"/>
<polygon fill="midnightblue" stroke="midnightblue" points="804.254,-212.977 814.572,-210.57 805.005,-206.018 804.254,-212.977"/>
</g>
<!-- Node19&#45;&gt;Node4 -->
<g id="edge31" class="edge"><title>Node19&#45;&gt;Node4</title>
<path fill="none" stroke="midnightblue" d="M649.585,-159.024C657.078,-161.056 664.612,-163.101 671.758,-165 716.504,-176.891 767.074,-189.716 804.863,-199.466"/>
<polygon fill="midnightblue" stroke="midnightblue" points="804.117,-202.888 814.675,-202.004 805.87,-196.111 804.117,-202.888"/>
</g>
<!-- Node20&#45;&gt;Node4 -->
<g id="edge33" class="edge"><title>Node20&#45;&gt;Node4</title>
<path fill="none" stroke="midnightblue" d="M1480.44,-159.101C1473.78,-161.396 1466.62,-163.507 1459.76,-165 1265.17,-207.347 1027.18,-214.511 919.452,-215.499"/>
<polygon fill="midnightblue" stroke="midnightblue" points="919.103,-212.002 909.13,-215.578 919.157,-219.001 919.103,-212.002"/>
</g>
<!-- Node20&#45;&gt;Node13 -->
<g id="edge34" class="edge"><title>Node20&#45;&gt;Node13</title>
<path fill="none" stroke="midnightblue" d="M1542.25,-128.983C1548.98,-126.709 1556.03,-124.584 1562.76,-123 1628.33,-107.575 1819.04,-137.384 1863.76,-87 1878.54,-70.3459 1865,-44.7465 1852.82,-27.9362"/>
<polygon fill="midnightblue" stroke="midnightblue" points="1855.27,-25.38 1846.38,-19.614 1849.73,-29.6644 1855.27,-25.38"/>
</g>
<!-- Node21&#45;&gt;Node4 -->
<g id="edge36" class="edge"><title>Node21&#45;&gt;Node4</title>
<path fill="none" stroke="midnightblue" d="M953.667,-164.68C937.739,-174.62 917.453,-186.626 899.945,-196.473"/>
<polygon fill="midnightblue" stroke="midnightblue" points="898.118,-193.484 891.08,-201.403 901.521,-199.601 898.118,-193.484"/>
</g>
<!-- Node21&#45;&gt;Node8 -->
<g id="edge37" class="edge"><title>Node21&#45;&gt;Node8</title>
<path fill="none" stroke="midnightblue" d="M929.931,-125.087C926.848,-124.303 923.774,-123.597 920.758,-123 797.249,-98.5411 426.68,-81.6204 267.143,-75.2766"/>
<polygon fill="midnightblue" stroke="midnightblue" points="267.075,-71.7713 256.945,-74.8741 266.799,-78.7658 267.075,-71.7713"/>
</g>
<!-- Node22&#45;&gt;Node4 -->
<g id="edge39" class="edge"><title>Node22&#45;&gt;Node4</title>
<path fill="none" stroke="midnightblue" d="M1066.43,-159.116C1025.19,-171.247 963.671,-188.672 918.8,-200.932"/>
<polygon fill="midnightblue" stroke="midnightblue" points="917.651,-197.617 908.921,-203.62 919.489,-204.371 917.651,-197.617"/>
</g>
<!-- Node22&#45;&gt;Node8 -->
<g id="edge40" class="edge"><title>Node22&#45;&gt;Node8</title>
<path fill="none" stroke="midnightblue" d="M1066.4,-128.928C1057.65,-126.6 1048.47,-124.469 1039.76,-123 757.291,-75.366 415.235,-70.9595 267.099,-71.5937"/>
<polygon fill="midnightblue" stroke="midnightblue" points="266.754,-68.0954 256.772,-71.6476 266.79,-75.0953 266.754,-68.0954"/>
</g>
<!-- Node23&#45;&gt;Node4 -->
<g id="edge42" class="edge"><title>Node23&#45;&gt;Node4</title>
<path fill="none" stroke="midnightblue" d="M764.032,-159.073C784.949,-169.73 812.145,-184.489 832.608,-196.241"/>
<polygon fill="midnightblue" stroke="midnightblue" points="831.085,-199.404 841.49,-201.403 834.603,-193.352 831.085,-199.404"/>
</g>
<!-- Node24&#45;&gt;Node4 -->
<g id="edge44" class="edge"><title>Node24&#45;&gt;Node4</title>
<path fill="none" stroke="midnightblue" d="M867.877,-164.588C868.589,-172.853 868.699,-182.56 868.206,-191.269"/>
<polygon fill="midnightblue" stroke="midnightblue" points="864.72,-190.959 867.307,-201.233 871.692,-191.588 864.72,-190.959"/>
</g>
<!-- Node27 -->
<g id="node28" class="node"><title>Node27</title>
<g id="a_node28"><a xlink:href="dimensions_8h.html" target="_top" xlink:title="mir/geometry/dimensions.h">
<polygon fill="white" stroke="black" points="1861.76,-274 1861.76,-293 1995.76,-293 1995.76,-274 1861.76,-274"/>
<text text-anchor="middle" x="1928.76" y="-281" font-family="Arial" font-size="10.00">mir/geometry/dimensions.h</text>
</a>
</g>
</g>
<!-- Node26&#45;&gt;Node27 -->
<g id="edge51" class="edge"><title>Node26&#45;&gt;Node27</title>
<path fill="none" stroke="midnightblue" d="M1928.76,-335.475C1928.76,-327.08 1928.76,-313.981 1928.76,-303.163"/>
<polygon fill="midnightblue" stroke="midnightblue" points="1932.26,-303.009 1928.76,-293.009 1925.26,-303.009 1932.26,-303.009"/>
</g>
<!-- Node29 -->
<g id="node30" class="node"><title>Node29</title>
<polygon fill="white" stroke="#bfbfbf" points="1985.76,-207 1985.76,-226 2029.76,-226 2029.76,-207 1985.76,-207"/>
<text text-anchor="middle" x="2007.76" y="-214" font-family="Arial" font-size="10.00">iosfwd</text>
</g>
<!-- Node26&#45;&gt;Node29 -->
<g id="edge54" class="edge"><title>Node26&#45;&gt;Node29</title>
<path fill="none" stroke="midnightblue" d="M1956.17,-335.422C1973.32,-328.504 1994.1,-316.924 2004.76,-299 2016.1,-279.933 2014.68,-253.677 2011.87,-236.173"/>
<polygon fill="midnightblue" stroke="midnightblue" points="2015.26,-235.265 2009.95,-226.099 2008.39,-236.578 2015.26,-235.265"/>
</g>
<!-- Node28 -->
<g id="node29" class="node"><title>Node28</title>
<polygon fill="white" stroke="#bfbfbf" points="1905.76,-207 1905.76,-226 1951.76,-226 1951.76,-207 1905.76,-207"/>
<text text-anchor="middle" x="1928.76" y="-214" font-family="Arial" font-size="10.00">cstdint</text>
</g>
<!-- Node27&#45;&gt;Node28 -->
<g id="edge52" class="edge"><title>Node27&#45;&gt;Node28</title>
<path fill="none" stroke="midnightblue" d="M1928.76,-273.734C1928.76,-264.183 1928.76,-248.618 1928.76,-236.283"/>
<polygon fill="midnightblue" stroke="midnightblue" points="1932.26,-236.127 1928.76,-226.127 1925.26,-236.127 1932.26,-236.127"/>
</g>
<!-- Node27&#45;&gt;Node29 -->
<g id="edge53" class="edge"><title>Node27&#45;&gt;Node29</title>
<path fill="none" stroke="midnightblue" d="M1939.41,-273.734C1952.21,-263.208 1973.87,-245.379 1989.38,-232.617"/>
<polygon fill="midnightblue" stroke="midnightblue" points="1991.77,-235.184 1997.27,-226.127 1987.33,-229.778 1991.77,-235.184"/>
</g>
<!-- Node30&#45;&gt;Node31 -->
<g id="edge56" class="edge"><title>Node30&#45;&gt;Node31</title>
<path fill="none" stroke="midnightblue" d="M2031.5,-335.475C2039.76,-326.373 2053.04,-311.741 2063.25,-300.483"/>
<polygon fill="midnightblue" stroke="midnightblue" points="2065.91,-302.766 2070.04,-293.009 2060.72,-298.062 2065.91,-302.766"/>
</g>
</g>
</svg>
