<?xml version="1.0" encoding="UTF-8" standalone="no"?>
<!DOCTYPE svg PUBLIC "-//W3C//DTD SVG 1.1//EN"
 "http://www.w3.org/Graphics/SVG/1.1/DTD/svg11.dtd">
<!-- Generated by graphviz version 2.38.0 (20140413.2041)
 -->
<!-- Title: include/platform/mir/mir_render_surface.h Pages: 1 -->
<svg width="123pt" height="106pt"
 viewBox="0.00 0.00 123.00 106.00" xmlns="http://www.w3.org/2000/svg" xmlns:xlink="http://www.w3.org/1999/xlink">
<g id="graph0" class="graph" transform="scale(1 1) rotate(0) translate(4 102)">
<title>include/platform/mir/mir_render_surface.h</title>
<polygon fill="white" stroke="none" points="-4,4 -4,-102 119,-102 119,4 -4,4"/>
<!-- Node32 -->
<g id="node1" class="node"><title>Node32</title>
<polygon fill="#bfbfbf" stroke="black" points="2,-67.5 2,-97.5 113,-97.5 113,-67.5 2,-67.5"/>
<text text-anchor="start" x="10" y="-85.5" font-family="Arial" font-size="10.00">include/platform/mir</text>
<text text-anchor="middle" x="57.5" y="-74.5" font-family="Arial" font-size="10.00">/mir_render_surface.h</text>
</g>
<!-- Node33 -->
<g id="node2" class="node"><title>Node33</title>
<g id="a_node2"><a xlink:href="client__context_8h.html" target="_top" xlink:title="include/platform/mir\l/client/client_context.h">
<polygon fill="white" stroke="black" points="-7.10543e-15,-0.5 -7.10543e-15,-30.5 115,-30.5 115,-0.5 -7.10543e-15,-0.5"/>
<text text-anchor="start" x="8" y="-18.5" font-family="Arial" font-size="10.00">include/platform/mir</text>
<text text-anchor="middle" x="57.5" y="-7.5" font-family="Arial" font-size="10.00">/client/client_context.h</text>
</a>
</g>
</g>
<!-- Node32&#45;&gt;Node33 -->
<g id="edge1" class="edge"><title>Node32&#45;&gt;Node33</title>
<path fill="none" stroke="midnightblue" d="M57.5,-57.1081C57.5,-48.1539 57.5,-38.3227 57.5,-30.5765"/>
<polygon fill="midnightblue" stroke="midnightblue" points="54.0001,-57.3959 57.5,-67.396 61.0001,-57.396 54.0001,-57.3959"/>
</g>
</g>
</svg>
