<?xml version="1.0" encoding="UTF-8" standalone="no"?>
<!DOCTYPE svg PUBLIC "-//W3C//DTD SVG 1.1//EN"
 "http://www.w3.org/Graphics/SVG/1.1/DTD/svg11.dtd">
<!-- Generated by graphviz version 2.38.0 (20140413.2041)
 -->
<!-- Title: include/platform/mir/graphics/platform_ipc_operations.h Pages: 1 -->
<svg width="198pt" height="162pt"
 viewBox="0.00 0.00 198.00 162.00" xmlns="http://www.w3.org/2000/svg" xmlns:xlink="http://www.w3.org/1999/xlink">
<g id="graph0" class="graph" transform="scale(1 1) rotate(0) translate(4 158)">
<title>include/platform/mir/graphics/platform_ipc_operations.h</title>
<polygon fill="white" stroke="none" points="-4,4 -4,-158 194,-158 194,4 -4,4"/>
<!-- Node0 -->
<g id="node1" class="node"><title>Node0</title>
<polygon fill="#bfbfbf" stroke="black" points="55.5,-112.5 55.5,-153.5 168.5,-153.5 168.5,-112.5 55.5,-112.5"/>
<text text-anchor="start" x="63.5" y="-141.5" font-family="Arial" font-size="10.00">include/platform/mir</text>
<text text-anchor="start" x="63.5" y="-130.5" font-family="Arial" font-size="10.00">/graphics/platform_ipc</text>
<text text-anchor="middle" x="112" y="-119.5" font-family="Arial" font-size="10.00">_operations.h</text>
</g>
<!-- Node1 -->
<g id="node2" class="node"><title>Node1</title>
<g id="a_node2"><a xlink:href="platform__ipc__package_8h.html" target="_top" xlink:title="platform_ipc_package.h">
<polygon fill="white" stroke="black" points="-7.10543e-15,-56.5 -7.10543e-15,-75.5 120,-75.5 120,-56.5 -7.10543e-15,-56.5"/>
<text text-anchor="middle" x="60" y="-63.5" font-family="Arial" font-size="10.00">platform_ipc_package.h</text>
</a>
</g>
</g>
<!-- Node0&#45;&gt;Node1 -->
<g id="edge1" class="edge"><title>Node0&#45;&gt;Node1</title>
<path fill="none" stroke="midnightblue" d="M96.3983,-112.498C89.039,-103.299 80.349,-92.4362 73.3058,-83.6323"/>
<polygon fill="midnightblue" stroke="midnightblue" points="75.902,-81.2748 66.922,-75.6525 70.4359,-85.6476 75.902,-81.2748"/>
</g>
<!-- Node4 -->
<g id="node5" class="node"><title>Node4</title>
<polygon fill="white" stroke="#bfbfbf" points="138,-56.5 138,-75.5 190,-75.5 190,-56.5 138,-56.5"/>
<text text-anchor="middle" x="164" y="-63.5" font-family="Arial" font-size="10.00">memory</text>
</g>
<!-- Node0&#45;&gt;Node4 -->
<g id="edge4" class="edge"><title>Node0&#45;&gt;Node4</title>
<path fill="none" stroke="midnightblue" d="M127.602,-112.498C134.961,-103.299 143.651,-92.4362 150.694,-83.6323"/>
<polygon fill="midnightblue" stroke="midnightblue" points="153.564,-85.6476 157.078,-75.6525 148.098,-81.2748 153.564,-85.6476"/>
</g>
<!-- Node2 -->
<g id="node3" class="node"><title>Node2</title>
<polygon fill="white" stroke="#bfbfbf" points="4,-0.5 4,-19.5 48,-19.5 48,-0.5 4,-0.5"/>
<text text-anchor="middle" x="26" y="-7.5" font-family="Arial" font-size="10.00">vector</text>
</g>
<!-- Node1&#45;&gt;Node2 -->
<g id="edge2" class="edge"><title>Node1&#45;&gt;Node2</title>
<path fill="none" stroke="midnightblue" d="M54.3856,-56.083C49.6326,-48.5341 42.6819,-37.4948 36.8484,-28.2298"/>
<polygon fill="midnightblue" stroke="midnightblue" points="39.7999,-26.3486 31.5099,-19.7511 33.8763,-30.0783 39.7999,-26.3486"/>
</g>
<!-- Node3 -->
<g id="node4" class="node"><title>Node3</title>
<polygon fill="white" stroke="#bfbfbf" points="66,-0.5 66,-19.5 122,-19.5 122,-0.5 66,-0.5"/>
<text text-anchor="middle" x="94" y="-7.5" font-family="Arial" font-size="10.00">cinttypes</text>
</g>
<!-- Node1&#45;&gt;Node3 -->
<g id="edge3" class="edge"><title>Node1&#45;&gt;Node3</title>
<path fill="none" stroke="midnightblue" d="M65.6144,-56.083C70.3674,-48.5341 77.3181,-37.4948 83.1516,-28.2298"/>
<polygon fill="midnightblue" stroke="midnightblue" points="86.1237,-30.0783 88.4901,-19.7511 80.2001,-26.3486 86.1237,-30.0783"/>
</g>
</g>
</svg>
