<?xml version="1.0" encoding="UTF-8" standalone="no"?>
<!DOCTYPE svg PUBLIC "-//W3C//DTD SVG 1.1//EN"
 "http://www.w3.org/Graphics/SVG/1.1/DTD/svg11.dtd">
<!-- Generated by graphviz version 2.38.0 (20140413.2041)
 -->
<!-- Title: include/platform/mir/mir_render_surface.h Pages: 1 -->
<svg width="2456pt" height="441pt"
 viewBox="0.00 0.00 2455.82 441.00" xmlns="http://www.w3.org/2000/svg" xmlns:xlink="http://www.w3.org/1999/xlink">
<g id="graph0" class="graph" transform="scale(1 1) rotate(0) translate(4 437)">
<title>include/platform/mir/mir_render_surface.h</title>
<polygon fill="white" stroke="none" points="-4,4 -4,-437 2451.82,-437 2451.82,4 -4,4"/>
<!-- Node0 -->
<g id="node1" class="node"><title>Node0</title>
<polygon fill="#bfbfbf" stroke="black" points="2157.32,-402.5 2157.32,-432.5 2268.32,-432.5 2268.32,-402.5 2157.32,-402.5"/>
<text text-anchor="start" x="2165.32" y="-420.5" font-family="Arial" font-size="10.00">include/platform/mir</text>
<text text-anchor="middle" x="2212.82" y="-409.5" font-family="Arial" font-size="10.00">/mir_render_surface.h</text>
</g>
<!-- Node1 -->
<g id="node2" class="node"><title>Node1</title>
<g id="a_node2"><a xlink:href="client_2mir__toolkit_2rs_2mir__render__surface_8h.html" target="_top" xlink:title="mir_toolkit/rs/mir\l_render_surface.h">
<polygon fill="white" stroke="black" points="2051.32,-335.5 2051.32,-365.5 2146.32,-365.5 2146.32,-335.5 2051.32,-335.5"/>
<text text-anchor="start" x="2059.32" y="-353.5" font-family="Arial" font-size="10.00">mir_toolkit/rs/mir</text>
<text text-anchor="middle" x="2098.82" y="-342.5" font-family="Arial" font-size="10.00">_render_surface.h</text>
</a>
</g>
</g>
<!-- Node0&#45;&gt;Node1 -->
<g id="edge1" class="edge"><title>Node0&#45;&gt;Node1</title>
<path fill="none" stroke="midnightblue" d="M2188.09,-402.396C2171.8,-393.112 2150.28,-380.841 2132.45,-370.674"/>
<polygon fill="midnightblue" stroke="midnightblue" points="2133.93,-367.489 2123.51,-365.577 2130.47,-373.57 2133.93,-367.489"/>
</g>
<!-- Node25 -->
<g id="node26" class="node"><title>Node25</title>
<g id="a_node26"><a xlink:href="buffer__stream__id_8h.html" target="_top" xlink:title="mir/frontend/buffer\l_stream_id.h">
<polygon fill="white" stroke="black" points="2164.82,-335.5 2164.82,-365.5 2260.82,-365.5 2260.82,-335.5 2164.82,-335.5"/>
<text text-anchor="start" x="2172.82" y="-353.5" font-family="Arial" font-size="10.00">mir/frontend/buffer</text>
<text text-anchor="middle" x="2212.82" y="-342.5" font-family="Arial" font-size="10.00">_stream_id.h</text>
</a>
</g>
</g>
<!-- Node0&#45;&gt;Node25 -->
<g id="edge48" class="edge"><title>Node0&#45;&gt;Node25</title>
<path fill="none" stroke="midnightblue" d="M2212.82,-402.396C2212.82,-394.645 2212.82,-384.812 2212.82,-375.86"/>
<polygon fill="midnightblue" stroke="midnightblue" points="2216.32,-375.576 2212.82,-365.577 2209.32,-375.577 2216.32,-375.576"/>
</g>
<!-- Node29 -->
<g id="node30" class="node"><title>Node29</title>
<g id="a_node30"><a xlink:href="size_8h.html" target="_top" xlink:title="mir/geometry/size.h">
<polygon fill="white" stroke="black" points="2279.32,-341 2279.32,-360 2382.32,-360 2382.32,-341 2279.32,-341"/>
<text text-anchor="middle" x="2330.82" y="-348" font-family="Arial" font-size="10.00">mir/geometry/size.h</text>
</a>
</g>
</g>
<!-- Node0&#45;&gt;Node29 -->
<g id="edge52" class="edge"><title>Node0&#45;&gt;Node29</title>
<path fill="none" stroke="midnightblue" d="M2238.43,-402.396C2258.67,-391.243 2286.74,-375.781 2306.62,-364.834"/>
<polygon fill="midnightblue" stroke="midnightblue" points="2308.31,-367.898 2315.38,-360.007 2304.93,-361.766 2308.31,-367.898"/>
</g>
<!-- Node2 -->
<g id="node3" class="node"><title>Node2</title>
<g id="a_node3"><a xlink:href="client__types_8h.html" target="_top" xlink:title="mir_toolkit/client\l_types.h">
<polygon fill="white" stroke="black" points="1954.82,-268.5 1954.82,-298.5 2042.82,-298.5 2042.82,-268.5 1954.82,-268.5"/>
<text text-anchor="start" x="1962.82" y="-286.5" font-family="Arial" font-size="10.00">mir_toolkit/client</text>
<text text-anchor="middle" x="1998.82" y="-275.5" font-family="Arial" font-size="10.00">_types.h</text>
</a>
</g>
</g>
<!-- Node1&#45;&gt;Node2 -->
<g id="edge2" class="edge"><title>Node1&#45;&gt;Node2</title>
<path fill="none" stroke="midnightblue" d="M2077.12,-335.396C2063.1,-326.282 2044.65,-314.29 2029.19,-304.236"/>
<polygon fill="midnightblue" stroke="midnightblue" points="2030.77,-301.092 2020.48,-298.577 2026.96,-306.961 2030.77,-301.092"/>
</g>
<!-- Node7 -->
<g id="node8" class="node"><title>Node7</title>
<g id="a_node8"><a xlink:href="deprecations_8h.html" target="_top" xlink:title="mir_toolkit/deprecations.h">
<polygon fill="white" stroke="black" points="983.824,-62 983.824,-81 1111.82,-81 1111.82,-62 983.824,-62"/>
<text text-anchor="middle" x="1047.82" y="-69" font-family="Arial" font-size="10.00">mir_toolkit/deprecations.h</text>
</a>
</g>
</g>
<!-- Node1&#45;&gt;Node7 -->
<g id="edge47" class="edge"><title>Node1&#45;&gt;Node7</title>
<path fill="none" stroke="midnightblue" d="M2103.43,-335.237C2115.39,-295.165 2142.57,-180.731 2083.82,-123 2049.59,-89.362 1353.8,-76.7263 1122.13,-73.4418"/>
<polygon fill="midnightblue" stroke="midnightblue" points="1122.15,-69.9419 1112.11,-73.3015 1122.06,-76.9412 1122.15,-69.9419"/>
</g>
<!-- Node3 -->
<g id="node4" class="node"><title>Node3</title>
<g id="a_node4"><a xlink:href="events_2event_8h.html" target="_top" xlink:title="mir_toolkit/events\l/event.h">
<polygon fill="white" stroke="black" points="1126.82,-201.5 1126.82,-231.5 1220.82,-231.5 1220.82,-201.5 1126.82,-201.5"/>
<text text-anchor="start" x="1134.82" y="-219.5" font-family="Arial" font-size="10.00">mir_toolkit/events</text>
<text text-anchor="middle" x="1173.82" y="-208.5" font-family="Arial" font-size="10.00">/event.h</text>
</a>
</g>
</g>
<!-- Node2&#45;&gt;Node3 -->
<g id="edge3" class="edge"><title>Node2&#45;&gt;Node3</title>
<path fill="none" stroke="midnightblue" d="M1954.76,-279.028C1815.87,-268.086 1387.25,-234.315 1231.31,-222.029"/>
<polygon fill="midnightblue" stroke="midnightblue" points="1231.24,-218.513 1221,-221.217 1230.69,-225.491 1231.24,-218.513"/>
</g>
<!-- Node4 -->
<g id="node5" class="node"><title>Node4</title>
<polygon fill="white" stroke="#bfbfbf" points="1873.82,-134.5 1873.82,-153.5 1925.82,-153.5 1925.82,-134.5 1873.82,-134.5"/>
<text text-anchor="middle" x="1899.82" y="-141.5" font-family="Arial" font-size="10.00">stddef.h</text>
</g>
<!-- Node2&#45;&gt;Node4 -->
<g id="edge46" class="edge"><title>Node2&#45;&gt;Node4</title>
<path fill="none" stroke="midnightblue" d="M1988.6,-268.303C1970.23,-242.781 1931.7,-189.267 1911.99,-161.901"/>
<polygon fill="midnightblue" stroke="midnightblue" points="1914.77,-159.771 1906.09,-153.701 1909.09,-163.861 1914.77,-159.771"/>
</g>
<!-- Node6 -->
<g id="node7" class="node"><title>Node6</title>
<g id="a_node7"><a xlink:href="common_8h.html" target="_top" xlink:title="mir_toolkit/common.h">
<polygon fill="white" stroke="black" points="1943.82,-134.5 1943.82,-153.5 2053.82,-153.5 2053.82,-134.5 1943.82,-134.5"/>
<text text-anchor="middle" x="1998.82" y="-141.5" font-family="Arial" font-size="10.00">mir_toolkit/common.h</text>
</a>
</g>
</g>
<!-- Node2&#45;&gt;Node6 -->
<g id="edge44" class="edge"><title>Node2&#45;&gt;Node6</title>
<path fill="none" stroke="midnightblue" d="M1998.82,-268.303C1998.82,-243.336 1998.82,-191.58 1998.82,-163.722"/>
<polygon fill="midnightblue" stroke="midnightblue" points="2002.32,-163.701 1998.82,-153.701 1995.32,-163.701 2002.32,-163.701"/>
</g>
<!-- Node2&#45;&gt;Node7 -->
<g id="edge45" class="edge"><title>Node2&#45;&gt;Node7</title>
<path fill="none" stroke="midnightblue" d="M2013.46,-268.239C2042.99,-237.807 2103.55,-165.799 2062.82,-123 2030.48,-89.0112 1351.01,-76.6388 1122.24,-73.4274"/>
<polygon fill="midnightblue" stroke="midnightblue" points="1122.06,-69.9247 1112.02,-73.2858 1121.97,-76.924 1122.06,-69.9247"/>
</g>
<!-- Node3&#45;&gt;Node4 -->
<g id="edge4" class="edge"><title>Node3&#45;&gt;Node4</title>
<path fill="none" stroke="midnightblue" d="M1220.95,-214.689C1356.08,-211.946 1742.97,-201.073 1863.82,-165 1868.79,-163.519 1873.82,-161.274 1878.49,-158.817"/>
<polygon fill="midnightblue" stroke="midnightblue" points="1880.52,-161.687 1887.43,-153.652 1877.02,-155.627 1880.52,-161.687"/>
</g>
<!-- Node5 -->
<g id="node6" class="node"><title>Node5</title>
<polygon fill="white" stroke="#bfbfbf" points="472.324,-0.5 472.324,-19.5 521.324,-19.5 521.324,-0.5 472.324,-0.5"/>
<text text-anchor="middle" x="496.824" y="-7.5" font-family="Arial" font-size="10.00">stdint.h</text>
</g>
<!-- Node3&#45;&gt;Node5 -->
<g id="edge5" class="edge"><title>Node3&#45;&gt;Node5</title>
<path fill="none" stroke="midnightblue" d="M1126.73,-214.287C996.324,-210.527 637.361,-197.321 595.824,-165 555.333,-133.494 588.269,-97.2934 557.824,-56 548.488,-43.3389 534.572,-32.6906 522.388,-24.9358"/>
<polygon fill="midnightblue" stroke="midnightblue" points="523.883,-21.7507 513.512,-19.5842 520.269,-27.7453 523.883,-21.7507"/>
</g>
<!-- Node3&#45;&gt;Node6 -->
<g id="edge6" class="edge"><title>Node3&#45;&gt;Node6</title>
<path fill="none" stroke="midnightblue" d="M1221.07,-216.221C1341.32,-217.226 1668.32,-214.756 1934.82,-165 1945.29,-163.045 1956.46,-159.933 1966.48,-156.74"/>
<polygon fill="midnightblue" stroke="midnightblue" points="1967.66,-160.034 1976.05,-153.56 1965.46,-153.391 1967.66,-160.034"/>
</g>
<!-- Node3&#45;&gt;Node7 -->
<g id="edge8" class="edge"><title>Node3&#45;&gt;Node7</title>
<path fill="none" stroke="midnightblue" d="M1126.5,-213.4C1020.41,-208.206 770.803,-193.1 745.824,-165 678.787,-89.5892 864.142,-74.7962 973.697,-72.4399"/>
<polygon fill="midnightblue" stroke="midnightblue" points="973.793,-75.9389 983.726,-72.2541 973.663,-68.9401 973.793,-75.9389"/>
</g>
<!-- Node8 -->
<g id="node9" class="node"><title>Node8</title>
<g id="a_node9"><a xlink:href="input__event_8h.html" target="_top" xlink:title="mir_toolkit/events\l/input/input_event.h">
<polygon fill="white" stroke="black" points="320.824,-129 320.824,-159 422.824,-159 422.824,-129 320.824,-129"/>
<text text-anchor="start" x="328.824" y="-147" font-family="Arial" font-size="10.00">mir_toolkit/events</text>
<text text-anchor="middle" x="371.824" y="-136" font-family="Arial" font-size="10.00">/input/input_event.h</text>
</a>
</g>
</g>
<!-- Node3&#45;&gt;Node8 -->
<g id="edge9" class="edge"><title>Node3&#45;&gt;Node8</title>
<path fill="none" stroke="midnightblue" d="M1126.57,-212.3C1022.65,-204.754 767.097,-184.977 553.824,-165 513.489,-161.222 468.415,-156.525 433.149,-152.632"/>
<polygon fill="midnightblue" stroke="midnightblue" points="433.332,-149.131 423.006,-151.504 432.558,-156.088 433.332,-149.131"/>
</g>
<!-- Node15 -->
<g id="node16" class="node"><title>Node15</title>
<g id="a_node16"><a xlink:href="resize__event_8h.html" target="_top" xlink:title="mir_toolkit/events\l/resize_event.h">
<polygon fill="white" stroke="black" points="1126.82,-129 1126.82,-159 1220.82,-159 1220.82,-129 1126.82,-129"/>
<text text-anchor="start" x="1134.82" y="-147" font-family="Arial" font-size="10.00">mir_toolkit/events</text>
<text text-anchor="middle" x="1173.82" y="-136" font-family="Arial" font-size="10.00">/resize_event.h</text>
</a>
</g>
</g>
<!-- Node3&#45;&gt;Node15 -->
<g id="edge20" class="edge"><title>Node3&#45;&gt;Node15</title>
<path fill="none" stroke="midnightblue" d="M1168.27,-201.233C1167.07,-192.06 1166.77,-179.905 1167.37,-169.244"/>
<polygon fill="midnightblue" stroke="midnightblue" points="1170.86,-169.52 1168.28,-159.246 1163.89,-168.89 1170.86,-169.52"/>
</g>
<!-- Node16 -->
<g id="node17" class="node"><title>Node16</title>
<g id="a_node17"><a xlink:href="surface__event_8h.html" target="_top" xlink:title="mir_toolkit/events\l/surface_event.h">
<polygon fill="white" stroke="black" points="754.824,-129 754.824,-159 848.824,-159 848.824,-129 754.824,-129"/>
<text text-anchor="start" x="762.824" y="-147" font-family="Arial" font-size="10.00">mir_toolkit/events</text>
<text text-anchor="middle" x="801.824" y="-136" font-family="Arial" font-size="10.00">/surface_event.h</text>
</a>
</g>
</g>
<!-- Node3&#45;&gt;Node16 -->
<g id="edge22" class="edge"><title>Node3&#45;&gt;Node16</title>
<path fill="none" stroke="midnightblue" d="M1126.82,-211.379C1062.89,-204.741 945.834,-189.848 848.824,-165 845.573,-164.167 842.246,-163.224 838.931,-162.211"/>
<polygon fill="midnightblue" stroke="midnightblue" points="839.71,-158.784 829.118,-159.006 837.537,-165.438 839.71,-158.784"/>
</g>
<!-- Node17 -->
<g id="node18" class="node"><title>Node17</title>
<g id="a_node18"><a xlink:href="window__event_8h.html" target="_top" xlink:title="mir_toolkit/events\l/window_event.h">
<polygon fill="white" stroke="black" points="1238.82,-129 1238.82,-159 1332.82,-159 1332.82,-129 1238.82,-129"/>
<text text-anchor="start" x="1246.82" y="-147" font-family="Arial" font-size="10.00">mir_toolkit/events</text>
<text text-anchor="middle" x="1285.82" y="-136" font-family="Arial" font-size="10.00">/window_event.h</text>
</a>
</g>
</g>
<!-- Node3&#45;&gt;Node17 -->
<g id="edge25" class="edge"><title>Node3&#45;&gt;Node17</title>
<path fill="none" stroke="midnightblue" d="M1190.94,-201.233C1206.5,-190.557 1229.7,-175.842 1249.33,-164.143"/>
<polygon fill="midnightblue" stroke="midnightblue" points="1251.22,-167.094 1258.06,-159.005 1247.67,-161.062 1251.22,-167.094"/>
</g>
<!-- Node18 -->
<g id="node19" class="node"><title>Node18</title>
<g id="a_node19"><a xlink:href="orientation__event_8h.html" target="_top" xlink:title="mir_toolkit/events\l/orientation_event.h">
<polygon fill="white" stroke="black" points="1350.82,-129 1350.82,-159 1452.82,-159 1452.82,-129 1350.82,-129"/>
<text text-anchor="start" x="1358.82" y="-147" font-family="Arial" font-size="10.00">mir_toolkit/events</text>
<text text-anchor="middle" x="1401.82" y="-136" font-family="Arial" font-size="10.00">/orientation_event.h</text>
</a>
</g>
</g>
<!-- Node3&#45;&gt;Node18 -->
<g id="edge27" class="edge"><title>Node3&#45;&gt;Node18</title>
<path fill="none" stroke="midnightblue" d="M1214.52,-201.403C1246.74,-191.478 1292.61,-177.742 1332.82,-165 1335.71,-164.084 1338.68,-163.133 1341.68,-162.166"/>
<polygon fill="midnightblue" stroke="midnightblue" points="1342.9,-165.449 1351.34,-159.04 1340.75,-158.789 1342.9,-165.449"/>
</g>
<!-- Node19 -->
<g id="node20" class="node"><title>Node19</title>
<g id="a_node20"><a xlink:href="prompt__session__event_8h.html" target="_top" xlink:title="mir_toolkit/events\l/prompt_session_event.h">
<polygon fill="white" stroke="black" points="1470.82,-129 1470.82,-159 1596.82,-159 1596.82,-129 1470.82,-129"/>
<text text-anchor="start" x="1478.82" y="-147" font-family="Arial" font-size="10.00">mir_toolkit/events</text>
<text text-anchor="middle" x="1533.82" y="-136" font-family="Arial" font-size="10.00">/prompt_session_event.h</text>
</a>
</g>
</g>
<!-- Node3&#45;&gt;Node19 -->
<g id="edge29" class="edge"><title>Node3&#45;&gt;Node19</title>
<path fill="none" stroke="midnightblue" d="M1220.83,-207.692C1276.55,-198.868 1371.74,-183.324 1452.82,-165 1457.41,-163.964 1462.13,-162.821 1466.9,-161.622"/>
<polygon fill="midnightblue" stroke="midnightblue" points="1467.89,-164.982 1476.7,-159.098 1466.14,-158.203 1467.89,-164.982"/>
</g>
<!-- Node20 -->
<g id="node21" class="node"><title>Node20</title>
<g id="a_node21"><a xlink:href="keymap__event_8h.html" target="_top" xlink:title="mir_toolkit/events\l/keymap_event.h">
<polygon fill="white" stroke="black" points="604.824,-129 604.824,-159 698.824,-159 698.824,-129 604.824,-129"/>
<text text-anchor="start" x="612.824" y="-147" font-family="Arial" font-size="10.00">mir_toolkit/events</text>
<text text-anchor="middle" x="651.824" y="-136" font-family="Arial" font-size="10.00">/keymap_event.h</text>
</a>
</g>
</g>
<!-- Node3&#45;&gt;Node20 -->
<g id="edge31" class="edge"><title>Node3&#45;&gt;Node20</title>
<path fill="none" stroke="midnightblue" d="M1126.59,-213.813C1041.08,-209.899 855.901,-197.886 703.824,-165 699.718,-164.112 695.499,-163.052 691.319,-161.89"/>
<polygon fill="midnightblue" stroke="midnightblue" points="692.286,-158.527 681.703,-159.027 690.288,-165.235 692.286,-158.527"/>
</g>
<!-- Node21 -->
<g id="node22" class="node"><title>Node21</title>
<g id="a_node22"><a xlink:href="input__configuration__event_8h.html" target="_top" xlink:title="mir_toolkit/events\l/input_configuration\l_event.h">
<polygon fill="white" stroke="black" points="867.324,-123.5 867.324,-164.5 968.324,-164.5 968.324,-123.5 867.324,-123.5"/>
<text text-anchor="start" x="875.324" y="-152.5" font-family="Arial" font-size="10.00">mir_toolkit/events</text>
<text text-anchor="start" x="875.324" y="-141.5" font-family="Arial" font-size="10.00">/input_configuration</text>
<text text-anchor="middle" x="917.824" y="-130.5" font-family="Arial" font-size="10.00">_event.h</text>
</a>
</g>
</g>
<!-- Node3&#45;&gt;Node21 -->
<g id="edge34" class="edge"><title>Node3&#45;&gt;Node21</title>
<path fill="none" stroke="midnightblue" d="M1126.57,-205.964C1087.1,-196.928 1029.48,-182.572 976.977,-167.375"/>
<polygon fill="midnightblue" stroke="midnightblue" points="977.818,-163.975 967.237,-164.529 975.854,-170.694 977.818,-163.975"/>
</g>
<!-- Node22 -->
<g id="node23" class="node"><title>Node22</title>
<g id="a_node23"><a xlink:href="surface__output__event_8h.html" target="_top" xlink:title="mir_toolkit/events\l/surface_output_event.h">
<polygon fill="white" stroke="black" points="986.824,-129 986.824,-159 1108.82,-159 1108.82,-129 986.824,-129"/>
<text text-anchor="start" x="994.824" y="-147" font-family="Arial" font-size="10.00">mir_toolkit/events</text>
<text text-anchor="middle" x="1047.82" y="-136" font-family="Arial" font-size="10.00">/surface_output_event.h</text>
</a>
</g>
</g>
<!-- Node3&#45;&gt;Node22 -->
<g id="edge37" class="edge"><title>Node3&#45;&gt;Node22</title>
<path fill="none" stroke="midnightblue" d="M1143.1,-201.403C1122.63,-190.74 1096.06,-175.979 1076.11,-164.232"/>
<polygon fill="midnightblue" stroke="midnightblue" points="1077.83,-161.186 1067.45,-159.073 1074.25,-167.199 1077.83,-161.186"/>
</g>
<!-- Node23 -->
<g id="node24" class="node"><title>Node23</title>
<g id="a_node24"><a xlink:href="window__output__event_8h.html" target="_top" xlink:title="mir_toolkit/events\l/window_output_event.h">
<polygon fill="white" stroke="black" points="1615.32,-129 1615.32,-159 1736.32,-159 1736.32,-129 1615.32,-129"/>
<text text-anchor="start" x="1623.32" y="-147" font-family="Arial" font-size="10.00">mir_toolkit/events</text>
<text text-anchor="middle" x="1675.82" y="-136" font-family="Arial" font-size="10.00">/window_output_event.h</text>
</a>
</g>
</g>
<!-- Node3&#45;&gt;Node23 -->
<g id="edge40" class="edge"><title>Node3&#45;&gt;Node23</title>
<path fill="none" stroke="midnightblue" d="M1221.05,-212.083C1299.68,-206.179 1461.69,-192.018 1596.82,-165 1601.73,-164.018 1606.8,-162.862 1611.89,-161.608"/>
<polygon fill="midnightblue" stroke="midnightblue" points="1612.85,-164.973 1621.67,-159.097 1611.11,-158.193 1612.85,-164.973"/>
</g>
<!-- Node24 -->
<g id="node25" class="node"><title>Node24</title>
<g id="a_node25"><a xlink:href="input__device__state__event_8h.html" target="_top" xlink:title="mir_toolkit/events\l/input_device_state\l_event.h">
<polygon fill="white" stroke="black" points="1754.32,-123.5 1754.32,-164.5 1855.32,-164.5 1855.32,-123.5 1754.32,-123.5"/>
<text text-anchor="start" x="1762.32" y="-152.5" font-family="Arial" font-size="10.00">mir_toolkit/events</text>
<text text-anchor="start" x="1762.32" y="-141.5" font-family="Arial" font-size="10.00">/input_device_state</text>
<text text-anchor="middle" x="1804.82" y="-130.5" font-family="Arial" font-size="10.00">_event.h</text>
</a>
</g>
</g>
<!-- Node3&#45;&gt;Node24 -->
<g id="edge42" class="edge"><title>Node3&#45;&gt;Node24</title>
<path fill="none" stroke="midnightblue" d="M1220.86,-214.941C1318.13,-212.968 1547.53,-204.147 1735.82,-165 1738.65,-164.413 1741.52,-163.737 1744.42,-162.995"/>
<polygon fill="midnightblue" stroke="midnightblue" points="1745.6,-166.299 1754.3,-160.256 1743.73,-159.554 1745.6,-166.299"/>
</g>
<!-- Node6&#45;&gt;Node7 -->
<g id="edge7" class="edge"><title>Node6&#45;&gt;Node7</title>
<path fill="none" stroke="midnightblue" d="M1976.36,-134.489C1964.24,-130.279 1948.91,-125.562 1934.82,-123 1779.65,-94.7824 1306.33,-79.4206 1122.21,-74.3825"/>
<polygon fill="midnightblue" stroke="midnightblue" points="1122.17,-70.8803 1112.08,-74.1078 1121.98,-77.8777 1122.17,-70.8803"/>
</g>
<!-- Node8&#45;&gt;Node3 -->
<g id="edge10" class="edge"><title>Node8&#45;&gt;Node3</title>
<path fill="none" stroke="midnightblue" d="M422.913,-149.88C463.492,-154.109 521.366,-160.274 571.824,-165 771.814,-183.733 1008.98,-202.29 1116.23,-210.75"/>
<polygon fill="midnightblue" stroke="midnightblue" points="1116.26,-214.264 1126.5,-211.562 1116.81,-207.285 1116.26,-214.264"/>
</g>
<!-- Node8&#45;&gt;Node5 -->
<g id="edge13" class="edge"><title>Node8&#45;&gt;Node5</title>
<path fill="none" stroke="midnightblue" d="M380.415,-128.733C391.732,-110.615 412.901,-78.9532 435.824,-56 447.384,-44.4242 462.101,-33.4796 474.183,-25.2827"/>
<polygon fill="midnightblue" stroke="midnightblue" points="476.396,-28.0158 482.812,-19.5852 472.539,-22.1742 476.396,-28.0158"/>
</g>
<!-- Node9 -->
<g id="node10" class="node"><title>Node9</title>
<g id="a_node10"><a xlink:href="mir__input__device__types_8h.html" target="_top" xlink:title="mir_toolkit/mir_input\l_device_types.h">
<polygon fill="white" stroke="black" points="444.824,-56.5 444.824,-86.5 548.824,-86.5 548.824,-56.5 444.824,-56.5"/>
<text text-anchor="start" x="452.824" y="-74.5" font-family="Arial" font-size="10.00">mir_toolkit/mir_input</text>
<text text-anchor="middle" x="496.824" y="-63.5" font-family="Arial" font-size="10.00">_device_types.h</text>
</a>
</g>
</g>
<!-- Node8&#45;&gt;Node9 -->
<g id="edge11" class="edge"><title>Node8&#45;&gt;Node9</title>
<path fill="none" stroke="midnightblue" d="M396.819,-128.903C415.81,-118.192 442.132,-103.346 463.005,-91.5738"/>
<polygon fill="midnightblue" stroke="midnightblue" points="464.881,-94.534 471.872,-86.5729 461.442,-88.4369 464.881,-94.534"/>
</g>
<!-- Node10 -->
<g id="node11" class="node"><title>Node10</title>
<polygon fill="white" stroke="#bfbfbf" points="1.8235,-0.5 1.8235,-19.5 57.8235,-19.5 57.8235,-0.5 1.8235,-0.5"/>
<text text-anchor="middle" x="29.8235" y="-7.5" font-family="Arial" font-size="10.00">stdbool.h</text>
</g>
<!-- Node8&#45;&gt;Node10 -->
<g id="edge14" class="edge"><title>Node8&#45;&gt;Node10</title>
<path fill="none" stroke="midnightblue" d="M320.536,-142.983C229.772,-141.743 46.6461,-133.398 6.8235,-87 -7.56978,-70.23 5.08318,-44.6599 16.5529,-27.8876"/>
<polygon fill="midnightblue" stroke="midnightblue" points="19.5457,-29.7244 22.624,-19.5866 13.8956,-25.5921 19.5457,-29.7244"/>
</g>
<!-- Node11 -->
<g id="node12" class="node"><title>Node11</title>
<g id="a_node12"><a xlink:href="touch__event_8h.html" target="_top" xlink:title="mir_toolkit/events\l/input/touch_event.h">
<polygon fill="white" stroke="black" points="144.324,-56.5 144.324,-86.5 249.324,-86.5 249.324,-56.5 144.324,-56.5"/>
<text text-anchor="start" x="152.324" y="-74.5" font-family="Arial" font-size="10.00">mir_toolkit/events</text>
<text text-anchor="middle" x="196.824" y="-63.5" font-family="Arial" font-size="10.00">/input/touch_event.h</text>
</a>
</g>
</g>
<!-- Node8&#45;&gt;Node11 -->
<g id="edge15" class="edge"><title>Node8&#45;&gt;Node11</title>
<path fill="none" stroke="midnightblue" d="M336.83,-128.903C309.289,-117.807 270.734,-102.275 241.055,-90.319"/>
<polygon fill="midnightblue" stroke="midnightblue" points="242.34,-87.0632 231.756,-86.5729 239.724,-93.5561 242.34,-87.0632"/>
</g>
<!-- Node12 -->
<g id="node13" class="node"><title>Node12</title>
<g id="a_node13"><a xlink:href="keyboard__event_8h.html" target="_top" xlink:title="mir_toolkit/events\l/input/keyboard_event.h">
<polygon fill="white" stroke="black" points="267.324,-56.5 267.324,-86.5 388.324,-86.5 388.324,-56.5 267.324,-56.5"/>
<text text-anchor="start" x="275.324" y="-74.5" font-family="Arial" font-size="10.00">mir_toolkit/events</text>
<text text-anchor="middle" x="327.824" y="-63.5" font-family="Arial" font-size="10.00">/input/keyboard_event.h</text>
</a>
</g>
</g>
<!-- Node8&#45;&gt;Node12 -->
<g id="edge16" class="edge"><title>Node8&#45;&gt;Node12</title>
<path fill="none" stroke="midnightblue" d="M362.919,-128.733C356.956,-119.177 348.973,-106.387 342.128,-95.419"/>
<polygon fill="midnightblue" stroke="midnightblue" points="344.978,-93.3758 336.714,-86.7455 339.04,-97.082 344.978,-93.3758"/>
</g>
<!-- Node14 -->
<g id="node15" class="node"><title>Node14</title>
<g id="a_node15"><a xlink:href="pointer__event_8h.html" target="_top" xlink:title="mir_toolkit/events\l/input/pointer_event.h">
<polygon fill="white" stroke="black" points="15.8235,-56.5 15.8235,-86.5 125.824,-86.5 125.824,-56.5 15.8235,-56.5"/>
<text text-anchor="start" x="23.8235" y="-74.5" font-family="Arial" font-size="10.00">mir_toolkit/events</text>
<text text-anchor="middle" x="70.8235" y="-63.5" font-family="Arial" font-size="10.00">/input/pointer_event.h</text>
</a>
</g>
</g>
<!-- Node8&#45;&gt;Node14 -->
<g id="edge18" class="edge"><title>Node8&#45;&gt;Node14</title>
<path fill="none" stroke="midnightblue" d="M320.763,-131.041C269.84,-119.114 191.426,-100.747 136.029,-87.7723"/>
<polygon fill="midnightblue" stroke="midnightblue" points="136.499,-84.2879 125.964,-85.4151 134.903,-91.1034 136.499,-84.2879"/>
</g>
<!-- Node9&#45;&gt;Node5 -->
<g id="edge12" class="edge"><title>Node9&#45;&gt;Node5</title>
<path fill="none" stroke="midnightblue" d="M496.824,-56.3993C496.824,-48.4664 496.824,-38.458 496.824,-29.8583"/>
<polygon fill="midnightblue" stroke="midnightblue" points="500.324,-29.6577 496.824,-19.6578 493.324,-29.6578 500.324,-29.6577"/>
</g>
<!-- Node13 -->
<g id="node14" class="node"><title>Node13</title>
<polygon fill="white" stroke="#bfbfbf" points="289.824,-0.5 289.824,-19.5 423.824,-19.5 423.824,-0.5 289.824,-0.5"/>
<text text-anchor="middle" x="356.824" y="-7.5" font-family="Arial" font-size="10.00">xkbcommon/xkbcommon.h</text>
</g>
<!-- Node12&#45;&gt;Node13 -->
<g id="edge17" class="edge"><title>Node12&#45;&gt;Node13</title>
<path fill="none" stroke="midnightblue" d="M334.696,-56.3993C338.736,-48.1098 343.881,-37.5542 348.193,-28.7077"/>
<polygon fill="midnightblue" stroke="midnightblue" points="351.369,-30.1804 352.604,-19.6578 345.076,-27.1135 351.369,-30.1804"/>
</g>
<!-- Node14&#45;&gt;Node10 -->
<g id="edge19" class="edge"><title>Node14&#45;&gt;Node10</title>
<path fill="none" stroke="midnightblue" d="M61.1071,-56.3993C55.2721,-47.9315 47.8078,-37.0991 41.6338,-28.1393"/>
<polygon fill="midnightblue" stroke="midnightblue" points="44.3455,-25.9062 35.7894,-19.6578 38.5815,-29.8781 44.3455,-25.9062"/>
</g>
<!-- Node15&#45;&gt;Node3 -->
<g id="edge21" class="edge"><title>Node15&#45;&gt;Node3</title>
<path fill="none" stroke="midnightblue" d="M1179.37,-159.246C1180.57,-168.414 1180.87,-180.568 1180.27,-191.232"/>
<polygon fill="midnightblue" stroke="midnightblue" points="1176.78,-190.959 1179.37,-201.233 1183.76,-191.588 1176.78,-190.959"/>
</g>
<!-- Node16&#45;&gt;Node3 -->
<g id="edge23" class="edge"><title>Node16&#45;&gt;Node3</title>
<path fill="none" stroke="midnightblue" d="M846.823,-159.006C853.513,-161.226 860.323,-163.335 866.824,-165 952.855,-187.036 1054.66,-201.242 1116.8,-208.805"/>
<polygon fill="midnightblue" stroke="midnightblue" points="1116.45,-212.289 1126.8,-210.007 1117.29,-205.339 1116.45,-212.289"/>
</g>
<!-- Node16&#45;&gt;Node7 -->
<g id="edge24" class="edge"><title>Node16&#45;&gt;Node7</title>
<path fill="none" stroke="midnightblue" d="M839.938,-128.91C845.897,-126.845 852.007,-124.808 857.824,-123 906.741,-107.793 963.608,-93.0588 1002.29,-83.4703"/>
<polygon fill="midnightblue" stroke="midnightblue" points="1003.33,-86.8179 1012.2,-81.0264 1001.66,-80.0213 1003.33,-86.8179"/>
</g>
<!-- Node17&#45;&gt;Node3 -->
<g id="edge26" class="edge"><title>Node17&#45;&gt;Node3</title>
<path fill="none" stroke="midnightblue" d="M1268.99,-159.073C1253.48,-169.73 1230.22,-184.489 1210.51,-196.241"/>
<polygon fill="midnightblue" stroke="midnightblue" points="1208.59,-193.312 1201.75,-201.403 1212.14,-199.344 1208.59,-193.312"/>
</g>
<!-- Node18&#45;&gt;Node3 -->
<g id="edge28" class="edge"><title>Node18&#45;&gt;Node3</title>
<path fill="none" stroke="midnightblue" d="M1369.14,-159.04C1363.07,-161.069 1356.79,-163.109 1350.82,-165 1311.19,-177.56 1266.05,-191.086 1231.18,-200.976"/>
<polygon fill="midnightblue" stroke="midnightblue" points="1229.85,-197.715 1221.17,-203.794 1231.74,-204.453 1229.85,-197.715"/>
</g>
<!-- Node19&#45;&gt;Node3 -->
<g id="edge30" class="edge"><title>Node19&#45;&gt;Node3</title>
<path fill="none" stroke="midnightblue" d="M1494.45,-159.098C1486.67,-161.207 1478.54,-163.256 1470.82,-165 1388.33,-183.644 1291.22,-199.411 1230.99,-208.148"/>
<polygon fill="midnightblue" stroke="midnightblue" points="1230.32,-204.708 1220.91,-209.593 1231.31,-211.637 1230.32,-204.708"/>
</g>
<!-- Node20&#45;&gt;Node3 -->
<g id="edge32" class="edge"><title>Node20&#45;&gt;Node3</title>
<path fill="none" stroke="midnightblue" d="M699.045,-158.925C706.64,-161.236 714.416,-163.398 721.824,-165 861.911,-195.293 1030.08,-207.875 1116.52,-212.73"/>
<polygon fill="midnightblue" stroke="midnightblue" points="1116.47,-216.232 1126.65,-213.284 1116.85,-209.243 1116.47,-216.232"/>
</g>
<!-- Node20&#45;&gt;Node13 -->
<g id="edge33" class="edge"><title>Node20&#45;&gt;Node13</title>
<path fill="none" stroke="midnightblue" d="M640.722,-128.816C624.624,-109.274 592.867,-74.4003 557.824,-56 519.75,-36.0092 473.094,-24.8698 434.32,-18.6772"/>
<polygon fill="midnightblue" stroke="midnightblue" points="434.537,-15.1703 424.125,-17.1328 433.488,-22.0913 434.537,-15.1703"/>
</g>
<!-- Node21&#45;&gt;Node3 -->
<g id="edge35" class="edge"><title>Node21&#45;&gt;Node3</title>
<path fill="none" stroke="midnightblue" d="M968.574,-159.361C974.738,-161.324 980.926,-163.26 986.824,-165 1030.11,-177.773 1079.29,-190.439 1116.42,-199.892"/>
<polygon fill="midnightblue" stroke="midnightblue" points="1116.01,-203.398 1126.56,-202.47 1117.73,-196.614 1116.01,-203.398"/>
</g>
<!-- Node21&#45;&gt;Node7 -->
<g id="edge36" class="edge"><title>Node21&#45;&gt;Node7</title>
<path fill="none" stroke="midnightblue" d="M954.036,-123.362C975.987,-111.457 1003.43,-96.5757 1022.94,-85.9919"/>
<polygon fill="midnightblue" stroke="midnightblue" points="1024.71,-89.0173 1031.83,-81.1734 1021.37,-82.8639 1024.71,-89.0173"/>
</g>
<!-- Node22&#45;&gt;Node3 -->
<g id="edge38" class="edge"><title>Node22&#45;&gt;Node3</title>
<path fill="none" stroke="midnightblue" d="M1078.5,-159.073C1098.96,-169.73 1125.53,-184.489 1145.49,-196.241"/>
<polygon fill="midnightblue" stroke="midnightblue" points="1143.77,-199.29 1154.15,-201.403 1147.36,-193.277 1143.77,-199.29"/>
</g>
<!-- Node22&#45;&gt;Node7 -->
<g id="edge39" class="edge"><title>Node22&#45;&gt;Node7</title>
<path fill="none" stroke="midnightblue" d="M1047.82,-128.733C1047.82,-118.001 1047.82,-103.187 1047.82,-91.459"/>
<polygon fill="midnightblue" stroke="midnightblue" points="1051.32,-91.3931 1047.82,-81.3932 1044.32,-91.3932 1051.32,-91.3931"/>
</g>
<!-- Node23&#45;&gt;Node3 -->
<g id="edge41" class="edge"><title>Node23&#45;&gt;Node3</title>
<path fill="none" stroke="midnightblue" d="M1639.38,-159.097C1631.36,-161.307 1622.88,-163.389 1614.82,-165 1479.06,-192.144 1316.17,-206.311 1231.34,-212.166"/>
<polygon fill="midnightblue" stroke="midnightblue" points="1230.88,-208.688 1221.14,-212.855 1231.35,-215.672 1230.88,-208.688"/>
</g>
<!-- Node24&#45;&gt;Node3 -->
<g id="edge43" class="edge"><title>Node24&#45;&gt;Node3</title>
<path fill="none" stroke="midnightblue" d="M1756.09,-164.512C1755.33,-164.681 1754.58,-164.844 1753.82,-165 1565.47,-204.159 1335.98,-212.974 1231.01,-214.943"/>
<polygon fill="midnightblue" stroke="midnightblue" points="1230.88,-211.445 1220.95,-215.118 1231.01,-218.443 1230.88,-211.445"/>
</g>
<!-- Node26 -->
<g id="node27" class="node"><title>Node26</title>
<g id="a_node27"><a xlink:href="int__wrapper_8h.html" target="_top" xlink:title="mir/int_wrapper.h">
<polygon fill="white" stroke="black" points="2167.82,-274 2167.82,-293 2257.82,-293 2257.82,-274 2167.82,-274"/>
<text text-anchor="middle" x="2212.82" y="-281" font-family="Arial" font-size="10.00">mir/int_wrapper.h</text>
</a>
</g>
</g>
<!-- Node25&#45;&gt;Node26 -->
<g id="edge49" class="edge"><title>Node25&#45;&gt;Node26</title>
<path fill="none" stroke="midnightblue" d="M2212.82,-335.396C2212.82,-326.064 2212.82,-313.714 2212.82,-303.517"/>
<polygon fill="midnightblue" stroke="midnightblue" points="2216.32,-303.195 2212.82,-293.195 2209.32,-303.195 2216.32,-303.195"/>
</g>
<!-- Node27 -->
<g id="node28" class="node"><title>Node27</title>
<polygon fill="white" stroke="#bfbfbf" points="2263.82,-207 2263.82,-226 2307.82,-226 2307.82,-207 2263.82,-207"/>
<text text-anchor="middle" x="2285.82" y="-214" font-family="Arial" font-size="10.00">iosfwd</text>
</g>
<!-- Node26&#45;&gt;Node27 -->
<g id="edge50" class="edge"><title>Node26&#45;&gt;Node27</title>
<path fill="none" stroke="midnightblue" d="M2222.67,-273.734C2234.38,-263.305 2254.14,-245.709 2268.45,-232.973"/>
<polygon fill="midnightblue" stroke="midnightblue" points="2270.99,-235.391 2276.13,-226.127 2266.34,-230.163 2270.99,-235.391"/>
</g>
<!-- Node28 -->
<g id="node29" class="node"><title>Node28</title>
<polygon fill="white" stroke="#bfbfbf" points="2183.32,-207 2183.32,-226 2242.32,-226 2242.32,-207 2183.32,-207"/>
<text text-anchor="middle" x="2212.82" y="-214" font-family="Arial" font-size="10.00">functional</text>
</g>
<!-- Node26&#45;&gt;Node28 -->
<g id="edge51" class="edge"><title>Node26&#45;&gt;Node28</title>
<path fill="none" stroke="midnightblue" d="M2212.82,-273.734C2212.82,-264.183 2212.82,-248.618 2212.82,-236.283"/>
<polygon fill="midnightblue" stroke="midnightblue" points="2216.32,-236.127 2212.82,-226.127 2209.32,-236.127 2216.32,-236.127"/>
</g>
<!-- Node29&#45;&gt;Node27 -->
<g id="edge56" class="edge"><title>Node29&#45;&gt;Node27</title>
<path fill="none" stroke="midnightblue" d="M2325.54,-340.861C2319.73,-331.037 2310.47,-314.364 2304.82,-299 2297.17,-278.17 2291.88,-253.182 2288.87,-236.413"/>
<polygon fill="midnightblue" stroke="midnightblue" points="2292.27,-235.54 2287.14,-226.27 2285.37,-236.715 2292.27,-235.54"/>
</g>
<!-- Node30 -->
<g id="node31" class="node"><title>Node30</title>
<g id="a_node31"><a xlink:href="dimensions_8h.html" target="_top" xlink:title="mir/geometry/dimensions.h">
<polygon fill="white" stroke="black" points="2313.82,-274 2313.82,-293 2447.82,-293 2447.82,-274 2313.82,-274"/>
<text text-anchor="middle" x="2380.82" y="-281" font-family="Arial" font-size="10.00">mir/geometry/dimensions.h</text>
</a>
</g>
</g>
<!-- Node29&#45;&gt;Node30 -->
<g id="edge53" class="edge"><title>Node29&#45;&gt;Node30</title>
<path fill="none" stroke="midnightblue" d="M2337.57,-340.734C2345.36,-330.598 2358.37,-313.69 2368.09,-301.056"/>
<polygon fill="midnightblue" stroke="midnightblue" points="2370.86,-303.188 2374.19,-293.127 2365.32,-298.92 2370.86,-303.188"/>
</g>
<!-- Node30&#45;&gt;Node27 -->
<g id="edge55" class="edge"><title>Node30&#45;&gt;Node27</title>
<path fill="none" stroke="midnightblue" d="M2368.01,-273.734C2352.34,-263.013 2325.6,-244.716 2306.89,-231.914"/>
<polygon fill="midnightblue" stroke="midnightblue" points="2308.66,-228.886 2298.43,-226.127 2304.71,-234.663 2308.66,-228.886"/>
</g>
<!-- Node31 -->
<g id="node32" class="node"><title>Node31</title>
<polygon fill="white" stroke="#bfbfbf" points="2357.82,-207 2357.82,-226 2403.82,-226 2403.82,-207 2357.82,-207"/>
<text text-anchor="middle" x="2380.82" y="-214" font-family="Arial" font-size="10.00">cstdint</text>
</g>
<!-- Node30&#45;&gt;Node31 -->
<g id="edge54" class="edge"><title>Node30&#45;&gt;Node31</title>
<path fill="none" stroke="midnightblue" d="M2380.82,-273.734C2380.82,-264.183 2380.82,-248.618 2380.82,-236.283"/>
<polygon fill="midnightblue" stroke="midnightblue" points="2384.32,-236.127 2380.82,-226.127 2377.32,-236.127 2384.32,-236.127"/>
</g>
</g>
</svg>
