<?xml version="1.0" encoding="UTF-8" standalone="no"?>
<!DOCTYPE svg PUBLIC "-//W3C//DTD SVG 1.1//EN"
 "http://www.w3.org/Graphics/SVG/1.1/DTD/svg11.dtd">
<!-- Generated by graphviz version 2.43.0 (0)
 -->
<!-- Title: include/core/mir/geometry/point.h Pages: 1 -->
<svg width="1065pt" height="653pt"
 viewBox="0.00 0.00 1064.50 653.00" xmlns="http://www.w3.org/2000/svg" xmlns:xlink="http://www.w3.org/1999/xlink">
<g id="graph0" class="graph" transform="scale(1 1) rotate(0) translate(4 649)">
<title>include/core/mir/geometry/point.h</title>
<polygon fill="white" stroke="transparent" points="-4,4 -4,-649 1060.5,-649 1060.5,4 -4,4"/>
<!-- Node1 -->
<g id="node1" class="node">
<title>Node1</title>
<g id="a_node1"><a xlink:title=" ">
<polygon fill="#bfbfbf" stroke="black" points="482.5,-614.5 482.5,-644.5 611.5,-644.5 611.5,-614.5 482.5,-614.5"/>
<text text-anchor="start" x="490.5" y="-632.5" font-family="Arial" font-size="10.00">include/core/mir/geometry</text>
<text text-anchor="middle" x="547" y="-621.5" font-family="Arial" font-size="10.00">/point.h</text>
</a>
</g>
</g>
<!-- Node2 -->
<g id="node2" class="node">
<title>Node2</title>
<g id="a_node2"><a xlink:href="displacement_8h.html" target="_top" xlink:title=" ">
<polygon fill="white" stroke="black" points="341.5,-547.5 341.5,-577.5 470.5,-577.5 470.5,-547.5 341.5,-547.5"/>
<text text-anchor="start" x="349.5" y="-565.5" font-family="Arial" font-size="10.00">include/core/mir/geometry</text>
<text text-anchor="middle" x="406" y="-554.5" font-family="Arial" font-size="10.00">/displacement.h</text>
</a>
</g>
</g>
<!-- Node1&#45;&gt;Node2 -->
<g id="edge1" class="edge">
<title>Node1&#45;&gt;Node2</title>
<path fill="none" stroke="midnightblue" d="M507.15,-610.13C484.75,-599.8 457.22,-587.11 436.54,-577.58"/>
<polygon fill="midnightblue" stroke="midnightblue" points="505.86,-613.39 516.41,-614.4 508.79,-607.03 505.86,-613.39"/>
</g>
<!-- Node6 -->
<g id="node6" class="node">
<title>Node6</title>
<g id="a_node6"><a xlink:href="rectangle_8h.html" target="_top" xlink:title=" ">
<polygon fill="white" stroke="black" points="570.5,-480.5 570.5,-510.5 699.5,-510.5 699.5,-480.5 570.5,-480.5"/>
<text text-anchor="start" x="578.5" y="-498.5" font-family="Arial" font-size="10.00">include/core/mir/geometry</text>
<text text-anchor="middle" x="635" y="-487.5" font-family="Arial" font-size="10.00">/rectangle.h</text>
</a>
</g>
</g>
<!-- Node1&#45;&gt;Node6 -->
<g id="edge42" class="edge">
<title>Node1&#45;&gt;Node6</title>
<path fill="none" stroke="midnightblue" d="M562.11,-605.83C580.36,-578.47 610.48,-533.28 625.65,-510.52"/>
<polygon fill="midnightblue" stroke="midnightblue" points="559.05,-604.11 556.42,-614.37 564.88,-607.99 559.05,-604.11"/>
</g>
<!-- Node7 -->
<g id="node7" class="node">
<title>Node7</title>
<g id="a_node7"><a xlink:href="rectangles_8h.html" target="_top" xlink:title=" ">
<polygon fill="white" stroke="black" points="820.5,-408 820.5,-438 949.5,-438 949.5,-408 820.5,-408"/>
<text text-anchor="start" x="828.5" y="-426" font-family="Arial" font-size="10.00">include/core/mir/geometry</text>
<text text-anchor="middle" x="885" y="-415" font-family="Arial" font-size="10.00">/rectangles.h</text>
</a>
</g>
</g>
<!-- Node1&#45;&gt;Node7 -->
<g id="edge43" class="edge">
<title>Node1&#45;&gt;Node7</title>
<path fill="none" stroke="midnightblue" d="M579.18,-609.03C646.83,-568.1 802.45,-473.94 861.61,-438.15"/>
<polygon fill="midnightblue" stroke="midnightblue" points="576.98,-606.27 570.23,-614.44 580.6,-612.26 576.98,-606.27"/>
</g>
<!-- Node25 -->
<g id="node25" class="node">
<title>Node25</title>
<g id="a_node25"><a xlink:href="window_8h.html" target="_top" xlink:title=" ">
<polygon fill="white" stroke="black" points="457.5,-480.5 457.5,-510.5 552.5,-510.5 552.5,-480.5 457.5,-480.5"/>
<text text-anchor="start" x="465.5" y="-498.5" font-family="Arial" font-size="10.00">include/miral/miral</text>
<text text-anchor="middle" x="505" y="-487.5" font-family="Arial" font-size="10.00">/window.h</text>
</a>
</g>
</g>
<!-- Node1&#45;&gt;Node25 -->
<g id="edge44" class="edge">
<title>Node1&#45;&gt;Node25</title>
<path fill="none" stroke="midnightblue" d="M539.44,-604.75C530.71,-577.29 516.61,-532.99 509.46,-510.52"/>
<polygon fill="midnightblue" stroke="midnightblue" points="536.14,-605.91 542.51,-614.37 542.81,-603.78 536.14,-605.91"/>
</g>
<!-- Node3 -->
<g id="node3" class="node">
<title>Node3</title>
<g id="a_node3"><a xlink:href="tiling__window__manager_8h.html" target="_top" xlink:title=" ">
<polygon fill="white" stroke="black" points="66,-134.5 66,-164.5 208,-164.5 208,-134.5 66,-134.5"/>
<text text-anchor="start" x="74" y="-152.5" font-family="Arial" font-size="10.00">examples/example&#45;server</text>
<text text-anchor="middle" x="137" y="-141.5" font-family="Arial" font-size="10.00">&#45;lib/tiling_window_manager.h</text>
</a>
</g>
</g>
<!-- Node2&#45;&gt;Node3 -->
<g id="edge2" class="edge">
<title>Node2&#45;&gt;Node3</title>
<path fill="none" stroke="midnightblue" d="M331.22,-551.76C213.94,-534.36 0,-493.15 0,-424 0,-424 0,-424 0,-282.5 0,-224.87 63.65,-184.47 104.19,-164.59"/>
<polygon fill="midnightblue" stroke="midnightblue" points="330.82,-555.24 341.22,-553.22 331.83,-548.31 330.82,-555.24"/>
</g>
<!-- Node2&#45;&gt;Node6 -->
<g id="edge5" class="edge">
<title>Node2&#45;&gt;Node6</title>
<path fill="none" stroke="midnightblue" d="M465.14,-544.71C502.4,-534.14 549.97,-520.63 585.29,-510.61"/>
<polygon fill="midnightblue" stroke="midnightblue" points="464.07,-541.38 455.41,-547.48 465.98,-548.11 464.07,-541.38"/>
</g>
<!-- Node11 -->
<g id="node11" class="node">
<title>Node11</title>
<g id="a_node11"><a xlink:href="window__manager__tools_8h.html" target="_top" xlink:title=" ">
<polygon fill="white" stroke="black" points="439,-201.5 439,-231.5 569,-231.5 569,-201.5 439,-201.5"/>
<text text-anchor="start" x="447" y="-219.5" font-family="Arial" font-size="10.00">include/miral/miral</text>
<text text-anchor="middle" x="504" y="-208.5" font-family="Arial" font-size="10.00">/window_manager_tools.h</text>
</a>
</g>
</g>
<!-- Node2&#45;&gt;Node11 -->
<g id="edge40" class="edge">
<title>Node2&#45;&gt;Node11</title>
<path fill="none" stroke="midnightblue" d="M391.11,-538.47C375.43,-511.97 353,-466.61 353,-424 353,-424 353,-424 353,-349.5 353,-289.78 420.77,-250.84 465.51,-231.63"/>
<polygon fill="midnightblue" stroke="midnightblue" points="388.33,-540.63 396.52,-547.34 394.3,-536.99 388.33,-540.63"/>
</g>
<!-- Node19 -->
<g id="node19" class="node">
<title>Node19</title>
<g id="a_node19"><a xlink:href="window__management__policy_8h.html" target="_top" xlink:title=" ">
<polygon fill="white" stroke="black" points="239,-201.5 239,-231.5 391,-231.5 391,-201.5 239,-201.5"/>
<text text-anchor="start" x="247" y="-219.5" font-family="Arial" font-size="10.00">include/miral/miral</text>
<text text-anchor="middle" x="315" y="-208.5" font-family="Arial" font-size="10.00">/window_management_policy.h</text>
</a>
</g>
</g>
<!-- Node2&#45;&gt;Node19 -->
<g id="edge39" class="edge">
<title>Node2&#45;&gt;Node19</title>
<path fill="none" stroke="midnightblue" d="M371.29,-541.85C359.54,-533.67 347.3,-523.21 339,-511 316.45,-477.83 315,-464.11 315,-424 315,-424 315,-424 315,-349.5 315,-306.65 315,-255.97 315,-231.76"/>
<polygon fill="midnightblue" stroke="midnightblue" points="369.42,-544.82 379.7,-547.4 373.28,-538.97 369.42,-544.82"/>
</g>
<!-- Node20 -->
<g id="node20" class="node">
<title>Node20</title>
<g id="a_node20"><a xlink:href="window__specification_8h.html" target="_top" xlink:title=" ">
<polygon fill="white" stroke="black" points="512.5,-335.5 512.5,-365.5 633.5,-365.5 633.5,-335.5 512.5,-335.5"/>
<text text-anchor="start" x="520.5" y="-353.5" font-family="Arial" font-size="10.00">include/miral/miral</text>
<text text-anchor="middle" x="573" y="-342.5" font-family="Arial" font-size="10.00">/window_specification.h</text>
</a>
</g>
</g>
<!-- Node2&#45;&gt;Node20 -->
<g id="edge41" class="edge">
<title>Node2&#45;&gt;Node20</title>
<path fill="none" stroke="midnightblue" d="M405.92,-537.14C407.11,-502.88 414.18,-440.39 448,-402 464.63,-383.12 489.34,-371.19 512.4,-363.71"/>
<polygon fill="midnightblue" stroke="midnightblue" points="402.42,-537.13 405.72,-547.2 409.42,-537.27 402.42,-537.13"/>
</g>
<!-- Node4 -->
<g id="node4" class="node">
<title>Node4</title>
<g id="a_node4"><a xlink:href="shell__main_8cpp.html" target="_top" xlink:title=" ">
<polygon fill="white" stroke="black" points="348,-0.5 348,-30.5 454,-30.5 454,-0.5 348,-0.5"/>
<text text-anchor="start" x="356" y="-18.5" font-family="Arial" font-size="10.00">examples/miral&#45;shell</text>
<text text-anchor="middle" x="401" y="-7.5" font-family="Arial" font-size="10.00">/shell_main.cpp</text>
</a>
</g>
</g>
<!-- Node3&#45;&gt;Node4 -->
<g id="edge3" class="edge">
<title>Node3&#45;&gt;Node4</title>
<path fill="none" stroke="midnightblue" d="M203.97,-131.63C231.72,-123.36 263.72,-112.11 291,-98 327.52,-79.11 364.92,-48.53 385.33,-30.69"/>
<polygon fill="midnightblue" stroke="midnightblue" points="202.97,-128.28 194.35,-134.44 204.93,-135 202.97,-128.28"/>
</g>
<!-- Node5 -->
<g id="node5" class="node">
<title>Node5</title>
<g id="a_node5"><a xlink:href="tiling__window__manager_8cpp.html" target="_top" xlink:title=" ">
<polygon fill="white" stroke="black" points="778,-67.5 778,-97.5 930,-97.5 930,-67.5 778,-67.5"/>
<text text-anchor="start" x="786" y="-85.5" font-family="Arial" font-size="10.00">examples/example&#45;server</text>
<text text-anchor="middle" x="854" y="-74.5" font-family="Arial" font-size="10.00">&#45;lib/tiling_window_manager.cpp</text>
</a>
</g>
</g>
<!-- Node3&#45;&gt;Node5 -->
<g id="edge4" class="edge">
<title>Node3&#45;&gt;Node5</title>
<path fill="none" stroke="midnightblue" d="M218.21,-133.93C429.17,-107.3 484.87,-115.24 693,-98 720.69,-95.71 751.04,-93.02 777.85,-90.58"/>
<polygon fill="midnightblue" stroke="midnightblue" points="217.52,-130.49 208.04,-135.23 218.4,-137.44 217.52,-130.49"/>
</g>
<!-- Node6&#45;&gt;Node7 -->
<g id="edge6" class="edge">
<title>Node6&#45;&gt;Node7</title>
<path fill="none" stroke="midnightblue" d="M694.43,-477.74C737.27,-465.66 794.46,-449.53 834.98,-438.11"/>
<polygon fill="midnightblue" stroke="midnightblue" points="693.37,-474.4 684.69,-480.49 695.27,-481.14 693.37,-474.4"/>
</g>
<!-- Node21 -->
<g id="node21" class="node">
<title>Node21</title>
<g id="a_node21"><a xlink:href="output_8h.html" target="_top" xlink:title=" ">
<polygon fill="white" stroke="black" points="578.5,-408 578.5,-438 673.5,-438 673.5,-408 578.5,-408"/>
<text text-anchor="start" x="586.5" y="-426" font-family="Arial" font-size="10.00">include/miral/miral</text>
<text text-anchor="middle" x="626" y="-415" font-family="Arial" font-size="10.00">/output.h</text>
</a>
</g>
</g>
<!-- Node6&#45;&gt;Node21 -->
<g id="edge33" class="edge">
<title>Node6&#45;&gt;Node21</title>
<path fill="none" stroke="midnightblue" d="M631.9,-470.23C630.54,-459.57 628.99,-447.41 627.82,-438.25"/>
<polygon fill="midnightblue" stroke="midnightblue" points="628.44,-470.76 633.18,-480.23 635.38,-469.87 628.44,-470.76"/>
</g>
<!-- Node22 -->
<g id="node22" class="node">
<title>Node22</title>
<g id="a_node22"><a xlink:href="zone_8h.html" target="_top" xlink:title=" ">
<polygon fill="white" stroke="black" points="961.5,-134.5 961.5,-164.5 1056.5,-164.5 1056.5,-134.5 961.5,-134.5"/>
<text text-anchor="start" x="969.5" y="-152.5" font-family="Arial" font-size="10.00">include/miral/miral</text>
<text text-anchor="middle" x="1009" y="-141.5" font-family="Arial" font-size="10.00">/zone.h</text>
</a>
</g>
</g>
<!-- Node6&#45;&gt;Node22 -->
<g id="edge34" class="edge">
<title>Node6&#45;&gt;Node22</title>
<path fill="none" stroke="midnightblue" d="M709.98,-491.34C793.49,-486.38 921.68,-474 959,-444 993.38,-416.36 995,-395.61 995,-351.5 995,-351.5 995,-351.5 995,-282.5 995,-239.41 1002.47,-188.84 1006.5,-164.71"/>
<polygon fill="midnightblue" stroke="midnightblue" points="709.55,-487.86 699.77,-491.93 709.95,-494.85 709.55,-487.86"/>
</g>
<!-- Node23 -->
<g id="node23" class="node">
<title>Node23</title>
<g id="a_node23"><a xlink:href="display__configuration__storage_8h.html" target="_top" xlink:title=" ">
<polygon fill="white" stroke="black" points="691.5,-402.5 691.5,-443.5 802.5,-443.5 802.5,-402.5 691.5,-402.5"/>
<text text-anchor="start" x="699.5" y="-431.5" font-family="Arial" font-size="10.00">include/miroil/miroil</text>
<text text-anchor="start" x="699.5" y="-420.5" font-family="Arial" font-size="10.00">/display_configuration</text>
<text text-anchor="middle" x="747" y="-409.5" font-family="Arial" font-size="10.00">_storage.h</text>
</a>
</g>
</g>
<!-- Node6&#45;&gt;Node23 -->
<g id="edge37" class="edge">
<title>Node6&#45;&gt;Node23</title>
<path fill="none" stroke="midnightblue" d="M666.09,-474.93C681.57,-465.19 700.23,-453.44 715.74,-443.68"/>
<polygon fill="midnightblue" stroke="midnightblue" points="663.99,-472.11 657.4,-480.4 667.72,-478.04 663.99,-472.11"/>
</g>
<!-- Node24 -->
<g id="node24" class="node">
<title>Node24</title>
<g id="a_node24"><a xlink:href="surface__observer_8h.html" target="_top" xlink:title=" ">
<polygon fill="white" stroke="black" points="457.5,-408 457.5,-438 560.5,-438 560.5,-408 457.5,-408"/>
<text text-anchor="start" x="465.5" y="-426" font-family="Arial" font-size="10.00">include/miroil/miroil</text>
<text text-anchor="middle" x="509" y="-415" font-family="Arial" font-size="10.00">/surface_observer.h</text>
</a>
</g>
</g>
<!-- Node6&#45;&gt;Node24 -->
<g id="edge38" class="edge">
<title>Node6&#45;&gt;Node24</title>
<path fill="none" stroke="midnightblue" d="M600.86,-475.4C579.81,-463.62 553.28,-448.78 534.15,-438.07"/>
<polygon fill="midnightblue" stroke="midnightblue" points="599.37,-478.57 609.8,-480.4 602.79,-472.47 599.37,-478.57"/>
</g>
<!-- Node8 -->
<g id="node8" class="node">
<title>Node8</title>
<g id="a_node8"><a xlink:href="window__info_8h.html" target="_top" xlink:title=" ">
<polygon fill="white" stroke="black" points="525.5,-268.5 525.5,-298.5 620.5,-298.5 620.5,-268.5 525.5,-268.5"/>
<text text-anchor="start" x="533.5" y="-286.5" font-family="Arial" font-size="10.00">include/miral/miral</text>
<text text-anchor="middle" x="573" y="-275.5" font-family="Arial" font-size="10.00">/window_info.h</text>
</a>
</g>
</g>
<!-- Node7&#45;&gt;Node8 -->
<g id="edge7" class="edge">
<title>Node7&#45;&gt;Node8</title>
<path fill="none" stroke="midnightblue" d="M843.84,-403.86C780.92,-376.13 662.12,-323.78 605.11,-298.65"/>
<polygon fill="midnightblue" stroke="midnightblue" points="842.51,-407.1 853.08,-407.93 845.34,-400.7 842.51,-407.1"/>
</g>
<!-- Node7&#45;&gt;Node19 -->
<g id="edge27" class="edge">
<title>Node7&#45;&gt;Node19</title>
<path fill="none" stroke="midnightblue" d="M827.65,-405.42C822.39,-404.16 817.11,-402.99 812,-402 676.71,-375.72 631.41,-418.55 504,-366 427.23,-334.34 355.61,-262.17 327.52,-231.6"/>
<polygon fill="midnightblue" stroke="midnightblue" points="827.18,-408.91 837.73,-407.93 828.88,-402.11 827.18,-408.91"/>
</g>
<!-- Node7&#45;&gt;Node20 -->
<g id="edge31" class="edge">
<title>Node7&#45;&gt;Node20</title>
<path fill="none" stroke="midnightblue" d="M825.36,-405.35C820.85,-404.19 816.36,-403.06 812,-402 751.62,-387.36 682.08,-372.94 633.63,-363.28"/>
<polygon fill="midnightblue" stroke="midnightblue" points="824.67,-408.79 835.23,-407.94 826.45,-402.02 824.67,-408.79"/>
</g>
<!-- Node8&#45;&gt;Node5 -->
<g id="edge10" class="edge">
<title>Node8&#45;&gt;Node5</title>
<path fill="none" stroke="midnightblue" d="M623.24,-264.8C672.14,-245.75 746.56,-211.77 799,-165 820.91,-145.46 838.21,-115.39 847.2,-97.75"/>
<polygon fill="midnightblue" stroke="midnightblue" points="621.9,-261.56 613.81,-268.41 624.4,-268.1 621.9,-261.56"/>
</g>
<!-- Node9 -->
<g id="node9" class="node">
<title>Node9</title>
<g id="a_node9"><a xlink:href="kiosk__window__manager_8cpp.html" target="_top" xlink:title=" ">
<polygon fill="white" stroke="black" points="30.5,-0.5 30.5,-30.5 173.5,-30.5 173.5,-0.5 30.5,-0.5"/>
<text text-anchor="start" x="38.5" y="-18.5" font-family="Arial" font-size="10.00">examples/miral&#45;kiosk</text>
<text text-anchor="middle" x="102" y="-7.5" font-family="Arial" font-size="10.00">/kiosk_window_manager.cpp</text>
</a>
</g>
</g>
<!-- Node8&#45;&gt;Node9 -->
<g id="edge8" class="edge">
<title>Node8&#45;&gt;Node9</title>
<path fill="none" stroke="midnightblue" d="M515.16,-278.82C391.55,-269.56 108.64,-240.38 57,-165 27.46,-121.89 68.54,-58.84 90.16,-30.83"/>
<polygon fill="midnightblue" stroke="midnightblue" points="514.97,-282.32 525.2,-279.56 515.48,-275.34 514.97,-282.32"/>
</g>
<!-- Node10 -->
<g id="node10" class="node">
<title>Node10</title>
<g id="a_node10"><a xlink:href="floating__window__manager_8cpp.html" target="_top" xlink:title=" ">
<polygon fill="white" stroke="black" points="668,-0.5 668,-30.5 832,-30.5 832,-0.5 668,-0.5"/>
<text text-anchor="start" x="676" y="-18.5" font-family="Arial" font-size="10.00">examples/example&#45;server</text>
<text text-anchor="middle" x="750" y="-7.5" font-family="Arial" font-size="10.00">&#45;lib/floating_window_manager.cpp</text>
</a>
</g>
</g>
<!-- Node8&#45;&gt;Node10 -->
<g id="edge9" class="edge">
<title>Node8&#45;&gt;Node10</title>
<path fill="none" stroke="midnightblue" d="M630.62,-273.98C717.27,-257.6 877.5,-212.59 939,-98 964.51,-50.46 894.17,-30.64 832.18,-22.39"/>
<polygon fill="midnightblue" stroke="midnightblue" points="629.9,-270.55 620.69,-275.79 631.16,-277.44 629.9,-270.55"/>
</g>
<!-- Node8&#45;&gt;Node11 -->
<g id="edge11" class="edge">
<title>Node8&#45;&gt;Node11</title>
<path fill="none" stroke="midnightblue" d="M550.51,-261.31C540.16,-251.56 528.16,-240.26 518.94,-231.58"/>
<polygon fill="midnightblue" stroke="midnightblue" points="548.35,-264.09 558.03,-268.4 553.15,-258.99 548.35,-264.09"/>
</g>
<!-- Node11&#45;&gt;Node3 -->
<g id="edge18" class="edge">
<title>Node11&#45;&gt;Node3</title>
<path fill="none" stroke="midnightblue" d="M428.57,-202.34C370.67,-192.21 288.77,-177.82 217,-165 214.08,-164.48 211.1,-163.95 208.1,-163.41"/>
<polygon fill="midnightblue" stroke="midnightblue" points="428.27,-205.84 438.73,-204.11 429.48,-198.94 428.27,-205.84"/>
</g>
<!-- Node11&#45;&gt;Node5 -->
<g id="edge17" class="edge">
<title>Node11&#45;&gt;Node5</title>
<path fill="none" stroke="midnightblue" d="M579.25,-211.64C633.12,-206.37 706.05,-193.99 764,-165 797.18,-148.4 827.28,-116.1 842.85,-97.54"/>
<polygon fill="midnightblue" stroke="midnightblue" points="578.73,-208.17 569.09,-212.57 579.36,-215.14 578.73,-208.17"/>
</g>
<!-- Node11&#45;&gt;Node9 -->
<g id="edge12" class="edge">
<title>Node11&#45;&gt;Node9</title>
<path fill="none" stroke="midnightblue" d="M470.85,-196.14C455.94,-187.1 438.29,-175.94 423,-165 405.27,-152.32 402.33,-147.22 385,-134 344.21,-102.88 337.41,-88.86 291,-67 253.97,-49.56 209.93,-37.35 173.68,-29.31"/>
<polygon fill="midnightblue" stroke="midnightblue" points="469.36,-199.33 479.73,-201.47 472.96,-193.32 469.36,-199.33"/>
</g>
<!-- Node11&#45;&gt;Node10 -->
<g id="edge16" class="edge">
<title>Node11&#45;&gt;Node10</title>
<path fill="none" stroke="midnightblue" d="M579.41,-208.03C637.34,-200.65 710.75,-187.19 731,-165 765.33,-127.37 758.23,-60.31 753.02,-30.95"/>
<polygon fill="midnightblue" stroke="midnightblue" points="578.66,-204.59 569.16,-209.29 579.51,-211.54 578.66,-204.59"/>
</g>
<!-- Node12 -->
<g id="node12" class="node">
<title>Node12</title>
<g id="a_node12"><a xlink:href="decoration__provider_8h.html" target="_top" xlink:title=" ">
<polygon fill="white" stroke="black" points="594,-134.5 594,-164.5 722,-164.5 722,-134.5 594,-134.5"/>
<text text-anchor="start" x="602" y="-152.5" font-family="Arial" font-size="10.00">examples/example&#45;server</text>
<text text-anchor="middle" x="658" y="-141.5" font-family="Arial" font-size="10.00">&#45;lib/decoration_provider.h</text>
</a>
</g>
</g>
<!-- Node11&#45;&gt;Node12 -->
<g id="edge13" class="edge">
<title>Node11&#45;&gt;Node12</title>
<path fill="none" stroke="midnightblue" d="M546.87,-197.41C571.45,-187.03 601.86,-174.2 624.65,-164.58"/>
<polygon fill="midnightblue" stroke="midnightblue" points="545.27,-194.28 537.42,-201.4 547.99,-200.73 545.27,-194.28"/>
</g>
<!-- Node14 -->
<g id="node14" class="node">
<title>Node14</title>
<g id="a_node14"><a xlink:href="canonical__window__manager_8h.html" target="_top" xlink:title=" ">
<polygon fill="white" stroke="black" points="226,-134.5 226,-164.5 376,-164.5 376,-134.5 226,-134.5"/>
<text text-anchor="start" x="234" y="-152.5" font-family="Arial" font-size="10.00">include/miral/miral</text>
<text text-anchor="middle" x="301" y="-141.5" font-family="Arial" font-size="10.00">/canonical_window_manager.h</text>
</a>
</g>
</g>
<!-- Node11&#45;&gt;Node14 -->
<g id="edge19" class="edge">
<title>Node11&#45;&gt;Node14</title>
<path fill="none" stroke="midnightblue" d="M450.06,-198.23C417.22,-187.71 375.8,-174.45 344.96,-164.58"/>
<polygon fill="midnightblue" stroke="midnightblue" points="449.36,-201.68 459.95,-201.4 451.5,-195.01 449.36,-201.68"/>
</g>
<!-- Node17 -->
<g id="node17" class="node">
<title>Node17</title>
<g id="a_node17"><a xlink:href="minimal__window__manager_8h.html" target="_top" xlink:title=" ">
<polygon fill="white" stroke="black" points="432.5,-134.5 432.5,-164.5 575.5,-164.5 575.5,-134.5 432.5,-134.5"/>
<text text-anchor="start" x="440.5" y="-152.5" font-family="Arial" font-size="10.00">include/miral/miral</text>
<text text-anchor="middle" x="504" y="-141.5" font-family="Arial" font-size="10.00">/minimal_window_manager.h</text>
</a>
</g>
</g>
<!-- Node11&#45;&gt;Node17 -->
<g id="edge23" class="edge">
<title>Node11&#45;&gt;Node17</title>
<path fill="none" stroke="midnightblue" d="M504,-191.11C504,-182.15 504,-172.32 504,-164.58"/>
<polygon fill="midnightblue" stroke="midnightblue" points="500.5,-191.4 504,-201.4 507.5,-191.4 500.5,-191.4"/>
</g>
<!-- Node12&#45;&gt;Node10 -->
<g id="edge15" class="edge">
<title>Node12&#45;&gt;Node10</title>
<path fill="none" stroke="midnightblue" d="M673.8,-125.83C692.87,-98.47 724.36,-53.28 740.23,-30.52"/>
<polygon fill="midnightblue" stroke="midnightblue" points="670.69,-124.17 667.85,-134.37 676.43,-128.17 670.69,-124.17"/>
</g>
<!-- Node13 -->
<g id="node13" class="node">
<title>Node13</title>
<g id="a_node13"><a xlink:href="decoration__provider_8cpp.html" target="_top" xlink:title=" ">
<polygon fill="white" stroke="black" points="548,-67.5 548,-97.5 684,-97.5 684,-67.5 548,-67.5"/>
<text text-anchor="start" x="556" y="-85.5" font-family="Arial" font-size="10.00">examples/example&#45;server</text>
<text text-anchor="middle" x="616" y="-74.5" font-family="Arial" font-size="10.00">&#45;lib/decoration_provider.cpp</text>
</a>
</g>
</g>
<!-- Node12&#45;&gt;Node13 -->
<g id="edge14" class="edge">
<title>Node12&#45;&gt;Node13</title>
<path fill="none" stroke="midnightblue" d="M643.38,-125.87C637.3,-116.46 630.43,-105.83 625.1,-97.58"/>
<polygon fill="midnightblue" stroke="midnightblue" points="640.52,-127.9 648.89,-134.4 646.4,-124.1 640.52,-127.9"/>
</g>
<!-- Node15 -->
<g id="node15" class="node">
<title>Node15</title>
<g id="a_node15"><a xlink:href="kiosk__window__manager_8h.html" target="_top" xlink:title=" ">
<polygon fill="white" stroke="black" points="150,-67.5 150,-97.5 282,-97.5 282,-67.5 150,-67.5"/>
<text text-anchor="start" x="158" y="-85.5" font-family="Arial" font-size="10.00">examples/miral&#45;kiosk</text>
<text text-anchor="middle" x="216" y="-74.5" font-family="Arial" font-size="10.00">/kiosk_window_manager.h</text>
</a>
</g>
</g>
<!-- Node14&#45;&gt;Node15 -->
<g id="edge20" class="edge">
<title>Node14&#45;&gt;Node15</title>
<path fill="none" stroke="midnightblue" d="M274.41,-128.17C261.41,-118.23 246.1,-106.51 234.41,-97.58"/>
<polygon fill="midnightblue" stroke="midnightblue" points="272.49,-131.1 282.56,-134.4 276.74,-125.54 272.49,-131.1"/>
</g>
<!-- Node15&#45;&gt;Node9 -->
<g id="edge22" class="edge">
<title>Node15&#45;&gt;Node9</title>
<path fill="none" stroke="midnightblue" d="M182.32,-62.3C164.48,-52.12 142.96,-39.85 126.69,-30.58"/>
<polygon fill="midnightblue" stroke="midnightblue" points="180.84,-65.48 191.26,-67.4 184.31,-59.4 180.84,-65.48"/>
</g>
<!-- Node16 -->
<g id="node16" class="node">
<title>Node16</title>
<g id="a_node16"><a xlink:href="kiosk__main_8cpp.html" target="_top" xlink:title=" ">
<polygon fill="white" stroke="black" points="191.5,-0.5 191.5,-30.5 300.5,-30.5 300.5,-0.5 191.5,-0.5"/>
<text text-anchor="start" x="199.5" y="-18.5" font-family="Arial" font-size="10.00">examples/miral&#45;kiosk</text>
<text text-anchor="middle" x="246" y="-7.5" font-family="Arial" font-size="10.00">/kiosk_main.cpp</text>
</a>
</g>
</g>
<!-- Node15&#45;&gt;Node16 -->
<g id="edge21" class="edge">
<title>Node15&#45;&gt;Node16</title>
<path fill="none" stroke="midnightblue" d="M226.72,-58.28C230.99,-49.02 235.77,-38.66 239.5,-30.58"/>
<polygon fill="midnightblue" stroke="midnightblue" points="223.52,-56.85 222.51,-67.4 229.88,-59.78 223.52,-56.85"/>
</g>
<!-- Node18 -->
<g id="node18" class="node">
<title>Node18</title>
<g id="a_node18"><a xlink:href="floating__window__manager_8h.html" target="_top" xlink:title=" ">
<polygon fill="white" stroke="black" points="376.5,-67.5 376.5,-97.5 529.5,-97.5 529.5,-67.5 376.5,-67.5"/>
<text text-anchor="start" x="384.5" y="-85.5" font-family="Arial" font-size="10.00">examples/example&#45;server</text>
<text text-anchor="middle" x="453" y="-74.5" font-family="Arial" font-size="10.00">&#45;lib/floating_window_manager.h</text>
</a>
</g>
</g>
<!-- Node17&#45;&gt;Node18 -->
<g id="edge24" class="edge">
<title>Node17&#45;&gt;Node18</title>
<path fill="none" stroke="midnightblue" d="M486.7,-126.45C479.21,-116.9 470.66,-106 464.04,-97.58"/>
<polygon fill="midnightblue" stroke="midnightblue" points="484.01,-128.69 492.93,-134.4 489.51,-124.37 484.01,-128.69"/>
</g>
<!-- Node18&#45;&gt;Node4 -->
<g id="edge25" class="edge">
<title>Node18&#45;&gt;Node4</title>
<path fill="none" stroke="midnightblue" d="M435.36,-59.45C427.72,-49.9 419,-39 412.26,-30.58"/>
<polygon fill="midnightblue" stroke="midnightblue" points="432.74,-61.77 441.72,-67.4 438.2,-57.4 432.74,-61.77"/>
</g>
<!-- Node18&#45;&gt;Node10 -->
<g id="edge26" class="edge">
<title>Node18&#45;&gt;Node10</title>
<path fill="none" stroke="midnightblue" d="M526.95,-65.32C575.76,-54.63 639.08,-40.77 685.78,-30.55"/>
<polygon fill="midnightblue" stroke="midnightblue" points="526.1,-61.92 517.08,-67.48 527.6,-68.76 526.1,-61.92"/>
</g>
<!-- Node19&#45;&gt;Node3 -->
<g id="edge28" class="edge">
<title>Node19&#45;&gt;Node3</title>
<path fill="none" stroke="midnightblue" d="M266.95,-197.96C238.28,-187.48 202.36,-174.37 175.55,-164.58"/>
<polygon fill="midnightblue" stroke="midnightblue" points="265.78,-201.25 276.38,-201.4 268.18,-194.68 265.78,-201.25"/>
</g>
<!-- Node19&#45;&gt;Node14 -->
<g id="edge29" class="edge">
<title>Node19&#45;&gt;Node14</title>
<path fill="none" stroke="midnightblue" d="M309.81,-191.4C307.86,-182.37 305.72,-172.41 304.03,-164.58"/>
<polygon fill="midnightblue" stroke="midnightblue" points="306.44,-192.36 311.96,-201.4 313.28,-190.88 306.44,-192.36"/>
</g>
<!-- Node19&#45;&gt;Node17 -->
<g id="edge30" class="edge">
<title>Node19&#45;&gt;Node17</title>
<path fill="none" stroke="midnightblue" d="M365.62,-198.09C396.13,-187.6 434.48,-174.41 463.07,-164.58"/>
<polygon fill="midnightblue" stroke="midnightblue" points="364.33,-194.83 356.01,-201.4 366.6,-201.45 364.33,-194.83"/>
</g>
<!-- Node20&#45;&gt;Node8 -->
<g id="edge32" class="edge">
<title>Node20&#45;&gt;Node8</title>
<path fill="none" stroke="midnightblue" d="M573,-325.11C573,-316.15 573,-306.32 573,-298.58"/>
<polygon fill="midnightblue" stroke="midnightblue" points="569.5,-325.4 573,-335.4 576.5,-325.4 569.5,-325.4"/>
</g>
<!-- Node22&#45;&gt;Node5 -->
<g id="edge36" class="edge">
<title>Node22&#45;&gt;Node5</title>
<path fill="none" stroke="midnightblue" d="M965.85,-130.41C941.11,-120.03 910.5,-107.2 887.57,-97.58"/>
<polygon fill="midnightblue" stroke="midnightblue" points="964.79,-133.76 975.37,-134.4 967.5,-127.3 964.79,-133.76"/>
</g>
<!-- Node22&#45;&gt;Node10 -->
<g id="edge35" class="edge">
<title>Node22&#45;&gt;Node10</title>
<path fill="none" stroke="midnightblue" d="M1004.21,-124.6C999.27,-106.16 989.7,-81.43 972,-67 950.56,-49.51 886.17,-36.05 832.23,-27.44"/>
<polygon fill="midnightblue" stroke="midnightblue" points="1000.82,-125.44 1006.56,-134.35 1007.62,-123.81 1000.82,-125.44"/>
</g>
<!-- Node25&#45;&gt;Node8 -->
<g id="edge45" class="edge">
<title>Node25&#45;&gt;Node8</title>
<path fill="none" stroke="midnightblue" d="M472.87,-474.15C463,-466.08 453.34,-455.87 448,-444 440.34,-426.98 441.63,-419.55 448,-402 465.47,-353.84 515.89,-317.36 547.1,-298.6"/>
<polygon fill="midnightblue" stroke="midnightblue" points="471.04,-477.15 481.12,-480.41 475.27,-471.57 471.04,-477.15"/>
</g>
</g>
</svg>
