<?xml version="1.0" encoding="UTF-8" standalone="no"?>
<!DOCTYPE svg PUBLIC "-//W3C//DTD SVG 1.1//EN"
 "http://www.w3.org/Graphics/SVG/1.1/DTD/svg11.dtd">
<!-- Generated by graphviz version 2.40.1 (20161225.0304)
 -->
<!-- Title: include/core/mir/geometry/point.h Pages: 1 -->
<svg width="142pt" height="151pt"
 viewBox="0.00 0.00 141.50 151.00" xmlns="http://www.w3.org/2000/svg" xmlns:xlink="http://www.w3.org/1999/xlink">
<g id="graph0" class="graph" transform="scale(1 1) rotate(0) translate(4 147)">
<title>include/core/mir/geometry/point.h</title>
<polygon fill="#ffffff" stroke="transparent" points="-4,4 -4,-147 137.5,-147 137.5,4 -4,4"/>
<!-- Node0 -->
<g id="node1" class="node">
<title>Node0</title>
<polygon fill="#bfbfbf" stroke="#000000" points="4.5,-112.5 4.5,-142.5 133.5,-142.5 133.5,-112.5 4.5,-112.5"/>
<text text-anchor="start" x="12.5" y="-130.5" font-family="Arial" font-size="10.00" fill="#000000">include/core/mir/geometry</text>
<text text-anchor="middle" x="69" y="-119.5" font-family="Arial" font-size="10.00" fill="#000000">/point.h</text>
</g>
<!-- Node1 -->
<g id="node2" class="node">
<title>Node1</title>
<g id="a_node2"><a xlink:href="dimensions_8h.html" target="_top" xlink:title="dimensions.h">
<polygon fill="#ffffff" stroke="#000000" points="0,-56.5 0,-75.5 74,-75.5 74,-56.5 0,-56.5"/>
<text text-anchor="middle" x="37" y="-63.5" font-family="Arial" font-size="10.00" fill="#000000">dimensions.h</text>
</a>
</g>
</g>
<!-- Node0&#45;&gt;Node1 -->
<g id="edge1" class="edge">
<title>Node0&#45;&gt;Node1</title>
<path fill="none" stroke="#191970" d="M61.0899,-112.2977C56.7868,-104.0277 51.4242,-93.7215 46.8518,-84.9339"/>
<polygon fill="#191970" stroke="#191970" points="49.8443,-83.1024 42.1236,-75.8469 43.6346,-86.3335 49.8443,-83.1024"/>
</g>
<!-- Node3 -->
<g id="node4" class="node">
<title>Node3</title>
<polygon fill="#ffffff" stroke="#bfbfbf" points="79,-.5 79,-19.5 123,-19.5 123,-.5 79,-.5"/>
<text text-anchor="middle" x="101" y="-7.5" font-family="Arial" font-size="10.00" fill="#000000">iosfwd</text>
</g>
<!-- Node0&#45;&gt;Node3 -->
<g id="edge4" class="edge">
<title>Node0&#45;&gt;Node3</title>
<path fill="none" stroke="#191970" d="M73.1834,-112.1389C78.975,-90.873 89.4336,-52.4702 95.745,-29.2956"/>
<polygon fill="#191970" stroke="#191970" points="99.1458,-30.1278 98.3966,-19.5595 92.3918,-28.2883 99.1458,-30.1278"/>
</g>
<!-- Node2 -->
<g id="node3" class="node">
<title>Node2</title>
<polygon fill="#ffffff" stroke="#bfbfbf" points="14,-.5 14,-19.5 60,-19.5 60,-.5 14,-.5"/>
<text text-anchor="middle" x="37" y="-7.5" font-family="Arial" font-size="10.00" fill="#000000">cstdint</text>
</g>
<!-- Node1&#45;&gt;Node2 -->
<g id="edge2" class="edge">
<title>Node1&#45;&gt;Node2</title>
<path fill="none" stroke="#191970" d="M37,-56.2455C37,-48.9382 37,-38.6944 37,-29.7046"/>
<polygon fill="#191970" stroke="#191970" points="40.5001,-29.6426 37,-19.6427 33.5001,-29.6427 40.5001,-29.6426"/>
</g>
<!-- Node1&#45;&gt;Node3 -->
<g id="edge3" class="edge">
<title>Node1&#45;&gt;Node3</title>
<path fill="none" stroke="#191970" d="M48.1479,-56.2455C57.5087,-48.0549 71.0858,-36.1749 82.1349,-26.5069"/>
<polygon fill="#191970" stroke="#191970" points="84.7588,-28.8618 89.9798,-19.6427 80.1492,-23.5937 84.7588,-28.8618"/>
</g>
</g>
</svg>
