<?xml version="1.0" encoding="UTF-8" standalone="no"?>
<!DOCTYPE svg PUBLIC "-//W3C//DTD SVG 1.1//EN"
 "http://www.w3.org/Graphics/SVG/1.1/DTD/svg11.dtd">
<!-- Generated by graphviz version 2.43.0 (0)
 -->
<!-- Title: include/core/mir/geometry/point.h Pages: 1 -->
<svg width="1067pt" height="653pt"
 viewBox="0.00 0.00 1066.50 653.00" xmlns="http://www.w3.org/2000/svg" xmlns:xlink="http://www.w3.org/1999/xlink">
<g id="graph0" class="graph" transform="scale(1 1) rotate(0) translate(4 649)">
<title>include/core/mir/geometry/point.h</title>
<polygon fill="white" stroke="transparent" points="-4,4 -4,-649 1062.5,-649 1062.5,4 -4,4"/>
<!-- Node1 -->
<g id="node1" class="node">
<title>Node1</title>
<g id="a_node1"><a xlink:title=" ">
<polygon fill="#bfbfbf" stroke="black" points="519.5,-614.5 519.5,-644.5 648.5,-644.5 648.5,-614.5 519.5,-614.5"/>
<text text-anchor="start" x="527.5" y="-632.5" font-family="Arial" font-size="10.00">include/core/mir/geometry</text>
<text text-anchor="middle" x="584" y="-621.5" font-family="Arial" font-size="10.00">/point.h</text>
</a>
</g>
</g>
<!-- Node2 -->
<g id="node2" class="node">
<title>Node2</title>
<g id="a_node2"><a xlink:href="displacement_8h.html" target="_top" xlink:title=" ">
<polygon fill="white" stroke="black" points="366.5,-547.5 366.5,-577.5 495.5,-577.5 495.5,-547.5 366.5,-547.5"/>
<text text-anchor="start" x="374.5" y="-565.5" font-family="Arial" font-size="10.00">include/core/mir/geometry</text>
<text text-anchor="middle" x="431" y="-554.5" font-family="Arial" font-size="10.00">/displacement.h</text>
</a>
</g>
</g>
<!-- Node1&#45;&gt;Node2 -->
<g id="edge1" class="edge">
<title>Node1&#45;&gt;Node2</title>
<path fill="none" stroke="midnightblue" d="M541.41,-610.41C516.98,-600.03 486.78,-587.2 464.13,-577.58"/>
<polygon fill="midnightblue" stroke="midnightblue" points="540.23,-613.71 550.8,-614.4 542.97,-607.26 540.23,-613.71"/>
</g>
<!-- Node6 -->
<g id="node6" class="node">
<title>Node6</title>
<g id="a_node6"><a xlink:href="rectangle_8h.html" target="_top" xlink:title=" ">
<polygon fill="white" stroke="black" points="616.5,-480.5 616.5,-510.5 745.5,-510.5 745.5,-480.5 616.5,-480.5"/>
<text text-anchor="start" x="624.5" y="-498.5" font-family="Arial" font-size="10.00">include/core/mir/geometry</text>
<text text-anchor="middle" x="681" y="-487.5" font-family="Arial" font-size="10.00">/rectangle.h</text>
</a>
</g>
</g>
<!-- Node1&#45;&gt;Node6 -->
<g id="edge42" class="edge">
<title>Node1&#45;&gt;Node6</title>
<path fill="none" stroke="midnightblue" d="M600.39,-606.19C620.48,-578.86 653.9,-533.38 670.69,-510.52"/>
<polygon fill="midnightblue" stroke="midnightblue" points="597.48,-604.24 594.38,-614.37 603.12,-608.39 597.48,-604.24"/>
</g>
<!-- Node7 -->
<g id="node7" class="node">
<title>Node7</title>
<g id="a_node7"><a xlink:href="rectangles_8h.html" target="_top" xlink:title=" ">
<polygon fill="white" stroke="black" points="478.5,-408 478.5,-438 607.5,-438 607.5,-408 478.5,-408"/>
<text text-anchor="start" x="486.5" y="-426" font-family="Arial" font-size="10.00">include/core/mir/geometry</text>
<text text-anchor="middle" x="543" y="-415" font-family="Arial" font-size="10.00">/rectangles.h</text>
</a>
</g>
</g>
<!-- Node1&#45;&gt;Node7 -->
<g id="edge43" class="edge">
<title>Node1&#45;&gt;Node7</title>
<path fill="none" stroke="midnightblue" d="M579.2,-604.58C570.59,-561.62 552.76,-472.7 545.84,-438.15"/>
<polygon fill="midnightblue" stroke="midnightblue" points="575.78,-605.33 581.18,-614.44 582.65,-603.95 575.78,-605.33"/>
</g>
<!-- Node25 -->
<g id="node25" class="node">
<title>Node25</title>
<g id="a_node25"><a xlink:href="window_8h.html" target="_top" xlink:title=" ">
<polygon fill="white" stroke="black" points="876.5,-480.5 876.5,-510.5 971.5,-510.5 971.5,-480.5 876.5,-480.5"/>
<text text-anchor="start" x="884.5" y="-498.5" font-family="Arial" font-size="10.00">include/miral/miral</text>
<text text-anchor="middle" x="924" y="-487.5" font-family="Arial" font-size="10.00">/window.h</text>
</a>
</g>
</g>
<!-- Node1&#45;&gt;Node25 -->
<g id="edge44" class="edge">
<title>Node1&#45;&gt;Node25</title>
<path fill="none" stroke="midnightblue" d="M629.7,-610.76C698.04,-584.23 825.47,-534.75 887.79,-510.56"/>
<polygon fill="midnightblue" stroke="midnightblue" points="628.12,-607.62 620.06,-614.5 630.65,-614.14 628.12,-607.62"/>
</g>
<!-- Node3 -->
<g id="node3" class="node">
<title>Node3</title>
<g id="a_node3"><a xlink:href="tiling__window__manager_8h.html" target="_top" xlink:title=" ">
<polygon fill="white" stroke="black" points="0,-134.5 0,-164.5 142,-164.5 142,-134.5 0,-134.5"/>
<text text-anchor="start" x="8" y="-152.5" font-family="Arial" font-size="10.00">examples/example&#45;server</text>
<text text-anchor="middle" x="71" y="-141.5" font-family="Arial" font-size="10.00">&#45;lib/tiling_window_manager.h</text>
</a>
</g>
</g>
<!-- Node2&#45;&gt;Node3 -->
<g id="edge2" class="edge">
<title>Node2&#45;&gt;Node3</title>
<path fill="none" stroke="midnightblue" d="M356.15,-556.88C272.01,-547.15 147,-517.04 147,-424 147,-424 147,-424 147,-282.5 147,-234.11 108.16,-187.45 86.02,-164.77"/>
<polygon fill="midnightblue" stroke="midnightblue" points="355.88,-560.37 366.2,-557.96 356.64,-553.41 355.88,-560.37"/>
</g>
<!-- Node2&#45;&gt;Node6 -->
<g id="edge5" class="edge">
<title>Node2&#45;&gt;Node6</title>
<path fill="none" stroke="midnightblue" d="M494.78,-544.92C535.58,-534.31 587.93,-520.7 626.73,-510.61"/>
<polygon fill="midnightblue" stroke="midnightblue" points="493.74,-541.57 484.94,-547.48 495.5,-548.35 493.74,-541.57"/>
</g>
<!-- Node11 -->
<g id="node11" class="node">
<title>Node11</title>
<g id="a_node11"><a xlink:href="window__manager__tools_8h.html" target="_top" xlink:title=" ">
<polygon fill="white" stroke="black" points="440,-201.5 440,-231.5 570,-231.5 570,-201.5 440,-201.5"/>
<text text-anchor="start" x="448" y="-219.5" font-family="Arial" font-size="10.00">include/miral/miral</text>
<text text-anchor="middle" x="505" y="-208.5" font-family="Arial" font-size="10.00">/window_manager_tools.h</text>
</a>
</g>
</g>
<!-- Node2&#45;&gt;Node11 -->
<g id="edge40" class="edge">
<title>Node2&#45;&gt;Node11</title>
<path fill="none" stroke="midnightblue" d="M425.6,-537.28C419.99,-509.92 412,-464 412,-424 412,-424 412,-424 412,-349.5 412,-298.76 458.49,-253.78 485.73,-231.79"/>
<polygon fill="midnightblue" stroke="midnightblue" points="422.19,-538.08 427.69,-547.14 429.04,-536.63 422.19,-538.08"/>
</g>
<!-- Node19 -->
<g id="node19" class="node">
<title>Node19</title>
<g id="a_node19"><a xlink:href="window__management__policy_8h.html" target="_top" xlink:title=" ">
<polygon fill="white" stroke="black" points="270,-201.5 270,-231.5 422,-231.5 422,-201.5 270,-201.5"/>
<text text-anchor="start" x="278" y="-219.5" font-family="Arial" font-size="10.00">include/miral/miral</text>
<text text-anchor="middle" x="346" y="-208.5" font-family="Arial" font-size="10.00">/window_management_policy.h</text>
</a>
</g>
</g>
<!-- Node2&#45;&gt;Node19 -->
<g id="edge39" class="edge">
<title>Node2&#45;&gt;Node19</title>
<path fill="none" stroke="midnightblue" d="M408.72,-540.27C384.74,-515.03 350,-470.45 350,-424 350,-424 350,-424 350,-349.5 350,-306.63 347.87,-255.96 346.72,-231.75"/>
<polygon fill="midnightblue" stroke="midnightblue" points="406.27,-542.77 415.76,-547.46 411.27,-537.87 406.27,-542.77"/>
</g>
<!-- Node20 -->
<g id="node20" class="node">
<title>Node20</title>
<g id="a_node20"><a xlink:href="window__specification_8h.html" target="_top" xlink:title=" ">
<polygon fill="white" stroke="black" points="440.5,-335.5 440.5,-365.5 561.5,-365.5 561.5,-335.5 440.5,-335.5"/>
<text text-anchor="start" x="448.5" y="-353.5" font-family="Arial" font-size="10.00">include/miral/miral</text>
<text text-anchor="middle" x="501" y="-342.5" font-family="Arial" font-size="10.00">/window_specification.h</text>
</a>
</g>
</g>
<!-- Node2&#45;&gt;Node20 -->
<g id="edge41" class="edge">
<title>Node2&#45;&gt;Node20</title>
<path fill="none" stroke="midnightblue" d="M434.23,-537.17C439.05,-505.2 449.69,-447.75 469,-402 474.49,-388.99 483.18,-375.56 490.12,-365.81"/>
<polygon fill="midnightblue" stroke="midnightblue" points="430.73,-536.96 432.77,-547.36 437.66,-537.96 430.73,-536.96"/>
</g>
<!-- Node4 -->
<g id="node4" class="node">
<title>Node4</title>
<g id="a_node4"><a xlink:href="tiling__window__manager_8cpp.html" target="_top" xlink:title=" ">
<polygon fill="white" stroke="black" points="717,-67.5 717,-97.5 869,-97.5 869,-67.5 717,-67.5"/>
<text text-anchor="start" x="725" y="-85.5" font-family="Arial" font-size="10.00">examples/example&#45;server</text>
<text text-anchor="middle" x="793" y="-74.5" font-family="Arial" font-size="10.00">&#45;lib/tiling_window_manager.cpp</text>
</a>
</g>
</g>
<!-- Node3&#45;&gt;Node4 -->
<g id="edge3" class="edge">
<title>Node3&#45;&gt;Node4</title>
<path fill="none" stroke="midnightblue" d="M151.99,-133.96C365.34,-107.11 421.58,-115.35 632,-98 659.69,-95.72 690.04,-93.03 716.85,-90.6"/>
<polygon fill="midnightblue" stroke="midnightblue" points="151.52,-130.49 142.04,-135.23 152.4,-137.44 151.52,-130.49"/>
</g>
<!-- Node5 -->
<g id="node5" class="node">
<title>Node5</title>
<g id="a_node5"><a xlink:href="shell__main_8cpp.html" target="_top" xlink:title=" ">
<polygon fill="white" stroke="black" points="18,-0.5 18,-30.5 124,-30.5 124,-0.5 18,-0.5"/>
<text text-anchor="start" x="26" y="-18.5" font-family="Arial" font-size="10.00">examples/miral&#45;shell</text>
<text text-anchor="middle" x="71" y="-7.5" font-family="Arial" font-size="10.00">/shell_main.cpp</text>
</a>
</g>
</g>
<!-- Node3&#45;&gt;Node5 -->
<g id="edge4" class="edge">
<title>Node3&#45;&gt;Node5</title>
<path fill="none" stroke="midnightblue" d="M71,-124.02C71,-96.51 71,-52.79 71,-30.52"/>
<polygon fill="midnightblue" stroke="midnightblue" points="67.5,-124.37 71,-134.37 74.5,-124.37 67.5,-124.37"/>
</g>
<!-- Node6&#45;&gt;Node7 -->
<g id="edge6" class="edge">
<title>Node6&#45;&gt;Node7</title>
<path fill="none" stroke="midnightblue" d="M644.23,-475.72C621.08,-463.89 591.69,-448.87 570.55,-438.07"/>
<polygon fill="midnightblue" stroke="midnightblue" points="642.91,-478.97 653.41,-480.4 646.09,-472.74 642.91,-478.97"/>
</g>
<!-- Node21 -->
<g id="node21" class="node">
<title>Node21</title>
<g id="a_node21"><a xlink:href="output_8h.html" target="_top" xlink:title=" ">
<polygon fill="white" stroke="black" points="875.5,-408 875.5,-438 970.5,-438 970.5,-408 875.5,-408"/>
<text text-anchor="start" x="883.5" y="-426" font-family="Arial" font-size="10.00">include/miral/miral</text>
<text text-anchor="middle" x="923" y="-415" font-family="Arial" font-size="10.00">/output.h</text>
</a>
</g>
</g>
<!-- Node6&#45;&gt;Node21 -->
<g id="edge33" class="edge">
<title>Node6&#45;&gt;Node21</title>
<path fill="none" stroke="midnightblue" d="M746.13,-477.93C781.72,-468.57 826.49,-456.31 866,-444 871.91,-442.16 878.12,-440.11 884.18,-438.03"/>
<polygon fill="midnightblue" stroke="midnightblue" points="745.13,-474.57 736.34,-480.49 746.9,-481.35 745.13,-474.57"/>
</g>
<!-- Node22 -->
<g id="node22" class="node">
<title>Node22</title>
<g id="a_node22"><a xlink:href="zone_8h.html" target="_top" xlink:title=" ">
<polygon fill="white" stroke="black" points="963.5,-134.5 963.5,-164.5 1058.5,-164.5 1058.5,-134.5 963.5,-134.5"/>
<text text-anchor="start" x="971.5" y="-152.5" font-family="Arial" font-size="10.00">include/miral/miral</text>
<text text-anchor="middle" x="1011" y="-141.5" font-family="Arial" font-size="10.00">/zone.h</text>
</a>
</g>
</g>
<!-- Node6&#45;&gt;Node22 -->
<g id="edge34" class="edge">
<title>Node6&#45;&gt;Node22</title>
<path fill="none" stroke="midnightblue" d="M755.75,-486.3C838.99,-476.48 964.01,-459.44 980,-444 1010.2,-414.85 999,-393.47 999,-351.5 999,-351.5 999,-351.5 999,-282.5 999,-239.47 1005.4,-188.87 1008.85,-164.72"/>
<polygon fill="midnightblue" stroke="midnightblue" points="755.35,-482.82 745.82,-487.46 756.16,-489.78 755.35,-482.82"/>
</g>
<!-- Node23 -->
<g id="node23" class="node">
<title>Node23</title>
<g id="a_node23"><a xlink:href="display__configuration__storage_8h.html" target="_top" xlink:title=" ">
<polygon fill="white" stroke="black" points="625.5,-402.5 625.5,-443.5 736.5,-443.5 736.5,-402.5 625.5,-402.5"/>
<text text-anchor="start" x="633.5" y="-431.5" font-family="Arial" font-size="10.00">include/miroil/miroil</text>
<text text-anchor="start" x="633.5" y="-420.5" font-family="Arial" font-size="10.00">/display_configuration</text>
<text text-anchor="middle" x="681" y="-409.5" font-family="Arial" font-size="10.00">_storage.h</text>
</a>
</g>
</g>
<!-- Node6&#45;&gt;Node23 -->
<g id="edge37" class="edge">
<title>Node6&#45;&gt;Node23</title>
<path fill="none" stroke="midnightblue" d="M681,-469.98C681,-461.35 681,-451.76 681,-443.59"/>
<polygon fill="midnightblue" stroke="midnightblue" points="677.5,-470.23 681,-480.23 684.5,-470.23 677.5,-470.23"/>
</g>
<!-- Node24 -->
<g id="node24" class="node">
<title>Node24</title>
<g id="a_node24"><a xlink:href="surface__observer_8h.html" target="_top" xlink:title=" ">
<polygon fill="white" stroke="black" points="754.5,-408 754.5,-438 857.5,-438 857.5,-408 754.5,-408"/>
<text text-anchor="start" x="762.5" y="-426" font-family="Arial" font-size="10.00">include/miroil/miroil</text>
<text text-anchor="middle" x="806" y="-415" font-family="Arial" font-size="10.00">/surface_observer.h</text>
</a>
</g>
</g>
<!-- Node6&#45;&gt;Node24 -->
<g id="edge38" class="edge">
<title>Node6&#45;&gt;Node24</title>
<path fill="none" stroke="midnightblue" d="M714.87,-475.4C735.75,-463.62 762.07,-448.78 781.05,-438.07"/>
<polygon fill="midnightblue" stroke="midnightblue" points="712.99,-472.44 706,-480.4 716.42,-478.54 712.99,-472.44"/>
</g>
<!-- Node8 -->
<g id="node8" class="node">
<title>Node8</title>
<g id="a_node8"><a xlink:href="window__info_8h.html" target="_top" xlink:title=" ">
<polygon fill="white" stroke="black" points="745.5,-268.5 745.5,-298.5 840.5,-298.5 840.5,-268.5 745.5,-268.5"/>
<text text-anchor="start" x="753.5" y="-286.5" font-family="Arial" font-size="10.00">include/miral/miral</text>
<text text-anchor="middle" x="793" y="-275.5" font-family="Arial" font-size="10.00">/window_info.h</text>
</a>
</g>
</g>
<!-- Node7&#45;&gt;Node8 -->
<g id="edge7" class="edge">
<title>Node7&#45;&gt;Node8</title>
<path fill="none" stroke="midnightblue" d="M577.8,-402.86C628.67,-374.88 722.21,-323.43 767.33,-298.62"/>
<polygon fill="midnightblue" stroke="midnightblue" points="575.89,-399.92 568.81,-407.8 579.26,-406.05 575.89,-399.92"/>
</g>
<!-- Node7&#45;&gt;Node19 -->
<g id="edge27" class="edge">
<title>Node7&#45;&gt;Node19</title>
<path fill="none" stroke="midnightblue" d="M559.83,-399.31C571.2,-380.98 582.11,-355.03 570,-335 535.4,-277.79 462.73,-247.07 409.51,-231.56"/>
<polygon fill="midnightblue" stroke="midnightblue" points="556.75,-397.61 554.14,-407.88 562.59,-401.48 556.75,-397.61"/>
</g>
<!-- Node7&#45;&gt;Node20 -->
<g id="edge31" class="edge">
<title>Node7&#45;&gt;Node20</title>
<path fill="none" stroke="midnightblue" d="M529.33,-399.06C522.8,-388.09 515.18,-375.3 509.49,-365.75"/>
<polygon fill="midnightblue" stroke="midnightblue" points="526.38,-400.93 534.5,-407.73 532.39,-397.35 526.38,-400.93"/>
</g>
<!-- Node8&#45;&gt;Node4 -->
<g id="edge9" class="edge">
<title>Node8&#45;&gt;Node4</title>
<path fill="none" stroke="midnightblue" d="M793,-258C793,-215.93 793,-131.26 793,-97.68"/>
<polygon fill="midnightblue" stroke="midnightblue" points="789.5,-258.19 793,-268.19 796.5,-258.19 789.5,-258.19"/>
</g>
<!-- Node9 -->
<g id="node9" class="node">
<title>Node9</title>
<g id="a_node9"><a xlink:href="floating__window__manager_8cpp.html" target="_top" xlink:title=" ">
<polygon fill="white" stroke="black" points="607,-0.5 607,-30.5 771,-30.5 771,-0.5 607,-0.5"/>
<text text-anchor="start" x="615" y="-18.5" font-family="Arial" font-size="10.00">examples/example&#45;server</text>
<text text-anchor="middle" x="689" y="-7.5" font-family="Arial" font-size="10.00">&#45;lib/floating_window_manager.cpp</text>
</a>
</g>
</g>
<!-- Node8&#45;&gt;Node9 -->
<g id="edge8" class="edge">
<title>Node8&#45;&gt;Node9</title>
<path fill="none" stroke="midnightblue" d="M850.23,-272.23C873.14,-265.01 897.31,-252.75 911,-232 951.38,-170.79 956.74,-124.32 911,-67 893.46,-45.03 826.87,-31.88 771.15,-24.54"/>
<polygon fill="midnightblue" stroke="midnightblue" points="849.16,-268.9 840.52,-275.03 851.1,-275.62 849.16,-268.9"/>
</g>
<!-- Node10 -->
<g id="node10" class="node">
<title>Node10</title>
<g id="a_node10"><a xlink:href="kiosk__window__manager_8cpp.html" target="_top" xlink:title=" ">
<polygon fill="white" stroke="black" points="387.5,-0.5 387.5,-30.5 530.5,-30.5 530.5,-0.5 387.5,-0.5"/>
<text text-anchor="start" x="395.5" y="-18.5" font-family="Arial" font-size="10.00">examples/miral&#45;kiosk</text>
<text text-anchor="middle" x="459" y="-7.5" font-family="Arial" font-size="10.00">/kiosk_window_manager.cpp</text>
</a>
</g>
</g>
<!-- Node8&#45;&gt;Node10 -->
<g id="edge10" class="edge">
<title>Node8&#45;&gt;Node10</title>
<path fill="none" stroke="midnightblue" d="M814.65,-260.97C854.26,-219.03 929.76,-125.38 878,-67 872.29,-60.56 649,-36.34 530.78,-23.93"/>
<polygon fill="midnightblue" stroke="midnightblue" points="811.9,-258.78 807.49,-268.41 816.94,-263.64 811.9,-258.78"/>
</g>
<!-- Node8&#45;&gt;Node11 -->
<g id="edge11" class="edge">
<title>Node8&#45;&gt;Node11</title>
<path fill="none" stroke="midnightblue" d="M735.39,-269.5C686.72,-258.51 617.17,-242.82 567.23,-231.55"/>
<polygon fill="midnightblue" stroke="midnightblue" points="734.92,-272.98 745.44,-271.77 736.46,-266.15 734.92,-272.98"/>
</g>
<!-- Node11&#45;&gt;Node3 -->
<g id="edge17" class="edge">
<title>Node11&#45;&gt;Node3</title>
<path fill="none" stroke="midnightblue" d="M429.77,-200.86C305.46,-181.08 271.84,-183.71 151,-165 148.07,-164.55 145.08,-164.07 142.07,-163.58"/>
<polygon fill="midnightblue" stroke="midnightblue" points="429.24,-204.33 439.67,-202.46 430.35,-197.41 429.24,-204.33"/>
</g>
<!-- Node11&#45;&gt;Node4 -->
<g id="edge16" class="edge">
<title>Node11&#45;&gt;Node4</title>
<path fill="none" stroke="midnightblue" d="M580.4,-205.15C618.75,-197.74 665.13,-185.34 703,-165 735.5,-147.55 765.62,-115.87 781.43,-97.57"/>
<polygon fill="midnightblue" stroke="midnightblue" points="579.52,-201.76 570.32,-207.03 580.79,-208.64 579.52,-201.76"/>
</g>
<!-- Node11&#45;&gt;Node9 -->
<g id="edge15" class="edge">
<title>Node11&#45;&gt;Node9</title>
<path fill="none" stroke="midnightblue" d="M580.14,-208.87C610.71,-202.31 643.78,-189.56 665,-165 698.47,-126.27 694.76,-59.8 691.18,-30.77"/>
<polygon fill="midnightblue" stroke="midnightblue" points="579.46,-205.44 570.31,-210.79 580.8,-212.31 579.46,-205.44"/>
</g>
<!-- Node11&#45;&gt;Node10 -->
<g id="edge18" class="edge">
<title>Node11&#45;&gt;Node10</title>
<path fill="none" stroke="midnightblue" d="M499.4,-191.27C489.7,-149.29 470.06,-64.33 462.28,-30.68"/>
<polygon fill="midnightblue" stroke="midnightblue" points="496.03,-192.23 501.69,-201.19 502.85,-190.66 496.03,-192.23"/>
</g>
<!-- Node12 -->
<g id="node12" class="node">
<title>Node12</title>
<g id="a_node12"><a xlink:href="decoration__provider_8h.html" target="_top" xlink:title=" ">
<polygon fill="white" stroke="black" points="528,-134.5 528,-164.5 656,-164.5 656,-134.5 528,-134.5"/>
<text text-anchor="start" x="536" y="-152.5" font-family="Arial" font-size="10.00">examples/example&#45;server</text>
<text text-anchor="middle" x="592" y="-141.5" font-family="Arial" font-size="10.00">&#45;lib/decoration_provider.h</text>
</a>
</g>
</g>
<!-- Node11&#45;&gt;Node12 -->
<g id="edge12" class="edge">
<title>Node11&#45;&gt;Node12</title>
<path fill="none" stroke="midnightblue" d="M532.21,-195.17C545.52,-185.23 561.2,-173.51 573.16,-164.58"/>
<polygon fill="midnightblue" stroke="midnightblue" points="529.79,-192.61 523.88,-201.4 533.98,-198.21 529.79,-192.61"/>
</g>
<!-- Node14 -->
<g id="node14" class="node">
<title>Node14</title>
<g id="a_node14"><a xlink:href="canonical__window__manager_8h.html" target="_top" xlink:title=" ">
<polygon fill="white" stroke="black" points="160,-134.5 160,-164.5 310,-164.5 310,-134.5 160,-134.5"/>
<text text-anchor="start" x="168" y="-152.5" font-family="Arial" font-size="10.00">include/miral/miral</text>
<text text-anchor="middle" x="235" y="-141.5" font-family="Arial" font-size="10.00">/canonical_window_manager.h</text>
</a>
</g>
</g>
<!-- Node11&#45;&gt;Node14 -->
<g id="edge19" class="edge">
<title>Node11&#45;&gt;Node14</title>
<path fill="none" stroke="midnightblue" d="M436.95,-199.12C392.77,-188.48 335.78,-174.76 293.61,-164.61"/>
<polygon fill="midnightblue" stroke="midnightblue" points="436.2,-202.54 446.75,-201.48 437.84,-195.73 436.2,-202.54"/>
</g>
<!-- Node17 -->
<g id="node17" class="node">
<title>Node17</title>
<g id="a_node17"><a xlink:href="minimal__window__manager_8h.html" target="_top" xlink:title=" ">
<polygon fill="white" stroke="black" points="328.5,-134.5 328.5,-164.5 471.5,-164.5 471.5,-134.5 328.5,-134.5"/>
<text text-anchor="start" x="336.5" y="-152.5" font-family="Arial" font-size="10.00">include/miral/miral</text>
<text text-anchor="middle" x="400" y="-141.5" font-family="Arial" font-size="10.00">/minimal_window_manager.h</text>
</a>
</g>
</g>
<!-- Node11&#45;&gt;Node17 -->
<g id="edge23" class="edge">
<title>Node11&#45;&gt;Node17</title>
<path fill="none" stroke="midnightblue" d="M473.52,-196.02C457.18,-185.9 437.59,-173.77 422.74,-164.58"/>
<polygon fill="midnightblue" stroke="midnightblue" points="471.87,-199.11 482.22,-201.4 475.56,-193.16 471.87,-199.11"/>
</g>
<!-- Node12&#45;&gt;Node9 -->
<g id="edge14" class="edge">
<title>Node12&#45;&gt;Node9</title>
<path fill="none" stroke="midnightblue" d="M610.1,-126.24C617.06,-117.52 625.01,-107.38 632,-98 649.33,-74.73 668.46,-46.91 679.57,-30.52"/>
<polygon fill="midnightblue" stroke="midnightblue" points="607.32,-124.11 603.79,-134.09 612.78,-128.49 607.32,-124.11"/>
</g>
<!-- Node13 -->
<g id="node13" class="node">
<title>Node13</title>
<g id="a_node13"><a xlink:href="decoration__provider_8cpp.html" target="_top" xlink:title=" ">
<polygon fill="white" stroke="black" points="487,-67.5 487,-97.5 623,-97.5 623,-67.5 487,-67.5"/>
<text text-anchor="start" x="495" y="-85.5" font-family="Arial" font-size="10.00">examples/example&#45;server</text>
<text text-anchor="middle" x="555" y="-74.5" font-family="Arial" font-size="10.00">&#45;lib/decoration_provider.cpp</text>
</a>
</g>
</g>
<!-- Node12&#45;&gt;Node13 -->
<g id="edge13" class="edge">
<title>Node12&#45;&gt;Node13</title>
<path fill="none" stroke="midnightblue" d="M578.95,-125.58C573.64,-116.24 567.66,-105.75 563.01,-97.58"/>
<polygon fill="midnightblue" stroke="midnightblue" points="575.98,-127.44 583.97,-134.4 582.07,-123.97 575.98,-127.44"/>
</g>
<!-- Node15 -->
<g id="node15" class="node">
<title>Node15</title>
<g id="a_node15"><a xlink:href="kiosk__window__manager_8h.html" target="_top" xlink:title=" ">
<polygon fill="white" stroke="black" points="127,-67.5 127,-97.5 259,-97.5 259,-67.5 127,-67.5"/>
<text text-anchor="start" x="135" y="-85.5" font-family="Arial" font-size="10.00">examples/miral&#45;kiosk</text>
<text text-anchor="middle" x="193" y="-74.5" font-family="Arial" font-size="10.00">/kiosk_window_manager.h</text>
</a>
</g>
</g>
<!-- Node14&#45;&gt;Node15 -->
<g id="edge20" class="edge">
<title>Node14&#45;&gt;Node15</title>
<path fill="none" stroke="midnightblue" d="M220.38,-125.87C214.3,-116.46 207.43,-105.83 202.1,-97.58"/>
<polygon fill="midnightblue" stroke="midnightblue" points="217.52,-127.9 225.89,-134.4 223.4,-124.1 217.52,-127.9"/>
</g>
<!-- Node15&#45;&gt;Node10 -->
<g id="edge22" class="edge">
<title>Node15&#45;&gt;Node10</title>
<path fill="none" stroke="midnightblue" d="M260.31,-65.05C303.8,-54.43 359.8,-40.74 401.25,-30.61"/>
<polygon fill="midnightblue" stroke="midnightblue" points="259.27,-61.7 250.39,-67.48 260.94,-68.5 259.27,-61.7"/>
</g>
<!-- Node16 -->
<g id="node16" class="node">
<title>Node16</title>
<g id="a_node16"><a xlink:href="kiosk__main_8cpp.html" target="_top" xlink:title=" ">
<polygon fill="white" stroke="black" points="142.5,-0.5 142.5,-30.5 251.5,-30.5 251.5,-0.5 142.5,-0.5"/>
<text text-anchor="start" x="150.5" y="-18.5" font-family="Arial" font-size="10.00">examples/miral&#45;kiosk</text>
<text text-anchor="middle" x="197" y="-7.5" font-family="Arial" font-size="10.00">/kiosk_main.cpp</text>
</a>
</g>
</g>
<!-- Node15&#45;&gt;Node16 -->
<g id="edge21" class="edge">
<title>Node15&#45;&gt;Node16</title>
<path fill="none" stroke="midnightblue" d="M194.48,-57.4C195.04,-48.37 195.65,-38.41 196.13,-30.58"/>
<polygon fill="midnightblue" stroke="midnightblue" points="190.99,-57.2 193.87,-67.4 197.98,-57.63 190.99,-57.2"/>
</g>
<!-- Node18 -->
<g id="node18" class="node">
<title>Node18</title>
<g id="a_node18"><a xlink:href="floating__window__manager_8h.html" target="_top" xlink:title=" ">
<polygon fill="white" stroke="black" points="277.5,-67.5 277.5,-97.5 430.5,-97.5 430.5,-67.5 277.5,-67.5"/>
<text text-anchor="start" x="285.5" y="-85.5" font-family="Arial" font-size="10.00">examples/example&#45;server</text>
<text text-anchor="middle" x="354" y="-74.5" font-family="Arial" font-size="10.00">&#45;lib/floating_window_manager.h</text>
</a>
</g>
</g>
<!-- Node17&#45;&gt;Node18 -->
<g id="edge24" class="edge">
<title>Node17&#45;&gt;Node18</title>
<path fill="none" stroke="midnightblue" d="M384.19,-126.16C377.48,-116.68 369.87,-105.92 363.96,-97.58"/>
<polygon fill="midnightblue" stroke="midnightblue" points="381.38,-128.26 390.02,-134.4 387.1,-124.21 381.38,-128.26"/>
</g>
<!-- Node18&#45;&gt;Node5 -->
<g id="edge26" class="edge">
<title>Node18&#45;&gt;Node5</title>
<path fill="none" stroke="midnightblue" d="M282.2,-65.19C238.96,-55.34 182.8,-42.51 133,-31 130.09,-30.33 127.11,-29.64 124.1,-28.94"/>
<polygon fill="midnightblue" stroke="midnightblue" points="281.53,-68.63 292.06,-67.44 283.09,-61.8 281.53,-68.63"/>
</g>
<!-- Node18&#45;&gt;Node9 -->
<g id="edge25" class="edge">
<title>Node18&#45;&gt;Node9</title>
<path fill="none" stroke="midnightblue" d="M436.38,-65.52C491.57,-54.81 563.56,-40.84 616.56,-30.55"/>
<polygon fill="midnightblue" stroke="midnightblue" points="435.43,-62.14 426.28,-67.48 436.76,-69.01 435.43,-62.14"/>
</g>
<!-- Node19&#45;&gt;Node3 -->
<g id="edge28" class="edge">
<title>Node19&#45;&gt;Node3</title>
<path fill="none" stroke="midnightblue" d="M276.69,-199.12C231.7,-188.48 173.65,-174.76 130.7,-164.61"/>
<polygon fill="midnightblue" stroke="midnightblue" points="276.13,-202.58 286.67,-201.48 277.74,-195.77 276.13,-202.58"/>
</g>
<!-- Node19&#45;&gt;Node14 -->
<g id="edge29" class="edge">
<title>Node19&#45;&gt;Node14</title>
<path fill="none" stroke="midnightblue" d="M313.2,-196.3C295.84,-186.12 274.88,-173.85 259.04,-164.58"/>
<polygon fill="midnightblue" stroke="midnightblue" points="311.52,-199.36 321.91,-201.4 315.05,-193.32 311.52,-199.36"/>
</g>
<!-- Node19&#45;&gt;Node17 -->
<g id="edge30" class="edge">
<title>Node19&#45;&gt;Node17</title>
<path fill="none" stroke="midnightblue" d="M364.32,-193.45C372.25,-183.9 381.3,-173 388.31,-164.58"/>
<polygon fill="midnightblue" stroke="midnightblue" points="361.42,-191.47 357.72,-201.4 366.8,-195.94 361.42,-191.47"/>
</g>
<!-- Node20&#45;&gt;Node8 -->
<g id="edge32" class="edge">
<title>Node20&#45;&gt;Node8</title>
<path fill="none" stroke="midnightblue" d="M571.32,-333.85C625.11,-321.87 697.86,-305.68 745.1,-295.16"/>
<polygon fill="midnightblue" stroke="midnightblue" points="570.5,-330.44 561.5,-336.03 572.02,-337.28 570.5,-330.44"/>
</g>
<!-- Node22&#45;&gt;Node4 -->
<g id="edge36" class="edge">
<title>Node22&#45;&gt;Node4</title>
<path fill="none" stroke="midnightblue" d="M954.25,-131.58C918.84,-121.02 873.8,-107.59 840.33,-97.61"/>
<polygon fill="midnightblue" stroke="midnightblue" points="953.38,-134.97 963.97,-134.48 955.38,-128.26 953.38,-134.97"/>
</g>
<!-- Node22&#45;&gt;Node9 -->
<g id="edge35" class="edge">
<title>Node22&#45;&gt;Node9</title>
<path fill="none" stroke="midnightblue" d="M999.68,-125.6C989.17,-106.83 971.73,-81.13 949,-67 895.69,-33.86 825.31,-21.71 771.22,-17.58"/>
<polygon fill="midnightblue" stroke="midnightblue" points="996.6,-127.27 1004.41,-134.44 1002.77,-123.97 996.6,-127.27"/>
</g>
<!-- Node25&#45;&gt;Node8 -->
<g id="edge45" class="edge">
<title>Node25&#45;&gt;Node8</title>
<path fill="none" stroke="midnightblue" d="M955.58,-474.04C965.27,-465.96 974.76,-455.77 980,-444 987.59,-426.94 989.03,-418.34 980,-402 950.05,-347.8 883.46,-315.22 838.39,-298.56"/>
<polygon fill="midnightblue" stroke="midnightblue" points="953.23,-471.43 947.47,-480.32 957.52,-476.96 953.23,-471.43"/>
</g>
</g>
</svg>
