<?xml version="1.0" encoding="UTF-8" standalone="no"?>
<!DOCTYPE svg PUBLIC "-//W3C//DTD SVG 1.1//EN"
 "http://www.w3.org/Graphics/SVG/1.1/DTD/svg11.dtd">
<!-- Generated by graphviz version 2.43.0 (0)
 -->
<!-- Title: include/core/mir/geometry/point.h Pages: 1 -->
<svg width="254pt" height="207pt"
 viewBox="0.00 0.00 254.00 207.00" xmlns="http://www.w3.org/2000/svg" xmlns:xlink="http://www.w3.org/1999/xlink">
<g id="graph0" class="graph" transform="scale(1 1) rotate(0) translate(4 203)">
<title>include/core/mir/geometry/point.h</title>
<polygon fill="white" stroke="transparent" points="-4,4 -4,-203 250,-203 250,4 -4,4"/>
<!-- Node1 -->
<g id="node1" class="node">
<title>Node1</title>
<g id="a_node1"><a xlink:title=" ">
<polygon fill="#bfbfbf" stroke="black" points="60.5,-168.5 60.5,-198.5 189.5,-198.5 189.5,-168.5 60.5,-168.5"/>
<text text-anchor="start" x="68.5" y="-186.5" font-family="Arial" font-size="10.00">include/core/mir/geometry</text>
<text text-anchor="middle" x="125" y="-175.5" font-family="Arial" font-size="10.00">/point.h</text>
</a>
</g>
</g>
<!-- Node2 -->
<g id="node2" class="node">
<title>Node2</title>
<g id="a_node2"><a xlink:href="point__generic_8h.html" target="_top" xlink:title=" ">
<polygon fill="white" stroke="black" points="35.5,-112.5 35.5,-131.5 118.5,-131.5 118.5,-112.5 35.5,-112.5"/>
<text text-anchor="middle" x="77" y="-119.5" font-family="Arial" font-size="10.00">point_generic.h</text>
</a>
</g>
</g>
<!-- Node1&#45;&gt;Node2 -->
<g id="edge1" class="edge">
<title>Node1&#45;&gt;Node2</title>
<path fill="none" stroke="midnightblue" d="M113.62,-168.4C106.65,-159.75 97.69,-148.64 90.37,-139.58"/>
<polygon fill="midnightblue" stroke="midnightblue" points="92.99,-137.24 83.98,-131.66 87.54,-141.64 92.99,-137.24"/>
</g>
<!-- Node7 -->
<g id="node7" class="node">
<title>Node7</title>
<g id="a_node7"><a xlink:href="dimensions_8h.html" target="_top" xlink:title=" ">
<polygon fill="white" stroke="black" points="137,-112.5 137,-131.5 211,-131.5 211,-112.5 137,-112.5"/>
<text text-anchor="middle" x="174" y="-119.5" font-family="Arial" font-size="10.00">dimensions.h</text>
</a>
</g>
</g>
<!-- Node1&#45;&gt;Node7 -->
<g id="edge6" class="edge">
<title>Node1&#45;&gt;Node7</title>
<path fill="none" stroke="midnightblue" d="M136.61,-168.4C143.73,-159.75 152.88,-148.64 160.35,-139.58"/>
<polygon fill="midnightblue" stroke="midnightblue" points="163.21,-141.6 166.87,-131.66 157.81,-137.15 163.21,-141.6"/>
</g>
<!-- Node3 -->
<g id="node3" class="node">
<title>Node3</title>
<g id="a_node3"><a xlink:href="dimensions__generic_8h.html" target="_top" xlink:title=" ">
<polygon fill="white" stroke="black" points="70.5,-56.5 70.5,-75.5 181.5,-75.5 181.5,-56.5 70.5,-56.5"/>
<text text-anchor="middle" x="126" y="-63.5" font-family="Arial" font-size="10.00">dimensions_generic.h</text>
</a>
</g>
</g>
<!-- Node2&#45;&gt;Node3 -->
<g id="edge2" class="edge">
<title>Node2&#45;&gt;Node3</title>
<path fill="none" stroke="midnightblue" d="M85.09,-112.08C92.16,-104.3 102.59,-92.8 111.15,-83.37"/>
<polygon fill="midnightblue" stroke="midnightblue" points="113.93,-85.51 118.06,-75.75 108.75,-80.8 113.93,-85.51"/>
</g>
<!-- Node6 -->
<g id="node6" class="node">
<title>Node6</title>
<g id="a_node6"><a xlink:title=" ">
<polygon fill="white" stroke="#bfbfbf" points="0,-56.5 0,-75.5 52,-75.5 52,-56.5 0,-56.5"/>
<text text-anchor="middle" x="26" y="-63.5" font-family="Arial" font-size="10.00">ostream</text>
</a>
</g>
</g>
<!-- Node2&#45;&gt;Node6 -->
<g id="edge5" class="edge">
<title>Node2&#45;&gt;Node6</title>
<path fill="none" stroke="midnightblue" d="M68.58,-112.08C61.15,-104.22 50.15,-92.57 41.19,-83.08"/>
<polygon fill="midnightblue" stroke="midnightblue" points="43.68,-80.62 34.26,-75.75 38.59,-85.42 43.68,-80.62"/>
</g>
<!-- Node4 -->
<g id="node4" class="node">
<title>Node4</title>
<g id="a_node4"><a xlink:title=" ">
<polygon fill="white" stroke="#bfbfbf" points="67.5,-0.5 67.5,-19.5 112.5,-19.5 112.5,-0.5 67.5,-0.5"/>
<text text-anchor="middle" x="90" y="-7.5" font-family="Arial" font-size="10.00">iosfwd</text>
</a>
</g>
</g>
<!-- Node3&#45;&gt;Node4 -->
<g id="edge3" class="edge">
<title>Node3&#45;&gt;Node4</title>
<path fill="none" stroke="midnightblue" d="M120.06,-56.08C115.02,-48.53 107.66,-37.49 101.49,-28.23"/>
<polygon fill="midnightblue" stroke="midnightblue" points="104.29,-26.13 95.83,-19.75 98.47,-30.01 104.29,-26.13"/>
</g>
<!-- Node5 -->
<g id="node5" class="node">
<title>Node5</title>
<g id="a_node5"><a xlink:title=" ">
<polygon fill="white" stroke="#bfbfbf" points="131,-0.5 131,-19.5 193,-19.5 193,-0.5 131,-0.5"/>
<text text-anchor="middle" x="162" y="-7.5" font-family="Arial" font-size="10.00">type_traits</text>
</a>
</g>
</g>
<!-- Node3&#45;&gt;Node5 -->
<g id="edge4" class="edge">
<title>Node3&#45;&gt;Node5</title>
<path fill="none" stroke="midnightblue" d="M131.94,-56.08C136.98,-48.53 144.34,-37.49 150.51,-28.23"/>
<polygon fill="midnightblue" stroke="midnightblue" points="153.53,-30.01 156.17,-19.75 147.71,-26.13 153.53,-30.01"/>
</g>
<!-- Node7&#45;&gt;Node3 -->
<g id="edge7" class="edge">
<title>Node7&#45;&gt;Node3</title>
<path fill="none" stroke="midnightblue" d="M166.07,-112.08C159.15,-104.3 148.93,-92.8 140.55,-83.37"/>
<polygon fill="midnightblue" stroke="midnightblue" points="143.04,-80.9 133.78,-75.75 137.81,-85.55 143.04,-80.9"/>
</g>
<!-- Node8 -->
<g id="node8" class="node">
<title>Node8</title>
<g id="a_node8"><a xlink:title=" ">
<polygon fill="white" stroke="#bfbfbf" points="200,-56.5 200,-75.5 246,-75.5 246,-56.5 200,-56.5"/>
<text text-anchor="middle" x="223" y="-63.5" font-family="Arial" font-size="10.00">cstdint</text>
</a>
</g>
</g>
<!-- Node7&#45;&gt;Node8 -->
<g id="edge8" class="edge">
<title>Node7&#45;&gt;Node8</title>
<path fill="none" stroke="midnightblue" d="M182.09,-112.08C189.16,-104.3 199.59,-92.8 208.15,-83.37"/>
<polygon fill="midnightblue" stroke="midnightblue" points="210.93,-85.51 215.06,-75.75 205.75,-80.8 210.93,-85.51"/>
</g>
</g>
</svg>
