<?xml version="1.0" encoding="UTF-8" standalone="no"?>
<!DOCTYPE svg PUBLIC "-//W3C//DTD SVG 1.1//EN"
 "http://www.w3.org/Graphics/SVG/1.1/DTD/svg11.dtd">
<!-- Generated by graphviz version 2.38.0 (20140413.2041)
 -->
<!-- Title: include/test/mir/test/popen.h Pages: 1 -->
<svg width="181pt" height="95pt"
 viewBox="0.00 0.00 181.00 95.00" xmlns="http://www.w3.org/2000/svg" xmlns:xlink="http://www.w3.org/1999/xlink">
<g id="graph0" class="graph" transform="scale(1 1) rotate(0) translate(4 91)">
<title>include/test/mir/test/popen.h</title>
<polygon fill="white" stroke="none" points="-4,4 -4,-91 177,-91 177,4 -4,4"/>
<!-- Node0 -->
<g id="node1" class="node"><title>Node0</title>
<polygon fill="#bfbfbf" stroke="black" points="36,-56.5 36,-86.5 139,-86.5 139,-56.5 36,-56.5"/>
<text text-anchor="start" x="44" y="-74.5" font-family="Arial" font-size="10.00">include/test/mir/test</text>
<text text-anchor="middle" x="87.5" y="-63.5" font-family="Arial" font-size="10.00">/popen.h</text>
</g>
<!-- Node1 -->
<g id="node2" class="node"><title>Node1</title>
<polygon fill="white" stroke="#bfbfbf" points="0,-0.5 0,-19.5 43,-19.5 43,-0.5 0,-0.5"/>
<text text-anchor="middle" x="21.5" y="-7.5" font-family="Arial" font-size="10.00">cstdio</text>
</g>
<!-- Node0&#45;&gt;Node1 -->
<g id="edge1" class="edge"><title>Node0&#45;&gt;Node1</title>
<path fill="none" stroke="midnightblue" d="M71.8589,-56.3993C61.8728,-47.3967 48.922,-35.7214 38.6546,-26.4652"/>
<polygon fill="midnightblue" stroke="midnightblue" points="40.8745,-23.7541 31.1036,-19.6578 36.1874,-28.9533 40.8745,-23.7541"/>
</g>
<!-- Node2 -->
<g id="node3" class="node"><title>Node2</title>
<polygon fill="white" stroke="#bfbfbf" points="61.5,-0.5 61.5,-19.5 113.5,-19.5 113.5,-0.5 61.5,-0.5"/>
<text text-anchor="middle" x="87.5" y="-7.5" font-family="Arial" font-size="10.00">memory</text>
</g>
<!-- Node0&#45;&gt;Node2 -->
<g id="edge2" class="edge"><title>Node0&#45;&gt;Node2</title>
<path fill="none" stroke="midnightblue" d="M87.5,-56.3993C87.5,-48.4664 87.5,-38.458 87.5,-29.8583"/>
<polygon fill="midnightblue" stroke="midnightblue" points="91.0001,-29.6577 87.5,-19.6578 84.0001,-29.6578 91.0001,-29.6577"/>
</g>
<!-- Node3 -->
<g id="node4" class="node"><title>Node3</title>
<polygon fill="white" stroke="#bfbfbf" points="132,-0.5 132,-19.5 173,-19.5 173,-0.5 132,-0.5"/>
<text text-anchor="middle" x="152.5" y="-7.5" font-family="Arial" font-size="10.00">string</text>
</g>
<!-- Node0&#45;&gt;Node3 -->
<g id="edge3" class="edge"><title>Node0&#45;&gt;Node3</title>
<path fill="none" stroke="midnightblue" d="M102.904,-56.3993C112.739,-47.3967 125.493,-35.7214 135.605,-26.4652"/>
<polygon fill="midnightblue" stroke="midnightblue" points="138.029,-28.9916 143.042,-19.6578 133.302,-23.8282 138.029,-28.9916"/>
</g>
</g>
</svg>
