<?xml version="1.0" encoding="UTF-8" standalone="no"?>
<!DOCTYPE svg PUBLIC "-//W3C//DTD SVG 1.1//EN"
 "http://www.w3.org/Graphics/SVG/1.1/DTD/svg11.dtd">
<!-- Generated by graphviz version 2.38.0 (20140413.2041)
 -->
<!-- Title: include/client/mir_toolkit/events/prompt_session_event.h Pages: 1 -->
<svg width="1535pt" height="318pt"
 viewBox="0.00 0.00 1534.50 318.00" xmlns="http://www.w3.org/2000/svg" xmlns:xlink="http://www.w3.org/1999/xlink">
<g id="graph0" class="graph" transform="scale(1 1) rotate(0) translate(4 314)">
<title>include/client/mir_toolkit/events/prompt_session_event.h</title>
<polygon fill="white" stroke="none" points="-4,4 -4,-314 1530.5,-314 1530.5,4 -4,4"/>
<!-- Node0 -->
<g id="node1" class="node"><title>Node0</title>
<polygon fill="#bfbfbf" stroke="black" points="739.5,-268.5 739.5,-309.5 851.5,-309.5 851.5,-268.5 739.5,-268.5"/>
<text text-anchor="start" x="747.5" y="-297.5" font-family="Arial" font-size="10.00">include/client/mir</text>
<text text-anchor="start" x="747.5" y="-286.5" font-family="Arial" font-size="10.00">_toolkit/events/prompt</text>
<text text-anchor="middle" x="795.5" y="-275.5" font-family="Arial" font-size="10.00">_session_event.h</text>
</g>
<!-- Node1 -->
<g id="node2" class="node"><title>Node1</title>
<g id="a_node2"><a xlink:href="toolkit_2events_2event_8h.html" target="_top" xlink:title="mir_toolkit/events\l/event.h">
<polygon fill="white" stroke="black" points="749.5,-201.5 749.5,-231.5 841.5,-231.5 841.5,-201.5 749.5,-201.5"/>
<text text-anchor="start" x="757.5" y="-219.5" font-family="Arial" font-size="10.00">mir_toolkit/events</text>
<text text-anchor="middle" x="795.5" y="-208.5" font-family="Arial" font-size="10.00">/event.h</text>
</a>
</g>
</g>
<!-- Node0&#45;&gt;Node1 -->
<g id="edge1" class="edge"><title>Node0&#45;&gt;Node1</title>
<path fill="none" stroke="midnightblue" d="M789.377,-268.362C788.679,-260.226 788.564,-250.7 789.031,-242.105"/>
<polygon fill="midnightblue" stroke="midnightblue" points="792.54,-242.161 789.935,-231.892 785.567,-241.544 792.54,-242.161"/>
</g>
<!-- Node1&#45;&gt;Node0 -->
<g id="edge27" class="edge"><title>Node1&#45;&gt;Node0</title>
<path fill="none" stroke="midnightblue" d="M801.065,-231.892C802.056,-239.532 802.426,-249.214 802.173,-258.376"/>
<polygon fill="midnightblue" stroke="midnightblue" points="798.678,-258.185 801.623,-268.362 805.668,-258.569 798.678,-258.185"/>
</g>
<!-- Node2 -->
<g id="node3" class="node"><title>Node2</title>
<polygon fill="white" stroke="#bfbfbf" points="0,-134.5 0,-153.5 51,-153.5 51,-134.5 0,-134.5"/>
<text text-anchor="middle" x="25.5" y="-141.5" font-family="Arial" font-size="10.00">stddef.h</text>
</g>
<!-- Node1&#45;&gt;Node2 -->
<g id="edge2" class="edge"><title>Node1&#45;&gt;Node2</title>
<path fill="none" stroke="midnightblue" d="M749.239,-214.668C609.806,-211.79 195.259,-200.404 65.5,-165 59.7886,-163.442 53.9309,-161.037 48.5207,-158.429"/>
<polygon fill="midnightblue" stroke="midnightblue" points="49.877,-155.189 39.394,-153.653 46.6314,-161.391 49.877,-155.189"/>
</g>
<!-- Node3 -->
<g id="node4" class="node"><title>Node3</title>
<polygon fill="white" stroke="#bfbfbf" points="93,-0.5 93,-19.5 142,-19.5 142,-0.5 93,-0.5"/>
<text text-anchor="middle" x="117.5" y="-7.5" font-family="Arial" font-size="10.00">stdint.h</text>
</g>
<!-- Node1&#45;&gt;Node3 -->
<g id="edge3" class="edge"><title>Node1&#45;&gt;Node3</title>
<path fill="none" stroke="midnightblue" d="M749.06,-213.884C613.909,-208.88 227.21,-192.31 177.5,-165 139.404,-144.07 132.601,-128.116 118.5,-87 112.093,-68.318 112.836,-45.5026 114.558,-29.7729"/>
<polygon fill="midnightblue" stroke="midnightblue" points="118.045,-30.107 115.898,-19.732 111.106,-29.1816 118.045,-30.107"/>
</g>
<!-- Node4 -->
<g id="node5" class="node"><title>Node4</title>
<g id="a_node5"><a xlink:href="common_8h.html" target="_top" xlink:title="mir_toolkit/common.h">
<polygon fill="white" stroke="black" points="306.5,-134.5 306.5,-153.5 416.5,-153.5 416.5,-134.5 306.5,-134.5"/>
<text text-anchor="middle" x="361.5" y="-141.5" font-family="Arial" font-size="10.00">mir_toolkit/common.h</text>
</a>
</g>
</g>
<!-- Node1&#45;&gt;Node4 -->
<g id="edge4" class="edge"><title>Node1&#45;&gt;Node4</title>
<path fill="none" stroke="midnightblue" d="M749.321,-211.274C679.693,-204.417 543.906,-189.148 430.5,-165 419.684,-162.697 408.083,-159.59 397.539,-156.512"/>
<polygon fill="midnightblue" stroke="midnightblue" points="398.397,-153.116 387.813,-153.598 396.387,-159.821 398.397,-153.116"/>
</g>
<!-- Node5 -->
<g id="node6" class="node"><title>Node5</title>
<g id="a_node6"><a xlink:href="deprecations_8h.html" target="_top" xlink:title="mir_toolkit/deprecations.h">
<polygon fill="white" stroke="black" points="692.5,-62 692.5,-81 820.5,-81 820.5,-62 692.5,-62"/>
<text text-anchor="middle" x="756.5" y="-69" font-family="Arial" font-size="10.00">mir_toolkit/deprecations.h</text>
</a>
</g>
</g>
<!-- Node1&#45;&gt;Node5 -->
<g id="edge6" class="edge"><title>Node1&#45;&gt;Node5</title>
<path fill="none" stroke="midnightblue" d="M749.177,-215.553C666.738,-214.555 499.79,-207.227 463.5,-165 405.615,-97.6443 531.829,-114.139 682.5,-87 689.586,-85.7236 697.043,-84.3264 704.385,-82.9191"/>
<polygon fill="midnightblue" stroke="midnightblue" points="705.126,-86.3408 714.279,-81.0044 703.796,-79.4683 705.126,-86.3408"/>
</g>
<!-- Node6 -->
<g id="node7" class="node"><title>Node6</title>
<g id="a_node7"><a xlink:href="input__event_8h.html" target="_top" xlink:title="mir_toolkit/events\l/input/input_event.h">
<polygon fill="white" stroke="black" points="187,-129 187,-159 288,-159 288,-129 187,-129"/>
<text text-anchor="start" x="195" y="-147" font-family="Arial" font-size="10.00">mir_toolkit/events</text>
<text text-anchor="middle" x="237.5" y="-136" font-family="Arial" font-size="10.00">/input/input_event.h</text>
</a>
</g>
</g>
<!-- Node1&#45;&gt;Node6 -->
<g id="edge7" class="edge"><title>Node1&#45;&gt;Node6</title>
<path fill="none" stroke="midnightblue" d="M749.427,-214.391C659.52,-211.41 455.46,-200.832 288.5,-165 284.566,-164.156 280.53,-163.144 276.526,-162.029"/>
<polygon fill="midnightblue" stroke="midnightblue" points="277.306,-158.608 266.721,-159.083 275.292,-165.312 277.306,-158.608"/>
</g>
<!-- Node13 -->
<g id="node14" class="node"><title>Node13</title>
<g id="a_node14"><a xlink:href="resize__event_8h.html" target="_top" xlink:title="mir_toolkit/events\l/resize_event.h">
<polygon fill="white" stroke="black" points="472.5,-129 472.5,-159 564.5,-159 564.5,-129 472.5,-129"/>
<text text-anchor="start" x="480.5" y="-147" font-family="Arial" font-size="10.00">mir_toolkit/events</text>
<text text-anchor="middle" x="518.5" y="-136" font-family="Arial" font-size="10.00">/resize_event.h</text>
</a>
</g>
</g>
<!-- Node1&#45;&gt;Node13 -->
<g id="edge18" class="edge"><title>Node1&#45;&gt;Node13</title>
<path fill="none" stroke="midnightblue" d="M749.27,-208.033C702.102,-199.259 627.444,-183.525 564.5,-165 561.713,-164.18 558.862,-163.293 556.01,-162.366"/>
<polygon fill="midnightblue" stroke="midnightblue" points="556.987,-159.001 546.392,-159.089 554.729,-165.627 556.987,-159.001"/>
</g>
<!-- Node14 -->
<g id="node15" class="node"><title>Node14</title>
<g id="a_node15"><a xlink:href="surface__event_8h.html" target="_top" xlink:title="mir_toolkit/events\l/surface_event.h">
<polygon fill="white" stroke="black" points="582.5,-129 582.5,-159 674.5,-159 674.5,-129 582.5,-129"/>
<text text-anchor="start" x="590.5" y="-147" font-family="Arial" font-size="10.00">mir_toolkit/events</text>
<text text-anchor="middle" x="628.5" y="-136" font-family="Arial" font-size="10.00">/surface_event.h</text>
</a>
</g>
</g>
<!-- Node1&#45;&gt;Node14 -->
<g id="edge20" class="edge"><title>Node1&#45;&gt;Node14</title>
<path fill="none" stroke="midnightblue" d="M756.58,-201.403C729.065,-190.404 692.528,-175.044 665.461,-163.13"/>
<polygon fill="midnightblue" stroke="midnightblue" points="666.873,-159.928 656.313,-159.073 664.035,-166.327 666.873,-159.928"/>
</g>
<!-- Node15 -->
<g id="node16" class="node"><title>Node15</title>
<g id="a_node16"><a xlink:href="window__event_8h.html" target="_top" xlink:title="mir_toolkit/events\l/window_event.h">
<polygon fill="white" stroke="black" points="692.5,-129 692.5,-159 784.5,-159 784.5,-129 692.5,-129"/>
<text text-anchor="start" x="700.5" y="-147" font-family="Arial" font-size="10.00">mir_toolkit/events</text>
<text text-anchor="middle" x="738.5" y="-136" font-family="Arial" font-size="10.00">/window_event.h</text>
</a>
</g>
</g>
<!-- Node1&#45;&gt;Node15 -->
<g id="edge23" class="edge"><title>Node1&#45;&gt;Node15</title>
<path fill="none" stroke="midnightblue" d="M778.417,-201.233C769.349,-191.582 758.611,-178.631 750.417,-167.591"/>
<polygon fill="midnightblue" stroke="midnightblue" points="753.125,-165.359 744.472,-159.246 747.424,-169.421 753.125,-165.359"/>
</g>
<!-- Node16 -->
<g id="node17" class="node"><title>Node16</title>
<g id="a_node17"><a xlink:href="orientation__event_8h.html" target="_top" xlink:title="mir_toolkit/events\l/orientation_event.h">
<polygon fill="white" stroke="black" points="803,-129 803,-159 904,-159 904,-129 803,-129"/>
<text text-anchor="start" x="811" y="-147" font-family="Arial" font-size="10.00">mir_toolkit/events</text>
<text text-anchor="middle" x="853.5" y="-136" font-family="Arial" font-size="10.00">/orientation_event.h</text>
</a>
</g>
</g>
<!-- Node1&#45;&gt;Node16 -->
<g id="edge25" class="edge"><title>Node1&#45;&gt;Node16</title>
<path fill="none" stroke="midnightblue" d="M801.689,-201.233C808.562,-191.295 819.373,-177.859 829.441,-166.612"/>
<polygon fill="midnightblue" stroke="midnightblue" points="832.028,-168.969 836.234,-159.246 826.882,-164.224 832.028,-168.969"/>
</g>
<!-- Node17 -->
<g id="node18" class="node"><title>Node17</title>
<g id="a_node18"><a xlink:href="keymap__event_8h.html" target="_top" xlink:title="mir_toolkit/events\l/keymap_event.h">
<polygon fill="white" stroke="black" points="1178.5,-129 1178.5,-159 1270.5,-159 1270.5,-129 1178.5,-129"/>
<text text-anchor="start" x="1186.5" y="-147" font-family="Arial" font-size="10.00">mir_toolkit/events</text>
<text text-anchor="middle" x="1224.5" y="-136" font-family="Arial" font-size="10.00">/keymap_event.h</text>
</a>
</g>
</g>
<!-- Node1&#45;&gt;Node17 -->
<g id="edge28" class="edge"><title>Node1&#45;&gt;Node17</title>
<path fill="none" stroke="midnightblue" d="M841.579,-212.012C911.447,-206.335 1047.58,-192.813 1160.5,-165 1163.86,-164.173 1167.29,-163.213 1170.75,-162.169"/>
<polygon fill="midnightblue" stroke="midnightblue" points="1172.04,-165.431 1180.5,-159.047 1169.91,-158.764 1172.04,-165.431"/>
</g>
<!-- Node18 -->
<g id="node19" class="node"><title>Node18</title>
<g id="a_node19"><a xlink:href="input__configuration__event_8h.html" target="_top" xlink:title="mir_toolkit/events\l/input_configuration\l_event.h">
<polygon fill="white" stroke="black" points="922,-123.5 922,-164.5 1023,-164.5 1023,-123.5 922,-123.5"/>
<text text-anchor="start" x="930" y="-152.5" font-family="Arial" font-size="10.00">mir_toolkit/events</text>
<text text-anchor="start" x="930" y="-141.5" font-family="Arial" font-size="10.00">/input_configuration</text>
<text text-anchor="middle" x="972.5" y="-130.5" font-family="Arial" font-size="10.00">_event.h</text>
</a>
</g>
</g>
<!-- Node1&#45;&gt;Node18 -->
<g id="edge31" class="edge"><title>Node1&#45;&gt;Node18</title>
<path fill="none" stroke="midnightblue" d="M825.367,-201.403C849.163,-191.395 883.104,-177.778 912.428,-166.431"/>
<polygon fill="midnightblue" stroke="midnightblue" points="913.694,-169.694 921.768,-162.834 911.178,-163.162 913.694,-169.694"/>
</g>
<!-- Node19 -->
<g id="node20" class="node"><title>Node19</title>
<g id="a_node20"><a xlink:href="surface__output__event_8h.html" target="_top" xlink:title="mir_toolkit/events\l/surface_output_event.h">
<polygon fill="white" stroke="black" points="1041,-129 1041,-159 1160,-159 1160,-129 1041,-129"/>
<text text-anchor="start" x="1049" y="-147" font-family="Arial" font-size="10.00">mir_toolkit/events</text>
<text text-anchor="middle" x="1100.5" y="-136" font-family="Arial" font-size="10.00">/surface_output_event.h</text>
</a>
</g>
</g>
<!-- Node1&#45;&gt;Node19 -->
<g id="edge34" class="edge"><title>Node1&#45;&gt;Node19</title>
<path fill="none" stroke="midnightblue" d="M841.89,-205.319C888.161,-195.85 960.899,-180.851 1023.5,-165 1027.53,-163.981 1031.67,-162.882 1035.86,-161.744"/>
<polygon fill="midnightblue" stroke="midnightblue" points="1036.95,-165.072 1045.66,-159.032 1035.09,-158.326 1036.95,-165.072"/>
</g>
<!-- Node20 -->
<g id="node21" class="node"><title>Node20</title>
<g id="a_node21"><a xlink:href="window__output__event_8h.html" target="_top" xlink:title="mir_toolkit/events\l/window_output_event.h">
<polygon fill="white" stroke="black" points="1289,-129 1289,-159 1408,-159 1408,-129 1289,-129"/>
<text text-anchor="start" x="1297" y="-147" font-family="Arial" font-size="10.00">mir_toolkit/events</text>
<text text-anchor="middle" x="1348.5" y="-136" font-family="Arial" font-size="10.00">/window_output_event.h</text>
</a>
</g>
</g>
<!-- Node1&#45;&gt;Node20 -->
<g id="edge37" class="edge"><title>Node1&#45;&gt;Node20</title>
<path fill="none" stroke="midnightblue" d="M841.717,-213.134C927.164,-208.388 1114.83,-195.43 1270.5,-165 1275.42,-164.038 1280.5,-162.884 1285.6,-161.623"/>
<polygon fill="midnightblue" stroke="midnightblue" points="1286.59,-164.982 1295.4,-159.088 1284.84,-158.205 1286.59,-164.982"/>
</g>
<!-- Node21 -->
<g id="node22" class="node"><title>Node21</title>
<g id="a_node22"><a xlink:href="input__device__state__event_8h.html" target="_top" xlink:title="mir_toolkit/events\l/input_device_state\l_event.h">
<polygon fill="white" stroke="black" points="1426.5,-123.5 1426.5,-164.5 1526.5,-164.5 1526.5,-123.5 1426.5,-123.5"/>
<text text-anchor="start" x="1434.5" y="-152.5" font-family="Arial" font-size="10.00">mir_toolkit/events</text>
<text text-anchor="start" x="1434.5" y="-141.5" font-family="Arial" font-size="10.00">/input_device_state</text>
<text text-anchor="middle" x="1476.5" y="-130.5" font-family="Arial" font-size="10.00">_event.h</text>
</a>
</g>
</g>
<!-- Node1&#45;&gt;Node21 -->
<g id="edge39" class="edge"><title>Node1&#45;&gt;Node21</title>
<path fill="none" stroke="midnightblue" d="M841.573,-215.574C944.473,-214.811 1199.75,-208.167 1408.5,-165 1411.14,-164.454 1413.82,-163.825 1416.53,-163.134"/>
<polygon fill="midnightblue" stroke="midnightblue" points="1417.67,-166.451 1426.36,-160.399 1415.79,-159.707 1417.67,-166.451"/>
</g>
<!-- Node4&#45;&gt;Node5 -->
<g id="edge5" class="edge"><title>Node4&#45;&gt;Node5</title>
<path fill="none" stroke="midnightblue" d="M387.819,-134.43C400.596,-130.512 416.234,-126.071 430.5,-123 541.104,-99.193 570.95,-105.884 682.5,-87 689.86,-85.7541 697.611,-84.344 705.216,-82.9045"/>
<polygon fill="midnightblue" stroke="midnightblue" points="705.924,-86.3326 715.083,-81.0067 704.601,-79.4586 705.924,-86.3326"/>
</g>
<!-- Node6&#45;&gt;Node1 -->
<g id="edge8" class="edge"><title>Node6&#45;&gt;Node1</title>
<path fill="none" stroke="midnightblue" d="M284.399,-159.083C291.769,-161.351 299.307,-163.456 306.5,-165 461.128,-198.185 647.578,-209.709 739.231,-213.599"/>
<polygon fill="midnightblue" stroke="midnightblue" points="739.264,-217.103 749.399,-214.015 739.55,-210.109 739.264,-217.103"/>
</g>
<!-- Node6&#45;&gt;Node3 -->
<g id="edge11" class="edge"><title>Node6&#45;&gt;Node3</title>
<path fill="none" stroke="midnightblue" d="M195.695,-128.98C175.032,-120.03 151.396,-106.402 136.5,-87 123.849,-70.5215 119.531,-46.6498 118.105,-30.0744"/>
<polygon fill="midnightblue" stroke="midnightblue" points="121.591,-29.7242 117.514,-19.9453 114.603,-30.1323 121.591,-29.7242"/>
</g>
<!-- Node7 -->
<g id="node8" class="node"><title>Node7</title>
<g id="a_node8"><a xlink:href="mir__input__device__types_8h.html" target="_top" xlink:title="mir_toolkit/mir_input\l_device_types.h">
<polygon fill="white" stroke="black" points="145.5,-56.5 145.5,-86.5 249.5,-86.5 249.5,-56.5 145.5,-56.5"/>
<text text-anchor="start" x="153.5" y="-74.5" font-family="Arial" font-size="10.00">mir_toolkit/mir_input</text>
<text text-anchor="middle" x="197.5" y="-63.5" font-family="Arial" font-size="10.00">_device_types.h</text>
</a>
</g>
</g>
<!-- Node6&#45;&gt;Node7 -->
<g id="edge9" class="edge"><title>Node6&#45;&gt;Node7</title>
<path fill="none" stroke="midnightblue" d="M229.405,-128.733C224.038,-119.273 216.872,-106.643 210.691,-95.7486"/>
<polygon fill="midnightblue" stroke="midnightblue" points="213.562,-93.7159 205.583,-86.7455 207.473,-97.1703 213.562,-93.7159"/>
</g>
<!-- Node8 -->
<g id="node9" class="node"><title>Node8</title>
<polygon fill="white" stroke="#bfbfbf" points="351.5,-0.5 351.5,-19.5 407.5,-19.5 407.5,-0.5 351.5,-0.5"/>
<text text-anchor="middle" x="379.5" y="-7.5" font-family="Arial" font-size="10.00">stdbool.h</text>
</g>
<!-- Node6&#45;&gt;Node8 -->
<g id="edge12" class="edge"><title>Node6&#45;&gt;Node8</title>
<path fill="none" stroke="midnightblue" d="M244.372,-128.82C253.948,-110.221 272.826,-77.4367 296.5,-56 311.532,-42.3884 331.42,-31.4231 347.96,-23.7254"/>
<polygon fill="midnightblue" stroke="midnightblue" points="349.546,-26.85 357.249,-19.5754 346.691,-20.4588 349.546,-26.85"/>
</g>
<!-- Node9 -->
<g id="node10" class="node"><title>Node9</title>
<g id="a_node10"><a xlink:href="touch__event_8h.html" target="_top" xlink:title="mir_toolkit/events\l/input/touch_event.h">
<polygon fill="white" stroke="black" points="305.5,-56.5 305.5,-86.5 409.5,-86.5 409.5,-56.5 305.5,-56.5"/>
<text text-anchor="start" x="313.5" y="-74.5" font-family="Arial" font-size="10.00">mir_toolkit/events</text>
<text text-anchor="middle" x="357.5" y="-63.5" font-family="Arial" font-size="10.00">/input/touch_event.h</text>
</a>
</g>
</g>
<!-- Node6&#45;&gt;Node9 -->
<g id="edge13" class="edge"><title>Node6&#45;&gt;Node9</title>
<path fill="none" stroke="midnightblue" d="M261.495,-128.903C279.645,-118.24 304.77,-103.479 324.764,-91.7323"/>
<polygon fill="midnightblue" stroke="midnightblue" points="326.697,-94.6561 333.546,-86.5729 323.151,-88.6206 326.697,-94.6561"/>
</g>
<!-- Node10 -->
<g id="node11" class="node"><title>Node10</title>
<g id="a_node11"><a xlink:href="keyboard__event_8h.html" target="_top" xlink:title="mir_toolkit/events\l/input/keyboard_event.h">
<polygon fill="white" stroke="black" points="555,-56.5 555,-86.5 674,-86.5 674,-56.5 555,-56.5"/>
<text text-anchor="start" x="563" y="-74.5" font-family="Arial" font-size="10.00">mir_toolkit/events</text>
<text text-anchor="middle" x="614.5" y="-63.5" font-family="Arial" font-size="10.00">/input/keyboard_event.h</text>
</a>
</g>
</g>
<!-- Node6&#45;&gt;Node10 -->
<g id="edge14" class="edge"><title>Node6&#45;&gt;Node10</title>
<path fill="none" stroke="midnightblue" d="M276.263,-128.965C283.27,-126.748 290.556,-124.648 297.5,-123 402.8,-98.0165 434.076,-105.971 544.816,-87.0319"/>
<polygon fill="midnightblue" stroke="midnightblue" points="545.456,-90.4732 554.706,-85.306 544.253,-83.5775 545.456,-90.4732"/>
</g>
<!-- Node12 -->
<g id="node13" class="node"><title>Node12</title>
<g id="a_node13"><a xlink:href="pointer__event_8h.html" target="_top" xlink:title="mir_toolkit/events\l/input/pointer_event.h">
<polygon fill="white" stroke="black" points="428,-56.5 428,-86.5 537,-86.5 537,-56.5 428,-56.5"/>
<text text-anchor="start" x="436" y="-74.5" font-family="Arial" font-size="10.00">mir_toolkit/events</text>
<text text-anchor="middle" x="482.5" y="-63.5" font-family="Arial" font-size="10.00">/input/pointer_event.h</text>
</a>
</g>
</g>
<!-- Node6&#45;&gt;Node12 -->
<g id="edge16" class="edge"><title>Node6&#45;&gt;Node12</title>
<path fill="none" stroke="midnightblue" d="M278.718,-128.928C284.992,-126.882 291.405,-124.846 297.5,-123 337.402,-110.914 382.534,-98.5681 418.231,-89.1088"/>
<polygon fill="midnightblue" stroke="midnightblue" points="419.262,-92.4566 428.037,-86.5199 417.475,-85.6885 419.262,-92.4566"/>
</g>
<!-- Node7&#45;&gt;Node3 -->
<g id="edge10" class="edge"><title>Node7&#45;&gt;Node3</title>
<path fill="none" stroke="midnightblue" d="M178.541,-56.3993C166.077,-47.1293 149.803,-35.0254 137.193,-25.6469"/>
<polygon fill="midnightblue" stroke="midnightblue" points="139.253,-22.8173 129.141,-19.6578 135.076,-28.4341 139.253,-22.8173"/>
</g>
<!-- Node11 -->
<g id="node12" class="node"><title>Node11</title>
<polygon fill="white" stroke="#bfbfbf" points="748.5,-0.5 748.5,-19.5 882.5,-19.5 882.5,-0.5 748.5,-0.5"/>
<text text-anchor="middle" x="815.5" y="-7.5" font-family="Arial" font-size="10.00">xkbcommon/xkbcommon.h</text>
</g>
<!-- Node10&#45;&gt;Node11 -->
<g id="edge15" class="edge"><title>Node10&#45;&gt;Node11</title>
<path fill="none" stroke="midnightblue" d="M661.88,-56.4747C697.011,-46.0752 744.294,-32.0783 777.083,-22.3722"/>
<polygon fill="midnightblue" stroke="midnightblue" points="778.169,-25.7009 786.764,-19.5064 776.182,-18.9888 778.169,-25.7009"/>
</g>
<!-- Node12&#45;&gt;Node8 -->
<g id="edge17" class="edge"><title>Node12&#45;&gt;Node8</title>
<path fill="none" stroke="midnightblue" d="M458.09,-56.3993C441.58,-46.8619 419.877,-34.3248 403.462,-24.8422"/>
<polygon fill="midnightblue" stroke="midnightblue" points="404.897,-21.6292 394.487,-19.6578 401.396,-27.6906 404.897,-21.6292"/>
</g>
<!-- Node13&#45;&gt;Node1 -->
<g id="edge19" class="edge"><title>Node13&#45;&gt;Node1</title>
<path fill="none" stroke="midnightblue" d="M564.149,-159.089C570.319,-161.199 576.554,-163.25 582.5,-165 635.156,-180.497 696.009,-194.041 739.236,-203.191"/>
<polygon fill="midnightblue" stroke="midnightblue" points="738.773,-206.67 749.279,-205.305 740.215,-199.82 738.773,-206.67"/>
</g>
<!-- Node14&#45;&gt;Node1 -->
<g id="edge21" class="edge"><title>Node14&#45;&gt;Node1</title>
<path fill="none" stroke="midnightblue" d="M667.359,-159.073C694.861,-170.066 731.397,-185.424 758.478,-197.343"/>
<polygon fill="midnightblue" stroke="midnightblue" points="757.072,-200.548 767.633,-201.403 759.91,-194.149 757.072,-200.548"/>
</g>
<!-- Node14&#45;&gt;Node5 -->
<g id="edge22" class="edge"><title>Node14&#45;&gt;Node5</title>
<path fill="none" stroke="midnightblue" d="M654.095,-128.903C676.821,-116.386 709.799,-98.222 732.143,-85.9156"/>
<polygon fill="midnightblue" stroke="midnightblue" points="733.936,-88.9238 741.006,-81.0336 730.559,-82.7923 733.936,-88.9238"/>
</g>
<!-- Node15&#45;&gt;Node1 -->
<g id="edge24" class="edge"><title>Node15&#45;&gt;Node1</title>
<path fill="none" stroke="midnightblue" d="M755.564,-159.246C764.629,-168.892 775.367,-181.842 783.565,-192.885"/>
<polygon fill="midnightblue" stroke="midnightblue" points="780.86,-195.121 789.514,-201.233 786.56,-191.058 780.86,-195.121"/>
</g>
<!-- Node16&#45;&gt;Node1 -->
<g id="edge26" class="edge"><title>Node16&#45;&gt;Node1</title>
<path fill="none" stroke="midnightblue" d="M847.326,-159.246C840.458,-169.179 829.65,-182.614 819.581,-193.864"/>
<polygon fill="midnightblue" stroke="midnightblue" points="816.992,-191.509 812.786,-201.233 822.138,-196.254 816.992,-191.509"/>
</g>
<!-- Node17&#45;&gt;Node1 -->
<g id="edge29" class="edge"><title>Node17&#45;&gt;Node1</title>
<path fill="none" stroke="midnightblue" d="M1198.19,-159.047C1191.82,-161.29 1185.01,-163.396 1178.5,-165 1064.73,-193.023 927.393,-206.538 851.873,-212.14"/>
<polygon fill="midnightblue" stroke="midnightblue" points="851.358,-208.667 841.636,-212.878 851.862,-215.649 851.358,-208.667"/>
</g>
<!-- Node17&#45;&gt;Node11 -->
<g id="edge30" class="edge"><title>Node17&#45;&gt;Node11</title>
<path fill="none" stroke="midnightblue" d="M1186.41,-128.911C1180.75,-126.889 1174.98,-124.863 1169.5,-123 1055.37,-84.2144 919.093,-42.332 853.918,-22.5714"/>
<polygon fill="midnightblue" stroke="midnightblue" points="854.668,-19.1416 844.083,-19.5938 852.64,-25.8413 854.668,-19.1416"/>
</g>
<!-- Node18&#45;&gt;Node1 -->
<g id="edge32" class="edge"><title>Node18&#45;&gt;Node1</title>
<path fill="none" stroke="midnightblue" d="M929.542,-164.546C904.291,-174.962 872.312,-187.677 845.883,-197.8"/>
<polygon fill="midnightblue" stroke="midnightblue" points="844.52,-194.573 836.419,-201.403 847.01,-201.115 844.52,-194.573"/>
</g>
<!-- Node18&#45;&gt;Node5 -->
<g id="edge33" class="edge"><title>Node18&#45;&gt;Node5</title>
<path fill="none" stroke="midnightblue" d="M921.987,-125.819C919.117,-124.861 916.273,-123.916 913.5,-123 872.408,-109.427 825.111,-94.2784 793.26,-84.1455"/>
<polygon fill="midnightblue" stroke="midnightblue" points="794.08,-80.7334 783.489,-81.0402 791.959,-87.4046 794.08,-80.7334"/>
</g>
<!-- Node19&#45;&gt;Node1 -->
<g id="edge35" class="edge"><title>Node19&#45;&gt;Node1</title>
<path fill="none" stroke="midnightblue" d="M1063.43,-159.032C1056.2,-161.126 1048.66,-163.188 1041.5,-165 977.02,-181.327 901.786,-196.749 851.556,-206.157"/>
<polygon fill="midnightblue" stroke="midnightblue" points="850.736,-202.749 841.542,-208.014 852.013,-209.632 850.736,-202.749"/>
</g>
<!-- Node19&#45;&gt;Node5 -->
<g id="edge36" class="edge"><title>Node19&#45;&gt;Node5</title>
<path fill="none" stroke="midnightblue" d="M1055.32,-128.993C1047.74,-126.849 1039.92,-124.765 1032.5,-123 961.565,-106.128 879.224,-91.7215 823.066,-82.6654"/>
<polygon fill="midnightblue" stroke="midnightblue" points="823.321,-79.1617 812.893,-81.0373 822.214,-86.0738 823.321,-79.1617"/>
</g>
<!-- Node20&#45;&gt;Node1 -->
<g id="edge38" class="edge"><title>Node20&#45;&gt;Node1</title>
<path fill="none" stroke="midnightblue" d="M1313.09,-159.088C1305.08,-161.327 1296.58,-163.421 1288.5,-165 1132.42,-195.511 944.174,-208.456 851.886,-213.172"/>
<polygon fill="midnightblue" stroke="midnightblue" points="851.464,-209.688 841.651,-213.681 851.812,-216.68 851.464,-209.688"/>
</g>
<!-- Node21&#45;&gt;Node1 -->
<g id="edge40" class="edge"><title>Node21&#45;&gt;Node1</title>
<path fill="none" stroke="midnightblue" d="M1428.73,-164.521C1427.99,-164.687 1427.24,-164.847 1426.5,-165 1218.11,-208.093 963.345,-214.788 851.972,-215.57"/>
<polygon fill="midnightblue" stroke="midnightblue" points="851.628,-212.072 841.648,-215.628 851.668,-219.072 851.628,-212.072"/>
</g>
</g>
</svg>
