<?xml version="1.0" encoding="UTF-8" standalone="no"?>
<!DOCTYPE svg PUBLIC "-//W3C//DTD SVG 1.1//EN"
 "http://www.w3.org/Graphics/SVG/1.1/DTD/svg11.dtd">
<!-- Generated by graphviz version 2.40.1 (20161225.0304)
 -->
<!-- Title: include/client/mir_toolkit/events/prompt_session_event.h Pages: 1 -->
<svg width="1550pt" height="318pt"
 viewBox="0.00 0.00 1549.50 318.00" xmlns="http://www.w3.org/2000/svg" xmlns:xlink="http://www.w3.org/1999/xlink">
<g id="graph0" class="graph" transform="scale(1 1) rotate(0) translate(4 314)">
<title>include/client/mir_toolkit/events/prompt_session_event.h</title>
<polygon fill="#ffffff" stroke="transparent" points="-4,4 -4,-314 1545.5,-314 1545.5,4 -4,4"/>
<!-- Node0 -->
<g id="node1" class="node">
<title>Node0</title>
<polygon fill="#bfbfbf" stroke="#000000" points="745.5,-268.5 745.5,-309.5 858.5,-309.5 858.5,-268.5 745.5,-268.5"/>
<text text-anchor="start" x="753.5" y="-297.5" font-family="Arial" font-size="10.00" fill="#000000">include/client/mir</text>
<text text-anchor="start" x="753.5" y="-286.5" font-family="Arial" font-size="10.00" fill="#000000">_toolkit/events/prompt</text>
<text text-anchor="middle" x="802" y="-275.5" font-family="Arial" font-size="10.00" fill="#000000">_session_event.h</text>
</g>
<!-- Node1 -->
<g id="node2" class="node">
<title>Node1</title>
<g id="a_node2"><a xlink:href="toolkit_2events_2event_8h.html" target="_top" xlink:title="mir_toolkit/events\l/event.h">
<polygon fill="#ffffff" stroke="#000000" points="755,-201.5 755,-231.5 849,-231.5 849,-201.5 755,-201.5"/>
<text text-anchor="start" x="763" y="-219.5" font-family="Arial" font-size="10.00" fill="#000000">mir_toolkit/events</text>
<text text-anchor="middle" x="802" y="-208.5" font-family="Arial" font-size="10.00" fill="#000000">/event.h</text>
</a>
</g>
</g>
<!-- Node0&#45;&gt;Node1 -->
<g id="edge1" class="edge">
<title>Node0&#45;&gt;Node1</title>
<path fill="none" stroke="#191970" d="M795.8449,-268.4183C795.1713,-260.0849 795.0697,-250.3834 795.5402,-241.6373"/>
<polygon fill="#191970" stroke="#191970" points="799.0338,-241.8608 796.3977,-231.5991 792.0592,-241.2649 799.0338,-241.8608"/>
</g>
<!-- Node1&#45;&gt;Node0 -->
<g id="edge27" class="edge">
<title>Node1&#45;&gt;Node0</title>
<path fill="none" stroke="#191970" d="M807.6023,-231.5991C808.5584,-239.3508 808.9172,-249.0871 808.6785,-258.3279"/>
<polygon fill="#191970" stroke="#191970" points="805.1779,-258.2504 808.1551,-268.4183 812.1685,-258.6131 805.1779,-258.2504"/>
</g>
<!-- Node2 -->
<g id="node3" class="node">
<title>Node2</title>
<polygon fill="#ffffff" stroke="#bfbfbf" points="0,-134.5 0,-153.5 52,-153.5 52,-134.5 0,-134.5"/>
<text text-anchor="middle" x="26" y="-141.5" font-family="Arial" font-size="10.00" fill="#000000">stddef.h</text>
</g>
<!-- Node1&#45;&gt;Node2 -->
<g id="edge2" class="edge">
<title>Node1&#45;&gt;Node2</title>
<path fill="none" stroke="#191970" d="M754.8261,-215.7264C613.6654,-213.0144 196.3047,-201.9979 66,-165 60.4355,-163.4201 54.7574,-161.0076 49.4929,-158.3733"/>
<polygon fill="#191970" stroke="#191970" points="51.0345,-155.2276 40.5775,-153.5242 47.6899,-161.3769 51.0345,-155.2276"/>
</g>
<!-- Node3 -->
<g id="node4" class="node">
<title>Node3</title>
<polygon fill="#ffffff" stroke="#bfbfbf" points="93.5,-.5 93.5,-19.5 142.5,-19.5 142.5,-.5 93.5,-.5"/>
<text text-anchor="middle" x="118" y="-7.5" font-family="Arial" font-size="10.00" fill="#000000">stdint.h</text>
</g>
<!-- Node1&#45;&gt;Node3 -->
<g id="edge3" class="edge">
<title>Node1&#45;&gt;Node3</title>
<path fill="none" stroke="#191970" d="M754.6109,-214.8294C617.6769,-209.6915 228.0116,-192.7698 178,-165 140.2315,-144.0284 134.1081,-127.8318 120,-87 113.6042,-68.4893 113.8717,-45.9574 115.2718,-30.0635"/>
<polygon fill="#191970" stroke="#191970" points="118.7846,-30.1416 116.4123,-19.8157 111.8276,-29.3672 118.7846,-30.1416"/>
</g>
<!-- Node4 -->
<g id="node5" class="node">
<title>Node4</title>
<g id="a_node5"><a xlink:href="common_8h.html" target="_top" xlink:title="mir_toolkit/common.h">
<polygon fill="#ffffff" stroke="#000000" points="307,-134.5 307,-153.5 417,-153.5 417,-134.5 307,-134.5"/>
<text text-anchor="middle" x="362" y="-141.5" font-family="Arial" font-size="10.00" fill="#000000">mir_toolkit/common.h</text>
</a>
</g>
</g>
<!-- Node1&#45;&gt;Node4 -->
<g id="edge4" class="edge">
<title>Node1&#45;&gt;Node4</title>
<path fill="none" stroke="#191970" d="M754.7265,-212.345C683.8122,-205.5715 545.9471,-190.3048 431,-165 420.7278,-162.7386 409.7677,-159.7003 399.6772,-156.6384"/>
<polygon fill="#191970" stroke="#191970" points="400.5229,-153.2359 389.9342,-153.5965 398.4367,-159.9178 400.5229,-153.2359"/>
</g>
<!-- Node5 -->
<g id="node6" class="node">
<title>Node5</title>
<g id="a_node6"><a xlink:href="deprecations_8h.html" target="_top" xlink:title="mir_toolkit/deprecations.h">
<polygon fill="#ffffff" stroke="#000000" points="698,-62 698,-81 826,-81 826,-62 698,-62"/>
<text text-anchor="middle" x="762" y="-69" font-family="Arial" font-size="10.00" fill="#000000">mir_toolkit/deprecations.h</text>
</a>
</g>
</g>
<!-- Node1&#45;&gt;Node5 -->
<g id="edge6" class="edge">
<title>Node1&#45;&gt;Node5</title>
<path fill="none" stroke="#191970" d="M754.744,-212.6844C666.2443,-205.0578 482.7125,-186.7797 464,-165 405.3378,-96.7226 529.6686,-116.2882 688,-87 694.5907,-85.7809 701.4963,-84.4314 708.329,-83.0521"/>
<polygon fill="#191970" stroke="#191970" points="709.148,-86.4571 718.2423,-81.0216 707.7433,-79.5994 709.148,-86.4571"/>
</g>
<!-- Node6 -->
<g id="node7" class="node">
<title>Node6</title>
<g id="a_node7"><a xlink:href="input__event_8h.html" target="_top" xlink:title="mir_toolkit/events\l/input/input_event.h">
<polygon fill="#ffffff" stroke="#000000" points="187,-129 187,-159 289,-159 289,-129 187,-129"/>
<text text-anchor="start" x="195" y="-147" font-family="Arial" font-size="10.00" fill="#000000">mir_toolkit/events</text>
<text text-anchor="middle" x="238" y="-136" font-family="Arial" font-size="10.00" fill="#000000">/input/input_event.h</text>
</a>
</g>
</g>
<!-- Node1&#45;&gt;Node6 -->
<g id="edge7" class="edge">
<title>Node1&#45;&gt;Node6</title>
<path fill="none" stroke="#191970" d="M754.6895,-215.5182C663.3102,-212.7643 457.266,-202.4954 289,-165 285.2803,-164.1711 281.4724,-163.1838 277.6898,-162.0958"/>
<polygon fill="#191970" stroke="#191970" points="278.4029,-158.6521 267.8144,-159.0204 276.3215,-165.3355 278.4029,-158.6521"/>
</g>
<!-- Node13 -->
<g id="node14" class="node">
<title>Node13</title>
<g id="a_node14"><a xlink:href="resize__event_8h.html" target="_top" xlink:title="mir_toolkit/events\l/resize_event.h">
<polygon fill="#ffffff" stroke="#000000" points="473,-129 473,-159 567,-159 567,-129 473,-129"/>
<text text-anchor="start" x="481" y="-147" font-family="Arial" font-size="10.00" fill="#000000">mir_toolkit/events</text>
<text text-anchor="middle" x="520" y="-136" font-family="Arial" font-size="10.00" fill="#000000">/resize_event.h</text>
</a>
</g>
</g>
<!-- Node1&#45;&gt;Node13 -->
<g id="edge18" class="edge">
<title>Node1&#45;&gt;Node13</title>
<path fill="none" stroke="#191970" d="M754.5863,-208.9161C706.5582,-200.0527 630.7925,-184.1345 567,-165 564.2494,-164.175 561.4396,-163.2831 558.6267,-162.3485"/>
<polygon fill="#191970" stroke="#191970" points="559.7281,-159.0259 549.1333,-159.041 557.425,-165.6362 559.7281,-159.0259"/>
</g>
<!-- Node14 -->
<g id="node15" class="node">
<title>Node14</title>
<g id="a_node15"><a xlink:href="surface__event_8h.html" target="_top" xlink:title="mir_toolkit/events\l/surface_event.h">
<polygon fill="#ffffff" stroke="#000000" points="585,-129 585,-159 679,-159 679,-129 585,-129"/>
<text text-anchor="start" x="593" y="-147" font-family="Arial" font-size="10.00" fill="#000000">mir_toolkit/events</text>
<text text-anchor="middle" x="632" y="-136" font-family="Arial" font-size="10.00" fill="#000000">/surface_event.h</text>
</a>
</g>
</g>
<!-- Node1&#45;&gt;Node14 -->
<g id="edge20" class="edge">
<title>Node1&#45;&gt;Node14</title>
<path fill="none" stroke="#191970" d="M761.1832,-201.478C733.7031,-190.3475 697.7922,-175.0944 670.754,-163.0981"/>
<polygon fill="#191970" stroke="#191970" points="672.1465,-159.8869 661.5886,-159.0028 669.2908,-166.2779 672.1465,-159.8869"/>
</g>
<!-- Node15 -->
<g id="node16" class="node">
<title>Node15</title>
<g id="a_node16"><a xlink:href="window__event_8h.html" target="_top" xlink:title="mir_toolkit/events\l/window_event.h">
<polygon fill="#ffffff" stroke="#000000" points="697,-129 697,-159 791,-159 791,-129 697,-129"/>
<text text-anchor="start" x="705" y="-147" font-family="Arial" font-size="10.00" fill="#000000">mir_toolkit/events</text>
<text text-anchor="middle" x="744" y="-136" font-family="Arial" font-size="10.00" fill="#000000">/window_event.h</text>
</a>
</g>
</g>
<!-- Node1&#45;&gt;Node15 -->
<g id="edge23" class="edge">
<title>Node1&#45;&gt;Node15</title>
<path fill="none" stroke="#191970" d="M784.3896,-201.478C775.3169,-191.6598 764.6397,-178.6339 756.4099,-167.4651"/>
<polygon fill="#191970" stroke="#191970" points="759.0501,-165.1373 750.4119,-159.0028 753.3392,-169.1852 759.0501,-165.1373"/>
</g>
<!-- Node16 -->
<g id="node17" class="node">
<title>Node16</title>
<g id="a_node17"><a xlink:href="orientation__event_8h.html" target="_top" xlink:title="mir_toolkit/events\l/orientation_event.h">
<polygon fill="#ffffff" stroke="#000000" points="809,-129 809,-159 911,-159 911,-129 809,-129"/>
<text text-anchor="start" x="817" y="-147" font-family="Arial" font-size="10.00" fill="#000000">mir_toolkit/events</text>
<text text-anchor="middle" x="860" y="-136" font-family="Arial" font-size="10.00" fill="#000000">/orientation_event.h</text>
</a>
</g>
</g>
<!-- Node1&#45;&gt;Node16 -->
<g id="edge25" class="edge">
<title>Node1&#45;&gt;Node16</title>
<path fill="none" stroke="#191970" d="M808.4249,-201.478C815.2584,-191.3682 825.8325,-177.8572 835.7234,-166.4749"/>
<polygon fill="#191970" stroke="#191970" points="838.3489,-168.7895 842.4074,-159.0028 833.1317,-164.1225 838.3489,-168.7895"/>
</g>
<!-- Node17 -->
<g id="node18" class="node">
<title>Node17</title>
<g id="a_node18"><a xlink:href="keymap__event_8h.html" target="_top" xlink:title="mir_toolkit/events\l/keymap_event.h">
<polygon fill="#ffffff" stroke="#000000" points="1189,-129 1189,-159 1283,-159 1283,-129 1189,-129"/>
<text text-anchor="start" x="1197" y="-147" font-family="Arial" font-size="10.00" fill="#000000">mir_toolkit/events</text>
<text text-anchor="middle" x="1236" y="-136" font-family="Arial" font-size="10.00" fill="#000000">/keymap_event.h</text>
</a>
</g>
</g>
<!-- Node1&#45;&gt;Node17 -->
<g id="edge28" class="edge">
<title>Node1&#45;&gt;Node17</title>
<path fill="none" stroke="#191970" d="M849.2746,-213.0053C920.1449,-207.3154 1057.3311,-193.6724 1171,-165 1174.1714,-164.2 1177.4102,-163.279 1180.6686,-162.2787"/>
<polygon fill="#191970" stroke="#191970" points="1182.0355,-165.5143 1190.4546,-159.0824 1179.8621,-158.8603 1182.0355,-165.5143"/>
</g>
<!-- Node18 -->
<g id="node19" class="node">
<title>Node18</title>
<g id="a_node19"><a xlink:href="input__configuration__event_8h.html" target="_top" xlink:title="mir_toolkit/events\l/input_configuration\l_event.h">
<polygon fill="#ffffff" stroke="#000000" points="929.5,-123.5 929.5,-164.5 1030.5,-164.5 1030.5,-123.5 929.5,-123.5"/>
<text text-anchor="start" x="937.5" y="-152.5" font-family="Arial" font-size="10.00" fill="#000000">mir_toolkit/events</text>
<text text-anchor="start" x="937.5" y="-141.5" font-family="Arial" font-size="10.00" fill="#000000">/input_configuration</text>
<text text-anchor="middle" x="980" y="-130.5" font-family="Arial" font-size="10.00" fill="#000000">_event.h</text>
</a>
</g>
</g>
<!-- Node1&#45;&gt;Node18 -->
<g id="edge31" class="edge">
<title>Node1&#45;&gt;Node18</title>
<path fill="none" stroke="#191970" d="M833.289,-201.478C857.1769,-191.2305 890.692,-177.4885 919.6953,-166.0109"/>
<polygon fill="#191970" stroke="#191970" points="921.3158,-169.1345 929.3378,-162.2137 918.7508,-162.6213 921.3158,-169.1345"/>
</g>
<!-- Node19 -->
<g id="node20" class="node">
<title>Node19</title>
<g id="a_node20"><a xlink:href="surface__output__event_8h.html" target="_top" xlink:title="mir_toolkit/events\l/surface_output_event.h">
<polygon fill="#ffffff" stroke="#000000" points="1049,-129 1049,-159 1171,-159 1171,-129 1049,-129"/>
<text text-anchor="start" x="1057" y="-147" font-family="Arial" font-size="10.00" fill="#000000">mir_toolkit/events</text>
<text text-anchor="middle" x="1110" y="-136" font-family="Arial" font-size="10.00" fill="#000000">/surface_output_event.h</text>
</a>
</g>
</g>
<!-- Node1&#45;&gt;Node19 -->
<g id="edge34" class="edge">
<title>Node1&#45;&gt;Node19</title>
<path fill="none" stroke="#191970" d="M849.0835,-206.0389C895.5869,-196.3874 968.3656,-181.1453 1031,-165 1034.8299,-164.0128 1038.7649,-162.9546 1042.739,-161.8574"/>
<polygon fill="#191970" stroke="#191970" points="1043.9808,-165.144 1052.6602,-159.0679 1042.0861,-158.4053 1043.9808,-165.144"/>
</g>
<!-- Node20 -->
<g id="node21" class="node">
<title>Node20</title>
<g id="a_node21"><a xlink:href="window__output__event_8h.html" target="_top" xlink:title="mir_toolkit/events\l/window_output_event.h">
<polygon fill="#ffffff" stroke="#000000" points="1301.5,-129 1301.5,-159 1422.5,-159 1422.5,-129 1301.5,-129"/>
<text text-anchor="start" x="1309.5" y="-147" font-family="Arial" font-size="10.00" fill="#000000">mir_toolkit/events</text>
<text text-anchor="middle" x="1362" y="-136" font-family="Arial" font-size="10.00" fill="#000000">/window_output_event.h</text>
</a>
</g>
</g>
<!-- Node1&#45;&gt;Node20 -->
<g id="edge37" class="edge">
<title>Node1&#45;&gt;Node20</title>
<path fill="none" stroke="#191970" d="M849.2345,-214.1908C935.9916,-209.5177 1125.7526,-196.5626 1283,-165 1287.7271,-164.0512 1292.5932,-162.9213 1297.4823,-161.6851"/>
<polygon fill="#191970" stroke="#191970" points="1298.746,-164.9709 1307.5131,-159.0221 1296.9498,-158.2053 1298.746,-164.9709"/>
</g>
<!-- Node21 -->
<g id="node22" class="node">
<title>Node21</title>
<g id="a_node22"><a xlink:href="input__device__state__event_8h.html" target="_top" xlink:title="mir_toolkit/events\l/input_device_state\l_event.h">
<polygon fill="#ffffff" stroke="#000000" points="1440.5,-123.5 1440.5,-164.5 1541.5,-164.5 1541.5,-123.5 1440.5,-123.5"/>
<text text-anchor="start" x="1448.5" y="-152.5" font-family="Arial" font-size="10.00" fill="#000000">mir_toolkit/events</text>
<text text-anchor="start" x="1448.5" y="-141.5" font-family="Arial" font-size="10.00" fill="#000000">/input_device_state</text>
<text text-anchor="middle" x="1491" y="-130.5" font-family="Arial" font-size="10.00" fill="#000000">_event.h</text>
</a>
</g>
</g>
<!-- Node1&#45;&gt;Node21 -->
<g id="edge39" class="edge">
<title>Node1&#45;&gt;Node21</title>
<path fill="none" stroke="#191970" d="M849.1175,-214.0214C974.3713,-207.4899 1312.8951,-188.6704 1423,-165 1425.4648,-164.4701 1427.9671,-163.864 1430.4866,-163.1997"/>
<polygon fill="#191970" stroke="#191970" points="1431.6066,-166.5194 1440.2468,-160.3877 1429.6687,-159.793 1431.6066,-166.5194"/>
</g>
<!-- Node4&#45;&gt;Node5 -->
<g id="edge5" class="edge">
<title>Node4&#45;&gt;Node5</title>
<path fill="none" stroke="#191970" d="M389.936,-134.4116C402.3867,-130.4211 417.3055,-126.0236 431,-123 543.6249,-98.1332 574.3808,-106.8339 688,-87 694.7764,-85.8171 701.8795,-84.4689 708.8915,-83.0727"/>
<polygon fill="#191970" stroke="#191970" points="709.9494,-86.4293 719.0512,-81.0065 708.5542,-79.5698 709.9494,-86.4293"/>
</g>
<!-- Node6&#45;&gt;Node1 -->
<g id="edge8" class="edge">
<title>Node6&#45;&gt;Node1</title>
<path fill="none" stroke="#191970" d="M285.5198,-159.0204C292.6838,-161.318 299.9982,-163.4398 307,-165 463.1868,-199.8038 651.9227,-211.1497 744.8334,-214.8017"/>
<polygon fill="#191970" stroke="#191970" points="744.7466,-218.3008 754.8716,-215.1808 745.0109,-211.3058 744.7466,-218.3008"/>
</g>
<!-- Node6&#45;&gt;Node3 -->
<g id="edge11" class="edge">
<title>Node6&#45;&gt;Node3</title>
<path fill="none" stroke="#191970" d="M194.632,-128.8939C174.3328,-119.7402 151.4899,-106.082 137,-87 124.416,-70.4279 120.0681,-46.588 118.6177,-29.8364"/>
<polygon fill="#191970" stroke="#191970" points="122.0937,-29.3245 118.0109,-19.548 115.1058,-29.7368 122.0937,-29.3245"/>
</g>
<!-- Node7 -->
<g id="node8" class="node">
<title>Node7</title>
<g id="a_node8"><a xlink:href="mir__input__device__types_8h.html" target="_top" xlink:title="mir_toolkit/mir_input\l_device_types.h">
<polygon fill="#ffffff" stroke="#000000" points="146,-56.5 146,-86.5 250,-86.5 250,-56.5 146,-56.5"/>
<text text-anchor="start" x="154" y="-74.5" font-family="Arial" font-size="10.00" fill="#000000">mir_toolkit/mir_input</text>
<text text-anchor="middle" x="198" y="-63.5" font-family="Arial" font-size="10.00" fill="#000000">_device_types.h</text>
</a>
</g>
</g>
<!-- Node6&#45;&gt;Node7 -->
<g id="edge9" class="edge">
<title>Node6&#45;&gt;Node7</title>
<path fill="none" stroke="#191970" d="M229.712,-128.978C224.3487,-119.257 217.2505,-106.3915 211.1296,-95.2974"/>
<polygon fill="#191970" stroke="#191970" points="214.1728,-93.5678 206.2774,-86.5028 208.0437,-96.9494 214.1728,-93.5678"/>
</g>
<!-- Node8 -->
<g id="node9" class="node">
<title>Node8</title>
<polygon fill="#ffffff" stroke="#bfbfbf" points="353,-.5 353,-19.5 409,-19.5 409,-.5 353,-.5"/>
<text text-anchor="middle" x="381" y="-7.5" font-family="Arial" font-size="10.00" fill="#000000">stdbool.h</text>
</g>
<!-- Node6&#45;&gt;Node8 -->
<g id="edge12" class="edge">
<title>Node6&#45;&gt;Node8</title>
<path fill="none" stroke="#191970" d="M245.346,-128.6888C255.0427,-109.7333 273.6496,-77.3465 297,-56 311.6695,-42.5894 330.9547,-31.673 347.3464,-23.8456"/>
<polygon fill="#191970" stroke="#191970" points="348.9761,-26.9488 356.6065,-19.5984 346.0578,-20.5861 348.9761,-26.9488"/>
</g>
<!-- Node9 -->
<g id="node10" class="node">
<title>Node9</title>
<g id="a_node10"><a xlink:href="touch__event_8h.html" target="_top" xlink:title="mir_toolkit/events\l/input/touch_event.h">
<polygon fill="#ffffff" stroke="#000000" points="306.5,-56.5 306.5,-86.5 411.5,-86.5 411.5,-56.5 306.5,-56.5"/>
<text text-anchor="start" x="314.5" y="-74.5" font-family="Arial" font-size="10.00" fill="#000000">mir_toolkit/events</text>
<text text-anchor="middle" x="359" y="-63.5" font-family="Arial" font-size="10.00" fill="#000000">/input/touch_event.h</text>
</a>
</g>
</g>
<!-- Node6&#45;&gt;Node9 -->
<g id="edge13" class="edge">
<title>Node6&#45;&gt;Node9</title>
<path fill="none" stroke="#191970" d="M263.0713,-128.978C281.0798,-118.1877 305.5547,-103.523 325.275,-91.7071"/>
<polygon fill="#191970" stroke="#191970" points="327.1817,-94.6449 333.9608,-86.5028 323.5838,-88.6403 327.1817,-94.6449"/>
</g>
<!-- Node10 -->
<g id="node11" class="node">
<title>Node10</title>
<g id="a_node11"><a xlink:href="keyboard__event_8h.html" target="_top" xlink:title="mir_toolkit/events\l/input/keyboard_event.h">
<polygon fill="#ffffff" stroke="#000000" points="558.5,-56.5 558.5,-86.5 679.5,-86.5 679.5,-56.5 558.5,-56.5"/>
<text text-anchor="start" x="566.5" y="-74.5" font-family="Arial" font-size="10.00" fill="#000000">mir_toolkit/events</text>
<text text-anchor="middle" x="619" y="-63.5" font-family="Arial" font-size="10.00" fill="#000000">/input/keyboard_event.h</text>
</a>
</g>
</g>
<!-- Node6&#45;&gt;Node10 -->
<g id="edge14" class="edge">
<title>Node6&#45;&gt;Node10</title>
<path fill="none" stroke="#191970" d="M277.695,-128.8958C284.4062,-126.6925 291.3529,-124.6236 298,-123 404.3782,-97.0165 436.3282,-106.6072 548.3478,-87.0125"/>
<polygon fill="#191970" stroke="#191970" points="549.1229,-90.4295 558.3503,-85.2232 547.8903,-83.5389 549.1229,-90.4295"/>
</g>
<!-- Node12 -->
<g id="node13" class="node">
<title>Node12</title>
<g id="a_node13"><a xlink:href="pointer__event_8h.html" target="_top" xlink:title="mir_toolkit/events\l/input/pointer_event.h">
<polygon fill="#ffffff" stroke="#000000" points="430,-56.5 430,-86.5 540,-86.5 540,-56.5 430,-56.5"/>
<text text-anchor="start" x="438" y="-74.5" font-family="Arial" font-size="10.00" fill="#000000">mir_toolkit/events</text>
<text text-anchor="middle" x="485" y="-63.5" font-family="Arial" font-size="10.00" fill="#000000">/input/pointer_event.h</text>
</a>
</g>
</g>
<!-- Node6&#45;&gt;Node12 -->
<g id="edge16" class="edge">
<title>Node6&#45;&gt;Node12</title>
<path fill="none" stroke="#191970" d="M279.8409,-128.9485C285.9112,-126.8836 292.1007,-124.8424 298,-123 338.2515,-110.4293 383.8696,-97.8338 419.9726,-88.2457"/>
<polygon fill="#191970" stroke="#191970" points="421.1175,-91.5634 429.8908,-85.6237 419.3283,-84.7959 421.1175,-91.5634"/>
</g>
<!-- Node7&#45;&gt;Node3 -->
<g id="edge10" class="edge">
<title>Node7&#45;&gt;Node3</title>
<path fill="none" stroke="#191970" d="M178.2247,-56.2977C166.3102,-47.1384 151.1468,-35.4816 139.0162,-26.1562"/>
<polygon fill="#191970" stroke="#191970" points="140.8703,-23.1668 130.809,-19.8469 136.604,-28.7165 140.8703,-23.1668"/>
</g>
<!-- Node11 -->
<g id="node12" class="node">
<title>Node11</title>
<polygon fill="#ffffff" stroke="#bfbfbf" points="755,-.5 755,-19.5 889,-19.5 889,-.5 755,-.5"/>
<text text-anchor="middle" x="822" y="-7.5" font-family="Arial" font-size="10.00" fill="#000000">xkbcommon/xkbcommon.h</text>
</g>
<!-- Node10&#45;&gt;Node11 -->
<g id="edge15" class="edge">
<title>Node10&#45;&gt;Node11</title>
<path fill="none" stroke="#191970" d="M668.6594,-56.4554C703.1247,-46.0139 748.4909,-32.27 780.9198,-22.4455"/>
<polygon fill="#191970" stroke="#191970" points="781.9866,-25.7795 790.5422,-19.5303 779.9569,-19.0802 781.9866,-25.7795"/>
</g>
<!-- Node12&#45;&gt;Node8 -->
<g id="edge17" class="edge">
<title>Node12&#45;&gt;Node8</title>
<path fill="none" stroke="#191970" d="M459.5587,-56.4554C443.2716,-46.8241 422.2327,-34.3828 406.027,-24.7996"/>
<polygon fill="#191970" stroke="#191970" points="407.5055,-21.6078 397.1163,-19.5303 403.9424,-27.6331 407.5055,-21.6078"/>
</g>
<!-- Node13&#45;&gt;Node1 -->
<g id="edge19" class="edge">
<title>Node13&#45;&gt;Node1</title>
<path fill="none" stroke="#191970" d="M566.9129,-159.041C572.9945,-161.1757 579.1321,-163.2399 585,-165 638.6397,-181.0892 700.7448,-194.9044 744.8158,-204.1636"/>
<polygon fill="#191970" stroke="#191970" points="744.2694,-207.6249 754.7737,-206.2433 745.7005,-200.7727 744.2694,-207.6249"/>
</g>
<!-- Node14&#45;&gt;Node1 -->
<g id="edge21" class="edge">
<title>Node14&#45;&gt;Node1</title>
<path fill="none" stroke="#191970" d="M672.7693,-159.0028C700.2396,-170.1285 736.1508,-185.3811 763.1992,-197.3811"/>
<polygon fill="#191970" stroke="#191970" points="761.8107,-200.5942 772.3686,-201.478 764.6662,-194.2031 761.8107,-200.5942"/>
</g>
<!-- Node14&#45;&gt;Node5 -->
<g id="edge22" class="edge">
<title>Node14&#45;&gt;Node5</title>
<path fill="none" stroke="#191970" d="M658.9361,-128.978C681.4518,-116.4211 713.3759,-98.6173 735.7094,-86.1621"/>
<polygon fill="#191970" stroke="#191970" points="737.6094,-89.11 744.6383,-81.1825 734.1999,-82.9965 737.6094,-89.11"/>
</g>
<!-- Node15&#45;&gt;Node1 -->
<g id="edge24" class="edge">
<title>Node15&#45;&gt;Node1</title>
<path fill="none" stroke="#191970" d="M761.5926,-159.0028C770.6632,-168.8167 781.3409,-181.8418 789.5739,-193.013"/>
<polygon fill="#191970" stroke="#191970" points="786.9363,-195.3443 795.5751,-201.478 792.6468,-191.2958 786.9363,-195.3443"/>
</g>
<!-- Node16&#45;&gt;Node1 -->
<g id="edge26" class="edge">
<title>Node16&#45;&gt;Node1</title>
<path fill="none" stroke="#191970" d="M853.5881,-159.0028C846.7594,-169.1083 836.1872,-182.6184 826.2955,-194.0035"/>
<polygon fill="#191970" stroke="#191970" points="823.6681,-191.6909 819.6104,-201.478 828.8857,-196.3575 823.6681,-191.6909"/>
</g>
<!-- Node17&#45;&gt;Node1 -->
<g id="edge29" class="edge">
<title>Node17&#45;&gt;Node1</title>
<path fill="none" stroke="#191970" d="M1208.1864,-159.0824C1201.9553,-161.3158 1195.3428,-163.4001 1189,-165 1074.4572,-193.8928 936.034,-207.5243 859.5641,-213.1351"/>
<polygon fill="#191970" stroke="#191970" points="858.9198,-209.6721 849.194,-213.8743 859.4176,-216.6543 858.9198,-209.6721"/>
</g>
<!-- Node17&#45;&gt;Node11 -->
<g id="edge30" class="edge">
<title>Node17&#45;&gt;Node11</title>
<path fill="none" stroke="#191970" d="M1196.6279,-128.9364C1191.0622,-126.8944 1185.3985,-124.8628 1180,-123 1066.6041,-83.8728 931.2132,-42.5979 864.0675,-22.4881"/>
<polygon fill="#191970" stroke="#191970" points="864.8621,-19.0726 854.2786,-19.5616 862.857,-25.7794 864.8621,-19.0726"/>
</g>
<!-- Node18&#45;&gt;Node1 -->
<g id="edge32" class="edge">
<title>Node18&#45;&gt;Node1</title>
<path fill="none" stroke="#191970" d="M935.8139,-164.5015C910.9419,-174.9791 879.8142,-187.6357 853.8044,-197.8386"/>
<polygon fill="#191970" stroke="#191970" points="852.5188,-194.5831 844.4744,-201.478 855.0627,-201.1045 852.5188,-194.5831"/>
</g>
<!-- Node18&#45;&gt;Node5 -->
<g id="edge33" class="edge">
<title>Node18&#45;&gt;Node5</title>
<path fill="none" stroke="#191970" d="M929.2875,-126.1643C926.1471,-125.0866 923.0321,-124.0246 920,-123 879.9222,-109.4565 833.9201,-94.532 801.9287,-84.2518"/>
<polygon fill="#191970" stroke="#191970" points="802.6507,-80.8078 792.0595,-81.0849 800.5119,-87.473 802.6507,-80.8078"/>
</g>
<!-- Node19&#45;&gt;Node1 -->
<g id="edge35" class="edge">
<title>Node19&#45;&gt;Node1</title>
<path fill="none" stroke="#191970" d="M1070.4615,-159.0679C1063.358,-161.1524 1056.0032,-163.1948 1049,-165 984.6577,-181.5856 909.6104,-197.2179 859.1732,-206.8158"/>
<polygon fill="#191970" stroke="#191970" points="858.2896,-203.4206 849.1107,-208.7119 859.5859,-210.2995 858.2896,-203.4206"/>
</g>
<!-- Node19&#45;&gt;Node5 -->
<g id="edge36" class="edge">
<title>Node19&#45;&gt;Node5</title>
<path fill="none" stroke="#191970" d="M1062.3666,-128.9586C1054.9164,-126.824 1047.276,-124.7599 1040,-123 970.5766,-106.2083 890.256,-91.8666 833.8564,-82.6149"/>
<polygon fill="#191970" stroke="#191970" points="834.3962,-79.1568 823.9637,-81.0041 833.2712,-86.0658 834.3962,-79.1568"/>
</g>
<!-- Node20&#45;&gt;Node1 -->
<g id="edge38" class="edge">
<title>Node20&#45;&gt;Node1</title>
<path fill="none" stroke="#191970" d="M1325.2318,-159.0221C1317.3172,-161.2905 1308.9614,-163.402 1301,-165 1143.1696,-196.6796 952.5842,-209.6135 859.1228,-214.2425"/>
<polygon fill="#191970" stroke="#191970" points="858.8482,-210.7515 849.0282,-214.7286 859.185,-217.7434 858.8482,-210.7515"/>
</g>
<!-- Node21&#45;&gt;Node1 -->
<g id="edge40" class="edge">
<title>Node21&#45;&gt;Node1</title>
<path fill="none" stroke="#191970" d="M1442.9203,-164.5737C1442.2781,-164.7207 1441.6378,-164.8629 1441,-165 1331.338,-188.5752 995.0912,-207.3384 859.474,-213.9419"/>
<polygon fill="#191970" stroke="#191970" points="859.1105,-210.4553 849.2908,-214.4331 859.4478,-217.4472 859.1105,-210.4553"/>
</g>
</g>
</svg>
