<?xml version="1.0" encoding="UTF-8" standalone="no"?>
<!DOCTYPE svg PUBLIC "-//W3C//DTD SVG 1.1//EN"
 "http://www.w3.org/Graphics/SVG/1.1/DTD/svg11.dtd">
<!-- Generated by graphviz version 2.38.0 (20140413.2041)
 -->
<!-- Title: include/common/mir/raii.h Pages: 1 -->
<svg width="140pt" height="95pt"
 viewBox="0.00 0.00 140.00 95.00" xmlns="http://www.w3.org/2000/svg" xmlns:xlink="http://www.w3.org/1999/xlink">
<g id="graph0" class="graph" transform="scale(1 1) rotate(0) translate(4 91)">
<title>include/common/mir/raii.h</title>
<polygon fill="white" stroke="none" points="-4,4 -4,-91 136,-91 136,4 -4,4"/>
<!-- Node0 -->
<g id="node1" class="node"><title>Node0</title>
<polygon fill="#bfbfbf" stroke="black" points="11,-56.5 11,-86.5 115,-86.5 115,-56.5 11,-56.5"/>
<text text-anchor="start" x="19" y="-74.5" font-family="Arial" font-size="10.00">include/common/mir</text>
<text text-anchor="middle" x="63" y="-63.5" font-family="Arial" font-size="10.00">/raii.h</text>
</g>
<!-- Node1 -->
<g id="node2" class="node"><title>Node1</title>
<polygon fill="white" stroke="#bfbfbf" points="0,-0.5 0,-19.5 52,-19.5 52,-0.5 0,-0.5"/>
<text text-anchor="middle" x="26" y="-7.5" font-family="Arial" font-size="10.00">memory</text>
</g>
<!-- Node0&#45;&gt;Node1 -->
<g id="edge1" class="edge"><title>Node0&#45;&gt;Node1</title>
<path fill="none" stroke="midnightblue" d="M54.2315,-56.3993C49.0213,-48.0207 42.3714,-37.3269 36.8344,-28.4229"/>
<polygon fill="midnightblue" stroke="midnightblue" points="39.6368,-26.3015 31.3838,-19.6578 33.6924,-29.9981 39.6368,-26.3015"/>
</g>
<!-- Node2 -->
<g id="node3" class="node"><title>Node2</title>
<polygon fill="white" stroke="#bfbfbf" points="70,-0.5 70,-19.5 132,-19.5 132,-0.5 70,-0.5"/>
<text text-anchor="middle" x="101" y="-7.5" font-family="Arial" font-size="10.00">type_traits</text>
</g>
<!-- Node0&#45;&gt;Node2 -->
<g id="edge2" class="edge"><title>Node0&#45;&gt;Node2</title>
<path fill="none" stroke="midnightblue" d="M72.0055,-56.3993C77.4135,-47.9315 84.3317,-37.0991 90.0539,-28.1393"/>
<polygon fill="midnightblue" stroke="midnightblue" points="93.0379,-29.9695 95.4707,-19.6578 87.1384,-26.2018 93.0379,-29.9695"/>
</g>
</g>
</svg>
