<?xml version="1.0" encoding="UTF-8" standalone="no"?>
<!DOCTYPE svg PUBLIC "-//W3C//DTD SVG 1.1//EN"
 "http://www.w3.org/Graphics/SVG/1.1/DTD/svg11.dtd">
<!-- Generated by graphviz version 2.38.0 (20140413.2041)
 -->
<!-- Title: include/core/mir/geometry/rectangle.h Pages: 1 -->
<svg width="813pt" height="508pt"
 viewBox="0.00 0.00 813.41 508.00" xmlns="http://www.w3.org/2000/svg" xmlns:xlink="http://www.w3.org/1999/xlink">
<g id="graph0" class="graph" transform="scale(1 1) rotate(0) translate(4 504)">
<title>include/core/mir/geometry/rectangle.h</title>
<polygon fill="white" stroke="none" points="-4,4 -4,-504 809.415,-504 809.415,4 -4,4"/>
<!-- Node6 -->
<g id="node1" class="node"><title>Node6</title>
<polygon fill="#bfbfbf" stroke="black" points="423.236,-469.5 423.236,-499.5 552.236,-499.5 552.236,-469.5 423.236,-469.5"/>
<text text-anchor="start" x="431.236" y="-487.5" font-family="Arial" font-size="10.00">include/core/mir/geometry</text>
<text text-anchor="middle" x="487.736" y="-476.5" font-family="Arial" font-size="10.00">/rectangle.h</text>
</g>
<!-- Node7 -->
<g id="node2" class="node"><title>Node7</title>
<g id="a_node2"><a xlink:href="decoration__provider_8h.html" target="_top" xlink:title="examples/example&#45;server\l&#45;lib/decoration_provider.h">
<polygon fill="white" stroke="black" points="20.736,-134.5 20.736,-164.5 148.736,-164.5 148.736,-134.5 20.736,-134.5"/>
<text text-anchor="start" x="28.736" y="-152.5" font-family="Arial" font-size="10.00">examples/example&#45;server</text>
<text text-anchor="middle" x="84.736" y="-141.5" font-family="Arial" font-size="10.00">&#45;lib/decoration_provider.h</text>
</a>
</g>
</g>
<!-- Node6&#45;&gt;Node7 -->
<g id="edge1" class="edge"><title>Node6&#45;&gt;Node7</title>
<path fill="none" stroke="midnightblue" d="M413.079,-472.803C303.439,-454.964 111.736,-414.731 111.736,-351.5 111.736,-351.5 111.736,-351.5 111.736,-282.5 111.736,-238.759 97.3292,-188.487 89.5631,-164.566"/>
<polygon fill="midnightblue" stroke="midnightblue" points="412.672,-476.282 423.099,-474.408 413.779,-469.37 412.672,-476.282"/>
</g>
<!-- Node10 -->
<g id="node5" class="node"><title>Node10</title>
<g id="a_node5"><a xlink:href="rectangles_8h.html" target="_top" xlink:title="include/core/mir/geometry\l/rectangles.h">
<polygon fill="white" stroke="black" points="377.236,-402.5 377.236,-432.5 506.236,-432.5 506.236,-402.5 377.236,-402.5"/>
<text text-anchor="start" x="385.236" y="-420.5" font-family="Arial" font-size="10.00">include/core/mir/geometry</text>
<text text-anchor="middle" x="441.736" y="-409.5" font-family="Arial" font-size="10.00">/rectangles.h</text>
</a>
</g>
</g>
<!-- Node6&#45;&gt;Node10 -->
<g id="edge4" class="edge"><title>Node6&#45;&gt;Node10</title>
<path fill="none" stroke="midnightblue" d="M471.924,-461.157C465.216,-451.679 457.601,-440.919 451.698,-432.577"/>
<polygon fill="midnightblue" stroke="midnightblue" points="469.121,-463.255 477.755,-469.396 474.835,-459.211 469.121,-463.255"/>
</g>
<!-- Node23 -->
<g id="node18" class="node"><title>Node23</title>
<g id="a_node18"><a xlink:href="event__builders_8h.html" target="_top" xlink:title="include/client/mir\l/events/event_builders.h">
<polygon fill="white" stroke="black" points="563.236,-402.5 563.236,-432.5 686.236,-432.5 686.236,-402.5 563.236,-402.5"/>
<text text-anchor="start" x="571.236" y="-420.5" font-family="Arial" font-size="10.00">include/client/mir</text>
<text text-anchor="middle" x="624.736" y="-409.5" font-family="Arial" font-size="10.00">/events/event_builders.h</text>
</a>
</g>
</g>
<!-- Node6&#45;&gt;Node23 -->
<g id="edge29" class="edge"><title>Node6&#45;&gt;Node23</title>
<path fill="none" stroke="midnightblue" d="M526.745,-464.992C548.46,-454.689 575.063,-442.068 595.067,-432.577"/>
<polygon fill="midnightblue" stroke="midnightblue" points="524.997,-461.947 517.463,-469.396 527.998,-468.272 524.997,-461.947"/>
</g>
<!-- Node24 -->
<g id="node19" class="node"><title>Node24</title>
<g id="a_node19"><a xlink:href="output_8h.html" target="_top" xlink:title="include/miral/miral\l/output.h">
<polygon fill="white" stroke="black" points="684.236,-335.5 684.236,-365.5 779.236,-365.5 779.236,-335.5 684.236,-335.5"/>
<text text-anchor="start" x="692.236" y="-353.5" font-family="Arial" font-size="10.00">include/miral/miral</text>
<text text-anchor="middle" x="731.736" y="-342.5" font-family="Arial" font-size="10.00">/output.h</text>
</a>
</g>
</g>
<!-- Node6&#45;&gt;Node24 -->
<g id="edge30" class="edge"><title>Node6&#45;&gt;Node24</title>
<path fill="none" stroke="midnightblue" d="M500.656,-460.781C512.273,-442.338 530.985,-417.012 553.736,-402 593.283,-375.905 646.35,-363.116 684.228,-356.962"/>
<polygon fill="midnightblue" stroke="midnightblue" points="497.587,-459.092 495.39,-469.456 503.571,-462.724 497.587,-459.092"/>
</g>
<!-- Node8 -->
<g id="node3" class="node"><title>Node8</title>
<g id="a_node3"><a xlink:href="decoration__provider_8cpp.html" target="_top" xlink:title="examples/example&#45;server\l&#45;lib/decoration_provider.cpp">
<polygon fill="white" stroke="black" points="14.736,-67.5 14.736,-97.5 150.736,-97.5 150.736,-67.5 14.736,-67.5"/>
<text text-anchor="start" x="22.736" y="-85.5" font-family="Arial" font-size="10.00">examples/example&#45;server</text>
<text text-anchor="middle" x="82.736" y="-74.5" font-family="Arial" font-size="10.00">&#45;lib/decoration_provider.cpp</text>
</a>
</g>
</g>
<!-- Node7&#45;&gt;Node8 -->
<g id="edge2" class="edge"><title>Node7&#45;&gt;Node8</title>
<path fill="none" stroke="midnightblue" d="M83.9855,-124.108C83.71,-115.154 83.4075,-105.323 83.1691,-97.5765"/>
<polygon fill="midnightblue" stroke="midnightblue" points="80.496,-124.508 84.302,-134.396 87.4927,-124.293 80.496,-124.508"/>
</g>
<!-- Node9 -->
<g id="node4" class="node"><title>Node9</title>
<g id="a_node4"><a xlink:href="floating__window__manager_8cpp.html" target="_top" xlink:title="examples/example&#45;server\l&#45;lib/floating_window_manager.cpp">
<polygon fill="white" stroke="black" points="112.736,-0.5 112.736,-30.5 274.736,-30.5 274.736,-0.5 112.736,-0.5"/>
<text text-anchor="start" x="120.736" y="-18.5" font-family="Arial" font-size="10.00">examples/example&#45;server</text>
<text text-anchor="middle" x="193.736" y="-7.5" font-family="Arial" font-size="10.00">&#45;lib/floating_window_manager.cpp</text>
</a>
</g>
</g>
<!-- Node7&#45;&gt;Node9 -->
<g id="edge3" class="edge"><title>Node7&#45;&gt;Node9</title>
<path fill="none" stroke="midnightblue" d="M38.4637,-129.41C25.5383,-121.67 13.0415,-111.34 5.736,-98 -0.881639,-85.9155 -2.64797,-77.9333 5.736,-67 19.2063,-49.4339 68.1195,-36.6219 112.675,-28.2982"/>
<polygon fill="midnightblue" stroke="midnightblue" points="36.9764,-132.587 47.422,-134.359 40.3617,-126.46 36.9764,-132.587"/>
</g>
<!-- Node11 -->
<g id="node6" class="node"><title>Node11</title>
<g id="a_node6"><a xlink:href="window__info_8h.html" target="_top" xlink:title="include/miral/miral\l/window_info.h">
<polygon fill="white" stroke="black" points="473.236,-268.5 473.236,-298.5 568.236,-298.5 568.236,-268.5 473.236,-268.5"/>
<text text-anchor="start" x="481.236" y="-286.5" font-family="Arial" font-size="10.00">include/miral/miral</text>
<text text-anchor="middle" x="520.736" y="-275.5" font-family="Arial" font-size="10.00">/window_info.h</text>
</a>
</g>
</g>
<!-- Node10&#45;&gt;Node11 -->
<g id="edge5" class="edge"><title>Node10&#45;&gt;Node11</title>
<path fill="none" stroke="midnightblue" d="M478.754,-396.957C490.498,-388.926 502.339,-378.535 509.736,-366 522.143,-344.973 522.883,-315.673 522.007,-298.534"/>
<polygon fill="midnightblue" stroke="midnightblue" points="476.815,-394.042 470.284,-402.385 480.592,-399.936 476.815,-394.042"/>
</g>
<!-- Node21 -->
<g id="node16" class="node"><title>Node21</title>
<g id="a_node16"><a xlink:href="window__management__policy_8h.html" target="_top" xlink:title="include/miral/miral\l/window_management_policy.h">
<polygon fill="white" stroke="black" points="277.736,-201.5 277.736,-231.5 429.736,-231.5 429.736,-201.5 277.736,-201.5"/>
<text text-anchor="start" x="285.736" y="-219.5" font-family="Arial" font-size="10.00">include/miral/miral</text>
<text text-anchor="middle" x="353.736" y="-208.5" font-family="Arial" font-size="10.00">/window_management_policy.h</text>
</a>
</g>
</g>
<!-- Node10&#45;&gt;Node21 -->
<g id="edge24" class="edge"><title>Node10&#45;&gt;Node21</title>
<path fill="none" stroke="midnightblue" d="M403.84,-396.895C392.016,-388.902 380.143,-378.551 372.736,-366 347.11,-322.574 349.412,-259.685 352.03,-231.77"/>
<polygon fill="midnightblue" stroke="midnightblue" points="402.055,-399.908 412.378,-402.296 405.798,-393.992 402.055,-399.908"/>
</g>
<!-- Node22 -->
<g id="node17" class="node"><title>Node22</title>
<g id="a_node17"><a xlink:href="window__specification_8h.html" target="_top" xlink:title="include/miral/miral\l/window_specification.h">
<polygon fill="white" stroke="black" points="382.236,-335.5 382.236,-365.5 501.236,-365.5 501.236,-335.5 382.236,-335.5"/>
<text text-anchor="start" x="390.236" y="-353.5" font-family="Arial" font-size="10.00">include/miral/miral</text>
<text text-anchor="middle" x="441.736" y="-342.5" font-family="Arial" font-size="10.00">/window_specification.h</text>
</a>
</g>
</g>
<!-- Node10&#45;&gt;Node22 -->
<g id="edge27" class="edge"><title>Node10&#45;&gt;Node22</title>
<path fill="none" stroke="midnightblue" d="M441.736,-392.108C441.736,-383.154 441.736,-373.323 441.736,-365.577"/>
<polygon fill="midnightblue" stroke="midnightblue" points="438.236,-392.396 441.736,-402.396 445.236,-392.396 438.236,-392.396"/>
</g>
<!-- Node11&#45;&gt;Node9 -->
<g id="edge7" class="edge"><title>Node11&#45;&gt;Node9</title>
<path fill="none" stroke="midnightblue" d="M462.97,-276.863C398.267,-269.539 298.536,-254.911 268.736,-232 203.1,-181.535 194.646,-69.8352 193.755,-30.5212"/>
<polygon fill="midnightblue" stroke="midnightblue" points="462.714,-280.356 473.038,-277.976 463.483,-273.398 462.714,-280.356"/>
</g>
<!-- Node12 -->
<g id="node7" class="node"><title>Node12</title>
<g id="a_node7"><a xlink:href="kiosk__window__manager_8cpp.html" target="_top" xlink:title="examples/miral&#45;kiosk\l/kiosk_window_manager.cpp">
<polygon fill="white" stroke="black" points="566.236,-0.5 566.236,-30.5 707.236,-30.5 707.236,-0.5 566.236,-0.5"/>
<text text-anchor="start" x="574.236" y="-18.5" font-family="Arial" font-size="10.00">examples/miral&#45;kiosk</text>
<text text-anchor="middle" x="636.736" y="-7.5" font-family="Arial" font-size="10.00">/kiosk_window_manager.cpp</text>
</a>
</g>
</g>
<!-- Node11&#45;&gt;Node12 -->
<g id="edge6" class="edge"><title>Node11&#45;&gt;Node12</title>
<path fill="none" stroke="midnightblue" d="M576.548,-264.965C644.49,-240.177 755.724,-187.624 800.736,-98 822.319,-55.0266 761.151,-34.3832 707.48,-24.6844"/>
<polygon fill="midnightblue" stroke="midnightblue" points="575.095,-261.767 566.851,-268.421 577.446,-268.36 575.095,-261.767"/>
</g>
<!-- Node13 -->
<g id="node8" class="node"><title>Node13</title>
<g id="a_node8"><a xlink:href="tiling__window__manager_8cpp.html" target="_top" xlink:title="examples/example&#45;server\l&#45;lib/tiling_window_manager.cpp">
<polygon fill="white" stroke="black" points="641.236,-67.5 641.236,-97.5 792.236,-97.5 792.236,-67.5 641.236,-67.5"/>
<text text-anchor="start" x="649.236" y="-85.5" font-family="Arial" font-size="10.00">examples/example&#45;server</text>
<text text-anchor="middle" x="716.736" y="-74.5" font-family="Arial" font-size="10.00">&#45;lib/tiling_window_manager.cpp</text>
</a>
</g>
</g>
<!-- Node11&#45;&gt;Node13 -->
<g id="edge8" class="edge"><title>Node11&#45;&gt;Node13</title>
<path fill="none" stroke="midnightblue" d="M548.542,-262.478C560.774,-253.433 575.184,-242.449 587.736,-232 621.581,-203.825 631.86,-198.249 660.736,-165 679.76,-143.095 698.072,-114.593 708.321,-97.7508"/>
<polygon fill="midnightblue" stroke="midnightblue" points="546.463,-259.662 540.471,-268.4 550.604,-265.306 546.463,-259.662"/>
</g>
<!-- Node14 -->
<g id="node9" class="node"><title>Node14</title>
<g id="a_node9"><a xlink:href="window__manager__tools_8h.html" target="_top" xlink:title="include/miral/miral\l/window_manager_tools.h">
<polygon fill="white" stroke="black" points="450.736,-201.5 450.736,-231.5 578.736,-231.5 578.736,-201.5 450.736,-201.5"/>
<text text-anchor="start" x="458.736" y="-219.5" font-family="Arial" font-size="10.00">include/miral/miral</text>
<text text-anchor="middle" x="514.736" y="-208.5" font-family="Arial" font-size="10.00">/window_manager_tools.h</text>
</a>
</g>
</g>
<!-- Node11&#45;&gt;Node14 -->
<g id="edge9" class="edge"><title>Node11&#45;&gt;Node14</title>
<path fill="none" stroke="midnightblue" d="M518.512,-258.403C517.678,-249.37 516.758,-239.408 516.035,-231.577"/>
<polygon fill="midnightblue" stroke="midnightblue" points="515.03,-258.76 519.434,-268.396 522,-258.117 515.03,-258.76"/>
</g>
<!-- Node14&#45;&gt;Node7 -->
<g id="edge11" class="edge"><title>Node14&#45;&gt;Node7</title>
<path fill="none" stroke="midnightblue" d="M440.545,-201.303C439.939,-201.201 439.336,-201.1 438.736,-201 337.696,-184.164 219.844,-168.052 148.826,-158.725"/>
<polygon fill="midnightblue" stroke="midnightblue" points="440.054,-204.77 450.504,-203.026 441.248,-197.873 440.054,-204.77"/>
</g>
<!-- Node14&#45;&gt;Node9 -->
<g id="edge12" class="edge"><title>Node14&#45;&gt;Node9</title>
<path fill="none" stroke="midnightblue" d="M440.556,-201.136C369.09,-187.178 271.248,-167.698 267.736,-165 222.508,-130.254 202.975,-60.422 196.446,-30.5631"/>
<polygon fill="midnightblue" stroke="midnightblue" points="439.967,-204.587 450.452,-203.067 441.308,-197.717 439.967,-204.587"/>
</g>
<!-- Node14&#45;&gt;Node12 -->
<g id="edge10" class="edge"><title>Node14&#45;&gt;Node12</title>
<path fill="none" stroke="midnightblue" d="M556.437,-196.442C570.013,-188.439 584.062,-177.941 593.736,-165 625.074,-123.08 633.62,-58.8605 635.913,-30.636"/>
<polygon fill="midnightblue" stroke="midnightblue" points="554.67,-193.42 547.634,-201.342 558.074,-199.536 554.67,-193.42"/>
</g>
<!-- Node14&#45;&gt;Node13 -->
<g id="edge16" class="edge"><title>Node14&#45;&gt;Node13</title>
<path fill="none" stroke="midnightblue" d="M563.04,-197.616C583.455,-189.085 607.018,-177.911 626.736,-165 657.069,-145.138 687.269,-115.175 703.823,-97.6507"/>
<polygon fill="midnightblue" stroke="midnightblue" points="561.541,-194.448 553.605,-201.467 564.186,-200.929 561.541,-194.448"/>
</g>
<!-- Node15 -->
<g id="node10" class="node"><title>Node15</title>
<g id="a_node10"><a xlink:href="tiling__window__manager_8h.html" target="_top" xlink:title="examples/example&#45;server\l&#45;lib/tiling_window_manager.h">
<polygon fill="white" stroke="black" points="444.736,-134.5 444.736,-164.5 584.736,-164.5 584.736,-134.5 444.736,-134.5"/>
<text text-anchor="start" x="452.736" y="-152.5" font-family="Arial" font-size="10.00">examples/example&#45;server</text>
<text text-anchor="middle" x="514.736" y="-141.5" font-family="Arial" font-size="10.00">&#45;lib/tiling_window_manager.h</text>
</a>
</g>
</g>
<!-- Node14&#45;&gt;Node15 -->
<g id="edge13" class="edge"><title>Node14&#45;&gt;Node15</title>
<path fill="none" stroke="midnightblue" d="M514.736,-191.108C514.736,-182.154 514.736,-172.323 514.736,-164.577"/>
<polygon fill="midnightblue" stroke="midnightblue" points="511.236,-191.396 514.736,-201.396 518.236,-191.396 511.236,-191.396"/>
</g>
<!-- Node17 -->
<g id="node12" class="node"><title>Node17</title>
<g id="a_node12"><a xlink:href="canonical__window__manager_8h.html" target="_top" xlink:title="include/miral/miral\l/canonical_window_manager.h">
<polygon fill="white" stroke="black" points="277.236,-134.5 277.236,-164.5 426.236,-164.5 426.236,-134.5 277.236,-134.5"/>
<text text-anchor="start" x="285.236" y="-152.5" font-family="Arial" font-size="10.00">include/miral/miral</text>
<text text-anchor="middle" x="351.736" y="-141.5" font-family="Arial" font-size="10.00">/canonical_window_manager.h</text>
</a>
</g>
</g>
<!-- Node14&#45;&gt;Node17 -->
<g id="edge17" class="edge"><title>Node14&#45;&gt;Node17</title>
<path fill="none" stroke="midnightblue" d="M470.053,-197.682C443.911,-187.257 411.37,-174.281 387.036,-164.577"/>
<polygon fill="midnightblue" stroke="midnightblue" points="468.782,-200.943 479.367,-201.396 471.375,-194.441 468.782,-200.943"/>
</g>
<!-- Node15&#45;&gt;Node13 -->
<g id="edge15" class="edge"><title>Node15&#45;&gt;Node13</title>
<path fill="none" stroke="midnightblue" d="M568.413,-131.228C601.089,-120.713 642.304,-107.451 672.991,-97.5765"/>
<polygon fill="midnightblue" stroke="midnightblue" points="567.014,-128.001 558.567,-134.396 569.158,-134.665 567.014,-128.001"/>
</g>
<!-- Node16 -->
<g id="node11" class="node"><title>Node16</title>
<g id="a_node11"><a xlink:href="shell__main_8cpp.html" target="_top" xlink:title="examples/miral&#45;shell\l/shell_main.cpp">
<polygon fill="white" stroke="black" points="308.736,-0.5 308.736,-30.5 414.736,-30.5 414.736,-0.5 308.736,-0.5"/>
<text text-anchor="start" x="316.736" y="-18.5" font-family="Arial" font-size="10.00">examples/miral&#45;shell</text>
<text text-anchor="middle" x="361.736" y="-7.5" font-family="Arial" font-size="10.00">/shell_main.cpp</text>
</a>
</g>
</g>
<!-- Node15&#45;&gt;Node16 -->
<g id="edge14" class="edge"><title>Node15&#45;&gt;Node16</title>
<path fill="none" stroke="midnightblue" d="M484.387,-128.543C471.493,-119.653 456.517,-108.772 443.736,-98 417.798,-76.1398 390.37,-47.6237 374.724,-30.7664"/>
<polygon fill="midnightblue" stroke="midnightblue" points="482.692,-131.623 492.929,-134.353 486.629,-125.835 482.692,-131.623"/>
</g>
<!-- Node18 -->
<g id="node13" class="node"><title>Node18</title>
<g id="a_node13"><a xlink:href="kiosk__window__manager_8h.html" target="_top" xlink:title="examples/miral&#45;kiosk\l/kiosk_window_manager.h">
<polygon fill="white" stroke="black" points="453.236,-67.5 453.236,-97.5 584.236,-97.5 584.236,-67.5 453.236,-67.5"/>
<text text-anchor="start" x="461.236" y="-85.5" font-family="Arial" font-size="10.00">examples/miral&#45;kiosk</text>
<text text-anchor="middle" x="518.736" y="-74.5" font-family="Arial" font-size="10.00">/kiosk_window_manager.h</text>
</a>
</g>
</g>
<!-- Node17&#45;&gt;Node18 -->
<g id="edge18" class="edge"><title>Node17&#45;&gt;Node18</title>
<path fill="none" stroke="midnightblue" d="M397.516,-130.682C424.299,-120.257 457.638,-107.281 482.57,-97.5765"/>
<polygon fill="midnightblue" stroke="midnightblue" points="396.022,-127.507 387.973,-134.396 398.561,-134.03 396.022,-127.507"/>
</g>
<!-- Node20 -->
<g id="node15" class="node"><title>Node20</title>
<g id="a_node15"><a xlink:href="floating__window__manager_8h.html" target="_top" xlink:title="examples/example&#45;server\l&#45;lib/floating_window_manager.h">
<polygon fill="white" stroke="black" points="244.736,-67.5 244.736,-97.5 396.736,-97.5 396.736,-67.5 244.736,-67.5"/>
<text text-anchor="start" x="252.736" y="-85.5" font-family="Arial" font-size="10.00">examples/example&#45;server</text>
<text text-anchor="middle" x="320.736" y="-74.5" font-family="Arial" font-size="10.00">&#45;lib/floating_window_manager.h</text>
</a>
</g>
</g>
<!-- Node17&#45;&gt;Node20 -->
<g id="edge21" class="edge"><title>Node17&#45;&gt;Node20</title>
<path fill="none" stroke="midnightblue" d="M340.664,-125.283C336.247,-116.022 331.306,-105.663 327.449,-97.5765"/>
<polygon fill="midnightblue" stroke="midnightblue" points="337.546,-126.877 345.009,-134.396 343.864,-123.863 337.546,-126.877"/>
</g>
<!-- Node18&#45;&gt;Node12 -->
<g id="edge20" class="edge"><title>Node18&#45;&gt;Node12</title>
<path fill="none" stroke="midnightblue" d="M553.346,-62.4354C571.859,-52.2374 594.261,-39.8975 611.182,-30.5765"/>
<polygon fill="midnightblue" stroke="midnightblue" points="551.411,-59.5054 544.34,-67.396 554.788,-65.6367 551.411,-59.5054"/>
</g>
<!-- Node19 -->
<g id="node14" class="node"><title>Node19</title>
<g id="a_node14"><a xlink:href="kiosk__main_8cpp.html" target="_top" xlink:title="examples/miral&#45;kiosk\l/kiosk_main.cpp">
<polygon fill="white" stroke="black" points="439.236,-0.5 439.236,-30.5 548.236,-30.5 548.236,-0.5 439.236,-0.5"/>
<text text-anchor="start" x="447.236" y="-18.5" font-family="Arial" font-size="10.00">examples/miral&#45;kiosk</text>
<text text-anchor="middle" x="493.736" y="-7.5" font-family="Arial" font-size="10.00">/kiosk_main.cpp</text>
</a>
</g>
</g>
<!-- Node18&#45;&gt;Node19 -->
<g id="edge19" class="edge"><title>Node18&#45;&gt;Node19</title>
<path fill="none" stroke="midnightblue" d="M509.694,-57.9907C506.161,-48.8044 502.228,-38.5781 499.15,-30.5765"/>
<polygon fill="midnightblue" stroke="midnightblue" points="506.455,-59.319 513.311,-67.396 512.988,-56.8061 506.455,-59.319"/>
</g>
<!-- Node20&#45;&gt;Node9 -->
<g id="edge23" class="edge"><title>Node20&#45;&gt;Node9</title>
<path fill="none" stroke="midnightblue" d="M284.032,-62.7143C264.002,-52.4631 239.617,-39.9826 221.239,-30.5765"/>
<polygon fill="midnightblue" stroke="midnightblue" points="282.682,-65.9555 293.179,-67.396 285.872,-59.7242 282.682,-65.9555"/>
</g>
<!-- Node20&#45;&gt;Node16 -->
<g id="edge22" class="edge"><title>Node20&#45;&gt;Node16</title>
<path fill="none" stroke="midnightblue" d="M335.012,-58.8669C340.946,-49.4594 347.649,-38.8334 352.857,-30.5765"/>
<polygon fill="midnightblue" stroke="midnightblue" points="332.007,-57.0707 329.632,-67.396 337.928,-60.8053 332.007,-57.0707"/>
</g>
<!-- Node21&#45;&gt;Node15 -->
<g id="edge25" class="edge"><title>Node21&#45;&gt;Node15</title>
<path fill="none" stroke="midnightblue" d="M398.211,-197.544C423.974,-187.143 455.939,-174.238 479.87,-164.577"/>
<polygon fill="midnightblue" stroke="midnightblue" points="396.633,-194.407 388.671,-201.396 399.254,-200.898 396.633,-194.407"/>
</g>
<!-- Node21&#45;&gt;Node17 -->
<g id="edge26" class="edge"><title>Node21&#45;&gt;Node17</title>
<path fill="none" stroke="midnightblue" d="M352.985,-191.108C352.71,-182.154 352.407,-172.323 352.169,-164.577"/>
<polygon fill="midnightblue" stroke="midnightblue" points="349.496,-191.508 353.302,-201.396 356.493,-191.293 349.496,-191.508"/>
</g>
<!-- Node22&#45;&gt;Node11 -->
<g id="edge28" class="edge"><title>Node22&#45;&gt;Node11</title>
<path fill="none" stroke="midnightblue" d="M466.793,-328.883C478.799,-319.005 492.868,-307.429 503.628,-298.577"/>
<polygon fill="midnightblue" stroke="midnightblue" points="464.376,-326.34 458.878,-335.396 468.824,-331.745 464.376,-326.34"/>
</g>
<!-- Node24&#45;&gt;Node13 -->
<g id="edge31" class="edge"><title>Node24&#45;&gt;Node13</title>
<path fill="none" stroke="midnightblue" d="M730.358,-325.065C727.285,-270.572 719.951,-140.521 717.528,-97.5492"/>
<polygon fill="midnightblue" stroke="midnightblue" points="726.872,-325.412 730.93,-335.199 733.861,-325.017 726.872,-325.412"/>
</g>
</g>
</svg>
