<?xml version="1.0" encoding="UTF-8" standalone="no"?>
<!DOCTYPE svg PUBLIC "-//W3C//DTD SVG 1.1//EN"
 "http://www.w3.org/Graphics/SVG/1.1/DTD/svg11.dtd">
<!-- Generated by graphviz version 2.40.1 (20161225.0304)
 -->
<!-- Title: include/core/mir/geometry/rectangles.h Pages: 1 -->
<svg width="325pt" height="263pt"
 viewBox="0.00 0.00 325.00 263.00" xmlns="http://www.w3.org/2000/svg" xmlns:xlink="http://www.w3.org/1999/xlink">
<g id="graph0" class="graph" transform="scale(1 1) rotate(0) translate(4 259)">
<title>include/core/mir/geometry/rectangles.h</title>
<polygon fill="#ffffff" stroke="transparent" points="-4,4 -4,-259 321,-259 321,4 -4,4"/>
<!-- Node0 -->
<g id="node1" class="node">
<title>Node0</title>
<polygon fill="#bfbfbf" stroke="#000000" points="114,-224.5 114,-254.5 243,-254.5 243,-224.5 114,-224.5"/>
<text text-anchor="start" x="122" y="-242.5" font-family="Arial" font-size="10.00" fill="#000000">include/core/mir/geometry</text>
<text text-anchor="middle" x="178.5" y="-231.5" font-family="Arial" font-size="10.00" fill="#000000">/rectangles.h</text>
</g>
<!-- Node1 -->
<g id="node2" class="node">
<title>Node1</title>
<g id="a_node2"><a xlink:href="point_8h.html" target="_top" xlink:title="mir/geometry/point.h">
<polygon fill="#ffffff" stroke="#000000" points="101.5,-112.5 101.5,-131.5 207.5,-131.5 207.5,-112.5 101.5,-112.5"/>
<text text-anchor="middle" x="154.5" y="-119.5" font-family="Arial" font-size="10.00" fill="#000000">mir/geometry/point.h</text>
</a>
</g>
</g>
<!-- Node0&#45;&gt;Node1 -->
<g id="edge1" class="edge">
<title>Node0&#45;&gt;Node1</title>
<path fill="none" stroke="#191970" d="M175.3624,-224.1389C171.0384,-202.9692 163.2457,-164.8174 158.5057,-141.6112"/>
<polygon fill="#191970" stroke="#191970" points="161.8831,-140.6567 156.4526,-131.5595 155.0247,-142.0576 161.8831,-140.6567"/>
</g>
<!-- Node5 -->
<g id="node6" class="node">
<title>Node5</title>
<g id="a_node6"><a xlink:href="rectangle_8h.html" target="_top" xlink:title="mir/geometry/rectangle.h">
<polygon fill="#ffffff" stroke="#000000" points="0,-168.5 0,-187.5 125,-187.5 125,-168.5 0,-168.5"/>
<text text-anchor="middle" x="62.5" y="-175.5" font-family="Arial" font-size="10.00" fill="#000000">mir/geometry/rectangle.h</text>
</a>
</g>
</g>
<!-- Node0&#45;&gt;Node5 -->
<g id="edge6" class="edge">
<title>Node0&#45;&gt;Node5</title>
<path fill="none" stroke="#191970" d="M150.1232,-224.4554C131.6172,-214.644 107.6112,-201.9167 89.4069,-192.2653"/>
<polygon fill="#191970" stroke="#191970" points="90.9505,-189.1222 80.4759,-187.5303 87.6715,-195.3068 90.9505,-189.1222"/>
</g>
<!-- Node7 -->
<g id="node8" class="node">
<title>Node7</title>
<polygon fill="#ffffff" stroke="#bfbfbf" points="181.5,-168.5 181.5,-187.5 225.5,-187.5 225.5,-168.5 181.5,-168.5"/>
<text text-anchor="middle" x="203.5" y="-175.5" font-family="Arial" font-size="10.00" fill="#000000">vector</text>
</g>
<!-- Node0&#45;&gt;Node7 -->
<g id="edge12" class="edge">
<title>Node0&#45;&gt;Node7</title>
<path fill="none" stroke="#191970" d="M184.6798,-224.2977C188.0054,-216.1166 192.1411,-205.943 195.6879,-197.2179"/>
<polygon fill="#191970" stroke="#191970" points="198.9737,-198.4288 199.4972,-187.8469 192.489,-195.7927 198.9737,-198.4288"/>
</g>
<!-- Node8 -->
<g id="node9" class="node">
<title>Node8</title>
<polygon fill="#ffffff" stroke="#bfbfbf" points="244,-168.5 244,-187.5 317,-187.5 317,-168.5 244,-168.5"/>
<text text-anchor="middle" x="280.5" y="-175.5" font-family="Arial" font-size="10.00" fill="#000000">initializer_list</text>
</g>
<!-- Node0&#45;&gt;Node8 -->
<g id="edge13" class="edge">
<title>Node0&#45;&gt;Node8</title>
<path fill="none" stroke="#191970" d="M203.452,-224.4554C219.4259,-214.8241 240.0602,-202.3828 255.9543,-192.7996"/>
<polygon fill="#191970" stroke="#191970" points="257.937,-195.6912 264.6936,-187.5303 254.3226,-189.6965 257.937,-195.6912"/>
</g>
<!-- Node2 -->
<g id="node3" class="node">
<title>Node2</title>
<g id="a_node3"><a xlink:href="dimensions_8h.html" target="_top" xlink:title="dimensions.h">
<polygon fill="#ffffff" stroke="#000000" points="77.5,-56.5 77.5,-75.5 151.5,-75.5 151.5,-56.5 77.5,-56.5"/>
<text text-anchor="middle" x="114.5" y="-63.5" font-family="Arial" font-size="10.00" fill="#000000">dimensions.h</text>
</a>
</g>
</g>
<!-- Node1&#45;&gt;Node2 -->
<g id="edge2" class="edge">
<title>Node1&#45;&gt;Node2</title>
<path fill="none" stroke="#191970" d="M147.5325,-112.2455C141.9689,-104.4564 134.022,-93.3308 127.3171,-83.9439"/>
<polygon fill="#191970" stroke="#191970" points="130.0481,-81.7457 121.3876,-75.6427 124.352,-85.8144 130.0481,-81.7457"/>
</g>
<!-- Node4 -->
<g id="node5" class="node">
<title>Node4</title>
<polygon fill="#ffffff" stroke="#bfbfbf" points="28.5,-.5 28.5,-19.5 72.5,-19.5 72.5,-.5 28.5,-.5"/>
<text text-anchor="middle" x="50.5" y="-7.5" font-family="Arial" font-size="10.00" fill="#000000">iosfwd</text>
</g>
<!-- Node1&#45;&gt;Node4 -->
<g id="edge5" class="edge">
<title>Node1&#45;&gt;Node4</title>
<path fill="none" stroke="#191970" d="M158.9924,-112.1003C164.5152,-98.2967 171.8492,-73.0477 160.5,-56 155.8551,-49.0228 113.0541,-32.4604 82.2389,-21.2349"/>
<polygon fill="#191970" stroke="#191970" points="83.3131,-17.9016 72.7187,-17.7967 80.9353,-24.4854 83.3131,-17.9016"/>
</g>
<!-- Node3 -->
<g id="node4" class="node">
<title>Node3</title>
<polygon fill="#ffffff" stroke="#bfbfbf" points="91.5,-.5 91.5,-19.5 137.5,-19.5 137.5,-.5 91.5,-.5"/>
<text text-anchor="middle" x="114.5" y="-7.5" font-family="Arial" font-size="10.00" fill="#000000">cstdint</text>
</g>
<!-- Node2&#45;&gt;Node3 -->
<g id="edge3" class="edge">
<title>Node2&#45;&gt;Node3</title>
<path fill="none" stroke="#191970" d="M114.5,-56.2455C114.5,-48.9382 114.5,-38.6944 114.5,-29.7046"/>
<polygon fill="#191970" stroke="#191970" points="118.0001,-29.6426 114.5,-19.6427 111.0001,-29.6427 118.0001,-29.6426"/>
</g>
<!-- Node2&#45;&gt;Node4 -->
<g id="edge4" class="edge">
<title>Node2&#45;&gt;Node4</title>
<path fill="none" stroke="#191970" d="M103.3521,-56.2455C93.9913,-48.0549 80.4142,-36.1749 69.3651,-26.5069"/>
<polygon fill="#191970" stroke="#191970" points="71.3508,-23.5937 61.5202,-19.6427 66.7412,-28.8618 71.3508,-23.5937"/>
</g>
<!-- Node5&#45;&gt;Node1 -->
<g id="edge7" class="edge">
<title>Node5&#45;&gt;Node1</title>
<path fill="none" stroke="#191970" d="M78.5252,-168.2455C92.6408,-159.6534 113.4263,-147.0014 129.6899,-137.1018"/>
<polygon fill="#191970" stroke="#191970" points="131.9363,-139.8319 138.6585,-131.6427 128.2966,-133.8525 131.9363,-139.8319"/>
</g>
<!-- Node5&#45;&gt;Node4 -->
<g id="edge11" class="edge">
<title>Node5&#45;&gt;Node4</title>
<path fill="none" stroke="#191970" d="M53.1382,-168.3788C45.3766,-159.6808 34.925,-146.1096 30.5,-132 19.4222,-96.6772 32.3499,-53.5726 41.9647,-29.2057"/>
<polygon fill="#191970" stroke="#191970" points="45.3081,-30.2818 45.927,-19.705 38.8474,-27.5873 45.3081,-30.2818"/>
</g>
<!-- Node6 -->
<g id="node7" class="node">
<title>Node6</title>
<g id="a_node7"><a xlink:href="size_8h.html" target="_top" xlink:title="size.h">
<polygon fill="#ffffff" stroke="#000000" points="40,-112.5 40,-131.5 83,-131.5 83,-112.5 40,-112.5"/>
<text text-anchor="middle" x="61.5" y="-119.5" font-family="Arial" font-size="10.00" fill="#000000">size.h</text>
</a>
</g>
</g>
<!-- Node5&#45;&gt;Node6 -->
<g id="edge8" class="edge">
<title>Node5&#45;&gt;Node6</title>
<path fill="none" stroke="#191970" d="M62.3258,-168.2455C62.1953,-160.9382 62.0124,-150.6944 61.8519,-141.7046"/>
<polygon fill="#191970" stroke="#191970" points="65.3503,-141.5786 61.6722,-131.6427 58.3514,-141.7036 65.3503,-141.5786"/>
</g>
<!-- Node6&#45;&gt;Node2 -->
<g id="edge9" class="edge">
<title>Node6&#45;&gt;Node2</title>
<path fill="none" stroke="#191970" d="M70.7319,-112.2455C78.3317,-104.2155 89.2877,-92.6394 98.3368,-83.0781"/>
<polygon fill="#191970" stroke="#191970" points="101.0421,-85.3115 105.3739,-75.6427 95.958,-80.4998 101.0421,-85.3115"/>
</g>
<!-- Node6&#45;&gt;Node4 -->
<g id="edge10" class="edge">
<title>Node6&#45;&gt;Node4</title>
<path fill="none" stroke="#191970" d="M60.5621,-112.4509C58.7681,-94.184 54.817,-53.9553 52.4346,-29.6976"/>
<polygon fill="#191970" stroke="#191970" points="55.8962,-29.1349 51.4355,-19.5249 48.9298,-29.8191 55.8962,-29.1349"/>
</g>
</g>
</svg>
