<?xml version="1.0" encoding="UTF-8" standalone="no"?>
<!DOCTYPE svg PUBLIC "-//W3C//DTD SVG 1.1//EN"
 "http://www.w3.org/Graphics/SVG/1.1/DTD/svg11.dtd">
<!-- Generated by graphviz version 2.38.0 (20140413.2041)
 -->
<!-- Title: include/core/mir/geometry/rectangles.h Pages: 1 -->
<svg width="1034pt" height="474pt"
 viewBox="0.00 0.00 1033.82 474.00" xmlns="http://www.w3.org/2000/svg" xmlns:xlink="http://www.w3.org/1999/xlink">
<g id="graph0" class="graph" transform="scale(1 1) rotate(0) translate(4 470)">
<title>include/core/mir/geometry/rectangles.h</title>
<polygon fill="white" stroke="none" points="-4,4 -4,-470 1029.82,-470 1029.82,4 -4,4"/>
<!-- Node9 -->
<g id="node1" class="node"><title>Node9</title>
<polygon fill="#bfbfbf" stroke="black" points="312.821,-435.5 312.821,-465.5 441.821,-465.5 441.821,-435.5 312.821,-435.5"/>
<text text-anchor="start" x="320.821" y="-453.5" font-family="Arial" font-size="10.00">include/core/mir/geometry</text>
<text text-anchor="middle" x="377.321" y="-442.5" font-family="Arial" font-size="10.00">/rectangles.h</text>
</g>
<!-- Node10 -->
<g id="node2" class="node"><title>Node10</title>
<g id="a_node2"><a xlink:href="window__info_8h.html" target="_top" xlink:title="include/miral/miral\l/window_info.h">
<polygon fill="white" stroke="black" points="241.821,-301.5 241.821,-331.5 336.821,-331.5 336.821,-301.5 241.821,-301.5"/>
<text text-anchor="start" x="249.821" y="-319.5" font-family="Arial" font-size="10.00">include/miral/miral</text>
<text text-anchor="middle" x="289.321" y="-308.5" font-family="Arial" font-size="10.00">/window_info.h</text>
</a>
</g>
</g>
<!-- Node9&#45;&gt;Node10 -->
<g id="edge1" class="edge"><title>Node9&#45;&gt;Node10</title>
<path fill="none" stroke="midnightblue" d="M375.687,-425.029C373.549,-407.861 368.629,-385.023 357.321,-368 347.15,-352.689 330.7,-340.29 316.526,-331.61"/>
<polygon fill="midnightblue" stroke="midnightblue" points="372.245,-425.776 376.73,-435.375 379.209,-425.075 372.245,-425.776"/>
</g>
<!-- Node25 -->
<g id="node17" class="node"><title>Node25</title>
<g id="a_node17"><a xlink:href="window__management__policy_8h.html" target="_top" xlink:title="include/miral/miral\l/window_management_policy.h">
<polygon fill="white" stroke="black" points="371.321,-234.5 371.321,-264.5 523.321,-264.5 523.321,-234.5 371.321,-234.5"/>
<text text-anchor="start" x="379.321" y="-252.5" font-family="Arial" font-size="10.00">include/miral/miral</text>
<text text-anchor="middle" x="447.321" y="-241.5" font-family="Arial" font-size="10.00">/window_management_policy.h</text>
</a>
</g>
</g>
<!-- Node9&#45;&gt;Node25 -->
<g id="edge24" class="edge"><title>Node9&#45;&gt;Node25</title>
<path fill="none" stroke="midnightblue" d="M385.752,-425.533C400.484,-383.652 430.472,-298.399 442.332,-264.682"/>
<polygon fill="midnightblue" stroke="midnightblue" points="382.372,-424.594 382.355,-435.188 388.975,-426.916 382.372,-424.594"/>
</g>
<!-- Node26 -->
<g id="node18" class="node"><title>Node26</title>
<g id="a_node18"><a xlink:href="window__specification_8h.html" target="_top" xlink:title="include/miral/miral\l/window_specification.h">
<polygon fill="white" stroke="black" points="229.821,-368.5 229.821,-398.5 348.821,-398.5 348.821,-368.5 229.821,-368.5"/>
<text text-anchor="start" x="237.821" y="-386.5" font-family="Arial" font-size="10.00">include/miral/miral</text>
<text text-anchor="middle" x="289.321" y="-375.5" font-family="Arial" font-size="10.00">/window_specification.h</text>
</a>
</g>
</g>
<!-- Node9&#45;&gt;Node26 -->
<g id="edge27" class="edge"><title>Node9&#45;&gt;Node26</title>
<path fill="none" stroke="midnightblue" d="M350.178,-429.451C336.64,-419.452 320.594,-407.6 308.378,-398.577"/>
<polygon fill="midnightblue" stroke="midnightblue" points="348.103,-432.27 358.226,-435.396 352.262,-426.639 348.103,-432.27"/>
</g>
<!-- Node11 -->
<g id="node3" class="node"><title>Node11</title>
<g id="a_node3"><a xlink:href="kiosk__window__manager_8cpp.html" target="_top" xlink:title="examples/miral&#45;kiosk\l/kiosk_window_manager.cpp">
<polygon fill="white" stroke="black" points="884.821,-11.5 884.821,-41.5 1025.82,-41.5 1025.82,-11.5 884.821,-11.5"/>
<text text-anchor="start" x="892.821" y="-29.5" font-family="Arial" font-size="10.00">examples/miral&#45;kiosk</text>
<text text-anchor="middle" x="955.321" y="-18.5" font-family="Arial" font-size="10.00">/kiosk_window_manager.cpp</text>
</a>
</g>
</g>
<!-- Node10&#45;&gt;Node11 -->
<g id="edge2" class="edge"><title>Node10&#45;&gt;Node11</title>
<path fill="none" stroke="midnightblue" d="M346.824,-310.141C447.659,-299.195 661.417,-269.029 827.321,-198 876.841,-176.799 897.016,-174.838 928.321,-131 947.962,-103.495 953.323,-62.7867 954.781,-41.5502"/>
<polygon fill="midnightblue" stroke="midnightblue" points="346.416,-306.665 336.841,-311.202 347.155,-313.626 346.416,-306.665"/>
</g>
<!-- Node12 -->
<g id="node4" class="node"><title>Node12</title>
<g id="a_node4"><a xlink:href="floating__window__manager_8cpp.html" target="_top" xlink:title="examples/example&#45;server\l&#45;lib/floating_window_manager.cpp">
<polygon fill="white" stroke="black" points="21.321,-11.5 21.321,-41.5 183.321,-41.5 183.321,-11.5 21.321,-11.5"/>
<text text-anchor="start" x="29.321" y="-29.5" font-family="Arial" font-size="10.00">examples/example&#45;server</text>
<text text-anchor="middle" x="102.321" y="-18.5" font-family="Arial" font-size="10.00">&#45;lib/floating_window_manager.cpp</text>
</a>
</g>
</g>
<!-- Node10&#45;&gt;Node12 -->
<g id="edge3" class="edge"><title>Node10&#45;&gt;Node12</title>
<path fill="none" stroke="midnightblue" d="M231.626,-309.949C164.705,-300.075 57.202,-272.822 7.32095,-198 -4.83477,-179.766 -0.888081,-118.208 16.321,-89 28.8069,-67.8085 51.7845,-51.9517 70.8493,-41.651"/>
<polygon fill="midnightblue" stroke="midnightblue" points="231.211,-313.425 241.597,-311.336 232.175,-306.492 231.211,-313.425"/>
</g>
<!-- Node13 -->
<g id="node5" class="node"><title>Node13</title>
<g id="a_node5"><a xlink:href="tiling__window__manager_8cpp.html" target="_top" xlink:title="examples/example&#45;server\l&#45;lib/tiling_window_manager.cpp">
<polygon fill="white" stroke="black" points="226.821,-95 226.821,-125 377.821,-125 377.821,-95 226.821,-95"/>
<text text-anchor="start" x="234.821" y="-113" font-family="Arial" font-size="10.00">examples/example&#45;server</text>
<text text-anchor="middle" x="302.321" y="-102" font-family="Arial" font-size="10.00">&#45;lib/tiling_window_manager.cpp</text>
</a>
</g>
</g>
<!-- Node10&#45;&gt;Node13 -->
<g id="edge4" class="edge"><title>Node10&#45;&gt;Node13</title>
<path fill="none" stroke="midnightblue" d="M247.065,-296.076C234.911,-288.254 223.114,-277.96 216.321,-265 209.924,-252.797 212.182,-247.142 216.321,-234 230.409,-189.265 267.203,-146.629 287.808,-125.257"/>
<polygon fill="midnightblue" stroke="midnightblue" points="245.528,-299.234 255.912,-301.338 249.107,-293.218 245.528,-299.234"/>
</g>
<!-- Node14 -->
<g id="node6" class="node"><title>Node14</title>
<g id="a_node6"><a xlink:href="window__manager__tools_8h.html" target="_top" xlink:title="include/miral/miral\l/window_manager_tools.h">
<polygon fill="white" stroke="black" points="225.321,-234.5 225.321,-264.5 353.321,-264.5 353.321,-234.5 225.321,-234.5"/>
<text text-anchor="start" x="233.321" y="-252.5" font-family="Arial" font-size="10.00">include/miral/miral</text>
<text text-anchor="middle" x="289.321" y="-241.5" font-family="Arial" font-size="10.00">/window_manager_tools.h</text>
</a>
</g>
</g>
<!-- Node10&#45;&gt;Node14 -->
<g id="edge5" class="edge"><title>Node10&#45;&gt;Node14</title>
<path fill="none" stroke="midnightblue" d="M289.321,-291.108C289.321,-282.154 289.321,-272.323 289.321,-264.577"/>
<polygon fill="midnightblue" stroke="midnightblue" points="285.821,-291.396 289.321,-301.396 292.821,-291.396 285.821,-291.396"/>
</g>
<!-- Node14&#45;&gt;Node11 -->
<g id="edge6" class="edge"><title>Node14&#45;&gt;Node11</title>
<path fill="none" stroke="midnightblue" d="M363.458,-233.92C604.073,-196.7 707.809,-276.351 897.321,-131 927.558,-107.809 944.382,-64.0854 951.389,-41.6161"/>
<polygon fill="midnightblue" stroke="midnightblue" points="362.693,-230.498 353.373,-235.536 363.801,-237.41 362.693,-230.498"/>
</g>
<!-- Node14&#45;&gt;Node12 -->
<g id="edge10" class="edge"><title>Node14&#45;&gt;Node12</title>
<path fill="none" stroke="midnightblue" d="M276.403,-225.513C257.543,-193.064 220.237,-132.894 179.321,-89 162.289,-70.7285 139.639,-53.2947 123.32,-41.686"/>
<polygon fill="midnightblue" stroke="midnightblue" points="273.417,-227.343 281.434,-234.27 279.487,-223.855 273.417,-227.343"/>
</g>
<!-- Node14&#45;&gt;Node13 -->
<g id="edge14" class="edge"><title>Node14&#45;&gt;Node13</title>
<path fill="none" stroke="midnightblue" d="M291.61,-224.287C294.322,-195.607 298.749,-148.775 300.967,-125.326"/>
<polygon fill="midnightblue" stroke="midnightblue" points="288.12,-224.018 290.663,-234.303 295.089,-224.677 288.12,-224.018"/>
</g>
<!-- Node15 -->
<g id="node7" class="node"><title>Node15</title>
<g id="a_node7"><a xlink:href="decoration__provider_8h.html" target="_top" xlink:title="examples/example&#45;server\l&#45;lib/decoration_provider.h">
<polygon fill="white" stroke="black" points="16.321,-167.5 16.321,-197.5 144.321,-197.5 144.321,-167.5 16.321,-167.5"/>
<text text-anchor="start" x="24.321" y="-185.5" font-family="Arial" font-size="10.00">examples/example&#45;server</text>
<text text-anchor="middle" x="80.321" y="-174.5" font-family="Arial" font-size="10.00">&#45;lib/decoration_provider.h</text>
</a>
</g>
</g>
<!-- Node14&#45;&gt;Node15 -->
<g id="edge7" class="edge"><title>Node14&#45;&gt;Node15</title>
<path fill="none" stroke="midnightblue" d="M234.48,-231.444C200.601,-220.908 157.649,-207.549 125.693,-197.611"/>
<polygon fill="midnightblue" stroke="midnightblue" points="233.64,-234.848 244.228,-234.476 235.719,-228.164 233.64,-234.848"/>
</g>
<!-- Node17 -->
<g id="node9" class="node"><title>Node17</title>
<g id="a_node9"><a xlink:href="tiling__window__manager_8h.html" target="_top" xlink:title="examples/example&#45;server\l&#45;lib/tiling_window_manager.h">
<polygon fill="white" stroke="black" points="317.321,-167.5 317.321,-197.5 457.321,-197.5 457.321,-167.5 317.321,-167.5"/>
<text text-anchor="start" x="325.321" y="-185.5" font-family="Arial" font-size="10.00">examples/example&#45;server</text>
<text text-anchor="middle" x="387.321" y="-174.5" font-family="Arial" font-size="10.00">&#45;lib/tiling_window_manager.h</text>
</a>
</g>
</g>
<!-- Node14&#45;&gt;Node17 -->
<g id="edge11" class="edge"><title>Node14&#45;&gt;Node17</title>
<path fill="none" stroke="midnightblue" d="M319.123,-228.734C334.287,-218.676 352.366,-206.685 366.098,-197.577"/>
<polygon fill="midnightblue" stroke="midnightblue" points="316.984,-225.952 310.585,-234.396 320.854,-231.785 316.984,-225.952"/>
</g>
<!-- Node19 -->
<g id="node11" class="node"><title>Node19</title>
<g id="a_node11"><a xlink:href="canonical__window__manager_8h.html" target="_top" xlink:title="include/miral/miral\l/canonical_window_manager.h">
<polygon fill="white" stroke="black" points="475.821,-167.5 475.821,-197.5 624.821,-197.5 624.821,-167.5 475.821,-167.5"/>
<text text-anchor="start" x="483.821" y="-185.5" font-family="Arial" font-size="10.00">include/miral/miral</text>
<text text-anchor="middle" x="550.321" y="-174.5" font-family="Arial" font-size="10.00">/canonical_window_manager.h</text>
</a>
</g>
</g>
<!-- Node14&#45;&gt;Node19 -->
<g id="edge15" class="edge"><title>Node14&#45;&gt;Node19</title>
<path fill="none" stroke="midnightblue" d="M355.368,-232.052C398.037,-221.425 452.982,-207.741 493.66,-197.611"/>
<polygon fill="midnightblue" stroke="midnightblue" points="354.491,-228.663 345.633,-234.476 356.182,-235.456 354.491,-228.663"/>
</g>
<!-- Node15&#45;&gt;Node12 -->
<g id="edge9" class="edge"><title>Node15&#45;&gt;Node12</title>
<path fill="none" stroke="midnightblue" d="M49.524,-161.127C39.9202,-153.009 30.4951,-142.775 25.321,-131 17.8116,-113.91 17.2281,-105.821 25.321,-89 35.4086,-68.0327 56.5095,-51.9862 74.0752,-41.5497"/>
<polygon fill="midnightblue" stroke="midnightblue" points="47.5202,-164.004 57.5438,-167.436 51.8483,-158.502 47.5202,-164.004"/>
</g>
<!-- Node16 -->
<g id="node8" class="node"><title>Node16</title>
<g id="a_node8"><a xlink:href="decoration__provider_8cpp.html" target="_top" xlink:title="examples/example&#45;server\l&#45;lib/decoration_provider.cpp">
<polygon fill="white" stroke="black" points="34.321,-95 34.321,-125 170.321,-125 170.321,-95 34.321,-95"/>
<text text-anchor="start" x="42.321" y="-113" font-family="Arial" font-size="10.00">examples/example&#45;server</text>
<text text-anchor="middle" x="102.321" y="-102" font-family="Arial" font-size="10.00">&#45;lib/decoration_provider.cpp</text>
</a>
</g>
</g>
<!-- Node15&#45;&gt;Node16 -->
<g id="edge8" class="edge"><title>Node15&#45;&gt;Node16</title>
<path fill="none" stroke="midnightblue" d="M87.7902,-157.564C91.1426,-146.821 94.9845,-134.51 97.8755,-125.246"/>
<polygon fill="midnightblue" stroke="midnightblue" points="84.4108,-156.645 84.773,-167.233 91.093,-158.73 84.4108,-156.645"/>
</g>
<!-- Node17&#45;&gt;Node13 -->
<g id="edge13" class="edge"><title>Node17&#45;&gt;Node13</title>
<path fill="none" stroke="midnightblue" d="M362.349,-160.788C348.458,-149.266 331.538,-135.233 319.206,-125.005"/>
<polygon fill="midnightblue" stroke="midnightblue" points="360.188,-163.543 370.12,-167.233 364.657,-158.155 360.188,-163.543"/>
</g>
<!-- Node18 -->
<g id="node10" class="node"><title>Node18</title>
<g id="a_node10"><a xlink:href="shell__main_8cpp.html" target="_top" xlink:title="examples/miral&#45;shell\l/shell_main.cpp">
<polygon fill="white" stroke="black" points="405.321,-11.5 405.321,-41.5 511.321,-41.5 511.321,-11.5 405.321,-11.5"/>
<text text-anchor="start" x="413.321" y="-29.5" font-family="Arial" font-size="10.00">examples/miral&#45;shell</text>
<text text-anchor="middle" x="458.321" y="-18.5" font-family="Arial" font-size="10.00">/shell_main.cpp</text>
</a>
</g>
</g>
<!-- Node17&#45;&gt;Node18 -->
<g id="edge12" class="edge"><title>Node17&#45;&gt;Node18</title>
<path fill="none" stroke="midnightblue" d="M396.35,-157.625C403.665,-138.772 414.501,-111.916 425.321,-89 433.081,-72.5644 443.077,-54.2749 450.024,-41.9468"/>
<polygon fill="midnightblue" stroke="midnightblue" points="392.99,-156.61 392.67,-167.2 399.525,-159.121 392.99,-156.61"/>
</g>
<!-- Node20 -->
<g id="node12" class="node"><title>Node20</title>
<g id="a_node12"><a xlink:href="kiosk__window__manager_8h.html" target="_top" xlink:title="examples/miral&#45;kiosk\l/kiosk_window_manager.h">
<polygon fill="white" stroke="black" points="757.821,-95 757.821,-125 888.821,-125 888.821,-95 757.821,-95"/>
<text text-anchor="start" x="765.821" y="-113" font-family="Arial" font-size="10.00">examples/miral&#45;kiosk</text>
<text text-anchor="middle" x="823.321" y="-102" font-family="Arial" font-size="10.00">/kiosk_window_manager.h</text>
</a>
</g>
</g>
<!-- Node19&#45;&gt;Node20 -->
<g id="edge16" class="edge"><title>Node19&#45;&gt;Node20</title>
<path fill="none" stroke="midnightblue" d="M616.316,-164.859C654.839,-155.098 704.363,-142.466 748.321,-131 755.623,-129.095 763.319,-127.067 770.888,-125.06"/>
<polygon fill="midnightblue" stroke="midnightblue" points="615.099,-161.557 606.264,-167.404 616.817,-168.342 615.099,-161.557"/>
</g>
<!-- Node22 -->
<g id="node14" class="node"><title>Node22</title>
<g id="a_node14"><a xlink:href="floating__window__manager_8h.html" target="_top" xlink:title="examples/example&#45;server\l&#45;lib/floating_window_manager.h">
<polygon fill="white" stroke="black" points="434.321,-95 434.321,-125 586.321,-125 586.321,-95 434.321,-95"/>
<text text-anchor="start" x="442.321" y="-113" font-family="Arial" font-size="10.00">examples/example&#45;server</text>
<text text-anchor="middle" x="510.321" y="-102" font-family="Arial" font-size="10.00">&#45;lib/floating_window_manager.h</text>
</a>
</g>
</g>
<!-- Node19&#45;&gt;Node22 -->
<g id="edge19" class="edge"><title>Node19&#45;&gt;Node22</title>
<path fill="none" stroke="midnightblue" d="M537.116,-158.227C530.934,-147.33 523.768,-134.701 518.404,-125.246"/>
<polygon fill="midnightblue" stroke="midnightblue" points="534.247,-160.263 542.226,-167.233 540.336,-156.808 534.247,-160.263"/>
</g>
<!-- Node23 -->
<g id="node15" class="node"><title>Node23</title>
<g id="a_node15"><a xlink:href="canonical__window__manager__policy_8h.html" target="_top" xlink:title="include/test/mir_test\l_framework/canonical\l_window_manager_policy.h">
<polygon fill="white" stroke="black" points="604.821,-89.5 604.821,-130.5 739.821,-130.5 739.821,-89.5 604.821,-89.5"/>
<text text-anchor="start" x="612.821" y="-118.5" font-family="Arial" font-size="10.00">include/test/mir_test</text>
<text text-anchor="start" x="612.821" y="-107.5" font-family="Arial" font-size="10.00">_framework/canonical</text>
<text text-anchor="middle" x="672.321" y="-96.5" font-family="Arial" font-size="10.00">_window_manager_policy.h</text>
</a>
</g>
</g>
<!-- Node19&#45;&gt;Node23 -->
<g id="edge22" class="edge"><title>Node19&#45;&gt;Node23</title>
<path fill="none" stroke="midnightblue" d="M583.717,-162.201C600.668,-152.406 621.222,-140.528 638.265,-130.68"/>
<polygon fill="midnightblue" stroke="midnightblue" points="581.623,-159.369 574.716,-167.403 585.126,-165.43 581.623,-159.369"/>
</g>
<!-- Node20&#45;&gt;Node11 -->
<g id="edge18" class="edge"><title>Node20&#45;&gt;Node11</title>
<path fill="none" stroke="midnightblue" d="M854.723,-89.6114C878.636,-74.8473 910.996,-54.8675 932.484,-41.6003"/>
<polygon fill="midnightblue" stroke="midnightblue" points="852.683,-86.758 846.013,-94.9897 856.36,-92.7141 852.683,-86.758"/>
</g>
<!-- Node21 -->
<g id="node13" class="node"><title>Node21</title>
<g id="a_node13"><a xlink:href="kiosk__main_8cpp.html" target="_top" xlink:title="examples/miral&#45;kiosk\l/kiosk_main.cpp">
<polygon fill="white" stroke="black" points="757.821,-11.5 757.821,-41.5 866.821,-41.5 866.821,-11.5 757.821,-11.5"/>
<text text-anchor="start" x="765.821" y="-29.5" font-family="Arial" font-size="10.00">examples/miral&#45;kiosk</text>
<text text-anchor="middle" x="812.321" y="-18.5" font-family="Arial" font-size="10.00">/kiosk_main.cpp</text>
</a>
</g>
</g>
<!-- Node20&#45;&gt;Node21 -->
<g id="edge17" class="edge"><title>Node20&#45;&gt;Node21</title>
<path fill="none" stroke="midnightblue" d="M820.053,-84.7839C818.15,-70.6843 815.817,-53.4047 814.215,-41.5335"/>
<polygon fill="midnightblue" stroke="midnightblue" points="816.599,-85.3618 821.405,-94.8038 823.536,-84.4255 816.599,-85.3618"/>
</g>
<!-- Node22&#45;&gt;Node12 -->
<g id="edge21" class="edge"><title>Node22&#45;&gt;Node12</title>
<path fill="none" stroke="midnightblue" d="M430.304,-93.0162C355.287,-78.0312 244.235,-55.848 172.567,-41.5319"/>
<polygon fill="midnightblue" stroke="midnightblue" points="429.691,-96.4629 440.183,-94.9897 431.063,-89.5985 429.691,-96.4629"/>
</g>
<!-- Node22&#45;&gt;Node18 -->
<g id="edge20" class="edge"><title>Node22&#45;&gt;Node18</title>
<path fill="none" stroke="midnightblue" d="M495.659,-86.0195C486.526,-71.7055 475.072,-53.7538 467.275,-41.5335"/>
<polygon fill="midnightblue" stroke="midnightblue" points="492.934,-88.2561 501.263,-94.8038 498.835,-84.491 492.934,-88.2561"/>
</g>
<!-- Node24 -->
<g id="node16" class="node"><title>Node24</title>
<g id="a_node16"><a xlink:href="declarative__placement__window__manage__policy_8h.html" target="_top" xlink:title="include/test/mir_test\l_framework/declarative\l_placement_window_manage\l_policy.h">
<polygon fill="white" stroke="black" points="596.821,-0.5 596.821,-52.5 739.821,-52.5 739.821,-0.5 596.821,-0.5"/>
<text text-anchor="start" x="604.821" y="-40.5" font-family="Arial" font-size="10.00">include/test/mir_test</text>
<text text-anchor="start" x="604.821" y="-29.5" font-family="Arial" font-size="10.00">_framework/declarative</text>
<text text-anchor="start" x="604.821" y="-18.5" font-family="Arial" font-size="10.00">_placement_window_manage</text>
<text text-anchor="middle" x="668.321" y="-7.5" font-family="Arial" font-size="10.00">_policy.h</text>
</a>
</g>
</g>
<!-- Node23&#45;&gt;Node24 -->
<g id="edge23" class="edge"><title>Node23&#45;&gt;Node24</title>
<path fill="none" stroke="midnightblue" d="M670.855,-79.1211C670.427,-70.4126 669.965,-60.9894 669.553,-52.6073"/>
<polygon fill="midnightblue" stroke="midnightblue" points="667.367,-79.4548 671.353,-89.2711 674.358,-79.1115 667.367,-79.4548"/>
</g>
<!-- Node25&#45;&gt;Node17 -->
<g id="edge25" class="edge"><title>Node25&#45;&gt;Node17</title>
<path fill="none" stroke="midnightblue" d="M427.497,-227.024C418.558,-217.34 408.251,-206.174 400.315,-197.577"/>
<polygon fill="midnightblue" stroke="midnightblue" points="424.947,-229.422 434.302,-234.396 430.091,-224.674 424.947,-229.422"/>
</g>
<!-- Node25&#45;&gt;Node19 -->
<g id="edge26" class="edge"><title>Node25&#45;&gt;Node19</title>
<path fill="none" stroke="midnightblue" d="M478.197,-229.015C494.226,-218.9 513.447,-206.77 528.015,-197.577"/>
<polygon fill="midnightblue" stroke="midnightblue" points="476.259,-226.099 469.67,-234.396 479.995,-232.019 476.259,-226.099"/>
</g>
<!-- Node26&#45;&gt;Node10 -->
<g id="edge28" class="edge"><title>Node26&#45;&gt;Node10</title>
<path fill="none" stroke="midnightblue" d="M289.321,-358.108C289.321,-349.154 289.321,-339.323 289.321,-331.577"/>
<polygon fill="midnightblue" stroke="midnightblue" points="285.821,-358.396 289.321,-368.396 292.821,-358.396 285.821,-358.396"/>
</g>
</g>
</svg>
