<?xml version="1.0" encoding="UTF-8" standalone="no"?>
<!DOCTYPE svg PUBLIC "-//W3C//DTD SVG 1.1//EN"
 "http://www.w3.org/Graphics/SVG/1.1/DTD/svg11.dtd">
<!-- Generated by graphviz version 2.40.1 (20161225.0304)
 -->
<!-- Title: include/core/mir/geometry/rectangle.h Pages: 1 -->
<svg width="815pt" height="508pt"
 viewBox="0.00 0.00 814.56 508.00" xmlns="http://www.w3.org/2000/svg" xmlns:xlink="http://www.w3.org/1999/xlink">
<g id="graph0" class="graph" transform="scale(1 1) rotate(0) translate(4 504)">
<title>include/core/mir/geometry/rectangle.h</title>
<polygon fill="#ffffff" stroke="transparent" points="-4,4 -4,-504 810.5558,-504 810.5558,4 -4,4"/>
<!-- Node6 -->
<g id="node1" class="node">
<title>Node6</title>
<polygon fill="#bfbfbf" stroke="#000000" points="423.1661,-469.5 423.1661,-499.5 552.1661,-499.5 552.1661,-469.5 423.1661,-469.5"/>
<text text-anchor="start" x="431.1661" y="-487.5" font-family="Arial" font-size="10.00" fill="#000000">include/core/mir/geometry</text>
<text text-anchor="middle" x="487.6661" y="-476.5" font-family="Arial" font-size="10.00" fill="#000000">/rectangle.h</text>
</g>
<!-- Node7 -->
<g id="node2" class="node">
<title>Node7</title>
<g id="a_node2"><a xlink:href="decoration__provider_8h.html" target="_top" xlink:title="examples/example&#45;server\l&#45;lib/decoration_provider.h">
<polygon fill="#ffffff" stroke="#000000" points="20.6661,-134.5 20.6661,-164.5 148.6661,-164.5 148.6661,-134.5 20.6661,-134.5"/>
<text text-anchor="start" x="28.6661" y="-152.5" font-family="Arial" font-size="10.00" fill="#000000">examples/example&#45;server</text>
<text text-anchor="middle" x="84.6661" y="-141.5" font-family="Arial" font-size="10.00" fill="#000000">&#45;lib/decoration_provider.h</text>
</a>
</g>
</g>
<!-- Node6&#45;&gt;Node7 -->
<g id="edge1" class="edge">
<title>Node6&#45;&gt;Node7</title>
<path fill="none" stroke="#191970" d="M412.972,-473.2848C303.844,-454.7634 113.6661,-413.4549 113.6661,-350.5 113.6661,-350.5 113.6661,-350.5 113.6661,-283.5 113.6661,-239.4655 98.5213,-189.0955 90.1207,-164.543"/>
<polygon fill="#191970" stroke="#191970" points="412.5069,-476.7555 422.9472,-474.9528 413.6614,-469.8514 412.5069,-476.7555"/>
</g>
<!-- Node10 -->
<g id="node5" class="node">
<title>Node10</title>
<g id="a_node5"><a xlink:href="rectangles_8h.html" target="_top" xlink:title="include/core/mir/geometry\l/rectangles.h">
<polygon fill="#ffffff" stroke="#000000" points="377.1661,-402.5 377.1661,-432.5 506.1661,-432.5 506.1661,-402.5 377.1661,-402.5"/>
<text text-anchor="start" x="385.1661" y="-420.5" font-family="Arial" font-size="10.00" fill="#000000">include/core/mir/geometry</text>
<text text-anchor="middle" x="441.6661" y="-409.5" font-family="Arial" font-size="10.00" fill="#000000">/rectangles.h</text>
</a>
</g>
</g>
<!-- Node6&#45;&gt;Node10 -->
<g id="edge4" class="edge">
<title>Node6&#45;&gt;Node10</title>
<path fill="none" stroke="#191970" d="M471.3762,-460.7735C464.9512,-451.4154 457.7606,-440.9421 452.0629,-432.6432"/>
<polygon fill="#191970" stroke="#191970" points="468.6824,-463.0337 477.228,-469.2967 474.4533,-459.0716 468.6824,-463.0337"/>
</g>
<!-- Node23 -->
<g id="node18" class="node">
<title>Node23</title>
<g id="a_node18"><a xlink:href="event__builders_8h.html" target="_top" xlink:title="include/client/mir\l/events/event_builders.h">
<polygon fill="#ffffff" stroke="#000000" points="563.1661,-402.5 563.1661,-432.5 686.1661,-432.5 686.1661,-402.5 563.1661,-402.5"/>
<text text-anchor="start" x="571.1661" y="-420.5" font-family="Arial" font-size="10.00" fill="#000000">include/client/mir</text>
<text text-anchor="middle" x="624.6661" y="-409.5" font-family="Arial" font-size="10.00" fill="#000000">/events/event_builders.h</text>
</a>
</g>
</g>
<!-- Node6&#45;&gt;Node23 -->
<g id="edge29" class="edge">
<title>Node6&#45;&gt;Node23</title>
<path fill="none" stroke="#191970" d="M527.4333,-465.0518C548.4845,-454.7567 573.9574,-442.2991 593.5492,-432.7177"/>
<polygon fill="#191970" stroke="#191970" points="525.8572,-461.9264 518.4115,-469.4639 528.9325,-468.2147 525.8572,-461.9264"/>
</g>
<!-- Node24 -->
<g id="node19" class="node">
<title>Node24</title>
<g id="a_node19"><a xlink:href="output_8h.html" target="_top" xlink:title="include/miral/miral\l/output.h">
<polygon fill="#ffffff" stroke="#000000" points="685.1661,-335.5 685.1661,-365.5 780.1661,-365.5 780.1661,-335.5 685.1661,-335.5"/>
<text text-anchor="start" x="693.1661" y="-353.5" font-family="Arial" font-size="10.00" fill="#000000">include/miral/miral</text>
<text text-anchor="middle" x="732.6661" y="-342.5" font-family="Arial" font-size="10.00" fill="#000000">/output.h</text>
</a>
</g>
</g>
<!-- Node6&#45;&gt;Node24 -->
<g id="edge30" class="edge">
<title>Node6&#45;&gt;Node24</title>
<path fill="none" stroke="#191970" d="M501.2688,-460.8221C513.1131,-442.2365 531.9306,-417.0642 554.6661,-402 594.2221,-375.7908 647.2874,-362.6869 685.163,-356.2873"/>
<polygon fill="#191970" stroke="#191970" points="498.2853,-458.9921 496.0278,-469.3437 504.2479,-462.6593 498.2853,-458.9921"/>
</g>
<!-- Node8 -->
<g id="node3" class="node">
<title>Node8</title>
<g id="a_node3"><a xlink:href="decoration__provider_8cpp.html" target="_top" xlink:title="examples/example&#45;server\l&#45;lib/decoration_provider.cpp">
<polygon fill="#ffffff" stroke="#000000" points="14.6661,-67.5 14.6661,-97.5 150.6661,-97.5 150.6661,-67.5 14.6661,-67.5"/>
<text text-anchor="start" x="22.6661" y="-85.5" font-family="Arial" font-size="10.00" fill="#000000">examples/example&#45;server</text>
<text text-anchor="middle" x="82.6661" y="-74.5" font-family="Arial" font-size="10.00" fill="#000000">&#45;lib/decoration_provider.cpp</text>
</a>
</g>
</g>
<!-- Node7&#45;&gt;Node8 -->
<g id="edge2" class="edge">
<title>Node7&#45;&gt;Node8</title>
<path fill="none" stroke="#191970" d="M83.9056,-124.0249C83.64,-115.128 83.3505,-105.4287 83.1181,-97.6432"/>
<polygon fill="#191970" stroke="#191970" points="80.4153,-124.4056 84.2122,-134.2967 87.4122,-124.1967 80.4153,-124.4056"/>
</g>
<!-- Node9 -->
<g id="node4" class="node">
<title>Node9</title>
<g id="a_node4"><a xlink:href="floating__window__manager_8cpp.html" target="_top" xlink:title="examples/example&#45;server\l&#45;lib/floating_window_manager.cpp">
<polygon fill="#ffffff" stroke="#000000" points="118.6661,-.5 118.6661,-30.5 280.6661,-30.5 280.6661,-.5 118.6661,-.5"/>
<text text-anchor="start" x="126.6661" y="-18.5" font-family="Arial" font-size="10.00" fill="#000000">examples/example&#45;server</text>
<text text-anchor="middle" x="199.6661" y="-7.5" font-family="Arial" font-size="10.00" fill="#000000">&#45;lib/floating_window_manager.cpp</text>
</a>
</g>
</g>
<!-- Node7&#45;&gt;Node9 -->
<g id="edge3" class="edge">
<title>Node7&#45;&gt;Node9</title>
<path fill="none" stroke="#191970" d="M43.5126,-129.5157C16.087,-113.4679 -11.9531,-89.9066 5.6661,-67 19.8475,-48.5627 71.9957,-35.3497 118.6559,-26.9262"/>
<polygon fill="#191970" stroke="#191970" points="41.9007,-132.6243 52.3367,-134.4516 45.318,-126.5152 41.9007,-132.6243"/>
</g>
<!-- Node11 -->
<g id="node6" class="node">
<title>Node11</title>
<g id="a_node6"><a xlink:href="window__info_8h.html" target="_top" xlink:title="include/miral/miral\l/window_info.h">
<polygon fill="#ffffff" stroke="#000000" points="474.1661,-268.5 474.1661,-298.5 569.1661,-298.5 569.1661,-268.5 474.1661,-268.5"/>
<text text-anchor="start" x="482.1661" y="-286.5" font-family="Arial" font-size="10.00" fill="#000000">include/miral/miral</text>
<text text-anchor="middle" x="521.6661" y="-275.5" font-family="Arial" font-size="10.00" fill="#000000">/window_info.h</text>
</a>
</g>
</g>
<!-- Node10&#45;&gt;Node11 -->
<g id="edge5" class="edge">
<title>Node10&#45;&gt;Node11</title>
<path fill="none" stroke="#191970" d="M479.8109,-396.5448C491.1545,-388.4629 502.4641,-378.1932 509.6661,-366 522.0323,-345.0637 523.3358,-316.0765 522.7708,-298.6217"/>
<polygon fill="#191970" stroke="#191970" points="477.5715,-393.8315 471.1973,-402.2943 481.4578,-399.6536 477.5715,-393.8315"/>
</g>
<!-- Node21 -->
<g id="node16" class="node">
<title>Node21</title>
<g id="a_node16"><a xlink:href="window__management__policy_8h.html" target="_top" xlink:title="include/miral/miral\l/window_management_policy.h">
<polygon fill="#ffffff" stroke="#000000" points="277.6661,-201.5 277.6661,-231.5 429.6661,-231.5 429.6661,-201.5 277.6661,-201.5"/>
<text text-anchor="start" x="285.6661" y="-219.5" font-family="Arial" font-size="10.00" fill="#000000">include/miral/miral</text>
<text text-anchor="middle" x="353.6661" y="-208.5" font-family="Arial" font-size="10.00" fill="#000000">/window_management_policy.h</text>
</a>
</g>
</g>
<!-- Node10&#45;&gt;Node21 -->
<g id="edge24" class="edge">
<title>Node10&#45;&gt;Node21</title>
<path fill="none" stroke="#191970" d="M403.1738,-396.963C391.5415,-388.8579 379.9383,-378.4683 372.6661,-366 347.3571,-322.6073 349.3241,-260.2099 351.8894,-231.7232"/>
<polygon fill="#191970" stroke="#191970" points="401.3012,-399.9203 411.5876,-402.4581 405.1289,-394.0595 401.3012,-399.9203"/>
</g>
<!-- Node22 -->
<g id="node17" class="node">
<title>Node22</title>
<g id="a_node17"><a xlink:href="window__specification_8h.html" target="_top" xlink:title="include/miral/miral\l/window_specification.h">
<polygon fill="#ffffff" stroke="#000000" points="382.1661,-335.5 382.1661,-365.5 501.1661,-365.5 501.1661,-335.5 382.1661,-335.5"/>
<text text-anchor="start" x="390.1661" y="-353.5" font-family="Arial" font-size="10.00" fill="#000000">include/miral/miral</text>
<text text-anchor="middle" x="441.6661" y="-342.5" font-family="Arial" font-size="10.00" fill="#000000">/window_specification.h</text>
</a>
</g>
</g>
<!-- Node10&#45;&gt;Node22 -->
<g id="edge27" class="edge">
<title>Node10&#45;&gt;Node22</title>
<path fill="none" stroke="#191970" d="M441.6661,-392.0249C441.6661,-383.128 441.6661,-373.4287 441.6661,-365.6432"/>
<polygon fill="#191970" stroke="#191970" points="438.1662,-392.2966 441.6661,-402.2967 445.1662,-392.2967 438.1662,-392.2966"/>
</g>
<!-- Node11&#45;&gt;Node9 -->
<g id="edge7" class="edge">
<title>Node11&#45;&gt;Node9</title>
<path fill="none" stroke="#191970" d="M463.8907,-277.7396C398.886,-270.2405 298.4693,-255.2748 268.6661,-232 204.3061,-181.7381 198.9144,-71.2063 199.2083,-30.7347"/>
<polygon fill="#191970" stroke="#191970" points="463.6743,-281.2373 474.0033,-278.8792 464.4582,-274.2814 463.6743,-281.2373"/>
</g>
<!-- Node12 -->
<g id="node7" class="node">
<title>Node12</title>
<g id="a_node7"><a xlink:href="kiosk__window__manager_8cpp.html" target="_top" xlink:title="examples/miral&#45;kiosk\l/kiosk_window_manager.cpp">
<polygon fill="#ffffff" stroke="#000000" points="559.1661,-.5 559.1661,-30.5 700.1661,-30.5 700.1661,-.5 559.1661,-.5"/>
<text text-anchor="start" x="567.1661" y="-18.5" font-family="Arial" font-size="10.00" fill="#000000">examples/miral&#45;kiosk</text>
<text text-anchor="middle" x="629.6661" y="-7.5" font-family="Arial" font-size="10.00" fill="#000000">/kiosk_window_manager.cpp</text>
</a>
</g>
</g>
<!-- Node11&#45;&gt;Node12 -->
<g id="edge6" class="edge">
<title>Node11&#45;&gt;Node12</title>
<path fill="none" stroke="#191970" d="M579.0375,-265.073C646.9793,-239.7264 756.6032,-186.8489 801.6661,-98 824.811,-52.3659 757.3716,-31.7645 700.2558,-22.6019"/>
<polygon fill="#191970" stroke="#191970" points="577.524,-261.8994 569.3284,-268.6139 579.9224,-268.4757 577.524,-261.8994"/>
</g>
<!-- Node13 -->
<g id="node8" class="node">
<title>Node13</title>
<g id="a_node8"><a xlink:href="tiling__window__manager_8cpp.html" target="_top" xlink:title="examples/example&#45;server\l&#45;lib/tiling_window_manager.cpp">
<polygon fill="#ffffff" stroke="#000000" points="641.1661,-67.5 641.1661,-97.5 792.1661,-97.5 792.1661,-67.5 641.1661,-67.5"/>
<text text-anchor="start" x="649.1661" y="-85.5" font-family="Arial" font-size="10.00" fill="#000000">examples/example&#45;server</text>
<text text-anchor="middle" x="716.6661" y="-74.5" font-family="Arial" font-size="10.00" fill="#000000">&#45;lib/tiling_window_manager.cpp</text>
</a>
</g>
</g>
<!-- Node11&#45;&gt;Node13 -->
<g id="edge8" class="edge">
<title>Node11&#45;&gt;Node13</title>
<path fill="none" stroke="#191970" d="M550.1905,-262.1758C561.9906,-253.1157 575.6876,-242.2858 587.6661,-232 620.5831,-203.7345 630.2675,-197.8023 658.6661,-165 677.6893,-143.0269 696.4291,-114.8613 707.2543,-97.7731"/>
<polygon fill="#191970" stroke="#191970" points="547.8186,-259.5828 541.9851,-268.427 552.0607,-265.1509 547.8186,-259.5828"/>
</g>
<!-- Node14 -->
<g id="node9" class="node">
<title>Node14</title>
<g id="a_node9"><a xlink:href="window__manager__tools_8h.html" target="_top" xlink:title="include/miral/miral\l/window_manager_tools.h">
<polygon fill="#ffffff" stroke="#000000" points="450.6661,-201.5 450.6661,-231.5 578.6661,-231.5 578.6661,-201.5 450.6661,-201.5"/>
<text text-anchor="start" x="458.6661" y="-219.5" font-family="Arial" font-size="10.00" fill="#000000">include/miral/miral</text>
<text text-anchor="middle" x="514.6661" y="-208.5" font-family="Arial" font-size="10.00" fill="#000000">/window_manager_tools.h</text>
</a>
</g>
</g>
<!-- Node11&#45;&gt;Node14 -->
<g id="edge9" class="edge">
<title>Node11&#45;&gt;Node14</title>
<path fill="none" stroke="#191970" d="M519.0351,-258.3179C518.0973,-249.3414 517.0705,-239.5143 516.2482,-231.6432"/>
<polygon fill="#191970" stroke="#191970" points="515.5574,-258.7145 520.0777,-268.2967 522.5195,-257.9871 515.5574,-258.7145"/>
</g>
<!-- Node14&#45;&gt;Node7 -->
<g id="edge11" class="edge">
<title>Node14&#45;&gt;Node7</title>
<path fill="none" stroke="#191970" d="M440.4767,-201.3181C439.8708,-201.211 439.2672,-201.1049 438.6661,-201 384.3687,-191.5214 235.182,-170.4285 148.7941,-158.3838"/>
<polygon fill="#191970" stroke="#191970" points="439.9796,-204.7851 450.4452,-203.1357 441.2353,-197.8987 439.9796,-204.7851"/>
</g>
<!-- Node14&#45;&gt;Node9 -->
<g id="edge12" class="edge">
<title>Node14&#45;&gt;Node9</title>
<path fill="none" stroke="#191970" d="M440.3742,-201.2115C367.953,-186.2782 268.5416,-165.6871 267.6661,-165 223.7013,-130.4976 207.1972,-61.1928 201.876,-30.6015"/>
<polygon fill="#191970" stroke="#191970" points="439.9002,-204.6873 450.4009,-203.2784 441.3135,-197.8314 439.9002,-204.6873"/>
</g>
<!-- Node14&#45;&gt;Node12 -->
<g id="edge10" class="edge">
<title>Node14&#45;&gt;Node12</title>
<path fill="none" stroke="#191970" d="M558.0992,-196.3107C571.2611,-188.2653 584.6135,-177.8235 593.6661,-165 623.3809,-122.9069 628.7528,-59.3103 629.5972,-30.5581"/>
<polygon fill="#191970" stroke="#191970" points="555.9994,-193.4805 549.0727,-201.4975 559.487,-199.5498 555.9994,-193.4805"/>
</g>
<!-- Node14&#45;&gt;Node13 -->
<g id="edge16" class="edge">
<title>Node14&#45;&gt;Node13</title>
<path fill="none" stroke="#191970" d="M564.4313,-197.5684C584.5112,-188.9377 607.4307,-177.781 626.6661,-165 656.5021,-145.1753 686.1678,-115.5714 702.8853,-97.7396"/>
<polygon fill="#191970" stroke="#191970" points="562.9947,-194.3756 555.1307,-201.4754 565.7058,-200.8293 562.9947,-194.3756"/>
</g>
<!-- Node15 -->
<g id="node10" class="node">
<title>Node15</title>
<g id="a_node10"><a xlink:href="tiling__window__manager_8h.html" target="_top" xlink:title="examples/example&#45;server\l&#45;lib/tiling_window_manager.h">
<polygon fill="#ffffff" stroke="#000000" points="444.6661,-134.5 444.6661,-164.5 584.6661,-164.5 584.6661,-134.5 444.6661,-134.5"/>
<text text-anchor="start" x="452.6661" y="-152.5" font-family="Arial" font-size="10.00" fill="#000000">examples/example&#45;server</text>
<text text-anchor="middle" x="514.6661" y="-141.5" font-family="Arial" font-size="10.00" fill="#000000">&#45;lib/tiling_window_manager.h</text>
</a>
</g>
</g>
<!-- Node14&#45;&gt;Node15 -->
<g id="edge13" class="edge">
<title>Node14&#45;&gt;Node15</title>
<path fill="none" stroke="#191970" d="M514.6661,-191.0249C514.6661,-182.128 514.6661,-172.4287 514.6661,-164.6432"/>
<polygon fill="#191970" stroke="#191970" points="511.1662,-191.2966 514.6661,-201.2967 518.1662,-191.2967 511.1662,-191.2966"/>
</g>
<!-- Node17 -->
<g id="node12" class="node">
<title>Node17</title>
<g id="a_node12"><a xlink:href="canonical__window__manager_8h.html" target="_top" xlink:title="include/miral/miral\l/canonical_window_manager.h">
<polygon fill="#ffffff" stroke="#000000" points="277.1661,-134.5 277.1661,-164.5 426.1661,-164.5 426.1661,-134.5 277.1661,-134.5"/>
<text text-anchor="start" x="285.1661" y="-152.5" font-family="Arial" font-size="10.00" fill="#000000">include/miral/miral</text>
<text text-anchor="middle" x="351.6661" y="-141.5" font-family="Arial" font-size="10.00" fill="#000000">/canonical_window_manager.h</text>
</a>
</g>
</g>
<!-- Node14&#45;&gt;Node17 -->
<g id="edge17" class="edge">
<title>Node14&#45;&gt;Node17</title>
<path fill="none" stroke="#191970" d="M468.6603,-197.5897C443.2667,-187.1518 412.1596,-174.3654 388.406,-164.6017"/>
<polygon fill="#191970" stroke="#191970" points="467.5059,-200.8992 478.0857,-201.4639 470.1672,-194.4248 467.5059,-200.8992"/>
</g>
<!-- Node15&#45;&gt;Node13 -->
<g id="edge15" class="edge">
<title>Node15&#45;&gt;Node13</title>
<path fill="none" stroke="#191970" d="M569.6103,-131.2759C601.4461,-120.7165 641.0503,-107.5805 671.1356,-97.6017"/>
<polygon fill="#191970" stroke="#191970" points="568.3885,-127.9936 559.9988,-134.4639 570.5922,-134.6377 568.3885,-127.9936"/>
</g>
<!-- Node16 -->
<g id="node11" class="node">
<title>Node16</title>
<g id="a_node11"><a xlink:href="shell__main_8cpp.html" target="_top" xlink:title="examples/miral&#45;shell\l/shell_main.cpp">
<polygon fill="#ffffff" stroke="#000000" points="304.6661,-.5 304.6661,-30.5 410.6661,-30.5 410.6661,-.5 304.6661,-.5"/>
<text text-anchor="start" x="312.6661" y="-18.5" font-family="Arial" font-size="10.00" fill="#000000">examples/miral&#45;shell</text>
<text text-anchor="middle" x="357.6661" y="-7.5" font-family="Arial" font-size="10.00" fill="#000000">/shell_main.cpp</text>
</a>
</g>
</g>
<!-- Node15&#45;&gt;Node16 -->
<g id="edge14" class="edge">
<title>Node15&#45;&gt;Node16</title>
<path fill="none" stroke="#191970" d="M483.8749,-128.5555C471.1311,-119.5342 456.3882,-108.6308 443.6661,-98 417.3111,-75.9773 388.9747,-47.8264 372.3081,-30.7548"/>
<polygon fill="#191970" stroke="#191970" points="482.1294,-131.606 492.3287,-134.4739 486.1439,-125.8715 482.1294,-131.606"/>
</g>
<!-- Node18 -->
<g id="node13" class="node">
<title>Node18</title>
<g id="a_node13"><a xlink:href="kiosk__window__manager_8h.html" target="_top" xlink:title="examples/miral&#45;kiosk\l/kiosk_window_manager.h">
<polygon fill="#ffffff" stroke="#000000" points="453.1661,-67.5 453.1661,-97.5 584.1661,-97.5 584.1661,-67.5 453.1661,-67.5"/>
<text text-anchor="start" x="461.1661" y="-85.5" font-family="Arial" font-size="10.00" fill="#000000">examples/miral&#45;kiosk</text>
<text text-anchor="middle" x="518.6661" y="-74.5" font-family="Arial" font-size="10.00" fill="#000000">/kiosk_window_manager.h</text>
</a>
</g>
</g>
<!-- Node17&#45;&gt;Node18 -->
<g id="edge18" class="edge">
<title>Node17&#45;&gt;Node18</title>
<path fill="none" stroke="#191970" d="M398.4573,-130.7275C424.5367,-120.2645 456.5809,-107.4084 481.0245,-97.6017"/>
<polygon fill="#191970" stroke="#191970" points="397.1218,-127.492 389.1441,-134.4639 399.7283,-133.9887 397.1218,-127.492"/>
</g>
<!-- Node20 -->
<g id="node15" class="node">
<title>Node20</title>
<g id="a_node15"><a xlink:href="floating__window__manager_8h.html" target="_top" xlink:title="examples/example&#45;server\l&#45;lib/floating_window_manager.h">
<polygon fill="#ffffff" stroke="#000000" points="244.6661,-67.5 244.6661,-97.5 396.6661,-97.5 396.6661,-67.5 244.6661,-67.5"/>
<text text-anchor="start" x="252.6661" y="-85.5" font-family="Arial" font-size="10.00" fill="#000000">examples/example&#45;server</text>
<text text-anchor="middle" x="320.6661" y="-74.5" font-family="Arial" font-size="10.00" fill="#000000">&#45;lib/floating_window_manager.h</text>
</a>
</g>
</g>
<!-- Node17&#45;&gt;Node20 -->
<g id="edge21" class="edge">
<title>Node17&#45;&gt;Node20</title>
<path fill="none" stroke="#191970" d="M340.4197,-125.1932C336.1588,-115.9844 331.4332,-105.771 327.6726,-97.6432"/>
<polygon fill="#191970" stroke="#191970" points="337.256,-126.6908 344.6317,-134.2967 343.6089,-123.7513 337.256,-126.6908"/>
</g>
<!-- Node18&#45;&gt;Node12 -->
<g id="edge20" class="edge">
<title>Node18&#45;&gt;Node12</title>
<path fill="none" stroke="#191970" d="M552.5027,-62.0761C569.2333,-51.9774 589.0793,-39.9983 604.4546,-30.7177"/>
<polygon fill="#191970" stroke="#191970" points="550.3293,-59.2998 543.5766,-67.4639 553.9466,-65.2927 550.3293,-59.2998"/>
</g>
<!-- Node19 -->
<g id="node14" class="node">
<title>Node19</title>
<g id="a_node14"><a xlink:href="kiosk__main_8cpp.html" target="_top" xlink:title="examples/miral&#45;kiosk\l/kiosk_main.cpp">
<polygon fill="#ffffff" stroke="#000000" points="432.1661,-.5 432.1661,-30.5 541.1661,-30.5 541.1661,-.5 432.1661,-.5"/>
<text text-anchor="start" x="440.1661" y="-18.5" font-family="Arial" font-size="10.00" fill="#000000">examples/miral&#45;kiosk</text>
<text text-anchor="middle" x="486.6661" y="-7.5" font-family="Arial" font-size="10.00" fill="#000000">/kiosk_main.cpp</text>
</a>
</g>
</g>
<!-- Node18&#45;&gt;Node19 -->
<g id="edge19" class="edge">
<title>Node18&#45;&gt;Node19</title>
<path fill="none" stroke="#191970" d="M507.0569,-58.1932C502.6586,-48.9844 497.7806,-38.771 493.8986,-30.6432"/>
<polygon fill="#191970" stroke="#191970" points="503.9367,-59.7815 511.4048,-67.2967 510.2532,-56.7646 503.9367,-59.7815"/>
</g>
<!-- Node20&#45;&gt;Node9 -->
<g id="edge23" class="edge">
<title>Node20&#45;&gt;Node9</title>
<path fill="none" stroke="#191970" d="M284.539,-62.4958C266.1451,-52.3107 244.1421,-40.1272 227.1488,-30.7177"/>
<polygon fill="#191970" stroke="#191970" points="283.0674,-65.6816 293.5113,-67.4639 286.4584,-59.5578 283.0674,-65.6816"/>
</g>
<!-- Node20&#45;&gt;Node16 -->
<g id="edge22" class="edge">
<title>Node20&#45;&gt;Node16</title>
<path fill="none" stroke="#191970" d="M333.9288,-58.4837C339.0558,-49.1996 344.7677,-38.8565 349.3034,-30.6432"/>
<polygon fill="#191970" stroke="#191970" points="330.8324,-56.8508 329.0619,-67.2967 336.9601,-60.2348 330.8324,-56.8508"/>
</g>
<!-- Node21&#45;&gt;Node15 -->
<g id="edge25" class="edge">
<title>Node21&#45;&gt;Node15</title>
<path fill="none" stroke="#191970" d="M399.1073,-197.5897C424.1894,-187.1518 454.9148,-174.3654 478.3769,-164.6017"/>
<polygon fill="#191970" stroke="#191970" points="397.6853,-194.3904 389.7976,-201.4639 400.3748,-200.8531 397.6853,-194.3904"/>
</g>
<!-- Node21&#45;&gt;Node17 -->
<g id="edge26" class="edge">
<title>Node21&#45;&gt;Node17</title>
<path fill="none" stroke="#191970" d="M352.9056,-191.0249C352.64,-182.128 352.3505,-172.4287 352.1181,-164.6432"/>
<polygon fill="#191970" stroke="#191970" points="349.4153,-191.4056 353.2122,-201.2967 356.4122,-191.1967 349.4153,-191.4056"/>
</g>
<!-- Node22&#45;&gt;Node11 -->
<g id="edge28" class="edge">
<title>Node22&#45;&gt;Node11</title>
<path fill="none" stroke="#191970" d="M467.5994,-328.7808C479.3517,-318.9383 492.9604,-307.541 503.5847,-298.6432"/>
<polygon fill="#191970" stroke="#191970" points="465.2386,-326.1927 459.8193,-335.2967 469.7331,-331.5592 465.2386,-326.1927"/>
</g>
<!-- Node24&#45;&gt;Node13 -->
<g id="edge31" class="edge">
<title>Node24&#45;&gt;Node13</title>
<path fill="none" stroke="#191970" d="M731.1467,-325.0511C727.8619,-270.0306 720.1841,-141.4277 717.5622,-97.5103"/>
<polygon fill="#191970" stroke="#191970" points="727.6702,-325.5497 731.76,-335.3233 734.6577,-325.1324 727.6702,-325.5497"/>
</g>
</g>
</svg>
