<?xml version="1.0" encoding="UTF-8" standalone="no"?>
<!DOCTYPE svg PUBLIC "-//W3C//DTD SVG 1.1//EN"
 "http://www.w3.org/Graphics/SVG/1.1/DTD/svg11.dtd">
<!-- Generated by graphviz version 2.43.0 (0)
 -->
<!-- Title: include/core/mir/geometry/rectangle_generic.h Pages: 1 -->
<svg width="341pt" height="207pt"
 viewBox="0.00 0.00 340.68 207.00" xmlns="http://www.w3.org/2000/svg" xmlns:xlink="http://www.w3.org/1999/xlink">
<g id="graph0" class="graph" transform="scale(1 1) rotate(0) translate(4 203)">
<title>include/core/mir/geometry/rectangle_generic.h</title>
<polygon fill="white" stroke="transparent" points="-4,4 -4,-203 336.68,-203 336.68,4 -4,4"/>
<!-- Node1 -->
<g id="node1" class="node">
<title>Node1</title>
<g id="a_node1"><a xlink:title=" ">
<polygon fill="#bfbfbf" stroke="black" points="136,-168.5 136,-198.5 265,-198.5 265,-168.5 136,-168.5"/>
<text text-anchor="start" x="144" y="-186.5" font-family="Arial" font-size="10.00">include/core/mir/geometry</text>
<text text-anchor="middle" x="200.5" y="-175.5" font-family="Arial" font-size="10.00">/rectangle_generic.h</text>
</a>
</g>
</g>
<!-- Node2 -->
<g id="node2" class="node">
<title>Node2</title>
<g id="a_node2"><a xlink:href="point__generic_8h.html" target="_top" xlink:title=" ">
<polygon fill="white" stroke="black" points="0,-112.5 0,-131.5 83,-131.5 83,-112.5 0,-112.5"/>
<text text-anchor="middle" x="41.5" y="-119.5" font-family="Arial" font-size="10.00">point_generic.h</text>
</a>
</g>
</g>
<!-- Node1&#45;&gt;Node2 -->
<g id="edge1" class="edge">
<title>Node1&#45;&gt;Node2</title>
<path fill="none" stroke="midnightblue" d="M162.82,-168.4C135.9,-158.33 100.05,-144.91 74.31,-135.28"/>
<polygon fill="midnightblue" stroke="midnightblue" points="75.23,-131.88 64.64,-131.66 72.77,-138.44 75.23,-131.88"/>
</g>
<!-- Node6 -->
<g id="node6" class="node">
<title>Node6</title>
<g id="a_node6"><a xlink:title=" ">
<polygon fill="white" stroke="#bfbfbf" points="224.5,-56.5 224.5,-75.5 276.5,-75.5 276.5,-56.5 224.5,-56.5"/>
<text text-anchor="middle" x="250.5" y="-63.5" font-family="Arial" font-size="10.00">ostream</text>
</a>
</g>
</g>
<!-- Node1&#45;&gt;Node6 -->
<g id="edge12" class="edge">
<title>Node1&#45;&gt;Node6</title>
<path fill="none" stroke="midnightblue" d="M265.16,-172.67C289.17,-165.54 314.05,-153.23 328.5,-132 343.62,-109.77 313.04,-90.96 285.85,-79.38"/>
<polygon fill="midnightblue" stroke="midnightblue" points="287.03,-76.09 276.45,-75.59 284.41,-82.58 287.03,-76.09"/>
</g>
<!-- Node7 -->
<g id="node7" class="node">
<title>Node7</title>
<g id="a_node7"><a xlink:href="size__generic_8h.html" target="_top" xlink:title=" ">
<polygon fill="white" stroke="black" points="101.5,-112.5 101.5,-131.5 181.5,-131.5 181.5,-112.5 101.5,-112.5"/>
<text text-anchor="middle" x="141.5" y="-119.5" font-family="Arial" font-size="10.00">size_generic.h</text>
</a>
</g>
</g>
<!-- Node1&#45;&gt;Node7 -->
<g id="edge6" class="edge">
<title>Node1&#45;&gt;Node7</title>
<path fill="none" stroke="midnightblue" d="M186.52,-168.4C177.77,-159.58 166.47,-148.18 157.38,-139.02"/>
<polygon fill="midnightblue" stroke="midnightblue" points="159.61,-136.29 150.09,-131.66 154.64,-141.22 159.61,-136.29"/>
</g>
<!-- Node8 -->
<g id="node8" class="node">
<title>Node8</title>
<g id="a_node8"><a xlink:href="displacement__generic_8h.html" target="_top" xlink:title=" ">
<polygon fill="white" stroke="black" points="200,-112.5 200,-131.5 319,-131.5 319,-112.5 200,-112.5"/>
<text text-anchor="middle" x="259.5" y="-119.5" font-family="Arial" font-size="10.00">displacement_generic.h</text>
</a>
</g>
</g>
<!-- Node1&#45;&gt;Node8 -->
<g id="edge9" class="edge">
<title>Node1&#45;&gt;Node8</title>
<path fill="none" stroke="midnightblue" d="M214.48,-168.4C223.23,-159.58 234.53,-148.18 243.62,-139.02"/>
<polygon fill="midnightblue" stroke="midnightblue" points="246.36,-141.22 250.91,-131.66 241.39,-136.29 246.36,-141.22"/>
</g>
<!-- Node3 -->
<g id="node3" class="node">
<title>Node3</title>
<g id="a_node3"><a xlink:href="dimensions__generic_8h.html" target="_top" xlink:title=" ">
<polygon fill="white" stroke="black" points="86,-56.5 86,-75.5 197,-75.5 197,-56.5 86,-56.5"/>
<text text-anchor="middle" x="141.5" y="-63.5" font-family="Arial" font-size="10.00">dimensions_generic.h</text>
</a>
</g>
</g>
<!-- Node2&#45;&gt;Node3 -->
<g id="edge2" class="edge">
<title>Node2&#45;&gt;Node3</title>
<path fill="none" stroke="midnightblue" d="M57.57,-112.32C73.46,-103.74 98.01,-90.49 116.46,-80.52"/>
<polygon fill="midnightblue" stroke="midnightblue" points="118.34,-83.49 125.47,-75.65 115.01,-77.33 118.34,-83.49"/>
</g>
<!-- Node2&#45;&gt;Node6 -->
<g id="edge5" class="edge">
<title>Node2&#45;&gt;Node6</title>
<path fill="none" stroke="midnightblue" d="M74.62,-112.44C112.84,-102.57 175.47,-86.38 214.77,-76.23"/>
<polygon fill="midnightblue" stroke="midnightblue" points="215.67,-79.62 224.47,-73.73 213.91,-72.84 215.67,-79.62"/>
</g>
<!-- Node4 -->
<g id="node4" class="node">
<title>Node4</title>
<g id="a_node4"><a xlink:title=" ">
<polygon fill="white" stroke="#bfbfbf" points="83,-0.5 83,-19.5 128,-19.5 128,-0.5 83,-0.5"/>
<text text-anchor="middle" x="105.5" y="-7.5" font-family="Arial" font-size="10.00">iosfwd</text>
</a>
</g>
</g>
<!-- Node3&#45;&gt;Node4 -->
<g id="edge3" class="edge">
<title>Node3&#45;&gt;Node4</title>
<path fill="none" stroke="midnightblue" d="M135.56,-56.08C130.52,-48.53 123.16,-37.49 116.99,-28.23"/>
<polygon fill="midnightblue" stroke="midnightblue" points="119.79,-26.13 111.33,-19.75 113.97,-30.01 119.79,-26.13"/>
</g>
<!-- Node5 -->
<g id="node5" class="node">
<title>Node5</title>
<g id="a_node5"><a xlink:title=" ">
<polygon fill="white" stroke="#bfbfbf" points="146.5,-0.5 146.5,-19.5 208.5,-19.5 208.5,-0.5 146.5,-0.5"/>
<text text-anchor="middle" x="177.5" y="-7.5" font-family="Arial" font-size="10.00">type_traits</text>
</a>
</g>
</g>
<!-- Node3&#45;&gt;Node5 -->
<g id="edge4" class="edge">
<title>Node3&#45;&gt;Node5</title>
<path fill="none" stroke="midnightblue" d="M147.44,-56.08C152.48,-48.53 159.84,-37.49 166.01,-28.23"/>
<polygon fill="midnightblue" stroke="midnightblue" points="169.03,-30.01 171.67,-19.75 163.21,-26.13 169.03,-30.01"/>
</g>
<!-- Node7&#45;&gt;Node3 -->
<g id="edge7" class="edge">
<title>Node7&#45;&gt;Node3</title>
<path fill="none" stroke="midnightblue" d="M141.5,-112.08C141.5,-105.01 141.5,-94.86 141.5,-85.99"/>
<polygon fill="midnightblue" stroke="midnightblue" points="145,-85.75 141.5,-75.75 138,-85.75 145,-85.75"/>
</g>
<!-- Node7&#45;&gt;Node6 -->
<g id="edge8" class="edge">
<title>Node7&#45;&gt;Node6</title>
<path fill="none" stroke="midnightblue" d="M159.01,-112.32C176.57,-103.62 203.83,-90.12 224.03,-80.11"/>
<polygon fill="midnightblue" stroke="midnightblue" points="225.62,-83.23 233.03,-75.65 222.52,-76.96 225.62,-83.23"/>
</g>
<!-- Node8&#45;&gt;Node3 -->
<g id="edge10" class="edge">
<title>Node8&#45;&gt;Node3</title>
<path fill="none" stroke="midnightblue" d="M240.8,-112.44C221.56,-103.64 191.35,-89.81 169.3,-79.72"/>
<polygon fill="midnightblue" stroke="midnightblue" points="170.66,-76.5 160.11,-75.52 167.75,-82.86 170.66,-76.5"/>
</g>
<!-- Node8&#45;&gt;Node6 -->
<g id="edge11" class="edge">
<title>Node8&#45;&gt;Node6</title>
<path fill="none" stroke="midnightblue" d="M258.01,-112.08C256.82,-104.93 255.11,-94.64 253.62,-85.69"/>
<polygon fill="midnightblue" stroke="midnightblue" points="257.05,-85.04 251.96,-75.75 250.15,-86.19 257.05,-85.04"/>
</g>
</g>
</svg>
