<?xml version="1.0" encoding="UTF-8" standalone="no"?>
<!DOCTYPE svg PUBLIC "-//W3C//DTD SVG 1.1//EN"
 "http://www.w3.org/Graphics/SVG/1.1/DTD/svg11.dtd">
<!-- Generated by graphviz version 2.38.0 (20140413.2041)
 -->
<!-- Title: include/core/mir/geometry/rectangles.h Pages: 1 -->
<svg width="891pt" height="441pt"
 viewBox="0.00 0.00 891.22 441.00" xmlns="http://www.w3.org/2000/svg" xmlns:xlink="http://www.w3.org/1999/xlink">
<g id="graph0" class="graph" transform="scale(1 1) rotate(0) translate(4 437)">
<title>include/core/mir/geometry/rectangles.h</title>
<polygon fill="white" stroke="none" points="-4,4 -4,-437 887.224,-437 887.224,4 -4,4"/>
<!-- Node9 -->
<g id="node1" class="node"><title>Node9</title>
<polygon fill="#bfbfbf" stroke="black" points="305.224,-402.5 305.224,-432.5 434.224,-432.5 434.224,-402.5 305.224,-402.5"/>
<text text-anchor="start" x="313.224" y="-420.5" font-family="Arial" font-size="10.00">include/core/mir/geometry</text>
<text text-anchor="middle" x="369.724" y="-409.5" font-family="Arial" font-size="10.00">/rectangles.h</text>
</g>
<!-- Node10 -->
<g id="node2" class="node"><title>Node10</title>
<g id="a_node2"><a xlink:href="window__info_8h.html" target="_top" xlink:title="include/miral/miral\l/window_info.h">
<polygon fill="white" stroke="black" points="234.224,-268.5 234.224,-298.5 329.224,-298.5 329.224,-268.5 234.224,-268.5"/>
<text text-anchor="start" x="242.224" y="-286.5" font-family="Arial" font-size="10.00">include/miral/miral</text>
<text text-anchor="middle" x="281.724" y="-275.5" font-family="Arial" font-size="10.00">/window_info.h</text>
</a>
</g>
</g>
<!-- Node9&#45;&gt;Node10 -->
<g id="edge1" class="edge"><title>Node9&#45;&gt;Node10</title>
<path fill="none" stroke="midnightblue" d="M368.09,-392.029C365.952,-374.861 361.032,-352.023 349.724,-335 339.553,-319.689 323.102,-307.29 308.929,-298.61"/>
<polygon fill="midnightblue" stroke="midnightblue" points="364.648,-392.776 369.132,-402.375 371.612,-392.075 364.648,-392.776"/>
</g>
<!-- Node23 -->
<g id="node15" class="node"><title>Node23</title>
<g id="a_node15"><a xlink:href="window__management__policy_8h.html" target="_top" xlink:title="include/miral/miral\l/window_management_policy.h">
<polygon fill="white" stroke="black" points="363.724,-201.5 363.724,-231.5 515.724,-231.5 515.724,-201.5 363.724,-201.5"/>
<text text-anchor="start" x="371.724" y="-219.5" font-family="Arial" font-size="10.00">include/miral/miral</text>
<text text-anchor="middle" x="439.724" y="-208.5" font-family="Arial" font-size="10.00">/window_management_policy.h</text>
</a>
</g>
</g>
<!-- Node9&#45;&gt;Node23 -->
<g id="edge22" class="edge"><title>Node9&#45;&gt;Node23</title>
<path fill="none" stroke="midnightblue" d="M378.154,-392.533C392.887,-350.652 422.875,-265.399 434.735,-231.682"/>
<polygon fill="midnightblue" stroke="midnightblue" points="374.775,-391.594 374.758,-402.188 381.378,-393.916 374.775,-391.594"/>
</g>
<!-- Node24 -->
<g id="node16" class="node"><title>Node24</title>
<g id="a_node16"><a xlink:href="window__specification_8h.html" target="_top" xlink:title="include/miral/miral\l/window_specification.h">
<polygon fill="white" stroke="black" points="222.224,-335.5 222.224,-365.5 341.224,-365.5 341.224,-335.5 222.224,-335.5"/>
<text text-anchor="start" x="230.224" y="-353.5" font-family="Arial" font-size="10.00">include/miral/miral</text>
<text text-anchor="middle" x="281.724" y="-342.5" font-family="Arial" font-size="10.00">/window_specification.h</text>
</a>
</g>
</g>
<!-- Node9&#45;&gt;Node24 -->
<g id="edge25" class="edge"><title>Node9&#45;&gt;Node24</title>
<path fill="none" stroke="midnightblue" d="M342.581,-396.451C329.043,-386.452 312.997,-374.6 300.781,-365.577"/>
<polygon fill="midnightblue" stroke="midnightblue" points="340.506,-399.27 350.629,-402.396 344.665,-393.639 340.506,-399.27"/>
</g>
<!-- Node11 -->
<g id="node3" class="node"><title>Node11</title>
<g id="a_node3"><a xlink:href="kiosk__window__manager_8cpp.html" target="_top" xlink:title="examples/miral&#45;kiosk\l/kiosk_window_manager.cpp">
<polygon fill="white" stroke="black" points="742.224,-0.5 742.224,-30.5 883.224,-30.5 883.224,-0.5 742.224,-0.5"/>
<text text-anchor="start" x="750.224" y="-18.5" font-family="Arial" font-size="10.00">examples/miral&#45;kiosk</text>
<text text-anchor="middle" x="812.724" y="-7.5" font-family="Arial" font-size="10.00">/kiosk_window_manager.cpp</text>
</a>
</g>
</g>
<!-- Node10&#45;&gt;Node11 -->
<g id="edge2" class="edge"><title>Node10&#45;&gt;Node11</title>
<path fill="none" stroke="midnightblue" d="M339.323,-273.554C389.03,-265.12 462.439,-250.948 524.724,-232 600.446,-208.965 619.101,-200.735 689.724,-165 740.463,-139.326 766.856,-145.096 798.724,-98 812.482,-77.6676 814.107,-48.1342 813.669,-30.7637"/>
<polygon fill="midnightblue" stroke="midnightblue" points="338.684,-270.113 329.399,-275.216 339.839,-277.017 338.684,-270.113"/>
</g>
<!-- Node12 -->
<g id="node4" class="node"><title>Node12</title>
<g id="a_node4"><a xlink:href="floating__window__manager_8cpp.html" target="_top" xlink:title="examples/example&#45;server\l&#45;lib/floating_window_manager.cpp">
<polygon fill="white" stroke="black" points="127.724,-0.5 127.724,-30.5 289.724,-30.5 289.724,-0.5 127.724,-0.5"/>
<text text-anchor="start" x="135.724" y="-18.5" font-family="Arial" font-size="10.00">examples/example&#45;server</text>
<text text-anchor="middle" x="208.724" y="-7.5" font-family="Arial" font-size="10.00">&#45;lib/floating_window_manager.cpp</text>
</a>
</g>
</g>
<!-- Node10&#45;&gt;Node12 -->
<g id="edge3" class="edge"><title>Node10&#45;&gt;Node12</title>
<path fill="none" stroke="midnightblue" d="M223.874,-272.952C163.768,-259.768 72.0188,-229.811 24.7238,-165 -1.0364,-129.699 -9.95905,-101.609 16.7238,-67 30.6662,-48.9163 81.6104,-36.0237 127.519,-27.7931"/>
<polygon fill="midnightblue" stroke="midnightblue" points="223.467,-276.443 233.973,-275.076 224.907,-269.593 223.467,-276.443"/>
</g>
<!-- Node13 -->
<g id="node5" class="node"><title>Node13</title>
<g id="a_node5"><a xlink:href="tiling__window__manager_8cpp.html" target="_top" xlink:title="examples/example&#45;server\l&#45;lib/tiling_window_manager.cpp">
<polygon fill="white" stroke="black" points="256.224,-67.5 256.224,-97.5 407.224,-97.5 407.224,-67.5 256.224,-67.5"/>
<text text-anchor="start" x="264.224" y="-85.5" font-family="Arial" font-size="10.00">examples/example&#45;server</text>
<text text-anchor="middle" x="331.724" y="-74.5" font-family="Arial" font-size="10.00">&#45;lib/tiling_window_manager.cpp</text>
</a>
</g>
</g>
<!-- Node10&#45;&gt;Node13 -->
<g id="edge4" class="edge"><title>Node10&#45;&gt;Node13</title>
<path fill="none" stroke="midnightblue" d="M239.468,-263.076C227.314,-255.254 215.517,-244.96 208.724,-232 202.327,-219.797 203.306,-213.668 208.724,-201 228.872,-153.89 278.207,-116.665 307.912,-97.5658"/>
<polygon fill="midnightblue" stroke="midnightblue" points="237.931,-266.234 248.315,-268.338 241.509,-260.218 237.931,-266.234"/>
</g>
<!-- Node14 -->
<g id="node6" class="node"><title>Node14</title>
<g id="a_node6"><a xlink:href="window__manager__tools_8h.html" target="_top" xlink:title="include/miral/miral\l/window_manager_tools.h">
<polygon fill="white" stroke="black" points="217.724,-201.5 217.724,-231.5 345.724,-231.5 345.724,-201.5 217.724,-201.5"/>
<text text-anchor="start" x="225.724" y="-219.5" font-family="Arial" font-size="10.00">include/miral/miral</text>
<text text-anchor="middle" x="281.724" y="-208.5" font-family="Arial" font-size="10.00">/window_manager_tools.h</text>
</a>
</g>
</g>
<!-- Node10&#45;&gt;Node14 -->
<g id="edge5" class="edge"><title>Node10&#45;&gt;Node14</title>
<path fill="none" stroke="midnightblue" d="M281.724,-258.108C281.724,-249.154 281.724,-239.323 281.724,-231.577"/>
<polygon fill="midnightblue" stroke="midnightblue" points="278.224,-258.396 281.724,-268.396 285.224,-258.396 278.224,-258.396"/>
</g>
<!-- Node14&#45;&gt;Node11 -->
<g id="edge6" class="edge"><title>Node14&#45;&gt;Node11</title>
<path fill="none" stroke="midnightblue" d="M355.738,-200.928C476.013,-182.057 511.365,-197.298 624.724,-165 694.554,-145.104 721.775,-148.729 773.724,-98 793.139,-79.0407 804.124,-48.4867 809.206,-30.6672"/>
<polygon fill="midnightblue" stroke="midnightblue" points="355.089,-197.488 345.776,-202.538 356.206,-204.398 355.089,-197.488"/>
</g>
<!-- Node14&#45;&gt;Node12 -->
<g id="edge10" class="edge"><title>Node14&#45;&gt;Node12</title>
<path fill="none" stroke="midnightblue" d="M273.029,-191.798C257.701,-150.013 226.321,-64.4701 213.926,-30.6819"/>
<polygon fill="midnightblue" stroke="midnightblue" points="269.744,-193.006 276.474,-201.188 276.316,-190.595 269.744,-193.006"/>
</g>
<!-- Node14&#45;&gt;Node13 -->
<g id="edge14" class="edge"><title>Node14&#45;&gt;Node13</title>
<path fill="none" stroke="midnightblue" d="M284.824,-191.231C287.479,-174.665 292.112,-152.462 299.724,-134 305.105,-120.95 313.8,-107.513 320.769,-97.7835"/>
<polygon fill="midnightblue" stroke="midnightblue" points="281.349,-190.804 283.353,-201.208 288.274,-191.825 281.349,-190.804"/>
</g>
<!-- Node15 -->
<g id="node7" class="node"><title>Node15</title>
<g id="a_node7"><a xlink:href="decoration__provider_8h.html" target="_top" xlink:title="examples/example&#45;server\l&#45;lib/decoration_provider.h">
<polygon fill="white" stroke="black" points="33.7238,-134.5 33.7238,-164.5 161.724,-164.5 161.724,-134.5 33.7238,-134.5"/>
<text text-anchor="start" x="41.7238" y="-152.5" font-family="Arial" font-size="10.00">examples/example&#45;server</text>
<text text-anchor="middle" x="97.7238" y="-141.5" font-family="Arial" font-size="10.00">&#45;lib/decoration_provider.h</text>
</a>
</g>
</g>
<!-- Node14&#45;&gt;Node15 -->
<g id="edge7" class="edge"><title>Node14&#45;&gt;Node15</title>
<path fill="none" stroke="midnightblue" d="M232.059,-197.955C202.419,-187.485 165.282,-174.366 137.571,-164.577"/>
<polygon fill="midnightblue" stroke="midnightblue" points="231.204,-201.365 241.799,-201.396 233.535,-194.765 231.204,-201.365"/>
</g>
<!-- Node17 -->
<g id="node9" class="node"><title>Node17</title>
<g id="a_node9"><a xlink:href="tiling__window__manager_8h.html" target="_top" xlink:title="examples/example&#45;server\l&#45;lib/tiling_window_manager.h">
<polygon fill="white" stroke="black" points="308.724,-134.5 308.724,-164.5 448.724,-164.5 448.724,-134.5 308.724,-134.5"/>
<text text-anchor="start" x="316.724" y="-152.5" font-family="Arial" font-size="10.00">examples/example&#45;server</text>
<text text-anchor="middle" x="378.724" y="-141.5" font-family="Arial" font-size="10.00">&#45;lib/tiling_window_manager.h</text>
</a>
</g>
</g>
<!-- Node14&#45;&gt;Node17 -->
<g id="edge11" class="edge"><title>Node14&#45;&gt;Node17</title>
<path fill="none" stroke="midnightblue" d="M311.221,-195.734C326.231,-185.676 344.125,-173.685 357.717,-164.577"/>
<polygon fill="midnightblue" stroke="midnightblue" points="309.13,-192.922 302.771,-201.396 313.027,-198.737 309.13,-192.922"/>
</g>
<!-- Node19 -->
<g id="node11" class="node"><title>Node19</title>
<g id="a_node11"><a xlink:href="canonical__window__manager_8h.html" target="_top" xlink:title="include/miral/miral\l/canonical_window_manager.h">
<polygon fill="white" stroke="black" points="467.224,-134.5 467.224,-164.5 616.224,-164.5 616.224,-134.5 467.224,-134.5"/>
<text text-anchor="start" x="475.224" y="-152.5" font-family="Arial" font-size="10.00">include/miral/miral</text>
<text text-anchor="middle" x="541.724" y="-141.5" font-family="Arial" font-size="10.00">/canonical_window_manager.h</text>
</a>
</g>
</g>
<!-- Node14&#45;&gt;Node19 -->
<g id="edge15" class="edge"><title>Node14&#45;&gt;Node19</title>
<path fill="none" stroke="midnightblue" d="M347.786,-198.984C390.254,-188.367 444.843,-174.72 485.28,-164.611"/>
<polygon fill="midnightblue" stroke="midnightblue" points="346.672,-195.655 337.82,-201.476 348.37,-202.446 346.672,-195.655"/>
</g>
<!-- Node15&#45;&gt;Node12 -->
<g id="edge9" class="edge"><title>Node15&#45;&gt;Node12</title>
<path fill="none" stroke="midnightblue" d="M133.741,-128.991C146.62,-120.713 160.468,-110.153 170.724,-98 187.941,-77.5981 199.112,-48.088 204.632,-30.7407"/>
<polygon fill="midnightblue" stroke="midnightblue" points="131.718,-126.126 125.036,-134.348 135.387,-132.087 131.718,-126.126"/>
</g>
<!-- Node16 -->
<g id="node8" class="node"><title>Node16</title>
<g id="a_node8"><a xlink:href="decoration__provider_8cpp.html" target="_top" xlink:title="examples/example&#45;server\l&#45;lib/decoration_provider.cpp">
<polygon fill="white" stroke="black" points="25.7238,-67.5 25.7238,-97.5 161.724,-97.5 161.724,-67.5 25.7238,-67.5"/>
<text text-anchor="start" x="33.7238" y="-85.5" font-family="Arial" font-size="10.00">examples/example&#45;server</text>
<text text-anchor="middle" x="93.7238" y="-74.5" font-family="Arial" font-size="10.00">&#45;lib/decoration_provider.cpp</text>
</a>
</g>
</g>
<!-- Node15&#45;&gt;Node16 -->
<g id="edge8" class="edge"><title>Node15&#45;&gt;Node16</title>
<path fill="none" stroke="midnightblue" d="M96.2409,-124.403C95.6851,-115.37 95.072,-105.408 94.5901,-97.5765"/>
<polygon fill="midnightblue" stroke="midnightblue" points="92.7482,-124.63 96.8559,-134.396 99.735,-124.2 92.7482,-124.63"/>
</g>
<!-- Node17&#45;&gt;Node13 -->
<g id="edge13" class="edge"><title>Node17&#45;&gt;Node13</title>
<path fill="none" stroke="midnightblue" d="M362.568,-126.157C355.715,-116.679 347.934,-105.919 341.902,-97.5765"/>
<polygon fill="midnightblue" stroke="midnightblue" points="359.83,-128.343 368.526,-134.396 365.502,-124.242 359.83,-128.343"/>
</g>
<!-- Node18 -->
<g id="node10" class="node"><title>Node18</title>
<g id="a_node10"><a xlink:href="shell__main_8cpp.html" target="_top" xlink:title="examples/miral&#45;shell\l/shell_main.cpp">
<polygon fill="white" stroke="black" points="434.724,-0.5 434.724,-30.5 540.724,-30.5 540.724,-0.5 434.724,-0.5"/>
<text text-anchor="start" x="442.724" y="-18.5" font-family="Arial" font-size="10.00">examples/miral&#45;shell</text>
<text text-anchor="middle" x="487.724" y="-7.5" font-family="Arial" font-size="10.00">/shell_main.cpp</text>
</a>
</g>
</g>
<!-- Node17&#45;&gt;Node18 -->
<g id="edge12" class="edge"><title>Node17&#45;&gt;Node18</title>
<path fill="none" stroke="midnightblue" d="M396.855,-126.543C419.39,-99.2533 457.186,-53.4821 476.143,-30.5247"/>
<polygon fill="midnightblue" stroke="midnightblue" points="394.057,-124.434 390.389,-134.374 399.455,-128.891 394.057,-124.434"/>
</g>
<!-- Node20 -->
<g id="node12" class="node"><title>Node20</title>
<g id="a_node12"><a xlink:href="kiosk__window__manager_8h.html" target="_top" xlink:title="examples/miral&#45;kiosk\l/kiosk_window_manager.h">
<polygon fill="white" stroke="black" points="634.224,-67.5 634.224,-97.5 765.224,-97.5 765.224,-67.5 634.224,-67.5"/>
<text text-anchor="start" x="642.224" y="-85.5" font-family="Arial" font-size="10.00">examples/miral&#45;kiosk</text>
<text text-anchor="middle" x="699.724" y="-74.5" font-family="Arial" font-size="10.00">/kiosk_window_manager.h</text>
</a>
</g>
</g>
<!-- Node19&#45;&gt;Node20 -->
<g id="edge16" class="edge"><title>Node19&#45;&gt;Node20</title>
<path fill="none" stroke="midnightblue" d="M585.37,-130.544C610.653,-120.143 642.022,-107.238 665.507,-97.5765"/>
<polygon fill="midnightblue" stroke="midnightblue" points="583.924,-127.355 576.007,-134.396 586.587,-133.828 583.924,-127.355"/>
</g>
<!-- Node22 -->
<g id="node14" class="node"><title>Node22</title>
<g id="a_node14"><a xlink:href="floating__window__manager_8h.html" target="_top" xlink:title="examples/example&#45;server\l&#45;lib/floating_window_manager.h">
<polygon fill="white" stroke="black" points="463.724,-67.5 463.724,-97.5 615.724,-97.5 615.724,-67.5 463.724,-67.5"/>
<text text-anchor="start" x="471.724" y="-85.5" font-family="Arial" font-size="10.00">examples/example&#45;server</text>
<text text-anchor="middle" x="539.724" y="-74.5" font-family="Arial" font-size="10.00">&#45;lib/floating_window_manager.h</text>
</a>
</g>
</g>
<!-- Node19&#45;&gt;Node22 -->
<g id="edge19" class="edge"><title>Node19&#45;&gt;Node22</title>
<path fill="none" stroke="midnightblue" d="M540.973,-124.108C540.698,-115.154 540.395,-105.323 540.157,-97.5765"/>
<polygon fill="midnightblue" stroke="midnightblue" points="537.484,-124.508 541.29,-134.396 544.481,-124.293 537.484,-124.508"/>
</g>
<!-- Node20&#45;&gt;Node11 -->
<g id="edge18" class="edge"><title>Node20&#45;&gt;Node11</title>
<path fill="none" stroke="midnightblue" d="M733.11,-62.2956C750.791,-52.1248 772.122,-39.8549 788.252,-30.5765"/>
<polygon fill="midnightblue" stroke="midnightblue" points="731.166,-59.3759 724.243,-67.396 734.657,-65.4437 731.166,-59.3759"/>
</g>
<!-- Node21 -->
<g id="node13" class="node"><title>Node21</title>
<g id="a_node13"><a xlink:href="kiosk__main_8cpp.html" target="_top" xlink:title="examples/miral&#45;kiosk\l/kiosk_main.cpp">
<polygon fill="white" stroke="black" points="615.224,-0.5 615.224,-30.5 724.224,-30.5 724.224,-0.5 615.224,-0.5"/>
<text text-anchor="start" x="623.224" y="-18.5" font-family="Arial" font-size="10.00">examples/miral&#45;kiosk</text>
<text text-anchor="middle" x="669.724" y="-7.5" font-family="Arial" font-size="10.00">/kiosk_main.cpp</text>
</a>
</g>
</g>
<!-- Node20&#45;&gt;Node21 -->
<g id="edge17" class="edge"><title>Node20&#45;&gt;Node21</title>
<path fill="none" stroke="midnightblue" d="M689.009,-58.2835C684.734,-49.0223 679.953,-38.6632 676.221,-30.5765"/>
<polygon fill="midnightblue" stroke="midnightblue" points="685.846,-59.7831 693.214,-67.396 692.201,-56.8496 685.846,-59.7831"/>
</g>
<!-- Node22&#45;&gt;Node12 -->
<g id="edge21" class="edge"><title>Node22&#45;&gt;Node12</title>
<path fill="none" stroke="midnightblue" d="M458.328,-65.5159C403.793,-54.8067 332.665,-40.8389 280.295,-30.5549"/>
<polygon fill="midnightblue" stroke="midnightblue" points="457.822,-68.9834 468.309,-67.476 459.171,-62.1146 457.822,-68.9834"/>
</g>
<!-- Node22&#45;&gt;Node18 -->
<g id="edge20" class="edge"><title>Node22&#45;&gt;Node18</title>
<path fill="none" stroke="midnightblue" d="M522.082,-59.4472C514.443,-49.8986 505.727,-39.0037 498.985,-30.5765"/>
<polygon fill="midnightblue" stroke="midnightblue" points="519.461,-61.7737 528.441,-67.396 524.927,-57.4008 519.461,-61.7737"/>
</g>
<!-- Node23&#45;&gt;Node17 -->
<g id="edge23" class="edge"><title>Node23&#45;&gt;Node17</title>
<path fill="none" stroke="midnightblue" d="M419.57,-194.024C410.481,-184.34 400.002,-173.174 391.934,-164.577"/>
<polygon fill="midnightblue" stroke="midnightblue" points="417.092,-196.499 426.488,-201.396 422.197,-191.709 417.092,-196.499"/>
</g>
<!-- Node23&#45;&gt;Node19 -->
<g id="edge24" class="edge"><title>Node23&#45;&gt;Node19</title>
<path fill="none" stroke="midnightblue" d="M470.3,-196.015C486.173,-185.9 505.208,-173.77 519.635,-164.577"/>
<polygon fill="midnightblue" stroke="midnightblue" points="468.409,-193.07 461.856,-201.396 472.17,-198.973 468.409,-193.07"/>
</g>
<!-- Node24&#45;&gt;Node10 -->
<g id="edge26" class="edge"><title>Node24&#45;&gt;Node10</title>
<path fill="none" stroke="midnightblue" d="M281.724,-325.108C281.724,-316.154 281.724,-306.323 281.724,-298.577"/>
<polygon fill="midnightblue" stroke="midnightblue" points="278.224,-325.396 281.724,-335.396 285.224,-325.396 278.224,-325.396"/>
</g>
</g>
</svg>
