<?xml version="1.0" encoding="UTF-8" standalone="no"?>
<!DOCTYPE svg PUBLIC "-//W3C//DTD SVG 1.1//EN"
 "http://www.w3.org/Graphics/SVG/1.1/DTD/svg11.dtd">
<!-- Generated by graphviz version 2.38.0 (20140413.2041)
 -->
<!-- Title: include/core/mir/geometry/rectangles.h Pages: 1 -->
<svg width="913pt" height="452pt"
 viewBox="0.00 0.00 912.50 452.00" xmlns="http://www.w3.org/2000/svg" xmlns:xlink="http://www.w3.org/1999/xlink">
<g id="graph0" class="graph" transform="scale(1 1) rotate(0) translate(4 448)">
<title>include/core/mir/geometry/rectangles.h</title>
<polygon fill="white" stroke="none" points="-4,4 -4,-448 908.5,-448 908.5,4 -4,4"/>
<!-- Node9 -->
<g id="node1" class="node"><title>Node9</title>
<polygon fill="#bfbfbf" stroke="black" points="381.5,-413.5 381.5,-443.5 510.5,-443.5 510.5,-413.5 381.5,-413.5"/>
<text text-anchor="start" x="389.5" y="-431.5" font-family="Arial" font-size="10.00">include/core/mir/geometry</text>
<text text-anchor="middle" x="446" y="-420.5" font-family="Arial" font-size="10.00">/rectangles.h</text>
</g>
<!-- Node10 -->
<g id="node2" class="node"><title>Node10</title>
<g id="a_node2"><a xlink:href="window__info_8h.html" target="_top" xlink:title="include/miral/miral\l/window_info.h">
<polygon fill="white" stroke="black" points="238.5,-268.5 238.5,-298.5 333.5,-298.5 333.5,-268.5 238.5,-268.5"/>
<text text-anchor="start" x="246.5" y="-286.5" font-family="Arial" font-size="10.00">include/miral/miral</text>
<text text-anchor="middle" x="286" y="-275.5" font-family="Arial" font-size="10.00">/window_info.h</text>
</a>
</g>
</g>
<!-- Node9&#45;&gt;Node10 -->
<g id="edge1" class="edge"><title>Node9&#45;&gt;Node10</title>
<path fill="none" stroke="midnightblue" d="M386.658,-409.803C367.846,-402.023 348.049,-391.318 333,-377 309.639,-354.776 295.969,-318.407 289.858,-298.539"/>
<polygon fill="midnightblue" stroke="midnightblue" points="385.494,-413.105 396.081,-413.499 388.05,-406.589 385.494,-413.105"/>
</g>
<!-- Node24 -->
<g id="node16" class="node"><title>Node24</title>
<g id="a_node16"><a xlink:href="window__management__policy_8h.html" target="_top" xlink:title="include/miral/miral\l/window_management_policy.h">
<polygon fill="white" stroke="black" points="414.5,-201.5 414.5,-231.5 565.5,-231.5 565.5,-201.5 414.5,-201.5"/>
<text text-anchor="start" x="422.5" y="-219.5" font-family="Arial" font-size="10.00">include/miral/miral</text>
<text text-anchor="middle" x="490" y="-208.5" font-family="Arial" font-size="10.00">/window_management_policy.h</text>
</a>
</g>
</g>
<!-- Node9&#45;&gt;Node24 -->
<g id="edge24" class="edge"><title>Node9&#45;&gt;Node24</title>
<path fill="none" stroke="midnightblue" d="M458.945,-404.272C463.09,-395.903 467.3,-386.242 470,-377 485.18,-325.031 488.839,-260.23 489.72,-231.89"/>
<polygon fill="midnightblue" stroke="midnightblue" points="455.707,-402.911 454.203,-413.399 461.919,-406.139 455.707,-402.911"/>
</g>
<!-- Node25 -->
<g id="node17" class="node"><title>Node25</title>
<g id="a_node17"><a xlink:href="window__management__policy__addendum3_8h.html" target="_top" xlink:title="include/miral/miral\l/window_management_policy\l_addendum3.h">
<polygon fill="white" stroke="black" points="587.5,-335.5 587.5,-376.5 730.5,-376.5 730.5,-335.5 587.5,-335.5"/>
<text text-anchor="start" x="595.5" y="-364.5" font-family="Arial" font-size="10.00">include/miral/miral</text>
<text text-anchor="start" x="595.5" y="-353.5" font-family="Arial" font-size="10.00">/window_management_policy</text>
<text text-anchor="middle" x="659" y="-342.5" font-family="Arial" font-size="10.00">_addendum3.h</text>
</a>
</g>
</g>
<!-- Node9&#45;&gt;Node25 -->
<g id="edge27" class="edge"><title>Node9&#45;&gt;Node25</title>
<path fill="none" stroke="midnightblue" d="M498.016,-410.284C528.786,-400.099 567.861,-387.166 599.807,-376.592"/>
<polygon fill="midnightblue" stroke="midnightblue" points="496.73,-407.022 488.337,-413.487 498.93,-413.668 496.73,-407.022"/>
</g>
<!-- Node26 -->
<g id="node18" class="node"><title>Node26</title>
<g id="a_node18"><a xlink:href="window__specification_8h.html" target="_top" xlink:title="include/miral/miral\l/window_specification.h">
<polygon fill="white" stroke="black" points="342.5,-341 342.5,-371 461.5,-371 461.5,-341 342.5,-341"/>
<text text-anchor="start" x="350.5" y="-359" font-family="Arial" font-size="10.00">include/miral/miral</text>
<text text-anchor="middle" x="402" y="-348" font-family="Arial" font-size="10.00">/window_specification.h</text>
</a>
</g>
</g>
<!-- Node9&#45;&gt;Node26 -->
<g id="edge29" class="edge"><title>Node9&#45;&gt;Node26</title>
<path fill="none" stroke="midnightblue" d="M431.681,-404.557C424.834,-393.586 416.852,-380.797 410.891,-371.246"/>
<polygon fill="midnightblue" stroke="midnightblue" points="428.832,-406.603 437.096,-413.233 434.77,-402.897 428.832,-406.603"/>
</g>
<!-- Node11 -->
<g id="node3" class="node"><title>Node11</title>
<g id="a_node3"><a xlink:href="kiosk__window__manager_8cpp.html" target="_top" xlink:title="examples/miral&#45;kiosk\l/kiosk_window_manager.cpp">
<polygon fill="white" stroke="black" points="0,-0.5 0,-30.5 140,-30.5 140,-0.5 0,-0.5"/>
<text text-anchor="start" x="8" y="-18.5" font-family="Arial" font-size="10.00">examples/miral&#45;kiosk</text>
<text text-anchor="middle" x="70" y="-7.5" font-family="Arial" font-size="10.00">/kiosk_window_manager.cpp</text>
</a>
</g>
</g>
<!-- Node10&#45;&gt;Node11 -->
<g id="edge2" class="edge"><title>Node10&#45;&gt;Node11</title>
<path fill="none" stroke="midnightblue" d="M228.658,-266.369C205.711,-258.269 179.836,-246.943 159,-232 127.23,-209.215 120.892,-199.228 102,-165 77.2766,-120.206 71.6476,-58.0225 70.3713,-30.5296"/>
<polygon fill="midnightblue" stroke="midnightblue" points="227.696,-269.739 238.29,-269.644 229.949,-263.111 227.696,-269.739"/>
</g>
<!-- Node12 -->
<g id="node4" class="node"><title>Node12</title>
<g id="a_node4"><a xlink:href="floating__window__manager_8cpp.html" target="_top" xlink:title="examples/miral&#45;shell\l/floating_window_manager.cpp">
<polygon fill="white" stroke="black" points="192.5,-0.5 192.5,-30.5 341.5,-30.5 341.5,-0.5 192.5,-0.5"/>
<text text-anchor="start" x="200.5" y="-18.5" font-family="Arial" font-size="10.00">examples/miral&#45;shell</text>
<text text-anchor="middle" x="267" y="-7.5" font-family="Arial" font-size="10.00">/floating_window_manager.cpp</text>
</a>
</g>
</g>
<!-- Node10&#45;&gt;Node12 -->
<g id="edge3" class="edge"><title>Node10&#45;&gt;Node12</title>
<path fill="none" stroke="midnightblue" d="M248.928,-263.411C199.265,-235.233 114.432,-177.168 89,-98 84.7861,-84.8825 80.6929,-77.9918 89,-67 101.88,-49.9581 149.421,-36.9932 192.132,-28.4689"/>
<polygon fill="midnightblue" stroke="midnightblue" points="247.328,-266.526 257.769,-268.323 250.727,-260.407 247.328,-266.526"/>
</g>
<!-- Node13 -->
<g id="node5" class="node"><title>Node13</title>
<g id="a_node5"><a xlink:href="tiling__window__manager_8cpp.html" target="_top" xlink:title="examples/miral&#45;shell\l/tiling_window_manager.cpp">
<polygon fill="white" stroke="black" points="314.5,-67.5 314.5,-97.5 451.5,-97.5 451.5,-67.5 314.5,-67.5"/>
<text text-anchor="start" x="322.5" y="-85.5" font-family="Arial" font-size="10.00">examples/miral&#45;shell</text>
<text text-anchor="middle" x="383" y="-74.5" font-family="Arial" font-size="10.00">/tiling_window_manager.cpp</text>
</a>
</g>
</g>
<!-- Node10&#45;&gt;Node13 -->
<g id="edge4" class="edge"><title>Node10&#45;&gt;Node13</title>
<path fill="none" stroke="midnightblue" d="M326.128,-262.976C338.516,-255.032 350.993,-244.69 359,-232 386.038,-189.153 385.879,-125.965 384.216,-97.8721"/>
<polygon fill="midnightblue" stroke="midnightblue" points="323.965,-260.192 317.189,-268.337 327.565,-266.196 323.965,-260.192"/>
</g>
<!-- Node14 -->
<g id="node6" class="node"><title>Node14</title>
<g id="a_node6"><a xlink:href="window__manager__tools_8h.html" target="_top" xlink:title="include/miral/miral\l/window_manager_tools.h">
<polygon fill="white" stroke="black" points="222,-201.5 222,-231.5 350,-231.5 350,-201.5 222,-201.5"/>
<text text-anchor="start" x="230" y="-219.5" font-family="Arial" font-size="10.00">include/miral/miral</text>
<text text-anchor="middle" x="286" y="-208.5" font-family="Arial" font-size="10.00">/window_manager_tools.h</text>
</a>
</g>
</g>
<!-- Node10&#45;&gt;Node14 -->
<g id="edge5" class="edge"><title>Node10&#45;&gt;Node14</title>
<path fill="none" stroke="midnightblue" d="M286,-258.108C286,-249.154 286,-239.323 286,-231.577"/>
<polygon fill="midnightblue" stroke="midnightblue" points="282.5,-258.396 286,-268.396 289.5,-258.396 282.5,-258.396"/>
</g>
<!-- Node14&#45;&gt;Node11 -->
<g id="edge6" class="edge"><title>Node14&#45;&gt;Node11</title>
<path fill="none" stroke="midnightblue" d="M212.039,-200.264C186.586,-192.576 158.985,-181.299 137,-165 107.574,-143.184 104.115,-131.367 89,-98 78.8683,-75.6343 73.8333,-47.2801 71.5812,-30.5912"/>
<polygon fill="midnightblue" stroke="midnightblue" points="211.095,-203.634 221.673,-203.038 213.032,-196.908 211.095,-203.634"/>
</g>
<!-- Node14&#45;&gt;Node12 -->
<g id="edge10" class="edge"><title>Node14&#45;&gt;Node12</title>
<path fill="none" stroke="midnightblue" d="M283.661,-190.998C279.644,-148.93 271.56,-64.2558 268.354,-30.6819"/>
<polygon fill="midnightblue" stroke="midnightblue" points="280.199,-191.566 284.634,-201.188 287.167,-190.901 280.199,-191.566"/>
</g>
<!-- Node14&#45;&gt;Node13 -->
<g id="edge15" class="edge"><title>Node14&#45;&gt;Node13</title>
<path fill="none" stroke="midnightblue" d="M302.395,-193.189C322.478,-165.859 355.896,-120.383 372.694,-97.5247"/>
<polygon fill="midnightblue" stroke="midnightblue" points="299.482,-191.243 296.381,-201.374 305.123,-195.388 299.482,-191.243"/>
</g>
<!-- Node15 -->
<g id="node7" class="node"><title>Node15</title>
<g id="a_node7"><a xlink:href="decoration__provider_8h.html" target="_top" xlink:title="examples/miral&#45;shell\l/decoration_provider.h">
<polygon fill="white" stroke="black" points="146,-134.5 146,-164.5 258,-164.5 258,-134.5 146,-134.5"/>
<text text-anchor="start" x="154" y="-152.5" font-family="Arial" font-size="10.00">examples/miral&#45;shell</text>
<text text-anchor="middle" x="202" y="-141.5" font-family="Arial" font-size="10.00">/decoration_provider.h</text>
</a>
</g>
</g>
<!-- Node14&#45;&gt;Node15 -->
<g id="edge7" class="edge"><title>Node14&#45;&gt;Node15</title>
<path fill="none" stroke="midnightblue" d="M259.724,-195.168C246.88,-185.228 231.742,-173.514 220.191,-164.577"/>
<polygon fill="midnightblue" stroke="midnightblue" points="257.723,-198.044 267.773,-201.396 262.006,-192.508 257.723,-198.044"/>
</g>
<!-- Node17 -->
<g id="node9" class="node"><title>Node17</title>
<g id="a_node9"><a xlink:href="tiling__window__manager_8h.html" target="_top" xlink:title="examples/miral&#45;shell\l/tiling_window_manager.h">
<polygon fill="white" stroke="black" points="572.5,-134.5 572.5,-164.5 699.5,-164.5 699.5,-134.5 572.5,-134.5"/>
<text text-anchor="start" x="580.5" y="-152.5" font-family="Arial" font-size="10.00">examples/miral&#45;shell</text>
<text text-anchor="middle" x="636" y="-141.5" font-family="Arial" font-size="10.00">/tiling_window_manager.h</text>
</a>
</g>
</g>
<!-- Node14&#45;&gt;Node17 -->
<g id="edge11" class="edge"><title>Node14&#45;&gt;Node17</title>
<path fill="none" stroke="midnightblue" d="M360.294,-202.283C416.103,-192.275 494.4,-178.065 563,-165 566.046,-164.42 569.163,-163.821 572.31,-163.212"/>
<polygon fill="midnightblue" stroke="midnightblue" points="359.368,-198.893 350.142,-204.102 360.603,-205.783 359.368,-198.893"/>
</g>
<!-- Node20 -->
<g id="node12" class="node"><title>Node20</title>
<g id="a_node12"><a xlink:href="canonical__window__manager_8h.html" target="_top" xlink:title="include/miral/miral\l/canonical_window_manager.h">
<polygon fill="white" stroke="black" points="406,-134.5 406,-164.5 554,-164.5 554,-134.5 406,-134.5"/>
<text text-anchor="start" x="414" y="-152.5" font-family="Arial" font-size="10.00">include/miral/miral</text>
<text text-anchor="middle" x="480" y="-141.5" font-family="Arial" font-size="10.00">/canonical_window_manager.h</text>
</a>
</g>
</g>
<!-- Node14&#45;&gt;Node20 -->
<g id="edge16" class="edge"><title>Node14&#45;&gt;Node20</title>
<path fill="none" stroke="midnightblue" d="M337.957,-198.092C369.274,-187.599 408.643,-174.408 437.987,-164.577"/>
<polygon fill="midnightblue" stroke="midnightblue" points="336.465,-194.9 328.095,-201.396 338.689,-201.538 336.465,-194.9"/>
</g>
<!-- Node15&#45;&gt;Node12 -->
<g id="edge9" class="edge"><title>Node15&#45;&gt;Node12</title>
<path fill="none" stroke="midnightblue" d="M214.672,-125.438C219.286,-116.875 224.478,-107.045 229,-98 240.659,-74.6807 253.278,-47.1033 260.642,-30.7469"/>
<polygon fill="midnightblue" stroke="midnightblue" points="211.47,-124.001 209.773,-134.459 217.621,-127.341 211.47,-124.001"/>
</g>
<!-- Node16 -->
<g id="node8" class="node"><title>Node16</title>
<g id="a_node8"><a xlink:href="decoration__provider_8cpp.html" target="_top" xlink:title="examples/miral&#45;shell\l/decoration_provider.cpp">
<polygon fill="white" stroke="black" points="98,-67.5 98,-97.5 220,-97.5 220,-67.5 98,-67.5"/>
<text text-anchor="start" x="106" y="-85.5" font-family="Arial" font-size="10.00">examples/miral&#45;shell</text>
<text text-anchor="middle" x="159" y="-74.5" font-family="Arial" font-size="10.00">/decoration_provider.cpp</text>
</a>
</g>
</g>
<!-- Node15&#45;&gt;Node16 -->
<g id="edge8" class="edge"><title>Node15&#45;&gt;Node16</title>
<path fill="none" stroke="midnightblue" d="M187.027,-125.867C180.804,-116.459 173.774,-105.833 168.312,-97.5765"/>
<polygon fill="midnightblue" stroke="midnightblue" points="184.233,-127.987 192.67,-134.396 190.071,-124.125 184.233,-127.987"/>
</g>
<!-- Node17&#45;&gt;Node13 -->
<g id="edge13" class="edge"><title>Node17&#45;&gt;Node13</title>
<path fill="none" stroke="midnightblue" d="M571.716,-131.984C530.392,-121.367 477.272,-107.72 437.924,-97.6109"/>
<polygon fill="midnightblue" stroke="midnightblue" points="570.858,-135.377 581.414,-134.476 572.6,-128.598 570.858,-135.377"/>
</g>
<!-- Node18 -->
<g id="node10" class="node"><title>Node18</title>
<g id="a_node10"><a xlink:href="shell__main_8cpp.html" target="_top" xlink:title="examples/miral&#45;shell\l/shell_main.cpp">
<polygon fill="white" stroke="black" points="631,-0.5 631,-30.5 737,-30.5 737,-0.5 631,-0.5"/>
<text text-anchor="start" x="639" y="-18.5" font-family="Arial" font-size="10.00">examples/miral&#45;shell</text>
<text text-anchor="middle" x="684" y="-7.5" font-family="Arial" font-size="10.00">/shell_main.cpp</text>
</a>
</g>
</g>
<!-- Node17&#45;&gt;Node18 -->
<g id="edge12" class="edge"><title>Node17&#45;&gt;Node18</title>
<path fill="none" stroke="midnightblue" d="M709.348,-136.185C730.865,-128.788 752.069,-116.949 765,-98 772.766,-86.6196 771.686,-79.0469 765,-67 755.833,-50.4816 738.767,-38.6606 722.656,-30.629"/>
<polygon fill="midnightblue" stroke="midnightblue" points="708.292,-132.848 699.802,-139.186 710.391,-139.526 708.292,-132.848"/>
</g>
<!-- Node19 -->
<g id="node11" class="node"><title>Node19</title>
<g id="a_node11"><a xlink:href="server__example_8cpp.html" target="_top" xlink:title="examples/server_example.cpp">
<polygon fill="white" stroke="black" points="755.5,-6 755.5,-25 904.5,-25 904.5,-6 755.5,-6"/>
<text text-anchor="middle" x="830" y="-13" font-family="Arial" font-size="10.00">examples/server_example.cpp</text>
</a>
</g>
</g>
<!-- Node17&#45;&gt;Node19 -->
<g id="edge14" class="edge"><title>Node17&#45;&gt;Node19</title>
<path fill="none" stroke="midnightblue" d="M709.629,-133.963C734.554,-126.351 761.293,-114.944 782,-98 806.528,-77.9301 821.354,-41.7993 827.166,-25.2317"/>
<polygon fill="midnightblue" stroke="midnightblue" points="708.452,-130.66 699.817,-136.798 710.395,-137.384 708.452,-130.66"/>
</g>
<!-- Node21 -->
<g id="node13" class="node"><title>Node21</title>
<g id="a_node13"><a xlink:href="kiosk__window__manager_8h.html" target="_top" xlink:title="examples/miral&#45;kiosk\l/kiosk_window_manager.h">
<polygon fill="white" stroke="black" points="470,-67.5 470,-97.5 600,-97.5 600,-67.5 470,-67.5"/>
<text text-anchor="start" x="478" y="-85.5" font-family="Arial" font-size="10.00">examples/miral&#45;kiosk</text>
<text text-anchor="middle" x="535" y="-74.5" font-family="Arial" font-size="10.00">/kiosk_window_manager.h</text>
</a>
</g>
</g>
<!-- Node20&#45;&gt;Node21 -->
<g id="edge17" class="edge"><title>Node20&#45;&gt;Node21</title>
<path fill="none" stroke="midnightblue" d="M498.416,-126.736C506.553,-117.119 515.886,-106.089 523.089,-97.5765"/>
<polygon fill="midnightblue" stroke="midnightblue" points="495.722,-124.501 491.934,-134.396 501.065,-129.023 495.722,-124.501"/>
</g>
<!-- Node23 -->
<g id="node15" class="node"><title>Node23</title>
<g id="a_node15"><a xlink:href="floating__window__manager_8h.html" target="_top" xlink:title="examples/miral&#45;shell\l/floating_window_manager.h">
<polygon fill="white" stroke="black" points="618,-67.5 618,-97.5 756,-97.5 756,-67.5 618,-67.5"/>
<text text-anchor="start" x="626" y="-85.5" font-family="Arial" font-size="10.00">examples/miral&#45;shell</text>
<text text-anchor="middle" x="687" y="-74.5" font-family="Arial" font-size="10.00">/floating_window_manager.h</text>
</a>
</g>
</g>
<!-- Node20&#45;&gt;Node23 -->
<g id="edge20" class="edge"><title>Node20&#45;&gt;Node23</title>
<path fill="none" stroke="midnightblue" d="M534.316,-131.444C567.871,-120.908 610.412,-107.549 642.062,-97.6109"/>
<polygon fill="midnightblue" stroke="midnightblue" points="533.153,-128.141 524.661,-134.476 535.25,-134.819 533.153,-128.141"/>
</g>
<!-- Node21&#45;&gt;Node11 -->
<g id="edge19" class="edge"><title>Node21&#45;&gt;Node11</title>
<path fill="none" stroke="midnightblue" d="M459.474,-67.1367C413.636,-60.7695 239.622,-38.3353 140.219,-25.5363"/>
<polygon fill="midnightblue" stroke="midnightblue" points="459.197,-70.6331 469.596,-68.6069 460.203,-63.7057 459.197,-70.6331"/>
</g>
<!-- Node22 -->
<g id="node14" class="node"><title>Node22</title>
<g id="a_node14"><a xlink:href="kiosk__main_8cpp.html" target="_top" xlink:title="examples/miral&#45;kiosk\l/kiosk_main.cpp">
<polygon fill="white" stroke="black" points="480.5,-0.5 480.5,-30.5 589.5,-30.5 589.5,-0.5 480.5,-0.5"/>
<text text-anchor="start" x="488.5" y="-18.5" font-family="Arial" font-size="10.00">examples/miral&#45;kiosk</text>
<text text-anchor="middle" x="535" y="-7.5" font-family="Arial" font-size="10.00">/kiosk_main.cpp</text>
</a>
</g>
</g>
<!-- Node21&#45;&gt;Node22 -->
<g id="edge18" class="edge"><title>Node21&#45;&gt;Node22</title>
<path fill="none" stroke="midnightblue" d="M535,-57.1081C535,-48.1539 535,-38.3227 535,-30.5765"/>
<polygon fill="midnightblue" stroke="midnightblue" points="531.5,-57.3959 535,-67.396 538.5,-57.396 531.5,-57.3959"/>
</g>
<!-- Node23&#45;&gt;Node12 -->
<g id="edge21" class="edge"><title>Node23&#45;&gt;Node12</title>
<path fill="none" stroke="midnightblue" d="M607.662,-66.8106C510.077,-50.6662 408.574,-36.0449 341.512,-26.6885"/>
<polygon fill="midnightblue" stroke="midnightblue" points="607.263,-70.2921 617.701,-68.4792 608.41,-63.3868 607.263,-70.2921"/>
</g>
<!-- Node23&#45;&gt;Node18 -->
<g id="edge22" class="edge"><title>Node23&#45;&gt;Node18</title>
<path fill="none" stroke="midnightblue" d="M685.888,-57.4029C685.471,-48.3703 685.011,-38.4078 684.65,-30.5765"/>
<polygon fill="midnightblue" stroke="midnightblue" points="682.392,-57.568 686.349,-67.396 689.384,-57.2452 682.392,-57.568"/>
</g>
<!-- Node23&#45;&gt;Node19 -->
<g id="edge23" class="edge"><title>Node23&#45;&gt;Node19</title>
<path fill="none" stroke="midnightblue" d="M727.411,-63.1315C754.935,-50.6205 790.092,-34.6399 811.285,-25.007"/>
<polygon fill="midnightblue" stroke="midnightblue" points="725.684,-60.0716 718.029,-67.396 728.581,-66.4442 725.684,-60.0716"/>
</g>
<!-- Node24&#45;&gt;Node17 -->
<g id="edge25" class="edge"><title>Node24&#45;&gt;Node17</title>
<path fill="none" stroke="midnightblue" d="M530.95,-197.269C554.204,-186.916 582.872,-174.153 604.382,-164.577"/>
<polygon fill="midnightblue" stroke="midnightblue" points="529.392,-194.131 521.68,-201.396 532.239,-200.526 529.392,-194.131"/>
</g>
<!-- Node24&#45;&gt;Node20 -->
<g id="edge26" class="edge"><title>Node24&#45;&gt;Node20</title>
<path fill="none" stroke="midnightblue" d="M486.293,-191.403C484.903,-182.37 483.37,-172.408 482.166,-164.577"/>
<polygon fill="midnightblue" stroke="midnightblue" points="482.85,-192.044 487.83,-201.396 489.769,-190.98 482.85,-192.044"/>
</g>
<!-- Node25&#45;&gt;Node23 -->
<g id="edge28" class="edge"><title>Node25&#45;&gt;Node23</title>
<path fill="none" stroke="midnightblue" d="M669.016,-325.729C681.077,-288.795 700.632,-223.074 708,-165 709.734,-151.332 710.697,-147.511 708,-134 705.435,-121.15 699.533,-107.479 694.637,-97.6067"/>
<polygon fill="midnightblue" stroke="midnightblue" points="665.65,-324.759 665.829,-335.353 672.295,-326.96 665.65,-324.759"/>
</g>
<!-- Node26&#45;&gt;Node10 -->
<g id="edge31" class="edge"><title>Node26&#45;&gt;Node10</title>
<path fill="none" stroke="midnightblue" d="M370.049,-335.582C350.757,-323.857 326.611,-309.182 309.155,-298.573"/>
<polygon fill="midnightblue" stroke="midnightblue" points="368.441,-338.7 378.804,-340.903 372.077,-332.718 368.441,-338.7"/>
</g>
<!-- Node27 -->
<g id="node19" class="node"><title>Node27</title>
<g id="a_node19"><a xlink:href="miregl_8cpp.html" target="_top" xlink:title="examples/miral&#45;shell\l/spinner/miregl.cpp">
<polygon fill="white" stroke="black" points="352,-268.5 352,-298.5 458,-298.5 458,-268.5 352,-268.5"/>
<text text-anchor="start" x="360" y="-286.5" font-family="Arial" font-size="10.00">examples/miral&#45;shell</text>
<text text-anchor="middle" x="405" y="-275.5" font-family="Arial" font-size="10.00">/spinner/miregl.cpp</text>
</a>
</g>
</g>
<!-- Node26&#45;&gt;Node27 -->
<g id="edge30" class="edge"><title>Node26&#45;&gt;Node27</title>
<path fill="none" stroke="midnightblue" d="M403.033,-330.732C403.486,-320.068 404.004,-307.914 404.394,-298.746"/>
<polygon fill="midnightblue" stroke="midnightblue" points="399.536,-330.593 402.607,-340.733 406.529,-330.891 399.536,-330.593"/>
</g>
</g>
</svg>
