<?xml version="1.0" encoding="UTF-8" standalone="no"?>
<!DOCTYPE svg PUBLIC "-//W3C//DTD SVG 1.1//EN"
 "http://www.w3.org/Graphics/SVG/1.1/DTD/svg11.dtd">
<!-- Generated by graphviz version 2.43.0 (0)
 -->
<!-- Title: include/core/mir/geometry/rectangle.h Pages: 1 -->
<svg width="433pt" height="319pt"
 viewBox="0.00 0.00 432.65 319.00" xmlns="http://www.w3.org/2000/svg" xmlns:xlink="http://www.w3.org/1999/xlink">
<g id="graph0" class="graph" transform="scale(1 1) rotate(0) translate(4 315)">
<title>include/core/mir/geometry/rectangle.h</title>
<polygon fill="white" stroke="transparent" points="-4,4 -4,-315 428.65,-315 428.65,4 -4,4"/>
<!-- Node1 -->
<g id="node1" class="node">
<title>Node1</title>
<g id="a_node1"><a xlink:title=" ">
<polygon fill="#bfbfbf" stroke="black" points="144.15,-280.5 144.15,-310.5 273.15,-310.5 273.15,-280.5 144.15,-280.5"/>
<text text-anchor="start" x="152.15" y="-298.5" font-family="Arial" font-size="10.00">include/core/mir/geometry</text>
<text text-anchor="middle" x="208.65" y="-287.5" font-family="Arial" font-size="10.00">/rectangle.h</text>
</a>
</g>
</g>
<!-- Node2 -->
<g id="node2" class="node">
<title>Node2</title>
<g id="a_node2"><a xlink:href="rectangle__generic_8h.html" target="_top" xlink:title=" ">
<polygon fill="white" stroke="black" points="50.15,-168.5 50.15,-187.5 151.15,-187.5 151.15,-168.5 50.15,-168.5"/>
<text text-anchor="middle" x="100.65" y="-175.5" font-family="Arial" font-size="10.00">rectangle_generic.h</text>
</a>
</g>
</g>
<!-- Node1&#45;&gt;Node2 -->
<g id="edge1" class="edge">
<title>Node1&#45;&gt;Node2</title>
<path fill="none" stroke="midnightblue" d="M195.41,-280.34C175.24,-258.77 136.94,-217.81 115.73,-195.13"/>
<polygon fill="midnightblue" stroke="midnightblue" points="118.14,-192.58 108.76,-187.67 113.03,-197.36 118.14,-192.58"/>
</g>
<!-- Node10 -->
<g id="node10" class="node">
<title>Node10</title>
<g id="a_node10"><a xlink:href="point_8h.html" target="_top" xlink:title=" ">
<polygon fill="white" stroke="black" points="169.65,-168.5 169.65,-187.5 215.65,-187.5 215.65,-168.5 169.65,-168.5"/>
<text text-anchor="middle" x="192.65" y="-175.5" font-family="Arial" font-size="10.00">point.h</text>
</a>
</g>
</g>
<!-- Node1&#45;&gt;Node10 -->
<g id="edge14" class="edge">
<title>Node1&#45;&gt;Node10</title>
<path fill="none" stroke="midnightblue" d="M202.82,-280.2C199.09,-270.24 194.59,-256.54 192.65,-244 190.28,-228.65 190.46,-211.01 191.13,-197.98"/>
<polygon fill="midnightblue" stroke="midnightblue" points="194.63,-198.11 191.8,-187.9 187.64,-197.64 194.63,-198.11"/>
</g>
<!-- Node13 -->
<g id="node13" class="node">
<title>Node13</title>
<g id="a_node13"><a xlink:href="size_8h.html" target="_top" xlink:title=" ">
<polygon fill="white" stroke="black" points="282.15,-168.5 282.15,-187.5 325.15,-187.5 325.15,-168.5 282.15,-168.5"/>
<text text-anchor="middle" x="303.65" y="-175.5" font-family="Arial" font-size="10.00">size.h</text>
</a>
</g>
</g>
<!-- Node1&#45;&gt;Node13 -->
<g id="edge19" class="edge">
<title>Node1&#45;&gt;Node13</title>
<path fill="none" stroke="midnightblue" d="M247.55,-280.31C264.33,-272.21 282.61,-260.36 293.65,-244 302.73,-230.54 304.81,-211.98 304.86,-198.14"/>
<polygon fill="midnightblue" stroke="midnightblue" points="308.35,-197.72 304.54,-187.84 301.36,-197.94 308.35,-197.72"/>
</g>
<!-- Node14 -->
<g id="node14" class="node">
<title>Node14</title>
<g id="a_node14"><a xlink:href="displacement_8h.html" target="_top" xlink:title=" ">
<polygon fill="white" stroke="black" points="202.15,-224.5 202.15,-243.5 285.15,-243.5 285.15,-224.5 202.15,-224.5"/>
<text text-anchor="middle" x="243.65" y="-231.5" font-family="Arial" font-size="10.00">displacement.h</text>
</a>
</g>
</g>
<!-- Node1&#45;&gt;Node14 -->
<g id="edge22" class="edge">
<title>Node1&#45;&gt;Node14</title>
<path fill="none" stroke="midnightblue" d="M216.94,-280.4C221.87,-272.02 228.16,-261.33 233.4,-252.42"/>
<polygon fill="midnightblue" stroke="midnightblue" points="236.5,-254.05 238.56,-243.66 230.47,-250.5 236.5,-254.05"/>
</g>
<!-- Node3 -->
<g id="node3" class="node">
<title>Node3</title>
<g id="a_node3"><a xlink:href="point__generic_8h.html" target="_top" xlink:title=" ">
<polygon fill="white" stroke="black" points="14.15,-112.5 14.15,-131.5 97.15,-131.5 97.15,-112.5 14.15,-112.5"/>
<text text-anchor="middle" x="55.65" y="-119.5" font-family="Arial" font-size="10.00">point_generic.h</text>
</a>
</g>
</g>
<!-- Node2&#45;&gt;Node3 -->
<g id="edge2" class="edge">
<title>Node2&#45;&gt;Node3</title>
<path fill="none" stroke="midnightblue" d="M93.22,-168.08C86.8,-160.38 77.34,-149.03 69.53,-139.65"/>
<polygon fill="midnightblue" stroke="midnightblue" points="72.03,-137.19 62.94,-131.75 66.66,-141.67 72.03,-137.19"/>
</g>
<!-- Node7 -->
<g id="node7" class="node">
<title>Node7</title>
<g id="a_node7"><a xlink:title=" ">
<polygon fill="white" stroke="#bfbfbf" points="93.65,-56.5 93.65,-75.5 145.65,-75.5 145.65,-56.5 93.65,-56.5"/>
<text text-anchor="middle" x="119.65" y="-63.5" font-family="Arial" font-size="10.00">ostream</text>
</a>
</g>
</g>
<!-- Node2&#45;&gt;Node7 -->
<g id="edge13" class="edge">
<title>Node2&#45;&gt;Node7</title>
<path fill="none" stroke="midnightblue" d="M65.16,-168.41C30.67,-158.27 -13.96,-139.26 4.65,-112 22.15,-86.36 56.64,-75.33 83.3,-70.58"/>
<polygon fill="midnightblue" stroke="midnightblue" points="84.1,-74 93.45,-69.01 83.03,-67.08 84.1,-74"/>
</g>
<!-- Node8 -->
<g id="node8" class="node">
<title>Node8</title>
<g id="a_node8"><a xlink:href="size__generic_8h.html" target="_top" xlink:title=" ">
<polygon fill="white" stroke="black" points="252.65,-112.5 252.65,-131.5 332.65,-131.5 332.65,-112.5 252.65,-112.5"/>
<text text-anchor="middle" x="292.65" y="-119.5" font-family="Arial" font-size="10.00">size_generic.h</text>
</a>
</g>
</g>
<!-- Node2&#45;&gt;Node8 -->
<g id="edge7" class="edge">
<title>Node2&#45;&gt;Node8</title>
<path fill="none" stroke="midnightblue" d="M131.07,-168.44C163.94,-159.2 216.43,-144.44 252.62,-134.26"/>
<polygon fill="midnightblue" stroke="midnightblue" points="253.69,-137.59 262.37,-131.52 251.8,-130.85 253.69,-137.59"/>
</g>
<!-- Node9 -->
<g id="node9" class="node">
<title>Node9</title>
<g id="a_node9"><a xlink:href="displacement__generic_8h.html" target="_top" xlink:title=" ">
<polygon fill="white" stroke="black" points="115.15,-112.5 115.15,-131.5 234.15,-131.5 234.15,-112.5 115.15,-112.5"/>
<text text-anchor="middle" x="174.65" y="-119.5" font-family="Arial" font-size="10.00">displacement_generic.h</text>
</a>
</g>
</g>
<!-- Node2&#45;&gt;Node9 -->
<g id="edge10" class="edge">
<title>Node2&#45;&gt;Node9</title>
<path fill="none" stroke="midnightblue" d="M112.54,-168.32C123.8,-160.11 140.94,-147.6 154.36,-137.81"/>
<polygon fill="midnightblue" stroke="midnightblue" points="156.53,-140.56 162.54,-131.83 152.4,-134.9 156.53,-140.56"/>
</g>
<!-- Node4 -->
<g id="node4" class="node">
<title>Node4</title>
<g id="a_node4"><a xlink:href="dimensions__generic_8h.html" target="_top" xlink:title=" ">
<polygon fill="white" stroke="black" points="173.15,-56.5 173.15,-75.5 284.15,-75.5 284.15,-56.5 173.15,-56.5"/>
<text text-anchor="middle" x="228.65" y="-63.5" font-family="Arial" font-size="10.00">dimensions_generic.h</text>
</a>
</g>
</g>
<!-- Node3&#45;&gt;Node4 -->
<g id="edge3" class="edge">
<title>Node3&#45;&gt;Node4</title>
<path fill="none" stroke="midnightblue" d="M83.06,-112.44C112.42,-103.28 159.17,-88.69 191.75,-78.52"/>
<polygon fill="midnightblue" stroke="midnightblue" points="192.86,-81.84 201.37,-75.52 190.78,-75.16 192.86,-81.84"/>
</g>
<!-- Node3&#45;&gt;Node7 -->
<g id="edge6" class="edge">
<title>Node3&#45;&gt;Node7</title>
<path fill="none" stroke="midnightblue" d="M65.93,-112.32C75.49,-104.26 89.93,-92.08 101.43,-82.37"/>
<polygon fill="midnightblue" stroke="midnightblue" points="103.79,-84.96 109.18,-75.83 99.28,-79.61 103.79,-84.96"/>
</g>
<!-- Node5 -->
<g id="node5" class="node">
<title>Node5</title>
<g id="a_node5"><a xlink:title=" ">
<polygon fill="white" stroke="#bfbfbf" points="170.15,-0.5 170.15,-19.5 215.15,-19.5 215.15,-0.5 170.15,-0.5"/>
<text text-anchor="middle" x="192.65" y="-7.5" font-family="Arial" font-size="10.00">iosfwd</text>
</a>
</g>
</g>
<!-- Node4&#45;&gt;Node5 -->
<g id="edge4" class="edge">
<title>Node4&#45;&gt;Node5</title>
<path fill="none" stroke="midnightblue" d="M222.71,-56.08C217.67,-48.53 210.31,-37.49 204.14,-28.23"/>
<polygon fill="midnightblue" stroke="midnightblue" points="206.94,-26.13 198.48,-19.75 201.12,-30.01 206.94,-26.13"/>
</g>
<!-- Node6 -->
<g id="node6" class="node">
<title>Node6</title>
<g id="a_node6"><a xlink:title=" ">
<polygon fill="white" stroke="#bfbfbf" points="233.65,-0.5 233.65,-19.5 295.65,-19.5 295.65,-0.5 233.65,-0.5"/>
<text text-anchor="middle" x="264.65" y="-7.5" font-family="Arial" font-size="10.00">type_traits</text>
</a>
</g>
</g>
<!-- Node4&#45;&gt;Node6 -->
<g id="edge5" class="edge">
<title>Node4&#45;&gt;Node6</title>
<path fill="none" stroke="midnightblue" d="M234.59,-56.08C239.63,-48.53 246.99,-37.49 253.16,-28.23"/>
<polygon fill="midnightblue" stroke="midnightblue" points="256.18,-30.01 258.82,-19.75 250.36,-26.13 256.18,-30.01"/>
</g>
<!-- Node8&#45;&gt;Node4 -->
<g id="edge8" class="edge">
<title>Node8&#45;&gt;Node4</title>
<path fill="none" stroke="midnightblue" d="M282.37,-112.32C272.81,-104.26 258.37,-92.08 246.87,-82.37"/>
<polygon fill="midnightblue" stroke="midnightblue" points="249.02,-79.61 239.12,-75.83 244.51,-84.96 249.02,-79.61"/>
</g>
<!-- Node8&#45;&gt;Node7 -->
<g id="edge9" class="edge">
<title>Node8&#45;&gt;Node7</title>
<path fill="none" stroke="midnightblue" d="M265.24,-112.44C235.54,-103.17 188.03,-88.34 155.41,-78.16"/>
<polygon fill="midnightblue" stroke="midnightblue" points="156.39,-74.8 145.8,-75.16 154.3,-81.48 156.39,-74.8"/>
</g>
<!-- Node9&#45;&gt;Node4 -->
<g id="edge11" class="edge">
<title>Node9&#45;&gt;Node4</title>
<path fill="none" stroke="midnightblue" d="M183.57,-112.08C191.43,-104.22 203.08,-92.57 212.57,-83.08"/>
<polygon fill="midnightblue" stroke="midnightblue" points="215.3,-85.3 219.9,-75.75 210.35,-80.35 215.3,-85.3"/>
</g>
<!-- Node9&#45;&gt;Node7 -->
<g id="edge12" class="edge">
<title>Node9&#45;&gt;Node7</title>
<path fill="none" stroke="midnightblue" d="M165.57,-112.08C157.48,-104.14 145.45,-92.34 135.74,-82.8"/>
<polygon fill="midnightblue" stroke="midnightblue" points="138.15,-80.26 128.56,-75.75 133.25,-85.25 138.15,-80.26"/>
</g>
<!-- Node10&#45;&gt;Node3 -->
<g id="edge15" class="edge">
<title>Node10&#45;&gt;Node3</title>
<path fill="none" stroke="midnightblue" d="M170.94,-168.44C148.3,-159.52 112.58,-145.44 86.9,-135.32"/>
<polygon fill="midnightblue" stroke="midnightblue" points="87.84,-131.93 77.26,-131.52 85.28,-138.44 87.84,-131.93"/>
</g>
<!-- Node11 -->
<g id="node11" class="node">
<title>Node11</title>
<g id="a_node11"><a xlink:href="dimensions_8h.html" target="_top" xlink:title=" ">
<polygon fill="white" stroke="black" points="350.65,-112.5 350.65,-131.5 424.65,-131.5 424.65,-112.5 350.65,-112.5"/>
<text text-anchor="middle" x="387.65" y="-119.5" font-family="Arial" font-size="10.00">dimensions.h</text>
</a>
</g>
</g>
<!-- Node10&#45;&gt;Node11 -->
<g id="edge16" class="edge">
<title>Node10&#45;&gt;Node11</title>
<path fill="none" stroke="midnightblue" d="M215.79,-170.59C248.15,-161.63 307.43,-145.21 347.19,-134.2"/>
<polygon fill="midnightblue" stroke="midnightblue" points="348.15,-137.57 356.85,-131.53 346.28,-130.82 348.15,-137.57"/>
</g>
<!-- Node11&#45;&gt;Node4 -->
<g id="edge17" class="edge">
<title>Node11&#45;&gt;Node4</title>
<path fill="none" stroke="midnightblue" d="M362.46,-112.44C335.71,-103.36 293.25,-88.94 263.35,-78.78"/>
<polygon fill="midnightblue" stroke="midnightblue" points="264.32,-75.42 253.73,-75.52 262.07,-82.05 264.32,-75.42"/>
</g>
<!-- Node12 -->
<g id="node12" class="node">
<title>Node12</title>
<g id="a_node12"><a xlink:title=" ">
<polygon fill="white" stroke="#bfbfbf" points="364.65,-56.5 364.65,-75.5 410.65,-75.5 410.65,-56.5 364.65,-56.5"/>
<text text-anchor="middle" x="387.65" y="-63.5" font-family="Arial" font-size="10.00">cstdint</text>
</a>
</g>
</g>
<!-- Node11&#45;&gt;Node12 -->
<g id="edge18" class="edge">
<title>Node11&#45;&gt;Node12</title>
<path fill="none" stroke="midnightblue" d="M387.65,-112.08C387.65,-105.01 387.65,-94.86 387.65,-85.99"/>
<polygon fill="midnightblue" stroke="midnightblue" points="391.15,-85.75 387.65,-75.75 384.15,-85.75 391.15,-85.75"/>
</g>
<!-- Node13&#45;&gt;Node8 -->
<g id="edge20" class="edge">
<title>Node13&#45;&gt;Node8</title>
<path fill="none" stroke="midnightblue" d="M301.83,-168.08C300.38,-160.93 298.28,-150.64 296.46,-141.69"/>
<polygon fill="midnightblue" stroke="midnightblue" points="299.86,-140.85 294.43,-131.75 293,-142.25 299.86,-140.85"/>
</g>
<!-- Node13&#45;&gt;Node11 -->
<g id="edge21" class="edge">
<title>Node13&#45;&gt;Node11</title>
<path fill="none" stroke="midnightblue" d="M317.15,-168.32C330.25,-159.9 350.36,-146.97 365.76,-137.07"/>
<polygon fill="midnightblue" stroke="midnightblue" points="367.67,-140.01 374.19,-131.65 363.88,-134.12 367.67,-140.01"/>
</g>
<!-- Node14&#45;&gt;Node9 -->
<g id="edge23" class="edge">
<title>Node14&#45;&gt;Node9</title>
<path fill="none" stroke="midnightblue" d="M242.66,-224.39C240.84,-211.33 236.04,-186.12 224.65,-168 217.34,-156.38 206.2,-145.94 196.29,-138.05"/>
<polygon fill="midnightblue" stroke="midnightblue" points="198.11,-135.04 188.02,-131.81 193.89,-140.62 198.11,-135.04"/>
</g>
<!-- Node14&#45;&gt;Node10 -->
<g id="edge25" class="edge">
<title>Node14&#45;&gt;Node10</title>
<path fill="none" stroke="midnightblue" d="M235.23,-224.08C227.8,-216.22 216.8,-204.57 207.84,-195.08"/>
<polygon fill="midnightblue" stroke="midnightblue" points="210.33,-192.62 200.92,-187.75 205.24,-197.42 210.33,-192.62"/>
</g>
<!-- Node14&#45;&gt;Node11 -->
<g id="edge24" class="edge">
<title>Node14&#45;&gt;Node11</title>
<path fill="none" stroke="midnightblue" d="M266.99,-224.47C286.12,-216.77 313.26,-204.18 333.65,-188 351,-174.24 366.66,-154.11 376.6,-139.9"/>
<polygon fill="midnightblue" stroke="midnightblue" points="379.54,-141.79 382.26,-131.55 373.75,-137.87 379.54,-141.79"/>
</g>
<!-- Node14&#45;&gt;Node13 -->
<g id="edge26" class="edge">
<title>Node14&#45;&gt;Node13</title>
<path fill="none" stroke="midnightblue" d="M253.29,-224.32C262.16,-216.34 275.53,-204.31 286.26,-194.65"/>
<polygon fill="midnightblue" stroke="midnightblue" points="288.74,-197.13 293.83,-187.83 284.06,-191.92 288.74,-197.13"/>
</g>
</g>
</svg>
