<?xml version="1.0" encoding="UTF-8" standalone="no"?>
<!DOCTYPE svg PUBLIC "-//W3C//DTD SVG 1.1//EN"
 "http://www.w3.org/Graphics/SVG/1.1/DTD/svg11.dtd">
<!-- Generated by graphviz version 2.38.0 (20140413.2041)
 -->
<!-- Title: include/renderer/mir/renderer/renderer.h Pages: 1 -->
<svg width="552pt" height="319pt"
 viewBox="0.00 0.00 551.50 319.00" xmlns="http://www.w3.org/2000/svg" xmlns:xlink="http://www.w3.org/1999/xlink">
<g id="graph0" class="graph" transform="scale(1 1) rotate(0) translate(4 315)">
<title>include/renderer/mir/renderer/renderer.h</title>
<polygon fill="white" stroke="none" points="-4,4 -4,-315 547.5,-315 547.5,4 -4,4"/>
<!-- Node0 -->
<g id="node1" class="node"><title>Node0</title>
<polygon fill="#bfbfbf" stroke="black" points="208.5,-280.5 208.5,-310.5 310.5,-310.5 310.5,-280.5 208.5,-280.5"/>
<text text-anchor="start" x="216.5" y="-298.5" font-family="Arial" font-size="10.00">include/renderer/mir</text>
<text text-anchor="middle" x="259.5" y="-287.5" font-family="Arial" font-size="10.00">/renderer/renderer.h</text>
</g>
<!-- Node1 -->
<g id="node2" class="node"><title>Node1</title>
<g id="a_node2"><a xlink:href="rectangle_8h.html" target="_top" xlink:title="mir/geometry/rectangle.h">
<polygon fill="white" stroke="black" points="52,-168.5 52,-187.5 177,-187.5 177,-168.5 52,-168.5"/>
<text text-anchor="middle" x="114.5" y="-175.5" font-family="Arial" font-size="10.00">mir/geometry/rectangle.h</text>
</a>
</g>
</g>
<!-- Node0&#45;&gt;Node1 -->
<g id="edge1" class="edge"><title>Node0&#45;&gt;Node1</title>
<path fill="none" stroke="midnightblue" d="M241.72,-280.337C214.17,-258.392 161.415,-216.37 133.272,-193.953"/>
<polygon fill="midnightblue" stroke="midnightblue" points="135.386,-191.162 125.384,-187.669 131.025,-196.638 135.386,-191.162"/>
</g>
<!-- Node7 -->
<g id="node8" class="node"><title>Node7</title>
<g id="a_node8"><a xlink:href="renderable_8h.html" target="_top" xlink:title="mir/graphics/renderable.h">
<polygon fill="white" stroke="black" points="242.5,-224.5 242.5,-243.5 368.5,-243.5 368.5,-224.5 242.5,-224.5"/>
<text text-anchor="middle" x="305.5" y="-231.5" font-family="Arial" font-size="10.00">mir/graphics/renderable.h</text>
</a>
</g>
</g>
<!-- Node0&#45;&gt;Node7 -->
<g id="edge11" class="edge"><title>Node0&#45;&gt;Node7</title>
<path fill="none" stroke="midnightblue" d="M270.401,-280.399C277.086,-271.753 285.676,-260.642 292.685,-251.576"/>
<polygon fill="midnightblue" stroke="midnightblue" points="295.459,-253.71 298.807,-243.658 289.921,-249.428 295.459,-253.71"/>
</g>
<!-- Node8 -->
<g id="node9" class="node"><title>Node8</title>
<polygon fill="white" stroke="#bfbfbf" points="195.5,-168.5 195.5,-187.5 265.5,-187.5 265.5,-168.5 195.5,-168.5"/>
<text text-anchor="middle" x="230.5" y="-175.5" font-family="Arial" font-size="10.00">glm/glm.hpp</text>
</g>
<!-- Node0&#45;&gt;Node8 -->
<g id="edge18" class="edge"><title>Node0&#45;&gt;Node8</title>
<path fill="none" stroke="midnightblue" d="M249.997,-280.156C244.08,-270.4 236.958,-256.958 233.5,-244 229.445,-228.805 228.913,-210.913 229.272,-197.752"/>
<polygon fill="midnightblue" stroke="midnightblue" points="232.776,-197.744 229.75,-187.59 225.784,-197.415 232.776,-197.744"/>
</g>
<!-- Node11 -->
<g id="node12" class="node"><title>Node11</title>
<g id="a_node12"><a xlink:href="common_8h.html" target="_top" xlink:title="mir_toolkit/common.h">
<polygon fill="white" stroke="black" points="405.5,-224.5 405.5,-243.5 515.5,-243.5 515.5,-224.5 405.5,-224.5"/>
<text text-anchor="middle" x="460.5" y="-231.5" font-family="Arial" font-size="10.00">mir_toolkit/common.h</text>
</a>
</g>
</g>
<!-- Node0&#45;&gt;Node11 -->
<g id="edge16" class="edge"><title>Node0&#45;&gt;Node11</title>
<path fill="none" stroke="midnightblue" d="M306.88,-280.475C342.011,-270.075 389.294,-256.078 422.083,-246.372"/>
<polygon fill="midnightblue" stroke="midnightblue" points="423.169,-249.701 431.764,-243.506 421.182,-242.989 423.169,-249.701"/>
</g>
<!-- Node2 -->
<g id="node3" class="node"><title>Node2</title>
<g id="a_node3"><a xlink:href="point_8h.html" target="_top" xlink:title="mir/geometry/point.h">
<polygon fill="white" stroke="black" points="61.5,-112.5 61.5,-131.5 167.5,-131.5 167.5,-112.5 61.5,-112.5"/>
<text text-anchor="middle" x="114.5" y="-119.5" font-family="Arial" font-size="10.00">mir/geometry/point.h</text>
</a>
</g>
</g>
<!-- Node1&#45;&gt;Node2 -->
<g id="edge2" class="edge"><title>Node1&#45;&gt;Node2</title>
<path fill="none" stroke="midnightblue" d="M114.5,-168.083C114.5,-161.006 114.5,-150.861 114.5,-141.986"/>
<polygon fill="midnightblue" stroke="midnightblue" points="118,-141.751 114.5,-131.751 111,-141.751 118,-141.751"/>
</g>
<!-- Node5 -->
<g id="node6" class="node"><title>Node5</title>
<polygon fill="white" stroke="#bfbfbf" points="128.5,-0.5 128.5,-19.5 172.5,-19.5 172.5,-0.5 128.5,-0.5"/>
<text text-anchor="middle" x="150.5" y="-7.5" font-family="Arial" font-size="10.00">iosfwd</text>
</g>
<!-- Node1&#45;&gt;Node5 -->
<g id="edge10" class="edge"><title>Node1&#45;&gt;Node5</title>
<path fill="none" stroke="midnightblue" d="M134.723,-168.495C149.271,-161.168 167.801,-149.063 176.5,-132 193.826,-98.0151 174.616,-52.9721 161.213,-28.5541"/>
<polygon fill="midnightblue" stroke="midnightblue" points="164.144,-26.6308 156.114,-19.7188 158.081,-30.1295 164.144,-26.6308"/>
</g>
<!-- Node6 -->
<g id="node7" class="node"><title>Node6</title>
<g id="a_node7"><a xlink:href="size_8h.html" target="_top" xlink:title="size.h">
<polygon fill="white" stroke="black" points="0,-112.5 0,-131.5 43,-131.5 43,-112.5 0,-112.5"/>
<text text-anchor="middle" x="21.5" y="-119.5" font-family="Arial" font-size="10.00">size.h</text>
</a>
</g>
</g>
<!-- Node1&#45;&gt;Node6 -->
<g id="edge7" class="edge"><title>Node1&#45;&gt;Node6</title>
<path fill="none" stroke="midnightblue" d="M99.5579,-168.324C84.9148,-159.822 62.3663,-146.729 45.2623,-136.797"/>
<polygon fill="midnightblue" stroke="midnightblue" points="46.8104,-133.649 36.405,-131.655 43.2954,-139.703 46.8104,-133.649"/>
</g>
<!-- Node3 -->
<g id="node4" class="node"><title>Node3</title>
<g id="a_node4"><a xlink:href="dimensions_8h.html" target="_top" xlink:title="dimensions.h">
<polygon fill="white" stroke="black" points="49.5,-56.5 49.5,-75.5 123.5,-75.5 123.5,-56.5 49.5,-56.5"/>
<text text-anchor="middle" x="86.5" y="-63.5" font-family="Arial" font-size="10.00">dimensions.h</text>
</a>
</g>
</g>
<!-- Node2&#45;&gt;Node3 -->
<g id="edge3" class="edge"><title>Node2&#45;&gt;Node3</title>
<path fill="none" stroke="midnightblue" d="M109.876,-112.083C106.044,-104.691 100.476,-93.9533 95.7354,-84.8111"/>
<polygon fill="midnightblue" stroke="midnightblue" points="98.748,-83.0175 91.0376,-75.7511 92.5337,-86.2398 98.748,-83.0175"/>
</g>
<!-- Node2&#45;&gt;Node5 -->
<g id="edge6" class="edge"><title>Node2&#45;&gt;Node5</title>
<path fill="none" stroke="midnightblue" d="M118.236,-112.478C122.092,-103.506 128.143,-88.9162 132.5,-76 137.71,-60.5534 142.577,-42.6839 145.933,-29.595"/>
<polygon fill="midnightblue" stroke="midnightblue" points="149.426,-30.0554 148.464,-19.5043 142.636,-28.3524 149.426,-30.0554"/>
</g>
<!-- Node4 -->
<g id="node5" class="node"><title>Node4</title>
<polygon fill="white" stroke="#bfbfbf" points="63.5,-0.5 63.5,-19.5 109.5,-19.5 109.5,-0.5 63.5,-0.5"/>
<text text-anchor="middle" x="86.5" y="-7.5" font-family="Arial" font-size="10.00">cstdint</text>
</g>
<!-- Node3&#45;&gt;Node4 -->
<g id="edge4" class="edge"><title>Node3&#45;&gt;Node4</title>
<path fill="none" stroke="midnightblue" d="M86.5,-56.083C86.5,-49.0059 86.5,-38.8611 86.5,-29.9865"/>
<polygon fill="midnightblue" stroke="midnightblue" points="90.0001,-29.751 86.5,-19.7511 83.0001,-29.7511 90.0001,-29.751"/>
</g>
<!-- Node3&#45;&gt;Node5 -->
<g id="edge5" class="edge"><title>Node3&#45;&gt;Node5</title>
<path fill="none" stroke="midnightblue" d="M96.7827,-56.324C106.336,-48.2631 120.78,-36.0765 132.284,-26.3695"/>
<polygon fill="midnightblue" stroke="midnightblue" points="134.644,-28.9577 140.03,-19.8339 130.13,-23.6076 134.644,-28.9577"/>
</g>
<!-- Node6&#45;&gt;Node3 -->
<g id="edge8" class="edge"><title>Node6&#45;&gt;Node3</title>
<path fill="none" stroke="midnightblue" d="M31.9434,-112.324C41.6462,-104.263 56.3153,-92.0765 67.9997,-82.3695"/>
<polygon fill="midnightblue" stroke="midnightblue" points="70.4113,-84.9163 75.8666,-75.8339 65.9381,-79.532 70.4113,-84.9163"/>
</g>
<!-- Node6&#45;&gt;Node5 -->
<g id="edge9" class="edge"><title>Node6&#45;&gt;Node5</title>
<path fill="none" stroke="midnightblue" d="M21.7269,-112.281C22.5387,-98.6188 26.0185,-72.0706 40.5,-56 51.3112,-44.0024 90.0324,-29.851 118.487,-20.6662"/>
<polygon fill="midnightblue" stroke="midnightblue" points="119.584,-23.9904 128.061,-17.6362 117.471,-17.3166 119.584,-23.9904"/>
</g>
<!-- Node7&#45;&gt;Node1 -->
<g id="edge12" class="edge"><title>Node7&#45;&gt;Node1</title>
<path fill="none" stroke="midnightblue" d="M275.235,-224.444C242.545,-215.201 190.318,-200.436 154.317,-190.257"/>
<polygon fill="midnightblue" stroke="midnightblue" points="155.198,-186.869 144.623,-187.516 153.294,-193.605 155.198,-186.869"/>
</g>
<!-- Node7&#45;&gt;Node8 -->
<g id="edge13" class="edge"><title>Node7&#45;&gt;Node8</title>
<path fill="none" stroke="midnightblue" d="M293.45,-224.324C282.037,-216.107 264.669,-203.602 251.065,-193.807"/>
<polygon fill="midnightblue" stroke="midnightblue" points="252.93,-190.837 242.769,-187.834 248.84,-196.517 252.93,-190.837"/>
</g>
<!-- Node9 -->
<g id="node10" class="node"><title>Node9</title>
<polygon fill="white" stroke="#bfbfbf" points="345.5,-168.5 345.5,-187.5 397.5,-187.5 397.5,-168.5 345.5,-168.5"/>
<text text-anchor="middle" x="371.5" y="-175.5" font-family="Arial" font-size="10.00">memory</text>
</g>
<!-- Node7&#45;&gt;Node9 -->
<g id="edge14" class="edge"><title>Node7&#45;&gt;Node9</title>
<path fill="none" stroke="midnightblue" d="M316.104,-224.324C325.956,-216.263 340.851,-204.077 352.715,-194.369"/>
<polygon fill="midnightblue" stroke="midnightblue" points="355.18,-196.875 360.703,-187.834 350.747,-191.457 355.18,-196.875"/>
</g>
<!-- Node10 -->
<g id="node11" class="node"><title>Node10</title>
<polygon fill="white" stroke="#bfbfbf" points="283.5,-168.5 283.5,-187.5 327.5,-187.5 327.5,-168.5 283.5,-168.5"/>
<text text-anchor="middle" x="305.5" y="-175.5" font-family="Arial" font-size="10.00">vector</text>
</g>
<!-- Node7&#45;&gt;Node10 -->
<g id="edge15" class="edge"><title>Node7&#45;&gt;Node10</title>
<path fill="none" stroke="midnightblue" d="M305.5,-224.083C305.5,-217.006 305.5,-206.861 305.5,-197.986"/>
<polygon fill="midnightblue" stroke="midnightblue" points="309,-197.751 305.5,-187.751 302,-197.751 309,-197.751"/>
</g>
<!-- Node12 -->
<g id="node13" class="node"><title>Node12</title>
<g id="a_node13"><a xlink:href="deprecations_8h.html" target="_top" xlink:title="mir_toolkit/deprecations.h">
<polygon fill="white" stroke="black" points="415.5,-168.5 415.5,-187.5 543.5,-187.5 543.5,-168.5 415.5,-168.5"/>
<text text-anchor="middle" x="479.5" y="-175.5" font-family="Arial" font-size="10.00">mir_toolkit/deprecations.h</text>
</a>
</g>
</g>
<!-- Node11&#45;&gt;Node12 -->
<g id="edge17" class="edge"><title>Node11&#45;&gt;Node12</title>
<path fill="none" stroke="midnightblue" d="M463.637,-224.083C466.183,-216.849 469.856,-206.409 473.027,-197.397"/>
<polygon fill="midnightblue" stroke="midnightblue" points="476.403,-198.346 476.421,-187.751 469.8,-196.023 476.403,-198.346"/>
</g>
</g>
</svg>
