<?xml version="1.0" encoding="UTF-8" standalone="no"?>
<!DOCTYPE svg PUBLIC "-//W3C//DTD SVG 1.1//EN"
 "http://www.w3.org/Graphics/SVG/1.1/DTD/svg11.dtd">
<!-- Generated by graphviz version 2.38.0 (20140413.2041)
 -->
<!-- Title: include/platform/mir/graphics/renderable.h Pages: 1 -->
<svg width="406pt" height="263pt"
 viewBox="0.00 0.00 405.50 263.00" xmlns="http://www.w3.org/2000/svg" xmlns:xlink="http://www.w3.org/1999/xlink">
<g id="graph0" class="graph" transform="scale(1 1) rotate(0) translate(4 259)">
<title>include/platform/mir/graphics/renderable.h</title>
<polygon fill="white" stroke="none" points="-4,4 -4,-259 401.5,-259 401.5,4 -4,4"/>
<!-- Node0 -->
<g id="node1" class="node"><title>Node0</title>
<polygon fill="#bfbfbf" stroke="black" points="213,-224.5 213,-254.5 326,-254.5 326,-224.5 213,-224.5"/>
<text text-anchor="start" x="221" y="-242.5" font-family="Arial" font-size="10.00">include/platform/mir</text>
<text text-anchor="middle" x="269.5" y="-231.5" font-family="Arial" font-size="10.00">/graphics/renderable.h</text>
</g>
<!-- Node1 -->
<g id="node2" class="node"><title>Node1</title>
<g id="a_node2"><a xlink:href="rectangle_8h.html" target="_top" xlink:title="mir/geometry/rectangle.h">
<polygon fill="white" stroke="black" points="52,-168.5 52,-187.5 177,-187.5 177,-168.5 52,-168.5"/>
<text text-anchor="middle" x="114.5" y="-175.5" font-family="Arial" font-size="10.00">mir/geometry/rectangle.h</text>
</a>
</g>
</g>
<!-- Node0&#45;&gt;Node1 -->
<g id="edge1" class="edge"><title>Node0&#45;&gt;Node1</title>
<path fill="none" stroke="midnightblue" d="M232.767,-224.399C206.529,-214.327 171.575,-200.909 146.482,-191.277"/>
<polygon fill="midnightblue" stroke="midnightblue" points="147.644,-187.974 137.054,-187.658 145.135,-194.509 147.644,-187.974"/>
</g>
<!-- Node7 -->
<g id="node8" class="node"><title>Node7</title>
<polygon fill="white" stroke="#bfbfbf" points="195.5,-168.5 195.5,-187.5 265.5,-187.5 265.5,-168.5 195.5,-168.5"/>
<text text-anchor="middle" x="230.5" y="-175.5" font-family="Arial" font-size="10.00">glm/glm.hpp</text>
</g>
<!-- Node0&#45;&gt;Node7 -->
<g id="edge11" class="edge"><title>Node0&#45;&gt;Node7</title>
<path fill="none" stroke="midnightblue" d="M260.258,-224.399C254.707,-215.932 247.607,-205.099 241.734,-196.139"/>
<polygon fill="midnightblue" stroke="midnightblue" points="244.584,-194.103 236.175,-187.658 238.73,-197.94 244.584,-194.103"/>
</g>
<!-- Node8 -->
<g id="node9" class="node"><title>Node8</title>
<polygon fill="white" stroke="#bfbfbf" points="283.5,-168.5 283.5,-187.5 335.5,-187.5 335.5,-168.5 283.5,-168.5"/>
<text text-anchor="middle" x="309.5" y="-175.5" font-family="Arial" font-size="10.00">memory</text>
</g>
<!-- Node0&#45;&gt;Node8 -->
<g id="edge12" class="edge"><title>Node0&#45;&gt;Node8</title>
<path fill="none" stroke="midnightblue" d="M278.979,-224.399C284.672,-215.932 291.954,-205.099 297.978,-196.139"/>
<polygon fill="midnightblue" stroke="midnightblue" points="301.005,-197.909 303.68,-187.658 295.196,-194.004 301.005,-197.909"/>
</g>
<!-- Node9 -->
<g id="node10" class="node"><title>Node9</title>
<polygon fill="white" stroke="#bfbfbf" points="353.5,-168.5 353.5,-187.5 397.5,-187.5 397.5,-168.5 353.5,-168.5"/>
<text text-anchor="middle" x="375.5" y="-175.5" font-family="Arial" font-size="10.00">vector</text>
</g>
<!-- Node0&#45;&gt;Node9 -->
<g id="edge13" class="edge"><title>Node0&#45;&gt;Node9</title>
<path fill="none" stroke="midnightblue" d="M294.621,-224.399C311.77,-214.773 334.365,-202.09 351.312,-192.577"/>
<polygon fill="midnightblue" stroke="midnightblue" points="353.069,-195.605 360.076,-187.658 349.643,-189.501 353.069,-195.605"/>
</g>
<!-- Node2 -->
<g id="node3" class="node"><title>Node2</title>
<g id="a_node3"><a xlink:href="point_8h.html" target="_top" xlink:title="mir/geometry/point.h">
<polygon fill="white" stroke="black" points="61.5,-112.5 61.5,-131.5 167.5,-131.5 167.5,-112.5 61.5,-112.5"/>
<text text-anchor="middle" x="114.5" y="-119.5" font-family="Arial" font-size="10.00">mir/geometry/point.h</text>
</a>
</g>
</g>
<!-- Node1&#45;&gt;Node2 -->
<g id="edge2" class="edge"><title>Node1&#45;&gt;Node2</title>
<path fill="none" stroke="midnightblue" d="M114.5,-168.083C114.5,-161.006 114.5,-150.861 114.5,-141.986"/>
<polygon fill="midnightblue" stroke="midnightblue" points="118,-141.751 114.5,-131.751 111,-141.751 118,-141.751"/>
</g>
<!-- Node5 -->
<g id="node6" class="node"><title>Node5</title>
<polygon fill="white" stroke="#bfbfbf" points="128.5,-0.5 128.5,-19.5 172.5,-19.5 172.5,-0.5 128.5,-0.5"/>
<text text-anchor="middle" x="150.5" y="-7.5" font-family="Arial" font-size="10.00">iosfwd</text>
</g>
<!-- Node1&#45;&gt;Node5 -->
<g id="edge10" class="edge"><title>Node1&#45;&gt;Node5</title>
<path fill="none" stroke="midnightblue" d="M134.723,-168.495C149.271,-161.168 167.801,-149.063 176.5,-132 193.826,-98.0151 174.616,-52.9721 161.213,-28.5541"/>
<polygon fill="midnightblue" stroke="midnightblue" points="164.144,-26.6308 156.114,-19.7188 158.081,-30.1295 164.144,-26.6308"/>
</g>
<!-- Node6 -->
<g id="node7" class="node"><title>Node6</title>
<g id="a_node7"><a xlink:href="size_8h.html" target="_top" xlink:title="size.h">
<polygon fill="white" stroke="black" points="0,-112.5 0,-131.5 43,-131.5 43,-112.5 0,-112.5"/>
<text text-anchor="middle" x="21.5" y="-119.5" font-family="Arial" font-size="10.00">size.h</text>
</a>
</g>
</g>
<!-- Node1&#45;&gt;Node6 -->
<g id="edge7" class="edge"><title>Node1&#45;&gt;Node6</title>
<path fill="none" stroke="midnightblue" d="M99.5579,-168.324C84.9148,-159.822 62.3663,-146.729 45.2623,-136.797"/>
<polygon fill="midnightblue" stroke="midnightblue" points="46.8104,-133.649 36.405,-131.655 43.2954,-139.703 46.8104,-133.649"/>
</g>
<!-- Node3 -->
<g id="node4" class="node"><title>Node3</title>
<g id="a_node4"><a xlink:href="dimensions_8h.html" target="_top" xlink:title="dimensions.h">
<polygon fill="white" stroke="black" points="49.5,-56.5 49.5,-75.5 123.5,-75.5 123.5,-56.5 49.5,-56.5"/>
<text text-anchor="middle" x="86.5" y="-63.5" font-family="Arial" font-size="10.00">dimensions.h</text>
</a>
</g>
</g>
<!-- Node2&#45;&gt;Node3 -->
<g id="edge3" class="edge"><title>Node2&#45;&gt;Node3</title>
<path fill="none" stroke="midnightblue" d="M109.876,-112.083C106.044,-104.691 100.476,-93.9533 95.7354,-84.8111"/>
<polygon fill="midnightblue" stroke="midnightblue" points="98.748,-83.0175 91.0376,-75.7511 92.5337,-86.2398 98.748,-83.0175"/>
</g>
<!-- Node2&#45;&gt;Node5 -->
<g id="edge6" class="edge"><title>Node2&#45;&gt;Node5</title>
<path fill="none" stroke="midnightblue" d="M118.236,-112.478C122.092,-103.506 128.143,-88.9162 132.5,-76 137.71,-60.5534 142.577,-42.6839 145.933,-29.595"/>
<polygon fill="midnightblue" stroke="midnightblue" points="149.426,-30.0554 148.464,-19.5043 142.636,-28.3524 149.426,-30.0554"/>
</g>
<!-- Node4 -->
<g id="node5" class="node"><title>Node4</title>
<polygon fill="white" stroke="#bfbfbf" points="63.5,-0.5 63.5,-19.5 109.5,-19.5 109.5,-0.5 63.5,-0.5"/>
<text text-anchor="middle" x="86.5" y="-7.5" font-family="Arial" font-size="10.00">cstdint</text>
</g>
<!-- Node3&#45;&gt;Node4 -->
<g id="edge4" class="edge"><title>Node3&#45;&gt;Node4</title>
<path fill="none" stroke="midnightblue" d="M86.5,-56.083C86.5,-49.0059 86.5,-38.8611 86.5,-29.9865"/>
<polygon fill="midnightblue" stroke="midnightblue" points="90.0001,-29.751 86.5,-19.7511 83.0001,-29.7511 90.0001,-29.751"/>
</g>
<!-- Node3&#45;&gt;Node5 -->
<g id="edge5" class="edge"><title>Node3&#45;&gt;Node5</title>
<path fill="none" stroke="midnightblue" d="M96.7827,-56.324C106.336,-48.2631 120.78,-36.0765 132.284,-26.3695"/>
<polygon fill="midnightblue" stroke="midnightblue" points="134.644,-28.9577 140.03,-19.8339 130.13,-23.6076 134.644,-28.9577"/>
</g>
<!-- Node6&#45;&gt;Node3 -->
<g id="edge8" class="edge"><title>Node6&#45;&gt;Node3</title>
<path fill="none" stroke="midnightblue" d="M31.9434,-112.324C41.6462,-104.263 56.3153,-92.0765 67.9997,-82.3695"/>
<polygon fill="midnightblue" stroke="midnightblue" points="70.4113,-84.9163 75.8666,-75.8339 65.9381,-79.532 70.4113,-84.9163"/>
</g>
<!-- Node6&#45;&gt;Node5 -->
<g id="edge9" class="edge"><title>Node6&#45;&gt;Node5</title>
<path fill="none" stroke="midnightblue" d="M21.7269,-112.281C22.5387,-98.6188 26.0185,-72.0706 40.5,-56 51.3112,-44.0024 90.0324,-29.851 118.487,-20.6662"/>
<polygon fill="midnightblue" stroke="midnightblue" points="119.584,-23.9904 128.061,-17.6362 117.471,-17.3166 119.584,-23.9904"/>
</g>
</g>
</svg>
