<?xml version="1.0" encoding="UTF-8" standalone="no"?>
<!DOCTYPE svg PUBLIC "-//W3C//DTD SVG 1.1//EN"
 "http://www.w3.org/Graphics/SVG/1.1/DTD/svg11.dtd">
<!-- Generated by graphviz version 2.38.0 (20140413.2041)
 -->
<!-- Title: include/client/mir_toolkit/events/resize_event.h Pages: 1 -->
<svg width="1503pt" height="318pt"
 viewBox="0.00 0.00 1502.50 318.00" xmlns="http://www.w3.org/2000/svg" xmlns:xlink="http://www.w3.org/1999/xlink">
<g id="graph0" class="graph" transform="scale(1 1) rotate(0) translate(4 314)">
<title>include/client/mir_toolkit/events/resize_event.h</title>
<polygon fill="white" stroke="none" points="-4,4 -4,-314 1498.5,-314 1498.5,4 -4,4"/>
<!-- Node0 -->
<g id="node1" class="node"><title>Node0</title>
<polygon fill="#bfbfbf" stroke="black" points="626,-268.5 626,-309.5 736,-309.5 736,-268.5 626,-268.5"/>
<text text-anchor="start" x="634" y="-297.5" font-family="Arial" font-size="10.00">include/client/mir</text>
<text text-anchor="start" x="634" y="-286.5" font-family="Arial" font-size="10.00">_toolkit/events/resize</text>
<text text-anchor="middle" x="681" y="-275.5" font-family="Arial" font-size="10.00">_event.h</text>
</g>
<!-- Node1 -->
<g id="node2" class="node"><title>Node1</title>
<g id="a_node2"><a xlink:href="toolkit_2events_2event_8h.html" target="_top" xlink:title="mir_toolkit/events\l/event.h">
<polygon fill="white" stroke="black" points="634,-201.5 634,-231.5 728,-231.5 728,-201.5 634,-201.5"/>
<text text-anchor="start" x="642" y="-219.5" font-family="Arial" font-size="10.00">mir_toolkit/events</text>
<text text-anchor="middle" x="681" y="-208.5" font-family="Arial" font-size="10.00">/event.h</text>
</a>
</g>
</g>
<!-- Node0&#45;&gt;Node1 -->
<g id="edge1" class="edge"><title>Node0&#45;&gt;Node1</title>
<path fill="none" stroke="midnightblue" d="M674.877,-268.362C674.179,-260.226 674.064,-250.7 674.531,-242.105"/>
<polygon fill="midnightblue" stroke="midnightblue" points="678.04,-242.161 675.435,-231.892 671.067,-241.544 678.04,-242.161"/>
</g>
<!-- Node1&#45;&gt;Node0 -->
<g id="edge18" class="edge"><title>Node1&#45;&gt;Node0</title>
<path fill="none" stroke="midnightblue" d="M686.565,-231.892C687.556,-239.532 687.926,-249.214 687.673,-258.376"/>
<polygon fill="midnightblue" stroke="midnightblue" points="684.178,-258.185 687.123,-268.362 691.168,-258.569 684.178,-258.185"/>
</g>
<!-- Node2 -->
<g id="node3" class="node"><title>Node2</title>
<polygon fill="white" stroke="#bfbfbf" points="0,-134.5 0,-153.5 52,-153.5 52,-134.5 0,-134.5"/>
<text text-anchor="middle" x="26" y="-141.5" font-family="Arial" font-size="10.00">stddef.h</text>
</g>
<!-- Node1&#45;&gt;Node2 -->
<g id="edge2" class="edge"><title>Node1&#45;&gt;Node2</title>
<path fill="none" stroke="midnightblue" d="M633.767,-213.941C508.978,-209.454 172.78,-194.873 66,-165 60.2988,-163.405 54.4451,-160.986 49.0357,-158.375"/>
<polygon fill="midnightblue" stroke="midnightblue" points="50.3912,-155.134 39.9073,-153.605 47.1493,-161.338 50.3912,-155.134"/>
</g>
<!-- Node3 -->
<g id="node4" class="node"><title>Node3</title>
<polygon fill="white" stroke="#bfbfbf" points="846.5,-0.5 846.5,-19.5 895.5,-19.5 895.5,-0.5 846.5,-0.5"/>
<text text-anchor="middle" x="871" y="-7.5" font-family="Arial" font-size="10.00">stdint.h</text>
</g>
<!-- Node1&#45;&gt;Node3 -->
<g id="edge3" class="edge"><title>Node1&#45;&gt;Node3</title>
<path fill="none" stroke="midnightblue" d="M633.923,-214.982C501.815,-213.043 134.901,-204.151 99,-165 86.3841,-151.242 88.0302,-138.103 99,-123 155.578,-45.1025 210.584,-74.8341 305,-56 503.327,-16.4378 747.288,-11.3851 836.364,-10.9385"/>
<polygon fill="midnightblue" stroke="midnightblue" points="836.457,-14.4383 846.446,-10.9048 836.434,-7.43833 836.457,-14.4383"/>
</g>
<!-- Node4 -->
<g id="node5" class="node"><title>Node4</title>
<g id="a_node5"><a xlink:href="common_8h.html" target="_top" xlink:title="mir_toolkit/common.h">
<polygon fill="white" stroke="black" points="894,-134.5 894,-153.5 1004,-153.5 1004,-134.5 894,-134.5"/>
<text text-anchor="middle" x="949" y="-141.5" font-family="Arial" font-size="10.00">mir_toolkit/common.h</text>
</a>
</g>
</g>
<!-- Node1&#45;&gt;Node4 -->
<g id="edge4" class="edge"><title>Node1&#45;&gt;Node4</title>
<path fill="none" stroke="midnightblue" d="M728.206,-204.666C769.688,-194.943 831.592,-179.941 885,-165 894.221,-162.42 904.123,-159.434 913.317,-156.568"/>
<polygon fill="midnightblue" stroke="midnightblue" points="914.465,-159.876 922.95,-153.531 912.36,-153.2 914.465,-159.876"/>
</g>
<!-- Node5 -->
<g id="node6" class="node"><title>Node5</title>
<g id="a_node6"><a xlink:href="deprecations_8h.html" target="_top" xlink:title="mir_toolkit/deprecations.h">
<polygon fill="white" stroke="black" points="314,-62 314,-81 442,-81 442,-62 314,-62"/>
<text text-anchor="middle" x="378" y="-69" font-family="Arial" font-size="10.00">mir_toolkit/deprecations.h</text>
</a>
</g>
</g>
<!-- Node1&#45;&gt;Node5 -->
<g id="edge6" class="edge"><title>Node1&#45;&gt;Node5</title>
<path fill="none" stroke="midnightblue" d="M633.782,-213.373C561.923,-209.136 429.964,-197.098 397,-165 377.377,-145.893 375.274,-112.331 376.181,-91.3172"/>
<polygon fill="midnightblue" stroke="midnightblue" points="379.689,-91.3273 376.903,-81.1055 372.706,-90.8339 379.689,-91.3273"/>
</g>
<!-- Node6 -->
<g id="node7" class="node"><title>Node6</title>
<g id="a_node7"><a xlink:href="input__event_8h.html" target="_top" xlink:title="mir_toolkit/events\l/input/input_event.h">
<polygon fill="white" stroke="black" points="1022,-129 1022,-159 1124,-159 1124,-129 1022,-129"/>
<text text-anchor="start" x="1030" y="-147" font-family="Arial" font-size="10.00">mir_toolkit/events</text>
<text text-anchor="middle" x="1073" y="-136" font-family="Arial" font-size="10.00">/input/input_event.h</text>
</a>
</g>
</g>
<!-- Node1&#45;&gt;Node6 -->
<g id="edge7" class="edge"><title>Node1&#45;&gt;Node6</title>
<path fill="none" stroke="midnightblue" d="M728.124,-210.216C791.504,-203.034 907.075,-188.345 1004,-165 1007.74,-164.1 1011.57,-163.072 1015.43,-161.969"/>
<polygon fill="midnightblue" stroke="midnightblue" points="1016.46,-165.314 1025.04,-159.098 1014.46,-158.607 1016.46,-165.314"/>
</g>
<!-- Node13 -->
<g id="node14" class="node"><title>Node13</title>
<g id="a_node14"><a xlink:href="surface__event_8h.html" target="_top" xlink:title="mir_toolkit/events\l/surface_event.h">
<polygon fill="white" stroke="black" points="406,-129 406,-159 500,-159 500,-129 406,-129"/>
<text text-anchor="start" x="414" y="-147" font-family="Arial" font-size="10.00">mir_toolkit/events</text>
<text text-anchor="middle" x="453" y="-136" font-family="Arial" font-size="10.00">/surface_event.h</text>
</a>
</g>
</g>
<!-- Node1&#45;&gt;Node13 -->
<g id="edge19" class="edge"><title>Node1&#45;&gt;Node13</title>
<path fill="none" stroke="midnightblue" d="M633.698,-204.412C596.846,-194.586 544.839,-179.576 500,-165 497.42,-164.161 494.779,-163.284 492.127,-162.385"/>
<polygon fill="midnightblue" stroke="midnightblue" points="493.159,-159.038 482.564,-159.063 490.862,-165.651 493.159,-159.038"/>
</g>
<!-- Node14 -->
<g id="node15" class="node"><title>Node14</title>
<g id="a_node15"><a xlink:href="window__event_8h.html" target="_top" xlink:title="mir_toolkit/events\l/window_event.h">
<polygon fill="white" stroke="black" points="518,-129 518,-159 612,-159 612,-129 518,-129"/>
<text text-anchor="start" x="526" y="-147" font-family="Arial" font-size="10.00">mir_toolkit/events</text>
<text text-anchor="middle" x="565" y="-136" font-family="Arial" font-size="10.00">/window_event.h</text>
</a>
</g>
</g>
<!-- Node1&#45;&gt;Node14 -->
<g id="edge22" class="edge"><title>Node1&#45;&gt;Node14</title>
<path fill="none" stroke="midnightblue" d="M652.278,-201.403C633.488,-190.836 609.284,-176.245 591.052,-164.551"/>
<polygon fill="midnightblue" stroke="midnightblue" points="592.923,-161.592 582.632,-159.073 589.106,-167.46 592.923,-161.592"/>
</g>
<!-- Node15 -->
<g id="node16" class="node"><title>Node15</title>
<g id="a_node16"><a xlink:href="orientation__event_8h.html" target="_top" xlink:title="mir_toolkit/events\l/orientation_event.h">
<polygon fill="white" stroke="black" points="630,-129 630,-159 732,-159 732,-129 630,-129"/>
<text text-anchor="start" x="638" y="-147" font-family="Arial" font-size="10.00">mir_toolkit/events</text>
<text text-anchor="middle" x="681" y="-136" font-family="Arial" font-size="10.00">/orientation_event.h</text>
</a>
</g>
</g>
<!-- Node1&#45;&gt;Node15 -->
<g id="edge24" class="edge"><title>Node1&#45;&gt;Node15</title>
<path fill="none" stroke="midnightblue" d="M675.451,-201.233C674.249,-192.06 673.949,-179.905 674.551,-169.244"/>
<polygon fill="midnightblue" stroke="midnightblue" points="678.041,-169.52 675.454,-159.246 671.069,-168.89 678.041,-169.52"/>
</g>
<!-- Node16 -->
<g id="node17" class="node"><title>Node16</title>
<g id="a_node17"><a xlink:href="prompt__session__event_8h.html" target="_top" xlink:title="mir_toolkit/events\l/prompt_session_event.h">
<polygon fill="white" stroke="black" points="750,-129 750,-159 876,-159 876,-129 750,-129"/>
<text text-anchor="start" x="758" y="-147" font-family="Arial" font-size="10.00">mir_toolkit/events</text>
<text text-anchor="middle" x="813" y="-136" font-family="Arial" font-size="10.00">/prompt_session_event.h</text>
</a>
</g>
</g>
<!-- Node1&#45;&gt;Node16 -->
<g id="edge26" class="edge"><title>Node1&#45;&gt;Node16</title>
<path fill="none" stroke="midnightblue" d="M701.869,-201.403C720.752,-190.548 748.859,-175.446 772.143,-163.6"/>
<polygon fill="midnightblue" stroke="midnightblue" points="773.773,-166.699 781.128,-159.073 770.622,-160.447 773.773,-166.699"/>
</g>
<!-- Node17 -->
<g id="node18" class="node"><title>Node17</title>
<g id="a_node18"><a xlink:href="keymap__event_8h.html" target="_top" xlink:title="mir_toolkit/events\l/keymap_event.h">
<polygon fill="white" stroke="black" points="1142,-129 1142,-159 1236,-159 1236,-129 1142,-129"/>
<text text-anchor="start" x="1150" y="-147" font-family="Arial" font-size="10.00">mir_toolkit/events</text>
<text text-anchor="middle" x="1189" y="-136" font-family="Arial" font-size="10.00">/keymap_event.h</text>
</a>
</g>
</g>
<!-- Node1&#45;&gt;Node17 -->
<g id="edge28" class="edge"><title>Node1&#45;&gt;Node17</title>
<path fill="none" stroke="midnightblue" d="M728.234,-213.56C809.939,-209.556 982.06,-197.807 1124,-165 1127.58,-164.173 1131.25,-163.188 1134.93,-162.107"/>
<polygon fill="midnightblue" stroke="midnightblue" points="1136.18,-165.384 1144.68,-159.06 1134.09,-158.703 1136.18,-165.384"/>
</g>
<!-- Node18 -->
<g id="node19" class="node"><title>Node18</title>
<g id="a_node19"><a xlink:href="input__configuration__event_8h.html" target="_top" xlink:title="mir_toolkit/events\l/input_configuration\l_event.h">
<polygon fill="white" stroke="black" points="108.5,-123.5 108.5,-164.5 209.5,-164.5 209.5,-123.5 108.5,-123.5"/>
<text text-anchor="start" x="116.5" y="-152.5" font-family="Arial" font-size="10.00">mir_toolkit/events</text>
<text text-anchor="start" x="116.5" y="-141.5" font-family="Arial" font-size="10.00">/input_configuration</text>
<text text-anchor="middle" x="159" y="-130.5" font-family="Arial" font-size="10.00">_event.h</text>
</a>
</g>
</g>
<!-- Node1&#45;&gt;Node18 -->
<g id="edge31" class="edge"><title>Node1&#45;&gt;Node18</title>
<path fill="none" stroke="midnightblue" d="M633.994,-213.904C550.264,-210.22 370.464,-198.86 218.059,-166.713"/>
<polygon fill="midnightblue" stroke="midnightblue" points="218.574,-163.243 208.061,-164.565 217.103,-170.087 218.574,-163.243"/>
</g>
<!-- Node19 -->
<g id="node20" class="node"><title>Node19</title>
<g id="a_node20"><a xlink:href="surface__output__event_8h.html" target="_top" xlink:title="mir_toolkit/events\l/surface_output_event.h">
<polygon fill="white" stroke="black" points="228,-129 228,-159 350,-159 350,-129 228,-129"/>
<text text-anchor="start" x="236" y="-147" font-family="Arial" font-size="10.00">mir_toolkit/events</text>
<text text-anchor="middle" x="289" y="-136" font-family="Arial" font-size="10.00">/surface_output_event.h</text>
</a>
</g>
</g>
<!-- Node1&#45;&gt;Node19 -->
<g id="edge34" class="edge"><title>Node1&#45;&gt;Node19</title>
<path fill="none" stroke="midnightblue" d="M633.845,-210.301C569.98,-202.341 453.123,-185.841 355,-165 350.02,-163.942 344.876,-162.761 339.754,-161.516"/>
<polygon fill="midnightblue" stroke="midnightblue" points="340.533,-158.103 329.981,-159.058 338.826,-164.891 340.533,-158.103"/>
</g>
<!-- Node20 -->
<g id="node21" class="node"><title>Node20</title>
<g id="a_node21"><a xlink:href="window__output__event_8h.html" target="_top" xlink:title="mir_toolkit/events\l/window_output_event.h">
<polygon fill="white" stroke="black" points="1254.5,-129 1254.5,-159 1375.5,-159 1375.5,-129 1254.5,-129"/>
<text text-anchor="start" x="1262.5" y="-147" font-family="Arial" font-size="10.00">mir_toolkit/events</text>
<text text-anchor="middle" x="1315" y="-136" font-family="Arial" font-size="10.00">/window_output_event.h</text>
</a>
</g>
</g>
<!-- Node1&#45;&gt;Node20 -->
<g id="edge37" class="edge"><title>Node1&#45;&gt;Node20</title>
<path fill="none" stroke="midnightblue" d="M728.373,-214.104C824.794,-210.713 1049.94,-199.588 1236,-165 1241.07,-164.057 1246.31,-162.906 1251.56,-161.637"/>
<polygon fill="midnightblue" stroke="midnightblue" points="1252.82,-164.93 1261.65,-159.076 1251.1,-158.145 1252.82,-164.93"/>
</g>
<!-- Node21 -->
<g id="node22" class="node"><title>Node21</title>
<g id="a_node22"><a xlink:href="input__device__state__event_8h.html" target="_top" xlink:title="mir_toolkit/events\l/input_device_state\l_event.h">
<polygon fill="white" stroke="black" points="1393.5,-123.5 1393.5,-164.5 1494.5,-164.5 1494.5,-123.5 1393.5,-123.5"/>
<text text-anchor="start" x="1401.5" y="-152.5" font-family="Arial" font-size="10.00">mir_toolkit/events</text>
<text text-anchor="start" x="1401.5" y="-141.5" font-family="Arial" font-size="10.00">/input_device_state</text>
<text text-anchor="middle" x="1444" y="-130.5" font-family="Arial" font-size="10.00">_event.h</text>
</a>
</g>
</g>
<!-- Node1&#45;&gt;Node21 -->
<g id="edge39" class="edge"><title>Node1&#45;&gt;Node21</title>
<path fill="none" stroke="midnightblue" d="M728.13,-216.27C841.214,-217.042 1135.77,-213.501 1376,-165 1378.46,-164.504 1380.96,-163.933 1383.47,-163.306"/>
<polygon fill="midnightblue" stroke="midnightblue" points="1384.49,-166.655 1393.22,-160.643 1382.65,-159.902 1384.49,-166.655"/>
</g>
<!-- Node4&#45;&gt;Node5 -->
<g id="edge5" class="edge"><title>Node4&#45;&gt;Node5</title>
<path fill="none" stroke="midnightblue" d="M925.593,-134.426C913.606,-130.359 898.688,-125.79 885,-123 733.273,-92.0725 551.98,-79.8285 452.503,-75.1776"/>
<polygon fill="midnightblue" stroke="midnightblue" points="452.403,-71.6695 442.254,-74.7119 452.085,-78.6623 452.403,-71.6695"/>
</g>
<!-- Node6&#45;&gt;Node1 -->
<g id="edge8" class="edge"><title>Node6&#45;&gt;Node1</title>
<path fill="none" stroke="midnightblue" d="M1042.76,-159.098C1036,-161.282 1028.83,-163.355 1022,-165 923.878,-188.633 806.644,-203.396 738.233,-210.479"/>
<polygon fill="midnightblue" stroke="midnightblue" points="737.687,-207.016 728.092,-211.509 738.395,-213.98 737.687,-207.016"/>
</g>
<!-- Node6&#45;&gt;Node3 -->
<g id="edge11" class="edge"><title>Node6&#45;&gt;Node3</title>
<path fill="none" stroke="midnightblue" d="M1031.43,-128.921C1025.26,-126.897 1018.97,-124.869 1013,-123 958.639,-105.991 929.468,-128.069 890,-87 875.375,-71.7819 871.499,-47.0858 870.715,-29.9952"/>
<polygon fill="midnightblue" stroke="midnightblue" points="874.209,-29.539 870.571,-19.5882 867.21,-29.6356 874.209,-29.539"/>
</g>
<!-- Node7 -->
<g id="node8" class="node"><title>Node7</title>
<g id="a_node8"><a xlink:href="mir__input__device__types_8h.html" target="_top" xlink:title="mir_toolkit/mir_input\l_device_types.h">
<polygon fill="white" stroke="black" points="899,-56.5 899,-86.5 1003,-86.5 1003,-56.5 899,-56.5"/>
<text text-anchor="start" x="907" y="-74.5" font-family="Arial" font-size="10.00">mir_toolkit/mir_input</text>
<text text-anchor="middle" x="951" y="-63.5" font-family="Arial" font-size="10.00">_device_types.h</text>
</a>
</g>
</g>
<!-- Node6&#45;&gt;Node7 -->
<g id="edge9" class="edge"><title>Node6&#45;&gt;Node7</title>
<path fill="none" stroke="midnightblue" d="M1048.6,-128.903C1030.15,-118.24 1004.61,-103.479 984.282,-91.7323"/>
<polygon fill="midnightblue" stroke="midnightblue" points="985.763,-88.5459 975.353,-86.5729 982.26,-94.6067 985.763,-88.5459"/>
</g>
<!-- Node8 -->
<g id="node9" class="node"><title>Node8</title>
<polygon fill="white" stroke="#bfbfbf" points="1044,-0.5 1044,-19.5 1100,-19.5 1100,-0.5 1044,-0.5"/>
<text text-anchor="middle" x="1072" y="-7.5" font-family="Arial" font-size="10.00">stdbool.h</text>
</g>
<!-- Node6&#45;&gt;Node8 -->
<g id="edge12" class="edge"><title>Node6&#45;&gt;Node8</title>
<path fill="none" stroke="midnightblue" d="M1064.93,-128.902C1056.12,-111.75 1044.01,-81.8757 1050,-56 1052.23,-46.3627 1056.82,-36.4052 1061.24,-28.3149"/>
<polygon fill="midnightblue" stroke="midnightblue" points="1064.35,-29.9216 1066.36,-19.5194 1058.3,-26.3968 1064.35,-29.9216"/>
</g>
<!-- Node9 -->
<g id="node10" class="node"><title>Node9</title>
<g id="a_node10"><a xlink:href="touch__event_8h.html" target="_top" xlink:title="mir_toolkit/events\l/input/touch_event.h">
<polygon fill="white" stroke="black" points="737.5,-56.5 737.5,-86.5 842.5,-86.5 842.5,-56.5 737.5,-56.5"/>
<text text-anchor="start" x="745.5" y="-74.5" font-family="Arial" font-size="10.00">mir_toolkit/events</text>
<text text-anchor="middle" x="790" y="-63.5" font-family="Arial" font-size="10.00">/input/touch_event.h</text>
</a>
</g>
</g>
<!-- Node6&#45;&gt;Node9 -->
<g id="edge13" class="edge"><title>Node6&#45;&gt;Node9</title>
<path fill="none" stroke="midnightblue" d="M1032.5,-128.896C1026.01,-126.811 1019.35,-124.771 1013,-123 997.562,-118.69 912.844,-99.7183 852.407,-86.2999"/>
<polygon fill="midnightblue" stroke="midnightblue" points="853.076,-82.8633 842.555,-84.114 851.559,-89.6971 853.076,-82.8633"/>
</g>
<!-- Node10 -->
<g id="node11" class="node"><title>Node10</title>
<g id="a_node11"><a xlink:href="keyboard__event_8h.html" target="_top" xlink:title="mir_toolkit/events\l/input/keyboard_event.h">
<polygon fill="white" stroke="black" points="1187.5,-56.5 1187.5,-86.5 1308.5,-86.5 1308.5,-56.5 1187.5,-56.5"/>
<text text-anchor="start" x="1195.5" y="-74.5" font-family="Arial" font-size="10.00">mir_toolkit/events</text>
<text text-anchor="middle" x="1248" y="-63.5" font-family="Arial" font-size="10.00">/input/keyboard_event.h</text>
</a>
</g>
</g>
<!-- Node6&#45;&gt;Node10 -->
<g id="edge14" class="edge"><title>Node6&#45;&gt;Node10</title>
<path fill="none" stroke="midnightblue" d="M1107.99,-128.903C1135.53,-117.807 1174.09,-102.275 1203.77,-90.319"/>
<polygon fill="midnightblue" stroke="midnightblue" points="1205.1,-93.5561 1213.07,-86.5729 1202.48,-87.0632 1205.1,-93.5561"/>
</g>
<!-- Node12 -->
<g id="node13" class="node"><title>Node12</title>
<g id="a_node13"><a xlink:href="pointer__event_8h.html" target="_top" xlink:title="mir_toolkit/events\l/input/pointer_event.h">
<polygon fill="white" stroke="black" points="1059,-56.5 1059,-86.5 1169,-86.5 1169,-56.5 1059,-56.5"/>
<text text-anchor="start" x="1067" y="-74.5" font-family="Arial" font-size="10.00">mir_toolkit/events</text>
<text text-anchor="middle" x="1114" y="-63.5" font-family="Arial" font-size="10.00">/input/pointer_event.h</text>
</a>
</g>
</g>
<!-- Node6&#45;&gt;Node12 -->
<g id="edge16" class="edge"><title>Node6&#45;&gt;Node12</title>
<path fill="none" stroke="midnightblue" d="M1081.3,-128.733C1086.85,-119.177 1094.29,-106.387 1100.67,-95.419"/>
<polygon fill="midnightblue" stroke="midnightblue" points="1103.71,-97.1495 1105.72,-86.7455 1097.66,-93.6304 1103.71,-97.1495"/>
</g>
<!-- Node7&#45;&gt;Node3 -->
<g id="edge10" class="edge"><title>Node7&#45;&gt;Node3</title>
<path fill="none" stroke="midnightblue" d="M932.041,-56.3993C919.577,-47.1293 903.303,-35.0254 890.693,-25.6469"/>
<polygon fill="midnightblue" stroke="midnightblue" points="892.753,-22.8173 882.641,-19.6578 888.576,-28.4341 892.753,-22.8173"/>
</g>
<!-- Node11 -->
<g id="node12" class="node"><title>Node11</title>
<polygon fill="white" stroke="#bfbfbf" points="1225,-0.5 1225,-19.5 1359,-19.5 1359,-0.5 1225,-0.5"/>
<text text-anchor="middle" x="1292" y="-7.5" font-family="Arial" font-size="10.00">xkbcommon/xkbcommon.h</text>
</g>
<!-- Node10&#45;&gt;Node11 -->
<g id="edge15" class="edge"><title>Node10&#45;&gt;Node11</title>
<path fill="none" stroke="midnightblue" d="M1258.43,-56.3993C1264.76,-47.8424 1272.87,-36.8708 1279.53,-27.857"/>
<polygon fill="midnightblue" stroke="midnightblue" points="1282.47,-29.7792 1285.6,-19.6578 1276.84,-25.6171 1282.47,-29.7792"/>
</g>
<!-- Node12&#45;&gt;Node8 -->
<g id="edge17" class="edge"><title>Node12&#45;&gt;Node8</title>
<path fill="none" stroke="midnightblue" d="M1104.05,-56.3993C1098.01,-47.8424 1090.26,-36.8708 1083.9,-27.857"/>
<polygon fill="midnightblue" stroke="midnightblue" points="1086.74,-25.8091 1078.11,-19.6578 1081.02,-29.8459 1086.74,-25.8091"/>
</g>
<!-- Node13&#45;&gt;Node1 -->
<g id="edge20" class="edge"><title>Node13&#45;&gt;Node1</title>
<path fill="none" stroke="midnightblue" d="M500.047,-158.957C506.11,-161.04 512.207,-163.117 518,-165 554.747,-176.945 596.306,-189.182 628.341,-198.618"/>
<polygon fill="midnightblue" stroke="midnightblue" points="627.379,-201.984 637.961,-201.453 629.358,-195.269 627.379,-201.984"/>
</g>
<!-- Node13&#45;&gt;Node5 -->
<g id="edge21" class="edge"><title>Node13&#45;&gt;Node5</title>
<path fill="none" stroke="midnightblue" d="M437.823,-128.733C425.346,-117.005 407.685,-100.404 394.787,-88.2797"/>
<polygon fill="midnightblue" stroke="midnightblue" points="397.144,-85.6921 387.461,-81.3932 392.35,-90.7925 397.144,-85.6921"/>
</g>
<!-- Node14&#45;&gt;Node1 -->
<g id="edge23" class="edge"><title>Node14&#45;&gt;Node1</title>
<path fill="none" stroke="midnightblue" d="M593.678,-159.073C612.46,-169.634 636.665,-184.224 654.905,-195.922"/>
<polygon fill="midnightblue" stroke="midnightblue" points="653.04,-198.884 663.331,-201.403 656.856,-193.016 653.04,-198.884"/>
</g>
<!-- Node15&#45;&gt;Node1 -->
<g id="edge25" class="edge"><title>Node15&#45;&gt;Node1</title>
<path fill="none" stroke="midnightblue" d="M686.546,-159.246C687.749,-168.414 688.051,-180.568 687.45,-191.232"/>
<polygon fill="midnightblue" stroke="midnightblue" points="683.96,-190.959 686.549,-201.233 690.932,-191.588 683.96,-190.959"/>
</g>
<!-- Node16&#45;&gt;Node1 -->
<g id="edge27" class="edge"><title>Node16&#45;&gt;Node1</title>
<path fill="none" stroke="midnightblue" d="M792.174,-159.073C773.305,-169.922 745.2,-185.023 721.909,-196.873"/>
<polygon fill="midnightblue" stroke="midnightblue" points="720.276,-193.777 712.921,-201.403 723.426,-200.028 720.276,-193.777"/>
</g>
<!-- Node17&#45;&gt;Node1 -->
<g id="edge29" class="edge"><title>Node17&#45;&gt;Node1</title>
<path fill="none" stroke="midnightblue" d="M1162.36,-159.06C1155.79,-161.33 1148.74,-163.442 1142,-165 999.361,-197.969 826.242,-209.671 738.195,-213.619"/>
<polygon fill="midnightblue" stroke="midnightblue" points="737.984,-210.124 728.144,-214.052 738.285,-217.118 737.984,-210.124"/>
</g>
<!-- Node17&#45;&gt;Node11 -->
<g id="edge30" class="edge"><title>Node17&#45;&gt;Node11</title>
<path fill="none" stroke="midnightblue" d="M1226.88,-128.983C1262.98,-115.248 1312.61,-95.2166 1318,-87 1330.13,-68.5045 1317.25,-43.7502 1305.69,-27.5946"/>
<polygon fill="midnightblue" stroke="midnightblue" points="1308.43,-25.414 1299.57,-19.5983 1302.87,-29.6673 1308.43,-25.414"/>
</g>
<!-- Node18&#45;&gt;Node1 -->
<g id="edge32" class="edge"><title>Node18&#45;&gt;Node1</title>
<path fill="none" stroke="midnightblue" d="M209.55,-160.142C215.743,-161.99 221.993,-163.686 228,-165 368.316,-195.687 536.882,-208.115 623.537,-212.839"/>
<polygon fill="midnightblue" stroke="midnightblue" points="623.52,-216.343 633.691,-213.378 623.891,-209.353 623.52,-216.343"/>
</g>
<!-- Node18&#45;&gt;Node5 -->
<g id="edge33" class="edge"><title>Node18&#45;&gt;Node5</title>
<path fill="none" stroke="midnightblue" d="M209.722,-126.036C212.86,-125.004 215.972,-123.985 219,-123 260.626,-109.453 308.523,-94.299 340.777,-84.1581"/>
<polygon fill="midnightblue" stroke="midnightblue" points="342.18,-87.3861 350.671,-81.0502 340.082,-80.7078 342.18,-87.3861"/>
</g>
<!-- Node19&#45;&gt;Node1 -->
<g id="edge35" class="edge"><title>Node19&#45;&gt;Node1</title>
<path fill="none" stroke="midnightblue" d="M347.725,-159.058C356.214,-161.196 364.827,-163.264 373,-165 460.01,-183.481 561.751,-198.548 623.848,-207.274"/>
<polygon fill="midnightblue" stroke="midnightblue" points="623.453,-210.752 633.841,-208.672 624.423,-203.82 623.453,-210.752"/>
</g>
<!-- Node19&#45;&gt;Node5 -->
<g id="edge36" class="edge"><title>Node19&#45;&gt;Node5</title>
<path fill="none" stroke="midnightblue" d="M307.01,-128.733C321.956,-116.894 343.17,-100.09 358.511,-87.9378"/>
<polygon fill="midnightblue" stroke="midnightblue" points="361.108,-90.346 366.773,-81.3932 356.761,-84.8589 361.108,-90.346"/>
</g>
<!-- Node20&#45;&gt;Node1 -->
<g id="edge38" class="edge"><title>Node20&#45;&gt;Node1</title>
<path fill="none" stroke="midnightblue" d="M1279.33,-159.076C1271.09,-161.345 1262.33,-163.452 1254,-165 1067.81,-199.612 842.48,-210.729 738.502,-214.111"/>
<polygon fill="midnightblue" stroke="midnightblue" points="738.111,-210.622 728.225,-214.433 738.33,-217.618 738.111,-210.622"/>
</g>
<!-- Node21&#45;&gt;Node1 -->
<g id="edge40" class="edge"><title>Node21&#45;&gt;Node1</title>
<path fill="none" stroke="midnightblue" d="M1396.24,-164.531C1395.49,-164.694 1394.74,-164.85 1394,-165 1154.45,-213.364 860.871,-217.022 738.578,-216.277"/>
<polygon fill="midnightblue" stroke="midnightblue" points="738.353,-212.775 728.327,-216.201 738.301,-219.775 738.353,-212.775"/>
</g>
</g>
</svg>
