<?xml version="1.0" encoding="UTF-8" standalone="no"?>
<!DOCTYPE svg PUBLIC "-//W3C//DTD SVG 1.1//EN"
 "http://www.w3.org/Graphics/SVG/1.1/DTD/svg11.dtd">
<!-- Generated by graphviz version 2.40.1 (20161225.0304)
 -->
<!-- Title: include/client/mir_toolkit/events/resize_event.h Pages: 1 -->
<svg width="1646pt" height="318pt"
 viewBox="0.00 0.00 1646.00 318.00" xmlns="http://www.w3.org/2000/svg" xmlns:xlink="http://www.w3.org/1999/xlink">
<g id="graph0" class="graph" transform="scale(1 1) rotate(0) translate(4 314)">
<title>include/client/mir_toolkit/events/resize_event.h</title>
<polygon fill="#ffffff" stroke="transparent" points="-4,4 -4,-314 1642,-314 1642,4 -4,4"/>
<!-- Node0 -->
<g id="node1" class="node">
<title>Node0</title>
<polygon fill="#bfbfbf" stroke="#000000" points="679,-268.5 679,-309.5 801,-309.5 801,-268.5 679,-268.5"/>
<text text-anchor="start" x="687" y="-297.5" font-family="Arial" font-size="10.00" fill="#000000">include/client/mir</text>
<text text-anchor="start" x="687" y="-286.5" font-family="Arial" font-size="10.00" fill="#000000">_toolkit/events/resize</text>
<text text-anchor="middle" x="740" y="-275.5" font-family="Arial" font-size="10.00" fill="#000000">_event.h</text>
</g>
<!-- Node1 -->
<g id="node2" class="node">
<title>Node1</title>
<g id="a_node2"><a xlink:href="toolkit_2events_2event_8h.html" target="_top" xlink:title="mir_toolkit/events\l/event.h">
<polygon fill="#ffffff" stroke="#000000" points="687,-201.5 687,-231.5 793,-231.5 793,-201.5 687,-201.5"/>
<text text-anchor="start" x="695" y="-219.5" font-family="Arial" font-size="10.00" fill="#000000">mir_toolkit/events</text>
<text text-anchor="middle" x="740" y="-208.5" font-family="Arial" font-size="10.00" fill="#000000">/event.h</text>
</a>
</g>
</g>
<!-- Node0&#45;&gt;Node1 -->
<g id="edge1" class="edge">
<title>Node0&#45;&gt;Node1</title>
<path fill="none" stroke="#191970" d="M733.8449,-268.4183C733.1713,-260.0849 733.0697,-250.3834 733.5402,-241.6373"/>
<polygon fill="#191970" stroke="#191970" points="737.0338,-241.8608 734.3977,-231.5991 730.0592,-241.2649 737.0338,-241.8608"/>
</g>
<!-- Node1&#45;&gt;Node0 -->
<g id="edge18" class="edge">
<title>Node1&#45;&gt;Node0</title>
<path fill="none" stroke="#191970" d="M745.6023,-231.5991C746.5584,-239.3508 746.9172,-249.0871 746.6785,-258.3279"/>
<polygon fill="#191970" stroke="#191970" points="743.1779,-258.2504 746.1551,-268.4183 750.1685,-258.6131 743.1779,-258.2504"/>
</g>
<!-- Node2 -->
<g id="node3" class="node">
<title>Node2</title>
<polygon fill="#ffffff" stroke="#bfbfbf" points="0,-134.5 0,-153.5 56,-153.5 56,-134.5 0,-134.5"/>
<text text-anchor="middle" x="28" y="-141.5" font-family="Arial" font-size="10.00" fill="#000000">stddef.h</text>
</g>
<!-- Node1&#45;&gt;Node2 -->
<g id="edge2" class="edge">
<title>Node1&#45;&gt;Node2</title>
<path fill="none" stroke="#191970" d="M686.561,-215.0441C549.0754,-210.8755 185.8033,-197.0721 70,-165 64.304,-163.4225 58.4656,-161.0542 53.0225,-158.4695"/>
<polygon fill="#191970" stroke="#191970" points="54.2609,-155.1707 43.7676,-153.7076 51.0582,-161.3951 54.2609,-155.1707"/>
</g>
<!-- Node3 -->
<g id="node4" class="node">
<title>Node3</title>
<polygon fill="#ffffff" stroke="#bfbfbf" points="925.5,-.5 925.5,-19.5 978.5,-19.5 978.5,-.5 925.5,-.5"/>
<text text-anchor="middle" x="952" y="-7.5" font-family="Arial" font-size="10.00" fill="#000000">stdint.h</text>
</g>
<!-- Node1&#45;&gt;Node3 -->
<g id="edge3" class="edge">
<title>Node1&#45;&gt;Node3</title>
<path fill="none" stroke="#191970" d="M686.8025,-214.146C537.2575,-207.2737 122.7118,-186.3697 103,-165 90.3437,-151.2791 91.8697,-137.9853 103,-123 164.4527,-40.2631 223.6619,-74.7727 325,-56 439.479,-34.793 798.5971,-16.9857 915.1058,-11.6397"/>
<polygon fill="#191970" stroke="#191970" points="915.463,-15.1272 925.2934,-11.1758 915.1445,-8.1344 915.463,-15.1272"/>
</g>
<!-- Node4 -->
<g id="node5" class="node">
<title>Node4</title>
<g id="a_node5"><a xlink:href="common_8h.html" target="_top" xlink:title="mir_toolkit/common.h">
<polygon fill="#ffffff" stroke="#000000" points="972.5,-134.5 972.5,-153.5 1097.5,-153.5 1097.5,-134.5 972.5,-134.5"/>
<text text-anchor="middle" x="1035" y="-141.5" font-family="Arial" font-size="10.00" fill="#000000">mir_toolkit/common.h</text>
</a>
</g>
</g>
<!-- Node1&#45;&gt;Node4 -->
<g id="edge4" class="edge">
<title>Node1&#45;&gt;Node4</title>
<path fill="none" stroke="#191970" d="M793.1781,-205.2405C838.7068,-195.3701 905.9143,-180.2519 964,-165 973.9773,-162.3802 984.6763,-159.3393 994.6641,-156.3987"/>
<polygon fill="#191970" stroke="#191970" points="995.7766,-159.7194 1004.3617,-153.5109 993.7787,-153.0105 995.7766,-159.7194"/>
</g>
<!-- Node5 -->
<g id="node6" class="node">
<title>Node5</title>
<g id="a_node6"><a xlink:href="deprecations_8h.html" target="_top" xlink:title="mir_toolkit/deprecations.h">
<polygon fill="#ffffff" stroke="#000000" points="333.5,-62 333.5,-81 478.5,-81 478.5,-62 333.5,-62"/>
<text text-anchor="middle" x="406" y="-69" font-family="Arial" font-size="10.00" fill="#000000">mir_toolkit/deprecations.h</text>
</a>
</g>
</g>
<!-- Node1&#45;&gt;Node5 -->
<g id="edge6" class="edge">
<title>Node1&#45;&gt;Node5</title>
<path fill="none" stroke="#191970" d="M686.6785,-214.9016C606.8018,-211.3673 461.5348,-200.1574 425,-165 405.2712,-146.015 403.0982,-112.5665 404.0351,-91.2466"/>
<polygon fill="#191970" stroke="#191970" points="407.5398,-91.3044 404.7578,-81.0813 400.5574,-90.8079 407.5398,-91.3044"/>
</g>
<!-- Node6 -->
<g id="node7" class="node">
<title>Node6</title>
<g id="a_node7"><a xlink:href="input__event_8h.html" target="_top" xlink:title="mir_toolkit/events\l/input/input_event.h">
<polygon fill="#ffffff" stroke="#000000" points="1116,-129 1116,-159 1230,-159 1230,-129 1116,-129"/>
<text text-anchor="start" x="1124" y="-147" font-family="Arial" font-size="10.00" fill="#000000">mir_toolkit/events</text>
<text text-anchor="middle" x="1173" y="-136" font-family="Arial" font-size="10.00" fill="#000000">/input/input_event.h</text>
</a>
</g>
</g>
<!-- Node1&#45;&gt;Node6 -->
<g id="edge7" class="edge">
<title>Node1&#45;&gt;Node6</title>
<path fill="none" stroke="#191970" d="M793.022,-211.2796C863.3849,-204.1453 990.8784,-189.3749 1098,-165 1102.089,-164.0696 1106.2887,-163.0029 1110.516,-161.8544"/>
<polygon fill="#191970" stroke="#191970" points="1111.726,-165.1493 1120.3902,-159.0517 1109.8145,-158.4153 1111.726,-165.1493"/>
</g>
<!-- Node13 -->
<g id="node14" class="node">
<title>Node13</title>
<g id="a_node14"><a xlink:href="surface__event_8h.html" target="_top" xlink:title="mir_toolkit/events\l/surface_event.h">
<polygon fill="#ffffff" stroke="#000000" points="434,-129 434,-159 540,-159 540,-129 434,-129"/>
<text text-anchor="start" x="442" y="-147" font-family="Arial" font-size="10.00" fill="#000000">mir_toolkit/events</text>
<text text-anchor="middle" x="487" y="-136" font-family="Arial" font-size="10.00" fill="#000000">/surface_event.h</text>
</a>
</g>
</g>
<!-- Node1&#45;&gt;Node13 -->
<g id="edge19" class="edge">
<title>Node1&#45;&gt;Node13</title>
<path fill="none" stroke="#191970" d="M686.6346,-204.9268C646.0131,-194.9829 589.1266,-179.9266 540,-165 537.0505,-164.1038 534.03,-163.1618 530.9973,-162.1937"/>
<polygon fill="#191970" stroke="#191970" points="531.9345,-158.8179 521.342,-159.0372 529.7594,-165.4714 531.9345,-158.8179"/>
</g>
<!-- Node14 -->
<g id="node15" class="node">
<title>Node14</title>
<g id="a_node15"><a xlink:href="window__event_8h.html" target="_top" xlink:title="mir_toolkit/events\l/window_event.h">
<polygon fill="#ffffff" stroke="#000000" points="558,-129 558,-159 664,-159 664,-129 558,-129"/>
<text text-anchor="start" x="566" y="-147" font-family="Arial" font-size="10.00" fill="#000000">mir_toolkit/events</text>
<text text-anchor="middle" x="611" y="-136" font-family="Arial" font-size="10.00" fill="#000000">/window_event.h</text>
</a>
</g>
</g>
<!-- Node1&#45;&gt;Node14 -->
<g id="edge22" class="edge">
<title>Node1&#45;&gt;Node14</title>
<path fill="none" stroke="#191970" d="M707.6784,-201.478C687.1404,-190.6877 660.8702,-176.023 640.8304,-164.2071"/>
<polygon fill="#191970" stroke="#191970" points="642.4856,-161.1191 632.1043,-159.0028 638.9,-167.1311 642.4856,-161.1191"/>
</g>
<!-- Node15 -->
<g id="node16" class="node">
<title>Node15</title>
<g id="a_node16"><a xlink:href="orientation__event_8h.html" target="_top" xlink:title="mir_toolkit/events\l/orientation_event.h">
<polygon fill="#ffffff" stroke="#000000" points="682.5,-129 682.5,-159 797.5,-159 797.5,-129 682.5,-129"/>
<text text-anchor="start" x="690.5" y="-147" font-family="Arial" font-size="10.00" fill="#000000">mir_toolkit/events</text>
<text text-anchor="middle" x="740" y="-136" font-family="Arial" font-size="10.00" fill="#000000">/orientation_event.h</text>
</a>
</g>
</g>
<!-- Node1&#45;&gt;Node15 -->
<g id="edge24" class="edge">
<title>Node1&#45;&gt;Node15</title>
<path fill="none" stroke="#191970" d="M734.4073,-201.478C733.2494,-192.1459 732.9604,-179.9157 733.5402,-169.1368"/>
<polygon fill="#191970" stroke="#191970" points="737.042,-169.2654 734.4097,-159.0028 730.0676,-168.667 737.042,-169.2654"/>
</g>
<!-- Node16 -->
<g id="node17" class="node">
<title>Node16</title>
<g id="a_node17"><a xlink:href="prompt__session__event_8h.html" target="_top" xlink:title="mir_toolkit/events\l/prompt_session_event.h">
<polygon fill="#ffffff" stroke="#000000" points="815.5,-129 815.5,-159 954.5,-159 954.5,-129 815.5,-129"/>
<text text-anchor="start" x="823.5" y="-147" font-family="Arial" font-size="10.00" fill="#000000">mir_toolkit/events</text>
<text text-anchor="middle" x="885" y="-136" font-family="Arial" font-size="10.00" fill="#000000">/prompt_session_event.h</text>
</a>
</g>
</g>
<!-- Node1&#45;&gt;Node16 -->
<g id="edge26" class="edge">
<title>Node1&#45;&gt;Node16</title>
<path fill="none" stroke="#191970" d="M764.4514,-201.478C785.1489,-190.4447 815.1629,-175.3605 840.1176,-163.4132"/>
<polygon fill="#191970" stroke="#191970" points="841.8725,-166.4544 849.4041,-159.0028 838.8695,-160.1313 841.8725,-166.4544"/>
</g>
<!-- Node17 -->
<g id="node18" class="node">
<title>Node17</title>
<g id="a_node18"><a xlink:href="keymap__event_8h.html" target="_top" xlink:title="mir_toolkit/events\l/keymap_event.h">
<polygon fill="#ffffff" stroke="#000000" points="1248,-129 1248,-159 1354,-159 1354,-129 1248,-129"/>
<text text-anchor="start" x="1256" y="-147" font-family="Arial" font-size="10.00" fill="#000000">mir_toolkit/events</text>
<text text-anchor="middle" x="1301" y="-136" font-family="Arial" font-size="10.00" fill="#000000">/keymap_event.h</text>
</a>
</g>
</g>
<!-- Node1&#45;&gt;Node17 -->
<g id="edge28" class="edge">
<title>Node1&#45;&gt;Node17</title>
<path fill="none" stroke="#191970" d="M793.0299,-214.6884C883.6309,-210.8425 1073.2175,-199.1901 1230,-165 1233.9973,-164.1283 1238.0964,-163.0865 1242.2147,-161.9396"/>
<polygon fill="#191970" stroke="#191970" points="1243.2204,-165.2921 1251.82,-159.1036 1241.2382,-158.5786 1243.2204,-165.2921"/>
</g>
<!-- Node18 -->
<g id="node19" class="node">
<title>Node18</title>
<g id="a_node19"><a xlink:href="input__configuration__event_8h.html" target="_top" xlink:title="mir_toolkit/events\l/input_configuration\l_event.h">
<polygon fill="#ffffff" stroke="#000000" points="112.5,-123.5 112.5,-164.5 225.5,-164.5 225.5,-123.5 112.5,-123.5"/>
<text text-anchor="start" x="120.5" y="-152.5" font-family="Arial" font-size="10.00" fill="#000000">mir_toolkit/events</text>
<text text-anchor="start" x="120.5" y="-141.5" font-family="Arial" font-size="10.00" fill="#000000">/input_configuration</text>
<text text-anchor="middle" x="169" y="-130.5" font-family="Arial" font-size="10.00" fill="#000000">_event.h</text>
</a>
</g>
</g>
<!-- Node1&#45;&gt;Node18 -->
<g id="edge31" class="edge">
<title>Node1&#45;&gt;Node18</title>
<path fill="none" stroke="#191970" d="M686.9535,-214.9066C594.734,-211.2508 399.4885,-199.8748 233.7411,-166.563"/>
<polygon fill="#191970" stroke="#191970" points="234.3704,-163.1194 223.8721,-164.5461 232.9687,-169.9776 234.3704,-163.1194"/>
</g>
<!-- Node19 -->
<g id="node20" class="node">
<title>Node19</title>
<g id="a_node20"><a xlink:href="surface__output__event_8h.html" target="_top" xlink:title="mir_toolkit/events\l/surface_output_event.h">
<polygon fill="#ffffff" stroke="#000000" points="244,-129 244,-159 378,-159 378,-129 244,-129"/>
<text text-anchor="start" x="252" y="-147" font-family="Arial" font-size="10.00" fill="#000000">mir_toolkit/events</text>
<text text-anchor="middle" x="311" y="-136" font-family="Arial" font-size="10.00" fill="#000000">/surface_output_event.h</text>
</a>
</g>
</g>
<!-- Node1&#45;&gt;Node19 -->
<g id="edge34" class="edge">
<title>Node1&#45;&gt;Node19</title>
<path fill="none" stroke="#191970" d="M686.7604,-211.1281C616.5221,-203.1249 489.6891,-186.6601 383,-165 377.6611,-163.9161 372.1483,-162.6991 366.6554,-161.4114"/>
<polygon fill="#191970" stroke="#191970" points="367.3744,-157.9844 356.8313,-159.0303 365.7255,-164.7874 367.3744,-157.9844"/>
</g>
<!-- Node20 -->
<g id="node21" class="node">
<title>Node20</title>
<g id="a_node21"><a xlink:href="window__output__event_8h.html" target="_top" xlink:title="mir_toolkit/events\l/window_output_event.h">
<polygon fill="#ffffff" stroke="#000000" points="1372,-129 1372,-159 1508,-159 1508,-129 1372,-129"/>
<text text-anchor="start" x="1380" y="-147" font-family="Arial" font-size="10.00" fill="#000000">mir_toolkit/events</text>
<text text-anchor="middle" x="1440" y="-136" font-family="Arial" font-size="10.00" fill="#000000">/window_output_event.h</text>
</a>
</g>
</g>
<!-- Node1&#45;&gt;Node20 -->
<g id="edge37" class="edge">
<title>Node1&#45;&gt;Node20</title>
<path fill="none" stroke="#191970" d="M793.2443,-215.2435C900.3093,-212.0718 1148.5174,-201.1965 1354,-165 1359.6824,-163.999 1365.5534,-162.7681 1371.4401,-161.4085"/>
<polygon fill="#191970" stroke="#191970" points="1372.4341,-164.7691 1381.3314,-159.0167 1370.7888,-157.9651 1372.4341,-164.7691"/>
</g>
<!-- Node21 -->
<g id="node22" class="node">
<title>Node21</title>
<g id="a_node22"><a xlink:href="input__device__state__event_8h.html" target="_top" xlink:title="mir_toolkit/events\l/input_device_state\l_event.h">
<polygon fill="#ffffff" stroke="#000000" points="1526,-123.5 1526,-164.5 1638,-164.5 1638,-123.5 1526,-123.5"/>
<text text-anchor="start" x="1534" y="-152.5" font-family="Arial" font-size="10.00" fill="#000000">mir_toolkit/events</text>
<text text-anchor="start" x="1534" y="-141.5" font-family="Arial" font-size="10.00" fill="#000000">/input_device_state</text>
<text text-anchor="middle" x="1582" y="-130.5" font-family="Arial" font-size="10.00" fill="#000000">_event.h</text>
</a>
</g>
</g>
<!-- Node1&#45;&gt;Node21 -->
<g id="edge39" class="edge">
<title>Node1&#45;&gt;Node21</title>
<path fill="none" stroke="#191970" d="M793.2404,-214.5281C943.7887,-208.9003 1369.9961,-191.4461 1508,-165 1510.6388,-164.4943 1513.3196,-163.9137 1516.0206,-163.2753"/>
<polygon fill="#191970" stroke="#191970" points="1517.0399,-166.627 1525.8498,-160.7418 1515.2927,-159.8486 1517.0399,-166.627"/>
</g>
<!-- Node4&#45;&gt;Node5 -->
<g id="edge5" class="edge">
<title>Node4&#45;&gt;Node5</title>
<path fill="none" stroke="#191970" d="M1007.322,-134.4441C994.3189,-130.3099 978.5169,-125.7889 964,-123 797.2349,-90.9616 598.4671,-78.6707 488.8677,-74.0928"/>
<polygon fill="#191970" stroke="#191970" points="489.0015,-70.5955 478.8675,-73.6863 488.7171,-77.5897 489.0015,-70.5955"/>
</g>
<!-- Node6&#45;&gt;Node1 -->
<g id="edge8" class="edge">
<title>Node6&#45;&gt;Node1</title>
<path fill="none" stroke="#191970" d="M1138.1345,-159.0517C1130.8887,-161.2613 1123.2693,-163.3459 1116,-165 1007.8485,-189.6092 878.9316,-204.4284 803.5118,-211.4833"/>
<polygon fill="#191970" stroke="#191970" points="802.8704,-208.0273 793.2325,-212.4274 803.5107,-214.998 802.8704,-208.0273"/>
</g>
<!-- Node6&#45;&gt;Node3 -->
<g id="edge11" class="edge">
<title>Node6&#45;&gt;Node3</title>
<path fill="none" stroke="#191970" d="M1126.5701,-128.9224C1120.0146,-126.8825 1113.3479,-124.8551 1107,-123 1047.3965,-105.5811 1015.7666,-131.051 972,-87 956.9874,-71.8898 952.8044,-47.0411 951.8512,-29.6708"/>
<polygon fill="#191970" stroke="#191970" points="955.3465,-29.4274 951.6099,-19.5134 948.3485,-29.5937 955.3465,-29.4274"/>
</g>
<!-- Node7 -->
<g id="node8" class="node">
<title>Node7</title>
<g id="a_node8"><a xlink:href="mir__input__device__types_8h.html" target="_top" xlink:title="mir_toolkit/mir_input\l_device_types.h">
<polygon fill="#ffffff" stroke="#000000" points="980.5,-56.5 980.5,-86.5 1099.5,-86.5 1099.5,-56.5 980.5,-56.5"/>
<text text-anchor="start" x="988.5" y="-74.5" font-family="Arial" font-size="10.00" fill="#000000">mir_toolkit/mir_input</text>
<text text-anchor="middle" x="1040" y="-63.5" font-family="Arial" font-size="10.00" fill="#000000">_device_types.h</text>
</a>
</g>
</g>
<!-- Node6&#45;&gt;Node7 -->
<g id="edge9" class="edge">
<title>Node6&#45;&gt;Node7</title>
<path fill="none" stroke="#191970" d="M1145.4423,-128.978C1125.4695,-118.0905 1098.2604,-103.2585 1076.4851,-91.3885"/>
<polygon fill="#191970" stroke="#191970" points="1077.9778,-88.216 1067.5224,-86.5028 1074.6274,-94.3621 1077.9778,-88.216"/>
</g>
<!-- Node8 -->
<g id="node9" class="node">
<title>Node8</title>
<polygon fill="#ffffff" stroke="#bfbfbf" points="1142,-.5 1142,-19.5 1204,-19.5 1204,-.5 1142,-.5"/>
<text text-anchor="middle" x="1173" y="-7.5" font-family="Arial" font-size="10.00" fill="#000000">stdbool.h</text>
</g>
<!-- Node6&#45;&gt;Node8 -->
<g id="edge12" class="edge">
<title>Node6&#45;&gt;Node8</title>
<path fill="none" stroke="#191970" d="M1163.3035,-128.8163C1153.3584,-111.3382 1140.2319,-81.7289 1147,-56 1149.6112,-46.0734 1154.9067,-36.0366 1160.0412,-27.8822"/>
<polygon fill="#191970" stroke="#191970" points="1162.9463,-29.8342 1165.6181,-19.5817 1157.136,-25.9303 1162.9463,-29.8342"/>
</g>
<!-- Node9 -->
<g id="node10" class="node">
<title>Node9</title>
<g id="a_node10"><a xlink:href="touch__event_8h.html" target="_top" xlink:title="mir_toolkit/events\l/input/touch_event.h">
<polygon fill="#ffffff" stroke="#000000" points="808,-56.5 808,-86.5 924,-86.5 924,-56.5 808,-56.5"/>
<text text-anchor="start" x="816" y="-74.5" font-family="Arial" font-size="10.00" fill="#000000">mir_toolkit/events</text>
<text text-anchor="middle" x="866" y="-63.5" font-family="Arial" font-size="10.00" fill="#000000">/input/touch_event.h</text>
</a>
</g>
</g>
<!-- Node6&#45;&gt;Node9 -->
<g id="edge13" class="edge">
<title>Node6&#45;&gt;Node9</title>
<path fill="none" stroke="#191970" d="M1127.7269,-128.9505C1120.8162,-126.8406 1113.7416,-124.7859 1107,-123 1032.7644,-103.3338 1013.0938,-103.0811 938,-87 936.7341,-86.7289 935.4557,-86.455 934.1677,-86.179"/>
<polygon fill="#191970" stroke="#191970" points="934.6683,-82.7068 924.1566,-84.0311 933.1998,-89.551 934.6683,-82.7068"/>
</g>
<!-- Node10 -->
<g id="node11" class="node">
<title>Node10</title>
<g id="a_node11"><a xlink:href="keyboard__event_8h.html" target="_top" xlink:title="mir_toolkit/events\l/input/keyboard_event.h">
<polygon fill="#ffffff" stroke="#000000" points="1298.5,-56.5 1298.5,-86.5 1433.5,-86.5 1433.5,-56.5 1298.5,-56.5"/>
<text text-anchor="start" x="1306.5" y="-74.5" font-family="Arial" font-size="10.00" fill="#000000">mir_toolkit/events</text>
<text text-anchor="middle" x="1366" y="-63.5" font-family="Arial" font-size="10.00" fill="#000000">/input/keyboard_event.h</text>
</a>
</g>
</g>
<!-- Node6&#45;&gt;Node10 -->
<g id="edge14" class="edge">
<title>Node6&#45;&gt;Node10</title>
<path fill="none" stroke="#191970" d="M1212.9897,-128.978C1243.008,-117.7017 1284.2904,-102.194 1316.4101,-90.1283"/>
<polygon fill="#191970" stroke="#191970" points="1317.931,-93.2959 1326.0615,-86.5028 1315.4694,-86.743 1317.931,-93.2959"/>
</g>
<!-- Node12 -->
<g id="node13" class="node">
<title>Node12</title>
<g id="a_node13"><a xlink:href="pointer__event_8h.html" target="_top" xlink:title="mir_toolkit/events\l/input/pointer_event.h">
<polygon fill="#ffffff" stroke="#000000" points="1156,-56.5 1156,-86.5 1280,-86.5 1280,-56.5 1156,-56.5"/>
<text text-anchor="start" x="1164" y="-74.5" font-family="Arial" font-size="10.00" fill="#000000">mir_toolkit/events</text>
<text text-anchor="middle" x="1218" y="-63.5" font-family="Arial" font-size="10.00" fill="#000000">/input/pointer_event.h</text>
</a>
</g>
</g>
<!-- Node6&#45;&gt;Node12 -->
<g id="edge16" class="edge">
<title>Node6&#45;&gt;Node12</title>
<path fill="none" stroke="#191970" d="M1182.324,-128.978C1188.3577,-119.257 1196.3432,-106.3915 1203.2292,-95.2974"/>
<polygon fill="#191970" stroke="#191970" points="1206.388,-96.845 1208.6879,-86.5028 1200.4405,-93.1534 1206.388,-96.845"/>
</g>
<!-- Node7&#45;&gt;Node3 -->
<g id="edge10" class="edge">
<title>Node7&#45;&gt;Node3</title>
<path fill="none" stroke="#191970" d="M1018.2472,-56.2977C1004.8032,-46.9022 987.5989,-34.8787 974.0922,-25.4395"/>
<polygon fill="#191970" stroke="#191970" points="976.0288,-22.5228 965.8271,-19.6633 972.0189,-28.2605 976.0288,-22.5228"/>
</g>
<!-- Node11 -->
<g id="node12" class="node">
<title>Node11</title>
<polygon fill="#ffffff" stroke="#bfbfbf" points="1339,-.5 1339,-19.5 1489,-19.5 1489,-.5 1339,-.5"/>
<text text-anchor="middle" x="1414" y="-7.5" font-family="Arial" font-size="10.00" fill="#000000">xkbcommon/xkbcommon.h</text>
</g>
<!-- Node10&#45;&gt;Node11 -->
<g id="edge15" class="edge">
<title>Node10&#45;&gt;Node11</title>
<path fill="none" stroke="#191970" d="M1377.8652,-56.2977C1384.5975,-47.672 1393.0585,-36.8312 1400.1006,-27.8087"/>
<polygon fill="#191970" stroke="#191970" points="1402.921,-29.8836 1406.3146,-19.8469 1397.4027,-25.5766 1402.921,-29.8836"/>
</g>
<!-- Node12&#45;&gt;Node8 -->
<g id="edge17" class="edge">
<title>Node12&#45;&gt;Node8</title>
<path fill="none" stroke="#191970" d="M1206.8764,-56.2977C1200.6299,-47.7609 1192.796,-37.0545 1186.2353,-28.0883"/>
<polygon fill="#191970" stroke="#191970" points="1188.9348,-25.8505 1180.2051,-19.8469 1183.2856,-29.984 1188.9348,-25.8505"/>
</g>
<!-- Node13&#45;&gt;Node1 -->
<g id="edge20" class="edge">
<title>Node13&#45;&gt;Node1</title>
<path fill="none" stroke="#191970" d="M539.1536,-159.0372C545.5187,-161.1042 551.9107,-163.1498 558,-165 597.9488,-177.138 643.0288,-189.3618 678.3937,-198.8525"/>
<polygon fill="#191970" stroke="#191970" points="677.5332,-202.2453 688.0985,-201.4545 679.3461,-195.4841 677.5332,-202.2453"/>
</g>
<!-- Node13&#45;&gt;Node5 -->
<g id="edge21" class="edge">
<title>Node13&#45;&gt;Node5</title>
<path fill="none" stroke="#191970" d="M470.2167,-128.978C456.8915,-117.051 438.2775,-100.3903 424.5189,-88.0756"/>
<polygon fill="#191970" stroke="#191970" points="426.8413,-85.4571 417.0558,-81.3957 422.1728,-90.6729 426.8413,-85.4571"/>
</g>
<!-- Node14&#45;&gt;Node1 -->
<g id="edge23" class="edge">
<title>Node14&#45;&gt;Node1</title>
<path fill="none" stroke="#191970" d="M643.285,-159.0028C663.8161,-169.7884 690.0866,-184.4525 710.1339,-196.2718"/>
<polygon fill="#191970" stroke="#191970" points="708.4824,-199.3621 718.8638,-201.478 712.0678,-193.3499 708.4824,-199.3621"/>
</g>
<!-- Node15&#45;&gt;Node1 -->
<g id="edge25" class="edge">
<title>Node15&#45;&gt;Node1</title>
<path fill="none" stroke="#191970" d="M745.5903,-159.0028C746.7494,-168.3309 747.0396,-180.5601 746.461,-191.3409"/>
<polygon fill="#191970" stroke="#191970" points="742.959,-191.2157 745.5927,-201.478 749.9334,-191.8132 742.959,-191.2157"/>
</g>
<!-- Node16&#45;&gt;Node1 -->
<g id="edge27" class="edge">
<title>Node16&#45;&gt;Node1</title>
<path fill="none" stroke="#191970" d="M860.5847,-159.0028C839.898,-170.0313 809.8865,-185.115 784.9259,-197.066"/>
<polygon fill="#191970" stroke="#191970" points="783.1681,-194.0261 775.6368,-201.478 786.1714,-200.3491 783.1681,-194.0261"/>
</g>
<!-- Node17&#45;&gt;Node1 -->
<g id="edge29" class="edge">
<title>Node17&#45;&gt;Node1</title>
<path fill="none" stroke="#191970" d="M1269.5388,-159.1036C1262.5345,-161.363 1255.1063,-163.4503 1248,-165 1090.7771,-199.2861 900.5655,-210.9078 803.5012,-214.7207"/>
<polygon fill="#191970" stroke="#191970" points="803.1288,-211.2321 793.268,-215.1071 803.393,-218.2272 803.1288,-211.2321"/>
</g>
<!-- Node17&#45;&gt;Node11 -->
<g id="edge30" class="edge">
<title>Node17&#45;&gt;Node11</title>
<path fill="none" stroke="#191970" d="M1345.6637,-128.8951C1385.0748,-115.1191 1437.1597,-95.6375 1443,-87 1455.4219,-68.6284 1442.1119,-44.2208 1429.7115,-27.8548"/>
<polygon fill="#191970" stroke="#191970" points="1432.1009,-25.2442 1423.0852,-19.6794 1426.6628,-29.6519 1432.1009,-25.2442"/>
</g>
<!-- Node18&#45;&gt;Node1 -->
<g id="edge32" class="edge">
<title>Node18&#45;&gt;Node1</title>
<path fill="none" stroke="#191970" d="M225.5636,-160.432C231.7644,-162.1688 237.9958,-163.7526 244,-165 397.6006,-196.9113 581.7685,-209.3445 676.6956,-213.9583"/>
<polygon fill="#191970" stroke="#191970" points="676.5568,-217.4555 686.711,-214.432 676.8876,-210.4633 676.5568,-217.4555"/>
</g>
<!-- Node18&#45;&gt;Node5 -->
<g id="edge33" class="edge">
<title>Node18&#45;&gt;Node5</title>
<path fill="none" stroke="#191970" d="M225.5075,-125.9569C228.7174,-124.9517 231.8987,-123.9603 235,-123 278.9388,-109.3941 329.3792,-94.2623 364.0296,-83.9424"/>
<polygon fill="#191970" stroke="#191970" points="365.2212,-87.2396 373.8078,-81.0331 363.2249,-80.5303 365.2212,-87.2396"/>
</g>
<!-- Node19&#45;&gt;Node1 -->
<g id="edge35" class="edge">
<title>Node19&#45;&gt;Node1</title>
<path fill="none" stroke="#191970" d="M374.5996,-159.0303C383.4703,-161.1909 392.4578,-163.2658 401,-165 496.5019,-184.3888 608.1447,-199.6149 676.5286,-208.3352"/>
<polygon fill="#191970" stroke="#191970" points="676.3491,-211.8404 686.71,-209.6264 677.2299,-204.896 676.3491,-211.8404"/>
</g>
<!-- Node19&#45;&gt;Node5 -->
<g id="edge36" class="edge">
<title>Node19&#45;&gt;Node5</title>
<path fill="none" stroke="#191970" d="M330.6841,-128.978C346.5502,-116.8696 368.8094,-99.8823 385.0128,-87.5165"/>
<polygon fill="#191970" stroke="#191970" points="387.4864,-90.0316 393.3126,-81.1825 383.2397,-84.4669 387.4864,-90.0316"/>
</g>
<!-- Node20&#45;&gt;Node1 -->
<g id="edge38" class="edge">
<title>Node20&#45;&gt;Node1</title>
<path fill="none" stroke="#191970" d="M1399.0367,-159.0167C1390.1998,-161.3146 1380.87,-163.4375 1372,-165 1166.3123,-201.2326 917.8138,-212.0935 803.2779,-215.253"/>
<polygon fill="#191970" stroke="#191970" points="803.1819,-211.7542 793.2783,-215.5185 803.3678,-218.7518 803.1819,-211.7542"/>
</g>
<!-- Node21&#45;&gt;Node1 -->
<g id="edge40" class="edge">
<title>Node21&#45;&gt;Node1</title>
<path fill="none" stroke="#191970" d="M1528.4569,-164.5103C1527.6346,-164.6804 1526.8153,-164.8438 1526,-165 1388.525,-191.3448 965.0511,-208.7664 803.4563,-214.4629"/>
<polygon fill="#191970" stroke="#191970" points="803.0686,-210.9742 793.1969,-214.8211 803.313,-217.9699 803.0686,-210.9742"/>
</g>
</g>
</svg>
