<?xml version="1.0" encoding="UTF-8" standalone="no"?>
<!DOCTYPE svg PUBLIC "-//W3C//DTD SVG 1.1//EN"
 "http://www.w3.org/Graphics/SVG/1.1/DTD/svg11.dtd">
<!-- Generated by graphviz version 2.40.1 (20161225.0304)
 -->
<!-- Title: include/miral/miral/runner.h Pages: 1 -->
<svg width="251pt" height="95pt"
 viewBox="0.00 0.00 250.50 95.00" xmlns="http://www.w3.org/2000/svg" xmlns:xlink="http://www.w3.org/1999/xlink">
<g id="graph0" class="graph" transform="scale(1 1) rotate(0) translate(4 91)">
<title>include/miral/miral/runner.h</title>
<polygon fill="#ffffff" stroke="transparent" points="-4,4 -4,-91 246.5,-91 246.5,4 -4,4"/>
<!-- Node0 -->
<g id="node1" class="node">
<title>Node0</title>
<polygon fill="#bfbfbf" stroke="#000000" points="70,-56.5 70,-86.5 179,-86.5 179,-56.5 70,-56.5"/>
<text text-anchor="start" x="78" y="-74.5" font-family="Arial" font-size="10.00" fill="#000000">include/miral/miral</text>
<text text-anchor="middle" x="124.5" y="-63.5" font-family="Arial" font-size="10.00" fill="#000000">/runner.h</text>
</g>
<!-- Node1 -->
<g id="node2" class="node">
<title>Node1</title>
<polygon fill="#ffffff" stroke="#bfbfbf" points="0,-.5 0,-19.5 65,-19.5 65,-.5 0,-.5"/>
<text text-anchor="middle" x="32.5" y="-7.5" font-family="Arial" font-size="10.00" fill="#000000">functional</text>
</g>
<!-- Node0&#45;&gt;Node1 -->
<g id="edge1" class="edge">
<title>Node0&#45;&gt;Node1</title>
<path fill="none" stroke="#191970" d="M101.7584,-56.2977C87.7033,-46.9022 69.717,-34.8787 55.5964,-25.4395"/>
<polygon fill="#191970" stroke="#191970" points="57.2143,-22.311 46.9556,-19.6633 53.3241,-28.1305 57.2143,-22.311"/>
</g>
<!-- Node2 -->
<g id="node3" class="node">
<title>Node2</title>
<polygon fill="#ffffff" stroke="#bfbfbf" points="83,-.5 83,-19.5 166,-19.5 166,-.5 83,-.5"/>
<text text-anchor="middle" x="124.5" y="-7.5" font-family="Arial" font-size="10.00" fill="#000000">initializer_list</text>
</g>
<!-- Node0&#45;&gt;Node2 -->
<g id="edge2" class="edge">
<title>Node0&#45;&gt;Node2</title>
<path fill="none" stroke="#191970" d="M124.5,-56.2977C124.5,-48.3834 124.5,-38.6043 124.5,-30.0759"/>
<polygon fill="#191970" stroke="#191970" points="128.0001,-29.8469 124.5,-19.8469 121.0001,-29.847 128.0001,-29.8469"/>
</g>
<!-- Node3 -->
<g id="node4" class="node">
<title>Node3</title>
<polygon fill="#ffffff" stroke="#bfbfbf" points="184.5,-.5 184.5,-19.5 242.5,-19.5 242.5,-.5 184.5,-.5"/>
<text text-anchor="middle" x="213.5" y="-7.5" font-family="Arial" font-size="10.00" fill="#000000">memory</text>
</g>
<!-- Node0&#45;&gt;Node3 -->
<g id="edge3" class="edge">
<title>Node0&#45;&gt;Node3</title>
<path fill="none" stroke="#191970" d="M146.5,-56.2977C160.0968,-46.9022 177.4966,-34.8787 191.1567,-25.4395"/>
<polygon fill="#191970" stroke="#191970" points="193.2785,-28.2276 199.5158,-19.6633 189.2991,-22.4688 193.2785,-28.2276"/>
</g>
</g>
</svg>
