<?xml version="1.0" encoding="UTF-8" standalone="no"?>
<!DOCTYPE svg PUBLIC "-//W3C//DTD SVG 1.1//EN"
 "http://www.w3.org/Graphics/SVG/1.1/DTD/svg11.dtd">
<!-- Generated by graphviz version 2.38.0 (20140413.2041)
 -->
<!-- Title: include/miral/miral/runner.h Pages: 1 -->
<svg width="228pt" height="95pt"
 viewBox="0.00 0.00 228.00 95.00" xmlns="http://www.w3.org/2000/svg" xmlns:xlink="http://www.w3.org/1999/xlink">
<g id="graph0" class="graph" transform="scale(1 1) rotate(0) translate(4 91)">
<title>include/miral/miral/runner.h</title>
<polygon fill="white" stroke="none" points="-4,4 -4,-91 224,-91 224,4 -4,4"/>
<!-- Node0 -->
<g id="node1" class="node"><title>Node0</title>
<polygon fill="#bfbfbf" stroke="black" points="65.5,-56.5 65.5,-86.5 160.5,-86.5 160.5,-56.5 65.5,-56.5"/>
<text text-anchor="start" x="73.5" y="-74.5" font-family="Arial" font-size="10.00">include/miral/miral</text>
<text text-anchor="middle" x="113" y="-63.5" font-family="Arial" font-size="10.00">/runner.h</text>
</g>
<!-- Node1 -->
<g id="node2" class="node"><title>Node1</title>
<polygon fill="white" stroke="#bfbfbf" points="0,-0.5 0,-19.5 58,-19.5 58,-0.5 0,-0.5"/>
<text text-anchor="middle" x="29" y="-7.5" font-family="Arial" font-size="10.00">functional</text>
</g>
<!-- Node0&#45;&gt;Node1 -->
<g id="edge1" class="edge"><title>Node0&#45;&gt;Node1</title>
<path fill="none" stroke="midnightblue" d="M93.0932,-56.3993C80.0061,-47.1293 62.9183,-35.0254 49.678,-25.6469"/>
<polygon fill="midnightblue" stroke="midnightblue" points="51.4061,-22.5819 41.2227,-19.6578 47.3599,-28.2941 51.4061,-22.5819"/>
</g>
<!-- Node2 -->
<g id="node3" class="node"><title>Node2</title>
<polygon fill="white" stroke="#bfbfbf" points="76.5,-0.5 76.5,-19.5 149.5,-19.5 149.5,-0.5 76.5,-0.5"/>
<text text-anchor="middle" x="113" y="-7.5" font-family="Arial" font-size="10.00">initializer_list</text>
</g>
<!-- Node0&#45;&gt;Node2 -->
<g id="edge2" class="edge"><title>Node0&#45;&gt;Node2</title>
<path fill="none" stroke="midnightblue" d="M113,-56.3993C113,-48.4664 113,-38.458 113,-29.8583"/>
<polygon fill="midnightblue" stroke="midnightblue" points="116.5,-29.6577 113,-19.6578 109.5,-29.6578 116.5,-29.6577"/>
</g>
<!-- Node3 -->
<g id="node4" class="node"><title>Node3</title>
<polygon fill="white" stroke="#bfbfbf" points="168,-0.5 168,-19.5 220,-19.5 220,-0.5 168,-0.5"/>
<text text-anchor="middle" x="194" y="-7.5" font-family="Arial" font-size="10.00">memory</text>
</g>
<!-- Node0&#45;&gt;Node3 -->
<g id="edge3" class="edge"><title>Node0&#45;&gt;Node3</title>
<path fill="none" stroke="midnightblue" d="M132.196,-56.3993C144.816,-47.1293 161.293,-35.0254 174.061,-25.6469"/>
<polygon fill="midnightblue" stroke="midnightblue" points="176.227,-28.3987 182.214,-19.6578 172.082,-22.7572 176.227,-28.3987"/>
</g>
</g>
</svg>
