<?xml version="1.0" encoding="UTF-8" standalone="no"?>
<!DOCTYPE svg PUBLIC "-//W3C//DTD SVG 1.1//EN"
 "http://www.w3.org/Graphics/SVG/1.1/DTD/svg11.dtd">
<!-- Generated by graphviz version 2.38.0 (20140413.2041)
 -->
<!-- Title: examples/server_example_input_event_filter.h Pages: 1 -->
<svg width="269pt" height="95pt"
 viewBox="0.00 0.00 268.50 95.00" xmlns="http://www.w3.org/2000/svg" xmlns:xlink="http://www.w3.org/1999/xlink">
<g id="graph0" class="graph" transform="scale(1 1) rotate(0) translate(4 91)">
<title>examples/server_example_input_event_filter.h</title>
<polygon fill="white" stroke="none" points="-4,4 -4,-91 264.5,-91 264.5,4 -4,4"/>
<!-- Node0 -->
<g id="node1" class="node"><title>Node0</title>
<polygon fill="#bfbfbf" stroke="black" points="95,-56.5 95,-86.5 226,-86.5 226,-56.5 95,-56.5"/>
<text text-anchor="start" x="103" y="-74.5" font-family="Arial" font-size="10.00">examples/server_example</text>
<text text-anchor="middle" x="160.5" y="-63.5" font-family="Arial" font-size="10.00">_input_event_filter.h</text>
</g>
<!-- Node1 -->
<g id="node2" class="node"><title>Node1</title>
<polygon fill="white" stroke="#bfbfbf" points="0,-0.5 0,-19.5 113,-19.5 113,-0.5 0,-0.5"/>
<text text-anchor="middle" x="56.5" y="-7.5" font-family="Arial" font-size="10.00">mir/input/event_filter.h</text>
</g>
<!-- Node0&#45;&gt;Node1 -->
<g id="edge1" class="edge"><title>Node0&#45;&gt;Node1</title>
<path fill="none" stroke="midnightblue" d="M135.853,-56.3993C119.183,-46.8619 97.2694,-34.3248 80.6948,-24.8422"/>
<polygon fill="midnightblue" stroke="midnightblue" points="82.0509,-21.5858 71.6329,-19.6578 78.5747,-27.6617 82.0509,-21.5858"/>
</g>
<!-- Node2 -->
<g id="node3" class="node"><title>Node2</title>
<polygon fill="white" stroke="#bfbfbf" points="131,-0.5 131,-19.5 190,-19.5 190,-0.5 131,-0.5"/>
<text text-anchor="middle" x="160.5" y="-7.5" font-family="Arial" font-size="10.00">functional</text>
</g>
<!-- Node0&#45;&gt;Node2 -->
<g id="edge2" class="edge"><title>Node0&#45;&gt;Node2</title>
<path fill="none" stroke="midnightblue" d="M160.5,-56.3993C160.5,-48.4664 160.5,-38.458 160.5,-29.8583"/>
<polygon fill="midnightblue" stroke="midnightblue" points="164,-29.6577 160.5,-19.6578 157,-29.6578 164,-29.6577"/>
</g>
<!-- Node3 -->
<g id="node4" class="node"><title>Node3</title>
<polygon fill="white" stroke="#bfbfbf" points="208.5,-0.5 208.5,-19.5 260.5,-19.5 260.5,-0.5 208.5,-0.5"/>
<text text-anchor="middle" x="234.5" y="-7.5" font-family="Arial" font-size="10.00">memory</text>
</g>
<!-- Node0&#45;&gt;Node3 -->
<g id="edge3" class="edge"><title>Node0&#45;&gt;Node3</title>
<path fill="none" stroke="midnightblue" d="M178.037,-56.3993C189.344,-47.3076 204.042,-35.4899 215.607,-26.1909"/>
<polygon fill="midnightblue" stroke="midnightblue" points="218.132,-28.6517 223.732,-19.6578 213.746,-23.1964 218.132,-28.6517"/>
</g>
</g>
</svg>
