<?xml version="1.0" encoding="UTF-8" standalone="no"?>
<!DOCTYPE svg PUBLIC "-//W3C//DTD SVG 1.1//EN"
 "http://www.w3.org/Graphics/SVG/1.1/DTD/svg11.dtd">
<!-- Generated by graphviz version 2.38.0 (20140413.2041)
 -->
<!-- Title: examples/server_example_custom_compositor.cpp Pages: 1 -->
<svg width="765pt" height="173pt"
 viewBox="0.00 0.00 765.00 173.00" xmlns="http://www.w3.org/2000/svg" xmlns:xlink="http://www.w3.org/1999/xlink">
<g id="graph0" class="graph" transform="scale(1 1) rotate(0) translate(4 169)">
<title>examples/server_example_custom_compositor.cpp</title>
<polygon fill="white" stroke="none" points="-4,4 -4,-169 761,-169 761,4 -4,4"/>
<!-- Node0 -->
<g id="node1" class="node"><title>Node0</title>
<polygon fill="#bfbfbf" stroke="black" points="324,-134.5 324,-164.5 455,-164.5 455,-134.5 324,-134.5"/>
<text text-anchor="start" x="332" y="-152.5" font-family="Arial" font-size="10.00">examples/server_example</text>
<text text-anchor="middle" x="389.5" y="-141.5" font-family="Arial" font-size="10.00">_custom_compositor.cpp</text>
</g>
<!-- Node1 -->
<g id="node2" class="node"><title>Node1</title>
<g id="a_node2"><a xlink:href="server__example__custom__compositor_8h.html" target="_top" xlink:title="server_example_custom\l_compositor.h">
<polygon fill="white" stroke="black" points="0,-67.5 0,-97.5 123,-97.5 123,-67.5 0,-67.5"/>
<text text-anchor="start" x="8" y="-85.5" font-family="Arial" font-size="10.00">server_example_custom</text>
<text text-anchor="middle" x="61.5" y="-74.5" font-family="Arial" font-size="10.00">_compositor.h</text>
</a>
</g>
</g>
<!-- Node0&#45;&gt;Node1 -->
<g id="edge1" class="edge"><title>Node0&#45;&gt;Node1</title>
<path fill="none" stroke="midnightblue" d="M323.982,-135.765C274.365,-126.089 204.237,-112.344 133.109,-98.1137"/>
<polygon fill="midnightblue" stroke="midnightblue" points="133.561,-94.6347 123.068,-96.1029 132.186,-101.498 133.561,-94.6347"/>
</g>
<!-- Node2 -->
<g id="node3" class="node"><title>Node2</title>
<g id="a_node3"><a xlink:href="server__example__adorning__compositor_8h.html" target="_top" xlink:title="server_example_adorning\l_compositor.h">
<polygon fill="white" stroke="black" points="141.5,-67.5 141.5,-97.5 269.5,-97.5 269.5,-67.5 141.5,-67.5"/>
<text text-anchor="start" x="149.5" y="-85.5" font-family="Arial" font-size="10.00">server_example_adorning</text>
<text text-anchor="middle" x="205.5" y="-74.5" font-family="Arial" font-size="10.00">_compositor.h</text>
</a>
</g>
</g>
<!-- Node0&#45;&gt;Node2 -->
<g id="edge2" class="edge"><title>Node0&#45;&gt;Node2</title>
<path fill="none" stroke="midnightblue" d="M349.575,-134.396C321.846,-124.601 284.708,-111.481 255.082,-101.015"/>
<polygon fill="midnightblue" stroke="midnightblue" points="255.942,-97.6073 245.347,-97.5765 253.61,-104.208 255.942,-97.6073"/>
</g>
<!-- Node6 -->
<g id="node7" class="node"><title>Node6</title>
<g id="a_node7"><a xlink:href="abnormal__exit_8h.html" target="_top" xlink:title="mir/abnormal_exit.h">
<polygon fill="white" stroke="black" points="287.5,-73 287.5,-92 389.5,-92 389.5,-73 287.5,-73"/>
<text text-anchor="middle" x="338.5" y="-80" font-family="Arial" font-size="10.00">mir/abnormal_exit.h</text>
</a>
</g>
</g>
<!-- Node0&#45;&gt;Node6 -->
<g id="edge6" class="edge"><title>Node0&#45;&gt;Node6</title>
<path fill="none" stroke="midnightblue" d="M378.434,-134.396C370.56,-124.361 359.95,-110.838 351.645,-100.253"/>
<polygon fill="midnightblue" stroke="midnightblue" points="354.248,-97.9014 345.322,-92.1945 348.741,-102.222 354.248,-97.9014"/>
</g>
<!-- Node8 -->
<g id="node9" class="node"><title>Node8</title>
<polygon fill="white" stroke="#bfbfbf" points="407.5,-73 407.5,-92 475.5,-92 475.5,-73 407.5,-73"/>
<text text-anchor="middle" x="441.5" y="-80" font-family="Arial" font-size="10.00">mir/server.h</text>
</g>
<!-- Node0&#45;&gt;Node8 -->
<g id="edge8" class="edge"><title>Node0&#45;&gt;Node8</title>
<path fill="none" stroke="midnightblue" d="M400.783,-134.396C408.811,-124.361 419.629,-110.838 428.097,-100.253"/>
<polygon fill="midnightblue" stroke="midnightblue" points="431.03,-102.19 434.544,-92.1945 425.564,-97.8168 431.03,-102.19"/>
</g>
<!-- Node9 -->
<g id="node10" class="node"><title>Node9</title>
<g id="a_node10"><a xlink:href="option_8h.html" target="_top" xlink:title="mir/options/option.h">
<polygon fill="white" stroke="black" points="493.5,-73 493.5,-92 595.5,-92 595.5,-73 493.5,-73"/>
<text text-anchor="middle" x="544.5" y="-80" font-family="Arial" font-size="10.00">mir/options/option.h</text>
</a>
</g>
</g>
<!-- Node0&#45;&gt;Node9 -->
<g id="edge9" class="edge"><title>Node0&#45;&gt;Node9</title>
<path fill="none" stroke="midnightblue" d="M423.133,-134.396C450.45,-122.941 488.608,-106.938 514.806,-95.9521"/>
<polygon fill="midnightblue" stroke="midnightblue" points="516.346,-99.102 524.214,-92.007 513.639,-92.6466 516.346,-99.102"/>
</g>
<!-- Node12 -->
<g id="node13" class="node"><title>Node12</title>
<polygon fill="white" stroke="#bfbfbf" points="614,-67.5 614,-97.5 757,-97.5 757,-67.5 614,-67.5"/>
<text text-anchor="start" x="622" y="-85.5" font-family="Arial" font-size="10.00">mir/compositor/display</text>
<text text-anchor="middle" x="685.5" y="-74.5" font-family="Arial" font-size="10.00">_buffer_compositor_factory.h</text>
</g>
<!-- Node0&#45;&gt;Node12 -->
<g id="edge12" class="edge"><title>Node0&#45;&gt;Node12</title>
<path fill="none" stroke="midnightblue" d="M453.363,-134.476C499.87,-124.263 562.976,-110.406 611.652,-99.7167"/>
<polygon fill="midnightblue" stroke="midnightblue" points="612.48,-103.118 621.496,-97.5549 610.978,-96.2812 612.48,-103.118"/>
</g>
<!-- Node3 -->
<g id="node4" class="node"><title>Node3</title>
<polygon fill="white" stroke="#bfbfbf" points="32,-0.5 32,-30.5 147,-30.5 147,-0.5 32,-0.5"/>
<text text-anchor="start" x="40" y="-18.5" font-family="Arial" font-size="10.00">mir/compositor/display</text>
<text text-anchor="middle" x="89.5" y="-7.5" font-family="Arial" font-size="10.00">_buffer_compositor.h</text>
</g>
<!-- Node2&#45;&gt;Node3 -->
<g id="edge3" class="edge"><title>Node2&#45;&gt;Node3</title>
<path fill="none" stroke="midnightblue" d="M180.33,-67.396C163.761,-58.1117 141.862,-45.8409 123.719,-35.6742"/>
<polygon fill="midnightblue" stroke="midnightblue" points="125.056,-32.4116 114.621,-30.5765 121.634,-38.5182 125.056,-32.4116"/>
</g>
<!-- Node4 -->
<g id="node5" class="node"><title>Node4</title>
<polygon fill="white" stroke="#bfbfbf" points="165.5,-6 165.5,-25 237.5,-25 237.5,-6 165.5,-6"/>
<text text-anchor="middle" x="201.5" y="-13" font-family="Arial" font-size="10.00">GLES2/gl2.h</text>
</g>
<!-- Node2&#45;&gt;Node4 -->
<g id="edge4" class="edge"><title>Node2&#45;&gt;Node4</title>
<path fill="none" stroke="midnightblue" d="M204.632,-67.396C204.052,-57.9635 203.281,-45.4484 202.65,-35.1891"/>
<polygon fill="midnightblue" stroke="midnightblue" points="206.143,-34.9606 202.035,-25.1945 199.156,-35.3907 206.143,-34.9606"/>
</g>
<!-- Node5 -->
<g id="node6" class="node"><title>Node5</title>
<polygon fill="white" stroke="#bfbfbf" points="255.5,-6 255.5,-25 293.5,-25 293.5,-6 255.5,-6"/>
<text text-anchor="middle" x="274.5" y="-13" font-family="Arial" font-size="10.00">tuple</text>
</g>
<!-- Node2&#45;&gt;Node5 -->
<g id="edge5" class="edge"><title>Node2&#45;&gt;Node5</title>
<path fill="none" stroke="midnightblue" d="M220.472,-67.396C231.444,-57.0604 246.344,-43.0237 257.718,-32.309"/>
<polygon fill="midnightblue" stroke="midnightblue" points="260.391,-34.5991 265.27,-25.1945 255.592,-29.5039 260.391,-34.5991"/>
</g>
<!-- Node7 -->
<g id="node8" class="node"><title>Node7</title>
<polygon fill="white" stroke="#bfbfbf" points="312,-6 312,-25 371,-25 371,-6 312,-6"/>
<text text-anchor="middle" x="341.5" y="-13" font-family="Arial" font-size="10.00">stdexcept</text>
</g>
<!-- Node6&#45;&gt;Node7 -->
<g id="edge7" class="edge"><title>Node6&#45;&gt;Node7</title>
<path fill="none" stroke="midnightblue" d="M338.905,-72.7338C339.345,-63.1826 340.064,-47.6183 340.633,-35.2829"/>
<polygon fill="midnightblue" stroke="midnightblue" points="344.137,-35.2781 341.102,-25.1273 337.144,-34.9553 344.137,-35.2781"/>
</g>
<!-- Node10 -->
<g id="node11" class="node"><title>Node10</title>
<polygon fill="white" stroke="#bfbfbf" points="467,-6 467,-25 544,-25 544,-6 467,-6"/>
<text text-anchor="middle" x="505.5" y="-13" font-family="Arial" font-size="10.00">boost/any.hpp</text>
</g>
<!-- Node9&#45;&gt;Node10 -->
<g id="edge10" class="edge"><title>Node9&#45;&gt;Node10</title>
<path fill="none" stroke="midnightblue" d="M539.24,-72.7338C533.276,-62.7928 523.403,-46.3377 515.874,-33.7892"/>
<polygon fill="midnightblue" stroke="midnightblue" points="518.823,-31.9015 510.676,-25.1273 512.82,-35.503 518.823,-31.9015"/>
</g>
<!-- Node11 -->
<g id="node12" class="node"><title>Node11</title>
<polygon fill="white" stroke="#bfbfbf" points="562,-6 562,-25 603,-25 603,-6 562,-6"/>
<text text-anchor="middle" x="582.5" y="-13" font-family="Arial" font-size="10.00">string</text>
</g>
<!-- Node9&#45;&gt;Node11 -->
<g id="edge11" class="edge"><title>Node9&#45;&gt;Node11</title>
<path fill="none" stroke="midnightblue" d="M549.625,-72.7338C555.437,-62.7928 565.056,-46.3377 572.392,-33.7892"/>
<polygon fill="midnightblue" stroke="midnightblue" points="575.431,-35.5267 577.456,-25.1273 569.388,-31.9938 575.431,-35.5267"/>
</g>
</g>
</svg>
