<?xml version="1.0" encoding="UTF-8" standalone="no"?>
<!DOCTYPE svg PUBLIC "-//W3C//DTD SVG 1.1//EN"
 "http://www.w3.org/Graphics/SVG/1.1/DTD/svg11.dtd">
<!-- Generated by graphviz version 2.38.0 (20140413.2041)
 -->
<!-- Title: examples/server_example_input_filter.cpp Pages: 1 -->
<svg width="1290pt" height="341pt"
 viewBox="0.00 0.00 1289.50 341.00" xmlns="http://www.w3.org/2000/svg" xmlns:xlink="http://www.w3.org/1999/xlink">
<g id="graph0" class="graph" transform="scale(1 1) rotate(0) translate(4 337)">
<title>examples/server_example_input_filter.cpp</title>
<polygon fill="white" stroke="none" points="-4,4 -4,-337 1285.5,-337 1285.5,4 -4,4"/>
<!-- Node0 -->
<g id="node1" class="node"><title>Node0</title>
<polygon fill="#bfbfbf" stroke="black" points="628.5,-302.5 628.5,-332.5 759.5,-332.5 759.5,-302.5 628.5,-302.5"/>
<text text-anchor="start" x="636.5" y="-320.5" font-family="Arial" font-size="10.00">examples/server_example</text>
<text text-anchor="middle" x="694" y="-309.5" font-family="Arial" font-size="10.00">_input_filter.cpp</text>
</g>
<!-- Node1 -->
<g id="node2" class="node"><title>Node1</title>
<g id="a_node2"><a xlink:href="server__example__input__filter_8h.html" target="_top" xlink:title="server_example_input\l_filter.h">
<polygon fill="white" stroke="black" points="512,-235.5 512,-265.5 624,-265.5 624,-235.5 512,-235.5"/>
<text text-anchor="start" x="520" y="-253.5" font-family="Arial" font-size="10.00">server_example_input</text>
<text text-anchor="middle" x="568" y="-242.5" font-family="Arial" font-size="10.00">_filter.h</text>
</a>
</g>
</g>
<!-- Node0&#45;&gt;Node1 -->
<g id="edge1" class="edge"><title>Node0&#45;&gt;Node1</title>
<path fill="none" stroke="midnightblue" d="M666.66,-302.396C648.415,-292.984 624.22,-280.503 604.357,-270.256"/>
<polygon fill="midnightblue" stroke="midnightblue" points="605.779,-267.051 595.287,-265.577 602.569,-273.272 605.779,-267.051"/>
</g>
<!-- Node3 -->
<g id="node4" class="node"><title>Node3</title>
<polygon fill="white" stroke="#bfbfbf" points="268,-241 268,-260 336,-260 336,-241 268,-241"/>
<text text-anchor="middle" x="302" y="-248" font-family="Arial" font-size="10.00">mir/server.h</text>
</g>
<!-- Node0&#45;&gt;Node3 -->
<g id="edge3" class="edge"><title>Node0&#45;&gt;Node3</title>
<path fill="none" stroke="midnightblue" d="M628.366,-310.593C557.714,-303.404 442.358,-289.255 345,-266 341.602,-265.188 338.091,-264.223 334.608,-263.181"/>
<polygon fill="midnightblue" stroke="midnightblue" points="335.575,-259.816 324.984,-260.108 333.446,-266.484 335.575,-259.816"/>
</g>
<!-- Node4 -->
<g id="node5" class="node"><title>Node4</title>
<polygon fill="white" stroke="#bfbfbf" points="354,-241 354,-260 494,-260 494,-241 354,-241"/>
<text text-anchor="middle" x="424" y="-248" font-family="Arial" font-size="10.00">mir/compositor/compositor.h</text>
</g>
<!-- Node0&#45;&gt;Node4 -->
<g id="edge4" class="edge"><title>Node0&#45;&gt;Node4</title>
<path fill="none" stroke="midnightblue" d="M635.746,-302.476C585.879,-290.471 515.092,-273.43 469.354,-262.419"/>
<polygon fill="midnightblue" stroke="midnightblue" points="469.968,-258.966 459.427,-260.029 468.33,-265.772 469.968,-258.966"/>
</g>
<!-- Node5 -->
<g id="node6" class="node"><title>Node5</title>
<g id="a_node6"><a xlink:href="display_8h.html" target="_top" xlink:title="mir/graphics/display.h">
<polygon fill="white" stroke="black" points="125.5,-241 125.5,-260 236.5,-260 236.5,-241 125.5,-241"/>
<text text-anchor="middle" x="181" y="-248" font-family="Arial" font-size="10.00">mir/graphics/display.h</text>
</a>
</g>
</g>
<!-- Node0&#45;&gt;Node5 -->
<g id="edge5" class="edge"><title>Node0&#45;&gt;Node5</title>
<path fill="none" stroke="midnightblue" d="M628.226,-310.275C542.874,-301.875 389.434,-285.671 259,-266 250.867,-264.773 242.283,-263.33 233.902,-261.838"/>
<polygon fill="midnightblue" stroke="midnightblue" points="234.289,-258.351 223.824,-260.004 233.036,-265.238 234.289,-258.351"/>
</g>
<!-- Node13 -->
<g id="node14" class="node"><title>Node13</title>
<g id="a_node14"><a xlink:href="display__configuration_8h.html" target="_top" xlink:title="mir/graphics/display\l_configuration.h">
<polygon fill="white" stroke="black" points="642,-235.5 642,-265.5 746,-265.5 746,-235.5 642,-235.5"/>
<text text-anchor="start" x="650" y="-253.5" font-family="Arial" font-size="10.00">mir/graphics/display</text>
<text text-anchor="middle" x="694" y="-242.5" font-family="Arial" font-size="10.00">_configuration.h</text>
</a>
</g>
</g>
<!-- Node0&#45;&gt;Node13 -->
<g id="edge15" class="edge"><title>Node0&#45;&gt;Node13</title>
<path fill="none" stroke="midnightblue" d="M694,-302.396C694,-294.645 694,-284.812 694,-275.86"/>
<polygon fill="midnightblue" stroke="midnightblue" points="697.5,-275.576 694,-265.577 690.5,-275.577 697.5,-275.576"/>
</g>
<!-- Node28 -->
<g id="node29" class="node"><title>Node28</title>
<polygon fill="white" stroke="#bfbfbf" points="764,-235.5 764,-265.5 866,-265.5 866,-235.5 764,-235.5"/>
<text text-anchor="start" x="772" y="-253.5" font-family="Arial" font-size="10.00">mir/input/composite</text>
<text text-anchor="middle" x="815" y="-242.5" font-family="Arial" font-size="10.00">_event_filter.h</text>
</g>
<!-- Node0&#45;&gt;Node28 -->
<g id="edge43" class="edge"><title>Node0&#45;&gt;Node28</title>
<path fill="none" stroke="midnightblue" d="M720.255,-302.396C737.697,-293.026 760.8,-280.615 779.826,-270.395"/>
<polygon fill="midnightblue" stroke="midnightblue" points="781.643,-273.392 788.796,-265.577 778.33,-267.226 781.643,-273.392"/>
</g>
<!-- Node29 -->
<g id="node30" class="node"><title>Node29</title>
<g id="a_node30"><a xlink:href="option_8h.html" target="_top" xlink:title="mir/options/option.h">
<polygon fill="white" stroke="black" points="884,-241 884,-260 986,-260 986,-241 884,-241"/>
<text text-anchor="middle" x="935" y="-248" font-family="Arial" font-size="10.00">mir/options/option.h</text>
</a>
</g>
</g>
<!-- Node0&#45;&gt;Node29 -->
<g id="edge44" class="edge"><title>Node0&#45;&gt;Node29</title>
<path fill="none" stroke="midnightblue" d="M745.997,-302.476C790.134,-290.572 852.632,-273.716 893.483,-262.698"/>
<polygon fill="midnightblue" stroke="midnightblue" points="894.635,-266.012 903.378,-260.029 892.812,-259.254 894.635,-266.012"/>
</g>
<!-- Node32 -->
<g id="node33" class="node"><title>Node32</title>
<polygon fill="white" stroke="#bfbfbf" points="1004.5,-241 1004.5,-260 1073.5,-260 1073.5,-241 1004.5,-241"/>
<text text-anchor="middle" x="1039" y="-248" font-family="Arial" font-size="10.00">linux/input.h</text>
</g>
<!-- Node0&#45;&gt;Node32 -->
<g id="edge47" class="edge"><title>Node0&#45;&gt;Node32</title>
<path fill="none" stroke="midnightblue" d="M759.762,-308.402C821.139,-300.154 915.011,-285.768 995,-266 998.382,-265.164 1001.88,-264.196 1005.36,-263.165"/>
<polygon fill="midnightblue" stroke="midnightblue" points="1006.49,-266.477 1014.99,-260.146 1004.4,-259.797 1006.49,-266.477"/>
</g>
<!-- Node33 -->
<g id="node34" class="node"><title>Node33</title>
<polygon fill="white" stroke="#bfbfbf" points="1092,-241 1092,-260 1146,-260 1146,-241 1092,-241"/>
<text text-anchor="middle" x="1119" y="-248" font-family="Arial" font-size="10.00">iostream</text>
</g>
<!-- Node0&#45;&gt;Node33 -->
<g id="edge48" class="edge"><title>Node0&#45;&gt;Node33</title>
<path fill="none" stroke="midnightblue" d="M759.798,-312.84C837.728,-307.385 970.975,-294.522 1082,-266 1084.66,-265.315 1087.4,-264.492 1090.11,-263.591"/>
<polygon fill="midnightblue" stroke="midnightblue" points="1091.52,-266.804 1099.71,-260.086 1089.11,-260.229 1091.52,-266.804"/>
</g>
<!-- Node2 -->
<g id="node3" class="node"><title>Node2</title>
<polygon fill="white" stroke="#bfbfbf" points="209,-174 209,-193 261,-193 261,-174 209,-174"/>
<text text-anchor="middle" x="235" y="-181" font-family="Arial" font-size="10.00">memory</text>
</g>
<!-- Node1&#45;&gt;Node2 -->
<g id="edge2" class="edge"><title>Node1&#45;&gt;Node2</title>
<path fill="none" stroke="midnightblue" d="M511.677,-236.696C508.746,-236.105 505.84,-235.536 503,-235 400.031,-215.582 370.903,-227.255 270,-199 267.562,-198.317 265.065,-197.512 262.583,-196.636"/>
<polygon fill="midnightblue" stroke="midnightblue" points="263.824,-193.364 253.235,-193.021 261.3,-199.893 263.824,-193.364"/>
</g>
<!-- Node5&#45;&gt;Node2 -->
<g id="edge12" class="edge"><title>Node5&#45;&gt;Node2</title>
<path fill="none" stroke="midnightblue" d="M188.283,-240.734C196.703,-230.598 210.75,-213.69 221.246,-201.056"/>
<polygon fill="midnightblue" stroke="midnightblue" points="224.135,-203.056 227.833,-193.127 218.75,-198.583 224.135,-203.056"/>
</g>
<!-- Node6 -->
<g id="node7" class="node"><title>Node6</title>
<g id="a_node7"><a xlink:href="frame_8h.html" target="_top" xlink:title="mir/graphics/frame.h">
<polygon fill="white" stroke="black" points="47,-174 47,-193 153,-193 153,-174 47,-174"/>
<text text-anchor="middle" x="100" y="-181" font-family="Arial" font-size="10.00">mir/graphics/frame.h</text>
</a>
</g>
</g>
<!-- Node5&#45;&gt;Node6 -->
<g id="edge6" class="edge"><title>Node5&#45;&gt;Node6</title>
<path fill="none" stroke="midnightblue" d="M170.076,-240.734C156.959,-230.208 134.742,-212.379 118.839,-199.617"/>
<polygon fill="midnightblue" stroke="midnightblue" points="120.741,-196.656 110.751,-193.127 116.36,-202.116 120.741,-196.656"/>
</g>
<!-- Node8 -->
<g id="node9" class="node"><title>Node8</title>
<polygon fill="white" stroke="#bfbfbf" points="0,-56.5 0,-75.5 46,-75.5 46,-56.5 0,-56.5"/>
<text text-anchor="middle" x="23" y="-63.5" font-family="Arial" font-size="10.00">chrono</text>
</g>
<!-- Node5&#45;&gt;Node8 -->
<g id="edge14" class="edge"><title>Node5&#45;&gt;Node8</title>
<path fill="none" stroke="midnightblue" d="M125.24,-244.027C94.7369,-237.994 58.9869,-225.369 38,-199 11.8691,-166.168 15.3035,-113.334 19.4782,-85.5096"/>
<polygon fill="midnightblue" stroke="midnightblue" points="22.9457,-85.9961 21.1705,-75.551 16.0446,-84.8233 22.9457,-85.9961"/>
</g>
<!-- Node12 -->
<g id="node13" class="node"><title>Node12</title>
<polygon fill="white" stroke="#bfbfbf" points="408.5,-112.5 408.5,-131.5 467.5,-131.5 467.5,-112.5 408.5,-112.5"/>
<text text-anchor="middle" x="438" y="-119.5" font-family="Arial" font-size="10.00">functional</text>
</g>
<!-- Node5&#45;&gt;Node12 -->
<g id="edge13" class="edge"><title>Node5&#45;&gt;Node12</title>
<path fill="none" stroke="midnightblue" d="M180.21,-240.893C179.196,-224.213 179.577,-187.425 200,-168 262.836,-108.234 307.717,-147.144 398.151,-131.914"/>
<polygon fill="midnightblue" stroke="midnightblue" points="399.038,-135.309 408.222,-130.026 397.748,-128.429 399.038,-135.309"/>
</g>
<!-- Node7 -->
<g id="node8" class="node"><title>Node7</title>
<g id="a_node8"><a xlink:href="posix__timestamp_8h.html" target="_top" xlink:title="mir/time/posix_timestamp.h">
<polygon fill="white" stroke="black" points="47.5,-112.5 47.5,-131.5 184.5,-131.5 184.5,-112.5 47.5,-112.5"/>
<text text-anchor="middle" x="116" y="-119.5" font-family="Arial" font-size="10.00">mir/time/posix_timestamp.h</text>
</a>
</g>
</g>
<!-- Node6&#45;&gt;Node7 -->
<g id="edge7" class="edge"><title>Node6&#45;&gt;Node7</title>
<path fill="none" stroke="midnightblue" d="M102.292,-173.975C104.574,-165.492 108.147,-152.204 111.073,-141.322"/>
<polygon fill="midnightblue" stroke="midnightblue" points="114.495,-142.075 113.712,-131.509 107.735,-140.257 114.495,-142.075"/>
</g>
<!-- Node11 -->
<g id="node12" class="node"><title>Node11</title>
<polygon fill="white" stroke="#bfbfbf" points="628,-0.5 628,-19.5 674,-19.5 674,-0.5 628,-0.5"/>
<text text-anchor="middle" x="651" y="-7.5" font-family="Arial" font-size="10.00">cstdint</text>
</g>
<!-- Node6&#45;&gt;Node11 -->
<g id="edge11" class="edge"><title>Node6&#45;&gt;Node11</title>
<path fill="none" stroke="midnightblue" d="M116.117,-173.873C143.569,-159.454 201.442,-130.247 253,-112 384.998,-65.2846 548.738,-30.7978 617.807,-17.2751"/>
<polygon fill="midnightblue" stroke="midnightblue" points="618.529,-20.7005 627.679,-15.3595 617.195,-13.8287 618.529,-20.7005"/>
</g>
<!-- Node7&#45;&gt;Node8 -->
<g id="edge8" class="edge"><title>Node7&#45;&gt;Node8</title>
<path fill="none" stroke="midnightblue" d="M101.058,-112.324C86.4148,-103.822 63.8663,-90.7288 46.7623,-80.7975"/>
<polygon fill="midnightblue" stroke="midnightblue" points="48.3104,-77.6491 37.905,-75.6545 44.7954,-83.7027 48.3104,-77.6491"/>
</g>
<!-- Node9 -->
<g id="node10" class="node"><title>Node9</title>
<polygon fill="white" stroke="#bfbfbf" points="70.5,-56.5 70.5,-75.5 111.5,-75.5 111.5,-56.5 70.5,-56.5"/>
<text text-anchor="middle" x="91" y="-63.5" font-family="Arial" font-size="10.00">ctime</text>
</g>
<!-- Node7&#45;&gt;Node9 -->
<g id="edge9" class="edge"><title>Node7&#45;&gt;Node9</title>
<path fill="none" stroke="midnightblue" d="M111.872,-112.083C108.486,-104.77 103.584,-94.1814 99.3812,-85.1034"/>
<polygon fill="midnightblue" stroke="midnightblue" points="102.429,-83.3553 95.0514,-75.7511 96.0766,-86.2962 102.429,-83.3553"/>
</g>
<!-- Node10 -->
<g id="node11" class="node"><title>Node10</title>
<polygon fill="white" stroke="#bfbfbf" points="129.5,-56.5 129.5,-75.5 188.5,-75.5 188.5,-56.5 129.5,-56.5"/>
<text text-anchor="middle" x="159" y="-63.5" font-family="Arial" font-size="10.00">stdexcept</text>
</g>
<!-- Node7&#45;&gt;Node10 -->
<g id="edge10" class="edge"><title>Node7&#45;&gt;Node10</title>
<path fill="none" stroke="midnightblue" d="M123.101,-112.083C129.237,-104.377 138.27,-93.0333 145.739,-83.6531"/>
<polygon fill="midnightblue" stroke="midnightblue" points="148.54,-85.7542 152.032,-75.7511 143.064,-81.3936 148.54,-85.7542"/>
</g>
<!-- Node13&#45;&gt;Node2 -->
<g id="edge42" class="edge"><title>Node13&#45;&gt;Node2</title>
<path fill="none" stroke="midnightblue" d="M641.851,-236.616C638.864,-236.031 635.899,-235.486 633,-235 473.107,-208.193 427.252,-238.451 270,-199 267.488,-198.37 264.921,-197.59 262.375,-196.723"/>
<polygon fill="midnightblue" stroke="midnightblue" points="263.412,-193.372 252.822,-193.067 260.91,-199.91 263.412,-193.372"/>
</g>
<!-- Node13&#45;&gt;Node12 -->
<g id="edge40" class="edge"><title>Node13&#45;&gt;Node12</title>
<path fill="none" stroke="midnightblue" d="M641.797,-236.9C638.824,-236.242 635.876,-235.604 633,-235 589.448,-225.851 464.5,-233.18 436,-199 422.826,-183.2 426.434,-158.468 431.274,-141.537"/>
<polygon fill="midnightblue" stroke="midnightblue" points="434.705,-142.301 434.467,-131.709 428.048,-140.138 434.705,-142.301"/>
</g>
<!-- Node14 -->
<g id="node15" class="node"><title>Node14</title>
<g id="a_node15"><a xlink:href="int__wrapper_8h.html" target="_top" xlink:title="mir/int_wrapper.h">
<polygon fill="white" stroke="black" points="533,-174 533,-193 623,-193 623,-174 533,-174"/>
<text text-anchor="middle" x="578" y="-181" font-family="Arial" font-size="10.00">mir/int_wrapper.h</text>
</a>
</g>
</g>
<!-- Node13&#45;&gt;Node14 -->
<g id="edge16" class="edge"><title>Node13&#45;&gt;Node14</title>
<path fill="none" stroke="midnightblue" d="M668.83,-235.396C649.017,-224.294 621.582,-208.921 602.061,-197.983"/>
<polygon fill="midnightblue" stroke="midnightblue" points="603.616,-194.842 593.182,-193.007 600.195,-200.949 603.616,-194.842"/>
</g>
<!-- Node16 -->
<g id="node17" class="node"><title>Node16</title>
<g id="a_node17"><a xlink:href="size_8h.html" target="_top" xlink:title="mir/geometry/size.h">
<polygon fill="white" stroke="black" points="865.5,-112.5 865.5,-131.5 968.5,-131.5 968.5,-112.5 865.5,-112.5"/>
<text text-anchor="middle" x="917" y="-119.5" font-family="Arial" font-size="10.00">mir/geometry/size.h</text>
</a>
</g>
</g>
<!-- Node13&#45;&gt;Node16 -->
<g id="edge19" class="edge"><title>Node13&#45;&gt;Node16</title>
<path fill="none" stroke="midnightblue" d="M723.665,-235.349C743.748,-225.568 770.752,-212.021 794,-199 830.315,-178.661 871.189,-152.785 895.482,-137.077"/>
<polygon fill="midnightblue" stroke="midnightblue" points="897.455,-139.969 903.936,-131.588 893.642,-134.098 897.455,-139.969"/>
</g>
<!-- Node18 -->
<g id="node19" class="node"><title>Node18</title>
<g id="a_node19"><a xlink:href="rectangle_8h.html" target="_top" xlink:title="mir/geometry/rectangle.h">
<polygon fill="white" stroke="black" points="879.5,-174 879.5,-193 1004.5,-193 1004.5,-174 879.5,-174"/>
<text text-anchor="middle" x="942" y="-181" font-family="Arial" font-size="10.00">mir/geometry/rectangle.h</text>
</a>
</g>
</g>
<!-- Node13&#45;&gt;Node18 -->
<g id="edge24" class="edge"><title>Node13&#45;&gt;Node18</title>
<path fill="none" stroke="midnightblue" d="M746.291,-235.795C791.944,-223.829 857.354,-206.686 899.756,-195.572"/>
<polygon fill="midnightblue" stroke="midnightblue" points="900.702,-198.942 909.488,-193.021 898.928,-192.171 900.702,-198.942"/>
</g>
<!-- Node19 -->
<g id="node20" class="node"><title>Node19</title>
<g id="a_node20"><a xlink:href="point_8h.html" target="_top" xlink:title="mir/geometry/point.h">
<polygon fill="white" stroke="black" points="741,-112.5 741,-131.5 847,-131.5 847,-112.5 741,-112.5"/>
<text text-anchor="middle" x="794" y="-119.5" font-family="Arial" font-size="10.00">mir/geometry/point.h</text>
</a>
</g>
</g>
<!-- Node13&#45;&gt;Node19 -->
<g id="edge30" class="edge"><title>Node13&#45;&gt;Node19</title>
<path fill="none" stroke="midnightblue" d="M726.092,-235.461C741.997,-227.008 760.262,-214.798 772,-199 784.513,-182.158 789.926,-158.356 792.257,-141.897"/>
<polygon fill="midnightblue" stroke="midnightblue" points="795.747,-142.188 793.428,-131.851 788.794,-141.378 795.747,-142.188"/>
</g>
<!-- Node20 -->
<g id="node21" class="node"><title>Node20</title>
<g id="a_node21"><a xlink:href="gamma__curves_8h.html" target="_top" xlink:title="mir/graphics/gamma\l_curves.h">
<polygon fill="white" stroke="black" points="641.5,-168.5 641.5,-198.5 746.5,-198.5 746.5,-168.5 641.5,-168.5"/>
<text text-anchor="start" x="649.5" y="-186.5" font-family="Arial" font-size="10.00">mir/graphics/gamma</text>
<text text-anchor="middle" x="694" y="-175.5" font-family="Arial" font-size="10.00">_curves.h</text>
</a>
</g>
</g>
<!-- Node13&#45;&gt;Node20 -->
<g id="edge31" class="edge"><title>Node13&#45;&gt;Node20</title>
<path fill="none" stroke="midnightblue" d="M694,-235.396C694,-227.645 694,-217.812 694,-208.86"/>
<polygon fill="midnightblue" stroke="midnightblue" points="697.5,-208.576 694,-198.577 690.5,-208.577 697.5,-208.576"/>
</g>
<!-- Node21 -->
<g id="node22" class="node"><title>Node21</title>
<polygon fill="white" stroke="#bfbfbf" points="679,-112.5 679,-131.5 723,-131.5 723,-112.5 679,-112.5"/>
<text text-anchor="middle" x="701" y="-119.5" font-family="Arial" font-size="10.00">vector</text>
</g>
<!-- Node13&#45;&gt;Node21 -->
<g id="edge41" class="edge"><title>Node13&#45;&gt;Node21</title>
<path fill="none" stroke="midnightblue" d="M720.142,-235.371C733.205,-226.757 747.744,-214.427 755,-199 760.864,-186.532 760.844,-180.477 755,-168 748.955,-155.094 737.188,-144.599 726.177,-137"/>
<polygon fill="midnightblue" stroke="midnightblue" points="727.943,-133.975 717.633,-131.536 724.172,-139.872 727.943,-133.975"/>
</g>
<!-- Node22 -->
<g id="node23" class="node"><title>Node22</title>
<g id="a_node23"><a xlink:href="optional__value_8h.html" target="_top" xlink:title="mir/optional_value.h">
<polygon fill="white" stroke="black" points="1023,-174 1023,-193 1127,-193 1127,-174 1023,-174"/>
<text text-anchor="middle" x="1075" y="-181" font-family="Arial" font-size="10.00">mir/optional_value.h</text>
</a>
</g>
</g>
<!-- Node13&#45;&gt;Node22 -->
<g id="edge34" class="edge"><title>Node13&#45;&gt;Node22</title>
<path fill="none" stroke="midnightblue" d="M746.174,-236.755C749.154,-236.134 752.112,-235.544 755,-235 868.78,-213.589 899.181,-220.205 1013,-199 1018.85,-197.911 1024.98,-196.638 1031.01,-195.308"/>
<polygon fill="midnightblue" stroke="midnightblue" points="1032.03,-198.666 1041.01,-193.038 1030.48,-191.84 1032.03,-198.666"/>
</g>
<!-- Node25 -->
<g id="node26" class="node"><title>Node25</title>
<g id="a_node26"><a xlink:href="common_8h.html" target="_top" xlink:title="mir_toolkit/common.h">
<polygon fill="white" stroke="black" points="279,-174 279,-193 389,-193 389,-174 279,-174"/>
<text text-anchor="middle" x="334" y="-181" font-family="Arial" font-size="10.00">mir_toolkit/common.h</text>
</a>
</g>
</g>
<!-- Node13&#45;&gt;Node25 -->
<g id="edge37" class="edge"><title>Node13&#45;&gt;Node25</title>
<path fill="none" stroke="midnightblue" d="M641.815,-236.812C638.838,-236.177 635.884,-235.568 633,-235 531.48,-215.021 504.773,-217.645 403,-199 396.447,-197.8 389.562,-196.454 382.783,-195.08"/>
<polygon fill="midnightblue" stroke="midnightblue" points="383.476,-191.649 372.976,-193.059 382.063,-198.505 383.476,-191.649"/>
</g>
<!-- Node27 -->
<g id="node28" class="node"><title>Node27</title>
<polygon fill="white" stroke="#bfbfbf" points="445,-174 445,-193 515,-193 515,-174 445,-174"/>
<text text-anchor="middle" x="480" y="-181" font-family="Arial" font-size="10.00">glm/glm.hpp</text>
</g>
<!-- Node13&#45;&gt;Node27 -->
<g id="edge39" class="edge"><title>Node13&#45;&gt;Node27</title>
<path fill="none" stroke="midnightblue" d="M645.153,-235.405C611.113,-225.482 564.693,-211.746 524,-199 521.1,-198.092 518.098,-197.136 515.087,-196.166"/>
<polygon fill="midnightblue" stroke="midnightblue" points="516.144,-192.829 505.552,-193.062 513.978,-199.486 516.144,-192.829"/>
</g>
<!-- Node14&#45;&gt;Node12 -->
<g id="edge18" class="edge"><title>Node14&#45;&gt;Node12</title>
<path fill="none" stroke="midnightblue" d="M557.941,-173.975C534.238,-163.901 494.594,-147.053 467.417,-135.502"/>
<polygon fill="midnightblue" stroke="midnightblue" points="468.594,-132.199 458.021,-131.509 465.856,-138.642 468.594,-132.199"/>
</g>
<!-- Node15 -->
<g id="node16" class="node"><title>Node15</title>
<polygon fill="white" stroke="#bfbfbf" points="800,-0.5 800,-19.5 844,-19.5 844,-0.5 800,-0.5"/>
<text text-anchor="middle" x="822" y="-7.5" font-family="Arial" font-size="10.00">iosfwd</text>
</g>
<!-- Node14&#45;&gt;Node15 -->
<g id="edge17" class="edge"><title>Node14&#45;&gt;Node15</title>
<path fill="none" stroke="midnightblue" d="M587.729,-173.892C612.144,-152.508 678.398,-95.8249 739,-56 756.978,-44.1857 778.337,-32.6578 794.885,-24.2278"/>
<polygon fill="midnightblue" stroke="midnightblue" points="796.646,-27.2601 804.011,-19.6435 793.504,-21.005 796.646,-27.2601"/>
</g>
<!-- Node16&#45;&gt;Node15 -->
<g id="edge23" class="edge"><title>Node16&#45;&gt;Node15</title>
<path fill="none" stroke="midnightblue" d="M916.445,-112.083C915.191,-98.6235 911.124,-72.9001 898,-56 886.551,-41.2569 868.805,-30.3596 853.34,-22.9844"/>
<polygon fill="midnightblue" stroke="midnightblue" points="854.64,-19.7317 844.082,-18.8445 851.782,-26.1219 854.64,-19.7317"/>
</g>
<!-- Node17 -->
<g id="node18" class="node"><title>Node17</title>
<g id="a_node18"><a xlink:href="dimensions_8h.html" target="_top" xlink:title="mir/geometry/dimensions.h">
<polygon fill="white" stroke="black" points="755,-56.5 755,-75.5 889,-75.5 889,-56.5 755,-56.5"/>
<text text-anchor="middle" x="822" y="-63.5" font-family="Arial" font-size="10.00">mir/geometry/dimensions.h</text>
</a>
</g>
</g>
<!-- Node16&#45;&gt;Node17 -->
<g id="edge20" class="edge"><title>Node16&#45;&gt;Node17</title>
<path fill="none" stroke="midnightblue" d="M901.737,-112.324C886.779,-103.822 863.745,-90.7288 846.273,-80.7975"/>
<polygon fill="midnightblue" stroke="midnightblue" points="847.649,-77.5534 837.226,-75.6545 844.19,-83.639 847.649,-77.5534"/>
</g>
<!-- Node17&#45;&gt;Node11 -->
<g id="edge21" class="edge"><title>Node17&#45;&gt;Node11</title>
<path fill="none" stroke="midnightblue" d="M794.905,-56.4435C764.822,-46.9439 716.263,-31.6095 683.991,-21.4183"/>
<polygon fill="midnightblue" stroke="midnightblue" points="684.72,-17.978 674.13,-18.3042 682.612,-24.6531 684.72,-17.978"/>
</g>
<!-- Node17&#45;&gt;Node15 -->
<g id="edge22" class="edge"><title>Node17&#45;&gt;Node15</title>
<path fill="none" stroke="midnightblue" d="M822,-56.083C822,-49.0059 822,-38.8611 822,-29.9865"/>
<polygon fill="midnightblue" stroke="midnightblue" points="825.5,-29.751 822,-19.7511 818.5,-29.7511 825.5,-29.751"/>
</g>
<!-- Node18&#45;&gt;Node15 -->
<g id="edge29" class="edge"><title>Node18&#45;&gt;Node15</title>
<path fill="none" stroke="midnightblue" d="M951.543,-173.961C964.985,-160.844 986.816,-134.851 977,-112 955.18,-61.2062 892.635,-33.0576 853.99,-20.0646"/>
<polygon fill="midnightblue" stroke="midnightblue" points="854.84,-16.6616 844.249,-16.9391 852.701,-23.3269 854.84,-16.6616"/>
</g>
<!-- Node18&#45;&gt;Node16 -->
<g id="edge28" class="edge"><title>Node18&#45;&gt;Node16</title>
<path fill="none" stroke="midnightblue" d="M938.418,-173.975C934.817,-165.404 929.154,-151.927 924.556,-140.983"/>
<polygon fill="midnightblue" stroke="midnightblue" points="927.676,-139.373 920.575,-131.509 921.222,-142.084 927.676,-139.373"/>
</g>
<!-- Node18&#45;&gt;Node19 -->
<g id="edge25" class="edge"><title>Node18&#45;&gt;Node19</title>
<path fill="none" stroke="midnightblue" d="M920.795,-173.975C895.628,-163.857 853.46,-146.905 824.721,-135.351"/>
<polygon fill="midnightblue" stroke="midnightblue" points="825.749,-131.992 815.165,-131.509 823.138,-138.487 825.749,-131.992"/>
</g>
<!-- Node19&#45;&gt;Node15 -->
<g id="edge27" class="edge"><title>Node19&#45;&gt;Node15</title>
<path fill="none" stroke="midnightblue" d="M779.595,-112.413C761.357,-100.386 733.703,-77.5712 746,-56 755.585,-39.1847 774.195,-28.0113 790.6,-21.0042"/>
<polygon fill="midnightblue" stroke="midnightblue" points="791.888,-24.2588 799.919,-17.3489 789.331,-17.7422 791.888,-24.2588"/>
</g>
<!-- Node19&#45;&gt;Node17 -->
<g id="edge26" class="edge"><title>Node19&#45;&gt;Node17</title>
<path fill="none" stroke="midnightblue" d="M798.624,-112.083C802.456,-104.691 808.024,-93.9533 812.765,-84.8111"/>
<polygon fill="midnightblue" stroke="midnightblue" points="815.966,-86.2398 817.462,-75.7511 809.752,-83.0175 815.966,-86.2398"/>
</g>
<!-- Node20&#45;&gt;Node11 -->
<g id="edge32" class="edge"><title>Node20&#45;&gt;Node11</title>
<path fill="none" stroke="midnightblue" d="M685.924,-168.361C680.62,-158.473 673.955,-144.799 670,-132 659.156,-96.9065 654.295,-54.0824 652.281,-29.9375"/>
<polygon fill="midnightblue" stroke="midnightblue" points="655.751,-29.4083 651.507,-19.7007 648.771,-29.9362 655.751,-29.4083"/>
</g>
<!-- Node20&#45;&gt;Node21 -->
<g id="edge33" class="edge"><title>Node20&#45;&gt;Node21</title>
<path fill="none" stroke="midnightblue" d="M695.659,-168.399C696.592,-160.466 697.77,-150.458 698.781,-141.858"/>
<polygon fill="midnightblue" stroke="midnightblue" points="702.289,-141.998 699.981,-131.658 695.337,-141.18 702.289,-141.998"/>
</g>
<!-- Node23 -->
<g id="node24" class="node"><title>Node23</title>
<g id="a_node24"><a xlink:href="fatal_8h.html" target="_top" xlink:title="mir/fatal.h">
<polygon fill="white" stroke="black" points="1038,-112.5 1038,-131.5 1098,-131.5 1098,-112.5 1038,-112.5"/>
<text text-anchor="middle" x="1068" y="-119.5" font-family="Arial" font-size="10.00">mir/fatal.h</text>
</a>
</g>
</g>
<!-- Node22&#45;&gt;Node23 -->
<g id="edge35" class="edge"><title>Node22&#45;&gt;Node23</title>
<path fill="none" stroke="midnightblue" d="M1074,-173.975C1073.01,-165.58 1071.47,-152.481 1070.2,-141.663"/>
<polygon fill="midnightblue" stroke="midnightblue" points="1073.65,-141.032 1069,-131.509 1066.69,-141.85 1073.65,-141.032"/>
</g>
<!-- Node24 -->
<g id="node25" class="node"><title>Node24</title>
<polygon fill="white" stroke="#bfbfbf" points="1116,-112.5 1116,-131.5 1156,-131.5 1156,-112.5 1116,-112.5"/>
<text text-anchor="middle" x="1136" y="-119.5" font-family="Arial" font-size="10.00">utility</text>
</g>
<!-- Node22&#45;&gt;Node24 -->
<g id="edge36" class="edge"><title>Node22&#45;&gt;Node24</title>
<path fill="none" stroke="midnightblue" d="M1083.74,-173.975C1093.16,-164.785 1108.36,-149.956 1119.95,-138.656"/>
<polygon fill="midnightblue" stroke="midnightblue" points="1122.56,-140.997 1127.28,-131.509 1117.67,-135.986 1122.56,-140.997"/>
</g>
<!-- Node26 -->
<g id="node27" class="node"><title>Node26</title>
<g id="a_node27"><a xlink:href="deprecations_8h.html" target="_top" xlink:title="mir_toolkit/deprecations.h">
<polygon fill="white" stroke="black" points="262,-112.5 262,-131.5 390,-131.5 390,-112.5 262,-112.5"/>
<text text-anchor="middle" x="326" y="-119.5" font-family="Arial" font-size="10.00">mir_toolkit/deprecations.h</text>
</a>
</g>
</g>
<!-- Node25&#45;&gt;Node26 -->
<g id="edge38" class="edge"><title>Node25&#45;&gt;Node26</title>
<path fill="none" stroke="midnightblue" d="M332.854,-173.975C331.725,-165.58 329.964,-152.481 328.509,-141.663"/>
<polygon fill="midnightblue" stroke="midnightblue" points="331.945,-140.953 327.144,-131.509 325.008,-141.886 331.945,-140.953"/>
</g>
<!-- Node30 -->
<g id="node31" class="node"><title>Node30</title>
<polygon fill="white" stroke="#bfbfbf" points="1145.5,-174 1145.5,-193 1222.5,-193 1222.5,-174 1145.5,-174"/>
<text text-anchor="middle" x="1184" y="-181" font-family="Arial" font-size="10.00">boost/any.hpp</text>
</g>
<!-- Node29&#45;&gt;Node30 -->
<g id="edge45" class="edge"><title>Node29&#45;&gt;Node30</title>
<path fill="none" stroke="midnightblue" d="M969.781,-240.972C1018.58,-228.971 1104.88,-207.606 1136,-199 1139.57,-198.014 1143.27,-196.956 1146.97,-195.876"/>
<polygon fill="midnightblue" stroke="midnightblue" points="1148.06,-199.204 1156.65,-193.005 1146.07,-192.493 1148.06,-199.204"/>
</g>
<!-- Node31 -->
<g id="node32" class="node"><title>Node31</title>
<polygon fill="white" stroke="#bfbfbf" points="1240.5,-174 1240.5,-193 1281.5,-193 1281.5,-174 1240.5,-174"/>
<text text-anchor="middle" x="1261" y="-181" font-family="Arial" font-size="10.00">string</text>
</g>
<!-- Node29&#45;&gt;Node31 -->
<g id="edge46" class="edge"><title>Node29&#45;&gt;Node31</title>
<path fill="none" stroke="midnightblue" d="M968.211,-240.933C976.897,-238.841 986.272,-236.714 995,-235 1099.54,-214.467 1130.45,-231.217 1232,-199 1233.62,-198.485 1235.27,-197.889 1236.91,-197.239"/>
<polygon fill="midnightblue" stroke="midnightblue" points="1238.36,-200.421 1246.02,-193.103 1235.47,-194.046 1238.36,-200.421"/>
</g>
</g>
</svg>
