<?xml version="1.0" encoding="UTF-8" standalone="no"?>
<!DOCTYPE svg PUBLIC "-//W3C//DTD SVG 1.1//EN"
 "http://www.w3.org/Graphics/SVG/1.1/DTD/svg11.dtd">
<!-- Generated by graphviz version 2.43.0 (0)
 -->
<!-- Title: include/miroil/miroil/set_compositor.h Pages: 1 -->
<svg width="138pt" height="95pt"
 viewBox="0.00 0.00 137.50 95.00" xmlns="http://www.w3.org/2000/svg" xmlns:xlink="http://www.w3.org/1999/xlink">
<g id="graph0" class="graph" transform="scale(1 1) rotate(0) translate(4 91)">
<title>include/miroil/miroil/set_compositor.h</title>
<polygon fill="white" stroke="transparent" points="-4,4 -4,-91 133.5,-91 133.5,4 -4,4"/>
<!-- Node1 -->
<g id="node1" class="node">
<title>Node1</title>
<g id="a_node1"><a xlink:title=" ">
<polygon fill="#bfbfbf" stroke="black" points="13,-56.5 13,-86.5 113,-86.5 113,-56.5 13,-56.5"/>
<text text-anchor="start" x="21" y="-74.5" font-family="Arial" font-size="10.00">include/miroil/miroil</text>
<text text-anchor="middle" x="63" y="-63.5" font-family="Arial" font-size="10.00">/set_compositor.h</text>
</a>
</g>
</g>
<!-- Node2 -->
<g id="node2" class="node">
<title>Node2</title>
<g id="a_node2"><a xlink:title=" ">
<polygon fill="white" stroke="#bfbfbf" points="0,-0.5 0,-19.5 52,-19.5 52,-0.5 0,-0.5"/>
<text text-anchor="middle" x="26" y="-7.5" font-family="Arial" font-size="10.00">memory</text>
</a>
</g>
</g>
<!-- Node1&#45;&gt;Node2 -->
<g id="edge1" class="edge">
<title>Node1&#45;&gt;Node2</title>
<path fill="none" stroke="midnightblue" d="M54.23,-56.4C49.02,-48.02 42.37,-37.33 36.83,-28.42"/>
<polygon fill="midnightblue" stroke="midnightblue" points="39.64,-26.3 31.38,-19.66 33.69,-30 39.64,-26.3"/>
</g>
<!-- Node3 -->
<g id="node3" class="node">
<title>Node3</title>
<g id="a_node3"><a xlink:title=" ">
<polygon fill="white" stroke="#bfbfbf" points="70.5,-0.5 70.5,-19.5 129.5,-19.5 129.5,-0.5 70.5,-0.5"/>
<text text-anchor="middle" x="100" y="-7.5" font-family="Arial" font-size="10.00">functional</text>
</a>
</g>
</g>
<!-- Node1&#45;&gt;Node3 -->
<g id="edge2" class="edge">
<title>Node1&#45;&gt;Node3</title>
<path fill="none" stroke="midnightblue" d="M71.77,-56.4C76.98,-48.02 83.63,-37.33 89.17,-28.42"/>
<polygon fill="midnightblue" stroke="midnightblue" points="92.31,-30 94.62,-19.66 86.36,-26.3 92.31,-30"/>
</g>
</g>
</svg>
