<?xml version="1.0" encoding="UTF-8" standalone="no"?>
<!DOCTYPE svg PUBLIC "-//W3C//DTD SVG 1.1//EN"
 "http://www.w3.org/Graphics/SVG/1.1/DTD/svg11.dtd">
<!-- Generated by graphviz version 2.40.1 (20161225.0304)
 -->
<!-- Title: include/miral/miral/set_window_management_policy.h Pages: 1 -->
<svg width="139pt" height="117pt"
 viewBox="0.00 0.00 139.00 117.00" xmlns="http://www.w3.org/2000/svg" xmlns:xlink="http://www.w3.org/1999/xlink">
<g id="graph0" class="graph" transform="scale(1 1) rotate(0) translate(4 113)">
<title>include/miral/miral/set_window_management_policy.h</title>
<polygon fill="#ffffff" stroke="transparent" points="-4,4 -4,-113 135,-113 135,4 -4,4"/>
<!-- Node3 -->
<g id="node1" class="node">
<title>Node3</title>
<polygon fill="#bfbfbf" stroke="#000000" points="0,-67.5 0,-108.5 131,-108.5 131,-67.5 0,-67.5"/>
<text text-anchor="start" x="8" y="-96.5" font-family="Arial" font-size="10.00" fill="#000000">include/miral/miral</text>
<text text-anchor="start" x="8" y="-85.5" font-family="Arial" font-size="10.00" fill="#000000">/set_window_management</text>
<text text-anchor="middle" x="65.5" y="-74.5" font-family="Arial" font-size="10.00" fill="#000000">_policy.h</text>
</g>
<!-- Node4 -->
<g id="node2" class="node">
<title>Node4</title>
<g id="a_node2"><a xlink:href="kiosk__main_8cpp.html" target="_top" xlink:title="examples/miral&#45;kiosk\l/kiosk_main.cpp">
<polygon fill="#ffffff" stroke="#000000" points="11,-.5 11,-30.5 120,-30.5 120,-.5 11,-.5"/>
<text text-anchor="start" x="19" y="-18.5" font-family="Arial" font-size="10.00" fill="#000000">examples/miral&#45;kiosk</text>
<text text-anchor="middle" x="65.5" y="-7.5" font-family="Arial" font-size="10.00" fill="#000000">/kiosk_main.cpp</text>
</a>
</g>
</g>
<!-- Node3&#45;&gt;Node4 -->
<g id="edge1" class="edge">
<title>Node3&#45;&gt;Node4</title>
<path fill="none" stroke="#191970" d="M65.5,-57.3279C65.5,-48.0871 65.5,-38.3508 65.5,-30.5991"/>
<polygon fill="#191970" stroke="#191970" points="62.0001,-57.4183 65.5,-67.4183 69.0001,-57.4184 62.0001,-57.4183"/>
</g>
</g>
</svg>
