<?xml version="1.0" encoding="UTF-8" standalone="no"?>
<!DOCTYPE svg PUBLIC "-//W3C//DTD SVG 1.1//EN"
 "http://www.w3.org/Graphics/SVG/1.1/DTD/svg11.dtd">
<!-- Generated by graphviz version 2.40.1 (20161225.0304)
 -->
<!-- Title: include/miral/miral/set_window_management_policy.h Pages: 1 -->
<svg width="140pt" height="106pt"
 viewBox="0.00 0.00 140.00 106.00" xmlns="http://www.w3.org/2000/svg" xmlns:xlink="http://www.w3.org/1999/xlink">
<g id="graph0" class="graph" transform="scale(1 1) rotate(0) translate(4 102)">
<title>include/miral/miral/set_window_management_policy.h</title>
<polygon fill="#ffffff" stroke="transparent" points="-4,4 -4,-102 136,-102 136,4 -4,4"/>
<!-- Node0 -->
<g id="node1" class="node">
<title>Node0</title>
<polygon fill="#bfbfbf" stroke="#000000" points="1,-56.5 1,-97.5 132,-97.5 132,-56.5 1,-56.5"/>
<text text-anchor="start" x="9" y="-85.5" font-family="Arial" font-size="10.00" fill="#000000">include/miral/miral</text>
<text text-anchor="start" x="9" y="-74.5" font-family="Arial" font-size="10.00" fill="#000000">/set_window_management</text>
<text text-anchor="middle" x="66.5" y="-63.5" font-family="Arial" font-size="10.00" fill="#000000">_policy.h</text>
</g>
<!-- Node1 -->
<g id="node2" class="node">
<title>Node1</title>
<polygon fill="#ffffff" stroke="#bfbfbf" points="0,-.5 0,-19.5 59,-19.5 59,-.5 0,-.5"/>
<text text-anchor="middle" x="29.5" y="-7.5" font-family="Arial" font-size="10.00" fill="#000000">functional</text>
</g>
<!-- Node0&#45;&gt;Node1 -->
<g id="edge1" class="edge">
<title>Node0&#45;&gt;Node1</title>
<path fill="none" stroke="#191970" d="M54.9958,-56.168C50.1252,-47.3484 44.496,-37.155 39.7679,-28.5933"/>
<polygon fill="#191970" stroke="#191970" points="42.7993,-26.8424 34.9012,-19.7805 36.6716,-30.2263 42.7993,-26.8424"/>
</g>
<!-- Node2 -->
<g id="node3" class="node">
<title>Node2</title>
<polygon fill="#ffffff" stroke="#bfbfbf" points="77.5,-.5 77.5,-19.5 129.5,-19.5 129.5,-.5 77.5,-.5"/>
<text text-anchor="middle" x="103.5" y="-7.5" font-family="Arial" font-size="10.00" fill="#000000">memory</text>
</g>
<!-- Node0&#45;&gt;Node2 -->
<g id="edge2" class="edge">
<title>Node0&#45;&gt;Node2</title>
<path fill="none" stroke="#191970" d="M78.0042,-56.168C82.8748,-47.3484 88.504,-37.155 93.2321,-28.5933"/>
<polygon fill="#191970" stroke="#191970" points="96.3284,-30.2263 98.0988,-19.7805 90.2007,-26.8424 96.3284,-30.2263"/>
</g>
</g>
</svg>
