<?xml version="1.0" encoding="UTF-8" standalone="no"?>
<!DOCTYPE svg PUBLIC "-//W3C//DTD SVG 1.1//EN"
 "http://www.w3.org/Graphics/SVG/1.1/DTD/svg11.dtd">
<!-- Generated by graphviz version 2.38.0 (20140413.2041)
 -->
<!-- Title: include/miral/miral/set_window_management_policy.h Pages: 1 -->
<svg width="411pt" height="440pt"
 viewBox="0.00 0.00 411.00 440.00" xmlns="http://www.w3.org/2000/svg" xmlns:xlink="http://www.w3.org/1999/xlink">
<g id="graph0" class="graph" transform="scale(1 1) rotate(0) translate(4 436)">
<title>include/miral/miral/set_window_management_policy.h</title>
<polygon fill="white" stroke="none" points="-4,4 -4,-436 407,-436 407,4 -4,4"/>
<!-- Node3 -->
<g id="node1" class="node"><title>Node3</title>
<polygon fill="#bfbfbf" stroke="black" points="57,-390.5 57,-431.5 188,-431.5 188,-390.5 57,-390.5"/>
<text text-anchor="start" x="65" y="-419.5" font-family="Arial" font-size="10.00">include/miral/miral</text>
<text text-anchor="start" x="65" y="-408.5" font-family="Arial" font-size="10.00">/set_window_management</text>
<text text-anchor="middle" x="122.5" y="-397.5" font-family="Arial" font-size="10.00">_policy.h</text>
</g>
<!-- Node4 -->
<g id="node2" class="node"><title>Node4</title>
<g id="a_node2"><a xlink:href="kiosk__main_8cpp.html" target="_top" xlink:title="examples/miral&#45;kiosk\l/kiosk_main.cpp">
<polygon fill="white" stroke="black" points="0,-318 0,-348 109,-348 109,-318 0,-318"/>
<text text-anchor="start" x="8" y="-336" font-family="Arial" font-size="10.00">examples/miral&#45;kiosk</text>
<text text-anchor="middle" x="54.5" y="-325" font-family="Arial" font-size="10.00">/kiosk_main.cpp</text>
</a>
</g>
</g>
<!-- Node3&#45;&gt;Node4 -->
<g id="edge1" class="edge"><title>Node3&#45;&gt;Node4</title>
<path fill="none" stroke="midnightblue" d="M98.0324,-382.654C87.6073,-371.002 75.8812,-357.897 67.2279,-348.225"/>
<polygon fill="midnightblue" stroke="midnightblue" points="95.712,-385.309 104.988,-390.428 100.929,-380.642 95.712,-385.309"/>
</g>
<!-- Node5 -->
<g id="node3" class="node"><title>Node5</title>
<g id="a_node3"><a xlink:href="async__server__runner_8h.html" target="_top" xlink:title="include/test/mir_test\l_framework/async_server\l_runner.h">
<polygon fill="white" stroke="black" points="127.5,-312.5 127.5,-353.5 255.5,-353.5 255.5,-312.5 127.5,-312.5"/>
<text text-anchor="start" x="135.5" y="-341.5" font-family="Arial" font-size="10.00">include/test/mir_test</text>
<text text-anchor="start" x="135.5" y="-330.5" font-family="Arial" font-size="10.00">_framework/async_server</text>
<text text-anchor="middle" x="191.5" y="-319.5" font-family="Arial" font-size="10.00">_runner.h</text>
</a>
</g>
</g>
<!-- Node3&#45;&gt;Node5 -->
<g id="edge2" class="edge"><title>Node3&#45;&gt;Node5</title>
<path fill="none" stroke="midnightblue" d="M147.09,-382.916C155.908,-373.203 165.67,-362.45 173.791,-353.506"/>
<polygon fill="midnightblue" stroke="midnightblue" points="144.4,-380.672 140.269,-390.428 149.582,-385.377 144.4,-380.672"/>
</g>
<!-- Node6 -->
<g id="node4" class="node"><title>Node6</title>
<g id="a_node4"><a xlink:href="headless__nested__server__runner_8h.html" target="_top" xlink:title="include/test/mir_test\l_framework/headless_nested\l_server_runner.h">
<polygon fill="white" stroke="black" points="41,-234.5 41,-275.5 184,-275.5 184,-234.5 41,-234.5"/>
<text text-anchor="start" x="49" y="-263.5" font-family="Arial" font-size="10.00">include/test/mir_test</text>
<text text-anchor="start" x="49" y="-252.5" font-family="Arial" font-size="10.00">_framework/headless_nested</text>
<text text-anchor="middle" x="112.5" y="-241.5" font-family="Arial" font-size="10.00">_server_runner.h</text>
</a>
</g>
</g>
<!-- Node5&#45;&gt;Node6 -->
<g id="edge3" class="edge"><title>Node5&#45;&gt;Node6</title>
<path fill="none" stroke="midnightblue" d="M163.945,-305.492C153.694,-295.629 142.257,-284.627 132.776,-275.506"/>
<polygon fill="midnightblue" stroke="midnightblue" points="161.522,-308.017 171.156,-312.428 166.375,-302.973 161.522,-308.017"/>
</g>
<!-- Node7 -->
<g id="node5" class="node"><title>Node7</title>
<g id="a_node5"><a xlink:href="headless__test_8h.html" target="_top" xlink:title="include/test/mir_test\l_framework/headless_test.h">
<polygon fill="white" stroke="black" points="202,-240 202,-270 341,-270 341,-240 202,-240"/>
<text text-anchor="start" x="210" y="-258" font-family="Arial" font-size="10.00">include/test/mir_test</text>
<text text-anchor="middle" x="271.5" y="-247" font-family="Arial" font-size="10.00">_framework/headless_test.h</text>
</a>
</g>
</g>
<!-- Node5&#45;&gt;Node7 -->
<g id="edge4" class="edge"><title>Node5&#45;&gt;Node7</title>
<path fill="none" stroke="midnightblue" d="M219.58,-305.324C232.018,-293.508 246.15,-280.083 256.526,-270.225"/>
<polygon fill="midnightblue" stroke="midnightblue" points="216.941,-303.003 212.102,-312.428 221.763,-308.078 216.941,-303.003"/>
</g>
<!-- Node8 -->
<g id="node6" class="node"><title>Node8</title>
<g id="a_node6"><a xlink:href="headless__in__process__server_8h.html" target="_top" xlink:title="include/test/mir_test\l_framework/headless_in\l_process_server.h">
<polygon fill="white" stroke="black" points="139.5,-156.5 139.5,-197.5 261.5,-197.5 261.5,-156.5 139.5,-156.5"/>
<text text-anchor="start" x="147.5" y="-185.5" font-family="Arial" font-size="10.00">include/test/mir_test</text>
<text text-anchor="start" x="147.5" y="-174.5" font-family="Arial" font-size="10.00">_framework/headless_in</text>
<text text-anchor="middle" x="200.5" y="-163.5" font-family="Arial" font-size="10.00">_process_server.h</text>
</a>
</g>
</g>
<!-- Node7&#45;&gt;Node8 -->
<g id="edge5" class="edge"><title>Node7&#45;&gt;Node8</title>
<path fill="none" stroke="midnightblue" d="M251.163,-232.23C240.991,-221.342 228.774,-208.265 218.885,-197.68"/>
<polygon fill="midnightblue" stroke="midnightblue" points="248.761,-234.787 258.145,-239.705 253.876,-230.008 248.761,-234.787"/>
</g>
<!-- Node11 -->
<g id="node9" class="node"><title>Node11</title>
<g id="a_node9"><a xlink:href="interprocess__client__server__test_8h.html" target="_top" xlink:title="include/test/mir_test\l_framework/interprocess\l_client_server_test.h">
<polygon fill="white" stroke="black" points="280,-156.5 280,-197.5 403,-197.5 403,-156.5 280,-156.5"/>
<text text-anchor="start" x="288" y="-185.5" font-family="Arial" font-size="10.00">include/test/mir_test</text>
<text text-anchor="start" x="288" y="-174.5" font-family="Arial" font-size="10.00">_framework/interprocess</text>
<text text-anchor="middle" x="341.5" y="-163.5" font-family="Arial" font-size="10.00">_client_server_test.h</text>
</a>
</g>
</g>
<!-- Node7&#45;&gt;Node11 -->
<g id="edge8" class="edge"><title>Node7&#45;&gt;Node11</title>
<path fill="none" stroke="midnightblue" d="M291.551,-232.23C301.58,-221.342 313.625,-208.265 323.374,-197.68"/>
<polygon fill="midnightblue" stroke="midnightblue" points="288.867,-229.978 284.666,-239.705 294.016,-234.721 288.867,-229.978"/>
</g>
<!-- Node9 -->
<g id="node7" class="node"><title>Node9</title>
<g id="a_node7"><a xlink:href="connected__client__headless__server_8h.html" target="_top" xlink:title="include/test/mir_test\l_framework/connected\l_client_headless_server.h">
<polygon fill="white" stroke="black" points="136,-78.5 136,-119.5 265,-119.5 265,-78.5 136,-78.5"/>
<text text-anchor="start" x="144" y="-107.5" font-family="Arial" font-size="10.00">include/test/mir_test</text>
<text text-anchor="start" x="144" y="-96.5" font-family="Arial" font-size="10.00">_framework/connected</text>
<text text-anchor="middle" x="200.5" y="-85.5" font-family="Arial" font-size="10.00">_client_headless_server.h</text>
</a>
</g>
</g>
<!-- Node8&#45;&gt;Node9 -->
<g id="edge6" class="edge"><title>Node8&#45;&gt;Node9</title>
<path fill="none" stroke="midnightblue" d="M200.5,-146.297C200.5,-137.301 200.5,-127.653 200.5,-119.506"/>
<polygon fill="midnightblue" stroke="midnightblue" points="197,-146.428 200.5,-156.428 204,-146.428 197,-146.428"/>
</g>
<!-- Node10 -->
<g id="node8" class="node"><title>Node10</title>
<g id="a_node8"><a xlink:href="connected__client__with__a__window_8h.html" target="_top" xlink:title="include/test/mir_test\l_framework/connected\l_client_with_a_window.h">
<polygon fill="white" stroke="black" points="139.5,-0.5 139.5,-41.5 261.5,-41.5 261.5,-0.5 139.5,-0.5"/>
<text text-anchor="start" x="147.5" y="-29.5" font-family="Arial" font-size="10.00">include/test/mir_test</text>
<text text-anchor="start" x="147.5" y="-18.5" font-family="Arial" font-size="10.00">_framework/connected</text>
<text text-anchor="middle" x="200.5" y="-7.5" font-family="Arial" font-size="10.00">_client_with_a_window.h</text>
</a>
</g>
</g>
<!-- Node9&#45;&gt;Node10 -->
<g id="edge7" class="edge"><title>Node9&#45;&gt;Node10</title>
<path fill="none" stroke="midnightblue" d="M200.5,-68.2965C200.5,-59.3009 200.5,-49.6532 200.5,-41.5056"/>
<polygon fill="midnightblue" stroke="midnightblue" points="197,-68.4281 200.5,-78.4281 204,-68.4281 197,-68.4281"/>
</g>
</g>
</svg>
