<?xml version="1.0" encoding="UTF-8" standalone="no"?>
<!DOCTYPE svg PUBLIC "-//W3C//DTD SVG 1.1//EN"
 "http://www.w3.org/Graphics/SVG/1.1/DTD/svg11.dtd">
<!-- Generated by graphviz version 2.38.0 (20140413.2041)
 -->
<!-- Title: include/test/mir/test/signal.h Pages: 1 -->
<svg width="124pt" height="106pt"
 viewBox="0.00 0.00 124.00 106.00" xmlns="http://www.w3.org/2000/svg" xmlns:xlink="http://www.w3.org/1999/xlink">
<g id="graph0" class="graph" transform="scale(1 1) rotate(0) translate(4 102)">
<title>include/test/mir/test/signal.h</title>
<polygon fill="white" stroke="none" points="-4,4 -4,-102 120,-102 120,4 -4,4"/>
<!-- Node5 -->
<g id="node1" class="node"><title>Node5</title>
<polygon fill="#bfbfbf" stroke="black" points="6.5,-67.5 6.5,-97.5 109.5,-97.5 109.5,-67.5 6.5,-67.5"/>
<text text-anchor="start" x="14.5" y="-85.5" font-family="Arial" font-size="10.00">include/test/mir/test</text>
<text text-anchor="middle" x="58" y="-74.5" font-family="Arial" font-size="10.00">/signal.h</text>
</g>
<!-- Node6 -->
<g id="node2" class="node"><title>Node6</title>
<g id="a_node2"><a xlink:href="eglspinner_8cpp.html" target="_top" xlink:title="examples/miral&#45;shell\l/spinner/eglspinner.cpp">
<polygon fill="white" stroke="black" points="-7.10543e-15,-0.5 -7.10543e-15,-30.5 116,-30.5 116,-0.5 -7.10543e-15,-0.5"/>
<text text-anchor="start" x="8" y="-18.5" font-family="Arial" font-size="10.00">examples/miral&#45;shell</text>
<text text-anchor="middle" x="58" y="-7.5" font-family="Arial" font-size="10.00">/spinner/eglspinner.cpp</text>
</a>
</g>
</g>
<!-- Node5&#45;&gt;Node6 -->
<g id="edge1" class="edge"><title>Node5&#45;&gt;Node6</title>
<path fill="none" stroke="midnightblue" d="M58,-57.1081C58,-48.1539 58,-38.3227 58,-30.5765"/>
<polygon fill="midnightblue" stroke="midnightblue" points="54.5001,-57.3959 58,-67.396 61.5001,-57.396 54.5001,-57.3959"/>
</g>
</g>
</svg>
