<?xml version="1.0" encoding="UTF-8" standalone="no"?>
<!DOCTYPE svg PUBLIC "-//W3C//DTD SVG 1.1//EN"
 "http://www.w3.org/Graphics/SVG/1.1/DTD/svg11.dtd">
<!-- Generated by graphviz version 2.38.0 (20140413.2041)
 -->
<!-- Title: include/test/mir/test/signal.h Pages: 1 -->
<svg width="332pt" height="95pt"
 viewBox="0.00 0.00 332.00 95.00" xmlns="http://www.w3.org/2000/svg" xmlns:xlink="http://www.w3.org/1999/xlink">
<g id="graph0" class="graph" transform="scale(1 1) rotate(0) translate(4 91)">
<title>include/test/mir/test/signal.h</title>
<polygon fill="white" stroke="none" points="-4,4 -4,-91 328,-91 328,4 -4,4"/>
<!-- Node0 -->
<g id="node1" class="node"><title>Node0</title>
<polygon fill="#bfbfbf" stroke="black" points="143.5,-56.5 143.5,-86.5 246.5,-86.5 246.5,-56.5 143.5,-56.5"/>
<text text-anchor="start" x="151.5" y="-74.5" font-family="Arial" font-size="10.00">include/test/mir/test</text>
<text text-anchor="middle" x="195" y="-63.5" font-family="Arial" font-size="10.00">/signal.h</text>
</g>
<!-- Node1 -->
<g id="node2" class="node"><title>Node1</title>
<polygon fill="white" stroke="#bfbfbf" points="0,-0.5 0,-19.5 86,-19.5 86,-0.5 0,-0.5"/>
<text text-anchor="middle" x="43" y="-7.5" font-family="Arial" font-size="10.00">gmock/gmock.h</text>
</g>
<!-- Node0&#45;&gt;Node1 -->
<g id="edge1" class="edge"><title>Node0&#45;&gt;Node1</title>
<path fill="none" stroke="midnightblue" d="M158.978,-56.3993C133.361,-46.3717 99.2732,-33.028 74.6901,-23.405"/>
<polygon fill="midnightblue" stroke="midnightblue" points="75.7052,-20.0438 65.1173,-19.6578 73.1535,-26.5622 75.7052,-20.0438"/>
</g>
<!-- Node2 -->
<g id="node3" class="node"><title>Node2</title>
<polygon fill="white" stroke="#bfbfbf" points="104.5,-0.5 104.5,-19.5 197.5,-19.5 197.5,-0.5 104.5,-0.5"/>
<text text-anchor="middle" x="151" y="-7.5" font-family="Arial" font-size="10.00">condition_variable</text>
</g>
<!-- Node0&#45;&gt;Node2 -->
<g id="edge2" class="edge"><title>Node0&#45;&gt;Node2</title>
<path fill="none" stroke="midnightblue" d="M184.573,-56.3993C178.245,-47.8424 170.131,-36.8708 163.466,-27.857"/>
<polygon fill="midnightblue" stroke="midnightblue" points="166.162,-25.6171 157.402,-19.6578 160.534,-29.7792 166.162,-25.6171"/>
</g>
<!-- Node3 -->
<g id="node4" class="node"><title>Node3</title>
<polygon fill="white" stroke="#bfbfbf" points="216,-0.5 216,-19.5 262,-19.5 262,-0.5 216,-0.5"/>
<text text-anchor="middle" x="239" y="-7.5" font-family="Arial" font-size="10.00">chrono</text>
</g>
<!-- Node0&#45;&gt;Node3 -->
<g id="edge3" class="edge"><title>Node0&#45;&gt;Node3</title>
<path fill="none" stroke="midnightblue" d="M205.427,-56.3993C211.755,-47.8424 219.869,-36.8708 226.534,-27.857"/>
<polygon fill="midnightblue" stroke="midnightblue" points="229.466,-29.7792 232.598,-19.6578 223.838,-25.6171 229.466,-29.7792"/>
</g>
<!-- Node4 -->
<g id="node5" class="node"><title>Node4</title>
<polygon fill="white" stroke="#bfbfbf" points="280,-0.5 280,-19.5 324,-19.5 324,-0.5 280,-0.5"/>
<text text-anchor="middle" x="302" y="-7.5" font-family="Arial" font-size="10.00">mutex</text>
</g>
<!-- Node0&#45;&gt;Node4 -->
<g id="edge4" class="edge"><title>Node0&#45;&gt;Node4</title>
<path fill="none" stroke="midnightblue" d="M220.358,-56.3993C237.669,-46.7728 260.476,-34.0902 277.584,-24.5772"/>
<polygon fill="midnightblue" stroke="midnightblue" points="279.392,-27.5766 286.431,-19.6578 275.99,-21.4588 279.392,-27.5766"/>
</g>
</g>
</svg>
