<?xml version="1.0" encoding="UTF-8" standalone="no"?>
<!DOCTYPE svg PUBLIC "-//W3C//DTD SVG 1.1//EN"
 "http://www.w3.org/Graphics/SVG/1.1/DTD/svg11.dtd">
<!-- Generated by graphviz version 2.43.0 (0)
 -->
<!-- Title: include/core/mir/geometry/size.h Pages: 1 -->
<svg width="273pt" height="151pt"
 viewBox="0.00 0.00 272.50 151.00" xmlns="http://www.w3.org/2000/svg" xmlns:xlink="http://www.w3.org/1999/xlink">
<g id="graph0" class="graph" transform="scale(1 1) rotate(0) translate(4 147)">
<title>include/core/mir/geometry/size.h</title>
<polygon fill="white" stroke="transparent" points="-4,4 -4,-147 268.5,-147 268.5,4 -4,4"/>
<!-- Node1 -->
<g id="node1" class="node">
<title>Node1</title>
<g id="a_node1"><a xlink:title=" ">
<polygon fill="#bfbfbf" stroke="black" points="33,-112.5 33,-142.5 162,-142.5 162,-112.5 33,-112.5"/>
<text text-anchor="start" x="41" y="-130.5" font-family="Arial" font-size="10.00">include/core/mir/geometry</text>
<text text-anchor="middle" x="97.5" y="-119.5" font-family="Arial" font-size="10.00">/size.h</text>
</a>
</g>
</g>
<!-- Node2 -->
<g id="node2" class="node">
<title>Node2</title>
<g id="a_node2"><a xlink:href="forward_8h.html" target="_top" xlink:title=" ">
<polygon fill="white" stroke="black" points="0,-0.5 0,-19.5 57,-19.5 57,-0.5 0,-0.5"/>
<text text-anchor="middle" x="28.5" y="-7.5" font-family="Arial" font-size="10.00">forward.h</text>
</a>
</g>
</g>
<!-- Node1&#45;&gt;Node2 -->
<g id="edge1" class="edge">
<title>Node1&#45;&gt;Node2</title>
<path fill="none" stroke="midnightblue" d="M81.68,-112.31C71.88,-102.83 59.66,-89.63 51.5,-76 42.85,-61.56 36.77,-43.37 33.04,-29.91"/>
<polygon fill="midnightblue" stroke="midnightblue" points="36.34,-28.7 30.45,-19.9 29.56,-30.45 36.34,-28.7"/>
</g>
<!-- Node3 -->
<g id="node3" class="node">
<title>Node3</title>
<g id="a_node3"><a xlink:href="dimensions_8h.html" target="_top" xlink:title=" ">
<polygon fill="white" stroke="black" points="60.5,-56.5 60.5,-75.5 134.5,-75.5 134.5,-56.5 60.5,-56.5"/>
<text text-anchor="middle" x="97.5" y="-63.5" font-family="Arial" font-size="10.00">dimensions.h</text>
</a>
</g>
</g>
<!-- Node1&#45;&gt;Node3 -->
<g id="edge2" class="edge">
<title>Node1&#45;&gt;Node3</title>
<path fill="none" stroke="midnightblue" d="M97.5,-112.4C97.5,-104.47 97.5,-94.46 97.5,-85.86"/>
<polygon fill="midnightblue" stroke="midnightblue" points="101,-85.66 97.5,-75.66 94,-85.66 101,-85.66"/>
</g>
<!-- Node7 -->
<g id="node7" class="node">
<title>Node7</title>
<g id="a_node7"><a xlink:title=" ">
<polygon fill="white" stroke="#bfbfbf" points="152.5,-56.5 152.5,-75.5 204.5,-75.5 204.5,-56.5 152.5,-56.5"/>
<text text-anchor="middle" x="178.5" y="-63.5" font-family="Arial" font-size="10.00">ostream</text>
</a>
</g>
</g>
<!-- Node1&#45;&gt;Node7 -->
<g id="edge7" class="edge">
<title>Node1&#45;&gt;Node7</title>
<path fill="none" stroke="midnightblue" d="M116.7,-112.4C129.32,-103.13 145.79,-91.03 158.56,-81.65"/>
<polygon fill="midnightblue" stroke="midnightblue" points="160.73,-84.4 166.71,-75.66 156.58,-78.76 160.73,-84.4"/>
</g>
<!-- Node3&#45;&gt;Node2 -->
<g id="edge3" class="edge">
<title>Node3&#45;&gt;Node2</title>
<path fill="none" stroke="midnightblue" d="M86.41,-56.32C76.01,-48.18 60.24,-35.84 47.78,-26.09"/>
<polygon fill="midnightblue" stroke="midnightblue" points="49.82,-23.24 39.79,-19.83 45.51,-28.75 49.82,-23.24"/>
</g>
<!-- Node4 -->
<g id="node4" class="node">
<title>Node4</title>
<g id="a_node4"><a xlink:title=" ">
<polygon fill="white" stroke="#bfbfbf" points="75,-0.5 75,-19.5 120,-19.5 120,-0.5 75,-0.5"/>
<text text-anchor="middle" x="97.5" y="-7.5" font-family="Arial" font-size="10.00">iosfwd</text>
</a>
</g>
</g>
<!-- Node3&#45;&gt;Node4 -->
<g id="edge4" class="edge">
<title>Node3&#45;&gt;Node4</title>
<path fill="none" stroke="midnightblue" d="M97.5,-56.08C97.5,-49.01 97.5,-38.86 97.5,-29.99"/>
<polygon fill="midnightblue" stroke="midnightblue" points="101,-29.75 97.5,-19.75 94,-29.75 101,-29.75"/>
</g>
<!-- Node5 -->
<g id="node5" class="node">
<title>Node5</title>
<g id="a_node5"><a xlink:title=" ">
<polygon fill="white" stroke="#bfbfbf" points="138.5,-0.5 138.5,-19.5 200.5,-19.5 200.5,-0.5 138.5,-0.5"/>
<text text-anchor="middle" x="169.5" y="-7.5" font-family="Arial" font-size="10.00">type_traits</text>
</a>
</g>
</g>
<!-- Node3&#45;&gt;Node5 -->
<g id="edge5" class="edge">
<title>Node3&#45;&gt;Node5</title>
<path fill="none" stroke="midnightblue" d="M109.07,-56.32C119.92,-48.18 136.38,-35.84 149.38,-26.09"/>
<polygon fill="midnightblue" stroke="midnightblue" points="151.82,-28.63 157.72,-19.83 147.62,-23.03 151.82,-28.63"/>
</g>
<!-- Node6 -->
<g id="node6" class="node">
<title>Node6</title>
<g id="a_node6"><a xlink:title=" ">
<polygon fill="white" stroke="#bfbfbf" points="218.5,-0.5 218.5,-19.5 264.5,-19.5 264.5,-0.5 218.5,-0.5"/>
<text text-anchor="middle" x="241.5" y="-7.5" font-family="Arial" font-size="10.00">cstdint</text>
</a>
</g>
</g>
<!-- Node3&#45;&gt;Node6 -->
<g id="edge6" class="edge">
<title>Node3&#45;&gt;Node6</title>
<path fill="none" stroke="midnightblue" d="M120.32,-56.44C144.33,-47.44 182.33,-33.19 209.37,-23.05"/>
<polygon fill="midnightblue" stroke="midnightblue" points="210.66,-26.3 218.79,-19.52 208.2,-19.75 210.66,-26.3"/>
</g>
</g>
</svg>
