<?xml version="1.0" encoding="UTF-8" standalone="no"?>
<!DOCTYPE svg PUBLIC "-//W3C//DTD SVG 1.1//EN"
 "http://www.w3.org/Graphics/SVG/1.1/DTD/svg11.dtd">
<!-- Generated by graphviz version 2.40.1 (20161225.0304)
 -->
<!-- Title: include/core/mir/geometry/size.h Pages: 1 -->
<svg width="876pt" height="575pt"
 viewBox="0.00 0.00 875.50 575.00" xmlns="http://www.w3.org/2000/svg" xmlns:xlink="http://www.w3.org/1999/xlink">
<g id="graph0" class="graph" transform="scale(1 1) rotate(0) translate(4 571)">
<title>include/core/mir/geometry/size.h</title>
<polygon fill="#ffffff" stroke="transparent" points="-4,4 -4,-571 871.5,-571 871.5,4 -4,4"/>
<!-- Node4 -->
<g id="node1" class="node">
<title>Node4</title>
<polygon fill="#bfbfbf" stroke="#000000" points="393.5,-536.5 393.5,-566.5 522.5,-566.5 522.5,-536.5 393.5,-536.5"/>
<text text-anchor="start" x="401.5" y="-554.5" font-family="Arial" font-size="10.00" fill="#000000">include/core/mir/geometry</text>
<text text-anchor="middle" x="458" y="-543.5" font-family="Arial" font-size="10.00" fill="#000000">/size.h</text>
</g>
<!-- Node5 -->
<g id="node2" class="node">
<title>Node5</title>
<g id="a_node2"><a xlink:href="rectangle_8h.html" target="_top" xlink:title="include/core/mir/geometry\l/rectangle.h">
<polygon fill="#ffffff" stroke="#000000" points="249.5,-469.5 249.5,-499.5 378.5,-499.5 378.5,-469.5 249.5,-469.5"/>
<text text-anchor="start" x="257.5" y="-487.5" font-family="Arial" font-size="10.00" fill="#000000">include/core/mir/geometry</text>
<text text-anchor="middle" x="314" y="-476.5" font-family="Arial" font-size="10.00" fill="#000000">/rectangle.h</text>
</a>
</g>
</g>
<!-- Node4&#45;&gt;Node5 -->
<g id="edge1" class="edge">
<title>Node4&#45;&gt;Node5</title>
<path fill="none" stroke="#191970" d="M416.4983,-532.1902C394.3144,-521.8685 367.3919,-509.3421 346.7068,-499.7177"/>
<polygon fill="#191970" stroke="#191970" points="415.1404,-535.4187 425.6836,-536.4639 418.0934,-529.072 415.1404,-535.4187"/>
</g>
<!-- Node22 -->
<g id="node19" class="node">
<title>Node22</title>
<g id="a_node19"><a xlink:href="event__builders_8h.html" target="_top" xlink:title="include/client/mir\l/events/event_builders.h">
<polygon fill="#ffffff" stroke="#000000" points="396.5,-402.5 396.5,-432.5 519.5,-432.5 519.5,-402.5 396.5,-402.5"/>
<text text-anchor="start" x="404.5" y="-420.5" font-family="Arial" font-size="10.00" fill="#000000">include/client/mir</text>
<text text-anchor="middle" x="458" y="-409.5" font-family="Arial" font-size="10.00" fill="#000000">/events/event_builders.h</text>
</a>
</g>
</g>
<!-- Node4&#45;&gt;Node22 -->
<g id="edge33" class="edge">
<title>Node4&#45;&gt;Node22</title>
<path fill="none" stroke="#191970" d="M458,-526.3415C458,-498.8131 458,-455.5714 458,-432.7614"/>
<polygon fill="#191970" stroke="#191970" points="454.5001,-526.3889 458,-536.389 461.5001,-526.389 454.5001,-526.3889"/>
</g>
<!-- Node24 -->
<g id="node21" class="node">
<title>Node24</title>
<g id="a_node21"><a xlink:href="miral_2miral_2window_8h.html" target="_top" xlink:title="include/miral/miral\l/window.h">
<polygon fill="#ffffff" stroke="#000000" points="493.5,-469.5 493.5,-499.5 588.5,-499.5 588.5,-469.5 493.5,-469.5"/>
<text text-anchor="start" x="501.5" y="-487.5" font-family="Arial" font-size="10.00" fill="#000000">include/miral/miral</text>
<text text-anchor="middle" x="541" y="-476.5" font-family="Arial" font-size="10.00" fill="#000000">/window.h</text>
</a>
</g>
</g>
<!-- Node4&#45;&gt;Node24 -->
<g id="edge34" class="edge">
<title>Node4&#45;&gt;Node24</title>
<path fill="none" stroke="#191970" d="M484.9058,-529.7808C497.0988,-519.9383 511.2179,-508.541 522.2405,-499.6432"/>
<polygon fill="#191970" stroke="#191970" points="482.4168,-527.292 476.834,-536.2967 486.8136,-532.7389 482.4168,-527.292"/>
</g>
<!-- Node6 -->
<g id="node3" class="node">
<title>Node6</title>
<g id="a_node3"><a xlink:href="decoration__provider_8h.html" target="_top" xlink:title="examples/example&#45;server\l&#45;lib/decoration_provider.h">
<polygon fill="#ffffff" stroke="#000000" points="46,-134.5 46,-164.5 174,-164.5 174,-134.5 46,-134.5"/>
<text text-anchor="start" x="54" y="-152.5" font-family="Arial" font-size="10.00" fill="#000000">examples/example&#45;server</text>
<text text-anchor="middle" x="110" y="-141.5" font-family="Arial" font-size="10.00" fill="#000000">&#45;lib/decoration_provider.h</text>
</a>
</g>
</g>
<!-- Node5&#45;&gt;Node6 -->
<g id="edge2" class="edge">
<title>Node5&#45;&gt;Node6</title>
<path fill="none" stroke="#191970" d="M239.7096,-466.6756C183.1683,-448.1647 115,-412.9067 115,-350.5 115,-350.5 115,-350.5 115,-283.5 115,-240.4319 112.3888,-189.6315 110.9405,-164.766"/>
<polygon fill="#191970" stroke="#191970" points="238.8009,-470.0588 249.3904,-469.7221 240.9022,-463.3816 238.8009,-470.0588"/>
</g>
<!-- Node9 -->
<g id="node6" class="node">
<title>Node9</title>
<g id="a_node6"><a xlink:href="rectangles_8h.html" target="_top" xlink:title="include/core/mir/geometry\l/rectangles.h">
<polygon fill="#ffffff" stroke="#000000" points="249.5,-402.5 249.5,-432.5 378.5,-432.5 378.5,-402.5 249.5,-402.5"/>
<text text-anchor="start" x="257.5" y="-420.5" font-family="Arial" font-size="10.00" fill="#000000">include/core/mir/geometry</text>
<text text-anchor="middle" x="314" y="-409.5" font-family="Arial" font-size="10.00" fill="#000000">/rectangles.h</text>
</a>
</g>
</g>
<!-- Node5&#45;&gt;Node9 -->
<g id="edge5" class="edge">
<title>Node5&#45;&gt;Node9</title>
<path fill="none" stroke="#191970" d="M314,-459.0249C314,-450.128 314,-440.4287 314,-432.6432"/>
<polygon fill="#191970" stroke="#191970" points="310.5001,-459.2966 314,-469.2967 317.5001,-459.2967 310.5001,-459.2966"/>
</g>
<!-- Node5&#45;&gt;Node22 -->
<g id="edge30" class="edge">
<title>Node5&#45;&gt;Node22</title>
<path fill="none" stroke="#191970" d="M355.5017,-465.1902C377.6856,-454.8685 404.6081,-442.3421 425.2932,-432.7177"/>
<polygon fill="#191970" stroke="#191970" points="353.9066,-462.072 346.3164,-469.4639 356.8596,-468.4187 353.9066,-462.072"/>
</g>
<!-- Node23 -->
<g id="node20" class="node">
<title>Node23</title>
<g id="a_node20"><a xlink:href="output_8h.html" target="_top" xlink:title="include/miral/miral\l/output.h">
<polygon fill="#ffffff" stroke="#000000" points="149.5,-335.5 149.5,-365.5 244.5,-365.5 244.5,-335.5 149.5,-335.5"/>
<text text-anchor="start" x="157.5" y="-353.5" font-family="Arial" font-size="10.00" fill="#000000">include/miral/miral</text>
<text text-anchor="middle" x="197" y="-342.5" font-family="Arial" font-size="10.00" fill="#000000">/output.h</text>
</a>
</g>
</g>
<!-- Node5&#45;&gt;Node23 -->
<g id="edge31" class="edge">
<title>Node5&#45;&gt;Node23</title>
<path fill="none" stroke="#191970" d="M277.1656,-463.9155C264.3178,-455.5048 250.5016,-444.9341 240,-433 221.9677,-412.5079 209.004,-383.1178 202.2754,-365.5084"/>
<polygon fill="#191970" stroke="#191970" points="275.5254,-467.0187 285.853,-469.3835 279.2542,-461.0945 275.5254,-467.0187"/>
</g>
<!-- Node7 -->
<g id="node4" class="node">
<title>Node7</title>
<g id="a_node4"><a xlink:href="decoration__provider_8cpp.html" target="_top" xlink:title="examples/example&#45;server\l&#45;lib/decoration_provider.cpp">
<polygon fill="#ffffff" stroke="#000000" points="0,-67.5 0,-97.5 136,-97.5 136,-67.5 0,-67.5"/>
<text text-anchor="start" x="8" y="-85.5" font-family="Arial" font-size="10.00" fill="#000000">examples/example&#45;server</text>
<text text-anchor="middle" x="68" y="-74.5" font-family="Arial" font-size="10.00" fill="#000000">&#45;lib/decoration_provider.cpp</text>
</a>
</g>
</g>
<!-- Node6&#45;&gt;Node7 -->
<g id="edge3" class="edge">
<title>Node6&#45;&gt;Node7</title>
<path fill="none" stroke="#191970" d="M95.1267,-125.7735C89.2604,-116.4154 82.695,-105.9421 77.4927,-97.6432"/>
<polygon fill="#191970" stroke="#191970" points="92.1926,-127.6828 100.4695,-134.2967 98.1237,-123.9648 92.1926,-127.6828"/>
</g>
<!-- Node8 -->
<g id="node5" class="node">
<title>Node8</title>
<g id="a_node5"><a xlink:href="floating__window__manager_8cpp.html" target="_top" xlink:title="examples/example&#45;server\l&#45;lib/floating_window_manager.cpp">
<polygon fill="#ffffff" stroke="#000000" points="184,-.5 184,-30.5 346,-30.5 346,-.5 184,-.5"/>
<text text-anchor="start" x="192" y="-18.5" font-family="Arial" font-size="10.00" fill="#000000">examples/example&#45;server</text>
<text text-anchor="middle" x="265" y="-7.5" font-family="Arial" font-size="10.00" fill="#000000">&#45;lib/floating_window_manager.cpp</text>
</a>
</g>
</g>
<!-- Node6&#45;&gt;Node8 -->
<g id="edge4" class="edge">
<title>Node6&#45;&gt;Node8</title>
<path fill="none" stroke="#191970" d="M129.4275,-126.287C144.4961,-108.9708 166.3906,-85.2555 188,-67 204.0938,-53.404 223.8796,-40.2371 239.3645,-30.6203"/>
<polygon fill="#191970" stroke="#191970" points="126.4722,-124.356 122.6097,-134.2217 131.7815,-128.9179 126.4722,-124.356"/>
</g>
<!-- Node10 -->
<g id="node7" class="node">
<title>Node10</title>
<g id="a_node7"><a xlink:href="window__info_8h.html" target="_top" xlink:title="include/miral/miral\l/window_info.h">
<polygon fill="#ffffff" stroke="#000000" points="362.5,-268.5 362.5,-298.5 457.5,-298.5 457.5,-268.5 362.5,-268.5"/>
<text text-anchor="start" x="370.5" y="-286.5" font-family="Arial" font-size="10.00" fill="#000000">include/miral/miral</text>
<text text-anchor="middle" x="410" y="-275.5" font-family="Arial" font-size="10.00" fill="#000000">/window_info.h</text>
</a>
</g>
</g>
<!-- Node9&#45;&gt;Node10 -->
<g id="edge6" class="edge">
<title>Node9&#45;&gt;Node10</title>
<path fill="none" stroke="#191970" d="M355.4598,-397.2003C368.2256,-389.1054 381.2156,-378.6617 390,-366 404.1976,-345.5359 408.366,-316.1368 409.5596,-298.518"/>
<polygon fill="#191970" stroke="#191970" points="353.5009,-394.2936 346.7122,-402.4277 357.0917,-400.3024 353.5009,-394.2936"/>
</g>
<!-- Node20 -->
<g id="node17" class="node">
<title>Node20</title>
<g id="a_node17"><a xlink:href="window__management__policy_8h.html" target="_top" xlink:title="include/miral/miral\l/window_management_policy.h">
<polygon fill="#ffffff" stroke="#000000" points="492,-201.5 492,-231.5 644,-231.5 644,-201.5 492,-201.5"/>
<text text-anchor="start" x="500" y="-219.5" font-family="Arial" font-size="10.00" fill="#000000">include/miral/miral</text>
<text text-anchor="middle" x="568" y="-208.5" font-family="Arial" font-size="10.00" fill="#000000">/window_management_policy.h</text>
</a>
</g>
</g>
<!-- Node9&#45;&gt;Node20 -->
<g id="edge25" class="edge">
<title>Node9&#45;&gt;Node20</title>
<path fill="none" stroke="#191970" d="M357.0246,-397.8364C374.4207,-389.0872 394.2948,-378.0401 411,-366 469.6245,-323.7472 528.6248,-260.7798 554.4609,-231.937"/>
<polygon fill="#191970" stroke="#191970" points="355.0759,-394.8945 347.6509,-402.4523 358.1684,-401.1744 355.0759,-394.8945"/>
</g>
<!-- Node21 -->
<g id="node18" class="node">
<title>Node21</title>
<g id="a_node18"><a xlink:href="window__specification_8h.html" target="_top" xlink:title="include/miral/miral\l/window_specification.h">
<polygon fill="#ffffff" stroke="#000000" points="262.5,-335.5 262.5,-365.5 381.5,-365.5 381.5,-335.5 262.5,-335.5"/>
<text text-anchor="start" x="270.5" y="-353.5" font-family="Arial" font-size="10.00" fill="#000000">include/miral/miral</text>
<text text-anchor="middle" x="322" y="-342.5" font-family="Arial" font-size="10.00" fill="#000000">/window_specification.h</text>
</a>
</g>
</g>
<!-- Node9&#45;&gt;Node21 -->
<g id="edge28" class="edge">
<title>Node9&#45;&gt;Node21</title>
<path fill="none" stroke="#191970" d="M317.0068,-392.3179C318.0786,-383.3414 319.252,-373.5143 320.1919,-365.6432"/>
<polygon fill="#191970" stroke="#191970" points="313.5257,-391.9522 315.8153,-402.2967 320.4763,-392.7822 313.5257,-391.9522"/>
</g>
<!-- Node10&#45;&gt;Node8 -->
<g id="edge8" class="edge">
<title>Node10&#45;&gt;Node8</title>
<path fill="none" stroke="#191970" d="M366.6109,-263.7819C350.6503,-255.331 333.0573,-244.5087 319,-232 263.8796,-182.9521 243.9102,-168.1361 221,-98 216.7219,-84.9032 216.2302,-79.9258 221,-67 226.2111,-52.8782 237.2111,-40.0032 246.9083,-30.6587"/>
<polygon fill="#191970" stroke="#191970" points="365.2846,-267.0349 375.7806,-268.4785 368.4757,-260.8046 365.2846,-267.0349"/>
</g>
<!-- Node11 -->
<g id="node8" class="node">
<title>Node11</title>
<g id="a_node8"><a xlink:href="kiosk__window__manager_8cpp.html" target="_top" xlink:title="examples/miral&#45;kiosk\l/kiosk_window_manager.cpp">
<polygon fill="#ffffff" stroke="#000000" points="726.5,-.5 726.5,-30.5 867.5,-30.5 867.5,-.5 726.5,-.5"/>
<text text-anchor="start" x="734.5" y="-18.5" font-family="Arial" font-size="10.00" fill="#000000">examples/miral&#45;kiosk</text>
<text text-anchor="middle" x="797" y="-7.5" font-family="Arial" font-size="10.00" fill="#000000">/kiosk_window_manager.cpp</text>
</a>
</g>
</g>
<!-- Node10&#45;&gt;Node11 -->
<g id="edge7" class="edge">
<title>Node10&#45;&gt;Node11</title>
<path fill="none" stroke="#191970" d="M467.5869,-276.1036C571.9368,-261.3394 785.2849,-224.4301 826,-165 830.9548,-157.7676 834.1711,-101.9735 825,-67 821.5925,-54.0057 814.2547,-40.7195 807.9456,-30.8972"/>
<polygon fill="#191970" stroke="#191970" points="466.9564,-272.6575 457.5354,-277.5048 467.9229,-279.5905 466.9564,-272.6575"/>
</g>
<!-- Node12 -->
<g id="node9" class="node">
<title>Node12</title>
<g id="a_node9"><a xlink:href="tiling__window__manager_8cpp.html" target="_top" xlink:title="examples/example&#45;server\l&#45;lib/tiling_window_manager.cpp">
<polygon fill="#ffffff" stroke="#000000" points="230.5,-67.5 230.5,-97.5 381.5,-97.5 381.5,-67.5 230.5,-67.5"/>
<text text-anchor="start" x="238.5" y="-85.5" font-family="Arial" font-size="10.00" fill="#000000">examples/example&#45;server</text>
<text text-anchor="middle" x="306" y="-74.5" font-family="Arial" font-size="10.00" fill="#000000">&#45;lib/tiling_window_manager.cpp</text>
</a>
</g>
</g>
<!-- Node10&#45;&gt;Node12 -->
<g id="edge9" class="edge">
<title>Node10&#45;&gt;Node12</title>
<path fill="none" stroke="#191970" d="M369.574,-262.8249C357.4101,-254.7538 345.1447,-244.4197 337,-232 309.0908,-189.4416 305.6079,-126.627 305.6108,-97.8797"/>
<polygon fill="#191970" stroke="#191970" points="368.0155,-265.9777 378.3529,-268.2993 371.7196,-260.038 368.0155,-265.9777"/>
</g>
<!-- Node13 -->
<g id="node10" class="node">
<title>Node13</title>
<g id="a_node10"><a xlink:href="window__manager__tools_8h.html" target="_top" xlink:title="include/miral/miral\l/window_manager_tools.h">
<polygon fill="#ffffff" stroke="#000000" points="346,-201.5 346,-231.5 474,-231.5 474,-201.5 346,-201.5"/>
<text text-anchor="start" x="354" y="-219.5" font-family="Arial" font-size="10.00" fill="#000000">include/miral/miral</text>
<text text-anchor="middle" x="410" y="-208.5" font-family="Arial" font-size="10.00" fill="#000000">/window_manager_tools.h</text>
</a>
</g>
</g>
<!-- Node10&#45;&gt;Node13 -->
<g id="edge10" class="edge">
<title>Node10&#45;&gt;Node13</title>
<path fill="none" stroke="#191970" d="M410,-258.0249C410,-249.128 410,-239.4287 410,-231.6432"/>
<polygon fill="#191970" stroke="#191970" points="406.5001,-258.2966 410,-268.2967 413.5001,-258.2967 406.5001,-258.2966"/>
</g>
<!-- Node13&#45;&gt;Node6 -->
<g id="edge12" class="edge">
<title>Node13&#45;&gt;Node6</title>
<path fill="none" stroke="#191970" d="M335.6218,-199.8889C286.0594,-188.8199 221.5803,-174.4196 174.2511,-163.8494"/>
<polygon fill="#191970" stroke="#191970" points="335.12,-203.363 345.6425,-202.1268 336.6458,-196.5313 335.12,-203.363"/>
</g>
<!-- Node13&#45;&gt;Node8 -->
<g id="edge13" class="edge">
<title>Node13&#45;&gt;Node8</title>
<path fill="none" stroke="#191970" d="M413.7528,-191.0845C417.0598,-158.7997 417.7132,-102.9681 390,-67 376.6775,-49.7091 356.5379,-38.1845 336.2926,-30.5185"/>
<polygon fill="#191970" stroke="#191970" points="410.271,-190.7247 412.5667,-201.0678 417.2221,-191.5506 410.271,-190.7247"/>
</g>
<!-- Node13&#45;&gt;Node11 -->
<g id="edge11" class="edge">
<title>Node13&#45;&gt;Node11</title>
<path fill="none" stroke="#191970" d="M484.223,-199.2053C524.4514,-188.9946 569.4467,-175.9639 587,-165 636.902,-133.8309 628.044,-101.0875 676,-67 698.0511,-51.3259 725.6141,-39.1278 748.8613,-30.5462"/>
<polygon fill="#191970" stroke="#191970" points="483.2363,-195.8442 474.3874,-201.6707 484.9384,-202.6342 483.2363,-195.8442"/>
</g>
<!-- Node13&#45;&gt;Node12 -->
<g id="edge17" class="edge">
<title>Node13&#45;&gt;Node12</title>
<path fill="none" stroke="#191970" d="M391.8739,-193.1452C370.6014,-165.7365 335.9396,-121.076 317.8447,-97.7614"/>
<polygon fill="#191970" stroke="#191970" points="389.3758,-195.635 398.272,-201.389 394.9057,-191.3431 389.3758,-195.635"/>
</g>
<!-- Node14 -->
<g id="node11" class="node">
<title>Node14</title>
<g id="a_node11"><a xlink:href="tiling__window__manager_8h.html" target="_top" xlink:title="examples/example&#45;server\l&#45;lib/tiling_window_manager.h">
<polygon fill="#ffffff" stroke="#000000" points="438,-134.5 438,-164.5 578,-164.5 578,-134.5 438,-134.5"/>
<text text-anchor="start" x="446" y="-152.5" font-family="Arial" font-size="10.00" fill="#000000">examples/example&#45;server</text>
<text text-anchor="middle" x="508" y="-141.5" font-family="Arial" font-size="10.00" fill="#000000">&#45;lib/tiling_window_manager.h</text>
</a>
</g>
</g>
<!-- Node13&#45;&gt;Node14 -->
<g id="edge14" class="edge">
<title>Node13&#45;&gt;Node14</title>
<path fill="none" stroke="#191970" d="M440.5283,-195.6286C455.2001,-185.5979 472.4602,-173.7976 485.8503,-164.6432"/>
<polygon fill="#191970" stroke="#191970" points="438.5175,-192.7635 432.2377,-201.2967 442.4682,-198.5421 438.5175,-192.7635"/>
</g>
<!-- Node16 -->
<g id="node13" class="node">
<title>Node16</title>
<g id="a_node13"><a xlink:href="canonical__window__manager_8h.html" target="_top" xlink:title="include/miral/miral\l/canonical_window_manager.h">
<polygon fill="#ffffff" stroke="#000000" points="667.5,-134.5 667.5,-164.5 816.5,-164.5 816.5,-134.5 667.5,-134.5"/>
<text text-anchor="start" x="675.5" y="-152.5" font-family="Arial" font-size="10.00" fill="#000000">include/miral/miral</text>
<text text-anchor="middle" x="742" y="-141.5" font-family="Arial" font-size="10.00" fill="#000000">/canonical_window_manager.h</text>
</a>
</g>
</g>
<!-- Node13&#45;&gt;Node16 -->
<g id="edge18" class="edge">
<title>Node13&#45;&gt;Node16</title>
<path fill="none" stroke="#191970" d="M484.0638,-200.7943C551.6573,-186.9333 618.0742,-173.7626 667.4257,-164.0631"/>
<polygon fill="#191970" stroke="#191970" points="483.1756,-197.4036 474.0843,-202.8441 484.584,-204.2605 483.1756,-197.4036"/>
</g>
<!-- Node14&#45;&gt;Node12 -->
<g id="edge16" class="edge">
<title>Node14&#45;&gt;Node12</title>
<path fill="none" stroke="#191970" d="M453.0557,-131.2759C421.22,-120.7165 381.6158,-107.5805 351.5305,-97.6017"/>
<polygon fill="#191970" stroke="#191970" points="452.0738,-134.6377 462.6673,-134.4639 454.2776,-127.9936 452.0738,-134.6377"/>
</g>
<!-- Node15 -->
<g id="node12" class="node">
<title>Node15</title>
<g id="a_node12"><a xlink:href="shell__main_8cpp.html" target="_top" xlink:title="examples/miral&#45;shell\l/shell_main.cpp">
<polygon fill="#ffffff" stroke="#000000" points="411,-.5 411,-30.5 517,-30.5 517,-.5 411,-.5"/>
<text text-anchor="start" x="419" y="-18.5" font-family="Arial" font-size="10.00" fill="#000000">examples/miral&#45;shell</text>
<text text-anchor="middle" x="464" y="-7.5" font-family="Arial" font-size="10.00" fill="#000000">/shell_main.cpp</text>
</a>
</g>
</g>
<!-- Node14&#45;&gt;Node15 -->
<g id="edge15" class="edge">
<title>Node14&#45;&gt;Node15</title>
<path fill="none" stroke="#191970" d="M484.9774,-126.9983C477.8783,-118.6182 470.9066,-108.5592 467,-98 458.7445,-75.6864 459.934,-47.6219 461.7906,-30.6469"/>
<polygon fill="#191970" stroke="#191970" points="482.4297,-129.3993 491.7269,-134.4798 487.6271,-124.7103 482.4297,-129.3993"/>
</g>
<!-- Node17 -->
<g id="node14" class="node">
<title>Node17</title>
<g id="a_node14"><a xlink:href="kiosk__window__manager_8h.html" target="_top" xlink:title="examples/miral&#45;kiosk\l/kiosk_window_manager.h">
<polygon fill="#ffffff" stroke="#000000" points="684.5,-67.5 684.5,-97.5 815.5,-97.5 815.5,-67.5 684.5,-67.5"/>
<text text-anchor="start" x="692.5" y="-85.5" font-family="Arial" font-size="10.00" fill="#000000">examples/miral&#45;kiosk</text>
<text text-anchor="middle" x="750" y="-74.5" font-family="Arial" font-size="10.00" fill="#000000">/kiosk_window_manager.h</text>
</a>
</g>
</g>
<!-- Node16&#45;&gt;Node17 -->
<g id="edge19" class="edge">
<title>Node16&#45;&gt;Node17</title>
<path fill="none" stroke="#191970" d="M745.0068,-124.3179C746.0786,-115.3414 747.252,-105.5143 748.1919,-97.6432"/>
<polygon fill="#191970" stroke="#191970" points="741.5257,-123.9522 743.8153,-134.2967 748.4763,-124.7822 741.5257,-123.9522"/>
</g>
<!-- Node19 -->
<g id="node16" class="node">
<title>Node19</title>
<g id="a_node16"><a xlink:href="floating__window__manager_8h.html" target="_top" xlink:title="examples/example&#45;server\l&#45;lib/floating_window_manager.h">
<polygon fill="#ffffff" stroke="#000000" points="476,-67.5 476,-97.5 628,-97.5 628,-67.5 476,-67.5"/>
<text text-anchor="start" x="484" y="-85.5" font-family="Arial" font-size="10.00" fill="#000000">examples/example&#45;server</text>
<text text-anchor="middle" x="552" y="-74.5" font-family="Arial" font-size="10.00" fill="#000000">&#45;lib/floating_window_manager.h</text>
</a>
</g>
</g>
<!-- Node16&#45;&gt;Node19 -->
<g id="edge22" class="edge">
<title>Node16&#45;&gt;Node19</title>
<path fill="none" stroke="#191970" d="M689.5437,-131.0023C659.7336,-120.4903 622.8798,-107.4945 594.8257,-97.6017"/>
<polygon fill="#191970" stroke="#191970" points="688.7655,-134.439 699.3603,-134.4639 691.0935,-127.8374 688.7655,-134.439"/>
</g>
<!-- Node17&#45;&gt;Node11 -->
<g id="edge21" class="edge">
<title>Node17&#45;&gt;Node11</title>
<path fill="none" stroke="#191970" d="M766.4412,-59.0626C773.057,-49.6315 780.4955,-39.0276 786.3772,-30.6432"/>
<polygon fill="#191970" stroke="#191970" points="763.5426,-57.1001 760.665,-67.2967 769.2732,-61.1201 763.5426,-57.1001"/>
</g>
<!-- Node18 -->
<g id="node15" class="node">
<title>Node18</title>
<g id="a_node15"><a xlink:href="kiosk__main_8cpp.html" target="_top" xlink:title="examples/miral&#45;kiosk\l/kiosk_main.cpp">
<polygon fill="#ffffff" stroke="#000000" points="599.5,-.5 599.5,-30.5 708.5,-30.5 708.5,-.5 599.5,-.5"/>
<text text-anchor="start" x="607.5" y="-18.5" font-family="Arial" font-size="10.00" fill="#000000">examples/miral&#45;kiosk</text>
<text text-anchor="middle" x="654" y="-7.5" font-family="Arial" font-size="10.00" fill="#000000">/kiosk_main.cpp</text>
</a>
</g>
</g>
<!-- Node17&#45;&gt;Node18 -->
<g id="edge20" class="edge">
<title>Node17&#45;&gt;Node18</title>
<path fill="none" stroke="#191970" d="M719.6911,-61.3469C705.4067,-51.3776 688.6919,-39.7121 675.6977,-30.6432"/>
<polygon fill="#191970" stroke="#191970" points="718.0126,-64.4436 728.2161,-67.2967 722.0189,-58.7033 718.0126,-64.4436"/>
</g>
<!-- Node19&#45;&gt;Node8 -->
<g id="edge24" class="edge">
<title>Node19&#45;&gt;Node8</title>
<path fill="none" stroke="#191970" d="M477.7109,-65.1573C431.8672,-54.4551 373.6319,-40.8601 329.6893,-30.6017"/>
<polygon fill="#191970" stroke="#191970" points="477.0577,-68.5988 487.5916,-67.4639 478.6491,-61.7821 477.0577,-68.5988"/>
</g>
<!-- Node19&#45;&gt;Node15 -->
<g id="edge23" class="edge">
<title>Node19&#45;&gt;Node15</title>
<path fill="none" stroke="#191970" d="M523.8457,-61.0643C510.834,-51.1577 495.6886,-39.6265 483.8895,-30.6432"/>
<polygon fill="#191970" stroke="#191970" points="521.9548,-64.0237 532.0314,-67.2967 526.1952,-58.4542 521.9548,-64.0237"/>
</g>
<!-- Node20&#45;&gt;Node14 -->
<g id="edge26" class="edge">
<title>Node20&#45;&gt;Node14</title>
<path fill="none" stroke="#191970" d="M547.527,-193.6385C538.954,-184.0653 529.2227,-173.1987 521.561,-164.6432"/>
<polygon fill="#191970" stroke="#191970" points="545.1065,-196.1821 554.3851,-201.2967 550.3212,-191.5122 545.1065,-196.1821"/>
</g>
<!-- Node20&#45;&gt;Node16 -->
<g id="edge27" class="edge">
<title>Node20&#45;&gt;Node16</title>
<path fill="none" stroke="#191970" d="M616.3954,-197.865C643.632,-187.3773 677.2007,-174.4515 702.7807,-164.6017"/>
<polygon fill="#191970" stroke="#191970" points="615.1234,-194.6042 607.049,-201.4639 617.6388,-201.1367 615.1234,-194.6042"/>
</g>
<!-- Node21&#45;&gt;Node10 -->
<g id="edge29" class="edge">
<title>Node21&#45;&gt;Node10</title>
<path fill="none" stroke="#191970" d="M350.1543,-329.0643C363.166,-319.1577 378.3114,-307.6265 390.1105,-298.6432"/>
<polygon fill="#191970" stroke="#191970" points="347.8048,-326.4542 341.9686,-335.2967 352.0452,-332.0237 347.8048,-326.4542"/>
</g>
<!-- Node23&#45;&gt;Node12 -->
<g id="edge32" class="edge">
<title>Node23&#45;&gt;Node12</title>
<path fill="none" stroke="#191970" d="M207.0717,-325.7364C229.2908,-271.106 281.9586,-141.6111 299.8951,-97.5103"/>
<polygon fill="#191970" stroke="#191970" points="203.6981,-324.7415 203.1726,-335.3233 210.1823,-327.3788 203.6981,-324.7415"/>
</g>
<!-- Node24&#45;&gt;Node10 -->
<g id="edge35" class="edge">
<title>Node24&#45;&gt;Node10</title>
<path fill="none" stroke="#191970" d="M541.0136,-459.0724C540.0831,-442.0919 536.9921,-419.7115 528,-402 505.2622,-357.214 459.3677,-318.8425 431.9981,-298.6687"/>
<polygon fill="#191970" stroke="#191970" points="537.5247,-459.4692 541.3535,-469.348 544.5209,-459.2377 537.5247,-459.4692"/>
</g>
</g>
</svg>
