<?xml version="1.0" encoding="UTF-8" standalone="no"?>
<!DOCTYPE svg PUBLIC "-//W3C//DTD SVG 1.1//EN"
 "http://www.w3.org/Graphics/SVG/1.1/DTD/svg11.dtd">
<!-- Generated by graphviz version 2.40.1 (20161225.0304)
 -->
<!-- Title: include/core/mir/geometry/size.h Pages: 1 -->
<svg width="187pt" height="151pt"
 viewBox="0.00 0.00 186.50 151.00" xmlns="http://www.w3.org/2000/svg" xmlns:xlink="http://www.w3.org/1999/xlink">
<g id="graph0" class="graph" transform="scale(1 1) rotate(0) translate(4 147)">
<title>include/core/mir/geometry/size.h</title>
<polygon fill="#ffffff" stroke="transparent" points="-4,4 -4,-147 182.5,-147 182.5,4 -4,4"/>
<!-- Node0 -->
<g id="node1" class="node">
<title>Node0</title>
<polygon fill="#bfbfbf" stroke="#000000" points="49.5,-112.5 49.5,-142.5 178.5,-142.5 178.5,-112.5 49.5,-112.5"/>
<text text-anchor="start" x="57.5" y="-130.5" font-family="Arial" font-size="10.00" fill="#000000">include/core/mir/geometry</text>
<text text-anchor="middle" x="114" y="-119.5" font-family="Arial" font-size="10.00" fill="#000000">/size.h</text>
</g>
<!-- Node1 -->
<g id="node2" class="node">
<title>Node1</title>
<g id="a_node2"><a xlink:href="dimensions_8h.html" target="_top" xlink:title="mir/geometry/dimensions.h">
<polygon fill="#ffffff" stroke="#000000" points="0,-56.5 0,-75.5 134,-75.5 134,-56.5 0,-56.5"/>
<text text-anchor="middle" x="67" y="-63.5" font-family="Arial" font-size="10.00" fill="#000000">mir/geometry/dimensions.h</text>
</a>
</g>
</g>
<!-- Node0&#45;&gt;Node1 -->
<g id="edge1" class="edge">
<title>Node0&#45;&gt;Node1</title>
<path fill="none" stroke="#191970" d="M102.382,-112.2977C95.79,-103.672 87.5052,-92.8312 80.6099,-83.8087"/>
<polygon fill="#191970" stroke="#191970" points="83.3783,-81.6671 74.5253,-75.8469 77.8165,-85.9176 83.3783,-81.6671"/>
</g>
<!-- Node3 -->
<g id="node4" class="node">
<title>Node3</title>
<polygon fill="#ffffff" stroke="#bfbfbf" points="124,-.5 124,-19.5 168,-19.5 168,-.5 124,-.5"/>
<text text-anchor="middle" x="146" y="-7.5" font-family="Arial" font-size="10.00" fill="#000000">iosfwd</text>
</g>
<!-- Node0&#45;&gt;Node3 -->
<g id="edge4" class="edge">
<title>Node0&#45;&gt;Node3</title>
<path fill="none" stroke="#191970" d="M125.1938,-112.1211C131.6745,-102.3057 139.2681,-89.0203 143,-76 147.302,-60.9906 147.8772,-43.2821 147.4725,-29.9888"/>
<polygon fill="#191970" stroke="#191970" points="150.9481,-29.4271 146.9337,-19.6222 143.9576,-29.7904 150.9481,-29.4271"/>
</g>
<!-- Node2 -->
<g id="node3" class="node">
<title>Node2</title>
<polygon fill="#ffffff" stroke="#bfbfbf" points="44,-.5 44,-19.5 90,-19.5 90,-.5 44,-.5"/>
<text text-anchor="middle" x="67" y="-7.5" font-family="Arial" font-size="10.00" fill="#000000">cstdint</text>
</g>
<!-- Node1&#45;&gt;Node2 -->
<g id="edge2" class="edge">
<title>Node1&#45;&gt;Node2</title>
<path fill="none" stroke="#191970" d="M67,-56.2455C67,-48.9382 67,-38.6944 67,-29.7046"/>
<polygon fill="#191970" stroke="#191970" points="70.5001,-29.6426 67,-19.6427 63.5001,-29.6427 70.5001,-29.6426"/>
</g>
<!-- Node1&#45;&gt;Node3 -->
<g id="edge3" class="edge">
<title>Node1&#45;&gt;Node3</title>
<path fill="none" stroke="#191970" d="M80.7607,-56.2455C92.6552,-47.814 110.065,-35.4729 123.9085,-25.6598"/>
<polygon fill="#191970" stroke="#191970" points="126.2628,-28.2811 132.3969,-19.6427 122.2146,-22.5704 126.2628,-28.2811"/>
</g>
</g>
</svg>
