<?xml version="1.0" encoding="UTF-8" standalone="no"?>
<!DOCTYPE svg PUBLIC "-//W3C//DTD SVG 1.1//EN"
 "http://www.w3.org/Graphics/SVG/1.1/DTD/svg11.dtd">
<!-- Generated by graphviz version 2.38.0 (20140413.2041)
 -->
<!-- Title: examples/miral&#45;shell/spinner/splash.h Pages: 1 -->
<svg width="604pt" height="173pt"
 viewBox="0.00 0.00 603.50 173.00" xmlns="http://www.w3.org/2000/svg" xmlns:xlink="http://www.w3.org/1999/xlink">
<g id="graph0" class="graph" transform="scale(1 1) rotate(0) translate(4 169)">
<title>examples/miral&#45;shell/spinner/splash.h</title>
<polygon fill="white" stroke="none" points="-4,4 -4,-169 599.5,-169 599.5,4 -4,4"/>
<!-- Node25 -->
<g id="node1" class="node"><title>Node25</title>
<polygon fill="#bfbfbf" stroke="black" points="284,-134.5 284,-164.5 390,-164.5 390,-134.5 284,-134.5"/>
<text text-anchor="start" x="292" y="-152.5" font-family="Arial" font-size="10.00">examples/miral&#45;shell</text>
<text text-anchor="middle" x="337" y="-141.5" font-family="Arial" font-size="10.00">/spinner/splash.h</text>
</g>
<!-- Node26 -->
<g id="node2" class="node"><title>Node26</title>
<g id="a_node2"><a xlink:href="floating__window__manager_8h.html" target="_top" xlink:title="examples/miral&#45;shell\l/floating_window_manager.h">
<polygon fill="white" stroke="black" points="117,-67.5 117,-97.5 255,-97.5 255,-67.5 117,-67.5"/>
<text text-anchor="start" x="125" y="-85.5" font-family="Arial" font-size="10.00">examples/miral&#45;shell</text>
<text text-anchor="middle" x="186" y="-74.5" font-family="Arial" font-size="10.00">/floating_window_manager.h</text>
</a>
</g>
</g>
<!-- Node25&#45;&gt;Node26 -->
<g id="edge1" class="edge"><title>Node25&#45;&gt;Node26</title>
<path fill="none" stroke="midnightblue" d="M294.968,-130.407C270.861,-120.029 241.046,-107.195 218.701,-97.5765"/>
<polygon fill="midnightblue" stroke="midnightblue" points="293.666,-133.657 304.235,-134.396 296.434,-127.227 293.666,-133.657"/>
</g>
<!-- Node28 -->
<g id="node4" class="node"><title>Node28</title>
<g id="a_node4"><a xlink:href="shell__main_8cpp.html" target="_top" xlink:title="examples/miral&#45;shell\l/shell_main.cpp">
<polygon fill="white" stroke="black" points="0,-0.5 0,-30.5 106,-30.5 106,-0.5 0,-0.5"/>
<text text-anchor="start" x="8" y="-18.5" font-family="Arial" font-size="10.00">examples/miral&#45;shell</text>
<text text-anchor="middle" x="53" y="-7.5" font-family="Arial" font-size="10.00">/shell_main.cpp</text>
</a>
</g>
</g>
<!-- Node25&#45;&gt;Node28 -->
<g id="edge9" class="edge"><title>Node25&#45;&gt;Node28</title>
<path fill="none" stroke="midnightblue" d="M273.828,-147.061C224.826,-143.163 157.191,-131.444 108,-98 83.2966,-81.2044 66.6659,-49.2866 58.6149,-30.77"/>
<polygon fill="midnightblue" stroke="midnightblue" points="273.766,-150.565 283.988,-147.779 274.26,-143.582 273.766,-150.565"/>
</g>
<!-- Node29 -->
<g id="node5" class="node"><title>Node29</title>
<g id="a_node5"><a xlink:href="server__example_8cpp.html" target="_top" xlink:title="examples/server_example.cpp">
<polygon fill="white" stroke="black" points="291.5,-6 291.5,-25 440.5,-25 440.5,-6 291.5,-6"/>
<text text-anchor="middle" x="366" y="-13" font-family="Arial" font-size="10.00">examples/server_example.cpp</text>
</a>
</g>
</g>
<!-- Node25&#45;&gt;Node29 -->
<g id="edge11" class="edge"><title>Node25&#45;&gt;Node29</title>
<path fill="none" stroke="midnightblue" d="M379.256,-129.076C391.41,-121.254 403.206,-110.96 410,-98 424.035,-71.2256 393.726,-39.8226 376.635,-25.0289"/>
<polygon fill="midnightblue" stroke="midnightblue" points="377.214,-126.218 370.409,-134.338 380.793,-132.234 377.214,-126.218"/>
</g>
<!-- Node30 -->
<g id="node6" class="node"><title>Node30</title>
<g id="a_node6"><a xlink:href="tiling__window__manager_8h.html" target="_top" xlink:title="examples/miral&#45;shell\l/tiling_window_manager.h">
<polygon fill="white" stroke="black" points="273.5,-67.5 273.5,-97.5 400.5,-97.5 400.5,-67.5 273.5,-67.5"/>
<text text-anchor="start" x="281.5" y="-85.5" font-family="Arial" font-size="10.00">examples/miral&#45;shell</text>
<text text-anchor="middle" x="337" y="-74.5" font-family="Arial" font-size="10.00">/tiling_window_manager.h</text>
</a>
</g>
</g>
<!-- Node25&#45;&gt;Node30 -->
<g id="edge5" class="edge"><title>Node25&#45;&gt;Node30</title>
<path fill="none" stroke="midnightblue" d="M337,-124.108C337,-115.154 337,-105.323 337,-97.5765"/>
<polygon fill="midnightblue" stroke="midnightblue" points="333.5,-124.396 337,-134.396 340.5,-124.396 333.5,-124.396"/>
</g>
<!-- Node32 -->
<g id="node8" class="node"><title>Node32</title>
<g id="a_node8"><a xlink:href="eglspinner_8cpp.html" target="_top" xlink:title="examples/miral&#45;shell\l/spinner/eglspinner.cpp">
<polygon fill="white" stroke="black" points="457,-67.5 457,-97.5 573,-97.5 573,-67.5 457,-67.5"/>
<text text-anchor="start" x="465" y="-85.5" font-family="Arial" font-size="10.00">examples/miral&#45;shell</text>
<text text-anchor="middle" x="515" y="-74.5" font-family="Arial" font-size="10.00">/spinner/eglspinner.cpp</text>
</a>
</g>
</g>
<!-- Node25&#45;&gt;Node32 -->
<g id="edge10" class="edge"><title>Node25&#45;&gt;Node32</title>
<path fill="none" stroke="midnightblue" d="M385.046,-130.955C413.719,-120.485 449.645,-107.366 476.452,-97.5765"/>
<polygon fill="midnightblue" stroke="midnightblue" points="383.816,-127.678 375.623,-134.396 386.217,-134.253 383.816,-127.678"/>
</g>
<!-- Node27 -->
<g id="node3" class="node"><title>Node27</title>
<g id="a_node3"><a xlink:href="floating__window__manager_8cpp.html" target="_top" xlink:title="examples/miral&#45;shell\l/floating_window_manager.cpp">
<polygon fill="white" stroke="black" points="124.5,-0.5 124.5,-30.5 273.5,-30.5 273.5,-0.5 124.5,-0.5"/>
<text text-anchor="start" x="132.5" y="-18.5" font-family="Arial" font-size="10.00">examples/miral&#45;shell</text>
<text text-anchor="middle" x="199" y="-7.5" font-family="Arial" font-size="10.00">/floating_window_manager.cpp</text>
</a>
</g>
</g>
<!-- Node26&#45;&gt;Node27 -->
<g id="edge2" class="edge"><title>Node26&#45;&gt;Node27</title>
<path fill="none" stroke="midnightblue" d="M190.819,-57.4029C192.626,-48.3703 194.618,-38.4078 196.185,-30.5765"/>
<polygon fill="midnightblue" stroke="midnightblue" points="187.35,-56.9037 188.821,-67.396 194.214,-58.2766 187.35,-56.9037"/>
</g>
<!-- Node26&#45;&gt;Node28 -->
<g id="edge3" class="edge"><title>Node26&#45;&gt;Node28</title>
<path fill="none" stroke="midnightblue" d="M148.13,-62.9921C127.049,-52.6892 101.223,-40.0677 81.8027,-30.5765"/>
<polygon fill="midnightblue" stroke="midnightblue" points="146.62,-66.1496 157.141,-67.396 149.693,-59.8605 146.62,-66.1496"/>
</g>
<!-- Node26&#45;&gt;Node29 -->
<g id="edge4" class="edge"><title>Node26&#45;&gt;Node29</title>
<path fill="none" stroke="midnightblue" d="M234.611,-63.9459C269.572,-51.3213 315.184,-34.8502 342.442,-25.007"/>
<polygon fill="midnightblue" stroke="midnightblue" points="233.274,-60.7075 225.057,-67.396 235.652,-67.2914 233.274,-60.7075"/>
</g>
<!-- Node30&#45;&gt;Node28 -->
<g id="edge6" class="edge"><title>Node30&#45;&gt;Node28</title>
<path fill="none" stroke="midnightblue" d="M264.871,-65.2087C221.433,-55.3686 165.024,-42.5392 115,-31 112.092,-30.3291 109.107,-29.6385 106.095,-28.9397"/>
<polygon fill="midnightblue" stroke="midnightblue" points="264.251,-68.6568 274.777,-67.4518 265.797,-61.8296 264.251,-68.6568"/>
</g>
<!-- Node30&#45;&gt;Node29 -->
<g id="edge8" class="edge"><title>Node30&#45;&gt;Node29</title>
<path fill="none" stroke="midnightblue" d="M347.51,-57.9425C352.597,-46.5402 358.395,-33.5454 362.121,-25.1945"/>
<polygon fill="midnightblue" stroke="midnightblue" points="344.171,-56.8376 343.293,-67.396 350.563,-59.6897 344.171,-56.8376"/>
</g>
<!-- Node31 -->
<g id="node7" class="node"><title>Node31</title>
<g id="a_node7"><a xlink:href="tiling__window__manager_8cpp.html" target="_top" xlink:title="examples/miral&#45;shell\l/tiling_window_manager.cpp">
<polygon fill="white" stroke="black" points="458.5,-0.5 458.5,-30.5 595.5,-30.5 595.5,-0.5 458.5,-0.5"/>
<text text-anchor="start" x="466.5" y="-18.5" font-family="Arial" font-size="10.00">examples/miral&#45;shell</text>
<text text-anchor="middle" x="527" y="-7.5" font-family="Arial" font-size="10.00">/tiling_window_manager.cpp</text>
</a>
</g>
</g>
<!-- Node30&#45;&gt;Node31 -->
<g id="edge7" class="edge"><title>Node30&#45;&gt;Node31</title>
<path fill="none" stroke="midnightblue" d="M387.886,-64.0917C418.557,-53.5988 457.114,-40.4082 485.853,-30.5765"/>
<polygon fill="midnightblue" stroke="midnightblue" points="386.556,-60.8474 378.227,-67.396 388.822,-67.4706 386.556,-60.8474"/>
</g>
</g>
</svg>
