<?xml version="1.0" encoding="UTF-8" standalone="no"?>
<!DOCTYPE svg PUBLIC "-//W3C//DTD SVG 1.1//EN"
 "http://www.w3.org/Graphics/SVG/1.1/DTD/svg11.dtd">
<!-- Generated by graphviz version 2.43.0 (0)
 -->
<!-- Title: mir::geometry::Displacement Pages: 1 -->
<svg width="151pt" height="173pt"
 viewBox="0.00 0.00 151.00 173.00" xmlns="http://www.w3.org/2000/svg" xmlns:xlink="http://www.w3.org/1999/xlink">
<g id="graph0" class="graph" transform="scale(1 1) rotate(0) translate(4 169)">
<title>mir::geometry::Displacement</title>
<polygon fill="white" stroke="transparent" points="-4,4 -4,-169 147,-169 147,4 -4,4"/>
<!-- Node1 -->
<g id="node1" class="node">
<title>Node1</title>
<g id="a_node1"><a xlink:title=" ">
<polygon fill="#bfbfbf" stroke="black" points="0,-0.5 0,-19.5 143,-19.5 143,-0.5 0,-0.5"/>
<text text-anchor="middle" x="71.5" y="-7.5" font-family="Arial" font-size="10.00">mir::geometry::Displacement</text>
</a>
</g>
</g>
<!-- Node2 -->
<g id="node2" class="node">
<title>Node2</title>
<g id="a_node2"><a xlink:href="structmir_1_1geometry_1_1generic_1_1_displacement.html" target="_top" xlink:title=" ">
<polygon fill="white" stroke="black" points="14,-56.5 14,-97.5 129,-97.5 129,-56.5 14,-56.5"/>
<text text-anchor="start" x="22" y="-85.5" font-family="Arial" font-size="10.00">mir::geometry::generic</text>
<text text-anchor="start" x="22" y="-74.5" font-family="Arial" font-size="10.00">::Displacement&lt; detail</text>
<text text-anchor="middle" x="71.5" y="-63.5" font-family="Arial" font-size="10.00">::IntWrapper &gt;</text>
</a>
</g>
</g>
<!-- Node2&#45;&gt;Node1 -->
<g id="edge1" class="edge">
<title>Node2&#45;&gt;Node1</title>
<path fill="none" stroke="midnightblue" d="M71.5,-46.26C71.5,-36.56 71.5,-26.52 71.5,-19.65"/>
<polygon fill="midnightblue" stroke="midnightblue" points="68,-46.5 71.5,-56.5 75,-46.5 68,-46.5"/>
</g>
<!-- Node3 -->
<g id="node3" class="node">
<title>Node3</title>
<g id="a_node3"><a xlink:href="structmir_1_1geometry_1_1detail_1_1_displacement_base.html" target="_top" xlink:title="Used for determining if a type is a displacement.">
<polygon fill="white" stroke="black" points="18.5,-134.5 18.5,-164.5 124.5,-164.5 124.5,-134.5 18.5,-134.5"/>
<text text-anchor="start" x="26.5" y="-152.5" font-family="Arial" font-size="10.00">mir::geometry::detail</text>
<text text-anchor="middle" x="71.5" y="-141.5" font-family="Arial" font-size="10.00">::DisplacementBase</text>
</a>
</g>
</g>
<!-- Node3&#45;&gt;Node2 -->
<g id="edge2" class="edge">
<title>Node3&#45;&gt;Node2</title>
<path fill="none" stroke="midnightblue" d="M71.5,-123.98C71.5,-115.35 71.5,-105.76 71.5,-97.59"/>
<polygon fill="midnightblue" stroke="midnightblue" points="68,-124.23 71.5,-134.23 75,-124.23 68,-124.23"/>
</g>
</g>
</svg>
