<?xml version="1.0" encoding="UTF-8" standalone="no"?>
<!DOCTYPE svg PUBLIC "-//W3C//DTD SVG 1.1//EN"
 "http://www.w3.org/Graphics/SVG/1.1/DTD/svg11.dtd">
<!-- Generated by graphviz version 2.43.0 (0)
 -->
<!-- Title: mir::geometry::Size Pages: 1 -->
<svg width="145pt" height="162pt"
 viewBox="0.00 0.00 145.00 162.00" xmlns="http://www.w3.org/2000/svg" xmlns:xlink="http://www.w3.org/1999/xlink">
<g id="graph0" class="graph" transform="scale(1 1) rotate(0) translate(4 158)">
<title>mir::geometry::Size</title>
<polygon fill="white" stroke="transparent" points="-4,4 -4,-158 141,-158 141,4 -4,4"/>
<!-- Node1 -->
<g id="node1" class="node">
<title>Node1</title>
<g id="a_node1"><a xlink:title=" ">
<polygon fill="#bfbfbf" stroke="black" points="17.5,-0.5 17.5,-19.5 119.5,-19.5 119.5,-0.5 17.5,-0.5"/>
<text text-anchor="middle" x="68.5" y="-7.5" font-family="Arial" font-size="10.00">mir::geometry::Size</text>
</a>
</g>
</g>
<!-- Node2 -->
<g id="node2" class="node">
<title>Node2</title>
<g id="a_node2"><a xlink:href="structmir_1_1geometry_1_1generic_1_1_size.html" target="_top" xlink:title=" ">
<polygon fill="white" stroke="black" points="0,-56.5 0,-86.5 137,-86.5 137,-56.5 0,-56.5"/>
<text text-anchor="start" x="8" y="-74.5" font-family="Arial" font-size="10.00">mir::geometry::generic</text>
<text text-anchor="middle" x="68.5" y="-63.5" font-family="Arial" font-size="10.00">::Size&lt; detail::IntWrapper &gt;</text>
</a>
</g>
</g>
<!-- Node2&#45;&gt;Node1 -->
<g id="edge1" class="edge">
<title>Node2&#45;&gt;Node1</title>
<path fill="none" stroke="midnightblue" d="M68.5,-46.29C68.5,-36.86 68.5,-26.65 68.5,-19.66"/>
<polygon fill="midnightblue" stroke="midnightblue" points="65,-46.4 68.5,-56.4 72,-46.4 65,-46.4"/>
</g>
<!-- Node3 -->
<g id="node3" class="node">
<title>Node3</title>
<g id="a_node3"><a xlink:href="structmir_1_1geometry_1_1detail_1_1_size_base.html" target="_top" xlink:title="Used for determining if a type is a size.">
<polygon fill="white" stroke="black" points="15.5,-123.5 15.5,-153.5 121.5,-153.5 121.5,-123.5 15.5,-123.5"/>
<text text-anchor="start" x="23.5" y="-141.5" font-family="Arial" font-size="10.00">mir::geometry::detail</text>
<text text-anchor="middle" x="68.5" y="-130.5" font-family="Arial" font-size="10.00">::SizeBase</text>
</a>
</g>
</g>
<!-- Node3&#45;&gt;Node2 -->
<g id="edge2" class="edge">
<title>Node3&#45;&gt;Node2</title>
<path fill="none" stroke="midnightblue" d="M68.5,-113.11C68.5,-104.15 68.5,-94.32 68.5,-86.58"/>
<polygon fill="midnightblue" stroke="midnightblue" points="65,-113.4 68.5,-123.4 72,-113.4 65,-113.4"/>
</g>
</g>
</svg>
