<?xml version="1.0" encoding="UTF-8" standalone="no"?>
<!DOCTYPE svg PUBLIC "-//W3C//DTD SVG 1.1//EN"
 "http://www.w3.org/Graphics/SVG/1.1/DTD/svg11.dtd">
<!-- Generated by graphviz version 2.38.0 (20140413.2041)
 -->
<!-- Title: include/test/mir_test_framework/stub_platform_helpers.h Pages: 1 -->
<svg width="1655pt" height="385pt"
 viewBox="0.00 0.00 1654.77 385.00" xmlns="http://www.w3.org/2000/svg" xmlns:xlink="http://www.w3.org/1999/xlink">
<g id="graph0" class="graph" transform="scale(1 1) rotate(0) translate(4 381)">
<title>include/test/mir_test_framework/stub_platform_helpers.h</title>
<polygon fill="white" stroke="none" points="-4,4 -4,-381 1650.77,-381 1650.77,4 -4,4"/>
<!-- Node0 -->
<g id="node1" class="node"><title>Node0</title>
<polygon fill="#bfbfbf" stroke="black" points="731.5,-335.5 731.5,-376.5 860.5,-376.5 860.5,-335.5 731.5,-335.5"/>
<text text-anchor="start" x="739.5" y="-364.5" font-family="Arial" font-size="10.00">include/test/mir_test</text>
<text text-anchor="start" x="739.5" y="-353.5" font-family="Arial" font-size="10.00">_framework/stub_platform</text>
<text text-anchor="middle" x="796" y="-342.5" font-family="Arial" font-size="10.00">_helpers.h</text>
</g>
<!-- Node1 -->
<g id="node2" class="node"><title>Node1</title>
<g id="a_node2"><a xlink:href="platform__ipc__package_8h.html" target="_top" xlink:title="mir/graphics/platform\l_ipc_package.h">
<polygon fill="white" stroke="black" points="611,-268.5 611,-298.5 719,-298.5 719,-268.5 611,-268.5"/>
<text text-anchor="start" x="619" y="-286.5" font-family="Arial" font-size="10.00">mir/graphics/platform</text>
<text text-anchor="middle" x="665" y="-275.5" font-family="Arial" font-size="10.00">_ipc_package.h</text>
</a>
</g>
</g>
<!-- Node0&#45;&gt;Node1 -->
<g id="edge1" class="edge"><title>Node0&#45;&gt;Node1</title>
<path fill="none" stroke="midnightblue" d="M759.509,-335.362C740.986,-325.393 718.585,-313.338 700.242,-303.466"/>
<polygon fill="midnightblue" stroke="midnightblue" points="701.795,-300.327 691.33,-298.67 698.477,-306.491 701.795,-300.327"/>
</g>
<!-- Node4 -->
<g id="node5" class="node"><title>Node4</title>
<g id="a_node5"><a xlink:href="client__types_8h.html" target="_top" xlink:title="mir_toolkit/client\l_types.h">
<polygon fill="white" stroke="black" points="752,-268.5 752,-298.5 840,-298.5 840,-268.5 752,-268.5"/>
<text text-anchor="start" x="760" y="-286.5" font-family="Arial" font-size="10.00">mir_toolkit/client</text>
<text text-anchor="middle" x="796" y="-275.5" font-family="Arial" font-size="10.00">_types.h</text>
</a>
</g>
</g>
<!-- Node0&#45;&gt;Node4 -->
<g id="edge4" class="edge"><title>Node0&#45;&gt;Node4</title>
<path fill="none" stroke="midnightblue" d="M796,-335.362C796,-327.226 796,-317.7 796,-309.105"/>
<polygon fill="midnightblue" stroke="midnightblue" points="799.5,-308.892 796,-298.892 792.5,-308.892 799.5,-308.892"/>
</g>
<!-- Node27 -->
<g id="node28" class="node"><title>Node27</title>
<polygon fill="white" stroke="#bfbfbf" points="858,-274 858,-293 944,-293 944,-274 858,-274"/>
<text text-anchor="middle" x="901" y="-281" font-family="Arial" font-size="10.00">gmock/gmock.h</text>
</g>
<!-- Node0&#45;&gt;Node27 -->
<g id="edge49" class="edge"><title>Node0&#45;&gt;Node27</title>
<path fill="none" stroke="midnightblue" d="M825.248,-335.362C842.495,-323.782 863.937,-309.385 879.602,-298.867"/>
<polygon fill="midnightblue" stroke="midnightblue" points="881.731,-301.654 888.082,-293.173 877.829,-295.842 881.731,-301.654"/>
</g>
<!-- Node2 -->
<g id="node3" class="node"><title>Node2</title>
<polygon fill="white" stroke="#bfbfbf" points="575,-207 575,-226 619,-226 619,-207 575,-207"/>
<text text-anchor="middle" x="597" y="-214" font-family="Arial" font-size="10.00">vector</text>
</g>
<!-- Node1&#45;&gt;Node2 -->
<g id="edge2" class="edge"><title>Node1&#45;&gt;Node2</title>
<path fill="none" stroke="midnightblue" d="M650.245,-268.396C639.432,-258.06 624.748,-244.024 613.539,-233.309"/>
<polygon fill="midnightblue" stroke="midnightblue" points="615.743,-230.574 606.096,-226.195 610.906,-235.634 615.743,-230.574"/>
</g>
<!-- Node3 -->
<g id="node4" class="node"><title>Node3</title>
<polygon fill="white" stroke="#bfbfbf" points="637,-207 637,-226 693,-226 693,-207 637,-207"/>
<text text-anchor="middle" x="665" y="-214" font-family="Arial" font-size="10.00">cinttypes</text>
</g>
<!-- Node1&#45;&gt;Node3 -->
<g id="edge3" class="edge"><title>Node1&#45;&gt;Node3</title>
<path fill="none" stroke="midnightblue" d="M665,-268.396C665,-259.064 665,-246.714 665,-236.517"/>
<polygon fill="midnightblue" stroke="midnightblue" points="668.5,-236.195 665,-226.195 661.5,-236.195 668.5,-236.195"/>
</g>
<!-- Node5 -->
<g id="node6" class="node"><title>Node5</title>
<g id="a_node6"><a xlink:href="events_2event_8h.html" target="_top" xlink:title="mir_toolkit/events\l/event.h">
<polygon fill="white" stroke="black" points="749,-201.5 749,-231.5 843,-231.5 843,-201.5 749,-201.5"/>
<text text-anchor="start" x="757" y="-219.5" font-family="Arial" font-size="10.00">mir_toolkit/events</text>
<text text-anchor="middle" x="796" y="-208.5" font-family="Arial" font-size="10.00">/event.h</text>
</a>
</g>
</g>
<!-- Node4&#45;&gt;Node5 -->
<g id="edge5" class="edge"><title>Node4&#45;&gt;Node5</title>
<path fill="none" stroke="midnightblue" d="M796,-268.396C796,-260.645 796,-250.812 796,-241.86"/>
<polygon fill="midnightblue" stroke="midnightblue" points="799.5,-241.576 796,-231.577 792.5,-241.577 799.5,-241.576"/>
</g>
<!-- Node6 -->
<g id="node7" class="node"><title>Node6</title>
<polygon fill="white" stroke="#bfbfbf" points="0,-134.5 0,-153.5 52,-153.5 52,-134.5 0,-134.5"/>
<text text-anchor="middle" x="26" y="-141.5" font-family="Arial" font-size="10.00">stddef.h</text>
</g>
<!-- Node4&#45;&gt;Node6 -->
<g id="edge48" class="edge"><title>Node4&#45;&gt;Node6</title>
<path fill="none" stroke="midnightblue" d="M780.214,-268.343C754.679,-245.51 706.678,-202.898 702,-201 570.825,-147.781 202.798,-201.405 66,-165 60.279,-163.477 54.4174,-161.088 49.0065,-158.482"/>
<polygon fill="midnightblue" stroke="midnightblue" points="50.3634,-155.242 39.8813,-153.7 47.1142,-161.442 50.3634,-155.242"/>
</g>
<!-- Node8 -->
<g id="node9" class="node"><title>Node8</title>
<g id="a_node9"><a xlink:href="common_8h.html" target="_top" xlink:title="mir_toolkit/common.h">
<polygon fill="white" stroke="black" points="1516,-134.5 1516,-153.5 1626,-153.5 1626,-134.5 1516,-134.5"/>
<text text-anchor="middle" x="1571" y="-141.5" font-family="Arial" font-size="10.00">mir_toolkit/common.h</text>
</a>
</g>
</g>
<!-- Node4&#45;&gt;Node8 -->
<g id="edge46" class="edge"><title>Node4&#45;&gt;Node8</title>
<path fill="none" stroke="midnightblue" d="M840.156,-270.023C843.14,-269.302 846.108,-268.62 849,-268 1138.43,-205.958 1218.73,-232.217 1507,-165 1516.84,-162.705 1527.37,-159.665 1536.99,-156.651"/>
<polygon fill="midnightblue" stroke="midnightblue" points="1538.17,-159.948 1546.62,-153.55 1536.03,-153.285 1538.17,-159.948"/>
</g>
<!-- Node9 -->
<g id="node10" class="node"><title>Node9</title>
<g id="a_node10"><a xlink:href="deprecations_8h.html" target="_top" xlink:title="mir_toolkit/deprecations.h">
<polygon fill="white" stroke="black" points="1325,-62 1325,-81 1453,-81 1453,-62 1325,-62"/>
<text text-anchor="middle" x="1389" y="-69" font-family="Arial" font-size="10.00">mir_toolkit/deprecations.h</text>
</a>
</g>
</g>
<!-- Node4&#45;&gt;Node9 -->
<g id="edge47" class="edge"><title>Node4&#45;&gt;Node9</title>
<path fill="none" stroke="midnightblue" d="M840.119,-269.841C843.112,-269.164 846.093,-268.541 849,-268 1022.18,-235.759 1520.4,-298.789 1635,-165 1686.87,-104.438 1553.28,-83.4554 1463.26,-76.2368"/>
<polygon fill="midnightblue" stroke="midnightblue" points="1463.3,-72.7296 1453.06,-75.4621 1462.77,-79.7095 1463.3,-72.7296"/>
</g>
<!-- Node5&#45;&gt;Node6 -->
<g id="edge6" class="edge"><title>Node5&#45;&gt;Node6</title>
<path fill="none" stroke="midnightblue" d="M748.873,-203.414C744.207,-202.484 739.525,-201.654 735,-201 440.3,-158.398 353.855,-241.176 66,-165 60.183,-163.461 54.2221,-161.02 48.7376,-158.366"/>
<polygon fill="midnightblue" stroke="midnightblue" points="49.9922,-155.071 39.5138,-153.504 46.7282,-161.263 49.9922,-155.071"/>
</g>
<!-- Node7 -->
<g id="node8" class="node"><title>Node7</title>
<polygon fill="white" stroke="#bfbfbf" points="93.5,-0.5 93.5,-19.5 142.5,-19.5 142.5,-0.5 93.5,-0.5"/>
<text text-anchor="middle" x="118" y="-7.5" font-family="Arial" font-size="10.00">stdint.h</text>
</g>
<!-- Node5&#45;&gt;Node7 -->
<g id="edge7" class="edge"><title>Node5&#45;&gt;Node7</title>
<path fill="none" stroke="midnightblue" d="M748.768,-203.574C743.804,-202.585 738.814,-201.698 734,-201 666.149,-191.157 165.045,-214.874 118,-165 83.2224,-128.131 99.951,-61.419 110.975,-29.2795"/>
<polygon fill="midnightblue" stroke="midnightblue" points="114.294,-30.3926 114.412,-19.7984 107.713,-28.0068 114.294,-30.3926"/>
</g>
<!-- Node5&#45;&gt;Node8 -->
<g id="edge8" class="edge"><title>Node5&#45;&gt;Node8</title>
<path fill="none" stroke="midnightblue" d="M843.268,-213.575C980.786,-207.747 1379.02,-189.201 1507,-165 1517.47,-163.021 1528.63,-159.901 1538.65,-156.71"/>
<polygon fill="midnightblue" stroke="midnightblue" points="1539.83,-160.004 1548.22,-153.534 1537.63,-153.36 1539.83,-160.004"/>
</g>
<!-- Node5&#45;&gt;Node9 -->
<g id="edge10" class="edge"><title>Node5&#45;&gt;Node9</title>
<path fill="none" stroke="midnightblue" d="M843.204,-214.268C942.444,-211.01 1169.14,-199.87 1237,-165 1259.39,-153.494 1254.6,-137.753 1275,-123 1298.48,-106.017 1328.58,-92.9855 1351.95,-84.4176"/>
<polygon fill="midnightblue" stroke="midnightblue" points="1353.27,-87.6651 1361.52,-81.0204 1350.92,-81.0687 1353.27,-87.6651"/>
</g>
<!-- Node10 -->
<g id="node11" class="node"><title>Node10</title>
<g id="a_node11"><a xlink:href="input__event_8h.html" target="_top" xlink:title="mir_toolkit/events\l/input/input_event.h">
<polygon fill="white" stroke="black" points="127,-129 127,-159 229,-159 229,-129 127,-129"/>
<text text-anchor="start" x="135" y="-147" font-family="Arial" font-size="10.00">mir_toolkit/events</text>
<text text-anchor="middle" x="178" y="-136" font-family="Arial" font-size="10.00">/input/input_event.h</text>
</a>
</g>
</g>
<!-- Node5&#45;&gt;Node10 -->
<g id="edge11" class="edge"><title>Node5&#45;&gt;Node10</title>
<path fill="none" stroke="midnightblue" d="M748.965,-205.423C741.277,-203.724 733.423,-202.144 726,-201 507.114,-167.282 446.183,-208.354 229,-165 224.821,-164.166 220.53,-163.125 216.288,-161.959"/>
<polygon fill="midnightblue" stroke="midnightblue" points="217.14,-158.561 206.556,-159.05 215.135,-165.267 217.14,-158.561"/>
</g>
<!-- Node17 -->
<g id="node18" class="node"><title>Node17</title>
<g id="a_node18"><a xlink:href="resize__event_8h.html" target="_top" xlink:title="mir_toolkit/events\l/resize_event.h">
<polygon fill="white" stroke="black" points="247,-129 247,-159 341,-159 341,-129 247,-129"/>
<text text-anchor="start" x="255" y="-147" font-family="Arial" font-size="10.00">mir_toolkit/events</text>
<text text-anchor="middle" x="294" y="-136" font-family="Arial" font-size="10.00">/resize_event.h</text>
</a>
</g>
</g>
<!-- Node5&#45;&gt;Node17 -->
<g id="edge22" class="edge"><title>Node5&#45;&gt;Node17</title>
<path fill="none" stroke="midnightblue" d="M748.945,-205.547C741.258,-203.837 733.411,-202.221 726,-201 556.429,-173.059 508.785,-202.191 341,-165 337.359,-164.193 333.63,-163.215 329.937,-162.132"/>
<polygon fill="midnightblue" stroke="midnightblue" points="330.916,-158.77 320.325,-159.058 328.784,-165.438 330.916,-158.77"/>
</g>
<!-- Node18 -->
<g id="node19" class="node"><title>Node18</title>
<g id="a_node19"><a xlink:href="surface__event_8h.html" target="_top" xlink:title="mir_toolkit/events\l/surface_event.h">
<polygon fill="white" stroke="black" points="1284,-129 1284,-159 1378,-159 1378,-129 1284,-129"/>
<text text-anchor="start" x="1292" y="-147" font-family="Arial" font-size="10.00">mir_toolkit/events</text>
<text text-anchor="middle" x="1331" y="-136" font-family="Arial" font-size="10.00">/surface_event.h</text>
</a>
</g>
</g>
<!-- Node5&#45;&gt;Node18 -->
<g id="edge24" class="edge"><title>Node5&#45;&gt;Node18</title>
<path fill="none" stroke="midnightblue" d="M843.292,-213.502C927.985,-209.361 1110.3,-197.354 1261,-165 1265.28,-164.08 1269.69,-162.971 1274.11,-161.753"/>
<polygon fill="midnightblue" stroke="midnightblue" points="1275.16,-165.095 1283.78,-158.942 1273.2,-158.373 1275.16,-165.095"/>
</g>
<!-- Node19 -->
<g id="node20" class="node"><title>Node19</title>
<g id="a_node20"><a xlink:href="window__event_8h.html" target="_top" xlink:title="mir_toolkit/events\l/window_event.h">
<polygon fill="white" stroke="black" points="359,-129 359,-159 453,-159 453,-129 359,-129"/>
<text text-anchor="start" x="367" y="-147" font-family="Arial" font-size="10.00">mir_toolkit/events</text>
<text text-anchor="middle" x="406" y="-136" font-family="Arial" font-size="10.00">/window_event.h</text>
</a>
</g>
</g>
<!-- Node5&#45;&gt;Node19 -->
<g id="edge27" class="edge"><title>Node5&#45;&gt;Node19</title>
<path fill="none" stroke="midnightblue" d="M748.906,-205.771C741.223,-204.042 733.387,-202.361 726,-201 605.643,-178.82 571.961,-193.742 453,-165 449.585,-164.175 446.088,-163.216 442.613,-162.173"/>
<polygon fill="midnightblue" stroke="midnightblue" points="443.554,-158.799 432.962,-159.053 441.401,-165.459 443.554,-158.799"/>
</g>
<!-- Node20 -->
<g id="node21" class="node"><title>Node20</title>
<g id="a_node21"><a xlink:href="orientation__event_8h.html" target="_top" xlink:title="mir_toolkit/events\l/orientation_event.h">
<polygon fill="white" stroke="black" points="471,-129 471,-159 573,-159 573,-129 471,-129"/>
<text text-anchor="start" x="479" y="-147" font-family="Arial" font-size="10.00">mir_toolkit/events</text>
<text text-anchor="middle" x="522" y="-136" font-family="Arial" font-size="10.00">/orientation_event.h</text>
</a>
</g>
</g>
<!-- Node5&#45;&gt;Node20 -->
<g id="edge29" class="edge"><title>Node5&#45;&gt;Node20</title>
<path fill="none" stroke="midnightblue" d="M748.782,-206.359C741.11,-204.579 733.309,-202.729 726,-201 658.018,-184.922 640.205,-184.065 573,-165 569.831,-164.101 566.581,-163.138 563.326,-162.138"/>
<polygon fill="midnightblue" stroke="midnightblue" points="564.218,-158.749 553.627,-159.057 562.098,-165.421 564.218,-158.749"/>
</g>
<!-- Node21 -->
<g id="node22" class="node"><title>Node21</title>
<g id="a_node22"><a xlink:href="prompt__session__event_8h.html" target="_top" xlink:title="mir_toolkit/events\l/prompt_session_event.h">
<polygon fill="white" stroke="black" points="591,-129 591,-159 717,-159 717,-129 591,-129"/>
<text text-anchor="start" x="599" y="-147" font-family="Arial" font-size="10.00">mir_toolkit/events</text>
<text text-anchor="middle" x="654" y="-136" font-family="Arial" font-size="10.00">/prompt_session_event.h</text>
</a>
</g>
</g>
<!-- Node5&#45;&gt;Node21 -->
<g id="edge31" class="edge"><title>Node5&#45;&gt;Node21</title>
<path fill="none" stroke="midnightblue" d="M762.079,-201.403C738.877,-190.596 708.458,-175.579 685.737,-163.758"/>
<polygon fill="midnightblue" stroke="midnightblue" points="687.303,-160.627 676.822,-159.073 684.046,-166.823 687.303,-160.627"/>
</g>
<!-- Node22 -->
<g id="node23" class="node"><title>Node22</title>
<g id="a_node23"><a xlink:href="keymap__event_8h.html" target="_top" xlink:title="mir_toolkit/events\l/keymap_event.h">
<polygon fill="white" stroke="black" points="994,-129 994,-159 1088,-159 1088,-129 994,-129"/>
<text text-anchor="start" x="1002" y="-147" font-family="Arial" font-size="10.00">mir_toolkit/events</text>
<text text-anchor="middle" x="1041" y="-136" font-family="Arial" font-size="10.00">/keymap_event.h</text>
</a>
</g>
</g>
<!-- Node5&#45;&gt;Node22 -->
<g id="edge33" class="edge"><title>Node5&#45;&gt;Node22</title>
<path fill="none" stroke="midnightblue" d="M843.017,-201.986C879.294,-192.378 930.444,-178.78 975,-165 978.056,-164.055 981.193,-163.051 984.363,-162.016"/>
<polygon fill="midnightblue" stroke="midnightblue" points="985.537,-165.314 993.927,-158.844 983.333,-158.67 985.537,-165.314"/>
</g>
<!-- Node23 -->
<g id="node24" class="node"><title>Node23</title>
<g id="a_node24"><a xlink:href="input__configuration__event_8h.html" target="_top" xlink:title="mir_toolkit/events\l/input_configuration\l_event.h">
<polygon fill="white" stroke="black" points="1396.5,-123.5 1396.5,-164.5 1497.5,-164.5 1497.5,-123.5 1396.5,-123.5"/>
<text text-anchor="start" x="1404.5" y="-152.5" font-family="Arial" font-size="10.00">mir_toolkit/events</text>
<text text-anchor="start" x="1404.5" y="-141.5" font-family="Arial" font-size="10.00">/input_configuration</text>
<text text-anchor="middle" x="1447" y="-130.5" font-family="Arial" font-size="10.00">_event.h</text>
</a>
</g>
</g>
<!-- Node5&#45;&gt;Node23 -->
<g id="edge36" class="edge"><title>Node5&#45;&gt;Node23</title>
<path fill="none" stroke="midnightblue" d="M843.306,-215.159C943.215,-213.578 1182.09,-205.426 1378,-165 1380.82,-164.418 1383.7,-163.744 1386.59,-163.005"/>
<polygon fill="midnightblue" stroke="midnightblue" points="1387.77,-166.31 1396.48,-160.272 1385.91,-159.563 1387.77,-166.31"/>
</g>
<!-- Node24 -->
<g id="node25" class="node"><title>Node24</title>
<g id="a_node25"><a xlink:href="surface__output__event_8h.html" target="_top" xlink:title="mir_toolkit/events\l/surface_output_event.h">
<polygon fill="white" stroke="black" points="1106,-129 1106,-159 1228,-159 1228,-129 1106,-129"/>
<text text-anchor="start" x="1114" y="-147" font-family="Arial" font-size="10.00">mir_toolkit/events</text>
<text text-anchor="middle" x="1167" y="-136" font-family="Arial" font-size="10.00">/surface_output_event.h</text>
</a>
</g>
</g>
<!-- Node5&#45;&gt;Node24 -->
<g id="edge39" class="edge"><title>Node5&#45;&gt;Node24</title>
<path fill="none" stroke="midnightblue" d="M843.091,-208.353C901.113,-199.867 1002.2,-184.389 1088,-165 1092.54,-163.974 1097.22,-162.83 1101.93,-161.623"/>
<polygon fill="midnightblue" stroke="midnightblue" points="1102.84,-165.002 1111.63,-159.073 1101.06,-158.232 1102.84,-165.002"/>
</g>
<!-- Node25 -->
<g id="node26" class="node"><title>Node25</title>
<g id="a_node26"><a xlink:href="window__output__event_8h.html" target="_top" xlink:title="mir_toolkit/events\l/window_output_event.h">
<polygon fill="white" stroke="black" points="735.5,-129 735.5,-159 856.5,-159 856.5,-129 735.5,-129"/>
<text text-anchor="start" x="743.5" y="-147" font-family="Arial" font-size="10.00">mir_toolkit/events</text>
<text text-anchor="middle" x="796" y="-136" font-family="Arial" font-size="10.00">/window_output_event.h</text>
</a>
</g>
</g>
<!-- Node5&#45;&gt;Node25 -->
<g id="edge42" class="edge"><title>Node5&#45;&gt;Node25</title>
<path fill="none" stroke="midnightblue" d="M790.451,-201.233C789.249,-192.06 788.949,-179.905 789.551,-169.244"/>
<polygon fill="midnightblue" stroke="midnightblue" points="793.041,-169.52 790.454,-159.246 786.069,-168.89 793.041,-169.52"/>
</g>
<!-- Node26 -->
<g id="node27" class="node"><title>Node26</title>
<g id="a_node27"><a xlink:href="input__device__state__event_8h.html" target="_top" xlink:title="mir_toolkit/events\l/input_device_state\l_event.h">
<polygon fill="white" stroke="black" points="874.5,-123.5 874.5,-164.5 975.5,-164.5 975.5,-123.5 874.5,-123.5"/>
<text text-anchor="start" x="882.5" y="-152.5" font-family="Arial" font-size="10.00">mir_toolkit/events</text>
<text text-anchor="start" x="882.5" y="-141.5" font-family="Arial" font-size="10.00">/input_device_state</text>
<text text-anchor="middle" x="925" y="-130.5" font-family="Arial" font-size="10.00">_event.h</text>
</a>
</g>
</g>
<!-- Node5&#45;&gt;Node26 -->
<g id="edge44" class="edge"><title>Node5&#45;&gt;Node26</title>
<path fill="none" stroke="midnightblue" d="M816.269,-201.403C831.821,-192.238 853.82,-180.047 874.003,-169.343"/>
<polygon fill="midnightblue" stroke="midnightblue" points="875.899,-172.3 883.119,-164.546 872.639,-166.106 875.899,-172.3"/>
</g>
<!-- Node8&#45;&gt;Node9 -->
<g id="edge9" class="edge"><title>Node8&#45;&gt;Node9</title>
<path fill="none" stroke="midnightblue" d="M1549.05,-134.496C1517.07,-122.11 1457.51,-99.0366 1420.75,-84.7992"/>
<polygon fill="midnightblue" stroke="midnightblue" points="1421.62,-81.3826 1411.03,-81.0341 1419.09,-87.91 1421.62,-81.3826"/>
</g>
<!-- Node10&#45;&gt;Node5 -->
<g id="edge12" class="edge"><title>Node10&#45;&gt;Node5</title>
<path fill="none" stroke="midnightblue" d="M224.204,-159.05C231.787,-161.38 239.57,-163.517 247,-165 460.895,-207.698 523.234,-168.506 738.842,-200.288"/>
<polygon fill="midnightblue" stroke="midnightblue" points="738.482,-203.774 748.893,-201.804 739.527,-196.852 738.482,-203.774"/>
</g>
<!-- Node10&#45;&gt;Node7 -->
<g id="edge15" class="edge"><title>Node10&#45;&gt;Node7</title>
<path fill="none" stroke="midnightblue" d="M165.171,-128.791C156.085,-118.027 144.264,-102.492 137,-87 128.358,-68.5695 123.326,-45.7115 120.638,-29.9031"/>
<polygon fill="midnightblue" stroke="midnightblue" points="124.063,-29.1499 119.076,-19.8021 117.145,-30.2195 124.063,-29.1499"/>
</g>
<!-- Node11 -->
<g id="node12" class="node"><title>Node11</title>
<g id="a_node12"><a xlink:href="mir__input__device__types_8h.html" target="_top" xlink:title="mir_toolkit/mir_input\l_device_types.h">
<polygon fill="white" stroke="black" points="146,-56.5 146,-86.5 250,-86.5 250,-56.5 146,-56.5"/>
<text text-anchor="start" x="154" y="-74.5" font-family="Arial" font-size="10.00">mir_toolkit/mir_input</text>
<text text-anchor="middle" x="198" y="-63.5" font-family="Arial" font-size="10.00">_device_types.h</text>
</a>
</g>
</g>
<!-- Node10&#45;&gt;Node11 -->
<g id="edge13" class="edge"><title>Node10&#45;&gt;Node11</title>
<path fill="none" stroke="midnightblue" d="M182.047,-128.733C184.677,-119.464 188.17,-107.152 191.217,-96.4109"/>
<polygon fill="midnightblue" stroke="midnightblue" points="194.597,-97.3211 193.959,-86.7455 187.862,-95.4106 194.597,-97.3211"/>
</g>
<!-- Node12 -->
<g id="node13" class="node"><title>Node12</title>
<polygon fill="white" stroke="#bfbfbf" points="460,-0.5 460,-19.5 516,-19.5 516,-0.5 460,-0.5"/>
<text text-anchor="middle" x="488" y="-7.5" font-family="Arial" font-size="10.00">stdbool.h</text>
</g>
<!-- Node10&#45;&gt;Node12 -->
<g id="edge16" class="edge"><title>Node10&#45;&gt;Node12</title>
<path fill="none" stroke="midnightblue" d="M216.422,-128.991C223.529,-126.744 230.938,-124.627 238,-123 297.63,-109.262 470.658,-133.011 511,-87 525.57,-70.383 512.872,-44.7742 501.344,-27.9518"/>
<polygon fill="midnightblue" stroke="midnightblue" points="503.975,-25.6202 495.241,-19.6228 498.329,-29.7578 503.975,-25.6202"/>
</g>
<!-- Node13 -->
<g id="node14" class="node"><title>Node13</title>
<g id="a_node14"><a xlink:href="touch__event_8h.html" target="_top" xlink:title="mir_toolkit/events\l/input/touch_event.h">
<polygon fill="white" stroke="black" points="268.5,-56.5 268.5,-86.5 373.5,-86.5 373.5,-56.5 268.5,-56.5"/>
<text text-anchor="start" x="276.5" y="-74.5" font-family="Arial" font-size="10.00">mir_toolkit/events</text>
<text text-anchor="middle" x="321" y="-63.5" font-family="Arial" font-size="10.00">/input/touch_event.h</text>
</a>
</g>
</g>
<!-- Node10&#45;&gt;Node13 -->
<g id="edge17" class="edge"><title>Node10&#45;&gt;Node13</title>
<path fill="none" stroke="midnightblue" d="M206.594,-128.903C228.613,-118.048 259.245,-102.946 283.272,-91.1004"/>
<polygon fill="midnightblue" stroke="midnightblue" points="285.034,-94.134 292.455,-86.5729 281.938,-87.8556 285.034,-94.134"/>
</g>
<!-- Node14 -->
<g id="node15" class="node"><title>Node14</title>
<g id="a_node15"><a xlink:href="keyboard__event_8h.html" target="_top" xlink:title="mir_toolkit/events\l/input/keyboard_event.h">
<polygon fill="white" stroke="black" points="641.5,-56.5 641.5,-86.5 762.5,-86.5 762.5,-56.5 641.5,-56.5"/>
<text text-anchor="start" x="649.5" y="-74.5" font-family="Arial" font-size="10.00">mir_toolkit/events</text>
<text text-anchor="middle" x="702" y="-63.5" font-family="Arial" font-size="10.00">/input/keyboard_event.h</text>
</a>
</g>
</g>
<!-- Node10&#45;&gt;Node14 -->
<g id="edge18" class="edge"><title>Node10&#45;&gt;Node14</title>
<path fill="none" stroke="midnightblue" d="M216.069,-128.96C223.278,-126.688 230.813,-124.57 238,-123 275.403,-114.829 510.466,-91.1993 630.959,-79.389"/>
<polygon fill="midnightblue" stroke="midnightblue" points="631.584,-82.8447 641.195,-78.3872 630.902,-75.878 631.584,-82.8447"/>
</g>
<!-- Node16 -->
<g id="node17" class="node"><title>Node16</title>
<g id="a_node17"><a xlink:href="pointer__event_8h.html" target="_top" xlink:title="mir_toolkit/events\l/input/pointer_event.h">
<polygon fill="white" stroke="black" points="392,-56.5 392,-86.5 502,-86.5 502,-56.5 392,-56.5"/>
<text text-anchor="start" x="400" y="-74.5" font-family="Arial" font-size="10.00">mir_toolkit/events</text>
<text text-anchor="middle" x="447" y="-63.5" font-family="Arial" font-size="10.00">/input/pointer_event.h</text>
</a>
</g>
</g>
<!-- Node10&#45;&gt;Node16 -->
<g id="edge20" class="edge"><title>Node10&#45;&gt;Node16</title>
<path fill="none" stroke="midnightblue" d="M218.521,-128.976C225.007,-126.881 231.667,-124.817 238,-123 264.659,-115.351 330.785,-99.5674 381.58,-87.6697"/>
<polygon fill="midnightblue" stroke="midnightblue" points="382.578,-91.0308 391.518,-85.3455 380.984,-84.2147 382.578,-91.0308"/>
</g>
<!-- Node11&#45;&gt;Node7 -->
<g id="edge14" class="edge"><title>Node11&#45;&gt;Node7</title>
<path fill="none" stroke="midnightblue" d="M179.041,-56.3993C166.577,-47.1293 150.303,-35.0254 137.693,-25.6469"/>
<polygon fill="midnightblue" stroke="midnightblue" points="139.753,-22.8173 129.641,-19.6578 135.576,-28.4341 139.753,-22.8173"/>
</g>
<!-- Node15 -->
<g id="node16" class="node"><title>Node15</title>
<polygon fill="white" stroke="#bfbfbf" points="721,-0.5 721,-19.5 855,-19.5 855,-0.5 721,-0.5"/>
<text text-anchor="middle" x="788" y="-7.5" font-family="Arial" font-size="10.00">xkbcommon/xkbcommon.h</text>
</g>
<!-- Node14&#45;&gt;Node15 -->
<g id="edge19" class="edge"><title>Node14&#45;&gt;Node15</title>
<path fill="none" stroke="midnightblue" d="M722.381,-56.3993C735.908,-47.0402 753.611,-34.7924 767.22,-25.3771"/>
<polygon fill="midnightblue" stroke="midnightblue" points="769.254,-28.2257 775.486,-19.6578 765.271,-22.4692 769.254,-28.2257"/>
</g>
<!-- Node16&#45;&gt;Node12 -->
<g id="edge21" class="edge"><title>Node16&#45;&gt;Node12</title>
<path fill="none" stroke="midnightblue" d="M456.716,-56.3993C462.551,-47.9315 470.016,-37.0991 476.19,-28.1393"/>
<polygon fill="midnightblue" stroke="midnightblue" points="479.242,-29.8781 482.034,-19.6578 473.478,-25.9062 479.242,-29.8781"/>
</g>
<!-- Node17&#45;&gt;Node5 -->
<g id="edge23" class="edge"><title>Node17&#45;&gt;Node5</title>
<path fill="none" stroke="midnightblue" d="M337.988,-159.058C344.982,-161.358 352.146,-163.481 359,-165 523.508,-201.464 572.522,-174.172 738.807,-200.228"/>
<polygon fill="midnightblue" stroke="midnightblue" points="738.456,-203.716 748.885,-201.849 739.568,-196.805 738.456,-203.716"/>
</g>
<!-- Node18&#45;&gt;Node5 -->
<g id="edge25" class="edge"><title>Node18&#45;&gt;Node5</title>
<path fill="none" stroke="midnightblue" d="M1301.12,-159.044C1293.96,-161.316 1286.3,-163.433 1279,-165 1127.66,-197.492 944.435,-209.463 853.197,-213.554"/>
<polygon fill="midnightblue" stroke="midnightblue" points="852.904,-210.063 843.065,-213.993 853.207,-217.057 852.904,-210.063"/>
</g>
<!-- Node18&#45;&gt;Node9 -->
<g id="edge26" class="edge"><title>Node18&#45;&gt;Node9</title>
<path fill="none" stroke="midnightblue" d="M1342.74,-128.733C1352.11,-117.337 1365.27,-101.339 1375.16,-89.3197"/>
<polygon fill="midnightblue" stroke="midnightblue" points="1378.03,-91.3393 1381.68,-81.3932 1372.63,-86.892 1378.03,-91.3393"/>
</g>
<!-- Node19&#45;&gt;Node5 -->
<g id="edge28" class="edge"><title>Node19&#45;&gt;Node5</title>
<path fill="none" stroke="midnightblue" d="M450.654,-159.053C457.447,-161.295 464.377,-163.4 471,-165 586.708,-192.956 621.737,-179.603 738.8,-200.118"/>
<polygon fill="midnightblue" stroke="midnightblue" points="738.409,-203.604 748.871,-201.93 739.649,-196.715 738.409,-203.604"/>
</g>
<!-- Node20&#45;&gt;Node5 -->
<g id="edge30" class="edge"><title>Node20&#45;&gt;Node5</title>
<path fill="none" stroke="midnightblue" d="M571.396,-159.057C577.999,-161.148 584.662,-163.202 591,-165 655.055,-183.171 674.24,-184.802 738.94,-199.825"/>
<polygon fill="midnightblue" stroke="midnightblue" points="738.292,-203.268 748.827,-202.143 739.889,-196.453 738.292,-203.268"/>
</g>
<!-- Node21&#45;&gt;Node5 -->
<g id="edge32" class="edge"><title>Node21&#45;&gt;Node5</title>
<path fill="none" stroke="midnightblue" d="M687.868,-159.073C711.06,-169.874 741.479,-184.889 764.212,-196.715"/>
<polygon fill="midnightblue" stroke="midnightblue" points="762.651,-199.849 773.132,-201.403 765.908,-193.653 762.651,-199.849"/>
</g>
<!-- Node22&#45;&gt;Node5 -->
<g id="edge34" class="edge"><title>Node22&#45;&gt;Node5</title>
<path fill="none" stroke="midnightblue" d="M1011.08,-159.055C1005.13,-161.124 998.911,-163.172 993,-165 946.418,-179.406 892.63,-193.614 852.942,-203.271"/>
<polygon fill="midnightblue" stroke="midnightblue" points="852.07,-199.881 843.168,-205.626 853.71,-206.686 852.07,-199.881"/>
</g>
<!-- Node22&#45;&gt;Node15 -->
<g id="edge35" class="edge"><title>Node22&#45;&gt;Node15</title>
<path fill="none" stroke="midnightblue" d="M1013.92,-128.874C964.79,-103.238 861.594,-49.3967 813.58,-24.3461"/>
<polygon fill="midnightblue" stroke="midnightblue" points="814.963,-21.1199 804.478,-19.5973 811.725,-27.326 814.963,-21.1199"/>
</g>
<!-- Node23&#45;&gt;Node5 -->
<g id="edge37" class="edge"><title>Node23&#45;&gt;Node5</title>
<path fill="none" stroke="midnightblue" d="M1398.27,-164.515C1397.51,-164.683 1396.75,-164.845 1396,-165 1200.06,-205.432 961.14,-213.581 853.391,-215.16"/>
<polygon fill="midnightblue" stroke="midnightblue" points="853.023,-211.664 843.07,-215.297 853.116,-218.664 853.023,-211.664"/>
</g>
<!-- Node23&#45;&gt;Node9 -->
<g id="edge38" class="edge"><title>Node23&#45;&gt;Node9</title>
<path fill="none" stroke="midnightblue" d="M1430.84,-123.362C1421.94,-112.539 1411.01,-99.2568 1402.56,-88.9795"/>
<polygon fill="midnightblue" stroke="midnightblue" points="1405.19,-86.6722 1396.14,-81.1734 1399.79,-91.1195 1405.19,-86.6722"/>
</g>
<!-- Node24&#45;&gt;Node5 -->
<g id="edge40" class="edge"><title>Node24&#45;&gt;Node5</title>
<path fill="none" stroke="midnightblue" d="M1129.37,-159.073C1121.69,-161.209 1113.64,-163.273 1106,-165 1018.85,-184.695 915.927,-200.353 853.24,-208.749"/>
<polygon fill="midnightblue" stroke="midnightblue" points="852.609,-205.302 843.155,-210.083 853.527,-212.241 852.609,-205.302"/>
</g>
<!-- Node24&#45;&gt;Node9 -->
<g id="edge41" class="edge"><title>Node24&#45;&gt;Node9</title>
<path fill="none" stroke="midnightblue" d="M1211.13,-128.987C1252.45,-115.864 1313.49,-96.4808 1352.24,-84.1749"/>
<polygon fill="midnightblue" stroke="midnightblue" points="1353.59,-87.4176 1362.06,-81.055 1351.47,-80.7459 1353.59,-87.4176"/>
</g>
<!-- Node25&#45;&gt;Node5 -->
<g id="edge43" class="edge"><title>Node25&#45;&gt;Node5</title>
<path fill="none" stroke="midnightblue" d="M801.546,-159.246C802.749,-168.414 803.051,-180.568 802.45,-191.232"/>
<polygon fill="midnightblue" stroke="midnightblue" points="798.96,-190.959 801.549,-201.233 805.932,-191.588 798.96,-190.959"/>
</g>
<!-- Node26&#45;&gt;Node5 -->
<g id="edge45" class="edge"><title>Node26&#45;&gt;Node5</title>
<path fill="none" stroke="midnightblue" d="M895.117,-164.68C877.62,-174.711 855.386,-186.847 836.366,-196.743"/>
<polygon fill="midnightblue" stroke="midnightblue" points="834.608,-193.712 827.321,-201.403 837.814,-199.934 834.608,-193.712"/>
</g>
</g>
</svg>
