<?xml version="1.0" encoding="UTF-8" standalone="no"?>
<!DOCTYPE svg PUBLIC "-//W3C//DTD SVG 1.1//EN"
 "http://www.w3.org/Graphics/SVG/1.1/DTD/svg11.dtd">
<!-- Generated by graphviz version 2.38.0 (20140413.2041)
 -->
<!-- Title: include/test/mir/test/doubles/stub_display_buffer.h Pages: 1 -->
<svg width="264pt" height="262pt"
 viewBox="0.00 0.00 264.00 262.00" xmlns="http://www.w3.org/2000/svg" xmlns:xlink="http://www.w3.org/1999/xlink">
<g id="graph0" class="graph" transform="scale(1 1) rotate(0) translate(4 258)">
<title>include/test/mir/test/doubles/stub_display_buffer.h</title>
<polygon fill="white" stroke="none" points="-4,4 -4,-258 260,-258 260,4 -4,4"/>
<!-- Node9 -->
<g id="node1" class="node"><title>Node9</title>
<polygon fill="#bfbfbf" stroke="black" points="72,-212.5 72,-253.5 183,-253.5 183,-212.5 72,-212.5"/>
<text text-anchor="start" x="80" y="-241.5" font-family="Arial" font-size="10.00">include/test/mir/test</text>
<text text-anchor="start" x="80" y="-230.5" font-family="Arial" font-size="10.00">/doubles/stub_display</text>
<text text-anchor="middle" x="127.5" y="-219.5" font-family="Arial" font-size="10.00">_buffer.h</text>
</g>
<!-- Node10 -->
<g id="node2" class="node"><title>Node10</title>
<g id="a_node2"><a xlink:href="null__display__sync__group_8h.html" target="_top" xlink:title="include/test/mir/test\l/doubles/null_display\l_sync_group.h">
<polygon fill="white" stroke="black" points="74,-134.5 74,-175.5 181,-175.5 181,-134.5 74,-134.5"/>
<text text-anchor="start" x="82" y="-163.5" font-family="Arial" font-size="10.00">include/test/mir/test</text>
<text text-anchor="start" x="82" y="-152.5" font-family="Arial" font-size="10.00">/doubles/null_display</text>
<text text-anchor="middle" x="127.5" y="-141.5" font-family="Arial" font-size="10.00">_sync_group.h</text>
</a>
</g>
</g>
<!-- Node9&#45;&gt;Node10 -->
<g id="edge1" class="edge"><title>Node9&#45;&gt;Node10</title>
<path fill="none" stroke="midnightblue" d="M127.5,-202.297C127.5,-193.301 127.5,-183.653 127.5,-175.506"/>
<polygon fill="midnightblue" stroke="midnightblue" points="124,-202.428 127.5,-212.428 131,-202.428 124,-202.428"/>
</g>
<!-- Node11 -->
<g id="node3" class="node"><title>Node11</title>
<g id="a_node3"><a xlink:href="null__display_8h.html" target="_top" xlink:title="include/test/mir/test\l/doubles/null_display.h">
<polygon fill="white" stroke="black" points="69.5,-67.5 69.5,-97.5 185.5,-97.5 185.5,-67.5 69.5,-67.5"/>
<text text-anchor="start" x="77.5" y="-85.5" font-family="Arial" font-size="10.00">include/test/mir/test</text>
<text text-anchor="middle" x="127.5" y="-74.5" font-family="Arial" font-size="10.00">/doubles/null_display.h</text>
</a>
</g>
</g>
<!-- Node10&#45;&gt;Node11 -->
<g id="edge2" class="edge"><title>Node10&#45;&gt;Node11</title>
<path fill="none" stroke="midnightblue" d="M127.5,-124.08C127.5,-115.006 127.5,-105.45 127.5,-97.8916"/>
<polygon fill="midnightblue" stroke="midnightblue" points="124,-124.362 127.5,-134.362 131,-124.362 124,-124.362"/>
</g>
<!-- Node12 -->
<g id="node4" class="node"><title>Node12</title>
<g id="a_node4"><a xlink:href="fake__display_8h.html" target="_top" xlink:title="include/test/mir/test\l/doubles/fake_display.h">
<polygon fill="white" stroke="black" points="0,-0.5 0,-30.5 119,-30.5 119,-0.5 0,-0.5"/>
<text text-anchor="start" x="8" y="-18.5" font-family="Arial" font-size="10.00">include/test/mir/test</text>
<text text-anchor="middle" x="59.5" y="-7.5" font-family="Arial" font-size="10.00">/doubles/fake_display.h</text>
</a>
</g>
</g>
<!-- Node11&#45;&gt;Node12 -->
<g id="edge3" class="edge"><title>Node11&#45;&gt;Node12</title>
<path fill="none" stroke="midnightblue" d="M105.334,-60.3115C95.1333,-50.5612 83.3095,-39.259 74.2262,-30.5765"/>
<polygon fill="midnightblue" stroke="midnightblue" points="103.098,-63.0162 112.745,-67.396 107.935,-57.9561 103.098,-63.0162"/>
</g>
<!-- Node13 -->
<g id="node5" class="node"><title>Node13</title>
<g id="a_node5"><a xlink:href="null__platform_8h.html" target="_top" xlink:title="include/test/mir/test\l/doubles/null_platform.h">
<polygon fill="white" stroke="black" points="137,-0.5 137,-30.5 256,-30.5 256,-0.5 137,-0.5"/>
<text text-anchor="start" x="145" y="-18.5" font-family="Arial" font-size="10.00">include/test/mir/test</text>
<text text-anchor="middle" x="196.5" y="-7.5" font-family="Arial" font-size="10.00">/doubles/null_platform.h</text>
</a>
</g>
</g>
<!-- Node11&#45;&gt;Node13 -->
<g id="edge4" class="edge"><title>Node11&#45;&gt;Node13</title>
<path fill="none" stroke="midnightblue" d="M149.992,-60.3115C160.343,-50.5612 172.34,-39.259 181.557,-30.5765"/>
<polygon fill="midnightblue" stroke="midnightblue" points="147.351,-57.9914 142.472,-67.396 152.151,-63.0866 147.351,-57.9914"/>
</g>
</g>
</svg>
