<?xml version="1.0" encoding="UTF-8" standalone="no"?>
<!DOCTYPE svg PUBLIC "-//W3C//DTD SVG 1.1//EN"
 "http://www.w3.org/Graphics/SVG/1.1/DTD/svg11.dtd">
<!-- Generated by graphviz version 2.38.0 (20140413.2041)
 -->
<!-- Title: include/test/mir/test/doubles/stub_display_configuration.h Pages: 1 -->
<svg width="2101pt" height="385pt"
 viewBox="0.00 0.00 2101.00 385.00" xmlns="http://www.w3.org/2000/svg" xmlns:xlink="http://www.w3.org/1999/xlink">
<g id="graph0" class="graph" transform="scale(1 1) rotate(0) translate(4 381)">
<title>include/test/mir/test/doubles/stub_display_configuration.h</title>
<polygon fill="white" stroke="none" points="-4,4 -4,-381 2097,-381 2097,4 -4,4"/>
<!-- Node0 -->
<g id="node1" class="node"><title>Node0</title>
<polygon fill="#bfbfbf" stroke="black" points="87.5,-335.5 87.5,-376.5 198.5,-376.5 198.5,-335.5 87.5,-335.5"/>
<text text-anchor="start" x="95.5" y="-364.5" font-family="Arial" font-size="10.00">include/test/mir/test</text>
<text text-anchor="start" x="95.5" y="-353.5" font-family="Arial" font-size="10.00">/doubles/stub_display</text>
<text text-anchor="middle" x="143" y="-342.5" font-family="Arial" font-size="10.00">_configuration.h</text>
</g>
<!-- Node1 -->
<g id="node2" class="node"><title>Node1</title>
<polygon fill="white" stroke="#bfbfbf" points="0,-268.5 0,-298.5 104,-298.5 104,-268.5 0,-268.5"/>
<text text-anchor="start" x="8" y="-286.5" font-family="Arial" font-size="10.00">mir/graphics/display</text>
<text text-anchor="middle" x="52" y="-275.5" font-family="Arial" font-size="10.00">_configuration.h</text>
</g>
<!-- Node0&#45;&gt;Node1 -->
<g id="edge1" class="edge"><title>Node0&#45;&gt;Node1</title>
<path fill="none" stroke="midnightblue" d="M117.651,-335.362C105.431,-325.894 90.7797,-314.544 78.4216,-304.969"/>
<polygon fill="midnightblue" stroke="midnightblue" points="80.3391,-302.028 70.2904,-298.67 76.052,-307.561 80.3391,-302.028"/>
</g>
<!-- Node2 -->
<g id="node3" class="node"><title>Node2</title>
<polygon fill="white" stroke="#bfbfbf" points="122,-274 122,-293 164,-293 164,-274 122,-274"/>
<text text-anchor="middle" x="143" y="-281" font-family="Arial" font-size="10.00">vector</text>
</g>
<!-- Node0&#45;&gt;Node2 -->
<g id="edge2" class="edge"><title>Node0&#45;&gt;Node2</title>
<path fill="none" stroke="midnightblue" d="M143,-335.362C143,-325.297 143,-313.104 143,-303.18"/>
<polygon fill="midnightblue" stroke="midnightblue" points="146.5,-303.173 143,-293.173 139.5,-303.173 146.5,-303.173"/>
</g>
<!-- Node3 -->
<g id="node4" class="node"><title>Node3</title>
<g id="a_node4"><a xlink:href="client__types_8h.html" target="_top" xlink:title="mir_toolkit/client\l_types.h">
<polygon fill="white" stroke="black" points="182,-268.5 182,-298.5 270,-298.5 270,-268.5 182,-268.5"/>
<text text-anchor="start" x="190" y="-286.5" font-family="Arial" font-size="10.00">mir_toolkit/client</text>
<text text-anchor="middle" x="226" y="-275.5" font-family="Arial" font-size="10.00">_types.h</text>
</a>
</g>
</g>
<!-- Node0&#45;&gt;Node3 -->
<g id="edge3" class="edge"><title>Node0&#45;&gt;Node3</title>
<path fill="none" stroke="midnightblue" d="M166.12,-335.362C177.159,-325.985 190.373,-314.762 201.575,-305.246"/>
<polygon fill="midnightblue" stroke="midnightblue" points="203.962,-307.811 209.318,-298.67 199.43,-302.476 203.962,-307.811"/>
</g>
<!-- Node4 -->
<g id="node5" class="node"><title>Node4</title>
<g id="a_node5"><a xlink:href="toolkit_2events_2event_8h.html" target="_top" xlink:title="mir_toolkit/events\l/event.h">
<polygon fill="white" stroke="black" points="871,-201.5 871,-231.5 963,-231.5 963,-201.5 871,-201.5"/>
<text text-anchor="start" x="879" y="-219.5" font-family="Arial" font-size="10.00">mir_toolkit/events</text>
<text text-anchor="middle" x="917" y="-208.5" font-family="Arial" font-size="10.00">/event.h</text>
</a>
</g>
</g>
<!-- Node3&#45;&gt;Node4 -->
<g id="edge4" class="edge"><title>Node3&#45;&gt;Node4</title>
<path fill="none" stroke="midnightblue" d="M270.013,-278.36C390.683,-267.009 726.688,-235.402 860.734,-222.793"/>
<polygon fill="midnightblue" stroke="midnightblue" points="861.164,-226.268 870.792,-221.847 860.508,-219.299 861.164,-226.268"/>
</g>
<!-- Node5 -->
<g id="node6" class="node"><title>Node5</title>
<polygon fill="white" stroke="#bfbfbf" points="158.5,-134.5 158.5,-153.5 209.5,-153.5 209.5,-134.5 158.5,-134.5"/>
<text text-anchor="middle" x="184" y="-141.5" font-family="Arial" font-size="10.00">stddef.h</text>
</g>
<!-- Node3&#45;&gt;Node5 -->
<g id="edge47" class="edge"><title>Node3&#45;&gt;Node5</title>
<path fill="none" stroke="midnightblue" d="M221.663,-268.303C214.003,-243.225 198.087,-191.12 189.606,-163.352"/>
<polygon fill="midnightblue" stroke="midnightblue" points="192.926,-162.242 186.658,-153.701 186.232,-164.287 192.926,-162.242"/>
</g>
<!-- Node7 -->
<g id="node8" class="node"><title>Node7</title>
<g id="a_node8"><a xlink:href="common_8h.html" target="_top" xlink:title="mir_toolkit/common.h">
<polygon fill="white" stroke="black" points="228,-134.5 228,-153.5 338,-153.5 338,-134.5 228,-134.5"/>
<text text-anchor="middle" x="283" y="-141.5" font-family="Arial" font-size="10.00">mir_toolkit/common.h</text>
</a>
</g>
</g>
<!-- Node3&#45;&gt;Node7 -->
<g id="edge45" class="edge"><title>Node3&#45;&gt;Node7</title>
<path fill="none" stroke="midnightblue" d="M231.885,-268.303C242.327,-243.114 264.073,-190.658 275.545,-162.985"/>
<polygon fill="midnightblue" stroke="midnightblue" points="278.797,-164.279 279.393,-153.701 272.33,-161.598 278.797,-164.279"/>
</g>
<!-- Node8 -->
<g id="node9" class="node"><title>Node8</title>
<g id="a_node9"><a xlink:href="deprecations_8h.html" target="_top" xlink:title="mir_toolkit/deprecations.h">
<polygon fill="white" stroke="black" points="407,-62 407,-81 535,-81 535,-62 407,-62"/>
<text text-anchor="middle" x="471" y="-69" font-family="Arial" font-size="10.00">mir_toolkit/deprecations.h</text>
</a>
</g>
</g>
<!-- Node3&#45;&gt;Node8 -->
<g id="edge46" class="edge"><title>Node3&#45;&gt;Node8</title>
<path fill="none" stroke="midnightblue" d="M209.493,-268.308C176.905,-238.623 110.732,-168.929 150,-123 181.089,-86.6375 311.882,-76.2906 396.621,-73.4484"/>
<polygon fill="midnightblue" stroke="midnightblue" points="396.829,-76.9437 406.716,-73.1377 396.613,-69.947 396.829,-76.9437"/>
</g>
<!-- Node4&#45;&gt;Node5 -->
<g id="edge5" class="edge"><title>Node4&#45;&gt;Node5</title>
<path fill="none" stroke="midnightblue" d="M870.765,-214.821C735.35,-212.414 341.472,-202.307 219,-165 214.15,-163.523 209.243,-161.28 204.699,-158.824"/>
<polygon fill="midnightblue" stroke="midnightblue" points="206.4,-155.763 196.016,-153.658 202.82,-161.779 206.4,-155.763"/>
</g>
<!-- Node6 -->
<g id="node7" class="node"><title>Node6</title>
<polygon fill="white" stroke="#bfbfbf" points="1502.5,-0.5 1502.5,-19.5 1551.5,-19.5 1551.5,-0.5 1502.5,-0.5"/>
<text text-anchor="middle" x="1527" y="-7.5" font-family="Arial" font-size="10.00">stdint.h</text>
</g>
<!-- Node4&#45;&gt;Node6 -->
<g id="edge6" class="edge"><title>Node4&#45;&gt;Node6</title>
<path fill="none" stroke="midnightblue" d="M963.351,-214.925C1093.42,-212.834 1454.68,-203.574 1490,-165 1502.61,-151.233 1495.41,-140.866 1490,-123 1484.43,-104.595 1471.57,-105.405 1466,-87 1462.01,-73.8134 1459.79,-68.2987 1466,-56 1472.81,-42.5199 1485.77,-32.083 1498,-24.6696"/>
<polygon fill="midnightblue" stroke="midnightblue" points="1500.07,-27.5214 1507.09,-19.5896 1496.66,-21.4099 1500.07,-27.5214"/>
</g>
<!-- Node4&#45;&gt;Node7 -->
<g id="edge7" class="edge"><title>Node4&#45;&gt;Node7</title>
<path fill="none" stroke="midnightblue" d="M870.813,-214.676C773.322,-212.223 539.724,-202.571 348,-165 337.485,-162.94 326.257,-159.827 316.143,-156.666"/>
<polygon fill="midnightblue" stroke="midnightblue" points="317.059,-153.284 306.467,-153.527 314.899,-159.943 317.059,-153.284"/>
</g>
<!-- Node4&#45;&gt;Node8 -->
<g id="edge9" class="edge"><title>Node4&#45;&gt;Node8</title>
<path fill="none" stroke="midnightblue" d="M870.912,-215.88C813.711,-214.446 714.822,-205.589 642,-165 620.012,-152.744 624.789,-137.195 604,-123 577.296,-104.765 543.12,-91.9735 516.099,-83.8267"/>
<polygon fill="midnightblue" stroke="midnightblue" points="517.075,-80.4654 506.495,-81.0339 515.12,-87.187 517.075,-80.4654"/>
</g>
<!-- Node9 -->
<g id="node10" class="node"><title>Node9</title>
<g id="a_node10"><a xlink:href="input__event_8h.html" target="_top" xlink:title="mir_toolkit/events\l/input/input_event.h">
<polygon fill="white" stroke="black" points="1598.5,-129 1598.5,-159 1699.5,-159 1699.5,-129 1598.5,-129"/>
<text text-anchor="start" x="1606.5" y="-147" font-family="Arial" font-size="10.00">mir_toolkit/events</text>
<text text-anchor="middle" x="1649" y="-136" font-family="Arial" font-size="10.00">/input/input_event.h</text>
</a>
</g>
</g>
<!-- Node4&#45;&gt;Node9 -->
<g id="edge10" class="edge"><title>Node4&#45;&gt;Node9</title>
<path fill="none" stroke="midnightblue" d="M963.216,-212.521C1063.73,-206.157 1309.1,-189.765 1514,-165 1538.23,-162.071 1564.95,-157.958 1588.24,-154.223"/>
<polygon fill="midnightblue" stroke="midnightblue" points="1589.02,-157.643 1598.33,-152.595 1587.9,-150.732 1589.02,-157.643"/>
</g>
<!-- Node16 -->
<g id="node17" class="node"><title>Node16</title>
<g id="a_node17"><a xlink:href="resize__event_8h.html" target="_top" xlink:title="mir_toolkit/events\l/resize_event.h">
<polygon fill="white" stroke="black" points="761,-129 761,-159 853,-159 853,-129 761,-129"/>
<text text-anchor="start" x="769" y="-147" font-family="Arial" font-size="10.00">mir_toolkit/events</text>
<text text-anchor="middle" x="807" y="-136" font-family="Arial" font-size="10.00">/resize_event.h</text>
</a>
</g>
</g>
<!-- Node4&#45;&gt;Node16 -->
<g id="edge21" class="edge"><title>Node4&#45;&gt;Node16</title>
<path fill="none" stroke="midnightblue" d="M889.478,-201.403C871.75,-190.932 849.042,-176.51 831.86,-164.87"/>
<polygon fill="midnightblue" stroke="midnightblue" points="833.657,-161.858 823.435,-159.073 829.689,-167.625 833.657,-161.858"/>
</g>
<!-- Node17 -->
<g id="node18" class="node"><title>Node17</title>
<g id="a_node18"><a xlink:href="surface__event_8h.html" target="_top" xlink:title="mir_toolkit/events\l/surface_event.h">
<polygon fill="white" stroke="black" points="651,-129 651,-159 743,-159 743,-129 651,-129"/>
<text text-anchor="start" x="659" y="-147" font-family="Arial" font-size="10.00">mir_toolkit/events</text>
<text text-anchor="middle" x="697" y="-136" font-family="Arial" font-size="10.00">/surface_event.h</text>
</a>
</g>
</g>
<!-- Node4&#45;&gt;Node17 -->
<g id="edge23" class="edge"><title>Node4&#45;&gt;Node17</title>
<path fill="none" stroke="midnightblue" d="M870.994,-204.226C835.596,-194.344 785.898,-179.354 743,-165 740.555,-164.182 738.054,-163.33 735.542,-162.458"/>
<polygon fill="midnightblue" stroke="midnightblue" points="736.48,-159.077 725.885,-159.03 734.138,-165.673 736.48,-159.077"/>
</g>
<!-- Node18 -->
<g id="node19" class="node"><title>Node18</title>
<g id="a_node19"><a xlink:href="window__event_8h.html" target="_top" xlink:title="mir_toolkit/events\l/window_event.h">
<polygon fill="white" stroke="black" points="871,-129 871,-159 963,-159 963,-129 871,-129"/>
<text text-anchor="start" x="879" y="-147" font-family="Arial" font-size="10.00">mir_toolkit/events</text>
<text text-anchor="middle" x="917" y="-136" font-family="Arial" font-size="10.00">/window_event.h</text>
</a>
</g>
</g>
<!-- Node4&#45;&gt;Node18 -->
<g id="edge26" class="edge"><title>Node4&#45;&gt;Node18</title>
<path fill="none" stroke="midnightblue" d="M911.451,-201.233C910.249,-192.06 909.949,-179.905 910.551,-169.244"/>
<polygon fill="midnightblue" stroke="midnightblue" points="914.041,-169.52 911.454,-159.246 907.069,-168.89 914.041,-169.52"/>
</g>
<!-- Node19 -->
<g id="node20" class="node"><title>Node19</title>
<g id="a_node20"><a xlink:href="orientation__event_8h.html" target="_top" xlink:title="mir_toolkit/events\l/orientation_event.h">
<polygon fill="white" stroke="black" points="981.5,-129 981.5,-159 1082.5,-159 1082.5,-129 981.5,-129"/>
<text text-anchor="start" x="989.5" y="-147" font-family="Arial" font-size="10.00">mir_toolkit/events</text>
<text text-anchor="middle" x="1032" y="-136" font-family="Arial" font-size="10.00">/orientation_event.h</text>
</a>
</g>
</g>
<!-- Node4&#45;&gt;Node19 -->
<g id="edge28" class="edge"><title>Node4&#45;&gt;Node19</title>
<path fill="none" stroke="midnightblue" d="M934.469,-201.403C950.519,-190.692 974.553,-175.846 994.813,-164.074"/>
<polygon fill="midnightblue" stroke="midnightblue" points="996.592,-167.088 1003.52,-159.073 993.106,-161.018 996.592,-167.088"/>
</g>
<!-- Node20 -->
<g id="node21" class="node"><title>Node20</title>
<g id="a_node21"><a xlink:href="prompt__session__event_8h.html" target="_top" xlink:title="mir_toolkit/events\l/prompt_session_event.h">
<polygon fill="white" stroke="black" points="1100.5,-129 1100.5,-159 1225.5,-159 1225.5,-129 1100.5,-129"/>
<text text-anchor="start" x="1108.5" y="-147" font-family="Arial" font-size="10.00">mir_toolkit/events</text>
<text text-anchor="middle" x="1163" y="-136" font-family="Arial" font-size="10.00">/prompt_session_event.h</text>
</a>
</g>
</g>
<!-- Node4&#45;&gt;Node20 -->
<g id="edge30" class="edge"><title>Node4&#45;&gt;Node20</title>
<path fill="none" stroke="midnightblue" d="M960.381,-201.487C998.716,-190.063 1055.02,-173.895 1098.59,-161.782"/>
<polygon fill="midnightblue" stroke="midnightblue" points="1099.55,-165.15 1108.25,-159.107 1097.68,-158.404 1099.55,-165.15"/>
</g>
<!-- Node21 -->
<g id="node22" class="node"><title>Node21</title>
<g id="a_node22"><a xlink:href="keymap__event_8h.html" target="_top" xlink:title="mir_toolkit/events\l/keymap_event.h">
<polygon fill="white" stroke="black" points="1718,-129 1718,-159 1810,-159 1810,-129 1718,-129"/>
<text text-anchor="start" x="1726" y="-147" font-family="Arial" font-size="10.00">mir_toolkit/events</text>
<text text-anchor="middle" x="1764" y="-136" font-family="Arial" font-size="10.00">/keymap_event.h</text>
</a>
</g>
</g>
<!-- Node4&#45;&gt;Node21 -->
<g id="edge32" class="edge"><title>Node4&#45;&gt;Node21</title>
<path fill="none" stroke="midnightblue" d="M963.104,-214.172C1108.77,-209.877 1557.22,-194.87 1700,-165 1703.81,-164.204 1707.71,-163.198 1711.61,-162.064"/>
<polygon fill="midnightblue" stroke="midnightblue" points="1712.8,-165.359 1721.3,-159.025 1710.71,-158.68 1712.8,-165.359"/>
</g>
<!-- Node22 -->
<g id="node23" class="node"><title>Node22</title>
<g id="a_node23"><a xlink:href="input__configuration__event_8h.html" target="_top" xlink:title="mir_toolkit/events\l/input_configuration\l_event.h">
<polygon fill="white" stroke="black" points="356.5,-123.5 356.5,-164.5 457.5,-164.5 457.5,-123.5 356.5,-123.5"/>
<text text-anchor="start" x="364.5" y="-152.5" font-family="Arial" font-size="10.00">mir_toolkit/events</text>
<text text-anchor="start" x="364.5" y="-141.5" font-family="Arial" font-size="10.00">/input_configuration</text>
<text text-anchor="middle" x="407" y="-130.5" font-family="Arial" font-size="10.00">_event.h</text>
</a>
</g>
</g>
<!-- Node4&#45;&gt;Node22 -->
<g id="edge35" class="edge"><title>Node4&#45;&gt;Node22</title>
<path fill="none" stroke="midnightblue" d="M870.758,-213.774C789.045,-209.884 614.442,-198.213 466.235,-166.762"/>
<polygon fill="midnightblue" stroke="midnightblue" points="466.576,-163.255 456.062,-164.562 465.097,-170.096 466.576,-163.255"/>
</g>
<!-- Node23 -->
<g id="node24" class="node"><title>Node23</title>
<g id="a_node24"><a xlink:href="surface__output__event_8h.html" target="_top" xlink:title="mir_toolkit/events\l/surface_output_event.h">
<polygon fill="white" stroke="black" points="475.5,-129 475.5,-159 594.5,-159 594.5,-129 475.5,-129"/>
<text text-anchor="start" x="483.5" y="-147" font-family="Arial" font-size="10.00">mir_toolkit/events</text>
<text text-anchor="middle" x="535" y="-136" font-family="Arial" font-size="10.00">/surface_output_event.h</text>
</a>
</g>
</g>
<!-- Node4&#45;&gt;Node23 -->
<g id="edge38" class="edge"><title>Node4&#45;&gt;Node23</title>
<path fill="none" stroke="midnightblue" d="M870.755,-210.214C808.555,-202.176 695.194,-185.612 600,-165 595.212,-163.963 590.271,-162.811 585.346,-161.598"/>
<polygon fill="midnightblue" stroke="midnightblue" points="585.87,-158.12 575.316,-159.041 584.141,-164.903 585.87,-158.12"/>
</g>
<!-- Node24 -->
<g id="node25" class="node"><title>Node24</title>
<g id="a_node25"><a xlink:href="window__output__event_8h.html" target="_top" xlink:title="mir_toolkit/events\l/window_output_event.h">
<polygon fill="white" stroke="black" points="1243.5,-129 1243.5,-159 1362.5,-159 1362.5,-129 1243.5,-129"/>
<text text-anchor="start" x="1251.5" y="-147" font-family="Arial" font-size="10.00">mir_toolkit/events</text>
<text text-anchor="middle" x="1303" y="-136" font-family="Arial" font-size="10.00">/window_output_event.h</text>
</a>
</g>
</g>
<!-- Node4&#45;&gt;Node24 -->
<g id="edge41" class="edge"><title>Node4&#45;&gt;Node24</title>
<path fill="none" stroke="midnightblue" d="M963.069,-209.273C1023.81,-201.268 1133.43,-185.872 1226,-165 1230.37,-164.014 1234.88,-162.904 1239.41,-161.725"/>
<polygon fill="midnightblue" stroke="midnightblue" points="1240.61,-165.028 1249.36,-159.055 1238.79,-158.268 1240.61,-165.028"/>
</g>
<!-- Node25 -->
<g id="node26" class="node"><title>Node25</title>
<g id="a_node26"><a xlink:href="input__device__state__event_8h.html" target="_top" xlink:title="mir_toolkit/events\l/input_device_state\l_event.h">
<polygon fill="white" stroke="black" points="1381,-123.5 1381,-164.5 1481,-164.5 1481,-123.5 1381,-123.5"/>
<text text-anchor="start" x="1389" y="-152.5" font-family="Arial" font-size="10.00">mir_toolkit/events</text>
<text text-anchor="start" x="1389" y="-141.5" font-family="Arial" font-size="10.00">/input_device_state</text>
<text text-anchor="middle" x="1431" y="-130.5" font-family="Arial" font-size="10.00">_event.h</text>
</a>
</g>
</g>
<!-- Node4&#45;&gt;Node25 -->
<g id="edge43" class="edge"><title>Node4&#45;&gt;Node25</title>
<path fill="none" stroke="midnightblue" d="M963.195,-213.397C1044.83,-209.132 1219.08,-196.984 1363,-165 1365.63,-164.415 1368.31,-163.755 1371.01,-163.039"/>
<polygon fill="midnightblue" stroke="midnightblue" points="1372.17,-166.347 1380.83,-160.241 1370.25,-159.615 1372.17,-166.347"/>
</g>
<!-- Node7&#45;&gt;Node8 -->
<g id="edge8" class="edge"><title>Node7&#45;&gt;Node8</title>
<path fill="none" stroke="midnightblue" d="M305.677,-134.496C338.847,-122.057 400.762,-98.8392 438.688,-84.6172"/>
<polygon fill="midnightblue" stroke="midnightblue" points="440.108,-87.8226 448.242,-81.0341 437.65,-81.2683 440.108,-87.8226"/>
</g>
<!-- Node9&#45;&gt;Node4 -->
<g id="edge11" class="edge"><title>Node9&#45;&gt;Node4</title>
<path fill="none" stroke="midnightblue" d="M1598.31,-155.32C1577.78,-158.746 1553.88,-162.356 1532,-165 1327.15,-189.758 1081.87,-206.148 973.29,-212.516"/>
<polygon fill="midnightblue" stroke="midnightblue" points="972.995,-209.027 963.215,-213.101 973.401,-216.015 972.995,-209.027"/>
</g>
<!-- Node9&#45;&gt;Node6 -->
<g id="edge14" class="edge"><title>Node9&#45;&gt;Node6</title>
<path fill="none" stroke="midnightblue" d="M1671.15,-128.806C1695.71,-111.304 1729.46,-80.8258 1710,-56 1691.94,-32.9591 1609.7,-20.141 1561.83,-14.5129"/>
<polygon fill="midnightblue" stroke="midnightblue" points="1561.94,-11.0024 1551.61,-13.3581 1561.15,-17.9582 1561.94,-11.0024"/>
</g>
<!-- Node10 -->
<g id="node11" class="node"><title>Node10</title>
<g id="a_node11"><a xlink:href="mir__input__device__types_8h.html" target="_top" xlink:title="mir_toolkit/mir_input\l_device_types.h">
<polygon fill="white" stroke="black" points="1475,-56.5 1475,-86.5 1579,-86.5 1579,-56.5 1475,-56.5"/>
<text text-anchor="start" x="1483" y="-74.5" font-family="Arial" font-size="10.00">mir_toolkit/mir_input</text>
<text text-anchor="middle" x="1527" y="-63.5" font-family="Arial" font-size="10.00">_device_types.h</text>
</a>
</g>
</g>
<!-- Node9&#45;&gt;Node10 -->
<g id="edge12" class="edge"><title>Node9&#45;&gt;Node10</title>
<path fill="none" stroke="midnightblue" d="M1624.6,-128.903C1606.15,-118.24 1580.61,-103.479 1560.28,-91.7323"/>
<polygon fill="midnightblue" stroke="midnightblue" points="1561.76,-88.5459 1551.35,-86.5729 1558.26,-94.6067 1561.76,-88.5459"/>
</g>
<!-- Node11 -->
<g id="node12" class="node"><title>Node11</title>
<polygon fill="white" stroke="#bfbfbf" points="1780,-0.5 1780,-19.5 1836,-19.5 1836,-0.5 1780,-0.5"/>
<text text-anchor="middle" x="1808" y="-7.5" font-family="Arial" font-size="10.00">stdbool.h</text>
</g>
<!-- Node9&#45;&gt;Node11 -->
<g id="edge15" class="edge"><title>Node9&#45;&gt;Node11</title>
<path fill="none" stroke="midnightblue" d="M1669.76,-128.903C1685.55,-117.946 1707.61,-102.117 1726,-87 1749.75,-67.4749 1775.5,-43.0174 1791.68,-27.2053"/>
<polygon fill="midnightblue" stroke="midnightblue" points="1794.54,-29.3048 1799.22,-19.7966 1789.63,-24.3149 1794.54,-29.3048"/>
</g>
<!-- Node12 -->
<g id="node13" class="node"><title>Node12</title>
<g id="a_node13"><a xlink:href="touch__event_8h.html" target="_top" xlink:title="mir_toolkit/events\l/input/touch_event.h">
<polygon fill="white" stroke="black" points="1597,-56.5 1597,-86.5 1701,-86.5 1701,-56.5 1597,-56.5"/>
<text text-anchor="start" x="1605" y="-74.5" font-family="Arial" font-size="10.00">mir_toolkit/events</text>
<text text-anchor="middle" x="1649" y="-63.5" font-family="Arial" font-size="10.00">/input/touch_event.h</text>
</a>
</g>
</g>
<!-- Node9&#45;&gt;Node12 -->
<g id="edge16" class="edge"><title>Node9&#45;&gt;Node12</title>
<path fill="none" stroke="midnightblue" d="M1649,-128.733C1649,-119.655 1649,-107.658 1649,-97.0773"/>
<polygon fill="midnightblue" stroke="midnightblue" points="1652.5,-96.7455 1649,-86.7455 1645.5,-96.7455 1652.5,-96.7455"/>
</g>
<!-- Node13 -->
<g id="node14" class="node"><title>Node13</title>
<g id="a_node14"><a xlink:href="keyboard__event_8h.html" target="_top" xlink:title="mir_toolkit/events\l/input/keyboard_event.h">
<polygon fill="white" stroke="black" points="1922.5,-56.5 1922.5,-86.5 2041.5,-86.5 2041.5,-56.5 1922.5,-56.5"/>
<text text-anchor="start" x="1930.5" y="-74.5" font-family="Arial" font-size="10.00">mir_toolkit/events</text>
<text text-anchor="middle" x="1982" y="-63.5" font-family="Arial" font-size="10.00">/input/keyboard_event.h</text>
</a>
</g>
</g>
<!-- Node9&#45;&gt;Node13 -->
<g id="edge17" class="edge"><title>Node9&#45;&gt;Node13</title>
<path fill="none" stroke="midnightblue" d="M1688.45,-128.931C1695.25,-126.769 1702.29,-124.697 1709,-123 1795.61,-101.087 1821.44,-104.384 1912.41,-87.2513"/>
<polygon fill="midnightblue" stroke="midnightblue" points="1913.16,-90.6722 1922.32,-85.3536 1911.84,-83.7972 1913.16,-90.6722"/>
</g>
<!-- Node15 -->
<g id="node16" class="node"><title>Node15</title>
<g id="a_node16"><a xlink:href="pointer__event_8h.html" target="_top" xlink:title="mir_toolkit/events\l/input/pointer_event.h">
<polygon fill="white" stroke="black" points="1795.5,-56.5 1795.5,-86.5 1904.5,-86.5 1904.5,-56.5 1795.5,-56.5"/>
<text text-anchor="start" x="1803.5" y="-74.5" font-family="Arial" font-size="10.00">mir_toolkit/events</text>
<text text-anchor="middle" x="1850" y="-63.5" font-family="Arial" font-size="10.00">/input/pointer_event.h</text>
</a>
</g>
</g>
<!-- Node9&#45;&gt;Node15 -->
<g id="edge19" class="edge"><title>Node9&#45;&gt;Node15</title>
<path fill="none" stroke="midnightblue" d="M1689.19,-128.903C1721.1,-117.711 1765.88,-102.006 1800.08,-90.0093"/>
<polygon fill="midnightblue" stroke="midnightblue" points="1801.6,-93.1854 1809.88,-86.5729 1799.28,-86.58 1801.6,-93.1854"/>
</g>
<!-- Node10&#45;&gt;Node6 -->
<g id="edge13" class="edge"><title>Node10&#45;&gt;Node6</title>
<path fill="none" stroke="midnightblue" d="M1527,-56.3993C1527,-48.4664 1527,-38.458 1527,-29.8583"/>
<polygon fill="midnightblue" stroke="midnightblue" points="1530.5,-29.6577 1527,-19.6578 1523.5,-29.6578 1530.5,-29.6577"/>
</g>
<!-- Node14 -->
<g id="node15" class="node"><title>Node14</title>
<polygon fill="white" stroke="#bfbfbf" points="1959,-0.5 1959,-19.5 2093,-19.5 2093,-0.5 1959,-0.5"/>
<text text-anchor="middle" x="2026" y="-7.5" font-family="Arial" font-size="10.00">xkbcommon/xkbcommon.h</text>
</g>
<!-- Node13&#45;&gt;Node14 -->
<g id="edge18" class="edge"><title>Node13&#45;&gt;Node14</title>
<path fill="none" stroke="midnightblue" d="M1992.43,-56.3993C1998.76,-47.8424 2006.87,-36.8708 2013.53,-27.857"/>
<polygon fill="midnightblue" stroke="midnightblue" points="2016.47,-29.7792 2019.6,-19.6578 2010.84,-25.6171 2016.47,-29.7792"/>
</g>
<!-- Node15&#45;&gt;Node11 -->
<g id="edge20" class="edge"><title>Node15&#45;&gt;Node11</title>
<path fill="none" stroke="midnightblue" d="M1840.05,-56.3993C1834.01,-47.8424 1826.26,-36.8708 1819.9,-27.857"/>
<polygon fill="midnightblue" stroke="midnightblue" points="1822.74,-25.8091 1814.11,-19.6578 1817.02,-29.8459 1822.74,-25.8091"/>
</g>
<!-- Node16&#45;&gt;Node4 -->
<g id="edge22" class="edge"><title>Node16&#45;&gt;Node4</title>
<path fill="none" stroke="midnightblue" d="M834.366,-159.005C852.015,-169.424 874.65,-183.792 891.846,-195.431"/>
<polygon fill="midnightblue" stroke="midnightblue" points="890.065,-198.454 900.289,-201.233 894.03,-192.685 890.065,-198.454"/>
</g>
<!-- Node17&#45;&gt;Node4 -->
<g id="edge24" class="edge"><title>Node17&#45;&gt;Node4</title>
<path fill="none" stroke="midnightblue" d="M743.07,-158.817C749.126,-160.939 755.219,-163.066 761,-165 796.248,-176.794 836.087,-189.018 866.763,-198.485"/>
<polygon fill="midnightblue" stroke="midnightblue" points="865.795,-201.849 876.383,-201.458 867.862,-195.161 865.795,-201.849"/>
</g>
<!-- Node17&#45;&gt;Node8 -->
<g id="edge25" class="edge"><title>Node17&#45;&gt;Node8</title>
<path fill="none" stroke="midnightblue" d="M655.409,-128.978C649.245,-126.946 642.963,-124.901 637,-123 593.563,-109.156 543.467,-94.0309 509.767,-83.978"/>
<polygon fill="midnightblue" stroke="midnightblue" points="510.444,-80.5276 499.861,-81.028 508.446,-87.2364 510.444,-80.5276"/>
</g>
<!-- Node18&#45;&gt;Node4 -->
<g id="edge27" class="edge"><title>Node18&#45;&gt;Node4</title>
<path fill="none" stroke="midnightblue" d="M922.546,-159.246C923.749,-168.414 924.051,-180.568 923.45,-191.232"/>
<polygon fill="midnightblue" stroke="midnightblue" points="919.96,-190.959 922.549,-201.233 926.932,-191.588 919.96,-190.959"/>
</g>
<!-- Node19&#45;&gt;Node4 -->
<g id="edge29" class="edge"><title>Node19&#45;&gt;Node4</title>
<path fill="none" stroke="midnightblue" d="M1014.57,-159.073C998.53,-169.778 974.499,-184.622 954.233,-196.399"/>
<polygon fill="midnightblue" stroke="midnightblue" points="952.45,-193.387 945.522,-201.403 955.937,-199.457 952.45,-193.387"/>
</g>
<!-- Node20&#45;&gt;Node4 -->
<g id="edge31" class="edge"><title>Node20&#45;&gt;Node4</title>
<path fill="none" stroke="midnightblue" d="M1119.47,-159.057C1078.58,-171.241 1017.33,-188.798 972.863,-201.086"/>
<polygon fill="midnightblue" stroke="midnightblue" points="971.79,-197.751 963.077,-203.779 973.647,-204.5 971.79,-197.751"/>
</g>
<!-- Node21&#45;&gt;Node4 -->
<g id="edge33" class="edge"><title>Node21&#45;&gt;Node4</title>
<path fill="none" stroke="midnightblue" d="M1738.93,-159.025C1732.23,-161.388 1724.96,-163.544 1718,-165 1576.03,-194.699 1131.9,-209.705 973.624,-214.098"/>
<polygon fill="midnightblue" stroke="midnightblue" points="973.074,-210.611 963.173,-214.384 973.266,-217.609 973.074,-210.611"/>
</g>
<!-- Node21&#45;&gt;Node14 -->
<g id="edge34" class="edge"><title>Node21&#45;&gt;Node14</title>
<path fill="none" stroke="midnightblue" d="M1810.2,-140.885C1883.45,-136.456 2021.02,-123.392 2051,-87 2065.01,-69.9938 2052.06,-44.8832 2040.18,-28.2411"/>
<polygon fill="midnightblue" stroke="midnightblue" points="2042.72,-25.7979 2033.87,-19.9719 2037.15,-30.0447 2042.72,-25.7979"/>
</g>
<!-- Node22&#45;&gt;Node4 -->
<g id="edge36" class="edge"><title>Node22&#45;&gt;Node4</title>
<path fill="none" stroke="midnightblue" d="M457.553,-160.126C463.746,-161.977 469.995,-163.678 476,-165 612.348,-195.026 776.084,-207.695 860.586,-212.64"/>
<polygon fill="midnightblue" stroke="midnightblue" points="860.555,-216.144 870.738,-213.219 860.953,-209.155 860.555,-216.144"/>
</g>
<!-- Node22&#45;&gt;Node8 -->
<g id="edge37" class="edge"><title>Node22&#45;&gt;Node8</title>
<path fill="none" stroke="midnightblue" d="M424.828,-123.362C434.75,-112.431 446.952,-98.9909 456.319,-88.6721"/>
<polygon fill="midnightblue" stroke="midnightblue" points="458.996,-90.9301 463.126,-81.1734 453.813,-86.225 458.996,-90.9301"/>
</g>
<!-- Node23&#45;&gt;Node4 -->
<g id="edge39" class="edge"><title>Node23&#45;&gt;Node4</title>
<path fill="none" stroke="midnightblue" d="M593.06,-159.041C601.437,-161.18 609.936,-163.254 618,-165 702.105,-183.211 800.393,-198.262 860.749,-207.065"/>
<polygon fill="midnightblue" stroke="midnightblue" points="860.434,-210.556 870.834,-208.53 861.44,-203.629 860.434,-210.556"/>
</g>
<!-- Node23&#45;&gt;Node8 -->
<g id="edge40" class="edge"><title>Node23&#45;&gt;Node8</title>
<path fill="none" stroke="midnightblue" d="M522.049,-128.733C511.602,-117.226 496.898,-101.028 485.952,-88.9707"/>
<polygon fill="midnightblue" stroke="midnightblue" points="488.386,-86.4448 479.073,-81.3932 483.203,-91.1499 488.386,-86.4448"/>
</g>
<!-- Node24&#45;&gt;Node4 -->
<g id="edge42" class="edge"><title>Node24&#45;&gt;Node4</title>
<path fill="none" stroke="midnightblue" d="M1267.09,-159.055C1259.52,-161.218 1251.56,-163.295 1244,-165 1150.18,-186.154 1038.84,-201.684 973.167,-209.594"/>
<polygon fill="midnightblue" stroke="midnightblue" points="972.547,-206.143 963.03,-210.798 973.373,-213.094 972.547,-206.143"/>
</g>
<!-- Node25&#45;&gt;Node4 -->
<g id="edge44" class="edge"><title>Node25&#45;&gt;Node4</title>
<path fill="none" stroke="midnightblue" d="M1382.91,-164.565C1382.27,-164.714 1381.63,-164.859 1381,-165 1236.4,-197.134 1061.19,-209.245 973.106,-213.456"/>
<polygon fill="midnightblue" stroke="midnightblue" points="972.888,-209.963 963.06,-213.92 973.211,-216.955 972.888,-209.963"/>
</g>
</g>
</svg>
