<?xml version="1.0" encoding="UTF-8" standalone="no"?>
<!DOCTYPE svg PUBLIC "-//W3C//DTD SVG 1.1//EN"
 "http://www.w3.org/Graphics/SVG/1.1/DTD/svg11.dtd">
<!-- Generated by graphviz version 2.38.0 (20140413.2041)
 -->
<!-- Title: include/test/mir/test/doubles/stub_display_configuration.h Pages: 1 -->
<svg width="2121pt" height="385pt"
 viewBox="0.00 0.00 2121.00 385.00" xmlns="http://www.w3.org/2000/svg" xmlns:xlink="http://www.w3.org/1999/xlink">
<g id="graph0" class="graph" transform="scale(1 1) rotate(0) translate(4 381)">
<title>include/test/mir/test/doubles/stub_display_configuration.h</title>
<polygon fill="white" stroke="none" points="-4,4 -4,-381 2117,-381 2117,4 -4,4"/>
<!-- Node0 -->
<g id="node1" class="node"><title>Node0</title>
<polygon fill="#bfbfbf" stroke="black" points="88.5,-335.5 88.5,-376.5 199.5,-376.5 199.5,-335.5 88.5,-335.5"/>
<text text-anchor="start" x="96.5" y="-364.5" font-family="Arial" font-size="10.00">include/test/mir/test</text>
<text text-anchor="start" x="96.5" y="-353.5" font-family="Arial" font-size="10.00">/doubles/stub_display</text>
<text text-anchor="middle" x="144" y="-342.5" font-family="Arial" font-size="10.00">_configuration.h</text>
</g>
<!-- Node1 -->
<g id="node2" class="node"><title>Node1</title>
<polygon fill="white" stroke="#bfbfbf" points="0,-268.5 0,-298.5 104,-298.5 104,-268.5 0,-268.5"/>
<text text-anchor="start" x="8" y="-286.5" font-family="Arial" font-size="10.00">mir/graphics/display</text>
<text text-anchor="middle" x="52" y="-275.5" font-family="Arial" font-size="10.00">_configuration.h</text>
</g>
<!-- Node0&#45;&gt;Node1 -->
<g id="edge1" class="edge"><title>Node0&#45;&gt;Node1</title>
<path fill="none" stroke="midnightblue" d="M118.373,-335.362C106.018,-325.894 91.2058,-314.544 78.7119,-304.969"/>
<polygon fill="midnightblue" stroke="midnightblue" points="80.5577,-301.974 70.4914,-298.67 76.2999,-307.531 80.5577,-301.974"/>
</g>
<!-- Node2 -->
<g id="node3" class="node"><title>Node2</title>
<polygon fill="white" stroke="#bfbfbf" points="122,-274 122,-293 166,-293 166,-274 122,-274"/>
<text text-anchor="middle" x="144" y="-281" font-family="Arial" font-size="10.00">vector</text>
</g>
<!-- Node0&#45;&gt;Node2 -->
<g id="edge2" class="edge"><title>Node0&#45;&gt;Node2</title>
<path fill="none" stroke="midnightblue" d="M144,-335.362C144,-325.297 144,-313.104 144,-303.18"/>
<polygon fill="midnightblue" stroke="midnightblue" points="147.5,-303.173 144,-293.173 140.5,-303.173 147.5,-303.173"/>
</g>
<!-- Node3 -->
<g id="node4" class="node"><title>Node3</title>
<g id="a_node4"><a xlink:href="client__types_8h.html" target="_top" xlink:title="mir_toolkit/client\l_types.h">
<polygon fill="white" stroke="black" points="184,-268.5 184,-298.5 272,-298.5 272,-268.5 184,-268.5"/>
<text text-anchor="start" x="192" y="-286.5" font-family="Arial" font-size="10.00">mir_toolkit/client</text>
<text text-anchor="middle" x="228" y="-275.5" font-family="Arial" font-size="10.00">_types.h</text>
</a>
</g>
</g>
<!-- Node0&#45;&gt;Node3 -->
<g id="edge3" class="edge"><title>Node0&#45;&gt;Node3</title>
<path fill="none" stroke="midnightblue" d="M167.399,-335.362C178.571,-325.985 191.943,-314.762 203.281,-305.246"/>
<polygon fill="midnightblue" stroke="midnightblue" points="205.707,-307.78 211.117,-298.67 201.207,-302.418 205.707,-307.78"/>
</g>
<!-- Node4 -->
<g id="node5" class="node"><title>Node4</title>
<g id="a_node5"><a xlink:href="toolkit_2events_2event_8h.html" target="_top" xlink:title="mir_toolkit/events\l/event.h">
<polygon fill="white" stroke="black" points="880,-201.5 880,-231.5 974,-231.5 974,-201.5 880,-201.5"/>
<text text-anchor="start" x="888" y="-219.5" font-family="Arial" font-size="10.00">mir_toolkit/events</text>
<text text-anchor="middle" x="927" y="-208.5" font-family="Arial" font-size="10.00">/event.h</text>
</a>
</g>
</g>
<!-- Node3&#45;&gt;Node4 -->
<g id="edge4" class="edge"><title>Node3&#45;&gt;Node4</title>
<path fill="none" stroke="midnightblue" d="M272.256,-278.385C393.93,-267.07 733.467,-235.497 869.531,-222.844"/>
<polygon fill="midnightblue" stroke="midnightblue" points="870.111,-226.305 879.744,-221.894 869.463,-219.335 870.111,-226.305"/>
</g>
<!-- Node5 -->
<g id="node6" class="node"><title>Node5</title>
<polygon fill="white" stroke="#bfbfbf" points="160,-134.5 160,-153.5 212,-153.5 212,-134.5 160,-134.5"/>
<text text-anchor="middle" x="186" y="-141.5" font-family="Arial" font-size="10.00">stddef.h</text>
</g>
<!-- Node3&#45;&gt;Node5 -->
<g id="edge47" class="edge"><title>Node3&#45;&gt;Node5</title>
<path fill="none" stroke="midnightblue" d="M223.663,-268.303C216.003,-243.225 200.087,-191.12 191.606,-163.352"/>
<polygon fill="midnightblue" stroke="midnightblue" points="194.926,-162.242 188.658,-153.701 188.232,-164.287 194.926,-162.242"/>
</g>
<!-- Node7 -->
<g id="node8" class="node"><title>Node7</title>
<g id="a_node8"><a xlink:href="common_8h.html" target="_top" xlink:title="mir_toolkit/common.h">
<polygon fill="white" stroke="black" points="230,-134.5 230,-153.5 340,-153.5 340,-134.5 230,-134.5"/>
<text text-anchor="middle" x="285" y="-141.5" font-family="Arial" font-size="10.00">mir_toolkit/common.h</text>
</a>
</g>
</g>
<!-- Node3&#45;&gt;Node7 -->
<g id="edge45" class="edge"><title>Node3&#45;&gt;Node7</title>
<path fill="none" stroke="midnightblue" d="M233.885,-268.303C244.327,-243.114 266.073,-190.658 277.545,-162.985"/>
<polygon fill="midnightblue" stroke="midnightblue" points="280.797,-164.279 281.393,-153.701 274.33,-161.598 280.797,-164.279"/>
</g>
<!-- Node8 -->
<g id="node9" class="node"><title>Node8</title>
<g id="a_node9"><a xlink:href="deprecations_8h.html" target="_top" xlink:title="mir_toolkit/deprecations.h">
<polygon fill="white" stroke="black" points="410,-62 410,-81 538,-81 538,-62 410,-62"/>
<text text-anchor="middle" x="474" y="-69" font-family="Arial" font-size="10.00">mir_toolkit/deprecations.h</text>
</a>
</g>
</g>
<!-- Node3&#45;&gt;Node8 -->
<g id="edge46" class="edge"><title>Node3&#45;&gt;Node8</title>
<path fill="none" stroke="midnightblue" d="M211.339,-268.323C178.443,-238.666 111.614,-169.023 151,-123 182.34,-86.3794 314.272,-76.1224 399.523,-73.3662"/>
<polygon fill="midnightblue" stroke="midnightblue" points="399.787,-76.86 409.679,-73.066 399.58,-69.8631 399.787,-76.86"/>
</g>
<!-- Node4&#45;&gt;Node5 -->
<g id="edge5" class="edge"><title>Node4&#45;&gt;Node5</title>
<path fill="none" stroke="midnightblue" d="M879.747,-214.848C742.326,-212.523 344.737,-202.637 221,-165 216.15,-163.525 211.242,-161.283 206.698,-158.827"/>
<polygon fill="midnightblue" stroke="midnightblue" points="208.399,-155.766 198.015,-153.66 204.819,-161.782 208.399,-155.766"/>
</g>
<!-- Node6 -->
<g id="node7" class="node"><title>Node6</title>
<polygon fill="white" stroke="#bfbfbf" points="1518.5,-0.5 1518.5,-19.5 1567.5,-19.5 1567.5,-0.5 1518.5,-0.5"/>
<text text-anchor="middle" x="1543" y="-7.5" font-family="Arial" font-size="10.00">stdint.h</text>
</g>
<!-- Node4&#45;&gt;Node6 -->
<g id="edge6" class="edge"><title>Node4&#45;&gt;Node6</title>
<path fill="none" stroke="midnightblue" d="M974.307,-214.956C1106.14,-212.952 1470.33,-203.912 1506,-165 1518.61,-151.239 1511.41,-140.866 1506,-123 1500.43,-104.595 1487.57,-105.405 1482,-87 1478.01,-73.8134 1475.79,-68.2987 1482,-56 1488.81,-42.5199 1501.77,-32.083 1514,-24.6696"/>
<polygon fill="midnightblue" stroke="midnightblue" points="1516.07,-27.5214 1523.09,-19.5896 1512.66,-21.4099 1516.07,-27.5214"/>
</g>
<!-- Node4&#45;&gt;Node7 -->
<g id="edge7" class="edge"><title>Node4&#45;&gt;Node7</title>
<path fill="none" stroke="midnightblue" d="M879.787,-214.732C780.702,-212.386 544.175,-202.928 350,-165 339.484,-162.946 328.256,-159.835 318.141,-156.674"/>
<polygon fill="midnightblue" stroke="midnightblue" points="319.058,-153.292 308.466,-153.535 316.897,-159.95 319.058,-153.292"/>
</g>
<!-- Node4&#45;&gt;Node8 -->
<g id="edge9" class="edge"><title>Node4&#45;&gt;Node8</title>
<path fill="none" stroke="midnightblue" d="M879.827,-216.068C821.554,-214.813 721.061,-206.125 647,-165 624.992,-152.779 629.824,-137.144 609,-123 581.991,-104.655 547.445,-91.8913 520.061,-83.7855"/>
<polygon fill="midnightblue" stroke="midnightblue" points="520.9,-80.3852 510.323,-81.0082 518.98,-87.1168 520.9,-80.3852"/>
</g>
<!-- Node9 -->
<g id="node10" class="node"><title>Node9</title>
<g id="a_node10"><a xlink:href="input__event_8h.html" target="_top" xlink:title="mir_toolkit/events\l/input/input_event.h">
<polygon fill="white" stroke="black" points="1615,-129 1615,-159 1717,-159 1717,-129 1615,-129"/>
<text text-anchor="start" x="1623" y="-147" font-family="Arial" font-size="10.00">mir_toolkit/events</text>
<text text-anchor="middle" x="1666" y="-136" font-family="Arial" font-size="10.00">/input/input_event.h</text>
</a>
</g>
</g>
<!-- Node4&#45;&gt;Node9 -->
<g id="edge10" class="edge"><title>Node4&#45;&gt;Node9</title>
<path fill="none" stroke="midnightblue" d="M974.111,-212.502C1075.91,-206.131 1323.32,-189.767 1530,-165 1554.42,-162.074 1581.35,-157.961 1604.82,-154.225"/>
<polygon fill="midnightblue" stroke="midnightblue" points="1605.67,-157.634 1614.99,-152.597 1604.56,-150.722 1605.67,-157.634"/>
</g>
<!-- Node16 -->
<g id="node17" class="node"><title>Node16</title>
<g id="a_node17"><a xlink:href="resize__event_8h.html" target="_top" xlink:title="mir_toolkit/events\l/resize_event.h">
<polygon fill="white" stroke="black" points="768,-129 768,-159 862,-159 862,-129 768,-129"/>
<text text-anchor="start" x="776" y="-147" font-family="Arial" font-size="10.00">mir_toolkit/events</text>
<text text-anchor="middle" x="815" y="-136" font-family="Arial" font-size="10.00">/resize_event.h</text>
</a>
</g>
</g>
<!-- Node4&#45;&gt;Node16 -->
<g id="edge21" class="edge"><title>Node4&#45;&gt;Node16</title>
<path fill="none" stroke="midnightblue" d="M899.078,-201.403C881.053,-190.932 857.936,-176.51 840.424,-164.87"/>
<polygon fill="midnightblue" stroke="midnightblue" points="842.081,-161.766 831.834,-159.073 838.165,-167.568 842.081,-161.766"/>
</g>
<!-- Node17 -->
<g id="node18" class="node"><title>Node17</title>
<g id="a_node18"><a xlink:href="surface__event_8h.html" target="_top" xlink:title="mir_toolkit/events\l/surface_event.h">
<polygon fill="white" stroke="black" points="656,-129 656,-159 750,-159 750,-129 656,-129"/>
<text text-anchor="start" x="664" y="-147" font-family="Arial" font-size="10.00">mir_toolkit/events</text>
<text text-anchor="middle" x="703" y="-136" font-family="Arial" font-size="10.00">/surface_event.h</text>
</a>
</g>
</g>
<!-- Node4&#45;&gt;Node17 -->
<g id="edge23" class="edge"><title>Node4&#45;&gt;Node17</title>
<path fill="none" stroke="midnightblue" d="M879.935,-204.13C843.954,-194.248 793.545,-179.31 750,-165 747.422,-164.153 744.784,-163.269 742.134,-162.365"/>
<polygon fill="midnightblue" stroke="midnightblue" points="743.17,-159.019 732.575,-159.03 740.864,-165.629 743.17,-159.019"/>
</g>
<!-- Node18 -->
<g id="node19" class="node"><title>Node18</title>
<g id="a_node19"><a xlink:href="window__event_8h.html" target="_top" xlink:title="mir_toolkit/events\l/window_event.h">
<polygon fill="white" stroke="black" points="880,-129 880,-159 974,-159 974,-129 880,-129"/>
<text text-anchor="start" x="888" y="-147" font-family="Arial" font-size="10.00">mir_toolkit/events</text>
<text text-anchor="middle" x="927" y="-136" font-family="Arial" font-size="10.00">/window_event.h</text>
</a>
</g>
</g>
<!-- Node4&#45;&gt;Node18 -->
<g id="edge26" class="edge"><title>Node4&#45;&gt;Node18</title>
<path fill="none" stroke="midnightblue" d="M921.451,-201.233C920.249,-192.06 919.949,-179.905 920.551,-169.244"/>
<polygon fill="midnightblue" stroke="midnightblue" points="924.041,-169.52 921.454,-159.246 917.069,-168.89 924.041,-169.52"/>
</g>
<!-- Node19 -->
<g id="node20" class="node"><title>Node19</title>
<g id="a_node20"><a xlink:href="orientation__event_8h.html" target="_top" xlink:title="mir_toolkit/events\l/orientation_event.h">
<polygon fill="white" stroke="black" points="992,-129 992,-159 1094,-159 1094,-129 992,-129"/>
<text text-anchor="start" x="1000" y="-147" font-family="Arial" font-size="10.00">mir_toolkit/events</text>
<text text-anchor="middle" x="1043" y="-136" font-family="Arial" font-size="10.00">/orientation_event.h</text>
</a>
</g>
</g>
<!-- Node4&#45;&gt;Node19 -->
<g id="edge28" class="edge"><title>Node4&#45;&gt;Node19</title>
<path fill="none" stroke="midnightblue" d="M944.669,-201.403C960.871,-190.692 985.115,-175.846 1005.54,-164.074"/>
<polygon fill="midnightblue" stroke="midnightblue" points="1007.36,-167.064 1014.32,-159.073 1003.9,-160.981 1007.36,-167.064"/>
</g>
<!-- Node20 -->
<g id="node21" class="node"><title>Node20</title>
<g id="a_node21"><a xlink:href="prompt__session__event_8h.html" target="_top" xlink:title="mir_toolkit/events\l/prompt_session_event.h">
<polygon fill="white" stroke="black" points="1112,-129 1112,-159 1238,-159 1238,-129 1112,-129"/>
<text text-anchor="start" x="1120" y="-147" font-family="Arial" font-size="10.00">mir_toolkit/events</text>
<text text-anchor="middle" x="1175" y="-136" font-family="Arial" font-size="10.00">/prompt_session_event.h</text>
</a>
</g>
</g>
<!-- Node4&#45;&gt;Node20 -->
<g id="edge30" class="edge"><title>Node4&#45;&gt;Node20</title>
<path fill="none" stroke="midnightblue" d="M970.778,-201.487C1009.44,-190.063 1066.2,-173.895 1110.12,-161.782"/>
<polygon fill="midnightblue" stroke="midnightblue" points="1111.13,-165.133 1119.85,-159.107 1109.28,-158.383 1111.13,-165.133"/>
</g>
<!-- Node21 -->
<g id="node22" class="node"><title>Node21</title>
<g id="a_node22"><a xlink:href="keymap__event_8h.html" target="_top" xlink:title="mir_toolkit/events\l/keymap_event.h">
<polygon fill="white" stroke="black" points="1735,-129 1735,-159 1829,-159 1829,-129 1735,-129"/>
<text text-anchor="start" x="1743" y="-147" font-family="Arial" font-size="10.00">mir_toolkit/events</text>
<text text-anchor="middle" x="1782" y="-136" font-family="Arial" font-size="10.00">/keymap_event.h</text>
</a>
</g>
</g>
<!-- Node4&#45;&gt;Node21 -->
<g id="edge32" class="edge"><title>Node4&#45;&gt;Node21</title>
<path fill="none" stroke="midnightblue" d="M974.06,-214.14C1121.58,-209.775 1573.04,-194.644 1717,-165 1720.87,-164.203 1724.84,-163.197 1728.81,-162.063"/>
<polygon fill="midnightblue" stroke="midnightblue" points="1730.14,-165.315 1738.66,-159.024 1728.08,-158.626 1730.14,-165.315"/>
</g>
<!-- Node22 -->
<g id="node23" class="node"><title>Node22</title>
<g id="a_node23"><a xlink:href="input__configuration__event_8h.html" target="_top" xlink:title="mir_toolkit/events\l/input_configuration\l_event.h">
<polygon fill="white" stroke="black" points="358.5,-123.5 358.5,-164.5 459.5,-164.5 459.5,-123.5 358.5,-123.5"/>
<text text-anchor="start" x="366.5" y="-152.5" font-family="Arial" font-size="10.00">mir_toolkit/events</text>
<text text-anchor="start" x="366.5" y="-141.5" font-family="Arial" font-size="10.00">/input_configuration</text>
<text text-anchor="middle" x="409" y="-130.5" font-family="Arial" font-size="10.00">_event.h</text>
</a>
</g>
</g>
<!-- Node4&#45;&gt;Node22 -->
<g id="edge35" class="edge"><title>Node4&#45;&gt;Node22</title>
<path fill="none" stroke="midnightblue" d="M879.697,-213.836C796.372,-210.056 618.661,-198.566 467.948,-166.693"/>
<polygon fill="midnightblue" stroke="midnightblue" points="468.574,-163.248 458.062,-164.564 467.101,-170.091 468.574,-163.248"/>
</g>
<!-- Node23 -->
<g id="node24" class="node"><title>Node23</title>
<g id="a_node24"><a xlink:href="surface__output__event_8h.html" target="_top" xlink:title="mir_toolkit/events\l/surface_output_event.h">
<polygon fill="white" stroke="black" points="478,-129 478,-159 600,-159 600,-129 478,-129"/>
<text text-anchor="start" x="486" y="-147" font-family="Arial" font-size="10.00">mir_toolkit/events</text>
<text text-anchor="middle" x="539" y="-136" font-family="Arial" font-size="10.00">/surface_output_event.h</text>
</a>
</g>
</g>
<!-- Node4&#45;&gt;Node23 -->
<g id="edge38" class="edge"><title>Node4&#45;&gt;Node23</title>
<path fill="none" stroke="midnightblue" d="M879.842,-210.191C816.633,-202.154 701.626,-185.624 605,-165 600.021,-163.937 594.878,-162.753 589.757,-161.505"/>
<polygon fill="midnightblue" stroke="midnightblue" points="590.536,-158.092 579.984,-159.044 588.827,-164.88 590.536,-158.092"/>
</g>
<!-- Node24 -->
<g id="node25" class="node"><title>Node24</title>
<g id="a_node25"><a xlink:href="window__output__event_8h.html" target="_top" xlink:title="mir_toolkit/events\l/window_output_event.h">
<polygon fill="white" stroke="black" points="1256.5,-129 1256.5,-159 1377.5,-159 1377.5,-129 1256.5,-129"/>
<text text-anchor="start" x="1264.5" y="-147" font-family="Arial" font-size="10.00">mir_toolkit/events</text>
<text text-anchor="middle" x="1317" y="-136" font-family="Arial" font-size="10.00">/window_output_event.h</text>
</a>
</g>
</g>
<!-- Node4&#45;&gt;Node24 -->
<g id="edge41" class="edge"><title>Node4&#45;&gt;Node24</title>
<path fill="none" stroke="midnightblue" d="M974.185,-209.071C1035.46,-200.944 1145.19,-185.503 1238,-165 1242.62,-163.98 1247.38,-162.831 1252.17,-161.613"/>
<polygon fill="midnightblue" stroke="midnightblue" points="1253.24,-164.953 1262.02,-159.034 1251.46,-158.181 1253.24,-164.953"/>
</g>
<!-- Node25 -->
<g id="node26" class="node"><title>Node25</title>
<g id="a_node26"><a xlink:href="input__device__state__event_8h.html" target="_top" xlink:title="mir_toolkit/events\l/input_device_state\l_event.h">
<polygon fill="white" stroke="black" points="1395.5,-123.5 1395.5,-164.5 1496.5,-164.5 1496.5,-123.5 1395.5,-123.5"/>
<text text-anchor="start" x="1403.5" y="-152.5" font-family="Arial" font-size="10.00">mir_toolkit/events</text>
<text text-anchor="start" x="1403.5" y="-141.5" font-family="Arial" font-size="10.00">/input_device_state</text>
<text text-anchor="middle" x="1446" y="-130.5" font-family="Arial" font-size="10.00">_event.h</text>
</a>
</g>
</g>
<!-- Node4&#45;&gt;Node25 -->
<g id="edge43" class="edge"><title>Node4&#45;&gt;Node25</title>
<path fill="none" stroke="midnightblue" d="M974.098,-213.439C1056.81,-209.243 1232.69,-197.201 1378,-165 1380.45,-164.457 1382.94,-163.849 1385.45,-163.191"/>
<polygon fill="midnightblue" stroke="midnightblue" points="1386.5,-166.529 1395.18,-160.444 1384.6,-159.793 1386.5,-166.529"/>
</g>
<!-- Node7&#45;&gt;Node8 -->
<g id="edge8" class="edge"><title>Node7&#45;&gt;Node8</title>
<path fill="none" stroke="midnightblue" d="M307.798,-134.496C341.145,-122.057 403.389,-98.8392 441.516,-84.6172"/>
<polygon fill="midnightblue" stroke="midnightblue" points="442.975,-87.8084 451.121,-81.0341 440.529,-81.2498 442.975,-87.8084"/>
</g>
<!-- Node9&#45;&gt;Node4 -->
<g id="edge11" class="edge"><title>Node9&#45;&gt;Node4</title>
<path fill="none" stroke="midnightblue" d="M1614.84,-155.322C1594.15,-158.748 1570.05,-162.358 1548,-165 1341.37,-189.761 1094.02,-206.123 984.204,-212.498"/>
<polygon fill="midnightblue" stroke="midnightblue" points="983.795,-209.015 974.012,-213.083 984.196,-216.004 983.795,-209.015"/>
</g>
<!-- Node9&#45;&gt;Node6 -->
<g id="edge14" class="edge"><title>Node9&#45;&gt;Node6</title>
<path fill="none" stroke="midnightblue" d="M1688.45,-128.843C1713.35,-111.377 1747.6,-80.9362 1728,-56 1709.64,-32.6351 1625.8,-19.8923 1577.53,-14.3767"/>
<polygon fill="midnightblue" stroke="midnightblue" points="1577.84,-10.8898 1567.52,-13.278 1577.07,-17.848 1577.84,-10.8898"/>
</g>
<!-- Node10 -->
<g id="node11" class="node"><title>Node10</title>
<g id="a_node11"><a xlink:href="mir__input__device__types_8h.html" target="_top" xlink:title="mir_toolkit/mir_input\l_device_types.h">
<polygon fill="white" stroke="black" points="1491,-56.5 1491,-86.5 1595,-86.5 1595,-56.5 1491,-56.5"/>
<text text-anchor="start" x="1499" y="-74.5" font-family="Arial" font-size="10.00">mir_toolkit/mir_input</text>
<text text-anchor="middle" x="1543" y="-63.5" font-family="Arial" font-size="10.00">_device_types.h</text>
</a>
</g>
</g>
<!-- Node9&#45;&gt;Node10 -->
<g id="edge12" class="edge"><title>Node9&#45;&gt;Node10</title>
<path fill="none" stroke="midnightblue" d="M1641.4,-128.903C1622.72,-118.192 1596.82,-103.346 1576.28,-91.5738"/>
<polygon fill="midnightblue" stroke="midnightblue" points="1577.97,-88.5091 1567.55,-86.5729 1574.49,-94.5823 1577.97,-88.5091"/>
</g>
<!-- Node11 -->
<g id="node12" class="node"><title>Node11</title>
<polygon fill="white" stroke="#bfbfbf" points="1798,-0.5 1798,-19.5 1854,-19.5 1854,-0.5 1798,-0.5"/>
<text text-anchor="middle" x="1826" y="-7.5" font-family="Arial" font-size="10.00">stdbool.h</text>
</g>
<!-- Node9&#45;&gt;Node11 -->
<g id="edge15" class="edge"><title>Node9&#45;&gt;Node11</title>
<path fill="none" stroke="midnightblue" d="M1687.05,-128.944C1703.05,-118.009 1725.41,-102.188 1744,-87 1767.81,-67.5477 1793.55,-43.0729 1809.71,-27.2371"/>
<polygon fill="midnightblue" stroke="midnightblue" points="1812.57,-29.3311 1817.23,-19.8158 1807.65,-24.3487 1812.57,-29.3311"/>
</g>
<!-- Node12 -->
<g id="node13" class="node"><title>Node12</title>
<g id="a_node13"><a xlink:href="touch__event_8h.html" target="_top" xlink:title="mir_toolkit/events\l/input/touch_event.h">
<polygon fill="white" stroke="black" points="1613.5,-56.5 1613.5,-86.5 1718.5,-86.5 1718.5,-56.5 1613.5,-56.5"/>
<text text-anchor="start" x="1621.5" y="-74.5" font-family="Arial" font-size="10.00">mir_toolkit/events</text>
<text text-anchor="middle" x="1666" y="-63.5" font-family="Arial" font-size="10.00">/input/touch_event.h</text>
</a>
</g>
</g>
<!-- Node9&#45;&gt;Node12 -->
<g id="edge16" class="edge"><title>Node9&#45;&gt;Node12</title>
<path fill="none" stroke="midnightblue" d="M1666,-128.733C1666,-119.655 1666,-107.658 1666,-97.0773"/>
<polygon fill="midnightblue" stroke="midnightblue" points="1669.5,-96.7455 1666,-86.7455 1662.5,-96.7455 1669.5,-96.7455"/>
</g>
<!-- Node13 -->
<g id="node14" class="node"><title>Node13</title>
<g id="a_node14"><a xlink:href="keyboard__event_8h.html" target="_top" xlink:title="mir_toolkit/events\l/input/keyboard_event.h">
<polygon fill="white" stroke="black" points="1941.5,-56.5 1941.5,-86.5 2062.5,-86.5 2062.5,-56.5 1941.5,-56.5"/>
<text text-anchor="start" x="1949.5" y="-74.5" font-family="Arial" font-size="10.00">mir_toolkit/events</text>
<text text-anchor="middle" x="2002" y="-63.5" font-family="Arial" font-size="10.00">/input/keyboard_event.h</text>
</a>
</g>
</g>
<!-- Node9&#45;&gt;Node13 -->
<g id="edge17" class="edge"><title>Node9&#45;&gt;Node13</title>
<path fill="none" stroke="midnightblue" d="M1705.45,-128.926C1712.25,-126.765 1719.29,-124.694 1726,-123 1813.03,-101.019 1838.95,-104.174 1931.26,-87.0835"/>
<polygon fill="midnightblue" stroke="midnightblue" points="1932.14,-90.4802 1941.32,-85.191 1930.84,-83.601 1932.14,-90.4802"/>
</g>
<!-- Node15 -->
<g id="node16" class="node"><title>Node15</title>
<g id="a_node16"><a xlink:href="pointer__event_8h.html" target="_top" xlink:title="mir_toolkit/events\l/input/pointer_event.h">
<polygon fill="white" stroke="black" points="1813,-56.5 1813,-86.5 1923,-86.5 1923,-56.5 1813,-56.5"/>
<text text-anchor="start" x="1821" y="-74.5" font-family="Arial" font-size="10.00">mir_toolkit/events</text>
<text text-anchor="middle" x="1868" y="-63.5" font-family="Arial" font-size="10.00">/input/pointer_event.h</text>
</a>
</g>
</g>
<!-- Node9&#45;&gt;Node15 -->
<g id="edge19" class="edge"><title>Node9&#45;&gt;Node15</title>
<path fill="none" stroke="midnightblue" d="M1706.39,-128.903C1738.46,-117.711 1783.46,-102.006 1817.83,-90.0093"/>
<polygon fill="midnightblue" stroke="midnightblue" points="1819.39,-93.1726 1827.68,-86.5729 1817.08,-86.5636 1819.39,-93.1726"/>
</g>
<!-- Node10&#45;&gt;Node6 -->
<g id="edge13" class="edge"><title>Node10&#45;&gt;Node6</title>
<path fill="none" stroke="midnightblue" d="M1543,-56.3993C1543,-48.4664 1543,-38.458 1543,-29.8583"/>
<polygon fill="midnightblue" stroke="midnightblue" points="1546.5,-29.6577 1543,-19.6578 1539.5,-29.6578 1546.5,-29.6577"/>
</g>
<!-- Node14 -->
<g id="node15" class="node"><title>Node14</title>
<polygon fill="white" stroke="#bfbfbf" points="1979,-0.5 1979,-19.5 2113,-19.5 2113,-0.5 1979,-0.5"/>
<text text-anchor="middle" x="2046" y="-7.5" font-family="Arial" font-size="10.00">xkbcommon/xkbcommon.h</text>
</g>
<!-- Node13&#45;&gt;Node14 -->
<g id="edge18" class="edge"><title>Node13&#45;&gt;Node14</title>
<path fill="none" stroke="midnightblue" d="M2012.43,-56.3993C2018.76,-47.8424 2026.87,-36.8708 2033.53,-27.857"/>
<polygon fill="midnightblue" stroke="midnightblue" points="2036.47,-29.7792 2039.6,-19.6578 2030.84,-25.6171 2036.47,-29.7792"/>
</g>
<!-- Node15&#45;&gt;Node11 -->
<g id="edge20" class="edge"><title>Node15&#45;&gt;Node11</title>
<path fill="none" stroke="midnightblue" d="M1858.05,-56.3993C1852.01,-47.8424 1844.26,-36.8708 1837.9,-27.857"/>
<polygon fill="midnightblue" stroke="midnightblue" points="1840.74,-25.8091 1832.11,-19.6578 1835.02,-29.8459 1840.74,-25.8091"/>
</g>
<!-- Node16&#45;&gt;Node4 -->
<g id="edge22" class="edge"><title>Node16&#45;&gt;Node4</title>
<path fill="none" stroke="midnightblue" d="M842.763,-159.005C860.708,-169.424 883.75,-183.792 901.277,-195.431"/>
<polygon fill="midnightblue" stroke="midnightblue" points="899.636,-198.545 909.884,-201.233 903.548,-192.741 899.636,-198.545"/>
</g>
<!-- Node17&#45;&gt;Node4 -->
<g id="edge24" class="edge"><title>Node17&#45;&gt;Node4</title>
<path fill="none" stroke="midnightblue" d="M750.057,-158.924C756.12,-161.011 762.213,-163.098 768,-165 803.898,-176.797 844.462,-189.021 875.712,-198.488"/>
<polygon fill="midnightblue" stroke="midnightblue" points="874.927,-201.907 885.513,-201.46 876.959,-195.208 874.927,-201.907"/>
</g>
<!-- Node17&#45;&gt;Node8 -->
<g id="edge25" class="edge"><title>Node17&#45;&gt;Node8</title>
<path fill="none" stroke="midnightblue" d="M660.712,-128.985C654.446,-126.952 648.061,-124.904 642,-123 598.026,-109.184 547.33,-94.0541 513.228,-83.9922"/>
<polygon fill="midnightblue" stroke="midnightblue" points="513.785,-80.5076 503.203,-81.0394 511.807,-87.2224 513.785,-80.5076"/>
</g>
<!-- Node18&#45;&gt;Node4 -->
<g id="edge27" class="edge"><title>Node18&#45;&gt;Node4</title>
<path fill="none" stroke="midnightblue" d="M932.546,-159.246C933.749,-168.414 934.051,-180.568 933.45,-191.232"/>
<polygon fill="midnightblue" stroke="midnightblue" points="929.96,-190.959 932.549,-201.233 936.932,-191.588 929.96,-190.959"/>
</g>
<!-- Node19&#45;&gt;Node4 -->
<g id="edge29" class="edge"><title>Node19&#45;&gt;Node4</title>
<path fill="none" stroke="midnightblue" d="M1025.37,-159.073C1009.18,-169.778 984.937,-184.622 964.504,-196.399"/>
<polygon fill="midnightblue" stroke="midnightblue" points="962.678,-193.411 955.722,-201.403 966.143,-199.494 962.678,-193.411"/>
</g>
<!-- Node20&#45;&gt;Node4 -->
<g id="edge31" class="edge"><title>Node20&#45;&gt;Node4</title>
<path fill="none" stroke="midnightblue" d="M1130.98,-159.083C1090.01,-171.189 1028.84,-188.583 984.133,-200.85"/>
<polygon fill="midnightblue" stroke="midnightblue" points="983.01,-197.528 974.287,-203.541 984.856,-204.281 983.01,-197.528"/>
</g>
<!-- Node21&#45;&gt;Node4 -->
<g id="edge33" class="edge"><title>Node21&#45;&gt;Node4</title>
<path fill="none" stroke="midnightblue" d="M1756.3,-159.024C1749.47,-161.387 1742.08,-163.543 1735,-165 1591.71,-194.504 1143.83,-209.632 984.159,-214.077"/>
<polygon fill="midnightblue" stroke="midnightblue" points="983.964,-210.581 974.064,-214.355 984.156,-217.579 983.964,-210.581"/>
</g>
<!-- Node21&#45;&gt;Node14 -->
<g id="edge34" class="edge"><title>Node21&#45;&gt;Node14</title>
<path fill="none" stroke="midnightblue" d="M1829.28,-140.926C1903.43,-136.571 2041.77,-123.63 2072,-87 2086.08,-69.9399 2072.73,-44.8422 2060.54,-28.2176"/>
<polygon fill="midnightblue" stroke="midnightblue" points="2062.99,-25.6695 2054.06,-19.9584 2057.48,-29.9879 2062.99,-25.6695"/>
</g>
<!-- Node22&#45;&gt;Node4 -->
<g id="edge36" class="edge"><title>Node22&#45;&gt;Node4</title>
<path fill="none" stroke="midnightblue" d="M459.551,-160.137C465.744,-161.986 471.994,-163.683 478,-165 616.913,-195.449 783.757,-207.962 869.738,-212.765"/>
<polygon fill="midnightblue" stroke="midnightblue" points="869.64,-216.265 879.816,-213.313 870.021,-209.275 869.64,-216.265"/>
</g>
<!-- Node22&#45;&gt;Node8 -->
<g id="edge37" class="edge"><title>Node22&#45;&gt;Node8</title>
<path fill="none" stroke="midnightblue" d="M427.106,-123.362C437.184,-112.431 449.576,-98.9909 459.09,-88.6721"/>
<polygon fill="midnightblue" stroke="midnightblue" points="461.798,-90.8979 466.003,-81.1734 456.652,-86.153 461.798,-90.8979"/>
</g>
<!-- Node23&#45;&gt;Node4 -->
<g id="edge39" class="edge"><title>Node23&#45;&gt;Node4</title>
<path fill="none" stroke="midnightblue" d="M597.728,-159.044C606.217,-161.184 614.829,-163.256 623,-165 708.49,-183.247 808.368,-198.289 869.733,-207.081"/>
<polygon fill="midnightblue" stroke="midnightblue" points="869.592,-210.596 879.986,-208.543 870.581,-203.666 869.592,-210.596"/>
</g>
<!-- Node23&#45;&gt;Node8 -->
<g id="edge40" class="edge"><title>Node23&#45;&gt;Node8</title>
<path fill="none" stroke="midnightblue" d="M525.846,-128.733C515.237,-117.226 500.303,-101.028 489.186,-88.9707"/>
<polygon fill="midnightblue" stroke="midnightblue" points="491.551,-86.3727 482.199,-81.3932 486.405,-91.1177 491.551,-86.3727"/>
</g>
<!-- Node24&#45;&gt;Node4 -->
<g id="edge42" class="edge"><title>Node24&#45;&gt;Node4</title>
<path fill="none" stroke="midnightblue" d="M1279.75,-159.034C1271.96,-161.199 1263.78,-163.282 1256,-165 1161.9,-185.786 1050.42,-201.369 984.278,-209.403"/>
<polygon fill="midnightblue" stroke="midnightblue" points="983.574,-205.963 974.061,-210.627 984.407,-212.913 983.574,-205.963"/>
</g>
<!-- Node25&#45;&gt;Node4 -->
<g id="edge44" class="edge"><title>Node25&#45;&gt;Node4</title>
<path fill="none" stroke="midnightblue" d="M1397.91,-164.566C1397.27,-164.715 1396.63,-164.86 1396,-165 1250.19,-197.313 1073.59,-209.326 984.353,-213.482"/>
<polygon fill="midnightblue" stroke="midnightblue" points="984.004,-209.994 974.171,-213.94 984.318,-216.987 984.004,-209.994"/>
</g>
</g>
</svg>
