<?xml version="1.0" encoding="UTF-8" standalone="no"?>
<!DOCTYPE svg PUBLIC "-//W3C//DTD SVG 1.1//EN"
 "http://www.w3.org/Graphics/SVG/1.1/DTD/svg11.dtd">
<!-- Generated by graphviz version 2.38.0 (20140413.2041)
 -->
<!-- Title: include/client/mir_toolkit/events/surface_output_event.h Pages: 1 -->
<svg width="1672pt" height="318pt"
 viewBox="0.00 0.00 1672.44 318.00" xmlns="http://www.w3.org/2000/svg" xmlns:xlink="http://www.w3.org/1999/xlink">
<g id="graph0" class="graph" transform="scale(1 1) rotate(0) translate(4 314)">
<title>include/client/mir_toolkit/events/surface_output_event.h</title>
<polygon fill="white" stroke="none" points="-4,4 -4,-314 1668.44,-314 1668.44,4 -4,4"/>
<!-- Node0 -->
<g id="node1" class="node"><title>Node0</title>
<polygon fill="#bfbfbf" stroke="black" points="833.179,-268.5 833.179,-309.5 949.179,-309.5 949.179,-268.5 833.179,-268.5"/>
<text text-anchor="start" x="841.179" y="-297.5" font-family="Arial" font-size="10.00">include/client/mir</text>
<text text-anchor="start" x="841.179" y="-286.5" font-family="Arial" font-size="10.00">_toolkit/events/surface</text>
<text text-anchor="middle" x="891.179" y="-275.5" font-family="Arial" font-size="10.00">_output_event.h</text>
</g>
<!-- Node1 -->
<g id="node2" class="node"><title>Node1</title>
<g id="a_node2"><a xlink:href="events_2event_8h.html" target="_top" xlink:title="mir_toolkit/events\l/event.h">
<polygon fill="white" stroke="black" points="844.179,-201.5 844.179,-231.5 938.179,-231.5 938.179,-201.5 844.179,-201.5"/>
<text text-anchor="start" x="852.179" y="-219.5" font-family="Arial" font-size="10.00">mir_toolkit/events</text>
<text text-anchor="middle" x="891.179" y="-208.5" font-family="Arial" font-size="10.00">/event.h</text>
</a>
</g>
</g>
<!-- Node0&#45;&gt;Node1 -->
<g id="edge1" class="edge"><title>Node0&#45;&gt;Node1</title>
<path fill="none" stroke="midnightblue" d="M885.056,-268.362C884.358,-260.226 884.243,-250.7 884.711,-242.105"/>
<polygon fill="midnightblue" stroke="midnightblue" points="888.219,-242.161 885.614,-231.892 881.247,-241.544 888.219,-242.161"/>
</g>
<!-- Node5 -->
<g id="node6" class="node"><title>Node5</title>
<g id="a_node6"><a xlink:href="deprecations_8h.html" target="_top" xlink:title="mir_toolkit/deprecations.h">
<polygon fill="white" stroke="black" points="1087.18,-62 1087.18,-81 1215.18,-81 1215.18,-62 1087.18,-62"/>
<text text-anchor="middle" x="1151.18" y="-69" font-family="Arial" font-size="10.00">mir_toolkit/deprecations.h</text>
</a>
</g>
</g>
<!-- Node0&#45;&gt;Node5 -->
<g id="edge40" class="edge"><title>Node0&#45;&gt;Node5</title>
<path fill="none" stroke="midnightblue" d="M949.19,-287.897C1111.45,-286.258 1564.03,-271.999 1655.18,-165 1667.28,-150.79 1667.7,-136.842 1655.18,-123 1626.93,-91.78 1358.89,-79.009 1225.64,-74.5559"/>
<polygon fill="midnightblue" stroke="midnightblue" points="1225.61,-71.0533 1215.5,-74.2246 1225.38,-78.0496 1225.61,-71.0533"/>
</g>
<!-- Node1&#45;&gt;Node0 -->
<g id="edge35" class="edge"><title>Node1&#45;&gt;Node0</title>
<path fill="none" stroke="midnightblue" d="M896.744,-231.892C897.736,-239.532 898.105,-249.214 897.852,-258.376"/>
<polygon fill="midnightblue" stroke="midnightblue" points="894.358,-258.185 897.303,-268.362 901.347,-258.569 894.358,-258.185"/>
</g>
<!-- Node2 -->
<g id="node3" class="node"><title>Node2</title>
<polygon fill="white" stroke="#bfbfbf" points="1594.18,-134.5 1594.18,-153.5 1646.18,-153.5 1646.18,-134.5 1594.18,-134.5"/>
<text text-anchor="middle" x="1620.18" y="-141.5" font-family="Arial" font-size="10.00">stddef.h</text>
</g>
<!-- Node1&#45;&gt;Node2 -->
<g id="edge2" class="edge"><title>Node1&#45;&gt;Node2</title>
<path fill="none" stroke="midnightblue" d="M938.597,-214.777C1074.57,-212.274 1463.85,-201.987 1585.18,-165 1590.03,-163.522 1594.94,-161.279 1599.48,-158.822"/>
<polygon fill="midnightblue" stroke="midnightblue" points="1601.36,-161.777 1608.16,-153.656 1597.78,-155.761 1601.36,-161.777"/>
</g>
<!-- Node3 -->
<g id="node4" class="node"><title>Node3</title>
<polygon fill="white" stroke="#bfbfbf" points="124.679,-0.5 124.679,-19.5 173.679,-19.5 173.679,-0.5 124.679,-0.5"/>
<text text-anchor="middle" x="149.179" y="-7.5" font-family="Arial" font-size="10.00">stdint.h</text>
</g>
<!-- Node1&#45;&gt;Node3 -->
<g id="edge3" class="edge"><title>Node1&#45;&gt;Node3</title>
<path fill="none" stroke="midnightblue" d="M843.862,-213.798C710.01,-208.697 330.538,-192.186 209.179,-165 114.864,-143.872 60.9114,-166.663 6.17942,-87 -23.0883,-44.4004 63.4201,-23.7915 114.518,-15.5576"/>
<polygon fill="midnightblue" stroke="midnightblue" points="115.169,-18.9989 124.526,-14.0288 114.112,-12.0791 115.169,-18.9989"/>
</g>
<!-- Node4 -->
<g id="node5" class="node"><title>Node4</title>
<g id="a_node5"><a xlink:href="common_8h.html" target="_top" xlink:title="mir_toolkit/common.h">
<polygon fill="white" stroke="black" points="450.179,-134.5 450.179,-153.5 560.179,-153.5 560.179,-134.5 450.179,-134.5"/>
<text text-anchor="middle" x="505.179" y="-141.5" font-family="Arial" font-size="10.00">mir_toolkit/common.h</text>
</a>
</g>
</g>
<!-- Node1&#45;&gt;Node4 -->
<g id="edge4" class="edge"><title>Node1&#45;&gt;Node4</title>
<path fill="none" stroke="midnightblue" d="M844.104,-210.322C781.004,-202.881 665.753,-187.533 569.179,-165 559.335,-162.703 548.806,-159.663 539.188,-156.649"/>
<polygon fill="midnightblue" stroke="midnightblue" points="540.155,-153.283 529.563,-153.549 538.009,-159.946 540.155,-153.283"/>
</g>
<!-- Node1&#45;&gt;Node5 -->
<g id="edge6" class="edge"><title>Node1&#45;&gt;Node5</title>
<path fill="none" stroke="midnightblue" d="M843.903,-208.084C798.352,-199.859 734.193,-185.056 719.179,-165 707.993,-150.057 706.77,-136.945 719.179,-123 742.501,-96.7934 959.606,-82.0232 1076.87,-75.8954"/>
<polygon fill="midnightblue" stroke="midnightblue" points="1077.05,-79.3906 1086.86,-75.3815 1076.69,-72.3999 1077.05,-79.3906"/>
</g>
<!-- Node6 -->
<g id="node7" class="node"><title>Node6</title>
<g id="a_node7"><a xlink:href="input__event_8h.html" target="_top" xlink:title="mir_toolkit/events\l/input/input_event.h">
<polygon fill="white" stroke="black" points="218.179,-129 218.179,-159 320.179,-159 320.179,-129 218.179,-129"/>
<text text-anchor="start" x="226.179" y="-147" font-family="Arial" font-size="10.00">mir_toolkit/events</text>
<text text-anchor="middle" x="269.179" y="-136" font-family="Arial" font-size="10.00">/input/input_event.h</text>
</a>
</g>
</g>
<!-- Node1&#45;&gt;Node6 -->
<g id="edge7" class="edge"><title>Node1&#45;&gt;Node6</title>
<path fill="none" stroke="midnightblue" d="M843.984,-215.032C745.345,-213.267 511.256,-204.865 320.179,-165 316.068,-164.142 311.846,-163.094 307.668,-161.932"/>
<polygon fill="midnightblue" stroke="midnightblue" points="308.656,-158.574 298.071,-159.049 306.641,-165.278 308.656,-158.574"/>
</g>
<!-- Node13 -->
<g id="node14" class="node"><title>Node13</title>
<g id="a_node14"><a xlink:href="resize__event_8h.html" target="_top" xlink:title="mir_toolkit/events\l/resize_event.h">
<polygon fill="white" stroke="black" points="578.179,-129 578.179,-159 672.179,-159 672.179,-129 578.179,-129"/>
<text text-anchor="start" x="586.179" y="-147" font-family="Arial" font-size="10.00">mir_toolkit/events</text>
<text text-anchor="middle" x="625.179" y="-136" font-family="Arial" font-size="10.00">/resize_event.h</text>
</a>
</g>
</g>
<!-- Node1&#45;&gt;Node13 -->
<g id="edge18" class="edge"><title>Node1&#45;&gt;Node13</title>
<path fill="none" stroke="midnightblue" d="M844.115,-206.517C800.365,-197.043 733.908,-181.262 677.179,-165 674.019,-164.094 670.777,-163.131 667.528,-162.137"/>
<polygon fill="midnightblue" stroke="midnightblue" points="668.423,-158.749 657.833,-159.084 666.32,-165.426 668.423,-158.749"/>
</g>
<!-- Node14 -->
<g id="node15" class="node"><title>Node14</title>
<g id="a_node15"><a xlink:href="surface__event_8h.html" target="_top" xlink:title="mir_toolkit/events\l/surface_event.h">
<polygon fill="white" stroke="black" points="1104.18,-129 1104.18,-159 1198.18,-159 1198.18,-129 1104.18,-129"/>
<text text-anchor="start" x="1112.18" y="-147" font-family="Arial" font-size="10.00">mir_toolkit/events</text>
<text text-anchor="middle" x="1151.18" y="-136" font-family="Arial" font-size="10.00">/surface_event.h</text>
</a>
</g>
</g>
<!-- Node1&#45;&gt;Node14 -->
<g id="edge20" class="edge"><title>Node1&#45;&gt;Node14</title>
<path fill="none" stroke="midnightblue" d="M938.286,-203.571C978.022,-194.152 1036.05,-180.114 1086.18,-165 1089.05,-164.134 1091.99,-163.207 1094.97,-162.243"/>
<polygon fill="midnightblue" stroke="midnightblue" points="1096.12,-165.547 1104.51,-159.075 1093.92,-158.904 1096.12,-165.547"/>
</g>
<!-- Node15 -->
<g id="node16" class="node"><title>Node15</title>
<g id="a_node16"><a xlink:href="window__event_8h.html" target="_top" xlink:title="mir_toolkit/events\l/window_event.h">
<polygon fill="white" stroke="black" points="728.179,-129 728.179,-159 822.179,-159 822.179,-129 728.179,-129"/>
<text text-anchor="start" x="736.179" y="-147" font-family="Arial" font-size="10.00">mir_toolkit/events</text>
<text text-anchor="middle" x="775.179" y="-136" font-family="Arial" font-size="10.00">/window_event.h</text>
</a>
</g>
</g>
<!-- Node1&#45;&gt;Node15 -->
<g id="edge23" class="edge"><title>Node1&#45;&gt;Node15</title>
<path fill="none" stroke="midnightblue" d="M862.458,-201.403C843.668,-190.836 819.463,-176.245 801.232,-164.551"/>
<polygon fill="midnightblue" stroke="midnightblue" points="803.103,-161.592 792.812,-159.073 799.285,-167.46 803.103,-161.592"/>
</g>
<!-- Node16 -->
<g id="node17" class="node"><title>Node16</title>
<g id="a_node17"><a xlink:href="orientation__event_8h.html" target="_top" xlink:title="mir_toolkit/events\l/orientation_event.h">
<polygon fill="white" stroke="black" points="840.179,-129 840.179,-159 942.179,-159 942.179,-129 840.179,-129"/>
<text text-anchor="start" x="848.179" y="-147" font-family="Arial" font-size="10.00">mir_toolkit/events</text>
<text text-anchor="middle" x="891.179" y="-136" font-family="Arial" font-size="10.00">/orientation_event.h</text>
</a>
</g>
</g>
<!-- Node1&#45;&gt;Node16 -->
<g id="edge25" class="edge"><title>Node1&#45;&gt;Node16</title>
<path fill="none" stroke="midnightblue" d="M885.631,-201.233C884.429,-192.06 884.129,-179.905 884.731,-169.244"/>
<polygon fill="midnightblue" stroke="midnightblue" points="888.22,-169.52 885.634,-159.246 881.248,-168.89 888.22,-169.52"/>
</g>
<!-- Node17 -->
<g id="node18" class="node"><title>Node17</title>
<g id="a_node18"><a xlink:href="prompt__session__event_8h.html" target="_top" xlink:title="mir_toolkit/events\l/prompt_session_event.h">
<polygon fill="white" stroke="black" points="960.179,-129 960.179,-159 1086.18,-159 1086.18,-129 960.179,-129"/>
<text text-anchor="start" x="968.179" y="-147" font-family="Arial" font-size="10.00">mir_toolkit/events</text>
<text text-anchor="middle" x="1023.18" y="-136" font-family="Arial" font-size="10.00">/prompt_session_event.h</text>
</a>
</g>
</g>
<!-- Node1&#45;&gt;Node17 -->
<g id="edge27" class="edge"><title>Node1&#45;&gt;Node17</title>
<path fill="none" stroke="midnightblue" d="M912.048,-201.403C930.931,-190.548 959.039,-175.446 982.323,-163.6"/>
<polygon fill="midnightblue" stroke="midnightblue" points="983.952,-166.699 991.307,-159.073 980.802,-160.447 983.952,-166.699"/>
</g>
<!-- Node18 -->
<g id="node19" class="node"><title>Node18</title>
<g id="a_node19"><a xlink:href="keymap__event_8h.html" target="_top" xlink:title="mir_toolkit/events\l/keymap_event.h">
<polygon fill="white" stroke="black" points="338.179,-129 338.179,-159 432.179,-159 432.179,-129 338.179,-129"/>
<text text-anchor="start" x="346.179" y="-147" font-family="Arial" font-size="10.00">mir_toolkit/events</text>
<text text-anchor="middle" x="385.179" y="-136" font-family="Arial" font-size="10.00">/keymap_event.h</text>
</a>
</g>
</g>
<!-- Node1&#45;&gt;Node18 -->
<g id="edge29" class="edge"><title>Node1&#45;&gt;Node18</title>
<path fill="none" stroke="midnightblue" d="M843.894,-214.017C759.768,-210.479 579.618,-199.116 432.179,-165 428.705,-164.196 425.148,-163.245 421.617,-162.201"/>
<polygon fill="midnightblue" stroke="midnightblue" points="422.413,-158.78 411.822,-159.058 420.274,-165.446 422.413,-158.78"/>
</g>
<!-- Node19 -->
<g id="node20" class="node"><title>Node19</title>
<g id="a_node20"><a xlink:href="input__configuration__event_8h.html" target="_top" xlink:title="mir_toolkit/events\l/input_configuration\l_event.h">
<polygon fill="white" stroke="black" points="1216.68,-123.5 1216.68,-164.5 1317.68,-164.5 1317.68,-123.5 1216.68,-123.5"/>
<text text-anchor="start" x="1224.68" y="-152.5" font-family="Arial" font-size="10.00">mir_toolkit/events</text>
<text text-anchor="start" x="1224.68" y="-141.5" font-family="Arial" font-size="10.00">/input_configuration</text>
<text text-anchor="middle" x="1267.18" y="-130.5" font-family="Arial" font-size="10.00">_event.h</text>
</a>
</g>
</g>
<!-- Node1&#45;&gt;Node19 -->
<g id="edge32" class="edge"><title>Node1&#45;&gt;Node19</title>
<path fill="none" stroke="midnightblue" d="M938.392,-209.636C999.12,-202.097 1107.25,-187.262 1198.18,-165 1200.98,-164.315 1203.84,-163.559 1206.72,-162.756"/>
<polygon fill="midnightblue" stroke="midnightblue" points="1207.95,-166.041 1216.57,-159.87 1205.99,-159.323 1207.95,-166.041"/>
</g>
<!-- Node20 -->
<g id="node21" class="node"><title>Node20</title>
<g id="a_node21"><a xlink:href="window__output__event_8h.html" target="_top" xlink:title="mir_toolkit/events\l/window_output_event.h">
<polygon fill="white" stroke="black" points="1335.68,-129 1335.68,-159 1456.68,-159 1456.68,-129 1335.68,-129"/>
<text text-anchor="start" x="1343.68" y="-147" font-family="Arial" font-size="10.00">mir_toolkit/events</text>
<text text-anchor="middle" x="1396.18" y="-136" font-family="Arial" font-size="10.00">/window_output_event.h</text>
</a>
</g>
</g>
<!-- Node1&#45;&gt;Node20 -->
<g id="edge36" class="edge"><title>Node1&#45;&gt;Node20</title>
<path fill="none" stroke="midnightblue" d="M938.259,-212.238C1017.42,-206.505 1181.48,-192.529 1318.18,-165 1323.1,-164.01 1328.17,-162.837 1333.27,-161.564"/>
<polygon fill="midnightblue" stroke="midnightblue" points="1334.27,-164.92 1343.06,-159.012 1332.5,-158.146 1334.27,-164.92"/>
</g>
<!-- Node21 -->
<g id="node22" class="node"><title>Node21</title>
<g id="a_node22"><a xlink:href="input__device__state__event_8h.html" target="_top" xlink:title="mir_toolkit/events\l/input_device_state\l_event.h">
<polygon fill="white" stroke="black" points="1474.68,-123.5 1474.68,-164.5 1575.68,-164.5 1575.68,-123.5 1474.68,-123.5"/>
<text text-anchor="start" x="1482.68" y="-152.5" font-family="Arial" font-size="10.00">mir_toolkit/events</text>
<text text-anchor="start" x="1482.68" y="-141.5" font-family="Arial" font-size="10.00">/input_device_state</text>
<text text-anchor="middle" x="1525.18" y="-130.5" font-family="Arial" font-size="10.00">_event.h</text>
</a>
</g>
</g>
<!-- Node1&#45;&gt;Node21 -->
<g id="edge38" class="edge"><title>Node1&#45;&gt;Node21</title>
<path fill="none" stroke="midnightblue" d="M938.218,-215.073C1036.01,-213.331 1267.42,-204.893 1457.18,-165 1459.63,-164.484 1462.13,-163.897 1464.64,-163.257"/>
<polygon fill="midnightblue" stroke="midnightblue" points="1465.68,-166.602 1474.38,-160.559 1463.81,-159.856 1465.68,-166.602"/>
</g>
<!-- Node4&#45;&gt;Node5 -->
<g id="edge5" class="edge"><title>Node4&#45;&gt;Node5</title>
<path fill="none" stroke="midnightblue" d="M528.273,-134.454C540.306,-130.343 555.36,-125.725 569.179,-123 749.138,-87.509 965.298,-76.9601 1076.69,-73.8252"/>
<polygon fill="midnightblue" stroke="midnightblue" points="1076.91,-77.3206 1086.82,-73.5527 1076.73,-70.3232 1076.91,-77.3206"/>
</g>
<!-- Node6&#45;&gt;Node1 -->
<g id="edge8" class="edge"><title>Node6&#45;&gt;Node1</title>
<path fill="none" stroke="midnightblue" d="M315.734,-159.049C323.211,-161.349 330.87,-163.475 338.179,-165 516.653,-202.236 732.653,-212.021 833.834,-214.589"/>
<polygon fill="midnightblue" stroke="midnightblue" points="833.765,-218.089 843.846,-214.829 833.933,-211.091 833.765,-218.089"/>
</g>
<!-- Node6&#45;&gt;Node3 -->
<g id="edge11" class="edge"><title>Node6&#45;&gt;Node3</title>
<path fill="none" stroke="midnightblue" d="M227.375,-128.98C206.712,-120.03 183.075,-106.402 168.179,-87 155.528,-70.5215 151.21,-46.6498 149.785,-30.0744"/>
<polygon fill="midnightblue" stroke="midnightblue" points="153.27,-29.7242 149.193,-19.9453 146.282,-30.1323 153.27,-29.7242"/>
</g>
<!-- Node7 -->
<g id="node8" class="node"><title>Node7</title>
<g id="a_node8"><a xlink:href="mir__input__device__types_8h.html" target="_top" xlink:title="mir_toolkit/mir_input\l_device_types.h">
<polygon fill="white" stroke="black" points="177.179,-56.5 177.179,-86.5 281.179,-86.5 281.179,-56.5 177.179,-56.5"/>
<text text-anchor="start" x="185.179" y="-74.5" font-family="Arial" font-size="10.00">mir_toolkit/mir_input</text>
<text text-anchor="middle" x="229.179" y="-63.5" font-family="Arial" font-size="10.00">_device_types.h</text>
</a>
</g>
</g>
<!-- Node6&#45;&gt;Node7 -->
<g id="edge9" class="edge"><title>Node6&#45;&gt;Node7</title>
<path fill="none" stroke="midnightblue" d="M261.085,-128.733C255.717,-119.273 248.551,-106.643 242.37,-95.7486"/>
<polygon fill="midnightblue" stroke="midnightblue" points="245.241,-93.7159 237.262,-86.7455 239.153,-97.1703 245.241,-93.7159"/>
</g>
<!-- Node8 -->
<g id="node9" class="node"><title>Node8</title>
<polygon fill="white" stroke="#bfbfbf" points="322.179,-0.5 322.179,-19.5 378.179,-19.5 378.179,-0.5 322.179,-0.5"/>
<text text-anchor="middle" x="350.179" y="-7.5" font-family="Arial" font-size="10.00">stdbool.h</text>
</g>
<!-- Node6&#45;&gt;Node8 -->
<g id="edge12" class="edge"><title>Node6&#45;&gt;Node8</title>
<path fill="none" stroke="midnightblue" d="M277.848,-128.874C292.823,-104.469 323.485,-54.5023 339.657,-28.1475"/>
<polygon fill="midnightblue" stroke="midnightblue" points="342.657,-29.9511 344.904,-19.5973 336.69,-26.2899 342.657,-29.9511"/>
</g>
<!-- Node9 -->
<g id="node10" class="node"><title>Node9</title>
<g id="a_node10"><a xlink:href="touch__event_8h.html" target="_top" xlink:title="mir_toolkit/events\l/input/touch_event.h">
<polygon fill="white" stroke="black" points="15.6794,-56.5 15.6794,-86.5 120.679,-86.5 120.679,-56.5 15.6794,-56.5"/>
<text text-anchor="start" x="23.6794" y="-74.5" font-family="Arial" font-size="10.00">mir_toolkit/events</text>
<text text-anchor="middle" x="68.1794" y="-63.5" font-family="Arial" font-size="10.00">/input/touch_event.h</text>
</a>
</g>
</g>
<!-- Node6&#45;&gt;Node9 -->
<g id="edge13" class="edge"><title>Node6&#45;&gt;Node9</title>
<path fill="none" stroke="midnightblue" d="M228.987,-128.903C197.08,-117.711 152.304,-102.006 118.099,-90.0093"/>
<polygon fill="midnightblue" stroke="midnightblue" points="118.897,-86.58 108.302,-86.5729 116.58,-93.1854 118.897,-86.58"/>
</g>
<!-- Node10 -->
<g id="node11" class="node"><title>Node10</title>
<g id="a_node11"><a xlink:href="keyboard__event_8h.html" target="_top" xlink:title="mir_toolkit/events\l/input/keyboard_event.h">
<polygon fill="white" stroke="black" points="465.679,-56.5 465.679,-86.5 586.679,-86.5 586.679,-56.5 465.679,-56.5"/>
<text text-anchor="start" x="473.679" y="-74.5" font-family="Arial" font-size="10.00">mir_toolkit/events</text>
<text text-anchor="middle" x="526.179" y="-63.5" font-family="Arial" font-size="10.00">/input/keyboard_event.h</text>
</a>
</g>
</g>
<!-- Node6&#45;&gt;Node10 -->
<g id="edge14" class="edge"><title>Node6&#45;&gt;Node10</title>
<path fill="none" stroke="midnightblue" d="M310.047,-128.948C316.428,-126.878 322.965,-124.83 329.179,-123 371.308,-110.596 419.005,-98.3235 456.914,-88.9833"/>
<polygon fill="midnightblue" stroke="midnightblue" points="457.953,-92.3324 466.831,-86.5516 456.285,-85.5338 457.953,-92.3324"/>
</g>
<!-- Node12 -->
<g id="node13" class="node"><title>Node12</title>
<g id="a_node13"><a xlink:href="pointer__event_8h.html" target="_top" xlink:title="mir_toolkit/events\l/input/pointer_event.h">
<polygon fill="white" stroke="black" points="337.179,-56.5 337.179,-86.5 447.179,-86.5 447.179,-56.5 337.179,-56.5"/>
<text text-anchor="start" x="345.179" y="-74.5" font-family="Arial" font-size="10.00">mir_toolkit/events</text>
<text text-anchor="middle" x="392.179" y="-63.5" font-family="Arial" font-size="10.00">/input/pointer_event.h</text>
</a>
</g>
</g>
<!-- Node6&#45;&gt;Node12 -->
<g id="edge16" class="edge"><title>Node6&#45;&gt;Node12</title>
<path fill="none" stroke="midnightblue" d="M293.775,-128.903C312.462,-118.192 338.363,-103.346 358.902,-91.5738"/>
<polygon fill="midnightblue" stroke="midnightblue" points="360.691,-94.5823 367.627,-86.5729 357.21,-88.5091 360.691,-94.5823"/>
</g>
<!-- Node7&#45;&gt;Node3 -->
<g id="edge10" class="edge"><title>Node7&#45;&gt;Node3</title>
<path fill="none" stroke="midnightblue" d="M210.221,-56.3993C197.757,-47.1293 181.483,-35.0254 168.873,-25.6469"/>
<polygon fill="midnightblue" stroke="midnightblue" points="170.933,-22.8173 160.82,-19.6578 166.755,-28.4341 170.933,-22.8173"/>
</g>
<!-- Node11 -->
<g id="node12" class="node"><title>Node11</title>
<polygon fill="white" stroke="#bfbfbf" points="503.179,-0.5 503.179,-19.5 637.179,-19.5 637.179,-0.5 503.179,-0.5"/>
<text text-anchor="middle" x="570.179" y="-7.5" font-family="Arial" font-size="10.00">xkbcommon/xkbcommon.h</text>
</g>
<!-- Node10&#45;&gt;Node11 -->
<g id="edge15" class="edge"><title>Node10&#45;&gt;Node11</title>
<path fill="none" stroke="midnightblue" d="M536.607,-56.3993C542.935,-47.8424 551.048,-36.8708 557.714,-27.857"/>
<polygon fill="midnightblue" stroke="midnightblue" points="560.645,-29.7792 563.777,-19.6578 555.017,-25.6171 560.645,-29.7792"/>
</g>
<!-- Node12&#45;&gt;Node8 -->
<g id="edge17" class="edge"><title>Node12&#45;&gt;Node8</title>
<path fill="none" stroke="midnightblue" d="M382.226,-56.3993C376.186,-47.8424 368.441,-36.8708 362.078,-27.857"/>
<polygon fill="midnightblue" stroke="midnightblue" points="364.917,-25.8091 356.291,-19.6578 359.198,-29.8459 364.917,-25.8091"/>
</g>
<!-- Node13&#45;&gt;Node1 -->
<g id="edge19" class="edge"><title>Node13&#45;&gt;Node1</title>
<path fill="none" stroke="midnightblue" d="M672.264,-158.032C679.948,-160.451 687.787,-162.881 695.179,-165 741.693,-178.334 794.747,-191.344 833.993,-200.82"/>
<polygon fill="midnightblue" stroke="midnightblue" points="833.373,-204.27 843.915,-203.211 835.014,-197.465 833.373,-204.27"/>
</g>
<!-- Node14&#45;&gt;Node1 -->
<g id="edge21" class="edge"><title>Node14&#45;&gt;Node1</title>
<path fill="none" stroke="midnightblue" d="M1122.28,-159.075C1116.34,-161.163 1110.11,-163.212 1104.18,-165 1052.16,-180.683 991.643,-195.207 948.336,-204.614"/>
<polygon fill="midnightblue" stroke="midnightblue" points="947.584,-201.196 938.541,-206.718 949.053,-208.04 947.584,-201.196"/>
</g>
<!-- Node14&#45;&gt;Node5 -->
<g id="edge22" class="edge"><title>Node14&#45;&gt;Node5</title>
<path fill="none" stroke="midnightblue" d="M1151.18,-128.733C1151.18,-118.001 1151.18,-103.187 1151.18,-91.459"/>
<polygon fill="midnightblue" stroke="midnightblue" points="1154.68,-91.3931 1151.18,-81.3932 1147.68,-91.3932 1154.68,-91.3931"/>
</g>
<!-- Node15&#45;&gt;Node1 -->
<g id="edge24" class="edge"><title>Node15&#45;&gt;Node1</title>
<path fill="none" stroke="midnightblue" d="M803.858,-159.073C822.639,-169.634 846.844,-184.224 865.085,-195.922"/>
<polygon fill="midnightblue" stroke="midnightblue" points="863.219,-198.884 873.51,-201.403 867.036,-193.016 863.219,-198.884"/>
</g>
<!-- Node16&#45;&gt;Node1 -->
<g id="edge26" class="edge"><title>Node16&#45;&gt;Node1</title>
<path fill="none" stroke="midnightblue" d="M896.725,-159.246C897.929,-168.414 898.23,-180.568 897.629,-191.232"/>
<polygon fill="midnightblue" stroke="midnightblue" points="894.14,-190.959 896.728,-201.233 901.112,-191.588 894.14,-190.959"/>
</g>
<!-- Node17&#45;&gt;Node1 -->
<g id="edge28" class="edge"><title>Node17&#45;&gt;Node1</title>
<path fill="none" stroke="midnightblue" d="M1002.35,-159.073C983.484,-169.922 955.38,-185.023 932.089,-196.873"/>
<polygon fill="midnightblue" stroke="midnightblue" points="930.455,-193.777 923.101,-201.403 933.606,-200.028 930.455,-193.777"/>
</g>
<!-- Node18&#45;&gt;Node1 -->
<g id="edge30" class="edge"><title>Node18&#45;&gt;Node1</title>
<path fill="none" stroke="midnightblue" d="M429.499,-159.058C436.393,-161.328 443.441,-163.441 450.179,-165 585.833,-196.389 749.177,-208.517 833.985,-213.011"/>
<polygon fill="midnightblue" stroke="midnightblue" points="834.013,-216.517 844.179,-213.535 834.372,-209.526 834.013,-216.517"/>
</g>
<!-- Node18&#45;&gt;Node11 -->
<g id="edge31" class="edge"><title>Node18&#45;&gt;Node11</title>
<path fill="none" stroke="midnightblue" d="M422.641,-128.961C428.797,-126.845 435.138,-124.779 441.179,-123 508.607,-103.148 551.499,-142.069 595.179,-87 608.872,-69.738 595.997,-44.6886 584.222,-28.13"/>
<polygon fill="midnightblue" stroke="midnightblue" points="586.808,-25.7488 577.969,-19.9077 581.236,-29.9861 586.808,-25.7488"/>
</g>
<!-- Node19&#45;&gt;Node1 -->
<g id="edge33" class="edge"><title>Node19&#45;&gt;Node1</title>
<path fill="none" stroke="midnightblue" d="M1218.11,-164.519C1217.46,-164.683 1216.82,-164.843 1216.18,-165 1123.98,-187.574 1014.09,-202.511 948.517,-209.949"/>
<polygon fill="midnightblue" stroke="midnightblue" points="947.934,-206.492 938.384,-211.078 948.71,-213.449 947.934,-206.492"/>
</g>
<!-- Node19&#45;&gt;Node5 -->
<g id="edge34" class="edge"><title>Node19&#45;&gt;Node5</title>
<path fill="none" stroke="midnightblue" d="M1234.87,-123.362C1215.64,-111.674 1191.68,-97.1158 1174.34,-86.5734"/>
<polygon fill="midnightblue" stroke="midnightblue" points="1175.81,-83.3761 1165.45,-81.1734 1172.18,-89.358 1175.81,-83.3761"/>
</g>
<!-- Node20&#45;&gt;Node1 -->
<g id="edge37" class="edge"><title>Node20&#45;&gt;Node1</title>
<path fill="none" stroke="midnightblue" d="M1360.75,-159.012C1352.74,-161.258 1344.25,-163.375 1336.18,-165 1198.72,-192.682 1033.59,-206.661 948.258,-212.333"/>
<polygon fill="midnightblue" stroke="midnightblue" points="948.006,-208.842 938.255,-212.984 948.461,-215.827 948.006,-208.842"/>
</g>
<!-- Node21&#45;&gt;Node1 -->
<g id="edge39" class="edge"><title>Node21&#45;&gt;Node1</title>
<path fill="none" stroke="midnightblue" d="M1477.41,-164.514C1476.66,-164.682 1475.92,-164.844 1475.18,-165 1285.37,-204.905 1053.88,-213.336 948.355,-215.075"/>
<polygon fill="midnightblue" stroke="midnightblue" points="948.184,-211.577 938.238,-215.227 948.29,-218.576 948.184,-211.577"/>
</g>
</g>
</svg>
