<?xml version="1.0" encoding="UTF-8" standalone="no"?>
<!DOCTYPE svg PUBLIC "-//W3C//DTD SVG 1.1//EN"
 "http://www.w3.org/Graphics/SVG/1.1/DTD/svg11.dtd">
<!-- Generated by graphviz version 2.38.0 (20140413.2041)
 -->
<!-- Title: include/client/mir_toolkit/events/surface_output_event.h Pages: 1 -->
<svg width="1658pt" height="318pt"
 viewBox="0.00 0.00 1658.36 318.00" xmlns="http://www.w3.org/2000/svg" xmlns:xlink="http://www.w3.org/1999/xlink">
<g id="graph0" class="graph" transform="scale(1 1) rotate(0) translate(4 314)">
<title>include/client/mir_toolkit/events/surface_output_event.h</title>
<polygon fill="white" stroke="none" points="-4,4 -4,-314 1654.36,-314 1654.36,4 -4,4"/>
<!-- Node0 -->
<g id="node1" class="node"><title>Node0</title>
<polygon fill="#bfbfbf" stroke="black" points="826.605,-268.5 826.605,-309.5 939.605,-309.5 939.605,-268.5 826.605,-268.5"/>
<text text-anchor="start" x="834.605" y="-297.5" font-family="Arial" font-size="10.00">include/client/mir</text>
<text text-anchor="start" x="834.605" y="-286.5" font-family="Arial" font-size="10.00">_toolkit/events/surface</text>
<text text-anchor="middle" x="883.105" y="-275.5" font-family="Arial" font-size="10.00">_output_event.h</text>
</g>
<!-- Node1 -->
<g id="node2" class="node"><title>Node1</title>
<g id="a_node2"><a xlink:href="toolkit_2events_2event_8h.html" target="_top" xlink:title="mir_toolkit/events\l/event.h">
<polygon fill="white" stroke="black" points="837.105,-201.5 837.105,-231.5 929.105,-231.5 929.105,-201.5 837.105,-201.5"/>
<text text-anchor="start" x="845.105" y="-219.5" font-family="Arial" font-size="10.00">mir_toolkit/events</text>
<text text-anchor="middle" x="883.105" y="-208.5" font-family="Arial" font-size="10.00">/event.h</text>
</a>
</g>
</g>
<!-- Node0&#45;&gt;Node1 -->
<g id="edge1" class="edge"><title>Node0&#45;&gt;Node1</title>
<path fill="none" stroke="midnightblue" d="M876.982,-268.362C876.284,-260.226 876.169,-250.7 876.637,-242.105"/>
<polygon fill="midnightblue" stroke="midnightblue" points="880.145,-242.161 877.54,-231.892 873.172,-241.544 880.145,-242.161"/>
</g>
<!-- Node5 -->
<g id="node6" class="node"><title>Node5</title>
<g id="a_node6"><a xlink:href="deprecations_8h.html" target="_top" xlink:title="mir_toolkit/deprecations.h">
<polygon fill="white" stroke="black" points="1077.11,-62 1077.11,-81 1205.11,-81 1205.11,-62 1077.11,-62"/>
<text text-anchor="middle" x="1141.11" y="-69" font-family="Arial" font-size="10.00">mir_toolkit/deprecations.h</text>
</a>
</g>
</g>
<!-- Node0&#45;&gt;Node5 -->
<g id="edge40" class="edge"><title>Node0&#45;&gt;Node5</title>
<path fill="none" stroke="midnightblue" d="M939.803,-287.831C1100.05,-286.032 1550.56,-271.427 1641.11,-165 1653.2,-150.783 1653.62,-136.847 1641.11,-123 1613.13,-92.0536 1347.85,-79.1598 1215.48,-74.6178"/>
<polygon fill="midnightblue" stroke="midnightblue" points="1215.52,-71.1174 1205.41,-74.2796 1215.29,-78.1134 1215.52,-71.1174"/>
</g>
<!-- Node1&#45;&gt;Node0 -->
<g id="edge35" class="edge"><title>Node1&#45;&gt;Node0</title>
<path fill="none" stroke="midnightblue" d="M888.67,-231.892C889.662,-239.532 890.031,-249.214 889.778,-258.376"/>
<polygon fill="midnightblue" stroke="midnightblue" points="886.284,-258.185 889.229,-268.362 893.273,-258.569 886.284,-258.185"/>
</g>
<!-- Node2 -->
<g id="node3" class="node"><title>Node2</title>
<polygon fill="white" stroke="#bfbfbf" points="1580.61,-134.5 1580.61,-153.5 1631.61,-153.5 1631.61,-134.5 1580.61,-134.5"/>
<text text-anchor="middle" x="1606.11" y="-141.5" font-family="Arial" font-size="10.00">stddef.h</text>
</g>
<!-- Node1&#45;&gt;Node2 -->
<g id="edge2" class="edge"><title>Node1&#45;&gt;Node2</title>
<path fill="none" stroke="midnightblue" d="M929.155,-214.768C1063.08,-212.223 1450.54,-201.794 1571.11,-165 1575.95,-163.52 1580.86,-161.277 1585.41,-158.82"/>
<polygon fill="midnightblue" stroke="midnightblue" points="1587.28,-161.775 1594.09,-153.654 1583.7,-155.759 1587.28,-161.775"/>
</g>
<!-- Node3 -->
<g id="node4" class="node"><title>Node3</title>
<polygon fill="white" stroke="#bfbfbf" points="122.605,-0.5 122.605,-19.5 171.605,-19.5 171.605,-0.5 122.605,-0.5"/>
<text text-anchor="middle" x="147.105" y="-7.5" font-family="Arial" font-size="10.00">stdint.h</text>
</g>
<!-- Node1&#45;&gt;Node3 -->
<g id="edge3" class="edge"><title>Node1&#45;&gt;Node3</title>
<path fill="none" stroke="midnightblue" d="M836.673,-213.816C704.411,-208.737 327.492,-192.22 207.105,-165 113.641,-143.867 60.2362,-166.07 6.10524,-87 -22.7002,-44.9235 62.1004,-24.1318 112.539,-15.7208"/>
<polygon fill="midnightblue" stroke="midnightblue" points="113.096,-19.1763 122.426,-14.1558 112.002,-12.2623 113.096,-19.1763"/>
</g>
<!-- Node4 -->
<g id="node5" class="node"><title>Node4</title>
<g id="a_node5"><a xlink:href="common_8h.html" target="_top" xlink:title="mir_toolkit/common.h">
<polygon fill="white" stroke="black" points="446.105,-134.5 446.105,-153.5 556.105,-153.5 556.105,-134.5 446.105,-134.5"/>
<text text-anchor="middle" x="501.105" y="-141.5" font-family="Arial" font-size="10.00">mir_toolkit/common.h</text>
</a>
</g>
</g>
<!-- Node1&#45;&gt;Node4 -->
<g id="edge4" class="edge"><title>Node1&#45;&gt;Node4</title>
<path fill="none" stroke="midnightblue" d="M836.883,-210.3C774.628,-202.811 660.622,-187.384 565.105,-165 555.263,-162.694 544.734,-159.651 535.117,-156.636"/>
<polygon fill="midnightblue" stroke="midnightblue" points="536.083,-153.271 525.492,-153.537 533.938,-159.934 536.083,-153.271"/>
</g>
<!-- Node1&#45;&gt;Node5 -->
<g id="edge6" class="edge"><title>Node1&#45;&gt;Node5</title>
<path fill="none" stroke="midnightblue" d="M836.79,-208.082C791.739,-199.809 727.973,-184.926 713.105,-165 701.942,-150.039 700.703,-136.951 713.105,-123 736.146,-97.0803 950.306,-82.2164 1066.67,-75.9897"/>
<polygon fill="midnightblue" stroke="midnightblue" points="1067.13,-79.4705 1076.93,-75.4494 1066.76,-72.4801 1067.13,-79.4705"/>
</g>
<!-- Node6 -->
<g id="node7" class="node"><title>Node6</title>
<g id="a_node7"><a xlink:href="input__event_8h.html" target="_top" xlink:title="mir_toolkit/events\l/input/input_event.h">
<polygon fill="white" stroke="black" points="216.605,-129 216.605,-159 317.605,-159 317.605,-129 216.605,-129"/>
<text text-anchor="start" x="224.605" y="-147" font-family="Arial" font-size="10.00">mir_toolkit/events</text>
<text text-anchor="middle" x="267.105" y="-136" font-family="Arial" font-size="10.00">/input/input_event.h</text>
</a>
</g>
</g>
<!-- Node1&#45;&gt;Node6 -->
<g id="edge7" class="edge"><title>Node1&#45;&gt;Node6</title>
<path fill="none" stroke="midnightblue" d="M837.095,-214.997C739.893,-213.163 507.613,-204.633 318.105,-165 313.994,-164.14 309.772,-163.091 305.594,-161.928"/>
<polygon fill="midnightblue" stroke="midnightblue" points="306.583,-158.57 295.998,-159.043 304.567,-165.274 306.583,-158.57"/>
</g>
<!-- Node13 -->
<g id="node14" class="node"><title>Node13</title>
<g id="a_node14"><a xlink:href="resize__event_8h.html" target="_top" xlink:title="mir_toolkit/events\l/resize_event.h">
<polygon fill="white" stroke="black" points="574.105,-129 574.105,-159 666.105,-159 666.105,-129 574.105,-129"/>
<text text-anchor="start" x="582.105" y="-147" font-family="Arial" font-size="10.00">mir_toolkit/events</text>
<text text-anchor="middle" x="620.105" y="-136" font-family="Arial" font-size="10.00">/resize_event.h</text>
</a>
</g>
</g>
<!-- Node1&#45;&gt;Node13 -->
<g id="edge18" class="edge"><title>Node1&#45;&gt;Node13</title>
<path fill="none" stroke="midnightblue" d="M836.826,-206.627C793.478,-197.181 727.428,-181.366 671.105,-165 667.995,-164.096 664.804,-163.135 661.608,-162.142"/>
<polygon fill="midnightblue" stroke="midnightblue" points="662.663,-158.805 652.072,-159.091 660.53,-165.472 662.663,-158.805"/>
</g>
<!-- Node14 -->
<g id="node15" class="node"><title>Node14</title>
<g id="a_node15"><a xlink:href="surface__event_8h.html" target="_top" xlink:title="mir_toolkit/events\l/surface_event.h">
<polygon fill="white" stroke="black" points="1095.11,-129 1095.11,-159 1187.11,-159 1187.11,-129 1095.11,-129"/>
<text text-anchor="start" x="1103.11" y="-147" font-family="Arial" font-size="10.00">mir_toolkit/events</text>
<text text-anchor="middle" x="1141.11" y="-136" font-family="Arial" font-size="10.00">/surface_event.h</text>
</a>
</g>
</g>
<!-- Node1&#45;&gt;Node14 -->
<g id="edge20" class="edge"><title>Node1&#45;&gt;Node14</title>
<path fill="none" stroke="midnightblue" d="M929.26,-203.622C968.598,-194.177 1026.28,-180.084 1076.11,-165 1079.17,-164.073 1082.31,-163.077 1085.48,-162.042"/>
<polygon fill="midnightblue" stroke="midnightblue" points="1086.67,-165.336 1095.05,-158.853 1084.46,-158.695 1086.67,-165.336"/>
</g>
<!-- Node15 -->
<g id="node16" class="node"><title>Node15</title>
<g id="a_node16"><a xlink:href="window__event_8h.html" target="_top" xlink:title="mir_toolkit/events\l/window_event.h">
<polygon fill="white" stroke="black" points="722.105,-129 722.105,-159 814.105,-159 814.105,-129 722.105,-129"/>
<text text-anchor="start" x="730.105" y="-147" font-family="Arial" font-size="10.00">mir_toolkit/events</text>
<text text-anchor="middle" x="768.105" y="-136" font-family="Arial" font-size="10.00">/window_event.h</text>
</a>
</g>
</g>
<!-- Node1&#45;&gt;Node15 -->
<g id="edge23" class="edge"><title>Node1&#45;&gt;Node15</title>
<path fill="none" stroke="midnightblue" d="M854.583,-201.403C836.113,-190.932 812.382,-176.51 794.375,-164.87"/>
<polygon fill="midnightblue" stroke="midnightblue" points="795.819,-161.632 785.538,-159.073 791.979,-167.485 795.819,-161.632"/>
</g>
<!-- Node16 -->
<g id="node17" class="node"><title>Node16</title>
<g id="a_node17"><a xlink:href="orientation__event_8h.html" target="_top" xlink:title="mir_toolkit/events\l/orientation_event.h">
<polygon fill="white" stroke="black" points="832.605,-129 832.605,-159 933.605,-159 933.605,-129 832.605,-129"/>
<text text-anchor="start" x="840.605" y="-147" font-family="Arial" font-size="10.00">mir_toolkit/events</text>
<text text-anchor="middle" x="883.105" y="-136" font-family="Arial" font-size="10.00">/orientation_event.h</text>
</a>
</g>
</g>
<!-- Node1&#45;&gt;Node16 -->
<g id="edge25" class="edge"><title>Node1&#45;&gt;Node16</title>
<path fill="none" stroke="midnightblue" d="M877.557,-201.233C876.355,-192.06 876.055,-179.905 876.657,-169.244"/>
<polygon fill="midnightblue" stroke="midnightblue" points="880.146,-169.52 877.559,-159.246 873.174,-168.89 880.146,-169.52"/>
</g>
<!-- Node17 -->
<g id="node18" class="node"><title>Node17</title>
<g id="a_node18"><a xlink:href="prompt__session__event_8h.html" target="_top" xlink:title="mir_toolkit/events\l/prompt_session_event.h">
<polygon fill="white" stroke="black" points="951.605,-129 951.605,-159 1076.61,-159 1076.61,-129 951.605,-129"/>
<text text-anchor="start" x="959.605" y="-147" font-family="Arial" font-size="10.00">mir_toolkit/events</text>
<text text-anchor="middle" x="1014.11" y="-136" font-family="Arial" font-size="10.00">/prompt_session_event.h</text>
</a>
</g>
</g>
<!-- Node1&#45;&gt;Node17 -->
<g id="edge27" class="edge"><title>Node1&#45;&gt;Node17</title>
<path fill="none" stroke="midnightblue" d="M903.774,-201.403C922.503,-190.548 950.396,-175.446 973.512,-163.6"/>
<polygon fill="midnightblue" stroke="midnightblue" points="975.1,-166.72 982.433,-159.073 971.931,-160.478 975.1,-166.72"/>
</g>
<!-- Node18 -->
<g id="node19" class="node"><title>Node18</title>
<g id="a_node19"><a xlink:href="keymap__event_8h.html" target="_top" xlink:title="mir_toolkit/events\l/keymap_event.h">
<polygon fill="white" stroke="black" points="336.105,-129 336.105,-159 428.105,-159 428.105,-129 336.105,-129"/>
<text text-anchor="start" x="344.105" y="-147" font-family="Arial" font-size="10.00">mir_toolkit/events</text>
<text text-anchor="middle" x="382.105" y="-136" font-family="Arial" font-size="10.00">/keymap_event.h</text>
</a>
</g>
</g>
<!-- Node1&#45;&gt;Node18 -->
<g id="edge29" class="edge"><title>Node1&#45;&gt;Node18</title>
<path fill="none" stroke="midnightblue" d="M836.825,-214.08C753.661,-210.633 574.515,-199.398 428.105,-165 424.688,-164.197 421.192,-163.247 417.722,-162.203"/>
<polygon fill="midnightblue" stroke="midnightblue" points="418.693,-158.839 408.1,-159.061 416.52,-165.493 418.693,-158.839"/>
</g>
<!-- Node19 -->
<g id="node20" class="node"><title>Node19</title>
<g id="a_node20"><a xlink:href="input__configuration__event_8h.html" target="_top" xlink:title="mir_toolkit/events\l/input_configuration\l_event.h">
<polygon fill="white" stroke="black" points="1205.61,-123.5 1205.61,-164.5 1306.61,-164.5 1306.61,-123.5 1205.61,-123.5"/>
<text text-anchor="start" x="1213.61" y="-152.5" font-family="Arial" font-size="10.00">mir_toolkit/events</text>
<text text-anchor="start" x="1213.61" y="-141.5" font-family="Arial" font-size="10.00">/input_configuration</text>
<text text-anchor="middle" x="1256.11" y="-130.5" font-family="Arial" font-size="10.00">_event.h</text>
</a>
</g>
</g>
<!-- Node1&#45;&gt;Node19 -->
<g id="edge32" class="edge"><title>Node1&#45;&gt;Node19</title>
<path fill="none" stroke="midnightblue" d="M929.273,-209.655C989.297,-202.09 1096.77,-187.189 1187.11,-165 1189.9,-164.312 1192.76,-163.556 1195.64,-162.751"/>
<polygon fill="midnightblue" stroke="midnightblue" points="1196.88,-166.035 1205.49,-159.862 1194.91,-159.318 1196.88,-166.035"/>
</g>
<!-- Node20 -->
<g id="node21" class="node"><title>Node20</title>
<g id="a_node21"><a xlink:href="window__output__event_8h.html" target="_top" xlink:title="mir_toolkit/events\l/window_output_event.h">
<polygon fill="white" stroke="black" points="1324.61,-129 1324.61,-159 1443.61,-159 1443.61,-129 1324.61,-129"/>
<text text-anchor="start" x="1332.61" y="-147" font-family="Arial" font-size="10.00">mir_toolkit/events</text>
<text text-anchor="middle" x="1384.11" y="-136" font-family="Arial" font-size="10.00">/window_output_event.h</text>
</a>
</g>
</g>
<!-- Node1&#45;&gt;Node20 -->
<g id="edge36" class="edge"><title>Node1&#45;&gt;Node20</title>
<path fill="none" stroke="midnightblue" d="M929.192,-212.317C1007.55,-206.658 1171.02,-192.738 1307.11,-165 1311.83,-164.037 1316.7,-162.9 1321.6,-161.665"/>
<polygon fill="midnightblue" stroke="midnightblue" points="1322.86,-164.951 1331.64,-159.017 1321.08,-158.183 1322.86,-164.951"/>
</g>
<!-- Node21 -->
<g id="node22" class="node"><title>Node21</title>
<g id="a_node22"><a xlink:href="input__device__state__event_8h.html" target="_top" xlink:title="mir_toolkit/events\l/input_device_state\l_event.h">
<polygon fill="white" stroke="black" points="1462.11,-123.5 1462.11,-164.5 1562.11,-164.5 1562.11,-123.5 1462.11,-123.5"/>
<text text-anchor="start" x="1470.11" y="-152.5" font-family="Arial" font-size="10.00">mir_toolkit/events</text>
<text text-anchor="start" x="1470.11" y="-141.5" font-family="Arial" font-size="10.00">/input_device_state</text>
<text text-anchor="middle" x="1512.11" y="-130.5" font-family="Arial" font-size="10.00">_event.h</text>
</a>
</g>
</g>
<!-- Node1&#45;&gt;Node21 -->
<g id="edge38" class="edge"><title>Node1&#45;&gt;Node21</title>
<path fill="none" stroke="midnightblue" d="M929.315,-215.031C1026.01,-213.22 1255.76,-204.672 1444.11,-165 1446.74,-164.444 1449.43,-163.808 1452.13,-163.11"/>
<polygon fill="midnightblue" stroke="midnightblue" points="1453.27,-166.425 1461.96,-160.36 1451.39,-159.684 1453.27,-166.425"/>
</g>
<!-- Node4&#45;&gt;Node5 -->
<g id="edge5" class="edge"><title>Node4&#45;&gt;Node5</title>
<path fill="none" stroke="midnightblue" d="M524.199,-134.459C536.233,-130.349 551.287,-125.732 565.105,-123 742.968,-87.8395 956.565,-77.1551 1066.94,-73.9114"/>
<polygon fill="midnightblue" stroke="midnightblue" points="1067.08,-77.4091 1076.98,-73.6289 1066.88,-70.4119 1067.08,-77.4091"/>
</g>
<!-- Node6&#45;&gt;Node1 -->
<g id="edge8" class="edge"><title>Node6&#45;&gt;Node1</title>
<path fill="none" stroke="midnightblue" d="M313.661,-159.043C321.138,-161.344 328.797,-163.472 336.105,-165 512.951,-201.985 727.043,-211.884 826.906,-214.533"/>
<polygon fill="midnightblue" stroke="midnightblue" points="826.987,-218.036 837.072,-214.788 827.163,-211.038 826.987,-218.036"/>
</g>
<!-- Node6&#45;&gt;Node3 -->
<g id="edge11" class="edge"><title>Node6&#45;&gt;Node3</title>
<path fill="none" stroke="midnightblue" d="M225.301,-128.98C204.637,-120.03 181.001,-106.402 166.105,-87 153.454,-70.5215 149.136,-46.6498 147.71,-30.0744"/>
<polygon fill="midnightblue" stroke="midnightblue" points="151.196,-29.7242 147.119,-19.9453 144.208,-30.1323 151.196,-29.7242"/>
</g>
<!-- Node7 -->
<g id="node8" class="node"><title>Node7</title>
<g id="a_node8"><a xlink:href="mir__input__device__types_8h.html" target="_top" xlink:title="mir_toolkit/mir_input\l_device_types.h">
<polygon fill="white" stroke="black" points="175.105,-56.5 175.105,-86.5 279.105,-86.5 279.105,-56.5 175.105,-56.5"/>
<text text-anchor="start" x="183.105" y="-74.5" font-family="Arial" font-size="10.00">mir_toolkit/mir_input</text>
<text text-anchor="middle" x="227.105" y="-63.5" font-family="Arial" font-size="10.00">_device_types.h</text>
</a>
</g>
</g>
<!-- Node6&#45;&gt;Node7 -->
<g id="edge9" class="edge"><title>Node6&#45;&gt;Node7</title>
<path fill="none" stroke="midnightblue" d="M259.011,-128.733C253.643,-119.273 246.477,-106.643 240.296,-95.7486"/>
<polygon fill="midnightblue" stroke="midnightblue" points="243.167,-93.7159 235.188,-86.7455 237.078,-97.1703 243.167,-93.7159"/>
</g>
<!-- Node8 -->
<g id="node9" class="node"><title>Node8</title>
<polygon fill="white" stroke="#bfbfbf" points="320.105,-0.5 320.105,-19.5 376.105,-19.5 376.105,-0.5 320.105,-0.5"/>
<text text-anchor="middle" x="348.105" y="-7.5" font-family="Arial" font-size="10.00">stdbool.h</text>
</g>
<!-- Node6&#45;&gt;Node8 -->
<g id="edge12" class="edge"><title>Node6&#45;&gt;Node8</title>
<path fill="none" stroke="midnightblue" d="M275.774,-128.874C290.749,-104.469 321.411,-54.5023 337.583,-28.1475"/>
<polygon fill="midnightblue" stroke="midnightblue" points="340.583,-29.9511 342.83,-19.5973 334.616,-26.2899 340.583,-29.9511"/>
</g>
<!-- Node9 -->
<g id="node10" class="node"><title>Node9</title>
<g id="a_node10"><a xlink:href="touch__event_8h.html" target="_top" xlink:title="mir_toolkit/events\l/input/touch_event.h">
<polygon fill="white" stroke="black" points="15.1052,-56.5 15.1052,-86.5 119.105,-86.5 119.105,-56.5 15.1052,-56.5"/>
<text text-anchor="start" x="23.1052" y="-74.5" font-family="Arial" font-size="10.00">mir_toolkit/events</text>
<text text-anchor="middle" x="67.1052" y="-63.5" font-family="Arial" font-size="10.00">/input/touch_event.h</text>
</a>
</g>
</g>
<!-- Node6&#45;&gt;Node9 -->
<g id="edge13" class="edge"><title>Node6&#45;&gt;Node9</title>
<path fill="none" stroke="midnightblue" d="M227.113,-128.903C195.365,-117.711 150.811,-102.006 116.777,-90.0093"/>
<polygon fill="midnightblue" stroke="midnightblue" points="117.623,-86.5965 107.028,-86.5729 115.296,-93.1983 117.623,-86.5965"/>
</g>
<!-- Node10 -->
<g id="node11" class="node"><title>Node10</title>
<g id="a_node11"><a xlink:href="keyboard__event_8h.html" target="_top" xlink:title="mir_toolkit/events\l/input/keyboard_event.h">
<polygon fill="white" stroke="black" points="462.605,-56.5 462.605,-86.5 581.605,-86.5 581.605,-56.5 462.605,-56.5"/>
<text text-anchor="start" x="470.605" y="-74.5" font-family="Arial" font-size="10.00">mir_toolkit/events</text>
<text text-anchor="middle" x="522.105" y="-63.5" font-family="Arial" font-size="10.00">/input/keyboard_event.h</text>
</a>
</g>
</g>
<!-- Node6&#45;&gt;Node10 -->
<g id="edge14" class="edge"><title>Node6&#45;&gt;Node10</title>
<path fill="none" stroke="midnightblue" d="M307.977,-128.962C314.357,-126.89 320.893,-124.837 327.105,-123 368.817,-110.662 416.031,-98.3921 453.552,-89.0362"/>
<polygon fill="midnightblue" stroke="midnightblue" points="454.505,-92.4058 463.368,-86.5999 452.819,-85.612 454.505,-92.4058"/>
</g>
<!-- Node12 -->
<g id="node13" class="node"><title>Node12</title>
<g id="a_node13"><a xlink:href="pointer__event_8h.html" target="_top" xlink:title="mir_toolkit/events\l/input/pointer_event.h">
<polygon fill="white" stroke="black" points="335.605,-56.5 335.605,-86.5 444.605,-86.5 444.605,-56.5 335.605,-56.5"/>
<text text-anchor="start" x="343.605" y="-74.5" font-family="Arial" font-size="10.00">mir_toolkit/events</text>
<text text-anchor="middle" x="390.105" y="-63.5" font-family="Arial" font-size="10.00">/input/pointer_event.h</text>
</a>
</g>
</g>
<!-- Node6&#45;&gt;Node12 -->
<g id="edge16" class="edge"><title>Node6&#45;&gt;Node12</title>
<path fill="none" stroke="midnightblue" d="M291.701,-128.903C310.388,-118.192 336.289,-103.346 356.828,-91.5738"/>
<polygon fill="midnightblue" stroke="midnightblue" points="358.617,-94.5823 365.553,-86.5729 355.136,-88.5091 358.617,-94.5823"/>
</g>
<!-- Node7&#45;&gt;Node3 -->
<g id="edge10" class="edge"><title>Node7&#45;&gt;Node3</title>
<path fill="none" stroke="midnightblue" d="M208.146,-56.3993C195.682,-47.1293 179.408,-35.0254 166.799,-25.6469"/>
<polygon fill="midnightblue" stroke="midnightblue" points="168.859,-22.8173 158.746,-19.6578 164.681,-28.4341 168.859,-22.8173"/>
</g>
<!-- Node11 -->
<g id="node12" class="node"><title>Node11</title>
<polygon fill="white" stroke="#bfbfbf" points="499.105,-0.5 499.105,-19.5 633.105,-19.5 633.105,-0.5 499.105,-0.5"/>
<text text-anchor="middle" x="566.105" y="-7.5" font-family="Arial" font-size="10.00">xkbcommon/xkbcommon.h</text>
</g>
<!-- Node10&#45;&gt;Node11 -->
<g id="edge15" class="edge"><title>Node10&#45;&gt;Node11</title>
<path fill="none" stroke="midnightblue" d="M532.533,-56.3993C538.86,-47.8424 546.974,-36.8708 553.64,-27.857"/>
<polygon fill="midnightblue" stroke="midnightblue" points="556.571,-29.7792 559.703,-19.6578 550.943,-25.6171 556.571,-29.7792"/>
</g>
<!-- Node12&#45;&gt;Node8 -->
<g id="edge17" class="edge"><title>Node12&#45;&gt;Node8</title>
<path fill="none" stroke="midnightblue" d="M380.152,-56.3993C374.112,-47.8424 366.367,-36.8708 360.004,-27.857"/>
<polygon fill="midnightblue" stroke="midnightblue" points="362.843,-25.8091 354.217,-19.6578 357.124,-29.8459 362.843,-25.8091"/>
</g>
<!-- Node13&#45;&gt;Node1 -->
<g id="edge19" class="edge"><title>Node13&#45;&gt;Node1</title>
<path fill="none" stroke="midnightblue" d="M666.227,-157.935C673.894,-160.388 681.724,-162.855 689.105,-165 735.205,-178.395 787.822,-191.422 826.695,-200.889"/>
<polygon fill="midnightblue" stroke="midnightblue" points="826.229,-204.377 836.773,-203.339 827.883,-197.575 826.229,-204.377"/>
</g>
<!-- Node14&#45;&gt;Node1 -->
<g id="edge21" class="edge"><title>Node14&#45;&gt;Node1</title>
<path fill="none" stroke="midnightblue" d="M1112.2,-159.063C1106.26,-161.153 1100.03,-163.205 1094.11,-165 1042.38,-180.662 982.169,-195.255 939.238,-204.686"/>
<polygon fill="midnightblue" stroke="midnightblue" points="938.289,-201.31 929.259,-206.852 939.774,-208.151 938.289,-201.31"/>
</g>
<!-- Node14&#45;&gt;Node5 -->
<g id="edge22" class="edge"><title>Node14&#45;&gt;Node5</title>
<path fill="none" stroke="midnightblue" d="M1141.11,-128.733C1141.11,-118.001 1141.11,-103.187 1141.11,-91.459"/>
<polygon fill="midnightblue" stroke="midnightblue" points="1144.61,-91.3931 1141.11,-81.3932 1137.61,-91.3932 1144.61,-91.3931"/>
</g>
<!-- Node15&#45;&gt;Node1 -->
<g id="edge24" class="edge"><title>Node15&#45;&gt;Node1</title>
<path fill="none" stroke="midnightblue" d="M796.584,-159.073C815.046,-169.538 838.778,-183.959 856.794,-195.603"/>
<polygon fill="midnightblue" stroke="midnightblue" points="855.355,-198.844 865.636,-201.403 859.194,-192.991 855.355,-198.844"/>
</g>
<!-- Node16&#45;&gt;Node1 -->
<g id="edge26" class="edge"><title>Node16&#45;&gt;Node1</title>
<path fill="none" stroke="midnightblue" d="M888.651,-159.246C889.855,-168.414 890.156,-180.568 889.555,-191.232"/>
<polygon fill="midnightblue" stroke="midnightblue" points="886.066,-190.959 888.654,-201.233 893.037,-191.588 886.066,-190.959"/>
</g>
<!-- Node17&#45;&gt;Node1 -->
<g id="edge28" class="edge"><title>Node17&#45;&gt;Node1</title>
<path fill="none" stroke="midnightblue" d="M993.479,-159.073C974.763,-169.922 946.873,-185.023 923.75,-196.873"/>
<polygon fill="midnightblue" stroke="midnightblue" points="922.159,-193.755 914.826,-201.403 925.328,-199.997 922.159,-193.755"/>
</g>
<!-- Node18&#45;&gt;Node1 -->
<g id="edge30" class="edge"><title>Node18&#45;&gt;Node1</title>
<path fill="none" stroke="midnightblue" d="M425.778,-159.061C432.553,-161.331 439.478,-163.443 446.105,-165 580.645,-196.609 742.828,-208.659 826.788,-213.08"/>
<polygon fill="midnightblue" stroke="midnightblue" points="826.713,-216.58 836.878,-213.594 827.069,-209.589 826.713,-216.58"/>
</g>
<!-- Node18&#45;&gt;Node11 -->
<g id="edge31" class="edge"><title>Node18&#45;&gt;Node11</title>
<path fill="none" stroke="midnightblue" d="M418.887,-128.95C424.935,-126.835 431.166,-124.772 437.105,-123 504.047,-103.029 546.733,-141.762 590.105,-87 603.732,-69.7943 591.257,-44.7315 579.796,-28.1545"/>
<polygon fill="midnightblue" stroke="midnightblue" points="582.466,-25.8789 573.704,-19.9218 576.839,-30.0425 582.466,-25.8789"/>
</g>
<!-- Node19&#45;&gt;Node1 -->
<g id="edge33" class="edge"><title>Node19&#45;&gt;Node1</title>
<path fill="none" stroke="midnightblue" d="M1207.03,-164.518C1206.39,-164.682 1205.75,-164.843 1205.11,-165 1113.39,-187.527 1004.02,-202.542 939.147,-209.995"/>
<polygon fill="midnightblue" stroke="midnightblue" points="938.671,-206.527 929.127,-211.127 939.456,-213.483 938.671,-206.527"/>
</g>
<!-- Node19&#45;&gt;Node5 -->
<g id="edge34" class="edge"><title>Node19&#45;&gt;Node5</title>
<path fill="none" stroke="midnightblue" d="M1224.07,-123.362C1205.01,-111.674 1181.26,-97.1158 1164.06,-86.5734"/>
<polygon fill="midnightblue" stroke="midnightblue" points="1165.61,-83.416 1155.25,-81.1734 1161.95,-89.3838 1165.61,-83.416"/>
</g>
<!-- Node20&#45;&gt;Node1 -->
<g id="edge37" class="edge"><title>Node20&#45;&gt;Node1</title>
<path fill="none" stroke="midnightblue" d="M1349.33,-159.017C1341.44,-161.263 1333.06,-163.378 1325.11,-165 1188.42,-192.86 1024.11,-206.781 939.438,-212.392"/>
<polygon fill="midnightblue" stroke="midnightblue" points="939.02,-208.912 929.268,-213.051 939.473,-215.897 939.02,-208.912"/>
</g>
<!-- Node21&#45;&gt;Node1 -->
<g id="edge39" class="edge"><title>Node21&#45;&gt;Node1</title>
<path fill="none" stroke="midnightblue" d="M1464.34,-164.513C1463.59,-164.681 1462.85,-164.844 1462.11,-165 1273.71,-204.682 1043.9,-213.224 939.437,-215.033"/>
<polygon fill="midnightblue" stroke="midnightblue" points="939.367,-211.533 929.424,-215.192 939.479,-218.532 939.367,-211.533"/>
</g>
</g>
</svg>
