<?xml version="1.0" encoding="UTF-8" standalone="no"?>
<!DOCTYPE svg PUBLIC "-//W3C//DTD SVG 1.1//EN"
 "http://www.w3.org/Graphics/SVG/1.1/DTD/svg11.dtd">
<!-- Generated by graphviz version 2.43.0 (0)
 -->
<!-- Title: include/miroil/miroil/surface_observer.h Pages: 1 -->
<svg width="827pt" height="386pt"
 viewBox="0.00 0.00 827.34 386.00" xmlns="http://www.w3.org/2000/svg" xmlns:xlink="http://www.w3.org/1999/xlink">
<g id="graph0" class="graph" transform="scale(1 1) rotate(0) translate(4 382)">
<title>include/miroil/miroil/surface_observer.h</title>
<polygon fill="white" stroke="transparent" points="-4,4 -4,-382 823.34,-382 823.34,4 -4,4"/>
<!-- Node1 -->
<g id="node1" class="node">
<title>Node1</title>
<g id="a_node1"><a xlink:title=" ">
<polygon fill="#bfbfbf" stroke="black" points="408.34,-347.5 408.34,-377.5 523.34,-377.5 523.34,-347.5 408.34,-347.5"/>
<text text-anchor="start" x="416.34" y="-365.5" font-family="Arial" font-size="10.00">include/miroil/miroil</text>
<text text-anchor="middle" x="465.84" y="-354.5" font-family="Arial" font-size="10.00">/surface_observer.h</text>
</a>
</g>
</g>
<!-- Node2 -->
<g id="node2" class="node">
<title>Node2</title>
<g id="a_node2"><a xlink:href="common_8h.html" target="_top" xlink:title=" ">
<polygon fill="white" stroke="black" points="63.34,-286 63.34,-305 188.34,-305 188.34,-286 63.34,-286"/>
<text text-anchor="middle" x="125.84" y="-293" font-family="Arial" font-size="10.00">mir_toolkit/common.h</text>
</a>
</g>
</g>
<!-- Node1&#45;&gt;Node2 -->
<g id="edge1" class="edge">
<title>Node1&#45;&gt;Node2</title>
<path fill="none" stroke="midnightblue" d="M408.33,-350.98C353.83,-340.94 269.7,-325.28 196.84,-311 190.52,-309.76 183.89,-308.44 177.33,-307.11"/>
<polygon fill="midnightblue" stroke="midnightblue" points="177.61,-303.6 167.12,-305.04 176.22,-310.46 177.61,-303.6"/>
</g>
<!-- Node3 -->
<g id="node3" class="node">
<title>Node3</title>
<g id="a_node3"><a xlink:href="size_8h.html" target="_top" xlink:title=" ">
<polygon fill="white" stroke="black" points="321.34,-168.5 321.34,-187.5 436.34,-187.5 436.34,-168.5 321.34,-168.5"/>
<text text-anchor="middle" x="378.84" y="-175.5" font-family="Arial" font-size="10.00">mir/geometry/size.h</text>
</a>
</g>
</g>
<!-- Node1&#45;&gt;Node3 -->
<g id="edge2" class="edge">
<title>Node1&#45;&gt;Node3</title>
<path fill="none" stroke="midnightblue" d="M439.83,-347.3C426.37,-338.59 410.9,-326.2 401.84,-311 380.47,-275.16 377.76,-224.74 378.05,-197.77"/>
<polygon fill="midnightblue" stroke="midnightblue" points="381.55,-197.84 378.31,-187.75 374.55,-197.66 381.55,-197.84"/>
</g>
<!-- Node11 -->
<g id="node11" class="node">
<title>Node11</title>
<g id="a_node11"><a xlink:href="rectangle_8h.html" target="_top" xlink:title=" ">
<polygon fill="white" stroke="black" points="206.34,-286 206.34,-305 347.34,-305 347.34,-286 206.34,-286"/>
<text text-anchor="middle" x="276.84" y="-293" font-family="Arial" font-size="10.00">mir/geometry/rectangle.h</text>
</a>
</g>
</g>
<!-- Node1&#45;&gt;Node11 -->
<g id="edge11" class="edge">
<title>Node1&#45;&gt;Node11</title>
<path fill="none" stroke="midnightblue" d="M424.83,-347.4C390.93,-335.74 343.35,-319.37 311.37,-308.38"/>
<polygon fill="midnightblue" stroke="midnightblue" points="312.17,-304.95 301.58,-305.01 309.89,-311.57 312.17,-304.95"/>
</g>
<!-- Node17 -->
<g id="node17" class="node">
<title>Node17</title>
<g id="a_node17"><a xlink:title=" ">
<polygon fill="white" stroke="#bfbfbf" points="410.84,-280.5 410.84,-310.5 520.84,-310.5 520.84,-280.5 410.84,-280.5"/>
<text text-anchor="start" x="418.84" y="-298.5" font-family="Arial" font-size="10.00">mir/graphics/cursor</text>
<text text-anchor="middle" x="465.84" y="-287.5" font-family="Arial" font-size="10.00">_image.h</text>
</a>
</g>
</g>
<!-- Node1&#45;&gt;Node17 -->
<g id="edge30" class="edge">
<title>Node1&#45;&gt;Node17</title>
<path fill="none" stroke="midnightblue" d="M465.84,-347.4C465.84,-339.64 465.84,-329.81 465.84,-320.86"/>
<polygon fill="midnightblue" stroke="midnightblue" points="469.34,-320.58 465.84,-310.58 462.34,-320.58 469.34,-320.58"/>
</g>
<!-- Node18 -->
<g id="node18" class="node">
<title>Node18</title>
<g id="a_node18"><a xlink:title=" ">
<polygon fill="white" stroke="#bfbfbf" points="538.84,-286 538.84,-305 616.84,-305 616.84,-286 538.84,-286"/>
<text text-anchor="middle" x="577.84" y="-293" font-family="Arial" font-size="10.00">glm/glm.hpp</text>
</a>
</g>
</g>
<!-- Node1&#45;&gt;Node18 -->
<g id="edge31" class="edge">
<title>Node1&#45;&gt;Node18</title>
<path fill="none" stroke="midnightblue" d="M490.14,-347.4C509.19,-336.34 535.52,-321.06 554.35,-310.13"/>
<polygon fill="midnightblue" stroke="midnightblue" points="556.29,-313.05 563.18,-305.01 552.78,-307 556.29,-313.05"/>
</g>
<!-- Node19 -->
<g id="node19" class="node">
<title>Node19</title>
<g id="a_node19"><a xlink:href="mir__input__device__types_8h.html" target="_top" xlink:title=" ">
<polygon fill="white" stroke="black" points="635.34,-280.5 635.34,-310.5 754.34,-310.5 754.34,-280.5 635.34,-280.5"/>
<text text-anchor="start" x="643.34" y="-298.5" font-family="Arial" font-size="10.00">mir_toolkit/mir_input</text>
<text text-anchor="middle" x="694.84" y="-287.5" font-family="Arial" font-size="10.00">_device_types.h</text>
</a>
</g>
</g>
<!-- Node1&#45;&gt;Node19 -->
<g id="edge32" class="edge">
<title>Node1&#45;&gt;Node19</title>
<path fill="none" stroke="midnightblue" d="M515.25,-347.48C550.49,-337.47 598.06,-323.97 635.38,-313.38"/>
<polygon fill="midnightblue" stroke="midnightblue" points="636.46,-316.71 645.13,-310.61 634.55,-309.97 636.46,-316.71"/>
</g>
<!-- Node21 -->
<g id="node21" class="node">
<title>Node21</title>
<g id="a_node21"><a xlink:title=" ">
<polygon fill="white" stroke="#bfbfbf" points="772.34,-286 772.34,-305 819.34,-305 819.34,-286 772.34,-286"/>
<text text-anchor="middle" x="795.84" y="-293" font-family="Arial" font-size="10.00">vector</text>
</a>
</g>
</g>
<!-- Node1&#45;&gt;Node21 -->
<g id="edge34" class="edge">
<title>Node1&#45;&gt;Node21</title>
<path fill="none" stroke="midnightblue" d="M523.43,-356.19C584.2,-349.56 682.3,-335.93 763.84,-311 765.77,-310.41 767.73,-309.73 769.68,-309"/>
<polygon fill="midnightblue" stroke="midnightblue" points="771.34,-312.1 779.22,-305.01 768.64,-305.64 771.34,-312.1"/>
</g>
<!-- Node4 -->
<g id="node4" class="node">
<title>Node4</title>
<g id="a_node4"><a xlink:href="size__generic_8h.html" target="_top" xlink:title=" ">
<polygon fill="white" stroke="black" points="275.84,-112.5 275.84,-131.5 361.84,-131.5 361.84,-112.5 275.84,-112.5"/>
<text text-anchor="middle" x="318.84" y="-119.5" font-family="Arial" font-size="10.00">size_generic.h</text>
</a>
</g>
</g>
<!-- Node3&#45;&gt;Node4 -->
<g id="edge3" class="edge">
<title>Node3&#45;&gt;Node4</title>
<path fill="none" stroke="midnightblue" d="M369.2,-168.32C360.33,-160.34 346.97,-148.31 336.23,-138.65"/>
<polygon fill="midnightblue" stroke="midnightblue" points="338.43,-135.92 328.66,-131.83 333.75,-141.13 338.43,-135.92"/>
</g>
<!-- Node9 -->
<g id="node9" class="node">
<title>Node9</title>
<g id="a_node9"><a xlink:href="dimensions_8h.html" target="_top" xlink:title=" ">
<polygon fill="white" stroke="black" points="379.84,-112.5 379.84,-131.5 461.84,-131.5 461.84,-112.5 379.84,-112.5"/>
<text text-anchor="middle" x="420.84" y="-119.5" font-family="Arial" font-size="10.00">dimensions.h</text>
</a>
</g>
</g>
<!-- Node3&#45;&gt;Node9 -->
<g id="edge8" class="edge">
<title>Node3&#45;&gt;Node9</title>
<path fill="none" stroke="midnightblue" d="M385.78,-168.08C391.77,-160.38 400.59,-149.03 407.89,-139.65"/>
<polygon fill="midnightblue" stroke="midnightblue" points="410.66,-141.79 414.03,-131.75 405.13,-137.5 410.66,-141.79"/>
</g>
<!-- Node5 -->
<g id="node5" class="node">
<title>Node5</title>
<g id="a_node5"><a xlink:href="dimensions__generic_8h.html" target="_top" xlink:title=" ">
<polygon fill="white" stroke="black" points="188.34,-56.5 188.34,-75.5 311.34,-75.5 311.34,-56.5 188.34,-56.5"/>
<text text-anchor="middle" x="249.84" y="-63.5" font-family="Arial" font-size="10.00">dimensions_generic.h</text>
</a>
</g>
</g>
<!-- Node4&#45;&gt;Node5 -->
<g id="edge4" class="edge">
<title>Node4&#45;&gt;Node5</title>
<path fill="none" stroke="midnightblue" d="M307.75,-112.32C297.35,-104.18 281.58,-91.84 269.12,-82.09"/>
<polygon fill="midnightblue" stroke="midnightblue" points="271.16,-79.24 261.13,-75.83 266.85,-84.75 271.16,-79.24"/>
</g>
<!-- Node8 -->
<g id="node8" class="node">
<title>Node8</title>
<g id="a_node8"><a xlink:title=" ">
<polygon fill="white" stroke="#bfbfbf" points="102.34,-56.5 102.34,-75.5 159.34,-75.5 159.34,-56.5 102.34,-56.5"/>
<text text-anchor="middle" x="130.84" y="-63.5" font-family="Arial" font-size="10.00">ostream</text>
</a>
</g>
</g>
<!-- Node4&#45;&gt;Node8 -->
<g id="edge7" class="edge">
<title>Node4&#45;&gt;Node8</title>
<path fill="none" stroke="midnightblue" d="M289.05,-112.44C256.73,-103.16 205,-88.3 169.55,-78.12"/>
<polygon fill="midnightblue" stroke="midnightblue" points="170.14,-74.65 159.57,-75.25 168.21,-81.38 170.14,-74.65"/>
</g>
<!-- Node6 -->
<g id="node6" class="node">
<title>Node6</title>
<g id="a_node6"><a xlink:title=" ">
<polygon fill="white" stroke="#bfbfbf" points="186.84,-0.5 186.84,-19.5 234.84,-19.5 234.84,-0.5 186.84,-0.5"/>
<text text-anchor="middle" x="210.84" y="-7.5" font-family="Arial" font-size="10.00">iosfwd</text>
</a>
</g>
</g>
<!-- Node5&#45;&gt;Node6 -->
<g id="edge5" class="edge">
<title>Node5&#45;&gt;Node6</title>
<path fill="none" stroke="midnightblue" d="M243.4,-56.08C237.89,-48.46 229.81,-37.26 223.08,-27.94"/>
<polygon fill="midnightblue" stroke="midnightblue" points="225.85,-25.81 217.16,-19.75 220.18,-29.91 225.85,-25.81"/>
</g>
<!-- Node7 -->
<g id="node7" class="node">
<title>Node7</title>
<g id="a_node7"><a xlink:title=" ">
<polygon fill="white" stroke="#bfbfbf" points="253.34,-0.5 253.34,-19.5 322.34,-19.5 322.34,-0.5 253.34,-0.5"/>
<text text-anchor="middle" x="287.84" y="-7.5" font-family="Arial" font-size="10.00">type_traits</text>
</a>
</g>
</g>
<!-- Node5&#45;&gt;Node7 -->
<g id="edge6" class="edge">
<title>Node5&#45;&gt;Node7</title>
<path fill="none" stroke="midnightblue" d="M256.12,-56.08C261.48,-48.46 269.36,-37.26 275.92,-27.94"/>
<polygon fill="midnightblue" stroke="midnightblue" points="278.79,-29.94 281.68,-19.75 273.07,-25.91 278.79,-29.94"/>
</g>
<!-- Node9&#45;&gt;Node5 -->
<g id="edge9" class="edge">
<title>Node9&#45;&gt;Node5</title>
<path fill="none" stroke="midnightblue" d="M393.75,-112.44C364.85,-103.32 318.92,-88.81 286.74,-78.65"/>
<polygon fill="midnightblue" stroke="midnightblue" points="287.4,-75.19 276.81,-75.52 285.29,-81.87 287.4,-75.19"/>
</g>
<!-- Node10 -->
<g id="node10" class="node">
<title>Node10</title>
<g id="a_node10"><a xlink:title=" ">
<polygon fill="white" stroke="#bfbfbf" points="395.84,-56.5 395.84,-75.5 445.84,-75.5 445.84,-56.5 395.84,-56.5"/>
<text text-anchor="middle" x="420.84" y="-63.5" font-family="Arial" font-size="10.00">cstdint</text>
</a>
</g>
</g>
<!-- Node9&#45;&gt;Node10 -->
<g id="edge10" class="edge">
<title>Node9&#45;&gt;Node10</title>
<path fill="none" stroke="midnightblue" d="M420.84,-112.08C420.84,-105.01 420.84,-94.86 420.84,-85.99"/>
<polygon fill="midnightblue" stroke="midnightblue" points="424.34,-85.75 420.84,-75.75 417.34,-85.75 424.34,-85.75"/>
</g>
<!-- Node11&#45;&gt;Node3 -->
<g id="edge24" class="edge">
<title>Node11&#45;&gt;Node3</title>
<path fill="none" stroke="midnightblue" d="M285.75,-285.78C295.76,-275.89 312.36,-259.15 325.84,-244 340,-228.09 355.28,-209.15 365.78,-195.82"/>
<polygon fill="midnightblue" stroke="midnightblue" points="368.8,-197.64 372.21,-187.61 363.29,-193.32 368.8,-197.64"/>
</g>
<!-- Node12 -->
<g id="node12" class="node">
<title>Node12</title>
<g id="a_node12"><a xlink:href="rectangle__generic_8h.html" target="_top" xlink:title=" ">
<polygon fill="white" stroke="black" points="45.34,-168.5 45.34,-187.5 158.34,-187.5 158.34,-168.5 45.34,-168.5"/>
<text text-anchor="middle" x="101.84" y="-175.5" font-family="Arial" font-size="10.00">rectangle_generic.h</text>
</a>
</g>
</g>
<!-- Node11&#45;&gt;Node12 -->
<g id="edge12" class="edge">
<title>Node11&#45;&gt;Node12</title>
<path fill="none" stroke="midnightblue" d="M263.69,-285.82C233.79,-266.09 160.48,-217.7 123.67,-193.41"/>
<polygon fill="midnightblue" stroke="midnightblue" points="125.42,-190.37 115.15,-187.78 121.57,-196.21 125.42,-190.37"/>
</g>
<!-- Node15 -->
<g id="node15" class="node">
<title>Node15</title>
<g id="a_node15"><a xlink:href="point_8h.html" target="_top" xlink:title=" ">
<polygon fill="white" stroke="black" points="176.84,-168.5 176.84,-187.5 226.84,-187.5 226.84,-168.5 176.84,-168.5"/>
<text text-anchor="middle" x="201.84" y="-175.5" font-family="Arial" font-size="10.00">point.h</text>
</a>
</g>
</g>
<!-- Node11&#45;&gt;Node15 -->
<g id="edge21" class="edge">
<title>Node11&#45;&gt;Node15</title>
<path fill="none" stroke="midnightblue" d="M261.56,-285.96C247.45,-277.26 227.04,-262.45 215.84,-244 207.32,-229.97 203.95,-211.47 202.63,-197.8"/>
<polygon fill="midnightblue" stroke="midnightblue" points="206.11,-197.39 201.94,-187.65 199.13,-197.87 206.11,-197.39"/>
</g>
<!-- Node16 -->
<g id="node16" class="node">
<title>Node16</title>
<g id="a_node16"><a xlink:href="displacement_8h.html" target="_top" xlink:title=" ">
<polygon fill="white" stroke="black" points="224.84,-224.5 224.84,-243.5 316.84,-243.5 316.84,-224.5 224.84,-224.5"/>
<text text-anchor="middle" x="270.84" y="-231.5" font-family="Arial" font-size="10.00">displacement.h</text>
</a>
</g>
</g>
<!-- Node11&#45;&gt;Node16 -->
<g id="edge25" class="edge">
<title>Node11&#45;&gt;Node16</title>
<path fill="none" stroke="midnightblue" d="M275.98,-285.98C275.13,-277.58 273.81,-264.48 272.72,-253.66"/>
<polygon fill="midnightblue" stroke="midnightblue" points="276.18,-253.11 271.7,-243.51 269.22,-253.81 276.18,-253.11"/>
</g>
<!-- Node12&#45;&gt;Node4 -->
<g id="edge16" class="edge">
<title>Node12&#45;&gt;Node4</title>
<path fill="none" stroke="midnightblue" d="M136.23,-168.44C173.76,-159.1 233.97,-144.12 274.91,-133.93"/>
<polygon fill="midnightblue" stroke="midnightblue" points="275.76,-137.33 284.62,-131.52 274.07,-130.53 275.76,-137.33"/>
</g>
<!-- Node12&#45;&gt;Node8 -->
<g id="edge20" class="edge">
<title>Node12&#45;&gt;Node8</title>
<path fill="none" stroke="midnightblue" d="M66.16,-168.47C31.16,-158.32 -14.37,-139.26 4.84,-112 24.47,-84.15 62.98,-73.44 92.29,-69.37"/>
<polygon fill="midnightblue" stroke="midnightblue" points="92.7,-72.85 102.22,-68.19 91.88,-65.9 92.7,-72.85"/>
</g>
<!-- Node13 -->
<g id="node13" class="node">
<title>Node13</title>
<g id="a_node13"><a xlink:href="point__generic_8h.html" target="_top" xlink:title=" ">
<polygon fill="white" stroke="black" points="13.84,-112.5 13.84,-131.5 105.84,-131.5 105.84,-112.5 13.84,-112.5"/>
<text text-anchor="middle" x="59.84" y="-119.5" font-family="Arial" font-size="10.00">point_generic.h</text>
</a>
</g>
</g>
<!-- Node12&#45;&gt;Node13 -->
<g id="edge13" class="edge">
<title>Node12&#45;&gt;Node13</title>
<path fill="none" stroke="midnightblue" d="M94.91,-168.08C88.91,-160.38 80.09,-149.03 72.79,-139.65"/>
<polygon fill="midnightblue" stroke="midnightblue" points="75.55,-137.5 66.65,-131.75 70.02,-141.79 75.55,-137.5"/>
</g>
<!-- Node14 -->
<g id="node14" class="node">
<title>Node14</title>
<g id="a_node14"><a xlink:href="displacement__generic_8h.html" target="_top" xlink:title=" ">
<polygon fill="white" stroke="black" points="124.34,-112.5 124.34,-131.5 257.34,-131.5 257.34,-112.5 124.34,-112.5"/>
<text text-anchor="middle" x="190.84" y="-119.5" font-family="Arial" font-size="10.00">displacement_generic.h</text>
</a>
</g>
</g>
<!-- Node12&#45;&gt;Node14 -->
<g id="edge17" class="edge">
<title>Node12&#45;&gt;Node14</title>
<path fill="none" stroke="midnightblue" d="M116.14,-168.32C130.02,-159.9 151.33,-146.97 167.64,-137.07"/>
<polygon fill="midnightblue" stroke="midnightblue" points="169.84,-139.83 176.58,-131.65 166.21,-133.85 169.84,-139.83"/>
</g>
<!-- Node13&#45;&gt;Node5 -->
<g id="edge14" class="edge">
<title>Node13&#45;&gt;Node5</title>
<path fill="none" stroke="midnightblue" d="M89.95,-112.44C122.47,-103.2 174.42,-88.44 210.23,-78.26"/>
<polygon fill="midnightblue" stroke="midnightblue" points="211.21,-81.62 219.88,-75.52 209.3,-74.88 211.21,-81.62"/>
</g>
<!-- Node13&#45;&gt;Node8 -->
<g id="edge15" class="edge">
<title>Node13&#45;&gt;Node8</title>
<path fill="none" stroke="midnightblue" d="M71.25,-112.32C81.95,-104.18 98.18,-91.84 111,-82.09"/>
<polygon fill="midnightblue" stroke="midnightblue" points="113.39,-84.67 119.23,-75.83 109.15,-79.1 113.39,-84.67"/>
</g>
<!-- Node14&#45;&gt;Node5 -->
<g id="edge18" class="edge">
<title>Node14&#45;&gt;Node5</title>
<path fill="none" stroke="midnightblue" d="M200.32,-112.32C209.04,-104.34 222.18,-92.31 232.74,-82.65"/>
<polygon fill="midnightblue" stroke="midnightblue" points="235.18,-85.17 240.19,-75.83 230.45,-80 235.18,-85.17"/>
</g>
<!-- Node14&#45;&gt;Node8 -->
<g id="edge19" class="edge">
<title>Node14&#45;&gt;Node8</title>
<path fill="none" stroke="midnightblue" d="M181.2,-112.32C172.33,-104.34 158.97,-92.31 148.23,-82.65"/>
<polygon fill="midnightblue" stroke="midnightblue" points="150.43,-79.92 140.66,-75.83 145.75,-85.13 150.43,-79.92"/>
</g>
<!-- Node15&#45;&gt;Node9 -->
<g id="edge23" class="edge">
<title>Node15&#45;&gt;Node9</title>
<path fill="none" stroke="midnightblue" d="M226.96,-170.81C263.42,-161.82 331.53,-145.02 376.53,-133.93"/>
<polygon fill="midnightblue" stroke="midnightblue" points="377.45,-137.3 386.32,-131.51 375.78,-130.51 377.45,-137.3"/>
</g>
<!-- Node15&#45;&gt;Node13 -->
<g id="edge22" class="edge">
<title>Node15&#45;&gt;Node13</title>
<path fill="none" stroke="midnightblue" d="M179.34,-168.44C155.76,-159.48 118.52,-145.31 91.88,-135.18"/>
<polygon fill="midnightblue" stroke="midnightblue" points="92.83,-131.8 82.24,-131.52 90.34,-138.34 92.83,-131.8"/>
</g>
<!-- Node16&#45;&gt;Node3 -->
<g id="edge29" class="edge">
<title>Node16&#45;&gt;Node3</title>
<path fill="none" stroke="midnightblue" d="M288.19,-224.32C305.51,-215.66 332.36,-202.24 352.34,-192.25"/>
<polygon fill="midnightblue" stroke="midnightblue" points="354.15,-195.26 361.53,-187.65 351.02,-189 354.15,-195.26"/>
</g>
<!-- Node16&#45;&gt;Node9 -->
<g id="edge27" class="edge">
<title>Node16&#45;&gt;Node9</title>
<path fill="none" stroke="midnightblue" d="M274.29,-224.22C280.1,-210.47 293.06,-183.81 311.84,-168 330.23,-152.52 354.68,-141.77 375.76,-134.67"/>
<polygon fill="midnightblue" stroke="midnightblue" points="377.02,-137.95 385.48,-131.57 374.89,-131.28 377.02,-137.95"/>
</g>
<!-- Node16&#45;&gt;Node14 -->
<g id="edge26" class="edge">
<title>Node16&#45;&gt;Node14</title>
<path fill="none" stroke="midnightblue" d="M267.06,-224.11C261.32,-211.12 249.61,-186.51 235.84,-168 227.86,-157.28 217.38,-146.64 208.53,-138.4"/>
<polygon fill="midnightblue" stroke="midnightblue" points="210.76,-135.69 200.99,-131.58 206.06,-140.88 210.76,-135.69"/>
</g>
<!-- Node16&#45;&gt;Node15 -->
<g id="edge28" class="edge">
<title>Node16&#45;&gt;Node15</title>
<path fill="none" stroke="midnightblue" d="M259.75,-224.32C249.35,-216.18 233.58,-203.84 221.12,-194.09"/>
<polygon fill="midnightblue" stroke="midnightblue" points="223.16,-191.24 213.13,-187.83 218.85,-196.75 223.16,-191.24"/>
</g>
<!-- Node20 -->
<g id="node20" class="node">
<title>Node20</title>
<g id="a_node20"><a xlink:title=" ">
<polygon fill="white" stroke="#bfbfbf" points="668.34,-224.5 668.34,-243.5 721.34,-243.5 721.34,-224.5 668.34,-224.5"/>
<text text-anchor="middle" x="694.84" y="-231.5" font-family="Arial" font-size="10.00">stdint.h</text>
</a>
</g>
</g>
<!-- Node19&#45;&gt;Node20 -->
<g id="edge33" class="edge">
<title>Node19&#45;&gt;Node20</title>
<path fill="none" stroke="midnightblue" d="M694.84,-280.4C694.84,-272.47 694.84,-262.46 694.84,-253.86"/>
<polygon fill="midnightblue" stroke="midnightblue" points="698.34,-253.66 694.84,-243.66 691.34,-253.66 698.34,-253.66"/>
</g>
</g>
</svg>
