<?xml version="1.0" encoding="UTF-8" standalone="no"?>
<!DOCTYPE svg PUBLIC "-//W3C//DTD SVG 1.1//EN"
 "http://www.w3.org/Graphics/SVG/1.1/DTD/svg11.dtd">
<!-- Generated by graphviz version 2.38.0 (20140413.2041)
 -->
<!-- Title: include/common/mir/frontend/surface_id.h Pages: 1 -->
<svg width="130pt" height="151pt"
 viewBox="0.00 0.00 129.50 151.00" xmlns="http://www.w3.org/2000/svg" xmlns:xlink="http://www.w3.org/1999/xlink">
<g id="graph0" class="graph" transform="scale(1 1) rotate(0) translate(4 147)">
<title>include/common/mir/frontend/surface_id.h</title>
<polygon fill="white" stroke="none" points="-4,4 -4,-147 125.5,-147 125.5,4 -4,4"/>
<!-- Node0 -->
<g id="node1" class="node"><title>Node0</title>
<polygon fill="#bfbfbf" stroke="black" points="1.5,-112.5 1.5,-142.5 112.5,-142.5 112.5,-112.5 1.5,-112.5"/>
<text text-anchor="start" x="9.5" y="-130.5" font-family="Arial" font-size="10.00">include/common/mir</text>
<text text-anchor="middle" x="57" y="-119.5" font-family="Arial" font-size="10.00">/frontend/surface_id.h</text>
</g>
<!-- Node1 -->
<g id="node2" class="node"><title>Node1</title>
<g id="a_node2"><a xlink:href="int__wrapper_8h.html" target="_top" xlink:title="mir/int_wrapper.h">
<polygon fill="white" stroke="black" points="11.5,-56.5 11.5,-75.5 102.5,-75.5 102.5,-56.5 11.5,-56.5"/>
<text text-anchor="middle" x="57" y="-63.5" font-family="Arial" font-size="10.00">mir/int_wrapper.h</text>
</a>
</g>
</g>
<!-- Node0&#45;&gt;Node1 -->
<g id="edge1" class="edge"><title>Node0&#45;&gt;Node1</title>
<path fill="none" stroke="midnightblue" d="M57,-112.399C57,-104.466 57,-94.458 57,-85.8583"/>
<polygon fill="midnightblue" stroke="midnightblue" points="60.5001,-85.6577 57,-75.6578 53.5001,-85.6578 60.5001,-85.6577"/>
</g>
<!-- Node2 -->
<g id="node3" class="node"><title>Node2</title>
<polygon fill="white" stroke="#bfbfbf" points="0,-0.5 0,-19.5 44,-19.5 44,-0.5 0,-0.5"/>
<text text-anchor="middle" x="22" y="-7.5" font-family="Arial" font-size="10.00">iosfwd</text>
</g>
<!-- Node1&#45;&gt;Node2 -->
<g id="edge2" class="edge"><title>Node1&#45;&gt;Node2</title>
<path fill="none" stroke="midnightblue" d="M51.2205,-56.083C46.3276,-48.5341 39.1726,-37.4948 33.1674,-28.2298"/>
<polygon fill="midnightblue" stroke="midnightblue" points="36.048,-26.239 27.672,-19.7511 30.174,-30.0463 36.048,-26.239"/>
</g>
<!-- Node3 -->
<g id="node4" class="node"><title>Node3</title>
<polygon fill="white" stroke="#bfbfbf" points="62.5,-0.5 62.5,-19.5 121.5,-19.5 121.5,-0.5 62.5,-0.5"/>
<text text-anchor="middle" x="92" y="-7.5" font-family="Arial" font-size="10.00">functional</text>
</g>
<!-- Node1&#45;&gt;Node3 -->
<g id="edge3" class="edge"><title>Node1&#45;&gt;Node3</title>
<path fill="none" stroke="midnightblue" d="M62.7795,-56.083C67.6724,-48.5341 74.8274,-37.4948 80.8326,-28.2298"/>
<polygon fill="midnightblue" stroke="midnightblue" points="83.826,-30.0463 86.328,-19.7511 77.952,-26.239 83.826,-30.0463"/>
</g>
</g>
</svg>
