<?xml version="1.0" encoding="UTF-8" standalone="no"?>
<!DOCTYPE svg PUBLIC "-//W3C//DTD SVG 1.1//EN"
 "http://www.w3.org/Graphics/SVG/1.1/DTD/svg11.dtd">
<!-- Generated by graphviz version 2.40.1 (20161225.0304)
 -->
<!-- Title: examples/example&#45;server&#45;lib/sw_splash.h Pages: 1 -->
<svg width="153pt" height="151pt"
 viewBox="0.00 0.00 153.00 151.00" xmlns="http://www.w3.org/2000/svg" xmlns:xlink="http://www.w3.org/1999/xlink">
<g id="graph0" class="graph" transform="scale(1 1) rotate(0) translate(4 147)">
<title>examples/example&#45;server&#45;lib/sw_splash.h</title>
<polygon fill="#ffffff" stroke="transparent" points="-4,4 -4,-147 149,-147 149,4 -4,4"/>
<!-- Node0 -->
<g id="node1" class="node">
<title>Node0</title>
<polygon fill="#bfbfbf" stroke="#000000" points="0,-112.5 0,-142.5 145,-142.5 145,-112.5 0,-112.5"/>
<text text-anchor="start" x="8" y="-130.5" font-family="Arial" font-size="10.00" fill="#000000">examples/example&#45;server</text>
<text text-anchor="middle" x="72.5" y="-119.5" font-family="Arial" font-size="10.00" fill="#000000">&#45;lib/sw_splash.h</text>
</g>
<!-- Node1 -->
<g id="node2" class="node">
<title>Node1</title>
<g id="a_node2"><a xlink:href="splash__session_8h.html" target="_top" xlink:title="splash_session.h">
<polygon fill="#ffffff" stroke="#000000" points="23,-56.5 23,-75.5 122,-75.5 122,-56.5 23,-56.5"/>
<text text-anchor="middle" x="72.5" y="-63.5" font-family="Arial" font-size="10.00" fill="#000000">splash_session.h</text>
</a>
</g>
</g>
<!-- Node0&#45;&gt;Node1 -->
<g id="edge1" class="edge">
<title>Node0&#45;&gt;Node1</title>
<path fill="none" stroke="#191970" d="M72.5,-112.2977C72.5,-104.3834 72.5,-94.6043 72.5,-86.0759"/>
<polygon fill="#191970" stroke="#191970" points="76.0001,-85.8469 72.5,-75.8469 69.0001,-85.847 76.0001,-85.8469"/>
</g>
<!-- Node2 -->
<g id="node3" class="node">
<title>Node2</title>
<polygon fill="#ffffff" stroke="#bfbfbf" points="43.5,-.5 43.5,-19.5 101.5,-19.5 101.5,-.5 43.5,-.5"/>
<text text-anchor="middle" x="72.5" y="-7.5" font-family="Arial" font-size="10.00" fill="#000000">memory</text>
</g>
<!-- Node1&#45;&gt;Node2 -->
<g id="edge2" class="edge">
<title>Node1&#45;&gt;Node2</title>
<path fill="none" stroke="#191970" d="M72.5,-56.2455C72.5,-48.9382 72.5,-38.6944 72.5,-29.7046"/>
<polygon fill="#191970" stroke="#191970" points="76.0001,-29.6426 72.5,-19.6427 69.0001,-29.6427 76.0001,-29.6426"/>
</g>
</g>
</svg>
