<?xml version="1.0" encoding="UTF-8" standalone="no"?>
<!DOCTYPE svg PUBLIC "-//W3C//DTD SVG 1.1//EN"
 "http://www.w3.org/Graphics/SVG/1.1/DTD/svg11.dtd">
<!-- Generated by graphviz version 2.40.1 (20161225.0304)
 -->
<!-- Title: examples/example&#45;server&#45;lib/sw_splash.h Pages: 1 -->
<svg width="680pt" height="173pt"
 viewBox="0.00 0.00 680.00 173.00" xmlns="http://www.w3.org/2000/svg" xmlns:xlink="http://www.w3.org/1999/xlink">
<g id="graph0" class="graph" transform="scale(1 1) rotate(0) translate(4 169)">
<title>examples/example&#45;server&#45;lib/sw_splash.h</title>
<polygon fill="#ffffff" stroke="transparent" points="-4,4 -4,-169 676,-169 676,4 -4,4"/>
<!-- Node3 -->
<g id="node1" class="node">
<title>Node3</title>
<polygon fill="#bfbfbf" stroke="#000000" points="225,-134.5 225,-164.5 370,-164.5 370,-134.5 225,-134.5"/>
<text text-anchor="start" x="233" y="-152.5" font-family="Arial" font-size="10.00" fill="#000000">examples/example&#45;server</text>
<text text-anchor="middle" x="297.5" y="-141.5" font-family="Arial" font-size="10.00" fill="#000000">&#45;lib/sw_splash.h</text>
</g>
<!-- Node4 -->
<g id="node2" class="node">
<title>Node4</title>
<g id="a_node2"><a xlink:href="kiosk__window__manager_8h.html" target="_top" xlink:title="examples/miral&#45;kiosk\l/kiosk_window_manager.h">
<polygon fill="#ffffff" stroke="#000000" points="60.5,-67.5 60.5,-97.5 206.5,-97.5 206.5,-67.5 60.5,-67.5"/>
<text text-anchor="start" x="68.5" y="-85.5" font-family="Arial" font-size="10.00" fill="#000000">examples/miral&#45;kiosk</text>
<text text-anchor="middle" x="133.5" y="-74.5" font-family="Arial" font-size="10.00" fill="#000000">/kiosk_window_manager.h</text>
</a>
</g>
</g>
<!-- Node3&#45;&gt;Node4 -->
<g id="edge1" class="edge">
<title>Node3&#45;&gt;Node4</title>
<path fill="none" stroke="#191970" d="M251.212,-130.5897C225.6626,-120.1518 194.3646,-107.3654 170.4653,-97.6017"/>
<polygon fill="#191970" stroke="#191970" points="250.1142,-133.9219 260.6952,-134.4639 252.7616,-127.4419 250.1142,-133.9219"/>
</g>
<!-- Node7 -->
<g id="node5" class="node">
<title>Node7</title>
<g id="a_node5"><a xlink:href="sw__splash_8cpp.html" target="_top" xlink:title="examples/example&#45;server\l&#45;lib/sw_splash.cpp">
<polygon fill="#ffffff" stroke="#000000" points="225,-67.5 225,-97.5 370,-97.5 370,-67.5 225,-67.5"/>
<text text-anchor="start" x="233" y="-85.5" font-family="Arial" font-size="10.00" fill="#000000">examples/example&#45;server</text>
<text text-anchor="middle" x="297.5" y="-74.5" font-family="Arial" font-size="10.00" fill="#000000">&#45;lib/sw_splash.cpp</text>
</a>
</g>
</g>
<!-- Node3&#45;&gt;Node7 -->
<g id="edge4" class="edge">
<title>Node3&#45;&gt;Node7</title>
<path fill="none" stroke="#191970" d="M297.5,-124.0249C297.5,-115.128 297.5,-105.4287 297.5,-97.6432"/>
<polygon fill="#191970" stroke="#191970" points="294.0001,-124.2966 297.5,-134.2967 301.0001,-124.2967 294.0001,-124.2966"/>
</g>
<!-- Node8 -->
<g id="node6" class="node">
<title>Node8</title>
<g id="a_node6"><a xlink:href="tiling__window__manager_8h.html" target="_top" xlink:title="examples/example&#45;server\l&#45;lib/tiling_window_manager.h">
<polygon fill="#ffffff" stroke="#000000" points="388.5,-67.5 388.5,-97.5 548.5,-97.5 548.5,-67.5 388.5,-67.5"/>
<text text-anchor="start" x="396.5" y="-85.5" font-family="Arial" font-size="10.00" fill="#000000">examples/example&#45;server</text>
<text text-anchor="middle" x="468.5" y="-74.5" font-family="Arial" font-size="10.00" fill="#000000">&#45;lib/tiling_window_manager.h</text>
</a>
</g>
</g>
<!-- Node3&#45;&gt;Node8 -->
<g id="edge5" class="edge">
<title>Node3&#45;&gt;Node8</title>
<path fill="none" stroke="#191970" d="M345.412,-130.7275C372.116,-120.2645 404.9277,-107.4084 429.9569,-97.6017"/>
<polygon fill="#191970" stroke="#191970" points="343.9097,-127.5569 335.8757,-134.4639 346.4634,-134.0745 343.9097,-127.5569"/>
</g>
<!-- Node5 -->
<g id="node3" class="node">
<title>Node5</title>
<g id="a_node3"><a xlink:href="kiosk__main_8cpp.html" target="_top" xlink:title="examples/miral&#45;kiosk\l/kiosk_main.cpp">
<polygon fill="#ffffff" stroke="#000000" points="0,-.5 0,-30.5 123,-30.5 123,-.5 0,-.5"/>
<text text-anchor="start" x="8" y="-18.5" font-family="Arial" font-size="10.00" fill="#000000">examples/miral&#45;kiosk</text>
<text text-anchor="middle" x="61.5" y="-7.5" font-family="Arial" font-size="10.00" fill="#000000">/kiosk_main.cpp</text>
</a>
</g>
</g>
<!-- Node4&#45;&gt;Node5 -->
<g id="edge2" class="edge">
<title>Node4&#45;&gt;Node5</title>
<path fill="none" stroke="#191970" d="M109.548,-60.2113C99.1129,-50.5009 87.1512,-39.3698 77.7733,-30.6432"/>
<polygon fill="#191970" stroke="#191970" points="107.4571,-63.0466 117.1621,-67.2967 112.2257,-57.9221 107.4571,-63.0466"/>
</g>
<!-- Node6 -->
<g id="node4" class="node">
<title>Node6</title>
<g id="a_node4"><a xlink:href="kiosk__window__manager_8cpp.html" target="_top" xlink:title="examples/miral&#45;kiosk\l/kiosk_window_manager.cpp">
<polygon fill="#ffffff" stroke="#000000" points="141,-.5 141,-30.5 298,-30.5 298,-.5 141,-.5"/>
<text text-anchor="start" x="149" y="-18.5" font-family="Arial" font-size="10.00" fill="#000000">examples/miral&#45;kiosk</text>
<text text-anchor="middle" x="219.5" y="-7.5" font-family="Arial" font-size="10.00" fill="#000000">/kiosk_window_manager.cpp</text>
</a>
</g>
</g>
<!-- Node4&#45;&gt;Node6 -->
<g id="edge3" class="edge">
<title>Node4&#45;&gt;Node6</title>
<path fill="none" stroke="#191970" d="M161.0145,-61.0643C173.7304,-51.1577 188.5316,-39.6265 200.0625,-30.6432"/>
<polygon fill="#191970" stroke="#191970" points="158.7523,-58.3899 153.0147,-67.2967 163.0544,-63.9119 158.7523,-58.3899"/>
</g>
<!-- Node9 -->
<g id="node7" class="node">
<title>Node9</title>
<g id="a_node7"><a xlink:href="shell__main_8cpp.html" target="_top" xlink:title="examples/miral&#45;shell\l/shell_main.cpp">
<polygon fill="#ffffff" stroke="#000000" points="362.5,-.5 362.5,-30.5 482.5,-30.5 482.5,-.5 362.5,-.5"/>
<text text-anchor="start" x="370.5" y="-18.5" font-family="Arial" font-size="10.00" fill="#000000">examples/miral&#45;shell</text>
<text text-anchor="middle" x="422.5" y="-7.5" font-family="Arial" font-size="10.00" fill="#000000">/shell_main.cpp</text>
</a>
</g>
</g>
<!-- Node8&#45;&gt;Node9 -->
<g id="edge6" class="edge">
<title>Node8&#45;&gt;Node9</title>
<path fill="none" stroke="#191970" d="M452.2102,-58.7735C445.7852,-49.4154 438.5946,-38.9421 432.8968,-30.6432"/>
<polygon fill="#191970" stroke="#191970" points="449.5164,-61.0337 458.0619,-67.2967 455.2872,-57.0716 449.5164,-61.0337"/>
</g>
<!-- Node10 -->
<g id="node8" class="node">
<title>Node10</title>
<g id="a_node8"><a xlink:href="tiling__window__manager_8cpp.html" target="_top" xlink:title="examples/example&#45;server\l&#45;lib/tiling_window_manager.cpp">
<polygon fill="#ffffff" stroke="#000000" points="501,-.5 501,-30.5 672,-30.5 672,-.5 501,-.5"/>
<text text-anchor="start" x="509" y="-18.5" font-family="Arial" font-size="10.00" fill="#000000">examples/example&#45;server</text>
<text text-anchor="middle" x="586.5" y="-7.5" font-family="Arial" font-size="10.00" fill="#000000">&#45;lib/tiling_window_manager.cpp</text>
</a>
</g>
</g>
<!-- Node8&#45;&gt;Node10 -->
<g id="edge7" class="edge">
<title>Node8&#45;&gt;Node10</title>
<path fill="none" stroke="#191970" d="M503.9773,-62.3561C521.865,-52.1995 543.2023,-40.0843 559.6986,-30.7177"/>
<polygon fill="#191970" stroke="#191970" points="501.9494,-59.4827 494.9815,-67.4639 505.4057,-65.5699 501.9494,-59.4827"/>
</g>
</g>
</svg>
