<?xml version="1.0" encoding="UTF-8" standalone="no"?>
<!DOCTYPE svg PUBLIC "-//W3C//DTD SVG 1.1//EN"
 "http://www.w3.org/Graphics/SVG/1.1/DTD/svg11.dtd">
<!-- Generated by graphviz version 2.38.0 (20140413.2041)
 -->
<!-- Title: include/test/mir_test_framework/temporary_environment_value.h Pages: 1 -->
<svg width="121pt" height="106pt"
 viewBox="0.00 0.00 121.00 106.00" xmlns="http://www.w3.org/2000/svg" xmlns:xlink="http://www.w3.org/1999/xlink">
<g id="graph0" class="graph" transform="scale(1 1) rotate(0) translate(4 102)">
<title>include/test/mir_test_framework/temporary_environment_value.h</title>
<polygon fill="white" stroke="none" points="-4,4 -4,-102 117,-102 117,4 -4,4"/>
<!-- Node0 -->
<g id="node1" class="node"><title>Node0</title>
<polygon fill="#bfbfbf" stroke="black" points="0,-56.5 0,-97.5 113,-97.5 113,-56.5 0,-56.5"/>
<text text-anchor="start" x="8" y="-85.5" font-family="Arial" font-size="10.00">include/test/mir_test</text>
<text text-anchor="start" x="8" y="-74.5" font-family="Arial" font-size="10.00">_framework/temporary</text>
<text text-anchor="middle" x="56.5" y="-63.5" font-family="Arial" font-size="10.00">_environment_value.h</text>
</g>
<!-- Node1 -->
<g id="node2" class="node"><title>Node1</title>
<polygon fill="white" stroke="#bfbfbf" points="36,-0.5 36,-19.5 77,-19.5 77,-0.5 36,-0.5"/>
<text text-anchor="middle" x="56.5" y="-7.5" font-family="Arial" font-size="10.00">string</text>
</g>
<!-- Node0&#45;&gt;Node1 -->
<g id="edge1" class="edge"><title>Node0&#45;&gt;Node1</title>
<path fill="none" stroke="midnightblue" d="M56.5,-56.4979C56.5,-48.0653 56.5,-38.2351 56.5,-29.874"/>
<polygon fill="midnightblue" stroke="midnightblue" points="60.0001,-29.6525 56.5,-19.6525 53.0001,-29.6525 60.0001,-29.6525"/>
</g>
</g>
</svg>
