<?xml version="1.0" encoding="UTF-8" standalone="no"?>
<!DOCTYPE svg PUBLIC "-//W3C//DTD SVG 1.1//EN"
 "http://www.w3.org/Graphics/SVG/1.1/DTD/svg11.dtd">
<!-- Generated by graphviz version 2.38.0 (20140413.2041)
 -->
<!-- Title: include/common/mir/dispatch/threaded_dispatcher.h Pages: 1 -->
<svg width="745pt" height="274pt"
 viewBox="0.00 0.00 745.09 274.00" xmlns="http://www.w3.org/2000/svg" xmlns:xlink="http://www.w3.org/1999/xlink">
<g id="graph0" class="graph" transform="scale(1 1) rotate(0) translate(4 270)">
<title>include/common/mir/dispatch/threaded_dispatcher.h</title>
<polygon fill="white" stroke="none" points="-4,4 -4,-270 741.093,-270 741.093,4 -4,4"/>
<!-- Node0 -->
<g id="node1" class="node"><title>Node0</title>
<polygon fill="#bfbfbf" stroke="black" points="127,-235.5 127,-265.5 282,-265.5 282,-235.5 127,-235.5"/>
<text text-anchor="start" x="135" y="-253.5" font-family="Arial" font-size="10.00">include/common/mir</text>
<text text-anchor="middle" x="204.5" y="-242.5" font-family="Arial" font-size="10.00">/dispatch/threaded_dispatcher.h</text>
</g>
<!-- Node1 -->
<g id="node2" class="node"><title>Node1</title>
<polygon fill="white" stroke="#bfbfbf" points="0,-174 0,-193 41,-193 41,-174 0,-174"/>
<text text-anchor="middle" x="20.5" y="-181" font-family="Arial" font-size="10.00">string</text>
</g>
<!-- Node0&#45;&gt;Node1 -->
<g id="edge1" class="edge"><title>Node0&#45;&gt;Node1</title>
<path fill="none" stroke="midnightblue" d="M160.548,-235.448C130.734,-225.71 90.5237,-212.174 55.5,-199 53.6532,-198.305 51.7585,-197.574 49.8527,-196.825"/>
<polygon fill="midnightblue" stroke="midnightblue" points="50.9822,-193.507 40.399,-193.01 48.3627,-199.998 50.9822,-193.507"/>
</g>
<!-- Node2 -->
<g id="node3" class="node"><title>Node2</title>
<polygon fill="white" stroke="#bfbfbf" points="336.5,-0.5 336.5,-19.5 388.5,-19.5 388.5,-0.5 336.5,-0.5"/>
<text text-anchor="middle" x="362.5" y="-7.5" font-family="Arial" font-size="10.00">memory</text>
</g>
<!-- Node0&#45;&gt;Node2 -->
<g id="edge2" class="edge"><title>Node0&#45;&gt;Node2</title>
<path fill="none" stroke="midnightblue" d="M138.138,-235.411C118.86,-227.907 99.937,-216.453 88.5,-199 80.9483,-187.476 83.9253,-180.996 88.5,-168 123.491,-68.5955 260.409,-29.9541 326.465,-16.8696"/>
<polygon fill="midnightblue" stroke="midnightblue" points="327.256,-20.2819 336.431,-14.9836 325.955,-13.404 327.256,-20.2819"/>
</g>
<!-- Node3 -->
<g id="node4" class="node"><title>Node3</title>
<polygon fill="white" stroke="#bfbfbf" points="97.5,-174 97.5,-193 141.5,-193 141.5,-174 97.5,-174"/>
<text text-anchor="middle" x="119.5" y="-181" font-family="Arial" font-size="10.00">thread</text>
</g>
<!-- Node0&#45;&gt;Node3 -->
<g id="edge3" class="edge"><title>Node0&#45;&gt;Node3</title>
<path fill="none" stroke="midnightblue" d="M186.056,-235.396C172.147,-224.759 153.111,-210.203 138.96,-199.381"/>
<polygon fill="midnightblue" stroke="midnightblue" points="140.939,-196.489 130.87,-193.195 136.687,-202.049 140.939,-196.489"/>
</g>
<!-- Node4 -->
<g id="node5" class="node"><title>Node4</title>
<polygon fill="white" stroke="#bfbfbf" points="159.5,-174 159.5,-193 201.5,-193 201.5,-174 159.5,-174"/>
<text text-anchor="middle" x="180.5" y="-181" font-family="Arial" font-size="10.00">vector</text>
</g>
<!-- Node0&#45;&gt;Node4 -->
<g id="edge4" class="edge"><title>Node0&#45;&gt;Node4</title>
<path fill="none" stroke="midnightblue" d="M199.292,-235.396C195.773,-225.863 191.09,-213.182 187.28,-202.862"/>
<polygon fill="midnightblue" stroke="midnightblue" points="190.457,-201.363 183.71,-193.195 183.891,-203.788 190.457,-201.363"/>
</g>
<!-- Node5 -->
<g id="node6" class="node"><title>Node5</title>
<polygon fill="white" stroke="#bfbfbf" points="142.5,-112.5 142.5,-131.5 186.5,-131.5 186.5,-112.5 142.5,-112.5"/>
<text text-anchor="middle" x="164.5" y="-119.5" font-family="Arial" font-size="10.00">mutex</text>
</g>
<!-- Node0&#45;&gt;Node5 -->
<g id="edge5" class="edge"><title>Node0&#45;&gt;Node5</title>
<path fill="none" stroke="midnightblue" d="M209.329,-235.317C214.204,-218.54 219.797,-190.101 210.5,-168 205.474,-156.053 195.556,-145.692 186.213,-137.934"/>
<polygon fill="midnightblue" stroke="midnightblue" points="188.34,-135.155 178.287,-131.811 184.061,-140.694 188.34,-135.155"/>
</g>
<!-- Node6 -->
<g id="node7" class="node"><title>Node6</title>
<polygon fill="white" stroke="#bfbfbf" points="258,-174 258,-193 351,-193 351,-174 258,-174"/>
<text text-anchor="middle" x="304.5" y="-181" font-family="Arial" font-size="10.00">condition_variable</text>
</g>
<!-- Node0&#45;&gt;Node6 -->
<g id="edge6" class="edge"><title>Node0&#45;&gt;Node6</title>
<path fill="none" stroke="midnightblue" d="M226.199,-235.396C242.968,-224.496 266.071,-209.479 282.833,-198.584"/>
<polygon fill="midnightblue" stroke="midnightblue" points="284.935,-201.391 291.412,-193.007 281.12,-195.522 284.935,-201.391"/>
</g>
<!-- Node7 -->
<g id="node8" class="node"><title>Node7</title>
<g id="a_node8"><a xlink:href="multiplexing__dispatchable_8h.html" target="_top" xlink:title="mir/dispatch/multiplexing\l_dispatchable.h">
<polygon fill="white" stroke="black" points="369,-168.5 369,-198.5 494,-198.5 494,-168.5 369,-168.5"/>
<text text-anchor="start" x="377" y="-186.5" font-family="Arial" font-size="10.00">mir/dispatch/multiplexing</text>
<text text-anchor="middle" x="431.5" y="-175.5" font-family="Arial" font-size="10.00">_dispatchable.h</text>
</a>
</g>
</g>
<!-- Node0&#45;&gt;Node7 -->
<g id="edge7" class="edge"><title>Node0&#45;&gt;Node7</title>
<path fill="none" stroke="midnightblue" d="M253.476,-235.476C288.412,-225.472 335.561,-211.971 372.561,-201.377"/>
<polygon fill="midnightblue" stroke="midnightblue" points="373.57,-204.729 382.22,-198.611 371.643,-197.999 373.57,-204.729"/>
</g>
<!-- Node9 -->
<g id="node10" class="node"><title>Node9</title>
<g id="a_node10"><a xlink:href="fd_8h.html" target="_top" xlink:title="mir/fd.h">
<polygon fill="white" stroke="black" points="631,-56.5 631,-75.5 680,-75.5 680,-56.5 631,-56.5"/>
<text text-anchor="middle" x="655.5" y="-63.5" font-family="Arial" font-size="10.00">mir/fd.h</text>
</a>
</g>
</g>
<!-- Node0&#45;&gt;Node9 -->
<g id="edge18" class="edge"><title>Node0&#45;&gt;Node9</title>
<path fill="none" stroke="midnightblue" d="M282.065,-244.241C415.441,-233.361 679.101,-203.174 732.5,-132 748.747,-110.344 717.213,-91.1177 689.729,-79.2971"/>
<polygon fill="midnightblue" stroke="midnightblue" points="690.843,-75.9713 680.262,-75.433 688.198,-82.4523 690.843,-75.9713"/>
</g>
<!-- Node7&#45;&gt;Node5 -->
<g id="edge16" class="edge"><title>Node7&#45;&gt;Node5</title>
<path fill="none" stroke="midnightblue" d="M368.89,-169.633C314.829,-158.433 239.856,-142.666 196.571,-132.114"/>
<polygon fill="midnightblue" stroke="midnightblue" points="197.348,-128.7 186.799,-129.681 195.657,-135.493 197.348,-128.7"/>
</g>
<!-- Node8 -->
<g id="node9" class="node"><title>Node8</title>
<g id="a_node9"><a xlink:href="dispatchable_8h.html" target="_top" xlink:title="mir/dispatch/dispatchable.h">
<polygon fill="white" stroke="black" points="587.5,-112.5 587.5,-131.5 723.5,-131.5 723.5,-112.5 587.5,-112.5"/>
<text text-anchor="middle" x="655.5" y="-119.5" font-family="Arial" font-size="10.00">mir/dispatch/dispatchable.h</text>
</a>
</g>
</g>
<!-- Node7&#45;&gt;Node8 -->
<g id="edge8" class="edge"><title>Node7&#45;&gt;Node8</title>
<path fill="none" stroke="midnightblue" d="M484.301,-168.475C523.79,-157.986 577.056,-143.837 613.629,-134.122"/>
<polygon fill="midnightblue" stroke="midnightblue" points="614.71,-137.456 623.476,-131.506 612.913,-130.691 614.71,-137.456"/>
</g>
<!-- Node10 -->
<g id="node11" class="node"><title>Node10</title>
<g id="a_node11"><a xlink:href="posix__rw__mutex_8h.html" target="_top" xlink:title="mir/posix_rw_mutex.h">
<polygon fill="white" stroke="black" points="419.5,-112.5 419.5,-131.5 531.5,-131.5 531.5,-112.5 419.5,-112.5"/>
<text text-anchor="middle" x="475.5" y="-119.5" font-family="Arial" font-size="10.00">mir/posix_rw_mutex.h</text>
</a>
</g>
</g>
<!-- Node7&#45;&gt;Node10 -->
<g id="edge11" class="edge"><title>Node7&#45;&gt;Node10</title>
<path fill="none" stroke="midnightblue" d="M441.927,-168.399C448.255,-159.842 456.369,-148.871 463.034,-139.857"/>
<polygon fill="midnightblue" stroke="midnightblue" points="465.966,-141.779 469.098,-131.658 460.338,-137.617 465.966,-141.779"/>
</g>
<!-- Node11 -->
<g id="node12" class="node"><title>Node11</title>
<polygon fill="white" stroke="#bfbfbf" points="489,-56.5 489,-75.5 546,-75.5 546,-56.5 489,-56.5"/>
<text text-anchor="middle" x="517.5" y="-63.5" font-family="Arial" font-size="10.00">pthread.h</text>
</g>
<!-- Node7&#45;&gt;Node11 -->
<g id="edge17" class="edge"><title>Node7&#45;&gt;Node11</title>
<path fill="none" stroke="midnightblue" d="M491.663,-168.449C510.565,-160.895 529.385,-149.4 540.5,-132 550.121,-116.939 540.698,-97.3379 531.171,-83.6143"/>
<polygon fill="midnightblue" stroke="midnightblue" points="533.908,-81.4311 525.094,-75.5515 528.318,-85.6441 533.908,-81.4311"/>
</g>
<!-- Node12 -->
<g id="node13" class="node"><title>Node12</title>
<polygon fill="white" stroke="#bfbfbf" points="204.5,-112.5 204.5,-131.5 262.5,-131.5 262.5,-112.5 204.5,-112.5"/>
<text text-anchor="middle" x="233.5" y="-119.5" font-family="Arial" font-size="10.00">functional</text>
</g>
<!-- Node7&#45;&gt;Node12 -->
<g id="edge13" class="edge"><title>Node7&#45;&gt;Node12</title>
<path fill="none" stroke="midnightblue" d="M384.827,-168.475C350.37,-158.12 304.044,-144.199 271.762,-134.498"/>
<polygon fill="midnightblue" stroke="midnightblue" points="272.391,-131.032 261.807,-131.506 270.377,-137.736 272.391,-131.032"/>
</g>
<!-- Node13 -->
<g id="node14" class="node"><title>Node13</title>
<polygon fill="white" stroke="#bfbfbf" points="281,-112.5 281,-131.5 354,-131.5 354,-112.5 281,-112.5"/>
<text text-anchor="middle" x="317.5" y="-119.5" font-family="Arial" font-size="10.00">initializer_list</text>
</g>
<!-- Node7&#45;&gt;Node13 -->
<g id="edge14" class="edge"><title>Node7&#45;&gt;Node13</title>
<path fill="none" stroke="midnightblue" d="M404.484,-168.399C385.869,-158.684 361.29,-145.855 343.009,-136.314"/>
<polygon fill="midnightblue" stroke="midnightblue" points="344.573,-133.182 334.088,-131.658 341.334,-139.388 344.573,-133.182"/>
</g>
<!-- Node14 -->
<g id="node15" class="node"><title>Node14</title>
<polygon fill="white" stroke="#bfbfbf" points="372,-112.5 372,-131.5 401,-131.5 401,-112.5 372,-112.5"/>
<text text-anchor="middle" x="386.5" y="-119.5" font-family="Arial" font-size="10.00">list</text>
</g>
<!-- Node7&#45;&gt;Node14 -->
<g id="edge15" class="edge"><title>Node7&#45;&gt;Node14</title>
<path fill="none" stroke="midnightblue" d="M420.836,-168.399C414.364,-159.842 406.066,-148.871 399.249,-139.857"/>
<polygon fill="midnightblue" stroke="midnightblue" points="401.872,-137.522 393.048,-131.658 396.289,-141.745 401.872,-137.522"/>
</g>
<!-- Node8&#45;&gt;Node9 -->
<g id="edge9" class="edge"><title>Node8&#45;&gt;Node9</title>
<path fill="none" stroke="midnightblue" d="M655.5,-112.083C655.5,-105.006 655.5,-94.8611 655.5,-85.9865"/>
<polygon fill="midnightblue" stroke="midnightblue" points="659,-85.751 655.5,-75.7511 652,-85.7511 659,-85.751"/>
</g>
<!-- Node9&#45;&gt;Node2 -->
<g id="edge10" class="edge"><title>Node9&#45;&gt;Node2</title>
<path fill="none" stroke="midnightblue" d="M630.519,-60.396C578.583,-50.8241 458.785,-28.7454 398.513,-17.6372"/>
<polygon fill="midnightblue" stroke="midnightblue" points="399.144,-14.1946 388.675,-15.824 397.875,-21.0786 399.144,-14.1946"/>
</g>
<!-- Node10&#45;&gt;Node11 -->
<g id="edge12" class="edge"><title>Node10&#45;&gt;Node11</title>
<path fill="none" stroke="midnightblue" d="M482.435,-112.083C488.429,-104.377 497.252,-93.0333 504.548,-83.6531"/>
<polygon fill="midnightblue" stroke="midnightblue" points="507.317,-85.7934 510.694,-75.7511 501.791,-81.4958 507.317,-85.7934"/>
</g>
</g>
</svg>
