<?xml version="1.0" encoding="UTF-8" standalone="no"?>
<!DOCTYPE svg PUBLIC "-//W3C//DTD SVG 1.1//EN"
 "http://www.w3.org/Graphics/SVG/1.1/DTD/svg11.dtd">
<!-- Generated by graphviz version 2.43.0 (0)
 -->
<!-- Title: examples/example&#45;server&#45;lib/tiling_window_manager.h Pages: 1 -->
<svg width="318pt" height="106pt"
 viewBox="0.00 0.00 317.50 106.00" xmlns="http://www.w3.org/2000/svg" xmlns:xlink="http://www.w3.org/1999/xlink">
<g id="graph0" class="graph" transform="scale(1 1) rotate(0) translate(4 102)">
<title>examples/example&#45;server&#45;lib/tiling_window_manager.h</title>
<polygon fill="white" stroke="transparent" points="-4,4 -4,-102 313.5,-102 313.5,4 -4,4"/>
<!-- Node1 -->
<g id="node1" class="node">
<title>Node1</title>
<g id="a_node1"><a xlink:title=" ">
<polygon fill="#bfbfbf" stroke="black" points="62,-67.5 62,-97.5 222,-97.5 222,-67.5 62,-67.5"/>
<text text-anchor="start" x="70" y="-85.5" font-family="Arial" font-size="10.00">examples/example&#45;server</text>
<text text-anchor="middle" x="142" y="-74.5" font-family="Arial" font-size="10.00">&#45;lib/tiling_window_manager.h</text>
</a>
</g>
</g>
<!-- Node2 -->
<g id="node2" class="node">
<title>Node2</title>
<g id="a_node2"><a xlink:href="shell__main_8cpp.html" target="_top" xlink:title=" ">
<polygon fill="white" stroke="black" points="0,-0.5 0,-30.5 120,-30.5 120,-0.5 0,-0.5"/>
<text text-anchor="start" x="8" y="-18.5" font-family="Arial" font-size="10.00">examples/miral&#45;shell</text>
<text text-anchor="middle" x="60" y="-7.5" font-family="Arial" font-size="10.00">/shell_main.cpp</text>
</a>
</g>
</g>
<!-- Node1&#45;&gt;Node2 -->
<g id="edge1" class="edge">
<title>Node1&#45;&gt;Node2</title>
<path fill="none" stroke="midnightblue" d="M116.35,-61.17C103.81,-51.23 89.03,-39.51 77.76,-30.58"/>
<polygon fill="midnightblue" stroke="midnightblue" points="114.2,-63.93 124.21,-67.4 118.54,-58.44 114.2,-63.93"/>
</g>
<!-- Node3 -->
<g id="node3" class="node">
<title>Node3</title>
<g id="a_node3"><a xlink:href="tiling__window__manager_8cpp.html" target="_top" xlink:title=" ">
<polygon fill="white" stroke="black" points="138.5,-0.5 138.5,-30.5 309.5,-30.5 309.5,-0.5 138.5,-0.5"/>
<text text-anchor="start" x="146.5" y="-18.5" font-family="Arial" font-size="10.00">examples/example&#45;server</text>
<text text-anchor="middle" x="224" y="-7.5" font-family="Arial" font-size="10.00">&#45;lib/tiling_window_manager.cpp</text>
</a>
</g>
</g>
<!-- Node1&#45;&gt;Node3 -->
<g id="edge2" class="edge">
<title>Node1&#45;&gt;Node3</title>
<path fill="none" stroke="midnightblue" d="M167.65,-61.17C180.19,-51.23 194.97,-39.51 206.24,-30.58"/>
<polygon fill="midnightblue" stroke="midnightblue" points="165.46,-58.44 159.79,-67.4 169.8,-63.93 165.46,-58.44"/>
</g>
</g>
</svg>
