<?xml version="1.0" encoding="UTF-8" standalone="no"?>
<!DOCTYPE svg PUBLIC "-//W3C//DTD SVG 1.1//EN"
 "http://www.w3.org/Graphics/SVG/1.1/DTD/svg11.dtd">
<!-- Generated by graphviz version 2.38.0 (20140413.2041)
 -->
<!-- Title: examples/miral&#45;shell/tiling_window_manager.h Pages: 1 -->
<svg width="270pt" height="106pt"
 viewBox="0.00 0.00 270.00 106.00" xmlns="http://www.w3.org/2000/svg" xmlns:xlink="http://www.w3.org/1999/xlink">
<g id="graph0" class="graph" transform="scale(1 1) rotate(0) translate(4 102)">
<title>examples/miral&#45;shell/tiling_window_manager.h</title>
<polygon fill="white" stroke="none" points="-4,4 -4,-102 266,-102 266,4 -4,4"/>
<!-- Node54 -->
<g id="node1" class="node"><title>Node54</title>
<polygon fill="#bfbfbf" stroke="black" points="59,-67.5 59,-97.5 187,-97.5 187,-67.5 59,-67.5"/>
<text text-anchor="start" x="67" y="-85.5" font-family="Arial" font-size="10.00">examples/miral&#45;shell</text>
<text text-anchor="middle" x="123" y="-74.5" font-family="Arial" font-size="10.00">/tiling_window_manager.h</text>
</g>
<!-- Node55 -->
<g id="node2" class="node"><title>Node55</title>
<g id="a_node2"><a xlink:href="shell__main_8cpp.html" target="_top" xlink:title="examples/miral&#45;shell\l/shell_main.cpp">
<polygon fill="white" stroke="black" points="0,-0.5 0,-30.5 106,-30.5 106,-0.5 0,-0.5"/>
<text text-anchor="start" x="8" y="-18.5" font-family="Arial" font-size="10.00">examples/miral&#45;shell</text>
<text text-anchor="middle" x="53" y="-7.5" font-family="Arial" font-size="10.00">/shell_main.cpp</text>
</a>
</g>
</g>
<!-- Node54&#45;&gt;Node55 -->
<g id="edge1" class="edge"><title>Node54&#45;&gt;Node55</title>
<path fill="none" stroke="midnightblue" d="M100.182,-60.3115C89.6813,-50.5612 77.5097,-39.259 68.1593,-30.5765"/>
<polygon fill="midnightblue" stroke="midnightblue" points="98.1015,-63.1562 107.811,-67.396 102.865,-58.0266 98.1015,-63.1562"/>
</g>
<!-- Node56 -->
<g id="node3" class="node"><title>Node56</title>
<g id="a_node3"><a xlink:href="tiling__window__manager_8cpp.html" target="_top" xlink:title="examples/miral&#45;shell\l/tiling_window_manager.cpp">
<polygon fill="white" stroke="black" points="124,-0.5 124,-30.5 262,-30.5 262,-0.5 124,-0.5"/>
<text text-anchor="start" x="132" y="-18.5" font-family="Arial" font-size="10.00">examples/miral&#45;shell</text>
<text text-anchor="middle" x="193" y="-7.5" font-family="Arial" font-size="10.00">/tiling_window_manager.cpp</text>
</a>
</g>
</g>
<!-- Node54&#45;&gt;Node56 -->
<g id="edge2" class="edge"><title>Node54&#45;&gt;Node56</title>
<path fill="none" stroke="midnightblue" d="M145.818,-60.3115C156.319,-50.5612 168.49,-39.259 177.841,-30.5765"/>
<polygon fill="midnightblue" stroke="midnightblue" points="143.135,-58.0266 138.189,-67.396 147.899,-63.1562 143.135,-58.0266"/>
</g>
</g>
</svg>
