<?xml version="1.0" encoding="UTF-8" standalone="no"?>
<!DOCTYPE svg PUBLIC "-//W3C//DTD SVG 1.1//EN"
 "http://www.w3.org/Graphics/SVG/1.1/DTD/svg11.dtd">
<!-- Generated by graphviz version 2.40.1 (20161225.0304)
 -->
<!-- Title: examples/example&#45;server&#45;lib/titlebar_config.cpp Pages: 1 -->
<svg width="226pt" height="151pt"
 viewBox="0.00 0.00 226.00 151.00" xmlns="http://www.w3.org/2000/svg" xmlns:xlink="http://www.w3.org/1999/xlink">
<g id="graph0" class="graph" transform="scale(1 1) rotate(0) translate(4 147)">
<title>examples/example&#45;server&#45;lib/titlebar_config.cpp</title>
<polygon fill="#ffffff" stroke="transparent" points="-4,4 -4,-147 222,-147 222,4 -4,4"/>
<!-- Node0 -->
<g id="node1" class="node">
<title>Node0</title>
<polygon fill="#bfbfbf" stroke="#000000" points="66,-112.5 66,-142.5 194,-142.5 194,-112.5 66,-112.5"/>
<text text-anchor="start" x="74" y="-130.5" font-family="Arial" font-size="10.00" fill="#000000">examples/example&#45;server</text>
<text text-anchor="middle" x="130" y="-119.5" font-family="Arial" font-size="10.00" fill="#000000">&#45;lib/titlebar_config.cpp</text>
</g>
<!-- Node1 -->
<g id="node2" class="node">
<title>Node1</title>
<g id="a_node2"><a xlink:href="titlebar__config_8h.html" target="_top" xlink:title="titlebar_config.h">
<polygon fill="#ffffff" stroke="#000000" points="0,-56.5 0,-75.5 86,-75.5 86,-56.5 0,-56.5"/>
<text text-anchor="middle" x="43" y="-63.5" font-family="Arial" font-size="10.00" fill="#000000">titlebar_config.h</text>
</a>
</g>
</g>
<!-- Node0&#45;&gt;Node1 -->
<g id="edge1" class="edge">
<title>Node0&#45;&gt;Node1</title>
<path fill="none" stroke="#191970" d="M108.4944,-112.2977C95.2032,-102.9022 78.1943,-90.8787 64.8412,-81.4395"/>
<polygon fill="#191970" stroke="#191970" points="66.8561,-78.5776 56.67,-75.6633 62.8154,-84.2937 66.8561,-78.5776"/>
</g>
<!-- Node3 -->
<g id="node4" class="node">
<title>Node3</title>
<polygon fill="#ffffff" stroke="#bfbfbf" points="104.5,-56.5 104.5,-75.5 155.5,-75.5 155.5,-56.5 104.5,-56.5"/>
<text text-anchor="middle" x="130" y="-63.5" font-family="Arial" font-size="10.00" fill="#000000">unistd.h</text>
</g>
<!-- Node0&#45;&gt;Node3 -->
<g id="edge3" class="edge">
<title>Node0&#45;&gt;Node3</title>
<path fill="none" stroke="#191970" d="M130,-112.2977C130,-104.3834 130,-94.6043 130,-86.0759"/>
<polygon fill="#191970" stroke="#191970" points="133.5001,-85.8469 130,-75.8469 126.5001,-85.847 133.5001,-85.8469"/>
</g>
<!-- Node4 -->
<g id="node5" class="node">
<title>Node4</title>
<polygon fill="#ffffff" stroke="#bfbfbf" points="174,-56.5 174,-75.5 218,-75.5 218,-56.5 174,-56.5"/>
<text text-anchor="middle" x="196" y="-63.5" font-family="Arial" font-size="10.00" fill="#000000">mutex</text>
</g>
<!-- Node0&#45;&gt;Node4 -->
<g id="edge4" class="edge">
<title>Node0&#45;&gt;Node4</title>
<path fill="none" stroke="#191970" d="M146.3146,-112.2977C155.9533,-103.3163 168.1691,-91.9334 178.0759,-82.702"/>
<polygon fill="#191970" stroke="#191970" points="180.5025,-85.2249 185.4326,-75.8469 175.7304,-80.1036 180.5025,-85.2249"/>
</g>
<!-- Node2 -->
<g id="node3" class="node">
<title>Node2</title>
<polygon fill="#ffffff" stroke="#bfbfbf" points="22.5,-.5 22.5,-19.5 63.5,-19.5 63.5,-.5 22.5,-.5"/>
<text text-anchor="middle" x="43" y="-7.5" font-family="Arial" font-size="10.00" fill="#000000">string</text>
</g>
<!-- Node1&#45;&gt;Node2 -->
<g id="edge2" class="edge">
<title>Node1&#45;&gt;Node2</title>
<path fill="none" stroke="#191970" d="M43,-56.2455C43,-48.9382 43,-38.6944 43,-29.7046"/>
<polygon fill="#191970" stroke="#191970" points="46.5001,-29.6426 43,-19.6427 39.5001,-29.6427 46.5001,-29.6426"/>
</g>
</g>
</svg>
