<?xml version="1.0" encoding="UTF-8" standalone="no"?>
<!DOCTYPE svg PUBLIC "-//W3C//DTD SVG 1.1//EN"
 "http://www.w3.org/Graphics/SVG/1.1/DTD/svg11.dtd">
<!-- Generated by graphviz version 2.38.0 (20140413.2041)
 -->
<!-- Title: examples/example&#45;server&#45;lib/titlebar_config.cpp Pages: 1 -->
<svg width="226pt" height="151pt"
 viewBox="0.00 0.00 226.00 151.00" xmlns="http://www.w3.org/2000/svg" xmlns:xlink="http://www.w3.org/1999/xlink">
<g id="graph0" class="graph" transform="scale(1 1) rotate(0) translate(4 147)">
<title>examples/example&#45;server&#45;lib/titlebar_config.cpp</title>
<polygon fill="white" stroke="none" points="-4,4 -4,-147 222,-147 222,4 -4,4"/>
<!-- Node0 -->
<g id="node1" class="node"><title>Node0</title>
<polygon fill="#bfbfbf" stroke="black" points="66,-112.5 66,-142.5 194,-142.5 194,-112.5 66,-112.5"/>
<text text-anchor="start" x="74" y="-130.5" font-family="Arial" font-size="10.00">examples/example&#45;server</text>
<text text-anchor="middle" x="130" y="-119.5" font-family="Arial" font-size="10.00">&#45;lib/titlebar_config.cpp</text>
</g>
<!-- Node1 -->
<g id="node2" class="node"><title>Node1</title>
<g id="a_node2"><a xlink:href="titlebar__config_8h.html" target="_top" xlink:title="titlebar_config.h">
<polygon fill="white" stroke="black" points="0,-56.5 0,-75.5 86,-75.5 86,-56.5 0,-56.5"/>
<text text-anchor="middle" x="43" y="-63.5" font-family="Arial" font-size="10.00">titlebar_config.h</text>
</a>
</g>
</g>
<!-- Node0&#45;&gt;Node1 -->
<g id="edge1" class="edge"><title>Node0&#45;&gt;Node1</title>
<path fill="none" stroke="midnightblue" d="M109.382,-112.399C95.6974,-103.04 77.7889,-90.7924 64.022,-81.3771"/>
<polygon fill="midnightblue" stroke="midnightblue" points="65.8893,-78.414 55.6593,-75.6578 61.9377,-84.1919 65.8893,-78.414"/>
</g>
<!-- Node3 -->
<g id="node4" class="node"><title>Node3</title>
<polygon fill="white" stroke="#bfbfbf" points="104.5,-56.5 104.5,-75.5 155.5,-75.5 155.5,-56.5 104.5,-56.5"/>
<text text-anchor="middle" x="130" y="-63.5" font-family="Arial" font-size="10.00">unistd.h</text>
</g>
<!-- Node0&#45;&gt;Node3 -->
<g id="edge3" class="edge"><title>Node0&#45;&gt;Node3</title>
<path fill="none" stroke="midnightblue" d="M130,-112.399C130,-104.466 130,-94.458 130,-85.8583"/>
<polygon fill="midnightblue" stroke="midnightblue" points="133.5,-85.6577 130,-75.6578 126.5,-85.6578 133.5,-85.6577"/>
</g>
<!-- Node4 -->
<g id="node5" class="node"><title>Node4</title>
<polygon fill="white" stroke="#bfbfbf" points="174,-56.5 174,-75.5 218,-75.5 218,-56.5 174,-56.5"/>
<text text-anchor="middle" x="196" y="-63.5" font-family="Arial" font-size="10.00">mutex</text>
</g>
<!-- Node0&#45;&gt;Node4 -->
<g id="edge4" class="edge"><title>Node0&#45;&gt;Node4</title>
<path fill="none" stroke="midnightblue" d="M145.641,-112.399C155.627,-103.397 168.578,-91.7214 178.845,-82.4652"/>
<polygon fill="midnightblue" stroke="midnightblue" points="181.313,-84.9533 186.396,-75.6578 176.625,-79.7541 181.313,-84.9533"/>
</g>
<!-- Node2 -->
<g id="node3" class="node"><title>Node2</title>
<polygon fill="white" stroke="#bfbfbf" points="22.5,-0.5 22.5,-19.5 63.5,-19.5 63.5,-0.5 22.5,-0.5"/>
<text text-anchor="middle" x="43" y="-7.5" font-family="Arial" font-size="10.00">string</text>
</g>
<!-- Node1&#45;&gt;Node2 -->
<g id="edge2" class="edge"><title>Node1&#45;&gt;Node2</title>
<path fill="none" stroke="midnightblue" d="M43,-56.083C43,-49.0059 43,-38.8611 43,-29.9865"/>
<polygon fill="midnightblue" stroke="midnightblue" points="46.5001,-29.751 43,-19.7511 39.5001,-29.7511 46.5001,-29.751"/>
</g>
</g>
</svg>
