<?xml version="1.0" encoding="UTF-8" standalone="no"?>
<!DOCTYPE svg PUBLIC "-//W3C//DTD SVG 1.1//EN"
 "http://www.w3.org/Graphics/SVG/1.1/DTD/svg11.dtd">
<!-- Generated by graphviz version 2.43.0 (0)
 -->
<!-- Title: include/miral/miral/toolkit_event.h Pages: 1 -->
<svg width="292pt" height="162pt"
 viewBox="0.00 0.00 291.50 162.00" xmlns="http://www.w3.org/2000/svg" xmlns:xlink="http://www.w3.org/1999/xlink">
<g id="graph0" class="graph" transform="scale(1 1) rotate(0) translate(4 158)">
<title>include/miral/miral/toolkit_event.h</title>
<polygon fill="white" stroke="transparent" points="-4,4 -4,-158 287.5,-158 287.5,4 -4,4"/>
<!-- Node1 -->
<g id="node1" class="node">
<title>Node1</title>
<g id="a_node1"><a xlink:title=" ">
<polygon fill="#bfbfbf" stroke="black" points="81,-123.5 81,-153.5 190,-153.5 190,-123.5 81,-123.5"/>
<text text-anchor="start" x="89" y="-141.5" font-family="Arial" font-size="10.00">include/miral/miral</text>
<text text-anchor="middle" x="135.5" y="-130.5" font-family="Arial" font-size="10.00">/toolkit_event.h</text>
</a>
</g>
</g>
<!-- Node2 -->
<g id="node2" class="node">
<title>Node2</title>
<g id="a_node2"><a xlink:href="enums_8h.html" target="_top" xlink:title=" ">
<polygon fill="white" stroke="black" points="9.5,-56.5 9.5,-86.5 115.5,-86.5 115.5,-56.5 9.5,-56.5"/>
<text text-anchor="start" x="17.5" y="-74.5" font-family="Arial" font-size="10.00">mir_toolkit/events</text>
<text text-anchor="middle" x="62.5" y="-63.5" font-family="Arial" font-size="10.00">/enums.h</text>
</a>
</g>
</g>
<!-- Node1&#45;&gt;Node2 -->
<g id="edge1" class="edge">
<title>Node1&#45;&gt;Node2</title>
<path fill="none" stroke="midnightblue" d="M119.66,-123.4C109.81,-114.62 96.96,-103.18 85.94,-93.37"/>
<polygon fill="midnightblue" stroke="midnightblue" points="88.1,-90.61 78.31,-86.58 83.45,-95.84 88.1,-90.61"/>
</g>
<!-- Node4 -->
<g id="node4" class="node">
<title>Node4</title>
<g id="a_node4"><a xlink:title=" ">
<polygon fill="white" stroke="#bfbfbf" points="133.5,-62 133.5,-81 283.5,-81 283.5,-62 133.5,-62"/>
<text text-anchor="middle" x="208.5" y="-69" font-family="Arial" font-size="10.00">xkbcommon/xkbcommon.h</text>
</a>
</g>
</g>
<!-- Node1&#45;&gt;Node4 -->
<g id="edge3" class="edge">
<title>Node1&#45;&gt;Node4</title>
<path fill="none" stroke="midnightblue" d="M151.34,-123.4C163.06,-112.96 179.02,-98.75 191.09,-88"/>
<polygon fill="midnightblue" stroke="midnightblue" points="193.59,-90.46 198.74,-81.19 188.94,-85.23 193.59,-90.46"/>
</g>
<!-- Node3 -->
<g id="node3" class="node">
<title>Node3</title>
<g id="a_node3"><a xlink:href="common_8h.html" target="_top" xlink:title=" ">
<polygon fill="white" stroke="black" points="0,-0.5 0,-19.5 125,-19.5 125,-0.5 0,-0.5"/>
<text text-anchor="middle" x="62.5" y="-7.5" font-family="Arial" font-size="10.00">mir_toolkit/common.h</text>
</a>
</g>
</g>
<!-- Node2&#45;&gt;Node3 -->
<g id="edge2" class="edge">
<title>Node2&#45;&gt;Node3</title>
<path fill="none" stroke="midnightblue" d="M62.5,-56.4C62.5,-48.47 62.5,-38.46 62.5,-29.86"/>
<polygon fill="midnightblue" stroke="midnightblue" points="66,-29.66 62.5,-19.66 59,-29.66 66,-29.66"/>
</g>
</g>
</svg>
