<?xml version="1.0" encoding="UTF-8" standalone="no"?>
<!DOCTYPE svg PUBLIC "-//W3C//DTD SVG 1.1//EN"
 "http://www.w3.org/Graphics/SVG/1.1/DTD/svg11.dtd">
<!-- Generated by graphviz version 2.40.1 (20161225.0304)
 -->
<!-- Title: include/client/mir_toolkit/event.h Pages: 1 -->
<svg width="988pt" height="307pt"
 viewBox="0.00 0.00 988.00 307.00" xmlns="http://www.w3.org/2000/svg" xmlns:xlink="http://www.w3.org/1999/xlink">
<g id="graph0" class="graph" transform="scale(1 1) rotate(0) translate(4 303)">
<title>include/client/mir_toolkit/event.h</title>
<polygon fill="#ffffff" stroke="transparent" points="-4,4 -4,-303 984,-303 984,4 -4,4"/>
<!-- Node23 -->
<g id="node1" class="node">
<title>Node23</title>
<polygon fill="#bfbfbf" stroke="#000000" points="185,-268.5 185,-298.5 286,-298.5 286,-268.5 185,-268.5"/>
<text text-anchor="start" x="193" y="-286.5" font-family="Arial" font-size="10.00" fill="#000000">include/client/mir</text>
<text text-anchor="middle" x="235.5" y="-275.5" font-family="Arial" font-size="10.00" fill="#000000">_toolkit/event.h</text>
</g>
<!-- Node24 -->
<g id="node2" class="node">
<title>Node24</title>
<g id="a_node2"><a xlink:href="event__printer_8h.html" target="_top" xlink:title="include/client/mir\l/event_printer.h">
<polygon fill="#ffffff" stroke="#000000" points="0,-201.5 0,-231.5 101,-231.5 101,-201.5 0,-201.5"/>
<text text-anchor="start" x="8" y="-219.5" font-family="Arial" font-size="10.00" fill="#000000">include/client/mir</text>
<text text-anchor="middle" x="50.5" y="-208.5" font-family="Arial" font-size="10.00" fill="#000000">/event_printer.h</text>
</a>
</g>
</g>
<!-- Node23&#45;&gt;Node24 -->
<g id="edge1" class="edge">
<title>Node23&#45;&gt;Node24</title>
<path fill="none" stroke="#191970" d="M184.4241,-265.0023C155.3985,-254.4903 119.5146,-241.4945 92.1987,-231.6017"/>
<polygon fill="#191970" stroke="#191970" points="183.3882,-268.3495 193.9824,-268.4639 185.7718,-261.7678 183.3882,-268.3495"/>
</g>
<!-- Node25 -->
<g id="node3" class="node">
<title>Node25</title>
<g id="a_node3"><a xlink:href="event__builders_8h.html" target="_top" xlink:title="include/client/mir\l/events/event_builders.h">
<polygon fill="#ffffff" stroke="#000000" points="119,-201.5 119,-231.5 256,-231.5 256,-201.5 119,-201.5"/>
<text text-anchor="start" x="127" y="-219.5" font-family="Arial" font-size="10.00" fill="#000000">include/client/mir</text>
<text text-anchor="middle" x="187.5" y="-208.5" font-family="Arial" font-size="10.00" fill="#000000">/events/event_builders.h</text>
</a>
</g>
</g>
<!-- Node23&#45;&gt;Node25 -->
<g id="edge2" class="edge">
<title>Node23&#45;&gt;Node25</title>
<path fill="none" stroke="#191970" d="M218.709,-260.0626C211.9524,-250.6315 204.3556,-240.0276 198.3488,-231.6432"/>
<polygon fill="#191970" stroke="#191970" points="215.939,-262.2059 224.6081,-268.2967 221.6294,-258.1292 215.939,-262.2059"/>
</g>
<!-- Node26 -->
<g id="node4" class="node">
<title>Node26</title>
<g id="a_node4"><a xlink:href="append__event__filter_8h.html" target="_top" xlink:title="include/miral/miral\l/append_event_filter.h">
<polygon fill="#ffffff" stroke="#000000" points="165,-134.5 165,-164.5 290,-164.5 290,-134.5 165,-134.5"/>
<text text-anchor="start" x="173" y="-152.5" font-family="Arial" font-size="10.00" fill="#000000">include/miral/miral</text>
<text text-anchor="middle" x="227.5" y="-141.5" font-family="Arial" font-size="10.00" fill="#000000">/append_event_filter.h</text>
</a>
</g>
</g>
<!-- Node23&#45;&gt;Node26 -->
<g id="edge3" class="edge">
<title>Node23&#45;&gt;Node26</title>
<path fill="none" stroke="#191970" d="M252.2528,-259.7042C257.2069,-251.3408 261.9772,-241.6216 264.5,-232 267.9944,-218.6727 268.7227,-214.1147 264.5,-201 260.1136,-187.3767 250.6408,-174.3091 242.3786,-164.7459"/>
<polygon fill="#191970" stroke="#191970" points="249.2817,-257.8541 246.9026,-268.1784 255.2007,-261.5911 249.2817,-257.8541"/>
</g>
<!-- Node28 -->
<g id="node6" class="node">
<title>Node28</title>
<g id="a_node6"><a xlink:href="window__management__policy_8h.html" target="_top" xlink:title="include/miral/miral\l/window_management_policy.h">
<polygon fill="#ffffff" stroke="#000000" points="425.5,-201.5 425.5,-231.5 595.5,-231.5 595.5,-201.5 425.5,-201.5"/>
<text text-anchor="start" x="433.5" y="-219.5" font-family="Arial" font-size="10.00" fill="#000000">include/miral/miral</text>
<text text-anchor="middle" x="510.5" y="-208.5" font-family="Arial" font-size="10.00" fill="#000000">/window_management_policy.h</text>
</a>
</g>
</g>
<!-- Node23&#45;&gt;Node28 -->
<g id="edge5" class="edge">
<title>Node23&#45;&gt;Node28</title>
<path fill="none" stroke="#191970" d="M296.2246,-268.7053C341.4383,-257.6896 402.9523,-242.7025 448.4746,-231.6116"/>
<polygon fill="#191970" stroke="#191970" points="295.147,-265.3654 286.2597,-271.1331 296.804,-272.1664 295.147,-265.3654"/>
</g>
<!-- Node27 -->
<g id="node5" class="node">
<title>Node27</title>
<g id="a_node5"><a xlink:href="shell__main_8cpp.html" target="_top" xlink:title="examples/miral&#45;shell\l/shell_main.cpp">
<polygon fill="#ffffff" stroke="#000000" points="205.5,-.5 205.5,-30.5 325.5,-30.5 325.5,-.5 205.5,-.5"/>
<text text-anchor="start" x="213.5" y="-18.5" font-family="Arial" font-size="10.00" fill="#000000">examples/miral&#45;shell</text>
<text text-anchor="middle" x="265.5" y="-7.5" font-family="Arial" font-size="10.00" fill="#000000">/shell_main.cpp</text>
</a>
</g>
</g>
<!-- Node26&#45;&gt;Node27 -->
<g id="edge4" class="edge">
<title>Node26&#45;&gt;Node27</title>
<path fill="none" stroke="#191970" d="M234.5311,-124.706C242.3324,-97.1962 254.675,-53.6723 261.1721,-30.7614"/>
<polygon fill="#191970" stroke="#191970" points="231.1463,-123.8134 231.7852,-134.389 237.8808,-125.7232 231.1463,-123.8134"/>
</g>
<!-- Node29 -->
<g id="node7" class="node">
<title>Node29</title>
<g id="a_node7"><a xlink:href="tiling__window__manager_8h.html" target="_top" xlink:title="examples/example&#45;server\l&#45;lib/tiling_window_manager.h">
<polygon fill="#ffffff" stroke="#000000" points="308.5,-134.5 308.5,-164.5 468.5,-164.5 468.5,-134.5 308.5,-134.5"/>
<text text-anchor="start" x="316.5" y="-152.5" font-family="Arial" font-size="10.00" fill="#000000">examples/example&#45;server</text>
<text text-anchor="middle" x="388.5" y="-141.5" font-family="Arial" font-size="10.00" fill="#000000">&#45;lib/tiling_window_manager.h</text>
</a>
</g>
</g>
<!-- Node28&#45;&gt;Node29 -->
<g id="edge6" class="edge">
<title>Node28&#45;&gt;Node29</title>
<path fill="none" stroke="#191970" d="M474.3282,-196.6352C455.7312,-186.422 433.4219,-174.1702 416.2099,-164.7177"/>
<polygon fill="#191970" stroke="#191970" points="472.6708,-199.718 483.1208,-201.4639 476.0404,-193.5823 472.6708,-199.718"/>
</g>
<!-- Node31 -->
<g id="node9" class="node">
<title>Node31</title>
<g id="a_node9"><a xlink:href="canonical__window__manager_8h.html" target="_top" xlink:title="include/miral/miral\l/canonical_window_manager.h">
<polygon fill="#ffffff" stroke="#000000" points="664.5,-134.5 664.5,-164.5 830.5,-164.5 830.5,-134.5 664.5,-134.5"/>
<text text-anchor="start" x="672.5" y="-152.5" font-family="Arial" font-size="10.00" fill="#000000">include/miral/miral</text>
<text text-anchor="middle" x="747.5" y="-141.5" font-family="Arial" font-size="10.00" fill="#000000">/canonical_window_manager.h</text>
</a>
</g>
</g>
<!-- Node28&#45;&gt;Node31 -->
<g id="edge9" class="edge">
<title>Node28&#45;&gt;Node31</title>
<path fill="none" stroke="#191970" d="M573.5199,-198.6842C611.1126,-188.0568 658.326,-174.7095 694.0806,-164.6017"/>
<polygon fill="#191970" stroke="#191970" points="572.3581,-195.3754 563.6874,-201.4639 574.2625,-202.1114 572.3581,-195.3754"/>
</g>
<!-- Node35 -->
<g id="node13" class="node">
<title>Node35</title>
<g id="a_node13"><a xlink:href="minimal__window__manager_8h.html" target="_top" xlink:title="include/miral/miral\l/minimal_window_manager.h">
<polygon fill="#ffffff" stroke="#000000" points="486.5,-134.5 486.5,-164.5 646.5,-164.5 646.5,-134.5 486.5,-134.5"/>
<text text-anchor="start" x="494.5" y="-152.5" font-family="Arial" font-size="10.00" fill="#000000">include/miral/miral</text>
<text text-anchor="middle" x="566.5" y="-141.5" font-family="Arial" font-size="10.00" fill="#000000">/minimal_window_manager.h</text>
</a>
</g>
</g>
<!-- Node28&#45;&gt;Node35 -->
<g id="edge13" class="edge">
<title>Node28&#45;&gt;Node35</title>
<path fill="none" stroke="#191970" d="M529.8485,-193.3509C537.7911,-183.8482 546.7636,-173.1132 553.843,-164.6432"/>
<polygon fill="#191970" stroke="#191970" points="526.9349,-191.3792 523.2073,-201.2967 532.3059,-195.8684 526.9349,-191.3792"/>
</g>
<!-- Node29&#45;&gt;Node27 -->
<g id="edge7" class="edge">
<title>Node29&#45;&gt;Node27</title>
<path fill="none" stroke="#191970" d="M327.4503,-130.2063C311.4339,-122.4892 295.568,-112.0082 284.5,-98 269.0097,-78.3947 265.7139,-48.4469 265.2476,-30.5383"/>
<polygon fill="#191970" stroke="#191970" points="326.3068,-133.5296 336.8628,-134.4364 329.1763,-127.1447 326.3068,-133.5296"/>
</g>
<!-- Node30 -->
<g id="node8" class="node">
<title>Node30</title>
<g id="a_node8"><a xlink:href="tiling__window__manager_8cpp.html" target="_top" xlink:title="examples/example&#45;server\l&#45;lib/tiling_window_manager.cpp">
<polygon fill="#ffffff" stroke="#000000" points="294,-67.5 294,-97.5 465,-97.5 465,-67.5 294,-67.5"/>
<text text-anchor="start" x="302" y="-85.5" font-family="Arial" font-size="10.00" fill="#000000">examples/example&#45;server</text>
<text text-anchor="middle" x="379.5" y="-74.5" font-family="Arial" font-size="10.00" fill="#000000">&#45;lib/tiling_window_manager.cpp</text>
</a>
</g>
</g>
<!-- Node29&#45;&gt;Node30 -->
<g id="edge8" class="edge">
<title>Node29&#45;&gt;Node30</title>
<path fill="none" stroke="#191970" d="M385.1173,-124.3179C383.9115,-115.3414 382.5915,-105.5143 381.5342,-97.6432"/>
<polygon fill="#191970" stroke="#191970" points="381.6575,-124.8517 386.4578,-134.2967 388.5952,-123.9197 381.6575,-124.8517"/>
</g>
<!-- Node32 -->
<g id="node10" class="node">
<title>Node32</title>
<g id="a_node10"><a xlink:href="kiosk__window__manager_8h.html" target="_top" xlink:title="examples/miral&#45;kiosk\l/kiosk_window_manager.h">
<polygon fill="#ffffff" stroke="#000000" points="674.5,-67.5 674.5,-97.5 820.5,-97.5 820.5,-67.5 674.5,-67.5"/>
<text text-anchor="start" x="682.5" y="-85.5" font-family="Arial" font-size="10.00" fill="#000000">examples/miral&#45;kiosk</text>
<text text-anchor="middle" x="747.5" y="-74.5" font-family="Arial" font-size="10.00" fill="#000000">/kiosk_window_manager.h</text>
</a>
</g>
</g>
<!-- Node31&#45;&gt;Node32 -->
<g id="edge10" class="edge">
<title>Node31&#45;&gt;Node32</title>
<path fill="none" stroke="#191970" d="M747.5,-124.0249C747.5,-115.128 747.5,-105.4287 747.5,-97.6432"/>
<polygon fill="#191970" stroke="#191970" points="744.0001,-124.2966 747.5,-134.2967 751.0001,-124.2967 744.0001,-124.2966"/>
</g>
<!-- Node33 -->
<g id="node11" class="node">
<title>Node33</title>
<g id="a_node11"><a xlink:href="kiosk__main_8cpp.html" target="_top" xlink:title="examples/miral&#45;kiosk\l/kiosk_main.cpp">
<polygon fill="#ffffff" stroke="#000000" points="682,-.5 682,-30.5 805,-30.5 805,-.5 682,-.5"/>
<text text-anchor="start" x="690" y="-18.5" font-family="Arial" font-size="10.00" fill="#000000">examples/miral&#45;kiosk</text>
<text text-anchor="middle" x="743.5" y="-7.5" font-family="Arial" font-size="10.00" fill="#000000">/kiosk_main.cpp</text>
</a>
</g>
</g>
<!-- Node32&#45;&gt;Node33 -->
<g id="edge11" class="edge">
<title>Node32&#45;&gt;Node33</title>
<path fill="none" stroke="#191970" d="M745.9791,-57.0249C745.4479,-48.128 744.8689,-38.4287 744.4041,-30.6432"/>
<polygon fill="#191970" stroke="#191970" points="742.5025,-57.5231 746.5923,-67.2967 749.4901,-57.1058 742.5025,-57.5231"/>
</g>
<!-- Node34 -->
<g id="node12" class="node">
<title>Node34</title>
<g id="a_node12"><a xlink:href="kiosk__window__manager_8cpp.html" target="_top" xlink:title="examples/miral&#45;kiosk\l/kiosk_window_manager.cpp">
<polygon fill="#ffffff" stroke="#000000" points="823,-.5 823,-30.5 980,-30.5 980,-.5 823,-.5"/>
<text text-anchor="start" x="831" y="-18.5" font-family="Arial" font-size="10.00" fill="#000000">examples/miral&#45;kiosk</text>
<text text-anchor="middle" x="901.5" y="-7.5" font-family="Arial" font-size="10.00" fill="#000000">/kiosk_window_manager.cpp</text>
</a>
</g>
</g>
<!-- Node32&#45;&gt;Node34 -->
<g id="edge12" class="edge">
<title>Node32&#45;&gt;Node34</title>
<path fill="none" stroke="#191970" d="M791.2829,-63.4516C815.2159,-53.0392 844.4455,-40.3224 866.7887,-30.6017"/>
<polygon fill="#191970" stroke="#191970" points="789.834,-60.265 782.0606,-67.4639 792.6267,-66.6838 789.834,-60.265"/>
</g>
<!-- Node36 -->
<g id="node14" class="node">
<title>Node36</title>
<g id="a_node14"><a xlink:href="floating__window__manager_8h.html" target="_top" xlink:title="examples/example&#45;server\l&#45;lib/floating_window_manager.h">
<polygon fill="#ffffff" stroke="#000000" points="483.5,-67.5 483.5,-97.5 655.5,-97.5 655.5,-67.5 483.5,-67.5"/>
<text text-anchor="start" x="491.5" y="-85.5" font-family="Arial" font-size="10.00" fill="#000000">examples/example&#45;server</text>
<text text-anchor="middle" x="569.5" y="-74.5" font-family="Arial" font-size="10.00" fill="#000000">&#45;lib/floating_window_manager.h</text>
</a>
</g>
</g>
<!-- Node35&#45;&gt;Node36 -->
<g id="edge14" class="edge">
<title>Node35&#45;&gt;Node36</title>
<path fill="none" stroke="#191970" d="M567.6407,-124.0249C568.039,-115.128 568.4733,-105.4287 568.8219,-97.6432"/>
<polygon fill="#191970" stroke="#191970" points="564.1317,-124.1501 567.1807,-134.2967 571.1246,-124.4633 564.1317,-124.1501"/>
</g>
<!-- Node36&#45;&gt;Node27 -->
<g id="edge15" class="edge">
<title>Node36&#45;&gt;Node27</title>
<path fill="none" stroke="#191970" d="M491.4832,-65.3055C439.812,-53.9175 373.0553,-39.2046 325.5259,-28.7294"/>
<polygon fill="#191970" stroke="#191970" points="490.7575,-68.7295 501.2765,-67.4639 492.2642,-61.8935 490.7575,-68.7295"/>
</g>
<!-- Node37 -->
<g id="node15" class="node">
<title>Node37</title>
<g id="a_node15"><a xlink:href="floating__window__manager_8cpp.html" target="_top" xlink:title="examples/example&#45;server\l&#45;lib/floating_window_manager.cpp">
<polygon fill="#ffffff" stroke="#000000" points="478,-.5 478,-30.5 661,-30.5 661,-.5 478,-.5"/>
<text text-anchor="start" x="486" y="-18.5" font-family="Arial" font-size="10.00" fill="#000000">examples/example&#45;server</text>
<text text-anchor="middle" x="569.5" y="-7.5" font-family="Arial" font-size="10.00" fill="#000000">&#45;lib/floating_window_manager.cpp</text>
</a>
</g>
</g>
<!-- Node36&#45;&gt;Node37 -->
<g id="edge16" class="edge">
<title>Node36&#45;&gt;Node37</title>
<path fill="none" stroke="#191970" d="M569.5,-57.0249C569.5,-48.128 569.5,-38.4287 569.5,-30.6432"/>
<polygon fill="#191970" stroke="#191970" points="566.0001,-57.2966 569.5,-67.2967 573.0001,-57.2967 566.0001,-57.2966"/>
</g>
</g>
</svg>
