<?xml version="1.0" encoding="UTF-8" standalone="no"?>
<!DOCTYPE svg PUBLIC "-//W3C//DTD SVG 1.1//EN"
 "http://www.w3.org/Graphics/SVG/1.1/DTD/svg11.dtd">
<!-- Generated by graphviz version 2.38.0 (20140413.2041)
 -->
<!-- Title: include/client/mir_toolkit/event.h Pages: 1 -->
<svg width="1024pt" height="351pt"
 viewBox="0.00 0.00 1023.50 351.00" xmlns="http://www.w3.org/2000/svg" xmlns:xlink="http://www.w3.org/1999/xlink">
<g id="graph0" class="graph" transform="scale(1 1) rotate(0) translate(4 347)">
<title>include/client/mir_toolkit/event.h</title>
<polygon fill="white" stroke="none" points="-4,4 -4,-347 1019.5,-347 1019.5,4 -4,4"/>
<!-- Node23 -->
<g id="node1" class="node"><title>Node23</title>
<polygon fill="#bfbfbf" stroke="black" points="292,-312.5 292,-342.5 382,-342.5 382,-312.5 292,-312.5"/>
<text text-anchor="start" x="300" y="-330.5" font-family="Arial" font-size="10.00">include/client/mir</text>
<text text-anchor="middle" x="337" y="-319.5" font-family="Arial" font-size="10.00">_toolkit/event.h</text>
</g>
<!-- Node24 -->
<g id="node2" class="node"><title>Node24</title>
<g id="a_node2"><a xlink:href="event__printer_8h.html" target="_top" xlink:title="include/client/mir\l/event_printer.h">
<polygon fill="white" stroke="black" points="0,-240 0,-270 90,-270 90,-240 0,-240"/>
<text text-anchor="start" x="8" y="-258" font-family="Arial" font-size="10.00">include/client/mir</text>
<text text-anchor="middle" x="45" y="-247" font-family="Arial" font-size="10.00">/event_printer.h</text>
</a>
</g>
</g>
<!-- Node23&#45;&gt;Node24 -->
<g id="edge1" class="edge"><title>Node23&#45;&gt;Node24</title>
<path fill="none" stroke="midnightblue" d="M281.891,-316.386C234.405,-307.237 164.204,-292.67 104,-276 97.6418,-274.239 90.9637,-272.182 84.4793,-270.07"/>
<polygon fill="midnightblue" stroke="midnightblue" points="281.485,-319.872 291.964,-318.312 282.799,-312.996 281.485,-319.872"/>
</g>
<!-- Node25 -->
<g id="node3" class="node"><title>Node25</title>
<g id="a_node3"><a xlink:href="event__builders_8h.html" target="_top" xlink:title="include/client/mir\l/events/event_builders.h">
<polygon fill="white" stroke="black" points="254.5,-167.5 254.5,-197.5 377.5,-197.5 377.5,-167.5 254.5,-167.5"/>
<text text-anchor="start" x="262.5" y="-185.5" font-family="Arial" font-size="10.00">include/client/mir</text>
<text text-anchor="middle" x="316" y="-174.5" font-family="Arial" font-size="10.00">/events/event_builders.h</text>
</a>
</g>
</g>
<!-- Node23&#45;&gt;Node25 -->
<g id="edge2" class="edge"><title>Node23&#45;&gt;Node25</title>
<path fill="none" stroke="midnightblue" d="M372.573,-306.692C383.426,-298.691 394.054,-288.386 400,-276 408.078,-259.172 409.19,-250.248 400,-234 390.534,-217.264 373.058,-205.463 356.488,-197.502"/>
<polygon fill="midnightblue" stroke="midnightblue" points="370.574,-303.818 364.303,-312.358 374.531,-309.593 370.574,-303.818"/>
</g>
<!-- Node26 -->
<g id="node4" class="node"><title>Node26</title>
<g id="a_node4"><a xlink:href="append__event__filter_8h.html" target="_top" xlink:title="include/miral/miral\l/append_event_filter.h">
<polygon fill="white" stroke="black" points="82.5,-167.5 82.5,-197.5 195.5,-197.5 195.5,-167.5 82.5,-167.5"/>
<text text-anchor="start" x="90.5" y="-185.5" font-family="Arial" font-size="10.00">include/miral/miral</text>
<text text-anchor="middle" x="139" y="-174.5" font-family="Arial" font-size="10.00">/append_event_filter.h</text>
</a>
</g>
</g>
<!-- Node23&#45;&gt;Node26 -->
<g id="edge3" class="edge"><title>Node23&#45;&gt;Node26</title>
<path fill="none" stroke="midnightblue" d="M281.785,-320.146C228.925,-312.792 154.676,-298.694 137,-276 119.431,-253.443 127.261,-217.534 133.663,-197.747"/>
<polygon fill="midnightblue" stroke="midnightblue" points="281.34,-323.618 291.718,-321.484 282.275,-316.68 281.34,-323.618"/>
</g>
<!-- Node28 -->
<g id="node6" class="node"><title>Node28</title>
<g id="a_node6"><a xlink:href="window__management__policy_8h.html" target="_top" xlink:title="include/miral/miral\l/window_management_policy.h">
<polygon fill="white" stroke="black" points="447,-240 447,-270 599,-270 599,-240 447,-240"/>
<text text-anchor="start" x="455" y="-258" font-family="Arial" font-size="10.00">include/miral/miral</text>
<text text-anchor="middle" x="523" y="-247" font-family="Arial" font-size="10.00">/window_management_policy.h</text>
</a>
</g>
</g>
<!-- Node23&#45;&gt;Node28 -->
<g id="edge5" class="edge"><title>Node23&#45;&gt;Node28</title>
<path fill="none" stroke="midnightblue" d="M383.672,-308.81C415.285,-296.827 456.49,-281.21 485.872,-270.073"/>
<polygon fill="midnightblue" stroke="midnightblue" points="382.303,-305.586 374.193,-312.403 384.784,-312.131 382.303,-305.586"/>
</g>
<!-- Node39 -->
<g id="node17" class="node"><title>Node39</title>
<g id="a_node17"><a xlink:href="contact__state_8h.html" target="_top" xlink:title="include/common/mir\l/events/contact_state.h">
<polygon fill="white" stroke="black" points="146.5,-240 146.5,-270 265.5,-270 265.5,-240 146.5,-240"/>
<text text-anchor="start" x="154.5" y="-258" font-family="Arial" font-size="10.00">include/common/mir</text>
<text text-anchor="middle" x="206" y="-247" font-family="Arial" font-size="10.00">/events/contact_state.h</text>
</a>
</g>
</g>
<!-- Node23&#45;&gt;Node39 -->
<g id="edge18" class="edge"><title>Node23&#45;&gt;Node39</title>
<path fill="none" stroke="midnightblue" d="M301.802,-307.558C279.872,-295.756 252.13,-280.826 232.15,-270.073"/>
<polygon fill="midnightblue" stroke="midnightblue" points="300.341,-310.746 310.805,-312.403 303.658,-304.582 300.341,-310.746"/>
</g>
<!-- Node40 -->
<g id="node18" class="node"><title>Node40</title>
<g id="a_node18"><a xlink:href="input__device__state_8h.html" target="_top" xlink:title="include/common/mir\l/events/input_device\l_state.h">
<polygon fill="white" stroke="black" points="283.5,-234.5 283.5,-275.5 390.5,-275.5 390.5,-234.5 283.5,-234.5"/>
<text text-anchor="start" x="291.5" y="-263.5" font-family="Arial" font-size="10.00">include/common/mir</text>
<text text-anchor="start" x="291.5" y="-252.5" font-family="Arial" font-size="10.00">/events/input_device</text>
<text text-anchor="middle" x="337" y="-241.5" font-family="Arial" font-size="10.00">_state.h</text>
</a>
</g>
</g>
<!-- Node23&#45;&gt;Node40 -->
<g id="edge20" class="edge"><title>Node23&#45;&gt;Node40</title>
<path fill="none" stroke="midnightblue" d="M337,-301.982C337,-293.347 337,-283.762 337,-275.588"/>
<polygon fill="midnightblue" stroke="midnightblue" points="333.5,-302.233 337,-312.233 340.5,-302.233 333.5,-302.233"/>
</g>
<!-- Node41 -->
<g id="node19" class="node"><title>Node41</title>
<g id="a_node19"><a xlink:href="event__matchers_8h.html" target="_top" xlink:title="include/test/mir/test\l/event_matchers.h">
<polygon fill="white" stroke="black" points="617.5,-240 617.5,-270 720.5,-270 720.5,-240 617.5,-240"/>
<text text-anchor="start" x="625.5" y="-258" font-family="Arial" font-size="10.00">include/test/mir/test</text>
<text text-anchor="middle" x="669" y="-247" font-family="Arial" font-size="10.00">/event_matchers.h</text>
</a>
</g>
</g>
<!-- Node23&#45;&gt;Node41 -->
<g id="edge22" class="edge"><title>Node23&#45;&gt;Node41</title>
<path fill="none" stroke="midnightblue" d="M392.385,-318.385C447.488,-309.795 534.235,-294.877 608,-276 614.694,-274.287 621.724,-272.231 628.534,-270.098"/>
<polygon fill="midnightblue" stroke="midnightblue" points="391.823,-314.93 382.474,-319.914 392.891,-321.848 391.823,-314.93"/>
</g>
<!-- Node27 -->
<g id="node5" class="node"><title>Node27</title>
<g id="a_node5"><a xlink:href="shell__main_8cpp.html" target="_top" xlink:title="examples/miral&#45;shell\l/shell_main.cpp">
<polygon fill="white" stroke="black" points="226,-11.5 226,-41.5 332,-41.5 332,-11.5 226,-11.5"/>
<text text-anchor="start" x="234" y="-29.5" font-family="Arial" font-size="10.00">examples/miral&#45;shell</text>
<text text-anchor="middle" x="279" y="-18.5" font-family="Arial" font-size="10.00">/shell_main.cpp</text>
</a>
</g>
</g>
<!-- Node26&#45;&gt;Node27 -->
<g id="edge4" class="edge"><title>Node26&#45;&gt;Node27</title>
<path fill="none" stroke="midnightblue" d="M158.765,-159.759C187.894,-127.717 241.549,-68.6961 266.111,-41.6776"/>
<polygon fill="midnightblue" stroke="midnightblue" points="156.057,-157.534 151.92,-167.288 161.236,-162.243 156.057,-157.534"/>
</g>
<!-- Node29 -->
<g id="node7" class="node"><title>Node29</title>
<g id="a_node7"><a xlink:href="tiling__window__manager_8h.html" target="_top" xlink:title="examples/example&#45;server\l&#45;lib/tiling_window_manager.h">
<polygon fill="white" stroke="black" points="396,-167.5 396,-197.5 536,-197.5 536,-167.5 396,-167.5"/>
<text text-anchor="start" x="404" y="-185.5" font-family="Arial" font-size="10.00">examples/example&#45;server</text>
<text text-anchor="middle" x="466" y="-174.5" font-family="Arial" font-size="10.00">&#45;lib/tiling_window_manager.h</text>
</a>
</g>
</g>
<!-- Node28&#45;&gt;Node29 -->
<g id="edge6" class="edge"><title>Node28&#45;&gt;Node29</title>
<path fill="none" stroke="midnightblue" d="M504.98,-231.713C495.995,-220.599 485.394,-207.488 477.518,-197.746"/>
<polygon fill="midnightblue" stroke="midnightblue" points="502.456,-234.157 511.465,-239.733 507.9,-229.756 502.456,-234.157"/>
</g>
<!-- Node31 -->
<g id="node9" class="node"><title>Node31</title>
<g id="a_node9"><a xlink:href="canonical__window__manager_8h.html" target="_top" xlink:title="include/miral/miral\l/canonical_window_manager.h">
<polygon fill="white" stroke="black" points="596.5,-167.5 596.5,-197.5 745.5,-197.5 745.5,-167.5 596.5,-167.5"/>
<text text-anchor="start" x="604.5" y="-185.5" font-family="Arial" font-size="10.00">include/miral/miral</text>
<text text-anchor="middle" x="671" y="-174.5" font-family="Arial" font-size="10.00">/canonical_window_manager.h</text>
</a>
</g>
</g>
<!-- Node28&#45;&gt;Node31 -->
<g id="edge9" class="edge"><title>Node28&#45;&gt;Node31</title>
<path fill="none" stroke="midnightblue" d="M561.774,-235.53C586.7,-223.656 618.582,-208.47 641.457,-197.573"/>
<polygon fill="midnightblue" stroke="midnightblue" points="560.117,-232.442 552.594,-239.903 563.128,-238.762 560.117,-232.442"/>
</g>
<!-- Node29&#45;&gt;Node27 -->
<g id="edge7" class="edge"><title>Node29&#45;&gt;Node27</title>
<path fill="none" stroke="midnightblue" d="M386.054,-165.57C349.363,-156.667 311.293,-144.626 299,-131 276.443,-105.997 275.98,-63.4677 277.503,-41.5226"/>
<polygon fill="midnightblue" stroke="midnightblue" points="385.302,-168.989 395.838,-167.881 386.91,-162.176 385.302,-168.989"/>
</g>
<!-- Node30 -->
<g id="node8" class="node"><title>Node30</title>
<g id="a_node8"><a xlink:href="tiling__window__manager_8cpp.html" target="_top" xlink:title="examples/example&#45;server\l&#45;lib/tiling_window_manager.cpp">
<polygon fill="white" stroke="black" points="307.5,-95 307.5,-125 458.5,-125 458.5,-95 307.5,-95"/>
<text text-anchor="start" x="315.5" y="-113" font-family="Arial" font-size="10.00">examples/example&#45;server</text>
<text text-anchor="middle" x="383" y="-102" font-family="Arial" font-size="10.00">&#45;lib/tiling_window_manager.cpp</text>
</a>
</g>
</g>
<!-- Node29&#45;&gt;Node30 -->
<g id="edge8" class="edge"><title>Node29&#45;&gt;Node30</title>
<path fill="none" stroke="midnightblue" d="M441.234,-160.464C427.743,-149.004 411.417,-135.137 399.488,-125.005"/>
<polygon fill="midnightblue" stroke="midnightblue" points="439.316,-163.427 449.204,-167.233 443.848,-158.092 439.316,-163.427"/>
</g>
<!-- Node32 -->
<g id="node10" class="node"><title>Node32</title>
<g id="a_node10"><a xlink:href="kiosk__window__manager_8h.html" target="_top" xlink:title="examples/miral&#45;kiosk\l/kiosk_window_manager.h">
<polygon fill="white" stroke="black" points="647.5,-95 647.5,-125 778.5,-125 778.5,-95 647.5,-95"/>
<text text-anchor="start" x="655.5" y="-113" font-family="Arial" font-size="10.00">examples/miral&#45;kiosk</text>
<text text-anchor="middle" x="713" y="-102" font-family="Arial" font-size="10.00">/kiosk_window_manager.h</text>
</a>
</g>
</g>
<!-- Node31&#45;&gt;Node32 -->
<g id="edge10" class="edge"><title>Node31&#45;&gt;Node32</title>
<path fill="none" stroke="midnightblue" d="M684.668,-158.557C691.204,-147.586 698.823,-134.797 704.513,-125.246"/>
<polygon fill="midnightblue" stroke="midnightblue" points="681.611,-156.851 679.499,-167.233 687.624,-160.434 681.611,-156.851"/>
</g>
<!-- Node35 -->
<g id="node13" class="node"><title>Node35</title>
<g id="a_node13"><a xlink:href="floating__window__manager_8h.html" target="_top" xlink:title="examples/example&#45;server\l&#45;lib/floating_window_manager.h">
<polygon fill="white" stroke="black" points="477,-95 477,-125 629,-125 629,-95 477,-95"/>
<text text-anchor="start" x="485" y="-113" font-family="Arial" font-size="10.00">examples/example&#45;server</text>
<text text-anchor="middle" x="553" y="-102" font-family="Arial" font-size="10.00">&#45;lib/floating_window_manager.h</text>
</a>
</g>
</g>
<!-- Node31&#45;&gt;Node35 -->
<g id="edge13" class="edge"><title>Node31&#45;&gt;Node35</title>
<path fill="none" stroke="midnightblue" d="M638.765,-162.241C619.096,-150.489 594.391,-135.73 576.555,-125.073"/>
<polygon fill="midnightblue" stroke="midnightblue" points="637.025,-165.278 647.405,-167.403 640.615,-159.269 637.025,-165.278"/>
</g>
<!-- Node37 -->
<g id="node15" class="node"><title>Node37</title>
<g id="a_node15"><a xlink:href="canonical__window__manager__policy_8h.html" target="_top" xlink:title="include/test/mir_test\l_framework/canonical\l_window_manager_policy.h">
<polygon fill="white" stroke="black" points="836.5,-89.5 836.5,-130.5 971.5,-130.5 971.5,-89.5 836.5,-89.5"/>
<text text-anchor="start" x="844.5" y="-118.5" font-family="Arial" font-size="10.00">include/test/mir_test</text>
<text text-anchor="start" x="844.5" y="-107.5" font-family="Arial" font-size="10.00">_framework/canonical</text>
<text text-anchor="middle" x="904" y="-96.5" font-family="Arial" font-size="10.00">_window_manager_policy.h</text>
</a>
</g>
</g>
<!-- Node31&#45;&gt;Node37 -->
<g id="edge16" class="edge"><title>Node31&#45;&gt;Node37</title>
<path fill="none" stroke="midnightblue" d="M727.027,-164.547C760.818,-154.323 804,-141.257 839.249,-130.592"/>
<polygon fill="midnightblue" stroke="midnightblue" points="725.87,-161.241 717.312,-167.487 727.897,-167.941 725.87,-161.241"/>
</g>
<!-- Node33 -->
<g id="node11" class="node"><title>Node33</title>
<g id="a_node11"><a xlink:href="kiosk__main_8cpp.html" target="_top" xlink:title="examples/miral&#45;kiosk\l/kiosk_main.cpp">
<polygon fill="white" stroke="black" points="745.5,-11.5 745.5,-41.5 854.5,-41.5 854.5,-11.5 745.5,-11.5"/>
<text text-anchor="start" x="753.5" y="-29.5" font-family="Arial" font-size="10.00">examples/miral&#45;kiosk</text>
<text text-anchor="middle" x="800" y="-18.5" font-family="Arial" font-size="10.00">/kiosk_main.cpp</text>
</a>
</g>
</g>
<!-- Node32&#45;&gt;Node33 -->
<g id="edge11" class="edge"><title>Node32&#45;&gt;Node33</title>
<path fill="none" stroke="midnightblue" d="M735.802,-87.639C751.342,-73.0815 771.477,-54.2194 785.019,-41.5335"/>
<polygon fill="midnightblue" stroke="midnightblue" points="733.059,-85.4128 728.154,-94.8038 737.845,-90.5214 733.059,-85.4128"/>
</g>
<!-- Node34 -->
<g id="node12" class="node"><title>Node34</title>
<g id="a_node12"><a xlink:href="kiosk__window__manager_8cpp.html" target="_top" xlink:title="examples/miral&#45;kiosk\l/kiosk_window_manager.cpp">
<polygon fill="white" stroke="black" points="586.5,-11.5 586.5,-41.5 727.5,-41.5 727.5,-11.5 586.5,-11.5"/>
<text text-anchor="start" x="594.5" y="-29.5" font-family="Arial" font-size="10.00">examples/miral&#45;kiosk</text>
<text text-anchor="middle" x="657" y="-18.5" font-family="Arial" font-size="10.00">/kiosk_window_manager.cpp</text>
</a>
</g>
</g>
<!-- Node32&#45;&gt;Node34 -->
<g id="edge12" class="edge"><title>Node32&#45;&gt;Node34</title>
<path fill="none" stroke="midnightblue" d="M697.49,-86.4275C687.61,-72.0479 675.119,-53.8702 666.643,-41.5335"/>
<polygon fill="midnightblue" stroke="midnightblue" points="694.698,-88.544 703.246,-94.8038 700.467,-84.5798 694.698,-88.544"/>
</g>
<!-- Node35&#45;&gt;Node27 -->
<g id="edge14" class="edge"><title>Node35&#45;&gt;Node27</title>
<path fill="none" stroke="midnightblue" d="M496.164,-92.0944C445.947,-77.1577 373.563,-55.6273 326.405,-41.6003"/>
<polygon fill="midnightblue" stroke="midnightblue" points="495.315,-95.4933 505.898,-94.9897 497.311,-88.7838 495.315,-95.4933"/>
</g>
<!-- Node36 -->
<g id="node14" class="node"><title>Node36</title>
<g id="a_node14"><a xlink:href="floating__window__manager_8cpp.html" target="_top" xlink:title="examples/example&#45;server\l&#45;lib/floating_window_manager.cpp">
<polygon fill="white" stroke="black" points="406,-11.5 406,-41.5 568,-41.5 568,-11.5 406,-11.5"/>
<text text-anchor="start" x="414" y="-29.5" font-family="Arial" font-size="10.00">examples/example&#45;server</text>
<text text-anchor="middle" x="487" y="-18.5" font-family="Arial" font-size="10.00">&#45;lib/floating_window_manager.cpp</text>
</a>
</g>
</g>
<!-- Node35&#45;&gt;Node36 -->
<g id="edge15" class="edge"><title>Node35&#45;&gt;Node36</title>
<path fill="none" stroke="midnightblue" d="M535.049,-86.8334C523.354,-72.3914 508.449,-53.9866 498.365,-41.5335"/>
<polygon fill="midnightblue" stroke="midnightblue" points="532.49,-89.2351 541.504,-94.8038 537.93,-84.8297 532.49,-89.2351"/>
</g>
<!-- Node38 -->
<g id="node16" class="node"><title>Node38</title>
<g id="a_node16"><a xlink:href="declarative__placement__window__manage__policy_8h.html" target="_top" xlink:title="include/test/mir_test\l_framework/declarative\l_placement_window_manage\l_policy.h">
<polygon fill="white" stroke="black" points="872.5,-0.5 872.5,-52.5 1015.5,-52.5 1015.5,-0.5 872.5,-0.5"/>
<text text-anchor="start" x="880.5" y="-40.5" font-family="Arial" font-size="10.00">include/test/mir_test</text>
<text text-anchor="start" x="880.5" y="-29.5" font-family="Arial" font-size="10.00">_framework/declarative</text>
<text text-anchor="start" x="880.5" y="-18.5" font-family="Arial" font-size="10.00">_placement_window_manage</text>
<text text-anchor="middle" x="944" y="-7.5" font-family="Arial" font-size="10.00">_policy.h</text>
</a>
</g>
</g>
<!-- Node37&#45;&gt;Node38 -->
<g id="edge17" class="edge"><title>Node37&#45;&gt;Node38</title>
<path fill="none" stroke="midnightblue" d="M918.103,-80.2652C922.531,-71.243 927.383,-61.3578 931.677,-52.6073"/>
<polygon fill="midnightblue" stroke="midnightblue" points="914.947,-78.7519 913.683,-89.2711 921.231,-81.8361 914.947,-78.7519"/>
</g>
<!-- Node39&#45;&gt;Node25 -->
<g id="edge19" class="edge"><title>Node39&#45;&gt;Node25</title>
<path fill="none" stroke="midnightblue" d="M236.547,-234.422C254.8,-222.724 277.565,-208.134 294.042,-197.573"/>
<polygon fill="midnightblue" stroke="midnightblue" points="234.526,-231.56 227.996,-239.903 238.304,-237.453 234.526,-231.56"/>
</g>
<!-- Node40&#45;&gt;Node25 -->
<g id="edge21" class="edge"><title>Node40&#45;&gt;Node25</title>
<path fill="none" stroke="midnightblue" d="M328.264,-224.671C325.509,-215.422 322.587,-205.614 320.287,-197.892"/>
<polygon fill="midnightblue" stroke="midnightblue" points="324.941,-225.777 331.15,-234.362 331.65,-223.779 324.941,-225.777"/>
</g>
</g>
</svg>
