<?xml version="1.0" encoding="UTF-8" standalone="no"?>
<!DOCTYPE svg PUBLIC "-//W3C//DTD SVG 1.1//EN"
 "http://www.w3.org/Graphics/SVG/1.1/DTD/svg11.dtd">
<!-- Generated by graphviz version 2.38.0 (20140413.2041)
 -->
<!-- Title: include/platform/mir/graphics/transformation.h Pages: 1 -->
<svg width="215pt" height="151pt"
 viewBox="0.00 0.00 215.00 151.00" xmlns="http://www.w3.org/2000/svg" xmlns:xlink="http://www.w3.org/1999/xlink">
<g id="graph0" class="graph" transform="scale(1 1) rotate(0) translate(4 147)">
<title>include/platform/mir/graphics/transformation.h</title>
<polygon fill="white" stroke="none" points="-4,4 -4,-147 211,-147 211,4 -4,4"/>
<!-- Node0 -->
<g id="node1" class="node"><title>Node0</title>
<polygon fill="#bfbfbf" stroke="black" points="53,-112.5 53,-142.5 183,-142.5 183,-112.5 53,-112.5"/>
<text text-anchor="start" x="61" y="-130.5" font-family="Arial" font-size="10.00">include/platform/mir</text>
<text text-anchor="middle" x="118" y="-119.5" font-family="Arial" font-size="10.00">/graphics/transformation.h</text>
</g>
<!-- Node1 -->
<g id="node2" class="node"><title>Node1</title>
<g id="a_node2"><a xlink:href="common_8h.html" target="_top" xlink:title="mir_toolkit/common.h">
<polygon fill="white" stroke="black" points="9,-56.5 9,-75.5 119,-75.5 119,-56.5 9,-56.5"/>
<text text-anchor="middle" x="64" y="-63.5" font-family="Arial" font-size="10.00">mir_toolkit/common.h</text>
</a>
</g>
</g>
<!-- Node0&#45;&gt;Node1 -->
<g id="edge1" class="edge"><title>Node0&#45;&gt;Node1</title>
<path fill="none" stroke="midnightblue" d="M105.203,-112.399C97.275,-103.664 87.0635,-92.4126 78.7899,-83.2962"/>
<polygon fill="midnightblue" stroke="midnightblue" points="81.1698,-80.7106 71.8575,-75.6578 75.9863,-85.415 81.1698,-80.7106"/>
</g>
<!-- Node3 -->
<g id="node4" class="node"><title>Node3</title>
<polygon fill="white" stroke="#bfbfbf" points="137,-56.5 137,-75.5 207,-75.5 207,-56.5 137,-56.5"/>
<text text-anchor="middle" x="172" y="-63.5" font-family="Arial" font-size="10.00">glm/glm.hpp</text>
</g>
<!-- Node0&#45;&gt;Node3 -->
<g id="edge3" class="edge"><title>Node0&#45;&gt;Node3</title>
<path fill="none" stroke="midnightblue" d="M130.797,-112.399C138.725,-103.664 148.936,-92.4126 157.21,-83.2962"/>
<polygon fill="midnightblue" stroke="midnightblue" points="160.014,-85.415 164.143,-75.6578 154.83,-80.7106 160.014,-85.415"/>
</g>
<!-- Node2 -->
<g id="node3" class="node"><title>Node2</title>
<g id="a_node3"><a xlink:href="deprecations_8h.html" target="_top" xlink:title="mir_toolkit/deprecations.h">
<polygon fill="white" stroke="black" points="0,-0.5 0,-19.5 128,-19.5 128,-0.5 0,-0.5"/>
<text text-anchor="middle" x="64" y="-7.5" font-family="Arial" font-size="10.00">mir_toolkit/deprecations.h</text>
</a>
</g>
</g>
<!-- Node1&#45;&gt;Node2 -->
<g id="edge2" class="edge"><title>Node1&#45;&gt;Node2</title>
<path fill="none" stroke="midnightblue" d="M64,-56.083C64,-49.0059 64,-38.8611 64,-29.9865"/>
<polygon fill="midnightblue" stroke="midnightblue" points="67.5001,-29.751 64,-19.7511 60.5001,-29.7511 67.5001,-29.751"/>
</g>
</g>
</svg>
