<?xml version="1.0" encoding="UTF-8" standalone="no"?>
<!DOCTYPE svg PUBLIC "-//W3C//DTD SVG 1.1//EN"
 "http://www.w3.org/Graphics/SVG/1.1/DTD/svg11.dtd">
<!-- Generated by graphviz version 2.43.0 (0)
 -->
<!-- Title: examples/example&#45;server&#45;lib/wallpaper_config.cpp Pages: 1 -->
<svg width="356pt" height="151pt"
 viewBox="0.00 0.00 356.00 151.00" xmlns="http://www.w3.org/2000/svg" xmlns:xlink="http://www.w3.org/1999/xlink">
<g id="graph0" class="graph" transform="scale(1 1) rotate(0) translate(4 147)">
<title>examples/example&#45;server&#45;lib/wallpaper_config.cpp</title>
<polygon fill="white" stroke="transparent" points="-4,4 -4,-147 352,-147 352,4 -4,4"/>
<!-- Node1 -->
<g id="node1" class="node">
<title>Node1</title>
<g id="a_node1"><a xlink:title=" ">
<polygon fill="#bfbfbf" stroke="black" points="153,-112.5 153,-142.5 281,-142.5 281,-112.5 153,-112.5"/>
<text text-anchor="start" x="161" y="-130.5" font-family="Arial" font-size="10.00">examples/example&#45;server</text>
<text text-anchor="middle" x="217" y="-119.5" font-family="Arial" font-size="10.00">&#45;lib/wallpaper_config.cpp</text>
</a>
</g>
</g>
<!-- Node2 -->
<g id="node2" class="node">
<title>Node2</title>
<g id="a_node2"><a xlink:href="wallpaper__config_8h.html" target="_top" xlink:title=" ">
<polygon fill="white" stroke="black" points="0,-56.5 0,-75.5 98,-75.5 98,-56.5 0,-56.5"/>
<text text-anchor="middle" x="49" y="-63.5" font-family="Arial" font-size="10.00">wallpaper_config.h</text>
</a>
</g>
</g>
<!-- Node1&#45;&gt;Node2 -->
<g id="edge1" class="edge">
<title>Node1&#45;&gt;Node2</title>
<path fill="none" stroke="midnightblue" d="M177.19,-112.4C148.5,-102.24 110.19,-88.67 82.94,-79.02"/>
<polygon fill="midnightblue" stroke="midnightblue" points="84.04,-75.7 73.45,-75.66 81.7,-82.3 84.04,-75.7"/>
</g>
<!-- Node4 -->
<g id="node4" class="node">
<title>Node4</title>
<g id="a_node4"><a xlink:title=" ">
<polygon fill="white" stroke="#bfbfbf" points="116.5,-56.5 116.5,-75.5 223.5,-75.5 223.5,-56.5 116.5,-56.5"/>
<text text-anchor="middle" x="170" y="-63.5" font-family="Arial" font-size="10.00">boost/filesystem.hpp</text>
</a>
</g>
</g>
<!-- Node1&#45;&gt;Node4 -->
<g id="edge3" class="edge">
<title>Node1&#45;&gt;Node4</title>
<path fill="none" stroke="midnightblue" d="M205.86,-112.4C199.03,-103.75 190.26,-92.64 183.09,-83.58"/>
<polygon fill="midnightblue" stroke="midnightblue" points="185.78,-81.34 176.84,-75.66 180.29,-85.67 185.78,-81.34"/>
</g>
<!-- Node5 -->
<g id="node5" class="node">
<title>Node5</title>
<g id="a_node5"><a xlink:title=" ">
<polygon fill="white" stroke="#bfbfbf" points="242,-56.5 242,-75.5 286,-75.5 286,-56.5 242,-56.5"/>
<text text-anchor="middle" x="264" y="-63.5" font-family="Arial" font-size="10.00">mutex</text>
</a>
</g>
</g>
<!-- Node1&#45;&gt;Node5 -->
<g id="edge4" class="edge">
<title>Node1&#45;&gt;Node5</title>
<path fill="none" stroke="midnightblue" d="M228.14,-112.4C234.97,-103.75 243.74,-92.64 250.91,-83.58"/>
<polygon fill="midnightblue" stroke="midnightblue" points="253.71,-85.67 257.16,-75.66 248.22,-81.34 253.71,-85.67"/>
</g>
<!-- Node6 -->
<g id="node6" class="node">
<title>Node6</title>
<g id="a_node6"><a xlink:title=" ">
<polygon fill="white" stroke="#bfbfbf" points="304,-56.5 304,-75.5 348,-75.5 348,-56.5 304,-56.5"/>
<text text-anchor="middle" x="326" y="-63.5" font-family="Arial" font-size="10.00">vector</text>
</a>
</g>
</g>
<!-- Node1&#45;&gt;Node6 -->
<g id="edge5" class="edge">
<title>Node1&#45;&gt;Node6</title>
<path fill="none" stroke="midnightblue" d="M242.83,-112.4C260.47,-102.77 283.7,-90.09 301.13,-80.58"/>
<polygon fill="midnightblue" stroke="midnightblue" points="303.04,-83.52 310.14,-75.66 299.69,-77.38 303.04,-83.52"/>
</g>
<!-- Node3 -->
<g id="node3" class="node">
<title>Node3</title>
<g id="a_node3"><a xlink:title=" ">
<polygon fill="white" stroke="#bfbfbf" points="28.5,-0.5 28.5,-19.5 69.5,-19.5 69.5,-0.5 28.5,-0.5"/>
<text text-anchor="middle" x="49" y="-7.5" font-family="Arial" font-size="10.00">string</text>
</a>
</g>
</g>
<!-- Node2&#45;&gt;Node3 -->
<g id="edge2" class="edge">
<title>Node2&#45;&gt;Node3</title>
<path fill="none" stroke="midnightblue" d="M49,-56.08C49,-49.01 49,-38.86 49,-29.99"/>
<polygon fill="midnightblue" stroke="midnightblue" points="52.5,-29.75 49,-19.75 45.5,-29.75 52.5,-29.75"/>
</g>
</g>
</svg>
