<?xml version="1.0" encoding="UTF-8" standalone="no"?>
<!DOCTYPE svg PUBLIC "-//W3C//DTD SVG 1.1//EN"
 "http://www.w3.org/Graphics/SVG/1.1/DTD/svg11.dtd">
<!-- Generated by graphviz version 2.40.1 (20161225.0304)
 -->
<!-- Title: examples/example&#45;server&#45;lib/wayland_helpers.cpp Pages: 1 -->
<svg width="582pt" height="151pt"
 viewBox="0.00 0.00 582.00 151.00" xmlns="http://www.w3.org/2000/svg" xmlns:xlink="http://www.w3.org/1999/xlink">
<g id="graph0" class="graph" transform="scale(1 1) rotate(0) translate(4 147)">
<title>examples/example&#45;server&#45;lib/wayland_helpers.cpp</title>
<polygon fill="#ffffff" stroke="transparent" points="-4,4 -4,-147 578,-147 578,4 -4,4"/>
<!-- Node0 -->
<g id="node1" class="node">
<title>Node0</title>
<polygon fill="#bfbfbf" stroke="#000000" points="309.5,-112.5 309.5,-142.5 454.5,-142.5 454.5,-112.5 309.5,-112.5"/>
<text text-anchor="start" x="317.5" y="-130.5" font-family="Arial" font-size="10.00" fill="#000000">examples/example&#45;server</text>
<text text-anchor="middle" x="382" y="-119.5" font-family="Arial" font-size="10.00" fill="#000000">&#45;lib/wayland_helpers.cpp</text>
</g>
<!-- Node1 -->
<g id="node2" class="node">
<title>Node1</title>
<g id="a_node2"><a xlink:href="wayland__helpers_8h.html" target="_top" xlink:title="wayland_helpers.h">
<polygon fill="#ffffff" stroke="#000000" points="162,-56.5 162,-75.5 270,-75.5 270,-56.5 162,-56.5"/>
<text text-anchor="middle" x="216" y="-63.5" font-family="Arial" font-size="10.00" fill="#000000">wayland_helpers.h</text>
</a>
</g>
</g>
<!-- Node0&#45;&gt;Node1 -->
<g id="edge1" class="edge">
<title>Node0&#45;&gt;Node1</title>
<path fill="none" stroke="#191970" d="M341.3918,-112.4554C313.8158,-102.239 277.7058,-88.8609 251.3218,-79.0861"/>
<polygon fill="#191970" stroke="#191970" points="252.3172,-75.7224 241.7241,-75.5303 249.8853,-82.2864 252.3172,-75.7224"/>
</g>
<!-- Node7 -->
<g id="node8" class="node">
<title>Node7</title>
<polygon fill="#ffffff" stroke="#bfbfbf" points="288.5,-56.5 288.5,-75.5 335.5,-75.5 335.5,-56.5 288.5,-56.5"/>
<text text-anchor="middle" x="312" y="-63.5" font-family="Arial" font-size="10.00" fill="#000000">fcntl.h</text>
</g>
<!-- Node0&#45;&gt;Node7 -->
<g id="edge7" class="edge">
<title>Node0&#45;&gt;Node7</title>
<path fill="none" stroke="#191970" d="M364.6966,-112.2977C354.4738,-103.3163 341.5177,-91.9334 331.0104,-82.702"/>
<polygon fill="#191970" stroke="#191970" points="333.0305,-79.8178 323.2079,-75.8469 328.4103,-85.0766 333.0305,-79.8178"/>
</g>
<!-- Node8 -->
<g id="node9" class="node">
<title>Node8</title>
<polygon fill="#ffffff" stroke="#bfbfbf" points="354,-56.5 354,-75.5 410,-75.5 410,-56.5 354,-56.5"/>
<text text-anchor="middle" x="382" y="-63.5" font-family="Arial" font-size="10.00" fill="#000000">unistd.h</text>
</g>
<!-- Node0&#45;&gt;Node8 -->
<g id="edge8" class="edge">
<title>Node0&#45;&gt;Node8</title>
<path fill="none" stroke="#191970" d="M382,-112.2977C382,-104.3834 382,-94.6043 382,-86.0759"/>
<polygon fill="#191970" stroke="#191970" points="385.5001,-85.8469 382,-75.8469 378.5001,-85.847 385.5001,-85.8469"/>
</g>
<!-- Node9 -->
<g id="node10" class="node">
<title>Node9</title>
<polygon fill="#ffffff" stroke="#bfbfbf" points="428.5,-56.5 428.5,-75.5 505.5,-75.5 505.5,-56.5 428.5,-56.5"/>
<text text-anchor="middle" x="467" y="-63.5" font-family="Arial" font-size="10.00" fill="#000000">sys/mman.h</text>
</g>
<!-- Node0&#45;&gt;Node9 -->
<g id="edge9" class="edge">
<title>Node0&#45;&gt;Node9</title>
<path fill="none" stroke="#191970" d="M403.0112,-112.2977C415.7934,-103.0495 432.0946,-91.2551 445.0448,-81.8853"/>
<polygon fill="#191970" stroke="#191970" points="447.3403,-84.5445 453.3904,-75.8469 443.237,-78.8732 447.3403,-84.5445"/>
</g>
<!-- Node10 -->
<g id="node11" class="node">
<title>Node10</title>
<polygon fill="#ffffff" stroke="#bfbfbf" points="524,-56.5 524,-75.5 574,-75.5 574,-56.5 524,-56.5"/>
<text text-anchor="middle" x="549" y="-63.5" font-family="Arial" font-size="10.00" fill="#000000">cstring</text>
</g>
<!-- Node0&#45;&gt;Node10 -->
<g id="edge10" class="edge">
<title>Node0&#45;&gt;Node10</title>
<path fill="none" stroke="#191970" d="M422.8528,-112.4554C450.7662,-102.1759 487.3713,-88.6956 513.9559,-78.9055"/>
<polygon fill="#191970" stroke="#191970" points="515.4406,-82.0885 523.615,-75.3484 513.0216,-75.5198 515.4406,-82.0885"/>
</g>
<!-- Node2 -->
<g id="node3" class="node">
<title>Node2</title>
<polygon fill="#ffffff" stroke="#bfbfbf" points="0,-.5 0,-19.5 98,-19.5 98,-.5 0,-.5"/>
<text text-anchor="middle" x="49" y="-7.5" font-family="Arial" font-size="10.00" fill="#000000">wayland&#45;client.h</text>
</g>
<!-- Node1&#45;&gt;Node2 -->
<g id="edge2" class="edge">
<title>Node1&#45;&gt;Node2</title>
<path fill="none" stroke="#191970" d="M187.2917,-56.3733C159.6423,-47.1016 117.6424,-33.0178 87.1834,-22.804"/>
<polygon fill="#191970" stroke="#191970" points="87.9276,-19.3621 77.3337,-19.5011 85.7021,-25.9989 87.9276,-19.3621"/>
</g>
<!-- Node3 -->
<g id="node4" class="node">
<title>Node3</title>
<polygon fill="#ffffff" stroke="#bfbfbf" points="116,-.5 116,-19.5 174,-19.5 174,-.5 116,-.5"/>
<text text-anchor="middle" x="145" y="-7.5" font-family="Arial" font-size="10.00" fill="#000000">memory</text>
</g>
<!-- Node1&#45;&gt;Node3 -->
<g id="edge3" class="edge">
<title>Node1&#45;&gt;Node3</title>
<path fill="none" stroke="#191970" d="M203.6327,-56.2455C193.0446,-47.8943 177.5936,-35.7076 165.2107,-25.9408"/>
<polygon fill="#191970" stroke="#191970" points="167.2447,-23.0875 157.2255,-19.6427 162.9097,-28.5837 167.2447,-23.0875"/>
</g>
<!-- Node4 -->
<g id="node5" class="node">
<title>Node4</title>
<polygon fill="#ffffff" stroke="#bfbfbf" points="192.5,-.5 192.5,-19.5 239.5,-19.5 239.5,-.5 192.5,-.5"/>
<text text-anchor="middle" x="216" y="-7.5" font-family="Arial" font-size="10.00" fill="#000000">vector</text>
</g>
<!-- Node1&#45;&gt;Node4 -->
<g id="edge4" class="edge">
<title>Node1&#45;&gt;Node4</title>
<path fill="none" stroke="#191970" d="M216,-56.2455C216,-48.9382 216,-38.6944 216,-29.7046"/>
<polygon fill="#191970" stroke="#191970" points="219.5001,-29.6426 216,-19.6427 212.5001,-29.6427 219.5001,-29.6426"/>
</g>
<!-- Node5 -->
<g id="node6" class="node">
<title>Node5</title>
<polygon fill="#ffffff" stroke="#bfbfbf" points="257.5,-.5 257.5,-19.5 322.5,-19.5 322.5,-.5 257.5,-.5"/>
<text text-anchor="middle" x="290" y="-7.5" font-family="Arial" font-size="10.00" fill="#000000">functional</text>
</g>
<!-- Node1&#45;&gt;Node5 -->
<g id="edge5" class="edge">
<title>Node1&#45;&gt;Node5</title>
<path fill="none" stroke="#191970" d="M228.8898,-56.2455C239.9254,-47.8943 256.0292,-35.7076 268.9353,-25.9408"/>
<polygon fill="#191970" stroke="#191970" points="271.3959,-28.4681 277.2579,-19.6427 267.1717,-22.8862 271.3959,-28.4681"/>
</g>
<!-- Node6 -->
<g id="node7" class="node">
<title>Node6</title>
<polygon fill="#ffffff" stroke="#bfbfbf" points="340.5,-.5 340.5,-19.5 433.5,-19.5 433.5,-.5 340.5,-.5"/>
<text text-anchor="middle" x="387" y="-7.5" font-family="Arial" font-size="10.00" fill="#000000">unordered_map</text>
</g>
<!-- Node1&#45;&gt;Node6 -->
<g id="edge6" class="edge">
<title>Node1&#45;&gt;Node6</title>
<path fill="none" stroke="#191970" d="M245.3959,-56.3733C273.8307,-47.0613 317.0877,-32.8953 348.3081,-22.671"/>
<polygon fill="#191970" stroke="#191970" points="349.5736,-25.9396 357.9876,-19.5011 347.395,-19.2872 349.5736,-25.9396"/>
</g>
</g>
</svg>
