<?xml version="1.0" encoding="UTF-8" standalone="no"?>
<!DOCTYPE svg PUBLIC "-//W3C//DTD SVG 1.1//EN"
 "http://www.w3.org/Graphics/SVG/1.1/DTD/svg11.dtd">
<!-- Generated by graphviz version 2.43.0 (0)
 -->
<!-- Title: include/miral/miral/wayland_extensions.h Pages: 1 -->
<svg width="401pt" height="151pt"
 viewBox="0.00 0.00 401.00 151.00" xmlns="http://www.w3.org/2000/svg" xmlns:xlink="http://www.w3.org/1999/xlink">
<g id="graph0" class="graph" transform="scale(1 1) rotate(0) translate(4 147)">
<title>include/miral/miral/wayland_extensions.h</title>
<polygon fill="white" stroke="transparent" points="-4,4 -4,-147 397,-147 397,4 -4,4"/>
<!-- Node1 -->
<g id="node1" class="node">
<title>Node1</title>
<g id="a_node1"><a xlink:title=" ">
<polygon fill="#bfbfbf" stroke="black" points="160,-112.5 160,-142.5 276,-142.5 276,-112.5 160,-112.5"/>
<text text-anchor="start" x="168" y="-130.5" font-family="Arial" font-size="10.00">include/miral/miral</text>
<text text-anchor="middle" x="218" y="-119.5" font-family="Arial" font-size="10.00">/wayland_extensions.h</text>
</a>
</g>
</g>
<!-- Node2 -->
<g id="node2" class="node">
<title>Node2</title>
<g id="a_node2"><a xlink:href="application_8h.html" target="_top" xlink:title=" ">
<polygon fill="white" stroke="black" points="89.5,-56.5 89.5,-75.5 160.5,-75.5 160.5,-56.5 89.5,-56.5"/>
<text text-anchor="middle" x="125" y="-63.5" font-family="Arial" font-size="10.00">application.h</text>
</a>
</g>
</g>
<!-- Node1&#45;&gt;Node2 -->
<g id="edge1" class="edge">
<title>Node1&#45;&gt;Node2</title>
<path fill="none" stroke="midnightblue" d="M195.96,-112.4C181.19,-102.95 161.82,-90.56 147.05,-81.11"/>
<polygon fill="midnightblue" stroke="midnightblue" points="148.84,-78.1 138.53,-75.66 145.07,-84 148.84,-78.1"/>
</g>
<!-- Node4 -->
<g id="node4" class="node">
<title>Node4</title>
<g id="a_node4"><a xlink:title=" ">
<polygon fill="white" stroke="#bfbfbf" points="0,-0.5 0,-19.5 52,-19.5 52,-0.5 0,-0.5"/>
<text text-anchor="middle" x="26" y="-7.5" font-family="Arial" font-size="10.00">memory</text>
</a>
</g>
</g>
<!-- Node1&#45;&gt;Node4 -->
<g id="edge6" class="edge">
<title>Node1&#45;&gt;Node4</title>
<path fill="none" stroke="midnightblue" d="M160.16,-112.42C134.43,-104.4 104.67,-92.57 81,-76 62.72,-63.2 46.88,-42.9 36.95,-28.39"/>
<polygon fill="midnightblue" stroke="midnightblue" points="39.74,-26.26 31.32,-19.83 33.89,-30.11 39.74,-26.26"/>
</g>
<!-- Node5 -->
<g id="node5" class="node">
<title>Node5</title>
<g id="a_node5"><a xlink:title=" ">
<polygon fill="white" stroke="#bfbfbf" points="198.5,-0.5 198.5,-19.5 239.5,-19.5 239.5,-0.5 198.5,-0.5"/>
<text text-anchor="middle" x="219" y="-7.5" font-family="Arial" font-size="10.00">string</text>
</a>
</g>
</g>
<!-- Node1&#45;&gt;Node5 -->
<g id="edge7" class="edge">
<title>Node1&#45;&gt;Node5</title>
<path fill="none" stroke="midnightblue" d="M214.24,-112.47C210.9,-98.26 206.85,-75.62 209,-56 209.97,-47.14 211.99,-37.47 213.96,-29.38"/>
<polygon fill="midnightblue" stroke="midnightblue" points="217.39,-30.09 216.52,-19.53 210.62,-28.33 217.39,-30.09"/>
</g>
<!-- Node6 -->
<g id="node6" class="node">
<title>Node6</title>
<g id="a_node6"><a xlink:title=" ">
<polygon fill="white" stroke="#bfbfbf" points="217.5,-56.5 217.5,-75.5 276.5,-75.5 276.5,-56.5 217.5,-56.5"/>
<text text-anchor="middle" x="247" y="-63.5" font-family="Arial" font-size="10.00">functional</text>
</a>
</g>
</g>
<!-- Node1&#45;&gt;Node6 -->
<g id="edge5" class="edge">
<title>Node1&#45;&gt;Node6</title>
<path fill="none" stroke="midnightblue" d="M224.87,-112.4C228.91,-104.11 234.06,-93.55 238.37,-84.71"/>
<polygon fill="midnightblue" stroke="midnightblue" points="241.55,-86.18 242.78,-75.66 235.25,-83.11 241.55,-86.18"/>
</g>
<!-- Node7 -->
<g id="node7" class="node">
<title>Node7</title>
<g id="a_node7"><a xlink:title=" ">
<polygon fill="white" stroke="#bfbfbf" points="295,-56.5 295,-75.5 345,-75.5 345,-56.5 295,-56.5"/>
<text text-anchor="middle" x="320" y="-63.5" font-family="Arial" font-size="10.00">optional</text>
</a>
</g>
</g>
<!-- Node1&#45;&gt;Node7 -->
<g id="edge8" class="edge">
<title>Node1&#45;&gt;Node7</title>
<path fill="none" stroke="midnightblue" d="M242.17,-112.4C258.52,-102.86 280.01,-90.32 296.27,-80.84"/>
<polygon fill="midnightblue" stroke="midnightblue" points="298.28,-83.72 305.16,-75.66 294.76,-77.67 298.28,-83.72"/>
</g>
<!-- Node8 -->
<g id="node8" class="node">
<title>Node8</title>
<g id="a_node8"><a xlink:title=" ">
<polygon fill="white" stroke="#bfbfbf" points="363,-56.5 363,-75.5 393,-75.5 393,-56.5 363,-56.5"/>
<text text-anchor="middle" x="378" y="-63.5" font-family="Arial" font-size="10.00">set</text>
</a>
</g>
</g>
<!-- Node1&#45;&gt;Node8 -->
<g id="edge9" class="edge">
<title>Node1&#45;&gt;Node8</title>
<path fill="none" stroke="midnightblue" d="M255.82,-112.49C280.99,-103.17 315.02,-90.54 353.02,-76.36"/>
<polygon fill="midnightblue" stroke="midnightblue" points="354.62,-79.5 362.77,-72.72 352.17,-72.94 354.62,-79.5"/>
</g>
<!-- Node3 -->
<g id="node3" class="node">
<title>Node3</title>
<g id="a_node3"><a xlink:href="common_8h.html" target="_top" xlink:title=" ">
<polygon fill="white" stroke="black" points="70,-0.5 70,-19.5 180,-19.5 180,-0.5 70,-0.5"/>
<text text-anchor="middle" x="125" y="-7.5" font-family="Arial" font-size="10.00">mir_toolkit/common.h</text>
</a>
</g>
</g>
<!-- Node2&#45;&gt;Node3 -->
<g id="edge2" class="edge">
<title>Node2&#45;&gt;Node3</title>
<path fill="none" stroke="midnightblue" d="M125,-56.08C125,-49.01 125,-38.86 125,-29.99"/>
<polygon fill="midnightblue" stroke="midnightblue" points="128.5,-29.75 125,-19.75 121.5,-29.75 128.5,-29.75"/>
</g>
<!-- Node2&#45;&gt;Node4 -->
<g id="edge3" class="edge">
<title>Node2&#45;&gt;Node4</title>
<path fill="none" stroke="midnightblue" d="M109.09,-56.32C93.36,-47.74 69.06,-34.49 50.79,-24.52"/>
<polygon fill="midnightblue" stroke="midnightblue" points="52.32,-21.37 41.87,-19.65 48.97,-27.52 52.32,-21.37"/>
</g>
<!-- Node2&#45;&gt;Node5 -->
<g id="edge4" class="edge">
<title>Node2&#45;&gt;Node5</title>
<path fill="none" stroke="midnightblue" d="M140.1,-56.32C154.9,-47.82 177.69,-34.73 194.98,-24.8"/>
<polygon fill="midnightblue" stroke="midnightblue" points="197.01,-27.67 203.93,-19.65 193.52,-21.6 197.01,-27.67"/>
</g>
</g>
</svg>
