<?xml version="1.0" encoding="UTF-8" standalone="no"?>
<!DOCTYPE svg PUBLIC "-//W3C//DTD SVG 1.1//EN"
 "http://www.w3.org/Graphics/SVG/1.1/DTD/svg11.dtd">
<!-- Generated by graphviz version 2.40.1 (20161225.0304)
 -->
<!-- Title: include/miral/miral/wayland_extensions.h Pages: 1 -->
<svg width="309pt" height="207pt"
 viewBox="0.00 0.00 308.50 207.00" xmlns="http://www.w3.org/2000/svg" xmlns:xlink="http://www.w3.org/1999/xlink">
<g id="graph0" class="graph" transform="scale(1 1) rotate(0) translate(4 203)">
<title>include/miral/miral/wayland_extensions.h</title>
<polygon fill="#ffffff" stroke="transparent" points="-4,4 -4,-203 304.5,-203 304.5,4 -4,4"/>
<!-- Node0 -->
<g id="node1" class="node">
<title>Node0</title>
<polygon fill="#bfbfbf" stroke="#000000" points="109,-168.5 109,-198.5 237,-198.5 237,-168.5 109,-168.5"/>
<text text-anchor="start" x="117" y="-186.5" font-family="Arial" font-size="10.00" fill="#000000">include/miral/miral</text>
<text text-anchor="middle" x="173" y="-175.5" font-family="Arial" font-size="10.00" fill="#000000">/wayland_extensions.h</text>
</g>
<!-- Node1 -->
<g id="node2" class="node">
<title>Node1</title>
<g id="a_node2"><a xlink:href="application_8h.html" target="_top" xlink:title="application.h">
<polygon fill="#ffffff" stroke="#000000" points="99,-112.5 99,-131.5 179,-131.5 179,-112.5 99,-112.5"/>
<text text-anchor="middle" x="139" y="-119.5" font-family="Arial" font-size="10.00" fill="#000000">application.h</text>
</a>
</g>
</g>
<!-- Node0&#45;&gt;Node1 -->
<g id="edge1" class="edge">
<title>Node0&#45;&gt;Node1</title>
<path fill="none" stroke="#191970" d="M164.5955,-168.2977C159.9743,-159.9388 154.2031,-149.4997 149.3111,-140.6509"/>
<polygon fill="#191970" stroke="#191970" points="152.3452,-138.9051 144.4438,-131.8469 146.2191,-142.292 152.3452,-138.9051"/>
</g>
<!-- Node4 -->
<g id="node5" class="node">
<title>Node4</title>
<polygon fill="#ffffff" stroke="#bfbfbf" points="0,-56.5 0,-75.5 58,-75.5 58,-56.5 0,-56.5"/>
<text text-anchor="middle" x="29" y="-63.5" font-family="Arial" font-size="10.00" fill="#000000">memory</text>
</g>
<!-- Node0&#45;&gt;Node4 -->
<g id="edge7" class="edge">
<title>Node0&#45;&gt;Node4</title>
<path fill="none" stroke="#191970" d="M144.4428,-168.3335C127.8149,-158.8939 106.8712,-145.9257 90,-132 72.2624,-117.3591 54.7269,-97.6964 43.0418,-83.6493"/>
<polygon fill="#191970" stroke="#191970" points="45.6075,-81.2575 36.5726,-75.7237 40.1846,-85.6839 45.6075,-81.2575"/>
</g>
<!-- Node5 -->
<g id="node6" class="node">
<title>Node5</title>
<polygon fill="#ffffff" stroke="#bfbfbf" points="220,-56.5 220,-75.5 264,-75.5 264,-56.5 220,-56.5"/>
<text text-anchor="middle" x="242" y="-63.5" font-family="Arial" font-size="10.00" fill="#000000">string</text>
</g>
<!-- Node0&#45;&gt;Node5 -->
<g id="edge8" class="edge">
<title>Node0&#45;&gt;Node5</title>
<path fill="none" stroke="#191970" d="M182.0205,-168.1389C194.6781,-146.5843 217.6741,-107.4245 231.2182,-84.3604"/>
<polygon fill="#191970" stroke="#191970" points="234.3406,-85.9549 236.3863,-75.5595 228.3044,-82.4103 234.3406,-85.9549"/>
</g>
<!-- Node6 -->
<g id="node7" class="node">
<title>Node6</title>
<polygon fill="#ffffff" stroke="#bfbfbf" points="235.5,-112.5 235.5,-131.5 300.5,-131.5 300.5,-112.5 235.5,-112.5"/>
<text text-anchor="middle" x="268" y="-119.5" font-family="Arial" font-size="10.00" fill="#000000">functional</text>
</g>
<!-- Node0&#45;&gt;Node6 -->
<g id="edge6" class="edge">
<title>Node0&#45;&gt;Node6</title>
<path fill="none" stroke="#191970" d="M196.4832,-168.2977C211.1348,-158.8127 229.9236,-146.6495 244.5659,-137.1705"/>
<polygon fill="#191970" stroke="#191970" points="246.5805,-140.0357 253.073,-131.6633 242.7764,-134.1596 246.5805,-140.0357"/>
</g>
<!-- Node2 -->
<g id="node3" class="node">
<title>Node2</title>
<g id="a_node3"><a xlink:href="common_8h.html" target="_top" xlink:title="mir_toolkit/common.h">
<polygon fill="#ffffff" stroke="#000000" points="76.5,-56.5 76.5,-75.5 201.5,-75.5 201.5,-56.5 76.5,-56.5"/>
<text text-anchor="middle" x="139" y="-63.5" font-family="Arial" font-size="10.00" fill="#000000">mir_toolkit/common.h</text>
</a>
</g>
</g>
<!-- Node1&#45;&gt;Node2 -->
<g id="edge2" class="edge">
<title>Node1&#45;&gt;Node2</title>
<path fill="none" stroke="#191970" d="M139,-112.2455C139,-104.9382 139,-94.6944 139,-85.7046"/>
<polygon fill="#191970" stroke="#191970" points="142.5001,-85.6426 139,-75.6427 135.5001,-85.6427 142.5001,-85.6426"/>
</g>
<!-- Node1&#45;&gt;Node4 -->
<g id="edge4" class="edge">
<title>Node1&#45;&gt;Node4</title>
<path fill="none" stroke="#191970" d="M119.8395,-112.2455C102.4889,-103.4125 76.7099,-90.2887 57.0417,-80.2758"/>
<polygon fill="#191970" stroke="#191970" points="58.4405,-77.0605 47.941,-75.6427 55.2647,-83.2986 58.4405,-77.0605"/>
</g>
<!-- Node1&#45;&gt;Node5 -->
<g id="edge5" class="edge">
<title>Node1&#45;&gt;Node5</title>
<path fill="none" stroke="#191970" d="M156.9412,-112.2455C173.04,-103.4928 196.8879,-90.527 215.2391,-80.5496"/>
<polygon fill="#191970" stroke="#191970" points="217.1507,-83.4942 224.2644,-75.6427 213.8071,-77.3444 217.1507,-83.4942"/>
</g>
<!-- Node3 -->
<g id="node4" class="node">
<title>Node3</title>
<g id="a_node4"><a xlink:href="deprecations_8h.html" target="_top" xlink:title="mir_toolkit/deprecations.h">
<polygon fill="#ffffff" stroke="#000000" points="66.5,-.5 66.5,-19.5 211.5,-19.5 211.5,-.5 66.5,-.5"/>
<text text-anchor="middle" x="139" y="-7.5" font-family="Arial" font-size="10.00" fill="#000000">mir_toolkit/deprecations.h</text>
</a>
</g>
</g>
<!-- Node2&#45;&gt;Node3 -->
<g id="edge3" class="edge">
<title>Node2&#45;&gt;Node3</title>
<path fill="none" stroke="#191970" d="M139,-56.2455C139,-48.9382 139,-38.6944 139,-29.7046"/>
<polygon fill="#191970" stroke="#191970" points="142.5001,-29.6426 139,-19.6427 135.5001,-29.6427 142.5001,-29.6426"/>
</g>
</g>
</svg>
