<?xml version="1.0" encoding="UTF-8" standalone="no"?>
<!DOCTYPE svg PUBLIC "-//W3C//DTD SVG 1.1//EN"
 "http://www.w3.org/Graphics/SVG/1.1/DTD/svg11.dtd">
<!-- Generated by graphviz version 2.43.0 (0)
 -->
<!-- Title: examples/example&#45;server&#45;lib/wayland_app.h Pages: 1 -->
<svg width="890pt" height="240pt"
 viewBox="0.00 0.00 890.00 240.00" xmlns="http://www.w3.org/2000/svg" xmlns:xlink="http://www.w3.org/1999/xlink">
<g id="graph0" class="graph" transform="scale(1 1) rotate(0) translate(4 236)">
<title>examples/example&#45;server&#45;lib/wayland_app.h</title>
<polygon fill="white" stroke="transparent" points="-4,4 -4,-236 886,-236 886,4 -4,4"/>
<!-- Node1 -->
<g id="node1" class="node">
<title>Node1</title>
<g id="a_node1"><a xlink:title=" ">
<polygon fill="#bfbfbf" stroke="black" points="402,-201.5 402,-231.5 530,-231.5 530,-201.5 402,-201.5"/>
<text text-anchor="start" x="410" y="-219.5" font-family="Arial" font-size="10.00">examples/example&#45;server</text>
<text text-anchor="middle" x="466" y="-208.5" font-family="Arial" font-size="10.00">&#45;lib/wayland_app.h</text>
</a>
</g>
</g>
<!-- Node2 -->
<g id="node2" class="node">
<title>Node2</title>
<g id="a_node2"><a xlink:href="decoration__provider_8cpp.html" target="_top" xlink:title=" ">
<polygon fill="white" stroke="black" points="0,-67.5 0,-97.5 136,-97.5 136,-67.5 0,-67.5"/>
<text text-anchor="start" x="8" y="-85.5" font-family="Arial" font-size="10.00">examples/example&#45;server</text>
<text text-anchor="middle" x="68" y="-74.5" font-family="Arial" font-size="10.00">&#45;lib/decoration_provider.cpp</text>
</a>
</g>
</g>
<!-- Node1&#45;&gt;Node2 -->
<g id="edge1" class="edge">
<title>Node1&#45;&gt;Node2</title>
<path fill="none" stroke="midnightblue" d="M391.77,-202.52C348.36,-193.95 292.87,-181.3 245,-165 189.44,-146.09 127.89,-115.37 93.99,-97.54"/>
<polygon fill="midnightblue" stroke="midnightblue" points="391.19,-205.98 401.68,-204.45 392.53,-199.11 391.19,-205.98"/>
</g>
<!-- Node3 -->
<g id="node3" class="node">
<title>Node3</title>
<g id="a_node3"><a xlink:href="sw__splash_8cpp.html" target="_top" xlink:title=" ">
<polygon fill="white" stroke="black" points="154,-67.5 154,-97.5 282,-97.5 282,-67.5 154,-67.5"/>
<text text-anchor="start" x="162" y="-85.5" font-family="Arial" font-size="10.00">examples/example&#45;server</text>
<text text-anchor="middle" x="218" y="-74.5" font-family="Arial" font-size="10.00">&#45;lib/sw_splash.cpp</text>
</a>
</g>
</g>
<!-- Node1&#45;&gt;Node3 -->
<g id="edge2" class="edge">
<title>Node1&#45;&gt;Node3</title>
<path fill="none" stroke="midnightblue" d="M391.84,-206.75C355.74,-199.78 313.1,-187.3 280,-165 254.2,-147.62 234.7,-115.92 224.94,-97.59"/>
<polygon fill="midnightblue" stroke="midnightblue" points="391.37,-210.23 401.84,-208.58 392.63,-203.34 391.37,-210.23"/>
</g>
<!-- Node4 -->
<g id="node4" class="node">
<title>Node4</title>
<g id="a_node4"><a xlink:href="wayland__app_8cpp.html" target="_top" xlink:title=" ">
<polygon fill="white" stroke="black" points="608,-134.5 608,-164.5 736,-164.5 736,-134.5 608,-134.5"/>
<text text-anchor="start" x="616" y="-152.5" font-family="Arial" font-size="10.00">examples/example&#45;server</text>
<text text-anchor="middle" x="672" y="-141.5" font-family="Arial" font-size="10.00">&#45;lib/wayland_app.cpp</text>
</a>
</g>
</g>
<!-- Node1&#45;&gt;Node4 -->
<g id="edge3" class="edge">
<title>Node1&#45;&gt;Node4</title>
<path fill="none" stroke="midnightblue" d="M520.05,-198.44C553.45,-187.91 595.78,-174.55 627.28,-164.61"/>
<polygon fill="midnightblue" stroke="midnightblue" points="518.93,-195.13 510.45,-201.48 521.04,-201.8 518.93,-195.13"/>
</g>
<!-- Node5 -->
<g id="node5" class="node">
<title>Node5</title>
<g id="a_node5"><a xlink:href="wayland__shm_8cpp.html" target="_top" xlink:title=" ">
<polygon fill="white" stroke="black" points="754,-134.5 754,-164.5 882,-164.5 882,-134.5 754,-134.5"/>
<text text-anchor="start" x="762" y="-152.5" font-family="Arial" font-size="10.00">examples/example&#45;server</text>
<text text-anchor="middle" x="818" y="-141.5" font-family="Arial" font-size="10.00">&#45;lib/wayland_shm.cpp</text>
</a>
</g>
</g>
<!-- Node1&#45;&gt;Node5 -->
<g id="edge4" class="edge">
<title>Node1&#45;&gt;Node5</title>
<path fill="none" stroke="midnightblue" d="M539.93,-202.47C596.2,-192.47 675.54,-178.18 745,-165 747.92,-164.45 750.9,-163.87 753.92,-163.29"/>
<polygon fill="midnightblue" stroke="midnightblue" points="539.28,-199.03 530.05,-204.23 540.51,-205.92 539.28,-199.03"/>
</g>
<!-- Node6 -->
<g id="node6" class="node">
<title>Node6</title>
<g id="a_node6"><a xlink:href="wayland__surface_8h.html" target="_top" xlink:title=" ">
<polygon fill="white" stroke="black" points="289,-134.5 289,-164.5 417,-164.5 417,-134.5 289,-134.5"/>
<text text-anchor="start" x="297" y="-152.5" font-family="Arial" font-size="10.00">examples/example&#45;server</text>
<text text-anchor="middle" x="353" y="-141.5" font-family="Arial" font-size="10.00">&#45;lib/wayland_surface.h</text>
</a>
</g>
</g>
<!-- Node1&#45;&gt;Node6 -->
<g id="edge5" class="edge">
<title>Node1&#45;&gt;Node6</title>
<path fill="none" stroke="midnightblue" d="M432.61,-196.3C414.93,-186.12 393.6,-173.85 377.47,-164.58"/>
<polygon fill="midnightblue" stroke="midnightblue" points="431.07,-199.44 441.48,-201.4 434.56,-193.38 431.07,-199.44"/>
</g>
<!-- Node11 -->
<g id="node11" class="node">
<title>Node11</title>
<g id="a_node11"><a xlink:href="miregl_8cpp.html" target="_top" xlink:title=" ">
<polygon fill="white" stroke="black" points="501,-0.5 501,-30.5 607,-30.5 607,-0.5 501,-0.5"/>
<text text-anchor="start" x="509" y="-18.5" font-family="Arial" font-size="10.00">examples/miral&#45;shell</text>
<text text-anchor="middle" x="554" y="-7.5" font-family="Arial" font-size="10.00">/spinner/miregl.cpp</text>
</a>
</g>
</g>
<!-- Node1&#45;&gt;Node11 -->
<g id="edge13" class="edge">
<title>Node1&#45;&gt;Node11</title>
<path fill="none" stroke="midnightblue" d="M490.58,-194.62C513.8,-173.14 547.09,-137.33 561,-98 569,-75.37 563.39,-47.1 558.65,-30.5"/>
<polygon fill="midnightblue" stroke="midnightblue" points="488.21,-192.04 483.13,-201.34 492.9,-197.24 488.21,-192.04"/>
</g>
<!-- Node6&#45;&gt;Node2 -->
<g id="edge6" class="edge">
<title>Node6&#45;&gt;Node2</title>
<path fill="none" stroke="midnightblue" d="M281.47,-132.19C234.79,-121.54 174.48,-107.78 129.87,-97.61"/>
<polygon fill="midnightblue" stroke="midnightblue" points="280.98,-135.66 291.51,-134.48 282.54,-128.84 280.98,-135.66"/>
</g>
<!-- Node6&#45;&gt;Node3 -->
<g id="edge7" class="edge">
<title>Node6&#45;&gt;Node3</title>
<path fill="none" stroke="midnightblue" d="M314.56,-129.99C293.16,-119.69 266.95,-107.07 247.24,-97.58"/>
<polygon fill="midnightblue" stroke="midnightblue" points="313.18,-133.21 323.71,-134.4 316.22,-126.9 313.18,-133.21"/>
</g>
<!-- Node7 -->
<g id="node7" class="node">
<title>Node7</title>
<g id="a_node7"><a xlink:href="wayland__surface_8cpp.html" target="_top" xlink:title=" ">
<polygon fill="white" stroke="black" points="424,-67.5 424,-97.5 552,-97.5 552,-67.5 424,-67.5"/>
<text text-anchor="start" x="432" y="-85.5" font-family="Arial" font-size="10.00">examples/example&#45;server</text>
<text text-anchor="middle" x="488" y="-74.5" font-family="Arial" font-size="10.00">&#45;lib/wayland_surface.cpp</text>
</a>
</g>
</g>
<!-- Node6&#45;&gt;Node7 -->
<g id="edge8" class="edge">
<title>Node6&#45;&gt;Node7</title>
<path fill="none" stroke="midnightblue" d="M391.44,-129.99C412.84,-119.69 439.05,-107.07 458.76,-97.58"/>
<polygon fill="midnightblue" stroke="midnightblue" points="389.78,-126.9 382.29,-134.4 392.82,-133.21 389.78,-126.9"/>
</g>
<!-- Node8 -->
<g id="node8" class="node">
<title>Node8</title>
<g id="a_node8"><a xlink:href="miregl_8h.html" target="_top" xlink:title=" ">
<polygon fill="white" stroke="black" points="300,-67.5 300,-97.5 406,-97.5 406,-67.5 300,-67.5"/>
<text text-anchor="start" x="308" y="-85.5" font-family="Arial" font-size="10.00">examples/miral&#45;shell</text>
<text text-anchor="middle" x="353" y="-74.5" font-family="Arial" font-size="10.00">/spinner/miregl.h</text>
</a>
</g>
</g>
<!-- Node6&#45;&gt;Node8 -->
<g id="edge9" class="edge">
<title>Node6&#45;&gt;Node8</title>
<path fill="none" stroke="midnightblue" d="M353,-124.11C353,-115.15 353,-105.32 353,-97.58"/>
<polygon fill="midnightblue" stroke="midnightblue" points="349.5,-124.4 353,-134.4 356.5,-124.4 349.5,-124.4"/>
</g>
<!-- Node9 -->
<g id="node9" class="node">
<title>Node9</title>
<g id="a_node9"><a xlink:href="eglapp_8cpp.html" target="_top" xlink:title=" ">
<polygon fill="white" stroke="black" points="326,-0.5 326,-30.5 432,-30.5 432,-0.5 326,-0.5"/>
<text text-anchor="start" x="334" y="-18.5" font-family="Arial" font-size="10.00">examples/miral&#45;shell</text>
<text text-anchor="middle" x="379" y="-7.5" font-family="Arial" font-size="10.00">/spinner/eglapp.cpp</text>
</a>
</g>
</g>
<!-- Node8&#45;&gt;Node9 -->
<g id="edge10" class="edge">
<title>Node8&#45;&gt;Node9</title>
<path fill="none" stroke="midnightblue" d="M362.4,-57.99C366.08,-48.8 370.17,-38.58 373.37,-30.58"/>
<polygon fill="midnightblue" stroke="midnightblue" points="359.11,-56.81 358.64,-67.4 365.61,-59.41 359.11,-56.81"/>
</g>
<!-- Node10 -->
<g id="node10" class="node">
<title>Node10</title>
<g id="a_node10"><a xlink:href="eglspinner_8cpp.html" target="_top" xlink:title=" ">
<polygon fill="white" stroke="black" points="190.5,-0.5 190.5,-30.5 307.5,-30.5 307.5,-0.5 190.5,-0.5"/>
<text text-anchor="start" x="198.5" y="-18.5" font-family="Arial" font-size="10.00">examples/miral&#45;shell</text>
<text text-anchor="middle" x="249" y="-7.5" font-family="Arial" font-size="10.00">/spinner/eglspinner.cpp</text>
</a>
</g>
</g>
<!-- Node8&#45;&gt;Node10 -->
<g id="edge11" class="edge">
<title>Node8&#45;&gt;Node10</title>
<path fill="none" stroke="midnightblue" d="M321.82,-62.02C305.64,-51.9 286.23,-39.77 271.52,-30.58"/>
<polygon fill="midnightblue" stroke="midnightblue" points="320.1,-65.06 330.43,-67.4 323.81,-59.13 320.1,-65.06"/>
</g>
<!-- Node8&#45;&gt;Node11 -->
<g id="edge12" class="edge">
<title>Node8&#45;&gt;Node11</title>
<path fill="none" stroke="midnightblue" d="M406.41,-64.23C438.93,-53.71 479.94,-40.45 510.47,-30.58"/>
<polygon fill="midnightblue" stroke="midnightblue" points="405.05,-60.99 396.61,-67.4 407.21,-67.65 405.05,-60.99"/>
</g>
</g>
</svg>
