<?xml version="1.0" encoding="UTF-8" standalone="no"?>
<!DOCTYPE svg PUBLIC "-//W3C//DTD SVG 1.1//EN"
 "http://www.w3.org/Graphics/SVG/1.1/DTD/svg11.dtd">
<!-- Generated by graphviz version 2.43.0 (0)
 -->
<!-- Title: examples/example&#45;server&#45;lib/wayland_app.h Pages: 1 -->
<svg width="990pt" height="240pt"
 viewBox="0.00 0.00 989.50 240.00" xmlns="http://www.w3.org/2000/svg" xmlns:xlink="http://www.w3.org/1999/xlink">
<g id="graph0" class="graph" transform="scale(1 1) rotate(0) translate(4 236)">
<title>examples/example&#45;server&#45;lib/wayland_app.h</title>
<polygon fill="white" stroke="transparent" points="-4,4 -4,-236 985.5,-236 985.5,4 -4,4"/>
<!-- Node1 -->
<g id="node1" class="node">
<title>Node1</title>
<g id="a_node1"><a xlink:title=" ">
<polygon fill="#bfbfbf" stroke="black" points="546.5,-201.5 546.5,-231.5 691.5,-231.5 691.5,-201.5 546.5,-201.5"/>
<text text-anchor="start" x="554.5" y="-219.5" font-family="Arial" font-size="10.00">examples/example&#45;server</text>
<text text-anchor="middle" x="619" y="-208.5" font-family="Arial" font-size="10.00">&#45;lib/wayland_app.h</text>
</a>
</g>
</g>
<!-- Node2 -->
<g id="node2" class="node">
<title>Node2</title>
<g id="a_node2"><a xlink:href="wayland__surface_8h.html" target="_top" xlink:title=" ">
<polygon fill="white" stroke="black" points="308.5,-134.5 308.5,-164.5 453.5,-164.5 453.5,-134.5 308.5,-134.5"/>
<text text-anchor="start" x="316.5" y="-152.5" font-family="Arial" font-size="10.00">examples/example&#45;server</text>
<text text-anchor="middle" x="381" y="-141.5" font-family="Arial" font-size="10.00">&#45;lib/wayland_surface.h</text>
</a>
</g>
</g>
<!-- Node1&#45;&gt;Node2 -->
<g id="edge1" class="edge">
<title>Node1&#45;&gt;Node2</title>
<path fill="none" stroke="midnightblue" d="M557.54,-198.71C518.81,-188.14 469.37,-174.63 432.67,-164.61"/>
<polygon fill="midnightblue" stroke="midnightblue" points="557.08,-202.22 567.65,-201.48 558.93,-195.46 557.08,-202.22"/>
</g>
<!-- Node6 -->
<g id="node6" class="node">
<title>Node6</title>
<g id="a_node6"><a xlink:href="miregl_8cpp.html" target="_top" xlink:title=" ">
<polygon fill="white" stroke="black" points="517,-0.5 517,-30.5 637,-30.5 637,-0.5 517,-0.5"/>
<text text-anchor="start" x="525" y="-18.5" font-family="Arial" font-size="10.00">examples/miral&#45;shell</text>
<text text-anchor="middle" x="577" y="-7.5" font-family="Arial" font-size="10.00">/spinner/miregl.cpp</text>
</a>
</g>
</g>
<!-- Node1&#45;&gt;Node6 -->
<g id="edge9" class="edge">
<title>Node1&#45;&gt;Node6</title>
<path fill="none" stroke="midnightblue" d="M626.07,-191.65C633.72,-161.43 642.74,-108.29 626,-67 620.08,-52.4 607.68,-39.69 596.84,-30.67"/>
<polygon fill="midnightblue" stroke="midnightblue" points="622.68,-190.77 623.46,-201.33 629.44,-192.59 622.68,-190.77"/>
</g>
<!-- Node7 -->
<g id="node7" class="node">
<title>Node7</title>
<g id="a_node7"><a xlink:href="decoration__provider_8cpp.html" target="_top" xlink:title=" ">
<polygon fill="white" stroke="black" points="0,-67.5 0,-97.5 152,-97.5 152,-67.5 0,-67.5"/>
<text text-anchor="start" x="8" y="-85.5" font-family="Arial" font-size="10.00">examples/example&#45;server</text>
<text text-anchor="middle" x="76" y="-74.5" font-family="Arial" font-size="10.00">&#45;lib/decoration_provider.cpp</text>
</a>
</g>
</g>
<!-- Node1&#45;&gt;Node7 -->
<g id="edge10" class="edge">
<title>Node1&#45;&gt;Node7</title>
<path fill="none" stroke="midnightblue" d="M536.16,-206.9C471.02,-199.07 378.33,-185.55 299,-165 229.37,-146.96 151.05,-115.65 108.24,-97.54"/>
<polygon fill="midnightblue" stroke="midnightblue" points="536.03,-210.41 546.37,-208.11 536.85,-203.46 536.03,-210.41"/>
</g>
<!-- Node8 -->
<g id="node8" class="node">
<title>Node8</title>
<g id="a_node8"><a xlink:href="sw__splash_8cpp.html" target="_top" xlink:title=" ">
<polygon fill="white" stroke="black" points="471.5,-67.5 471.5,-97.5 616.5,-97.5 616.5,-67.5 471.5,-67.5"/>
<text text-anchor="start" x="479.5" y="-85.5" font-family="Arial" font-size="10.00">examples/example&#45;server</text>
<text text-anchor="middle" x="544" y="-74.5" font-family="Arial" font-size="10.00">&#45;lib/sw_splash.cpp</text>
</a>
</g>
</g>
<!-- Node1&#45;&gt;Node8 -->
<g id="edge11" class="edge">
<title>Node1&#45;&gt;Node8</title>
<path fill="none" stroke="midnightblue" d="M605.92,-192.48C590.35,-165.07 564.84,-120.19 551.97,-97.52"/>
<polygon fill="midnightblue" stroke="midnightblue" points="602.99,-194.41 610.97,-201.37 609.08,-190.95 602.99,-194.41"/>
</g>
<!-- Node10 -->
<g id="node10" class="node">
<title>Node10</title>
<g id="a_node10"><a xlink:href="wayland__app_8cpp.html" target="_top" xlink:title=" ">
<polygon fill="white" stroke="black" points="673.5,-134.5 673.5,-164.5 818.5,-164.5 818.5,-134.5 673.5,-134.5"/>
<text text-anchor="start" x="681.5" y="-152.5" font-family="Arial" font-size="10.00">examples/example&#45;server</text>
<text text-anchor="middle" x="746" y="-141.5" font-family="Arial" font-size="10.00">&#45;lib/wayland_app.cpp</text>
</a>
</g>
</g>
<!-- Node1&#45;&gt;Node10 -->
<g id="edge12" class="edge">
<title>Node1&#45;&gt;Node10</title>
<path fill="none" stroke="midnightblue" d="M655.7,-196.71C675.73,-186.46 700.12,-173.98 718.5,-164.58"/>
<polygon fill="midnightblue" stroke="midnightblue" points="653.86,-193.72 646.56,-201.4 657.05,-199.96 653.86,-193.72"/>
</g>
<!-- Node11 -->
<g id="node11" class="node">
<title>Node11</title>
<g id="a_node11"><a xlink:href="wayland__shm_8cpp.html" target="_top" xlink:title=" ">
<polygon fill="white" stroke="black" points="836.5,-134.5 836.5,-164.5 981.5,-164.5 981.5,-134.5 836.5,-134.5"/>
<text text-anchor="start" x="844.5" y="-152.5" font-family="Arial" font-size="10.00">examples/example&#45;server</text>
<text text-anchor="middle" x="909" y="-141.5" font-family="Arial" font-size="10.00">&#45;lib/wayland_shm.cpp</text>
</a>
</g>
</g>
<!-- Node1&#45;&gt;Node11 -->
<g id="edge13" class="edge">
<title>Node1&#45;&gt;Node11</title>
<path fill="none" stroke="midnightblue" d="M691.49,-199.25C739.02,-188.6 800.56,-174.81 846.04,-164.61"/>
<polygon fill="midnightblue" stroke="midnightblue" points="690.56,-195.87 681.57,-201.48 692.09,-202.7 690.56,-195.87"/>
</g>
<!-- Node3 -->
<g id="node3" class="node">
<title>Node3</title>
<g id="a_node3"><a xlink:href="miregl_8h.html" target="_top" xlink:title=" ">
<polygon fill="white" stroke="black" points="170,-67.5 170,-97.5 290,-97.5 290,-67.5 170,-67.5"/>
<text text-anchor="start" x="178" y="-85.5" font-family="Arial" font-size="10.00">examples/miral&#45;shell</text>
<text text-anchor="middle" x="230" y="-74.5" font-family="Arial" font-size="10.00">/spinner/miregl.h</text>
</a>
</g>
</g>
<!-- Node2&#45;&gt;Node3 -->
<g id="edge2" class="edge">
<title>Node2&#45;&gt;Node3</title>
<path fill="none" stroke="midnightblue" d="M338.97,-130.41C314.86,-120.03 285.05,-107.2 262.7,-97.58"/>
<polygon fill="midnightblue" stroke="midnightblue" points="337.67,-133.66 348.24,-134.4 340.43,-127.23 337.67,-133.66"/>
</g>
<!-- Node2&#45;&gt;Node7 -->
<g id="edge6" class="edge">
<title>Node2&#45;&gt;Node7</title>
<path fill="none" stroke="midnightblue" d="M305.37,-132.38C255.2,-121.69 190.01,-107.8 141.95,-97.55"/>
<polygon fill="midnightblue" stroke="midnightblue" points="304.69,-135.81 315.2,-134.48 306.14,-128.97 304.69,-135.81"/>
</g>
<!-- Node2&#45;&gt;Node8 -->
<g id="edge7" class="edge">
<title>Node2&#45;&gt;Node8</title>
<path fill="none" stroke="midnightblue" d="M425.68,-130.68C451.83,-120.26 484.37,-107.28 508.7,-97.58"/>
<polygon fill="midnightblue" stroke="midnightblue" points="424.36,-127.44 416.37,-134.4 426.95,-133.94 424.36,-127.44"/>
</g>
<!-- Node9 -->
<g id="node9" class="node">
<title>Node9</title>
<g id="a_node9"><a xlink:href="wayland__surface_8cpp.html" target="_top" xlink:title=" ">
<polygon fill="white" stroke="black" points="308.5,-67.5 308.5,-97.5 453.5,-97.5 453.5,-67.5 308.5,-67.5"/>
<text text-anchor="start" x="316.5" y="-85.5" font-family="Arial" font-size="10.00">examples/example&#45;server</text>
<text text-anchor="middle" x="381" y="-74.5" font-family="Arial" font-size="10.00">&#45;lib/wayland_surface.cpp</text>
</a>
</g>
</g>
<!-- Node2&#45;&gt;Node9 -->
<g id="edge8" class="edge">
<title>Node2&#45;&gt;Node9</title>
<path fill="none" stroke="midnightblue" d="M381,-124.11C381,-115.15 381,-105.32 381,-97.58"/>
<polygon fill="midnightblue" stroke="midnightblue" points="377.5,-124.4 381,-134.4 384.5,-124.4 377.5,-124.4"/>
</g>
<!-- Node4 -->
<g id="node4" class="node">
<title>Node4</title>
<g id="a_node4"><a xlink:href="eglapp_8cpp.html" target="_top" xlink:title=" ">
<polygon fill="white" stroke="black" points="95,-0.5 95,-30.5 215,-30.5 215,-0.5 95,-0.5"/>
<text text-anchor="start" x="103" y="-18.5" font-family="Arial" font-size="10.00">examples/miral&#45;shell</text>
<text text-anchor="middle" x="155" y="-7.5" font-family="Arial" font-size="10.00">/spinner/eglapp.cpp</text>
</a>
</g>
</g>
<!-- Node3&#45;&gt;Node4 -->
<g id="edge3" class="edge">
<title>Node3&#45;&gt;Node4</title>
<path fill="none" stroke="midnightblue" d="M205.88,-60.6C194.56,-50.78 181.36,-39.34 171.24,-30.58"/>
<polygon fill="midnightblue" stroke="midnightblue" points="203.88,-63.49 213.73,-67.4 208.46,-58.2 203.88,-63.49"/>
</g>
<!-- Node5 -->
<g id="node5" class="node">
<title>Node5</title>
<g id="a_node5"><a xlink:href="eglspinner_8cpp.html" target="_top" xlink:title=" ">
<polygon fill="white" stroke="black" points="233.5,-0.5 233.5,-30.5 362.5,-30.5 362.5,-0.5 233.5,-0.5"/>
<text text-anchor="start" x="241.5" y="-18.5" font-family="Arial" font-size="10.00">examples/miral&#45;shell</text>
<text text-anchor="middle" x="298" y="-7.5" font-family="Arial" font-size="10.00">/spinner/eglspinner.cpp</text>
</a>
</g>
</g>
<!-- Node3&#45;&gt;Node5 -->
<g id="edge4" class="edge">
<title>Node3&#45;&gt;Node5</title>
<path fill="none" stroke="midnightblue" d="M252.17,-60.31C262.37,-50.56 274.19,-39.26 283.27,-30.58"/>
<polygon fill="midnightblue" stroke="midnightblue" points="249.57,-57.96 244.75,-67.4 254.4,-63.02 249.57,-57.96"/>
</g>
<!-- Node3&#45;&gt;Node6 -->
<g id="edge5" class="edge">
<title>Node3&#45;&gt;Node6</title>
<path fill="none" stroke="midnightblue" d="M300.02,-66.83C380.7,-51.11 462.82,-36.42 516.99,-26.91"/>
<polygon fill="midnightblue" stroke="midnightblue" points="299.33,-63.4 290.19,-68.75 300.68,-70.27 299.33,-63.4"/>
</g>
</g>
</svg>
