<?xml version="1.0" encoding="UTF-8" standalone="no"?>
<!DOCTYPE svg PUBLIC "-//W3C//DTD SVG 1.1//EN"
 "http://www.w3.org/Graphics/SVG/1.1/DTD/svg11.dtd">
<!-- Generated by graphviz version 2.43.0 (0)
 -->
<!-- Title: examples/example&#45;server&#45;lib/wayland_surface.h Pages: 1 -->
<svg width="587pt" height="207pt"
 viewBox="0.00 0.00 586.50 207.00" xmlns="http://www.w3.org/2000/svg" xmlns:xlink="http://www.w3.org/1999/xlink">
<g id="graph0" class="graph" transform="scale(1 1) rotate(0) translate(4 203)">
<title>examples/example&#45;server&#45;lib/wayland_surface.h</title>
<polygon fill="white" stroke="transparent" points="-4,4 -4,-203 582.5,-203 582.5,4 -4,4"/>
<!-- Node1 -->
<g id="node1" class="node">
<title>Node1</title>
<g id="a_node1"><a xlink:title=" ">
<polygon fill="#bfbfbf" stroke="black" points="246.5,-168.5 246.5,-198.5 391.5,-198.5 391.5,-168.5 246.5,-168.5"/>
<text text-anchor="start" x="254.5" y="-186.5" font-family="Arial" font-size="10.00">examples/example&#45;server</text>
<text text-anchor="middle" x="319" y="-175.5" font-family="Arial" font-size="10.00">&#45;lib/wayland_surface.h</text>
</a>
</g>
</g>
<!-- Node2 -->
<g id="node2" class="node">
<title>Node2</title>
<g id="a_node2"><a xlink:href="wayland__app_8h.html" target="_top" xlink:title=" ">
<polygon fill="white" stroke="black" points="184,-112.5 184,-131.5 274,-131.5 274,-112.5 184,-112.5"/>
<text text-anchor="middle" x="229" y="-119.5" font-family="Arial" font-size="10.00">wayland_app.h</text>
</a>
</g>
</g>
<!-- Node1&#45;&gt;Node2 -->
<g id="edge1" class="edge">
<title>Node1&#45;&gt;Node2</title>
<path fill="none" stroke="midnightblue" d="M297.67,-168.4C283.51,-159.04 264.99,-146.79 250.75,-137.38"/>
<polygon fill="midnightblue" stroke="midnightblue" points="252.37,-134.25 242.1,-131.66 248.51,-140.09 252.37,-134.25"/>
</g>
<!-- Node6 -->
<g id="node6" class="node">
<title>Node6</title>
<g id="a_node6"><a xlink:title=" ">
<polygon fill="white" stroke="#bfbfbf" points="286.5,-56.5 286.5,-75.5 351.5,-75.5 351.5,-56.5 286.5,-56.5"/>
<text text-anchor="middle" x="319" y="-63.5" font-family="Arial" font-size="10.00">functional</text>
</a>
</g>
</g>
<!-- Node1&#45;&gt;Node6 -->
<g id="edge15" class="edge">
<title>Node1&#45;&gt;Node6</title>
<path fill="none" stroke="midnightblue" d="M319,-168.34C319,-147.62 319,-109.02 319,-85.9"/>
<polygon fill="midnightblue" stroke="midnightblue" points="322.5,-85.67 319,-75.67 315.5,-85.67 322.5,-85.67"/>
</g>
<!-- Node8 -->
<g id="node8" class="node">
<title>Node8</title>
<g id="a_node8"><a xlink:href="size_8h.html" target="_top" xlink:title=" ">
<polygon fill="white" stroke="black" points="397.5,-112.5 397.5,-131.5 512.5,-131.5 512.5,-112.5 397.5,-112.5"/>
<text text-anchor="middle" x="455" y="-119.5" font-family="Arial" font-size="10.00">mir/geometry/size.h</text>
</a>
</g>
</g>
<!-- Node1&#45;&gt;Node8 -->
<g id="edge7" class="edge">
<title>Node1&#45;&gt;Node8</title>
<path fill="none" stroke="midnightblue" d="M351.23,-168.4C373.84,-158.51 403.84,-145.38 425.76,-135.79"/>
<polygon fill="midnightblue" stroke="midnightblue" points="427.45,-138.87 435.21,-131.66 424.65,-132.46 427.45,-138.87"/>
</g>
<!-- Node3 -->
<g id="node3" class="node">
<title>Node3</title>
<g id="a_node3"><a xlink:title=" ">
<polygon fill="white" stroke="#bfbfbf" points="0,-56.5 0,-75.5 98,-75.5 98,-56.5 0,-56.5"/>
<text text-anchor="middle" x="49" y="-63.5" font-family="Arial" font-size="10.00">wayland&#45;client.h</text>
</a>
</g>
</g>
<!-- Node2&#45;&gt;Node3 -->
<g id="edge2" class="edge">
<title>Node2&#45;&gt;Node3</title>
<path fill="none" stroke="midnightblue" d="M200.48,-112.44C169.93,-103.28 121.29,-88.69 87.4,-78.52"/>
<polygon fill="midnightblue" stroke="midnightblue" points="87.97,-75.04 77.39,-75.52 85.96,-81.74 87.97,-75.04"/>
</g>
<!-- Node4 -->
<g id="node4" class="node">
<title>Node4</title>
<g id="a_node4"><a xlink:title=" ">
<polygon fill="white" stroke="#bfbfbf" points="116,-56.5 116,-75.5 174,-75.5 174,-56.5 116,-56.5"/>
<text text-anchor="middle" x="145" y="-63.5" font-family="Arial" font-size="10.00">memory</text>
</a>
</g>
</g>
<!-- Node2&#45;&gt;Node4 -->
<g id="edge3" class="edge">
<title>Node2&#45;&gt;Node4</title>
<path fill="none" stroke="midnightblue" d="M215.5,-112.32C202.4,-103.9 182.29,-90.97 166.89,-81.07"/>
<polygon fill="midnightblue" stroke="midnightblue" points="168.77,-78.12 158.46,-75.65 164.98,-84.01 168.77,-78.12"/>
</g>
<!-- Node5 -->
<g id="node5" class="node">
<title>Node5</title>
<g id="a_node5"><a xlink:title=" ">
<polygon fill="white" stroke="#bfbfbf" points="192,-56.5 192,-75.5 230,-75.5 230,-56.5 192,-56.5"/>
<text text-anchor="middle" x="211" y="-63.5" font-family="Arial" font-size="10.00">map</text>
</a>
</g>
</g>
<!-- Node2&#45;&gt;Node5 -->
<g id="edge4" class="edge">
<title>Node2&#45;&gt;Node5</title>
<path fill="none" stroke="midnightblue" d="M226.03,-112.08C223.62,-104.85 220.14,-94.41 217.13,-85.4"/>
<polygon fill="midnightblue" stroke="midnightblue" points="220.4,-84.13 213.92,-75.75 213.76,-86.34 220.4,-84.13"/>
</g>
<!-- Node2&#45;&gt;Node6 -->
<g id="edge5" class="edge">
<title>Node2&#45;&gt;Node6</title>
<path fill="none" stroke="midnightblue" d="M243.46,-112.32C257.5,-103.9 279.05,-90.97 295.54,-81.07"/>
<polygon fill="midnightblue" stroke="midnightblue" points="297.8,-83.8 304.58,-75.65 294.2,-77.8 297.8,-83.8"/>
</g>
<!-- Node7 -->
<g id="node7" class="node">
<title>Node7</title>
<g id="a_node7"><a xlink:title=" ">
<polygon fill="white" stroke="#bfbfbf" points="267,-0.5 267,-19.5 317,-19.5 317,-0.5 267,-0.5"/>
<text text-anchor="middle" x="292" y="-7.5" font-family="Arial" font-size="10.00">cstdint</text>
</a>
</g>
</g>
<!-- Node2&#45;&gt;Node7 -->
<g id="edge6" class="edge">
<title>Node2&#45;&gt;Node7</title>
<path fill="none" stroke="midnightblue" d="M233.94,-112.37C244.29,-94.3 268.42,-52.18 282.09,-28.31"/>
<polygon fill="midnightblue" stroke="midnightblue" points="285.15,-30.01 287.08,-19.59 279.07,-26.53 285.15,-30.01"/>
</g>
<!-- Node9 -->
<g id="node9" class="node">
<title>Node9</title>
<g id="a_node9"><a xlink:href="forward_8h.html" target="_top" xlink:title=" ">
<polygon fill="white" stroke="black" points="515.5,-0.5 515.5,-19.5 578.5,-19.5 578.5,-0.5 515.5,-0.5"/>
<text text-anchor="middle" x="547" y="-7.5" font-family="Arial" font-size="10.00">forward.h</text>
</a>
</g>
</g>
<!-- Node8&#45;&gt;Node9 -->
<g id="edge8" class="edge">
<title>Node8&#45;&gt;Node9</title>
<path fill="none" stroke="midnightblue" d="M484.21,-112.38C502.31,-105.49 524.43,-93.96 537,-76 546.31,-62.7 548.36,-44.12 548.35,-30.23"/>
<polygon fill="midnightblue" stroke="midnightblue" points="551.83,-29.75 547.96,-19.89 544.84,-30.01 551.83,-29.75"/>
</g>
<!-- Node10 -->
<g id="node10" class="node">
<title>Node10</title>
<g id="a_node10"><a xlink:href="dimensions_8h.html" target="_top" xlink:title=" ">
<polygon fill="white" stroke="black" points="370,-56.5 370,-75.5 452,-75.5 452,-56.5 370,-56.5"/>
<text text-anchor="middle" x="411" y="-63.5" font-family="Arial" font-size="10.00">dimensions.h</text>
</a>
</g>
</g>
<!-- Node8&#45;&gt;Node10 -->
<g id="edge9" class="edge">
<title>Node8&#45;&gt;Node10</title>
<path fill="none" stroke="midnightblue" d="M447.73,-112.08C441.46,-104.38 432.21,-93.03 424.57,-83.65"/>
<polygon fill="midnightblue" stroke="midnightblue" points="427.16,-81.29 418.13,-75.75 421.73,-85.71 427.16,-81.29"/>
</g>
<!-- Node13 -->
<g id="node13" class="node">
<title>Node13</title>
<g id="a_node13"><a xlink:title=" ">
<polygon fill="white" stroke="#bfbfbf" points="470.5,-56.5 470.5,-75.5 527.5,-75.5 527.5,-56.5 470.5,-56.5"/>
<text text-anchor="middle" x="499" y="-63.5" font-family="Arial" font-size="10.00">ostream</text>
</a>
</g>
</g>
<!-- Node8&#45;&gt;Node13 -->
<g id="edge14" class="edge">
<title>Node8&#45;&gt;Node13</title>
<path fill="none" stroke="midnightblue" d="M462.27,-112.08C468.54,-104.38 477.79,-93.03 485.43,-83.65"/>
<polygon fill="midnightblue" stroke="midnightblue" points="488.27,-85.71 491.87,-75.75 482.84,-81.29 488.27,-85.71"/>
</g>
<!-- Node10&#45;&gt;Node7 -->
<g id="edge13" class="edge">
<title>Node10&#45;&gt;Node7</title>
<path fill="none" stroke="midnightblue" d="M392.14,-56.44C372.73,-47.64 342.27,-33.81 320.04,-23.72"/>
<polygon fill="midnightblue" stroke="midnightblue" points="321.32,-20.46 310.77,-19.52 318.43,-26.84 321.32,-20.46"/>
</g>
<!-- Node10&#45;&gt;Node9 -->
<g id="edge10" class="edge">
<title>Node10&#45;&gt;Node9</title>
<path fill="none" stroke="midnightblue" d="M432.55,-56.44C455.03,-47.52 490.49,-33.44 515.98,-23.32"/>
<polygon fill="midnightblue" stroke="midnightblue" points="517.55,-26.46 525.55,-19.52 514.97,-19.95 517.55,-26.46"/>
</g>
<!-- Node11 -->
<g id="node11" class="node">
<title>Node11</title>
<g id="a_node11"><a xlink:title=" ">
<polygon fill="white" stroke="#bfbfbf" points="440,-0.5 440,-19.5 488,-19.5 488,-0.5 440,-0.5"/>
<text text-anchor="middle" x="464" y="-7.5" font-family="Arial" font-size="10.00">iosfwd</text>
</a>
</g>
</g>
<!-- Node10&#45;&gt;Node11 -->
<g id="edge11" class="edge">
<title>Node10&#45;&gt;Node11</title>
<path fill="none" stroke="midnightblue" d="M419.75,-56.08C427.47,-48.22 438.9,-36.57 448.22,-27.08"/>
<polygon fill="midnightblue" stroke="midnightblue" points="450.9,-29.34 455.41,-19.75 445.91,-24.44 450.9,-29.34"/>
</g>
<!-- Node12 -->
<g id="node12" class="node">
<title>Node12</title>
<g id="a_node12"><a xlink:title=" ">
<polygon fill="white" stroke="#bfbfbf" points="352.5,-0.5 352.5,-19.5 421.5,-19.5 421.5,-0.5 352.5,-0.5"/>
<text text-anchor="middle" x="387" y="-7.5" font-family="Arial" font-size="10.00">type_traits</text>
</a>
</g>
</g>
<!-- Node10&#45;&gt;Node12 -->
<g id="edge12" class="edge">
<title>Node10&#45;&gt;Node12</title>
<path fill="none" stroke="midnightblue" d="M407.04,-56.08C403.79,-48.77 399.08,-38.18 395.05,-29.1"/>
<polygon fill="midnightblue" stroke="midnightblue" points="398.15,-27.47 390.89,-19.75 391.75,-30.31 398.15,-27.47"/>
</g>
</g>
</svg>
