<?xml version="1.0" encoding="UTF-8" standalone="no"?>
<!DOCTYPE svg PUBLIC "-//W3C//DTD SVG 1.1//EN"
 "http://www.w3.org/Graphics/SVG/1.1/DTD/svg11.dtd">
<!-- Generated by graphviz version 2.38.0 (20140413.2041)
 -->
<!-- Title: include/client/mir/client/window_id.h Pages: 1 -->
<svg width="1942pt" height="497pt"
 viewBox="0.00 0.00 1942.00 497.00" xmlns="http://www.w3.org/2000/svg" xmlns:xlink="http://www.w3.org/1999/xlink">
<g id="graph0" class="graph" transform="scale(1 1) rotate(0) translate(4 493)">
<title>include/client/mir/client/window_id.h</title>
<polygon fill="white" stroke="none" points="-4,4 -4,-493 1938,-493 1938,4 -4,4"/>
<!-- Node0 -->
<g id="node1" class="node"><title>Node0</title>
<polygon fill="#bfbfbf" stroke="black" points="1038,-458.5 1038,-488.5 1136,-488.5 1136,-458.5 1038,-458.5"/>
<text text-anchor="start" x="1046" y="-476.5" font-family="Arial" font-size="10.00">include/client/mir</text>
<text text-anchor="middle" x="1087" y="-465.5" font-family="Arial" font-size="10.00">/client/window_id.h</text>
</g>
<!-- Node1 -->
<g id="node2" class="node"><title>Node1</title>
<g id="a_node2"><a xlink:href="mir__window_8h.html" target="_top" xlink:title="mir_toolkit/mir_window.h">
<polygon fill="white" stroke="black" points="156.5,-402.5 156.5,-421.5 279.5,-421.5 279.5,-402.5 156.5,-402.5"/>
<text text-anchor="middle" x="218" y="-409.5" font-family="Arial" font-size="10.00">mir_toolkit/mir_window.h</text>
</a>
</g>
</g>
<!-- Node0&#45;&gt;Node1 -->
<g id="edge1" class="edge"><title>Node0&#45;&gt;Node1</title>
<path fill="none" stroke="midnightblue" d="M1037.79,-469.131C891.944,-459.145 461.519,-429.674 289.864,-417.92"/>
<polygon fill="midnightblue" stroke="midnightblue" points="289.888,-414.414 279.672,-417.223 289.41,-421.398 289.888,-414.414"/>
</g>
<!-- Node27 -->
<g id="node28" class="node"><title>Node27</title>
<g id="a_node28"><a xlink:href="mir__window__id_8h.html" target="_top" xlink:title="mir_toolkit/mir_window_id.h">
<polygon fill="white" stroke="black" points="1798,-341 1798,-360 1934,-360 1934,-341 1798,-341"/>
<text text-anchor="middle" x="1866" y="-348" font-family="Arial" font-size="10.00">mir_toolkit/mir_window_id.h</text>
</a>
</g>
</g>
<!-- Node0&#45;&gt;Node27 -->
<g id="edge55" class="edge"><title>Node0&#45;&gt;Node27</title>
<path fill="none" stroke="midnightblue" d="M1086.32,-458.276C1086.4,-441.883 1089.35,-415.476 1106,-402 1164.65,-354.547 1709.05,-374.584 1784,-366 1793.59,-364.901 1803.76,-363.389 1813.56,-361.753"/>
<polygon fill="midnightblue" stroke="midnightblue" points="1814.33,-365.171 1823.58,-360.016 1813.13,-358.274 1814.33,-365.171"/>
</g>
<!-- Node28 -->
<g id="node29" class="node"><title>Node28</title>
<polygon fill="white" stroke="#bfbfbf" points="1115,-402.5 1115,-421.5 1167,-421.5 1167,-402.5 1115,-402.5"/>
<text text-anchor="middle" x="1141" y="-409.5" font-family="Arial" font-size="10.00">memory</text>
</g>
<!-- Node0&#45;&gt;Node28 -->
<g id="edge58" class="edge"><title>Node0&#45;&gt;Node28</title>
<path fill="none" stroke="midnightblue" d="M1099.8,-458.399C1107.72,-449.664 1117.94,-438.413 1126.21,-429.296"/>
<polygon fill="midnightblue" stroke="midnightblue" points="1129.01,-431.415 1133.14,-421.658 1123.83,-426.711 1129.01,-431.415"/>
</g>
<!-- Node2 -->
<g id="node3" class="node"><title>Node2</title>
<g id="a_node3"><a xlink:href="mir__native__buffer_8h.html" target="_top" xlink:title="mir_toolkit/mir_native\l_buffer.h">
<polygon fill="white" stroke="black" points="246,-335.5 246,-365.5 354,-365.5 354,-335.5 246,-335.5"/>
<text text-anchor="start" x="254" y="-353.5" font-family="Arial" font-size="10.00">mir_toolkit/mir_native</text>
<text text-anchor="middle" x="300" y="-342.5" font-family="Arial" font-size="10.00">_buffer.h</text>
</a>
</g>
</g>
<!-- Node1&#45;&gt;Node2 -->
<g id="edge2" class="edge"><title>Node1&#45;&gt;Node2</title>
<path fill="none" stroke="midnightblue" d="M229.749,-402.475C240.854,-394.417 257.935,-382.023 272.473,-371.474"/>
<polygon fill="midnightblue" stroke="midnightblue" points="274.636,-374.229 280.674,-365.523 270.525,-368.563 274.636,-374.229"/>
</g>
<!-- Node3 -->
<g id="node4" class="node"><title>Node3</title>
<g id="a_node4"><a xlink:href="client__types_8h.html" target="_top" xlink:title="mir_toolkit/client\l_types.h">
<polygon fill="white" stroke="black" points="174,-268.5 174,-298.5 262,-298.5 262,-268.5 174,-268.5"/>
<text text-anchor="start" x="182" y="-286.5" font-family="Arial" font-size="10.00">mir_toolkit/client</text>
<text text-anchor="middle" x="218" y="-275.5" font-family="Arial" font-size="10.00">_types.h</text>
</a>
</g>
</g>
<!-- Node1&#45;&gt;Node3 -->
<g id="edge3" class="edge"><title>Node1&#45;&gt;Node3</title>
<path fill="none" stroke="midnightblue" d="M218,-402.305C218,-383.298 218,-337.47 218,-308.9"/>
<polygon fill="midnightblue" stroke="midnightblue" points="221.5,-308.888 218,-298.888 214.5,-308.888 221.5,-308.888"/>
</g>
<!-- Node7 -->
<g id="node8" class="node"><title>Node7</title>
<g id="a_node8"><a xlink:href="common_8h.html" target="_top" xlink:title="mir_toolkit/common.h">
<polygon fill="white" stroke="black" points="66,-134.5 66,-153.5 176,-153.5 176,-134.5 66,-134.5"/>
<text text-anchor="middle" x="121" y="-141.5" font-family="Arial" font-size="10.00">mir_toolkit/common.h</text>
</a>
</g>
</g>
<!-- Node1&#45;&gt;Node7 -->
<g id="edge48" class="edge"><title>Node1&#45;&gt;Node7</title>
<path fill="none" stroke="midnightblue" d="M156.379,-408.611C125.502,-403.905 90.6018,-392.5 71,-366 23.7875,-302.172 82.0916,-201.629 108.885,-161.93"/>
<polygon fill="midnightblue" stroke="midnightblue" points="111.834,-163.819 114.651,-153.605 106.08,-159.833 111.834,-163.819"/>
</g>
<!-- Node8 -->
<g id="node9" class="node"><title>Node8</title>
<g id="a_node9"><a xlink:href="deprecations_8h.html" target="_top" xlink:title="mir_toolkit/deprecations.h">
<polygon fill="white" stroke="black" points="179,-62 179,-81 307,-81 307,-62 179,-62"/>
<text text-anchor="middle" x="243" y="-69" font-family="Arial" font-size="10.00">mir_toolkit/deprecations.h</text>
</a>
</g>
</g>
<!-- Node1&#45;&gt;Node8 -->
<g id="edge53" class="edge"><title>Node1&#45;&gt;Node8</title>
<path fill="none" stroke="midnightblue" d="M156.155,-404.892C123.027,-399.115 82.985,-387.873 53,-366 18.0927,-340.536 0,-327.708 0,-284.5 0,-284.5 0,-284.5 0,-215.5 0,-171.222 3.57605,-152.041 37,-123 73.1553,-91.5858 125.751,-79.0573 168.747,-74.3329"/>
<polygon fill="midnightblue" stroke="midnightblue" points="169.277,-77.7979 178.889,-73.3414 168.596,-70.8311 169.277,-77.7979"/>
</g>
<!-- Node11 -->
<g id="node12" class="node"><title>Node11</title>
<polygon fill="white" stroke="#bfbfbf" points="1743,-0.5 1743,-19.5 1799,-19.5 1799,-0.5 1743,-0.5"/>
<text text-anchor="middle" x="1771" y="-7.5" font-family="Arial" font-size="10.00">stdbool.h</text>
</g>
<!-- Node1&#45;&gt;Node11 -->
<g id="edge54" class="edge"><title>Node1&#45;&gt;Node11</title>
<path fill="none" stroke="midnightblue" d="M279.589,-405.527C526.576,-382.865 1444.43,-291.595 1704,-165 1751.58,-141.797 1772.01,-135.149 1794,-87 1802.82,-67.6846 1792.7,-44.0989 1783.24,-28.3743"/>
<polygon fill="midnightblue" stroke="midnightblue" points="1785.99,-26.1865 1777.61,-19.7078 1780.12,-30.0003 1785.99,-26.1865"/>
</g>
<!-- Node26 -->
<g id="node27" class="node"><title>Node26</title>
<g id="a_node27"><a xlink:href="mir__cursor__configuration_8h.html" target="_top" xlink:title="mir_toolkit/mir_cursor\l_configuration.h">
<polygon fill="white" stroke="black" points="80,-335.5 80,-365.5 190,-365.5 190,-335.5 80,-335.5"/>
<text text-anchor="start" x="88" y="-353.5" font-family="Arial" font-size="10.00">mir_toolkit/mir_cursor</text>
<text text-anchor="middle" x="135" y="-342.5" font-family="Arial" font-size="10.00">_configuration.h</text>
</a>
</g>
</g>
<!-- Node1&#45;&gt;Node26 -->
<g id="edge49" class="edge"><title>Node1&#45;&gt;Node26</title>
<path fill="none" stroke="midnightblue" d="M206.108,-402.475C194.867,-394.417 177.578,-382.023 162.863,-371.474"/>
<polygon fill="midnightblue" stroke="midnightblue" points="164.728,-368.505 154.561,-365.523 160.65,-374.194 164.728,-368.505"/>
</g>
<!-- Node4 -->
<g id="node5" class="node"><title>Node4</title>
<g id="a_node5"><a xlink:href="toolkit_2events_2event_8h.html" target="_top" xlink:title="mir_toolkit/events\l/event.h">
<polygon fill="white" stroke="black" points="862,-201.5 862,-231.5 954,-231.5 954,-201.5 862,-201.5"/>
<text text-anchor="start" x="870" y="-219.5" font-family="Arial" font-size="10.00">mir_toolkit/events</text>
<text text-anchor="middle" x="908" y="-208.5" font-family="Arial" font-size="10.00">/event.h</text>
</a>
</g>
</g>
<!-- Node3&#45;&gt;Node4 -->
<g id="edge4" class="edge"><title>Node3&#45;&gt;Node4</title>
<path fill="none" stroke="midnightblue" d="M262.212,-278.335C382.951,-266.961 718.162,-235.383 851.876,-222.787"/>
<polygon fill="midnightblue" stroke="midnightblue" points="852.281,-226.264 861.909,-221.842 851.625,-219.295 852.281,-226.264"/>
</g>
<!-- Node5 -->
<g id="node6" class="node"><title>Node5</title>
<polygon fill="white" stroke="#bfbfbf" points="1643.5,-134.5 1643.5,-153.5 1694.5,-153.5 1694.5,-134.5 1643.5,-134.5"/>
<text text-anchor="middle" x="1669" y="-141.5" font-family="Arial" font-size="10.00">stddef.h</text>
</g>
<!-- Node3&#45;&gt;Node5 -->
<g id="edge47" class="edge"><title>Node3&#45;&gt;Node5</title>
<path fill="none" stroke="midnightblue" d="M262.227,-281.499C472.179,-276.345 1369.07,-249.669 1634,-165 1638.83,-163.457 1643.73,-161.185 1648.27,-158.722"/>
<polygon fill="midnightblue" stroke="midnightblue" points="1650.14,-161.68 1656.96,-153.566 1646.57,-155.661 1650.14,-161.68"/>
</g>
<!-- Node3&#45;&gt;Node7 -->
<g id="edge45" class="edge"><title>Node3&#45;&gt;Node7</title>
<path fill="none" stroke="midnightblue" d="M207.985,-268.303C189.98,-242.781 152.228,-189.267 132.923,-161.901"/>
<polygon fill="midnightblue" stroke="midnightblue" points="135.762,-159.854 127.138,-153.701 130.042,-163.89 135.762,-159.854"/>
</g>
<!-- Node3&#45;&gt;Node8 -->
<g id="edge46" class="edge"><title>Node3&#45;&gt;Node8</title>
<path fill="none" stroke="midnightblue" d="M216.82,-268.226C214.849,-240.09 212.1,-175.63 223,-123 225.331,-111.743 229.978,-99.7558 234.205,-90.2862"/>
<polygon fill="midnightblue" stroke="midnightblue" points="237.412,-91.6915 238.499,-81.1526 231.077,-88.7132 237.412,-91.6915"/>
</g>
<!-- Node4&#45;&gt;Node5 -->
<g id="edge5" class="edge"><title>Node4&#45;&gt;Node5</title>
<path fill="none" stroke="midnightblue" d="M954.2,-213.487C1103.82,-206.8 1569.2,-184.641 1634,-165 1638.85,-163.529 1643.76,-161.29 1648.3,-158.834"/>
<polygon fill="midnightblue" stroke="midnightblue" points="1650.18,-161.789 1656.99,-153.667 1646.6,-155.773 1650.18,-161.789"/>
</g>
<!-- Node6 -->
<g id="node7" class="node"><title>Node6</title>
<polygon fill="white" stroke="#bfbfbf" points="1206.5,-0.5 1206.5,-19.5 1255.5,-19.5 1255.5,-0.5 1206.5,-0.5"/>
<text text-anchor="middle" x="1231" y="-7.5" font-family="Arial" font-size="10.00">stdint.h</text>
</g>
<!-- Node4&#45;&gt;Node6 -->
<g id="edge6" class="edge"><title>Node4&#45;&gt;Node6</title>
<path fill="none" stroke="midnightblue" d="M954.051,-213.841C1064.78,-209.379 1338.81,-195.351 1366,-165 1378.46,-151.096 1377.95,-137.342 1366,-123 1309.31,-54.9506 1226.69,-155.049 1170,-87 1161.18,-76.4142 1163.79,-68.2987 1170,-56 1176.81,-42.5199 1189.77,-32.083 1202,-24.6696"/>
<polygon fill="midnightblue" stroke="midnightblue" points="1204.07,-27.5214 1211.09,-19.5896 1200.66,-21.4099 1204.07,-27.5214"/>
</g>
<!-- Node4&#45;&gt;Node7 -->
<g id="edge7" class="edge"><title>Node4&#45;&gt;Node7</title>
<path fill="none" stroke="midnightblue" d="M861.7,-214.005C750.923,-210.011 462.026,-197.127 223,-165 205.375,-162.631 186.205,-159.122 169.29,-155.702"/>
<polygon fill="midnightblue" stroke="midnightblue" points="169.585,-152.189 159.084,-153.595 168.17,-159.045 169.585,-152.189"/>
</g>
<!-- Node4&#45;&gt;Node8 -->
<g id="edge9" class="edge"><title>Node4&#45;&gt;Node8</title>
<path fill="none" stroke="midnightblue" d="M861.857,-213.438C771.986,-208.792 577.103,-195.44 518,-165 495.354,-153.337 501.149,-135.582 479,-123 429.427,-94.8389 365.877,-82.3473 317.215,-76.8237"/>
<polygon fill="midnightblue" stroke="midnightblue" points="317.381,-73.3218 307.067,-75.7477 316.642,-80.2827 317.381,-73.3218"/>
</g>
<!-- Node9 -->
<g id="node10" class="node"><title>Node9</title>
<g id="a_node10"><a xlink:href="input__event_8h.html" target="_top" xlink:title="mir_toolkit/events\l/input/input_event.h">
<polygon fill="white" stroke="black" points="1413.5,-129 1413.5,-159 1514.5,-159 1514.5,-129 1413.5,-129"/>
<text text-anchor="start" x="1421.5" y="-147" font-family="Arial" font-size="10.00">mir_toolkit/events</text>
<text text-anchor="middle" x="1464" y="-136" font-family="Arial" font-size="10.00">/input/input_event.h</text>
</a>
</g>
</g>
<!-- Node4&#45;&gt;Node9 -->
<g id="edge10" class="edge"><title>Node4&#45;&gt;Node9</title>
<path fill="none" stroke="midnightblue" d="M954.328,-213.512C1040.82,-209.312 1231.91,-197.127 1390,-165 1394.6,-164.065 1399.34,-162.937 1404.11,-161.699"/>
<polygon fill="midnightblue" stroke="midnightblue" points="1405.14,-165.045 1413.86,-159.031 1403.29,-158.293 1405.14,-165.045"/>
</g>
<!-- Node16 -->
<g id="node17" class="node"><title>Node16</title>
<g id="a_node17"><a xlink:href="resize__event_8h.html" target="_top" xlink:title="mir_toolkit/events\l/resize_event.h">
<polygon fill="white" stroke="black" points="527,-129 527,-159 619,-159 619,-129 527,-129"/>
<text text-anchor="start" x="535" y="-147" font-family="Arial" font-size="10.00">mir_toolkit/events</text>
<text text-anchor="middle" x="573" y="-136" font-family="Arial" font-size="10.00">/resize_event.h</text>
</a>
</g>
</g>
<!-- Node4&#45;&gt;Node16 -->
<g id="edge21" class="edge"><title>Node4&#45;&gt;Node16</title>
<path fill="none" stroke="midnightblue" d="M861.573,-210.424C803.802,-203.027 702.933,-187.652 619,-165 615.861,-164.153 612.647,-163.205 609.444,-162.195"/>
<polygon fill="midnightblue" stroke="midnightblue" points="610.547,-158.873 599.953,-159.016 608.323,-165.511 610.547,-158.873"/>
</g>
<!-- Node17 -->
<g id="node18" class="node"><title>Node17</title>
<g id="a_node18"><a xlink:href="surface__event_8h.html" target="_top" xlink:title="mir_toolkit/events\l/surface_event.h">
<polygon fill="white" stroke="black" points="747,-129 747,-159 839,-159 839,-129 747,-129"/>
<text text-anchor="start" x="755" y="-147" font-family="Arial" font-size="10.00">mir_toolkit/events</text>
<text text-anchor="middle" x="793" y="-136" font-family="Arial" font-size="10.00">/surface_event.h</text>
</a>
</g>
</g>
<!-- Node4&#45;&gt;Node17 -->
<g id="edge23" class="edge"><title>Node4&#45;&gt;Node17</title>
<path fill="none" stroke="midnightblue" d="M879.478,-201.403C861.008,-190.932 837.276,-176.51 819.269,-164.87"/>
<polygon fill="midnightblue" stroke="midnightblue" points="820.714,-161.632 810.433,-159.073 816.874,-167.485 820.714,-161.632"/>
</g>
<!-- Node18 -->
<g id="node19" class="node"><title>Node18</title>
<g id="a_node19"><a xlink:href="window__event_8h.html" target="_top" xlink:title="mir_toolkit/events\l/window_event.h">
<polygon fill="white" stroke="black" points="637,-129 637,-159 729,-159 729,-129 637,-129"/>
<text text-anchor="start" x="645" y="-147" font-family="Arial" font-size="10.00">mir_toolkit/events</text>
<text text-anchor="middle" x="683" y="-136" font-family="Arial" font-size="10.00">/window_event.h</text>
</a>
</g>
</g>
<!-- Node4&#45;&gt;Node18 -->
<g id="edge26" class="edge"><title>Node4&#45;&gt;Node18</title>
<path fill="none" stroke="midnightblue" d="M861.873,-204.627C825.38,-194.819 773.587,-179.715 729,-165 726.552,-164.192 724.048,-163.348 721.534,-162.482"/>
<polygon fill="midnightblue" stroke="midnightblue" points="722.466,-159.1 711.871,-159.071 720.136,-165.7 722.466,-159.1"/>
</g>
<!-- Node19 -->
<g id="node20" class="node"><title>Node19</title>
<g id="a_node20"><a xlink:href="orientation__event_8h.html" target="_top" xlink:title="mir_toolkit/events\l/orientation_event.h">
<polygon fill="white" stroke="black" points="857.5,-129 857.5,-159 958.5,-159 958.5,-129 857.5,-129"/>
<text text-anchor="start" x="865.5" y="-147" font-family="Arial" font-size="10.00">mir_toolkit/events</text>
<text text-anchor="middle" x="908" y="-136" font-family="Arial" font-size="10.00">/orientation_event.h</text>
</a>
</g>
</g>
<!-- Node4&#45;&gt;Node19 -->
<g id="edge28" class="edge"><title>Node4&#45;&gt;Node19</title>
<path fill="none" stroke="midnightblue" d="M902.451,-201.233C901.249,-192.06 900.949,-179.905 901.551,-169.244"/>
<polygon fill="midnightblue" stroke="midnightblue" points="905.041,-169.52 902.454,-159.246 898.069,-168.89 905.041,-169.52"/>
</g>
<!-- Node20 -->
<g id="node21" class="node"><title>Node20</title>
<g id="a_node21"><a xlink:href="prompt__session__event_8h.html" target="_top" xlink:title="mir_toolkit/events\l/prompt_session_event.h">
<polygon fill="white" stroke="black" points="976.5,-129 976.5,-159 1101.5,-159 1101.5,-129 976.5,-129"/>
<text text-anchor="start" x="984.5" y="-147" font-family="Arial" font-size="10.00">mir_toolkit/events</text>
<text text-anchor="middle" x="1039" y="-136" font-family="Arial" font-size="10.00">/prompt_session_event.h</text>
</a>
</g>
</g>
<!-- Node4&#45;&gt;Node20 -->
<g id="edge30" class="edge"><title>Node4&#45;&gt;Node20</title>
<path fill="none" stroke="midnightblue" d="M928.669,-201.403C947.398,-190.548 975.291,-175.446 998.407,-163.6"/>
<polygon fill="midnightblue" stroke="midnightblue" points="999.994,-166.72 1007.33,-159.073 996.826,-160.478 999.994,-166.72"/>
</g>
<!-- Node21 -->
<g id="node22" class="node"><title>Node21</title>
<g id="a_node22"><a xlink:href="keymap__event_8h.html" target="_top" xlink:title="mir_toolkit/events\l/keymap_event.h">
<polygon fill="white" stroke="black" points="1533,-129 1533,-159 1625,-159 1625,-129 1533,-129"/>
<text text-anchor="start" x="1541" y="-147" font-family="Arial" font-size="10.00">mir_toolkit/events</text>
<text text-anchor="middle" x="1579" y="-136" font-family="Arial" font-size="10.00">/keymap_event.h</text>
</a>
</g>
</g>
<!-- Node4&#45;&gt;Node21 -->
<g id="edge32" class="edge"><title>Node4&#45;&gt;Node21</title>
<path fill="none" stroke="midnightblue" d="M954.049,-215.884C1056.32,-215.691 1309.02,-210.043 1515,-165 1518.75,-164.181 1522.58,-163.169 1526.43,-162.038"/>
<polygon fill="midnightblue" stroke="midnightblue" points="1527.49,-165.374 1535.97,-159.027 1525.38,-158.699 1527.49,-165.374"/>
</g>
<!-- Node22 -->
<g id="node23" class="node"><title>Node22</title>
<g id="a_node23"><a xlink:href="input__configuration__event_8h.html" target="_top" xlink:title="mir_toolkit/events\l/input_configuration\l_event.h">
<polygon fill="white" stroke="black" points="232.5,-123.5 232.5,-164.5 333.5,-164.5 333.5,-123.5 232.5,-123.5"/>
<text text-anchor="start" x="240.5" y="-152.5" font-family="Arial" font-size="10.00">mir_toolkit/events</text>
<text text-anchor="start" x="240.5" y="-141.5" font-family="Arial" font-size="10.00">/input_configuration</text>
<text text-anchor="middle" x="283" y="-130.5" font-family="Arial" font-size="10.00">_event.h</text>
</a>
</g>
</g>
<!-- Node4&#45;&gt;Node22 -->
<g id="edge35" class="edge"><title>Node4&#45;&gt;Node22</title>
<path fill="none" stroke="midnightblue" d="M861.973,-215.16C765.197,-213.686 534.368,-206.045 340.828,-166.599"/>
<polygon fill="midnightblue" stroke="midnightblue" points="341.27,-163.116 330.768,-164.512 339.849,-169.97 341.27,-163.116"/>
</g>
<!-- Node23 -->
<g id="node24" class="node"><title>Node23</title>
<g id="a_node24"><a xlink:href="surface__output__event_8h.html" target="_top" xlink:title="mir_toolkit/events\l/surface_output_event.h">
<polygon fill="white" stroke="black" points="351.5,-129 351.5,-159 470.5,-159 470.5,-129 351.5,-129"/>
<text text-anchor="start" x="359.5" y="-147" font-family="Arial" font-size="10.00">mir_toolkit/events</text>
<text text-anchor="middle" x="411" y="-136" font-family="Arial" font-size="10.00">/surface_output_event.h</text>
</a>
</g>
</g>
<!-- Node4&#45;&gt;Node23 -->
<g id="edge38" class="edge"><title>Node4&#45;&gt;Node23</title>
<path fill="none" stroke="midnightblue" d="M861.91,-212.606C782.328,-206.796 614.864,-191.907 476,-165 470.825,-163.997 465.48,-162.826 460.174,-161.562"/>
<polygon fill="midnightblue" stroke="midnightblue" points="460.626,-158.068 450.076,-159.039 458.929,-164.859 460.626,-158.068"/>
</g>
<!-- Node24 -->
<g id="node25" class="node"><title>Node24</title>
<g id="a_node25"><a xlink:href="window__output__event_8h.html" target="_top" xlink:title="mir_toolkit/events\l/window_output_event.h">
<polygon fill="white" stroke="black" points="1119.5,-129 1119.5,-159 1238.5,-159 1238.5,-129 1119.5,-129"/>
<text text-anchor="start" x="1127.5" y="-147" font-family="Arial" font-size="10.00">mir_toolkit/events</text>
<text text-anchor="middle" x="1179" y="-136" font-family="Arial" font-size="10.00">/window_output_event.h</text>
</a>
</g>
</g>
<!-- Node4&#45;&gt;Node24 -->
<g id="edge41" class="edge"><title>Node4&#45;&gt;Node24</title>
<path fill="none" stroke="midnightblue" d="M954.188,-202.823C993.606,-192.961 1051.53,-178.694 1102,-165 1105.77,-163.978 1109.64,-162.902 1113.56,-161.802"/>
<polygon fill="midnightblue" stroke="midnightblue" points="1114.69,-165.122 1123.36,-159.031 1112.78,-158.386 1114.69,-165.122"/>
</g>
<!-- Node25 -->
<g id="node26" class="node"><title>Node25</title>
<g id="a_node26"><a xlink:href="input__device__state__event_8h.html" target="_top" xlink:title="mir_toolkit/events\l/input_device_state\l_event.h">
<polygon fill="white" stroke="black" points="1257,-123.5 1257,-164.5 1357,-164.5 1357,-123.5 1257,-123.5"/>
<text text-anchor="start" x="1265" y="-152.5" font-family="Arial" font-size="10.00">mir_toolkit/events</text>
<text text-anchor="start" x="1265" y="-141.5" font-family="Arial" font-size="10.00">/input_device_state</text>
<text text-anchor="middle" x="1307" y="-130.5" font-family="Arial" font-size="10.00">_event.h</text>
</a>
</g>
</g>
<!-- Node4&#45;&gt;Node25 -->
<g id="edge43" class="edge"><title>Node4&#45;&gt;Node25</title>
<path fill="none" stroke="midnightblue" d="M954.177,-210.665C1018.66,-203.789 1138.65,-189.253 1239,-165 1241.62,-164.367 1244.29,-163.667 1246.98,-162.92"/>
<polygon fill="midnightblue" stroke="midnightblue" points="1248.17,-166.218 1256.78,-160.043 1246.2,-159.502 1248.17,-166.218"/>
</g>
<!-- Node7&#45;&gt;Node8 -->
<g id="edge8" class="edge"><title>Node7&#45;&gt;Node8</title>
<path fill="none" stroke="midnightblue" d="M135.96,-134.355C156.722,-122.357 194.498,-100.528 219.168,-86.2719"/>
<polygon fill="midnightblue" stroke="midnightblue" points="221.011,-89.2492 227.918,-81.2154 217.509,-83.1884 221.011,-89.2492"/>
</g>
<!-- Node9&#45;&gt;Node4 -->
<g id="edge11" class="edge"><title>Node9&#45;&gt;Node4</title>
<path fill="none" stroke="midnightblue" d="M1431.54,-159.031C1423.9,-161.304 1415.75,-163.425 1408,-165 1249.35,-197.241 1057.47,-209.398 964.177,-213.556"/>
<polygon fill="midnightblue" stroke="midnightblue" points="963.948,-210.063 954.108,-213.991 964.25,-217.056 963.948,-210.063"/>
</g>
<!-- Node9&#45;&gt;Node6 -->
<g id="edge14" class="edge"><title>Node9&#45;&gt;Node6</title>
<path fill="none" stroke="midnightblue" d="M1422.75,-128.964C1395.75,-118.984 1360.2,-104.31 1331,-87 1311.95,-75.7098 1309.58,-69.4634 1292,-56 1278.51,-45.67 1263.12,-34.3152 1251.17,-25.5959"/>
<polygon fill="midnightblue" stroke="midnightblue" points="1252.93,-22.5539 1242.79,-19.5027 1248.82,-28.215 1252.93,-22.5539"/>
</g>
<!-- Node10 -->
<g id="node11" class="node"><title>Node10</title>
<g id="a_node11"><a xlink:href="mir__input__device__types_8h.html" target="_top" xlink:title="mir_toolkit/mir_input\l_device_types.h">
<polygon fill="white" stroke="black" points="1179,-56.5 1179,-86.5 1283,-86.5 1283,-56.5 1179,-56.5"/>
<text text-anchor="start" x="1187" y="-74.5" font-family="Arial" font-size="10.00">mir_toolkit/mir_input</text>
<text text-anchor="middle" x="1231" y="-63.5" font-family="Arial" font-size="10.00">_device_types.h</text>
</a>
</g>
</g>
<!-- Node9&#45;&gt;Node10 -->
<g id="edge12" class="edge"><title>Node9&#45;&gt;Node10</title>
<path fill="none" stroke="midnightblue" d="M1418.55,-128.975C1411.99,-126.963 1405.33,-124.924 1399,-123 1362.03,-111.756 1320.44,-99.2534 1287.89,-89.5012"/>
<polygon fill="midnightblue" stroke="midnightblue" points="1288.68,-86.0835 1278.09,-86.5674 1286.67,-92.7892 1288.68,-86.0835"/>
</g>
<!-- Node9&#45;&gt;Node11 -->
<g id="edge15" class="edge"><title>Node9&#45;&gt;Node11</title>
<path fill="none" stroke="midnightblue" d="M1496.56,-128.999C1556.67,-103.157 1684.13,-48.3516 1741.7,-23.5997"/>
<polygon fill="midnightblue" stroke="midnightblue" points="1743.15,-26.7826 1750.96,-19.6171 1740.39,-20.3518 1743.15,-26.7826"/>
</g>
<!-- Node12 -->
<g id="node13" class="node"><title>Node12</title>
<g id="a_node13"><a xlink:href="touch__event_8h.html" target="_top" xlink:title="mir_toolkit/events\l/input/touch_event.h">
<polygon fill="white" stroke="black" points="1477,-56.5 1477,-86.5 1581,-86.5 1581,-56.5 1477,-56.5"/>
<text text-anchor="start" x="1485" y="-74.5" font-family="Arial" font-size="10.00">mir_toolkit/events</text>
<text text-anchor="middle" x="1529" y="-63.5" font-family="Arial" font-size="10.00">/input/touch_event.h</text>
</a>
</g>
</g>
<!-- Node9&#45;&gt;Node12 -->
<g id="edge16" class="edge"><title>Node9&#45;&gt;Node12</title>
<path fill="none" stroke="midnightblue" d="M1477.15,-128.733C1486.32,-118.795 1498.7,-105.359 1509.07,-94.1119"/>
<polygon fill="midnightblue" stroke="midnightblue" points="1511.66,-96.47 1515.87,-86.7455 1506.51,-91.7251 1511.66,-96.47"/>
</g>
<!-- Node13 -->
<g id="node14" class="node"><title>Node13</title>
<g id="a_node14"><a xlink:href="keyboard__event_8h.html" target="_top" xlink:title="mir_toolkit/events\l/input/keyboard_event.h">
<polygon fill="white" stroke="black" points="1339.5,-56.5 1339.5,-86.5 1458.5,-86.5 1458.5,-56.5 1339.5,-56.5"/>
<text text-anchor="start" x="1347.5" y="-74.5" font-family="Arial" font-size="10.00">mir_toolkit/events</text>
<text text-anchor="middle" x="1399" y="-63.5" font-family="Arial" font-size="10.00">/input/keyboard_event.h</text>
</a>
</g>
</g>
<!-- Node9&#45;&gt;Node13 -->
<g id="edge17" class="edge"><title>Node9&#45;&gt;Node13</title>
<path fill="none" stroke="midnightblue" d="M1450.85,-128.733C1441.68,-118.795 1429.3,-105.359 1418.93,-94.1119"/>
<polygon fill="midnightblue" stroke="midnightblue" points="1421.49,-91.7251 1412.13,-86.7455 1416.34,-96.47 1421.49,-91.7251"/>
</g>
<!-- Node15 -->
<g id="node16" class="node"><title>Node15</title>
<g id="a_node16"><a xlink:href="pointer__event_8h.html" target="_top" xlink:title="mir_toolkit/events\l/input/pointer_event.h">
<polygon fill="white" stroke="black" points="1675.5,-56.5 1675.5,-86.5 1784.5,-86.5 1784.5,-56.5 1675.5,-56.5"/>
<text text-anchor="start" x="1683.5" y="-74.5" font-family="Arial" font-size="10.00">mir_toolkit/events</text>
<text text-anchor="middle" x="1730" y="-63.5" font-family="Arial" font-size="10.00">/input/pointer_event.h</text>
</a>
</g>
</g>
<!-- Node9&#45;&gt;Node15 -->
<g id="edge19" class="edge"><title>Node9&#45;&gt;Node15</title>
<path fill="none" stroke="midnightblue" d="M1504.53,-128.995C1511.01,-126.897 1517.67,-124.827 1524,-123 1571.06,-109.412 1624.84,-96.3089 1665.65,-86.8563"/>
<polygon fill="midnightblue" stroke="midnightblue" points="1666.51,-90.2501 1675.46,-84.5943 1664.93,-83.4288 1666.51,-90.2501"/>
</g>
<!-- Node10&#45;&gt;Node6 -->
<g id="edge13" class="edge"><title>Node10&#45;&gt;Node6</title>
<path fill="none" stroke="midnightblue" d="M1231,-56.3993C1231,-48.4664 1231,-38.458 1231,-29.8583"/>
<polygon fill="midnightblue" stroke="midnightblue" points="1234.5,-29.6577 1231,-19.6578 1227.5,-29.6578 1234.5,-29.6577"/>
</g>
<!-- Node14 -->
<g id="node15" class="node"><title>Node14</title>
<polygon fill="white" stroke="#bfbfbf" points="1456,-0.5 1456,-19.5 1590,-19.5 1590,-0.5 1456,-0.5"/>
<text text-anchor="middle" x="1523" y="-7.5" font-family="Arial" font-size="10.00">xkbcommon/xkbcommon.h</text>
</g>
<!-- Node13&#45;&gt;Node14 -->
<g id="edge18" class="edge"><title>Node13&#45;&gt;Node14</title>
<path fill="none" stroke="midnightblue" d="M1428.39,-56.3993C1448.82,-46.5945 1475.86,-33.6194 1495.8,-24.052"/>
<polygon fill="midnightblue" stroke="midnightblue" points="1497.46,-27.1395 1504.96,-19.6578 1494.43,-20.8284 1497.46,-27.1395"/>
</g>
<!-- Node15&#45;&gt;Node11 -->
<g id="edge20" class="edge"><title>Node15&#45;&gt;Node11</title>
<path fill="none" stroke="midnightblue" d="M1739.72,-56.3993C1745.55,-47.9315 1753.02,-37.0991 1759.19,-28.1393"/>
<polygon fill="midnightblue" stroke="midnightblue" points="1762.24,-29.8781 1765.03,-19.6578 1756.48,-25.9062 1762.24,-29.8781"/>
</g>
<!-- Node16&#45;&gt;Node4 -->
<g id="edge22" class="edge"><title>Node16&#45;&gt;Node4</title>
<path fill="none" stroke="midnightblue" d="M617.672,-159.016C624.146,-161.208 630.722,-163.306 637,-165 710.403,-184.81 796.759,-199.055 852.001,-207.265"/>
<polygon fill="midnightblue" stroke="midnightblue" points="851.541,-210.734 861.944,-208.727 852.56,-203.809 851.541,-210.734"/>
</g>
<!-- Node17&#45;&gt;Node4 -->
<g id="edge24" class="edge"><title>Node17&#45;&gt;Node4</title>
<path fill="none" stroke="midnightblue" d="M821.479,-159.073C839.941,-169.538 863.673,-183.959 881.689,-195.603"/>
<polygon fill="midnightblue" stroke="midnightblue" points="880.249,-198.844 890.531,-201.403 884.089,-192.991 880.249,-198.844"/>
</g>
<!-- Node17&#45;&gt;Node8 -->
<g id="edge25" class="edge"><title>Node17&#45;&gt;Node8</title>
<path fill="none" stroke="midnightblue" d="M758.476,-128.98C751.772,-126.677 744.735,-124.543 738,-123 591.21,-89.3695 414.795,-78.1238 317.173,-74.3714"/>
<polygon fill="midnightblue" stroke="midnightblue" points="317.232,-70.8712 307.11,-74.0005 316.974,-77.8665 317.232,-70.8712"/>
</g>
<!-- Node18&#45;&gt;Node4 -->
<g id="edge27" class="edge"><title>Node18&#45;&gt;Node4</title>
<path fill="none" stroke="midnightblue" d="M729.056,-158.859C735.114,-160.976 741.211,-163.089 747,-165 783.144,-176.928 824.022,-189.112 855.621,-198.523"/>
<polygon fill="midnightblue" stroke="midnightblue" points="854.953,-201.976 865.536,-201.478 856.952,-195.268 854.953,-201.976"/>
</g>
<!-- Node19&#45;&gt;Node4 -->
<g id="edge29" class="edge"><title>Node19&#45;&gt;Node4</title>
<path fill="none" stroke="midnightblue" d="M913.546,-159.246C914.749,-168.414 915.051,-180.568 914.45,-191.232"/>
<polygon fill="midnightblue" stroke="midnightblue" points="910.96,-190.959 913.549,-201.233 917.932,-191.588 910.96,-190.959"/>
</g>
<!-- Node20&#45;&gt;Node4 -->
<g id="edge31" class="edge"><title>Node20&#45;&gt;Node4</title>
<path fill="none" stroke="midnightblue" d="M1018.37,-159.073C999.658,-169.922 971.768,-185.023 948.645,-196.873"/>
<polygon fill="midnightblue" stroke="midnightblue" points="947.054,-193.755 939.721,-201.403 950.222,-199.997 947.054,-193.755"/>
</g>
<!-- Node21&#45;&gt;Node4 -->
<g id="edge33" class="edge"><title>Node21&#45;&gt;Node4</title>
<path fill="none" stroke="midnightblue" d="M1553.62,-159.027C1547,-161.359 1539.85,-163.502 1533,-165 1327.36,-209.968 1075.16,-215.672 964.463,-215.883"/>
<polygon fill="midnightblue" stroke="midnightblue" points="964.197,-212.383 954.198,-215.887 964.2,-219.383 964.197,-212.383"/>
</g>
<!-- Node21&#45;&gt;Node14 -->
<g id="edge34" class="edge"><title>Node21&#45;&gt;Node14</title>
<path fill="none" stroke="midnightblue" d="M1585.63,-128.824C1593.01,-110.803 1602.39,-79.2431 1590,-56 1582.45,-41.8339 1568.24,-31.3348 1554.84,-24.0576"/>
<polygon fill="midnightblue" stroke="midnightblue" points="1556.3,-20.8724 1545.79,-19.5289 1553.17,-27.1329 1556.3,-20.8724"/>
</g>
<!-- Node22&#45;&gt;Node4 -->
<g id="edge36" class="edge"><title>Node22&#45;&gt;Node4</title>
<path fill="none" stroke="midnightblue" d="M333.8,-160.551C339.576,-162.266 345.391,-163.817 351,-165 531.583,-203.095 750.491,-212.481 851.766,-214.774"/>
<polygon fill="midnightblue" stroke="midnightblue" points="851.705,-218.273 861.777,-214.985 851.854,-211.274 851.705,-218.273"/>
</g>
<!-- Node22&#45;&gt;Node8 -->
<g id="edge37" class="edge"><title>Node22&#45;&gt;Node8</title>
<path fill="none" stroke="midnightblue" d="M271.858,-123.362C265.902,-112.864 258.632,-100.052 252.879,-89.9124"/>
<polygon fill="midnightblue" stroke="midnightblue" points="255.9,-88.1438 247.921,-81.1734 249.812,-91.5982 255.9,-88.1438"/>
</g>
<!-- Node23&#45;&gt;Node4 -->
<g id="edge39" class="edge"><title>Node23&#45;&gt;Node4</title>
<path fill="none" stroke="midnightblue" d="M467.781,-159.039C476.557,-161.255 485.508,-163.354 494,-165 620.817,-189.573 771.487,-204.122 851.573,-210.887"/>
<polygon fill="midnightblue" stroke="midnightblue" points="851.668,-214.407 861.925,-211.751 852.251,-207.431 851.668,-214.407"/>
</g>
<!-- Node23&#45;&gt;Node8 -->
<g id="edge40" class="edge"><title>Node23&#45;&gt;Node8</title>
<path fill="none" stroke="midnightblue" d="M377.406,-128.903C346.78,-116.05 301.966,-97.2449 272.643,-84.9395"/>
<polygon fill="midnightblue" stroke="midnightblue" points="273.911,-81.6758 263.335,-81.0336 271.202,-88.1305 273.911,-81.6758"/>
</g>
<!-- Node24&#45;&gt;Node4 -->
<g id="edge42" class="edge"><title>Node24&#45;&gt;Node4</title>
<path fill="none" stroke="midnightblue" d="M1141.15,-159.031C1134.15,-161.082 1126.89,-163.131 1120,-165 1067.6,-179.218 1007.16,-194.054 964.157,-203.936"/>
<polygon fill="midnightblue" stroke="midnightblue" points="963.135,-200.579 954.163,-206.215 964.691,-207.404 963.135,-200.579"/>
</g>
<!-- Node25&#45;&gt;Node4 -->
<g id="edge44" class="edge"><title>Node25&#45;&gt;Node4</title>
<path fill="none" stroke="midnightblue" d="M1258.9,-164.531C1258.26,-164.691 1257.63,-164.848 1257,-165 1155.62,-189.502 1034.19,-204.087 964.479,-210.875"/>
<polygon fill="midnightblue" stroke="midnightblue" points="963.784,-207.425 954.161,-211.859 964.449,-214.393 963.784,-207.425"/>
</g>
<!-- Node26&#45;&gt;Node3 -->
<g id="edge51" class="edge"><title>Node26&#45;&gt;Node3</title>
<path fill="none" stroke="midnightblue" d="M153.01,-335.396C164.43,-326.452 179.389,-314.737 192.076,-304.802"/>
<polygon fill="midnightblue" stroke="midnightblue" points="194.31,-307.498 200.025,-298.577 189.994,-301.987 194.31,-307.498"/>
</g>
<!-- Node26&#45;&gt;Node7 -->
<g id="edge50" class="edge"><title>Node26&#45;&gt;Node7</title>
<path fill="none" stroke="midnightblue" d="M134.038,-335.444C131.581,-299.558 125.075,-204.525 122.292,-163.876"/>
<polygon fill="midnightblue" stroke="midnightblue" points="125.773,-163.48 121.598,-153.742 118.79,-163.958 125.773,-163.48"/>
</g>
<!-- Node26&#45;&gt;Node8 -->
<g id="edge52" class="edge"><title>Node26&#45;&gt;Node8</title>
<path fill="none" stroke="midnightblue" d="M121.773,-335.299C87.9791,-297.27 4.70512,-191.386 57,-123 71.2021,-104.428 125.325,-91.0837 171.552,-82.7941"/>
<polygon fill="midnightblue" stroke="midnightblue" points="172.328,-86.2117 181.581,-81.0509 171.13,-79.3151 172.328,-86.2117"/>
</g>
<!-- Node27&#45;&gt;Node3 -->
<g id="edge56" class="edge"><title>Node27&#45;&gt;Node3</title>
<path fill="none" stroke="midnightblue" d="M1797.81,-346.81C1525.34,-336.064 517.733,-296.322 272.208,-286.638"/>
<polygon fill="midnightblue" stroke="midnightblue" points="272.234,-283.136 262.104,-286.24 271.958,-290.131 272.234,-283.136"/>
</g>
<!-- Node27&#45;&gt;Node11 -->
<g id="edge57" class="edge"><title>Node27&#45;&gt;Node11</title>
<path fill="none" stroke="midnightblue" d="M1864.34,-340.89C1860.43,-319.888 1851,-264.32 1851,-217.5 1851,-217.5 1851,-217.5 1851,-143 1851,-102.889 1849.03,-89.5178 1827,-56 1818.84,-43.5822 1806.14,-32.9756 1794.9,-25.1842"/>
<polygon fill="midnightblue" stroke="midnightblue" points="1796.6,-22.1103 1786.31,-19.5584 1792.76,-27.9658 1796.6,-22.1103"/>
</g>
</g>
</svg>
