<?xml version="1.0" encoding="UTF-8" standalone="no"?>
<!DOCTYPE svg PUBLIC "-//W3C//DTD SVG 1.1//EN"
 "http://www.w3.org/Graphics/SVG/1.1/DTD/svg11.dtd">
<!-- Generated by graphviz version 2.38.0 (20140413.2041)
 -->
<!-- Title: include/miral/miral/window_manager_tools.h Pages: 1 -->
<svg width="934pt" height="273pt"
 viewBox="0.00 0.00 933.50 273.00" xmlns="http://www.w3.org/2000/svg" xmlns:xlink="http://www.w3.org/1999/xlink">
<g id="graph0" class="graph" transform="scale(1 1) rotate(0) translate(4 269)">
<title>include/miral/miral/window_manager_tools.h</title>
<polygon fill="white" stroke="none" points="-4,4 -4,-269 929.5,-269 929.5,4 -4,4"/>
<!-- Node25 -->
<g id="node1" class="node"><title>Node25</title>
<polygon fill="#bfbfbf" stroke="black" points="267,-234.5 267,-264.5 395,-264.5 395,-234.5 267,-234.5"/>
<text text-anchor="start" x="275" y="-252.5" font-family="Arial" font-size="10.00">include/miral/miral</text>
<text text-anchor="middle" x="331" y="-241.5" font-family="Arial" font-size="10.00">/window_manager_tools.h</text>
</g>
<!-- Node26 -->
<g id="node2" class="node"><title>Node26</title>
<g id="a_node2"><a xlink:href="kiosk__window__manager_8cpp.html" target="_top" xlink:title="examples/miral&#45;kiosk\l/kiosk_window_manager.cpp">
<polygon fill="white" stroke="black" points="497,-11.5 497,-41.5 637,-41.5 637,-11.5 497,-11.5"/>
<text text-anchor="start" x="505" y="-29.5" font-family="Arial" font-size="10.00">examples/miral&#45;kiosk</text>
<text text-anchor="middle" x="567" y="-18.5" font-family="Arial" font-size="10.00">/kiosk_window_manager.cpp</text>
</a>
</g>
</g>
<!-- Node25&#45;&gt;Node26 -->
<g id="edge1" class="edge"><title>Node25&#45;&gt;Node26</title>
<path fill="none" stroke="midnightblue" d="M404.36,-231.54C456.714,-215.223 523.551,-184.839 557,-131 574.244,-103.246 572.103,-62.9987 569.368,-41.7987"/>
<polygon fill="midnightblue" stroke="midnightblue" points="403.333,-228.194 394.764,-234.425 405.349,-234.897 403.333,-228.194"/>
</g>
<!-- Node27 -->
<g id="node3" class="node"><title>Node27</title>
<g id="a_node3"><a xlink:href="decoration__provider_8h.html" target="_top" xlink:title="examples/miral&#45;shell\l/decoration_provider.h">
<polygon fill="white" stroke="black" points="48,-167.5 48,-197.5 160,-197.5 160,-167.5 48,-167.5"/>
<text text-anchor="start" x="56" y="-185.5" font-family="Arial" font-size="10.00">examples/miral&#45;shell</text>
<text text-anchor="middle" x="104" y="-174.5" font-family="Arial" font-size="10.00">/decoration_provider.h</text>
</a>
</g>
</g>
<!-- Node25&#45;&gt;Node27 -->
<g id="edge2" class="edge"><title>Node25&#45;&gt;Node27</title>
<path fill="none" stroke="midnightblue" d="M272.381,-231.715C235.441,-221.137 188.286,-207.635 153.28,-197.611"/>
<polygon fill="midnightblue" stroke="midnightblue" points="271.447,-235.088 282.024,-234.476 273.374,-228.358 271.447,-235.088"/>
</g>
<!-- Node29 -->
<g id="node5" class="node"><title>Node29</title>
<g id="a_node5"><a xlink:href="floating__window__manager_8cpp.html" target="_top" xlink:title="examples/miral&#45;shell\l/floating_window_manager.cpp">
<polygon fill="white" stroke="black" points="113.5,-11.5 113.5,-41.5 262.5,-41.5 262.5,-11.5 113.5,-11.5"/>
<text text-anchor="start" x="121.5" y="-29.5" font-family="Arial" font-size="10.00">examples/miral&#45;shell</text>
<text text-anchor="middle" x="188" y="-18.5" font-family="Arial" font-size="10.00">/floating_window_manager.cpp</text>
</a>
</g>
</g>
<!-- Node25&#45;&gt;Node29 -->
<g id="edge5" class="edge"><title>Node25&#45;&gt;Node29</title>
<path fill="none" stroke="midnightblue" d="M300.544,-228.37C271.653,-207.559 229.423,-172.346 207,-131 191.323,-102.093 188.299,-62.6677 187.884,-41.8066"/>
<polygon fill="midnightblue" stroke="midnightblue" points="298.854,-231.46 309.045,-234.357 302.884,-225.737 298.854,-231.46"/>
</g>
<!-- Node30 -->
<g id="node6" class="node"><title>Node30</title>
<g id="a_node6"><a xlink:href="tiling__window__manager_8h.html" target="_top" xlink:title="examples/miral&#45;shell\l/tiling_window_manager.h">
<polygon fill="white" stroke="black" points="313.5,-167.5 313.5,-197.5 440.5,-197.5 440.5,-167.5 313.5,-167.5"/>
<text text-anchor="start" x="321.5" y="-185.5" font-family="Arial" font-size="10.00">examples/miral&#45;shell</text>
<text text-anchor="middle" x="377" y="-174.5" font-family="Arial" font-size="10.00">/tiling_window_manager.h</text>
</a>
</g>
</g>
<!-- Node25&#45;&gt;Node30 -->
<g id="edge6" class="edge"><title>Node25&#45;&gt;Node30</title>
<path fill="none" stroke="midnightblue" d="M346.812,-226.157C353.52,-216.679 361.135,-205.919 367.038,-197.577"/>
<polygon fill="midnightblue" stroke="midnightblue" points="343.901,-224.211 340.981,-234.396 349.615,-228.255 343.901,-224.211"/>
</g>
<!-- Node32 -->
<g id="node8" class="node"><title>Node32</title>
<g id="a_node8"><a xlink:href="tiling__window__manager_8cpp.html" target="_top" xlink:title="examples/miral&#45;shell\l/tiling_window_manager.cpp">
<polygon fill="white" stroke="black" points="216.5,-95 216.5,-125 353.5,-125 353.5,-95 216.5,-95"/>
<text text-anchor="start" x="224.5" y="-113" font-family="Arial" font-size="10.00">examples/miral&#45;shell</text>
<text text-anchor="middle" x="285" y="-102" font-family="Arial" font-size="10.00">/tiling_window_manager.cpp</text>
</a>
</g>
</g>
<!-- Node25&#45;&gt;Node32 -->
<g id="edge9" class="edge"><title>Node25&#45;&gt;Node32</title>
<path fill="none" stroke="midnightblue" d="M317.007,-225.556C312.335,-217.127 307.446,-207.354 304,-198 294.86,-173.193 289.453,-142.709 286.87,-125.2"/>
<polygon fill="midnightblue" stroke="midnightblue" points="314.08,-227.488 322.102,-234.409 320.147,-223.996 314.08,-227.488"/>
</g>
<!-- Node33 -->
<g id="node9" class="node"><title>Node33</title>
<g id="a_node9"><a xlink:href="canonical__window__manager_8h.html" target="_top" xlink:title="include/miral/miral\l/canonical_window_manager.h">
<polygon fill="white" stroke="black" points="604,-167.5 604,-197.5 752,-197.5 752,-167.5 604,-167.5"/>
<text text-anchor="start" x="612" y="-185.5" font-family="Arial" font-size="10.00">include/miral/miral</text>
<text text-anchor="middle" x="678" y="-174.5" font-family="Arial" font-size="10.00">/canonical_window_manager.h</text>
</a>
</g>
</g>
<!-- Node25&#45;&gt;Node33 -->
<g id="edge10" class="edge"><title>Node25&#45;&gt;Node33</title>
<path fill="none" stroke="midnightblue" d="M404.984,-234.641C463.599,-223.662 545.109,-208.393 603.785,-197.402"/>
<polygon fill="midnightblue" stroke="midnightblue" points="404.234,-231.221 395.05,-236.502 405.523,-238.101 404.234,-231.221"/>
</g>
<!-- Node28 -->
<g id="node4" class="node"><title>Node28</title>
<g id="a_node4"><a xlink:href="decoration__provider_8cpp.html" target="_top" xlink:title="examples/miral&#45;shell\l/decoration_provider.cpp">
<polygon fill="white" stroke="black" points="0,-95 0,-125 122,-125 122,-95 0,-95"/>
<text text-anchor="start" x="8" y="-113" font-family="Arial" font-size="10.00">examples/miral&#45;shell</text>
<text text-anchor="middle" x="61" y="-102" font-family="Arial" font-size="10.00">/decoration_provider.cpp</text>
</a>
</g>
</g>
<!-- Node27&#45;&gt;Node28 -->
<g id="edge3" class="edge"><title>Node27&#45;&gt;Node28</title>
<path fill="none" stroke="midnightblue" d="M90.0062,-158.557C83.3148,-147.586 75.5142,-134.797 69.6888,-125.246"/>
<polygon fill="midnightblue" stroke="midnightblue" points="87.103,-160.518 95.2983,-167.233 93.0792,-156.873 87.103,-160.518"/>
</g>
<!-- Node27&#45;&gt;Node29 -->
<g id="edge4" class="edge"><title>Node27&#45;&gt;Node29</title>
<path fill="none" stroke="midnightblue" d="M116.76,-158.107C134.422,-125.726 165.779,-68.2381 180.267,-41.6776"/>
<polygon fill="midnightblue" stroke="midnightblue" points="113.468,-156.833 111.752,-167.288 119.613,-160.185 113.468,-156.833"/>
</g>
<!-- Node31 -->
<g id="node7" class="node"><title>Node31</title>
<g id="a_node7"><a xlink:href="shell__main_8cpp.html" target="_top" xlink:title="examples/miral&#45;shell\l/shell_main.cpp">
<polygon fill="white" stroke="black" points="351,-11.5 351,-41.5 457,-41.5 457,-11.5 351,-11.5"/>
<text text-anchor="start" x="359" y="-29.5" font-family="Arial" font-size="10.00">examples/miral&#45;shell</text>
<text text-anchor="middle" x="404" y="-18.5" font-family="Arial" font-size="10.00">/shell_main.cpp</text>
</a>
</g>
</g>
<!-- Node30&#45;&gt;Node31 -->
<g id="edge7" class="edge"><title>Node30&#45;&gt;Node31</title>
<path fill="none" stroke="midnightblue" d="M381.249,-157.264C386.952,-124.737 396.898,-68.0092 401.514,-41.6776"/>
<polygon fill="midnightblue" stroke="midnightblue" points="377.771,-156.834 379.492,-167.288 384.666,-158.043 377.771,-156.834"/>
</g>
<!-- Node30&#45;&gt;Node32 -->
<g id="edge8" class="edge"><title>Node30&#45;&gt;Node32</title>
<path fill="none" stroke="midnightblue" d="M350.392,-161.11C335.279,-149.529 316.747,-135.328 303.276,-125.005"/>
<polygon fill="midnightblue" stroke="midnightblue" points="348.316,-163.929 358.382,-167.233 352.574,-158.373 348.316,-163.929"/>
</g>
<!-- Node34 -->
<g id="node10" class="node"><title>Node34</title>
<g id="a_node10"><a xlink:href="kiosk__window__manager_8h.html" target="_top" xlink:title="examples/miral&#45;kiosk\l/kiosk_window_manager.h">
<polygon fill="white" stroke="black" points="613,-95 613,-125 743,-125 743,-95 613,-95"/>
<text text-anchor="start" x="621" y="-113" font-family="Arial" font-size="10.00">examples/miral&#45;kiosk</text>
<text text-anchor="middle" x="678" y="-102" font-family="Arial" font-size="10.00">/kiosk_window_manager.h</text>
</a>
</g>
</g>
<!-- Node33&#45;&gt;Node34 -->
<g id="edge11" class="edge"><title>Node33&#45;&gt;Node34</title>
<path fill="none" stroke="midnightblue" d="M678,-157.232C678,-146.568 678,-134.414 678,-125.246"/>
<polygon fill="midnightblue" stroke="midnightblue" points="674.5,-157.233 678,-167.233 681.5,-157.233 674.5,-157.233"/>
</g>
<!-- Node36 -->
<g id="node12" class="node"><title>Node36</title>
<g id="a_node12"><a xlink:href="floating__window__manager_8h.html" target="_top" xlink:title="examples/miral&#45;shell\l/floating_window_manager.h">
<polygon fill="white" stroke="black" points="410,-95 410,-125 548,-125 548,-95 410,-95"/>
<text text-anchor="start" x="418" y="-113" font-family="Arial" font-size="10.00">examples/miral&#45;shell</text>
<text text-anchor="middle" x="479" y="-102" font-family="Arial" font-size="10.00">/floating_window_manager.h</text>
</a>
</g>
</g>
<!-- Node33&#45;&gt;Node36 -->
<g id="edge14" class="edge"><title>Node33&#45;&gt;Node36</title>
<path fill="none" stroke="midnightblue" d="M628.503,-163.965C594.624,-151.962 550.294,-136.258 518.723,-125.073"/>
<polygon fill="midnightblue" stroke="midnightblue" points="627.613,-167.362 638.208,-167.403 629.95,-160.764 627.613,-167.362"/>
</g>
<!-- Node37 -->
<g id="node13" class="node"><title>Node37</title>
<g id="a_node13"><a xlink:href="canonical__window__manager__policy_8h.html" target="_top" xlink:title="include/test/mir_test\l_framework/canonical\l_window_manager_policy.h">
<polygon fill="white" stroke="black" points="770,-89.5 770,-130.5 904,-130.5 904,-89.5 770,-89.5"/>
<text text-anchor="start" x="778" y="-118.5" font-family="Arial" font-size="10.00">include/test/mir_test</text>
<text text-anchor="start" x="778" y="-107.5" font-family="Arial" font-size="10.00">_framework/canonical</text>
<text text-anchor="middle" x="837" y="-96.5" font-family="Arial" font-size="10.00">_window_manager_policy.h</text>
</a>
</g>
</g>
<!-- Node33&#45;&gt;Node37 -->
<g id="edge17" class="edge"><title>Node33&#45;&gt;Node37</title>
<path fill="none" stroke="midnightblue" d="M719.127,-163.265C741.754,-153.232 769.838,-140.779 792.917,-130.546"/>
<polygon fill="midnightblue" stroke="midnightblue" points="717.517,-160.15 709.794,-167.403 720.354,-166.549 717.517,-160.15"/>
</g>
<!-- Node34&#45;&gt;Node26 -->
<g id="edge13" class="edge"><title>Node34&#45;&gt;Node26</title>
<path fill="none" stroke="midnightblue" d="M650.793,-89.0233C630.768,-74.3203 604.035,-54.6922 586.204,-41.6003"/>
<polygon fill="midnightblue" stroke="midnightblue" points="648.786,-91.8925 658.918,-94.9897 652.929,-86.25 648.786,-91.8925"/>
</g>
<!-- Node35 -->
<g id="node11" class="node"><title>Node35</title>
<g id="a_node11"><a xlink:href="kiosk__main_8cpp.html" target="_top" xlink:title="examples/miral&#45;kiosk\l/kiosk_main.cpp">
<polygon fill="white" stroke="black" points="655.5,-11.5 655.5,-41.5 764.5,-41.5 764.5,-11.5 655.5,-11.5"/>
<text text-anchor="start" x="663.5" y="-29.5" font-family="Arial" font-size="10.00">examples/miral&#45;kiosk</text>
<text text-anchor="middle" x="710" y="-18.5" font-family="Arial" font-size="10.00">/kiosk_main.cpp</text>
</a>
</g>
</g>
<!-- Node34&#45;&gt;Node35 -->
<g id="edge12" class="edge"><title>Node34&#45;&gt;Node35</title>
<path fill="none" stroke="midnightblue" d="M687.346,-85.1977C692.911,-71.0237 699.783,-53.5211 704.49,-41.5335"/>
<polygon fill="midnightblue" stroke="midnightblue" points="683.971,-84.2164 683.574,-94.8038 690.487,-86.7748 683.971,-84.2164"/>
</g>
<!-- Node36&#45;&gt;Node29 -->
<g id="edge15" class="edge"><title>Node36&#45;&gt;Node29</title>
<path fill="none" stroke="midnightblue" d="M419.303,-92.2808C365.947,-77.3373 288.639,-55.6858 238.346,-41.6003"/>
<polygon fill="midnightblue" stroke="midnightblue" points="418.402,-95.663 428.975,-94.9897 420.29,-88.9223 418.402,-95.663"/>
</g>
<!-- Node36&#45;&gt;Node31 -->
<g id="edge16" class="edge"><title>Node36&#45;&gt;Node31</title>
<path fill="none" stroke="midnightblue" d="M458.973,-87.2373C445.628,-72.736 428.481,-54.103 416.914,-41.5335"/>
<polygon fill="midnightblue" stroke="midnightblue" points="456.589,-89.8154 465.936,-94.8038 461.74,-85.0753 456.589,-89.8154"/>
</g>
<!-- Node38 -->
<g id="node14" class="node"><title>Node38</title>
<g id="a_node14"><a xlink:href="declarative__placement__window__manage__policy_8h.html" target="_top" xlink:title="include/test/mir_test\l_framework/declarative\l_placement_window_manage\l_policy.h">
<polygon fill="white" stroke="black" points="782.5,-0.5 782.5,-52.5 925.5,-52.5 925.5,-0.5 782.5,-0.5"/>
<text text-anchor="start" x="790.5" y="-40.5" font-family="Arial" font-size="10.00">include/test/mir_test</text>
<text text-anchor="start" x="790.5" y="-29.5" font-family="Arial" font-size="10.00">_framework/declarative</text>
<text text-anchor="start" x="790.5" y="-18.5" font-family="Arial" font-size="10.00">_placement_window_manage</text>
<text text-anchor="middle" x="854" y="-7.5" font-family="Arial" font-size="10.00">_policy.h</text>
</a>
</g>
</g>
<!-- Node37&#45;&gt;Node38 -->
<g id="edge18" class="edge"><title>Node37&#45;&gt;Node38</title>
<path fill="none" stroke="midnightblue" d="M843.173,-79.4079C845.006,-70.6198 846.995,-61.0815 848.763,-52.6073"/>
<polygon fill="midnightblue" stroke="midnightblue" points="839.731,-78.7671 841.115,-89.2711 846.584,-80.1965 839.731,-78.7671"/>
</g>
</g>
</svg>
