<?xml version="1.0" encoding="UTF-8" standalone="no"?>
<!DOCTYPE svg PUBLIC "-//W3C//DTD SVG 1.1//EN"
 "http://www.w3.org/Graphics/SVG/1.1/DTD/svg11.dtd">
<!-- Generated by graphviz version 2.38.0 (20140413.2041)
 -->
<!-- Title: include/miral/miral/window_management_options.h Pages: 1 -->
<svg width="260pt" height="95pt"
 viewBox="0.00 0.00 259.50 95.00" xmlns="http://www.w3.org/2000/svg" xmlns:xlink="http://www.w3.org/1999/xlink">
<g id="graph0" class="graph" transform="scale(1 1) rotate(0) translate(4 91)">
<title>include/miral/miral/window_management_options.h</title>
<polygon fill="white" stroke="none" points="-4,4 -4,-91 255.5,-91 255.5,4 -4,4"/>
<!-- Node0 -->
<g id="node1" class="node"><title>Node0</title>
<polygon fill="#bfbfbf" stroke="black" points="56.5,-56.5 56.5,-86.5 214.5,-86.5 214.5,-56.5 56.5,-56.5"/>
<text text-anchor="start" x="64.5" y="-74.5" font-family="Arial" font-size="10.00">include/miral/miral</text>
<text text-anchor="middle" x="135.5" y="-63.5" font-family="Arial" font-size="10.00">/window_management_options.h</text>
</g>
<!-- Node1 -->
<g id="node2" class="node"><title>Node1</title>
<polygon fill="white" stroke="#bfbfbf" points="0,-0.5 0,-19.5 59,-19.5 59,-0.5 0,-0.5"/>
<text text-anchor="middle" x="29.5" y="-7.5" font-family="Arial" font-size="10.00">functional</text>
</g>
<!-- Node0&#45;&gt;Node1 -->
<g id="edge1" class="edge"><title>Node0&#45;&gt;Node1</title>
<path fill="none" stroke="midnightblue" d="M110.379,-56.3993C93.2297,-46.7728 70.6354,-34.0902 53.6879,-24.5772"/>
<polygon fill="midnightblue" stroke="midnightblue" points="55.3573,-21.5006 44.9239,-19.6578 51.9309,-27.6047 55.3573,-21.5006"/>
</g>
<!-- Node2 -->
<g id="node3" class="node"><title>Node2</title>
<polygon fill="white" stroke="#bfbfbf" points="77.5,-0.5 77.5,-19.5 129.5,-19.5 129.5,-0.5 77.5,-0.5"/>
<text text-anchor="middle" x="103.5" y="-7.5" font-family="Arial" font-size="10.00">memory</text>
</g>
<!-- Node0&#45;&gt;Node2 -->
<g id="edge2" class="edge"><title>Node0&#45;&gt;Node2</title>
<path fill="none" stroke="midnightblue" d="M127.916,-56.3993C123.458,-48.1098 117.781,-37.5542 113.023,-28.7077"/>
<polygon fill="midnightblue" stroke="midnightblue" points="115.975,-26.8071 108.156,-19.6578 109.81,-30.1227 115.975,-26.8071"/>
</g>
<!-- Node3 -->
<g id="node4" class="node"><title>Node3</title>
<polygon fill="white" stroke="#bfbfbf" points="148,-0.5 148,-19.5 189,-19.5 189,-0.5 148,-0.5"/>
<text text-anchor="middle" x="168.5" y="-7.5" font-family="Arial" font-size="10.00">string</text>
</g>
<!-- Node0&#45;&gt;Node3 -->
<g id="edge3" class="edge"><title>Node0&#45;&gt;Node3</title>
<path fill="none" stroke="midnightblue" d="M143.321,-56.3993C147.968,-48.0207 153.899,-37.3269 158.837,-28.4229"/>
<polygon fill="midnightblue" stroke="midnightblue" points="161.909,-30.1004 163.698,-19.6578 155.787,-26.7052 161.909,-30.1004"/>
</g>
<!-- Node4 -->
<g id="node5" class="node"><title>Node4</title>
<polygon fill="white" stroke="#bfbfbf" points="207.5,-0.5 207.5,-19.5 251.5,-19.5 251.5,-0.5 207.5,-0.5"/>
<text text-anchor="middle" x="229.5" y="-7.5" font-family="Arial" font-size="10.00">vector</text>
</g>
<!-- Node0&#45;&gt;Node4 -->
<g id="edge4" class="edge"><title>Node0&#45;&gt;Node4</title>
<path fill="none" stroke="midnightblue" d="M157.777,-56.3993C172.703,-46.9511 192.281,-34.5589 207.21,-25.1089"/>
<polygon fill="midnightblue" stroke="midnightblue" points="209.245,-27.9636 215.822,-19.6578 205.501,-22.0489 209.245,-27.9636"/>
</g>
</g>
</svg>
