<?xml version="1.0" encoding="UTF-8" standalone="no"?>
<!DOCTYPE svg PUBLIC "-//W3C//DTD SVG 1.1//EN"
 "http://www.w3.org/Graphics/SVG/1.1/DTD/svg11.dtd">
<!-- Generated by graphviz version 2.38.0 (20140413.2041)
 -->
<!-- Title: include/miral/miral/window_info.h Pages: 1 -->
<svg width="1054pt" height="375pt"
 viewBox="0.00 0.00 1053.99 375.00" xmlns="http://www.w3.org/2000/svg" xmlns:xlink="http://www.w3.org/1999/xlink">
<g id="graph0" class="graph" transform="scale(1 1) rotate(0) translate(4 371)">
<title>include/miral/miral/window_info.h</title>
<polygon fill="white" stroke="none" points="-4,4 -4,-371 1049.99,-371 1049.99,4 -4,4"/>
<!-- Node0 -->
<g id="node1" class="node"><title>Node0</title>
<polygon fill="#bfbfbf" stroke="black" points="570.488,-336.5 570.488,-366.5 665.488,-366.5 665.488,-336.5 570.488,-336.5"/>
<text text-anchor="start" x="578.488" y="-354.5" font-family="Arial" font-size="10.00">include/miral/miral</text>
<text text-anchor="middle" x="617.988" y="-343.5" font-family="Arial" font-size="10.00">/window_info.h</text>
</g>
<!-- Node1 -->
<g id="node2" class="node"><title>Node1</title>
<g id="a_node2"><a xlink:href="miral_2miral_2window_8h.html" target="_top" xlink:title="miral/window.h">
<polygon fill="white" stroke="black" points="117.988,-280.5 117.988,-299.5 197.988,-299.5 197.988,-280.5 117.988,-280.5"/>
<text text-anchor="middle" x="157.988" y="-287.5" font-family="Arial" font-size="10.00">miral/window.h</text>
</a>
</g>
</g>
<!-- Node0&#45;&gt;Node1 -->
<g id="edge1" class="edge"><title>Node0&#45;&gt;Node1</title>
<path fill="none" stroke="midnightblue" d="M570.061,-344.301C482.518,-332.977 297.561,-309.054 208.289,-297.506"/>
<polygon fill="midnightblue" stroke="midnightblue" points="208.514,-294.006 198.147,-296.195 207.616,-300.948 208.514,-294.006"/>
</g>
<!-- Node12 -->
<g id="node13" class="node"><title>Node12</title>
<g id="a_node13"><a xlink:href="window__specification_8h.html" target="_top" xlink:title="miral/window_specification.h">
<polygon fill="white" stroke="black" points="547.988,-280.5 547.988,-299.5 687.988,-299.5 687.988,-280.5 547.988,-280.5"/>
<text text-anchor="middle" x="617.988" y="-287.5" font-family="Arial" font-size="10.00">miral/window_specification.h</text>
</a>
</g>
</g>
<!-- Node0&#45;&gt;Node12 -->
<g id="edge16" class="edge"><title>Node0&#45;&gt;Node12</title>
<path fill="none" stroke="midnightblue" d="M617.988,-336.399C617.988,-328.466 617.988,-318.458 617.988,-309.858"/>
<polygon fill="midnightblue" stroke="midnightblue" points="621.488,-309.658 617.988,-299.658 614.488,-309.658 621.488,-309.658"/>
</g>
<!-- Node14 -->
<g id="node15" class="node"><title>Node14</title>
<g id="a_node15"><a xlink:href="rectangles_8h.html" target="_top" xlink:title="mir/geometry/rectangles.h">
<polygon fill="white" stroke="black" points="454.988,-224.5 454.988,-243.5 584.988,-243.5 584.988,-224.5 454.988,-224.5"/>
<text text-anchor="middle" x="519.988" y="-231.5" font-family="Arial" font-size="10.00">mir/geometry/rectangles.h</text>
</a>
</g>
</g>
<!-- Node0&#45;&gt;Node14 -->
<g id="edge37" class="edge"><title>Node0&#45;&gt;Node14</title>
<path fill="none" stroke="midnightblue" d="M585.106,-336.33C569.096,-327.904 550.801,-315.761 538.988,-300 528.962,-286.623 524.212,-268.054 521.97,-254.187"/>
<polygon fill="midnightblue" stroke="midnightblue" points="525.386,-253.322 520.616,-243.862 518.446,-254.232 525.386,-253.322"/>
</g>
<!-- Node18 -->
<g id="node19" class="node"><title>Node18</title>
<g id="a_node19"><a xlink:href="optional__value_8h.html" target="_top" xlink:title="mir/optional_value.h">
<polygon fill="white" stroke="black" points="904.988,-224.5 904.988,-243.5 1008.99,-243.5 1008.99,-224.5 904.988,-224.5"/>
<text text-anchor="middle" x="956.988" y="-231.5" font-family="Arial" font-size="10.00">mir/optional_value.h</text>
</a>
</g>
</g>
<!-- Node0&#45;&gt;Node18 -->
<g id="edge38" class="edge"><title>Node0&#45;&gt;Node18</title>
<path fill="none" stroke="midnightblue" d="M639.426,-336.366C667.532,-318.053 715.539,-287.569 734.988,-280 763.537,-268.889 839.564,-254.635 894.705,-245.178"/>
<polygon fill="midnightblue" stroke="midnightblue" points="895.47,-248.598 904.741,-243.47 894.296,-241.698 895.47,-248.598"/>
</g>
<!-- Node23 -->
<g id="node24" class="node"><title>Node23</title>
<polygon fill="white" stroke="#bfbfbf" points="743.988,-280.5 743.988,-299.5 799.988,-299.5 799.988,-280.5 743.988,-280.5"/>
<text text-anchor="middle" x="771.988" y="-287.5" font-family="Arial" font-size="10.00">algorithm</text>
</g>
<!-- Node0&#45;&gt;Node23 -->
<g id="edge39" class="edge"><title>Node0&#45;&gt;Node23</title>
<path fill="none" stroke="midnightblue" d="M654.484,-336.399C680.553,-326.327 715.281,-312.909 740.212,-303.277"/>
<polygon fill="midnightblue" stroke="midnightblue" points="741.513,-306.527 749.579,-299.658 738.99,-299.997 741.513,-306.527"/>
</g>
<!-- Node2 -->
<g id="node3" class="node"><title>Node2</title>
<g id="a_node3"><a xlink:href="application_8h.html" target="_top" xlink:title="miral/application.h">
<polygon fill="white" stroke="black" points="110.488,-224.5 110.488,-243.5 205.488,-243.5 205.488,-224.5 110.488,-224.5"/>
<text text-anchor="middle" x="157.988" y="-231.5" font-family="Arial" font-size="10.00">miral/application.h</text>
</a>
</g>
</g>
<!-- Node1&#45;&gt;Node2 -->
<g id="edge2" class="edge"><title>Node1&#45;&gt;Node2</title>
<path fill="none" stroke="midnightblue" d="M157.988,-280.083C157.988,-273.006 157.988,-262.861 157.988,-253.986"/>
<polygon fill="midnightblue" stroke="midnightblue" points="161.488,-253.751 157.988,-243.751 154.488,-253.751 161.488,-253.751"/>
</g>
<!-- Node5 -->
<g id="node6" class="node"><title>Node5</title>
<polygon fill="white" stroke="#bfbfbf" points="245.988,-168.5 245.988,-187.5 297.988,-187.5 297.988,-168.5 245.988,-168.5"/>
<text text-anchor="middle" x="271.988" y="-175.5" font-family="Arial" font-size="10.00">memory</text>
</g>
<!-- Node1&#45;&gt;Node5 -->
<g id="edge15" class="edge"><title>Node1&#45;&gt;Node5</title>
<path fill="none" stroke="midnightblue" d="M170.042,-280.231C181.716,-271.531 199.698,-257.57 213.988,-244 230.181,-228.622 246.99,-209.359 258.317,-195.809"/>
<polygon fill="midnightblue" stroke="midnightblue" points="261.239,-197.768 264.907,-187.828 255.841,-193.311 261.239,-197.768"/>
</g>
<!-- Node7 -->
<g id="node8" class="node"><title>Node7</title>
<g id="a_node8"><a xlink:href="point_8h.html" target="_top" xlink:title="mir/geometry/point.h">
<polygon fill="white" stroke="black" points="431.988,-112.5 431.988,-131.5 537.988,-131.5 537.988,-112.5 431.988,-112.5"/>
<text text-anchor="middle" x="484.988" y="-119.5" font-family="Arial" font-size="10.00">mir/geometry/point.h</text>
</a>
</g>
</g>
<!-- Node1&#45;&gt;Node7 -->
<g id="edge7" class="edge"><title>Node1&#45;&gt;Node7</title>
<path fill="none" stroke="midnightblue" d="M139.766,-280.47C99.7665,-260.67 10.782,-210.071 48.9878,-168 75.5035,-138.802 349.385,-137.055 421.622,-131.713"/>
<polygon fill="midnightblue" stroke="midnightblue" points="422.097,-135.184 431.734,-130.782 421.456,-128.214 422.097,-135.184"/>
</g>
<!-- Node11 -->
<g id="node12" class="node"><title>Node11</title>
<g id="a_node12"><a xlink:href="size_8h.html" target="_top" xlink:title="mir/geometry/size.h">
<polygon fill="white" stroke="black" points="310.488,-112.5 310.488,-131.5 413.488,-131.5 413.488,-112.5 310.488,-112.5"/>
<text text-anchor="middle" x="361.988" y="-119.5" font-family="Arial" font-size="10.00">mir/geometry/size.h</text>
</a>
</g>
</g>
<!-- Node1&#45;&gt;Node11 -->
<g id="edge12" class="edge"><title>Node1&#45;&gt;Node11</title>
<path fill="none" stroke="midnightblue" d="M117.89,-288.43C84.6146,-285.569 39.132,-275.613 15.9878,-244 -3.9655,-216.746 -6.30337,-193.378 15.9878,-168 25.2782,-157.423 203.569,-138.474 300.486,-128.893"/>
<polygon fill="midnightblue" stroke="midnightblue" points="300.85,-132.374 310.459,-127.911 300.164,-125.407 300.85,-132.374"/>
</g>
<!-- Node3 -->
<g id="node4" class="node"><title>Node3</title>
<g id="a_node4"><a xlink:href="common_8h.html" target="_top" xlink:title="mir_toolkit/common.h">
<polygon fill="white" stroke="black" points="117.988,-168.5 117.988,-187.5 227.988,-187.5 227.988,-168.5 117.988,-168.5"/>
<text text-anchor="middle" x="172.988" y="-175.5" font-family="Arial" font-size="10.00">mir_toolkit/common.h</text>
</a>
</g>
</g>
<!-- Node2&#45;&gt;Node3 -->
<g id="edge3" class="edge"><title>Node2&#45;&gt;Node3</title>
<path fill="none" stroke="midnightblue" d="M160.465,-224.083C162.474,-216.849 165.374,-206.409 167.878,-197.397"/>
<polygon fill="midnightblue" stroke="midnightblue" points="171.253,-198.323 170.557,-187.751 164.508,-196.449 171.253,-198.323"/>
</g>
<!-- Node2&#45;&gt;Node5 -->
<g id="edge5" class="edge"><title>Node2&#45;&gt;Node5</title>
<path fill="none" stroke="midnightblue" d="M176.051,-224.444C194.563,-215.675 223.568,-201.935 244.843,-191.858"/>
<polygon fill="midnightblue" stroke="midnightblue" points="246.47,-194.96 254.009,-187.516 243.473,-188.634 246.47,-194.96"/>
</g>
<!-- Node6 -->
<g id="node7" class="node"><title>Node6</title>
<polygon fill="white" stroke="#bfbfbf" points="58.4878,-168.5 58.4878,-187.5 99.4878,-187.5 99.4878,-168.5 58.4878,-168.5"/>
<text text-anchor="middle" x="78.9878" y="-175.5" font-family="Arial" font-size="10.00">string</text>
</g>
<!-- Node2&#45;&gt;Node6 -->
<g id="edge6" class="edge"><title>Node2&#45;&gt;Node6</title>
<path fill="none" stroke="midnightblue" d="M145.295,-224.324C133.087,-215.979 114.409,-203.212 99.9848,-193.352"/>
<polygon fill="midnightblue" stroke="midnightblue" points="101.88,-190.408 91.649,-187.655 97.9295,-196.187 101.88,-190.408"/>
</g>
<!-- Node4 -->
<g id="node5" class="node"><title>Node4</title>
<g id="a_node5"><a xlink:href="deprecations_8h.html" target="_top" xlink:title="mir_toolkit/deprecations.h">
<polygon fill="white" stroke="black" points="108.988,-112.5 108.988,-131.5 236.988,-131.5 236.988,-112.5 108.988,-112.5"/>
<text text-anchor="middle" x="172.988" y="-119.5" font-family="Arial" font-size="10.00">mir_toolkit/deprecations.h</text>
</a>
</g>
</g>
<!-- Node3&#45;&gt;Node4 -->
<g id="edge4" class="edge"><title>Node3&#45;&gt;Node4</title>
<path fill="none" stroke="midnightblue" d="M172.988,-168.083C172.988,-161.006 172.988,-150.861 172.988,-141.986"/>
<polygon fill="midnightblue" stroke="midnightblue" points="176.488,-141.751 172.988,-131.751 169.488,-141.751 176.488,-141.751"/>
</g>
<!-- Node8 -->
<g id="node9" class="node"><title>Node8</title>
<g id="a_node9"><a xlink:href="dimensions_8h.html" target="_top" xlink:title="dimensions.h">
<polygon fill="white" stroke="black" points="451.988,-56.5 451.988,-75.5 525.988,-75.5 525.988,-56.5 451.988,-56.5"/>
<text text-anchor="middle" x="488.988" y="-63.5" font-family="Arial" font-size="10.00">dimensions.h</text>
</a>
</g>
</g>
<!-- Node7&#45;&gt;Node8 -->
<g id="edge8" class="edge"><title>Node7&#45;&gt;Node8</title>
<path fill="none" stroke="midnightblue" d="M485.648,-112.083C486.173,-105.006 486.924,-94.8611 487.581,-85.9865"/>
<polygon fill="midnightblue" stroke="midnightblue" points="491.091,-85.9823 488.34,-75.7511 484.11,-85.4652 491.091,-85.9823"/>
</g>
<!-- Node10 -->
<g id="node11" class="node"><title>Node10</title>
<polygon fill="white" stroke="#bfbfbf" points="560.988,-0.5 560.988,-19.5 604.988,-19.5 604.988,-0.5 560.988,-0.5"/>
<text text-anchor="middle" x="582.988" y="-7.5" font-family="Arial" font-size="10.00">iosfwd</text>
</g>
<!-- Node7&#45;&gt;Node10 -->
<g id="edge11" class="edge"><title>Node7&#45;&gt;Node10</title>
<path fill="none" stroke="midnightblue" d="M495.908,-112.272C506.447,-103.602 522.586,-89.6631 534.988,-76 548.777,-60.8084 562.476,-41.7603 571.689,-28.2201"/>
<polygon fill="midnightblue" stroke="midnightblue" points="574.643,-30.0986 577.295,-19.8412 568.825,-26.2057 574.643,-30.0986"/>
</g>
<!-- Node9 -->
<g id="node10" class="node"><title>Node9</title>
<polygon fill="white" stroke="#bfbfbf" points="465.988,-0.5 465.988,-19.5 511.988,-19.5 511.988,-0.5 465.988,-0.5"/>
<text text-anchor="middle" x="488.988" y="-7.5" font-family="Arial" font-size="10.00">cstdint</text>
</g>
<!-- Node8&#45;&gt;Node9 -->
<g id="edge9" class="edge"><title>Node8&#45;&gt;Node9</title>
<path fill="none" stroke="midnightblue" d="M488.988,-56.083C488.988,-49.0059 488.988,-38.8611 488.988,-29.9865"/>
<polygon fill="midnightblue" stroke="midnightblue" points="492.488,-29.751 488.988,-19.7511 485.488,-29.7511 492.488,-29.751"/>
</g>
<!-- Node8&#45;&gt;Node10 -->
<g id="edge10" class="edge"><title>Node8&#45;&gt;Node10</title>
<path fill="none" stroke="midnightblue" d="M504.09,-56.324C518.891,-47.8215 541.682,-34.7288 558.97,-24.7975"/>
<polygon fill="midnightblue" stroke="midnightblue" points="560.995,-27.6707 567.923,-19.6545 557.508,-21.6009 560.995,-27.6707"/>
</g>
<!-- Node11&#45;&gt;Node8 -->
<g id="edge13" class="edge"><title>Node11&#45;&gt;Node8</title>
<path fill="none" stroke="midnightblue" d="M382.111,-112.444C403.012,-103.557 435.922,-89.5632 459.704,-79.4514"/>
<polygon fill="midnightblue" stroke="midnightblue" points="461.125,-82.6504 468.958,-75.5164 458.386,-76.2085 461.125,-82.6504"/>
</g>
<!-- Node11&#45;&gt;Node10 -->
<g id="edge14" class="edge"><title>Node11&#45;&gt;Node10</title>
<path fill="none" stroke="midnightblue" d="M370.672,-112.198C384.709,-98.4213 413.772,-71.7194 442.988,-56 477.628,-37.3616 521.285,-24.8579 550.557,-17.856"/>
<polygon fill="midnightblue" stroke="midnightblue" points="551.692,-21.186 560.647,-15.5241 550.115,-14.3658 551.692,-21.186"/>
</g>
<!-- Node12&#45;&gt;Node3 -->
<g id="edge17" class="edge"><title>Node12&#45;&gt;Node3</title>
<path fill="none" stroke="midnightblue" d="M565.353,-280.487C517.898,-272.42 446.353,-259.287 384.988,-244 321.663,-228.225 249.242,-204.839 207.54,-190.84"/>
<polygon fill="midnightblue" stroke="midnightblue" points="208.468,-187.459 197.874,-187.578 206.23,-194.092 208.468,-187.459"/>
</g>
<!-- Node12&#45;&gt;Node5 -->
<g id="edge36" class="edge"><title>Node12&#45;&gt;Node5</title>
<path fill="none" stroke="midnightblue" d="M581.106,-280.5C546.066,-272.154 492.039,-258.584 445.988,-244 394.923,-227.828 336.871,-205.278 302.397,-191.434"/>
<polygon fill="midnightblue" stroke="midnightblue" points="303.49,-188.101 292.907,-187.604 300.87,-194.592 303.49,-188.101"/>
</g>
<!-- Node13 -->
<g id="node14" class="node"><title>Node13</title>
<g id="a_node14"><a xlink:href="displacement_8h.html" target="_top" xlink:title="mir/geometry/displacement.h">
<polygon fill="white" stroke="black" points="651.488,-168.5 651.488,-187.5 794.488,-187.5 794.488,-168.5 651.488,-168.5"/>
<text text-anchor="middle" x="722.988" y="-175.5" font-family="Arial" font-size="10.00">mir/geometry/displacement.h</text>
</a>
</g>
</g>
<!-- Node12&#45;&gt;Node13 -->
<g id="edge18" class="edge"><title>Node12&#45;&gt;Node13</title>
<path fill="none" stroke="midnightblue" d="M626.227,-280.368C643.785,-261.974 685.12,-218.671 707.666,-195.052"/>
<polygon fill="midnightblue" stroke="midnightblue" points="710.414,-197.242 714.787,-187.591 705.35,-192.408 710.414,-197.242"/>
</g>
<!-- Node12&#45;&gt;Node14 -->
<g id="edge22" class="edge"><title>Node12&#45;&gt;Node14</title>
<path fill="none" stroke="midnightblue" d="M602.242,-280.324C586.669,-271.743 562.611,-258.486 544.528,-248.522"/>
<polygon fill="midnightblue" stroke="midnightblue" points="546.142,-245.415 535.694,-243.655 542.763,-251.546 546.142,-245.415"/>
</g>
<!-- Node12&#45;&gt;Node18 -->
<g id="edge30" class="edge"><title>Node12&#45;&gt;Node18</title>
<path fill="none" stroke="midnightblue" d="M671.703,-280.444C732.4,-270.775 831.04,-255.063 894.964,-244.88"/>
<polygon fill="midnightblue" stroke="midnightblue" points="895.59,-248.324 904.915,-243.295 894.488,-241.412 895.59,-248.324"/>
</g>
<!-- Node21 -->
<g id="node22" class="node"><title>Node21</title>
<g id="a_node22"><a xlink:href="int__wrapper_8h.html" target="_top" xlink:title="mir/int_wrapper.h">
<polygon fill="white" stroke="black" points="796.988,-224.5 796.988,-243.5 886.988,-243.5 886.988,-224.5 796.988,-224.5"/>
<text text-anchor="middle" x="841.988" y="-231.5" font-family="Arial" font-size="10.00">mir/int_wrapper.h</text>
</a>
</g>
</g>
<!-- Node12&#45;&gt;Node21 -->
<g id="edge33" class="edge"><title>Node12&#45;&gt;Node21</title>
<path fill="none" stroke="midnightblue" d="M653.481,-280.444C692.312,-271.083 754.644,-256.056 796.906,-245.868"/>
<polygon fill="midnightblue" stroke="midnightblue" points="797.759,-249.263 806.66,-243.516 796.119,-242.458 797.759,-249.263"/>
</g>
<!-- Node13&#45;&gt;Node7 -->
<g id="edge20" class="edge"><title>Node13&#45;&gt;Node7</title>
<path fill="none" stroke="midnightblue" d="M685.276,-168.444C643.845,-159.043 577.231,-143.929 532.32,-133.739"/>
<polygon fill="midnightblue" stroke="midnightblue" points="533.05,-130.316 522.523,-131.516 531.501,-137.142 533.05,-130.316"/>
</g>
<!-- Node13&#45;&gt;Node8 -->
<g id="edge19" class="edge"><title>Node13&#45;&gt;Node8</title>
<path fill="none" stroke="midnightblue" d="M704.626,-168.368C663.703,-149.131 564.82,-102.648 516.496,-79.9314"/>
<polygon fill="midnightblue" stroke="midnightblue" points="517.803,-76.6782 507.264,-75.5914 514.825,-83.0132 517.803,-76.6782"/>
</g>
<!-- Node13&#45;&gt;Node10 -->
<g id="edge21" class="edge"><title>Node13&#45;&gt;Node10</title>
<path fill="none" stroke="midnightblue" d="M715.461,-168.075C692.947,-141.38 625.886,-61.865 596.753,-27.3218"/>
<polygon fill="midnightblue" stroke="midnightblue" points="599.336,-24.956 590.214,-19.5681 593.985,-29.4689 599.336,-24.956"/>
</g>
<!-- Node14&#45;&gt;Node7 -->
<g id="edge23" class="edge"><title>Node14&#45;&gt;Node7</title>
<path fill="none" stroke="midnightblue" d="M454.905,-224.648C410.987,-217.522 358.636,-205.602 344.988,-188 339.541,-180.975 339.752,-175.183 344.988,-168 355.356,-153.776 395.172,-141.82 429.705,-133.815"/>
<polygon fill="midnightblue" stroke="midnightblue" points="430.753,-137.167 439.743,-131.561 429.219,-130.337 430.753,-137.167"/>
</g>
<!-- Node15 -->
<g id="node16" class="node"><title>Node15</title>
<g id="a_node16"><a xlink:href="rectangle_8h.html" target="_top" xlink:title="mir/geometry/rectangle.h">
<polygon fill="white" stroke="black" points="354.488,-168.5 354.488,-187.5 479.488,-187.5 479.488,-168.5 354.488,-168.5"/>
<text text-anchor="middle" x="416.988" y="-175.5" font-family="Arial" font-size="10.00">mir/geometry/rectangle.h</text>
</a>
</g>
</g>
<!-- Node14&#45;&gt;Node15 -->
<g id="edge24" class="edge"><title>Node14&#45;&gt;Node15</title>
<path fill="none" stroke="midnightblue" d="M503.439,-224.324C486.996,-215.703 461.553,-202.364 442.519,-192.386"/>
<polygon fill="midnightblue" stroke="midnightblue" points="443.977,-189.198 433.495,-187.655 440.727,-195.398 443.977,-189.198"/>
</g>
<!-- Node16 -->
<g id="node17" class="node"><title>Node16</title>
<polygon fill="white" stroke="#bfbfbf" points="497.988,-168.5 497.988,-187.5 541.988,-187.5 541.988,-168.5 497.988,-168.5"/>
<text text-anchor="middle" x="519.988" y="-175.5" font-family="Arial" font-size="10.00">vector</text>
</g>
<!-- Node14&#45;&gt;Node16 -->
<g id="edge28" class="edge"><title>Node14&#45;&gt;Node16</title>
<path fill="none" stroke="midnightblue" d="M519.988,-224.083C519.988,-217.006 519.988,-206.861 519.988,-197.986"/>
<polygon fill="midnightblue" stroke="midnightblue" points="523.488,-197.751 519.988,-187.751 516.488,-197.751 523.488,-197.751"/>
</g>
<!-- Node17 -->
<g id="node18" class="node"><title>Node17</title>
<polygon fill="white" stroke="#bfbfbf" points="560.488,-168.5 560.488,-187.5 633.488,-187.5 633.488,-168.5 560.488,-168.5"/>
<text text-anchor="middle" x="596.988" y="-175.5" font-family="Arial" font-size="10.00">initializer_list</text>
</g>
<!-- Node14&#45;&gt;Node17 -->
<g id="edge29" class="edge"><title>Node14&#45;&gt;Node17</title>
<path fill="none" stroke="midnightblue" d="M532.359,-224.324C544.146,-216.058 562.12,-203.453 576.123,-193.632"/>
<polygon fill="midnightblue" stroke="midnightblue" points="578.469,-196.262 584.647,-187.655 574.45,-190.531 578.469,-196.262"/>
</g>
<!-- Node15&#45;&gt;Node7 -->
<g id="edge25" class="edge"><title>Node15&#45;&gt;Node7</title>
<path fill="none" stroke="midnightblue" d="M427.913,-168.324C438.162,-160.185 453.708,-147.839 465.989,-138.087"/>
<polygon fill="midnightblue" stroke="midnightblue" points="468.209,-140.794 473.864,-131.834 463.856,-135.312 468.209,-140.794"/>
</g>
<!-- Node15&#45;&gt;Node10 -->
<g id="edge27" class="edge"><title>Node15&#45;&gt;Node10</title>
<path fill="none" stroke="midnightblue" d="M477.221,-168.479C501.785,-162.158 528.66,-151.154 546.988,-132 574.046,-103.722 580.872,-56.0185 582.526,-29.7496"/>
<polygon fill="midnightblue" stroke="midnightblue" points="586.028,-29.7719 582.969,-19.6283 579.035,-29.4655 586.028,-29.7719"/>
</g>
<!-- Node15&#45;&gt;Node11 -->
<g id="edge26" class="edge"><title>Node15&#45;&gt;Node11</title>
<path fill="none" stroke="midnightblue" d="M407.906,-168.083C399.816,-160.141 387.792,-148.335 378.078,-138.797"/>
<polygon fill="midnightblue" stroke="midnightblue" points="380.489,-136.26 370.901,-131.751 375.584,-141.254 380.489,-136.26"/>
</g>
<!-- Node19 -->
<g id="node20" class="node"><title>Node19</title>
<g id="a_node20"><a xlink:href="fatal_8h.html" target="_top" xlink:title="mir/fatal.h">
<polygon fill="white" stroke="black" points="927.988,-168.5 927.988,-187.5 987.988,-187.5 987.988,-168.5 927.988,-168.5"/>
<text text-anchor="middle" x="957.988" y="-175.5" font-family="Arial" font-size="10.00">mir/fatal.h</text>
</a>
</g>
</g>
<!-- Node18&#45;&gt;Node19 -->
<g id="edge31" class="edge"><title>Node18&#45;&gt;Node19</title>
<path fill="none" stroke="midnightblue" d="M957.153,-224.083C957.284,-217.006 957.472,-206.861 957.636,-197.986"/>
<polygon fill="midnightblue" stroke="midnightblue" points="961.14,-197.814 957.826,-187.751 954.141,-197.685 961.14,-197.814"/>
</g>
<!-- Node20 -->
<g id="node21" class="node"><title>Node20</title>
<polygon fill="white" stroke="#bfbfbf" points="1005.99,-168.5 1005.99,-187.5 1045.99,-187.5 1045.99,-168.5 1005.99,-168.5"/>
<text text-anchor="middle" x="1025.99" y="-175.5" font-family="Arial" font-size="10.00">utility</text>
</g>
<!-- Node18&#45;&gt;Node20 -->
<g id="edge32" class="edge"><title>Node18&#45;&gt;Node20</title>
<path fill="none" stroke="midnightblue" d="M968.074,-224.324C978.474,-216.185 994.248,-203.839 1006.71,-194.087"/>
<polygon fill="midnightblue" stroke="midnightblue" points="1008.98,-196.753 1014.7,-187.834 1004.67,-191.241 1008.98,-196.753"/>
</g>
<!-- Node21&#45;&gt;Node10 -->
<g id="edge34" class="edge"><title>Node21&#45;&gt;Node10</title>
<path fill="none" stroke="midnightblue" d="M853.511,-224.335C868.673,-211.835 892.063,-188.042 879.988,-168 821.111,-70.2794 678.806,-30.231 614.943,-16.7743"/>
<polygon fill="midnightblue" stroke="midnightblue" points="615.53,-13.3223 605.035,-14.7688 614.142,-20.1832 615.53,-13.3223"/>
</g>
<!-- Node22 -->
<g id="node23" class="node"><title>Node22</title>
<polygon fill="white" stroke="#bfbfbf" points="812.488,-168.5 812.488,-187.5 871.488,-187.5 871.488,-168.5 812.488,-168.5"/>
<text text-anchor="middle" x="841.988" y="-175.5" font-family="Arial" font-size="10.00">functional</text>
</g>
<!-- Node21&#45;&gt;Node22 -->
<g id="edge35" class="edge"><title>Node21&#45;&gt;Node22</title>
<path fill="none" stroke="midnightblue" d="M841.988,-224.083C841.988,-217.006 841.988,-206.861 841.988,-197.986"/>
<polygon fill="midnightblue" stroke="midnightblue" points="845.488,-197.751 841.988,-187.751 838.488,-197.751 845.488,-197.751"/>
</g>
</g>
</svg>
