<?xml version="1.0" encoding="UTF-8" standalone="no"?>
<!DOCTYPE svg PUBLIC "-//W3C//DTD SVG 1.1//EN"
 "http://www.w3.org/Graphics/SVG/1.1/DTD/svg11.dtd">
<!-- Generated by graphviz version 2.38.0 (20140413.2041)
 -->
<!-- Title: include/miral/miral/window_specification.h Pages: 1 -->
<svg width="910pt" height="319pt"
 viewBox="0.00 0.00 910.00 319.00" xmlns="http://www.w3.org/2000/svg" xmlns:xlink="http://www.w3.org/1999/xlink">
<g id="graph0" class="graph" transform="scale(1 1) rotate(0) translate(4 315)">
<title>include/miral/miral/window_specification.h</title>
<polygon fill="white" stroke="none" points="-4,4 -4,-315 906,-315 906,4 -4,4"/>
<!-- Node0 -->
<g id="node1" class="node"><title>Node0</title>
<polygon fill="#bfbfbf" stroke="black" points="503.5,-280.5 503.5,-310.5 622.5,-310.5 622.5,-280.5 503.5,-280.5"/>
<text text-anchor="start" x="511.5" y="-298.5" font-family="Arial" font-size="10.00">include/miral/miral</text>
<text text-anchor="middle" x="563" y="-287.5" font-family="Arial" font-size="10.00">/window_specification.h</text>
</g>
<!-- Node1 -->
<g id="node2" class="node"><title>Node1</title>
<g id="a_node2"><a xlink:href="common_8h.html" target="_top" xlink:title="mir_toolkit/common.h">
<polygon fill="white" stroke="black" points="85,-224.5 85,-243.5 195,-243.5 195,-224.5 85,-224.5"/>
<text text-anchor="middle" x="140" y="-231.5" font-family="Arial" font-size="10.00">mir_toolkit/common.h</text>
</a>
</g>
</g>
<!-- Node0&#45;&gt;Node1 -->
<g id="edge1" class="edge"><title>Node0&#45;&gt;Node1</title>
<path fill="none" stroke="midnightblue" d="M503.292,-286.101C424.561,-275.027 286.518,-255.609 205.156,-244.165"/>
<polygon fill="midnightblue" stroke="midnightblue" points="205.426,-240.669 195.036,-242.742 204.451,-247.6 205.426,-240.669"/>
</g>
<!-- Node3 -->
<g id="node4" class="node"><title>Node3</title>
<g id="a_node4"><a xlink:href="displacement_8h.html" target="_top" xlink:title="mir/geometry/displacement.h">
<polygon fill="white" stroke="black" points="146.5,-168.5 146.5,-187.5 289.5,-187.5 289.5,-168.5 146.5,-168.5"/>
<text text-anchor="middle" x="218" y="-175.5" font-family="Arial" font-size="10.00">mir/geometry/displacement.h</text>
</a>
</g>
</g>
<!-- Node0&#45;&gt;Node3 -->
<g id="edge3" class="edge"><title>Node0&#45;&gt;Node3</title>
<path fill="none" stroke="midnightblue" d="M514.787,-280.43C481.777,-270.629 437.077,-257.027 398,-244 345.852,-226.616 285.928,-204.553 250.059,-191.12"/>
<polygon fill="midnightblue" stroke="midnightblue" points="251.198,-187.809 240.606,-187.571 248.738,-194.363 251.198,-187.809"/>
</g>
<!-- Node8 -->
<g id="node9" class="node"><title>Node8</title>
<g id="a_node9"><a xlink:href="rectangles_8h.html" target="_top" xlink:title="mir/geometry/rectangles.h">
<polygon fill="white" stroke="black" points="407,-224.5 407,-243.5 537,-243.5 537,-224.5 407,-224.5"/>
<text text-anchor="middle" x="472" y="-231.5" font-family="Arial" font-size="10.00">mir/geometry/rectangles.h</text>
</a>
</g>
</g>
<!-- Node0&#45;&gt;Node8 -->
<g id="edge11" class="edge"><title>Node0&#45;&gt;Node8</title>
<path fill="none" stroke="midnightblue" d="M541.434,-280.399C527.12,-271.04 508.388,-258.792 493.989,-249.377"/>
<polygon fill="midnightblue" stroke="midnightblue" points="495.526,-246.201 485.241,-243.658 491.696,-252.06 495.526,-246.201"/>
</g>
<!-- Node13 -->
<g id="node14" class="node"><title>Node13</title>
<g id="a_node14"><a xlink:href="optional__value_8h.html" target="_top" xlink:title="mir/optional_value.h">
<polygon fill="white" stroke="black" points="728,-224.5 728,-243.5 832,-243.5 832,-224.5 728,-224.5"/>
<text text-anchor="middle" x="780" y="-231.5" font-family="Arial" font-size="10.00">mir/optional_value.h</text>
</a>
</g>
</g>
<!-- Node0&#45;&gt;Node13 -->
<g id="edge21" class="edge"><title>Node0&#45;&gt;Node13</title>
<path fill="none" stroke="midnightblue" d="M614.151,-280.475C652.242,-270.03 703.566,-255.958 738.982,-246.247"/>
<polygon fill="midnightblue" stroke="midnightblue" points="740.258,-249.526 748.977,-243.506 738.407,-242.775 740.258,-249.526"/>
</g>
<!-- Node16 -->
<g id="node17" class="node"><title>Node16</title>
<g id="a_node17"><a xlink:href="int__wrapper_8h.html" target="_top" xlink:title="mir/int_wrapper.h">
<polygon fill="white" stroke="black" points="608.5,-224.5 608.5,-243.5 699.5,-243.5 699.5,-224.5 608.5,-224.5"/>
<text text-anchor="middle" x="654" y="-231.5" font-family="Arial" font-size="10.00">mir/int_wrapper.h</text>
</a>
</g>
</g>
<!-- Node0&#45;&gt;Node16 -->
<g id="edge24" class="edge"><title>Node0&#45;&gt;Node16</title>
<path fill="none" stroke="midnightblue" d="M584.566,-280.399C598.88,-271.04 617.612,-258.792 632.011,-249.377"/>
<polygon fill="midnightblue" stroke="midnightblue" points="634.304,-252.06 640.759,-243.658 630.474,-246.201 634.304,-252.06"/>
</g>
<!-- Node18 -->
<g id="node19" class="node"><title>Node18</title>
<polygon fill="white" stroke="#bfbfbf" points="850,-224.5 850,-243.5 902,-243.5 902,-224.5 850,-224.5"/>
<text text-anchor="middle" x="876" y="-231.5" font-family="Arial" font-size="10.00">memory</text>
</g>
<!-- Node0&#45;&gt;Node18 -->
<g id="edge27" class="edge"><title>Node0&#45;&gt;Node18</title>
<path fill="none" stroke="midnightblue" d="M622.629,-284.945C676.885,-275.962 759.376,-261.582 839.871,-244.129"/>
<polygon fill="midnightblue" stroke="midnightblue" points="840.654,-247.541 849.675,-241.986 839.158,-240.702 840.654,-247.541"/>
</g>
<!-- Node2 -->
<g id="node3" class="node"><title>Node2</title>
<g id="a_node3"><a xlink:href="deprecations_8h.html" target="_top" xlink:title="mir_toolkit/deprecations.h">
<polygon fill="white" stroke="black" points="0,-168.5 0,-187.5 128,-187.5 128,-168.5 0,-168.5"/>
<text text-anchor="middle" x="64" y="-175.5" font-family="Arial" font-size="10.00">mir_toolkit/deprecations.h</text>
</a>
</g>
</g>
<!-- Node1&#45;&gt;Node2 -->
<g id="edge2" class="edge"><title>Node1&#45;&gt;Node2</title>
<path fill="none" stroke="midnightblue" d="M127.789,-224.324C116.224,-216.107 98.6246,-203.602 84.8393,-193.807"/>
<polygon fill="midnightblue" stroke="midnightblue" points="86.612,-190.773 76.4329,-187.834 82.5575,-196.479 86.612,-190.773"/>
</g>
<!-- Node4 -->
<g id="node5" class="node"><title>Node4</title>
<g id="a_node5"><a xlink:href="dimensions_8h.html" target="_top" xlink:title="mir/geometry/dimensions.h">
<polygon fill="white" stroke="black" points="344,-56.5 344,-75.5 478,-75.5 478,-56.5 344,-56.5"/>
<text text-anchor="middle" x="411" y="-63.5" font-family="Arial" font-size="10.00">mir/geometry/dimensions.h</text>
</a>
</g>
</g>
<!-- Node3&#45;&gt;Node4 -->
<g id="edge4" class="edge"><title>Node3&#45;&gt;Node4</title>
<path fill="none" stroke="midnightblue" d="M233.144,-168.368C266.545,-149.332 346.757,-103.615 387.05,-80.6505"/>
<polygon fill="midnightblue" stroke="midnightblue" points="388.971,-83.584 395.926,-75.5914 385.505,-77.5024 388.971,-83.584"/>
</g>
<!-- Node6 -->
<g id="node7" class="node"><title>Node6</title>
<polygon fill="white" stroke="#bfbfbf" points="503,-0.5 503,-19.5 547,-19.5 547,-0.5 503,-0.5"/>
<text text-anchor="middle" x="525" y="-7.5" font-family="Arial" font-size="10.00">iosfwd</text>
</g>
<!-- Node3&#45;&gt;Node6 -->
<g id="edge10" class="edge"><title>Node3&#45;&gt;Node6</title>
<path fill="none" stroke="midnightblue" d="M223.659,-168.363C238.803,-145.98 282.683,-85.7733 335,-56 361.706,-40.8021 445.871,-24.5622 492.722,-16.3777"/>
<polygon fill="midnightblue" stroke="midnightblue" points="493.41,-19.8107 502.671,-14.6629 492.221,-12.9125 493.41,-19.8107"/>
</g>
<!-- Node7 -->
<g id="node8" class="node"><title>Node7</title>
<g id="a_node8"><a xlink:href="point_8h.html" target="_top" xlink:title="mir/geometry/point.h">
<polygon fill="white" stroke="black" points="392,-112.5 392,-131.5 498,-131.5 498,-112.5 392,-112.5"/>
<text text-anchor="middle" x="445" y="-119.5" font-family="Arial" font-size="10.00">mir/geometry/point.h</text>
</a>
</g>
</g>
<!-- Node3&#45;&gt;Node7 -->
<g id="edge7" class="edge"><title>Node3&#45;&gt;Node7</title>
<path fill="none" stroke="midnightblue" d="M253.969,-168.444C293.319,-159.083 356.487,-144.056 399.314,-133.868"/>
<polygon fill="midnightblue" stroke="midnightblue" points="400.281,-137.236 409.199,-131.516 398.661,-130.426 400.281,-137.236"/>
</g>
<!-- Node5 -->
<g id="node6" class="node"><title>Node5</title>
<polygon fill="white" stroke="#bfbfbf" points="388,-0.5 388,-19.5 434,-19.5 434,-0.5 388,-0.5"/>
<text text-anchor="middle" x="411" y="-7.5" font-family="Arial" font-size="10.00">cstdint</text>
</g>
<!-- Node4&#45;&gt;Node5 -->
<g id="edge5" class="edge"><title>Node4&#45;&gt;Node5</title>
<path fill="none" stroke="midnightblue" d="M411,-56.083C411,-49.0059 411,-38.8611 411,-29.9865"/>
<polygon fill="midnightblue" stroke="midnightblue" points="414.5,-29.751 411,-19.7511 407.5,-29.7511 414.5,-29.751"/>
</g>
<!-- Node4&#45;&gt;Node6 -->
<g id="edge6" class="edge"><title>Node4&#45;&gt;Node6</title>
<path fill="none" stroke="midnightblue" d="M429.064,-56.4435C447.575,-47.6751 476.581,-33.9355 497.855,-23.8579"/>
<polygon fill="midnightblue" stroke="midnightblue" points="499.482,-26.9604 507.021,-19.5164 496.485,-20.6343 499.482,-26.9604"/>
</g>
<!-- Node7&#45;&gt;Node4 -->
<g id="edge8" class="edge"><title>Node7&#45;&gt;Node4</title>
<path fill="none" stroke="midnightblue" d="M439.386,-112.083C434.633,-104.534 427.682,-93.4948 421.848,-84.2298"/>
<polygon fill="midnightblue" stroke="midnightblue" points="424.8,-82.3486 416.51,-75.7511 418.876,-86.0783 424.8,-82.3486"/>
</g>
<!-- Node7&#45;&gt;Node6 -->
<g id="edge9" class="edge"><title>Node7&#45;&gt;Node6</title>
<path fill="none" stroke="midnightblue" d="M454.319,-112.22C463.281,-103.511 476.917,-89.5435 487,-76 498.197,-60.9607 508.776,-42.3685 515.915,-28.9262"/>
<polygon fill="midnightblue" stroke="midnightblue" points="519.154,-30.2826 520.656,-19.7948 512.942,-27.0567 519.154,-30.2826"/>
</g>
<!-- Node8&#45;&gt;Node7 -->
<g id="edge12" class="edge"><title>Node8&#45;&gt;Node7</title>
<path fill="none" stroke="midnightblue" d="M469.881,-224.368C465.524,-206.617 455.473,-165.666 449.565,-141.597"/>
<polygon fill="midnightblue" stroke="midnightblue" points="452.892,-140.469 447.109,-131.591 446.094,-142.137 452.892,-140.469"/>
</g>
<!-- Node9 -->
<g id="node10" class="node"><title>Node9</title>
<g id="a_node10"><a xlink:href="rectangle_8h.html" target="_top" xlink:title="mir/geometry/rectangle.h">
<polygon fill="white" stroke="black" points="500.5,-168.5 500.5,-187.5 625.5,-187.5 625.5,-168.5 500.5,-168.5"/>
<text text-anchor="middle" x="563" y="-175.5" font-family="Arial" font-size="10.00">mir/geometry/rectangle.h</text>
</a>
</g>
</g>
<!-- Node8&#45;&gt;Node9 -->
<g id="edge13" class="edge"><title>Node8&#45;&gt;Node9</title>
<path fill="none" stroke="midnightblue" d="M486.621,-224.324C500.949,-215.822 523.013,-202.729 539.749,-192.797"/>
<polygon fill="midnightblue" stroke="midnightblue" points="541.602,-195.768 548.416,-187.655 538.03,-189.748 541.602,-195.768"/>
</g>
<!-- Node11 -->
<g id="node12" class="node"><title>Node11</title>
<polygon fill="white" stroke="#bfbfbf" points="308,-168.5 308,-187.5 352,-187.5 352,-168.5 308,-168.5"/>
<text text-anchor="middle" x="330" y="-175.5" font-family="Arial" font-size="10.00">vector</text>
</g>
<!-- Node8&#45;&gt;Node11 -->
<g id="edge19" class="edge"><title>Node8&#45;&gt;Node11</title>
<path fill="none" stroke="midnightblue" d="M449.5,-224.444C425.923,-215.478 388.678,-201.314 362.036,-191.183"/>
<polygon fill="midnightblue" stroke="midnightblue" points="362.986,-187.8 352.395,-187.516 360.498,-194.342 362.986,-187.8"/>
</g>
<!-- Node12 -->
<g id="node13" class="node"><title>Node12</title>
<polygon fill="white" stroke="#bfbfbf" points="370.5,-168.5 370.5,-187.5 443.5,-187.5 443.5,-168.5 370.5,-168.5"/>
<text text-anchor="middle" x="407" y="-175.5" font-family="Arial" font-size="10.00">initializer_list</text>
</g>
<!-- Node8&#45;&gt;Node12 -->
<g id="edge20" class="edge"><title>Node8&#45;&gt;Node12</title>
<path fill="none" stroke="midnightblue" d="M461.557,-224.324C451.854,-216.263 437.185,-204.077 425.5,-194.369"/>
<polygon fill="midnightblue" stroke="midnightblue" points="427.562,-191.532 417.633,-187.834 423.089,-196.916 427.562,-191.532"/>
</g>
<!-- Node9&#45;&gt;Node6 -->
<g id="edge18" class="edge"><title>Node9&#45;&gt;Node6</title>
<path fill="none" stroke="midnightblue" d="M565.154,-168.087C567.867,-155.487 571.749,-131.794 568,-112 562.142,-81.0659 545.937,-47.996 535.18,-28.4293"/>
<polygon fill="midnightblue" stroke="midnightblue" points="538.105,-26.4911 530.134,-19.5108 532.012,-29.9379 538.105,-26.4911"/>
</g>
<!-- Node9&#45;&gt;Node7 -->
<g id="edge14" class="edge"><title>Node9&#45;&gt;Node7</title>
<path fill="none" stroke="midnightblue" d="M544.303,-168.444C525.056,-159.636 494.848,-145.812 472.8,-135.722"/>
<polygon fill="midnightblue" stroke="midnightblue" points="474.16,-132.495 463.61,-131.516 471.247,-138.86 474.16,-132.495"/>
</g>
<!-- Node10 -->
<g id="node11" class="node"><title>Node10</title>
<g id="a_node11"><a xlink:href="size_8h.html" target="_top" xlink:title="size.h">
<polygon fill="white" stroke="black" points="516.5,-112.5 516.5,-131.5 559.5,-131.5 559.5,-112.5 516.5,-112.5"/>
<text text-anchor="middle" x="538" y="-119.5" font-family="Arial" font-size="10.00">size.h</text>
</a>
</g>
</g>
<!-- Node9&#45;&gt;Node10 -->
<g id="edge15" class="edge"><title>Node9&#45;&gt;Node10</title>
<path fill="none" stroke="midnightblue" d="M558.872,-168.083C555.486,-160.77 550.584,-150.181 546.381,-141.103"/>
<polygon fill="midnightblue" stroke="midnightblue" points="549.429,-139.355 542.051,-131.751 543.077,-142.296 549.429,-139.355"/>
</g>
<!-- Node10&#45;&gt;Node4 -->
<g id="edge16" class="edge"><title>Node10&#45;&gt;Node4</title>
<path fill="none" stroke="midnightblue" d="M517.876,-112.444C496.976,-103.557 464.065,-89.5632 440.284,-79.4514"/>
<polygon fill="midnightblue" stroke="midnightblue" points="441.602,-76.2085 431.029,-75.5164 438.862,-82.6504 441.602,-76.2085"/>
</g>
<!-- Node10&#45;&gt;Node6 -->
<g id="edge17" class="edge"><title>Node10&#45;&gt;Node6</title>
<path fill="none" stroke="midnightblue" d="M536.98,-112.368C534.882,-94.617 530.042,-53.6664 527.198,-29.5974"/>
<polygon fill="midnightblue" stroke="midnightblue" points="530.665,-29.1115 526.015,-19.5914 523.713,-29.9331 530.665,-29.1115"/>
</g>
<!-- Node14 -->
<g id="node15" class="node"><title>Node14</title>
<g id="a_node15"><a xlink:href="fatal_8h.html" target="_top" xlink:title="mir/fatal.h">
<polygon fill="white" stroke="black" points="760,-168.5 760,-187.5 820,-187.5 820,-168.5 760,-168.5"/>
<text text-anchor="middle" x="790" y="-175.5" font-family="Arial" font-size="10.00">mir/fatal.h</text>
</a>
</g>
</g>
<!-- Node13&#45;&gt;Node14 -->
<g id="edge22" class="edge"><title>Node13&#45;&gt;Node14</title>
<path fill="none" stroke="midnightblue" d="M781.651,-224.083C782.976,-216.927 784.882,-206.635 786.539,-197.691"/>
<polygon fill="midnightblue" stroke="midnightblue" points="790,-198.221 788.379,-187.751 783.117,-196.947 790,-198.221"/>
</g>
<!-- Node15 -->
<g id="node16" class="node"><title>Node15</title>
<polygon fill="white" stroke="#bfbfbf" points="838,-168.5 838,-187.5 878,-187.5 878,-168.5 838,-168.5"/>
<text text-anchor="middle" x="858" y="-175.5" font-family="Arial" font-size="10.00">utility</text>
</g>
<!-- Node13&#45;&gt;Node15 -->
<g id="edge23" class="edge"><title>Node13&#45;&gt;Node15</title>
<path fill="none" stroke="midnightblue" d="M792.532,-224.324C804.586,-215.979 823.027,-203.212 837.269,-193.352"/>
<polygon fill="midnightblue" stroke="midnightblue" points="839.269,-196.224 845.499,-187.655 835.285,-190.469 839.269,-196.224"/>
</g>
<!-- Node16&#45;&gt;Node6 -->
<g id="edge25" class="edge"><title>Node16&#45;&gt;Node6</title>
<path fill="none" stroke="midnightblue" d="M652.027,-224.356C648.981,-211.68 642.578,-187.444 634,-168 610.678,-115.138 602.855,-102.08 568,-56 560.195,-45.6812 550.284,-35.1709 541.945,-26.9055"/>
<polygon fill="midnightblue" stroke="midnightblue" points="544.171,-24.1889 534.552,-19.7484 539.302,-29.2184 544.171,-24.1889"/>
</g>
<!-- Node17 -->
<g id="node18" class="node"><title>Node17</title>
<polygon fill="white" stroke="#bfbfbf" points="682.5,-168.5 682.5,-187.5 741.5,-187.5 741.5,-168.5 682.5,-168.5"/>
<text text-anchor="middle" x="712" y="-175.5" font-family="Arial" font-size="10.00">functional</text>
</g>
<!-- Node16&#45;&gt;Node17 -->
<g id="edge26" class="edge"><title>Node16&#45;&gt;Node17</title>
<path fill="none" stroke="midnightblue" d="M663.319,-224.324C671.893,-216.341 684.812,-204.313 695.188,-194.653"/>
<polygon fill="midnightblue" stroke="midnightblue" points="697.578,-197.21 702.512,-187.834 692.808,-192.086 697.578,-197.21"/>
</g>
</g>
</svg>
