<?xml version="1.0" encoding="UTF-8" standalone="no"?>
<!DOCTYPE svg PUBLIC "-//W3C//DTD SVG 1.1//EN"
 "http://www.w3.org/Graphics/SVG/1.1/DTD/svg11.dtd">
<!-- Generated by graphviz version 2.40.1 (20161225.0304)
 -->
<!-- Title: include/miral/miral/window_specification.h Pages: 1 -->
<svg width="997pt" height="319pt"
 viewBox="0.00 0.00 996.50 319.00" xmlns="http://www.w3.org/2000/svg" xmlns:xlink="http://www.w3.org/1999/xlink">
<g id="graph0" class="graph" transform="scale(1 1) rotate(0) translate(4 315)">
<title>include/miral/miral/window_specification.h</title>
<polygon fill="#ffffff" stroke="transparent" points="-4,4 -4,-315 992.5,-315 992.5,4 -4,4"/>
<!-- Node0 -->
<g id="node1" class="node">
<title>Node0</title>
<polygon fill="#bfbfbf" stroke="#000000" points="551,-280.5 551,-310.5 684,-310.5 684,-280.5 551,-280.5"/>
<text text-anchor="start" x="559" y="-298.5" font-family="Arial" font-size="10.00" fill="#000000">include/miral/miral</text>
<text text-anchor="middle" x="617.5" y="-287.5" font-family="Arial" font-size="10.00" fill="#000000">/window_specification.h</text>
</g>
<!-- Node1 -->
<g id="node2" class="node">
<title>Node1</title>
<g id="a_node2"><a xlink:href="common_8h.html" target="_top" xlink:title="mir_toolkit/common.h">
<polygon fill="#ffffff" stroke="#000000" points="74,-224.5 74,-243.5 199,-243.5 199,-224.5 74,-224.5"/>
<text text-anchor="middle" x="136.5" y="-231.5" font-family="Arial" font-size="10.00" fill="#000000">mir_toolkit/common.h</text>
</a>
</g>
</g>
<!-- Node0&#45;&gt;Node1 -->
<g id="edge1" class="edge">
<title>Node0&#45;&gt;Node1</title>
<path fill="none" stroke="#191970" d="M550.8717,-286.981C461.1245,-275.506 301.9809,-255.1582 209.2153,-243.2973"/>
<polygon fill="#191970" stroke="#191970" points="209.4328,-239.7967 199.0696,-242.0001 208.545,-246.7402 209.4328,-239.7967"/>
</g>
<!-- Node3 -->
<g id="node4" class="node">
<title>Node3</title>
<g id="a_node4"><a xlink:href="displacement_8h.html" target="_top" xlink:title="mir/geometry/displacement.h">
<polygon fill="#ffffff" stroke="#000000" points="163,-168.5 163,-187.5 324,-187.5 324,-168.5 163,-168.5"/>
<text text-anchor="middle" x="243.5" y="-175.5" font-family="Arial" font-size="10.00" fill="#000000">mir/geometry/displacement.h</text>
</a>
</g>
</g>
<!-- Node0&#45;&gt;Node3 -->
<g id="edge3" class="edge">
<title>Node0&#45;&gt;Node3</title>
<path fill="none" stroke="#191970" d="M561.8248,-280.4696C525.9132,-270.575 478.28,-257.0777 436.5,-244 381.4345,-226.7637 318.2793,-204.7314 279.6398,-190.9908"/>
<polygon fill="#191970" stroke="#191970" points="280.4864,-187.5768 269.8917,-187.5151 278.1354,-194.1703 280.4864,-187.5768"/>
</g>
<!-- Node8 -->
<g id="node9" class="node">
<title>Node8</title>
<g id="a_node9"><a xlink:href="rectangles_8h.html" target="_top" xlink:title="mir/geometry/rectangles.h">
<polygon fill="#ffffff" stroke="#000000" points="445.5,-224.5 445.5,-243.5 591.5,-243.5 591.5,-224.5 445.5,-224.5"/>
<text text-anchor="middle" x="518.5" y="-231.5" font-family="Arial" font-size="10.00" fill="#000000">mir/geometry/rectangles.h</text>
</a>
</g>
</g>
<!-- Node0&#45;&gt;Node8 -->
<g id="edge11" class="edge">
<title>Node0&#45;&gt;Node8</title>
<path fill="none" stroke="#191970" d="M593.2819,-280.4554C577.9227,-270.9141 558.1243,-258.6151 542.7575,-249.0691"/>
<polygon fill="#191970" stroke="#191970" points="544.1828,-245.8341 533.8415,-243.5303 540.489,-251.7802 544.1828,-245.8341"/>
</g>
<!-- Node13 -->
<g id="node14" class="node">
<title>Node13</title>
<g id="a_node14"><a xlink:href="optional__value_8h.html" target="_top" xlink:title="mir/optional_value.h">
<polygon fill="#ffffff" stroke="#000000" points="795,-224.5 795,-243.5 912,-243.5 912,-224.5 795,-224.5"/>
<text text-anchor="middle" x="853.5" y="-231.5" font-family="Arial" font-size="10.00" fill="#000000">mir/optional_value.h</text>
</a>
</g>
</g>
<!-- Node0&#45;&gt;Node13 -->
<g id="edge21" class="edge">
<title>Node0&#45;&gt;Node13</title>
<path fill="none" stroke="#191970" d="M675.2321,-280.4554C715.8183,-269.8789 769.4073,-255.914 807.1967,-246.0663"/>
<polygon fill="#191970" stroke="#191970" points="808.1342,-249.439 816.9284,-243.5303 806.3689,-242.6652 808.1342,-249.439"/>
</g>
<!-- Node16 -->
<g id="node17" class="node">
<title>Node16</title>
<g id="a_node17"><a xlink:href="int__wrapper_8h.html" target="_top" xlink:title="mir/int_wrapper.h">
<polygon fill="#ffffff" stroke="#000000" points="665.5,-224.5 665.5,-243.5 767.5,-243.5 767.5,-224.5 665.5,-224.5"/>
<text text-anchor="middle" x="716.5" y="-231.5" font-family="Arial" font-size="10.00" fill="#000000">mir/int_wrapper.h</text>
</a>
</g>
</g>
<!-- Node0&#45;&gt;Node16 -->
<g id="edge24" class="edge">
<title>Node0&#45;&gt;Node16</title>
<path fill="none" stroke="#191970" d="M641.7181,-280.4554C657.0773,-270.9141 676.8757,-258.6151 692.2425,-249.0691"/>
<polygon fill="#191970" stroke="#191970" points="694.511,-251.7802 701.1585,-243.5303 690.8172,-245.8341 694.511,-251.7802"/>
</g>
<!-- Node18 -->
<g id="node19" class="node">
<title>Node18</title>
<polygon fill="#ffffff" stroke="#bfbfbf" points="930.5,-224.5 930.5,-243.5 988.5,-243.5 988.5,-224.5 930.5,-224.5"/>
<text text-anchor="middle" x="959.5" y="-231.5" font-family="Arial" font-size="10.00" fill="#000000">memory</text>
</g>
<!-- Node0&#45;&gt;Node18 -->
<g id="edge27" class="edge">
<title>Node0&#45;&gt;Node18</title>
<path fill="none" stroke="#191970" d="M684.247,-285.9506C743.7662,-277.0353 833.4396,-262.6236 920.0999,-244.1657"/>
<polygon fill="#191970" stroke="#191970" points="921.0639,-247.5384 930.1041,-242.0136 919.5917,-240.695 921.0639,-247.5384"/>
</g>
<!-- Node2 -->
<g id="node3" class="node">
<title>Node2</title>
<g id="a_node3"><a xlink:href="deprecations_8h.html" target="_top" xlink:title="mir_toolkit/deprecations.h">
<polygon fill="#ffffff" stroke="#000000" points="0,-168.5 0,-187.5 145,-187.5 145,-168.5 0,-168.5"/>
<text text-anchor="middle" x="72.5" y="-175.5" font-family="Arial" font-size="10.00" fill="#000000">mir_toolkit/deprecations.h</text>
</a>
</g>
</g>
<!-- Node1&#45;&gt;Node2 -->
<g id="edge2" class="edge">
<title>Node1&#45;&gt;Node2</title>
<path fill="none" stroke="#191970" d="M125.3521,-224.2455C115.9913,-216.0549 102.4142,-204.1749 91.3651,-194.5069"/>
<polygon fill="#191970" stroke="#191970" points="93.3508,-191.5937 83.5202,-187.6427 88.7412,-196.8618 93.3508,-191.5937"/>
</g>
<!-- Node4 -->
<g id="node5" class="node">
<title>Node4</title>
<g id="a_node5"><a xlink:href="dimensions_8h.html" target="_top" xlink:title="mir/geometry/dimensions.h">
<polygon fill="#ffffff" stroke="#000000" points="380.5,-56.5 380.5,-75.5 532.5,-75.5 532.5,-56.5 380.5,-56.5"/>
<text text-anchor="middle" x="456.5" y="-63.5" font-family="Arial" font-size="10.00" fill="#000000">mir/geometry/dimensions.h</text>
</a>
</g>
</g>
<!-- Node3&#45;&gt;Node4 -->
<g id="edge4" class="edge">
<title>Node3&#45;&gt;Node4</title>
<path fill="none" stroke="#191970" d="M261.6603,-168.4509C299.151,-148.7375 385.2847,-103.4465 429.3913,-80.2543"/>
<polygon fill="#191970" stroke="#191970" points="431.1636,-83.2768 438.3857,-75.5249 427.9058,-77.0811 431.1636,-83.2768"/>
</g>
<!-- Node6 -->
<g id="node7" class="node">
<title>Node6</title>
<polygon fill="#ffffff" stroke="#bfbfbf" points="555,-.5 555,-19.5 604,-19.5 604,-.5 555,-.5"/>
<text text-anchor="middle" x="579.5" y="-7.5" font-family="Arial" font-size="10.00" fill="#000000">iosfwd</text>
</g>
<!-- Node3&#45;&gt;Node6 -->
<g id="edge10" class="edge">
<title>Node3&#45;&gt;Node6</title>
<path fill="none" stroke="#191970" d="M250.615,-168.2457C268.2401,-144.8469 316.4996,-85.3031 371.5,-56 401.1966,-40.1782 493.7649,-23.6079 544.8233,-15.3469"/>
<polygon fill="#191970" stroke="#191970" points="545.4283,-18.7947 554.7508,-13.7607 544.3239,-11.8823 545.4283,-18.7947"/>
</g>
<!-- Node7 -->
<g id="node8" class="node">
<title>Node7</title>
<g id="a_node8"><a xlink:href="point_8h.html" target="_top" xlink:title="mir/geometry/point.h">
<polygon fill="#ffffff" stroke="#000000" points="430.5,-112.5 430.5,-131.5 550.5,-131.5 550.5,-112.5 430.5,-112.5"/>
<text text-anchor="middle" x="490.5" y="-119.5" font-family="Arial" font-size="10.00" fill="#000000">mir/geometry/point.h</text>
</a>
</g>
</g>
<!-- Node3&#45;&gt;Node7 -->
<g id="edge7" class="edge">
<title>Node3&#45;&gt;Node7</title>
<path fill="none" stroke="#191970" d="M285.6802,-168.4369C327.9523,-158.8529 393.1062,-144.0812 438.5417,-133.78"/>
<polygon fill="#191970" stroke="#191970" points="439.5152,-137.1482 448.4938,-131.5237 437.9674,-130.3215 439.5152,-137.1482"/>
</g>
<!-- Node5 -->
<g id="node6" class="node">
<title>Node5</title>
<polygon fill="#ffffff" stroke="#bfbfbf" points="431.5,-.5 431.5,-19.5 481.5,-19.5 481.5,-.5 431.5,-.5"/>
<text text-anchor="middle" x="456.5" y="-7.5" font-family="Arial" font-size="10.00" fill="#000000">cstdint</text>
</g>
<!-- Node4&#45;&gt;Node5 -->
<g id="edge5" class="edge">
<title>Node4&#45;&gt;Node5</title>
<path fill="none" stroke="#191970" d="M456.5,-56.2455C456.5,-48.9382 456.5,-38.6944 456.5,-29.7046"/>
<polygon fill="#191970" stroke="#191970" points="460.0001,-29.6426 456.5,-19.6427 453.0001,-29.6427 460.0001,-29.6426"/>
</g>
<!-- Node4&#45;&gt;Node6 -->
<g id="edge6" class="edge">
<title>Node4&#45;&gt;Node6</title>
<path fill="none" stroke="#191970" d="M477.6445,-56.3733C497.3892,-47.3838 527.0698,-33.8706 549.3055,-23.7471"/>
<polygon fill="#191970" stroke="#191970" points="550.9806,-26.8302 558.6315,-19.5011 548.08,-20.4594 550.9806,-26.8302"/>
</g>
<!-- Node7&#45;&gt;Node4 -->
<g id="edge8" class="edge">
<title>Node7&#45;&gt;Node4</title>
<path fill="none" stroke="#191970" d="M484.5777,-112.2455C479.8973,-104.5367 473.2327,-93.5598 467.5711,-84.2348"/>
<polygon fill="#191970" stroke="#191970" points="470.5361,-82.3741 462.3545,-75.6427 464.5525,-86.007 470.5361,-82.3741"/>
</g>
<!-- Node7&#45;&gt;Node6 -->
<g id="edge9" class="edge">
<title>Node7&#45;&gt;Node6</title>
<path fill="none" stroke="#191970" d="M503.2721,-112.3725C514.2651,-103.6704 530.1087,-90.0967 541.5,-76 553.4031,-61.27 563.8823,-42.3618 570.8047,-28.5621"/>
<polygon fill="#191970" stroke="#191970" points="573.9617,-30.0733 575.1862,-19.5495 567.6662,-27.0127 573.9617,-30.0733"/>
</g>
<!-- Node8&#45;&gt;Node7 -->
<g id="edge12" class="edge">
<title>Node8&#45;&gt;Node7</title>
<path fill="none" stroke="#191970" d="M516.1127,-224.4509C511.5253,-206.1013 501.3977,-165.5908 495.3423,-141.3693"/>
<polygon fill="#191970" stroke="#191970" points="498.7022,-140.3774 492.8812,-131.5249 491.9112,-142.0752 498.7022,-140.3774"/>
</g>
<!-- Node9 -->
<g id="node10" class="node">
<title>Node9</title>
<g id="a_node10"><a xlink:href="rectangle_8h.html" target="_top" xlink:title="mir/geometry/rectangle.h">
<polygon fill="#ffffff" stroke="#000000" points="547,-168.5 547,-187.5 688,-187.5 688,-168.5 547,-168.5"/>
<text text-anchor="middle" x="617.5" y="-175.5" font-family="Arial" font-size="10.00" fill="#000000">mir/geometry/rectangle.h</text>
</a>
</g>
</g>
<!-- Node8&#45;&gt;Node9 -->
<g id="edge13" class="edge">
<title>Node8&#45;&gt;Node9</title>
<path fill="none" stroke="#191970" d="M535.7445,-224.2455C551.0761,-215.5731 573.7199,-202.7645 591.2916,-192.825"/>
<polygon fill="#191970" stroke="#191970" points="593.4724,-195.6126 600.4531,-187.6427 590.0259,-189.5198 593.4724,-195.6126"/>
</g>
<!-- Node11 -->
<g id="node12" class="node">
<title>Node11</title>
<polygon fill="#ffffff" stroke="#bfbfbf" points="342,-168.5 342,-187.5 389,-187.5 389,-168.5 342,-168.5"/>
<text text-anchor="middle" x="365.5" y="-175.5" font-family="Arial" font-size="10.00" fill="#000000">vector</text>
</g>
<!-- Node8&#45;&gt;Node11 -->
<g id="edge19" class="edge">
<title>Node8&#45;&gt;Node11</title>
<path fill="none" stroke="#191970" d="M492.1984,-224.3733C466.3656,-214.9181 426.8599,-200.4585 398.8384,-190.2023"/>
<polygon fill="#191970" stroke="#191970" points="400.0407,-186.9153 389.447,-186.7649 397.6347,-193.4889 400.0407,-186.9153"/>
</g>
<!-- Node12 -->
<g id="node13" class="node">
<title>Node12</title>
<polygon fill="#ffffff" stroke="#bfbfbf" points="407,-168.5 407,-187.5 490,-187.5 490,-168.5 407,-168.5"/>
<text text-anchor="middle" x="448.5" y="-175.5" font-family="Arial" font-size="10.00" fill="#000000">initializer_list</text>
</g>
<!-- Node8&#45;&gt;Node12 -->
<g id="edge20" class="edge">
<title>Node8&#45;&gt;Node12</title>
<path fill="none" stroke="#191970" d="M506.3069,-224.2455C495.8679,-215.8943 480.6345,-203.7076 468.426,-193.9408"/>
<polygon fill="#191970" stroke="#191970" points="470.5485,-191.1566 460.5533,-187.6427 466.1756,-196.6227 470.5485,-191.1566"/>
</g>
<!-- Node9&#45;&gt;Node6 -->
<g id="edge18" class="edge">
<title>Node9&#45;&gt;Node6</title>
<path fill="none" stroke="#191970" d="M619.902,-168.0611C622.6703,-155.057 626.3714,-131.6163 622.5,-112 616.452,-81.355 600.7497,-48.5058 590.0906,-28.605"/>
<polygon fill="#191970" stroke="#191970" points="593.0781,-26.7741 585.1908,-19.7002 586.9453,-30.1487 593.0781,-26.7741"/>
</g>
<!-- Node9&#45;&gt;Node7 -->
<g id="edge14" class="edge">
<title>Node9&#45;&gt;Node7</title>
<path fill="none" stroke="#191970" d="M595.6679,-168.3733C575.1897,-159.3435 544.3601,-145.7494 521.3681,-135.6111"/>
<polygon fill="#191970" stroke="#191970" points="522.6093,-132.3333 512.0472,-131.5011 519.785,-138.7383 522.6093,-132.3333"/>
</g>
<!-- Node10 -->
<g id="node11" class="node">
<title>Node10</title>
<g id="a_node11"><a xlink:href="size_8h.html" target="_top" xlink:title="size.h">
<polygon fill="#ffffff" stroke="#000000" points="569,-112.5 569,-131.5 614,-131.5 614,-112.5 569,-112.5"/>
<text text-anchor="middle" x="591.5" y="-119.5" font-family="Arial" font-size="10.00" fill="#000000">size.h</text>
</a>
</g>
</g>
<!-- Node9&#45;&gt;Node10 -->
<g id="edge15" class="edge">
<title>Node9&#45;&gt;Node10</title>
<path fill="none" stroke="#191970" d="M612.9711,-168.2455C609.4666,-160.6973 604.5073,-150.0158 600.2377,-140.8197"/>
<polygon fill="#191970" stroke="#191970" points="603.3627,-139.2389 595.977,-131.6427 597.0136,-142.1867 603.3627,-139.2389"/>
</g>
<!-- Node10&#45;&gt;Node4 -->
<g id="edge16" class="edge">
<title>Node10&#45;&gt;Node4</title>
<path fill="none" stroke="#191970" d="M568.904,-112.6269C547.0367,-103.556 513.6623,-89.7118 488.9557,-79.4631"/>
<polygon fill="#191970" stroke="#191970" points="490.2001,-76.1902 479.6222,-75.5914 487.518,-82.656 490.2001,-76.1902"/>
</g>
<!-- Node10&#45;&gt;Node6 -->
<g id="edge17" class="edge">
<title>Node10&#45;&gt;Node6</title>
<path fill="none" stroke="#191970" d="M590.4769,-112.4509C588.5197,-94.184 584.2095,-53.9553 581.6105,-29.6976"/>
<polygon fill="#191970" stroke="#191970" points="585.066,-29.0951 580.5205,-19.5249 578.1059,-29.8409 585.066,-29.0951"/>
</g>
<!-- Node14 -->
<g id="node15" class="node">
<title>Node14</title>
<g id="a_node15"><a xlink:href="fatal_8h.html" target="_top" xlink:title="mir/fatal.h">
<polygon fill="#ffffff" stroke="#000000" points="828.5,-168.5 828.5,-187.5 896.5,-187.5 896.5,-168.5 828.5,-168.5"/>
<text text-anchor="middle" x="862.5" y="-175.5" font-family="Arial" font-size="10.00" fill="#000000">mir/fatal.h</text>
</a>
</g>
</g>
<!-- Node13&#45;&gt;Node14 -->
<g id="edge22" class="edge">
<title>Node13&#45;&gt;Node14</title>
<path fill="none" stroke="#191970" d="M855.0677,-224.2455C856.2421,-216.9382 857.8884,-206.6944 859.3332,-197.7046"/>
<polygon fill="#191970" stroke="#191970" points="862.8191,-198.0714 860.9503,-187.6427 855.9078,-196.9606 862.8191,-198.0714"/>
</g>
<!-- Node15 -->
<g id="node16" class="node">
<title>Node15</title>
<polygon fill="#ffffff" stroke="#bfbfbf" points="915,-168.5 915,-187.5 960,-187.5 960,-168.5 915,-168.5"/>
<text text-anchor="middle" x="937.5" y="-175.5" font-family="Arial" font-size="10.00" fill="#000000">utility</text>
</g>
<!-- Node13&#45;&gt;Node15 -->
<g id="edge23" class="edge">
<title>Node13&#45;&gt;Node15</title>
<path fill="none" stroke="#191970" d="M868.1317,-224.2455C880.8994,-215.7337 899.6438,-203.2375 914.4299,-193.3801"/>
<polygon fill="#191970" stroke="#191970" points="916.6569,-196.1019 923.036,-187.6427 912.774,-190.2775 916.6569,-196.1019"/>
</g>
<!-- Node16&#45;&gt;Node6 -->
<g id="edge25" class="edge">
<title>Node16&#45;&gt;Node6</title>
<path fill="none" stroke="#191970" d="M714.4856,-224.2804C711.5515,-211.1163 705.4574,-187.0737 696.5,-168 671.1389,-113.997 659.4454,-102.8459 622.5,-56 614.5996,-45.9825 604.9662,-35.5387 596.8216,-27.1392"/>
<polygon fill="#191970" stroke="#191970" points="599.0888,-24.4537 589.5742,-19.7929 594.1057,-29.3698 599.0888,-24.4537"/>
</g>
<!-- Node17 -->
<g id="node18" class="node">
<title>Node17</title>
<polygon fill="#ffffff" stroke="#bfbfbf" points="745,-168.5 745,-187.5 810,-187.5 810,-168.5 745,-168.5"/>
<text text-anchor="middle" x="777.5" y="-175.5" font-family="Arial" font-size="10.00" fill="#000000">functional</text>
</g>
<!-- Node16&#45;&gt;Node17 -->
<g id="edge26" class="edge">
<title>Node16&#45;&gt;Node17</title>
<path fill="none" stroke="#191970" d="M727.1254,-224.2455C736.0473,-216.0549 748.988,-204.1749 759.5192,-194.5069"/>
<polygon fill="#191970" stroke="#191970" points="761.9968,-196.9837 766.9964,-187.6427 757.2629,-191.8271 761.9968,-196.9837"/>
</g>
</g>
</svg>
