<?xml version="1.0" encoding="UTF-8" standalone="no"?>
<!DOCTYPE svg PUBLIC "-//W3C//DTD SVG 1.1//EN"
 "http://www.w3.org/Graphics/SVG/1.1/DTD/svg11.dtd">
<!-- Generated by graphviz version 2.38.0 (20140413.2041)
 -->
<!-- Title: include/miral/miral/window_specification.h Pages: 1 -->
<svg width="905pt" height="319pt"
 viewBox="0.00 0.00 905.00 319.00" xmlns="http://www.w3.org/2000/svg" xmlns:xlink="http://www.w3.org/1999/xlink">
<g id="graph0" class="graph" transform="scale(1 1) rotate(0) translate(4 315)">
<title>include/miral/miral/window_specification.h</title>
<polygon fill="white" stroke="none" points="-4,4 -4,-315 901,-315 901,4 -4,4"/>
<!-- Node0 -->
<g id="node1" class="node"><title>Node0</title>
<polygon fill="#bfbfbf" stroke="black" points="501.5,-280.5 501.5,-310.5 620.5,-310.5 620.5,-280.5 501.5,-280.5"/>
<text text-anchor="start" x="509.5" y="-298.5" font-family="Arial" font-size="10.00">include/miral/miral</text>
<text text-anchor="middle" x="561" y="-287.5" font-family="Arial" font-size="10.00">/window_specification.h</text>
</g>
<!-- Node1 -->
<g id="node2" class="node"><title>Node1</title>
<g id="a_node2"><a xlink:href="common_8h.html" target="_top" xlink:title="mir_toolkit/common.h">
<polygon fill="white" stroke="black" points="85,-224.5 85,-243.5 195,-243.5 195,-224.5 85,-224.5"/>
<text text-anchor="middle" x="140" y="-231.5" font-family="Arial" font-size="10.00">mir_toolkit/common.h</text>
</a>
</g>
</g>
<!-- Node0&#45;&gt;Node1 -->
<g id="edge1" class="edge"><title>Node0&#45;&gt;Node1</title>
<path fill="none" stroke="midnightblue" d="M501.128,-286.038C422.864,-274.977 286.263,-255.671 205.372,-244.239"/>
<polygon fill="midnightblue" stroke="midnightblue" points="205.699,-240.751 195.308,-242.817 204.719,-247.682 205.699,-240.751"/>
</g>
<!-- Node3 -->
<g id="node4" class="node"><title>Node3</title>
<g id="a_node4"><a xlink:href="displacement_8h.html" target="_top" xlink:title="mir/geometry/displacement.h">
<polygon fill="white" stroke="black" points="146.5,-168.5 146.5,-187.5 289.5,-187.5 289.5,-168.5 146.5,-168.5"/>
<text text-anchor="middle" x="218" y="-175.5" font-family="Arial" font-size="10.00">mir/geometry/displacement.h</text>
</a>
</g>
</g>
<!-- Node0&#45;&gt;Node3 -->
<g id="edge3" class="edge"><title>Node0&#45;&gt;Node3</title>
<path fill="none" stroke="midnightblue" d="M512.772,-280.475C479.756,-270.693 435.054,-257.097 396,-244 344.616,-226.768 285.653,-204.797 250.145,-191.322"/>
<polygon fill="midnightblue" stroke="midnightblue" points="250.936,-187.879 240.345,-187.593 248.446,-194.421 250.936,-187.879"/>
</g>
<!-- Node8 -->
<g id="node9" class="node"><title>Node8</title>
<g id="a_node9"><a xlink:href="rectangles_8h.html" target="_top" xlink:title="mir/geometry/rectangles.h">
<polygon fill="white" stroke="black" points="405,-224.5 405,-243.5 535,-243.5 535,-224.5 405,-224.5"/>
<text text-anchor="middle" x="470" y="-231.5" font-family="Arial" font-size="10.00">mir/geometry/rectangles.h</text>
</a>
</g>
</g>
<!-- Node0&#45;&gt;Node8 -->
<g id="edge11" class="edge"><title>Node0&#45;&gt;Node8</title>
<path fill="none" stroke="midnightblue" d="M539.434,-280.399C525.12,-271.04 506.388,-258.792 491.989,-249.377"/>
<polygon fill="midnightblue" stroke="midnightblue" points="493.526,-246.201 483.241,-243.658 489.696,-252.06 493.526,-246.201"/>
</g>
<!-- Node13 -->
<g id="node14" class="node"><title>Node13</title>
<g id="a_node14"><a xlink:href="optional__value_8h.html" target="_top" xlink:title="mir/optional_value.h">
<polygon fill="white" stroke="black" points="725,-224.5 725,-243.5 827,-243.5 827,-224.5 725,-224.5"/>
<text text-anchor="middle" x="776" y="-231.5" font-family="Arial" font-size="10.00">mir/optional_value.h</text>
</a>
</g>
</g>
<!-- Node0&#45;&gt;Node13 -->
<g id="edge21" class="edge"><title>Node0&#45;&gt;Node13</title>
<path fill="none" stroke="midnightblue" d="M611.68,-280.475C649.42,-270.03 700.271,-255.958 735.36,-246.247"/>
<polygon fill="midnightblue" stroke="midnightblue" points="736.558,-249.547 745.263,-243.506 734.691,-242.8 736.558,-249.547"/>
</g>
<!-- Node16 -->
<g id="node17" class="node"><title>Node16</title>
<g id="a_node17"><a xlink:href="int__wrapper_8h.html" target="_top" xlink:title="mir/int_wrapper.h">
<polygon fill="white" stroke="black" points="606.5,-224.5 606.5,-243.5 697.5,-243.5 697.5,-224.5 606.5,-224.5"/>
<text text-anchor="middle" x="652" y="-231.5" font-family="Arial" font-size="10.00">mir/int_wrapper.h</text>
</a>
</g>
</g>
<!-- Node0&#45;&gt;Node16 -->
<g id="edge24" class="edge"><title>Node0&#45;&gt;Node16</title>
<path fill="none" stroke="midnightblue" d="M582.566,-280.399C596.88,-271.04 615.612,-258.792 630.011,-249.377"/>
<polygon fill="midnightblue" stroke="midnightblue" points="632.304,-252.06 638.759,-243.658 628.474,-246.201 632.304,-252.06"/>
</g>
<!-- Node18 -->
<g id="node19" class="node"><title>Node18</title>
<polygon fill="white" stroke="#bfbfbf" points="845,-224.5 845,-243.5 897,-243.5 897,-224.5 845,-224.5"/>
<text text-anchor="middle" x="871" y="-231.5" font-family="Arial" font-size="10.00">memory</text>
</g>
<!-- Node0&#45;&gt;Node18 -->
<g id="edge27" class="edge"><title>Node0&#45;&gt;Node18</title>
<path fill="none" stroke="midnightblue" d="M620.518,-284.809C674.089,-275.806 755.178,-261.486 834.507,-244.213"/>
<polygon fill="midnightblue" stroke="midnightblue" points="835.657,-247.544 844.674,-241.98 834.156,-240.706 835.657,-247.544"/>
</g>
<!-- Node2 -->
<g id="node3" class="node"><title>Node2</title>
<g id="a_node3"><a xlink:href="deprecations_8h.html" target="_top" xlink:title="mir_toolkit/deprecations.h">
<polygon fill="white" stroke="black" points="0,-168.5 0,-187.5 128,-187.5 128,-168.5 0,-168.5"/>
<text text-anchor="middle" x="64" y="-175.5" font-family="Arial" font-size="10.00">mir_toolkit/deprecations.h</text>
</a>
</g>
</g>
<!-- Node1&#45;&gt;Node2 -->
<g id="edge2" class="edge"><title>Node1&#45;&gt;Node2</title>
<path fill="none" stroke="midnightblue" d="M127.789,-224.324C116.224,-216.107 98.6246,-203.602 84.8393,-193.807"/>
<polygon fill="midnightblue" stroke="midnightblue" points="86.612,-190.773 76.4329,-187.834 82.5575,-196.479 86.612,-190.773"/>
</g>
<!-- Node4 -->
<g id="node5" class="node"><title>Node4</title>
<g id="a_node5"><a xlink:href="dimensions_8h.html" target="_top" xlink:title="mir/geometry/dimensions.h">
<polygon fill="white" stroke="black" points="342,-56.5 342,-75.5 476,-75.5 476,-56.5 342,-56.5"/>
<text text-anchor="middle" x="409" y="-63.5" font-family="Arial" font-size="10.00">mir/geometry/dimensions.h</text>
</a>
</g>
</g>
<!-- Node3&#45;&gt;Node4 -->
<g id="edge4" class="edge"><title>Node3&#45;&gt;Node4</title>
<path fill="none" stroke="midnightblue" d="M232.987,-168.368C266.042,-149.332 345.423,-103.615 385.298,-80.6505"/>
<polygon fill="midnightblue" stroke="midnightblue" points="387.163,-83.6151 394.082,-75.5914 383.67,-77.5492 387.163,-83.6151"/>
</g>
<!-- Node6 -->
<g id="node7" class="node"><title>Node6</title>
<polygon fill="white" stroke="#bfbfbf" points="501,-0.5 501,-19.5 545,-19.5 545,-0.5 501,-0.5"/>
<text text-anchor="middle" x="523" y="-7.5" font-family="Arial" font-size="10.00">iosfwd</text>
</g>
<!-- Node3&#45;&gt;Node6 -->
<g id="edge10" class="edge"><title>Node3&#45;&gt;Node6</title>
<path fill="none" stroke="midnightblue" d="M223.524,-168.36C238.316,-145.972 281.24,-85.7516 333,-56 359.708,-40.648 444.265,-24.4121 491.065,-16.2859"/>
<polygon fill="midnightblue" stroke="midnightblue" points="491.729,-19.7232 500.994,-14.5851 490.547,-12.8237 491.729,-19.7232"/>
</g>
<!-- Node7 -->
<g id="node8" class="node"><title>Node7</title>
<g id="a_node8"><a xlink:href="point_8h.html" target="_top" xlink:title="mir/geometry/point.h">
<polygon fill="white" stroke="black" points="390,-112.5 390,-131.5 496,-131.5 496,-112.5 390,-112.5"/>
<text text-anchor="middle" x="443" y="-119.5" font-family="Arial" font-size="10.00">mir/geometry/point.h</text>
</a>
</g>
</g>
<!-- Node3&#45;&gt;Node7 -->
<g id="edge7" class="edge"><title>Node3&#45;&gt;Node7</title>
<path fill="none" stroke="midnightblue" d="M253.652,-168.444C292.656,-159.083 355.266,-144.056 397.717,-133.868"/>
<polygon fill="midnightblue" stroke="midnightblue" points="398.608,-137.254 407.515,-131.516 396.974,-130.447 398.608,-137.254"/>
</g>
<!-- Node5 -->
<g id="node6" class="node"><title>Node5</title>
<polygon fill="white" stroke="#bfbfbf" points="386,-0.5 386,-19.5 432,-19.5 432,-0.5 386,-0.5"/>
<text text-anchor="middle" x="409" y="-7.5" font-family="Arial" font-size="10.00">cstdint</text>
</g>
<!-- Node4&#45;&gt;Node5 -->
<g id="edge5" class="edge"><title>Node4&#45;&gt;Node5</title>
<path fill="none" stroke="midnightblue" d="M409,-56.083C409,-49.0059 409,-38.8611 409,-29.9865"/>
<polygon fill="midnightblue" stroke="midnightblue" points="412.5,-29.751 409,-19.7511 405.5,-29.7511 412.5,-29.751"/>
</g>
<!-- Node4&#45;&gt;Node6 -->
<g id="edge6" class="edge"><title>Node4&#45;&gt;Node6</title>
<path fill="none" stroke="midnightblue" d="M427.064,-56.4435C445.575,-47.6751 474.581,-33.9355 495.855,-23.8579"/>
<polygon fill="midnightblue" stroke="midnightblue" points="497.482,-26.9604 505.021,-19.5164 494.485,-20.6343 497.482,-26.9604"/>
</g>
<!-- Node7&#45;&gt;Node4 -->
<g id="edge8" class="edge"><title>Node7&#45;&gt;Node4</title>
<path fill="none" stroke="midnightblue" d="M437.386,-112.083C432.633,-104.534 425.682,-93.4948 419.848,-84.2298"/>
<polygon fill="midnightblue" stroke="midnightblue" points="422.8,-82.3486 414.51,-75.7511 416.876,-86.0783 422.8,-82.3486"/>
</g>
<!-- Node7&#45;&gt;Node6 -->
<g id="edge9" class="edge"><title>Node7&#45;&gt;Node6</title>
<path fill="none" stroke="midnightblue" d="M452.319,-112.22C461.281,-103.511 474.917,-89.5435 485,-76 496.197,-60.9607 506.776,-42.3685 513.915,-28.9262"/>
<polygon fill="midnightblue" stroke="midnightblue" points="517.154,-30.2826 518.656,-19.7948 510.942,-27.0567 517.154,-30.2826"/>
</g>
<!-- Node8&#45;&gt;Node7 -->
<g id="edge12" class="edge"><title>Node8&#45;&gt;Node7</title>
<path fill="none" stroke="midnightblue" d="M467.881,-224.368C463.524,-206.617 453.473,-165.666 447.565,-141.597"/>
<polygon fill="midnightblue" stroke="midnightblue" points="450.892,-140.469 445.109,-131.591 444.094,-142.137 450.892,-140.469"/>
</g>
<!-- Node9 -->
<g id="node10" class="node"><title>Node9</title>
<g id="a_node10"><a xlink:href="rectangle_8h.html" target="_top" xlink:title="mir/geometry/rectangle.h">
<polygon fill="white" stroke="black" points="498.5,-168.5 498.5,-187.5 623.5,-187.5 623.5,-168.5 498.5,-168.5"/>
<text text-anchor="middle" x="561" y="-175.5" font-family="Arial" font-size="10.00">mir/geometry/rectangle.h</text>
</a>
</g>
</g>
<!-- Node8&#45;&gt;Node9 -->
<g id="edge13" class="edge"><title>Node8&#45;&gt;Node9</title>
<path fill="none" stroke="midnightblue" d="M484.621,-224.324C498.949,-215.822 521.013,-202.729 537.749,-192.797"/>
<polygon fill="midnightblue" stroke="midnightblue" points="539.602,-195.768 546.416,-187.655 536.03,-189.748 539.602,-195.768"/>
</g>
<!-- Node11 -->
<g id="node12" class="node"><title>Node11</title>
<polygon fill="white" stroke="#bfbfbf" points="308,-168.5 308,-187.5 350,-187.5 350,-168.5 308,-168.5"/>
<text text-anchor="middle" x="329" y="-175.5" font-family="Arial" font-size="10.00">vector</text>
</g>
<!-- Node8&#45;&gt;Node11 -->
<g id="edge19" class="edge"><title>Node8&#45;&gt;Node11</title>
<path fill="none" stroke="midnightblue" d="M447.658,-224.444C423.972,-215.372 386.392,-200.98 359.881,-190.827"/>
<polygon fill="midnightblue" stroke="midnightblue" points="360.905,-187.471 350.314,-187.163 358.401,-194.008 360.905,-187.471"/>
</g>
<!-- Node12 -->
<g id="node13" class="node"><title>Node12</title>
<polygon fill="white" stroke="#bfbfbf" points="368.5,-168.5 368.5,-187.5 441.5,-187.5 441.5,-168.5 368.5,-168.5"/>
<text text-anchor="middle" x="405" y="-175.5" font-family="Arial" font-size="10.00">initializer_list</text>
</g>
<!-- Node8&#45;&gt;Node12 -->
<g id="edge20" class="edge"><title>Node8&#45;&gt;Node12</title>
<path fill="none" stroke="midnightblue" d="M459.557,-224.324C449.854,-216.263 435.185,-204.077 423.5,-194.369"/>
<polygon fill="midnightblue" stroke="midnightblue" points="425.562,-191.532 415.633,-187.834 421.089,-196.916 425.562,-191.532"/>
</g>
<!-- Node9&#45;&gt;Node6 -->
<g id="edge18" class="edge"><title>Node9&#45;&gt;Node6</title>
<path fill="none" stroke="midnightblue" d="M563.154,-168.087C565.867,-155.487 569.749,-131.794 566,-112 560.142,-81.0659 543.937,-47.996 533.18,-28.4293"/>
<polygon fill="midnightblue" stroke="midnightblue" points="536.105,-26.4911 528.134,-19.5108 530.012,-29.9379 536.105,-26.4911"/>
</g>
<!-- Node9&#45;&gt;Node7 -->
<g id="edge14" class="edge"><title>Node9&#45;&gt;Node7</title>
<path fill="none" stroke="midnightblue" d="M542.303,-168.444C523.056,-159.636 492.848,-145.812 470.8,-135.722"/>
<polygon fill="midnightblue" stroke="midnightblue" points="472.16,-132.495 461.61,-131.516 469.247,-138.86 472.16,-132.495"/>
</g>
<!-- Node10 -->
<g id="node11" class="node"><title>Node10</title>
<g id="a_node11"><a xlink:href="size_8h.html" target="_top" xlink:title="size.h">
<polygon fill="white" stroke="black" points="514.5,-112.5 514.5,-131.5 557.5,-131.5 557.5,-112.5 514.5,-112.5"/>
<text text-anchor="middle" x="536" y="-119.5" font-family="Arial" font-size="10.00">size.h</text>
</a>
</g>
</g>
<!-- Node9&#45;&gt;Node10 -->
<g id="edge15" class="edge"><title>Node9&#45;&gt;Node10</title>
<path fill="none" stroke="midnightblue" d="M556.872,-168.083C553.486,-160.77 548.584,-150.181 544.381,-141.103"/>
<polygon fill="midnightblue" stroke="midnightblue" points="547.429,-139.355 540.051,-131.751 541.077,-142.296 547.429,-139.355"/>
</g>
<!-- Node10&#45;&gt;Node4 -->
<g id="edge16" class="edge"><title>Node10&#45;&gt;Node4</title>
<path fill="none" stroke="midnightblue" d="M515.876,-112.444C494.976,-103.557 462.065,-89.5632 438.284,-79.4514"/>
<polygon fill="midnightblue" stroke="midnightblue" points="439.602,-76.2085 429.029,-75.5164 436.862,-82.6504 439.602,-76.2085"/>
</g>
<!-- Node10&#45;&gt;Node6 -->
<g id="edge17" class="edge"><title>Node10&#45;&gt;Node6</title>
<path fill="none" stroke="midnightblue" d="M534.98,-112.368C532.882,-94.617 528.042,-53.6664 525.198,-29.5974"/>
<polygon fill="midnightblue" stroke="midnightblue" points="528.665,-29.1115 524.015,-19.5914 521.713,-29.9331 528.665,-29.1115"/>
</g>
<!-- Node14 -->
<g id="node15" class="node"><title>Node14</title>
<g id="a_node15"><a xlink:href="fatal_8h.html" target="_top" xlink:title="mir/fatal.h">
<polygon fill="white" stroke="black" points="756.5,-168.5 756.5,-187.5 815.5,-187.5 815.5,-168.5 756.5,-168.5"/>
<text text-anchor="middle" x="786" y="-175.5" font-family="Arial" font-size="10.00">mir/fatal.h</text>
</a>
</g>
</g>
<!-- Node13&#45;&gt;Node14 -->
<g id="edge22" class="edge"><title>Node13&#45;&gt;Node14</title>
<path fill="none" stroke="midnightblue" d="M777.651,-224.083C778.976,-216.927 780.882,-206.635 782.539,-197.691"/>
<polygon fill="midnightblue" stroke="midnightblue" points="786,-198.221 784.379,-187.751 779.117,-196.947 786,-198.221"/>
</g>
<!-- Node15 -->
<g id="node16" class="node"><title>Node15</title>
<polygon fill="white" stroke="#bfbfbf" points="834,-168.5 834,-187.5 874,-187.5 874,-168.5 834,-168.5"/>
<text text-anchor="middle" x="854" y="-175.5" font-family="Arial" font-size="10.00">utility</text>
</g>
<!-- Node13&#45;&gt;Node15 -->
<g id="edge23" class="edge"><title>Node13&#45;&gt;Node15</title>
<path fill="none" stroke="midnightblue" d="M788.532,-224.324C800.586,-215.979 819.027,-203.212 833.269,-193.352"/>
<polygon fill="midnightblue" stroke="midnightblue" points="835.269,-196.224 841.499,-187.655 831.285,-190.469 835.269,-196.224"/>
</g>
<!-- Node16&#45;&gt;Node6 -->
<g id="edge25" class="edge"><title>Node16&#45;&gt;Node6</title>
<path fill="none" stroke="midnightblue" d="M650.027,-224.356C646.981,-211.68 640.578,-187.444 632,-168 608.678,-115.138 600.855,-102.08 566,-56 558.195,-45.6812 548.284,-35.1709 539.945,-26.9055"/>
<polygon fill="midnightblue" stroke="midnightblue" points="542.171,-24.1889 532.552,-19.7484 537.302,-29.2184 542.171,-24.1889"/>
</g>
<!-- Node17 -->
<g id="node18" class="node"><title>Node17</title>
<polygon fill="white" stroke="#bfbfbf" points="680,-168.5 680,-187.5 738,-187.5 738,-168.5 680,-168.5"/>
<text text-anchor="middle" x="709" y="-175.5" font-family="Arial" font-size="10.00">functional</text>
</g>
<!-- Node16&#45;&gt;Node17 -->
<g id="edge26" class="edge"><title>Node16&#45;&gt;Node17</title>
<path fill="none" stroke="midnightblue" d="M661.158,-224.324C669.501,-216.42 682.032,-204.548 692.177,-194.938"/>
<polygon fill="midnightblue" stroke="midnightblue" points="694.823,-197.252 699.675,-187.834 690.009,-192.171 694.823,-197.252"/>
</g>
</g>
</svg>
