<?xml version="1.0" encoding="UTF-8" standalone="no"?>
<!DOCTYPE svg PUBLIC "-//W3C//DTD SVG 1.1//EN"
 "http://www.w3.org/Graphics/SVG/1.1/DTD/svg11.dtd">
<!-- Generated by graphviz version 2.38.0 (20140413.2041)
 -->
<!-- Title: include/miral/miral/window_specification.h Pages: 1 -->
<svg width="1090pt" height="407pt"
 viewBox="0.00 0.00 1089.50 407.00" xmlns="http://www.w3.org/2000/svg" xmlns:xlink="http://www.w3.org/1999/xlink">
<g id="graph0" class="graph" transform="scale(1 1) rotate(0) translate(4 403)">
<title>include/miral/miral/window_specification.h</title>
<polygon fill="white" stroke="none" points="-4,4 -4,-403 1085.5,-403 1085.5,4 -4,4"/>
<!-- Node19 -->
<g id="node1" class="node"><title>Node19</title>
<polygon fill="#bfbfbf" stroke="black" points="309.5,-368.5 309.5,-398.5 428.5,-398.5 428.5,-368.5 309.5,-368.5"/>
<text text-anchor="start" x="317.5" y="-386.5" font-family="Arial" font-size="10.00">include/miral/miral</text>
<text text-anchor="middle" x="369" y="-375.5" font-family="Arial" font-size="10.00">/window_specification.h</text>
</g>
<!-- Node20 -->
<g id="node2" class="node"><title>Node20</title>
<g id="a_node2"><a xlink:href="window__info_8h.html" target="_top" xlink:title="include/miral/miral\l/window_info.h">
<polygon fill="white" stroke="black" points="321.5,-301.5 321.5,-331.5 416.5,-331.5 416.5,-301.5 321.5,-301.5"/>
<text text-anchor="start" x="329.5" y="-319.5" font-family="Arial" font-size="10.00">include/miral/miral</text>
<text text-anchor="middle" x="369" y="-308.5" font-family="Arial" font-size="10.00">/window_info.h</text>
</a>
</g>
</g>
<!-- Node19&#45;&gt;Node20 -->
<g id="edge1" class="edge"><title>Node19&#45;&gt;Node20</title>
<path fill="none" stroke="midnightblue" d="M369,-358.108C369,-349.154 369,-339.323 369,-331.577"/>
<polygon fill="midnightblue" stroke="midnightblue" points="365.5,-358.396 369,-368.396 372.5,-358.396 365.5,-358.396"/>
</g>
<!-- Node21 -->
<g id="node3" class="node"><title>Node21</title>
<g id="a_node3"><a xlink:href="kiosk__window__manager_8cpp.html" target="_top" xlink:title="examples/miral&#45;kiosk\l/kiosk_window_manager.cpp">
<polygon fill="white" stroke="black" points="940.5,-11.5 940.5,-41.5 1081.5,-41.5 1081.5,-11.5 940.5,-11.5"/>
<text text-anchor="start" x="948.5" y="-29.5" font-family="Arial" font-size="10.00">examples/miral&#45;kiosk</text>
<text text-anchor="middle" x="1011" y="-18.5" font-family="Arial" font-size="10.00">/kiosk_window_manager.cpp</text>
</a>
</g>
</g>
<!-- Node20&#45;&gt;Node21 -->
<g id="edge2" class="edge"><title>Node20&#45;&gt;Node21</title>
<path fill="none" stroke="midnightblue" d="M426.947,-306.314C565.702,-283.096 910.925,-217.68 984,-131 1005.9,-105.018 1010.29,-63.2934 1011.01,-41.6101"/>
<polygon fill="midnightblue" stroke="midnightblue" points="426.217,-302.888 416.926,-307.978 427.364,-309.793 426.217,-302.888"/>
</g>
<!-- Node22 -->
<g id="node4" class="node"><title>Node22</title>
<g id="a_node4"><a xlink:href="floating__window__manager_8cpp.html" target="_top" xlink:title="examples/example&#45;server\l&#45;lib/floating_window_manager.cpp">
<polygon fill="white" stroke="black" points="0,-11.5 0,-41.5 162,-41.5 162,-11.5 0,-11.5"/>
<text text-anchor="start" x="8" y="-29.5" font-family="Arial" font-size="10.00">examples/example&#45;server</text>
<text text-anchor="middle" x="81" y="-18.5" font-family="Arial" font-size="10.00">&#45;lib/floating_window_manager.cpp</text>
</a>
</g>
</g>
<!-- Node20&#45;&gt;Node22 -->
<g id="edge3" class="edge"><title>Node20&#45;&gt;Node22</title>
<path fill="none" stroke="midnightblue" d="M311.355,-305.699C249.291,-292.164 151.838,-261.783 95,-198 55.2836,-153.431 69.3038,-73.741 77.1613,-41.5565"/>
<polygon fill="midnightblue" stroke="midnightblue" points="310.872,-309.174 321.378,-307.806 312.312,-302.323 310.872,-309.174"/>
</g>
<!-- Node23 -->
<g id="node5" class="node"><title>Node23</title>
<g id="a_node5"><a xlink:href="tiling__window__manager_8cpp.html" target="_top" xlink:title="examples/example&#45;server\l&#45;lib/tiling_window_manager.cpp">
<polygon fill="white" stroke="black" points="282.5,-95 282.5,-125 433.5,-125 433.5,-95 282.5,-95"/>
<text text-anchor="start" x="290.5" y="-113" font-family="Arial" font-size="10.00">examples/example&#45;server</text>
<text text-anchor="middle" x="358" y="-102" font-family="Arial" font-size="10.00">&#45;lib/tiling_window_manager.cpp</text>
</a>
</g>
</g>
<!-- Node20&#45;&gt;Node23 -->
<g id="edge4" class="edge"><title>Node20&#45;&gt;Node23</title>
<path fill="none" stroke="midnightblue" d="M353.663,-292.541C348.955,-284.226 344.388,-274.529 342,-265 329.392,-214.677 344.888,-152.702 353.279,-125.246"/>
<polygon fill="midnightblue" stroke="midnightblue" points="350.763,-294.51 358.93,-301.26 356.755,-290.89 350.763,-294.51"/>
</g>
<!-- Node24 -->
<g id="node6" class="node"><title>Node24</title>
<g id="a_node6"><a xlink:href="window__manager__tools_8h.html" target="_top" xlink:title="include/miral/miral\l/window_manager_tools.h">
<polygon fill="white" stroke="black" points="351,-234.5 351,-264.5 479,-264.5 479,-234.5 351,-234.5"/>
<text text-anchor="start" x="359" y="-252.5" font-family="Arial" font-size="10.00">include/miral/miral</text>
<text text-anchor="middle" x="415" y="-241.5" font-family="Arial" font-size="10.00">/window_manager_tools.h</text>
</a>
</g>
</g>
<!-- Node20&#45;&gt;Node24 -->
<g id="edge5" class="edge"><title>Node20&#45;&gt;Node24</title>
<path fill="none" stroke="midnightblue" d="M384.812,-293.157C391.52,-283.679 399.135,-272.919 405.038,-264.577"/>
<polygon fill="midnightblue" stroke="midnightblue" points="381.901,-291.211 378.981,-301.396 387.615,-295.255 381.901,-291.211"/>
</g>
<!-- Node24&#45;&gt;Node21 -->
<g id="edge6" class="edge"><title>Node24&#45;&gt;Node21</title>
<path fill="none" stroke="midnightblue" d="M489.744,-240.748C620.459,-225.828 883.326,-189.338 953,-131 982.059,-106.669 999.308,-63.8456 1006.71,-41.682"/>
<polygon fill="midnightblue" stroke="midnightblue" points="488.966,-237.313 479.421,-241.913 489.751,-244.269 488.966,-237.313"/>
</g>
<!-- Node24&#45;&gt;Node22 -->
<g id="edge10" class="edge"><title>Node24&#45;&gt;Node22</title>
<path fill="none" stroke="midnightblue" d="M340.545,-243.624C265.426,-237.327 155.965,-223.944 123,-198 74.6087,-159.915 76.4349,-75.7762 79.3585,-41.9748"/>
<polygon fill="midnightblue" stroke="midnightblue" points="340.655,-247.145 350.906,-244.466 341.222,-240.168 340.655,-247.145"/>
</g>
<!-- Node24&#45;&gt;Node23 -->
<g id="edge14" class="edge"><title>Node24&#45;&gt;Node23</title>
<path fill="none" stroke="midnightblue" d="M396.939,-226.149C390.842,-217.724 384.458,-207.801 380,-198 368.905,-173.608 362.788,-142.719 359.968,-125.075"/>
<polygon fill="midnightblue" stroke="midnightblue" points="394.283,-228.44 403.098,-234.319 399.873,-224.227 394.283,-228.44"/>
</g>
<!-- Node25 -->
<g id="node7" class="node"><title>Node25</title>
<g id="a_node7"><a xlink:href="decoration__provider_8h.html" target="_top" xlink:title="examples/example&#45;server\l&#45;lib/decoration_provider.h">
<polygon fill="white" stroke="black" points="132,-167.5 132,-197.5 260,-197.5 260,-167.5 132,-167.5"/>
<text text-anchor="start" x="140" y="-185.5" font-family="Arial" font-size="10.00">examples/example&#45;server</text>
<text text-anchor="middle" x="196" y="-174.5" font-family="Arial" font-size="10.00">&#45;lib/decoration_provider.h</text>
</a>
</g>
</g>
<!-- Node24&#45;&gt;Node25 -->
<g id="edge7" class="edge"><title>Node24&#45;&gt;Node25</title>
<path fill="none" stroke="midnightblue" d="M357.992,-231.58C322.422,-221.022 277.172,-207.592 243.543,-197.611"/>
<polygon fill="midnightblue" stroke="midnightblue" points="357.167,-234.986 367.75,-234.476 359.159,-228.275 357.167,-234.986"/>
</g>
<!-- Node27 -->
<g id="node9" class="node"><title>Node27</title>
<g id="a_node9"><a xlink:href="tiling__window__manager_8h.html" target="_top" xlink:title="examples/example&#45;server\l&#45;lib/tiling_window_manager.h">
<polygon fill="white" stroke="black" points="389,-167.5 389,-197.5 529,-197.5 529,-167.5 389,-167.5"/>
<text text-anchor="start" x="397" y="-185.5" font-family="Arial" font-size="10.00">examples/example&#45;server</text>
<text text-anchor="middle" x="459" y="-174.5" font-family="Arial" font-size="10.00">&#45;lib/tiling_window_manager.h</text>
</a>
</g>
</g>
<!-- Node24&#45;&gt;Node27 -->
<g id="edge11" class="edge"><title>Node24&#45;&gt;Node27</title>
<path fill="none" stroke="midnightblue" d="M430.321,-225.867C436.689,-216.459 443.882,-205.833 449.471,-197.577"/>
<polygon fill="midnightblue" stroke="midnightblue" points="427.255,-224.153 424.547,-234.396 433.051,-228.077 427.255,-224.153"/>
</g>
<!-- Node29 -->
<g id="node11" class="node"><title>Node29</title>
<g id="a_node11"><a xlink:href="canonical__window__manager_8h.html" target="_top" xlink:title="include/miral/miral\l/canonical_window_manager.h">
<polygon fill="white" stroke="black" points="602.5,-167.5 602.5,-197.5 751.5,-197.5 751.5,-167.5 602.5,-167.5"/>
<text text-anchor="start" x="610.5" y="-185.5" font-family="Arial" font-size="10.00">include/miral/miral</text>
<text text-anchor="middle" x="677" y="-174.5" font-family="Arial" font-size="10.00">/canonical_window_manager.h</text>
</a>
</g>
</g>
<!-- Node24&#45;&gt;Node29 -->
<g id="edge15" class="edge"><title>Node24&#45;&gt;Node29</title>
<path fill="none" stroke="midnightblue" d="M481.3,-232.052C524.133,-221.425 579.288,-207.741 620.122,-197.611"/>
<polygon fill="midnightblue" stroke="midnightblue" points="480.391,-228.671 471.528,-234.476 482.076,-235.465 480.391,-228.671"/>
</g>
<!-- Node25&#45;&gt;Node22 -->
<g id="edge9" class="edge"><title>Node25&#45;&gt;Node22</title>
<path fill="none" stroke="midnightblue" d="M156.827,-162.459C143.345,-154.323 129.112,-143.735 119,-131 97.3364,-103.717 87.2693,-62.9149 83.2594,-41.6058"/>
<polygon fill="midnightblue" stroke="midnightblue" points="155.112,-165.51 165.528,-167.449 158.595,-159.438 155.112,-165.51"/>
</g>
<!-- Node26 -->
<g id="node8" class="node"><title>Node26</title>
<g id="a_node8"><a xlink:href="decoration__provider_8cpp.html" target="_top" xlink:title="examples/example&#45;server\l&#45;lib/decoration_provider.cpp">
<polygon fill="white" stroke="black" points="128,-95 128,-125 264,-125 264,-95 128,-95"/>
<text text-anchor="start" x="136" y="-113" font-family="Arial" font-size="10.00">examples/example&#45;server</text>
<text text-anchor="middle" x="196" y="-102" font-family="Arial" font-size="10.00">&#45;lib/decoration_provider.cpp</text>
</a>
</g>
</g>
<!-- Node25&#45;&gt;Node26 -->
<g id="edge8" class="edge"><title>Node25&#45;&gt;Node26</title>
<path fill="none" stroke="midnightblue" d="M196,-157.232C196,-146.568 196,-134.414 196,-125.246"/>
<polygon fill="midnightblue" stroke="midnightblue" points="192.5,-157.233 196,-167.233 199.5,-157.233 192.5,-157.233"/>
</g>
<!-- Node27&#45;&gt;Node23 -->
<g id="edge13" class="edge"><title>Node27&#45;&gt;Node23</title>
<path fill="none" stroke="midnightblue" d="M430.249,-161.431C413.575,-149.792 392.99,-135.424 378.064,-125.005"/>
<polygon fill="midnightblue" stroke="midnightblue" points="428.358,-164.379 438.561,-167.233 432.365,-158.64 428.358,-164.379"/>
</g>
<!-- Node28 -->
<g id="node10" class="node"><title>Node28</title>
<g id="a_node10"><a xlink:href="shell__main_8cpp.html" target="_top" xlink:title="examples/miral&#45;shell\l/shell_main.cpp">
<polygon fill="white" stroke="black" points="461,-11.5 461,-41.5 567,-41.5 567,-11.5 461,-11.5"/>
<text text-anchor="start" x="469" y="-29.5" font-family="Arial" font-size="10.00">examples/miral&#45;shell</text>
<text text-anchor="middle" x="514" y="-18.5" font-family="Arial" font-size="10.00">/shell_main.cpp</text>
</a>
</g>
</g>
<!-- Node27&#45;&gt;Node28 -->
<g id="edge12" class="edge"><title>Node27&#45;&gt;Node28</title>
<path fill="none" stroke="midnightblue" d="M462.945,-157.472C466.48,-138.497 472.435,-111.55 481,-89 487.454,-72.0087 497.674,-53.8148 505.031,-41.661"/>
<polygon fill="midnightblue" stroke="midnightblue" points="459.49,-156.915 461.186,-167.373 466.382,-158.139 459.49,-156.915"/>
</g>
<!-- Node30 -->
<g id="node12" class="node"><title>Node30</title>
<g id="a_node12"><a xlink:href="kiosk__window__manager_8h.html" target="_top" xlink:title="examples/miral&#45;kiosk\l/kiosk_window_manager.h">
<polygon fill="white" stroke="black" points="813.5,-95 813.5,-125 944.5,-125 944.5,-95 813.5,-95"/>
<text text-anchor="start" x="821.5" y="-113" font-family="Arial" font-size="10.00">examples/miral&#45;kiosk</text>
<text text-anchor="middle" x="879" y="-102" font-family="Arial" font-size="10.00">/kiosk_window_manager.h</text>
</a>
</g>
</g>
<!-- Node29&#45;&gt;Node30 -->
<g id="edge16" class="edge"><title>Node29&#45;&gt;Node30</title>
<path fill="none" stroke="midnightblue" d="M727.244,-163.965C761.633,-151.962 806.631,-136.258 838.678,-125.073"/>
<polygon fill="midnightblue" stroke="midnightblue" points="725.68,-160.803 717.392,-167.403 727.987,-167.412 725.68,-160.803"/>
</g>
<!-- Node32 -->
<g id="node14" class="node"><title>Node32</title>
<g id="a_node14"><a xlink:href="floating__window__manager_8h.html" target="_top" xlink:title="examples/example&#45;server\l&#45;lib/floating_window_manager.h">
<polygon fill="white" stroke="black" points="490,-95 490,-125 642,-125 642,-95 490,-95"/>
<text text-anchor="start" x="498" y="-113" font-family="Arial" font-size="10.00">examples/example&#45;server</text>
<text text-anchor="middle" x="566" y="-102" font-family="Arial" font-size="10.00">&#45;lib/floating_window_manager.h</text>
</a>
</g>
</g>
<!-- Node29&#45;&gt;Node32 -->
<g id="edge19" class="edge"><title>Node29&#45;&gt;Node32</title>
<path fill="none" stroke="midnightblue" d="M646.176,-161.922C627.757,-150.224 604.785,-135.634 588.157,-125.073"/>
<polygon fill="midnightblue" stroke="midnightblue" points="644.486,-164.996 654.804,-167.403 648.239,-159.087 644.486,-164.996"/>
</g>
<!-- Node33 -->
<g id="node15" class="node"><title>Node33</title>
<g id="a_node15"><a xlink:href="canonical__window__manager__policy_8h.html" target="_top" xlink:title="include/test/mir_test\l_framework/canonical\l_window_manager_policy.h">
<polygon fill="white" stroke="black" points="660.5,-89.5 660.5,-130.5 795.5,-130.5 795.5,-89.5 660.5,-89.5"/>
<text text-anchor="start" x="668.5" y="-118.5" font-family="Arial" font-size="10.00">include/test/mir_test</text>
<text text-anchor="start" x="668.5" y="-107.5" font-family="Arial" font-size="10.00">_framework/canonical</text>
<text text-anchor="middle" x="728" y="-96.5" font-family="Arial" font-size="10.00">_window_manager_policy.h</text>
</a>
</g>
</g>
<!-- Node29&#45;&gt;Node33 -->
<g id="edge22" class="edge"><title>Node29&#45;&gt;Node33</title>
<path fill="none" stroke="midnightblue" d="M693.293,-158.978C699.898,-149.846 707.457,-139.398 713.83,-130.588"/>
<polygon fill="midnightblue" stroke="midnightblue" points="690.346,-157.08 687.321,-167.233 696.018,-161.182 690.346,-157.08"/>
</g>
<!-- Node30&#45;&gt;Node21 -->
<g id="edge18" class="edge"><title>Node30&#45;&gt;Node21</title>
<path fill="none" stroke="midnightblue" d="M910.402,-89.6114C934.315,-74.8473 966.675,-54.8675 988.163,-41.6003"/>
<polygon fill="midnightblue" stroke="midnightblue" points="908.362,-86.758 901.692,-94.9897 912.039,-92.7141 908.362,-86.758"/>
</g>
<!-- Node31 -->
<g id="node13" class="node"><title>Node31</title>
<g id="a_node13"><a xlink:href="kiosk__main_8cpp.html" target="_top" xlink:title="examples/miral&#45;kiosk\l/kiosk_main.cpp">
<polygon fill="white" stroke="black" points="813.5,-11.5 813.5,-41.5 922.5,-41.5 922.5,-11.5 813.5,-11.5"/>
<text text-anchor="start" x="821.5" y="-29.5" font-family="Arial" font-size="10.00">examples/miral&#45;kiosk</text>
<text text-anchor="middle" x="868" y="-18.5" font-family="Arial" font-size="10.00">/kiosk_main.cpp</text>
</a>
</g>
</g>
<!-- Node30&#45;&gt;Node31 -->
<g id="edge17" class="edge"><title>Node30&#45;&gt;Node31</title>
<path fill="none" stroke="midnightblue" d="M875.732,-84.7839C873.829,-70.6843 871.496,-53.4047 869.894,-41.5335"/>
<polygon fill="midnightblue" stroke="midnightblue" points="872.278,-85.3618 877.084,-94.8038 879.215,-84.4255 872.278,-85.3618"/>
</g>
<!-- Node32&#45;&gt;Node22 -->
<g id="edge21" class="edge"><title>Node32&#45;&gt;Node22</title>
<path fill="none" stroke="midnightblue" d="M480.064,-94.5592C390.212,-79.4604 250.269,-55.9442 162.22,-41.1483"/>
<polygon fill="midnightblue" stroke="midnightblue" points="479.51,-98.0152 489.952,-96.2208 480.67,-91.112 479.51,-98.0152"/>
</g>
<!-- Node32&#45;&gt;Node28 -->
<g id="edge20" class="edge"><title>Node32&#45;&gt;Node28</title>
<path fill="none" stroke="midnightblue" d="M551.338,-86.0195C542.205,-71.7055 530.751,-53.7538 522.954,-41.5335"/>
<polygon fill="midnightblue" stroke="midnightblue" points="548.613,-88.2561 556.942,-94.8038 554.514,-84.491 548.613,-88.2561"/>
</g>
<!-- Node34 -->
<g id="node16" class="node"><title>Node34</title>
<g id="a_node16"><a xlink:href="declarative__placement__window__manage__policy_8h.html" target="_top" xlink:title="include/test/mir_test\l_framework/declarative\l_placement_window_manage\l_policy.h">
<polygon fill="white" stroke="black" points="652.5,-0.5 652.5,-52.5 795.5,-52.5 795.5,-0.5 652.5,-0.5"/>
<text text-anchor="start" x="660.5" y="-40.5" font-family="Arial" font-size="10.00">include/test/mir_test</text>
<text text-anchor="start" x="660.5" y="-29.5" font-family="Arial" font-size="10.00">_framework/declarative</text>
<text text-anchor="start" x="660.5" y="-18.5" font-family="Arial" font-size="10.00">_placement_window_manage</text>
<text text-anchor="middle" x="724" y="-7.5" font-family="Arial" font-size="10.00">_policy.h</text>
</a>
</g>
</g>
<!-- Node33&#45;&gt;Node34 -->
<g id="edge23" class="edge"><title>Node33&#45;&gt;Node34</title>
<path fill="none" stroke="midnightblue" d="M726.534,-79.1211C726.106,-70.4126 725.644,-60.9894 725.232,-52.6073"/>
<polygon fill="midnightblue" stroke="midnightblue" points="723.046,-79.4548 727.032,-89.2711 730.037,-79.1115 723.046,-79.4548"/>
</g>
</g>
</svg>
