<?xml version="1.0" encoding="UTF-8" standalone="no"?>
<!DOCTYPE svg PUBLIC "-//W3C//DTD SVG 1.1//EN"
 "http://www.w3.org/Graphics/SVG/1.1/DTD/svg11.dtd">
<!-- Generated by graphviz version 2.43.0 (0)
 -->
<!-- Title: include/miral/miral/window_management_policy.h Pages: 1 -->
<svg width="433pt" height="431pt"
 viewBox="0.00 0.00 432.62 431.00" xmlns="http://www.w3.org/2000/svg" xmlns:xlink="http://www.w3.org/1999/xlink">
<g id="graph0" class="graph" transform="scale(1 1) rotate(0) translate(4 427)">
<title>include/miral/miral/window_management_policy.h</title>
<polygon fill="white" stroke="transparent" points="-4,4 -4,-427 428.62,-427 428.62,4 -4,4"/>
<!-- Node1 -->
<g id="node1" class="node">
<title>Node1</title>
<g id="a_node1"><a xlink:title=" ">
<polygon fill="#bfbfbf" stroke="black" points="104,-392.5 104,-422.5 256,-422.5 256,-392.5 104,-392.5"/>
<text text-anchor="start" x="112" y="-410.5" font-family="Arial" font-size="10.00">include/miral/miral</text>
<text text-anchor="middle" x="180" y="-399.5" font-family="Arial" font-size="10.00">/window_management_policy.h</text>
</a>
</g>
</g>
<!-- Node2 -->
<g id="node2" class="node">
<title>Node2</title>
<g id="a_node2"><a xlink:href="displacement_8h.html" target="_top" xlink:title=" ">
<polygon fill="white" stroke="black" points="112.5,-224.5 112.5,-243.5 255.5,-243.5 255.5,-224.5 112.5,-224.5"/>
<text text-anchor="middle" x="184" y="-231.5" font-family="Arial" font-size="10.00">mir/geometry/displacement.h</text>
</a>
</g>
</g>
<!-- Node1&#45;&gt;Node2 -->
<g id="edge1" class="edge">
<title>Node1&#45;&gt;Node2</title>
<path fill="none" stroke="midnightblue" d="M103.85,-397.46C78.36,-390.4 52.51,-377.92 37,-356 19.73,-331.58 52.23,-291.53 65,-280 83.07,-263.69 107.63,-253.08 129.75,-246.29"/>
<polygon fill="midnightblue" stroke="midnightblue" points="130.73,-249.65 139.38,-243.52 128.8,-242.92 130.73,-249.65"/>
</g>
<!-- Node14 -->
<g id="node14" class="node">
<title>Node14</title>
<g id="a_node14"><a xlink:href="rectangles_8h.html" target="_top" xlink:title=" ">
<polygon fill="white" stroke="black" points="46,-336.5 46,-355.5 176,-355.5 176,-336.5 46,-336.5"/>
<text text-anchor="middle" x="111" y="-343.5" font-family="Arial" font-size="10.00">mir/geometry/rectangles.h</text>
</a>
</g>
</g>
<!-- Node1&#45;&gt;Node14 -->
<g id="edge20" class="edge">
<title>Node1&#45;&gt;Node14</title>
<path fill="none" stroke="midnightblue" d="M163.65,-392.4C153.1,-383.31 139.4,-371.49 128.62,-362.19"/>
<polygon fill="midnightblue" stroke="midnightblue" points="130.9,-359.54 121.04,-355.66 126.33,-364.84 130.9,-359.54"/>
</g>
<!-- Node19 -->
<g id="node19" class="node">
<title>Node19</title>
<g id="a_node19"><a xlink:href="common_8h.html" target="_top" xlink:title=" ">
<polygon fill="white" stroke="black" points="194,-336.5 194,-355.5 304,-355.5 304,-336.5 194,-336.5"/>
<text text-anchor="middle" x="249" y="-343.5" font-family="Arial" font-size="10.00">mir_toolkit/common.h</text>
</a>
</g>
</g>
<!-- Node1&#45;&gt;Node19 -->
<g id="edge33" class="edge">
<title>Node1&#45;&gt;Node19</title>
<path fill="none" stroke="midnightblue" d="M196.35,-392.4C206.9,-383.31 220.6,-371.49 231.38,-362.19"/>
<polygon fill="midnightblue" stroke="midnightblue" points="233.67,-364.84 238.96,-355.66 229.1,-359.54 233.67,-364.84"/>
</g>
<!-- Node20 -->
<g id="node20" class="node">
<title>Node20</title>
<g id="a_node20"><a xlink:title=" ">
<polygon fill="white" stroke="#bfbfbf" points="322,-336.5 322,-355.5 374,-355.5 374,-336.5 322,-336.5"/>
<text text-anchor="middle" x="348" y="-343.5" font-family="Arial" font-size="10.00">memory</text>
</a>
</g>
</g>
<!-- Node1&#45;&gt;Node20 -->
<g id="edge34" class="edge">
<title>Node1&#45;&gt;Node20</title>
<path fill="none" stroke="midnightblue" d="M219.81,-392.4C248.5,-382.24 286.81,-368.67 314.06,-359.02"/>
<polygon fill="midnightblue" stroke="midnightblue" points="315.3,-362.3 323.55,-355.66 312.96,-355.7 315.3,-362.3"/>
</g>
<!-- Node3 -->
<g id="node3" class="node">
<title>Node3</title>
<g id="a_node3"><a xlink:href="displacement__generic_8h.html" target="_top" xlink:title=" ">
<polygon fill="white" stroke="black" points="193.5,-112.5 193.5,-131.5 312.5,-131.5 312.5,-112.5 193.5,-112.5"/>
<text text-anchor="middle" x="253" y="-119.5" font-family="Arial" font-size="10.00">displacement_generic.h</text>
</a>
</g>
</g>
<!-- Node2&#45;&gt;Node3 -->
<g id="edge2" class="edge">
<title>Node2&#45;&gt;Node3</title>
<path fill="none" stroke="midnightblue" d="M185.17,-224.4C187.26,-211.36 192.53,-186.17 204,-168 211.35,-156.37 222.46,-145.82 232.25,-137.86"/>
<polygon fill="midnightblue" stroke="midnightblue" points="234.61,-140.46 240.39,-131.58 230.33,-134.92 234.61,-140.46"/>
</g>
<!-- Node8 -->
<g id="node8" class="node">
<title>Node8</title>
<g id="a_node8"><a xlink:href="dimensions_8h.html" target="_top" xlink:title=" ">
<polygon fill="white" stroke="black" points="0,-112.5 0,-131.5 74,-131.5 74,-112.5 0,-112.5"/>
<text text-anchor="middle" x="37" y="-119.5" font-family="Arial" font-size="10.00">dimensions.h</text>
</a>
</g>
</g>
<!-- Node2&#45;&gt;Node8 -->
<g id="edge7" class="edge">
<title>Node2&#45;&gt;Node8</title>
<path fill="none" stroke="midnightblue" d="M176.21,-224.3C164.15,-211.12 139.84,-185.76 116,-168 99.65,-155.82 79.68,-144.47 63.91,-136.22"/>
<polygon fill="midnightblue" stroke="midnightblue" points="65.2,-132.95 54.71,-131.5 62.01,-139.18 65.2,-132.95"/>
</g>
<!-- Node10 -->
<g id="node10" class="node">
<title>Node10</title>
<g id="a_node10"><a xlink:href="point_8h.html" target="_top" xlink:title=" ">
<polygon fill="white" stroke="black" points="61,-168.5 61,-187.5 107,-187.5 107,-168.5 61,-168.5"/>
<text text-anchor="middle" x="84" y="-175.5" font-family="Arial" font-size="10.00">point.h</text>
</a>
</g>
</g>
<!-- Node2&#45;&gt;Node10 -->
<g id="edge10" class="edge">
<title>Node2&#45;&gt;Node10</title>
<path fill="none" stroke="midnightblue" d="M167.93,-224.32C152.04,-215.74 127.49,-202.49 109.04,-192.52"/>
<polygon fill="midnightblue" stroke="midnightblue" points="110.49,-189.33 100.03,-187.65 107.16,-195.49 110.49,-189.33"/>
</g>
<!-- Node12 -->
<g id="node12" class="node">
<title>Node12</title>
<g id="a_node12"><a xlink:href="size_8h.html" target="_top" xlink:title=" ">
<polygon fill="white" stroke="black" points="212.5,-168.5 212.5,-187.5 255.5,-187.5 255.5,-168.5 212.5,-168.5"/>
<text text-anchor="middle" x="234" y="-175.5" font-family="Arial" font-size="10.00">size.h</text>
</a>
</g>
</g>
<!-- Node2&#45;&gt;Node12 -->
<g id="edge15" class="edge">
<title>Node2&#45;&gt;Node12</title>
<path fill="none" stroke="midnightblue" d="M192.26,-224.08C199.46,-216.3 210.11,-204.8 218.85,-195.37"/>
<polygon fill="midnightblue" stroke="midnightblue" points="221.67,-197.47 225.9,-187.75 216.53,-192.71 221.67,-197.47"/>
</g>
<!-- Node4 -->
<g id="node4" class="node">
<title>Node4</title>
<g id="a_node4"><a xlink:href="dimensions__generic_8h.html" target="_top" xlink:title=" ">
<polygon fill="white" stroke="black" points="142.5,-56.5 142.5,-75.5 253.5,-75.5 253.5,-56.5 142.5,-56.5"/>
<text text-anchor="middle" x="198" y="-63.5" font-family="Arial" font-size="10.00">dimensions_generic.h</text>
</a>
</g>
</g>
<!-- Node3&#45;&gt;Node4 -->
<g id="edge3" class="edge">
<title>Node3&#45;&gt;Node4</title>
<path fill="none" stroke="midnightblue" d="M243.92,-112.08C235.83,-104.14 223.8,-92.34 214.09,-82.8"/>
<polygon fill="midnightblue" stroke="midnightblue" points="216.5,-80.26 206.91,-75.75 211.6,-85.25 216.5,-80.26"/>
</g>
<!-- Node7 -->
<g id="node7" class="node">
<title>Node7</title>
<g id="a_node7"><a xlink:title=" ">
<polygon fill="white" stroke="#bfbfbf" points="281,-56.5 281,-75.5 333,-75.5 333,-56.5 281,-56.5"/>
<text text-anchor="middle" x="307" y="-63.5" font-family="Arial" font-size="10.00">ostream</text>
</a>
</g>
</g>
<!-- Node3&#45;&gt;Node7 -->
<g id="edge6" class="edge">
<title>Node3&#45;&gt;Node7</title>
<path fill="none" stroke="midnightblue" d="M261.92,-112.08C269.78,-104.22 281.43,-92.57 290.92,-83.08"/>
<polygon fill="midnightblue" stroke="midnightblue" points="293.65,-85.3 298.25,-75.75 288.7,-80.35 293.65,-85.3"/>
</g>
<!-- Node5 -->
<g id="node5" class="node">
<title>Node5</title>
<g id="a_node5"><a xlink:title=" ">
<polygon fill="white" stroke="#bfbfbf" points="139.5,-0.5 139.5,-19.5 184.5,-19.5 184.5,-0.5 139.5,-0.5"/>
<text text-anchor="middle" x="162" y="-7.5" font-family="Arial" font-size="10.00">iosfwd</text>
</a>
</g>
</g>
<!-- Node4&#45;&gt;Node5 -->
<g id="edge4" class="edge">
<title>Node4&#45;&gt;Node5</title>
<path fill="none" stroke="midnightblue" d="M192.06,-56.08C187.02,-48.53 179.66,-37.49 173.49,-28.23"/>
<polygon fill="midnightblue" stroke="midnightblue" points="176.29,-26.13 167.83,-19.75 170.47,-30.01 176.29,-26.13"/>
</g>
<!-- Node6 -->
<g id="node6" class="node">
<title>Node6</title>
<g id="a_node6"><a xlink:title=" ">
<polygon fill="white" stroke="#bfbfbf" points="203,-0.5 203,-19.5 265,-19.5 265,-0.5 203,-0.5"/>
<text text-anchor="middle" x="234" y="-7.5" font-family="Arial" font-size="10.00">type_traits</text>
</a>
</g>
</g>
<!-- Node4&#45;&gt;Node6 -->
<g id="edge5" class="edge">
<title>Node4&#45;&gt;Node6</title>
<path fill="none" stroke="midnightblue" d="M203.94,-56.08C208.98,-48.53 216.34,-37.49 222.51,-28.23"/>
<polygon fill="midnightblue" stroke="midnightblue" points="225.53,-30.01 228.17,-19.75 219.71,-26.13 225.53,-30.01"/>
</g>
<!-- Node8&#45;&gt;Node4 -->
<g id="edge8" class="edge">
<title>Node8&#45;&gt;Node4</title>
<path fill="none" stroke="midnightblue" d="M62.51,-112.44C89.6,-103.36 132.59,-88.94 162.87,-78.78"/>
<polygon fill="midnightblue" stroke="midnightblue" points="164.24,-82.01 172.61,-75.52 162.01,-75.38 164.24,-82.01"/>
</g>
<!-- Node9 -->
<g id="node9" class="node">
<title>Node9</title>
<g id="a_node9"><a xlink:title=" ">
<polygon fill="white" stroke="#bfbfbf" points="14,-56.5 14,-75.5 60,-75.5 60,-56.5 14,-56.5"/>
<text text-anchor="middle" x="37" y="-63.5" font-family="Arial" font-size="10.00">cstdint</text>
</a>
</g>
</g>
<!-- Node8&#45;&gt;Node9 -->
<g id="edge9" class="edge">
<title>Node8&#45;&gt;Node9</title>
<path fill="none" stroke="midnightblue" d="M37,-112.08C37,-105.01 37,-94.86 37,-85.99"/>
<polygon fill="midnightblue" stroke="midnightblue" points="40.5,-85.75 37,-75.75 33.5,-85.75 40.5,-85.75"/>
</g>
<!-- Node10&#45;&gt;Node8 -->
<g id="edge14" class="edge">
<title>Node10&#45;&gt;Node8</title>
<path fill="none" stroke="midnightblue" d="M76.24,-168.08C69.46,-160.3 59.46,-148.8 51.24,-139.37"/>
<polygon fill="midnightblue" stroke="midnightblue" points="53.82,-137 44.62,-131.75 48.54,-141.59 53.82,-137"/>
</g>
<!-- Node11 -->
<g id="node11" class="node">
<title>Node11</title>
<g id="a_node11"><a xlink:href="point__generic_8h.html" target="_top" xlink:title=" ">
<polygon fill="white" stroke="black" points="92.5,-112.5 92.5,-131.5 175.5,-131.5 175.5,-112.5 92.5,-112.5"/>
<text text-anchor="middle" x="134" y="-119.5" font-family="Arial" font-size="10.00">point_generic.h</text>
</a>
</g>
</g>
<!-- Node10&#45;&gt;Node11 -->
<g id="edge11" class="edge">
<title>Node10&#45;&gt;Node11</title>
<path fill="none" stroke="midnightblue" d="M92.26,-168.08C99.46,-160.3 110.11,-148.8 118.85,-139.37"/>
<polygon fill="midnightblue" stroke="midnightblue" points="121.67,-141.47 125.9,-131.75 116.53,-136.71 121.67,-141.47"/>
</g>
<!-- Node11&#45;&gt;Node4 -->
<g id="edge12" class="edge">
<title>Node11&#45;&gt;Node4</title>
<path fill="none" stroke="midnightblue" d="M144.28,-112.32C153.84,-104.26 168.28,-92.08 179.78,-82.37"/>
<polygon fill="midnightblue" stroke="midnightblue" points="182.14,-84.96 187.53,-75.83 177.63,-79.61 182.14,-84.96"/>
</g>
<!-- Node11&#45;&gt;Node7 -->
<g id="edge13" class="edge">
<title>Node11&#45;&gt;Node7</title>
<path fill="none" stroke="midnightblue" d="M161.41,-112.44C191.11,-103.17 238.62,-88.34 271.24,-78.16"/>
<polygon fill="midnightblue" stroke="midnightblue" points="272.35,-81.48 280.85,-75.16 270.26,-74.8 272.35,-81.48"/>
</g>
<!-- Node12&#45;&gt;Node8 -->
<g id="edge19" class="edge">
<title>Node12&#45;&gt;Node8</title>
<path fill="none" stroke="midnightblue" d="M212.16,-171.01C179.87,-162.16 118.78,-145.42 77.98,-134.23"/>
<polygon fill="midnightblue" stroke="midnightblue" points="78.9,-130.85 68.33,-131.59 77.04,-137.61 78.9,-130.85"/>
</g>
<!-- Node13 -->
<g id="node13" class="node">
<title>Node13</title>
<g id="a_node13"><a xlink:href="size__generic_8h.html" target="_top" xlink:title=" ">
<polygon fill="white" stroke="black" points="331,-112.5 331,-131.5 411,-131.5 411,-112.5 331,-112.5"/>
<text text-anchor="middle" x="371" y="-119.5" font-family="Arial" font-size="10.00">size_generic.h</text>
</a>
</g>
</g>
<!-- Node12&#45;&gt;Node13 -->
<g id="edge16" class="edge">
<title>Node12&#45;&gt;Node13</title>
<path fill="none" stroke="midnightblue" d="M255.71,-168.44C278.35,-159.52 314.07,-145.44 339.75,-135.32"/>
<polygon fill="midnightblue" stroke="midnightblue" points="341.37,-138.44 349.39,-131.52 338.81,-131.93 341.37,-138.44"/>
</g>
<!-- Node13&#45;&gt;Node4 -->
<g id="edge17" class="edge">
<title>Node13&#45;&gt;Node4</title>
<path fill="none" stroke="midnightblue" d="M343.59,-112.44C314.23,-103.28 267.48,-88.69 234.9,-78.52"/>
<polygon fill="midnightblue" stroke="midnightblue" points="235.87,-75.16 225.28,-75.52 233.79,-81.84 235.87,-75.16"/>
</g>
<!-- Node13&#45;&gt;Node7 -->
<g id="edge18" class="edge">
<title>Node13&#45;&gt;Node7</title>
<path fill="none" stroke="midnightblue" d="M360.72,-112.32C351.16,-104.26 336.72,-92.08 325.22,-82.37"/>
<polygon fill="midnightblue" stroke="midnightblue" points="327.37,-79.61 317.47,-75.83 322.86,-84.96 327.37,-79.61"/>
</g>
<!-- Node14&#45;&gt;Node10 -->
<g id="edge21" class="edge">
<title>Node14&#45;&gt;Node10</title>
<path fill="none" stroke="midnightblue" d="M97.21,-336.19C86.17,-328.24 71.5,-315.45 65,-300 50.49,-265.51 64.9,-221.27 75.33,-196.97"/>
<polygon fill="midnightblue" stroke="midnightblue" points="78.65,-198.15 79.6,-187.6 72.27,-195.25 78.65,-198.15"/>
</g>
<!-- Node15 -->
<g id="node15" class="node">
<title>Node15</title>
<g id="a_node15"><a xlink:href="rectangle_8h.html" target="_top" xlink:title=" ">
<polygon fill="white" stroke="black" points="165.5,-280.5 165.5,-299.5 290.5,-299.5 290.5,-280.5 165.5,-280.5"/>
<text text-anchor="middle" x="228" y="-287.5" font-family="Arial" font-size="10.00">mir/geometry/rectangle.h</text>
</a>
</g>
</g>
<!-- Node14&#45;&gt;Node15 -->
<g id="edge22" class="edge">
<title>Node14&#45;&gt;Node15</title>
<path fill="none" stroke="midnightblue" d="M129.54,-336.44C148.62,-327.64 178.57,-313.81 200.44,-303.72"/>
<polygon fill="midnightblue" stroke="midnightblue" points="201.93,-306.88 209.55,-299.52 199,-300.53 201.93,-306.88"/>
</g>
<!-- Node17 -->
<g id="node17" class="node">
<title>Node17</title>
<g id="a_node17"><a xlink:title=" ">
<polygon fill="white" stroke="#bfbfbf" points="309,-280.5 309,-299.5 353,-299.5 353,-280.5 309,-280.5"/>
<text text-anchor="middle" x="331" y="-287.5" font-family="Arial" font-size="10.00">vector</text>
</a>
</g>
</g>
<!-- Node14&#45;&gt;Node17 -->
<g id="edge31" class="edge">
<title>Node14&#45;&gt;Node17</title>
<path fill="none" stroke="midnightblue" d="M149.15,-336.49C185.32,-328.3 241.43,-315.26 298.73,-300.24"/>
<polygon fill="midnightblue" stroke="midnightblue" points="299.91,-303.55 308.69,-297.62 298.12,-296.79 299.91,-303.55"/>
</g>
<!-- Node18 -->
<g id="node18" class="node">
<title>Node18</title>
<g id="a_node18"><a xlink:title=" ">
<polygon fill="white" stroke="#bfbfbf" points="74.5,-280.5 74.5,-299.5 147.5,-299.5 147.5,-280.5 74.5,-280.5"/>
<text text-anchor="middle" x="111" y="-287.5" font-family="Arial" font-size="10.00">initializer_list</text>
</a>
</g>
</g>
<!-- Node14&#45;&gt;Node18 -->
<g id="edge32" class="edge">
<title>Node14&#45;&gt;Node18</title>
<path fill="none" stroke="midnightblue" d="M111,-336.08C111,-329.01 111,-318.86 111,-309.99"/>
<polygon fill="midnightblue" stroke="midnightblue" points="114.5,-309.75 111,-299.75 107.5,-309.75 114.5,-309.75"/>
</g>
<!-- Node15&#45;&gt;Node2 -->
<g id="edge30" class="edge">
<title>Node15&#45;&gt;Node2</title>
<path fill="none" stroke="midnightblue" d="M220.73,-280.08C214.46,-272.38 205.21,-261.03 197.57,-251.65"/>
<polygon fill="midnightblue" stroke="midnightblue" points="200.16,-249.29 191.13,-243.75 194.73,-253.71 200.16,-249.29"/>
</g>
<!-- Node15&#45;&gt;Node10 -->
<g id="edge28" class="edge">
<title>Node15&#45;&gt;Node10</title>
<path fill="none" stroke="midnightblue" d="M173.11,-280.45C149.02,-274.1 122.16,-263.08 104,-244 92.18,-231.58 87.34,-212.34 85.36,-198.01"/>
<polygon fill="midnightblue" stroke="midnightblue" points="88.81,-197.39 84.3,-187.8 81.85,-198.1 88.81,-197.39"/>
</g>
<!-- Node15&#45;&gt;Node12 -->
<g id="edge29" class="edge">
<title>Node15&#45;&gt;Node12</title>
<path fill="none" stroke="midnightblue" d="M238.44,-280.24C247.42,-271.97 259.75,-258.66 265,-244 271.16,-226.81 260.21,-208.09 249.66,-195.17"/>
<polygon fill="midnightblue" stroke="midnightblue" points="252.21,-192.77 242.97,-187.59 246.96,-197.4 252.21,-192.77"/>
</g>
<!-- Node16 -->
<g id="node16" class="node">
<title>Node16</title>
<g id="a_node16"><a xlink:href="rectangle__generic_8h.html" target="_top" xlink:title=" ">
<polygon fill="white" stroke="black" points="273.5,-168.5 273.5,-187.5 374.5,-187.5 374.5,-168.5 273.5,-168.5"/>
<text text-anchor="middle" x="324" y="-175.5" font-family="Arial" font-size="10.00">rectangle_generic.h</text>
</a>
</g>
</g>
<!-- Node15&#45;&gt;Node16 -->
<g id="edge23" class="edge">
<title>Node15&#45;&gt;Node16</title>
<path fill="none" stroke="midnightblue" d="M239.25,-280.4C250.08,-271.82 266.6,-257.94 279,-244 292.21,-229.14 304.88,-210.29 313.39,-196.72"/>
<polygon fill="midnightblue" stroke="midnightblue" points="316.55,-198.26 318.8,-187.9 310.58,-194.59 316.55,-198.26"/>
</g>
<!-- Node16&#45;&gt;Node3 -->
<g id="edge26" class="edge">
<title>Node16&#45;&gt;Node3</title>
<path fill="none" stroke="midnightblue" d="M312.59,-168.32C301.89,-160.18 285.66,-147.84 272.84,-138.09"/>
<polygon fill="midnightblue" stroke="midnightblue" points="274.69,-135.1 264.61,-131.83 270.46,-140.67 274.69,-135.1"/>
</g>
<!-- Node16&#45;&gt;Node7 -->
<g id="edge27" class="edge">
<title>Node16&#45;&gt;Node7</title>
<path fill="none" stroke="midnightblue" d="M359.46,-168.43C393.92,-158.31 438.53,-139.32 420,-112 402.95,-86.85 369.36,-75.76 343.22,-70.86"/>
<polygon fill="midnightblue" stroke="midnightblue" points="343.69,-67.39 333.26,-69.22 342.55,-74.3 343.69,-67.39"/>
</g>
<!-- Node16&#45;&gt;Node11 -->
<g id="edge24" class="edge">
<title>Node16&#45;&gt;Node11</title>
<path fill="none" stroke="midnightblue" d="M293.89,-168.44C261.37,-159.2 209.42,-144.44 173.61,-134.26"/>
<polygon fill="midnightblue" stroke="midnightblue" points="174.54,-130.88 163.97,-131.52 172.63,-137.62 174.54,-130.88"/>
</g>
<!-- Node16&#45;&gt;Node13 -->
<g id="edge25" class="edge">
<title>Node16&#45;&gt;Node13</title>
<path fill="none" stroke="midnightblue" d="M331.76,-168.08C338.54,-160.3 348.54,-148.8 356.76,-139.37"/>
<polygon fill="midnightblue" stroke="midnightblue" points="359.46,-141.59 363.38,-131.75 354.18,-137 359.46,-141.59"/>
</g>
</g>
</svg>
