<?xml version="1.0" encoding="UTF-8" standalone="no"?>
<!DOCTYPE svg PUBLIC "-//W3C//DTD SVG 1.1//EN"
 "http://www.w3.org/Graphics/SVG/1.1/DTD/svg11.dtd">
<!-- Generated by graphviz version 2.40.1 (20161225.0304)
 -->
<!-- Title: include/miral/miral/window_management_policy.h Pages: 1 -->
<svg width="645pt" height="240pt"
 viewBox="0.00 0.00 644.50 240.00" xmlns="http://www.w3.org/2000/svg" xmlns:xlink="http://www.w3.org/1999/xlink">
<g id="graph0" class="graph" transform="scale(1 1) rotate(0) translate(4 236)">
<title>include/miral/miral/window_management_policy.h</title>
<polygon fill="#ffffff" stroke="transparent" points="-4,4 -4,-236 640.5,-236 640.5,4 -4,4"/>
<!-- Node35 -->
<g id="node1" class="node">
<title>Node35</title>
<polygon fill="#bfbfbf" stroke="#000000" points="105,-201.5 105,-231.5 257,-231.5 257,-201.5 105,-201.5"/>
<text text-anchor="start" x="113" y="-219.5" font-family="Arial" font-size="10.00" fill="#000000">include/miral/miral</text>
<text text-anchor="middle" x="181" y="-208.5" font-family="Arial" font-size="10.00" fill="#000000">/window_management_policy.h</text>
</g>
<!-- Node36 -->
<g id="node2" class="node">
<title>Node36</title>
<g id="a_node2"><a xlink:href="tiling__window__manager_8h.html" target="_top" xlink:title="examples/example&#45;server\l&#45;lib/tiling_window_manager.h">
<polygon fill="#ffffff" stroke="#000000" points="26,-134.5 26,-164.5 166,-164.5 166,-134.5 26,-134.5"/>
<text text-anchor="start" x="34" y="-152.5" font-family="Arial" font-size="10.00" fill="#000000">examples/example&#45;server</text>
<text text-anchor="middle" x="96" y="-141.5" font-family="Arial" font-size="10.00" fill="#000000">&#45;lib/tiling_window_manager.h</text>
</a>
</g>
</g>
<!-- Node35&#45;&gt;Node36 -->
<g id="edge1" class="edge">
<title>Node35&#45;&gt;Node36</title>
<path fill="none" stroke="#191970" d="M153.8055,-195.0643C141.2374,-185.1577 126.6083,-173.6265 115.2115,-164.6432"/>
<polygon fill="#191970" stroke="#191970" points="151.6919,-197.8549 161.7122,-201.2967 156.0253,-192.3574 151.6919,-197.8549"/>
</g>
<!-- Node39 -->
<g id="node5" class="node">
<title>Node39</title>
<g id="a_node5"><a xlink:href="canonical__window__manager_8h.html" target="_top" xlink:title="include/miral/miral\l/canonical_window_manager.h">
<polygon fill="#ffffff" stroke="#000000" points="191.5,-134.5 191.5,-164.5 340.5,-164.5 340.5,-134.5 191.5,-134.5"/>
<text text-anchor="start" x="199.5" y="-152.5" font-family="Arial" font-size="10.00" fill="#000000">include/miral/miral</text>
<text text-anchor="middle" x="266" y="-141.5" font-family="Arial" font-size="10.00" fill="#000000">/canonical_window_manager.h</text>
</a>
</g>
</g>
<!-- Node35&#45;&gt;Node39 -->
<g id="edge4" class="edge">
<title>Node35&#45;&gt;Node39</title>
<path fill="none" stroke="#191970" d="M208.1945,-195.0643C220.7626,-185.1577 235.3917,-173.6265 246.7885,-164.6432"/>
<polygon fill="#191970" stroke="#191970" points="205.9747,-192.3574 200.2878,-201.2967 210.3081,-197.8549 205.9747,-192.3574"/>
</g>
<!-- Node37 -->
<g id="node3" class="node">
<title>Node37</title>
<g id="a_node3"><a xlink:href="shell__main_8cpp.html" target="_top" xlink:title="examples/miral&#45;shell\l/shell_main.cpp">
<polygon fill="#ffffff" stroke="#000000" points="0,-.5 0,-30.5 106,-30.5 106,-.5 0,-.5"/>
<text text-anchor="start" x="8" y="-18.5" font-family="Arial" font-size="10.00" fill="#000000">examples/miral&#45;shell</text>
<text text-anchor="middle" x="53" y="-7.5" font-family="Arial" font-size="10.00" fill="#000000">/shell_main.cpp</text>
</a>
</g>
</g>
<!-- Node36&#45;&gt;Node37 -->
<g id="edge2" class="edge">
<title>Node36&#45;&gt;Node37</title>
<path fill="none" stroke="#191970" d="M44.8489,-129.7472C31.4568,-121.9655 18.6417,-111.5649 11,-98 -2.0161,-74.895 19.194,-47.3016 35.9178,-30.6039"/>
<polygon fill="#191970" stroke="#191970" points="43.2179,-132.8441 53.6841,-134.4897 46.5285,-126.6764 43.2179,-132.8441"/>
</g>
<!-- Node38 -->
<g id="node4" class="node">
<title>Node38</title>
<g id="a_node4"><a xlink:href="tiling__window__manager_8cpp.html" target="_top" xlink:title="examples/example&#45;server\l&#45;lib/tiling_window_manager.cpp">
<polygon fill="#ffffff" stroke="#000000" points="20.5,-67.5 20.5,-97.5 171.5,-97.5 171.5,-67.5 20.5,-67.5"/>
<text text-anchor="start" x="28.5" y="-85.5" font-family="Arial" font-size="10.00" fill="#000000">examples/example&#45;server</text>
<text text-anchor="middle" x="96" y="-74.5" font-family="Arial" font-size="10.00" fill="#000000">&#45;lib/tiling_window_manager.cpp</text>
</a>
</g>
</g>
<!-- Node36&#45;&gt;Node38 -->
<g id="edge3" class="edge">
<title>Node36&#45;&gt;Node38</title>
<path fill="none" stroke="#191970" d="M96,-124.0249C96,-115.128 96,-105.4287 96,-97.6432"/>
<polygon fill="#191970" stroke="#191970" points="92.5001,-124.2966 96,-134.2967 99.5001,-124.2967 92.5001,-124.2966"/>
</g>
<!-- Node40 -->
<g id="node6" class="node">
<title>Node40</title>
<g id="a_node6"><a xlink:href="kiosk__window__manager_8h.html" target="_top" xlink:title="examples/miral&#45;kiosk\l/kiosk_window_manager.h">
<polygon fill="#ffffff" stroke="#000000" points="360.5,-67.5 360.5,-97.5 491.5,-97.5 491.5,-67.5 360.5,-67.5"/>
<text text-anchor="start" x="368.5" y="-85.5" font-family="Arial" font-size="10.00" fill="#000000">examples/miral&#45;kiosk</text>
<text text-anchor="middle" x="426" y="-74.5" font-family="Arial" font-size="10.00" fill="#000000">/kiosk_window_manager.h</text>
</a>
</g>
</g>
<!-- Node39&#45;&gt;Node40 -->
<g id="edge5" class="edge">
<title>Node39&#45;&gt;Node40</title>
<path fill="none" stroke="#191970" d="M311.159,-130.5897C336.0853,-120.1518 366.6199,-107.3654 389.9363,-97.6017"/>
<polygon fill="#191970" stroke="#191970" points="309.7792,-127.3729 301.9071,-134.4639 312.483,-133.8297 309.7792,-127.3729"/>
</g>
<!-- Node43 -->
<g id="node9" class="node">
<title>Node43</title>
<g id="a_node9"><a xlink:href="floating__window__manager_8h.html" target="_top" xlink:title="examples/example&#45;server\l&#45;lib/floating_window_manager.h">
<polygon fill="#ffffff" stroke="#000000" points="190,-67.5 190,-97.5 342,-97.5 342,-67.5 190,-67.5"/>
<text text-anchor="start" x="198" y="-85.5" font-family="Arial" font-size="10.00" fill="#000000">examples/example&#45;server</text>
<text text-anchor="middle" x="266" y="-74.5" font-family="Arial" font-size="10.00" fill="#000000">&#45;lib/floating_window_manager.h</text>
</a>
</g>
</g>
<!-- Node39&#45;&gt;Node43 -->
<g id="edge8" class="edge">
<title>Node39&#45;&gt;Node43</title>
<path fill="none" stroke="#191970" d="M266,-124.0249C266,-115.128 266,-105.4287 266,-97.6432"/>
<polygon fill="#191970" stroke="#191970" points="262.5001,-124.2966 266,-134.2967 269.5001,-124.2967 262.5001,-124.2966"/>
</g>
<!-- Node41 -->
<g id="node7" class="node">
<title>Node41</title>
<g id="a_node7"><a xlink:href="kiosk__main_8cpp.html" target="_top" xlink:title="examples/miral&#45;kiosk\l/kiosk_main.cpp">
<polygon fill="#ffffff" stroke="#000000" points="368.5,-.5 368.5,-30.5 477.5,-30.5 477.5,-.5 368.5,-.5"/>
<text text-anchor="start" x="376.5" y="-18.5" font-family="Arial" font-size="10.00" fill="#000000">examples/miral&#45;kiosk</text>
<text text-anchor="middle" x="423" y="-7.5" font-family="Arial" font-size="10.00" fill="#000000">/kiosk_main.cpp</text>
</a>
</g>
</g>
<!-- Node40&#45;&gt;Node41 -->
<g id="edge6" class="edge">
<title>Node40&#45;&gt;Node41</title>
<path fill="none" stroke="#191970" d="M424.8593,-57.0249C424.461,-48.128 424.0267,-38.4287 423.6781,-30.6432"/>
<polygon fill="#191970" stroke="#191970" points="421.3754,-57.4633 425.3193,-67.2967 428.3683,-57.1501 421.3754,-57.4633"/>
</g>
<!-- Node42 -->
<g id="node8" class="node">
<title>Node42</title>
<g id="a_node8"><a xlink:href="kiosk__window__manager_8cpp.html" target="_top" xlink:title="examples/miral&#45;kiosk\l/kiosk_window_manager.cpp">
<polygon fill="#ffffff" stroke="#000000" points="495.5,-.5 495.5,-30.5 636.5,-30.5 636.5,-.5 495.5,-.5"/>
<text text-anchor="start" x="503.5" y="-18.5" font-family="Arial" font-size="10.00" fill="#000000">examples/miral&#45;kiosk</text>
<text text-anchor="middle" x="566" y="-7.5" font-family="Arial" font-size="10.00" fill="#000000">/kiosk_window_manager.cpp</text>
</a>
</g>
</g>
<!-- Node40&#45;&gt;Node42 -->
<g id="edge7" class="edge">
<title>Node40&#45;&gt;Node42</title>
<path fill="none" stroke="#191970" d="M466.638,-63.0518C488.1502,-52.7567 514.181,-40.2991 534.2017,-30.7177"/>
<polygon fill="#191970" stroke="#191970" points="464.9281,-59.9899 457.4187,-67.4639 467.9499,-66.3041 464.9281,-59.9899"/>
</g>
<!-- Node43&#45;&gt;Node37 -->
<g id="edge9" class="edge">
<title>Node43&#45;&gt;Node37</title>
<path fill="none" stroke="#191970" d="M208.4973,-64.4123C174.8545,-53.8298 132.8702,-40.6235 101.0098,-30.6017"/>
<polygon fill="#191970" stroke="#191970" points="207.6092,-67.802 218.1986,-67.4639 209.7097,-61.1245 207.6092,-67.802"/>
</g>
<!-- Node44 -->
<g id="node10" class="node">
<title>Node44</title>
<g id="a_node10"><a xlink:href="floating__window__manager_8cpp.html" target="_top" xlink:title="examples/example&#45;server\l&#45;lib/floating_window_manager.cpp">
<polygon fill="#ffffff" stroke="#000000" points="185,-.5 185,-30.5 347,-30.5 347,-.5 185,-.5"/>
<text text-anchor="start" x="193" y="-18.5" font-family="Arial" font-size="10.00" fill="#000000">examples/example&#45;server</text>
<text text-anchor="middle" x="266" y="-7.5" font-family="Arial" font-size="10.00" fill="#000000">&#45;lib/floating_window_manager.cpp</text>
</a>
</g>
</g>
<!-- Node43&#45;&gt;Node44 -->
<g id="edge10" class="edge">
<title>Node43&#45;&gt;Node44</title>
<path fill="none" stroke="#191970" d="M266,-57.0249C266,-48.128 266,-38.4287 266,-30.6432"/>
<polygon fill="#191970" stroke="#191970" points="262.5001,-57.2966 266,-67.2967 269.5001,-57.2967 262.5001,-57.2966"/>
</g>
</g>
</svg>
