<?xml version="1.0" encoding="UTF-8" standalone="no"?>
<!DOCTYPE svg PUBLIC "-//W3C//DTD SVG 1.1//EN"
 "http://www.w3.org/Graphics/SVG/1.1/DTD/svg11.dtd">
<!-- Generated by graphviz version 2.40.1 (20161225.0304)
 -->
<!-- Title: include/miral/miral/window_manager_tools.h Pages: 1 -->
<svg width="963pt" height="240pt"
 viewBox="0.00 0.00 963.00 240.00" xmlns="http://www.w3.org/2000/svg" xmlns:xlink="http://www.w3.org/1999/xlink">
<g id="graph0" class="graph" transform="scale(1 1) rotate(0) translate(4 236)">
<title>include/miral/miral/window_manager_tools.h</title>
<polygon fill="#ffffff" stroke="transparent" points="-4,4 -4,-236 959,-236 959,4 -4,4"/>
<!-- Node25 -->
<g id="node1" class="node">
<title>Node25</title>
<polygon fill="#bfbfbf" stroke="#000000" points="416.5,-201.5 416.5,-231.5 560.5,-231.5 560.5,-201.5 416.5,-201.5"/>
<text text-anchor="start" x="424.5" y="-219.5" font-family="Arial" font-size="10.00" fill="#000000">include/miral/miral</text>
<text text-anchor="middle" x="488.5" y="-208.5" font-family="Arial" font-size="10.00" fill="#000000">/window_manager_tools.h</text>
</g>
<!-- Node26 -->
<g id="node2" class="node">
<title>Node26</title>
<g id="a_node2"><a xlink:href="kiosk__window__manager_8cpp.html" target="_top" xlink:title="examples/miral&#45;kiosk\l/kiosk_window_manager.cpp">
<polygon fill="#ffffff" stroke="#000000" points="0,-.5 0,-30.5 157,-30.5 157,-.5 0,-.5"/>
<text text-anchor="start" x="8" y="-18.5" font-family="Arial" font-size="10.00" fill="#000000">examples/miral&#45;kiosk</text>
<text text-anchor="middle" x="78.5" y="-7.5" font-family="Arial" font-size="10.00" fill="#000000">/kiosk_window_manager.cpp</text>
</a>
</g>
</g>
<!-- Node25&#45;&gt;Node26 -->
<g id="edge1" class="edge">
<title>Node25&#45;&gt;Node26</title>
<path fill="none" stroke="#191970" d="M406.2314,-210.3432C301.311,-201.7315 130.8218,-184.8911 109.5,-165 71.7046,-129.7407 73.5014,-61.4545 76.5037,-30.9139"/>
<polygon fill="#191970" stroke="#191970" points="406.2363,-213.8551 416.4868,-211.176 406.8029,-206.878 406.2363,-213.8551"/>
</g>
<!-- Node27 -->
<g id="node3" class="node">
<title>Node27</title>
<g id="a_node3"><a xlink:href="decoration__provider_8h.html" target="_top" xlink:title="examples/example&#45;server\l&#45;lib/decoration_provider.h">
<polygon fill="#ffffff" stroke="#000000" points="315,-134.5 315,-164.5 460,-164.5 460,-134.5 315,-134.5"/>
<text text-anchor="start" x="323" y="-152.5" font-family="Arial" font-size="10.00" fill="#000000">examples/example&#45;server</text>
<text text-anchor="middle" x="387.5" y="-141.5" font-family="Arial" font-size="10.00" fill="#000000">&#45;lib/decoration_provider.h</text>
</a>
</g>
</g>
<!-- Node25&#45;&gt;Node27 -->
<g id="edge2" class="edge">
<title>Node25&#45;&gt;Node27</title>
<path fill="none" stroke="#191970" d="M457.2881,-195.7951C442.1543,-185.7558 424.3008,-173.9124 410.4402,-164.7177"/>
<polygon fill="#191970" stroke="#191970" points="455.5656,-198.8525 465.8336,-201.4639 459.4352,-193.0193 455.5656,-198.8525"/>
</g>
<!-- Node29 -->
<g id="node5" class="node">
<title>Node29</title>
<g id="a_node5"><a xlink:href="floating__window__manager_8cpp.html" target="_top" xlink:title="examples/example&#45;server\l&#45;lib/floating_window_manager.cpp">
<polygon fill="#ffffff" stroke="#000000" points="397,-.5 397,-30.5 580,-30.5 580,-.5 397,-.5"/>
<text text-anchor="start" x="405" y="-18.5" font-family="Arial" font-size="10.00" fill="#000000">examples/example&#45;server</text>
<text text-anchor="middle" x="488.5" y="-7.5" font-family="Arial" font-size="10.00" fill="#000000">&#45;lib/floating_window_manager.cpp</text>
</a>
</g>
</g>
<!-- Node25&#45;&gt;Node29 -->
<g id="edge5" class="edge">
<title>Node25&#45;&gt;Node29</title>
<path fill="none" stroke="#191970" d="M488.5,-191.348C488.5,-149.0061 488.5,-64.7637 488.5,-30.5088"/>
<polygon fill="#191970" stroke="#191970" points="485.0001,-191.3923 488.5,-201.3923 492.0001,-191.3924 485.0001,-191.3923"/>
</g>
<!-- Node30 -->
<g id="node6" class="node">
<title>Node30</title>
<g id="a_node6"><a xlink:href="tiling__window__manager_8h.html" target="_top" xlink:title="examples/example&#45;server\l&#45;lib/tiling_window_manager.h">
<polygon fill="#ffffff" stroke="#000000" points="694.5,-134.5 694.5,-164.5 854.5,-164.5 854.5,-134.5 694.5,-134.5"/>
<text text-anchor="start" x="702.5" y="-152.5" font-family="Arial" font-size="10.00" fill="#000000">examples/example&#45;server</text>
<text text-anchor="middle" x="774.5" y="-141.5" font-family="Arial" font-size="10.00" fill="#000000">&#45;lib/tiling_window_manager.h</text>
</a>
</g>
</g>
<!-- Node25&#45;&gt;Node30 -->
<g id="edge6" class="edge">
<title>Node25&#45;&gt;Node30</title>
<path fill="none" stroke="#191970" d="M562.5302,-199.1573C608.2142,-188.4551 666.2466,-174.8601 710.0361,-164.6017"/>
<polygon fill="#191970" stroke="#191970" points="561.622,-195.7752 552.684,-201.4639 563.2187,-202.5907 561.622,-195.7752"/>
</g>
<!-- Node32 -->
<g id="node8" class="node">
<title>Node32</title>
<g id="a_node8"><a xlink:href="tiling__window__manager_8cpp.html" target="_top" xlink:title="examples/example&#45;server\l&#45;lib/tiling_window_manager.cpp">
<polygon fill="#ffffff" stroke="#000000" points="784,-67.5 784,-97.5 955,-97.5 955,-67.5 784,-67.5"/>
<text text-anchor="start" x="792" y="-85.5" font-family="Arial" font-size="10.00" fill="#000000">examples/example&#45;server</text>
<text text-anchor="middle" x="869.5" y="-74.5" font-family="Arial" font-size="10.00" fill="#000000">&#45;lib/tiling_window_manager.cpp</text>
</a>
</g>
</g>
<!-- Node25&#45;&gt;Node32 -->
<g id="edge9" class="edge">
<title>Node25&#45;&gt;Node32</title>
<path fill="none" stroke="#191970" d="M570.7316,-210.6506C675.0289,-202.4115 843.784,-186.0175 863.5,-165 880.301,-147.09 877.334,-116.2966 873.5115,-97.8223"/>
<polygon fill="#191970" stroke="#191970" points="570.232,-207.1789 560.5347,-211.4464 570.7767,-214.1577 570.232,-207.1789"/>
</g>
<!-- Node33 -->
<g id="node9" class="node">
<title>Node33</title>
<g id="a_node9"><a xlink:href="canonical__window__manager_8h.html" target="_top" xlink:title="include/miral/miral\l/canonical_window_manager.h">
<polygon fill="#ffffff" stroke="#000000" points="118.5,-134.5 118.5,-164.5 284.5,-164.5 284.5,-134.5 118.5,-134.5"/>
<text text-anchor="start" x="126.5" y="-152.5" font-family="Arial" font-size="10.00" fill="#000000">include/miral/miral</text>
<text text-anchor="middle" x="201.5" y="-141.5" font-family="Arial" font-size="10.00" fill="#000000">/canonical_window_manager.h</text>
</a>
</g>
</g>
<!-- Node25&#45;&gt;Node33 -->
<g id="edge10" class="edge">
<title>Node25&#45;&gt;Node33</title>
<path fill="none" stroke="#191970" d="M414.2109,-199.1573C368.3672,-188.4551 310.1319,-174.8601 266.1893,-164.6017"/>
<polygon fill="#191970" stroke="#191970" points="413.5577,-202.5988 424.0916,-201.4639 415.1491,-195.7821 413.5577,-202.5988"/>
</g>
<!-- Node36 -->
<g id="node12" class="node">
<title>Node36</title>
<g id="a_node12"><a xlink:href="minimal__window__manager_8h.html" target="_top" xlink:title="include/miral/miral\l/minimal_window_manager.h">
<polygon fill="#ffffff" stroke="#000000" points="516.5,-134.5 516.5,-164.5 676.5,-164.5 676.5,-134.5 516.5,-134.5"/>
<text text-anchor="start" x="524.5" y="-152.5" font-family="Arial" font-size="10.00" fill="#000000">include/miral/miral</text>
<text text-anchor="middle" x="596.5" y="-141.5" font-family="Arial" font-size="10.00" fill="#000000">/minimal_window_manager.h</text>
</a>
</g>
</g>
<!-- Node25&#45;&gt;Node36 -->
<g id="edge14" class="edge">
<title>Node25&#45;&gt;Node36</title>
<path fill="none" stroke="#191970" d="M521.4221,-196.0761C537.7005,-185.9774 557.0101,-173.9983 571.9699,-164.7177"/>
<polygon fill="#191970" stroke="#191970" points="519.3898,-193.218 512.7373,-201.4639 523.08,-199.1663 519.3898,-193.218"/>
</g>
<!-- Node28 -->
<g id="node4" class="node">
<title>Node28</title>
<g id="a_node4"><a xlink:href="decoration__provider_8cpp.html" target="_top" xlink:title="examples/example&#45;server\l&#45;lib/decoration_provider.cpp">
<polygon fill="#ffffff" stroke="#000000" points="270.5,-67.5 270.5,-97.5 422.5,-97.5 422.5,-67.5 270.5,-67.5"/>
<text text-anchor="start" x="278.5" y="-85.5" font-family="Arial" font-size="10.00" fill="#000000">examples/example&#45;server</text>
<text text-anchor="middle" x="346.5" y="-74.5" font-family="Arial" font-size="10.00" fill="#000000">&#45;lib/decoration_provider.cpp</text>
</a>
</g>
</g>
<!-- Node27&#45;&gt;Node28 -->
<g id="edge3" class="edge">
<title>Node27&#45;&gt;Node28</title>
<path fill="none" stroke="#191970" d="M372.8035,-125.4837C367.1222,-116.1996 360.7928,-105.8565 355.7667,-97.6432"/>
<polygon fill="#191970" stroke="#191970" points="369.9914,-127.5939 378.1965,-134.2967 375.9622,-123.9401 369.9914,-127.5939"/>
</g>
<!-- Node27&#45;&gt;Node29 -->
<g id="edge4" class="edge">
<title>Node27&#45;&gt;Node29</title>
<path fill="none" stroke="#191970" d="M408.0383,-126.4851C415.6159,-117.7312 424.1428,-107.562 431.5,-98 449.0165,-75.234 467.6321,-47.5426 478.6533,-30.7324"/>
<polygon fill="#191970" stroke="#191970" points="405.355,-124.2367 401.407,-134.0685 410.6245,-128.8446 405.355,-124.2367"/>
</g>
<!-- Node31 -->
<g id="node7" class="node">
<title>Node31</title>
<g id="a_node7"><a xlink:href="shell__main_8cpp.html" target="_top" xlink:title="examples/miral&#45;shell\l/shell_main.cpp">
<polygon fill="#ffffff" stroke="#000000" points="640.5,-.5 640.5,-30.5 760.5,-30.5 760.5,-.5 640.5,-.5"/>
<text text-anchor="start" x="648.5" y="-18.5" font-family="Arial" font-size="10.00" fill="#000000">examples/miral&#45;shell</text>
<text text-anchor="middle" x="700.5" y="-7.5" font-family="Arial" font-size="10.00" fill="#000000">/shell_main.cpp</text>
</a>
</g>
</g>
<!-- Node30&#45;&gt;Node31 -->
<g id="edge7" class="edge">
<title>Node30&#45;&gt;Node31</title>
<path fill="none" stroke="#191970" d="M761.2073,-125.4294C746.0402,-97.9647 721.6917,-53.8742 708.9279,-30.7614"/>
<polygon fill="#191970" stroke="#191970" points="758.257,-127.3271 766.1551,-134.389 764.3847,-123.9431 758.257,-127.3271"/>
</g>
<!-- Node30&#45;&gt;Node32 -->
<g id="edge8" class="edge">
<title>Node30&#45;&gt;Node32</title>
<path fill="none" stroke="#191970" d="M804.4932,-128.3469C818.6288,-118.3776 835.1695,-106.7121 848.0283,-97.6432"/>
<polygon fill="#191970" stroke="#191970" points="802.2118,-125.6729 796.057,-134.2967 806.2463,-131.3934 802.2118,-125.6729"/>
</g>
<!-- Node34 -->
<g id="node10" class="node">
<title>Node34</title>
<g id="a_node10"><a xlink:href="kiosk__window__manager_8h.html" target="_top" xlink:title="examples/miral&#45;kiosk\l/kiosk_window_manager.h">
<polygon fill="#ffffff" stroke="#000000" points="106.5,-67.5 106.5,-97.5 252.5,-97.5 252.5,-67.5 106.5,-67.5"/>
<text text-anchor="start" x="114.5" y="-85.5" font-family="Arial" font-size="10.00" fill="#000000">examples/miral&#45;kiosk</text>
<text text-anchor="middle" x="179.5" y="-74.5" font-family="Arial" font-size="10.00" fill="#000000">/kiosk_window_manager.h</text>
</a>
</g>
</g>
<!-- Node33&#45;&gt;Node34 -->
<g id="edge11" class="edge">
<title>Node33&#45;&gt;Node34</title>
<path fill="none" stroke="#191970" d="M193.3273,-124.6103C190.354,-115.5553 187.085,-105.5998 184.4724,-97.6432"/>
<polygon fill="#191970" stroke="#191970" points="190.0628,-125.8877 196.5079,-134.2967 196.7134,-123.7038 190.0628,-125.8877"/>
</g>
<!-- Node34&#45;&gt;Node26 -->
<g id="edge13" class="edge">
<title>Node34&#45;&gt;Node26</title>
<path fill="none" stroke="#191970" d="M148.2881,-61.7951C133.1543,-51.7558 115.3008,-39.9124 101.4402,-30.7177"/>
<polygon fill="#191970" stroke="#191970" points="146.5656,-64.8525 156.8336,-67.4639 150.4352,-59.0193 146.5656,-64.8525"/>
</g>
<!-- Node35 -->
<g id="node11" class="node">
<title>Node35</title>
<g id="a_node11"><a xlink:href="kiosk__main_8cpp.html" target="_top" xlink:title="examples/miral&#45;kiosk\l/kiosk_main.cpp">
<polygon fill="#ffffff" stroke="#000000" points="175,-.5 175,-30.5 298,-30.5 298,-.5 175,-.5"/>
<text text-anchor="start" x="183" y="-18.5" font-family="Arial" font-size="10.00" fill="#000000">examples/miral&#45;kiosk</text>
<text text-anchor="middle" x="236.5" y="-7.5" font-family="Arial" font-size="10.00" fill="#000000">/kiosk_main.cpp</text>
</a>
</g>
</g>
<!-- Node34&#45;&gt;Node35 -->
<g id="edge12" class="edge">
<title>Node34&#45;&gt;Node35</title>
<path fill="none" stroke="#191970" d="M198.9494,-59.6385C207.0937,-50.0653 216.3384,-39.1987 223.617,-30.6432"/>
<polygon fill="#191970" stroke="#191970" points="196.2482,-57.4121 192.4342,-67.2967 201.5798,-61.948 196.2482,-57.4121"/>
</g>
<!-- Node37 -->
<g id="node13" class="node">
<title>Node37</title>
<g id="a_node13"><a xlink:href="floating__window__manager_8h.html" target="_top" xlink:title="examples/example&#45;server\l&#45;lib/floating_window_manager.h">
<polygon fill="#ffffff" stroke="#000000" points="516.5,-67.5 516.5,-97.5 688.5,-97.5 688.5,-67.5 516.5,-67.5"/>
<text text-anchor="start" x="524.5" y="-85.5" font-family="Arial" font-size="10.00" fill="#000000">examples/example&#45;server</text>
<text text-anchor="middle" x="602.5" y="-74.5" font-family="Arial" font-size="10.00" fill="#000000">&#45;lib/floating_window_manager.h</text>
</a>
</g>
</g>
<!-- Node36&#45;&gt;Node37 -->
<g id="edge15" class="edge">
<title>Node36&#45;&gt;Node37</title>
<path fill="none" stroke="#191970" d="M598.7551,-124.3179C599.559,-115.3414 600.439,-105.5143 601.1439,-97.6432"/>
<polygon fill="#191970" stroke="#191970" points="595.2675,-124.0243 597.8615,-134.2967 602.2396,-124.6487 595.2675,-124.0243"/>
</g>
<!-- Node37&#45;&gt;Node29 -->
<g id="edge17" class="edge">
<title>Node37&#45;&gt;Node29</title>
<path fill="none" stroke="#191970" d="M568.2253,-62.3561C550.9439,-52.1995 530.33,-40.0843 514.3929,-30.7177"/>
<polygon fill="#191970" stroke="#191970" points="566.5214,-65.4144 576.9162,-67.4639 570.0683,-59.3795 566.5214,-65.4144"/>
</g>
<!-- Node37&#45;&gt;Node31 -->
<g id="edge16" class="edge">
<title>Node37&#45;&gt;Node31</title>
<path fill="none" stroke="#191970" d="M633.0283,-61.6286C647.7001,-51.5979 664.9602,-39.7976 678.3503,-30.6432"/>
<polygon fill="#191970" stroke="#191970" points="631.0175,-58.7635 624.7377,-67.2967 634.9682,-64.5421 631.0175,-58.7635"/>
</g>
</g>
</svg>
