<?xml version="1.0" encoding="UTF-8" standalone="no"?>
<!DOCTYPE svg PUBLIC "-//W3C//DTD SVG 1.1//EN"
 "http://www.w3.org/Graphics/SVG/1.1/DTD/svg11.dtd">
<!-- Generated by graphviz version 2.43.0 (0)
 -->
<!-- Title: include/miral/miral/window_info.h Pages: 1 -->
<svg width="950pt" height="431pt"
 viewBox="0.00 0.00 950.00 431.00" xmlns="http://www.w3.org/2000/svg" xmlns:xlink="http://www.w3.org/1999/xlink">
<g id="graph0" class="graph" transform="scale(1 1) rotate(0) translate(4 427)">
<title>include/miral/miral/window_info.h</title>
<polygon fill="white" stroke="transparent" points="-4,4 -4,-427 946,-427 946,4 -4,4"/>
<!-- Node1 -->
<g id="node1" class="node">
<title>Node1</title>
<g id="a_node1"><a xlink:title=" ">
<polygon fill="#bfbfbf" stroke="black" points="518.5,-392.5 518.5,-422.5 613.5,-422.5 613.5,-392.5 518.5,-392.5"/>
<text text-anchor="start" x="526.5" y="-410.5" font-family="Arial" font-size="10.00">include/miral/miral</text>
<text text-anchor="middle" x="566" y="-399.5" font-family="Arial" font-size="10.00">/window_info.h</text>
</a>
</g>
</g>
<!-- Node2 -->
<g id="node2" class="node">
<title>Node2</title>
<g id="a_node2"><a xlink:href="window_8h.html" target="_top" xlink:title=" ">
<polygon fill="white" stroke="black" points="227.5,-336.5 227.5,-355.5 308.5,-355.5 308.5,-336.5 227.5,-336.5"/>
<text text-anchor="middle" x="268" y="-343.5" font-family="Arial" font-size="10.00">miral/window.h</text>
</a>
</g>
</g>
<!-- Node1&#45;&gt;Node2 -->
<g id="edge1" class="edge">
<title>Node1&#45;&gt;Node2</title>
<path fill="none" stroke="midnightblue" d="M518.45,-397.01C463.84,-386.1 374.61,-368.29 318.71,-357.13"/>
<polygon fill="midnightblue" stroke="midnightblue" points="319.17,-353.65 308.68,-355.12 317.8,-360.51 319.17,-353.65"/>
</g>
<!-- Node15 -->
<g id="node15" class="node">
<title>Node15</title>
<g id="a_node15"><a xlink:href="window__specification_8h.html" target="_top" xlink:title=" ">
<polygon fill="white" stroke="black" points="389,-336.5 389,-355.5 531,-355.5 531,-336.5 389,-336.5"/>
<text text-anchor="middle" x="460" y="-343.5" font-family="Arial" font-size="10.00">miral/window_specification.h</text>
</a>
</g>
</g>
<!-- Node1&#45;&gt;Node15 -->
<g id="edge19" class="edge">
<title>Node1&#45;&gt;Node15</title>
<path fill="none" stroke="midnightblue" d="M540.88,-392.4C523.73,-382.77 501.14,-370.09 484.19,-360.58"/>
<polygon fill="midnightblue" stroke="midnightblue" points="485.86,-357.5 475.42,-355.66 482.43,-363.6 485.86,-357.5"/>
</g>
<!-- Node17 -->
<g id="node17" class="node">
<title>Node17</title>
<g id="a_node17"><a xlink:href="rectangles_8h.html" target="_top" xlink:title=" ">
<polygon fill="white" stroke="black" points="516,-280.5 516,-299.5 646,-299.5 646,-280.5 516,-280.5"/>
<text text-anchor="middle" x="581" y="-287.5" font-family="Arial" font-size="10.00">mir/geometry/rectangles.h</text>
</a>
</g>
</g>
<!-- Node1&#45;&gt;Node17 -->
<g id="edge43" class="edge">
<title>Node1&#45;&gt;Node17</title>
<path fill="none" stroke="midnightblue" d="M567.84,-392.34C570.53,-371.62 575.54,-333.02 578.55,-309.9"/>
<polygon fill="midnightblue" stroke="midnightblue" points="582.06,-310.04 579.87,-299.67 575.12,-309.14 582.06,-310.04"/>
</g>
<!-- Node21 -->
<g id="node21" class="node">
<title>Node21</title>
<g id="a_node21"><a xlink:href="optional__value_8h.html" target="_top" xlink:title=" ">
<polygon fill="white" stroke="black" points="733,-280.5 733,-299.5 837,-299.5 837,-280.5 733,-280.5"/>
<text text-anchor="middle" x="785" y="-287.5" font-family="Arial" font-size="10.00">mir/optional_value.h</text>
</a>
</g>
</g>
<!-- Node1&#45;&gt;Node21 -->
<g id="edge44" class="edge">
<title>Node1&#45;&gt;Node21</title>
<path fill="none" stroke="midnightblue" d="M573.74,-392.38C583.26,-376.34 600.9,-350.51 623,-336 652.73,-316.49 690.84,-305.35 722.63,-299.05"/>
<polygon fill="midnightblue" stroke="midnightblue" points="723.53,-302.44 732.72,-297.16 722.24,-295.56 723.53,-302.44"/>
</g>
<!-- Node26 -->
<g id="node26" class="node">
<title>Node26</title>
<g id="a_node26"><a xlink:title=" ">
<polygon fill="white" stroke="#bfbfbf" points="632,-336.5 632,-355.5 688,-355.5 688,-336.5 632,-336.5"/>
<text text-anchor="middle" x="660" y="-343.5" font-family="Arial" font-size="10.00">algorithm</text>
</a>
</g>
</g>
<!-- Node1&#45;&gt;Node26 -->
<g id="edge45" class="edge">
<title>Node1&#45;&gt;Node26</title>
<path fill="none" stroke="midnightblue" d="M588.28,-392.4C603.2,-382.95 622.78,-370.56 637.71,-361.11"/>
<polygon fill="midnightblue" stroke="midnightblue" points="639.74,-363.96 646.32,-355.66 636,-358.05 639.74,-363.96"/>
</g>
<!-- Node3 -->
<g id="node3" class="node">
<title>Node3</title>
<g id="a_node3"><a xlink:href="application_8h.html" target="_top" xlink:title=" ">
<polygon fill="white" stroke="black" points="103.5,-280.5 103.5,-299.5 198.5,-299.5 198.5,-280.5 103.5,-280.5"/>
<text text-anchor="middle" x="151" y="-287.5" font-family="Arial" font-size="10.00">miral/application.h</text>
</a>
</g>
</g>
<!-- Node2&#45;&gt;Node3 -->
<g id="edge2" class="edge">
<title>Node2&#45;&gt;Node3</title>
<path fill="none" stroke="midnightblue" d="M249.46,-336.44C230.38,-327.64 200.43,-313.81 178.56,-303.72"/>
<polygon fill="midnightblue" stroke="midnightblue" points="180,-300.53 169.45,-299.52 177.07,-306.88 180,-300.53"/>
</g>
<!-- Node5 -->
<g id="node5" class="node">
<title>Node5</title>
<g id="a_node5"><a xlink:title=" ">
<polygon fill="white" stroke="#bfbfbf" points="0,-224.5 0,-243.5 52,-243.5 52,-224.5 0,-224.5"/>
<text text-anchor="middle" x="26" y="-231.5" font-family="Arial" font-size="10.00">memory</text>
</a>
</g>
</g>
<!-- Node2&#45;&gt;Node5 -->
<g id="edge18" class="edge">
<title>Node2&#45;&gt;Node5</title>
<path fill="none" stroke="midnightblue" d="M227.33,-340.53C173.94,-333.96 83.95,-320.23 58,-300 43.3,-288.54 34.89,-268.56 30.42,-253.77"/>
<polygon fill="midnightblue" stroke="midnightblue" points="33.69,-252.45 27.73,-243.7 26.93,-254.26 33.69,-252.45"/>
</g>
<!-- Node7 -->
<g id="node7" class="node">
<title>Node7</title>
<g id="a_node7"><a xlink:href="point_8h.html" target="_top" xlink:title=" ">
<polygon fill="white" stroke="black" points="366,-112.5 366,-131.5 472,-131.5 472,-112.5 366,-112.5"/>
<text text-anchor="middle" x="419" y="-119.5" font-family="Arial" font-size="10.00">mir/geometry/point.h</text>
</a>
</g>
</g>
<!-- Node2&#45;&gt;Node7 -->
<g id="edge6" class="edge">
<title>Node2&#45;&gt;Node7</title>
<path fill="none" stroke="midnightblue" d="M270.83,-336.41C275.1,-323.81 283.67,-299.66 293,-280 305.29,-254.1 308.01,-247.09 325,-224 349.08,-191.27 382.52,-157.57 402.34,-138.56"/>
<polygon fill="midnightblue" stroke="midnightblue" points="404.86,-141 409.7,-131.57 400.04,-135.92 404.86,-141"/>
</g>
<!-- Node14 -->
<g id="node14" class="node">
<title>Node14</title>
<g id="a_node14"><a xlink:href="size_8h.html" target="_top" xlink:title=" ">
<polygon fill="white" stroke="black" points="528.5,-112.5 528.5,-131.5 631.5,-131.5 631.5,-112.5 528.5,-112.5"/>
<text text-anchor="middle" x="580" y="-119.5" font-family="Arial" font-size="10.00">mir/geometry/size.h</text>
</a>
</g>
</g>
<!-- Node2&#45;&gt;Node14 -->
<g id="edge14" class="edge">
<title>Node2&#45;&gt;Node14</title>
<path fill="none" stroke="midnightblue" d="M308.61,-339.32C337.54,-333.53 375.93,-322.12 403,-300 455.42,-257.17 428.73,-213.33 479,-168 495.83,-152.82 518.62,-142.07 538.29,-134.9"/>
<polygon fill="midnightblue" stroke="midnightblue" points="539.64,-138.13 547.95,-131.56 537.35,-131.52 539.64,-138.13"/>
</g>
<!-- Node4 -->
<g id="node4" class="node">
<title>Node4</title>
<g id="a_node4"><a xlink:href="common_8h.html" target="_top" xlink:title=" ">
<polygon fill="white" stroke="black" points="130,-224.5 130,-243.5 240,-243.5 240,-224.5 130,-224.5"/>
<text text-anchor="middle" x="185" y="-231.5" font-family="Arial" font-size="10.00">mir_toolkit/common.h</text>
</a>
</g>
</g>
<!-- Node3&#45;&gt;Node4 -->
<g id="edge3" class="edge">
<title>Node3&#45;&gt;Node4</title>
<path fill="none" stroke="midnightblue" d="M156.61,-280.08C161.37,-272.53 168.32,-261.49 174.15,-252.23"/>
<polygon fill="midnightblue" stroke="midnightblue" points="177.12,-254.08 179.49,-243.75 171.2,-250.35 177.12,-254.08"/>
</g>
<!-- Node3&#45;&gt;Node5 -->
<g id="edge4" class="edge">
<title>Node3&#45;&gt;Node5</title>
<path fill="none" stroke="midnightblue" d="M131.19,-280.44C110.71,-271.6 78.52,-257.69 55.14,-247.59"/>
<polygon fill="midnightblue" stroke="midnightblue" points="56.28,-244.27 45.71,-243.52 53.51,-250.7 56.28,-244.27"/>
</g>
<!-- Node6 -->
<g id="node6" class="node">
<title>Node6</title>
<g id="a_node6"><a xlink:title=" ">
<polygon fill="white" stroke="#bfbfbf" points="70.5,-224.5 70.5,-243.5 111.5,-243.5 111.5,-224.5 70.5,-224.5"/>
<text text-anchor="middle" x="91" y="-231.5" font-family="Arial" font-size="10.00">string</text>
</a>
</g>
</g>
<!-- Node3&#45;&gt;Node6 -->
<g id="edge5" class="edge">
<title>Node3&#45;&gt;Node6</title>
<path fill="none" stroke="midnightblue" d="M141.36,-280.32C132.49,-272.34 119.13,-260.31 108.39,-250.65"/>
<polygon fill="midnightblue" stroke="midnightblue" points="110.59,-247.92 100.82,-243.83 105.91,-253.13 110.59,-247.92"/>
</g>
<!-- Node8 -->
<g id="node8" class="node">
<title>Node8</title>
<g id="a_node8"><a xlink:href="forward_8h.html" target="_top" xlink:title=" ">
<polygon fill="white" stroke="black" points="563.5,-0.5 563.5,-19.5 620.5,-19.5 620.5,-0.5 563.5,-0.5"/>
<text text-anchor="middle" x="592" y="-7.5" font-family="Arial" font-size="10.00">forward.h</text>
</a>
</g>
</g>
<!-- Node7&#45;&gt;Node8 -->
<g id="edge7" class="edge">
<title>Node7&#45;&gt;Node8</title>
<path fill="none" stroke="midnightblue" d="M453.09,-112.49C477.39,-105.34 510.04,-93.46 535,-76 553.56,-63.01 570.05,-42.74 580.46,-28.3"/>
<polygon fill="midnightblue" stroke="midnightblue" points="583.55,-29.98 586.38,-19.78 577.8,-25.99 583.55,-29.98"/>
</g>
<!-- Node9 -->
<g id="node9" class="node">
<title>Node9</title>
<g id="a_node9"><a xlink:href="dimensions_8h.html" target="_top" xlink:title=" ">
<polygon fill="white" stroke="black" points="452,-56.5 452,-75.5 526,-75.5 526,-56.5 452,-56.5"/>
<text text-anchor="middle" x="489" y="-63.5" font-family="Arial" font-size="10.00">dimensions.h</text>
</a>
</g>
</g>
<!-- Node7&#45;&gt;Node9 -->
<g id="edge8" class="edge">
<title>Node7&#45;&gt;Node9</title>
<path fill="none" stroke="midnightblue" d="M430.25,-112.32C440.8,-104.18 456.8,-91.84 469.44,-82.09"/>
<polygon fill="midnightblue" stroke="midnightblue" points="471.77,-84.71 477.55,-75.83 467.49,-79.17 471.77,-84.71"/>
</g>
<!-- Node13 -->
<g id="node13" class="node">
<title>Node13</title>
<g id="a_node13"><a xlink:title=" ">
<polygon fill="white" stroke="#bfbfbf" points="633,-56.5 633,-75.5 685,-75.5 685,-56.5 633,-56.5"/>
<text text-anchor="middle" x="659" y="-63.5" font-family="Arial" font-size="10.00">ostream</text>
</a>
</g>
</g>
<!-- Node7&#45;&gt;Node13 -->
<g id="edge13" class="edge">
<title>Node7&#45;&gt;Node13</title>
<path fill="none" stroke="midnightblue" d="M457.03,-112.44C502.64,-102.18 578.53,-85.11 623.15,-75.07"/>
<polygon fill="midnightblue" stroke="midnightblue" points="624,-78.46 632.98,-72.85 622.46,-71.63 624,-78.46"/>
</g>
<!-- Node9&#45;&gt;Node8 -->
<g id="edge9" class="edge">
<title>Node9&#45;&gt;Node8</title>
<path fill="none" stroke="midnightblue" d="M505.55,-56.32C521.99,-47.7 547.43,-34.36 566.47,-24.39"/>
<polygon fill="midnightblue" stroke="midnightblue" points="568.26,-27.4 575.49,-19.65 565.01,-21.2 568.26,-27.4"/>
</g>
<!-- Node10 -->
<g id="node10" class="node">
<title>Node10</title>
<g id="a_node10"><a xlink:title=" ">
<polygon fill="white" stroke="#bfbfbf" points="298.5,-0.5 298.5,-19.5 343.5,-19.5 343.5,-0.5 298.5,-0.5"/>
<text text-anchor="middle" x="321" y="-7.5" font-family="Arial" font-size="10.00">iosfwd</text>
</a>
</g>
</g>
<!-- Node9&#45;&gt;Node10 -->
<g id="edge10" class="edge">
<title>Node9&#45;&gt;Node10</title>
<path fill="none" stroke="midnightblue" d="M462.38,-56.44C432.83,-46.94 385.12,-31.61 353.41,-21.42"/>
<polygon fill="midnightblue" stroke="midnightblue" points="354.32,-18.03 343.72,-18.3 352.17,-24.7 354.32,-18.03"/>
</g>
<!-- Node11 -->
<g id="node11" class="node">
<title>Node11</title>
<g id="a_node11"><a xlink:title=" ">
<polygon fill="white" stroke="#bfbfbf" points="403,-0.5 403,-19.5 465,-19.5 465,-0.5 403,-0.5"/>
<text text-anchor="middle" x="434" y="-7.5" font-family="Arial" font-size="10.00">type_traits</text>
</a>
</g>
</g>
<!-- Node9&#45;&gt;Node11 -->
<g id="edge11" class="edge">
<title>Node9&#45;&gt;Node11</title>
<path fill="none" stroke="midnightblue" d="M479.92,-56.08C471.83,-48.14 459.8,-36.34 450.09,-26.8"/>
<polygon fill="midnightblue" stroke="midnightblue" points="452.5,-24.26 442.91,-19.75 447.6,-29.25 452.5,-24.26"/>
</g>
<!-- Node12 -->
<g id="node12" class="node">
<title>Node12</title>
<g id="a_node12"><a xlink:title=" ">
<polygon fill="white" stroke="#bfbfbf" points="483,-0.5 483,-19.5 529,-19.5 529,-0.5 483,-0.5"/>
<text text-anchor="middle" x="506" y="-7.5" font-family="Arial" font-size="10.00">cstdint</text>
</a>
</g>
</g>
<!-- Node9&#45;&gt;Node12 -->
<g id="edge12" class="edge">
<title>Node9&#45;&gt;Node12</title>
<path fill="none" stroke="midnightblue" d="M491.81,-56.08C494.08,-48.85 497.37,-38.41 500.21,-29.4"/>
<polygon fill="midnightblue" stroke="midnightblue" points="503.58,-30.34 503.25,-19.75 496.9,-28.24 503.58,-30.34"/>
</g>
<!-- Node14&#45;&gt;Node8 -->
<g id="edge15" class="edge">
<title>Node14&#45;&gt;Node8</title>
<path fill="none" stroke="midnightblue" d="M580.94,-112.37C582.88,-94.62 587.35,-53.67 589.97,-29.6"/>
<polygon fill="midnightblue" stroke="midnightblue" points="593.46,-29.91 591.06,-19.59 586.5,-29.15 593.46,-29.91"/>
</g>
<!-- Node14&#45;&gt;Node9 -->
<g id="edge16" class="edge">
<title>Node14&#45;&gt;Node9</title>
<path fill="none" stroke="midnightblue" d="M565.38,-112.32C551.05,-103.82 528.99,-90.73 512.25,-80.8"/>
<polygon fill="midnightblue" stroke="midnightblue" points="513.97,-77.75 503.58,-75.65 510.4,-83.77 513.97,-77.75"/>
</g>
<!-- Node14&#45;&gt;Node13 -->
<g id="edge17" class="edge">
<title>Node14&#45;&gt;Node13</title>
<path fill="none" stroke="midnightblue" d="M592.69,-112.32C604.9,-103.98 623.58,-91.21 638,-81.35"/>
<polygon fill="midnightblue" stroke="midnightblue" points="640.06,-84.19 646.34,-75.65 636.11,-78.41 640.06,-84.19"/>
</g>
<!-- Node15&#45;&gt;Node4 -->
<g id="edge20" class="edge">
<title>Node15&#45;&gt;Node4</title>
<path fill="none" stroke="midnightblue" d="M415.28,-336.5C380.98,-329.14 332.92,-317 293,-300 260.55,-286.19 226.16,-264.01 205.13,-249.47"/>
<polygon fill="midnightblue" stroke="midnightblue" points="206.91,-246.45 196.72,-243.57 202.89,-252.18 206.91,-246.45"/>
</g>
<!-- Node15&#45;&gt;Node5 -->
<g id="edge42" class="edge">
<title>Node15&#45;&gt;Node5</title>
<path fill="none" stroke="midnightblue" d="M388.85,-338.68C289.93,-329.53 120,-312.32 94,-300 70.81,-289.01 50.46,-267.02 38.21,-251.67"/>
<polygon fill="midnightblue" stroke="midnightblue" points="40.84,-249.34 31.97,-243.54 35.28,-253.6 40.84,-249.34"/>
</g>
<!-- Node16 -->
<g id="node16" class="node">
<title>Node16</title>
<g id="a_node16"><a xlink:href="displacement_8h.html" target="_top" xlink:title=" ">
<polygon fill="white" stroke="black" points="488.5,-168.5 488.5,-187.5 631.5,-187.5 631.5,-168.5 488.5,-168.5"/>
<text text-anchor="middle" x="560" y="-175.5" font-family="Arial" font-size="10.00">mir/geometry/displacement.h</text>
</a>
</g>
</g>
<!-- Node15&#45;&gt;Node16 -->
<g id="edge21" class="edge">
<title>Node15&#45;&gt;Node16</title>
<path fill="none" stroke="midnightblue" d="M463,-336.28C470.31,-315.65 490.46,-262.68 517,-224 524.32,-213.33 534.2,-202.8 542.64,-194.61"/>
<polygon fill="midnightblue" stroke="midnightblue" points="545.27,-196.94 550.17,-187.55 540.48,-191.84 545.27,-196.94"/>
</g>
<!-- Node15&#45;&gt;Node17 -->
<g id="edge26" class="edge">
<title>Node15&#45;&gt;Node17</title>
<path fill="none" stroke="midnightblue" d="M479.17,-336.44C498.91,-327.64 529.89,-313.81 552.49,-303.72"/>
<polygon fill="midnightblue" stroke="midnightblue" points="554.21,-306.79 561.92,-299.52 551.36,-300.4 554.21,-306.79"/>
</g>
<!-- Node15&#45;&gt;Node21 -->
<g id="edge36" class="edge">
<title>Node15&#45;&gt;Node21</title>
<path fill="none" stroke="midnightblue" d="M511.5,-336.44C569.14,-326.87 662.49,-311.36 723.81,-301.17"/>
<polygon fill="midnightblue" stroke="midnightblue" points="724.45,-304.61 733.74,-299.52 723.31,-297.7 724.45,-304.61"/>
</g>
<!-- Node24 -->
<g id="node24" class="node">
<title>Node24</title>
<g id="a_node24"><a xlink:href="int__wrapper_8h.html" target="_top" xlink:title=" ">
<polygon fill="white" stroke="black" points="302,-280.5 302,-299.5 394,-299.5 394,-280.5 302,-280.5"/>
<text text-anchor="middle" x="348" y="-287.5" font-family="Arial" font-size="10.00">mir/int_wrapper.h</text>
</a>
</g>
</g>
<!-- Node15&#45;&gt;Node24 -->
<g id="edge39" class="edge">
<title>Node15&#45;&gt;Node24</title>
<path fill="none" stroke="midnightblue" d="M442.01,-336.32C423.96,-327.62 395.95,-314.12 375.2,-304.11"/>
<polygon fill="midnightblue" stroke="midnightblue" points="376.48,-300.84 365.95,-299.65 373.44,-307.15 376.48,-300.84"/>
</g>
<!-- Node16&#45;&gt;Node7 -->
<g id="edge24" class="edge">
<title>Node16&#45;&gt;Node7</title>
<path fill="none" stroke="midnightblue" d="M537.66,-168.44C514.25,-159.48 477.26,-145.31 450.81,-135.18"/>
<polygon fill="midnightblue" stroke="midnightblue" points="451.83,-131.82 441.24,-131.52 449.32,-138.36 451.83,-131.82"/>
</g>
<!-- Node16&#45;&gt;Node8 -->
<g id="edge22" class="edge">
<title>Node16&#45;&gt;Node8</title>
<path fill="none" stroke="midnightblue" d="M591.15,-168.38C612.4,-161.29 640.18,-149.53 660,-132 681.81,-112.71 686.15,-104.04 694,-76 696.4,-67.44 698.85,-63.45 694,-56 680.07,-34.63 653.44,-23.33 630.89,-17.41"/>
<polygon fill="midnightblue" stroke="midnightblue" points="631.41,-13.93 620.87,-15.04 629.8,-20.75 631.41,-13.93"/>
</g>
<!-- Node16&#45;&gt;Node9 -->
<g id="edge23" class="edge">
<title>Node16&#45;&gt;Node9</title>
<path fill="none" stroke="midnightblue" d="M550.63,-168.38C541.68,-159.8 528.23,-145.92 519,-132 509.24,-117.29 501.08,-98.89 495.74,-85.43"/>
<polygon fill="midnightblue" stroke="midnightblue" points="498.92,-83.95 492.09,-75.86 492.38,-86.45 498.92,-83.95"/>
</g>
<!-- Node16&#45;&gt;Node13 -->
<g id="edge25" class="edge">
<title>Node16&#45;&gt;Node13</title>
<path fill="none" stroke="midnightblue" d="M585.84,-168.41C603.5,-161.29 626.12,-149.47 640,-132 650.62,-118.64 655.3,-99.52 657.37,-85.48"/>
<polygon fill="midnightblue" stroke="midnightblue" points="660.85,-85.85 658.53,-75.51 653.9,-85.04 660.85,-85.85"/>
</g>
<!-- Node17&#45;&gt;Node7 -->
<g id="edge27" class="edge">
<title>Node17&#45;&gt;Node7</title>
<path fill="none" stroke="midnightblue" d="M565.67,-280.26C539.52,-264.68 485.92,-229.81 453,-188 441.57,-173.49 432.18,-154.56 426.19,-140.87"/>
<polygon fill="midnightblue" stroke="midnightblue" points="429.39,-139.45 422.29,-131.59 422.93,-142.16 429.39,-139.45"/>
</g>
<!-- Node18 -->
<g id="node18" class="node">
<title>Node18</title>
<g id="a_node18"><a xlink:href="rectangle_8h.html" target="_top" xlink:title=" ">
<polygon fill="white" stroke="black" points="526.5,-224.5 526.5,-243.5 651.5,-243.5 651.5,-224.5 526.5,-224.5"/>
<text text-anchor="middle" x="589" y="-231.5" font-family="Arial" font-size="10.00">mir/geometry/rectangle.h</text>
</a>
</g>
</g>
<!-- Node17&#45;&gt;Node18 -->
<g id="edge28" class="edge">
<title>Node17&#45;&gt;Node18</title>
<path fill="none" stroke="midnightblue" d="M582.32,-280.08C583.38,-272.93 584.91,-262.64 586.23,-253.69"/>
<polygon fill="midnightblue" stroke="midnightblue" points="589.7,-254.16 587.7,-243.75 582.78,-253.13 589.7,-254.16"/>
</g>
<!-- Node19 -->
<g id="node19" class="node">
<title>Node19</title>
<g id="a_node19"><a xlink:title=" ">
<polygon fill="white" stroke="#bfbfbf" points="670,-224.5 670,-243.5 714,-243.5 714,-224.5 670,-224.5"/>
<text text-anchor="middle" x="692" y="-231.5" font-family="Arial" font-size="10.00">vector</text>
</a>
</g>
</g>
<!-- Node17&#45;&gt;Node19 -->
<g id="edge34" class="edge">
<title>Node17&#45;&gt;Node19</title>
<path fill="none" stroke="midnightblue" d="M598.83,-280.32C616.72,-271.62 644.48,-258.12 665.05,-248.11"/>
<polygon fill="midnightblue" stroke="midnightblue" points="666.75,-251.18 674.21,-243.65 663.69,-244.88 666.75,-251.18"/>
</g>
<!-- Node20 -->
<g id="node20" class="node">
<title>Node20</title>
<g id="a_node20"><a xlink:title=" ">
<polygon fill="white" stroke="#bfbfbf" points="732.5,-224.5 732.5,-243.5 805.5,-243.5 805.5,-224.5 732.5,-224.5"/>
<text text-anchor="middle" x="769" y="-231.5" font-family="Arial" font-size="10.00">initializer_list</text>
</a>
</g>
</g>
<!-- Node17&#45;&gt;Node20 -->
<g id="edge35" class="edge">
<title>Node17&#45;&gt;Node20</title>
<path fill="none" stroke="midnightblue" d="M610.79,-280.44C642.83,-271.24 693.93,-256.56 729.35,-246.39"/>
<polygon fill="midnightblue" stroke="midnightblue" points="730.71,-249.64 739.35,-243.52 728.77,-242.91 730.71,-249.64"/>
</g>
<!-- Node18&#45;&gt;Node7 -->
<g id="edge30" class="edge">
<title>Node18&#45;&gt;Node7</title>
<path fill="none" stroke="midnightblue" d="M558.27,-224.43C535.16,-217.06 503.41,-204.94 479,-188 459.78,-174.65 442.18,-154.17 431.09,-139.77"/>
<polygon fill="midnightblue" stroke="midnightblue" points="433.85,-137.62 425.06,-131.71 428.24,-141.81 433.85,-137.62"/>
</g>
<!-- Node18&#45;&gt;Node8 -->
<g id="edge29" class="edge">
<title>Node18&#45;&gt;Node8</title>
<path fill="none" stroke="midnightblue" d="M617.88,-224.36C636.61,-217.36 660.2,-205.72 675,-188 713.9,-141.41 744.43,-105.98 710,-56 692.3,-30.3 657.81,-19.27 630.67,-14.54"/>
<polygon fill="midnightblue" stroke="midnightblue" points="631.09,-11.06 620.68,-13.02 630.04,-17.98 631.09,-11.06"/>
</g>
<!-- Node18&#45;&gt;Node13 -->
<g id="edge33" class="edge">
<title>Node18&#45;&gt;Node13</title>
<path fill="none" stroke="midnightblue" d="M611.09,-224.42C626.5,-217.18 646.02,-205.21 656,-188 674.55,-156 669.01,-110.79 663.73,-85.67"/>
<polygon fill="midnightblue" stroke="midnightblue" points="667.08,-84.62 661.42,-75.67 660.26,-86.2 667.08,-84.62"/>
</g>
<!-- Node18&#45;&gt;Node14 -->
<g id="edge31" class="edge">
<title>Node18&#45;&gt;Node14</title>
<path fill="none" stroke="midnightblue" d="M604.46,-224.34C623.27,-212.58 651.23,-190.45 640,-168 633.27,-154.54 620.39,-144.07 608.29,-136.62"/>
<polygon fill="midnightblue" stroke="midnightblue" points="609.72,-133.41 599.3,-131.52 606.27,-139.5 609.72,-133.41"/>
</g>
<!-- Node18&#45;&gt;Node16 -->
<g id="edge32" class="edge">
<title>Node18&#45;&gt;Node16</title>
<path fill="none" stroke="midnightblue" d="M584.21,-224.08C580.24,-216.69 574.47,-205.95 569.57,-196.81"/>
<polygon fill="midnightblue" stroke="midnightblue" points="572.51,-194.91 564.7,-187.75 566.35,-198.22 572.51,-194.91"/>
</g>
<!-- Node22 -->
<g id="node22" class="node">
<title>Node22</title>
<g id="a_node22"><a xlink:href="fatal_8h.html" target="_top" xlink:title=" ">
<polygon fill="white" stroke="black" points="824,-224.5 824,-243.5 884,-243.5 884,-224.5 824,-224.5"/>
<text text-anchor="middle" x="854" y="-231.5" font-family="Arial" font-size="10.00">mir/fatal.h</text>
</a>
</g>
</g>
<!-- Node21&#45;&gt;Node22 -->
<g id="edge37" class="edge">
<title>Node21&#45;&gt;Node22</title>
<path fill="none" stroke="midnightblue" d="M796.09,-280.32C806.49,-272.18 822.26,-259.84 834.72,-250.09"/>
<polygon fill="midnightblue" stroke="midnightblue" points="836.99,-252.75 842.71,-243.83 832.68,-247.24 836.99,-252.75"/>
</g>
<!-- Node23 -->
<g id="node23" class="node">
<title>Node23</title>
<g id="a_node23"><a xlink:title=" ">
<polygon fill="white" stroke="#bfbfbf" points="902,-224.5 902,-243.5 942,-243.5 942,-224.5 902,-224.5"/>
<text text-anchor="middle" x="922" y="-231.5" font-family="Arial" font-size="10.00">utility</text>
</a>
</g>
</g>
<!-- Node21&#45;&gt;Node23 -->
<g id="edge38" class="edge">
<title>Node21&#45;&gt;Node23</title>
<path fill="none" stroke="midnightblue" d="M806.71,-280.44C829.75,-271.36 866.34,-256.94 892.1,-246.78"/>
<polygon fill="midnightblue" stroke="midnightblue" points="893.71,-249.91 901.73,-242.99 891.15,-243.4 893.71,-249.91"/>
</g>
<!-- Node24&#45;&gt;Node10 -->
<g id="edge40" class="edge">
<title>Node24&#45;&gt;Node10</title>
<path fill="none" stroke="midnightblue" d="M342.16,-280.31C330.62,-262.26 306,-219.07 306,-179 306,-179 306,-179 306,-121 306,-88.5 312.51,-51.1 316.95,-29.34"/>
<polygon fill="midnightblue" stroke="midnightblue" points="320.39,-30.01 319.04,-19.5 313.54,-28.56 320.39,-30.01"/>
</g>
<!-- Node25 -->
<g id="node25" class="node">
<title>Node25</title>
<g id="a_node25"><a xlink:title=" ">
<polygon fill="white" stroke="#bfbfbf" points="334.5,-224.5 334.5,-243.5 393.5,-243.5 393.5,-224.5 334.5,-224.5"/>
<text text-anchor="middle" x="364" y="-231.5" font-family="Arial" font-size="10.00">functional</text>
</a>
</g>
</g>
<!-- Node24&#45;&gt;Node25 -->
<g id="edge41" class="edge">
<title>Node24&#45;&gt;Node25</title>
<path fill="none" stroke="midnightblue" d="M350.64,-280.08C352.79,-272.85 355.88,-262.41 358.55,-253.4"/>
<polygon fill="midnightblue" stroke="midnightblue" points="361.92,-254.33 361.41,-243.75 355.21,-252.34 361.92,-254.33"/>
</g>
</g>
</svg>
