<?xml version="1.0" encoding="UTF-8" standalone="no"?>
<!DOCTYPE svg PUBLIC "-//W3C//DTD SVG 1.1//EN"
 "http://www.w3.org/Graphics/SVG/1.1/DTD/svg11.dtd">
<!-- Generated by graphviz version 2.38.0 (20140413.2041)
 -->
<!-- Title: include/miral/miral/window_info.h Pages: 1 -->
<svg width="918pt" height="307pt"
 viewBox="0.00 0.00 917.50 307.00" xmlns="http://www.w3.org/2000/svg" xmlns:xlink="http://www.w3.org/1999/xlink">
<g id="graph0" class="graph" transform="scale(1 1) rotate(0) translate(4 303)">
<title>include/miral/miral/window_info.h</title>
<polygon fill="white" stroke="none" points="-4,4 -4,-303 913.5,-303 913.5,4 -4,4"/>
<!-- Node24 -->
<g id="node1" class="node"><title>Node24</title>
<polygon fill="#bfbfbf" stroke="black" points="318.5,-268.5 318.5,-298.5 413.5,-298.5 413.5,-268.5 318.5,-268.5"/>
<text text-anchor="start" x="326.5" y="-286.5" font-family="Arial" font-size="10.00">include/miral/miral</text>
<text text-anchor="middle" x="366" y="-275.5" font-family="Arial" font-size="10.00">/window_info.h</text>
</g>
<!-- Node25 -->
<g id="node2" class="node"><title>Node25</title>
<g id="a_node2"><a xlink:href="kiosk__window__manager_8cpp.html" target="_top" xlink:title="examples/miral&#45;kiosk\l/kiosk_window_manager.cpp">
<polygon fill="white" stroke="black" points="768.5,-0.5 768.5,-30.5 909.5,-30.5 909.5,-0.5 768.5,-0.5"/>
<text text-anchor="start" x="776.5" y="-18.5" font-family="Arial" font-size="10.00">examples/miral&#45;kiosk</text>
<text text-anchor="middle" x="839" y="-7.5" font-family="Arial" font-size="10.00">/kiosk_window_manager.cpp</text>
</a>
</g>
</g>
<!-- Node24&#45;&gt;Node25 -->
<g id="edge1" class="edge"><title>Node24&#45;&gt;Node25</title>
<path fill="none" stroke="midnightblue" d="M423.683,-272.498C500.989,-257.403 640.767,-224.089 747,-165 786.644,-142.949 801.524,-137.404 824,-98 836.118,-76.7553 838.756,-47.7864 839.162,-30.7205"/>
<polygon fill="midnightblue" stroke="midnightblue" points="422.818,-269.1 413.656,-274.422 424.137,-275.975 422.818,-269.1"/>
</g>
<!-- Node26 -->
<g id="node3" class="node"><title>Node26</title>
<g id="a_node3"><a xlink:href="floating__window__manager_8cpp.html" target="_top" xlink:title="examples/example&#45;server\l&#45;lib/floating_window_manager.cpp">
<polygon fill="white" stroke="black" points="0,-0.5 0,-30.5 162,-30.5 162,-0.5 0,-0.5"/>
<text text-anchor="start" x="8" y="-18.5" font-family="Arial" font-size="10.00">examples/example&#45;server</text>
<text text-anchor="middle" x="81" y="-7.5" font-family="Arial" font-size="10.00">&#45;lib/floating_window_manager.cpp</text>
</a>
</g>
</g>
<!-- Node24&#45;&gt;Node26 -->
<g id="edge2" class="edge"><title>Node24&#45;&gt;Node26</title>
<path fill="none" stroke="midnightblue" d="M308.319,-272.632C246.835,-259.083 150.934,-228.732 96,-165 62.8407,-126.53 71.6639,-59.9193 77.6212,-30.8087"/>
<polygon fill="midnightblue" stroke="midnightblue" points="307.746,-276.088 318.255,-274.742 309.2,-269.241 307.746,-276.088"/>
</g>
<!-- Node27 -->
<g id="node4" class="node"><title>Node27</title>
<g id="a_node4"><a xlink:href="tiling__window__manager_8cpp.html" target="_top" xlink:title="examples/example&#45;server\l&#45;lib/tiling_window_manager.cpp">
<polygon fill="white" stroke="black" points="282.5,-67.5 282.5,-97.5 433.5,-97.5 433.5,-67.5 282.5,-67.5"/>
<text text-anchor="start" x="290.5" y="-85.5" font-family="Arial" font-size="10.00">examples/example&#45;server</text>
<text text-anchor="middle" x="358" y="-74.5" font-family="Arial" font-size="10.00">&#45;lib/tiling_window_manager.cpp</text>
</a>
</g>
</g>
<!-- Node24&#45;&gt;Node27 -->
<g id="edge3" class="edge"><title>Node24&#45;&gt;Node27</title>
<path fill="none" stroke="midnightblue" d="M350.663,-259.541C345.955,-251.226 341.388,-241.529 339,-232 326.872,-183.593 343.623,-124.265 352.757,-97.6268"/>
<polygon fill="midnightblue" stroke="midnightblue" points="347.763,-261.51 355.93,-268.26 353.755,-257.89 347.763,-261.51"/>
</g>
<!-- Node28 -->
<g id="node5" class="node"><title>Node28</title>
<g id="a_node5"><a xlink:href="window__manager__tools_8h.html" target="_top" xlink:title="include/miral/miral\l/window_manager_tools.h">
<polygon fill="white" stroke="black" points="348,-201.5 348,-231.5 476,-231.5 476,-201.5 348,-201.5"/>
<text text-anchor="start" x="356" y="-219.5" font-family="Arial" font-size="10.00">include/miral/miral</text>
<text text-anchor="middle" x="412" y="-208.5" font-family="Arial" font-size="10.00">/window_manager_tools.h</text>
</a>
</g>
</g>
<!-- Node24&#45;&gt;Node28 -->
<g id="edge4" class="edge"><title>Node24&#45;&gt;Node28</title>
<path fill="none" stroke="midnightblue" d="M381.812,-260.157C388.52,-250.679 396.135,-239.919 402.038,-231.577"/>
<polygon fill="midnightblue" stroke="midnightblue" points="378.901,-258.211 375.981,-268.396 384.615,-262.255 378.901,-258.211"/>
</g>
<!-- Node28&#45;&gt;Node25 -->
<g id="edge5" class="edge"><title>Node28&#45;&gt;Node25</title>
<path fill="none" stroke="midnightblue" d="M486.239,-211.293C546.296,-205.858 632.071,-193.422 702,-165 750.879,-145.134 765.659,-138.057 800,-98 817.458,-77.6362 828.994,-48.1133 834.73,-30.7533"/>
<polygon fill="midnightblue" stroke="midnightblue" points="485.745,-207.823 476.083,-212.168 486.346,-214.797 485.745,-207.823"/>
</g>
<!-- Node28&#45;&gt;Node26 -->
<g id="edge9" class="edge"><title>Node28&#45;&gt;Node26</title>
<path fill="none" stroke="midnightblue" d="M337.52,-210.641C263.08,-204.381 155.19,-191.05 123,-165 81.7622,-131.628 79.1895,-61.0449 80.1405,-30.7748"/>
<polygon fill="midnightblue" stroke="midnightblue" points="337.539,-214.154 347.791,-211.478 338.108,-207.178 337.539,-214.154"/>
</g>
<!-- Node28&#45;&gt;Node27 -->
<g id="edge13" class="edge"><title>Node28&#45;&gt;Node27</title>
<path fill="none" stroke="midnightblue" d="M393.839,-193.194C387.731,-184.774 381.366,-174.842 377,-165 367.043,-142.556 361.952,-114.227 359.642,-97.5641"/>
<polygon fill="midnightblue" stroke="midnightblue" points="391.19,-195.495 400.016,-201.355 396.771,-191.27 391.19,-195.495"/>
</g>
<!-- Node29 -->
<g id="node6" class="node"><title>Node29</title>
<g id="a_node6"><a xlink:href="decoration__provider_8h.html" target="_top" xlink:title="examples/example&#45;server\l&#45;lib/decoration_provider.h">
<polygon fill="white" stroke="black" points="132,-134.5 132,-164.5 260,-164.5 260,-134.5 132,-134.5"/>
<text text-anchor="start" x="140" y="-152.5" font-family="Arial" font-size="10.00">examples/example&#45;server</text>
<text text-anchor="middle" x="196" y="-141.5" font-family="Arial" font-size="10.00">&#45;lib/decoration_provider.h</text>
</a>
</g>
</g>
<!-- Node28&#45;&gt;Node29 -->
<g id="edge6" class="edge"><title>Node28&#45;&gt;Node29</title>
<path fill="none" stroke="midnightblue" d="M355.773,-198.58C320.69,-188.022 276.06,-174.592 242.892,-164.611"/>
<polygon fill="midnightblue" stroke="midnightblue" points="354.813,-201.946 365.397,-201.476 356.83,-195.243 354.813,-201.946"/>
</g>
<!-- Node31 -->
<g id="node8" class="node"><title>Node31</title>
<g id="a_node8"><a xlink:href="tiling__window__manager_8h.html" target="_top" xlink:title="examples/example&#45;server\l&#45;lib/tiling_window_manager.h">
<polygon fill="white" stroke="black" points="386,-134.5 386,-164.5 526,-164.5 526,-134.5 386,-134.5"/>
<text text-anchor="start" x="394" y="-152.5" font-family="Arial" font-size="10.00">examples/example&#45;server</text>
<text text-anchor="middle" x="456" y="-141.5" font-family="Arial" font-size="10.00">&#45;lib/tiling_window_manager.h</text>
</a>
</g>
</g>
<!-- Node28&#45;&gt;Node31 -->
<g id="edge10" class="edge"><title>Node28&#45;&gt;Node31</title>
<path fill="none" stroke="midnightblue" d="M427.321,-192.867C433.689,-183.459 440.882,-172.833 446.471,-164.577"/>
<polygon fill="midnightblue" stroke="midnightblue" points="424.255,-191.153 421.547,-201.396 430.051,-195.077 424.255,-191.153"/>
</g>
<!-- Node33 -->
<g id="node10" class="node"><title>Node33</title>
<g id="a_node10"><a xlink:href="canonical__window__manager_8h.html" target="_top" xlink:title="include/miral/miral\l/canonical_window_manager.h">
<polygon fill="white" stroke="black" points="544.5,-134.5 544.5,-164.5 693.5,-164.5 693.5,-134.5 544.5,-134.5"/>
<text text-anchor="start" x="552.5" y="-152.5" font-family="Arial" font-size="10.00">include/miral/miral</text>
<text text-anchor="middle" x="619" y="-141.5" font-family="Arial" font-size="10.00">/canonical_window_manager.h</text>
</a>
</g>
</g>
<!-- Node28&#45;&gt;Node33 -->
<g id="edge14" class="edge"><title>Node28&#45;&gt;Node33</title>
<path fill="none" stroke="midnightblue" d="M466.316,-198.444C499.871,-187.908 542.412,-174.549 574.062,-164.611"/>
<polygon fill="midnightblue" stroke="midnightblue" points="465.153,-195.141 456.661,-201.476 467.25,-201.819 465.153,-195.141"/>
</g>
<!-- Node29&#45;&gt;Node26 -->
<g id="edge8" class="edge"><title>Node29&#45;&gt;Node26</title>
<path fill="none" stroke="midnightblue" d="M158.052,-129.376C144.445,-121.133 129.812,-110.495 119,-98 101.43,-77.6943 90.3156,-47.884 84.9138,-30.5072"/>
<polygon fill="midnightblue" stroke="midnightblue" points="156.387,-132.456 166.794,-134.442 159.897,-126.4 156.387,-132.456"/>
</g>
<!-- Node30 -->
<g id="node7" class="node"><title>Node30</title>
<g id="a_node7"><a xlink:href="decoration__provider_8cpp.html" target="_top" xlink:title="examples/example&#45;server\l&#45;lib/decoration_provider.cpp">
<polygon fill="white" stroke="black" points="128,-67.5 128,-97.5 264,-97.5 264,-67.5 128,-67.5"/>
<text text-anchor="start" x="136" y="-85.5" font-family="Arial" font-size="10.00">examples/example&#45;server</text>
<text text-anchor="middle" x="196" y="-74.5" font-family="Arial" font-size="10.00">&#45;lib/decoration_provider.cpp</text>
</a>
</g>
</g>
<!-- Node29&#45;&gt;Node30 -->
<g id="edge7" class="edge"><title>Node29&#45;&gt;Node30</title>
<path fill="none" stroke="midnightblue" d="M196,-124.108C196,-115.154 196,-105.323 196,-97.5765"/>
<polygon fill="midnightblue" stroke="midnightblue" points="192.5,-124.396 196,-134.396 199.5,-124.396 192.5,-124.396"/>
</g>
<!-- Node31&#45;&gt;Node27 -->
<g id="edge12" class="edge"><title>Node31&#45;&gt;Node27</title>
<path fill="none" stroke="midnightblue" d="M426.198,-128.734C411.034,-118.676 392.955,-106.685 379.223,-97.5765"/>
<polygon fill="midnightblue" stroke="midnightblue" points="424.467,-131.785 434.735,-134.396 428.336,-125.952 424.467,-131.785"/>
</g>
<!-- Node32 -->
<g id="node9" class="node"><title>Node32</title>
<g id="a_node9"><a xlink:href="shell__main_8cpp.html" target="_top" xlink:title="examples/miral&#45;shell\l/shell_main.cpp">
<polygon fill="white" stroke="black" points="461,-0.5 461,-30.5 567,-30.5 567,-0.5 461,-0.5"/>
<text text-anchor="start" x="469" y="-18.5" font-family="Arial" font-size="10.00">examples/miral&#45;shell</text>
<text text-anchor="middle" x="514" y="-7.5" font-family="Arial" font-size="10.00">/shell_main.cpp</text>
</a>
</g>
</g>
<!-- Node31&#45;&gt;Node32 -->
<g id="edge11" class="edge"><title>Node31&#45;&gt;Node32</title>
<path fill="none" stroke="midnightblue" d="M461.531,-124.236C465.764,-107.672 472.345,-85.469 481,-67 487.044,-54.1022 495.98,-40.6559 503.029,-30.884"/>
<polygon fill="midnightblue" stroke="midnightblue" points="458.068,-123.666 459.091,-134.211 464.867,-125.329 458.068,-123.666"/>
</g>
<!-- Node34 -->
<g id="node11" class="node"><title>Node34</title>
<g id="a_node11"><a xlink:href="kiosk__window__manager_8h.html" target="_top" xlink:title="examples/miral&#45;kiosk\l/kiosk_window_manager.h">
<polygon fill="white" stroke="black" points="660.5,-67.5 660.5,-97.5 791.5,-97.5 791.5,-67.5 660.5,-67.5"/>
<text text-anchor="start" x="668.5" y="-85.5" font-family="Arial" font-size="10.00">examples/miral&#45;kiosk</text>
<text text-anchor="middle" x="726" y="-74.5" font-family="Arial" font-size="10.00">/kiosk_window_manager.h</text>
</a>
</g>
</g>
<!-- Node33&#45;&gt;Node34 -->
<g id="edge15" class="edge"><title>Node33&#45;&gt;Node34</title>
<path fill="none" stroke="midnightblue" d="M651.075,-129.015C667.726,-118.9 687.694,-106.77 702.828,-97.5765"/>
<polygon fill="midnightblue" stroke="midnightblue" points="648.947,-126.213 642.217,-134.396 652.581,-132.195 648.947,-126.213"/>
</g>
<!-- Node36 -->
<g id="node13" class="node"><title>Node36</title>
<g id="a_node13"><a xlink:href="floating__window__manager_8h.html" target="_top" xlink:title="examples/example&#45;server\l&#45;lib/floating_window_manager.h">
<polygon fill="white" stroke="black" points="490,-67.5 490,-97.5 642,-97.5 642,-67.5 490,-67.5"/>
<text text-anchor="start" x="498" y="-85.5" font-family="Arial" font-size="10.00">examples/example&#45;server</text>
<text text-anchor="middle" x="566" y="-74.5" font-family="Arial" font-size="10.00">&#45;lib/floating_window_manager.h</text>
</a>
</g>
</g>
<!-- Node33&#45;&gt;Node36 -->
<g id="edge18" class="edge"><title>Node33&#45;&gt;Node36</title>
<path fill="none" stroke="midnightblue" d="M601.019,-126.447C593.233,-116.899 584.349,-106.004 577.478,-97.5765"/>
<polygon fill="midnightblue" stroke="midnightblue" points="598.468,-128.858 607.5,-134.396 603.893,-124.434 598.468,-128.858"/>
</g>
<!-- Node34&#45;&gt;Node25 -->
<g id="edge17" class="edge"><title>Node34&#45;&gt;Node25</title>
<path fill="none" stroke="midnightblue" d="M759.386,-62.2956C777.068,-52.1248 798.398,-39.8549 814.529,-30.5765"/>
<polygon fill="midnightblue" stroke="midnightblue" points="757.442,-59.3759 750.519,-67.396 760.933,-65.4437 757.442,-59.3759"/>
</g>
<!-- Node35 -->
<g id="node12" class="node"><title>Node35</title>
<g id="a_node12"><a xlink:href="kiosk__main_8cpp.html" target="_top" xlink:title="examples/miral&#45;kiosk\l/kiosk_main.cpp">
<polygon fill="white" stroke="black" points="641.5,-0.5 641.5,-30.5 750.5,-30.5 750.5,-0.5 641.5,-0.5"/>
<text text-anchor="start" x="649.5" y="-18.5" font-family="Arial" font-size="10.00">examples/miral&#45;kiosk</text>
<text text-anchor="middle" x="696" y="-7.5" font-family="Arial" font-size="10.00">/kiosk_main.cpp</text>
</a>
</g>
</g>
<!-- Node34&#45;&gt;Node35 -->
<g id="edge16" class="edge"><title>Node34&#45;&gt;Node35</title>
<path fill="none" stroke="midnightblue" d="M715.285,-58.2835C711.01,-49.0223 706.229,-38.6632 702.497,-30.5765"/>
<polygon fill="midnightblue" stroke="midnightblue" points="712.122,-59.7831 719.49,-67.396 718.478,-56.8496 712.122,-59.7831"/>
</g>
<!-- Node36&#45;&gt;Node26 -->
<g id="edge20" class="edge"><title>Node36&#45;&gt;Node26</title>
<path fill="none" stroke="midnightblue" d="M479.791,-69.9462C389.929,-57.9028 250.18,-39.1736 162.22,-27.3852"/>
<polygon fill="midnightblue" stroke="midnightblue" points="479.576,-73.4486 489.952,-71.308 480.506,-66.5106 479.576,-73.4486"/>
</g>
<!-- Node36&#45;&gt;Node32 -->
<g id="edge19" class="edge"><title>Node36&#45;&gt;Node32</title>
<path fill="none" stroke="midnightblue" d="M548.358,-59.4472C540.719,-49.8986 532.003,-39.0037 525.261,-30.5765"/>
<polygon fill="midnightblue" stroke="midnightblue" points="545.737,-61.7737 554.717,-67.396 551.203,-57.4008 545.737,-61.7737"/>
</g>
</g>
</svg>
