<?xml version="1.0" encoding="UTF-8" standalone="no"?>
<!DOCTYPE svg PUBLIC "-//W3C//DTD SVG 1.1//EN"
 "http://www.w3.org/Graphics/SVG/1.1/DTD/svg11.dtd">
<!-- Generated by graphviz version 2.43.0 (0)
 -->
<!-- Title: include/miral/miral/window_info.h Pages: 1 -->
<svg width="938pt" height="307pt"
 viewBox="0.00 0.00 937.50 307.00" xmlns="http://www.w3.org/2000/svg" xmlns:xlink="http://www.w3.org/1999/xlink">
<g id="graph0" class="graph" transform="scale(1 1) rotate(0) translate(4 303)">
<title>include/miral/miral/window_info.h</title>
<polygon fill="white" stroke="transparent" points="-4,4 -4,-303 933.5,-303 933.5,4 -4,4"/>
<!-- Node1 -->
<g id="node1" class="node">
<title>Node1</title>
<g id="a_node1"><a xlink:title=" ">
<polygon fill="#bfbfbf" stroke="black" points="327,-268.5 327,-298.5 422,-298.5 422,-268.5 327,-268.5"/>
<text text-anchor="start" x="335" y="-286.5" font-family="Arial" font-size="10.00">include/miral/miral</text>
<text text-anchor="middle" x="374.5" y="-275.5" font-family="Arial" font-size="10.00">/window_info.h</text>
</a>
</g>
</g>
<!-- Node2 -->
<g id="node2" class="node">
<title>Node2</title>
<g id="a_node2"><a xlink:href="kiosk__window__manager_8cpp.html" target="_top" xlink:title=" ">
<polygon fill="white" stroke="black" points="0,-0.5 0,-30.5 143,-30.5 143,-0.5 0,-0.5"/>
<text text-anchor="start" x="8" y="-18.5" font-family="Arial" font-size="10.00">examples/miral&#45;kiosk</text>
<text text-anchor="middle" x="71.5" y="-7.5" font-family="Arial" font-size="10.00">/kiosk_window_manager.cpp</text>
</a>
</g>
</g>
<!-- Node1&#45;&gt;Node2 -->
<g id="edge1" class="edge">
<title>Node1&#45;&gt;Node2</title>
<path fill="none" stroke="midnightblue" d="M316.75,-272.49C254.82,-258.8 157.69,-228.3 100.5,-165 65.99,-126.8 67.32,-60.04 69.84,-30.85"/>
<polygon fill="midnightblue" stroke="midnightblue" points="316.25,-275.96 326.76,-274.63 317.71,-269.12 316.25,-275.96"/>
</g>
<!-- Node3 -->
<g id="node3" class="node">
<title>Node3</title>
<g id="a_node3"><a xlink:href="floating__window__manager_8cpp.html" target="_top" xlink:title=" ">
<polygon fill="white" stroke="black" points="293.5,-0.5 293.5,-30.5 457.5,-30.5 457.5,-0.5 293.5,-0.5"/>
<text text-anchor="start" x="301.5" y="-18.5" font-family="Arial" font-size="10.00">examples/example&#45;server</text>
<text text-anchor="middle" x="375.5" y="-7.5" font-family="Arial" font-size="10.00">&#45;lib/floating_window_manager.cpp</text>
</a>
</g>
</g>
<!-- Node1&#45;&gt;Node3 -->
<g id="edge2" class="edge">
<title>Node1&#45;&gt;Node3</title>
<path fill="none" stroke="midnightblue" d="M359.16,-259.54C354.45,-251.23 349.89,-241.53 347.5,-232 339.78,-201.18 326.28,-177.83 352.5,-67 355.56,-54.06 362.01,-40.4 367.3,-30.55"/>
<polygon fill="midnightblue" stroke="midnightblue" points="356.26,-261.51 364.43,-268.26 362.25,-257.89 356.26,-261.51"/>
</g>
<!-- Node4 -->
<g id="node4" class="node">
<title>Node4</title>
<g id="a_node4"><a xlink:href="tiling__window__manager_8cpp.html" target="_top" xlink:title=" ">
<polygon fill="white" stroke="black" points="777.5,-67.5 777.5,-97.5 929.5,-97.5 929.5,-67.5 777.5,-67.5"/>
<text text-anchor="start" x="785.5" y="-85.5" font-family="Arial" font-size="10.00">examples/example&#45;server</text>
<text text-anchor="middle" x="853.5" y="-74.5" font-family="Arial" font-size="10.00">&#45;lib/tiling_window_manager.cpp</text>
</a>
</g>
</g>
<!-- Node1&#45;&gt;Node4 -->
<g id="edge3" class="edge">
<title>Node1&#45;&gt;Node4</title>
<path fill="none" stroke="midnightblue" d="M432.35,-277.16C548.67,-265.1 804.27,-231.49 856.5,-165 871.63,-145.74 864.94,-115.29 859.01,-97.57"/>
<polygon fill="midnightblue" stroke="midnightblue" points="431.8,-273.7 422.21,-278.19 432.51,-280.66 431.8,-273.7"/>
</g>
<!-- Node5 -->
<g id="node5" class="node">
<title>Node5</title>
<g id="a_node5"><a xlink:href="window__manager__tools_8h.html" target="_top" xlink:title=" ">
<polygon fill="white" stroke="black" points="356.5,-201.5 356.5,-231.5 486.5,-231.5 486.5,-201.5 356.5,-201.5"/>
<text text-anchor="start" x="364.5" y="-219.5" font-family="Arial" font-size="10.00">include/miral/miral</text>
<text text-anchor="middle" x="421.5" y="-208.5" font-family="Arial" font-size="10.00">/window_manager_tools.h</text>
</a>
</g>
</g>
<!-- Node1&#45;&gt;Node5 -->
<g id="edge4" class="edge">
<title>Node1&#45;&gt;Node5</title>
<path fill="none" stroke="midnightblue" d="M390.66,-260.16C397.51,-250.68 405.29,-239.92 411.32,-231.58"/>
<polygon fill="midnightblue" stroke="midnightblue" points="387.72,-258.24 384.7,-268.4 393.39,-262.34 387.72,-258.24"/>
</g>
<!-- Node5&#45;&gt;Node2 -->
<g id="edge5" class="edge">
<title>Node5&#45;&gt;Node2</title>
<path fill="none" stroke="midnightblue" d="M346.01,-211.43C268.72,-205.78 155.39,-192.91 122.5,-165 101.4,-147.1 81.7,-64.21 74.44,-30.66"/>
<polygon fill="midnightblue" stroke="midnightblue" points="345.97,-214.94 356.19,-212.15 346.46,-207.96 345.97,-214.94"/>
</g>
<!-- Node5&#45;&gt;Node3 -->
<g id="edge9" class="edge">
<title>Node5&#45;&gt;Node3</title>
<path fill="none" stroke="midnightblue" d="M390.7,-195.13C381.1,-187.01 371.67,-176.78 366.5,-165 346.45,-119.36 361.75,-58.13 370.49,-30.76"/>
<polygon fill="midnightblue" stroke="midnightblue" points="388.7,-198 398.72,-201.44 393.03,-192.5 388.7,-198"/>
</g>
<!-- Node5&#45;&gt;Node4 -->
<g id="edge10" class="edge">
<title>Node5&#45;&gt;Node4</title>
<path fill="none" stroke="midnightblue" d="M497.14,-216.27C602.58,-215.72 786.26,-208.32 834.5,-165 853.42,-148.01 855.35,-116.16 854.68,-97.71"/>
<polygon fill="midnightblue" stroke="midnightblue" points="496.86,-212.77 486.87,-216.3 496.88,-219.77 496.86,-212.77"/>
</g>
<!-- Node6 -->
<g id="node6" class="node">
<title>Node6</title>
<g id="a_node6"><a xlink:href="decoration__provider_8h.html" target="_top" xlink:title=" ">
<polygon fill="white" stroke="black" points="375.5,-134.5 375.5,-164.5 503.5,-164.5 503.5,-134.5 375.5,-134.5"/>
<text text-anchor="start" x="383.5" y="-152.5" font-family="Arial" font-size="10.00">examples/example&#45;server</text>
<text text-anchor="middle" x="439.5" y="-141.5" font-family="Arial" font-size="10.00">&#45;lib/decoration_provider.h</text>
</a>
</g>
</g>
<!-- Node5&#45;&gt;Node6 -->
<g id="edge6" class="edge">
<title>Node5&#45;&gt;Node6</title>
<path fill="none" stroke="midnightblue" d="M428.09,-191.7C430.61,-182.59 433.41,-172.49 435.6,-164.58"/>
<polygon fill="midnightblue" stroke="midnightblue" points="424.7,-190.82 425.41,-201.4 431.45,-192.69 424.7,-190.82"/>
</g>
<!-- Node8 -->
<g id="node8" class="node">
<title>Node8</title>
<g id="a_node8"><a xlink:href="tiling__window__manager_8h.html" target="_top" xlink:title=" ">
<polygon fill="white" stroke="black" points="683.5,-134.5 683.5,-164.5 825.5,-164.5 825.5,-134.5 683.5,-134.5"/>
<text text-anchor="start" x="691.5" y="-152.5" font-family="Arial" font-size="10.00">examples/example&#45;server</text>
<text text-anchor="middle" x="754.5" y="-141.5" font-family="Arial" font-size="10.00">&#45;lib/tiling_window_manager.h</text>
</a>
</g>
</g>
<!-- Node5&#45;&gt;Node8 -->
<g id="edge11" class="edge">
<title>Node5&#45;&gt;Node8</title>
<path fill="none" stroke="midnightblue" d="M496.75,-200.81C552.71,-189.89 628.58,-175.08 683.5,-164.36"/>
<polygon fill="midnightblue" stroke="midnightblue" points="496.04,-197.38 486.89,-202.74 497.38,-204.25 496.04,-197.38"/>
</g>
<!-- Node10 -->
<g id="node10" class="node">
<title>Node10</title>
<g id="a_node10"><a xlink:href="canonical__window__manager_8h.html" target="_top" xlink:title=" ">
<polygon fill="white" stroke="black" points="131.5,-134.5 131.5,-164.5 281.5,-164.5 281.5,-134.5 131.5,-134.5"/>
<text text-anchor="start" x="139.5" y="-152.5" font-family="Arial" font-size="10.00">include/miral/miral</text>
<text text-anchor="middle" x="206.5" y="-141.5" font-family="Arial" font-size="10.00">/canonical_window_manager.h</text>
</a>
</g>
</g>
<!-- Node5&#45;&gt;Node10 -->
<g id="edge14" class="edge">
<title>Node5&#45;&gt;Node10</title>
<path fill="none" stroke="midnightblue" d="M365.53,-198.58C330.61,-188.02 286.19,-174.59 253.17,-164.61"/>
<polygon fill="midnightblue" stroke="midnightblue" points="364.53,-201.93 375.11,-201.48 366.55,-195.23 364.53,-201.93"/>
</g>
<!-- Node13 -->
<g id="node13" class="node">
<title>Node13</title>
<g id="a_node13"><a xlink:href="minimal__window__manager_8h.html" target="_top" xlink:title=" ">
<polygon fill="white" stroke="black" points="522,-134.5 522,-164.5 665,-164.5 665,-134.5 522,-134.5"/>
<text text-anchor="start" x="530" y="-152.5" font-family="Arial" font-size="10.00">include/miral/miral</text>
<text text-anchor="middle" x="593.5" y="-141.5" font-family="Arial" font-size="10.00">/minimal_window_manager.h</text>
</a>
</g>
</g>
<!-- Node5&#45;&gt;Node13 -->
<g id="edge18" class="edge">
<title>Node5&#45;&gt;Node13</title>
<path fill="none" stroke="midnightblue" d="M468.29,-197.82C495.93,-187.37 530.46,-174.32 556.25,-164.58"/>
<polygon fill="midnightblue" stroke="midnightblue" points="466.94,-194.59 458.82,-201.4 469.41,-201.13 466.94,-194.59"/>
</g>
<!-- Node6&#45;&gt;Node3 -->
<g id="edge8" class="edge">
<title>Node6&#45;&gt;Node3</title>
<path fill="none" stroke="midnightblue" d="M421.94,-125.91C415.89,-117.46 409.41,-107.58 404.5,-98 392.92,-75.42 383.99,-47.13 379.26,-30.52"/>
<polygon fill="midnightblue" stroke="midnightblue" points="419.25,-128.15 428,-134.12 424.88,-124 419.25,-128.15"/>
</g>
<!-- Node7 -->
<g id="node7" class="node">
<title>Node7</title>
<g id="a_node7"><a xlink:href="decoration__provider_8cpp.html" target="_top" xlink:title=" ">
<polygon fill="white" stroke="black" points="413.5,-67.5 413.5,-97.5 549.5,-97.5 549.5,-67.5 413.5,-67.5"/>
<text text-anchor="start" x="421.5" y="-85.5" font-family="Arial" font-size="10.00">examples/example&#45;server</text>
<text text-anchor="middle" x="481.5" y="-74.5" font-family="Arial" font-size="10.00">&#45;lib/decoration_provider.cpp</text>
</a>
</g>
</g>
<!-- Node6&#45;&gt;Node7 -->
<g id="edge7" class="edge">
<title>Node6&#45;&gt;Node7</title>
<path fill="none" stroke="midnightblue" d="M454.12,-125.87C460.2,-116.46 467.07,-105.83 472.4,-97.58"/>
<polygon fill="midnightblue" stroke="midnightblue" points="451.1,-124.1 448.61,-134.4 456.98,-127.9 451.1,-124.1"/>
</g>
<!-- Node8&#45;&gt;Node4 -->
<g id="edge13" class="edge">
<title>Node8&#45;&gt;Node4</title>
<path fill="none" stroke="midnightblue" d="M784.61,-128.73C799.92,-118.68 818.19,-106.68 832.06,-97.58"/>
<polygon fill="midnightblue" stroke="midnightblue" points="782.42,-125.98 775.98,-134.4 786.26,-131.83 782.42,-125.98"/>
</g>
<!-- Node9 -->
<g id="node9" class="node">
<title>Node9</title>
<g id="a_node9"><a xlink:href="shell__main_8cpp.html" target="_top" xlink:title=" ">
<polygon fill="white" stroke="black" points="643.5,-0.5 643.5,-30.5 749.5,-30.5 749.5,-0.5 643.5,-0.5"/>
<text text-anchor="start" x="651.5" y="-18.5" font-family="Arial" font-size="10.00">examples/miral&#45;shell</text>
<text text-anchor="middle" x="696.5" y="-7.5" font-family="Arial" font-size="10.00">/shell_main.cpp</text>
</a>
</g>
</g>
<!-- Node8&#45;&gt;Node9 -->
<g id="edge12" class="edge">
<title>Node8&#45;&gt;Node9</title>
<path fill="none" stroke="midnightblue" d="M749.48,-124.48C745.52,-107.87 739.2,-85.51 730.5,-67 724.38,-53.99 715.17,-40.55 707.88,-30.81"/>
<polygon fill="midnightblue" stroke="midnightblue" points="746.12,-125.5 751.74,-134.48 752.95,-123.95 746.12,-125.5"/>
</g>
<!-- Node11 -->
<g id="node11" class="node">
<title>Node11</title>
<g id="a_node11"><a xlink:href="kiosk__window__manager_8h.html" target="_top" xlink:title=" ">
<polygon fill="white" stroke="black" points="140.5,-67.5 140.5,-97.5 272.5,-97.5 272.5,-67.5 140.5,-67.5"/>
<text text-anchor="start" x="148.5" y="-85.5" font-family="Arial" font-size="10.00">examples/miral&#45;kiosk</text>
<text text-anchor="middle" x="206.5" y="-74.5" font-family="Arial" font-size="10.00">/kiosk_window_manager.h</text>
</a>
</g>
</g>
<!-- Node10&#45;&gt;Node11 -->
<g id="edge15" class="edge">
<title>Node10&#45;&gt;Node11</title>
<path fill="none" stroke="midnightblue" d="M206.5,-124.11C206.5,-115.15 206.5,-105.32 206.5,-97.58"/>
<polygon fill="midnightblue" stroke="midnightblue" points="203,-124.4 206.5,-134.4 210,-124.4 203,-124.4"/>
</g>
<!-- Node11&#45;&gt;Node2 -->
<g id="edge17" class="edge">
<title>Node11&#45;&gt;Node2</title>
<path fill="none" stroke="midnightblue" d="M168.06,-62.99C146.66,-52.69 120.45,-40.07 100.74,-30.58"/>
<polygon fill="midnightblue" stroke="midnightblue" points="166.68,-66.21 177.21,-67.4 169.72,-59.9 166.68,-66.21"/>
</g>
<!-- Node12 -->
<g id="node12" class="node">
<title>Node12</title>
<g id="a_node12"><a xlink:href="kiosk__main_8cpp.html" target="_top" xlink:title=" ">
<polygon fill="white" stroke="black" points="161,-0.5 161,-30.5 270,-30.5 270,-0.5 161,-0.5"/>
<text text-anchor="start" x="169" y="-18.5" font-family="Arial" font-size="10.00">examples/miral&#45;kiosk</text>
<text text-anchor="middle" x="215.5" y="-7.5" font-family="Arial" font-size="10.00">/kiosk_main.cpp</text>
</a>
</g>
</g>
<!-- Node11&#45;&gt;Node12 -->
<g id="edge16" class="edge">
<title>Node11&#45;&gt;Node12</title>
<path fill="none" stroke="midnightblue" d="M209.84,-57.4C211.09,-48.37 212.47,-38.41 213.55,-30.58"/>
<polygon fill="midnightblue" stroke="midnightblue" points="206.36,-57.01 208.45,-67.4 213.29,-57.97 206.36,-57.01"/>
</g>
<!-- Node14 -->
<g id="node14" class="node">
<title>Node14</title>
<g id="a_node14"><a xlink:href="floating__window__manager_8h.html" target="_top" xlink:title=" ">
<polygon fill="white" stroke="black" points="568,-67.5 568,-97.5 721,-97.5 721,-67.5 568,-67.5"/>
<text text-anchor="start" x="576" y="-85.5" font-family="Arial" font-size="10.00">examples/example&#45;server</text>
<text text-anchor="middle" x="644.5" y="-74.5" font-family="Arial" font-size="10.00">&#45;lib/floating_window_manager.h</text>
</a>
</g>
</g>
<!-- Node13&#45;&gt;Node14 -->
<g id="edge19" class="edge">
<title>Node13&#45;&gt;Node14</title>
<path fill="none" stroke="midnightblue" d="M610.8,-126.45C618.29,-116.9 626.84,-106 633.46,-97.58"/>
<polygon fill="midnightblue" stroke="midnightblue" points="607.99,-124.37 604.57,-134.4 613.49,-128.69 607.99,-124.37"/>
</g>
<!-- Node14&#45;&gt;Node3 -->
<g id="edge21" class="edge">
<title>Node14&#45;&gt;Node3</title>
<path fill="none" stroke="midnightblue" d="M576.71,-65.12C532.69,-54.48 475.91,-40.76 433.9,-30.61"/>
<polygon fill="midnightblue" stroke="midnightblue" points="575.92,-68.53 586.46,-67.48 577.56,-61.73 575.92,-68.53"/>
</g>
<!-- Node14&#45;&gt;Node9 -->
<g id="edge20" class="edge">
<title>Node14&#45;&gt;Node9</title>
<path fill="none" stroke="midnightblue" d="M662.14,-59.45C669.78,-49.9 678.5,-39 685.24,-30.58"/>
<polygon fill="midnightblue" stroke="midnightblue" points="659.3,-57.4 655.78,-67.4 664.76,-61.77 659.3,-57.4"/>
</g>
</g>
</svg>
