<?xml version="1.0" encoding="UTF-8" standalone="no"?>
<!DOCTYPE svg PUBLIC "-//W3C//DTD SVG 1.1//EN"
 "http://www.w3.org/Graphics/SVG/1.1/DTD/svg11.dtd">
<!-- Generated by graphviz version 2.38.0 (20140413.2041)
 -->
<!-- Title: include/miral/miral/window_management_options.h Pages: 1 -->
<svg width="256pt" height="95pt"
 viewBox="0.00 0.00 256.00 95.00" xmlns="http://www.w3.org/2000/svg" xmlns:xlink="http://www.w3.org/1999/xlink">
<g id="graph0" class="graph" transform="scale(1 1) rotate(0) translate(4 91)">
<title>include/miral/miral/window_management_options.h</title>
<polygon fill="white" stroke="none" points="-4,4 -4,-91 252,-91 252,4 -4,4"/>
<!-- Node0 -->
<g id="node1" class="node"><title>Node0</title>
<polygon fill="#bfbfbf" stroke="black" points="55,-56.5 55,-86.5 213,-86.5 213,-56.5 55,-56.5"/>
<text text-anchor="start" x="63" y="-74.5" font-family="Arial" font-size="10.00">include/miral/miral</text>
<text text-anchor="middle" x="134" y="-63.5" font-family="Arial" font-size="10.00">/window_management_options.h</text>
</g>
<!-- Node1 -->
<g id="node2" class="node"><title>Node1</title>
<polygon fill="white" stroke="#bfbfbf" points="0,-0.5 0,-19.5 58,-19.5 58,-0.5 0,-0.5"/>
<text text-anchor="middle" x="29" y="-7.5" font-family="Arial" font-size="10.00">functional</text>
</g>
<!-- Node0&#45;&gt;Node1 -->
<g id="edge1" class="edge"><title>Node0&#45;&gt;Node1</title>
<path fill="none" stroke="midnightblue" d="M109.116,-56.3993C92.2858,-46.8619 70.1614,-34.3248 53.4274,-24.8422"/>
<polygon fill="midnightblue" stroke="midnightblue" points="54.7042,-21.5429 44.2784,-19.6578 51.2531,-27.633 54.7042,-21.5429"/>
</g>
<!-- Node2 -->
<g id="node3" class="node"><title>Node2</title>
<polygon fill="white" stroke="#bfbfbf" points="76,-0.5 76,-19.5 128,-19.5 128,-0.5 76,-0.5"/>
<text text-anchor="middle" x="102" y="-7.5" font-family="Arial" font-size="10.00">memory</text>
</g>
<!-- Node0&#45;&gt;Node2 -->
<g id="edge2" class="edge"><title>Node0&#45;&gt;Node2</title>
<path fill="none" stroke="midnightblue" d="M126.416,-56.3993C121.958,-48.1098 116.281,-37.5542 111.523,-28.7077"/>
<polygon fill="midnightblue" stroke="midnightblue" points="114.475,-26.8071 106.656,-19.6578 108.31,-30.1227 114.475,-26.8071"/>
</g>
<!-- Node3 -->
<g id="node4" class="node"><title>Node3</title>
<polygon fill="white" stroke="#bfbfbf" points="146.5,-0.5 146.5,-19.5 187.5,-19.5 187.5,-0.5 146.5,-0.5"/>
<text text-anchor="middle" x="167" y="-7.5" font-family="Arial" font-size="10.00">string</text>
</g>
<!-- Node0&#45;&gt;Node3 -->
<g id="edge3" class="edge"><title>Node0&#45;&gt;Node3</title>
<path fill="none" stroke="midnightblue" d="M141.821,-56.3993C146.468,-48.0207 152.399,-37.3269 157.337,-28.4229"/>
<polygon fill="midnightblue" stroke="midnightblue" points="160.409,-30.1004 162.198,-19.6578 154.287,-26.7052 160.409,-30.1004"/>
</g>
<!-- Node4 -->
<g id="node5" class="node"><title>Node4</title>
<polygon fill="white" stroke="#bfbfbf" points="206,-0.5 206,-19.5 248,-19.5 248,-0.5 206,-0.5"/>
<text text-anchor="middle" x="227" y="-7.5" font-family="Arial" font-size="10.00">vector</text>
</g>
<!-- Node0&#45;&gt;Node4 -->
<g id="edge4" class="edge"><title>Node0&#45;&gt;Node4</title>
<path fill="none" stroke="midnightblue" d="M156.04,-56.3993C170.808,-46.9511 190.177,-34.5589 204.947,-25.1089"/>
<polygon fill="midnightblue" stroke="midnightblue" points="206.93,-27.9953 213.468,-19.6578 203.158,-22.0988 206.93,-27.9953"/>
</g>
</g>
</svg>
