<?xml version="1.0" encoding="UTF-8" standalone="no"?>
<!DOCTYPE svg PUBLIC "-//W3C//DTD SVG 1.1//EN"
 "http://www.w3.org/Graphics/SVG/1.1/DTD/svg11.dtd">
<!-- Generated by graphviz version 2.40.1 (20161225.0304)
 -->
<!-- Title: include/miral/miral/window_info.h Pages: 1 -->
<svg width="1054pt" height="375pt"
 viewBox="0.00 0.00 1053.94 375.00" xmlns="http://www.w3.org/2000/svg" xmlns:xlink="http://www.w3.org/1999/xlink">
<g id="graph0" class="graph" transform="scale(1 1) rotate(0) translate(4 371)">
<title>include/miral/miral/window_info.h</title>
<polygon fill="#ffffff" stroke="transparent" points="-4,4 -4,-371 1049.9448,-371 1049.9448,4 -4,4"/>
<!-- Node0 -->
<g id="node1" class="node">
<title>Node0</title>
<polygon fill="#bfbfbf" stroke="#000000" points="570.4448,-336.5 570.4448,-366.5 665.4448,-366.5 665.4448,-336.5 570.4448,-336.5"/>
<text text-anchor="start" x="578.4448" y="-354.5" font-family="Arial" font-size="10.00" fill="#000000">include/miral/miral</text>
<text text-anchor="middle" x="617.9448" y="-343.5" font-family="Arial" font-size="10.00" fill="#000000">/window_info.h</text>
</g>
<!-- Node1 -->
<g id="node2" class="node">
<title>Node1</title>
<g id="a_node2"><a xlink:href="miral_2miral_2window_8h.html" target="_top" xlink:title="miral/window.h">
<polygon fill="#ffffff" stroke="#000000" points="117.9448,-280.5 117.9448,-299.5 197.9448,-299.5 197.9448,-280.5 117.9448,-280.5"/>
<text text-anchor="middle" x="157.9448" y="-287.5" font-family="Arial" font-size="10.00" fill="#000000">miral/window.h</text>
</a>
</g>
</g>
<!-- Node0&#45;&gt;Node1 -->
<g id="edge1" class="edge">
<title>Node0&#45;&gt;Node1</title>
<path fill="none" stroke="#191970" d="M570.0185,-345.0925C482.4753,-333.3883 297.5184,-308.6604 208.2461,-296.7251"/>
<polygon fill="#191970" stroke="#191970" points="208.4798,-293.2253 198.1042,-295.3691 207.5521,-300.1635 208.4798,-293.2253"/>
</g>
<!-- Node12 -->
<g id="node13" class="node">
<title>Node12</title>
<g id="a_node13"><a xlink:href="window__specification_8h.html" target="_top" xlink:title="miral/window_specification.h">
<polygon fill="#ffffff" stroke="#000000" points="547.9448,-280.5 547.9448,-299.5 687.9448,-299.5 687.9448,-280.5 547.9448,-280.5"/>
<text text-anchor="middle" x="617.9448" y="-287.5" font-family="Arial" font-size="10.00" fill="#000000">miral/window_specification.h</text>
</a>
</g>
</g>
<!-- Node0&#45;&gt;Node12 -->
<g id="edge16" class="edge">
<title>Node0&#45;&gt;Node12</title>
<path fill="none" stroke="#191970" d="M617.9448,-336.2977C617.9448,-328.3834 617.9448,-318.6043 617.9448,-310.0759"/>
<polygon fill="#191970" stroke="#191970" points="621.4449,-309.8469 617.9448,-299.8469 614.4449,-309.847 621.4449,-309.8469"/>
</g>
<!-- Node14 -->
<g id="node15" class="node">
<title>Node14</title>
<g id="a_node15"><a xlink:href="rectangles_8h.html" target="_top" xlink:title="mir/geometry/rectangles.h">
<polygon fill="#ffffff" stroke="#000000" points="454.9448,-224.5 454.9448,-243.5 584.9448,-243.5 584.9448,-224.5 454.9448,-224.5"/>
<text text-anchor="middle" x="519.9448" y="-231.5" font-family="Arial" font-size="10.00" fill="#000000">mir/geometry/rectangles.h</text>
</a>
</g>
</g>
<!-- Node0&#45;&gt;Node14 -->
<g id="edge37" class="edge">
<title>Node0&#45;&gt;Node14</title>
<path fill="none" stroke="#191970" d="M584.2378,-336.4982C568.4129,-327.8952 550.5282,-315.6656 538.9448,-300 528.9879,-286.5342 524.2374,-267.9775 521.9775,-253.9695"/>
<polygon fill="#191970" stroke="#191970" points="525.4262,-253.3504 520.6471,-243.8947 518.4864,-254.2669 525.4262,-253.3504"/>
</g>
<!-- Node18 -->
<g id="node19" class="node">
<title>Node18</title>
<g id="a_node19"><a xlink:href="optional__value_8h.html" target="_top" xlink:title="mir/optional_value.h">
<polygon fill="#ffffff" stroke="#000000" points="905.9448,-224.5 905.9448,-243.5 1009.9448,-243.5 1009.9448,-224.5 905.9448,-224.5"/>
<text text-anchor="middle" x="957.9448" y="-231.5" font-family="Arial" font-size="10.00" fill="#000000">mir/optional_value.h</text>
</a>
</g>
</g>
<!-- Node0&#45;&gt;Node18 -->
<g id="edge38" class="edge">
<title>Node0&#45;&gt;Node18</title>
<path fill="none" stroke="#191970" d="M640.8261,-336.2102C669.0936,-317.5555 715.7917,-287.561 734.9448,-280 763.6316,-268.6754 840.1966,-254.0661 895.6163,-244.3837"/>
<polygon fill="#191970" stroke="#191970" points="896.4469,-247.792 905.702,-242.635 895.251,-240.8949 896.4469,-247.792"/>
</g>
<!-- Node23 -->
<g id="node24" class="node">
<title>Node23</title>
<polygon fill="#ffffff" stroke="#bfbfbf" points="743.9448,-280.5 743.9448,-299.5 799.9448,-299.5 799.9448,-280.5 743.9448,-280.5"/>
<text text-anchor="middle" x="771.9448" y="-287.5" font-family="Arial" font-size="10.00" fill="#000000">algorithm</text>
</g>
<!-- Node0&#45;&gt;Node23 -->
<g id="edge39" class="edge">
<title>Node0&#45;&gt;Node23</title>
<path fill="none" stroke="#191970" d="M655.6174,-336.4554C680.9746,-326.329 714.11,-313.0964 738.5273,-303.3453"/>
<polygon fill="#191970" stroke="#191970" points="740.0914,-306.4895 748.0802,-299.5303 737.4953,-299.9887 740.0914,-306.4895"/>
</g>
<!-- Node2 -->
<g id="node3" class="node">
<title>Node2</title>
<g id="a_node3"><a xlink:href="application_8h.html" target="_top" xlink:title="miral/application.h">
<polygon fill="#ffffff" stroke="#000000" points="110.4448,-224.5 110.4448,-243.5 205.4448,-243.5 205.4448,-224.5 110.4448,-224.5"/>
<text text-anchor="middle" x="157.9448" y="-231.5" font-family="Arial" font-size="10.00" fill="#000000">miral/application.h</text>
</a>
</g>
</g>
<!-- Node1&#45;&gt;Node2 -->
<g id="edge2" class="edge">
<title>Node1&#45;&gt;Node2</title>
<path fill="none" stroke="#191970" d="M157.9448,-280.2455C157.9448,-272.9382 157.9448,-262.6944 157.9448,-253.7046"/>
<polygon fill="#191970" stroke="#191970" points="161.4449,-253.6426 157.9448,-243.6427 154.4449,-253.6427 161.4449,-253.6426"/>
</g>
<!-- Node5 -->
<g id="node6" class="node">
<title>Node5</title>
<polygon fill="#ffffff" stroke="#bfbfbf" points="245.9448,-168.5 245.9448,-187.5 297.9448,-187.5 297.9448,-168.5 245.9448,-168.5"/>
<text text-anchor="middle" x="271.9448" y="-175.5" font-family="Arial" font-size="10.00" fill="#000000">memory</text>
</g>
<!-- Node1&#45;&gt;Node5 -->
<g id="edge15" class="edge">
<title>Node1&#45;&gt;Node5</title>
<path fill="none" stroke="#191970" d="M170.898,-280.327C182.5815,-271.3809 200.0178,-257.4708 213.9448,-244 229.7745,-228.6888 246.1967,-209.6558 257.5083,-195.9688"/>
<polygon fill="#191970" stroke="#191970" points="260.5326,-197.7989 264.1461,-187.8393 255.1104,-193.3716 260.5326,-197.7989"/>
</g>
<!-- Node7 -->
<g id="node8" class="node">
<title>Node7</title>
<g id="a_node8"><a xlink:href="point_8h.html" target="_top" xlink:title="mir/geometry/point.h">
<polygon fill="#ffffff" stroke="#000000" points="431.9448,-112.5 431.9448,-131.5 537.9448,-131.5 537.9448,-112.5 431.9448,-112.5"/>
<text text-anchor="middle" x="484.9448" y="-119.5" font-family="Arial" font-size="10.00" fill="#000000">mir/geometry/point.h</text>
</a>
</g>
</g>
<!-- Node1&#45;&gt;Node7 -->
<g id="edge7" class="edge">
<title>Node1&#45;&gt;Node7</title>
<path fill="none" stroke="#191970" d="M137.8729,-280.4617C97.0176,-259.8457 11.1372,-209.6323 48.9448,-168 75.4605,-138.8019 349.3774,-137.3426 421.5936,-131.6768"/>
<polygon fill="#191970" stroke="#191970" points="422.0908,-135.145 431.7016,-130.686 421.4079,-128.1784 422.0908,-135.145"/>
</g>
<!-- Node11 -->
<g id="node12" class="node">
<title>Node11</title>
<g id="a_node12"><a xlink:href="size_8h.html" target="_top" xlink:title="mir/geometry/size.h">
<polygon fill="#ffffff" stroke="#000000" points="310.4448,-112.5 310.4448,-131.5 413.4448,-131.5 413.4448,-112.5 310.4448,-112.5"/>
<text text-anchor="middle" x="361.9448" y="-119.5" font-family="Arial" font-size="10.00" fill="#000000">mir/geometry/size.h</text>
</a>
</g>
</g>
<!-- Node1&#45;&gt;Node11 -->
<g id="edge12" class="edge">
<title>Node1&#45;&gt;Node11</title>
<path fill="none" stroke="#191970" d="M117.806,-282.4438C80.231,-274.4575 28.0996,-260.7141 15.9448,-244 -3.9214,-216.682 -6.3103,-193.4097 15.9448,-168 25.2236,-157.4059 203.5196,-137.9375 300.4408,-128.0725"/>
<polygon fill="#191970" stroke="#191970" points="300.8176,-131.5523 310.4138,-127.062 300.1119,-124.5879 300.8176,-131.5523"/>
</g>
<!-- Node3 -->
<g id="node4" class="node">
<title>Node3</title>
<g id="a_node4"><a xlink:href="common_8h.html" target="_top" xlink:title="mir_toolkit/common.h">
<polygon fill="#ffffff" stroke="#000000" points="117.9448,-168.5 117.9448,-187.5 227.9448,-187.5 227.9448,-168.5 117.9448,-168.5"/>
<text text-anchor="middle" x="172.9448" y="-175.5" font-family="Arial" font-size="10.00" fill="#000000">mir_toolkit/common.h</text>
</a>
</g>
</g>
<!-- Node2&#45;&gt;Node3 -->
<g id="edge3" class="edge">
<title>Node2&#45;&gt;Node3</title>
<path fill="none" stroke="#191970" d="M160.5576,-224.2455C162.5364,-216.8579 165.3192,-206.4689 167.746,-197.4087"/>
<polygon fill="#191970" stroke="#191970" points="171.1553,-198.2078 170.3619,-187.6427 164.3936,-196.3966 171.1553,-198.2078"/>
</g>
<!-- Node2&#45;&gt;Node5 -->
<g id="edge5" class="edge">
<title>Node2&#45;&gt;Node5</title>
<path fill="none" stroke="#191970" d="M177.5421,-224.3733C195.6779,-215.4644 222.8583,-202.1127 243.4034,-192.0203"/>
<polygon fill="#191970" stroke="#191970" points="245.1708,-195.0517 252.6032,-187.5011 242.0845,-188.7688 245.1708,-195.0517"/>
</g>
<!-- Node6 -->
<g id="node7" class="node">
<title>Node6</title>
<polygon fill="#ffffff" stroke="#bfbfbf" points="58.4448,-168.5 58.4448,-187.5 99.4448,-187.5 99.4448,-168.5 58.4448,-168.5"/>
<text text-anchor="middle" x="78.9448" y="-175.5" font-family="Arial" font-size="10.00" fill="#000000">string</text>
</g>
<!-- Node2&#45;&gt;Node6 -->
<g id="edge6" class="edge">
<title>Node2&#45;&gt;Node6</title>
<path fill="none" stroke="#191970" d="M144.184,-224.2455C132.2895,-215.814 114.8798,-203.4729 101.0362,-193.6598"/>
<polygon fill="#191970" stroke="#191970" points="102.7301,-190.5704 92.5478,-187.6427 98.682,-196.2811 102.7301,-190.5704"/>
</g>
<!-- Node4 -->
<g id="node5" class="node">
<title>Node4</title>
<g id="a_node5"><a xlink:href="deprecations_8h.html" target="_top" xlink:title="mir_toolkit/deprecations.h">
<polygon fill="#ffffff" stroke="#000000" points="108.9448,-112.5 108.9448,-131.5 236.9448,-131.5 236.9448,-112.5 108.9448,-112.5"/>
<text text-anchor="middle" x="172.9448" y="-119.5" font-family="Arial" font-size="10.00" fill="#000000">mir_toolkit/deprecations.h</text>
</a>
</g>
</g>
<!-- Node3&#45;&gt;Node4 -->
<g id="edge4" class="edge">
<title>Node3&#45;&gt;Node4</title>
<path fill="none" stroke="#191970" d="M172.9448,-168.2455C172.9448,-160.9382 172.9448,-150.6944 172.9448,-141.7046"/>
<polygon fill="#191970" stroke="#191970" points="176.4449,-141.6426 172.9448,-131.6427 169.4449,-141.6427 176.4449,-141.6426"/>
</g>
<!-- Node8 -->
<g id="node9" class="node">
<title>Node8</title>
<g id="a_node9"><a xlink:href="dimensions_8h.html" target="_top" xlink:title="dimensions.h">
<polygon fill="#ffffff" stroke="#000000" points="451.9448,-56.5 451.9448,-75.5 525.9448,-75.5 525.9448,-56.5 451.9448,-56.5"/>
<text text-anchor="middle" x="488.9448" y="-63.5" font-family="Arial" font-size="10.00" fill="#000000">dimensions.h</text>
</a>
</g>
</g>
<!-- Node7&#45;&gt;Node8 -->
<g id="edge8" class="edge">
<title>Node7&#45;&gt;Node8</title>
<path fill="none" stroke="#191970" d="M485.6415,-112.2455C486.1635,-104.9382 486.8952,-94.6944 487.5373,-85.7046"/>
<polygon fill="#191970" stroke="#191970" points="491.0345,-85.8667 488.256,-75.6427 484.0523,-85.3679 491.0345,-85.8667"/>
</g>
<!-- Node10 -->
<g id="node11" class="node">
<title>Node10</title>
<polygon fill="#ffffff" stroke="#bfbfbf" points="560.9448,-.5 560.9448,-19.5 604.9448,-19.5 604.9448,-.5 560.9448,-.5"/>
<text text-anchor="middle" x="582.9448" y="-7.5" font-family="Arial" font-size="10.00" fill="#000000">iosfwd</text>
</g>
<!-- Node7&#45;&gt;Node10 -->
<g id="edge11" class="edge">
<title>Node7&#45;&gt;Node10</title>
<path fill="none" stroke="#191970" d="M496.6766,-112.37C507.2204,-103.4529 522.8594,-89.5611 534.9448,-76 548.4244,-60.8743 561.8221,-42.053 571.0233,-28.3845"/>
<polygon fill="#191970" stroke="#191970" points="574.0694,-30.1237 576.6724,-19.8536 568.233,-26.2589 574.0694,-30.1237"/>
</g>
<!-- Node9 -->
<g id="node10" class="node">
<title>Node9</title>
<polygon fill="#ffffff" stroke="#bfbfbf" points="465.9448,-.5 465.9448,-19.5 511.9448,-19.5 511.9448,-.5 465.9448,-.5"/>
<text text-anchor="middle" x="488.9448" y="-7.5" font-family="Arial" font-size="10.00" fill="#000000">cstdint</text>
</g>
<!-- Node8&#45;&gt;Node9 -->
<g id="edge9" class="edge">
<title>Node8&#45;&gt;Node9</title>
<path fill="none" stroke="#191970" d="M488.9448,-56.2455C488.9448,-48.9382 488.9448,-38.6944 488.9448,-29.7046"/>
<polygon fill="#191970" stroke="#191970" points="492.4449,-29.6426 488.9448,-19.6427 485.4449,-29.6427 492.4449,-29.6426"/>
</g>
<!-- Node8&#45;&gt;Node10 -->
<g id="edge10" class="edge">
<title>Node8&#45;&gt;Node10</title>
<path fill="none" stroke="#191970" d="M505.3183,-56.2455C519.8756,-47.5731 541.3758,-34.7645 558.06,-24.825"/>
<polygon fill="#191970" stroke="#191970" points="559.9591,-27.7676 566.7588,-19.6427 556.3765,-21.7539 559.9591,-27.7676"/>
</g>
<!-- Node11&#45;&gt;Node8 -->
<g id="edge13" class="edge">
<title>Node11&#45;&gt;Node8</title>
<path fill="none" stroke="#191970" d="M383.7768,-112.3733C404.2551,-103.3435 435.0846,-89.7494 458.0767,-79.6111"/>
<polygon fill="#191970" stroke="#191970" points="459.6597,-82.7383 467.3976,-75.5011 456.8355,-76.3333 459.6597,-82.7383"/>
</g>
<!-- Node11&#45;&gt;Node10 -->
<g id="edge14" class="edge">
<title>Node11&#45;&gt;Node10</title>
<path fill="none" stroke="#191970" d="M371.5489,-112.1465C385.8915,-97.9338 414.2996,-71.6706 442.9448,-56 477.5274,-37.0812 521.1959,-24.2724 550.486,-17.072"/>
<polygon fill="#191970" stroke="#191970" points="551.6635,-20.3897 560.5831,-14.672 550.0447,-13.5794 551.6635,-20.3897"/>
</g>
<!-- Node12&#45;&gt;Node3 -->
<g id="edge17" class="edge">
<title>Node12&#45;&gt;Node3</title>
<path fill="none" stroke="#191970" d="M562.5401,-280.4482C515.9477,-272.0395 447.723,-258.8453 388.9448,-244 325.7678,-228.0438 253.5948,-204.9924 210.726,-190.7807"/>
<polygon fill="#191970" stroke="#191970" points="211.5942,-187.3809 201.0006,-187.5414 209.3821,-194.0222 211.5942,-187.3809"/>
</g>
<!-- Node12&#45;&gt;Node5 -->
<g id="edge36" class="edge">
<title>Node12&#45;&gt;Node5</title>
<path fill="none" stroke="#191970" d="M577.6421,-280.4472C542.5701,-271.8437 490.5144,-258.372 445.9448,-244 395.8486,-227.8459 339.0442,-205.5225 304.3588,-191.4245"/>
<polygon fill="#191970" stroke="#191970" points="305.3425,-188.0456 294.7615,-187.5039 302.6952,-194.5258 305.3425,-188.0456"/>
</g>
<!-- Node13 -->
<g id="node14" class="node">
<title>Node13</title>
<g id="a_node14"><a xlink:href="displacement_8h.html" target="_top" xlink:title="mir/geometry/displacement.h">
<polygon fill="#ffffff" stroke="#000000" points="651.4448,-168.5 651.4448,-187.5 794.4448,-187.5 794.4448,-168.5 651.4448,-168.5"/>
<text text-anchor="middle" x="722.9448" y="-175.5" font-family="Arial" font-size="10.00" fill="#000000">mir/geometry/displacement.h</text>
</a>
</g>
</g>
<!-- Node12&#45;&gt;Node13 -->
<g id="edge18" class="edge">
<title>Node12&#45;&gt;Node13</title>
<path fill="none" stroke="#191970" d="M626.897,-280.4509C644.6422,-261.5227 684.4941,-219.014 706.8874,-195.1279"/>
<polygon fill="#191970" stroke="#191970" points="709.7291,-197.2141 714.0152,-187.5249 704.6223,-192.4265 709.7291,-197.2141"/>
</g>
<!-- Node12&#45;&gt;Node14 -->
<g id="edge22" class="edge">
<title>Node12&#45;&gt;Node14</title>
<path fill="none" stroke="#191970" d="M600.8745,-280.2455C585.6977,-271.5731 563.2827,-258.7645 545.8885,-248.825"/>
<polygon fill="#191970" stroke="#191970" points="547.2384,-245.5653 536.8194,-243.6427 543.7654,-251.643 547.2384,-245.5653"/>
</g>
<!-- Node12&#45;&gt;Node18 -->
<g id="edge30" class="edge">
<title>Node12&#45;&gt;Node18</title>
<path fill="none" stroke="#191970" d="M676.0065,-280.4369C737.0917,-270.3758 832.8882,-254.5976 895.555,-244.276"/>
<polygon fill="#191970" stroke="#191970" points="896.403,-247.6835 905.7013,-242.6048 895.2654,-240.7766 896.403,-247.6835"/>
</g>
<!-- Node21 -->
<g id="node22" class="node">
<title>Node21</title>
<g id="a_node22"><a xlink:href="int__wrapper_8h.html" target="_top" xlink:title="mir/int_wrapper.h">
<polygon fill="#ffffff" stroke="#000000" points="796.4448,-224.5 796.4448,-243.5 887.4448,-243.5 887.4448,-224.5 796.4448,-224.5"/>
<text text-anchor="middle" x="841.9448" y="-231.5" font-family="Arial" font-size="10.00" fill="#000000">mir/int_wrapper.h</text>
</a>
</g>
</g>
<!-- Node12&#45;&gt;Node21 -->
<g id="edge33" class="edge">
<title>Node12&#45;&gt;Node21</title>
<path fill="none" stroke="#191970" d="M656.1972,-280.4369C694.2915,-270.9133 752.876,-256.2672 794.0435,-245.9753"/>
<polygon fill="#191970" stroke="#191970" points="794.9976,-249.3446 803.8501,-243.5237 793.2997,-242.5536 794.9976,-249.3446"/>
</g>
<!-- Node13&#45;&gt;Node7 -->
<g id="edge20" class="edge">
<title>Node13&#45;&gt;Node7</title>
<path fill="none" stroke="#191970" d="M682.3015,-168.4369C641.6552,-158.8731 579.0535,-144.1432 535.286,-133.845"/>
<polygon fill="#191970" stroke="#191970" points="535.9562,-130.4072 525.4204,-131.5237 534.3529,-137.2211 535.9562,-130.4072"/>
</g>
<!-- Node13&#45;&gt;Node8 -->
<g id="edge19" class="edge">
<title>Node13&#45;&gt;Node8</title>
<path fill="none" stroke="#191970" d="M702.9941,-168.4509C661.6343,-148.6548 566.3869,-103.0663 518.1191,-79.9638"/>
<polygon fill="#191970" stroke="#191970" points="519.3761,-76.6852 508.845,-75.5249 516.3539,-82.9992 519.3761,-76.6852"/>
</g>
<!-- Node13&#45;&gt;Node10 -->
<g id="edge21" class="edge">
<title>Node13&#45;&gt;Node10</title>
<path fill="none" stroke="#191970" d="M715.0166,-168.4862C692.4069,-141.3545 627.3446,-63.2798 597.8261,-27.8576"/>
<polygon fill="#191970" stroke="#191970" points="600.2253,-25.2695 591.1347,-19.8279 594.8478,-29.7508 600.2253,-25.2695"/>
</g>
<!-- Node14&#45;&gt;Node7 -->
<g id="edge23" class="edge">
<title>Node14&#45;&gt;Node7</title>
<path fill="none" stroke="#191970" d="M454.8456,-225.266C410.9186,-217.8839 358.5646,-205.6626 344.9448,-188 339.5168,-180.9609 339.7319,-175.1999 344.9448,-168 355.0158,-154.0901 393.0245,-142.119 426.9,-133.8785"/>
<polygon fill="#191970" stroke="#191970" points="427.8502,-137.2505 436.7801,-131.549 426.2437,-130.4373 427.8502,-137.2505"/>
</g>
<!-- Node15 -->
<g id="node16" class="node">
<title>Node15</title>
<g id="a_node16"><a xlink:href="rectangle_8h.html" target="_top" xlink:title="mir/geometry/rectangle.h">
<polygon fill="#ffffff" stroke="#000000" points="354.4448,-168.5 354.4448,-187.5 479.4448,-187.5 479.4448,-168.5 354.4448,-168.5"/>
<text text-anchor="middle" x="416.9448" y="-175.5" font-family="Arial" font-size="10.00" fill="#000000">mir/geometry/rectangle.h</text>
</a>
</g>
</g>
<!-- Node14&#45;&gt;Node15 -->
<g id="edge24" class="edge">
<title>Node14&#45;&gt;Node15</title>
<path fill="none" stroke="#191970" d="M502.0035,-224.2455C485.9048,-215.4928 462.0568,-202.527 443.7057,-192.5496"/>
<polygon fill="#191970" stroke="#191970" points="445.1377,-189.3444 434.6804,-187.6427 441.7941,-195.4942 445.1377,-189.3444"/>
</g>
<!-- Node16 -->
<g id="node17" class="node">
<title>Node16</title>
<polygon fill="#ffffff" stroke="#bfbfbf" points="497.9448,-168.5 497.9448,-187.5 541.9448,-187.5 541.9448,-168.5 497.9448,-168.5"/>
<text text-anchor="middle" x="519.9448" y="-175.5" font-family="Arial" font-size="10.00" fill="#000000">vector</text>
</g>
<!-- Node14&#45;&gt;Node16 -->
<g id="edge28" class="edge">
<title>Node14&#45;&gt;Node16</title>
<path fill="none" stroke="#191970" d="M519.9448,-224.2455C519.9448,-216.9382 519.9448,-206.6944 519.9448,-197.7046"/>
<polygon fill="#191970" stroke="#191970" points="523.4449,-197.6426 519.9448,-187.6427 516.4449,-197.6427 523.4449,-197.6426"/>
</g>
<!-- Node17 -->
<g id="node18" class="node">
<title>Node17</title>
<polygon fill="#ffffff" stroke="#bfbfbf" points="560.4448,-168.5 560.4448,-187.5 633.4448,-187.5 633.4448,-168.5 560.4448,-168.5"/>
<text text-anchor="middle" x="596.9448" y="-175.5" font-family="Arial" font-size="10.00" fill="#000000">initializer_list</text>
</g>
<!-- Node14&#45;&gt;Node17 -->
<g id="edge29" class="edge">
<title>Node14&#45;&gt;Node17</title>
<path fill="none" stroke="#191970" d="M533.3571,-224.2455C544.9505,-215.814 561.9195,-203.4729 575.4126,-193.6598"/>
<polygon fill="#191970" stroke="#191970" points="577.6573,-196.355 583.6861,-187.6427 573.5401,-190.6938 577.6573,-196.355"/>
</g>
<!-- Node15&#45;&gt;Node7 -->
<g id="edge25" class="edge">
<title>Node15&#45;&gt;Node7</title>
<path fill="none" stroke="#191970" d="M428.7895,-168.2455C438.8327,-159.9746 453.4442,-147.9416 465.2451,-138.2232"/>
<polygon fill="#191970" stroke="#191970" points="467.7415,-140.7015 473.2358,-131.6427 463.2915,-135.298 467.7415,-140.7015"/>
</g>
<!-- Node15&#45;&gt;Node10 -->
<g id="edge27" class="edge">
<title>Node15&#45;&gt;Node10</title>
<path fill="none" stroke="#191970" d="M479.2168,-168.466C503.2372,-161.881 529.1542,-150.7624 546.9448,-132 573.8016,-103.6761 580.7339,-56.307 582.4521,-29.6932"/>
<polygon fill="#191970" stroke="#191970" points="585.9497,-29.8241 582.9122,-19.6741 578.9571,-29.503 585.9497,-29.8241"/>
</g>
<!-- Node15&#45;&gt;Node11 -->
<g id="edge26" class="edge">
<title>Node15&#45;&gt;Node11</title>
<path fill="none" stroke="#191970" d="M407.3645,-168.2455C399.399,-160.1352 387.8807,-148.4075 378.4368,-138.7919"/>
<polygon fill="#191970" stroke="#191970" points="380.9194,-136.3247 371.4152,-131.6427 375.9253,-141.2297 380.9194,-136.3247"/>
</g>
<!-- Node19 -->
<g id="node20" class="node">
<title>Node19</title>
<g id="a_node20"><a xlink:href="fatal_8h.html" target="_top" xlink:title="mir/fatal.h">
<polygon fill="#ffffff" stroke="#000000" points="927.9448,-168.5 927.9448,-187.5 987.9448,-187.5 987.9448,-168.5 927.9448,-168.5"/>
<text text-anchor="middle" x="957.9448" y="-175.5" font-family="Arial" font-size="10.00" fill="#000000">mir/fatal.h</text>
</a>
</g>
</g>
<!-- Node18&#45;&gt;Node19 -->
<g id="edge31" class="edge">
<title>Node18&#45;&gt;Node19</title>
<path fill="none" stroke="#191970" d="M957.9448,-224.2455C957.9448,-216.9382 957.9448,-206.6944 957.9448,-197.7046"/>
<polygon fill="#191970" stroke="#191970" points="961.4449,-197.6426 957.9448,-187.6427 954.4449,-197.6427 961.4449,-197.6426"/>
</g>
<!-- Node20 -->
<g id="node21" class="node">
<title>Node20</title>
<polygon fill="#ffffff" stroke="#bfbfbf" points="1005.9448,-168.5 1005.9448,-187.5 1045.9448,-187.5 1045.9448,-168.5 1005.9448,-168.5"/>
<text text-anchor="middle" x="1025.9448" y="-175.5" font-family="Arial" font-size="10.00" fill="#000000">utility</text>
</g>
<!-- Node18&#45;&gt;Node20 -->
<g id="edge32" class="edge">
<title>Node18&#45;&gt;Node20</title>
<path fill="none" stroke="#191970" d="M969.7895,-224.2455C979.8327,-215.9746 994.4442,-203.9416 1006.2451,-194.2232"/>
<polygon fill="#191970" stroke="#191970" points="1008.7415,-196.7015 1014.2358,-187.6427 1004.2915,-191.298 1008.7415,-196.7015"/>
</g>
<!-- Node21&#45;&gt;Node10 -->
<g id="edge34" class="edge">
<title>Node21&#45;&gt;Node10</title>
<path fill="none" stroke="#191970" d="M854.5287,-224.316C869.7273,-211.3934 891.8597,-187.8346 879.9448,-168 821.1143,-70.0658 678.7845,-29.5464 614.9079,-15.8794"/>
<polygon fill="#191970" stroke="#191970" points="615.4972,-12.4274 604.9972,-13.8412 614.0871,-19.2839 615.4972,-12.4274"/>
</g>
<!-- Node22 -->
<g id="node23" class="node">
<title>Node22</title>
<polygon fill="#ffffff" stroke="#bfbfbf" points="812.4448,-168.5 812.4448,-187.5 871.4448,-187.5 871.4448,-168.5 812.4448,-168.5"/>
<text text-anchor="middle" x="841.9448" y="-175.5" font-family="Arial" font-size="10.00" fill="#000000">functional</text>
</g>
<!-- Node21&#45;&gt;Node22 -->
<g id="edge35" class="edge">
<title>Node21&#45;&gt;Node22</title>
<path fill="none" stroke="#191970" d="M841.9448,-224.2455C841.9448,-216.9382 841.9448,-206.6944 841.9448,-197.7046"/>
<polygon fill="#191970" stroke="#191970" points="845.4449,-197.6426 841.9448,-187.6427 838.4449,-197.6427 845.4449,-197.6426"/>
</g>
</g>
</svg>
