<?xml version="1.0" encoding="UTF-8" standalone="no"?>
<!DOCTYPE svg PUBLIC "-//W3C//DTD SVG 1.1//EN"
 "http://www.w3.org/Graphics/SVG/1.1/DTD/svg11.dtd">
<!-- Generated by graphviz version 2.43.0 (0)
 -->
<!-- Title: include/miral/miral/window_management_policy.h Pages: 1 -->
<svg width="562pt" height="375pt"
 viewBox="0.00 0.00 561.50 375.00" xmlns="http://www.w3.org/2000/svg" xmlns:xlink="http://www.w3.org/1999/xlink">
<g id="graph0" class="graph" transform="scale(1 1) rotate(0) translate(4 371)">
<title>include/miral/miral/window_management_policy.h</title>
<polygon fill="white" stroke="transparent" points="-4,4 -4,-371 557.5,-371 557.5,4 -4,4"/>
<!-- Node1 -->
<g id="node1" class="node">
<title>Node1</title>
<g id="a_node1"><a xlink:title=" ">
<polygon fill="#bfbfbf" stroke="black" points="310.5,-336.5 310.5,-366.5 462.5,-366.5 462.5,-336.5 310.5,-336.5"/>
<text text-anchor="start" x="318.5" y="-354.5" font-family="Arial" font-size="10.00">include/miral/miral</text>
<text text-anchor="middle" x="386.5" y="-343.5" font-family="Arial" font-size="10.00">/window_management_policy.h</text>
</a>
</g>
</g>
<!-- Node2 -->
<g id="node2" class="node">
<title>Node2</title>
<g id="a_node2"><a xlink:href="displacement_8h.html" target="_top" xlink:title=" ">
<polygon fill="white" stroke="black" points="182,-168.5 182,-187.5 325,-187.5 325,-168.5 182,-168.5"/>
<text text-anchor="middle" x="253.5" y="-175.5" font-family="Arial" font-size="10.00">mir/geometry/displacement.h</text>
</a>
</g>
</g>
<!-- Node1&#45;&gt;Node2 -->
<g id="edge1" class="edge">
<title>Node1&#45;&gt;Node2</title>
<path fill="none" stroke="midnightblue" d="M380.31,-336.29C366.67,-305.17 334.61,-233.05 326.5,-224 314.44,-210.54 297.4,-199.72 282.82,-192.07"/>
<polygon fill="midnightblue" stroke="midnightblue" points="284.17,-188.84 273.66,-187.51 281.05,-195.1 284.17,-188.84"/>
</g>
<!-- Node10 -->
<g id="node10" class="node">
<title>Node10</title>
<g id="a_node10"><a xlink:href="rectangles_8h.html" target="_top" xlink:title=" ">
<polygon fill="white" stroke="black" points="138.5,-280.5 138.5,-299.5 268.5,-299.5 268.5,-280.5 138.5,-280.5"/>
<text text-anchor="middle" x="203.5" y="-287.5" font-family="Arial" font-size="10.00">mir/geometry/rectangles.h</text>
</a>
</g>
</g>
<!-- Node1&#45;&gt;Node10 -->
<g id="edge13" class="edge">
<title>Node1&#45;&gt;Node10</title>
<path fill="none" stroke="midnightblue" d="M343.13,-336.4C311.51,-326.12 269.17,-312.35 239.43,-302.68"/>
<polygon fill="midnightblue" stroke="midnightblue" points="240.45,-299.33 229.86,-299.57 238.29,-305.99 240.45,-299.33"/>
</g>
<!-- Node15 -->
<g id="node15" class="node">
<title>Node15</title>
<g id="a_node15"><a xlink:href="common_8h.html" target="_top" xlink:title=" ">
<polygon fill="white" stroke="black" points="373.5,-280.5 373.5,-299.5 483.5,-299.5 483.5,-280.5 373.5,-280.5"/>
<text text-anchor="middle" x="428.5" y="-287.5" font-family="Arial" font-size="10.00">mir_toolkit/common.h</text>
</a>
</g>
</g>
<!-- Node1&#45;&gt;Node15 -->
<g id="edge26" class="edge">
<title>Node1&#45;&gt;Node15</title>
<path fill="none" stroke="midnightblue" d="M396.45,-336.4C402.49,-327.84 410.24,-316.87 416.6,-307.86"/>
<polygon fill="midnightblue" stroke="midnightblue" points="419.48,-309.85 422.39,-299.66 413.76,-305.81 419.48,-309.85"/>
</g>
<!-- Node16 -->
<g id="node16" class="node">
<title>Node16</title>
<g id="a_node16"><a xlink:title=" ">
<polygon fill="white" stroke="#bfbfbf" points="501.5,-280.5 501.5,-299.5 553.5,-299.5 553.5,-280.5 501.5,-280.5"/>
<text text-anchor="middle" x="527.5" y="-287.5" font-family="Arial" font-size="10.00">memory</text>
</a>
</g>
</g>
<!-- Node1&#45;&gt;Node16 -->
<g id="edge27" class="edge">
<title>Node1&#45;&gt;Node16</title>
<path fill="none" stroke="midnightblue" d="M419.92,-336.4C443.47,-326.46 474.74,-313.26 497.49,-303.66"/>
<polygon fill="midnightblue" stroke="midnightblue" points="499.13,-306.77 506.98,-299.66 496.41,-300.32 499.13,-306.77"/>
</g>
<!-- Node3 -->
<g id="node3" class="node">
<title>Node3</title>
<g id="a_node3"><a xlink:href="forward_8h.html" target="_top" xlink:title=" ">
<polygon fill="white" stroke="black" points="121,-0.5 121,-19.5 178,-19.5 178,-0.5 121,-0.5"/>
<text text-anchor="middle" x="149.5" y="-7.5" font-family="Arial" font-size="10.00">forward.h</text>
</a>
</g>
</g>
<!-- Node2&#45;&gt;Node3 -->
<g id="edge2" class="edge">
<title>Node2&#45;&gt;Node3</title>
<path fill="none" stroke="midnightblue" d="M247.91,-168.08C231.33,-141.61 182.21,-63.21 160.28,-28.21"/>
<polygon fill="midnightblue" stroke="midnightblue" points="163.14,-26.18 154.87,-19.57 157.21,-29.9 163.14,-26.18"/>
</g>
<!-- Node4 -->
<g id="node4" class="node">
<title>Node4</title>
<g id="a_node4"><a xlink:href="dimensions_8h.html" target="_top" xlink:title=" ">
<polygon fill="white" stroke="black" points="256.5,-56.5 256.5,-75.5 330.5,-75.5 330.5,-56.5 256.5,-56.5"/>
<text text-anchor="middle" x="293.5" y="-63.5" font-family="Arial" font-size="10.00">dimensions.h</text>
</a>
</g>
</g>
<!-- Node2&#45;&gt;Node4 -->
<g id="edge3" class="edge">
<title>Node2&#45;&gt;Node4</title>
<path fill="none" stroke="midnightblue" d="M256.64,-168.37C263.12,-150.54 278.12,-109.3 286.86,-85.27"/>
<polygon fill="midnightblue" stroke="midnightblue" points="290.25,-86.19 290.38,-75.59 283.67,-83.79 290.25,-86.19"/>
</g>
<!-- Node8 -->
<g id="node8" class="node">
<title>Node8</title>
<g id="a_node8"><a xlink:href="point_8h.html" target="_top" xlink:title=" ">
<polygon fill="white" stroke="black" points="129.5,-112.5 129.5,-131.5 175.5,-131.5 175.5,-112.5 129.5,-112.5"/>
<text text-anchor="middle" x="152.5" y="-119.5" font-family="Arial" font-size="10.00">point.h</text>
</a>
</g>
</g>
<!-- Node2&#45;&gt;Node8 -->
<g id="edge8" class="edge">
<title>Node2&#45;&gt;Node8</title>
<path fill="none" stroke="midnightblue" d="M237.27,-168.32C221.15,-159.7 196.2,-146.36 177.54,-136.39"/>
<polygon fill="midnightblue" stroke="midnightblue" points="179.16,-133.28 168.69,-131.65 175.86,-139.46 179.16,-133.28"/>
</g>
<!-- Node9 -->
<g id="node9" class="node">
<title>Node9</title>
<g id="a_node9"><a xlink:title=" ">
<polygon fill="white" stroke="#bfbfbf" points="91.5,-56.5 91.5,-75.5 143.5,-75.5 143.5,-56.5 91.5,-56.5"/>
<text text-anchor="middle" x="117.5" y="-63.5" font-family="Arial" font-size="10.00">ostream</text>
</a>
</g>
</g>
<!-- Node2&#45;&gt;Node9 -->
<g id="edge12" class="edge">
<title>Node2&#45;&gt;Node9</title>
<path fill="none" stroke="midnightblue" d="M244.99,-168.1C232.36,-155.11 207.65,-130.48 184.5,-112 170.35,-100.71 153.42,-89.35 140.12,-80.88"/>
<polygon fill="midnightblue" stroke="midnightblue" points="141.9,-77.86 131.57,-75.5 138.17,-83.79 141.9,-77.86"/>
</g>
<!-- Node4&#45;&gt;Node3 -->
<g id="edge4" class="edge">
<title>Node4&#45;&gt;Node3</title>
<path fill="none" stroke="midnightblue" d="M270.68,-56.44C246.67,-47.44 208.67,-33.19 181.63,-23.05"/>
<polygon fill="midnightblue" stroke="midnightblue" points="182.8,-19.75 172.21,-19.52 180.34,-26.3 182.8,-19.75"/>
</g>
<!-- Node5 -->
<g id="node5" class="node">
<title>Node5</title>
<g id="a_node5"><a xlink:title=" ">
<polygon fill="white" stroke="#bfbfbf" points="341,-0.5 341,-19.5 386,-19.5 386,-0.5 341,-0.5"/>
<text text-anchor="middle" x="363.5" y="-7.5" font-family="Arial" font-size="10.00">iosfwd</text>
</a>
</g>
</g>
<!-- Node4&#45;&gt;Node5 -->
<g id="edge5" class="edge">
<title>Node4&#45;&gt;Node5</title>
<path fill="none" stroke="midnightblue" d="M304.75,-56.32C315.3,-48.18 331.3,-35.84 343.94,-26.09"/>
<polygon fill="midnightblue" stroke="midnightblue" points="346.27,-28.71 352.05,-19.83 341.99,-23.17 346.27,-28.71"/>
</g>
<!-- Node6 -->
<g id="node6" class="node">
<title>Node6</title>
<g id="a_node6"><a xlink:title=" ">
<polygon fill="white" stroke="#bfbfbf" points="196.5,-0.5 196.5,-19.5 258.5,-19.5 258.5,-0.5 196.5,-0.5"/>
<text text-anchor="middle" x="227.5" y="-7.5" font-family="Arial" font-size="10.00">type_traits</text>
</a>
</g>
</g>
<!-- Node4&#45;&gt;Node6 -->
<g id="edge6" class="edge">
<title>Node4&#45;&gt;Node6</title>
<path fill="none" stroke="midnightblue" d="M282.9,-56.32C273.04,-48.26 258.15,-36.08 246.28,-26.37"/>
<polygon fill="midnightblue" stroke="midnightblue" points="248.25,-23.46 238.3,-19.83 243.82,-28.88 248.25,-23.46"/>
</g>
<!-- Node7 -->
<g id="node7" class="node">
<title>Node7</title>
<g id="a_node7"><a xlink:title=" ">
<polygon fill="white" stroke="#bfbfbf" points="276.5,-0.5 276.5,-19.5 322.5,-19.5 322.5,-0.5 276.5,-0.5"/>
<text text-anchor="middle" x="299.5" y="-7.5" font-family="Arial" font-size="10.00">cstdint</text>
</a>
</g>
</g>
<!-- Node4&#45;&gt;Node7 -->
<g id="edge7" class="edge">
<title>Node4&#45;&gt;Node7</title>
<path fill="none" stroke="midnightblue" d="M294.49,-56.08C295.29,-48.93 296.43,-38.64 297.42,-29.69"/>
<polygon fill="midnightblue" stroke="midnightblue" points="300.9,-30.08 298.53,-19.75 293.94,-29.3 300.9,-30.08"/>
</g>
<!-- Node8&#45;&gt;Node3 -->
<g id="edge9" class="edge">
<title>Node8&#45;&gt;Node3</title>
<path fill="none" stroke="midnightblue" d="M152.69,-112.17C152.91,-99.66 153.17,-76.08 152.5,-56 152.21,-47.38 151.62,-37.85 151.03,-29.79"/>
<polygon fill="midnightblue" stroke="midnightblue" points="154.51,-29.32 150.25,-19.62 147.53,-29.86 154.51,-29.32"/>
</g>
<!-- Node8&#45;&gt;Node4 -->
<g id="edge10" class="edge">
<title>Node8&#45;&gt;Node4</title>
<path fill="none" stroke="midnightblue" d="M174.84,-112.44C198.25,-103.48 235.24,-89.31 261.69,-79.18"/>
<polygon fill="midnightblue" stroke="midnightblue" points="263.18,-82.36 271.26,-75.52 260.67,-75.82 263.18,-82.36"/>
</g>
<!-- Node8&#45;&gt;Node9 -->
<g id="edge11" class="edge">
<title>Node8&#45;&gt;Node9</title>
<path fill="none" stroke="midnightblue" d="M146.72,-112.08C141.83,-104.53 134.67,-93.49 128.67,-84.23"/>
<polygon fill="midnightblue" stroke="midnightblue" points="131.55,-82.24 123.17,-75.75 125.67,-86.05 131.55,-82.24"/>
</g>
<!-- Node10&#45;&gt;Node8 -->
<g id="edge14" class="edge">
<title>Node10&#45;&gt;Node8</title>
<path fill="none" stroke="midnightblue" d="M195.82,-280.38C188.6,-271.78 178.11,-257.9 172.5,-244 158.61,-209.57 154.36,-165.9 153.07,-141.56"/>
<polygon fill="midnightblue" stroke="midnightblue" points="156.56,-141.4 152.65,-131.56 149.57,-141.69 156.56,-141.4"/>
</g>
<!-- Node11 -->
<g id="node11" class="node">
<title>Node11</title>
<g id="a_node11"><a xlink:href="rectangle_8h.html" target="_top" xlink:title=" ">
<polygon fill="white" stroke="black" points="0,-224.5 0,-243.5 125,-243.5 125,-224.5 0,-224.5"/>
<text text-anchor="middle" x="62.5" y="-231.5" font-family="Arial" font-size="10.00">mir/geometry/rectangle.h</text>
</a>
</g>
</g>
<!-- Node10&#45;&gt;Node11 -->
<g id="edge15" class="edge">
<title>Node10&#45;&gt;Node11</title>
<path fill="none" stroke="midnightblue" d="M181.16,-280.44C157.75,-271.48 120.76,-257.31 94.31,-247.18"/>
<polygon fill="midnightblue" stroke="midnightblue" points="95.33,-243.82 84.74,-243.52 92.82,-250.36 95.33,-243.82"/>
</g>
<!-- Node13 -->
<g id="node13" class="node">
<title>Node13</title>
<g id="a_node13"><a xlink:title=" ">
<polygon fill="white" stroke="#bfbfbf" points="181.5,-224.5 181.5,-243.5 225.5,-243.5 225.5,-224.5 181.5,-224.5"/>
<text text-anchor="middle" x="203.5" y="-231.5" font-family="Arial" font-size="10.00">vector</text>
</a>
</g>
</g>
<!-- Node10&#45;&gt;Node13 -->
<g id="edge24" class="edge">
<title>Node10&#45;&gt;Node13</title>
<path fill="none" stroke="midnightblue" d="M203.5,-280.08C203.5,-273.01 203.5,-262.86 203.5,-253.99"/>
<polygon fill="midnightblue" stroke="midnightblue" points="207,-253.75 203.5,-243.75 200,-253.75 207,-253.75"/>
</g>
<!-- Node14 -->
<g id="node14" class="node">
<title>Node14</title>
<g id="a_node14"><a xlink:title=" ">
<polygon fill="white" stroke="#bfbfbf" points="244,-224.5 244,-243.5 317,-243.5 317,-224.5 244,-224.5"/>
<text text-anchor="middle" x="280.5" y="-231.5" font-family="Arial" font-size="10.00">initializer_list</text>
</a>
</g>
</g>
<!-- Node10&#45;&gt;Node14 -->
<g id="edge25" class="edge">
<title>Node10&#45;&gt;Node14</title>
<path fill="none" stroke="midnightblue" d="M215.87,-280.32C227.66,-272.06 245.63,-259.45 259.64,-249.63"/>
<polygon fill="midnightblue" stroke="midnightblue" points="261.98,-252.26 268.16,-243.65 257.96,-246.53 261.98,-252.26"/>
</g>
<!-- Node11&#45;&gt;Node2 -->
<g id="edge22" class="edge">
<title>Node11&#45;&gt;Node2</title>
<path fill="none" stroke="midnightblue" d="M92.76,-224.44C125.46,-215.2 177.68,-200.44 213.68,-190.26"/>
<polygon fill="midnightblue" stroke="midnightblue" points="214.71,-193.61 223.38,-187.52 212.8,-186.87 214.71,-193.61"/>
</g>
<!-- Node11&#45;&gt;Node3 -->
<g id="edge16" class="edge">
<title>Node11&#45;&gt;Node3</title>
<path fill="none" stroke="midnightblue" d="M58.13,-224.31C53.94,-215.44 47.9,-201.14 45.5,-188 42.53,-171.73 44.64,-127.49 48.5,-112 55.13,-85.37 56.15,-76.4 74.5,-56 86.75,-42.39 104.1,-31.61 119.02,-24.03"/>
<polygon fill="midnightblue" stroke="midnightblue" points="120.92,-27 128.41,-19.5 117.88,-20.69 120.92,-27"/>
</g>
<!-- Node11&#45;&gt;Node8 -->
<g id="edge17" class="edge">
<title>Node11&#45;&gt;Node8</title>
<path fill="none" stroke="midnightblue" d="M69.56,-224.37C84.55,-206.05 119.73,-163.05 139.11,-139.36"/>
<polygon fill="midnightblue" stroke="midnightblue" points="141.85,-141.55 145.47,-131.59 136.43,-137.11 141.85,-141.55"/>
</g>
<!-- Node11&#45;&gt;Node9 -->
<g id="edge23" class="edge">
<title>Node11&#45;&gt;Node9</title>
<path fill="none" stroke="midnightblue" d="M59.53,-224.2C53.04,-203.39 39.67,-150.05 58.5,-112 65.1,-98.66 77.76,-88.19 89.67,-80.73"/>
<polygon fill="midnightblue" stroke="midnightblue" points="91.62,-83.64 98.52,-75.6 88.11,-77.59 91.62,-83.64"/>
</g>
<!-- Node12 -->
<g id="node12" class="node">
<title>Node12</title>
<g id="a_node12"><a xlink:href="size_8h.html" target="_top" xlink:title=" ">
<polygon fill="white" stroke="black" points="68,-112.5 68,-131.5 111,-131.5 111,-112.5 68,-112.5"/>
<text text-anchor="middle" x="89.5" y="-119.5" font-family="Arial" font-size="10.00">size.h</text>
</a>
</g>
</g>
<!-- Node11&#45;&gt;Node12 -->
<g id="edge18" class="edge">
<title>Node11&#45;&gt;Node12</title>
<path fill="none" stroke="midnightblue" d="M64.62,-224.37C68.98,-206.62 79.03,-165.67 84.94,-141.6"/>
<polygon fill="midnightblue" stroke="midnightblue" points="88.41,-142.14 87.39,-131.59 81.61,-140.47 88.41,-142.14"/>
</g>
<!-- Node12&#45;&gt;Node3 -->
<g id="edge19" class="edge">
<title>Node12&#45;&gt;Node3</title>
<path fill="none" stroke="midnightblue" d="M85.65,-112.42C80.42,-99.39 72.78,-74.23 82.5,-56 90.05,-41.83 104.26,-31.33 117.66,-24.06"/>
<polygon fill="midnightblue" stroke="midnightblue" points="119.33,-27.13 126.71,-19.53 116.2,-20.87 119.33,-27.13"/>
</g>
<!-- Node12&#45;&gt;Node4 -->
<g id="edge20" class="edge">
<title>Node12&#45;&gt;Node4</title>
<path fill="none" stroke="midnightblue" d="M111.16,-114.63C114.29,-113.73 117.47,-112.83 120.5,-112 164.35,-99.94 214.68,-86.94 249.71,-78.03"/>
<polygon fill="midnightblue" stroke="midnightblue" points="250.78,-81.37 259.61,-75.52 249.06,-74.58 250.78,-81.37"/>
</g>
<!-- Node12&#45;&gt;Node9 -->
<g id="edge21" class="edge">
<title>Node12&#45;&gt;Node9</title>
<path fill="none" stroke="midnightblue" d="M94.12,-112.08C97.96,-104.69 103.52,-93.95 108.26,-84.81"/>
<polygon fill="midnightblue" stroke="midnightblue" points="111.47,-86.24 112.96,-75.75 105.25,-83.02 111.47,-86.24"/>
</g>
</g>
</svg>
