<?xml version="1.0" encoding="UTF-8" standalone="no"?>
<!DOCTYPE svg PUBLIC "-//W3C//DTD SVG 1.1//EN"
 "http://www.w3.org/Graphics/SVG/1.1/DTD/svg11.dtd">
<!-- Generated by graphviz version 2.40.1 (20161225.0304)
 -->
<!-- Title: include/client/mir/client/window_spec.h Pages: 1 -->
<svg width="2661pt" height="564pt"
 viewBox="0.00 0.00 2661.00 564.00" xmlns="http://www.w3.org/2000/svg" xmlns:xlink="http://www.w3.org/1999/xlink">
<g id="graph0" class="graph" transform="scale(1 1) rotate(0) translate(4 560)">
<title>include/client/mir/client/window_spec.h</title>
<polygon fill="#ffffff" stroke="transparent" points="-4,4 -4,-560 2657,-560 2657,4 -4,4"/>
<!-- Node0 -->
<g id="node1" class="node">
<title>Node0</title>
<polygon fill="#bfbfbf" stroke="#000000" points="2218,-525.5 2218,-555.5 2342,-555.5 2342,-525.5 2218,-525.5"/>
<text text-anchor="start" x="2226" y="-543.5" font-family="Arial" font-size="10.00" fill="#000000">include/client/mir</text>
<text text-anchor="middle" x="2280" y="-532.5" font-family="Arial" font-size="10.00" fill="#000000">/client/window_spec.h</text>
</g>
<!-- Node1 -->
<g id="node2" class="node">
<title>Node1</title>
<g id="a_node2"><a xlink:href="client_2mir_2client_2window_8h.html" target="_top" xlink:title="mir/client/window.h">
<polygon fill="#ffffff" stroke="#000000" points="2182,-469.5 2182,-488.5 2294,-488.5 2294,-469.5 2182,-469.5"/>
<text text-anchor="middle" x="2238" y="-476.5" font-family="Arial" font-size="10.00" fill="#000000">mir/client/window.h</text>
</a>
</g>
</g>
<!-- Node0&#45;&gt;Node1 -->
<g id="edge1" class="edge">
<title>Node0&#45;&gt;Node1</title>
<path fill="none" stroke="#191970" d="M2269.618,-525.2977C2263.8487,-516.8498 2256.6284,-506.2773 2250.5447,-497.369"/>
<polygon fill="#191970" stroke="#191970" points="2253.2547,-495.1311 2244.7247,-488.8469 2247.4741,-499.0788 2253.2547,-495.1311"/>
</g>
<!-- Node2 -->
<g id="node3" class="node">
<title>Node2</title>
<g id="a_node3"><a xlink:href="mir__window_8h.html" target="_top" xlink:title="mir_toolkit/mir_window.h">
<polygon fill="#ffffff" stroke="#000000" points="2201,-408 2201,-427 2341,-427 2341,-408 2201,-408"/>
<text text-anchor="middle" x="2271" y="-415" font-family="Arial" font-size="10.00" fill="#000000">mir_toolkit/mir_window.h</text>
</a>
</g>
</g>
<!-- Node0&#45;&gt;Node2 -->
<g id="edge62" class="edge">
<title>Node0&#45;&gt;Node2</title>
<path fill="none" stroke="#191970" d="M2290.3421,-525.2476C2298.8204,-510.8326 2308.5822,-488.5609 2303,-469 2299.5413,-456.8801 2292.3178,-444.8316 2285.6078,-435.439"/>
<polygon fill="#191970" stroke="#191970" points="2288.2974,-433.193 2279.4714,-427.3318 2282.7159,-437.4177 2288.2974,-433.193"/>
</g>
<!-- Node28 -->
<g id="node29" class="node">
<title>Node28</title>
<polygon fill="#ffffff" stroke="#bfbfbf" points="2125,-408 2125,-427 2183,-427 2183,-408 2125,-408"/>
<text text-anchor="middle" x="2154" y="-415" font-family="Arial" font-size="10.00" fill="#000000">memory</text>
</g>
<!-- Node0&#45;&gt;Node28 -->
<g id="edge68" class="edge">
<title>Node0&#45;&gt;Node28</title>
<path fill="none" stroke="#191970" d="M2226.9105,-525.4091C2207.4697,-517.4539 2186.861,-505.7611 2173,-489 2161.0124,-474.5042 2156.5223,-453.1936 2154.8746,-437.6096"/>
<polygon fill="#191970" stroke="#191970" points="2158.351,-437.1627 2154.1106,-427.4534 2151.3707,-437.6878 2158.351,-437.1627"/>
</g>
<!-- Node29 -->
<g id="node30" class="node">
<title>Node29</title>
<g id="a_node30"><a xlink:href="mir__connection_8h.html" target="_top" xlink:title="mir_toolkit/mir_connection.h">
<polygon fill="#ffffff" stroke="#000000" points="1972.5,-341 1972.5,-360 2129.5,-360 2129.5,-341 1972.5,-341"/>
<text text-anchor="middle" x="2051" y="-348" font-family="Arial" font-size="10.00" fill="#000000">mir_toolkit/mir_connection.h</text>
</a>
</g>
</g>
<!-- Node0&#45;&gt;Node29 -->
<g id="edge57" class="edge">
<title>Node0&#45;&gt;Node29</title>
<path fill="none" stroke="#191970" d="M2228.5013,-525.4121C2205.4619,-517.0574 2178.8565,-505.061 2158,-489 2113.6604,-454.8553 2077.7368,-398.1524 2061.0701,-369.0241"/>
<polygon fill="#191970" stroke="#191970" points="2064.111,-367.2909 2056.1718,-360.2753 2058.0032,-370.7107 2064.111,-367.2909"/>
</g>
<!-- Node30 -->
<g id="node31" class="node">
<title>Node30</title>
<g id="a_node31"><a xlink:href="client_2mir__toolkit_2version_8h.html" target="_top" xlink:title="mir_toolkit/version.h">
<polygon fill="#ffffff" stroke="#000000" points="2358,-469.5 2358,-488.5 2476,-488.5 2476,-469.5 2358,-469.5"/>
<text text-anchor="middle" x="2417" y="-476.5" font-family="Arial" font-size="10.00" fill="#000000">mir_toolkit/version.h</text>
</a>
</g>
</g>
<!-- Node0&#45;&gt;Node30 -->
<g id="edge63" class="edge">
<title>Node0&#45;&gt;Node30</title>
<path fill="none" stroke="#191970" d="M2313.514,-525.4554C2335.7712,-515.464 2364.7647,-502.4487 2386.3985,-492.7372"/>
<polygon fill="#191970" stroke="#191970" points="2388.0803,-495.8187 2395.7699,-488.5303 2385.2135,-489.4327 2388.0803,-495.8187"/>
</g>
<!-- Node32 -->
<g id="node33" class="node">
<title>Node32</title>
<g id="a_node33"><a xlink:href="mir__render__surface_8h.html" target="_top" xlink:title="mir_toolkit/rs/mir\l_render_surface.h">
<polygon fill="#ffffff" stroke="#000000" points="2549,-335.5 2549,-365.5 2653,-365.5 2653,-335.5 2549,-335.5"/>
<text text-anchor="start" x="2557" y="-353.5" font-family="Arial" font-size="10.00" fill="#000000">mir_toolkit/rs/mir</text>
<text text-anchor="middle" x="2601" y="-342.5" font-family="Arial" font-size="10.00" fill="#000000">_render_surface.h</text>
</a>
</g>
</g>
<!-- Node0&#45;&gt;Node32 -->
<g id="edge65" class="edge">
<title>Node0&#45;&gt;Node32</title>
<path fill="none" stroke="#191970" d="M2342.2362,-535.0355C2385.0566,-528.9433 2441.7795,-516.0882 2485,-489 2531.4837,-459.8667 2568.5983,-405.8909 2587.4477,-374.6183"/>
<polygon fill="#191970" stroke="#191970" points="2590.6441,-376.0877 2592.7012,-365.6945 2584.6118,-372.5364 2590.6441,-376.0877"/>
</g>
<!-- Node1&#45;&gt;Node2 -->
<g id="edge2" class="edge">
<title>Node1&#45;&gt;Node2</title>
<path fill="none" stroke="#191970" d="M2243.1563,-469.3906C2247.9232,-460.5068 2255.1385,-447.0601 2261.0297,-436.0811"/>
<polygon fill="#191970" stroke="#191970" points="2264.1269,-437.7114 2265.7711,-427.2449 2257.9588,-434.4016 2264.1269,-437.7114"/>
</g>
<!-- Node1&#45;&gt;Node28 -->
<g id="edge56" class="edge">
<title>Node1&#45;&gt;Node28</title>
<path fill="none" stroke="#191970" d="M2224.875,-469.3906C2211.56,-459.6421 2190.7406,-444.3994 2175.1053,-432.9521"/>
<polygon fill="#191970" stroke="#191970" points="2177.1691,-430.1253 2167.0328,-427.0419 2173.0339,-435.7734 2177.1691,-430.1253"/>
</g>
<!-- Node3 -->
<g id="node4" class="node">
<title>Node3</title>
<g id="a_node4"><a xlink:href="mir__native__buffer_8h.html" target="_top" xlink:title="mir_toolkit/mir_native\l_buffer.h">
<polygon fill="#ffffff" stroke="#000000" points="2367.5,-335.5 2367.5,-365.5 2492.5,-365.5 2492.5,-335.5 2367.5,-335.5"/>
<text text-anchor="start" x="2375.5" y="-353.5" font-family="Arial" font-size="10.00" fill="#000000">mir_toolkit/mir_native</text>
<text text-anchor="middle" x="2430" y="-342.5" font-family="Arial" font-size="10.00" fill="#000000">_buffer.h</text>
</a>
</g>
</g>
<!-- Node2&#45;&gt;Node3 -->
<g id="edge3" class="edge">
<title>Node2&#45;&gt;Node3</title>
<path fill="none" stroke="#191970" d="M2293.7808,-407.9005C2317.4907,-397.9096 2355.2449,-382.0006 2384.9997,-369.4624"/>
<polygon fill="#191970" stroke="#191970" points="2386.4952,-372.6303 2394.3513,-365.5218 2383.7769,-366.1796 2386.4952,-372.6303"/>
</g>
<!-- Node4 -->
<g id="node5" class="node">
<title>Node4</title>
<g id="a_node5"><a xlink:href="client__types_8h.html" target="_top" xlink:title="mir_toolkit/client\l_types.h">
<polygon fill="#ffffff" stroke="#000000" points="2186,-268.5 2186,-298.5 2286,-298.5 2286,-268.5 2186,-268.5"/>
<text text-anchor="start" x="2194" y="-286.5" font-family="Arial" font-size="10.00" fill="#000000">mir_toolkit/client</text>
<text text-anchor="middle" x="2236" y="-275.5" font-family="Arial" font-size="10.00" fill="#000000">_types.h</text>
</a>
</g>
</g>
<!-- Node2&#45;&gt;Node4 -->
<g id="edge4" class="edge">
<title>Node2&#45;&gt;Node4</title>
<path fill="none" stroke="#191970" d="M2255.06,-407.9394C2241.8163,-398.9777 2223.9097,-384.2424 2216,-366 2207.8645,-347.2369 2214.4251,-324.5747 2222.1402,-307.7534"/>
<polygon fill="#191970" stroke="#191970" points="2225.3759,-309.108 2226.7137,-298.5979 2219.1137,-305.9798 2225.3759,-309.108"/>
</g>
<!-- Node8 -->
<g id="node9" class="node">
<title>Node8</title>
<g id="a_node9"><a xlink:href="common_8h.html" target="_top" xlink:title="mir_toolkit/common.h">
<polygon fill="#ffffff" stroke="#000000" points="2173.5,-134.5 2173.5,-153.5 2298.5,-153.5 2298.5,-134.5 2173.5,-134.5"/>
<text text-anchor="middle" x="2236" y="-141.5" font-family="Arial" font-size="10.00" fill="#000000">mir_toolkit/common.h</text>
</a>
</g>
</g>
<!-- Node2&#45;&gt;Node8 -->
<g id="edge49" class="edge">
<title>Node2&#45;&gt;Node8</title>
<path fill="none" stroke="#191970" d="M2255.5835,-407.8579C2241.6809,-398.535 2221.4153,-383.3059 2208,-366 2187.8981,-340.0683 2184.0538,-331.0435 2177,-299 2165.6612,-247.4909 2200.7559,-190.337 2221.6403,-161.9881"/>
<polygon fill="#191970" stroke="#191970" points="2224.5713,-163.9163 2227.8447,-153.8398 2219.002,-159.6756 2224.5713,-163.9163"/>
</g>
<!-- Node9 -->
<g id="node10" class="node">
<title>Node9</title>
<g id="a_node10"><a xlink:href="deprecations_8h.html" target="_top" xlink:title="mir_toolkit/deprecations.h">
<polygon fill="#ffffff" stroke="#000000" points="2080.5,-62 2080.5,-81 2225.5,-81 2225.5,-62 2080.5,-62"/>
<text text-anchor="middle" x="2153" y="-69" font-family="Arial" font-size="10.00" fill="#000000">mir_toolkit/deprecations.h</text>
</a>
</g>
</g>
<!-- Node2&#45;&gt;Node9 -->
<g id="edge54" class="edge">
<title>Node2&#45;&gt;Node9</title>
<path fill="none" stroke="#191970" d="M2319.9053,-407.9742C2385.7538,-394.9495 2495.4946,-372.46 2502,-366 2528.6989,-339.4873 2521,-321.1265 2521,-283.5 2521,-283.5 2521,-283.5 2521,-216.5 2521,-151.8058 2321.6434,-103.7936 2216.3923,-82.9535"/>
<polygon fill="#191970" stroke="#191970" points="2216.9961,-79.5054 2206.5104,-81.0219 2215.6532,-86.3754 2216.9961,-79.5054"/>
</g>
<!-- Node12 -->
<g id="node13" class="node">
<title>Node12</title>
<polygon fill="#ffffff" stroke="#bfbfbf" points="52,-.5 52,-19.5 114,-19.5 114,-.5 52,-.5"/>
<text text-anchor="middle" x="83" y="-7.5" font-family="Arial" font-size="10.00" fill="#000000">stdbool.h</text>
</g>
<!-- Node2&#45;&gt;Node12 -->
<g id="edge55" class="edge">
<title>Node2&#45;&gt;Node12</title>
<path fill="none" stroke="#191970" d="M2228.127,-407.9394C2216.4611,-405.6528 2203.7908,-403.4551 2192,-402 1315.2425,-293.7967 1088.6403,-354.8747 207,-299 114.9272,-293.1648 0,-375.7576 0,-283.5 0,-283.5 0,-283.5 0,-144 0,-95.6023 39.6145,-50.1204 64.1076,-26.6249"/>
<polygon fill="#191970" stroke="#191970" points="66.5164,-29.1645 71.4592,-19.7933 61.7513,-24.0367 66.5164,-29.1645"/>
</g>
<!-- Node27 -->
<g id="node28" class="node">
<title>Node27</title>
<g id="a_node28"><a xlink:href="mir__cursor__configuration_8h.html" target="_top" xlink:title="mir_toolkit/mir_cursor\l_configuration.h">
<polygon fill="#ffffff" stroke="#000000" points="2224.5,-335.5 2224.5,-365.5 2349.5,-365.5 2349.5,-335.5 2224.5,-335.5"/>
<text text-anchor="start" x="2232.5" y="-353.5" font-family="Arial" font-size="10.00" fill="#000000">mir_toolkit/mir_cursor</text>
<text text-anchor="middle" x="2287" y="-342.5" font-family="Arial" font-size="10.00" fill="#000000">_configuration.h</text>
</a>
</g>
</g>
<!-- Node2&#45;&gt;Node27 -->
<g id="edge50" class="edge">
<title>Node2&#45;&gt;Node27</title>
<path fill="none" stroke="#191970" d="M2273.2924,-407.9005C2275.3168,-399.4234 2278.3587,-386.6856 2281.0629,-375.3614"/>
<polygon fill="#191970" stroke="#191970" points="2284.4942,-376.0613 2283.4127,-365.5218 2277.6856,-374.4353 2284.4942,-376.0613"/>
</g>
<!-- Node5 -->
<g id="node6" class="node">
<title>Node5</title>
<g id="a_node6"><a xlink:href="toolkit_2events_2event_8h.html" target="_top" xlink:title="mir_toolkit/events\l/event.h">
<polygon fill="#ffffff" stroke="#000000" points="1339,-201.5 1339,-231.5 1445,-231.5 1445,-201.5 1339,-201.5"/>
<text text-anchor="start" x="1347" y="-219.5" font-family="Arial" font-size="10.00" fill="#000000">mir_toolkit/events</text>
<text text-anchor="middle" x="1392" y="-208.5" font-family="Arial" font-size="10.00" fill="#000000">/event.h</text>
</a>
</g>
</g>
<!-- Node4&#45;&gt;Node5 -->
<g id="edge5" class="edge">
<title>Node4&#45;&gt;Node5</title>
<path fill="none" stroke="#191970" d="M2185.7315,-279.5095C2039.8849,-267.9316 1616.7688,-234.343 1455.4756,-221.5389"/>
<polygon fill="#191970" stroke="#191970" points="1455.4815,-218.0285 1445.2358,-220.7261 1454.9275,-225.0065 1455.4815,-218.0285"/>
</g>
<!-- Node6 -->
<g id="node7" class="node">
<title>Node6</title>
<polygon fill="#ffffff" stroke="#bfbfbf" points="2099,-134.5 2099,-153.5 2155,-153.5 2155,-134.5 2099,-134.5"/>
<text text-anchor="middle" x="2127" y="-141.5" font-family="Arial" font-size="10.00" fill="#000000">stddef.h</text>
</g>
<!-- Node4&#45;&gt;Node6 -->
<g id="edge48" class="edge">
<title>Node4&#45;&gt;Node6</title>
<path fill="none" stroke="#191970" d="M2224.1276,-268.3055C2203.814,-242.3078 2162.4947,-189.4267 2140.8812,-161.7654"/>
<polygon fill="#191970" stroke="#191970" points="2143.5228,-159.4615 2134.6078,-153.7366 2138.0069,-163.7714 2143.5228,-159.4615"/>
</g>
<!-- Node4&#45;&gt;Node8 -->
<g id="edge46" class="edge">
<title>Node4&#45;&gt;Node8</title>
<path fill="none" stroke="#191970" d="M2236,-268.3055C2236,-242.9831 2236,-192.1556 2236,-163.9709"/>
<polygon fill="#191970" stroke="#191970" points="2239.5001,-163.7366 2236,-153.7366 2232.5001,-163.7367 2239.5001,-163.7366"/>
</g>
<!-- Node4&#45;&gt;Node9 -->
<g id="edge47" class="edge">
<title>Node4&#45;&gt;Node9</title>
<path fill="none" stroke="#191970" d="M2252.7238,-268.2723C2283.4431,-238.4448 2342.6658,-171.0472 2308,-123 2296.2727,-106.7458 2250.2314,-92.7387 2211.3496,-83.4536"/>
<polygon fill="#191970" stroke="#191970" points="2211.6597,-79.9325 2201.1271,-81.0793 2210.076,-86.751 2211.6597,-79.9325"/>
</g>
<!-- Node5&#45;&gt;Node6 -->
<g id="edge6" class="edge">
<title>Node5&#45;&gt;Node6</title>
<path fill="none" stroke="#191970" d="M1445.217,-215.2082C1585.8174,-211.3718 1964.6209,-198.1751 2085,-165 2090.698,-163.4297 2096.5372,-161.0645 2101.9806,-158.4807"/>
<polygon fill="#191970" stroke="#191970" points="2103.9452,-161.406 2111.2353,-153.718 2100.7421,-155.1818 2103.9452,-161.406"/>
</g>
<!-- Node7 -->
<g id="node8" class="node">
<title>Node7</title>
<polygon fill="#ffffff" stroke="#bfbfbf" points="501.5,-.5 501.5,-19.5 554.5,-19.5 554.5,-.5 501.5,-.5"/>
<text text-anchor="middle" x="528" y="-7.5" font-family="Arial" font-size="10.00" fill="#000000">stdint.h</text>
</g>
<!-- Node5&#45;&gt;Node7 -->
<g id="edge7" class="edge">
<title>Node5&#45;&gt;Node7</title>
<path fill="none" stroke="#191970" d="M1338.7605,-214.5221C1179.7303,-208.3587 717.8245,-188.4991 696,-165 663.0105,-129.4793 729.5201,-94.4524 700,-56 683.6287,-34.675 610.0915,-21.0917 564.6349,-14.5752"/>
<polygon fill="#191970" stroke="#191970" points="564.9494,-11.0854 554.5638,-13.1807 563.9893,-18.0193 564.9494,-11.0854"/>
</g>
<!-- Node5&#45;&gt;Node8 -->
<g id="edge8" class="edge">
<title>Node5&#45;&gt;Node8</title>
<path fill="none" stroke="#191970" d="M1445.1752,-214.4582C1596.1371,-208.4226 2025.3652,-189.5408 2164,-165 2175.4853,-162.9669 2187.7485,-159.7854 2198.839,-156.5081"/>
<polygon fill="#191970" stroke="#191970" points="2200.1049,-159.7808 2208.6385,-153.5016 2198.0517,-153.0887 2200.1049,-159.7808"/>
</g>
<!-- Node5&#45;&gt;Node9 -->
<g id="edge10" class="edge">
<title>Node5&#45;&gt;Node9</title>
<path fill="none" stroke="#191970" d="M1445.1203,-214.6071C1592.3061,-209.048 1998.1005,-191.4776 2052,-165 2074.594,-153.9009 2071.7594,-140.3482 2090,-123 2103.3075,-110.3436 2119.3456,-97.2609 2131.9094,-87.4486"/>
<polygon fill="#191970" stroke="#191970" points="2134.1977,-90.1037 2139.9761,-81.2233 2129.921,-84.562 2134.1977,-90.1037"/>
</g>
<!-- Node10 -->
<g id="node11" class="node">
<title>Node10</title>
<g id="a_node11"><a xlink:href="input__event_8h.html" target="_top" xlink:title="mir_toolkit/events\l/input/input_event.h">
<polygon fill="#ffffff" stroke="#000000" points="427,-129 427,-159 541,-159 541,-129 427,-129"/>
<text text-anchor="start" x="435" y="-147" font-family="Arial" font-size="10.00" fill="#000000">mir_toolkit/events</text>
<text text-anchor="middle" x="484" y="-136" font-family="Arial" font-size="10.00" fill="#000000">/input/input_event.h</text>
</a>
</g>
</g>
<!-- Node5&#45;&gt;Node10 -->
<g id="edge11" class="edge">
<title>Node5&#45;&gt;Node10</title>
<path fill="none" stroke="#191970" d="M1338.9773,-214.6026C1213.0193,-209.5643 886.6874,-194.1969 616,-165 594.7481,-162.7077 571.7872,-159.5719 551.0349,-156.4227"/>
<polygon fill="#191970" stroke="#191970" points="551.4591,-152.9468 541.042,-154.8793 550.3906,-159.8648 551.4591,-152.9468"/>
</g>
<!-- Node17 -->
<g id="node18" class="node">
<title>Node17</title>
<g id="a_node18"><a xlink:href="resize__event_8h.html" target="_top" xlink:title="mir_toolkit/events\l/resize_event.h">
<polygon fill="#ffffff" stroke="#000000" points="829,-129 829,-159 935,-159 935,-129 829,-129"/>
<text text-anchor="start" x="837" y="-147" font-family="Arial" font-size="10.00" fill="#000000">mir_toolkit/events</text>
<text text-anchor="middle" x="882" y="-136" font-family="Arial" font-size="10.00" fill="#000000">/resize_event.h</text>
</a>
</g>
</g>
<!-- Node5&#45;&gt;Node17 -->
<g id="edge22" class="edge">
<title>Node5&#45;&gt;Node17</title>
<path fill="none" stroke="#191970" d="M1338.9291,-214.344C1252.908,-209.8776 1078.621,-197.1945 935,-165 931.1187,-164.13 927.1398,-163.1053 923.1856,-161.9845"/>
<polygon fill="#191970" stroke="#191970" points="924.0623,-158.593 913.4766,-159.0341 922.0269,-165.2905 924.0623,-158.593"/>
</g>
<!-- Node18 -->
<g id="node19" class="node">
<title>Node18</title>
<g id="a_node19"><a xlink:href="surface__event_8h.html" target="_top" xlink:title="mir_toolkit/events\l/surface_event.h">
<polygon fill="#ffffff" stroke="#000000" points="1211,-129 1211,-159 1317,-159 1317,-129 1211,-129"/>
<text text-anchor="start" x="1219" y="-147" font-family="Arial" font-size="10.00" fill="#000000">mir_toolkit/events</text>
<text text-anchor="middle" x="1264" y="-136" font-family="Arial" font-size="10.00" fill="#000000">/surface_event.h</text>
</a>
</g>
</g>
<!-- Node5&#45;&gt;Node18 -->
<g id="edge24" class="edge">
<title>Node5&#45;&gt;Node18</title>
<path fill="none" stroke="#191970" d="M1359.8856,-201.478C1339.4965,-190.6877 1313.4285,-176.023 1293.5517,-164.2071"/>
<polygon fill="#191970" stroke="#191970" points="1295.2709,-161.1569 1284.8974,-159.0028 1291.6634,-167.1558 1295.2709,-161.1569"/>
</g>
<!-- Node19 -->
<g id="node20" class="node">
<title>Node19</title>
<g id="a_node20"><a xlink:href="window__event_8h.html" target="_top" xlink:title="mir_toolkit/events\l/window_event.h">
<polygon fill="#ffffff" stroke="#000000" points="953,-129 953,-159 1059,-159 1059,-129 953,-129"/>
<text text-anchor="start" x="961" y="-147" font-family="Arial" font-size="10.00" fill="#000000">mir_toolkit/events</text>
<text text-anchor="middle" x="1006" y="-136" font-family="Arial" font-size="10.00" fill="#000000">/window_event.h</text>
</a>
</g>
</g>
<!-- Node5&#45;&gt;Node19 -->
<g id="edge27" class="edge">
<title>Node5&#45;&gt;Node19</title>
<path fill="none" stroke="#191970" d="M1338.7231,-211.5345C1272.3026,-204.2753 1156.0428,-188.9648 1059,-165 1055.4246,-164.117 1051.7609,-163.1211 1048.1067,-162.055"/>
<polygon fill="#191970" stroke="#191970" points="1049.1112,-158.7022 1038.5238,-159.0982 1047.0473,-165.391 1049.1112,-158.7022"/>
</g>
<!-- Node20 -->
<g id="node21" class="node">
<title>Node20</title>
<g id="a_node21"><a xlink:href="orientation__event_8h.html" target="_top" xlink:title="mir_toolkit/events\l/orientation_event.h">
<polygon fill="#ffffff" stroke="#000000" points="1077.5,-129 1077.5,-159 1192.5,-159 1192.5,-129 1077.5,-129"/>
<text text-anchor="start" x="1085.5" y="-147" font-family="Arial" font-size="10.00" fill="#000000">mir_toolkit/events</text>
<text text-anchor="middle" x="1135" y="-136" font-family="Arial" font-size="10.00" fill="#000000">/orientation_event.h</text>
</a>
</g>
</g>
<!-- Node5&#45;&gt;Node20 -->
<g id="edge29" class="edge">
<title>Node5&#45;&gt;Node20</title>
<path fill="none" stroke="#191970" d="M1338.9668,-204.6154C1298.6033,-194.4838 1242.0439,-179.3268 1193,-165 1189.6817,-164.0307 1186.2764,-163.0184 1182.8563,-161.9845"/>
<polygon fill="#191970" stroke="#191970" points="1183.8254,-158.6209 1173.2385,-159.0318 1181.7709,-165.3126 1183.8254,-158.6209"/>
</g>
<!-- Node21 -->
<g id="node22" class="node">
<title>Node21</title>
<g id="a_node22"><a xlink:href="prompt__session__event_8h.html" target="_top" xlink:title="mir_toolkit/events\l/prompt_session_event.h">
<polygon fill="#ffffff" stroke="#000000" points="1619.5,-129 1619.5,-159 1758.5,-159 1758.5,-129 1619.5,-129"/>
<text text-anchor="start" x="1627.5" y="-147" font-family="Arial" font-size="10.00" fill="#000000">mir_toolkit/events</text>
<text text-anchor="middle" x="1689" y="-136" font-family="Arial" font-size="10.00" fill="#000000">/prompt_session_event.h</text>
</a>
</g>
</g>
<!-- Node5&#45;&gt;Node21 -->
<g id="edge31" class="edge">
<title>Node5&#45;&gt;Node21</title>
<path fill="none" stroke="#191970" d="M1445.2092,-202.6323C1487.5156,-192.5143 1548.0046,-178.3007 1601,-165 1605.2972,-163.9215 1609.7211,-162.7937 1614.1933,-161.6448"/>
<polygon fill="#191970" stroke="#191970" points="1615.2221,-164.9941 1624.0304,-159.1065 1613.4731,-158.2161 1615.2221,-164.9941"/>
</g>
<!-- Node22 -->
<g id="node23" class="node">
<title>Node22</title>
<g id="a_node23"><a xlink:href="keymap__event_8h.html" target="_top" xlink:title="mir_toolkit/events\l/keymap_event.h">
<polygon fill="#ffffff" stroke="#000000" points="705,-129 705,-159 811,-159 811,-129 705,-129"/>
<text text-anchor="start" x="713" y="-147" font-family="Arial" font-size="10.00" fill="#000000">mir_toolkit/events</text>
<text text-anchor="middle" x="758" y="-136" font-family="Arial" font-size="10.00" fill="#000000">/keymap_event.h</text>
</a>
</g>
</g>
<!-- Node5&#45;&gt;Node22 -->
<g id="edge33" class="edge">
<title>Node5&#45;&gt;Node22</title>
<path fill="none" stroke="#191970" d="M1338.6569,-213.5905C1214.6496,-206.2425 910.5054,-186.0203 811,-165 807.0475,-164.165 802.9972,-163.1571 798.9766,-162.0402"/>
<polygon fill="#191970" stroke="#191970" points="799.7006,-158.6032 789.1163,-159.0763 797.6855,-165.3069 799.7006,-158.6032"/>
</g>
<!-- Node23 -->
<g id="node24" class="node">
<title>Node23</title>
<g id="a_node24"><a xlink:href="input__configuration__event_8h.html" target="_top" xlink:title="mir_toolkit/events\l/input_configuration\l_event.h">
<polygon fill="#ffffff" stroke="#000000" points="1335.5,-123.5 1335.5,-164.5 1448.5,-164.5 1448.5,-123.5 1335.5,-123.5"/>
<text text-anchor="start" x="1343.5" y="-152.5" font-family="Arial" font-size="10.00" fill="#000000">mir_toolkit/events</text>
<text text-anchor="start" x="1343.5" y="-141.5" font-family="Arial" font-size="10.00" fill="#000000">/input_configuration</text>
<text text-anchor="middle" x="1392" y="-130.5" font-family="Arial" font-size="10.00" fill="#000000">_event.h</text>
</a>
</g>
</g>
<!-- Node5&#45;&gt;Node23 -->
<g id="edge36" class="edge">
<title>Node5&#45;&gt;Node23</title>
<path fill="none" stroke="#191970" d="M1386.4073,-201.478C1385.4426,-193.7032 1385.081,-183.9168 1385.3225,-174.634"/>
<polygon fill="#191970" stroke="#191970" points="1388.8253,-174.6704 1385.8514,-164.5015 1381.8348,-174.3054 1388.8253,-174.6704"/>
</g>
<!-- Node24 -->
<g id="node25" class="node">
<title>Node24</title>
<g id="a_node25"><a xlink:href="surface__output__event_8h.html" target="_top" xlink:title="mir_toolkit/events\l/surface_output_event.h">
<polygon fill="#ffffff" stroke="#000000" points="1467,-129 1467,-159 1601,-159 1601,-129 1467,-129"/>
<text text-anchor="start" x="1475" y="-147" font-family="Arial" font-size="10.00" fill="#000000">mir_toolkit/events</text>
<text text-anchor="middle" x="1534" y="-136" font-family="Arial" font-size="10.00" fill="#000000">/surface_output_event.h</text>
</a>
</g>
</g>
<!-- Node5&#45;&gt;Node24 -->
<g id="edge39" class="edge">
<title>Node5&#45;&gt;Node24</title>
<path fill="none" stroke="#191970" d="M1415.8298,-201.478C1436.0708,-190.4447 1465.4606,-175.3605 1489.9209,-163.4132"/>
<polygon fill="#191970" stroke="#191970" points="1491.5512,-166.5125 1499.0249,-159.0028 1488.4993,-160.2128 1491.5512,-166.5125"/>
</g>
<!-- Node25 -->
<g id="node26" class="node">
<title>Node25</title>
<g id="a_node26"><a xlink:href="window__output__event_8h.html" target="_top" xlink:title="mir_toolkit/events\l/window_output_event.h">
<polygon fill="#ffffff" stroke="#000000" points="1777,-129 1777,-159 1913,-159 1913,-129 1777,-129"/>
<text text-anchor="start" x="1785" y="-147" font-family="Arial" font-size="10.00" fill="#000000">mir_toolkit/events</text>
<text text-anchor="middle" x="1845" y="-136" font-family="Arial" font-size="10.00" fill="#000000">/window_output_event.h</text>
</a>
</g>
</g>
<!-- Node5&#45;&gt;Node25 -->
<g id="edge42" class="edge">
<title>Node5&#45;&gt;Node25</title>
<path fill="none" stroke="#191970" d="M1445.1998,-210.68C1516.7802,-202.8749 1647.539,-187.3613 1758,-165 1763.2403,-163.9392 1768.6497,-162.7286 1774.0914,-161.4363"/>
<polygon fill="#191970" stroke="#191970" points="1775.011,-164.8146 1783.8917,-159.0368 1773.3462,-158.0154 1775.011,-164.8146"/>
</g>
<!-- Node26 -->
<g id="node27" class="node">
<title>Node26</title>
<g id="a_node27"><a xlink:href="input__device__state__event_8h.html" target="_top" xlink:title="mir_toolkit/events\l/input_device_state\l_event.h">
<polygon fill="#ffffff" stroke="#000000" points="1931,-123.5 1931,-164.5 2043,-164.5 2043,-123.5 1931,-123.5"/>
<text text-anchor="start" x="1939" y="-152.5" font-family="Arial" font-size="10.00" fill="#000000">mir_toolkit/events</text>
<text text-anchor="start" x="1939" y="-141.5" font-family="Arial" font-size="10.00" fill="#000000">/input_device_state</text>
<text text-anchor="middle" x="1987" y="-130.5" font-family="Arial" font-size="10.00" fill="#000000">_event.h</text>
</a>
</g>
</g>
<!-- Node5&#45;&gt;Node26 -->
<g id="edge44" class="edge">
<title>Node5&#45;&gt;Node26</title>
<path fill="none" stroke="#191970" d="M1445.1319,-214.9223C1540.049,-211.3604 1744.1848,-200.0436 1913,-165 1915.6307,-164.4539 1918.3049,-163.84 1921.0005,-163.1745"/>
<polygon fill="#191970" stroke="#191970" points="1922.0483,-166.5177 1930.8152,-160.5685 1920.2519,-159.7521 1922.0483,-166.5177"/>
</g>
<!-- Node8&#45;&gt;Node9 -->
<g id="edge9" class="edge">
<title>Node8&#45;&gt;Node9</title>
<path fill="none" stroke="#191970" d="M2224.8063,-134.2223C2211.2412,-122.3733 2188.1773,-102.2272 2171.8528,-87.9678"/>
<polygon fill="#191970" stroke="#191970" points="2173.8503,-85.0654 2164.0164,-81.1228 2169.2453,-90.3374 2173.8503,-85.0654"/>
</g>
<!-- Node10&#45;&gt;Node5 -->
<g id="edge12" class="edge">
<title>Node10&#45;&gt;Node5</title>
<path fill="none" stroke="#191970" d="M541.1057,-152.3149C569.1787,-156.6385 603.365,-161.6956 634,-165 891.0906,-192.7303 1198.3759,-207.9855 1328.7085,-213.7647"/>
<polygon fill="#191970" stroke="#191970" points="1328.7591,-217.2702 1338.9033,-214.2134 1329.067,-210.277 1328.7591,-217.2702"/>
</g>
<!-- Node10&#45;&gt;Node7 -->
<g id="edge15" class="edge">
<title>Node10&#45;&gt;Node7</title>
<path fill="none" stroke="#191970" d="M491.1314,-128.749C496.2627,-117.4003 503.1124,-101.4423 508,-87 514.4842,-67.8399 520.095,-45.4017 523.7095,-29.7067"/>
<polygon fill="#191970" stroke="#191970" points="527.1999,-30.137 525.9726,-19.6135 520.3695,-28.6054 527.1999,-30.137"/>
</g>
<!-- Node11 -->
<g id="node12" class="node">
<title>Node11</title>
<g id="a_node12"><a xlink:href="mir__input__device__types_8h.html" target="_top" xlink:title="mir_toolkit/mir_input\l_device_types.h">
<polygon fill="#ffffff" stroke="#000000" points="380.5,-56.5 380.5,-86.5 499.5,-86.5 499.5,-56.5 380.5,-56.5"/>
<text text-anchor="start" x="388.5" y="-74.5" font-family="Arial" font-size="10.00" fill="#000000">mir_toolkit/mir_input</text>
<text text-anchor="middle" x="440" y="-63.5" font-family="Arial" font-size="10.00" fill="#000000">_device_types.h</text>
</a>
</g>
</g>
<!-- Node10&#45;&gt;Node11 -->
<g id="edge13" class="edge">
<title>Node10&#45;&gt;Node11</title>
<path fill="none" stroke="#191970" d="M474.8832,-128.978C468.9836,-119.257 461.1755,-106.3915 454.4425,-95.2974"/>
<polygon fill="#191970" stroke="#191970" points="457.2855,-93.2357 449.1051,-86.5028 451.3014,-96.8675 457.2855,-93.2357"/>
</g>
<!-- Node10&#45;&gt;Node12 -->
<g id="edge16" class="edge">
<title>Node10&#45;&gt;Node12</title>
<path fill="none" stroke="#191970" d="M426.8491,-138.2983C375.1335,-131.435 297.9611,-116.8657 237,-87 217.4268,-77.4108 217.7956,-67.0357 199,-56 175.4026,-42.145 146.8522,-30.7638 123.9807,-22.7881"/>
<polygon fill="#191970" stroke="#191970" points="124.829,-19.3798 114.2346,-19.4741 122.5754,-26.0072 124.829,-19.3798"/>
</g>
<!-- Node13 -->
<g id="node14" class="node">
<title>Node13</title>
<g id="a_node14"><a xlink:href="touch__event_8h.html" target="_top" xlink:title="mir_toolkit/events\l/input/touch_event.h">
<polygon fill="#ffffff" stroke="#000000" points="246,-56.5 246,-86.5 362,-86.5 362,-56.5 246,-56.5"/>
<text text-anchor="start" x="254" y="-74.5" font-family="Arial" font-size="10.00" fill="#000000">mir_toolkit/events</text>
<text text-anchor="middle" x="304" y="-63.5" font-family="Arial" font-size="10.00" fill="#000000">/input/touch_event.h</text>
</a>
</g>
</g>
<!-- Node10&#45;&gt;Node13 -->
<g id="edge17" class="edge">
<title>Node10&#45;&gt;Node13</title>
<path fill="none" stroke="#191970" d="M446.7039,-128.978C418.8283,-117.7503 380.5376,-102.3276 350.6375,-90.2845"/>
<polygon fill="#191970" stroke="#191970" points="351.8319,-86.9924 341.2483,-86.5028 349.2165,-93.4855 351.8319,-86.9924"/>
</g>
<!-- Node14 -->
<g id="node15" class="node">
<title>Node14</title>
<g id="a_node15"><a xlink:href="keyboard__event_8h.html" target="_top" xlink:title="mir_toolkit/events\l/input/keyboard_event.h">
<polygon fill="#ffffff" stroke="#000000" points="556.5,-56.5 556.5,-86.5 691.5,-86.5 691.5,-56.5 556.5,-56.5"/>
<text text-anchor="start" x="564.5" y="-74.5" font-family="Arial" font-size="10.00" fill="#000000">mir_toolkit/events</text>
<text text-anchor="middle" x="624" y="-63.5" font-family="Arial" font-size="10.00" fill="#000000">/input/keyboard_event.h</text>
</a>
</g>
</g>
<!-- Node10&#45;&gt;Node14 -->
<g id="edge18" class="edge">
<title>Node10&#45;&gt;Node14</title>
<path fill="none" stroke="#191970" d="M513.0081,-128.978C534.126,-118.0419 562.9291,-103.126 585.9013,-91.2297"/>
<polygon fill="#191970" stroke="#191970" points="587.7586,-94.2094 595.0291,-86.5028 584.5396,-87.9934 587.7586,-94.2094"/>
</g>
<!-- Node16 -->
<g id="node17" class="node">
<title>Node16</title>
<g id="a_node17"><a xlink:href="pointer__event_8h.html" target="_top" xlink:title="mir_toolkit/events\l/input/pointer_event.h">
<polygon fill="#ffffff" stroke="#000000" points="66,-56.5 66,-86.5 190,-86.5 190,-56.5 66,-56.5"/>
<text text-anchor="start" x="74" y="-74.5" font-family="Arial" font-size="10.00" fill="#000000">mir_toolkit/events</text>
<text text-anchor="middle" x="128" y="-63.5" font-family="Arial" font-size="10.00" fill="#000000">/input/pointer_event.h</text>
</a>
</g>
</g>
<!-- Node10&#45;&gt;Node16 -->
<g id="edge20" class="edge">
<title>Node10&#45;&gt;Node16</title>
<path fill="none" stroke="#191970" d="M426.887,-132.3797C370.3018,-120.8653 281.1673,-102.7236 204,-87 202.7382,-86.7429 201.4647,-86.4834 200.182,-86.222"/>
<polygon fill="#191970" stroke="#191970" points="200.7107,-82.7579 190.2131,-84.1901 199.3126,-89.6168 200.7107,-82.7579"/>
</g>
<!-- Node11&#45;&gt;Node7 -->
<g id="edge14" class="edge">
<title>Node11&#45;&gt;Node7</title>
<path fill="none" stroke="#191970" d="M461.7528,-56.2977C475.1968,-46.9022 492.4011,-34.8787 505.9078,-25.4395"/>
<polygon fill="#191970" stroke="#191970" points="507.9811,-28.2605 514.1729,-19.6633 503.9712,-22.5228 507.9811,-28.2605"/>
</g>
<!-- Node15 -->
<g id="node16" class="node">
<title>Node15</title>
<polygon fill="#ffffff" stroke="#bfbfbf" points="627,-.5 627,-19.5 777,-19.5 777,-.5 627,-.5"/>
<text text-anchor="middle" x="702" y="-7.5" font-family="Arial" font-size="10.00" fill="#000000">xkbcommon/xkbcommon.h</text>
</g>
<!-- Node14&#45;&gt;Node15 -->
<g id="edge19" class="edge">
<title>Node14&#45;&gt;Node15</title>
<path fill="none" stroke="#191970" d="M643.2809,-56.2977C654.8976,-47.1384 669.6818,-35.4816 681.5092,-26.1562"/>
<polygon fill="#191970" stroke="#191970" points="683.8256,-28.787 689.5112,-19.8469 679.4914,-23.2901 683.8256,-28.787"/>
</g>
<!-- Node16&#45;&gt;Node12 -->
<g id="edge21" class="edge">
<title>Node16&#45;&gt;Node12</title>
<path fill="none" stroke="#191970" d="M116.8764,-56.2977C110.6299,-47.7609 102.796,-37.0545 96.2353,-28.0883"/>
<polygon fill="#191970" stroke="#191970" points="98.9348,-25.8505 90.2051,-19.8469 93.2856,-29.984 98.9348,-25.8505"/>
</g>
<!-- Node17&#45;&gt;Node5 -->
<g id="edge23" class="edge">
<title>Node17&#45;&gt;Node5</title>
<path fill="none" stroke="#191970" d="M931.1954,-159.0341C938.4792,-161.3011 945.9028,-163.4091 953,-165 1084.9545,-194.5793 1242.7953,-207.6883 1328.7538,-213.0868"/>
<polygon fill="#191970" stroke="#191970" points="1328.6781,-216.5887 1338.8736,-213.7076 1329.1067,-209.6018 1328.6781,-216.5887"/>
</g>
<!-- Node18&#45;&gt;Node5 -->
<g id="edge25" class="edge">
<title>Node18&#45;&gt;Node5</title>
<path fill="none" stroke="#191970" d="M1296.078,-159.0028C1316.4604,-169.7884 1342.5287,-184.4525 1362.4129,-196.2718"/>
<polygon fill="#191970" stroke="#191970" points="1360.6974,-199.3243 1371.071,-201.478 1364.3046,-193.3253 1360.6974,-199.3243"/>
</g>
<!-- Node18&#45;&gt;Node9 -->
<g id="edge26" class="edge">
<title>Node18&#45;&gt;Node9</title>
<path fill="none" stroke="#191970" d="M1303.2664,-128.9674C1310.722,-126.6102 1318.5291,-124.4708 1326,-123 1466.7073,-95.2985 1889.8752,-79.5079 2070.1793,-73.8781"/>
<polygon fill="#191970" stroke="#191970" points="2070.5146,-77.3695 2080.4015,-73.5617 2070.2979,-70.3729 2070.5146,-77.3695"/>
</g>
<!-- Node19&#45;&gt;Node5 -->
<g id="edge28" class="edge">
<title>Node19&#45;&gt;Node5</title>
<path fill="none" stroke="#191970" d="M1056.2802,-159.0982C1063.2267,-161.2757 1070.2698,-163.338 1077,-165 1163.3412,-186.322 1264.8948,-200.7933 1328.939,-208.8384"/>
<polygon fill="#191970" stroke="#191970" points="1328.5323,-212.3147 1338.8875,-210.0745 1329.3954,-205.3681 1328.5323,-212.3147"/>
</g>
<!-- Node20&#45;&gt;Node5 -->
<g id="edge30" class="edge">
<title>Node20&#45;&gt;Node5</title>
<path fill="none" stroke="#191970" d="M1191.06,-159.0318C1197.8017,-161.0786 1204.5645,-163.1201 1211,-165 1251.3313,-176.7817 1296.745,-189.1247 1332.061,-198.7728"/>
<polygon fill="#191970" stroke="#191970" points="1331.1725,-202.1583 1341.7416,-201.4199 1333.0189,-195.4061 1331.1725,-202.1583"/>
</g>
<!-- Node21&#45;&gt;Node5 -->
<g id="edge32" class="edge">
<title>Node21&#45;&gt;Node5</title>
<path fill="none" stroke="#191970" d="M1641.8615,-159.1065C1634.2452,-161.1216 1626.4329,-163.1345 1619,-165 1564.0048,-178.8026 1500.9399,-193.5883 1455.1736,-203.76"/>
<polygon fill="#191970" stroke="#191970" points="1454.3978,-200.3469 1445.3886,-205.9223 1455.9083,-207.182 1454.3978,-200.3469"/>
</g>
<!-- Node22&#45;&gt;Node5 -->
<g id="edge34" class="edge">
<title>Node22&#45;&gt;Node5</title>
<path fill="none" stroke="#191970" d="M806.8217,-159.0763C814.2182,-161.3679 821.7725,-163.4732 829,-165 923.4124,-184.9444 1202.0515,-204.1703 1328.4712,-212.3626"/>
<polygon fill="#191970" stroke="#191970" points="1328.56,-215.8756 1338.7648,-213.0272 1329.0111,-208.8901 1328.56,-215.8756"/>
</g>
<!-- Node22&#45;&gt;Node15 -->
<g id="edge35" class="edge">
<title>Node22&#45;&gt;Node15</title>
<path fill="none" stroke="#191970" d="M755.4931,-128.8188C752.1583,-110.8314 745.3271,-80.2472 734,-56 729.3433,-46.0318 722.5558,-35.8935 716.429,-27.6807"/>
<polygon fill="#191970" stroke="#191970" points="719.0701,-25.3753 710.1721,-19.624 713.5414,-29.6688 719.0701,-25.3753"/>
</g>
<!-- Node23&#45;&gt;Node5 -->
<g id="edge37" class="edge">
<title>Node23&#45;&gt;Node5</title>
<path fill="none" stroke="#191970" d="M1398.1486,-164.5015C1398.829,-172.8652 1398.9321,-182.6173 1398.4577,-191.4016"/>
<polygon fill="#191970" stroke="#191970" points="1394.9609,-191.2152 1397.5927,-201.478 1401.9353,-191.814 1394.9609,-191.2152"/>
</g>
<!-- Node23&#45;&gt;Node9 -->
<g id="edge38" class="edge">
<title>Node23&#45;&gt;Node9</title>
<path fill="none" stroke="#191970" d="M1448.663,-125.0431C1451.8037,-124.2831 1454.9305,-123.5935 1458,-123 1573.0756,-100.7482 1912.0484,-82.6796 2070.1056,-75.2077"/>
<polygon fill="#191970" stroke="#191970" points="2070.426,-78.6966 2080.2506,-74.7309 2070.0973,-71.7043 2070.426,-78.6966"/>
</g>
<!-- Node24&#45;&gt;Node5 -->
<g id="edge40" class="edge">
<title>Node24&#45;&gt;Node5</title>
<path fill="none" stroke="#191970" d="M1510.2055,-159.0028C1489.9752,-170.0313 1460.5879,-185.115 1436.1218,-197.066"/>
<polygon fill="#191970" stroke="#191970" points="1434.4886,-193.968 1427.0152,-201.478 1437.5407,-200.2676 1434.4886,-193.968"/>
</g>
<!-- Node24&#45;&gt;Node9 -->
<g id="edge41" class="edge">
<title>Node24&#45;&gt;Node9</title>
<path fill="none" stroke="#191970" d="M1583.5854,-128.9582C1592.3259,-126.692 1601.3839,-124.5863 1610,-123 1771.4908,-93.2673 1963.3476,-80.1849 2070.336,-74.8383"/>
<polygon fill="#191970" stroke="#191970" points="2070.6039,-78.3295 2080.4209,-74.3447 2070.2617,-71.3378 2070.6039,-78.3295"/>
</g>
<!-- Node25&#45;&gt;Node5 -->
<g id="edge43" class="edge">
<title>Node25&#45;&gt;Node5</title>
<path fill="none" stroke="#191970" d="M1801.6482,-159.0368C1793.2019,-161.2219 1784.3845,-163.3027 1776,-165 1664.2754,-187.6171 1531.7859,-203.229 1455.1669,-210.9449"/>
<polygon fill="#191970" stroke="#191970" points="1454.7964,-207.4644 1445.1916,-211.9363 1455.4888,-214.43 1454.7964,-207.4644"/>
</g>
<!-- Node26&#45;&gt;Node5 -->
<g id="edge45" class="edge">
<title>Node26&#45;&gt;Node5</title>
<path fill="none" stroke="#191970" d="M1933.0986,-164.5522C1932.3964,-164.706 1931.6967,-164.8554 1931,-165 1761.6641,-200.1517 1556.7895,-211.43 1455.2325,-214.955"/>
<polygon fill="#191970" stroke="#191970" points="1455.0181,-211.4601 1445.1403,-215.2914 1455.2514,-218.4562 1455.0181,-211.4601"/>
</g>
<!-- Node27&#45;&gt;Node4 -->
<g id="edge52" class="edge">
<title>Node27&#45;&gt;Node4</title>
<path fill="none" stroke="#191970" d="M2275.4273,-335.2967C2269.0371,-326.9016 2260.9635,-316.2952 2253.789,-306.8698"/>
<polygon fill="#191970" stroke="#191970" points="2256.3688,-304.4803 2247.5269,-298.6432 2250.7988,-308.7201 2256.3688,-304.4803"/>
</g>
<!-- Node27&#45;&gt;Node8 -->
<g id="edge51" class="edge">
<title>Node27&#45;&gt;Node8</title>
<path fill="none" stroke="#191970" d="M2291.2962,-335.4172C2295.3942,-318.738 2300.2291,-291.1607 2295,-268 2285.9553,-227.9395 2262.3673,-185.6448 2247.9043,-162.2626"/>
<polygon fill="#191970" stroke="#191970" points="2250.8112,-160.3109 2242.5078,-153.7303 2244.8952,-164.0527 2250.8112,-160.3109"/>
</g>
<!-- Node27&#45;&gt;Node9 -->
<g id="edge53" class="edge">
<title>Node27&#45;&gt;Node9</title>
<path fill="none" stroke="#191970" d="M2296.639,-335.4292C2320.4098,-296.1655 2376.4353,-189.1869 2327,-123 2313.9264,-105.4962 2263.945,-91.8422 2220.8852,-83.0044"/>
<polygon fill="#191970" stroke="#191970" points="2221.4609,-79.5503 2210.9696,-81.0272 2220.0921,-86.4152 2221.4609,-79.5503"/>
</g>
<!-- Node29&#45;&gt;Node4 -->
<g id="edge58" class="edge">
<title>Node29&#45;&gt;Node4</title>
<path fill="none" stroke="#191970" d="M2077.506,-340.9005C2105.4513,-330.7798 2150.1645,-314.5864 2184.9852,-301.9756"/>
<polygon fill="#191970" stroke="#191970" points="2186.3114,-305.2178 2194.522,-298.5218 2183.9278,-298.6362 2186.3114,-305.2178"/>
</g>
<!-- Node29&#45;&gt;Node8 -->
<g id="edge59" class="edge">
<title>Node29&#45;&gt;Node8</title>
<path fill="none" stroke="#191970" d="M2055.1571,-340.7097C2066.3721,-315.1814 2099.4346,-245.4848 2144,-201 2161.942,-183.0904 2186.5266,-168.226 2205.7682,-158.1717"/>
<polygon fill="#191970" stroke="#191970" points="2207.3937,-161.2718 2214.7323,-153.6301 2204.23,-155.0275 2207.3937,-161.2718"/>
</g>
<!-- Node29&#45;&gt;Node9 -->
<g id="edge60" class="edge">
<title>Node29&#45;&gt;Node9</title>
<path fill="none" stroke="#191970" d="M1972.4796,-349.553C1657.7048,-344.4549 512.7856,-312.8048 696,-123 720.0077,-98.1287 1764.614,-78.1936 2069.9889,-72.8892"/>
<polygon fill="#191970" stroke="#191970" points="2070.1677,-76.3868 2080.1056,-72.7142 2070.0465,-69.3878 2070.1677,-76.3868"/>
</g>
<!-- Node29&#45;&gt;Node12 -->
<g id="edge61" class="edge">
<title>Node29&#45;&gt;Node12</title>
<path fill="none" stroke="#191970" d="M1972.3972,-349.4557C1600.7793,-344.0132 38,-315.2548 38,-216.5 38,-216.5 38,-216.5 38,-144 38,-103.9877 42.7719,-93.3972 57,-56 60.6107,-46.5097 65.9596,-36.6266 70.8687,-28.4645"/>
<polygon fill="#191970" stroke="#191970" points="73.954,-30.1322 76.299,-19.8001 68.0227,-26.4148 73.954,-30.1322"/>
</g>
<!-- Node31 -->
<g id="node32" class="node">
<title>Node31</title>
<g id="a_node32"><a xlink:href="mir__version__number_8h.html" target="_top" xlink:title="mir_toolkit/mir_version\l_number.h">
<polygon fill="#ffffff" stroke="#000000" points="2359.5,-402.5 2359.5,-432.5 2490.5,-432.5 2490.5,-402.5 2359.5,-402.5"/>
<text text-anchor="start" x="2367.5" y="-420.5" font-family="Arial" font-size="10.00" fill="#000000">mir_toolkit/mir_version</text>
<text text-anchor="middle" x="2425" y="-409.5" font-family="Arial" font-size="10.00" fill="#000000">_number.h</text>
</a>
</g>
</g>
<!-- Node30&#45;&gt;Node31 -->
<g id="edge64" class="edge">
<title>Node30&#45;&gt;Node31</title>
<path fill="none" stroke="#191970" d="M2418.25,-469.3906C2419.1823,-462.2234 2420.501,-452.0862 2421.7257,-442.671"/>
<polygon fill="#191970" stroke="#191970" points="2425.2237,-442.9126 2423.043,-432.5446 2418.2822,-442.0095 2425.2237,-442.9126"/>
</g>
<!-- Node32&#45;&gt;Node4 -->
<g id="edge66" class="edge">
<title>Node32&#45;&gt;Node4</title>
<path fill="none" stroke="#191970" d="M2548.7044,-340.9005C2481.9128,-328.6402 2366.5717,-307.4679 2296.1924,-294.549"/>
<polygon fill="#191970" stroke="#191970" points="2296.6135,-291.0679 2286.1459,-292.7049 2295.3497,-297.9529 2296.6135,-291.0679"/>
</g>
<!-- Node32&#45;&gt;Node9 -->
<g id="edge67" class="edge">
<title>Node32&#45;&gt;Node9</title>
<path fill="none" stroke="#191970" d="M2601.7438,-335.3942C2602.8711,-294.1245 2599.8021,-178.8372 2535,-123 2512.7463,-103.825 2341.3133,-86.7262 2235.8089,-77.8761"/>
<polygon fill="#191970" stroke="#191970" points="2236.0673,-74.3856 2225.8119,-77.0456 2235.4877,-81.3616 2236.0673,-74.3856"/>
</g>
</g>
</svg>
