<?xml version="1.0" encoding="UTF-8" standalone="no"?>
<!DOCTYPE svg PUBLIC "-//W3C//DTD SVG 1.1//EN"
 "http://www.w3.org/Graphics/SVG/1.1/DTD/svg11.dtd">
<!-- Generated by graphviz version 2.38.0 (20140413.2041)
 -->
<!-- Title: include/miral/miral/window_management_policy_addendum3.h Pages: 1 -->
<svg width="2353pt" height="385pt"
 viewBox="0.00 0.00 2352.60 385.00" xmlns="http://www.w3.org/2000/svg" xmlns:xlink="http://www.w3.org/1999/xlink">
<g id="graph0" class="graph" transform="scale(1 1) rotate(0) translate(4 381)">
<title>include/miral/miral/window_management_policy_addendum3.h</title>
<polygon fill="white" stroke="none" points="-4,4 -4,-381 2348.6,-381 2348.6,4 -4,4"/>
<!-- Node0 -->
<g id="node1" class="node"><title>Node0</title>
<polygon fill="#bfbfbf" stroke="black" points="2074.6,-335.5 2074.6,-376.5 2217.6,-376.5 2217.6,-335.5 2074.6,-335.5"/>
<text text-anchor="start" x="2082.6" y="-364.5" font-family="Arial" font-size="10.00">include/miral/miral</text>
<text text-anchor="start" x="2082.6" y="-353.5" font-family="Arial" font-size="10.00">/window_management_policy</text>
<text text-anchor="middle" x="2146.1" y="-342.5" font-family="Arial" font-size="10.00">_addendum3.h</text>
</g>
<!-- Node1 -->
<g id="node2" class="node"><title>Node1</title>
<g id="a_node2"><a xlink:href="client__types_8h.html" target="_top" xlink:title="mir_toolkit/client\l_types.h">
<polygon fill="white" stroke="black" points="102.103,-268.5 102.103,-298.5 190.103,-298.5 190.103,-268.5 102.103,-268.5"/>
<text text-anchor="start" x="110.103" y="-286.5" font-family="Arial" font-size="10.00">mir_toolkit/client</text>
<text text-anchor="middle" x="146.103" y="-275.5" font-family="Arial" font-size="10.00">_types.h</text>
</a>
</g>
</g>
<!-- Node0&#45;&gt;Node1 -->
<g id="edge1" class="edge"><title>Node0&#45;&gt;Node1</title>
<path fill="none" stroke="midnightblue" d="M2074.33,-352.47C1756.6,-341.27 479.988,-296.269 200.395,-286.414"/>
<polygon fill="midnightblue" stroke="midnightblue" points="200.225,-282.906 190.108,-286.051 199.979,-289.901 200.225,-282.906"/>
</g>
<!-- Node24 -->
<g id="node25" class="node"><title>Node24</title>
<g id="a_node25"><a xlink:href="rectangles_8h.html" target="_top" xlink:title="mir/geometry/rectangles.h">
<polygon fill="white" stroke="black" points="2081.1,-274 2081.1,-293 2211.1,-293 2211.1,-274 2081.1,-274"/>
<text text-anchor="middle" x="2146.1" y="-281" font-family="Arial" font-size="10.00">mir/geometry/rectangles.h</text>
</a>
</g>
</g>
<!-- Node0&#45;&gt;Node24 -->
<g id="edge46" class="edge"><title>Node0&#45;&gt;Node24</title>
<path fill="none" stroke="midnightblue" d="M2146.1,-335.362C2146.1,-325.297 2146.1,-313.104 2146.1,-303.18"/>
<polygon fill="midnightblue" stroke="midnightblue" points="2149.6,-303.173 2146.1,-293.173 2142.6,-303.173 2149.6,-303.173"/>
</g>
<!-- Node33 -->
<g id="node34" class="node"><title>Node33</title>
<g id="a_node34"><a xlink:href="mir__version__number_8h.html" target="_top" xlink:title="mir_toolkit/mir_version\l_number.h">
<polygon fill="white" stroke="black" points="2229.6,-268.5 2229.6,-298.5 2344.6,-298.5 2344.6,-268.5 2229.6,-268.5"/>
<text text-anchor="start" x="2237.6" y="-286.5" font-family="Arial" font-size="10.00">mir_toolkit/mir_version</text>
<text text-anchor="middle" x="2287.1" y="-275.5" font-family="Arial" font-size="10.00">_number.h</text>
</a>
</g>
</g>
<!-- Node0&#45;&gt;Node33 -->
<g id="edge60" class="edge"><title>Node0&#45;&gt;Node33</title>
<path fill="none" stroke="midnightblue" d="M2185.38,-335.362C2205.5,-325.302 2229.87,-313.117 2249.71,-303.196"/>
<polygon fill="midnightblue" stroke="midnightblue" points="2251.38,-306.273 2258.76,-298.67 2248.25,-300.012 2251.38,-306.273"/>
</g>
<!-- Node2 -->
<g id="node3" class="node"><title>Node2</title>
<g id="a_node3"><a xlink:href="events_2event_8h.html" target="_top" xlink:title="mir_toolkit/events\l/event.h">
<polygon fill="white" stroke="black" points="757.103,-201.5 757.103,-231.5 851.103,-231.5 851.103,-201.5 757.103,-201.5"/>
<text text-anchor="start" x="765.103" y="-219.5" font-family="Arial" font-size="10.00">mir_toolkit/events</text>
<text text-anchor="middle" x="804.103" y="-208.5" font-family="Arial" font-size="10.00">/event.h</text>
</a>
</g>
</g>
<!-- Node1&#45;&gt;Node2 -->
<g id="edge2" class="edge"><title>Node1&#45;&gt;Node2</title>
<path fill="none" stroke="midnightblue" d="M190.298,-278.134C306.025,-266.702 617.879,-235.896 746.959,-223.145"/>
<polygon fill="midnightblue" stroke="midnightblue" points="747.429,-226.616 757.036,-222.149 746.741,-219.65 747.429,-226.616"/>
</g>
<!-- Node3 -->
<g id="node4" class="node"><title>Node3</title>
<polygon fill="white" stroke="#bfbfbf" points="21.1031,-134.5 21.1031,-153.5 73.1031,-153.5 73.1031,-134.5 21.1031,-134.5"/>
<text text-anchor="middle" x="47.1031" y="-141.5" font-family="Arial" font-size="10.00">stddef.h</text>
</g>
<!-- Node1&#45;&gt;Node3 -->
<g id="edge45" class="edge"><title>Node1&#45;&gt;Node3</title>
<path fill="none" stroke="midnightblue" d="M135.881,-268.303C117.506,-242.781 78.9752,-189.267 59.2716,-161.901"/>
<polygon fill="midnightblue" stroke="midnightblue" points="62.051,-159.771 53.3676,-153.701 56.3703,-163.861 62.051,-159.771"/>
</g>
<!-- Node5 -->
<g id="node6" class="node"><title>Node5</title>
<g id="a_node6"><a xlink:href="common_8h.html" target="_top" xlink:title="mir_toolkit/common.h">
<polygon fill="white" stroke="black" points="91.1031,-134.5 91.1031,-153.5 201.103,-153.5 201.103,-134.5 91.1031,-134.5"/>
<text text-anchor="middle" x="146.103" y="-141.5" font-family="Arial" font-size="10.00">mir_toolkit/common.h</text>
</a>
</g>
</g>
<!-- Node1&#45;&gt;Node5 -->
<g id="edge43" class="edge"><title>Node1&#45;&gt;Node5</title>
<path fill="none" stroke="midnightblue" d="M146.103,-268.303C146.103,-243.336 146.103,-191.58 146.103,-163.722"/>
<polygon fill="midnightblue" stroke="midnightblue" points="149.603,-163.701 146.103,-153.701 142.603,-163.701 149.603,-163.701"/>
</g>
<!-- Node6 -->
<g id="node7" class="node"><title>Node6</title>
<g id="a_node7"><a xlink:href="deprecations_8h.html" target="_top" xlink:title="mir_toolkit/deprecations.h">
<polygon fill="white" stroke="black" points="260.103,-62 260.103,-81 388.103,-81 388.103,-62 260.103,-62"/>
<text text-anchor="middle" x="324.103" y="-69" font-family="Arial" font-size="10.00">mir_toolkit/deprecations.h</text>
</a>
</g>
</g>
<!-- Node1&#45;&gt;Node6 -->
<g id="edge44" class="edge"><title>Node1&#45;&gt;Node6</title>
<path fill="none" stroke="midnightblue" d="M118.329,-268.367C67.0289,-240.477 -33.3734,-176.429 12.1031,-123 42.0196,-87.8519 167.357,-77.0907 249.781,-73.8433"/>
<polygon fill="midnightblue" stroke="midnightblue" points="249.995,-77.3379 259.861,-73.475 249.74,-70.3426 249.995,-77.3379"/>
</g>
<!-- Node2&#45;&gt;Node3 -->
<g id="edge3" class="edge"><title>Node2&#45;&gt;Node3</title>
<path fill="none" stroke="midnightblue" d="M756.778,-214.934C617.182,-212.834 208.961,-203.477 82.1031,-165 77.2518,-163.529 72.3437,-161.289 67.7992,-158.833"/>
<polygon fill="midnightblue" stroke="midnightblue" points="69.5001,-155.772 59.1168,-153.666 65.9203,-161.787 69.5001,-155.772"/>
</g>
<!-- Node4 -->
<g id="node5" class="node"><title>Node4</title>
<polygon fill="white" stroke="#bfbfbf" points="1395.6,-0.5 1395.6,-19.5 1444.6,-19.5 1444.6,-0.5 1395.6,-0.5"/>
<text text-anchor="middle" x="1420.1" y="-7.5" font-family="Arial" font-size="10.00">stdint.h</text>
</g>
<!-- Node2&#45;&gt;Node4 -->
<g id="edge4" class="edge"><title>Node2&#45;&gt;Node4</title>
<path fill="none" stroke="midnightblue" d="M851.41,-214.822C980.524,-212.484 1331.65,-202.688 1366.1,-165 1398.86,-129.171 1337.22,-99.333 1359.1,-56 1365.91,-42.5199 1378.87,-32.083 1391.1,-24.6696"/>
<polygon fill="midnightblue" stroke="midnightblue" points="1393.17,-27.5214 1400.2,-19.5896 1389.76,-21.4099 1393.17,-27.5214"/>
</g>
<!-- Node2&#45;&gt;Node5 -->
<g id="edge5" class="edge"><title>Node2&#45;&gt;Node5</title>
<path fill="none" stroke="midnightblue" d="M757.031,-214.97C655.935,-213.075 410.935,-204.426 210.103,-165 199.737,-162.965 188.677,-159.859 178.719,-156.698"/>
<polygon fill="midnightblue" stroke="midnightblue" points="179.787,-153.365 169.194,-153.556 177.594,-160.013 179.787,-153.365"/>
</g>
<!-- Node2&#45;&gt;Node6 -->
<g id="edge7" class="edge"><title>Node2&#45;&gt;Node6</title>
<path fill="none" stroke="midnightblue" d="M757.049,-214.571C661.645,-211.927 449.295,-201.944 388.103,-165 373.116,-155.952 347.728,-114.204 333.86,-89.999"/>
<polygon fill="midnightblue" stroke="midnightblue" points="336.811,-88.1063 328.842,-81.1248 330.718,-91.5522 336.811,-88.1063"/>
</g>
<!-- Node7 -->
<g id="node8" class="node"><title>Node7</title>
<g id="a_node8"><a xlink:href="input__event_8h.html" target="_top" xlink:title="mir_toolkit/events\l/input/input_event.h">
<polygon fill="white" stroke="black" points="1547.1,-129 1547.1,-159 1649.1,-159 1649.1,-129 1547.1,-129"/>
<text text-anchor="start" x="1555.1" y="-147" font-family="Arial" font-size="10.00">mir_toolkit/events</text>
<text text-anchor="middle" x="1598.1" y="-136" font-family="Arial" font-size="10.00">/input/input_event.h</text>
</a>
</g>
</g>
<!-- Node2&#45;&gt;Node7 -->
<g id="edge8" class="edge"><title>Node2&#45;&gt;Node7</title>
<path fill="none" stroke="midnightblue" d="M851.202,-214.865C964.921,-212.758 1262.64,-203.705 1508.1,-165 1517.45,-163.527 1527.3,-161.503 1536.93,-159.306"/>
<polygon fill="midnightblue" stroke="midnightblue" points="1537.94,-162.666 1546.87,-156.97 1536.33,-155.852 1537.94,-162.666"/>
</g>
<!-- Node14 -->
<g id="node15" class="node"><title>Node14</title>
<g id="a_node15"><a xlink:href="resize__event_8h.html" target="_top" xlink:title="mir_toolkit/events\l/resize_event.h">
<polygon fill="white" stroke="black" points="397.103,-129 397.103,-159 491.103,-159 491.103,-129 397.103,-129"/>
<text text-anchor="start" x="405.103" y="-147" font-family="Arial" font-size="10.00">mir_toolkit/events</text>
<text text-anchor="middle" x="444.103" y="-136" font-family="Arial" font-size="10.00">/resize_event.h</text>
</a>
</g>
</g>
<!-- Node2&#45;&gt;Node14 -->
<g id="edge19" class="edge"><title>Node2&#45;&gt;Node14</title>
<path fill="none" stroke="midnightblue" d="M756.856,-211.011C694.871,-204.071 583.543,-188.98 491.103,-165 487.905,-164.17 484.632,-163.236 481.37,-162.235"/>
<polygon fill="midnightblue" stroke="midnightblue" points="482.294,-158.855 471.701,-159.075 480.119,-165.509 482.294,-158.855"/>
</g>
<!-- Node15 -->
<g id="node16" class="node"><title>Node15</title>
<g id="a_node16"><a xlink:href="surface__event_8h.html" target="_top" xlink:title="mir_toolkit/events\l/surface_event.h">
<polygon fill="white" stroke="black" points="1025.1,-129 1025.1,-159 1119.1,-159 1119.1,-129 1025.1,-129"/>
<text text-anchor="start" x="1033.1" y="-147" font-family="Arial" font-size="10.00">mir_toolkit/events</text>
<text text-anchor="middle" x="1072.1" y="-136" font-family="Arial" font-size="10.00">/surface_event.h</text>
</a>
</g>
</g>
<!-- Node2&#45;&gt;Node15 -->
<g id="edge21" class="edge"><title>Node2&#45;&gt;Node15</title>
<path fill="none" stroke="midnightblue" d="M851.368,-204.043C892.556,-194.669 953.527,-180.471 1006.1,-165 1009.17,-164.097 1012.32,-163.125 1015.5,-162.114"/>
<polygon fill="midnightblue" stroke="midnightblue" points="1016.65,-165.419 1025.07,-158.991 1014.48,-158.763 1016.65,-165.419"/>
</g>
<!-- Node16 -->
<g id="node17" class="node"><title>Node16</title>
<g id="a_node17"><a xlink:href="window__event_8h.html" target="_top" xlink:title="mir_toolkit/events\l/window_event.h">
<polygon fill="white" stroke="black" points="509.103,-129 509.103,-159 603.103,-159 603.103,-129 509.103,-129"/>
<text text-anchor="start" x="517.103" y="-147" font-family="Arial" font-size="10.00">mir_toolkit/events</text>
<text text-anchor="middle" x="556.103" y="-136" font-family="Arial" font-size="10.00">/window_event.h</text>
</a>
</g>
</g>
<!-- Node2&#45;&gt;Node16 -->
<g id="edge24" class="edge"><title>Node2&#45;&gt;Node16</title>
<path fill="none" stroke="midnightblue" d="M756.831,-205.952C715.685,-196.465 654.962,-181.048 603.103,-165 600.467,-164.184 597.77,-163.32 595.065,-162.428"/>
<polygon fill="midnightblue" stroke="midnightblue" points="595.918,-159.021 585.324,-159.104 593.657,-165.646 595.918,-159.021"/>
</g>
<!-- Node17 -->
<g id="node18" class="node"><title>Node17</title>
<g id="a_node18"><a xlink:href="orientation__event_8h.html" target="_top" xlink:title="mir_toolkit/events\l/orientation_event.h">
<polygon fill="white" stroke="black" points="621.103,-129 621.103,-159 723.103,-159 723.103,-129 621.103,-129"/>
<text text-anchor="start" x="629.103" y="-147" font-family="Arial" font-size="10.00">mir_toolkit/events</text>
<text text-anchor="middle" x="672.103" y="-136" font-family="Arial" font-size="10.00">/orientation_event.h</text>
</a>
</g>
</g>
<!-- Node2&#45;&gt;Node17 -->
<g id="edge26" class="edge"><title>Node2&#45;&gt;Node17</title>
<path fill="none" stroke="midnightblue" d="M772.182,-201.403C750.705,-190.692 722.726,-175.846 701.742,-164.074"/>
<polygon fill="midnightblue" stroke="midnightblue" points="703.354,-160.964 692.929,-159.073 699.899,-167.052 703.354,-160.964"/>
</g>
<!-- Node18 -->
<g id="node19" class="node"><title>Node18</title>
<g id="a_node19"><a xlink:href="prompt__session__event_8h.html" target="_top" xlink:title="mir_toolkit/events\l/prompt_session_event.h">
<polygon fill="white" stroke="black" points="741.103,-129 741.103,-159 867.103,-159 867.103,-129 741.103,-129"/>
<text text-anchor="start" x="749.103" y="-147" font-family="Arial" font-size="10.00">mir_toolkit/events</text>
<text text-anchor="middle" x="804.103" y="-136" font-family="Arial" font-size="10.00">/prompt_session_event.h</text>
</a>
</g>
</g>
<!-- Node2&#45;&gt;Node18 -->
<g id="edge28" class="edge"><title>Node2&#45;&gt;Node18</title>
<path fill="none" stroke="midnightblue" d="M798.554,-201.233C797.352,-192.06 797.052,-179.905 797.654,-169.244"/>
<polygon fill="midnightblue" stroke="midnightblue" points="801.144,-169.52 798.557,-159.246 794.172,-168.89 801.144,-169.52"/>
</g>
<!-- Node19 -->
<g id="node20" class="node"><title>Node19</title>
<g id="a_node20"><a xlink:href="keymap__event_8h.html" target="_top" xlink:title="mir_toolkit/events\l/keymap_event.h">
<polygon fill="white" stroke="black" points="1414.1,-129 1414.1,-159 1508.1,-159 1508.1,-129 1414.1,-129"/>
<text text-anchor="start" x="1422.1" y="-147" font-family="Arial" font-size="10.00">mir_toolkit/events</text>
<text text-anchor="middle" x="1461.1" y="-136" font-family="Arial" font-size="10.00">/keymap_event.h</text>
</a>
</g>
</g>
<!-- Node2&#45;&gt;Node19 -->
<g id="edge30" class="edge"><title>Node2&#45;&gt;Node19</title>
<path fill="none" stroke="midnightblue" d="M851.446,-215.127C951.971,-213.495 1193.18,-205.26 1391.1,-165 1395.4,-164.127 1399.81,-163.05 1404.24,-161.853"/>
<polygon fill="midnightblue" stroke="midnightblue" points="1405.27,-165.198 1413.91,-159.072 1403.33,-158.471 1405.27,-165.198"/>
</g>
<!-- Node20 -->
<g id="node21" class="node"><title>Node20</title>
<g id="a_node21"><a xlink:href="input__configuration__event_8h.html" target="_top" xlink:title="mir_toolkit/events\l/input_configuration\l_event.h">
<polygon fill="white" stroke="black" points="1256.6,-123.5 1256.6,-164.5 1357.6,-164.5 1357.6,-123.5 1256.6,-123.5"/>
<text text-anchor="start" x="1264.6" y="-152.5" font-family="Arial" font-size="10.00">mir_toolkit/events</text>
<text text-anchor="start" x="1264.6" y="-141.5" font-family="Arial" font-size="10.00">/input_configuration</text>
<text text-anchor="middle" x="1307.1" y="-130.5" font-family="Arial" font-size="10.00">_event.h</text>
</a>
</g>
</g>
<!-- Node2&#45;&gt;Node20 -->
<g id="edge33" class="edge"><title>Node2&#45;&gt;Node20</title>
<path fill="none" stroke="midnightblue" d="M851.185,-213.042C931.478,-208.352 1099.22,-195.711 1238.1,-165 1240.92,-164.378 1243.79,-163.673 1246.68,-162.909"/>
<polygon fill="midnightblue" stroke="midnightblue" points="1247.88,-166.206 1256.55,-160.117 1245.97,-159.47 1247.88,-166.206"/>
</g>
<!-- Node21 -->
<g id="node22" class="node"><title>Node21</title>
<g id="a_node22"><a xlink:href="surface__output__event_8h.html" target="_top" xlink:title="mir_toolkit/events\l/surface_output_event.h">
<polygon fill="white" stroke="black" points="219.103,-129 219.103,-159 341.103,-159 341.103,-129 219.103,-129"/>
<text text-anchor="start" x="227.103" y="-147" font-family="Arial" font-size="10.00">mir_toolkit/events</text>
<text text-anchor="middle" x="280.103" y="-136" font-family="Arial" font-size="10.00">/surface_output_event.h</text>
</a>
</g>
</g>
<!-- Node2&#45;&gt;Node21 -->
<g id="edge36" class="edge"><title>Node2&#45;&gt;Node21</title>
<path fill="none" stroke="midnightblue" d="M756.821,-212.861C673.133,-207.392 494.3,-192.933 346.103,-165 340.723,-163.986 335.162,-162.79 329.649,-161.496"/>
<polygon fill="midnightblue" stroke="midnightblue" points="330.373,-158.069 319.826,-159.077 328.699,-164.866 330.373,-158.069"/>
</g>
<!-- Node22 -->
<g id="node23" class="node"><title>Node22</title>
<g id="a_node23"><a xlink:href="window__output__event_8h.html" target="_top" xlink:title="mir_toolkit/events\l/window_output_event.h">
<polygon fill="white" stroke="black" points="885.603,-129 885.603,-159 1006.6,-159 1006.6,-129 885.603,-129"/>
<text text-anchor="start" x="893.603" y="-147" font-family="Arial" font-size="10.00">mir_toolkit/events</text>
<text text-anchor="middle" x="946.103" y="-136" font-family="Arial" font-size="10.00">/window_output_event.h</text>
</a>
</g>
</g>
<!-- Node2&#45;&gt;Node22 -->
<g id="edge39" class="edge"><title>Node2&#45;&gt;Node22</title>
<path fill="none" stroke="midnightblue" d="M826.971,-201.403C847.484,-190.5 877.912,-175.312 902.939,-163.443"/>
<polygon fill="midnightblue" stroke="midnightblue" points="904.674,-166.495 912.235,-159.073 901.696,-160.16 904.674,-166.495"/>
</g>
<!-- Node23 -->
<g id="node24" class="node"><title>Node23</title>
<g id="a_node24"><a xlink:href="input__device__state__event_8h.html" target="_top" xlink:title="mir_toolkit/events\l/input_device_state\l_event.h">
<polygon fill="white" stroke="black" points="1137.6,-123.5 1137.6,-164.5 1238.6,-164.5 1238.6,-123.5 1137.6,-123.5"/>
<text text-anchor="start" x="1145.6" y="-152.5" font-family="Arial" font-size="10.00">mir_toolkit/events</text>
<text text-anchor="start" x="1145.6" y="-141.5" font-family="Arial" font-size="10.00">/input_device_state</text>
<text text-anchor="middle" x="1188.1" y="-130.5" font-family="Arial" font-size="10.00">_event.h</text>
</a>
</g>
</g>
<!-- Node2&#45;&gt;Node23 -->
<g id="edge41" class="edge"><title>Node2&#45;&gt;Node23</title>
<path fill="none" stroke="midnightblue" d="M851.299,-209.93C913.367,-202.568 1025.19,-187.801 1119.1,-165 1121.9,-164.32 1124.76,-163.569 1127.64,-162.769"/>
<polygon fill="midnightblue" stroke="midnightblue" points="1128.88,-166.055 1137.5,-159.891 1126.92,-159.336 1128.88,-166.055"/>
</g>
<!-- Node5&#45;&gt;Node6 -->
<g id="edge6" class="edge"><title>Node5&#45;&gt;Node6</title>
<path fill="none" stroke="midnightblue" d="M167.574,-134.496C198.846,-122.11 257.103,-99.0366 293.05,-84.7992"/>
<polygon fill="midnightblue" stroke="midnightblue" points="294.548,-87.9706 302.556,-81.0341 291.97,-81.4625 294.548,-87.9706"/>
</g>
<!-- Node7&#45;&gt;Node2 -->
<g id="edge9" class="edge"><title>Node7&#45;&gt;Node2</title>
<path fill="none" stroke="midnightblue" d="M1555.79,-159.034C1546.11,-161.336 1535.83,-163.466 1526.1,-165 1281.33,-203.595 984.615,-212.706 861.635,-214.847"/>
<polygon fill="midnightblue" stroke="midnightblue" points="861.271,-211.352 851.33,-215.017 861.387,-218.351 861.271,-211.352"/>
</g>
<!-- Node7&#45;&gt;Node4 -->
<g id="edge12" class="edge"><title>Node7&#45;&gt;Node4</title>
<path fill="none" stroke="midnightblue" d="M1579.07,-128.813C1555.93,-111.573 1515.68,-81.6114 1481.1,-56 1467.45,-45.8886 1452.06,-34.5319 1440.15,-25.7571"/>
<polygon fill="midnightblue" stroke="midnightblue" points="1441.93,-22.7264 1431.81,-19.6136 1437.78,-28.3624 1441.93,-22.7264"/>
</g>
<!-- Node8 -->
<g id="node9" class="node"><title>Node8</title>
<g id="a_node9"><a xlink:href="mir__input__device__types_8h.html" target="_top" xlink:title="mir_toolkit/mir_input\l_device_types.h">
<polygon fill="white" stroke="black" points="1368.1,-56.5 1368.1,-86.5 1472.1,-86.5 1472.1,-56.5 1368.1,-56.5"/>
<text text-anchor="start" x="1376.1" y="-74.5" font-family="Arial" font-size="10.00">mir_toolkit/mir_input</text>
<text text-anchor="middle" x="1420.1" y="-63.5" font-family="Arial" font-size="10.00">_device_types.h</text>
</a>
</g>
</g>
<!-- Node7&#45;&gt;Node8 -->
<g id="edge10" class="edge"><title>Node7&#45;&gt;Node8</title>
<path fill="none" stroke="midnightblue" d="M1562.51,-128.903C1534.5,-117.807 1495.28,-102.275 1465.09,-90.319"/>
<polygon fill="midnightblue" stroke="midnightblue" points="1466.22,-87.0012 1455.63,-86.5729 1463.64,-93.5093 1466.22,-87.0012"/>
</g>
<!-- Node9 -->
<g id="node10" class="node"><title>Node9</title>
<polygon fill="white" stroke="#bfbfbf" points="1852.1,-0.5 1852.1,-19.5 1908.1,-19.5 1908.1,-0.5 1852.1,-0.5"/>
<text text-anchor="middle" x="1880.1" y="-7.5" font-family="Arial" font-size="10.00">stdbool.h</text>
</g>
<!-- Node7&#45;&gt;Node9 -->
<g id="edge13" class="edge"><title>Node7&#45;&gt;Node9</title>
<path fill="none" stroke="midnightblue" d="M1649.15,-139.325C1696.46,-133.879 1767.16,-120.388 1819.1,-87 1841.95,-72.3165 1860.12,-46.1714 1870.51,-28.7081"/>
<polygon fill="midnightblue" stroke="midnightblue" points="1873.8,-30.0046 1875.7,-19.5815 1867.71,-26.5446 1873.8,-30.0046"/>
</g>
<!-- Node10 -->
<g id="node11" class="node"><title>Node10</title>
<g id="a_node11"><a xlink:href="touch__event_8h.html" target="_top" xlink:title="mir_toolkit/events\l/input/touch_event.h">
<polygon fill="white" stroke="black" points="1566.6,-56.5 1566.6,-86.5 1671.6,-86.5 1671.6,-56.5 1566.6,-56.5"/>
<text text-anchor="start" x="1574.6" y="-74.5" font-family="Arial" font-size="10.00">mir_toolkit/events</text>
<text text-anchor="middle" x="1619.1" y="-63.5" font-family="Arial" font-size="10.00">/input/touch_event.h</text>
</a>
</g>
</g>
<!-- Node7&#45;&gt;Node10 -->
<g id="edge14" class="edge"><title>Node7&#45;&gt;Node10</title>
<path fill="none" stroke="midnightblue" d="M1602.35,-128.733C1605.11,-119.464 1608.78,-107.152 1611.98,-96.4109"/>
<polygon fill="midnightblue" stroke="midnightblue" points="1615.36,-97.3286 1614.86,-86.7455 1608.65,-95.3302 1615.36,-97.3286"/>
</g>
<!-- Node11 -->
<g id="node12" class="node"><title>Node11</title>
<g id="a_node12"><a xlink:href="keyboard__event_8h.html" target="_top" xlink:title="mir_toolkit/events\l/input/keyboard_event.h">
<polygon fill="white" stroke="black" points="1689.6,-56.5 1689.6,-86.5 1810.6,-86.5 1810.6,-56.5 1689.6,-56.5"/>
<text text-anchor="start" x="1697.6" y="-74.5" font-family="Arial" font-size="10.00">mir_toolkit/events</text>
<text text-anchor="middle" x="1750.1" y="-63.5" font-family="Arial" font-size="10.00">/input/keyboard_event.h</text>
</a>
</g>
</g>
<!-- Node7&#45;&gt;Node11 -->
<g id="edge15" class="edge"><title>Node7&#45;&gt;Node11</title>
<path fill="none" stroke="midnightblue" d="M1628.5,-128.903C1652.11,-117.952 1685.04,-102.678 1710.68,-90.7867"/>
<polygon fill="midnightblue" stroke="midnightblue" points="1712.16,-93.9556 1719.76,-86.5729 1709.22,-87.6054 1712.16,-93.9556"/>
</g>
<!-- Node13 -->
<g id="node14" class="node"><title>Node13</title>
<g id="a_node14"><a xlink:href="pointer__event_8h.html" target="_top" xlink:title="mir_toolkit/events\l/input/pointer_event.h">
<polygon fill="white" stroke="black" points="1867.1,-56.5 1867.1,-86.5 1977.1,-86.5 1977.1,-56.5 1867.1,-56.5"/>
<text text-anchor="start" x="1875.1" y="-74.5" font-family="Arial" font-size="10.00">mir_toolkit/events</text>
<text text-anchor="middle" x="1922.1" y="-63.5" font-family="Arial" font-size="10.00">/input/pointer_event.h</text>
</a>
</g>
</g>
<!-- Node7&#45;&gt;Node13 -->
<g id="edge17" class="edge"><title>Node7&#45;&gt;Node13</title>
<path fill="none" stroke="midnightblue" d="M1649.44,-131.829C1705.64,-119.6 1795.88,-99.9649 1857.01,-86.6634"/>
<polygon fill="midnightblue" stroke="midnightblue" points="1857.91,-90.0494 1866.94,-84.5032 1856.42,-83.2095 1857.91,-90.0494"/>
</g>
<!-- Node8&#45;&gt;Node4 -->
<g id="edge11" class="edge"><title>Node8&#45;&gt;Node4</title>
<path fill="none" stroke="midnightblue" d="M1420.1,-56.3993C1420.1,-48.4664 1420.1,-38.458 1420.1,-29.8583"/>
<polygon fill="midnightblue" stroke="midnightblue" points="1423.6,-29.6577 1420.1,-19.6578 1416.6,-29.6578 1423.6,-29.6577"/>
</g>
<!-- Node12 -->
<g id="node13" class="node"><title>Node12</title>
<polygon fill="white" stroke="#bfbfbf" points="1561.1,-0.5 1561.1,-19.5 1695.1,-19.5 1695.1,-0.5 1561.1,-0.5"/>
<text text-anchor="middle" x="1628.1" y="-7.5" font-family="Arial" font-size="10.00">xkbcommon/xkbcommon.h</text>
</g>
<!-- Node11&#45;&gt;Node12 -->
<g id="edge16" class="edge"><title>Node11&#45;&gt;Node12</title>
<path fill="none" stroke="midnightblue" d="M1721.19,-56.3993C1701.09,-46.5945 1674.48,-33.6194 1654.87,-24.052"/>
<polygon fill="midnightblue" stroke="midnightblue" points="1656.38,-20.8955 1645.86,-19.6578 1653.31,-27.1872 1656.38,-20.8955"/>
</g>
<!-- Node13&#45;&gt;Node9 -->
<g id="edge18" class="edge"><title>Node13&#45;&gt;Node9</title>
<path fill="none" stroke="midnightblue" d="M1912.15,-56.3993C1906.11,-47.8424 1898.36,-36.8708 1892,-27.857"/>
<polygon fill="midnightblue" stroke="midnightblue" points="1894.84,-25.8091 1886.21,-19.6578 1889.12,-29.8459 1894.84,-25.8091"/>
</g>
<!-- Node14&#45;&gt;Node2 -->
<g id="edge20" class="edge"><title>Node14&#45;&gt;Node2</title>
<path fill="none" stroke="midnightblue" d="M489.42,-159.075C496.01,-161.261 502.708,-163.341 509.103,-165 590.735,-186.177 687.097,-200.421 746.998,-208.241"/>
<polygon fill="midnightblue" stroke="midnightblue" points="746.653,-211.726 757.019,-209.534 747.549,-204.783 746.653,-211.726"/>
</g>
<!-- Node15&#45;&gt;Node2 -->
<g id="edge22" class="edge"><title>Node15&#45;&gt;Node2</title>
<path fill="none" stroke="midnightblue" d="M1042.53,-159.095C1036.48,-161.181 1030.14,-163.224 1024.1,-165 969.513,-181.064 905.872,-195.755 861.023,-205.099"/>
<polygon fill="midnightblue" stroke="midnightblue" points="860.271,-201.681 851.182,-207.126 861.683,-208.537 860.271,-201.681"/>
</g>
<!-- Node15&#45;&gt;Node6 -->
<g id="edge23" class="edge"><title>Node15&#45;&gt;Node6</title>
<path fill="none" stroke="midnightblue" d="M1036.63,-128.936C1029.59,-126.607 1022.19,-124.475 1015.1,-123 794.103,-77.0023 525.778,-71.3055 398.28,-71.5415"/>
<polygon fill="midnightblue" stroke="midnightblue" points="398.224,-68.0416 388.235,-71.5731 398.246,-75.0416 398.224,-68.0416"/>
</g>
<!-- Node16&#45;&gt;Node2 -->
<g id="edge25" class="edge"><title>Node16&#45;&gt;Node2</title>
<path fill="none" stroke="midnightblue" d="M603.103,-159.104C609.173,-161.166 615.284,-163.199 621.103,-165 663.088,-177.993 710.883,-190.571 747.171,-199.924"/>
<polygon fill="midnightblue" stroke="midnightblue" points="746.53,-203.373 757.087,-202.475 748.274,-196.594 746.53,-203.373"/>
</g>
<!-- Node17&#45;&gt;Node2 -->
<g id="edge27" class="edge"><title>Node17&#45;&gt;Node2</title>
<path fill="none" stroke="midnightblue" d="M703.975,-159.073C725.442,-169.778 753.421,-184.622 774.416,-196.399"/>
<polygon fill="midnightblue" stroke="midnightblue" points="772.81,-199.512 783.234,-201.403 776.264,-193.424 772.81,-199.512"/>
</g>
<!-- Node18&#45;&gt;Node2 -->
<g id="edge29" class="edge"><title>Node18&#45;&gt;Node2</title>
<path fill="none" stroke="midnightblue" d="M809.649,-159.246C810.852,-168.414 811.154,-180.568 810.553,-191.232"/>
<polygon fill="midnightblue" stroke="midnightblue" points="807.064,-190.959 809.652,-201.233 814.035,-191.588 807.064,-190.959"/>
</g>
<!-- Node19&#45;&gt;Node2 -->
<g id="edge31" class="edge"><title>Node19&#45;&gt;Node2</title>
<path fill="none" stroke="midnightblue" d="M1431.58,-159.072C1424.31,-161.37 1416.53,-163.489 1409.1,-165 1210.96,-205.305 969.428,-213.513 861.187,-215.133"/>
<polygon fill="midnightblue" stroke="midnightblue" points="861.085,-211.634 851.134,-215.27 861.18,-218.633 861.085,-211.634"/>
</g>
<!-- Node19&#45;&gt;Node12 -->
<g id="edge32" class="edge"><title>Node19&#45;&gt;Node12</title>
<path fill="none" stroke="midnightblue" d="M1475.07,-128.926C1493.18,-111.013 1526.14,-79.567 1557.1,-56 1572.15,-44.5443 1590.16,-33.1537 1604.28,-24.6986"/>
<polygon fill="midnightblue" stroke="midnightblue" points="1606.09,-27.6936 1612.92,-19.5951 1602.53,-21.6661 1606.09,-27.6936"/>
</g>
<!-- Node20&#45;&gt;Node2 -->
<g id="edge34" class="edge"><title>Node20&#45;&gt;Node2</title>
<path fill="none" stroke="midnightblue" d="M1258.04,-164.561C1257.39,-164.711 1256.75,-164.858 1256.1,-165 1116.65,-195.836 948.108,-208.455 861.468,-213.099"/>
<polygon fill="midnightblue" stroke="midnightblue" points="861.12,-209.612 851.315,-213.626 861.484,-216.603 861.12,-209.612"/>
</g>
<!-- Node20&#45;&gt;Node6 -->
<g id="edge35" class="edge"><title>Node20&#45;&gt;Node6</title>
<path fill="none" stroke="midnightblue" d="M1256.29,-125.034C1253.2,-124.264 1250.12,-123.575 1247.1,-123 1085.05,-92.1349 587.984,-78.2744 398.519,-74.0128"/>
<polygon fill="midnightblue" stroke="midnightblue" points="398.453,-70.5105 388.378,-73.7872 398.297,-77.5088 398.453,-70.5105"/>
</g>
<!-- Node21&#45;&gt;Node2 -->
<g id="edge37" class="edge"><title>Node21&#45;&gt;Node2</title>
<path fill="none" stroke="midnightblue" d="M337.531,-159.077C346.424,-161.29 355.495,-163.378 364.103,-165 500.261,-190.664 662.28,-204.954 746.698,-211.348"/>
<polygon fill="midnightblue" stroke="midnightblue" points="746.615,-214.852 756.848,-212.107 747.137,-207.871 746.615,-214.852"/>
</g>
<!-- Node21&#45;&gt;Node6 -->
<g id="edge38" class="edge"><title>Node21&#45;&gt;Node6</title>
<path fill="none" stroke="midnightblue" d="M289.007,-128.733C295.982,-117.558 305.717,-101.959 313.166,-90.0243"/>
<polygon fill="midnightblue" stroke="midnightblue" points="316.227,-91.7296 318.553,-81.3932 310.289,-88.0234 316.227,-91.7296"/>
</g>
<!-- Node22&#45;&gt;Node2 -->
<g id="edge40" class="edge"><title>Node22&#45;&gt;Node2</title>
<path fill="none" stroke="midnightblue" d="M923.281,-159.073C902.783,-169.97 872.359,-185.156 847.323,-197.03"/>
<polygon fill="midnightblue" stroke="midnightblue" points="845.584,-193.98 838.024,-201.403 848.563,-200.315 845.584,-193.98"/>
</g>
<!-- Node23&#45;&gt;Node2 -->
<g id="edge42" class="edge"><title>Node23&#45;&gt;Node2</title>
<path fill="none" stroke="midnightblue" d="M1139.03,-164.523C1138.39,-164.685 1137.74,-164.845 1137.1,-165 1042.06,-188.077 928.652,-202.925 861.622,-210.195"/>
<polygon fill="midnightblue" stroke="midnightblue" points="860.845,-206.757 851.272,-211.296 861.586,-213.718 860.845,-206.757"/>
</g>
<!-- Node25 -->
<g id="node26" class="node"><title>Node25</title>
<g id="a_node26"><a xlink:href="point_8h.html" target="_top" xlink:title="mir/geometry/point.h">
<polygon fill="white" stroke="black" points="2095.1,-134.5 2095.1,-153.5 2201.1,-153.5 2201.1,-134.5 2095.1,-134.5"/>
<text text-anchor="middle" x="2148.1" y="-141.5" font-family="Arial" font-size="10.00">mir/geometry/point.h</text>
</a>
</g>
</g>
<!-- Node24&#45;&gt;Node25 -->
<g id="edge47" class="edge"><title>Node24&#45;&gt;Node25</title>
<path fill="none" stroke="midnightblue" d="M2146.23,-273.899C2146.55,-252.003 2147.39,-193.761 2147.83,-163.634"/>
<polygon fill="midnightblue" stroke="midnightblue" points="2151.33,-163.648 2147.98,-153.598 2144.33,-163.546 2151.33,-163.648"/>
</g>
<!-- Node29 -->
<g id="node30" class="node"><title>Node29</title>
<g id="a_node30"><a xlink:href="rectangle_8h.html" target="_top" xlink:title="mir/geometry/rectangle.h">
<polygon fill="white" stroke="black" points="1992.6,-207 1992.6,-226 2117.6,-226 2117.6,-207 1992.6,-207"/>
<text text-anchor="middle" x="2055.1" y="-214" font-family="Arial" font-size="10.00">mir/geometry/rectangle.h</text>
</a>
</g>
</g>
<!-- Node24&#45;&gt;Node29 -->
<g id="edge52" class="edge"><title>Node24&#45;&gt;Node29</title>
<path fill="none" stroke="midnightblue" d="M2133.83,-273.734C2118.96,-263.111 2093.67,-245.049 2075.77,-232.264"/>
<polygon fill="midnightblue" stroke="midnightblue" points="2077.35,-229.092 2067.18,-226.127 2073.28,-234.788 2077.35,-229.092"/>
</g>
<!-- Node31 -->
<g id="node32" class="node"><title>Node31</title>
<polygon fill="white" stroke="#bfbfbf" points="2174.1,-207 2174.1,-226 2218.1,-226 2218.1,-207 2174.1,-207"/>
<text text-anchor="middle" x="2196.1" y="-214" font-family="Arial" font-size="10.00">vector</text>
</g>
<!-- Node24&#45;&gt;Node31 -->
<g id="edge58" class="edge"><title>Node24&#45;&gt;Node31</title>
<path fill="none" stroke="midnightblue" d="M2152.85,-273.734C2160.64,-263.598 2173.65,-246.69 2183.37,-234.056"/>
<polygon fill="midnightblue" stroke="midnightblue" points="2186.14,-236.188 2189.47,-226.127 2180.6,-231.92 2186.14,-236.188"/>
</g>
<!-- Node32 -->
<g id="node33" class="node"><title>Node32</title>
<polygon fill="white" stroke="#bfbfbf" points="2236.6,-207 2236.6,-226 2309.6,-226 2309.6,-207 2236.6,-207"/>
<text text-anchor="middle" x="2273.1" y="-214" font-family="Arial" font-size="10.00">initializer_list</text>
</g>
<!-- Node24&#45;&gt;Node32 -->
<g id="edge59" class="edge"><title>Node24&#45;&gt;Node32</title>
<path fill="none" stroke="midnightblue" d="M2162.97,-273.869C2184.51,-262.845 2222,-243.655 2247.18,-230.768"/>
<polygon fill="midnightblue" stroke="midnightblue" points="2248.86,-233.839 2256.17,-226.167 2245.67,-227.608 2248.86,-233.839"/>
</g>
<!-- Node26 -->
<g id="node27" class="node"><title>Node26</title>
<g id="a_node27"><a xlink:href="dimensions_8h.html" target="_top" xlink:title="dimensions.h">
<polygon fill="white" stroke="black" points="2071.1,-62 2071.1,-81 2145.1,-81 2145.1,-62 2071.1,-62"/>
<text text-anchor="middle" x="2108.1" y="-69" font-family="Arial" font-size="10.00">dimensions.h</text>
</a>
</g>
</g>
<!-- Node25&#45;&gt;Node26 -->
<g id="edge48" class="edge"><title>Node25&#45;&gt;Node26</title>
<path fill="none" stroke="midnightblue" d="M2143.2,-134.355C2136.96,-123.362 2126.04,-104.113 2118.03,-90.0006"/>
<polygon fill="midnightblue" stroke="midnightblue" points="2121.03,-88.1858 2113.05,-81.2154 2114.94,-91.6402 2121.03,-88.1858"/>
</g>
<!-- Node28 -->
<g id="node29" class="node"><title>Node28</title>
<polygon fill="white" stroke="#bfbfbf" points="2022.1,-0.5 2022.1,-19.5 2066.1,-19.5 2066.1,-0.5 2022.1,-0.5"/>
<text text-anchor="middle" x="2044.1" y="-7.5" font-family="Arial" font-size="10.00">iosfwd</text>
</g>
<!-- Node25&#45;&gt;Node28 -->
<g id="edge51" class="edge"><title>Node25&#45;&gt;Node28</title>
<path fill="none" stroke="midnightblue" d="M2151.87,-134.454C2158.59,-117.774 2170.47,-80.3859 2154.1,-56 2149.45,-49.0632 2106.65,-32.8904 2075.84,-21.9456"/>
<polygon fill="midnightblue" stroke="midnightblue" points="2076.91,-18.6139 2066.32,-18.5942 2074.59,-25.2166 2076.91,-18.6139"/>
</g>
<!-- Node27 -->
<g id="node28" class="node"><title>Node27</title>
<polygon fill="white" stroke="#bfbfbf" points="2085.1,-0.5 2085.1,-19.5 2131.1,-19.5 2131.1,-0.5 2085.1,-0.5"/>
<text text-anchor="middle" x="2108.1" y="-7.5" font-family="Arial" font-size="10.00">cstdint</text>
</g>
<!-- Node26&#45;&gt;Node27 -->
<g id="edge49" class="edge"><title>Node26&#45;&gt;Node27</title>
<path fill="none" stroke="midnightblue" d="M2108.1,-61.9751C2108.1,-53.5803 2108.1,-40.4806 2108.1,-29.6631"/>
<polygon fill="midnightblue" stroke="midnightblue" points="2111.6,-29.5091 2108.1,-19.5091 2104.6,-29.5091 2111.6,-29.5091"/>
</g>
<!-- Node26&#45;&gt;Node28 -->
<g id="edge50" class="edge"><title>Node26&#45;&gt;Node28</title>
<path fill="none" stroke="midnightblue" d="M2098.93,-61.9751C2088.95,-52.6966 2072.79,-37.6706 2060.59,-26.331"/>
<polygon fill="midnightblue" stroke="midnightblue" points="2062.96,-23.7547 2053.26,-19.5091 2058.2,-28.8814 2062.96,-23.7547"/>
</g>
<!-- Node29&#45;&gt;Node25 -->
<g id="edge53" class="edge"><title>Node29&#45;&gt;Node25</title>
<path fill="none" stroke="midnightblue" d="M2066.51,-206.855C2081.92,-195.174 2109.62,-174.175 2128.42,-159.918"/>
<polygon fill="midnightblue" stroke="midnightblue" points="2130.75,-162.546 2136.61,-153.715 2126.52,-156.967 2130.75,-162.546"/>
</g>
<!-- Node29&#45;&gt;Node28 -->
<g id="edge57" class="edge"><title>Node29&#45;&gt;Node28</title>
<path fill="none" stroke="midnightblue" d="M2047.75,-206.912C2040.12,-197.395 2028.69,-181.236 2024.1,-165 2010.59,-117.147 2026.93,-58.3106 2037.12,-29.1559"/>
<polygon fill="midnightblue" stroke="midnightblue" points="2040.5,-30.1138 2040.65,-19.5201 2033.92,-27.7059 2040.5,-30.1138"/>
</g>
<!-- Node30 -->
<g id="node31" class="node"><title>Node30</title>
<g id="a_node31"><a xlink:href="size_8h.html" target="_top" xlink:title="size.h">
<polygon fill="white" stroke="black" points="2033.6,-134.5 2033.6,-153.5 2076.6,-153.5 2076.6,-134.5 2033.6,-134.5"/>
<text text-anchor="middle" x="2055.1" y="-141.5" font-family="Arial" font-size="10.00">size.h</text>
</a>
</g>
</g>
<!-- Node29&#45;&gt;Node30 -->
<g id="edge54" class="edge"><title>Node29&#45;&gt;Node30</title>
<path fill="none" stroke="midnightblue" d="M2055.1,-206.855C2055.1,-196.179 2055.1,-177.717 2055.1,-163.734"/>
<polygon fill="midnightblue" stroke="midnightblue" points="2058.6,-163.715 2055.1,-153.715 2051.6,-163.715 2058.6,-163.715"/>
</g>
<!-- Node30&#45;&gt;Node26 -->
<g id="edge55" class="edge"><title>Node30&#45;&gt;Node26</title>
<path fill="none" stroke="midnightblue" d="M2061.6,-134.355C2069.95,-123.256 2084.62,-103.742 2095.25,-89.5949"/>
<polygon fill="midnightblue" stroke="midnightblue" points="2098.34,-91.3118 2101.55,-81.2154 2092.74,-87.1054 2098.34,-91.3118"/>
</g>
<!-- Node30&#45;&gt;Node28 -->
<g id="edge56" class="edge"><title>Node30&#45;&gt;Node28</title>
<path fill="none" stroke="midnightblue" d="M2054.38,-134.339C2052.62,-113.174 2048.06,-58.4482 2045.65,-29.5329"/>
<polygon fill="midnightblue" stroke="midnightblue" points="2049.13,-29.1959 2044.81,-19.5212 2042.16,-29.7773 2049.13,-29.1959"/>
</g>
</g>
</svg>
