<?xml version="1.0" encoding="UTF-8" standalone="no"?>
<!DOCTYPE svg PUBLIC "-//W3C//DTD SVG 1.1//EN"
 "http://www.w3.org/Graphics/SVG/1.1/DTD/svg11.dtd">
<!-- Generated by graphviz version 2.43.0 (0)
 -->
<!-- Title: include/miral/miral/zone.h Pages: 1 -->
<svg width="489pt" height="319pt"
 viewBox="0.00 0.00 488.50 319.00" xmlns="http://www.w3.org/2000/svg" xmlns:xlink="http://www.w3.org/1999/xlink">
<g id="graph0" class="graph" transform="scale(1 1) rotate(0) translate(4 315)">
<title>include/miral/miral/zone.h</title>
<polygon fill="white" stroke="transparent" points="-4,4 -4,-315 484.5,-315 484.5,4 -4,4"/>
<!-- Node1 -->
<g id="node1" class="node">
<title>Node1</title>
<g id="a_node1"><a xlink:title=" ">
<polygon fill="#bfbfbf" stroke="black" points="229,-280.5 229,-310.5 338,-310.5 338,-280.5 229,-280.5"/>
<text text-anchor="start" x="237" y="-298.5" font-family="Arial" font-size="10.00">include/miral/miral</text>
<text text-anchor="middle" x="283.5" y="-287.5" font-family="Arial" font-size="10.00">/zone.h</text>
</a>
</g>
</g>
<!-- Node2 -->
<g id="node2" class="node">
<title>Node2</title>
<g id="a_node2"><a xlink:href="common_8h.html" target="_top" xlink:title=" ">
<polygon fill="white" stroke="black" points="0,-224.5 0,-243.5 125,-243.5 125,-224.5 0,-224.5"/>
<text text-anchor="middle" x="62.5" y="-231.5" font-family="Arial" font-size="10.00">mir_toolkit/common.h</text>
</a>
</g>
</g>
<!-- Node1&#45;&gt;Node2 -->
<g id="edge1" class="edge">
<title>Node1&#45;&gt;Node2</title>
<path fill="none" stroke="midnightblue" d="M231.41,-280.47C192.45,-269.99 139.89,-255.84 103.81,-246.12"/>
<polygon fill="midnightblue" stroke="midnightblue" points="104.66,-242.73 94.1,-243.51 102.84,-249.49 104.66,-242.73"/>
</g>
<!-- Node3 -->
<g id="node3" class="node">
<title>Node3</title>
<g id="a_node3"><a xlink:href="rectangle_8h.html" target="_top" xlink:title=" ">
<polygon fill="white" stroke="black" points="143,-224.5 143,-243.5 284,-243.5 284,-224.5 143,-224.5"/>
<text text-anchor="middle" x="213.5" y="-231.5" font-family="Arial" font-size="10.00">mir/geometry/rectangle.h</text>
</a>
</g>
</g>
<!-- Node1&#45;&gt;Node3 -->
<g id="edge2" class="edge">
<title>Node1&#45;&gt;Node3</title>
<path fill="none" stroke="midnightblue" d="M266.91,-280.4C256.21,-271.31 242.31,-259.49 231.37,-250.19"/>
<polygon fill="midnightblue" stroke="midnightblue" points="233.57,-247.47 223.69,-243.66 229.04,-252.8 233.57,-247.47"/>
</g>
<!-- Node13 -->
<g id="node13" class="node">
<title>Node13</title>
<g id="a_node13"><a xlink:href="int__wrapper_8h.html" target="_top" xlink:title=" ">
<polygon fill="white" stroke="black" points="302.5,-224.5 302.5,-243.5 404.5,-243.5 404.5,-224.5 302.5,-224.5"/>
<text text-anchor="middle" x="353.5" y="-231.5" font-family="Arial" font-size="10.00">mir/int_wrapper.h</text>
</a>
</g>
</g>
<!-- Node1&#45;&gt;Node13 -->
<g id="edge22" class="edge">
<title>Node1&#45;&gt;Node13</title>
<path fill="none" stroke="midnightblue" d="M300.09,-280.4C310.79,-271.31 324.69,-259.49 335.63,-250.19"/>
<polygon fill="midnightblue" stroke="midnightblue" points="337.96,-252.8 343.31,-243.66 333.43,-247.47 337.96,-252.8"/>
</g>
<!-- Node15 -->
<g id="node15" class="node">
<title>Node15</title>
<g id="a_node15"><a xlink:title=" ">
<polygon fill="white" stroke="#bfbfbf" points="422.5,-224.5 422.5,-243.5 480.5,-243.5 480.5,-224.5 422.5,-224.5"/>
<text text-anchor="middle" x="451.5" y="-231.5" font-family="Arial" font-size="10.00">memory</text>
</a>
</g>
</g>
<!-- Node1&#45;&gt;Node15 -->
<g id="edge25" class="edge">
<title>Node1&#45;&gt;Node15</title>
<path fill="none" stroke="midnightblue" d="M323.31,-280.4C352,-270.24 390.31,-256.67 417.56,-247.02"/>
<polygon fill="midnightblue" stroke="midnightblue" points="418.8,-250.3 427.05,-243.66 416.46,-243.7 418.8,-250.3"/>
</g>
<!-- Node4 -->
<g id="node4" class="node">
<title>Node4</title>
<g id="a_node4"><a xlink:href="forward_8h.html" target="_top" xlink:title=" ">
<polygon fill="white" stroke="black" points="162,-0.5 162,-19.5 225,-19.5 225,-0.5 162,-0.5"/>
<text text-anchor="middle" x="193.5" y="-7.5" font-family="Arial" font-size="10.00">forward.h</text>
</a>
</g>
</g>
<!-- Node3&#45;&gt;Node4 -->
<g id="edge3" class="edge">
<title>Node3&#45;&gt;Node4</title>
<path fill="none" stroke="midnightblue" d="M185.98,-224.39C167.44,-217.31 143.69,-205.55 128.5,-188 111.2,-168.02 113.01,-158.04 108.5,-132 102.36,-96.53 113.78,-83.92 136.5,-56 146.17,-44.12 159.5,-33.38 170.84,-25.37"/>
<polygon fill="midnightblue" stroke="midnightblue" points="173.09,-28.08 179.4,-19.57 169.16,-22.28 173.09,-28.08"/>
</g>
<!-- Node5 -->
<g id="node5" class="node">
<title>Node5</title>
<g id="a_node5"><a xlink:href="point_8h.html" target="_top" xlink:title=" ">
<polygon fill="white" stroke="black" points="123.5,-112.5 123.5,-131.5 173.5,-131.5 173.5,-112.5 123.5,-112.5"/>
<text text-anchor="middle" x="148.5" y="-119.5" font-family="Arial" font-size="10.00">point.h</text>
</a>
</g>
</g>
<!-- Node3&#45;&gt;Node5 -->
<g id="edge4" class="edge">
<title>Node3&#45;&gt;Node5</title>
<path fill="none" stroke="midnightblue" d="M198.77,-224.2C186.82,-216.26 170.51,-203.47 161.5,-188 153.26,-173.86 150.17,-155.38 149.04,-141.73"/>
<polygon fill="midnightblue" stroke="midnightblue" points="152.53,-141.41 148.49,-131.62 145.54,-141.79 152.53,-141.41"/>
</g>
<!-- Node10 -->
<g id="node10" class="node">
<title>Node10</title>
<g id="a_node10"><a xlink:title=" ">
<polygon fill="white" stroke="#bfbfbf" points="154,-56.5 154,-75.5 211,-75.5 211,-56.5 154,-56.5"/>
<text text-anchor="middle" x="182.5" y="-63.5" font-family="Arial" font-size="10.00">ostream</text>
</a>
</g>
</g>
<!-- Node3&#45;&gt;Node10 -->
<g id="edge21" class="edge">
<title>Node3&#45;&gt;Node10</title>
<path fill="none" stroke="midnightblue" d="M198.26,-224.4C184.67,-216.23 164.77,-202.99 150.5,-188 130.1,-166.57 122.84,-160.39 114.5,-132 112,-123.47 110.29,-119.83 114.5,-112 122.12,-97.82 136.4,-87.35 149.91,-80.1"/>
<polygon fill="midnightblue" stroke="midnightblue" points="151.63,-83.16 159.05,-75.59 148.53,-76.88 151.63,-83.16"/>
</g>
<!-- Node11 -->
<g id="node11" class="node">
<title>Node11</title>
<g id="a_node11"><a xlink:href="size_8h.html" target="_top" xlink:title=" ">
<polygon fill="white" stroke="black" points="268,-112.5 268,-131.5 313,-131.5 313,-112.5 268,-112.5"/>
<text text-anchor="middle" x="290.5" y="-119.5" font-family="Arial" font-size="10.00">size.h</text>
</a>
</g>
</g>
<!-- Node3&#45;&gt;Node11 -->
<g id="edge12" class="edge">
<title>Node3&#45;&gt;Node11</title>
<path fill="none" stroke="midnightblue" d="M229.56,-224.37C242.68,-216.54 260.74,-203.8 271.5,-188 280.91,-174.18 285.73,-155.66 288.15,-141.92"/>
<polygon fill="midnightblue" stroke="midnightblue" points="291.66,-142.13 289.67,-131.72 284.74,-141.09 291.66,-142.13"/>
</g>
<!-- Node12 -->
<g id="node12" class="node">
<title>Node12</title>
<g id="a_node12"><a xlink:href="displacement_8h.html" target="_top" xlink:title=" ">
<polygon fill="white" stroke="black" points="170.5,-168.5 170.5,-187.5 262.5,-187.5 262.5,-168.5 170.5,-168.5"/>
<text text-anchor="middle" x="216.5" y="-175.5" font-family="Arial" font-size="10.00">displacement.h</text>
</a>
</g>
</g>
<!-- Node3&#45;&gt;Node12 -->
<g id="edge16" class="edge">
<title>Node3&#45;&gt;Node12</title>
<path fill="none" stroke="midnightblue" d="M214,-224.08C214.39,-217.01 214.95,-206.86 215.45,-197.99"/>
<polygon fill="midnightblue" stroke="midnightblue" points="218.95,-197.93 216.01,-187.75 211.96,-197.54 218.95,-197.93"/>
</g>
<!-- Node5&#45;&gt;Node4 -->
<g id="edge5" class="edge">
<title>Node5&#45;&gt;Node4</title>
<path fill="none" stroke="midnightblue" d="M145.49,-112.14C141.62,-99.2 136.31,-74.63 144.5,-56 149.89,-43.73 160.46,-33.34 170.4,-25.65"/>
<polygon fill="midnightblue" stroke="midnightblue" points="172.75,-28.27 178.84,-19.6 168.67,-22.58 172.75,-28.27"/>
</g>
<!-- Node6 -->
<g id="node6" class="node">
<title>Node6</title>
<g id="a_node6"><a xlink:href="dimensions_8h.html" target="_top" xlink:title=" ">
<polygon fill="white" stroke="black" points="305.5,-56.5 305.5,-75.5 387.5,-75.5 387.5,-56.5 305.5,-56.5"/>
<text text-anchor="middle" x="346.5" y="-63.5" font-family="Arial" font-size="10.00">dimensions.h</text>
</a>
</g>
</g>
<!-- Node5&#45;&gt;Node6 -->
<g id="edge6" class="edge">
<title>Node5&#45;&gt;Node6</title>
<path fill="none" stroke="midnightblue" d="M173.58,-114.16C206.77,-105.11 265.72,-89.03 305.45,-78.2"/>
<polygon fill="midnightblue" stroke="midnightblue" points="306.38,-81.57 315.11,-75.56 304.54,-74.82 306.38,-81.57"/>
</g>
<!-- Node5&#45;&gt;Node10 -->
<g id="edge11" class="edge">
<title>Node5&#45;&gt;Node10</title>
<path fill="none" stroke="midnightblue" d="M154.11,-112.08C158.87,-104.53 165.82,-93.49 171.65,-84.23"/>
<polygon fill="midnightblue" stroke="midnightblue" points="174.62,-86.08 176.99,-75.75 168.7,-82.35 174.62,-86.08"/>
</g>
<!-- Node6&#45;&gt;Node4 -->
<g id="edge7" class="edge">
<title>Node6&#45;&gt;Node4</title>
<path fill="none" stroke="midnightblue" d="M322.26,-56.44C296.63,-47.4 256.01,-33.06 227.26,-22.92"/>
<polygon fill="midnightblue" stroke="midnightblue" points="228.22,-19.54 217.63,-19.52 225.89,-26.15 228.22,-19.54"/>
</g>
<!-- Node7 -->
<g id="node7" class="node">
<title>Node7</title>
<g id="a_node7"><a xlink:title=" ">
<polygon fill="white" stroke="#bfbfbf" points="399.5,-0.5 399.5,-19.5 447.5,-19.5 447.5,-0.5 399.5,-0.5"/>
<text text-anchor="middle" x="423.5" y="-7.5" font-family="Arial" font-size="10.00">iosfwd</text>
</a>
</g>
</g>
<!-- Node6&#45;&gt;Node7 -->
<g id="edge8" class="edge">
<title>Node6&#45;&gt;Node7</title>
<path fill="none" stroke="midnightblue" d="M358.87,-56.32C370.66,-48.06 388.63,-35.45 402.64,-25.63"/>
<polygon fill="midnightblue" stroke="midnightblue" points="404.98,-28.26 411.16,-19.65 400.96,-22.53 404.98,-28.26"/>
</g>
<!-- Node8 -->
<g id="node8" class="node">
<title>Node8</title>
<g id="a_node8"><a xlink:title=" ">
<polygon fill="white" stroke="#bfbfbf" points="312,-0.5 312,-19.5 381,-19.5 381,-0.5 312,-0.5"/>
<text text-anchor="middle" x="346.5" y="-7.5" font-family="Arial" font-size="10.00">type_traits</text>
</a>
</g>
</g>
<!-- Node6&#45;&gt;Node8 -->
<g id="edge9" class="edge">
<title>Node6&#45;&gt;Node8</title>
<path fill="none" stroke="midnightblue" d="M346.5,-56.08C346.5,-49.01 346.5,-38.86 346.5,-29.99"/>
<polygon fill="midnightblue" stroke="midnightblue" points="350,-29.75 346.5,-19.75 343,-29.75 350,-29.75"/>
</g>
<!-- Node9 -->
<g id="node9" class="node">
<title>Node9</title>
<g id="a_node9"><a xlink:title=" ">
<polygon fill="white" stroke="#bfbfbf" points="243.5,-0.5 243.5,-19.5 293.5,-19.5 293.5,-0.5 243.5,-0.5"/>
<text text-anchor="middle" x="268.5" y="-7.5" font-family="Arial" font-size="10.00">cstdint</text>
</a>
</g>
</g>
<!-- Node6&#45;&gt;Node9 -->
<g id="edge10" class="edge">
<title>Node6&#45;&gt;Node9</title>
<path fill="none" stroke="midnightblue" d="M333.97,-56.32C321.91,-47.98 303.47,-35.21 289.23,-25.35"/>
<polygon fill="midnightblue" stroke="midnightblue" points="291.22,-22.47 281,-19.65 287.23,-28.22 291.22,-22.47"/>
</g>
<!-- Node11&#45;&gt;Node4 -->
<g id="edge13" class="edge">
<title>Node11&#45;&gt;Node4</title>
<path fill="none" stroke="midnightblue" d="M286.93,-112.29C281.23,-99.1 269.13,-73.73 253.5,-56 242.93,-44.01 228.71,-33.18 216.76,-25.14"/>
<polygon fill="midnightblue" stroke="midnightblue" points="218.47,-22.08 208.17,-19.57 214.66,-27.95 218.47,-22.08"/>
</g>
<!-- Node11&#45;&gt;Node6 -->
<g id="edge14" class="edge">
<title>Node11&#45;&gt;Node6</title>
<path fill="none" stroke="midnightblue" d="M299.5,-112.32C307.69,-104.42 320.01,-92.55 329.97,-82.94"/>
<polygon fill="midnightblue" stroke="midnightblue" points="332.57,-85.29 337.34,-75.83 327.71,-80.26 332.57,-85.29"/>
</g>
<!-- Node11&#45;&gt;Node10 -->
<g id="edge15" class="edge">
<title>Node11&#45;&gt;Node10</title>
<path fill="none" stroke="midnightblue" d="M273.15,-112.32C255.83,-103.66 228.98,-90.24 209,-80.25"/>
<polygon fill="midnightblue" stroke="midnightblue" points="210.32,-77 199.81,-75.65 207.19,-83.26 210.32,-77"/>
</g>
<!-- Node12&#45;&gt;Node4 -->
<g id="edge17" class="edge">
<title>Node12&#45;&gt;Node4</title>
<path fill="none" stroke="midnightblue" d="M218.37,-168.29C222.35,-148.12 230.44,-96.8 219.5,-56 216.85,-46.1 211.43,-36.13 206.23,-28.1"/>
<polygon fill="midnightblue" stroke="midnightblue" points="208.96,-25.91 200.39,-19.68 203.21,-29.89 208.96,-25.91"/>
</g>
<!-- Node12&#45;&gt;Node5 -->
<g id="edge19" class="edge">
<title>Node12&#45;&gt;Node5</title>
<path fill="none" stroke="midnightblue" d="M205.57,-168.32C195.33,-160.18 179.78,-147.84 167.5,-138.09"/>
<polygon fill="midnightblue" stroke="midnightblue" points="169.63,-135.31 159.62,-131.83 165.28,-140.79 169.63,-135.31"/>
</g>
<!-- Node12&#45;&gt;Node6 -->
<g id="edge18" class="edge">
<title>Node12&#45;&gt;Node6</title>
<path fill="none" stroke="midnightblue" d="M256,-168.47C278.14,-161.86 304.77,-150.59 322.5,-132 334.55,-119.36 340.65,-100.15 343.68,-85.89"/>
<polygon fill="midnightblue" stroke="midnightblue" points="347.18,-86.19 345.5,-75.73 340.29,-84.96 347.18,-86.19"/>
</g>
<!-- Node12&#45;&gt;Node10 -->
<g id="edge20" class="edge">
<title>Node12&#45;&gt;Node10</title>
<path fill="none" stroke="midnightblue" d="M213.83,-168.37C208.32,-150.54 195.57,-109.3 188.15,-85.27"/>
<polygon fill="midnightblue" stroke="midnightblue" points="191.45,-84.11 185.16,-75.59 184.76,-86.18 191.45,-84.11"/>
</g>
<!-- Node13&#45;&gt;Node7 -->
<g id="edge23" class="edge">
<title>Node13&#45;&gt;Node7</title>
<path fill="none" stroke="midnightblue" d="M364.75,-224.31C374.55,-216.07 388.28,-202.79 395.5,-188 421.37,-134.97 424.28,-63.38 424.05,-29.82"/>
<polygon fill="midnightblue" stroke="midnightblue" points="427.54,-29.57 423.87,-19.64 420.54,-29.7 427.54,-29.57"/>
</g>
<!-- Node14 -->
<g id="node14" class="node">
<title>Node14</title>
<g id="a_node14"><a xlink:title=" ">
<polygon fill="white" stroke="#bfbfbf" points="321,-168.5 321,-187.5 386,-187.5 386,-168.5 321,-168.5"/>
<text text-anchor="middle" x="353.5" y="-175.5" font-family="Arial" font-size="10.00">functional</text>
</a>
</g>
</g>
<!-- Node13&#45;&gt;Node14 -->
<g id="edge24" class="edge">
<title>Node13&#45;&gt;Node14</title>
<path fill="none" stroke="midnightblue" d="M353.5,-224.08C353.5,-217.01 353.5,-206.86 353.5,-197.99"/>
<polygon fill="midnightblue" stroke="midnightblue" points="357,-197.75 353.5,-187.75 350,-197.75 357,-197.75"/>
</g>
</g>
</svg>
